<svg width="226" height="236" viewBox="0 0 226 236" fill="none" xmlns="http://www.w3.org/2000/svg">
<path d="M122.794 81.9651L85.8663 146.505L33.9048 116.505L70.8321 51.9651L122.794 81.9651Z" fill="#8BC5E4"/>
<path d="M85.7969 183.715L121.564 204.845L69.6022 174.845L33.8354 153.715L85.7969 183.715Z" fill="#8BC5E4"/>
<path d="M155.538 185.25L191.244 122.755L139.283 92.7549L103.577 155.25L155.538 185.25Z" fill="#8BC5E4"/>
<path d="M191.227 85.705L154.291 63.77L102.33 33.77L139.266 55.705L191.227 85.705Z" fill="#8BC5E4"/>
<path d="M138.546 33.01L86.585 3.01001L138.546 33.01Z" fill="#8BC5E4"/>
<path d="M138.546 35.6799L86.585 5.67993L138.546 35.6799Z" fill="#8BC5E4"/>
<path d="M128.778 74.7099L148.134 63.5349L96.1721 33.5349L76.8164 44.7099L128.778 74.7099Z" fill="#8BC5E4"/>
<path d="M138.503 46.2749L86.542 16.2749L138.503 46.2749Z" fill="#8BC5E4"/>
<path d="M153.061 66.0601L189.885 87.9301L137.923 57.9301L101.1 36.0601L153.061 66.0601Z" fill="#8BC5E4"/>
<path d="M189.902 122.08L154.43 184.16L102.468 154.16L137.941 92.0801L189.902 122.08Z" fill="#8BC5E4"/>
<path d="M122.672 202.485L87.148 181.495L35.1865 151.495L70.7109 172.485L122.672 202.485Z" fill="#8BC5E4"/>
<path d="M87.2086 147.17L124.032 82.8201L72.0705 52.8201L35.2471 117.17L87.2086 147.17Z" fill="#8BC5E4"/>
<path d="M153.061 66.0601L101.1 36.0601L153.061 66.0601Z" fill="#8BC5E4"/>
<path d="M72.6075 151.16L20.646 121.16L72.6075 151.16Z" fill="#8BC5E4"/>
<path d="M204.521 75L152.559 45L204.521 75Z" fill="#8BC5E4"/>
<path d="M198.155 90.855V97.285L146.194 67.285V60.855L198.155 90.855Z" fill="#8BC5E4"/>
<path d="M198.155 97.2849L194.31 99.5049L142.349 69.5049L146.194 67.2849L198.155 97.2849Z" fill="#8BC5E4"/>
<path d="M194.31 99.5049V115.065L142.349 85.0649V69.5049L194.31 99.5049Z" fill="#8BC5E4"/>
<path d="M194.31 115.065L214.87 103.195L162.908 73.1951L142.349 85.0651L194.31 115.065Z" fill="#8BC5E4"/>
<path d="M214.869 103.195V87.635L162.908 57.635V73.195L214.869 103.195Z" fill="#8BC5E4"/>
<path d="M214.869 87.635L211.171 89.77L159.21 59.77L162.908 57.635L214.869 87.635Z" fill="#8BC5E4"/>
<path d="M211.171 89.7701V83.3401L159.21 53.3401V59.7701L211.171 89.7701Z" fill="#8BC5E4"/>
<path d="M204.659 80.5L152.698 50.5L204.659 80.5Z" fill="#8BC5E4"/>
<path d="M72.5294 158.635L20.5679 128.635L72.5294 158.635Z" fill="#8BC5E4"/>
<path d="M209.353 84.3899V90.8199L157.391 60.8199V54.3899L209.353 84.3899Z" fill="#8BC5E4"/>
<path d="M209.353 90.8201L199.983 96.2301L148.021 66.2301L157.391 60.8201L209.353 90.8201Z" fill="#8BC5E4"/>
<path d="M199.983 96.23V89.8L148.021 59.8V66.23L199.983 96.23Z" fill="#8BC5E4"/>
<path d="M204.659 82.6299L152.698 52.6299L204.659 82.6299Z" fill="#8BC5E4"/>
<path d="M172.348 126.655V121.535L120.386 91.5349V96.6549L172.348 126.655Z" fill="#8BC5E4"/>
<path d="M172.348 109.795V104.675L120.386 74.675V79.795L172.348 109.795Z" fill="#8BC5E4"/>
<path d="M165.844 106.59L113.882 76.5901L165.844 106.59Z" fill="#8BC5E4"/>
<path d="M72.0274 161.075V164.225L20.0659 134.225V131.075L72.0274 161.075Z" fill="#8BC5E4"/>
<path d="M73.3869 163.44V160.32L21.4253 130.32V133.44L73.3869 163.44Z" fill="#8BC5E4"/>
<path d="M79.1373 159.87L77.3619 162.985L25.4004 132.985L27.1758 129.87L79.1373 159.87Z" fill="#8BC5E4"/>
<path d="M78.3317 163.555L80.0984 160.455L28.1368 130.455L26.3701 133.555L78.3317 163.555Z" fill="#8BC5E4"/>
<path d="M82.5148 165.83L80.2198 167.155L28.2583 137.155L30.5533 135.83L82.5148 165.83Z" fill="#8BC5E4"/>
<path d="M80.2198 168.755L82.5234 167.425L30.5619 137.425L28.2583 138.755L80.2198 168.755Z" fill="#8BC5E4"/>
<path d="M62.5358 178.965L65.1945 177.43L13.2329 147.43L10.5742 148.965L62.5358 178.965Z" fill="#8BC5E4"/>
<path d="M65.1942 175.83L62.5528 177.355L10.5913 147.355L13.2326 145.83L65.1942 175.83Z" fill="#8BC5E4"/>
<path d="M64.9952 169.125L66.8138 170.205L14.8523 140.205L13.0337 139.125L64.9952 169.125Z" fill="#8BC5E4"/>
<path d="M67.7836 168.515L65.9649 167.435L14.0034 137.435L15.8221 138.515L67.7836 168.515Z" fill="#8BC5E4"/>
<path d="M72.0274 161.075L20.0659 131.075L72.0274 161.075Z" fill="#8BC5E4"/>
<path d="M109.656 139.48L101.844 168.71L49.8828 138.71L57.6944 109.48L109.656 139.48Z" fill="#8BC5E4"/>
<path d="M101.844 168.71L107.318 165.55L55.3561 135.55L49.8828 138.71L101.844 168.71Z" fill="#8BC5E4"/>
<path d="M107.318 165.55L108.66 160.275L56.6988 130.275L55.3564 135.55L107.318 165.55Z" fill="#8BC5E4"/>
<path d="M108.66 160.275L117.156 155.37L65.1944 125.37L56.6987 130.275L108.66 160.275Z" fill="#8BC5E4"/>
<path d="M117.156 155.37L118.481 159.105L66.5193 129.105L65.1943 125.37L117.156 155.37Z" fill="#8BC5E4"/>
<path d="M118.481 159.105L123.946 155.95L71.9841 125.95L66.5195 129.105L118.481 159.105Z" fill="#8BC5E4"/>
<path d="M123.946 155.95L116.143 135.735L64.1812 105.735L71.9841 125.95L123.946 155.95Z" fill="#8BC5E4"/>
<path d="M116.142 135.735L109.656 139.48L57.6943 109.48L64.1808 105.735L116.142 135.735Z" fill="#8BC5E4"/>
<path d="M109.656 139.48L57.6943 109.48L109.656 139.48Z" fill="#8BC5E4"/>
<path d="M125.885 130.11V154.83L73.9238 124.83V100.11L125.885 130.11Z" fill="#8BC5E4"/>
<path d="M125.885 154.83L131.315 151.695L79.3538 121.695L73.9238 124.83L125.885 154.83Z" fill="#8BC5E4"/>
<path d="M131.316 151.695V143.115L79.354 113.115V121.695L131.316 151.695Z" fill="#8BC5E4"/>
<path d="M131.316 143.115L134.91 141.04L82.948 111.04L79.354 113.115L131.316 143.115Z" fill="#8BC5E4"/>
<path d="M134.909 124.9L125.885 130.11L73.9238 100.11L82.9478 94.8999L134.909 124.9Z" fill="#8BC5E4"/>
<path d="M125.885 130.11L73.9238 100.11L125.885 130.11Z" fill="#8BC5E4"/>
<path d="M146.48 118.22V142.94L94.5181 112.94V88.22L146.48 118.22Z" fill="#8BC5E4"/>
<path d="M146.48 142.94L151.918 139.8L99.9567 109.8L94.5181 112.94L146.48 142.94Z" fill="#8BC5E4"/>
<path d="M151.918 139.8V115.08L99.9565 85.0801V109.8L151.918 139.8Z" fill="#8BC5E4"/>
<path d="M151.918 115.08L146.48 118.22L94.5181 88.2201L99.9567 85.0801L151.918 115.08Z" fill="#8BC5E4"/>
<path d="M146.48 118.22L94.5181 88.22L146.48 118.22Z" fill="#8BC5E4"/>
<path d="M131.316 131.595L134.329 129.855L82.3678 99.855L79.354 101.595L131.316 131.595Z" fill="#8BC5E4"/>
<path d="M134.329 136.765L131.316 138.505L79.354 108.505L82.3678 106.765L134.329 136.765Z" fill="#8BC5E4"/>
<path d="M131.316 138.505V131.595L79.354 101.595V108.505L131.316 138.505Z" fill="#8BC5E4"/>
<path d="M131.316 131.595L79.354 101.595L131.316 131.595Z" fill="#8BC5E4"/>
<path d="M112.903 143.395L115.787 151.57L63.8257 121.57L60.9419 113.395L112.903 143.395Z" fill="#8BC5E4"/>
<path d="M115.788 151.57L110.011 154.905L58.0498 124.905L63.8261 121.57L115.788 151.57Z" fill="#8BC5E4"/>
<path d="M110.011 154.905L112.904 143.395L60.9423 113.395L58.0498 124.905L110.011 154.905Z" fill="#8BC5E4"/>
<path d="M112.903 143.395L60.9419 113.395L112.903 143.395Z" fill="#8BC5E4"/>
<path d="M76.9548 165.59L75.7164 166.805L23.7549 136.805L24.9933 135.59L76.9548 165.59Z" fill="#8BC5E4"/>
<path d="M75.7164 166.805L72.6247 176.28L20.6631 146.28L23.7549 136.805L75.7164 166.805Z" fill="#8BC5E4"/>
<path d="M74.3306 176.525L77.4483 166.655L25.4868 136.655L22.3691 146.525L74.3306 176.525Z" fill="#8BC5E4"/>
<path d="M77.4488 166.655L76.9552 165.59L24.9937 135.59L25.4873 136.655L77.4488 166.655Z" fill="#8BC5E4"/>
<path d="M76.9552 165.59L24.9937 135.59L76.9552 165.59Z" fill="#8BC5E4"/>
<path d="M70.148 180.49L18.1865 150.49L70.148 180.49Z" fill="#8BC5E4"/>
<path d="M138.546 187.25L86.585 157.25L138.546 187.25Z" fill="#8BC5E4"/>
<path d="M136.416 198.04L137.022 197.69L85.0608 167.69L84.4546 168.04L136.416 198.04Z" fill="#8BC5E4"/>
<path d="M137.023 197.69V199.88L85.061 169.88V167.69L137.023 197.69Z" fill="#8BC5E4"/>
<path d="M139.759 198.25V196.11L87.7974 166.11V168.25L139.759 198.25Z" fill="#8BC5E4"/>
<path d="M139.759 196.11L140.53 195.665L88.5682 165.665L87.7974 166.11L139.759 196.11Z" fill="#8BC5E4"/>
<path d="M140.53 192.465L136.416 194.84L84.4546 164.84L88.5682 162.465L140.53 192.465Z" fill="#8BC5E4"/>
<path d="M136.416 194.84L84.4546 164.84L136.416 194.84Z" fill="#8BC5E4"/>
<path d="M138.529 201.55L86.5679 171.55L138.529 201.55Z" fill="#8BC5E4"/>
<path d="M137.906 212.88L143.128 215.875L91.1665 185.875L85.9443 182.88L137.906 212.88Z" fill="#8BC5E4"/>
<path d="M143.128 215.875L143.648 214.985L91.6861 184.985L91.1665 185.875L143.128 215.875Z" fill="#8BC5E4"/>
<path d="M143.648 214.985L140.045 209.945L88.0835 179.945L91.6862 184.985L143.648 214.985Z" fill="#8BC5E4"/>
<path d="M138.902 209.895L86.9404 179.895L138.902 209.895Z" fill="#8BC5E4"/>
<path d="M153.061 66.0601L189.885 87.9301L137.923 57.9301L101.1 36.0601L153.061 66.0601Z" fill="#8BC5E4"/>
<path d="M189.902 122.08L154.43 184.16L102.468 154.16L137.941 92.0801L189.902 122.08Z" fill="#8BC5E4"/>
<path d="M122.672 202.485L87.148 181.495L35.1865 151.495L70.7109 172.485L122.672 202.485Z" fill="#8BC5E4"/>
<path d="M87.2086 147.17L124.032 82.8201L72.0705 52.8201L35.2471 117.17L87.2086 147.17Z" fill="#8BC5E4"/>
<path d="M153.061 66.0601L101.1 36.0601L153.061 66.0601Z" fill="#8BC5E4"/>
<path d="M172.348 104.675V109.795L120.386 79.795V74.675L172.348 104.675Z" fill="#8BC5E4"/>
<path d="M172.348 121.535V126.655L120.386 96.6549V91.5349L172.348 121.535Z" fill="#8BC5E4"/>
<path d="M157.495 114.87L105.534 84.8701L157.495 114.87Z" fill="#8BC5E4"/>
<path d="M101.844 168.71L109.656 139.48L57.6944 109.48L49.8828 138.71L101.844 168.71Z" fill="#8BC5E4"/>
<path d="M109.656 139.48L116.142 135.735L64.1808 105.735L57.6943 109.48L109.656 139.48Z" fill="#8BC5E4"/>
<path d="M116.143 135.735L123.946 155.95L71.9841 125.95L64.1812 105.735L116.143 135.735Z" fill="#8BC5E4"/>
<path d="M123.946 155.95L118.481 159.105L66.5195 129.105L71.9841 125.95L123.946 155.95Z" fill="#8BC5E4"/>
<path d="M118.481 159.105L117.156 155.37L65.1943 125.37L66.5193 129.105L118.481 159.105Z" fill="#8BC5E4"/>
<path d="M117.156 155.37L108.66 160.275L56.6987 130.275L65.1944 125.37L117.156 155.37Z" fill="#8BC5E4"/>
<path d="M108.66 160.275L107.318 165.55L55.3564 135.55L56.6988 130.275L108.66 160.275Z" fill="#8BC5E4"/>
<path d="M107.318 165.55L101.844 168.71L49.8828 138.71L55.3561 135.55L107.318 165.55Z" fill="#8BC5E4"/>
<path d="M101.844 168.71L49.8828 138.71L101.844 168.71Z" fill="#8BC5E4"/>
<path d="M125.885 154.83V130.11L73.9238 100.11V124.83L125.885 154.83Z" fill="#8BC5E4"/>
<path d="M125.885 130.11L134.909 124.9L82.9478 94.8999L73.9238 100.11L125.885 130.11Z" fill="#8BC5E4"/>
<path d="M134.91 141.04L131.316 143.115L79.354 113.115L82.948 111.04L134.91 141.04Z" fill="#8BC5E4"/>
<path d="M131.316 143.115V151.695L79.354 121.695V113.115L131.316 143.115Z" fill="#8BC5E4"/>
<path d="M131.315 151.695L125.885 154.83L73.9238 124.83L79.3538 121.695L131.315 151.695Z" fill="#8BC5E4"/>
<path d="M125.885 154.83L73.9238 124.83L125.885 154.83Z" fill="#8BC5E4"/>
<path d="M146.48 142.94V118.22L94.5181 88.22V112.94L146.48 142.94Z" fill="#8BC5E4"/>
<path d="M146.48 118.22L151.918 115.08L99.9567 85.0801L94.5181 88.2201L146.48 118.22Z" fill="#8BC5E4"/>
<path d="M151.918 115.08V139.8L99.9565 109.8V85.0801L151.918 115.08Z" fill="#8BC5E4"/>
<path d="M151.918 139.8L146.48 142.94L94.5181 112.94L99.9567 109.8L151.918 139.8Z" fill="#8BC5E4"/>
<path d="M146.48 142.94L94.5181 112.94L146.48 142.94Z" fill="#8BC5E4"/>
<path d="M131.316 131.595L134.329 129.855L82.3678 99.855L79.354 101.595L131.316 131.595Z" fill="#8BC5E4"/>
<path d="M134.329 136.765L131.316 138.505L79.354 108.505L82.3678 106.765L134.329 136.765Z" fill="#8BC5E4"/>
<path d="M131.316 138.505V131.595L79.354 101.595V108.505L131.316 138.505Z" fill="#8BC5E4"/>
<path d="M131.316 131.595L79.354 101.595L131.316 131.595Z" fill="#8BC5E4"/>
<path d="M112.903 143.395L115.787 151.57L63.8257 121.57L60.9419 113.395L112.903 143.395Z" fill="#8BC5E4"/>
<path d="M115.788 151.57L110.011 154.905L58.0498 124.905L63.8261 121.57L115.788 151.57Z" fill="#8BC5E4"/>
<path d="M110.011 154.905L112.904 143.395L60.9423 113.395L58.0498 124.905L110.011 154.905Z" fill="#8BC5E4"/>
<path d="M112.903 143.395L60.9419 113.395L112.903 143.395Z" fill="#8BC5E4"/>
<path d="M204.521 75L152.559 45L204.521 75Z" fill="#8BC5E4"/>
<path d="M211.171 83.3401V89.7701L159.21 59.7701V53.3401L211.171 83.3401Z" fill="#8BC5E4"/>
<path d="M211.171 89.77L214.869 87.635L162.908 57.635L159.21 59.77L211.171 89.77Z" fill="#8BC5E4"/>
<path d="M214.869 87.635V103.195L162.908 73.195V57.635L214.869 87.635Z" fill="#8BC5E4"/>
<path d="M214.87 103.195L194.31 115.065L142.349 85.0651L162.908 73.1951L214.87 103.195Z" fill="#8BC5E4"/>
<path d="M194.31 115.065V99.5049L142.349 69.5049V85.0649L194.31 115.065Z" fill="#8BC5E4"/>
<path d="M194.31 99.5049L198.155 97.2849L146.194 67.2849L142.349 69.5049L194.31 99.5049Z" fill="#8BC5E4"/>
<path d="M198.155 97.285V90.855L146.194 60.855V67.285L198.155 97.285Z" fill="#8BC5E4"/>
<path d="M198.155 90.855L146.194 60.855L198.155 90.855Z" fill="#8BC5E4"/>
<path d="M209.353 84.3899V90.8199L157.391 60.8199V54.3899L209.353 84.3899Z" fill="#8BC5E4"/>
<path d="M209.353 90.8201L199.983 96.2301L148.021 66.2301L157.391 60.8201L209.353 90.8201Z" fill="#8BC5E4"/>
<path d="M199.983 96.23V89.8L148.021 59.8V66.23L199.983 96.23Z" fill="#8BC5E4"/>
<path d="M204.659 82.6299L152.698 52.6299L204.659 82.6299Z" fill="#8BC5E4"/>
<path d="M138.546 35.6799L86.585 5.67993L138.546 35.6799Z" fill="#8BC5E4"/>
<path d="M148.134 63.5349L128.778 74.7099L76.8164 44.7099L96.1721 33.5349L148.134 63.5349Z" fill="#8BC5E4"/>
<path d="M132.666 56.0549L80.7046 26.0549L132.666 56.0549Z" fill="#8BC5E4"/>
<path d="M72.6075 151.16L20.646 121.16L72.6075 151.16Z" fill="#8BC5E4"/>
<path d="M60.6998 179.345L8.73828 149.345L60.6998 179.345Z" fill="#8BC5E4"/>
<path d="M72.0274 161.075V164.225L20.0659 134.225V131.075L72.0274 161.075Z" fill="#8BC5E4"/>
<path d="M73.3869 163.44V160.32L21.4253 130.32V133.44L73.3869 163.44Z" fill="#8BC5E4"/>
<path d="M79.1373 159.87L77.3619 162.985L25.4004 132.985L27.1758 129.87L79.1373 159.87Z" fill="#8BC5E4"/>
<path d="M78.3317 163.555L80.0984 160.455L28.1368 130.455L26.3701 133.555L78.3317 163.555Z" fill="#8BC5E4"/>
<path d="M82.5148 165.83L80.2198 167.155L28.2583 137.155L30.5533 135.83L82.5148 165.83Z" fill="#8BC5E4"/>
<path d="M80.2198 168.755L82.5234 167.425L30.5619 137.425L28.2583 138.755L80.2198 168.755Z" fill="#8BC5E4"/>
<path d="M62.5358 178.965L65.1945 177.43L13.2329 147.43L10.5742 148.965L62.5358 178.965Z" fill="#8BC5E4"/>
<path d="M65.1942 175.83L62.5528 177.355L10.5913 147.355L13.2326 145.83L65.1942 175.83Z" fill="#8BC5E4"/>
<path d="M64.9952 169.125L66.8138 170.205L14.8523 140.205L13.0337 139.125L64.9952 169.125Z" fill="#8BC5E4"/>
<path d="M67.7836 168.515L65.9649 167.435L14.0034 137.435L15.8221 138.515L67.7836 168.515Z" fill="#8BC5E4"/>
<path d="M72.0274 161.075L20.0659 131.075L72.0274 161.075Z" fill="#8BC5E4"/>
<path d="M75.7164 166.805L76.9548 165.59L24.9933 135.59L23.7549 136.805L75.7164 166.805Z" fill="#8BC5E4"/>
<path d="M76.9552 165.59L77.4488 166.655L25.4873 136.655L24.9937 135.59L76.9552 165.59Z" fill="#8BC5E4"/>
<path d="M77.4483 166.655L74.3306 176.525L22.3691 146.525L25.4868 136.655L77.4483 166.655Z" fill="#8BC5E4"/>
<path d="M72.6247 176.28L75.7164 166.805L23.7549 136.805L20.6631 146.28L72.6247 176.28Z" fill="#8BC5E4"/>
<path d="M75.7164 166.805L23.7549 136.805L75.7164 166.805Z" fill="#8BC5E4"/>
<path d="M67.0391 184.015L15.0776 154.015L67.0391 184.015Z" fill="#8BC5E4"/>
<path d="M138.546 187.25L86.585 157.25L138.546 187.25Z" fill="#8BC5E4"/>
<path d="M136.416 194.84L140.53 192.465L88.5682 162.465L84.4546 164.84L136.416 194.84Z" fill="#8BC5E4"/>
<path d="M140.53 195.665L139.759 196.11L87.7974 166.11L88.5682 165.665L140.53 195.665Z" fill="#8BC5E4"/>
<path d="M139.759 196.11V198.25L87.7974 168.25V166.11L139.759 196.11Z" fill="#8BC5E4"/>
<path d="M137.023 199.88V197.69L85.061 167.69V169.88L137.023 199.88Z" fill="#8BC5E4"/>
<path d="M137.022 197.69L136.416 198.04L84.4546 168.04L85.0608 167.69L137.022 197.69Z" fill="#8BC5E4"/>
<path d="M135.238 196.32L83.2769 166.32L135.238 196.32Z" fill="#8BC5E4"/>
<path d="M138.529 201.55L86.5679 171.55L138.529 201.55Z" fill="#8BC5E4"/>
<path d="M140.045 209.945L143.648 214.985L91.6862 184.985L88.0835 179.945L140.045 209.945Z" fill="#8BC5E4"/>
<path d="M143.648 214.985L143.128 215.875L91.1665 185.875L91.6861 184.985L143.648 214.985Z" fill="#8BC5E4"/>
<path d="M143.128 215.875L137.906 212.88L85.9443 182.88L91.1665 185.875L143.128 215.875Z" fill="#8BC5E4"/>
<path d="M138.027 210.75L86.0654 180.75L138.027 210.75Z" fill="#8BC5E4"/>
<path d="M138.547 33.01C127.158 39.585 117.901 55.79 117.901 69.15L65.939 39.15C65.939 25.79 75.1969 9.58501 86.5851 3.01001L138.547 33.01Z" fill="#8BC5E4"/>
<path d="M117.901 69.1499C117.901 75.1099 119.745 79.4949 122.794 81.9649L70.8321 51.9649C67.7837 49.4949 65.939 45.1099 65.939 39.1499L117.901 69.1499Z" fill="#8BC5E4"/>
<path d="M85.8664 146.505C82.2811 145.045 77.6565 145.575 72.6075 148.49L20.646 118.49C25.6949 115.575 30.3195 115.045 33.9049 116.505L85.8664 146.505Z" fill="#8BC5E4"/>
<path d="M72.6075 148.49C61.2193 155.065 51.9615 171.27 51.9615 184.63L0 154.63C0 141.27 9.2578 125.065 20.646 118.49L72.6075 148.49Z" fill="#8BC5E4"/>
<path d="M51.9615 184.63C51.9615 191.414 54.3485 196.176 58.1905 198.358L6.229 168.358C2.387 166.176 0 161.414 0 154.63L51.9615 184.63Z" fill="#8BC5E4"/>
<path d="M58.1876 198.357C61.9086 200.473 66.9956 200.167 72.5996 196.935L20.6381 166.935C15.0341 170.167 9.94707 170.473 6.22607 168.357L58.1876 198.357Z" fill="#8BC5E4"/>
<path d="M72.6075 196.93C77.6218 194.035 82.2204 189.27 85.7971 183.715L33.8356 153.715C30.2589 159.27 25.6603 164.035 20.646 166.93L72.6075 196.93Z" fill="#8BC5E4"/>
<path d="M121.564 204.845C119.252 210.09 117.901 215.61 117.901 220.72L65.939 190.72C65.939 185.61 67.2901 180.09 69.6023 174.845L121.564 204.845Z" fill="#8BC5E4"/>
<path d="M117.901 220.72C117.9 227.499 120.288 232.258 124.129 234.439L72.1679 204.439C68.3269 202.258 65.9389 197.499 65.939 190.72L117.901 220.72Z" fill="#8BC5E4"/>
<path d="M124.127 234.438C127.848 236.553 132.935 236.247 138.539 233.015L86.577 203.015C80.973 206.247 75.886 206.553 72.165 204.438L124.127 234.438Z" fill="#8BC5E4"/>
<path d="M138.546 233.01C149.935 226.435 159.193 210.23 159.193 196.88L107.231 166.88C107.231 180.23 97.9732 196.435 86.585 203.01L138.546 233.01Z" fill="#8BC5E4"/>
<path d="M159.193 196.88C159.193 191.78 157.842 187.82 155.538 185.25L103.577 155.25C105.88 157.82 107.231 161.78 107.231 166.88L159.193 196.88Z" fill="#8BC5E4"/>
<path d="M191.244 122.755C194.838 124.22 199.472 123.685 204.52 120.77L152.559 90.77C147.51 93.685 142.877 94.22 139.283 92.755L191.244 122.755Z" fill="#8BC5E4"/>
<path d="M204.521 120.77C215.909 114.195 225.167 97.9899 225.167 84.6299L173.205 54.6299C173.205 67.9899 163.947 84.1949 152.559 90.7699L204.521 120.77Z" fill="#8BC5E4"/>
<path d="M225.167 84.6301C225.167 77.8461 222.78 73.0841 218.938 70.9021L166.976 40.9021C170.818 43.0841 173.205 47.8461 173.205 54.6301L225.167 84.6301Z" fill="#8BC5E4"/>
<path d="M218.94 70.903C215.219 68.787 210.132 69.093 204.528 72.325L152.567 42.325C158.171 39.093 163.258 38.787 166.979 40.903L218.94 70.903Z" fill="#8BC5E4"/>
<path d="M204.521 72.3301C199.454 75.2551 194.821 80.0801 191.227 85.7051L139.266 55.7051C142.86 50.0801 147.493 45.2551 152.559 42.3301L204.521 72.3301Z" fill="#8BC5E4"/>
<path d="M154.291 63.7701C157.348 57.7851 159.193 51.2701 159.193 45.3101L107.231 15.3101C107.231 21.2701 105.387 27.7851 102.33 33.7701L154.291 63.7701Z" fill="#8BC5E4"/>
<path d="M159.193 45.31C159.192 38.526 156.805 33.764 152.964 31.582L101.003 1.58203C104.844 3.76403 107.231 8.52603 107.231 15.31L159.193 45.31Z" fill="#8BC5E4"/>
<path d="M152.966 31.583C149.245 29.467 144.158 29.773 138.555 33.005L86.5938 3.00495C92.1968 -0.227047 97.2838 -0.533047 101.005 1.58295L152.966 31.583Z" fill="#8BC5E4"/>
<path d="M138.546 35.68C143.546 32.793 148.074 32.512 151.383 34.392L99.4218 4.392C96.1128 2.512 91.5848 2.793 86.585 5.68L138.546 35.68Z" fill="#8BC5E4"/>
<path d="M151.381 34.3911C154.795 36.3291 156.913 40.5661 156.915 46.6161L104.954 16.6161C104.952 10.5661 102.834 6.32911 99.4199 4.39111L151.381 34.3911Z" fill="#8BC5E4"/>
<path d="M156.915 46.625C156.915 58.535 148.705 72.905 138.546 78.77L86.585 48.77C96.7435 42.905 104.953 28.535 104.953 16.625L156.915 46.625Z" fill="#8BC5E4"/>
<path d="M138.547 78.77C133.547 81.657 129.02 81.938 125.71 80.059L73.748 50.059C77.058 51.938 81.585 51.657 86.5852 48.77L138.547 78.77Z" fill="#8BC5E4"/>
<path d="M125.712 80.061C122.298 78.124 120.18 73.888 120.178 67.844L68.2168 37.844C68.2188 43.888 70.3368 48.124 73.7508 50.061L125.712 80.061Z" fill="#8BC5E4"/>
<path d="M120.178 67.8349C120.178 55.9149 128.388 41.5449 138.547 35.6799L86.5852 5.67993C76.4267 11.5449 68.2168 25.9149 68.2168 37.8349L120.178 67.8349Z" fill="#8BC5E4"/>
<path d="M138.503 46.2749C135.307 48.1199 132.666 52.5449 132.666 56.0549L80.7046 26.0549C80.7046 22.5449 83.346 18.1199 86.5416 16.2749L138.503 46.2749Z" fill="#8BC5E4"/>
<path d="M132.666 56.0549C132.666 58.0849 133.506 59.1559 134.587 59.7789L82.6257 29.7789C81.5447 29.1559 80.7047 28.0849 80.7046 26.0549L132.666 56.0549Z" fill="#8BC5E4"/>
<path d="M134.582 59.7749C134.964 59.9959 135.377 60.1609 135.793 60.2919L83.8311 30.2919C83.4151 30.1609 83.0021 29.9959 82.6201 29.7749L134.582 59.7749Z" fill="#8BC5E4"/>
<path d="M135.801 60.2949C131.281 64.4449 128.778 70.1199 128.778 74.7099L76.8164 44.7099C76.8164 40.1199 79.3192 34.4449 83.8399 30.2949L135.801 60.2949Z" fill="#8BC5E4"/>
<path d="M148.133 63.5349C148.133 61.0879 147.444 58.5249 145.533 57.4109L93.5718 27.4109C95.4828 28.5249 96.1718 31.0879 96.1719 33.5349L148.133 63.5349Z" fill="#8BC5E4"/>
<path d="M145.536 57.413C144.528 56.824 143.179 56.639 141.412 57.088L89.4507 27.088C91.2177 26.639 92.5667 26.824 93.5747 27.413L145.536 57.413Z" fill="#8BC5E4"/>
<path d="M141.404 57.0901C142.989 55.0351 144.366 52.2401 144.366 49.6201L92.4047 19.6201C92.4047 22.2401 91.0277 25.0351 89.4429 27.0901L141.404 57.0901Z" fill="#8BC5E4"/>
<path d="M144.366 49.6199C144.366 47.6999 143.746 46.3639 142.693 45.7639L90.7319 15.7639C91.7849 16.3639 92.4049 17.6999 92.4048 19.6199L144.366 49.6199Z" fill="#8BC5E4"/>
<path d="M142.694 45.765C141.659 45.173 140.204 45.294 138.508 46.272L86.5469 16.272C88.2429 15.294 89.6979 15.173 90.7329 15.765L142.694 45.765Z" fill="#8BC5E4"/>
<path d="M189.885 87.9299C186.17 94.4549 183.875 101.81 183.875 108.47L131.913 78.4699C131.913 71.8099 134.208 64.4549 137.923 57.9299L189.885 87.9299Z" fill="#8BC5E4"/>
<path d="M183.875 108.47C183.875 114.658 185.858 119.159 189.118 121.558L137.156 91.558C133.896 89.159 131.913 84.658 131.913 78.47L183.875 108.47Z" fill="#8BC5E4"/>
<path d="M189.123 121.562C189.374 121.746 189.632 121.918 189.897 122.077L137.935 92.077C137.67 91.918 137.412 91.746 137.161 91.562L189.123 121.562Z" fill="#8BC5E4"/>
<path d="M154.43 184.16C153.993 183.797 153.53 183.474 153.044 183.193L101.082 153.193C101.568 153.474 102.031 153.797 102.468 154.16L154.43 184.16Z" fill="#8BC5E4"/>
<path d="M153.044 183.193C149.313 181.035 144.197 181.319 138.551 184.577L86.5898 154.577C92.2358 151.319 97.3518 151.035 101.083 153.193L153.044 183.193Z" fill="#8BC5E4"/>
<path d="M138.547 184.58C132.173 188.26 126.466 194.955 122.672 202.485L70.7109 172.485C74.504 164.955 80.2112 158.26 86.5851 154.58L138.547 184.58Z" fill="#8BC5E4"/>
<path d="M87.148 181.495C90.9152 174.93 93.2535 167.5 93.2535 160.79L41.292 130.79C41.292 137.5 38.9537 144.93 35.1865 151.495L87.148 181.495Z" fill="#8BC5E4"/>
<path d="M93.2535 160.79C93.2534 154.595 91.2664 150.083 87.9864 147.685L36.0249 117.685C39.3049 120.083 41.2919 124.595 41.292 130.79L93.2535 160.79Z" fill="#8BC5E4"/>
<path d="M87.9814 147.68C87.7334 147.499 87.4774 147.33 87.2144 147.173L35.2529 117.173C35.5159 117.33 35.7719 117.499 36.0199 117.68L87.9814 147.68Z" fill="#8BC5E4"/>
<path d="M124.032 82.8201C124.294 82.9731 124.563 83.1141 124.839 83.2421L72.8777 53.2421C72.6017 53.1141 72.3327 52.9731 72.0703 52.8201L124.032 82.8201Z" fill="#8BC5E4"/>
<path d="M124.839 83.2421C128.485 84.9391 133.283 84.4761 138.538 81.4451L86.5769 51.4451C81.3219 54.4761 76.5239 54.9391 72.8779 53.2421L124.839 83.2421Z" fill="#8BC5E4"/>
<path d="M138.546 81.4401C144.202 78.1751 149.328 72.5451 153.061 66.0601L101.1 36.0601C97.367 42.5451 92.2401 48.1751 86.585 51.4401L138.546 81.4401Z" fill="#8BC5E4"/>
<path d="M72.6075 151.16C77.6075 148.273 82.1375 147.993 85.4485 149.873L33.487 119.873C30.176 117.993 25.646 118.273 20.646 121.16L72.6075 151.16Z" fill="#8BC5E4"/>
<path d="M85.4464 149.872C88.8624 151.81 90.9824 156.047 90.9844 162.091L39.0229 132.091C39.0209 126.047 36.9009 121.81 33.4849 119.872L85.4464 149.872Z" fill="#8BC5E4"/>
<path d="M90.9846 162.1C90.9846 174.02 82.766 188.395 72.6075 194.26L20.646 164.26C30.8045 158.395 39.0231 144.02 39.0231 132.1L90.9846 162.1Z" fill="#8BC5E4"/>
<path d="M72.6076 194.26C67.6076 197.147 63.0796 197.428 59.7706 195.548L7.80908 165.548C11.1181 167.428 15.6461 167.147 20.6461 164.26L72.6076 194.26Z" fill="#8BC5E4"/>
<path d="M59.7733 195.549C56.3593 193.611 54.2413 189.374 54.2393 183.324L2.27783 153.324C2.27983 159.374 4.39783 163.611 7.81183 165.549L59.7733 195.549Z" fill="#8BC5E4"/>
<path d="M54.2388 183.315C54.2388 171.405 62.4488 157.025 72.6072 151.16L20.6457 121.16C10.4872 127.025 2.27734 141.405 2.27734 153.315L54.2388 183.315Z" fill="#8BC5E4"/>
<path d="M204.521 74.9999C209.521 72.1129 214.049 71.8339 217.358 73.7159L165.396 43.7159C162.087 41.8339 157.559 42.1129 152.559 44.9999L204.521 74.9999Z" fill="#8BC5E4"/>
<path d="M217.355 73.7141C220.769 75.6541 222.887 79.8921 222.889 85.9361L170.927 55.9361C170.925 49.8921 168.807 45.6541 165.393 43.7141L217.355 73.7141Z" fill="#8BC5E4"/>
<path d="M222.889 85.9451C222.889 97.8651 214.679 112.235 204.521 118.1L152.559 88.1001C162.718 82.2351 170.927 67.8651 170.927 55.9451L222.889 85.9451Z" fill="#8BC5E4"/>
<path d="M204.521 118.1C199.521 120.987 194.993 121.268 191.684 119.388L139.722 89.3881C143.031 91.2681 147.559 90.9871 152.559 88.1001L204.521 118.1Z" fill="#8BC5E4"/>
<path d="M191.686 119.389C188.272 117.451 186.154 113.214 186.152 107.164L134.191 77.1641C134.193 83.2141 136.311 87.4511 139.725 89.3891L191.686 119.389Z" fill="#8BC5E4"/>
<path d="M186.152 107.155C186.152 95.245 194.362 80.865 204.52 75L152.559 45C142.4 50.865 134.19 65.245 134.19 77.155L186.152 107.155Z" fill="#8BC5E4"/>
<path d="M204.659 80.5C200.84 82.705 198.155 87.575 198.155 90.855L146.194 60.855C146.194 57.575 148.879 52.705 152.698 50.5L204.659 80.5Z" fill="#8BC5E4"/>
<path d="M211.172 83.3401C211.172 81.8081 210.482 80.7571 209.476 80.1721L157.514 50.1721C158.52 50.7571 159.21 51.8081 159.21 53.3401L211.172 83.3401Z" fill="#8BC5E4"/>
<path d="M209.481 80.1751C209.377 80.1141 209.27 80.0591 209.16 80.0081L157.199 50.0081C157.309 50.0591 157.416 50.1141 157.52 50.1751L209.481 80.1751Z" fill="#8BC5E4"/>
<path d="M209.154 80.0049C209.071 79.9669 208.985 79.9329 208.898 79.9009L156.936 49.9009C157.023 49.9329 157.109 49.9669 157.192 50.0049L209.154 80.0049Z" fill="#8BC5E4"/>
<path d="M208.898 79.9011C207.746 79.4811 206.265 79.5751 204.665 80.4971L152.703 50.4971C154.303 49.5751 155.784 49.4811 156.936 49.9011L208.898 79.9011Z" fill="#8BC5E4"/>
<path d="M72.5297 158.635C66.0085 162.4 60.6998 171.695 60.6998 179.345L8.73828 149.345C8.73828 141.695 14.047 132.4 20.5682 128.635L72.5297 158.635Z" fill="#8BC5E4"/>
<path d="M60.6998 179.345C60.6996 183.23 62.0686 185.958 64.2706 187.209L12.3091 157.209C10.1071 155.958 8.73808 153.23 8.73828 149.345L60.6998 179.345Z" fill="#8BC5E4"/>
<path d="M64.2686 187.208C66.4016 188.422 69.3156 188.249 72.5246 186.398L20.5631 156.398C17.3541 158.249 14.4401 158.422 12.3071 157.208L64.2686 187.208Z" fill="#8BC5E4"/>
<path d="M72.5294 186.395C79.0592 182.625 84.368 173.33 84.368 165.68L32.4064 135.68C32.4064 143.33 27.0977 152.625 20.5679 156.395L72.5294 186.395Z" fill="#8BC5E4"/>
<path d="M84.3682 165.68C84.3685 161.795 82.9995 159.067 80.7965 157.816L28.835 127.816C31.038 129.067 32.407 131.795 32.4066 135.68L84.3682 165.68Z" fill="#8BC5E4"/>
<path d="M80.7983 157.817C78.6643 156.605 75.7473 156.779 72.5343 158.632L20.5728 128.632C23.7858 126.779 26.7028 126.605 28.8368 127.817L80.7983 157.817Z" fill="#8BC5E4"/>
<path d="M204.659 82.63C205.755 81.998 206.88 81.91 207.749 82.234L155.787 52.234C154.918 51.91 153.793 51.998 152.698 52.63L204.659 82.63Z" fill="#8BC5E4"/>
<path d="M207.743 82.2329C207.809 82.2569 207.873 82.2839 207.936 82.3129L155.975 52.3129C155.912 52.2839 155.848 52.2569 155.782 52.2329L207.743 82.2329Z" fill="#8BC5E4"/>
<path d="M207.941 82.3149C208.025 82.3529 208.106 82.3939 208.184 82.4399L156.223 52.4399C156.145 52.3939 156.064 52.3529 155.979 52.3149L207.941 82.3149Z" fill="#8BC5E4"/>
<path d="M208.184 82.439C208.93 82.879 209.349 83.676 209.353 84.381L157.391 54.381C157.387 53.676 156.968 52.879 156.222 52.439L208.184 82.439Z" fill="#8BC5E4"/>
<path d="M199.983 89.7999C199.983 87.9799 201.758 84.3049 204.659 82.6299L152.698 52.6299C149.796 54.3049 148.021 57.9799 148.021 59.7999L199.983 89.7999Z" fill="#8BC5E4"/>
<path d="M165.844 106.59C162.328 108.62 159.548 111.385 157.495 114.87L105.534 84.8701C107.586 81.3851 110.366 78.6201 113.882 76.5901L165.844 106.59Z" fill="#8BC5E4"/>
<path d="M157.495 114.87C155.443 118.355 154.421 122.065 154.421 126.015L102.459 96.0151C102.459 92.0651 103.481 88.3551 105.534 84.8701L157.495 114.87Z" fill="#8BC5E4"/>
<path d="M154.421 126.015C154.421 129.672 155.297 132.112 157.056 133.346L105.094 103.346C103.335 102.112 102.459 99.6719 102.459 96.0149L154.421 126.015Z" fill="#8BC5E4"/>
<path d="M157.05 133.343C157.191 133.442 157.337 133.533 157.489 133.617L105.528 103.617C105.376 103.533 105.23 103.442 105.089 103.343L157.05 133.343Z" fill="#8BC5E4"/>
<path d="M157.495 133.62C157.651 133.704 157.812 133.779 157.977 133.846L106.016 103.846C105.851 103.779 105.69 103.704 105.534 103.62L157.495 133.62Z" fill="#8BC5E4"/>
<path d="M157.977 133.845C159.975 134.647 162.594 134.126 165.839 132.253L113.877 102.253C110.632 104.126 108.013 104.647 106.015 103.845L157.977 133.845Z" fill="#8BC5E4"/>
<path d="M165.844 132.25C167.022 131.57 168.148 130.76 169.23 129.825L117.269 99.825C116.186 100.76 115.06 101.57 113.882 102.25L165.844 132.25Z" fill="#8BC5E4"/>
<path d="M169.23 129.825C170.313 128.89 171.352 127.83 172.348 126.655L120.386 96.655C119.39 97.83 118.351 98.89 117.269 99.825L169.23 129.825Z" fill="#8BC5E4"/>
<path d="M172.347 121.535C171.343 122.925 170.356 124.085 169.368 125.025L117.407 95.0249C118.394 94.0849 119.381 92.9249 120.386 91.5349L172.347 121.535Z" fill="#8BC5E4"/>
<path d="M169.369 125.025C168.39 125.96 167.36 126.745 166.277 127.37L114.315 97.3699C115.398 96.7449 116.429 95.9599 117.407 95.0249L169.369 125.025Z" fill="#8BC5E4"/>
<path d="M166.277 127.37C164.473 128.411 163.029 128.614 161.944 127.987L109.983 97.9871C111.068 98.6141 112.512 98.4111 114.315 97.3701L166.277 127.37Z" fill="#8BC5E4"/>
<path d="M161.951 127.99C161.869 127.943 161.789 127.892 161.711 127.835L109.749 97.835C109.827 97.892 109.907 97.943 109.989 97.99L161.951 127.99Z" fill="#8BC5E4"/>
<path d="M161.704 127.83C160.595 127.01 160.041 125.33 160.041 122.77L108.08 92.77C108.08 95.33 108.634 97.01 109.742 97.83L161.704 127.83Z" fill="#8BC5E4"/>
<path d="M160.041 122.77C160.041 120.21 160.595 117.88 161.704 115.79L109.742 85.79C108.634 87.88 108.08 90.21 108.08 92.77L160.041 122.77Z" fill="#8BC5E4"/>
<path d="M161.704 115.79C162.813 113.69 164.337 112.08 166.277 110.96L114.315 80.96C112.375 82.08 110.851 83.69 109.743 85.79L161.704 115.79Z" fill="#8BC5E4"/>
<path d="M166.277 110.96C167.36 110.335 168.39 109.93 169.369 109.735L117.407 79.7351C116.429 79.9301 115.398 80.3351 114.315 80.9601L166.277 110.96Z" fill="#8BC5E4"/>
<path d="M169.368 109.735C170.356 109.545 171.343 109.565 172.347 109.795L120.386 79.7949C119.381 79.5649 118.394 79.5449 117.407 79.7349L169.368 109.735Z" fill="#8BC5E4"/>
<path d="M172.348 104.675C171.352 104.64 170.313 104.78 169.23 105.095L117.269 75.0949C118.351 74.7799 119.39 74.6399 120.386 74.6749L172.348 104.675Z" fill="#8BC5E4"/>
<path d="M169.23 105.095C168.148 105.42 167.022 105.91 165.844 106.59L113.882 76.59C115.06 75.91 116.186 75.42 117.269 75.095L169.23 105.095Z" fill="#8BC5E4"/>
<path d="M72.0274 164.225C72.0276 164.452 72.1076 164.611 72.2376 164.682L20.2761 134.682C20.1461 134.611 20.0661 134.452 20.0659 134.225L72.0274 164.225Z" fill="#8BC5E4"/>
<path d="M72.2452 164.687C72.3642 164.748 72.5212 164.737 72.6942 164.64L20.7327 134.64C20.5597 134.737 20.4027 134.748 20.2837 134.687L72.2452 164.687Z" fill="#8BC5E4"/>
<path d="M72.7027 164.635C73.0838 164.415 73.3869 163.88 73.3869 163.44L21.4253 133.44C21.4253 133.88 21.1222 134.415 20.7412 134.635L72.7027 164.635Z" fill="#8BC5E4"/>
<path d="M73.3869 160.32C75.4324 159.344 77.2974 159.18 78.8024 159.732L26.8409 129.732C25.3359 129.18 23.4709 129.344 21.4253 130.32L73.3869 160.32Z" fill="#8BC5E4"/>
<path d="M78.7974 159.731C78.9114 159.772 79.0224 159.818 79.1324 159.868L27.1709 129.868C27.0609 129.818 26.9499 129.772 26.8359 129.731L78.7974 159.731Z" fill="#8BC5E4"/>
<path d="M77.3621 162.985C77.0937 163.45 77.0937 163.96 77.3621 164.115L25.4006 134.115C25.1321 133.96 25.1321 133.45 25.4006 132.985L77.3621 162.985Z" fill="#8BC5E4"/>
<path d="M77.3619 164.115C77.6304 164.27 78.0634 164.02 78.3319 163.555L26.3703 133.555C26.1019 134.02 25.6689 134.27 25.4004 134.115L77.3619 164.115Z" fill="#8BC5E4"/>
<path d="M80.0988 160.455C81.4671 161.505 82.3418 163.34 82.515 165.83L30.5535 135.83C30.3802 133.34 29.5056 131.505 28.1372 130.455L80.0988 160.455Z" fill="#8BC5E4"/>
<path d="M80.2199 167.155C79.8389 167.375 79.5357 167.91 79.5357 168.35L27.5742 138.35C27.5742 137.91 27.8773 137.375 28.2584 137.155L80.2199 167.155Z" fill="#8BC5E4"/>
<path d="M79.5357 168.35C79.5355 168.57 79.6115 168.726 79.7345 168.8L27.773 138.8C27.65 138.726 27.574 138.57 27.5742 138.35L79.5357 168.35Z" fill="#8BC5E4"/>
<path d="M79.7452 168.806C79.8662 168.873 80.0312 168.863 80.2152 168.758L28.2537 138.758C28.0697 138.863 27.9047 138.873 27.7837 138.806L79.7452 168.806Z" fill="#8BC5E4"/>
<path d="M82.5233 167.425C82.2202 173.78 77.8814 181.165 72.5294 184.255L20.5679 154.255C25.9199 151.165 30.2587 143.78 30.5618 137.425L82.5233 167.425Z" fill="#8BC5E4"/>
<path d="M72.5295 184.255C69.7584 185.855 67.2554 185.988 65.4454 184.907L13.4839 154.907C15.2939 155.988 17.7969 155.855 20.568 154.255L72.5295 184.255Z" fill="#8BC5E4"/>
<path d="M65.4382 184.903C63.7632 183.899 62.6842 181.856 62.5362 178.974L10.5747 148.974C10.7227 151.856 11.8017 153.899 13.4767 154.903L65.4382 184.903Z" fill="#8BC5E4"/>
<path d="M65.1945 177.43C65.5755 177.21 65.8786 176.675 65.8786 176.235L13.9171 146.235C13.9171 146.675 13.614 147.21 13.2329 147.43L65.1945 177.43Z" fill="#8BC5E4"/>
<path d="M65.8783 176.235C65.8783 176.015 65.8023 175.859 65.6793 175.785L13.7178 145.785C13.8408 145.859 13.9168 146.015 13.9168 146.235L65.8783 176.235Z" fill="#8BC5E4"/>
<path d="M65.6803 175.786C65.5573 175.712 65.3883 175.719 65.1983 175.827L13.2368 145.827C13.4268 145.719 13.5958 145.712 13.7188 145.786L65.6803 175.786Z" fill="#8BC5E4"/>
<path d="M62.5528 177.355C62.726 174.645 63.618 171.77 64.995 169.125L13.0335 139.125C11.6565 141.77 10.7645 144.645 10.5913 147.355L62.5528 177.355Z" fill="#8BC5E4"/>
<path d="M66.8135 170.205C66.8242 170.211 66.8353 170.217 66.8473 170.222L14.8858 140.222C14.8738 140.217 14.8628 140.211 14.8521 140.205L66.8135 170.205Z" fill="#8BC5E4"/>
<path d="M66.8463 170.222C67.0163 170.296 67.2483 170.228 67.4663 170.04L15.5048 140.04C15.2868 140.228 15.0548 140.296 14.8848 140.222L66.8463 170.222Z" fill="#8BC5E4"/>
<path d="M67.4718 170.035C67.7143 169.815 67.8962 169.5 67.9568 169.185L15.9953 139.185C15.9346 139.5 15.7528 139.815 15.5103 140.035L67.4718 170.035Z" fill="#8BC5E4"/>
<path d="M67.957 169.185C68.0215 168.885 67.9655 168.647 67.8155 168.535L15.854 138.535C16.004 138.647 16.06 138.885 15.9955 139.185L67.957 169.185Z" fill="#8BC5E4"/>
<path d="M67.8216 168.541C67.8126 168.533 67.8016 168.526 67.7916 168.52L15.8301 138.52C15.8401 138.526 15.8511 138.533 15.8601 138.541L67.8216 168.541Z" fill="#8BC5E4"/>
<path d="M65.9649 167.435C67.6017 164.82 69.7062 162.545 72.0271 161.075L20.0656 131.075C17.7446 132.545 15.6402 134.82 14.0034 137.435L65.9649 167.435Z" fill="#8BC5E4"/>
<path d="M134.909 141.04C137.585 139.495 139.646 137.615 141.075 135.4L89.1139 105.4C87.6849 107.615 85.6238 109.495 82.9478 111.04L134.909 141.04Z" fill="#8BC5E4"/>
<path d="M141.075 135.4C142.513 133.17 143.24 130.75 143.24 128.15L91.2789 98.1499C91.2789 100.75 90.5514 103.17 89.1138 105.4L141.075 135.4Z" fill="#8BC5E4"/>
<path d="M143.241 128.15C143.24 125.882 142.678 124.395 141.566 123.688L89.605 93.688C90.717 94.395 91.279 95.882 91.2791 98.15L143.241 128.15Z" fill="#8BC5E4"/>
<path d="M141.572 123.691C141.541 123.671 141.509 123.652 141.477 123.633L89.5151 93.6331C89.5471 93.6521 89.5791 93.6711 89.6101 93.6911L141.572 123.691Z" fill="#8BC5E4"/>
<path d="M141.468 123.628C141.346 123.557 141.218 123.496 141.084 123.443L89.1221 93.4431C89.2561 93.4961 89.3841 93.5571 89.5061 93.6281L141.468 123.628Z" fill="#8BC5E4"/>
<path d="M141.075 123.44C139.646 122.865 137.585 123.355 134.909 124.9L82.9478 94.9001C85.6238 93.3551 87.6849 92.8651 89.1139 93.4401L141.075 123.44Z" fill="#8BC5E4"/>
<path d="M134.329 129.855C135.386 129.245 136.2 129.075 136.771 129.335L84.8098 99.3349C84.2383 99.0749 83.4242 99.2449 82.3677 99.8549L134.329 129.855Z" fill="#8BC5E4"/>
<path d="M136.771 129.335C136.816 129.356 136.858 129.38 136.9 129.406L84.9388 99.406C84.8968 99.38 84.8548 99.356 84.8096 99.335L136.771 129.335Z" fill="#8BC5E4"/>
<path d="M136.899 129.406C137.384 129.713 137.627 130.373 137.628 131.384L85.667 101.384C85.666 100.373 85.423 99.713 84.938 99.406L136.899 129.406Z" fill="#8BC5E4"/>
<path d="M137.628 131.39C137.628 132.5 137.343 133.515 136.771 134.455L84.8096 104.455C85.3812 103.515 85.667 102.5 85.667 101.39L137.628 131.39Z" fill="#8BC5E4"/>
<path d="M136.771 134.455C136.2 135.385 135.386 136.155 134.329 136.765L82.3677 106.765C83.4242 106.155 84.2383 105.385 84.8098 104.455L136.771 134.455Z" fill="#8BC5E4"/>
<path d="M72.6246 176.28C71.568 176.89 70.7193 178.38 70.7193 179.61L18.7578 149.61C18.7578 148.38 19.6065 146.89 20.663 146.28L72.6246 176.28Z" fill="#8BC5E4"/>
<path d="M70.7193 179.61C70.7192 180.24 70.9382 180.681 71.2922 180.883L19.3307 150.883C18.9767 150.681 18.7577 150.24 18.7578 149.61L70.7193 179.61Z" fill="#8BC5E4"/>
<path d="M71.2906 180.882C71.6326 181.079 72.1006 181.051 72.6186 180.754L20.6571 150.754C20.1391 151.051 19.6711 151.079 19.3291 150.882L71.2906 180.882Z" fill="#8BC5E4"/>
<path d="M72.6247 180.75C73.6726 180.145 74.5299 178.65 74.5299 177.41L22.5684 147.41C22.5684 148.65 21.711 150.145 20.6631 150.75L72.6247 180.75Z" fill="#8BC5E4"/>
<path d="M74.5298 177.41C74.5298 177.06 74.4605 176.76 74.3306 176.525L22.3691 146.525C22.499 146.76 22.5683 147.06 22.5683 147.41L74.5298 177.41Z" fill="#8BC5E4"/>
<path d="M70.1481 180.49C69.0829 181.405 68.0091 182.805 67.0391 184.015L15.0776 154.015C16.0475 152.805 17.1214 151.405 18.1866 150.49L70.1481 180.49Z" fill="#8BC5E4"/>
<path d="M67.0391 184.015C68.3381 184.275 69.9576 184.55 72.3998 183.14L20.4383 153.14C17.9961 154.55 16.3766 154.275 15.0776 154.015L67.0391 184.015Z" fill="#8BC5E4"/>
<path d="M72.3995 183.14C74.9889 181.645 76.7643 179.59 78.3231 177.59L26.3616 147.59C24.8027 149.59 23.0274 151.645 20.438 153.14L72.3995 183.14Z" fill="#8BC5E4"/>
<path d="M78.3234 177.59C77.2842 177.56 76.245 177.28 75.0845 177.65L23.123 147.65C24.2834 147.28 25.3227 147.56 26.3619 147.59L78.3234 177.59Z" fill="#8BC5E4"/>
<path d="M75.0845 177.65C74.8853 179.165 73.6382 180.925 72.4518 181.61L20.4902 151.61C21.6767 150.925 22.9238 149.165 23.123 147.65L75.0845 177.65Z" fill="#8BC5E4"/>
<path d="M72.4514 181.61C71.8842 181.937 71.2622 182.001 70.8062 181.747L18.8447 151.747C19.3007 152.001 19.9227 151.937 20.4898 151.61L72.4514 181.61Z" fill="#8BC5E4"/>
<path d="M70.7995 181.743C70.4385 181.539 70.1845 181.133 70.1485 180.498L18.187 150.498C18.223 151.133 18.477 151.539 18.838 151.743L70.7995 181.743Z" fill="#8BC5E4"/>
<path d="M138.546 187.25C143.546 184.363 148.074 184.082 151.383 185.962L99.4218 155.962C96.1128 154.082 91.5848 154.363 86.585 157.25L138.546 187.25Z" fill="#8BC5E4"/>
<path d="M151.381 185.961C154.795 187.899 156.913 192.136 156.915 198.186L104.954 168.186C104.952 162.136 102.834 157.899 99.4199 155.961L151.381 185.961Z" fill="#8BC5E4"/>
<path d="M156.915 198.195C156.915 210.105 148.705 224.475 138.546 230.34L86.585 200.34C96.7435 194.475 104.953 180.105 104.953 168.195L156.915 198.195Z" fill="#8BC5E4"/>
<path d="M138.547 230.34C133.547 233.227 129.017 233.509 125.706 231.632L73.7441 201.632C77.0551 203.509 81.5851 203.227 86.5853 200.34L138.547 230.34Z" fill="#8BC5E4"/>
<path d="M125.708 231.633C122.292 229.697 120.172 225.463 120.17 219.419L68.208 189.419C68.21 195.463 70.33 199.697 73.746 201.633L125.708 231.633Z" fill="#8BC5E4"/>
<path d="M120.17 219.41C120.17 207.49 128.388 193.115 138.547 187.25L86.5851 157.25C76.4266 163.115 68.208 177.49 68.208 189.41L120.17 219.41Z" fill="#8BC5E4"/>
<path d="M136.416 194.84C135.931 195.12 135.481 195.68 135.238 196.32L83.2769 166.32C83.5194 165.68 83.9697 165.12 84.4547 164.84L136.416 194.84Z" fill="#8BC5E4"/>
<path d="M135.238 196.32C134.987 196.955 134.987 197.565 135.238 197.92L83.2768 167.92C83.0256 167.565 83.0256 166.955 83.2768 166.32L135.238 196.32Z" fill="#8BC5E4"/>
<path d="M135.238 197.92C135.299 198.007 135.372 198.076 135.456 198.126L83.4949 168.126C83.4109 168.076 83.3379 168.007 83.2769 167.92L135.238 197.92Z" fill="#8BC5E4"/>
<path d="M135.456 198.125C135.707 198.274 136.049 198.251 136.411 198.043L84.4491 168.043C84.0871 168.251 83.7451 168.274 83.4941 168.125L135.456 198.125Z" fill="#8BC5E4"/>
<path d="M137.023 199.88C131.688 203.82 127.566 211.58 127.566 218.07L75.604 188.07C75.604 181.58 79.7263 173.82 85.061 169.88L137.023 199.88Z" fill="#8BC5E4"/>
<path d="M127.566 218.07C127.566 221.67 128.835 224.201 130.875 225.362L78.913 195.362C76.873 194.201 75.604 191.67 75.604 188.07L127.566 218.07Z" fill="#8BC5E4"/>
<path d="M130.873 225.361C132.85 226.488 135.551 226.329 138.525 224.613L86.5631 194.613C83.5891 196.329 80.8881 196.488 78.9111 195.361L130.873 225.361Z" fill="#8BC5E4"/>
<path d="M138.529 224.61C144.574 221.12 149.493 212.5 149.493 205.41L97.5318 175.41C97.5318 182.5 92.6127 191.12 86.5679 194.61L138.529 224.61Z" fill="#8BC5E4"/>
<path d="M149.493 205.41C149.493 201.865 148.261 199.36 146.274 198.178L94.313 168.178C96.3 169.36 97.532 171.865 97.5318 175.41L149.493 205.41Z" fill="#8BC5E4"/>
<path d="M146.278 198.18C144.567 197.16 142.295 197.122 139.768 198.246L87.8062 168.246C90.3332 167.122 92.6052 167.16 94.3162 168.18L146.278 198.18Z" fill="#8BC5E4"/>
<path d="M140.53 195.665C141.015 195.385 141.465 194.815 141.716 194.18L89.7548 164.18C89.5037 164.815 89.0534 165.385 88.5684 165.665L140.53 195.665Z" fill="#8BC5E4"/>
<path d="M141.716 194.18C141.959 193.54 141.959 192.93 141.716 192.58L89.7549 162.58C89.9974 162.93 89.9974 163.54 89.7549 164.18L141.716 194.18Z" fill="#8BC5E4"/>
<path d="M141.716 192.58C141.653 192.491 141.578 192.422 141.493 192.373L89.5317 162.373C89.6167 162.422 89.6917 162.491 89.7545 162.58L141.716 192.58Z" fill="#8BC5E4"/>
<path d="M141.494 192.373C141.24 192.225 140.897 192.254 140.535 192.462L88.5737 162.462C88.9357 162.254 89.2787 162.225 89.5327 162.373L141.494 192.373Z" fill="#8BC5E4"/>
<path d="M138.529 201.55C140.899 200.182 143.04 200.048 144.604 200.937L92.643 170.937C91.079 170.048 88.938 170.182 86.5679 171.55L138.529 201.55Z" fill="#8BC5E4"/>
<path d="M144.602 200.936C146.215 201.852 147.214 203.856 147.216 206.717L95.2541 176.717C95.2521 173.856 94.2531 171.852 92.6401 170.936L144.602 200.936Z" fill="#8BC5E4"/>
<path d="M147.216 206.725C147.216 212.375 143.344 219.16 138.529 221.94L86.5679 191.94C91.383 189.16 95.2541 182.375 95.2541 176.725L147.216 206.725Z" fill="#8BC5E4"/>
<path d="M138.53 221.94C136.16 223.308 134.019 223.442 132.455 222.552L80.4932 192.552C82.0572 193.442 84.1982 193.308 86.5681 191.94L138.53 221.94Z" fill="#8BC5E4"/>
<path d="M132.456 222.553C130.843 221.636 129.845 219.629 129.843 216.763L77.8818 186.763C77.8838 189.629 78.8818 191.636 80.4948 192.553L132.456 222.553Z" fill="#8BC5E4"/>
<path d="M129.843 216.755C129.843 211.115 133.714 204.33 138.529 201.55L86.5676 171.55C81.7525 174.33 77.8813 181.115 77.8813 186.755L129.843 216.755Z" fill="#8BC5E4"/>
<path d="M138.902 209.895C138.564 210.1 138.243 210.435 138.027 210.75L86.0654 180.75C86.2819 180.435 86.6023 180.1 86.9401 179.895L138.902 209.895Z" fill="#8BC5E4"/>
<path d="M138.027 210.75C137.395 211.695 137.395 212.565 137.906 212.88L85.9444 182.88C85.4335 182.565 85.4335 181.695 86.0657 180.75L138.027 210.75Z" fill="#8BC5E4"/>
<path d="M140.045 209.945C139.986 209.859 139.918 209.795 139.844 209.751L87.8828 179.751C87.9568 179.795 88.0248 179.859 88.0832 179.945L140.045 209.945Z" fill="#8BC5E4"/>
<path d="M139.845 209.752C139.582 209.595 139.236 209.687 138.906 209.892L86.9448 179.892C87.2748 179.687 87.6208 179.595 87.8838 179.752L139.845 209.752Z" fill="#8BC5E4"/>
<path d="M189.885 87.9299C186.17 94.4549 183.875 101.81 183.875 108.47L131.913 78.4699C131.913 71.8099 134.208 64.4549 137.923 57.9299L189.885 87.9299Z" fill="#8BC5E4"/>
<path d="M183.875 108.47C183.875 114.658 185.858 119.159 189.118 121.558L137.156 91.558C133.896 89.159 131.913 84.658 131.913 78.47L183.875 108.47Z" fill="#8BC5E4"/>
<path d="M189.123 121.562C189.374 121.746 189.632 121.918 189.897 122.077L137.935 92.077C137.67 91.918 137.412 91.746 137.161 91.562L189.123 121.562Z" fill="#8BC5E4"/>
<path d="M154.43 184.16C153.993 183.797 153.53 183.474 153.044 183.193L101.082 153.193C101.568 153.474 102.031 153.797 102.468 154.16L154.43 184.16Z" fill="#8BC5E4"/>
<path d="M153.044 183.193C149.313 181.035 144.197 181.319 138.551 184.577L86.5898 154.577C92.2358 151.319 97.3518 151.035 101.083 153.193L153.044 183.193Z" fill="#8BC5E4"/>
<path d="M138.547 184.58C132.173 188.26 126.466 194.955 122.672 202.485L70.7109 172.485C74.504 164.955 80.2112 158.26 86.5851 154.58L138.547 184.58Z" fill="#8BC5E4"/>
<path d="M87.148 181.495C90.9152 174.93 93.2535 167.5 93.2535 160.79L41.292 130.79C41.292 137.5 38.9537 144.93 35.1865 151.495L87.148 181.495Z" fill="#8BC5E4"/>
<path d="M93.2535 160.79C93.2534 154.595 91.2664 150.083 87.9864 147.685L36.0249 117.685C39.3049 120.083 41.2919 124.595 41.292 130.79L93.2535 160.79Z" fill="#8BC5E4"/>
<path d="M87.9814 147.68C87.7334 147.499 87.4774 147.33 87.2144 147.173L35.2529 117.173C35.5159 117.33 35.7719 117.499 36.0199 117.68L87.9814 147.68Z" fill="#8BC5E4"/>
<path d="M124.032 82.8201C124.294 82.9731 124.563 83.1141 124.839 83.2421L72.8777 53.2421C72.6017 53.1141 72.3327 52.9731 72.0703 52.8201L124.032 82.8201Z" fill="#8BC5E4"/>
<path d="M124.839 83.2421C128.485 84.9391 133.283 84.4761 138.538 81.4451L86.5769 51.4451C81.3219 54.4761 76.5239 54.9391 72.8779 53.2421L124.839 83.2421Z" fill="#8BC5E4"/>
<path d="M138.546 81.4401C144.202 78.1751 149.328 72.5451 153.061 66.0601L101.1 36.0601C97.367 42.5451 92.2401 48.1751 86.585 51.4401L138.546 81.4401Z" fill="#8BC5E4"/>
<path d="M157.495 114.87C159.548 111.385 162.328 108.62 165.844 106.59L113.882 76.5901C110.366 78.6201 107.586 81.3851 105.534 84.8701L157.495 114.87Z" fill="#8BC5E4"/>
<path d="M165.844 106.59C167.022 105.91 168.148 105.42 169.23 105.095L117.269 75.095C116.186 75.42 115.06 75.91 113.882 76.59L165.844 106.59Z" fill="#8BC5E4"/>
<path d="M169.23 105.095C170.313 104.78 171.352 104.64 172.348 104.675L120.386 74.6749C119.39 74.6399 118.351 74.7799 117.269 75.0949L169.23 105.095Z" fill="#8BC5E4"/>
<path d="M172.347 109.795C171.343 109.565 170.356 109.545 169.368 109.735L117.407 79.7349C118.394 79.5449 119.381 79.5649 120.386 79.7949L172.347 109.795Z" fill="#8BC5E4"/>
<path d="M169.369 109.735C168.39 109.93 167.36 110.335 166.277 110.96L114.315 80.9601C115.398 80.3351 116.429 79.9301 117.407 79.7351L169.369 109.735Z" fill="#8BC5E4"/>
<path d="M166.277 110.96C164.337 112.08 162.813 113.69 161.704 115.79L109.743 85.79C110.851 83.69 112.375 82.08 114.315 80.96L166.277 110.96Z" fill="#8BC5E4"/>
<path d="M161.704 115.79C160.595 117.88 160.041 120.21 160.041 122.77L108.08 92.77C108.08 90.21 108.634 87.88 109.742 85.79L161.704 115.79Z" fill="#8BC5E4"/>
<path d="M160.041 122.77C160.041 125.33 160.595 127.01 161.704 127.83L109.742 97.83C108.634 97.01 108.08 95.33 108.08 92.77L160.041 122.77Z" fill="#8BC5E4"/>
<path d="M161.704 127.83C161.782 127.887 161.862 127.939 161.944 127.987L109.983 97.9871C109.901 97.9391 109.821 97.8871 109.743 97.8301L161.704 127.83Z" fill="#8BC5E4"/>
<path d="M161.943 127.986C163.027 128.613 164.469 128.411 166.271 127.373L114.31 97.373C112.508 98.411 111.066 98.613 109.982 97.986L161.943 127.986Z" fill="#8BC5E4"/>
<path d="M166.277 127.37C167.36 126.745 168.39 125.96 169.369 125.025L117.407 95.0249C116.429 95.9599 115.398 96.7449 114.315 97.3699L166.277 127.37Z" fill="#8BC5E4"/>
<path d="M169.368 125.025C170.356 124.085 171.343 122.925 172.347 121.535L120.386 91.5349C119.381 92.9249 118.394 94.0849 117.407 95.0249L169.368 125.025Z" fill="#8BC5E4"/>
<path d="M172.348 126.655C171.352 127.83 170.313 128.89 169.23 129.825L117.269 99.825C118.351 98.89 119.39 97.83 120.386 96.655L172.348 126.655Z" fill="#8BC5E4"/>
<path d="M169.23 129.825C168.148 130.76 167.022 131.57 165.844 132.25L113.882 102.25C115.06 101.57 116.186 100.76 117.269 99.825L169.23 129.825Z" fill="#8BC5E4"/>
<path d="M165.844 132.25C162.596 134.125 159.976 134.648 157.978 133.846L106.016 103.846C108.014 104.648 110.634 104.125 113.882 102.25L165.844 132.25Z" fill="#8BC5E4"/>
<path d="M157.971 133.843C157.811 133.778 157.654 133.705 157.502 133.623L105.54 103.623C105.692 103.705 105.849 103.778 106.009 103.843L157.971 133.843Z" fill="#8BC5E4"/>
<path d="M157.495 133.62C157.343 133.537 157.196 133.445 157.055 133.346L105.094 103.346C105.235 103.445 105.382 103.537 105.534 103.62L157.495 133.62Z" fill="#8BC5E4"/>
<path d="M157.055 133.347C155.297 132.113 154.421 129.674 154.42 126.021L102.459 96.021C102.46 99.674 103.336 102.113 105.094 103.347L157.055 133.347Z" fill="#8BC5E4"/>
<path d="M154.421 126.015C154.421 122.065 155.443 118.355 157.495 114.87L105.534 84.8701C103.481 88.3551 102.459 92.0651 102.459 96.0151L154.421 126.015Z" fill="#8BC5E4"/>
<path d="M134.909 124.9C137.585 123.355 139.646 122.865 141.075 123.44L89.1139 93.4401C87.6849 92.8651 85.6238 93.3551 82.9478 94.9001L134.909 124.9Z" fill="#8BC5E4"/>
<path d="M141.075 123.44C141.215 123.495 141.349 123.559 141.476 123.633L89.5148 93.6329C89.3878 93.5589 89.2538 93.4949 89.1138 93.4399L141.075 123.44Z" fill="#8BC5E4"/>
<path d="M141.476 123.633C142.647 124.315 143.24 125.818 143.241 128.142L91.2792 98.1421C91.2782 95.8181 90.6852 94.3151 89.5142 93.6331L141.476 123.633Z" fill="#8BC5E4"/>
<path d="M143.24 128.15C143.24 130.75 142.513 133.17 141.075 135.4L89.1138 105.4C90.5514 103.17 91.2789 100.75 91.2789 98.1499L143.24 128.15Z" fill="#8BC5E4"/>
<path d="M141.075 135.4C139.646 137.615 137.585 139.495 134.909 141.04L82.9478 111.04C85.6238 109.495 87.6849 107.615 89.1139 105.4L141.075 135.4Z" fill="#8BC5E4"/>
<path d="M134.329 129.855C135.386 129.245 136.2 129.075 136.771 129.335L84.8098 99.3349C84.2383 99.0749 83.4242 99.2449 82.3677 99.8549L134.329 129.855Z" fill="#8BC5E4"/>
<path d="M136.771 129.335C136.816 129.356 136.858 129.38 136.9 129.406L84.9388 99.406C84.8968 99.38 84.8548 99.356 84.8096 99.335L136.771 129.335Z" fill="#8BC5E4"/>
<path d="M136.899 129.406C137.384 129.713 137.627 130.373 137.628 131.384L85.667 101.384C85.666 100.373 85.423 99.713 84.938 99.406L136.899 129.406Z" fill="#8BC5E4"/>
<path d="M137.628 131.39C137.628 132.5 137.343 133.515 136.771 134.455L84.8096 104.455C85.3812 103.515 85.667 102.5 85.667 101.39L137.628 131.39Z" fill="#8BC5E4"/>
<path d="M136.771 134.455C136.2 135.385 135.386 136.155 134.329 136.765L82.3677 106.765C83.4242 106.155 84.2383 105.385 84.8098 104.455L136.771 134.455Z" fill="#8BC5E4"/>
<path d="M204.521 74.9999C209.521 72.1129 214.049 71.8339 217.358 73.7159L165.396 43.7159C162.087 41.8339 157.559 42.1129 152.559 44.9999L204.521 74.9999Z" fill="#8BC5E4"/>
<path d="M217.355 73.7141C220.769 75.6541 222.887 79.8921 222.889 85.9361L170.927 55.9361C170.925 49.8921 168.807 45.6541 165.393 43.7141L217.355 73.7141Z" fill="#8BC5E4"/>
<path d="M222.889 85.9451C222.889 97.8651 214.679 112.235 204.521 118.1L152.559 88.1001C162.718 82.2351 170.927 67.8651 170.927 55.9451L222.889 85.9451Z" fill="#8BC5E4"/>
<path d="M204.521 118.1C199.521 120.987 194.993 121.268 191.684 119.388L139.722 89.3881C143.031 91.2681 147.559 90.9871 152.559 88.1001L204.521 118.1Z" fill="#8BC5E4"/>
<path d="M191.686 119.389C188.272 117.451 186.154 113.214 186.152 107.164L134.191 77.1641C134.193 83.2141 136.311 87.4511 139.725 89.3891L191.686 119.389Z" fill="#8BC5E4"/>
<path d="M186.152 107.155C186.152 95.245 194.362 80.865 204.52 75L152.559 45C142.4 50.865 134.19 65.245 134.19 77.155L186.152 107.155Z" fill="#8BC5E4"/>
<path d="M198.155 90.855C198.155 87.575 200.84 82.705 204.659 80.5L152.698 50.5C148.879 52.705 146.194 57.575 146.194 60.855L198.155 90.855Z" fill="#8BC5E4"/>
<path d="M204.659 80.5001C206.262 79.5751 207.744 79.4801 208.898 79.9011L156.936 49.9011C155.782 49.4801 154.3 49.5751 152.698 50.5001L204.659 80.5001Z" fill="#8BC5E4"/>
<path d="M208.89 79.8979C208.977 79.9299 209.063 79.9649 209.146 80.0019L157.185 50.0019C157.102 49.9649 157.016 49.9299 156.929 49.8979L208.89 79.8979Z" fill="#8BC5E4"/>
<path d="M209.153 80.0049C209.264 80.0559 209.371 80.1109 209.475 80.1719L157.514 50.1719C157.41 50.1109 157.303 50.0559 157.192 50.0049L209.153 80.0049Z" fill="#8BC5E4"/>
<path d="M209.488 80.179C210.485 80.765 211.168 81.81 211.171 83.33L159.21 53.33C159.207 51.81 158.524 50.765 157.527 50.179L209.488 80.179Z" fill="#8BC5E4"/>
<path d="M204.659 82.63C205.755 81.998 206.88 81.91 207.749 82.234L155.787 52.234C154.918 51.91 153.793 51.998 152.698 52.63L204.659 82.63Z" fill="#8BC5E4"/>
<path d="M207.743 82.2329C207.809 82.2569 207.873 82.2839 207.936 82.3129L155.975 52.3129C155.912 52.2839 155.848 52.2569 155.782 52.2329L207.743 82.2329Z" fill="#8BC5E4"/>
<path d="M207.941 82.3149C208.025 82.3529 208.106 82.3939 208.184 82.4399L156.223 52.4399C156.145 52.3939 156.064 52.3529 155.979 52.3149L207.941 82.3149Z" fill="#8BC5E4"/>
<path d="M208.184 82.439C208.93 82.879 209.349 83.676 209.353 84.381L157.391 54.381C157.387 53.676 156.968 52.879 156.222 52.439L208.184 82.439Z" fill="#8BC5E4"/>
<path d="M199.983 89.7999C199.983 87.9799 201.758 84.3049 204.659 82.6299L152.698 52.6299C149.796 54.3049 148.021 57.9799 148.021 59.7999L199.983 89.7999Z" fill="#8BC5E4"/>
<path d="M138.546 35.68C143.546 32.793 148.074 32.512 151.383 34.392L99.4218 4.392C96.1128 2.512 91.5848 2.793 86.585 5.68L138.546 35.68Z" fill="#8BC5E4"/>
<path d="M151.381 34.3911C154.795 36.3291 156.913 40.5661 156.915 46.6161L104.954 16.6161C104.952 10.5661 102.834 6.32911 99.4199 4.39111L151.381 34.3911Z" fill="#8BC5E4"/>
<path d="M156.915 46.625C156.915 58.535 148.705 72.905 138.546 78.77L86.585 48.77C96.7435 42.905 104.953 28.535 104.953 16.625L156.915 46.625Z" fill="#8BC5E4"/>
<path d="M138.547 78.77C133.547 81.657 129.02 81.938 125.71 80.059L73.748 50.059C77.058 51.938 81.585 51.657 86.5852 48.77L138.547 78.77Z" fill="#8BC5E4"/>
<path d="M125.712 80.061C122.298 78.124 120.18 73.888 120.178 67.844L68.2168 37.844C68.2188 43.888 70.3368 48.124 73.7508 50.061L125.712 80.061Z" fill="#8BC5E4"/>
<path d="M120.178 67.8349C120.178 55.9149 128.388 41.5449 138.547 35.6799L86.5852 5.67993C76.4267 11.5449 68.2168 25.9149 68.2168 37.8349L120.178 67.8349Z" fill="#8BC5E4"/>
<path d="M132.666 56.0549C132.666 52.5449 135.307 48.1199 138.503 46.2749L86.5416 16.2749C83.346 18.1199 80.7046 22.5449 80.7046 26.0549L132.666 56.0549Z" fill="#8BC5E4"/>
<path d="M138.503 46.2749C140.201 45.2949 141.657 45.1729 142.694 45.7639L90.7321 15.7639C89.6951 15.1729 88.2391 15.2949 86.542 16.2749L138.503 46.2749Z" fill="#8BC5E4"/>
<path d="M142.691 45.7629C143.744 46.3629 144.365 47.6969 144.366 49.6139L92.405 19.6139C92.404 17.6969 91.783 16.3629 90.73 15.7629L142.691 45.7629Z" fill="#8BC5E4"/>
<path d="M144.366 49.6201C144.366 52.2401 142.989 55.0351 141.404 57.0901L89.4429 27.0901C91.0277 25.0351 92.4047 22.2401 92.4047 19.6201L144.366 49.6201Z" fill="#8BC5E4"/>
<path d="M141.404 57.0901C143.173 56.6391 144.524 56.8231 145.533 57.4111L93.5718 27.4111C92.5628 26.8231 91.2118 26.6391 89.4429 27.0901L141.404 57.0901Z" fill="#8BC5E4"/>
<path d="M145.532 57.4109C147.442 58.5229 148.132 61.0839 148.133 63.5299L96.1718 33.5299C96.1708 31.0839 95.4808 28.5229 93.5708 27.4109L145.532 57.4109Z" fill="#8BC5E4"/>
<path d="M128.778 74.7099C128.778 70.1199 131.281 64.4449 135.801 60.2949L83.8399 30.2949C79.3192 34.4449 76.8164 40.1199 76.8164 44.7099L128.778 74.7099Z" fill="#8BC5E4"/>
<path d="M135.801 60.2951C135.384 60.1641 134.97 60.0001 134.587 59.7791L82.626 29.7791C83.009 30.0001 83.423 30.1641 83.8399 30.2951L135.801 60.2951Z" fill="#8BC5E4"/>
<path d="M134.589 59.779C133.509 59.158 132.669 58.089 132.667 56.063L80.7051 26.063C80.7071 28.089 81.5471 29.158 82.6271 29.779L134.589 59.779Z" fill="#8BC5E4"/>
<path d="M72.6075 151.16C77.6075 148.273 82.1375 147.993 85.4485 149.873L33.487 119.873C30.176 117.993 25.646 118.273 20.646 121.16L72.6075 151.16Z" fill="#8BC5E4"/>
<path d="M85.4464 149.872C88.8624 151.81 90.9824 156.047 90.9844 162.091L39.0229 132.091C39.0209 126.047 36.9009 121.81 33.4849 119.872L85.4464 149.872Z" fill="#8BC5E4"/>
<path d="M90.9846 162.1C90.9846 174.02 82.766 188.395 72.6075 194.26L20.646 164.26C30.8045 158.395 39.0231 144.02 39.0231 132.1L90.9846 162.1Z" fill="#8BC5E4"/>
<path d="M72.6076 194.26C67.6076 197.147 63.0796 197.428 59.7706 195.548L7.80908 165.548C11.1181 167.428 15.6461 167.147 20.6461 164.26L72.6076 194.26Z" fill="#8BC5E4"/>
<path d="M59.7733 195.549C56.3593 193.611 54.2413 189.374 54.2393 183.324L2.27783 153.324C2.27983 159.374 4.39783 163.611 7.81183 165.549L59.7733 195.549Z" fill="#8BC5E4"/>
<path d="M54.2388 183.315C54.2388 171.405 62.4488 157.025 72.6072 151.16L20.6457 121.16C10.4872 127.025 2.27734 141.405 2.27734 153.315L54.2388 183.315Z" fill="#8BC5E4"/>
<path d="M60.6998 179.345C60.6998 171.695 66.0085 162.4 72.5297 158.635L20.5682 128.635C14.047 132.4 8.73828 141.695 8.73828 149.345L60.6998 179.345Z" fill="#8BC5E4"/>
<path d="M72.5294 158.635C75.7433 156.779 78.6613 156.604 80.7963 157.816L28.8348 127.816C26.6998 126.604 23.7818 126.779 20.5679 128.635L72.5294 158.635Z" fill="#8BC5E4"/>
<path d="M80.7945 157.815C82.9975 159.065 84.3665 161.791 84.3685 165.674L32.407 135.674C32.405 131.791 31.036 129.065 28.833 127.815L80.7945 157.815Z" fill="#8BC5E4"/>
<path d="M84.368 165.68C84.368 173.33 79.0592 182.625 72.5294 186.395L20.5679 156.395C27.0977 152.625 32.4064 143.33 32.4064 135.68L84.368 165.68Z" fill="#8BC5E4"/>
<path d="M72.5297 186.395C69.3196 188.248 66.4046 188.422 64.2706 187.209L12.3091 157.209C14.4431 158.422 17.3581 158.248 20.5682 156.395L72.5297 186.395Z" fill="#8BC5E4"/>
<path d="M64.2723 187.211C62.0703 185.96 60.7013 183.234 60.6993 179.351L8.73779 149.351C8.73979 153.234 10.1088 155.96 12.3108 157.211L64.2723 187.211Z" fill="#8BC5E4"/>
<path d="M72.0274 164.225C72.0276 164.452 72.1076 164.611 72.2376 164.682L20.2761 134.682C20.1461 134.611 20.0661 134.452 20.0659 134.225L72.0274 164.225Z" fill="#8BC5E4"/>
<path d="M72.2452 164.687C72.3642 164.748 72.5212 164.737 72.6942 164.64L20.7327 134.64C20.5597 134.737 20.4027 134.748 20.2837 134.687L72.2452 164.687Z" fill="#8BC5E4"/>
<path d="M72.7027 164.635C73.0838 164.415 73.3869 163.88 73.3869 163.44L21.4253 133.44C21.4253 133.88 21.1222 134.415 20.7412 134.635L72.7027 164.635Z" fill="#8BC5E4"/>
<path d="M73.3869 160.32C75.4324 159.344 77.2974 159.18 78.8024 159.732L26.8409 129.732C25.3359 129.18 23.4709 129.344 21.4253 130.32L73.3869 160.32Z" fill="#8BC5E4"/>
<path d="M78.7974 159.731C78.9114 159.772 79.0224 159.818 79.1324 159.868L27.1709 129.868C27.0609 129.818 26.9499 129.772 26.8359 129.731L78.7974 159.731Z" fill="#8BC5E4"/>
<path d="M77.3621 162.985C77.0937 163.45 77.0937 163.96 77.3621 164.115L25.4006 134.115C25.1321 133.96 25.1321 133.45 25.4006 132.985L77.3621 162.985Z" fill="#8BC5E4"/>
<path d="M77.3619 164.115C77.6304 164.27 78.0634 164.02 78.3319 163.555L26.3703 133.555C26.1019 134.02 25.6689 134.27 25.4004 134.115L77.3619 164.115Z" fill="#8BC5E4"/>
<path d="M80.0988 160.455C81.4671 161.505 82.3418 163.34 82.515 165.83L30.5535 135.83C30.3802 133.34 29.5056 131.505 28.1372 130.455L80.0988 160.455Z" fill="#8BC5E4"/>
<path d="M80.2199 167.155C79.8389 167.375 79.5357 167.91 79.5357 168.35L27.5742 138.35C27.5742 137.91 27.8773 137.375 28.2584 137.155L80.2199 167.155Z" fill="#8BC5E4"/>
<path d="M79.5357 168.35C79.5355 168.57 79.6115 168.726 79.7345 168.8L27.773 138.8C27.65 138.726 27.574 138.57 27.5742 138.35L79.5357 168.35Z" fill="#8BC5E4"/>
<path d="M79.7452 168.806C79.8662 168.873 80.0312 168.863 80.2152 168.758L28.2537 138.758C28.0697 138.863 27.9047 138.873 27.7837 138.806L79.7452 168.806Z" fill="#8BC5E4"/>
<path d="M82.5233 167.425C82.2202 173.78 77.8814 181.165 72.5294 184.255L20.5679 154.255C25.9199 151.165 30.2587 143.78 30.5618 137.425L82.5233 167.425Z" fill="#8BC5E4"/>
<path d="M72.5295 184.255C69.7584 185.855 67.2554 185.988 65.4454 184.907L13.4839 154.907C15.2939 155.988 17.7969 155.855 20.568 154.255L72.5295 184.255Z" fill="#8BC5E4"/>
<path d="M65.4382 184.903C63.7632 183.899 62.6842 181.856 62.5362 178.974L10.5747 148.974C10.7227 151.856 11.8017 153.899 13.4767 154.903L65.4382 184.903Z" fill="#8BC5E4"/>
<path d="M65.1945 177.43C65.5755 177.21 65.8786 176.675 65.8786 176.235L13.9171 146.235C13.9171 146.675 13.614 147.21 13.2329 147.43L65.1945 177.43Z" fill="#8BC5E4"/>
<path d="M65.8783 176.235C65.8783 176.015 65.8023 175.859 65.6793 175.785L13.7178 145.785C13.8408 145.859 13.9168 146.015 13.9168 146.235L65.8783 176.235Z" fill="#8BC5E4"/>
<path d="M65.6803 175.786C65.5573 175.712 65.3883 175.719 65.1983 175.827L13.2368 145.827C13.4268 145.719 13.5958 145.712 13.7188 145.786L65.6803 175.786Z" fill="#8BC5E4"/>
<path d="M62.5528 177.355C62.726 174.645 63.618 171.77 64.995 169.125L13.0335 139.125C11.6565 141.77 10.7645 144.645 10.5913 147.355L62.5528 177.355Z" fill="#8BC5E4"/>
<path d="M66.8135 170.205C66.8242 170.211 66.8353 170.217 66.8473 170.222L14.8858 140.222C14.8738 140.217 14.8628 140.211 14.8521 140.205L66.8135 170.205Z" fill="#8BC5E4"/>
<path d="M66.8463 170.222C67.0163 170.296 67.2483 170.228 67.4663 170.04L15.5048 140.04C15.2868 140.228 15.0548 140.296 14.8848 140.222L66.8463 170.222Z" fill="#8BC5E4"/>
<path d="M67.4718 170.035C67.7143 169.815 67.8962 169.5 67.9568 169.185L15.9953 139.185C15.9346 139.5 15.7528 139.815 15.5103 140.035L67.4718 170.035Z" fill="#8BC5E4"/>
<path d="M67.957 169.185C68.0215 168.885 67.9655 168.647 67.8155 168.535L15.854 138.535C16.004 138.647 16.06 138.885 15.9955 139.185L67.957 169.185Z" fill="#8BC5E4"/>
<path d="M67.8216 168.541C67.8126 168.533 67.8016 168.526 67.7916 168.52L15.8301 138.52C15.8401 138.526 15.8511 138.533 15.8601 138.541L67.8216 168.541Z" fill="#8BC5E4"/>
<path d="M65.9649 167.435C67.6017 164.82 69.7062 162.545 72.0271 161.075L20.0656 131.075C17.7446 132.545 15.6402 134.82 14.0034 137.435L65.9649 167.435Z" fill="#8BC5E4"/>
<path d="M74.3306 176.525C74.4605 176.76 74.5298 177.06 74.5298 177.41L22.5683 147.41C22.5683 147.06 22.499 146.76 22.3691 146.525L74.3306 176.525Z" fill="#8BC5E4"/>
<path d="M74.5299 177.41C74.5299 178.65 73.6726 180.145 72.6247 180.75L20.6631 150.75C21.711 150.145 22.5684 148.65 22.5684 147.41L74.5299 177.41Z" fill="#8BC5E4"/>
<path d="M72.625 180.75C72.1046 181.05 71.6356 181.079 71.2926 180.883L19.3311 150.883C19.6741 151.079 20.1431 151.05 20.6634 150.75L72.625 180.75Z" fill="#8BC5E4"/>
<path d="M71.2943 180.884C70.9403 180.684 70.7213 180.244 70.7193 179.617L18.7578 149.617C18.7598 150.244 18.9788 150.684 19.3328 150.884L71.2943 180.884Z" fill="#8BC5E4"/>
<path d="M70.7193 179.61C70.7193 178.38 71.568 176.89 72.6246 176.28L20.663 146.28C19.6065 146.89 18.7578 148.38 18.7578 149.61L70.7193 179.61Z" fill="#8BC5E4"/>
<path d="M67.0391 184.015C68.0091 182.805 69.0829 181.405 70.1481 180.49L18.1866 150.49C17.1214 151.405 16.0475 152.805 15.0776 154.015L67.0391 184.015Z" fill="#8BC5E4"/>
<path d="M70.148 180.49C70.1825 181.133 70.4405 181.543 70.8065 181.747L18.845 151.747C18.479 151.543 18.221 151.133 18.1865 150.49L70.148 180.49Z" fill="#8BC5E4"/>
<path d="M70.8043 181.746C71.2583 182.001 71.8793 181.938 72.4453 181.613L20.4838 151.613C19.9178 151.938 19.2968 152.001 18.8428 151.746L70.8043 181.746Z" fill="#8BC5E4"/>
<path d="M72.4518 181.61C73.6382 180.925 74.8853 179.165 75.0845 177.65L23.123 147.65C22.9238 149.165 21.6767 150.925 20.4902 151.61L72.4518 181.61Z" fill="#8BC5E4"/>
<path d="M75.0845 177.65C76.245 177.28 77.2842 177.56 78.3234 177.59L26.3619 147.59C25.3227 147.56 24.2834 147.28 23.123 147.65L75.0845 177.65Z" fill="#8BC5E4"/>
<path d="M78.3231 177.59C76.7643 179.59 74.9889 181.645 72.3995 183.14L20.438 153.14C23.0274 151.645 24.8027 149.59 26.3616 147.59L78.3231 177.59Z" fill="#8BC5E4"/>
<path d="M72.3998 183.14C69.9576 184.55 68.3381 184.275 67.0391 184.015L15.0776 154.015C16.3766 154.275 17.9961 154.55 20.4383 153.14L72.3998 183.14Z" fill="#8BC5E4"/>
<path d="M138.546 187.25C143.546 184.363 148.074 184.082 151.383 185.962L99.4218 155.962C96.1128 154.082 91.5848 154.363 86.585 157.25L138.546 187.25Z" fill="#8BC5E4"/>
<path d="M151.381 185.961C154.795 187.899 156.913 192.136 156.915 198.186L104.954 168.186C104.952 162.136 102.834 157.899 99.4199 155.961L151.381 185.961Z" fill="#8BC5E4"/>
<path d="M156.915 198.195C156.915 210.105 148.705 224.475 138.546 230.34L86.585 200.34C96.7435 194.475 104.953 180.105 104.953 168.195L156.915 198.195Z" fill="#8BC5E4"/>
<path d="M138.547 230.34C133.547 233.227 129.017 233.509 125.706 231.632L73.7441 201.632C77.0551 203.509 81.5851 203.227 86.5853 200.34L138.547 230.34Z" fill="#8BC5E4"/>
<path d="M125.708 231.633C122.292 229.697 120.172 225.463 120.17 219.419L68.208 189.419C68.21 195.463 70.33 199.697 73.746 201.633L125.708 231.633Z" fill="#8BC5E4"/>
<path d="M120.17 219.41C120.17 207.49 128.388 193.115 138.547 187.25L86.5851 157.25C76.4266 163.115 68.208 177.49 68.208 189.41L120.17 219.41Z" fill="#8BC5E4"/>
<path d="M135.238 196.32C135.481 195.68 135.931 195.12 136.416 194.84L84.4547 164.84C83.9697 165.12 83.5194 165.68 83.2769 166.32L135.238 196.32Z" fill="#8BC5E4"/>
<path d="M140.53 192.465C140.893 192.255 141.237 192.225 141.493 192.373L89.532 162.373C89.276 162.225 88.932 162.255 88.5684 162.465L140.53 192.465Z" fill="#8BC5E4"/>
<path d="M141.49 192.371C141.575 192.42 141.65 192.488 141.713 192.576L89.7518 162.576C89.6888 162.488 89.6138 162.42 89.5288 162.371L141.49 192.371Z" fill="#8BC5E4"/>
<path d="M141.716 192.58C141.959 192.93 141.959 193.54 141.716 194.18L89.7549 164.18C89.9974 163.54 89.9974 162.93 89.7549 162.58L141.716 192.58Z" fill="#8BC5E4"/>
<path d="M141.716 194.18C141.465 194.815 141.015 195.385 140.53 195.665L88.5684 165.665C89.0534 165.385 89.5037 164.815 89.7548 164.18L141.716 194.18Z" fill="#8BC5E4"/>
<path d="M139.759 198.25C142.288 197.123 144.562 197.159 146.274 198.178L94.3128 168.178C92.6008 167.159 90.3268 167.123 87.7974 168.25L139.759 198.25Z" fill="#8BC5E4"/>
<path d="M146.273 198.176C148.26 199.357 149.492 201.859 149.494 205.4L97.532 175.4C97.53 171.859 96.298 169.357 94.311 168.176L146.273 198.176Z" fill="#8BC5E4"/>
<path d="M149.493 205.41C149.493 212.5 144.574 221.12 138.529 224.61L86.5679 194.61C92.6127 191.12 97.5318 182.5 97.5318 175.41L149.493 205.41Z" fill="#8BC5E4"/>
<path d="M138.529 224.61C135.555 226.328 132.852 226.488 130.875 225.362L78.9131 195.362C80.8901 196.488 83.5931 196.328 86.568 194.61L138.529 224.61Z" fill="#8BC5E4"/>
<path d="M130.876 225.363C128.836 224.202 127.567 221.673 127.566 218.075L75.604 188.075C75.605 191.673 76.874 194.202 78.914 195.363L130.876 225.363Z" fill="#8BC5E4"/>
<path d="M127.566 218.07C127.566 211.58 131.688 203.82 137.023 199.88L85.061 169.88C79.7263 173.82 75.604 181.58 75.604 188.07L127.566 218.07Z" fill="#8BC5E4"/>
<path d="M136.416 198.04C136.053 198.25 135.709 198.274 135.457 198.126L83.4951 168.126C83.7471 168.274 84.0911 168.25 84.4549 168.04L136.416 198.04Z" fill="#8BC5E4"/>
<path d="M135.462 198.129C135.379 198.081 135.305 198.014 135.244 197.928L83.2827 167.928C83.3437 168.014 83.4177 168.081 83.5007 168.129L135.462 198.129Z" fill="#8BC5E4"/>
<path d="M135.238 197.92C134.987 197.565 134.987 196.955 135.238 196.32L83.2768 166.32C83.0256 166.955 83.0256 167.565 83.2768 167.92L135.238 197.92Z" fill="#8BC5E4"/>
<path d="M138.529 201.55C140.899 200.182 143.04 200.048 144.604 200.937L92.643 170.937C91.079 170.048 88.938 170.182 86.5679 171.55L138.529 201.55Z" fill="#8BC5E4"/>
<path d="M144.602 200.936C146.215 201.852 147.214 203.856 147.216 206.717L95.2541 176.717C95.2521 173.856 94.2531 171.852 92.6401 170.936L144.602 200.936Z" fill="#8BC5E4"/>
<path d="M147.216 206.725C147.216 212.375 143.344 219.16 138.529 221.94L86.5679 191.94C91.383 189.16 95.2541 182.375 95.2541 176.725L147.216 206.725Z" fill="#8BC5E4"/>
<path d="M138.53 221.94C136.16 223.308 134.019 223.442 132.455 222.552L80.4932 192.552C82.0572 193.442 84.1982 193.308 86.5681 191.94L138.53 221.94Z" fill="#8BC5E4"/>
<path d="M132.456 222.553C130.843 221.636 129.845 219.629 129.843 216.763L77.8818 186.763C77.8838 189.629 78.8818 191.636 80.4948 192.553L132.456 222.553Z" fill="#8BC5E4"/>
<path d="M129.843 216.755C129.843 211.115 133.714 204.33 138.529 201.55L86.5676 171.55C81.7525 174.33 77.8813 181.115 77.8813 186.755L129.843 216.755Z" fill="#8BC5E4"/>
<path d="M138.027 210.75C138.243 210.435 138.564 210.1 138.902 209.895L86.9401 179.895C86.6023 180.1 86.2819 180.435 86.0654 180.75L138.027 210.75Z" fill="#8BC5E4"/>
<path d="M138.902 209.895C139.234 209.688 139.581 209.594 139.845 209.751L87.8831 179.751C87.6191 179.594 87.2721 179.688 86.9404 179.895L138.902 209.895Z" fill="#8BC5E4"/>
<path d="M139.841 209.749C139.915 209.792 139.982 209.855 140.041 209.94L88.0799 179.94C88.0209 179.855 87.9539 179.792 87.8799 179.749L139.841 209.749Z" fill="#8BC5E4"/>
<path d="M137.906 212.88C137.395 212.565 137.395 211.695 138.027 210.75L86.0657 180.75C85.4335 181.695 85.4335 182.565 85.9444 182.88L137.906 212.88Z" fill="#8BC5E4"/>
<path d="M138.547 33.01C127.158 39.585 117.901 55.79 117.901 69.15C117.901 75.11 119.745 79.495 122.794 81.965L85.8663 146.505C82.281 145.045 77.6564 145.575 72.6075 148.49C61.2192 155.065 51.9614 171.27 51.9614 184.63C51.9614 197.99 61.2192 203.505 72.6075 196.93C77.6218 194.035 82.2204 189.27 85.797 183.715L121.564 204.845C119.252 210.09 117.901 215.61 117.901 220.72C117.901 234.07 127.158 239.585 138.547 233.01C149.935 226.435 159.193 210.23 159.193 196.88C159.193 191.78 157.842 187.82 155.538 185.25L191.244 122.755C194.838 124.22 199.472 123.685 204.52 120.77C215.909 114.195 225.167 97.99 225.167 84.63C225.167 71.27 215.909 65.755 204.52 72.33C199.454 75.255 194.821 80.08 191.227 85.705L154.291 63.77C157.348 57.785 159.193 51.27 159.193 45.31C159.193 31.95 149.935 26.435 138.547 33.01ZM138.547 35.68C148.705 29.815 156.915 34.705 156.915 46.625C156.915 58.535 148.705 72.905 138.547 78.77C128.388 84.635 120.178 79.745 120.178 67.835C120.178 55.915 128.388 41.545 138.547 35.68ZM138.503 46.275C135.308 48.12 132.666 52.545 132.666 56.055C132.666 58.805 134.208 59.795 135.801 60.295C131.281 64.445 128.778 70.12 128.778 74.71L148.134 63.535C148.134 59.795 146.523 55.785 141.405 57.09C142.989 55.035 144.366 52.24 144.366 49.62C144.366 45.81 141.924 44.3 138.503 46.275ZM153.061 66.06L189.885 87.93C186.169 94.455 183.874 101.81 183.874 108.47C183.874 115.14 186.178 119.85 189.902 122.08L154.43 184.16C150.636 181.01 144.929 180.895 138.547 184.58C132.173 188.26 126.466 194.955 122.672 202.485L87.148 181.495C90.9152 174.93 93.2535 167.5 93.2535 160.79C93.2535 154.12 90.9499 149.4 87.2087 147.17L124.032 82.82C127.765 84.995 132.892 84.705 138.547 81.44C144.202 78.175 149.329 72.545 153.061 66.06ZM72.6075 151.16C82.7659 145.295 90.9845 150.19 90.9845 162.1C90.9845 174.02 82.7659 188.395 72.6075 194.26C62.449 200.125 54.2391 195.235 54.2391 183.315C54.2391 171.405 62.449 157.025 72.6075 151.16ZM204.52 75C214.679 69.135 222.889 74.035 222.889 85.945C222.889 97.865 214.679 112.235 204.52 118.1C194.362 123.965 186.152 119.075 186.152 107.155C186.152 95.245 194.362 80.865 204.52 75ZM204.659 80.5C200.84 82.705 198.155 87.575 198.155 90.855V97.285L194.31 99.505V115.065L214.869 103.195V87.635L211.172 89.77V83.34C211.172 81.65 210.331 80.545 209.154 80.005C207.967 79.47 206.382 79.505 204.659 80.5ZM72.5295 158.635C66.0084 162.4 60.6996 171.695 60.6996 179.345C60.6996 186.995 66.0084 190.16 72.5295 186.395C79.0594 182.625 84.3681 173.33 84.3681 165.68C84.3681 158.03 79.0594 154.865 72.5295 158.635ZM204.659 82.63C205.837 81.95 207.049 81.9 207.941 82.315C208.842 82.715 209.353 83.61 209.353 84.39V90.82L199.982 96.23V89.8C199.982 87.98 201.758 84.305 204.659 82.63ZM165.844 106.59C162.328 108.62 159.548 111.385 157.495 114.87C155.443 118.355 154.421 122.065 154.421 126.015C154.421 129.965 155.443 132.495 157.495 133.62C159.548 134.725 162.328 134.28 165.844 132.25C167.022 131.57 168.147 130.76 169.23 129.825C170.312 128.89 171.352 127.83 172.348 126.655V121.535C171.343 122.925 170.356 124.085 169.368 125.025C168.39 125.96 167.359 126.745 166.277 127.37C164.337 128.49 162.813 128.64 161.704 127.83C160.596 127.01 160.041 125.33 160.041 122.77C160.041 120.21 160.596 117.88 161.704 115.79C162.813 113.69 164.337 112.08 166.277 110.96C167.359 110.335 168.39 109.93 169.368 109.735C170.356 109.545 171.343 109.565 172.348 109.795V104.675C171.352 104.64 170.312 104.78 169.23 105.095C168.147 105.42 167.022 105.91 165.844 106.59ZM72.0272 161.075V164.225C72.0272 164.665 72.3303 164.85 72.7027 164.635C73.0838 164.415 73.3869 163.88 73.3869 163.44V160.32C75.5866 159.27 77.5785 159.16 79.1373 159.87L77.3619 162.985C77.0935 163.45 77.0935 163.96 77.3619 164.115C77.6304 164.27 78.0634 164.02 78.3319 163.555L80.0986 160.455C81.4669 161.505 82.3416 163.34 82.5148 165.83L80.2198 167.155C79.8388 167.375 79.5357 167.91 79.5357 168.35C79.5357 168.79 79.8388 168.975 80.2198 168.755L82.5235 167.425C82.2204 173.78 77.8816 181.165 72.5295 184.255C67.1862 187.34 62.8387 184.97 62.5356 178.965L65.1943 177.43C65.5753 177.21 65.8785 176.675 65.8785 176.235C65.8785 175.795 65.5753 175.61 65.1943 175.83L62.5529 177.355C62.7261 174.645 63.6181 171.77 64.9951 169.125L66.8138 170.205C66.987 170.305 67.2381 170.24 67.4719 170.035C67.7144 169.815 67.8963 169.5 67.9569 169.185C68.0262 168.865 67.9569 168.615 67.7837 168.515L65.9651 167.435C67.6018 164.82 69.7063 162.545 72.0272 161.075ZM109.656 139.48L101.844 168.71L107.318 165.55L108.66 160.275L117.156 155.37L118.481 159.105L123.945 155.95L116.143 135.735L109.656 139.48ZM125.885 130.11V154.83L131.315 151.695V143.115L134.909 141.04C137.585 139.495 139.646 137.615 141.075 135.4C142.513 133.17 143.241 130.75 143.241 128.15C143.241 125.57 142.513 124 141.075 123.44C139.646 122.865 137.585 123.355 134.909 124.9L125.885 130.11ZM146.479 118.22V142.94L151.918 139.8V115.08L146.479 118.22ZM131.315 131.595L134.329 129.855C135.386 129.245 136.2 129.075 136.771 129.335C137.343 129.605 137.629 130.29 137.629 131.39C137.629 132.5 137.343 133.515 136.771 134.455C136.2 135.385 135.386 136.155 134.329 136.765L131.315 138.505V131.595ZM112.904 143.395L115.787 151.57L110.011 154.905L112.904 143.395ZM76.9549 165.59L75.7165 166.805L72.6248 176.28C71.5682 176.89 70.7195 178.38 70.7195 179.61C70.7195 180.85 71.5682 181.36 72.6248 180.75C73.6727 180.145 74.53 178.65 74.53 177.41C74.53 177.06 74.4608 176.76 74.3309 176.525L77.4486 166.655L76.9549 165.59ZM70.148 180.49C69.0827 181.405 68.0089 182.805 67.0389 184.015C68.338 184.275 69.9574 184.55 72.3996 183.14C74.989 181.645 76.7644 179.59 78.3232 177.59C77.284 177.56 76.2448 177.28 75.0843 177.65C74.8851 179.165 73.638 180.925 72.4516 181.61C71.4297 182.2 70.2259 181.935 70.148 180.49ZM138.547 187.25C148.705 181.385 156.915 186.275 156.915 198.195C156.915 210.105 148.705 224.475 138.547 230.34C128.388 236.205 120.17 231.32 120.17 219.41C120.17 207.49 128.388 193.115 138.547 187.25ZM136.416 194.84C135.931 195.12 135.481 195.68 135.238 196.32C134.987 196.955 134.987 197.565 135.238 197.92C135.481 198.27 135.931 198.32 136.416 198.04L137.022 197.69V199.88C131.688 203.82 127.565 211.58 127.565 218.07C127.565 225.16 132.484 228.1 138.529 224.61C144.574 221.12 149.493 212.5 149.493 205.41C149.493 198.81 145.224 195.815 139.759 198.25V196.11L140.53 195.665C141.015 195.385 141.465 194.815 141.716 194.18C141.959 193.54 141.959 192.93 141.716 192.58C141.465 192.225 141.015 192.185 140.53 192.465L136.416 194.84ZM138.529 201.55C143.344 198.77 147.216 201.085 147.216 206.725C147.216 212.375 143.344 219.16 138.529 221.94C133.714 224.72 129.843 222.405 129.843 216.755C129.843 211.115 133.714 204.33 138.529 201.55ZM138.902 209.895C138.564 210.1 138.244 210.435 138.027 210.75C137.395 211.695 137.395 212.565 137.906 212.88L143.128 215.875L143.648 214.985L140.045 209.945C139.776 209.55 139.326 209.63 138.902 209.895Z" fill="#8BC5E4"/>
<path fill-rule="evenodd" clip-rule="evenodd" d="M153.061 66.06L189.885 87.93C186.169 94.455 183.874 101.81 183.874 108.47C183.874 115.14 186.178 119.85 189.902 122.08L154.43 184.16C150.636 181.01 144.929 180.895 138.547 184.58C132.173 188.26 126.466 194.955 122.672 202.485L87.148 181.495C90.9152 174.93 93.2535 167.5 93.2535 160.79C93.2535 154.12 90.9499 149.4 87.2087 147.17L124.032 82.82C127.765 84.995 132.892 84.705 138.547 81.44C144.202 78.175 149.329 72.545 153.061 66.06ZM157.495 114.87C159.548 111.385 162.328 108.62 165.844 106.59C167.022 105.91 168.147 105.42 169.23 105.095C170.312 104.78 171.352 104.64 172.348 104.675V109.795C171.343 109.565 170.356 109.545 169.368 109.735C168.39 109.93 167.359 110.335 166.277 110.96C164.337 112.08 162.813 113.69 161.704 115.79C160.596 117.88 160.041 120.21 160.041 122.77C160.041 125.33 160.596 127.01 161.704 127.83C162.813 128.64 164.337 128.49 166.277 127.37C167.359 126.745 168.39 125.96 169.368 125.025C170.356 124.085 171.343 122.925 172.348 121.535V126.655C171.352 127.83 170.312 128.89 169.23 129.825C168.147 130.76 167.022 131.57 165.844 132.25C162.328 134.28 159.548 134.725 157.495 133.62C155.443 132.495 154.421 129.965 154.421 126.015C154.421 122.065 155.443 118.355 157.495 114.87ZM101.844 168.71L109.656 139.48L116.143 135.735L123.945 155.95L118.481 159.105L117.156 155.37L108.66 160.275L107.318 165.55L101.844 168.71ZM125.885 154.83V130.11L134.909 124.9C137.585 123.355 139.646 122.865 141.075 123.44C142.513 124 143.241 125.57 143.241 128.15C143.241 130.75 142.513 133.17 141.075 135.4C139.646 137.615 137.585 139.495 134.909 141.04L131.315 143.115V151.695L125.885 154.83ZM146.479 142.94V118.22L151.918 115.08V139.8L146.479 142.94Z" fill="white"/>
<path d="M131.315 131.595L134.329 129.855C135.386 129.245 136.2 129.075 136.771 129.335C137.343 129.605 137.629 130.29 137.629 131.39C137.629 132.5 137.343 133.515 136.771 134.455C136.2 135.385 135.386 136.155 134.329 136.765L131.315 138.505V131.595Z" fill="white"/>
<path d="M112.904 143.395L115.787 151.57L110.011 154.905L112.904 143.395Z" fill="white"/>
<path fill-rule="evenodd" clip-rule="evenodd" d="M204.52 75C214.679 69.135 222.889 74.035 222.889 85.945C222.889 97.865 214.679 112.235 204.52 118.1C194.362 123.965 186.152 119.075 186.152 107.155C186.152 95.245 194.362 80.865 204.52 75ZM198.155 90.855C198.155 87.575 200.84 82.705 204.659 80.5C206.382 79.505 207.967 79.47 209.154 80.005C210.331 80.545 211.172 81.65 211.172 83.34V89.77L214.869 87.635V103.195L194.31 115.065V99.505L198.155 97.285V90.855Z" fill="white"/>
<path d="M204.659 82.63C205.837 81.95 207.049 81.9 207.941 82.315C208.842 82.715 209.353 83.61 209.353 84.39V90.82L199.982 96.23V89.8C199.982 87.98 201.758 84.305 204.659 82.63Z" fill="white"/>
<path fill-rule="evenodd" clip-rule="evenodd" d="M138.547 35.68C148.705 29.815 156.915 34.705 156.915 46.625C156.915 58.535 148.705 72.905 138.547 78.77C128.388 84.635 120.178 79.745 120.178 67.835C120.178 55.915 128.388 41.545 138.547 35.68ZM132.666 56.055C132.666 52.545 135.308 48.12 138.503 46.275C141.924 44.3 144.366 45.81 144.366 49.62C144.366 52.24 142.989 55.035 141.405 57.09C146.523 55.785 148.134 59.795 148.134 63.535L128.778 74.71C128.778 70.12 131.281 64.445 135.801 60.295C134.208 59.795 132.666 58.805 132.666 56.055Z" fill="white"/>
<path fill-rule="evenodd" clip-rule="evenodd" d="M72.6075 151.16C82.7659 145.295 90.9845 150.19 90.9845 162.1C90.9845 174.02 82.7659 188.395 72.6075 194.26C62.449 200.125 54.2391 195.235 54.2391 183.315C54.2391 171.405 62.449 157.025 72.6075 151.16ZM60.6996 179.345C60.6996 171.695 66.0084 162.4 72.5295 158.635C79.0594 154.865 84.3681 158.03 84.3681 165.68C84.3681 173.33 79.0594 182.625 72.5295 186.395C66.0084 190.16 60.6996 186.995 60.6996 179.345Z" fill="white"/>
<path fill-rule="evenodd" clip-rule="evenodd" d="M72.0272 161.075V164.225C72.0272 164.665 72.3303 164.85 72.7027 164.635C73.0838 164.415 73.3869 163.88 73.3869 163.44V160.32C75.5866 159.27 77.5785 159.16 79.1373 159.87L77.3619 162.985C77.0935 163.45 77.0935 163.96 77.3619 164.115C77.6304 164.27 78.0634 164.02 78.3319 163.555L80.0986 160.455C81.4669 161.505 82.3416 163.34 82.5148 165.83L80.2198 167.155C79.8388 167.375 79.5357 167.91 79.5357 168.35C79.5357 168.79 79.8388 168.975 80.2198 168.755L82.5235 167.425C82.2204 173.78 77.8816 181.165 72.5295 184.255C67.1862 187.34 62.8387 184.97 62.5356 178.965L65.1943 177.43C65.5753 177.21 65.8785 176.675 65.8785 176.235C65.8785 175.795 65.5753 175.61 65.1943 175.83L62.5529 177.355C62.7261 174.645 63.6181 171.77 64.9951 169.125L66.8138 170.205C66.987 170.305 67.2381 170.24 67.4719 170.035C67.7144 169.815 67.8963 169.5 67.9569 169.185C68.0262 168.865 67.9569 168.615 67.7837 168.515L65.9651 167.435C67.6018 164.82 69.7063 162.545 72.0272 161.075ZM75.7165 166.805L76.9549 165.59L77.4486 166.655L74.3309 176.525C74.4608 176.76 74.53 177.06 74.53 177.41C74.53 178.65 73.6727 180.145 72.6248 180.75C71.5682 181.36 70.7195 180.85 70.7195 179.61C70.7195 178.38 71.5682 176.89 72.6248 176.28L75.7165 166.805ZM67.0389 184.015C68.0089 182.805 69.0827 181.405 70.148 180.49C70.2259 181.935 71.4297 182.2 72.4516 181.61C73.638 180.925 74.8851 179.165 75.0843 177.65C76.2448 177.28 77.284 177.56 78.3232 177.59C76.7644 179.59 74.989 181.645 72.3996 183.14C69.9574 184.55 68.338 184.275 67.0389 184.015Z" fill="white"/>
<path fill-rule="evenodd" clip-rule="evenodd" d="M138.547 187.25C148.705 181.385 156.915 186.275 156.915 198.195C156.915 210.105 148.705 224.475 138.547 230.34C128.388 236.205 120.17 231.32 120.17 219.41C120.17 207.49 128.388 193.115 138.547 187.25ZM135.238 196.32C135.481 195.68 135.931 195.12 136.416 194.84L140.53 192.465C141.015 192.185 141.465 192.225 141.716 192.58C141.959 192.93 141.959 193.54 141.716 194.18C141.465 194.815 141.015 195.385 140.53 195.665L139.759 196.11V198.25C145.224 195.815 149.493 198.81 149.493 205.41C149.493 212.5 144.574 221.12 138.529 224.61C132.484 228.1 127.565 225.16 127.565 218.07C127.565 211.58 131.688 203.82 137.022 199.88V197.69L136.416 198.04C135.931 198.32 135.481 198.27 135.238 197.92C134.987 197.565 134.987 196.955 135.238 196.32Z" fill="white"/>
<path fill-rule="evenodd" clip-rule="evenodd" d="M138.529 201.55C143.344 198.77 147.216 201.085 147.216 206.725C147.216 212.375 143.344 219.16 138.529 221.94C133.714 224.72 129.843 222.405 129.843 216.755C129.843 211.115 133.714 204.33 138.529 201.55ZM138.027 210.75C138.244 210.435 138.564 210.1 138.902 209.895C139.326 209.63 139.776 209.55 140.045 209.945L143.648 214.985L143.128 215.875L137.906 212.88C137.395 212.565 137.395 211.695 138.027 210.75Z" fill="white"/>
</svg>
