<svg width="226" height="236" viewBox="0 0 226 236" fill="none" xmlns="http://www.w3.org/2000/svg">
<path d="M70.8321 63.7549L33.9048 85.6549L85.8663 55.6549L122.794 33.7549L70.8321 63.7549Z" fill="#8BC5E4"/>
<path d="M33.8354 122.785L69.6023 185.215L121.564 155.215L85.7969 92.7849L33.8354 122.785Z" fill="#8BC5E4"/>
<path d="M103.577 204.85L139.283 183.585L191.244 153.585L155.538 174.85L103.577 204.85Z" fill="#8BC5E4"/>
<path d="M139.265 146.515L102.33 81.9299L154.291 51.9299L191.227 116.515L139.265 146.515Z" fill="#8BC5E4"/>
<path d="M86.585 32.99L138.546 2.98999L86.585 32.99Z" fill="#8BC5E4"/>
<path d="M86.585 35.6599L138.546 5.65991L86.585 35.6599Z" fill="#8BC5E4"/>
<path d="M76.8164 63.4099L96.172 74.5849L148.134 44.5849L128.778 33.4099L76.8164 63.4099Z" fill="#8BC5E4"/>
<path d="M86.542 46.2051L138.503 16.2051L86.542 46.2051Z" fill="#8BC5E4"/>
<path d="M101.1 82.8L137.923 147.19L189.885 117.19L153.061 52.8L101.1 82.8Z" fill="#8BC5E4"/>
<path d="M137.941 181.36L102.468 202.48L154.43 172.48L189.902 151.36L137.941 181.36Z" fill="#8BC5E4"/>
<path d="M70.7109 184.135L35.1865 122.125L87.148 92.125L122.672 154.135L70.7109 184.135Z" fill="#8BC5E4"/>
<path d="M35.2471 87.87L72.0705 66.04L124.032 36.04L87.2087 57.87L35.2471 87.87Z" fill="#8BC5E4"/>
<path d="M101.1 82.8L153.061 52.8L101.1 82.8Z" fill="#8BC5E4"/>
<path d="M20.646 75L72.6076 45L20.646 75Z" fill="#8BC5E4"/>
<path d="M152.559 151.16L204.521 121.16L152.559 151.16Z" fill="#8BC5E4"/>
<path d="M146.194 159.665V166.095L198.155 136.095V129.665L146.194 159.665Z" fill="#8BC5E4"/>
<path d="M146.194 166.095L142.349 163.875L194.31 133.875L198.155 136.095L146.194 166.095Z" fill="#8BC5E4"/>
<path d="M142.349 163.875V179.435L194.31 149.435V133.875L142.349 163.875Z" fill="#8BC5E4"/>
<path d="M142.349 179.435L162.908 191.305L214.87 161.305L194.31 149.435L142.349 179.435Z" fill="#8BC5E4"/>
<path d="M162.908 191.305V175.745L214.87 145.745V161.305L162.908 191.305Z" fill="#8BC5E4"/>
<path d="M162.908 175.745L159.21 173.61L211.171 143.61L214.869 145.745L162.908 175.745Z" fill="#8BC5E4"/>
<path d="M159.21 173.61V167.18L211.171 137.18V143.61L159.21 173.61Z" fill="#8BC5E4"/>
<path d="M152.698 156.82L204.659 126.82L152.698 156.82Z" fill="#8BC5E4"/>
<path d="M20.5679 82.385L72.5294 52.385L20.5679 82.385Z" fill="#8BC5E4"/>
<path d="M157.392 166.13V172.56L209.353 142.56V136.13L157.392 166.13Z" fill="#8BC5E4"/>
<path d="M157.391 172.56L148.021 167.15L199.982 137.15L209.353 142.56L157.391 172.56Z" fill="#8BC5E4"/>
<path d="M148.021 167.15V160.72L199.982 130.72V137.15L148.021 167.15Z" fill="#8BC5E4"/>
<path d="M152.698 158.95L204.659 128.95L152.698 158.95Z" fill="#8BC5E4"/>
<path d="M120.386 165.665V160.545L172.348 130.545V135.665L120.386 165.665Z" fill="#8BC5E4"/>
<path d="M120.386 148.805V143.685L172.348 113.685V118.805L120.386 148.805Z" fill="#8BC5E4"/>
<path d="M113.882 138.09L165.844 108.09L113.882 138.09Z" fill="#8BC5E4"/>
<path d="M20.0659 84.2451V87.3951L72.0274 57.3951V54.2451L20.0659 84.2451Z" fill="#8BC5E4"/>
<path d="M21.4253 88.1801V85.0601L73.3868 55.0601V58.1801L21.4253 88.1801Z" fill="#8BC5E4"/>
<path d="M27.1758 91.25L25.4004 92.315L77.3619 62.315L79.1373 61.25L27.1758 91.25Z" fill="#8BC5E4"/>
<path d="M26.3706 94.0051L28.1373 92.9451L80.0988 62.9451L78.3321 64.0051L26.3706 94.0051Z" fill="#8BC5E4"/>
<path d="M30.5533 101.11L28.2583 99.7849L80.2198 69.7849L82.5148 71.1099L30.5533 101.11Z" fill="#8BC5E4"/>
<path d="M28.2583 101.385L30.5619 102.715L82.5235 72.715L80.2198 71.385L28.2583 101.385Z" fill="#8BC5E4"/>
<path d="M10.5742 91.175L13.2329 92.71L65.1944 62.71L62.5357 61.175L10.5742 91.175Z" fill="#8BC5E4"/>
<path d="M13.2327 91.11L10.5913 89.585L62.5528 59.585L65.1942 61.11L13.2327 91.11Z" fill="#8BC5E4"/>
<path d="M13.0337 84.175L14.8523 87.355L66.8139 57.355L64.9952 54.175L13.0337 84.175Z" fill="#8BC5E4"/>
<path d="M15.8221 86.785L14.0034 83.605L65.965 53.605L67.7836 56.785L15.8221 86.785Z" fill="#8BC5E4"/>
<path d="M20.0659 84.2451L72.0274 54.2451L20.0659 84.2451Z" fill="#8BC5E4"/>
<path d="M57.6948 106.1L49.8833 126.31L101.845 96.3101L109.656 76.1001L57.6948 106.1Z" fill="#8BC5E4"/>
<path d="M49.8833 126.31L55.3565 129.47L107.318 99.4701L101.845 96.3101L49.8833 126.31Z" fill="#8BC5E4"/>
<path d="M55.3564 129.47L56.6988 125.745L108.66 95.7451L107.318 99.4701L55.3564 129.47Z" fill="#8BC5E4"/>
<path d="M56.6987 125.745L65.1944 130.65L117.156 100.65L108.66 95.7451L56.6987 125.745Z" fill="#8BC5E4"/>
<path d="M65.1943 130.65L66.5193 135.915L118.481 105.915L117.156 100.65L65.1943 130.65Z" fill="#8BC5E4"/>
<path d="M66.5195 135.915L71.9841 139.07L123.946 109.07L118.481 105.915L66.5195 135.915Z" fill="#8BC5E4"/>
<path d="M71.9841 139.07L64.1812 109.845L116.143 79.845L123.946 109.07L71.9841 139.07Z" fill="#8BC5E4"/>
<path d="M64.1813 109.845L57.6948 106.1L109.656 76.1001L116.143 79.8451L64.1813 109.845Z" fill="#8BC5E4"/>
<path d="M57.6948 106.1L109.656 76.1001L57.6948 106.1Z" fill="#8BC5E4"/>
<path d="M73.9238 115.47V140.19L125.885 110.19V85.47L73.9238 115.47Z" fill="#8BC5E4"/>
<path d="M73.9238 140.19L79.3538 143.325L131.315 113.325L125.885 110.19L73.9238 140.19Z" fill="#8BC5E4"/>
<path d="M79.354 143.325V134.745L131.316 104.745V113.325L79.354 143.325Z" fill="#8BC5E4"/>
<path d="M79.354 134.745L82.948 136.82L134.91 106.82L131.316 104.745L79.354 134.745Z" fill="#8BC5E4"/>
<path d="M82.9478 120.68L73.9238 115.47L125.885 85.47L134.909 90.68L82.9478 120.68Z" fill="#8BC5E4"/>
<path d="M73.9238 115.47L125.885 85.47L73.9238 115.47Z" fill="#8BC5E4"/>
<path d="M94.5181 127.36V152.08L146.48 122.08V97.3601L94.5181 127.36Z" fill="#8BC5E4"/>
<path d="M94.5181 152.08L99.9568 155.22L151.918 125.22L146.48 122.08L94.5181 152.08Z" fill="#8BC5E4"/>
<path d="M99.9565 155.22V130.5L151.918 100.5V125.22L99.9565 155.22Z" fill="#8BC5E4"/>
<path d="M99.9568 130.5L94.5181 127.36L146.48 97.3601L151.918 100.5L99.9568 130.5Z" fill="#8BC5E4"/>
<path d="M94.5181 127.36L146.48 97.3601L94.5181 127.36Z" fill="#8BC5E4"/>
<path d="M79.354 123.225L82.3678 124.965L134.329 94.9651L131.316 93.2251L79.354 123.225Z" fill="#8BC5E4"/>
<path d="M82.3678 131.875L79.354 130.135L131.316 100.135L134.329 101.875L82.3678 131.875Z" fill="#8BC5E4"/>
<path d="M79.354 130.135V123.225L131.316 93.2251V100.135L79.354 130.135Z" fill="#8BC5E4"/>
<path d="M79.354 123.225L131.316 93.2251L79.354 123.225Z" fill="#8BC5E4"/>
<path d="M60.9424 113.765L63.8263 125.27L115.788 95.2699L112.904 83.7649L60.9424 113.765Z" fill="#8BC5E4"/>
<path d="M63.8262 125.27L58.0498 121.935L110.011 91.9351L115.788 95.2701L63.8262 125.27Z" fill="#8BC5E4"/>
<path d="M58.0498 121.935L60.9423 113.765L112.904 83.7649L110.011 91.9349L58.0498 121.935Z" fill="#8BC5E4"/>
<path d="M60.9424 113.765L112.904 83.7649L60.9424 113.765Z" fill="#8BC5E4"/>
<path d="M24.9933 94.4501L23.7549 94.2351L75.7164 64.2351L76.9548 64.4501L24.9933 94.4501Z" fill="#8BC5E4"/>
<path d="M23.7553 94.2351L20.6636 100.14L72.6251 70.1401L75.7168 64.2351L23.7553 94.2351Z" fill="#8BC5E4"/>
<path d="M22.3696 102.355L25.4873 96.085L77.4489 66.085L74.3312 72.355L22.3696 102.355Z" fill="#8BC5E4"/>
<path d="M25.4873 96.085L24.9937 94.45L76.9552 64.45L77.4489 66.085L25.4873 96.085Z" fill="#8BC5E4"/>
<path d="M24.9937 94.45L76.9552 64.45L24.9937 94.45Z" fill="#8BC5E4"/>
<path d="M18.1865 101.49L70.1481 71.49L18.1865 101.49Z" fill="#8BC5E4"/>
<path d="M86.585 187.23L138.546 157.23L86.585 187.23Z" fill="#8BC5E4"/>
<path d="M84.4546 195.56L85.0608 195.91L137.022 165.91L136.416 165.56L84.4546 195.56Z" fill="#8BC5E4"/>
<path d="M85.061 195.91V198.1L137.023 168.1V165.91L85.061 195.91Z" fill="#8BC5E4"/>
<path d="M87.7979 199.63V197.49L139.759 167.49V169.63L87.7979 199.63Z" fill="#8BC5E4"/>
<path d="M87.7979 197.49L88.5686 197.935L140.53 167.935L139.759 167.49L87.7979 197.49Z" fill="#8BC5E4"/>
<path d="M88.5682 194.735L84.4546 192.36L136.416 162.36L140.53 164.735L88.5682 194.735Z" fill="#8BC5E4"/>
<path d="M84.4546 192.36L136.416 162.36L84.4546 192.36Z" fill="#8BC5E4"/>
<path d="M86.5679 201.51L138.529 171.51L86.5679 201.51Z" fill="#8BC5E4"/>
<path d="M85.9443 212.12L91.1664 221.145L143.128 191.145L137.906 182.12L85.9443 212.12Z" fill="#8BC5E4"/>
<path d="M91.1665 221.145L91.6861 220.855L143.648 190.855L143.128 191.145L91.1665 221.145Z" fill="#8BC5E4"/>
<path d="M91.6862 220.855L88.0835 211.655L140.045 181.655L143.648 190.855L91.6862 220.855Z" fill="#8BC5E4"/>
<path d="M86.9404 210.285L138.902 180.285L86.9404 210.285Z" fill="#8BC5E4"/>
<path d="M101.1 82.8L137.923 147.19L189.885 117.19L153.061 52.8L101.1 82.8Z" fill="#8BC5E4"/>
<path d="M137.941 181.36L102.468 202.48L154.43 172.48L189.902 151.36L137.941 181.36Z" fill="#8BC5E4"/>
<path d="M70.7109 184.135L35.1865 122.125L87.148 92.125L122.672 154.135L70.7109 184.135Z" fill="#8BC5E4"/>
<path d="M35.2471 87.87L72.0705 66.04L124.032 36.04L87.2087 57.87L35.2471 87.87Z" fill="#8BC5E4"/>
<path d="M101.1 82.8L153.061 52.8L101.1 82.8Z" fill="#8BC5E4"/>
<path d="M120.386 143.685V148.805L172.348 118.805V113.685L120.386 143.685Z" fill="#8BC5E4"/>
<path d="M120.386 160.545V165.665L172.348 135.665V130.545L120.386 160.545Z" fill="#8BC5E4"/>
<path d="M105.534 136.73L157.495 106.73L105.534 136.73Z" fill="#8BC5E4"/>
<path d="M49.8833 126.31L57.6948 106.1L109.656 76.1001L101.845 96.3101L49.8833 126.31Z" fill="#8BC5E4"/>
<path d="M57.6948 106.1L64.1813 109.845L116.143 79.8451L109.656 76.1001L57.6948 106.1Z" fill="#8BC5E4"/>
<path d="M64.1812 109.845L71.9841 139.07L123.946 109.07L116.143 79.845L64.1812 109.845Z" fill="#8BC5E4"/>
<path d="M71.9841 139.07L66.5195 135.915L118.481 105.915L123.946 109.07L71.9841 139.07Z" fill="#8BC5E4"/>
<path d="M66.5193 135.915L65.1943 130.65L117.156 100.65L118.481 105.915L66.5193 135.915Z" fill="#8BC5E4"/>
<path d="M65.1944 130.65L56.6987 125.745L108.66 95.7451L117.156 100.65L65.1944 130.65Z" fill="#8BC5E4"/>
<path d="M56.6988 125.745L55.3564 129.47L107.318 99.4701L108.66 95.7451L56.6988 125.745Z" fill="#8BC5E4"/>
<path d="M55.3565 129.47L49.8833 126.31L101.845 96.3101L107.318 99.4701L55.3565 129.47Z" fill="#8BC5E4"/>
<path d="M49.8833 126.31L101.845 96.3101L49.8833 126.31Z" fill="#8BC5E4"/>
<path d="M73.9238 140.19V115.47L125.885 85.47V110.19L73.9238 140.19Z" fill="#8BC5E4"/>
<path d="M73.9238 115.47L82.9478 120.68L134.909 90.68L125.885 85.47L73.9238 115.47Z" fill="#8BC5E4"/>
<path d="M82.948 136.82L79.354 134.745L131.316 104.745L134.91 106.82L82.948 136.82Z" fill="#8BC5E4"/>
<path d="M79.354 134.745V143.325L131.316 113.325V104.745L79.354 134.745Z" fill="#8BC5E4"/>
<path d="M79.3538 143.325L73.9238 140.19L125.885 110.19L131.315 113.325L79.3538 143.325Z" fill="#8BC5E4"/>
<path d="M73.9238 140.19L125.885 110.19L73.9238 140.19Z" fill="#8BC5E4"/>
<path d="M94.5181 152.08V127.36L146.48 97.3601V122.08L94.5181 152.08Z" fill="#8BC5E4"/>
<path d="M94.5181 127.36L99.9568 130.5L151.918 100.5L146.48 97.3601L94.5181 127.36Z" fill="#8BC5E4"/>
<path d="M99.9565 130.5V155.22L151.918 125.22V100.5L99.9565 130.5Z" fill="#8BC5E4"/>
<path d="M99.9568 155.22L94.5181 152.08L146.48 122.08L151.918 125.22L99.9568 155.22Z" fill="#8BC5E4"/>
<path d="M94.5181 152.08L146.48 122.08L94.5181 152.08Z" fill="#8BC5E4"/>
<path d="M79.354 123.225L82.3678 124.965L134.329 94.9651L131.316 93.2251L79.354 123.225Z" fill="#8BC5E4"/>
<path d="M82.3678 131.875L79.354 130.135L131.316 100.135L134.329 101.875L82.3678 131.875Z" fill="#8BC5E4"/>
<path d="M79.354 130.135V123.225L131.316 93.2251V100.135L79.354 130.135Z" fill="#8BC5E4"/>
<path d="M79.354 123.225L131.316 93.2251L79.354 123.225Z" fill="#8BC5E4"/>
<path d="M60.9424 113.765L63.8263 125.27L115.788 95.2699L112.904 83.7649L60.9424 113.765Z" fill="#8BC5E4"/>
<path d="M63.8262 125.27L58.0498 121.935L110.011 91.9351L115.788 95.2701L63.8262 125.27Z" fill="#8BC5E4"/>
<path d="M58.0498 121.935L60.9423 113.765L112.904 83.7649L110.011 91.9349L58.0498 121.935Z" fill="#8BC5E4"/>
<path d="M60.9424 113.765L112.904 83.7649L60.9424 113.765Z" fill="#8BC5E4"/>
<path d="M152.559 151.16L204.521 121.16L152.559 151.16Z" fill="#8BC5E4"/>
<path d="M159.21 167.18V173.61L211.171 143.61V137.18L159.21 167.18Z" fill="#8BC5E4"/>
<path d="M159.21 173.61L162.908 175.745L214.869 145.745L211.171 143.61L159.21 173.61Z" fill="#8BC5E4"/>
<path d="M162.908 175.745V191.305L214.87 161.305V145.745L162.908 175.745Z" fill="#8BC5E4"/>
<path d="M162.908 191.305L142.349 179.435L194.31 149.435L214.87 161.305L162.908 191.305Z" fill="#8BC5E4"/>
<path d="M142.349 179.435V163.875L194.31 133.875V149.435L142.349 179.435Z" fill="#8BC5E4"/>
<path d="M142.349 163.875L146.194 166.095L198.155 136.095L194.31 133.875L142.349 163.875Z" fill="#8BC5E4"/>
<path d="M146.194 166.095V159.665L198.155 129.665V136.095L146.194 166.095Z" fill="#8BC5E4"/>
<path d="M146.194 159.665L198.155 129.665L146.194 159.665Z" fill="#8BC5E4"/>
<path d="M157.392 166.13V172.56L209.353 142.56V136.13L157.392 166.13Z" fill="#8BC5E4"/>
<path d="M157.391 172.56L148.021 167.15L199.982 137.15L209.353 142.56L157.391 172.56Z" fill="#8BC5E4"/>
<path d="M148.021 167.15V160.72L199.982 130.72V137.15L148.021 167.15Z" fill="#8BC5E4"/>
<path d="M152.698 158.95L204.659 128.95L152.698 158.95Z" fill="#8BC5E4"/>
<path d="M86.585 35.6599L138.546 5.65991L86.585 35.6599Z" fill="#8BC5E4"/>
<path d="M96.172 74.5849L76.8164 63.4099L128.778 33.4099L148.134 44.5849L96.172 74.5849Z" fill="#8BC5E4"/>
<path d="M80.7051 49.2451L132.667 19.2451L80.7051 49.2451Z" fill="#8BC5E4"/>
<path d="M20.646 75L72.6076 45L20.646 75Z" fill="#8BC5E4"/>
<path d="M8.73828 89.4351L60.6998 59.4351L8.73828 89.4351Z" fill="#8BC5E4"/>
<path d="M20.0659 84.2451V87.3951L72.0274 57.3951V54.2451L20.0659 84.2451Z" fill="#8BC5E4"/>
<path d="M21.4253 88.1801V85.0601L73.3868 55.0601V58.1801L21.4253 88.1801Z" fill="#8BC5E4"/>
<path d="M27.1758 91.25L25.4004 92.315L77.3619 62.315L79.1373 61.25L27.1758 91.25Z" fill="#8BC5E4"/>
<path d="M26.3706 94.0051L28.1373 92.9451L80.0988 62.9451L78.3321 64.0051L26.3706 94.0051Z" fill="#8BC5E4"/>
<path d="M30.5533 101.11L28.2583 99.7849L80.2198 69.7849L82.5148 71.1099L30.5533 101.11Z" fill="#8BC5E4"/>
<path d="M28.2583 101.385L30.5619 102.715L82.5235 72.715L80.2198 71.385L28.2583 101.385Z" fill="#8BC5E4"/>
<path d="M10.5742 91.175L13.2329 92.71L65.1944 62.71L62.5357 61.175L10.5742 91.175Z" fill="#8BC5E4"/>
<path d="M13.2327 91.11L10.5913 89.585L62.5528 59.585L65.1942 61.11L13.2327 91.11Z" fill="#8BC5E4"/>
<path d="M13.0337 84.175L14.8523 87.355L66.8139 57.355L64.9952 54.175L13.0337 84.175Z" fill="#8BC5E4"/>
<path d="M15.8221 86.785L14.0034 83.605L65.965 53.605L67.7836 56.785L15.8221 86.785Z" fill="#8BC5E4"/>
<path d="M20.0659 84.2451L72.0274 54.2451L20.0659 84.2451Z" fill="#8BC5E4"/>
<path d="M23.7549 94.2351L24.9933 94.4501L76.9548 64.4501L75.7164 64.2351L23.7549 94.2351Z" fill="#8BC5E4"/>
<path d="M24.9937 94.45L25.4873 96.085L77.4489 66.085L76.9552 64.45L24.9937 94.45Z" fill="#8BC5E4"/>
<path d="M25.4873 96.085L22.3696 102.355L74.3312 72.355L77.4489 66.085L25.4873 96.085Z" fill="#8BC5E4"/>
<path d="M20.6636 100.14L23.7553 94.2351L75.7168 64.2351L72.6251 70.1401L20.6636 100.14Z" fill="#8BC5E4"/>
<path d="M23.7549 94.2351L75.7164 64.2351L23.7549 94.2351Z" fill="#8BC5E4"/>
<path d="M15.0776 101.425L67.0391 71.425L15.0776 101.425Z" fill="#8BC5E4"/>
<path d="M86.585 187.23L138.546 157.23L86.585 187.23Z" fill="#8BC5E4"/>
<path d="M84.4546 192.36L88.5682 194.735L140.53 164.735L136.416 162.36L84.4546 192.36Z" fill="#8BC5E4"/>
<path d="M88.5686 197.935L87.7979 197.49L139.759 167.49L140.53 167.935L88.5686 197.935Z" fill="#8BC5E4"/>
<path d="M87.7979 197.49V199.63L139.759 169.63V167.49L87.7979 197.49Z" fill="#8BC5E4"/>
<path d="M85.061 198.1V195.91L137.023 165.91V168.1L85.061 198.1Z" fill="#8BC5E4"/>
<path d="M85.0608 195.91L84.4546 195.56L136.416 165.56L137.022 165.91L85.0608 195.91Z" fill="#8BC5E4"/>
<path d="M83.2769 192.48L135.238 162.48L83.2769 192.48Z" fill="#8BC5E4"/>
<path d="M86.5679 201.51L138.529 171.51L86.5679 201.51Z" fill="#8BC5E4"/>
<path d="M88.0835 211.655L91.6862 220.855L143.648 190.855L140.045 181.655L88.0835 211.655Z" fill="#8BC5E4"/>
<path d="M91.6861 220.855L91.1665 221.145L143.128 191.145L143.648 190.855L91.6861 220.855Z" fill="#8BC5E4"/>
<path d="M91.1664 221.145L85.9443 212.12L137.906 182.12L143.128 191.145L91.1664 221.145Z" fill="#8BC5E4"/>
<path d="M86.0654 210.13L138.027 180.13L86.0654 210.13Z" fill="#8BC5E4"/>
<path d="M86.5852 32.9899C80.98 29.7539 75.891 29.4469 72.168 31.5619L124.129 1.56195C127.852 -0.553054 132.941 -0.246054 138.547 2.98995L86.5852 32.9899Z" fill="#8BC5E4"/>
<path d="M72.171 31.5601C68.33 33.7411 65.942 38.4991 65.939 45.2801L117.9 15.2801C117.903 8.49906 120.291 3.74106 124.132 1.56006L72.171 31.5601Z" fill="#8BC5E4"/>
<path d="M65.939 45.29C65.939 51.25 67.7836 57.765 70.832 63.755L122.793 33.755C119.745 27.765 117.9 21.25 117.9 15.29L65.939 45.29Z" fill="#8BC5E4"/>
<path d="M33.9049 85.6551C30.3196 80.0551 25.695 75.2451 20.646 72.3301L72.6076 42.3301C77.6565 45.2451 82.2811 50.0551 85.8664 55.6551L33.9049 85.6551Z" fill="#8BC5E4"/>
<path d="M20.646 72.33C15.041 69.094 9.952 68.787 6.229 70.902L58.1905 40.902C61.9135 38.787 67.0025 39.094 72.6076 42.33L20.646 72.33Z" fill="#8BC5E4"/>
<path d="M6.232 70.8999C2.391 73.0809 0.003 77.8389 0 84.6199L51.9615 54.6199C51.9645 47.8389 54.3525 43.0809 58.1935 40.8999L6.232 70.8999Z" fill="#8BC5E4"/>
<path d="M0 84.6299C0 97.9899 9.2578 114.195 20.646 120.77L72.6076 90.7699C61.2193 84.1949 51.9615 67.9899 51.9615 54.6299L0 84.6299Z" fill="#8BC5E4"/>
<path d="M20.646 120.77C25.6603 123.665 30.2589 124.21 33.8356 122.785L85.7971 92.785C82.2205 94.21 77.6219 93.665 72.6076 90.77L20.646 120.77Z" fill="#8BC5E4"/>
<path d="M69.6023 185.215C67.29 187.79 65.939 191.75 65.939 196.86L117.9 166.86C117.9 161.75 119.251 157.79 121.564 155.215L69.6023 185.215Z" fill="#8BC5E4"/>
<path d="M65.939 196.86C65.939 210.21 75.1968 226.415 86.585 232.99L138.546 202.99C127.158 196.415 117.9 180.21 117.9 166.86L65.939 196.86Z" fill="#8BC5E4"/>
<path d="M86.585 232.99C92.1898 236.226 97.2788 236.533 101.003 234.419L152.964 204.419C149.24 206.533 144.151 206.226 138.546 202.99L86.585 232.99Z" fill="#8BC5E4"/>
<path d="M101 234.421C104.841 232.242 107.229 227.486 107.231 220.71L159.193 190.71C159.191 197.486 156.802 202.242 152.961 204.421L101 234.421Z" fill="#8BC5E4"/>
<path d="M107.231 220.7C107.231 215.6 105.88 210.08 103.577 204.85L155.538 174.85C157.842 180.08 159.193 185.6 159.193 190.7L107.231 220.7Z" fill="#8BC5E4"/>
<path d="M139.283 183.585C142.877 189.2 147.51 194.015 152.559 196.93L204.52 166.93C199.471 164.015 194.838 159.2 191.244 153.585L139.283 183.585Z" fill="#8BC5E4"/>
<path d="M152.559 196.93C158.164 200.166 163.253 200.473 166.976 198.358L218.938 168.358C215.215 170.473 210.126 170.166 204.521 166.93L152.559 196.93Z" fill="#8BC5E4"/>
<path d="M166.974 198.36C170.815 196.179 173.203 191.421 173.205 184.64L225.167 154.64C225.165 161.421 222.777 166.179 218.936 168.36L166.974 198.36Z" fill="#8BC5E4"/>
<path d="M173.205 184.63C173.205 171.27 163.947 155.065 152.559 148.49L204.521 118.49C215.909 125.065 225.167 141.27 225.167 154.63L173.205 184.63Z" fill="#8BC5E4"/>
<path d="M152.559 148.49C147.493 145.565 142.86 145.04 139.266 146.515L191.227 116.515C194.821 115.04 199.454 115.565 204.521 118.49L152.559 148.49Z" fill="#8BC5E4"/>
<path d="M102.33 81.9299C105.387 79.4749 107.231 75.0899 107.231 69.1299L159.193 39.1299C159.193 45.0899 157.348 49.4749 154.291 51.9299L102.33 81.9299Z" fill="#8BC5E4"/>
<path d="M107.231 69.13C107.231 55.77 97.9733 39.565 86.585 32.99L138.546 2.98999C149.935 9.56499 159.193 25.77 159.193 39.13L107.231 69.13Z" fill="#8BC5E4"/>
<path d="M86.585 35.6599C96.7435 41.5249 104.953 55.8949 104.953 67.8149L156.915 37.8149C156.915 25.8949 148.705 11.5249 138.546 5.65991L86.585 35.6599Z" fill="#8BC5E4"/>
<path d="M104.953 67.8149C104.954 73.8629 102.836 78.1009 99.4219 80.0389L151.383 50.0389C154.797 48.1009 156.915 43.8629 156.915 37.8149L104.953 67.8149Z" fill="#8BC5E4"/>
<path d="M99.4248 80.0379C96.1168 81.9169 91.5908 81.6379 86.5928 78.7539L138.554 48.7539C143.552 51.6379 148.078 51.9169 151.386 50.0379L99.4248 80.0379Z" fill="#8BC5E4"/>
<path d="M86.5852 78.75C76.4267 72.885 68.2168 58.515 68.2168 46.605L120.178 16.605C120.178 28.515 128.388 42.885 138.547 48.75L86.5852 78.75Z" fill="#8BC5E4"/>
<path d="M68.2168 46.6051C68.217 40.5521 70.334 36.3121 73.748 34.3721L125.709 4.37207C122.295 6.31207 120.178 10.5521 120.178 16.6051L68.2168 46.6051Z" fill="#8BC5E4"/>
<path d="M73.7461 34.3729C77.0541 32.493 81.5801 32.7719 86.5781 35.6559L138.54 5.65595C133.542 2.77195 129.016 2.49295 125.708 4.37295L73.7461 34.3729Z" fill="#8BC5E4"/>
<path d="M86.5419 46.205C84.875 45.243 83.36 45.156 82.291 45.792L134.253 15.792C135.322 15.156 136.837 15.243 138.503 16.205L86.5419 46.205Z" fill="#8BC5E4"/>
<path d="M82.2801 45.7981C81.3061 46.3831 80.7061 47.5691 80.7051 49.2401L132.667 19.2401C132.668 17.5691 133.268 16.3831 134.242 15.7981L82.2801 45.7981Z" fill="#8BC5E4"/>
<path d="M80.7051 49.2451C80.7051 51.9951 82.2466 54.7651 83.8401 57.1051L135.802 27.1051C134.208 24.7651 132.667 21.9951 132.667 19.2451L80.7051 49.2451Z" fill="#8BC5E4"/>
<path d="M83.8398 57.1049C82.0559 56.6829 80.5869 56.8609 79.4609 57.5129L131.422 27.5129C132.548 26.8609 134.017 26.6829 135.801 27.1049L83.8398 57.1049Z" fill="#8BC5E4"/>
<path d="M79.4629 57.512C77.7359 58.511 76.8179 60.626 76.8159 63.403L128.777 33.403C128.779 30.626 129.697 28.511 131.424 27.512L79.4629 57.512Z" fill="#8BC5E4"/>
<path d="M96.1719 74.5851C96.1719 70.8451 94.5611 64.9751 89.4429 60.3701L141.404 30.3701C146.523 34.9751 148.133 40.8451 148.133 44.5851L96.1719 74.5851Z" fill="#8BC5E4"/>
<path d="M89.4429 60.37C89.8828 60.308 90.3058 60.17 90.6888 59.947L142.65 29.947C142.267 30.17 141.844 30.308 141.404 30.37L89.4429 60.37Z" fill="#8BC5E4"/>
<path d="M90.688 59.9479C91.684 59.3689 92.403 58.2169 92.405 56.3279L144.366 26.3279C144.364 28.2169 143.645 29.3689 142.649 29.9479L90.688 59.9479Z" fill="#8BC5E4"/>
<path d="M92.405 56.3201C92.405 52.5101 89.9628 48.1801 86.542 46.2051L138.503 16.2051C141.924 18.1801 144.366 22.5101 144.366 26.3201L92.405 56.3201Z" fill="#8BC5E4"/>
<path d="M137.923 147.19C137.655 147.352 137.394 147.526 137.14 147.713L189.102 117.713C189.356 117.526 189.617 117.352 189.885 117.19L137.923 147.19Z" fill="#8BC5E4"/>
<path d="M137.141 147.713C133.89 150.114 131.915 154.606 131.913 160.78L183.875 130.78C183.877 124.606 185.852 120.114 189.103 117.713L137.141 147.713Z" fill="#8BC5E4"/>
<path d="M131.913 160.79C131.913 167.46 134.217 174.83 137.941 181.36L189.902 151.36C186.178 144.83 183.875 137.46 183.875 130.79L131.913 160.79Z" fill="#8BC5E4"/>
<path d="M102.468 202.48C98.6747 194.95 92.9676 188.245 86.585 184.56L138.546 154.56C144.929 158.245 150.636 164.95 154.429 172.48L102.468 202.48Z" fill="#8BC5E4"/>
<path d="M86.5854 184.56C80.9462 181.304 75.8282 181.011 72.0972 183.168L124.059 153.168C127.79 151.011 132.908 151.304 138.547 154.56L86.5854 184.56Z" fill="#8BC5E4"/>
<path d="M72.1018 183.165C71.6168 183.446 71.1538 183.768 70.7168 184.13L122.678 154.13C123.115 153.768 123.578 153.446 124.063 153.165L72.1018 183.165Z" fill="#8BC5E4"/>
<path d="M35.1865 122.125C35.4589 121.965 35.7239 121.792 35.9809 121.606L87.9424 91.606C87.6854 91.792 87.4204 91.965 87.148 92.125L35.1865 122.125Z" fill="#8BC5E4"/>
<path d="M35.98 121.606C39.278 119.218 41.29 114.7 41.292 108.48L93.2535 78.48C93.2515 84.7 91.2395 89.218 87.9415 91.606L35.98 121.606Z" fill="#8BC5E4"/>
<path d="M41.292 108.47C41.292 101.8 38.9884 94.4201 35.2471 87.8701L87.2087 57.8701C90.9499 64.4201 93.2535 71.8001 93.2535 78.4701L41.292 108.47Z" fill="#8BC5E4"/>
<path d="M72.0708 66.04C75.8034 72.525 80.9303 78.155 86.5854 81.42L138.547 51.42C132.892 48.155 127.765 42.525 124.032 36.04L72.0708 66.04Z" fill="#8BC5E4"/>
<path d="M86.585 81.4199C91.8428 84.4549 96.6438 84.9199 100.292 83.2219L152.253 53.2219C148.605 54.9199 143.804 54.4549 138.546 51.4199L86.585 81.4199Z" fill="#8BC5E4"/>
<path d="M100.286 83.224C100.562 83.096 100.832 82.956 101.094 82.803L153.056 52.803C152.794 52.956 152.524 53.096 152.248 53.224L100.286 83.224Z" fill="#8BC5E4"/>
<path d="M20.646 75C30.8045 80.865 39.0231 95.25 39.0231 107.16L90.9846 77.16C90.9846 65.25 82.766 50.865 72.6076 45L20.646 75Z" fill="#8BC5E4"/>
<path d="M39.0229 107.16C39.0228 113.213 36.9038 117.452 33.4868 119.39L85.4483 89.3899C88.8653 87.4519 90.9843 83.2129 90.9844 77.1599L39.0229 107.16Z" fill="#8BC5E4"/>
<path d="M33.4898 119.389C30.1798 121.268 25.6518 120.988 20.6528 118.104L72.6143 88.104C77.6133 90.988 82.1413 91.268 85.4513 89.389L33.4898 119.389Z" fill="#8BC5E4"/>
<path d="M20.6462 118.1C10.4878 112.235 2.27783 97.8651 2.27783 85.9451L54.2394 55.9451C54.2394 67.8651 62.4493 82.2351 72.6078 88.1001L20.6462 118.1Z" fill="#8BC5E4"/>
<path d="M2.27783 85.9451C2.27823 79.8971 4.39523 75.6571 7.80923 73.7161L59.7707 43.7161C56.3567 45.6571 54.2397 49.8971 54.2394 55.9451L2.27783 85.9451Z" fill="#8BC5E4"/>
<path d="M7.80713 73.7171C11.1151 71.8351 15.6411 72.1121 20.6391 74.9961L72.6006 44.9961C67.6026 42.1121 63.0766 41.8351 59.7686 43.7171L7.80713 73.7171Z" fill="#8BC5E4"/>
<path d="M152.559 151.16C162.718 157.025 170.927 171.405 170.927 183.315L222.889 153.315C222.889 141.405 214.679 127.025 204.521 121.16L152.559 151.16Z" fill="#8BC5E4"/>
<path d="M170.927 183.315C170.927 189.368 168.81 193.608 165.396 195.548L217.357 165.548C220.771 163.608 222.888 159.368 222.889 153.315L170.927 183.315Z" fill="#8BC5E4"/>
<path d="M165.398 195.547C162.091 197.427 157.565 197.148 152.566 194.264L204.527 164.264C209.526 167.148 214.052 167.427 217.359 165.547L165.398 195.547Z" fill="#8BC5E4"/>
<path d="M152.559 194.26C142.4 188.395 134.19 174.025 134.19 162.105L186.152 132.105C186.152 144.025 194.362 158.395 204.52 164.26L152.559 194.26Z" fill="#8BC5E4"/>
<path d="M134.19 162.105C134.191 156.057 136.308 151.817 139.722 149.876L191.683 119.876C188.269 121.817 186.152 126.057 186.152 132.105L134.19 162.105Z" fill="#8BC5E4"/>
<path d="M139.72 149.877C143.028 147.995 147.554 148.272 152.552 151.156L204.514 121.156C199.516 118.272 194.99 117.995 191.682 119.877L139.72 149.877Z" fill="#8BC5E4"/>
<path d="M152.697 156.82C150.713 155.674 149.035 155.602 147.881 156.256L199.842 126.256C200.996 125.602 202.674 125.674 204.659 126.82L152.697 156.82Z" fill="#8BC5E4"/>
<path d="M147.884 156.254C146.817 156.858 146.196 158.082 146.194 159.655L198.155 129.655C198.157 128.082 198.778 126.858 199.845 126.254L147.884 156.254Z" fill="#8BC5E4"/>
<path d="M159.21 167.18C159.21 165.49 158.37 163.415 157.192 161.515L209.154 131.515C210.332 133.415 211.172 135.49 211.172 137.18L159.21 167.18Z" fill="#8BC5E4"/>
<path d="M157.192 161.515C156.006 159.61 154.421 157.815 152.698 156.82L204.659 126.82C206.383 127.815 207.967 129.61 209.154 131.515L157.192 161.515Z" fill="#8BC5E4"/>
<path d="M20.5682 82.3851C17.3581 80.5321 14.4431 80.3581 12.3091 81.5711L64.2706 51.5711C66.4046 50.3581 69.3196 50.5321 72.5297 52.3851L20.5682 82.3851Z" fill="#8BC5E4"/>
<path d="M12.3108 81.5691C10.1088 82.8201 8.73979 85.5461 8.73779 89.4291L60.6993 59.4291C60.7013 55.5461 62.0703 52.8201 64.2723 51.5691L12.3108 81.5691Z" fill="#8BC5E4"/>
<path d="M8.73828 89.4351C8.73828 97.0851 14.047 106.38 20.5682 110.145L72.5297 80.1451C66.0086 76.3801 60.6998 67.0851 60.6998 59.4351L8.73828 89.4351Z" fill="#8BC5E4"/>
<path d="M20.5679 110.145C23.7818 112.001 26.6998 112.176 28.8348 110.964L80.7963 80.964C78.6613 82.176 75.7433 82.001 72.5294 80.145L20.5679 110.145Z" fill="#8BC5E4"/>
<path d="M28.833 110.965C31.036 109.715 32.405 106.989 32.407 103.106L84.3685 73.106C84.3665 76.989 82.9975 79.715 80.7945 80.965L28.833 110.965Z" fill="#8BC5E4"/>
<path d="M32.4065 103.1C32.4065 95.45 27.0977 86.155 20.5679 82.385L72.5294 52.385C79.0593 56.155 84.368 65.45 84.368 73.1L32.4065 103.1Z" fill="#8BC5E4"/>
<path d="M152.698 158.95C153.876 159.63 155.088 160.98 155.98 162.425L207.942 132.425C207.05 130.98 205.837 129.63 204.659 128.95L152.698 158.95Z" fill="#8BC5E4"/>
<path d="M155.98 162.425C156.881 163.865 157.392 165.35 157.392 166.13L209.353 136.13C209.353 135.35 208.842 133.865 207.942 132.425L155.98 162.425Z" fill="#8BC5E4"/>
<path d="M148.021 160.72C148.021 159.838 148.438 159.003 149.197 158.565L201.158 128.565C200.399 129.003 199.982 129.838 199.982 130.72L148.021 160.72Z" fill="#8BC5E4"/>
<path d="M149.195 158.567C150.001 158.101 151.196 158.085 152.689 158.945L204.65 128.945C203.157 128.085 201.962 128.101 201.156 128.567L149.195 158.567Z" fill="#8BC5E4"/>
<path d="M113.882 138.09C110.634 136.215 108.014 135.692 106.016 136.502L157.978 106.502C159.976 105.692 162.596 106.215 165.844 108.09L113.882 138.09Z" fill="#8BC5E4"/>
<path d="M106.009 136.505C105.849 136.571 105.692 136.645 105.54 136.727L157.502 106.727C157.654 106.645 157.811 106.571 157.971 106.505L106.009 136.505Z" fill="#8BC5E4"/>
<path d="M105.534 136.73C105.382 136.813 105.235 136.903 105.094 137.002L157.056 107.002C157.197 106.903 157.344 106.813 157.496 106.73L105.534 136.73Z" fill="#8BC5E4"/>
<path d="M105.094 137.001C103.336 138.227 102.46 140.666 102.459 144.319L154.42 114.319C154.421 110.666 155.297 108.227 157.055 107.001L105.094 137.001Z" fill="#8BC5E4"/>
<path d="M102.459 144.325C102.459 148.275 103.481 151.985 105.534 155.48L157.495 125.48C155.443 121.985 154.421 118.275 154.421 114.325L102.459 144.325Z" fill="#8BC5E4"/>
<path d="M105.534 155.48C107.586 158.955 110.366 161.72 113.882 163.75L165.844 133.75C162.328 131.72 159.548 128.955 157.495 125.48L105.534 155.48Z" fill="#8BC5E4"/>
<path d="M113.882 163.75C115.06 164.43 116.186 164.92 117.269 165.235L169.23 135.235C168.148 134.92 167.022 134.43 165.844 133.75L113.882 163.75Z" fill="#8BC5E4"/>
<path d="M117.269 165.235C118.351 165.55 119.39 165.69 120.386 165.665L172.348 135.665C171.352 135.69 170.313 135.55 169.23 135.235L117.269 165.235Z" fill="#8BC5E4"/>
<path d="M120.386 160.545C119.382 160.775 118.394 160.795 117.407 160.595L169.369 130.595C170.356 130.795 171.343 130.775 172.348 130.545L120.386 160.545Z" fill="#8BC5E4"/>
<path d="M117.407 160.595C116.429 160.4 115.398 159.995 114.315 159.37L166.277 129.37C167.359 129.995 168.39 130.4 169.369 130.595L117.407 160.595Z" fill="#8BC5E4"/>
<path d="M114.315 159.37C112.375 158.25 110.851 156.64 109.743 154.55L161.704 124.55C162.813 126.64 164.337 128.25 166.277 129.37L114.315 159.37Z" fill="#8BC5E4"/>
<path d="M109.743 154.55C108.634 152.45 108.08 150.13 108.08 147.57L160.042 117.57C160.042 120.13 160.596 122.45 161.704 124.55L109.743 154.55Z" fill="#8BC5E4"/>
<path d="M108.08 147.57C108.08 145.01 108.634 143.32 109.743 142.51L161.704 112.51C160.596 113.32 160.042 115.01 160.042 117.57L108.08 147.57Z" fill="#8BC5E4"/>
<path d="M109.743 142.51C109.821 142.452 109.901 142.399 109.983 142.351L161.944 112.351C161.862 112.399 161.782 112.452 161.704 112.51L109.743 142.51Z" fill="#8BC5E4"/>
<path d="M109.982 142.352C111.066 141.717 112.508 141.919 114.31 142.957L166.271 112.957C164.469 111.919 163.027 111.717 161.943 112.352L109.982 142.352Z" fill="#8BC5E4"/>
<path d="M114.315 142.96C115.398 143.585 116.429 144.37 117.407 145.305L169.369 115.305C168.39 114.37 167.359 113.585 166.277 112.96L114.315 142.96Z" fill="#8BC5E4"/>
<path d="M117.407 145.305C118.394 146.255 119.382 147.415 120.386 148.805L172.348 118.805C171.343 117.415 170.356 116.255 169.369 115.305L117.407 145.305Z" fill="#8BC5E4"/>
<path d="M120.386 143.685C119.39 142.5 118.351 141.44 117.269 140.505L169.23 110.505C170.313 111.44 171.352 112.5 172.348 113.685L120.386 143.685Z" fill="#8BC5E4"/>
<path d="M117.269 140.505C116.186 139.58 115.06 138.77 113.882 138.09L165.844 108.09C167.022 108.77 168.148 109.58 169.23 110.505L117.269 140.505Z" fill="#8BC5E4"/>
<path d="M20.0659 87.395C20.0659 87.835 20.369 88.37 20.7414 88.585L72.7029 58.585C72.3305 58.37 72.0274 57.835 72.0274 57.395L20.0659 87.395Z" fill="#8BC5E4"/>
<path d="M20.7412 88.585C20.9319 88.695 21.1029 88.704 21.2259 88.63L73.1874 58.63C73.0644 58.704 72.8934 58.695 72.7027 58.585L20.7412 88.585Z" fill="#8BC5E4"/>
<path d="M21.2251 88.6311C21.3481 88.5581 21.4241 88.4031 21.4251 88.1851L73.3866 58.1851C73.3856 58.4031 73.3096 58.5581 73.1866 58.6311L21.2251 88.6311Z" fill="#8BC5E4"/>
<path d="M21.4253 85.0601C23.625 86.5501 25.6168 88.7401 27.1757 91.2501L79.1372 61.2501C77.5784 58.7401 75.5865 56.5501 73.3868 55.0601L21.4253 85.0601Z" fill="#8BC5E4"/>
<path d="M25.4005 92.3149C25.1321 92.4699 25.1321 92.9799 25.4005 93.4449L77.362 63.4449C77.0936 62.9799 77.0936 62.4699 77.362 62.3149L25.4005 92.3149Z" fill="#8BC5E4"/>
<path d="M25.4004 93.4451C25.6689 93.9101 26.1019 94.1601 26.3704 94.0051L78.3319 64.0051C78.0634 64.1601 77.6304 63.9101 77.3619 63.4451L25.4004 93.4451Z" fill="#8BC5E4"/>
<path d="M28.1372 92.9451C29.5055 95.5751 30.3802 98.4201 30.5534 101.11L82.5149 71.1101C82.3417 68.4201 81.467 65.5751 80.0987 62.9451L28.1372 92.9451Z" fill="#8BC5E4"/>
<path d="M28.2583 99.7849C28.0679 99.6749 27.8969 99.6659 27.7729 99.7399L79.7344 69.7399C79.8584 69.6659 80.0294 69.6749 80.2198 69.7849L28.2583 99.7849Z" fill="#8BC5E4"/>
<path d="M27.7752 99.739C27.6522 99.812 27.5762 99.967 27.5742 100.185L79.5357 70.185C79.5377 69.967 79.6137 69.812 79.7367 69.739L27.7752 99.739Z" fill="#8BC5E4"/>
<path d="M27.5742 100.19C27.5742 100.63 27.8774 101.165 28.2584 101.385L80.2199 71.3849C79.8389 71.1649 79.5358 70.6299 79.5358 70.1899L27.5742 100.19Z" fill="#8BC5E4"/>
<path d="M30.5618 102.715C30.4158 105.606 29.3348 107.656 27.6548 108.659L79.6163 78.6591C81.2963 77.6561 82.3773 75.6061 82.5234 72.7151L30.5618 102.715Z" fill="#8BC5E4"/>
<path d="M27.6472 108.664C25.8412 109.739 23.3442 109.606 20.5762 108.01L72.5377 78.01C75.3057 79.606 77.8027 79.739 79.6087 78.664L27.6472 108.664Z" fill="#8BC5E4"/>
<path d="M20.5681 108.005C15.2247 104.92 10.8773 97.53 10.5742 91.175L62.5357 61.175C62.8388 67.53 67.1863 74.92 72.5296 78.005L20.5681 108.005Z" fill="#8BC5E4"/>
<path d="M13.2329 92.71C13.423 92.82 13.594 92.829 13.718 92.755L65.6795 62.755C65.5555 62.829 65.3845 62.82 65.1944 62.71L13.2329 92.71Z" fill="#8BC5E4"/>
<path d="M13.7158 92.7561C13.8398 92.6831 13.9158 92.5281 13.9168 92.3101L65.8783 62.3101C65.8773 62.5281 65.8013 62.6831 65.6773 62.7561L13.7158 92.7561Z" fill="#8BC5E4"/>
<path d="M13.917 92.3051C13.917 91.8651 13.6139 91.3301 13.2329 91.1101L65.1944 61.1101C65.5754 61.3301 65.8786 61.8651 65.8786 62.3051L13.917 92.3051Z" fill="#8BC5E4"/>
<path d="M10.5913 89.585C10.7645 87.0751 11.6565 85.23 13.0335 84.175L64.995 54.175C63.618 55.23 62.726 57.075 62.5528 59.585L10.5913 89.585Z" fill="#8BC5E4"/>
<path d="M14.8525 87.355C15.0257 87.655 15.2769 87.88 15.5107 87.945L67.4722 57.945C67.2384 57.88 66.9873 57.655 66.8141 57.355L14.8525 87.355Z" fill="#8BC5E4"/>
<path d="M15.5107 87.9451C15.6322 87.9751 15.7382 87.9641 15.8212 87.9141L67.7827 57.9141C67.6997 57.9641 67.5937 57.9751 67.4722 57.9451L15.5107 87.9451Z" fill="#8BC5E4"/>
<path d="M15.8188 87.9159C15.9018 87.8679 15.9628 87.7809 15.9938 87.6609L67.9553 57.6609C67.9244 57.7809 67.8633 57.8679 67.7803 57.9159L15.8188 87.9159Z" fill="#8BC5E4"/>
<path d="M15.9955 87.6549C16.0648 87.4149 15.9955 87.0849 15.8223 86.7849L67.7838 56.7849C67.957 57.0849 68.0263 57.4149 67.957 57.6549L15.9955 87.6549Z" fill="#8BC5E4"/>
<path d="M14.0034 83.6049C15.6402 82.8799 17.7447 83.0349 20.0656 84.2449L72.0271 54.2449C69.7062 53.0349 67.6017 52.8799 65.965 53.6049L14.0034 83.6049Z" fill="#8BC5E4"/>
<path d="M82.9478 136.82C85.6238 138.365 87.685 138.865 89.1139 138.3L141.075 108.3C139.646 108.865 137.585 108.365 134.909 106.82L82.9478 136.82Z" fill="#8BC5E4"/>
<path d="M89.1138 138.3C89.2378 138.251 89.3558 138.195 89.4688 138.131L141.43 108.131C141.317 108.195 141.199 108.251 141.075 108.3L89.1138 138.3Z" fill="#8BC5E4"/>
<path d="M89.4692 138.131C90.6702 137.452 91.2782 135.93 91.2792 133.558L143.241 103.558C143.24 105.93 142.632 107.452 141.431 108.131L89.4692 138.131Z" fill="#8BC5E4"/>
<path d="M91.2789 133.55C91.2789 130.97 90.5514 128.56 89.1138 126.34L141.075 96.3401C142.513 98.5601 143.24 100.97 143.24 103.55L91.2789 133.55Z" fill="#8BC5E4"/>
<path d="M89.1139 126.34C87.685 124.115 85.6238 122.225 82.9478 120.68L134.909 90.6799C137.585 92.2249 139.646 94.1149 141.075 96.3399L89.1139 126.34Z" fill="#8BC5E4"/>
<path d="M82.3677 124.965C83.4242 125.575 84.2383 126.345 84.8099 127.265L136.771 97.2651C136.2 96.3451 135.386 95.5751 134.329 94.9651L82.3677 124.965Z" fill="#8BC5E4"/>
<path d="M84.8101 127.265C85.3816 128.195 85.6674 129.21 85.6674 130.31L137.629 100.31C137.629 99.2099 137.343 98.1949 136.772 97.2649L84.8101 127.265Z" fill="#8BC5E4"/>
<path d="M85.6672 130.31C85.667 131.333 85.424 131.995 84.939 132.312L136.9 102.312C137.385 101.995 137.628 101.333 137.629 100.31L85.6672 130.31Z" fill="#8BC5E4"/>
<path d="M84.9319 132.317C84.8949 132.34 84.8569 132.362 84.8169 132.382L136.778 102.382C136.818 102.362 136.856 102.34 136.893 102.317L84.9319 132.317Z" fill="#8BC5E4"/>
<path d="M84.8099 132.385C84.2383 132.655 83.4242 132.485 82.3677 131.875L134.329 101.875C135.386 102.485 136.2 102.655 136.771 102.385L84.8099 132.385Z" fill="#8BC5E4"/>
<path d="M20.6635 100.14C20.1431 99.84 19.6741 99.811 19.3311 100.006L71.2926 70.006C71.6356 69.811 72.1046 69.84 72.625 70.14L20.6635 100.14Z" fill="#8BC5E4"/>
<path d="M19.3328 100.004C18.9788 100.204 18.7598 100.641 18.7578 101.263L70.7193 71.2629C70.7213 70.6409 70.9403 70.2039 71.2943 70.0039L19.3328 100.004Z" fill="#8BC5E4"/>
<path d="M18.7583 101.27C18.7583 102.51 19.607 104 20.6636 104.61L72.6251 74.61C71.5685 74 70.7198 72.51 70.7198 71.27L18.7583 101.27Z" fill="#8BC5E4"/>
<path d="M20.6636 104.61C21.1792 104.908 21.6492 104.937 21.9932 104.741L73.9547 74.7411C73.6107 74.9371 73.1407 74.9081 72.6251 74.6101L20.6636 104.61Z" fill="#8BC5E4"/>
<path d="M21.9912 104.743C22.3452 104.542 22.5672 104.104 22.5692 103.477L74.5307 73.4771C74.5287 74.1041 74.3067 74.5421 73.9527 74.7431L21.9912 104.743Z" fill="#8BC5E4"/>
<path d="M22.5688 103.47C22.5688 103.12 22.4995 102.74 22.3696 102.355L74.3312 72.355C74.4611 72.74 74.5303 73.12 74.5303 73.47L22.5688 103.47Z" fill="#8BC5E4"/>
<path d="M18.1866 101.49C17.1214 101.175 16.0476 101.335 15.0776 101.425L67.0391 71.4251C68.0091 71.3351 69.0829 71.1751 70.1482 71.4901L18.1866 101.49Z" fill="#8BC5E4"/>
<path d="M15.0776 101.425C16.3766 103.185 17.9961 105.33 20.4383 106.74L72.3998 76.74C69.9576 75.33 68.3382 73.185 67.0391 71.425L15.0776 101.425Z" fill="#8BC5E4"/>
<path d="M20.438 106.74C23.0274 108.235 24.8028 108.23 26.3616 108.03L78.3231 78.03C76.7643 78.23 74.9889 78.235 72.3995 76.74L20.438 106.74Z" fill="#8BC5E4"/>
<path d="M26.3619 108.03C25.3227 106.8 24.2835 105.32 23.123 104.35L75.0845 74.3501C76.245 75.3201 77.2842 76.8001 78.3234 78.0301L26.3619 108.03Z" fill="#8BC5E4"/>
<path d="M23.123 104.35C23.0441 104.862 22.7981 105.221 22.4561 105.424L74.4176 75.4241C74.7596 75.2211 75.0056 74.8621 75.0845 74.3501L23.123 104.35Z" fill="#8BC5E4"/>
<path d="M22.4481 105.428C21.9331 105.729 21.2051 105.68 20.4971 105.274L72.4586 75.2739C73.1666 75.6799 73.8946 75.7289 74.4096 75.4279L22.4481 105.428Z" fill="#8BC5E4"/>
<path d="M20.4902 105.27C19.4683 104.68 18.2645 103.025 18.1865 101.49L70.1481 71.49C70.226 73.025 71.4298 74.68 72.4517 75.27L20.4902 105.27Z" fill="#8BC5E4"/>
<path d="M86.585 187.23C96.7435 193.095 104.953 207.465 104.953 219.385L156.915 189.385C156.915 177.465 148.705 163.095 138.546 157.23L86.585 187.23Z" fill="#8BC5E4"/>
<path d="M104.953 219.385C104.954 225.433 102.836 229.671 99.4219 231.609L151.383 201.609C154.797 199.671 156.915 195.433 156.915 189.385L104.953 219.385Z" fill="#8BC5E4"/>
<path d="M99.4248 231.608C96.1168 233.487 91.5908 233.208 86.5928 230.324L138.554 200.324C143.552 203.208 148.078 203.487 151.386 201.608L99.4248 231.608Z" fill="#8BC5E4"/>
<path d="M86.585 230.32C76.4265 224.455 68.208 210.08 68.208 198.17L120.17 168.17C120.17 180.08 128.388 194.455 138.547 200.32L86.585 230.32Z" fill="#8BC5E4"/>
<path d="M68.208 198.17C68.2078 192.117 70.3278 187.878 73.7438 185.94L125.705 155.94C122.289 157.878 120.169 162.117 120.17 168.17L68.208 198.17Z" fill="#8BC5E4"/>
<path d="M73.7422 185.941C77.0522 184.062 81.5802 184.342 86.5782 187.226L138.54 157.226C133.542 154.342 129.014 154.062 125.704 155.941L73.7422 185.941Z" fill="#8BC5E4"/>
<path d="M84.4549 192.36C84.0911 192.15 83.7471 192.12 83.4951 192.27L135.457 162.27C135.709 162.12 136.053 162.15 136.416 162.36L84.4549 192.36Z" fill="#8BC5E4"/>
<path d="M83.4978 192.268C83.4138 192.318 83.3408 192.387 83.2798 192.476L135.241 162.476C135.302 162.387 135.375 162.318 135.459 162.268L83.4978 192.268Z" fill="#8BC5E4"/>
<path d="M83.2772 192.48C83.0261 192.825 83.0261 193.435 83.2772 194.08L135.239 164.08C134.988 163.435 134.988 162.825 135.239 162.48L83.2772 192.48Z" fill="#8BC5E4"/>
<path d="M83.2769 194.08C83.5194 194.71 83.9697 195.28 84.4547 195.56L136.416 165.56C135.931 165.28 135.481 164.71 135.238 164.08L83.2769 194.08Z" fill="#8BC5E4"/>
<path d="M85.0611 198.1C82.6961 197.116 80.5691 197.158 78.9341 198.075L130.896 168.075C132.531 167.158 134.658 167.116 137.023 168.1L85.0611 198.1Z" fill="#8BC5E4"/>
<path d="M78.936 198.073C76.884 199.223 75.606 201.751 75.604 205.36L127.566 175.36C127.568 171.751 128.846 169.223 130.898 168.073L78.936 198.073Z" fill="#8BC5E4"/>
<path d="M75.604 205.37C75.604 212.46 80.523 221.08 86.5679 224.57L138.529 194.57C132.485 191.08 127.566 182.46 127.566 175.37L75.604 205.37Z" fill="#8BC5E4"/>
<path d="M86.5679 224.57C89.543 226.288 92.246 226.448 94.223 225.322L146.184 195.322C144.207 196.448 141.504 196.288 138.529 194.57L86.5679 224.57Z" fill="#8BC5E4"/>
<path d="M94.2212 225.323C96.2622 224.162 97.5302 221.633 97.5322 218.035L149.494 188.035C149.492 191.633 148.224 194.162 146.183 195.323L94.2212 225.323Z" fill="#8BC5E4"/>
<path d="M97.532 218.03C97.532 211.43 93.2625 203.505 87.7979 199.63L139.759 169.63C145.224 173.505 149.493 181.43 149.493 188.03L97.532 218.03Z" fill="#8BC5E4"/>
<path d="M88.5684 197.935C88.932 198.145 89.276 198.169 89.532 198.023L141.493 168.023C141.237 168.169 140.893 168.145 140.53 167.935L88.5684 197.935Z" fill="#8BC5E4"/>
<path d="M89.5259 198.026C89.6109 197.979 89.6859 197.913 89.7489 197.828L141.71 167.828C141.647 167.913 141.572 167.979 141.487 168.026L89.5259 198.026Z" fill="#8BC5E4"/>
<path d="M89.7549 197.82C89.9974 197.46 89.9974 196.85 89.7549 196.22L141.716 166.22C141.959 166.85 141.959 167.46 141.716 167.82L89.7549 197.82Z" fill="#8BC5E4"/>
<path d="M89.7549 196.22C89.5037 195.575 89.0534 195.015 88.5684 194.735L140.53 164.735C141.015 165.015 141.465 165.575 141.716 166.22L89.7549 196.22Z" fill="#8BC5E4"/>
<path d="M86.5679 201.51C91.383 204.29 95.2541 211.075 95.2541 216.715L147.216 186.715C147.216 181.075 143.344 174.29 138.529 171.51L86.5679 201.51Z" fill="#8BC5E4"/>
<path d="M95.2542 216.715C95.2541 219.584 94.2561 221.593 92.6431 222.512L144.605 192.512C146.218 191.593 147.216 189.584 147.216 186.715L95.2542 216.715Z" fill="#8BC5E4"/>
<path d="M92.6452 222.511C91.0832 223.402 88.9432 223.269 86.5752 221.904L138.537 191.904C140.905 193.269 143.045 193.402 144.607 192.511L92.6452 222.511Z" fill="#8BC5E4"/>
<path d="M86.568 221.9C81.7529 219.12 77.8818 212.335 77.8818 206.685L129.843 176.685C129.843 182.335 133.714 189.12 138.53 191.9L86.568 221.9Z" fill="#8BC5E4"/>
<path d="M77.8818 206.685C77.8821 203.821 78.8801 201.814 80.4931 200.897L132.455 170.897C130.842 171.814 129.844 173.821 129.843 176.685L77.8818 206.685Z" fill="#8BC5E4"/>
<path d="M80.4912 200.898C82.0532 200.008 84.1932 200.141 86.5612 201.506L138.523 171.506C136.155 170.141 134.015 170.008 132.453 170.898L80.4912 200.898Z" fill="#8BC5E4"/>
<path d="M86.9401 210.285C86.6023 210.1 86.2819 210.065 86.0654 210.13L138.027 180.13C138.243 180.065 138.564 180.1 138.902 180.285L86.9401 210.285Z" fill="#8BC5E4"/>
<path d="M86.0658 210.13C86.0162 210.147 85.9712 210.168 85.9292 210.192L137.891 180.192C137.933 180.168 137.978 180.147 138.027 180.13L86.0658 210.13Z" fill="#8BC5E4"/>
<path d="M85.9229 210.196C85.9079 210.204 85.8949 210.214 85.8809 210.223L137.842 180.223C137.856 180.214 137.869 180.204 137.884 180.196L85.9229 210.196Z" fill="#8BC5E4"/>
<path d="M85.8809 210.223C85.4409 210.535 85.4889 211.311 85.9409 212.115L137.902 182.115C137.45 181.311 137.402 180.535 137.842 180.223L85.8809 210.223Z" fill="#8BC5E4"/>
<path d="M88.0835 211.655C87.8151 210.95 87.3647 210.51 86.9404 210.285L138.902 180.285C139.326 180.51 139.777 180.95 140.045 181.655L88.0835 211.655Z" fill="#8BC5E4"/>
<path d="M137.923 147.19C137.655 147.352 137.394 147.526 137.14 147.713L189.102 117.713C189.356 117.526 189.617 117.352 189.885 117.19L137.923 147.19Z" fill="#8BC5E4"/>
<path d="M137.141 147.713C133.89 150.114 131.915 154.606 131.913 160.78L183.875 130.78C183.877 124.606 185.852 120.114 189.103 117.713L137.141 147.713Z" fill="#8BC5E4"/>
<path d="M131.913 160.79C131.913 167.46 134.217 174.83 137.941 181.36L189.902 151.36C186.178 144.83 183.875 137.46 183.875 130.79L131.913 160.79Z" fill="#8BC5E4"/>
<path d="M102.468 202.48C98.6747 194.95 92.9676 188.245 86.585 184.56L138.546 154.56C144.929 158.245 150.636 164.95 154.429 172.48L102.468 202.48Z" fill="#8BC5E4"/>
<path d="M86.5854 184.56C80.9462 181.304 75.8282 181.011 72.0972 183.168L124.059 153.168C127.79 151.011 132.908 151.304 138.547 154.56L86.5854 184.56Z" fill="#8BC5E4"/>
<path d="M72.1018 183.165C71.6168 183.446 71.1538 183.768 70.7168 184.13L122.678 154.13C123.115 153.768 123.578 153.446 124.063 153.165L72.1018 183.165Z" fill="#8BC5E4"/>
<path d="M35.1865 122.125C35.4589 121.965 35.7239 121.792 35.9809 121.606L87.9424 91.606C87.6854 91.792 87.4204 91.965 87.148 92.125L35.1865 122.125Z" fill="#8BC5E4"/>
<path d="M35.98 121.606C39.278 119.218 41.29 114.7 41.292 108.48L93.2535 78.48C93.2515 84.7 91.2395 89.218 87.9415 91.606L35.98 121.606Z" fill="#8BC5E4"/>
<path d="M41.292 108.47C41.292 101.8 38.9884 94.4201 35.2471 87.8701L87.2087 57.8701C90.9499 64.4201 93.2535 71.8001 93.2535 78.4701L41.292 108.47Z" fill="#8BC5E4"/>
<path d="M72.0708 66.04C75.8034 72.525 80.9303 78.155 86.5854 81.42L138.547 51.42C132.892 48.155 127.765 42.525 124.032 36.04L72.0708 66.04Z" fill="#8BC5E4"/>
<path d="M86.585 81.4199C91.8428 84.4549 96.6438 84.9199 100.292 83.2219L152.253 53.2219C148.605 54.9199 143.804 54.4549 138.546 51.4199L86.585 81.4199Z" fill="#8BC5E4"/>
<path d="M100.286 83.224C100.562 83.096 100.832 82.956 101.094 82.803L153.056 52.803C152.794 52.956 152.524 53.096 152.248 53.224L100.286 83.224Z" fill="#8BC5E4"/>
<path d="M105.534 136.73C105.69 136.645 105.851 136.569 106.016 136.502L157.977 106.502C157.812 106.569 157.651 106.645 157.495 106.73L105.534 136.73Z" fill="#8BC5E4"/>
<path d="M106.015 136.503C108.013 135.693 110.632 136.214 113.877 138.087L165.839 108.087C162.594 106.214 159.975 105.693 157.977 106.503L106.015 136.503Z" fill="#8BC5E4"/>
<path d="M113.882 138.09C115.06 138.77 116.186 139.58 117.269 140.505L169.23 110.505C168.148 109.58 167.022 108.77 165.844 108.09L113.882 138.09Z" fill="#8BC5E4"/>
<path d="M117.269 140.505C118.351 141.44 119.39 142.5 120.386 143.685L172.348 113.685C171.352 112.5 170.313 111.44 169.23 110.505L117.269 140.505Z" fill="#8BC5E4"/>
<path d="M120.386 148.805C119.382 147.415 118.394 146.255 117.407 145.305L169.369 115.305C170.356 116.255 171.343 117.415 172.348 118.805L120.386 148.805Z" fill="#8BC5E4"/>
<path d="M117.407 145.305C116.429 144.37 115.398 143.585 114.315 142.96L166.277 112.96C167.359 113.585 168.39 114.37 169.369 115.305L117.407 145.305Z" fill="#8BC5E4"/>
<path d="M114.315 142.96C112.512 141.919 111.068 141.716 109.983 142.351L161.944 112.351C163.029 111.716 164.473 111.919 166.277 112.96L114.315 142.96Z" fill="#8BC5E4"/>
<path d="M109.989 142.348C109.907 142.395 109.827 142.448 109.749 142.505L161.711 112.505C161.789 112.448 161.869 112.395 161.951 112.348L109.989 142.348Z" fill="#8BC5E4"/>
<path d="M109.743 142.51C108.634 143.32 108.08 145.01 108.08 147.57L160.042 117.57C160.042 115.01 160.596 113.32 161.704 112.51L109.743 142.51Z" fill="#8BC5E4"/>
<path d="M108.08 147.57C108.08 150.13 108.634 152.45 109.743 154.55L161.704 124.55C160.596 122.45 160.042 120.13 160.042 117.57L108.08 147.57Z" fill="#8BC5E4"/>
<path d="M109.743 154.55C110.851 156.64 112.375 158.25 114.315 159.37L166.277 129.37C164.337 128.25 162.813 126.64 161.704 124.55L109.743 154.55Z" fill="#8BC5E4"/>
<path d="M114.315 159.37C115.398 159.995 116.429 160.4 117.407 160.595L169.369 130.595C168.39 130.4 167.359 129.995 166.277 129.37L114.315 159.37Z" fill="#8BC5E4"/>
<path d="M117.407 160.595C118.394 160.795 119.382 160.775 120.386 160.545L172.348 130.545C171.343 130.775 170.356 130.795 169.369 130.595L117.407 160.595Z" fill="#8BC5E4"/>
<path d="M120.386 165.665C119.39 165.69 118.351 165.55 117.269 165.235L169.23 135.235C170.313 135.55 171.352 135.69 172.348 135.665L120.386 165.665Z" fill="#8BC5E4"/>
<path d="M117.269 165.235C116.186 164.92 115.06 164.43 113.882 163.75L165.844 133.75C167.022 134.43 168.148 134.92 169.23 135.235L117.269 165.235Z" fill="#8BC5E4"/>
<path d="M113.882 163.75C110.366 161.72 107.586 158.955 105.534 155.48L157.495 125.48C159.548 128.955 162.328 131.72 165.844 133.75L113.882 163.75Z" fill="#8BC5E4"/>
<path d="M105.534 155.48C103.481 151.985 102.459 148.275 102.459 144.325L154.421 114.325C154.421 118.275 155.443 121.985 157.495 125.48L105.534 155.48Z" fill="#8BC5E4"/>
<path d="M102.459 144.325C102.459 140.668 103.335 138.228 105.094 137.002L157.055 107.002C155.296 108.228 154.42 110.668 154.421 114.325L102.459 144.325Z" fill="#8BC5E4"/>
<path d="M105.089 137.005C105.23 136.907 105.376 136.816 105.528 136.733L157.489 106.733C157.337 106.816 157.191 106.907 157.05 107.005L105.089 137.005Z" fill="#8BC5E4"/>
<path d="M82.9478 120.68C85.6238 122.225 87.685 124.115 89.1139 126.34L141.075 96.3399C139.646 94.1149 137.585 92.2249 134.909 90.6799L82.9478 120.68Z" fill="#8BC5E4"/>
<path d="M89.1138 126.34C90.5514 128.56 91.2789 130.97 91.2789 133.55L143.24 103.55C143.24 100.97 142.513 98.5601 141.075 96.3401L89.1138 126.34Z" fill="#8BC5E4"/>
<path d="M91.2793 133.55C91.2792 135.927 90.6712 137.451 89.4692 138.131L141.431 108.131C142.633 107.451 143.241 105.927 143.241 103.55L91.2793 133.55Z" fill="#8BC5E4"/>
<path d="M89.4601 138.136C89.3521 138.196 89.2391 138.25 89.1221 138.297L141.084 108.297C141.201 108.25 141.314 108.196 141.422 108.136L89.4601 138.136Z" fill="#8BC5E4"/>
<path d="M89.1139 138.3C87.685 138.865 85.6238 138.365 82.9478 136.82L134.909 106.82C137.585 108.365 139.646 108.865 141.075 108.3L89.1139 138.3Z" fill="#8BC5E4"/>
<path d="M82.3677 124.965C83.4242 125.575 84.2383 126.345 84.8099 127.265L136.771 97.2651C136.2 96.3451 135.386 95.5751 134.329 94.9651L82.3677 124.965Z" fill="#8BC5E4"/>
<path d="M84.8101 127.265C85.3816 128.195 85.6674 129.21 85.6674 130.31L137.629 100.31C137.629 99.2099 137.343 98.1949 136.772 97.2649L84.8101 127.265Z" fill="#8BC5E4"/>
<path d="M85.6672 130.31C85.667 131.333 85.424 131.995 84.939 132.312L136.9 102.312C137.385 101.995 137.628 101.333 137.629 100.31L85.6672 130.31Z" fill="#8BC5E4"/>
<path d="M84.9319 132.317C84.8949 132.34 84.8569 132.362 84.8169 132.382L136.778 102.382C136.818 102.362 136.856 102.34 136.893 102.317L84.9319 132.317Z" fill="#8BC5E4"/>
<path d="M84.8099 132.385C84.2383 132.655 83.4242 132.485 82.3677 131.875L134.329 101.875C135.386 102.485 136.2 102.655 136.771 102.385L84.8099 132.385Z" fill="#8BC5E4"/>
<path d="M152.559 151.16C162.718 157.025 170.927 171.405 170.927 183.315L222.889 153.315C222.889 141.405 214.679 127.025 204.521 121.16L152.559 151.16Z" fill="#8BC5E4"/>
<path d="M170.927 183.315C170.927 189.368 168.81 193.608 165.396 195.548L217.357 165.548C220.771 163.608 222.888 159.368 222.889 153.315L170.927 183.315Z" fill="#8BC5E4"/>
<path d="M165.398 195.547C162.091 197.427 157.565 197.148 152.566 194.264L204.527 164.264C209.526 167.148 214.052 167.427 217.359 165.547L165.398 195.547Z" fill="#8BC5E4"/>
<path d="M152.559 194.26C142.4 188.395 134.19 174.025 134.19 162.105L186.152 132.105C186.152 144.025 194.362 158.395 204.52 164.26L152.559 194.26Z" fill="#8BC5E4"/>
<path d="M134.19 162.105C134.191 156.057 136.308 151.817 139.722 149.876L191.683 119.876C188.269 121.817 186.152 126.057 186.152 132.105L134.19 162.105Z" fill="#8BC5E4"/>
<path d="M139.72 149.877C143.028 147.995 147.554 148.272 152.552 151.156L204.514 121.156C199.516 118.272 194.99 117.995 191.682 119.877L139.72 149.877Z" fill="#8BC5E4"/>
<path d="M146.194 159.665C146.194 158.089 146.814 156.862 147.881 156.256L199.843 126.256C198.776 126.862 198.156 128.089 198.155 129.665L146.194 159.665Z" fill="#8BC5E4"/>
<path d="M147.88 156.258C149.033 155.603 150.709 155.674 152.692 156.817L204.653 126.817C202.67 125.674 200.994 125.603 199.841 126.258L147.88 156.258Z" fill="#8BC5E4"/>
<path d="M152.698 156.82C154.421 157.815 156.006 159.61 157.192 161.515L209.154 131.515C207.967 129.61 206.383 127.815 204.659 126.82L152.698 156.82Z" fill="#8BC5E4"/>
<path d="M157.192 161.515C158.37 163.415 159.21 165.49 159.21 167.18L211.172 137.18C211.172 135.49 210.332 133.415 209.154 131.515L157.192 161.515Z" fill="#8BC5E4"/>
<path d="M152.698 158.95C153.876 159.63 155.088 160.98 155.98 162.425L207.942 132.425C207.05 130.98 205.837 129.63 204.659 128.95L152.698 158.95Z" fill="#8BC5E4"/>
<path d="M155.98 162.425C156.881 163.865 157.392 165.35 157.392 166.13L209.353 136.13C209.353 135.35 208.842 133.865 207.942 132.425L155.98 162.425Z" fill="#8BC5E4"/>
<path d="M148.021 160.72C148.021 159.838 148.438 159.003 149.197 158.565L201.158 128.565C200.399 129.003 199.982 129.838 199.982 130.72L148.021 160.72Z" fill="#8BC5E4"/>
<path d="M149.195 158.567C150.001 158.101 151.196 158.085 152.689 158.945L204.65 128.945C203.157 128.085 201.962 128.101 201.156 128.567L149.195 158.567Z" fill="#8BC5E4"/>
<path d="M86.585 35.6599C96.7435 41.5249 104.953 55.8949 104.953 67.8149L156.915 37.8149C156.915 25.8949 148.705 11.5249 138.546 5.65991L86.585 35.6599Z" fill="#8BC5E4"/>
<path d="M104.953 67.8149C104.954 73.8629 102.836 78.1009 99.4219 80.0389L151.383 50.0389C154.797 48.1009 156.915 43.8629 156.915 37.8149L104.953 67.8149Z" fill="#8BC5E4"/>
<path d="M99.4248 80.0379C96.1168 81.9169 91.5908 81.6379 86.5928 78.7539L138.554 48.7539C143.552 51.6379 148.078 51.9169 151.386 50.0379L99.4248 80.0379Z" fill="#8BC5E4"/>
<path d="M86.5852 78.75C76.4267 72.885 68.2168 58.515 68.2168 46.605L120.178 16.605C120.178 28.515 128.388 42.885 138.547 48.75L86.5852 78.75Z" fill="#8BC5E4"/>
<path d="M68.2168 46.6051C68.217 40.5521 70.334 36.3121 73.748 34.3721L125.709 4.37207C122.295 6.31207 120.178 10.5521 120.178 16.6051L68.2168 46.6051Z" fill="#8BC5E4"/>
<path d="M73.7461 34.3729C77.0541 32.493 81.5801 32.7719 86.5781 35.6559L138.54 5.65595C133.542 2.77195 129.016 2.49295 125.708 4.37295L73.7461 34.3729Z" fill="#8BC5E4"/>
<path d="M80.7051 49.2451C80.7052 47.5721 81.3052 46.3841 82.2792 45.7991L134.241 15.7991C133.267 16.3841 132.667 17.5721 132.667 19.2451L80.7051 49.2451Z" fill="#8BC5E4"/>
<path d="M82.2891 45.7929C83.3571 45.1569 84.8721 45.2419 86.5371 46.2019L138.499 16.2019C136.834 15.2419 135.319 15.1569 134.251 15.7929L82.2891 45.7929Z" fill="#8BC5E4"/>
<path d="M86.542 46.2051C89.9628 48.1801 92.405 52.5101 92.405 56.3201L144.366 26.3201C144.366 22.5101 141.924 18.1801 138.503 16.2051L86.542 46.2051Z" fill="#8BC5E4"/>
<path d="M92.4049 56.3201C92.405 58.2131 91.686 59.3681 90.689 59.9471L142.65 29.9471C143.647 29.3681 144.366 28.2131 144.366 26.3201L92.4049 56.3201Z" fill="#8BC5E4"/>
<path d="M90.6941 59.9441C90.3131 60.1671 89.8901 60.3051 89.4521 60.3691L141.414 30.3691C141.852 30.3051 142.275 30.1671 142.656 29.9441L90.6941 59.9441Z" fill="#8BC5E4"/>
<path d="M89.4429 60.3701C94.5611 64.9751 96.1719 70.8451 96.1719 74.5851L148.133 44.5851C148.133 40.8451 146.523 34.9751 141.404 30.3701L89.4429 60.3701Z" fill="#8BC5E4"/>
<path d="M76.8164 63.4099C76.8159 60.6309 77.7339 58.5129 79.4609 57.5129L131.422 27.5129C129.695 28.5129 128.777 30.6309 128.778 33.4099L76.8164 63.4099Z" fill="#8BC5E4"/>
<path d="M79.459 57.5141C80.583 56.8621 82.051 56.6831 83.833 57.1031L135.794 27.1031C134.012 26.6831 132.544 26.8621 131.42 27.5141L79.459 57.5141Z" fill="#8BC5E4"/>
<path d="M83.8401 57.1051C82.2466 54.7651 80.7051 51.9951 80.7051 49.2451L132.667 19.2451C132.667 21.9951 134.208 24.7651 135.802 27.1051L83.8401 57.1051Z" fill="#8BC5E4"/>
<path d="M20.646 75C30.8045 80.865 39.0231 95.25 39.0231 107.16L90.9846 77.16C90.9846 65.25 82.766 50.865 72.6076 45L20.646 75Z" fill="#8BC5E4"/>
<path d="M39.0229 107.16C39.0228 113.213 36.9038 117.452 33.4868 119.39L85.4483 89.3899C88.8653 87.4519 90.9843 83.2129 90.9844 77.1599L39.0229 107.16Z" fill="#8BC5E4"/>
<path d="M33.4898 119.389C30.1798 121.268 25.6518 120.988 20.6528 118.104L72.6143 88.104C77.6133 90.988 82.1413 91.268 85.4513 89.389L33.4898 119.389Z" fill="#8BC5E4"/>
<path d="M20.6462 118.1C10.4878 112.235 2.27783 97.8651 2.27783 85.9451L54.2394 55.9451C54.2394 67.8651 62.4493 82.2351 72.6078 88.1001L20.6462 118.1Z" fill="#8BC5E4"/>
<path d="M2.27783 85.9451C2.27823 79.8971 4.39523 75.6571 7.80923 73.7161L59.7707 43.7161C56.3567 45.6571 54.2397 49.8971 54.2394 55.9451L2.27783 85.9451Z" fill="#8BC5E4"/>
<path d="M7.80713 73.7171C11.1151 71.8351 15.6411 72.1121 20.6391 74.9961L72.6006 44.9961C67.6026 42.1121 63.0766 41.8351 59.7686 43.7171L7.80713 73.7171Z" fill="#8BC5E4"/>
<path d="M8.73828 89.435C8.73808 85.55 10.1071 82.822 12.3091 81.571L64.2706 51.571C62.0686 52.822 60.6996 55.55 60.6998 59.435L8.73828 89.435Z" fill="#8BC5E4"/>
<path d="M12.3071 81.5719C14.4401 80.3579 17.3541 80.5309 20.5631 82.3819L72.5246 52.3819C69.3156 50.5309 66.4016 50.3579 64.2686 51.5719L12.3071 81.5719Z" fill="#8BC5E4"/>
<path d="M20.5679 82.385C27.0977 86.155 32.4065 95.45 32.4065 103.1L84.368 73.1C84.368 65.45 79.0593 56.155 72.5294 52.385L20.5679 82.385Z" fill="#8BC5E4"/>
<path d="M32.4067 103.1C32.407 106.985 31.038 109.713 28.835 110.964L80.7965 80.9641C82.9995 79.7131 84.3685 76.9851 84.3682 73.1001L32.4067 103.1Z" fill="#8BC5E4"/>
<path d="M28.8372 110.963C26.7032 112.175 23.7862 112.001 20.5732 110.148L72.5347 80.1479C75.7477 82.0009 78.6647 82.1749 80.7987 80.9629L28.8372 110.963Z" fill="#8BC5E4"/>
<path d="M20.5682 110.145C14.047 106.38 8.73828 97.0851 8.73828 89.4351L60.6998 59.4351C60.6998 67.0851 66.0086 76.3801 72.5297 80.1451L20.5682 110.145Z" fill="#8BC5E4"/>
<path d="M20.0659 87.395C20.0659 87.835 20.369 88.37 20.7414 88.585L72.7029 58.585C72.3305 58.37 72.0274 57.835 72.0274 57.395L20.0659 87.395Z" fill="#8BC5E4"/>
<path d="M20.7412 88.585C20.9319 88.695 21.1029 88.704 21.2259 88.63L73.1874 58.63C73.0644 58.704 72.8934 58.695 72.7027 58.585L20.7412 88.585Z" fill="#8BC5E4"/>
<path d="M21.2251 88.6311C21.3481 88.5581 21.4241 88.4031 21.4251 88.1851L73.3866 58.1851C73.3856 58.4031 73.3096 58.5581 73.1866 58.6311L21.2251 88.6311Z" fill="#8BC5E4"/>
<path d="M21.4253 85.0601C23.625 86.5501 25.6168 88.7401 27.1757 91.2501L79.1372 61.2501C77.5784 58.7401 75.5865 56.5501 73.3868 55.0601L21.4253 85.0601Z" fill="#8BC5E4"/>
<path d="M25.4005 92.3149C25.1321 92.4699 25.1321 92.9799 25.4005 93.4449L77.362 63.4449C77.0936 62.9799 77.0936 62.4699 77.362 62.3149L25.4005 92.3149Z" fill="#8BC5E4"/>
<path d="M25.4004 93.4451C25.6689 93.9101 26.1019 94.1601 26.3704 94.0051L78.3319 64.0051C78.0634 64.1601 77.6304 63.9101 77.3619 63.4451L25.4004 93.4451Z" fill="#8BC5E4"/>
<path d="M28.1372 92.9451C29.5055 95.5751 30.3802 98.4201 30.5534 101.11L82.5149 71.1101C82.3417 68.4201 81.467 65.5751 80.0987 62.9451L28.1372 92.9451Z" fill="#8BC5E4"/>
<path d="M28.2583 99.7849C28.0679 99.6749 27.8969 99.6659 27.7729 99.7399L79.7344 69.7399C79.8584 69.6659 80.0294 69.6749 80.2198 69.7849L28.2583 99.7849Z" fill="#8BC5E4"/>
<path d="M27.7752 99.739C27.6522 99.812 27.5762 99.967 27.5742 100.185L79.5357 70.185C79.5377 69.967 79.6137 69.812 79.7367 69.739L27.7752 99.739Z" fill="#8BC5E4"/>
<path d="M27.5742 100.19C27.5742 100.63 27.8774 101.165 28.2584 101.385L80.2199 71.3849C79.8389 71.1649 79.5358 70.6299 79.5358 70.1899L27.5742 100.19Z" fill="#8BC5E4"/>
<path d="M30.5618 102.715C30.4158 105.606 29.3348 107.656 27.6548 108.659L79.6163 78.6591C81.2963 77.6561 82.3773 75.6061 82.5234 72.7151L30.5618 102.715Z" fill="#8BC5E4"/>
<path d="M27.6472 108.664C25.8412 109.739 23.3442 109.606 20.5762 108.01L72.5377 78.01C75.3057 79.606 77.8027 79.739 79.6087 78.664L27.6472 108.664Z" fill="#8BC5E4"/>
<path d="M20.5681 108.005C15.2247 104.92 10.8773 97.53 10.5742 91.175L62.5357 61.175C62.8388 67.53 67.1863 74.92 72.5296 78.005L20.5681 108.005Z" fill="#8BC5E4"/>
<path d="M13.2329 92.71C13.423 92.82 13.594 92.829 13.718 92.755L65.6795 62.755C65.5555 62.829 65.3845 62.82 65.1944 62.71L13.2329 92.71Z" fill="#8BC5E4"/>
<path d="M13.7158 92.7561C13.8398 92.6831 13.9158 92.5281 13.9168 92.3101L65.8783 62.3101C65.8773 62.5281 65.8013 62.6831 65.6773 62.7561L13.7158 92.7561Z" fill="#8BC5E4"/>
<path d="M13.917 92.3051C13.917 91.8651 13.6139 91.3301 13.2329 91.1101L65.1944 61.1101C65.5754 61.3301 65.8786 61.8651 65.8786 62.3051L13.917 92.3051Z" fill="#8BC5E4"/>
<path d="M10.5913 89.585C10.7645 87.0751 11.6565 85.23 13.0335 84.175L64.995 54.175C63.618 55.23 62.726 57.075 62.5528 59.585L10.5913 89.585Z" fill="#8BC5E4"/>
<path d="M14.8525 87.355C15.0257 87.655 15.2769 87.88 15.5107 87.945L67.4722 57.945C67.2384 57.88 66.9873 57.655 66.8141 57.355L14.8525 87.355Z" fill="#8BC5E4"/>
<path d="M15.5107 87.9451C15.6322 87.9751 15.7382 87.9641 15.8212 87.9141L67.7827 57.9141C67.6997 57.9641 67.5937 57.9751 67.4722 57.9451L15.5107 87.9451Z" fill="#8BC5E4"/>
<path d="M15.8188 87.9159C15.9018 87.8679 15.9628 87.7809 15.9938 87.6609L67.9553 57.6609C67.9244 57.7809 67.8633 57.8679 67.7803 57.9159L15.8188 87.9159Z" fill="#8BC5E4"/>
<path d="M15.9955 87.6549C16.0648 87.4149 15.9955 87.0849 15.8223 86.7849L67.7838 56.7849C67.957 57.0849 68.0263 57.4149 67.957 57.6549L15.9955 87.6549Z" fill="#8BC5E4"/>
<path d="M14.0034 83.6049C15.6402 82.8799 17.7447 83.0349 20.0656 84.2449L72.0271 54.2449C69.7062 53.0349 67.6017 52.8799 65.965 53.6049L14.0034 83.6049Z" fill="#8BC5E4"/>
<path d="M22.3696 102.355C22.4995 102.74 22.5688 103.12 22.5688 103.47L74.5303 73.47C74.5303 73.12 74.4611 72.74 74.3312 72.355L22.3696 102.355Z" fill="#8BC5E4"/>
<path d="M22.5688 103.47C22.5692 104.1 22.3482 104.54 21.9932 104.741L73.9547 74.741C74.3097 74.54 74.5307 74.1 74.5303 73.47L22.5688 103.47Z" fill="#8BC5E4"/>
<path d="M21.9949 104.74C21.6519 104.936 21.1839 104.909 20.6699 104.614L72.6314 74.614C73.1454 74.909 73.6134 74.936 73.9564 74.74L21.9949 104.74Z" fill="#8BC5E4"/>
<path d="M20.6636 104.61C19.607 104 18.7583 102.51 18.7583 101.27L70.7198 71.27C70.7198 72.51 71.5685 74 72.6251 74.61L20.6636 104.61Z" fill="#8BC5E4"/>
<path d="M18.7583 101.27C18.7582 100.645 18.9772 100.206 19.3312 100.006L71.2927 70.0061C70.9387 70.2061 70.7197 70.6451 70.7198 71.2701L18.7583 101.27Z" fill="#8BC5E4"/>
<path d="M19.3291 100.007C19.6711 99.8109 20.1391 99.8389 20.6571 100.136L72.6186 70.1359C72.1006 69.8389 71.6326 69.8109 71.2906 70.0069L19.3291 100.007Z" fill="#8BC5E4"/>
<path d="M15.0776 101.425C16.0476 101.335 17.1214 101.175 18.1866 101.49L70.1482 71.4901C69.0829 71.1751 68.0091 71.3351 67.0391 71.4251L15.0776 101.425Z" fill="#8BC5E4"/>
<path d="M18.1865 101.49C18.2645 103.025 19.4683 104.68 20.4902 105.27L72.4517 75.27C71.4298 74.68 70.226 73.025 70.1481 71.49L18.1865 101.49Z" fill="#8BC5E4"/>
<path d="M20.4902 105.27C21.204 105.682 21.94 105.73 22.456 105.424L74.4175 75.424C73.9015 75.73 73.1655 75.682 72.4517 75.27L20.4902 105.27Z" fill="#8BC5E4"/>
<path d="M22.4531 105.426C22.7951 105.224 23.0411 104.867 23.1221 104.358L75.0836 74.3579C75.0026 74.8669 74.7566 75.2239 74.4146 75.4259L22.4531 105.426Z" fill="#8BC5E4"/>
<path d="M23.123 104.35C24.2835 105.32 25.3227 106.8 26.3619 108.03L78.3234 78.0301C77.2842 76.8001 76.245 75.3201 75.0845 74.3501L23.123 104.35Z" fill="#8BC5E4"/>
<path d="M26.3616 108.03C24.8028 108.23 23.0274 108.235 20.438 106.74L72.3995 76.74C74.9889 78.235 76.7643 78.23 78.3231 78.03L26.3616 108.03Z" fill="#8BC5E4"/>
<path d="M20.4383 106.74C17.9961 105.33 16.3766 103.185 15.0776 101.425L67.0391 71.425C68.3382 73.185 69.9576 75.33 72.3998 76.74L20.4383 106.74Z" fill="#8BC5E4"/>
<path d="M86.585 187.23C96.7435 193.095 104.953 207.465 104.953 219.385L156.915 189.385C156.915 177.465 148.705 163.095 138.546 157.23L86.585 187.23Z" fill="#8BC5E4"/>
<path d="M104.953 219.385C104.954 225.433 102.836 229.671 99.4219 231.609L151.383 201.609C154.797 199.671 156.915 195.433 156.915 189.385L104.953 219.385Z" fill="#8BC5E4"/>
<path d="M99.4248 231.608C96.1168 233.487 91.5908 233.208 86.5928 230.324L138.554 200.324C143.552 203.208 148.078 203.487 151.386 201.608L99.4248 231.608Z" fill="#8BC5E4"/>
<path d="M86.585 230.32C76.4265 224.455 68.208 210.08 68.208 198.17L120.17 168.17C120.17 180.08 128.388 194.455 138.547 200.32L86.585 230.32Z" fill="#8BC5E4"/>
<path d="M68.208 198.17C68.2078 192.117 70.3278 187.878 73.7438 185.94L125.705 155.94C122.289 157.878 120.169 162.117 120.17 168.17L68.208 198.17Z" fill="#8BC5E4"/>
<path d="M73.7422 185.941C77.0522 184.062 81.5802 184.342 86.5782 187.226L138.54 157.226C133.542 154.342 129.014 154.062 125.704 155.941L73.7422 185.941Z" fill="#8BC5E4"/>
<path d="M83.2769 192.48C83.3379 192.39 83.4109 192.32 83.4949 192.27L135.456 162.27C135.372 162.32 135.299 162.39 135.238 162.48L83.2769 192.48Z" fill="#8BC5E4"/>
<path d="M83.4941 192.27C83.7451 192.12 84.0871 192.149 84.4491 192.357L136.411 162.357C136.049 162.149 135.707 162.12 135.456 162.27L83.4941 192.27Z" fill="#8BC5E4"/>
<path d="M88.5684 194.735C89.0534 195.015 89.5037 195.575 89.7549 196.22L141.716 166.22C141.465 165.575 141.015 165.015 140.53 164.735L88.5684 194.735Z" fill="#8BC5E4"/>
<path d="M89.7549 196.22C89.9974 196.85 89.9974 197.46 89.7549 197.82L141.716 167.82C141.959 167.46 141.959 166.85 141.716 166.22L89.7549 196.22Z" fill="#8BC5E4"/>
<path d="M89.7551 197.82C89.6922 197.906 89.6172 197.974 89.5322 198.023L141.494 168.023C141.579 167.974 141.654 167.906 141.717 167.82L89.7551 197.82Z" fill="#8BC5E4"/>
<path d="M89.5332 198.023C89.2792 198.169 88.9362 198.146 88.5742 197.938L140.536 167.938C140.898 168.146 141.241 168.169 141.495 168.023L89.5332 198.023Z" fill="#8BC5E4"/>
<path d="M87.7979 199.63C93.2625 203.505 97.532 211.43 97.532 218.03L149.493 188.03C149.493 181.43 145.224 173.505 139.759 169.63L87.7979 199.63Z" fill="#8BC5E4"/>
<path d="M97.5319 218.03C97.5321 221.63 96.2631 224.161 94.2231 225.322L146.185 195.322C148.225 194.161 149.494 191.63 149.493 188.03L97.5319 218.03Z" fill="#8BC5E4"/>
<path d="M94.2248 225.321C92.2478 226.448 89.5458 226.289 86.5718 224.573L138.533 194.573C141.507 196.289 144.209 196.448 146.186 195.321L94.2248 225.321Z" fill="#8BC5E4"/>
<path d="M86.5679 224.57C80.523 221.08 75.604 212.46 75.604 205.37L127.566 175.37C127.566 182.46 132.485 191.08 138.529 194.57L86.5679 224.57Z" fill="#8BC5E4"/>
<path d="M75.604 205.37C75.604 201.757 76.881 199.226 78.934 198.075L130.896 168.075C128.843 169.226 127.566 171.757 127.566 175.37L75.604 205.37Z" fill="#8BC5E4"/>
<path d="M78.9312 198.076C80.5642 197.159 82.6892 197.115 85.0532 198.097L137.015 168.097C134.651 167.115 132.526 167.159 130.893 168.076L78.9312 198.076Z" fill="#8BC5E4"/>
<path d="M84.4547 195.56C83.9697 195.28 83.5194 194.71 83.2769 194.08L135.238 164.08C135.481 164.71 135.931 165.28 136.416 165.56L84.4547 195.56Z" fill="#8BC5E4"/>
<path d="M83.2772 194.08C83.0261 193.435 83.0261 192.825 83.2772 192.48L135.239 162.48C134.988 162.825 134.988 163.435 135.239 164.08L83.2772 194.08Z" fill="#8BC5E4"/>
<path d="M86.5679 201.51C91.383 204.29 95.2541 211.075 95.2541 216.715L147.216 186.715C147.216 181.075 143.344 174.29 138.529 171.51L86.5679 201.51Z" fill="#8BC5E4"/>
<path d="M95.2542 216.715C95.2541 219.584 94.2561 221.593 92.6431 222.512L144.605 192.512C146.218 191.593 147.216 189.584 147.216 186.715L95.2542 216.715Z" fill="#8BC5E4"/>
<path d="M92.6452 222.511C91.0832 223.402 88.9432 223.269 86.5752 221.904L138.537 191.904C140.905 193.269 143.045 193.402 144.607 192.511L92.6452 222.511Z" fill="#8BC5E4"/>
<path d="M86.568 221.9C81.7529 219.12 77.8818 212.335 77.8818 206.685L129.843 176.685C129.843 182.335 133.714 189.12 138.53 191.9L86.568 221.9Z" fill="#8BC5E4"/>
<path d="M77.8818 206.685C77.8821 203.821 78.8801 201.814 80.4931 200.897L132.455 170.897C130.842 171.814 129.844 173.821 129.843 176.685L77.8818 206.685Z" fill="#8BC5E4"/>
<path d="M80.4912 200.898C82.0532 200.008 84.1932 200.141 86.5612 201.506L138.523 171.506C136.155 170.141 134.015 170.008 132.453 170.898L80.4912 200.898Z" fill="#8BC5E4"/>
<path d="M86.0654 210.13C86.2819 210.065 86.6023 210.1 86.9401 210.285L138.902 180.285C138.564 180.1 138.243 180.065 138.027 180.13L86.0654 210.13Z" fill="#8BC5E4"/>
<path d="M86.9404 210.285C87.3647 210.51 87.8151 210.95 88.0835 211.655L140.045 181.655C139.777 180.95 139.326 180.51 138.902 180.285L86.9404 210.285Z" fill="#8BC5E4"/>
<path d="M85.9444 212.12C85.473 211.286 85.437 210.481 85.929 210.192L137.891 180.192C137.399 180.481 137.435 181.286 137.906 182.12L85.9444 212.12Z" fill="#8BC5E4"/>
<path d="M85.9229 210.196C85.9639 210.171 86.0089 210.15 86.0579 210.133L138.019 180.133C137.97 180.15 137.925 180.171 137.884 180.196L85.9229 210.196Z" fill="#8BC5E4"/>
<path d="M86.5852 32.99C75.197 26.415 65.9392 31.93 65.9392 45.29C65.9392 51.25 67.7838 57.765 70.8322 63.755L33.9049 85.655C30.3196 80.055 25.695 75.245 20.646 72.33C9.25781 65.755 0 71.27 0 84.63C0 97.99 9.25781 114.195 20.646 120.77C25.6603 123.665 30.2589 124.21 33.8356 122.785L69.6025 185.215C67.2902 187.79 65.9392 191.75 65.9392 196.86C65.9392 210.21 75.197 226.415 86.5852 232.99C97.9735 239.565 107.231 234.05 107.231 220.7C107.231 215.6 105.88 210.08 103.577 204.85L139.283 183.585C142.877 189.2 147.51 194.015 152.559 196.93C163.947 203.505 173.205 197.99 173.205 184.63C173.205 171.27 163.947 155.065 152.559 148.49C147.493 145.565 142.86 145.04 139.266 146.515L102.33 81.93C105.387 79.475 107.231 75.09 107.231 69.13C107.231 55.77 97.9735 39.565 86.5852 32.99ZM86.5852 35.66C96.7437 41.525 104.954 55.895 104.954 67.815C104.954 79.725 96.7437 84.615 86.5852 78.75C76.4267 72.885 68.2168 58.515 68.2168 46.605C68.2168 34.685 76.4267 29.795 86.5852 35.66ZM86.5419 46.205C83.3463 44.36 80.7049 45.735 80.7049 49.245C80.7049 51.995 82.2464 54.765 83.8399 57.105C79.3193 56.035 76.8165 58.82 76.8165 63.41L96.1721 74.585C96.1721 70.845 94.5613 64.975 89.4431 60.37C91.0279 60.145 92.4049 58.94 92.4049 56.32C92.4049 52.51 89.9627 48.18 86.5419 46.205ZM101.1 82.8L137.923 147.19C134.208 149.425 131.913 154.13 131.913 160.79C131.913 167.46 134.217 174.83 137.941 181.36L102.468 202.48C98.6749 194.95 92.9678 188.245 86.5852 184.56C80.2113 180.88 74.5042 180.985 70.711 184.135L35.1866 122.125C38.9538 119.91 41.2921 115.18 41.2921 108.47C41.2921 101.8 38.9885 94.42 35.2472 87.87L72.0706 66.04C75.8032 72.525 80.9301 78.155 86.5852 81.42C92.2404 84.685 97.3672 84.975 101.1 82.8ZM20.646 75C30.8045 80.865 39.0231 95.25 39.0231 107.16C39.0231 119.08 30.8045 123.965 20.646 118.1C10.4876 112.235 2.27765 97.865 2.27765 85.945C2.27765 74.035 10.4876 69.135 20.646 75ZM152.559 151.16C162.718 157.025 170.927 171.405 170.927 183.315C170.927 195.235 162.718 200.125 152.559 194.26C142.401 188.395 134.191 174.025 134.191 162.105C134.191 150.195 142.401 145.295 152.559 151.16ZM152.698 156.82C148.878 154.615 146.194 156.385 146.194 159.665V166.095L142.349 163.875V179.435L162.908 191.305V175.745L159.21 173.61V167.18C159.21 165.49 158.37 163.415 157.192 161.515C156.006 159.61 154.421 157.815 152.698 156.82ZM20.5681 82.385C14.0469 78.62 8.7382 81.785 8.7382 89.435C8.7382 97.085 14.0469 106.38 20.5681 110.145C27.0979 113.915 32.4067 110.75 32.4067 103.1C32.4067 95.45 27.0979 86.155 20.5681 82.385ZM152.698 158.95C153.875 159.63 155.088 160.98 155.98 162.425C156.88 163.865 157.391 165.35 157.391 166.13V172.56L148.021 167.15V160.72C148.021 158.9 149.796 157.275 152.698 158.95ZM113.882 138.09C110.366 136.06 107.586 135.615 105.534 136.73C103.481 137.845 102.459 140.375 102.459 144.325C102.459 148.275 103.481 151.985 105.534 155.48C107.586 158.955 110.366 161.72 113.882 163.75C115.06 164.43 116.186 164.92 117.269 165.235C118.351 165.55 119.39 165.69 120.386 165.665V160.545C119.382 160.775 118.394 160.795 117.407 160.595C116.428 160.4 115.398 159.995 114.315 159.37C112.375 158.25 110.851 156.64 109.743 154.55C108.634 152.45 108.08 150.13 108.08 147.57C108.08 145.01 108.634 143.32 109.743 142.51C110.851 141.69 112.375 141.84 114.315 142.96C115.398 143.585 116.428 144.37 117.407 145.305C118.394 146.255 119.382 147.415 120.386 148.805V143.685C119.39 142.5 118.351 141.44 117.269 140.505C116.186 139.58 115.06 138.77 113.882 138.09ZM20.0658 84.245V87.395C20.0658 87.835 20.3689 88.37 20.7413 88.585C21.1224 88.805 21.4255 88.62 21.4255 88.18V85.06C23.6252 86.55 25.617 88.74 27.1759 91.25L25.4005 92.315C25.1321 92.47 25.1321 92.98 25.4005 93.445C25.669 93.91 26.102 94.16 26.3705 94.005L28.1372 92.945C29.5055 95.575 30.3802 98.42 30.5534 101.11L28.2584 99.785C27.8774 99.565 27.5742 99.75 27.5742 100.19C27.5742 100.63 27.8774 101.165 28.2584 101.385L30.562 102.715C30.2589 108.72 25.9201 111.095 20.5681 108.005C15.2247 104.92 10.8773 97.53 10.5742 91.175L13.2329 92.71C13.6139 92.93 13.917 92.745 13.917 92.305C13.917 91.865 13.6139 91.33 13.2329 91.11L10.5915 89.585C10.7647 87.075 11.6567 85.23 13.0337 84.175L14.8523 87.355C15.0255 87.655 15.2767 87.88 15.5105 87.945C15.753 88.005 15.9349 87.9 15.9955 87.655C16.0648 87.415 15.9955 87.085 15.8223 86.785L14.0036 83.605C15.6404 82.88 17.7449 83.035 20.0658 84.245ZM57.6946 106.1L49.8831 126.31L55.3563 129.47L56.6987 125.745L65.1944 130.65L66.5194 135.915L71.984 139.07L64.1811 109.845L57.6946 106.1ZM73.9239 115.47V140.19L79.3539 143.325V134.745L82.9479 136.82C85.6239 138.365 87.6851 138.865 89.114 138.3C90.5516 137.73 91.2791 136.15 91.2791 133.55C91.2791 130.97 90.5516 128.56 89.114 126.34C87.6851 124.115 85.6239 122.225 82.9479 120.68L73.9239 115.47ZM94.518 127.36V152.08L99.9566 155.22V130.5L94.518 127.36ZM79.3539 123.225L82.3677 124.965C83.4242 125.575 84.2383 126.345 84.8099 127.265C85.3814 128.195 85.6672 129.21 85.6672 130.31C85.6672 131.42 85.3814 132.105 84.8099 132.385C84.2383 132.655 83.4242 132.485 82.3677 131.875L79.3539 130.135V123.225ZM60.9422 113.765L63.8261 125.27L58.0497 121.935L60.9422 113.765ZM24.9935 94.45L23.7551 94.235L20.6634 100.14C19.6068 99.53 18.7581 100.04 18.7581 101.27C18.7581 102.51 19.6068 104 20.6634 104.61C21.7113 105.215 22.5686 104.71 22.5686 103.47C22.5686 103.12 22.4993 102.74 22.3694 102.355L25.4871 96.085L24.9935 94.45ZM18.1865 101.49C17.1213 101.175 16.0475 101.335 15.0775 101.425C16.3765 103.185 17.996 105.33 20.4382 106.74C23.0276 108.235 24.803 108.23 26.3618 108.03C25.3226 106.8 24.2834 105.32 23.1229 104.35C22.9237 105.635 21.6766 105.955 20.4902 105.27C19.4682 104.68 18.2645 103.025 18.1865 101.49ZM86.5852 187.23C96.7437 193.095 104.954 207.465 104.954 219.385C104.954 231.295 96.7437 236.185 86.5852 230.32C76.4267 224.455 68.2082 210.08 68.2082 198.17C68.2082 186.25 76.4267 181.365 86.5852 187.23ZM84.4548 192.36C83.9698 192.08 83.5195 192.12 83.277 192.48C83.0259 192.825 83.0259 193.435 83.277 194.08C83.5195 194.71 83.9698 195.28 84.4548 195.56L85.061 195.91V198.1C79.7263 195.88 75.604 198.88 75.604 205.37C75.604 212.46 80.523 221.08 86.5679 224.57C92.6128 228.06 97.5318 225.12 97.5318 218.03C97.5318 211.43 93.2623 203.505 87.7977 199.63V197.49L88.5684 197.935C89.0534 198.215 89.5037 198.165 89.7549 197.82C89.9974 197.46 89.9974 196.85 89.7549 196.22C89.5037 195.575 89.0534 195.015 88.5684 194.735L84.4548 192.36ZM86.5679 201.51C91.383 204.29 95.2541 211.075 95.2541 216.715C95.2541 222.365 91.383 224.68 86.5679 221.9C81.7528 219.12 77.8817 212.335 77.8817 206.685C77.8817 201.045 81.7528 198.73 86.5679 201.51ZM86.9403 210.285C86.6025 210.1 86.2821 210.065 86.0656 210.13C85.4334 210.345 85.4334 211.215 85.9444 212.12L91.1665 221.145L91.6861 220.855L88.0834 211.655C87.815 210.95 87.3646 210.51 86.9403 210.285Z" fill="#8BC5E4"/>
<path fill-rule="evenodd" clip-rule="evenodd" d="M101.1 82.8L137.923 147.19C134.208 149.425 131.913 154.13 131.913 160.79C131.913 167.46 134.217 174.83 137.941 181.36L102.468 202.48C98.6749 194.95 92.9678 188.245 86.5852 184.56C80.2113 180.88 74.5042 180.985 70.711 184.135L35.1866 122.125C38.9538 119.91 41.2921 115.18 41.2921 108.47C41.2921 101.8 38.9885 94.42 35.2472 87.87L72.0706 66.04C75.8032 72.525 80.9301 78.155 86.5852 81.42C92.2404 84.685 97.3672 84.975 101.1 82.8ZM105.534 136.73C107.586 135.615 110.366 136.06 113.882 138.09C115.06 138.77 116.186 139.58 117.269 140.505C118.351 141.44 119.39 142.5 120.386 143.685V148.805C119.382 147.415 118.394 146.255 117.407 145.305C116.428 144.37 115.398 143.585 114.315 142.96C112.375 141.84 110.851 141.69 109.743 142.51C108.634 143.32 108.08 145.01 108.08 147.57C108.08 150.13 108.634 152.45 109.743 154.55C110.851 156.64 112.375 158.25 114.315 159.37C115.398 159.995 116.428 160.4 117.407 160.595C118.394 160.795 119.382 160.775 120.386 160.545V165.665C119.39 165.69 118.351 165.55 117.269 165.235C116.186 164.92 115.06 164.43 113.882 163.75C110.366 161.72 107.586 158.955 105.534 155.48C103.481 151.985 102.459 148.275 102.459 144.325C102.459 140.375 103.481 137.845 105.534 136.73ZM49.8831 126.31L57.6946 106.1L64.1811 109.845L71.984 139.07L66.5194 135.915L65.1944 130.65L56.6987 125.745L55.3563 129.47L49.8831 126.31ZM73.9239 140.19V115.47L82.9479 120.68C85.6239 122.225 87.6851 124.115 89.114 126.34C90.5516 128.56 91.2791 130.97 91.2791 133.55C91.2791 136.15 90.5516 137.73 89.114 138.3C87.6851 138.865 85.6239 138.365 82.9479 136.82L79.3539 134.745V143.325L73.9239 140.19ZM94.518 152.08V127.36L99.9566 130.5V155.22L94.518 152.08Z" fill="white"/>
<path d="M79.3539 123.225L82.3677 124.965C83.4242 125.575 84.2383 126.345 84.8099 127.265C85.3814 128.195 85.6672 129.21 85.6672 130.31C85.6672 131.42 85.3814 132.105 84.8099 132.385C84.2383 132.655 83.4242 132.485 82.3677 131.875L79.3539 130.135V123.225Z" fill="white"/>
<path d="M60.9422 113.765L63.8261 125.27L58.0497 121.935L60.9422 113.765Z" fill="white"/>
<path fill-rule="evenodd" clip-rule="evenodd" d="M152.559 151.16C162.718 157.025 170.927 171.405 170.927 183.315C170.927 195.235 162.718 200.125 152.559 194.26C142.401 188.395 134.191 174.025 134.191 162.105C134.191 150.195 142.401 145.295 152.559 151.16ZM146.194 159.665C146.194 156.385 148.878 154.615 152.698 156.82C154.421 157.815 156.006 159.61 157.192 161.515C158.37 163.415 159.21 165.49 159.21 167.18V173.61L162.908 175.745V191.305L142.349 179.435V163.875L146.194 166.095V159.665Z" fill="white"/>
<path d="M152.698 158.95C153.875 159.63 155.088 160.98 155.98 162.425C156.88 163.865 157.391 165.35 157.391 166.13V172.56L148.021 167.15V160.72C148.021 158.9 149.796 157.275 152.698 158.95Z" fill="white"/>
<path fill-rule="evenodd" clip-rule="evenodd" d="M86.5852 35.66C96.7437 41.525 104.954 55.895 104.954 67.815C104.954 79.725 96.7437 84.615 86.5852 78.75C76.4267 72.885 68.2168 58.515 68.2168 46.605C68.2168 34.685 76.4267 29.795 86.5852 35.66ZM80.7049 49.245C80.7049 45.735 83.3463 44.36 86.5419 46.205C89.9627 48.18 92.4049 52.51 92.4049 56.32C92.4049 58.94 91.0279 60.145 89.4431 60.37C94.5613 64.975 96.1721 70.845 96.1721 74.585L76.8165 63.41C76.8165 58.82 79.3193 56.035 83.8399 57.105C82.2464 54.765 80.7049 51.995 80.7049 49.245Z" fill="white"/>
<path fill-rule="evenodd" clip-rule="evenodd" d="M20.646 75C30.8045 80.865 39.0231 95.25 39.0231 107.16C39.0231 119.08 30.8045 123.965 20.646 118.1C10.4876 112.235 2.27765 97.865 2.27765 85.945C2.27765 74.035 10.4876 69.135 20.646 75ZM8.7382 89.435C8.7382 81.785 14.0469 78.62 20.5681 82.385C27.0979 86.155 32.4067 95.45 32.4067 103.1C32.4067 110.75 27.0979 113.915 20.5681 110.145C14.0469 106.38 8.7382 97.085 8.7382 89.435Z" fill="white"/>
<path fill-rule="evenodd" clip-rule="evenodd" d="M20.0658 84.245V87.395C20.0658 87.835 20.3689 88.37 20.7413 88.585C21.1224 88.805 21.4255 88.62 21.4255 88.18V85.06C23.6252 86.55 25.617 88.74 27.1759 91.25L25.4005 92.315C25.1321 92.47 25.1321 92.98 25.4005 93.445C25.669 93.91 26.102 94.16 26.3705 94.005L28.1372 92.945C29.5055 95.575 30.3802 98.42 30.5534 101.11L28.2584 99.785C27.8774 99.565 27.5742 99.75 27.5742 100.19C27.5742 100.63 27.8774 101.165 28.2584 101.385L30.562 102.715C30.2589 108.72 25.9201 111.095 20.5681 108.005C15.2247 104.92 10.8773 97.53 10.5742 91.175L13.2329 92.71C13.6139 92.93 13.917 92.745 13.917 92.305C13.917 91.865 13.6139 91.33 13.2329 91.11L10.5915 89.585C10.7647 87.075 11.6567 85.23 13.0337 84.175L14.8523 87.355C15.0255 87.655 15.2767 87.88 15.5105 87.945C15.753 88.005 15.9349 87.9 15.9955 87.655C16.0648 87.415 15.9955 87.085 15.8223 86.785L14.0036 83.605C15.6404 82.88 17.7449 83.035 20.0658 84.245ZM23.7551 94.235L24.9935 94.45L25.4871 96.085L22.3694 102.355C22.4993 102.74 22.5686 103.12 22.5686 103.47C22.5686 104.71 21.7113 105.215 20.6634 104.61C19.6068 104 18.7581 102.51 18.7581 101.27C18.7581 100.04 19.6068 99.53 20.6634 100.14L23.7551 94.235ZM15.0775 101.425C16.0475 101.335 17.1213 101.175 18.1865 101.49C18.2645 103.025 19.4682 104.68 20.4902 105.27C21.6766 105.955 22.9237 105.635 23.1229 104.35C24.2834 105.32 25.3226 106.8 26.3618 108.03C24.803 108.23 23.0276 108.235 20.4382 106.74C17.996 105.33 16.3765 103.185 15.0775 101.425Z" fill="white"/>
<path fill-rule="evenodd" clip-rule="evenodd" d="M86.5852 187.23C96.7437 193.095 104.954 207.465 104.954 219.385C104.954 231.295 96.7437 236.185 86.5852 230.32C76.4267 224.455 68.2082 210.08 68.2082 198.17C68.2082 186.25 76.4267 181.365 86.5852 187.23ZM83.277 192.48C83.5195 192.12 83.9698 192.08 84.4548 192.36L88.5684 194.735C89.0534 195.015 89.5037 195.575 89.7549 196.22C89.9974 196.85 89.9974 197.46 89.7549 197.82C89.5037 198.165 89.0534 198.215 88.5684 197.935L87.7977 197.49V199.63C93.2623 203.505 97.5318 211.43 97.5318 218.03C97.5318 225.12 92.6128 228.06 86.5679 224.57C80.523 221.08 75.604 212.46 75.604 205.37C75.604 198.88 79.7263 195.88 85.061 198.1V195.91L84.4548 195.56C83.9698 195.28 83.5195 194.71 83.277 194.08C83.0259 193.435 83.0259 192.825 83.277 192.48Z" fill="white"/>
<path fill-rule="evenodd" clip-rule="evenodd" d="M86.5679 201.51C91.383 204.29 95.2541 211.075 95.2541 216.715C95.2541 222.365 91.383 224.68 86.5679 221.9C81.7528 219.12 77.8817 212.335 77.8817 206.685C77.8817 201.045 81.7528 198.73 86.5679 201.51ZM86.0656 210.13C86.2821 210.065 86.6025 210.1 86.9403 210.285C87.3646 210.51 87.815 210.95 88.0834 211.655L91.6861 220.855L91.1665 221.145L85.9444 212.12C85.4334 211.215 85.4334 210.345 86.0656 210.13Z" fill="white"/>
</svg>
