<svg width="226" height="326" viewBox="0 0 226 326" fill="none" xmlns="http://www.w3.org/2000/svg">
<path d="M87.5811 139.307V270.187L35.6196 240.187V109.307L87.5811 139.307Z" fill="#8BC5E4"/>
<path d="M87.5811 270.187L189.547 211.317L137.585 181.317L35.6196 240.187L87.5811 270.187Z" fill="#8BC5E4"/>
<path d="M189.547 211.317V80.437L137.585 50.437V181.317L189.547 211.317Z" fill="#8BC5E4"/>
<path d="M189.547 80.437L87.5811 139.307L35.6196 109.307L137.585 50.437L189.547 80.437Z" fill="#8BC5E4"/>
<path d="M87.5811 139.307L35.6196 109.307L87.5811 139.307Z" fill="#8BC5E4"/>
<path d="M97.8433 144.762L107.603 139.127L55.6419 109.127L45.8818 114.762L97.8433 144.762Z" fill="#8BC5E4"/>
<path d="M107.604 139.127V188.247L55.6421 158.247V109.127L107.604 139.127Z" fill="#8BC5E4"/>
<path d="M107.603 188.247L97.8433 193.882L45.8818 163.882L55.6419 158.247L107.603 188.247Z" fill="#8BC5E4"/>
<path d="M97.8433 193.882V144.762L45.8818 114.762V163.882L97.8433 193.882Z" fill="#8BC5E4"/>
<path d="M97.8433 144.762L45.8818 114.762L97.8433 144.762Z" fill="#8BC5E4"/>
<path d="M122.014 130.807L131.792 125.162L79.8301 95.1621L70.0527 100.807L122.014 130.807Z" fill="#8BC5E4"/>
<path d="M131.792 125.162V174.282L79.8301 144.282V95.1621L131.792 125.162Z" fill="#8BC5E4"/>
<path d="M131.792 174.282L122.014 179.927L70.0527 149.927L79.8301 144.282L131.792 174.282Z" fill="#8BC5E4"/>
<path d="M122.014 179.927V130.807L70.0527 100.807V149.927L122.014 179.927Z" fill="#8BC5E4"/>
<path d="M122.014 130.807L70.0527 100.807L122.014 130.807Z" fill="#8BC5E4"/>
<path d="M146.202 116.842L155.98 111.197L104.018 81.197L94.2407 86.842L146.202 116.842Z" fill="#8BC5E4"/>
<path d="M155.98 111.197V160.317L104.018 130.317V81.197L155.98 111.197Z" fill="#8BC5E4"/>
<path d="M155.98 160.317L146.202 165.962L94.2407 135.962L104.018 130.317L155.98 160.317Z" fill="#8BC5E4"/>
<path d="M146.202 165.962V116.842L94.2407 86.842V135.962L146.202 165.962Z" fill="#8BC5E4"/>
<path d="M146.202 116.842L94.2407 86.842L146.202 116.842Z" fill="#8BC5E4"/>
<path d="M170.39 102.877L180.168 97.2319L128.206 67.2319L118.429 72.8769L170.39 102.877Z" fill="#8BC5E4"/>
<path d="M180.168 97.2319V146.352L128.207 116.352V67.2319L180.168 97.2319Z" fill="#8BC5E4"/>
<path d="M180.168 146.352L170.39 151.997L118.429 121.997L128.206 116.352L180.168 146.352Z" fill="#8BC5E4"/>
<path d="M170.39 151.997V102.877L118.429 72.877V121.997L170.39 151.997Z" fill="#8BC5E4"/>
<path d="M170.39 102.877L118.429 72.877L170.39 102.877Z" fill="#8BC5E4"/>
<path d="M97.8433 203.422L107.603 197.787L55.6419 167.787L45.8818 173.422L97.8433 203.422Z" fill="#8BC5E4"/>
<path d="M107.604 197.787V246.907L55.6421 216.907V167.787L107.604 197.787Z" fill="#8BC5E4"/>
<path d="M107.603 246.907L97.8433 252.542L45.8818 222.542L55.6419 216.907L107.603 246.907Z" fill="#8BC5E4"/>
<path d="M97.8433 252.542V203.422L45.8818 173.422V222.542L97.8433 252.542Z" fill="#8BC5E4"/>
<path d="M97.8433 203.422L45.8818 173.422L97.8433 203.422Z" fill="#8BC5E4"/>
<path d="M122.014 189.467L131.792 183.822L79.8301 153.822L70.0527 159.467L122.014 189.467Z" fill="#8BC5E4"/>
<path d="M131.792 183.822V232.942L79.8301 202.942V153.822L131.792 183.822Z" fill="#8BC5E4"/>
<path d="M131.792 232.942L122.014 238.587L70.0527 208.587L79.8301 202.942L131.792 232.942Z" fill="#8BC5E4"/>
<path d="M122.014 238.587V189.467L70.0527 159.467V208.587L122.014 238.587Z" fill="#8BC5E4"/>
<path d="M122.014 189.467L70.0527 159.467L122.014 189.467Z" fill="#8BC5E4"/>
<path d="M146.202 175.502L155.98 169.857L104.018 139.857L94.2407 145.502L146.202 175.502Z" fill="#8BC5E4"/>
<path d="M155.98 169.857V218.977L104.018 188.977V139.857L155.98 169.857Z" fill="#8BC5E4"/>
<path d="M155.98 218.977L146.202 224.622L94.2407 194.622L104.018 188.977L155.98 218.977Z" fill="#8BC5E4"/>
<path d="M146.202 224.622V175.502L94.2407 145.502V194.622L146.202 224.622Z" fill="#8BC5E4"/>
<path d="M146.202 175.502L94.2407 145.502L146.202 175.502Z" fill="#8BC5E4"/>
<path d="M170.39 161.537L180.168 155.892L128.206 125.892L118.429 131.537L170.39 161.537Z" fill="#8BC5E4"/>
<path d="M180.168 155.892V205.012L128.207 175.012V125.892L180.168 155.892Z" fill="#8BC5E4"/>
<path d="M180.168 205.012L170.39 210.657L118.429 180.657L128.206 175.012L180.168 205.012Z" fill="#8BC5E4"/>
<path d="M170.39 210.657V161.537L118.429 131.537V180.657L170.39 210.657Z" fill="#8BC5E4"/>
<path d="M170.39 161.537L118.429 131.537L170.39 161.537Z" fill="#8BC5E4"/>
<path d="M62.5875 124.687L214.54 36.957L162.579 6.95703L10.626 94.687L62.5875 124.687Z" fill="#8BC5E4"/>
<path d="M220.369 40.302V215.862L168.407 185.862V10.302L220.369 40.302Z" fill="#8BC5E4"/>
<path d="M214.54 225.937L62.5875 313.667L10.626 283.667L162.579 195.937L214.54 225.937Z" fill="#8BC5E4"/>
<path d="M56.7593 310.322V134.762L4.79785 104.762V280.322L56.7593 310.322Z" fill="#8BC5E4"/>
<path d="M62.5875 124.687L10.626 94.687L62.5875 124.687Z" fill="#8BC5E4"/>
<path d="M51.9615 137.532V313.092L0 283.092V107.532L51.9615 137.532Z" fill="#8BC5E4"/>
<path d="M62.5875 319.177L214.54 231.447L162.579 201.447L10.626 289.177L62.5875 319.177Z" fill="#8BC5E4"/>
<path d="M225.167 213.092V37.532L173.205 7.53198V183.092L225.167 213.092Z" fill="#8BC5E4"/>
<path d="M214.54 31.447L62.5875 119.177L10.626 89.177L162.579 1.44702L214.54 31.447Z" fill="#8BC5E4"/>
<path d="M62.5875 119.177L10.626 89.177L62.5875 119.177Z" fill="#8BC5E4"/>
<path d="M62.5875 124.687L214.54 36.957L162.579 6.95703L10.626 94.687L62.5875 124.687Z" fill="#8BC5E4"/>
<path d="M220.369 40.302V215.862L168.407 185.862V10.302L220.369 40.302Z" fill="#8BC5E4"/>
<path d="M214.54 225.937L62.5875 313.667L10.626 283.667L162.579 195.937L214.54 225.937Z" fill="#8BC5E4"/>
<path d="M56.7593 310.322V134.762L4.79785 104.762V280.322L56.7593 310.322Z" fill="#8BC5E4"/>
<path d="M62.5875 124.687L10.626 94.687L62.5875 124.687Z" fill="#8BC5E4"/>
<path d="M87.5811 270.187V139.307L35.6196 109.307V240.187L87.5811 270.187Z" fill="#8BC5E4"/>
<path d="M87.5811 139.307L189.547 80.437L137.585 50.437L35.6196 109.307L87.5811 139.307Z" fill="#8BC5E4"/>
<path d="M189.547 80.437V211.317L137.585 181.317V50.437L189.547 80.437Z" fill="#8BC5E4"/>
<path d="M189.547 211.317L87.5811 270.187L35.6196 240.187L137.585 181.317L189.547 211.317Z" fill="#8BC5E4"/>
<path d="M87.5811 270.187L35.6196 240.187L87.5811 270.187Z" fill="#8BC5E4"/>
<path d="M170.39 102.877L180.168 97.2319L128.206 67.2319L118.429 72.8769L170.39 102.877Z" fill="#8BC5E4"/>
<path d="M180.168 97.2319V146.352L128.207 116.352V67.2319L180.168 97.2319Z" fill="#8BC5E4"/>
<path d="M180.168 146.352L170.39 151.997L118.429 121.997L128.206 116.352L180.168 146.352Z" fill="#8BC5E4"/>
<path d="M170.39 151.997V102.877L118.429 72.877V121.997L170.39 151.997Z" fill="#8BC5E4"/>
<path d="M170.39 102.877L118.429 72.877L170.39 102.877Z" fill="#8BC5E4"/>
<path d="M170.39 161.537L180.168 155.892L128.206 125.892L118.429 131.537L170.39 161.537Z" fill="#8BC5E4"/>
<path d="M180.168 155.892V205.012L128.207 175.012V125.892L180.168 155.892Z" fill="#8BC5E4"/>
<path d="M180.168 205.012L170.39 210.657L118.429 180.657L128.206 175.012L180.168 205.012Z" fill="#8BC5E4"/>
<path d="M170.39 210.657V161.537L118.429 131.537V180.657L170.39 210.657Z" fill="#8BC5E4"/>
<path d="M170.39 161.537L118.429 131.537L170.39 161.537Z" fill="#8BC5E4"/>
<path d="M146.202 116.842L155.98 111.197L104.018 81.197L94.2407 86.842L146.202 116.842Z" fill="#8BC5E4"/>
<path d="M155.98 111.197V160.317L104.018 130.317V81.197L155.98 111.197Z" fill="#8BC5E4"/>
<path d="M155.98 160.317L146.202 165.962L94.2407 135.962L104.018 130.317L155.98 160.317Z" fill="#8BC5E4"/>
<path d="M146.202 165.962V116.842L94.2407 86.842V135.962L146.202 165.962Z" fill="#8BC5E4"/>
<path d="M146.202 116.842L94.2407 86.842L146.202 116.842Z" fill="#8BC5E4"/>
<path d="M146.202 175.502L155.98 169.857L104.018 139.857L94.2407 145.502L146.202 175.502Z" fill="#8BC5E4"/>
<path d="M155.98 169.857V218.977L104.018 188.977V139.857L155.98 169.857Z" fill="#8BC5E4"/>
<path d="M155.98 218.977L146.202 224.622L94.2407 194.622L104.018 188.977L155.98 218.977Z" fill="#8BC5E4"/>
<path d="M146.202 224.622V175.502L94.2407 145.502V194.622L146.202 224.622Z" fill="#8BC5E4"/>
<path d="M146.202 175.502L94.2407 145.502L146.202 175.502Z" fill="#8BC5E4"/>
<path d="M122.014 130.807L131.792 125.162L79.8301 95.1621L70.0527 100.807L122.014 130.807Z" fill="#8BC5E4"/>
<path d="M131.792 125.162V174.282L79.8301 144.282V95.1621L131.792 125.162Z" fill="#8BC5E4"/>
<path d="M131.792 174.282L122.014 179.927L70.0527 149.927L79.8301 144.282L131.792 174.282Z" fill="#8BC5E4"/>
<path d="M122.014 179.927V130.807L70.0527 100.807V149.927L122.014 179.927Z" fill="#8BC5E4"/>
<path d="M122.014 130.807L70.0527 100.807L122.014 130.807Z" fill="#8BC5E4"/>
<path d="M122.014 189.467L131.792 183.822L79.8301 153.822L70.0527 159.467L122.014 189.467Z" fill="#8BC5E4"/>
<path d="M131.792 183.822V232.942L79.8301 202.942V153.822L131.792 183.822Z" fill="#8BC5E4"/>
<path d="M131.792 232.942L122.014 238.587L70.0527 208.587L79.8301 202.942L131.792 232.942Z" fill="#8BC5E4"/>
<path d="M122.014 238.587V189.467L70.0527 159.467V208.587L122.014 238.587Z" fill="#8BC5E4"/>
<path d="M122.014 189.467L70.0527 159.467L122.014 189.467Z" fill="#8BC5E4"/>
<path d="M97.8433 144.762L107.603 139.127L55.6419 109.127L45.8818 114.762L97.8433 144.762Z" fill="#8BC5E4"/>
<path d="M107.604 139.127V188.247L55.6421 158.247V109.127L107.604 139.127Z" fill="#8BC5E4"/>
<path d="M107.603 188.247L97.8433 193.882L45.8818 163.882L55.6419 158.247L107.603 188.247Z" fill="#8BC5E4"/>
<path d="M97.8433 193.882V144.762L45.8818 114.762V163.882L97.8433 193.882Z" fill="#8BC5E4"/>
<path d="M97.8433 144.762L45.8818 114.762L97.8433 144.762Z" fill="#8BC5E4"/>
<path d="M97.8433 203.422L107.603 197.787L55.6419 167.787L45.8818 173.422L97.8433 203.422Z" fill="#8BC5E4"/>
<path d="M107.604 197.787V246.907L55.6421 216.907V167.787L107.604 197.787Z" fill="#8BC5E4"/>
<path d="M107.603 246.907L97.8433 252.542L45.8818 222.542L55.6419 216.907L107.603 246.907Z" fill="#8BC5E4"/>
<path d="M97.8433 252.542V203.422L45.8818 173.422V222.542L97.8433 252.542Z" fill="#8BC5E4"/>
<path d="M97.8433 203.422L45.8818 173.422L97.8433 203.422Z" fill="#8BC5E4"/>
<path d="M214.541 36.9571C216.178 36.0121 217.635 35.9061 218.683 36.5071L166.721 6.50714C165.673 5.90614 164.216 6.01214 162.579 6.95714L214.541 36.9571Z" fill="#8BC5E4"/>
<path d="M218.68 36.5061C219.728 37.1061 220.367 38.4131 220.368 40.2961L168.407 10.2961C168.406 8.4131 167.767 7.1061 166.719 6.5061L218.68 36.5061Z" fill="#8BC5E4"/>
<path d="M220.369 215.862C220.369 219.632 217.814 224.047 214.541 225.937L162.579 195.937C165.853 194.047 168.408 189.632 168.408 185.862L220.369 215.862Z" fill="#8BC5E4"/>
<path d="M62.5875 313.667C60.9504 314.612 59.4934 314.718 58.4454 314.117L6.48389 284.117C7.53189 284.718 8.98889 284.612 10.626 283.667L62.5875 313.667Z" fill="#8BC5E4"/>
<path d="M58.4474 314.118C57.3994 313.518 56.7603 312.211 56.7593 310.328L4.79785 280.328C4.79885 282.211 5.43785 283.518 6.48585 284.118L58.4474 314.118Z" fill="#8BC5E4"/>
<path d="M56.7593 134.762C56.7593 130.992 59.3142 126.577 62.5877 124.687L10.6262 94.687C7.35255 96.577 4.79785 100.992 4.79785 104.762L56.7593 134.762Z" fill="#8BC5E4"/>
<path d="M62.5876 119.177C56.742 122.552 51.9615 130.802 51.9615 137.532L0 107.532C0 100.802 4.7804 92.552 10.6261 89.177L62.5876 119.177Z" fill="#8BC5E4"/>
<path d="M51.9615 313.092C51.9615 316.464 53.1615 318.831 55.0935 319.93L3.132 289.93C1.2 288.831 0 286.464 0 283.092L51.9615 313.092Z" fill="#8BC5E4"/>
<path d="M55.1026 319.935C57.0246 321.023 59.6696 320.859 62.5796 319.182L10.6181 289.182C7.70811 290.859 5.06311 291.023 3.14111 289.935L55.1026 319.935Z" fill="#8BC5E4"/>
<path d="M214.541 231.447C220.386 228.072 225.167 219.822 225.167 213.092L173.205 183.092C173.205 189.822 168.425 198.072 162.579 201.447L214.541 231.447Z" fill="#8BC5E4"/>
<path d="M225.167 37.5321C225.167 34.1601 223.967 31.7931 222.035 30.6941L170.073 0.694092C172.005 1.79309 173.205 4.16009 173.205 7.53209L225.167 37.5321Z" fill="#8BC5E4"/>
<path d="M222.025 30.689C220.103 29.601 217.458 29.765 214.549 31.442L162.588 1.44204C165.497 -0.234963 168.142 -0.398963 170.064 0.689037L222.025 30.689Z" fill="#8BC5E4"/>
<path d="M214.541 36.9571C216.178 36.0121 217.635 35.9061 218.683 36.5071L166.721 6.50714C165.673 5.90614 164.216 6.01214 162.579 6.95714L214.541 36.9571Z" fill="#8BC5E4"/>
<path d="M218.68 36.5061C219.728 37.1061 220.367 38.4131 220.368 40.2961L168.407 10.2961C168.406 8.4131 167.767 7.1061 166.719 6.5061L218.68 36.5061Z" fill="#8BC5E4"/>
<path d="M220.369 215.862C220.369 219.632 217.814 224.047 214.541 225.937L162.579 195.937C165.853 194.047 168.408 189.632 168.408 185.862L220.369 215.862Z" fill="#8BC5E4"/>
<path d="M62.5875 313.667C60.9504 314.612 59.4934 314.718 58.4454 314.117L6.48389 284.117C7.53189 284.718 8.98889 284.612 10.626 283.667L62.5875 313.667Z" fill="#8BC5E4"/>
<path d="M58.4474 314.118C57.3994 313.518 56.7603 312.211 56.7593 310.328L4.79785 280.328C4.79885 282.211 5.43785 283.518 6.48585 284.118L58.4474 314.118Z" fill="#8BC5E4"/>
<path d="M56.7593 134.762C56.7593 130.992 59.3142 126.577 62.5877 124.687L10.6262 94.687C7.35255 96.577 4.79785 100.992 4.79785 104.762L56.7593 134.762Z" fill="#8BC5E4"/>
<path d="M87.5811 139.307V270.187L189.547 211.317V80.437L87.5811 139.307ZM97.8435 144.762L107.604 139.127V188.247L97.8435 193.882V144.762ZM122.014 130.807L131.792 125.162V174.282L122.014 179.927V130.807ZM146.202 116.842L155.98 111.197V160.317L146.202 165.962V116.842ZM170.39 102.877L180.168 97.232V146.352L170.39 151.997V102.877ZM97.8435 203.422L107.604 197.787V246.907L97.8435 252.542V203.422ZM122.014 189.467L131.792 183.822V232.942L122.014 238.587V189.467ZM146.202 175.502L155.98 169.857V218.977L146.202 224.622V175.502ZM170.39 161.537L180.168 155.892V205.012L170.39 210.657V161.537ZM62.5876 124.687L214.54 36.957C217.814 35.067 220.369 36.532 220.369 40.302V215.862C220.369 219.632 217.814 224.047 214.54 225.937L62.5876 313.667C59.314 315.557 56.7592 314.092 56.7592 310.322V134.762C56.7592 130.992 59.314 126.577 62.5876 124.687ZM62.5876 119.177C56.7419 122.552 51.9614 130.802 51.9614 137.532V313.092C51.9614 319.822 56.7419 322.552 62.5876 319.177L214.54 231.447C220.386 228.072 225.167 219.822 225.167 213.092V37.532C225.167 30.802 220.386 28.072 214.54 31.447L62.5876 119.177Z" fill="#8BC5E4"/>
<path fill-rule="evenodd" clip-rule="evenodd" d="M62.5876 124.687L214.54 36.957C217.814 35.067 220.369 36.532 220.369 40.302V215.862C220.369 219.632 217.814 224.047 214.54 225.937L62.5876 313.667C59.314 315.557 56.7592 314.092 56.7592 310.322V134.762C56.7592 130.992 59.314 126.577 62.5876 124.687ZM87.5811 270.187V139.307L189.547 80.437V211.317L87.5811 270.187Z" fill="white"/>
<path d="M170.39 102.877L180.168 97.232V146.352L170.39 151.997V102.877Z" fill="white"/>
<path d="M170.39 161.537L180.168 155.892V205.012L170.39 210.657V161.537Z" fill="white"/>
<path d="M146.202 116.842L155.98 111.197V160.317L146.202 165.962V116.842Z" fill="white"/>
<path d="M146.202 175.502L155.98 169.857V218.977L146.202 224.622V175.502Z" fill="white"/>
<path d="M122.014 130.807L131.792 125.162V174.282L122.014 179.927V130.807Z" fill="white"/>
<path d="M122.014 189.467L131.792 183.822V232.942L122.014 238.587V189.467Z" fill="white"/>
<path d="M97.8435 144.762L107.604 139.127V188.247L97.8435 193.882V144.762Z" fill="white"/>
<path d="M97.8435 203.422L107.604 197.787V246.907L97.8435 252.542V203.422Z" fill="white"/>
</svg>
