<svg width="226" height="326" viewBox="0 0 226 326" fill="none" xmlns="http://www.w3.org/2000/svg">
<path d="M35.6196 80.4373V211.317L87.5812 181.317V50.4373L35.6196 80.4373Z" fill="#8BC5E4"/>
<path d="M35.6196 211.317L137.586 270.187L189.547 240.187L87.5812 181.317L35.6196 211.317Z" fill="#8BC5E4"/>
<path d="M137.585 270.187V139.307L189.547 109.307V240.187L137.585 270.187Z" fill="#8BC5E4"/>
<path d="M137.586 139.307L35.6196 80.4373L87.5812 50.4373L189.547 109.307L137.586 139.307Z" fill="#8BC5E4"/>
<path d="M35.6196 80.4373L87.5812 50.4373L35.6196 80.4373Z" fill="#8BC5E4"/>
<path d="M45.8818 97.7422L55.6419 103.377L107.604 73.3772L97.8433 67.7422L45.8818 97.7422Z" fill="#8BC5E4"/>
<path d="M55.6421 103.377V152.497L107.604 122.497V73.3772L55.6421 103.377Z" fill="#8BC5E4"/>
<path d="M55.6419 152.497L45.8818 146.862L97.8433 116.862L107.604 122.497L55.6419 152.497Z" fill="#8BC5E4"/>
<path d="M45.8818 146.862V97.7422L97.8433 67.7422V116.862L45.8818 146.862Z" fill="#8BC5E4"/>
<path d="M45.8818 97.7422L97.8433 67.7422L45.8818 97.7422Z" fill="#8BC5E4"/>
<path d="M70.0527 111.697L79.8301 117.342L131.792 87.3423L122.014 81.6973L70.0527 111.697Z" fill="#8BC5E4"/>
<path d="M79.8301 117.342V166.462L131.792 136.462V87.342L79.8301 117.342Z" fill="#8BC5E4"/>
<path d="M79.8301 166.462L70.0527 160.817L122.014 130.817L131.792 136.462L79.8301 166.462Z" fill="#8BC5E4"/>
<path d="M70.0527 160.817V111.697L122.014 81.6973V130.817L70.0527 160.817Z" fill="#8BC5E4"/>
<path d="M70.0527 111.697L122.014 81.6973L70.0527 111.697Z" fill="#8BC5E4"/>
<path d="M94.2407 125.662L104.018 131.307L155.98 101.307L146.202 95.6621L94.2407 125.662Z" fill="#8BC5E4"/>
<path d="M104.018 131.307V180.427L155.98 150.427V101.307L104.018 131.307Z" fill="#8BC5E4"/>
<path d="M104.018 180.427L94.2407 174.782L146.202 144.782L155.98 150.427L104.018 180.427Z" fill="#8BC5E4"/>
<path d="M94.2407 174.782V125.662L146.202 95.6621V144.782L94.2407 174.782Z" fill="#8BC5E4"/>
<path d="M94.2407 125.662L146.202 95.6621L94.2407 125.662Z" fill="#8BC5E4"/>
<path d="M118.429 139.627L128.207 145.272L180.168 115.272L170.391 109.627L118.429 139.627Z" fill="#8BC5E4"/>
<path d="M128.207 145.272V194.392L180.168 164.392V115.272L128.207 145.272Z" fill="#8BC5E4"/>
<path d="M128.207 194.392L118.429 188.747L170.391 158.747L180.168 164.392L128.207 194.392Z" fill="#8BC5E4"/>
<path d="M118.429 188.747V139.627L170.391 109.627V158.747L118.429 188.747Z" fill="#8BC5E4"/>
<path d="M118.429 139.627L170.391 109.627L118.429 139.627Z" fill="#8BC5E4"/>
<path d="M45.8818 156.402L55.6419 162.037L107.604 132.037L97.8433 126.402L45.8818 156.402Z" fill="#8BC5E4"/>
<path d="M55.6421 162.037V211.157L107.604 181.157V132.037L55.6421 162.037Z" fill="#8BC5E4"/>
<path d="M55.6419 211.157L45.8818 205.522L97.8433 175.522L107.604 181.157L55.6419 211.157Z" fill="#8BC5E4"/>
<path d="M45.8818 205.522V156.402L97.8433 126.402V175.522L45.8818 205.522Z" fill="#8BC5E4"/>
<path d="M45.8818 156.402L97.8433 126.402L45.8818 156.402Z" fill="#8BC5E4"/>
<path d="M70.0527 170.357L79.8301 176.002L131.792 146.002L122.014 140.357L70.0527 170.357Z" fill="#8BC5E4"/>
<path d="M79.8301 176.002V225.122L131.792 195.122V146.002L79.8301 176.002Z" fill="#8BC5E4"/>
<path d="M79.8301 225.122L70.0527 219.477L122.014 189.477L131.792 195.122L79.8301 225.122Z" fill="#8BC5E4"/>
<path d="M70.0527 219.477V170.357L122.014 140.357V189.477L70.0527 219.477Z" fill="#8BC5E4"/>
<path d="M70.0527 170.357L122.014 140.357L70.0527 170.357Z" fill="#8BC5E4"/>
<path d="M94.2407 184.322L104.018 189.967L155.98 159.967L146.202 154.322L94.2407 184.322Z" fill="#8BC5E4"/>
<path d="M104.018 189.967V239.087L155.98 209.087V159.967L104.018 189.967Z" fill="#8BC5E4"/>
<path d="M104.018 239.087L94.2407 233.442L146.202 203.442L155.98 209.087L104.018 239.087Z" fill="#8BC5E4"/>
<path d="M94.2407 233.442V184.322L146.202 154.322V203.442L94.2407 233.442Z" fill="#8BC5E4"/>
<path d="M94.2407 184.322L146.202 154.322L94.2407 184.322Z" fill="#8BC5E4"/>
<path d="M118.429 198.287L128.207 203.932L180.168 173.932L170.391 168.287L118.429 198.287Z" fill="#8BC5E4"/>
<path d="M128.207 203.932V253.052L180.168 223.052V173.932L128.207 203.932Z" fill="#8BC5E4"/>
<path d="M128.207 253.052L118.429 247.407L170.391 217.407L180.168 223.052L128.207 253.052Z" fill="#8BC5E4"/>
<path d="M118.429 247.407V198.287L170.391 168.287V217.407L118.429 247.407Z" fill="#8BC5E4"/>
<path d="M118.429 198.287L170.391 168.287L118.429 198.287Z" fill="#8BC5E4"/>
<path d="M10.626 36.957L162.579 124.687L214.54 94.687L62.5876 6.95703L10.626 36.957Z" fill="#8BC5E4"/>
<path d="M168.407 134.762V310.322L220.369 280.322V104.762L168.407 134.762Z" fill="#8BC5E4"/>
<path d="M162.579 313.667L10.626 225.937L62.5876 195.937L214.54 283.667L162.579 313.667Z" fill="#8BC5E4"/>
<path d="M4.79785 215.862V40.3022L56.7593 10.3022V185.862L4.79785 215.862Z" fill="#8BC5E4"/>
<path d="M10.626 36.957L62.5876 6.95703L10.626 36.957Z" fill="#8BC5E4"/>
<path d="M0 37.5322V213.092L51.9615 183.092V7.53223L0 37.5322Z" fill="#8BC5E4"/>
<path d="M10.626 231.447L162.579 319.177L214.54 289.177L62.5876 201.447L10.626 231.447Z" fill="#8BC5E4"/>
<path d="M173.205 313.092V137.532L225.167 107.532V283.092L173.205 313.092Z" fill="#8BC5E4"/>
<path d="M162.579 119.177L10.626 31.447L62.5876 1.44702L214.54 89.177L162.579 119.177Z" fill="#8BC5E4"/>
<path d="M10.626 31.447L62.5876 1.44702L10.626 31.447Z" fill="#8BC5E4"/>
<path d="M10.626 36.957L162.579 124.687L214.54 94.687L62.5876 6.95703L10.626 36.957Z" fill="#8BC5E4"/>
<path d="M168.407 134.762V310.322L220.369 280.322V104.762L168.407 134.762Z" fill="#8BC5E4"/>
<path d="M162.579 313.667L10.626 225.937L62.5876 195.937L214.54 283.667L162.579 313.667Z" fill="#8BC5E4"/>
<path d="M4.79785 215.862V40.3022L56.7593 10.3022V185.862L4.79785 215.862Z" fill="#8BC5E4"/>
<path d="M10.626 36.957L62.5876 6.95703L10.626 36.957Z" fill="#8BC5E4"/>
<path d="M35.6196 211.317V80.4373L87.5812 50.4373V181.317L35.6196 211.317Z" fill="#8BC5E4"/>
<path d="M35.6196 80.4373L137.586 139.307L189.547 109.307L87.5812 50.4373L35.6196 80.4373Z" fill="#8BC5E4"/>
<path d="M137.585 139.307V270.187L189.547 240.187V109.307L137.585 139.307Z" fill="#8BC5E4"/>
<path d="M137.586 270.187L35.6196 211.317L87.5812 181.317L189.547 240.187L137.586 270.187Z" fill="#8BC5E4"/>
<path d="M35.6196 211.317L87.5812 181.317L35.6196 211.317Z" fill="#8BC5E4"/>
<path d="M118.429 139.627L128.207 145.272L180.168 115.272L170.391 109.627L118.429 139.627Z" fill="#8BC5E4"/>
<path d="M128.207 145.272V194.392L180.168 164.392V115.272L128.207 145.272Z" fill="#8BC5E4"/>
<path d="M128.207 194.392L118.429 188.747L170.391 158.747L180.168 164.392L128.207 194.392Z" fill="#8BC5E4"/>
<path d="M118.429 188.747V139.627L170.391 109.627V158.747L118.429 188.747Z" fill="#8BC5E4"/>
<path d="M118.429 139.627L170.391 109.627L118.429 139.627Z" fill="#8BC5E4"/>
<path d="M118.429 198.287L128.207 203.932L180.168 173.932L170.391 168.287L118.429 198.287Z" fill="#8BC5E4"/>
<path d="M128.207 203.932V253.052L180.168 223.052V173.932L128.207 203.932Z" fill="#8BC5E4"/>
<path d="M128.207 253.052L118.429 247.407L170.391 217.407L180.168 223.052L128.207 253.052Z" fill="#8BC5E4"/>
<path d="M118.429 247.407V198.287L170.391 168.287V217.407L118.429 247.407Z" fill="#8BC5E4"/>
<path d="M118.429 198.287L170.391 168.287L118.429 198.287Z" fill="#8BC5E4"/>
<path d="M94.2407 125.662L104.018 131.307L155.98 101.307L146.202 95.6621L94.2407 125.662Z" fill="#8BC5E4"/>
<path d="M104.018 131.307V180.427L155.98 150.427V101.307L104.018 131.307Z" fill="#8BC5E4"/>
<path d="M104.018 180.427L94.2407 174.782L146.202 144.782L155.98 150.427L104.018 180.427Z" fill="#8BC5E4"/>
<path d="M94.2407 174.782V125.662L146.202 95.6621V144.782L94.2407 174.782Z" fill="#8BC5E4"/>
<path d="M94.2407 125.662L146.202 95.6621L94.2407 125.662Z" fill="#8BC5E4"/>
<path d="M94.2407 184.322L104.018 189.967L155.98 159.967L146.202 154.322L94.2407 184.322Z" fill="#8BC5E4"/>
<path d="M104.018 189.967V239.087L155.98 209.087V159.967L104.018 189.967Z" fill="#8BC5E4"/>
<path d="M104.018 239.087L94.2407 233.442L146.202 203.442L155.98 209.087L104.018 239.087Z" fill="#8BC5E4"/>
<path d="M94.2407 233.442V184.322L146.202 154.322V203.442L94.2407 233.442Z" fill="#8BC5E4"/>
<path d="M94.2407 184.322L146.202 154.322L94.2407 184.322Z" fill="#8BC5E4"/>
<path d="M70.0527 111.697L79.8301 117.342L131.792 87.3423L122.014 81.6973L70.0527 111.697Z" fill="#8BC5E4"/>
<path d="M79.8301 117.342V166.462L131.792 136.462V87.342L79.8301 117.342Z" fill="#8BC5E4"/>
<path d="M79.8301 166.462L70.0527 160.817L122.014 130.817L131.792 136.462L79.8301 166.462Z" fill="#8BC5E4"/>
<path d="M70.0527 160.817V111.697L122.014 81.6973V130.817L70.0527 160.817Z" fill="#8BC5E4"/>
<path d="M70.0527 111.697L122.014 81.6973L70.0527 111.697Z" fill="#8BC5E4"/>
<path d="M70.0527 170.357L79.8301 176.002L131.792 146.002L122.014 140.357L70.0527 170.357Z" fill="#8BC5E4"/>
<path d="M79.8301 176.002V225.122L131.792 195.122V146.002L79.8301 176.002Z" fill="#8BC5E4"/>
<path d="M79.8301 225.122L70.0527 219.477L122.014 189.477L131.792 195.122L79.8301 225.122Z" fill="#8BC5E4"/>
<path d="M70.0527 219.477V170.357L122.014 140.357V189.477L70.0527 219.477Z" fill="#8BC5E4"/>
<path d="M70.0527 170.357L122.014 140.357L70.0527 170.357Z" fill="#8BC5E4"/>
<path d="M45.8818 97.7422L55.6419 103.377L107.604 73.3772L97.8433 67.7422L45.8818 97.7422Z" fill="#8BC5E4"/>
<path d="M55.6421 103.377V152.497L107.604 122.497V73.3772L55.6421 103.377Z" fill="#8BC5E4"/>
<path d="M55.6419 152.497L45.8818 146.862L97.8433 116.862L107.604 122.497L55.6419 152.497Z" fill="#8BC5E4"/>
<path d="M45.8818 146.862V97.7422L97.8433 67.7422V116.862L45.8818 146.862Z" fill="#8BC5E4"/>
<path d="M45.8818 97.7422L97.8433 67.7422L45.8818 97.7422Z" fill="#8BC5E4"/>
<path d="M45.8818 156.402L55.6419 162.037L107.604 132.037L97.8433 126.402L45.8818 156.402Z" fill="#8BC5E4"/>
<path d="M55.6421 162.037V211.157L107.604 181.157V132.037L55.6421 162.037Z" fill="#8BC5E4"/>
<path d="M55.6419 211.157L45.8818 205.522L97.8433 175.522L107.604 181.157L55.6419 211.157Z" fill="#8BC5E4"/>
<path d="M45.8818 205.522V156.402L97.8433 126.402V175.522L45.8818 205.522Z" fill="#8BC5E4"/>
<path d="M45.8818 156.402L97.8433 126.402L45.8818 156.402Z" fill="#8BC5E4"/>
<path d="M162.579 124.687C165.853 126.577 168.408 130.992 168.408 134.762L220.369 104.762C220.369 100.992 217.814 96.5773 214.541 94.6873L162.579 124.687Z" fill="#8BC5E4"/>
<path d="M168.407 310.322C168.407 312.207 167.769 313.516 166.721 314.117L218.683 284.117C219.731 283.516 220.369 282.207 220.369 280.322L168.407 310.322Z" fill="#8BC5E4"/>
<path d="M166.722 314.116C165.675 314.718 164.219 314.613 162.584 313.67L214.545 283.67C216.18 284.613 217.636 284.718 218.683 284.116L166.722 314.116Z" fill="#8BC5E4"/>
<path d="M10.6262 225.937C7.35265 224.047 4.79785 219.632 4.79785 215.862L56.7593 185.862C56.7593 189.632 59.3142 194.047 62.5878 195.937L10.6262 225.937Z" fill="#8BC5E4"/>
<path d="M4.79785 40.3021C4.79805 38.4171 5.43605 37.1081 6.48405 36.5071L58.4456 6.50708C57.3976 7.10808 56.7595 8.41708 56.7593 10.3021L4.79785 40.3021Z" fill="#8BC5E4"/>
<path d="M6.48291 36.5082C7.52991 35.9062 8.98591 36.0112 10.6209 36.9542L62.5824 6.95419C60.9474 6.01119 59.4914 5.90619 58.4444 6.50819L6.48291 36.5082Z" fill="#8BC5E4"/>
<path d="M10.6259 31.4471C7.70884 29.7631 5.05684 29.5991 3.13184 30.6941L55.0933 0.694141C57.0183 -0.400859 59.6703 -0.236859 62.5875 1.44714L10.6259 31.4471Z" fill="#8BC5E4"/>
<path d="M3.124 30.6992C1.198 31.7992 0.003 34.1612 0 37.5222L51.9615 7.52222C51.9645 4.16122 53.1595 1.79922 55.0855 0.699219L3.124 30.6992Z" fill="#8BC5E4"/>
<path d="M0 213.092C0 219.822 4.7805 228.072 10.6261 231.447L62.5877 201.447C56.742 198.072 51.9615 189.822 51.9615 183.092L0 213.092Z" fill="#8BC5E4"/>
<path d="M162.579 319.177C165.496 320.861 168.148 321.025 170.073 319.93L222.035 289.93C220.11 291.025 217.458 290.861 214.541 289.177L162.579 319.177Z" fill="#8BC5E4"/>
<path d="M170.081 319.925C172.007 318.826 173.202 316.463 173.205 313.102L225.167 283.102C225.164 286.463 223.969 288.826 222.043 289.925L170.081 319.925Z" fill="#8BC5E4"/>
<path d="M173.205 137.532C173.205 130.802 168.425 122.552 162.579 119.177L214.541 89.1772C220.386 92.5522 225.167 100.802 225.167 107.532L173.205 137.532Z" fill="#8BC5E4"/>
<path d="M162.579 124.687C165.853 126.577 168.408 130.992 168.408 134.762L220.369 104.762C220.369 100.992 217.814 96.5773 214.541 94.6873L162.579 124.687Z" fill="#8BC5E4"/>
<path d="M168.407 310.322C168.407 312.207 167.769 313.516 166.721 314.117L218.683 284.117C219.731 283.516 220.369 282.207 220.369 280.322L168.407 310.322Z" fill="#8BC5E4"/>
<path d="M166.722 314.116C165.675 314.718 164.219 314.613 162.584 313.67L214.545 283.67C216.18 284.613 217.636 284.718 218.683 284.116L166.722 314.116Z" fill="#8BC5E4"/>
<path d="M10.6262 225.937C7.35265 224.047 4.79785 219.632 4.79785 215.862L56.7593 185.862C56.7593 189.632 59.3142 194.047 62.5878 195.937L10.6262 225.937Z" fill="#8BC5E4"/>
<path d="M4.79785 40.3021C4.79805 38.4171 5.43605 37.1081 6.48405 36.5071L58.4456 6.50708C57.3976 7.10808 56.7595 8.41708 56.7593 10.3021L4.79785 40.3021Z" fill="#8BC5E4"/>
<path d="M6.48291 36.5082C7.52991 35.9062 8.98591 36.0112 10.6209 36.9542L62.5824 6.95419C60.9474 6.01119 59.4914 5.90619 58.4444 6.50819L6.48291 36.5082Z" fill="#8BC5E4"/>
<path d="M35.6196 80.4373V211.317L137.585 270.187V139.307L35.6196 80.4373ZM45.882 97.7423L55.6421 103.377V152.497L45.882 146.862V97.7423ZM70.0528 111.697L79.8302 117.342V166.462L70.0528 160.817V111.697ZM94.2409 125.662L104.018 131.307V180.427L94.2409 174.782V125.662ZM118.429 139.627L128.206 145.272V194.392L118.429 188.747V139.627ZM45.882 156.402L55.6421 162.037V211.157L45.882 205.522V156.402ZM70.0528 170.357L79.8302 176.002V225.122L70.0528 219.477V170.357ZM94.2409 184.322L104.018 189.967V239.087L94.2409 233.442V184.322ZM118.429 198.287L128.206 203.932V253.052L118.429 247.407V198.287ZM10.6261 36.9573L162.579 124.687C165.853 126.577 168.407 130.992 168.407 134.762V310.322C168.407 314.092 165.853 315.557 162.579 313.667L10.6261 225.937C7.35256 224.047 4.79778 219.632 4.79778 215.862V40.3023C4.79778 36.5323 7.35256 35.0673 10.6261 36.9573ZM10.6261 31.4473C4.78046 28.0723 0 30.8023 0 37.5323V213.092C0 219.822 4.78046 228.072 10.6261 231.447L162.579 319.177C168.425 322.552 173.205 319.822 173.205 313.092V137.532C173.205 130.802 168.425 122.552 162.579 119.177L10.6261 31.4473Z" fill="#8BC5E4"/>
<path fill-rule="evenodd" clip-rule="evenodd" d="M10.6261 36.9573L162.579 124.687C165.853 126.577 168.407 130.992 168.407 134.762V310.322C168.407 314.092 165.853 315.557 162.579 313.667L10.6261 225.937C7.35256 224.047 4.79778 219.632 4.79778 215.862V40.3023C4.79778 36.5323 7.35256 35.0673 10.6261 36.9573ZM35.6196 211.317V80.4373L137.585 139.307V270.187L35.6196 211.317Z" fill="white"/>
<path d="M118.429 139.627L128.206 145.272V194.392L118.429 188.747V139.627Z" fill="white"/>
<path d="M118.429 198.287L128.206 203.932V253.052L118.429 247.407V198.287Z" fill="white"/>
<path d="M94.2409 125.662L104.018 131.307V180.427L94.2409 174.782V125.662Z" fill="white"/>
<path d="M94.2409 184.322L104.018 189.967V239.087L94.2409 233.442V184.322Z" fill="white"/>
<path d="M70.0528 111.697L79.8302 117.342V166.462L70.0528 160.817V111.697Z" fill="white"/>
<path d="M70.0528 170.357L79.8302 176.002V225.122L70.0528 219.477V170.357Z" fill="white"/>
<path d="M45.882 97.7423L55.6421 103.377V152.497L45.882 146.862V97.7423Z" fill="white"/>
<path d="M45.882 156.402L55.6421 162.037V211.157L45.882 205.522V156.402Z" fill="white"/>
</svg>
