<svg width="226" height="326" viewBox="0 0 226 326" fill="none" xmlns="http://www.w3.org/2000/svg">
<path d="M24.6646 99.9922L24.7425 182.917L76.7041 152.917L76.626 69.9922L24.6646 99.9922Z" fill="#8BC5E4"/>
<path d="M24.7422 182.917L25.0107 183.712L76.9722 153.712L76.7038 152.917L24.7422 182.917Z" fill="#8BC5E4"/>
<path d="M147.77 253.557L147.917 253.152L199.878 223.152L199.731 223.557L147.77 253.557Z" fill="#8BC5E4"/>
<path d="M147.917 253.152L148.393 171.437L200.355 141.437L199.879 223.152L147.917 253.152Z" fill="#8BC5E4"/>
<path d="M148.394 171.437V171.427L200.355 141.427V141.437L148.394 171.437Z" fill="#8BC5E4"/>
<path d="M89.4346 105.707L141.396 75.7072L89.4346 105.707Z" fill="#8BC5E4"/>
<path d="M89.4346 111.957L141.396 81.9572L89.4346 111.957Z" fill="#8BC5E4"/>
<path d="M142.877 180.892L142.479 248.772L194.44 218.772L194.838 150.892L142.877 180.892Z" fill="#8BC5E4"/>
<path d="M30.1817 184.487L30.1211 115.912L82.0826 85.9121L82.1432 154.487L30.1817 184.487Z" fill="#8BC5E4"/>
<path d="M142.877 180.892L194.838 150.892L142.877 180.892Z" fill="#8BC5E4"/>
<path d="M10.626 36.9572L162.579 124.687L214.54 94.6872L62.5876 6.95715L10.626 36.9572Z" fill="#8BC5E4"/>
<path d="M168.407 134.762V310.322L220.369 280.322V104.762L168.407 134.762Z" fill="#8BC5E4"/>
<path d="M162.579 313.667L10.626 225.937L62.5876 195.937L214.54 283.667L162.579 313.667Z" fill="#8BC5E4"/>
<path d="M4.79785 215.862V40.3021L56.7593 10.3021V185.862L4.79785 215.862Z" fill="#8BC5E4"/>
<path d="M10.626 36.9572L62.5876 6.95715L10.626 36.9572Z" fill="#8BC5E4"/>
<path d="M0 37.5321V213.092L51.9615 183.092V7.5321L0 37.5321Z" fill="#8BC5E4"/>
<path d="M10.626 231.447L162.579 319.177L214.54 289.177L62.5876 201.447L10.626 231.447Z" fill="#8BC5E4"/>
<path d="M173.205 313.092V137.532L225.167 107.532V283.092L173.205 313.092Z" fill="#8BC5E4"/>
<path d="M162.579 119.177L10.626 31.4471L62.5876 1.44714L214.54 89.1771L162.579 119.177Z" fill="#8BC5E4"/>
<path d="M10.626 31.4471L62.5876 1.44714L10.626 31.4471Z" fill="#8BC5E4"/>
<path d="M10.626 36.9572L162.579 124.687L214.54 94.6872L62.5876 6.95715L10.626 36.9572Z" fill="#8BC5E4"/>
<path d="M168.407 134.762V310.322L220.369 280.322V104.762L168.407 134.762Z" fill="#8BC5E4"/>
<path d="M162.579 313.667L10.626 225.937L62.5876 195.937L214.54 283.667L162.579 313.667Z" fill="#8BC5E4"/>
<path d="M4.79785 215.862V40.3021L56.7593 10.3021V185.862L4.79785 215.862Z" fill="#8BC5E4"/>
<path d="M10.626 36.9572L62.5876 6.95715L10.626 36.9572Z" fill="#8BC5E4"/>
<path d="M148.394 171.427V171.437L200.355 141.437V141.427L148.394 171.427Z" fill="#8BC5E4"/>
<path d="M148.393 171.437L147.917 253.152L199.879 223.152L200.355 141.437L148.393 171.437Z" fill="#8BC5E4"/>
<path d="M147.917 253.152L147.77 253.557L199.731 223.557L199.878 223.152L147.917 253.152Z" fill="#8BC5E4"/>
<path d="M25.0107 183.712L24.7422 182.917L76.7038 152.917L76.9722 153.712L25.0107 183.712Z" fill="#8BC5E4"/>
<path d="M24.7425 182.917L24.6646 99.9922L76.626 69.9922L76.7041 152.917L24.7425 182.917Z" fill="#8BC5E4"/>
<path d="M44.5918 87.7172L96.5534 57.7172L44.5918 87.7172Z" fill="#8BC5E4"/>
<path d="M142.877 180.892L142.479 248.772L194.44 218.772L194.838 150.892L142.877 180.892Z" fill="#8BC5E4"/>
<path d="M30.1817 184.487L30.1211 115.912L82.0826 85.9121L82.1432 154.487L30.1817 184.487Z" fill="#8BC5E4"/>
<path d="M142.877 180.892L194.838 150.892L142.877 180.892Z" fill="#8BC5E4"/>
<path d="M89.4346 111.957L141.396 81.9572L89.4346 111.957Z" fill="#8BC5E4"/>
<path d="M89.4346 105.707C72.0535 95.6722 56.2832 89.3172 44.5918 87.7172L96.5534 57.7172C108.245 59.3172 124.015 65.6722 141.396 75.7072L89.4346 105.707Z" fill="#8BC5E4"/>
<path d="M44.5909 87.7171C39.1673 86.9701 34.5943 87.2301 31.1543 88.7891L83.1158 58.7891C86.5558 57.2301 91.1288 56.9701 96.5525 57.7171L44.5909 87.7171Z" fill="#8BC5E4"/>
<path d="M31.16 88.7871C30.892 88.9081 30.631 89.0371 30.377 89.1741L82.3385 59.1741C82.5925 59.0371 82.8535 58.9081 83.1215 58.7871L31.16 88.7871Z" fill="#8BC5E4"/>
<path d="M30.3715 89.1771C30.145 89.2991 29.924 89.4281 29.708 89.5641L81.6695 59.5641C81.8855 59.4281 82.1065 59.2991 82.333 59.1771L30.3715 89.1771Z" fill="#8BC5E4"/>
<path d="M29.7091 89.5631C26.5841 91.5351 24.6671 94.9921 24.6641 99.9841L76.6256 69.9841C76.6286 64.9921 78.5456 61.5351 81.6706 59.5631L29.7091 89.5631Z" fill="#8BC5E4"/>
<path d="M25.0107 183.712C29.0464 195.632 38.9018 207.052 50.1081 217.242L102.07 187.242C90.8633 177.052 81.0079 165.632 76.9722 153.712L25.0107 183.712Z" fill="#8BC5E4"/>
<path d="M50.1084 217.242C61.3061 227.427 74.0973 236.392 84.7841 242.562L136.746 212.562C126.059 206.392 113.268 197.427 102.07 187.242L50.1084 217.242Z" fill="#8BC5E4"/>
<path d="M84.7832 242.562C97.0721 249.657 111.214 255.762 123.062 258.562L175.023 228.562C163.176 225.762 149.034 219.657 136.745 212.562L84.7832 242.562Z" fill="#8BC5E4"/>
<path d="M123.062 258.562C131.486 260.543 138.953 261.14 143.605 258.514L195.567 228.514C190.915 231.14 183.448 230.543 175.024 228.562L123.062 258.562Z" fill="#8BC5E4"/>
<path d="M143.602 258.516C145.502 257.444 146.933 255.835 147.768 253.563L199.729 223.563C198.894 225.835 197.463 227.444 195.563 228.516L143.602 258.516Z" fill="#8BC5E4"/>
<path d="M148.393 171.427C148.393 166.297 145.873 160.312 142.201 154.432L194.163 124.432C197.835 130.312 200.355 136.297 200.355 141.427L148.393 171.427Z" fill="#8BC5E4"/>
<path d="M142.201 154.432C138.529 148.532 133.592 142.492 127.92 136.547L179.881 106.547C185.554 112.492 190.49 118.532 194.162 124.432L142.201 154.432Z" fill="#8BC5E4"/>
<path d="M127.921 136.547C116.584 124.642 102.295 113.132 89.4346 105.707L141.396 75.7072C154.257 83.1322 168.546 94.6422 179.882 106.547L127.921 136.547Z" fill="#8BC5E4"/>
<path d="M89.4346 111.957C101.481 118.912 115.303 130.052 125.86 141.137L177.821 111.137C167.264 100.052 153.443 88.9122 141.396 81.9572L89.4346 111.957Z" fill="#8BC5E4"/>
<path d="M125.859 141.137C131.133 146.672 135.585 152.202 138.573 156.997L190.534 126.997C187.546 122.202 183.095 116.672 177.821 111.137L125.859 141.137Z" fill="#8BC5E4"/>
<path d="M138.572 156.997C141.551 161.777 142.954 165.547 142.954 168.287L194.916 138.287C194.916 135.547 193.513 131.777 190.534 126.997L138.572 156.997Z" fill="#8BC5E4"/>
<path d="M142.954 168.287C142.954 170.838 141.933 172.722 139.771 173.964L191.733 143.964C193.895 142.722 194.916 140.838 194.916 138.287L142.954 168.287Z" fill="#8BC5E4"/>
<path d="M139.763 173.969C139.38 174.189 138.96 174.388 138.504 174.568L190.465 144.568C190.921 144.388 191.341 144.189 191.724 143.969L139.763 173.969Z" fill="#8BC5E4"/>
<path d="M138.495 174.572C135.464 175.772 130.9 175.887 125.47 175.002L177.431 145.002C182.861 145.887 187.425 145.772 190.456 144.572L138.495 174.572Z" fill="#8BC5E4"/>
<path d="M125.47 175.002C114.602 173.247 100.304 167.552 87.625 160.232L139.586 130.232C152.265 137.552 166.563 143.247 177.432 145.002L125.47 175.002Z" fill="#8BC5E4"/>
<path d="M87.6247 160.232C70.0097 150.062 55.2353 138.402 45.1201 127.822L97.0816 97.8221C107.197 108.402 121.971 120.062 139.586 130.232L87.6247 160.232Z" fill="#8BC5E4"/>
<path d="M45.1197 127.822C40.0535 122.527 36.165 117.512 33.6709 113.272L85.6324 83.2721C88.1265 87.5121 92.015 92.5271 97.0812 97.8221L45.1197 127.822Z" fill="#8BC5E4"/>
<path d="M33.6707 113.272C31.1765 109.012 30.1113 105.727 30.1113 103.137L82.0728 73.1371C82.0728 75.7271 83.138 79.0121 85.6322 83.2721L33.6707 113.272Z" fill="#8BC5E4"/>
<path d="M30.1113 103.137C30.1116 99.8821 31.2516 97.6071 33.7076 96.1091L85.6691 66.1091C83.2131 67.6071 82.0731 69.8821 82.0728 73.1371L30.1113 103.137Z" fill="#8BC5E4"/>
<path d="M33.7012 96.1132C33.8482 96.0232 34.0002 95.9352 34.1572 95.8512L86.1187 65.8512C85.9617 65.9352 85.8097 66.0232 85.6627 66.1132L33.7012 96.1132Z" fill="#8BC5E4"/>
<path d="M34.1641 95.8472C34.3794 95.7312 34.6034 95.6222 34.8364 95.5192L86.7979 65.5192C86.5649 65.6222 86.3409 65.7312 86.1256 65.8472L34.1641 95.8472Z" fill="#8BC5E4"/>
<path d="M34.8369 95.5201C37.5849 94.3081 41.5689 93.9991 46.5239 94.6661L98.4854 64.6661C93.5304 63.9991 89.5464 64.3081 86.7984 65.5201L34.8369 95.5201Z" fill="#8BC5E4"/>
<path d="M46.5312 94.6671C57.2959 96.1521 72.5554 102.212 89.4342 111.957L141.396 81.9571C124.517 72.2121 109.258 66.1521 98.4929 64.6671L46.5312 94.6671Z" fill="#8BC5E4"/>
<path d="M142.479 248.772C142.018 249.833 141.194 250.701 140.055 251.372L192.016 221.372C193.155 220.701 193.979 219.833 194.441 218.772L142.479 248.772Z" fill="#8BC5E4"/>
<path d="M140.055 251.371C136.492 253.469 129.839 253.627 121.52 251.659L173.481 221.659C181.8 223.627 188.453 223.469 192.016 221.371L140.055 251.371Z" fill="#8BC5E4"/>
<path d="M121.511 251.657C110.314 249.022 96.5265 243.092 84.7832 236.312L136.745 206.312C148.488 213.092 162.275 219.022 173.473 221.657L121.511 251.657Z" fill="#8BC5E4"/>
<path d="M84.7838 236.312C74.5733 230.417 62.1372 221.677 51.6064 212.107L103.568 182.107C114.099 191.677 126.535 200.417 136.745 206.312L84.7838 236.312Z" fill="#8BC5E4"/>
<path d="M51.6071 212.107C41.362 202.782 33.204 192.702 30.1816 184.487L82.1431 154.487C85.1655 162.702 93.3235 172.782 103.569 182.107L51.6071 212.107Z" fill="#8BC5E4"/>
<path d="M30.1211 115.912C33.308 121.252 37.6641 126.787 43.0681 132.437L95.0297 102.437C89.6257 96.7871 85.2696 91.2521 82.0826 85.9121L30.1211 115.912Z" fill="#8BC5E4"/>
<path d="M43.0674 132.437C54.1093 143.982 69.4552 155.992 87.6245 166.482L139.586 136.482C121.417 125.992 106.071 113.982 95.029 102.437L43.0674 132.437Z" fill="#8BC5E4"/>
<path d="M87.625 166.482C100.936 174.167 115.658 180.067 127.315 181.957L179.276 151.957C167.62 150.067 152.897 144.167 139.586 136.482L87.625 166.482Z" fill="#8BC5E4"/>
<path d="M127.314 181.957C133.151 182.897 138.226 182.867 142.011 181.372L193.972 151.372C190.188 152.867 185.113 152.897 179.276 151.957L127.314 181.957Z" fill="#8BC5E4"/>
<path d="M142.011 181.372C142.133 181.325 142.246 181.266 142.358 181.202L194.319 151.202C194.207 151.266 194.094 151.325 193.972 151.372L142.011 181.372Z" fill="#8BC5E4"/>
<path d="M142.355 181.203C142.527 181.104 142.692 180.993 142.87 180.896L194.832 150.896C194.654 150.993 194.489 151.104 194.317 151.203L142.355 181.203Z" fill="#8BC5E4"/>
<path d="M162.579 124.687C165.853 126.577 168.408 130.992 168.408 134.762L220.369 104.762C220.369 100.992 217.814 96.5771 214.541 94.6871L162.579 124.687Z" fill="#8BC5E4"/>
<path d="M168.407 310.322C168.407 312.207 167.769 313.516 166.721 314.117L218.682 284.117C219.73 283.516 220.368 282.207 220.369 280.322L168.407 310.322Z" fill="#8BC5E4"/>
<path d="M166.722 314.116C165.675 314.718 164.219 314.613 162.584 313.67L214.545 283.67C216.18 284.613 217.636 284.718 218.683 284.116L166.722 314.116Z" fill="#8BC5E4"/>
<path d="M10.6262 225.937C7.35265 224.047 4.79785 219.632 4.79785 215.862L56.7593 185.862C56.7593 189.632 59.3142 194.047 62.5878 195.937L10.6262 225.937Z" fill="#8BC5E4"/>
<path d="M4.79785 40.3021C4.79805 38.4171 5.43605 37.1081 6.48405 36.5071L58.4456 6.50708C57.3976 7.10808 56.7595 8.41708 56.7593 10.3021L4.79785 40.3021Z" fill="#8BC5E4"/>
<path d="M6.48291 36.5082C7.52991 35.9062 8.98591 36.0112 10.6209 36.9542L62.5824 6.95419C60.9474 6.01119 59.4914 5.90619 58.4444 6.50819L6.48291 36.5082Z" fill="#8BC5E4"/>
<path d="M10.6259 31.4471C7.70884 29.7631 5.05684 29.5991 3.13184 30.6941L55.0933 0.694141C57.0183 -0.400859 59.6703 -0.236859 62.5875 1.44714L10.6259 31.4471Z" fill="#8BC5E4"/>
<path d="M3.124 30.6991C1.198 31.7991 0.003 34.1611 0 37.5221L51.9615 7.5221C51.9645 4.1611 53.1595 1.7991 55.0855 0.699097L3.124 30.6991Z" fill="#8BC5E4"/>
<path d="M0 213.092C0 219.822 4.7805 228.072 10.6261 231.447L62.5877 201.447C56.742 198.072 51.9615 189.822 51.9615 183.092L0 213.092Z" fill="#8BC5E4"/>
<path d="M162.579 319.177C165.496 320.861 168.148 321.025 170.073 319.93L222.035 289.93C220.11 291.025 217.458 290.861 214.541 289.177L162.579 319.177Z" fill="#8BC5E4"/>
<path d="M170.081 319.925C172.007 318.826 173.202 316.463 173.205 313.102L225.167 283.102C225.164 286.463 223.969 288.826 222.043 289.925L170.081 319.925Z" fill="#8BC5E4"/>
<path d="M173.205 137.532C173.205 130.802 168.425 122.552 162.579 119.177L214.541 89.1771C220.386 92.5521 225.167 100.802 225.167 107.532L173.205 137.532Z" fill="#8BC5E4"/>
<path d="M162.579 124.687C165.853 126.577 168.408 130.992 168.408 134.762L220.369 104.762C220.369 100.992 217.814 96.5771 214.541 94.6871L162.579 124.687Z" fill="#8BC5E4"/>
<path d="M168.407 310.322C168.407 312.207 167.769 313.516 166.721 314.117L218.682 284.117C219.73 283.516 220.368 282.207 220.369 280.322L168.407 310.322Z" fill="#8BC5E4"/>
<path d="M166.722 314.116C165.675 314.718 164.219 314.613 162.584 313.67L214.545 283.67C216.18 284.613 217.636 284.718 218.683 284.116L166.722 314.116Z" fill="#8BC5E4"/>
<path d="M10.6262 225.937C7.35265 224.047 4.79785 219.632 4.79785 215.862L56.7593 185.862C56.7593 189.632 59.3142 194.047 62.5878 195.937L10.6262 225.937Z" fill="#8BC5E4"/>
<path d="M4.79785 40.3021C4.79805 38.4171 5.43605 37.1081 6.48405 36.5071L58.4456 6.50708C57.3976 7.10808 56.7595 8.41708 56.7593 10.3021L4.79785 40.3021Z" fill="#8BC5E4"/>
<path d="M6.48291 36.5082C7.52991 35.9062 8.98591 36.0112 10.6209 36.9542L62.5824 6.95419C60.9474 6.01119 59.4914 5.90619 58.4444 6.50819L6.48291 36.5082Z" fill="#8BC5E4"/>
<path d="M44.5918 87.7172C56.2832 89.3172 72.0535 95.6722 89.4346 105.707L141.396 75.7072C124.015 65.6722 108.245 59.3172 96.5534 57.7172L44.5918 87.7172Z" fill="#8BC5E4"/>
<path d="M89.4346 105.707C102.295 113.132 116.584 124.642 127.921 136.547L179.882 106.547C168.546 94.6422 154.257 83.1322 141.396 75.7072L89.4346 105.707Z" fill="#8BC5E4"/>
<path d="M127.92 136.547C133.592 142.492 138.529 148.532 142.201 154.432L194.162 124.432C190.49 118.532 185.554 112.492 179.881 106.547L127.92 136.547Z" fill="#8BC5E4"/>
<path d="M142.201 154.432C145.873 160.312 148.393 166.297 148.393 171.427L200.355 141.427C200.355 136.297 197.835 130.312 194.163 124.432L142.201 154.432Z" fill="#8BC5E4"/>
<path d="M147.77 253.557C146.936 255.831 145.505 257.442 143.605 258.514L195.567 228.514C197.467 227.442 198.898 225.831 199.732 223.557L147.77 253.557Z" fill="#8BC5E4"/>
<path d="M143.605 258.513C138.955 261.139 131.491 260.543 123.07 258.564L175.032 228.564C183.453 230.543 190.917 231.139 195.567 228.513L143.605 258.513Z" fill="#8BC5E4"/>
<path d="M123.062 258.562C111.214 255.762 97.0721 249.657 84.7832 242.562L136.745 212.562C149.034 219.657 163.176 225.762 175.023 228.562L123.062 258.562Z" fill="#8BC5E4"/>
<path d="M84.7841 242.562C74.0973 236.392 61.3061 227.427 50.1084 217.242L102.07 187.242C113.268 197.427 126.059 206.392 136.746 212.562L84.7841 242.562Z" fill="#8BC5E4"/>
<path d="M50.1081 217.242C38.9018 207.052 29.0464 195.632 25.0107 183.712L76.9722 153.712C81.0079 165.632 90.8633 177.052 102.07 187.242L50.1081 217.242Z" fill="#8BC5E4"/>
<path d="M24.6646 99.9921C24.6642 94.9961 26.5822 91.5361 29.7082 89.5641L81.6697 59.5641C78.5437 61.5361 76.6256 64.9961 76.626 69.9921L24.6646 99.9921Z" fill="#8BC5E4"/>
<path d="M29.7031 89.5672C29.9191 89.4312 30.1401 89.3022 30.3661 89.1802L82.3276 59.1802C82.1016 59.3022 81.8806 59.4312 81.6646 59.5672L29.7031 89.5672Z" fill="#8BC5E4"/>
<path d="M30.3711 89.1772C30.6256 89.0402 30.8866 88.9102 31.1546 88.7892L83.1161 58.7892C82.8481 58.9102 82.5871 59.0402 82.3326 59.1772L30.3711 89.1772Z" fill="#8BC5E4"/>
<path d="M31.1543 88.7891C34.5933 87.2311 39.1633 86.9701 44.5833 87.7161L96.5448 57.7161C91.1248 56.9701 86.5548 57.2311 83.1158 58.7891L31.1543 88.7891Z" fill="#8BC5E4"/>
<path d="M142.479 248.772C142.018 249.833 141.194 250.701 140.055 251.372L192.016 221.372C193.155 220.701 193.979 219.833 194.441 218.772L142.479 248.772Z" fill="#8BC5E4"/>
<path d="M140.055 251.371C136.492 253.469 129.839 253.627 121.52 251.659L173.481 221.659C181.8 223.627 188.453 223.469 192.016 221.371L140.055 251.371Z" fill="#8BC5E4"/>
<path d="M121.511 251.657C110.314 249.022 96.5265 243.092 84.7832 236.312L136.745 206.312C148.488 213.092 162.275 219.022 173.473 221.657L121.511 251.657Z" fill="#8BC5E4"/>
<path d="M84.7838 236.312C74.5733 230.417 62.1372 221.677 51.6064 212.107L103.568 182.107C114.099 191.677 126.535 200.417 136.745 206.312L84.7838 236.312Z" fill="#8BC5E4"/>
<path d="M51.6071 212.107C41.362 202.782 33.204 192.702 30.1816 184.487L82.1431 154.487C85.1655 162.702 93.3235 172.782 103.569 182.107L51.6071 212.107Z" fill="#8BC5E4"/>
<path d="M30.1211 115.912C33.308 121.252 37.6641 126.787 43.0681 132.437L95.0297 102.437C89.6257 96.7871 85.2696 91.2521 82.0826 85.9121L30.1211 115.912Z" fill="#8BC5E4"/>
<path d="M43.0674 132.437C54.1093 143.982 69.4552 155.992 87.6245 166.482L139.586 136.482C121.417 125.992 106.071 113.982 95.029 102.437L43.0674 132.437Z" fill="#8BC5E4"/>
<path d="M87.625 166.482C100.936 174.167 115.658 180.067 127.315 181.957L179.276 151.957C167.62 150.067 152.897 144.167 139.586 136.482L87.625 166.482Z" fill="#8BC5E4"/>
<path d="M127.314 181.957C133.151 182.897 138.226 182.867 142.011 181.372L193.972 151.372C190.188 152.867 185.113 152.897 179.276 151.957L127.314 181.957Z" fill="#8BC5E4"/>
<path d="M142.011 181.372C142.133 181.325 142.246 181.266 142.358 181.202L194.319 151.202C194.207 151.266 194.094 151.325 193.972 151.372L142.011 181.372Z" fill="#8BC5E4"/>
<path d="M142.355 181.203C142.527 181.104 142.692 180.993 142.87 180.896L194.832 150.896C194.654 150.993 194.489 151.104 194.317 151.203L142.355 181.203Z" fill="#8BC5E4"/>
<path d="M89.4346 111.957C101.481 118.912 115.303 130.052 125.86 141.137L177.821 111.137C167.264 100.052 153.443 88.9122 141.396 81.9572L89.4346 111.957Z" fill="#8BC5E4"/>
<path d="M125.859 141.137C131.133 146.672 135.585 152.202 138.573 156.997L190.534 126.997C187.546 122.202 183.095 116.672 177.821 111.137L125.859 141.137Z" fill="#8BC5E4"/>
<path d="M138.572 156.997C141.551 161.777 142.954 165.547 142.954 168.287L194.916 138.287C194.916 135.547 193.513 131.777 190.534 126.997L138.572 156.997Z" fill="#8BC5E4"/>
<path d="M142.954 168.287C142.954 170.838 141.933 172.722 139.771 173.964L191.733 143.964C193.895 142.722 194.916 140.838 194.916 138.287L142.954 168.287Z" fill="#8BC5E4"/>
<path d="M139.763 173.969C139.38 174.189 138.96 174.388 138.504 174.568L190.465 144.568C190.921 144.388 191.341 144.189 191.724 143.969L139.763 173.969Z" fill="#8BC5E4"/>
<path d="M138.495 174.572C135.464 175.772 130.9 175.887 125.47 175.002L177.431 145.002C182.861 145.887 187.425 145.772 190.456 144.572L138.495 174.572Z" fill="#8BC5E4"/>
<path d="M125.47 175.002C114.602 173.247 100.304 167.552 87.625 160.232L139.586 130.232C152.265 137.552 166.563 143.247 177.432 145.002L125.47 175.002Z" fill="#8BC5E4"/>
<path d="M87.6247 160.232C70.0097 150.062 55.2353 138.402 45.1201 127.822L97.0816 97.8221C107.197 108.402 121.971 120.062 139.586 130.232L87.6247 160.232Z" fill="#8BC5E4"/>
<path d="M45.1197 127.822C40.0535 122.527 36.165 117.512 33.6709 113.272L85.6324 83.2721C88.1265 87.5121 92.015 92.5271 97.0812 97.8221L45.1197 127.822Z" fill="#8BC5E4"/>
<path d="M33.6707 113.272C31.1765 109.012 30.1113 105.727 30.1113 103.137L82.0728 73.1371C82.0728 75.7271 83.138 79.0121 85.6322 83.2721L33.6707 113.272Z" fill="#8BC5E4"/>
<path d="M30.1113 103.137C30.1116 99.8821 31.2516 97.6071 33.7076 96.1091L85.6691 66.1091C83.2131 67.6071 82.0731 69.8821 82.0728 73.1371L30.1113 103.137Z" fill="#8BC5E4"/>
<path d="M33.7012 96.1132C33.8482 96.0232 34.0002 95.9352 34.1572 95.8512L86.1187 65.8512C85.9617 65.9352 85.8097 66.0232 85.6627 66.1132L33.7012 96.1132Z" fill="#8BC5E4"/>
<path d="M34.1641 95.8472C34.3794 95.7312 34.6034 95.6222 34.8364 95.5192L86.7979 65.5192C86.5649 65.6222 86.3409 65.7312 86.1256 65.8472L34.1641 95.8472Z" fill="#8BC5E4"/>
<path d="M34.8369 95.5201C37.5849 94.3081 41.5689 93.9991 46.5239 94.6661L98.4854 64.6661C93.5304 63.9991 89.5464 64.3081 86.7984 65.5201L34.8369 95.5201Z" fill="#8BC5E4"/>
<path d="M46.5312 94.6671C57.2959 96.1521 72.5554 102.212 89.4342 111.957L141.396 81.9571C124.517 72.2121 109.258 66.1521 98.4929 64.6671L46.5312 94.6671Z" fill="#8BC5E4"/>
<path d="M89.4344 105.707C72.0533 95.6721 56.283 89.3171 44.5916 87.7171C38.746 86.9121 33.8876 87.2771 30.3715 89.1771C26.8554 91.0671 24.6644 94.6521 24.6644 99.9921L24.7423 182.917L25.0108 183.712C29.0465 195.632 38.9019 207.052 50.1082 217.242C61.3059 227.427 74.0971 236.392 84.7839 242.562C97.0728 249.657 111.215 255.762 123.062 258.562C134.927 261.352 144.895 261.397 147.77 253.557L147.917 253.152L148.393 171.437V171.427C148.393 166.297 145.873 160.312 142.201 154.432C138.529 148.532 133.593 142.492 127.921 136.547C116.584 124.642 102.295 113.132 89.4344 105.707ZM89.4344 111.957C101.481 118.912 115.303 130.052 125.859 141.137C131.134 146.672 135.585 152.202 138.573 156.997C141.552 161.777 142.955 165.547 142.955 168.287C142.955 171.297 141.535 173.377 138.495 174.572C135.464 175.772 130.9 175.887 125.47 175.002C114.601 173.247 100.303 167.552 87.6244 160.232C70.0095 150.062 55.2351 138.402 45.1199 127.822C40.0537 122.527 36.1652 117.512 33.6711 113.272C31.1769 109.012 30.1117 105.727 30.1117 103.137C30.1117 99.6871 31.3934 97.3371 34.1647 95.8471C36.9187 94.3671 41.1535 93.9421 46.5315 94.6671C57.2962 96.1521 72.5556 102.212 89.4344 111.957ZM142.877 180.892L142.479 248.772C140.573 253.152 132.493 254.257 121.512 251.657C110.314 249.022 96.5272 243.092 84.7839 236.312C74.5734 230.417 62.1373 221.677 51.6065 212.107C41.3614 202.782 33.2034 192.702 30.181 184.487L30.1204 115.912C33.3073 121.252 37.6634 126.787 43.0674 132.437C54.1093 143.982 69.4552 155.992 87.6244 166.482C100.935 174.167 115.658 180.067 127.314 181.957C133.151 182.897 138.226 182.867 142.011 181.372C142.323 181.252 142.582 181.052 142.877 180.892ZM10.6261 36.9571L162.579 124.687C165.853 126.577 168.407 130.992 168.407 134.762V310.322C168.407 314.092 165.853 315.557 162.579 313.667L10.6261 225.937C7.35256 224.047 4.79778 219.632 4.79778 215.862V40.3021C4.79778 36.5321 7.35256 35.0671 10.6261 36.9571ZM10.6261 31.4471C4.78046 28.0721 0 30.8021 0 37.5321V213.092C0 219.822 4.78046 228.072 10.6261 231.447L162.579 319.177C168.425 322.552 173.205 319.822 173.205 313.092V137.532C173.205 130.802 168.425 122.552 162.579 119.177L10.6261 31.4471Z" fill="#8BC5E4"/>
<path fill-rule="evenodd" clip-rule="evenodd" d="M10.6261 36.9571L162.579 124.687C165.853 126.577 168.407 130.992 168.407 134.762V310.322C168.407 314.092 165.853 315.557 162.579 313.667L10.6261 225.937C7.35256 224.047 4.79778 219.632 4.79778 215.862V40.3021C4.79778 36.5321 7.35256 35.0671 10.6261 36.9571ZM44.5916 87.7171C56.283 89.3171 72.0533 95.6721 89.4344 105.707C102.295 113.132 116.584 124.642 127.921 136.547C133.593 142.492 138.529 148.532 142.201 154.432C145.873 160.312 148.393 166.297 148.393 171.427V171.437L147.917 253.152L147.77 253.557C144.895 261.397 134.927 261.352 123.062 258.562C111.215 255.762 97.0728 249.657 84.7839 242.562C74.0971 236.392 61.3059 227.427 50.1082 217.242C38.9019 207.052 29.0465 195.632 25.0108 183.712L24.7423 182.917L24.6644 99.9921C24.6644 94.6521 26.8554 91.0671 30.3715 89.1771C33.8876 87.2771 38.746 86.9121 44.5916 87.7171Z" fill="white"/>
<path d="M142.877 180.892L142.479 248.772C140.573 253.152 132.493 254.257 121.512 251.657C110.314 249.022 96.5272 243.092 84.7839 236.312C74.5734 230.417 62.1373 221.677 51.6065 212.107C41.3614 202.782 33.2034 192.702 30.181 184.487L30.1204 115.912C33.3073 121.252 37.6634 126.787 43.0674 132.437C54.1093 143.982 69.4552 155.992 87.6244 166.482C100.935 174.167 115.658 180.067 127.314 181.957C133.151 182.897 138.226 182.867 142.011 181.372C142.323 181.252 142.582 181.052 142.877 180.892Z" fill="white"/>
<path d="M89.4344 111.957C101.481 118.912 115.303 130.052 125.859 141.137C131.134 146.672 135.585 152.202 138.573 156.997C141.552 161.777 142.955 165.547 142.955 168.287C142.955 171.297 141.535 173.377 138.495 174.572C135.464 175.772 130.9 175.887 125.47 175.002C114.601 173.247 100.303 167.552 87.6244 160.232C70.0095 150.062 55.2351 138.402 45.1199 127.822C40.0537 122.527 36.1652 117.512 33.6711 113.272C31.1769 109.012 30.1117 105.727 30.1117 103.137C30.1117 99.6871 31.3934 97.3371 34.1647 95.8471C36.9187 94.3671 41.1535 93.9421 46.5315 94.6671C57.2962 96.1521 72.5556 102.212 89.4344 111.957Z" fill="white"/>
</svg>
