<svg width="148" height="281" viewBox="0 0 148 281" fill="none" xmlns="http://www.w3.org/2000/svg">
<path d="M61.4531 90.5669L65.8265 92.5919L117.788 62.5919L113.415 60.5669L61.4531 90.5669Z" fill="#8BC5E4"/>
<path d="M78.904 90.402L74.418 88.052L126.379 58.052L130.865 60.402L78.904 90.402Z" fill="#8BC5E4"/>
<path d="M61.4531 90.5669L113.415 60.5669L61.4531 90.5669Z" fill="#8BC5E4"/>
<path d="M40.1836 86.8569V60.5369L92.1451 30.5369V56.8569L40.1836 86.8569Z" fill="#8BC5E4"/>
<path d="M40.1836 60.5369L44.557 63.0619L96.5185 33.0619L92.1451 30.5369L40.1836 60.5369Z" fill="#8BC5E4"/>
<path d="M44.5566 63.062L53.6499 85.882L105.611 55.882L96.5181 33.062L44.5566 63.062Z" fill="#8BC5E4"/>
<path d="M53.6504 85.882V68.312L105.612 38.312V55.882L53.6504 85.882Z" fill="#8BC5E4"/>
<path d="M53.6504 68.312L57.8246 70.722L109.786 40.722L105.612 38.312L53.6504 68.312Z" fill="#8BC5E4"/>
<path d="M57.8242 70.7219V97.0419L109.786 67.0419V40.7219L57.8242 70.7219Z" fill="#8BC5E4"/>
<path d="M57.8248 97.042L53.3301 94.447L105.292 64.447L109.786 67.042L57.8248 97.042Z" fill="#8BC5E4"/>
<path d="M53.3294 94.4469L44.3574 72.0969L96.3189 42.0969L105.291 64.4469L53.3294 94.4469Z" fill="#8BC5E4"/>
<path d="M44.3574 72.0969V89.2669L96.3189 59.2669V42.0969L44.3574 72.0969Z" fill="#8BC5E4"/>
<path d="M44.3578 89.2669L40.1836 86.8569L92.1451 56.8569L96.3193 59.2669L44.3578 89.2669Z" fill="#8BC5E4"/>
<path d="M40.1836 86.8569L92.1451 56.8569L40.1836 86.8569Z" fill="#8BC5E4"/>
<path d="M17.667 47.5369L25.8683 52.2719L77.8298 22.2719L69.6285 17.5369L17.667 47.5369Z" fill="#8BC5E4"/>
<path d="M26.1194 78.7369L17.667 73.8569L69.6285 43.8569L78.081 48.7369L26.1194 78.7369Z" fill="#8BC5E4"/>
<path d="M17.667 73.8569V47.5369L69.6285 17.5369V43.8569L17.667 73.8569Z" fill="#8BC5E4"/>
<path d="M17.667 47.5369L69.6285 17.5369L17.667 47.5369Z" fill="#8BC5E4"/>
<path d="M22.1533 54.5769V72.0069L74.1149 42.0069V24.5769L22.1533 54.5769Z" fill="#8BC5E4"/>
<path d="M22.1533 72.0068L25.5135 73.9468L77.475 43.9468L74.1149 42.0068L22.1533 72.0068Z" fill="#8BC5E4"/>
<path d="M24.1798 55.7469L22.1533 54.5769L74.1149 24.5769L76.1414 25.7469L24.1798 55.7469Z" fill="#8BC5E4"/>
<path d="M22.1533 54.5769L74.1149 24.5769L22.1533 54.5769Z" fill="#8BC5E4"/>
<path d="M95.2627 130.607V92.627L147.224 62.627V100.607L95.2627 130.607Z" fill="#8BC5E4"/>
<path d="M84.8275 74.3818L10.332 31.3718L62.2935 1.37183L136.789 44.3818L84.8275 74.3818Z" fill="#8BC5E4"/>
<path d="M0 37.627V75.607L51.9615 45.607V7.62695L0 37.627Z" fill="#8BC5E4"/>
<path d="M0 75.6069L95.2628 130.607L147.224 100.607L51.9615 45.6069L0 75.6069Z" fill="#8BC5E4"/>
<path d="M95.2627 130.607L147.224 100.607L95.2627 130.607Z" fill="#8BC5E4"/>
<path d="M0 196.257V213.187L51.9615 183.187V166.257L0 196.257Z" fill="#8BC5E4"/>
<path d="M10.332 231.372L84.8275 274.382L136.789 244.382L62.2935 201.372L10.332 231.372Z" fill="#8BC5E4"/>
<path d="M95.2627 268.187V251.257L147.224 221.257V238.187L95.2627 268.187Z" fill="#8BC5E4"/>
<path d="M95.2628 251.257L0 196.257L51.9615 166.257L147.224 221.257L95.2628 251.257Z" fill="#8BC5E4"/>
<path d="M0 196.257L51.9615 166.257L0 196.257Z" fill="#8BC5E4"/>
<path d="M90.8545 254.142V265.642L142.816 235.642V224.142L90.8545 254.142Z" fill="#8BC5E4"/>
<path d="M84.8275 269.172L10.332 226.162L62.2935 196.162L136.789 239.172L84.8275 269.172Z" fill="#8BC5E4"/>
<path d="M4.4082 215.732V204.232L56.3697 174.232V185.732L4.4082 215.732Z" fill="#8BC5E4"/>
<path d="M4.4082 204.232L90.8548 254.142L142.816 224.142L56.3697 174.232L4.4082 204.232Z" fill="#8BC5E4"/>
<path d="M90.8545 254.142L142.816 224.142L90.8545 254.142Z" fill="#8BC5E4"/>
<path d="M4.4082 72.7919V40.1719L56.3697 10.1719V42.7919L4.4082 72.7919Z" fill="#8BC5E4"/>
<path d="M10.332 36.582L84.8275 79.592L136.789 49.592L62.2935 6.58203L10.332 36.582Z" fill="#8BC5E4"/>
<path d="M90.8545 90.082V122.702L142.816 92.702V60.082L90.8545 90.082Z" fill="#8BC5E4"/>
<path d="M90.8548 122.702L4.4082 72.792L56.3697 42.792L142.816 92.702L90.8548 122.702Z" fill="#8BC5E4"/>
<path d="M4.4082 72.792L56.3697 42.792L4.4082 72.792Z" fill="#8BC5E4"/>
<path d="M47.6924 121.242L99.6539 91.2419L47.6924 121.242Z" fill="#8BC5E4"/>
<path d="M46.3672 124.267V132.797L98.3287 102.797V94.2668L46.3672 124.267Z" fill="#8BC5E4"/>
<path d="M49.0088 134.322V125.792L100.97 95.792V104.322L49.0088 134.322Z" fill="#8BC5E4"/>
<path d="M46.3672 124.267L98.3287 94.2668L46.3672 124.267Z" fill="#8BC5E4"/>
<path d="M0 164.117V166.727L51.9615 136.727V134.117L0 164.117Z" fill="#8BC5E4"/>
<path d="M0 166.727V191.257L51.9615 161.257V136.727L0 166.727Z" fill="#8BC5E4"/>
<path d="M0 191.257L95.2628 246.257L147.224 216.257L51.9615 161.257L0 191.257Z" fill="#8BC5E4"/>
<path d="M95.2627 246.257V219.117L147.224 189.117V216.257L95.2627 246.257Z" fill="#8BC5E4"/>
<path d="M95.2628 219.117L0 164.117L51.9615 134.117L147.224 189.117L95.2628 219.117Z" fill="#8BC5E4"/>
<path d="M0 164.117L51.9615 134.117L0 164.117Z" fill="#8BC5E4"/>
<path d="M4.4082 171.872L90.8548 221.782L142.816 191.782L56.3697 141.872L4.4082 171.872Z" fill="#8BC5E4"/>
<path d="M90.8545 221.782V238.492L142.816 208.492V191.782L90.8545 221.782Z" fill="#8BC5E4"/>
<path d="M90.8548 238.492L4.4082 188.582L56.3697 158.582L142.816 208.492L90.8548 238.492Z" fill="#8BC5E4"/>
<path d="M4.4082 188.582V171.872L56.3697 141.872V158.582L4.4082 188.582Z" fill="#8BC5E4"/>
<path d="M4.4082 171.872L56.3697 141.872L4.4082 171.872Z" fill="#8BC5E4"/>
<path d="M0 79.5168V82.1168L51.9615 52.1168V49.5168L0 79.5168Z" fill="#8BC5E4"/>
<path d="M0 82.1169V158.557L51.9615 128.557V52.1169L0 82.1169Z" fill="#8BC5E4"/>
<path d="M0 158.557L95.2628 213.557L147.224 183.557L51.9615 128.557L0 158.557Z" fill="#8BC5E4"/>
<path d="M95.2627 213.557V134.517L147.224 104.517V183.557L95.2627 213.557Z" fill="#8BC5E4"/>
<path d="M95.2628 134.517L0 79.5168L51.9615 49.5168L147.224 104.517L95.2628 134.517Z" fill="#8BC5E4"/>
<path d="M0 79.5168L51.9615 49.5168L0 79.5168Z" fill="#8BC5E4"/>
<path d="M4.4082 87.272L90.8548 137.182L142.816 107.182L56.3697 57.272L4.4082 87.272Z" fill="#8BC5E4"/>
<path d="M90.8545 137.182V205.802L142.816 175.802V107.182L90.8545 137.182Z" fill="#8BC5E4"/>
<path d="M90.8548 205.802L4.4082 155.892L56.3697 125.892L142.816 175.802L90.8548 205.802Z" fill="#8BC5E4"/>
<path d="M4.4082 155.892V87.272L56.3697 57.272V125.892L4.4082 155.892Z" fill="#8BC5E4"/>
<path d="M4.4082 87.272L56.3697 57.272L4.4082 87.272Z" fill="#8BC5E4"/>
<path d="M4.4082 87.272L90.8548 137.182L142.816 107.182L56.3697 57.272L4.4082 87.272Z" fill="#8BC5E4"/>
<path d="M90.8545 137.182V205.802L142.816 175.802V107.182L90.8545 137.182Z" fill="#8BC5E4"/>
<path d="M90.8548 205.802L4.4082 155.892L56.3697 125.892L142.816 175.802L90.8548 205.802Z" fill="#8BC5E4"/>
<path d="M4.4082 155.892V87.272L56.3697 57.272V125.892L4.4082 155.892Z" fill="#8BC5E4"/>
<path d="M4.4082 87.272L56.3697 57.272L4.4082 87.272Z" fill="#8BC5E4"/>
<path d="M37.4902 127.412L89.4518 97.4119L37.4902 127.412Z" fill="#8BC5E4"/>
<path d="M4.4082 72.7919V40.1719L56.3697 10.1719V42.7919L4.4082 72.7919Z" fill="#8BC5E4"/>
<path d="M10.332 36.582L84.8275 79.592L136.789 49.592L62.2935 6.58203L10.332 36.582Z" fill="#8BC5E4"/>
<path d="M90.8545 90.082V122.702L142.816 92.702V60.082L90.8545 90.082Z" fill="#8BC5E4"/>
<path d="M90.8548 122.702L4.4082 72.792L56.3697 42.792L142.816 92.702L90.8548 122.702Z" fill="#8BC5E4"/>
<path d="M4.4082 72.792L56.3697 42.792L4.4082 72.792Z" fill="#8BC5E4"/>
<path d="M65.8265 92.5919L61.4531 90.5669L113.415 60.5669L117.788 62.5919L65.8265 92.5919Z" fill="#8BC5E4"/>
<path d="M74.418 88.052L78.904 90.402L130.865 60.402L126.379 58.052L74.418 88.052Z" fill="#8BC5E4"/>
<path d="M65.8262 92.5918L117.788 62.5918L65.8262 92.5918Z" fill="#8BC5E4"/>
<path d="M40.1836 60.5369V86.8569L92.1451 56.8569V30.5369L40.1836 60.5369Z" fill="#8BC5E4"/>
<path d="M40.1836 86.8569L44.3578 89.2669L96.3193 59.2669L92.1451 56.8569L40.1836 86.8569Z" fill="#8BC5E4"/>
<path d="M44.3574 89.2669V72.0969L96.3189 42.0969V59.2669L44.3574 89.2669Z" fill="#8BC5E4"/>
<path d="M44.3574 72.0969L53.3294 94.4469L105.291 64.4469L96.3189 42.0969L44.3574 72.0969Z" fill="#8BC5E4"/>
<path d="M53.3301 94.447L57.8248 97.042L109.786 67.042L105.292 64.447L53.3301 94.447Z" fill="#8BC5E4"/>
<path d="M57.8242 97.0419V70.7219L109.786 40.7219V67.0419L57.8242 97.0419Z" fill="#8BC5E4"/>
<path d="M57.8246 70.722L53.6504 68.312L105.612 38.312L109.786 40.722L57.8246 70.722Z" fill="#8BC5E4"/>
<path d="M53.6504 68.312V85.882L105.612 55.882V38.312L53.6504 68.312Z" fill="#8BC5E4"/>
<path d="M53.6499 85.882L44.5566 63.062L96.5181 33.062L105.611 55.882L53.6499 85.882Z" fill="#8BC5E4"/>
<path d="M44.557 63.0619L40.1836 60.5369L92.1451 30.5369L96.5185 33.0619L44.557 63.0619Z" fill="#8BC5E4"/>
<path d="M40.1836 60.5369L92.1451 30.5369L40.1836 60.5369Z" fill="#8BC5E4"/>
<path d="M25.8683 52.2719L17.667 47.5369L69.6285 17.5369L77.8298 22.2719L25.8683 52.2719Z" fill="#8BC5E4"/>
<path d="M17.667 47.5369V73.8569L69.6285 43.8569V17.5369L17.667 47.5369Z" fill="#8BC5E4"/>
<path d="M17.667 73.8569L26.1194 78.7369L78.081 48.7369L69.6285 43.8569L17.667 73.8569Z" fill="#8BC5E4"/>
<path d="M25.8682 52.272L77.8297 22.272L25.8682 52.272Z" fill="#8BC5E4"/>
<path d="M22.1533 54.5769V72.0069L74.1149 42.0069V24.5769L22.1533 54.5769Z" fill="#8BC5E4"/>
<path d="M22.1533 72.0068L25.5135 73.9468L77.475 43.9468L74.1149 42.0068L22.1533 72.0068Z" fill="#8BC5E4"/>
<path d="M24.1798 55.7469L22.1533 54.5769L74.1149 24.5769L76.1414 25.7469L24.1798 55.7469Z" fill="#8BC5E4"/>
<path d="M22.1533 54.5769L74.1149 24.5769L22.1533 54.5769Z" fill="#8BC5E4"/>
<path d="M46.3672 124.267V132.797L98.3287 102.797V94.2668L46.3672 124.267Z" fill="#8BC5E4"/>
<path d="M49.0088 134.322V125.792L100.97 95.792V104.322L49.0088 134.322Z" fill="#8BC5E4"/>
<path d="M46.3672 124.267L98.3287 94.2668L46.3672 124.267Z" fill="#8BC5E4"/>
<path d="M4.4082 171.872L90.8548 221.782L142.816 191.782L56.3697 141.872L4.4082 171.872Z" fill="#8BC5E4"/>
<path d="M90.8545 221.782V238.492L142.816 208.492V191.782L90.8545 221.782Z" fill="#8BC5E4"/>
<path d="M90.8548 238.492L4.4082 188.582L56.3697 158.582L142.816 208.492L90.8548 238.492Z" fill="#8BC5E4"/>
<path d="M4.4082 188.582V171.872L56.3697 141.872V158.582L4.4082 188.582Z" fill="#8BC5E4"/>
<path d="M4.4082 171.872L56.3697 141.872L4.4082 171.872Z" fill="#8BC5E4"/>
<path d="M90.8545 254.142V265.642L142.816 235.642V224.142L90.8545 254.142Z" fill="#8BC5E4"/>
<path d="M84.8275 269.172L10.332 226.162L62.2935 196.162L136.789 239.172L84.8275 269.172Z" fill="#8BC5E4"/>
<path d="M4.4082 215.732V204.232L56.3697 174.232V185.732L4.4082 215.732Z" fill="#8BC5E4"/>
<path d="M4.4082 204.232L90.8548 254.142L142.816 224.142L56.3697 174.232L4.4082 204.232Z" fill="#8BC5E4"/>
<path d="M90.8545 254.142L142.816 224.142L90.8545 254.142Z" fill="#8BC5E4"/>
<path d="M65.8262 92.5918C66.0918 94.4851 66.6229 96.0685 67.4197 97.3418L119.381 67.3418C118.584 66.0685 118.053 64.4851 117.788 62.5918L65.8262 92.5918Z" fill="#8BC5E4"/>
<path d="M67.4199 97.3418C68.2282 98.6218 69.3136 99.6551 70.6761 100.442L122.638 70.4418C121.275 69.6551 120.19 68.6218 119.381 67.3418L67.4199 97.3418Z" fill="#8BC5E4"/>
<path d="M70.6768 100.442C72.1202 101.275 73.2085 101.544 73.9417 101.247L125.903 71.2469C125.17 71.5436 124.082 71.2752 122.638 70.4419L70.6768 100.442Z" fill="#8BC5E4"/>
<path d="M73.9414 101.247C74.0222 101.214 74.0982 101.177 74.1702 101.136L126.132 71.136C126.06 71.177 125.984 71.214 125.903 71.247L73.9414 101.247Z" fill="#8BC5E4"/>
<path d="M74.1699 101.137C74.7549 100.805 75.0479 100.207 75.0499 99.343L127.011 69.343C127.009 70.207 126.716 70.805 126.131 71.137L74.1699 101.137Z" fill="#8BC5E4"/>
<path d="M75.0497 99.3368C75.0497 98.7101 74.8938 98.0901 74.582 97.4768L126.544 67.4768C126.855 68.0901 127.011 68.7101 127.011 69.3368L75.0497 99.3368Z" fill="#8BC5E4"/>
<path d="M74.5825 97.477C74.2765 96.867 73.7396 96.177 72.9717 95.407L124.933 65.407C125.701 66.177 126.238 66.867 126.544 67.477L74.5825 97.477Z" fill="#8BC5E4"/>
<path d="M72.971 95.4069C72.4456 94.8836 71.2476 93.8086 69.377 92.1819L121.338 62.1819C123.209 63.8086 124.407 64.8836 124.932 65.4069L72.971 95.4069Z" fill="#8BC5E4"/>
<path d="M69.3768 92.182C66.9692 90.0853 65.2805 88.2403 64.3105 86.647L116.272 56.647C117.242 58.2403 118.931 60.0853 121.338 62.182L69.3768 92.182Z" fill="#8BC5E4"/>
<path d="M64.3112 86.6469C62.9429 84.4169 62.2588 82.2586 62.2588 80.1719L114.22 50.1719C114.22 52.2586 114.904 54.4169 116.273 56.6469L64.3112 86.6469Z" fill="#8BC5E4"/>
<path d="M62.2588 80.1718C62.2588 78.8318 62.5792 77.7635 63.2201 76.9668L115.182 46.9668C114.541 47.7635 114.22 48.8318 114.22 50.1718L62.2588 80.1718Z" fill="#8BC5E4"/>
<path d="M63.2197 76.9668C63.4468 76.6858 63.7088 76.4588 64.0048 76.2878L115.966 46.2878C115.67 46.4588 115.408 46.6858 115.181 46.9668L63.2197 76.9668Z" fill="#8BC5E4"/>
<path d="M64.0127 76.283C64.5547 75.971 65.2117 75.842 65.9837 75.896L117.945 45.896C117.173 45.842 116.516 45.971 115.974 46.283L64.0127 76.283Z" fill="#8BC5E4"/>
<path d="M65.9912 75.897C67.2094 75.987 68.673 76.5253 70.382 77.512L122.344 47.512C120.635 46.5253 119.171 45.987 117.953 45.897L65.9912 75.897Z" fill="#8BC5E4"/>
<path d="M70.3818 77.512C73.1704 79.122 75.2691 81.0603 76.6778 83.327L128.639 53.327C127.231 51.0603 125.132 49.122 122.343 47.512L70.3818 77.512Z" fill="#8BC5E4"/>
<path d="M76.6777 83.3269C78.0922 85.5902 78.8341 87.9486 78.9034 90.4019L130.865 60.4019C130.796 57.9486 130.054 55.5902 128.639 53.3269L76.6777 83.3269Z" fill="#8BC5E4"/>
<path d="M74.418 88.0519C74.2217 86.5852 73.806 85.3752 73.1709 84.4219L125.132 54.4219C125.767 55.3752 126.183 56.5852 126.379 58.0519L74.418 88.0519Z" fill="#8BC5E4"/>
<path d="M73.1708 84.422C72.5415 83.4587 71.5975 82.6137 70.3389 81.887L122.3 51.887C123.559 52.6137 124.503 53.4587 125.132 54.422L73.1708 84.422Z" fill="#8BC5E4"/>
<path d="M70.3382 81.887C69.0276 81.1303 68.0057 80.8603 67.2725 81.077L119.234 51.077C119.967 50.8603 120.989 51.1303 122.3 51.887L70.3382 81.887Z" fill="#8BC5E4"/>
<path d="M67.2732 81.0769C67.1833 81.0999 67.1023 81.1329 67.0293 81.1759L118.991 51.1759C119.064 51.1329 119.145 51.0999 119.235 51.0769L67.2732 81.0769Z" fill="#8BC5E4"/>
<path d="M67.0297 81.176C66.7137 81.361 66.5557 81.73 66.5537 82.284L118.515 52.284C118.517 51.73 118.675 51.361 118.991 51.176L67.0297 81.176Z" fill="#8BC5E4"/>
<path d="M66.5537 82.292C66.5537 82.912 66.7759 83.5737 67.2205 84.277L119.182 54.277C118.738 53.5737 118.515 52.912 118.515 52.292L66.5537 82.292Z" fill="#8BC5E4"/>
<path d="M67.2207 84.2769C67.7865 85.1636 69.1635 86.5452 71.3516 88.4219L123.313 58.4219C121.125 56.5452 119.748 55.1636 119.182 54.2769L67.2207 84.2769Z" fill="#8BC5E4"/>
<path d="M71.3516 88.4219C73.534 90.2952 75.1448 91.8586 76.1841 93.1119L128.146 63.1119C127.106 61.8586 125.495 60.2952 123.313 58.4219L71.3516 88.4219Z" fill="#8BC5E4"/>
<path d="M76.1846 93.1118C77.2411 94.3685 78.0609 95.7351 78.6441 97.2118L130.606 67.2118C130.022 65.7351 129.203 64.3685 128.146 63.1118L76.1846 93.1118Z" fill="#8BC5E4"/>
<path d="M78.6436 97.2119C79.2382 98.6819 79.5356 100.247 79.5356 101.907L131.497 71.9069C131.497 70.2469 131.2 68.6819 130.605 67.2119L78.6436 97.2119Z" fill="#8BC5E4"/>
<path d="M79.5361 101.907C79.5361 103.414 79.1839 104.624 78.4795 105.537L130.441 75.537C131.145 74.6237 131.498 73.4137 131.498 71.907L79.5361 101.907Z" fill="#8BC5E4"/>
<path d="M78.4796 105.537C78.2164 105.872 77.9124 106.138 77.5684 106.335L129.53 76.3349C129.874 76.1379 130.178 75.8719 130.441 75.5369L78.4796 105.537Z" fill="#8BC5E4"/>
<path d="M77.5704 106.334C76.9894 106.668 76.2934 106.804 75.4824 106.743L127.444 76.743C128.255 76.804 128.951 76.668 129.532 76.334L77.5704 106.334Z" fill="#8BC5E4"/>
<path d="M75.4739 106.742C74.1807 106.635 72.567 106.024 70.6328 104.907L122.594 74.907C124.529 76.0237 126.142 76.6353 127.435 76.742L75.4739 106.742Z" fill="#8BC5E4"/>
<path d="M70.6331 104.907C67.8214 103.284 65.6621 101.27 64.1553 98.8669L116.117 68.8669C117.624 71.2702 119.783 73.2836 122.595 74.9069L70.6331 104.907Z" fill="#8BC5E4"/>
<path d="M64.1551 98.8669C62.6482 96.4502 61.7475 93.6836 61.4531 90.5669L113.415 60.5669C113.709 63.6836 114.61 66.4502 116.117 68.8669L64.1551 98.8669Z" fill="#8BC5E4"/>
<path d="M25.8682 52.272C27.7272 53.3453 29.1389 54.327 30.103 55.217L82.0646 25.217C81.1004 24.327 79.6888 23.3453 77.8297 22.272L25.8682 52.272Z" fill="#8BC5E4"/>
<path d="M30.1025 55.2168C31.4074 56.4168 32.5274 57.8701 33.4627 59.5768L85.4242 29.5768C84.4889 27.8701 83.3689 26.4168 82.0641 25.2168L30.1025 55.2168Z" fill="#8BC5E4"/>
<path d="M33.4629 59.5769C34.3925 61.2736 35.0997 63.1052 35.5847 65.0719L87.5462 35.0719C87.0612 33.1052 86.354 31.2736 85.4244 29.5769L33.4629 59.5769Z" fill="#8BC5E4"/>
<path d="M35.585 65.072C36.0757 67.0287 36.3211 69.2403 36.3211 71.707L88.2826 41.707C88.2826 39.2403 88.0373 37.0287 87.5465 35.072L35.585 65.072Z" fill="#8BC5E4"/>
<path d="M36.3207 71.707C36.3207 73.8803 36.0898 75.617 35.6279 76.917L87.5894 46.917C88.0513 45.617 88.2822 43.8803 88.2822 41.707L36.3207 71.707Z" fill="#8BC5E4"/>
<path d="M35.6281 76.917C35.1128 78.398 34.3928 79.447 33.4688 80.064L85.4302 50.064C86.3542 49.447 87.0742 48.398 87.5896 46.917L35.6281 76.917Z" fill="#8BC5E4"/>
<path d="M33.4737 80.061C33.4037 80.108 33.3327 80.152 33.2607 80.194L85.2222 50.194C85.2942 50.152 85.3652 50.108 85.4352 50.061L33.4737 80.061Z" fill="#8BC5E4"/>
<path d="M33.2553 80.197C33.1999 80.228 33.1439 80.258 33.0859 80.286L85.0474 50.286C85.1054 50.258 85.1614 50.228 85.2168 50.197L33.2553 80.197Z" fill="#8BC5E4"/>
<path d="M33.0858 80.2859C32.3218 80.6539 31.3247 80.7139 30.0938 80.4689L82.0552 50.4689C83.2862 50.7139 84.2832 50.6539 85.0472 50.2859L33.0858 80.2859Z" fill="#8BC5E4"/>
<path d="M30.0855 80.4668C29.104 80.2735 27.7819 79.6968 26.1191 78.7368L78.0807 48.7368C79.7434 49.6968 81.0656 50.2735 82.047 50.4668L30.0855 80.4668Z" fill="#8BC5E4"/>
<path d="M25.5127 73.947C26.7656 74.6703 27.6691 75.1087 28.2234 75.262L80.1849 45.262C79.6306 45.1087 78.7271 44.6703 77.4742 43.947L25.5127 73.947Z" fill="#8BC5E4"/>
<path d="M28.2236 75.262C28.8998 75.454 29.4668 75.45 29.9228 75.251L81.8843 45.251C81.4283 45.45 80.8613 45.454 80.1851 45.262L28.2236 75.262Z" fill="#8BC5E4"/>
<path d="M29.9297 75.2478C29.9597 75.2348 29.9897 75.2198 30.0197 75.2048L81.9812 45.2048C81.9512 45.2198 81.9212 45.2348 81.8912 45.2478L29.9297 75.2478Z" fill="#8BC5E4"/>
<path d="M30.0254 75.2019C30.0633 75.1839 30.1013 75.1639 30.1383 75.1409L82.0998 45.1409C82.0628 45.1639 82.0248 45.1839 81.9869 45.2019L30.0254 75.2019Z" fill="#8BC5E4"/>
<path d="M30.1377 75.1409C30.5767 74.8739 30.9367 74.2829 31.2177 73.3679L83.1792 43.3679C82.8982 44.2829 82.5382 44.8739 82.0992 45.1409L30.1377 75.1409Z" fill="#8BC5E4"/>
<path d="M31.2197 73.3619C31.5142 72.3519 31.6614 70.8269 31.6614 68.7869L83.6229 38.7869C83.6229 40.8269 83.4757 42.3519 83.1812 43.3619L31.2197 73.3619Z" fill="#8BC5E4"/>
<path d="M31.6614 68.7868C31.6614 66.7535 31.5142 65.1051 31.2197 63.8418L83.1812 33.8418C83.4757 35.1051 83.6229 36.7535 83.6229 38.7868L31.6614 68.7868Z" fill="#8BC5E4"/>
<path d="M31.2202 63.842C30.9142 62.5853 30.487 61.492 29.9385 60.562L81.9 30.562C82.4485 31.492 82.8757 32.5853 83.1817 33.842L31.2202 63.842Z" fill="#8BC5E4"/>
<path d="M29.9389 60.5618C29.3962 59.6351 28.7034 58.8218 27.8604 58.1218L79.822 28.1218C80.6649 28.8218 81.3577 29.6351 81.9004 30.5618L29.9389 60.5618Z" fill="#8BC5E4"/>
<path d="M27.8603 58.1218C27.231 57.5918 26.0042 56.8001 24.1797 55.7468L76.1413 25.7468C77.9657 26.8001 79.1925 27.5918 79.8219 28.1218L27.8603 58.1218Z" fill="#8BC5E4"/>
<path d="M95.2627 92.6268C95.2627 85.8968 90.5082 77.6618 84.8271 74.3818L136.789 44.3818C142.47 47.6618 147.224 55.8968 147.224 62.6268L95.2627 92.6268Z" fill="#8BC5E4"/>
<path d="M10.3318 31.3719C7.52405 29.7509 4.96905 29.6159 3.10205 30.7059L55.0635 0.705919C56.9305 -0.384081 59.4855 -0.249081 62.2933 1.37192L10.3318 31.3719Z" fill="#8BC5E4"/>
<path d="M3.093 30.7109C1.189 31.8279 0.003 34.2229 0 37.6169L51.9615 7.61694C51.9645 4.22294 53.1505 1.82794 55.0545 0.710938L3.093 30.7109Z" fill="#8BC5E4"/>
<path d="M0 213.187C0 219.917 4.6506 228.092 10.3317 231.372L62.2932 201.372C56.6121 198.092 51.9615 189.917 51.9615 183.187L0 213.187Z" fill="#8BC5E4"/>
<path d="M84.8271 274.382C87.6289 276 90.2049 276.152 92.0969 275.083L144.058 245.083C142.166 246.152 139.59 246 136.789 244.382L84.8271 274.382Z" fill="#8BC5E4"/>
<path d="M92.0947 275.085C94.0387 273.989 95.2597 271.604 95.2627 268.197L147.224 238.197C147.221 241.604 146 243.989 144.056 245.085L92.0947 275.085Z" fill="#8BC5E4"/>
<path d="M90.8551 265.642C90.8554 267.587 90.1854 268.941 89.1074 269.578L141.069 239.578C142.147 238.941 142.817 237.587 142.817 235.642L90.8551 265.642Z" fill="#8BC5E4"/>
<path d="M89.109 269.578C88.014 270.226 86.498 270.135 84.832 269.175L136.794 239.175C138.46 240.135 139.976 240.226 141.071 239.578L89.109 269.578Z" fill="#8BC5E4"/>
<path d="M10.3318 226.162C7.0149 224.247 4.4082 219.652 4.4082 215.732L56.3697 185.732C56.3697 189.652 58.9764 194.247 62.2933 196.162L10.3318 226.162Z" fill="#8BC5E4"/>
<path d="M4.4082 40.1719C4.4081 38.1919 5.0701 36.8089 6.1511 36.1699L58.1126 6.16992C57.0316 6.80892 56.3696 8.19192 56.3697 10.1719L4.4082 40.1719Z" fill="#8BC5E4"/>
<path d="M6.16211 36.1638C7.22411 35.5418 8.68911 35.6348 10.3271 36.5788L62.2886 6.57883C60.6506 5.63483 59.1856 5.54183 58.1236 6.16383L6.16211 36.1638Z" fill="#8BC5E4"/>
<path d="M84.8271 79.5918C88.1353 81.5018 90.8546 86.1518 90.8546 90.0818L142.816 60.0818C142.816 56.1518 140.097 51.5018 136.789 49.5918L84.8271 79.5918Z" fill="#8BC5E4"/>
<path d="M47.6918 121.242C44.9188 119.641 42.3948 119.507 40.5518 120.583L92.5133 90.583C94.3563 89.507 96.8803 89.641 99.6533 91.242L47.6918 121.242Z" fill="#8BC5E4"/>
<path d="M40.5552 120.582C38.6682 121.681 37.4932 124.047 37.4902 127.402L89.4517 97.402C89.4547 94.047 90.6297 91.681 92.5167 90.582L40.5552 120.582Z" fill="#8BC5E4"/>
<path d="M37.4902 127.412C37.4902 134.052 42.0802 142.132 47.692 145.372L99.6535 115.372C94.0417 112.132 89.4518 104.052 89.4518 97.4119L37.4902 127.412Z" fill="#8BC5E4"/>
<path d="M47.6924 145.372C50.4714 146.976 52.9944 147.102 54.8344 146.015L106.796 116.015C104.956 117.102 102.433 116.976 99.6539 115.372L47.6924 145.372Z" fill="#8BC5E4"/>
<path d="M54.832 146.016C56.708 144.909 57.874 142.541 57.876 139.192L109.838 109.192C109.836 112.541 108.67 114.909 106.794 116.016L54.832 146.016Z" fill="#8BC5E4"/>
<path d="M57.8769 139.182C57.8769 132.542 53.3043 124.482 47.6924 121.242L99.6539 91.2419C105.266 94.4819 109.838 102.542 109.838 109.182L57.8769 139.182Z" fill="#8BC5E4"/>
<path d="M46.3672 132.797C46.3672 133.657 46.9561 134.697 47.6922 135.122L99.6537 105.122C98.9176 104.697 98.3287 103.657 98.3287 102.797L46.3672 132.797Z" fill="#8BC5E4"/>
<path d="M47.6924 135.122C48.0444 135.325 48.3644 135.346 48.6004 135.215L100.562 105.215C100.326 105.346 100.006 105.325 99.6539 105.122L47.6924 135.122Z" fill="#8BC5E4"/>
<path d="M48.5977 135.217C48.8487 135.079 49.0057 134.772 49.0077 134.332L100.969 104.332C100.967 104.772 100.81 105.079 100.559 105.217L48.5977 135.217Z" fill="#8BC5E4"/>
<path d="M49.0088 125.792C52.317 128.432 54.7938 133.272 54.7938 137.402L106.755 107.402C106.755 103.272 104.278 98.432 100.97 95.792L49.0088 125.792Z" fill="#8BC5E4"/>
<path d="M54.7929 137.402C54.7925 139.755 53.9885 141.41 52.6865 142.183L104.648 112.183C105.95 111.41 106.754 109.755 106.755 107.402L54.7929 137.402Z" fill="#8BC5E4"/>
<path d="M52.6892 142.182C51.4092 142.942 49.6472 142.849 47.6982 141.725L99.6597 111.725C101.609 112.849 103.371 112.942 104.651 112.182L52.6892 142.182Z" fill="#8BC5E4"/>
<path d="M47.6919 141.722C43.7428 139.442 40.5732 133.862 40.5732 129.192L92.5347 99.1919C92.5347 103.862 95.7044 109.442 99.6534 111.722L47.6919 141.722Z" fill="#8BC5E4"/>
<path d="M40.5732 129.192C40.5729 126.837 41.3819 125.182 42.6899 124.414L94.6514 94.4138C93.3434 95.1818 92.5344 96.8368 92.5347 99.1918L40.5732 129.192Z" fill="#8BC5E4"/>
<path d="M42.6885 124.415C43.6735 123.836 44.9415 123.76 46.3625 124.265L98.324 94.2649C96.903 93.7599 95.635 93.8359 94.65 94.4149L42.6885 124.415Z" fill="#8BC5E4"/>
<path d="M37.4902 127.412C37.49 124.053 38.665 121.684 40.552 120.583L92.5135 90.583C90.6265 91.684 89.4515 94.053 89.4518 97.412L37.4902 127.412Z" fill="#8BC5E4"/>
<path d="M40.5488 120.585C42.3908 119.508 44.9128 119.64 47.6838 121.237L99.6453 91.2369C96.8743 89.6399 94.3523 89.5079 92.5103 90.5849L40.5488 120.585Z" fill="#8BC5E4"/>
<path d="M47.6924 121.242C53.3043 124.482 57.8769 132.542 57.8769 139.182L109.838 109.182C109.838 102.542 105.266 94.4819 99.6539 91.2419L47.6924 121.242Z" fill="#8BC5E4"/>
<path d="M57.8765 139.182C57.876 142.534 56.711 144.905 54.834 146.015L106.795 116.015C108.672 114.905 109.837 112.534 109.838 109.182L57.8765 139.182Z" fill="#8BC5E4"/>
<path d="M54.8262 146.019C52.9882 147.101 50.4712 146.974 47.7002 145.377L99.6617 115.377C102.433 116.974 104.95 117.101 106.788 116.019L54.8262 146.019Z" fill="#8BC5E4"/>
<path d="M47.692 145.372C42.0802 142.132 37.4902 134.052 37.4902 127.412L89.4518 97.4119C89.4518 104.052 94.0417 112.132 99.6535 115.372L47.692 145.372Z" fill="#8BC5E4"/>
<path d="M4.4082 40.1719C4.4081 38.1919 5.0701 36.8089 6.1511 36.1699L58.1126 6.16992C57.0316 6.80892 56.3696 8.19192 56.3697 10.1719L4.4082 40.1719Z" fill="#8BC5E4"/>
<path d="M6.16211 36.1638C7.22411 35.5418 8.68911 35.6348 10.3271 36.5788L62.2886 6.57883C60.6506 5.63483 59.1856 5.54183 58.1236 6.16383L6.16211 36.1638Z" fill="#8BC5E4"/>
<path d="M84.8271 79.5918C88.1353 81.5018 90.8546 86.1518 90.8546 90.0818L142.816 60.0818C142.816 56.1518 140.097 51.5018 136.789 49.5918L84.8271 79.5918Z" fill="#8BC5E4"/>
<path d="M61.4531 90.5669C61.7475 93.6836 62.6482 96.4502 64.1551 98.8669L116.117 68.8669C114.61 66.4502 113.709 63.6836 113.415 60.5669L61.4531 90.5669Z" fill="#8BC5E4"/>
<path d="M64.1553 98.8669C65.6621 101.27 67.8214 103.284 70.6331 104.907L122.595 74.9069C119.783 73.2836 117.624 71.2702 116.117 68.8669L64.1553 98.8669Z" fill="#8BC5E4"/>
<path d="M70.6328 104.907C72.567 106.024 74.1807 106.635 75.4739 106.742L127.435 76.742C126.142 76.6353 124.529 76.0237 122.594 74.907L70.6328 104.907Z" fill="#8BC5E4"/>
<path d="M75.4736 106.742C76.2865 106.805 76.9845 106.669 77.5675 106.335L129.529 76.335C128.946 76.669 128.248 76.805 127.435 76.742L75.4736 106.742Z" fill="#8BC5E4"/>
<path d="M77.5762 106.331C77.9142 106.136 78.2142 105.872 78.4752 105.542L130.437 75.542C130.176 75.872 129.876 76.136 129.538 76.331L77.5762 106.331Z" fill="#8BC5E4"/>
<path d="M78.4795 105.537C79.1839 104.624 79.5361 103.414 79.5361 101.907L131.498 71.907C131.498 73.4137 131.145 74.6237 130.441 75.537L78.4795 105.537Z" fill="#8BC5E4"/>
<path d="M79.5356 101.907C79.5356 100.247 79.2382 98.6819 78.6436 97.2119L130.605 67.2119C131.2 68.6819 131.497 70.2469 131.497 71.9069L79.5356 101.907Z" fill="#8BC5E4"/>
<path d="M78.6441 97.2118C78.0609 95.7351 77.2411 94.3685 76.1846 93.1118L128.146 63.1118C129.203 64.3685 130.022 65.7351 130.606 67.2118L78.6441 97.2118Z" fill="#8BC5E4"/>
<path d="M76.1841 93.1119C75.1448 91.8586 73.534 90.2952 71.3516 88.4219L123.313 58.4219C125.495 60.2952 127.106 61.8586 128.146 63.1119L76.1841 93.1119Z" fill="#8BC5E4"/>
<path d="M71.3516 88.4219C69.1635 86.5452 67.7865 85.1636 67.2207 84.2769L119.182 54.2769C119.748 55.1636 121.125 56.5452 123.313 58.4219L71.3516 88.4219Z" fill="#8BC5E4"/>
<path d="M67.2205 84.277C66.7759 83.5737 66.5537 82.912 66.5537 82.292L118.515 52.292C118.515 52.912 118.738 53.5737 119.182 54.277L67.2205 84.277Z" fill="#8BC5E4"/>
<path d="M66.5537 82.292C66.5536 81.734 66.7116 81.362 67.0286 81.176L118.99 51.176C118.673 51.362 118.515 51.734 118.515 52.292L66.5537 82.292Z" fill="#8BC5E4"/>
<path d="M67.0254 81.1779C67.0974 81.1349 67.1784 81.1019 67.2674 81.0779L119.229 51.0779C119.14 51.1019 119.059 51.1349 118.987 51.1779L67.0254 81.1779Z" fill="#8BC5E4"/>
<path d="M67.2725 81.077C68.0057 80.8603 69.0276 81.1303 70.3382 81.887L122.3 51.887C120.989 51.1303 119.967 50.8603 119.234 51.077L67.2725 81.077Z" fill="#8BC5E4"/>
<path d="M70.3389 81.887C71.5975 82.6137 72.5415 83.4587 73.1708 84.422L125.132 54.422C124.503 53.4587 123.559 52.6137 122.3 51.887L70.3389 81.887Z" fill="#8BC5E4"/>
<path d="M73.1709 84.4219C73.806 85.3752 74.2217 86.5852 74.418 88.0519L126.379 58.0519C126.183 56.5852 125.767 55.3752 125.132 54.4219L73.1709 84.4219Z" fill="#8BC5E4"/>
<path d="M78.9034 90.4019C78.8341 87.9486 78.0922 85.5902 76.6777 83.3269L128.639 53.3269C130.054 55.5902 130.796 57.9486 130.865 60.4019L78.9034 90.4019Z" fill="#8BC5E4"/>
<path d="M76.6778 83.327C75.2691 81.0603 73.1704 79.122 70.3818 77.512L122.343 47.512C125.132 49.122 127.231 51.0603 128.639 53.327L76.6778 83.327Z" fill="#8BC5E4"/>
<path d="M70.382 77.512C68.673 76.5253 67.2094 75.987 65.9912 75.897L117.953 45.897C119.171 45.987 120.635 46.5253 122.344 47.512L70.382 77.512Z" fill="#8BC5E4"/>
<path d="M65.9908 75.8968C65.2167 75.8408 64.5577 75.9688 64.0137 76.2818L115.975 46.2818C116.519 45.9688 117.178 45.8408 117.952 45.8968L65.9908 75.8968Z" fill="#8BC5E4"/>
<path d="M64.0076 76.2859C63.7116 76.4569 63.4506 76.6819 63.2236 76.9619L115.185 46.9619C115.412 46.6819 115.673 46.4569 115.969 46.2859L64.0076 76.2859Z" fill="#8BC5E4"/>
<path d="M63.2201 76.9668C62.5792 77.7635 62.2588 78.8318 62.2588 80.1718L114.22 50.1718C114.22 48.8318 114.541 47.7635 115.182 46.9668L63.2201 76.9668Z" fill="#8BC5E4"/>
<path d="M62.2588 80.1719C62.2588 82.2586 62.9429 84.4169 64.3112 86.6469L116.273 56.6469C114.904 54.4169 114.22 52.2586 114.22 50.1719L62.2588 80.1719Z" fill="#8BC5E4"/>
<path d="M64.3105 86.647C65.2805 88.2403 66.9692 90.0853 69.3768 92.182L121.338 62.182C118.931 60.0853 117.242 58.2403 116.272 56.647L64.3105 86.647Z" fill="#8BC5E4"/>
<path d="M69.377 92.1819C71.2476 93.8086 72.4456 94.8836 72.971 95.4069L124.932 65.4069C124.407 64.8836 123.209 63.8086 121.338 62.1819L69.377 92.1819Z" fill="#8BC5E4"/>
<path d="M72.9717 95.407C73.7396 96.177 74.2765 96.867 74.5825 97.477L126.544 67.477C126.238 66.867 125.701 66.177 124.933 65.407L72.9717 95.407Z" fill="#8BC5E4"/>
<path d="M74.582 97.4768C74.8938 98.0901 75.0497 98.7101 75.0497 99.3368L127.011 69.3368C127.011 68.7101 126.855 68.0901 126.544 67.4768L74.582 97.4768Z" fill="#8BC5E4"/>
<path d="M75.0497 99.3369C75.0499 100.204 74.7569 100.804 74.1699 101.136L126.131 71.1359C126.718 70.8039 127.011 70.2039 127.011 69.3369L75.0497 99.3369Z" fill="#8BC5E4"/>
<path d="M74.1772 101.132C74.1062 101.173 74.0302 101.21 73.9502 101.243L125.912 71.2428C125.992 71.2098 126.068 71.1728 126.139 71.1318L74.1772 101.132Z" fill="#8BC5E4"/>
<path d="M73.9417 101.247C73.2085 101.544 72.1202 101.275 70.6768 100.442L122.638 70.4419C124.082 71.2752 125.17 71.5436 125.903 71.2469L73.9417 101.247Z" fill="#8BC5E4"/>
<path d="M70.6761 100.442C69.3136 99.6551 68.2282 98.6218 67.4199 97.3418L119.381 67.3418C120.19 68.6218 121.275 69.6551 122.638 70.4418L70.6761 100.442Z" fill="#8BC5E4"/>
<path d="M67.4197 97.3418C66.6229 96.0685 66.0918 94.4851 65.8262 92.5918L117.788 62.5918C118.053 64.4851 118.584 66.0685 119.381 67.3418L67.4197 97.3418Z" fill="#8BC5E4"/>
<path d="M26.1191 78.7368C27.7819 79.6968 29.104 80.2735 30.0855 80.4668L82.047 50.4668C81.0656 50.2735 79.7434 49.6968 78.0807 48.7368L26.1191 78.7368Z" fill="#8BC5E4"/>
<path d="M30.0859 80.4669C31.3202 80.7149 32.3202 80.6549 33.0862 80.2859L85.0477 50.2859C84.2817 50.6549 83.2817 50.7149 82.0474 50.4669L30.0859 80.4669Z" fill="#8BC5E4"/>
<path d="M33.0811 80.288C33.1391 80.261 33.1961 80.231 33.2511 80.2L85.2126 50.2C85.1576 50.231 85.1006 50.261 85.0426 50.288L33.0811 80.288Z" fill="#8BC5E4"/>
<path d="M33.2559 80.197C33.3285 80.155 33.3995 80.111 33.4695 80.064L85.431 50.064C85.361 50.111 85.29 50.155 85.2174 50.197L33.2559 80.197Z" fill="#8BC5E4"/>
<path d="M33.4678 80.065C34.3908 79.449 35.1098 78.403 35.6248 76.926L87.5863 46.926C87.0713 48.403 86.3523 49.449 85.4293 50.065L33.4678 80.065Z" fill="#8BC5E4"/>
<path d="M35.6279 76.917C36.0898 75.617 36.3207 73.8803 36.3207 71.707L88.2822 41.707C88.2822 43.8803 88.0513 45.617 87.5894 46.917L35.6279 76.917Z" fill="#8BC5E4"/>
<path d="M36.3211 71.707C36.3211 69.2403 36.0757 67.0287 35.585 65.072L87.5465 35.072C88.0373 37.0287 88.2826 39.2403 88.2826 41.707L36.3211 71.707Z" fill="#8BC5E4"/>
<path d="M35.5847 65.0719C35.0997 63.1052 34.3925 61.2736 33.4629 59.5769L85.4244 29.5769C86.354 31.2736 87.0612 33.1052 87.5462 35.0719L35.5847 65.0719Z" fill="#8BC5E4"/>
<path d="M33.4627 59.5768C32.5274 57.8701 31.4074 56.4168 30.1025 55.2168L82.0641 25.2168C83.3689 26.4168 84.4889 27.8701 85.4242 29.5768L33.4627 59.5768Z" fill="#8BC5E4"/>
<path d="M30.103 55.217C29.1389 54.327 27.7272 53.3453 25.8682 52.272L77.8297 22.272C79.6888 23.3453 81.1004 24.327 82.0646 25.217L30.103 55.217Z" fill="#8BC5E4"/>
<path d="M25.5127 73.947C26.7656 74.6703 27.6691 75.1087 28.2234 75.262L80.1849 45.262C79.6306 45.1087 78.7271 44.6703 77.4742 43.947L25.5127 73.947Z" fill="#8BC5E4"/>
<path d="M28.2236 75.262C28.8998 75.454 29.4668 75.45 29.9228 75.251L81.8843 45.251C81.4283 45.45 80.8613 45.454 80.1851 45.262L28.2236 75.262Z" fill="#8BC5E4"/>
<path d="M29.9297 75.2478C29.9597 75.2348 29.9897 75.2198 30.0197 75.2048L81.9812 45.2048C81.9512 45.2198 81.9212 45.2348 81.8912 45.2478L29.9297 75.2478Z" fill="#8BC5E4"/>
<path d="M30.0254 75.2019C30.0633 75.1839 30.1013 75.1639 30.1383 75.1409L82.0998 45.1409C82.0628 45.1639 82.0248 45.1839 81.9869 45.2019L30.0254 75.2019Z" fill="#8BC5E4"/>
<path d="M30.1377 75.1409C30.5767 74.8739 30.9367 74.2829 31.2177 73.3679L83.1792 43.3679C82.8982 44.2829 82.5382 44.8739 82.0992 45.1409L30.1377 75.1409Z" fill="#8BC5E4"/>
<path d="M31.2197 73.3619C31.5142 72.3519 31.6614 70.8269 31.6614 68.7869L83.6229 38.7869C83.6229 40.8269 83.4757 42.3519 83.1812 43.3619L31.2197 73.3619Z" fill="#8BC5E4"/>
<path d="M31.6614 68.7868C31.6614 66.7535 31.5142 65.1051 31.2197 63.8418L83.1812 33.8418C83.4757 35.1051 83.6229 36.7535 83.6229 38.7868L31.6614 68.7868Z" fill="#8BC5E4"/>
<path d="M31.2202 63.842C30.9142 62.5853 30.487 61.492 29.9385 60.562L81.9 30.562C82.4485 31.492 82.8757 32.5853 83.1817 33.842L31.2202 63.842Z" fill="#8BC5E4"/>
<path d="M29.9389 60.5618C29.3962 59.6351 28.7034 58.8218 27.8604 58.1218L79.822 28.1218C80.6649 28.8218 81.3577 29.6351 81.9004 30.5618L29.9389 60.5618Z" fill="#8BC5E4"/>
<path d="M27.8603 58.1218C27.231 57.5918 26.0042 56.8001 24.1797 55.7468L76.1413 25.7468C77.9657 26.8001 79.1925 27.5918 79.8219 28.1218L27.8603 58.1218Z" fill="#8BC5E4"/>
<path d="M46.3672 132.797C46.3672 133.657 46.9561 134.697 47.6922 135.122L99.6537 105.122C98.9176 104.697 98.3287 103.657 98.3287 102.797L46.3672 132.797Z" fill="#8BC5E4"/>
<path d="M47.6924 135.122C48.0444 135.325 48.3644 135.346 48.6004 135.215L100.562 105.215C100.326 105.346 100.006 105.325 99.6539 105.122L47.6924 135.122Z" fill="#8BC5E4"/>
<path d="M48.5977 135.217C48.8487 135.079 49.0057 134.772 49.0077 134.332L100.969 104.332C100.967 104.772 100.81 105.079 100.559 105.217L48.5977 135.217Z" fill="#8BC5E4"/>
<path d="M49.0088 125.792C52.317 128.432 54.7938 133.272 54.7938 137.402L106.755 107.402C106.755 103.272 104.278 98.432 100.97 95.792L49.0088 125.792Z" fill="#8BC5E4"/>
<path d="M54.7929 137.402C54.7925 139.755 53.9885 141.41 52.6865 142.183L104.648 112.183C105.95 111.41 106.754 109.755 106.755 107.402L54.7929 137.402Z" fill="#8BC5E4"/>
<path d="M52.6892 142.182C51.4092 142.942 49.6472 142.849 47.6982 141.725L99.6597 111.725C101.609 112.849 103.371 112.942 104.651 112.182L52.6892 142.182Z" fill="#8BC5E4"/>
<path d="M47.6919 141.722C43.7428 139.442 40.5732 133.862 40.5732 129.192L92.5347 99.1919C92.5347 103.862 95.7044 109.442 99.6534 111.722L47.6919 141.722Z" fill="#8BC5E4"/>
<path d="M40.5732 129.192C40.5729 126.837 41.3819 125.182 42.6899 124.414L94.6514 94.4138C93.3434 95.1818 92.5344 96.8368 92.5347 99.1918L40.5732 129.192Z" fill="#8BC5E4"/>
<path d="M42.6885 124.415C43.6735 123.836 44.9415 123.76 46.3625 124.265L98.324 94.2649C96.903 93.7599 95.635 93.8359 94.65 94.4149L42.6885 124.415Z" fill="#8BC5E4"/>
<path d="M90.8551 265.642C90.8554 267.587 90.1854 268.941 89.1074 269.578L141.069 239.578C142.147 238.941 142.817 237.587 142.817 235.642L90.8551 265.642Z" fill="#8BC5E4"/>
<path d="M89.109 269.578C88.014 270.226 86.498 270.135 84.832 269.175L136.794 239.175C138.46 240.135 139.976 240.226 141.071 239.578L89.109 269.578Z" fill="#8BC5E4"/>
<path d="M10.3318 226.162C7.0149 224.247 4.4082 219.652 4.4082 215.732L56.3697 185.732C56.3697 189.652 58.9764 194.247 62.2933 196.162L10.3318 226.162Z" fill="#8BC5E4"/>
<path d="M61.4532 90.567L65.8266 92.592C66.0922 94.4853 66.6233 96.0686 67.4201 97.342C68.2284 98.622 69.3138 99.6553 70.6763 100.442C72.1197 101.275 73.208 101.544 73.9412 101.247C74.6803 100.947 75.0498 100.31 75.0498 99.337C75.0498 98.7103 74.8939 98.0903 74.5821 97.477C74.2761 96.867 73.7392 96.177 72.9713 95.407C72.4459 94.8837 71.2479 93.8087 69.3773 92.182C66.9697 90.0853 65.281 88.2403 64.311 86.647C62.9427 84.417 62.2586 82.2586 62.2586 80.172C62.2586 78.832 62.579 77.7637 63.2199 76.967C63.8665 76.167 64.7902 75.8103 65.9911 75.897C67.2093 75.987 68.6729 76.5253 70.3819 77.512C73.1705 79.122 75.2692 81.0603 76.6779 83.327C78.0924 85.5903 78.8343 87.9486 78.9036 90.402L74.4176 88.052C74.2213 86.5853 73.8056 85.3753 73.1705 84.422C72.5412 83.4586 71.5972 82.6136 70.3386 81.887C69.028 81.1303 68.0061 80.8603 67.2729 81.077C66.7936 81.2003 66.554 81.6053 66.554 82.292C66.554 82.912 66.7763 83.5736 67.2209 84.277C67.7867 85.1637 69.1637 86.5453 71.3518 88.422C73.5342 90.2953 75.145 91.8587 76.1843 93.112C77.2408 94.3687 78.0606 95.7353 78.6438 97.212C79.2384 98.682 79.5358 100.247 79.5358 101.907C79.5358 103.414 79.1836 104.624 78.4792 105.537C77.7691 106.44 76.7674 106.842 75.4741 106.742C74.1809 106.635 72.5671 106.024 70.633 104.907C67.8213 103.284 65.662 101.27 64.1552 98.867C62.6483 96.4503 61.7476 93.6836 61.4532 90.567ZM40.1836 86.857V60.537L44.557 63.062L53.6503 85.882V68.312L57.8245 70.722V97.042L53.3298 94.447L44.3578 72.097V89.267L40.1836 86.857ZM17.6669 47.537L25.8682 52.272C27.7272 53.3453 29.1389 54.327 30.103 55.217C31.4079 56.417 32.5279 57.8703 33.4632 59.577C34.3928 61.2736 35.1 63.1053 35.585 65.072C36.0757 67.0287 36.3211 69.2403 36.3211 71.707C36.3211 73.8803 36.0902 75.617 35.6283 76.917C35.074 78.5103 34.2831 79.6036 33.2554 80.197C32.4702 80.6437 31.4136 80.7336 30.0857 80.467C29.1042 80.2736 27.7821 79.697 26.1193 78.737L17.6669 73.857V47.537ZM22.1529 54.577V72.007L25.5131 73.947C26.766 74.6703 27.6695 75.1087 28.2238 75.262C28.9512 75.4687 29.5517 75.4486 30.0251 75.202C30.5158 74.972 30.9142 74.3587 31.2202 73.362C31.5147 72.352 31.6619 70.827 31.6619 68.787C31.6619 66.7537 31.5147 65.1053 31.2202 63.842C30.9142 62.5853 30.487 61.492 29.9385 60.562C29.3958 59.6353 28.703 58.822 27.86 58.122C27.2307 57.592 26.0039 56.8003 24.1794 55.747L22.1529 54.577ZM95.2628 130.607V92.627C95.2628 85.897 90.5083 77.662 84.8272 74.382L10.3317 31.372C4.65056 28.092 0 30.897 0 37.627V75.607L95.2628 130.607ZM0 196.257V213.187C0 219.917 4.65056 228.092 10.3317 231.372L84.8272 274.382C90.5083 277.662 95.2628 274.917 95.2628 268.187V251.257L0 196.257ZM90.8547 254.142V265.642C90.8547 269.562 88.1354 271.082 84.8272 269.172L10.3317 226.162C7.01481 224.247 4.40807 219.652 4.40807 215.732V204.232L90.8547 254.142ZM4.40807 72.792V40.172C4.40807 36.242 7.01481 34.667 10.3317 36.582L84.8272 79.592C88.1354 81.502 90.8547 86.152 90.8547 90.082V122.702L4.40807 72.792ZM47.692 121.242C42.0802 118.002 37.4902 120.772 37.4902 127.412C37.4902 134.052 42.0802 142.132 47.692 145.372C53.3039 148.612 57.8765 145.822 57.8765 139.182C57.8765 132.542 53.3039 124.482 47.692 121.242ZM46.367 124.267V132.797C46.367 133.657 46.9559 134.697 47.692 135.122C48.4195 135.542 49.0084 135.182 49.0084 134.322V125.792C52.3166 128.432 54.7934 133.272 54.7934 137.402C54.7934 142.072 51.6238 143.992 47.692 141.722C43.7429 139.442 40.5733 133.862 40.5733 129.192C40.5733 125.062 43.0588 123.087 46.367 124.267ZM0 164.117V166.727V191.257L95.2628 246.257V219.117L0 164.117ZM4.40807 171.872L90.8547 221.782V238.492L4.40807 188.582V171.872ZM0 79.517V82.117V158.557L95.2628 213.557V134.517L0 79.517ZM4.40807 87.272L90.8547 137.182V205.802L4.40807 155.892V87.272Z" fill="#8BC5E4"/>
<path fill-rule="evenodd" clip-rule="evenodd" d="M4.40807 87.272L90.8547 137.182V205.802L4.40807 155.892V87.272ZM37.4902 127.412C37.4902 120.772 42.0802 118.002 47.692 121.242C53.3039 124.482 57.8765 132.542 57.8765 139.182C57.8765 145.822 53.3039 148.612 47.692 145.372C42.0802 142.132 37.4902 134.052 37.4902 127.412Z" fill="white"/>
<path fill-rule="evenodd" clip-rule="evenodd" d="M4.40807 72.792V40.172C4.40807 36.242 7.01481 34.667 10.3317 36.582L84.8272 79.592C88.1354 81.502 90.8547 86.152 90.8547 90.082V122.702L4.40807 72.792ZM65.8266 92.592L61.4532 90.567C61.7476 93.6836 62.6483 96.4503 64.1552 98.867C65.662 101.27 67.8213 103.284 70.633 104.907C72.5671 106.024 74.1809 106.635 75.4741 106.742C76.7674 106.842 77.7691 106.44 78.4792 105.537C79.1836 104.624 79.5358 103.414 79.5358 101.907C79.5358 100.247 79.2384 98.682 78.6438 97.212C78.0606 95.7353 77.2408 94.3687 76.1843 93.112C75.145 91.8587 73.5342 90.2953 71.3518 88.422C69.1637 86.5453 67.7867 85.1637 67.2209 84.277C66.7763 83.5736 66.554 82.912 66.554 82.292C66.554 81.6053 66.7936 81.2003 67.2729 81.077C68.0061 80.8603 69.028 81.1303 70.3386 81.887C71.5972 82.6136 72.5412 83.4586 73.1705 84.422C73.8056 85.3753 74.2213 86.5853 74.4176 88.052L78.9036 90.402C78.8343 87.9486 78.0924 85.5903 76.6779 83.327C75.2692 81.0603 73.1705 79.122 70.3819 77.512C68.6729 76.5253 67.2093 75.987 65.9911 75.897C64.7902 75.8103 63.8665 76.167 63.2199 76.967C62.579 77.7637 62.2586 78.832 62.2586 80.172C62.2586 82.2586 62.9427 84.417 64.311 86.647C65.281 88.2403 66.9697 90.0853 69.3773 92.182C71.2479 93.8087 72.4459 94.8837 72.9713 95.407C73.7392 96.177 74.2761 96.867 74.5821 97.477C74.8939 98.0903 75.0498 98.7103 75.0498 99.337C75.0498 100.31 74.6803 100.947 73.9412 101.247C73.208 101.544 72.1197 101.275 70.6763 100.442C69.3138 99.6553 68.2284 98.622 67.4201 97.342C66.6233 96.0686 66.0922 94.4853 65.8266 92.592ZM40.1836 60.537V86.857L44.3578 89.267V72.097L53.3298 94.447L57.8245 97.042V70.722L53.6503 68.312V85.882L44.557 63.062L40.1836 60.537ZM25.8682 52.272L17.6669 47.537V73.857L26.1193 78.737C27.7821 79.697 29.1042 80.2736 30.0857 80.467C31.4136 80.7336 32.4702 80.6437 33.2554 80.197C34.2831 79.6036 35.074 78.5103 35.6283 76.917C36.0902 75.617 36.3211 73.8803 36.3211 71.707C36.3211 69.2403 36.0757 67.0287 35.585 65.072C35.1 63.1053 34.3928 61.2736 33.4632 59.577C32.5279 57.8703 31.4079 56.417 30.103 55.217C29.1389 54.327 27.7272 53.3453 25.8682 52.272Z" fill="white"/>
<path d="M22.1529 54.577V72.007L25.5131 73.947C26.766 74.6703 27.6695 75.1087 28.2238 75.262C28.9512 75.4687 29.5517 75.4486 30.0251 75.202C30.5158 74.972 30.9142 74.3587 31.2202 73.362C31.5147 72.352 31.6619 70.827 31.6619 68.787C31.6619 66.7537 31.5147 65.1053 31.2202 63.842C30.9142 62.5853 30.487 61.492 29.9385 60.562C29.3958 59.6353 28.703 58.822 27.86 58.122C27.2307 57.592 26.0039 56.8003 24.1794 55.747L22.1529 54.577Z" fill="white"/>
<path d="M46.367 124.267V132.797C46.367 133.657 46.9559 134.697 47.692 135.122C48.4195 135.542 49.0084 135.182 49.0084 134.322V125.792C52.3166 128.432 54.7934 133.272 54.7934 137.402C54.7934 142.072 51.6238 143.992 47.692 141.722C43.7429 139.442 40.5733 133.862 40.5733 129.192C40.5733 125.062 43.0588 123.087 46.367 124.267Z" fill="white"/>
<path d="M4.40807 171.872L90.8547 221.782V238.492L4.40807 188.582V171.872Z" fill="white"/>
<path d="M90.8547 254.142V265.642C90.8547 269.562 88.1354 271.082 84.8272 269.172L10.3317 226.162C7.01481 224.247 4.40807 219.652 4.40807 215.732V204.232L90.8547 254.142Z" fill="white"/>
</svg>
