<svg width="226" height="326" viewBox="0 0 226 326" fill="none" xmlns="http://www.w3.org/2000/svg">
<path d="M24.7422 180.897V185.437L76.7038 155.437V150.897L24.7422 180.897Z" fill="#8BC5E4"/>
<path d="M24.7422 185.437L19.2603 182.272L71.2218 152.272L76.7038 155.437L24.7422 185.437Z" fill="#8BC5E4"/>
<path d="M19.2603 182.272V183.312L71.2218 153.312V152.272L19.2603 182.272Z" fill="#8BC5E4"/>
<path d="M19.2603 183.312V187.653L71.2218 157.653V153.312L19.2603 183.312Z" fill="#8BC5E4"/>
<path d="M19.2604 187.652L15.6318 185.557L67.5933 155.557L71.2219 157.652L19.2604 187.652Z" fill="#8BC5E4"/>
<path d="M15.6318 185.557V187.637L67.5933 157.637V155.557L15.6318 185.557Z" fill="#8BC5E4"/>
<path d="M15.6318 187.637L19.2604 189.732L71.2219 159.732L67.5933 157.637L15.6318 187.637Z" fill="#8BC5E4"/>
<path d="M19.2603 189.732V196.872L71.2218 166.872V159.732L19.2603 189.732Z" fill="#8BC5E4"/>
<path d="M19.2604 196.873L15.6318 194.778L67.5933 164.778L71.2219 166.873L19.2604 196.873Z" fill="#8BC5E4"/>
<path d="M15.6318 194.778V196.868L67.5933 166.868V164.778L15.6318 194.778Z" fill="#8BC5E4"/>
<path d="M15.6318 196.867L19.2604 198.962L71.2219 168.962L67.5933 166.867L15.6318 196.867Z" fill="#8BC5E4"/>
<path d="M19.2603 198.962V206.102L71.2218 176.102V168.962L19.2603 198.962Z" fill="#8BC5E4"/>
<path d="M19.2604 206.103L15.6318 204.008L67.5933 174.008L71.2219 176.103L19.2604 206.103Z" fill="#8BC5E4"/>
<path d="M15.6318 204.008V206.088L67.5933 176.088V174.008L15.6318 204.008Z" fill="#8BC5E4"/>
<path d="M15.6318 206.087L19.2604 208.182L71.2219 178.182L67.5933 176.087L15.6318 206.087Z" fill="#8BC5E4"/>
<path d="M19.2603 208.182V213.562L71.2218 183.562V178.182L19.2603 208.182Z" fill="#8BC5E4"/>
<path d="M19.2603 213.562L24.7422 216.728L76.7038 186.727L71.2218 183.562L19.2603 213.562Z" fill="#8BC5E4"/>
<path d="M24.7422 216.728V221.598L76.7038 191.598V186.728L24.7422 216.728Z" fill="#8BC5E4"/>
<path d="M24.7422 221.597L26.5609 222.647L78.5224 192.647L76.7038 191.597L24.7422 221.597Z" fill="#8BC5E4"/>
<path d="M26.561 222.648V217.778L78.5225 187.778V192.648L26.561 222.648Z" fill="#8BC5E4"/>
<path d="M26.561 217.778L32.7704 221.363L84.7319 191.363L78.5225 187.778L26.561 217.778Z" fill="#8BC5E4"/>
<path d="M32.7705 221.363V226.233L84.732 196.233V191.363L32.7705 221.363Z" fill="#8BC5E4"/>
<path d="M32.7705 226.232L34.5805 227.277L86.542 197.277L84.732 196.232L32.7705 226.232Z" fill="#8BC5E4"/>
<path d="M34.5806 227.277V222.407L86.5421 192.407V197.277L34.5806 227.277Z" fill="#8BC5E4"/>
<path d="M34.5806 222.407L40.7987 225.997L92.7602 195.997L86.5421 192.407L34.5806 222.407Z" fill="#8BC5E4"/>
<path d="M40.7983 225.998V230.868L92.7598 200.868V195.998L40.7983 225.998Z" fill="#8BC5E4"/>
<path d="M40.7983 230.867L42.6083 231.912L94.5698 201.912L92.7598 200.867L40.7983 230.867Z" fill="#8BC5E4"/>
<path d="M42.6084 231.912V227.042L94.5699 197.042V201.912L42.6084 231.912Z" fill="#8BC5E4"/>
<path d="M42.6084 227.042L48.0903 230.207L100.052 200.207L94.5699 197.042L42.6084 227.042Z" fill="#8BC5E4"/>
<path d="M48.0903 230.207V224.827L100.052 194.827V200.207L48.0903 230.207Z" fill="#8BC5E4"/>
<path d="M48.0903 224.827L51.5457 226.822L103.507 196.822L100.052 194.827L48.0903 224.827Z" fill="#8BC5E4"/>
<path d="M51.5459 226.822V224.742L103.507 194.742V196.822L51.5459 226.822Z" fill="#8BC5E4"/>
<path d="M51.5457 224.743L48.0903 222.748L100.052 192.748L103.507 194.743L51.5457 224.743Z" fill="#8BC5E4"/>
<path d="M48.0903 222.747V215.607L100.052 185.607V192.747L48.0903 222.747Z" fill="#8BC5E4"/>
<path d="M48.0903 215.607L51.5457 217.602L103.507 187.602L100.052 185.607L48.0903 215.607Z" fill="#8BC5E4"/>
<path d="M51.5459 217.602V215.512L103.507 185.512V187.602L51.5459 217.602Z" fill="#8BC5E4"/>
<path d="M51.5457 215.513L48.0903 213.518L100.052 183.518L103.507 185.513L51.5457 215.513Z" fill="#8BC5E4"/>
<path d="M48.0903 213.517V206.377L100.052 176.377V183.517L48.0903 213.517Z" fill="#8BC5E4"/>
<path d="M48.0903 206.377L51.5457 208.372L103.507 178.372L100.052 176.377L48.0903 206.377Z" fill="#8BC5E4"/>
<path d="M51.5459 208.372V206.292L103.507 176.292V178.372L51.5459 208.372Z" fill="#8BC5E4"/>
<path d="M51.5457 206.293L48.0903 204.298L100.052 174.298L103.507 176.293L51.5457 206.293Z" fill="#8BC5E4"/>
<path d="M48.0903 204.297V198.917L100.052 168.917V174.297L48.0903 204.297Z" fill="#8BC5E4"/>
<path d="M48.0903 198.917L42.6084 195.752L94.5699 165.752L100.052 168.917L48.0903 198.917Z" fill="#8BC5E4"/>
<path d="M42.6084 195.752V191.212L94.5699 161.212V165.752L42.6084 195.752Z" fill="#8BC5E4"/>
<path d="M42.6083 191.212L40.7983 190.167L92.7598 160.167L94.5698 161.212L42.6083 191.212Z" fill="#8BC5E4"/>
<path d="M40.7983 190.167V194.707L92.7598 164.707V160.167L40.7983 190.167Z" fill="#8BC5E4"/>
<path d="M40.7987 194.707L34.5806 191.117L86.5421 161.117L92.7602 164.707L40.7987 194.707Z" fill="#8BC5E4"/>
<path d="M34.5806 191.117V186.577L86.5421 156.577V161.117L34.5806 191.117Z" fill="#8BC5E4"/>
<path d="M34.5805 186.577L32.7705 185.532L84.732 155.532L86.542 156.577L34.5805 186.577Z" fill="#8BC5E4"/>
<path d="M32.7705 185.532V190.072L84.732 160.072V155.532L32.7705 185.532Z" fill="#8BC5E4"/>
<path d="M32.7704 190.073L26.561 186.488L78.5225 156.488L84.7319 160.073L32.7704 190.073Z" fill="#8BC5E4"/>
<path d="M26.561 186.488V181.948L78.5225 151.948V156.488L26.561 186.488Z" fill="#8BC5E4"/>
<path d="M26.5609 181.947L24.7422 180.897L76.7038 150.897L78.5224 151.947L26.5609 181.947Z" fill="#8BC5E4"/>
<path d="M24.7422 180.897L76.7038 150.897L24.7422 180.897Z" fill="#8BC5E4"/>
<path d="M21.0791 185.403L24.7423 187.518L76.7039 157.518L73.0406 155.403L21.0791 185.403Z" fill="#8BC5E4"/>
<path d="M24.7422 187.518V189.428L76.7038 159.428V157.518L24.7422 187.518Z" fill="#8BC5E4"/>
<path d="M24.7422 189.427L26.5609 190.477L78.5224 160.477L76.7038 159.427L24.7422 189.427Z" fill="#8BC5E4"/>
<path d="M26.561 190.478V188.568L78.5225 158.568V160.478L26.561 190.478Z" fill="#8BC5E4"/>
<path d="M26.561 188.568L32.7704 192.153L84.7319 162.153L78.5225 158.568L26.561 188.568Z" fill="#8BC5E4"/>
<path d="M32.7705 192.153V194.063L84.732 164.063V162.153L32.7705 192.153Z" fill="#8BC5E4"/>
<path d="M32.7705 194.062L34.5805 195.108L86.542 165.107L84.732 164.062L32.7705 194.062Z" fill="#8BC5E4"/>
<path d="M34.5806 195.108V193.198L86.5421 163.198V165.108L34.5806 195.108Z" fill="#8BC5E4"/>
<path d="M34.5806 193.198L40.7987 196.788L92.7602 166.788L86.5421 163.198L34.5806 193.198Z" fill="#8BC5E4"/>
<path d="M40.7983 196.788V198.698L92.7598 168.698V166.788L40.7983 196.788Z" fill="#8BC5E4"/>
<path d="M40.7983 198.698L42.6083 199.743L94.5698 169.743L92.7598 168.698L40.7983 198.698Z" fill="#8BC5E4"/>
<path d="M42.6084 199.743V197.833L94.5699 167.833V169.743L42.6084 199.743Z" fill="#8BC5E4"/>
<path d="M42.6084 197.833L46.2803 199.953L98.2418 169.953L94.5699 167.833L42.6084 197.833Z" fill="#8BC5E4"/>
<path d="M46.2803 199.952V203.252L98.2418 173.252V169.952L46.2803 199.952Z" fill="#8BC5E4"/>
<path d="M46.2805 203.252L44.1328 202.012L96.0943 172.012L98.242 173.252L46.2805 203.252Z" fill="#8BC5E4"/>
<path d="M44.1328 202.012V204.092L96.0943 174.092V172.012L44.1328 202.012Z" fill="#8BC5E4"/>
<path d="M44.1328 204.093L46.2805 205.333L98.242 175.333L96.0943 174.093L44.1328 204.093Z" fill="#8BC5E4"/>
<path d="M46.2803 205.333V212.473L98.2418 182.473V175.333L46.2803 205.333Z" fill="#8BC5E4"/>
<path d="M46.2805 212.472L44.1328 211.232L96.0943 181.232L98.242 182.472L46.2805 212.472Z" fill="#8BC5E4"/>
<path d="M44.1328 211.232V213.322L96.0943 183.322V181.232L44.1328 211.232Z" fill="#8BC5E4"/>
<path d="M44.1328 213.323L46.2805 214.563L98.242 184.563L96.0943 183.323L44.1328 213.323Z" fill="#8BC5E4"/>
<path d="M46.2803 214.562V221.702L98.2418 191.702V184.562L46.2803 214.562Z" fill="#8BC5E4"/>
<path d="M46.2805 221.702L44.1328 220.462L96.0943 190.462L98.242 191.702L46.2805 221.702Z" fill="#8BC5E4"/>
<path d="M44.1328 220.462V222.542L96.0943 192.542V190.462L44.1328 220.462Z" fill="#8BC5E4"/>
<path d="M44.1328 222.542L46.2805 223.782L98.242 193.782L96.0943 192.542L44.1328 222.542Z" fill="#8BC5E4"/>
<path d="M46.2803 223.782V227.082L98.2418 197.082V193.782L46.2803 223.782Z" fill="#8BC5E4"/>
<path d="M46.2803 227.082L42.6084 224.962L94.5699 194.962L98.2418 197.082L46.2803 227.082Z" fill="#8BC5E4"/>
<path d="M42.6084 224.963V223.393L94.5699 193.393V194.963L42.6084 224.963Z" fill="#8BC5E4"/>
<path d="M42.6083 223.392L40.7983 222.347L92.7598 192.347L94.5698 193.392L42.6083 223.392Z" fill="#8BC5E4"/>
<path d="M40.7983 222.347V223.917L92.7598 193.917V192.347L40.7983 222.347Z" fill="#8BC5E4"/>
<path d="M40.7987 223.917L34.5806 220.327L86.5421 190.327L92.7602 193.917L40.7987 223.917Z" fill="#8BC5E4"/>
<path d="M34.5806 220.328V218.758L86.5421 188.758V190.328L34.5806 220.328Z" fill="#8BC5E4"/>
<path d="M34.5805 218.757L32.7705 217.712L84.732 187.712L86.542 188.757L34.5805 218.757Z" fill="#8BC5E4"/>
<path d="M32.7705 217.712V219.282L84.732 189.282V187.712L32.7705 217.712Z" fill="#8BC5E4"/>
<path d="M32.7704 219.283L26.561 215.698L78.5225 185.698L84.7319 189.283L32.7704 219.283Z" fill="#8BC5E4"/>
<path d="M26.561 215.697V214.127L78.5225 184.127V185.697L26.561 215.697Z" fill="#8BC5E4"/>
<path d="M26.5609 214.127L24.7422 213.077L76.7038 183.077L78.5224 184.127L26.5609 214.127Z" fill="#8BC5E4"/>
<path d="M24.7422 213.077V214.647L76.7038 184.647V183.077L24.7422 213.077Z" fill="#8BC5E4"/>
<path d="M24.7423 214.647L21.0791 212.532L73.0406 182.532L76.7039 184.647L24.7423 214.647Z" fill="#8BC5E4"/>
<path d="M21.0791 212.532V209.232L73.0406 179.232V182.532L21.0791 212.532Z" fill="#8BC5E4"/>
<path d="M21.0791 209.232L23.0449 210.367L75.0065 180.367L73.0406 179.232L21.0791 209.232Z" fill="#8BC5E4"/>
<path d="M23.0449 210.368V208.288L75.0065 178.288V180.368L23.0449 210.368Z" fill="#8BC5E4"/>
<path d="M23.0449 208.288L21.0791 207.153L73.0406 177.153L75.0065 178.288L23.0449 208.288Z" fill="#8BC5E4"/>
<path d="M21.0791 207.152V200.012L73.0406 170.012V177.152L21.0791 207.152Z" fill="#8BC5E4"/>
<path d="M21.0791 200.012L23.0449 201.147L75.0065 171.147L73.0406 170.012L21.0791 200.012Z" fill="#8BC5E4"/>
<path d="M23.0449 201.147V199.057L75.0065 169.057V171.147L23.0449 201.147Z" fill="#8BC5E4"/>
<path d="M23.0449 199.058L21.0791 197.923L73.0406 167.923L75.0065 169.058L23.0449 199.058Z" fill="#8BC5E4"/>
<path d="M21.0791 197.922V190.782L73.0406 160.782V167.922L21.0791 197.922Z" fill="#8BC5E4"/>
<path d="M21.0791 190.782L23.0449 191.917L75.0065 161.917L73.0406 160.782L21.0791 190.782Z" fill="#8BC5E4"/>
<path d="M23.0449 191.917V189.837L75.0065 159.837V161.917L23.0449 191.917Z" fill="#8BC5E4"/>
<path d="M23.0449 189.837L21.0791 188.702L73.0406 158.702L75.0065 159.837L23.0449 189.837Z" fill="#8BC5E4"/>
<path d="M21.0791 188.703V185.403L73.0406 155.403V158.703L21.0791 188.703Z" fill="#8BC5E4"/>
<path d="M21.0791 185.403L73.0406 155.403L21.0791 185.403Z" fill="#8BC5E4"/>
<path d="M26.6738 194.133V199.603L78.6353 169.603V164.133L26.6738 194.133Z" fill="#8BC5E4"/>
<path d="M26.6738 199.603L31.4369 202.353L83.3984 172.353L78.6353 169.603L26.6738 199.603Z" fill="#8BC5E4"/>
<path d="M31.4365 202.353V196.883L83.398 166.883V172.353L31.4365 202.353Z" fill="#8BC5E4"/>
<path d="M31.4369 196.883L26.6738 194.133L78.6353 164.133L83.3984 166.883L31.4369 196.883Z" fill="#8BC5E4"/>
<path d="M26.6738 194.133L78.6353 164.133L26.6738 194.133Z" fill="#8BC5E4"/>
<path d="M35.9229 199.472V204.942L87.8845 174.942V169.472L35.9229 199.472Z" fill="#8BC5E4"/>
<path d="M35.9229 204.943L40.6861 207.693L92.6476 177.693L87.8845 174.943L35.9229 204.943Z" fill="#8BC5E4"/>
<path d="M40.686 207.692V202.222L92.6475 172.222V177.692L40.686 207.692Z" fill="#8BC5E4"/>
<path d="M40.6861 202.222L35.9229 199.472L87.8845 169.472L92.6476 172.222L40.6861 202.222Z" fill="#8BC5E4"/>
<path d="M35.9229 199.472L87.8845 169.472L35.9229 199.472Z" fill="#8BC5E4"/>
<path d="M26.6738 204.792V210.272L78.6353 180.272V174.792L26.6738 204.792Z" fill="#8BC5E4"/>
<path d="M26.6738 210.272L31.4369 213.022L83.3984 183.022L78.6353 180.272L26.6738 210.272Z" fill="#8BC5E4"/>
<path d="M31.4365 213.022V207.542L83.398 177.542V183.022L31.4365 213.022Z" fill="#8BC5E4"/>
<path d="M31.4369 207.542L26.6738 204.792L78.6353 174.792L83.3984 177.542L31.4369 207.542Z" fill="#8BC5E4"/>
<path d="M26.6738 204.792L78.6353 174.792L26.6738 204.792Z" fill="#8BC5E4"/>
<path d="M35.9229 210.133V215.613L87.8845 185.613V180.133L35.9229 210.133Z" fill="#8BC5E4"/>
<path d="M35.9229 215.613L40.6861 218.363L92.6476 188.363L87.8845 185.613L35.9229 215.613Z" fill="#8BC5E4"/>
<path d="M40.686 218.363V212.883L92.6475 182.883V188.363L40.686 218.363Z" fill="#8BC5E4"/>
<path d="M40.6861 212.883L35.9229 210.133L87.8845 180.133L92.6476 182.883L40.6861 212.883Z" fill="#8BC5E4"/>
<path d="M35.9229 210.133L87.8845 180.133L35.9229 210.133Z" fill="#8BC5E4"/>
<path d="M75.3877 189.857V176.427L127.349 146.427V159.857L75.3877 189.857Z" fill="#8BC5E4"/>
<path d="M75.3874 176.428L44.4443 158.562L96.4058 128.562L127.349 146.427L75.3874 176.428Z" fill="#8BC5E4"/>
<path d="M44.4443 158.562V147.942L96.4058 117.942V128.562L44.4443 158.562Z" fill="#8BC5E4"/>
<path d="M44.4444 147.942L18.0913 150.697L70.0528 120.697L96.4059 117.942L44.4444 147.942Z" fill="#8BC5E4"/>
<path d="M18.0913 150.698L44.4444 183.613L96.4059 153.613L70.0528 120.698L18.0913 150.698Z" fill="#8BC5E4"/>
<path d="M44.4443 183.612V171.992L96.4058 141.992V153.612L44.4443 183.612Z" fill="#8BC5E4"/>
<path d="M44.4443 171.992L75.3874 189.857L127.349 159.857L96.4058 141.992L44.4443 171.992Z" fill="#8BC5E4"/>
<path d="M75.3877 189.857L127.349 159.857L75.3877 189.857Z" fill="#8BC5E4"/>
<path d="M93.0977 147.563V134.133L145.059 104.133V117.563L93.0977 147.563Z" fill="#8BC5E4"/>
<path d="M93.0979 134.133L62.1548 116.268L114.116 86.2676L145.059 104.133L93.0979 134.133Z" fill="#8BC5E4"/>
<path d="M62.1548 116.267V105.657L114.116 75.6575V86.2675L62.1548 116.267Z" fill="#8BC5E4"/>
<path d="M62.1546 105.657L35.8101 108.407L87.7717 78.4075L114.116 75.6575L62.1546 105.657Z" fill="#8BC5E4"/>
<path d="M35.8101 108.407L62.1546 141.317L114.116 111.317L87.7717 78.4075L35.8101 108.407Z" fill="#8BC5E4"/>
<path d="M62.1548 141.318V129.698L114.116 99.6975V111.318L62.1548 141.318Z" fill="#8BC5E4"/>
<path d="M62.1548 129.698L93.0979 147.563L145.059 117.563L114.116 99.6975L62.1548 129.698Z" fill="#8BC5E4"/>
<path d="M93.0977 147.562L145.059 117.562L93.0977 147.562Z" fill="#8BC5E4"/>
<path d="M81.6577 166.618V153.188L133.619 123.188V136.618L81.6577 166.618Z" fill="#8BC5E4"/>
<path d="M81.6577 153.188L112.601 171.053L164.562 141.052L133.619 123.188L81.6577 153.188Z" fill="#8BC5E4"/>
<path d="M112.601 171.052V160.442L164.562 130.442V141.052L112.601 171.052Z" fill="#8BC5E4"/>
<path d="M112.601 160.442L138.945 193.622L190.907 163.622L164.562 130.442L112.601 160.442Z" fill="#8BC5E4"/>
<path d="M138.945 193.623L112.601 196.103L164.562 166.103L190.907 163.623L138.945 193.623Z" fill="#8BC5E4"/>
<path d="M112.601 196.102V184.482L164.562 154.482V166.102L112.601 196.102Z" fill="#8BC5E4"/>
<path d="M112.601 184.482L81.6577 166.617L133.619 136.617L164.562 154.482L112.601 184.482Z" fill="#8BC5E4"/>
<path d="M81.6577 166.617L133.619 136.617L81.6577 166.617Z" fill="#8BC5E4"/>
<path d="M98.874 123.968V110.538L150.836 80.5376V93.9676L98.874 123.968Z" fill="#8BC5E4"/>
<path d="M98.874 110.538L129.817 128.403L181.779 98.4026L150.836 80.5376L98.874 110.538Z" fill="#8BC5E4"/>
<path d="M129.817 128.402V117.792L181.779 87.7925V98.4025L129.817 128.402Z" fill="#8BC5E4"/>
<path d="M129.817 117.792L156.162 150.972L208.123 120.972L181.779 87.7925L129.817 117.792Z" fill="#8BC5E4"/>
<path d="M156.162 150.972L129.817 153.452L181.779 123.452L208.123 120.972L156.162 150.972Z" fill="#8BC5E4"/>
<path d="M129.817 153.453V141.833L181.779 111.833V123.453L129.817 153.453Z" fill="#8BC5E4"/>
<path d="M129.817 141.833L98.874 123.968L150.836 93.9675L181.779 111.833L129.817 141.833Z" fill="#8BC5E4"/>
<path d="M98.874 123.968L150.836 93.9675L98.874 123.968Z" fill="#8BC5E4"/>
<path d="M116.724 266.735L116.723 266.732L168.685 236.732L168.686 236.735L116.724 266.735Z" fill="#8BC5E4"/>
<path d="M126.241 254.677L178.202 224.677L126.241 254.677Z" fill="#8BC5E4"/>
<path d="M142.929 264.302L194.89 234.302L142.929 264.302Z" fill="#8BC5E4"/>
<path d="M117.078 226.417L169.04 196.417L117.078 226.417Z" fill="#8BC5E4"/>
<path d="M152.109 246.643L204.07 216.643L152.109 246.643Z" fill="#8BC5E4"/>
<path d="M134.675 229.357L130.181 231.702L182.142 201.702L186.637 199.357L134.675 229.357Z" fill="#8BC5E4"/>
<path d="M130.181 231.702L133.368 233.542L185.329 203.542L182.142 201.702L130.181 231.702Z" fill="#8BC5E4"/>
<path d="M133.368 233.542V244.052L185.329 214.052V203.542L133.368 233.542Z" fill="#8BC5E4"/>
<path d="M123.928 249.273L114.939 244.083L166.9 214.083L175.89 219.273L123.928 249.273Z" fill="#8BC5E4"/>
<path d="M114.939 244.083V240.423L166.9 210.423V214.083L114.939 244.083Z" fill="#8BC5E4"/>
<path d="M114.939 240.423L110.644 243.103L162.605 213.103L166.901 210.423L114.939 240.423Z" fill="#8BC5E4"/>
<path d="M110.644 243.103L114.939 250.553L166.901 220.553L162.605 213.103L110.644 243.103Z" fill="#8BC5E4"/>
<path d="M114.939 250.553V247.163L166.9 217.163V220.553L114.939 250.553Z" fill="#8BC5E4"/>
<path d="M114.939 247.163L123.729 252.238L175.691 222.238L166.9 217.163L114.939 247.163Z" fill="#8BC5E4"/>
<path d="M133.368 268.202V278.712L185.329 248.712V238.202L133.368 268.202Z" fill="#8BC5E4"/>
<path d="M133.368 278.713L130.181 276.873L182.142 246.873L185.329 248.713L133.368 278.713Z" fill="#8BC5E4"/>
<path d="M130.181 276.873L134.675 284.408L186.637 254.408L182.142 246.873L130.181 276.873Z" fill="#8BC5E4"/>
<path d="M134.676 284.407L138.997 281.962L190.959 251.962L186.637 254.407L134.676 284.407Z" fill="#8BC5E4"/>
<path d="M138.997 281.963L136.044 280.258L188.006 250.258L190.959 251.963L138.997 281.963Z" fill="#8BC5E4"/>
<path d="M136.044 280.258V269.968L188.006 239.968V250.258L136.044 280.258Z" fill="#8BC5E4"/>
<path d="M145.458 264.782L154.239 269.852L206.201 239.852L197.419 234.782L145.458 264.782Z" fill="#8BC5E4"/>
<path d="M154.239 269.853V273.243L206.201 243.243V239.853L154.239 269.853Z" fill="#8BC5E4"/>
<path d="M154.239 273.243L158.543 270.758L210.505 240.758L206.201 243.243L154.239 273.243Z" fill="#8BC5E4"/>
<path d="M158.543 270.758L154.239 263.113L206.201 233.113L210.505 240.758L158.543 270.758Z" fill="#8BC5E4"/>
<path d="M154.239 263.113V266.773L206.201 236.773V233.113L154.239 263.113Z" fill="#8BC5E4"/>
<path d="M154.239 266.773L145.25 261.583L197.211 231.583L206.201 236.773L154.239 266.773Z" fill="#8BC5E4"/>
<path d="M136.044 245.377V235.087L188.006 205.087V215.377L136.044 245.377Z" fill="#8BC5E4"/>
<path d="M136.044 235.087L138.997 236.792L190.959 206.792L188.006 205.087L136.044 235.087Z" fill="#8BC5E4"/>
<path d="M138.997 236.792L134.676 229.357L186.637 199.357L190.959 206.792L138.997 236.792Z" fill="#8BC5E4"/>
<path d="M134.676 229.357L186.637 199.357L134.676 229.357Z" fill="#8BC5E4"/>
<path d="M10.626 36.9675L162.579 124.698L214.54 94.6975L62.5876 6.96753L10.626 36.9675Z" fill="#8BC5E4"/>
<path d="M168.407 134.752V310.322L220.369 280.322V104.752L168.407 134.752Z" fill="#8BC5E4"/>
<path d="M162.579 313.657L10.626 225.927L62.5876 195.927L214.54 283.657L162.579 313.657Z" fill="#8BC5E4"/>
<path d="M4.79785 215.862V40.2925L56.7593 10.2925V185.862L4.79785 215.862Z" fill="#8BC5E4"/>
<path d="M10.626 36.9675L62.5876 6.96753L10.626 36.9675Z" fill="#8BC5E4"/>
<path d="M0 37.5225V213.092L51.9615 183.092V7.52246L0 37.5225Z" fill="#8BC5E4"/>
<path d="M10.626 231.448L162.579 319.178L214.54 289.178L62.5876 201.448L10.626 231.448Z" fill="#8BC5E4"/>
<path d="M173.205 313.092V137.522L225.167 107.522V283.092L173.205 313.092Z" fill="#8BC5E4"/>
<path d="M162.579 119.178L10.626 31.4475L62.5876 1.44751L214.54 89.1775L162.579 119.178Z" fill="#8BC5E4"/>
<path d="M10.626 31.4475L62.5876 1.44751L10.626 31.4475Z" fill="#8BC5E4"/>
<path d="M21.0791 185.403L24.7423 187.518L76.7039 157.518L73.0406 155.403L21.0791 185.403Z" fill="#8BC5E4"/>
<path d="M24.7422 187.518V189.428L76.7038 159.428V157.518L24.7422 187.518Z" fill="#8BC5E4"/>
<path d="M24.7422 189.427L26.5609 190.477L78.5224 160.477L76.7038 159.427L24.7422 189.427Z" fill="#8BC5E4"/>
<path d="M26.561 190.478V188.568L78.5225 158.568V160.478L26.561 190.478Z" fill="#8BC5E4"/>
<path d="M26.561 188.568L32.7704 192.153L84.7319 162.153L78.5225 158.568L26.561 188.568Z" fill="#8BC5E4"/>
<path d="M32.7705 192.153V194.063L84.732 164.063V162.153L32.7705 192.153Z" fill="#8BC5E4"/>
<path d="M32.7705 194.062L34.5805 195.108L86.542 165.107L84.732 164.062L32.7705 194.062Z" fill="#8BC5E4"/>
<path d="M34.5806 195.108V193.198L86.5421 163.198V165.108L34.5806 195.108Z" fill="#8BC5E4"/>
<path d="M34.5806 193.198L40.7987 196.788L92.7602 166.788L86.5421 163.198L34.5806 193.198Z" fill="#8BC5E4"/>
<path d="M40.7983 196.788V198.698L92.7598 168.698V166.788L40.7983 196.788Z" fill="#8BC5E4"/>
<path d="M40.7983 198.698L42.6083 199.743L94.5698 169.743L92.7598 168.698L40.7983 198.698Z" fill="#8BC5E4"/>
<path d="M42.6084 199.743V197.833L94.5699 167.833V169.743L42.6084 199.743Z" fill="#8BC5E4"/>
<path d="M42.6084 197.833L46.2803 199.953L98.2418 169.953L94.5699 167.833L42.6084 197.833Z" fill="#8BC5E4"/>
<path d="M46.2803 199.952V203.252L98.2418 173.252V169.952L46.2803 199.952Z" fill="#8BC5E4"/>
<path d="M46.2805 203.252L44.1328 202.012L96.0943 172.012L98.242 173.252L46.2805 203.252Z" fill="#8BC5E4"/>
<path d="M44.1328 202.012V204.092L96.0943 174.092V172.012L44.1328 202.012Z" fill="#8BC5E4"/>
<path d="M44.1328 204.093L46.2805 205.333L98.242 175.333L96.0943 174.093L44.1328 204.093Z" fill="#8BC5E4"/>
<path d="M46.2803 205.333V212.473L98.2418 182.473V175.333L46.2803 205.333Z" fill="#8BC5E4"/>
<path d="M46.2805 212.472L44.1328 211.232L96.0943 181.232L98.242 182.472L46.2805 212.472Z" fill="#8BC5E4"/>
<path d="M44.1328 211.232V213.322L96.0943 183.322V181.232L44.1328 211.232Z" fill="#8BC5E4"/>
<path d="M44.1328 213.323L46.2805 214.563L98.242 184.563L96.0943 183.323L44.1328 213.323Z" fill="#8BC5E4"/>
<path d="M46.2803 214.562V221.702L98.2418 191.702V184.562L46.2803 214.562Z" fill="#8BC5E4"/>
<path d="M46.2805 221.702L44.1328 220.462L96.0943 190.462L98.242 191.702L46.2805 221.702Z" fill="#8BC5E4"/>
<path d="M44.1328 220.462V222.542L96.0943 192.542V190.462L44.1328 220.462Z" fill="#8BC5E4"/>
<path d="M44.1328 222.542L46.2805 223.782L98.242 193.782L96.0943 192.542L44.1328 222.542Z" fill="#8BC5E4"/>
<path d="M46.2803 223.782V227.082L98.2418 197.082V193.782L46.2803 223.782Z" fill="#8BC5E4"/>
<path d="M46.2803 227.082L42.6084 224.962L94.5699 194.962L98.2418 197.082L46.2803 227.082Z" fill="#8BC5E4"/>
<path d="M42.6084 224.963V223.393L94.5699 193.393V194.963L42.6084 224.963Z" fill="#8BC5E4"/>
<path d="M42.6083 223.392L40.7983 222.347L92.7598 192.347L94.5698 193.392L42.6083 223.392Z" fill="#8BC5E4"/>
<path d="M40.7983 222.347V223.917L92.7598 193.917V192.347L40.7983 222.347Z" fill="#8BC5E4"/>
<path d="M40.7987 223.917L34.5806 220.327L86.5421 190.327L92.7602 193.917L40.7987 223.917Z" fill="#8BC5E4"/>
<path d="M34.5806 220.328V218.758L86.5421 188.758V190.328L34.5806 220.328Z" fill="#8BC5E4"/>
<path d="M34.5805 218.757L32.7705 217.712L84.732 187.712L86.542 188.757L34.5805 218.757Z" fill="#8BC5E4"/>
<path d="M32.7705 217.712V219.282L84.732 189.282V187.712L32.7705 217.712Z" fill="#8BC5E4"/>
<path d="M32.7704 219.283L26.561 215.698L78.5225 185.698L84.7319 189.283L32.7704 219.283Z" fill="#8BC5E4"/>
<path d="M26.561 215.697V214.127L78.5225 184.127V185.697L26.561 215.697Z" fill="#8BC5E4"/>
<path d="M26.5609 214.127L24.7422 213.077L76.7038 183.077L78.5224 184.127L26.5609 214.127Z" fill="#8BC5E4"/>
<path d="M24.7422 213.077V214.647L76.7038 184.647V183.077L24.7422 213.077Z" fill="#8BC5E4"/>
<path d="M24.7423 214.647L21.0791 212.532L73.0406 182.532L76.7039 184.647L24.7423 214.647Z" fill="#8BC5E4"/>
<path d="M21.0791 212.532V209.232L73.0406 179.232V182.532L21.0791 212.532Z" fill="#8BC5E4"/>
<path d="M21.0791 209.232L23.0449 210.367L75.0065 180.367L73.0406 179.232L21.0791 209.232Z" fill="#8BC5E4"/>
<path d="M23.0449 210.368V208.288L75.0065 178.288V180.368L23.0449 210.368Z" fill="#8BC5E4"/>
<path d="M23.0449 208.288L21.0791 207.153L73.0406 177.153L75.0065 178.288L23.0449 208.288Z" fill="#8BC5E4"/>
<path d="M21.0791 207.152V200.012L73.0406 170.012V177.152L21.0791 207.152Z" fill="#8BC5E4"/>
<path d="M21.0791 200.012L23.0449 201.147L75.0065 171.147L73.0406 170.012L21.0791 200.012Z" fill="#8BC5E4"/>
<path d="M23.0449 201.147V199.057L75.0065 169.057V171.147L23.0449 201.147Z" fill="#8BC5E4"/>
<path d="M23.0449 199.058L21.0791 197.923L73.0406 167.923L75.0065 169.058L23.0449 199.058Z" fill="#8BC5E4"/>
<path d="M21.0791 197.922V190.782L73.0406 160.782V167.922L21.0791 197.922Z" fill="#8BC5E4"/>
<path d="M21.0791 190.782L23.0449 191.917L75.0065 161.917L73.0406 160.782L21.0791 190.782Z" fill="#8BC5E4"/>
<path d="M23.0449 191.917V189.837L75.0065 159.837V161.917L23.0449 191.917Z" fill="#8BC5E4"/>
<path d="M23.0449 189.837L21.0791 188.702L73.0406 158.702L75.0065 159.837L23.0449 189.837Z" fill="#8BC5E4"/>
<path d="M21.0791 188.703V185.403L73.0406 155.403V158.703L21.0791 188.703Z" fill="#8BC5E4"/>
<path d="M21.0791 185.403L73.0406 155.403L21.0791 185.403Z" fill="#8BC5E4"/>
<path d="M26.6738 199.603V194.133L78.6353 164.133V169.603L26.6738 199.603Z" fill="#8BC5E4"/>
<path d="M26.6738 194.133L31.4369 196.883L83.3984 166.883L78.6353 164.133L26.6738 194.133Z" fill="#8BC5E4"/>
<path d="M31.4365 196.883V202.353L83.398 172.353V166.883L31.4365 196.883Z" fill="#8BC5E4"/>
<path d="M31.4369 202.353L26.6738 199.603L78.6353 169.603L83.3984 172.353L31.4369 202.353Z" fill="#8BC5E4"/>
<path d="M26.6738 199.603L78.6353 169.603L26.6738 199.603Z" fill="#8BC5E4"/>
<path d="M35.9229 204.942V199.472L87.8845 169.472V174.942L35.9229 204.942Z" fill="#8BC5E4"/>
<path d="M35.9229 199.472L40.6861 202.222L92.6476 172.222L87.8845 169.472L35.9229 199.472Z" fill="#8BC5E4"/>
<path d="M40.686 202.222V207.692L92.6475 177.692V172.222L40.686 202.222Z" fill="#8BC5E4"/>
<path d="M40.6861 207.693L35.9229 204.943L87.8845 174.943L92.6476 177.693L40.6861 207.693Z" fill="#8BC5E4"/>
<path d="M35.9229 204.943L87.8845 174.943L35.9229 204.943Z" fill="#8BC5E4"/>
<path d="M26.6738 210.272V204.792L78.6353 174.792V180.272L26.6738 210.272Z" fill="#8BC5E4"/>
<path d="M26.6738 204.792L31.4369 207.542L83.3984 177.542L78.6353 174.792L26.6738 204.792Z" fill="#8BC5E4"/>
<path d="M31.4365 207.542V213.022L83.398 183.022V177.542L31.4365 207.542Z" fill="#8BC5E4"/>
<path d="M31.4369 213.022L26.6738 210.272L78.6353 180.272L83.3984 183.022L31.4369 213.022Z" fill="#8BC5E4"/>
<path d="M26.6738 210.272L78.6353 180.272L26.6738 210.272Z" fill="#8BC5E4"/>
<path d="M35.9229 215.613V210.133L87.8845 180.133V185.613L35.9229 215.613Z" fill="#8BC5E4"/>
<path d="M35.9229 210.133L40.6861 212.883L92.6476 182.883L87.8845 180.133L35.9229 210.133Z" fill="#8BC5E4"/>
<path d="M40.686 212.883V218.363L92.6475 188.363V182.883L40.686 212.883Z" fill="#8BC5E4"/>
<path d="M40.6861 218.363L35.9229 215.613L87.8845 185.613L92.6476 188.363L40.6861 218.363Z" fill="#8BC5E4"/>
<path d="M35.9229 215.613L87.8845 185.613L35.9229 215.613Z" fill="#8BC5E4"/>
<path d="M10.626 36.9675L162.579 124.698L214.54 94.6975L62.5876 6.96753L10.626 36.9675Z" fill="#8BC5E4"/>
<path d="M168.407 134.752V310.322L220.369 280.322V104.752L168.407 134.752Z" fill="#8BC5E4"/>
<path d="M162.579 313.657L10.626 225.927L62.5876 195.927L214.54 283.657L162.579 313.657Z" fill="#8BC5E4"/>
<path d="M4.79785 215.862V40.2925L56.7593 10.2925V185.862L4.79785 215.862Z" fill="#8BC5E4"/>
<path d="M10.626 36.9675L62.5876 6.96753L10.626 36.9675Z" fill="#8BC5E4"/>
<path d="M24.7422 185.437V180.897L76.7038 150.897V155.437L24.7422 185.437Z" fill="#8BC5E4"/>
<path d="M24.7422 180.897L26.5609 181.947L78.5224 151.947L76.7038 150.897L24.7422 180.897Z" fill="#8BC5E4"/>
<path d="M26.561 181.948V186.488L78.5225 156.488V151.948L26.561 181.948Z" fill="#8BC5E4"/>
<path d="M26.561 186.488L32.7704 190.073L84.7319 160.073L78.5225 156.488L26.561 186.488Z" fill="#8BC5E4"/>
<path d="M32.7705 190.072V185.532L84.732 155.532V160.072L32.7705 190.072Z" fill="#8BC5E4"/>
<path d="M32.7705 185.532L34.5805 186.577L86.542 156.577L84.732 155.532L32.7705 185.532Z" fill="#8BC5E4"/>
<path d="M34.5806 186.577V191.117L86.5421 161.117V156.577L34.5806 186.577Z" fill="#8BC5E4"/>
<path d="M34.5806 191.117L40.7987 194.707L92.7602 164.707L86.5421 161.117L34.5806 191.117Z" fill="#8BC5E4"/>
<path d="M40.7983 194.707V190.167L92.7598 160.167V164.707L40.7983 194.707Z" fill="#8BC5E4"/>
<path d="M40.7983 190.167L42.6083 191.212L94.5698 161.212L92.7598 160.167L40.7983 190.167Z" fill="#8BC5E4"/>
<path d="M42.6084 191.212V195.752L94.5699 165.752V161.212L42.6084 191.212Z" fill="#8BC5E4"/>
<path d="M42.6084 195.752L48.0903 198.917L100.052 168.917L94.5699 165.752L42.6084 195.752Z" fill="#8BC5E4"/>
<path d="M48.0903 198.917V204.297L100.052 174.297V168.917L48.0903 198.917Z" fill="#8BC5E4"/>
<path d="M48.0903 204.298L51.5457 206.293L103.507 176.293L100.052 174.298L48.0903 204.298Z" fill="#8BC5E4"/>
<path d="M51.5459 206.292V208.372L103.507 178.372V176.292L51.5459 206.292Z" fill="#8BC5E4"/>
<path d="M51.5457 208.372L48.0903 206.377L100.052 176.377L103.507 178.372L51.5457 208.372Z" fill="#8BC5E4"/>
<path d="M48.0903 206.377V213.517L100.052 183.517V176.377L48.0903 206.377Z" fill="#8BC5E4"/>
<path d="M48.0903 213.518L51.5457 215.513L103.507 185.513L100.052 183.518L48.0903 213.518Z" fill="#8BC5E4"/>
<path d="M51.5459 215.512V217.602L103.507 187.602V185.512L51.5459 215.512Z" fill="#8BC5E4"/>
<path d="M51.5457 217.602L48.0903 215.607L100.052 185.607L103.507 187.602L51.5457 217.602Z" fill="#8BC5E4"/>
<path d="M48.0903 215.607V222.747L100.052 192.747V185.607L48.0903 215.607Z" fill="#8BC5E4"/>
<path d="M48.0903 222.748L51.5457 224.743L103.507 194.743L100.052 192.748L48.0903 222.748Z" fill="#8BC5E4"/>
<path d="M51.5459 224.742V226.822L103.507 196.822V194.742L51.5459 224.742Z" fill="#8BC5E4"/>
<path d="M51.5457 226.822L48.0903 224.827L100.052 194.827L103.507 196.822L51.5457 226.822Z" fill="#8BC5E4"/>
<path d="M48.0903 224.827V230.207L100.052 200.207V194.827L48.0903 224.827Z" fill="#8BC5E4"/>
<path d="M48.0903 230.207L42.6084 227.042L94.5699 197.042L100.052 200.207L48.0903 230.207Z" fill="#8BC5E4"/>
<path d="M42.6084 227.042V231.912L94.5699 201.912V197.042L42.6084 227.042Z" fill="#8BC5E4"/>
<path d="M42.6083 231.912L40.7983 230.867L92.7598 200.867L94.5698 201.912L42.6083 231.912Z" fill="#8BC5E4"/>
<path d="M40.7983 230.868V225.998L92.7598 195.998V200.868L40.7983 230.868Z" fill="#8BC5E4"/>
<path d="M40.7987 225.997L34.5806 222.407L86.5421 192.407L92.7602 195.997L40.7987 225.997Z" fill="#8BC5E4"/>
<path d="M34.5806 222.407V227.277L86.5421 197.277V192.407L34.5806 222.407Z" fill="#8BC5E4"/>
<path d="M34.5805 227.277L32.7705 226.232L84.732 196.232L86.542 197.277L34.5805 227.277Z" fill="#8BC5E4"/>
<path d="M32.7705 226.233V221.363L84.732 191.363V196.233L32.7705 226.233Z" fill="#8BC5E4"/>
<path d="M32.7704 221.363L26.561 217.778L78.5225 187.778L84.7319 191.363L32.7704 221.363Z" fill="#8BC5E4"/>
<path d="M26.561 217.778V222.648L78.5225 192.648V187.778L26.561 217.778Z" fill="#8BC5E4"/>
<path d="M26.5609 222.647L24.7422 221.597L76.7038 191.597L78.5224 192.647L26.5609 222.647Z" fill="#8BC5E4"/>
<path d="M24.7422 221.598V216.728L76.7038 186.728V191.598L24.7422 221.598Z" fill="#8BC5E4"/>
<path d="M24.7422 216.728L19.2603 213.562L71.2218 183.562L76.7038 186.727L24.7422 216.728Z" fill="#8BC5E4"/>
<path d="M19.2603 213.562V208.182L71.2218 178.182V183.562L19.2603 213.562Z" fill="#8BC5E4"/>
<path d="M19.2604 208.182L15.6318 206.087L67.5933 176.087L71.2219 178.182L19.2604 208.182Z" fill="#8BC5E4"/>
<path d="M15.6318 206.088V204.008L67.5933 174.008V176.088L15.6318 206.088Z" fill="#8BC5E4"/>
<path d="M15.6318 204.008L19.2604 206.103L71.2219 176.103L67.5933 174.008L15.6318 204.008Z" fill="#8BC5E4"/>
<path d="M19.2603 206.102V198.962L71.2218 168.962V176.102L19.2603 206.102Z" fill="#8BC5E4"/>
<path d="M19.2604 198.962L15.6318 196.867L67.5933 166.867L71.2219 168.962L19.2604 198.962Z" fill="#8BC5E4"/>
<path d="M15.6318 196.868V194.778L67.5933 164.778V166.868L15.6318 196.868Z" fill="#8BC5E4"/>
<path d="M15.6318 194.778L19.2604 196.873L71.2219 166.873L67.5933 164.778L15.6318 194.778Z" fill="#8BC5E4"/>
<path d="M19.2603 196.872V189.732L71.2218 159.732V166.872L19.2603 196.872Z" fill="#8BC5E4"/>
<path d="M19.2604 189.732L15.6318 187.637L67.5933 157.637L71.2219 159.732L19.2604 189.732Z" fill="#8BC5E4"/>
<path d="M15.6318 187.637V185.557L67.5933 155.557V157.637L15.6318 187.637Z" fill="#8BC5E4"/>
<path d="M15.6318 185.557L19.2604 187.652L71.2219 157.652L67.5933 155.557L15.6318 185.557Z" fill="#8BC5E4"/>
<path d="M19.2603 187.653V183.312L71.2218 153.312V157.653L19.2603 187.653Z" fill="#8BC5E4"/>
<path d="M19.2603 183.312V182.272L71.2218 152.272V153.312L19.2603 183.312Z" fill="#8BC5E4"/>
<path d="M19.2603 182.272L24.7422 185.437L76.7038 155.437L71.2218 152.272L19.2603 182.272Z" fill="#8BC5E4"/>
<path d="M24.7422 185.438L76.7038 155.438L24.7422 185.438Z" fill="#8BC5E4"/>
<path d="M75.3877 176.427V189.857L127.349 159.857V146.427L75.3877 176.427Z" fill="#8BC5E4"/>
<path d="M75.3874 189.857L44.4443 171.992L96.4058 141.992L127.349 159.857L75.3874 189.857Z" fill="#8BC5E4"/>
<path d="M44.4443 171.992V183.612L96.4058 153.612V141.992L44.4443 171.992Z" fill="#8BC5E4"/>
<path d="M44.4444 183.613L18.0913 150.698L70.0528 120.698L96.4059 153.613L44.4444 183.613Z" fill="#8BC5E4"/>
<path d="M18.0913 150.697L44.4444 147.942L96.4059 117.942L70.0528 120.697L18.0913 150.697Z" fill="#8BC5E4"/>
<path d="M44.4443 147.942V158.562L96.4058 128.562V117.942L44.4443 147.942Z" fill="#8BC5E4"/>
<path d="M44.4443 158.562L75.3874 176.428L127.349 146.427L96.4058 128.562L44.4443 158.562Z" fill="#8BC5E4"/>
<path d="M75.3877 176.427L127.349 146.427L75.3877 176.427Z" fill="#8BC5E4"/>
<path d="M93.0977 134.133V147.563L145.059 117.563V104.133L93.0977 134.133Z" fill="#8BC5E4"/>
<path d="M93.0979 147.563L62.1548 129.698L114.116 99.6975L145.059 117.563L93.0979 147.563Z" fill="#8BC5E4"/>
<path d="M62.1548 129.698V141.318L114.116 111.318V99.6975L62.1548 129.698Z" fill="#8BC5E4"/>
<path d="M62.1546 141.317L35.8101 108.407L87.7717 78.4075L114.116 111.317L62.1546 141.317Z" fill="#8BC5E4"/>
<path d="M35.8101 108.407L62.1546 105.657L114.116 75.6575L87.7717 78.4075L35.8101 108.407Z" fill="#8BC5E4"/>
<path d="M62.1548 105.657V116.267L114.116 86.2675V75.6575L62.1548 105.657Z" fill="#8BC5E4"/>
<path d="M62.1548 116.268L93.0979 134.133L145.059 104.133L114.116 86.2676L62.1548 116.268Z" fill="#8BC5E4"/>
<path d="M93.0977 134.133L145.059 104.133L93.0977 134.133Z" fill="#8BC5E4"/>
<path d="M81.6577 153.188V166.618L133.619 136.618V123.188L81.6577 153.188Z" fill="#8BC5E4"/>
<path d="M81.6577 166.617L112.601 184.482L164.562 154.482L133.619 136.617L81.6577 166.617Z" fill="#8BC5E4"/>
<path d="M112.601 184.482V196.102L164.562 166.102V154.482L112.601 184.482Z" fill="#8BC5E4"/>
<path d="M112.601 196.103L138.945 193.623L190.907 163.623L164.562 166.103L112.601 196.103Z" fill="#8BC5E4"/>
<path d="M138.945 193.622L112.601 160.442L164.562 130.442L190.907 163.622L138.945 193.622Z" fill="#8BC5E4"/>
<path d="M112.601 160.442V171.052L164.562 141.052V130.442L112.601 160.442Z" fill="#8BC5E4"/>
<path d="M112.601 171.053L81.6577 153.188L133.619 123.188L164.562 141.052L112.601 171.053Z" fill="#8BC5E4"/>
<path d="M81.6577 153.188L133.619 123.188L81.6577 153.188Z" fill="#8BC5E4"/>
<path d="M98.874 110.538V123.968L150.836 93.9676V80.5376L98.874 110.538Z" fill="#8BC5E4"/>
<path d="M98.874 123.968L129.817 141.833L181.779 111.833L150.836 93.9675L98.874 123.968Z" fill="#8BC5E4"/>
<path d="M129.817 141.833V153.453L181.779 123.453V111.833L129.817 141.833Z" fill="#8BC5E4"/>
<path d="M129.817 153.452L156.162 150.972L208.123 120.972L181.779 123.452L129.817 153.452Z" fill="#8BC5E4"/>
<path d="M156.162 150.972L129.817 117.792L181.779 87.7925L208.123 120.972L156.162 150.972Z" fill="#8BC5E4"/>
<path d="M129.817 117.792V128.402L181.779 98.4025V87.7925L129.817 117.792Z" fill="#8BC5E4"/>
<path d="M129.817 128.403L98.874 110.538L150.836 80.5376L181.779 98.4026L129.817 128.403Z" fill="#8BC5E4"/>
<path d="M98.874 110.538L150.836 80.5376L98.874 110.538Z" fill="#8BC5E4"/>
<path d="M130.181 231.702L134.675 229.357L186.637 199.357L182.142 201.702L130.181 231.702Z" fill="#8BC5E4"/>
<path d="M134.676 229.357L138.997 236.792L190.959 206.792L186.637 199.357L134.676 229.357Z" fill="#8BC5E4"/>
<path d="M138.997 236.792L136.044 235.087L188.006 205.087L190.959 206.792L138.997 236.792Z" fill="#8BC5E4"/>
<path d="M136.044 235.087V245.377L188.006 215.377V205.087L136.044 235.087Z" fill="#8BC5E4"/>
<path d="M145.25 261.583L154.239 266.773L206.201 236.773L197.211 231.583L145.25 261.583Z" fill="#8BC5E4"/>
<path d="M154.239 266.773V263.113L206.201 233.113V236.773L154.239 266.773Z" fill="#8BC5E4"/>
<path d="M154.239 263.113L158.543 270.758L210.505 240.758L206.201 233.113L154.239 263.113Z" fill="#8BC5E4"/>
<path d="M158.543 270.758L154.239 273.243L206.201 243.243L210.505 240.758L158.543 270.758Z" fill="#8BC5E4"/>
<path d="M154.239 273.243V269.853L206.201 239.853V243.243L154.239 273.243Z" fill="#8BC5E4"/>
<path d="M154.239 269.852L145.458 264.782L197.419 234.782L206.201 239.852L154.239 269.852Z" fill="#8BC5E4"/>
<path d="M136.044 269.968V280.258L188.006 250.258V239.968L136.044 269.968Z" fill="#8BC5E4"/>
<path d="M136.044 280.258L138.997 281.963L190.959 251.963L188.006 250.258L136.044 280.258Z" fill="#8BC5E4"/>
<path d="M138.997 281.962L134.676 284.407L186.637 254.407L190.959 251.962L138.997 281.962Z" fill="#8BC5E4"/>
<path d="M134.675 284.408L130.181 276.873L182.142 246.873L186.637 254.408L134.675 284.408Z" fill="#8BC5E4"/>
<path d="M130.181 276.873L133.368 278.713L185.329 248.713L182.142 246.873L130.181 276.873Z" fill="#8BC5E4"/>
<path d="M133.368 278.712V268.202L185.329 238.202V248.712L133.368 278.712Z" fill="#8BC5E4"/>
<path d="M123.729 252.238L114.939 247.163L166.9 217.163L175.691 222.238L123.729 252.238Z" fill="#8BC5E4"/>
<path d="M114.939 247.163V250.553L166.9 220.553V217.163L114.939 247.163Z" fill="#8BC5E4"/>
<path d="M114.939 250.553L110.644 243.103L162.605 213.103L166.901 220.553L114.939 250.553Z" fill="#8BC5E4"/>
<path d="M110.644 243.103L114.939 240.423L166.901 210.423L162.605 213.103L110.644 243.103Z" fill="#8BC5E4"/>
<path d="M114.939 240.423V244.083L166.9 214.083V210.423L114.939 240.423Z" fill="#8BC5E4"/>
<path d="M114.939 244.083L123.928 249.273L175.89 219.273L166.9 214.083L114.939 244.083Z" fill="#8BC5E4"/>
<path d="M133.368 244.052V233.542L185.329 203.542V214.052L133.368 244.052Z" fill="#8BC5E4"/>
<path d="M133.368 233.542L130.181 231.702L182.142 201.702L185.329 203.542L133.368 233.542Z" fill="#8BC5E4"/>
<path d="M130.181 231.702L182.142 201.702L130.181 231.702Z" fill="#8BC5E4"/>
<path d="M152.109 246.643L204.07 216.643L152.109 246.643Z" fill="#8BC5E4"/>
<path d="M117.078 226.417L169.04 196.417L117.078 226.417Z" fill="#8BC5E4"/>
<path d="M116.724 266.735L116.723 266.732L168.685 236.732L168.686 236.735L116.724 266.735Z" fill="#8BC5E4"/>
<path d="M126.241 254.677L178.202 224.677L126.241 254.677Z" fill="#8BC5E4"/>
<path d="M142.929 264.302L194.89 234.302L142.929 264.302Z" fill="#8BC5E4"/>
<path d="M126.241 254.677C127.046 258.452 129.272 262.337 132.147 264.967L184.109 234.967C181.233 232.337 179.008 228.452 178.202 224.677L126.241 254.677Z" fill="#8BC5E4"/>
<path d="M132.147 264.968C131.981 265.037 131.816 265.104 131.651 265.171L183.612 235.171C183.777 235.104 183.942 235.037 184.108 234.968L132.147 264.968Z" fill="#8BC5E4"/>
<path d="M131.651 265.17C128.694 266.361 125.904 267.155 123.503 267.511L175.464 237.511C177.865 237.155 180.655 236.361 183.612 235.17L131.651 265.17Z" fill="#8BC5E4"/>
<path d="M123.495 267.512C121.495 267.817 119.754 267.812 118.499 267.547L170.46 237.547C171.716 237.812 173.456 237.817 175.457 237.512L123.495 267.512Z" fill="#8BC5E4"/>
<path d="M118.498 267.548C117.875 267.418 117.373 267.208 117.078 267.028L169.04 237.028C169.334 237.208 169.836 237.418 170.46 237.548L118.498 267.548Z" fill="#8BC5E4"/>
<path d="M117.078 267.027C116.788 266.85 116.736 266.756 116.724 266.735L168.686 236.735C168.697 236.756 168.749 236.85 169.039 237.027L117.078 267.027Z" fill="#8BC5E4"/>
<path d="M116.723 266.732C116.723 266.732 116.663 266.637 116.654 266.292L168.615 236.292C168.624 236.637 168.685 236.732 168.685 236.732L116.723 266.732Z" fill="#8BC5E4"/>
<path d="M116.654 266.293C116.654 265.943 116.732 265.418 116.94 264.818L168.901 234.818C168.693 235.418 168.615 235.943 168.615 236.293L116.654 266.293Z" fill="#8BC5E4"/>
<path d="M116.939 264.817C117.355 263.627 118.256 262.167 119.555 260.637L171.516 230.637C170.217 232.167 169.317 233.627 168.901 234.817L116.939 264.817Z" fill="#8BC5E4"/>
<path d="M119.555 260.638C121.113 258.81 123.247 256.865 125.809 254.99L177.77 224.99C175.208 226.865 173.074 228.81 171.516 230.638L119.555 260.638Z" fill="#8BC5E4"/>
<path d="M125.809 254.989C125.951 254.885 126.095 254.781 126.241 254.677L178.203 224.677C178.057 224.781 177.913 224.885 177.771 224.989L125.809 254.989Z" fill="#8BC5E4"/>
<path d="M142.929 264.302C145.691 269.467 147.978 274.157 149.632 278.002L201.593 248.002C199.939 244.157 197.653 239.467 194.89 234.302L142.929 264.302Z" fill="#8BC5E4"/>
<path d="M149.632 278.002C150.931 281.032 151.823 283.527 152.239 285.197L204.2 255.197C203.784 253.527 202.892 251.032 201.593 248.002L149.632 278.002Z" fill="#8BC5E4"/>
<path d="M152.239 285.198C152.447 286.038 152.533 286.658 152.525 287.003L204.486 257.003C204.495 256.658 204.408 256.038 204.2 255.198L152.239 285.198Z" fill="#8BC5E4"/>
<path d="M152.524 287.002C152.516 287.337 152.455 287.362 152.455 287.362L204.417 257.362C204.417 257.362 204.477 257.337 204.486 257.002L152.524 287.002Z" fill="#8BC5E4"/>
<path d="M152.455 287.362C152.447 287.367 152.403 287.412 152.109 287.252L204.07 257.252C204.365 257.412 204.408 257.367 204.417 257.362L152.455 287.362Z" fill="#8BC5E4"/>
<path d="M152.109 287.252C151.805 287.087 151.303 286.717 150.68 286.127L202.641 256.127C203.265 256.717 203.767 257.087 204.07 257.252L152.109 287.252Z" fill="#8BC5E4"/>
<path d="M150.68 286.128C149.424 284.943 147.683 282.938 145.683 280.323L197.644 250.323C199.645 252.938 201.385 254.943 202.641 256.128L150.68 286.128Z" fill="#8BC5E4"/>
<path d="M145.683 280.322C143.145 277.017 140.175 272.722 137.04 267.792L189.002 237.792C192.137 242.722 195.107 247.017 197.644 250.322L145.683 280.322Z" fill="#8BC5E4"/>
<path d="M137.04 267.792C138.445 268.128 139.696 267.983 140.701 267.411L192.663 237.411C191.658 237.983 190.407 238.128 189.002 237.792L137.04 267.792Z" fill="#8BC5E4"/>
<path d="M140.71 267.407C141.748 266.812 142.521 265.761 142.926 264.311L194.887 234.311C194.482 235.761 193.709 236.812 192.671 237.407L140.71 267.407Z" fill="#8BC5E4"/>
<path d="M117.078 226.417C117.381 226.582 117.875 226.947 118.498 227.537L170.46 197.537C169.836 196.947 169.343 196.582 169.04 196.417L117.078 226.417Z" fill="#8BC5E4"/>
<path d="M118.499 227.538C119.754 228.713 121.495 230.718 123.495 233.333L175.457 203.333C173.456 200.718 171.716 198.713 170.46 197.538L118.499 227.538Z" fill="#8BC5E4"/>
<path d="M123.495 233.333C126.033 236.648 129.003 240.943 132.147 245.878L184.108 215.878C180.965 210.943 177.994 206.648 175.457 203.333L123.495 233.333Z" fill="#8BC5E4"/>
<path d="M132.147 245.877C130.714 245.535 129.438 245.691 128.422 246.289L180.383 216.289C181.399 215.691 182.675 215.535 184.108 215.877L132.147 245.877Z" fill="#8BC5E4"/>
<path d="M128.425 246.288C127.409 246.885 126.651 247.923 126.252 249.345L178.213 219.345C178.612 217.923 179.37 216.885 180.386 216.288L128.425 246.288Z" fill="#8BC5E4"/>
<path d="M126.249 249.352C123.486 244.197 121.2 239.507 119.555 235.667L171.516 205.667C173.162 209.507 175.448 214.197 178.211 219.352L126.249 249.352Z" fill="#8BC5E4"/>
<path d="M119.555 235.668C118.247 232.633 117.355 230.138 116.939 228.458L168.901 198.458C169.317 200.138 170.209 202.633 171.516 205.668L119.555 235.668Z" fill="#8BC5E4"/>
<path d="M116.94 228.458C116.732 227.628 116.654 227.003 116.654 226.663L168.615 196.663C168.615 197.003 168.693 197.628 168.901 198.458L116.94 228.458Z" fill="#8BC5E4"/>
<path d="M116.654 226.662C116.663 226.317 116.723 226.302 116.723 226.302L168.685 196.302C168.685 196.302 168.624 196.317 168.615 196.662L116.654 226.662Z" fill="#8BC5E4"/>
<path d="M116.723 226.303C116.732 226.298 116.775 226.253 117.078 226.418L169.04 196.418C168.737 196.253 168.693 196.298 168.685 196.303L116.723 226.303Z" fill="#8BC5E4"/>
<path d="M152.109 246.643C152.403 246.823 152.447 246.918 152.455 246.933L204.417 216.933C204.408 216.918 204.365 216.823 204.07 216.643L152.109 246.643Z" fill="#8BC5E4"/>
<path d="M152.455 246.932C152.455 246.932 152.516 247.017 152.524 247.372L204.486 217.372C204.477 217.017 204.417 216.932 204.417 216.932L152.455 246.932Z" fill="#8BC5E4"/>
<path d="M152.525 247.373C152.533 247.718 152.447 248.248 152.239 248.838L204.2 218.838C204.408 218.248 204.495 217.718 204.486 217.373L152.525 247.373Z" fill="#8BC5E4"/>
<path d="M152.239 248.837C151.823 250.037 150.931 251.502 149.632 253.032L201.593 223.032C202.892 221.502 203.784 220.037 204.2 218.837L152.239 248.837Z" fill="#8BC5E4"/>
<path d="M149.632 253.032C148.073 254.86 145.932 256.801 143.369 258.675L195.331 228.675C197.894 226.801 200.035 224.86 201.594 223.032L149.632 253.032Z" fill="#8BC5E4"/>
<path d="M143.377 258.669C143.235 258.773 143.091 258.877 142.946 258.981L194.907 228.981C195.052 228.877 195.196 228.773 195.338 228.669L143.377 258.669Z" fill="#8BC5E4"/>
<path d="M142.938 258.987C142.132 255.212 139.907 251.317 137.04 248.702L189.002 218.702C191.868 221.317 194.094 225.212 194.899 228.987L142.938 258.987Z" fill="#8BC5E4"/>
<path d="M137.04 248.703C137.205 248.634 137.37 248.566 137.534 248.499L189.496 218.499C189.332 218.566 189.167 218.634 189.002 218.703L137.04 248.703Z" fill="#8BC5E4"/>
<path d="M137.534 248.5C140.484 247.304 143.274 246.51 145.675 246.144L197.637 216.144C195.236 216.51 192.446 217.304 189.496 218.5L137.534 248.5Z" fill="#8BC5E4"/>
<path d="M145.683 246.142C147.683 245.837 149.424 245.842 150.68 246.117L202.641 216.117C201.385 215.842 199.645 215.837 197.644 216.142L145.683 246.142Z" fill="#8BC5E4"/>
<path d="M150.68 246.117C151.303 246.247 151.805 246.457 152.109 246.642L204.07 216.642C203.767 216.457 203.265 216.247 202.641 216.117L150.68 246.117Z" fill="#8BC5E4"/>
<path d="M133.368 244.052C130.302 239.272 127.375 235.062 124.812 231.712L176.773 201.712C179.336 205.062 182.264 209.272 185.329 214.052L133.368 244.052Z" fill="#8BC5E4"/>
<path d="M124.812 231.713C122.707 228.958 120.845 226.773 119.243 225.268L171.205 195.268C172.807 196.773 174.669 198.958 176.773 201.713L124.812 231.713Z" fill="#8BC5E4"/>
<path d="M119.243 225.268C118.446 224.518 117.71 223.933 116.991 223.548L168.953 193.548C169.672 193.933 170.408 194.518 171.204 195.268L119.243 225.268Z" fill="#8BC5E4"/>
<path d="M116.992 223.548C116.317 223.178 115.613 223.01 115.078 223.249L167.04 193.249C167.575 193.01 168.279 193.178 168.953 193.548L116.992 223.548Z" fill="#8BC5E4"/>
<path d="M115.085 223.246C115.049 223.262 115.014 223.28 114.98 223.299L166.941 193.299C166.975 193.28 167.01 193.262 167.046 193.246L115.085 223.246Z" fill="#8BC5E4"/>
<path d="M114.973 223.302C114.939 223.322 114.907 223.344 114.875 223.368L166.836 193.368C166.868 193.344 166.901 193.322 166.935 193.302L114.973 223.302Z" fill="#8BC5E4"/>
<path d="M114.875 223.368C114.404 223.719 114.212 224.417 114.194 225.182L166.155 195.182C166.173 194.417 166.365 193.719 166.836 193.368L114.875 223.368Z" fill="#8BC5E4"/>
<path d="M114.194 225.193C114.186 226.008 114.341 226.938 114.601 228.008L166.563 198.008C166.303 196.938 166.147 196.008 166.156 195.193L114.194 225.193Z" fill="#8BC5E4"/>
<path d="M114.601 228.008C115.129 230.133 116.125 232.838 117.494 236.028L169.455 206.028C168.087 202.838 167.091 200.133 166.563 198.008L114.601 228.008Z" fill="#8BC5E4"/>
<path d="M117.494 236.028C119.13 239.843 121.321 244.348 123.928 249.273L175.89 219.273C173.283 214.348 171.092 209.843 169.455 206.028L117.494 236.028Z" fill="#8BC5E4"/>
<path d="M123.729 252.238C123.591 252.339 123.455 252.441 123.319 252.543L175.28 222.543C175.416 222.441 175.552 222.339 175.69 222.238L123.729 252.238Z" fill="#8BC5E4"/>
<path d="M123.32 252.542C120.981 254.301 119.004 256.125 117.498 257.892L169.46 227.892C170.966 226.125 172.943 224.301 175.282 222.542L123.32 252.542Z" fill="#8BC5E4"/>
<path d="M117.494 257.897C116.125 259.507 115.138 261.057 114.601 262.577L166.563 232.577C167.1 231.057 168.087 229.507 169.455 227.897L117.494 257.897Z" fill="#8BC5E4"/>
<path d="M114.601 262.577C114.341 263.347 114.186 264.097 114.194 264.922L166.156 234.922C166.147 234.097 166.303 233.347 166.563 232.577L114.601 262.577Z" fill="#8BC5E4"/>
<path d="M114.194 264.923C114.212 265.763 114.428 266.758 114.974 267.713L166.935 237.713C166.39 236.758 166.173 235.763 166.156 234.923L114.194 264.923Z" fill="#8BC5E4"/>
<path d="M114.974 267.712C115.519 268.657 116.273 269.352 116.992 269.797L168.953 239.797C168.234 239.352 167.481 238.657 166.935 237.712L114.974 267.712Z" fill="#8BC5E4"/>
<path d="M116.991 269.798C117.71 270.243 118.446 270.508 119.243 270.668L171.204 240.668C170.408 240.508 169.672 240.243 168.953 239.798L116.991 269.798Z" fill="#8BC5E4"/>
<path d="M119.243 270.668C120.845 271.013 122.707 270.988 124.812 270.663L176.773 240.663C174.669 240.988 172.807 241.013 171.205 240.668L119.243 270.668Z" fill="#8BC5E4"/>
<path d="M124.812 270.663C127.235 270.294 129.983 269.532 132.866 268.403L184.827 238.403C181.944 239.532 179.196 240.294 176.773 240.663L124.812 270.663Z" fill="#8BC5E4"/>
<path d="M132.876 268.399C133.036 268.336 133.197 268.272 133.359 268.207L185.32 238.207C185.158 238.272 184.997 238.336 184.837 238.399L132.876 268.399Z" fill="#8BC5E4"/>
<path d="M136.044 269.968C139.032 274.613 141.864 278.688 144.366 281.953L196.328 251.953C193.825 248.688 190.993 244.613 188.006 239.968L136.044 269.968Z" fill="#8BC5E4"/>
<path d="M144.366 281.952C146.479 284.712 148.341 286.887 149.935 288.387L201.896 258.387C200.303 256.887 198.441 254.712 196.328 251.952L144.366 281.952Z" fill="#8BC5E4"/>
<path d="M149.935 288.387C150.74 289.152 151.477 289.737 152.187 290.117L204.148 260.117C203.438 259.737 202.702 259.152 201.897 258.387L149.935 288.387Z" fill="#8BC5E4"/>
<path d="M152.187 290.117C152.861 290.478 153.565 290.654 154.1 290.415L206.061 260.415C205.526 260.654 204.822 260.478 204.148 260.117L152.187 290.117Z" fill="#8BC5E4"/>
<path d="M154.093 290.418C154.129 290.403 154.164 290.385 154.198 290.366L206.159 260.366C206.125 260.385 206.09 260.403 206.054 260.418L154.093 290.418Z" fill="#8BC5E4"/>
<path d="M154.205 290.362C154.239 290.342 154.271 290.32 154.303 290.296L206.265 260.296C206.233 260.32 206.201 260.342 206.166 260.362L154.205 290.362Z" fill="#8BC5E4"/>
<path d="M154.303 290.296C154.774 289.945 154.966 289.247 154.984 288.482L206.946 258.482C206.928 259.247 206.736 259.945 206.265 260.296L154.303 290.296Z" fill="#8BC5E4"/>
<path d="M154.984 288.472C154.992 287.657 154.836 286.727 154.577 285.657L206.538 255.657C206.798 256.727 206.954 257.657 206.945 258.472L154.984 288.472Z" fill="#8BC5E4"/>
<path d="M154.577 285.657C154.048 283.522 153.052 280.827 151.684 277.637L203.646 247.637C205.014 250.827 206.01 253.522 206.538 255.657L154.577 285.657Z" fill="#8BC5E4"/>
<path d="M151.684 277.637C150.091 273.927 147.978 269.547 145.458 264.782L197.419 234.782C199.939 239.547 202.052 243.927 203.646 247.637L151.684 277.637Z" fill="#8BC5E4"/>
<path d="M145.25 261.583C145.392 261.478 145.534 261.373 145.674 261.268L197.636 231.268C197.496 231.373 197.354 231.478 197.211 231.583L145.25 261.583Z" fill="#8BC5E4"/>
<path d="M145.673 261.268C148.092 259.453 150.133 257.591 151.68 255.773L203.641 225.773C202.094 227.591 200.053 229.453 197.634 231.268L145.673 261.268Z" fill="#8BC5E4"/>
<path d="M151.684 255.767C153.052 254.157 154.048 252.602 154.577 251.087L206.538 221.087C206.01 222.602 205.014 224.157 203.646 225.767L151.684 255.767Z" fill="#8BC5E4"/>
<path d="M154.577 251.087C154.836 250.317 154.992 249.567 154.984 248.742L206.945 218.742C206.954 219.567 206.798 220.317 206.538 221.087L154.577 251.087Z" fill="#8BC5E4"/>
<path d="M154.984 248.742C154.967 247.902 154.75 246.907 154.205 245.952L206.166 215.952C206.712 216.907 206.928 217.902 206.945 218.742L154.984 248.742Z" fill="#8BC5E4"/>
<path d="M154.204 245.952C153.659 245.007 152.905 244.302 152.187 243.867L204.148 213.867C204.867 214.302 205.62 215.007 206.166 215.952L154.204 245.952Z" fill="#8BC5E4"/>
<path d="M152.187 243.868C151.468 243.423 150.74 243.163 149.935 242.988L201.897 212.988C202.702 213.163 203.429 213.423 204.148 213.868L152.187 243.868Z" fill="#8BC5E4"/>
<path d="M149.935 242.987C148.341 242.657 146.479 242.682 144.366 243.002L196.328 213.002C198.441 212.682 200.303 212.657 201.896 212.987L149.935 242.987Z" fill="#8BC5E4"/>
<path d="M144.367 243.002C142 243.356 139.34 244.095 136.533 245.184L188.495 215.184C191.302 214.095 193.962 213.356 196.328 213.002L144.367 243.002Z" fill="#8BC5E4"/>
<path d="M136.524 245.188C136.367 245.249 136.21 245.311 136.053 245.374L188.015 215.374C188.172 215.311 188.329 215.249 188.486 215.188L136.524 245.188Z" fill="#8BC5E4"/>
<path d="M162.579 124.698C165.853 126.588 168.408 130.993 168.408 134.753L220.369 104.753C220.369 100.993 217.814 96.5875 214.541 94.6975L162.579 124.698Z" fill="#8BC5E4"/>
<path d="M168.407 310.323C168.407 312.203 167.769 313.509 166.721 314.109L218.683 284.109C219.731 283.509 220.369 282.203 220.369 280.323L168.407 310.323Z" fill="#8BC5E4"/>
<path d="M166.71 314.115C165.664 314.707 164.213 314.599 162.584 313.66L214.545 283.66C216.174 284.599 217.625 284.707 218.671 284.115L166.71 314.115Z" fill="#8BC5E4"/>
<path d="M10.6262 225.928C7.35265 224.038 4.79785 219.623 4.79785 215.863L56.7593 185.863C56.7593 189.623 59.3142 194.038 62.5878 195.928L10.6262 225.928Z" fill="#8BC5E4"/>
<path d="M4.79785 40.2924C4.79805 38.4054 5.44105 37.0984 6.49705 36.5044L58.4586 6.50439C57.4026 7.09839 56.7595 8.40539 56.7593 10.2924L4.79785 40.2924Z" fill="#8BC5E4"/>
<path d="M6.49512 36.5056C7.54112 35.9146 8.99212 36.0256 10.6211 36.9646L62.5826 6.96462C60.9536 6.02562 59.5026 5.91462 58.4566 6.50562L6.49512 36.5056Z" fill="#8BC5E4"/>
<path d="M10.6261 31.4474C7.71504 29.7664 5.06804 29.6004 3.14404 30.6864L55.1055 0.686397C57.0295 -0.399603 59.6765 -0.233603 62.5877 1.4474L10.6261 31.4474Z" fill="#8BC5E4"/>
<path d="M3.135 30.6914C1.203 31.7874 0.003 34.1494 0 37.5124L51.9615 7.51241C51.9645 4.14941 53.1645 1.78741 55.0965 0.691406L3.135 30.6914Z" fill="#8BC5E4"/>
<path d="M0 213.093C0 219.813 4.7805 228.073 10.6261 231.448L62.5877 201.448C56.742 198.073 51.9615 189.813 51.9615 183.093L0 213.093Z" fill="#8BC5E4"/>
<path d="M162.579 319.177C165.496 320.861 168.148 321.023 170.073 319.927L222.035 289.927C220.11 291.023 217.458 290.861 214.541 289.177L162.579 319.177Z" fill="#8BC5E4"/>
<path d="M170.07 319.929C172.002 318.831 173.202 316.466 173.205 313.103L225.166 283.103C225.163 286.466 223.963 288.831 222.031 289.929L170.07 319.929Z" fill="#8BC5E4"/>
<path d="M173.205 137.522C173.205 130.802 168.425 122.552 162.579 119.177L214.541 89.1775C220.386 92.5525 225.167 100.802 225.167 107.522L173.205 137.522Z" fill="#8BC5E4"/>
<path d="M162.579 124.698C165.853 126.588 168.408 130.993 168.408 134.753L220.369 104.753C220.369 100.993 217.814 96.5875 214.541 94.6975L162.579 124.698Z" fill="#8BC5E4"/>
<path d="M168.407 310.323C168.407 312.203 167.769 313.509 166.721 314.109L218.683 284.109C219.731 283.509 220.369 282.203 220.369 280.323L168.407 310.323Z" fill="#8BC5E4"/>
<path d="M166.71 314.115C165.664 314.707 164.213 314.599 162.584 313.66L214.545 283.66C216.174 284.599 217.625 284.707 218.671 284.115L166.71 314.115Z" fill="#8BC5E4"/>
<path d="M10.6262 225.928C7.35265 224.038 4.79785 219.623 4.79785 215.863L56.7593 185.863C56.7593 189.623 59.3142 194.038 62.5878 195.928L10.6262 225.928Z" fill="#8BC5E4"/>
<path d="M4.79785 40.2924C4.79805 38.4054 5.44105 37.0984 6.49705 36.5044L58.4586 6.50439C57.4026 7.09839 56.7595 8.40539 56.7593 10.2924L4.79785 40.2924Z" fill="#8BC5E4"/>
<path d="M6.49512 36.5056C7.54112 35.9146 8.99212 36.0256 10.6211 36.9646L62.5826 6.96462C60.9536 6.02562 59.5026 5.91462 58.4566 6.50562L6.49512 36.5056Z" fill="#8BC5E4"/>
<path d="M136.044 245.378C136.207 245.313 136.37 245.248 136.533 245.185L188.495 215.185C188.332 215.248 188.169 215.313 188.006 215.378L136.044 245.378Z" fill="#8BC5E4"/>
<path d="M136.532 245.185C139.337 244.096 141.995 243.358 144.359 243.003L196.321 213.003C193.957 213.358 191.299 214.096 188.494 215.185L136.532 245.185Z" fill="#8BC5E4"/>
<path d="M144.366 243.002C146.479 242.682 148.341 242.657 149.935 242.987L201.896 212.987C200.303 212.657 198.441 212.682 196.328 213.002L144.366 243.002Z" fill="#8BC5E4"/>
<path d="M149.935 242.988C150.74 243.163 151.468 243.423 152.187 243.868L204.148 213.868C203.429 213.423 202.702 213.163 201.897 212.988L149.935 242.988Z" fill="#8BC5E4"/>
<path d="M152.187 243.867C152.905 244.302 153.659 245.007 154.204 245.952L206.166 215.952C205.62 215.007 204.867 214.302 204.148 213.867L152.187 243.867Z" fill="#8BC5E4"/>
<path d="M154.205 245.952C154.75 246.907 154.967 247.902 154.984 248.742L206.945 218.742C206.928 217.902 206.712 216.907 206.166 215.952L154.205 245.952Z" fill="#8BC5E4"/>
<path d="M154.984 248.742C154.992 249.567 154.836 250.317 154.577 251.087L206.538 221.087C206.798 220.317 206.954 219.567 206.945 218.742L154.984 248.742Z" fill="#8BC5E4"/>
<path d="M154.577 251.087C154.048 252.602 153.052 254.157 151.684 255.767L203.646 225.767C205.014 224.157 206.01 222.602 206.538 221.087L154.577 251.087Z" fill="#8BC5E4"/>
<path d="M151.684 255.768C150.137 257.588 148.095 259.452 145.674 261.268L197.635 231.268C200.056 229.452 202.098 227.588 203.646 225.768L151.684 255.768Z" fill="#8BC5E4"/>
<path d="M145.665 261.273C145.53 261.374 145.394 261.475 145.257 261.576L197.218 231.576C197.355 231.475 197.491 231.374 197.626 231.273L145.665 261.273Z" fill="#8BC5E4"/>
<path d="M145.458 264.782C147.978 269.547 150.091 273.927 151.684 277.637L203.646 247.637C202.052 243.927 199.939 239.547 197.419 234.782L145.458 264.782Z" fill="#8BC5E4"/>
<path d="M151.684 277.637C153.052 280.827 154.048 283.522 154.577 285.657L206.538 255.657C206.01 253.522 205.014 250.827 203.646 247.637L151.684 277.637Z" fill="#8BC5E4"/>
<path d="M154.577 285.657C154.836 286.727 154.992 287.657 154.984 288.472L206.945 258.472C206.954 257.657 206.798 256.727 206.538 255.657L154.577 285.657Z" fill="#8BC5E4"/>
<path d="M154.984 288.472C154.968 289.241 154.776 289.944 154.303 290.296L206.265 260.296C206.738 259.944 206.93 259.241 206.946 258.472L154.984 288.472Z" fill="#8BC5E4"/>
<path d="M154.309 290.292C154.277 290.316 154.245 290.338 154.211 290.358L206.172 260.358C206.206 260.338 206.238 260.316 206.27 260.292L154.309 290.292Z" fill="#8BC5E4"/>
<path d="M154.205 290.363C154.17 290.383 154.135 290.4 154.1 290.416L206.062 260.416C206.097 260.4 206.132 260.383 206.166 260.363L154.205 290.363Z" fill="#8BC5E4"/>
<path d="M154.087 290.422C153.556 290.652 152.861 290.477 152.195 290.123L204.156 260.123C204.822 260.477 205.517 260.652 206.048 260.422L154.087 290.422Z" fill="#8BC5E4"/>
<path d="M152.187 290.117C151.477 289.737 150.74 289.152 149.935 288.387L201.897 258.387C202.702 259.152 203.438 259.737 204.148 260.117L152.187 290.117Z" fill="#8BC5E4"/>
<path d="M149.935 288.387C148.341 286.887 146.479 284.712 144.366 281.952L196.328 251.952C198.441 254.712 200.303 256.887 201.896 258.387L149.935 288.387Z" fill="#8BC5E4"/>
<path d="M144.366 281.953C141.864 278.688 139.032 274.613 136.044 269.968L188.006 239.968C190.993 244.613 193.825 248.688 196.328 251.953L144.366 281.953Z" fill="#8BC5E4"/>
<path d="M133.368 268.202C133.2 268.27 133.033 268.336 132.866 268.402L184.828 238.402C184.995 238.336 185.162 238.27 185.33 238.202L133.368 268.202Z" fill="#8BC5E4"/>
<path d="M132.867 268.403C129.986 269.531 127.241 270.292 124.819 270.662L176.78 240.662C179.202 240.292 181.947 239.531 184.828 238.403L132.867 268.403Z" fill="#8BC5E4"/>
<path d="M124.812 270.663C122.707 270.988 120.845 271.013 119.243 270.668L171.205 240.668C172.807 241.013 174.669 240.988 176.773 240.663L124.812 270.663Z" fill="#8BC5E4"/>
<path d="M119.243 270.668C118.446 270.508 117.71 270.243 116.991 269.798L168.953 239.798C169.672 240.243 170.408 240.508 171.204 240.668L119.243 270.668Z" fill="#8BC5E4"/>
<path d="M116.992 269.797C116.273 269.352 115.519 268.657 114.974 267.712L166.935 237.712C167.481 238.657 168.234 239.352 168.953 239.797L116.992 269.797Z" fill="#8BC5E4"/>
<path d="M114.974 267.713C114.428 266.758 114.212 265.763 114.194 264.923L166.156 234.923C166.173 235.763 166.39 236.758 166.935 237.713L114.974 267.713Z" fill="#8BC5E4"/>
<path d="M114.194 264.922C114.186 264.097 114.341 263.347 114.601 262.577L166.563 232.577C166.303 233.347 166.147 234.097 166.156 234.922L114.194 264.922Z" fill="#8BC5E4"/>
<path d="M114.601 262.577C115.138 261.057 116.125 259.507 117.494 257.897L169.455 227.897C168.087 229.507 167.1 231.057 166.563 232.577L114.601 262.577Z" fill="#8BC5E4"/>
<path d="M117.494 257.897C119 256.129 120.978 254.303 123.319 252.542L175.28 222.542C172.939 224.303 170.961 226.129 169.455 227.897L117.494 257.897Z" fill="#8BC5E4"/>
<path d="M123.327 252.536C123.458 252.438 123.589 252.34 123.722 252.242L175.684 222.242C175.551 222.34 175.42 222.438 175.289 222.536L123.327 252.536Z" fill="#8BC5E4"/>
<path d="M123.928 249.273C121.321 244.348 119.13 239.843 117.494 236.028L169.455 206.028C171.092 209.843 173.283 214.348 175.89 219.273L123.928 249.273Z" fill="#8BC5E4"/>
<path d="M117.494 236.028C116.125 232.838 115.129 230.133 114.601 228.008L166.563 198.008C167.091 200.133 168.087 202.838 169.455 206.028L117.494 236.028Z" fill="#8BC5E4"/>
<path d="M114.601 228.008C114.341 226.938 114.186 226.008 114.194 225.193L166.156 195.193C166.147 196.008 166.303 196.938 166.563 198.008L114.601 228.008Z" fill="#8BC5E4"/>
<path d="M114.194 225.192C114.21 224.423 114.402 223.72 114.875 223.368L166.837 193.368C166.364 193.72 166.172 194.423 166.156 195.192L114.194 225.192Z" fill="#8BC5E4"/>
<path d="M114.869 223.372C114.901 223.348 114.933 223.326 114.967 223.306L166.929 193.306C166.895 193.326 166.863 193.348 166.831 193.372L114.869 223.372Z" fill="#8BC5E4"/>
<path d="M114.974 223.303C115.008 223.283 115.043 223.265 115.078 223.249L167.04 193.249C167.005 193.265 166.97 193.283 166.935 193.303L114.974 223.303Z" fill="#8BC5E4"/>
<path d="M115.091 223.244C115.622 223.013 116.317 223.179 116.983 223.543L168.944 193.543C168.278 193.179 167.583 193.013 167.052 193.244L115.091 223.244Z" fill="#8BC5E4"/>
<path d="M116.991 223.548C117.71 223.933 118.446 224.518 119.243 225.268L171.204 195.268C170.408 194.518 169.672 193.933 168.953 193.548L116.991 223.548Z" fill="#8BC5E4"/>
<path d="M119.243 225.268C120.845 226.773 122.707 228.958 124.812 231.713L176.773 201.713C174.669 198.958 172.807 196.773 171.205 195.268L119.243 225.268Z" fill="#8BC5E4"/>
<path d="M124.812 231.712C127.375 235.062 130.302 239.272 133.368 244.052L185.329 214.052C182.264 209.272 179.336 205.062 176.773 201.712L124.812 231.712Z" fill="#8BC5E4"/>
<path d="M152.109 246.643C152.403 246.823 152.447 246.918 152.455 246.933L204.417 216.933C204.408 216.918 204.365 216.823 204.07 216.643L152.109 246.643Z" fill="#8BC5E4"/>
<path d="M152.455 246.932C152.455 246.932 152.516 247.017 152.524 247.372L204.486 217.372C204.477 217.017 204.417 216.932 204.417 216.932L152.455 246.932Z" fill="#8BC5E4"/>
<path d="M152.525 247.373C152.533 247.718 152.447 248.248 152.239 248.838L204.2 218.838C204.408 218.248 204.495 217.718 204.486 217.373L152.525 247.373Z" fill="#8BC5E4"/>
<path d="M152.239 248.837C151.823 250.037 150.931 251.502 149.632 253.032L201.593 223.032C202.892 221.502 203.784 220.037 204.2 218.837L152.239 248.837Z" fill="#8BC5E4"/>
<path d="M149.632 253.032C148.073 254.86 145.932 256.801 143.369 258.675L195.331 228.675C197.894 226.801 200.035 224.86 201.594 223.032L149.632 253.032Z" fill="#8BC5E4"/>
<path d="M143.377 258.669C143.235 258.773 143.091 258.877 142.946 258.981L194.907 228.981C195.052 228.877 195.196 228.773 195.338 228.669L143.377 258.669Z" fill="#8BC5E4"/>
<path d="M142.938 258.987C142.132 255.212 139.907 251.317 137.04 248.702L189.002 218.702C191.868 221.317 194.094 225.212 194.899 228.987L142.938 258.987Z" fill="#8BC5E4"/>
<path d="M137.04 248.703C137.205 248.634 137.37 248.566 137.534 248.499L189.496 218.499C189.332 218.566 189.167 218.634 189.002 218.703L137.04 248.703Z" fill="#8BC5E4"/>
<path d="M137.534 248.5C140.484 247.304 143.274 246.51 145.675 246.144L197.637 216.144C195.236 216.51 192.446 217.304 189.496 218.5L137.534 248.5Z" fill="#8BC5E4"/>
<path d="M145.683 246.142C147.683 245.837 149.424 245.842 150.68 246.117L202.641 216.117C201.385 215.842 199.645 215.837 197.644 216.142L145.683 246.142Z" fill="#8BC5E4"/>
<path d="M150.68 246.117C151.303 246.247 151.805 246.457 152.109 246.642L204.07 216.642C203.767 216.457 203.265 216.247 202.641 216.117L150.68 246.117Z" fill="#8BC5E4"/>
<path d="M117.078 226.417C117.381 226.582 117.875 226.947 118.498 227.537L170.46 197.537C169.836 196.947 169.343 196.582 169.04 196.417L117.078 226.417Z" fill="#8BC5E4"/>
<path d="M118.499 227.538C119.754 228.713 121.495 230.718 123.495 233.333L175.457 203.333C173.456 200.718 171.716 198.713 170.46 197.538L118.499 227.538Z" fill="#8BC5E4"/>
<path d="M123.495 233.333C126.033 236.648 129.003 240.943 132.147 245.878L184.108 215.878C180.965 210.943 177.994 206.648 175.457 203.333L123.495 233.333Z" fill="#8BC5E4"/>
<path d="M132.147 245.877C130.714 245.535 129.438 245.691 128.422 246.289L180.383 216.289C181.399 215.691 182.675 215.535 184.108 215.877L132.147 245.877Z" fill="#8BC5E4"/>
<path d="M128.425 246.288C127.409 246.885 126.651 247.923 126.252 249.345L178.213 219.345C178.612 217.923 179.37 216.885 180.386 216.288L128.425 246.288Z" fill="#8BC5E4"/>
<path d="M126.249 249.352C123.486 244.197 121.2 239.507 119.555 235.667L171.516 205.667C173.162 209.507 175.448 214.197 178.211 219.352L126.249 249.352Z" fill="#8BC5E4"/>
<path d="M119.555 235.668C118.247 232.633 117.355 230.138 116.939 228.458L168.901 198.458C169.317 200.138 170.209 202.633 171.516 205.668L119.555 235.668Z" fill="#8BC5E4"/>
<path d="M116.94 228.458C116.732 227.628 116.654 227.003 116.654 226.663L168.615 196.663C168.615 197.003 168.693 197.628 168.901 198.458L116.94 228.458Z" fill="#8BC5E4"/>
<path d="M116.654 226.662C116.663 226.317 116.723 226.302 116.723 226.302L168.685 196.302C168.685 196.302 168.624 196.317 168.615 196.662L116.654 226.662Z" fill="#8BC5E4"/>
<path d="M116.723 226.303C116.732 226.298 116.775 226.253 117.078 226.418L169.04 196.418C168.737 196.253 168.693 196.298 168.685 196.303L116.723 226.303Z" fill="#8BC5E4"/>
<path d="M126.241 254.677C127.046 258.452 129.272 262.337 132.147 264.967L184.109 234.967C181.233 232.337 179.008 228.452 178.202 224.677L126.241 254.677Z" fill="#8BC5E4"/>
<path d="M132.147 264.968C131.981 265.037 131.816 265.104 131.651 265.171L183.612 235.171C183.777 235.104 183.942 235.037 184.108 234.968L132.147 264.968Z" fill="#8BC5E4"/>
<path d="M131.651 265.17C128.694 266.361 125.904 267.155 123.503 267.511L175.464 237.511C177.865 237.155 180.655 236.361 183.612 235.17L131.651 265.17Z" fill="#8BC5E4"/>
<path d="M123.495 267.512C121.495 267.817 119.754 267.812 118.499 267.547L170.46 237.547C171.716 237.812 173.456 237.817 175.457 237.512L123.495 267.512Z" fill="#8BC5E4"/>
<path d="M118.498 267.548C117.875 267.418 117.373 267.208 117.078 267.028L169.04 237.028C169.334 237.208 169.836 237.418 170.46 237.548L118.498 267.548Z" fill="#8BC5E4"/>
<path d="M117.078 267.027C116.788 266.85 116.736 266.756 116.724 266.735L168.686 236.735C168.697 236.756 168.749 236.85 169.039 237.027L117.078 267.027Z" fill="#8BC5E4"/>
<path d="M116.723 266.732C116.723 266.732 116.663 266.637 116.654 266.292L168.615 236.292C168.624 236.637 168.685 236.732 168.685 236.732L116.723 266.732Z" fill="#8BC5E4"/>
<path d="M116.654 266.293C116.654 265.943 116.732 265.418 116.94 264.818L168.901 234.818C168.693 235.418 168.615 235.943 168.615 236.293L116.654 266.293Z" fill="#8BC5E4"/>
<path d="M116.939 264.817C117.355 263.627 118.256 262.167 119.555 260.637L171.516 230.637C170.217 232.167 169.317 233.627 168.901 234.817L116.939 264.817Z" fill="#8BC5E4"/>
<path d="M119.555 260.638C121.113 258.81 123.247 256.865 125.809 254.99L177.77 224.99C175.208 226.865 173.074 228.81 171.516 230.638L119.555 260.638Z" fill="#8BC5E4"/>
<path d="M125.809 254.989C125.951 254.885 126.095 254.781 126.241 254.677L178.203 224.677C178.057 224.781 177.913 224.885 177.771 224.989L125.809 254.989Z" fill="#8BC5E4"/>
<path d="M142.929 264.302C145.691 269.467 147.978 274.157 149.632 278.002L201.593 248.002C199.939 244.157 197.653 239.467 194.89 234.302L142.929 264.302Z" fill="#8BC5E4"/>
<path d="M149.632 278.002C150.931 281.032 151.823 283.527 152.239 285.197L204.2 255.197C203.784 253.527 202.892 251.032 201.593 248.002L149.632 278.002Z" fill="#8BC5E4"/>
<path d="M152.239 285.198C152.447 286.038 152.533 286.658 152.525 287.003L204.486 257.003C204.495 256.658 204.408 256.038 204.2 255.198L152.239 285.198Z" fill="#8BC5E4"/>
<path d="M152.524 287.002C152.516 287.337 152.455 287.362 152.455 287.362L204.417 257.362C204.417 257.362 204.477 257.337 204.486 257.002L152.524 287.002Z" fill="#8BC5E4"/>
<path d="M152.455 287.362C152.447 287.367 152.403 287.412 152.109 287.252L204.07 257.252C204.365 257.412 204.408 257.367 204.417 257.362L152.455 287.362Z" fill="#8BC5E4"/>
<path d="M152.109 287.252C151.805 287.087 151.303 286.717 150.68 286.127L202.641 256.127C203.265 256.717 203.767 257.087 204.07 257.252L152.109 287.252Z" fill="#8BC5E4"/>
<path d="M150.68 286.128C149.424 284.943 147.683 282.938 145.683 280.323L197.644 250.323C199.645 252.938 201.385 254.943 202.641 256.128L150.68 286.128Z" fill="#8BC5E4"/>
<path d="M145.683 280.322C143.145 277.017 140.175 272.722 137.04 267.792L189.002 237.792C192.137 242.722 195.107 247.017 197.644 250.322L145.683 280.322Z" fill="#8BC5E4"/>
<path d="M137.04 267.792C138.445 268.128 139.696 267.983 140.701 267.411L192.663 237.411C191.658 237.983 190.407 238.128 189.002 237.792L137.04 267.792Z" fill="#8BC5E4"/>
<path d="M140.71 267.407C141.748 266.812 142.521 265.761 142.926 264.311L194.887 234.311C194.482 235.761 193.709 236.812 192.671 237.407L140.71 267.407Z" fill="#8BC5E4"/>
<path d="M24.7423 180.898V185.437L19.2604 182.272V183.313V187.653L15.6318 185.558V187.638L19.2604 189.733V196.873L15.6318 194.778V196.867L19.2604 198.962V206.102L15.6318 204.007V206.087L19.2604 208.182V213.563L24.7423 216.728V221.597L26.561 222.648V217.778L32.7704 221.363V226.233L34.5804 227.278V222.408L40.7985 225.998V230.868L42.6084 231.913V227.043L48.0904 230.208V224.827L51.5458 226.823V224.742L48.0904 222.747V215.607L51.5458 217.602V215.513L48.0904 213.518V206.378L51.5458 208.373V206.293L48.0904 204.298V198.917L42.6084 195.752V191.213L40.7985 190.168V194.707L34.5804 191.117V186.578L32.7704 185.533V190.072L26.561 186.487V181.948L24.7423 180.898ZM21.0791 185.402L24.7423 187.517V189.428L26.561 190.478V188.567L32.7704 192.152V194.063L34.5804 195.108V193.197L40.7985 196.787V198.698L42.6084 199.743V197.832L46.2804 199.952V203.253L44.1327 202.013V204.093L46.2804 205.333V212.473L44.1327 211.233V213.322L46.2804 214.562V221.702L44.1327 220.462V222.542L46.2804 223.782V227.083L42.6084 224.963V223.392L40.7985 222.347V223.918L34.5804 220.328V218.757L32.7704 217.712V219.283L26.561 215.698V214.127L24.7423 213.077V214.648L21.0791 212.533V209.233L23.0449 210.368V208.287L21.0791 207.152V200.012L23.0449 201.147V199.058L21.0791 197.923V190.783L23.0449 191.918V189.838L21.0791 188.703V185.402ZM26.6736 194.132V199.602L31.4367 202.352V196.882L26.6736 194.132ZM35.9227 199.472V204.942L40.6859 207.692V202.222L35.9227 199.472ZM26.6736 204.793V210.272L31.4367 213.022V207.543L26.6736 204.793ZM35.9227 210.133V215.612L40.6859 218.362V212.883L35.9227 210.133ZM75.3875 189.857V176.427L44.4444 158.562V147.943L18.0913 150.698L44.4444 183.612V171.992L75.3875 189.857ZM93.0977 147.562V134.132L62.1546 116.267V105.657L35.8101 108.407L62.1546 141.318V129.697L93.0977 147.562ZM81.6575 166.618V153.188L112.601 171.053V160.443L138.945 193.622L112.601 196.103V184.483L81.6575 166.618ZM98.8741 123.967V110.537L129.817 128.402V117.792L156.162 150.973L129.817 153.452V141.832L98.8741 123.967ZM126.241 254.677C127.046 258.452 129.272 262.337 132.147 264.967C129.003 266.272 126.033 267.137 123.495 267.512C121.495 267.818 119.754 267.812 118.498 267.548C117.875 267.418 117.372 267.207 117.078 267.027C116.788 266.85 116.736 266.756 116.724 266.735L116.723 266.732C116.723 266.732 116.662 266.637 116.654 266.293C116.654 265.942 116.732 265.418 116.939 264.818C117.355 263.628 118.256 262.168 119.555 260.638C121.2 258.707 123.487 256.647 126.241 254.677ZM142.929 264.302C145.691 269.468 147.978 274.158 149.632 278.003C150.931 281.033 151.823 283.528 152.239 285.198C152.446 286.038 152.533 286.657 152.524 287.003C152.516 287.338 152.455 287.362 152.455 287.362C152.446 287.367 152.403 287.412 152.109 287.252C151.806 287.087 151.303 286.718 150.68 286.128C149.424 284.943 147.683 282.938 145.683 280.322C143.145 277.018 140.175 272.722 137.04 267.793C139.906 268.478 142.132 267.163 142.929 264.302ZM117.078 226.417C117.381 226.583 117.875 226.948 118.498 227.537C119.754 228.712 121.495 230.717 123.495 233.333C126.033 236.648 129.003 240.943 132.147 245.878C129.28 245.193 127.046 246.502 126.249 249.352C123.487 244.197 121.2 239.507 119.555 235.668C118.247 232.633 117.355 230.138 116.939 228.458C116.732 227.627 116.654 227.002 116.654 226.662C116.662 226.317 116.723 226.303 116.723 226.303C116.732 226.298 116.775 226.252 117.078 226.417ZM152.109 246.642C152.403 246.822 152.446 246.918 152.455 246.933C152.455 246.933 152.516 247.017 152.524 247.372C152.533 247.717 152.446 248.247 152.239 248.838C151.823 250.038 150.931 251.503 149.632 253.033C147.986 254.963 145.691 257.017 142.937 258.987C142.132 255.213 139.906 251.318 137.04 248.703C140.175 247.393 143.145 246.528 145.683 246.143C147.683 245.837 149.424 245.842 150.68 246.118C151.303 246.248 151.806 246.457 152.109 246.642ZM134.676 229.357L130.181 231.702L133.368 233.542V244.053C130.302 239.273 127.375 235.062 124.812 231.712C122.707 228.958 120.845 226.773 119.243 225.268C118.446 224.518 117.71 223.933 116.991 223.548C116.273 223.153 115.519 222.987 114.974 223.302C114.428 223.627 114.211 224.372 114.194 225.192C114.185 226.008 114.341 226.938 114.601 228.007C115.129 230.133 116.125 232.838 117.494 236.028C119.13 239.842 121.322 244.348 123.928 249.273L114.939 244.083V240.423L110.643 243.103L114.939 250.553V247.163L123.729 252.238C121.209 254.092 119.087 256.028 117.494 257.897C116.125 259.507 115.138 261.058 114.601 262.578C114.341 263.348 114.185 264.097 114.194 264.922C114.211 265.762 114.428 266.757 114.974 267.713C115.519 268.658 116.273 269.353 116.991 269.798C117.71 270.243 118.446 270.507 119.243 270.667C120.845 271.012 122.707 270.987 124.812 270.662C127.375 270.272 130.302 269.442 133.368 268.202V278.712L130.181 276.872L134.676 284.407L138.997 281.962L136.044 280.257V269.967C139.032 274.612 141.864 278.687 144.366 281.952C146.48 284.712 148.341 286.887 149.935 288.387C150.74 289.152 151.476 289.737 152.187 290.118C152.905 290.503 153.659 290.678 154.204 290.363C154.75 290.038 154.967 289.292 154.984 288.472C154.993 287.657 154.837 286.728 154.577 285.658C154.049 283.523 153.053 280.827 151.684 277.637C150.091 273.928 147.978 269.548 145.458 264.783L154.239 269.853V273.243L158.543 270.758L154.239 263.113V266.773L145.25 261.583C147.857 259.668 150.048 257.692 151.684 255.768C153.053 254.158 154.049 252.603 154.577 251.088C154.837 250.318 154.993 249.568 154.984 248.743C154.967 247.902 154.75 246.908 154.204 245.952C153.659 245.007 152.905 244.303 152.187 243.868C151.468 243.423 150.74 243.163 149.935 242.988C148.341 242.658 146.48 242.683 144.366 243.002C141.864 243.378 139.032 244.183 136.044 245.378V235.087L138.997 236.792L134.676 229.357ZM10.6261 36.9675L162.579 124.697C165.853 126.587 168.407 130.993 168.407 134.753V310.323C168.407 314.082 165.853 315.547 162.579 313.657L10.6261 225.927C7.35256 224.037 4.79778 219.622 4.79778 215.862V40.2925C4.79778 36.5325 7.35256 35.0775 10.6261 36.9675ZM10.6261 31.4475C4.78046 28.0725 0 30.8025 0 37.5225V213.092C0 219.812 4.78046 228.073 10.6261 231.448L162.579 319.177C168.425 322.552 173.205 319.812 173.205 313.092V137.523C173.205 130.803 168.425 122.552 162.579 119.177L10.6261 31.4475Z" fill="#8BC5E4"/>
<path fill-rule="evenodd" clip-rule="evenodd" d="M21.0791 185.402L24.7423 187.517V189.428L26.561 190.478V188.567L32.7704 192.152V194.063L34.5804 195.108V193.197L40.7985 196.787V198.698L42.6084 199.743V197.832L46.2804 199.952V203.253L44.1327 202.013V204.093L46.2804 205.333V212.473L44.1327 211.233V213.322L46.2804 214.562V221.702L44.1327 220.462V222.542L46.2804 223.782V227.083L42.6084 224.963V223.392L40.7985 222.347V223.918L34.5804 220.328V218.757L32.7704 217.712V219.283L26.561 215.698V214.127L24.7423 213.077V214.648L21.0791 212.533V209.233L23.0449 210.368V208.287L21.0791 207.152V200.012L23.0449 201.147V199.058L21.0791 197.923V190.783L23.0449 191.918V189.838L21.0791 188.703V185.402ZM26.6736 199.602V194.132L31.4367 196.882V202.352L26.6736 199.602ZM35.9227 204.942V199.472L40.6859 202.222V207.692L35.9227 204.942ZM26.6736 210.272V204.793L31.4367 207.543V213.022L26.6736 210.272ZM35.9227 215.612V210.133L40.6859 212.883V218.362L35.9227 215.612Z" fill="white"/>
<path fill-rule="evenodd" clip-rule="evenodd" d="M10.6261 36.9675L162.579 124.697C165.853 126.587 168.407 130.993 168.407 134.753V310.323C168.407 314.082 165.853 315.547 162.579 313.657L10.6261 225.927C7.35256 224.037 4.79778 219.622 4.79778 215.862V40.2925C4.79778 36.5325 7.35256 35.0775 10.6261 36.9675ZM24.7423 185.437V180.898L26.561 181.948V186.487L32.7704 190.072V185.533L34.5804 186.578V191.117L40.7985 194.707V190.168L42.6084 191.213V195.752L48.0904 198.917V204.298L51.5458 206.293V208.373L48.0904 206.378V213.518L51.5458 215.513V217.602L48.0904 215.607V222.747L51.5458 224.742V226.823L48.0904 224.827V230.208L42.6084 227.043V231.913L40.7985 230.868V225.998L34.5804 222.408V227.278L32.7704 226.233V221.363L26.561 217.778V222.648L24.7423 221.597V216.728L19.2604 213.563V208.182L15.6318 206.087V204.007L19.2604 206.102V198.962L15.6318 196.867V194.778L19.2604 196.873V189.733L15.6318 187.638V185.558L19.2604 187.653V183.313V182.272L24.7423 185.437ZM75.3875 176.427V189.857L44.4444 171.992V183.612L18.0913 150.698L44.4444 147.943V158.562L75.3875 176.427ZM93.0977 134.132V147.562L62.1546 129.697V141.318L35.8101 108.407L62.1546 105.657V116.267L93.0977 134.132ZM81.6575 153.188V166.618L112.601 184.483V196.103L138.945 193.622L112.601 160.443V171.053L81.6575 153.188ZM98.8741 110.537V123.967L129.817 141.832V153.452L156.162 150.973L129.817 117.792V128.402L98.8741 110.537ZM130.181 231.702L134.676 229.357L138.997 236.792L136.044 235.087V245.378C139.032 244.183 141.864 243.378 144.366 243.002C146.48 242.683 148.341 242.658 149.935 242.988C150.74 243.163 151.468 243.423 152.187 243.868C152.905 244.303 153.659 245.007 154.204 245.952C154.75 246.908 154.967 247.902 154.984 248.743C154.993 249.568 154.837 250.318 154.577 251.088C154.049 252.603 153.053 254.158 151.684 255.768C150.048 257.692 147.857 259.668 145.25 261.583L154.239 266.773V263.113L158.543 270.758L154.239 273.243V269.853L145.458 264.783C147.978 269.548 150.091 273.928 151.684 277.637C153.053 280.827 154.049 283.523 154.577 285.658C154.837 286.728 154.993 287.657 154.984 288.472C154.967 289.292 154.75 290.038 154.204 290.363C153.659 290.678 152.905 290.503 152.187 290.118C151.476 289.737 150.74 289.152 149.935 288.387C148.341 286.887 146.48 284.712 144.366 281.952C141.864 278.687 139.032 274.612 136.044 269.967V280.257L138.997 281.962L134.676 284.407L130.181 276.872L133.368 278.712V268.202C130.302 269.442 127.375 270.272 124.812 270.662C122.707 270.987 120.845 271.012 119.243 270.667C118.446 270.507 117.71 270.243 116.991 269.798C116.273 269.353 115.519 268.658 114.974 267.713C114.428 266.757 114.211 265.762 114.194 264.922C114.185 264.097 114.341 263.348 114.601 262.578C115.138 261.058 116.125 259.507 117.494 257.897C119.087 256.028 121.209 254.092 123.729 252.238L114.939 247.163V250.553L110.643 243.103L114.939 240.423V244.083L123.928 249.273C121.322 244.348 119.13 239.842 117.494 236.028C116.125 232.838 115.129 230.133 114.601 228.007C114.341 226.938 114.185 226.008 114.194 225.192C114.211 224.372 114.428 223.627 114.974 223.302C115.519 222.987 116.273 223.153 116.991 223.548C117.71 223.933 118.446 224.518 119.243 225.268C120.845 226.773 122.707 228.958 124.812 231.712C127.375 235.062 130.302 239.273 133.368 244.053V233.542L130.181 231.702Z" fill="white"/>
<path d="M152.109 246.642C152.403 246.822 152.446 246.918 152.455 246.933C152.455 246.933 152.516 247.017 152.524 247.372C152.533 247.717 152.446 248.247 152.239 248.838C151.823 250.038 150.931 251.503 149.632 253.033C147.986 254.963 145.691 257.017 142.937 258.987C142.132 255.213 139.906 251.318 137.04 248.703C140.175 247.393 143.145 246.528 145.683 246.143C147.683 245.837 149.424 245.842 150.68 246.118C151.303 246.248 151.806 246.457 152.109 246.642Z" fill="white"/>
<path d="M117.078 226.417C117.381 226.583 117.875 226.948 118.498 227.537C119.754 228.712 121.495 230.717 123.495 233.333C126.033 236.648 129.003 240.943 132.147 245.878C129.28 245.193 127.046 246.502 126.249 249.352C123.487 244.197 121.2 239.507 119.555 235.668C118.247 232.633 117.355 230.138 116.939 228.458C116.732 227.627 116.654 227.002 116.654 226.662C116.662 226.317 116.723 226.303 116.723 226.303C116.732 226.298 116.775 226.252 117.078 226.417Z" fill="white"/>
<path d="M126.241 254.677C127.046 258.452 129.272 262.337 132.147 264.967C129.003 266.272 126.033 267.137 123.495 267.512C121.495 267.818 119.754 267.812 118.498 267.548C117.875 267.418 117.372 267.207 117.078 267.027C116.788 266.85 116.736 266.756 116.724 266.735L116.723 266.732C116.723 266.732 116.662 266.637 116.654 266.293C116.654 265.942 116.732 265.418 116.939 264.818C117.355 263.628 118.256 262.168 119.555 260.638C121.2 258.707 123.487 256.647 126.241 254.677Z" fill="white"/>
<path d="M142.929 264.302C145.691 269.468 147.978 274.158 149.632 278.003C150.931 281.033 151.823 283.528 152.239 285.198C152.446 286.038 152.533 286.657 152.524 287.003C152.516 287.338 152.455 287.362 152.455 287.362C152.446 287.367 152.403 287.412 152.109 287.252C151.806 287.087 151.303 286.718 150.68 286.128C149.424 284.943 147.683 282.938 145.683 280.322C143.145 277.018 140.175 272.722 137.04 267.793C139.906 268.478 142.132 267.163 142.929 264.302Z" fill="white"/>
</svg>
