<svg width="226" height="386" viewBox="0 0 226 386" fill="none" xmlns="http://www.w3.org/2000/svg">
<path d="M10.626 36.8213L162.579 124.551L214.54 94.5513L62.5876 6.82129L10.626 36.8213Z" fill="#8BC5E4"/>
<path d="M168.407 134.396V370.776L220.369 340.776V104.396L168.407 134.396Z" fill="#8BC5E4"/>
<path d="M162.579 373.881L10.626 286.151L62.5876 256.151L214.54 343.881L162.579 373.881Z" fill="#8BC5E4"/>
<path d="M4.79785 276.316V39.9363L56.7593 9.93628V246.316L4.79785 276.316Z" fill="#8BC5E4"/>
<path d="M10.626 36.8213L62.5876 6.82129L10.626 36.8213Z" fill="#8BC5E4"/>
<path d="M146.939 131.961L27.6523 63.0913L79.6138 33.0913L198.9 101.961L146.939 131.961Z" fill="#8BC5E4"/>
<path d="M18.3945 68.0363V147.066L70.356 117.066V38.0363L18.3945 68.0363Z" fill="#8BC5E4"/>
<path d="M27.6523 162.681L146.939 231.551L198.9 201.551L79.6138 132.681L27.6523 162.681Z" fill="#8BC5E4"/>
<path d="M156.188 226.621V147.591L208.149 117.591V196.621L156.188 226.621Z" fill="#8BC5E4"/>
<path d="M146.938 131.961L198.9 101.961L146.938 131.961Z" fill="#8BC5E4"/>
<path d="M146.939 249.231L27.6523 180.361L79.6138 150.361L198.9 219.231L146.939 249.231Z" fill="#8BC5E4"/>
<path d="M18.3945 185.306V264.326L70.356 234.326V155.306L18.3945 185.306Z" fill="#8BC5E4"/>
<path d="M27.6523 279.951L146.939 348.821L198.9 318.821L79.6138 249.951L27.6523 279.951Z" fill="#8BC5E4"/>
<path d="M156.188 343.881V264.861L208.149 234.861V313.881L156.188 343.881Z" fill="#8BC5E4"/>
<path d="M146.938 249.231L198.9 219.231L146.938 249.231Z" fill="#8BC5E4"/>
<path d="M10.626 36.8213L162.579 124.551L214.54 94.5513L62.5876 6.82129L10.626 36.8213Z" fill="#8BC5E4"/>
<path d="M168.407 134.396V370.776L220.369 340.776V104.396L168.407 134.396Z" fill="#8BC5E4"/>
<path d="M162.579 373.881L10.626 286.151L62.5876 256.151L214.54 343.881L162.579 373.881Z" fill="#8BC5E4"/>
<path d="M4.79785 276.316V39.9363L56.7593 9.93628V246.316L4.79785 276.316Z" fill="#8BC5E4"/>
<path d="M10.626 36.8213L62.5876 6.82129L10.626 36.8213Z" fill="#8BC5E4"/>
<path d="M0 37.1663V273.546L51.9615 243.546V7.16626L0 37.1663Z" fill="#8BC5E4"/>
<path d="M10.626 291.491L162.579 379.221L214.54 349.221L62.5876 261.491L10.626 291.491Z" fill="#8BC5E4"/>
<path d="M173.205 373.546V137.166L225.167 107.166V343.546L173.205 373.546Z" fill="#8BC5E4"/>
<path d="M162.579 119.221L10.626 31.4913L62.5876 1.49133L214.54 89.2213L162.579 119.221Z" fill="#8BC5E4"/>
<path d="M10.626 31.4913L62.5876 1.49133L10.626 31.4913Z" fill="#8BC5E4"/>
<path d="M27.6523 63.0913L146.939 131.961L198.9 101.961L79.6138 33.0913L27.6523 63.0913Z" fill="#8BC5E4"/>
<path d="M156.188 147.591V226.621L208.149 196.621V117.591L156.188 147.591Z" fill="#8BC5E4"/>
<path d="M146.939 231.551L27.6523 162.681L79.6138 132.681L198.9 201.551L146.939 231.551Z" fill="#8BC5E4"/>
<path d="M18.3945 147.066V68.0363L70.356 38.0363V117.066L18.3945 147.066Z" fill="#8BC5E4"/>
<path d="M27.6523 63.0913L79.6138 33.0913L27.6523 63.0913Z" fill="#8BC5E4"/>
<path d="M27.6523 180.361L146.939 249.231L198.9 219.231L79.6138 150.361L27.6523 180.361Z" fill="#8BC5E4"/>
<path d="M156.188 264.861V343.881L208.149 313.881V234.861L156.188 264.861Z" fill="#8BC5E4"/>
<path d="M146.939 348.821L27.6523 279.951L79.6138 249.951L198.9 318.821L146.939 348.821Z" fill="#8BC5E4"/>
<path d="M18.3945 264.326V185.306L70.356 155.306V234.326L18.3945 264.326Z" fill="#8BC5E4"/>
<path d="M27.6523 180.361L79.6138 150.361L27.6523 180.361Z" fill="#8BC5E4"/>
<path d="M119.035 271.381L128.657 277.006L180.618 247.006L170.997 241.381L119.035 271.381Z" fill="#8BC5E4"/>
<path d="M101.507 279.991L92.3354 274.986L144.297 244.986L153.468 249.991L101.507 279.991Z" fill="#8BC5E4"/>
<path d="M92.3354 274.986L144.297 244.986L92.3354 274.986Z" fill="#8BC5E4"/>
<path d="M65.5928 268.566L117.554 238.566L65.5928 268.566Z" fill="#8BC5E4"/>
<path d="M64.6836 276.461L116.645 246.461L64.6836 276.461Z" fill="#8BC5E4"/>
<path d="M27.5225 183.506L146.384 252.131L198.346 222.131L79.484 153.506L27.5225 183.506Z" fill="#8BC5E4"/>
<path d="M152.256 262.041V342.511L204.217 312.511V232.041L152.256 262.041Z" fill="#8BC5E4"/>
<path d="M146.384 345.641L27.5225 277.016L79.484 247.016L198.346 315.641L146.384 345.641Z" fill="#8BC5E4"/>
<path d="M21.6504 267.106V186.636L73.612 156.636V237.106L21.6504 267.106Z" fill="#8BC5E4"/>
<path d="M27.5225 183.506L79.484 153.506L27.5225 183.506Z" fill="#8BC5E4"/>
<path d="M88.0835 171.521L96.7784 176.541L148.74 146.541L140.045 141.521L88.0835 171.521Z" fill="#8BC5E4"/>
<path d="M96.7783 176.541V136.521L148.74 106.521V146.541L96.7783 176.541Z" fill="#8BC5E4"/>
<path d="M96.7783 136.521L105.698 181.691L157.66 151.691L148.74 106.521L96.7783 136.521Z" fill="#8BC5E4"/>
<path d="M105.698 181.691L114.748 186.916L166.71 156.916L157.66 151.691L105.698 181.691Z" fill="#8BC5E4"/>
<path d="M114.749 186.916L124.197 153.121L176.158 123.121L166.71 156.916L114.749 186.916Z" fill="#8BC5E4"/>
<path d="M124.197 153.121V192.371L176.158 162.371V123.121L124.197 153.121Z" fill="#8BC5E4"/>
<path d="M124.197 192.371L132.433 197.126L184.394 167.126L176.158 162.371L124.197 192.371Z" fill="#8BC5E4"/>
<path d="M132.433 197.126V146.896L184.394 116.896V167.126L132.433 197.126Z" fill="#8BC5E4"/>
<path d="M132.432 146.896L118.533 138.871L170.494 108.871L184.394 116.896L132.432 146.896Z" fill="#8BC5E4"/>
<path d="M118.533 138.871L110.236 168.171L162.198 138.171L170.494 108.871L118.533 138.871Z" fill="#8BC5E4"/>
<path d="M110.236 168.171L101.931 129.286L153.893 99.2864L162.198 138.171L110.236 168.171Z" fill="#8BC5E4"/>
<path d="M101.931 129.286L88.0835 121.291L140.045 91.2913L153.893 99.2863L101.931 129.286Z" fill="#8BC5E4"/>
<path d="M88.0835 121.291V171.521L140.045 141.521V91.2913L88.0835 121.291Z" fill="#8BC5E4"/>
<path d="M88.0835 171.521L140.045 141.521L88.0835 171.521Z" fill="#8BC5E4"/>
<path d="M57.1748 153.676L66.9436 159.316L118.905 129.316L109.136 123.676L57.1748 153.676Z" fill="#8BC5E4"/>
<path d="M66.9438 159.316L83.3723 118.571L135.334 88.5713L118.905 129.316L66.9438 159.316Z" fill="#8BC5E4"/>
<path d="M83.3721 118.571L73.4907 112.866L125.452 82.8663L135.334 88.5713L83.3721 118.571Z" fill="#8BC5E4"/>
<path d="M73.4908 112.866L62.3018 144.016L114.263 114.016L125.452 82.8663L73.4908 112.866Z" fill="#8BC5E4"/>
<path d="M62.3019 144.016L50.4287 99.5513L102.39 69.5513L114.263 114.016L62.3019 144.016Z" fill="#8BC5E4"/>
<path d="M50.4287 99.5513L40.6079 93.8813L92.5695 63.8813L102.39 69.5513L50.4287 99.5513Z" fill="#8BC5E4"/>
<path d="M40.6079 93.8813L57.175 153.676L109.137 123.676L92.5695 63.8813L40.6079 93.8813Z" fill="#8BC5E4"/>
<path d="M57.1748 153.676L109.136 123.676L57.1748 153.676Z" fill="#8BC5E4"/>
<path d="M27.5225 66.2463L146.384 134.871L198.346 104.871L79.484 36.2463L27.5225 66.2463Z" fill="#8BC5E4"/>
<path d="M152.256 144.781V225.251L204.217 195.251V114.781L152.256 144.781Z" fill="#8BC5E4"/>
<path d="M146.384 228.371L27.5225 159.746L79.484 129.746L198.346 198.371L146.384 228.371Z" fill="#8BC5E4"/>
<path d="M21.6504 149.846V69.3763L73.612 39.3763V119.846L21.6504 149.846Z" fill="#8BC5E4"/>
<path d="M27.5225 66.2463L79.484 36.2463L27.5225 66.2463Z" fill="#8BC5E4"/>
<path d="M57.1748 153.676L66.9436 159.316L118.905 129.316L109.136 123.676L57.1748 153.676Z" fill="#8BC5E4"/>
<path d="M66.9438 159.316L83.3723 118.571L135.334 88.5713L118.905 129.316L66.9438 159.316Z" fill="#8BC5E4"/>
<path d="M83.3721 118.571L73.4907 112.866L125.452 82.8663L135.334 88.5713L83.3721 118.571Z" fill="#8BC5E4"/>
<path d="M73.4908 112.866L62.3018 144.016L114.263 114.016L125.452 82.8663L73.4908 112.866Z" fill="#8BC5E4"/>
<path d="M62.3019 144.016L50.4287 99.5513L102.39 69.5513L114.263 114.016L62.3019 144.016Z" fill="#8BC5E4"/>
<path d="M50.4287 99.5513L40.6079 93.8813L92.5695 63.8813L102.39 69.5513L50.4287 99.5513Z" fill="#8BC5E4"/>
<path d="M40.6079 93.8813L57.175 153.676L109.137 123.676L92.5695 63.8813L40.6079 93.8813Z" fill="#8BC5E4"/>
<path d="M57.1748 153.676L109.136 123.676L57.1748 153.676Z" fill="#8BC5E4"/>
<path d="M88.0835 171.521L96.7784 176.541L148.74 146.541L140.045 141.521L88.0835 171.521Z" fill="#8BC5E4"/>
<path d="M96.7783 176.541V136.521L148.74 106.521V146.541L96.7783 176.541Z" fill="#8BC5E4"/>
<path d="M96.7783 136.521L105.698 181.691L157.66 151.691L148.74 106.521L96.7783 136.521Z" fill="#8BC5E4"/>
<path d="M105.698 181.691L114.748 186.916L166.71 156.916L157.66 151.691L105.698 181.691Z" fill="#8BC5E4"/>
<path d="M114.749 186.916L124.197 153.121L176.158 123.121L166.71 156.916L114.749 186.916Z" fill="#8BC5E4"/>
<path d="M124.197 153.121V192.371L176.158 162.371V123.121L124.197 153.121Z" fill="#8BC5E4"/>
<path d="M124.197 192.371L132.433 197.126L184.394 167.126L176.158 162.371L124.197 192.371Z" fill="#8BC5E4"/>
<path d="M132.433 197.126V146.896L184.394 116.896V167.126L132.433 197.126Z" fill="#8BC5E4"/>
<path d="M132.432 146.896L118.533 138.871L170.494 108.871L184.394 116.896L132.432 146.896Z" fill="#8BC5E4"/>
<path d="M118.533 138.871L110.236 168.171L162.198 138.171L170.494 108.871L118.533 138.871Z" fill="#8BC5E4"/>
<path d="M110.236 168.171L101.931 129.286L153.893 99.2864L162.198 138.171L110.236 168.171Z" fill="#8BC5E4"/>
<path d="M101.931 129.286L88.0835 121.291L140.045 91.2913L153.893 99.2863L101.931 129.286Z" fill="#8BC5E4"/>
<path d="M88.0835 121.291V171.521L140.045 141.521V91.2913L88.0835 121.291Z" fill="#8BC5E4"/>
<path d="M88.0835 171.521L140.045 141.521L88.0835 171.521Z" fill="#8BC5E4"/>
<path d="M64.6836 276.461L116.645 246.461L64.6836 276.461Z" fill="#8BC5E4"/>
<path d="M52.5244 243.551L104.486 213.551L52.5244 243.551Z" fill="#8BC5E4"/>
<path d="M119.035 271.381L128.657 277.006L180.618 247.006L170.997 241.381L119.035 271.381Z" fill="#8BC5E4"/>
<path d="M101.507 279.991L92.3354 274.986L144.297 244.986L153.468 249.991L101.507 279.991Z" fill="#8BC5E4"/>
<path d="M92.3354 274.986L144.297 244.986L92.3354 274.986Z" fill="#8BC5E4"/>
<path d="M162.579 124.551C165.853 126.441 168.408 130.756 168.408 134.396L220.369 104.396C220.369 100.756 217.814 96.4413 214.541 94.5513L162.579 124.551Z" fill="#8BC5E4"/>
<path d="M168.407 370.776C168.407 372.548 167.798 373.781 166.794 374.358L218.755 344.358C219.759 343.781 220.368 342.548 220.369 340.776L168.407 370.776Z" fill="#8BC5E4"/>
<path d="M166.795 374.357C165.743 374.963 164.258 374.849 162.584 373.884L214.545 343.884C216.219 344.849 217.704 344.963 218.756 344.357L166.795 374.357Z" fill="#8BC5E4"/>
<path d="M10.6262 286.151C7.35265 284.261 4.79785 279.946 4.79785 276.316L56.7593 246.316C56.7593 249.946 59.3142 254.261 62.5878 256.151L10.6262 286.151Z" fill="#8BC5E4"/>
<path d="M4.79785 39.9363C4.79805 38.1663 5.40205 36.9343 6.39905 36.3523L58.3605 6.35229C57.3635 6.93429 56.7595 8.1663 56.7593 9.9363L4.79785 39.9363Z" fill="#8BC5E4"/>
<path d="M6.39795 36.3533C7.44995 35.7383 8.94095 35.8493 10.6209 36.8183L62.5825 6.81828C60.9025 5.84928 59.4114 5.73828 58.3594 6.35328L6.39795 36.3533Z" fill="#8BC5E4"/>
<path d="M27.652 63.0913C25.0188 61.5713 22.6478 61.4133 20.9648 62.3923L72.9263 32.3923C74.6093 31.4133 76.9803 31.5713 79.6135 33.0913L27.652 63.0913Z" fill="#8BC5E4"/>
<path d="M20.967 62.3903C19.374 63.3163 18.396 65.2593 18.394 68.0283L70.3555 38.0283C70.3575 35.2593 71.3355 33.3163 72.9285 32.3903L20.967 62.3903Z" fill="#8BC5E4"/>
<path d="M18.3945 147.066C18.3945 152.756 22.5254 159.721 27.6523 162.681L79.6138 132.681C74.4869 129.721 70.356 122.756 70.356 117.066L18.3945 147.066Z" fill="#8BC5E4"/>
<path d="M146.938 231.551C149.572 233.071 151.941 233.23 153.621 232.254L205.582 202.254C203.902 203.23 201.533 203.071 198.9 201.551L146.938 231.551Z" fill="#8BC5E4"/>
<path d="M153.619 232.256C155.21 231.333 156.186 229.393 156.188 226.629L208.15 196.629C208.148 199.393 207.172 201.333 205.581 202.256L153.619 232.256Z" fill="#8BC5E4"/>
<path d="M156.188 147.591C156.188 141.891 152.065 134.921 146.938 131.961L198.9 101.961C204.027 104.921 208.149 111.891 208.149 117.591L156.188 147.591Z" fill="#8BC5E4"/>
<path d="M27.652 180.361C25.0188 178.841 22.6478 178.68 20.9648 179.658L72.9263 149.658C74.6093 148.68 76.9803 148.841 79.6135 150.361L27.652 180.361Z" fill="#8BC5E4"/>
<path d="M20.967 179.656C19.374 180.581 18.396 182.524 18.394 185.298L70.3555 155.298C70.3575 152.524 71.3355 150.581 72.9285 149.656L20.967 179.656Z" fill="#8BC5E4"/>
<path d="M18.3945 264.326C18.3945 270.016 22.5254 276.991 27.6523 279.951L79.6138 249.951C74.4869 246.991 70.356 240.016 70.356 234.326L18.3945 264.326Z" fill="#8BC5E4"/>
<path d="M146.938 348.821C149.572 350.341 151.941 350.498 153.621 349.519L205.582 319.519C203.902 320.498 201.533 320.341 198.9 318.821L146.938 348.821Z" fill="#8BC5E4"/>
<path d="M153.619 349.521C155.21 348.595 156.186 346.653 156.188 343.889L208.15 313.889C208.148 316.653 207.172 318.595 205.581 319.521L153.619 349.521Z" fill="#8BC5E4"/>
<path d="M156.188 264.861C156.188 259.151 152.065 252.191 146.938 249.231L198.9 219.231C204.027 222.191 208.149 229.151 208.149 234.861L156.188 264.861Z" fill="#8BC5E4"/>
<path d="M162.579 124.551C165.853 126.441 168.408 130.756 168.408 134.396L220.369 104.396C220.369 100.756 217.814 96.4413 214.541 94.5513L162.579 124.551Z" fill="#8BC5E4"/>
<path d="M168.407 370.776C168.407 372.548 167.798 373.781 166.794 374.358L218.755 344.358C219.759 343.781 220.368 342.548 220.369 340.776L168.407 370.776Z" fill="#8BC5E4"/>
<path d="M166.795 374.357C165.743 374.963 164.258 374.849 162.584 373.884L214.545 343.884C216.219 344.849 217.704 344.963 218.756 344.357L166.795 374.357Z" fill="#8BC5E4"/>
<path d="M10.6262 286.151C7.35265 284.261 4.79785 279.946 4.79785 276.316L56.7593 246.316C56.7593 249.946 59.3142 254.261 62.5878 256.151L10.6262 286.151Z" fill="#8BC5E4"/>
<path d="M4.79785 39.9363C4.79805 38.1663 5.40205 36.9343 6.39905 36.3523L58.3605 6.35229C57.3635 6.93429 56.7595 8.1663 56.7593 9.9363L4.79785 39.9363Z" fill="#8BC5E4"/>
<path d="M6.39795 36.3533C7.44995 35.7383 8.94095 35.8493 10.6209 36.8183L62.5825 6.81828C60.9025 5.84928 59.4114 5.73828 58.3594 6.35328L6.39795 36.3533Z" fill="#8BC5E4"/>
<path d="M10.6259 31.4913C7.62284 29.7573 4.90184 29.5873 2.96484 30.7123L54.9263 0.712312C56.8633 -0.412688 59.5843 -0.242688 62.5875 1.49131L10.6259 31.4913Z" fill="#8BC5E4"/>
<path d="M2.967 30.7113C1.134 31.7753 0.002 33.9993 0 37.1563L51.9615 7.1563C51.9635 3.9993 53.0955 1.7753 54.9285 0.711304L2.967 30.7113Z" fill="#8BC5E4"/>
<path d="M0 273.546C0 280.036 4.7805 288.116 10.6261 291.491L62.5877 261.491C56.742 258.116 51.9615 250.036 51.9615 243.546L0 273.546Z" fill="#8BC5E4"/>
<path d="M162.579 379.221C165.582 380.955 168.303 381.122 170.24 379.996L222.202 349.996C220.265 351.122 217.544 350.955 214.541 349.221L162.579 379.221Z" fill="#8BC5E4"/>
<path d="M170.238 379.997C172.071 378.933 173.203 376.709 173.205 373.556L225.166 343.556C225.164 346.709 224.032 348.933 222.199 349.997L170.238 379.997Z" fill="#8BC5E4"/>
<path d="M173.205 137.166C173.205 130.666 168.425 122.596 162.579 119.221L214.541 89.2213C220.386 92.5963 225.167 100.666 225.167 107.166L173.205 137.166Z" fill="#8BC5E4"/>
<path d="M146.938 131.961C152.065 134.921 156.188 141.891 156.188 147.591L208.149 117.591C208.149 111.891 204.027 104.921 198.9 101.961L146.938 131.961Z" fill="#8BC5E4"/>
<path d="M156.188 226.621C156.188 229.388 155.213 231.33 153.621 232.254L205.583 202.254C207.175 201.33 208.15 199.388 208.149 196.621L156.188 226.621Z" fill="#8BC5E4"/>
<path d="M153.624 232.253C151.944 233.23 149.578 233.072 146.946 231.555L198.907 201.555C201.539 203.072 203.905 203.23 205.585 202.253L153.624 232.253Z" fill="#8BC5E4"/>
<path d="M27.6523 162.681C22.5254 159.721 18.3945 152.756 18.3945 147.066L70.356 117.066C70.356 122.756 74.4869 129.721 79.6138 132.681L27.6523 162.681Z" fill="#8BC5E4"/>
<path d="M18.3945 68.0363C18.3941 65.2643 19.3711 63.3183 20.9651 62.3923L72.9266 32.3923C71.3326 33.3183 70.3556 35.2643 70.356 38.0363L18.3945 68.0363Z" fill="#8BC5E4"/>
<path d="M20.9619 62.3933C22.6439 61.4143 25.0129 61.5703 27.6449 63.0873L79.6064 33.0873C76.9744 31.5703 74.6054 31.4143 72.9234 32.3933L20.9619 62.3933Z" fill="#8BC5E4"/>
<path d="M146.938 249.231C152.065 252.191 156.188 259.151 156.188 264.861L208.149 234.861C208.149 229.151 204.027 222.191 198.9 219.231L146.938 249.231Z" fill="#8BC5E4"/>
<path d="M156.188 343.881C156.188 346.648 155.213 348.592 153.621 349.519L205.583 319.519C207.175 318.592 208.15 316.648 208.149 313.881L156.188 343.881Z" fill="#8BC5E4"/>
<path d="M153.624 349.518C151.944 350.497 149.578 350.342 146.946 348.825L198.907 318.825C201.539 320.342 203.905 320.497 205.585 319.518L153.624 349.518Z" fill="#8BC5E4"/>
<path d="M27.6523 279.951C22.5254 276.991 18.3945 270.016 18.3945 264.326L70.356 234.326C70.356 240.016 74.4869 246.991 79.6138 249.951L27.6523 279.951Z" fill="#8BC5E4"/>
<path d="M18.3945 185.306C18.3941 182.529 19.3711 180.583 20.9651 179.658L72.9266 149.658C71.3326 150.583 70.3556 152.529 70.356 155.306L18.3945 185.306Z" fill="#8BC5E4"/>
<path d="M20.9619 179.659C22.6439 178.681 25.0129 178.84 27.6449 180.357L79.6064 150.357C76.9744 148.84 74.6054 148.681 72.9234 149.659L20.9619 179.659Z" fill="#8BC5E4"/>
<path d="M92.3354 274.986C93.2188 286.466 99.9911 296.736 111.301 303.266L163.263 273.266C151.953 266.736 145.18 256.466 144.297 244.986L92.3354 274.986Z" fill="#8BC5E4"/>
<path d="M111.302 303.266C116.714 306.391 122.838 308.526 126.458 306.394L178.42 276.394C174.8 278.526 168.676 276.391 163.263 273.266L111.302 303.266Z" fill="#8BC5E4"/>
<path d="M126.456 306.396C128.402 305.251 129.625 302.873 129.627 298.755L181.589 268.755C181.587 272.873 180.364 275.251 178.418 276.396L126.456 306.396Z" fill="#8BC5E4"/>
<path d="M129.627 298.746C129.627 287.656 123.625 281.111 114.956 274.216L166.918 244.216C175.587 251.111 181.588 257.656 181.588 268.746L129.627 298.746Z" fill="#8BC5E4"/>
<path d="M114.956 274.216C109.258 269.776 102.944 264.181 102.944 259.801L154.906 229.801C154.906 234.181 161.219 239.776 166.918 244.216L114.956 274.216Z" fill="#8BC5E4"/>
<path d="M102.944 259.801C102.944 259.072 103.259 258.567 103.787 258.253L155.748 228.253C155.22 228.567 154.905 229.072 154.906 229.801L102.944 259.801Z" fill="#8BC5E4"/>
<path d="M103.786 258.254C105.319 257.341 108.652 258.048 111.288 259.568L163.25 229.568C160.614 228.048 157.281 227.341 155.748 228.254L103.786 258.254Z" fill="#8BC5E4"/>
<path d="M111.293 259.571C115.121 261.781 118.905 267.106 119.035 271.381L170.997 241.381C170.867 237.106 167.082 231.781 163.254 229.571L111.293 259.571Z" fill="#8BC5E4"/>
<path d="M128.657 277.006C128.232 268.611 123.131 258.356 111.154 251.441L163.116 221.441C175.093 228.356 180.194 238.611 180.618 247.006L128.657 277.006Z" fill="#8BC5E4"/>
<path d="M111.154 251.441C106.633 248.83 100.833 246.831 97.3208 248.796L149.282 218.796C152.794 216.831 158.594 218.83 163.116 221.441L111.154 251.441Z" fill="#8BC5E4"/>
<path d="M97.3242 248.794C95.4282 249.854 94.1992 252.068 94.1982 255.963L146.16 225.963C146.161 222.068 147.39 219.854 149.286 218.794L97.3242 248.794Z" fill="#8BC5E4"/>
<path d="M94.1978 255.971C94.1978 266.141 103.845 275.331 108.591 278.851L160.553 248.851C155.807 245.331 146.159 236.141 146.159 225.971L94.1978 255.971Z" fill="#8BC5E4"/>
<path d="M108.591 278.851C116.61 285.061 120.507 289.011 120.507 293.261L172.469 263.261C172.469 259.011 168.572 255.061 160.552 248.851L108.591 278.851Z" fill="#8BC5E4"/>
<path d="M120.507 293.261C120.507 295.02 119.941 296.128 118.986 296.684L170.947 266.684C171.902 266.128 172.468 265.02 172.469 263.261L120.507 293.261Z" fill="#8BC5E4"/>
<path d="M118.987 296.683C117.397 297.61 114.728 297.003 111.802 295.315L163.763 265.315C166.689 267.003 169.358 267.61 170.948 266.683L118.987 296.683Z" fill="#8BC5E4"/>
<path d="M111.795 295.311C106.253 292.111 102.096 286.581 101.507 279.991L153.468 249.991C154.057 256.581 158.214 262.111 163.757 265.311L111.795 295.311Z" fill="#8BC5E4"/>
<path d="M65.5928 268.566C57.2876 263.771 52.5244 253.521 52.5244 243.551L104.486 213.551C104.486 223.521 109.249 233.771 117.554 238.566L65.5928 268.566Z" fill="#8BC5E4"/>
<path d="M52.5244 243.551C52.524 237.305 54.023 233.913 56.41 232.587L108.372 202.587C105.985 203.913 104.486 207.305 104.486 213.551L52.5244 243.551Z" fill="#8BC5E4"/>
<path d="M56.4092 232.588C58.8332 231.24 62.1742 232.023 65.7952 234.113L117.757 204.113C114.136 202.023 110.795 201.24 108.371 202.588L56.4092 232.588Z" fill="#8BC5E4"/>
<path d="M65.8008 234.116C72.0016 237.696 77.7953 245.361 77.7953 258.471L129.757 228.471C129.757 215.361 123.963 207.696 117.762 204.116L65.8008 234.116Z" fill="#8BC5E4"/>
<path d="M77.7951 258.471C77.795 264.77 76.098 268.116 73.687 269.455L125.649 239.455C128.06 238.116 129.757 234.77 129.757 228.471L77.7951 258.471Z" fill="#8BC5E4"/>
<path d="M73.6911 269.453C71.3651 270.746 68.3741 270.169 65.6011 268.571L117.563 238.571C120.336 240.169 123.327 240.746 125.653 239.453L73.6911 269.453Z" fill="#8BC5E4"/>
<path d="M64.6836 276.461C71.7652 280.55 77.6092 281.222 81.6182 278.844L133.58 248.844C129.571 251.222 123.727 250.55 116.645 246.461L64.6836 276.461Z" fill="#8BC5E4"/>
<path d="M81.6172 278.845C85.4122 276.594 87.5632 271.611 87.5642 264.207L139.526 234.207C139.525 241.611 137.374 246.594 133.579 248.845L81.6172 278.845Z" fill="#8BC5E4"/>
<path d="M87.5639 264.201C87.5639 244.421 74.9286 230.536 66.0605 225.416L118.022 195.416C126.89 200.536 139.526 214.421 139.526 234.201L87.5639 264.201Z" fill="#8BC5E4"/>
<path d="M66.0606 225.416C58.8732 221.267 52.7792 219.756 48.6582 222.144L100.62 192.144C104.741 189.756 110.835 191.267 118.022 195.416L66.0606 225.416Z" fill="#8BC5E4"/>
<path d="M48.6599 222.143C45.0589 224.228 42.9649 229.289 42.9639 238.164L94.9254 208.164C94.9264 199.289 97.0204 194.228 100.621 192.143L48.6599 222.143Z" fill="#8BC5E4"/>
<path d="M42.9634 238.171C42.9634 257.521 55.0791 270.916 64.6833 276.461L116.645 246.461C107.041 240.916 94.9249 227.521 94.9249 208.171L42.9634 238.171Z" fill="#8BC5E4"/>
<path d="M146.384 252.131C149.64 254.011 152.256 258.441 152.256 262.041L204.217 232.041C204.217 228.441 201.602 224.011 198.346 222.131L146.384 252.131Z" fill="#8BC5E4"/>
<path d="M152.256 342.511C152.256 344.274 151.632 345.509 150.615 346.094L202.577 316.094C203.594 315.509 204.218 314.274 204.218 312.511L152.256 342.511Z" fill="#8BC5E4"/>
<path d="M150.617 346.093C149.551 346.706 148.054 346.604 146.389 345.644L198.351 315.644C200.016 316.604 201.513 316.706 202.579 316.093L150.617 346.093Z" fill="#8BC5E4"/>
<path d="M27.5221 277.016C24.2745 275.141 21.6504 270.716 21.6504 267.106L73.612 237.106C73.612 240.716 76.236 245.141 79.4836 247.016L27.5221 277.016Z" fill="#8BC5E4"/>
<path d="M21.6504 186.636C21.6508 184.878 22.2758 183.644 23.2948 183.059L75.2563 153.059C74.2373 153.644 73.6123 154.878 73.612 156.636L21.6504 186.636Z" fill="#8BC5E4"/>
<path d="M23.293 183.06C24.36 182.446 25.857 182.546 27.518 183.503L79.4795 153.503C77.8185 152.546 76.3215 152.446 75.2545 153.06L23.293 183.06Z" fill="#8BC5E4"/>
<path d="M146.384 134.871C149.64 136.751 152.256 141.171 152.256 144.781L204.217 114.781C204.217 111.171 201.602 106.751 198.346 104.871L146.384 134.871Z" fill="#8BC5E4"/>
<path d="M152.256 225.251C152.256 227.009 151.632 228.242 150.615 228.825L202.577 198.825C203.594 198.242 204.218 197.009 204.218 195.251L152.256 225.251Z" fill="#8BC5E4"/>
<path d="M150.617 228.824C149.551 229.436 148.054 229.334 146.389 228.374L198.351 198.374C200.016 199.334 201.513 199.436 202.579 198.824L150.617 228.824Z" fill="#8BC5E4"/>
<path d="M27.5221 159.746C24.2745 157.871 21.6504 153.446 21.6504 149.846L73.612 119.846C73.612 123.446 76.236 127.871 79.4836 129.746L27.5221 159.746Z" fill="#8BC5E4"/>
<path d="M21.6504 69.3764C21.6508 67.6204 22.2708 66.3894 23.2818 65.8024L75.2433 35.8024C74.2323 36.3894 73.6123 37.6204 73.612 39.3764L21.6504 69.3764Z" fill="#8BC5E4"/>
<path d="M23.2808 65.8033C24.3478 65.1833 25.8508 65.2823 27.5178 66.2433L79.4793 36.2433C77.8123 35.2823 76.3093 35.1833 75.2423 35.8033L23.2808 65.8033Z" fill="#8BC5E4"/>
<path d="M64.6836 276.461C71.7652 280.55 77.6092 281.222 81.6182 278.844L133.58 248.844C129.571 251.222 123.727 250.55 116.645 246.461L64.6836 276.461Z" fill="#8BC5E4"/>
<path d="M81.6172 278.845C85.4122 276.594 87.5632 271.611 87.5642 264.207L139.526 234.207C139.525 241.611 137.374 246.594 133.579 248.845L81.6172 278.845Z" fill="#8BC5E4"/>
<path d="M87.5639 264.201C87.5639 244.421 74.9286 230.536 66.0605 225.416L118.022 195.416C126.89 200.536 139.526 214.421 139.526 234.201L87.5639 264.201Z" fill="#8BC5E4"/>
<path d="M66.0606 225.416C58.8732 221.267 52.7792 219.756 48.6582 222.144L100.62 192.144C104.741 189.756 110.835 191.267 118.022 195.416L66.0606 225.416Z" fill="#8BC5E4"/>
<path d="M48.6599 222.143C45.0589 224.228 42.9649 229.289 42.9639 238.164L94.9254 208.164C94.9264 199.289 97.0204 194.228 100.621 192.143L48.6599 222.143Z" fill="#8BC5E4"/>
<path d="M42.9634 238.171C42.9634 257.521 55.0791 270.916 64.6833 276.461L116.645 246.461C107.041 240.916 94.9249 227.521 94.9249 208.171L42.9634 238.171Z" fill="#8BC5E4"/>
<path d="M52.5244 243.551C52.5244 253.521 57.2876 263.771 65.5928 268.566L117.554 238.566C109.249 233.771 104.486 223.521 104.486 213.551L52.5244 243.551Z" fill="#8BC5E4"/>
<path d="M65.5928 268.566C68.366 270.167 71.359 270.747 73.687 269.455L125.648 239.455C123.32 240.747 120.327 240.167 117.554 238.566L65.5928 268.566Z" fill="#8BC5E4"/>
<path d="M73.6992 269.448C76.1032 268.105 77.7932 264.762 77.7952 258.48L129.757 228.48C129.755 234.762 128.065 238.105 125.661 239.448L73.6992 269.448Z" fill="#8BC5E4"/>
<path d="M77.7953 258.471C77.7953 245.361 72.0016 237.696 65.8008 234.116L117.762 204.116C123.963 207.696 129.757 215.361 129.757 228.471L77.7953 258.471Z" fill="#8BC5E4"/>
<path d="M65.8008 234.116C62.1792 232.025 58.8362 231.24 56.4102 232.587L108.372 202.587C110.798 201.24 114.141 202.025 117.762 204.116L65.8008 234.116Z" fill="#8BC5E4"/>
<path d="M56.4119 232.586C54.0239 233.911 52.5249 237.301 52.5239 243.542L104.485 213.542C104.486 207.301 105.985 203.911 108.373 202.586L56.4119 232.586Z" fill="#8BC5E4"/>
<path d="M92.3354 274.986C93.2188 286.466 99.9911 296.736 111.301 303.266L163.263 273.266C151.953 266.736 145.18 256.466 144.297 244.986L92.3354 274.986Z" fill="#8BC5E4"/>
<path d="M111.302 303.266C116.714 306.391 122.838 308.526 126.458 306.394L178.42 276.394C174.8 278.526 168.676 276.391 163.263 273.266L111.302 303.266Z" fill="#8BC5E4"/>
<path d="M126.456 306.396C128.402 305.251 129.625 302.873 129.627 298.755L181.589 268.755C181.587 272.873 180.364 275.251 178.418 276.396L126.456 306.396Z" fill="#8BC5E4"/>
<path d="M129.627 298.746C129.627 287.656 123.625 281.111 114.956 274.216L166.918 244.216C175.587 251.111 181.588 257.656 181.588 268.746L129.627 298.746Z" fill="#8BC5E4"/>
<path d="M114.956 274.216C109.258 269.776 102.944 264.181 102.944 259.801L154.906 229.801C154.906 234.181 161.219 239.776 166.918 244.216L114.956 274.216Z" fill="#8BC5E4"/>
<path d="M102.944 259.801C102.944 259.072 103.259 258.567 103.787 258.253L155.748 228.253C155.22 228.567 154.905 229.072 154.906 229.801L102.944 259.801Z" fill="#8BC5E4"/>
<path d="M103.786 258.254C105.319 257.341 108.652 258.048 111.288 259.568L163.25 229.568C160.614 228.048 157.281 227.341 155.748 228.254L103.786 258.254Z" fill="#8BC5E4"/>
<path d="M111.293 259.571C115.121 261.781 118.905 267.106 119.035 271.381L170.997 241.381C170.867 237.106 167.082 231.781 163.254 229.571L111.293 259.571Z" fill="#8BC5E4"/>
<path d="M128.657 277.006C128.232 268.611 123.131 258.356 111.154 251.441L163.116 221.441C175.093 228.356 180.194 238.611 180.618 247.006L128.657 277.006Z" fill="#8BC5E4"/>
<path d="M111.154 251.441C106.633 248.83 100.833 246.831 97.3208 248.796L149.282 218.796C152.794 216.831 158.594 218.83 163.116 221.441L111.154 251.441Z" fill="#8BC5E4"/>
<path d="M97.3242 248.794C95.4282 249.854 94.1992 252.068 94.1982 255.963L146.16 225.963C146.161 222.068 147.39 219.854 149.286 218.794L97.3242 248.794Z" fill="#8BC5E4"/>
<path d="M94.1978 255.971C94.1978 266.141 103.845 275.331 108.591 278.851L160.553 248.851C155.807 245.331 146.159 236.141 146.159 225.971L94.1978 255.971Z" fill="#8BC5E4"/>
<path d="M108.591 278.851C116.61 285.061 120.507 289.011 120.507 293.261L172.469 263.261C172.469 259.011 168.572 255.061 160.552 248.851L108.591 278.851Z" fill="#8BC5E4"/>
<path d="M120.507 293.261C120.507 295.02 119.941 296.128 118.986 296.684L170.947 266.684C171.902 266.128 172.468 265.02 172.469 263.261L120.507 293.261Z" fill="#8BC5E4"/>
<path d="M118.987 296.683C117.397 297.61 114.728 297.003 111.802 295.315L163.763 265.315C166.689 267.003 169.358 267.61 170.948 266.683L118.987 296.683Z" fill="#8BC5E4"/>
<path d="M111.795 295.311C106.253 292.111 102.096 286.581 101.507 279.991L153.468 249.991C154.057 256.581 158.214 262.111 163.757 265.311L111.795 295.311Z" fill="#8BC5E4"/>
<path fill-rule="evenodd" clip-rule="evenodd" d="M10.6261 36.8212L162.579 124.551C165.853 126.441 168.407 130.756 168.407 134.396V370.776C168.407 374.406 165.853 375.771 162.579 373.881L10.6261 286.151C7.35256 284.261 4.79778 279.946 4.79778 276.316V39.9362C4.79778 36.2962 7.35256 34.9312 10.6261 36.8212ZM146.939 131.961L27.6522 63.0912C22.5253 60.1312 18.3944 62.3362 18.3944 68.0362V147.066C18.3944 152.756 22.5253 159.721 27.6522 162.681L146.939 231.551C152.065 234.511 156.188 232.311 156.188 226.621V147.591C156.188 141.891 152.065 134.921 146.939 131.961ZM146.939 249.231L27.6522 180.361C22.5253 177.401 18.3944 179.596 18.3944 185.306V264.326C18.3944 270.016 22.5253 276.991 27.6522 279.951L146.939 348.821C152.065 351.781 156.188 349.571 156.188 343.881V264.861C156.188 259.151 152.065 252.191 146.939 249.231Z" fill="white"/>
<path fill-rule="evenodd" clip-rule="evenodd" d="M10.6261 36.8212L162.579 124.551C165.853 126.441 168.407 130.756 168.407 134.396V370.776C168.407 374.406 165.853 375.771 162.579 373.881L10.6261 286.151C7.35256 284.261 4.79778 279.946 4.79778 276.316V39.9362C4.79778 36.2962 7.35256 34.9312 10.6261 36.8212ZM10.6261 31.4912C4.78046 28.1162 0 30.6662 0 37.1662V273.546C0 280.036 4.78046 288.116 10.6261 291.491L162.579 379.221C168.425 382.596 173.205 380.036 173.205 373.546V137.166C173.205 130.666 168.425 122.596 162.579 119.221L10.6261 31.4912Z" fill="#8BC5E4"/>
<path d="M27.6522 63.0912L146.939 131.961C152.065 134.921 156.188 141.891 156.188 147.591V226.621C156.188 232.311 152.065 234.511 146.939 231.551L27.6522 162.681C22.5253 159.721 18.3944 152.756 18.3944 147.066V68.0362C18.3944 62.3362 22.5253 60.1312 27.6522 63.0912Z" fill="#8BC5E4"/>
<path d="M27.6522 180.361L146.939 249.231C152.065 252.191 156.188 259.151 156.188 264.861V343.881C156.188 349.571 152.065 351.781 146.939 348.821L27.6522 279.951C22.5253 276.991 18.3944 270.016 18.3944 264.326V185.306C18.3944 179.596 22.5253 177.401 27.6522 180.361Z" fill="#8BC5E4"/>
<path d="M92.3356 274.986C93.219 286.466 99.9913 296.736 111.302 303.266C119.624 308.071 129.627 310.536 129.627 298.746C129.627 287.656 123.625 281.111 114.956 274.216C109.258 269.776 102.944 264.181 102.944 259.801C102.944 256.951 107.751 257.526 111.293 259.571C115.121 261.781 118.905 267.106 119.035 271.381L128.657 277.006C128.232 268.611 123.131 258.356 111.154 251.441C104.192 247.421 94.1976 244.851 94.1976 255.971C94.1976 266.141 103.845 275.331 108.591 278.851C116.61 285.061 120.507 289.011 120.507 293.261C120.507 297.951 116.48 298.016 111.795 295.311C106.253 292.111 102.096 286.581 101.507 279.991L92.3356 274.986ZM65.5928 268.566C57.2876 263.771 52.5244 253.521 52.5244 243.551C52.5244 230.961 58.6126 229.966 65.8006 234.116C72.0014 237.696 77.7951 245.361 77.7951 258.471C77.7951 270.851 71.2392 271.826 65.5928 268.566ZM64.6834 276.461C78.4706 284.421 87.5638 279.431 87.5638 264.201C87.5638 244.421 74.9285 230.536 66.0604 225.416C52.5937 217.641 42.9635 219.131 42.9635 238.171C42.9635 257.521 55.0792 270.916 64.6834 276.461ZM27.5223 183.506L146.384 252.131C149.641 254.011 152.256 258.441 152.256 262.041V342.511C152.256 346.121 149.641 347.521 146.384 345.641L27.5223 277.016C24.2747 275.141 21.6506 270.716 21.6506 267.106V186.636C21.6506 183.036 24.2747 181.631 27.5223 183.506ZM88.0834 171.521L96.7783 176.541V136.521L105.698 181.691L114.748 186.916L124.197 153.121V192.371L132.433 197.126V146.896L118.533 138.871L110.236 168.171L101.931 129.286L88.0834 121.291V171.521ZM57.175 153.676L66.9438 159.316L83.3723 118.571L73.4909 112.866L62.3019 144.016L50.4287 99.5512L40.6079 93.8812L57.175 153.676ZM27.5223 66.2462L146.384 134.871C149.641 136.751 152.256 141.171 152.256 144.781V225.251C152.256 228.851 149.641 230.251 146.384 228.371L27.5223 159.746C24.2747 157.871 21.6506 153.446 21.6506 149.846V69.3762C21.6506 65.7662 24.2747 64.3712 27.5223 66.2462Z" fill="white" fill-opacity="0.5"/>
<path d="M57.175 153.676L66.9438 159.316L83.3723 118.571L73.4909 112.866L62.3019 144.016L50.4287 99.5512L40.6079 93.8812L57.175 153.676Z" fill="#8BC5E4" fill-opacity="0.5"/>
<path d="M88.0834 171.521L96.7783 176.541V136.521L105.698 181.691L114.748 186.916L124.197 153.121V192.371L132.433 197.126V146.896L118.533 138.871L110.236 168.171L101.931 129.286L88.0834 121.291V171.521Z" fill="#8BC5E4" fill-opacity="0.5"/>
<path fill-rule="evenodd" clip-rule="evenodd" d="M64.6834 276.461C78.4706 284.421 87.5638 279.431 87.5638 264.201C87.5638 244.421 74.9285 230.536 66.0604 225.416C52.5937 217.641 42.9635 219.131 42.9635 238.171C42.9635 257.521 55.0792 270.916 64.6834 276.461ZM52.5244 243.551C52.5244 253.521 57.2876 263.771 65.5928 268.566C71.2392 271.826 77.7951 270.851 77.7951 258.471C77.7951 245.361 72.0014 237.696 65.8006 234.116C58.6126 229.966 52.5244 230.961 52.5244 243.551Z" fill="#8BC5E4" fill-opacity="0.5"/>
<path d="M92.3356 274.986C93.219 286.466 99.9913 296.736 111.302 303.266C119.624 308.071 129.627 310.536 129.627 298.746C129.627 287.656 123.625 281.111 114.956 274.216C109.258 269.776 102.944 264.181 102.944 259.801C102.944 256.951 107.751 257.526 111.293 259.571C115.121 261.781 118.905 267.106 119.035 271.381L128.657 277.006C128.232 268.611 123.131 258.356 111.154 251.441C104.192 247.421 94.1976 244.851 94.1976 255.971C94.1976 266.141 103.845 275.331 108.591 278.851C116.61 285.061 120.507 289.011 120.507 293.261C120.507 297.951 116.48 298.016 111.795 295.311C106.253 292.111 102.096 286.581 101.507 279.991L92.3356 274.986Z" fill="#8BC5E4" fill-opacity="0.5"/>
</svg>
