<svg width="226" height="326" viewBox="0 0 226 326" fill="none" xmlns="http://www.w3.org/2000/svg">
<path d="M87.2951 238.632L82.6706 248.952L30.709 218.952L35.3336 208.632L87.2951 238.632Z" fill="#8BC5E4"/>
<path d="M82.6706 248.952L85.7449 247.177L33.7834 217.177L30.709 218.952L82.6706 248.952Z" fill="#8BC5E4"/>
<path d="M85.7452 247.177V255.287L33.7837 225.287V217.177L85.7452 247.177Z" fill="#8BC5E4"/>
<path d="M81.9954 259.272L76.9811 256.427L25.0195 226.427L30.0338 229.272L81.9954 259.272Z" fill="#8BC5E4"/>
<path d="M76.9811 256.427L79.1461 252.677L27.1846 222.677L25.0195 226.427L76.9811 256.427Z" fill="#8BC5E4"/>
<path d="M79.1461 252.677L71.2047 255.592L19.2432 225.592L27.1846 222.677L79.1461 252.677Z" fill="#8BC5E4"/>
<path d="M71.2047 255.592L72.6769 263.912L20.7154 233.912L19.2432 225.592L71.2047 255.592Z" fill="#8BC5E4"/>
<path d="M72.6768 263.912L74.8332 260.157L22.8717 230.157L20.7153 233.912L72.6768 263.912Z" fill="#8BC5E4"/>
<path d="M74.8331 260.157L79.8474 262.992L27.8859 232.992L22.8716 230.157L74.8331 260.157Z" fill="#8BC5E4"/>
<path d="M78.349 268.067L71.2736 272.152L19.312 242.152L26.3875 238.067L78.349 268.067Z" fill="#8BC5E4"/>
<path d="M71.2736 272.152V268.612L19.312 238.612V242.152L71.2736 272.152Z" fill="#8BC5E4"/>
<path d="M71.2737 268.612L64.6226 277.712L12.6611 247.712L19.3121 238.612L71.2737 268.612Z" fill="#8BC5E4"/>
<path d="M64.6226 277.712L71.2737 279.172L19.3121 249.172L12.6611 247.712L64.6226 277.712Z" fill="#8BC5E4"/>
<path d="M71.2736 279.172V275.652L19.312 245.652V249.172L71.2736 279.172Z" fill="#8BC5E4"/>
<path d="M71.2736 275.652L78.3403 271.572L26.3788 241.572L19.312 245.652L71.2736 275.652Z" fill="#8BC5E4"/>
<path d="M79.8735 274.917L74.8679 283.557L22.9062 253.557L27.912 244.917L79.8735 274.917Z" fill="#8BC5E4"/>
<path d="M74.8678 283.557L72.7027 282.317L20.7412 252.317L22.9062 253.557L74.8678 283.557Z" fill="#8BC5E4"/>
<path d="M72.7028 282.317L71.2652 292.307L19.3037 262.307L20.7413 252.317L72.7028 282.317Z" fill="#8BC5E4"/>
<path d="M71.2652 292.307L79.2067 286.022L27.2451 256.022L19.3037 262.307L71.2652 292.307Z" fill="#8BC5E4"/>
<path d="M79.2064 286.022L77.024 284.792L25.0625 254.792L27.2448 256.022L79.2064 286.022Z" fill="#8BC5E4"/>
<path d="M77.024 284.792L82.0123 276.172L30.0508 246.172L25.0625 254.792L77.024 284.792Z" fill="#8BC5E4"/>
<path d="M85.7452 275.787V283.907L33.7837 253.907V245.787L85.7452 275.787Z" fill="#8BC5E4"/>
<path d="M85.7449 283.907L82.6706 285.682L30.709 255.682L33.7834 253.907L85.7449 283.907Z" fill="#8BC5E4"/>
<path d="M82.6706 285.682L87.2951 290.662L35.3336 260.662L30.709 255.682L82.6706 285.682Z" fill="#8BC5E4"/>
<path d="M87.295 290.662L91.859 280.377L39.8975 250.377L35.3335 260.662L87.295 290.662Z" fill="#8BC5E4"/>
<path d="M91.8593 280.377L88.7936 282.147L36.832 252.147L39.8978 250.377L91.8593 280.377Z" fill="#8BC5E4"/>
<path d="M88.7936 282.147V274.037L36.832 244.037V252.147L88.7936 282.147Z" fill="#8BC5E4"/>
<path d="M92.4913 270.132L97.5056 272.967L45.5441 242.967L40.5298 240.132L92.4913 270.132Z" fill="#8BC5E4"/>
<path d="M97.5055 272.967L95.3404 276.727L43.3789 246.727L45.544 242.967L97.5055 272.967Z" fill="#8BC5E4"/>
<path d="M95.3404 276.727L103.317 273.742L51.355 243.742L43.3789 246.727L95.3404 276.727Z" fill="#8BC5E4"/>
<path d="M103.317 273.742L101.818 265.497L49.8569 235.497L51.3551 243.742L103.317 273.742Z" fill="#8BC5E4"/>
<path d="M101.818 265.497L99.6534 269.247L47.6919 239.247L49.857 235.497L101.818 265.497Z" fill="#8BC5E4"/>
<path d="M99.6536 269.247L94.648 266.407L42.6865 236.407L47.6921 239.247L99.6536 269.247Z" fill="#8BC5E4"/>
<path d="M96.1808 261.272L103.248 257.192L51.286 227.192L44.2192 231.272L96.1808 261.272Z" fill="#8BC5E4"/>
<path d="M103.248 257.192V260.712L51.2861 230.712V227.192L103.248 257.192Z" fill="#8BC5E4"/>
<path d="M103.248 260.712L109.899 251.572L57.9372 221.572L51.2861 230.712L103.248 260.712Z" fill="#8BC5E4"/>
<path d="M109.899 251.572L103.248 250.152L51.2861 220.152L57.9372 221.572L109.899 251.572Z" fill="#8BC5E4"/>
<path d="M103.248 250.152V253.692L51.2861 223.692V220.152L103.248 250.152Z" fill="#8BC5E4"/>
<path d="M103.248 253.692L96.1895 257.767L44.228 227.767L51.2861 223.692L103.248 253.692Z" fill="#8BC5E4"/>
<path d="M94.6217 254.382L99.6187 245.757L47.6572 215.757L42.6602 224.382L94.6217 254.382Z" fill="#8BC5E4"/>
<path d="M99.6187 245.757L101.784 246.997L49.8222 216.997L47.6572 215.757L99.6187 245.757Z" fill="#8BC5E4"/>
<path d="M101.784 246.997L103.265 237.022L51.3032 207.022L49.8223 216.997L101.784 246.997Z" fill="#8BC5E4"/>
<path d="M103.265 237.022L95.2886 243.287L43.3271 213.287L51.3032 207.022L103.265 237.022Z" fill="#8BC5E4"/>
<path d="M95.2886 243.287L97.4624 244.522L45.5009 214.522L43.3271 213.287L95.2886 243.287Z" fill="#8BC5E4"/>
<path d="M97.4624 244.522L92.4654 253.157L40.5039 223.157L45.5009 214.522L97.4624 244.522Z" fill="#8BC5E4"/>
<path d="M88.7936 253.537V245.417L36.832 215.417V223.537L88.7936 253.537Z" fill="#8BC5E4"/>
<path d="M88.7936 245.417L91.8593 243.647L39.8978 213.647L36.832 215.417L88.7936 245.417Z" fill="#8BC5E4"/>
<path d="M91.859 243.647L87.295 238.632L35.3335 208.632L39.8975 213.647L91.859 243.647Z" fill="#8BC5E4"/>
<path d="M87.295 238.632L35.3335 208.632L87.295 238.632Z" fill="#8BC5E4"/>
<path d="M181.778 67.8921V78.5021L129.817 48.5021V37.8921L181.778 67.8921Z" fill="#8BC5E4"/>
<path d="M181.779 78.502L150.836 96.367L98.874 66.367L129.817 48.502L181.779 78.502Z" fill="#8BC5E4"/>
<path d="M150.836 96.3669V109.797L98.874 79.7969V66.3669L150.836 96.3669Z" fill="#8BC5E4"/>
<path d="M150.836 109.797L181.779 91.9321L129.817 61.9321L98.874 79.7971L150.836 109.797Z" fill="#8BC5E4"/>
<path d="M181.778 91.9321V103.552L129.817 73.5521V61.9321L181.778 91.9321Z" fill="#8BC5E4"/>
<path d="M181.778 103.552L208.123 70.6521L156.161 40.6521L129.817 73.5521L181.778 103.552Z" fill="#8BC5E4"/>
<path d="M208.123 70.6521L181.778 67.8921L129.817 37.8921L156.161 40.6521L208.123 70.6521Z" fill="#8BC5E4"/>
<path d="M181.778 67.8921L129.817 37.8921L181.778 67.8921Z" fill="#8BC5E4"/>
<path d="M114.116 133.887L87.7628 167.062L35.8013 137.062L62.1544 103.887L114.116 133.887Z" fill="#8BC5E4"/>
<path d="M87.7628 167.062L114.116 169.547L62.1544 139.547L35.8013 137.062L87.7628 167.062Z" fill="#8BC5E4"/>
<path d="M114.116 169.547V157.927L62.1543 127.927V139.547L114.116 169.547Z" fill="#8BC5E4"/>
<path d="M114.116 157.927L145.059 140.062L93.0974 110.062L62.1543 127.927L114.116 157.927Z" fill="#8BC5E4"/>
<path d="M145.059 140.062V126.632L93.0977 96.6321V110.062L145.059 140.062Z" fill="#8BC5E4"/>
<path d="M145.059 126.632L114.116 144.497L62.1543 114.497L93.0974 96.6321L145.059 126.632Z" fill="#8BC5E4"/>
<path d="M114.116 144.497V133.887L62.1543 103.887V114.497L114.116 144.497Z" fill="#8BC5E4"/>
<path d="M114.116 133.887L62.1543 103.887L114.116 133.887Z" fill="#8BC5E4"/>
<path d="M164.562 130.422V141.032L112.601 111.032V100.422L164.562 130.422Z" fill="#8BC5E4"/>
<path d="M164.562 141.032L133.619 158.897L81.6572 128.897L112.6 111.032L164.562 141.032Z" fill="#8BC5E4"/>
<path d="M133.619 158.897V172.327L81.6572 142.327V128.897L133.619 158.897Z" fill="#8BC5E4"/>
<path d="M133.619 172.327L164.562 154.462L112.6 124.462L81.6572 142.327L133.619 172.327Z" fill="#8BC5E4"/>
<path d="M164.562 154.462V166.082L112.601 136.082V124.462L164.562 154.462Z" fill="#8BC5E4"/>
<path d="M164.562 166.082L190.907 133.172L138.945 103.172L112.601 136.082L164.562 166.082Z" fill="#8BC5E4"/>
<path d="M190.907 133.172L164.562 130.422L112.601 100.422L138.945 103.172L190.907 133.172Z" fill="#8BC5E4"/>
<path d="M164.562 130.422L112.601 100.422L164.562 130.422Z" fill="#8BC5E4"/>
<path d="M96.3974 196.627L70.0529 229.807L18.0913 199.807L44.4358 166.627L96.3974 196.627Z" fill="#8BC5E4"/>
<path d="M70.0529 229.807L96.3974 232.297L44.4358 202.297L18.0913 199.807L70.0529 229.807Z" fill="#8BC5E4"/>
<path d="M96.3971 232.297V220.677L44.4355 190.677V202.297L96.3971 232.297Z" fill="#8BC5E4"/>
<path d="M96.3971 220.677L127.34 202.812L75.3786 172.812L44.4355 190.677L96.3971 220.677Z" fill="#8BC5E4"/>
<path d="M127.341 202.812V189.372L75.3789 159.372V172.812L127.341 202.812Z" fill="#8BC5E4"/>
<path d="M127.34 189.372L96.3971 207.237L44.4355 177.237L75.3786 159.372L127.34 189.372Z" fill="#8BC5E4"/>
<path d="M96.3971 207.237V196.627L44.4355 166.627V177.237L96.3971 207.237Z" fill="#8BC5E4"/>
<path d="M96.3971 196.627L44.4355 166.627L96.3971 196.627Z" fill="#8BC5E4"/>
<path d="M186.282 174.902L181.787 182.437L129.826 152.437L134.32 144.902L186.282 174.902Z" fill="#8BC5E4"/>
<path d="M181.787 182.437L184.966 180.602L133.004 150.602L129.826 152.437L181.787 182.437Z" fill="#8BC5E4"/>
<path d="M184.965 180.602V191.112L133.004 161.112V150.602L184.965 180.602Z" fill="#8BC5E4"/>
<path d="M175.534 207.217L166.545 212.407L114.583 182.407L123.573 177.217L175.534 207.217Z" fill="#8BC5E4"/>
<path d="M166.545 212.407V208.757L114.583 178.757V182.407L166.545 212.407Z" fill="#8BC5E4"/>
<path d="M166.545 208.757L162.25 216.407L110.288 186.407L114.584 178.757L166.545 208.757Z" fill="#8BC5E4"/>
<path d="M162.25 216.407L166.545 218.887L114.584 188.887L110.288 186.407L162.25 216.407Z" fill="#8BC5E4"/>
<path d="M166.545 218.887V215.487L114.583 185.487V188.887L166.545 218.887Z" fill="#8BC5E4"/>
<path d="M166.545 215.487L175.335 210.412L123.374 180.412L114.583 185.487L166.545 215.487Z" fill="#8BC5E4"/>
<path d="M184.965 215.252V225.772L133.004 195.772V185.252L184.965 215.252Z" fill="#8BC5E4"/>
<path d="M184.966 225.772L181.787 227.607L129.826 197.607L133.004 195.772L184.966 225.772Z" fill="#8BC5E4"/>
<path d="M181.787 227.607L186.282 229.952L134.32 199.952L129.826 197.607L181.787 227.607Z" fill="#8BC5E4"/>
<path d="M186.282 229.952L190.603 222.517L138.642 192.517L134.32 199.952L186.282 229.952Z" fill="#8BC5E4"/>
<path d="M190.604 222.517L187.651 224.222L135.689 194.222L138.642 192.517L190.604 222.517Z" fill="#8BC5E4"/>
<path d="M187.651 224.222V213.932L135.689 183.932V194.222L187.651 224.222Z" fill="#8BC5E4"/>
<path d="M197.064 197.867L205.837 192.802L153.875 162.802L145.103 167.867L197.064 197.867Z" fill="#8BC5E4"/>
<path d="M205.837 192.802V196.202L153.875 166.202V162.802L205.837 192.802Z" fill="#8BC5E4"/>
<path d="M205.837 196.202L210.15 188.752L158.188 158.752L153.875 166.202L205.837 196.202Z" fill="#8BC5E4"/>
<path d="M210.15 188.752L205.837 186.072L153.875 156.072L158.188 158.752L210.15 188.752Z" fill="#8BC5E4"/>
<path d="M205.837 186.072V189.722L153.875 159.722V156.072L205.837 186.072Z" fill="#8BC5E4"/>
<path d="M205.837 189.722L196.856 194.907L144.895 164.907L153.875 159.722L205.837 189.722Z" fill="#8BC5E4"/>
<path d="M187.651 189.332V179.052L135.689 149.052V159.332L187.651 189.332Z" fill="#8BC5E4"/>
<path d="M187.651 179.052L190.604 177.347L138.642 147.347L135.689 149.052L187.651 179.052Z" fill="#8BC5E4"/>
<path d="M190.603 177.347L186.282 174.902L134.32 144.902L138.642 147.347L190.603 177.347Z" fill="#8BC5E4"/>
<path d="M186.282 174.902L134.32 144.902L186.282 174.902Z" fill="#8BC5E4"/>
<path d="M203.706 172.062L151.745 142.062L203.706 172.062Z" fill="#8BC5E4"/>
<path d="M168.676 192.287L116.714 162.287L168.676 192.287Z" fill="#8BC5E4"/>
<path d="M194.535 200.317L142.574 170.317L194.535 200.317Z" fill="#8BC5E4"/>
<path d="M177.847 209.962L125.885 179.962L177.847 209.962Z" fill="#8BC5E4"/>
<path d="M62.5875 124.687L214.54 36.957L162.579 6.95703L10.626 94.687L62.5875 124.687Z" fill="#8BC5E4"/>
<path d="M220.369 40.302V215.862L168.407 185.862V10.302L220.369 40.302Z" fill="#8BC5E4"/>
<path d="M214.54 225.937L62.5875 313.667L10.626 283.667L162.579 195.937L214.54 225.937Z" fill="#8BC5E4"/>
<path d="M56.7593 310.322V134.762L4.79785 104.762V280.322L56.7593 310.322Z" fill="#8BC5E4"/>
<path d="M62.5875 124.687L10.626 94.687L62.5875 124.687Z" fill="#8BC5E4"/>
<path d="M51.9615 137.532V313.092L0 283.092V107.532L51.9615 137.532Z" fill="#8BC5E4"/>
<path d="M62.5875 319.177L214.54 231.447L162.579 201.447L10.626 289.177L62.5875 319.177Z" fill="#8BC5E4"/>
<path d="M225.167 213.092V37.532L173.205 7.53198V183.092L225.167 213.092Z" fill="#8BC5E4"/>
<path d="M214.54 31.447L62.5875 119.177L10.626 89.177L162.579 1.44702L214.54 31.447Z" fill="#8BC5E4"/>
<path d="M62.5875 119.177L10.626 89.177L62.5875 119.177Z" fill="#8BC5E4"/>
<path d="M62.5875 124.687L214.54 36.957L162.579 6.95703L10.626 94.687L62.5875 124.687Z" fill="#8BC5E4"/>
<path d="M220.369 40.302V215.862L168.407 185.862V10.302L220.369 40.302Z" fill="#8BC5E4"/>
<path d="M214.54 225.937L62.5875 313.667L10.626 283.667L162.579 195.937L214.54 225.937Z" fill="#8BC5E4"/>
<path d="M56.7593 310.322V134.762L4.79785 104.762V280.322L56.7593 310.322Z" fill="#8BC5E4"/>
<path d="M62.5875 124.687L10.626 94.687L62.5875 124.687Z" fill="#8BC5E4"/>
<path d="M82.6706 248.952L87.2951 238.632L35.3336 208.632L30.709 218.952L82.6706 248.952Z" fill="#8BC5E4"/>
<path d="M87.295 238.632L91.859 243.647L39.8975 213.647L35.3335 208.632L87.295 238.632Z" fill="#8BC5E4"/>
<path d="M91.8593 243.647L88.7936 245.417L36.832 215.417L39.8978 213.647L91.8593 243.647Z" fill="#8BC5E4"/>
<path d="M88.7936 245.417V253.537L36.832 223.537V215.417L88.7936 245.417Z" fill="#8BC5E4"/>
<path d="M92.4654 253.157L97.4624 244.522L45.5009 214.522L40.5039 223.157L92.4654 253.157Z" fill="#8BC5E4"/>
<path d="M97.4624 244.522L95.2886 243.287L43.3271 213.287L45.5009 214.522L97.4624 244.522Z" fill="#8BC5E4"/>
<path d="M95.2886 243.287L103.265 237.022L51.3032 207.022L43.3271 213.287L95.2886 243.287Z" fill="#8BC5E4"/>
<path d="M103.265 237.022L101.784 246.997L49.8223 216.997L51.3032 207.022L103.265 237.022Z" fill="#8BC5E4"/>
<path d="M101.784 246.997L99.6187 245.757L47.6572 215.757L49.8222 216.997L101.784 246.997Z" fill="#8BC5E4"/>
<path d="M99.6187 245.757L94.6217 254.382L42.6602 224.382L47.6572 215.757L99.6187 245.757Z" fill="#8BC5E4"/>
<path d="M96.1895 257.767L103.248 253.692L51.2861 223.692L44.228 227.767L96.1895 257.767Z" fill="#8BC5E4"/>
<path d="M103.248 253.692V250.152L51.2861 220.152V223.692L103.248 253.692Z" fill="#8BC5E4"/>
<path d="M103.248 250.152L109.899 251.572L57.9372 221.572L51.2861 220.152L103.248 250.152Z" fill="#8BC5E4"/>
<path d="M109.899 251.572L103.248 260.712L51.2861 230.712L57.9372 221.572L109.899 251.572Z" fill="#8BC5E4"/>
<path d="M103.248 260.712V257.192L51.2861 227.192V230.712L103.248 260.712Z" fill="#8BC5E4"/>
<path d="M103.248 257.192L96.1808 261.272L44.2192 231.272L51.286 227.192L103.248 257.192Z" fill="#8BC5E4"/>
<path d="M94.648 266.407L99.6536 269.247L47.6921 239.247L42.6865 236.407L94.648 266.407Z" fill="#8BC5E4"/>
<path d="M99.6534 269.247L101.818 265.497L49.857 235.497L47.6919 239.247L99.6534 269.247Z" fill="#8BC5E4"/>
<path d="M101.818 265.497L103.317 273.742L51.3551 243.742L49.8569 235.497L101.818 265.497Z" fill="#8BC5E4"/>
<path d="M103.317 273.742L95.3404 276.727L43.3789 246.727L51.355 243.742L103.317 273.742Z" fill="#8BC5E4"/>
<path d="M95.3404 276.727L97.5055 272.967L45.544 242.967L43.3789 246.727L95.3404 276.727Z" fill="#8BC5E4"/>
<path d="M97.5056 272.967L92.4913 270.132L40.5298 240.132L45.5441 242.967L97.5056 272.967Z" fill="#8BC5E4"/>
<path d="M88.7936 274.037V282.147L36.832 252.147V244.037L88.7936 274.037Z" fill="#8BC5E4"/>
<path d="M88.7936 282.147L91.8593 280.377L39.8978 250.377L36.832 252.147L88.7936 282.147Z" fill="#8BC5E4"/>
<path d="M91.859 280.377L87.295 290.662L35.3335 260.662L39.8975 250.377L91.859 280.377Z" fill="#8BC5E4"/>
<path d="M87.2951 290.662L82.6706 285.682L30.709 255.682L35.3336 260.662L87.2951 290.662Z" fill="#8BC5E4"/>
<path d="M82.6706 285.682L85.7449 283.907L33.7834 253.907L30.709 255.682L82.6706 285.682Z" fill="#8BC5E4"/>
<path d="M85.7452 283.907V275.787L33.7837 245.787V253.907L85.7452 283.907Z" fill="#8BC5E4"/>
<path d="M82.0123 276.172L77.024 284.792L25.0625 254.792L30.0508 246.172L82.0123 276.172Z" fill="#8BC5E4"/>
<path d="M77.024 284.792L79.2064 286.022L27.2448 256.022L25.0625 254.792L77.024 284.792Z" fill="#8BC5E4"/>
<path d="M79.2067 286.022L71.2652 292.307L19.3037 262.307L27.2451 256.022L79.2067 286.022Z" fill="#8BC5E4"/>
<path d="M71.2652 292.307L72.7028 282.317L20.7413 252.317L19.3037 262.307L71.2652 292.307Z" fill="#8BC5E4"/>
<path d="M72.7027 282.317L74.8678 283.557L22.9062 253.557L20.7412 252.317L72.7027 282.317Z" fill="#8BC5E4"/>
<path d="M74.8679 283.557L79.8735 274.917L27.912 244.917L22.9062 253.557L74.8679 283.557Z" fill="#8BC5E4"/>
<path d="M78.3403 271.572L71.2736 275.652L19.312 245.652L26.3788 241.572L78.3403 271.572Z" fill="#8BC5E4"/>
<path d="M71.2736 275.652V279.172L19.312 249.172V245.652L71.2736 275.652Z" fill="#8BC5E4"/>
<path d="M71.2737 279.172L64.6226 277.712L12.6611 247.712L19.3121 249.172L71.2737 279.172Z" fill="#8BC5E4"/>
<path d="M64.6226 277.712L71.2737 268.612L19.3121 238.612L12.6611 247.712L64.6226 277.712Z" fill="#8BC5E4"/>
<path d="M71.2736 268.612V272.152L19.312 242.152V238.612L71.2736 268.612Z" fill="#8BC5E4"/>
<path d="M71.2736 272.152L78.349 268.067L26.3875 238.067L19.312 242.152L71.2736 272.152Z" fill="#8BC5E4"/>
<path d="M79.8474 262.992L74.8331 260.157L22.8716 230.157L27.8859 232.992L79.8474 262.992Z" fill="#8BC5E4"/>
<path d="M74.8332 260.157L72.6768 263.912L20.7153 233.912L22.8717 230.157L74.8332 260.157Z" fill="#8BC5E4"/>
<path d="M72.6769 263.912L71.2047 255.592L19.2432 225.592L20.7154 233.912L72.6769 263.912Z" fill="#8BC5E4"/>
<path d="M71.2047 255.592L79.1461 252.677L27.1846 222.677L19.2432 225.592L71.2047 255.592Z" fill="#8BC5E4"/>
<path d="M79.1461 252.677L76.9811 256.427L25.0195 226.427L27.1846 222.677L79.1461 252.677Z" fill="#8BC5E4"/>
<path d="M76.9811 256.427L81.9954 259.272L30.0338 229.272L25.0195 226.427L76.9811 256.427Z" fill="#8BC5E4"/>
<path d="M85.7452 255.287V247.177L33.7837 217.177V225.287L85.7452 255.287Z" fill="#8BC5E4"/>
<path d="M85.7449 247.177L82.6706 248.952L30.709 218.952L33.7834 217.177L85.7449 247.177Z" fill="#8BC5E4"/>
<path d="M82.6706 248.952L30.709 218.952L82.6706 248.952Z" fill="#8BC5E4"/>
<path d="M181.778 78.5021V67.8921L129.817 37.8921V48.5021L181.778 78.5021Z" fill="#8BC5E4"/>
<path d="M181.778 67.8921L208.123 70.6521L156.161 40.6521L129.817 37.8921L181.778 67.8921Z" fill="#8BC5E4"/>
<path d="M208.123 70.6521L181.778 103.552L129.817 73.5521L156.161 40.6521L208.123 70.6521Z" fill="#8BC5E4"/>
<path d="M181.778 103.552V91.9321L129.817 61.9321V73.5521L181.778 103.552Z" fill="#8BC5E4"/>
<path d="M181.779 91.9321L150.836 109.797L98.874 79.7971L129.817 61.9321L181.779 91.9321Z" fill="#8BC5E4"/>
<path d="M150.836 109.797V96.3669L98.874 66.3669V79.7969L150.836 109.797Z" fill="#8BC5E4"/>
<path d="M150.836 96.367L181.779 78.502L129.817 48.502L98.874 66.367L150.836 96.367Z" fill="#8BC5E4"/>
<path d="M181.778 78.502L129.817 48.502L181.778 78.502Z" fill="#8BC5E4"/>
<path d="M87.7628 167.062L114.116 133.887L62.1544 103.887L35.8013 137.062L87.7628 167.062Z" fill="#8BC5E4"/>
<path d="M114.116 133.887V144.497L62.1543 114.497V103.887L114.116 133.887Z" fill="#8BC5E4"/>
<path d="M114.116 144.497L145.059 126.632L93.0974 96.6321L62.1543 114.497L114.116 144.497Z" fill="#8BC5E4"/>
<path d="M145.059 126.632V140.062L93.0977 110.062V96.6321L145.059 126.632Z" fill="#8BC5E4"/>
<path d="M145.059 140.062L114.116 157.927L62.1543 127.927L93.0974 110.062L145.059 140.062Z" fill="#8BC5E4"/>
<path d="M114.116 157.927V169.547L62.1543 139.547V127.927L114.116 157.927Z" fill="#8BC5E4"/>
<path d="M114.116 169.547L87.7628 167.062L35.8013 137.062L62.1544 139.547L114.116 169.547Z" fill="#8BC5E4"/>
<path d="M87.7628 167.062L35.8013 137.062L87.7628 167.062Z" fill="#8BC5E4"/>
<path d="M164.562 141.032V130.422L112.601 100.422V111.032L164.562 141.032Z" fill="#8BC5E4"/>
<path d="M164.562 130.422L190.907 133.172L138.945 103.172L112.601 100.422L164.562 130.422Z" fill="#8BC5E4"/>
<path d="M190.907 133.172L164.562 166.082L112.601 136.082L138.945 103.172L190.907 133.172Z" fill="#8BC5E4"/>
<path d="M164.562 166.082V154.462L112.601 124.462V136.082L164.562 166.082Z" fill="#8BC5E4"/>
<path d="M164.562 154.462L133.619 172.327L81.6572 142.327L112.6 124.462L164.562 154.462Z" fill="#8BC5E4"/>
<path d="M133.619 172.327V158.897L81.6572 128.897V142.327L133.619 172.327Z" fill="#8BC5E4"/>
<path d="M133.619 158.897L164.562 141.032L112.6 111.032L81.6572 128.897L133.619 158.897Z" fill="#8BC5E4"/>
<path d="M164.562 141.032L112.601 111.032L164.562 141.032Z" fill="#8BC5E4"/>
<path d="M70.0529 229.807L96.3974 196.627L44.4358 166.627L18.0913 199.807L70.0529 229.807Z" fill="#8BC5E4"/>
<path d="M96.3971 196.627V207.237L44.4355 177.237V166.627L96.3971 196.627Z" fill="#8BC5E4"/>
<path d="M96.3971 207.237L127.34 189.372L75.3786 159.372L44.4355 177.237L96.3971 207.237Z" fill="#8BC5E4"/>
<path d="M127.341 189.372V202.812L75.3789 172.812V159.372L127.341 189.372Z" fill="#8BC5E4"/>
<path d="M127.34 202.812L96.3971 220.677L44.4355 190.677L75.3786 172.812L127.34 202.812Z" fill="#8BC5E4"/>
<path d="M96.3971 220.677V232.297L44.4355 202.297V190.677L96.3971 220.677Z" fill="#8BC5E4"/>
<path d="M96.3974 232.297L70.0529 229.807L18.0913 199.807L44.4358 202.297L96.3974 232.297Z" fill="#8BC5E4"/>
<path d="M70.0529 229.807L18.0913 199.807L70.0529 229.807Z" fill="#8BC5E4"/>
<path d="M181.787 182.437L186.282 174.902L134.32 144.902L129.826 152.437L181.787 182.437Z" fill="#8BC5E4"/>
<path d="M186.282 174.902L190.603 177.347L138.642 147.347L134.32 144.902L186.282 174.902Z" fill="#8BC5E4"/>
<path d="M190.604 177.347L187.651 179.052L135.689 149.052L138.642 147.347L190.604 177.347Z" fill="#8BC5E4"/>
<path d="M187.651 179.052V189.332L135.689 159.332V149.052L187.651 179.052Z" fill="#8BC5E4"/>
<path d="M196.856 194.907L205.837 189.722L153.875 159.722L144.895 164.907L196.856 194.907Z" fill="#8BC5E4"/>
<path d="M205.837 189.722V186.072L153.875 156.072V159.722L205.837 189.722Z" fill="#8BC5E4"/>
<path d="M205.837 186.072L210.15 188.752L158.188 158.752L153.875 156.072L205.837 186.072Z" fill="#8BC5E4"/>
<path d="M210.15 188.752L205.837 196.202L153.875 166.202L158.188 158.752L210.15 188.752Z" fill="#8BC5E4"/>
<path d="M205.837 196.202V192.802L153.875 162.802V166.202L205.837 196.202Z" fill="#8BC5E4"/>
<path d="M205.837 192.802L197.064 197.867L145.103 167.867L153.875 162.802L205.837 192.802Z" fill="#8BC5E4"/>
<path d="M187.651 213.932V224.222L135.689 194.222V183.932L187.651 213.932Z" fill="#8BC5E4"/>
<path d="M187.651 224.222L190.604 222.517L138.642 192.517L135.689 194.222L187.651 224.222Z" fill="#8BC5E4"/>
<path d="M190.603 222.517L186.282 229.952L134.32 199.952L138.642 192.517L190.603 222.517Z" fill="#8BC5E4"/>
<path d="M186.282 229.952L181.787 227.607L129.826 197.607L134.32 199.952L186.282 229.952Z" fill="#8BC5E4"/>
<path d="M181.787 227.607L184.966 225.772L133.004 195.772L129.826 197.607L181.787 227.607Z" fill="#8BC5E4"/>
<path d="M184.965 225.772V215.252L133.004 185.252V195.772L184.965 225.772Z" fill="#8BC5E4"/>
<path d="M175.335 210.412L166.545 215.487L114.583 185.487L123.374 180.412L175.335 210.412Z" fill="#8BC5E4"/>
<path d="M166.545 215.487V218.887L114.583 188.887V185.487L166.545 215.487Z" fill="#8BC5E4"/>
<path d="M166.545 218.887L162.25 216.407L110.288 186.407L114.584 188.887L166.545 218.887Z" fill="#8BC5E4"/>
<path d="M162.25 216.407L166.545 208.757L114.584 178.757L110.288 186.407L162.25 216.407Z" fill="#8BC5E4"/>
<path d="M166.545 208.757V212.407L114.583 182.407V178.757L166.545 208.757Z" fill="#8BC5E4"/>
<path d="M166.545 212.407L175.534 207.217L123.573 177.217L114.583 182.407L166.545 212.407Z" fill="#8BC5E4"/>
<path d="M184.965 191.112V180.602L133.004 150.602V161.112L184.965 191.112Z" fill="#8BC5E4"/>
<path d="M184.966 180.602L181.787 182.437L129.826 152.437L133.004 150.602L184.966 180.602Z" fill="#8BC5E4"/>
<path d="M181.787 182.437L129.826 152.437L181.787 182.437Z" fill="#8BC5E4"/>
<path d="M194.535 200.317L142.574 170.317L194.535 200.317Z" fill="#8BC5E4"/>
<path d="M203.706 172.062L151.745 142.062L203.706 172.062Z" fill="#8BC5E4"/>
<path d="M177.847 209.962L125.885 179.962L177.847 209.962Z" fill="#8BC5E4"/>
<path d="M168.676 192.287L116.714 162.287L168.676 192.287Z" fill="#8BC5E4"/>
<path d="M85.7451 255.287C84.3941 256.337 83.1124 257.697 81.9953 259.272L30.0337 229.272C31.1509 227.697 32.4326 226.337 33.7836 225.287L85.7451 255.287Z" fill="#8BC5E4"/>
<path d="M79.8474 262.992C79.0853 264.692 78.5744 266.417 78.3492 268.067L26.3877 238.067C26.6128 236.417 27.1238 234.692 27.8859 232.992L79.8474 262.992Z" fill="#8BC5E4"/>
<path d="M78.3404 271.572C78.5743 272.957 79.0939 274.107 79.8733 274.917L27.9118 244.917C27.1324 244.107 26.6127 242.957 26.3789 241.572L78.3404 271.572Z" fill="#8BC5E4"/>
<path d="M82.0128 276.172C83.13 276.437 84.403 276.302 85.7453 275.787L33.7838 245.787C32.4415 246.302 31.1684 246.437 30.0513 246.172L82.0128 276.172Z" fill="#8BC5E4"/>
<path d="M88.7936 274.037C90.1272 273.007 91.3916 271.667 92.4915 270.132L40.53 240.132C39.4301 241.667 38.1657 243.007 36.832 244.037L88.7936 274.037Z" fill="#8BC5E4"/>
<path d="M94.648 266.407C95.4274 264.687 95.9557 262.932 96.1809 261.272L44.2193 231.272C43.9942 232.932 43.4659 234.687 42.6865 236.407L94.648 266.407Z" fill="#8BC5E4"/>
<path d="M96.1892 257.767C95.9554 256.352 95.4185 255.202 94.6217 254.382L42.6602 224.382C43.4569 225.202 43.9939 226.352 44.2277 227.767L96.1892 257.767Z" fill="#8BC5E4"/>
<path d="M92.4655 253.157C91.3657 252.912 90.1099 253.037 88.7936 253.537L36.832 223.537C38.1484 223.037 39.4041 222.912 40.504 223.157L92.4655 253.157Z" fill="#8BC5E4"/>
<path d="M184.966 191.112C184.798 191.044 184.63 190.977 184.464 190.911L132.503 160.911C132.669 160.977 132.837 161.044 133.004 161.112L184.966 191.112Z" fill="#8BC5E4"/>
<path d="M184.464 190.911C181.584 189.774 178.847 189.017 176.425 188.638L124.464 158.638C126.886 159.017 129.623 159.774 132.503 160.911L184.464 190.911Z" fill="#8BC5E4"/>
<path d="M176.418 188.637C174.305 188.327 172.443 188.292 170.841 188.637L118.879 158.637C120.481 158.292 122.343 158.327 124.457 158.637L176.418 188.637Z" fill="#8BC5E4"/>
<path d="M170.841 188.637C170.044 188.807 169.308 189.062 168.598 189.502L116.636 159.502C117.346 159.062 118.082 158.807 118.879 158.637L170.841 188.637Z" fill="#8BC5E4"/>
<path d="M168.598 189.502C167.879 189.947 167.125 190.652 166.58 191.597L114.618 161.597C115.164 160.652 115.917 159.947 116.636 159.502L168.598 189.502Z" fill="#8BC5E4"/>
<path d="M166.58 191.597C166.026 192.557 165.818 193.537 165.8 194.387L113.839 164.387C113.856 163.537 114.064 162.557 114.618 161.597L166.58 191.597Z" fill="#8BC5E4"/>
<path d="M165.8 194.387C165.792 195.212 165.948 195.962 166.207 196.722L114.246 166.722C113.986 165.962 113.83 165.212 113.839 164.387L165.8 194.387Z" fill="#8BC5E4"/>
<path d="M166.208 196.722C166.736 198.247 167.723 199.797 169.1 201.412L117.139 171.412C115.762 169.797 114.774 168.247 114.246 166.722L166.208 196.722Z" fill="#8BC5E4"/>
<path d="M169.1 201.412C170.648 203.222 172.683 205.109 175.11 206.906L123.148 176.906C120.721 175.109 118.686 173.222 117.139 171.412L169.1 201.412Z" fill="#8BC5E4"/>
<path d="M175.117 206.911C175.253 207.012 175.389 207.111 175.527 207.211L123.566 177.211C123.428 177.111 123.292 177.012 123.156 176.911L175.117 206.911Z" fill="#8BC5E4"/>
<path d="M175.335 210.412C172.815 215.177 170.694 219.562 169.091 223.277L117.13 193.277C118.732 189.562 120.854 185.177 123.374 180.412L175.335 210.412Z" fill="#8BC5E4"/>
<path d="M169.091 223.277C167.723 226.477 166.736 229.167 166.208 231.302L114.246 201.302C114.774 199.167 115.762 196.477 117.13 193.277L169.091 223.277Z" fill="#8BC5E4"/>
<path d="M166.207 231.302C165.948 232.362 165.792 233.292 165.8 234.117L113.839 204.117C113.83 203.292 113.986 202.362 114.246 201.302L166.207 231.302Z" fill="#8BC5E4"/>
<path d="M165.8 234.117C165.816 234.876 166 235.592 166.472 235.938L114.511 205.938C114.039 205.592 113.855 204.876 113.839 204.117L165.8 234.117Z" fill="#8BC5E4"/>
<path d="M166.467 235.934C166.498 235.957 166.53 235.978 166.564 235.998L114.603 205.998C114.569 205.978 114.537 205.957 114.506 205.934L166.467 235.934Z" fill="#8BC5E4"/>
<path d="M166.571 236.002C166.606 236.022 166.642 236.04 166.678 236.056L114.716 206.056C114.68 206.04 114.644 206.022 114.61 206.002L166.571 236.002Z" fill="#8BC5E4"/>
<path d="M166.677 236.056C167.217 236.299 167.918 236.124 168.589 235.766L116.628 205.766C115.957 206.124 115.256 206.299 114.716 206.056L166.677 236.056Z" fill="#8BC5E4"/>
<path d="M168.598 235.762C169.308 235.382 170.044 234.787 170.841 234.037L118.879 204.037C118.082 204.787 117.346 205.382 116.636 205.762L168.598 235.762Z" fill="#8BC5E4"/>
<path d="M170.841 234.037C172.443 232.532 174.305 230.347 176.409 227.602L124.448 197.602C122.343 200.347 120.481 202.532 118.879 204.037L170.841 234.037Z" fill="#8BC5E4"/>
<path d="M176.409 227.602C178.981 224.247 181.9 220.032 184.966 215.252L133.004 185.252C129.938 190.032 127.02 194.247 124.448 197.602L176.409 227.602Z" fill="#8BC5E4"/>
<path d="M187.651 213.932C187.814 213.997 187.976 214.061 188.138 214.124L136.176 184.124C136.014 184.061 135.852 183.997 135.689 183.932L187.651 213.932Z" fill="#8BC5E4"/>
<path d="M188.137 214.124C190.935 215.208 193.601 215.951 195.965 216.306L144.004 186.306C141.64 185.951 138.974 185.208 136.176 184.124L188.137 214.124Z" fill="#8BC5E4"/>
<path d="M195.973 216.307C198.077 216.622 199.948 216.652 201.541 216.312L149.58 186.312C147.986 186.652 146.116 186.622 144.011 186.307L195.973 216.307Z" fill="#8BC5E4"/>
<path d="M201.541 216.312C202.338 216.142 203.074 215.887 203.793 215.442L151.831 185.442C151.112 185.887 150.376 186.142 149.58 186.312L201.541 216.312Z" fill="#8BC5E4"/>
<path d="M203.793 215.442C204.512 214.997 205.265 214.302 205.811 213.347L153.849 183.347C153.304 184.302 152.55 184.997 151.832 185.442L203.793 215.442Z" fill="#8BC5E4"/>
<path d="M205.811 213.347C206.356 212.402 206.573 211.397 206.581 210.572L154.62 180.572C154.611 181.397 154.395 182.402 153.849 183.347L205.811 213.347Z" fill="#8BC5E4"/>
<path d="M206.581 210.572C206.599 209.732 206.443 208.982 206.174 208.227L154.213 178.227C154.481 178.982 154.637 179.732 154.62 180.572L206.581 210.572Z" fill="#8BC5E4"/>
<path d="M206.174 208.227C205.646 206.702 204.659 205.152 203.291 203.532L151.329 173.532C152.697 175.152 153.685 176.702 154.213 178.227L206.174 208.227Z" fill="#8BC5E4"/>
<path d="M203.291 203.532C201.784 201.764 199.806 199.938 197.472 198.173L145.511 168.173C147.845 169.938 149.823 171.764 151.329 173.532L203.291 203.532Z" fill="#8BC5E4"/>
<path d="M197.465 198.167C197.334 198.068 197.203 197.97 197.071 197.872L145.11 167.872C145.242 167.97 145.373 168.068 145.504 168.167L197.465 198.167Z" fill="#8BC5E4"/>
<path d="M196.856 194.907C199.463 190.002 201.654 185.477 203.291 181.672L151.329 151.672C149.692 155.477 147.501 160.002 144.895 164.907L196.856 194.907Z" fill="#8BC5E4"/>
<path d="M203.291 181.672C204.659 178.472 205.646 175.782 206.174 173.647L154.213 143.647C153.685 145.782 152.697 148.472 151.329 151.672L203.291 181.672Z" fill="#8BC5E4"/>
<path d="M206.174 173.647C206.443 172.582 206.599 171.652 206.581 170.842L154.62 140.842C154.637 141.652 154.481 142.582 154.213 143.647L206.174 173.647Z" fill="#8BC5E4"/>
<path d="M206.581 170.842C206.573 170.059 206.382 169.364 205.909 169.013L153.948 139.013C154.421 139.364 154.612 140.059 154.62 140.842L206.581 170.842Z" fill="#8BC5E4"/>
<path d="M205.915 169.017C205.883 168.993 205.851 168.971 205.817 168.951L153.856 138.951C153.89 138.971 153.922 138.993 153.954 139.017L205.915 169.017Z" fill="#8BC5E4"/>
<path d="M205.811 168.947C205.777 168.927 205.742 168.91 205.707 168.894L153.745 138.894C153.78 138.91 153.815 138.927 153.85 138.947L205.811 168.947Z" fill="#8BC5E4"/>
<path d="M205.706 168.894C205.173 168.654 204.472 168.82 203.801 169.177L151.84 139.177C152.511 138.82 153.212 138.654 153.745 138.894L205.706 168.894Z" fill="#8BC5E4"/>
<path d="M203.793 169.182C203.074 169.567 202.338 170.162 201.541 170.912L149.58 140.912C150.376 140.162 151.112 139.567 151.831 139.182L203.793 169.182Z" fill="#8BC5E4"/>
<path d="M201.541 170.912C199.948 172.412 198.077 174.602 195.973 177.347L144.011 147.347C146.116 144.602 147.986 142.412 149.58 140.912L201.541 170.912Z" fill="#8BC5E4"/>
<path d="M195.973 177.347C193.47 180.622 190.63 184.692 187.651 189.332L135.689 159.332C138.668 154.692 141.509 150.622 144.011 147.347L195.973 177.347Z" fill="#8BC5E4"/>
<path d="M203.706 172.062C204.009 171.897 204.053 171.942 204.053 171.942L152.091 141.942C152.091 141.942 152.048 141.897 151.745 142.062L203.706 172.062Z" fill="#8BC5E4"/>
<path d="M204.053 171.942C204.061 171.947 204.122 171.962 204.131 172.307L152.169 142.307C152.161 141.962 152.1 141.947 152.091 141.942L204.053 171.942Z" fill="#8BC5E4"/>
<path d="M204.131 172.307C204.139 172.642 204.053 173.272 203.845 174.102L151.883 144.102C152.091 143.272 152.178 142.642 152.169 142.307L204.131 172.307Z" fill="#8BC5E4"/>
<path d="M203.845 174.102C203.429 175.772 202.529 178.272 201.238 181.307L149.277 151.307C150.567 148.272 151.468 145.772 151.884 144.102L203.845 174.102Z" fill="#8BC5E4"/>
<path d="M201.238 181.307C199.584 185.142 197.298 189.832 194.544 194.982L142.583 164.982C145.337 159.832 147.623 155.142 149.277 151.307L201.238 181.307Z" fill="#8BC5E4"/>
<path d="M194.544 194.982C194.141 193.56 193.381 192.521 192.363 191.923L140.402 161.923C141.42 162.521 142.18 163.56 142.582 164.982L194.544 194.982Z" fill="#8BC5E4"/>
<path d="M192.367 191.925C191.351 191.328 190.078 191.17 188.647 191.51L136.685 161.51C138.116 161.17 139.389 161.328 140.405 161.925L192.367 191.925Z" fill="#8BC5E4"/>
<path d="M188.638 191.512C191.781 186.587 194.752 182.292 197.289 178.977L145.328 148.977C142.79 152.292 139.82 156.587 136.676 161.512L188.638 191.512Z" fill="#8BC5E4"/>
<path d="M197.289 178.977C199.29 176.362 201.03 174.357 202.286 173.182L150.325 143.182C149.069 144.357 147.328 146.362 145.328 148.977L197.289 178.977Z" fill="#8BC5E4"/>
<path d="M202.286 173.182C202.91 172.592 203.412 172.222 203.707 172.062L151.745 142.062C151.451 142.222 150.948 142.592 150.325 143.182L202.286 173.182Z" fill="#8BC5E4"/>
<path d="M168.676 192.287C168.979 192.102 169.481 191.892 170.113 191.757L118.152 161.757C117.52 161.892 117.017 162.102 116.714 162.287L168.676 192.287Z" fill="#8BC5E4"/>
<path d="M170.113 191.757C171.36 191.487 173.101 191.482 175.102 191.787L123.14 161.787C121.14 161.482 119.399 161.487 118.152 161.757L170.113 191.757Z" fill="#8BC5E4"/>
<path d="M175.102 191.787C177.506 192.152 180.298 192.947 183.258 194.131L131.296 164.131C128.336 162.947 125.544 162.152 123.14 161.787L175.102 191.787Z" fill="#8BC5E4"/>
<path d="M183.25 194.127C183.414 194.193 183.579 194.26 183.745 194.328L131.783 164.328C131.617 164.26 131.452 164.193 131.288 164.127L183.25 194.127Z" fill="#8BC5E4"/>
<path d="M183.753 194.332C180.878 196.972 178.652 200.857 177.856 204.627L125.894 174.627C126.691 170.857 128.916 166.972 131.792 164.332L183.753 194.332Z" fill="#8BC5E4"/>
<path d="M177.856 204.627C177.71 204.523 177.566 204.419 177.423 204.315L125.462 174.315C125.605 174.419 125.749 174.523 125.894 174.627L177.856 204.627Z" fill="#8BC5E4"/>
<path d="M177.424 204.315C174.864 202.443 172.724 200.505 171.157 198.683L119.196 168.683C120.763 170.505 122.903 172.443 125.463 174.315L177.424 204.315Z" fill="#8BC5E4"/>
<path d="M171.153 198.677C169.853 197.137 168.961 195.672 168.537 194.487L116.576 164.487C117 165.672 117.892 167.137 119.191 168.677L171.153 198.677Z" fill="#8BC5E4"/>
<path d="M168.537 194.487C168.329 193.897 168.26 193.357 168.26 193.017L116.298 163.017C116.298 163.357 116.368 163.897 116.576 164.487L168.537 194.487Z" fill="#8BC5E4"/>
<path d="M168.26 193.017C168.269 192.662 168.321 192.582 168.329 192.567L116.368 162.567C116.359 162.582 116.307 162.662 116.298 163.017L168.26 193.017Z" fill="#8BC5E4"/>
<path d="M168.329 192.567C168.329 192.567 168.381 192.467 168.676 192.287L116.714 162.287C116.42 162.467 116.368 162.567 116.368 162.567L168.329 192.567Z" fill="#8BC5E4"/>
<path d="M194.535 200.317C194.681 200.421 194.826 200.525 194.969 200.629L143.007 170.629C142.864 170.525 142.719 170.421 142.574 170.317L194.535 200.317Z" fill="#8BC5E4"/>
<path d="M194.967 200.628C197.534 202.497 199.666 204.44 201.233 206.271L149.272 176.271C147.705 174.44 145.573 172.497 143.006 170.628L194.967 200.628Z" fill="#8BC5E4"/>
<path d="M201.238 206.277C202.529 207.812 203.429 209.272 203.845 210.462L151.884 180.462C151.468 179.272 150.567 177.812 149.277 176.277L201.238 206.277Z" fill="#8BC5E4"/>
<path d="M203.845 210.462C204.053 211.062 204.139 211.582 204.131 211.927L152.169 181.927C152.178 181.582 152.091 181.062 151.883 180.462L203.845 210.462Z" fill="#8BC5E4"/>
<path d="M204.131 211.927C204.122 212.282 204.062 212.367 204.062 212.377L152.1 182.377C152.1 182.367 152.161 182.282 152.169 181.927L204.131 211.927Z" fill="#8BC5E4"/>
<path d="M204.061 212.377C204.053 212.382 204.009 212.477 203.706 212.662L151.745 182.662C152.048 182.477 152.091 182.382 152.1 182.377L204.061 212.377Z" fill="#8BC5E4"/>
<path d="M203.707 212.662C203.412 212.852 202.91 213.052 202.286 213.182L150.325 183.182C150.948 183.052 151.451 182.852 151.745 182.662L203.707 212.662Z" fill="#8BC5E4"/>
<path d="M202.286 213.182C201.03 213.457 199.29 213.462 197.289 213.157L145.328 183.157C147.328 183.462 149.069 183.457 150.325 183.182L202.286 213.182Z" fill="#8BC5E4"/>
<path d="M197.289 213.157C194.885 212.792 192.093 212.006 189.133 210.815L137.172 180.815C140.132 182.006 142.924 182.792 145.328 183.157L197.289 213.157Z" fill="#8BC5E4"/>
<path d="M189.133 210.815C188.968 210.748 188.803 210.681 188.637 210.612L136.676 180.612C136.842 180.681 137.007 180.748 137.172 180.815L189.133 210.815Z" fill="#8BC5E4"/>
<path d="M188.638 210.612C191.504 207.977 193.73 204.092 194.535 200.317L142.574 170.317C141.768 174.092 139.543 177.977 136.676 180.612L188.638 210.612Z" fill="#8BC5E4"/>
<path d="M177.847 209.962C178.249 211.385 179.007 212.425 180.023 213.023L128.062 183.023C127.046 182.425 126.288 181.385 125.885 179.962L177.847 209.962Z" fill="#8BC5E4"/>
<path d="M180.021 213.021C181.036 213.619 182.309 213.777 183.745 213.434L131.783 183.434C130.347 183.777 129.074 183.619 128.059 183.021L180.021 213.021Z" fill="#8BC5E4"/>
<path d="M183.753 213.432C180.61 218.367 177.639 222.652 175.102 225.967L123.14 195.967C125.678 192.652 128.648 188.367 131.792 183.432L183.753 213.432Z" fill="#8BC5E4"/>
<path d="M175.102 225.967C173.101 228.582 171.36 230.587 170.113 231.757L118.152 201.757C119.399 200.587 121.14 198.582 123.14 195.967L175.102 225.967Z" fill="#8BC5E4"/>
<path d="M170.113 231.757C169.481 232.352 168.979 232.732 168.676 232.887L116.714 202.887C117.017 202.732 117.52 202.352 118.152 201.757L170.113 231.757Z" fill="#8BC5E4"/>
<path d="M168.676 232.887C168.381 233.047 168.329 233.007 168.329 233.007L116.368 203.007C116.368 203.007 116.42 203.047 116.714 202.887L168.676 232.887Z" fill="#8BC5E4"/>
<path d="M168.329 233.007C168.321 233.002 168.269 232.982 168.26 232.637L116.298 202.637C116.307 202.982 116.359 203.002 116.368 203.007L168.329 233.007Z" fill="#8BC5E4"/>
<path d="M168.26 232.637C168.26 232.297 168.329 231.687 168.537 230.847L116.576 200.847C116.368 201.687 116.298 202.297 116.298 202.637L168.26 232.637Z" fill="#8BC5E4"/>
<path d="M168.537 230.847C168.961 229.172 169.853 226.667 171.153 223.647L119.191 193.647C117.892 196.667 117 199.172 116.576 200.847L168.537 230.847Z" fill="#8BC5E4"/>
<path d="M171.152 223.647C172.807 219.802 175.084 215.117 177.847 209.962L125.885 179.962C123.123 185.117 120.845 189.802 119.191 193.647L171.152 223.647Z" fill="#8BC5E4"/>
<path d="M214.54 36.9569C216.177 36.0119 217.634 35.9059 218.682 36.5069L166.721 6.50689C165.673 5.90589 164.216 6.01189 162.579 6.95689L214.54 36.9569Z" fill="#8BC5E4"/>
<path d="M218.68 36.5061C219.728 37.1061 220.367 38.4131 220.368 40.2961L168.407 10.2961C168.406 8.4131 167.767 7.1061 166.719 6.5061L218.68 36.5061Z" fill="#8BC5E4"/>
<path d="M220.369 215.862C220.369 219.632 217.814 224.047 214.54 225.937L162.579 195.937C165.852 194.047 168.407 189.632 168.407 185.862L220.369 215.862Z" fill="#8BC5E4"/>
<path d="M62.5875 313.667C60.9504 314.612 59.4934 314.718 58.4454 314.117L6.48389 284.117C7.53189 284.718 8.98889 284.612 10.626 283.667L62.5875 313.667Z" fill="#8BC5E4"/>
<path d="M58.4474 314.118C57.3994 313.518 56.7603 312.211 56.7593 310.328L4.79785 280.328C4.79885 282.211 5.43785 283.518 6.48585 284.118L58.4474 314.118Z" fill="#8BC5E4"/>
<path d="M56.7593 134.762C56.7593 130.992 59.3142 126.577 62.5877 124.687L10.6262 94.687C7.35255 96.577 4.79785 100.992 4.79785 104.762L56.7593 134.762Z" fill="#8BC5E4"/>
<path d="M62.5876 119.177C56.742 122.552 51.9615 130.802 51.9615 137.532L0 107.532C0 100.802 4.7804 92.552 10.6261 89.177L62.5876 119.177Z" fill="#8BC5E4"/>
<path d="M51.9615 313.092C51.9615 316.464 53.1615 318.831 55.0935 319.93L3.132 289.93C1.2 288.831 0 286.464 0 283.092L51.9615 313.092Z" fill="#8BC5E4"/>
<path d="M55.1026 319.935C57.0246 321.023 59.6696 320.859 62.5796 319.182L10.6181 289.182C7.70811 290.859 5.06311 291.023 3.14111 289.935L55.1026 319.935Z" fill="#8BC5E4"/>
<path d="M214.54 231.447C220.386 228.072 225.166 219.822 225.166 213.092L173.205 183.092C173.205 189.822 168.424 198.072 162.579 201.447L214.54 231.447Z" fill="#8BC5E4"/>
<path d="M225.166 37.5321C225.166 34.1601 223.966 31.7931 222.034 30.6941L170.073 0.694092C172.005 1.79309 173.205 4.16009 173.205 7.53209L225.166 37.5321Z" fill="#8BC5E4"/>
<path d="M222.025 30.689C220.103 29.601 217.458 29.765 214.549 31.442L162.588 1.44204C165.497 -0.234963 168.142 -0.398963 170.064 0.689037L222.025 30.689Z" fill="#8BC5E4"/>
<path d="M214.54 36.9569C216.177 36.0119 217.634 35.9059 218.682 36.5069L166.721 6.50689C165.673 5.90589 164.216 6.01189 162.579 6.95689L214.54 36.9569Z" fill="#8BC5E4"/>
<path d="M218.68 36.5061C219.728 37.1061 220.367 38.4131 220.368 40.2961L168.407 10.2961C168.406 8.4131 167.767 7.1061 166.719 6.5061L218.68 36.5061Z" fill="#8BC5E4"/>
<path d="M220.369 215.862C220.369 219.632 217.814 224.047 214.54 225.937L162.579 195.937C165.852 194.047 168.407 189.632 168.407 185.862L220.369 215.862Z" fill="#8BC5E4"/>
<path d="M62.5875 313.667C60.9504 314.612 59.4934 314.718 58.4454 314.117L6.48389 284.117C7.53189 284.718 8.98889 284.612 10.626 283.667L62.5875 313.667Z" fill="#8BC5E4"/>
<path d="M58.4474 314.118C57.3994 313.518 56.7603 312.211 56.7593 310.328L4.79785 280.328C4.79885 282.211 5.43785 283.518 6.48585 284.118L58.4474 314.118Z" fill="#8BC5E4"/>
<path d="M56.7593 134.762C56.7593 130.992 59.3142 126.577 62.5877 124.687L10.6262 94.687C7.35255 96.577 4.79785 100.992 4.79785 104.762L56.7593 134.762Z" fill="#8BC5E4"/>
<path d="M88.7936 253.537C90.1099 253.037 91.3657 252.912 92.4655 253.157L40.504 223.157C39.4041 222.912 38.1484 223.037 36.832 223.537L88.7936 253.537Z" fill="#8BC5E4"/>
<path d="M94.6217 254.382C95.4185 255.202 95.9554 256.352 96.1892 257.767L44.2277 227.767C43.9939 226.352 43.4569 225.202 42.6602 224.382L94.6217 254.382Z" fill="#8BC5E4"/>
<path d="M96.1809 261.272C95.9557 262.932 95.4274 264.687 94.648 266.407L42.6865 236.407C43.4659 234.687 43.9942 232.932 44.2193 231.272L96.1809 261.272Z" fill="#8BC5E4"/>
<path d="M92.4915 270.132C91.3916 271.667 90.1272 273.007 88.7936 274.037L36.832 244.037C38.1657 243.007 39.4301 241.667 40.53 240.132L92.4915 270.132Z" fill="#8BC5E4"/>
<path d="M85.7453 275.787C84.403 276.302 83.13 276.437 82.0128 276.172L30.0513 246.172C31.1684 246.437 32.4415 246.302 33.7838 245.787L85.7453 275.787Z" fill="#8BC5E4"/>
<path d="M79.8733 274.917C79.0939 274.107 78.5743 272.957 78.3404 271.572L26.3789 241.572C26.6127 242.957 27.1324 244.107 27.9118 244.917L79.8733 274.917Z" fill="#8BC5E4"/>
<path d="M78.3492 268.067C78.5744 266.417 79.0853 264.692 79.8474 262.992L27.8859 232.992C27.1238 234.692 26.6128 236.417 26.3877 238.067L78.3492 268.067Z" fill="#8BC5E4"/>
<path d="M81.9953 259.272C83.1124 257.697 84.3941 256.337 85.7451 255.287L33.7836 225.287C32.4326 226.337 31.1509 227.697 30.0337 229.272L81.9953 259.272Z" fill="#8BC5E4"/>
<path d="M187.651 189.332C190.63 184.692 193.47 180.622 195.973 177.347L144.011 147.347C141.509 150.622 138.668 154.692 135.689 159.332L187.651 189.332Z" fill="#8BC5E4"/>
<path d="M195.973 177.347C198.077 174.602 199.948 172.412 201.541 170.912L149.58 140.912C147.986 142.412 146.116 144.602 144.011 147.347L195.973 177.347Z" fill="#8BC5E4"/>
<path d="M201.541 170.912C202.338 170.162 203.074 169.567 203.793 169.182L151.831 139.182C151.112 139.567 150.376 140.162 149.58 140.912L201.541 170.912Z" fill="#8BC5E4"/>
<path d="M203.793 169.182C204.466 168.821 205.171 168.653 205.706 168.894L153.745 138.894C153.21 138.653 152.505 138.821 151.832 139.182L203.793 169.182Z" fill="#8BC5E4"/>
<path d="M205.699 168.89C205.735 168.906 205.77 168.924 205.804 168.943L153.843 138.943C153.809 138.924 153.774 138.906 153.738 138.89L205.699 168.89Z" fill="#8BC5E4"/>
<path d="M205.811 168.947C205.845 168.967 205.877 168.989 205.909 169.013L153.948 139.013C153.916 138.989 153.884 138.967 153.849 138.947L205.811 168.947Z" fill="#8BC5E4"/>
<path d="M205.92 169.021C206.383 169.374 206.572 170.059 206.581 170.832L154.62 140.832C154.611 140.059 154.422 139.374 153.959 139.021L205.92 169.021Z" fill="#8BC5E4"/>
<path d="M206.581 170.842C206.599 171.652 206.443 172.582 206.174 173.647L154.213 143.647C154.481 142.582 154.637 141.652 154.62 140.842L206.581 170.842Z" fill="#8BC5E4"/>
<path d="M206.174 173.647C205.646 175.782 204.659 178.472 203.291 181.672L151.329 151.672C152.697 148.472 153.685 145.782 154.213 143.647L206.174 173.647Z" fill="#8BC5E4"/>
<path d="M203.291 181.672C201.654 185.477 199.463 190.002 196.856 194.907L144.895 164.907C147.501 160.002 149.692 155.477 151.329 151.672L203.291 181.672Z" fill="#8BC5E4"/>
<path d="M197.064 197.867C197.202 197.969 197.338 198.071 197.473 198.173L145.511 168.173C145.376 168.071 145.24 167.969 145.103 167.867L197.064 197.867Z" fill="#8BC5E4"/>
<path d="M197.472 198.172C199.803 199.936 201.78 201.76 203.286 203.527L151.325 173.527C149.819 171.76 147.842 169.936 145.511 168.172L197.472 198.172Z" fill="#8BC5E4"/>
<path d="M203.291 203.532C204.659 205.152 205.646 206.702 206.174 208.227L154.213 178.227C153.685 176.702 152.697 175.152 151.329 173.532L203.291 203.532Z" fill="#8BC5E4"/>
<path d="M206.174 208.227C206.443 208.982 206.599 209.732 206.581 210.572L154.62 180.572C154.637 179.732 154.481 178.982 154.213 178.227L206.174 208.227Z" fill="#8BC5E4"/>
<path d="M206.581 210.572C206.573 211.397 206.356 212.402 205.811 213.347L153.849 183.347C154.395 182.402 154.611 181.397 154.62 180.572L206.581 210.572Z" fill="#8BC5E4"/>
<path d="M205.811 213.347C205.265 214.302 204.512 214.997 203.793 215.442L151.832 185.442C152.55 184.997 153.304 184.302 153.849 183.347L205.811 213.347Z" fill="#8BC5E4"/>
<path d="M203.793 215.442C203.074 215.887 202.338 216.142 201.541 216.312L149.58 186.312C150.376 186.142 151.112 185.887 151.831 185.442L203.793 215.442Z" fill="#8BC5E4"/>
<path d="M201.541 216.312C199.948 216.652 198.077 216.622 195.973 216.307L144.011 186.307C146.116 186.622 147.986 186.652 149.58 186.312L201.541 216.312Z" fill="#8BC5E4"/>
<path d="M195.973 216.307C193.606 215.953 190.939 215.209 188.137 214.124L136.176 184.124C138.978 185.209 141.645 185.953 144.011 186.307L195.973 216.307Z" fill="#8BC5E4"/>
<path d="M188.129 214.12C187.972 214.059 187.816 213.998 187.659 213.935L135.698 183.935C135.855 183.998 136.011 184.059 136.168 184.12L188.129 214.12Z" fill="#8BC5E4"/>
<path d="M184.966 215.252C181.9 220.032 178.981 224.247 176.409 227.602L124.448 197.602C127.02 194.247 129.938 190.032 133.004 185.252L184.966 215.252Z" fill="#8BC5E4"/>
<path d="M176.409 227.602C174.305 230.347 172.443 232.532 170.841 234.037L118.879 204.037C120.481 202.532 122.343 200.347 124.448 197.602L176.409 227.602Z" fill="#8BC5E4"/>
<path d="M170.841 234.037C170.044 234.787 169.308 235.382 168.598 235.762L116.636 205.762C117.346 205.382 118.082 204.787 118.879 204.037L170.841 234.037Z" fill="#8BC5E4"/>
<path d="M168.598 235.762C167.923 236.123 167.219 236.299 166.677 236.056L114.716 206.056C115.258 206.299 115.962 206.123 116.636 205.762L168.598 235.762Z" fill="#8BC5E4"/>
<path d="M166.683 236.059C166.647 236.043 166.612 236.026 166.577 236.006L114.616 206.006C114.651 206.026 114.686 206.043 114.722 206.059L166.683 236.059Z" fill="#8BC5E4"/>
<path d="M166.571 236.002C166.537 235.982 166.504 235.961 166.472 235.938L114.511 205.938C114.543 205.961 114.576 205.982 114.61 206.002L166.571 236.002Z" fill="#8BC5E4"/>
<path d="M166.461 235.929C165.999 235.582 165.818 234.876 165.8 234.126L113.839 204.126C113.857 204.876 114.038 205.582 114.5 205.929L166.461 235.929Z" fill="#8BC5E4"/>
<path d="M165.8 234.117C165.792 233.292 165.948 232.362 166.207 231.302L114.246 201.302C113.986 202.362 113.83 203.292 113.839 204.117L165.8 234.117Z" fill="#8BC5E4"/>
<path d="M166.208 231.302C166.736 229.167 167.723 226.477 169.091 223.277L117.13 193.277C115.762 196.477 114.774 199.167 114.246 201.302L166.208 231.302Z" fill="#8BC5E4"/>
<path d="M169.091 223.277C170.694 219.562 172.815 215.177 175.335 210.412L123.374 180.412C120.854 185.177 118.732 189.562 117.13 193.277L169.091 223.277Z" fill="#8BC5E4"/>
<path d="M175.535 207.217C175.391 207.114 175.249 207.01 175.109 206.906L123.148 176.906C123.288 177.01 123.43 177.114 123.573 177.217L175.535 207.217Z" fill="#8BC5E4"/>
<path d="M175.11 206.906C172.685 205.111 170.652 203.226 169.105 201.418L117.143 171.418C118.69 173.226 120.723 175.111 123.148 176.906L175.11 206.906Z" fill="#8BC5E4"/>
<path d="M169.1 201.412C167.723 199.797 166.736 198.247 166.208 196.722L114.246 166.722C114.774 168.247 115.762 169.797 117.139 171.412L169.1 201.412Z" fill="#8BC5E4"/>
<path d="M166.207 196.722C165.948 195.962 165.792 195.212 165.8 194.387L113.839 164.387C113.83 165.212 113.986 165.962 114.246 166.722L166.207 196.722Z" fill="#8BC5E4"/>
<path d="M165.8 194.387C165.818 193.537 166.026 192.557 166.58 191.597L114.618 161.597C114.064 162.557 113.856 163.537 113.839 164.387L165.8 194.387Z" fill="#8BC5E4"/>
<path d="M166.58 191.597C167.125 190.652 167.879 189.947 168.598 189.502L116.636 159.502C115.917 159.947 115.164 160.652 114.618 161.597L166.58 191.597Z" fill="#8BC5E4"/>
<path d="M168.598 189.502C169.308 189.062 170.044 188.807 170.841 188.637L118.879 158.637C118.082 158.807 117.346 159.062 116.636 159.502L168.598 189.502Z" fill="#8BC5E4"/>
<path d="M170.841 188.637C172.443 188.292 174.305 188.327 176.418 188.637L124.457 158.637C122.343 158.327 120.481 158.292 118.879 158.637L170.841 188.637Z" fill="#8BC5E4"/>
<path d="M176.418 188.637C178.842 189.015 181.582 189.773 184.465 190.911L132.503 160.911C129.62 159.773 126.88 159.015 124.457 158.637L176.418 188.637Z" fill="#8BC5E4"/>
<path d="M184.473 190.914C184.633 190.978 184.795 191.042 184.956 191.108L132.995 161.108C132.834 161.042 132.672 160.978 132.512 160.914L184.473 190.914Z" fill="#8BC5E4"/>
<path d="M194.535 200.317C194.681 200.421 194.826 200.525 194.969 200.629L143.007 170.629C142.864 170.525 142.719 170.421 142.574 170.317L194.535 200.317Z" fill="#8BC5E4"/>
<path d="M194.967 200.628C197.534 202.497 199.666 204.44 201.233 206.271L149.272 176.271C147.705 174.44 145.573 172.497 143.006 170.628L194.967 200.628Z" fill="#8BC5E4"/>
<path d="M201.238 206.277C202.529 207.812 203.429 209.272 203.845 210.462L151.884 180.462C151.468 179.272 150.567 177.812 149.277 176.277L201.238 206.277Z" fill="#8BC5E4"/>
<path d="M203.845 210.462C204.053 211.062 204.139 211.582 204.131 211.927L152.169 181.927C152.178 181.582 152.091 181.062 151.883 180.462L203.845 210.462Z" fill="#8BC5E4"/>
<path d="M204.131 211.927C204.122 212.282 204.062 212.367 204.062 212.377L152.1 182.377C152.1 182.367 152.161 182.282 152.169 181.927L204.131 211.927Z" fill="#8BC5E4"/>
<path d="M204.061 212.377C204.053 212.382 204.009 212.477 203.706 212.662L151.745 182.662C152.048 182.477 152.091 182.382 152.1 182.377L204.061 212.377Z" fill="#8BC5E4"/>
<path d="M203.707 212.662C203.412 212.852 202.91 213.052 202.286 213.182L150.325 183.182C150.948 183.052 151.451 182.852 151.745 182.662L203.707 212.662Z" fill="#8BC5E4"/>
<path d="M202.286 213.182C201.03 213.457 199.29 213.462 197.289 213.157L145.328 183.157C147.328 183.462 149.069 183.457 150.325 183.182L202.286 213.182Z" fill="#8BC5E4"/>
<path d="M197.289 213.157C194.885 212.792 192.093 212.006 189.133 210.815L137.172 180.815C140.132 182.006 142.924 182.792 145.328 183.157L197.289 213.157Z" fill="#8BC5E4"/>
<path d="M189.133 210.815C188.968 210.748 188.803 210.681 188.637 210.612L136.676 180.612C136.842 180.681 137.007 180.748 137.172 180.815L189.133 210.815Z" fill="#8BC5E4"/>
<path d="M188.638 210.612C191.504 207.977 193.73 204.092 194.535 200.317L142.574 170.317C141.768 174.092 139.543 177.977 136.676 180.612L188.638 210.612Z" fill="#8BC5E4"/>
<path d="M203.706 172.062C204.009 171.897 204.053 171.942 204.053 171.942L152.091 141.942C152.091 141.942 152.048 141.897 151.745 142.062L203.706 172.062Z" fill="#8BC5E4"/>
<path d="M204.053 171.942C204.061 171.947 204.122 171.962 204.131 172.307L152.169 142.307C152.161 141.962 152.1 141.947 152.091 141.942L204.053 171.942Z" fill="#8BC5E4"/>
<path d="M204.131 172.307C204.139 172.642 204.053 173.272 203.845 174.102L151.883 144.102C152.091 143.272 152.178 142.642 152.169 142.307L204.131 172.307Z" fill="#8BC5E4"/>
<path d="M203.845 174.102C203.429 175.772 202.529 178.272 201.238 181.307L149.277 151.307C150.567 148.272 151.468 145.772 151.884 144.102L203.845 174.102Z" fill="#8BC5E4"/>
<path d="M201.238 181.307C199.584 185.142 197.298 189.832 194.544 194.982L142.583 164.982C145.337 159.832 147.623 155.142 149.277 151.307L201.238 181.307Z" fill="#8BC5E4"/>
<path d="M194.544 194.982C194.141 193.56 193.381 192.521 192.363 191.923L140.402 161.923C141.42 162.521 142.18 163.56 142.582 164.982L194.544 194.982Z" fill="#8BC5E4"/>
<path d="M192.367 191.925C191.351 191.328 190.078 191.17 188.647 191.51L136.685 161.51C138.116 161.17 139.389 161.328 140.405 161.925L192.367 191.925Z" fill="#8BC5E4"/>
<path d="M188.638 191.512C191.781 186.587 194.752 182.292 197.289 178.977L145.328 148.977C142.79 152.292 139.82 156.587 136.676 161.512L188.638 191.512Z" fill="#8BC5E4"/>
<path d="M197.289 178.977C199.29 176.362 201.03 174.357 202.286 173.182L150.325 143.182C149.069 144.357 147.328 146.362 145.328 148.977L197.289 178.977Z" fill="#8BC5E4"/>
<path d="M202.286 173.182C202.91 172.592 203.412 172.222 203.707 172.062L151.745 142.062C151.451 142.222 150.948 142.592 150.325 143.182L202.286 173.182Z" fill="#8BC5E4"/>
<path d="M177.847 209.962C178.249 211.385 179.007 212.425 180.023 213.023L128.062 183.023C127.046 182.425 126.288 181.385 125.885 179.962L177.847 209.962Z" fill="#8BC5E4"/>
<path d="M180.021 213.021C181.036 213.619 182.309 213.777 183.745 213.434L131.783 183.434C130.347 183.777 129.074 183.619 128.059 183.021L180.021 213.021Z" fill="#8BC5E4"/>
<path d="M183.753 213.432C180.61 218.367 177.639 222.652 175.102 225.967L123.14 195.967C125.678 192.652 128.648 188.367 131.792 183.432L183.753 213.432Z" fill="#8BC5E4"/>
<path d="M175.102 225.967C173.101 228.582 171.36 230.587 170.113 231.757L118.152 201.757C119.399 200.587 121.14 198.582 123.14 195.967L175.102 225.967Z" fill="#8BC5E4"/>
<path d="M170.113 231.757C169.481 232.352 168.979 232.732 168.676 232.887L116.714 202.887C117.017 202.732 117.52 202.352 118.152 201.757L170.113 231.757Z" fill="#8BC5E4"/>
<path d="M168.676 232.887C168.381 233.047 168.329 233.007 168.329 233.007L116.368 203.007C116.368 203.007 116.42 203.047 116.714 202.887L168.676 232.887Z" fill="#8BC5E4"/>
<path d="M168.329 233.007C168.321 233.002 168.269 232.982 168.26 232.637L116.298 202.637C116.307 202.982 116.359 203.002 116.368 203.007L168.329 233.007Z" fill="#8BC5E4"/>
<path d="M168.26 232.637C168.26 232.297 168.329 231.687 168.537 230.847L116.576 200.847C116.368 201.687 116.298 202.297 116.298 202.637L168.26 232.637Z" fill="#8BC5E4"/>
<path d="M168.537 230.847C168.961 229.172 169.853 226.667 171.153 223.647L119.191 193.647C117.892 196.667 117 199.172 116.576 200.847L168.537 230.847Z" fill="#8BC5E4"/>
<path d="M171.152 223.647C172.807 219.802 175.084 215.117 177.847 209.962L125.885 179.962C123.123 185.117 120.845 189.802 119.191 193.647L171.152 223.647Z" fill="#8BC5E4"/>
<path d="M168.676 192.287C168.979 192.102 169.481 191.892 170.113 191.757L118.152 161.757C117.52 161.892 117.017 162.102 116.714 162.287L168.676 192.287Z" fill="#8BC5E4"/>
<path d="M170.113 191.757C171.36 191.487 173.101 191.482 175.102 191.787L123.14 161.787C121.14 161.482 119.399 161.487 118.152 161.757L170.113 191.757Z" fill="#8BC5E4"/>
<path d="M175.102 191.787C177.506 192.152 180.298 192.947 183.258 194.131L131.296 164.131C128.336 162.947 125.544 162.152 123.14 161.787L175.102 191.787Z" fill="#8BC5E4"/>
<path d="M183.25 194.127C183.414 194.193 183.579 194.26 183.745 194.328L131.783 164.328C131.617 164.26 131.452 164.193 131.288 164.127L183.25 194.127Z" fill="#8BC5E4"/>
<path d="M183.753 194.332C180.878 196.972 178.652 200.857 177.856 204.627L125.894 174.627C126.691 170.857 128.916 166.972 131.792 164.332L183.753 194.332Z" fill="#8BC5E4"/>
<path d="M177.856 204.627C177.71 204.523 177.566 204.419 177.423 204.315L125.462 174.315C125.605 174.419 125.749 174.523 125.894 174.627L177.856 204.627Z" fill="#8BC5E4"/>
<path d="M177.424 204.315C174.864 202.443 172.724 200.505 171.157 198.683L119.196 168.683C120.763 170.505 122.903 172.443 125.463 174.315L177.424 204.315Z" fill="#8BC5E4"/>
<path d="M171.153 198.677C169.853 197.137 168.961 195.672 168.537 194.487L116.576 164.487C117 165.672 117.892 167.137 119.191 168.677L171.153 198.677Z" fill="#8BC5E4"/>
<path d="M168.537 194.487C168.329 193.897 168.26 193.357 168.26 193.017L116.298 163.017C116.298 163.357 116.368 163.897 116.576 164.487L168.537 194.487Z" fill="#8BC5E4"/>
<path d="M168.26 193.017C168.269 192.662 168.321 192.582 168.329 192.567L116.368 162.567C116.359 162.582 116.307 162.662 116.298 163.017L168.26 193.017Z" fill="#8BC5E4"/>
<path d="M168.329 192.567C168.329 192.567 168.381 192.467 168.676 192.287L116.714 162.287C116.42 162.467 116.368 162.567 116.368 162.567L168.329 192.567Z" fill="#8BC5E4"/>
<path d="M87.2953 238.632L82.6707 248.952L85.7451 247.177V255.287C84.3941 256.337 83.1124 257.697 81.9952 259.272L76.9809 256.427L79.146 252.677L71.2045 255.592L72.6768 263.912L74.8332 260.157L79.8474 262.992C79.0853 264.692 78.5744 266.417 78.3492 268.067L71.2738 272.152V268.612L64.6227 277.712L71.2738 279.172V275.652L78.3406 271.572C78.5744 272.957 79.094 274.107 79.8734 274.917L74.8678 283.557L72.7027 282.317L71.2651 292.307L79.2066 286.022L77.0242 284.792L82.0125 276.172C83.1297 276.437 84.4027 276.302 85.7451 275.787V283.907L82.6707 285.682L87.2953 290.662L91.8592 280.377L88.7935 282.147V274.037C90.1272 273.007 91.3916 271.667 92.4914 270.132L97.5057 272.967L95.3406 276.727L103.317 273.742L101.819 265.497L99.6534 269.247L94.6478 266.407C95.4272 264.687 95.9555 262.932 96.1807 261.272L103.247 257.192V260.712L109.899 251.572L103.247 250.152V253.692L96.1893 257.767C95.9555 256.352 95.4186 255.202 94.6218 254.382L99.6188 245.757L101.784 246.997L103.265 237.022L95.2887 243.287L97.4624 244.522L92.4654 253.157C91.3656 252.912 90.1098 253.037 88.7935 253.537V245.417L91.8592 243.647L87.2953 238.632ZM181.779 67.892V78.502L150.836 96.367V109.797L181.779 91.932V103.552L208.123 70.652L181.779 67.892ZM114.116 133.887L87.7629 167.062L114.116 169.547V157.927L145.059 140.062V126.632L114.116 144.497V133.887ZM164.562 130.422V141.032L133.619 158.897V172.327L164.562 154.462V166.082L190.907 133.172L164.562 130.422ZM96.3972 196.627L70.0527 229.807L96.3972 232.297V220.677L127.34 202.812V189.372L96.3972 207.237V196.627ZM186.282 174.902L181.787 182.437L184.966 180.602V191.112C181.9 189.862 178.981 189.037 176.418 188.637C174.305 188.327 172.443 188.292 170.841 188.637C170.044 188.807 169.308 189.062 168.598 189.502C167.879 189.947 167.125 190.652 166.58 191.597C166.026 192.557 165.818 193.537 165.8 194.387C165.792 195.212 165.948 195.962 166.207 196.722C166.736 198.247 167.723 199.797 169.1 201.412C170.737 203.327 172.919 205.327 175.535 207.217L166.545 212.407V208.757L162.25 216.407L166.545 218.887V215.487L175.335 210.412C172.815 215.177 170.694 219.562 169.091 223.277C167.723 226.477 166.736 229.167 166.207 231.302C165.948 232.362 165.792 233.292 165.8 234.117C165.818 234.927 166.026 235.687 166.571 236.002C167.125 236.322 167.879 236.147 168.598 235.762C169.308 235.382 170.044 234.787 170.841 234.037C172.443 232.532 174.305 230.347 176.409 227.602C178.981 224.247 181.9 220.032 184.966 215.252V225.772L181.787 227.607L186.282 229.952L190.603 222.517L187.65 224.222V213.932C190.629 215.122 193.47 215.932 195.973 216.307C198.077 216.622 199.948 216.652 201.541 216.312C202.338 216.142 203.074 215.887 203.793 215.442C204.512 214.997 205.265 214.302 205.811 213.347C206.356 212.402 206.573 211.397 206.582 210.572C206.599 209.732 206.443 208.982 206.175 208.227C205.646 206.702 204.659 205.152 203.291 203.532C201.697 201.662 199.575 199.727 197.064 197.867L205.837 192.802V196.202L210.15 188.752L205.837 186.072V189.722L196.856 194.907C199.463 190.002 201.654 185.477 203.291 181.672C204.659 178.472 205.646 175.782 206.175 173.647C206.443 172.582 206.599 171.652 206.582 170.842C206.573 170.007 206.356 169.272 205.811 168.947C205.265 168.632 204.512 168.797 203.793 169.182C203.074 169.567 202.338 170.162 201.541 170.912C199.948 172.412 198.077 174.602 195.973 177.347C193.47 180.622 190.629 184.692 187.65 189.332V179.052L190.603 177.347L186.282 174.902ZM203.706 172.062C204.01 171.897 204.053 171.942 204.053 171.942C204.061 171.947 204.122 171.962 204.131 172.307C204.139 172.642 204.053 173.272 203.845 174.102C203.429 175.772 202.529 178.272 201.238 181.307C199.584 185.142 197.298 189.832 194.544 194.982C193.738 192.137 191.504 190.827 188.638 191.512C191.781 186.587 194.752 182.292 197.289 178.977C199.29 176.362 201.03 174.357 202.286 173.182C202.91 172.592 203.412 172.222 203.706 172.062ZM168.676 192.287C168.979 192.102 169.481 191.892 170.113 191.757C171.36 191.487 173.101 191.482 175.102 191.787C177.639 192.172 180.609 193.037 183.753 194.332C180.878 196.972 178.652 200.857 177.856 204.627C175.102 202.657 172.807 200.602 171.153 198.677C169.853 197.137 168.961 195.672 168.537 194.487C168.329 193.897 168.26 193.357 168.26 193.017C168.269 192.662 168.321 192.582 168.329 192.567C168.329 192.567 168.381 192.467 168.676 192.287ZM194.535 200.317C197.298 202.282 199.584 204.342 201.238 206.277C202.529 207.812 203.429 209.272 203.845 210.462C204.053 211.062 204.139 211.582 204.131 211.927C204.122 212.282 204.061 212.367 204.061 212.377C204.053 212.382 204.01 212.477 203.706 212.662C203.412 212.852 202.91 213.052 202.286 213.182C201.03 213.457 199.29 213.462 197.289 213.157C194.752 212.772 191.781 211.917 188.638 210.612C191.504 207.977 193.73 204.092 194.535 200.317ZM177.847 209.962C178.652 212.807 180.878 214.122 183.753 213.432C180.609 218.367 177.639 222.652 175.102 225.967C173.101 228.582 171.36 230.587 170.113 231.757C169.481 232.352 168.979 232.732 168.676 232.887C168.381 233.047 168.329 233.007 168.329 233.007C168.321 233.002 168.269 232.982 168.26 232.637C168.26 232.297 168.329 231.687 168.537 230.847C168.961 229.172 169.853 226.667 171.153 223.647C172.807 219.802 175.084 215.117 177.847 209.962ZM62.5876 124.687L214.54 36.957C217.814 35.067 220.369 36.532 220.369 40.302V215.862C220.369 219.632 217.814 224.047 214.54 225.937L62.5876 313.667C59.314 315.557 56.7592 314.092 56.7592 310.322V134.762C56.7592 130.992 59.314 126.577 62.5876 124.687ZM62.5876 119.177C56.7419 122.552 51.9614 130.802 51.9614 137.532V313.092C51.9614 319.822 56.7419 322.552 62.5876 319.177L214.54 231.447C220.386 228.072 225.167 219.822 225.167 213.092V37.532C225.167 30.802 220.386 28.072 214.54 31.447L62.5876 119.177Z" fill="#8BC5E4"/>
<path fill-rule="evenodd" clip-rule="evenodd" d="M62.5876 124.687L214.54 36.957C217.814 35.067 220.369 36.532 220.369 40.302V215.862C220.369 219.632 217.814 224.047 214.54 225.937L62.5876 313.667C59.314 315.557 56.7592 314.092 56.7592 310.322V134.762C56.7592 130.992 59.314 126.577 62.5876 124.687ZM82.6707 248.952L87.2953 238.632L91.8592 243.647L88.7935 245.417V253.537C90.1098 253.037 91.3656 252.912 92.4654 253.157L97.4624 244.522L95.2887 243.287L103.265 237.022L101.784 246.997L99.6188 245.757L94.6218 254.382C95.4186 255.202 95.9555 256.352 96.1893 257.767L103.247 253.692V250.152L109.899 251.572L103.247 260.712V257.192L96.1807 261.272C95.9555 262.932 95.4272 264.687 94.6478 266.407L99.6534 269.247L101.819 265.497L103.317 273.742L95.3406 276.727L97.5057 272.967L92.4914 270.132C91.3916 271.667 90.1272 273.007 88.7935 274.037V282.147L91.8592 280.377L87.2953 290.662L82.6707 285.682L85.7451 283.907V275.787C84.4027 276.302 83.1297 276.437 82.0125 276.172L77.0242 284.792L79.2066 286.022L71.2651 292.307L72.7027 282.317L74.8678 283.557L79.8734 274.917C79.094 274.107 78.5744 272.957 78.3406 271.572L71.2738 275.652V279.172L64.6227 277.712L71.2738 268.612V272.152L78.3492 268.067C78.5744 266.417 79.0853 264.692 79.8474 262.992L74.8332 260.157L72.6768 263.912L71.2045 255.592L79.146 252.677L76.9809 256.427L81.9952 259.272C83.1124 257.697 84.3941 256.337 85.7451 255.287V247.177L82.6707 248.952ZM181.779 78.502V67.892L208.123 70.652L181.779 103.552V91.932L150.836 109.797V96.367L181.779 78.502ZM87.7629 167.062L114.116 133.887V144.497L145.059 126.632V140.062L114.116 157.927V169.547L87.7629 167.062ZM164.562 141.032V130.422L190.907 133.172L164.562 166.082V154.462L133.619 172.327V158.897L164.562 141.032ZM70.0527 229.807L96.3972 196.627V207.237L127.34 189.372V202.812L96.3972 220.677V232.297L70.0527 229.807ZM181.787 182.437L186.282 174.902L190.603 177.347L187.65 179.052V189.332C190.629 184.692 193.47 180.622 195.973 177.347C198.077 174.602 199.948 172.412 201.541 170.912C202.338 170.162 203.074 169.567 203.793 169.182C204.512 168.797 205.265 168.632 205.811 168.947C206.356 169.272 206.573 170.007 206.582 170.842C206.599 171.652 206.443 172.582 206.175 173.647C205.646 175.782 204.659 178.472 203.291 181.672C201.654 185.477 199.463 190.002 196.856 194.907L205.837 189.722V186.072L210.15 188.752L205.837 196.202V192.802L197.064 197.867C199.575 199.727 201.697 201.662 203.291 203.532C204.659 205.152 205.646 206.702 206.175 208.227C206.443 208.982 206.599 209.732 206.582 210.572C206.573 211.397 206.356 212.402 205.811 213.347C205.265 214.302 204.512 214.997 203.793 215.442C203.074 215.887 202.338 216.142 201.541 216.312C199.948 216.652 198.077 216.622 195.973 216.307C193.47 215.932 190.629 215.122 187.65 213.932V224.222L190.603 222.517L186.282 229.952L181.787 227.607L184.966 225.772V215.252C181.9 220.032 178.981 224.247 176.409 227.602C174.305 230.347 172.443 232.532 170.841 234.037C170.044 234.787 169.308 235.382 168.598 235.762C167.879 236.147 167.125 236.322 166.571 236.002C166.026 235.687 165.818 234.927 165.8 234.117C165.792 233.292 165.948 232.362 166.207 231.302C166.736 229.167 167.723 226.477 169.091 223.277C170.694 219.562 172.815 215.177 175.335 210.412L166.545 215.487V218.887L162.25 216.407L166.545 208.757V212.407L175.535 207.217C172.919 205.327 170.737 203.327 169.1 201.412C167.723 199.797 166.736 198.247 166.207 196.722C165.948 195.962 165.792 195.212 165.8 194.387C165.818 193.537 166.026 192.557 166.58 191.597C167.125 190.652 167.879 189.947 168.598 189.502C169.308 189.062 170.044 188.807 170.841 188.637C172.443 188.292 174.305 188.327 176.418 188.637C178.981 189.037 181.9 189.862 184.966 191.112V180.602L181.787 182.437Z" fill="white"/>
<path d="M194.535 200.317C197.298 202.282 199.584 204.342 201.238 206.277C202.529 207.812 203.429 209.272 203.845 210.462C204.053 211.062 204.139 211.582 204.131 211.927C204.122 212.282 204.061 212.367 204.061 212.377C204.053 212.382 204.01 212.477 203.706 212.662C203.412 212.852 202.91 213.052 202.286 213.182C201.03 213.457 199.29 213.462 197.289 213.157C194.752 212.772 191.781 211.917 188.638 210.612C191.504 207.977 193.73 204.092 194.535 200.317Z" fill="white"/>
<path d="M203.706 172.062C204.01 171.897 204.053 171.942 204.053 171.942C204.061 171.947 204.122 171.962 204.131 172.307C204.139 172.642 204.053 173.272 203.845 174.102C203.429 175.772 202.529 178.272 201.238 181.307C199.584 185.142 197.298 189.832 194.544 194.982C193.738 192.137 191.504 190.827 188.638 191.512C191.781 186.587 194.752 182.292 197.289 178.977C199.29 176.362 201.03 174.357 202.286 173.182C202.91 172.592 203.412 172.222 203.706 172.062Z" fill="white"/>
<path d="M177.847 209.962C178.652 212.807 180.878 214.122 183.753 213.432C180.609 218.367 177.639 222.652 175.102 225.967C173.101 228.582 171.36 230.587 170.113 231.757C169.481 232.352 168.979 232.732 168.676 232.887C168.381 233.047 168.329 233.007 168.329 233.007C168.321 233.002 168.269 232.982 168.26 232.637C168.26 232.297 168.329 231.687 168.537 230.847C168.961 229.172 169.853 226.667 171.153 223.647C172.807 219.802 175.084 215.117 177.847 209.962Z" fill="white"/>
<path d="M168.676 192.287C168.979 192.102 169.481 191.892 170.113 191.757C171.36 191.487 173.101 191.482 175.102 191.787C177.639 192.172 180.609 193.037 183.753 194.332C180.878 196.972 178.652 200.857 177.856 204.627C175.102 202.657 172.807 200.602 171.153 198.677C169.853 197.137 168.961 195.672 168.537 194.487C168.329 193.897 168.26 193.357 168.26 193.017C168.269 192.662 168.321 192.582 168.329 192.567C168.329 192.567 168.381 192.467 168.676 192.287Z" fill="white"/>
</svg>
