<svg width="226" height="326" viewBox="0 0 226 326" fill="none" xmlns="http://www.w3.org/2000/svg">
<path d="M35.334 179.432L30.7095 184.412L82.671 154.412L87.2956 149.432L35.334 179.432Z" fill="#8BC5E4"/>
<path d="M30.7095 184.412L33.7838 186.187L85.7454 156.187L82.671 154.412L30.7095 184.412Z" fill="#8BC5E4"/>
<path d="M33.7837 186.187V194.297L85.7453 164.297V156.187L33.7837 186.187Z" fill="#8BC5E4"/>
<path d="M30.0338 193.952L25.0195 185.317L76.981 155.317L81.9953 163.952L30.0338 193.952Z" fill="#8BC5E4"/>
<path d="M25.0195 185.317L27.1845 184.067L79.1461 154.067L76.981 155.317L25.0195 185.317Z" fill="#8BC5E4"/>
<path d="M27.1846 184.067L19.2432 177.812L71.2047 147.812L79.1462 154.067L27.1846 184.067Z" fill="#8BC5E4"/>
<path d="M19.2432 177.812L20.7154 187.832L72.677 157.832L71.2047 147.812L19.2432 177.812Z" fill="#8BC5E4"/>
<path d="M20.7153 187.832L22.8717 186.567L74.8333 156.567L72.6769 157.832L20.7153 187.832Z" fill="#8BC5E4"/>
<path d="M22.8716 186.567L27.8859 195.192L79.8474 165.192L74.8332 156.567L22.8716 186.567Z" fill="#8BC5E4"/>
<path d="M26.3879 198.537L19.3125 194.452L71.274 164.452L78.3494 168.537L26.3879 198.537Z" fill="#8BC5E4"/>
<path d="M19.3125 194.452V190.912L71.274 160.912V164.452L19.3125 194.452Z" fill="#8BC5E4"/>
<path d="M19.3122 190.912L12.6611 192.332L64.6226 162.332L71.2737 160.912L19.3122 190.912Z" fill="#8BC5E4"/>
<path d="M12.6611 192.332L19.3122 201.472L71.2737 171.472L64.6226 162.332L12.6611 192.332Z" fill="#8BC5E4"/>
<path d="M19.3125 201.472V197.952L71.274 167.952V171.472L19.3125 201.472Z" fill="#8BC5E4"/>
<path d="M19.3125 197.952L26.3792 202.032L78.3408 172.032L71.274 167.952L19.3125 197.952Z" fill="#8BC5E4"/>
<path d="M27.9118 207.147L22.9062 210.007L74.8677 180.007L79.8733 177.147L27.9118 207.147Z" fill="#8BC5E4"/>
<path d="M22.9063 210.007L20.7412 206.267L72.7027 176.267L74.8678 180.007L22.9063 210.007Z" fill="#8BC5E4"/>
<path d="M20.7413 206.267L19.3037 214.597L71.2652 184.597L72.7028 176.267L20.7413 206.267Z" fill="#8BC5E4"/>
<path d="M19.3037 214.597L27.2452 217.482L79.2067 187.482L71.2652 184.597L19.3037 214.597Z" fill="#8BC5E4"/>
<path d="M27.2454 217.482L25.063 213.732L77.0245 183.732L79.2069 187.482L27.2454 217.482Z" fill="#8BC5E4"/>
<path d="M25.063 213.732L30.0513 210.872L82.0128 180.872L77.0245 183.732L25.063 213.732Z" fill="#8BC5E4"/>
<path d="M33.7837 214.797V222.917L85.7453 192.917V184.797L33.7837 214.797Z" fill="#8BC5E4"/>
<path d="M33.7838 222.917L30.7095 221.142L82.671 191.142L85.7454 192.917L33.7838 222.917Z" fill="#8BC5E4"/>
<path d="M30.7095 221.142L35.334 231.462L87.2956 201.462L82.671 191.142L30.7095 221.142Z" fill="#8BC5E4"/>
<path d="M35.334 231.462L39.898 226.447L91.8595 196.447L87.2956 201.462L35.334 231.462Z" fill="#8BC5E4"/>
<path d="M39.8977 226.447L36.832 224.677L88.7935 194.677L91.8592 196.447L39.8977 226.447Z" fill="#8BC5E4"/>
<path d="M36.832 224.677V216.567L88.7935 186.567V194.677L36.832 224.677Z" fill="#8BC5E4"/>
<path d="M40.5298 216.932L45.5441 225.557L97.5056 195.557L92.4913 186.932L40.5298 216.932Z" fill="#8BC5E4"/>
<path d="M45.5445 225.557L43.3794 226.817L95.3409 196.817L97.506 195.557L45.5445 225.557Z" fill="#8BC5E4"/>
<path d="M43.3794 226.817L51.3555 233.042L103.317 203.042L95.3409 196.817L43.3794 226.817Z" fill="#8BC5E4"/>
<path d="M51.3551 233.042L49.8569 223.067L101.818 193.067L103.317 203.042L51.3551 233.042Z" fill="#8BC5E4"/>
<path d="M49.857 223.067L47.6919 224.317L99.6534 194.317L101.818 193.067L49.857 223.067Z" fill="#8BC5E4"/>
<path d="M47.6921 224.317L42.6865 215.697L94.648 185.697L99.6536 194.317L47.6921 224.317Z" fill="#8BC5E4"/>
<path d="M44.2192 212.332L51.2859 216.412L103.247 186.412L96.1807 182.332L44.2192 212.332Z" fill="#8BC5E4"/>
<path d="M51.2861 216.412V219.932L103.248 189.932V186.412L51.2861 216.412Z" fill="#8BC5E4"/>
<path d="M51.2861 219.932L57.9372 218.472L109.899 188.472L103.248 189.932L51.2861 219.932Z" fill="#8BC5E4"/>
<path d="M57.9372 218.472L51.2861 209.372L103.248 179.372L109.899 188.472L57.9372 218.472Z" fill="#8BC5E4"/>
<path d="M51.2861 209.372V212.912L103.248 182.912V179.372L51.2861 209.372Z" fill="#8BC5E4"/>
<path d="M51.2861 212.912L44.228 208.837L96.1895 178.837L103.248 182.912L51.2861 212.912Z" fill="#8BC5E4"/>
<path d="M42.6602 203.642L47.6572 200.787L99.6187 170.787L94.6217 173.642L42.6602 203.642Z" fill="#8BC5E4"/>
<path d="M47.6572 200.787L49.8222 204.527L101.784 174.527L99.6187 170.787L47.6572 200.787Z" fill="#8BC5E4"/>
<path d="M49.8223 204.527L51.3032 196.262L103.265 166.262L101.784 174.527L49.8223 204.527Z" fill="#8BC5E4"/>
<path d="M51.3032 196.262L43.3271 193.317L95.2887 163.317L103.265 166.262L51.3032 196.262Z" fill="#8BC5E4"/>
<path d="M43.3271 193.317L45.5009 197.062L97.4624 167.062L95.2887 163.317L43.3271 193.317Z" fill="#8BC5E4"/>
<path d="M45.5009 197.062L40.5039 199.927L92.4654 169.927L97.4624 167.062L45.5009 197.062Z" fill="#8BC5E4"/>
<path d="M36.832 196.067V187.947L88.7935 157.947V166.067L36.832 196.067Z" fill="#8BC5E4"/>
<path d="M36.832 187.947L39.8977 189.717L91.8592 159.717L88.7935 157.947L36.832 187.947Z" fill="#8BC5E4"/>
<path d="M39.898 189.717L35.334 179.432L87.2956 149.432L91.8595 159.717L39.898 189.717Z" fill="#8BC5E4"/>
<path d="M35.334 179.432L87.2956 149.432L35.334 179.432Z" fill="#8BC5E4"/>
<path d="M129.817 117.792V128.402L181.779 98.4022V87.7922L129.817 117.792Z" fill="#8BC5E4"/>
<path d="M129.817 128.402L98.874 110.537L150.836 80.5374L181.779 98.4024L129.817 128.402Z" fill="#8BC5E4"/>
<path d="M98.874 110.537V123.967L150.836 93.9674V80.5374L98.874 110.537Z" fill="#8BC5E4"/>
<path d="M98.874 123.967L129.817 141.832L181.779 111.832L150.836 93.9673L98.874 123.967Z" fill="#8BC5E4"/>
<path d="M129.817 141.832V153.452L181.779 123.452V111.832L129.817 141.832Z" fill="#8BC5E4"/>
<path d="M129.817 153.452L156.162 150.972L208.123 120.972L181.779 123.452L129.817 153.452Z" fill="#8BC5E4"/>
<path d="M156.162 150.972L129.817 117.792L181.779 87.7922L208.123 120.972L156.162 150.972Z" fill="#8BC5E4"/>
<path d="M129.817 117.792L181.779 87.7922L129.817 117.792Z" fill="#8BC5E4"/>
<path d="M62.1544 105.657L35.8013 108.402L87.7628 78.4022L114.116 75.6572L62.1544 105.657Z" fill="#8BC5E4"/>
<path d="M35.8013 108.402L62.1544 141.317L114.116 111.317L87.7628 78.4023L35.8013 108.402Z" fill="#8BC5E4"/>
<path d="M62.1548 141.317V129.697L114.116 99.6973V111.317L62.1548 141.317Z" fill="#8BC5E4"/>
<path d="M62.1548 129.697L93.0979 147.562L145.059 117.562L114.116 99.6973L62.1548 129.697Z" fill="#8BC5E4"/>
<path d="M93.0977 147.562V134.132L145.059 104.132V117.562L93.0977 147.562Z" fill="#8BC5E4"/>
<path d="M93.0979 134.132L62.1548 116.267L114.116 86.2673L145.059 104.132L93.0979 134.132Z" fill="#8BC5E4"/>
<path d="M62.1548 116.267V105.657L114.116 75.6572V86.2672L62.1548 116.267Z" fill="#8BC5E4"/>
<path d="M62.1548 105.657L114.116 75.6572L62.1548 105.657Z" fill="#8BC5E4"/>
<path d="M112.601 160.442V171.052L164.562 141.052V130.442L112.601 160.442Z" fill="#8BC5E4"/>
<path d="M112.601 171.052L81.6577 153.187L133.619 123.187L164.562 141.052L112.601 171.052Z" fill="#8BC5E4"/>
<path d="M81.6577 153.187V166.617L133.619 136.617V123.187L81.6577 153.187Z" fill="#8BC5E4"/>
<path d="M81.6577 166.617L112.601 184.482L164.562 154.482L133.619 136.617L81.6577 166.617Z" fill="#8BC5E4"/>
<path d="M112.601 184.482V196.102L164.562 166.102V154.482L112.601 184.482Z" fill="#8BC5E4"/>
<path d="M112.601 196.102L138.945 193.612L190.907 163.612L164.562 166.102L112.601 196.102Z" fill="#8BC5E4"/>
<path d="M138.945 193.612L112.601 160.442L164.562 130.442L190.907 163.612L138.945 193.612Z" fill="#8BC5E4"/>
<path d="M112.601 160.442L164.562 130.442L112.601 160.442Z" fill="#8BC5E4"/>
<path d="M44.4358 147.937L18.0913 150.697L70.0528 120.697L96.3973 117.937L44.4358 147.937Z" fill="#8BC5E4"/>
<path d="M18.0913 150.697L44.4358 183.607L96.3973 153.607L70.0528 120.697L18.0913 150.697Z" fill="#8BC5E4"/>
<path d="M44.436 183.607V171.987L96.3975 141.987V153.607L44.436 183.607Z" fill="#8BC5E4"/>
<path d="M44.436 171.987L75.3791 189.852L127.341 159.852L96.3975 141.987L44.436 171.987Z" fill="#8BC5E4"/>
<path d="M75.3789 189.852V176.412L127.34 146.412V159.852L75.3789 189.852Z" fill="#8BC5E4"/>
<path d="M75.3791 176.412L44.436 158.547L96.3975 128.547L127.341 146.412L75.3791 176.412Z" fill="#8BC5E4"/>
<path d="M44.436 158.547V147.937L96.3975 117.937V128.547L44.436 158.547Z" fill="#8BC5E4"/>
<path d="M44.436 147.937L96.3975 117.937L44.436 147.937Z" fill="#8BC5E4"/>
<path d="M134.32 230.002L129.826 232.347L181.787 202.347L186.282 200.002L134.32 230.002Z" fill="#8BC5E4"/>
<path d="M129.826 232.347L133.004 234.182L184.965 204.182L181.787 202.347L129.826 232.347Z" fill="#8BC5E4"/>
<path d="M133.004 234.182V244.692L184.966 214.692V204.182L133.004 234.182Z" fill="#8BC5E4"/>
<path d="M123.573 249.907L114.584 244.717L166.545 214.717L175.535 219.907L123.573 249.907Z" fill="#8BC5E4"/>
<path d="M114.584 244.717V241.067L166.545 211.067V214.717L114.584 244.717Z" fill="#8BC5E4"/>
<path d="M114.584 241.067L110.288 243.757L162.25 213.757L166.545 211.067L114.584 241.067Z" fill="#8BC5E4"/>
<path d="M110.288 243.757L114.584 251.197L166.545 221.197L162.25 213.757L110.288 243.757Z" fill="#8BC5E4"/>
<path d="M114.584 251.197V247.797L166.545 217.797V221.197L114.584 251.197Z" fill="#8BC5E4"/>
<path d="M114.584 247.797L123.374 252.872L175.336 222.872L166.545 217.797L114.584 247.797Z" fill="#8BC5E4"/>
<path d="M133.004 268.832V279.352L184.966 249.352V238.832L133.004 268.832Z" fill="#8BC5E4"/>
<path d="M133.004 279.352L129.826 277.517L181.787 247.517L184.965 249.352L133.004 279.352Z" fill="#8BC5E4"/>
<path d="M129.826 277.517L134.32 285.052L186.282 255.052L181.787 247.517L129.826 277.517Z" fill="#8BC5E4"/>
<path d="M134.32 285.052L138.642 282.607L190.603 252.607L186.282 255.052L134.32 285.052Z" fill="#8BC5E4"/>
<path d="M138.642 282.607L135.689 280.902L187.65 250.902L190.604 252.607L138.642 282.607Z" fill="#8BC5E4"/>
<path d="M135.689 280.902V270.612L187.65 240.612V250.902L135.689 280.902Z" fill="#8BC5E4"/>
<path d="M145.103 265.417L153.875 270.482L205.837 240.482L197.064 235.417L145.103 265.417Z" fill="#8BC5E4"/>
<path d="M153.875 270.482V273.882L205.837 243.882V240.482L153.875 270.482Z" fill="#8BC5E4"/>
<path d="M153.875 273.882L158.188 271.412L210.15 241.412L205.837 243.882L153.875 273.882Z" fill="#8BC5E4"/>
<path d="M158.188 271.412L153.875 263.752L205.837 233.752L210.15 241.412L158.188 271.412Z" fill="#8BC5E4"/>
<path d="M153.875 263.752V267.402L205.837 237.402V233.752L153.875 263.752Z" fill="#8BC5E4"/>
<path d="M153.875 267.402L144.895 262.217L196.856 232.217L205.837 237.402L153.875 267.402Z" fill="#8BC5E4"/>
<path d="M135.689 246.012V235.732L187.65 205.732V216.012L135.689 246.012Z" fill="#8BC5E4"/>
<path d="M135.689 235.732L138.642 237.437L190.604 207.437L187.65 205.732L135.689 235.732Z" fill="#8BC5E4"/>
<path d="M138.642 237.437L134.32 230.002L186.282 200.002L190.603 207.437L138.642 237.437Z" fill="#8BC5E4"/>
<path d="M134.32 230.002L186.282 200.002L134.32 230.002Z" fill="#8BC5E4"/>
<path d="M151.745 247.282L203.707 217.282L151.745 247.282Z" fill="#8BC5E4"/>
<path d="M116.714 227.057L168.676 197.057L116.714 227.057Z" fill="#8BC5E4"/>
<path d="M142.574 264.947L194.535 234.947L142.574 264.947Z" fill="#8BC5E4"/>
<path d="M125.886 255.322L177.847 225.322L125.886 255.322Z" fill="#8BC5E4"/>
<path d="M10.626 36.9573L162.579 124.687L214.54 94.6873L62.5876 6.95728L10.626 36.9573Z" fill="#8BC5E4"/>
<path d="M168.407 134.762V310.322L220.369 280.322V104.762L168.407 134.762Z" fill="#8BC5E4"/>
<path d="M162.579 313.667L10.626 225.937L62.5876 195.937L214.54 283.667L162.579 313.667Z" fill="#8BC5E4"/>
<path d="M4.79785 215.862V40.3022L56.7593 10.3022V185.862L4.79785 215.862Z" fill="#8BC5E4"/>
<path d="M10.626 36.9573L62.5876 6.95728L10.626 36.9573Z" fill="#8BC5E4"/>
<path d="M0 37.5322V213.092L51.9615 183.092V7.53223L0 37.5322Z" fill="#8BC5E4"/>
<path d="M10.626 231.447L162.579 319.177L214.54 289.177L62.5876 201.447L10.626 231.447Z" fill="#8BC5E4"/>
<path d="M173.205 313.092V137.532L225.167 107.532V283.092L173.205 313.092Z" fill="#8BC5E4"/>
<path d="M162.579 119.177L10.626 31.4473L62.5876 1.44727L214.54 89.1773L162.579 119.177Z" fill="#8BC5E4"/>
<path d="M10.626 31.4473L62.5876 1.44727L10.626 31.4473Z" fill="#8BC5E4"/>
<path d="M10.626 36.9573L162.579 124.687L214.54 94.6873L62.5876 6.95728L10.626 36.9573Z" fill="#8BC5E4"/>
<path d="M168.407 134.762V310.322L220.369 280.322V104.762L168.407 134.762Z" fill="#8BC5E4"/>
<path d="M162.579 313.667L10.626 225.937L62.5876 195.937L214.54 283.667L162.579 313.667Z" fill="#8BC5E4"/>
<path d="M4.79785 215.862V40.3022L56.7593 10.3022V185.862L4.79785 215.862Z" fill="#8BC5E4"/>
<path d="M10.626 36.9573L62.5876 6.95728L10.626 36.9573Z" fill="#8BC5E4"/>
<path d="M30.7095 184.412L35.334 179.432L87.2956 149.432L82.671 154.412L30.7095 184.412Z" fill="#8BC5E4"/>
<path d="M35.334 179.432L39.898 189.717L91.8595 159.717L87.2956 149.432L35.334 179.432Z" fill="#8BC5E4"/>
<path d="M39.8977 189.717L36.832 187.947L88.7935 157.947L91.8592 159.717L39.8977 189.717Z" fill="#8BC5E4"/>
<path d="M36.832 187.947V196.067L88.7935 166.067V157.947L36.832 187.947Z" fill="#8BC5E4"/>
<path d="M40.5039 199.927L45.5009 197.062L97.4624 167.062L92.4654 169.927L40.5039 199.927Z" fill="#8BC5E4"/>
<path d="M45.5009 197.062L43.3271 193.317L95.2887 163.317L97.4624 167.062L45.5009 197.062Z" fill="#8BC5E4"/>
<path d="M43.3271 193.317L51.3032 196.262L103.265 166.262L95.2887 163.317L43.3271 193.317Z" fill="#8BC5E4"/>
<path d="M51.3032 196.262L49.8223 204.527L101.784 174.527L103.265 166.262L51.3032 196.262Z" fill="#8BC5E4"/>
<path d="M49.8222 204.527L47.6572 200.787L99.6187 170.787L101.784 174.527L49.8222 204.527Z" fill="#8BC5E4"/>
<path d="M47.6572 200.787L42.6602 203.642L94.6217 173.642L99.6187 170.787L47.6572 200.787Z" fill="#8BC5E4"/>
<path d="M44.228 208.837L51.2861 212.912L103.248 182.912L96.1895 178.837L44.228 208.837Z" fill="#8BC5E4"/>
<path d="M51.2861 212.912V209.372L103.248 179.372V182.912L51.2861 212.912Z" fill="#8BC5E4"/>
<path d="M51.2861 209.372L57.9372 218.472L109.899 188.472L103.248 179.372L51.2861 209.372Z" fill="#8BC5E4"/>
<path d="M57.9372 218.472L51.2861 219.932L103.248 189.932L109.899 188.472L57.9372 218.472Z" fill="#8BC5E4"/>
<path d="M51.2861 219.932V216.412L103.248 186.412V189.932L51.2861 219.932Z" fill="#8BC5E4"/>
<path d="M51.2859 216.412L44.2192 212.332L96.1807 182.332L103.247 186.412L51.2859 216.412Z" fill="#8BC5E4"/>
<path d="M42.6865 215.697L47.6921 224.317L99.6536 194.317L94.648 185.697L42.6865 215.697Z" fill="#8BC5E4"/>
<path d="M47.6919 224.317L49.857 223.067L101.818 193.067L99.6534 194.317L47.6919 224.317Z" fill="#8BC5E4"/>
<path d="M49.8569 223.067L51.3551 233.042L103.317 203.042L101.818 193.067L49.8569 223.067Z" fill="#8BC5E4"/>
<path d="M51.3555 233.042L43.3794 226.817L95.3409 196.817L103.317 203.042L51.3555 233.042Z" fill="#8BC5E4"/>
<path d="M43.3794 226.817L45.5445 225.557L97.506 195.557L95.3409 196.817L43.3794 226.817Z" fill="#8BC5E4"/>
<path d="M45.5441 225.557L40.5298 216.932L92.4913 186.932L97.5056 195.557L45.5441 225.557Z" fill="#8BC5E4"/>
<path d="M36.832 216.567V224.677L88.7935 194.677V186.567L36.832 216.567Z" fill="#8BC5E4"/>
<path d="M36.832 224.677L39.8977 226.447L91.8592 196.447L88.7935 194.677L36.832 224.677Z" fill="#8BC5E4"/>
<path d="M39.898 226.447L35.334 231.462L87.2956 201.462L91.8595 196.447L39.898 226.447Z" fill="#8BC5E4"/>
<path d="M35.334 231.462L30.7095 221.142L82.671 191.142L87.2956 201.462L35.334 231.462Z" fill="#8BC5E4"/>
<path d="M30.7095 221.142L33.7838 222.917L85.7454 192.917L82.671 191.142L30.7095 221.142Z" fill="#8BC5E4"/>
<path d="M33.7837 222.917V214.797L85.7453 184.797V192.917L33.7837 222.917Z" fill="#8BC5E4"/>
<path d="M30.0513 210.872L25.063 213.732L77.0245 183.732L82.0128 180.872L30.0513 210.872Z" fill="#8BC5E4"/>
<path d="M25.063 213.732L27.2454 217.482L79.2069 187.482L77.0245 183.732L25.063 213.732Z" fill="#8BC5E4"/>
<path d="M27.2452 217.482L19.3037 214.597L71.2652 184.597L79.2067 187.482L27.2452 217.482Z" fill="#8BC5E4"/>
<path d="M19.3037 214.597L20.7413 206.267L72.7028 176.267L71.2652 184.597L19.3037 214.597Z" fill="#8BC5E4"/>
<path d="M20.7412 206.267L22.9063 210.007L74.8678 180.007L72.7027 176.267L20.7412 206.267Z" fill="#8BC5E4"/>
<path d="M22.9062 210.007L27.9118 207.147L79.8733 177.147L74.8677 180.007L22.9062 210.007Z" fill="#8BC5E4"/>
<path d="M26.3792 202.032L19.3125 197.952L71.274 167.952L78.3408 172.032L26.3792 202.032Z" fill="#8BC5E4"/>
<path d="M19.3125 197.952V201.472L71.274 171.472V167.952L19.3125 197.952Z" fill="#8BC5E4"/>
<path d="M19.3122 201.472L12.6611 192.332L64.6226 162.332L71.2737 171.472L19.3122 201.472Z" fill="#8BC5E4"/>
<path d="M12.6611 192.332L19.3122 190.912L71.2737 160.912L64.6226 162.332L12.6611 192.332Z" fill="#8BC5E4"/>
<path d="M19.3125 190.912V194.452L71.274 164.452V160.912L19.3125 190.912Z" fill="#8BC5E4"/>
<path d="M19.3125 194.452L26.3879 198.537L78.3494 168.537L71.274 164.452L19.3125 194.452Z" fill="#8BC5E4"/>
<path d="M27.8859 195.192L22.8716 186.567L74.8332 156.567L79.8474 165.192L27.8859 195.192Z" fill="#8BC5E4"/>
<path d="M22.8717 186.567L20.7153 187.832L72.6769 157.832L74.8333 156.567L22.8717 186.567Z" fill="#8BC5E4"/>
<path d="M20.7154 187.832L19.2432 177.812L71.2047 147.812L72.677 157.832L20.7154 187.832Z" fill="#8BC5E4"/>
<path d="M19.2432 177.812L27.1846 184.067L79.1462 154.067L71.2047 147.812L19.2432 177.812Z" fill="#8BC5E4"/>
<path d="M27.1845 184.067L25.0195 185.317L76.981 155.317L79.1461 154.067L27.1845 184.067Z" fill="#8BC5E4"/>
<path d="M25.0195 185.317L30.0338 193.952L81.9953 163.952L76.981 155.317L25.0195 185.317Z" fill="#8BC5E4"/>
<path d="M33.7837 194.297V186.187L85.7453 156.187V164.297L33.7837 194.297Z" fill="#8BC5E4"/>
<path d="M33.7838 186.187L30.7095 184.412L82.671 154.412L85.7454 156.187L33.7838 186.187Z" fill="#8BC5E4"/>
<path d="M30.7095 184.412L82.671 154.412L30.7095 184.412Z" fill="#8BC5E4"/>
<path d="M129.817 128.402V117.792L181.779 87.7922V98.4022L129.817 128.402Z" fill="#8BC5E4"/>
<path d="M129.817 117.792L156.162 150.972L208.123 120.972L181.779 87.7922L129.817 117.792Z" fill="#8BC5E4"/>
<path d="M156.162 150.972L129.817 153.452L181.779 123.452L208.123 120.972L156.162 150.972Z" fill="#8BC5E4"/>
<path d="M129.817 153.452V141.832L181.779 111.832V123.452L129.817 153.452Z" fill="#8BC5E4"/>
<path d="M129.817 141.832L98.874 123.967L150.836 93.9673L181.779 111.832L129.817 141.832Z" fill="#8BC5E4"/>
<path d="M98.874 123.967V110.537L150.836 80.5374V93.9674L98.874 123.967Z" fill="#8BC5E4"/>
<path d="M98.874 110.537L129.817 128.402L181.779 98.4024L150.836 80.5374L98.874 110.537Z" fill="#8BC5E4"/>
<path d="M129.817 128.402L181.779 98.4023L129.817 128.402Z" fill="#8BC5E4"/>
<path d="M35.8013 108.402L62.1544 105.657L114.116 75.6572L87.7628 78.4022L35.8013 108.402Z" fill="#8BC5E4"/>
<path d="M62.1548 105.657V116.267L114.116 86.2672V75.6572L62.1548 105.657Z" fill="#8BC5E4"/>
<path d="M62.1548 116.267L93.0979 134.132L145.059 104.132L114.116 86.2673L62.1548 116.267Z" fill="#8BC5E4"/>
<path d="M93.0977 134.132V147.562L145.059 117.562V104.132L93.0977 134.132Z" fill="#8BC5E4"/>
<path d="M93.0979 147.562L62.1548 129.697L114.116 99.6973L145.059 117.562L93.0979 147.562Z" fill="#8BC5E4"/>
<path d="M62.1548 129.697V141.317L114.116 111.317V99.6973L62.1548 129.697Z" fill="#8BC5E4"/>
<path d="M62.1544 141.317L35.8013 108.402L87.7628 78.4023L114.116 111.317L62.1544 141.317Z" fill="#8BC5E4"/>
<path d="M35.8013 108.402L87.7628 78.4023L35.8013 108.402Z" fill="#8BC5E4"/>
<path d="M112.601 171.052V160.442L164.562 130.442V141.052L112.601 171.052Z" fill="#8BC5E4"/>
<path d="M112.601 160.442L138.945 193.612L190.907 163.612L164.562 130.442L112.601 160.442Z" fill="#8BC5E4"/>
<path d="M138.945 193.612L112.601 196.102L164.562 166.102L190.907 163.612L138.945 193.612Z" fill="#8BC5E4"/>
<path d="M112.601 196.102V184.482L164.562 154.482V166.102L112.601 196.102Z" fill="#8BC5E4"/>
<path d="M112.601 184.482L81.6577 166.617L133.619 136.617L164.562 154.482L112.601 184.482Z" fill="#8BC5E4"/>
<path d="M81.6577 166.617V153.187L133.619 123.187V136.617L81.6577 166.617Z" fill="#8BC5E4"/>
<path d="M81.6577 153.187L112.601 171.052L164.562 141.052L133.619 123.187L81.6577 153.187Z" fill="#8BC5E4"/>
<path d="M112.601 171.052L164.562 141.052L112.601 171.052Z" fill="#8BC5E4"/>
<path d="M18.0913 150.697L44.4358 147.937L96.3973 117.937L70.0528 120.697L18.0913 150.697Z" fill="#8BC5E4"/>
<path d="M44.436 147.937V158.547L96.3975 128.547V117.937L44.436 147.937Z" fill="#8BC5E4"/>
<path d="M44.436 158.547L75.3791 176.412L127.341 146.412L96.3975 128.547L44.436 158.547Z" fill="#8BC5E4"/>
<path d="M75.3789 176.412V189.852L127.34 159.852V146.412L75.3789 176.412Z" fill="#8BC5E4"/>
<path d="M75.3791 189.852L44.436 171.987L96.3975 141.987L127.341 159.852L75.3791 189.852Z" fill="#8BC5E4"/>
<path d="M44.436 171.987V183.607L96.3975 153.607V141.987L44.436 171.987Z" fill="#8BC5E4"/>
<path d="M44.4358 183.607L18.0913 150.697L70.0528 120.697L96.3973 153.607L44.4358 183.607Z" fill="#8BC5E4"/>
<path d="M18.0913 150.697L70.0528 120.697L18.0913 150.697Z" fill="#8BC5E4"/>
<path d="M129.826 232.347L134.32 230.002L186.282 200.002L181.787 202.347L129.826 232.347Z" fill="#8BC5E4"/>
<path d="M134.32 230.002L138.642 237.437L190.603 207.437L186.282 200.002L134.32 230.002Z" fill="#8BC5E4"/>
<path d="M138.642 237.437L135.689 235.732L187.65 205.732L190.604 207.437L138.642 237.437Z" fill="#8BC5E4"/>
<path d="M135.689 235.732V246.012L187.65 216.012V205.732L135.689 235.732Z" fill="#8BC5E4"/>
<path d="M144.895 262.217L153.875 267.402L205.837 237.402L196.856 232.217L144.895 262.217Z" fill="#8BC5E4"/>
<path d="M153.875 267.402V263.752L205.837 233.752V237.402L153.875 267.402Z" fill="#8BC5E4"/>
<path d="M153.875 263.752L158.188 271.412L210.15 241.412L205.837 233.752L153.875 263.752Z" fill="#8BC5E4"/>
<path d="M158.188 271.412L153.875 273.882L205.837 243.882L210.15 241.412L158.188 271.412Z" fill="#8BC5E4"/>
<path d="M153.875 273.882V270.482L205.837 240.482V243.882L153.875 273.882Z" fill="#8BC5E4"/>
<path d="M153.875 270.482L145.103 265.417L197.064 235.417L205.837 240.482L153.875 270.482Z" fill="#8BC5E4"/>
<path d="M135.689 270.612V280.902L187.65 250.902V240.612L135.689 270.612Z" fill="#8BC5E4"/>
<path d="M135.689 280.902L138.642 282.607L190.604 252.607L187.65 250.902L135.689 280.902Z" fill="#8BC5E4"/>
<path d="M138.642 282.607L134.32 285.052L186.282 255.052L190.603 252.607L138.642 282.607Z" fill="#8BC5E4"/>
<path d="M134.32 285.052L129.826 277.517L181.787 247.517L186.282 255.052L134.32 285.052Z" fill="#8BC5E4"/>
<path d="M129.826 277.517L133.004 279.352L184.965 249.352L181.787 247.517L129.826 277.517Z" fill="#8BC5E4"/>
<path d="M133.004 279.352V268.832L184.966 238.832V249.352L133.004 279.352Z" fill="#8BC5E4"/>
<path d="M123.374 252.872L114.584 247.797L166.545 217.797L175.336 222.872L123.374 252.872Z" fill="#8BC5E4"/>
<path d="M114.584 247.797V251.197L166.545 221.197V217.797L114.584 247.797Z" fill="#8BC5E4"/>
<path d="M114.584 251.197L110.288 243.757L162.25 213.757L166.545 221.197L114.584 251.197Z" fill="#8BC5E4"/>
<path d="M110.288 243.757L114.584 241.067L166.545 211.067L162.25 213.757L110.288 243.757Z" fill="#8BC5E4"/>
<path d="M114.584 241.067V244.717L166.545 214.717V211.067L114.584 241.067Z" fill="#8BC5E4"/>
<path d="M114.584 244.717L123.573 249.907L175.535 219.907L166.545 214.717L114.584 244.717Z" fill="#8BC5E4"/>
<path d="M133.004 244.692V234.182L184.966 204.182V214.692L133.004 244.692Z" fill="#8BC5E4"/>
<path d="M133.004 234.182L129.826 232.347L181.787 202.347L184.965 204.182L133.004 234.182Z" fill="#8BC5E4"/>
<path d="M129.826 232.347L181.787 202.347L129.826 232.347Z" fill="#8BC5E4"/>
<path d="M142.574 264.947L194.535 234.947L142.574 264.947Z" fill="#8BC5E4"/>
<path d="M151.745 247.282L203.707 217.282L151.745 247.282Z" fill="#8BC5E4"/>
<path d="M125.886 255.322L177.847 225.322L125.886 255.322Z" fill="#8BC5E4"/>
<path d="M116.714 227.057L168.676 197.057L116.714 227.057Z" fill="#8BC5E4"/>
<path d="M33.7835 194.297C32.4325 193.787 31.1508 193.667 30.0337 193.952L81.9952 163.952C83.1124 163.667 84.3941 163.787 85.7451 164.297L33.7835 194.297Z" fill="#8BC5E4"/>
<path d="M27.8859 195.192C27.1238 196.012 26.6129 197.147 26.3877 198.537L78.3492 168.537C78.5744 167.147 79.0853 166.012 79.8474 165.192L27.8859 195.192Z" fill="#8BC5E4"/>
<path d="M26.3789 202.032C26.6128 203.687 27.1324 205.437 27.9118 207.147L79.8733 177.147C79.0939 175.437 78.5743 173.687 78.3405 172.032L26.3789 202.032Z" fill="#8BC5E4"/>
<path d="M30.0513 210.872C31.1685 212.427 32.4415 213.762 33.7838 214.797L85.7454 184.797C84.403 183.762 83.13 182.427 82.0128 180.872L30.0513 210.872Z" fill="#8BC5E4"/>
<path d="M36.832 216.567C38.1656 217.077 39.43 217.197 40.5299 216.932L92.4914 186.932C91.3916 187.197 90.1272 187.077 88.7935 186.567L36.832 216.567Z" fill="#8BC5E4"/>
<path d="M42.6865 215.697C43.4659 214.877 43.9942 213.732 44.2194 212.332L96.1809 182.332C95.9557 183.732 95.4274 184.877 94.648 185.697L42.6865 215.697Z" fill="#8BC5E4"/>
<path d="M44.2277 208.837C43.9939 207.152 43.457 205.382 42.6602 203.642L94.6217 173.642C95.4185 175.382 95.9554 177.152 96.1892 178.837L44.2277 208.837Z" fill="#8BC5E4"/>
<path d="M40.5039 199.927C39.4041 198.412 38.1483 197.087 36.832 196.067L88.7935 166.067C90.1098 167.087 91.3656 168.412 92.4654 169.927L40.5039 199.927Z" fill="#8BC5E4"/>
<path d="M133.004 244.692C129.939 239.902 127.02 235.707 124.457 232.347L176.418 202.347C178.982 205.707 181.9 209.902 184.966 214.692L133.004 244.692Z" fill="#8BC5E4"/>
<path d="M124.457 232.347C122.343 229.597 120.482 227.412 118.879 225.907L170.841 195.907C172.443 197.412 174.305 199.597 176.418 202.347L124.457 232.347Z" fill="#8BC5E4"/>
<path d="M118.879 225.907C118.083 225.157 117.346 224.562 116.636 224.182L168.598 194.182C169.308 194.562 170.044 195.157 170.841 195.907L118.879 225.907Z" fill="#8BC5E4"/>
<path d="M116.636 224.182C115.962 223.821 115.258 223.653 114.723 223.894L166.685 193.894C167.22 193.653 167.924 193.821 168.598 194.182L116.636 224.182Z" fill="#8BC5E4"/>
<path d="M114.73 223.89C114.694 223.906 114.659 223.924 114.625 223.943L166.586 193.943C166.62 193.924 166.656 193.906 166.692 193.89L114.73 223.89Z" fill="#8BC5E4"/>
<path d="M114.619 223.947C114.584 223.967 114.551 223.989 114.519 224.012L166.481 194.012C166.513 193.989 166.546 193.967 166.58 193.947L114.619 223.947Z" fill="#8BC5E4"/>
<path d="M114.519 224.012C114.041 224.358 113.857 225.053 113.839 225.827L165.8 195.827C165.818 195.053 166.002 194.358 166.48 194.012L114.519 224.012Z" fill="#8BC5E4"/>
<path d="M113.839 225.837C113.831 226.652 113.987 227.582 114.246 228.642L166.208 198.642C165.948 197.582 165.792 196.652 165.801 195.837L113.839 225.837Z" fill="#8BC5E4"/>
<path d="M114.246 228.642C114.774 230.777 115.762 233.467 117.139 236.672L169.1 206.672C167.723 203.467 166.736 200.777 166.208 198.642L114.246 228.642Z" fill="#8BC5E4"/>
<path d="M117.139 236.672C118.775 240.477 120.958 244.997 123.573 249.907L175.535 219.907C172.919 214.997 170.737 210.477 169.1 206.672L117.139 236.672Z" fill="#8BC5E4"/>
<path d="M123.374 252.872C123.236 252.973 123.1 253.075 122.964 253.177L174.925 223.177C175.061 223.075 175.197 222.973 175.335 222.872L123.374 252.872Z" fill="#8BC5E4"/>
<path d="M122.964 253.177C120.626 254.936 118.648 256.76 117.135 258.522L169.096 228.522C170.609 226.76 172.587 224.936 174.925 223.177L122.964 253.177Z" fill="#8BC5E4"/>
<path d="M117.13 258.527C115.762 260.147 114.774 261.697 114.246 263.222L166.208 233.222C166.736 231.697 167.723 230.147 169.091 228.527L117.13 258.527Z" fill="#8BC5E4"/>
<path d="M114.246 263.222C113.987 263.982 113.831 264.732 113.839 265.567L165.801 235.567C165.792 234.732 165.948 233.982 166.208 233.222L114.246 263.222Z" fill="#8BC5E4"/>
<path d="M113.839 265.567C113.856 266.397 114.064 267.397 114.61 268.342L166.571 238.342C166.026 237.397 165.818 236.397 165.8 235.567L113.839 265.567Z" fill="#8BC5E4"/>
<path d="M114.61 268.342C115.164 269.302 115.918 269.997 116.636 270.442L168.598 240.442C167.879 239.997 167.126 239.302 166.571 238.342L114.61 268.342Z" fill="#8BC5E4"/>
<path d="M116.636 270.442C117.346 270.882 118.083 271.137 118.879 271.307L170.841 241.307C170.044 241.137 169.308 240.882 168.598 240.442L116.636 270.442Z" fill="#8BC5E4"/>
<path d="M118.879 271.307C120.482 271.652 122.343 271.617 124.448 271.302L176.409 241.302C174.305 241.617 172.443 241.652 170.841 241.307L118.879 271.307Z" fill="#8BC5E4"/>
<path d="M124.448 271.302C126.879 270.938 129.62 270.163 132.503 269.032L184.464 239.032C181.581 240.163 178.84 240.938 176.409 241.302L124.448 271.302Z" fill="#8BC5E4"/>
<path d="M132.512 269.029C132.672 268.965 132.834 268.901 132.995 268.836L184.957 238.836C184.796 238.901 184.634 238.965 184.474 239.029L132.512 269.029Z" fill="#8BC5E4"/>
<path d="M135.689 270.612C138.668 275.242 141.509 279.332 144.011 282.597L195.973 252.597C193.47 249.332 190.63 245.242 187.65 240.612L135.689 270.612Z" fill="#8BC5E4"/>
<path d="M144.011 282.597C146.116 285.342 147.986 287.532 149.58 289.032L201.541 259.032C199.948 257.532 198.077 255.342 195.973 252.597L144.011 282.597Z" fill="#8BC5E4"/>
<path d="M149.58 289.032C150.377 289.782 151.113 290.377 151.832 290.762L203.793 260.762C203.074 260.377 202.338 259.782 201.542 259.032L149.58 289.032Z" fill="#8BC5E4"/>
<path d="M151.832 290.762C152.505 291.123 153.21 291.299 153.745 291.052L205.706 261.052C205.171 261.299 204.466 261.123 203.793 260.762L151.832 290.762Z" fill="#8BC5E4"/>
<path d="M153.738 291.055C153.774 291.039 153.809 291.021 153.843 291.001L205.804 261.001C205.77 261.021 205.735 261.039 205.699 261.055L153.738 291.055Z" fill="#8BC5E4"/>
<path d="M153.85 290.997C153.888 290.975 153.925 290.951 153.96 290.924L205.922 260.924C205.887 260.951 205.85 260.975 205.811 260.997L153.85 290.997Z" fill="#8BC5E4"/>
<path d="M153.959 290.924C154.422 290.577 154.611 289.876 154.62 289.122L206.581 259.122C206.572 259.876 206.383 260.577 205.92 260.924L153.959 290.924Z" fill="#8BC5E4"/>
<path d="M154.62 289.112C154.637 288.292 154.481 287.362 154.213 286.297L206.174 256.297C206.443 257.362 206.599 258.292 206.581 259.112L154.62 289.112Z" fill="#8BC5E4"/>
<path d="M154.213 286.297C153.685 284.162 152.697 281.472 151.329 278.272L203.291 248.272C204.659 251.472 205.646 254.162 206.175 256.297L154.213 286.297Z" fill="#8BC5E4"/>
<path d="M151.329 278.272C149.736 274.562 147.614 270.177 145.103 265.417L197.064 235.417C199.576 240.177 201.697 244.562 203.291 248.272L151.329 278.272Z" fill="#8BC5E4"/>
<path d="M144.895 262.217C145.037 262.113 145.179 262.009 145.319 261.905L197.28 231.905C197.14 232.009 196.998 232.113 196.856 232.217L144.895 262.217Z" fill="#8BC5E4"/>
<path d="M145.318 261.906C147.737 260.106 149.777 258.226 151.324 256.418L203.285 226.418C201.738 228.226 199.698 230.106 197.279 231.906L145.318 261.906Z" fill="#8BC5E4"/>
<path d="M151.329 256.412C152.697 254.792 153.685 253.242 154.213 251.717L206.175 221.717C205.646 223.242 204.659 224.792 203.291 226.412L151.329 256.412Z" fill="#8BC5E4"/>
<path d="M154.213 251.717C154.481 250.962 154.637 250.212 154.62 249.382L206.581 219.382C206.599 220.212 206.443 220.962 206.174 221.717L154.213 251.717Z" fill="#8BC5E4"/>
<path d="M154.62 249.382C154.612 248.537 154.395 247.552 153.85 246.597L205.811 216.597C206.357 217.552 206.573 218.537 206.582 219.382L154.62 249.382Z" fill="#8BC5E4"/>
<path d="M153.849 246.597C153.304 245.652 152.55 244.947 151.832 244.502L203.793 214.502C204.512 214.947 205.265 215.652 205.811 216.597L153.849 246.597Z" fill="#8BC5E4"/>
<path d="M151.832 244.502C151.113 244.057 150.377 243.802 149.58 243.632L201.542 213.632C202.338 213.802 203.074 214.057 203.793 214.502L151.832 244.502Z" fill="#8BC5E4"/>
<path d="M149.58 243.632C147.986 243.292 146.116 243.322 144.011 243.637L195.973 213.637C198.077 213.322 199.948 213.292 201.541 213.632L149.58 243.632Z" fill="#8BC5E4"/>
<path d="M144.011 243.637C141.645 244.001 138.978 244.727 136.176 245.819L188.137 215.819C190.939 214.727 193.606 214.001 195.973 213.637L144.011 243.637Z" fill="#8BC5E4"/>
<path d="M136.168 245.822C136.011 245.883 135.855 245.945 135.698 246.008L187.66 216.008C187.817 215.945 187.973 215.883 188.13 215.822L136.168 245.822Z" fill="#8BC5E4"/>
<path d="M151.745 247.282C152.048 247.467 152.092 247.562 152.092 247.562L204.053 217.562C204.053 217.562 204.01 217.467 203.707 217.282L151.745 247.282Z" fill="#8BC5E4"/>
<path d="M152.091 247.562C152.1 247.577 152.161 247.662 152.169 248.017L204.131 218.017C204.122 217.662 204.062 217.577 204.053 217.562L152.091 247.562Z" fill="#8BC5E4"/>
<path d="M152.169 248.017C152.178 248.362 152.091 248.892 151.883 249.482L203.845 219.482C204.053 218.892 204.139 218.362 204.131 218.017L152.169 248.017Z" fill="#8BC5E4"/>
<path d="M151.884 249.482C151.468 250.672 150.567 252.132 149.277 253.677L201.238 223.677C202.529 222.132 203.429 220.672 203.845 219.482L151.884 249.482Z" fill="#8BC5E4"/>
<path d="M149.277 253.677C147.71 255.5 145.576 257.436 143.014 259.31L194.976 229.31C197.538 227.436 199.672 225.5 201.238 223.677L149.277 253.677Z" fill="#8BC5E4"/>
<path d="M143.021 259.304C142.879 259.408 142.735 259.512 142.59 259.616L194.551 229.616C194.696 229.512 194.84 229.408 194.982 229.304L143.021 259.304Z" fill="#8BC5E4"/>
<path d="M142.583 259.622C141.777 255.847 139.543 251.957 136.676 249.332L188.638 219.332C191.504 221.957 193.739 225.847 194.544 229.622L142.583 259.622Z" fill="#8BC5E4"/>
<path d="M136.676 249.332C136.842 249.264 137.007 249.197 137.172 249.131L189.134 219.131C188.969 219.197 188.804 219.264 188.638 219.332L136.676 249.332Z" fill="#8BC5E4"/>
<path d="M137.172 249.131C140.132 247.947 142.924 247.152 145.328 246.787L197.289 216.787C194.885 217.152 192.093 217.947 189.133 219.131L137.172 249.131Z" fill="#8BC5E4"/>
<path d="M145.328 246.787C147.328 246.482 149.069 246.487 150.325 246.762L202.286 216.762C201.03 216.487 199.29 216.482 197.289 216.787L145.328 246.787Z" fill="#8BC5E4"/>
<path d="M150.325 246.762C150.948 246.892 151.451 247.102 151.745 247.282L203.707 217.282C203.412 217.102 202.91 216.892 202.286 216.762L150.325 246.762Z" fill="#8BC5E4"/>
<path d="M116.714 227.057C117.018 227.222 117.52 227.592 118.152 228.187L170.114 198.187C169.481 197.592 168.979 197.222 168.676 197.057L116.714 227.057Z" fill="#8BC5E4"/>
<path d="M118.152 228.187C119.399 229.357 121.14 231.362 123.14 233.977L175.102 203.977C173.101 201.362 171.36 199.357 170.113 198.187L118.152 228.187Z" fill="#8BC5E4"/>
<path d="M123.14 233.977C125.678 237.292 128.648 241.587 131.792 246.512L183.753 216.512C180.61 211.587 177.639 207.292 175.102 203.977L123.14 233.977Z" fill="#8BC5E4"/>
<path d="M131.792 246.512C130.354 246.172 129.079 246.331 128.064 246.931L180.025 216.931C181.04 216.331 182.315 216.172 183.753 216.512L131.792 246.512Z" fill="#8BC5E4"/>
<path d="M128.066 246.929C127.051 247.527 126.296 248.567 125.896 249.989L177.857 219.989C178.257 218.567 179.012 217.527 180.027 216.929L128.066 246.929Z" fill="#8BC5E4"/>
<path d="M125.894 249.997C123.14 244.847 120.845 240.142 119.191 236.307L171.152 206.307C172.807 210.142 175.102 214.847 177.855 219.997L125.894 249.997Z" fill="#8BC5E4"/>
<path d="M119.191 236.307C117.892 233.267 117 230.772 116.576 229.097L168.537 199.097C168.962 200.772 169.854 203.267 171.153 206.307L119.191 236.307Z" fill="#8BC5E4"/>
<path d="M116.576 229.097C116.368 228.267 116.298 227.647 116.298 227.307L168.26 197.307C168.26 197.647 168.329 198.267 168.537 199.097L116.576 229.097Z" fill="#8BC5E4"/>
<path d="M116.298 227.307C116.307 226.962 116.359 226.942 116.368 226.937L168.329 196.937C168.321 196.942 168.269 196.962 168.26 197.307L116.298 227.307Z" fill="#8BC5E4"/>
<path d="M116.368 226.937C116.368 226.937 116.42 226.897 116.714 227.057L168.676 197.057C168.381 196.897 168.329 196.937 168.329 196.937L116.368 226.937Z" fill="#8BC5E4"/>
<path d="M142.574 264.947C145.336 270.102 147.623 274.802 149.277 278.647L201.238 248.647C199.584 244.802 197.298 240.102 194.535 234.947L142.574 264.947Z" fill="#8BC5E4"/>
<path d="M149.277 278.647C150.567 281.672 151.468 284.172 151.884 285.842L203.845 255.842C203.429 254.172 202.529 251.672 201.238 248.647L149.277 278.647Z" fill="#8BC5E4"/>
<path d="M151.883 285.842C152.091 286.682 152.178 287.302 152.169 287.637L204.131 257.637C204.139 257.302 204.053 256.682 203.845 255.842L151.883 285.842Z" fill="#8BC5E4"/>
<path d="M152.169 287.637C152.161 287.982 152.1 287.997 152.1 288.007L204.062 258.007C204.062 257.997 204.122 257.982 204.131 257.637L152.169 287.637Z" fill="#8BC5E4"/>
<path d="M152.1 288.007C152.092 288.002 152.048 288.047 151.745 287.882L203.707 257.882C204.01 258.047 204.053 258.002 204.062 258.007L152.1 288.007Z" fill="#8BC5E4"/>
<path d="M151.745 287.882C151.451 287.732 150.948 287.352 150.325 286.762L202.286 256.762C202.91 257.352 203.412 257.732 203.707 257.882L151.745 287.882Z" fill="#8BC5E4"/>
<path d="M150.325 286.762C149.069 285.587 147.328 283.582 145.328 280.967L197.289 250.967C199.29 253.582 201.03 255.587 202.286 256.762L150.325 286.762Z" fill="#8BC5E4"/>
<path d="M145.328 280.967C142.79 277.652 139.82 273.367 136.676 268.432L188.638 238.432C191.781 243.367 194.752 247.652 197.289 250.967L145.328 280.967Z" fill="#8BC5E4"/>
<path d="M136.676 268.432C138.081 268.763 139.333 268.616 140.338 268.044L192.3 238.044C191.295 238.616 190.043 238.763 188.638 238.432L136.676 268.432Z" fill="#8BC5E4"/>
<path d="M140.335 268.046C141.38 267.453 142.16 266.403 142.571 264.955L194.532 234.955C194.121 236.403 193.341 237.453 192.296 238.046L140.335 268.046Z" fill="#8BC5E4"/>
<path d="M125.886 255.322C126.691 259.097 128.917 262.982 131.792 265.612L183.754 235.612C180.878 232.982 178.653 229.097 177.847 225.322L125.886 255.322Z" fill="#8BC5E4"/>
<path d="M131.792 265.612C131.626 265.681 131.461 265.748 131.296 265.815L183.257 235.815C183.422 235.748 183.587 235.681 183.753 235.612L131.792 265.612Z" fill="#8BC5E4"/>
<path d="M131.296 265.815C128.339 267.005 125.549 267.79 123.148 268.156L175.109 238.156C177.51 237.79 180.3 237.005 183.257 235.815L131.296 265.815Z" fill="#8BC5E4"/>
<path d="M123.14 268.157C121.14 268.462 119.399 268.457 118.152 268.187L170.113 238.187C171.36 238.457 173.101 238.462 175.102 238.157L123.14 268.157Z" fill="#8BC5E4"/>
<path d="M118.152 268.187C117.52 268.052 117.018 267.852 116.714 267.657L168.676 237.657C168.979 237.852 169.481 238.052 170.114 238.187L118.152 268.187Z" fill="#8BC5E4"/>
<path d="M116.714 267.657C116.42 267.477 116.368 267.377 116.368 267.377L168.329 237.377C168.329 237.377 168.381 237.477 168.676 237.657L116.714 267.657Z" fill="#8BC5E4"/>
<path d="M116.368 267.377C116.359 267.362 116.307 267.282 116.298 266.927L168.26 236.927C168.269 237.282 168.321 237.362 168.329 237.377L116.368 267.377Z" fill="#8BC5E4"/>
<path d="M116.298 266.927C116.298 266.587 116.368 266.057 116.576 265.457L168.537 235.457C168.329 236.057 168.26 236.587 168.26 236.927L116.298 266.927Z" fill="#8BC5E4"/>
<path d="M116.576 265.457C117 264.272 117.892 262.797 119.191 261.277L171.153 231.277C169.854 232.797 168.962 234.272 168.537 235.457L116.576 265.457Z" fill="#8BC5E4"/>
<path d="M119.191 261.277C120.758 259.444 122.884 257.503 125.452 255.634L177.413 225.634C174.845 227.503 172.719 229.444 171.152 231.277L119.191 261.277Z" fill="#8BC5E4"/>
<path d="M125.445 255.639C125.587 255.535 125.732 255.432 125.877 255.328L177.838 225.328C177.693 225.432 177.548 225.535 177.406 225.639L125.445 255.639Z" fill="#8BC5E4"/>
<path d="M162.579 124.687C165.853 126.577 168.408 130.992 168.408 134.762L220.369 104.762C220.369 100.992 217.814 96.5773 214.541 94.6873L162.579 124.687Z" fill="#8BC5E4"/>
<path d="M168.407 310.322C168.407 312.207 167.769 313.516 166.721 314.117L218.683 284.117C219.731 283.516 220.369 282.207 220.369 280.322L168.407 310.322Z" fill="#8BC5E4"/>
<path d="M166.722 314.116C165.675 314.718 164.219 314.613 162.584 313.67L214.545 283.67C216.18 284.613 217.636 284.718 218.683 284.116L166.722 314.116Z" fill="#8BC5E4"/>
<path d="M10.6262 225.937C7.35265 224.047 4.79785 219.632 4.79785 215.862L56.7593 185.862C56.7593 189.632 59.3142 194.047 62.5878 195.937L10.6262 225.937Z" fill="#8BC5E4"/>
<path d="M4.79785 40.3023C4.79805 38.4173 5.43605 37.1083 6.48405 36.5073L58.4456 6.50732C57.3976 7.10832 56.7595 8.41732 56.7593 10.3023L4.79785 40.3023Z" fill="#8BC5E4"/>
<path d="M6.48291 36.5082C7.52991 35.9062 8.98591 36.0112 10.6209 36.9542L62.5824 6.95419C60.9474 6.01119 59.4914 5.90619 58.4444 6.50819L6.48291 36.5082Z" fill="#8BC5E4"/>
<path d="M10.6259 31.4471C7.70884 29.7631 5.05684 29.5991 3.13184 30.6941L55.0933 0.694141C57.0183 -0.400859 59.6703 -0.236859 62.5875 1.44714L10.6259 31.4471Z" fill="#8BC5E4"/>
<path d="M3.124 30.6992C1.198 31.7992 0.003 34.1612 0 37.5222L51.9615 7.52222C51.9645 4.16122 53.1595 1.79922 55.0855 0.699219L3.124 30.6992Z" fill="#8BC5E4"/>
<path d="M0 213.092C0 219.822 4.7805 228.072 10.6261 231.447L62.5877 201.447C56.742 198.072 51.9615 189.822 51.9615 183.092L0 213.092Z" fill="#8BC5E4"/>
<path d="M162.579 319.177C165.496 320.861 168.148 321.025 170.073 319.93L222.035 289.93C220.11 291.025 217.458 290.861 214.541 289.177L162.579 319.177Z" fill="#8BC5E4"/>
<path d="M170.081 319.925C172.007 318.826 173.202 316.463 173.205 313.102L225.167 283.102C225.164 286.463 223.969 288.826 222.043 289.925L170.081 319.925Z" fill="#8BC5E4"/>
<path d="M173.205 137.532C173.205 130.802 168.425 122.552 162.579 119.177L214.541 89.1772C220.386 92.5522 225.167 100.802 225.167 107.532L173.205 137.532Z" fill="#8BC5E4"/>
<path d="M162.579 124.687C165.853 126.577 168.408 130.992 168.408 134.762L220.369 104.762C220.369 100.992 217.814 96.5773 214.541 94.6873L162.579 124.687Z" fill="#8BC5E4"/>
<path d="M168.407 310.322C168.407 312.207 167.769 313.516 166.721 314.117L218.683 284.117C219.731 283.516 220.369 282.207 220.369 280.322L168.407 310.322Z" fill="#8BC5E4"/>
<path d="M166.722 314.116C165.675 314.718 164.219 314.613 162.584 313.67L214.545 283.67C216.18 284.613 217.636 284.718 218.683 284.116L166.722 314.116Z" fill="#8BC5E4"/>
<path d="M10.6262 225.937C7.35265 224.047 4.79785 219.632 4.79785 215.862L56.7593 185.862C56.7593 189.632 59.3142 194.047 62.5878 195.937L10.6262 225.937Z" fill="#8BC5E4"/>
<path d="M4.79785 40.3023C4.79805 38.4173 5.43605 37.1083 6.48405 36.5073L58.4456 6.50732C57.3976 7.10832 56.7595 8.41732 56.7593 10.3023L4.79785 40.3023Z" fill="#8BC5E4"/>
<path d="M6.48291 36.5082C7.52991 35.9062 8.98591 36.0112 10.6209 36.9542L62.5824 6.95419C60.9474 6.01119 59.4914 5.90619 58.4444 6.50819L6.48291 36.5082Z" fill="#8BC5E4"/>
<path d="M36.832 196.067C38.1483 197.087 39.4041 198.412 40.5039 199.927L92.4654 169.927C91.3656 168.412 90.1098 167.087 88.7935 166.067L36.832 196.067Z" fill="#8BC5E4"/>
<path d="M42.6602 203.642C43.457 205.382 43.9939 207.152 44.2277 208.837L96.1892 178.837C95.9554 177.152 95.4185 175.382 94.6217 173.642L42.6602 203.642Z" fill="#8BC5E4"/>
<path d="M44.2194 212.332C43.9942 213.732 43.4659 214.877 42.6865 215.697L94.648 185.697C95.4274 184.877 95.9557 183.732 96.1809 182.332L44.2194 212.332Z" fill="#8BC5E4"/>
<path d="M40.5299 216.932C39.43 217.197 38.1656 217.077 36.832 216.567L88.7935 186.567C90.1272 187.077 91.3916 187.197 92.4914 186.932L40.5299 216.932Z" fill="#8BC5E4"/>
<path d="M33.7838 214.797C32.4415 213.762 31.1685 212.427 30.0513 210.872L82.0128 180.872C83.13 182.427 84.403 183.762 85.7454 184.797L33.7838 214.797Z" fill="#8BC5E4"/>
<path d="M27.9118 207.147C27.1324 205.437 26.6128 203.687 26.3789 202.032L78.3405 172.032C78.5743 173.687 79.0939 175.437 79.8733 177.147L27.9118 207.147Z" fill="#8BC5E4"/>
<path d="M26.3877 198.537C26.6129 197.147 27.1238 196.012 27.8859 195.192L79.8474 165.192C79.0853 166.012 78.5744 167.147 78.3492 168.537L26.3877 198.537Z" fill="#8BC5E4"/>
<path d="M30.0337 193.952C31.1508 193.667 32.4325 193.787 33.7835 194.297L85.7451 164.297C84.3941 163.787 83.1124 163.667 81.9952 163.952L30.0337 193.952Z" fill="#8BC5E4"/>
<path d="M135.689 246.012C135.852 245.946 136.014 245.882 136.176 245.819L188.138 215.819C187.976 215.882 187.814 215.946 187.65 216.012L135.689 246.012Z" fill="#8BC5E4"/>
<path d="M136.176 245.819C138.974 244.728 141.64 244.003 144.004 243.638L195.965 213.638C193.601 214.003 190.935 214.728 188.137 215.819L136.176 245.819Z" fill="#8BC5E4"/>
<path d="M144.011 243.637C146.116 243.322 147.986 243.292 149.58 243.632L201.541 213.632C199.948 213.292 198.077 213.322 195.973 213.637L144.011 243.637Z" fill="#8BC5E4"/>
<path d="M149.58 243.632C150.377 243.802 151.113 244.057 151.832 244.502L203.793 214.502C203.074 214.057 202.338 213.802 201.542 213.632L149.58 243.632Z" fill="#8BC5E4"/>
<path d="M151.832 244.502C152.55 244.947 153.304 245.652 153.849 246.597L205.811 216.597C205.265 215.652 204.512 214.947 203.793 214.502L151.832 244.502Z" fill="#8BC5E4"/>
<path d="M153.85 246.597C154.395 247.552 154.612 248.537 154.62 249.382L206.582 219.382C206.573 218.537 206.357 217.552 205.811 216.597L153.85 246.597Z" fill="#8BC5E4"/>
<path d="M154.62 249.382C154.637 250.212 154.481 250.962 154.213 251.717L206.174 221.717C206.443 220.962 206.599 220.212 206.581 219.382L154.62 249.382Z" fill="#8BC5E4"/>
<path d="M154.213 251.717C153.685 253.242 152.697 254.792 151.329 256.412L203.291 226.412C204.659 224.792 205.646 223.242 206.175 221.717L154.213 251.717Z" fill="#8BC5E4"/>
<path d="M151.329 256.412C149.782 258.222 147.739 260.104 145.319 261.905L197.28 231.905C199.7 230.104 201.743 228.222 203.291 226.412L151.329 256.412Z" fill="#8BC5E4"/>
<path d="M145.31 261.911C145.175 262.011 145.039 262.111 144.902 262.211L196.863 232.211C197 232.111 197.136 232.011 197.271 231.911L145.31 261.911Z" fill="#8BC5E4"/>
<path d="M145.103 265.417C147.614 270.177 149.736 274.562 151.329 278.272L203.291 248.272C201.697 244.562 199.576 240.177 197.064 235.417L145.103 265.417Z" fill="#8BC5E4"/>
<path d="M151.329 278.272C152.697 281.472 153.685 284.162 154.213 286.297L206.175 256.297C205.646 254.162 204.659 251.472 203.291 248.272L151.329 278.272Z" fill="#8BC5E4"/>
<path d="M154.213 286.297C154.481 287.362 154.637 288.292 154.62 289.112L206.581 259.112C206.599 258.292 206.443 257.362 206.174 256.297L154.213 286.297Z" fill="#8BC5E4"/>
<path d="M154.62 289.112C154.612 289.87 154.424 290.576 153.96 290.924L205.921 260.924C206.385 260.576 206.573 259.87 206.582 259.112L154.62 289.112Z" fill="#8BC5E4"/>
<path d="M153.954 290.929C153.922 290.952 153.89 290.973 153.856 290.993L205.817 260.993C205.851 260.973 205.883 260.952 205.915 260.929L153.954 290.929Z" fill="#8BC5E4"/>
<path d="M153.85 290.997C153.815 291.017 153.78 291.036 153.745 291.052L205.707 261.052C205.742 261.036 205.777 261.017 205.811 260.997L153.85 290.997Z" fill="#8BC5E4"/>
<path d="M153.745 291.052C153.212 291.299 152.511 291.124 151.84 290.766L203.801 260.766C204.472 261.124 205.173 261.299 205.706 261.052L153.745 291.052Z" fill="#8BC5E4"/>
<path d="M151.832 290.762C151.113 290.377 150.377 289.782 149.58 289.032L201.542 259.032C202.338 259.782 203.074 260.377 203.793 260.762L151.832 290.762Z" fill="#8BC5E4"/>
<path d="M149.58 289.032C147.986 287.532 146.116 285.342 144.011 282.597L195.973 252.597C198.077 255.342 199.948 257.532 201.541 259.032L149.58 289.032Z" fill="#8BC5E4"/>
<path d="M144.011 282.597C141.509 279.332 138.668 275.242 135.689 270.612L187.65 240.612C190.63 245.242 193.47 249.332 195.973 252.597L144.011 282.597Z" fill="#8BC5E4"/>
<path d="M133.004 268.832C132.837 268.9 132.669 268.966 132.503 269.032L184.464 239.032C184.63 238.966 184.798 238.9 184.966 238.832L133.004 268.832Z" fill="#8BC5E4"/>
<path d="M132.503 269.032C129.623 270.162 126.885 270.936 124.455 271.301L176.417 241.301C178.847 240.936 181.585 240.162 184.465 239.032L132.503 269.032Z" fill="#8BC5E4"/>
<path d="M124.448 271.302C122.343 271.617 120.482 271.652 118.879 271.307L170.841 241.307C172.443 241.652 174.305 241.617 176.409 241.302L124.448 271.302Z" fill="#8BC5E4"/>
<path d="M118.879 271.307C118.083 271.137 117.346 270.882 116.636 270.442L168.598 240.442C169.308 240.882 170.044 241.137 170.841 241.307L118.879 271.307Z" fill="#8BC5E4"/>
<path d="M116.636 270.442C115.918 269.997 115.164 269.302 114.61 268.342L166.571 238.342C167.126 239.302 167.879 239.997 168.598 240.442L116.636 270.442Z" fill="#8BC5E4"/>
<path d="M114.61 268.342C114.064 267.397 113.856 266.397 113.839 265.567L165.8 235.567C165.818 236.397 166.026 237.397 166.571 238.342L114.61 268.342Z" fill="#8BC5E4"/>
<path d="M113.839 265.567C113.831 264.732 113.987 263.982 114.246 263.222L166.208 233.222C165.948 233.982 165.792 234.732 165.801 235.567L113.839 265.567Z" fill="#8BC5E4"/>
<path d="M114.246 263.222C114.774 261.697 115.762 260.147 117.13 258.527L169.091 228.527C167.723 230.147 166.736 231.697 166.208 233.222L114.246 263.222Z" fill="#8BC5E4"/>
<path d="M117.13 258.527C118.644 256.764 120.623 254.938 122.964 253.177L174.925 223.177C172.584 224.938 170.605 226.764 169.091 228.527L117.13 258.527Z" fill="#8BC5E4"/>
<path d="M122.964 253.177C123.1 253.075 123.236 252.973 123.374 252.872L175.335 222.872C175.197 222.973 175.061 223.075 174.925 223.177L122.964 253.177Z" fill="#8BC5E4"/>
<path d="M123.573 249.907C120.958 244.997 118.775 240.477 117.139 236.672L169.1 206.672C170.737 210.477 172.919 214.997 175.535 219.907L123.573 249.907Z" fill="#8BC5E4"/>
<path d="M117.139 236.672C115.762 233.467 114.774 230.777 114.246 228.642L166.208 198.642C166.736 200.777 167.723 203.467 169.1 206.672L117.139 236.672Z" fill="#8BC5E4"/>
<path d="M114.246 228.642C113.987 227.582 113.831 226.652 113.839 225.837L165.801 195.837C165.792 196.652 165.948 197.582 166.208 198.642L114.246 228.642Z" fill="#8BC5E4"/>
<path d="M113.839 225.837C113.855 225.059 114.039 224.36 114.519 224.012L166.48 194.012C166 194.36 165.816 195.059 165.8 195.837L113.839 225.837Z" fill="#8BC5E4"/>
<path d="M114.513 224.016C114.545 223.993 114.578 223.971 114.612 223.951L166.574 193.951C166.54 193.971 166.507 193.993 166.475 194.016L114.513 224.016Z" fill="#8BC5E4"/>
<path d="M114.619 223.947C114.653 223.927 114.687 223.91 114.723 223.894L166.685 193.894C166.649 193.91 166.615 193.927 166.58 193.947L114.619 223.947Z" fill="#8BC5E4"/>
<path d="M114.723 223.894C115.256 223.654 115.957 223.82 116.628 224.177L168.59 194.177C167.919 193.82 167.218 193.654 166.685 193.894L114.723 223.894Z" fill="#8BC5E4"/>
<path d="M116.636 224.182C117.346 224.562 118.083 225.157 118.879 225.907L170.841 195.907C170.044 195.157 169.308 194.562 168.598 194.182L116.636 224.182Z" fill="#8BC5E4"/>
<path d="M118.879 225.907C120.482 227.412 122.343 229.597 124.457 232.347L176.418 202.347C174.305 199.597 172.443 197.412 170.841 195.907L118.879 225.907Z" fill="#8BC5E4"/>
<path d="M124.457 232.347C127.02 235.707 129.939 239.902 133.004 244.692L184.966 214.692C181.9 209.902 178.982 205.707 176.418 202.347L124.457 232.347Z" fill="#8BC5E4"/>
<path d="M142.574 264.947C145.336 270.102 147.623 274.802 149.277 278.647L201.238 248.647C199.584 244.802 197.298 240.102 194.535 234.947L142.574 264.947Z" fill="#8BC5E4"/>
<path d="M149.277 278.647C150.567 281.672 151.468 284.172 151.884 285.842L203.845 255.842C203.429 254.172 202.529 251.672 201.238 248.647L149.277 278.647Z" fill="#8BC5E4"/>
<path d="M151.883 285.842C152.091 286.682 152.178 287.302 152.169 287.637L204.131 257.637C204.139 257.302 204.053 256.682 203.845 255.842L151.883 285.842Z" fill="#8BC5E4"/>
<path d="M152.169 287.637C152.161 287.982 152.1 287.997 152.1 288.007L204.062 258.007C204.062 257.997 204.122 257.982 204.131 257.637L152.169 287.637Z" fill="#8BC5E4"/>
<path d="M152.1 288.007C152.092 288.002 152.048 288.047 151.745 287.882L203.707 257.882C204.01 258.047 204.053 258.002 204.062 258.007L152.1 288.007Z" fill="#8BC5E4"/>
<path d="M151.745 287.882C151.451 287.732 150.948 287.352 150.325 286.762L202.286 256.762C202.91 257.352 203.412 257.732 203.707 257.882L151.745 287.882Z" fill="#8BC5E4"/>
<path d="M150.325 286.762C149.069 285.587 147.328 283.582 145.328 280.967L197.289 250.967C199.29 253.582 201.03 255.587 202.286 256.762L150.325 286.762Z" fill="#8BC5E4"/>
<path d="M145.328 280.967C142.79 277.652 139.82 273.367 136.676 268.432L188.638 238.432C191.781 243.367 194.752 247.652 197.289 250.967L145.328 280.967Z" fill="#8BC5E4"/>
<path d="M136.676 268.432C138.081 268.763 139.333 268.616 140.338 268.044L192.3 238.044C191.295 238.616 190.043 238.763 188.638 238.432L136.676 268.432Z" fill="#8BC5E4"/>
<path d="M140.335 268.046C141.38 267.453 142.16 266.403 142.571 264.955L194.532 234.955C194.121 236.403 193.341 237.453 192.296 238.046L140.335 268.046Z" fill="#8BC5E4"/>
<path d="M151.745 247.282C152.048 247.467 152.092 247.562 152.092 247.562L204.053 217.562C204.053 217.562 204.01 217.467 203.707 217.282L151.745 247.282Z" fill="#8BC5E4"/>
<path d="M152.091 247.562C152.1 247.577 152.161 247.662 152.169 248.017L204.131 218.017C204.122 217.662 204.062 217.577 204.053 217.562L152.091 247.562Z" fill="#8BC5E4"/>
<path d="M152.169 248.017C152.178 248.362 152.091 248.892 151.883 249.482L203.845 219.482C204.053 218.892 204.139 218.362 204.131 218.017L152.169 248.017Z" fill="#8BC5E4"/>
<path d="M151.884 249.482C151.468 250.672 150.567 252.132 149.277 253.677L201.238 223.677C202.529 222.132 203.429 220.672 203.845 219.482L151.884 249.482Z" fill="#8BC5E4"/>
<path d="M149.277 253.677C147.71 255.5 145.576 257.436 143.014 259.31L194.976 229.31C197.538 227.436 199.672 225.5 201.238 223.677L149.277 253.677Z" fill="#8BC5E4"/>
<path d="M143.021 259.304C142.879 259.408 142.735 259.512 142.59 259.616L194.551 229.616C194.696 229.512 194.84 229.408 194.982 229.304L143.021 259.304Z" fill="#8BC5E4"/>
<path d="M142.583 259.622C141.777 255.847 139.543 251.957 136.676 249.332L188.638 219.332C191.504 221.957 193.739 225.847 194.544 229.622L142.583 259.622Z" fill="#8BC5E4"/>
<path d="M136.676 249.332C136.842 249.264 137.007 249.197 137.172 249.131L189.134 219.131C188.969 219.197 188.804 219.264 188.638 219.332L136.676 249.332Z" fill="#8BC5E4"/>
<path d="M137.172 249.131C140.132 247.947 142.924 247.152 145.328 246.787L197.289 216.787C194.885 217.152 192.093 217.947 189.133 219.131L137.172 249.131Z" fill="#8BC5E4"/>
<path d="M145.328 246.787C147.328 246.482 149.069 246.487 150.325 246.762L202.286 216.762C201.03 216.487 199.29 216.482 197.289 216.787L145.328 246.787Z" fill="#8BC5E4"/>
<path d="M150.325 246.762C150.948 246.892 151.451 247.102 151.745 247.282L203.707 217.282C203.412 217.102 202.91 216.892 202.286 216.762L150.325 246.762Z" fill="#8BC5E4"/>
<path d="M125.886 255.322C126.691 259.097 128.917 262.982 131.792 265.612L183.754 235.612C180.878 232.982 178.653 229.097 177.847 225.322L125.886 255.322Z" fill="#8BC5E4"/>
<path d="M131.792 265.612C131.626 265.681 131.461 265.748 131.296 265.815L183.257 235.815C183.422 235.748 183.587 235.681 183.753 235.612L131.792 265.612Z" fill="#8BC5E4"/>
<path d="M131.296 265.815C128.339 267.005 125.549 267.79 123.148 268.156L175.109 238.156C177.51 237.79 180.3 237.005 183.257 235.815L131.296 265.815Z" fill="#8BC5E4"/>
<path d="M123.14 268.157C121.14 268.462 119.399 268.457 118.152 268.187L170.113 238.187C171.36 238.457 173.101 238.462 175.102 238.157L123.14 268.157Z" fill="#8BC5E4"/>
<path d="M118.152 268.187C117.52 268.052 117.018 267.852 116.714 267.657L168.676 237.657C168.979 237.852 169.481 238.052 170.114 238.187L118.152 268.187Z" fill="#8BC5E4"/>
<path d="M116.714 267.657C116.42 267.477 116.368 267.377 116.368 267.377L168.329 237.377C168.329 237.377 168.381 237.477 168.676 237.657L116.714 267.657Z" fill="#8BC5E4"/>
<path d="M116.368 267.377C116.359 267.362 116.307 267.282 116.298 266.927L168.26 236.927C168.269 237.282 168.321 237.362 168.329 237.377L116.368 267.377Z" fill="#8BC5E4"/>
<path d="M116.298 266.927C116.298 266.587 116.368 266.057 116.576 265.457L168.537 235.457C168.329 236.057 168.26 236.587 168.26 236.927L116.298 266.927Z" fill="#8BC5E4"/>
<path d="M116.576 265.457C117 264.272 117.892 262.797 119.191 261.277L171.153 231.277C169.854 232.797 168.962 234.272 168.537 235.457L116.576 265.457Z" fill="#8BC5E4"/>
<path d="M119.191 261.277C120.758 259.444 122.884 257.503 125.452 255.634L177.413 225.634C174.845 227.503 172.719 229.444 171.152 231.277L119.191 261.277Z" fill="#8BC5E4"/>
<path d="M125.445 255.639C125.587 255.535 125.732 255.432 125.877 255.328L177.838 225.328C177.693 225.432 177.548 225.535 177.406 225.639L125.445 255.639Z" fill="#8BC5E4"/>
<path d="M116.714 227.057C117.018 227.222 117.52 227.592 118.152 228.187L170.114 198.187C169.481 197.592 168.979 197.222 168.676 197.057L116.714 227.057Z" fill="#8BC5E4"/>
<path d="M118.152 228.187C119.399 229.357 121.14 231.362 123.14 233.977L175.102 203.977C173.101 201.362 171.36 199.357 170.113 198.187L118.152 228.187Z" fill="#8BC5E4"/>
<path d="M123.14 233.977C125.678 237.292 128.648 241.587 131.792 246.512L183.753 216.512C180.61 211.587 177.639 207.292 175.102 203.977L123.14 233.977Z" fill="#8BC5E4"/>
<path d="M131.792 246.512C130.354 246.172 129.079 246.331 128.064 246.931L180.025 216.931C181.04 216.331 182.315 216.172 183.753 216.512L131.792 246.512Z" fill="#8BC5E4"/>
<path d="M128.066 246.929C127.051 247.527 126.296 248.567 125.896 249.989L177.857 219.989C178.257 218.567 179.012 217.527 180.027 216.929L128.066 246.929Z" fill="#8BC5E4"/>
<path d="M125.894 249.997C123.14 244.847 120.845 240.142 119.191 236.307L171.152 206.307C172.807 210.142 175.102 214.847 177.855 219.997L125.894 249.997Z" fill="#8BC5E4"/>
<path d="M119.191 236.307C117.892 233.267 117 230.772 116.576 229.097L168.537 199.097C168.962 200.772 169.854 203.267 171.153 206.307L119.191 236.307Z" fill="#8BC5E4"/>
<path d="M116.576 229.097C116.368 228.267 116.298 227.647 116.298 227.307L168.26 197.307C168.26 197.647 168.329 198.267 168.537 199.097L116.576 229.097Z" fill="#8BC5E4"/>
<path d="M116.298 227.307C116.307 226.962 116.359 226.942 116.368 226.937L168.329 196.937C168.321 196.942 168.269 196.962 168.26 197.307L116.298 227.307Z" fill="#8BC5E4"/>
<path d="M116.368 226.937C116.368 226.937 116.42 226.897 116.714 227.057L168.676 197.057C168.381 196.897 168.329 196.937 168.329 196.937L116.368 226.937Z" fill="#8BC5E4"/>
<path d="M35.3338 179.432L30.7093 184.412L33.7836 186.187V194.297C32.4326 193.787 31.1509 193.667 30.0338 193.952L25.0195 185.317L27.1845 184.067L19.2431 177.812L20.7153 187.832L22.8717 186.567L27.886 195.192C27.1239 196.012 26.613 197.147 26.3878 198.537L19.3124 194.452V190.912L12.6613 192.332L19.3124 201.472V197.952L26.3791 202.032C26.613 203.687 27.1326 205.437 27.912 207.147L22.9064 210.007L20.7413 206.267L19.3037 214.597L27.2452 217.482L25.0628 213.732L30.0511 210.872C31.1683 212.427 32.4413 213.762 33.7836 214.797V222.917L30.7093 221.142L35.3338 231.462L39.8978 226.447L36.8321 224.677V216.567C38.1657 217.077 39.4301 217.197 40.53 216.932L45.5443 225.557L43.3792 226.817L51.3553 233.042L49.8571 223.067L47.692 224.317L42.6864 215.697C43.4658 214.877 43.9941 213.732 44.2193 212.332L51.286 216.412V219.932L57.9371 218.472L51.286 209.372V212.912L44.2279 208.837C43.9941 207.152 43.4572 205.382 42.6604 203.642L47.6574 200.787L49.8224 204.527L51.3033 196.262L43.3272 193.317L45.501 197.062L40.504 199.927C39.4042 198.412 38.1484 197.087 36.8321 196.067V187.947L39.8978 189.717L35.3338 179.432ZM129.817 117.792V128.402L98.8741 110.537V123.967L129.817 141.832V153.452L156.162 150.972L129.817 117.792ZM62.1546 105.657L35.8015 108.402L62.1546 141.317V129.697L93.0977 147.562V134.132L62.1546 116.267V105.657ZM112.601 160.442V171.052L81.6575 153.187V166.617L112.601 184.482V196.102L138.945 193.612L112.601 160.442ZM44.4358 147.937L18.0913 150.697L44.4358 183.607V171.987L75.3789 189.852V176.412L44.4358 158.547V147.937ZM134.321 230.002L129.826 232.347L133.004 234.182V244.692C129.938 239.902 127.02 235.707 124.457 232.347C122.343 229.597 120.481 227.412 118.879 225.907C118.083 225.157 117.346 224.562 116.636 224.182C115.917 223.797 115.164 223.632 114.618 223.947C114.064 224.267 113.856 225.007 113.839 225.837C113.83 226.652 113.986 227.582 114.246 228.642C114.774 230.777 115.762 233.467 117.139 236.672C118.775 240.477 120.958 244.997 123.573 249.907L114.584 244.717V241.067L110.288 243.757L114.584 251.197V247.797L123.374 252.872C120.854 254.727 118.732 256.662 117.13 258.527C115.762 260.147 114.774 261.697 114.246 263.222C113.986 263.982 113.83 264.732 113.839 265.567C113.856 266.397 114.064 267.397 114.61 268.342C115.164 269.302 115.917 269.997 116.636 270.442C117.346 270.882 118.083 271.137 118.879 271.307C120.481 271.652 122.343 271.617 124.448 271.302C127.02 270.917 129.938 270.072 133.004 268.832V279.352L129.826 277.517L134.321 285.052L138.642 282.607L135.689 280.902V270.612C138.668 275.242 141.509 279.332 144.011 282.597C146.116 285.342 147.986 287.532 149.58 289.032C150.377 289.782 151.113 290.377 151.832 290.762C152.55 291.147 153.304 291.322 153.849 290.997C154.395 290.682 154.612 289.927 154.62 289.112C154.637 288.292 154.482 287.362 154.213 286.297C153.685 284.162 152.698 281.472 151.329 278.272C149.736 274.562 147.614 270.177 145.103 265.417L153.875 270.482V273.882L158.188 271.412L153.875 263.752V267.402L144.895 262.217C147.501 260.322 149.692 258.327 151.329 256.412C152.698 254.792 153.685 253.242 154.213 251.717C154.482 250.962 154.637 250.212 154.62 249.382C154.612 248.537 154.395 247.552 153.849 246.597C153.304 245.652 152.55 244.947 151.832 244.502C151.113 244.057 150.377 243.802 149.58 243.632C147.986 243.292 146.116 243.322 144.011 243.637C141.509 244.022 138.668 244.812 135.689 246.012V235.732L138.642 237.437L134.321 230.002ZM151.745 247.282C152.048 247.467 152.091 247.562 152.091 247.562C152.1 247.577 152.161 247.662 152.169 248.017C152.178 248.362 152.091 248.892 151.884 249.482C151.468 250.672 150.567 252.132 149.277 253.677C147.623 255.602 145.336 257.652 142.582 259.622C141.777 255.847 139.543 251.957 136.676 249.332C139.82 248.037 142.79 247.172 145.328 246.787C147.328 246.482 149.069 246.487 150.325 246.762C150.948 246.892 151.451 247.102 151.745 247.282ZM116.714 227.057C117.017 227.222 117.52 227.592 118.152 228.187C119.399 229.357 121.14 231.362 123.14 233.977C125.678 237.292 128.648 241.587 131.792 246.512C128.917 245.832 126.691 247.147 125.894 249.997C123.14 244.847 120.845 240.142 119.191 236.307C117.892 233.267 117 230.772 116.576 229.097C116.368 228.267 116.299 227.647 116.299 227.307C116.307 226.962 116.359 226.942 116.368 226.937C116.368 226.937 116.42 226.897 116.714 227.057ZM142.574 264.947C145.336 270.102 147.623 274.802 149.277 278.647C150.567 281.672 151.468 284.172 151.884 285.842C152.091 286.682 152.178 287.302 152.169 287.637C152.161 287.982 152.1 287.997 152.1 288.007C152.091 288.002 152.048 288.047 151.745 287.882C151.451 287.732 150.948 287.352 150.325 286.762C149.069 285.587 147.328 283.582 145.328 280.967C142.79 277.652 139.82 273.367 136.676 268.432C139.543 269.107 141.768 267.792 142.574 264.947ZM125.885 255.322C126.691 259.097 128.917 262.982 131.792 265.612C128.648 266.917 125.678 267.772 123.14 268.157C121.14 268.462 119.399 268.457 118.152 268.187C117.52 268.052 117.017 267.852 116.714 267.657C116.42 267.477 116.368 267.377 116.368 267.377C116.359 267.362 116.307 267.282 116.299 266.927C116.299 266.587 116.368 266.057 116.576 265.457C117 264.272 117.892 262.797 119.191 261.277C120.845 259.342 123.123 257.287 125.885 255.322ZM10.6261 36.9573L162.579 124.687C165.853 126.577 168.407 130.992 168.407 134.762V310.322C168.407 314.092 165.853 315.557 162.579 313.667L10.6261 225.937C7.35256 224.047 4.79778 219.632 4.79778 215.862V40.3023C4.79778 36.5323 7.35256 35.0673 10.6261 36.9573ZM10.6261 31.4473C4.78046 28.0723 0 30.8023 0 37.5323V213.092C0 219.822 4.78046 228.072 10.6261 231.447L162.579 319.177C168.425 322.552 173.205 319.822 173.205 313.092V137.532C173.205 130.802 168.425 122.552 162.579 119.177L10.6261 31.4473Z" fill="#8BC5E4"/>
<path fill-rule="evenodd" clip-rule="evenodd" d="M10.6261 36.9573L162.579 124.687C165.853 126.577 168.407 130.992 168.407 134.762V310.322C168.407 314.092 165.853 315.557 162.579 313.667L10.6261 225.937C7.35256 224.047 4.79778 219.632 4.79778 215.862V40.3023C4.79778 36.5323 7.35256 35.0673 10.6261 36.9573ZM30.7093 184.412L35.3338 179.432L39.8978 189.717L36.8321 187.947V196.067C38.1484 197.087 39.4042 198.412 40.504 199.927L45.501 197.062L43.3272 193.317L51.3033 196.262L49.8224 204.527L47.6574 200.787L42.6604 203.642C43.4572 205.382 43.9941 207.152 44.2279 208.837L51.286 212.912V209.372L57.9371 218.472L51.286 219.932V216.412L44.2193 212.332C43.9941 213.732 43.4658 214.877 42.6864 215.697L47.692 224.317L49.8571 223.067L51.3553 233.042L43.3792 226.817L45.5443 225.557L40.53 216.932C39.4301 217.197 38.1657 217.077 36.8321 216.567V224.677L39.8978 226.447L35.3338 231.462L30.7093 221.142L33.7836 222.917V214.797C32.4413 213.762 31.1683 212.427 30.0511 210.872L25.0628 213.732L27.2452 217.482L19.3037 214.597L20.7413 206.267L22.9064 210.007L27.912 207.147C27.1326 205.437 26.613 203.687 26.3791 202.032L19.3124 197.952V201.472L12.6613 192.332L19.3124 190.912V194.452L26.3878 198.537C26.613 197.147 27.1239 196.012 27.886 195.192L22.8717 186.567L20.7153 187.832L19.2431 177.812L27.1845 184.067L25.0195 185.317L30.0338 193.952C31.1509 193.667 32.4326 193.787 33.7836 194.297V186.187L30.7093 184.412ZM129.817 128.402V117.792L156.162 150.972L129.817 153.452V141.832L98.8741 123.967V110.537L129.817 128.402ZM35.8015 108.402L62.1546 105.657V116.267L93.0977 134.132V147.562L62.1546 129.697V141.317L35.8015 108.402ZM112.601 171.052V160.442L138.945 193.612L112.601 196.102V184.482L81.6575 166.617V153.187L112.601 171.052ZM18.0913 150.697L44.4358 147.937V158.547L75.3789 176.412V189.852L44.4358 171.987V183.607L18.0913 150.697ZM129.826 232.347L134.321 230.002L138.642 237.437L135.689 235.732V246.012C138.668 244.812 141.509 244.022 144.011 243.637C146.116 243.322 147.986 243.292 149.58 243.632C150.377 243.802 151.113 244.057 151.832 244.502C152.55 244.947 153.304 245.652 153.849 246.597C154.395 247.552 154.612 248.537 154.62 249.382C154.637 250.212 154.482 250.962 154.213 251.717C153.685 253.242 152.698 254.792 151.329 256.412C149.692 258.327 147.501 260.322 144.895 262.217L153.875 267.402V263.752L158.188 271.412L153.875 273.882V270.482L145.103 265.417C147.614 270.177 149.736 274.562 151.329 278.272C152.698 281.472 153.685 284.162 154.213 286.297C154.482 287.362 154.637 288.292 154.62 289.112C154.612 289.927 154.395 290.682 153.849 290.997C153.304 291.322 152.55 291.147 151.832 290.762C151.113 290.377 150.377 289.782 149.58 289.032C147.986 287.532 146.116 285.342 144.011 282.597C141.509 279.332 138.668 275.242 135.689 270.612V280.902L138.642 282.607L134.321 285.052L129.826 277.517L133.004 279.352V268.832C129.938 270.072 127.02 270.917 124.448 271.302C122.343 271.617 120.481 271.652 118.879 271.307C118.083 271.137 117.346 270.882 116.636 270.442C115.917 269.997 115.164 269.302 114.61 268.342C114.064 267.397 113.856 266.397 113.839 265.567C113.83 264.732 113.986 263.982 114.246 263.222C114.774 261.697 115.762 260.147 117.13 258.527C118.732 256.662 120.854 254.727 123.374 252.872L114.584 247.797V251.197L110.288 243.757L114.584 241.067V244.717L123.573 249.907C120.958 244.997 118.775 240.477 117.139 236.672C115.762 233.467 114.774 230.777 114.246 228.642C113.986 227.582 113.83 226.652 113.839 225.837C113.856 225.007 114.064 224.267 114.618 223.947C115.164 223.632 115.917 223.797 116.636 224.182C117.346 224.562 118.083 225.157 118.879 225.907C120.481 227.412 122.343 229.597 124.457 232.347C127.02 235.707 129.938 239.902 133.004 244.692V234.182L129.826 232.347Z" fill="white"/>
<path d="M142.574 264.947C145.336 270.102 147.623 274.802 149.277 278.647C150.567 281.672 151.468 284.172 151.884 285.842C152.091 286.682 152.178 287.302 152.169 287.637C152.161 287.982 152.1 287.997 152.1 288.007C152.091 288.002 152.048 288.047 151.745 287.882C151.451 287.732 150.948 287.352 150.325 286.762C149.069 285.587 147.328 283.582 145.328 280.967C142.79 277.652 139.82 273.367 136.676 268.432C139.543 269.107 141.768 267.792 142.574 264.947Z" fill="white"/>
<path d="M151.745 247.282C152.048 247.467 152.091 247.562 152.091 247.562C152.1 247.577 152.161 247.662 152.169 248.017C152.178 248.362 152.091 248.892 151.884 249.482C151.468 250.672 150.567 252.132 149.277 253.677C147.623 255.602 145.336 257.652 142.582 259.622C141.777 255.847 139.543 251.957 136.676 249.332C139.82 248.037 142.79 247.172 145.328 246.787C147.328 246.482 149.069 246.487 150.325 246.762C150.948 246.892 151.451 247.102 151.745 247.282Z" fill="white"/>
<path d="M125.885 255.322C126.691 259.097 128.917 262.982 131.792 265.612C128.648 266.917 125.678 267.772 123.14 268.157C121.14 268.462 119.399 268.457 118.152 268.187C117.52 268.052 117.017 267.852 116.714 267.657C116.42 267.477 116.368 267.377 116.368 267.377C116.359 267.362 116.307 267.282 116.299 266.927C116.299 266.587 116.368 266.057 116.576 265.457C117 264.272 117.892 262.797 119.191 261.277C120.845 259.342 123.123 257.287 125.885 255.322Z" fill="white"/>
<path d="M116.714 227.057C117.017 227.222 117.52 227.592 118.152 228.187C119.399 229.357 121.14 231.362 123.14 233.977C125.678 237.292 128.648 241.587 131.792 246.512C128.917 245.832 126.691 247.147 125.894 249.997C123.14 244.847 120.845 240.142 119.191 236.307C117.892 233.267 117 230.772 116.576 229.097C116.368 228.267 116.299 227.647 116.299 227.307C116.307 226.962 116.359 226.942 116.368 226.937C116.368 226.937 116.42 226.897 116.714 227.057Z" fill="white"/>
</svg>
