<svg width="226" height="418" viewBox="0 0 226 418" fill="none" xmlns="http://www.w3.org/2000/svg">
<path d="M10.626 244.647L162.579 332.377L214.54 302.377L62.5876 214.647L10.626 244.647Z" fill="#8BC5E4"/>
<path d="M168.407 342.562V402.112L220.369 372.112V312.562L168.407 342.562Z" fill="#8BC5E4"/>
<path d="M162.579 405.547L10.626 317.817L62.5876 287.817L214.54 375.547L162.579 405.547Z" fill="#8BC5E4"/>
<path d="M4.79785 307.652V248.102L56.7593 218.102V277.652L4.79785 307.652Z" fill="#8BC5E4"/>
<path d="M10.626 244.647L62.5876 214.647L10.626 244.647Z" fill="#8BC5E4"/>
<path d="M0 245.332V304.882L51.9615 274.882V215.332L0 245.332Z" fill="#8BC5E4"/>
<path d="M10.626 323.427L162.579 411.157L214.54 381.157L62.5876 293.427L10.626 323.427Z" fill="#8BC5E4"/>
<path d="M173.205 404.882V345.332L225.167 315.332V374.882L173.205 404.882Z" fill="#8BC5E4"/>
<path d="M162.579 326.777L10.626 239.047L62.5876 209.047L214.54 296.777L162.579 326.777Z" fill="#8BC5E4"/>
<path d="M10.626 239.047L62.5876 209.047L10.626 239.047Z" fill="#8BC5E4"/>
<path d="M10.626 37.0369L162.579 124.767L214.54 94.7669L62.5876 7.03687L10.626 37.0369Z" fill="#8BC5E4"/>
<path d="M168.407 134.942V313.452L220.369 283.452V104.942L168.407 134.942Z" fill="#8BC5E4"/>
<path d="M162.579 316.897L10.626 229.167L62.5876 199.167L214.54 286.897L162.579 316.897Z" fill="#8BC5E4"/>
<path d="M4.79785 218.992V40.4817L56.7593 10.4817V188.992L4.79785 218.992Z" fill="#8BC5E4"/>
<path d="M10.626 37.0369L62.5876 7.03687L10.626 37.0369Z" fill="#8BC5E4"/>
<path d="M0 37.7117V216.222L51.9615 186.222V7.71167L0 37.7117Z" fill="#8BC5E4"/>
<path d="M10.626 234.777L162.579 322.507L214.54 292.507L62.5876 204.777L10.626 234.777Z" fill="#8BC5E4"/>
<path d="M173.205 316.222V137.712L225.167 107.712V286.222L173.205 316.222Z" fill="#8BC5E4"/>
<path d="M162.579 119.157L10.626 31.4268L62.5876 1.42676L214.54 89.1568L162.579 119.157Z" fill="#8BC5E4"/>
<path d="M10.626 31.4268L62.5876 1.42676L10.626 31.4268Z" fill="#8BC5E4"/>
<path d="M40.4951 204.172L40.4941 204.17L92.4556 174.17L92.4567 174.172L40.4951 204.172Z" fill="#8BC5E4"/>
<path d="M65.0557 172.302L117.017 142.302L65.0557 172.302Z" fill="#8BC5E4"/>
<path d="M132.711 257.411L132.709 257.412L184.671 227.412L184.672 227.411L132.711 257.411Z" fill="#8BC5E4"/>
<path d="M108.141 197.147L160.102 167.147L108.141 197.147Z" fill="#8BC5E4"/>
<path d="M41.396 98.3518L93.3575 68.3518L41.396 98.3518Z" fill="#8BC5E4"/>
<path d="M132.709 151.292L132.711 151.294L184.672 121.294L184.671 121.292L132.709 151.292Z" fill="#8BC5E4"/>
<path d="M131.818 150.557L183.779 120.557L131.818 150.557Z" fill="#8BC5E4"/>
<path d="M86.8365 105.627L75.2231 111.902L127.185 81.9017L138.798 75.6267L86.8365 105.627Z" fill="#8BC5E4"/>
<path d="M75.2231 111.902L83.4416 116.647L135.403 86.6469L127.185 81.9019L75.2231 111.902Z" fill="#8BC5E4"/>
<path d="M83.4414 116.647V144.237L135.403 114.237V86.6467L83.4414 116.647Z" fill="#8BC5E4"/>
<path d="M59.0804 158.142L35.8882 144.752L87.8497 114.752L111.042 128.142L59.0804 158.142Z" fill="#8BC5E4"/>
<path d="M35.8882 144.752V135.162L87.8497 105.162V114.752L35.8882 144.752Z" fill="#8BC5E4"/>
<path d="M35.8881 135.162L24.7856 142.312L76.7472 112.312L87.8496 105.162L35.8881 135.162Z" fill="#8BC5E4"/>
<path d="M24.7856 142.312L35.8881 161.752L87.8496 131.752L76.7472 112.312L24.7856 142.312Z" fill="#8BC5E4"/>
<path d="M35.8882 161.752V152.842L87.8497 122.842V131.752L35.8882 161.752Z" fill="#8BC5E4"/>
<path d="M35.8882 152.842L58.5607 165.932L110.522 135.932L87.8497 122.842L35.8882 152.842Z" fill="#8BC5E4"/>
<path d="M83.4414 207.587V235.177L135.403 205.177V177.587L83.4414 207.587Z" fill="#8BC5E4"/>
<path d="M83.4416 235.177L75.2231 230.432L127.185 200.432L135.403 205.177L83.4416 235.177Z" fill="#8BC5E4"/>
<path d="M75.2231 230.432L86.8365 250.107L138.798 220.107L127.185 200.432L75.2231 230.432Z" fill="#8BC5E4"/>
<path d="M86.8364 250.107L97.9821 243.572L149.944 213.572L138.798 220.107L86.8364 250.107Z" fill="#8BC5E4"/>
<path d="M97.9823 243.572L90.3613 239.172L142.323 209.172L149.944 213.572L97.9823 243.572Z" fill="#8BC5E4"/>
<path d="M90.3613 239.172V212.172L142.323 182.172V209.172L90.3613 239.172Z" fill="#8BC5E4"/>
<path d="M114.645 198.312L137.317 211.402L189.279 181.402L166.606 168.312L114.645 198.312Z" fill="#8BC5E4"/>
<path d="M137.317 211.402V220.312L189.278 190.312V181.402L137.317 211.402Z" fill="#8BC5E4"/>
<path d="M137.317 220.312L148.419 213.692L200.381 183.692L189.278 190.312L137.317 220.312Z" fill="#8BC5E4"/>
<path d="M148.419 213.692L137.317 193.722L189.278 163.722L200.381 183.692L148.419 213.692Z" fill="#8BC5E4"/>
<path d="M137.317 193.722V203.312L189.278 173.312V163.722L137.317 193.722Z" fill="#8BC5E4"/>
<path d="M137.317 203.312L114.125 189.922L166.087 159.922L189.279 173.312L137.317 203.312Z" fill="#8BC5E4"/>
<path d="M90.3613 147.632V120.642L142.323 90.6418V117.632L90.3613 147.632Z" fill="#8BC5E4"/>
<path d="M90.3613 120.642L97.9823 125.042L149.944 95.0418L142.323 90.6418L90.3613 120.642Z" fill="#8BC5E4"/>
<path d="M97.9821 125.042L86.8364 105.627L138.798 75.6267L149.944 95.0417L97.9821 125.042Z" fill="#8BC5E4"/>
<path d="M86.8364 105.627L138.798 75.6267L86.8364 105.627Z" fill="#8BC5E4"/>
<path d="M10.626 37.0369L162.579 124.767L214.54 94.7669L62.5876 7.03687L10.626 37.0369Z" fill="#8BC5E4"/>
<path d="M168.407 134.942V313.452L220.369 283.452V104.942L168.407 134.942Z" fill="#8BC5E4"/>
<path d="M162.579 316.897L10.626 229.167L62.5876 199.167L214.54 286.897L162.579 316.897Z" fill="#8BC5E4"/>
<path d="M4.79785 218.992V40.4817L56.7593 10.4817V188.992L4.79785 218.992Z" fill="#8BC5E4"/>
<path d="M10.626 37.0369L62.5876 7.03687L10.626 37.0369Z" fill="#8BC5E4"/>
<path d="M75.2231 111.902L86.8365 105.627L138.798 75.6267L127.185 81.9017L75.2231 111.902Z" fill="#8BC5E4"/>
<path d="M86.8364 105.627L97.9821 125.042L149.944 95.0417L138.798 75.6267L86.8364 105.627Z" fill="#8BC5E4"/>
<path d="M97.9823 125.042L90.3613 120.642L142.323 90.6418L149.944 95.0418L97.9823 125.042Z" fill="#8BC5E4"/>
<path d="M90.3613 120.642V147.632L142.323 117.632V90.6418L90.3613 120.642Z" fill="#8BC5E4"/>
<path d="M114.125 189.922L137.317 203.312L189.279 173.312L166.087 159.922L114.125 189.922Z" fill="#8BC5E4"/>
<path d="M137.317 203.312V193.722L189.278 163.722V173.312L137.317 203.312Z" fill="#8BC5E4"/>
<path d="M137.317 193.722L148.419 213.692L200.381 183.692L189.278 163.722L137.317 193.722Z" fill="#8BC5E4"/>
<path d="M148.419 213.692L137.317 220.312L189.278 190.312L200.381 183.692L148.419 213.692Z" fill="#8BC5E4"/>
<path d="M137.317 220.312V211.402L189.278 181.402V190.312L137.317 220.312Z" fill="#8BC5E4"/>
<path d="M137.317 211.402L114.645 198.312L166.606 168.312L189.279 181.402L137.317 211.402Z" fill="#8BC5E4"/>
<path d="M90.3613 212.172V239.172L142.323 209.172V182.172L90.3613 212.172Z" fill="#8BC5E4"/>
<path d="M90.3613 239.172L97.9823 243.572L149.944 213.572L142.323 209.172L90.3613 239.172Z" fill="#8BC5E4"/>
<path d="M97.9821 243.572L86.8364 250.107L138.798 220.107L149.944 213.572L97.9821 243.572Z" fill="#8BC5E4"/>
<path d="M86.8365 250.107L75.2231 230.432L127.185 200.432L138.798 220.107L86.8365 250.107Z" fill="#8BC5E4"/>
<path d="M75.2231 230.432L83.4416 235.177L135.403 205.177L127.185 200.432L75.2231 230.432Z" fill="#8BC5E4"/>
<path d="M83.4414 235.177V207.587L135.403 177.587V205.177L83.4414 235.177Z" fill="#8BC5E4"/>
<path d="M58.5607 165.932L35.8882 152.842L87.8497 122.842L110.522 135.932L58.5607 165.932Z" fill="#8BC5E4"/>
<path d="M35.8882 152.842V161.752L87.8497 131.752V122.842L35.8882 152.842Z" fill="#8BC5E4"/>
<path d="M35.8881 161.752L24.7856 142.312L76.7472 112.312L87.8496 131.752L35.8881 161.752Z" fill="#8BC5E4"/>
<path d="M24.7856 142.312L35.8881 135.162L87.8496 105.162L76.7472 112.312L24.7856 142.312Z" fill="#8BC5E4"/>
<path d="M35.8882 135.162V144.752L87.8497 114.752V105.162L35.8882 135.162Z" fill="#8BC5E4"/>
<path d="M35.8882 144.752L59.0804 158.142L111.042 128.142L87.8497 114.752L35.8882 144.752Z" fill="#8BC5E4"/>
<path d="M83.4414 144.237V116.647L135.403 86.6467V114.237L83.4414 144.237Z" fill="#8BC5E4"/>
<path d="M83.4416 116.647L75.2231 111.902L127.185 81.9019L135.403 86.6469L83.4416 116.647Z" fill="#8BC5E4"/>
<path d="M75.2231 111.902L127.185 81.9019L75.2231 111.902Z" fill="#8BC5E4"/>
<path d="M132.711 257.411L132.709 257.412L184.671 227.412L184.672 227.411L132.711 257.411Z" fill="#8BC5E4"/>
<path d="M108.141 197.147L160.102 167.147L108.141 197.147Z" fill="#8BC5E4"/>
<path d="M40.4951 204.172L40.4941 204.17L92.4556 174.17L92.4567 174.172L40.4951 204.172Z" fill="#8BC5E4"/>
<path d="M65.0557 172.302L117.017 142.302L65.0557 172.302Z" fill="#8BC5E4"/>
<path d="M132.709 151.292L132.711 151.294L184.672 121.294L184.671 121.292L132.709 151.292Z" fill="#8BC5E4"/>
<path d="M131.818 150.557L183.779 120.557L131.818 150.557Z" fill="#8BC5E4"/>
<path d="M41.396 98.3518L93.3575 68.3518L41.396 98.3518Z" fill="#8BC5E4"/>
<path d="M10.626 244.647L162.579 332.377L214.54 302.377L62.5876 214.647L10.626 244.647Z" fill="#8BC5E4"/>
<path d="M168.407 342.562V402.112L220.369 372.112V312.562L168.407 342.562Z" fill="#8BC5E4"/>
<path d="M162.579 405.547L10.626 317.817L62.5876 287.817L214.54 375.547L162.579 405.547Z" fill="#8BC5E4"/>
<path d="M4.79785 307.652V248.102L56.7593 218.102V277.652L4.79785 307.652Z" fill="#8BC5E4"/>
<path d="M10.626 244.647L62.5876 214.647L10.626 244.647Z" fill="#8BC5E4"/>
<path d="M162.579 332.377C165.853 334.267 168.408 338.732 168.408 342.562L220.369 312.562C220.369 308.732 217.814 304.267 214.541 302.377L162.579 332.377Z" fill="#8BC5E4"/>
<path d="M168.407 402.112C168.407 404.052 167.748 405.395 166.671 405.999L218.632 375.999C219.709 375.395 220.368 374.052 220.369 372.112L168.407 402.112Z" fill="#8BC5E4"/>
<path d="M166.66 406.005C165.618 406.584 164.188 406.475 162.584 405.55L214.545 375.55C216.149 376.475 217.579 376.584 218.621 376.005L166.66 406.005Z" fill="#8BC5E4"/>
<path d="M10.6262 317.817C7.35265 315.927 4.79785 311.472 4.79785 307.652L56.7593 277.652C56.7593 281.472 59.3142 285.927 62.5878 287.817L10.6262 317.817Z" fill="#8BC5E4"/>
<path d="M4.79785 248.102C4.79805 246.157 5.45705 244.809 6.53405 244.201L58.4956 214.201C57.4186 214.809 56.7595 216.157 56.7593 218.102L4.79785 248.102Z" fill="#8BC5E4"/>
<path d="M6.53223 244.202C7.57523 243.612 9.01123 243.716 10.6212 244.644L62.5827 214.644C60.9727 213.716 59.5367 213.612 58.4937 214.202L6.53223 244.202Z" fill="#8BC5E4"/>
<path d="M10.626 239.047C7.74891 237.386 5.12991 237.225 3.21191 238.306L55.1734 208.306C57.0914 207.225 59.7104 207.386 62.5876 209.047L10.626 239.047Z" fill="#8BC5E4"/>
<path d="M3.215 238.305C1.236 239.418 0.003 241.852 0 245.322L51.9615 215.322C51.9645 211.852 53.1975 209.418 55.1765 208.305L3.215 238.305Z" fill="#8BC5E4"/>
<path d="M0 304.882C0 311.712 4.7805 320.052 10.6261 323.427L62.5877 293.427C56.742 290.052 51.9615 281.712 51.9615 274.882L0 304.882Z" fill="#8BC5E4"/>
<path d="M162.579 411.157C165.45 412.815 168.065 412.978 169.982 411.905L221.944 381.905C220.027 382.978 217.412 382.815 214.541 381.157L162.579 411.157Z" fill="#8BC5E4"/>
<path d="M169.99 411.9C171.969 410.788 173.202 408.357 173.205 404.892L225.167 374.892C225.164 378.357 223.931 380.788 221.952 381.9L169.99 411.9Z" fill="#8BC5E4"/>
<path d="M173.205 345.332C173.205 338.492 168.425 330.152 162.579 326.777L214.541 296.777C220.386 300.152 225.167 308.492 225.167 315.332L173.205 345.332Z" fill="#8BC5E4"/>
<path d="M162.579 124.767C165.853 126.657 168.408 131.112 168.408 134.942L220.369 104.942C220.369 101.112 217.814 96.6568 214.541 94.7668L162.579 124.767Z" fill="#8BC5E4"/>
<path d="M168.407 313.452C168.407 315.392 167.748 316.737 166.671 317.344L218.632 287.344C219.709 286.737 220.368 285.392 220.369 283.452L168.407 313.452Z" fill="#8BC5E4"/>
<path d="M166.673 317.344C165.63 317.932 164.194 317.828 162.584 316.9L214.545 286.9C216.155 287.828 217.591 287.932 218.634 287.344L166.673 317.344Z" fill="#8BC5E4"/>
<path d="M10.6262 229.167C7.35265 227.277 4.79785 222.812 4.79785 218.992L56.7593 188.992C56.7593 192.812 59.3142 197.277 62.5878 199.167L10.6262 229.167Z" fill="#8BC5E4"/>
<path d="M4.79785 40.4817C4.79805 38.5367 5.45705 37.1917 6.53405 36.5857L58.4956 6.58569C57.4186 7.19169 56.7595 8.53669 56.7593 10.4817L4.79785 40.4817Z" fill="#8BC5E4"/>
<path d="M6.53223 36.5867C7.57523 35.9987 9.01123 36.1057 10.6212 37.0337L62.5827 7.03373C60.9727 6.10573 59.5367 5.99873 58.4937 6.58673L6.53223 36.5867Z" fill="#8BC5E4"/>
<path d="M10.626 31.4267C7.74891 29.7657 5.12991 29.6047 3.21191 30.6857L55.1734 0.685713C57.0914 -0.395287 59.7104 -0.234287 62.5876 1.42671L10.626 31.4267Z" fill="#8BC5E4"/>
<path d="M3.215 30.6848C1.236 31.7978 0.003 34.2318 0 37.7018L51.9615 7.70181C51.9645 4.23181 53.1975 1.79781 55.1765 0.684814L3.215 30.6848Z" fill="#8BC5E4"/>
<path d="M0 216.222C0 223.052 4.7805 231.402 10.6261 234.777L62.5877 204.777C56.742 201.402 51.9615 193.052 51.9615 186.222L0 216.222Z" fill="#8BC5E4"/>
<path d="M162.579 322.507C165.45 324.165 168.065 324.325 169.982 323.25L221.944 293.25C220.027 294.325 217.412 294.165 214.541 292.507L162.579 322.507Z" fill="#8BC5E4"/>
<path d="M169.99 323.245C171.969 322.131 173.202 319.697 173.205 316.232L225.167 286.232C225.164 289.697 223.931 292.131 221.952 293.245L169.99 323.245Z" fill="#8BC5E4"/>
<path d="M173.205 137.712C173.205 130.872 168.425 122.532 162.579 119.157L214.541 89.1567C220.386 92.5317 225.167 100.872 225.167 107.712L173.205 137.712Z" fill="#8BC5E4"/>
<path d="M65.0557 172.302C67.1255 182.177 72.8846 192.332 80.2891 199.147L132.251 169.147C124.846 162.332 119.087 152.177 117.017 142.302L65.0557 172.302Z" fill="#8BC5E4"/>
<path d="M80.289 199.147C79.8538 199.335 79.4208 199.519 78.9878 199.7L130.949 169.7C131.382 169.519 131.815 169.335 132.25 169.147L80.289 199.147Z" fill="#8BC5E4"/>
<path d="M78.989 199.7C71.375 202.888 64.174 205.037 57.981 206.05L109.942 176.05C116.135 175.037 123.336 172.888 130.95 169.7L78.989 199.7Z" fill="#8BC5E4"/>
<path d="M57.9718 206.052C52.8017 206.897 48.307 206.932 45.0854 206.262L97.0469 176.262C100.269 176.932 104.763 176.897 109.933 176.052L57.9718 206.052Z" fill="#8BC5E4"/>
<path d="M45.0851 206.262C43.457 205.912 42.1666 205.387 41.3872 204.907L93.3487 174.907C94.1281 175.387 95.4185 175.912 97.0466 176.262L45.0851 206.262Z" fill="#8BC5E4"/>
<path d="M41.3872 204.907C40.6164 204.432 40.5038 204.187 40.4951 204.172L92.4567 174.172C92.4653 174.187 92.5779 174.432 93.3487 174.907L41.3872 204.907Z" fill="#8BC5E4"/>
<path d="M40.4945 204.17C40.4782 204.143 40.3308 203.901 40.3223 203.012L92.2839 173.012C92.2923 173.901 92.4397 174.143 92.456 174.17L40.4945 204.17Z" fill="#8BC5E4"/>
<path d="M40.3223 203.012C40.305 202.102 40.5129 200.712 41.0498 199.142L93.0113 169.142C92.4744 170.712 92.2665 172.102 92.2839 173.012L40.3223 203.012Z" fill="#8BC5E4"/>
<path d="M41.0498 199.142C42.115 196.007 44.4273 192.122 47.7875 188.092L99.749 158.092C96.3888 162.122 94.0765 166.007 93.0113 169.142L41.0498 199.142Z" fill="#8BC5E4"/>
<path d="M47.7871 188.092C51.8108 183.252 57.3078 178.107 63.9188 173.145L115.88 143.145C109.269 148.107 103.772 153.252 99.7486 158.092L47.7871 188.092Z" fill="#8BC5E4"/>
<path d="M63.9248 173.141C64.2968 172.862 64.6718 172.584 65.0508 172.306L117.012 142.306C116.633 142.584 116.258 142.862 115.886 143.141L63.9248 173.141Z" fill="#8BC5E4"/>
<path d="M108.141 197.147C115.259 210.607 121.166 222.877 125.418 232.912L177.379 202.912C173.127 192.877 167.221 180.607 160.102 167.147L108.141 197.147Z" fill="#8BC5E4"/>
<path d="M125.418 232.912C128.778 240.822 131.09 247.377 132.156 251.742L184.117 221.742C183.052 217.377 180.74 210.822 177.379 202.912L125.418 232.912Z" fill="#8BC5E4"/>
<path d="M132.155 251.742C132.692 253.932 132.9 255.562 132.891 256.457L184.853 226.457C184.862 225.562 184.654 223.932 184.117 221.742L132.155 251.742Z" fill="#8BC5E4"/>
<path d="M132.892 256.457C132.875 257.331 132.727 257.403 132.711 257.411L184.673 227.411C184.689 227.403 184.836 227.331 184.853 226.457L132.892 256.457Z" fill="#8BC5E4"/>
<path d="M132.71 257.412C132.701 257.427 132.589 257.532 131.818 257.117L183.779 227.117C184.55 227.532 184.663 227.427 184.671 227.412L132.71 257.412Z" fill="#8BC5E4"/>
<path d="M131.818 257.117C131.038 256.697 129.748 255.732 128.12 254.202L180.081 224.202C181.709 225.732 183 226.697 183.779 227.117L131.818 257.117Z" fill="#8BC5E4"/>
<path d="M128.12 254.202C124.898 251.152 120.404 245.927 115.233 239.122L167.195 209.122C172.365 215.927 176.86 221.152 180.081 224.202L128.12 254.202Z" fill="#8BC5E4"/>
<path d="M115.233 239.122C108.686 230.482 101.013 219.282 92.916 206.427L144.878 176.427C152.975 189.282 160.648 200.482 167.195 209.122L115.233 239.122Z" fill="#8BC5E4"/>
<path d="M92.916 206.427C96.4881 207.259 99.6751 206.873 102.25 205.409L154.212 175.409C151.637 176.873 148.45 177.259 144.878 176.427L92.916 206.427Z" fill="#8BC5E4"/>
<path d="M102.248 205.41C105.01 203.84 107.067 201.03 108.139 197.152L160.101 167.152C159.029 171.03 156.972 173.84 154.21 175.41L102.248 205.41Z" fill="#8BC5E4"/>
<path d="M41.396 98.3518C42.1668 98.7668 43.4572 99.7318 45.0853 101.262L97.0468 71.2618C95.4187 69.7318 94.1283 68.7668 93.3575 68.3518L41.396 98.3518Z" fill="#8BC5E4"/>
<path d="M45.0854 101.262C48.307 104.322 52.8017 109.537 57.9718 116.352L109.933 86.3517C104.763 79.5367 100.269 74.3217 97.0469 71.2617L45.0854 101.262Z" fill="#8BC5E4"/>
<path d="M57.9717 116.352C64.5189 124.982 72.1919 136.182 80.2892 149.037L132.251 119.037C124.153 106.182 116.48 94.9818 109.933 86.3518L57.9717 116.352Z" fill="#8BC5E4"/>
<path d="M80.2893 149.037C76.7171 148.205 73.5301 148.591 70.9551 150.055L122.917 120.055C125.492 118.591 128.679 118.205 132.251 119.037L80.2893 149.037Z" fill="#8BC5E4"/>
<path d="M70.9569 150.054C68.1949 151.624 66.1379 154.434 65.0659 158.312L117.027 128.312C118.099 124.434 120.156 121.624 122.918 120.054L70.9569 150.054Z" fill="#8BC5E4"/>
<path d="M65.0643 158.317C57.9456 144.857 52.0393 132.587 47.7871 122.562L99.7486 92.5618C104.001 102.587 109.907 114.857 117.026 128.317L65.0643 158.317Z" fill="#8BC5E4"/>
<path d="M47.7875 122.562C44.4273 114.642 42.115 108.087 41.0498 103.722L93.0113 73.7217C94.0765 78.0867 96.3888 84.6417 99.749 92.5617L47.7875 122.562Z" fill="#8BC5E4"/>
<path d="M41.0498 103.722C40.5129 101.542 40.305 99.9017 40.3223 99.0117L92.2839 69.0117C92.2665 69.9017 92.4744 71.5417 93.0113 73.7217L41.0498 103.722Z" fill="#8BC5E4"/>
<path d="M40.3223 99.0118C40.331 98.1068 40.4869 98.0668 40.4955 98.0518L92.4571 68.0518C92.4484 68.0668 92.2925 68.1068 92.2839 69.0118L40.3223 99.0118Z" fill="#8BC5E4"/>
<path d="M40.4951 98.0518C40.5038 98.0468 40.6164 97.9318 41.3958 98.3518L93.3573 68.3518C92.5779 67.9318 92.4653 68.0468 92.4567 68.0518L40.4951 98.0518Z" fill="#8BC5E4"/>
<path d="M131.818 150.557C132.589 151.032 132.701 151.277 132.71 151.292L184.671 121.292C184.663 121.277 184.55 121.032 183.779 120.557L131.818 150.557Z" fill="#8BC5E4"/>
<path d="M132.711 151.293C132.727 151.32 132.875 151.563 132.892 152.457L184.853 122.457C184.836 121.563 184.689 121.32 184.673 121.293L132.711 151.293Z" fill="#8BC5E4"/>
<path d="M132.891 152.457C132.9 153.362 132.692 154.752 132.155 156.322L184.117 126.322C184.654 124.752 184.862 123.362 184.853 122.457L132.891 152.457Z" fill="#8BC5E4"/>
<path d="M132.156 156.322C131.09 159.457 128.778 163.342 125.418 167.382L177.379 137.382C180.74 133.342 183.052 129.457 184.117 126.322L132.156 156.322Z" fill="#8BC5E4"/>
<path d="M125.418 167.382C121.394 172.213 115.897 177.357 109.286 182.327L161.248 152.327C167.859 147.357 173.356 142.213 177.379 137.382L125.418 167.382Z" fill="#8BC5E4"/>
<path d="M109.286 182.327C108.91 182.61 108.532 182.891 108.149 183.172L160.11 153.172C160.493 152.891 160.871 152.61 161.247 152.327L109.286 182.327Z" fill="#8BC5E4"/>
<path d="M108.149 183.172C106.071 173.292 100.321 163.142 92.916 156.327L144.878 126.327C152.282 133.142 158.032 143.292 160.111 153.172L108.149 183.172Z" fill="#8BC5E4"/>
<path d="M92.916 156.327C93.3481 156.142 93.7781 155.959 94.2081 155.78L146.17 125.78C145.74 125.959 145.31 126.142 144.878 126.327L92.916 156.327Z" fill="#8BC5E4"/>
<path d="M94.2192 155.776C101.847 152.596 109.038 150.441 115.224 149.414L167.186 119.414C161 120.441 153.809 122.596 146.181 125.776L94.2192 155.776Z" fill="#8BC5E4"/>
<path d="M115.233 149.412C120.404 148.577 124.898 148.542 128.137 149.212L180.099 119.212C176.86 118.542 172.365 118.577 167.195 119.412L115.233 149.412Z" fill="#8BC5E4"/>
<path d="M128.137 149.212C129.748 149.552 131.038 150.077 131.818 150.557L183.779 120.557C183 120.077 181.71 119.552 180.099 119.212L128.137 149.212Z" fill="#8BC5E4"/>
<path d="M83.4416 144.237C75.5262 131.747 67.9918 120.787 61.3667 112.052L113.328 82.0518C119.953 90.7868 127.488 101.747 135.403 114.237L83.4416 144.237Z" fill="#8BC5E4"/>
<path d="M61.3668 112.052C55.9195 104.867 51.113 99.1917 46.9907 95.2817L98.9523 65.2817C103.075 69.1917 107.881 74.8667 113.328 82.0517L61.3668 112.052Z" fill="#8BC5E4"/>
<path d="M46.9907 95.2816C44.9296 93.3416 43.033 91.8066 41.1797 90.8066L93.1412 60.8066C94.9945 61.8066 96.8911 63.3416 98.9523 65.2816L46.9907 95.2816Z" fill="#8BC5E4"/>
<path d="M41.1794 90.8067C39.4489 89.8827 37.6359 89.4337 36.2539 90.0817L88.2154 60.0817C89.5974 59.4337 91.4104 59.8827 93.1409 60.8067L41.1794 90.8067Z" fill="#8BC5E4"/>
<path d="M36.2621 90.0776C36.1641 90.1236 36.0681 90.1746 35.9741 90.2316L87.9356 60.2316C88.0296 60.1746 88.1256 60.1236 88.2236 60.0776L36.2621 90.0776Z" fill="#8BC5E4"/>
<path d="M35.9662 90.2368C35.8732 90.2938 35.7832 90.3558 35.6982 90.4228L87.6597 60.4228C87.7447 60.3558 87.8347 60.2938 87.9278 60.2368L35.9662 90.2368Z" fill="#8BC5E4"/>
<path d="M35.6981 90.4216C34.4931 91.3566 34.0081 93.1956 33.9741 95.2006L85.9356 65.2006C85.9696 63.1956 86.4546 61.3566 87.6596 60.4216L35.6981 90.4216Z" fill="#8BC5E4"/>
<path d="M33.9743 95.2068C33.9396 97.3568 34.338 99.7968 35.0135 102.587L86.975 72.5868C86.2995 69.7968 85.9012 67.3568 85.9358 65.2068L33.9743 95.2068Z" fill="#8BC5E4"/>
<path d="M35.0132 102.587C36.3815 108.167 38.945 115.217 42.4783 123.557L94.4399 93.5567C90.9065 85.2167 88.3431 78.1667 86.9747 72.5867L35.0132 102.587Z" fill="#8BC5E4"/>
<path d="M42.4785 123.557C46.7047 133.527 52.3512 145.317 59.0803 158.142L111.042 128.142C104.313 115.317 98.6663 103.527 94.4401 93.5566L42.4785 123.557Z" fill="#8BC5E4"/>
<path d="M58.5608 165.932C58.2082 166.2 57.8592 166.469 57.5122 166.738L109.474 136.738C109.821 136.469 110.17 136.2 110.522 135.932L58.5608 165.932Z" fill="#8BC5E4"/>
<path d="M57.5129 166.737C51.4719 171.431 46.3749 176.275 42.4849 180.95L94.4464 150.95C98.3364 146.275 103.433 141.431 109.474 136.737L57.5129 166.737Z" fill="#8BC5E4"/>
<path d="M42.4784 180.957C38.9451 185.217 36.3816 189.317 35.022 193.322L86.9835 163.322C88.3432 159.317 90.9066 155.217 94.44 150.957L42.4784 180.957Z" fill="#8BC5E4"/>
<path d="M35.0222 193.322C34.338 195.327 33.9396 197.307 33.9743 199.497L85.9358 169.497C85.9012 167.307 86.2995 165.327 86.9837 163.322L35.0222 193.322Z" fill="#8BC5E4"/>
<path d="M33.9741 199.497C34.0001 201.672 34.563 204.287 35.9659 206.757L87.9275 176.757C86.5245 174.287 85.9616 171.672 85.9356 169.497L33.9741 199.497Z" fill="#8BC5E4"/>
<path d="M35.9658 206.757C37.3688 209.247 39.326 211.067 41.1706 212.202L93.1322 182.202C91.2875 181.067 89.3303 179.247 87.9274 176.757L35.9658 206.757Z" fill="#8BC5E4"/>
<path d="M41.1709 212.202C43.0329 213.347 44.9295 214.002 46.982 214.437L98.9435 184.437C96.891 184.002 94.9944 183.347 93.1325 182.202L41.1709 212.202Z" fill="#8BC5E4"/>
<path d="M46.9819 214.437C51.1128 215.292 55.9193 215.177 61.3666 214.282L113.328 184.282C107.881 185.177 103.074 185.292 98.9434 184.437L46.9819 214.437Z" fill="#8BC5E4"/>
<path d="M61.3667 214.282C67.6361 213.255 74.7191 211.167 82.1691 208.116L134.131 178.116C126.681 181.167 119.598 183.255 113.328 184.282L61.3667 214.282Z" fill="#8BC5E4"/>
<path d="M82.1641 208.118C82.5871 207.945 83.0111 207.768 83.4361 207.589L135.398 177.589C134.973 177.768 134.549 177.945 134.126 178.118L82.1641 208.118Z" fill="#8BC5E4"/>
<path d="M90.3613 212.172C98.0603 224.267 105.378 234.902 111.839 243.422L163.8 213.422C157.34 204.902 150.022 194.267 142.323 182.172L90.3613 212.172Z" fill="#8BC5E4"/>
<path d="M111.838 243.422C117.286 250.607 122.092 256.272 126.223 260.187L178.185 230.187C174.054 226.272 169.247 220.607 163.8 213.422L111.838 243.422Z" fill="#8BC5E4"/>
<path d="M126.223 260.187C128.276 262.132 130.172 263.657 132.034 264.662L183.996 234.662C182.134 233.657 180.237 232.132 178.185 230.187L126.223 260.187Z" fill="#8BC5E4"/>
<path d="M132.034 264.662C133.756 265.591 135.577 266.036 136.952 265.383L188.913 235.383C187.538 236.036 185.717 235.591 183.996 234.662L132.034 264.662Z" fill="#8BC5E4"/>
<path d="M136.944 265.387C137.042 265.341 137.138 265.289 137.231 265.232L189.192 235.232C189.099 235.289 189.003 235.341 188.905 235.387L136.944 265.387Z" fill="#8BC5E4"/>
<path d="M137.239 265.227C137.332 265.171 137.422 265.109 137.507 265.043L189.468 235.043C189.383 235.109 189.293 235.171 189.2 235.227L137.239 265.227Z" fill="#8BC5E4"/>
<path d="M137.507 265.043C138.712 264.116 139.197 262.269 139.231 260.273L191.192 230.273C191.158 232.269 190.673 234.116 189.468 235.043L137.507 265.043Z" fill="#8BC5E4"/>
<path d="M139.231 260.267C139.266 258.117 138.867 255.677 138.192 252.887L190.153 222.887C190.829 225.677 191.227 228.117 191.193 230.267L139.231 260.267Z" fill="#8BC5E4"/>
<path d="M138.192 252.887C136.823 247.307 134.26 240.247 130.727 231.907L182.688 201.907C186.221 210.247 188.785 217.307 190.153 222.887L138.192 252.887Z" fill="#8BC5E4"/>
<path d="M130.727 231.907C126.622 222.217 121.148 210.767 114.645 198.312L166.606 168.312C173.11 180.767 178.583 192.217 182.688 201.907L130.727 231.907Z" fill="#8BC5E4"/>
<path d="M114.125 189.922C114.49 189.648 114.851 189.373 115.209 189.098L167.171 159.098C166.813 159.373 166.452 159.648 166.087 159.922L114.125 189.922Z" fill="#8BC5E4"/>
<path d="M115.209 189.098C121.463 184.297 126.738 179.326 130.727 174.507L182.688 144.507C178.699 149.326 173.424 154.297 167.17 159.098L115.209 189.098Z" fill="#8BC5E4"/>
<path d="M130.727 174.507C134.26 170.247 136.823 166.157 138.183 162.152L190.145 132.152C188.785 136.157 186.221 140.247 182.688 144.507L130.727 174.507Z" fill="#8BC5E4"/>
<path d="M138.183 162.152C138.867 160.147 139.266 158.167 139.231 155.977L191.193 125.977C191.227 128.167 190.829 130.147 190.145 132.152L138.183 162.152Z" fill="#8BC5E4"/>
<path d="M139.231 155.977C139.196 153.787 138.642 151.177 137.239 148.707L189.2 118.707C190.603 121.177 191.158 123.787 191.192 125.977L139.231 155.977Z" fill="#8BC5E4"/>
<path d="M137.239 148.707C135.836 146.217 133.879 144.407 132.025 143.257L183.987 113.257C185.84 114.407 187.797 116.217 189.2 118.707L137.239 148.707Z" fill="#8BC5E4"/>
<path d="M132.026 143.257C130.172 142.117 128.276 141.462 126.223 141.047L178.185 111.047C180.237 111.462 182.134 112.117 183.987 113.257L132.026 143.257Z" fill="#8BC5E4"/>
<path d="M126.223 141.047C122.092 140.172 117.286 140.297 111.838 141.182L163.8 111.182C169.247 110.297 174.054 110.172 178.185 111.047L126.223 141.047Z" fill="#8BC5E4"/>
<path d="M111.838 141.182C105.728 142.185 98.8509 144.193 91.6089 147.12L143.57 117.12C150.812 114.193 157.689 112.185 163.8 111.182L111.838 141.182Z" fill="#8BC5E4"/>
<path d="M91.6088 147.12C91.1948 147.288 90.7778 147.458 90.3608 147.632L142.322 117.632C142.739 117.458 143.156 117.288 143.57 117.12L91.6088 147.12Z" fill="#8BC5E4"/>
<path d="M162.579 124.767C165.853 126.657 168.408 131.112 168.408 134.942L220.369 104.942C220.369 101.112 217.814 96.6568 214.541 94.7668L162.579 124.767Z" fill="#8BC5E4"/>
<path d="M168.407 313.452C168.407 315.392 167.748 316.737 166.671 317.344L218.632 287.344C219.709 286.737 220.368 285.392 220.369 283.452L168.407 313.452Z" fill="#8BC5E4"/>
<path d="M166.673 317.344C165.63 317.932 164.194 317.828 162.584 316.9L214.545 286.9C216.155 287.828 217.591 287.932 218.634 287.344L166.673 317.344Z" fill="#8BC5E4"/>
<path d="M10.6262 229.167C7.35265 227.277 4.79785 222.812 4.79785 218.992L56.7593 188.992C56.7593 192.812 59.3142 197.277 62.5878 199.167L10.6262 229.167Z" fill="#8BC5E4"/>
<path d="M4.79785 40.4817C4.79805 38.5367 5.45705 37.1917 6.53405 36.5857L58.4956 6.58569C57.4186 7.19169 56.7595 8.53669 56.7593 10.4817L4.79785 40.4817Z" fill="#8BC5E4"/>
<path d="M6.53223 36.5867C7.57523 35.9987 9.01123 36.1057 10.6212 37.0337L62.5827 7.03373C60.9727 6.10573 59.5367 5.99873 58.4937 6.58673L6.53223 36.5867Z" fill="#8BC5E4"/>
<path d="M90.3613 147.632C90.7782 147.458 91.1952 147.288 91.6092 147.12L143.571 117.12C143.157 117.288 142.74 117.458 142.323 117.632L90.3613 147.632Z" fill="#8BC5E4"/>
<path d="M91.6089 147.12C98.8509 144.193 105.728 142.185 111.839 141.182L163.8 111.182C157.689 112.185 150.812 114.193 143.57 117.12L91.6089 147.12Z" fill="#8BC5E4"/>
<path d="M111.838 141.182C117.286 140.297 122.092 140.172 126.223 141.047L178.185 111.047C174.054 110.172 169.247 110.297 163.8 111.182L111.838 141.182Z" fill="#8BC5E4"/>
<path d="M126.223 141.047C128.276 141.462 130.172 142.117 132.026 143.257L183.987 113.257C182.134 112.117 180.237 111.462 178.185 111.047L126.223 141.047Z" fill="#8BC5E4"/>
<path d="M132.025 143.257C133.879 144.407 135.836 146.217 137.239 148.707L189.2 118.707C187.797 116.217 185.84 114.407 183.987 113.257L132.025 143.257Z" fill="#8BC5E4"/>
<path d="M137.239 148.707C138.642 151.177 139.196 153.787 139.231 155.977L191.192 125.977C191.158 123.787 190.603 121.177 189.2 118.707L137.239 148.707Z" fill="#8BC5E4"/>
<path d="M139.231 155.977C139.266 158.167 138.867 160.147 138.183 162.152L190.145 132.152C190.829 130.147 191.227 128.167 191.193 125.977L139.231 155.977Z" fill="#8BC5E4"/>
<path d="M138.183 162.152C136.823 166.157 134.26 170.247 130.727 174.507L182.688 144.507C186.221 140.247 188.785 136.157 190.145 132.152L138.183 162.152Z" fill="#8BC5E4"/>
<path d="M130.726 174.507C126.738 179.326 121.463 184.297 115.209 189.098L167.17 159.098C173.424 154.297 178.699 149.326 182.688 144.507L130.726 174.507Z" fill="#8BC5E4"/>
<path d="M115.209 189.098C114.851 189.373 114.49 189.648 114.125 189.922L166.086 159.922C166.451 159.648 166.812 159.373 167.171 159.098L115.209 189.098Z" fill="#8BC5E4"/>
<path d="M114.645 198.312C121.148 210.767 126.622 222.217 130.727 231.907L182.688 201.907C178.583 192.217 173.11 180.767 166.606 168.312L114.645 198.312Z" fill="#8BC5E4"/>
<path d="M130.727 231.907C134.26 240.247 136.823 247.307 138.192 252.887L190.153 222.887C188.785 217.307 186.221 210.247 182.688 201.907L130.727 231.907Z" fill="#8BC5E4"/>
<path d="M138.192 252.887C138.867 255.677 139.266 258.117 139.231 260.267L191.193 230.267C191.227 228.117 190.829 225.677 190.153 222.887L138.192 252.887Z" fill="#8BC5E4"/>
<path d="M139.231 260.267C139.199 262.265 138.713 264.115 137.507 265.043L189.468 235.043C190.674 234.115 191.16 232.265 191.192 230.267L139.231 260.267Z" fill="#8BC5E4"/>
<path d="M137.514 265.038C137.429 265.104 137.34 265.165 137.247 265.222L189.209 235.222C189.302 235.165 189.391 235.104 189.476 235.038L137.514 265.038Z" fill="#8BC5E4"/>
<path d="M137.239 265.227C137.146 265.285 137.05 265.337 136.952 265.383L188.914 235.383C189.012 235.337 189.108 235.285 189.201 235.227L137.239 265.227Z" fill="#8BC5E4"/>
<path d="M136.953 265.383C135.578 266.035 133.761 265.592 132.04 264.665L184.002 234.665C185.723 235.592 187.54 236.035 188.915 235.383L136.953 265.383Z" fill="#8BC5E4"/>
<path d="M132.034 264.662C130.172 263.657 128.276 262.132 126.223 260.187L178.185 230.187C180.237 232.132 182.134 233.657 183.996 234.662L132.034 264.662Z" fill="#8BC5E4"/>
<path d="M126.223 260.187C122.092 256.272 117.286 250.607 111.838 243.422L163.8 213.422C169.247 220.607 174.054 226.272 178.185 230.187L126.223 260.187Z" fill="#8BC5E4"/>
<path d="M111.839 243.422C105.378 234.902 98.0603 224.267 90.3613 212.172L142.323 182.172C150.022 194.267 157.34 204.902 163.8 213.422L111.839 243.422Z" fill="#8BC5E4"/>
<path d="M83.4414 207.587C83.0159 207.766 82.5919 207.943 82.1689 208.116L134.13 178.116C134.553 177.943 134.977 177.766 135.403 177.587L83.4414 207.587Z" fill="#8BC5E4"/>
<path d="M82.159 208.12C74.716 211.168 67.64 213.254 61.376 214.28L113.337 184.28C119.601 183.254 126.677 181.168 134.12 178.12L82.159 208.12Z" fill="#8BC5E4"/>
<path d="M61.3666 214.282C55.9193 215.177 51.1128 215.292 46.9819 214.437L98.9434 184.437C103.074 185.292 107.881 185.177 113.328 184.282L61.3666 214.282Z" fill="#8BC5E4"/>
<path d="M46.982 214.437C44.9295 214.002 43.0329 213.347 41.1709 212.202L93.1325 182.202C94.9944 183.347 96.891 184.002 98.9435 184.437L46.982 214.437Z" fill="#8BC5E4"/>
<path d="M41.1706 212.202C39.326 211.067 37.3688 209.247 35.9658 206.757L87.9274 176.757C89.3303 179.247 91.2875 181.067 93.1322 182.202L41.1706 212.202Z" fill="#8BC5E4"/>
<path d="M35.9659 206.757C34.563 204.287 34.0001 201.672 33.9741 199.497L85.9356 169.497C85.9616 171.672 86.5245 174.287 87.9275 176.757L35.9659 206.757Z" fill="#8BC5E4"/>
<path d="M33.9743 199.497C33.9396 197.307 34.338 195.327 35.0222 193.322L86.9837 163.322C86.2995 165.327 85.9012 167.307 85.9358 169.497L33.9743 199.497Z" fill="#8BC5E4"/>
<path d="M35.022 193.322C36.3816 189.317 38.9451 185.217 42.4784 180.957L94.44 150.957C90.9066 155.217 88.3432 159.317 86.9835 163.322L35.022 193.322Z" fill="#8BC5E4"/>
<path d="M42.4785 180.957C46.369 176.28 51.468 171.433 57.512 166.738L109.474 136.738C103.43 141.433 98.3305 146.28 94.4401 150.957L42.4785 180.957Z" fill="#8BC5E4"/>
<path d="M57.5171 166.734C57.8611 166.468 58.2071 166.202 58.5561 165.936L110.518 135.936C110.169 136.202 109.823 136.468 109.479 136.734L57.5171 166.734Z" fill="#8BC5E4"/>
<path d="M59.0803 158.142C52.3512 145.317 46.7047 133.527 42.4785 123.557L94.4401 93.5566C98.6663 103.527 104.313 115.317 111.042 128.142L59.0803 158.142Z" fill="#8BC5E4"/>
<path d="M42.4783 123.557C38.945 115.217 36.3815 108.167 35.0132 102.587L86.9747 72.5867C88.3431 78.1667 90.9065 85.2167 94.4399 93.5567L42.4783 123.557Z" fill="#8BC5E4"/>
<path d="M35.0135 102.587C34.338 99.7968 33.9396 97.3568 33.9743 95.2068L85.9358 65.2068C85.9012 67.3568 86.2995 69.7968 86.975 72.5868L35.0135 102.587Z" fill="#8BC5E4"/>
<path d="M33.9741 95.2069C34.0069 93.1999 34.4919 91.3579 35.6979 90.4229L87.6594 60.4229C86.4534 61.3579 85.9684 63.1999 85.9356 65.2069L33.9741 95.2069Z" fill="#8BC5E4"/>
<path d="M35.6909 90.4277C35.7759 90.3607 35.8649 90.2987 35.9579 90.2417L87.9194 60.2417C87.8264 60.2987 87.7374 60.3607 87.6524 60.4277L35.6909 90.4277Z" fill="#8BC5E4"/>
<path d="M35.9658 90.2368C36.0598 90.1798 36.1558 90.1278 36.2538 90.0818L88.2153 60.0818C88.1173 60.1278 88.0213 60.1798 87.9274 60.2368L35.9658 90.2368Z" fill="#8BC5E4"/>
<path d="M36.2539 90.0817C37.6339 89.4337 39.4449 89.8817 41.1739 90.8037L93.1354 60.8037C91.4064 59.8817 89.5954 59.4337 88.2154 60.0817L36.2539 90.0817Z" fill="#8BC5E4"/>
<path d="M41.1797 90.8066C43.033 91.8066 44.9296 93.3416 46.9907 95.2816L98.9523 65.2816C96.8911 63.3416 94.9945 61.8066 93.1412 60.8066L41.1797 90.8066Z" fill="#8BC5E4"/>
<path d="M46.9907 95.2817C51.113 99.1917 55.9195 104.867 61.3668 112.052L113.328 82.0517C107.881 74.8667 103.075 69.1917 98.9523 65.2817L46.9907 95.2817Z" fill="#8BC5E4"/>
<path d="M61.3667 112.052C67.9918 120.787 75.5262 131.747 83.4416 144.237L135.403 114.237C127.488 101.747 119.953 90.7868 113.328 82.0518L61.3667 112.052Z" fill="#8BC5E4"/>
<path d="M108.141 197.147C115.259 210.607 121.166 222.877 125.418 232.912L177.379 202.912C173.127 192.877 167.221 180.607 160.102 167.147L108.141 197.147Z" fill="#8BC5E4"/>
<path d="M125.418 232.912C128.778 240.822 131.09 247.377 132.156 251.742L184.117 221.742C183.052 217.377 180.74 210.822 177.379 202.912L125.418 232.912Z" fill="#8BC5E4"/>
<path d="M132.155 251.742C132.692 253.932 132.9 255.562 132.891 256.457L184.853 226.457C184.862 225.562 184.654 223.932 184.117 221.742L132.155 251.742Z" fill="#8BC5E4"/>
<path d="M132.892 256.457C132.875 257.331 132.727 257.403 132.711 257.411L184.673 227.411C184.689 227.403 184.836 227.331 184.853 226.457L132.892 256.457Z" fill="#8BC5E4"/>
<path d="M132.71 257.412C132.701 257.427 132.589 257.532 131.818 257.117L183.779 227.117C184.55 227.532 184.663 227.427 184.671 227.412L132.71 257.412Z" fill="#8BC5E4"/>
<path d="M131.818 257.117C131.038 256.697 129.748 255.732 128.12 254.202L180.081 224.202C181.709 225.732 183 226.697 183.779 227.117L131.818 257.117Z" fill="#8BC5E4"/>
<path d="M128.12 254.202C124.898 251.152 120.404 245.927 115.233 239.122L167.195 209.122C172.365 215.927 176.86 221.152 180.081 224.202L128.12 254.202Z" fill="#8BC5E4"/>
<path d="M115.233 239.122C108.686 230.482 101.013 219.282 92.916 206.427L144.878 176.427C152.975 189.282 160.648 200.482 167.195 209.122L115.233 239.122Z" fill="#8BC5E4"/>
<path d="M92.916 206.427C96.4881 207.259 99.6751 206.873 102.25 205.409L154.212 175.409C151.637 176.873 148.45 177.259 144.878 176.427L92.916 206.427Z" fill="#8BC5E4"/>
<path d="M102.248 205.41C105.01 203.84 107.067 201.03 108.139 197.152L160.101 167.152C159.029 171.03 156.972 173.84 154.21 175.41L102.248 205.41Z" fill="#8BC5E4"/>
<path d="M65.0557 172.302C67.1255 182.177 72.8846 192.332 80.2891 199.147L132.251 169.147C124.846 162.332 119.087 152.177 117.017 142.302L65.0557 172.302Z" fill="#8BC5E4"/>
<path d="M80.289 199.147C79.8538 199.335 79.4208 199.519 78.9878 199.7L130.949 169.7C131.382 169.519 131.815 169.335 132.25 169.147L80.289 199.147Z" fill="#8BC5E4"/>
<path d="M78.989 199.7C71.375 202.888 64.174 205.037 57.981 206.05L109.942 176.05C116.135 175.037 123.336 172.888 130.95 169.7L78.989 199.7Z" fill="#8BC5E4"/>
<path d="M57.9718 206.052C52.8017 206.897 48.307 206.932 45.0854 206.262L97.0469 176.262C100.269 176.932 104.763 176.897 109.933 176.052L57.9718 206.052Z" fill="#8BC5E4"/>
<path d="M45.0851 206.262C43.457 205.912 42.1666 205.387 41.3872 204.907L93.3487 174.907C94.1281 175.387 95.4185 175.912 97.0466 176.262L45.0851 206.262Z" fill="#8BC5E4"/>
<path d="M41.3872 204.907C40.6164 204.432 40.5038 204.187 40.4951 204.172L92.4567 174.172C92.4653 174.187 92.5779 174.432 93.3487 174.907L41.3872 204.907Z" fill="#8BC5E4"/>
<path d="M40.4945 204.17C40.4782 204.143 40.3308 203.901 40.3223 203.012L92.2839 173.012C92.2923 173.901 92.4397 174.143 92.456 174.17L40.4945 204.17Z" fill="#8BC5E4"/>
<path d="M40.3223 203.012C40.305 202.102 40.5129 200.712 41.0498 199.142L93.0113 169.142C92.4744 170.712 92.2665 172.102 92.2839 173.012L40.3223 203.012Z" fill="#8BC5E4"/>
<path d="M41.0498 199.142C42.115 196.007 44.4273 192.122 47.7875 188.092L99.749 158.092C96.3888 162.122 94.0765 166.007 93.0113 169.142L41.0498 199.142Z" fill="#8BC5E4"/>
<path d="M47.7871 188.092C51.8108 183.252 57.3078 178.107 63.9188 173.145L115.88 143.145C109.269 148.107 103.772 153.252 99.7486 158.092L47.7871 188.092Z" fill="#8BC5E4"/>
<path d="M63.9248 173.141C64.2968 172.862 64.6718 172.584 65.0508 172.306L117.012 142.306C116.633 142.584 116.258 142.862 115.886 143.141L63.9248 173.141Z" fill="#8BC5E4"/>
<path d="M131.818 150.557C132.589 151.032 132.701 151.277 132.71 151.292L184.671 121.292C184.663 121.277 184.55 121.032 183.779 120.557L131.818 150.557Z" fill="#8BC5E4"/>
<path d="M132.711 151.293C132.727 151.32 132.875 151.563 132.892 152.457L184.853 122.457C184.836 121.563 184.689 121.32 184.673 121.293L132.711 151.293Z" fill="#8BC5E4"/>
<path d="M132.891 152.457C132.9 153.362 132.692 154.752 132.155 156.322L184.117 126.322C184.654 124.752 184.862 123.362 184.853 122.457L132.891 152.457Z" fill="#8BC5E4"/>
<path d="M132.156 156.322C131.09 159.457 128.778 163.342 125.418 167.382L177.379 137.382C180.74 133.342 183.052 129.457 184.117 126.322L132.156 156.322Z" fill="#8BC5E4"/>
<path d="M125.418 167.382C121.394 172.213 115.897 177.357 109.286 182.327L161.248 152.327C167.859 147.357 173.356 142.213 177.379 137.382L125.418 167.382Z" fill="#8BC5E4"/>
<path d="M109.286 182.327C108.91 182.61 108.532 182.891 108.149 183.172L160.11 153.172C160.493 152.891 160.871 152.61 161.247 152.327L109.286 182.327Z" fill="#8BC5E4"/>
<path d="M108.149 183.172C106.071 173.292 100.321 163.142 92.916 156.327L144.878 126.327C152.282 133.142 158.032 143.292 160.111 153.172L108.149 183.172Z" fill="#8BC5E4"/>
<path d="M92.916 156.327C93.3481 156.142 93.7781 155.959 94.2081 155.78L146.17 125.78C145.74 125.959 145.31 126.142 144.878 126.327L92.916 156.327Z" fill="#8BC5E4"/>
<path d="M94.2192 155.776C101.847 152.596 109.038 150.441 115.224 149.414L167.186 119.414C161 120.441 153.809 122.596 146.181 125.776L94.2192 155.776Z" fill="#8BC5E4"/>
<path d="M115.233 149.412C120.404 148.577 124.898 148.542 128.137 149.212L180.099 119.212C176.86 118.542 172.365 118.577 167.195 119.412L115.233 149.412Z" fill="#8BC5E4"/>
<path d="M128.137 149.212C129.748 149.552 131.038 150.077 131.818 150.557L183.779 120.557C183 120.077 181.71 119.552 180.099 119.212L128.137 149.212Z" fill="#8BC5E4"/>
<path d="M41.396 98.3518C42.1668 98.7668 43.4572 99.7318 45.0853 101.262L97.0468 71.2618C95.4187 69.7318 94.1283 68.7668 93.3575 68.3518L41.396 98.3518Z" fill="#8BC5E4"/>
<path d="M45.0854 101.262C48.307 104.322 52.8017 109.537 57.9718 116.352L109.933 86.3517C104.763 79.5367 100.269 74.3217 97.0469 71.2617L45.0854 101.262Z" fill="#8BC5E4"/>
<path d="M57.9717 116.352C64.5189 124.982 72.1919 136.182 80.2892 149.037L132.251 119.037C124.153 106.182 116.48 94.9818 109.933 86.3518L57.9717 116.352Z" fill="#8BC5E4"/>
<path d="M80.2893 149.037C76.7171 148.205 73.5301 148.591 70.9551 150.055L122.917 120.055C125.492 118.591 128.679 118.205 132.251 119.037L80.2893 149.037Z" fill="#8BC5E4"/>
<path d="M70.9569 150.054C68.1949 151.624 66.1379 154.434 65.0659 158.312L117.027 128.312C118.099 124.434 120.156 121.624 122.918 120.054L70.9569 150.054Z" fill="#8BC5E4"/>
<path d="M65.0643 158.317C57.9456 144.857 52.0393 132.587 47.7871 122.562L99.7486 92.5618C104.001 102.587 109.907 114.857 117.026 128.317L65.0643 158.317Z" fill="#8BC5E4"/>
<path d="M47.7875 122.562C44.4273 114.642 42.115 108.087 41.0498 103.722L93.0113 73.7217C94.0765 78.0867 96.3888 84.6417 99.749 92.5617L47.7875 122.562Z" fill="#8BC5E4"/>
<path d="M41.0498 103.722C40.5129 101.542 40.305 99.9017 40.3223 99.0117L92.2839 69.0117C92.2665 69.9017 92.4744 71.5417 93.0113 73.7217L41.0498 103.722Z" fill="#8BC5E4"/>
<path d="M40.3223 99.0118C40.331 98.1068 40.4869 98.0668 40.4955 98.0518L92.4571 68.0518C92.4484 68.0668 92.2925 68.1068 92.2839 69.0118L40.3223 99.0118Z" fill="#8BC5E4"/>
<path d="M40.4951 98.0518C40.5038 98.0468 40.6164 97.9318 41.3958 98.3518L93.3573 68.3518C92.5779 67.9318 92.4653 68.0468 92.4567 68.0518L40.4951 98.0518Z" fill="#8BC5E4"/>
<path d="M162.579 332.377C165.853 334.267 168.408 338.732 168.408 342.562L220.369 312.562C220.369 308.732 217.814 304.267 214.541 302.377L162.579 332.377Z" fill="#8BC5E4"/>
<path d="M168.407 402.112C168.407 404.052 167.748 405.395 166.671 405.999L218.632 375.999C219.709 375.395 220.368 374.052 220.369 372.112L168.407 402.112Z" fill="#8BC5E4"/>
<path d="M166.66 406.005C165.618 406.584 164.188 406.475 162.584 405.55L214.545 375.55C216.149 376.475 217.579 376.584 218.621 376.005L166.66 406.005Z" fill="#8BC5E4"/>
<path d="M10.6262 317.817C7.35265 315.927 4.79785 311.472 4.79785 307.652L56.7593 277.652C56.7593 281.472 59.3142 285.927 62.5878 287.817L10.6262 317.817Z" fill="#8BC5E4"/>
<path d="M4.79785 248.102C4.79805 246.157 5.45705 244.809 6.53405 244.201L58.4956 214.201C57.4186 214.809 56.7595 216.157 56.7593 218.102L4.79785 248.102Z" fill="#8BC5E4"/>
<path d="M6.53223 244.202C7.57523 243.612 9.01123 243.716 10.6212 244.644L62.5827 214.644C60.9727 213.716 59.5367 213.612 58.4937 214.202L6.53223 244.202Z" fill="#8BC5E4"/>
<path d="M10.6261 244.647L162.579 332.377C165.853 334.267 168.407 338.732 168.407 342.562V402.112C168.407 405.932 165.853 407.437 162.579 405.547L10.6261 317.817C7.35256 315.927 4.79778 311.472 4.79778 307.652V248.102C4.79778 244.272 7.35256 242.757 10.6261 244.647ZM10.6261 239.047C4.78046 235.672 0 238.492 0 245.332V304.882C0 311.712 4.78046 320.052 10.6261 323.427L162.579 411.157C168.425 414.532 173.205 411.712 173.205 404.882V345.332C173.205 338.492 168.425 330.152 162.579 326.777L10.6261 239.047ZM10.6261 37.0367L162.579 124.767C165.853 126.657 168.407 131.112 168.407 134.942V313.452C168.407 317.272 165.853 318.787 162.579 316.897L10.6261 229.167C7.35256 227.277 4.79778 222.812 4.79778 218.992V40.4817C4.79778 36.6517 7.35256 35.1467 10.6261 37.0367ZM10.6261 31.4267C4.78046 28.0517 0 30.8717 0 37.7117V216.222C0 223.052 4.78046 231.402 10.6261 234.777L162.579 322.507C168.425 325.882 173.205 323.052 173.205 316.222V137.712C173.205 130.872 168.425 122.532 162.579 119.157L10.6261 31.4267ZM65.0558 172.302C67.1256 182.177 72.8847 192.332 80.2892 199.147C72.1919 202.642 64.5189 204.982 57.9717 206.052C52.8016 206.897 48.3069 206.932 45.0853 206.262C43.4572 205.912 42.1668 205.387 41.3874 204.907C40.6166 204.432 40.504 204.187 40.4953 204.172L40.4943 204.17C40.478 204.143 40.3306 203.901 40.3221 203.012C40.3048 202.102 40.5127 200.712 41.0496 199.142C42.1148 196.007 44.4271 192.122 47.7873 188.092C52.0395 182.977 57.9371 177.522 65.0558 172.302ZM108.141 197.147C115.259 210.607 121.166 222.877 125.418 232.912C128.778 240.822 131.09 247.377 132.155 251.742C132.692 253.932 132.9 255.562 132.892 256.457C132.875 257.331 132.727 257.403 132.711 257.411L132.71 257.412C132.701 257.427 132.588 257.532 131.818 257.117C131.038 256.697 129.748 255.732 128.12 254.202C124.898 251.152 120.404 245.927 115.233 239.122C108.686 230.482 101.013 219.282 92.9159 206.427C100.32 208.152 106.071 204.642 108.141 197.147ZM41.396 98.3517C42.1668 98.7667 43.4572 99.7317 45.0853 101.262C48.3069 104.322 52.8016 109.537 57.9717 116.352C64.5189 124.982 72.1919 136.182 80.2892 149.037C72.8847 147.312 67.1343 150.822 65.0645 158.317C57.9458 144.857 52.0395 132.587 47.7873 122.562C44.4271 114.642 42.1148 108.087 41.0496 103.722C40.5127 101.542 40.3048 99.9017 40.3221 99.0117C40.3308 98.1067 40.4867 98.0667 40.4953 98.0517C40.504 98.0467 40.6166 97.9317 41.396 98.3517ZM131.818 150.557C132.588 151.032 132.701 151.277 132.71 151.292L132.711 151.294C132.727 151.32 132.875 151.563 132.892 152.457C132.9 153.362 132.692 154.752 132.155 156.322C131.09 159.457 128.778 163.342 125.418 167.382C121.166 172.487 115.268 177.942 108.149 183.172C106.071 173.292 100.32 163.142 92.9159 156.327C101.031 152.842 108.695 150.497 115.233 149.412C120.404 148.577 124.898 148.542 128.137 149.212C129.748 149.552 131.038 150.077 131.818 150.557ZM86.8364 105.627L75.223 111.902L83.4415 116.647V144.237C75.5261 131.747 67.9917 120.787 61.3666 112.052C55.9193 104.867 51.1128 99.1917 46.9905 95.2817C44.9294 93.3417 43.0328 91.8067 41.1795 90.8067C39.3262 89.8168 37.3777 89.3717 35.966 90.2367C34.5631 91.0967 34.0088 93.0567 33.9742 95.2067C33.9395 97.3567 34.3379 99.7967 35.0134 102.587C36.3817 108.167 38.9452 115.217 42.4785 123.557C46.7047 133.527 52.3512 145.317 59.0803 158.142L35.8881 144.752V135.162L24.7856 142.312L35.8881 161.752V152.842L58.5606 165.932C52.0568 170.877 46.5922 176.012 42.4785 180.957C38.9452 185.217 36.3817 189.317 35.0221 193.322C34.3379 195.327 33.9395 197.307 33.9742 199.497C34.0002 201.672 34.5631 204.287 35.966 206.757C37.369 209.247 39.3262 211.067 41.1708 212.202C43.0328 213.347 44.9294 214.002 46.9819 214.437C51.1128 215.292 55.9193 215.177 61.3666 214.282C67.9917 213.197 75.5261 210.927 83.4415 207.587V235.177L75.223 230.432L86.8364 250.107L97.9821 243.572L90.3611 239.172V212.172C98.0601 224.267 105.378 234.902 111.839 243.422C117.286 250.607 122.092 256.272 126.223 260.187C128.276 262.132 130.172 263.657 132.034 264.662C133.879 265.657 135.836 266.097 137.239 265.227C138.642 264.377 139.196 262.407 139.231 260.267C139.266 258.117 138.867 255.677 138.192 252.887C136.823 247.307 134.26 240.247 130.727 231.907C126.622 222.217 121.148 210.767 114.644 198.312L137.317 211.402V220.312L148.419 213.692L137.317 193.722V203.312L114.125 189.922C120.854 184.867 126.509 179.602 130.727 174.507C134.26 170.247 136.823 166.157 138.183 162.152C138.867 160.147 139.266 158.167 139.231 155.977C139.196 153.787 138.642 151.177 137.239 148.707C135.836 146.217 133.879 144.407 132.026 143.257C130.172 142.117 128.276 141.462 126.223 141.047C122.092 140.172 117.286 140.297 111.839 141.182C105.378 142.242 98.0601 144.427 90.3611 147.632V120.642L97.9821 125.042L86.8364 105.627Z" fill="#8BC5E4"/>
<path fill-rule="evenodd" clip-rule="evenodd" d="M10.6261 37.0367L162.579 124.767C165.853 126.657 168.407 131.112 168.407 134.942V313.452C168.407 317.272 165.853 318.787 162.579 316.897L10.6261 229.167C7.35256 227.277 4.79778 222.812 4.79778 218.992V40.4817C4.79778 36.6517 7.35256 35.1467 10.6261 37.0367ZM75.223 111.902L86.8364 105.627L97.9821 125.042L90.3611 120.642V147.632C98.0601 144.427 105.378 142.242 111.839 141.182C117.286 140.297 122.092 140.172 126.223 141.047C128.276 141.462 130.172 142.117 132.026 143.257C133.879 144.407 135.836 146.217 137.239 148.707C138.642 151.177 139.196 153.787 139.231 155.977C139.266 158.167 138.867 160.147 138.183 162.152C136.823 166.157 134.26 170.247 130.727 174.507C126.509 179.602 120.854 184.867 114.125 189.922L137.317 203.312V193.722L148.419 213.692L137.317 220.312V211.402L114.644 198.312C121.148 210.767 126.622 222.217 130.727 231.907C134.26 240.247 136.823 247.307 138.192 252.887C138.867 255.677 139.266 258.117 139.231 260.267C139.196 262.407 138.642 264.377 137.239 265.227C135.836 266.097 133.879 265.657 132.034 264.662C130.172 263.657 128.276 262.132 126.223 260.187C122.092 256.272 117.286 250.607 111.839 243.422C105.378 234.902 98.0601 224.267 90.3611 212.172V239.172L97.9821 243.572L86.8364 250.107L75.223 230.432L83.4415 235.177V207.587C75.5261 210.927 67.9917 213.197 61.3666 214.282C55.9193 215.177 51.1128 215.292 46.9819 214.437C44.9294 214.002 43.0328 213.347 41.1708 212.202C39.3262 211.067 37.369 209.247 35.966 206.757C34.5631 204.287 34.0002 201.672 33.9742 199.497C33.9395 197.307 34.3379 195.327 35.0221 193.322C36.3817 189.317 38.9452 185.217 42.4785 180.957C46.5922 176.012 52.0568 170.877 58.5606 165.932L35.8881 152.842V161.752L24.7856 142.312L35.8881 135.162V144.752L59.0803 158.142C52.3512 145.317 46.7047 133.527 42.4785 123.557C38.9452 115.217 36.3817 108.167 35.0134 102.587C34.3379 99.7967 33.9395 97.3567 33.9742 95.2067C34.0088 93.0567 34.5631 91.0967 35.966 90.2367C37.3777 89.3717 39.3262 89.8168 41.1795 90.8067C43.0328 91.8067 44.9294 93.3417 46.9905 95.2817C51.1128 99.1917 55.9193 104.867 61.3666 112.052C67.9917 120.787 75.5261 131.747 83.4415 144.237V116.647L75.223 111.902Z" fill="white"/>
<path d="M108.141 197.147C115.259 210.607 121.166 222.877 125.418 232.912C128.778 240.822 131.09 247.377 132.155 251.742C132.692 253.932 132.9 255.562 132.892 256.457C132.875 257.331 132.727 257.403 132.711 257.411L132.71 257.412C132.701 257.427 132.588 257.532 131.818 257.117C131.038 256.697 129.748 255.732 128.12 254.202C124.898 251.152 120.404 245.927 115.233 239.122C108.686 230.482 101.013 219.282 92.9159 206.427C100.32 208.152 106.071 204.642 108.141 197.147Z" fill="white"/>
<path d="M65.0558 172.302C67.1256 182.177 72.8847 192.332 80.2892 199.147C72.1919 202.642 64.5189 204.982 57.9717 206.052C52.8016 206.897 48.3069 206.932 45.0853 206.262C43.4572 205.912 42.1668 205.387 41.3874 204.907C40.6166 204.432 40.504 204.187 40.4953 204.172L40.4943 204.17C40.478 204.143 40.3306 203.901 40.3221 203.012C40.3048 202.102 40.5127 200.712 41.0496 199.142C42.1148 196.007 44.4271 192.122 47.7873 188.092C52.0395 182.977 57.9371 177.522 65.0558 172.302Z" fill="white"/>
<path d="M131.818 150.557C132.588 151.032 132.701 151.277 132.71 151.292L132.711 151.294C132.727 151.32 132.875 151.563 132.892 152.457C132.9 153.362 132.692 154.752 132.155 156.322C131.09 159.457 128.778 163.342 125.418 167.382C121.166 172.487 115.268 177.942 108.149 183.172C106.071 173.292 100.32 163.142 92.9159 156.327C101.031 152.842 108.695 150.497 115.233 149.412C120.404 148.577 124.898 148.542 128.137 149.212C129.748 149.552 131.038 150.077 131.818 150.557Z" fill="white"/>
<path d="M41.396 98.3517C42.1668 98.7667 43.4572 99.7317 45.0853 101.262C48.3069 104.322 52.8016 109.537 57.9717 116.352C64.5189 124.982 72.1919 136.182 80.2892 149.037C72.8847 147.312 67.1343 150.822 65.0645 158.317C57.9458 144.857 52.0395 132.587 47.7873 122.562C44.4271 114.642 42.1148 108.087 41.0496 103.722C40.5127 101.542 40.3048 99.9017 40.3221 99.0117C40.3308 98.1067 40.4867 98.0667 40.4953 98.0517C40.504 98.0467 40.6166 97.9317 41.396 98.3517Z" fill="white"/>
<path d="M10.6261 244.647L162.579 332.377C165.853 334.267 168.407 338.732 168.407 342.562V402.112C168.407 405.932 165.853 407.437 162.579 405.547L10.6261 317.817C7.35256 315.927 4.79778 311.472 4.79778 307.652V248.102C4.79778 244.272 7.35256 242.757 10.6261 244.647Z" fill="white"/>
</svg>
