<svg width="226" height="418" viewBox="0 0 226 418" fill="none" xmlns="http://www.w3.org/2000/svg">
<path d="M62.5875 332.376L214.54 244.646L162.579 214.646L10.626 302.376L62.5875 332.376Z" fill="#8BC5E4"/>
<path d="M220.369 248.102V307.652L168.407 277.652V218.102L220.369 248.102Z" fill="#8BC5E4"/>
<path d="M214.54 317.816L62.5875 405.546L10.626 375.546L162.579 287.816L214.54 317.816Z" fill="#8BC5E4"/>
<path d="M56.7593 402.112V342.562L4.79785 312.562V372.112L56.7593 402.112Z" fill="#8BC5E4"/>
<path d="M62.5875 332.376L10.626 302.376L62.5875 332.376Z" fill="#8BC5E4"/>
<path d="M51.9615 345.332V404.882L0 374.882V315.332L51.9615 345.332Z" fill="#8BC5E4"/>
<path d="M62.5875 411.157L214.54 323.427L162.579 293.427L10.626 381.157L62.5875 411.157Z" fill="#8BC5E4"/>
<path d="M225.167 304.882V245.332L173.205 215.332V274.882L225.167 304.882Z" fill="#8BC5E4"/>
<path d="M214.54 239.046L62.5875 326.776L10.626 296.776L162.579 209.046L214.54 239.046Z" fill="#8BC5E4"/>
<path d="M62.5875 326.777L10.626 296.777L62.5875 326.777Z" fill="#8BC5E4"/>
<path d="M62.5875 124.767L214.54 37.0366L162.579 7.03662L10.626 94.7666L62.5875 124.767Z" fill="#8BC5E4"/>
<path d="M220.369 40.4814V218.991L168.407 188.991V10.4814L220.369 40.4814Z" fill="#8BC5E4"/>
<path d="M214.54 229.167L62.5875 316.897L10.626 286.897L162.579 199.167L214.54 229.167Z" fill="#8BC5E4"/>
<path d="M56.7593 313.451V134.941L4.79785 104.941V283.451L56.7593 313.451Z" fill="#8BC5E4"/>
<path d="M62.5875 124.767L10.626 94.7666L62.5875 124.767Z" fill="#8BC5E4"/>
<path d="M51.9615 137.711V316.221L0 286.221V107.711L51.9615 137.711Z" fill="#8BC5E4"/>
<path d="M62.5875 322.507L214.54 234.777L162.579 204.777L10.626 292.507L62.5875 322.507Z" fill="#8BC5E4"/>
<path d="M225.167 216.221V37.7114L173.205 7.71143V186.221L225.167 216.221Z" fill="#8BC5E4"/>
<path d="M214.54 31.4265L62.5875 119.157L10.626 89.1565L162.579 1.42651L214.54 31.4265Z" fill="#8BC5E4"/>
<path d="M62.5875 119.156L10.626 89.1565L62.5875 119.156Z" fill="#8BC5E4"/>
<path d="M92.4567 257.411L92.4557 257.411L40.4941 227.411L40.4952 227.411L92.4567 257.411Z" fill="#8BC5E4"/>
<path d="M117.017 197.181L65.0557 167.181L117.017 197.181Z" fill="#8BC5E4"/>
<path d="M184.672 204.17L184.671 204.171L132.709 174.171L132.711 174.17L184.672 204.17Z" fill="#8BC5E4"/>
<path d="M160.102 172.277L108.141 142.277L160.102 172.277Z" fill="#8BC5E4"/>
<path d="M93.3575 150.552L41.396 120.552L93.3575 150.552Z" fill="#8BC5E4"/>
<path d="M184.671 98.0515L184.672 98.0521L132.711 68.0521L132.709 68.0515L184.671 98.0515Z" fill="#8BC5E4"/>
<path d="M183.779 98.3464L131.818 68.3464L183.779 98.3464Z" fill="#8BC5E4"/>
<path d="M138.798 105.356L127.184 125.041L75.2227 95.0414L86.8361 75.3564L138.798 105.356Z" fill="#8BC5E4"/>
<path d="M127.184 125.041L135.403 120.296L83.4413 90.2964L75.2227 95.0414L127.184 125.041Z" fill="#8BC5E4"/>
<path d="M135.403 120.296V147.886L83.4414 117.886V90.2964L135.403 120.296Z" fill="#8BC5E4"/>
<path d="M111.042 189.921L87.8497 203.311L35.8882 173.311L59.0803 159.921L111.042 189.921Z" fill="#8BC5E4"/>
<path d="M87.8497 203.311V193.721L35.8882 163.721V173.311L87.8497 203.311Z" fill="#8BC5E4"/>
<path d="M87.8496 193.721L76.7471 213.691L24.7856 183.691L35.8881 163.721L87.8496 193.721Z" fill="#8BC5E4"/>
<path d="M76.7471 213.691L87.8496 220.311L35.8881 190.311L24.7856 183.691L76.7471 213.691Z" fill="#8BC5E4"/>
<path d="M87.8497 220.312V211.402L35.8882 181.402V190.312L87.8497 220.312Z" fill="#8BC5E4"/>
<path d="M87.8497 211.402L110.522 198.312L58.5607 168.312L35.8882 181.402L87.8497 211.402Z" fill="#8BC5E4"/>
<path d="M135.403 211.237V238.827L83.4414 208.827V181.237L135.403 211.237Z" fill="#8BC5E4"/>
<path d="M135.403 238.826L127.184 243.571L75.2227 213.571L83.4413 208.826L135.403 238.826Z" fill="#8BC5E4"/>
<path d="M127.184 243.572L138.798 249.837L86.8361 219.837L75.2227 213.572L127.184 243.572Z" fill="#8BC5E4"/>
<path d="M138.798 249.836L149.944 230.431L97.9822 200.431L86.8364 219.836L138.798 249.836Z" fill="#8BC5E4"/>
<path d="M149.943 230.431L142.322 234.831L90.3608 204.831L97.9818 200.431L149.943 230.431Z" fill="#8BC5E4"/>
<path d="M142.322 234.832V207.832L90.3608 177.832V204.832L142.322 234.832Z" fill="#8BC5E4"/>
<path d="M166.606 165.932L189.279 152.842L137.317 122.842L114.645 135.932L166.606 165.932Z" fill="#8BC5E4"/>
<path d="M189.278 152.842V161.752L137.317 131.752V122.842L189.278 152.842Z" fill="#8BC5E4"/>
<path d="M189.278 161.752L200.381 142.312L148.419 112.312L137.317 131.752L189.278 161.752Z" fill="#8BC5E4"/>
<path d="M200.381 142.312L189.278 135.162L137.317 105.162L148.419 112.312L200.381 142.312Z" fill="#8BC5E4"/>
<path d="M189.278 135.162V144.752L137.317 114.752V105.162L189.278 135.162Z" fill="#8BC5E4"/>
<path d="M189.278 144.751L166.086 158.141L114.125 128.141L137.317 114.751L189.278 144.751Z" fill="#8BC5E4"/>
<path d="M142.322 143.292V116.302L90.3608 86.3015V113.292L142.322 143.292Z" fill="#8BC5E4"/>
<path d="M142.322 116.302L149.943 111.902L97.9818 81.9016L90.3608 86.3016L142.322 116.302Z" fill="#8BC5E4"/>
<path d="M149.944 111.901L138.798 105.356L86.8364 75.3564L97.9822 81.9014L149.944 111.901Z" fill="#8BC5E4"/>
<path d="M138.798 105.356L86.8364 75.3564L138.798 105.356Z" fill="#8BC5E4"/>
<path d="M62.5875 124.767L214.54 37.0366L162.579 7.03662L10.626 94.7666L62.5875 124.767Z" fill="#8BC5E4"/>
<path d="M220.369 40.4814V218.991L168.407 188.991V10.4814L220.369 40.4814Z" fill="#8BC5E4"/>
<path d="M214.54 229.167L62.5875 316.897L10.626 286.897L162.579 199.167L214.54 229.167Z" fill="#8BC5E4"/>
<path d="M56.7593 313.451V134.941L4.79785 104.941V283.451L56.7593 313.451Z" fill="#8BC5E4"/>
<path d="M62.5875 124.767L10.626 94.7666L62.5875 124.767Z" fill="#8BC5E4"/>
<path d="M127.184 125.041L138.798 105.356L86.8361 75.3564L75.2227 95.0414L127.184 125.041Z" fill="#8BC5E4"/>
<path d="M138.798 105.356L149.944 111.901L97.9822 81.9014L86.8364 75.3564L138.798 105.356Z" fill="#8BC5E4"/>
<path d="M149.943 111.902L142.322 116.302L90.3608 86.3016L97.9818 81.9016L149.943 111.902Z" fill="#8BC5E4"/>
<path d="M142.322 116.302V143.292L90.3608 113.292V86.3015L142.322 116.302Z" fill="#8BC5E4"/>
<path d="M166.086 158.141L189.278 144.751L137.317 114.751L114.125 128.141L166.086 158.141Z" fill="#8BC5E4"/>
<path d="M189.278 144.752V135.162L137.317 105.162V114.752L189.278 144.752Z" fill="#8BC5E4"/>
<path d="M189.278 135.162L200.381 142.312L148.419 112.312L137.317 105.162L189.278 135.162Z" fill="#8BC5E4"/>
<path d="M200.381 142.312L189.278 161.752L137.317 131.752L148.419 112.312L200.381 142.312Z" fill="#8BC5E4"/>
<path d="M189.278 161.752V152.842L137.317 122.842V131.752L189.278 161.752Z" fill="#8BC5E4"/>
<path d="M189.279 152.842L166.606 165.932L114.645 135.932L137.317 122.842L189.279 152.842Z" fill="#8BC5E4"/>
<path d="M142.322 207.832V234.832L90.3608 204.832V177.832L142.322 207.832Z" fill="#8BC5E4"/>
<path d="M142.322 234.831L149.943 230.431L97.9818 200.431L90.3608 204.831L142.322 234.831Z" fill="#8BC5E4"/>
<path d="M149.944 230.431L138.798 249.836L86.8364 219.836L97.9822 200.431L149.944 230.431Z" fill="#8BC5E4"/>
<path d="M138.798 249.837L127.184 243.572L75.2227 213.572L86.8361 219.837L138.798 249.837Z" fill="#8BC5E4"/>
<path d="M127.184 243.571L135.403 238.826L83.4413 208.826L75.2227 213.571L127.184 243.571Z" fill="#8BC5E4"/>
<path d="M135.403 238.827V211.237L83.4414 181.237V208.827L135.403 238.827Z" fill="#8BC5E4"/>
<path d="M110.522 198.312L87.8497 211.402L35.8882 181.402L58.5607 168.312L110.522 198.312Z" fill="#8BC5E4"/>
<path d="M87.8497 211.402V220.312L35.8882 190.312V181.402L87.8497 211.402Z" fill="#8BC5E4"/>
<path d="M87.8496 220.311L76.7471 213.691L24.7856 183.691L35.8881 190.311L87.8496 220.311Z" fill="#8BC5E4"/>
<path d="M76.7471 213.691L87.8496 193.721L35.8881 163.721L24.7856 183.691L76.7471 213.691Z" fill="#8BC5E4"/>
<path d="M87.8497 193.721V203.311L35.8882 173.311V163.721L87.8497 193.721Z" fill="#8BC5E4"/>
<path d="M87.8497 203.311L111.042 189.921L59.0803 159.921L35.8882 173.311L87.8497 203.311Z" fill="#8BC5E4"/>
<path d="M135.403 147.886V120.296L83.4414 90.2964V117.886L135.403 147.886Z" fill="#8BC5E4"/>
<path d="M135.403 120.296L127.184 125.041L75.2227 95.0414L83.4413 90.2964L135.403 120.296Z" fill="#8BC5E4"/>
<path d="M127.184 125.042L75.2227 95.0415L127.184 125.042Z" fill="#8BC5E4"/>
<path d="M184.672 204.17L184.671 204.171L132.709 174.171L132.711 174.17L184.672 204.17Z" fill="#8BC5E4"/>
<path d="M160.102 172.277L108.141 142.277L160.102 172.277Z" fill="#8BC5E4"/>
<path d="M92.4567 257.411L92.4557 257.411L40.4941 227.411L40.4952 227.411L92.4567 257.411Z" fill="#8BC5E4"/>
<path d="M117.017 197.181L65.0557 167.181L117.017 197.181Z" fill="#8BC5E4"/>
<path d="M184.671 98.0515L184.672 98.0521L132.711 68.0521L132.709 68.0515L184.671 98.0515Z" fill="#8BC5E4"/>
<path d="M183.779 98.3464L131.818 68.3464L183.779 98.3464Z" fill="#8BC5E4"/>
<path d="M93.3575 150.552L41.396 120.552L93.3575 150.552Z" fill="#8BC5E4"/>
<path d="M62.5875 332.376L214.54 244.646L162.579 214.646L10.626 302.376L62.5875 332.376Z" fill="#8BC5E4"/>
<path d="M220.369 248.102V307.652L168.407 277.652V218.102L220.369 248.102Z" fill="#8BC5E4"/>
<path d="M214.54 317.816L62.5875 405.546L10.626 375.546L162.579 287.816L214.54 317.816Z" fill="#8BC5E4"/>
<path d="M56.7593 402.112V342.562L4.79785 312.562V372.112L56.7593 402.112Z" fill="#8BC5E4"/>
<path d="M62.5875 332.376L10.626 302.376L62.5875 332.376Z" fill="#8BC5E4"/>
<path d="M214.54 244.647C216.151 243.717 217.588 243.611 218.632 244.201L166.671 214.201C165.627 213.611 164.19 213.717 162.579 214.647L214.54 244.647Z" fill="#8BC5E4"/>
<path d="M218.631 244.199C219.708 244.806 220.367 246.153 220.368 248.095L168.407 218.095C168.406 216.153 167.747 214.806 166.67 214.199L218.631 244.199Z" fill="#8BC5E4"/>
<path d="M220.369 307.652C220.369 311.472 217.814 315.927 214.54 317.817L162.579 287.817C165.852 285.927 168.407 281.472 168.407 277.652L220.369 307.652Z" fill="#8BC5E4"/>
<path d="M62.5873 405.546C60.9762 406.476 59.5392 406.584 58.4952 405.998L6.53369 375.998C7.57769 376.584 9.01469 376.476 10.6258 375.546L62.5873 405.546Z" fill="#8BC5E4"/>
<path d="M58.4964 405.999C57.4194 405.395 56.7603 404.054 56.7593 402.117L4.79785 372.117C4.79885 374.054 5.45785 375.395 6.53485 375.999L58.4964 405.999Z" fill="#8BC5E4"/>
<path d="M56.7593 342.561C56.7593 338.731 59.3142 334.266 62.5877 332.376L10.6262 302.376C7.35255 304.266 4.79785 308.731 4.79785 312.561L56.7593 342.561Z" fill="#8BC5E4"/>
<path d="M62.5876 326.777C56.742 330.152 51.9615 338.492 51.9615 345.332L0 315.332C0 308.492 4.7804 300.152 10.6261 296.777L62.5876 326.777Z" fill="#8BC5E4"/>
<path d="M51.9615 404.882C51.9615 408.357 53.1995 410.794 55.1845 411.905L3.223 381.905C1.238 380.794 0 378.357 0 374.882L51.9615 404.882Z" fill="#8BC5E4"/>
<path d="M55.1812 411.904C57.0972 412.977 59.7092 412.816 62.5792 411.162L10.6177 381.162C7.74773 382.816 5.13573 382.977 3.21973 381.904L55.1812 411.904Z" fill="#8BC5E4"/>
<path d="M214.54 323.427C220.386 320.052 225.166 311.712 225.166 304.882L173.205 274.882C173.205 281.712 168.424 290.052 162.579 293.427L214.54 323.427Z" fill="#8BC5E4"/>
<path d="M225.167 245.331C225.167 241.858 223.934 239.421 221.955 238.305L169.993 208.305C171.972 209.421 173.205 211.858 173.205 215.331L225.167 245.331Z" fill="#8BC5E4"/>
<path d="M221.946 238.302C220.03 237.227 217.418 237.388 214.549 239.042L162.588 209.042C165.457 207.388 168.069 207.227 169.985 208.302L221.946 238.302Z" fill="#8BC5E4"/>
<path d="M214.54 37.0364C216.151 36.1064 217.588 35.9984 218.632 36.5854L166.671 6.58544C165.627 5.99844 164.19 6.10644 162.579 7.03644L214.54 37.0364Z" fill="#8BC5E4"/>
<path d="M218.631 36.5845C219.708 37.1895 220.367 38.5335 220.368 40.4755L168.407 10.4755C168.406 8.53347 167.747 7.18947 166.67 6.58447L218.631 36.5845Z" fill="#8BC5E4"/>
<path d="M220.369 218.991C220.369 222.811 217.814 227.276 214.54 229.166L162.579 199.166C165.852 197.276 168.407 192.811 168.407 188.991L220.369 218.991Z" fill="#8BC5E4"/>
<path d="M62.5873 316.896C60.9762 317.826 59.5392 317.932 58.4952 317.343L6.53369 287.343C7.57769 287.932 9.01469 287.826 10.6258 286.896L62.5873 316.896Z" fill="#8BC5E4"/>
<path d="M58.4964 317.345C57.4194 316.739 56.7603 315.395 56.7593 313.458L4.79785 283.458C4.79885 285.395 5.45785 286.739 6.53485 287.345L58.4964 317.345Z" fill="#8BC5E4"/>
<path d="M56.7593 134.942C56.7593 131.112 59.3142 126.657 62.5877 124.767L10.6262 94.7666C7.35255 96.6566 4.79785 101.112 4.79785 104.942L56.7593 134.942Z" fill="#8BC5E4"/>
<path d="M62.5876 119.156C56.742 122.531 51.9615 130.871 51.9615 137.711L0 107.711C0 100.871 4.7804 92.5315 10.6261 89.1565L62.5876 119.156Z" fill="#8BC5E4"/>
<path d="M51.9615 316.221C51.9615 319.696 53.1995 322.136 55.1845 323.249L3.223 293.249C1.238 292.136 0 289.696 0 286.221L51.9615 316.221Z" fill="#8BC5E4"/>
<path d="M55.1812 323.248C57.0972 324.324 59.7092 324.165 62.5792 322.511L10.6177 292.511C7.74773 294.165 5.13573 294.324 3.21973 293.248L55.1812 323.248Z" fill="#8BC5E4"/>
<path d="M214.54 234.776C220.386 231.401 225.166 223.051 225.166 216.221L173.205 186.221C173.205 193.051 168.424 201.401 162.579 204.776L214.54 234.776Z" fill="#8BC5E4"/>
<path d="M225.167 37.7115C225.167 34.2385 223.934 31.8015 221.955 30.6855L169.993 0.685547C171.972 1.80155 173.205 4.23855 173.205 7.71155L225.167 37.7115Z" fill="#8BC5E4"/>
<path d="M221.946 30.6814C220.03 29.6064 217.418 29.7674 214.549 31.4214L162.588 1.42141C165.457 -0.232591 168.069 -0.393591 169.985 0.681409L221.946 30.6814Z" fill="#8BC5E4"/>
<path d="M117.017 197.181C118.088 201.055 120.148 203.863 122.912 205.43L70.9509 175.43C68.1869 173.863 66.1269 171.055 65.0557 167.181L117.017 197.181Z" fill="#8BC5E4"/>
<path d="M122.91 205.429C125.486 206.889 128.674 207.273 132.245 206.437L80.2837 176.437C76.7127 177.273 73.5247 176.889 70.9487 175.429L122.91 205.429Z" fill="#8BC5E4"/>
<path d="M132.251 206.437C124.153 219.282 116.48 230.482 109.933 239.112L57.9717 209.112C64.5189 200.482 72.1919 189.282 80.2892 176.437L132.251 206.437Z" fill="#8BC5E4"/>
<path d="M109.933 239.112C104.763 245.927 100.269 251.152 97.0469 254.202L45.0854 224.202C48.307 221.152 52.8016 215.927 57.9718 209.112L109.933 239.112Z" fill="#8BC5E4"/>
<path d="M97.0467 254.201C95.4186 255.731 94.1282 256.696 93.3488 257.116L41.3872 227.116C42.1667 226.696 43.457 225.731 45.0852 224.201L97.0467 254.201Z" fill="#8BC5E4"/>
<path d="M93.3487 257.116C92.5779 257.531 92.4653 257.416 92.4566 257.411L40.4951 227.411C40.5038 227.416 40.6164 227.531 41.3871 227.116L93.3487 257.116Z" fill="#8BC5E4"/>
<path d="M92.456 257.411C92.4397 257.403 92.2923 257.331 92.2838 256.451L40.3223 226.451C40.3307 227.331 40.4782 227.403 40.4944 227.411L92.456 257.411Z" fill="#8BC5E4"/>
<path d="M92.2833 256.451C92.266 255.561 92.4739 253.931 93.0108 251.741L41.0493 221.741C40.5123 223.931 40.3045 225.561 40.3218 226.451L92.2833 256.451Z" fill="#8BC5E4"/>
<path d="M93.0108 251.742C94.076 247.377 96.3883 240.822 99.7485 232.912L47.787 202.912C44.4268 210.822 42.1145 217.377 41.0493 221.742L93.0108 251.742Z" fill="#8BC5E4"/>
<path d="M99.7486 232.911C104.001 222.886 109.898 210.621 117.017 197.181L65.0556 167.181C57.9369 180.621 52.0392 192.886 47.7871 202.911L99.7486 232.911Z" fill="#8BC5E4"/>
<path d="M160.102 172.277C160.485 172.558 160.864 172.84 161.239 173.123L109.277 143.123C108.902 142.84 108.523 142.558 108.141 142.277L160.102 172.277Z" fill="#8BC5E4"/>
<path d="M161.238 173.123C167.846 178.098 173.349 183.237 177.373 188.084L125.412 158.084C121.388 153.237 115.885 148.098 109.277 143.123L161.238 173.123Z" fill="#8BC5E4"/>
<path d="M177.379 188.092C180.739 192.122 183.051 196.007 184.117 199.142L132.155 169.142C131.09 166.007 128.778 162.122 125.417 158.092L177.379 188.092Z" fill="#8BC5E4"/>
<path d="M184.117 199.142C184.654 200.712 184.862 202.102 184.853 203.007L132.891 173.007C132.9 172.102 132.692 170.712 132.155 169.142L184.117 199.142Z" fill="#8BC5E4"/>
<path d="M184.853 203.007C184.836 203.9 184.689 204.143 184.672 204.17L132.711 174.17C132.727 174.143 132.875 173.9 132.892 173.007L184.853 203.007Z" fill="#8BC5E4"/>
<path d="M184.671 204.171C184.663 204.196 184.55 204.431 183.779 204.906L131.818 174.906C132.589 174.431 132.701 174.196 132.71 174.171L184.671 204.171Z" fill="#8BC5E4"/>
<path d="M183.779 204.906C183 205.386 181.709 205.911 180.081 206.261L128.12 176.261C129.748 175.911 131.038 175.386 131.818 174.906L183.779 204.906Z" fill="#8BC5E4"/>
<path d="M180.081 206.262C176.86 206.932 172.365 206.897 167.195 206.062L115.233 176.062C120.404 176.897 124.898 176.932 128.12 176.262L180.081 206.262Z" fill="#8BC5E4"/>
<path d="M167.195 206.061C160.999 205.039 153.795 202.889 146.178 199.691L94.2168 169.691C101.834 172.889 109.038 175.039 115.233 176.061L167.195 206.061Z" fill="#8BC5E4"/>
<path d="M146.172 199.688C145.743 199.509 145.314 199.325 144.883 199.139L92.9219 169.139C93.3529 169.325 93.7819 169.509 94.2109 169.688L146.172 199.688Z" fill="#8BC5E4"/>
<path d="M144.877 199.137C152.282 192.312 158.032 182.162 160.102 172.277L108.14 142.277C106.071 152.162 100.32 162.312 92.9155 169.137L144.877 199.137Z" fill="#8BC5E4"/>
<path d="M93.3575 150.551C94.1283 150.076 95.4187 149.551 97.0468 149.201L45.0853 119.201C43.4571 119.551 42.1668 120.076 41.396 120.551L93.3575 150.551Z" fill="#8BC5E4"/>
<path d="M97.0469 149.202C100.269 148.542 104.763 148.567 109.933 149.412L57.9718 119.412C52.8016 118.567 48.307 118.542 45.0854 119.202L97.0469 149.202Z" fill="#8BC5E4"/>
<path d="M109.933 149.412C116.128 150.425 123.332 152.574 130.949 155.772L78.988 125.772C71.371 122.574 64.167 120.425 57.9717 119.412L109.933 149.412Z" fill="#8BC5E4"/>
<path d="M130.956 155.774C131.385 155.953 131.814 156.137 132.245 156.323L80.2831 126.323C79.8521 126.137 79.4231 125.953 78.9941 125.774L130.956 155.774Z" fill="#8BC5E4"/>
<path d="M132.251 156.326C124.846 163.151 119.096 173.301 117.026 183.186L65.0645 153.186C67.1343 143.301 72.8847 133.151 80.2892 126.326L132.251 156.326Z" fill="#8BC5E4"/>
<path d="M117.026 183.187C116.643 182.906 116.264 182.624 115.889 182.341L63.9277 152.341C64.3027 152.624 64.6817 152.906 65.0642 153.187L117.026 183.187Z" fill="#8BC5E4"/>
<path d="M115.89 182.34C109.281 177.365 103.778 172.226 99.7554 167.388L47.7939 137.388C51.8169 142.226 57.3199 147.365 63.9289 152.34L115.89 182.34Z" fill="#8BC5E4"/>
<path d="M99.7485 167.382C96.3883 163.342 94.076 159.457 93.0108 156.322L41.0493 126.322C42.1145 129.457 44.4268 133.342 47.787 137.382L99.7485 167.382Z" fill="#8BC5E4"/>
<path d="M93.0108 156.321C92.4739 154.761 92.266 153.361 92.2833 152.451L40.3218 122.451C40.3045 123.361 40.5123 124.761 41.0493 126.321L93.0108 156.321Z" fill="#8BC5E4"/>
<path d="M92.2838 152.452C92.2925 151.537 92.4484 151.317 92.457 151.292L40.4955 121.292C40.4869 121.317 40.331 121.537 40.3223 122.452L92.2838 152.452Z" fill="#8BC5E4"/>
<path d="M92.4566 151.292C92.4653 151.277 92.5779 151.032 93.3573 150.552L41.3958 120.552C40.6164 121.032 40.5038 121.277 40.4951 121.292L92.4566 151.292Z" fill="#8BC5E4"/>
<path d="M183.779 98.3465C184.55 97.9315 184.663 98.0465 184.671 98.0515L132.71 68.0515C132.701 68.0465 132.589 67.9315 131.818 68.3465L183.779 98.3465Z" fill="#8BC5E4"/>
<path d="M184.672 98.052C184.689 98.0599 184.836 98.1321 184.853 99.0064L132.892 69.0064C132.875 68.1321 132.727 68.0599 132.711 68.052L184.672 98.052Z" fill="#8BC5E4"/>
<path d="M184.853 99.0066C184.862 99.9016 184.654 101.532 184.117 103.722L132.155 73.7216C132.692 71.5316 132.9 69.9016 132.891 69.0066L184.853 99.0066Z" fill="#8BC5E4"/>
<path d="M184.117 103.721C183.051 108.086 180.739 114.641 177.379 122.561L125.417 92.5614C128.778 84.6414 131.09 78.0864 132.155 73.7214L184.117 103.721Z" fill="#8BC5E4"/>
<path d="M177.379 122.562C173.127 132.577 167.229 144.842 160.111 158.292L108.149 128.292C115.268 114.842 121.165 102.577 125.418 92.5615L177.379 122.562Z" fill="#8BC5E4"/>
<path d="M160.111 158.291C159.034 154.42 156.975 151.612 154.212 150.044L102.251 120.044C105.014 121.612 107.073 124.42 108.149 128.291L160.111 158.291Z" fill="#8BC5E4"/>
<path d="M154.214 150.045C151.639 148.584 148.453 148.199 144.882 149.035L92.9209 119.035C96.4919 118.199 99.6779 118.584 102.253 120.045L154.214 150.045Z" fill="#8BC5E4"/>
<path d="M144.877 149.037C152.992 136.182 160.656 124.987 167.195 116.352L115.233 86.3516C108.695 94.9866 101.03 106.182 92.9155 119.037L144.877 149.037Z" fill="#8BC5E4"/>
<path d="M167.195 116.351C172.365 109.546 176.86 104.321 180.099 101.251L128.137 71.2515C124.898 74.3215 120.404 79.5465 115.233 86.3515L167.195 116.351Z" fill="#8BC5E4"/>
<path d="M180.099 101.251C181.71 99.7314 183 98.7664 183.779 98.3464L131.818 68.3464C131.038 68.7664 129.748 69.7314 128.137 71.2514L180.099 101.251Z" fill="#8BC5E4"/>
<path d="M135.403 147.886C134.977 147.706 134.553 147.529 134.13 147.356L82.1689 117.356C82.5919 117.529 83.0159 117.706 83.4414 117.886L135.403 147.886Z" fill="#8BC5E4"/>
<path d="M134.131 147.357C126.685 144.3 119.604 142.221 113.337 141.194L61.376 111.194C67.643 112.221 74.724 114.3 82.17 117.357L134.131 147.357Z" fill="#8BC5E4"/>
<path d="M113.328 141.192C107.881 140.297 103.074 140.172 98.9517 141.022L46.9902 111.022C51.1125 110.172 55.9189 110.297 61.3662 111.192L113.328 141.192Z" fill="#8BC5E4"/>
<path d="M98.9517 141.021C96.8906 141.461 94.994 142.116 93.1407 143.256L41.1792 113.256C43.0325 112.116 44.9291 111.461 46.9902 111.021L98.9517 141.021Z" fill="#8BC5E4"/>
<path d="M93.1408 143.257C91.2875 144.407 89.339 146.212 87.9273 148.707L35.9658 118.707C37.3774 116.212 39.326 114.407 41.1793 113.257L93.1408 143.257Z" fill="#8BC5E4"/>
<path d="M87.9274 148.707C86.5245 151.187 85.9702 153.787 85.9356 155.977L33.9741 125.977C34.0087 123.787 34.5629 121.187 35.9659 118.707L87.9274 148.707Z" fill="#8BC5E4"/>
<path d="M85.9358 155.977C85.9011 158.167 86.2995 160.147 86.975 162.157L35.0135 132.157C34.338 130.147 33.9396 128.167 33.9743 125.977L85.9358 155.977Z" fill="#8BC5E4"/>
<path d="M86.9747 162.156C88.343 166.156 90.9065 170.246 94.4398 174.506L42.4783 144.506C38.9449 140.246 36.3815 136.156 35.0132 132.156L86.9747 162.156Z" fill="#8BC5E4"/>
<path d="M94.44 174.507C98.4375 179.321 103.705 184.296 109.958 189.098L57.996 159.098C51.743 154.296 46.476 149.321 42.4785 144.507L94.44 174.507Z" fill="#8BC5E4"/>
<path d="M109.958 189.097C110.316 189.372 110.678 189.647 111.042 189.921L59.0801 159.921C58.7161 159.647 58.3541 159.372 57.9961 159.097L109.958 189.097Z" fill="#8BC5E4"/>
<path d="M110.522 198.312C104.018 210.767 98.5537 222.212 94.44 231.907L42.4785 201.907C46.5921 192.212 52.0568 180.767 58.5606 168.312L110.522 198.312Z" fill="#8BC5E4"/>
<path d="M94.44 231.906C90.9067 240.246 88.3432 247.306 86.9836 252.881L35.022 222.881C36.3817 217.306 38.9451 210.246 42.4785 201.906L94.44 231.906Z" fill="#8BC5E4"/>
<path d="M86.9837 252.882C86.2995 255.677 85.9011 258.117 85.9358 260.267L33.9743 230.267C33.9396 228.117 34.338 225.677 35.0221 222.882L86.9837 252.882Z" fill="#8BC5E4"/>
<path d="M85.9356 260.267C85.9594 262.27 86.4524 264.115 87.6594 265.043L35.6979 235.043C34.4909 234.115 33.9979 232.27 33.9741 230.267L85.9356 260.267Z" fill="#8BC5E4"/>
<path d="M87.6524 265.038C87.7374 265.104 87.8264 265.165 87.9194 265.222L35.9579 235.222C35.8649 235.165 35.7759 235.104 35.6909 235.038L87.6524 265.038Z" fill="#8BC5E4"/>
<path d="M87.9273 265.227C88.0203 265.285 88.1163 265.337 88.2143 265.383L36.2528 235.383C36.1548 235.337 36.0588 235.285 35.9658 235.227L87.9273 265.227Z" fill="#8BC5E4"/>
<path d="M88.2135 265.383C89.5885 266.035 91.4055 265.592 93.1265 264.665L41.165 234.665C39.444 235.592 37.627 236.035 36.252 235.383L88.2135 265.383Z" fill="#8BC5E4"/>
<path d="M93.1324 264.662C94.9944 263.657 96.891 262.122 98.9435 260.187L46.982 230.187C44.9295 232.122 43.0329 233.657 41.1709 234.662L93.1324 264.662Z" fill="#8BC5E4"/>
<path d="M98.9434 260.186C103.074 256.271 107.881 250.606 113.328 243.421L61.3665 213.421C55.9192 220.606 51.1128 226.271 46.9819 230.186L98.9434 260.186Z" fill="#8BC5E4"/>
<path d="M113.328 243.422C119.953 234.687 127.487 223.717 135.403 211.237L83.4412 181.237C75.5257 193.717 67.9913 204.687 61.3662 213.422L113.328 243.422Z" fill="#8BC5E4"/>
<path d="M142.322 207.832C142.739 208.006 143.156 208.176 143.57 208.344L91.6087 178.344C91.1947 178.176 90.7777 178.006 90.3608 177.832L142.322 207.832Z" fill="#8BC5E4"/>
<path d="M143.57 208.344C150.812 211.271 157.689 213.279 163.8 214.282L111.839 184.282C105.728 183.279 98.8509 181.271 91.6089 178.344L143.57 208.344Z" fill="#8BC5E4"/>
<path d="M163.8 214.281C169.247 215.176 174.054 215.291 178.185 214.436L126.223 184.436C122.092 185.291 117.286 185.176 111.838 184.281L163.8 214.281Z" fill="#8BC5E4"/>
<path d="M178.185 214.436C180.237 214.011 182.134 213.346 183.996 212.201L132.034 182.201C130.172 183.346 128.276 184.011 126.223 184.436L178.185 214.436Z" fill="#8BC5E4"/>
<path d="M183.996 212.202C185.84 211.067 187.798 209.247 189.2 206.757L137.239 176.757C135.836 179.247 133.879 181.067 132.034 182.202L183.996 212.202Z" fill="#8BC5E4"/>
<path d="M189.2 206.757C190.603 204.287 191.158 201.677 191.192 199.497L139.231 169.497C139.196 171.677 138.642 174.287 137.239 176.757L189.2 206.757Z" fill="#8BC5E4"/>
<path d="M191.192 199.496C191.227 197.306 190.828 195.326 190.153 193.316L138.191 163.316C138.867 165.326 139.265 167.306 139.231 169.496L191.192 199.496Z" fill="#8BC5E4"/>
<path d="M190.153 193.317C188.785 189.317 186.221 185.217 182.688 180.957L130.727 150.957C134.26 155.217 136.823 159.317 138.192 163.317L190.153 193.317Z" fill="#8BC5E4"/>
<path d="M182.688 180.957C178.805 176.275 173.699 171.433 167.654 166.738L115.693 136.738C121.738 141.433 126.844 146.275 130.726 150.957L182.688 180.957Z" fill="#8BC5E4"/>
<path d="M167.649 166.734C167.305 166.468 166.959 166.202 166.61 165.936L114.649 135.936C114.998 136.202 115.344 136.468 115.688 136.734L167.649 166.734Z" fill="#8BC5E4"/>
<path d="M166.086 158.141C172.815 145.316 178.47 133.521 182.688 123.556L130.726 93.5564C126.509 103.521 120.854 115.316 114.125 128.141L166.086 158.141Z" fill="#8BC5E4"/>
<path d="M182.688 123.557C186.221 115.217 188.785 108.167 190.145 102.592L138.183 72.5916C136.823 78.1666 134.26 85.2166 130.727 93.5566L182.688 123.557Z" fill="#8BC5E4"/>
<path d="M190.145 102.592C190.829 99.7965 191.227 97.3565 191.193 95.2065L139.231 65.2065C139.266 67.3565 138.867 69.7965 138.183 72.5915L190.145 102.592Z" fill="#8BC5E4"/>
<path d="M191.192 95.2066C191.16 93.2076 190.678 91.3646 189.484 90.4326L137.523 60.4326C138.717 61.3646 139.199 63.2076 139.231 65.2066L191.192 95.2066Z" fill="#8BC5E4"/>
<path d="M189.476 90.4255C189.391 90.3595 189.302 90.2985 189.209 90.2415L137.247 60.2415C137.34 60.2985 137.429 60.3595 137.514 60.4255L189.476 90.4255Z" fill="#8BC5E4"/>
<path d="M189.201 90.2366C189.108 90.1786 189.012 90.1266 188.914 90.0806L136.952 60.0806C137.05 60.1266 137.146 60.1786 137.239 60.2366L189.201 90.2366Z" fill="#8BC5E4"/>
<path d="M188.914 90.0804C187.539 89.4294 185.721 89.8814 183.992 90.8034L132.031 60.8034C133.76 59.8814 135.578 59.4294 136.953 60.0804L188.914 90.0804Z" fill="#8BC5E4"/>
<path d="M183.987 90.8064C182.134 91.8064 180.237 93.3414 178.185 95.2964L126.223 65.2964C128.276 63.3414 130.172 61.8064 132.025 60.8064L183.987 90.8064Z" fill="#8BC5E4"/>
<path d="M178.185 95.2964C174.054 99.1914 169.247 104.866 163.8 112.041L111.838 82.0414C117.286 74.8664 122.092 69.1914 126.223 65.2964L178.185 95.2964Z" fill="#8BC5E4"/>
<path d="M163.8 112.042C157.339 120.562 150.021 131.197 142.322 143.292L90.3608 113.292C98.0597 101.197 105.378 90.5615 111.838 82.0415L163.8 112.042Z" fill="#8BC5E4"/>
<path d="M214.54 37.0364C216.151 36.1064 217.588 35.9984 218.632 36.5854L166.671 6.58544C165.627 5.99844 164.19 6.10644 162.579 7.03644L214.54 37.0364Z" fill="#8BC5E4"/>
<path d="M218.631 36.5845C219.708 37.1895 220.367 38.5335 220.368 40.4755L168.407 10.4755C168.406 8.53347 167.747 7.18947 166.67 6.58447L218.631 36.5845Z" fill="#8BC5E4"/>
<path d="M220.369 218.991C220.369 222.811 217.814 227.276 214.54 229.166L162.579 199.166C165.852 197.276 168.407 192.811 168.407 188.991L220.369 218.991Z" fill="#8BC5E4"/>
<path d="M62.5873 316.896C60.9762 317.826 59.5392 317.932 58.4952 317.343L6.53369 287.343C7.57769 287.932 9.01469 287.826 10.6258 286.896L62.5873 316.896Z" fill="#8BC5E4"/>
<path d="M58.4964 317.345C57.4194 316.739 56.7603 315.395 56.7593 313.458L4.79785 283.458C4.79885 285.395 5.45785 286.739 6.53485 287.345L58.4964 317.345Z" fill="#8BC5E4"/>
<path d="M56.7593 134.942C56.7593 131.112 59.3142 126.657 62.5877 124.767L10.6262 94.7666C7.35255 96.6566 4.79785 101.112 4.79785 104.942L56.7593 134.942Z" fill="#8BC5E4"/>
<path d="M142.322 143.292C150.021 131.197 157.339 120.562 163.8 112.042L111.838 82.0415C105.378 90.5615 98.0597 101.197 90.3608 113.292L142.322 143.292Z" fill="#8BC5E4"/>
<path d="M163.8 112.041C169.247 104.866 174.054 99.1914 178.185 95.2964L126.223 65.2964C122.092 69.1914 117.286 74.8664 111.838 82.0414L163.8 112.041Z" fill="#8BC5E4"/>
<path d="M178.185 95.2964C180.237 93.3414 182.134 91.8064 183.987 90.8064L132.025 60.8064C130.172 61.8064 128.276 63.3414 126.223 65.2964L178.185 95.2964Z" fill="#8BC5E4"/>
<path d="M183.987 90.8065C185.717 89.8825 187.538 89.4285 188.913 90.0805L136.952 60.0805C135.577 59.4285 133.756 59.8825 132.025 60.8065L183.987 90.8065Z" fill="#8BC5E4"/>
<path d="M188.905 90.0764C189.003 90.1224 189.099 90.1744 189.192 90.2314L137.231 60.2314C137.138 60.1744 137.042 60.1224 136.944 60.0764L188.905 90.0764Z" fill="#8BC5E4"/>
<path d="M189.2 90.2366C189.299 90.2966 189.393 90.3616 189.484 90.4326L137.523 60.4326C137.432 60.3616 137.338 60.2966 137.239 60.2366L189.2 90.2366Z" fill="#8BC5E4"/>
<path d="M189.483 90.4314C190.677 91.3634 191.159 93.2034 191.192 95.2004L139.231 65.2004C139.198 63.2034 138.716 61.3634 137.522 60.4314L189.483 90.4314Z" fill="#8BC5E4"/>
<path d="M191.193 95.2065C191.227 97.3565 190.829 99.7965 190.145 102.592L138.183 72.5915C138.867 69.7965 139.266 67.3565 139.231 65.2065L191.193 95.2065Z" fill="#8BC5E4"/>
<path d="M190.145 102.592C188.785 108.167 186.221 115.217 182.688 123.557L130.727 93.5566C134.26 85.2166 136.823 78.1666 138.183 72.5916L190.145 102.592Z" fill="#8BC5E4"/>
<path d="M182.688 123.556C178.47 133.521 172.815 145.316 166.086 158.141L114.125 128.141C120.854 115.316 126.509 103.521 130.726 93.5564L182.688 123.556Z" fill="#8BC5E4"/>
<path d="M166.606 165.931C166.959 166.199 167.308 166.468 167.655 166.737L115.693 136.737C115.346 136.468 114.997 136.199 114.645 135.931L166.606 165.931Z" fill="#8BC5E4"/>
<path d="M167.653 166.737C173.695 171.43 178.799 176.27 182.682 180.95L130.721 150.95C126.838 146.27 121.734 141.43 115.692 136.737L167.653 166.737Z" fill="#8BC5E4"/>
<path d="M182.688 180.957C186.221 185.217 188.785 189.317 190.153 193.317L138.192 163.317C136.823 159.317 134.26 155.217 130.727 150.957L182.688 180.957Z" fill="#8BC5E4"/>
<path d="M190.153 193.316C190.828 195.326 191.227 197.306 191.192 199.496L139.231 169.496C139.265 167.306 138.867 165.326 138.191 163.316L190.153 193.316Z" fill="#8BC5E4"/>
<path d="M191.192 199.497C191.158 201.677 190.603 204.287 189.2 206.757L137.239 176.757C138.642 174.287 139.196 171.677 139.231 169.497L191.192 199.497Z" fill="#8BC5E4"/>
<path d="M189.2 206.757C187.798 209.247 185.84 211.067 183.996 212.202L132.034 182.202C133.879 181.067 135.836 179.247 137.239 176.757L189.2 206.757Z" fill="#8BC5E4"/>
<path d="M183.996 212.201C182.134 213.346 180.237 214.011 178.185 214.436L126.223 184.436C128.276 184.011 130.172 183.346 132.034 182.201L183.996 212.201Z" fill="#8BC5E4"/>
<path d="M178.185 214.436C174.054 215.291 169.247 215.176 163.8 214.281L111.838 184.281C117.286 185.176 122.092 185.291 126.223 184.436L178.185 214.436Z" fill="#8BC5E4"/>
<path d="M163.8 214.282C157.689 213.279 150.812 211.271 143.57 208.344L91.6089 178.344C98.8509 181.271 105.728 183.279 111.838 184.282L163.8 214.282Z" fill="#8BC5E4"/>
<path d="M143.57 208.344C143.156 208.176 142.739 208.006 142.322 207.832L90.3608 177.832C90.7778 178.006 91.1948 178.176 91.6088 178.344L143.57 208.344Z" fill="#8BC5E4"/>
<path d="M135.403 211.237C127.487 223.717 119.953 234.687 113.328 243.422L61.3662 213.422C67.9913 204.687 75.5257 193.717 83.4412 181.237L135.403 211.237Z" fill="#8BC5E4"/>
<path d="M113.328 243.421C107.881 250.606 103.074 256.271 98.9434 260.186L46.9819 230.186C51.1128 226.271 55.9192 220.606 61.3665 213.421L113.328 243.421Z" fill="#8BC5E4"/>
<path d="M98.9435 260.187C96.891 262.122 94.9944 263.657 93.1324 264.662L41.1709 234.662C43.0329 233.657 44.9295 232.122 46.982 230.187L98.9435 260.187Z" fill="#8BC5E4"/>
<path d="M93.1322 264.662C91.4104 265.591 89.5894 266.036 88.2144 265.383L36.2529 235.383C37.6279 236.036 39.4489 235.591 41.1707 234.662L93.1322 264.662Z" fill="#8BC5E4"/>
<path d="M88.2226 265.386C88.1246 265.34 88.0286 265.288 87.9356 265.231L35.9741 235.231C36.0671 235.288 36.1631 235.34 36.2611 235.386L88.2226 265.386Z" fill="#8BC5E4"/>
<path d="M87.9273 265.226C87.8343 265.17 87.7443 265.108 87.6593 265.042L35.6978 235.042C35.7828 235.108 35.8728 235.17 35.9658 235.226L87.9273 265.226Z" fill="#8BC5E4"/>
<path d="M87.6596 265.042C86.4536 264.116 85.9606 262.273 85.9356 260.272L33.9741 230.272C33.9991 232.273 34.4921 234.116 35.6981 235.042L87.6596 265.042Z" fill="#8BC5E4"/>
<path d="M85.9358 260.267C85.9011 258.117 86.2995 255.677 86.9837 252.882L35.0221 222.882C34.338 225.677 33.9396 228.117 33.9743 230.267L85.9358 260.267Z" fill="#8BC5E4"/>
<path d="M86.9836 252.881C88.3432 247.306 90.9067 240.246 94.44 231.906L42.4785 201.906C38.9451 210.246 36.3817 217.306 35.022 222.881L86.9836 252.881Z" fill="#8BC5E4"/>
<path d="M94.44 231.907C98.5537 222.212 104.018 210.767 110.522 198.312L58.5606 168.312C52.0568 180.767 46.5921 192.212 42.4785 201.907L94.44 231.907Z" fill="#8BC5E4"/>
<path d="M111.042 189.921C110.678 189.647 110.316 189.372 109.958 189.097L57.9961 159.097C58.3541 159.372 58.7161 159.647 59.0803 159.921L111.042 189.921Z" fill="#8BC5E4"/>
<path d="M109.957 189.098C103.708 184.298 98.4424 179.325 94.4464 174.513L42.4849 144.513C46.4809 149.325 51.7469 154.298 57.9959 159.098L109.957 189.098Z" fill="#8BC5E4"/>
<path d="M94.4398 174.506C90.9065 170.246 88.343 166.156 86.9747 162.156L35.0132 132.156C36.3815 136.156 38.9449 140.246 42.4783 144.506L94.4398 174.506Z" fill="#8BC5E4"/>
<path d="M86.975 162.157C86.2995 160.147 85.9011 158.167 85.9358 155.977L33.9743 125.977C33.9396 128.167 34.338 130.147 35.0135 132.157L86.975 162.157Z" fill="#8BC5E4"/>
<path d="M85.9356 155.977C85.9702 153.787 86.5245 151.187 87.9274 148.707L35.9659 118.707C34.5629 121.187 34.0087 123.787 33.9741 125.977L85.9356 155.977Z" fill="#8BC5E4"/>
<path d="M87.9273 148.707C89.339 146.212 91.2875 144.407 93.1408 143.257L41.1793 113.257C39.326 114.407 37.3774 116.212 35.9658 118.707L87.9273 148.707Z" fill="#8BC5E4"/>
<path d="M93.1407 143.256C94.994 142.116 96.8906 141.461 98.9517 141.021L46.9902 111.021C44.9291 111.461 43.0325 112.116 41.1792 113.256L93.1407 143.256Z" fill="#8BC5E4"/>
<path d="M98.9517 141.022C103.074 140.172 107.881 140.297 113.328 141.192L61.3662 111.192C55.9189 110.297 51.1125 110.172 46.9902 111.022L98.9517 141.022Z" fill="#8BC5E4"/>
<path d="M113.328 141.191C119.597 142.218 126.68 144.297 134.13 147.356L82.1687 117.356C74.7187 114.297 67.6357 112.218 61.3662 111.191L113.328 141.191Z" fill="#8BC5E4"/>
<path d="M134.126 147.354C134.549 147.527 134.973 147.704 135.398 147.884L83.4361 117.884C83.0111 117.704 82.5871 117.527 82.1641 117.354L134.126 147.354Z" fill="#8BC5E4"/>
<path d="M160.102 172.277C160.485 172.558 160.864 172.84 161.239 173.123L109.277 143.123C108.902 142.84 108.523 142.558 108.141 142.277L160.102 172.277Z" fill="#8BC5E4"/>
<path d="M161.238 173.123C167.846 178.098 173.349 183.237 177.373 188.084L125.412 158.084C121.388 153.237 115.885 148.098 109.277 143.123L161.238 173.123Z" fill="#8BC5E4"/>
<path d="M177.379 188.092C180.739 192.122 183.051 196.007 184.117 199.142L132.155 169.142C131.09 166.007 128.778 162.122 125.417 158.092L177.379 188.092Z" fill="#8BC5E4"/>
<path d="M184.117 199.142C184.654 200.712 184.862 202.102 184.853 203.007L132.891 173.007C132.9 172.102 132.692 170.712 132.155 169.142L184.117 199.142Z" fill="#8BC5E4"/>
<path d="M184.853 203.007C184.836 203.9 184.689 204.143 184.672 204.17L132.711 174.17C132.727 174.143 132.875 173.9 132.892 173.007L184.853 203.007Z" fill="#8BC5E4"/>
<path d="M184.671 204.171C184.663 204.196 184.55 204.431 183.779 204.906L131.818 174.906C132.589 174.431 132.701 174.196 132.71 174.171L184.671 204.171Z" fill="#8BC5E4"/>
<path d="M183.779 204.906C183 205.386 181.709 205.911 180.081 206.261L128.12 176.261C129.748 175.911 131.038 175.386 131.818 174.906L183.779 204.906Z" fill="#8BC5E4"/>
<path d="M180.081 206.262C176.86 206.932 172.365 206.897 167.195 206.062L115.233 176.062C120.404 176.897 124.898 176.932 128.12 176.262L180.081 206.262Z" fill="#8BC5E4"/>
<path d="M167.195 206.061C160.999 205.039 153.795 202.889 146.178 199.691L94.2168 169.691C101.834 172.889 109.038 175.039 115.233 176.061L167.195 206.061Z" fill="#8BC5E4"/>
<path d="M146.172 199.688C145.743 199.509 145.314 199.325 144.883 199.139L92.9219 169.139C93.3529 169.325 93.7819 169.509 94.2109 169.688L146.172 199.688Z" fill="#8BC5E4"/>
<path d="M144.877 199.137C152.282 192.312 158.032 182.162 160.102 172.277L108.14 142.277C106.071 152.162 100.32 162.312 92.9155 169.137L144.877 199.137Z" fill="#8BC5E4"/>
<path d="M117.017 197.181C118.088 201.055 120.148 203.863 122.912 205.43L70.9509 175.43C68.1869 173.863 66.1269 171.055 65.0557 167.181L117.017 197.181Z" fill="#8BC5E4"/>
<path d="M122.91 205.429C125.486 206.889 128.674 207.273 132.245 206.437L80.2837 176.437C76.7127 177.273 73.5247 176.889 70.9487 175.429L122.91 205.429Z" fill="#8BC5E4"/>
<path d="M132.251 206.437C124.153 219.282 116.48 230.482 109.933 239.112L57.9717 209.112C64.5189 200.482 72.1919 189.282 80.2892 176.437L132.251 206.437Z" fill="#8BC5E4"/>
<path d="M109.933 239.112C104.763 245.927 100.269 251.152 97.0469 254.202L45.0854 224.202C48.307 221.152 52.8016 215.927 57.9718 209.112L109.933 239.112Z" fill="#8BC5E4"/>
<path d="M97.0467 254.201C95.4186 255.731 94.1282 256.696 93.3488 257.116L41.3872 227.116C42.1667 226.696 43.457 225.731 45.0852 224.201L97.0467 254.201Z" fill="#8BC5E4"/>
<path d="M93.3487 257.116C92.5779 257.531 92.4653 257.416 92.4566 257.411L40.4951 227.411C40.5038 227.416 40.6164 227.531 41.3871 227.116L93.3487 257.116Z" fill="#8BC5E4"/>
<path d="M92.456 257.411C92.4397 257.403 92.2923 257.331 92.2838 256.451L40.3223 226.451C40.3307 227.331 40.4782 227.403 40.4944 227.411L92.456 257.411Z" fill="#8BC5E4"/>
<path d="M92.2833 256.451C92.266 255.561 92.4739 253.931 93.0108 251.741L41.0493 221.741C40.5123 223.931 40.3045 225.561 40.3218 226.451L92.2833 256.451Z" fill="#8BC5E4"/>
<path d="M93.0108 251.742C94.076 247.377 96.3883 240.822 99.7485 232.912L47.787 202.912C44.4268 210.822 42.1145 217.377 41.0493 221.742L93.0108 251.742Z" fill="#8BC5E4"/>
<path d="M99.7486 232.911C104.001 222.886 109.898 210.621 117.017 197.181L65.0556 167.181C57.9369 180.621 52.0392 192.886 47.7871 202.911L99.7486 232.911Z" fill="#8BC5E4"/>
<path d="M183.779 98.3465C184.55 97.9315 184.663 98.0465 184.671 98.0515L132.71 68.0515C132.701 68.0465 132.589 67.9315 131.818 68.3465L183.779 98.3465Z" fill="#8BC5E4"/>
<path d="M184.672 98.052C184.689 98.0599 184.836 98.1321 184.853 99.0064L132.892 69.0064C132.875 68.1321 132.727 68.0599 132.711 68.052L184.672 98.052Z" fill="#8BC5E4"/>
<path d="M184.853 99.0066C184.862 99.9016 184.654 101.532 184.117 103.722L132.155 73.7216C132.692 71.5316 132.9 69.9016 132.891 69.0066L184.853 99.0066Z" fill="#8BC5E4"/>
<path d="M184.117 103.721C183.051 108.086 180.739 114.641 177.379 122.561L125.417 92.5614C128.778 84.6414 131.09 78.0864 132.155 73.7214L184.117 103.721Z" fill="#8BC5E4"/>
<path d="M177.379 122.562C173.127 132.577 167.229 144.842 160.111 158.292L108.149 128.292C115.268 114.842 121.165 102.577 125.418 92.5615L177.379 122.562Z" fill="#8BC5E4"/>
<path d="M160.111 158.291C159.034 154.42 156.975 151.612 154.212 150.044L102.251 120.044C105.014 121.612 107.073 124.42 108.149 128.291L160.111 158.291Z" fill="#8BC5E4"/>
<path d="M154.214 150.045C151.639 148.584 148.453 148.199 144.882 149.035L92.9209 119.035C96.4919 118.199 99.6779 118.584 102.253 120.045L154.214 150.045Z" fill="#8BC5E4"/>
<path d="M144.877 149.037C152.992 136.182 160.656 124.987 167.195 116.352L115.233 86.3516C108.695 94.9866 101.03 106.182 92.9155 119.037L144.877 149.037Z" fill="#8BC5E4"/>
<path d="M167.195 116.351C172.365 109.546 176.86 104.321 180.099 101.251L128.137 71.2515C124.898 74.3215 120.404 79.5465 115.233 86.3515L167.195 116.351Z" fill="#8BC5E4"/>
<path d="M180.099 101.251C181.71 99.7314 183 98.7664 183.779 98.3464L131.818 68.3464C131.038 68.7664 129.748 69.7314 128.137 71.2514L180.099 101.251Z" fill="#8BC5E4"/>
<path d="M93.3575 150.551C94.1283 150.076 95.4187 149.551 97.0468 149.201L45.0853 119.201C43.4571 119.551 42.1668 120.076 41.396 120.551L93.3575 150.551Z" fill="#8BC5E4"/>
<path d="M97.0469 149.202C100.269 148.542 104.763 148.567 109.933 149.412L57.9718 119.412C52.8016 118.567 48.307 118.542 45.0854 119.202L97.0469 149.202Z" fill="#8BC5E4"/>
<path d="M109.933 149.412C116.128 150.425 123.332 152.574 130.949 155.772L78.988 125.772C71.371 122.574 64.167 120.425 57.9717 119.412L109.933 149.412Z" fill="#8BC5E4"/>
<path d="M130.956 155.774C131.385 155.953 131.814 156.137 132.245 156.323L80.2831 126.323C79.8521 126.137 79.4231 125.953 78.9941 125.774L130.956 155.774Z" fill="#8BC5E4"/>
<path d="M132.251 156.326C124.846 163.151 119.096 173.301 117.026 183.186L65.0645 153.186C67.1343 143.301 72.8847 133.151 80.2892 126.326L132.251 156.326Z" fill="#8BC5E4"/>
<path d="M117.026 183.187C116.643 182.906 116.264 182.624 115.889 182.341L63.9277 152.341C64.3027 152.624 64.6817 152.906 65.0642 153.187L117.026 183.187Z" fill="#8BC5E4"/>
<path d="M115.89 182.34C109.281 177.365 103.778 172.226 99.7554 167.388L47.7939 137.388C51.8169 142.226 57.3199 147.365 63.9289 152.34L115.89 182.34Z" fill="#8BC5E4"/>
<path d="M99.7485 167.382C96.3883 163.342 94.076 159.457 93.0108 156.322L41.0493 126.322C42.1145 129.457 44.4268 133.342 47.787 137.382L99.7485 167.382Z" fill="#8BC5E4"/>
<path d="M93.0108 156.321C92.4739 154.761 92.266 153.361 92.2833 152.451L40.3218 122.451C40.3045 123.361 40.5123 124.761 41.0493 126.321L93.0108 156.321Z" fill="#8BC5E4"/>
<path d="M92.2838 152.452C92.2925 151.537 92.4484 151.317 92.457 151.292L40.4955 121.292C40.4869 121.317 40.331 121.537 40.3223 122.452L92.2838 152.452Z" fill="#8BC5E4"/>
<path d="M92.4566 151.292C92.4653 151.277 92.5779 151.032 93.3573 150.552L41.3958 120.552C40.6164 121.032 40.5038 121.277 40.4951 121.292L92.4566 151.292Z" fill="#8BC5E4"/>
<path d="M214.54 244.647C216.151 243.717 217.588 243.611 218.632 244.201L166.671 214.201C165.627 213.611 164.19 213.717 162.579 214.647L214.54 244.647Z" fill="#8BC5E4"/>
<path d="M218.631 244.199C219.708 244.806 220.367 246.153 220.368 248.095L168.407 218.095C168.406 216.153 167.747 214.806 166.67 214.199L218.631 244.199Z" fill="#8BC5E4"/>
<path d="M220.369 307.652C220.369 311.472 217.814 315.927 214.54 317.817L162.579 287.817C165.852 285.927 168.407 281.472 168.407 277.652L220.369 307.652Z" fill="#8BC5E4"/>
<path d="M62.5873 405.546C60.9762 406.476 59.5392 406.584 58.4952 405.998L6.53369 375.998C7.57769 376.584 9.01469 376.476 10.6258 375.546L62.5873 405.546Z" fill="#8BC5E4"/>
<path d="M58.4964 405.999C57.4194 405.395 56.7603 404.054 56.7593 402.117L4.79785 372.117C4.79885 374.054 5.45785 375.395 6.53485 375.999L58.4964 405.999Z" fill="#8BC5E4"/>
<path d="M56.7593 342.561C56.7593 338.731 59.3142 334.266 62.5877 332.376L10.6262 302.376C7.35255 304.266 4.79785 308.731 4.79785 312.561L56.7593 342.561Z" fill="#8BC5E4"/>
<path d="M62.5876 332.377L214.54 244.647C217.814 242.757 220.369 244.271 220.369 248.101V307.651C220.369 311.472 217.814 315.927 214.54 317.817L62.5876 405.547C59.314 407.437 56.7592 405.932 56.7592 402.112V342.561C56.7592 338.731 59.314 334.267 62.5876 332.377ZM62.5876 326.776C56.7419 330.151 51.9614 338.492 51.9614 345.331V404.882C51.9614 411.711 56.7419 414.532 62.5876 411.157L214.54 323.427C220.386 320.052 225.167 311.711 225.167 304.882V245.331C225.167 238.492 220.386 235.672 214.54 239.047L62.5876 326.776ZM62.5876 124.767L214.54 37.0365C217.814 35.1465 220.369 36.6515 220.369 40.4815V218.991C220.369 222.812 217.814 227.277 214.54 229.167L62.5876 316.897C59.314 318.787 56.7592 317.272 56.7592 313.451V134.942C56.7592 131.112 59.314 126.657 62.5876 124.767ZM62.5876 119.157C56.7419 122.532 51.9614 130.872 51.9614 137.712V316.221C51.9614 323.051 56.7419 325.882 62.5876 322.507L214.54 234.777C220.386 231.402 225.167 223.051 225.167 216.221V37.7115C225.167 30.8715 220.386 28.0515 214.54 31.4265L62.5876 119.157ZM117.017 197.181C119.087 204.667 124.846 208.172 132.251 206.437C124.153 219.282 116.48 230.481 109.933 239.111C104.763 245.926 100.268 251.152 97.0467 254.202C95.4186 255.732 94.1282 256.697 93.3488 257.117C92.578 257.532 92.4654 257.417 92.4568 257.412L92.4557 257.411C92.4394 257.403 92.292 257.331 92.2836 256.452C92.2662 255.562 92.4741 253.932 93.011 251.741C94.0762 247.376 96.3885 240.822 99.7487 232.912C104.001 222.887 109.899 210.622 117.017 197.181ZM160.102 172.277C167.221 177.517 173.127 182.967 177.379 188.092C180.739 192.122 183.052 196.006 184.117 199.141C184.654 200.712 184.862 202.102 184.853 203.007C184.836 203.9 184.689 204.143 184.672 204.17L184.671 204.172C184.663 204.197 184.55 204.432 183.779 204.907C183 205.386 181.709 205.911 180.081 206.262C176.86 206.932 172.365 206.897 167.195 206.062C160.648 204.982 152.975 202.642 144.877 199.137C152.282 192.311 158.032 182.162 160.102 172.277ZM93.3574 150.552C94.1282 150.077 95.4186 149.552 97.0467 149.202C100.268 148.542 104.763 148.567 109.933 149.412C116.48 150.482 124.153 152.822 132.251 156.327C124.846 163.152 119.096 173.302 117.026 183.187C109.907 177.947 104.001 172.497 99.7487 167.382C96.3885 163.342 94.0762 159.457 93.011 156.322C92.4741 154.762 92.2662 153.362 92.2836 152.452C92.2922 151.537 92.4481 151.317 92.4568 151.292C92.4654 151.277 92.578 151.032 93.3574 150.552ZM183.779 98.3465C184.55 97.9315 184.663 98.0465 184.671 98.0515L184.672 98.0521C184.689 98.0601 184.836 98.1322 184.853 99.0065C184.862 99.9015 184.654 101.532 184.117 103.722C183.052 108.086 180.739 114.641 177.379 122.562C173.127 132.576 167.229 144.842 160.111 158.292C158.032 150.812 152.282 147.302 144.877 149.037C152.992 136.182 160.656 124.987 167.195 116.352C172.365 109.547 176.86 104.322 180.099 101.251C181.709 99.7315 183 98.7665 183.779 98.3465ZM138.798 105.357L127.184 125.042L135.403 120.297V147.887C127.487 144.537 119.953 142.277 113.328 141.192C107.881 140.297 103.074 140.172 98.952 141.022C96.8908 141.462 94.9942 142.117 93.1409 143.257C91.2876 144.407 89.3391 146.212 87.9275 148.707C86.5245 151.187 85.9702 153.787 85.9356 155.977C85.901 158.167 86.2993 160.147 86.9748 162.157C88.3432 166.157 90.9066 170.246 94.44 174.507C98.6662 179.597 104.313 184.866 111.042 189.922L87.8495 203.312V193.722L76.7471 213.692L87.8495 220.312V211.402L110.522 198.312C104.018 210.767 98.5536 222.212 94.44 231.907C90.9066 240.247 88.3432 247.307 86.9835 252.882C86.2993 255.676 85.901 258.117 85.9356 260.267C85.9616 262.412 86.5245 264.376 87.9275 265.227C89.3304 266.096 91.2876 265.656 93.1323 264.662C94.9942 263.657 96.8908 262.122 98.9433 260.187C103.074 256.272 107.881 250.606 113.328 243.422C119.953 234.686 127.487 223.717 135.403 211.236V238.827L127.184 243.572L138.798 249.836L149.944 230.432L142.323 234.832V207.832C150.021 211.037 157.339 213.222 163.8 214.282C169.247 215.176 174.054 215.292 178.185 214.437C180.237 214.012 182.134 213.347 183.996 212.201C185.84 211.066 187.798 209.246 189.2 206.757C190.603 204.286 191.158 201.676 191.192 199.496C191.227 197.307 190.829 195.326 190.153 193.316C188.785 189.317 186.221 185.217 182.688 180.957C178.583 176.007 173.11 170.877 166.606 165.932L189.278 152.842V161.752L200.381 142.312L189.278 135.162V144.752L166.086 158.142C172.815 145.316 178.47 133.521 182.688 123.557C186.221 115.216 188.785 108.167 190.144 102.592C190.829 99.7965 191.227 97.3565 191.192 95.2065C191.158 93.0565 190.603 91.0865 189.2 90.2365C187.798 89.3665 185.84 89.8165 183.987 90.8065C182.134 91.8065 180.237 93.3415 178.185 95.2965C174.054 99.1915 169.247 104.867 163.8 112.042C157.339 120.562 150.021 131.197 142.323 143.292V116.302L149.944 111.902L138.798 105.357Z" fill="#8BC5E4"/>
<path fill-rule="evenodd" clip-rule="evenodd" d="M62.5876 124.767L214.54 37.0365C217.814 35.1465 220.369 36.6515 220.369 40.4815V218.991C220.369 222.812 217.814 227.277 214.54 229.167L62.5876 316.897C59.314 318.787 56.7592 317.272 56.7592 313.451V134.942C56.7592 131.112 59.314 126.657 62.5876 124.767ZM127.184 125.042L138.798 105.357L149.944 111.902L142.323 116.302V143.292C150.021 131.197 157.339 120.562 163.8 112.042C169.247 104.867 174.054 99.1915 178.185 95.2965C180.237 93.3415 182.134 91.8065 183.987 90.8065C185.84 89.8165 187.798 89.3665 189.2 90.2365C190.603 91.0865 191.158 93.0565 191.192 95.2065C191.227 97.3565 190.829 99.7965 190.144 102.592C188.785 108.167 186.221 115.216 182.688 123.557C178.47 133.521 172.815 145.316 166.086 158.142L189.278 144.752V135.162L200.381 142.312L189.278 161.752V152.842L166.606 165.932C173.11 170.877 178.583 176.007 182.688 180.957C186.221 185.217 188.785 189.317 190.153 193.316C190.829 195.326 191.227 197.307 191.192 199.496C191.158 201.676 190.603 204.286 189.2 206.757C187.798 209.246 185.84 211.066 183.996 212.201C182.134 213.347 180.237 214.012 178.185 214.437C174.054 215.292 169.247 215.176 163.8 214.282C157.339 213.222 150.021 211.037 142.323 207.832V234.832L149.944 230.432L138.798 249.836L127.184 243.572L135.403 238.827V211.236C127.487 223.717 119.953 234.686 113.328 243.422C107.881 250.606 103.074 256.272 98.9433 260.187C96.8908 262.122 94.9942 263.657 93.1323 264.662C91.2876 265.656 89.3304 266.096 87.9275 265.227C86.5245 264.376 85.9616 262.412 85.9356 260.267C85.901 258.117 86.2993 255.676 86.9835 252.882C88.3432 247.307 90.9066 240.247 94.44 231.907C98.5536 222.212 104.018 210.767 110.522 198.312L87.8495 211.402V220.312L76.7471 213.692L87.8495 193.722V203.312L111.042 189.922C104.313 184.866 98.6662 179.597 94.44 174.507C90.9066 170.246 88.3432 166.157 86.9748 162.157C86.2993 160.147 85.901 158.167 85.9356 155.977C85.9702 153.787 86.5245 151.187 87.9275 148.707C89.3391 146.212 91.2876 144.407 93.1409 143.257C94.9942 142.117 96.8908 141.462 98.952 141.022C103.074 140.172 107.881 140.297 113.328 141.192C119.953 142.277 127.487 144.537 135.403 147.887V120.297L127.184 125.042Z" fill="white"/>
<path d="M160.102 172.277C167.221 177.517 173.127 182.967 177.379 188.092C180.739 192.122 183.052 196.006 184.117 199.141C184.654 200.712 184.862 202.102 184.853 203.007C184.836 203.9 184.689 204.143 184.672 204.17L184.671 204.172C184.663 204.197 184.55 204.432 183.779 204.907C183 205.386 181.709 205.911 180.081 206.262C176.86 206.932 172.365 206.897 167.195 206.062C160.648 204.982 152.975 202.642 144.877 199.137C152.282 192.311 158.032 182.162 160.102 172.277Z" fill="white"/>
<path d="M117.017 197.181C119.087 204.667 124.846 208.172 132.251 206.437C124.153 219.282 116.48 230.481 109.933 239.111C104.763 245.926 100.268 251.152 97.0467 254.202C95.4186 255.732 94.1282 256.697 93.3488 257.117C92.578 257.532 92.4654 257.417 92.4568 257.412L92.4557 257.411C92.4394 257.403 92.292 257.331 92.2836 256.452C92.2662 255.562 92.4741 253.932 93.011 251.741C94.0762 247.376 96.3885 240.822 99.7487 232.912C104.001 222.887 109.899 210.622 117.017 197.181Z" fill="white"/>
<path d="M183.779 98.3465C184.55 97.9315 184.663 98.0465 184.671 98.0515L184.672 98.0521C184.689 98.0601 184.836 98.1322 184.853 99.0065C184.862 99.9015 184.654 101.532 184.117 103.722C183.052 108.086 180.739 114.641 177.379 122.562C173.127 132.576 167.229 144.842 160.111 158.292C158.032 150.812 152.282 147.302 144.877 149.037C152.992 136.182 160.656 124.987 167.195 116.352C172.365 109.547 176.86 104.322 180.099 101.251C181.709 99.7315 183 98.7665 183.779 98.3465Z" fill="white"/>
<path d="M93.3574 150.552C94.1282 150.077 95.4186 149.552 97.0467 149.202C100.268 148.542 104.763 148.567 109.933 149.412C116.48 150.482 124.153 152.822 132.251 156.327C124.846 163.152 119.096 173.302 117.026 183.187C109.907 177.947 104.001 172.497 99.7487 167.382C96.3885 163.342 94.0762 159.457 93.011 156.322C92.4741 154.762 92.2662 153.362 92.2836 152.452C92.2922 151.537 92.4481 151.317 92.4568 151.292C92.4654 151.277 92.578 151.032 93.3574 150.552Z" fill="white"/>
<path d="M62.5876 332.377L214.54 244.647C217.814 242.757 220.369 244.271 220.369 248.101V307.651C220.369 311.472 217.814 315.927 214.54 317.817L62.5876 405.547C59.314 407.437 56.7592 405.932 56.7592 402.112V342.561C56.7592 338.731 59.314 334.267 62.5876 332.377Z" fill="white"/>
</svg>
