<svg width="226" height="326" viewBox="0 0 226 326" fill="none" xmlns="http://www.w3.org/2000/svg">
<path d="M101.645 155.947V176.037L49.6836 146.037V125.947L101.645 155.947Z" fill="#8BC5E4"/>
<path d="M101.645 176.037L109.578 171.457L57.6163 141.457L49.6836 146.037L101.645 176.037Z" fill="#8BC5E4"/>
<path d="M109.578 171.457L95.9382 210.292L43.9766 180.292L57.6165 141.457L109.578 171.457Z" fill="#8BC5E4"/>
<path d="M95.9381 210.292L79.1285 219.997L27.167 189.997L43.9765 180.292L95.9381 210.292Z" fill="#8BC5E4"/>
<path d="M79.1285 219.997V240.087L27.167 210.087V189.997L79.1285 219.997Z" fill="#8BC5E4"/>
<path d="M79.1285 240.087L108.002 223.417L56.0403 193.417L27.167 210.087L79.1285 240.087Z" fill="#8BC5E4"/>
<path d="M108.002 223.417V205.647L56.0405 175.647V193.417L108.002 223.417Z" fill="#8BC5E4"/>
<path d="M108.002 205.647L128.059 179.917L76.0976 149.917L56.0405 175.647L108.002 205.647Z" fill="#8BC5E4"/>
<path d="M128.059 179.917L133.87 188.392L81.9088 158.392L76.0977 149.917L128.059 179.917Z" fill="#8BC5E4"/>
<path d="M133.87 188.392L126.353 192.732L74.3916 162.732L81.9087 158.392L133.87 188.392Z" fill="#8BC5E4"/>
<path d="M126.353 192.732V212.822L74.3916 182.822V162.732L126.353 192.732Z" fill="#8BC5E4"/>
<path d="M126.353 212.822L155.226 196.152L103.265 166.152L74.3916 182.822L126.353 212.822Z" fill="#8BC5E4"/>
<path d="M155.226 196.152V176.062L103.265 146.062V166.152L155.226 196.152Z" fill="#8BC5E4"/>
<path d="M155.227 176.062L147.831 180.332L95.8691 150.332L103.265 146.062L155.227 176.062Z" fill="#8BC5E4"/>
<path d="M147.831 180.332L153.616 165.222L101.654 135.222L95.8691 150.332L147.831 180.332Z" fill="#8BC5E4"/>
<path d="M153.615 165.222L173.577 168.037L121.616 138.037L101.654 135.222L153.615 165.222Z" fill="#8BC5E4"/>
<path d="M173.577 168.037V185.557L121.616 155.557V138.037L173.577 168.037Z" fill="#8BC5E4"/>
<path d="M173.577 185.557L202.451 168.887L150.489 138.887L121.616 155.557L173.577 185.557Z" fill="#8BC5E4"/>
<path d="M202.451 168.887V148.797L150.489 118.797V138.887L202.451 168.887Z" fill="#8BC5E4"/>
<path d="M202.451 148.797L185.953 158.322L133.991 128.322L150.489 118.797L202.451 148.797Z" fill="#8BC5E4"/>
<path d="M185.953 158.322L172.027 135.402L120.065 105.402L133.991 128.322L185.953 158.322Z" fill="#8BC5E4"/>
<path d="M172.027 135.402L180.298 130.627L128.336 100.627L120.065 105.402L172.027 135.402Z" fill="#8BC5E4"/>
<path d="M180.298 130.627V110.537L128.336 80.5374V100.627L180.298 130.627Z" fill="#8BC5E4"/>
<path d="M180.298 110.537L151.416 127.212L99.4541 97.2124L128.336 80.5374L180.298 110.537Z" fill="#8BC5E4"/>
<path d="M151.416 127.212V145.052L99.4541 115.052V97.2122L151.416 127.212Z" fill="#8BC5E4"/>
<path d="M151.416 145.052L140.911 158.527L88.9492 128.527L99.4541 115.052L151.416 145.052Z" fill="#8BC5E4"/>
<path d="M140.911 158.527L130.527 157.062L78.5659 127.062L88.9495 128.527L140.911 158.527Z" fill="#8BC5E4"/>
<path d="M130.527 157.062V139.272L78.5659 109.272V127.062L130.527 157.062Z" fill="#8BC5E4"/>
<path d="M130.527 139.272L101.645 155.947L49.6836 125.947L78.5655 109.272L130.527 139.272Z" fill="#8BC5E4"/>
<path d="M101.645 155.947L49.6836 125.947L101.645 155.947Z" fill="#8BC5E4"/>
<path d="M113.649 169.107L118.663 166.212L66.7012 136.212L61.687 139.107L113.649 169.107Z" fill="#8BC5E4"/>
<path d="M118.663 166.212L126.266 177.312L74.305 147.312L66.7012 136.212L118.663 166.212Z" fill="#8BC5E4"/>
<path d="M126.267 177.312L104.356 205.432L52.3945 175.432L74.305 147.312L126.267 177.312Z" fill="#8BC5E4"/>
<path d="M104.356 205.432L100.008 207.942L48.0469 177.942L52.3943 175.432L104.356 205.432Z" fill="#8BC5E4"/>
<path d="M100.008 207.942L113.648 169.107L61.6868 139.107L48.0469 177.942L100.008 207.942Z" fill="#8BC5E4"/>
<path d="M113.649 169.107L61.687 139.107L113.649 169.107Z" fill="#8BC5E4"/>
<path d="M122.828 163.807L126.881 161.467L74.9197 131.467L70.8667 133.807L122.828 163.807Z" fill="#8BC5E4"/>
<path d="M126.882 161.467L137.456 162.962L85.4941 132.962L74.9199 131.467L126.882 161.467Z" fill="#8BC5E4"/>
<path d="M137.455 162.962L129.367 173.342L77.4053 143.342L85.494 132.962L137.455 162.962Z" fill="#8BC5E4"/>
<path d="M129.367 173.342L122.828 163.807L70.8667 133.807L77.4052 143.342L129.367 173.342Z" fill="#8BC5E4"/>
<path d="M122.828 163.807L70.8667 133.807L122.828 163.807Z" fill="#8BC5E4"/>
<path d="M155.157 145.142L158.881 142.992L106.919 112.992L103.195 115.142L155.157 145.142Z" fill="#8BC5E4"/>
<path d="M158.881 142.992L152.316 160.132L100.355 130.132L106.919 112.992L158.881 142.992Z" fill="#8BC5E4"/>
<path d="M152.317 160.132L144.349 159.012L92.3877 129.012L100.355 130.132L152.317 160.132Z" fill="#8BC5E4"/>
<path d="M144.349 159.012L155.157 145.142L103.196 115.142L92.3877 129.012L144.349 159.012Z" fill="#8BC5E4"/>
<path d="M155.157 145.142L103.195 115.142L155.157 145.142Z" fill="#8BC5E4"/>
<path d="M163.046 140.587L167.939 137.762L115.978 107.762L111.085 110.587L163.046 140.587Z" fill="#8BC5E4"/>
<path d="M167.94 137.762L181.865 160.682L129.904 130.682L115.978 107.762L167.94 137.762Z" fill="#8BC5E4"/>
<path d="M181.865 160.682L176.842 163.582L124.881 133.582L129.904 130.682L181.865 160.682Z" fill="#8BC5E4"/>
<path d="M176.842 163.582L155.399 160.562L103.438 130.562L124.881 133.582L176.842 163.582Z" fill="#8BC5E4"/>
<path d="M155.399 160.562L163.046 140.587L111.085 110.587L103.438 130.562L155.399 160.562Z" fill="#8BC5E4"/>
<path d="M163.046 140.587L111.085 110.587L163.046 140.587Z" fill="#8BC5E4"/>
<path d="M140.894 163.447L150.533 164.792L98.571 134.792L88.9321 133.447L140.894 163.447Z" fill="#8BC5E4"/>
<path d="M150.532 164.792L143.665 182.737L91.7031 152.737L98.5707 134.792L150.532 164.792Z" fill="#8BC5E4"/>
<path d="M143.665 182.737L138.036 185.987L86.0742 155.987L91.7034 152.737L143.665 182.737Z" fill="#8BC5E4"/>
<path d="M138.036 185.987L131.151 175.942L79.1895 145.942L86.0744 155.987L138.036 185.987Z" fill="#8BC5E4"/>
<path d="M131.151 175.942L140.894 163.447L88.9323 133.447L79.1895 145.942L131.151 175.942Z" fill="#8BC5E4"/>
<path d="M140.894 163.447L88.9321 133.447L140.894 163.447Z" fill="#8BC5E4"/>
<path d="M51.9615 137.522V313.092L0 283.092V107.522L51.9615 137.522Z" fill="#8BC5E4"/>
<path d="M62.5875 319.177L214.54 231.447L162.579 201.447L10.626 289.177L62.5875 319.177Z" fill="#8BC5E4"/>
<path d="M225.167 213.092V37.5222L173.205 7.52222V183.092L225.167 213.092Z" fill="#8BC5E4"/>
<path d="M214.54 31.4473L62.5875 119.177L10.626 89.1773L162.579 1.44727L214.54 31.4473Z" fill="#8BC5E4"/>
<path d="M62.5875 119.177L10.626 89.1772L62.5875 119.177Z" fill="#8BC5E4"/>
<path d="M62.5875 124.697L214.54 36.9673L162.579 6.96729L10.626 94.6973L62.5875 124.697Z" fill="#8BC5E4"/>
<path d="M220.369 40.2922V215.862L168.407 185.862V10.2922L220.369 40.2922Z" fill="#8BC5E4"/>
<path d="M214.54 225.927L62.5875 313.657L10.626 283.657L162.579 195.927L214.54 225.927Z" fill="#8BC5E4"/>
<path d="M56.7593 310.322V134.752L4.79785 104.752V280.322L56.7593 310.322Z" fill="#8BC5E4"/>
<path d="M62.5875 124.697L10.626 94.6973L62.5875 124.697Z" fill="#8BC5E4"/>
<path d="M62.5875 124.697L214.54 36.9673L162.579 6.96729L10.626 94.6973L62.5875 124.697Z" fill="#8BC5E4"/>
<path d="M220.369 40.2922V215.862L168.407 185.862V10.2922L220.369 40.2922Z" fill="#8BC5E4"/>
<path d="M214.54 225.927L62.5875 313.657L10.626 283.657L162.579 195.927L214.54 225.927Z" fill="#8BC5E4"/>
<path d="M56.7593 310.322V134.752L4.79785 104.752V280.322L56.7593 310.322Z" fill="#8BC5E4"/>
<path d="M62.5875 124.697L10.626 94.6973L62.5875 124.697Z" fill="#8BC5E4"/>
<path d="M101.645 176.037V155.947L49.6836 125.947V146.037L101.645 176.037Z" fill="#8BC5E4"/>
<path d="M101.645 155.947L130.527 139.272L78.5655 109.272L49.6836 125.947L101.645 155.947Z" fill="#8BC5E4"/>
<path d="M130.527 139.272V157.062L78.5659 127.062V109.272L130.527 139.272Z" fill="#8BC5E4"/>
<path d="M130.527 157.062L140.911 158.527L88.9495 128.527L78.5659 127.062L130.527 157.062Z" fill="#8BC5E4"/>
<path d="M140.911 158.527L151.416 145.052L99.4541 115.052L88.9492 128.527L140.911 158.527Z" fill="#8BC5E4"/>
<path d="M151.416 145.052V127.212L99.4541 97.2122V115.052L151.416 145.052Z" fill="#8BC5E4"/>
<path d="M151.416 127.212L180.298 110.537L128.336 80.5374L99.4541 97.2124L151.416 127.212Z" fill="#8BC5E4"/>
<path d="M180.298 110.537V130.627L128.336 100.627V80.5374L180.298 110.537Z" fill="#8BC5E4"/>
<path d="M180.298 130.627L172.027 135.402L120.065 105.402L128.336 100.627L180.298 130.627Z" fill="#8BC5E4"/>
<path d="M172.027 135.402L185.953 158.322L133.991 128.322L120.065 105.402L172.027 135.402Z" fill="#8BC5E4"/>
<path d="M185.953 158.322L202.451 148.797L150.489 118.797L133.991 128.322L185.953 158.322Z" fill="#8BC5E4"/>
<path d="M202.451 148.797V168.887L150.489 138.887V118.797L202.451 148.797Z" fill="#8BC5E4"/>
<path d="M202.451 168.887L173.577 185.557L121.616 155.557L150.489 138.887L202.451 168.887Z" fill="#8BC5E4"/>
<path d="M173.577 185.557V168.037L121.616 138.037V155.557L173.577 185.557Z" fill="#8BC5E4"/>
<path d="M173.577 168.037L153.615 165.222L101.654 135.222L121.616 138.037L173.577 168.037Z" fill="#8BC5E4"/>
<path d="M153.616 165.222L147.831 180.332L95.8691 150.332L101.654 135.222L153.616 165.222Z" fill="#8BC5E4"/>
<path d="M147.831 180.332L155.227 176.062L103.265 146.062L95.8691 150.332L147.831 180.332Z" fill="#8BC5E4"/>
<path d="M155.226 176.062V196.152L103.265 166.152V146.062L155.226 176.062Z" fill="#8BC5E4"/>
<path d="M155.226 196.152L126.353 212.822L74.3916 182.822L103.265 166.152L155.226 196.152Z" fill="#8BC5E4"/>
<path d="M126.353 212.822V192.732L74.3916 162.732V182.822L126.353 212.822Z" fill="#8BC5E4"/>
<path d="M126.353 192.732L133.87 188.392L81.9087 158.392L74.3916 162.732L126.353 192.732Z" fill="#8BC5E4"/>
<path d="M133.87 188.392L128.059 179.917L76.0977 149.917L81.9088 158.392L133.87 188.392Z" fill="#8BC5E4"/>
<path d="M128.059 179.917L108.002 205.647L56.0405 175.647L76.0976 149.917L128.059 179.917Z" fill="#8BC5E4"/>
<path d="M108.002 205.647V223.417L56.0405 193.417V175.647L108.002 205.647Z" fill="#8BC5E4"/>
<path d="M108.002 223.417L79.1285 240.087L27.167 210.087L56.0403 193.417L108.002 223.417Z" fill="#8BC5E4"/>
<path d="M79.1285 240.087V219.997L27.167 189.997V210.087L79.1285 240.087Z" fill="#8BC5E4"/>
<path d="M79.1285 219.997L95.9381 210.292L43.9765 180.292L27.167 189.997L79.1285 219.997Z" fill="#8BC5E4"/>
<path d="M95.9382 210.292L109.578 171.457L57.6165 141.457L43.9766 180.292L95.9382 210.292Z" fill="#8BC5E4"/>
<path d="M109.578 171.457L101.645 176.037L49.6836 146.037L57.6163 141.457L109.578 171.457Z" fill="#8BC5E4"/>
<path d="M101.645 176.037L49.6836 146.037L101.645 176.037Z" fill="#8BC5E4"/>
<path d="M163.046 140.587L167.939 137.762L115.978 107.762L111.085 110.587L163.046 140.587Z" fill="#8BC5E4"/>
<path d="M167.94 137.762L181.865 160.682L129.904 130.682L115.978 107.762L167.94 137.762Z" fill="#8BC5E4"/>
<path d="M181.865 160.682L176.842 163.582L124.881 133.582L129.904 130.682L181.865 160.682Z" fill="#8BC5E4"/>
<path d="M176.842 163.582L155.399 160.562L103.438 130.562L124.881 133.582L176.842 163.582Z" fill="#8BC5E4"/>
<path d="M155.399 160.562L163.046 140.587L111.085 110.587L103.438 130.562L155.399 160.562Z" fill="#8BC5E4"/>
<path d="M163.046 140.587L111.085 110.587L163.046 140.587Z" fill="#8BC5E4"/>
<path d="M155.157 145.142L158.881 142.992L106.919 112.992L103.195 115.142L155.157 145.142Z" fill="#8BC5E4"/>
<path d="M158.881 142.992L152.316 160.132L100.355 130.132L106.919 112.992L158.881 142.992Z" fill="#8BC5E4"/>
<path d="M152.317 160.132L144.349 159.012L92.3877 129.012L100.355 130.132L152.317 160.132Z" fill="#8BC5E4"/>
<path d="M144.349 159.012L155.157 145.142L103.196 115.142L92.3877 129.012L144.349 159.012Z" fill="#8BC5E4"/>
<path d="M155.157 145.142L103.195 115.142L155.157 145.142Z" fill="#8BC5E4"/>
<path d="M140.894 163.447L150.533 164.792L98.571 134.792L88.9321 133.447L140.894 163.447Z" fill="#8BC5E4"/>
<path d="M150.532 164.792L143.665 182.737L91.7031 152.737L98.5707 134.792L150.532 164.792Z" fill="#8BC5E4"/>
<path d="M143.665 182.737L138.036 185.987L86.0742 155.987L91.7034 152.737L143.665 182.737Z" fill="#8BC5E4"/>
<path d="M138.036 185.987L131.151 175.942L79.1895 145.942L86.0744 155.987L138.036 185.987Z" fill="#8BC5E4"/>
<path d="M131.151 175.942L140.894 163.447L88.9323 133.447L79.1895 145.942L131.151 175.942Z" fill="#8BC5E4"/>
<path d="M140.894 163.447L88.9321 133.447L140.894 163.447Z" fill="#8BC5E4"/>
<path d="M122.828 163.807L126.881 161.467L74.9197 131.467L70.8667 133.807L122.828 163.807Z" fill="#8BC5E4"/>
<path d="M126.882 161.467L137.456 162.962L85.4941 132.962L74.9199 131.467L126.882 161.467Z" fill="#8BC5E4"/>
<path d="M137.455 162.962L129.367 173.342L77.4053 143.342L85.494 132.962L137.455 162.962Z" fill="#8BC5E4"/>
<path d="M129.367 173.342L122.828 163.807L70.8667 133.807L77.4052 143.342L129.367 173.342Z" fill="#8BC5E4"/>
<path d="M122.828 163.807L70.8667 133.807L122.828 163.807Z" fill="#8BC5E4"/>
<path d="M113.649 169.107L118.663 166.212L66.7012 136.212L61.687 139.107L113.649 169.107Z" fill="#8BC5E4"/>
<path d="M118.663 166.212L126.266 177.312L74.305 147.312L66.7012 136.212L118.663 166.212Z" fill="#8BC5E4"/>
<path d="M126.267 177.312L104.356 205.432L52.3945 175.432L74.305 147.312L126.267 177.312Z" fill="#8BC5E4"/>
<path d="M104.356 205.432L100.008 207.942L48.0469 177.942L52.3943 175.432L104.356 205.432Z" fill="#8BC5E4"/>
<path d="M100.008 207.942L113.648 169.107L61.6868 139.107L48.0469 177.942L100.008 207.942Z" fill="#8BC5E4"/>
<path d="M113.649 169.107L61.687 139.107L113.649 169.107Z" fill="#8BC5E4"/>
<path d="M62.5876 119.177C56.742 122.552 51.9615 130.802 51.9615 137.522L0 107.522C0 100.802 4.7804 92.5522 10.6261 89.1772L62.5876 119.177Z" fill="#8BC5E4"/>
<path d="M51.9615 313.092C51.9615 316.459 53.1615 318.826 55.0935 319.927L3.132 289.927C1.2 288.826 0 286.459 0 283.092L51.9615 313.092Z" fill="#8BC5E4"/>
<path d="M55.1026 319.931C57.0246 321.021 59.6696 320.859 62.5796 319.182L10.6181 289.182C7.70811 290.859 5.06311 291.021 3.14111 289.931L55.1026 319.931Z" fill="#8BC5E4"/>
<path d="M214.54 231.447C220.386 228.072 225.166 219.812 225.166 213.092L173.205 183.092C173.205 189.812 168.424 198.072 162.579 201.447L214.54 231.447Z" fill="#8BC5E4"/>
<path d="M225.167 37.5223C225.167 34.1493 223.963 31.7813 222.024 30.6863L170.062 0.686279C172.001 1.78128 173.205 4.14928 173.205 7.52228L225.167 37.5223Z" fill="#8BC5E4"/>
<path d="M222.025 30.6882C220.103 29.6012 217.458 29.7652 214.549 31.4422L162.588 1.44224C165.497 -0.234765 168.142 -0.398765 170.064 0.688235L222.025 30.6882Z" fill="#8BC5E4"/>
<path d="M214.54 36.9673C216.17 36.0263 217.622 35.9143 218.669 36.5043L166.708 6.50433C165.661 5.91433 164.209 6.02633 162.579 6.96733L214.54 36.9673Z" fill="#8BC5E4"/>
<path d="M218.68 36.5103C219.728 37.1063 220.367 38.4083 220.368 40.2863L168.407 10.2863C168.406 8.40825 167.767 7.10625 166.719 6.51025L218.68 36.5103Z" fill="#8BC5E4"/>
<path d="M220.369 215.862C220.369 219.622 217.814 224.037 214.54 225.927L162.579 195.927C165.852 194.037 168.407 189.622 168.407 185.862L220.369 215.862Z" fill="#8BC5E4"/>
<path d="M62.5875 313.657C60.9504 314.602 59.4934 314.708 58.4454 314.108L6.48389 284.108C7.53189 284.708 8.98889 284.602 10.626 283.657L62.5875 313.657Z" fill="#8BC5E4"/>
<path d="M58.4474 314.109C57.3994 313.51 56.7603 312.205 56.7593 310.328L4.79785 280.328C4.79885 282.205 5.43785 283.51 6.48585 284.109L58.4474 314.109Z" fill="#8BC5E4"/>
<path d="M56.7593 134.752C56.7593 130.992 59.3142 126.587 62.5877 124.697L10.6262 94.6973C7.35255 96.5873 4.79785 100.992 4.79785 104.752L56.7593 134.752Z" fill="#8BC5E4"/>
<path d="M214.54 36.9673C216.17 36.0263 217.622 35.9143 218.669 36.5043L166.708 6.50433C165.661 5.91433 164.209 6.02633 162.579 6.96733L214.54 36.9673Z" fill="#8BC5E4"/>
<path d="M218.68 36.5103C219.728 37.1063 220.367 38.4083 220.368 40.2863L168.407 10.2863C168.406 8.40825 167.767 7.10625 166.719 6.51025L218.68 36.5103Z" fill="#8BC5E4"/>
<path d="M220.369 215.862C220.369 219.622 217.814 224.037 214.54 225.927L162.579 195.927C165.852 194.037 168.407 189.622 168.407 185.862L220.369 215.862Z" fill="#8BC5E4"/>
<path d="M62.5875 313.657C60.9504 314.602 59.4934 314.708 58.4454 314.108L6.48389 284.108C7.53189 284.708 8.98889 284.602 10.626 283.657L62.5875 313.657Z" fill="#8BC5E4"/>
<path d="M58.4474 314.109C57.3994 313.51 56.7603 312.205 56.7593 310.328L4.79785 280.328C4.79885 282.205 5.43785 283.51 6.48585 284.109L58.4474 314.109Z" fill="#8BC5E4"/>
<path d="M56.7593 134.752C56.7593 130.992 59.3142 126.587 62.5877 124.697L10.6262 94.6973C7.35255 96.5873 4.79785 100.992 4.79785 104.752L56.7593 134.752Z" fill="#8BC5E4"/>
<path d="M101.645 155.947V176.037L109.578 171.457L95.9382 210.292L79.1286 219.997V240.087L108.002 223.417V205.647L128.059 179.917L133.87 188.392L126.353 192.732V212.822L155.226 196.152V176.062L147.83 180.332L153.615 165.222L173.577 168.037V185.557L202.451 168.887V148.797L185.953 158.322L172.027 135.402L180.298 130.627V110.537L151.416 127.212V145.052L140.911 158.527L130.527 157.062V139.272L101.645 155.947ZM113.648 169.107L118.663 166.212L126.266 177.312L104.356 205.432L100.009 207.942L113.648 169.107ZM122.828 163.807L126.881 161.467L137.455 162.962L129.367 173.342L122.828 163.807ZM155.157 145.142L158.881 142.992L152.316 160.132L144.349 159.012L155.157 145.142ZM163.047 140.587L167.94 137.762L181.865 160.682L176.842 163.582L155.4 160.562L163.047 140.587ZM140.894 163.447L150.532 164.792L143.665 182.737L138.036 185.987L131.151 175.942L140.894 163.447ZM62.5876 119.177C56.7419 122.552 51.9614 130.802 51.9614 137.522V313.092C51.9614 319.812 56.7419 322.552 62.5876 319.177L214.54 231.447C220.386 228.072 225.167 219.812 225.167 213.092V37.5223C225.167 30.8023 220.386 28.0723 214.54 31.4473L62.5876 119.177ZM62.5876 124.697L214.54 36.9673C217.814 35.0773 220.369 36.5323 220.369 40.2923V215.862C220.369 219.622 217.814 224.037 214.54 225.927L62.5876 313.657C59.314 315.547 56.7592 314.082 56.7592 310.322V134.752C56.7592 130.992 59.314 126.587 62.5876 124.697Z" fill="#8BC5E4"/>
<path fill-rule="evenodd" clip-rule="evenodd" d="M62.5876 124.697L214.54 36.9673C217.814 35.0773 220.369 36.5323 220.369 40.2923V215.862C220.369 219.622 217.814 224.037 214.54 225.927L62.5876 313.657C59.314 315.547 56.7592 314.082 56.7592 310.322V134.752C56.7592 130.992 59.314 126.587 62.5876 124.697ZM101.645 176.037V155.947L130.527 139.272V157.062L140.911 158.527L151.416 145.052V127.212L180.298 110.537V130.627L172.027 135.402L185.953 158.322L202.451 148.797V168.887L173.577 185.557V168.037L153.615 165.222L147.83 180.332L155.226 176.062V196.152L126.353 212.822V192.732L133.87 188.392L128.059 179.917L108.002 205.647V223.417L79.1286 240.087V219.997L95.9382 210.292L109.578 171.457L101.645 176.037Z" fill="white"/>
<path d="M163.047 140.587L167.94 137.762L181.865 160.682L176.842 163.582L155.4 160.562L163.047 140.587Z" fill="white"/>
<path d="M155.157 145.142L158.881 142.992L152.316 160.132L144.349 159.012L155.157 145.142Z" fill="white"/>
<path d="M140.894 163.447L150.532 164.792L143.665 182.737L138.036 185.987L131.151 175.942L140.894 163.447Z" fill="white"/>
<path d="M122.828 163.807L126.881 161.467L137.455 162.962L129.367 173.342L122.828 163.807Z" fill="white"/>
<path d="M113.648 169.107L118.663 166.212L126.266 177.312L104.356 205.432L100.009 207.942L113.648 169.107Z" fill="white"/>
</svg>
