<svg width="226" height="418" viewBox="0 0 226 418" fill="none" xmlns="http://www.w3.org/2000/svg">
<path d="M117.017 286.338L65.0557 256.338L117.017 286.338Z" fill="#8BC5E4"/>
<path d="M184.673 292.726L184.671 292.728L132.71 262.728L132.711 262.726L184.673 292.726Z" fill="#8BC5E4"/>
<path d="M160.102 261.443L108.141 231.443L160.102 261.443Z" fill="#8BC5E4"/>
<path d="M92.4556 241.26L92.4567 241.258L40.4952 211.258L40.4941 211.26L92.4556 241.26Z" fill="#8BC5E4"/>
<path d="M93.358 240.518L41.3965 210.518L93.358 240.518Z" fill="#8BC5E4"/>
<path d="M184.671 188.018L184.673 188.018L132.711 158.018L132.71 158.018L184.671 188.018Z" fill="#8BC5E4"/>
<path d="M183.779 188.313L131.817 158.313L183.779 188.313Z" fill="#8BC5E4"/>
<path d="M138.798 195.573L127.184 215.078L75.2227 185.078L86.8361 165.573L138.798 195.573Z" fill="#8BC5E4"/>
<path d="M127.184 215.078L135.403 210.333L83.4413 180.333L75.2227 185.078L127.184 215.078Z" fill="#8BC5E4"/>
<path d="M135.403 210.333V237.553L83.4414 207.553V180.333L135.403 210.333Z" fill="#8BC5E4"/>
<path d="M111.041 279.228L87.8492 292.618L35.8877 262.618L59.0798 249.228L111.041 279.228Z" fill="#8BC5E4"/>
<path d="M87.8492 292.618V283.148L35.8877 253.148V262.618L87.8492 292.618Z" fill="#8BC5E4"/>
<path d="M87.8492 283.148L76.7467 302.938L24.7852 272.938L35.8877 253.148L87.8492 283.148Z" fill="#8BC5E4"/>
<path d="M76.7467 302.938L87.8492 309.388L35.8877 279.388L24.7852 272.938L76.7467 302.938Z" fill="#8BC5E4"/>
<path d="M87.8492 309.388V300.598L35.8877 270.598V279.388L87.8492 309.388Z" fill="#8BC5E4"/>
<path d="M87.8492 300.598L110.522 287.508L58.5602 257.508L35.8877 270.598L87.8492 300.598Z" fill="#8BC5E4"/>
<path d="M135.403 300.073V327.283L83.4414 297.283V270.073L135.403 300.073Z" fill="#8BC5E4"/>
<path d="M135.403 327.283L127.184 332.028L75.2227 302.028L83.4413 297.283L135.403 327.283Z" fill="#8BC5E4"/>
<path d="M127.184 332.028L138.798 338.133L86.8361 308.133L75.2227 302.028L127.184 332.028Z" fill="#8BC5E4"/>
<path d="M138.798 338.133L149.943 318.888L97.9817 288.888L86.8359 308.133L138.798 338.133Z" fill="#8BC5E4"/>
<path d="M149.944 318.888L142.323 323.288L90.3613 293.288L97.9823 288.888L149.944 318.888Z" fill="#8BC5E4"/>
<path d="M142.323 323.288V296.658L90.3613 266.658V293.288L142.323 323.288Z" fill="#8BC5E4"/>
<path d="M166.606 255.128L189.279 242.038L137.317 212.038L114.645 225.128L166.606 255.128Z" fill="#8BC5E4"/>
<path d="M189.279 242.038V250.828L137.317 220.828V212.038L189.279 242.038Z" fill="#8BC5E4"/>
<path d="M189.279 250.828L200.381 231.558L148.42 201.558L137.317 220.828L189.279 250.828Z" fill="#8BC5E4"/>
<path d="M200.381 231.558L189.279 224.588L137.317 194.588L148.42 201.558L200.381 231.558Z" fill="#8BC5E4"/>
<path d="M189.279 224.588V234.058L137.317 204.058V194.588L189.279 224.588Z" fill="#8BC5E4"/>
<path d="M189.279 234.058L166.086 247.448L114.125 217.448L137.317 204.058L189.279 234.058Z" fill="#8BC5E4"/>
<path d="M142.323 232.978V206.338L90.3613 176.338V202.978L142.323 232.978Z" fill="#8BC5E4"/>
<path d="M142.323 206.338L149.944 201.938L97.9823 171.938L90.3613 176.338L142.323 206.338Z" fill="#8BC5E4"/>
<path d="M149.943 201.938L138.798 195.573L86.8359 165.573L97.9817 171.938L149.943 201.938Z" fill="#8BC5E4"/>
<path d="M138.798 195.573L86.8359 165.573L138.798 195.573Z" fill="#8BC5E4"/>
<path d="M138.841 118.788L166.606 115.278L114.645 85.2778L86.8799 88.7878L138.841 118.788Z" fill="#8BC5E4"/>
<path d="M166.606 115.278V117.598L114.645 87.5978V85.2778L166.606 115.278Z" fill="#8BC5E4"/>
<path d="M166.606 117.598L110.522 149.978L58.5605 119.978L114.644 87.5979L166.606 117.598Z" fill="#8BC5E4"/>
<path d="M110.522 149.978V147.908L58.5605 117.908V119.978L110.522 149.978Z" fill="#8BC5E4"/>
<path d="M110.522 147.908L138.841 118.788L86.8795 88.7878L58.5605 117.908L110.522 147.908Z" fill="#8BC5E4"/>
<path d="M138.841 118.788L86.8799 88.7878L138.841 118.788Z" fill="#8BC5E4"/>
<path d="M110.522 116.228L166.606 83.8479L114.644 53.8479L58.5605 86.2279L110.522 116.228Z" fill="#8BC5E4"/>
<path d="M166.606 83.8479V86.8779L114.645 56.8779V53.8479L166.606 83.8479Z" fill="#8BC5E4"/>
<path d="M166.606 86.8779L138.841 115.428L86.8799 85.4279L114.645 56.8779L166.606 86.8779Z" fill="#8BC5E4"/>
<path d="M138.841 115.428L110.522 119.008L58.5605 89.008L86.8795 85.428L138.841 115.428Z" fill="#8BC5E4"/>
<path d="M110.522 119.008V116.228L58.5605 86.2278V89.0078L110.522 119.008Z" fill="#8BC5E4"/>
<path d="M110.522 116.228L58.5605 86.2278L110.522 116.228Z" fill="#8BC5E4"/>
<path d="M84.7144 122.198V136.918L32.7529 106.918V92.1978L84.7144 122.198Z" fill="#8BC5E4"/>
<path d="M84.7144 136.918L109.708 122.488L57.7463 92.4878L32.7529 106.918L84.7144 136.918Z" fill="#8BC5E4"/>
<path d="M109.708 122.488L135.108 119.263L83.1467 89.2629L57.7461 92.4879L109.708 122.488Z" fill="#8BC5E4"/>
<path d="M135.109 119.263L110.522 144.538L58.5605 114.538L83.147 89.2629L135.109 119.263Z" fill="#8BC5E4"/>
<path d="M110.522 144.538V144.278L58.5605 114.278V114.538L110.522 144.538Z" fill="#8BC5E4"/>
<path d="M110.522 144.278L84.7144 159.178L32.7529 129.178L58.5604 114.278L110.522 144.278Z" fill="#8BC5E4"/>
<path d="M84.7144 159.178V173.908L32.7529 143.908V129.178L84.7144 159.178Z" fill="#8BC5E4"/>
<path d="M84.7144 173.908L110.522 159.008L58.5604 129.008L32.7529 143.908L84.7144 173.908Z" fill="#8BC5E4"/>
<path d="M110.522 159.008V153.118L58.5605 123.118V129.008L110.522 159.008Z" fill="#8BC5E4"/>
<path d="M110.522 153.118L166.606 120.738L114.644 90.7378L58.5605 123.118L110.522 153.118Z" fill="#8BC5E4"/>
<path d="M166.606 120.738V126.628L114.645 96.6278V90.7378L166.606 120.738Z" fill="#8BC5E4"/>
<path d="M166.606 126.628L192.414 111.728L140.452 81.7278L114.645 96.6278L166.606 126.628Z" fill="#8BC5E4"/>
<path d="M192.414 111.728V96.9978L140.452 66.9978V81.7278L192.414 111.728Z" fill="#8BC5E4"/>
<path d="M192.414 96.9978L166.606 111.898L114.645 81.8978L140.452 66.9978L192.414 96.9978Z" fill="#8BC5E4"/>
<path d="M166.606 111.898V111.908L114.645 81.9079V81.8979L166.606 111.898Z" fill="#8BC5E4"/>
<path d="M166.606 111.908L142.574 114.953L90.6123 84.953L114.645 81.908L166.606 111.908Z" fill="#8BC5E4"/>
<path d="M142.574 114.953L167.983 88.8428L116.022 58.8428L90.6123 84.9528L142.574 114.953Z" fill="#8BC5E4"/>
<path d="M167.983 88.8428L192.414 74.7378L140.452 44.7378L116.021 58.8428L167.983 88.8428Z" fill="#8BC5E4"/>
<path d="M192.414 74.7378V60.0178L140.452 30.0178V44.7378L192.414 74.7378Z" fill="#8BC5E4"/>
<path d="M192.414 60.0178L166.606 74.9178L114.645 44.9178L140.452 30.0178L192.414 60.0178Z" fill="#8BC5E4"/>
<path d="M166.606 74.918V80.708L114.645 50.708V44.918L166.606 74.918Z" fill="#8BC5E4"/>
<path d="M166.606 80.7078L110.522 113.088L58.5605 83.0878L114.644 50.7078L166.606 80.7078Z" fill="#8BC5E4"/>
<path d="M110.522 113.088V107.298L58.5605 77.2979V83.0879L110.522 113.088Z" fill="#8BC5E4"/>
<path d="M110.522 107.298L84.7144 122.198L32.7529 92.1979L58.5604 77.2979L110.522 107.298Z" fill="#8BC5E4"/>
<path d="M84.7144 122.198L32.7529 92.1978L84.7144 122.198Z" fill="#8BC5E4"/>
<path d="M62.5875 216.063L214.54 128.333L162.579 98.3328L10.626 186.063L62.5875 216.063Z" fill="#8BC5E4"/>
<path d="M220.369 131.688V307.838L168.407 277.838V101.688L220.369 131.688Z" fill="#8BC5E4"/>
<path d="M214.54 317.913L62.5875 405.643L10.626 375.643L162.579 287.913L214.54 317.913Z" fill="#8BC5E4"/>
<path d="M56.7593 402.298V226.148L4.79785 196.148V372.298L56.7593 402.298Z" fill="#8BC5E4"/>
<path d="M62.5875 216.063L10.626 186.063L62.5875 216.063Z" fill="#8BC5E4"/>
<path d="M51.9615 228.918V405.068L0 375.068V198.918L51.9615 228.918Z" fill="#8BC5E4"/>
<path d="M62.5875 411.173L214.54 323.443L162.579 293.443L10.626 381.173L62.5875 411.173Z" fill="#8BC5E4"/>
<path d="M225.167 305.068V128.918L173.205 98.918V275.068L225.167 305.068Z" fill="#8BC5E4"/>
<path d="M214.54 122.803L62.5875 210.533L10.626 180.533L162.579 92.803L214.54 122.803Z" fill="#8BC5E4"/>
<path d="M62.5875 210.533L10.626 180.533L62.5875 210.533Z" fill="#8BC5E4"/>
<path d="M62.5875 124.703L214.54 36.9729L162.579 6.9729L10.626 94.7029L62.5875 124.703Z" fill="#8BC5E4"/>
<path d="M220.369 40.3279V99.0879L168.407 69.0879V10.3279L220.369 40.3279Z" fill="#8BC5E4"/>
<path d="M214.54 109.173L62.5875 196.903L10.626 166.903L162.579 79.1729L214.54 109.173Z" fill="#8BC5E4"/>
<path d="M56.7593 193.548V134.788L4.79785 104.788V163.548L56.7593 193.548Z" fill="#8BC5E4"/>
<path d="M62.5875 124.703L10.626 94.7029L62.5875 124.703Z" fill="#8BC5E4"/>
<path d="M51.9615 137.558V196.318L0 166.318V107.558L51.9615 137.558Z" fill="#8BC5E4"/>
<path d="M62.5875 202.433L214.54 114.703L162.579 84.7029L10.626 172.433L62.5875 202.433Z" fill="#8BC5E4"/>
<path d="M225.167 96.3179V37.5579L173.205 7.55786V66.3179L225.167 96.3179Z" fill="#8BC5E4"/>
<path d="M214.54 31.4429L62.5875 119.173L10.626 89.1729L162.579 1.44287L214.54 31.4429Z" fill="#8BC5E4"/>
<path d="M62.5875 119.173L10.626 89.1729L62.5875 119.173Z" fill="#8BC5E4"/>
<path d="M62.5875 216.063L214.54 128.333L162.579 98.3328L10.626 186.063L62.5875 216.063Z" fill="#8BC5E4"/>
<path d="M220.369 131.688V307.838L168.407 277.838V101.688L220.369 131.688Z" fill="#8BC5E4"/>
<path d="M214.54 317.913L62.5875 405.643L10.626 375.643L162.579 287.913L214.54 317.913Z" fill="#8BC5E4"/>
<path d="M56.7593 402.298V226.148L4.79785 196.148V372.298L56.7593 402.298Z" fill="#8BC5E4"/>
<path d="M62.5875 216.063L10.626 186.063L62.5875 216.063Z" fill="#8BC5E4"/>
<path d="M127.184 215.078L138.798 195.573L86.8361 165.573L75.2227 185.078L127.184 215.078Z" fill="#8BC5E4"/>
<path d="M138.798 195.573L149.943 201.938L97.9817 171.938L86.8359 165.573L138.798 195.573Z" fill="#8BC5E4"/>
<path d="M149.944 201.938L142.323 206.338L90.3613 176.338L97.9823 171.938L149.944 201.938Z" fill="#8BC5E4"/>
<path d="M142.323 206.338V232.978L90.3613 202.978V176.338L142.323 206.338Z" fill="#8BC5E4"/>
<path d="M166.086 247.448L189.279 234.058L137.317 204.058L114.125 217.448L166.086 247.448Z" fill="#8BC5E4"/>
<path d="M189.279 234.058V224.588L137.317 194.588V204.058L189.279 234.058Z" fill="#8BC5E4"/>
<path d="M189.279 224.588L200.381 231.558L148.42 201.558L137.317 194.588L189.279 224.588Z" fill="#8BC5E4"/>
<path d="M200.381 231.558L189.279 250.828L137.317 220.828L148.42 201.558L200.381 231.558Z" fill="#8BC5E4"/>
<path d="M189.279 250.828V242.038L137.317 212.038V220.828L189.279 250.828Z" fill="#8BC5E4"/>
<path d="M189.279 242.038L166.606 255.128L114.645 225.128L137.317 212.038L189.279 242.038Z" fill="#8BC5E4"/>
<path d="M142.323 296.658V323.288L90.3613 293.288V266.658L142.323 296.658Z" fill="#8BC5E4"/>
<path d="M142.323 323.288L149.944 318.888L97.9823 288.888L90.3613 293.288L142.323 323.288Z" fill="#8BC5E4"/>
<path d="M149.943 318.888L138.798 338.133L86.8359 308.133L97.9817 288.888L149.943 318.888Z" fill="#8BC5E4"/>
<path d="M138.798 338.133L127.184 332.028L75.2227 302.028L86.8361 308.133L138.798 338.133Z" fill="#8BC5E4"/>
<path d="M127.184 332.028L135.403 327.283L83.4413 297.283L75.2227 302.028L127.184 332.028Z" fill="#8BC5E4"/>
<path d="M135.403 327.283V300.073L83.4414 270.073V297.283L135.403 327.283Z" fill="#8BC5E4"/>
<path d="M110.522 287.508L87.8492 300.598L35.8877 270.598L58.5602 257.508L110.522 287.508Z" fill="#8BC5E4"/>
<path d="M87.8492 300.598V309.388L35.8877 279.388V270.598L87.8492 300.598Z" fill="#8BC5E4"/>
<path d="M87.8492 309.388L76.7467 302.938L24.7852 272.938L35.8877 279.388L87.8492 309.388Z" fill="#8BC5E4"/>
<path d="M76.7467 302.938L87.8492 283.148L35.8877 253.148L24.7852 272.938L76.7467 302.938Z" fill="#8BC5E4"/>
<path d="M87.8492 283.148V292.618L35.8877 262.618V253.148L87.8492 283.148Z" fill="#8BC5E4"/>
<path d="M87.8492 292.618L111.041 279.228L59.0798 249.228L35.8877 262.618L87.8492 292.618Z" fill="#8BC5E4"/>
<path d="M135.403 237.553V210.333L83.4414 180.333V207.553L135.403 237.553Z" fill="#8BC5E4"/>
<path d="M135.403 210.333L127.184 215.078L75.2227 185.078L83.4413 180.333L135.403 210.333Z" fill="#8BC5E4"/>
<path d="M127.184 215.078L75.2227 185.078L127.184 215.078Z" fill="#8BC5E4"/>
<path d="M138.841 118.788L166.606 115.278L114.645 85.2778L86.8799 88.7878L138.841 118.788Z" fill="#8BC5E4"/>
<path d="M166.606 115.278V117.598L114.645 87.5978V85.2778L166.606 115.278Z" fill="#8BC5E4"/>
<path d="M166.606 117.598L110.522 149.978L58.5605 119.978L114.644 87.5979L166.606 117.598Z" fill="#8BC5E4"/>
<path d="M110.522 149.978V147.908L58.5605 117.908V119.978L110.522 149.978Z" fill="#8BC5E4"/>
<path d="M110.522 147.908L138.841 118.788L86.8795 88.7878L58.5605 117.908L110.522 147.908Z" fill="#8BC5E4"/>
<path d="M138.841 118.788L86.8799 88.7878L138.841 118.788Z" fill="#8BC5E4"/>
<path d="M110.522 116.228L166.606 83.8479L114.644 53.8479L58.5605 86.2279L110.522 116.228Z" fill="#8BC5E4"/>
<path d="M166.606 83.8479V86.8779L114.645 56.8779V53.8479L166.606 83.8479Z" fill="#8BC5E4"/>
<path d="M166.606 86.8779L138.841 115.428L86.8799 85.4279L114.645 56.8779L166.606 86.8779Z" fill="#8BC5E4"/>
<path d="M138.841 115.428L110.522 119.008L58.5605 89.008L86.8795 85.428L138.841 115.428Z" fill="#8BC5E4"/>
<path d="M110.522 119.008V116.228L58.5605 86.2278V89.0078L110.522 119.008Z" fill="#8BC5E4"/>
<path d="M110.522 116.228L58.5605 86.2278L110.522 116.228Z" fill="#8BC5E4"/>
<path d="M62.5875 124.703L214.54 36.9729L162.579 6.9729L10.626 94.7029L62.5875 124.703Z" fill="#8BC5E4"/>
<path d="M220.369 40.3279V99.0879L168.407 69.0879V10.3279L220.369 40.3279Z" fill="#8BC5E4"/>
<path d="M214.54 109.173L62.5875 196.903L10.626 166.903L162.579 79.1729L214.54 109.173Z" fill="#8BC5E4"/>
<path d="M56.7593 193.548V134.788L4.79785 104.788V163.548L56.7593 193.548Z" fill="#8BC5E4"/>
<path d="M62.5875 124.703L10.626 94.7029L62.5875 124.703Z" fill="#8BC5E4"/>
<path d="M84.7144 136.918V122.198L32.7529 92.1978V106.918L84.7144 136.918Z" fill="#8BC5E4"/>
<path d="M84.7144 122.198L110.522 107.298L58.5604 77.2979L32.7529 92.1979L84.7144 122.198Z" fill="#8BC5E4"/>
<path d="M110.522 107.298V113.088L58.5605 83.0879V77.2979L110.522 107.298Z" fill="#8BC5E4"/>
<path d="M110.522 113.088L166.606 80.7078L114.644 50.7078L58.5605 83.0878L110.522 113.088Z" fill="#8BC5E4"/>
<path d="M166.606 80.708V74.918L114.645 44.918V50.708L166.606 80.708Z" fill="#8BC5E4"/>
<path d="M166.606 74.9178L192.414 60.0178L140.452 30.0178L114.645 44.9178L166.606 74.9178Z" fill="#8BC5E4"/>
<path d="M192.414 60.0178V74.7378L140.452 44.7378V30.0178L192.414 60.0178Z" fill="#8BC5E4"/>
<path d="M192.414 74.7378L167.983 88.8428L116.021 58.8428L140.452 44.7378L192.414 74.7378Z" fill="#8BC5E4"/>
<path d="M167.983 88.8428L142.574 114.953L90.6123 84.9528L116.022 58.8428L167.983 88.8428Z" fill="#8BC5E4"/>
<path d="M142.574 114.953L166.606 111.908L114.645 81.908L90.6123 84.953L142.574 114.953Z" fill="#8BC5E4"/>
<path d="M166.606 111.908V111.898L114.645 81.8979V81.9079L166.606 111.908Z" fill="#8BC5E4"/>
<path d="M166.606 111.898L192.414 96.9978L140.452 66.9978L114.645 81.8978L166.606 111.898Z" fill="#8BC5E4"/>
<path d="M192.414 96.9978V111.728L140.452 81.7278V66.9978L192.414 96.9978Z" fill="#8BC5E4"/>
<path d="M192.414 111.728L166.606 126.628L114.645 96.6278L140.452 81.7278L192.414 111.728Z" fill="#8BC5E4"/>
<path d="M166.606 126.628V120.738L114.645 90.7378V96.6278L166.606 126.628Z" fill="#8BC5E4"/>
<path d="M166.606 120.738L110.522 153.118L58.5605 123.118L114.644 90.7378L166.606 120.738Z" fill="#8BC5E4"/>
<path d="M110.522 153.118V159.008L58.5605 129.008V123.118L110.522 153.118Z" fill="#8BC5E4"/>
<path d="M110.522 159.008L84.7144 173.908L32.7529 143.908L58.5604 129.008L110.522 159.008Z" fill="#8BC5E4"/>
<path d="M84.7144 173.908V159.178L32.7529 129.178V143.908L84.7144 173.908Z" fill="#8BC5E4"/>
<path d="M84.7144 159.178L110.522 144.278L58.5604 114.278L32.7529 129.178L84.7144 159.178Z" fill="#8BC5E4"/>
<path d="M110.522 144.278V144.538L58.5605 114.538V114.278L110.522 144.278Z" fill="#8BC5E4"/>
<path d="M110.522 144.538L135.109 119.263L83.147 89.2629L58.5605 114.538L110.522 144.538Z" fill="#8BC5E4"/>
<path d="M135.108 119.263L109.708 122.488L57.7461 92.4879L83.1467 89.2629L135.108 119.263Z" fill="#8BC5E4"/>
<path d="M109.708 122.488L84.7144 136.918L32.7529 106.918L57.7463 92.4878L109.708 122.488Z" fill="#8BC5E4"/>
<path d="M84.7144 136.918L32.7529 106.918L84.7144 136.918Z" fill="#8BC5E4"/>
<path d="M184.671 188.018L184.673 188.018L132.711 158.018L132.71 158.018L184.671 188.018Z" fill="#8BC5E4"/>
<path d="M183.779 188.313L131.817 158.313L183.779 188.313Z" fill="#8BC5E4"/>
<path d="M92.4556 241.26L92.4567 241.258L40.4952 211.258L40.4941 211.26L92.4556 241.26Z" fill="#8BC5E4"/>
<path d="M93.358 240.518L41.3965 210.518L93.358 240.518Z" fill="#8BC5E4"/>
<path d="M184.673 292.726L184.671 292.728L132.71 262.728L132.711 262.726L184.673 292.726Z" fill="#8BC5E4"/>
<path d="M160.102 261.443L108.141 231.443L160.102 261.443Z" fill="#8BC5E4"/>
<path d="M117.017 286.338L65.0557 256.338L117.017 286.338Z" fill="#8BC5E4"/>
<path d="M117.017 286.338C118.076 290.095 120.09 292.823 122.791 294.361L70.8299 264.361C68.1289 262.823 66.1149 260.095 65.0557 256.338L117.017 286.338Z" fill="#8BC5E4"/>
<path d="M122.79 294.359C125.386 295.839 128.617 296.218 132.246 295.354L80.2841 265.354C76.6551 266.218 73.4241 265.839 70.8281 264.359L122.79 294.359Z" fill="#8BC5E4"/>
<path d="M132.251 295.353C124.153 308.098 116.48 319.218 109.933 327.768L57.9717 297.768C64.5189 289.218 72.1919 278.098 80.2892 265.353L132.251 295.353Z" fill="#8BC5E4"/>
<path d="M109.933 327.768C104.763 334.543 100.268 339.718 97.0465 342.758L45.085 312.758C48.3066 309.718 52.8012 304.543 57.9714 297.768L109.933 327.768Z" fill="#8BC5E4"/>
<path d="M97.0472 342.758C95.4191 344.288 94.1287 345.253 93.3493 345.673L41.3877 315.673C42.1672 315.253 43.4575 314.288 45.0857 312.758L97.0472 342.758Z" fill="#8BC5E4"/>
<path d="M93.3487 345.673C92.5779 346.088 92.4653 345.973 92.4566 345.968L40.4951 315.968C40.5038 315.973 40.6164 316.088 41.3871 315.673L93.3487 345.673Z" fill="#8BC5E4"/>
<path d="M92.457 345.968C92.4484 345.953 92.2925 345.913 92.2838 345.018L40.3223 315.018C40.331 315.913 40.4869 315.953 40.4955 315.968L92.457 345.968Z" fill="#8BC5E4"/>
<path d="M92.2838 345.018C92.2665 344.138 92.4744 342.528 93.0113 340.368L41.0498 310.368C40.5128 312.528 40.305 314.138 40.3223 315.018L92.2838 345.018Z" fill="#8BC5E4"/>
<path d="M93.0113 340.368C94.0765 336.053 96.3888 329.568 99.749 321.728L47.7875 291.728C44.4273 299.568 42.115 306.053 41.0498 310.368L93.0113 340.368Z" fill="#8BC5E4"/>
<path d="M99.7486 321.728C104.001 311.813 109.898 299.668 117.017 286.338L65.0556 256.338C57.9369 269.668 52.0392 281.813 47.7871 291.728L99.7486 321.728Z" fill="#8BC5E4"/>
<path d="M160.102 261.443C160.481 261.716 160.857 261.989 161.229 262.262L109.267 232.262C108.895 231.989 108.519 231.716 108.141 231.443L160.102 261.443Z" fill="#8BC5E4"/>
<path d="M161.227 262.262C167.841 267.127 173.347 272.155 177.373 276.901L125.412 246.901C121.386 242.155 115.88 237.127 109.266 232.262L161.227 262.262Z" fill="#8BC5E4"/>
<path d="M177.379 276.908C180.74 280.868 183.052 284.683 184.117 287.768L132.156 257.768C131.09 254.683 128.778 250.868 125.418 246.908L177.379 276.908Z" fill="#8BC5E4"/>
<path d="M184.117 287.768C184.654 289.308 184.862 290.678 184.853 291.573L132.891 261.573C132.9 260.678 132.692 259.308 132.155 257.768L184.117 287.768Z" fill="#8BC5E4"/>
<path d="M184.853 291.573C184.836 292.457 184.689 292.699 184.672 292.726L132.711 262.726C132.727 262.699 132.875 262.457 132.892 261.573L184.853 291.573Z" fill="#8BC5E4"/>
<path d="M184.671 292.728C184.662 292.743 184.55 292.988 183.779 293.463L131.817 263.463C132.588 262.988 132.701 262.743 132.709 262.728L184.671 292.728Z" fill="#8BC5E4"/>
<path d="M183.78 293.463C183 293.943 181.71 294.468 180.082 294.818L128.12 264.818C129.748 264.468 131.039 263.943 131.818 263.463L183.78 293.463Z" fill="#8BC5E4"/>
<path d="M180.081 294.818C176.86 295.498 172.365 295.513 167.195 294.708L115.233 264.708C120.404 265.513 124.898 265.498 128.12 264.818L180.081 294.818Z" fill="#8BC5E4"/>
<path d="M167.195 294.708C160.999 293.771 153.795 291.697 146.178 288.6L94.2168 258.6C101.834 261.697 109.038 263.771 115.233 264.708L167.195 294.708Z" fill="#8BC5E4"/>
<path d="M146.172 288.597C145.743 288.423 145.314 288.246 144.883 288.065L92.9219 258.065C93.3529 258.246 93.7819 258.423 94.2109 258.597L146.172 288.597Z" fill="#8BC5E4"/>
<path d="M144.878 288.063C152.282 281.268 158.033 271.218 160.102 261.443L108.141 231.443C106.071 241.218 100.321 251.268 92.916 258.063L144.878 288.063Z" fill="#8BC5E4"/>
<path d="M93.358 240.518C94.1288 240.043 95.4192 239.518 97.0473 239.158L45.0858 209.158C43.4576 209.518 42.1673 210.043 41.3965 210.518L93.358 240.518Z" fill="#8BC5E4"/>
<path d="M97.0465 239.158C100.268 238.468 104.763 238.473 109.933 239.268L57.9714 209.268C52.8012 208.473 48.3066 208.468 45.085 209.158L97.0465 239.158Z" fill="#8BC5E4"/>
<path d="M109.933 239.268C116.128 240.214 123.332 242.28 130.949 245.376L78.988 215.376C71.371 212.28 64.167 210.214 57.9717 209.268L109.933 239.268Z" fill="#8BC5E4"/>
<path d="M130.956 245.379C131.385 245.553 131.814 245.73 132.245 245.911L80.2831 215.911C79.8521 215.73 79.4231 215.553 78.9941 215.379L130.956 245.379Z" fill="#8BC5E4"/>
<path d="M132.251 245.913C124.846 252.708 119.096 262.768 117.026 272.533L65.0645 242.533C67.1343 232.768 72.8847 222.708 80.2892 215.913L132.251 245.913Z" fill="#8BC5E4"/>
<path d="M117.026 272.533C116.643 272.259 116.264 271.983 115.889 271.708L63.9277 241.708C64.3027 241.983 64.6817 242.259 65.0642 242.533L117.026 272.533Z" fill="#8BC5E4"/>
<path d="M115.89 271.708C109.281 266.854 103.778 261.828 99.7554 257.075L47.7939 227.075C51.8169 231.828 57.3199 236.854 63.9289 241.708L115.89 271.708Z" fill="#8BC5E4"/>
<path d="M99.749 257.068C96.3888 253.118 94.0765 249.303 93.0113 246.218L41.0498 216.218C42.115 219.303 44.4273 223.118 47.7875 227.068L99.749 257.068Z" fill="#8BC5E4"/>
<path d="M93.0113 246.218C92.4744 244.668 92.2665 243.298 92.2838 242.398L40.3223 212.398C40.305 213.298 40.5128 214.668 41.0498 216.218L93.0113 246.218Z" fill="#8BC5E4"/>
<path d="M92.2838 242.398C92.2923 241.529 92.4396 241.287 92.4559 241.26L40.4944 211.26C40.478 211.287 40.3307 211.529 40.3223 212.398L92.2838 242.398Z" fill="#8BC5E4"/>
<path d="M92.4566 241.258C92.4653 241.243 92.5779 240.998 93.3573 240.518L41.3958 210.518C40.6164 210.998 40.5038 211.243 40.4951 211.258L92.4566 241.258Z" fill="#8BC5E4"/>
<path d="M183.779 188.313C184.55 187.898 184.662 188.003 184.671 188.018L132.709 158.018C132.701 158.003 132.588 157.898 131.817 158.313L183.779 188.313Z" fill="#8BC5E4"/>
<path d="M184.672 188.019C184.689 188.027 184.836 188.098 184.853 188.953L132.892 158.953C132.875 158.098 132.727 158.027 132.711 158.019L184.672 188.019Z" fill="#8BC5E4"/>
<path d="M184.853 188.953C184.862 189.838 184.654 191.448 184.117 193.618L132.155 163.618C132.692 161.448 132.9 159.838 132.891 158.953L184.853 188.953Z" fill="#8BC5E4"/>
<path d="M184.117 193.618C183.052 197.933 180.74 204.418 177.379 212.248L125.418 182.248C128.778 174.418 131.09 167.933 132.156 163.618L184.117 193.618Z" fill="#8BC5E4"/>
<path d="M177.38 212.248C173.127 222.173 167.23 234.308 160.111 247.638L108.149 217.638C115.268 204.308 121.166 192.173 125.418 182.248L177.38 212.248Z" fill="#8BC5E4"/>
<path d="M160.111 247.638C159.055 243.878 157.041 241.151 154.34 239.612L102.379 209.612C105.08 211.151 107.094 213.878 108.149 217.638L160.111 247.638Z" fill="#8BC5E4"/>
<path d="M154.341 239.613C151.744 238.134 148.511 237.753 144.882 238.612L92.9209 208.612C96.5499 207.753 99.7829 208.134 102.38 209.613L154.341 239.613Z" fill="#8BC5E4"/>
<path d="M144.878 238.613C152.975 225.878 160.648 214.768 167.195 206.198L115.234 176.198C108.686 184.768 101.013 195.878 92.916 208.613L144.878 238.613Z" fill="#8BC5E4"/>
<path d="M167.195 206.198C172.365 199.443 176.86 194.248 180.081 191.218L128.12 161.218C124.898 164.248 120.404 169.443 115.233 176.198L167.195 206.198Z" fill="#8BC5E4"/>
<path d="M180.082 191.218C181.701 189.703 183 188.733 183.78 188.313L131.818 158.313C131.039 158.733 129.74 159.703 128.12 161.218L180.082 191.218Z" fill="#8BC5E4"/>
<path d="M135.403 237.553C134.975 237.378 134.547 237.206 134.12 237.037L82.1582 207.037C82.5852 207.206 83.0132 207.378 83.4417 207.553L135.403 237.553Z" fill="#8BC5E4"/>
<path d="M134.12 237.037C126.677 234.091 119.601 232.08 113.337 231.119L61.376 201.119C67.64 202.08 74.716 204.091 82.159 207.037L134.12 237.037Z" fill="#8BC5E4"/>
<path d="M113.328 231.118C107.881 230.283 103.074 230.198 98.9517 231.078L46.9902 201.078C51.1125 200.198 55.9189 200.283 61.3662 201.118L113.328 231.118Z" fill="#8BC5E4"/>
<path d="M98.9522 231.078C96.8911 231.518 94.9945 232.183 93.1412 233.323L41.1797 203.323C43.033 202.183 44.9296 201.518 46.9907 201.078L98.9522 231.078Z" fill="#8BC5E4"/>
<path d="M93.1408 233.323C91.2875 234.463 89.339 236.268 87.9273 238.733L35.9658 208.733C37.3774 206.268 39.326 204.463 41.1793 203.323L93.1408 233.323Z" fill="#8BC5E4"/>
<path d="M87.9279 238.733C86.525 241.193 85.9707 243.773 85.9361 245.923L33.9746 215.923C34.0092 213.773 34.5634 211.193 35.9664 208.733L87.9279 238.733Z" fill="#8BC5E4"/>
<path d="M85.9353 245.923C85.9006 248.083 86.299 250.033 86.9745 252.013L35.013 222.013C34.3375 220.033 33.9391 218.083 33.9738 215.923L85.9353 245.923Z" fill="#8BC5E4"/>
<path d="M86.9752 252.013C88.3435 255.953 90.907 259.973 94.4403 264.153L42.4788 234.153C38.9454 229.973 36.382 225.953 35.0137 222.013L86.9752 252.013Z" fill="#8BC5E4"/>
<path d="M94.44 264.153C98.4395 268.866 103.711 273.73 109.967 278.429L58.005 248.429C51.749 243.73 46.478 238.866 42.4785 234.153L94.44 264.153Z" fill="#8BC5E4"/>
<path d="M109.961 278.426C110.316 278.692 110.675 278.958 111.036 279.224L59.075 249.224C58.714 248.958 58.355 248.692 58 248.426L109.961 278.426Z" fill="#8BC5E4"/>
<path d="M110.522 287.508C104.018 299.853 98.5537 311.168 94.44 320.783L42.4785 290.783C46.5921 281.168 52.0568 269.853 58.5606 257.508L110.522 287.508Z" fill="#8BC5E4"/>
<path d="M94.4405 320.783C90.9072 329.043 88.3437 336.023 86.9841 341.538L35.0225 311.538C36.3822 306.023 38.9456 299.043 42.479 290.783L94.4405 320.783Z" fill="#8BC5E4"/>
<path d="M86.9832 341.538C86.299 344.293 85.9006 346.703 85.9353 348.823L33.9738 318.823C33.9391 316.703 34.3375 314.293 35.0216 311.538L86.9832 341.538Z" fill="#8BC5E4"/>
<path d="M85.9361 348.823C85.9599 350.807 86.4529 352.616 87.6599 353.532L35.6984 323.532C34.4914 322.616 33.9984 320.807 33.9746 318.823L85.9361 348.823Z" fill="#8BC5E4"/>
<path d="M87.6529 353.526C87.7379 353.591 87.8269 353.652 87.9199 353.708L35.9584 323.708C35.8654 323.652 35.7764 323.591 35.6914 323.526L87.6529 353.526Z" fill="#8BC5E4"/>
<path d="M87.9273 353.713C88.0203 353.768 88.1163 353.818 88.2143 353.862L36.2528 323.862C36.1548 323.818 36.0588 323.768 35.9658 323.713L87.9273 353.713Z" fill="#8BC5E4"/>
<path d="M88.2135 353.861C89.5885 354.48 91.4055 354.029 93.1265 353.111L41.165 323.111C39.444 324.029 37.627 324.48 36.252 323.861L88.2135 353.861Z" fill="#8BC5E4"/>
<path d="M93.1324 353.108C94.9944 352.103 96.891 350.578 98.9435 348.643L46.982 318.643C44.9295 320.578 43.0329 322.103 41.1709 323.108L93.1324 353.108Z" fill="#8BC5E4"/>
<path d="M98.9429 348.643C103.074 344.758 107.88 339.123 113.328 331.988L61.366 301.988C55.9187 309.123 51.1123 314.758 46.9814 318.643L98.9429 348.643Z" fill="#8BC5E4"/>
<path d="M113.328 331.988C119.953 323.323 127.487 312.453 135.403 300.073L83.4412 270.073C75.5257 282.453 67.9913 293.323 61.3662 301.988L113.328 331.988Z" fill="#8BC5E4"/>
<path d="M142.323 296.658C142.74 296.826 143.157 296.992 143.571 297.154L91.6092 267.154C91.1952 266.992 90.7782 266.826 90.3613 266.658L142.323 296.658Z" fill="#8BC5E4"/>
<path d="M143.571 297.154C150.813 299.988 157.69 301.922 163.801 302.858L111.839 272.858C105.728 271.922 98.8514 269.988 91.6094 267.154L143.571 297.154Z" fill="#8BC5E4"/>
<path d="M163.8 302.858C169.248 303.693 174.054 303.778 178.185 302.903L126.224 272.903C122.093 273.778 117.286 273.693 111.839 272.858L163.8 302.858Z" fill="#8BC5E4"/>
<path d="M178.185 302.903C180.238 302.458 182.134 301.803 183.996 300.658L132.035 270.658C130.173 271.803 128.276 272.458 126.224 272.903L178.185 302.903Z" fill="#8BC5E4"/>
<path d="M183.996 300.658C185.84 299.513 187.798 297.703 189.2 295.243L137.239 265.243C135.836 267.703 133.879 269.513 132.034 270.658L183.996 300.658Z" fill="#8BC5E4"/>
<path d="M189.201 295.243C190.604 292.793 191.158 290.213 191.193 288.053L139.231 258.053C139.196 260.213 138.642 262.793 137.239 265.243L189.201 295.243Z" fill="#8BC5E4"/>
<path d="M191.192 288.053C191.227 285.893 190.828 283.943 190.153 281.973L138.191 251.973C138.867 253.943 139.265 255.893 139.231 258.053L191.192 288.053Z" fill="#8BC5E4"/>
<path d="M190.153 281.973C188.785 278.033 186.221 274.013 182.688 269.833L130.727 239.833C134.26 244.013 136.823 248.033 138.192 251.973L190.153 281.973Z" fill="#8BC5E4"/>
<path d="M182.688 269.833C178.806 265.236 173.7 260.506 167.655 255.916L115.693 225.916C121.738 230.506 126.844 235.236 130.727 239.833L182.688 269.833Z" fill="#8BC5E4"/>
<path d="M167.65 255.912C167.306 255.652 166.96 255.392 166.611 255.132L114.649 225.132C114.998 225.392 115.344 225.652 115.688 225.912L167.65 255.912Z" fill="#8BC5E4"/>
<path d="M166.086 247.448C172.815 234.733 178.471 223.058 182.688 213.203L130.727 183.203C126.509 193.058 120.854 204.733 114.125 217.448L166.086 247.448Z" fill="#8BC5E4"/>
<path d="M182.688 213.203C186.221 204.943 188.785 197.963 190.145 192.448L138.183 162.448C136.823 167.963 134.26 174.943 130.727 183.203L182.688 213.203Z" fill="#8BC5E4"/>
<path d="M190.144 192.448C190.828 189.683 191.227 187.273 191.192 185.153L139.231 155.153C139.265 157.273 138.867 159.683 138.183 162.448L190.144 192.448Z" fill="#8BC5E4"/>
<path d="M191.192 185.153C191.16 183.183 190.674 181.361 189.468 180.445L137.507 150.445C138.713 151.361 139.199 153.183 139.231 155.153L191.192 185.153Z" fill="#8BC5E4"/>
<path d="M189.476 180.45C189.391 180.385 189.302 180.324 189.209 180.268L137.247 150.268C137.34 150.324 137.429 150.385 137.514 150.45L189.476 180.45Z" fill="#8BC5E4"/>
<path d="M189.201 180.263C189.108 180.207 189.012 180.157 188.914 180.113L136.952 150.113C137.05 150.157 137.146 150.207 137.239 150.263L189.201 180.263Z" fill="#8BC5E4"/>
<path d="M188.915 180.113C187.54 179.486 185.722 179.938 183.993 180.87L132.031 150.87C133.76 149.938 135.578 149.486 136.953 150.113L188.915 180.113Z" fill="#8BC5E4"/>
<path d="M183.988 180.873C182.134 181.873 180.238 183.408 178.185 185.333L126.224 155.333C128.276 153.408 130.173 151.873 132.026 150.873L183.988 180.873Z" fill="#8BC5E4"/>
<path d="M178.185 185.333C174.054 189.218 169.248 194.853 163.8 201.978L111.839 171.978C117.286 164.853 122.093 159.218 126.224 155.333L178.185 185.333Z" fill="#8BC5E4"/>
<path d="M163.8 201.978C157.34 210.438 150.022 220.983 142.323 232.978L90.3613 202.978C98.0602 190.983 105.378 180.438 111.839 171.978L163.8 201.978Z" fill="#8BC5E4"/>
<path d="M214.541 128.333C216.178 127.388 217.635 127.284 218.683 127.888L166.721 97.8879C165.673 97.2839 164.216 97.3879 162.579 98.3329L214.541 128.333Z" fill="#8BC5E4"/>
<path d="M218.68 127.887C219.728 128.49 220.367 129.8 220.368 131.682L168.407 101.682C168.406 99.8 167.767 98.49 166.719 97.887L218.68 127.887Z" fill="#8BC5E4"/>
<path d="M220.369 307.838C220.369 311.598 217.814 316.023 214.541 317.913L162.579 287.913C165.853 286.023 168.408 281.598 168.408 277.838L220.369 307.838Z" fill="#8BC5E4"/>
<path d="M62.588 405.643C60.9509 406.588 59.4939 406.692 58.4459 406.089L6.48438 376.089C7.53237 376.692 8.98937 376.588 10.6265 375.643L62.588 405.643Z" fill="#8BC5E4"/>
<path d="M58.4474 406.09C57.3994 405.488 56.7603 404.181 56.7593 402.304L4.79785 372.304C4.79885 374.181 5.43785 375.488 6.48585 376.09L58.4474 406.09Z" fill="#8BC5E4"/>
<path d="M56.7593 226.148C56.7593 222.378 59.3142 217.953 62.5877 216.063L10.6262 186.063C7.35255 187.953 4.79785 192.378 4.79785 196.148L56.7593 226.148Z" fill="#8BC5E4"/>
<path d="M62.5876 210.533C56.742 213.908 51.9615 222.178 51.9615 228.918L0 198.918C0 192.178 4.7804 183.908 10.6261 180.533L62.5876 210.533Z" fill="#8BC5E4"/>
<path d="M51.9615 405.068C51.9615 408.433 53.1565 410.803 55.0825 411.91L3.121 381.91C1.195 380.803 0 378.433 0 375.068L51.9615 405.068Z" fill="#8BC5E4"/>
<path d="M55.0914 411.915C57.0144 413.015 59.6644 412.858 62.5794 411.178L10.6179 381.178C7.70288 382.858 5.05288 383.015 3.12988 381.915L55.0914 411.915Z" fill="#8BC5E4"/>
<path d="M214.541 323.443C220.386 320.068 225.167 311.798 225.167 305.068L173.205 275.068C173.205 281.798 168.425 290.068 162.579 293.443L214.541 323.443Z" fill="#8BC5E4"/>
<path d="M225.167 128.918C225.166 125.548 223.971 123.176 222.045 122.067L170.084 92.0669C172.01 93.1759 173.205 95.5479 173.205 98.9179L225.167 128.918Z" fill="#8BC5E4"/>
<path d="M222.048 122.069C220.124 120.96 217.469 121.114 214.549 122.798L162.588 92.7978C165.508 91.1138 168.163 90.9598 170.087 92.0688L222.048 122.069Z" fill="#8BC5E4"/>
<path d="M214.541 36.9728C216.178 36.0278 217.635 35.9238 218.683 36.5278L166.721 6.52783C165.673 5.92383 164.216 6.02783 162.579 6.97283L214.541 36.9728Z" fill="#8BC5E4"/>
<path d="M218.68 36.5269C219.728 37.1299 220.367 38.4389 220.368 40.3219L168.407 10.3219C168.406 8.43886 167.767 7.12986 166.719 6.52686L218.68 36.5269Z" fill="#8BC5E4"/>
<path d="M220.369 99.0879C220.369 102.858 217.814 107.283 214.541 109.173L162.579 79.1729C165.853 77.2829 168.408 72.8579 168.408 69.0879L220.369 99.0879Z" fill="#8BC5E4"/>
<path d="M62.588 196.903C60.9509 197.848 59.4939 197.952 58.4459 197.348L6.48438 167.348C7.53237 167.952 8.98937 167.848 10.6265 166.903L62.588 196.903Z" fill="#8BC5E4"/>
<path d="M58.4474 197.349C57.3994 196.746 56.7603 195.437 56.7593 193.554L4.79785 163.554C4.79885 165.437 5.43785 166.746 6.48585 167.349L58.4474 197.349Z" fill="#8BC5E4"/>
<path d="M56.7593 134.788C56.7593 131.018 59.3142 126.593 62.5877 124.703L10.6262 94.7029C7.35255 96.5929 4.79785 101.018 4.79785 104.788L56.7593 134.788Z" fill="#8BC5E4"/>
<path d="M62.5876 119.173C56.742 122.548 51.9615 130.818 51.9615 137.558L0 107.558C0 100.818 4.7804 92.5479 10.6261 89.1729L62.5876 119.173Z" fill="#8BC5E4"/>
<path d="M51.9615 196.318C51.9615 199.688 53.1565 202.061 55.0825 203.169L3.121 173.169C1.195 172.061 0 169.688 0 166.318L51.9615 196.318Z" fill="#8BC5E4"/>
<path d="M55.0797 203.167C57.0047 204.276 59.6587 204.122 62.5797 202.438L10.6182 172.438C7.69716 174.122 5.04316 174.276 3.11816 173.167L55.0797 203.167Z" fill="#8BC5E4"/>
<path d="M214.541 114.703C220.386 111.328 225.167 103.058 225.167 96.3179L173.205 66.3179C173.205 73.0579 168.425 81.3279 162.579 84.7029L214.541 114.703Z" fill="#8BC5E4"/>
<path d="M225.167 37.5578C225.166 34.1878 223.971 31.8158 222.045 30.7068L170.084 0.706787C172.01 1.81579 173.205 4.18779 173.205 7.55779L225.167 37.5578Z" fill="#8BC5E4"/>
<path d="M222.048 30.7089C220.124 29.5999 217.469 29.7549 214.549 31.4379L162.588 1.43787C165.508 -0.245128 168.163 -0.400128 170.087 0.708872L222.048 30.7089Z" fill="#8BC5E4"/>
<path d="M214.541 128.333C216.178 127.388 217.635 127.284 218.683 127.888L166.721 97.8879C165.673 97.2839 164.216 97.3879 162.579 98.3329L214.541 128.333Z" fill="#8BC5E4"/>
<path d="M218.68 127.887C219.728 128.49 220.367 129.8 220.368 131.682L168.407 101.682C168.406 99.8 167.767 98.49 166.719 97.887L218.68 127.887Z" fill="#8BC5E4"/>
<path d="M220.369 307.838C220.369 311.598 217.814 316.023 214.541 317.913L162.579 287.913C165.853 286.023 168.408 281.598 168.408 277.838L220.369 307.838Z" fill="#8BC5E4"/>
<path d="M62.588 405.643C60.9509 406.588 59.4939 406.692 58.4459 406.089L6.48438 376.089C7.53237 376.692 8.98937 376.588 10.6265 375.643L62.588 405.643Z" fill="#8BC5E4"/>
<path d="M58.4474 406.09C57.3994 405.488 56.7603 404.181 56.7593 402.304L4.79785 372.304C4.79885 374.181 5.43785 375.488 6.48585 376.09L58.4474 406.09Z" fill="#8BC5E4"/>
<path d="M56.7593 226.148C56.7593 222.378 59.3142 217.953 62.5877 216.063L10.6262 186.063C7.35255 187.953 4.79785 192.378 4.79785 196.148L56.7593 226.148Z" fill="#8BC5E4"/>
<path d="M142.323 232.978C150.022 220.983 157.34 210.438 163.8 201.978L111.839 171.978C105.378 180.438 98.0602 190.983 90.3613 202.978L142.323 232.978Z" fill="#8BC5E4"/>
<path d="M163.8 201.978C169.248 194.853 174.054 189.218 178.185 185.333L126.224 155.333C122.093 159.218 117.286 164.853 111.839 171.978L163.8 201.978Z" fill="#8BC5E4"/>
<path d="M178.185 185.333C180.238 183.408 182.134 181.873 183.988 180.873L132.026 150.873C130.173 151.873 128.276 153.408 126.224 155.333L178.185 185.333Z" fill="#8BC5E4"/>
<path d="M183.987 180.873C185.717 179.939 187.538 179.485 188.913 180.113L136.952 150.113C135.577 149.485 133.756 149.939 132.025 150.873L183.987 180.873Z" fill="#8BC5E4"/>
<path d="M188.906 180.109C189.004 180.153 189.1 180.203 189.193 180.258L137.231 150.258C137.138 150.203 137.042 150.153 136.944 150.109L188.906 180.109Z" fill="#8BC5E4"/>
<path d="M189.201 180.263C189.294 180.319 189.384 180.379 189.469 180.445L137.507 150.445C137.422 150.379 137.332 150.319 137.239 150.263L189.201 180.263Z" fill="#8BC5E4"/>
<path d="M189.468 180.444C190.673 181.36 191.158 183.179 191.192 185.147L139.231 155.147C139.197 153.179 138.712 151.36 137.507 150.444L189.468 180.444Z" fill="#8BC5E4"/>
<path d="M191.192 185.153C191.227 187.273 190.828 189.683 190.144 192.448L138.183 162.448C138.867 159.683 139.265 157.273 139.231 155.153L191.192 185.153Z" fill="#8BC5E4"/>
<path d="M190.145 192.448C188.785 197.963 186.221 204.943 182.688 213.203L130.727 183.203C134.26 174.943 136.823 167.963 138.183 162.448L190.145 192.448Z" fill="#8BC5E4"/>
<path d="M182.688 213.203C178.471 223.058 172.815 234.733 166.086 247.448L114.125 217.448C120.854 204.733 126.509 193.058 130.727 183.203L182.688 213.203Z" fill="#8BC5E4"/>
<path d="M166.606 255.128C166.959 255.39 167.308 255.653 167.655 255.916L115.693 225.916C115.346 225.653 114.997 225.39 114.645 225.128L166.606 255.128Z" fill="#8BC5E4"/>
<path d="M167.654 255.915C173.696 260.503 178.8 265.231 182.683 269.826L130.721 239.826C126.838 235.231 121.734 230.503 115.692 225.915L167.654 255.915Z" fill="#8BC5E4"/>
<path d="M182.688 269.833C186.221 274.013 188.785 278.033 190.153 281.973L138.192 251.973C136.823 248.033 134.26 244.013 130.727 239.833L182.688 269.833Z" fill="#8BC5E4"/>
<path d="M190.153 281.973C190.828 283.943 191.227 285.893 191.192 288.053L139.231 258.053C139.265 255.893 138.867 253.943 138.191 251.973L190.153 281.973Z" fill="#8BC5E4"/>
<path d="M191.193 288.053C191.158 290.213 190.604 292.793 189.201 295.243L137.239 265.243C138.642 262.793 139.196 260.213 139.231 258.053L191.193 288.053Z" fill="#8BC5E4"/>
<path d="M189.2 295.243C187.798 297.703 185.84 299.513 183.996 300.658L132.034 270.658C133.879 269.513 135.836 267.703 137.239 265.243L189.2 295.243Z" fill="#8BC5E4"/>
<path d="M183.996 300.658C182.134 301.803 180.238 302.458 178.185 302.903L126.224 272.903C128.276 272.458 130.173 271.803 132.035 270.658L183.996 300.658Z" fill="#8BC5E4"/>
<path d="M178.185 302.903C174.054 303.778 169.248 303.693 163.8 302.858L111.839 272.858C117.286 273.693 122.093 273.778 126.224 272.903L178.185 302.903Z" fill="#8BC5E4"/>
<path d="M163.8 302.858C157.69 301.922 150.813 299.988 143.571 297.154L91.6094 267.154C98.8514 269.988 105.728 271.922 111.839 272.858L163.8 302.858Z" fill="#8BC5E4"/>
<path d="M143.566 297.151C143.155 296.991 142.742 296.827 142.329 296.66L90.3672 266.66C90.7802 266.827 91.1932 266.991 91.6042 267.151L143.566 297.151Z" fill="#8BC5E4"/>
<path d="M135.403 300.073C127.487 312.453 119.953 323.323 113.328 331.988L61.3662 301.988C67.9913 293.323 75.5257 282.453 83.4412 270.073L135.403 300.073Z" fill="#8BC5E4"/>
<path d="M113.328 331.988C107.88 339.123 103.074 344.758 98.9429 348.643L46.9814 318.643C51.1123 314.758 55.9187 309.123 61.366 301.988L113.328 331.988Z" fill="#8BC5E4"/>
<path d="M98.9435 348.643C96.891 350.578 94.9944 352.103 93.1324 353.108L41.1709 323.108C43.0329 322.103 44.9295 320.578 46.982 318.643L98.9435 348.643Z" fill="#8BC5E4"/>
<path d="M93.1322 353.108C91.4104 354.028 89.5894 354.481 88.2144 353.862L36.2529 323.862C37.6279 324.481 39.4489 324.028 41.1707 323.108L93.1322 353.108Z" fill="#8BC5E4"/>
<path d="M88.2221 353.865C88.1241 353.822 88.0281 353.773 87.9351 353.718L35.9736 323.718C36.0666 323.773 36.1626 323.822 36.2606 323.865L88.2221 353.865Z" fill="#8BC5E4"/>
<path d="M87.9277 353.713C87.8347 353.657 87.7447 353.597 87.6597 353.532L35.6982 323.532C35.7832 323.597 35.8732 323.657 35.9662 323.713L87.9277 353.713Z" fill="#8BC5E4"/>
<path d="M87.6591 353.532C86.4531 352.618 85.9601 350.811 85.9351 348.829L33.9736 318.829C33.9986 320.811 34.4916 322.618 35.6976 323.532L87.6591 353.532Z" fill="#8BC5E4"/>
<path d="M85.9353 348.823C85.9006 346.703 86.299 344.293 86.9832 341.538L35.0216 311.538C34.3375 314.293 33.9391 316.703 33.9738 318.823L85.9353 348.823Z" fill="#8BC5E4"/>
<path d="M86.9841 341.538C88.3437 336.023 90.9072 329.043 94.4405 320.783L42.479 290.783C38.9456 299.043 36.3822 306.023 35.0225 311.538L86.9841 341.538Z" fill="#8BC5E4"/>
<path d="M94.44 320.783C98.5537 311.168 104.018 299.853 110.522 287.508L58.5606 257.508C52.0568 269.853 46.5921 281.168 42.4785 290.783L94.44 320.783Z" fill="#8BC5E4"/>
<path d="M111.042 279.228C110.68 278.962 110.322 278.696 109.966 278.429L58.0049 248.429C58.3609 248.696 58.7189 248.962 59.0801 249.228L111.042 279.228Z" fill="#8BC5E4"/>
<path d="M109.958 278.423C103.709 273.728 98.4428 268.868 94.4468 264.16L42.4854 234.16C46.4814 238.868 51.7474 243.728 57.9964 248.423L109.958 278.423Z" fill="#8BC5E4"/>
<path d="M94.4403 264.153C90.907 259.973 88.3435 255.953 86.9752 252.013L35.0137 222.013C36.382 225.953 38.9454 229.973 42.4788 234.153L94.4403 264.153Z" fill="#8BC5E4"/>
<path d="M86.9745 252.013C86.299 250.033 85.9006 248.083 85.9353 245.923L33.9738 215.923C33.9391 218.083 34.3375 220.033 35.013 222.013L86.9745 252.013Z" fill="#8BC5E4"/>
<path d="M85.9361 245.923C85.9707 243.773 86.525 241.193 87.9279 238.733L35.9664 208.733C34.5634 211.193 34.0092 213.773 33.9746 215.923L85.9361 245.923Z" fill="#8BC5E4"/>
<path d="M87.9273 238.733C89.339 236.268 91.2875 234.463 93.1408 233.323L41.1793 203.323C39.326 204.463 37.3774 206.268 35.9658 208.733L87.9273 238.733Z" fill="#8BC5E4"/>
<path d="M93.1412 233.323C94.9945 232.183 96.8911 231.518 98.9522 231.078L46.9907 201.078C44.9296 201.518 43.033 202.183 41.1797 203.323L93.1412 233.323Z" fill="#8BC5E4"/>
<path d="M98.9517 231.078C103.074 230.198 107.881 230.283 113.328 231.118L61.3662 201.118C55.9189 200.283 51.1125 200.198 46.9902 201.078L98.9517 231.078Z" fill="#8BC5E4"/>
<path d="M113.328 231.118C119.594 232.078 126.673 234.089 134.119 237.037L82.1577 207.037C74.7117 204.089 67.6327 202.078 61.3662 201.118L113.328 231.118Z" fill="#8BC5E4"/>
<path d="M134.126 237.04C134.549 237.207 134.973 237.378 135.398 237.551L83.4361 207.551C83.0111 207.378 82.5871 207.207 82.1641 207.04L134.126 237.04Z" fill="#8BC5E4"/>
<path d="M214.541 36.9728C216.178 36.0278 217.635 35.9238 218.683 36.5278L166.721 6.52783C165.673 5.92383 164.216 6.02783 162.579 6.97283L214.541 36.9728Z" fill="#8BC5E4"/>
<path d="M218.68 36.5269C219.728 37.1299 220.367 38.4389 220.368 40.3219L168.407 10.3219C168.406 8.43886 167.767 7.12986 166.719 6.52686L218.68 36.5269Z" fill="#8BC5E4"/>
<path d="M220.369 99.0879C220.369 102.858 217.814 107.283 214.541 109.173L162.579 79.1729C165.853 77.2829 168.408 72.8579 168.408 69.0879L220.369 99.0879Z" fill="#8BC5E4"/>
<path d="M62.588 196.903C60.9509 197.848 59.4939 197.952 58.4459 197.348L6.48438 167.348C7.53237 167.952 8.98937 167.848 10.6265 166.903L62.588 196.903Z" fill="#8BC5E4"/>
<path d="M58.4474 197.349C57.3994 196.746 56.7603 195.437 56.7593 193.554L4.79785 163.554C4.79885 165.437 5.43785 166.746 6.48585 167.349L58.4474 197.349Z" fill="#8BC5E4"/>
<path d="M56.7593 134.788C56.7593 131.018 59.3142 126.593 62.5877 124.703L10.6262 94.7029C7.35255 96.5929 4.79785 101.018 4.79785 104.788L56.7593 134.788Z" fill="#8BC5E4"/>
<path d="M183.779 188.313C184.55 187.898 184.662 188.003 184.671 188.018L132.709 158.018C132.701 158.003 132.588 157.898 131.817 158.313L183.779 188.313Z" fill="#8BC5E4"/>
<path d="M184.672 188.019C184.689 188.027 184.836 188.098 184.853 188.953L132.892 158.953C132.875 158.098 132.727 158.027 132.711 158.019L184.672 188.019Z" fill="#8BC5E4"/>
<path d="M184.853 188.953C184.862 189.838 184.654 191.448 184.117 193.618L132.155 163.618C132.692 161.448 132.9 159.838 132.891 158.953L184.853 188.953Z" fill="#8BC5E4"/>
<path d="M184.117 193.618C183.052 197.933 180.74 204.418 177.379 212.248L125.418 182.248C128.778 174.418 131.09 167.933 132.156 163.618L184.117 193.618Z" fill="#8BC5E4"/>
<path d="M177.38 212.248C173.127 222.173 167.23 234.308 160.111 247.638L108.149 217.638C115.268 204.308 121.166 192.173 125.418 182.248L177.38 212.248Z" fill="#8BC5E4"/>
<path d="M160.111 247.638C159.055 243.878 157.041 241.151 154.34 239.612L102.379 209.612C105.08 211.151 107.094 213.878 108.149 217.638L160.111 247.638Z" fill="#8BC5E4"/>
<path d="M154.341 239.613C151.744 238.134 148.511 237.753 144.882 238.612L92.9209 208.612C96.5499 207.753 99.7829 208.134 102.38 209.613L154.341 239.613Z" fill="#8BC5E4"/>
<path d="M144.878 238.613C152.975 225.878 160.648 214.768 167.195 206.198L115.234 176.198C108.686 184.768 101.013 195.878 92.916 208.613L144.878 238.613Z" fill="#8BC5E4"/>
<path d="M167.195 206.198C172.365 199.443 176.86 194.248 180.081 191.218L128.12 161.218C124.898 164.248 120.404 169.443 115.233 176.198L167.195 206.198Z" fill="#8BC5E4"/>
<path d="M180.082 191.218C181.701 189.703 183 188.733 183.78 188.313L131.818 158.313C131.039 158.733 129.74 159.703 128.12 161.218L180.082 191.218Z" fill="#8BC5E4"/>
<path d="M93.358 240.518C94.1288 240.043 95.4192 239.518 97.0473 239.158L45.0858 209.158C43.4576 209.518 42.1673 210.043 41.3965 210.518L93.358 240.518Z" fill="#8BC5E4"/>
<path d="M97.0465 239.158C100.268 238.468 104.763 238.473 109.933 239.268L57.9714 209.268C52.8012 208.473 48.3066 208.468 45.085 209.158L97.0465 239.158Z" fill="#8BC5E4"/>
<path d="M109.933 239.268C116.128 240.214 123.332 242.28 130.949 245.376L78.988 215.376C71.371 212.28 64.167 210.214 57.9717 209.268L109.933 239.268Z" fill="#8BC5E4"/>
<path d="M130.956 245.379C131.385 245.553 131.814 245.73 132.245 245.911L80.2831 215.911C79.8521 215.73 79.4231 215.553 78.9941 215.379L130.956 245.379Z" fill="#8BC5E4"/>
<path d="M132.251 245.913C124.846 252.708 119.096 262.768 117.026 272.533L65.0645 242.533C67.1343 232.768 72.8847 222.708 80.2892 215.913L132.251 245.913Z" fill="#8BC5E4"/>
<path d="M117.026 272.533C116.643 272.259 116.264 271.983 115.889 271.708L63.9277 241.708C64.3027 241.983 64.6817 242.259 65.0642 242.533L117.026 272.533Z" fill="#8BC5E4"/>
<path d="M115.89 271.708C109.281 266.854 103.778 261.828 99.7554 257.075L47.7939 227.075C51.8169 231.828 57.3199 236.854 63.9289 241.708L115.89 271.708Z" fill="#8BC5E4"/>
<path d="M99.749 257.068C96.3888 253.118 94.0765 249.303 93.0113 246.218L41.0498 216.218C42.115 219.303 44.4273 223.118 47.7875 227.068L99.749 257.068Z" fill="#8BC5E4"/>
<path d="M93.0113 246.218C92.4744 244.668 92.2665 243.298 92.2838 242.398L40.3223 212.398C40.305 213.298 40.5128 214.668 41.0498 216.218L93.0113 246.218Z" fill="#8BC5E4"/>
<path d="M92.2838 242.398C92.2923 241.529 92.4396 241.287 92.4559 241.26L40.4944 211.26C40.478 211.287 40.3307 211.529 40.3223 212.398L92.2838 242.398Z" fill="#8BC5E4"/>
<path d="M92.4566 241.258C92.4653 241.243 92.5779 240.998 93.3573 240.518L41.3958 210.518C40.6164 210.998 40.5038 211.243 40.4951 211.258L92.4566 241.258Z" fill="#8BC5E4"/>
<path d="M160.102 261.443C160.481 261.716 160.857 261.989 161.229 262.262L109.267 232.262C108.895 231.989 108.519 231.716 108.141 231.443L160.102 261.443Z" fill="#8BC5E4"/>
<path d="M161.227 262.262C167.841 267.127 173.347 272.155 177.373 276.901L125.412 246.901C121.386 242.155 115.88 237.127 109.266 232.262L161.227 262.262Z" fill="#8BC5E4"/>
<path d="M177.379 276.908C180.74 280.868 183.052 284.683 184.117 287.768L132.156 257.768C131.09 254.683 128.778 250.868 125.418 246.908L177.379 276.908Z" fill="#8BC5E4"/>
<path d="M184.117 287.768C184.654 289.308 184.862 290.678 184.853 291.573L132.891 261.573C132.9 260.678 132.692 259.308 132.155 257.768L184.117 287.768Z" fill="#8BC5E4"/>
<path d="M184.853 291.573C184.836 292.457 184.689 292.699 184.672 292.726L132.711 262.726C132.727 262.699 132.875 262.457 132.892 261.573L184.853 291.573Z" fill="#8BC5E4"/>
<path d="M184.671 292.728C184.662 292.743 184.55 292.988 183.779 293.463L131.817 263.463C132.588 262.988 132.701 262.743 132.709 262.728L184.671 292.728Z" fill="#8BC5E4"/>
<path d="M183.78 293.463C183 293.943 181.71 294.468 180.082 294.818L128.12 264.818C129.748 264.468 131.039 263.943 131.818 263.463L183.78 293.463Z" fill="#8BC5E4"/>
<path d="M180.081 294.818C176.86 295.498 172.365 295.513 167.195 294.708L115.233 264.708C120.404 265.513 124.898 265.498 128.12 264.818L180.081 294.818Z" fill="#8BC5E4"/>
<path d="M167.195 294.708C160.999 293.771 153.795 291.697 146.178 288.6L94.2168 258.6C101.834 261.697 109.038 263.771 115.233 264.708L167.195 294.708Z" fill="#8BC5E4"/>
<path d="M146.172 288.597C145.743 288.423 145.314 288.246 144.883 288.065L92.9219 258.065C93.3529 258.246 93.7819 258.423 94.2109 258.597L146.172 288.597Z" fill="#8BC5E4"/>
<path d="M144.878 288.063C152.282 281.268 158.033 271.218 160.102 261.443L108.141 231.443C106.071 241.218 100.321 251.268 92.916 258.063L144.878 288.063Z" fill="#8BC5E4"/>
<path d="M117.017 286.338C118.076 290.095 120.09 292.823 122.791 294.361L70.8299 264.361C68.1289 262.823 66.1149 260.095 65.0557 256.338L117.017 286.338Z" fill="#8BC5E4"/>
<path d="M122.79 294.359C125.386 295.839 128.617 296.218 132.246 295.354L80.2841 265.354C76.6551 266.218 73.4241 265.839 70.8281 264.359L122.79 294.359Z" fill="#8BC5E4"/>
<path d="M132.251 295.353C124.153 308.098 116.48 319.218 109.933 327.768L57.9717 297.768C64.5189 289.218 72.1919 278.098 80.2892 265.353L132.251 295.353Z" fill="#8BC5E4"/>
<path d="M109.933 327.768C104.763 334.543 100.268 339.718 97.0465 342.758L45.085 312.758C48.3066 309.718 52.8012 304.543 57.9714 297.768L109.933 327.768Z" fill="#8BC5E4"/>
<path d="M97.0472 342.758C95.4191 344.288 94.1287 345.253 93.3493 345.673L41.3877 315.673C42.1672 315.253 43.4575 314.288 45.0857 312.758L97.0472 342.758Z" fill="#8BC5E4"/>
<path d="M93.3487 345.673C92.5779 346.088 92.4653 345.973 92.4566 345.968L40.4951 315.968C40.5038 315.973 40.6164 316.088 41.3871 315.673L93.3487 345.673Z" fill="#8BC5E4"/>
<path d="M92.457 345.968C92.4484 345.953 92.2925 345.913 92.2838 345.018L40.3223 315.018C40.331 315.913 40.4869 315.953 40.4955 315.968L92.457 345.968Z" fill="#8BC5E4"/>
<path d="M92.2838 345.018C92.2665 344.138 92.4744 342.528 93.0113 340.368L41.0498 310.368C40.5128 312.528 40.305 314.138 40.3223 315.018L92.2838 345.018Z" fill="#8BC5E4"/>
<path d="M93.0113 340.368C94.0765 336.053 96.3888 329.568 99.749 321.728L47.7875 291.728C44.4273 299.568 42.115 306.053 41.0498 310.368L93.0113 340.368Z" fill="#8BC5E4"/>
<path d="M99.7486 321.728C104.001 311.813 109.898 299.668 117.017 286.338L65.0556 256.338C57.9369 269.668 52.0392 281.813 47.7871 291.728L99.7486 321.728Z" fill="#8BC5E4"/>
<path d="M117.017 286.338C119.095 293.708 124.846 297.118 132.25 295.353C124.153 308.098 116.48 319.218 109.933 327.768C104.763 334.543 100.268 339.718 97.0462 342.758C95.4181 344.288 94.1277 345.253 93.3483 345.673C92.5775 346.088 92.4649 345.973 92.4563 345.968C92.4476 345.953 92.2917 345.913 92.2831 345.018C92.2658 344.138 92.4736 342.528 93.0105 340.368C94.0758 336.053 96.388 329.568 99.7482 321.728C104 311.813 109.898 299.668 117.017 286.338ZM160.102 261.443C167.22 266.563 173.127 271.893 177.379 276.908C180.739 280.868 183.051 284.683 184.116 287.768C184.653 289.308 184.861 290.678 184.853 291.573C184.836 292.457 184.688 292.699 184.672 292.726L184.671 292.728C184.662 292.743 184.549 292.988 183.779 293.463C182.999 293.943 181.709 294.468 180.081 294.818C176.859 295.498 172.364 295.513 167.194 294.708C160.647 293.718 152.974 291.458 144.877 288.063C152.281 281.268 158.032 271.218 160.102 261.443ZM93.357 240.518C94.1277 240.043 95.4181 239.518 97.0462 239.158C100.268 238.468 104.763 238.473 109.933 239.268C116.48 240.268 124.153 242.518 132.25 245.913C124.846 252.708 119.095 262.768 117.025 272.533C109.907 267.423 104 262.093 99.7482 257.068C96.388 253.118 94.0758 249.303 93.0105 246.218C92.4736 244.668 92.2658 243.298 92.2831 242.398C92.2915 241.529 92.4388 241.287 92.4552 241.26L92.4563 241.258C92.4649 241.243 92.5775 240.998 93.357 240.518ZM183.779 188.313C184.549 187.898 184.662 188.003 184.671 188.018L184.672 188.018C184.688 188.026 184.836 188.098 184.853 188.953C184.861 189.838 184.653 191.448 184.116 193.618C183.051 197.933 180.739 204.418 177.379 212.248C173.127 222.173 167.229 234.308 160.11 247.638C158.04 240.263 152.281 236.858 144.877 238.613C152.974 225.878 160.647 214.768 167.194 206.198C172.364 199.443 176.859 194.248 180.081 191.218C181.7 189.703 182.999 188.733 183.779 188.313ZM138.797 195.573L127.184 215.078L135.402 210.333V237.553C127.487 234.323 119.953 232.133 113.327 231.118C107.88 230.283 103.074 230.198 98.9515 231.078C96.8903 231.518 94.9937 232.183 93.1404 233.323C91.2872 234.463 89.3386 236.268 87.927 238.733C86.524 241.193 85.9698 243.773 85.9351 245.923C85.9005 248.083 86.2988 250.033 86.9743 252.013C88.3427 255.953 90.9061 259.973 94.4395 264.153C98.6657 269.133 104.312 274.283 111.041 279.228L87.849 292.618V283.148L76.7466 302.938L87.849 309.388V300.598L110.522 287.508C104.018 299.853 98.5531 311.168 94.4395 320.783C90.9061 329.043 88.3427 336.023 86.983 341.538C86.2988 344.293 85.9005 346.703 85.9351 348.823C85.9611 350.948 86.524 352.873 87.927 353.713C89.3299 354.543 91.2872 354.093 93.1318 353.108C94.9937 352.103 96.8903 350.578 98.9428 348.643C103.074 344.758 107.88 339.123 113.327 331.988C119.953 323.323 127.487 312.453 135.402 300.073V327.283L127.184 332.028L138.797 338.133L149.943 318.888L142.322 323.288V296.658C150.021 299.763 157.339 301.868 163.799 302.858C169.247 303.693 174.053 303.778 178.184 302.903C180.237 302.458 182.133 301.803 183.995 300.658C185.84 299.513 187.797 297.703 189.2 295.243C190.603 292.793 191.157 290.213 191.192 288.053C191.226 285.893 190.828 283.943 190.153 281.973C188.784 278.033 186.221 274.013 182.687 269.833C178.583 264.973 173.109 259.963 166.605 255.128L189.278 242.038V250.828L200.38 231.558L189.278 224.588V234.058L166.086 247.448C172.815 234.733 178.47 223.058 182.687 213.203C186.221 204.943 188.784 197.963 190.144 192.448C190.828 189.683 191.226 187.273 191.192 185.153C191.157 183.043 190.603 181.103 189.2 180.263C187.797 179.423 185.84 179.873 183.987 180.873C182.133 181.873 180.237 183.408 178.184 185.333C174.053 189.218 169.247 194.853 163.799 201.978C157.339 210.438 150.021 220.983 142.322 232.978V206.338L149.943 201.938L138.797 195.573ZM138.841 118.788L166.605 115.278V117.598L110.522 149.978V147.908L138.841 118.788ZM110.522 116.228L166.605 83.8479V86.8779L138.841 115.428L110.522 119.008V116.228ZM84.714 122.198V136.918L109.708 122.488L135.108 119.263L110.522 144.538V144.278L84.714 159.178V173.908L110.522 159.008V153.118L166.605 120.738V126.628L192.413 111.728V96.9979L166.605 111.898V111.908L142.573 114.953L167.982 88.8429L192.413 74.7379V60.0179L166.605 74.9179V80.7079L110.522 113.088V107.298L84.714 122.198ZM62.5871 216.063L214.54 128.333C217.813 126.443 220.368 127.918 220.368 131.688V307.838C220.368 311.598 217.813 316.023 214.54 317.913L62.5871 405.643C59.3135 407.533 56.7587 406.058 56.7587 402.298V226.148C56.7587 222.378 59.3135 217.953 62.5871 216.063ZM62.5871 210.533C56.7414 213.908 51.9609 222.178 51.9609 228.918V405.068C51.9609 411.798 56.7414 414.548 62.5871 411.173L214.54 323.443C220.386 320.068 225.166 311.798 225.166 305.068V128.918C225.166 122.178 220.386 119.428 214.54 122.803L62.5871 210.533ZM62.5871 124.703L214.54 36.9729C217.813 35.0829 220.368 36.5579 220.368 40.3279V99.0879C220.368 102.858 217.813 107.283 214.54 109.173L62.5871 196.903C59.3135 198.793 56.7587 197.318 56.7587 193.548V134.788C56.7587 131.018 59.3135 126.593 62.5871 124.703ZM62.5871 119.173C56.7414 122.548 51.9609 130.818 51.9609 137.558V196.318C51.9609 203.058 56.7414 205.808 62.5871 202.433L214.54 114.703C220.386 111.328 225.166 103.058 225.166 96.3179V37.5579C225.166 30.8179 220.386 28.0679 214.54 31.4429L62.5871 119.173Z" fill="#8BC5E4"/>
<path fill-rule="evenodd" clip-rule="evenodd" d="M62.5871 216.063L214.54 128.333C217.813 126.443 220.368 127.918 220.368 131.688V307.838C220.368 311.598 217.813 316.023 214.54 317.913L62.5871 405.643C59.3135 407.533 56.7587 406.058 56.7587 402.298V226.148C56.7587 222.378 59.3135 217.953 62.5871 216.063ZM127.184 215.078L138.797 195.573L149.943 201.938L142.322 206.338V232.978C150.021 220.983 157.339 210.438 163.799 201.978C169.247 194.853 174.053 189.218 178.184 185.333C180.237 183.408 182.133 181.873 183.987 180.873C185.84 179.873 187.797 179.423 189.2 180.263C190.603 181.103 191.157 183.043 191.192 185.153C191.226 187.273 190.828 189.683 190.144 192.448C188.784 197.963 186.221 204.943 182.687 213.203C178.47 223.058 172.815 234.733 166.086 247.448L189.278 234.058V224.588L200.38 231.558L189.278 250.828V242.038L166.605 255.128C173.109 259.963 178.583 264.973 182.687 269.833C186.221 274.013 188.784 278.033 190.153 281.973C190.828 283.943 191.226 285.893 191.192 288.053C191.157 290.213 190.603 292.793 189.2 295.243C187.797 297.703 185.84 299.513 183.995 300.658C182.133 301.803 180.237 302.458 178.184 302.903C174.053 303.778 169.247 303.693 163.799 302.858C157.339 301.868 150.021 299.763 142.322 296.658V323.288L149.943 318.888L138.797 338.133L127.184 332.028L135.402 327.283V300.073C127.487 312.453 119.953 323.323 113.327 331.988C107.88 339.123 103.074 344.758 98.9428 348.643C96.8903 350.578 94.9937 352.103 93.1318 353.108C91.2872 354.093 89.3299 354.543 87.927 353.713C86.524 352.873 85.9611 350.948 85.9351 348.823C85.9005 346.703 86.2988 344.293 86.983 341.538C88.3427 336.023 90.9061 329.043 94.4395 320.783C98.5531 311.168 104.018 299.853 110.522 287.508L87.849 300.598V309.388L76.7466 302.938L87.849 283.148V292.618L111.041 279.228C104.312 274.283 98.6657 269.133 94.4395 264.153C90.9061 259.973 88.3427 255.953 86.9743 252.013C86.2988 250.033 85.9005 248.083 85.9351 245.923C85.9698 243.773 86.524 241.193 87.927 238.733C89.3386 236.268 91.2872 234.463 93.1404 233.323C94.9937 232.183 96.8903 231.518 98.9515 231.078C103.074 230.198 107.88 230.283 113.327 231.118C119.953 232.133 127.487 234.323 135.402 237.553V210.333L127.184 215.078Z" fill="white"/>
<path d="M138.841 118.788L166.605 115.278V117.598L110.522 149.978V147.908L138.841 118.788Z" fill="white"/>
<path d="M110.522 116.228L166.605 83.8479V86.8779L138.841 115.428L110.522 119.008V116.228Z" fill="white"/>
<path fill-rule="evenodd" clip-rule="evenodd" d="M62.5871 124.703L214.54 36.9729C217.813 35.0829 220.368 36.5579 220.368 40.3279V99.0879C220.368 102.858 217.813 107.283 214.54 109.173L62.5871 196.903C59.3135 198.793 56.7587 197.318 56.7587 193.548V134.788C56.7587 131.018 59.3135 126.593 62.5871 124.703ZM84.714 136.918V122.198L110.522 107.298V113.088L166.605 80.7079V74.9179L192.413 60.0179V74.7379L167.982 88.8429L142.573 114.953L166.605 111.908V111.898L192.413 96.9979V111.728L166.605 126.628V120.738L110.522 153.118V159.008L84.714 173.908V159.178L110.522 144.278V144.538L135.108 119.263L109.708 122.488L84.714 136.918Z" fill="white"/>
<path d="M183.779 188.313C184.549 187.898 184.662 188.003 184.671 188.018L184.672 188.018C184.688 188.026 184.836 188.098 184.853 188.953C184.861 189.838 184.653 191.448 184.116 193.618C183.051 197.933 180.739 204.418 177.379 212.248C173.127 222.173 167.229 234.308 160.11 247.638C158.04 240.263 152.281 236.858 144.877 238.613C152.974 225.878 160.647 214.768 167.194 206.198C172.364 199.443 176.859 194.248 180.081 191.218C181.7 189.703 182.999 188.733 183.779 188.313Z" fill="white"/>
<path d="M93.357 240.518C94.1277 240.043 95.4181 239.518 97.0462 239.158C100.268 238.468 104.763 238.473 109.933 239.268C116.48 240.268 124.153 242.518 132.25 245.913C124.846 252.708 119.095 262.768 117.025 272.533C109.907 267.423 104 262.093 99.7482 257.068C96.388 253.118 94.0758 249.303 93.0105 246.218C92.4736 244.668 92.2658 243.298 92.2831 242.398C92.2915 241.529 92.4388 241.287 92.4552 241.26L92.4563 241.258C92.4649 241.243 92.5775 240.998 93.357 240.518Z" fill="white"/>
<path d="M160.102 261.443C167.22 266.563 173.127 271.893 177.379 276.908C180.739 280.868 183.051 284.683 184.116 287.768C184.653 289.308 184.861 290.678 184.853 291.573C184.836 292.457 184.688 292.699 184.672 292.726L184.671 292.728C184.662 292.743 184.549 292.988 183.779 293.463C182.999 293.943 181.709 294.468 180.081 294.818C176.859 295.498 172.364 295.513 167.194 294.708C160.647 293.718 152.974 291.458 144.877 288.063C152.281 281.268 158.032 271.218 160.102 261.443Z" fill="white"/>
<path d="M117.017 286.338C119.095 293.708 124.846 297.118 132.25 295.353C124.153 308.098 116.48 319.218 109.933 327.768C104.763 334.543 100.268 339.718 97.0462 342.758C95.4181 344.288 94.1277 345.253 93.3483 345.673C92.5775 346.088 92.4649 345.973 92.4563 345.968C92.4476 345.953 92.2917 345.913 92.2831 345.018C92.2658 344.138 92.4736 342.528 93.0105 340.368C94.0758 336.053 96.388 329.568 99.7482 321.728C104 311.813 109.898 299.668 117.017 286.338Z" fill="white"/>
</svg>
