<svg width="226" height="326" viewBox="0 0 226 326" fill="none" xmlns="http://www.w3.org/2000/svg">
<path d="M177.665 208.437L125.704 178.437L177.665 208.437Z" fill="#8BC5E4"/>
<path d="M204.547 210.917L204.546 210.918L152.584 180.918L152.585 180.917L204.547 210.917Z" fill="#8BC5E4"/>
<path d="M194.778 198.547L142.816 168.547L194.778 198.547Z" fill="#8BC5E4"/>
<path d="M167.903 190.604L167.905 190.602L115.943 160.602L115.942 160.604L167.903 190.604Z" fill="#8BC5E4"/>
<path d="M168.26 190.317L116.298 160.317L168.26 190.317Z" fill="#8BC5E4"/>
<path d="M204.538 169.452L204.539 169.453L152.578 139.453L152.576 139.452L204.538 169.452Z" fill="#8BC5E4"/>
<path d="M204.183 169.577L152.221 139.577L204.183 169.577Z" fill="#8BC5E4"/>
<path d="M186.308 172.487L181.701 180.217L129.739 150.217L134.347 142.487L186.308 172.487Z" fill="#8BC5E4"/>
<path d="M181.701 180.217L184.966 178.332L133.004 148.332L129.739 150.217L181.701 180.217Z" fill="#8BC5E4"/>
<path d="M184.965 178.332V189.112L133.004 159.112V148.332L184.965 178.332Z" fill="#8BC5E4"/>
<path d="M175.292 205.627L166.069 210.952L114.107 180.952L123.331 175.627L175.292 205.627Z" fill="#8BC5E4"/>
<path d="M166.069 210.952V207.202L114.107 177.202V180.952L166.069 210.952Z" fill="#8BC5E4"/>
<path d="M166.069 207.202L161.661 215.047L109.699 185.047L114.107 177.202L166.069 207.202Z" fill="#8BC5E4"/>
<path d="M161.661 215.047L166.069 217.592L114.107 187.592L109.699 185.047L161.661 215.047Z" fill="#8BC5E4"/>
<path d="M166.069 217.592V214.112L114.107 184.112V187.592L166.069 217.592Z" fill="#8BC5E4"/>
<path d="M166.069 214.112L175.084 208.907L123.123 178.907L114.107 184.112L166.069 214.112Z" fill="#8BC5E4"/>
<path d="M184.965 213.862V224.642L133.004 194.642V183.862L184.965 213.862Z" fill="#8BC5E4"/>
<path d="M184.966 224.642L181.701 226.527L129.739 196.527L133.004 194.642L184.966 224.642Z" fill="#8BC5E4"/>
<path d="M181.701 226.527L186.308 228.937L134.347 198.937L129.739 196.527L181.701 226.527Z" fill="#8BC5E4"/>
<path d="M186.308 228.937L190.742 221.307L138.78 191.307L134.346 198.937L186.308 228.937Z" fill="#8BC5E4"/>
<path d="M190.742 221.307L187.719 223.052L135.758 193.052L138.78 191.307L190.742 221.307Z" fill="#8BC5E4"/>
<path d="M187.719 223.052V212.512L135.758 182.512V193.052L187.719 223.052Z" fill="#8BC5E4"/>
<path d="M197.367 196.042L206.374 190.842L154.412 160.842L145.406 166.042L197.367 196.042Z" fill="#8BC5E4"/>
<path d="M206.374 190.842V194.322L154.412 164.322V160.842L206.374 190.842Z" fill="#8BC5E4"/>
<path d="M206.374 194.322L210.782 186.687L158.82 156.687L154.412 164.322L206.374 194.322Z" fill="#8BC5E4"/>
<path d="M210.782 186.687L206.374 183.932L154.412 153.932L158.82 156.687L210.782 186.687Z" fill="#8BC5E4"/>
<path d="M206.374 183.932V187.682L154.412 157.682V153.932L206.374 183.932Z" fill="#8BC5E4"/>
<path d="M206.374 187.682L197.159 193.002L145.198 163.002L154.412 157.682L206.374 187.682Z" fill="#8BC5E4"/>
<path d="M187.719 187.292V176.742L135.758 146.742V157.292L187.719 187.292Z" fill="#8BC5E4"/>
<path d="M187.719 176.742L190.742 174.997L138.78 144.997L135.758 146.742L187.719 176.742Z" fill="#8BC5E4"/>
<path d="M190.742 174.997L186.308 172.487L134.346 142.487L138.78 144.997L190.742 174.997Z" fill="#8BC5E4"/>
<path d="M186.308 172.487L134.346 142.487L186.308 172.487Z" fill="#8BC5E4"/>
<path d="M146.765 140.477L169.126 127.597L117.164 97.5972L94.8037 110.477L146.765 140.477Z" fill="#8BC5E4"/>
<path d="M174.504 127.632L169.42 148.467L117.459 118.467L122.543 97.6323L174.504 127.632Z" fill="#8BC5E4"/>
<path d="M161.912 155.302L137.932 169.127L85.9702 139.127L109.951 125.302L161.912 155.302Z" fill="#8BC5E4"/>
<path d="M133.593 169.552L138.694 148.657L86.7322 118.657L81.6313 139.552L133.593 169.552Z" fill="#8BC5E4"/>
<path d="M146.765 140.477L94.8037 110.477L146.765 140.477Z" fill="#8BC5E4"/>
<path d="M107.041 163.372L128.925 150.757L76.9636 120.757L55.0791 133.372L107.041 163.372Z" fill="#8BC5E4"/>
<path d="M134.935 150.597L129.886 171.282L77.9248 141.282L82.9738 120.597L134.935 150.597Z" fill="#8BC5E4"/>
<path d="M121.91 178.357L98.0684 192.092L46.1069 162.092L69.9485 148.357L121.91 178.357Z" fill="#8BC5E4"/>
<path d="M94.0933 192.447L99.2289 171.422L47.2673 141.422L42.1318 162.447L94.0933 192.447Z" fill="#8BC5E4"/>
<path d="M107.041 163.372L55.0791 133.372L107.041 163.372Z" fill="#8BC5E4"/>
<path d="M154.966 106.912L179.051 93.0374L127.089 63.0374L103.005 76.9124L154.966 106.912Z" fill="#8BC5E4"/>
<path d="M183.008 92.7822L177.318 116.097L125.357 86.0972L131.047 62.7822L183.008 92.7822Z" fill="#8BC5E4"/>
<path d="M169.854 123.007L145.986 136.757L94.0244 106.757L117.892 93.0073L169.854 123.007Z" fill="#8BC5E4"/>
<path d="M141.491 137.162L147.146 114.027L95.1849 84.0273L89.5298 107.162L141.491 137.162Z" fill="#8BC5E4"/>
<path d="M154.966 106.912L103.005 76.9124L154.966 106.912Z" fill="#8BC5E4"/>
<path d="M115.389 129.722L138.651 116.312L86.6891 86.3123L63.4277 99.7223L115.389 129.722Z" fill="#8BC5E4"/>
<path d="M143.422 115.827L137.793 138.897L85.8315 108.897L91.4606 85.8271L143.422 115.827Z" fill="#8BC5E4"/>
<path d="M129.722 146.127L106.183 159.697L54.2217 129.697L77.7603 116.127L129.722 146.127Z" fill="#8BC5E4"/>
<path d="M102.009 160.027L107.681 136.802L55.7198 106.802L50.0474 130.027L102.009 160.027Z" fill="#8BC5E4"/>
<path d="M115.389 129.722L63.4277 99.7222L115.389 129.722Z" fill="#8BC5E4"/>
<path d="M149.952 89.0872L146.254 104.252L94.2925 74.2522L97.9905 59.0872L149.952 89.0872Z" fill="#8BC5E4"/>
<path d="M137.914 112.567L116.065 125.162L64.103 95.1621L85.9528 82.5671L137.914 112.567Z" fill="#8BC5E4"/>
<path d="M110.505 125.222L113.805 111.717L61.8431 81.7173L58.5435 95.2223L110.505 125.222Z" fill="#8BC5E4"/>
<path d="M113.804 111.717L110.357 112.417L58.396 82.4173L61.8428 81.7173L113.804 111.717Z" fill="#8BC5E4"/>
<path d="M110.358 112.417L106.79 127.037L54.8281 97.0372L58.3962 82.4172L110.358 112.417Z" fill="#8BC5E4"/>
<path d="M98.3198 135.387L81.3111 145.187L29.3496 115.187L46.3583 105.387L98.3198 135.387Z" fill="#8BC5E4"/>
<path d="M81.3111 145.187V149.357L29.3496 119.357V115.187L81.3111 145.187Z" fill="#8BC5E4"/>
<path d="M81.3111 149.357L98.9694 139.182L47.0078 109.182L29.3496 119.357L81.3111 149.357Z" fill="#8BC5E4"/>
<path d="M103.949 138.647L98.3282 161.692L46.3667 131.692L51.9872 108.647L103.949 138.647Z" fill="#8BC5E4"/>
<path d="M90.0233 169.007L75.5261 177.357L23.5645 147.357L38.0618 139.007L90.0233 169.007Z" fill="#8BC5E4"/>
<path d="M75.5259 177.357L75.5172 181.532L23.5557 151.532L23.5643 147.357L75.5259 177.357Z" fill="#8BC5E4"/>
<path d="M75.5172 181.532L89.1398 173.687L37.1782 143.687L23.5557 151.532L75.5172 181.532Z" fill="#8BC5E4"/>
<path d="M95.4618 173.427L90.4215 194.077L38.46 164.077L43.5002 143.427L95.4618 173.427Z" fill="#8BC5E4"/>
<path d="M82.1426 201.267L69.8277 208.367L17.8662 178.367L30.1811 171.267L82.1426 201.267Z" fill="#8BC5E4"/>
<path d="M69.8277 208.367V212.537L17.8662 182.537V178.367L69.8277 208.367Z" fill="#8BC5E4"/>
<path d="M69.8277 212.537L81.0774 206.052L29.1158 176.052L17.8662 182.537L69.8277 212.537Z" fill="#8BC5E4"/>
<path d="M87.5466 205.837L84.7926 217.107L32.8311 187.107L35.5851 175.837L87.5466 205.837Z" fill="#8BC5E4"/>
<path d="M84.7926 217.107L88.2481 216.412L36.2865 186.412L32.8311 187.107L84.7926 217.107Z" fill="#8BC5E4"/>
<path d="M88.2477 216.412L91.3221 203.807L39.3605 173.807L36.2861 186.412L88.2477 216.412Z" fill="#8BC5E4"/>
<path d="M99.0993 195.667L120.923 183.097L68.9616 153.097L47.1377 165.667L99.0993 195.667Z" fill="#8BC5E4"/>
<path d="M127.028 182.992L124.396 193.772L72.4341 163.772L75.0669 152.992L127.028 182.992Z" fill="#8BC5E4"/>
<path d="M124.396 193.772L127.842 193.072L75.8809 163.072L72.4341 163.772L124.396 193.772Z" fill="#8BC5E4"/>
<path d="M127.842 193.072L130.787 181.042L78.8254 151.042L75.8809 163.072L127.842 193.072Z" fill="#8BC5E4"/>
<path d="M138.893 172.732L161.003 159.997L109.041 129.997L86.9316 142.732L138.893 172.732Z" fill="#8BC5E4"/>
<path d="M166.589 160.052L163.817 171.402L111.856 141.402L114.627 130.052L166.589 160.052Z" fill="#8BC5E4"/>
<path d="M163.817 171.402L167.264 170.712L115.303 140.712L111.856 141.402L163.817 171.402Z" fill="#8BC5E4"/>
<path d="M167.264 170.712L170.304 158.247L118.342 128.247L115.303 140.712L167.264 170.712Z" fill="#8BC5E4"/>
<path d="M178.921 149.672L192.89 141.627L140.928 111.627L126.959 119.672L178.921 149.672Z" fill="#8BC5E4"/>
<path d="M192.89 141.627L192.898 137.452L140.937 107.452L140.928 111.627L192.89 141.627Z" fill="#8BC5E4"/>
<path d="M192.898 137.452L178.037 146.012L126.076 116.012L140.937 107.452L192.898 137.452Z" fill="#8BC5E4"/>
<path d="M173.144 146.617L178.21 125.862L126.249 95.8623L121.183 116.617L173.144 146.617Z" fill="#8BC5E4"/>
<path d="M186.905 117.352L198.588 110.617L146.626 80.6172L134.944 87.3522L186.905 117.352Z" fill="#8BC5E4"/>
<path d="M198.588 110.617L198.597 106.442L146.635 76.4421L146.626 80.6171L198.588 110.617Z" fill="#8BC5E4"/>
<path d="M198.597 106.442L186.204 113.587L134.243 83.5871L146.635 76.4421L198.597 106.442Z" fill="#8BC5E4"/>
<path d="M181.06 114.197L186.68 91.1921L134.719 61.1921L129.098 84.1971L181.06 114.197Z" fill="#8BC5E4"/>
<path d="M195.272 83.6921L204.382 78.4421L152.421 48.4421L143.31 53.6921L195.272 83.6921Z" fill="#8BC5E4"/>
<path d="M204.382 78.4422V74.2722L152.42 44.2722V48.4422L204.382 78.4422Z" fill="#8BC5E4"/>
<path d="M204.382 74.2722L196.103 79.0422L144.141 49.0422L152.42 44.2722L204.382 74.2722Z" fill="#8BC5E4"/>
<path d="M189.556 79.4123L192.821 66.0173L140.859 36.0173L137.594 49.4123L189.556 79.4123Z" fill="#8BC5E4"/>
<path d="M192.82 66.0173L189.374 66.7173L137.412 36.7173L140.859 36.0173L192.82 66.0173Z" fill="#8BC5E4"/>
<path d="M189.374 66.7173L185.771 81.4873L133.81 51.4873L137.412 36.7173L189.374 66.7173Z" fill="#8BC5E4"/>
<path d="M178.245 89.3323L155.72 102.317L103.758 72.3173L126.284 59.3323L178.245 89.3323Z" fill="#8BC5E4"/>
<path d="M149.978 102.402L153.408 88.3823L101.446 58.3823L98.0166 72.4023L149.978 102.402Z" fill="#8BC5E4"/>
<path d="M153.408 88.3823L149.952 89.0873L97.9907 59.0873L101.446 58.3823L153.408 88.3823Z" fill="#8BC5E4"/>
<path d="M149.952 89.0872L97.9907 59.0872L149.952 89.0872Z" fill="#8BC5E4"/>
<path d="M62.5875 124.697L214.54 36.9673L162.579 6.96729L10.626 94.6973L62.5875 124.697Z" fill="#8BC5E4"/>
<path d="M220.369 40.2922V215.862L168.407 185.862V10.2922L220.369 40.2922Z" fill="#8BC5E4"/>
<path d="M214.54 225.927L62.5875 313.657L10.626 283.657L162.579 195.927L214.54 225.927Z" fill="#8BC5E4"/>
<path d="M56.7593 310.322V134.752L4.79785 104.752V280.322L56.7593 310.322Z" fill="#8BC5E4"/>
<path d="M62.5875 124.697L10.626 94.6973L62.5875 124.697Z" fill="#8BC5E4"/>
<path d="M51.9615 137.522V313.092L0 283.092V107.522L51.9615 137.522Z" fill="#8BC5E4"/>
<path d="M62.5875 319.177L214.54 231.447L162.579 201.447L10.626 289.177L62.5875 319.177Z" fill="#8BC5E4"/>
<path d="M225.167 213.092V37.5222L173.205 7.52222V183.092L225.167 213.092Z" fill="#8BC5E4"/>
<path d="M214.54 31.4473L62.5875 119.177L10.626 89.1773L162.579 1.44727L214.54 31.4473Z" fill="#8BC5E4"/>
<path d="M62.5875 119.177L10.626 89.1772L62.5875 119.177Z" fill="#8BC5E4"/>
<path d="M62.5875 124.697L214.54 36.9673L162.579 6.96729L10.626 94.6973L62.5875 124.697Z" fill="#8BC5E4"/>
<path d="M220.369 40.2922V215.862L168.407 185.862V10.2922L220.369 40.2922Z" fill="#8BC5E4"/>
<path d="M214.54 225.927L62.5875 313.657L10.626 283.657L162.579 195.927L214.54 225.927Z" fill="#8BC5E4"/>
<path d="M56.7593 310.322V134.752L4.79785 104.752V280.322L56.7593 310.322Z" fill="#8BC5E4"/>
<path d="M62.5875 124.697L10.626 94.6973L62.5875 124.697Z" fill="#8BC5E4"/>
<path d="M181.701 180.217L186.308 172.487L134.347 142.487L129.739 150.217L181.701 180.217Z" fill="#8BC5E4"/>
<path d="M186.308 172.487L190.742 174.997L138.78 144.997L134.346 142.487L186.308 172.487Z" fill="#8BC5E4"/>
<path d="M190.742 174.997L187.719 176.742L135.758 146.742L138.78 144.997L190.742 174.997Z" fill="#8BC5E4"/>
<path d="M187.719 176.742V187.292L135.758 157.292V146.742L187.719 176.742Z" fill="#8BC5E4"/>
<path d="M197.159 193.002L206.374 187.682L154.412 157.682L145.198 163.002L197.159 193.002Z" fill="#8BC5E4"/>
<path d="M206.374 187.682V183.932L154.412 153.932V157.682L206.374 187.682Z" fill="#8BC5E4"/>
<path d="M206.374 183.932L210.782 186.687L158.82 156.687L154.412 153.932L206.374 183.932Z" fill="#8BC5E4"/>
<path d="M210.782 186.687L206.374 194.322L154.412 164.322L158.82 156.687L210.782 186.687Z" fill="#8BC5E4"/>
<path d="M206.374 194.322V190.842L154.412 160.842V164.322L206.374 194.322Z" fill="#8BC5E4"/>
<path d="M206.374 190.842L197.367 196.042L145.406 166.042L154.412 160.842L206.374 190.842Z" fill="#8BC5E4"/>
<path d="M187.719 212.512V223.052L135.758 193.052V182.512L187.719 212.512Z" fill="#8BC5E4"/>
<path d="M187.719 223.052L190.742 221.307L138.78 191.307L135.758 193.052L187.719 223.052Z" fill="#8BC5E4"/>
<path d="M190.742 221.307L186.308 228.937L134.346 198.937L138.78 191.307L190.742 221.307Z" fill="#8BC5E4"/>
<path d="M186.308 228.937L181.701 226.527L129.739 196.527L134.347 198.937L186.308 228.937Z" fill="#8BC5E4"/>
<path d="M181.701 226.527L184.966 224.642L133.004 194.642L129.739 196.527L181.701 226.527Z" fill="#8BC5E4"/>
<path d="M184.965 224.642V213.862L133.004 183.862V194.642L184.965 224.642Z" fill="#8BC5E4"/>
<path d="M175.084 208.907L166.069 214.112L114.107 184.112L123.123 178.907L175.084 208.907Z" fill="#8BC5E4"/>
<path d="M166.069 214.112V217.592L114.107 187.592V184.112L166.069 214.112Z" fill="#8BC5E4"/>
<path d="M166.069 217.592L161.661 215.047L109.699 185.047L114.107 187.592L166.069 217.592Z" fill="#8BC5E4"/>
<path d="M161.661 215.047L166.069 207.202L114.107 177.202L109.699 185.047L161.661 215.047Z" fill="#8BC5E4"/>
<path d="M166.069 207.202V210.952L114.107 180.952V177.202L166.069 207.202Z" fill="#8BC5E4"/>
<path d="M166.069 210.952L175.292 205.627L123.331 175.627L114.107 180.952L166.069 210.952Z" fill="#8BC5E4"/>
<path d="M184.965 189.112V178.332L133.004 148.332V159.112L184.965 189.112Z" fill="#8BC5E4"/>
<path d="M184.966 178.332L181.701 180.217L129.739 150.217L133.004 148.332L184.966 178.332Z" fill="#8BC5E4"/>
<path d="M181.701 180.217L129.739 150.217L181.701 180.217Z" fill="#8BC5E4"/>
<path d="M146.254 104.252L149.952 89.0872L97.9905 59.0872L94.2925 74.2522L146.254 104.252Z" fill="#8BC5E4"/>
<path d="M149.952 89.0873L153.408 88.3823L101.446 58.3823L97.9907 59.0873L149.952 89.0873Z" fill="#8BC5E4"/>
<path d="M153.408 88.3823L149.978 102.402L98.0166 72.4023L101.446 58.3823L153.408 88.3823Z" fill="#8BC5E4"/>
<path d="M155.72 102.317L178.245 89.3323L126.284 59.3323L103.758 72.3173L155.72 102.317Z" fill="#8BC5E4"/>
<path d="M185.771 81.4873L189.374 66.7173L137.412 36.7173L133.81 51.4873L185.771 81.4873Z" fill="#8BC5E4"/>
<path d="M189.374 66.7173L192.82 66.0173L140.859 36.0173L137.412 36.7173L189.374 66.7173Z" fill="#8BC5E4"/>
<path d="M192.821 66.0173L189.556 79.4123L137.594 49.4123L140.859 36.0173L192.821 66.0173Z" fill="#8BC5E4"/>
<path d="M196.103 79.0422L204.382 74.2722L152.42 44.2722L144.141 49.0422L196.103 79.0422Z" fill="#8BC5E4"/>
<path d="M204.382 74.2722V78.4422L152.42 48.4422V44.2722L204.382 74.2722Z" fill="#8BC5E4"/>
<path d="M204.382 78.4421L195.272 83.6921L143.31 53.6921L152.421 48.4421L204.382 78.4421Z" fill="#8BC5E4"/>
<path d="M186.68 91.1921L181.06 114.197L129.098 84.1971L134.719 61.1921L186.68 91.1921Z" fill="#8BC5E4"/>
<path d="M186.204 113.587L198.597 106.442L146.635 76.4421L134.243 83.5871L186.204 113.587Z" fill="#8BC5E4"/>
<path d="M198.597 106.442L198.588 110.617L146.626 80.6171L146.635 76.4421L198.597 106.442Z" fill="#8BC5E4"/>
<path d="M198.588 110.617L186.905 117.352L134.944 87.3522L146.626 80.6172L198.588 110.617Z" fill="#8BC5E4"/>
<path d="M178.21 125.862L173.144 146.617L121.183 116.617L126.249 95.8623L178.21 125.862Z" fill="#8BC5E4"/>
<path d="M178.037 146.012L192.898 137.452L140.937 107.452L126.076 116.012L178.037 146.012Z" fill="#8BC5E4"/>
<path d="M192.898 137.452L192.89 141.627L140.928 111.627L140.937 107.452L192.898 137.452Z" fill="#8BC5E4"/>
<path d="M192.89 141.627L178.921 149.672L126.959 119.672L140.928 111.627L192.89 141.627Z" fill="#8BC5E4"/>
<path d="M170.304 158.247L167.264 170.712L115.303 140.712L118.342 128.247L170.304 158.247Z" fill="#8BC5E4"/>
<path d="M167.264 170.712L163.817 171.402L111.856 141.402L115.303 140.712L167.264 170.712Z" fill="#8BC5E4"/>
<path d="M163.817 171.402L166.589 160.052L114.627 130.052L111.856 141.402L163.817 171.402Z" fill="#8BC5E4"/>
<path d="M161.003 159.997L138.893 172.732L86.9316 142.732L109.041 129.997L161.003 159.997Z" fill="#8BC5E4"/>
<path d="M130.787 181.042L127.842 193.072L75.8809 163.072L78.8254 151.042L130.787 181.042Z" fill="#8BC5E4"/>
<path d="M127.842 193.072L124.396 193.772L72.4341 163.772L75.8809 163.072L127.842 193.072Z" fill="#8BC5E4"/>
<path d="M124.396 193.772L127.028 182.992L75.0669 152.992L72.4341 163.772L124.396 193.772Z" fill="#8BC5E4"/>
<path d="M120.923 183.097L99.0993 195.667L47.1377 165.667L68.9616 153.097L120.923 183.097Z" fill="#8BC5E4"/>
<path d="M91.3221 203.807L88.2477 216.412L36.2861 186.412L39.3605 173.807L91.3221 203.807Z" fill="#8BC5E4"/>
<path d="M88.2481 216.412L84.7926 217.107L32.8311 187.107L36.2865 186.412L88.2481 216.412Z" fill="#8BC5E4"/>
<path d="M84.7926 217.107L87.5466 205.837L35.5851 175.837L32.8311 187.107L84.7926 217.107Z" fill="#8BC5E4"/>
<path d="M81.0774 206.052L69.8277 212.537L17.8662 182.537L29.1158 176.052L81.0774 206.052Z" fill="#8BC5E4"/>
<path d="M69.8277 212.537V208.367L17.8662 178.367V182.537L69.8277 212.537Z" fill="#8BC5E4"/>
<path d="M69.8277 208.367L82.1426 201.267L30.1811 171.267L17.8662 178.367L69.8277 208.367Z" fill="#8BC5E4"/>
<path d="M90.4215 194.077L95.4618 173.427L43.5002 143.427L38.46 164.077L90.4215 194.077Z" fill="#8BC5E4"/>
<path d="M89.1398 173.687L75.5172 181.532L23.5557 151.532L37.1782 143.687L89.1398 173.687Z" fill="#8BC5E4"/>
<path d="M75.5172 181.532L75.5259 177.357L23.5643 147.357L23.5557 151.532L75.5172 181.532Z" fill="#8BC5E4"/>
<path d="M75.5261 177.357L90.0233 169.007L38.0618 139.007L23.5645 147.357L75.5261 177.357Z" fill="#8BC5E4"/>
<path d="M98.3282 161.692L103.949 138.647L51.9872 108.647L46.3667 131.692L98.3282 161.692Z" fill="#8BC5E4"/>
<path d="M98.9694 139.182L81.3111 149.357L29.3496 119.357L47.0078 109.182L98.9694 139.182Z" fill="#8BC5E4"/>
<path d="M81.3111 149.357V145.187L29.3496 115.187V119.357L81.3111 149.357Z" fill="#8BC5E4"/>
<path d="M81.3111 145.187L98.3198 135.387L46.3583 105.387L29.3496 115.187L81.3111 145.187Z" fill="#8BC5E4"/>
<path d="M106.79 127.037L110.358 112.417L58.3962 82.4172L54.8281 97.0372L106.79 127.037Z" fill="#8BC5E4"/>
<path d="M110.357 112.417L113.804 111.717L61.8428 81.7173L58.396 82.4173L110.357 112.417Z" fill="#8BC5E4"/>
<path d="M113.805 111.717L110.505 125.222L58.5435 95.2223L61.8431 81.7173L113.805 111.717Z" fill="#8BC5E4"/>
<path d="M116.065 125.162L137.914 112.567L85.9528 82.5671L64.103 95.1621L116.065 125.162Z" fill="#8BC5E4"/>
<path d="M146.254 104.252L94.2925 74.2522L146.254 104.252Z" fill="#8BC5E4"/>
<path d="M204.538 169.452L204.539 169.453L152.578 139.453L152.576 139.452L204.538 169.452Z" fill="#8BC5E4"/>
<path d="M204.183 169.577L152.221 139.577L204.183 169.577Z" fill="#8BC5E4"/>
<path d="M204.547 210.917L204.546 210.918L152.584 180.918L152.585 180.917L204.547 210.917Z" fill="#8BC5E4"/>
<path d="M194.778 198.547L142.816 168.547L194.778 198.547Z" fill="#8BC5E4"/>
<path d="M167.903 190.604L167.905 190.602L115.943 160.602L115.942 160.604L167.903 190.604Z" fill="#8BC5E4"/>
<path d="M168.26 190.317L116.298 160.317L168.26 190.317Z" fill="#8BC5E4"/>
<path d="M177.665 208.437L125.704 178.437L177.665 208.437Z" fill="#8BC5E4"/>
<path d="M154.966 106.912L179.051 93.0374L127.089 63.0374L103.005 76.9124L154.966 106.912Z" fill="#8BC5E4"/>
<path d="M183.008 92.7822L177.318 116.097L125.357 86.0972L131.047 62.7822L183.008 92.7822Z" fill="#8BC5E4"/>
<path d="M169.854 123.007L145.986 136.757L94.0244 106.757L117.892 93.0073L169.854 123.007Z" fill="#8BC5E4"/>
<path d="M141.491 137.162L147.146 114.027L95.1849 84.0273L89.5298 107.162L141.491 137.162Z" fill="#8BC5E4"/>
<path d="M154.966 106.912L103.005 76.9124L154.966 106.912Z" fill="#8BC5E4"/>
<path d="M146.765 140.477L169.126 127.597L117.164 97.5972L94.8037 110.477L146.765 140.477Z" fill="#8BC5E4"/>
<path d="M174.504 127.632L169.42 148.467L117.459 118.467L122.543 97.6323L174.504 127.632Z" fill="#8BC5E4"/>
<path d="M161.912 155.302L137.932 169.127L85.9702 139.127L109.951 125.302L161.912 155.302Z" fill="#8BC5E4"/>
<path d="M133.593 169.552L138.694 148.657L86.7322 118.657L81.6313 139.552L133.593 169.552Z" fill="#8BC5E4"/>
<path d="M146.765 140.477L94.8037 110.477L146.765 140.477Z" fill="#8BC5E4"/>
<path d="M115.389 129.722L138.651 116.312L86.6891 86.3123L63.4277 99.7223L115.389 129.722Z" fill="#8BC5E4"/>
<path d="M143.422 115.827L137.793 138.897L85.8315 108.897L91.4606 85.8271L143.422 115.827Z" fill="#8BC5E4"/>
<path d="M129.722 146.127L106.183 159.697L54.2217 129.697L77.7603 116.127L129.722 146.127Z" fill="#8BC5E4"/>
<path d="M102.009 160.027L107.681 136.802L55.7198 106.802L50.0474 130.027L102.009 160.027Z" fill="#8BC5E4"/>
<path d="M115.389 129.722L63.4277 99.7222L115.389 129.722Z" fill="#8BC5E4"/>
<path d="M107.041 163.372L128.925 150.757L76.9636 120.757L55.0791 133.372L107.041 163.372Z" fill="#8BC5E4"/>
<path d="M134.935 150.597L129.886 171.282L77.9248 141.282L82.9738 120.597L134.935 150.597Z" fill="#8BC5E4"/>
<path d="M121.91 178.357L98.0684 192.092L46.1069 162.092L69.9485 148.357L121.91 178.357Z" fill="#8BC5E4"/>
<path d="M94.0933 192.447L99.2289 171.422L47.2673 141.422L42.1318 162.447L94.0933 192.447Z" fill="#8BC5E4"/>
<path d="M107.041 163.372L55.0791 133.372L107.041 163.372Z" fill="#8BC5E4"/>
<path d="M177.665 208.437C178.085 209.928 178.885 211.007 179.957 211.615L127.995 181.615C126.923 181.007 126.123 179.928 125.704 178.437L177.665 208.437Z" fill="#8BC5E4"/>
<path d="M179.965 211.62C180.993 212.199 182.269 212.346 183.701 212.009L131.74 182.009C130.308 182.346 129.032 182.199 128.004 181.62L179.965 211.62Z" fill="#8BC5E4"/>
<path d="M183.71 212.007C180.497 217.052 177.449 221.462 174.842 224.857L122.88 194.857C125.487 191.462 128.536 187.052 131.748 182.007L183.71 212.007Z" fill="#8BC5E4"/>
<path d="M174.842 224.857C172.79 227.542 171.005 229.592 169.724 230.802L117.762 200.802C119.044 199.592 120.828 197.542 122.88 194.857L174.842 224.857Z" fill="#8BC5E4"/>
<path d="M169.723 230.802C169.083 231.402 168.572 231.787 168.26 231.957L116.298 201.957C116.61 201.787 117.121 201.402 117.762 200.802L169.723 230.802Z" fill="#8BC5E4"/>
<path d="M168.26 231.957C167.957 232.112 167.905 232.082 167.905 232.072L115.943 202.072C115.943 202.082 115.995 202.112 116.298 201.957L168.26 231.957Z" fill="#8BC5E4"/>
<path d="M167.905 232.072C167.896 232.067 167.836 232.052 167.836 231.702L115.874 201.702C115.874 202.052 115.935 202.067 115.943 202.072L167.905 232.072Z" fill="#8BC5E4"/>
<path d="M167.836 231.702C167.827 231.347 167.905 230.712 168.121 229.857L116.16 199.857C115.943 200.712 115.865 201.347 115.874 201.702L167.836 231.702Z" fill="#8BC5E4"/>
<path d="M168.122 229.857C168.546 228.142 169.464 225.582 170.798 222.472L118.836 192.472C117.502 195.582 116.584 198.142 116.16 199.857L168.122 229.857Z" fill="#8BC5E4"/>
<path d="M170.797 222.472C172.486 218.537 174.833 213.722 177.665 208.437L125.704 178.437C122.872 183.722 120.525 188.537 118.836 192.472L170.797 222.472Z" fill="#8BC5E4"/>
<path d="M194.778 198.547C194.927 198.654 195.075 198.761 195.221 198.868L143.26 168.868C143.114 168.761 142.966 168.654 142.816 168.547L194.778 198.547Z" fill="#8BC5E4"/>
<path d="M195.221 198.868C197.851 200.791 200.04 202.778 201.64 204.656L149.679 174.656C148.079 172.778 145.89 170.791 143.26 168.868L195.221 198.868Z" fill="#8BC5E4"/>
<path d="M201.645 204.662C202.979 206.232 203.897 207.732 204.321 208.957L152.36 178.957C151.935 177.732 151.017 176.232 149.684 174.662L201.645 204.662Z" fill="#8BC5E4"/>
<path d="M204.321 208.957C204.538 209.562 204.616 210.107 204.616 210.467L152.654 180.467C152.654 180.107 152.576 179.562 152.36 178.957L204.321 208.957Z" fill="#8BC5E4"/>
<path d="M204.616 210.467C204.607 210.822 204.546 210.907 204.546 210.917L152.585 180.917C152.585 180.907 152.646 180.822 152.654 180.467L204.616 210.467Z" fill="#8BC5E4"/>
<path d="M204.546 210.918C204.535 210.937 204.487 211.022 204.183 211.217L152.221 181.217C152.525 181.022 152.574 180.937 152.584 180.918L204.546 210.918Z" fill="#8BC5E4"/>
<path d="M204.183 211.217C203.88 211.402 203.36 211.612 202.719 211.752L150.758 181.752C151.399 181.612 151.918 181.402 152.221 181.217L204.183 211.217Z" fill="#8BC5E4"/>
<path d="M202.719 211.752C201.438 212.022 199.654 212.032 197.601 211.717L145.64 181.717C147.692 182.032 149.476 182.022 150.758 181.752L202.719 211.752Z" fill="#8BC5E4"/>
<path d="M197.601 211.717C195.131 211.352 192.273 210.53 189.241 209.314L137.28 179.314C140.312 180.53 143.17 181.352 145.639 181.717L197.601 211.717Z" fill="#8BC5E4"/>
<path d="M189.245 209.316C189.076 209.248 188.907 209.179 188.737 209.109L136.776 179.109C136.946 179.179 137.115 179.248 137.284 179.316L189.245 209.316Z" fill="#8BC5E4"/>
<path d="M188.733 209.107C191.669 206.412 193.955 202.422 194.778 198.547L142.816 168.547C141.994 172.422 139.707 176.412 136.771 179.107L188.733 209.107Z" fill="#8BC5E4"/>
<path d="M168.26 190.317C168.572 190.117 169.083 189.912 169.723 189.772L117.762 159.772C117.121 159.912 116.61 160.117 116.298 160.317L168.26 190.317Z" fill="#8BC5E4"/>
<path d="M169.724 189.772C171.005 189.502 172.79 189.492 174.842 189.807L122.88 159.807C120.828 159.492 119.044 159.502 117.762 159.772L169.724 189.772Z" fill="#8BC5E4"/>
<path d="M174.842 189.807C177.312 190.181 180.177 190.991 183.211 192.214L131.249 162.214C128.215 160.991 125.35 160.181 122.88 159.807L174.842 189.807Z" fill="#8BC5E4"/>
<path d="M183.211 192.214C183.38 192.282 183.549 192.351 183.719 192.422L131.757 162.422C131.587 162.351 131.418 162.282 131.249 162.214L183.211 192.214Z" fill="#8BC5E4"/>
<path d="M183.719 192.422C180.774 195.112 178.488 199.102 177.665 202.977L125.704 172.977C126.526 169.102 128.813 165.112 131.757 162.422L183.719 192.422Z" fill="#8BC5E4"/>
<path d="M177.665 202.977C177.516 202.87 177.368 202.763 177.222 202.655L125.261 172.655C125.407 172.763 125.555 172.87 125.703 172.977L177.665 202.977Z" fill="#8BC5E4"/>
<path d="M177.222 202.656C174.598 200.728 172.41 198.742 170.802 196.868L118.841 166.868C120.449 168.742 122.637 170.728 125.261 172.656L177.222 202.656Z" fill="#8BC5E4"/>
<path d="M170.798 196.862C169.464 195.302 168.546 193.792 168.122 192.567L116.16 162.567C116.584 163.792 117.502 165.302 118.836 166.862L170.798 196.862Z" fill="#8BC5E4"/>
<path d="M168.121 192.567C167.905 191.962 167.827 191.417 167.836 191.062L115.874 161.062C115.865 161.417 115.943 161.962 116.16 162.567L168.121 192.567Z" fill="#8BC5E4"/>
<path d="M167.836 191.062C167.836 190.717 167.891 190.625 167.904 190.604L115.942 160.604C115.93 160.625 115.874 160.717 115.874 161.062L167.836 191.062Z" fill="#8BC5E4"/>
<path d="M167.905 190.602C167.905 190.602 167.957 190.502 168.26 190.317L116.298 160.317C115.995 160.502 115.943 160.602 115.943 160.602L167.905 190.602Z" fill="#8BC5E4"/>
<path d="M204.183 169.577C204.494 169.407 204.538 169.452 204.538 169.452L152.576 139.452C152.576 139.452 152.533 139.407 152.221 139.577L204.183 169.577Z" fill="#8BC5E4"/>
<path d="M204.539 169.453C204.552 169.459 204.607 169.487 204.616 169.817L152.654 139.817C152.646 139.487 152.59 139.459 152.578 139.453L204.539 169.453Z" fill="#8BC5E4"/>
<path d="M204.616 169.817C204.616 170.177 204.538 170.812 204.321 171.667L152.36 141.667C152.576 140.812 152.654 140.177 152.654 139.817L204.616 169.817Z" fill="#8BC5E4"/>
<path d="M204.321 171.667C203.897 173.382 202.979 175.952 201.645 179.052L149.684 149.052C151.017 145.952 151.935 143.382 152.36 141.667L204.321 171.667Z" fill="#8BC5E4"/>
<path d="M201.645 179.052C199.956 182.987 197.61 187.802 194.786 193.082L142.825 163.082C145.648 157.802 147.995 152.987 149.684 149.052L201.645 179.052Z" fill="#8BC5E4"/>
<path d="M194.786 193.082C194.37 191.622 193.591 190.557 192.548 189.945L140.587 159.945C141.63 160.557 142.409 161.622 142.825 163.082L194.786 193.082Z" fill="#8BC5E4"/>
<path d="M192.551 189.947C191.51 189.335 190.207 189.175 188.741 189.525L136.78 159.525C138.246 159.175 139.549 159.335 140.59 159.947L192.551 189.947Z" fill="#8BC5E4"/>
<path d="M188.733 189.527C191.955 184.467 194.994 180.072 197.601 176.667L145.64 146.667C143.033 150.072 139.993 154.467 136.771 159.527L188.733 189.527Z" fill="#8BC5E4"/>
<path d="M197.601 176.667C199.654 173.982 201.438 171.932 202.719 170.722L150.758 140.722C149.476 141.932 147.692 143.982 145.64 146.667L197.601 176.667Z" fill="#8BC5E4"/>
<path d="M202.719 170.722C203.36 170.122 203.88 169.732 204.183 169.577L152.221 139.577C151.918 139.732 151.399 140.122 150.758 140.722L202.719 170.722Z" fill="#8BC5E4"/>
<path d="M184.965 189.112C184.793 189.042 184.622 188.974 184.451 188.907L132.49 158.907C132.661 158.974 132.832 159.042 133.004 159.112L184.965 189.112Z" fill="#8BC5E4"/>
<path d="M184.451 188.907C181.499 187.745 178.687 186.957 176.2 186.578L124.239 156.578C126.726 156.957 129.538 157.745 132.49 158.907L184.451 188.907Z" fill="#8BC5E4"/>
<path d="M176.193 186.577C174.028 186.247 172.122 186.217 170.485 186.572L118.524 156.572C120.161 156.217 122.066 156.247 124.231 156.577L176.193 186.577Z" fill="#8BC5E4"/>
<path d="M170.486 186.572C169.663 186.747 168.91 187.012 168.174 187.467L116.212 157.467C116.948 157.012 117.702 156.747 118.524 156.572L170.486 186.572Z" fill="#8BC5E4"/>
<path d="M168.173 187.467C167.437 187.922 166.667 188.637 166.104 189.612L114.142 159.612C114.705 158.637 115.476 157.922 116.212 157.467L168.173 187.467Z" fill="#8BC5E4"/>
<path d="M166.104 189.612C165.549 190.582 165.324 191.612 165.316 192.457L113.354 162.457C113.363 161.612 113.588 160.582 114.142 159.612L166.104 189.612Z" fill="#8BC5E4"/>
<path d="M165.315 192.457C165.298 193.317 165.454 194.087 165.731 194.867L113.77 164.867C113.492 164.087 113.337 163.317 113.354 162.457L165.315 192.457Z" fill="#8BC5E4"/>
<path d="M165.731 194.867C166.268 196.427 167.29 198.017 168.693 199.667L116.731 169.667C115.328 168.017 114.307 166.427 113.77 164.867L165.731 194.867Z" fill="#8BC5E4"/>
<path d="M168.693 199.667C170.281 201.529 172.372 203.45 174.857 205.306L122.896 175.306C120.411 173.45 118.32 171.529 116.731 169.667L168.693 199.667Z" fill="#8BC5E4"/>
<path d="M174.865 205.311C175.003 205.415 175.143 205.518 175.284 205.621L123.323 175.621C123.182 175.518 123.042 175.415 122.904 175.311L174.865 205.311Z" fill="#8BC5E4"/>
<path d="M175.084 208.907C172.495 213.802 170.33 218.292 168.693 222.097L116.731 192.097C118.368 188.292 120.533 183.802 123.123 178.907L175.084 208.907Z" fill="#8BC5E4"/>
<path d="M168.693 222.097C167.281 225.372 166.268 228.137 165.731 230.317L113.77 200.317C114.307 198.137 115.32 195.372 116.731 192.097L168.693 222.097Z" fill="#8BC5E4"/>
<path d="M165.731 230.317C165.454 231.417 165.298 232.377 165.307 233.212L113.346 203.212C113.337 202.377 113.493 201.417 113.77 200.317L165.731 230.317Z" fill="#8BC5E4"/>
<path d="M165.307 233.212C165.323 233.993 165.518 234.705 165.991 235.066L114.03 205.066C113.557 204.705 113.362 203.993 113.345 203.212L165.307 233.212Z" fill="#8BC5E4"/>
<path d="M165.999 235.071C166.031 235.095 166.064 235.117 166.098 235.138L114.136 205.138C114.102 205.117 114.069 205.095 114.037 205.071L165.999 235.071Z" fill="#8BC5E4"/>
<path d="M166.104 235.142C166.138 235.163 166.174 235.182 166.211 235.199L114.25 205.199C114.213 205.182 114.177 205.163 114.142 205.142L166.104 235.142Z" fill="#8BC5E4"/>
<path d="M166.211 235.199C166.76 235.452 167.478 235.269 168.165 234.902L116.203 204.902C115.516 205.269 114.799 205.452 114.25 205.199L166.211 235.199Z" fill="#8BC5E4"/>
<path d="M168.174 234.897C168.91 234.502 169.663 233.897 170.486 233.132L118.524 203.132C117.702 203.897 116.948 204.502 116.212 204.897L168.174 234.897Z" fill="#8BC5E4"/>
<path d="M170.485 233.132C172.122 231.587 174.028 229.357 176.193 226.527L124.231 196.527C122.066 199.357 120.161 201.587 118.524 203.132L170.485 233.132Z" fill="#8BC5E4"/>
<path d="M176.193 226.527C178.826 223.087 181.822 218.777 184.966 213.862L133.004 183.862C129.861 188.777 126.864 193.087 124.231 196.527L176.193 226.527Z" fill="#8BC5E4"/>
<path d="M187.719 212.512C187.886 212.579 188.053 212.645 188.219 212.709L136.258 182.709C136.092 182.645 135.925 182.579 135.758 182.512L187.719 212.512Z" fill="#8BC5E4"/>
<path d="M188.219 212.709C191.093 213.825 193.826 214.578 196.249 214.947L144.288 184.947C141.865 184.578 139.132 183.825 136.258 182.709L188.219 212.709Z" fill="#8BC5E4"/>
<path d="M196.25 214.947C198.415 215.277 200.32 215.307 201.957 214.962L149.996 184.962C148.359 185.307 146.454 185.277 144.289 184.947L196.25 214.947Z" fill="#8BC5E4"/>
<path d="M201.957 214.962C202.78 214.777 203.533 214.512 204.269 214.057L152.308 184.057C151.572 184.512 150.818 184.777 149.996 184.962L201.957 214.962Z" fill="#8BC5E4"/>
<path d="M204.269 214.057C205.005 213.602 205.785 212.892 206.339 211.912L154.377 181.912C153.823 182.892 153.044 183.602 152.308 184.057L204.269 214.057Z" fill="#8BC5E4"/>
<path d="M206.339 211.912C206.893 210.942 207.118 209.922 207.136 209.062L155.174 179.062C155.157 179.922 154.932 180.942 154.377 181.912L206.339 211.912Z" fill="#8BC5E4"/>
<path d="M207.136 209.062C207.153 208.212 206.989 207.437 206.72 206.652L154.759 176.652C155.027 177.437 155.192 178.212 155.174 179.062L207.136 209.062Z" fill="#8BC5E4"/>
<path d="M206.72 206.652C206.174 205.097 205.161 203.502 203.75 201.857L151.788 171.857C153.2 173.502 154.213 175.097 154.758 176.652L206.72 206.652Z" fill="#8BC5E4"/>
<path d="M203.75 201.857C202.21 200.042 200.184 198.169 197.786 196.356L145.825 166.356C148.223 168.169 150.249 170.042 151.788 171.857L203.75 201.857Z" fill="#8BC5E4"/>
<path d="M197.779 196.35C197.646 196.249 197.511 196.149 197.375 196.048L145.413 166.048C145.549 166.149 145.684 166.249 145.817 166.35L197.779 196.35Z" fill="#8BC5E4"/>
<path d="M197.159 193.002C199.827 187.962 202.078 183.332 203.75 179.427L151.788 149.427C150.117 153.332 147.865 157.962 145.198 163.002L197.159 193.002Z" fill="#8BC5E4"/>
<path d="M203.75 179.427C205.161 176.152 206.174 173.387 206.72 171.202L154.758 141.202C154.213 143.387 153.2 146.152 151.788 149.427L203.75 179.427Z" fill="#8BC5E4"/>
<path d="M206.72 171.202C206.989 170.107 207.145 169.157 207.136 168.312L155.174 138.312C155.183 139.157 155.027 140.107 154.759 141.202L206.72 171.202Z" fill="#8BC5E4"/>
<path d="M207.136 168.312C207.119 167.54 206.924 166.821 206.451 166.458L154.49 136.458C154.963 136.821 155.158 137.54 155.174 138.312L207.136 168.312Z" fill="#8BC5E4"/>
<path d="M206.444 166.453C206.412 166.429 206.379 166.407 206.345 166.386L154.384 136.386C154.418 136.407 154.451 136.429 154.483 136.453L206.444 166.453Z" fill="#8BC5E4"/>
<path d="M206.339 166.382C206.3 166.359 206.26 166.338 206.219 166.32L154.258 136.32C154.299 136.338 154.339 136.359 154.378 136.382L206.339 166.382Z" fill="#8BC5E4"/>
<path d="M206.219 166.32C205.678 166.079 204.959 166.258 204.278 166.622L152.317 136.622C152.998 136.258 153.717 136.079 154.258 136.32L206.219 166.32Z" fill="#8BC5E4"/>
<path d="M204.269 166.627C203.533 167.022 202.78 167.627 201.957 168.402L149.996 138.402C150.818 137.627 151.572 137.022 152.308 136.627L204.269 166.627Z" fill="#8BC5E4"/>
<path d="M201.957 168.402C200.32 169.937 198.415 172.167 196.25 174.997L144.289 144.997C146.454 142.167 148.359 139.937 149.996 138.402L201.957 168.402Z" fill="#8BC5E4"/>
<path d="M196.25 174.997C193.686 178.347 190.776 182.537 187.719 187.292L135.758 157.292C138.815 152.537 141.725 148.347 144.288 144.997L196.25 174.997Z" fill="#8BC5E4"/>
<path d="M169.126 127.597C169.242 127.719 169.376 127.825 169.529 127.916L117.567 97.9162C117.414 97.8252 117.28 97.7192 117.165 97.5972L169.126 127.597Z" fill="#8BC5E4"/>
<path d="M169.527 127.915C170.523 128.504 172.292 128.413 174.496 127.635L122.535 97.6353C120.331 98.4133 118.562 98.5043 117.566 97.9153L169.527 127.915Z" fill="#8BC5E4"/>
<path d="M169.421 148.467C166.312 150.362 163.506 152.922 161.912 155.302L109.951 125.302C111.544 122.922 114.35 120.362 117.459 118.467L169.421 148.467Z" fill="#8BC5E4"/>
<path d="M137.932 169.127C136.918 168.782 135.394 168.942 133.593 169.552L81.6313 139.552C83.4327 138.942 84.9569 138.782 85.9701 139.127L137.932 169.127Z" fill="#8BC5E4"/>
<path d="M138.694 148.657C142.418 146.327 145.588 143.107 146.765 140.477L94.8038 110.477C93.626 113.107 90.4563 116.327 86.7324 118.657L138.694 148.657Z" fill="#8BC5E4"/>
<path d="M128.925 150.757C129.049 150.894 129.195 151.013 129.362 151.111L77.4002 121.111C77.2332 121.013 77.0872 120.894 76.9639 120.757L128.925 150.757Z" fill="#8BC5E4"/>
<path d="M129.361 151.111C130.453 151.756 132.459 151.582 134.927 150.6L82.9659 120.6C80.4979 121.582 78.4919 121.756 77.3999 121.111L129.361 151.111Z" fill="#8BC5E4"/>
<path d="M129.886 171.282C126.63 173.172 123.608 175.847 121.91 178.357L69.9487 148.357C71.6462 145.847 74.6686 143.172 77.9248 141.282L129.886 171.282Z" fill="#8BC5E4"/>
<path d="M98.0684 192.092C97.1158 191.802 95.7388 191.917 94.0933 192.447L42.1318 162.447C43.7773 161.917 45.1542 161.802 46.1069 162.092L98.0684 192.092Z" fill="#8BC5E4"/>
<path d="M99.2292 171.422C102.875 169.077 105.923 165.927 107.041 163.372L55.0792 133.372C53.962 135.927 50.9136 139.077 47.2676 141.422L99.2292 171.422Z" fill="#8BC5E4"/>
<path d="M179.051 93.0372C179.978 93.3822 181.355 93.2872 183.009 92.7822L131.047 62.7822C129.393 63.2872 128.016 63.3822 127.089 63.0372L179.051 93.0372Z" fill="#8BC5E4"/>
<path d="M177.319 116.097C174.192 118.022 171.395 120.617 169.854 123.007L117.892 93.0072C119.434 90.6172 122.231 88.0222 125.357 86.0972L177.319 116.097Z" fill="#8BC5E4"/>
<path d="M145.986 136.757C144.964 136.367 143.388 136.507 141.491 137.162L89.5298 107.162C91.4264 106.507 93.0025 106.367 94.0245 106.757L145.986 136.757Z" fill="#8BC5E4"/>
<path d="M147.146 114.027C150.394 112.092 153.356 109.392 154.966 106.912L103.005 76.9124C101.394 79.3924 98.4322 82.0924 95.1846 84.0274L147.146 114.027Z" fill="#8BC5E4"/>
<path d="M138.65 116.312C139.716 116.737 141.404 116.562 143.422 115.827L91.4608 85.8271C89.443 86.5621 87.7542 86.7371 86.689 86.3121L138.65 116.312Z" fill="#8BC5E4"/>
<path d="M137.793 138.897C134.468 140.827 131.393 143.582 129.722 146.127L77.7603 116.127C79.4317 113.582 82.5061 110.827 85.8317 108.897L137.793 138.897Z" fill="#8BC5E4"/>
<path d="M106.183 159.697C105.213 159.347 103.758 159.457 102.009 160.027L50.0474 130.027C51.7968 129.457 53.2517 129.347 54.2216 129.697L106.183 159.697Z" fill="#8BC5E4"/>
<path d="M107.681 136.802C110.903 134.852 113.813 132.182 115.389 129.722L63.4274 99.7222C61.8512 102.182 58.9414 104.852 55.7197 106.802L107.681 136.802Z" fill="#8BC5E4"/>
<path d="M146.254 104.252C142.435 106.587 139.136 109.872 137.915 112.567L85.9531 82.5672C87.1742 79.8722 90.4737 76.5872 94.2929 74.2522L146.254 104.252Z" fill="#8BC5E4"/>
<path d="M116.065 125.162C115.944 125.039 115.804 124.933 115.645 124.843L63.6831 94.8433C63.8421 94.9333 63.9821 95.0393 64.1033 95.1623L116.065 125.162Z" fill="#8BC5E4"/>
<path d="M115.644 124.844C114.606 124.259 112.777 124.38 110.512 125.219L58.5508 95.2191C60.8158 94.3801 62.6448 94.2591 63.6828 94.8441L115.644 124.844Z" fill="#8BC5E4"/>
<path d="M106.79 127.037C102.936 129.352 99.5757 132.662 98.3199 135.387L46.3584 105.387C47.6142 102.662 50.9743 99.3524 54.8281 97.0374L106.79 127.037Z" fill="#8BC5E4"/>
<path d="M98.9694 139.182C100.061 139.632 101.827 139.452 103.949 138.647L51.9875 108.647C49.8657 109.452 48.099 109.632 47.0078 109.182L98.9694 139.182Z" fill="#8BC5E4"/>
<path d="M98.3282 161.692C98.2503 161.727 98.1723 161.772 98.0944 161.817L46.1328 131.817C46.2108 131.772 46.2887 131.727 46.3667 131.692L98.3282 161.692Z" fill="#8BC5E4"/>
<path d="M98.0944 161.817C94.7775 163.732 91.7118 166.462 90.023 169.007L38.0615 139.007C39.7502 136.462 42.816 133.732 46.1328 131.817L98.0944 161.817Z" fill="#8BC5E4"/>
<path d="M89.1398 173.687C89.2693 173.837 89.4243 173.964 89.6053 174.069L37.6438 144.069C37.4628 143.964 37.3078 143.837 37.1782 143.687L89.1398 173.687Z" fill="#8BC5E4"/>
<path d="M89.6046 174.069C90.7436 174.732 92.8626 174.511 95.4536 173.431L43.4921 143.431C40.9011 144.511 38.7821 144.732 37.6431 144.069L89.6046 174.069Z" fill="#8BC5E4"/>
<path d="M90.4215 194.077C90.3089 194.132 90.205 194.192 90.0924 194.257L38.1309 164.257C38.2435 164.192 38.3474 164.132 38.46 164.077L90.4215 194.077Z" fill="#8BC5E4"/>
<path d="M90.0928 194.257C86.8624 196.122 83.8573 198.777 82.1427 201.267L30.1812 171.267C31.8959 168.777 34.901 166.122 38.1313 164.257L90.0928 194.257Z" fill="#8BC5E4"/>
<path d="M81.0773 206.052C81.2155 206.233 81.3895 206.384 81.5965 206.506L29.635 176.506C29.428 176.384 29.254 176.233 29.1157 176.052L81.0773 206.052Z" fill="#8BC5E4"/>
<path d="M81.5953 206.505C82.7443 207.183 84.8983 206.957 87.5373 205.841L35.5758 175.841C32.9368 176.957 30.7828 177.183 29.6338 176.505L81.5953 206.505Z" fill="#8BC5E4"/>
<path d="M91.3224 203.807C95.003 201.412 98.0514 198.222 99.0993 195.667L47.1377 165.667C46.0898 168.222 43.0414 171.412 39.3608 173.807L91.3224 203.807Z" fill="#8BC5E4"/>
<path d="M120.923 183.097C121.054 183.262 121.216 183.401 121.406 183.515L69.4448 153.515C69.2548 153.401 69.0928 153.262 68.9614 153.097L120.923 183.097Z" fill="#8BC5E4"/>
<path d="M121.406 183.515C122.497 184.169 124.523 183.993 127.019 182.995L75.0578 152.995C72.5618 153.993 70.5358 154.169 69.4448 153.515L121.406 183.515Z" fill="#8BC5E4"/>
<path d="M130.787 181.042C134.58 178.662 137.776 175.377 138.893 172.732L86.9317 142.732C85.8145 145.377 82.6189 148.662 78.8257 151.042L130.787 181.042Z" fill="#8BC5E4"/>
<path d="M161.003 159.997C161.138 160.159 161.305 160.295 161.501 160.406L109.54 130.406C109.344 130.295 109.177 130.159 109.041 129.997L161.003 159.997Z" fill="#8BC5E4"/>
<path d="M161.501 160.406C162.526 160.987 164.337 160.871 166.581 160.055L114.619 130.055C112.375 130.871 110.564 130.987 109.539 130.406L161.501 160.406Z" fill="#8BC5E4"/>
<path d="M170.304 158.247C174.279 155.872 177.726 152.442 178.921 149.672L126.959 119.672C125.764 122.442 122.317 125.872 118.342 128.247L170.304 158.247Z" fill="#8BC5E4"/>
<path d="M178.037 146.012C176.92 145.627 175.197 145.842 173.144 146.617L121.183 116.617C123.235 115.842 124.959 115.627 126.076 116.012L178.037 146.012Z" fill="#8BC5E4"/>
<path d="M178.211 125.862C182.16 123.542 185.632 120.137 186.905 117.352L134.944 87.3523C133.671 90.1373 130.198 93.5423 126.249 95.8623L178.211 125.862Z" fill="#8BC5E4"/>
<path d="M186.204 113.587C185.078 113.127 183.242 113.347 181.06 114.197L129.098 84.1972C131.281 83.3472 133.116 83.1272 134.242 83.5872L186.204 113.587Z" fill="#8BC5E4"/>
<path d="M186.68 91.1922C186.845 91.1072 187.009 91.0122 187.174 90.9272L135.212 60.9272C135.048 61.0122 134.883 61.1072 134.719 61.1922L186.68 91.1922Z" fill="#8BC5E4"/>
<path d="M187.174 90.9271C190.508 88.9921 193.591 86.2421 195.271 83.6921L143.31 53.6921C141.63 56.2421 138.547 58.9921 135.212 60.9271L187.174 90.9271Z" fill="#8BC5E4"/>
<path d="M196.102 79.0422C195.968 78.8912 195.807 78.7632 195.62 78.6582L143.659 48.6582C143.846 48.7632 144.007 48.8912 144.141 49.0422L196.102 79.0422Z" fill="#8BC5E4"/>
<path d="M195.621 78.6592C194.44 77.9972 192.238 78.2552 189.565 79.4082L137.603 49.4082C140.276 48.2552 142.478 47.9972 143.659 48.6592L195.621 78.6592Z" fill="#8BC5E4"/>
<path d="M185.771 81.4873C182.255 83.8073 179.345 86.8473 178.245 89.3323L126.284 59.3323C127.384 56.8473 130.293 53.8073 133.809 51.4873L185.771 81.4873Z" fill="#8BC5E4"/>
<path d="M155.72 102.317C155.599 102.186 155.457 102.073 155.295 101.978L103.334 71.9783C103.496 72.0733 103.638 72.1863 103.758 72.3173L155.72 102.317Z" fill="#8BC5E4"/>
<path d="M155.295 101.979C154.24 101.358 152.34 101.5 149.986 102.399L98.0249 72.3993C100.379 71.5003 102.279 71.3583 103.334 71.9793L155.295 101.979Z" fill="#8BC5E4"/>
<path d="M214.54 36.9673C216.17 36.0263 217.622 35.9143 218.669 36.5043L166.708 6.50433C165.661 5.91433 164.209 6.02633 162.579 6.96733L214.54 36.9673Z" fill="#8BC5E4"/>
<path d="M218.68 36.5103C219.728 37.1063 220.367 38.4083 220.368 40.2863L168.407 10.2863C168.406 8.40825 167.767 7.10625 166.719 6.51025L218.68 36.5103Z" fill="#8BC5E4"/>
<path d="M220.369 215.862C220.369 219.622 217.814 224.037 214.54 225.927L162.579 195.927C165.852 194.037 168.407 189.622 168.407 185.862L220.369 215.862Z" fill="#8BC5E4"/>
<path d="M62.5875 313.657C60.9504 314.602 59.4934 314.708 58.4454 314.108L6.48389 284.108C7.53189 284.708 8.98889 284.602 10.626 283.657L62.5875 313.657Z" fill="#8BC5E4"/>
<path d="M58.4474 314.109C57.3994 313.51 56.7603 312.205 56.7593 310.328L4.79785 280.328C4.79885 282.205 5.43785 283.51 6.48585 284.109L58.4474 314.109Z" fill="#8BC5E4"/>
<path d="M56.7593 134.752C56.7593 130.992 59.3142 126.587 62.5877 124.697L10.6262 94.6973C7.35255 96.5873 4.79785 100.992 4.79785 104.752L56.7593 134.752Z" fill="#8BC5E4"/>
<path d="M62.5876 119.177C56.742 122.552 51.9615 130.802 51.9615 137.522L0 107.522C0 100.802 4.7804 92.5522 10.6261 89.1772L62.5876 119.177Z" fill="#8BC5E4"/>
<path d="M51.9615 313.092C51.9615 316.459 53.1615 318.826 55.0935 319.927L3.132 289.927C1.2 288.826 0 286.459 0 283.092L51.9615 313.092Z" fill="#8BC5E4"/>
<path d="M55.1026 319.931C57.0246 321.021 59.6696 320.859 62.5796 319.182L10.6181 289.182C7.70811 290.859 5.06311 291.021 3.14111 289.931L55.1026 319.931Z" fill="#8BC5E4"/>
<path d="M214.54 231.447C220.386 228.072 225.166 219.812 225.166 213.092L173.205 183.092C173.205 189.812 168.424 198.072 162.579 201.447L214.54 231.447Z" fill="#8BC5E4"/>
<path d="M225.167 37.5223C225.167 34.1493 223.963 31.7813 222.024 30.6863L170.062 0.686279C172.001 1.78128 173.205 4.14928 173.205 7.52228L225.167 37.5223Z" fill="#8BC5E4"/>
<path d="M222.025 30.6882C220.103 29.6012 217.458 29.7652 214.549 31.4422L162.588 1.44224C165.497 -0.234765 168.142 -0.398765 170.064 0.688235L222.025 30.6882Z" fill="#8BC5E4"/>
<path d="M214.54 36.9673C216.17 36.0263 217.622 35.9143 218.669 36.5043L166.708 6.50433C165.661 5.91433 164.209 6.02633 162.579 6.96733L214.54 36.9673Z" fill="#8BC5E4"/>
<path d="M218.68 36.5103C219.728 37.1063 220.367 38.4083 220.368 40.2863L168.407 10.2863C168.406 8.40825 167.767 7.10625 166.719 6.51025L218.68 36.5103Z" fill="#8BC5E4"/>
<path d="M220.369 215.862C220.369 219.622 217.814 224.037 214.54 225.927L162.579 195.927C165.852 194.037 168.407 189.622 168.407 185.862L220.369 215.862Z" fill="#8BC5E4"/>
<path d="M62.5875 313.657C60.9504 314.602 59.4934 314.708 58.4454 314.108L6.48389 284.108C7.53189 284.708 8.98889 284.602 10.626 283.657L62.5875 313.657Z" fill="#8BC5E4"/>
<path d="M58.4474 314.109C57.3994 313.51 56.7603 312.205 56.7593 310.328L4.79785 280.328C4.79885 282.205 5.43785 283.51 6.48585 284.109L58.4474 314.109Z" fill="#8BC5E4"/>
<path d="M56.7593 134.752C56.7593 130.992 59.3142 126.587 62.5877 124.697L10.6262 94.6973C7.35255 96.5873 4.79785 100.992 4.79785 104.752L56.7593 134.752Z" fill="#8BC5E4"/>
<path d="M187.719 187.292C190.776 182.537 193.686 178.347 196.25 174.997L144.288 144.997C141.725 148.347 138.815 152.537 135.758 157.292L187.719 187.292Z" fill="#8BC5E4"/>
<path d="M196.25 174.997C198.415 172.167 200.32 169.937 201.957 168.402L149.996 138.402C148.359 139.937 146.454 142.167 144.289 144.997L196.25 174.997Z" fill="#8BC5E4"/>
<path d="M201.957 168.402C202.78 167.627 203.533 167.022 204.269 166.627L152.308 136.627C151.572 137.022 150.818 137.627 149.996 138.402L201.957 168.402Z" fill="#8BC5E4"/>
<path d="M204.269 166.627C204.953 166.26 205.675 166.078 206.219 166.32L154.258 136.32C153.714 136.078 152.992 136.26 152.308 136.627L204.269 166.627Z" fill="#8BC5E4"/>
<path d="M206.227 166.323C206.263 166.339 206.298 166.358 206.333 166.378L154.371 136.378C154.336 136.358 154.301 136.339 154.265 136.323L206.227 166.323Z" fill="#8BC5E4"/>
<path d="M206.339 166.382C206.378 166.405 206.415 166.431 206.451 166.458L154.49 136.458C154.454 136.431 154.417 136.405 154.377 136.382L206.339 166.382Z" fill="#8BC5E4"/>
<path d="M206.45 166.458C206.922 166.819 207.117 167.534 207.135 168.302L155.174 138.302C155.156 137.534 154.961 136.819 154.489 136.458L206.45 166.458Z" fill="#8BC5E4"/>
<path d="M207.136 168.312C207.145 169.157 206.989 170.107 206.72 171.202L154.759 141.202C155.027 140.107 155.183 139.157 155.174 138.312L207.136 168.312Z" fill="#8BC5E4"/>
<path d="M206.72 171.202C206.174 173.387 205.161 176.152 203.75 179.427L151.788 149.427C153.2 146.152 154.213 143.387 154.758 141.202L206.72 171.202Z" fill="#8BC5E4"/>
<path d="M203.75 179.427C202.078 183.332 199.827 187.962 197.159 193.002L145.198 163.002C147.865 157.962 150.117 153.332 151.788 149.427L203.75 179.427Z" fill="#8BC5E4"/>
<path d="M197.367 196.042C197.509 196.146 197.649 196.251 197.787 196.356L145.825 166.356C145.687 166.251 145.547 166.146 145.406 166.042L197.367 196.042Z" fill="#8BC5E4"/>
<path d="M197.786 196.356C200.181 198.167 202.206 200.038 203.745 201.851L151.784 171.851C150.245 170.038 148.22 168.167 145.825 166.356L197.786 196.356Z" fill="#8BC5E4"/>
<path d="M203.75 201.857C205.161 203.502 206.174 205.097 206.72 206.652L154.758 176.652C154.213 175.097 153.2 173.502 151.788 171.857L203.75 201.857Z" fill="#8BC5E4"/>
<path d="M206.72 206.652C206.989 207.437 207.153 208.212 207.136 209.062L155.174 179.062C155.192 178.212 155.027 177.437 154.759 176.652L206.72 206.652Z" fill="#8BC5E4"/>
<path d="M207.136 209.062C207.118 209.922 206.893 210.942 206.339 211.912L154.377 181.912C154.932 180.942 155.157 179.922 155.174 179.062L207.136 209.062Z" fill="#8BC5E4"/>
<path d="M206.339 211.912C205.785 212.892 205.005 213.602 204.269 214.057L152.308 184.057C153.044 183.602 153.823 182.892 154.377 181.912L206.339 211.912Z" fill="#8BC5E4"/>
<path d="M204.269 214.057C203.533 214.512 202.78 214.777 201.957 214.962L149.996 184.962C150.818 184.777 151.572 184.512 152.308 184.057L204.269 214.057Z" fill="#8BC5E4"/>
<path d="M201.957 214.962C200.32 215.307 198.415 215.277 196.25 214.947L144.289 184.947C146.454 185.277 148.359 185.307 149.996 184.962L201.957 214.962Z" fill="#8BC5E4"/>
<path d="M196.25 214.947C193.826 214.578 191.093 213.825 188.219 212.709L136.258 182.709C139.132 183.825 141.865 184.578 144.288 184.947L196.25 214.947Z" fill="#8BC5E4"/>
<path d="M188.219 212.709C188.053 212.645 187.886 212.579 187.719 212.512L135.758 182.512C135.925 182.579 136.092 182.645 136.258 182.709L188.219 212.709Z" fill="#8BC5E4"/>
<path d="M184.966 213.862C181.822 218.777 178.826 223.087 176.193 226.527L124.231 196.527C126.864 193.087 129.861 188.777 133.004 183.862L184.966 213.862Z" fill="#8BC5E4"/>
<path d="M176.193 226.527C174.028 229.357 172.122 231.587 170.485 233.132L118.524 203.132C120.161 201.587 122.066 199.357 124.231 196.527L176.193 226.527Z" fill="#8BC5E4"/>
<path d="M170.486 233.132C169.663 233.897 168.91 234.502 168.174 234.897L116.212 204.897C116.948 204.502 117.702 203.897 118.524 203.132L170.486 233.132Z" fill="#8BC5E4"/>
<path d="M168.174 234.897C167.484 235.267 166.762 235.453 166.211 235.199L114.25 205.199C114.801 205.453 115.522 205.267 116.212 204.897L168.174 234.897Z" fill="#8BC5E4"/>
<path d="M166.218 235.202C166.181 235.185 166.145 235.167 166.11 235.146L114.149 205.146C114.184 205.167 114.22 205.185 114.257 205.202L166.218 235.202Z" fill="#8BC5E4"/>
<path d="M166.103 235.142C166.064 235.119 166.027 235.093 165.991 235.066L114.03 205.066C114.066 205.093 114.103 205.119 114.142 205.142L166.103 235.142Z" fill="#8BC5E4"/>
<path d="M165.991 235.066C165.52 234.706 165.324 233.999 165.307 233.222L113.346 203.222C113.363 203.999 113.559 204.706 114.03 205.066L165.991 235.066Z" fill="#8BC5E4"/>
<path d="M165.307 233.212C165.298 232.377 165.454 231.417 165.731 230.317L113.77 200.317C113.493 201.417 113.337 202.377 113.346 203.212L165.307 233.212Z" fill="#8BC5E4"/>
<path d="M165.731 230.317C166.268 228.137 167.281 225.372 168.693 222.097L116.731 192.097C115.32 195.372 114.307 198.137 113.77 200.317L165.731 230.317Z" fill="#8BC5E4"/>
<path d="M168.693 222.097C170.33 218.292 172.495 213.802 175.084 208.907L123.123 178.907C120.533 183.802 118.368 188.292 116.731 192.097L168.693 222.097Z" fill="#8BC5E4"/>
<path d="M175.292 205.627C175.145 205.52 175 205.413 174.857 205.306L122.896 175.306C123.039 175.413 123.184 175.52 123.331 175.627L175.292 205.627Z" fill="#8BC5E4"/>
<path d="M174.857 205.306C172.375 203.452 170.285 201.533 168.697 199.673L116.736 169.673C118.324 171.533 120.414 173.452 122.896 175.306L174.857 205.306Z" fill="#8BC5E4"/>
<path d="M168.693 199.667C167.29 198.017 166.268 196.427 165.731 194.867L113.77 164.867C114.307 166.427 115.328 168.017 116.731 169.667L168.693 199.667Z" fill="#8BC5E4"/>
<path d="M165.731 194.867C165.454 194.087 165.298 193.317 165.315 192.457L113.354 162.457C113.337 163.317 113.492 164.087 113.77 164.867L165.731 194.867Z" fill="#8BC5E4"/>
<path d="M165.316 192.457C165.324 191.612 165.549 190.582 166.104 189.612L114.142 159.612C113.588 160.582 113.363 161.612 113.354 162.457L165.316 192.457Z" fill="#8BC5E4"/>
<path d="M166.104 189.612C166.667 188.637 167.437 187.922 168.173 187.467L116.212 157.467C115.476 157.922 114.705 158.637 114.142 159.612L166.104 189.612Z" fill="#8BC5E4"/>
<path d="M168.174 187.467C168.91 187.012 169.663 186.747 170.486 186.572L118.524 156.572C117.702 156.747 116.948 157.012 116.212 157.467L168.174 187.467Z" fill="#8BC5E4"/>
<path d="M170.485 186.572C172.122 186.217 174.028 186.247 176.193 186.577L124.231 156.577C122.066 156.247 120.161 156.217 118.524 156.572L170.485 186.572Z" fill="#8BC5E4"/>
<path d="M176.193 186.577C178.682 186.955 181.496 187.744 184.452 188.907L132.49 158.907C129.534 157.744 126.72 156.955 124.231 156.577L176.193 186.577Z" fill="#8BC5E4"/>
<path d="M184.461 188.91C184.626 188.975 184.791 189.041 184.957 189.108L132.995 159.108C132.829 159.041 132.664 158.975 132.499 158.91L184.461 188.91Z" fill="#8BC5E4"/>
<path d="M149.978 102.402C152.336 101.5 154.238 101.358 155.295 101.978L103.334 71.9783C102.277 71.3583 100.375 71.5003 98.0166 72.4023L149.978 102.402Z" fill="#8BC5E4"/>
<path d="M155.29 101.974C155.452 102.069 155.594 102.181 155.715 102.311L103.753 72.3114C103.632 72.1814 103.49 72.0694 103.328 71.9744L155.29 101.974Z" fill="#8BC5E4"/>
<path d="M178.245 89.3323C179.345 86.8473 182.255 83.8073 185.771 81.4873L133.809 51.4873C130.293 53.8073 127.384 56.8473 126.284 59.3323L178.245 89.3323Z" fill="#8BC5E4"/>
<path d="M189.556 79.4122C192.233 78.2552 194.438 77.9962 195.621 78.6582L143.659 48.6582C142.476 47.9962 140.271 48.2552 137.594 49.4122L189.556 79.4122Z" fill="#8BC5E4"/>
<path d="M195.613 78.6553C195.801 78.7593 195.963 78.8863 196.097 79.0363L144.136 49.0363C144.002 48.8863 143.84 48.7593 143.652 48.6553L195.613 78.6553Z" fill="#8BC5E4"/>
<path d="M195.271 83.6921C193.591 86.2421 190.508 88.9921 187.174 90.9271L135.212 60.9271C138.547 58.9921 141.63 56.2421 143.31 53.6921L195.271 83.6921Z" fill="#8BC5E4"/>
<path d="M187.174 90.9272C187.009 91.0122 186.845 91.1072 186.68 91.1922L134.719 61.1922C134.883 61.1072 135.048 61.0122 135.212 60.9272L187.174 90.9272Z" fill="#8BC5E4"/>
<path d="M181.06 114.197C183.242 113.347 185.078 113.127 186.204 113.587L134.242 83.5872C133.116 83.1272 131.281 83.3472 129.098 84.1972L181.06 114.197Z" fill="#8BC5E4"/>
<path d="M186.905 117.352C185.632 120.137 182.16 123.542 178.211 125.862L126.249 95.8623C130.198 93.5423 133.671 90.1373 134.944 87.3523L186.905 117.352Z" fill="#8BC5E4"/>
<path d="M173.144 146.617C175.197 145.842 176.92 145.627 178.037 146.012L126.076 116.012C124.959 115.627 123.235 115.842 121.183 116.617L173.144 146.617Z" fill="#8BC5E4"/>
<path d="M178.921 149.672C177.726 152.442 174.279 155.872 170.304 158.247L118.342 128.247C122.317 125.872 125.764 122.442 126.959 119.672L178.921 149.672Z" fill="#8BC5E4"/>
<path d="M166.589 160.052C164.342 160.871 162.528 160.988 161.502 160.406L109.54 130.406C110.566 130.988 112.38 130.871 114.627 130.052L166.589 160.052Z" fill="#8BC5E4"/>
<path d="M161.492 160.401C161.303 160.293 161.14 160.16 161.007 160.003L109.046 130.003C109.179 130.16 109.342 130.293 109.531 130.401L161.492 160.401Z" fill="#8BC5E4"/>
<path d="M138.893 172.732C137.776 175.377 134.58 178.662 130.787 181.042L78.8257 151.042C82.6189 148.662 85.8145 145.377 86.9317 142.732L138.893 172.732Z" fill="#8BC5E4"/>
<path d="M127.028 182.992C124.528 183.993 122.499 184.17 121.406 183.515L69.4448 153.515C70.5378 154.17 72.5668 153.993 75.0669 152.992L127.028 182.992Z" fill="#8BC5E4"/>
<path d="M121.413 183.519C121.222 183.405 121.06 183.267 120.928 183.103L68.9668 153.103C69.0988 153.267 69.2608 153.405 69.4518 153.519L121.413 183.519Z" fill="#8BC5E4"/>
<path d="M99.0993 195.667C98.0514 198.222 95.003 201.412 91.3224 203.807L39.3608 173.807C43.0414 171.412 46.0898 168.222 47.1377 165.667L99.0993 195.667Z" fill="#8BC5E4"/>
<path d="M87.5463 205.837C84.9033 206.956 82.7463 207.184 81.5963 206.506L29.6348 176.506C30.7848 177.184 32.9418 176.956 35.5848 175.837L87.5463 205.837Z" fill="#8BC5E4"/>
<path d="M81.5876 206.5C81.3876 206.381 81.2186 206.234 81.0826 206.059L29.1211 176.059C29.2571 176.234 29.4261 176.381 29.6261 176.5L81.5876 206.5Z" fill="#8BC5E4"/>
<path d="M82.1427 201.267C83.8573 198.777 86.8624 196.122 90.0928 194.257L38.1313 164.257C34.901 166.122 31.8959 168.777 30.1812 171.267L82.1427 201.267Z" fill="#8BC5E4"/>
<path d="M90.0924 194.257C90.205 194.192 90.3089 194.132 90.4215 194.077L38.46 164.077C38.3474 164.132 38.2435 164.192 38.1309 164.257L90.0924 194.257Z" fill="#8BC5E4"/>
<path d="M95.462 173.427C92.8675 174.51 90.7445 174.733 89.6055 174.069L37.644 144.069C38.783 144.733 40.906 144.51 43.5004 143.427L95.462 173.427Z" fill="#8BC5E4"/>
<path d="M89.5966 174.064C89.4226 173.961 89.2716 173.838 89.1456 173.693L37.1841 143.693C37.3101 143.838 37.4611 143.961 37.6351 144.064L89.5966 174.064Z" fill="#8BC5E4"/>
<path d="M90.023 169.007C91.7118 166.462 94.7775 163.732 98.0944 161.817L46.1328 131.817C42.816 133.732 39.7502 136.462 38.0615 139.007L90.023 169.007Z" fill="#8BC5E4"/>
<path d="M98.0944 161.817C98.1723 161.772 98.2503 161.727 98.3282 161.692L46.3667 131.692C46.2887 131.727 46.2108 131.772 46.1328 131.817L98.0944 161.817Z" fill="#8BC5E4"/>
<path d="M103.949 138.647C101.827 139.452 100.061 139.632 98.9694 139.182L47.0078 109.182C48.099 109.632 49.8657 109.452 51.9875 108.647L103.949 138.647Z" fill="#8BC5E4"/>
<path d="M98.3199 135.387C99.5757 132.662 102.936 129.352 106.79 127.037L54.8281 97.0374C50.9743 99.3524 47.6142 102.662 46.3584 105.387L98.3199 135.387Z" fill="#8BC5E4"/>
<path d="M110.505 125.222C112.773 124.381 114.605 124.258 115.645 124.843L63.6832 94.8433C62.6432 94.2583 60.8112 94.3813 58.5435 95.2223L110.505 125.222Z" fill="#8BC5E4"/>
<path d="M115.652 124.848C115.805 124.935 115.941 125.038 116.059 125.157L64.0979 95.1571C63.9799 95.0381 63.8439 94.9351 63.6909 94.8481L115.652 124.848Z" fill="#8BC5E4"/>
<path d="M137.915 112.567C139.136 109.872 142.435 106.587 146.254 104.252L94.2929 74.2522C90.4737 76.5872 87.1742 79.8722 85.9531 82.5672L137.915 112.567Z" fill="#8BC5E4"/>
<path d="M204.183 169.577C204.494 169.407 204.538 169.452 204.538 169.452L152.576 139.452C152.576 139.452 152.533 139.407 152.221 139.577L204.183 169.577Z" fill="#8BC5E4"/>
<path d="M204.539 169.453C204.552 169.459 204.607 169.487 204.616 169.817L152.654 139.817C152.646 139.487 152.59 139.459 152.578 139.453L204.539 169.453Z" fill="#8BC5E4"/>
<path d="M204.616 169.817C204.616 170.177 204.538 170.812 204.321 171.667L152.36 141.667C152.576 140.812 152.654 140.177 152.654 139.817L204.616 169.817Z" fill="#8BC5E4"/>
<path d="M204.321 171.667C203.897 173.382 202.979 175.952 201.645 179.052L149.684 149.052C151.017 145.952 151.935 143.382 152.36 141.667L204.321 171.667Z" fill="#8BC5E4"/>
<path d="M201.645 179.052C199.956 182.987 197.61 187.802 194.786 193.082L142.825 163.082C145.648 157.802 147.995 152.987 149.684 149.052L201.645 179.052Z" fill="#8BC5E4"/>
<path d="M194.786 193.082C194.37 191.622 193.591 190.557 192.548 189.945L140.587 159.945C141.63 160.557 142.409 161.622 142.825 163.082L194.786 193.082Z" fill="#8BC5E4"/>
<path d="M192.551 189.947C191.51 189.335 190.207 189.175 188.741 189.525L136.78 159.525C138.246 159.175 139.549 159.335 140.59 159.947L192.551 189.947Z" fill="#8BC5E4"/>
<path d="M188.733 189.527C191.955 184.467 194.994 180.072 197.601 176.667L145.64 146.667C143.033 150.072 139.993 154.467 136.771 159.527L188.733 189.527Z" fill="#8BC5E4"/>
<path d="M197.601 176.667C199.654 173.982 201.438 171.932 202.719 170.722L150.758 140.722C149.476 141.932 147.692 143.982 145.64 146.667L197.601 176.667Z" fill="#8BC5E4"/>
<path d="M202.719 170.722C203.36 170.122 203.88 169.732 204.183 169.577L152.221 139.577C151.918 139.732 151.399 140.122 150.758 140.722L202.719 170.722Z" fill="#8BC5E4"/>
<path d="M194.778 198.547C194.927 198.654 195.075 198.761 195.221 198.868L143.26 168.868C143.114 168.761 142.966 168.654 142.816 168.547L194.778 198.547Z" fill="#8BC5E4"/>
<path d="M195.221 198.868C197.851 200.791 200.04 202.778 201.64 204.656L149.679 174.656C148.079 172.778 145.89 170.791 143.26 168.868L195.221 198.868Z" fill="#8BC5E4"/>
<path d="M201.645 204.662C202.979 206.232 203.897 207.732 204.321 208.957L152.36 178.957C151.935 177.732 151.017 176.232 149.684 174.662L201.645 204.662Z" fill="#8BC5E4"/>
<path d="M204.321 208.957C204.538 209.562 204.616 210.107 204.616 210.467L152.654 180.467C152.654 180.107 152.576 179.562 152.36 178.957L204.321 208.957Z" fill="#8BC5E4"/>
<path d="M204.616 210.467C204.607 210.822 204.546 210.907 204.546 210.917L152.585 180.917C152.585 180.907 152.646 180.822 152.654 180.467L204.616 210.467Z" fill="#8BC5E4"/>
<path d="M204.546 210.918C204.535 210.937 204.487 211.022 204.183 211.217L152.221 181.217C152.525 181.022 152.574 180.937 152.584 180.918L204.546 210.918Z" fill="#8BC5E4"/>
<path d="M204.183 211.217C203.88 211.402 203.36 211.612 202.719 211.752L150.758 181.752C151.399 181.612 151.918 181.402 152.221 181.217L204.183 211.217Z" fill="#8BC5E4"/>
<path d="M202.719 211.752C201.438 212.022 199.654 212.032 197.601 211.717L145.64 181.717C147.692 182.032 149.476 182.022 150.758 181.752L202.719 211.752Z" fill="#8BC5E4"/>
<path d="M197.601 211.717C195.131 211.352 192.273 210.53 189.241 209.314L137.28 179.314C140.312 180.53 143.17 181.352 145.639 181.717L197.601 211.717Z" fill="#8BC5E4"/>
<path d="M189.245 209.316C189.076 209.248 188.907 209.179 188.737 209.109L136.776 179.109C136.946 179.179 137.115 179.248 137.284 179.316L189.245 209.316Z" fill="#8BC5E4"/>
<path d="M188.733 209.107C191.669 206.412 193.955 202.422 194.778 198.547L142.816 168.547C141.994 172.422 139.707 176.412 136.771 179.107L188.733 209.107Z" fill="#8BC5E4"/>
<path d="M168.26 190.317C168.572 190.117 169.083 189.912 169.723 189.772L117.762 159.772C117.121 159.912 116.61 160.117 116.298 160.317L168.26 190.317Z" fill="#8BC5E4"/>
<path d="M169.724 189.772C171.005 189.502 172.79 189.492 174.842 189.807L122.88 159.807C120.828 159.492 119.044 159.502 117.762 159.772L169.724 189.772Z" fill="#8BC5E4"/>
<path d="M174.842 189.807C177.312 190.181 180.177 190.991 183.211 192.214L131.249 162.214C128.215 160.991 125.35 160.181 122.88 159.807L174.842 189.807Z" fill="#8BC5E4"/>
<path d="M183.211 192.214C183.38 192.282 183.549 192.351 183.719 192.422L131.757 162.422C131.587 162.351 131.418 162.282 131.249 162.214L183.211 192.214Z" fill="#8BC5E4"/>
<path d="M183.719 192.422C180.774 195.112 178.488 199.102 177.665 202.977L125.704 172.977C126.526 169.102 128.813 165.112 131.757 162.422L183.719 192.422Z" fill="#8BC5E4"/>
<path d="M177.665 202.977C177.516 202.87 177.368 202.763 177.222 202.655L125.261 172.655C125.407 172.763 125.555 172.87 125.703 172.977L177.665 202.977Z" fill="#8BC5E4"/>
<path d="M177.222 202.656C174.598 200.728 172.41 198.742 170.802 196.868L118.841 166.868C120.449 168.742 122.637 170.728 125.261 172.656L177.222 202.656Z" fill="#8BC5E4"/>
<path d="M170.798 196.862C169.464 195.302 168.546 193.792 168.122 192.567L116.16 162.567C116.584 163.792 117.502 165.302 118.836 166.862L170.798 196.862Z" fill="#8BC5E4"/>
<path d="M168.121 192.567C167.905 191.962 167.827 191.417 167.836 191.062L115.874 161.062C115.865 161.417 115.943 161.962 116.16 162.567L168.121 192.567Z" fill="#8BC5E4"/>
<path d="M167.836 191.062C167.836 190.717 167.891 190.625 167.904 190.604L115.942 160.604C115.93 160.625 115.874 160.717 115.874 161.062L167.836 191.062Z" fill="#8BC5E4"/>
<path d="M167.905 190.602C167.905 190.602 167.957 190.502 168.26 190.317L116.298 160.317C115.995 160.502 115.943 160.602 115.943 160.602L167.905 190.602Z" fill="#8BC5E4"/>
<path d="M177.665 208.437C178.085 209.928 178.885 211.007 179.957 211.615L127.995 181.615C126.923 181.007 126.123 179.928 125.704 178.437L177.665 208.437Z" fill="#8BC5E4"/>
<path d="M179.965 211.62C180.993 212.199 182.269 212.346 183.701 212.009L131.74 182.009C130.308 182.346 129.032 182.199 128.004 181.62L179.965 211.62Z" fill="#8BC5E4"/>
<path d="M183.71 212.007C180.497 217.052 177.449 221.462 174.842 224.857L122.88 194.857C125.487 191.462 128.536 187.052 131.748 182.007L183.71 212.007Z" fill="#8BC5E4"/>
<path d="M174.842 224.857C172.79 227.542 171.005 229.592 169.724 230.802L117.762 200.802C119.044 199.592 120.828 197.542 122.88 194.857L174.842 224.857Z" fill="#8BC5E4"/>
<path d="M169.723 230.802C169.083 231.402 168.572 231.787 168.26 231.957L116.298 201.957C116.61 201.787 117.121 201.402 117.762 200.802L169.723 230.802Z" fill="#8BC5E4"/>
<path d="M168.26 231.957C167.957 232.112 167.905 232.082 167.905 232.072L115.943 202.072C115.943 202.082 115.995 202.112 116.298 201.957L168.26 231.957Z" fill="#8BC5E4"/>
<path d="M167.905 232.072C167.896 232.067 167.836 232.052 167.836 231.702L115.874 201.702C115.874 202.052 115.935 202.067 115.943 202.072L167.905 232.072Z" fill="#8BC5E4"/>
<path d="M167.836 231.702C167.827 231.347 167.905 230.712 168.121 229.857L116.16 199.857C115.943 200.712 115.865 201.347 115.874 201.702L167.836 231.702Z" fill="#8BC5E4"/>
<path d="M168.122 229.857C168.546 228.142 169.464 225.582 170.798 222.472L118.836 192.472C117.502 195.582 116.584 198.142 116.16 199.857L168.122 229.857Z" fill="#8BC5E4"/>
<path d="M170.797 222.472C172.486 218.537 174.833 213.722 177.665 208.437L125.704 178.437C122.872 183.722 120.525 188.537 118.836 192.472L170.797 222.472Z" fill="#8BC5E4"/>
<path d="M179.051 93.0372C179.978 93.3822 181.355 93.2872 183.009 92.7822L131.047 62.7822C129.393 63.2872 128.016 63.3822 127.089 63.0372L179.051 93.0372Z" fill="#8BC5E4"/>
<path d="M177.319 116.097C174.192 118.022 171.395 120.617 169.854 123.007L117.892 93.0072C119.434 90.6172 122.231 88.0222 125.357 86.0972L177.319 116.097Z" fill="#8BC5E4"/>
<path d="M145.986 136.757C144.964 136.367 143.388 136.507 141.491 137.162L89.5298 107.162C91.4264 106.507 93.0025 106.367 94.0245 106.757L145.986 136.757Z" fill="#8BC5E4"/>
<path d="M147.146 114.027C150.394 112.092 153.356 109.392 154.966 106.912L103.005 76.9124C101.394 79.3924 98.4322 82.0924 95.1846 84.0274L147.146 114.027Z" fill="#8BC5E4"/>
<path d="M169.126 127.597C169.242 127.719 169.376 127.825 169.529 127.916L117.567 97.9162C117.414 97.8252 117.28 97.7192 117.165 97.5972L169.126 127.597Z" fill="#8BC5E4"/>
<path d="M169.527 127.915C170.523 128.504 172.292 128.413 174.496 127.635L122.535 97.6353C120.331 98.4133 118.562 98.5043 117.566 97.9153L169.527 127.915Z" fill="#8BC5E4"/>
<path d="M169.421 148.467C166.312 150.362 163.506 152.922 161.912 155.302L109.951 125.302C111.544 122.922 114.35 120.362 117.459 118.467L169.421 148.467Z" fill="#8BC5E4"/>
<path d="M137.932 169.127C136.918 168.782 135.394 168.942 133.593 169.552L81.6313 139.552C83.4327 138.942 84.9569 138.782 85.9701 139.127L137.932 169.127Z" fill="#8BC5E4"/>
<path d="M138.694 148.657C142.418 146.327 145.588 143.107 146.765 140.477L94.8038 110.477C93.626 113.107 90.4563 116.327 86.7324 118.657L138.694 148.657Z" fill="#8BC5E4"/>
<path d="M138.65 116.312C139.716 116.737 141.404 116.562 143.422 115.827L91.4608 85.8271C89.443 86.5621 87.7542 86.7371 86.689 86.3121L138.65 116.312Z" fill="#8BC5E4"/>
<path d="M137.793 138.897C134.468 140.827 131.393 143.582 129.722 146.127L77.7603 116.127C79.4317 113.582 82.5061 110.827 85.8317 108.897L137.793 138.897Z" fill="#8BC5E4"/>
<path d="M106.183 159.697C105.213 159.347 103.758 159.457 102.009 160.027L50.0474 130.027C51.7968 129.457 53.2517 129.347 54.2216 129.697L106.183 159.697Z" fill="#8BC5E4"/>
<path d="M107.681 136.802C110.903 134.852 113.813 132.182 115.389 129.722L63.4274 99.7222C61.8512 102.182 58.9414 104.852 55.7197 106.802L107.681 136.802Z" fill="#8BC5E4"/>
<path d="M128.925 150.757C129.049 150.894 129.195 151.013 129.362 151.111L77.4002 121.111C77.2332 121.013 77.0872 120.894 76.9639 120.757L128.925 150.757Z" fill="#8BC5E4"/>
<path d="M129.361 151.111C130.453 151.756 132.459 151.582 134.927 150.6L82.9659 120.6C80.4979 121.582 78.4919 121.756 77.3999 121.111L129.361 151.111Z" fill="#8BC5E4"/>
<path d="M129.886 171.282C126.63 173.172 123.608 175.847 121.91 178.357L69.9487 148.357C71.6462 145.847 74.6686 143.172 77.9248 141.282L129.886 171.282Z" fill="#8BC5E4"/>
<path d="M98.0684 192.092C97.1158 191.802 95.7388 191.917 94.0933 192.447L42.1318 162.447C43.7773 161.917 45.1542 161.802 46.1069 162.092L98.0684 192.092Z" fill="#8BC5E4"/>
<path d="M99.2292 171.422C102.875 169.077 105.923 165.927 107.041 163.372L55.0792 133.372C53.962 135.927 50.9136 139.077 47.2676 141.422L99.2292 171.422Z" fill="#8BC5E4"/>
<path d="M177.665 208.437C178.488 211.362 180.774 212.702 183.71 212.007C180.497 217.052 177.448 221.462 174.842 224.857C172.789 227.542 171.005 229.592 169.724 230.802C169.083 231.402 168.572 231.787 168.26 231.957C167.957 232.112 167.905 232.082 167.905 232.072C167.896 232.067 167.836 232.052 167.836 231.702C167.827 231.347 167.905 230.712 168.121 229.857C168.546 228.142 169.464 225.582 170.797 222.472C172.486 218.537 174.833 213.722 177.665 208.437ZM194.778 198.547C197.61 200.572 199.957 202.677 201.645 204.662C202.979 206.232 203.897 207.732 204.321 208.957C204.538 209.562 204.616 210.107 204.616 210.467C204.607 210.822 204.546 210.907 204.546 210.917L204.546 210.918C204.535 210.937 204.487 211.022 204.183 211.217C203.88 211.402 203.36 211.612 202.719 211.752C201.437 212.022 199.653 212.032 197.601 211.717C194.994 211.332 191.954 210.437 188.733 209.107C191.669 206.412 193.955 202.422 194.778 198.547ZM168.26 190.317C168.572 190.117 169.083 189.912 169.724 189.772C171.005 189.502 172.789 189.492 174.842 189.807C177.448 190.202 180.497 191.082 183.719 192.422C180.774 195.112 178.488 199.102 177.665 202.977C174.842 200.947 172.495 198.842 170.797 196.862C169.464 195.302 168.546 193.792 168.121 192.567C167.905 191.962 167.827 191.417 167.836 191.062C167.836 190.717 167.891 190.625 167.904 190.604L167.905 190.602C167.905 190.602 167.957 190.502 168.26 190.317ZM204.183 169.577C204.494 169.407 204.538 169.452 204.538 169.452L204.539 169.453C204.552 169.459 204.607 169.487 204.616 169.817C204.616 170.177 204.538 170.812 204.321 171.667C203.897 173.382 202.979 175.952 201.645 179.052C199.957 182.987 197.61 187.802 194.786 193.082C193.955 190.162 191.669 188.822 188.733 189.527C191.954 184.467 194.994 180.072 197.601 176.667C199.653 173.982 201.437 171.932 202.719 170.722C203.36 170.122 203.88 169.732 204.183 169.577ZM186.308 172.487L181.701 180.217L184.966 178.332V189.112C181.822 187.837 178.825 186.977 176.193 186.577C174.028 186.247 172.122 186.217 170.486 186.572C169.663 186.747 168.91 187.012 168.173 187.467C167.437 187.922 166.666 188.637 166.104 189.612C165.549 190.582 165.324 191.612 165.315 192.457C165.298 193.317 165.454 194.087 165.731 194.867C166.268 196.427 167.29 198.017 168.693 199.667C170.373 201.637 172.616 203.672 175.292 205.627L166.069 210.952V207.202L161.661 215.047L166.069 217.592V214.112L175.084 208.907C172.495 213.802 170.33 218.292 168.693 222.097C167.281 225.372 166.268 228.137 165.731 230.317C165.454 231.417 165.298 232.377 165.307 233.212C165.324 234.052 165.549 234.812 166.104 235.142C166.666 235.477 167.437 235.292 168.173 234.897C168.91 234.502 169.663 233.897 170.486 233.132C172.122 231.587 174.028 229.357 176.193 226.527C178.825 223.087 181.822 218.777 184.966 213.862V224.642L181.701 226.527L186.308 228.937L190.742 221.307L187.72 223.052V212.512C190.777 213.737 193.686 214.557 196.25 214.947C198.415 215.277 200.32 215.307 201.957 214.962C202.78 214.777 203.533 214.512 204.269 214.057C205.005 213.602 205.785 212.892 206.339 211.912C206.893 210.942 207.119 209.922 207.136 209.062C207.153 208.212 206.989 207.437 206.72 206.652C206.175 205.097 205.161 203.502 203.75 201.857C202.122 199.937 199.948 197.952 197.367 196.042L206.374 190.842V194.322L210.782 186.687L206.374 183.932V187.682L197.159 193.002C199.827 187.962 202.078 183.332 203.75 179.427C205.161 176.152 206.175 173.387 206.72 171.202C206.989 170.107 207.145 169.157 207.136 168.312C207.119 167.482 206.893 166.712 206.339 166.382C205.785 166.052 205.005 166.232 204.269 166.627C203.533 167.022 202.78 167.627 201.957 168.402C200.32 169.937 198.415 172.167 196.25 174.997C193.686 178.347 190.777 182.537 187.72 187.292V176.742L190.742 174.997L186.308 172.487ZM146.765 140.477L169.126 127.597C169.992 128.517 171.958 128.532 174.504 127.632L169.42 148.467C166.311 150.362 163.505 152.922 161.912 155.302L137.932 169.127C136.919 168.782 135.394 168.942 133.593 169.552L138.694 148.657C142.418 146.327 145.587 143.107 146.765 140.477ZM107.041 163.372L128.925 150.757C129.852 151.792 132.086 151.732 134.935 150.597L129.886 171.282C126.63 173.172 123.608 175.847 121.91 178.357L98.0686 192.092C97.116 191.802 95.739 191.917 94.0936 192.447L99.2291 171.422C102.875 169.077 105.923 165.927 107.041 163.372ZM154.966 106.912L179.051 93.0373C179.977 93.3823 181.354 93.2873 183.008 92.7823L177.319 116.097C174.192 118.022 171.395 120.617 169.853 123.007L145.986 136.757C144.964 136.367 143.388 136.507 141.491 137.162L147.146 114.027C150.394 112.092 153.356 109.392 154.966 106.912ZM115.389 129.722L138.651 116.312C139.716 116.737 141.405 116.562 143.422 115.827L137.793 138.897C134.468 140.827 131.393 143.582 129.722 146.127L106.183 159.697C105.213 159.347 103.758 159.457 102.009 160.027L107.681 136.802C110.903 134.852 113.813 132.182 115.389 129.722ZM149.952 89.0873L146.254 104.252C142.435 106.587 139.136 109.872 137.914 112.567L116.065 125.162C115.155 124.237 113.12 124.252 110.505 125.222L113.804 111.717L110.358 112.417L106.789 127.037C102.936 129.352 99.5755 132.662 98.3198 135.387L81.311 145.187V149.357L98.9693 139.182C100.06 139.632 101.827 139.452 103.949 138.647L98.3284 161.692C98.2505 161.727 98.1725 161.772 98.0946 161.817C94.7777 163.732 91.712 166.462 90.0232 169.007L75.526 177.357L75.5173 181.532L89.1399 173.687C90.0839 174.782 92.4568 174.682 95.4619 173.427L90.4216 194.077C90.309 194.132 90.2051 194.192 90.0925 194.257C86.8622 196.122 83.8571 198.777 82.1424 201.267L69.8275 208.367V212.537L81.0772 206.052C81.9865 207.237 84.4287 207.157 87.5464 205.837L84.7924 217.107L88.2479 216.412L91.3223 203.807C95.0029 201.412 98.0513 198.222 99.0992 195.667L120.923 183.097C121.806 184.207 124.093 184.167 127.029 182.992L124.396 193.772L127.843 193.072L130.787 181.042C134.58 178.662 137.776 175.377 138.893 172.732L161.003 159.997C161.851 161.007 163.913 161.027 166.589 160.052L163.817 171.402L167.264 170.712L170.304 158.247C174.279 155.872 177.726 152.442 178.921 149.672L192.89 141.627L192.898 137.452L178.037 146.012C176.92 145.627 175.197 145.842 173.144 146.617L178.211 125.862C182.16 123.542 185.632 120.137 186.906 117.352L198.588 110.617L198.597 106.442L186.204 113.587C185.078 113.127 183.242 113.347 181.06 114.197L186.68 91.1923C186.845 91.1073 187.009 91.0123 187.174 90.9273C190.508 88.9923 193.591 86.2423 195.271 83.6923L204.382 78.4423V74.2723L196.103 79.0423C195.124 77.9373 192.656 78.0723 189.556 79.4123L192.82 66.0173L189.374 66.7173L185.771 81.4873C182.255 83.8073 179.345 86.8473 178.245 89.3323L155.72 102.317C154.811 101.332 152.697 101.362 149.978 102.402L153.408 88.3823L149.952 89.0873ZM62.5876 124.697L214.54 36.9673C217.814 35.0773 220.369 36.5323 220.369 40.2923V215.862C220.369 219.622 217.814 224.037 214.54 225.927L62.5876 313.657C59.314 315.547 56.7592 314.082 56.7592 310.322V134.752C56.7592 130.992 59.314 126.587 62.5876 124.697ZM62.5876 119.177C56.7419 122.552 51.9614 130.802 51.9614 137.522V313.092C51.9614 319.812 56.7419 322.552 62.5876 319.177L214.54 231.447C220.386 228.072 225.167 219.812 225.167 213.092V37.5223C225.167 30.8023 220.386 28.0723 214.54 31.4473L62.5876 119.177Z" fill="#8BC5E4"/>
<path fill-rule="evenodd" clip-rule="evenodd" d="M62.5876 124.697L214.54 36.9673C217.814 35.0773 220.369 36.5323 220.369 40.2923V215.862C220.369 219.622 217.814 224.037 214.54 225.927L62.5876 313.657C59.314 315.547 56.7592 314.082 56.7592 310.322V134.752C56.7592 130.992 59.314 126.587 62.5876 124.697ZM181.701 180.217L186.308 172.487L190.742 174.997L187.72 176.742V187.292C190.777 182.537 193.686 178.347 196.25 174.997C198.415 172.167 200.32 169.937 201.957 168.402C202.78 167.627 203.533 167.022 204.269 166.627C205.005 166.232 205.785 166.052 206.339 166.382C206.893 166.712 207.119 167.482 207.136 168.312C207.145 169.157 206.989 170.107 206.72 171.202C206.175 173.387 205.161 176.152 203.75 179.427C202.078 183.332 199.827 187.962 197.159 193.002L206.374 187.682V183.932L210.782 186.687L206.374 194.322V190.842L197.367 196.042C199.948 197.952 202.122 199.937 203.75 201.857C205.161 203.502 206.175 205.097 206.72 206.652C206.989 207.437 207.153 208.212 207.136 209.062C207.119 209.922 206.893 210.942 206.339 211.912C205.785 212.892 205.005 213.602 204.269 214.057C203.533 214.512 202.78 214.777 201.957 214.962C200.32 215.307 198.415 215.277 196.25 214.947C193.686 214.557 190.777 213.737 187.72 212.512V223.052L190.742 221.307L186.308 228.937L181.701 226.527L184.966 224.642V213.862C181.822 218.777 178.825 223.087 176.193 226.527C174.028 229.357 172.122 231.587 170.486 233.132C169.663 233.897 168.91 234.502 168.173 234.897C167.437 235.292 166.666 235.477 166.104 235.142C165.549 234.812 165.324 234.052 165.307 233.212C165.298 232.377 165.454 231.417 165.731 230.317C166.268 228.137 167.281 225.372 168.693 222.097C170.33 218.292 172.495 213.802 175.084 208.907L166.069 214.112V217.592L161.661 215.047L166.069 207.202V210.952L175.292 205.627C172.616 203.672 170.373 201.637 168.693 199.667C167.29 198.017 166.268 196.427 165.731 194.867C165.454 194.087 165.298 193.317 165.315 192.457C165.324 191.612 165.549 190.582 166.104 189.612C166.666 188.637 167.437 187.922 168.173 187.467C168.91 187.012 169.663 186.747 170.486 186.572C172.122 186.217 174.028 186.247 176.193 186.577C178.825 186.977 181.822 187.837 184.966 189.112V178.332L181.701 180.217ZM146.254 104.252L149.952 89.0873L153.408 88.3823L149.978 102.402C152.697 101.362 154.811 101.332 155.72 102.317L178.245 89.3323C179.345 86.8473 182.255 83.8073 185.771 81.4873L189.374 66.7173L192.82 66.0173L189.556 79.4123C192.656 78.0723 195.124 77.9373 196.103 79.0423L204.382 74.2723V78.4423L195.271 83.6923C193.591 86.2423 190.508 88.9923 187.174 90.9273C187.009 91.0123 186.845 91.1073 186.68 91.1923L181.06 114.197C183.242 113.347 185.078 113.127 186.204 113.587L198.597 106.442L198.588 110.617L186.906 117.352C185.632 120.137 182.16 123.542 178.211 125.862L173.144 146.617C175.197 145.842 176.92 145.627 178.037 146.012L192.898 137.452L192.89 141.627L178.921 149.672C177.726 152.442 174.279 155.872 170.304 158.247L167.264 170.712L163.817 171.402L166.589 160.052C163.913 161.027 161.851 161.007 161.003 159.997L138.893 172.732C137.776 175.377 134.58 178.662 130.787 181.042L127.843 193.072L124.396 193.772L127.029 182.992C124.093 184.167 121.806 184.207 120.923 183.097L99.0992 195.667C98.0513 198.222 95.0029 201.412 91.3223 203.807L88.2479 216.412L84.7924 217.107L87.5464 205.837C84.4287 207.157 81.9865 207.237 81.0772 206.052L69.8275 212.537V208.367L82.1424 201.267C83.8571 198.777 86.8622 196.122 90.0925 194.257C90.2051 194.192 90.309 194.132 90.4216 194.077L95.4619 173.427C92.4568 174.682 90.0839 174.782 89.1399 173.687L75.5173 181.532L75.526 177.357L90.0232 169.007C91.712 166.462 94.7777 163.732 98.0946 161.817C98.1725 161.772 98.2505 161.727 98.3284 161.692L103.949 138.647C101.827 139.452 100.06 139.632 98.9693 139.182L81.311 149.357V145.187L98.3198 135.387C99.5755 132.662 102.936 129.352 106.789 127.037L110.358 112.417L113.804 111.717L110.505 125.222C113.12 124.252 115.155 124.237 116.065 125.162L137.914 112.567C139.136 109.872 142.435 106.587 146.254 104.252Z" fill="white"/>
<path d="M204.183 169.577C204.494 169.407 204.538 169.452 204.538 169.452L204.539 169.453C204.552 169.459 204.607 169.487 204.616 169.817C204.616 170.177 204.538 170.812 204.321 171.667C203.897 173.382 202.979 175.952 201.645 179.052C199.957 182.987 197.61 187.802 194.786 193.082C193.955 190.162 191.669 188.822 188.733 189.527C191.954 184.467 194.994 180.072 197.601 176.667C199.653 173.982 201.437 171.932 202.719 170.722C203.36 170.122 203.88 169.732 204.183 169.577Z" fill="white"/>
<path d="M194.778 198.547C197.61 200.572 199.957 202.677 201.645 204.662C202.979 206.232 203.897 207.732 204.321 208.957C204.538 209.562 204.616 210.107 204.616 210.467C204.607 210.822 204.546 210.907 204.546 210.917L204.546 210.918C204.535 210.937 204.487 211.022 204.183 211.217C203.88 211.402 203.36 211.612 202.719 211.752C201.437 212.022 199.653 212.032 197.601 211.717C194.994 211.332 191.954 210.437 188.733 209.107C191.669 206.412 193.955 202.422 194.778 198.547Z" fill="white"/>
<path d="M168.26 190.317C168.572 190.117 169.083 189.912 169.724 189.772C171.005 189.502 172.789 189.492 174.842 189.807C177.448 190.202 180.497 191.082 183.719 192.422C180.774 195.112 178.488 199.102 177.665 202.977C174.842 200.947 172.495 198.842 170.797 196.862C169.464 195.302 168.546 193.792 168.121 192.567C167.905 191.962 167.827 191.417 167.836 191.062C167.836 190.717 167.891 190.625 167.904 190.604L167.905 190.602C167.905 190.602 167.957 190.502 168.26 190.317Z" fill="white"/>
<path d="M177.665 208.437C178.488 211.362 180.774 212.702 183.71 212.007C180.497 217.052 177.448 221.462 174.842 224.857C172.789 227.542 171.005 229.592 169.724 230.802C169.083 231.402 168.572 231.787 168.26 231.957C167.957 232.112 167.905 232.082 167.905 232.072C167.896 232.067 167.836 232.052 167.836 231.702C167.827 231.347 167.905 230.712 168.121 229.857C168.546 228.142 169.464 225.582 170.797 222.472C172.486 218.537 174.833 213.722 177.665 208.437Z" fill="white"/>
<path d="M154.966 106.912L179.051 93.0373C179.977 93.3823 181.354 93.2873 183.008 92.7823L177.319 116.097C174.192 118.022 171.395 120.617 169.853 123.007L145.986 136.757C144.964 136.367 143.388 136.507 141.491 137.162L147.146 114.027C150.394 112.092 153.356 109.392 154.966 106.912Z" fill="white"/>
<path d="M146.765 140.477L169.126 127.597C169.992 128.517 171.958 128.532 174.504 127.632L169.42 148.467C166.311 150.362 163.505 152.922 161.912 155.302L137.932 169.127C136.919 168.782 135.394 168.942 133.593 169.552L138.694 148.657C142.418 146.327 145.587 143.107 146.765 140.477Z" fill="white"/>
<path d="M115.389 129.722L138.651 116.312C139.716 116.737 141.405 116.562 143.422 115.827L137.793 138.897C134.468 140.827 131.393 143.582 129.722 146.127L106.183 159.697C105.213 159.347 103.758 159.457 102.009 160.027L107.681 136.802C110.903 134.852 113.813 132.182 115.389 129.722Z" fill="white"/>
<path d="M107.041 163.372L128.925 150.757C129.852 151.792 132.086 151.732 134.935 150.597L129.886 171.282C126.63 173.172 123.608 175.847 121.91 178.357L98.0686 192.092C97.116 191.802 95.739 191.917 94.0936 192.447L99.2291 171.422C102.875 169.077 105.923 165.927 107.041 163.372Z" fill="white"/>
</svg>
