<svg width="274" height="354" viewBox="0 0 274 354" fill="none" xmlns="http://www.w3.org/2000/svg">
<path d="M189.677 228.28L207.768 238.315L155.807 208.315L137.715 198.28L189.677 228.28Z" fill="#8BC5E4"/>
<path d="M207.768 238.315L214.107 206.195L162.146 176.195L155.807 208.315L207.768 238.315Z" fill="#8BC5E4"/>
<path d="M214.107 206.195L205.161 214.29L153.2 184.29L162.146 176.195L214.107 206.195Z" fill="#8BC5E4"/>
<path d="M205.161 214.29L199.333 193.355L147.372 163.355L153.2 184.29L205.161 214.29Z" fill="#8BC5E4"/>
<path d="M199.333 193.355L192.604 199.44L140.643 169.44L147.372 163.355L199.333 193.355Z" fill="#8BC5E4"/>
<path d="M192.604 199.44L198.441 220.36L146.48 190.36L140.643 169.44L192.604 199.44Z" fill="#8BC5E4"/>
<path d="M198.441 220.36L189.677 228.28L137.715 198.28L146.48 190.36L198.441 220.36Z" fill="#8BC5E4"/>
<path d="M189.677 228.28L137.715 198.28L189.677 228.28Z" fill="#8BC5E4"/>
<path d="M136.053 259.41L117.953 290.34L65.9912 260.34L84.0911 229.41L136.053 259.41Z" fill="#8BC5E4"/>
<path d="M117.953 290.34L111.613 265.54L59.6519 235.54L65.9912 260.34L117.953 290.34Z" fill="#8BC5E4"/>
<path d="M111.613 265.54L120.568 263.28L68.6066 233.28L59.6519 235.54L111.613 265.54Z" fill="#8BC5E4"/>
<path d="M120.568 263.28L126.396 235.635L74.4348 205.635L68.6064 233.28L120.568 263.28Z" fill="#8BC5E4"/>
<path d="M126.397 235.635L133.117 233.945L81.1554 203.945L74.4351 205.635L126.397 235.635Z" fill="#8BC5E4"/>
<path d="M133.117 233.945L127.28 261.605L75.3184 231.605L81.1554 203.945L133.117 233.945Z" fill="#8BC5E4"/>
<path d="M127.28 261.605L136.053 259.41L84.0912 229.41L75.3184 231.605L127.28 261.605Z" fill="#8BC5E4"/>
<path d="M136.052 259.41L84.0908 229.41L136.052 259.41Z" fill="#8BC5E4"/>
<path d="M174.928 237.125L162.232 269.875L110.271 239.875L122.967 207.125L174.928 237.125Z" fill="#8BC5E4"/>
<path d="M162.232 269.875L149.554 251.775L97.5923 221.775L110.271 239.875L162.232 269.875Z" fill="#8BC5E4"/>
<path d="M149.554 251.775L158.846 246.41L106.885 216.41L97.5923 221.775L149.554 251.775Z" fill="#8BC5E4"/>
<path d="M158.846 246.41V221.18L106.885 191.18V216.41L158.846 246.41Z" fill="#8BC5E4"/>
<path d="M158.846 221.18L165.826 217.15L113.865 187.15L106.885 191.18L158.846 221.18Z" fill="#8BC5E4"/>
<path d="M165.826 217.15V242.38L113.865 212.38V187.15L165.826 217.15Z" fill="#8BC5E4"/>
<path d="M165.826 242.38L174.928 237.125L122.967 207.125L113.865 212.38L165.826 242.38Z" fill="#8BC5E4"/>
<path d="M174.928 237.125L122.967 207.125L174.928 237.125Z" fill="#8BC5E4"/>
<path d="M98.5106 280.835L71.4385 315.395L19.4771 285.395L46.549 250.835L98.5106 280.835Z" fill="#8BC5E4"/>
<path d="M71.4385 315.395L71.9841 278.29L20.0227 248.29L19.4771 285.395L71.4385 315.395Z" fill="#8BC5E4"/>
<path d="M71.984 278.29L82.1338 279.27L30.1723 249.27L20.0225 248.29L71.984 278.29Z" fill="#8BC5E4"/>
<path d="M82.1339 279.27L98.3546 237.075L46.3931 207.075L30.1724 249.27L82.1339 279.27Z" fill="#8BC5E4"/>
<path d="M98.3546 237.075L104.408 237.66L52.4466 207.66L46.3931 207.075L98.3546 237.075Z" fill="#8BC5E4"/>
<path d="M104.408 237.66L88.1871 279.845L36.2256 249.845L52.4463 207.66L104.408 237.66Z" fill="#8BC5E4"/>
<path d="M88.1871 279.845L98.5102 280.835L46.5486 250.835L36.2256 249.845L88.1871 279.845Z" fill="#8BC5E4"/>
<path d="M98.5104 280.835L46.5488 250.835L98.5104 280.835Z" fill="#8BC5E4"/>
<path d="M228.475 206.13L255.555 209.435L203.594 179.435L176.513 176.13L228.475 206.13Z" fill="#8BC5E4"/>
<path d="M255.555 209.435L255.01 172.97L203.048 142.97L203.594 179.435L255.555 209.435Z" fill="#8BC5E4"/>
<path d="M255.01 172.97L244.86 185.66L192.898 155.66L203.048 142.97L255.01 172.97Z" fill="#8BC5E4"/>
<path d="M244.86 185.66L228.63 162.2L176.669 132.2L192.898 155.66L244.86 185.66Z" fill="#8BC5E4"/>
<path d="M228.63 162.2L222.586 169.76L170.624 139.76L176.669 132.2L228.63 162.2Z" fill="#8BC5E4"/>
<path d="M222.586 169.76L238.806 193.225L186.845 163.225L170.624 139.76L222.586 169.76Z" fill="#8BC5E4"/>
<path d="M238.806 193.225L228.475 206.13L176.513 176.13L186.845 163.225L238.806 193.225Z" fill="#8BC5E4"/>
<path d="M228.475 206.13L176.513 176.13L228.475 206.13Z" fill="#8BC5E4"/>
<path d="M124.508 164.435L109.145 141.125L57.1836 111.125L72.5469 134.435L124.508 164.435Z" fill="#8BC5E4"/>
<path d="M109.145 141.125L93.877 182.12L41.9155 152.12L57.1835 111.125L109.145 141.125Z" fill="#8BC5E4"/>
<path d="M93.877 182.12L105.603 175.35L53.6415 145.35L41.9155 152.12L93.877 182.12Z" fill="#8BC5E4"/>
<path d="M105.603 175.35V213.24L53.6416 183.24V145.35L105.603 175.35Z" fill="#8BC5E4"/>
<path d="M105.603 213.24L112.592 209.205L60.6304 179.205L53.6416 183.24L105.603 213.24Z" fill="#8BC5E4"/>
<path d="M112.592 209.205V171.315L60.6304 141.315V179.205L112.592 209.205Z" fill="#8BC5E4"/>
<path d="M112.592 171.315L124.508 164.435L72.5469 134.435L60.6304 141.315L112.592 171.315Z" fill="#8BC5E4"/>
<path d="M124.508 164.435L72.5469 134.435L124.508 164.435Z" fill="#8BC5E4"/>
<path d="M162.025 151.865L110.063 121.865L162.025 151.865Z" fill="#8BC5E4"/>
<path d="M162.025 144.565L110.063 114.565L162.025 144.565Z" fill="#8BC5E4"/>
<path d="M228.752 104.23L213.397 80.9048L161.436 50.9048L176.79 74.2298L228.752 104.23Z" fill="#8BC5E4"/>
<path d="M213.397 80.9048L198.121 121.915L146.159 91.9148L161.436 50.9048L213.397 80.9048Z" fill="#8BC5E4"/>
<path d="M198.121 121.915L209.847 115.145L157.885 85.1448L146.159 91.9148L198.121 121.915Z" fill="#8BC5E4"/>
<path d="M209.847 115.145V153.025L157.885 123.025V85.1448L209.847 115.145Z" fill="#8BC5E4"/>
<path d="M209.847 153.025L216.836 148.99L164.874 118.99L157.885 123.025L209.847 153.025Z" fill="#8BC5E4"/>
<path d="M216.836 148.99V111.11L164.874 81.1097V118.99L216.836 148.99Z" fill="#8BC5E4"/>
<path d="M216.836 111.11L228.752 104.23L176.791 74.2297L164.874 81.1097L216.836 111.11Z" fill="#8BC5E4"/>
<path d="M228.752 104.23L176.791 74.2297L228.752 104.23Z" fill="#8BC5E4"/>
<path d="M51.9615 165.58V341.14L0 311.14V135.58L51.9615 165.58Z" fill="#8BC5E4"/>
<path d="M62.4317 347.315L263.194 231.405L211.232 201.405L10.4702 317.315L62.4317 347.315Z" fill="#8BC5E4"/>
<path d="M273.664 213.14V37.5796L221.703 7.57959V183.14L273.664 213.14Z" fill="#8BC5E4"/>
<path d="M263.194 31.4048L62.4317 147.315L10.4702 117.315L211.232 1.40479L263.194 31.4048Z" fill="#8BC5E4"/>
<path d="M62.4317 147.315L10.4702 117.315L62.4317 147.315Z" fill="#8BC5E4"/>
<path d="M62.4317 152.825L263.194 36.9146L211.232 6.91455L10.4702 122.825L62.4317 152.825Z" fill="#8BC5E4"/>
<path d="M268.927 40.3147V215.875L216.965 185.875V10.3147L268.927 40.3147Z" fill="#8BC5E4"/>
<path d="M263.194 225.895L62.4317 341.805L10.4702 311.805L211.232 195.895L263.194 225.895Z" fill="#8BC5E4"/>
<path d="M56.69 338.41V162.85L4.72852 132.85V308.41L56.69 338.41Z" fill="#8BC5E4"/>
<path d="M62.4317 152.825L10.4702 122.825L62.4317 152.825Z" fill="#8BC5E4"/>
<path d="M62.4317 152.825L263.194 36.9146L211.232 6.91455L10.4702 122.825L62.4317 152.825Z" fill="#8BC5E4"/>
<path d="M268.927 40.3147V215.875L216.965 185.875V10.3147L268.927 40.3147Z" fill="#8BC5E4"/>
<path d="M263.194 225.895L62.4317 341.805L10.4702 311.805L211.232 195.895L263.194 225.895Z" fill="#8BC5E4"/>
<path d="M56.69 338.41V162.85L4.72852 132.85V308.41L56.69 338.41Z" fill="#8BC5E4"/>
<path d="M62.4317 152.825L10.4702 122.825L62.4317 152.825Z" fill="#8BC5E4"/>
<path d="M207.768 238.315L189.677 228.28L137.715 198.28L155.807 208.315L207.768 238.315Z" fill="#8BC5E4"/>
<path d="M189.677 228.28L198.441 220.36L146.48 190.36L137.715 198.28L189.677 228.28Z" fill="#8BC5E4"/>
<path d="M198.441 220.36L192.604 199.44L140.643 169.44L146.48 190.36L198.441 220.36Z" fill="#8BC5E4"/>
<path d="M192.604 199.44L199.333 193.355L147.372 163.355L140.643 169.44L192.604 199.44Z" fill="#8BC5E4"/>
<path d="M199.333 193.355L205.161 214.29L153.2 184.29L147.372 163.355L199.333 193.355Z" fill="#8BC5E4"/>
<path d="M205.161 214.29L214.107 206.195L162.146 176.195L153.2 184.29L205.161 214.29Z" fill="#8BC5E4"/>
<path d="M214.107 206.195L207.768 238.315L155.807 208.315L162.146 176.195L214.107 206.195Z" fill="#8BC5E4"/>
<path d="M207.768 238.315L155.807 208.315L207.768 238.315Z" fill="#8BC5E4"/>
<path d="M117.953 290.34L136.053 259.41L84.0911 229.41L65.9912 260.34L117.953 290.34Z" fill="#8BC5E4"/>
<path d="M136.053 259.41L127.28 261.605L75.3184 231.605L84.0912 229.41L136.053 259.41Z" fill="#8BC5E4"/>
<path d="M127.28 261.605L133.117 233.945L81.1554 203.945L75.3184 231.605L127.28 261.605Z" fill="#8BC5E4"/>
<path d="M133.117 233.945L126.397 235.635L74.4351 205.635L81.1554 203.945L133.117 233.945Z" fill="#8BC5E4"/>
<path d="M126.396 235.635L120.568 263.28L68.6064 233.28L74.4348 205.635L126.396 235.635Z" fill="#8BC5E4"/>
<path d="M120.568 263.28L111.613 265.54L59.6519 235.54L68.6066 233.28L120.568 263.28Z" fill="#8BC5E4"/>
<path d="M111.613 265.54L117.953 290.34L65.9912 260.34L59.6519 235.54L111.613 265.54Z" fill="#8BC5E4"/>
<path d="M117.953 290.34L65.9912 260.34L117.953 290.34Z" fill="#8BC5E4"/>
<path d="M162.232 269.875L174.928 237.125L122.967 207.125L110.271 239.875L162.232 269.875Z" fill="#8BC5E4"/>
<path d="M174.928 237.125L165.826 242.38L113.865 212.38L122.967 207.125L174.928 237.125Z" fill="#8BC5E4"/>
<path d="M165.826 242.38V217.15L113.865 187.15V212.38L165.826 242.38Z" fill="#8BC5E4"/>
<path d="M165.826 217.15L158.846 221.18L106.885 191.18L113.865 187.15L165.826 217.15Z" fill="#8BC5E4"/>
<path d="M158.846 221.18V246.41L106.885 216.41V191.18L158.846 221.18Z" fill="#8BC5E4"/>
<path d="M158.846 246.41L149.554 251.775L97.5923 221.775L106.885 216.41L158.846 246.41Z" fill="#8BC5E4"/>
<path d="M149.554 251.775L162.232 269.875L110.271 239.875L97.5923 221.775L149.554 251.775Z" fill="#8BC5E4"/>
<path d="M162.232 269.875L110.271 239.875L162.232 269.875Z" fill="#8BC5E4"/>
<path d="M71.4385 315.395L98.5106 280.835L46.549 250.835L19.4771 285.395L71.4385 315.395Z" fill="#8BC5E4"/>
<path d="M98.5102 280.835L88.1871 279.845L36.2256 249.845L46.5486 250.835L98.5102 280.835Z" fill="#8BC5E4"/>
<path d="M88.1871 279.845L104.408 237.66L52.4463 207.66L36.2256 249.845L88.1871 279.845Z" fill="#8BC5E4"/>
<path d="M104.408 237.66L98.3546 237.075L46.3931 207.075L52.4466 207.66L104.408 237.66Z" fill="#8BC5E4"/>
<path d="M98.3546 237.075L82.1339 279.27L30.1724 249.27L46.3931 207.075L98.3546 237.075Z" fill="#8BC5E4"/>
<path d="M82.1338 279.27L71.984 278.29L20.0225 248.29L30.1723 249.27L82.1338 279.27Z" fill="#8BC5E4"/>
<path d="M71.9841 278.29L71.4385 315.395L19.4771 285.395L20.0227 248.29L71.9841 278.29Z" fill="#8BC5E4"/>
<path d="M71.4385 315.395L19.4771 285.395L71.4385 315.395Z" fill="#8BC5E4"/>
<path d="M255.555 209.435L228.475 206.13L176.513 176.13L203.594 179.435L255.555 209.435Z" fill="#8BC5E4"/>
<path d="M228.475 206.13L238.806 193.225L186.845 163.225L176.513 176.13L228.475 206.13Z" fill="#8BC5E4"/>
<path d="M238.806 193.225L222.586 169.76L170.624 139.76L186.845 163.225L238.806 193.225Z" fill="#8BC5E4"/>
<path d="M222.586 169.76L228.63 162.2L176.669 132.2L170.624 139.76L222.586 169.76Z" fill="#8BC5E4"/>
<path d="M228.63 162.2L244.86 185.66L192.898 155.66L176.669 132.2L228.63 162.2Z" fill="#8BC5E4"/>
<path d="M244.86 185.66L255.01 172.97L203.048 142.97L192.898 155.66L244.86 185.66Z" fill="#8BC5E4"/>
<path d="M255.01 172.97L255.555 209.435L203.594 179.435L203.048 142.97L255.01 172.97Z" fill="#8BC5E4"/>
<path d="M255.555 209.435L203.594 179.435L255.555 209.435Z" fill="#8BC5E4"/>
<path d="M109.145 141.125L124.508 164.435L72.5469 134.435L57.1836 111.125L109.145 141.125Z" fill="#8BC5E4"/>
<path d="M124.508 164.435L112.592 171.315L60.6304 141.315L72.5469 134.435L124.508 164.435Z" fill="#8BC5E4"/>
<path d="M112.592 171.315V209.205L60.6304 179.205V141.315L112.592 171.315Z" fill="#8BC5E4"/>
<path d="M112.592 209.205L105.603 213.24L53.6416 183.24L60.6304 179.205L112.592 209.205Z" fill="#8BC5E4"/>
<path d="M105.603 213.24V175.35L53.6416 145.35V183.24L105.603 213.24Z" fill="#8BC5E4"/>
<path d="M105.603 175.35L93.877 182.12L41.9155 152.12L53.6415 145.35L105.603 175.35Z" fill="#8BC5E4"/>
<path d="M93.877 182.12L109.145 141.125L57.1835 111.125L41.9155 152.12L93.877 182.12Z" fill="#8BC5E4"/>
<path d="M109.145 141.125L57.1836 111.125L109.145 141.125Z" fill="#8BC5E4"/>
<path d="M131.445 197.9L79.4839 167.9L131.445 197.9Z" fill="#8BC5E4"/>
<path d="M213.397 80.9048L228.752 104.23L176.79 74.2298L161.436 50.9048L213.397 80.9048Z" fill="#8BC5E4"/>
<path d="M228.752 104.23L216.836 111.11L164.874 81.1097L176.791 74.2297L228.752 104.23Z" fill="#8BC5E4"/>
<path d="M216.836 111.11V148.99L164.874 118.99V81.1097L216.836 111.11Z" fill="#8BC5E4"/>
<path d="M216.836 148.99L209.847 153.025L157.885 123.025L164.874 118.99L216.836 148.99Z" fill="#8BC5E4"/>
<path d="M209.847 153.025V115.145L157.885 85.1448V123.025L209.847 153.025Z" fill="#8BC5E4"/>
<path d="M209.847 115.145L198.121 121.915L146.159 91.9148L157.885 85.1448L209.847 115.145Z" fill="#8BC5E4"/>
<path d="M198.121 121.915L213.397 80.9048L161.436 50.9048L146.159 91.9148L198.121 121.915Z" fill="#8BC5E4"/>
<path d="M213.397 80.9048L161.436 50.9048L213.397 80.9048Z" fill="#8BC5E4"/>
<path d="M162.025 151.865L110.063 121.865L162.025 151.865Z" fill="#8BC5E4"/>
<path d="M162.025 151.865C168.637 148.047 174.618 147.643 178.994 150.079L127.033 120.079C122.657 117.643 116.676 118.047 110.063 121.865L162.025 151.865Z" fill="#8BC5E4"/>
<path d="M179.006 150.085C183.54 152.615 186.349 158.198 186.351 166.194L134.39 136.194C134.388 128.198 131.579 122.615 127.045 120.085L179.006 150.085Z" fill="#8BC5E4"/>
<path d="M186.351 166.2C186.351 181.92 175.5 200.855 162.025 208.635L110.063 178.635C123.538 170.855 134.39 151.92 134.39 136.2L186.351 166.2Z" fill="#8BC5E4"/>
<path d="M162.025 208.635C155.406 212.457 149.42 212.856 145.042 210.409L93.0801 180.409C97.4581 182.856 103.444 182.457 110.063 178.635L162.025 208.635Z" fill="#8BC5E4"/>
<path d="M145.042 210.41C140.508 207.877 137.699 202.292 137.698 194.296L85.7368 164.296C85.7378 172.292 88.5468 177.877 93.0808 180.41L145.042 210.41Z" fill="#8BC5E4"/>
<path d="M137.698 194.29C137.698 178.57 148.549 159.645 162.025 151.865L110.063 121.865C96.5876 129.645 85.7363 148.57 85.7363 164.29L137.698 194.29Z" fill="#8BC5E4"/>
<path d="M162.025 144.565C145.172 154.295 131.445 178.23 131.445 197.9L79.4839 167.9C79.4839 148.23 93.2104 124.295 110.063 114.565L162.025 144.565Z" fill="#8BC5E4"/>
<path d="M131.445 197.9C131.446 207.912 135.006 214.925 140.726 218.112L88.7641 188.112C83.0441 184.925 79.4841 177.912 79.4839 167.9L131.445 197.9Z" fill="#8BC5E4"/>
<path d="M140.723 218.111C146.234 221.182 153.749 220.701 162.018 215.929L110.057 185.929C101.788 190.701 94.2727 191.182 88.7617 188.111L140.723 218.111Z" fill="#8BC5E4"/>
<path d="M162.025 215.925C178.877 206.195 192.604 182.25 192.604 162.59L140.642 132.59C140.642 152.25 126.916 176.195 110.063 185.925L162.025 215.925Z" fill="#8BC5E4"/>
<path d="M192.604 162.59C192.604 152.582 189.05 145.573 183.34 142.384L131.379 112.384C137.089 115.573 140.643 122.582 140.642 132.59L192.604 162.59Z" fill="#8BC5E4"/>
<path d="M183.325 142.376C177.815 139.306 170.299 139.789 162.03 144.561L110.069 114.561C118.338 109.789 125.854 109.306 131.364 112.376L183.325 142.376Z" fill="#8BC5E4"/>
<path d="M62.4317 147.315C56.6727 150.64 51.9615 158.85 51.9615 165.58L0 135.58C0 128.85 4.7112 120.64 10.4702 117.315L62.4317 147.315Z" fill="#8BC5E4"/>
<path d="M51.9615 341.14C51.9615 344.564 53.1815 346.963 55.1375 348.056L3.176 318.056C1.22 316.963 0 314.564 0 311.14L51.9615 341.14Z" fill="#8BC5E4"/>
<path d="M55.1466 348.061C57.0326 349.109 59.6026 348.946 62.4236 347.32L10.4621 317.32C7.64106 318.946 5.07106 319.109 3.18506 318.061L55.1466 348.061Z" fill="#8BC5E4"/>
<path d="M263.194 231.405C268.944 228.085 273.664 219.87 273.664 213.14L221.702 183.14C221.702 189.87 216.982 198.085 211.232 201.405L263.194 231.405Z" fill="#8BC5E4"/>
<path d="M273.664 37.5798C273.664 34.1558 272.442 31.7578 270.484 30.6658L218.523 0.665771C220.481 1.75777 221.703 4.15577 221.702 7.57977L273.664 37.5798Z" fill="#8BC5E4"/>
<path d="M270.487 30.6677C268.598 29.6127 266.024 29.7727 263.202 31.3997L211.241 1.39971C214.063 -0.227291 216.637 -0.387291 218.526 0.667709L270.487 30.6677Z" fill="#8BC5E4"/>
<path d="M263.194 36.9148C264.775 36.0018 266.188 35.8978 267.216 36.4778L215.255 6.47777C214.227 5.89777 212.814 6.00177 211.232 6.91477L263.194 36.9148Z" fill="#8BC5E4"/>
<path d="M267.215 36.4766C268.275 37.0736 268.925 38.3966 268.926 40.3086L216.965 10.3086C216.964 8.39656 216.314 7.07356 215.254 6.47656L267.215 36.4766Z" fill="#8BC5E4"/>
<path d="M268.927 215.875C268.927 219.645 266.406 224.04 263.194 225.895L211.232 195.895C214.445 194.04 216.965 189.645 216.965 185.875L268.927 215.875Z" fill="#8BC5E4"/>
<path d="M62.4316 341.805C60.8464 342.72 59.4304 342.826 58.4014 342.247L6.43994 312.247C7.46894 312.826 8.88494 312.72 10.4701 311.805L62.4316 341.805Z" fill="#8BC5E4"/>
<path d="M58.4025 342.248C57.3415 341.651 56.6915 340.328 56.6905 338.416L4.729 308.416C4.73 310.328 5.38 311.651 6.441 312.248L58.4025 342.248Z" fill="#8BC5E4"/>
<path d="M56.69 162.85C56.69 159.08 59.2101 154.685 62.4317 152.825L10.4702 122.825C7.24862 124.685 4.72852 129.08 4.72852 132.85L56.69 162.85Z" fill="#8BC5E4"/>
<path d="M263.194 36.9148C264.775 36.0018 266.188 35.8978 267.216 36.4778L215.255 6.47777C214.227 5.89777 212.814 6.00177 211.232 6.91477L263.194 36.9148Z" fill="#8BC5E4"/>
<path d="M267.215 36.4766C268.275 37.0736 268.925 38.3966 268.926 40.3086L216.965 10.3086C216.964 8.39656 216.314 7.07356 215.254 6.47656L267.215 36.4766Z" fill="#8BC5E4"/>
<path d="M268.927 215.875C268.927 219.645 266.406 224.04 263.194 225.895L211.232 195.895C214.445 194.04 216.965 189.645 216.965 185.875L268.927 215.875Z" fill="#8BC5E4"/>
<path d="M62.4316 341.805C60.8464 342.72 59.4304 342.826 58.4014 342.247L6.43994 312.247C7.46894 312.826 8.88494 312.72 10.4701 311.805L62.4316 341.805Z" fill="#8BC5E4"/>
<path d="M58.4025 342.248C57.3415 341.651 56.6915 340.328 56.6905 338.416L4.729 308.416C4.73 310.328 5.38 311.651 6.441 312.248L58.4025 342.248Z" fill="#8BC5E4"/>
<path d="M56.69 162.85C56.69 159.08 59.2101 154.685 62.4317 152.825L10.4702 122.825C7.24862 124.685 4.72852 129.08 4.72852 132.85L56.69 162.85Z" fill="#8BC5E4"/>
<path d="M131.445 197.9C131.445 178.23 145.172 154.295 162.025 144.565L110.063 114.565C93.2104 124.295 79.4839 148.23 79.4839 167.9L131.445 197.9Z" fill="#8BC5E4"/>
<path d="M162.025 144.565C170.302 139.786 177.826 139.305 183.34 142.384L131.379 112.384C125.865 109.305 118.341 109.786 110.063 114.565L162.025 144.565Z" fill="#8BC5E4"/>
<path d="M183.338 142.383C189.048 145.571 192.602 152.578 192.604 162.583L140.643 132.583C140.641 122.578 137.087 115.571 131.377 112.383L183.338 142.383Z" fill="#8BC5E4"/>
<path d="M192.604 162.59C192.604 182.25 178.877 206.195 162.025 215.925L110.063 185.925C126.916 176.195 140.642 152.25 140.642 132.59L192.604 162.59Z" fill="#8BC5E4"/>
<path d="M162.025 215.925C153.755 220.7 146.238 221.182 140.726 218.112L88.7642 188.112C94.2762 191.182 101.793 190.7 110.063 185.925L162.025 215.925Z" fill="#8BC5E4"/>
<path d="M140.711 218.104C135 214.914 131.447 207.907 131.445 197.907L79.4839 167.907C79.4859 177.907 83.0389 184.914 88.7499 188.104L140.711 218.104Z" fill="#8BC5E4"/>
<path d="M162.025 151.865C168.637 148.047 174.618 147.643 178.994 150.079L127.033 120.079C122.657 117.643 116.676 118.047 110.063 121.865L162.025 151.865Z" fill="#8BC5E4"/>
<path d="M179.006 150.085C183.54 152.615 186.349 158.198 186.351 166.194L134.39 136.194C134.388 128.198 131.579 122.615 127.045 120.085L179.006 150.085Z" fill="#8BC5E4"/>
<path d="M186.351 166.2C186.351 181.92 175.5 200.855 162.025 208.635L110.063 178.635C123.538 170.855 134.39 151.92 134.39 136.2L186.351 166.2Z" fill="#8BC5E4"/>
<path d="M162.025 208.635C155.406 212.457 149.42 212.856 145.042 210.409L93.0801 180.409C97.4581 182.856 103.444 182.457 110.063 178.635L162.025 208.635Z" fill="#8BC5E4"/>
<path d="M145.042 210.41C140.508 207.877 137.699 202.292 137.698 194.296L85.7368 164.296C85.7378 172.292 88.5468 177.877 93.0808 180.41L145.042 210.41Z" fill="#8BC5E4"/>
<path d="M137.698 194.29C137.698 178.57 148.549 159.645 162.025 151.865L110.063 121.865C96.5876 129.645 85.7363 148.57 85.7363 164.29L137.698 194.29Z" fill="#8BC5E4"/>
<path d="M189.677 228.28L207.768 238.315L214.107 206.195L205.161 214.29L199.333 193.355L192.604 199.44L198.441 220.36L189.677 228.28ZM136.052 259.41L117.953 290.34L111.613 265.54L120.568 263.28L126.396 235.635L133.117 233.945L127.28 261.605L136.052 259.41ZM174.928 237.125L162.232 269.875L149.554 251.775L158.846 246.41V221.18L165.826 217.15V242.38L174.928 237.125ZM98.5103 280.835L71.4383 315.395L71.9839 278.29L82.1338 279.27L98.3544 237.075L104.408 237.66L88.1873 279.845L98.5103 280.835ZM228.475 206.13L255.555 209.435L255.01 172.97L244.86 185.66L228.631 162.2L222.586 169.76L238.806 193.225L228.475 206.13ZM124.508 164.435L109.145 141.125L93.8771 182.12L105.603 175.35V213.24L112.592 209.205V171.315L124.508 164.435ZM162.025 151.865C175.5 144.085 186.351 150.48 186.351 166.2C186.351 181.92 175.5 200.855 162.025 208.635C148.549 216.415 137.698 210.01 137.698 194.29C137.698 178.57 148.549 159.645 162.025 151.865ZM162.025 144.565C145.172 154.295 131.445 178.23 131.445 197.9C131.445 217.56 145.172 225.655 162.025 215.925C178.877 206.195 192.604 182.25 192.604 162.59C192.604 142.92 178.877 134.835 162.025 144.565ZM228.752 104.23L213.397 80.9049L198.121 121.915L209.847 115.145V153.025L216.835 148.99V111.11L228.752 104.23ZM62.4317 147.315C56.6726 150.64 51.9614 158.85 51.9614 165.58V341.14C51.9614 347.87 56.6726 350.64 62.4317 347.315L263.194 231.405C268.944 228.085 273.664 219.87 273.664 213.14V37.5799C273.664 30.8499 268.944 28.0849 263.194 31.4049L62.4317 147.315ZM62.4317 152.825L263.194 36.9149C266.407 35.0599 268.927 36.5449 268.927 40.3149V215.875C268.927 219.645 266.407 224.04 263.194 225.895L62.4317 341.805C59.2101 343.665 56.6899 342.18 56.6899 338.41V162.85C56.6899 159.08 59.2101 154.685 62.4317 152.825Z" fill="#8BC5E4"/>
<path fill-rule="evenodd" clip-rule="evenodd" d="M62.4317 152.825L263.194 36.9149C266.407 35.0599 268.927 36.5449 268.927 40.3149V215.875C268.927 219.645 266.407 224.04 263.194 225.895L62.4317 341.805C59.2101 343.665 56.6899 342.18 56.6899 338.41V162.85C56.6899 159.08 59.2101 154.685 62.4317 152.825ZM207.768 238.315L189.677 228.28L198.441 220.36L192.604 199.44L199.333 193.355L205.161 214.29L214.107 206.195L207.768 238.315ZM117.953 290.34L136.052 259.41L127.28 261.605L133.117 233.945L126.396 235.635L120.568 263.28L111.613 265.54L117.953 290.34ZM162.232 269.875L174.928 237.125L165.826 242.38V217.15L158.846 221.18V246.41L149.554 251.775L162.232 269.875ZM71.4383 315.395L98.5103 280.835L88.1873 279.845L104.408 237.66L98.3544 237.075L82.1338 279.27L71.9839 278.29L71.4383 315.395ZM255.555 209.435L228.475 206.13L238.806 193.225L222.586 169.76L228.631 162.2L244.86 185.66L255.01 172.97L255.555 209.435ZM109.145 141.125L124.508 164.435L112.592 171.315V209.205L105.603 213.24V175.35L93.8771 182.12L109.145 141.125ZM131.445 197.9C131.445 178.23 145.172 154.295 162.025 144.565C178.877 134.835 192.604 142.92 192.604 162.59C192.604 182.25 178.877 206.195 162.025 215.925C145.172 225.655 131.445 217.56 131.445 197.9ZM213.397 80.9049L228.752 104.23L216.835 111.11V148.99L209.847 153.025V115.145L198.121 121.915L213.397 80.9049Z" fill="white"/>
<path d="M162.025 151.865C175.5 144.085 186.351 150.48 186.351 166.2C186.351 181.92 175.5 200.855 162.025 208.635C148.549 216.415 137.698 210.01 137.698 194.29C137.698 178.57 148.549 159.645 162.025 151.865Z" fill="white"/>
</svg>
