<svg width="274" height="354" viewBox="0 0 274 354" fill="none" xmlns="http://www.w3.org/2000/svg">
<path d="M147.008 134.477L95.0464 104.477L147.008 134.477Z" fill="#8BC5E4"/>
<path d="M147.034 140.652L95.0723 110.652L147.034 140.652Z" fill="#8BC5E4"/>
<path d="M163.324 185.927L153.971 184.927L102.009 154.927L111.362 155.927L163.324 185.927Z" fill="#8BC5E4"/>
<path d="M153.971 184.927V196.397L102.009 166.397V154.927L153.971 184.927Z" fill="#8BC5E4"/>
<path d="M153.97 196.397L137.429 205.947L85.4678 175.947L102.009 166.397L153.97 196.397Z" fill="#8BC5E4"/>
<path d="M137.429 205.947V194.477L85.4678 164.477V175.947L137.429 205.947Z" fill="#8BC5E4"/>
<path d="M137.43 194.477L114.047 223.977L62.0854 193.977L85.4681 164.477L137.43 194.477Z" fill="#8BC5E4"/>
<path d="M114.047 223.977L137.43 226.437L85.4681 196.437L62.0854 193.977L114.047 223.977Z" fill="#8BC5E4"/>
<path d="M137.429 226.437V214.957L85.4678 184.957V196.437L137.429 226.437Z" fill="#8BC5E4"/>
<path d="M137.429 214.957L153.97 205.407L102.009 175.407L85.4678 184.957L137.429 214.957Z" fill="#8BC5E4"/>
<path d="M153.971 205.407V216.887L102.009 186.887V175.407L153.971 205.407Z" fill="#8BC5E4"/>
<path d="M153.971 216.887L163.333 205.092L111.371 175.092L102.009 186.887L153.971 216.887Z" fill="#8BC5E4"/>
<path d="M181.614 161.547L129.653 131.547L181.614 161.547Z" fill="#8BC5E4"/>
<path d="M166.043 201.677L177.353 187.427L125.392 157.427L114.082 171.677L166.043 201.677Z" fill="#8BC5E4"/>
<path d="M177.353 187.427L166.034 186.212L114.073 156.212L125.392 157.427L177.353 187.427Z" fill="#8BC5E4"/>
<path d="M181.614 165.197L129.653 135.197L181.614 165.197Z" fill="#8BC5E4"/>
<path d="M51.9615 165.572V341.142L0 311.142V135.572L51.9615 165.572Z" fill="#8BC5E4"/>
<path d="M62.4229 347.322L263.194 231.407L211.232 201.407L10.4614 317.322L62.4229 347.322Z" fill="#8BC5E4"/>
<path d="M273.664 213.142V37.5724L221.703 7.57239V183.142L273.664 213.142Z" fill="#8BC5E4"/>
<path d="M263.194 31.4073L62.4229 147.322L10.4614 117.322L211.232 1.40735L263.194 31.4073Z" fill="#8BC5E4"/>
<path d="M62.4229 147.322L10.4614 117.322L62.4229 147.322Z" fill="#8BC5E4"/>
<path d="M62.4229 152.842L263.194 36.9274L211.232 6.92737L10.4614 122.842L62.4229 152.842Z" fill="#8BC5E4"/>
<path d="M268.936 40.3024V215.872L216.974 185.872V10.3024L268.936 40.3024Z" fill="#8BC5E4"/>
<path d="M263.194 225.887L62.4229 341.802L10.4614 311.802L211.232 195.887L263.194 225.887Z" fill="#8BC5E4"/>
<path d="M56.69 338.412V162.842L4.72852 132.842V308.412L56.69 338.412Z" fill="#8BC5E4"/>
<path d="M62.4229 152.842L10.4614 122.842L62.4229 152.842Z" fill="#8BC5E4"/>
<path d="M62.4229 152.842L263.194 36.9274L211.232 6.92737L10.4614 122.842L62.4229 152.842Z" fill="#8BC5E4"/>
<path d="M268.936 40.3024V215.872L216.974 185.872V10.3024L268.936 40.3024Z" fill="#8BC5E4"/>
<path d="M263.194 225.887L62.4229 341.802L10.4614 311.802L211.232 195.887L263.194 225.887Z" fill="#8BC5E4"/>
<path d="M56.69 338.412V162.842L4.72852 132.842V308.412L56.69 338.412Z" fill="#8BC5E4"/>
<path d="M62.4229 152.842L10.4614 122.842L62.4229 152.842Z" fill="#8BC5E4"/>
<path d="M229.211 138.707L229.326 138.701L177.365 108.701L177.25 108.707L229.211 138.707Z" fill="#8BC5E4"/>
<path d="M114.194 167.532L114.237 167.457L62.2757 137.457L62.2324 137.532L114.194 167.532Z" fill="#8BC5E4"/>
<path d="M114.237 167.457L62.2759 137.457L114.237 167.457Z" fill="#8BC5E4"/>
<path d="M147.034 140.652L95.0723 110.652L147.034 140.652Z" fill="#8BC5E4"/>
<path d="M163.333 205.092L153.971 216.887L102.009 186.887L111.371 175.092L163.333 205.092Z" fill="#8BC5E4"/>
<path d="M153.971 216.887V205.407L102.009 175.407V186.887L153.971 216.887Z" fill="#8BC5E4"/>
<path d="M153.97 205.407L137.429 214.957L85.4678 184.957L102.009 175.407L153.97 205.407Z" fill="#8BC5E4"/>
<path d="M137.429 214.957V226.437L85.4678 196.437V184.957L137.429 214.957Z" fill="#8BC5E4"/>
<path d="M137.43 226.437L114.047 223.977L62.0854 193.977L85.4681 196.437L137.43 226.437Z" fill="#8BC5E4"/>
<path d="M114.047 223.977L137.43 194.477L85.4681 164.477L62.0854 193.977L114.047 223.977Z" fill="#8BC5E4"/>
<path d="M137.429 194.477V205.947L85.4678 175.947V164.477L137.429 194.477Z" fill="#8BC5E4"/>
<path d="M137.429 205.947L153.97 196.397L102.009 166.397L85.4678 175.947L137.429 205.947Z" fill="#8BC5E4"/>
<path d="M153.971 196.397V184.927L102.009 154.927V166.397L153.971 196.397Z" fill="#8BC5E4"/>
<path d="M153.971 184.927L163.324 185.927L111.362 155.927L102.009 154.927L153.971 184.927Z" fill="#8BC5E4"/>
<path d="M163.324 185.927L111.362 155.927L163.324 185.927Z" fill="#8BC5E4"/>
<path d="M166.043 201.677L177.353 187.427L125.392 157.427L114.082 171.677L166.043 201.677Z" fill="#8BC5E4"/>
<path d="M177.353 187.427L166.034 186.212L114.073 156.212L125.392 157.427L177.353 187.427Z" fill="#8BC5E4"/>
<path d="M181.614 165.197L129.653 135.197L181.614 165.197Z" fill="#8BC5E4"/>
<path d="M147.008 134.477C134.199 141.962 123.409 153.352 114.237 167.457L62.2759 137.457C71.4471 123.352 82.2377 111.962 95.0463 104.477L147.008 134.477Z" fill="#8BC5E4"/>
<path d="M114.237 167.457C114.22 167.487 114.211 167.502 114.194 167.532L62.2324 137.532C62.2497 137.502 62.2583 137.487 62.2757 137.457L114.237 167.457Z" fill="#8BC5E4"/>
<path d="M114.194 167.532C102.07 186.742 97.4971 202.812 95.1588 217.322L43.1973 187.322C45.5356 172.812 50.1082 156.742 62.2326 137.532L114.194 167.532Z" fill="#8BC5E4"/>
<path d="M95.1589 217.322C84.6281 228.072 77.8731 239.842 75.6994 250.827L23.7378 220.827C25.9116 209.842 32.6666 198.072 43.1974 187.322L95.1589 217.322Z" fill="#8BC5E4"/>
<path d="M75.6993 250.827C75.6906 250.892 75.6733 250.972 75.6646 251.047L23.7031 221.047C23.7118 220.972 23.7291 220.892 23.7377 220.827L75.6993 250.827Z" fill="#8BC5E4"/>
<path d="M75.6645 251.047C74.1104 261.551 76.3284 269.587 82.3014 273.118L30.3399 243.118C24.3669 239.587 22.1489 231.551 23.703 221.047L75.6645 251.047Z" fill="#8BC5E4"/>
<path d="M82.3087 273.122C83.8557 274.035 85.6537 274.647 87.7037 274.921L35.7422 244.921C33.6922 244.647 31.8942 244.035 30.3472 243.122L82.3087 273.122Z" fill="#8BC5E4"/>
<path d="M87.711 274.922C87.815 274.932 87.9189 274.942 88.0315 274.927L36.0699 244.927C35.9574 244.942 35.8534 244.932 35.7495 244.922L87.711 274.922Z" fill="#8BC5E4"/>
<path d="M88.0314 274.927C95.9728 274.392 102.633 271.747 111.882 266.747L59.9202 236.747C50.671 241.747 44.0113 244.392 36.0698 244.927L88.0314 274.927Z" fill="#8BC5E4"/>
<path d="M111.882 266.747C112.17 266.91 112.459 267.068 112.747 267.219L60.7851 237.219C60.4971 237.068 60.2081 236.91 59.9204 236.747L111.882 266.747Z" fill="#8BC5E4"/>
<path d="M112.747 267.219C117.006 269.455 121.411 270.428 127.773 269.948L75.8112 239.948C69.4492 240.428 65.0442 239.455 60.7852 237.219L112.747 267.219Z" fill="#8BC5E4"/>
<path d="M127.782 269.947C127.791 269.952 127.808 269.952 127.817 269.947L75.8549 239.947C75.8463 239.952 75.829 239.952 75.8203 239.947L127.782 269.947Z" fill="#8BC5E4"/>
<path d="M127.817 269.947C140.409 268.777 153.693 260.937 166.069 248.202L114.107 218.202C101.732 230.937 88.447 238.777 75.855 239.947L127.817 269.947Z" fill="#8BC5E4"/>
<path d="M166.069 248.202C173.04 241.557 179.319 232.042 185.061 222.457L133.099 192.457C127.358 202.042 121.079 211.557 114.107 218.202L166.069 248.202Z" fill="#8BC5E4"/>
<path d="M185.061 222.457C199.758 215.922 215.06 208.717 227.245 198.692L175.284 168.692C163.099 178.717 147.796 185.922 133.1 192.457L185.061 222.457Z" fill="#8BC5E4"/>
<path d="M227.245 198.692C227.271 198.667 227.306 198.637 227.34 198.607L175.379 168.607C175.344 168.637 175.31 168.667 175.284 168.692L227.245 198.692Z" fill="#8BC5E4"/>
<path d="M227.34 198.607C234.961 191.997 241.448 184.342 245.752 176.067L193.791 146.067C189.486 154.342 183 161.997 175.379 168.607L227.34 198.607Z" fill="#8BC5E4"/>
<path d="M245.752 176.067C250.065 167.787 251.979 158.912 250.446 151.127L198.484 121.127C200.017 128.912 198.103 137.787 193.791 146.067L245.752 176.067Z" fill="#8BC5E4"/>
<path d="M250.446 151.127C250.446 151.107 250.437 151.082 250.428 151.057L198.467 121.057C198.475 121.082 198.484 121.107 198.484 121.127L250.446 151.127Z" fill="#8BC5E4"/>
<path d="M250.428 151.057C249.204 145.621 246.727 142.387 243.654 140.601L191.693 110.601C194.766 112.387 197.243 115.621 198.467 121.057L250.428 151.057Z" fill="#8BC5E4"/>
<path d="M243.659 140.604C242.95 140.192 242.209 139.856 241.445 139.589L189.484 109.589C190.248 109.856 190.989 110.192 191.698 110.604L243.659 140.604Z" fill="#8BC5E4"/>
<path d="M241.439 139.587C237.673 138.265 233.405 138.488 229.326 138.701L177.365 108.701C181.444 108.488 185.711 108.265 189.478 109.587L241.439 139.587Z" fill="#8BC5E4"/>
<path d="M229.326 138.701C229.288 138.703 229.249 138.705 229.211 138.707L177.25 108.707C177.288 108.705 177.326 108.703 177.365 108.701L229.326 138.701Z" fill="#8BC5E4"/>
<path d="M229.211 138.707C227.356 134.358 224.085 130.858 220.631 128.883L168.67 98.8833C172.124 100.858 175.395 104.358 177.249 108.707L229.211 138.707Z" fill="#8BC5E4"/>
<path d="M220.637 128.886C219.351 128.15 218.039 127.626 216.765 127.348L164.803 97.3484C166.077 97.6264 167.389 98.1504 168.675 98.8864L220.637 128.886Z" fill="#8BC5E4"/>
<path d="M216.757 127.347C216.742 127.347 216.727 127.347 216.712 127.34L164.751 97.3403C164.766 97.3473 164.781 97.3473 164.796 97.3473L216.757 127.347Z" fill="#8BC5E4"/>
<path d="M216.757 127.347C216.742 127.347 216.727 127.347 216.712 127.34L164.751 97.3403C164.766 97.3473 164.781 97.3473 164.796 97.3473L216.757 127.347Z" fill="#8BC5E4"/>
<path d="M216.705 127.337C208.383 125.872 199.662 130.577 191.859 137.492L139.897 107.492C147.7 100.577 156.421 95.8724 164.744 97.3374L216.705 127.337Z" fill="#8BC5E4"/>
<path d="M191.859 137.492C189.691 134.542 187.072 132.098 183.961 130.31L132 100.31C135.111 102.098 137.73 104.542 139.898 107.492L191.859 137.492Z" fill="#8BC5E4"/>
<path d="M183.964 130.311C178.065 126.921 170.401 125.895 160.706 128.271L108.744 98.2714C118.439 95.8954 126.103 96.9214 132.002 100.311L183.964 130.311Z" fill="#8BC5E4"/>
<path d="M160.699 128.272C160.639 128.287 160.569 128.307 160.509 128.332L108.547 98.3323C108.608 98.3073 108.677 98.2873 108.738 98.2723L160.699 128.272Z" fill="#8BC5E4"/>
<path d="M160.509 128.332C155.772 129.917 151.277 131.972 147.008 134.477L95.0464 104.477C99.3159 101.972 103.81 99.9174 108.548 98.3324L160.509 128.332Z" fill="#8BC5E4"/>
<path d="M147.034 140.652C150.87 138.437 154.958 136.587 159.331 135.112L107.37 105.112C102.996 106.587 98.9088 108.437 95.0723 110.652L147.034 140.652Z" fill="#8BC5E4"/>
<path d="M159.331 135.112C168.227 132.952 175.092 133.851 180.349 136.906L128.388 106.906C123.131 103.851 116.266 102.952 107.37 105.112L159.331 135.112Z" fill="#8BC5E4"/>
<path d="M180.357 136.911C183.539 138.762 186.13 141.402 188.226 144.631L136.265 114.631C134.169 111.402 131.578 108.762 128.396 106.911L180.357 136.911Z" fill="#8BC5E4"/>
<path d="M188.231 144.637C188.36 144.841 188.522 144.994 188.708 145.098L136.747 115.098C136.561 114.994 136.399 114.841 136.269 114.637L188.231 144.637Z" fill="#8BC5E4"/>
<path d="M188.708 145.097C189.404 145.487 190.44 145.191 191.402 144.269L139.44 114.269C138.478 115.191 137.442 115.487 136.746 115.097L188.708 145.097Z" fill="#8BC5E4"/>
<path d="M191.409 144.262C198.623 137.347 206.114 132.942 213.77 134.272L161.808 104.272C154.152 102.942 146.661 107.347 139.447 114.262L191.409 144.262Z" fill="#8BC5E4"/>
<path d="M213.77 134.272C214.588 134.452 215.521 134.847 216.492 135.409L164.531 105.409C163.56 104.847 162.627 104.452 161.808 104.272L213.77 134.272Z" fill="#8BC5E4"/>
<path d="M216.49 135.409C219.694 137.264 223.316 140.938 224.661 144.705L172.7 114.705C171.355 110.938 167.733 107.264 164.529 105.409L216.49 135.409Z" fill="#8BC5E4"/>
<path d="M224.664 144.712C224.8 145.089 225.024 145.371 225.314 145.538L173.353 115.538C173.063 115.371 172.839 115.089 172.703 114.712L224.664 144.712Z" fill="#8BC5E4"/>
<path d="M225.312 145.536C225.536 145.666 225.8 145.728 226.094 145.712L174.132 115.712C173.838 115.728 173.574 115.666 173.35 115.536L225.312 145.536Z" fill="#8BC5E4"/>
<path d="M226.102 145.712C230.51 145.467 234.762 145.232 238.105 146.412L186.144 116.412C182.801 115.232 178.549 115.467 174.141 115.712L226.102 145.712Z" fill="#8BC5E4"/>
<path d="M238.105 146.412C238.763 146.642 239.389 146.92 239.979 147.26L188.017 117.26C187.427 116.92 186.801 116.642 186.144 116.412L238.105 146.412Z" fill="#8BC5E4"/>
<path d="M239.978 147.259C242.379 148.642 244.195 151.055 245.196 155.449L193.234 125.449C192.233 121.055 190.417 118.642 188.016 117.259L239.978 147.259Z" fill="#8BC5E4"/>
<path d="M245.198 155.457C246.436 161.752 245.033 167.912 241.708 174.302L189.746 144.302C193.072 137.912 194.475 131.752 193.236 125.457L245.198 155.457Z" fill="#8BC5E4"/>
<path d="M241.708 174.302C238.391 180.667 232.935 187.297 226.102 193.232L174.141 163.232C180.974 157.297 186.43 150.667 189.746 144.302L241.708 174.302Z" fill="#8BC5E4"/>
<path d="M226.102 193.232C214.921 202.427 199.428 209.802 184.455 216.437L132.493 186.437C147.467 179.802 162.96 172.427 174.14 163.232L226.102 193.232Z" fill="#8BC5E4"/>
<path d="M184.455 216.437C183.667 216.792 182.87 217.562 182.298 218.532L130.337 188.532C130.909 187.562 131.705 186.792 132.493 186.437L184.455 216.437Z" fill="#8BC5E4"/>
<path d="M182.298 218.532C176.522 228.277 170.312 237.602 164.424 243.202L112.462 213.202C118.351 207.602 124.56 198.277 130.337 188.532L182.298 218.532Z" fill="#8BC5E4"/>
<path d="M164.424 243.202C164.372 243.252 164.32 243.302 164.268 243.362L112.306 213.362C112.358 213.302 112.41 213.252 112.462 213.202L164.424 243.202Z" fill="#8BC5E4"/>
<path d="M164.268 243.362C153.01 254.982 141.258 261.927 129.878 262.987L77.9165 232.987C89.2961 231.927 101.048 224.982 112.306 213.362L164.268 243.362Z" fill="#8BC5E4"/>
<path d="M129.878 262.987C123.597 263.457 119.846 262.563 115.71 260.214L63.748 230.214C67.884 232.563 71.635 233.457 77.9163 232.987L129.878 262.987Z" fill="#8BC5E4"/>
<path d="M115.716 260.218C115.449 260.067 115.181 259.909 114.911 259.746L62.9492 229.746C63.2192 229.909 63.4872 230.067 63.7542 230.218L115.716 260.218Z" fill="#8BC5E4"/>
<path d="M114.904 259.742C114.874 259.724 114.842 259.706 114.81 259.691L62.8481 229.691C62.8801 229.706 62.9121 229.724 62.9428 229.742L114.904 259.742Z" fill="#8BC5E4"/>
<path d="M114.81 259.691C114.33 259.455 113.714 259.521 113.067 259.873L61.106 229.873C61.753 229.521 62.369 229.455 62.849 229.691L114.81 259.691Z" fill="#8BC5E4"/>
<path d="M113.06 259.877C103.577 265.082 97.8957 267.392 90.3526 267.937L38.3911 237.937C45.9342 237.392 51.6153 235.082 61.0983 229.877L113.06 259.877Z" fill="#8BC5E4"/>
<path d="M90.3524 267.937C88.6135 267.688 87.1185 267.194 85.8575 266.469L33.896 236.469C35.157 237.194 36.652 237.688 38.3909 237.937L90.3524 267.937Z" fill="#8BC5E4"/>
<path d="M85.8575 266.469C81.1405 263.757 79.6875 257.803 80.9285 249.285L28.967 219.285C27.726 227.803 29.179 233.757 33.896 236.469L85.8575 266.469Z" fill="#8BC5E4"/>
<path d="M80.9299 249.277C82.7225 240.342 88.1092 230.632 98.311 220.672L46.3495 190.672C36.1477 200.632 30.761 210.342 28.9683 219.277L80.9299 249.277Z" fill="#8BC5E4"/>
<path d="M98.3111 220.672C99.2204 219.777 99.8872 218.492 100.069 217.287L48.1076 187.287C47.9257 188.492 47.2589 189.777 46.3496 190.672L98.3111 220.672Z" fill="#8BC5E4"/>
<path d="M100.069 217.287C102.209 203.082 106.045 188.717 117.676 170.282L65.7142 140.282C54.0835 158.717 50.247 173.082 48.1079 187.287L100.069 217.287Z" fill="#8BC5E4"/>
<path d="M117.675 170.282C126.067 157.377 135.438 147.347 147.034 140.652L95.0721 110.652C83.4761 117.347 74.1057 127.377 65.7139 140.282L117.675 170.282Z" fill="#8BC5E4"/>
<path d="M181.614 161.547C173.482 166.242 166.468 175.972 163.324 185.927L111.362 155.927C114.506 145.972 121.521 136.242 129.653 131.547L181.614 161.547Z" fill="#8BC5E4"/>
<path d="M163.332 205.092C164.357 207.152 165.794 208.712 167.548 209.717L115.587 179.717C113.833 178.712 112.396 177.152 111.371 175.092L163.332 205.092Z" fill="#8BC5E4"/>
<path d="M167.547 209.716C171.167 211.791 176.136 211.498 181.608 208.34L129.647 178.34C124.175 181.498 119.206 181.791 115.586 179.716L167.547 209.716Z" fill="#8BC5E4"/>
<path d="M181.614 208.337C192.674 201.952 201.663 186.262 201.663 173.372L149.701 143.372C149.701 156.262 140.712 171.952 129.653 178.337L181.614 208.337Z" fill="#8BC5E4"/>
<path d="M201.663 173.372C201.662 166.809 199.335 162.21 195.592 160.117L143.631 130.117C147.374 132.21 149.701 136.809 149.701 143.372L201.663 173.372Z" fill="#8BC5E4"/>
<path d="M195.596 160.119C191.984 158.097 187.053 158.41 181.623 161.542L129.661 131.542C135.091 128.41 140.022 128.097 143.634 130.119L195.596 160.119Z" fill="#8BC5E4"/>
<path d="M181.614 165.197C186.213 162.542 190.377 162.266 193.424 163.968L141.462 133.968C138.415 132.266 134.251 132.542 129.653 135.197L181.614 165.197Z" fill="#8BC5E4"/>
<path d="M193.421 163.967C196.576 165.728 198.534 169.611 198.536 175.169L146.575 145.169C146.573 139.611 144.615 135.728 141.46 133.967L193.421 163.967Z" fill="#8BC5E4"/>
<path d="M198.537 175.177C198.537 186.097 190.976 199.282 181.614 204.687L129.653 174.687C139.015 169.282 146.575 156.097 146.575 145.177L198.537 175.177Z" fill="#8BC5E4"/>
<path d="M181.614 204.687C176.962 207.373 172.756 207.623 169.703 205.855L117.741 175.855C120.794 177.623 125 177.373 129.653 174.687L181.614 204.687Z" fill="#8BC5E4"/>
<path d="M169.692 205.849C168.154 204.956 166.908 203.55 166.046 201.685L114.085 171.685C114.947 173.55 116.193 174.956 117.731 175.849L169.692 205.849Z" fill="#8BC5E4"/>
<path d="M166.034 186.212C168.598 177.662 174.599 169.247 181.614 165.197L129.653 135.197C122.638 139.247 116.636 147.662 114.073 156.212L166.034 186.212Z" fill="#8BC5E4"/>
<path d="M62.4231 147.322C56.6727 150.642 51.9615 158.852 51.9615 165.572L0 135.572C0 128.852 4.7112 120.642 10.4616 117.322L62.4231 147.322Z" fill="#8BC5E4"/>
<path d="M51.9615 341.142C51.9615 344.561 53.1815 346.96 55.1365 348.055L3.175 318.055C1.22 316.96 0 314.561 0 311.142L51.9615 341.142Z" fill="#8BC5E4"/>
<path d="M55.1334 348.053C57.0204 349.111 59.5924 348.954 62.4144 347.327L10.4529 317.327C7.63088 318.954 5.05887 319.111 3.17188 318.053L55.1334 348.053Z" fill="#8BC5E4"/>
<path d="M263.194 231.407C268.953 228.082 273.664 219.862 273.664 213.142L221.703 183.142C221.703 189.862 216.992 198.082 211.232 201.407L263.194 231.407Z" fill="#8BC5E4"/>
<path d="M273.664 37.5723C273.665 34.2323 272.5 31.8673 270.622 30.7423L218.66 0.74231C220.538 1.86731 221.703 4.23231 221.703 7.57231L273.664 37.5723Z" fill="#8BC5E4"/>
<path d="M270.614 30.7373C268.716 29.6063 266.092 29.7373 263.203 31.4023L211.241 1.40234C214.13 -0.262656 216.754 -0.393656 218.652 0.737344L270.614 30.7373Z" fill="#8BC5E4"/>
<path d="M263.194 36.9273C264.818 35.9903 266.263 35.8993 267.297 36.5213L215.335 6.5213C214.301 5.8993 212.856 5.9903 211.232 6.9273L263.194 36.9273Z" fill="#8BC5E4"/>
<path d="M267.295 36.5214C268.313 37.1324 268.934 38.4334 268.935 40.2964L216.974 10.2964C216.973 8.43336 216.352 7.13236 215.334 6.52136L267.295 36.5214Z" fill="#8BC5E4"/>
<path d="M268.936 215.872C268.936 219.632 266.416 224.027 263.194 225.887L211.232 195.887C214.454 194.027 216.974 189.632 216.974 185.872L268.936 215.872Z" fill="#8BC5E4"/>
<path d="M62.4231 341.802C60.8415 342.715 59.4285 342.819 58.4005 342.241L6.43896 312.241C7.46696 312.819 8.87997 312.715 10.4616 311.802L62.4231 341.802Z" fill="#8BC5E4"/>
<path d="M58.4015 342.241C57.3415 341.646 56.6915 340.325 56.6905 338.418L4.729 308.418C4.73 310.325 5.38 311.646 6.44 312.241L58.4015 342.241Z" fill="#8BC5E4"/>
<path d="M56.69 162.842C56.69 159.082 59.2101 154.697 62.4231 152.842L10.4616 122.842C7.24862 124.697 4.72852 129.082 4.72852 132.842L56.69 162.842Z" fill="#8BC5E4"/>
<path d="M263.194 36.9273C264.818 35.9903 266.263 35.8993 267.297 36.5213L215.335 6.5213C214.301 5.8993 212.856 5.9903 211.232 6.9273L263.194 36.9273Z" fill="#8BC5E4"/>
<path d="M267.295 36.5214C268.313 37.1324 268.934 38.4334 268.935 40.2964L216.974 10.2964C216.973 8.43336 216.352 7.13236 215.334 6.52136L267.295 36.5214Z" fill="#8BC5E4"/>
<path d="M268.936 215.872C268.936 219.632 266.416 224.027 263.194 225.887L211.232 195.887C214.454 194.027 216.974 189.632 216.974 185.872L268.936 215.872Z" fill="#8BC5E4"/>
<path d="M62.4231 341.802C60.8415 342.715 59.4285 342.819 58.4005 342.241L6.43896 312.241C7.46696 312.819 8.87997 312.715 10.4616 311.802L62.4231 341.802Z" fill="#8BC5E4"/>
<path d="M58.4015 342.241C57.3415 341.646 56.6915 340.325 56.6905 338.418L4.729 308.418C4.73 310.325 5.38 311.646 6.44 312.241L58.4015 342.241Z" fill="#8BC5E4"/>
<path d="M56.69 162.842C56.69 159.082 59.2101 154.697 62.4231 152.842L10.4616 122.842C7.24862 124.697 4.72852 129.082 4.72852 132.842L56.69 162.842Z" fill="#8BC5E4"/>
<path d="M114.237 167.457C123.409 153.352 134.199 141.962 147.008 134.477L95.0463 104.477C82.2377 111.962 71.4471 123.352 62.2759 137.457L114.237 167.457Z" fill="#8BC5E4"/>
<path d="M147.008 134.477C151.277 131.972 155.772 129.917 160.509 128.332L108.548 98.3324C103.81 99.9174 99.3159 101.972 95.0464 104.477L147.008 134.477Z" fill="#8BC5E4"/>
<path d="M160.509 128.332C160.569 128.307 160.639 128.287 160.699 128.272L108.738 98.2723C108.677 98.2873 108.608 98.3073 108.547 98.3323L160.509 128.332Z" fill="#8BC5E4"/>
<path d="M160.7 128.272C170.397 125.895 178.063 126.92 183.962 130.31L132 100.31C126.101 96.9203 118.435 95.8953 108.738 98.2723L160.7 128.272Z" fill="#8BC5E4"/>
<path d="M183.958 130.308C187.068 132.094 189.687 134.538 191.855 137.486L139.893 107.486C137.725 104.538 135.106 102.094 131.996 100.308L183.958 130.308Z" fill="#8BC5E4"/>
<path d="M191.859 137.492C199.662 130.577 208.383 125.872 216.705 127.337L164.744 97.3374C156.421 95.8724 147.7 100.577 139.897 107.492L191.859 137.492Z" fill="#8BC5E4"/>
<path d="M216.706 127.337C216.708 127.338 216.71 127.339 216.713 127.34L164.751 97.3404C164.748 97.3394 164.746 97.3384 164.744 97.3374L216.706 127.337Z" fill="#8BC5E4"/>
<path d="M216.716 127.342C216.728 127.346 216.739 127.347 216.75 127.347L164.789 97.3473C164.778 97.3473 164.767 97.3463 164.755 97.3423L216.716 127.342Z" fill="#8BC5E4"/>
<path d="M216.757 127.347C218.031 127.624 219.345 128.148 220.632 128.883L168.67 98.8834C167.383 98.1484 166.07 97.6244 164.796 97.3474L216.757 127.347Z" fill="#8BC5E4"/>
<path d="M220.629 128.883C224.082 130.855 227.351 134.352 229.207 138.698L177.246 108.698C175.39 104.352 172.121 100.855 168.668 98.8833L220.629 128.883Z" fill="#8BC5E4"/>
<path d="M229.326 138.701C233.405 138.488 237.673 138.265 241.439 139.587L189.478 109.587C185.711 108.265 181.444 108.488 177.365 108.701L229.326 138.701Z" fill="#8BC5E4"/>
<path d="M241.439 139.587C242.204 139.854 242.945 140.189 243.654 140.601L191.693 110.601C190.984 110.189 190.243 109.854 189.478 109.587L241.439 139.587Z" fill="#8BC5E4"/>
<path d="M243.653 140.601C246.726 142.387 249.202 145.619 250.427 151.052L198.466 121.052C197.241 115.619 194.765 112.387 191.692 110.601L243.653 140.601Z" fill="#8BC5E4"/>
<path d="M250.428 151.057C250.437 151.082 250.446 151.107 250.446 151.127L198.484 121.127C198.484 121.107 198.475 121.082 198.467 121.057L250.428 151.057Z" fill="#8BC5E4"/>
<path d="M250.446 151.127C251.979 158.912 250.065 167.787 245.752 176.067L193.791 146.067C198.103 137.787 200.017 128.912 198.484 121.127L250.446 151.127Z" fill="#8BC5E4"/>
<path d="M245.752 176.067C241.448 184.342 234.961 191.997 227.34 198.607L175.379 168.607C183 161.997 189.486 154.342 193.791 146.067L245.752 176.067Z" fill="#8BC5E4"/>
<path d="M227.34 198.607C227.306 198.637 227.271 198.667 227.245 198.692L175.284 168.692C175.31 168.667 175.344 168.637 175.379 168.607L227.34 198.607Z" fill="#8BC5E4"/>
<path d="M227.245 198.692C215.06 208.717 199.758 215.922 185.061 222.457L133.1 192.457C147.796 185.922 163.099 178.717 175.284 168.692L227.245 198.692Z" fill="#8BC5E4"/>
<path d="M185.061 222.457C179.319 232.042 173.04 241.557 166.069 248.202L114.107 218.202C121.079 211.557 127.358 202.042 133.099 192.457L185.061 222.457Z" fill="#8BC5E4"/>
<path d="M166.069 248.202C153.693 260.937 140.409 268.777 127.817 269.947L75.855 239.947C88.447 238.777 101.732 230.937 114.107 218.202L166.069 248.202Z" fill="#8BC5E4"/>
<path d="M127.817 269.947C127.808 269.952 127.791 269.952 127.782 269.947L75.8203 239.947C75.829 239.952 75.8463 239.952 75.8549 239.947L127.817 269.947Z" fill="#8BC5E4"/>
<path d="M127.782 269.947C121.416 270.429 117.009 269.456 112.747 267.219L60.7852 237.219C65.0472 239.456 69.4542 240.429 75.8207 239.947L127.782 269.947Z" fill="#8BC5E4"/>
<path d="M112.753 267.223C112.464 267.071 112.176 266.914 111.888 266.751L59.9268 236.751C60.2148 236.914 60.5028 237.071 60.7918 237.223L112.753 267.223Z" fill="#8BC5E4"/>
<path d="M111.882 266.747C102.633 271.747 95.9728 274.392 88.0314 274.927L36.0698 244.927C44.0113 244.392 50.671 241.747 59.9202 236.747L111.882 266.747Z" fill="#8BC5E4"/>
<path d="M88.0315 274.927C87.9189 274.942 87.815 274.932 87.711 274.922L35.7495 244.922C35.8534 244.932 35.9574 244.942 36.0699 244.927L88.0315 274.927Z" fill="#8BC5E4"/>
<path d="M87.7108 274.922C85.6553 274.648 83.8523 274.035 82.3013 273.118L30.3398 243.118C31.8908 244.035 33.6938 244.648 35.7493 244.922L87.7108 274.922Z" fill="#8BC5E4"/>
<path d="M82.3025 273.119C76.3305 269.589 74.1125 261.557 75.6635 251.057L23.702 221.057C22.151 231.557 24.369 239.589 30.341 243.119L82.3025 273.119Z" fill="#8BC5E4"/>
<path d="M75.6646 251.047C75.6733 250.972 75.6906 250.892 75.6993 250.827L23.7377 220.827C23.7291 220.892 23.7118 220.972 23.7031 221.047L75.6646 251.047Z" fill="#8BC5E4"/>
<path d="M75.6994 250.827C77.8731 239.842 84.6281 228.072 95.1589 217.322L43.1974 187.322C32.6666 198.072 25.9116 209.842 23.7378 220.827L75.6994 250.827Z" fill="#8BC5E4"/>
<path d="M95.1588 217.322C97.4971 202.812 102.07 186.742 114.194 167.532L62.2326 137.532C50.1082 156.742 45.5356 172.812 43.1973 187.322L95.1588 217.322Z" fill="#8BC5E4"/>
<path d="M147.034 140.652C150.87 138.437 154.958 136.587 159.331 135.112L107.37 105.112C102.996 106.587 98.9088 108.437 95.0723 110.652L147.034 140.652Z" fill="#8BC5E4"/>
<path d="M159.331 135.112C168.227 132.952 175.092 133.851 180.349 136.906L128.388 106.906C123.131 103.851 116.266 102.952 107.37 105.112L159.331 135.112Z" fill="#8BC5E4"/>
<path d="M180.357 136.911C183.539 138.762 186.13 141.402 188.226 144.631L136.265 114.631C134.169 111.402 131.578 108.762 128.396 106.911L180.357 136.911Z" fill="#8BC5E4"/>
<path d="M188.231 144.637C188.36 144.841 188.522 144.994 188.708 145.098L136.747 115.098C136.561 114.994 136.399 114.841 136.269 114.637L188.231 144.637Z" fill="#8BC5E4"/>
<path d="M188.708 145.097C189.404 145.487 190.44 145.191 191.402 144.269L139.44 114.269C138.478 115.191 137.442 115.487 136.746 115.097L188.708 145.097Z" fill="#8BC5E4"/>
<path d="M191.409 144.262C198.623 137.347 206.114 132.942 213.77 134.272L161.808 104.272C154.152 102.942 146.661 107.347 139.447 114.262L191.409 144.262Z" fill="#8BC5E4"/>
<path d="M213.77 134.272C214.588 134.452 215.521 134.847 216.492 135.409L164.531 105.409C163.56 104.847 162.627 104.452 161.808 104.272L213.77 134.272Z" fill="#8BC5E4"/>
<path d="M216.49 135.409C219.694 137.264 223.316 140.938 224.661 144.705L172.7 114.705C171.355 110.938 167.733 107.264 164.529 105.409L216.49 135.409Z" fill="#8BC5E4"/>
<path d="M224.664 144.712C224.8 145.089 225.024 145.371 225.314 145.538L173.353 115.538C173.063 115.371 172.839 115.089 172.703 114.712L224.664 144.712Z" fill="#8BC5E4"/>
<path d="M225.312 145.536C225.536 145.666 225.8 145.728 226.094 145.712L174.132 115.712C173.838 115.728 173.574 115.666 173.35 115.536L225.312 145.536Z" fill="#8BC5E4"/>
<path d="M226.102 145.712C230.51 145.467 234.762 145.232 238.105 146.412L186.144 116.412C182.801 115.232 178.549 115.467 174.141 115.712L226.102 145.712Z" fill="#8BC5E4"/>
<path d="M238.105 146.412C238.763 146.642 239.389 146.92 239.979 147.26L188.017 117.26C187.427 116.92 186.801 116.642 186.144 116.412L238.105 146.412Z" fill="#8BC5E4"/>
<path d="M239.978 147.259C242.379 148.642 244.195 151.055 245.196 155.449L193.234 125.449C192.233 121.055 190.417 118.642 188.016 117.259L239.978 147.259Z" fill="#8BC5E4"/>
<path d="M245.198 155.457C246.436 161.752 245.033 167.912 241.708 174.302L189.746 144.302C193.072 137.912 194.475 131.752 193.236 125.457L245.198 155.457Z" fill="#8BC5E4"/>
<path d="M241.708 174.302C238.391 180.667 232.935 187.297 226.102 193.232L174.141 163.232C180.974 157.297 186.43 150.667 189.746 144.302L241.708 174.302Z" fill="#8BC5E4"/>
<path d="M226.102 193.232C214.921 202.427 199.428 209.802 184.455 216.437L132.493 186.437C147.467 179.802 162.96 172.427 174.14 163.232L226.102 193.232Z" fill="#8BC5E4"/>
<path d="M184.455 216.437C183.667 216.792 182.87 217.562 182.298 218.532L130.337 188.532C130.909 187.562 131.705 186.792 132.493 186.437L184.455 216.437Z" fill="#8BC5E4"/>
<path d="M182.298 218.532C176.522 228.277 170.312 237.602 164.424 243.202L112.462 213.202C118.351 207.602 124.56 198.277 130.337 188.532L182.298 218.532Z" fill="#8BC5E4"/>
<path d="M164.424 243.202C164.372 243.252 164.32 243.302 164.268 243.362L112.306 213.362C112.358 213.302 112.41 213.252 112.462 213.202L164.424 243.202Z" fill="#8BC5E4"/>
<path d="M164.268 243.362C153.01 254.982 141.258 261.927 129.878 262.987L77.9165 232.987C89.2961 231.927 101.048 224.982 112.306 213.362L164.268 243.362Z" fill="#8BC5E4"/>
<path d="M129.878 262.987C123.597 263.457 119.846 262.563 115.71 260.214L63.748 230.214C67.884 232.563 71.635 233.457 77.9163 232.987L129.878 262.987Z" fill="#8BC5E4"/>
<path d="M115.716 260.218C115.449 260.067 115.181 259.909 114.911 259.746L62.9492 229.746C63.2192 229.909 63.4872 230.067 63.7542 230.218L115.716 260.218Z" fill="#8BC5E4"/>
<path d="M114.904 259.742C114.874 259.724 114.842 259.706 114.81 259.691L62.8481 229.691C62.8801 229.706 62.9121 229.724 62.9428 229.742L114.904 259.742Z" fill="#8BC5E4"/>
<path d="M114.81 259.691C114.33 259.455 113.714 259.521 113.067 259.873L61.106 229.873C61.753 229.521 62.369 229.455 62.849 229.691L114.81 259.691Z" fill="#8BC5E4"/>
<path d="M113.06 259.877C103.577 265.082 97.8957 267.392 90.3526 267.937L38.3911 237.937C45.9342 237.392 51.6153 235.082 61.0983 229.877L113.06 259.877Z" fill="#8BC5E4"/>
<path d="M90.3524 267.937C88.6135 267.688 87.1185 267.194 85.8575 266.469L33.896 236.469C35.157 237.194 36.652 237.688 38.3909 237.937L90.3524 267.937Z" fill="#8BC5E4"/>
<path d="M85.8575 266.469C81.1405 263.757 79.6875 257.803 80.9285 249.285L28.967 219.285C27.726 227.803 29.179 233.757 33.896 236.469L85.8575 266.469Z" fill="#8BC5E4"/>
<path d="M80.9299 249.277C82.7225 240.342 88.1092 230.632 98.311 220.672L46.3495 190.672C36.1477 200.632 30.761 210.342 28.9683 219.277L80.9299 249.277Z" fill="#8BC5E4"/>
<path d="M98.3111 220.672C99.2204 219.777 99.8872 218.492 100.069 217.287L48.1076 187.287C47.9257 188.492 47.2589 189.777 46.3496 190.672L98.3111 220.672Z" fill="#8BC5E4"/>
<path d="M100.069 217.287C102.209 203.082 106.045 188.717 117.676 170.282L65.7142 140.282C54.0835 158.717 50.247 173.082 48.1079 187.287L100.069 217.287Z" fill="#8BC5E4"/>
<path d="M117.675 170.282C126.067 157.377 135.438 147.347 147.034 140.652L95.0721 110.652C83.4761 117.347 74.1057 127.377 65.7139 140.282L117.675 170.282Z" fill="#8BC5E4"/>
<path d="M163.324 185.927C166.468 175.972 173.482 166.242 181.614 161.547L129.653 131.547C121.521 136.242 114.506 145.972 111.362 155.927L163.324 185.927Z" fill="#8BC5E4"/>
<path d="M181.614 161.547C187.047 158.411 191.98 158.096 195.593 160.117L143.631 130.117C140.018 128.096 135.085 128.411 129.653 131.547L181.614 161.547Z" fill="#8BC5E4"/>
<path d="M195.59 160.116C199.332 162.207 201.66 166.803 201.662 173.363L149.701 143.363C149.699 136.803 147.371 132.207 143.629 130.116L195.59 160.116Z" fill="#8BC5E4"/>
<path d="M201.663 173.372C201.663 186.262 192.674 201.952 181.614 208.337L129.653 178.337C140.712 171.952 149.701 156.262 149.701 143.372L201.663 173.372Z" fill="#8BC5E4"/>
<path d="M181.614 208.337C176.14 211.497 171.17 211.792 167.548 209.717L115.587 179.717C119.209 181.792 124.179 181.497 129.653 178.337L181.614 208.337Z" fill="#8BC5E4"/>
<path d="M167.551 209.719C165.798 208.715 164.361 207.155 163.335 205.097L111.373 175.097C112.399 177.155 113.836 178.715 115.589 179.719L167.551 209.719Z" fill="#8BC5E4"/>
<path d="M181.614 165.197C186.213 162.542 190.377 162.266 193.424 163.968L141.462 133.968C138.415 132.266 134.251 132.542 129.653 135.197L181.614 165.197Z" fill="#8BC5E4"/>
<path d="M193.421 163.967C196.576 165.728 198.534 169.611 198.536 175.169L146.575 145.169C146.573 139.611 144.615 135.728 141.46 133.967L193.421 163.967Z" fill="#8BC5E4"/>
<path d="M198.537 175.177C198.537 186.097 190.976 199.282 181.614 204.687L129.653 174.687C139.015 169.282 146.575 156.097 146.575 145.177L198.537 175.177Z" fill="#8BC5E4"/>
<path d="M181.614 204.687C176.962 207.373 172.756 207.623 169.703 205.855L117.741 175.855C120.794 177.623 125 177.373 129.653 174.687L181.614 204.687Z" fill="#8BC5E4"/>
<path d="M169.692 205.849C168.154 204.956 166.908 203.55 166.046 201.685L114.085 171.685C114.947 173.55 116.193 174.956 117.731 175.849L169.692 205.849Z" fill="#8BC5E4"/>
<path d="M166.034 186.212C168.598 177.662 174.599 169.247 181.614 165.197L129.653 135.197C122.638 139.247 116.636 147.662 114.073 156.212L166.034 186.212Z" fill="#8BC5E4"/>
<path d="M147.008 134.477C134.199 141.962 123.409 153.352 114.237 167.457C114.22 167.487 114.211 167.502 114.194 167.532C102.07 186.742 97.497 202.812 95.1588 217.322C84.6279 228.072 77.8729 239.842 75.6992 250.827C75.6905 250.892 75.6732 250.972 75.6645 251.047C73.7073 264.277 77.7343 273.592 87.711 274.922C87.8149 274.932 87.9188 274.942 88.0314 274.927C95.9728 274.392 102.633 271.747 111.882 266.747C116.42 269.317 120.984 270.462 127.782 269.947C127.791 269.952 127.808 269.952 127.817 269.947C140.409 268.777 153.693 260.937 166.069 248.202C173.04 241.557 179.319 232.042 185.061 222.457C199.757 215.922 215.06 208.717 227.245 198.692C227.271 198.667 227.306 198.637 227.34 198.607C234.961 191.997 241.448 184.342 245.752 176.067C250.065 167.787 251.979 158.912 250.446 151.127C250.446 151.107 250.437 151.082 250.428 151.057C248.922 144.367 245.518 141.012 241.439 139.587C237.673 138.265 233.405 138.488 229.326 138.701C229.288 138.703 229.249 138.705 229.211 138.707C226.665 132.737 221.451 128.367 216.757 127.347C216.74 127.347 216.723 127.347 216.705 127.337C208.383 125.872 199.662 130.577 191.859 137.492C185.58 128.947 175.509 124.642 160.7 128.272C160.639 128.287 160.57 128.307 160.509 128.332C155.772 129.917 151.277 131.972 147.008 134.477ZM147.034 140.652C150.87 138.437 154.958 136.587 159.331 135.112C173.621 131.642 182.671 136.067 188.231 144.637C188.845 145.602 190.188 145.437 191.409 144.262C198.623 137.347 206.114 132.942 213.77 134.272C217.294 135.047 222.915 139.802 224.664 144.712C224.907 145.382 225.426 145.752 226.102 145.712C230.51 145.467 234.762 145.232 238.105 146.412C241.439 147.577 243.951 149.977 245.198 155.457C246.436 161.752 245.033 167.912 241.708 174.302C238.391 180.667 232.935 187.297 226.102 193.232C214.921 202.427 199.428 209.802 184.455 216.437C183.667 216.792 182.87 217.562 182.298 218.532C176.522 228.277 170.312 237.602 164.423 243.202C164.372 243.252 164.32 243.302 164.268 243.362C153.009 254.982 141.257 261.927 129.878 262.987C123.192 263.487 119.373 262.442 114.904 259.742C114.411 259.447 113.752 259.497 113.06 259.877C103.577 265.082 97.8954 267.392 90.3523 267.937C82.1078 266.757 79.3538 260.077 80.93 249.277C82.7226 240.342 88.1093 230.632 98.3111 220.672C99.2204 219.777 99.8873 218.492 100.069 217.287C102.208 203.082 106.045 188.717 117.675 170.282C126.067 157.377 135.438 147.347 147.034 140.652ZM181.614 161.547C173.482 166.242 166.467 175.972 163.324 185.927L153.971 184.927V196.397L137.429 205.947V194.477L114.047 223.977L137.429 226.437V214.957L153.971 205.407V216.887L163.332 205.092C166.476 211.407 173.491 213.027 181.614 208.337C192.673 201.952 201.663 186.262 201.663 173.372C201.663 160.472 192.673 155.162 181.614 161.547ZM181.614 165.197C190.976 159.792 198.536 164.247 198.536 175.177C198.536 186.097 190.976 199.282 181.614 204.687C174.608 208.732 168.615 207.252 166.043 201.677L177.353 187.427L166.034 186.212C168.598 177.662 174.599 169.247 181.614 165.197ZM62.423 147.322C56.6726 150.642 51.9614 158.852 51.9614 165.572V341.142C51.9614 347.862 56.6726 350.642 62.423 347.322L263.194 231.407C268.953 228.082 273.664 219.862 273.664 213.142V37.5723C273.664 30.8523 268.953 28.0823 263.194 31.4073L62.423 147.322ZM62.423 152.842L263.194 36.9273C266.415 35.0673 268.935 36.5423 268.935 40.3023V215.872C268.935 219.632 266.415 224.027 263.194 225.887L62.423 341.802C59.2101 343.657 56.6899 342.172 56.6899 338.412V162.842C56.6899 159.082 59.2101 154.697 62.423 152.842Z" fill="#8BC5E4"/>
<path fill-rule="evenodd" clip-rule="evenodd" d="M62.423 152.842L263.194 36.9273C266.415 35.0673 268.935 36.5423 268.935 40.3023V215.872C268.935 219.632 266.415 224.027 263.194 225.887L62.423 341.802C59.2101 343.657 56.6899 342.172 56.6899 338.412V162.842C56.6899 159.082 59.2101 154.697 62.423 152.842ZM114.237 167.457C123.409 153.352 134.199 141.962 147.008 134.477C151.277 131.972 155.772 129.917 160.509 128.332C160.57 128.307 160.639 128.287 160.7 128.272C175.509 124.642 185.58 128.947 191.859 137.492C199.662 130.577 208.383 125.872 216.705 127.337C216.723 127.347 216.74 127.347 216.757 127.347C221.451 128.367 226.665 132.737 229.211 138.707L229.326 138.701C233.405 138.488 237.673 138.265 241.439 139.587C245.518 141.012 248.922 144.367 250.428 151.057C250.437 151.082 250.446 151.107 250.446 151.127C251.979 158.912 250.065 167.787 245.752 176.067C241.448 184.342 234.961 191.997 227.34 198.607C227.306 198.637 227.271 198.667 227.245 198.692C215.06 208.717 199.757 215.922 185.061 222.457C179.319 232.042 173.04 241.557 166.069 248.202C153.693 260.937 140.409 268.777 127.817 269.947C127.808 269.952 127.791 269.952 127.782 269.947C120.984 270.462 116.42 269.317 111.882 266.747C102.633 271.747 95.9728 274.392 88.0314 274.927C87.9188 274.942 87.8149 274.932 87.711 274.922C77.7343 273.592 73.7073 264.277 75.6645 251.047C75.6732 250.972 75.6905 250.892 75.6992 250.827C77.8729 239.842 84.6279 228.072 95.1588 217.322C97.497 202.812 102.07 186.742 114.194 167.532L114.237 167.457Z" fill="white"/>
<path fill-rule="evenodd" clip-rule="evenodd" d="M147.034 140.652C150.87 138.437 154.958 136.587 159.331 135.112C173.621 131.642 182.671 136.067 188.231 144.637C188.845 145.602 190.188 145.437 191.409 144.262C198.623 137.347 206.114 132.942 213.77 134.272C217.294 135.047 222.915 139.802 224.664 144.712C224.907 145.382 225.426 145.752 226.102 145.712C230.51 145.467 234.762 145.232 238.105 146.412C241.439 147.577 243.951 149.977 245.198 155.457C246.436 161.752 245.033 167.912 241.708 174.302C238.391 180.667 232.935 187.297 226.102 193.232C214.921 202.427 199.428 209.802 184.455 216.437C183.667 216.792 182.87 217.562 182.298 218.532C176.522 228.277 170.312 237.602 164.423 243.202C164.372 243.252 164.32 243.302 164.268 243.362C153.009 254.982 141.257 261.927 129.878 262.987C123.192 263.487 119.373 262.442 114.904 259.742C114.411 259.447 113.752 259.497 113.06 259.877C103.577 265.082 97.8954 267.392 90.3523 267.937C82.1078 266.757 79.3538 260.077 80.93 249.277C82.7226 240.342 88.1093 230.632 98.3111 220.672C99.2204 219.777 99.8873 218.492 100.069 217.287C102.208 203.082 106.045 188.717 117.675 170.282C126.067 157.377 135.438 147.347 147.034 140.652ZM163.324 185.927C166.467 175.972 173.482 166.242 181.614 161.547C192.673 155.162 201.663 160.472 201.663 173.372C201.663 186.262 192.673 201.952 181.614 208.337C173.491 213.027 166.476 211.407 163.332 205.092L153.971 216.887V205.407L137.429 214.957V226.437L114.047 223.977L137.429 194.477V205.947L153.971 196.397V184.927L163.324 185.927Z" fill="white"/>
<path d="M181.614 165.197C190.976 159.792 198.536 164.247 198.536 175.177C198.536 186.097 190.976 199.282 181.614 204.687C174.608 208.732 168.615 207.252 166.043 201.677L177.353 187.427L166.034 186.212C168.598 177.662 174.599 169.247 181.614 165.197Z" fill="white"/>
</svg>
