<svg width="226" height="326" viewBox="0 0 226 326" fill="none" xmlns="http://www.w3.org/2000/svg">
<path d="M65.4976 269.067L145.311 222.987L93.349 192.987L13.5361 239.067L65.4976 269.067Z" fill="#8BC5E4"/>
<path d="M145.311 222.987V241.217L93.3491 211.217V192.987L145.311 222.987Z" fill="#8BC5E4"/>
<path d="M145.311 241.217L65.4976 287.297L13.5361 257.297L93.349 211.217L145.311 241.217Z" fill="#8BC5E4"/>
<path d="M65.4976 287.297V269.067L13.5361 239.067V257.297L65.4976 287.297Z" fill="#8BC5E4"/>
<path d="M65.4976 269.067L13.5361 239.067L65.4976 269.067Z" fill="#8BC5E4"/>
<path d="M166.987 238.742L166.986 238.742L115.025 208.742L115.026 208.742L166.987 238.742Z" fill="#8BC5E4"/>
<path d="M176.504 215.697L124.543 185.697L176.504 215.697Z" fill="#8BC5E4"/>
<path d="M193.202 206.047L141.24 176.047L193.202 206.047Z" fill="#8BC5E4"/>
<path d="M167.342 198.017L115.38 168.017L167.342 198.017Z" fill="#8BC5E4"/>
<path d="M202.364 177.797L150.403 147.797L202.364 177.797Z" fill="#8BC5E4"/>
<path d="M184.948 180.632L180.445 188.172L128.483 158.172L132.987 150.632L184.948 180.632Z" fill="#8BC5E4"/>
<path d="M180.445 188.172L183.632 186.332L131.67 156.332L128.483 158.172L180.445 188.172Z" fill="#8BC5E4"/>
<path d="M183.632 186.332V196.842L131.67 166.842V156.332L183.632 186.332Z" fill="#8BC5E4"/>
<path d="M174.193 212.962L165.203 218.152L113.242 188.152L122.231 182.962L174.193 212.962Z" fill="#8BC5E4"/>
<path d="M165.203 218.152V214.492L113.242 184.492V188.152L165.203 218.152Z" fill="#8BC5E4"/>
<path d="M165.203 214.492L160.907 222.142L108.946 192.142L113.241 184.492L165.203 214.492Z" fill="#8BC5E4"/>
<path d="M160.907 222.142L165.203 224.622L113.241 194.622L108.946 192.142L160.907 222.142Z" fill="#8BC5E4"/>
<path d="M165.203 224.622V221.222L113.242 191.222V194.622L165.203 224.622Z" fill="#8BC5E4"/>
<path d="M165.203 221.222L173.993 216.147L122.032 186.147L113.242 191.222L165.203 221.222Z" fill="#8BC5E4"/>
<path d="M183.632 220.982V231.502L131.67 201.502V190.982L183.632 220.982Z" fill="#8BC5E4"/>
<path d="M183.632 231.502L180.445 233.342L128.483 203.342L131.67 201.502L183.632 231.502Z" fill="#8BC5E4"/>
<path d="M180.445 233.342L184.948 235.682L132.987 205.682L128.483 203.342L180.445 233.342Z" fill="#8BC5E4"/>
<path d="M184.948 235.682L189.261 228.252L137.3 198.252L132.987 205.682L184.948 235.682Z" fill="#8BC5E4"/>
<path d="M189.261 228.252L186.308 229.957L134.347 199.957L137.3 198.252L189.261 228.252Z" fill="#8BC5E4"/>
<path d="M186.308 229.957V219.667L134.347 189.667V199.957L186.308 229.957Z" fill="#8BC5E4"/>
<path d="M195.722 203.602L204.512 198.527L152.55 168.527L143.76 173.602L195.722 203.602Z" fill="#8BC5E4"/>
<path d="M204.512 198.527V201.927L152.55 171.927V168.527L204.512 198.527Z" fill="#8BC5E4"/>
<path d="M204.512 201.927L208.807 194.487L156.846 164.487L152.55 171.927L204.512 201.927Z" fill="#8BC5E4"/>
<path d="M208.807 194.487L204.512 191.797L152.55 161.797L156.846 164.487L208.807 194.487Z" fill="#8BC5E4"/>
<path d="M204.512 191.797V195.457L152.55 165.457V161.797L204.512 191.797Z" fill="#8BC5E4"/>
<path d="M204.512 195.457L195.523 200.647L143.561 170.647L152.55 165.457L204.512 195.457Z" fill="#8BC5E4"/>
<path d="M186.308 195.067V184.787L134.347 154.787V165.067L186.308 195.067Z" fill="#8BC5E4"/>
<path d="M186.308 184.787L189.261 183.082L137.3 153.082L134.347 154.787L186.308 184.787Z" fill="#8BC5E4"/>
<path d="M189.261 183.082L184.948 180.632L132.987 150.632L137.3 153.082L189.261 183.082Z" fill="#8BC5E4"/>
<path d="M184.948 180.632L132.987 150.632L184.948 180.632Z" fill="#8BC5E4"/>
<path d="M96.3974 196.627L70.0529 229.807L18.0913 199.807L44.4358 166.627L96.3974 196.627Z" fill="#8BC5E4"/>
<path d="M70.0529 229.807L96.3974 232.297L44.4358 202.297L18.0913 199.807L70.0529 229.807Z" fill="#8BC5E4"/>
<path d="M96.3971 232.297V220.677L44.4355 190.677V202.297L96.3971 232.297Z" fill="#8BC5E4"/>
<path d="M96.3971 220.677L127.34 202.812L75.3786 172.812L44.4355 190.677L96.3971 220.677Z" fill="#8BC5E4"/>
<path d="M127.341 202.812V189.372L75.3789 159.372V172.812L127.341 202.812Z" fill="#8BC5E4"/>
<path d="M127.34 189.372L96.3971 207.237L44.4355 177.237L75.3786 159.372L127.34 189.372Z" fill="#8BC5E4"/>
<path d="M96.3971 207.237V196.627L44.4355 166.627V177.237L96.3971 207.237Z" fill="#8BC5E4"/>
<path d="M96.3971 196.627L44.4355 166.627L96.3971 196.627Z" fill="#8BC5E4"/>
<path d="M164.562 130.422V141.032L112.601 111.032V100.422L164.562 130.422Z" fill="#8BC5E4"/>
<path d="M164.562 141.032L133.619 158.897L81.6577 128.897L112.601 111.032L164.562 141.032Z" fill="#8BC5E4"/>
<path d="M133.619 158.897V172.327L81.6577 142.327V128.897L133.619 158.897Z" fill="#8BC5E4"/>
<path d="M133.619 172.327L164.562 154.462L112.601 124.462L81.6577 142.327L133.619 172.327Z" fill="#8BC5E4"/>
<path d="M164.562 154.462V166.082L112.601 136.082V124.462L164.562 154.462Z" fill="#8BC5E4"/>
<path d="M164.562 166.082L190.907 133.172L138.945 103.172L112.601 136.082L164.562 166.082Z" fill="#8BC5E4"/>
<path d="M190.907 133.172L164.562 130.422L112.601 100.422L138.945 103.172L190.907 133.172Z" fill="#8BC5E4"/>
<path d="M164.562 130.422L112.601 100.422L164.562 130.422Z" fill="#8BC5E4"/>
<path d="M114.116 133.887L87.7628 167.062L35.8013 137.062L62.1544 103.887L114.116 133.887Z" fill="#8BC5E4"/>
<path d="M87.7628 167.062L114.116 169.547L62.1544 139.547L35.8013 137.062L87.7628 167.062Z" fill="#8BC5E4"/>
<path d="M114.116 169.547V157.927L62.1548 127.927V139.547L114.116 169.547Z" fill="#8BC5E4"/>
<path d="M114.116 157.927L145.059 140.062L93.0979 110.062L62.1548 127.927L114.116 157.927Z" fill="#8BC5E4"/>
<path d="M145.059 140.062V126.632L93.0977 96.6321V110.062L145.059 140.062Z" fill="#8BC5E4"/>
<path d="M145.059 126.632L114.116 144.497L62.1548 114.497L93.0979 96.6321L145.059 126.632Z" fill="#8BC5E4"/>
<path d="M114.116 144.497V133.887L62.1548 103.887V114.497L114.116 144.497Z" fill="#8BC5E4"/>
<path d="M114.116 133.887L62.1548 103.887L114.116 133.887Z" fill="#8BC5E4"/>
<path d="M181.779 67.8921V78.5021L129.817 48.5021V37.8921L181.779 67.8921Z" fill="#8BC5E4"/>
<path d="M181.779 78.502L150.836 96.367L98.874 66.367L129.817 48.502L181.779 78.502Z" fill="#8BC5E4"/>
<path d="M150.836 96.3669V109.797L98.874 79.7969V66.3669L150.836 96.3669Z" fill="#8BC5E4"/>
<path d="M150.836 109.797L181.779 91.9321L129.817 61.9321L98.874 79.7971L150.836 109.797Z" fill="#8BC5E4"/>
<path d="M181.779 91.9321V103.552L129.817 73.5521V61.9321L181.779 91.9321Z" fill="#8BC5E4"/>
<path d="M181.779 103.552L208.123 70.6521L156.162 40.6521L129.817 73.5521L181.779 103.552Z" fill="#8BC5E4"/>
<path d="M208.123 70.6521L181.779 67.8921L129.817 37.8921L156.162 40.6521L208.123 70.6521Z" fill="#8BC5E4"/>
<path d="M181.779 67.8921L129.817 37.8921L181.779 67.8921Z" fill="#8BC5E4"/>
<path d="M62.5875 124.687L214.54 36.957L162.579 6.95703L10.626 94.687L62.5875 124.687Z" fill="#8BC5E4"/>
<path d="M220.369 40.302V215.862L168.407 185.862V10.302L220.369 40.302Z" fill="#8BC5E4"/>
<path d="M214.54 225.937L62.5875 313.667L10.626 283.667L162.579 195.937L214.54 225.937Z" fill="#8BC5E4"/>
<path d="M56.7593 310.322V134.762L4.79785 104.762V280.322L56.7593 310.322Z" fill="#8BC5E4"/>
<path d="M62.5875 124.687L10.626 94.687L62.5875 124.687Z" fill="#8BC5E4"/>
<path d="M51.9615 137.532V313.092L0 283.092V107.532L51.9615 137.532Z" fill="#8BC5E4"/>
<path d="M62.5875 319.177L214.54 231.447L162.579 201.447L10.626 289.177L62.5875 319.177Z" fill="#8BC5E4"/>
<path d="M225.167 213.092V37.532L173.205 7.53198V183.092L225.167 213.092Z" fill="#8BC5E4"/>
<path d="M214.54 31.447L62.5875 119.177L10.626 89.177L162.579 1.44702L214.54 31.447Z" fill="#8BC5E4"/>
<path d="M62.5875 119.177L10.626 89.177L62.5875 119.177Z" fill="#8BC5E4"/>
<path d="M62.5875 124.687L214.54 36.957L162.579 6.95703L10.626 94.687L62.5875 124.687Z" fill="#8BC5E4"/>
<path d="M220.369 40.302V215.862L168.407 185.862V10.302L220.369 40.302Z" fill="#8BC5E4"/>
<path d="M214.54 225.937L62.5875 313.667L10.626 283.667L162.579 195.937L214.54 225.937Z" fill="#8BC5E4"/>
<path d="M56.7593 310.322V134.762L4.79785 104.762V280.322L56.7593 310.322Z" fill="#8BC5E4"/>
<path d="M62.5875 124.687L10.626 94.687L62.5875 124.687Z" fill="#8BC5E4"/>
<path d="M145.311 222.987L65.4976 269.067L13.5361 239.067L93.349 192.987L145.311 222.987Z" fill="#8BC5E4"/>
<path d="M65.4976 269.067V287.297L13.5361 257.297V239.067L65.4976 269.067Z" fill="#8BC5E4"/>
<path d="M65.4976 287.297L145.311 241.217L93.349 211.217L13.5361 257.297L65.4976 287.297Z" fill="#8BC5E4"/>
<path d="M145.311 241.217V222.987L93.3491 192.987V211.217L145.311 241.217Z" fill="#8BC5E4"/>
<path d="M145.311 222.987L93.3491 192.987L145.311 222.987Z" fill="#8BC5E4"/>
<path d="M180.445 188.172L184.948 180.632L132.987 150.632L128.483 158.172L180.445 188.172Z" fill="#8BC5E4"/>
<path d="M184.948 180.632L189.261 183.082L137.3 153.082L132.987 150.632L184.948 180.632Z" fill="#8BC5E4"/>
<path d="M189.261 183.082L186.308 184.787L134.347 154.787L137.3 153.082L189.261 183.082Z" fill="#8BC5E4"/>
<path d="M186.308 184.787V195.067L134.347 165.067V154.787L186.308 184.787Z" fill="#8BC5E4"/>
<path d="M195.523 200.647L204.512 195.457L152.55 165.457L143.561 170.647L195.523 200.647Z" fill="#8BC5E4"/>
<path d="M204.512 195.457V191.797L152.55 161.797V165.457L204.512 195.457Z" fill="#8BC5E4"/>
<path d="M204.512 191.797L208.807 194.487L156.846 164.487L152.55 161.797L204.512 191.797Z" fill="#8BC5E4"/>
<path d="M208.807 194.487L204.512 201.927L152.55 171.927L156.846 164.487L208.807 194.487Z" fill="#8BC5E4"/>
<path d="M204.512 201.927V198.527L152.55 168.527V171.927L204.512 201.927Z" fill="#8BC5E4"/>
<path d="M204.512 198.527L195.722 203.602L143.76 173.602L152.55 168.527L204.512 198.527Z" fill="#8BC5E4"/>
<path d="M186.308 219.667V229.957L134.347 199.957V189.667L186.308 219.667Z" fill="#8BC5E4"/>
<path d="M186.308 229.957L189.261 228.252L137.3 198.252L134.347 199.957L186.308 229.957Z" fill="#8BC5E4"/>
<path d="M189.261 228.252L184.948 235.682L132.987 205.682L137.3 198.252L189.261 228.252Z" fill="#8BC5E4"/>
<path d="M184.948 235.682L180.445 233.342L128.483 203.342L132.987 205.682L184.948 235.682Z" fill="#8BC5E4"/>
<path d="M180.445 233.342L183.632 231.502L131.67 201.502L128.483 203.342L180.445 233.342Z" fill="#8BC5E4"/>
<path d="M183.632 231.502V220.982L131.67 190.982V201.502L183.632 231.502Z" fill="#8BC5E4"/>
<path d="M173.993 216.147L165.203 221.222L113.242 191.222L122.032 186.147L173.993 216.147Z" fill="#8BC5E4"/>
<path d="M165.203 221.222V224.622L113.242 194.622V191.222L165.203 221.222Z" fill="#8BC5E4"/>
<path d="M165.203 224.622L160.907 222.142L108.946 192.142L113.241 194.622L165.203 224.622Z" fill="#8BC5E4"/>
<path d="M160.907 222.142L165.203 214.492L113.241 184.492L108.946 192.142L160.907 222.142Z" fill="#8BC5E4"/>
<path d="M165.203 214.492V218.152L113.242 188.152V184.492L165.203 214.492Z" fill="#8BC5E4"/>
<path d="M165.203 218.152L174.193 212.962L122.231 182.962L113.242 188.152L165.203 218.152Z" fill="#8BC5E4"/>
<path d="M183.632 196.842V186.332L131.67 156.332V166.842L183.632 196.842Z" fill="#8BC5E4"/>
<path d="M183.632 186.332L180.445 188.172L128.483 158.172L131.67 156.332L183.632 186.332Z" fill="#8BC5E4"/>
<path d="M180.445 188.172L128.483 158.172L180.445 188.172Z" fill="#8BC5E4"/>
<path d="M70.0529 229.807L96.3974 196.627L44.4358 166.627L18.0913 199.807L70.0529 229.807Z" fill="#8BC5E4"/>
<path d="M96.3971 196.627V207.237L44.4355 177.237V166.627L96.3971 196.627Z" fill="#8BC5E4"/>
<path d="M96.3971 207.237L127.34 189.372L75.3786 159.372L44.4355 177.237L96.3971 207.237Z" fill="#8BC5E4"/>
<path d="M127.341 189.372V202.812L75.3789 172.812V159.372L127.341 189.372Z" fill="#8BC5E4"/>
<path d="M127.34 202.812L96.3971 220.677L44.4355 190.677L75.3786 172.812L127.34 202.812Z" fill="#8BC5E4"/>
<path d="M96.3971 220.677V232.297L44.4355 202.297V190.677L96.3971 220.677Z" fill="#8BC5E4"/>
<path d="M96.3974 232.297L70.0529 229.807L18.0913 199.807L44.4358 202.297L96.3974 232.297Z" fill="#8BC5E4"/>
<path d="M70.0529 229.807L18.0913 199.807L70.0529 229.807Z" fill="#8BC5E4"/>
<path d="M164.562 141.032V130.422L112.601 100.422V111.032L164.562 141.032Z" fill="#8BC5E4"/>
<path d="M164.562 130.422L190.907 133.172L138.945 103.172L112.601 100.422L164.562 130.422Z" fill="#8BC5E4"/>
<path d="M190.907 133.172L164.562 166.082L112.601 136.082L138.945 103.172L190.907 133.172Z" fill="#8BC5E4"/>
<path d="M164.562 166.082V154.462L112.601 124.462V136.082L164.562 166.082Z" fill="#8BC5E4"/>
<path d="M164.562 154.462L133.619 172.327L81.6577 142.327L112.601 124.462L164.562 154.462Z" fill="#8BC5E4"/>
<path d="M133.619 172.327V158.897L81.6577 128.897V142.327L133.619 172.327Z" fill="#8BC5E4"/>
<path d="M133.619 158.897L164.562 141.032L112.601 111.032L81.6577 128.897L133.619 158.897Z" fill="#8BC5E4"/>
<path d="M164.562 141.032L112.601 111.032L164.562 141.032Z" fill="#8BC5E4"/>
<path d="M87.7628 167.062L114.116 133.887L62.1544 103.887L35.8013 137.062L87.7628 167.062Z" fill="#8BC5E4"/>
<path d="M114.116 133.887V144.497L62.1548 114.497V103.887L114.116 133.887Z" fill="#8BC5E4"/>
<path d="M114.116 144.497L145.059 126.632L93.0979 96.6321L62.1548 114.497L114.116 144.497Z" fill="#8BC5E4"/>
<path d="M145.059 126.632V140.062L93.0977 110.062V96.6321L145.059 126.632Z" fill="#8BC5E4"/>
<path d="M145.059 140.062L114.116 157.927L62.1548 127.927L93.0979 110.062L145.059 140.062Z" fill="#8BC5E4"/>
<path d="M114.116 157.927V169.547L62.1548 139.547V127.927L114.116 157.927Z" fill="#8BC5E4"/>
<path d="M114.116 169.547L87.7628 167.062L35.8013 137.062L62.1544 139.547L114.116 169.547Z" fill="#8BC5E4"/>
<path d="M87.7628 167.062L35.8013 137.062L87.7628 167.062Z" fill="#8BC5E4"/>
<path d="M181.779 78.5021V67.8921L129.817 37.8921V48.5021L181.779 78.5021Z" fill="#8BC5E4"/>
<path d="M181.779 67.8921L208.123 70.6521L156.162 40.6521L129.817 37.8921L181.779 67.8921Z" fill="#8BC5E4"/>
<path d="M208.123 70.6521L181.779 103.552L129.817 73.5521L156.162 40.6521L208.123 70.6521Z" fill="#8BC5E4"/>
<path d="M181.779 103.552V91.9321L129.817 61.9321V73.5521L181.779 103.552Z" fill="#8BC5E4"/>
<path d="M181.779 91.9321L150.836 109.797L98.874 79.7971L129.817 61.9321L181.779 91.9321Z" fill="#8BC5E4"/>
<path d="M150.836 109.797V96.3669L98.874 66.3669V79.7969L150.836 109.797Z" fill="#8BC5E4"/>
<path d="M150.836 96.367L181.779 78.502L129.817 48.502L98.874 66.367L150.836 96.367Z" fill="#8BC5E4"/>
<path d="M181.779 78.502L129.817 48.502L181.779 78.502Z" fill="#8BC5E4"/>
<path d="M202.364 177.797L150.403 147.797L202.364 177.797Z" fill="#8BC5E4"/>
<path d="M167.342 198.017L115.38 168.017L167.342 198.017Z" fill="#8BC5E4"/>
<path d="M193.202 206.047L141.24 176.047L193.202 206.047Z" fill="#8BC5E4"/>
<path d="M166.987 238.742L166.986 238.742L115.025 208.742L115.026 208.742L166.987 238.742Z" fill="#8BC5E4"/>
<path d="M176.504 215.697L124.543 185.697L176.504 215.697Z" fill="#8BC5E4"/>
<path d="M176.504 215.697C176.907 217.119 177.665 218.159 178.681 218.758L126.72 188.758C125.704 188.159 124.946 187.119 124.543 185.697L176.504 215.697Z" fill="#8BC5E4"/>
<path d="M178.678 218.756C179.693 219.354 180.966 219.512 182.402 219.169L130.441 189.169C129.005 189.512 127.732 189.354 126.717 188.756L178.678 218.756Z" fill="#8BC5E4"/>
<path d="M182.411 219.167C179.267 224.102 176.297 228.387 173.768 231.707L121.807 201.707C124.335 198.387 127.306 194.102 130.45 189.167L182.411 219.167Z" fill="#8BC5E4"/>
<path d="M173.768 231.707C171.759 234.317 170.018 236.332 168.771 237.492L116.81 207.492C118.057 206.332 119.797 204.317 121.806 201.707L173.768 231.707Z" fill="#8BC5E4"/>
<path d="M168.771 237.492C168.139 238.087 167.645 238.462 167.342 238.627L115.38 208.627C115.683 208.462 116.177 208.087 116.809 207.492L168.771 237.492Z" fill="#8BC5E4"/>
<path d="M167.342 238.627C167.039 238.792 166.996 238.737 166.987 238.742L115.025 208.742C115.034 208.737 115.077 208.792 115.38 208.627L167.342 238.627Z" fill="#8BC5E4"/>
<path d="M166.986 238.742C166.976 238.736 166.926 238.708 166.918 238.382L114.956 208.382C114.964 208.708 115.014 208.736 115.025 208.742L166.986 238.742Z" fill="#8BC5E4"/>
<path d="M166.918 238.382C166.918 238.032 166.996 237.417 167.212 236.572L115.25 206.572C115.034 207.417 114.956 208.032 114.956 208.382L166.918 238.382Z" fill="#8BC5E4"/>
<path d="M167.212 236.572C167.619 234.907 168.511 232.402 169.819 229.377L117.857 199.377C116.55 202.402 115.658 204.907 115.25 206.572L167.212 236.572Z" fill="#8BC5E4"/>
<path d="M169.819 229.377C171.464 225.537 173.751 220.857 176.505 215.697L124.543 185.697C121.789 190.857 119.503 195.537 117.857 199.377L169.819 229.377Z" fill="#8BC5E4"/>
<path d="M193.202 206.047C193.347 206.151 193.491 206.256 193.634 206.361L141.672 176.361C141.529 176.256 141.385 176.151 141.24 176.047L193.202 206.047Z" fill="#8BC5E4"/>
<path d="M193.632 206.36C196.192 208.24 198.333 210.17 199.891 212.006L147.93 182.006C146.372 180.17 144.231 178.24 141.671 176.36L193.632 206.36Z" fill="#8BC5E4"/>
<path d="M199.896 212.012C201.195 213.542 202.096 215.002 202.503 216.197L150.541 186.197C150.134 185.002 149.234 183.542 147.935 182.012L199.896 212.012Z" fill="#8BC5E4"/>
<path d="M202.503 216.197C202.71 216.797 202.797 217.317 202.788 217.672L150.827 187.672C150.835 187.317 150.749 186.797 150.541 186.197L202.503 216.197Z" fill="#8BC5E4"/>
<path d="M202.789 217.672C202.789 218.012 202.719 218.102 202.719 218.112L150.758 188.112C150.758 188.102 150.827 188.012 150.827 187.672L202.789 217.672Z" fill="#8BC5E4"/>
<path d="M202.719 218.112C202.711 218.117 202.667 218.222 202.364 218.407L150.403 188.407C150.706 188.222 150.749 188.117 150.758 188.112L202.719 218.112Z" fill="#8BC5E4"/>
<path d="M202.364 218.407C202.07 218.587 201.568 218.787 200.944 218.917L148.982 188.917C149.606 188.787 150.108 188.587 150.403 188.407L202.364 218.407Z" fill="#8BC5E4"/>
<path d="M200.944 218.917C199.688 219.202 197.947 219.197 195.947 218.902L143.985 188.902C145.986 189.197 147.727 189.202 148.982 188.917L200.944 218.917Z" fill="#8BC5E4"/>
<path d="M195.947 218.902C193.551 218.523 190.751 217.74 187.798 216.545L135.837 186.545C138.79 187.74 141.59 188.523 143.985 188.902L195.947 218.902Z" fill="#8BC5E4"/>
<path d="M187.808 216.549C187.644 216.483 187.479 216.415 187.314 216.346L135.352 186.346C135.517 186.415 135.682 186.483 135.846 186.549L187.808 216.549Z" fill="#8BC5E4"/>
<path d="M187.304 216.342C190.17 213.717 192.396 209.822 193.201 206.047L141.24 176.047C140.435 179.822 138.209 183.717 135.342 186.342L187.304 216.342Z" fill="#8BC5E4"/>
<path d="M167.342 198.017C167.645 197.832 168.139 197.627 168.771 197.492L116.809 167.492C116.177 167.627 115.683 167.832 115.38 168.017L167.342 198.017Z" fill="#8BC5E4"/>
<path d="M168.771 197.492C170.018 197.222 171.759 197.217 173.768 197.517L121.806 167.517C119.797 167.217 118.057 167.222 116.81 167.492L168.771 197.492Z" fill="#8BC5E4"/>
<path d="M173.768 197.517C176.164 197.886 178.956 198.682 181.916 199.874L129.954 169.874C126.994 168.682 124.202 167.886 121.807 167.517L173.768 197.517Z" fill="#8BC5E4"/>
<path d="M181.916 199.874C182.08 199.941 182.246 200.008 182.411 200.077L130.449 170.077C130.284 170.008 130.118 169.941 129.954 169.874L181.916 199.874Z" fill="#8BC5E4"/>
<path d="M182.411 200.077C179.544 202.702 177.31 206.592 176.513 210.362L124.552 180.362C125.348 176.592 127.583 172.702 130.449 170.077L182.411 200.077Z" fill="#8BC5E4"/>
<path d="M176.513 210.362C176.369 210.258 176.225 210.154 176.082 210.05L124.12 180.05C124.263 180.154 124.407 180.258 124.552 180.362L176.513 210.362Z" fill="#8BC5E4"/>
<path d="M176.081 210.05C173.522 208.178 171.381 206.239 169.823 204.413L117.862 174.413C119.42 176.239 121.561 178.178 124.12 180.05L176.081 210.05Z" fill="#8BC5E4"/>
<path d="M169.819 204.407C168.511 202.872 167.619 201.407 167.212 200.222L115.25 170.222C115.658 171.407 116.55 172.872 117.857 174.407L169.819 204.407Z" fill="#8BC5E4"/>
<path d="M167.212 200.222C166.996 199.627 166.918 199.092 166.918 198.752L114.956 168.752C114.956 169.092 115.034 169.627 115.25 170.222L167.212 200.222Z" fill="#8BC5E4"/>
<path d="M166.918 198.752C166.926 198.407 166.987 198.312 166.987 198.302L115.025 168.302C115.025 168.312 114.965 168.407 114.956 168.752L166.918 198.752Z" fill="#8BC5E4"/>
<path d="M166.987 198.302C166.996 198.297 167.039 198.202 167.342 198.017L115.38 168.017C115.077 168.202 115.034 168.297 115.025 168.302L166.987 198.302Z" fill="#8BC5E4"/>
<path d="M202.364 177.797C202.667 177.632 202.711 177.677 202.719 177.672L150.758 147.672C150.749 147.677 150.706 147.632 150.403 147.797L202.364 177.797Z" fill="#8BC5E4"/>
<path d="M202.719 177.672C202.719 177.682 202.789 177.702 202.789 178.042L150.827 148.042C150.827 147.702 150.758 147.682 150.758 147.672L202.719 177.672Z" fill="#8BC5E4"/>
<path d="M202.788 178.042C202.797 178.377 202.71 179.007 202.503 179.847L150.541 149.847C150.749 149.007 150.835 148.377 150.827 148.042L202.788 178.042Z" fill="#8BC5E4"/>
<path d="M202.503 179.847C202.096 181.502 201.195 184.002 199.896 187.042L147.935 157.042C149.234 154.002 150.134 151.502 150.541 149.847L202.503 179.847Z" fill="#8BC5E4"/>
<path d="M199.896 187.042C198.251 190.872 195.956 195.567 193.202 200.717L141.24 170.717C143.994 165.567 146.289 160.872 147.935 157.042L199.896 187.042Z" fill="#8BC5E4"/>
<path d="M193.202 200.717C192.798 199.299 192.041 198.262 191.025 197.665L139.064 167.665C140.08 168.262 140.837 169.299 141.24 170.717L193.202 200.717Z" fill="#8BC5E4"/>
<path d="M191.029 197.666C190.015 197.069 188.744 196.91 187.313 197.25L135.351 167.25C136.782 166.91 138.053 167.069 139.067 167.666L191.029 197.666Z" fill="#8BC5E4"/>
<path d="M187.304 197.252C190.439 192.322 193.418 188.012 195.947 184.712L143.985 154.712C141.456 158.012 138.477 162.322 135.342 167.252L187.304 197.252Z" fill="#8BC5E4"/>
<path d="M195.947 184.712C197.947 182.097 199.688 180.092 200.944 178.917L148.982 148.917C147.727 150.092 145.986 152.097 143.985 154.712L195.947 184.712Z" fill="#8BC5E4"/>
<path d="M200.944 178.917C201.568 178.327 202.07 177.957 202.364 177.797L150.403 147.797C150.108 147.957 149.606 148.327 148.982 148.917L200.944 178.917Z" fill="#8BC5E4"/>
<path d="M183.632 196.842C183.464 196.774 183.297 196.707 183.13 196.641L131.169 166.641C131.336 166.707 131.503 166.774 131.67 166.842L183.632 196.842Z" fill="#8BC5E4"/>
<path d="M183.13 196.641C180.248 195.503 177.507 194.745 175.075 194.372L123.114 164.372C125.546 164.745 128.287 165.503 131.169 166.641L183.13 196.641Z" fill="#8BC5E4"/>
<path d="M175.076 194.372C172.962 194.062 171.109 194.032 169.507 194.367L117.545 164.367C119.148 164.032 121.001 164.062 123.114 164.372L175.076 194.372Z" fill="#8BC5E4"/>
<path d="M169.507 194.367C168.702 194.542 167.966 194.797 167.256 195.237L115.294 165.237C116.004 164.797 116.74 164.542 117.546 164.367L169.507 194.367Z" fill="#8BC5E4"/>
<path d="M167.255 195.237C166.536 195.692 165.783 196.387 165.237 197.332L113.276 167.332C113.821 166.387 114.575 165.692 115.294 165.237L167.255 195.237Z" fill="#8BC5E4"/>
<path d="M165.237 197.332C164.692 198.287 164.475 199.272 164.458 200.122L112.497 170.122C112.514 169.272 112.73 168.287 113.276 167.332L165.237 197.332Z" fill="#8BC5E4"/>
<path d="M164.458 200.122C164.45 200.947 164.606 201.697 164.865 202.457L112.904 172.457C112.644 171.697 112.488 170.947 112.497 170.122L164.458 200.122Z" fill="#8BC5E4"/>
<path d="M164.865 202.457C165.394 203.992 166.39 205.527 167.758 207.147L115.796 177.147C114.428 175.527 113.432 173.992 112.904 172.457L164.865 202.457Z" fill="#8BC5E4"/>
<path d="M167.758 207.147C169.306 208.967 171.348 210.84 173.769 212.649L121.807 182.649C119.386 180.84 117.344 178.967 115.796 177.147L167.758 207.147Z" fill="#8BC5E4"/>
<path d="M173.776 212.654C173.911 212.755 174.047 212.856 174.184 212.956L122.223 182.956C122.086 182.856 121.95 182.755 121.815 182.654L173.776 212.654Z" fill="#8BC5E4"/>
<path d="M173.993 216.147C171.473 220.912 169.36 225.292 167.758 229.017L115.796 199.017C117.399 195.292 119.512 190.912 122.032 186.147L173.993 216.147Z" fill="#8BC5E4"/>
<path d="M167.758 229.017C166.39 232.207 165.402 234.897 164.865 237.037L112.904 207.037C113.441 204.897 114.428 202.207 115.796 199.017L167.758 229.017Z" fill="#8BC5E4"/>
<path d="M164.865 237.037C164.606 238.097 164.45 239.027 164.458 239.852L112.497 209.852C112.488 209.027 112.644 208.097 112.904 207.037L164.865 237.037Z" fill="#8BC5E4"/>
<path d="M164.458 239.852C164.474 240.611 164.665 241.322 165.139 241.668L113.178 211.668C112.704 211.322 112.513 210.611 112.497 209.852L164.458 239.852Z" fill="#8BC5E4"/>
<path d="M165.133 241.664C165.165 241.687 165.197 241.708 165.231 241.728L113.27 211.728C113.236 211.708 113.204 211.687 113.172 211.664L165.133 241.664Z" fill="#8BC5E4"/>
<path d="M165.237 241.732C165.271 241.752 165.306 241.771 165.342 241.787L113.381 211.787C113.345 211.771 113.31 211.752 113.276 211.732L165.237 241.732Z" fill="#8BC5E4"/>
<path d="M165.341 241.787C165.874 242.034 166.575 241.859 167.247 241.501L115.286 211.501C114.614 211.859 113.913 212.034 113.38 211.787L165.341 241.787Z" fill="#8BC5E4"/>
<path d="M167.256 241.497C167.966 241.117 168.702 240.532 169.507 239.767L117.546 209.767C116.74 210.532 116.004 211.117 115.294 211.497L167.256 241.497Z" fill="#8BC5E4"/>
<path d="M169.507 239.767C171.109 238.262 172.962 236.082 175.076 233.332L123.114 203.332C121.001 206.082 119.148 208.262 117.545 209.767L169.507 239.767Z" fill="#8BC5E4"/>
<path d="M175.076 233.332C177.648 229.977 180.566 225.762 183.632 220.982L131.671 190.982C128.605 195.762 125.686 199.977 123.114 203.332L175.076 233.332Z" fill="#8BC5E4"/>
<path d="M186.308 219.667C186.471 219.732 186.634 219.796 186.796 219.859L134.834 189.859C134.672 189.796 134.509 189.732 134.347 189.667L186.308 219.667Z" fill="#8BC5E4"/>
<path d="M186.795 219.859C189.596 220.944 192.264 221.688 194.63 222.042L142.669 192.042C140.303 191.688 137.635 190.944 134.834 189.859L186.795 219.859Z" fill="#8BC5E4"/>
<path d="M194.63 222.042C196.744 222.352 198.606 222.387 200.199 222.047L148.237 192.047C146.644 192.387 144.782 192.352 142.669 192.042L194.63 222.042Z" fill="#8BC5E4"/>
<path d="M200.199 222.047C200.996 221.887 201.732 221.622 202.451 221.177L150.489 191.177C149.77 191.622 149.034 191.887 148.237 192.047L200.199 222.047Z" fill="#8BC5E4"/>
<path d="M202.451 221.177C203.178 220.727 203.932 220.032 204.469 219.082L152.507 189.082C151.97 190.032 151.217 190.727 150.489 191.177L202.451 221.177Z" fill="#8BC5E4"/>
<path d="M204.469 219.082C205.014 218.137 205.231 217.132 205.24 216.307L153.278 186.307C153.269 187.132 153.053 188.137 152.507 189.082L204.469 219.082Z" fill="#8BC5E4"/>
<path d="M205.239 216.307C205.257 215.467 205.109 214.712 204.841 213.957L152.879 183.957C153.148 184.712 153.295 185.467 153.278 186.307L205.239 216.307Z" fill="#8BC5E4"/>
<path d="M204.841 213.957C204.304 212.437 203.317 210.887 201.948 209.277L149.987 179.277C151.355 180.887 152.342 182.437 152.879 183.957L204.841 213.957Z" fill="#8BC5E4"/>
<path d="M201.948 209.277C200.442 207.5 198.471 205.669 196.131 203.907L144.17 173.907C146.51 175.669 148.481 177.5 149.987 179.277L201.948 209.277Z" fill="#8BC5E4"/>
<path d="M196.125 203.901C195.994 203.803 195.863 203.705 195.73 203.607L143.768 173.607C143.901 173.705 144.032 173.803 144.163 173.901L196.125 203.901Z" fill="#8BC5E4"/>
<path d="M195.523 200.647C198.121 195.737 200.32 191.217 201.948 187.407L149.987 157.407C148.359 161.217 146.159 165.737 143.561 170.647L195.523 200.647Z" fill="#8BC5E4"/>
<path d="M201.948 187.407C203.317 184.207 204.304 181.527 204.841 179.377L152.879 149.377C152.342 151.527 151.355 154.207 149.987 157.407L201.948 187.407Z" fill="#8BC5E4"/>
<path d="M204.841 179.377C205.109 178.312 205.257 177.387 205.239 176.577L153.278 146.577C153.295 147.387 153.148 148.312 152.879 149.377L204.841 179.377Z" fill="#8BC5E4"/>
<path d="M205.239 176.577C205.231 175.794 205.04 175.099 204.567 174.748L152.606 144.748C153.079 145.099 153.27 145.794 153.278 146.577L205.239 176.577Z" fill="#8BC5E4"/>
<path d="M204.573 174.752C204.541 174.728 204.509 174.706 204.475 174.686L152.513 144.686C152.547 144.706 152.579 144.728 152.611 144.752L204.573 174.752Z" fill="#8BC5E4"/>
<path d="M204.469 174.682C204.431 174.659 204.393 174.639 204.353 174.622L152.391 144.622C152.431 144.639 152.469 144.659 152.507 144.682L204.469 174.682Z" fill="#8BC5E4"/>
<path d="M204.353 174.622C203.829 174.388 203.134 174.563 202.46 174.913L150.498 144.913C151.172 144.563 151.867 144.388 152.391 144.622L204.353 174.622Z" fill="#8BC5E4"/>
<path d="M202.451 174.917C201.732 175.302 200.996 175.897 200.199 176.647L148.237 146.647C149.034 145.897 149.77 145.302 150.489 144.917L202.451 174.917Z" fill="#8BC5E4"/>
<path d="M200.199 176.647C198.606 178.157 196.744 180.332 194.63 183.082L142.669 153.082C144.782 150.332 146.644 148.157 148.237 146.647L200.199 176.647Z" fill="#8BC5E4"/>
<path d="M194.631 183.082C192.128 186.357 189.287 190.437 186.308 195.067L134.347 165.067C137.326 160.437 140.166 156.357 142.669 153.082L194.631 183.082Z" fill="#8BC5E4"/>
<path d="M214.541 36.9571C216.178 36.0121 217.635 35.9061 218.683 36.5071L166.721 6.50714C165.673 5.90614 164.216 6.01214 162.579 6.95714L214.541 36.9571Z" fill="#8BC5E4"/>
<path d="M218.68 36.5061C219.728 37.1061 220.367 38.4131 220.368 40.2961L168.407 10.2961C168.406 8.4131 167.767 7.1061 166.719 6.5061L218.68 36.5061Z" fill="#8BC5E4"/>
<path d="M220.369 215.862C220.369 219.632 217.814 224.047 214.541 225.937L162.579 195.937C165.853 194.047 168.408 189.632 168.408 185.862L220.369 215.862Z" fill="#8BC5E4"/>
<path d="M62.5875 313.667C60.9504 314.612 59.4934 314.718 58.4454 314.117L6.48389 284.117C7.53189 284.718 8.98889 284.612 10.626 283.667L62.5875 313.667Z" fill="#8BC5E4"/>
<path d="M58.4474 314.118C57.3994 313.518 56.7603 312.211 56.7593 310.328L4.79785 280.328C4.79885 282.211 5.43785 283.518 6.48585 284.118L58.4474 314.118Z" fill="#8BC5E4"/>
<path d="M56.7593 134.762C56.7593 130.992 59.3142 126.577 62.5877 124.687L10.6262 94.687C7.35255 96.577 4.79785 100.992 4.79785 104.762L56.7593 134.762Z" fill="#8BC5E4"/>
<path d="M62.5876 119.177C56.742 122.552 51.9615 130.802 51.9615 137.532L0 107.532C0 100.802 4.7804 92.552 10.6261 89.177L62.5876 119.177Z" fill="#8BC5E4"/>
<path d="M51.9615 313.092C51.9615 316.464 53.1615 318.831 55.0935 319.93L3.132 289.93C1.2 288.831 0 286.464 0 283.092L51.9615 313.092Z" fill="#8BC5E4"/>
<path d="M55.1026 319.935C57.0246 321.023 59.6696 320.859 62.5796 319.182L10.6181 289.182C7.70811 290.859 5.06311 291.023 3.14111 289.935L55.1026 319.935Z" fill="#8BC5E4"/>
<path d="M214.541 231.447C220.386 228.072 225.167 219.822 225.167 213.092L173.205 183.092C173.205 189.822 168.425 198.072 162.579 201.447L214.541 231.447Z" fill="#8BC5E4"/>
<path d="M225.167 37.5321C225.167 34.1601 223.967 31.7931 222.035 30.6941L170.073 0.694092C172.005 1.79309 173.205 4.16009 173.205 7.53209L225.167 37.5321Z" fill="#8BC5E4"/>
<path d="M222.025 30.689C220.103 29.601 217.458 29.765 214.549 31.442L162.588 1.44204C165.497 -0.234963 168.142 -0.398963 170.064 0.689037L222.025 30.689Z" fill="#8BC5E4"/>
<path d="M214.541 36.9571C216.178 36.0121 217.635 35.9061 218.683 36.5071L166.721 6.50714C165.673 5.90614 164.216 6.01214 162.579 6.95714L214.541 36.9571Z" fill="#8BC5E4"/>
<path d="M218.68 36.5061C219.728 37.1061 220.367 38.4131 220.368 40.2961L168.407 10.2961C168.406 8.4131 167.767 7.1061 166.719 6.5061L218.68 36.5061Z" fill="#8BC5E4"/>
<path d="M220.369 215.862C220.369 219.632 217.814 224.047 214.541 225.937L162.579 195.937C165.853 194.047 168.408 189.632 168.408 185.862L220.369 215.862Z" fill="#8BC5E4"/>
<path d="M62.5875 313.667C60.9504 314.612 59.4934 314.718 58.4454 314.117L6.48389 284.117C7.53189 284.718 8.98889 284.612 10.626 283.667L62.5875 313.667Z" fill="#8BC5E4"/>
<path d="M58.4474 314.118C57.3994 313.518 56.7603 312.211 56.7593 310.328L4.79785 280.328C4.79885 282.211 5.43785 283.518 6.48585 284.118L58.4474 314.118Z" fill="#8BC5E4"/>
<path d="M56.7593 134.762C56.7593 130.992 59.3142 126.577 62.5877 124.687L10.6262 94.687C7.35255 96.577 4.79785 100.992 4.79785 104.762L56.7593 134.762Z" fill="#8BC5E4"/>
<path d="M186.308 195.067C189.287 190.437 192.128 186.357 194.631 183.082L142.669 153.082C140.166 156.357 137.326 160.437 134.347 165.067L186.308 195.067Z" fill="#8BC5E4"/>
<path d="M194.63 183.082C196.744 180.332 198.606 178.157 200.199 176.647L148.237 146.647C146.644 148.157 144.782 150.332 142.669 153.082L194.63 183.082Z" fill="#8BC5E4"/>
<path d="M200.199 176.647C200.996 175.897 201.732 175.302 202.451 174.917L150.489 144.917C149.77 145.302 149.034 145.897 148.237 146.647L200.199 176.647Z" fill="#8BC5E4"/>
<path d="M202.451 174.917C203.128 174.564 203.826 174.388 204.353 174.622L152.391 144.622C151.864 144.388 151.166 144.564 150.489 144.917L202.451 174.917Z" fill="#8BC5E4"/>
<path d="M204.359 174.625C204.394 174.641 204.428 174.658 204.462 174.678L152.501 144.678C152.467 144.658 152.433 144.641 152.398 144.625L204.359 174.625Z" fill="#8BC5E4"/>
<path d="M204.469 174.682C204.503 174.702 204.536 174.724 204.568 174.748L152.606 144.748C152.574 144.724 152.541 144.702 152.507 144.682L204.469 174.682Z" fill="#8BC5E4"/>
<path d="M204.579 174.756C205.042 175.109 205.23 175.794 205.24 176.567L153.278 146.567C153.268 145.794 153.08 145.109 152.617 144.756L204.579 174.756Z" fill="#8BC5E4"/>
<path d="M205.239 176.577C205.257 177.387 205.109 178.312 204.841 179.377L152.879 149.377C153.148 148.312 153.295 147.387 153.278 146.577L205.239 176.577Z" fill="#8BC5E4"/>
<path d="M204.841 179.377C204.304 181.527 203.317 184.207 201.948 187.407L149.987 157.407C151.355 154.207 152.342 151.527 152.879 149.377L204.841 179.377Z" fill="#8BC5E4"/>
<path d="M201.948 187.407C200.32 191.217 198.121 195.737 195.523 200.647L143.561 170.647C146.159 165.737 148.359 161.217 149.987 157.407L201.948 187.407Z" fill="#8BC5E4"/>
<path d="M195.722 203.602C195.86 203.703 195.997 203.805 196.132 203.907L144.17 173.907C144.035 173.805 143.898 173.703 143.76 173.602L195.722 203.602Z" fill="#8BC5E4"/>
<path d="M196.131 203.907C198.468 205.667 200.437 207.496 201.943 209.271L149.982 179.271C148.476 177.496 146.507 175.667 144.17 173.907L196.131 203.907Z" fill="#8BC5E4"/>
<path d="M201.948 209.277C203.317 210.887 204.304 212.437 204.841 213.957L152.879 183.957C152.342 182.437 151.355 180.887 149.987 179.277L201.948 209.277Z" fill="#8BC5E4"/>
<path d="M204.841 213.957C205.109 214.712 205.257 215.467 205.239 216.307L153.278 186.307C153.295 185.467 153.148 184.712 152.879 183.957L204.841 213.957Z" fill="#8BC5E4"/>
<path d="M205.24 216.307C205.231 217.132 205.014 218.137 204.469 219.082L152.507 189.082C153.053 188.137 153.269 187.132 153.278 186.307L205.24 216.307Z" fill="#8BC5E4"/>
<path d="M204.469 219.082C203.932 220.032 203.178 220.727 202.451 221.177L150.489 191.177C151.217 190.727 151.97 190.032 152.507 189.082L204.469 219.082Z" fill="#8BC5E4"/>
<path d="M202.451 221.177C201.732 221.622 200.996 221.887 200.199 222.047L148.237 192.047C149.034 191.887 149.77 191.622 150.489 191.177L202.451 221.177Z" fill="#8BC5E4"/>
<path d="M200.199 222.047C198.606 222.387 196.744 222.352 194.63 222.042L142.669 192.042C144.782 192.352 146.644 192.387 148.237 192.047L200.199 222.047Z" fill="#8BC5E4"/>
<path d="M194.63 222.042C192.264 221.688 189.596 220.944 186.795 219.859L134.834 189.859C137.635 190.944 140.303 191.688 142.669 192.042L194.63 222.042Z" fill="#8BC5E4"/>
<path d="M186.786 219.855C186.629 219.794 186.473 219.733 186.316 219.67L134.355 189.67C134.512 189.733 134.668 189.794 134.825 189.855L186.786 219.855Z" fill="#8BC5E4"/>
<path d="M183.632 220.982C180.566 225.762 177.648 229.977 175.076 233.332L123.114 203.332C125.686 199.977 128.605 195.762 131.671 190.982L183.632 220.982Z" fill="#8BC5E4"/>
<path d="M175.076 233.332C172.962 236.082 171.109 238.262 169.507 239.767L117.545 209.767C119.148 208.262 121.001 206.082 123.114 203.332L175.076 233.332Z" fill="#8BC5E4"/>
<path d="M169.507 239.767C168.702 240.532 167.966 241.117 167.256 241.497L115.294 211.497C116.004 211.117 116.74 210.532 117.546 209.767L169.507 239.767Z" fill="#8BC5E4"/>
<path d="M167.255 241.497C166.581 241.858 165.877 242.034 165.342 241.787L113.381 211.787C113.916 212.034 114.62 211.858 115.294 211.497L167.255 241.497Z" fill="#8BC5E4"/>
<path d="M165.35 241.79C165.314 241.774 165.279 241.756 165.245 241.736L113.283 211.736C113.317 211.756 113.352 211.774 113.388 211.79L165.35 241.79Z" fill="#8BC5E4"/>
<path d="M165.238 241.732C165.204 241.712 165.171 241.691 165.14 241.668L113.178 211.668C113.209 211.691 113.242 211.712 113.276 211.732L165.238 241.732Z" fill="#8BC5E4"/>
<path d="M165.128 241.659C164.665 241.312 164.477 240.611 164.459 239.861L112.497 209.861C112.515 210.611 112.703 211.312 113.166 211.659L165.128 241.659Z" fill="#8BC5E4"/>
<path d="M164.458 239.852C164.45 239.027 164.606 238.097 164.865 237.037L112.904 207.037C112.644 208.097 112.488 209.027 112.497 209.852L164.458 239.852Z" fill="#8BC5E4"/>
<path d="M164.865 237.037C165.402 234.897 166.39 232.207 167.758 229.017L115.796 199.017C114.428 202.207 113.441 204.897 112.904 207.037L164.865 237.037Z" fill="#8BC5E4"/>
<path d="M167.758 229.017C169.36 225.292 171.473 220.912 173.993 216.147L122.032 186.147C119.512 190.912 117.399 195.292 115.796 199.017L167.758 229.017Z" fill="#8BC5E4"/>
<path d="M174.192 212.962C174.05 212.858 173.909 212.753 173.769 212.649L121.807 182.649C121.947 182.753 122.088 182.858 122.231 182.962L174.192 212.962Z" fill="#8BC5E4"/>
<path d="M173.768 212.649C171.35 210.842 169.309 208.971 167.762 207.153L115.801 177.153C117.348 178.971 119.389 180.842 121.807 182.649L173.768 212.649Z" fill="#8BC5E4"/>
<path d="M167.758 207.147C166.39 205.527 165.394 203.992 164.865 202.457L112.904 172.457C113.432 173.992 114.428 175.527 115.796 177.147L167.758 207.147Z" fill="#8BC5E4"/>
<path d="M164.865 202.457C164.606 201.697 164.45 200.947 164.458 200.122L112.497 170.122C112.488 170.947 112.644 171.697 112.904 172.457L164.865 202.457Z" fill="#8BC5E4"/>
<path d="M164.458 200.122C164.475 199.272 164.692 198.287 165.237 197.332L113.276 167.332C112.73 168.287 112.514 169.272 112.497 170.122L164.458 200.122Z" fill="#8BC5E4"/>
<path d="M165.237 197.332C165.783 196.387 166.536 195.692 167.255 195.237L115.294 165.237C114.575 165.692 113.821 166.387 113.276 167.332L165.237 197.332Z" fill="#8BC5E4"/>
<path d="M167.256 195.237C167.966 194.797 168.702 194.542 169.507 194.367L117.546 164.367C116.74 164.542 116.004 164.797 115.294 165.237L167.256 195.237Z" fill="#8BC5E4"/>
<path d="M169.507 194.367C171.109 194.032 172.962 194.062 175.076 194.372L123.114 164.372C121.001 164.062 119.148 164.032 117.545 164.367L169.507 194.367Z" fill="#8BC5E4"/>
<path d="M175.076 194.372C177.508 194.745 180.249 195.503 183.131 196.641L131.169 166.641C128.287 165.503 125.546 164.745 123.114 164.372L175.076 194.372Z" fill="#8BC5E4"/>
<path d="M183.141 196.644C183.301 196.708 183.462 196.772 183.624 196.838L131.662 166.838C131.5 166.772 131.339 166.708 131.179 166.644L183.141 196.644Z" fill="#8BC5E4"/>
<path d="M202.364 177.797C202.667 177.632 202.711 177.677 202.719 177.672L150.758 147.672C150.749 147.677 150.706 147.632 150.403 147.797L202.364 177.797Z" fill="#8BC5E4"/>
<path d="M202.719 177.672C202.719 177.682 202.789 177.702 202.789 178.042L150.827 148.042C150.827 147.702 150.758 147.682 150.758 147.672L202.719 177.672Z" fill="#8BC5E4"/>
<path d="M202.788 178.042C202.797 178.377 202.71 179.007 202.503 179.847L150.541 149.847C150.749 149.007 150.835 148.377 150.827 148.042L202.788 178.042Z" fill="#8BC5E4"/>
<path d="M202.503 179.847C202.096 181.502 201.195 184.002 199.896 187.042L147.935 157.042C149.234 154.002 150.134 151.502 150.541 149.847L202.503 179.847Z" fill="#8BC5E4"/>
<path d="M199.896 187.042C198.251 190.872 195.956 195.567 193.202 200.717L141.24 170.717C143.994 165.567 146.289 160.872 147.935 157.042L199.896 187.042Z" fill="#8BC5E4"/>
<path d="M193.202 200.717C192.798 199.299 192.041 198.262 191.025 197.665L139.064 167.665C140.08 168.262 140.837 169.299 141.24 170.717L193.202 200.717Z" fill="#8BC5E4"/>
<path d="M191.029 197.666C190.015 197.069 188.744 196.91 187.313 197.25L135.351 167.25C136.782 166.91 138.053 167.069 139.067 167.666L191.029 197.666Z" fill="#8BC5E4"/>
<path d="M187.304 197.252C190.439 192.322 193.418 188.012 195.947 184.712L143.985 154.712C141.456 158.012 138.477 162.322 135.342 167.252L187.304 197.252Z" fill="#8BC5E4"/>
<path d="M195.947 184.712C197.947 182.097 199.688 180.092 200.944 178.917L148.982 148.917C147.727 150.092 145.986 152.097 143.985 154.712L195.947 184.712Z" fill="#8BC5E4"/>
<path d="M200.944 178.917C201.568 178.327 202.07 177.957 202.364 177.797L150.403 147.797C150.108 147.957 149.606 148.327 148.982 148.917L200.944 178.917Z" fill="#8BC5E4"/>
<path d="M167.342 198.017C167.645 197.832 168.139 197.627 168.771 197.492L116.809 167.492C116.177 167.627 115.683 167.832 115.38 168.017L167.342 198.017Z" fill="#8BC5E4"/>
<path d="M168.771 197.492C170.018 197.222 171.759 197.217 173.768 197.517L121.806 167.517C119.797 167.217 118.057 167.222 116.81 167.492L168.771 197.492Z" fill="#8BC5E4"/>
<path d="M173.768 197.517C176.164 197.886 178.956 198.682 181.916 199.874L129.954 169.874C126.994 168.682 124.202 167.886 121.807 167.517L173.768 197.517Z" fill="#8BC5E4"/>
<path d="M181.916 199.874C182.08 199.941 182.246 200.008 182.411 200.077L130.449 170.077C130.284 170.008 130.118 169.941 129.954 169.874L181.916 199.874Z" fill="#8BC5E4"/>
<path d="M182.411 200.077C179.544 202.702 177.31 206.592 176.513 210.362L124.552 180.362C125.348 176.592 127.583 172.702 130.449 170.077L182.411 200.077Z" fill="#8BC5E4"/>
<path d="M176.513 210.362C176.369 210.258 176.225 210.154 176.082 210.05L124.12 180.05C124.263 180.154 124.407 180.258 124.552 180.362L176.513 210.362Z" fill="#8BC5E4"/>
<path d="M176.081 210.05C173.522 208.178 171.381 206.239 169.823 204.413L117.862 174.413C119.42 176.239 121.561 178.178 124.12 180.05L176.081 210.05Z" fill="#8BC5E4"/>
<path d="M169.819 204.407C168.511 202.872 167.619 201.407 167.212 200.222L115.25 170.222C115.658 171.407 116.55 172.872 117.857 174.407L169.819 204.407Z" fill="#8BC5E4"/>
<path d="M167.212 200.222C166.996 199.627 166.918 199.092 166.918 198.752L114.956 168.752C114.956 169.092 115.034 169.627 115.25 170.222L167.212 200.222Z" fill="#8BC5E4"/>
<path d="M166.918 198.752C166.926 198.407 166.987 198.312 166.987 198.302L115.025 168.302C115.025 168.312 114.965 168.407 114.956 168.752L166.918 198.752Z" fill="#8BC5E4"/>
<path d="M166.987 198.302C166.996 198.297 167.039 198.202 167.342 198.017L115.38 168.017C115.077 168.202 115.034 168.297 115.025 168.302L166.987 198.302Z" fill="#8BC5E4"/>
<path d="M193.202 206.047C193.347 206.151 193.491 206.256 193.634 206.361L141.672 176.361C141.529 176.256 141.385 176.151 141.24 176.047L193.202 206.047Z" fill="#8BC5E4"/>
<path d="M193.632 206.36C196.192 208.24 198.333 210.17 199.891 212.006L147.93 182.006C146.372 180.17 144.231 178.24 141.671 176.36L193.632 206.36Z" fill="#8BC5E4"/>
<path d="M199.896 212.012C201.195 213.542 202.096 215.002 202.503 216.197L150.541 186.197C150.134 185.002 149.234 183.542 147.935 182.012L199.896 212.012Z" fill="#8BC5E4"/>
<path d="M202.503 216.197C202.71 216.797 202.797 217.317 202.788 217.672L150.827 187.672C150.835 187.317 150.749 186.797 150.541 186.197L202.503 216.197Z" fill="#8BC5E4"/>
<path d="M202.789 217.672C202.789 218.012 202.719 218.102 202.719 218.112L150.758 188.112C150.758 188.102 150.827 188.012 150.827 187.672L202.789 217.672Z" fill="#8BC5E4"/>
<path d="M202.719 218.112C202.711 218.117 202.667 218.222 202.364 218.407L150.403 188.407C150.706 188.222 150.749 188.117 150.758 188.112L202.719 218.112Z" fill="#8BC5E4"/>
<path d="M202.364 218.407C202.07 218.587 201.568 218.787 200.944 218.917L148.982 188.917C149.606 188.787 150.108 188.587 150.403 188.407L202.364 218.407Z" fill="#8BC5E4"/>
<path d="M200.944 218.917C199.688 219.202 197.947 219.197 195.947 218.902L143.985 188.902C145.986 189.197 147.727 189.202 148.982 188.917L200.944 218.917Z" fill="#8BC5E4"/>
<path d="M195.947 218.902C193.551 218.523 190.751 217.74 187.798 216.545L135.837 186.545C138.79 187.74 141.59 188.523 143.985 188.902L195.947 218.902Z" fill="#8BC5E4"/>
<path d="M187.808 216.549C187.644 216.483 187.479 216.415 187.314 216.346L135.352 186.346C135.517 186.415 135.682 186.483 135.846 186.549L187.808 216.549Z" fill="#8BC5E4"/>
<path d="M187.304 216.342C190.17 213.717 192.396 209.822 193.201 206.047L141.24 176.047C140.435 179.822 138.209 183.717 135.342 186.342L187.304 216.342Z" fill="#8BC5E4"/>
<path d="M176.504 215.697C176.907 217.119 177.665 218.159 178.681 218.758L126.72 188.758C125.704 188.159 124.946 187.119 124.543 185.697L176.504 215.697Z" fill="#8BC5E4"/>
<path d="M178.678 218.756C179.693 219.354 180.966 219.512 182.402 219.169L130.441 189.169C129.005 189.512 127.732 189.354 126.717 188.756L178.678 218.756Z" fill="#8BC5E4"/>
<path d="M182.411 219.167C179.267 224.102 176.297 228.387 173.768 231.707L121.807 201.707C124.335 198.387 127.306 194.102 130.45 189.167L182.411 219.167Z" fill="#8BC5E4"/>
<path d="M173.768 231.707C171.759 234.317 170.018 236.332 168.771 237.492L116.81 207.492C118.057 206.332 119.797 204.317 121.806 201.707L173.768 231.707Z" fill="#8BC5E4"/>
<path d="M168.771 237.492C168.139 238.087 167.645 238.462 167.342 238.627L115.38 208.627C115.683 208.462 116.177 208.087 116.809 207.492L168.771 237.492Z" fill="#8BC5E4"/>
<path d="M167.342 238.627C167.039 238.792 166.996 238.737 166.987 238.742L115.025 208.742C115.034 208.737 115.077 208.792 115.38 208.627L167.342 238.627Z" fill="#8BC5E4"/>
<path d="M166.986 238.742C166.976 238.736 166.926 238.708 166.918 238.382L114.956 208.382C114.964 208.708 115.014 208.736 115.025 208.742L166.986 238.742Z" fill="#8BC5E4"/>
<path d="M166.918 238.382C166.918 238.032 166.996 237.417 167.212 236.572L115.25 206.572C115.034 207.417 114.956 208.032 114.956 208.382L166.918 238.382Z" fill="#8BC5E4"/>
<path d="M167.212 236.572C167.619 234.907 168.511 232.402 169.819 229.377L117.857 199.377C116.55 202.402 115.658 204.907 115.25 206.572L167.212 236.572Z" fill="#8BC5E4"/>
<path d="M169.819 229.377C171.464 225.537 173.751 220.857 176.505 215.697L124.543 185.697C121.789 190.857 119.503 195.537 117.857 199.377L169.819 229.377Z" fill="#8BC5E4"/>
<path d="M65.4974 269.067L145.31 222.987V241.217L65.4974 287.297V269.067ZM176.505 215.697C177.31 218.542 179.536 219.857 182.411 219.167C179.267 224.102 176.297 228.387 173.768 231.707C171.759 234.317 170.018 236.332 168.771 237.492C168.139 238.087 167.645 238.462 167.342 238.627C167.039 238.792 166.996 238.737 166.987 238.742L166.986 238.742C166.976 238.736 166.926 238.708 166.918 238.382C166.918 238.032 166.996 237.417 167.212 236.572C167.619 234.907 168.511 232.402 169.819 229.377C171.464 225.537 173.751 220.857 176.505 215.697ZM193.202 206.047C195.955 208.027 198.25 210.072 199.896 212.012C201.195 213.542 202.096 215.002 202.503 216.197C202.71 216.797 202.797 217.317 202.788 217.672C202.788 218.012 202.719 218.102 202.719 218.112C202.71 218.117 202.667 218.222 202.364 218.407C202.07 218.587 201.567 218.787 200.944 218.917C199.688 219.202 197.947 219.197 195.947 218.902C193.418 218.502 190.439 217.652 187.304 216.342C190.17 213.717 192.396 209.822 193.202 206.047ZM167.342 198.017C167.645 197.832 168.139 197.627 168.771 197.492C170.018 197.222 171.759 197.217 173.768 197.517C176.297 197.907 179.267 198.772 182.411 200.077C179.544 202.702 177.31 206.592 176.513 210.362C173.759 208.392 171.464 206.337 169.819 204.407C168.511 202.872 167.619 201.407 167.212 200.222C166.996 199.627 166.918 199.092 166.918 198.752C166.926 198.407 166.987 198.312 166.987 198.302C166.996 198.297 167.039 198.202 167.342 198.017ZM202.364 177.797C202.667 177.632 202.71 177.677 202.719 177.672C202.719 177.682 202.788 177.702 202.788 178.042C202.797 178.377 202.71 179.007 202.503 179.847C202.096 181.502 201.195 184.002 199.896 187.042C198.25 190.872 195.955 195.567 193.202 200.717C192.396 197.882 190.17 196.567 187.304 197.252C190.439 192.322 193.418 188.012 195.947 184.712C197.947 182.097 199.688 180.092 200.944 178.917C201.567 178.327 202.07 177.957 202.364 177.797ZM184.948 180.632L180.445 188.172L183.632 186.332V196.842C180.566 195.592 177.648 194.767 175.076 194.372C172.962 194.062 171.109 194.032 169.507 194.367C168.702 194.542 167.966 194.797 167.255 195.237C166.537 195.692 165.783 196.387 165.238 197.332C164.692 198.287 164.475 199.272 164.458 200.122C164.449 200.947 164.605 201.697 164.865 202.457C165.393 203.992 166.389 205.527 167.758 207.147C169.394 209.072 171.586 211.057 174.192 212.962L165.203 218.152V214.492L160.907 222.142L165.203 224.622V221.222L173.993 216.147C171.473 220.912 169.36 225.292 167.758 229.017C166.389 232.207 165.402 234.897 164.865 237.037C164.605 238.097 164.449 239.027 164.458 239.852C164.475 240.662 164.692 241.417 165.238 241.732C165.783 242.057 166.537 241.882 167.255 241.497C167.966 241.117 168.702 240.532 169.507 239.767C171.109 238.262 172.962 236.082 175.076 233.332C177.648 229.977 180.566 225.762 183.632 220.982V231.502L180.445 233.342L184.948 235.682L189.261 228.252L186.308 229.957V219.667C189.287 220.857 192.128 221.667 194.63 222.042C196.744 222.352 198.606 222.387 200.199 222.047C200.996 221.887 201.732 221.622 202.451 221.177C203.178 220.727 203.932 220.032 204.469 219.082C205.014 218.137 205.231 217.132 205.239 216.307C205.257 215.467 205.109 214.712 204.841 213.957C204.304 212.437 203.317 210.887 201.948 209.277C200.355 207.397 198.242 205.457 195.722 203.602L204.512 198.527V201.927L208.807 194.487L204.512 191.797V195.457L195.522 200.647C198.121 195.737 200.32 191.217 201.948 187.407C203.317 184.207 204.304 181.527 204.841 179.377C205.109 178.312 205.257 177.387 205.239 176.577C205.231 175.742 205.014 175.007 204.469 174.682C203.932 174.362 203.178 174.537 202.451 174.917C201.732 175.302 200.996 175.897 200.199 176.647C198.606 178.157 196.744 180.332 194.63 183.082C192.128 186.357 189.287 190.437 186.308 195.067V184.787L189.261 183.082L184.948 180.632ZM96.3972 196.627L70.0527 229.807L96.3972 232.297V220.677L127.34 202.812V189.372L96.3972 207.237V196.627ZM164.562 130.422V141.032L133.619 158.897V172.327L164.562 154.462V166.082L190.907 133.172L164.562 130.422ZM114.116 133.887L87.7629 167.062L114.116 169.547V157.927L145.059 140.062V126.632L114.116 144.497V133.887ZM181.779 67.892V78.502L150.836 96.367V109.797L181.779 91.932V103.552L208.123 70.652L181.779 67.892ZM62.5876 124.687L214.54 36.957C217.814 35.067 220.369 36.532 220.369 40.302V215.862C220.369 219.632 217.814 224.047 214.54 225.937L62.5876 313.667C59.314 315.557 56.7592 314.092 56.7592 310.322V134.762C56.7592 130.992 59.314 126.577 62.5876 124.687ZM62.5876 119.177C56.7419 122.552 51.9614 130.802 51.9614 137.532V313.092C51.9614 319.822 56.7419 322.552 62.5876 319.177L214.54 231.447C220.386 228.072 225.167 219.822 225.167 213.092V37.532C225.167 30.802 220.386 28.072 214.54 31.447L62.5876 119.177Z" fill="#8BC5E4"/>
<path fill-rule="evenodd" clip-rule="evenodd" d="M62.5876 124.687L214.54 36.957C217.814 35.067 220.369 36.532 220.369 40.302V215.862C220.369 219.632 217.814 224.047 214.54 225.937L62.5876 313.667C59.314 315.557 56.7592 314.092 56.7592 310.322V134.762C56.7592 130.992 59.314 126.577 62.5876 124.687ZM145.31 222.987L65.4974 269.067V287.297L145.31 241.217V222.987ZM180.445 188.172L184.948 180.632L189.261 183.082L186.308 184.787V195.067C189.287 190.437 192.128 186.357 194.63 183.082C196.744 180.332 198.606 178.157 200.199 176.647C200.996 175.897 201.732 175.302 202.451 174.917C203.178 174.537 203.932 174.362 204.469 174.682C205.014 175.007 205.231 175.742 205.239 176.577C205.257 177.387 205.109 178.312 204.841 179.377C204.304 181.527 203.317 184.207 201.948 187.407C200.32 191.217 198.121 195.737 195.522 200.647L204.512 195.457V191.797L208.807 194.487L204.512 201.927V198.527L195.722 203.602C198.242 205.457 200.355 207.397 201.948 209.277C203.317 210.887 204.304 212.437 204.841 213.957C205.109 214.712 205.257 215.467 205.239 216.307C205.231 217.132 205.014 218.137 204.469 219.082C203.932 220.032 203.178 220.727 202.451 221.177C201.732 221.622 200.996 221.887 200.199 222.047C198.606 222.387 196.744 222.352 194.63 222.042C192.128 221.667 189.287 220.857 186.308 219.667V229.957L189.261 228.252L184.948 235.682L180.445 233.342L183.632 231.502V220.982C180.566 225.762 177.648 229.977 175.076 233.332C172.962 236.082 171.109 238.262 169.507 239.767C168.702 240.532 167.966 241.117 167.255 241.497C166.537 241.882 165.783 242.057 165.238 241.732C164.692 241.417 164.475 240.662 164.458 239.852C164.449 239.027 164.605 238.097 164.865 237.037C165.402 234.897 166.389 232.207 167.758 229.017C169.36 225.292 171.473 220.912 173.993 216.147L165.203 221.222V224.622L160.907 222.142L165.203 214.492V218.152L174.192 212.962C171.586 211.057 169.394 209.072 167.758 207.147C166.389 205.527 165.393 203.992 164.865 202.457C164.605 201.697 164.449 200.947 164.458 200.122C164.475 199.272 164.692 198.287 165.238 197.332C165.783 196.387 166.537 195.692 167.255 195.237C167.966 194.797 168.702 194.542 169.507 194.367C171.109 194.032 172.962 194.062 175.076 194.372C177.648 194.767 180.566 195.592 183.632 196.842V186.332L180.445 188.172ZM70.0527 229.807L96.3972 196.627V207.237L127.34 189.372V202.812L96.3972 220.677V232.297L70.0527 229.807ZM164.562 141.032V130.422L190.907 133.172L164.562 166.082V154.462L133.619 172.327V158.897L164.562 141.032ZM87.7629 167.062L114.116 133.887V144.497L145.059 126.632V140.062L114.116 157.927V169.547L87.7629 167.062ZM181.779 78.502V67.892L208.123 70.652L181.779 103.552V91.932L150.836 109.797V96.367L181.779 78.502Z" fill="white"/>
<path d="M202.364 177.797C202.667 177.632 202.71 177.677 202.719 177.672C202.719 177.682 202.788 177.702 202.788 178.042C202.797 178.377 202.71 179.007 202.503 179.847C202.096 181.502 201.195 184.002 199.896 187.042C198.25 190.872 195.955 195.567 193.202 200.717C192.396 197.882 190.17 196.567 187.304 197.252C190.439 192.322 193.418 188.012 195.947 184.712C197.947 182.097 199.688 180.092 200.944 178.917C201.567 178.327 202.07 177.957 202.364 177.797Z" fill="white"/>
<path d="M167.342 198.017C167.645 197.832 168.139 197.627 168.771 197.492C170.018 197.222 171.759 197.217 173.768 197.517C176.297 197.907 179.267 198.772 182.411 200.077C179.544 202.702 177.31 206.592 176.513 210.362C173.759 208.392 171.464 206.337 169.819 204.407C168.511 202.872 167.619 201.407 167.212 200.222C166.996 199.627 166.918 199.092 166.918 198.752C166.926 198.407 166.987 198.312 166.987 198.302C166.996 198.297 167.039 198.202 167.342 198.017Z" fill="white"/>
<path d="M193.202 206.047C195.955 208.027 198.25 210.072 199.896 212.012C201.195 213.542 202.096 215.002 202.503 216.197C202.71 216.797 202.797 217.317 202.788 217.672C202.788 218.012 202.719 218.102 202.719 218.112C202.71 218.117 202.667 218.222 202.364 218.407C202.07 218.587 201.567 218.787 200.944 218.917C199.688 219.202 197.947 219.197 195.947 218.902C193.418 218.502 190.439 217.652 187.304 216.342C190.17 213.717 192.396 209.822 193.202 206.047Z" fill="white"/>
<path d="M176.505 215.697C177.31 218.542 179.536 219.857 182.411 219.167C179.267 224.102 176.297 228.387 173.768 231.707C171.759 234.317 170.018 236.332 168.771 237.492C168.139 238.087 167.645 238.462 167.342 238.627C167.039 238.792 166.996 238.737 166.987 238.742L166.986 238.742C166.976 238.736 166.926 238.708 166.918 238.382C166.918 238.032 166.996 237.417 167.212 236.572C167.619 234.907 168.511 232.402 169.819 229.377C171.464 225.537 173.751 220.857 176.505 215.697Z" fill="white"/>
</svg>
