<svg width="226" height="326" viewBox="0 0 226 326" fill="none" xmlns="http://www.w3.org/2000/svg">
<path d="M49.6841 113.317V133.407L101.646 103.407V83.3174L49.6841 113.317Z" fill="#8BC5E4"/>
<path d="M49.6841 133.407L57.6169 137.987L109.578 107.987L101.646 103.407L49.6841 133.407Z" fill="#8BC5E4"/>
<path d="M57.6165 137.988L43.9766 161.073L95.9381 131.073L109.578 107.988L57.6165 137.988Z" fill="#8BC5E4"/>
<path d="M43.9766 161.072L27.167 151.367L79.1285 121.367L95.9381 131.072L43.9766 161.072Z" fill="#8BC5E4"/>
<path d="M27.167 151.367V171.457L79.1285 141.457V121.367L27.167 151.367Z" fill="#8BC5E4"/>
<path d="M27.167 171.458L56.0403 188.128L108.002 158.128L79.1285 141.458L27.167 171.458Z" fill="#8BC5E4"/>
<path d="M56.0405 188.127V170.357L108.002 140.357V158.127L56.0405 188.127Z" fill="#8BC5E4"/>
<path d="M56.0405 170.358L76.0977 167.788L128.059 137.788L108.002 140.358L56.0405 170.358Z" fill="#8BC5E4"/>
<path d="M76.0977 167.788L81.9087 182.973L133.87 152.973L128.059 137.788L76.0977 167.788Z" fill="#8BC5E4"/>
<path d="M81.9087 182.973L74.3916 178.633L126.353 148.633L133.87 152.973L81.9087 182.973Z" fill="#8BC5E4"/>
<path d="M74.3916 178.633V198.723L126.353 168.723V148.633L74.3916 178.633Z" fill="#8BC5E4"/>
<path d="M74.3916 198.722L103.265 215.392L155.226 185.392L126.353 168.722L74.3916 198.722Z" fill="#8BC5E4"/>
<path d="M103.265 215.392V195.302L155.227 165.302V185.392L103.265 215.392Z" fill="#8BC5E4"/>
<path d="M103.265 195.302L95.8691 191.032L147.831 161.032L155.227 165.302L103.265 195.302Z" fill="#8BC5E4"/>
<path d="M95.8691 191.033L101.654 182.603L153.616 152.603L147.831 161.033L95.8691 191.033Z" fill="#8BC5E4"/>
<path d="M101.654 182.603L121.616 208.468L173.578 178.468L153.616 152.603L101.654 182.603Z" fill="#8BC5E4"/>
<path d="M121.616 208.468V225.988L173.577 195.988V178.468L121.616 208.468Z" fill="#8BC5E4"/>
<path d="M121.616 225.988L150.489 242.658L202.451 212.658L173.577 195.988L121.616 225.988Z" fill="#8BC5E4"/>
<path d="M150.489 242.657V222.567L202.451 192.567V212.657L150.489 242.657Z" fill="#8BC5E4"/>
<path d="M150.489 222.567L133.992 213.042L185.953 183.042L202.451 192.567L150.489 222.567Z" fill="#8BC5E4"/>
<path d="M133.992 213.042L120.066 174.042L172.027 144.042L185.953 183.042L133.992 213.042Z" fill="#8BC5E4"/>
<path d="M120.066 174.042L128.336 178.817L180.298 148.817L172.027 144.042L120.066 174.042Z" fill="#8BC5E4"/>
<path d="M128.336 178.818V158.728L180.298 128.728V148.818L128.336 178.818Z" fill="#8BC5E4"/>
<path d="M128.336 158.727L99.4546 142.052L151.416 112.052L180.298 128.727L128.336 158.727Z" fill="#8BC5E4"/>
<path d="M99.4546 142.052V159.892L151.416 129.892V112.052L99.4546 142.052Z" fill="#8BC5E4"/>
<path d="M99.4546 159.893L88.9497 161.238L140.911 131.238L151.416 129.893L99.4546 159.893Z" fill="#8BC5E4"/>
<path d="M88.9496 161.237L78.5659 147.782L130.527 117.782L140.911 131.237L88.9496 161.237Z" fill="#8BC5E4"/>
<path d="M78.5659 147.782V129.992L130.527 99.9924V117.782L78.5659 147.782Z" fill="#8BC5E4"/>
<path d="M78.566 129.992L49.6841 113.317L101.646 83.3174L130.527 99.9924L78.566 129.992Z" fill="#8BC5E4"/>
<path d="M49.6841 113.317L101.646 83.3174L49.6841 113.317Z" fill="#8BC5E4"/>
<path d="M61.687 140.337L66.7013 143.232L118.663 113.232L113.649 110.337L61.687 140.337Z" fill="#8BC5E4"/>
<path d="M66.7012 143.232L74.3049 163.112L126.266 133.112L118.663 113.232L66.7012 143.232Z" fill="#8BC5E4"/>
<path d="M74.305 163.113L52.3945 165.933L104.356 135.933L126.267 133.113L74.305 163.113Z" fill="#8BC5E4"/>
<path d="M52.3943 165.933L48.0469 163.423L100.008 133.423L104.356 135.933L52.3943 165.933Z" fill="#8BC5E4"/>
<path d="M48.0469 163.422L61.6868 140.337L113.648 110.337L100.008 133.422L48.0469 163.422Z" fill="#8BC5E4"/>
<path d="M61.687 140.337L113.649 110.337L61.687 140.337Z" fill="#8BC5E4"/>
<path d="M70.8667 145.637L74.9197 147.977L126.881 117.977L122.828 115.637L70.8667 145.637Z" fill="#8BC5E4"/>
<path d="M74.9199 147.978L85.494 161.683L137.456 131.683L126.881 117.978L74.9199 147.978Z" fill="#8BC5E4"/>
<path d="M85.494 161.683L77.4053 162.723L129.367 132.723L137.456 131.683L85.494 161.683Z" fill="#8BC5E4"/>
<path d="M77.4051 162.722L70.8667 145.637L122.828 115.637L129.367 132.722L77.4051 162.722Z" fill="#8BC5E4"/>
<path d="M70.8667 145.637L122.828 115.637L70.8667 145.637Z" fill="#8BC5E4"/>
<path d="M103.196 164.302L106.92 166.452L158.881 136.452L155.157 134.302L103.196 164.302Z" fill="#8BC5E4"/>
<path d="M106.919 166.452L100.355 176.012L152.316 146.012L158.881 136.452L106.919 166.452Z" fill="#8BC5E4"/>
<path d="M100.355 176.012L92.3877 165.692L144.349 135.692L152.317 146.012L100.355 176.012Z" fill="#8BC5E4"/>
<path d="M92.3877 165.692L103.196 164.302L155.157 134.302L144.349 135.692L92.3877 165.692Z" fill="#8BC5E4"/>
<path d="M103.196 164.302L155.157 134.302L103.196 164.302Z" fill="#8BC5E4"/>
<path d="M111.085 168.857L115.978 171.682L167.939 141.682L163.046 138.857L111.085 168.857Z" fill="#8BC5E4"/>
<path d="M115.978 171.683L129.904 210.683L181.865 180.683L167.94 141.683L115.978 171.683Z" fill="#8BC5E4"/>
<path d="M129.904 210.682L124.881 207.782L176.842 177.782L181.865 180.682L129.904 210.682Z" fill="#8BC5E4"/>
<path d="M124.881 207.782L103.438 180.002L155.399 150.002L176.842 177.782L124.881 207.782Z" fill="#8BC5E4"/>
<path d="M103.438 180.002L111.085 168.857L163.046 138.857L155.399 150.002L103.438 180.002Z" fill="#8BC5E4"/>
<path d="M111.085 168.857L163.046 138.857L111.085 168.857Z" fill="#8BC5E4"/>
<path d="M88.9321 166.137L98.5709 178.612L150.532 148.612L140.894 136.137L88.9321 166.137Z" fill="#8BC5E4"/>
<path d="M98.5712 178.613L91.7036 188.628L143.665 158.628L150.533 148.613L98.5712 178.613Z" fill="#8BC5E4"/>
<path d="M91.7033 188.627L86.0742 185.377L138.036 155.377L143.665 158.627L91.7033 188.627Z" fill="#8BC5E4"/>
<path d="M86.0744 185.378L79.1895 167.383L131.151 137.383L138.036 155.378L86.0744 185.378Z" fill="#8BC5E4"/>
<path d="M79.1895 167.382L88.9323 166.137L140.894 136.137L131.151 137.382L79.1895 167.382Z" fill="#8BC5E4"/>
<path d="M88.9321 166.137L140.894 136.137L88.9321 166.137Z" fill="#8BC5E4"/>
<path d="M0 37.5225V213.092L51.9615 183.092V7.52246L0 37.5225Z" fill="#8BC5E4"/>
<path d="M10.626 231.448L162.579 319.178L214.54 289.178L62.5876 201.448L10.626 231.448Z" fill="#8BC5E4"/>
<path d="M173.205 313.092V137.522L225.167 107.522V283.092L173.205 313.092Z" fill="#8BC5E4"/>
<path d="M162.579 119.178L10.626 31.4475L62.5876 1.44751L214.54 89.1775L162.579 119.178Z" fill="#8BC5E4"/>
<path d="M10.626 31.4475L62.5876 1.44751L10.626 31.4475Z" fill="#8BC5E4"/>
<path d="M10.626 36.9675L162.579 124.698L214.54 94.6975L62.5876 6.96753L10.626 36.9675Z" fill="#8BC5E4"/>
<path d="M168.407 134.752V310.322L220.369 280.322V104.752L168.407 134.752Z" fill="#8BC5E4"/>
<path d="M162.579 313.657L10.626 225.927L62.5876 195.927L214.54 283.657L162.579 313.657Z" fill="#8BC5E4"/>
<path d="M4.79785 215.862V40.2925L56.7593 10.2925V185.862L4.79785 215.862Z" fill="#8BC5E4"/>
<path d="M10.626 36.9675L62.5876 6.96753L10.626 36.9675Z" fill="#8BC5E4"/>
<path d="M10.626 36.9675L162.579 124.698L214.54 94.6975L62.5876 6.96753L10.626 36.9675Z" fill="#8BC5E4"/>
<path d="M168.407 134.752V310.322L220.369 280.322V104.752L168.407 134.752Z" fill="#8BC5E4"/>
<path d="M162.579 313.657L10.626 225.927L62.5876 195.927L214.54 283.657L162.579 313.657Z" fill="#8BC5E4"/>
<path d="M4.79785 215.862V40.2925L56.7593 10.2925V185.862L4.79785 215.862Z" fill="#8BC5E4"/>
<path d="M10.626 36.9675L62.5876 6.96753L10.626 36.9675Z" fill="#8BC5E4"/>
<path d="M49.6841 133.407V113.317L101.646 83.3174V103.407L49.6841 133.407Z" fill="#8BC5E4"/>
<path d="M49.6841 113.317L78.566 129.992L130.527 99.9924L101.646 83.3174L49.6841 113.317Z" fill="#8BC5E4"/>
<path d="M78.5659 129.992V147.782L130.527 117.782V99.9924L78.5659 129.992Z" fill="#8BC5E4"/>
<path d="M78.5659 147.782L88.9496 161.237L140.911 131.237L130.527 117.782L78.5659 147.782Z" fill="#8BC5E4"/>
<path d="M88.9497 161.238L99.4546 159.893L151.416 129.893L140.911 131.238L88.9497 161.238Z" fill="#8BC5E4"/>
<path d="M99.4546 159.892V142.052L151.416 112.052V129.892L99.4546 159.892Z" fill="#8BC5E4"/>
<path d="M99.4546 142.052L128.336 158.727L180.298 128.727L151.416 112.052L99.4546 142.052Z" fill="#8BC5E4"/>
<path d="M128.336 158.728V178.818L180.298 148.818V128.728L128.336 158.728Z" fill="#8BC5E4"/>
<path d="M128.336 178.817L120.066 174.042L172.027 144.042L180.298 148.817L128.336 178.817Z" fill="#8BC5E4"/>
<path d="M120.066 174.042L133.992 213.042L185.953 183.042L172.027 144.042L120.066 174.042Z" fill="#8BC5E4"/>
<path d="M133.992 213.042L150.489 222.567L202.451 192.567L185.953 183.042L133.992 213.042Z" fill="#8BC5E4"/>
<path d="M150.489 222.567V242.657L202.451 212.657V192.567L150.489 222.567Z" fill="#8BC5E4"/>
<path d="M150.489 242.658L121.616 225.988L173.577 195.988L202.451 212.658L150.489 242.658Z" fill="#8BC5E4"/>
<path d="M121.616 225.988V208.468L173.577 178.468V195.988L121.616 225.988Z" fill="#8BC5E4"/>
<path d="M121.616 208.468L101.654 182.603L153.616 152.603L173.578 178.468L121.616 208.468Z" fill="#8BC5E4"/>
<path d="M101.654 182.603L95.8691 191.033L147.831 161.033L153.616 152.603L101.654 182.603Z" fill="#8BC5E4"/>
<path d="M95.8691 191.032L103.265 195.302L155.227 165.302L147.831 161.032L95.8691 191.032Z" fill="#8BC5E4"/>
<path d="M103.265 195.302V215.392L155.227 185.392V165.302L103.265 195.302Z" fill="#8BC5E4"/>
<path d="M103.265 215.392L74.3916 198.722L126.353 168.722L155.226 185.392L103.265 215.392Z" fill="#8BC5E4"/>
<path d="M74.3916 198.723V178.633L126.353 148.633V168.723L74.3916 198.723Z" fill="#8BC5E4"/>
<path d="M74.3916 178.633L81.9087 182.973L133.87 152.973L126.353 148.633L74.3916 178.633Z" fill="#8BC5E4"/>
<path d="M81.9087 182.973L76.0977 167.788L128.059 137.788L133.87 152.973L81.9087 182.973Z" fill="#8BC5E4"/>
<path d="M76.0977 167.788L56.0405 170.358L108.002 140.358L128.059 137.788L76.0977 167.788Z" fill="#8BC5E4"/>
<path d="M56.0405 170.357V188.127L108.002 158.127V140.357L56.0405 170.357Z" fill="#8BC5E4"/>
<path d="M56.0403 188.128L27.167 171.458L79.1285 141.458L108.002 158.128L56.0403 188.128Z" fill="#8BC5E4"/>
<path d="M27.167 171.457V151.367L79.1285 121.367V141.457L27.167 171.457Z" fill="#8BC5E4"/>
<path d="M27.167 151.367L43.9766 161.072L95.9381 131.072L79.1285 121.367L27.167 151.367Z" fill="#8BC5E4"/>
<path d="M43.9766 161.073L57.6165 137.988L109.578 107.988L95.9381 131.073L43.9766 161.073Z" fill="#8BC5E4"/>
<path d="M57.6169 137.987L49.6841 133.407L101.646 103.407L109.578 107.987L57.6169 137.987Z" fill="#8BC5E4"/>
<path d="M49.6841 133.407L101.646 103.407L49.6841 133.407Z" fill="#8BC5E4"/>
<path d="M111.085 168.857L115.978 171.682L167.939 141.682L163.046 138.857L111.085 168.857Z" fill="#8BC5E4"/>
<path d="M115.978 171.683L129.904 210.683L181.865 180.683L167.94 141.683L115.978 171.683Z" fill="#8BC5E4"/>
<path d="M129.904 210.682L124.881 207.782L176.842 177.782L181.865 180.682L129.904 210.682Z" fill="#8BC5E4"/>
<path d="M124.881 207.782L103.438 180.002L155.399 150.002L176.842 177.782L124.881 207.782Z" fill="#8BC5E4"/>
<path d="M103.438 180.002L111.085 168.857L163.046 138.857L155.399 150.002L103.438 180.002Z" fill="#8BC5E4"/>
<path d="M111.085 168.857L163.046 138.857L111.085 168.857Z" fill="#8BC5E4"/>
<path d="M103.196 164.302L106.92 166.452L158.881 136.452L155.157 134.302L103.196 164.302Z" fill="#8BC5E4"/>
<path d="M106.919 166.452L100.355 176.012L152.316 146.012L158.881 136.452L106.919 166.452Z" fill="#8BC5E4"/>
<path d="M100.355 176.012L92.3877 165.692L144.349 135.692L152.317 146.012L100.355 176.012Z" fill="#8BC5E4"/>
<path d="M92.3877 165.692L103.196 164.302L155.157 134.302L144.349 135.692L92.3877 165.692Z" fill="#8BC5E4"/>
<path d="M103.196 164.302L155.157 134.302L103.196 164.302Z" fill="#8BC5E4"/>
<path d="M88.9321 166.137L98.5709 178.612L150.532 148.612L140.894 136.137L88.9321 166.137Z" fill="#8BC5E4"/>
<path d="M98.5712 178.613L91.7036 188.628L143.665 158.628L150.533 148.613L98.5712 178.613Z" fill="#8BC5E4"/>
<path d="M91.7033 188.627L86.0742 185.377L138.036 155.377L143.665 158.627L91.7033 188.627Z" fill="#8BC5E4"/>
<path d="M86.0744 185.378L79.1895 167.383L131.151 137.383L138.036 155.378L86.0744 185.378Z" fill="#8BC5E4"/>
<path d="M79.1895 167.382L88.9323 166.137L140.894 136.137L131.151 137.382L79.1895 167.382Z" fill="#8BC5E4"/>
<path d="M88.9321 166.137L140.894 136.137L88.9321 166.137Z" fill="#8BC5E4"/>
<path d="M70.8667 145.637L74.9197 147.977L126.881 117.977L122.828 115.637L70.8667 145.637Z" fill="#8BC5E4"/>
<path d="M74.9199 147.978L85.494 161.683L137.456 131.683L126.881 117.978L74.9199 147.978Z" fill="#8BC5E4"/>
<path d="M85.494 161.683L77.4053 162.723L129.367 132.723L137.456 131.683L85.494 161.683Z" fill="#8BC5E4"/>
<path d="M77.4051 162.722L70.8667 145.637L122.828 115.637L129.367 132.722L77.4051 162.722Z" fill="#8BC5E4"/>
<path d="M70.8667 145.637L122.828 115.637L70.8667 145.637Z" fill="#8BC5E4"/>
<path d="M61.687 140.337L66.7013 143.232L118.663 113.232L113.649 110.337L61.687 140.337Z" fill="#8BC5E4"/>
<path d="M66.7012 143.232L74.3049 163.112L126.266 133.112L118.663 113.232L66.7012 143.232Z" fill="#8BC5E4"/>
<path d="M74.305 163.113L52.3945 165.933L104.356 135.933L126.267 133.113L74.305 163.113Z" fill="#8BC5E4"/>
<path d="M52.3943 165.933L48.0469 163.423L100.008 133.423L104.356 135.933L52.3943 165.933Z" fill="#8BC5E4"/>
<path d="M48.0469 163.422L61.6868 140.337L113.648 110.337L100.008 133.422L48.0469 163.422Z" fill="#8BC5E4"/>
<path d="M61.687 140.337L113.649 110.337L61.687 140.337Z" fill="#8BC5E4"/>
<path d="M10.6261 31.4474C7.71504 29.7664 5.06804 29.6004 3.14404 30.6864L55.1055 0.686397C57.0295 -0.399603 59.6765 -0.233603 62.5877 1.4474L10.6261 31.4474Z" fill="#8BC5E4"/>
<path d="M3.135 30.6914C1.203 31.7874 0.003 34.1494 0 37.5124L51.9615 7.51241C51.9645 4.14941 53.1645 1.78741 55.0965 0.691406L3.135 30.6914Z" fill="#8BC5E4"/>
<path d="M0 213.093C0 219.813 4.7805 228.073 10.6261 231.448L62.5877 201.448C56.742 198.073 51.9615 189.813 51.9615 183.093L0 213.093Z" fill="#8BC5E4"/>
<path d="M162.579 319.177C165.496 320.861 168.148 321.023 170.073 319.927L222.035 289.927C220.11 291.023 217.458 290.861 214.541 289.177L162.579 319.177Z" fill="#8BC5E4"/>
<path d="M170.07 319.929C172.002 318.831 173.202 316.466 173.205 313.103L225.166 283.103C225.163 286.466 223.963 288.831 222.031 289.929L170.07 319.929Z" fill="#8BC5E4"/>
<path d="M173.205 137.522C173.205 130.802 168.425 122.552 162.579 119.177L214.541 89.1775C220.386 92.5525 225.167 100.802 225.167 107.522L173.205 137.522Z" fill="#8BC5E4"/>
<path d="M162.579 124.698C165.853 126.588 168.408 130.993 168.408 134.753L220.369 104.753C220.369 100.993 217.814 96.5875 214.541 94.6975L162.579 124.698Z" fill="#8BC5E4"/>
<path d="M168.407 310.323C168.407 312.203 167.769 313.509 166.721 314.109L218.683 284.109C219.731 283.509 220.369 282.203 220.369 280.323L168.407 310.323Z" fill="#8BC5E4"/>
<path d="M166.71 314.115C165.664 314.707 164.213 314.599 162.584 313.66L214.545 283.66C216.174 284.599 217.625 284.707 218.671 284.115L166.71 314.115Z" fill="#8BC5E4"/>
<path d="M10.6262 225.928C7.35265 224.038 4.79785 219.623 4.79785 215.863L56.7593 185.863C56.7593 189.623 59.3142 194.038 62.5878 195.928L10.6262 225.928Z" fill="#8BC5E4"/>
<path d="M4.79785 40.2924C4.79805 38.4054 5.44105 37.0984 6.49705 36.5044L58.4586 6.50439C57.4026 7.09839 56.7595 8.40539 56.7593 10.2924L4.79785 40.2924Z" fill="#8BC5E4"/>
<path d="M6.49512 36.5056C7.54112 35.9146 8.99212 36.0256 10.6211 36.9646L62.5826 6.96462C60.9536 6.02562 59.5026 5.91462 58.4566 6.50562L6.49512 36.5056Z" fill="#8BC5E4"/>
<path d="M162.579 124.698C165.853 126.588 168.408 130.993 168.408 134.753L220.369 104.753C220.369 100.993 217.814 96.5875 214.541 94.6975L162.579 124.698Z" fill="#8BC5E4"/>
<path d="M168.407 310.323C168.407 312.203 167.769 313.509 166.721 314.109L218.683 284.109C219.731 283.509 220.369 282.203 220.369 280.323L168.407 310.323Z" fill="#8BC5E4"/>
<path d="M166.71 314.115C165.664 314.707 164.213 314.599 162.584 313.66L214.545 283.66C216.174 284.599 217.625 284.707 218.671 284.115L166.71 314.115Z" fill="#8BC5E4"/>
<path d="M10.6262 225.928C7.35265 224.038 4.79785 219.623 4.79785 215.863L56.7593 185.863C56.7593 189.623 59.3142 194.038 62.5878 195.928L10.6262 225.928Z" fill="#8BC5E4"/>
<path d="M4.79785 40.2924C4.79805 38.4054 5.44105 37.0984 6.49705 36.5044L58.4586 6.50439C57.4026 7.09839 56.7595 8.40539 56.7593 10.2924L4.79785 40.2924Z" fill="#8BC5E4"/>
<path d="M6.49512 36.5056C7.54112 35.9146 8.99212 36.0256 10.6211 36.9646L62.5826 6.96462C60.9536 6.02562 59.5026 5.91462 58.4566 6.50562L6.49512 36.5056Z" fill="#8BC5E4"/>
<path d="M49.6839 113.317V133.408L57.6167 137.988L43.9768 161.073L27.1672 151.368V171.458L56.0405 188.128V170.358L76.0977 167.788L81.9087 182.973L74.3916 178.633V198.723L103.265 215.393V195.303L95.869 191.033L101.654 182.602L121.616 208.467V225.988L150.489 242.658V222.568L133.991 213.043L120.066 174.043L128.336 178.818V158.728L99.4544 142.052V159.893L88.9495 161.237L78.5658 147.783V129.993L49.6839 113.317ZM61.687 140.338L66.7013 143.233L74.305 163.113L52.3945 165.933L48.0471 163.423L61.687 140.338ZM70.8669 145.638L74.9199 147.978L85.494 161.683L77.4053 162.722L70.8669 145.638ZM103.196 164.303L106.919 166.453L100.355 176.013L92.3876 165.693L103.196 164.303ZM111.085 168.858L115.978 171.683L129.904 210.683L124.881 207.783L103.438 180.003L111.085 168.858ZM88.9321 166.138L98.571 178.612L91.7034 188.628L86.0743 185.378L79.1894 167.382L88.9321 166.138ZM10.6261 31.4475C4.78046 28.0725 0 30.8025 0 37.5225V213.092C0 219.812 4.78046 228.073 10.6261 231.448L162.579 319.177C168.425 322.552 173.205 319.812 173.205 313.092V137.523C173.205 130.803 168.425 122.552 162.579 119.177L10.6261 31.4475ZM10.6261 36.9675L162.579 124.697C165.853 126.587 168.407 130.993 168.407 134.753V310.323C168.407 314.082 165.853 315.547 162.579 313.657L10.6261 225.927C7.35256 224.037 4.79778 219.622 4.79778 215.862V40.2925C4.79778 36.5325 7.35256 35.0775 10.6261 36.9675Z" fill="#8BC5E4"/>
<path fill-rule="evenodd" clip-rule="evenodd" d="M10.6261 36.9675L162.579 124.697C165.853 126.587 168.407 130.993 168.407 134.753V310.323C168.407 314.082 165.853 315.547 162.579 313.657L10.6261 225.927C7.35256 224.037 4.79778 219.622 4.79778 215.862V40.2925C4.79778 36.5325 7.35256 35.0775 10.6261 36.9675ZM49.6839 133.408V113.317L78.5658 129.993V147.783L88.9495 161.237L99.4544 159.893V142.052L128.336 158.728V178.818L120.066 174.043L133.991 213.043L150.489 222.568V242.658L121.616 225.988V208.467L101.654 182.602L95.869 191.033L103.265 195.303V215.393L74.3916 198.723V178.633L81.9087 182.973L76.0977 167.788L56.0405 170.358V188.128L27.1672 171.458V151.368L43.9768 161.073L57.6167 137.988L49.6839 133.408Z" fill="white"/>
<path d="M111.085 168.858L115.978 171.683L129.904 210.683L124.881 207.783L103.438 180.003L111.085 168.858Z" fill="white"/>
<path d="M103.196 164.303L106.919 166.453L100.355 176.013L92.3876 165.693L103.196 164.303Z" fill="white"/>
<path d="M88.9321 166.138L98.571 178.612L91.7034 188.628L86.0743 185.378L79.1894 167.382L88.9321 166.138Z" fill="white"/>
<path d="M70.8669 145.638L74.9199 147.978L85.494 161.683L77.4053 162.722L70.8669 145.638Z" fill="white"/>
<path d="M61.687 140.338L66.7013 143.233L74.305 163.113L52.3945 165.933L48.0471 163.423L61.687 140.338Z" fill="white"/>
</svg>
