<svg width="226" height="418" viewBox="0 0 226 418" fill="none" xmlns="http://www.w3.org/2000/svg">
<path d="M82.4454 267.988V299.528L30.4839 269.528V237.988L82.4454 267.988Z" fill="#8BC5E4"/>
<path d="M82.4454 299.528L86.0221 297.463L34.0606 267.463L30.4839 269.528L82.4454 299.528Z" fill="#8BC5E4"/>
<path d="M86.022 297.463V284.583L34.0605 254.583V267.463L86.022 297.463Z" fill="#8BC5E4"/>
<path d="M86.022 284.583L92.1101 281.068L40.1486 251.068L34.0605 254.583L86.022 284.583Z" fill="#8BC5E4"/>
<path d="M91.8851 262.538L82.4454 267.988L30.4839 237.988L39.9235 232.538L91.8851 262.538Z" fill="#8BC5E4"/>
<path d="M82.4454 267.988L30.4839 237.988L82.4454 267.988Z" fill="#8BC5E4"/>
<path d="M86.022 269.063L91.4346 265.938L39.4731 235.938L34.0605 239.063L86.022 269.063Z" fill="#8BC5E4"/>
<path d="M91.6685 278.183L86.022 281.443L34.0605 251.443L39.7069 248.183L91.6685 278.183Z" fill="#8BC5E4"/>
<path d="M86.022 281.443V269.063L34.0605 239.063V251.443L86.022 281.443Z" fill="#8BC5E4"/>
<path d="M86.022 269.063L34.0605 239.063L86.022 269.063Z" fill="#8BC5E4"/>
<path d="M69.2907 274.363V307.243L17.3291 277.243V244.363L69.2907 274.363Z" fill="#8BC5E4"/>
<path d="M75.8722 311.043L105.438 293.973L53.4767 263.973L23.9106 281.043L75.8722 311.043Z" fill="#8BC5E4"/>
<path d="M112.02 282.573V249.693L60.0586 219.693V252.573L112.02 282.573Z" fill="#8BC5E4"/>
<path d="M105.438 245.903L75.8722 262.973L23.9106 232.973L53.4767 215.903L105.438 245.903Z" fill="#8BC5E4"/>
<path d="M75.8722 262.973L23.9106 232.973L75.8722 262.973Z" fill="#8BC5E4"/>
<path d="M75.8722 266.633L105.438 249.563L53.4767 219.563L23.9106 236.633L75.8722 266.633Z" fill="#8BC5E4"/>
<path d="M108.851 251.523V284.403L56.8892 254.403V221.523L108.851 251.523Z" fill="#8BC5E4"/>
<path d="M105.438 290.313L75.8722 307.383L23.9106 277.383L53.4767 260.313L105.438 290.313Z" fill="#8BC5E4"/>
<path d="M72.4688 305.408V272.528L20.5073 242.528V275.408L72.4688 305.408Z" fill="#8BC5E4"/>
<path d="M75.8722 266.633L23.9106 236.633L75.8722 266.633Z" fill="#8BC5E4"/>
<path d="M121.512 194.163L102.096 227.623L50.1343 197.623L69.5506 164.163L121.512 194.163Z" fill="#8BC5E4"/>
<path d="M102.096 227.623L121.512 238.653L69.5506 208.653L50.1343 197.623L102.096 227.623Z" fill="#8BC5E4"/>
<path d="M121.512 238.653V223.733L69.5503 193.733V208.653L121.512 238.653Z" fill="#8BC5E4"/>
<path d="M121.512 223.733L148.107 208.378L96.1459 178.378L69.5503 193.733L121.512 223.733Z" fill="#8BC5E4"/>
<path d="M148.107 208.378V291.378L96.146 261.378V178.378L148.107 208.378Z" fill="#8BC5E4"/>
<path d="M98.649 327.253L111.336 319.928L59.3748 289.928L46.6875 297.253L98.649 327.253Z" fill="#8BC5E4"/>
<path d="M111.336 319.928L92.0323 308.683L40.0708 278.683L59.3745 289.928L111.336 319.928Z" fill="#8BC5E4"/>
<path d="M92.0325 308.683L72.7374 342.213L20.7759 312.213L40.071 278.683L92.0325 308.683Z" fill="#8BC5E4"/>
<path d="M72.7374 342.213L85.9184 334.603L33.9568 304.603L20.7759 312.213L72.7374 342.213Z" fill="#8BC5E4"/>
<path d="M160.803 284.048V201.048L108.842 171.048V254.048L160.803 284.048Z" fill="#8BC5E4"/>
<path d="M160.803 201.048L186.775 186.053L134.814 156.053L108.842 171.048L160.803 201.048Z" fill="#8BC5E4"/>
<path d="M186.776 186.053V200.973L134.814 170.973V156.053L186.776 186.053Z" fill="#8BC5E4"/>
<path d="M186.776 200.973L206.192 167.523L154.23 137.523L134.814 170.973L186.776 200.973Z" fill="#8BC5E4"/>
<path d="M206.192 167.523L186.776 156.483L134.814 126.483L154.23 137.523L206.192 167.523Z" fill="#8BC5E4"/>
<path d="M186.776 156.483V171.413L134.814 141.413V126.483L186.776 156.483Z" fill="#8BC5E4"/>
<path d="M186.775 171.413L121.512 209.093L69.5503 179.093L134.814 141.413L186.775 171.413Z" fill="#8BC5E4"/>
<path d="M121.512 209.093V194.163L69.5503 164.163V179.093L121.512 209.093Z" fill="#8BC5E4"/>
<path d="M121.512 194.163L69.5503 164.163L121.512 194.163Z" fill="#8BC5E4"/>
<path d="M138.642 112.803L145.726 113.803L93.7647 83.803L86.6807 82.803L138.642 112.803Z" fill="#8BC5E4"/>
<path d="M145.726 113.803L140.669 127.023L88.707 97.023L93.7645 83.803L145.726 113.803Z" fill="#8BC5E4"/>
<path d="M140.668 127.023L136.537 129.408L84.5757 99.4079L88.7067 97.0229L140.668 127.023Z" fill="#8BC5E4"/>
<path d="M136.537 129.408L131.488 121.993L79.5269 91.9929L84.5758 99.4079L136.537 129.408Z" fill="#8BC5E4"/>
<path d="M131.488 121.993L138.642 112.803L86.6803 82.803L79.5269 91.993L131.488 121.993Z" fill="#8BC5E4"/>
<path d="M138.642 112.803L86.6807 82.803L138.642 112.803Z" fill="#8BC5E4"/>
<path d="M154.915 95.9778L158.509 93.9028L106.547 63.9028L102.953 65.9778L154.915 95.9778Z" fill="#8BC5E4"/>
<path d="M158.508 93.9028L168.736 110.818L116.775 80.8178L106.547 63.9028L158.508 93.9028Z" fill="#8BC5E4"/>
<path d="M168.736 110.818L165.047 112.948L113.085 82.9479L116.775 80.8179L168.736 110.818Z" fill="#8BC5E4"/>
<path d="M165.047 112.948L149.294 110.693L97.3325 80.6929L113.086 82.9479L165.047 112.948Z" fill="#8BC5E4"/>
<path d="M149.294 110.693L154.915 95.9778L102.953 65.9778L97.3325 80.6928L149.294 110.693Z" fill="#8BC5E4"/>
<path d="M154.915 95.9778L102.953 65.9778L154.915 95.9778Z" fill="#8BC5E4"/>
<path d="M149.121 99.3229L151.857 97.7429L99.8958 67.7429L97.1592 69.3229L149.121 99.3229Z" fill="#8BC5E4"/>
<path d="M151.858 97.7429L147.034 110.368L95.0723 80.3679L99.8961 67.7429L151.858 97.7429Z" fill="#8BC5E4"/>
<path d="M147.034 110.368L141.179 109.538L89.2178 79.5378L95.0721 80.3678L147.034 110.368Z" fill="#8BC5E4"/>
<path d="M141.179 109.538L149.121 99.3228L97.1593 69.3228L89.2178 79.5378L141.179 109.538Z" fill="#8BC5E4"/>
<path d="M149.121 99.3228L97.1592 69.3228L149.121 99.3228Z" fill="#8BC5E4"/>
<path d="M125.374 113.033L128.345 111.318L76.3831 81.3179L73.4126 83.0329L125.374 113.033Z" fill="#8BC5E4"/>
<path d="M128.345 111.318L136.122 112.438L84.1602 82.4379L76.3833 81.3179L128.345 111.318Z" fill="#8BC5E4"/>
<path d="M136.122 112.438L130.172 120.073L78.2104 90.0727L84.16 82.4377L136.122 112.438Z" fill="#8BC5E4"/>
<path d="M130.172 120.073L125.374 113.033L73.4126 83.033L78.2104 90.073L130.172 120.073Z" fill="#8BC5E4"/>
<path d="M125.374 113.033L73.4126 83.033L125.374 113.033Z" fill="#8BC5E4"/>
<path d="M118.628 116.928L122.309 114.803L70.3471 84.803L66.6665 86.928L118.628 116.928Z" fill="#8BC5E4"/>
<path d="M122.309 114.803L127.903 122.993L75.9417 92.993L70.3472 84.803L122.309 114.803Z" fill="#8BC5E4"/>
<path d="M127.903 122.993L111.804 143.688L59.8423 113.688L75.9417 92.9929L127.903 122.993Z" fill="#8BC5E4"/>
<path d="M111.804 143.688L108.608 145.533L56.6465 115.533L59.8421 113.688L111.804 143.688Z" fill="#8BC5E4"/>
<path d="M108.608 145.533L118.628 116.928L66.6664 86.928L56.6465 115.533L108.608 145.533Z" fill="#8BC5E4"/>
<path d="M118.628 116.928L66.6665 86.928L118.628 116.928Z" fill="#8BC5E4"/>
<path d="M109.812 107.218V122.018L57.8506 92.0178V77.2178L109.812 107.218Z" fill="#8BC5E4"/>
<path d="M109.812 122.018L115.64 118.653L63.6789 88.6528L57.8506 92.0178L109.812 122.018Z" fill="#8BC5E4"/>
<path d="M115.64 118.653L105.62 147.258L53.6587 117.258L63.6786 88.6528L115.64 118.653Z" fill="#8BC5E4"/>
<path d="M105.62 147.258L93.2706 154.388L41.3091 124.388L53.6586 117.258L105.62 147.258Z" fill="#8BC5E4"/>
<path d="M93.2706 154.388V169.198L41.3091 139.198V124.388L93.2706 154.388Z" fill="#8BC5E4"/>
<path d="M93.2706 169.198L114.48 156.953L62.5181 126.953L41.3091 139.198L93.2706 169.198Z" fill="#8BC5E4"/>
<path d="M114.48 156.953V143.843L62.5186 113.843V126.953L114.48 156.953Z" fill="#8BC5E4"/>
<path d="M114.48 143.843L129.211 124.918L77.2496 94.918L62.5186 113.843L114.48 143.843Z" fill="#8BC5E4"/>
<path d="M129.211 124.918L133.481 131.173L81.519 101.173L77.2495 94.918L129.211 124.918Z" fill="#8BC5E4"/>
<path d="M133.48 131.173L127.955 134.363L75.9937 104.363L81.5189 101.173L133.48 131.173Z" fill="#8BC5E4"/>
<path d="M127.955 134.363V149.173L75.9937 119.173V104.363L127.955 134.363Z" fill="#8BC5E4"/>
<path d="M127.955 149.173L149.173 136.923L97.2113 106.923L75.9937 119.173L127.955 149.173Z" fill="#8BC5E4"/>
<path d="M149.173 136.923V122.113L97.2114 92.1128V106.923L149.173 136.923Z" fill="#8BC5E4"/>
<path d="M149.173 122.113L143.734 125.253L91.7725 95.2528L97.2111 92.1128L149.173 122.113Z" fill="#8BC5E4"/>
<path d="M143.734 125.253L147.977 114.133L96.016 84.1328L91.7725 95.2528L143.734 125.253Z" fill="#8BC5E4"/>
<path d="M147.978 114.133L162.648 116.223L110.687 86.2228L96.0161 84.1328L147.978 114.133Z" fill="#8BC5E4"/>
<path d="M162.648 116.223V129.143L110.687 99.1429V86.2229L162.648 116.223Z" fill="#8BC5E4"/>
<path d="M162.648 129.143L183.857 116.898L131.895 86.8979L110.687 99.1429L162.648 129.143Z" fill="#8BC5E4"/>
<path d="M183.857 116.898V102.088L131.896 72.0879V86.8979L183.857 116.898Z" fill="#8BC5E4"/>
<path d="M183.857 102.088L171.732 109.088L119.771 79.0879L131.895 72.0879L183.857 102.088Z" fill="#8BC5E4"/>
<path d="M171.733 109.088L161.505 92.1729L109.543 62.1729L119.771 79.0879L171.733 109.088Z" fill="#8BC5E4"/>
<path d="M161.505 92.173L167.576 88.668L115.614 58.668L109.543 62.173L161.505 92.173Z" fill="#8BC5E4"/>
<path d="M167.576 88.6679V73.8679L115.614 43.8679V58.6679L167.576 88.6679Z" fill="#8BC5E4"/>
<path d="M167.576 73.8679L146.367 86.1129L94.4053 56.1129L115.614 43.8679L167.576 73.8679Z" fill="#8BC5E4"/>
<path d="M146.367 86.1128V99.2628L94.4053 69.2628V56.1128L146.367 86.1128Z" fill="#8BC5E4"/>
<path d="M146.367 99.2629L138.659 109.173L86.6978 79.1729L94.4054 69.2629L146.367 99.2629Z" fill="#8BC5E4"/>
<path d="M138.659 109.173L131.021 108.083L79.0591 78.0828L86.6975 79.1728L138.659 109.173Z" fill="#8BC5E4"/>
<path d="M131.021 108.083V94.9729L79.0591 64.9729V78.0829L131.021 108.083Z" fill="#8BC5E4"/>
<path d="M131.021 94.9729L109.812 107.218L57.8506 77.2179L79.0595 64.9729L131.021 94.9729Z" fill="#8BC5E4"/>
<path d="M109.812 107.218L57.8506 77.2178L109.812 107.218Z" fill="#8BC5E4"/>
<path d="M51.9615 137.558V196.318L0 166.318V107.558L51.9615 137.558Z" fill="#8BC5E4"/>
<path d="M62.5875 202.433L214.54 114.703L162.579 84.7029L10.626 172.433L62.5875 202.433Z" fill="#8BC5E4"/>
<path d="M225.167 96.3179V37.5579L173.205 7.55786V66.3179L225.167 96.3179Z" fill="#8BC5E4"/>
<path d="M214.54 31.4429L62.5875 119.173L10.626 89.1729L162.579 1.44287L214.54 31.4429Z" fill="#8BC5E4"/>
<path d="M62.5875 119.173L10.626 89.1729L62.5875 119.173Z" fill="#8BC5E4"/>
<path d="M62.5875 124.703L214.54 36.9729L162.579 6.9729L10.626 94.7029L62.5875 124.703Z" fill="#8BC5E4"/>
<path d="M220.369 40.3279V99.0879L168.407 69.0879V10.3279L220.369 40.3279Z" fill="#8BC5E4"/>
<path d="M214.54 109.173L62.5875 196.903L10.626 166.903L162.579 79.1729L214.54 109.173Z" fill="#8BC5E4"/>
<path d="M56.7593 193.548V134.788L4.79785 104.788V163.548L56.7593 193.548Z" fill="#8BC5E4"/>
<path d="M62.5875 124.703L10.626 94.7029L62.5875 124.703Z" fill="#8BC5E4"/>
<path d="M51.9615 228.918V405.068L0 375.068V198.918L51.9615 228.918Z" fill="#8BC5E4"/>
<path d="M62.5875 411.173L214.54 323.443L162.579 293.443L10.626 381.173L62.5875 411.173Z" fill="#8BC5E4"/>
<path d="M225.167 305.068V128.918L173.205 98.918V275.068L225.167 305.068Z" fill="#8BC5E4"/>
<path d="M214.54 122.803L62.5875 210.533L10.626 180.533L162.579 92.803L214.54 122.803Z" fill="#8BC5E4"/>
<path d="M62.5875 210.533L10.626 180.533L62.5875 210.533Z" fill="#8BC5E4"/>
<path d="M62.5875 216.063L214.54 128.333L162.579 98.3328L10.626 186.063L62.5875 216.063Z" fill="#8BC5E4"/>
<path d="M220.369 131.688V307.838L168.407 277.838V101.688L220.369 131.688Z" fill="#8BC5E4"/>
<path d="M214.54 317.913L62.5875 405.643L10.626 375.643L162.579 287.913L214.54 317.913Z" fill="#8BC5E4"/>
<path d="M56.7593 402.298V226.148L4.79785 196.148V372.298L56.7593 402.298Z" fill="#8BC5E4"/>
<path d="M62.5875 216.063L10.626 186.063L62.5875 216.063Z" fill="#8BC5E4"/>
<path d="M62.5875 216.063L214.54 128.333L162.579 98.3328L10.626 186.063L62.5875 216.063Z" fill="#8BC5E4"/>
<path d="M220.369 131.688V307.838L168.407 277.838V101.688L220.369 131.688Z" fill="#8BC5E4"/>
<path d="M214.54 317.913L62.5875 405.643L10.626 375.643L162.579 287.913L214.54 317.913Z" fill="#8BC5E4"/>
<path d="M56.7593 402.298V226.148L4.79785 196.148V372.298L56.7593 402.298Z" fill="#8BC5E4"/>
<path d="M62.5875 216.063L10.626 186.063L62.5875 216.063Z" fill="#8BC5E4"/>
<path d="M75.8722 262.973L105.438 245.903L53.4767 215.903L23.9106 232.973L75.8722 262.973Z" fill="#8BC5E4"/>
<path d="M112.02 249.693V282.573L60.0586 252.573V219.693L112.02 249.693Z" fill="#8BC5E4"/>
<path d="M105.438 293.973L75.8722 311.043L23.9106 281.043L53.4767 263.973L105.438 293.973Z" fill="#8BC5E4"/>
<path d="M69.2907 307.243V274.363L17.3291 244.363V277.243L69.2907 307.243Z" fill="#8BC5E4"/>
<path d="M69.2907 274.363L17.3291 244.363L69.2907 274.363Z" fill="#8BC5E4"/>
<path d="M102.096 227.623L121.512 194.163L69.5506 164.163L50.1343 197.623L102.096 227.623Z" fill="#8BC5E4"/>
<path d="M121.512 194.163V209.093L69.5503 179.093V164.163L121.512 194.163Z" fill="#8BC5E4"/>
<path d="M121.512 209.093L186.775 171.413L134.814 141.413L69.5503 179.093L121.512 209.093Z" fill="#8BC5E4"/>
<path d="M186.776 171.413V156.483L134.814 126.483V141.413L186.776 171.413Z" fill="#8BC5E4"/>
<path d="M186.776 156.483L206.192 167.523L154.23 137.523L134.814 126.483L186.776 156.483Z" fill="#8BC5E4"/>
<path d="M206.192 167.523L186.776 200.973L134.814 170.973L154.23 137.523L206.192 167.523Z" fill="#8BC5E4"/>
<path d="M186.776 200.973V186.053L134.814 156.053V170.973L186.776 200.973Z" fill="#8BC5E4"/>
<path d="M186.775 186.053L160.803 201.048L108.842 171.048L134.814 156.053L186.775 186.053Z" fill="#8BC5E4"/>
<path d="M160.803 201.048V284.048L108.842 254.048V171.048L160.803 201.048Z" fill="#8BC5E4"/>
<path d="M85.9184 334.603L72.7374 342.213L20.7759 312.213L33.9568 304.603L85.9184 334.603Z" fill="#8BC5E4"/>
<path d="M72.7374 342.213L92.0325 308.683L40.071 278.683L20.7759 312.213L72.7374 342.213Z" fill="#8BC5E4"/>
<path d="M92.0323 308.683L111.336 319.928L59.3745 289.928L40.0708 278.683L92.0323 308.683Z" fill="#8BC5E4"/>
<path d="M111.336 319.928L98.649 327.253L46.6875 297.253L59.3748 289.928L111.336 319.928Z" fill="#8BC5E4"/>
<path d="M148.107 291.378V208.378L96.146 178.378V261.378L148.107 291.378Z" fill="#8BC5E4"/>
<path d="M148.107 208.378L121.512 223.733L69.5503 193.733L96.1459 178.378L148.107 208.378Z" fill="#8BC5E4"/>
<path d="M121.512 223.733V238.653L69.5503 208.653V193.733L121.512 223.733Z" fill="#8BC5E4"/>
<path d="M121.512 238.653L102.096 227.623L50.1343 197.623L69.5506 208.653L121.512 238.653Z" fill="#8BC5E4"/>
<path d="M102.096 227.623L50.1343 197.623L102.096 227.623Z" fill="#8BC5E4"/>
<path d="M75.8722 266.633L105.438 249.563L53.4767 219.563L23.9106 236.633L75.8722 266.633Z" fill="#8BC5E4"/>
<path d="M108.851 251.523V284.403L56.8892 254.403V221.523L108.851 251.523Z" fill="#8BC5E4"/>
<path d="M105.438 290.313L75.8722 307.383L23.9106 277.383L53.4767 260.313L105.438 290.313Z" fill="#8BC5E4"/>
<path d="M72.4688 305.408V272.528L20.5073 242.528V275.408L72.4688 305.408Z" fill="#8BC5E4"/>
<path d="M75.8722 266.633L23.9106 236.633L75.8722 266.633Z" fill="#8BC5E4"/>
<path d="M82.4454 299.528V267.988L30.4839 237.988V269.528L82.4454 299.528Z" fill="#8BC5E4"/>
<path d="M82.4454 267.988L91.8851 262.538L39.9235 232.538L30.4839 237.988L82.4454 267.988Z" fill="#8BC5E4"/>
<path d="M92.1101 281.068L86.022 284.583L34.0605 254.583L40.1486 251.068L92.1101 281.068Z" fill="#8BC5E4"/>
<path d="M86.022 284.583V297.463L34.0605 267.463V254.583L86.022 284.583Z" fill="#8BC5E4"/>
<path d="M86.0221 297.463L82.4454 299.528L30.4839 269.528L34.0606 267.463L86.0221 297.463Z" fill="#8BC5E4"/>
<path d="M82.4454 299.528L30.4839 269.528L82.4454 299.528Z" fill="#8BC5E4"/>
<path d="M86.022 269.063L91.4346 265.938L39.4731 235.938L34.0605 239.063L86.022 269.063Z" fill="#8BC5E4"/>
<path d="M91.6685 278.183L86.022 281.443L34.0605 251.443L39.7069 248.183L91.6685 278.183Z" fill="#8BC5E4"/>
<path d="M86.022 281.443V269.063L34.0605 239.063V251.443L86.022 281.443Z" fill="#8BC5E4"/>
<path d="M86.022 269.063L34.0605 239.063L86.022 269.063Z" fill="#8BC5E4"/>
<path d="M62.5875 124.703L214.54 36.9729L162.579 6.9729L10.626 94.7029L62.5875 124.703Z" fill="#8BC5E4"/>
<path d="M220.369 40.3279V99.0879L168.407 69.0879V10.3279L220.369 40.3279Z" fill="#8BC5E4"/>
<path d="M214.54 109.173L62.5875 196.903L10.626 166.903L162.579 79.1729L214.54 109.173Z" fill="#8BC5E4"/>
<path d="M56.7593 193.548V134.788L4.79785 104.788V163.548L56.7593 193.548Z" fill="#8BC5E4"/>
<path d="M62.5875 124.703L10.626 94.7029L62.5875 124.703Z" fill="#8BC5E4"/>
<path d="M109.812 122.018V107.218L57.8506 77.2178V92.0178L109.812 122.018Z" fill="#8BC5E4"/>
<path d="M109.812 107.218L131.021 94.9729L79.0595 64.9729L57.8506 77.2179L109.812 107.218Z" fill="#8BC5E4"/>
<path d="M131.021 94.9729V108.083L79.0591 78.0829V64.9729L131.021 94.9729Z" fill="#8BC5E4"/>
<path d="M131.021 108.083L138.659 109.173L86.6975 79.1728L79.0591 78.0828L131.021 108.083Z" fill="#8BC5E4"/>
<path d="M138.659 109.173L146.367 99.2629L94.4054 69.2629L86.6978 79.1729L138.659 109.173Z" fill="#8BC5E4"/>
<path d="M146.367 99.2628V86.1128L94.4053 56.1128V69.2628L146.367 99.2628Z" fill="#8BC5E4"/>
<path d="M146.367 86.1129L167.576 73.8679L115.614 43.8679L94.4053 56.1129L146.367 86.1129Z" fill="#8BC5E4"/>
<path d="M167.576 73.8679V88.6679L115.614 58.6679V43.8679L167.576 73.8679Z" fill="#8BC5E4"/>
<path d="M167.576 88.668L161.505 92.173L109.543 62.173L115.614 58.668L167.576 88.668Z" fill="#8BC5E4"/>
<path d="M161.505 92.1729L171.733 109.088L119.771 79.0879L109.543 62.1729L161.505 92.1729Z" fill="#8BC5E4"/>
<path d="M171.732 109.088L183.857 102.088L131.895 72.0879L119.771 79.0879L171.732 109.088Z" fill="#8BC5E4"/>
<path d="M183.857 102.088V116.898L131.896 86.8979V72.0879L183.857 102.088Z" fill="#8BC5E4"/>
<path d="M183.857 116.898L162.648 129.143L110.687 99.1429L131.895 86.8979L183.857 116.898Z" fill="#8BC5E4"/>
<path d="M162.648 129.143V116.223L110.687 86.2229V99.1429L162.648 129.143Z" fill="#8BC5E4"/>
<path d="M162.648 116.223L147.978 114.133L96.0161 84.1328L110.687 86.2228L162.648 116.223Z" fill="#8BC5E4"/>
<path d="M147.977 114.133L143.734 125.253L91.7725 95.2528L96.016 84.1328L147.977 114.133Z" fill="#8BC5E4"/>
<path d="M143.734 125.253L149.173 122.113L97.2111 92.1128L91.7725 95.2528L143.734 125.253Z" fill="#8BC5E4"/>
<path d="M149.173 122.113V136.923L97.2114 106.923V92.1128L149.173 122.113Z" fill="#8BC5E4"/>
<path d="M149.173 136.923L127.955 149.173L75.9937 119.173L97.2113 106.923L149.173 136.923Z" fill="#8BC5E4"/>
<path d="M127.955 149.173V134.363L75.9937 104.363V119.173L127.955 149.173Z" fill="#8BC5E4"/>
<path d="M127.955 134.363L133.48 131.173L81.5189 101.173L75.9937 104.363L127.955 134.363Z" fill="#8BC5E4"/>
<path d="M133.481 131.173L129.211 124.918L77.2495 94.918L81.519 101.173L133.481 131.173Z" fill="#8BC5E4"/>
<path d="M129.211 124.918L114.48 143.843L62.5186 113.843L77.2496 94.918L129.211 124.918Z" fill="#8BC5E4"/>
<path d="M114.48 143.843V156.953L62.5186 126.953V113.843L114.48 143.843Z" fill="#8BC5E4"/>
<path d="M114.48 156.953L93.2706 169.198L41.3091 139.198L62.5181 126.953L114.48 156.953Z" fill="#8BC5E4"/>
<path d="M93.2706 169.198V154.388L41.3091 124.388V139.198L93.2706 169.198Z" fill="#8BC5E4"/>
<path d="M93.2706 154.388L105.62 147.258L53.6586 117.258L41.3091 124.388L93.2706 154.388Z" fill="#8BC5E4"/>
<path d="M105.62 147.258L115.64 118.653L63.6786 88.6528L53.6587 117.258L105.62 147.258Z" fill="#8BC5E4"/>
<path d="M115.64 118.653L109.812 122.018L57.8506 92.0178L63.6789 88.6528L115.64 118.653Z" fill="#8BC5E4"/>
<path d="M109.812 122.018L57.8506 92.0178L109.812 122.018Z" fill="#8BC5E4"/>
<path d="M154.915 95.9778L158.509 93.9028L106.547 63.9028L102.953 65.9778L154.915 95.9778Z" fill="#8BC5E4"/>
<path d="M158.508 93.9028L168.736 110.818L116.775 80.8178L106.547 63.9028L158.508 93.9028Z" fill="#8BC5E4"/>
<path d="M168.736 110.818L165.047 112.948L113.085 82.9479L116.775 80.8179L168.736 110.818Z" fill="#8BC5E4"/>
<path d="M165.047 112.948L149.294 110.693L97.3325 80.6929L113.086 82.9479L165.047 112.948Z" fill="#8BC5E4"/>
<path d="M149.294 110.693L154.915 95.9778L102.953 65.9778L97.3325 80.6928L149.294 110.693Z" fill="#8BC5E4"/>
<path d="M154.915 95.9778L102.953 65.9778L154.915 95.9778Z" fill="#8BC5E4"/>
<path d="M149.121 99.3229L151.857 97.7429L99.8958 67.7429L97.1592 69.3229L149.121 99.3229Z" fill="#8BC5E4"/>
<path d="M151.858 97.7429L147.034 110.368L95.0723 80.3679L99.8961 67.7429L151.858 97.7429Z" fill="#8BC5E4"/>
<path d="M147.034 110.368L141.179 109.538L89.2178 79.5378L95.0721 80.3678L147.034 110.368Z" fill="#8BC5E4"/>
<path d="M141.179 109.538L149.121 99.3228L97.1593 69.3228L89.2178 79.5378L141.179 109.538Z" fill="#8BC5E4"/>
<path d="M149.121 99.3228L97.1592 69.3228L149.121 99.3228Z" fill="#8BC5E4"/>
<path d="M138.642 112.803L145.726 113.803L93.7647 83.803L86.6807 82.803L138.642 112.803Z" fill="#8BC5E4"/>
<path d="M145.726 113.803L140.669 127.023L88.707 97.023L93.7645 83.803L145.726 113.803Z" fill="#8BC5E4"/>
<path d="M140.668 127.023L136.537 129.408L84.5757 99.4079L88.7067 97.0229L140.668 127.023Z" fill="#8BC5E4"/>
<path d="M136.537 129.408L131.488 121.993L79.5269 91.9929L84.5758 99.4079L136.537 129.408Z" fill="#8BC5E4"/>
<path d="M131.488 121.993L138.642 112.803L86.6803 82.803L79.5269 91.993L131.488 121.993Z" fill="#8BC5E4"/>
<path d="M138.642 112.803L86.6807 82.803L138.642 112.803Z" fill="#8BC5E4"/>
<path d="M125.374 113.033L128.345 111.318L76.3831 81.3179L73.4126 83.0329L125.374 113.033Z" fill="#8BC5E4"/>
<path d="M128.345 111.318L136.122 112.438L84.1602 82.4379L76.3833 81.3179L128.345 111.318Z" fill="#8BC5E4"/>
<path d="M136.122 112.438L130.172 120.073L78.2104 90.0727L84.16 82.4377L136.122 112.438Z" fill="#8BC5E4"/>
<path d="M130.172 120.073L125.374 113.033L73.4126 83.033L78.2104 90.073L130.172 120.073Z" fill="#8BC5E4"/>
<path d="M125.374 113.033L73.4126 83.033L125.374 113.033Z" fill="#8BC5E4"/>
<path d="M118.628 116.928L122.309 114.803L70.3471 84.803L66.6665 86.928L118.628 116.928Z" fill="#8BC5E4"/>
<path d="M122.309 114.803L127.903 122.993L75.9417 92.993L70.3472 84.803L122.309 114.803Z" fill="#8BC5E4"/>
<path d="M127.903 122.993L111.804 143.688L59.8423 113.688L75.9417 92.9929L127.903 122.993Z" fill="#8BC5E4"/>
<path d="M111.804 143.688L108.608 145.533L56.6465 115.533L59.8421 113.688L111.804 143.688Z" fill="#8BC5E4"/>
<path d="M108.608 145.533L118.628 116.928L66.6664 86.928L56.6465 115.533L108.608 145.533Z" fill="#8BC5E4"/>
<path d="M118.628 116.928L66.6665 86.928L118.628 116.928Z" fill="#8BC5E4"/>
<path d="M92.1104 281.068C94.7778 279.528 100.589 274.093 100.589 266.773L48.6273 236.773C48.6273 244.093 42.8163 249.528 40.1489 251.068L92.1104 281.068Z" fill="#8BC5E4"/>
<path d="M100.589 266.773C100.588 263.951 99.7443 262.411 98.5303 261.689L46.5688 231.689C47.7828 232.411 48.6268 233.951 48.6271 236.773L100.589 266.773Z" fill="#8BC5E4"/>
<path d="M98.5312 261.69C96.6222 260.553 93.7962 261.436 91.8892 262.535L39.9277 232.535C41.8347 231.436 44.6607 230.553 46.5697 231.69L98.5312 261.69Z" fill="#8BC5E4"/>
<path d="M91.4346 265.938C92.7962 265.152 94.0602 265.037 94.9882 265.564L43.0267 235.564C42.0987 235.037 40.8347 235.152 39.4731 235.938L91.4346 265.938Z" fill="#8BC5E4"/>
<path d="M94.9874 265.563C95.9294 266.097 96.5254 267.291 96.5274 269.113L44.5659 239.113C44.5639 237.291 43.9679 236.097 43.0259 235.563L94.9874 265.563Z" fill="#8BC5E4"/>
<path d="M96.527 269.118C96.527 272.258 94.4485 276.578 91.6686 278.183L39.707 248.183C42.487 246.578 44.5654 242.258 44.5654 239.118L96.527 269.118Z" fill="#8BC5E4"/>
<path d="M75.8725 262.973C72.2611 265.058 69.2907 270.193 69.2907 274.363L17.3291 244.363C17.3291 240.193 20.2996 235.058 23.9109 232.973L75.8725 262.973Z" fill="#8BC5E4"/>
<path d="M69.2907 307.243C69.2905 309.333 70.0335 310.804 71.2275 311.492L19.266 281.492C18.072 280.804 17.329 279.333 17.3291 277.243L69.2907 307.243Z" fill="#8BC5E4"/>
<path d="M71.2257 311.491C72.4187 312.18 74.0637 312.086 75.8677 311.046L23.9062 281.046C22.1022 282.086 20.4572 282.18 19.2642 281.491L71.2257 311.491Z" fill="#8BC5E4"/>
<path d="M105.439 293.973C109.059 291.883 112.02 286.753 112.02 282.573L60.0589 252.573C60.0589 256.753 57.0971 261.883 53.4771 263.973L105.439 293.973Z" fill="#8BC5E4"/>
<path d="M112.02 249.693C112.021 247.608 111.279 246.138 110.086 245.45L58.125 215.45C59.318 216.138 60.059 217.608 60.0588 219.693L112.02 249.693Z" fill="#8BC5E4"/>
<path d="M110.088 245.452C108.896 244.764 107.252 244.857 105.443 245.9L53.4819 215.9C55.2909 214.857 56.9349 214.764 58.1269 215.452L110.088 245.452Z" fill="#8BC5E4"/>
<path d="M105.439 249.563C106.396 249.011 107.249 248.948 107.863 249.3L55.9011 219.3C55.2871 218.948 54.4341 219.011 53.4771 219.563L105.439 249.563Z" fill="#8BC5E4"/>
<path d="M107.86 249.299C108.474 249.649 108.849 250.414 108.85 251.517L56.8889 221.517C56.8879 220.414 56.5129 219.649 55.8989 219.299L107.86 249.299Z" fill="#8BC5E4"/>
<path d="M108.851 284.403C108.851 286.613 107.353 289.208 105.439 290.313L53.4771 260.313C55.3911 259.208 56.8893 256.613 56.8893 254.403L108.851 284.403Z" fill="#8BC5E4"/>
<path d="M75.8722 307.383C74.9152 307.936 74.0642 307.994 73.4532 307.639L21.4917 277.639C22.1027 277.994 22.9537 277.936 23.9106 277.383L75.8722 307.383Z" fill="#8BC5E4"/>
<path d="M73.4543 307.64C72.8433 307.285 72.4703 306.517 72.4683 305.414L20.5068 275.414C20.5088 276.517 20.8818 277.285 21.4928 277.64L73.4543 307.64Z" fill="#8BC5E4"/>
<path d="M72.4688 272.528C72.4688 270.318 73.9583 267.738 75.8723 266.633L23.9107 236.633C21.9968 237.738 20.5073 240.318 20.5073 242.528L72.4688 272.528Z" fill="#8BC5E4"/>
<path d="M148.108 291.378C148.108 301.208 146.012 311.908 141.803 320.878L89.8413 290.878C94.0502 281.908 96.146 271.208 96.146 261.378L148.108 291.378Z" fill="#8BC5E4"/>
<path d="M141.803 320.878C137.594 329.848 131.593 337.573 121.01 343.683L69.0483 313.683C79.6311 307.573 85.6327 299.848 89.8415 290.878L141.803 320.878Z" fill="#8BC5E4"/>
<path d="M121.01 343.683C116.385 346.353 111.249 347.468 107.048 345.318L55.0869 315.318C59.2879 317.468 64.4239 316.353 69.0481 313.683L121.01 343.683Z" fill="#8BC5E4"/>
<path d="M107.041 345.315C106.771 345.176 106.504 345.024 106.241 344.857L54.2798 314.857C54.5428 315.024 54.8098 315.176 55.0798 315.315L107.041 345.315Z" fill="#8BC5E4"/>
<path d="M106.235 344.853C105.908 344.644 105.585 344.413 105.268 344.158L53.3062 314.158C53.6232 314.413 53.9462 314.644 54.274 314.853L106.235 344.853Z" fill="#8BC5E4"/>
<path d="M105.268 344.158C102.057 341.575 99.4465 336.534 98.6495 327.26L46.688 297.26C47.485 306.534 50.096 311.575 53.307 314.158L105.268 344.158Z" fill="#8BC5E4"/>
<path d="M85.9181 334.603C86.8102 347.043 90.3882 355.066 95.6172 359.239L43.6557 329.239C38.4267 325.066 34.8487 317.043 33.9565 304.603L85.9181 334.603Z" fill="#8BC5E4"/>
<path d="M95.6226 359.243C96.0776 359.606 96.5456 359.94 97.0256 360.245L45.0641 330.245C44.5841 329.94 44.1161 329.606 43.6611 329.243L95.6226 359.243Z" fill="#8BC5E4"/>
<path d="M97.0295 360.248C97.4595 360.522 97.8985 360.773 98.3445 361L46.383 331C45.937 330.773 45.498 330.522 45.0679 330.248L97.0295 360.248Z" fill="#8BC5E4"/>
<path d="M98.3433 361C105.032 364.417 113.406 362.712 121.003 358.326L69.0418 328.326C61.4448 332.712 53.0708 334.417 46.3818 331L98.3433 361Z" fill="#8BC5E4"/>
<path d="M121.01 358.323C134.892 350.308 145.605 337.353 152.005 323.708L100.043 293.708C93.6434 307.353 82.9307 320.308 69.0483 328.323L121.01 358.323Z" fill="#8BC5E4"/>
<path d="M152.005 323.708C158.413 310.048 160.803 296.178 160.803 284.048L108.842 254.048C108.842 266.178 106.452 280.048 100.043 293.708L152.005 323.708Z" fill="#8BC5E4"/>
<path d="M62.5876 119.173C56.742 122.548 51.9615 130.818 51.9615 137.558L0 107.558C0 100.818 4.7804 92.5479 10.6261 89.1729L62.5876 119.173Z" fill="#8BC5E4"/>
<path d="M51.9615 196.318C51.9615 199.688 53.1565 202.061 55.0825 203.169L3.121 173.169C1.195 172.061 0 169.688 0 166.318L51.9615 196.318Z" fill="#8BC5E4"/>
<path d="M55.0797 203.167C57.0047 204.276 59.6587 204.122 62.5797 202.438L10.6182 172.438C7.69716 174.122 5.04316 174.276 3.11816 173.167L55.0797 203.167Z" fill="#8BC5E4"/>
<path d="M214.54 114.703C220.386 111.328 225.166 103.058 225.166 96.3179L173.205 66.3179C173.205 73.0579 168.424 81.3279 162.579 84.7029L214.54 114.703Z" fill="#8BC5E4"/>
<path d="M225.167 37.558C225.166 34.188 223.971 31.816 222.045 30.707L170.084 0.707031C172.01 1.81603 173.205 4.18803 173.205 7.55803L225.167 37.558Z" fill="#8BC5E4"/>
<path d="M222.048 30.7089C220.124 29.5999 217.469 29.7549 214.549 31.4379L162.588 1.43787C165.508 -0.245128 168.163 -0.400128 170.087 0.708872L222.048 30.7089Z" fill="#8BC5E4"/>
<path d="M214.54 36.9728C216.177 36.0278 217.634 35.9238 218.682 36.5278L166.721 6.52783C165.673 5.92383 164.216 6.02783 162.579 6.97283L214.54 36.9728Z" fill="#8BC5E4"/>
<path d="M218.68 36.5269C219.728 37.1299 220.367 38.4389 220.368 40.3219L168.407 10.3219C168.406 8.43886 167.767 7.12986 166.719 6.52686L218.68 36.5269Z" fill="#8BC5E4"/>
<path d="M220.369 99.0879C220.369 102.858 217.814 107.283 214.54 109.173L162.579 79.1729C165.852 77.2829 168.407 72.8579 168.407 69.0879L220.369 99.0879Z" fill="#8BC5E4"/>
<path d="M62.5875 196.903C60.9504 197.848 59.4934 197.952 58.4454 197.348L6.48389 167.348C7.53189 167.952 8.98889 167.848 10.626 166.903L62.5875 196.903Z" fill="#8BC5E4"/>
<path d="M58.4474 197.349C57.3994 196.746 56.7603 195.437 56.7593 193.554L4.79785 163.554C4.79885 165.437 5.43785 166.746 6.48585 167.349L58.4474 197.349Z" fill="#8BC5E4"/>
<path d="M56.7593 134.788C56.7593 131.018 59.3142 126.593 62.5877 124.703L10.6262 94.7029C7.35255 96.5929 4.79785 101.018 4.79785 104.788L56.7593 134.788Z" fill="#8BC5E4"/>
<path d="M62.5876 210.533C56.742 213.908 51.9615 222.178 51.9615 228.918L0 198.918C0 192.178 4.7804 183.908 10.6261 180.533L62.5876 210.533Z" fill="#8BC5E4"/>
<path d="M51.9615 405.068C51.9615 408.433 53.1565 410.803 55.0825 411.91L3.121 381.91C1.195 380.803 0 378.433 0 375.068L51.9615 405.068Z" fill="#8BC5E4"/>
<path d="M55.0914 411.915C57.0144 413.015 59.6644 412.858 62.5794 411.178L10.6179 381.178C7.70288 382.858 5.05288 383.015 3.12988 381.915L55.0914 411.915Z" fill="#8BC5E4"/>
<path d="M214.54 323.443C220.386 320.068 225.166 311.798 225.166 305.068L173.205 275.068C173.205 281.798 168.424 290.068 162.579 293.443L214.54 323.443Z" fill="#8BC5E4"/>
<path d="M225.167 128.918C225.166 125.548 223.971 123.176 222.045 122.067L170.084 92.0669C172.01 93.1759 173.205 95.5479 173.205 98.9179L225.167 128.918Z" fill="#8BC5E4"/>
<path d="M222.048 122.069C220.124 120.96 217.469 121.114 214.549 122.798L162.588 92.7978C165.508 91.1138 168.163 90.9598 170.087 92.0688L222.048 122.069Z" fill="#8BC5E4"/>
<path d="M214.54 128.333C216.177 127.388 217.634 127.284 218.682 127.888L166.721 97.8879C165.673 97.2839 164.216 97.3879 162.579 98.3329L214.54 128.333Z" fill="#8BC5E4"/>
<path d="M218.68 127.887C219.728 128.49 220.367 129.8 220.368 131.682L168.407 101.682C168.406 99.8 167.767 98.49 166.719 97.887L218.68 127.887Z" fill="#8BC5E4"/>
<path d="M220.369 307.838C220.369 311.598 217.814 316.023 214.54 317.913L162.579 287.913C165.852 286.023 168.407 281.598 168.407 277.838L220.369 307.838Z" fill="#8BC5E4"/>
<path d="M62.5875 405.643C60.9504 406.588 59.4934 406.692 58.4454 406.089L6.48389 376.089C7.53189 376.692 8.98889 376.588 10.626 375.643L62.5875 405.643Z" fill="#8BC5E4"/>
<path d="M58.4474 406.09C57.3994 405.488 56.7603 404.181 56.7593 402.304L4.79785 372.304C4.79885 374.181 5.43785 375.488 6.48585 376.09L58.4474 406.09Z" fill="#8BC5E4"/>
<path d="M56.7593 226.148C56.7593 222.378 59.3142 217.953 62.5877 216.063L10.6262 186.063C7.35255 187.953 4.79785 192.378 4.79785 196.148L56.7593 226.148Z" fill="#8BC5E4"/>
<path d="M214.54 128.333C216.177 127.388 217.634 127.284 218.682 127.888L166.721 97.8879C165.673 97.2839 164.216 97.3879 162.579 98.3329L214.54 128.333Z" fill="#8BC5E4"/>
<path d="M218.68 127.887C219.728 128.49 220.367 129.8 220.368 131.682L168.407 101.682C168.406 99.8 167.767 98.49 166.719 97.887L218.68 127.887Z" fill="#8BC5E4"/>
<path d="M220.369 307.838C220.369 311.598 217.814 316.023 214.54 317.913L162.579 287.913C165.852 286.023 168.407 281.598 168.407 277.838L220.369 307.838Z" fill="#8BC5E4"/>
<path d="M62.5875 405.643C60.9504 406.588 59.4934 406.692 58.4454 406.089L6.48389 376.089C7.53189 376.692 8.98889 376.588 10.626 375.643L62.5875 405.643Z" fill="#8BC5E4"/>
<path d="M58.4474 406.09C57.3994 405.488 56.7603 404.181 56.7593 402.304L4.79785 372.304C4.79885 374.181 5.43785 375.488 6.48585 376.09L58.4474 406.09Z" fill="#8BC5E4"/>
<path d="M56.7593 226.148C56.7593 222.378 59.3142 217.953 62.5877 216.063L10.6262 186.063C7.35255 187.953 4.79785 192.378 4.79785 196.148L56.7593 226.148Z" fill="#8BC5E4"/>
<path d="M69.2907 274.363C69.2907 270.193 72.2611 265.058 75.8725 262.973L23.9109 232.973C20.2996 235.058 17.3291 240.193 17.3291 244.363L69.2907 274.363Z" fill="#8BC5E4"/>
<path d="M105.439 245.903C107.249 244.858 108.895 244.763 110.087 245.45L58.1251 215.45C56.9331 214.763 55.2871 214.858 53.4771 215.903L105.439 245.903Z" fill="#8BC5E4"/>
<path d="M110.086 245.449C111.278 246.136 112.019 247.604 112.021 249.687L60.059 219.687C60.057 217.604 59.316 216.136 58.124 215.449L110.086 245.449Z" fill="#8BC5E4"/>
<path d="M112.02 282.573C112.02 286.753 109.059 291.883 105.439 293.973L53.4771 263.973C57.0971 261.883 60.0589 256.753 60.0589 252.573L112.02 282.573Z" fill="#8BC5E4"/>
<path d="M75.8726 311.043C74.0666 312.085 72.4216 312.18 71.2276 311.492L19.2661 281.492C20.4601 282.18 22.1051 282.085 23.911 281.043L75.8726 311.043Z" fill="#8BC5E4"/>
<path d="M71.2286 311.493C70.0346 310.806 69.2926 309.337 69.2906 307.249L17.3291 277.249C17.3311 279.337 18.0731 280.806 19.2671 281.493L71.2286 311.493Z" fill="#8BC5E4"/>
<path d="M160.803 284.048C160.803 296.178 158.413 310.048 152.005 323.708L100.043 293.708C106.452 280.048 108.842 266.178 108.842 254.048L160.803 284.048Z" fill="#8BC5E4"/>
<path d="M152.005 323.708C145.605 337.353 134.892 350.308 121.01 358.323L69.0483 328.323C82.9307 320.308 93.6434 307.353 100.043 293.708L152.005 323.708Z" fill="#8BC5E4"/>
<path d="M121.01 358.323C113.41 362.711 105.034 364.417 98.3443 361L46.3828 331C53.0728 334.417 61.4488 332.711 69.048 328.323L121.01 358.323Z" fill="#8BC5E4"/>
<path d="M98.3493 361.003C97.9033 360.775 97.4643 360.525 97.0343 360.251L45.0728 330.251C45.5028 330.525 45.9418 330.775 46.3878 331.003L98.3493 361.003Z" fill="#8BC5E4"/>
<path d="M97.0293 360.248C96.5463 359.941 96.0753 359.605 95.6173 359.239L43.6558 329.239C44.1138 329.605 44.5848 329.941 45.0677 330.248L97.0293 360.248Z" fill="#8BC5E4"/>
<path d="M95.6095 359.233C90.3865 355.059 86.8115 347.041 85.9195 334.613L33.958 304.613C34.85 317.041 38.425 325.059 43.648 329.233L95.6095 359.233Z" fill="#8BC5E4"/>
<path d="M98.649 327.253C99.4456 336.532 102.057 341.574 105.268 344.158L53.3061 314.158C50.0951 311.574 47.4841 306.532 46.6875 297.253L98.649 327.253Z" fill="#8BC5E4"/>
<path d="M105.262 344.154C105.579 344.41 105.902 344.641 106.229 344.85L54.2678 314.85C53.9408 314.641 53.6178 314.41 53.3008 314.154L105.262 344.154Z" fill="#8BC5E4"/>
<path d="M106.235 344.853C106.503 345.023 106.774 345.177 107.049 345.318L55.0871 315.318C54.8121 315.177 54.5411 315.023 54.2739 314.853L106.235 344.853Z" fill="#8BC5E4"/>
<path d="M107.048 345.318C111.246 347.468 116.379 346.354 121.002 343.687L69.0409 313.687C64.4179 316.354 59.2849 317.468 55.0869 315.318L107.048 345.318Z" fill="#8BC5E4"/>
<path d="M121.01 343.683C131.593 337.573 137.594 329.848 141.803 320.878L89.8415 290.878C85.6327 299.848 79.6311 307.573 69.0483 313.683L121.01 343.683Z" fill="#8BC5E4"/>
<path d="M141.803 320.878C146.012 311.908 148.108 301.208 148.108 291.378L96.146 261.378C96.146 271.208 94.0502 281.908 89.8413 290.878L141.803 320.878Z" fill="#8BC5E4"/>
<path d="M105.439 249.563C106.396 249.011 107.249 248.948 107.863 249.3L55.9011 219.3C55.2871 218.948 54.4341 219.011 53.4771 219.563L105.439 249.563Z" fill="#8BC5E4"/>
<path d="M107.86 249.299C108.474 249.649 108.849 250.414 108.85 251.517L56.8889 221.517C56.8879 220.414 56.5129 219.649 55.8989 219.299L107.86 249.299Z" fill="#8BC5E4"/>
<path d="M108.851 284.403C108.851 286.613 107.353 289.208 105.439 290.313L53.4771 260.313C55.3911 259.208 56.8893 256.613 56.8893 254.403L108.851 284.403Z" fill="#8BC5E4"/>
<path d="M75.8722 307.383C74.9152 307.936 74.0642 307.994 73.4532 307.639L21.4917 277.639C22.1027 277.994 22.9537 277.936 23.9106 277.383L75.8722 307.383Z" fill="#8BC5E4"/>
<path d="M73.4543 307.64C72.8433 307.285 72.4703 306.517 72.4683 305.414L20.5068 275.414C20.5088 276.517 20.8818 277.285 21.4928 277.64L73.4543 307.64Z" fill="#8BC5E4"/>
<path d="M72.4688 272.528C72.4688 270.318 73.9583 267.738 75.8723 266.633L23.9107 236.633C21.9968 237.738 20.5073 240.318 20.5073 242.528L72.4688 272.528Z" fill="#8BC5E4"/>
<path d="M91.8854 262.538C93.7916 261.438 96.6196 260.552 98.5306 261.689L46.5691 231.689C44.6581 230.552 41.8301 231.438 39.9238 232.538L91.8854 262.538Z" fill="#8BC5E4"/>
<path d="M98.5386 261.693C99.7476 262.418 100.588 263.956 100.589 266.768L48.6271 236.768C48.6261 233.956 47.7861 232.418 46.5771 231.693L98.5386 261.693Z" fill="#8BC5E4"/>
<path d="M100.589 266.773C100.589 274.093 94.7778 279.528 92.1104 281.068L40.1489 251.068C42.8163 249.528 48.6273 244.093 48.6273 236.773L100.589 266.773Z" fill="#8BC5E4"/>
<path d="M91.4346 265.938C92.7962 265.152 94.0602 265.037 94.9882 265.564L43.0267 235.564C42.0987 235.037 40.8347 235.152 39.4731 235.938L91.4346 265.938Z" fill="#8BC5E4"/>
<path d="M94.9874 265.563C95.9294 266.097 96.5254 267.291 96.5274 269.113L44.5659 239.113C44.5639 237.291 43.9679 236.097 43.0259 235.563L94.9874 265.563Z" fill="#8BC5E4"/>
<path d="M96.527 269.118C96.527 272.258 94.4485 276.578 91.6686 278.183L39.707 248.183C42.487 246.578 44.5654 242.258 44.5654 239.118L96.527 269.118Z" fill="#8BC5E4"/>
<path d="M214.54 36.9728C216.177 36.0278 217.634 35.9238 218.682 36.5278L166.721 6.52783C165.673 5.92383 164.216 6.02783 162.579 6.97283L214.54 36.9728Z" fill="#8BC5E4"/>
<path d="M218.68 36.5269C219.728 37.1299 220.367 38.4389 220.368 40.3219L168.407 10.3219C168.406 8.43886 167.767 7.12986 166.719 6.52686L218.68 36.5269Z" fill="#8BC5E4"/>
<path d="M220.369 99.0879C220.369 102.858 217.814 107.283 214.54 109.173L162.579 79.1729C165.852 77.2829 168.407 72.8579 168.407 69.0879L220.369 99.0879Z" fill="#8BC5E4"/>
<path d="M62.5875 196.903C60.9504 197.848 59.4934 197.952 58.4454 197.348L6.48389 167.348C7.53189 167.952 8.98889 167.848 10.626 166.903L62.5875 196.903Z" fill="#8BC5E4"/>
<path d="M58.4474 197.349C57.3994 196.746 56.7603 195.437 56.7593 193.554L4.79785 163.554C4.79885 165.437 5.43785 166.746 6.48585 167.349L58.4474 197.349Z" fill="#8BC5E4"/>
<path d="M56.7593 134.788C56.7593 131.018 59.3142 126.593 62.5877 124.703L10.6262 94.7029C7.35255 96.5929 4.79785 101.018 4.79785 104.788L56.7593 134.788Z" fill="#8BC5E4"/>
<path d="M82.4455 267.988V299.528L86.0222 297.463V284.583L92.1104 281.068C94.7777 279.528 100.589 274.093 100.589 266.773C100.589 259.513 95.0029 260.738 91.8852 262.538L82.4455 267.988ZM86.0222 269.063L91.4349 265.938C94.1802 264.353 96.5271 265.498 96.5271 269.118C96.5271 272.258 94.4486 276.578 91.6687 278.183L86.0222 281.443V269.063ZM75.8724 262.973C72.2611 265.058 69.2906 270.193 69.2906 274.363V307.243C69.2906 311.423 72.2611 313.128 75.8724 311.043L105.438 293.973C109.058 291.883 112.02 286.753 112.02 282.573V249.693C112.02 245.523 109.058 243.813 105.438 245.903L75.8724 262.973ZM75.8724 266.633L105.438 249.563C107.352 248.458 108.851 249.313 108.851 251.523V284.403C108.851 286.613 107.352 289.208 105.438 290.313L75.8724 307.383C73.9585 308.488 72.4689 307.618 72.4689 305.408V272.528C72.4689 270.318 73.9585 267.738 75.8724 266.633ZM121.512 194.163L102.096 227.623L121.512 238.653V223.733L148.108 208.378V291.378C148.108 301.208 146.012 311.908 141.803 320.878C137.594 329.848 131.592 337.573 121.01 343.683C116.082 346.528 110.574 347.608 106.235 344.853C102.589 342.528 99.5235 337.448 98.6489 327.253L111.336 319.928L92.0324 308.683L72.7374 342.213L85.9183 334.603C86.8882 348.133 91.0365 356.438 97.0294 360.248C103.914 364.633 112.904 363.003 121.01 358.323C134.892 350.308 145.605 337.353 152.005 323.708C158.413 310.048 160.803 296.178 160.803 284.048V201.048L186.776 186.053V200.973L206.192 167.523L186.776 156.483V171.413L121.512 209.093V194.163ZM138.642 112.803L145.726 113.803L140.668 127.023L136.537 129.408L131.489 121.993L138.642 112.803ZM154.915 95.9779L158.509 93.9029L168.736 110.818L165.047 112.948L149.294 110.693L154.915 95.9779ZM149.121 99.3229L151.857 97.7429L147.034 110.368L141.179 109.538L149.121 99.3229ZM125.374 113.033L128.345 111.318L136.122 112.438L130.172 120.073L125.374 113.033ZM118.628 116.928L122.309 114.803L127.903 122.993L111.804 143.688L108.608 145.533L118.628 116.928ZM109.812 107.218V122.018L115.64 118.653L105.62 147.258L93.2708 154.388V169.198L114.48 156.953V143.843L129.211 124.918L133.48 131.173L127.955 134.363V149.173L149.173 136.923V122.113L143.734 125.253L147.978 114.133L162.648 116.223V129.143L183.857 116.898V102.088L171.733 109.088L161.505 92.1729L167.576 88.6679V73.8679L146.367 86.1129V99.2629L138.659 109.173L131.021 108.083V94.9729L109.812 107.218ZM62.5876 119.173C56.7419 122.548 51.9614 130.818 51.9614 137.558V196.318C51.9614 203.058 56.7419 205.808 62.5876 202.433L214.54 114.703C220.386 111.328 225.167 103.058 225.167 96.3179V37.5579C225.167 30.8179 220.386 28.0679 214.54 31.4429L62.5876 119.173ZM62.5876 124.703L214.54 36.9729C217.814 35.0829 220.369 36.5579 220.369 40.3279V99.0879C220.369 102.858 217.814 107.283 214.54 109.173L62.5876 196.903C59.314 198.793 56.7592 197.318 56.7592 193.548V134.788C56.7592 131.018 59.314 126.593 62.5876 124.703ZM62.5876 210.533C56.7419 213.908 51.9614 222.178 51.9614 228.918V405.068C51.9614 411.798 56.7419 414.548 62.5876 411.173L214.54 323.443C220.386 320.068 225.167 311.798 225.167 305.068V128.918C225.167 122.178 220.386 119.428 214.54 122.803L62.5876 210.533ZM62.5876 216.063L214.54 128.333C217.814 126.443 220.369 127.918 220.369 131.688V307.838C220.369 311.598 217.814 316.023 214.54 317.913L62.5876 405.643C59.314 407.533 56.7592 406.058 56.7592 402.298V226.148C56.7592 222.378 59.314 217.953 62.5876 216.063Z" fill="#8BC5E4"/>
<path fill-rule="evenodd" clip-rule="evenodd" d="M62.5876 216.063L214.54 128.333C217.814 126.443 220.369 127.918 220.369 131.688V307.838C220.369 311.598 217.814 316.023 214.54 317.913L62.5876 405.643C59.314 407.533 56.7592 406.058 56.7592 402.298V226.148C56.7592 222.378 59.314 217.953 62.5876 216.063ZM69.2906 274.363C69.2906 270.193 72.2611 265.058 75.8724 262.973L105.438 245.903C109.058 243.813 112.02 245.523 112.02 249.693V282.573C112.02 286.753 109.058 291.883 105.438 293.973L75.8724 311.043C72.2611 313.128 69.2906 311.423 69.2906 307.243V274.363ZM102.096 227.623L121.512 194.163V209.093L186.776 171.413V156.483L206.192 167.523L186.776 200.973V186.053L160.803 201.048V284.048C160.803 296.178 158.413 310.048 152.005 323.708C145.605 337.353 134.892 350.308 121.01 358.323C112.904 363.003 103.914 364.633 97.0294 360.248C91.0365 356.438 86.8882 348.133 85.9183 334.603L72.7374 342.213L92.0324 308.683L111.336 319.928L98.6489 327.253C99.5235 337.448 102.589 342.528 106.235 344.853C110.574 347.608 116.082 346.528 121.01 343.683C131.592 337.573 137.594 329.848 141.803 320.878C146.012 311.908 148.108 301.208 148.108 291.378V208.378L121.512 223.733V238.653L102.096 227.623Z" fill="white"/>
<path fill-rule="evenodd" clip-rule="evenodd" d="M75.8724 266.633L105.438 249.563C107.352 248.458 108.851 249.313 108.851 251.523V284.403C108.851 286.613 107.352 289.208 105.438 290.313L75.8724 307.383C73.9585 308.488 72.4689 307.618 72.4689 305.408V272.528C72.4689 270.318 73.9585 267.738 75.8724 266.633ZM82.4455 299.528V267.988L91.8852 262.538C95.0029 260.738 100.589 259.513 100.589 266.773C100.589 274.093 94.7777 279.528 92.1104 281.068L86.0222 284.583V297.463L82.4455 299.528Z" fill="white"/>
<path d="M86.0222 269.063L91.4349 265.938C94.1802 264.353 96.5271 265.498 96.5271 269.118C96.5271 272.258 94.4486 276.578 91.6687 278.183L86.0222 281.443V269.063Z" fill="white"/>
<path fill-rule="evenodd" clip-rule="evenodd" d="M62.5876 124.703L214.54 36.9729C217.814 35.0829 220.369 36.5579 220.369 40.3279V99.0879C220.369 102.858 217.814 107.283 214.54 109.173L62.5876 196.903C59.314 198.793 56.7592 197.318 56.7592 193.548V134.788C56.7592 131.018 59.314 126.593 62.5876 124.703ZM109.812 122.018V107.218L131.021 94.9729V108.083L138.659 109.173L146.367 99.2629V86.1129L167.576 73.8679V88.6679L161.505 92.1729L171.733 109.088L183.857 102.088V116.898L162.648 129.143V116.223L147.978 114.133L143.734 125.253L149.173 122.113V136.923L127.955 149.173V134.363L133.48 131.173L129.211 124.918L114.48 143.843V156.953L93.2708 169.198V154.388L105.62 147.258L115.64 118.653L109.812 122.018Z" fill="white"/>
<path d="M154.915 95.9779L158.509 93.9029L168.736 110.818L165.047 112.948L149.294 110.693L154.915 95.9779Z" fill="white"/>
<path d="M149.121 99.3229L151.857 97.7429L147.034 110.368L141.179 109.538L149.121 99.3229Z" fill="white"/>
<path d="M138.642 112.803L145.726 113.803L140.668 127.023L136.537 129.408L131.489 121.993L138.642 112.803Z" fill="white"/>
<path d="M125.374 113.033L128.345 111.318L136.122 112.438L130.172 120.073L125.374 113.033Z" fill="white"/>
<path d="M118.628 116.928L122.309 114.803L127.903 122.993L111.804 143.688L108.608 145.533L118.628 116.928Z" fill="white"/>
</svg>
