<svg width="226" height="326" viewBox="0 0 226 326" fill="none" xmlns="http://www.w3.org/2000/svg">
<path d="M115.026 271.562L115.025 271.561L166.987 241.561L166.987 241.562L115.026 271.562Z" fill="#8BC5E4"/>
<path d="M124.543 259.507L176.504 229.507L124.543 259.507Z" fill="#8BC5E4"/>
<path d="M141.24 269.137L193.202 239.137L141.24 269.137Z" fill="#8BC5E4"/>
<path d="M115.38 231.247L167.342 201.247L115.38 231.247Z" fill="#8BC5E4"/>
<path d="M150.403 251.467L202.364 221.467L150.403 251.467Z" fill="#8BC5E4"/>
<path d="M132.987 234.192L128.483 236.532L180.445 206.532L184.948 204.192L132.987 234.192Z" fill="#8BC5E4"/>
<path d="M128.483 236.532L131.67 238.372L183.632 208.372L180.445 206.532L128.483 236.532Z" fill="#8BC5E4"/>
<path d="M131.67 238.372V248.882L183.632 218.882V208.372L131.67 238.372Z" fill="#8BC5E4"/>
<path d="M122.231 254.102L113.242 248.912L165.203 218.912L174.193 224.102L122.231 254.102Z" fill="#8BC5E4"/>
<path d="M113.242 248.912V245.252L165.203 215.252V218.912L113.242 248.912Z" fill="#8BC5E4"/>
<path d="M113.241 245.252L108.946 247.942L160.907 217.942L165.203 215.252L113.241 245.252Z" fill="#8BC5E4"/>
<path d="M108.946 247.942L113.241 255.382L165.203 225.382L160.907 217.942L108.946 247.942Z" fill="#8BC5E4"/>
<path d="M113.242 255.382V251.982L165.203 221.982V225.382L113.242 255.382Z" fill="#8BC5E4"/>
<path d="M113.242 251.982L122.032 257.057L173.993 227.057L165.203 221.982L113.242 251.982Z" fill="#8BC5E4"/>
<path d="M131.67 273.022V283.542L183.632 253.542V243.022L131.67 273.022Z" fill="#8BC5E4"/>
<path d="M131.67 283.542L128.483 281.702L180.445 251.702L183.632 253.542L131.67 283.542Z" fill="#8BC5E4"/>
<path d="M128.483 281.702L132.987 289.242L184.948 259.242L180.445 251.702L128.483 281.702Z" fill="#8BC5E4"/>
<path d="M132.987 289.242L137.3 286.792L189.261 256.792L184.948 259.242L132.987 289.242Z" fill="#8BC5E4"/>
<path d="M137.3 286.792L134.347 285.087L186.308 255.087L189.261 256.792L137.3 286.792Z" fill="#8BC5E4"/>
<path d="M134.347 285.087V274.797L186.308 244.797V255.087L134.347 285.087Z" fill="#8BC5E4"/>
<path d="M143.76 269.602L152.55 274.677L204.512 244.677L195.722 239.602L143.76 269.602Z" fill="#8BC5E4"/>
<path d="M152.55 274.677V278.077L204.512 248.077V244.677L152.55 274.677Z" fill="#8BC5E4"/>
<path d="M152.55 278.077L156.846 275.597L208.807 245.597L204.512 248.077L152.55 278.077Z" fill="#8BC5E4"/>
<path d="M156.846 275.597L152.55 267.947L204.512 237.947L208.807 245.597L156.846 275.597Z" fill="#8BC5E4"/>
<path d="M152.55 267.947V271.607L204.512 241.607V237.947L152.55 267.947Z" fill="#8BC5E4"/>
<path d="M152.55 271.607L143.561 266.417L195.523 236.417L204.512 241.607L152.55 271.607Z" fill="#8BC5E4"/>
<path d="M134.347 250.197V239.917L186.308 209.917V220.197L134.347 250.197Z" fill="#8BC5E4"/>
<path d="M134.347 239.917L137.3 241.622L189.261 211.622L186.308 209.917L134.347 239.917Z" fill="#8BC5E4"/>
<path d="M137.3 241.622L132.987 234.192L184.948 204.192L189.261 211.622L137.3 241.622Z" fill="#8BC5E4"/>
<path d="M132.987 234.192L184.948 204.192L132.987 234.192Z" fill="#8BC5E4"/>
<path d="M44.4358 147.937L18.0913 150.697L70.0528 120.697L96.3973 117.937L44.4358 147.937Z" fill="#8BC5E4"/>
<path d="M18.0913 150.697L44.4358 183.607L96.3973 153.607L70.0528 120.697L18.0913 150.697Z" fill="#8BC5E4"/>
<path d="M44.436 183.607V171.987L96.3975 141.987V153.607L44.436 183.607Z" fill="#8BC5E4"/>
<path d="M44.436 171.987L75.3791 189.852L127.341 159.852L96.3975 141.987L44.436 171.987Z" fill="#8BC5E4"/>
<path d="M75.3789 189.852V176.412L127.34 146.412V159.852L75.3789 189.852Z" fill="#8BC5E4"/>
<path d="M75.3791 176.412L44.436 158.547L96.3975 128.547L127.341 146.412L75.3791 176.412Z" fill="#8BC5E4"/>
<path d="M44.436 158.547V147.937L96.3975 117.937V128.547L44.436 158.547Z" fill="#8BC5E4"/>
<path d="M44.436 147.937L96.3975 117.937L44.436 147.937Z" fill="#8BC5E4"/>
<path d="M112.601 160.442V171.052L164.562 141.052V130.442L112.601 160.442Z" fill="#8BC5E4"/>
<path d="M112.601 171.052L81.6577 153.187L133.619 123.187L164.562 141.052L112.601 171.052Z" fill="#8BC5E4"/>
<path d="M81.6577 153.187V166.617L133.619 136.617V123.187L81.6577 153.187Z" fill="#8BC5E4"/>
<path d="M81.6577 166.617L112.601 184.482L164.562 154.482L133.619 136.617L81.6577 166.617Z" fill="#8BC5E4"/>
<path d="M112.601 184.482V196.102L164.562 166.102V154.482L112.601 184.482Z" fill="#8BC5E4"/>
<path d="M112.601 196.102L138.945 193.612L190.907 163.612L164.562 166.102L112.601 196.102Z" fill="#8BC5E4"/>
<path d="M138.945 193.612L112.601 160.442L164.562 130.442L190.907 163.612L138.945 193.612Z" fill="#8BC5E4"/>
<path d="M112.601 160.442L164.562 130.442L112.601 160.442Z" fill="#8BC5E4"/>
<path d="M62.1544 105.657L35.8013 108.402L87.7628 78.4022L114.116 75.6572L62.1544 105.657Z" fill="#8BC5E4"/>
<path d="M35.8013 108.402L62.1544 141.317L114.116 111.317L87.7628 78.4021L35.8013 108.402Z" fill="#8BC5E4"/>
<path d="M62.1548 141.317V129.697L114.116 99.6973V111.317L62.1548 141.317Z" fill="#8BC5E4"/>
<path d="M62.1548 129.697L93.0979 147.562L145.059 117.562L114.116 99.6973L62.1548 129.697Z" fill="#8BC5E4"/>
<path d="M93.0977 147.562V134.132L145.059 104.132V117.562L93.0977 147.562Z" fill="#8BC5E4"/>
<path d="M93.0979 134.132L62.1548 116.267L114.116 86.2671L145.059 104.132L93.0979 134.132Z" fill="#8BC5E4"/>
<path d="M62.1548 116.267V105.657L114.116 75.6572V86.2672L62.1548 116.267Z" fill="#8BC5E4"/>
<path d="M62.1548 105.657L114.116 75.6572L62.1548 105.657Z" fill="#8BC5E4"/>
<path d="M129.817 117.792V128.402L181.779 98.4022V87.7922L129.817 117.792Z" fill="#8BC5E4"/>
<path d="M129.817 128.402L98.874 110.537L150.836 80.5371L181.779 98.4021L129.817 128.402Z" fill="#8BC5E4"/>
<path d="M98.874 110.537V123.967L150.836 93.9671V80.5371L98.874 110.537Z" fill="#8BC5E4"/>
<path d="M98.874 123.967L129.817 141.832L181.779 111.832L150.836 93.967L98.874 123.967Z" fill="#8BC5E4"/>
<path d="M129.817 141.832V153.452L181.779 123.452V111.832L129.817 141.832Z" fill="#8BC5E4"/>
<path d="M129.817 153.452L156.162 150.972L208.123 120.972L181.779 123.452L129.817 153.452Z" fill="#8BC5E4"/>
<path d="M156.162 150.972L129.817 117.792L181.779 87.7922L208.123 120.972L156.162 150.972Z" fill="#8BC5E4"/>
<path d="M129.817 117.792L181.779 87.7922L129.817 117.792Z" fill="#8BC5E4"/>
<path d="M10.626 36.957L162.579 124.687L214.54 94.687L62.5876 6.95703L10.626 36.957Z" fill="#8BC5E4"/>
<path d="M168.407 134.762V310.322L220.369 280.322V104.762L168.407 134.762Z" fill="#8BC5E4"/>
<path d="M162.579 313.667L10.626 225.937L62.5876 195.937L214.54 283.667L162.579 313.667Z" fill="#8BC5E4"/>
<path d="M4.79785 215.862V40.3022L56.7593 10.3022V185.862L4.79785 215.862Z" fill="#8BC5E4"/>
<path d="M10.626 36.957L62.5876 6.95703L10.626 36.957Z" fill="#8BC5E4"/>
<path d="M0 37.5322V213.092L51.9615 183.092V7.53223L0 37.5322Z" fill="#8BC5E4"/>
<path d="M10.626 231.447L162.579 319.177L214.54 289.177L62.5876 201.447L10.626 231.447Z" fill="#8BC5E4"/>
<path d="M173.205 313.092V137.532L225.167 107.532V283.092L173.205 313.092Z" fill="#8BC5E4"/>
<path d="M162.579 119.177L10.626 31.447L62.5876 1.44702L214.54 89.177L162.579 119.177Z" fill="#8BC5E4"/>
<path d="M10.626 31.447L62.5876 1.44702L10.626 31.447Z" fill="#8BC5E4"/>
<path d="M10.626 36.957L162.579 124.687L214.54 94.687L62.5876 6.95703L10.626 36.957Z" fill="#8BC5E4"/>
<path d="M168.407 134.762V310.322L220.369 280.322V104.762L168.407 134.762Z" fill="#8BC5E4"/>
<path d="M162.579 313.667L10.626 225.937L62.5876 195.937L214.54 283.667L162.579 313.667Z" fill="#8BC5E4"/>
<path d="M4.79785 215.862V40.3022L56.7593 10.3022V185.862L4.79785 215.862Z" fill="#8BC5E4"/>
<path d="M10.626 36.957L62.5876 6.95703L10.626 36.957Z" fill="#8BC5E4"/>
<path d="M128.483 236.532L132.987 234.192L184.948 204.192L180.445 206.532L128.483 236.532Z" fill="#8BC5E4"/>
<path d="M132.987 234.192L137.3 241.622L189.261 211.622L184.948 204.192L132.987 234.192Z" fill="#8BC5E4"/>
<path d="M137.3 241.622L134.347 239.917L186.308 209.917L189.261 211.622L137.3 241.622Z" fill="#8BC5E4"/>
<path d="M134.347 239.917V250.197L186.308 220.197V209.917L134.347 239.917Z" fill="#8BC5E4"/>
<path d="M143.561 266.417L152.55 271.607L204.512 241.607L195.523 236.417L143.561 266.417Z" fill="#8BC5E4"/>
<path d="M152.55 271.607V267.947L204.512 237.947V241.607L152.55 271.607Z" fill="#8BC5E4"/>
<path d="M152.55 267.947L156.846 275.597L208.807 245.597L204.512 237.947L152.55 267.947Z" fill="#8BC5E4"/>
<path d="M156.846 275.597L152.55 278.077L204.512 248.077L208.807 245.597L156.846 275.597Z" fill="#8BC5E4"/>
<path d="M152.55 278.077V274.677L204.512 244.677V248.077L152.55 278.077Z" fill="#8BC5E4"/>
<path d="M152.55 274.677L143.76 269.602L195.722 239.602L204.512 244.677L152.55 274.677Z" fill="#8BC5E4"/>
<path d="M134.347 274.797V285.087L186.308 255.087V244.797L134.347 274.797Z" fill="#8BC5E4"/>
<path d="M134.347 285.087L137.3 286.792L189.261 256.792L186.308 255.087L134.347 285.087Z" fill="#8BC5E4"/>
<path d="M137.3 286.792L132.987 289.242L184.948 259.242L189.261 256.792L137.3 286.792Z" fill="#8BC5E4"/>
<path d="M132.987 289.242L128.483 281.702L180.445 251.702L184.948 259.242L132.987 289.242Z" fill="#8BC5E4"/>
<path d="M128.483 281.702L131.67 283.542L183.632 253.542L180.445 251.702L128.483 281.702Z" fill="#8BC5E4"/>
<path d="M131.67 283.542V273.022L183.632 243.022V253.542L131.67 283.542Z" fill="#8BC5E4"/>
<path d="M122.032 257.057L113.242 251.982L165.203 221.982L173.993 227.057L122.032 257.057Z" fill="#8BC5E4"/>
<path d="M113.242 251.982V255.382L165.203 225.382V221.982L113.242 251.982Z" fill="#8BC5E4"/>
<path d="M113.241 255.382L108.946 247.942L160.907 217.942L165.203 225.382L113.241 255.382Z" fill="#8BC5E4"/>
<path d="M108.946 247.942L113.241 245.252L165.203 215.252L160.907 217.942L108.946 247.942Z" fill="#8BC5E4"/>
<path d="M113.242 245.252V248.912L165.203 218.912V215.252L113.242 245.252Z" fill="#8BC5E4"/>
<path d="M113.242 248.912L122.231 254.102L174.193 224.102L165.203 218.912L113.242 248.912Z" fill="#8BC5E4"/>
<path d="M131.67 248.882V238.372L183.632 208.372V218.882L131.67 248.882Z" fill="#8BC5E4"/>
<path d="M131.67 238.372L128.483 236.532L180.445 206.532L183.632 208.372L131.67 238.372Z" fill="#8BC5E4"/>
<path d="M128.483 236.532L180.445 206.532L128.483 236.532Z" fill="#8BC5E4"/>
<path d="M18.0913 150.697L44.4358 147.937L96.3973 117.937L70.0528 120.697L18.0913 150.697Z" fill="#8BC5E4"/>
<path d="M44.436 147.937V158.547L96.3975 128.547V117.937L44.436 147.937Z" fill="#8BC5E4"/>
<path d="M44.436 158.547L75.3791 176.412L127.341 146.412L96.3975 128.547L44.436 158.547Z" fill="#8BC5E4"/>
<path d="M75.3789 176.412V189.852L127.34 159.852V146.412L75.3789 176.412Z" fill="#8BC5E4"/>
<path d="M75.3791 189.852L44.436 171.987L96.3975 141.987L127.341 159.852L75.3791 189.852Z" fill="#8BC5E4"/>
<path d="M44.436 171.987V183.607L96.3975 153.607V141.987L44.436 171.987Z" fill="#8BC5E4"/>
<path d="M44.4358 183.607L18.0913 150.697L70.0528 120.697L96.3973 153.607L44.4358 183.607Z" fill="#8BC5E4"/>
<path d="M18.0913 150.697L70.0528 120.697L18.0913 150.697Z" fill="#8BC5E4"/>
<path d="M112.601 171.052V160.442L164.562 130.442V141.052L112.601 171.052Z" fill="#8BC5E4"/>
<path d="M112.601 160.442L138.945 193.612L190.907 163.612L164.562 130.442L112.601 160.442Z" fill="#8BC5E4"/>
<path d="M138.945 193.612L112.601 196.102L164.562 166.102L190.907 163.612L138.945 193.612Z" fill="#8BC5E4"/>
<path d="M112.601 196.102V184.482L164.562 154.482V166.102L112.601 196.102Z" fill="#8BC5E4"/>
<path d="M112.601 184.482L81.6577 166.617L133.619 136.617L164.562 154.482L112.601 184.482Z" fill="#8BC5E4"/>
<path d="M81.6577 166.617V153.187L133.619 123.187V136.617L81.6577 166.617Z" fill="#8BC5E4"/>
<path d="M81.6577 153.187L112.601 171.052L164.562 141.052L133.619 123.187L81.6577 153.187Z" fill="#8BC5E4"/>
<path d="M112.601 171.052L164.562 141.052L112.601 171.052Z" fill="#8BC5E4"/>
<path d="M35.8013 108.402L62.1544 105.657L114.116 75.6572L87.7628 78.4022L35.8013 108.402Z" fill="#8BC5E4"/>
<path d="M62.1548 105.657V116.267L114.116 86.2672V75.6572L62.1548 105.657Z" fill="#8BC5E4"/>
<path d="M62.1548 116.267L93.0979 134.132L145.059 104.132L114.116 86.2671L62.1548 116.267Z" fill="#8BC5E4"/>
<path d="M93.0977 134.132V147.562L145.059 117.562V104.132L93.0977 134.132Z" fill="#8BC5E4"/>
<path d="M93.0979 147.562L62.1548 129.697L114.116 99.6973L145.059 117.562L93.0979 147.562Z" fill="#8BC5E4"/>
<path d="M62.1548 129.697V141.317L114.116 111.317V99.6973L62.1548 129.697Z" fill="#8BC5E4"/>
<path d="M62.1544 141.317L35.8013 108.402L87.7628 78.4021L114.116 111.317L62.1544 141.317Z" fill="#8BC5E4"/>
<path d="M35.8013 108.402L87.7628 78.4021L35.8013 108.402Z" fill="#8BC5E4"/>
<path d="M129.817 128.402V117.792L181.779 87.7922V98.4022L129.817 128.402Z" fill="#8BC5E4"/>
<path d="M129.817 117.792L156.162 150.972L208.123 120.972L181.779 87.7922L129.817 117.792Z" fill="#8BC5E4"/>
<path d="M156.162 150.972L129.817 153.452L181.779 123.452L208.123 120.972L156.162 150.972Z" fill="#8BC5E4"/>
<path d="M129.817 153.452V141.832L181.779 111.832V123.452L129.817 153.452Z" fill="#8BC5E4"/>
<path d="M129.817 141.832L98.874 123.967L150.836 93.967L181.779 111.832L129.817 141.832Z" fill="#8BC5E4"/>
<path d="M98.874 123.967V110.537L150.836 80.5371V93.9671L98.874 123.967Z" fill="#8BC5E4"/>
<path d="M98.874 110.537L129.817 128.402L181.779 98.4021L150.836 80.5371L98.874 110.537Z" fill="#8BC5E4"/>
<path d="M129.817 128.402L181.779 98.4021L129.817 128.402Z" fill="#8BC5E4"/>
<path d="M150.403 251.467L202.364 221.467L150.403 251.467Z" fill="#8BC5E4"/>
<path d="M141.24 269.137L193.202 239.137L141.24 269.137Z" fill="#8BC5E4"/>
<path d="M115.38 231.247L167.342 201.247L115.38 231.247Z" fill="#8BC5E4"/>
<path d="M115.026 271.562L115.025 271.561L166.987 241.561L166.987 241.562L115.026 271.562Z" fill="#8BC5E4"/>
<path d="M124.543 259.507L176.504 229.507L124.543 259.507Z" fill="#8BC5E4"/>
<path d="M124.543 259.507C125.348 263.282 127.574 267.167 130.449 269.797L182.411 239.797C179.536 237.167 177.31 233.282 176.504 229.507L124.543 259.507Z" fill="#8BC5E4"/>
<path d="M130.45 269.797C130.284 269.866 130.118 269.933 129.954 270L181.916 240C182.08 239.933 182.246 239.866 182.411 239.797L130.45 269.797Z" fill="#8BC5E4"/>
<path d="M129.954 270C126.994 271.191 124.202 271.978 121.806 272.357L173.768 242.357C176.164 241.978 178.956 241.191 181.916 240L129.954 270Z" fill="#8BC5E4"/>
<path d="M121.807 272.357C119.797 272.647 118.057 272.652 116.81 272.372L168.771 242.372C170.018 242.652 171.759 242.647 173.768 242.357L121.807 272.357Z" fill="#8BC5E4"/>
<path d="M116.809 272.372C116.177 272.237 115.683 272.042 115.38 271.857L167.342 241.857C167.645 242.042 168.139 242.237 168.771 242.372L116.809 272.372Z" fill="#8BC5E4"/>
<path d="M115.38 271.857C115.077 271.672 115.034 271.567 115.025 271.562L166.987 241.562C166.996 241.567 167.039 241.672 167.342 241.857L115.38 271.857Z" fill="#8BC5E4"/>
<path d="M115.025 271.561C115.014 271.543 114.964 271.458 114.956 271.122L166.918 241.122C166.926 241.458 166.976 241.543 166.986 241.561L115.025 271.561Z" fill="#8BC5E4"/>
<path d="M114.956 271.122C114.956 270.772 115.034 270.247 115.251 269.652L167.212 239.652C166.996 240.247 166.918 240.772 166.918 241.122L114.956 271.122Z" fill="#8BC5E4"/>
<path d="M115.25 269.652C115.657 268.457 116.549 266.982 117.857 265.467L169.819 235.467C168.511 236.982 167.619 238.457 167.212 239.652L115.25 269.652Z" fill="#8BC5E4"/>
<path d="M117.857 265.467C119.416 263.629 121.55 261.702 124.111 259.821L176.073 229.821C173.512 231.702 171.378 233.629 169.819 235.467L117.857 265.467Z" fill="#8BC5E4"/>
<path d="M124.104 259.826C124.246 259.722 124.39 259.617 124.535 259.513L176.497 229.513C176.352 229.617 176.208 229.722 176.066 229.826L124.104 259.826Z" fill="#8BC5E4"/>
<path d="M141.24 269.137C143.994 274.297 146.289 278.992 147.935 282.832L199.896 252.832C198.251 248.992 195.956 244.297 193.202 239.137L141.24 269.137Z" fill="#8BC5E4"/>
<path d="M147.935 282.832C149.234 285.862 150.134 288.362 150.541 290.027L202.503 260.027C202.096 258.362 201.195 255.862 199.896 252.832L147.935 282.832Z" fill="#8BC5E4"/>
<path d="M150.541 290.027C150.749 290.867 150.835 291.487 150.827 291.832L202.788 261.832C202.797 261.487 202.71 260.867 202.503 260.027L150.541 290.027Z" fill="#8BC5E4"/>
<path d="M150.827 291.832C150.827 292.172 150.758 292.182 150.758 292.192L202.719 262.192C202.719 262.182 202.789 262.172 202.789 261.832L150.827 291.832Z" fill="#8BC5E4"/>
<path d="M150.758 292.192C150.749 292.187 150.706 292.242 150.403 292.077L202.364 262.077C202.668 262.242 202.711 262.187 202.719 262.192L150.758 292.192Z" fill="#8BC5E4"/>
<path d="M150.403 292.077C150.108 291.917 149.606 291.537 148.982 290.947L200.944 260.947C201.568 261.537 202.07 261.917 202.364 262.077L150.403 292.077Z" fill="#8BC5E4"/>
<path d="M148.982 290.947C147.727 289.782 145.986 287.767 143.985 285.162L195.947 255.162C197.947 257.767 199.688 259.782 200.944 260.947L148.982 290.947Z" fill="#8BC5E4"/>
<path d="M143.985 285.162C141.456 281.842 138.477 277.552 135.342 272.622L187.304 242.622C190.439 247.552 193.418 251.842 195.947 255.162L143.985 285.162Z" fill="#8BC5E4"/>
<path d="M135.342 272.622C136.748 272.958 137.999 272.811 139.004 272.238L190.965 242.238C189.96 242.811 188.709 242.958 187.304 242.622L135.342 272.622Z" fill="#8BC5E4"/>
<path d="M139.001 272.24C140.046 271.646 140.826 270.593 141.238 269.145L193.199 239.145C192.787 240.593 192.007 241.646 190.962 242.24L139.001 272.24Z" fill="#8BC5E4"/>
<path d="M115.38 231.247C115.683 231.412 116.177 231.777 116.809 232.372L168.771 202.372C168.139 201.777 167.645 201.412 167.342 201.247L115.38 231.247Z" fill="#8BC5E4"/>
<path d="M116.81 232.372C118.057 233.542 119.797 235.547 121.807 238.167L173.768 208.167C171.759 205.547 170.018 203.542 168.771 202.372L116.81 232.372Z" fill="#8BC5E4"/>
<path d="M121.807 238.167C124.335 241.477 127.306 245.772 130.45 250.707L182.411 220.707C179.267 215.772 176.297 211.477 173.768 208.167L121.807 238.167Z" fill="#8BC5E4"/>
<path d="M130.45 250.707C129.016 250.365 127.741 250.521 126.724 251.119L178.686 221.119C179.703 220.521 180.978 220.365 182.411 220.707L130.45 250.707Z" fill="#8BC5E4"/>
<path d="M126.728 251.117C125.712 251.714 124.953 252.752 124.554 254.174L176.516 224.174C176.915 222.752 177.674 221.714 178.69 221.117L126.728 251.117Z" fill="#8BC5E4"/>
<path d="M124.552 254.182C121.798 249.032 119.503 244.327 117.857 240.497L169.819 210.497C171.464 214.327 173.759 219.032 176.513 224.182L124.552 254.182Z" fill="#8BC5E4"/>
<path d="M117.857 240.497C116.549 237.452 115.657 234.957 115.25 233.302L167.212 203.302C167.619 204.957 168.511 207.452 169.819 210.497L117.857 240.497Z" fill="#8BC5E4"/>
<path d="M115.251 233.302C115.034 232.457 114.956 231.832 114.956 231.492L166.918 201.492C166.918 201.832 166.996 202.457 167.212 203.302L115.251 233.302Z" fill="#8BC5E4"/>
<path d="M114.956 231.492C114.965 231.157 115.025 231.132 115.025 231.122L166.987 201.122C166.987 201.132 166.926 201.157 166.918 201.492L114.956 231.492Z" fill="#8BC5E4"/>
<path d="M115.025 231.122C115.034 231.127 115.077 231.082 115.38 231.247L167.342 201.247C167.039 201.082 166.996 201.127 166.987 201.122L115.025 231.122Z" fill="#8BC5E4"/>
<path d="M150.403 251.467C150.706 251.652 150.749 251.747 150.758 251.752L202.719 221.752C202.711 221.747 202.668 221.652 202.364 221.467L150.403 251.467Z" fill="#8BC5E4"/>
<path d="M150.758 251.752C150.758 251.762 150.827 251.862 150.827 252.202L202.789 222.202C202.789 221.862 202.719 221.762 202.719 221.752L150.758 251.752Z" fill="#8BC5E4"/>
<path d="M150.827 252.202C150.835 252.547 150.749 253.077 150.541 253.677L202.503 223.677C202.71 223.077 202.797 222.547 202.788 222.202L150.827 252.202Z" fill="#8BC5E4"/>
<path d="M150.541 253.677C150.134 254.862 149.234 256.322 147.935 257.862L199.896 227.862C201.195 226.322 202.096 224.862 202.503 223.677L150.541 253.677Z" fill="#8BC5E4"/>
<path d="M147.934 257.862C146.376 259.69 144.234 261.622 141.672 263.495L193.633 233.495C196.195 231.622 198.337 229.69 199.896 227.862L147.934 257.862Z" fill="#8BC5E4"/>
<path d="M141.679 263.489C141.537 263.593 141.393 263.697 141.248 263.801L193.21 233.801C193.355 233.697 193.499 233.593 193.641 233.489L141.679 263.489Z" fill="#8BC5E4"/>
<path d="M141.24 263.807C140.435 260.042 138.209 256.157 135.342 253.532L187.304 223.532C190.17 226.157 192.396 230.042 193.201 233.807L141.24 263.807Z" fill="#8BC5E4"/>
<path d="M135.342 253.532C135.508 253.463 135.673 253.395 135.837 253.328L187.798 223.328C187.634 223.395 187.469 223.463 187.304 223.532L135.342 253.532Z" fill="#8BC5E4"/>
<path d="M135.837 253.329C138.787 252.133 141.584 251.334 143.978 250.973L195.939 220.973C193.545 221.334 190.748 222.133 187.798 223.329L135.837 253.329Z" fill="#8BC5E4"/>
<path d="M143.985 250.972C145.986 250.667 147.727 250.672 148.982 250.947L200.944 220.947C199.688 220.672 197.947 220.667 195.947 220.972L143.985 250.972Z" fill="#8BC5E4"/>
<path d="M148.982 250.947C149.606 251.077 150.108 251.287 150.403 251.467L202.364 221.467C202.07 221.287 201.568 221.077 200.944 220.947L148.982 250.947Z" fill="#8BC5E4"/>
<path d="M131.671 248.882C128.605 244.092 125.686 239.897 123.114 236.532L175.076 206.532C177.648 209.897 180.566 214.092 183.632 218.882L131.671 248.882Z" fill="#8BC5E4"/>
<path d="M123.114 236.532C121.001 233.782 119.148 231.612 117.545 230.097L169.507 200.097C171.109 201.612 172.962 203.782 175.076 206.532L123.114 236.532Z" fill="#8BC5E4"/>
<path d="M117.546 230.097C116.74 229.342 116.004 228.747 115.294 228.367L167.255 198.367C167.966 198.747 168.702 199.342 169.507 200.097L117.546 230.097Z" fill="#8BC5E4"/>
<path d="M115.294 228.367C114.62 228.015 113.916 227.84 113.381 228.079L165.342 198.079C165.877 197.84 166.581 198.015 167.255 198.367L115.294 228.367Z" fill="#8BC5E4"/>
<path d="M113.388 228.075C113.352 228.091 113.317 228.109 113.283 228.128L165.245 198.128C165.279 198.109 165.314 198.091 165.35 198.075L113.388 228.075Z" fill="#8BC5E4"/>
<path d="M113.276 228.132C113.242 228.152 113.209 228.174 113.178 228.198L165.14 198.198C165.171 198.174 165.204 198.152 165.238 198.132L113.276 228.132Z" fill="#8BC5E4"/>
<path d="M113.178 228.197C112.707 228.548 112.515 229.238 112.497 230.012L164.459 200.012C164.477 199.238 164.669 198.548 165.14 198.197L113.178 228.197Z" fill="#8BC5E4"/>
<path d="M112.497 230.022C112.488 230.837 112.644 231.767 112.904 232.827L164.866 202.827C164.606 201.767 164.45 200.837 164.458 200.022L112.497 230.022Z" fill="#8BC5E4"/>
<path d="M112.904 232.827C113.432 234.972 114.428 237.657 115.796 240.857L167.758 210.857C166.39 207.657 165.394 204.972 164.865 202.827L112.904 232.827Z" fill="#8BC5E4"/>
<path d="M115.796 240.857C117.433 244.672 119.624 249.187 122.231 254.102L174.192 224.102C171.586 219.187 169.395 214.672 167.758 210.857L115.796 240.857Z" fill="#8BC5E4"/>
<path d="M122.032 257.057C121.894 257.158 121.757 257.26 121.622 257.362L173.584 227.362C173.719 227.26 173.856 227.158 173.993 227.057L122.032 257.057Z" fill="#8BC5E4"/>
<path d="M121.622 257.362C119.285 259.122 117.315 260.95 115.801 262.722L167.762 232.722C169.276 230.95 171.246 229.122 173.583 227.362L121.622 257.362Z" fill="#8BC5E4"/>
<path d="M115.796 262.727C114.428 264.337 113.441 265.887 112.904 267.407L164.865 237.407C165.402 235.887 166.39 234.337 167.758 232.727L115.796 262.727Z" fill="#8BC5E4"/>
<path d="M112.904 267.407C112.644 268.167 112.488 268.917 112.497 269.752L164.458 239.752C164.45 238.917 164.606 238.167 164.866 237.407L112.904 267.407Z" fill="#8BC5E4"/>
<path d="M112.497 269.752C112.514 270.582 112.73 271.587 113.276 272.532L165.237 242.532C164.692 241.587 164.475 240.582 164.458 239.752L112.497 269.752Z" fill="#8BC5E4"/>
<path d="M113.276 272.532C113.821 273.487 114.575 274.182 115.294 274.627L167.255 244.627C166.536 244.182 165.783 243.487 165.237 242.532L113.276 272.532Z" fill="#8BC5E4"/>
<path d="M115.294 274.627C116.004 275.067 116.74 275.332 117.546 275.497L169.507 245.497C168.702 245.332 167.966 245.067 167.255 244.627L115.294 274.627Z" fill="#8BC5E4"/>
<path d="M117.545 275.497C119.148 275.842 121.001 275.802 123.114 275.492L175.076 245.492C172.962 245.802 171.109 245.842 169.507 245.497L117.545 275.497Z" fill="#8BC5E4"/>
<path d="M123.114 275.492C125.546 275.128 128.287 274.353 131.169 273.222L183.131 243.222C180.249 244.353 177.508 245.128 175.076 245.492L123.114 275.492Z" fill="#8BC5E4"/>
<path d="M131.169 273.222C131.336 273.156 131.503 273.09 131.67 273.022L183.631 243.022C183.464 243.09 183.297 243.156 183.13 243.222L131.169 273.222Z" fill="#8BC5E4"/>
<path d="M134.347 274.797C137.326 279.427 140.166 283.517 142.669 286.782L194.631 256.782C192.128 253.517 189.287 249.427 186.308 244.797L134.347 274.797Z" fill="#8BC5E4"/>
<path d="M142.669 286.782C144.782 289.532 146.644 291.717 148.238 293.217L200.199 263.217C198.606 261.717 196.744 259.532 194.631 256.782L142.669 286.782Z" fill="#8BC5E4"/>
<path d="M148.238 293.217C149.034 293.977 149.771 294.562 150.489 294.947L202.451 264.947C201.732 264.562 200.996 263.977 200.199 263.217L148.238 293.217Z" fill="#8BC5E4"/>
<path d="M150.489 294.947C151.171 295.313 151.876 295.489 152.404 295.238L204.366 265.238C203.838 265.489 203.133 265.313 202.451 264.947L150.489 294.947Z" fill="#8BC5E4"/>
<path d="M152.398 295.241C152.433 295.225 152.467 295.206 152.501 295.186L204.462 265.186C204.428 265.206 204.394 265.225 204.359 265.241L152.398 295.241Z" fill="#8BC5E4"/>
<path d="M152.507 295.182C152.545 295.16 152.582 295.136 152.617 295.109L204.579 265.109C204.544 265.136 204.507 265.16 204.469 265.182L152.507 295.182Z" fill="#8BC5E4"/>
<path d="M152.617 295.109C153.08 294.762 153.268 294.061 153.278 293.307L205.24 263.307C205.23 264.061 205.042 264.762 204.579 265.109L152.617 295.109Z" fill="#8BC5E4"/>
<path d="M153.278 293.297C153.295 292.477 153.148 291.552 152.879 290.487L204.841 260.487C205.109 261.552 205.257 262.477 205.239 263.297L153.278 293.297Z" fill="#8BC5E4"/>
<path d="M152.879 290.487C152.342 288.347 151.355 285.657 149.987 282.467L201.948 252.467C203.317 255.657 204.304 258.347 204.841 260.487L152.879 290.487Z" fill="#8BC5E4"/>
<path d="M149.987 282.467C148.394 278.747 146.28 274.367 143.76 269.602L195.722 239.602C198.242 244.367 200.355 248.747 201.949 252.467L149.987 282.467Z" fill="#8BC5E4"/>
<path d="M143.561 266.417C143.703 266.313 143.844 266.208 143.984 266.103L195.946 236.103C195.806 236.208 195.665 236.313 195.523 236.417L143.561 266.417Z" fill="#8BC5E4"/>
<path d="M143.983 266.103C146.396 264.293 148.444 262.426 149.982 260.603L201.943 230.603C200.405 232.426 198.357 234.293 195.944 236.103L143.983 266.103Z" fill="#8BC5E4"/>
<path d="M149.987 260.597C151.355 258.977 152.342 257.437 152.879 255.907L204.841 225.907C204.304 227.437 203.317 228.977 201.948 230.597L149.987 260.597Z" fill="#8BC5E4"/>
<path d="M152.879 255.907C153.148 255.152 153.295 254.397 153.278 253.567L205.239 223.567C205.257 224.397 205.109 225.152 204.841 225.907L152.879 255.907Z" fill="#8BC5E4"/>
<path d="M153.278 253.567C153.269 252.722 153.053 251.737 152.507 250.782L204.469 220.782C205.014 221.737 205.231 222.722 205.24 223.567L153.278 253.567Z" fill="#8BC5E4"/>
<path d="M152.507 250.782C151.97 249.842 151.217 249.147 150.489 248.687L202.451 218.687C203.178 219.147 203.932 219.842 204.469 220.782L152.507 250.782Z" fill="#8BC5E4"/>
<path d="M150.489 248.687C149.771 248.242 149.034 247.987 148.238 247.817L200.199 217.817C200.996 217.987 201.732 218.242 202.451 218.687L150.489 248.687Z" fill="#8BC5E4"/>
<path d="M148.238 247.817C146.644 247.487 144.782 247.512 142.669 247.822L194.631 217.822C196.744 217.512 198.606 217.487 200.199 217.817L148.238 247.817Z" fill="#8BC5E4"/>
<path d="M142.669 247.822C140.303 248.186 137.635 248.921 134.834 250.005L186.795 220.005C189.596 218.921 192.264 218.186 194.631 217.822L142.669 247.822Z" fill="#8BC5E4"/>
<path d="M134.825 250.009C134.668 250.07 134.512 250.131 134.355 250.194L186.316 220.194C186.473 220.131 186.629 220.07 186.786 220.009L134.825 250.009Z" fill="#8BC5E4"/>
<path d="M162.579 124.687C165.853 126.577 168.408 130.992 168.408 134.762L220.369 104.762C220.369 100.992 217.814 96.5773 214.541 94.6873L162.579 124.687Z" fill="#8BC5E4"/>
<path d="M168.407 310.322C168.407 312.207 167.769 313.516 166.721 314.117L218.683 284.117C219.731 283.516 220.369 282.207 220.369 280.322L168.407 310.322Z" fill="#8BC5E4"/>
<path d="M166.722 314.116C165.675 314.718 164.219 314.613 162.584 313.67L214.545 283.67C216.18 284.613 217.636 284.718 218.683 284.116L166.722 314.116Z" fill="#8BC5E4"/>
<path d="M10.6262 225.937C7.35265 224.047 4.79785 219.632 4.79785 215.862L56.7593 185.862C56.7593 189.632 59.3142 194.047 62.5878 195.937L10.6262 225.937Z" fill="#8BC5E4"/>
<path d="M4.79785 40.3021C4.79805 38.4171 5.43605 37.1081 6.48405 36.5071L58.4456 6.50708C57.3976 7.10808 56.7595 8.41708 56.7593 10.3021L4.79785 40.3021Z" fill="#8BC5E4"/>
<path d="M6.48291 36.5082C7.52991 35.9062 8.98591 36.0112 10.6209 36.9542L62.5824 6.95419C60.9474 6.01119 59.4914 5.90619 58.4444 6.50819L6.48291 36.5082Z" fill="#8BC5E4"/>
<path d="M10.6259 31.4471C7.70884 29.7631 5.05684 29.5991 3.13184 30.6941L55.0933 0.694141C57.0183 -0.400859 59.6703 -0.236859 62.5875 1.44714L10.6259 31.4471Z" fill="#8BC5E4"/>
<path d="M3.124 30.6992C1.198 31.7992 0.003 34.1612 0 37.5222L51.9615 7.52222C51.9645 4.16122 53.1595 1.79922 55.0855 0.699219L3.124 30.6992Z" fill="#8BC5E4"/>
<path d="M0 213.092C0 219.822 4.7805 228.072 10.6261 231.447L62.5877 201.447C56.742 198.072 51.9615 189.822 51.9615 183.092L0 213.092Z" fill="#8BC5E4"/>
<path d="M162.579 319.177C165.496 320.861 168.148 321.025 170.073 319.93L222.035 289.93C220.11 291.025 217.458 290.861 214.541 289.177L162.579 319.177Z" fill="#8BC5E4"/>
<path d="M170.081 319.925C172.007 318.826 173.202 316.463 173.205 313.102L225.167 283.102C225.164 286.463 223.969 288.826 222.043 289.925L170.081 319.925Z" fill="#8BC5E4"/>
<path d="M173.205 137.532C173.205 130.802 168.425 122.552 162.579 119.177L214.541 89.1772C220.386 92.5522 225.167 100.802 225.167 107.532L173.205 137.532Z" fill="#8BC5E4"/>
<path d="M162.579 124.687C165.853 126.577 168.408 130.992 168.408 134.762L220.369 104.762C220.369 100.992 217.814 96.5773 214.541 94.6873L162.579 124.687Z" fill="#8BC5E4"/>
<path d="M168.407 310.322C168.407 312.207 167.769 313.516 166.721 314.117L218.683 284.117C219.731 283.516 220.369 282.207 220.369 280.322L168.407 310.322Z" fill="#8BC5E4"/>
<path d="M166.722 314.116C165.675 314.718 164.219 314.613 162.584 313.67L214.545 283.67C216.18 284.613 217.636 284.718 218.683 284.116L166.722 314.116Z" fill="#8BC5E4"/>
<path d="M10.6262 225.937C7.35265 224.047 4.79785 219.632 4.79785 215.862L56.7593 185.862C56.7593 189.632 59.3142 194.047 62.5878 195.937L10.6262 225.937Z" fill="#8BC5E4"/>
<path d="M4.79785 40.3021C4.79805 38.4171 5.43605 37.1081 6.48405 36.5071L58.4456 6.50708C57.3976 7.10808 56.7595 8.41708 56.7593 10.3021L4.79785 40.3021Z" fill="#8BC5E4"/>
<path d="M6.48291 36.5082C7.52991 35.9062 8.98591 36.0112 10.6209 36.9542L62.5824 6.95419C60.9474 6.01119 59.4914 5.90619 58.4444 6.50819L6.48291 36.5082Z" fill="#8BC5E4"/>
<path d="M134.347 250.197C134.509 250.132 134.672 250.068 134.834 250.005L186.796 220.005C186.634 220.068 186.471 220.132 186.308 220.197L134.347 250.197Z" fill="#8BC5E4"/>
<path d="M134.834 250.005C137.632 248.922 140.298 248.188 142.662 247.823L194.623 217.823C192.259 218.188 189.593 218.922 186.795 220.005L134.834 250.005Z" fill="#8BC5E4"/>
<path d="M142.669 247.822C144.782 247.512 146.644 247.487 148.238 247.817L200.199 217.817C198.606 217.487 196.744 217.512 194.631 217.822L142.669 247.822Z" fill="#8BC5E4"/>
<path d="M148.238 247.817C149.034 247.987 149.771 248.242 150.489 248.687L202.451 218.687C201.732 218.242 200.996 217.987 200.199 217.817L148.238 247.817Z" fill="#8BC5E4"/>
<path d="M150.489 248.687C151.217 249.147 151.97 249.842 152.507 250.782L204.469 220.782C203.932 219.842 203.178 219.147 202.451 218.687L150.489 248.687Z" fill="#8BC5E4"/>
<path d="M152.507 250.782C153.053 251.737 153.269 252.722 153.278 253.567L205.24 223.567C205.231 222.722 205.014 221.737 204.469 220.782L152.507 250.782Z" fill="#8BC5E4"/>
<path d="M153.278 253.567C153.295 254.397 153.148 255.152 152.879 255.907L204.841 225.907C205.109 225.152 205.257 224.397 205.239 223.567L153.278 253.567Z" fill="#8BC5E4"/>
<path d="M152.879 255.907C152.342 257.437 151.355 258.977 149.987 260.597L201.948 230.597C203.317 228.977 204.304 227.437 204.841 225.907L152.879 255.907Z" fill="#8BC5E4"/>
<path d="M149.987 260.597C148.448 262.421 146.398 264.291 143.984 266.103L195.945 236.103C198.359 234.291 200.409 232.421 201.948 230.597L149.987 260.597Z" fill="#8BC5E4"/>
<path d="M143.976 266.109C143.841 266.21 143.706 266.31 143.569 266.411L195.53 236.411C195.667 236.31 195.802 236.21 195.937 236.109L143.976 266.109Z" fill="#8BC5E4"/>
<path d="M143.76 269.602C146.28 274.367 148.394 278.747 149.987 282.467L201.949 252.467C200.355 248.747 198.242 244.367 195.722 239.602L143.76 269.602Z" fill="#8BC5E4"/>
<path d="M149.987 282.467C151.355 285.657 152.342 288.347 152.879 290.487L204.841 260.487C204.304 258.347 203.317 255.657 201.948 252.467L149.987 282.467Z" fill="#8BC5E4"/>
<path d="M152.879 290.487C153.148 291.552 153.295 292.477 153.278 293.297L205.239 263.297C205.257 262.477 205.109 261.552 204.841 260.487L152.879 290.487Z" fill="#8BC5E4"/>
<path d="M153.278 293.297C153.27 294.055 153.082 294.761 152.617 295.109L204.579 265.109C205.044 264.761 205.232 264.055 205.24 263.297L153.278 293.297Z" fill="#8BC5E4"/>
<path d="M152.611 295.114C152.579 295.137 152.547 295.158 152.513 295.178L204.475 265.178C204.509 265.158 204.541 265.137 204.573 265.114L152.611 295.114Z" fill="#8BC5E4"/>
<path d="M152.507 295.182C152.474 295.203 152.439 295.221 152.404 295.238L204.365 265.238C204.4 265.221 204.435 265.203 204.468 265.182L152.507 295.182Z" fill="#8BC5E4"/>
<path d="M152.391 295.244C151.867 295.486 151.172 295.311 150.498 294.952L202.46 264.952C203.134 265.311 203.829 265.486 204.353 265.244L152.391 295.244Z" fill="#8BC5E4"/>
<path d="M150.489 294.947C149.771 294.562 149.034 293.977 148.238 293.217L200.199 263.217C200.996 263.977 201.732 264.562 202.451 264.947L150.489 294.947Z" fill="#8BC5E4"/>
<path d="M148.238 293.217C146.644 291.717 144.782 289.532 142.669 286.782L194.631 256.782C196.744 259.532 198.606 261.717 200.199 263.217L148.238 293.217Z" fill="#8BC5E4"/>
<path d="M142.669 286.782C140.166 283.517 137.326 279.427 134.347 274.797L186.308 244.797C189.287 249.427 192.128 253.517 194.631 256.782L142.669 286.782Z" fill="#8BC5E4"/>
<path d="M131.67 273.022C131.503 273.09 131.336 273.156 131.169 273.222L183.13 243.222C183.297 243.156 183.464 243.09 183.632 243.022L131.67 273.022Z" fill="#8BC5E4"/>
<path d="M131.169 273.222C128.287 274.353 125.546 275.128 123.114 275.492L175.075 245.492C177.507 245.128 180.248 244.353 183.13 243.222L131.169 273.222Z" fill="#8BC5E4"/>
<path d="M123.114 275.492C121.001 275.802 119.148 275.842 117.545 275.497L169.507 245.497C171.109 245.842 172.962 245.802 175.076 245.492L123.114 275.492Z" fill="#8BC5E4"/>
<path d="M117.546 275.497C116.74 275.332 116.004 275.067 115.294 274.627L167.255 244.627C167.966 245.067 168.702 245.332 169.507 245.497L117.546 275.497Z" fill="#8BC5E4"/>
<path d="M115.294 274.627C114.575 274.182 113.821 273.487 113.276 272.532L165.237 242.532C165.783 243.487 166.536 244.182 167.255 244.627L115.294 274.627Z" fill="#8BC5E4"/>
<path d="M113.276 272.532C112.73 271.587 112.514 270.582 112.497 269.752L164.458 239.752C164.475 240.582 164.692 241.587 165.237 242.532L113.276 272.532Z" fill="#8BC5E4"/>
<path d="M112.497 269.752C112.488 268.917 112.644 268.167 112.904 267.407L164.866 237.407C164.606 238.167 164.45 238.917 164.458 239.752L112.497 269.752Z" fill="#8BC5E4"/>
<path d="M112.904 267.407C113.441 265.887 114.428 264.337 115.796 262.727L167.758 232.727C166.39 234.337 165.402 235.887 164.865 237.407L112.904 267.407Z" fill="#8BC5E4"/>
<path d="M115.796 262.727C117.311 260.955 119.282 259.124 121.622 257.362L173.584 227.362C171.244 229.124 169.273 230.955 167.758 232.727L115.796 262.727Z" fill="#8BC5E4"/>
<path d="M121.629 257.356C121.76 257.258 121.891 257.16 122.024 257.062L173.985 227.062C173.852 227.16 173.721 227.258 173.59 227.356L121.629 257.356Z" fill="#8BC5E4"/>
<path d="M122.231 254.102C119.624 249.187 117.433 244.672 115.796 240.857L167.758 210.857C169.395 214.672 171.586 219.187 174.192 224.102L122.231 254.102Z" fill="#8BC5E4"/>
<path d="M115.796 240.857C114.428 237.657 113.432 234.972 112.904 232.827L164.865 202.827C165.394 204.972 166.39 207.657 167.758 210.857L115.796 240.857Z" fill="#8BC5E4"/>
<path d="M112.904 232.827C112.644 231.767 112.488 230.837 112.497 230.022L164.458 200.022C164.45 200.837 164.606 201.767 164.866 202.827L112.904 232.827Z" fill="#8BC5E4"/>
<path d="M112.497 230.022C112.513 229.244 112.704 228.549 113.178 228.198L165.139 198.198C164.665 198.549 164.474 199.244 164.458 200.022L112.497 230.022Z" fill="#8BC5E4"/>
<path d="M113.172 228.202C113.204 228.178 113.236 228.156 113.27 228.136L165.231 198.136C165.197 198.156 165.165 198.178 165.133 198.202L113.172 228.202Z" fill="#8BC5E4"/>
<path d="M113.276 228.132C113.31 228.112 113.345 228.095 113.381 228.079L165.342 198.079C165.306 198.095 165.271 198.112 165.237 198.132L113.276 228.132Z" fill="#8BC5E4"/>
<path d="M113.38 228.079C113.913 227.84 114.614 228.014 115.286 228.363L167.247 198.363C166.575 198.014 165.874 197.84 165.341 198.079L113.38 228.079Z" fill="#8BC5E4"/>
<path d="M115.294 228.367C116.004 228.747 116.74 229.342 117.546 230.097L169.507 200.097C168.702 199.342 167.966 198.747 167.255 198.367L115.294 228.367Z" fill="#8BC5E4"/>
<path d="M117.545 230.097C119.148 231.612 121.001 233.782 123.114 236.532L175.076 206.532C172.962 203.782 171.109 201.612 169.507 200.097L117.545 230.097Z" fill="#8BC5E4"/>
<path d="M123.114 236.532C125.686 239.897 128.605 244.092 131.671 248.882L183.632 218.882C180.566 214.092 177.648 209.897 175.076 206.532L123.114 236.532Z" fill="#8BC5E4"/>
<path d="M150.403 251.467C150.706 251.652 150.749 251.747 150.758 251.752L202.719 221.752C202.711 221.747 202.668 221.652 202.364 221.467L150.403 251.467Z" fill="#8BC5E4"/>
<path d="M150.758 251.752C150.758 251.762 150.827 251.862 150.827 252.202L202.789 222.202C202.789 221.862 202.719 221.762 202.719 221.752L150.758 251.752Z" fill="#8BC5E4"/>
<path d="M150.827 252.202C150.835 252.547 150.749 253.077 150.541 253.677L202.503 223.677C202.71 223.077 202.797 222.547 202.788 222.202L150.827 252.202Z" fill="#8BC5E4"/>
<path d="M150.541 253.677C150.134 254.862 149.234 256.322 147.935 257.862L199.896 227.862C201.195 226.322 202.096 224.862 202.503 223.677L150.541 253.677Z" fill="#8BC5E4"/>
<path d="M147.934 257.862C146.376 259.69 144.234 261.622 141.672 263.495L193.633 233.495C196.195 231.622 198.337 229.69 199.896 227.862L147.934 257.862Z" fill="#8BC5E4"/>
<path d="M141.679 263.489C141.537 263.593 141.393 263.697 141.248 263.801L193.21 233.801C193.355 233.697 193.499 233.593 193.641 233.489L141.679 263.489Z" fill="#8BC5E4"/>
<path d="M141.24 263.807C140.435 260.042 138.209 256.157 135.342 253.532L187.304 223.532C190.17 226.157 192.396 230.042 193.201 233.807L141.24 263.807Z" fill="#8BC5E4"/>
<path d="M135.342 253.532C135.508 253.463 135.673 253.395 135.837 253.328L187.798 223.328C187.634 223.395 187.469 223.463 187.304 223.532L135.342 253.532Z" fill="#8BC5E4"/>
<path d="M135.837 253.329C138.787 252.133 141.584 251.334 143.978 250.973L195.939 220.973C193.545 221.334 190.748 222.133 187.798 223.329L135.837 253.329Z" fill="#8BC5E4"/>
<path d="M143.985 250.972C145.986 250.667 147.727 250.672 148.982 250.947L200.944 220.947C199.688 220.672 197.947 220.667 195.947 220.972L143.985 250.972Z" fill="#8BC5E4"/>
<path d="M148.982 250.947C149.606 251.077 150.108 251.287 150.403 251.467L202.364 221.467C202.07 221.287 201.568 221.077 200.944 220.947L148.982 250.947Z" fill="#8BC5E4"/>
<path d="M141.24 269.137C143.994 274.297 146.289 278.992 147.935 282.832L199.896 252.832C198.251 248.992 195.956 244.297 193.202 239.137L141.24 269.137Z" fill="#8BC5E4"/>
<path d="M147.935 282.832C149.234 285.862 150.134 288.362 150.541 290.027L202.503 260.027C202.096 258.362 201.195 255.862 199.896 252.832L147.935 282.832Z" fill="#8BC5E4"/>
<path d="M150.541 290.027C150.749 290.867 150.835 291.487 150.827 291.832L202.788 261.832C202.797 261.487 202.71 260.867 202.503 260.027L150.541 290.027Z" fill="#8BC5E4"/>
<path d="M150.827 291.832C150.827 292.172 150.758 292.182 150.758 292.192L202.719 262.192C202.719 262.182 202.789 262.172 202.789 261.832L150.827 291.832Z" fill="#8BC5E4"/>
<path d="M150.758 292.192C150.749 292.187 150.706 292.242 150.403 292.077L202.364 262.077C202.668 262.242 202.711 262.187 202.719 262.192L150.758 292.192Z" fill="#8BC5E4"/>
<path d="M150.403 292.077C150.108 291.917 149.606 291.537 148.982 290.947L200.944 260.947C201.568 261.537 202.07 261.917 202.364 262.077L150.403 292.077Z" fill="#8BC5E4"/>
<path d="M148.982 290.947C147.727 289.782 145.986 287.767 143.985 285.162L195.947 255.162C197.947 257.767 199.688 259.782 200.944 260.947L148.982 290.947Z" fill="#8BC5E4"/>
<path d="M143.985 285.162C141.456 281.842 138.477 277.552 135.342 272.622L187.304 242.622C190.439 247.552 193.418 251.842 195.947 255.162L143.985 285.162Z" fill="#8BC5E4"/>
<path d="M135.342 272.622C136.748 272.958 137.999 272.811 139.004 272.238L190.965 242.238C189.96 242.811 188.709 242.958 187.304 242.622L135.342 272.622Z" fill="#8BC5E4"/>
<path d="M139.001 272.24C140.046 271.646 140.826 270.593 141.238 269.145L193.199 239.145C192.787 240.593 192.007 241.646 190.962 242.24L139.001 272.24Z" fill="#8BC5E4"/>
<path d="M115.38 231.247C115.683 231.412 116.177 231.777 116.809 232.372L168.771 202.372C168.139 201.777 167.645 201.412 167.342 201.247L115.38 231.247Z" fill="#8BC5E4"/>
<path d="M116.81 232.372C118.057 233.542 119.797 235.547 121.807 238.167L173.768 208.167C171.759 205.547 170.018 203.542 168.771 202.372L116.81 232.372Z" fill="#8BC5E4"/>
<path d="M121.807 238.167C124.335 241.477 127.306 245.772 130.45 250.707L182.411 220.707C179.267 215.772 176.297 211.477 173.768 208.167L121.807 238.167Z" fill="#8BC5E4"/>
<path d="M130.45 250.707C129.016 250.365 127.741 250.521 126.724 251.119L178.686 221.119C179.703 220.521 180.978 220.365 182.411 220.707L130.45 250.707Z" fill="#8BC5E4"/>
<path d="M126.728 251.117C125.712 251.714 124.953 252.752 124.554 254.174L176.516 224.174C176.915 222.752 177.674 221.714 178.69 221.117L126.728 251.117Z" fill="#8BC5E4"/>
<path d="M124.552 254.182C121.798 249.032 119.503 244.327 117.857 240.497L169.819 210.497C171.464 214.327 173.759 219.032 176.513 224.182L124.552 254.182Z" fill="#8BC5E4"/>
<path d="M117.857 240.497C116.549 237.452 115.657 234.957 115.25 233.302L167.212 203.302C167.619 204.957 168.511 207.452 169.819 210.497L117.857 240.497Z" fill="#8BC5E4"/>
<path d="M115.251 233.302C115.034 232.457 114.956 231.832 114.956 231.492L166.918 201.492C166.918 201.832 166.996 202.457 167.212 203.302L115.251 233.302Z" fill="#8BC5E4"/>
<path d="M114.956 231.492C114.965 231.157 115.025 231.132 115.025 231.122L166.987 201.122C166.987 201.132 166.926 201.157 166.918 201.492L114.956 231.492Z" fill="#8BC5E4"/>
<path d="M115.025 231.122C115.034 231.127 115.077 231.082 115.38 231.247L167.342 201.247C167.039 201.082 166.996 201.127 166.987 201.122L115.025 231.122Z" fill="#8BC5E4"/>
<path d="M124.543 259.507C125.348 263.282 127.574 267.167 130.449 269.797L182.411 239.797C179.536 237.167 177.31 233.282 176.504 229.507L124.543 259.507Z" fill="#8BC5E4"/>
<path d="M130.45 269.797C130.284 269.866 130.118 269.933 129.954 270L181.916 240C182.08 239.933 182.246 239.866 182.411 239.797L130.45 269.797Z" fill="#8BC5E4"/>
<path d="M129.954 270C126.994 271.191 124.202 271.978 121.806 272.357L173.768 242.357C176.164 241.978 178.956 241.191 181.916 240L129.954 270Z" fill="#8BC5E4"/>
<path d="M121.807 272.357C119.797 272.647 118.057 272.652 116.81 272.372L168.771 242.372C170.018 242.652 171.759 242.647 173.768 242.357L121.807 272.357Z" fill="#8BC5E4"/>
<path d="M116.809 272.372C116.177 272.237 115.683 272.042 115.38 271.857L167.342 241.857C167.645 242.042 168.139 242.237 168.771 242.372L116.809 272.372Z" fill="#8BC5E4"/>
<path d="M115.38 271.857C115.077 271.672 115.034 271.567 115.025 271.562L166.987 241.562C166.996 241.567 167.039 241.672 167.342 241.857L115.38 271.857Z" fill="#8BC5E4"/>
<path d="M115.025 271.561C115.014 271.543 114.964 271.458 114.956 271.122L166.918 241.122C166.926 241.458 166.976 241.543 166.986 241.561L115.025 271.561Z" fill="#8BC5E4"/>
<path d="M114.956 271.122C114.956 270.772 115.034 270.247 115.251 269.652L167.212 239.652C166.996 240.247 166.918 240.772 166.918 241.122L114.956 271.122Z" fill="#8BC5E4"/>
<path d="M115.25 269.652C115.657 268.457 116.549 266.982 117.857 265.467L169.819 235.467C168.511 236.982 167.619 238.457 167.212 239.652L115.25 269.652Z" fill="#8BC5E4"/>
<path d="M117.857 265.467C119.416 263.629 121.55 261.702 124.111 259.821L176.073 229.821C173.512 231.702 171.378 233.629 169.819 235.467L117.857 265.467Z" fill="#8BC5E4"/>
<path d="M124.104 259.826C124.246 259.722 124.39 259.617 124.535 259.513L176.497 229.513C176.352 229.617 176.208 229.722 176.066 229.826L124.104 259.826Z" fill="#8BC5E4"/>
<path d="M124.543 259.507C125.349 263.282 127.574 267.167 130.449 269.797C127.306 271.102 124.335 271.957 121.806 272.357C119.797 272.647 118.057 272.652 116.81 272.372C116.177 272.237 115.684 272.042 115.381 271.857C115.077 271.672 115.034 271.567 115.025 271.562L115.025 271.561C115.014 271.543 114.965 271.458 114.956 271.122C114.956 270.772 115.034 270.247 115.251 269.652C115.658 268.457 116.55 266.982 117.857 265.467C119.503 263.527 121.789 261.487 124.543 259.507ZM141.24 269.137C143.994 274.297 146.289 278.992 147.934 282.832C149.234 285.862 150.134 288.362 150.541 290.027C150.749 290.867 150.836 291.487 150.827 291.832C150.827 292.172 150.758 292.182 150.758 292.192C150.749 292.187 150.706 292.242 150.403 292.077C150.108 291.917 149.606 291.537 148.982 290.947C147.727 289.782 145.986 287.767 143.985 285.162C141.457 281.842 138.477 277.552 135.342 272.622C138.209 273.307 140.435 271.982 141.24 269.137ZM115.381 231.247C115.684 231.412 116.177 231.777 116.81 232.372C118.057 233.542 119.797 235.547 121.806 238.167C124.335 241.477 127.306 245.772 130.449 250.707C127.583 250.022 125.349 251.332 124.552 254.182C121.798 249.032 119.503 244.327 117.857 240.497C116.55 237.452 115.658 234.957 115.251 233.302C115.034 232.457 114.956 231.832 114.956 231.492C114.965 231.157 115.025 231.132 115.025 231.122C115.034 231.127 115.077 231.082 115.381 231.247ZM150.403 251.467C150.706 251.652 150.749 251.747 150.758 251.752C150.758 251.762 150.827 251.862 150.827 252.202C150.836 252.547 150.749 253.077 150.541 253.677C150.134 254.862 149.234 256.322 147.934 257.862C146.289 259.792 143.994 261.837 141.24 263.807C140.435 260.042 138.209 256.157 135.342 253.532C138.477 252.222 141.457 251.352 143.985 250.972C145.986 250.667 147.727 250.672 148.982 250.947C149.606 251.077 150.108 251.287 150.403 251.467ZM132.987 234.192L128.484 236.532L131.67 238.372V248.882C128.605 244.092 125.686 239.897 123.114 236.532C121.001 233.782 119.148 231.612 117.546 230.097C116.74 229.342 116.004 228.747 115.294 228.367C114.575 227.992 113.822 227.817 113.276 228.132C112.731 228.457 112.514 229.192 112.497 230.022C112.488 230.837 112.644 231.767 112.904 232.827C113.432 234.972 114.428 237.657 115.796 240.857C117.433 244.672 119.624 249.187 122.231 254.102L113.241 248.912V245.252L108.946 247.942L113.241 255.382V251.982L122.032 257.057C119.512 258.912 117.398 260.852 115.796 262.727C114.428 264.337 113.441 265.887 112.904 267.407C112.644 268.167 112.488 268.917 112.497 269.752C112.514 270.582 112.731 271.587 113.276 272.532C113.822 273.487 114.575 274.182 115.294 274.627C116.004 275.067 116.74 275.332 117.546 275.497C119.148 275.842 121.001 275.802 123.114 275.492C125.686 275.107 128.605 274.262 131.67 273.022V283.542L128.484 281.702L132.987 289.242L137.3 286.792L134.347 285.087V274.797C137.326 279.427 140.166 283.517 142.669 286.782C144.782 289.532 146.644 291.717 148.238 293.217C149.034 293.977 149.77 294.562 150.489 294.947C151.217 295.337 151.97 295.512 152.507 295.182C153.053 294.867 153.269 294.112 153.278 293.297C153.295 292.477 153.148 291.552 152.879 290.487C152.343 288.347 151.355 285.657 149.987 282.467C148.393 278.747 146.28 274.367 143.76 269.602L152.55 274.677V278.077L156.846 275.597L152.55 267.947V271.607L143.561 266.417C146.159 264.507 148.359 262.527 149.987 260.597C151.355 258.977 152.343 257.437 152.879 255.907C153.148 255.152 153.295 254.397 153.278 253.567C153.269 252.722 153.053 251.737 152.507 250.782C151.97 249.842 151.217 249.147 150.489 248.687C149.77 248.242 149.034 247.987 148.238 247.817C146.644 247.487 144.782 247.512 142.669 247.822C140.166 248.207 137.326 249.007 134.347 250.197V239.917L137.3 241.622L132.987 234.192ZM44.4358 147.937L18.0913 150.697L44.4358 183.607V171.987L75.3789 189.852V176.412L44.4358 158.547V147.937ZM112.601 160.442V171.052L81.6575 153.187V166.617L112.601 184.482V196.102L138.945 193.612L112.601 160.442ZM62.1546 105.657L35.8015 108.402L62.1546 141.317V129.697L93.0977 147.562V134.132L62.1546 116.267V105.657ZM129.817 117.792V128.402L98.8741 110.537V123.967L129.817 141.832V153.452L156.162 150.972L129.817 117.792ZM10.6261 36.9573L162.579 124.687C165.853 126.577 168.407 130.992 168.407 134.762V310.322C168.407 314.092 165.853 315.557 162.579 313.667L10.6261 225.937C7.35256 224.047 4.79778 219.632 4.79778 215.862V40.3023C4.79778 36.5323 7.35256 35.0673 10.6261 36.9573ZM10.6261 31.4473C4.78046 28.0723 0 30.8023 0 37.5323V213.092C0 219.822 4.78046 228.072 10.6261 231.447L162.579 319.177C168.425 322.552 173.205 319.822 173.205 313.092V137.532C173.205 130.802 168.425 122.552 162.579 119.177L10.6261 31.4473Z" fill="#8BC5E4"/>
<path fill-rule="evenodd" clip-rule="evenodd" d="M10.6261 36.9573L162.579 124.687C165.853 126.577 168.407 130.992 168.407 134.762V310.322C168.407 314.092 165.853 315.557 162.579 313.667L10.6261 225.937C7.35256 224.047 4.79778 219.632 4.79778 215.862V40.3023C4.79778 36.5323 7.35256 35.0673 10.6261 36.9573ZM128.484 236.532L132.987 234.192L137.3 241.622L134.347 239.917V250.197C137.326 249.007 140.166 248.207 142.669 247.822C144.782 247.512 146.644 247.487 148.238 247.817C149.034 247.987 149.77 248.242 150.489 248.687C151.217 249.147 151.97 249.842 152.507 250.782C153.053 251.737 153.269 252.722 153.278 253.567C153.295 254.397 153.148 255.152 152.879 255.907C152.343 257.437 151.355 258.977 149.987 260.597C148.359 262.527 146.159 264.507 143.561 266.417L152.55 271.607V267.947L156.846 275.597L152.55 278.077V274.677L143.76 269.602C146.28 274.367 148.393 278.747 149.987 282.467C151.355 285.657 152.343 288.347 152.879 290.487C153.148 291.552 153.295 292.477 153.278 293.297C153.269 294.112 153.053 294.867 152.507 295.182C151.97 295.512 151.217 295.337 150.489 294.947C149.77 294.562 149.034 293.977 148.238 293.217C146.644 291.717 144.782 289.532 142.669 286.782C140.166 283.517 137.326 279.427 134.347 274.797V285.087L137.3 286.792L132.987 289.242L128.484 281.702L131.67 283.542V273.022C128.605 274.262 125.686 275.107 123.114 275.492C121.001 275.802 119.148 275.842 117.546 275.497C116.74 275.332 116.004 275.067 115.294 274.627C114.575 274.182 113.822 273.487 113.276 272.532C112.731 271.587 112.514 270.582 112.497 269.752C112.488 268.917 112.644 268.167 112.904 267.407C113.441 265.887 114.428 264.337 115.796 262.727C117.398 260.852 119.512 258.912 122.032 257.057L113.241 251.982V255.382L108.946 247.942L113.241 245.252V248.912L122.231 254.102C119.624 249.187 117.433 244.672 115.796 240.857C114.428 237.657 113.432 234.972 112.904 232.827C112.644 231.767 112.488 230.837 112.497 230.022C112.514 229.192 112.731 228.457 113.276 228.132C113.822 227.817 114.575 227.992 115.294 228.367C116.004 228.747 116.74 229.342 117.546 230.097C119.148 231.612 121.001 233.782 123.114 236.532C125.686 239.897 128.605 244.092 131.67 248.882V238.372L128.484 236.532ZM18.0913 150.697L44.4358 147.937V158.547L75.3789 176.412V189.852L44.4358 171.987V183.607L18.0913 150.697ZM112.601 171.052V160.442L138.945 193.612L112.601 196.102V184.482L81.6575 166.617V153.187L112.601 171.052ZM35.8015 108.402L62.1546 105.657V116.267L93.0977 134.132V147.562L62.1546 129.697V141.317L35.8015 108.402ZM129.817 128.402V117.792L156.162 150.972L129.817 153.452V141.832L98.8741 123.967V110.537L129.817 128.402Z" fill="white"/>
<path d="M150.403 251.467C150.706 251.652 150.749 251.747 150.758 251.752C150.758 251.762 150.827 251.862 150.827 252.202C150.836 252.547 150.749 253.077 150.541 253.677C150.134 254.862 149.234 256.322 147.934 257.862C146.289 259.792 143.994 261.837 141.24 263.807C140.435 260.042 138.209 256.157 135.342 253.532C138.477 252.222 141.457 251.352 143.985 250.972C145.986 250.667 147.727 250.672 148.982 250.947C149.606 251.077 150.108 251.287 150.403 251.467Z" fill="white"/>
<path d="M141.24 269.137C143.994 274.297 146.289 278.992 147.934 282.832C149.234 285.862 150.134 288.362 150.541 290.027C150.749 290.867 150.836 291.487 150.827 291.832C150.827 292.172 150.758 292.182 150.758 292.192C150.749 292.187 150.706 292.242 150.403 292.077C150.108 291.917 149.606 291.537 148.982 290.947C147.727 289.782 145.986 287.767 143.985 285.162C141.457 281.842 138.477 277.552 135.342 272.622C138.209 273.307 140.435 271.982 141.24 269.137Z" fill="white"/>
<path d="M115.381 231.247C115.684 231.412 116.177 231.777 116.81 232.372C118.057 233.542 119.797 235.547 121.806 238.167C124.335 241.477 127.306 245.772 130.449 250.707C127.583 250.022 125.349 251.332 124.552 254.182C121.798 249.032 119.503 244.327 117.857 240.497C116.55 237.452 115.658 234.957 115.251 233.302C115.034 232.457 114.956 231.832 114.956 231.492C114.965 231.157 115.025 231.132 115.025 231.122C115.034 231.127 115.077 231.082 115.381 231.247Z" fill="white"/>
<path d="M124.543 259.507C125.349 263.282 127.574 267.167 130.449 269.797C127.306 271.102 124.335 271.957 121.806 272.357C119.797 272.647 118.057 272.652 116.81 272.372C116.177 272.237 115.684 272.042 115.381 271.857C115.077 271.672 115.034 271.567 115.025 271.562L115.025 271.561C115.014 271.543 114.965 271.458 114.956 271.122C114.956 270.772 115.034 270.247 115.251 269.652C115.658 268.457 116.55 266.982 117.857 265.467C119.503 263.527 121.789 261.487 124.543 259.507Z" fill="white"/>
</svg>
