<svg width="226" height="326" viewBox="0 0 226 326" fill="none" xmlns="http://www.w3.org/2000/svg">
<path d="M127.652 224.132V237.462L75.6904 207.462V194.132L127.652 224.132Z" fill="#8BC5E4"/>
<path d="M127.652 237.462L88.1265 260.282L36.165 230.282L75.6904 207.462L127.652 237.462Z" fill="#8BC5E4"/>
<path d="M88.1265 260.282V272.792L36.165 242.792V230.282L88.1265 260.282Z" fill="#8BC5E4"/>
<path d="M88.1265 272.792L127.652 249.972L75.6904 219.972L36.165 242.792L88.1265 272.792Z" fill="#8BC5E4"/>
<path d="M127.652 249.972V263.302L75.6904 233.302V219.972L127.652 249.972Z" fill="#8BC5E4"/>
<path d="M127.652 263.302L153.832 228.987L101.87 198.987L75.6904 233.302L127.652 263.302Z" fill="#8BC5E4"/>
<path d="M153.832 228.987L127.652 224.132L75.6904 194.132L101.87 198.987L153.832 228.987Z" fill="#8BC5E4"/>
<path d="M127.652 224.132L75.6904 194.132L127.652 224.132Z" fill="#8BC5E4"/>
<path d="M101.083 241.412V245.062L49.1211 215.062V211.412L101.083 241.412Z" fill="#8BC5E4"/>
<path d="M101.083 245.062L125.998 230.677L74.0367 200.677L49.1211 215.062L101.083 245.062Z" fill="#8BC5E4"/>
<path d="M125.998 230.677V227.027L74.0366 197.027V200.677L125.998 230.677Z" fill="#8BC5E4"/>
<path d="M125.998 227.027L101.083 241.412L49.1211 211.412L74.0367 197.027L125.998 227.027Z" fill="#8BC5E4"/>
<path d="M101.083 241.412L49.1211 211.412L101.083 241.412Z" fill="#8BC5E4"/>
<path d="M108.937 241.907V245.547L56.9756 215.547V211.907L108.937 241.907Z" fill="#8BC5E4"/>
<path d="M108.937 245.547L125.937 235.732L73.9757 205.732L56.9756 215.547L108.937 245.547Z" fill="#8BC5E4"/>
<path d="M125.938 235.732V232.092L73.9761 202.092V205.732L125.938 235.732Z" fill="#8BC5E4"/>
<path d="M125.937 232.092L108.937 241.907L56.9756 211.907L73.9757 202.092L125.937 232.092Z" fill="#8BC5E4"/>
<path d="M108.937 241.907L56.9756 211.907L108.937 241.907Z" fill="#8BC5E4"/>
<path d="M74.712 266.747V270.387L22.7505 240.387V236.747L74.712 266.747Z" fill="#8BC5E4"/>
<path d="M74.712 270.387L83.9698 265.042L32.0083 235.042L22.7505 240.387L74.712 270.387Z" fill="#8BC5E4"/>
<path d="M83.9698 265.042V261.402L32.0083 231.402V235.042L83.9698 265.042Z" fill="#8BC5E4"/>
<path d="M83.9698 261.402L74.712 266.747L22.7505 236.747L32.0083 231.402L83.9698 261.402Z" fill="#8BC5E4"/>
<path d="M74.712 266.747L22.7505 236.747L74.712 266.747Z" fill="#8BC5E4"/>
<path d="M65.3414 277.777V281.427L13.3799 251.427V247.777L65.3414 277.777Z" fill="#8BC5E4"/>
<path d="M65.3414 281.427L83.9696 270.672L32.0081 240.672L13.3799 251.427L65.3414 281.427Z" fill="#8BC5E4"/>
<path d="M83.9698 270.672V267.022L32.0083 237.022V240.672L83.9698 270.672Z" fill="#8BC5E4"/>
<path d="M83.9696 267.022L65.3414 277.777L13.3799 247.777L32.0081 237.022L83.9696 267.022Z" fill="#8BC5E4"/>
<path d="M65.3414 277.777L13.3799 247.777L65.3414 277.777Z" fill="#8BC5E4"/>
<path d="M74.6515 278.092V281.742L22.6899 251.742V248.092L74.6515 278.092Z" fill="#8BC5E4"/>
<path d="M74.6515 281.742L83.9699 276.362L32.0084 246.362L22.6899 251.742L74.6515 281.742Z" fill="#8BC5E4"/>
<path d="M83.9698 276.362V272.712L32.0083 242.712V246.362L83.9698 276.362Z" fill="#8BC5E4"/>
<path d="M83.9699 272.712L74.6515 278.092L22.6899 248.092L32.0084 242.712L83.9699 272.712Z" fill="#8BC5E4"/>
<path d="M74.6515 278.092L22.6899 248.092L74.6515 278.092Z" fill="#8BC5E4"/>
<path d="M108.911 263.632V267.282L56.9497 237.282V233.632L108.911 263.632Z" fill="#8BC5E4"/>
<path d="M108.911 267.282L126.05 257.387L74.0884 227.387L56.9497 237.282L108.911 267.282Z" fill="#8BC5E4"/>
<path d="M126.05 257.387V253.737L74.0884 223.737V227.387L126.05 257.387Z" fill="#8BC5E4"/>
<path d="M126.05 253.737L108.911 263.632L56.9497 233.632L74.0884 223.737L126.05 253.737Z" fill="#8BC5E4"/>
<path d="M108.911 263.632L56.9497 233.632L108.911 263.632Z" fill="#8BC5E4"/>
<path d="M101.126 272.847V276.497L49.1641 246.497V242.847L101.126 272.847Z" fill="#8BC5E4"/>
<path d="M101.126 276.497L126.05 262.107L74.0884 232.107L49.1641 246.497L101.126 276.497Z" fill="#8BC5E4"/>
<path d="M126.05 262.107V258.457L74.0884 228.457V232.107L126.05 262.107Z" fill="#8BC5E4"/>
<path d="M126.05 258.457L101.126 272.847L49.1641 242.847L74.0884 228.457L126.05 258.457Z" fill="#8BC5E4"/>
<path d="M101.126 272.847L49.1641 242.847L101.126 272.847Z" fill="#8BC5E4"/>
<path d="M177.847 209.962L125.885 179.962L177.847 209.962Z" fill="#8BC5E4"/>
<path d="M194.535 200.317L142.574 170.317L194.535 200.317Z" fill="#8BC5E4"/>
<path d="M168.329 192.567L168.33 192.566L116.368 162.566L116.368 162.567L168.329 192.567Z" fill="#8BC5E4"/>
<path d="M168.676 192.287V192.277L116.714 162.277V162.287L168.676 192.287Z" fill="#8BC5E4"/>
<path d="M168.676 192.277L116.714 162.277L168.676 192.277Z" fill="#8BC5E4"/>
<path d="M204.061 171.937L204.061 171.937L152.1 141.937L152.099 141.937L204.061 171.937Z" fill="#8BC5E4"/>
<path d="M203.707 172.052L151.745 142.052L203.707 172.052Z" fill="#8BC5E4"/>
<path d="M186.282 174.892L181.787 182.437L129.826 152.437L134.32 144.892L186.282 174.892Z" fill="#8BC5E4"/>
<path d="M181.787 182.437L184.966 180.602L133.004 150.602L129.826 152.437L181.787 182.437Z" fill="#8BC5E4"/>
<path d="M184.966 180.602V191.112L133.004 161.112V150.602L184.966 180.602Z" fill="#8BC5E4"/>
<path d="M175.535 207.217L166.545 212.407L114.584 182.407L123.573 177.217L175.535 207.217Z" fill="#8BC5E4"/>
<path d="M166.545 212.407V208.747L114.584 178.747V182.407L166.545 212.407Z" fill="#8BC5E4"/>
<path d="M166.545 208.747L162.241 216.402L110.28 186.402L114.584 178.747L166.545 208.747Z" fill="#8BC5E4"/>
<path d="M162.241 216.402L166.545 218.877L114.584 188.877L110.28 186.402L162.241 216.402Z" fill="#8BC5E4"/>
<path d="M166.545 218.877V215.487L114.584 185.487V188.877L166.545 218.877Z" fill="#8BC5E4"/>
<path d="M166.545 215.487L175.327 210.417L123.365 180.417L114.584 185.487L166.545 215.487Z" fill="#8BC5E4"/>
<path d="M184.966 215.252V225.762L133.004 195.762V185.252L184.966 215.252Z" fill="#8BC5E4"/>
<path d="M184.966 225.762L181.787 227.597L129.826 197.597L133.004 195.762L184.966 225.762Z" fill="#8BC5E4"/>
<path d="M181.787 227.597L186.282 229.952L134.32 199.952L129.826 197.597L181.787 227.597Z" fill="#8BC5E4"/>
<path d="M186.282 229.952L190.603 222.507L138.642 192.507L134.32 199.952L186.282 229.952Z" fill="#8BC5E4"/>
<path d="M190.604 222.507L187.651 224.212L135.689 194.212L138.642 192.507L190.604 222.507Z" fill="#8BC5E4"/>
<path d="M187.651 224.212V213.932L135.689 183.932V194.212L187.651 224.212Z" fill="#8BC5E4"/>
<path d="M197.055 197.872L205.845 192.797L153.884 162.797L145.094 167.872L197.055 197.872Z" fill="#8BC5E4"/>
<path d="M205.845 192.797V196.187L153.884 166.187V162.797L205.845 192.797Z" fill="#8BC5E4"/>
<path d="M205.845 196.187L210.149 188.742L158.188 158.742L153.884 166.187L205.845 196.187Z" fill="#8BC5E4"/>
<path d="M210.149 188.742L205.845 186.057L153.884 156.057L158.188 158.742L210.149 188.742Z" fill="#8BC5E4"/>
<path d="M205.845 186.057V189.717L153.884 159.717V156.057L205.845 186.057Z" fill="#8BC5E4"/>
<path d="M205.845 189.717L196.856 194.907L144.895 164.907L153.884 159.717L205.845 189.717Z" fill="#8BC5E4"/>
<path d="M187.651 189.332V179.052L135.689 149.052V159.332L187.651 189.332Z" fill="#8BC5E4"/>
<path d="M187.651 179.052L190.604 177.347L138.642 147.347L135.689 149.052L187.651 179.052Z" fill="#8BC5E4"/>
<path d="M190.603 177.347L186.282 174.892L134.32 144.892L138.642 147.347L190.603 177.347Z" fill="#8BC5E4"/>
<path d="M186.282 174.892L134.32 144.892L186.282 174.892Z" fill="#8BC5E4"/>
<path d="M96.406 196.622L70.0529 229.807L18.0913 199.807L44.4445 166.622L96.406 196.622Z" fill="#8BC5E4"/>
<path d="M70.0529 229.807L96.406 232.292L44.4445 202.292L18.0913 199.807L70.0529 229.807Z" fill="#8BC5E4"/>
<path d="M96.4058 232.292V220.672L44.4443 190.672V202.292L96.4058 232.292Z" fill="#8BC5E4"/>
<path d="M96.4058 220.672L127.349 202.807L75.3874 172.807L44.4443 190.672L96.4058 220.672Z" fill="#8BC5E4"/>
<path d="M127.349 202.807V189.377L75.3877 159.377V172.807L127.349 202.807Z" fill="#8BC5E4"/>
<path d="M127.349 189.377L96.4058 207.242L44.4443 177.242L75.3874 159.377L127.349 189.377Z" fill="#8BC5E4"/>
<path d="M96.4058 207.242V196.622L44.4443 166.622V177.242L96.4058 207.242Z" fill="#8BC5E4"/>
<path d="M96.4058 196.622L44.4443 166.622L96.4058 196.622Z" fill="#8BC5E4"/>
<path d="M164.562 130.422V141.032L112.601 111.032V100.422L164.562 130.422Z" fill="#8BC5E4"/>
<path d="M164.562 141.032L133.619 158.897L81.6577 128.897L112.601 111.032L164.562 141.032Z" fill="#8BC5E4"/>
<path d="M133.619 158.897V172.327L81.6577 142.327V128.897L133.619 158.897Z" fill="#8BC5E4"/>
<path d="M133.619 172.327L164.562 154.462L112.601 124.462L81.6577 142.327L133.619 172.327Z" fill="#8BC5E4"/>
<path d="M164.562 154.462V166.082L112.601 136.082V124.462L164.562 154.462Z" fill="#8BC5E4"/>
<path d="M164.562 166.082L190.907 133.182L138.945 103.182L112.601 136.082L164.562 166.082Z" fill="#8BC5E4"/>
<path d="M190.907 133.182L164.562 130.422L112.601 100.422L138.945 103.182L190.907 133.182Z" fill="#8BC5E4"/>
<path d="M164.562 130.422L112.601 100.422L164.562 130.422Z" fill="#8BC5E4"/>
<path d="M114.116 133.887L87.7716 167.057L35.8101 137.057L62.1546 103.887L114.116 133.887Z" fill="#8BC5E4"/>
<path d="M87.7716 167.057L114.116 169.547L62.1546 139.547L35.8101 137.057L87.7716 167.057Z" fill="#8BC5E4"/>
<path d="M114.116 169.547V157.927L62.1548 127.927V139.547L114.116 169.547Z" fill="#8BC5E4"/>
<path d="M114.116 157.927L145.059 140.062L93.0979 110.062L62.1548 127.927L114.116 157.927Z" fill="#8BC5E4"/>
<path d="M145.059 140.062V126.632L93.0977 96.6322V110.062L145.059 140.062Z" fill="#8BC5E4"/>
<path d="M145.059 126.632L114.116 144.497L62.1548 114.497L93.0979 96.6322L145.059 126.632Z" fill="#8BC5E4"/>
<path d="M114.116 144.497V133.887L62.1548 103.887V114.497L114.116 144.497Z" fill="#8BC5E4"/>
<path d="M114.116 133.887L62.1548 103.887L114.116 133.887Z" fill="#8BC5E4"/>
<path d="M181.779 67.8922V78.5022L129.817 48.5022V37.8922L181.779 67.8922Z" fill="#8BC5E4"/>
<path d="M181.779 78.5022L150.836 96.3672L98.874 66.3672L129.817 48.5022L181.779 78.5022Z" fill="#8BC5E4"/>
<path d="M150.836 96.3672V109.797L98.874 79.7972V66.3672L150.836 96.3672Z" fill="#8BC5E4"/>
<path d="M150.836 109.797L181.779 91.9323L129.817 61.9323L98.874 79.7973L150.836 109.797Z" fill="#8BC5E4"/>
<path d="M181.779 91.9323V103.552L129.817 73.5523V61.9323L181.779 91.9323Z" fill="#8BC5E4"/>
<path d="M181.779 103.552L208.123 70.6522L156.162 40.6522L129.817 73.5522L181.779 103.552Z" fill="#8BC5E4"/>
<path d="M208.123 70.6522L181.779 67.8922L129.817 37.8922L156.162 40.6522L208.123 70.6522Z" fill="#8BC5E4"/>
<path d="M181.779 67.8922L129.817 37.8922L181.779 67.8922Z" fill="#8BC5E4"/>
<path d="M62.5875 124.697L214.54 36.9673L162.579 6.96729L10.626 94.6973L62.5875 124.697Z" fill="#8BC5E4"/>
<path d="M220.369 40.2922V215.862L168.407 185.862V10.2922L220.369 40.2922Z" fill="#8BC5E4"/>
<path d="M214.54 225.927L62.5875 313.657L10.626 283.657L162.579 195.927L214.54 225.927Z" fill="#8BC5E4"/>
<path d="M56.7593 310.322V134.752L4.79785 104.752V280.322L56.7593 310.322Z" fill="#8BC5E4"/>
<path d="M62.5875 124.697L10.626 94.6973L62.5875 124.697Z" fill="#8BC5E4"/>
<path d="M51.9615 137.522V313.092L0 283.092V107.522L51.9615 137.522Z" fill="#8BC5E4"/>
<path d="M62.5875 319.177L214.54 231.447L162.579 201.447L10.626 289.177L62.5875 319.177Z" fill="#8BC5E4"/>
<path d="M225.167 213.092V37.5222L173.205 7.52222V183.092L225.167 213.092Z" fill="#8BC5E4"/>
<path d="M214.54 31.4473L62.5875 119.177L10.626 89.1773L162.579 1.44727L214.54 31.4473Z" fill="#8BC5E4"/>
<path d="M62.5875 119.177L10.626 89.1772L62.5875 119.177Z" fill="#8BC5E4"/>
<path d="M62.5875 124.697L214.54 36.9673L162.579 6.96729L10.626 94.6973L62.5875 124.697Z" fill="#8BC5E4"/>
<path d="M220.369 40.2922V215.862L168.407 185.862V10.2922L220.369 40.2922Z" fill="#8BC5E4"/>
<path d="M214.54 225.927L62.5875 313.657L10.626 283.657L162.579 195.927L214.54 225.927Z" fill="#8BC5E4"/>
<path d="M56.7593 310.322V134.752L4.79785 104.752V280.322L56.7593 310.322Z" fill="#8BC5E4"/>
<path d="M62.5875 124.697L10.626 94.6973L62.5875 124.697Z" fill="#8BC5E4"/>
<path d="M127.652 237.462V224.132L75.6904 194.132V207.462L127.652 237.462Z" fill="#8BC5E4"/>
<path d="M127.652 224.132L153.832 228.987L101.87 198.987L75.6904 194.132L127.652 224.132Z" fill="#8BC5E4"/>
<path d="M153.832 228.987L127.652 263.302L75.6904 233.302L101.87 198.987L153.832 228.987Z" fill="#8BC5E4"/>
<path d="M127.652 263.302V249.972L75.6904 219.972V233.302L127.652 263.302Z" fill="#8BC5E4"/>
<path d="M127.652 249.972L88.1265 272.792L36.165 242.792L75.6904 219.972L127.652 249.972Z" fill="#8BC5E4"/>
<path d="M88.1265 272.792V260.282L36.165 230.282V242.792L88.1265 272.792Z" fill="#8BC5E4"/>
<path d="M88.1265 260.282L127.652 237.462L75.6904 207.462L36.165 230.282L88.1265 260.282Z" fill="#8BC5E4"/>
<path d="M127.652 237.462L75.6904 207.462L127.652 237.462Z" fill="#8BC5E4"/>
<path d="M101.083 245.062V241.412L49.1211 211.412V215.062L101.083 245.062Z" fill="#8BC5E4"/>
<path d="M101.083 241.412L125.998 227.027L74.0367 197.027L49.1211 211.412L101.083 241.412Z" fill="#8BC5E4"/>
<path d="M125.998 227.027V230.677L74.0366 200.677V197.027L125.998 227.027Z" fill="#8BC5E4"/>
<path d="M125.998 230.677L101.083 245.062L49.1211 215.062L74.0367 200.677L125.998 230.677Z" fill="#8BC5E4"/>
<path d="M101.083 245.062L49.1211 215.062L101.083 245.062Z" fill="#8BC5E4"/>
<path d="M108.937 245.547V241.907L56.9756 211.907V215.547L108.937 245.547Z" fill="#8BC5E4"/>
<path d="M108.937 241.907L125.937 232.092L73.9757 202.092L56.9756 211.907L108.937 241.907Z" fill="#8BC5E4"/>
<path d="M125.938 232.092V235.732L73.9761 205.732V202.092L125.938 232.092Z" fill="#8BC5E4"/>
<path d="M125.937 235.732L108.937 245.547L56.9756 215.547L73.9757 205.732L125.937 235.732Z" fill="#8BC5E4"/>
<path d="M108.937 245.547L56.9756 215.547L108.937 245.547Z" fill="#8BC5E4"/>
<path d="M74.712 270.387V266.747L22.7505 236.747V240.387L74.712 270.387Z" fill="#8BC5E4"/>
<path d="M74.712 266.747L83.9698 261.402L32.0083 231.402L22.7505 236.747L74.712 266.747Z" fill="#8BC5E4"/>
<path d="M83.9698 261.402V265.042L32.0083 235.042V231.402L83.9698 261.402Z" fill="#8BC5E4"/>
<path d="M83.9698 265.042L74.712 270.387L22.7505 240.387L32.0083 235.042L83.9698 265.042Z" fill="#8BC5E4"/>
<path d="M74.712 270.387L22.7505 240.387L74.712 270.387Z" fill="#8BC5E4"/>
<path d="M65.3414 281.427V277.777L13.3799 247.777V251.427L65.3414 281.427Z" fill="#8BC5E4"/>
<path d="M65.3414 277.777L83.9696 267.022L32.0081 237.022L13.3799 247.777L65.3414 277.777Z" fill="#8BC5E4"/>
<path d="M83.9698 267.022V270.672L32.0083 240.672V237.022L83.9698 267.022Z" fill="#8BC5E4"/>
<path d="M83.9696 270.672L65.3414 281.427L13.3799 251.427L32.0081 240.672L83.9696 270.672Z" fill="#8BC5E4"/>
<path d="M65.3414 281.427L13.3799 251.427L65.3414 281.427Z" fill="#8BC5E4"/>
<path d="M74.6515 281.742V278.092L22.6899 248.092V251.742L74.6515 281.742Z" fill="#8BC5E4"/>
<path d="M74.6515 278.092L83.9699 272.712L32.0084 242.712L22.6899 248.092L74.6515 278.092Z" fill="#8BC5E4"/>
<path d="M83.9698 272.712V276.362L32.0083 246.362V242.712L83.9698 272.712Z" fill="#8BC5E4"/>
<path d="M83.9699 276.362L74.6515 281.742L22.6899 251.742L32.0084 246.362L83.9699 276.362Z" fill="#8BC5E4"/>
<path d="M74.6515 281.742L22.6899 251.742L74.6515 281.742Z" fill="#8BC5E4"/>
<path d="M108.911 267.282V263.632L56.9497 233.632V237.282L108.911 267.282Z" fill="#8BC5E4"/>
<path d="M108.911 263.632L126.05 253.737L74.0884 223.737L56.9497 233.632L108.911 263.632Z" fill="#8BC5E4"/>
<path d="M126.05 253.737V257.387L74.0884 227.387V223.737L126.05 253.737Z" fill="#8BC5E4"/>
<path d="M126.05 257.387L108.911 267.282L56.9497 237.282L74.0884 227.387L126.05 257.387Z" fill="#8BC5E4"/>
<path d="M108.911 267.282L56.9497 237.282L108.911 267.282Z" fill="#8BC5E4"/>
<path d="M101.126 276.497V272.847L49.1641 242.847V246.497L101.126 276.497Z" fill="#8BC5E4"/>
<path d="M101.126 272.847L126.05 258.457L74.0884 228.457L49.1641 242.847L101.126 272.847Z" fill="#8BC5E4"/>
<path d="M126.05 258.457V262.107L74.0884 232.107V228.457L126.05 258.457Z" fill="#8BC5E4"/>
<path d="M126.05 262.107L101.126 276.497L49.1641 246.497L74.0884 232.107L126.05 262.107Z" fill="#8BC5E4"/>
<path d="M101.126 276.497L49.1641 246.497L101.126 276.497Z" fill="#8BC5E4"/>
<path d="M181.787 182.437L186.282 174.892L134.32 144.892L129.826 152.437L181.787 182.437Z" fill="#8BC5E4"/>
<path d="M186.282 174.892L190.603 177.347L138.642 147.347L134.32 144.892L186.282 174.892Z" fill="#8BC5E4"/>
<path d="M190.604 177.347L187.651 179.052L135.689 149.052L138.642 147.347L190.604 177.347Z" fill="#8BC5E4"/>
<path d="M187.651 179.052V189.332L135.689 159.332V149.052L187.651 179.052Z" fill="#8BC5E4"/>
<path d="M196.856 194.907L205.845 189.717L153.884 159.717L144.895 164.907L196.856 194.907Z" fill="#8BC5E4"/>
<path d="M205.845 189.717V186.057L153.884 156.057V159.717L205.845 189.717Z" fill="#8BC5E4"/>
<path d="M205.845 186.057L210.149 188.742L158.188 158.742L153.884 156.057L205.845 186.057Z" fill="#8BC5E4"/>
<path d="M210.149 188.742L205.845 196.187L153.884 166.187L158.188 158.742L210.149 188.742Z" fill="#8BC5E4"/>
<path d="M205.845 196.187V192.797L153.884 162.797V166.187L205.845 196.187Z" fill="#8BC5E4"/>
<path d="M205.845 192.797L197.055 197.872L145.094 167.872L153.884 162.797L205.845 192.797Z" fill="#8BC5E4"/>
<path d="M187.651 213.932V224.212L135.689 194.212V183.932L187.651 213.932Z" fill="#8BC5E4"/>
<path d="M187.651 224.212L190.604 222.507L138.642 192.507L135.689 194.212L187.651 224.212Z" fill="#8BC5E4"/>
<path d="M190.603 222.507L186.282 229.952L134.32 199.952L138.642 192.507L190.603 222.507Z" fill="#8BC5E4"/>
<path d="M186.282 229.952L181.787 227.597L129.826 197.597L134.32 199.952L186.282 229.952Z" fill="#8BC5E4"/>
<path d="M181.787 227.597L184.966 225.762L133.004 195.762L129.826 197.597L181.787 227.597Z" fill="#8BC5E4"/>
<path d="M184.966 225.762V215.252L133.004 185.252V195.762L184.966 225.762Z" fill="#8BC5E4"/>
<path d="M175.327 210.417L166.545 215.487L114.584 185.487L123.365 180.417L175.327 210.417Z" fill="#8BC5E4"/>
<path d="M166.545 215.487V218.877L114.584 188.877V185.487L166.545 215.487Z" fill="#8BC5E4"/>
<path d="M166.545 218.877L162.241 216.402L110.28 186.402L114.584 188.877L166.545 218.877Z" fill="#8BC5E4"/>
<path d="M162.241 216.402L166.545 208.747L114.584 178.747L110.28 186.402L162.241 216.402Z" fill="#8BC5E4"/>
<path d="M166.545 208.747V212.407L114.584 182.407V178.747L166.545 208.747Z" fill="#8BC5E4"/>
<path d="M166.545 212.407L175.535 207.217L123.573 177.217L114.584 182.407L166.545 212.407Z" fill="#8BC5E4"/>
<path d="M184.966 191.112V180.602L133.004 150.602V161.112L184.966 191.112Z" fill="#8BC5E4"/>
<path d="M184.966 180.602L181.787 182.437L129.826 152.437L133.004 150.602L184.966 180.602Z" fill="#8BC5E4"/>
<path d="M181.787 182.437L129.826 152.437L181.787 182.437Z" fill="#8BC5E4"/>
<path d="M70.0529 229.807L96.406 196.622L44.4445 166.622L18.0913 199.807L70.0529 229.807Z" fill="#8BC5E4"/>
<path d="M96.4058 196.622V207.242L44.4443 177.242V166.622L96.4058 196.622Z" fill="#8BC5E4"/>
<path d="M96.4058 207.242L127.349 189.377L75.3874 159.377L44.4443 177.242L96.4058 207.242Z" fill="#8BC5E4"/>
<path d="M127.349 189.377V202.807L75.3877 172.807V159.377L127.349 189.377Z" fill="#8BC5E4"/>
<path d="M127.349 202.807L96.4058 220.672L44.4443 190.672L75.3874 172.807L127.349 202.807Z" fill="#8BC5E4"/>
<path d="M96.4058 220.672V232.292L44.4443 202.292V190.672L96.4058 220.672Z" fill="#8BC5E4"/>
<path d="M96.406 232.292L70.0529 229.807L18.0913 199.807L44.4445 202.292L96.406 232.292Z" fill="#8BC5E4"/>
<path d="M70.0529 229.807L18.0913 199.807L70.0529 229.807Z" fill="#8BC5E4"/>
<path d="M164.562 141.032V130.422L112.601 100.422V111.032L164.562 141.032Z" fill="#8BC5E4"/>
<path d="M164.562 130.422L190.907 133.182L138.945 103.182L112.601 100.422L164.562 130.422Z" fill="#8BC5E4"/>
<path d="M190.907 133.182L164.562 166.082L112.601 136.082L138.945 103.182L190.907 133.182Z" fill="#8BC5E4"/>
<path d="M164.562 166.082V154.462L112.601 124.462V136.082L164.562 166.082Z" fill="#8BC5E4"/>
<path d="M164.562 154.462L133.619 172.327L81.6577 142.327L112.601 124.462L164.562 154.462Z" fill="#8BC5E4"/>
<path d="M133.619 172.327V158.897L81.6577 128.897V142.327L133.619 172.327Z" fill="#8BC5E4"/>
<path d="M133.619 158.897L164.562 141.032L112.601 111.032L81.6577 128.897L133.619 158.897Z" fill="#8BC5E4"/>
<path d="M164.562 141.032L112.601 111.032L164.562 141.032Z" fill="#8BC5E4"/>
<path d="M87.7716 167.057L114.116 133.887L62.1546 103.887L35.8101 137.057L87.7716 167.057Z" fill="#8BC5E4"/>
<path d="M114.116 133.887V144.497L62.1548 114.497V103.887L114.116 133.887Z" fill="#8BC5E4"/>
<path d="M114.116 144.497L145.059 126.632L93.0979 96.6322L62.1548 114.497L114.116 144.497Z" fill="#8BC5E4"/>
<path d="M145.059 126.632V140.062L93.0977 110.062V96.6322L145.059 126.632Z" fill="#8BC5E4"/>
<path d="M145.059 140.062L114.116 157.927L62.1548 127.927L93.0979 110.062L145.059 140.062Z" fill="#8BC5E4"/>
<path d="M114.116 157.927V169.547L62.1548 139.547V127.927L114.116 157.927Z" fill="#8BC5E4"/>
<path d="M114.116 169.547L87.7716 167.057L35.8101 137.057L62.1546 139.547L114.116 169.547Z" fill="#8BC5E4"/>
<path d="M87.7716 167.057L35.8101 137.057L87.7716 167.057Z" fill="#8BC5E4"/>
<path d="M181.779 78.5022V67.8922L129.817 37.8922V48.5022L181.779 78.5022Z" fill="#8BC5E4"/>
<path d="M181.779 67.8922L208.123 70.6522L156.162 40.6522L129.817 37.8922L181.779 67.8922Z" fill="#8BC5E4"/>
<path d="M208.123 70.6522L181.779 103.552L129.817 73.5522L156.162 40.6522L208.123 70.6522Z" fill="#8BC5E4"/>
<path d="M181.779 103.552V91.9323L129.817 61.9323V73.5523L181.779 103.552Z" fill="#8BC5E4"/>
<path d="M181.779 91.9323L150.836 109.797L98.874 79.7973L129.817 61.9323L181.779 91.9323Z" fill="#8BC5E4"/>
<path d="M150.836 109.797V96.3672L98.874 66.3672V79.7972L150.836 109.797Z" fill="#8BC5E4"/>
<path d="M150.836 96.3672L181.779 78.5022L129.817 48.5022L98.874 66.3672L150.836 96.3672Z" fill="#8BC5E4"/>
<path d="M181.779 78.5022L129.817 48.5022L181.779 78.5022Z" fill="#8BC5E4"/>
<path d="M194.535 200.317L142.574 170.317L194.535 200.317Z" fill="#8BC5E4"/>
<path d="M204.061 171.937L204.061 171.937L152.1 141.937L152.099 141.937L204.061 171.937Z" fill="#8BC5E4"/>
<path d="M203.707 172.052L151.745 142.052L203.707 172.052Z" fill="#8BC5E4"/>
<path d="M177.847 209.962L125.885 179.962L177.847 209.962Z" fill="#8BC5E4"/>
<path d="M168.329 192.567L168.33 192.566L116.368 162.566L116.368 162.567L168.329 192.567Z" fill="#8BC5E4"/>
<path d="M168.676 192.287V192.277L116.714 162.277V162.287L168.676 192.287Z" fill="#8BC5E4"/>
<path d="M168.676 192.277L116.714 162.277L168.676 192.277Z" fill="#8BC5E4"/>
<path d="M177.847 209.962C178.249 211.385 179.007 212.425 180.023 213.023L128.062 183.023C127.046 182.425 126.288 181.385 125.885 179.962L177.847 209.962Z" fill="#8BC5E4"/>
<path d="M180.021 213.021C181.036 213.619 182.309 213.777 183.745 213.434L131.783 183.434C130.347 183.777 129.074 183.619 128.059 183.021L180.021 213.021Z" fill="#8BC5E4"/>
<path d="M183.753 213.432C180.61 218.357 177.639 222.652 175.102 225.967L123.14 195.967C125.678 192.652 128.648 188.357 131.792 183.432L183.753 213.432Z" fill="#8BC5E4"/>
<path d="M175.102 225.967C173.101 228.582 171.36 230.587 170.105 231.762L118.143 201.762C119.399 200.587 121.139 198.582 123.14 195.967L175.102 225.967Z" fill="#8BC5E4"/>
<path d="M170.105 231.762C169.481 232.352 168.979 232.722 168.676 232.887L116.714 202.887C117.017 202.722 117.52 202.352 118.143 201.762L170.105 231.762Z" fill="#8BC5E4"/>
<path d="M168.676 232.887C168.381 233.047 168.338 233.002 168.329 233.007L116.368 203.007C116.376 203.002 116.42 203.047 116.714 202.887L168.676 232.887Z" fill="#8BC5E4"/>
<path d="M168.329 233.007C168.329 232.997 168.269 232.982 168.26 232.647L116.298 202.647C116.307 202.982 116.368 202.997 116.368 203.007L168.329 233.007Z" fill="#8BC5E4"/>
<path d="M168.26 232.647C168.26 232.297 168.338 231.682 168.546 230.842L116.584 200.842C116.376 201.682 116.298 202.297 116.298 202.647L168.26 232.647Z" fill="#8BC5E4"/>
<path d="M168.546 230.842C168.953 229.177 169.854 226.667 171.153 223.647L119.191 193.647C117.892 196.667 116.991 199.177 116.584 200.842L168.546 230.842Z" fill="#8BC5E4"/>
<path d="M171.152 223.647C172.798 219.807 175.093 215.112 177.847 209.962L125.885 179.962C123.131 185.112 120.836 189.807 119.191 193.647L171.152 223.647Z" fill="#8BC5E4"/>
<path d="M194.535 200.317C194.681 200.421 194.826 200.525 194.969 200.629L143.007 170.629C142.864 170.525 142.719 170.421 142.574 170.317L194.535 200.317Z" fill="#8BC5E4"/>
<path d="M194.967 200.628C197.534 202.497 199.666 204.44 201.233 206.271L149.272 176.271C147.705 174.44 145.573 172.497 143.006 170.628L194.967 200.628Z" fill="#8BC5E4"/>
<path d="M201.238 206.277C202.537 207.797 203.429 209.272 203.845 210.462L151.884 180.462C151.468 179.272 150.576 177.797 149.277 176.277L201.238 206.277Z" fill="#8BC5E4"/>
<path d="M203.845 210.462C204.053 211.052 204.131 211.587 204.131 211.937L152.169 181.937C152.169 181.587 152.091 181.052 151.883 180.462L203.845 210.462Z" fill="#8BC5E4"/>
<path d="M204.131 211.937C204.122 212.282 204.062 212.367 204.062 212.377L152.1 182.377C152.1 182.367 152.161 182.282 152.169 181.937L204.131 211.937Z" fill="#8BC5E4"/>
<path d="M204.062 212.377C204.053 212.382 204.01 212.477 203.707 212.662L151.745 182.662C152.048 182.477 152.092 182.382 152.1 182.377L204.062 212.377Z" fill="#8BC5E4"/>
<path d="M203.707 212.662C203.412 212.842 202.91 213.052 202.286 213.182L150.325 183.182C150.948 183.052 151.451 182.842 151.745 182.662L203.707 212.662Z" fill="#8BC5E4"/>
<path d="M202.286 213.182C201.03 213.457 199.29 213.462 197.289 213.157L145.328 183.157C147.328 183.462 149.069 183.457 150.325 183.182L202.286 213.182Z" fill="#8BC5E4"/>
<path d="M197.289 213.157C194.885 212.792 192.093 211.997 189.133 210.813L137.172 180.813C140.132 181.997 142.924 182.792 145.328 183.157L197.289 213.157Z" fill="#8BC5E4"/>
<path d="M189.133 210.813C188.968 210.747 188.803 210.68 188.637 210.612L136.676 180.612C136.842 180.68 137.007 180.747 137.172 180.813L189.133 210.813Z" fill="#8BC5E4"/>
<path d="M188.638 210.612C191.504 207.977 193.739 204.087 194.535 200.317L142.574 170.317C141.777 174.087 139.543 177.977 136.676 180.612L188.638 210.612Z" fill="#8BC5E4"/>
<path d="M168.676 192.277C168.979 192.092 169.481 191.892 170.105 191.762L118.143 161.762C117.52 161.892 117.017 162.092 116.714 162.277L168.676 192.277Z" fill="#8BC5E4"/>
<path d="M170.105 191.762C171.36 191.487 173.101 191.482 175.102 191.787L123.14 161.787C121.139 161.482 119.399 161.487 118.143 161.762L170.105 191.762Z" fill="#8BC5E4"/>
<path d="M175.102 191.787C177.506 192.152 180.298 192.947 183.258 194.131L131.296 164.131C128.336 162.947 125.544 162.152 123.14 161.787L175.102 191.787Z" fill="#8BC5E4"/>
<path d="M183.25 194.127C183.414 194.193 183.579 194.26 183.745 194.328L131.783 164.328C131.617 164.26 131.452 164.193 131.288 164.127L183.25 194.127Z" fill="#8BC5E4"/>
<path d="M183.753 194.332C180.878 196.962 178.652 200.857 177.856 204.627L125.894 174.627C126.691 170.857 128.916 166.962 131.792 164.332L183.753 194.332Z" fill="#8BC5E4"/>
<path d="M177.856 204.627C177.709 204.523 177.565 204.419 177.422 204.315L125.461 174.315C125.604 174.419 125.748 174.523 125.894 174.627L177.856 204.627Z" fill="#8BC5E4"/>
<path d="M177.422 204.316C174.856 202.447 172.724 200.504 171.157 198.673L119.196 168.673C120.763 170.504 122.895 172.447 125.461 174.316L177.422 204.316Z" fill="#8BC5E4"/>
<path d="M171.153 198.667C169.854 197.137 168.962 195.672 168.546 194.482L116.584 164.482C117 165.672 117.892 167.137 119.191 168.667L171.153 198.667Z" fill="#8BC5E4"/>
<path d="M168.546 194.482C168.338 193.882 168.26 193.357 168.26 193.007L116.298 163.007C116.298 163.357 116.376 163.882 116.584 164.482L168.546 194.482Z" fill="#8BC5E4"/>
<path d="M168.26 193.007C168.269 192.662 168.329 192.577 168.329 192.567L116.368 162.567C116.368 162.577 116.307 162.662 116.298 163.007L168.26 193.007Z" fill="#8BC5E4"/>
<path d="M168.33 192.566C168.341 192.548 168.389 192.463 168.676 192.287L116.714 162.287C116.427 162.463 116.379 162.548 116.369 162.566L168.33 192.566Z" fill="#8BC5E4"/>
<path d="M203.707 172.052C204.002 171.901 204.051 171.93 204.061 171.937L152.1 141.937C152.089 141.93 152.041 141.901 151.745 142.052L203.707 172.052Z" fill="#8BC5E4"/>
<path d="M204.062 171.937C204.062 171.947 204.122 171.962 204.131 172.297L152.169 142.297C152.161 141.962 152.1 141.947 152.1 141.937L204.062 171.937Z" fill="#8BC5E4"/>
<path d="M204.131 172.297C204.131 172.647 204.053 173.262 203.845 174.102L151.883 144.102C152.091 143.262 152.169 142.647 152.169 142.297L204.131 172.297Z" fill="#8BC5E4"/>
<path d="M203.845 174.102C203.429 175.772 202.537 178.267 201.238 181.297L149.277 151.297C150.576 148.267 151.468 145.772 151.884 144.102L203.845 174.102Z" fill="#8BC5E4"/>
<path d="M201.238 181.297C199.584 185.142 197.298 189.832 194.544 194.982L142.583 164.982C145.337 159.832 147.623 155.142 149.277 151.297L201.238 181.297Z" fill="#8BC5E4"/>
<path d="M194.544 194.982C194.141 193.56 193.381 192.521 192.363 191.923L140.402 161.923C141.42 162.521 142.18 163.56 142.582 164.982L194.544 194.982Z" fill="#8BC5E4"/>
<path d="M192.367 191.925C191.351 191.328 190.078 191.17 188.647 191.51L136.685 161.51C138.116 161.17 139.389 161.328 140.405 161.925L192.367 191.925Z" fill="#8BC5E4"/>
<path d="M188.638 191.512C191.781 186.587 194.752 182.292 197.289 178.977L145.328 148.977C142.79 152.292 139.82 156.587 136.676 161.512L188.638 191.512Z" fill="#8BC5E4"/>
<path d="M197.289 178.977C199.29 176.362 201.03 174.357 202.286 173.182L150.325 143.182C149.069 144.357 147.328 146.362 145.328 148.977L197.289 178.977Z" fill="#8BC5E4"/>
<path d="M202.286 173.182C202.91 172.592 203.412 172.212 203.707 172.052L151.745 142.052C151.451 142.212 150.948 142.592 150.325 143.182L202.286 173.182Z" fill="#8BC5E4"/>
<path d="M184.966 191.112C184.798 191.044 184.63 190.977 184.464 190.911L132.503 160.911C132.669 160.977 132.837 161.044 133.004 161.112L184.966 191.112Z" fill="#8BC5E4"/>
<path d="M184.464 190.911C181.584 189.773 178.847 189.008 176.425 188.638L124.464 158.638C126.886 159.008 129.623 159.773 132.503 160.911L184.464 190.911Z" fill="#8BC5E4"/>
<path d="M176.418 188.637C174.305 188.317 172.443 188.292 170.849 188.632L118.888 158.632C120.481 158.292 122.343 158.317 124.456 158.637L176.418 188.637Z" fill="#8BC5E4"/>
<path d="M170.849 188.632C170.053 188.802 169.308 189.062 168.598 189.502L116.636 159.502C117.346 159.062 118.091 158.802 118.888 158.632L170.849 188.632Z" fill="#8BC5E4"/>
<path d="M168.598 189.502C167.879 189.947 167.125 190.642 166.58 191.597L114.618 161.597C115.164 160.642 115.917 159.947 116.636 159.502L168.598 189.502Z" fill="#8BC5E4"/>
<path d="M166.58 191.597C166.034 192.542 165.818 193.547 165.8 194.377L113.839 164.377C113.856 163.547 114.073 162.542 114.618 161.597L166.58 191.597Z" fill="#8BC5E4"/>
<path d="M165.801 194.377C165.792 195.202 165.948 195.962 166.208 196.722L114.246 166.722C113.986 165.962 113.831 165.202 113.839 164.377L165.801 194.377Z" fill="#8BC5E4"/>
<path d="M166.208 196.722C166.736 198.247 167.732 199.792 169.1 201.412L117.139 171.412C115.77 169.792 114.774 168.247 114.246 166.722L166.208 196.722Z" fill="#8BC5E4"/>
<path d="M169.1 201.412C170.648 203.222 172.69 205.095 175.111 206.904L123.149 176.904C120.728 175.095 118.686 173.222 117.139 171.412L169.1 201.412Z" fill="#8BC5E4"/>
<path d="M175.12 206.909C175.255 207.01 175.391 207.111 175.528 207.211L123.566 177.211C123.429 177.111 123.293 177.01 123.158 176.909L175.12 206.909Z" fill="#8BC5E4"/>
<path d="M175.327 210.417C172.807 215.192 170.694 219.562 169.1 223.282L117.139 193.282C118.732 189.562 120.845 185.192 123.365 180.417L175.327 210.417Z" fill="#8BC5E4"/>
<path d="M169.1 223.282C167.732 226.472 166.736 229.167 166.208 231.302L114.246 201.302C114.774 199.167 115.77 196.472 117.139 193.282L169.1 223.282Z" fill="#8BC5E4"/>
<path d="M166.208 231.302C165.948 232.362 165.792 233.292 165.801 234.117L113.839 204.117C113.831 203.292 113.986 202.362 114.246 201.302L166.208 231.302Z" fill="#8BC5E4"/>
<path d="M165.8 234.117C165.816 234.876 166.008 235.579 166.481 235.931L114.52 205.931C114.047 205.579 113.855 204.876 113.839 204.117L165.8 234.117Z" fill="#8BC5E4"/>
<path d="M166.476 235.927C166.508 235.951 166.54 235.973 166.574 235.993L114.612 205.993C114.578 205.973 114.546 205.951 114.514 205.927L166.476 235.927Z" fill="#8BC5E4"/>
<path d="M166.58 235.997C166.614 236.017 166.648 236.036 166.684 236.052L114.723 206.052C114.687 206.036 114.653 206.017 114.618 205.997L166.58 235.997Z" fill="#8BC5E4"/>
<path d="M166.685 236.052C167.218 236.299 167.919 236.124 168.59 235.766L116.628 205.766C115.957 206.124 115.256 206.299 114.723 206.052L166.685 236.052Z" fill="#8BC5E4"/>
<path d="M168.598 235.762C169.308 235.372 170.053 234.782 170.849 234.032L118.888 204.032C118.091 204.782 117.346 205.372 116.636 205.762L168.598 235.762Z" fill="#8BC5E4"/>
<path d="M170.849 234.032C172.443 232.532 174.305 230.347 176.418 227.597L124.456 197.597C122.343 200.347 120.481 202.532 118.888 204.032L170.849 234.032Z" fill="#8BC5E4"/>
<path d="M176.418 227.597C178.982 224.247 181.9 220.042 184.966 215.252L133.004 185.252C129.938 190.042 127.02 194.247 124.457 197.597L176.418 227.597Z" fill="#8BC5E4"/>
<path d="M187.651 213.932C187.814 213.997 187.976 214.061 188.138 214.124L136.176 184.124C136.014 184.061 135.852 183.997 135.689 183.932L187.651 213.932Z" fill="#8BC5E4"/>
<path d="M188.137 214.124C190.935 215.207 193.601 215.941 195.965 216.306L144.004 186.306C141.64 185.941 138.974 185.207 136.176 184.124L188.137 214.124Z" fill="#8BC5E4"/>
<path d="M195.973 216.307C198.077 216.622 199.939 216.657 201.541 216.312L149.58 186.312C147.978 186.657 146.116 186.622 144.011 186.307L195.973 216.307Z" fill="#8BC5E4"/>
<path d="M201.542 216.312C202.338 216.142 203.074 215.877 203.793 215.442L151.832 185.442C151.113 185.877 150.377 186.142 149.58 186.312L201.542 216.312Z" fill="#8BC5E4"/>
<path d="M203.793 215.442C204.512 214.997 205.265 214.302 205.811 213.347L153.849 183.347C153.304 184.302 152.55 184.997 151.832 185.442L203.793 215.442Z" fill="#8BC5E4"/>
<path d="M205.811 213.347C206.357 212.402 206.573 211.397 206.591 210.567L154.629 180.567C154.612 181.397 154.395 182.402 153.85 183.347L205.811 213.347Z" fill="#8BC5E4"/>
<path d="M206.59 210.567C206.599 209.732 206.443 208.982 206.183 208.222L154.222 178.222C154.481 178.982 154.637 179.732 154.629 180.567L206.59 210.567Z" fill="#8BC5E4"/>
<path d="M206.183 208.222C205.646 206.702 204.659 205.152 203.291 203.542L151.329 173.542C152.697 175.152 153.685 176.702 154.222 178.222L206.183 208.222Z" fill="#8BC5E4"/>
<path d="M203.291 203.542C201.784 201.765 199.806 199.947 197.465 198.179L145.504 168.179C147.845 169.947 149.823 171.765 151.329 173.542L203.291 203.542Z" fill="#8BC5E4"/>
<path d="M197.458 198.172C197.327 198.074 197.196 197.975 197.063 197.877L145.101 167.877C145.234 167.975 145.365 168.074 145.496 168.172L197.458 198.172Z" fill="#8BC5E4"/>
<path d="M196.856 194.907C199.463 189.992 201.654 185.477 203.291 181.662L151.329 151.662C149.692 155.477 147.501 159.992 144.895 164.907L196.856 194.907Z" fill="#8BC5E4"/>
<path d="M203.291 181.662C204.659 178.472 205.646 175.782 206.183 173.642L154.222 143.642C153.685 145.782 152.697 148.472 151.329 151.662L203.291 181.662Z" fill="#8BC5E4"/>
<path d="M206.183 173.642C206.443 172.582 206.599 171.642 206.59 170.827L154.629 140.827C154.637 141.642 154.481 142.582 154.222 143.642L206.183 173.642Z" fill="#8BC5E4"/>
<path d="M206.591 170.827C206.575 170.068 206.383 169.357 205.91 169.011L153.948 139.011C154.421 139.357 154.613 140.068 154.629 140.827L206.591 170.827Z" fill="#8BC5E4"/>
<path d="M205.915 169.015C205.883 168.992 205.851 168.971 205.817 168.951L153.856 138.951C153.89 138.971 153.922 138.992 153.954 139.015L205.915 169.015Z" fill="#8BC5E4"/>
<path d="M205.811 168.947C205.777 168.927 205.742 168.908 205.707 168.892L153.745 138.892C153.78 138.908 153.815 138.927 153.85 138.947L205.811 168.947Z" fill="#8BC5E4"/>
<path d="M205.706 168.892C205.173 168.645 204.472 168.82 203.801 169.177L151.84 139.177C152.511 138.82 153.212 138.645 153.745 138.892L205.706 168.892Z" fill="#8BC5E4"/>
<path d="M203.793 169.182C203.074 169.567 202.338 170.162 201.542 170.912L149.58 140.912C150.377 140.162 151.113 139.567 151.832 139.182L203.793 169.182Z" fill="#8BC5E4"/>
<path d="M201.541 170.912C199.939 172.417 198.077 174.592 195.973 177.347L144.011 147.347C146.116 144.592 147.978 142.417 149.58 140.912L201.541 170.912Z" fill="#8BC5E4"/>
<path d="M195.973 177.347C193.47 180.612 190.63 184.702 187.651 189.332L135.689 159.332C138.668 154.702 141.509 150.612 144.011 147.347L195.973 177.347Z" fill="#8BC5E4"/>
<path d="M214.541 36.9672C216.171 36.0262 217.623 35.9142 218.67 36.5042L166.708 6.50421C165.661 5.91421 164.209 6.02621 162.579 6.96721L214.541 36.9672Z" fill="#8BC5E4"/>
<path d="M218.68 36.5103C219.728 37.1063 220.367 38.4083 220.368 40.2863L168.407 10.2863C168.406 8.40825 167.767 7.10625 166.719 6.51025L218.68 36.5103Z" fill="#8BC5E4"/>
<path d="M220.369 215.862C220.369 219.622 217.814 224.037 214.541 225.927L162.579 195.927C165.853 194.037 168.408 189.622 168.408 185.862L220.369 215.862Z" fill="#8BC5E4"/>
<path d="M62.5875 313.657C60.9504 314.602 59.4934 314.708 58.4454 314.108L6.48389 284.108C7.53189 284.708 8.98889 284.602 10.626 283.657L62.5875 313.657Z" fill="#8BC5E4"/>
<path d="M58.4474 314.109C57.3994 313.51 56.7603 312.205 56.7593 310.328L4.79785 280.328C4.79885 282.205 5.43785 283.51 6.48585 284.109L58.4474 314.109Z" fill="#8BC5E4"/>
<path d="M56.7593 134.752C56.7593 130.992 59.3142 126.587 62.5877 124.697L10.6262 94.6973C7.35255 96.5873 4.79785 100.992 4.79785 104.752L56.7593 134.752Z" fill="#8BC5E4"/>
<path d="M62.5876 119.177C56.742 122.552 51.9615 130.802 51.9615 137.522L0 107.522C0 100.802 4.7804 92.5522 10.6261 89.1772L62.5876 119.177Z" fill="#8BC5E4"/>
<path d="M51.9615 313.092C51.9615 316.459 53.1615 318.826 55.0935 319.927L3.132 289.927C1.2 288.826 0 286.459 0 283.092L51.9615 313.092Z" fill="#8BC5E4"/>
<path d="M55.1026 319.931C57.0246 321.021 59.6696 320.859 62.5796 319.182L10.6181 289.182C7.70811 290.859 5.06311 291.021 3.14111 289.931L55.1026 319.931Z" fill="#8BC5E4"/>
<path d="M214.541 231.447C220.386 228.072 225.167 219.812 225.167 213.092L173.205 183.092C173.205 189.812 168.425 198.072 162.579 201.447L214.541 231.447Z" fill="#8BC5E4"/>
<path d="M225.167 37.5223C225.167 34.1493 223.963 31.7813 222.024 30.6863L170.062 0.686279C172.001 1.78128 173.205 4.14928 173.205 7.52228L225.167 37.5223Z" fill="#8BC5E4"/>
<path d="M222.025 30.6882C220.103 29.6012 217.458 29.7652 214.549 31.4422L162.588 1.44224C165.497 -0.234765 168.142 -0.398765 170.064 0.688235L222.025 30.6882Z" fill="#8BC5E4"/>
<path d="M214.541 36.9672C216.171 36.0262 217.623 35.9142 218.67 36.5042L166.708 6.50421C165.661 5.91421 164.209 6.02621 162.579 6.96721L214.541 36.9672Z" fill="#8BC5E4"/>
<path d="M218.68 36.5103C219.728 37.1063 220.367 38.4083 220.368 40.2863L168.407 10.2863C168.406 8.40825 167.767 7.10625 166.719 6.51025L218.68 36.5103Z" fill="#8BC5E4"/>
<path d="M220.369 215.862C220.369 219.622 217.814 224.037 214.541 225.927L162.579 195.927C165.853 194.037 168.408 189.622 168.408 185.862L220.369 215.862Z" fill="#8BC5E4"/>
<path d="M62.5875 313.657C60.9504 314.602 59.4934 314.708 58.4454 314.108L6.48389 284.108C7.53189 284.708 8.98889 284.602 10.626 283.657L62.5875 313.657Z" fill="#8BC5E4"/>
<path d="M58.4474 314.109C57.3994 313.51 56.7603 312.205 56.7593 310.328L4.79785 280.328C4.79885 282.205 5.43785 283.51 6.48585 284.109L58.4474 314.109Z" fill="#8BC5E4"/>
<path d="M56.7593 134.752C56.7593 130.992 59.3142 126.587 62.5877 124.697L10.6262 94.6973C7.35255 96.5873 4.79785 100.992 4.79785 104.752L56.7593 134.752Z" fill="#8BC5E4"/>
<path d="M187.651 189.332C190.63 184.702 193.47 180.612 195.973 177.347L144.011 147.347C141.509 150.612 138.668 154.702 135.689 159.332L187.651 189.332Z" fill="#8BC5E4"/>
<path d="M195.973 177.347C198.077 174.592 199.939 172.417 201.541 170.912L149.58 140.912C147.978 142.417 146.116 144.592 144.011 147.347L195.973 177.347Z" fill="#8BC5E4"/>
<path d="M201.542 170.912C202.338 170.162 203.074 169.567 203.793 169.182L151.832 139.182C151.113 139.567 150.377 140.162 149.58 140.912L201.542 170.912Z" fill="#8BC5E4"/>
<path d="M203.793 169.182C204.466 168.821 205.171 168.645 205.706 168.892L153.745 138.892C153.21 138.645 152.505 138.821 151.832 139.182L203.793 169.182Z" fill="#8BC5E4"/>
<path d="M205.699 168.889C205.735 168.905 205.77 168.923 205.804 168.943L153.843 138.943C153.809 138.923 153.774 138.905 153.738 138.889L205.699 168.889Z" fill="#8BC5E4"/>
<path d="M205.811 168.947C205.846 168.967 205.878 168.988 205.91 169.011L153.948 139.011C153.916 138.988 153.884 138.967 153.85 138.947L205.811 168.947Z" fill="#8BC5E4"/>
<path d="M205.92 169.02C206.384 169.367 206.572 170.068 206.59 170.818L154.629 140.818C154.611 140.068 154.423 139.367 153.959 139.02L205.92 169.02Z" fill="#8BC5E4"/>
<path d="M206.59 170.827C206.599 171.642 206.443 172.582 206.183 173.642L154.222 143.642C154.481 142.582 154.637 141.642 154.629 140.827L206.59 170.827Z" fill="#8BC5E4"/>
<path d="M206.183 173.642C205.646 175.782 204.659 178.472 203.291 181.662L151.329 151.662C152.697 148.472 153.685 145.782 154.222 143.642L206.183 173.642Z" fill="#8BC5E4"/>
<path d="M203.291 181.662C201.654 185.477 199.463 189.992 196.856 194.907L144.895 164.907C147.501 159.992 149.692 155.477 151.329 151.662L203.291 181.662Z" fill="#8BC5E4"/>
<path d="M197.055 197.872C197.193 197.974 197.329 198.076 197.465 198.179L145.504 168.179C145.368 168.076 145.232 167.974 145.094 167.872L197.055 197.872Z" fill="#8BC5E4"/>
<path d="M197.464 198.178C199.803 199.945 201.78 201.761 203.286 203.536L151.325 173.536C149.819 171.761 147.842 169.945 145.503 168.178L197.464 198.178Z" fill="#8BC5E4"/>
<path d="M203.291 203.542C204.659 205.152 205.646 206.702 206.183 208.222L154.222 178.222C153.685 176.702 152.697 175.152 151.329 173.542L203.291 203.542Z" fill="#8BC5E4"/>
<path d="M206.183 208.222C206.443 208.982 206.599 209.732 206.59 210.567L154.629 180.567C154.637 179.732 154.481 178.982 154.222 178.222L206.183 208.222Z" fill="#8BC5E4"/>
<path d="M206.591 210.567C206.573 211.397 206.357 212.402 205.811 213.347L153.85 183.347C154.395 182.402 154.612 181.397 154.629 180.567L206.591 210.567Z" fill="#8BC5E4"/>
<path d="M205.811 213.347C205.265 214.302 204.512 214.997 203.793 215.442L151.832 185.442C152.55 184.997 153.304 184.302 153.849 183.347L205.811 213.347Z" fill="#8BC5E4"/>
<path d="M203.793 215.442C203.074 215.877 202.338 216.142 201.542 216.312L149.58 186.312C150.377 186.142 151.113 185.877 151.832 185.442L203.793 215.442Z" fill="#8BC5E4"/>
<path d="M201.541 216.312C199.939 216.657 198.077 216.622 195.973 216.307L144.011 186.307C146.116 186.622 147.978 186.657 149.58 186.312L201.541 216.312Z" fill="#8BC5E4"/>
<path d="M195.973 216.307C193.606 215.943 190.939 215.208 188.137 214.124L136.176 184.124C138.978 185.208 141.645 185.943 144.011 186.307L195.973 216.307Z" fill="#8BC5E4"/>
<path d="M188.13 214.12C187.973 214.059 187.817 213.998 187.66 213.935L135.698 183.935C135.855 183.998 136.011 184.059 136.168 184.12L188.13 214.12Z" fill="#8BC5E4"/>
<path d="M184.966 215.252C181.9 220.042 178.982 224.247 176.418 227.597L124.457 197.597C127.02 194.247 129.938 190.042 133.004 185.252L184.966 215.252Z" fill="#8BC5E4"/>
<path d="M176.418 227.597C174.305 230.347 172.443 232.532 170.849 234.032L118.888 204.032C120.481 202.532 122.343 200.347 124.456 197.597L176.418 227.597Z" fill="#8BC5E4"/>
<path d="M170.849 234.032C170.053 234.782 169.308 235.372 168.598 235.762L116.636 205.762C117.346 205.372 118.091 204.782 118.888 204.032L170.849 234.032Z" fill="#8BC5E4"/>
<path d="M168.598 235.762C167.924 236.123 167.22 236.299 166.685 236.052L114.723 206.052C115.258 206.299 115.962 206.123 116.636 205.762L168.598 235.762Z" fill="#8BC5E4"/>
<path d="M166.692 236.055C166.656 236.039 166.62 236.021 166.586 236.001L114.625 206.001C114.659 206.021 114.694 206.039 114.73 206.055L166.692 236.055Z" fill="#8BC5E4"/>
<path d="M166.58 235.997C166.546 235.977 166.514 235.955 166.482 235.931L114.52 205.931C114.552 205.955 114.584 205.977 114.618 205.997L166.58 235.997Z" fill="#8BC5E4"/>
<path d="M166.481 235.931C166.01 235.58 165.818 234.883 165.8 234.126L113.839 204.126C113.857 204.883 114.049 205.58 114.52 205.931L166.481 235.931Z" fill="#8BC5E4"/>
<path d="M165.801 234.117C165.792 233.292 165.948 232.362 166.208 231.302L114.246 201.302C113.986 202.362 113.831 203.292 113.839 204.117L165.801 234.117Z" fill="#8BC5E4"/>
<path d="M166.208 231.302C166.736 229.167 167.732 226.472 169.1 223.282L117.139 193.282C115.77 196.472 114.774 199.167 114.246 201.302L166.208 231.302Z" fill="#8BC5E4"/>
<path d="M169.1 223.282C170.694 219.562 172.807 215.192 175.327 210.417L123.365 180.417C120.845 185.192 118.732 189.562 117.139 193.282L169.1 223.282Z" fill="#8BC5E4"/>
<path d="M175.535 207.217C175.392 207.113 175.25 207.008 175.11 206.904L123.149 176.904C123.289 177.008 123.431 177.113 123.573 177.217L175.535 207.217Z" fill="#8BC5E4"/>
<path d="M175.112 206.904C172.693 205.097 170.652 203.226 169.105 201.418L117.143 171.418C118.69 173.226 120.731 175.097 123.15 176.904L175.112 206.904Z" fill="#8BC5E4"/>
<path d="M169.1 201.412C167.732 199.792 166.736 198.247 166.208 196.722L114.246 166.722C114.774 168.247 115.77 169.792 117.139 171.412L169.1 201.412Z" fill="#8BC5E4"/>
<path d="M166.208 196.722C165.948 195.962 165.792 195.202 165.801 194.377L113.839 164.377C113.831 165.202 113.986 165.962 114.246 166.722L166.208 196.722Z" fill="#8BC5E4"/>
<path d="M165.8 194.377C165.818 193.547 166.034 192.542 166.58 191.597L114.618 161.597C114.073 162.542 113.856 163.547 113.839 164.377L165.8 194.377Z" fill="#8BC5E4"/>
<path d="M166.58 191.597C167.125 190.642 167.879 189.947 168.598 189.502L116.636 159.502C115.917 159.947 115.164 160.642 114.618 161.597L166.58 191.597Z" fill="#8BC5E4"/>
<path d="M168.598 189.502C169.308 189.062 170.053 188.802 170.849 188.632L118.888 158.632C118.091 158.802 117.346 159.062 116.636 159.502L168.598 189.502Z" fill="#8BC5E4"/>
<path d="M170.849 188.632C172.443 188.292 174.305 188.317 176.418 188.637L124.456 158.637C122.343 158.317 120.481 158.292 118.888 158.632L170.849 188.632Z" fill="#8BC5E4"/>
<path d="M176.418 188.637C178.842 189.006 181.582 189.772 184.465 190.911L132.503 160.911C129.62 159.772 126.88 159.006 124.457 158.637L176.418 188.637Z" fill="#8BC5E4"/>
<path d="M184.474 190.914C184.634 190.978 184.796 191.042 184.957 191.108L132.995 161.108C132.834 161.042 132.672 160.978 132.512 160.914L184.474 190.914Z" fill="#8BC5E4"/>
<path d="M194.535 200.317C194.681 200.421 194.826 200.525 194.969 200.629L143.007 170.629C142.864 170.525 142.719 170.421 142.574 170.317L194.535 200.317Z" fill="#8BC5E4"/>
<path d="M194.967 200.628C197.534 202.497 199.666 204.44 201.233 206.271L149.272 176.271C147.705 174.44 145.573 172.497 143.006 170.628L194.967 200.628Z" fill="#8BC5E4"/>
<path d="M201.238 206.277C202.537 207.797 203.429 209.272 203.845 210.462L151.884 180.462C151.468 179.272 150.576 177.797 149.277 176.277L201.238 206.277Z" fill="#8BC5E4"/>
<path d="M203.845 210.462C204.053 211.052 204.131 211.587 204.131 211.937L152.169 181.937C152.169 181.587 152.091 181.052 151.883 180.462L203.845 210.462Z" fill="#8BC5E4"/>
<path d="M204.131 211.937C204.122 212.282 204.062 212.367 204.062 212.377L152.1 182.377C152.1 182.367 152.161 182.282 152.169 181.937L204.131 211.937Z" fill="#8BC5E4"/>
<path d="M204.062 212.377C204.053 212.382 204.01 212.477 203.707 212.662L151.745 182.662C152.048 182.477 152.092 182.382 152.1 182.377L204.062 212.377Z" fill="#8BC5E4"/>
<path d="M203.707 212.662C203.412 212.842 202.91 213.052 202.286 213.182L150.325 183.182C150.948 183.052 151.451 182.842 151.745 182.662L203.707 212.662Z" fill="#8BC5E4"/>
<path d="M202.286 213.182C201.03 213.457 199.29 213.462 197.289 213.157L145.328 183.157C147.328 183.462 149.069 183.457 150.325 183.182L202.286 213.182Z" fill="#8BC5E4"/>
<path d="M197.289 213.157C194.885 212.792 192.093 211.997 189.133 210.813L137.172 180.813C140.132 181.997 142.924 182.792 145.328 183.157L197.289 213.157Z" fill="#8BC5E4"/>
<path d="M189.133 210.813C188.968 210.747 188.803 210.68 188.637 210.612L136.676 180.612C136.842 180.68 137.007 180.747 137.172 180.813L189.133 210.813Z" fill="#8BC5E4"/>
<path d="M188.638 210.612C191.504 207.977 193.739 204.087 194.535 200.317L142.574 170.317C141.777 174.087 139.543 177.977 136.676 180.612L188.638 210.612Z" fill="#8BC5E4"/>
<path d="M203.707 172.052C204.002 171.901 204.051 171.93 204.061 171.937L152.1 141.937C152.089 141.93 152.041 141.901 151.745 142.052L203.707 172.052Z" fill="#8BC5E4"/>
<path d="M204.062 171.937C204.062 171.947 204.122 171.962 204.131 172.297L152.169 142.297C152.161 141.962 152.1 141.947 152.1 141.937L204.062 171.937Z" fill="#8BC5E4"/>
<path d="M204.131 172.297C204.131 172.647 204.053 173.262 203.845 174.102L151.883 144.102C152.091 143.262 152.169 142.647 152.169 142.297L204.131 172.297Z" fill="#8BC5E4"/>
<path d="M203.845 174.102C203.429 175.772 202.537 178.267 201.238 181.297L149.277 151.297C150.576 148.267 151.468 145.772 151.884 144.102L203.845 174.102Z" fill="#8BC5E4"/>
<path d="M201.238 181.297C199.584 185.142 197.298 189.832 194.544 194.982L142.583 164.982C145.337 159.832 147.623 155.142 149.277 151.297L201.238 181.297Z" fill="#8BC5E4"/>
<path d="M194.544 194.982C194.141 193.56 193.381 192.521 192.363 191.923L140.402 161.923C141.42 162.521 142.18 163.56 142.582 164.982L194.544 194.982Z" fill="#8BC5E4"/>
<path d="M192.367 191.925C191.351 191.328 190.078 191.17 188.647 191.51L136.685 161.51C138.116 161.17 139.389 161.328 140.405 161.925L192.367 191.925Z" fill="#8BC5E4"/>
<path d="M188.638 191.512C191.781 186.587 194.752 182.292 197.289 178.977L145.328 148.977C142.79 152.292 139.82 156.587 136.676 161.512L188.638 191.512Z" fill="#8BC5E4"/>
<path d="M197.289 178.977C199.29 176.362 201.03 174.357 202.286 173.182L150.325 143.182C149.069 144.357 147.328 146.362 145.328 148.977L197.289 178.977Z" fill="#8BC5E4"/>
<path d="M202.286 173.182C202.91 172.592 203.412 172.212 203.707 172.052L151.745 142.052C151.451 142.212 150.948 142.592 150.325 143.182L202.286 173.182Z" fill="#8BC5E4"/>
<path d="M177.847 209.962C178.249 211.385 179.007 212.425 180.023 213.023L128.062 183.023C127.046 182.425 126.288 181.385 125.885 179.962L177.847 209.962Z" fill="#8BC5E4"/>
<path d="M180.021 213.021C181.036 213.619 182.309 213.777 183.745 213.434L131.783 183.434C130.347 183.777 129.074 183.619 128.059 183.021L180.021 213.021Z" fill="#8BC5E4"/>
<path d="M183.753 213.432C180.61 218.357 177.639 222.652 175.102 225.967L123.14 195.967C125.678 192.652 128.648 188.357 131.792 183.432L183.753 213.432Z" fill="#8BC5E4"/>
<path d="M175.102 225.967C173.101 228.582 171.36 230.587 170.105 231.762L118.143 201.762C119.399 200.587 121.139 198.582 123.14 195.967L175.102 225.967Z" fill="#8BC5E4"/>
<path d="M170.105 231.762C169.481 232.352 168.979 232.722 168.676 232.887L116.714 202.887C117.017 202.722 117.52 202.352 118.143 201.762L170.105 231.762Z" fill="#8BC5E4"/>
<path d="M168.676 232.887C168.381 233.047 168.338 233.002 168.329 233.007L116.368 203.007C116.376 203.002 116.42 203.047 116.714 202.887L168.676 232.887Z" fill="#8BC5E4"/>
<path d="M168.329 233.007C168.329 232.997 168.269 232.982 168.26 232.647L116.298 202.647C116.307 202.982 116.368 202.997 116.368 203.007L168.329 233.007Z" fill="#8BC5E4"/>
<path d="M168.26 232.647C168.26 232.297 168.338 231.682 168.546 230.842L116.584 200.842C116.376 201.682 116.298 202.297 116.298 202.647L168.26 232.647Z" fill="#8BC5E4"/>
<path d="M168.546 230.842C168.953 229.177 169.854 226.667 171.153 223.647L119.191 193.647C117.892 196.667 116.991 199.177 116.584 200.842L168.546 230.842Z" fill="#8BC5E4"/>
<path d="M171.152 223.647C172.798 219.807 175.093 215.112 177.847 209.962L125.885 179.962C123.131 185.112 120.836 189.807 119.191 193.647L171.152 223.647Z" fill="#8BC5E4"/>
<path d="M168.676 192.277C168.979 192.092 169.481 191.892 170.105 191.762L118.143 161.762C117.52 161.892 117.017 162.092 116.714 162.277L168.676 192.277Z" fill="#8BC5E4"/>
<path d="M170.105 191.762C171.36 191.487 173.101 191.482 175.102 191.787L123.14 161.787C121.139 161.482 119.399 161.487 118.143 161.762L170.105 191.762Z" fill="#8BC5E4"/>
<path d="M175.102 191.787C177.506 192.152 180.298 192.947 183.258 194.131L131.296 164.131C128.336 162.947 125.544 162.152 123.14 161.787L175.102 191.787Z" fill="#8BC5E4"/>
<path d="M183.25 194.127C183.414 194.193 183.579 194.26 183.745 194.328L131.783 164.328C131.617 164.26 131.452 164.193 131.288 164.127L183.25 194.127Z" fill="#8BC5E4"/>
<path d="M183.753 194.332C180.878 196.962 178.652 200.857 177.856 204.627L125.894 174.627C126.691 170.857 128.916 166.962 131.792 164.332L183.753 194.332Z" fill="#8BC5E4"/>
<path d="M177.856 204.627C177.709 204.523 177.565 204.419 177.422 204.315L125.461 174.315C125.604 174.419 125.748 174.523 125.894 174.627L177.856 204.627Z" fill="#8BC5E4"/>
<path d="M177.422 204.316C174.856 202.447 172.724 200.504 171.157 198.673L119.196 168.673C120.763 170.504 122.895 172.447 125.461 174.316L177.422 204.316Z" fill="#8BC5E4"/>
<path d="M171.153 198.667C169.854 197.137 168.962 195.672 168.546 194.482L116.584 164.482C117 165.672 117.892 167.137 119.191 168.667L171.153 198.667Z" fill="#8BC5E4"/>
<path d="M168.546 194.482C168.338 193.882 168.26 193.357 168.26 193.007L116.298 163.007C116.298 163.357 116.376 163.882 116.584 164.482L168.546 194.482Z" fill="#8BC5E4"/>
<path d="M168.26 193.007C168.269 192.662 168.329 192.577 168.329 192.567L116.368 162.567C116.368 162.577 116.307 162.662 116.298 163.007L168.26 193.007Z" fill="#8BC5E4"/>
<path d="M168.33 192.566C168.341 192.548 168.389 192.463 168.676 192.287L116.714 162.287C116.427 162.463 116.379 162.548 116.369 162.566L168.33 192.566Z" fill="#8BC5E4"/>
<path d="M127.652 224.132V237.462L88.1266 260.282V272.792L127.652 249.972V263.302L153.832 228.987L127.652 224.132ZM101.082 241.412V245.062L125.998 230.677V227.027L101.082 241.412ZM108.937 241.907V245.547L125.937 235.732V232.092L108.937 241.907ZM74.7119 266.747V270.387L83.9697 265.042V261.402L74.7119 266.747ZM65.3415 277.777V281.427L83.9697 270.672V267.022L65.3415 277.777ZM74.6513 278.092V281.742L83.9697 276.362V272.712L74.6513 278.092ZM108.911 263.632V267.282L126.05 257.387V253.737L108.911 263.632ZM101.126 272.847V276.497L126.05 262.107V258.457L101.126 272.847ZM177.847 209.962C178.652 212.807 180.878 214.122 183.753 213.432C180.609 218.357 177.639 222.652 175.102 225.967C173.101 228.582 171.36 230.587 170.105 231.762C169.481 232.352 168.979 232.722 168.676 232.887C168.381 233.047 168.338 233.002 168.329 233.007C168.329 232.997 168.269 232.982 168.26 232.647C168.26 232.297 168.338 231.682 168.546 230.842C168.953 229.177 169.853 226.667 171.153 223.647C172.798 219.807 175.093 215.112 177.847 209.962ZM194.535 200.317C197.298 202.282 199.584 204.342 201.238 206.277C202.537 207.797 203.429 209.272 203.845 210.462C204.053 211.052 204.131 211.587 204.131 211.937C204.122 212.282 204.061 212.367 204.061 212.377C204.053 212.382 204.01 212.477 203.706 212.662C203.412 212.842 202.91 213.052 202.286 213.182C201.03 213.457 199.29 213.462 197.289 213.157C194.752 212.772 191.781 211.907 188.638 210.612C191.504 207.977 193.738 204.087 194.535 200.317ZM168.676 192.277C168.979 192.092 169.481 191.892 170.105 191.762C171.36 191.487 173.101 191.482 175.102 191.787C177.639 192.172 180.609 193.037 183.753 194.332C180.878 196.962 178.652 200.857 177.856 204.627C175.093 202.662 172.807 200.602 171.153 198.667C169.853 197.137 168.961 195.672 168.546 194.482C168.338 193.882 168.26 193.357 168.26 193.007C168.269 192.662 168.329 192.577 168.329 192.567L168.33 192.566C168.34 192.548 168.389 192.463 168.676 192.287V192.277ZM203.706 172.052C204.002 171.901 204.05 171.931 204.061 171.937L204.061 171.937C204.061 171.947 204.122 171.962 204.131 172.297C204.131 172.647 204.053 173.262 203.845 174.102C203.429 175.772 202.537 178.267 201.238 181.297C199.584 185.142 197.298 189.832 194.544 194.982C193.738 192.137 191.504 190.827 188.638 191.512C191.781 186.587 194.752 182.292 197.289 178.977C199.29 176.362 201.03 174.357 202.286 173.182C202.91 172.592 203.412 172.212 203.706 172.052ZM186.282 174.892L181.787 182.437L184.966 180.602V191.112C181.9 189.862 178.981 189.027 176.418 188.637C174.305 188.317 172.443 188.292 170.849 188.632C170.053 188.802 169.308 189.062 168.598 189.502C167.879 189.947 167.125 190.642 166.58 191.597C166.034 192.542 165.818 193.547 165.8 194.377C165.792 195.202 165.948 195.962 166.207 196.722C166.736 198.247 167.732 199.792 169.1 201.412C170.737 203.327 172.928 205.312 175.535 207.217L166.545 212.407V208.747L162.241 216.402L166.545 218.877V215.487L175.327 210.417C172.807 215.192 170.693 219.562 169.1 223.282C167.732 226.472 166.736 229.167 166.207 231.302C165.948 232.362 165.792 233.292 165.8 234.117C165.818 234.927 166.034 235.672 166.58 235.997C167.125 236.322 167.879 236.147 168.598 235.762C169.308 235.372 170.053 234.782 170.849 234.032C172.443 232.532 174.305 230.347 176.418 227.597C178.981 224.247 181.9 220.042 184.966 215.252V225.762L181.787 227.597L186.282 229.952L190.603 222.507L187.65 224.212V213.932C190.629 215.122 193.47 215.922 195.973 216.307C198.077 216.622 199.939 216.657 201.541 216.312C202.338 216.142 203.074 215.877 203.793 215.442C204.512 214.997 205.265 214.302 205.811 213.347C206.356 212.402 206.573 211.397 206.59 210.567C206.599 209.732 206.443 208.982 206.183 208.222C205.646 206.702 204.659 205.152 203.291 203.542C201.697 201.662 199.575 199.737 197.055 197.872L205.845 192.797V196.187L210.15 188.742L205.845 186.057V189.717L196.856 194.907C199.463 189.992 201.654 185.477 203.291 181.662C204.659 178.472 205.646 175.782 206.183 173.642C206.443 172.582 206.599 171.642 206.59 170.827C206.573 170.017 206.356 169.262 205.811 168.947C205.265 168.622 204.512 168.797 203.793 169.182C203.074 169.567 202.338 170.162 201.541 170.912C199.939 172.417 198.077 174.592 195.973 177.347C193.47 180.612 190.629 184.702 187.65 189.332V179.052L190.603 177.347L186.282 174.892ZM96.4058 196.622L70.0527 229.807L96.4058 232.292V220.672L127.349 202.807V189.377L96.4058 207.242V196.622ZM164.562 130.422V141.032L133.619 158.897V172.327L164.562 154.462V166.082L190.907 133.182L164.562 130.422ZM114.116 133.887L87.7716 167.057L114.116 169.547V157.927L145.059 140.062V126.632L114.116 144.497V133.887ZM181.779 67.8923V78.5023L150.836 96.3673V109.797L181.779 91.9323V103.552L208.123 70.6523L181.779 67.8923ZM62.5876 124.697L214.54 36.9673C217.814 35.0773 220.369 36.5323 220.369 40.2923V215.862C220.369 219.622 217.814 224.037 214.54 225.927L62.5876 313.657C59.314 315.547 56.7592 314.082 56.7592 310.322V134.752C56.7592 130.992 59.314 126.587 62.5876 124.697ZM62.5876 119.177C56.7419 122.552 51.9614 130.802 51.9614 137.522V313.092C51.9614 319.812 56.7419 322.552 62.5876 319.177L214.54 231.447C220.386 228.072 225.167 219.812 225.167 213.092V37.5223C225.167 30.8023 220.386 28.0723 214.54 31.4473L62.5876 119.177Z" fill="#8BC5E4"/>
<path fill-rule="evenodd" clip-rule="evenodd" d="M62.5876 124.697L214.54 36.9673C217.814 35.0773 220.369 36.5323 220.369 40.2923V215.862C220.369 219.622 217.814 224.037 214.54 225.927L62.5876 313.657C59.314 315.547 56.7592 314.082 56.7592 310.322V134.752C56.7592 130.992 59.314 126.587 62.5876 124.697ZM127.652 237.462V224.132L153.832 228.987L127.652 263.302V249.972L88.1266 272.792V260.282L127.652 237.462ZM101.082 245.062V241.412L125.998 227.027V230.677L101.082 245.062ZM108.937 245.547V241.907L125.937 232.092V235.732L108.937 245.547ZM74.7119 270.387V266.747L83.9697 261.402V265.042L74.7119 270.387ZM65.3415 281.427V277.777L83.9697 267.022V270.672L65.3415 281.427ZM74.6513 281.742V278.092L83.9697 272.712V276.362L74.6513 281.742ZM108.911 267.282V263.632L126.05 253.737V257.387L108.911 267.282ZM101.126 276.497V272.847L126.05 258.457V262.107L101.126 276.497ZM181.787 182.437L186.282 174.892L190.603 177.347L187.65 179.052V189.332C190.629 184.702 193.47 180.612 195.973 177.347C198.077 174.592 199.939 172.417 201.541 170.912C202.338 170.162 203.074 169.567 203.793 169.182C204.512 168.797 205.265 168.622 205.811 168.947C206.356 169.262 206.573 170.017 206.59 170.827C206.599 171.642 206.443 172.582 206.183 173.642C205.646 175.782 204.659 178.472 203.291 181.662C201.654 185.477 199.463 189.992 196.856 194.907L205.845 189.717V186.057L210.15 188.742L205.845 196.187V192.797L197.055 197.872C199.575 199.737 201.697 201.662 203.291 203.542C204.659 205.152 205.646 206.702 206.183 208.222C206.443 208.982 206.599 209.732 206.59 210.567C206.573 211.397 206.356 212.402 205.811 213.347C205.265 214.302 204.512 214.997 203.793 215.442C203.074 215.877 202.338 216.142 201.541 216.312C199.939 216.657 198.077 216.622 195.973 216.307C193.47 215.922 190.629 215.122 187.65 213.932V224.212L190.603 222.507L186.282 229.952L181.787 227.597L184.966 225.762V215.252C181.9 220.042 178.981 224.247 176.418 227.597C174.305 230.347 172.443 232.532 170.849 234.032C170.053 234.782 169.308 235.372 168.598 235.762C167.879 236.147 167.125 236.322 166.58 235.997C166.034 235.672 165.818 234.927 165.8 234.117C165.792 233.292 165.948 232.362 166.207 231.302C166.736 229.167 167.732 226.472 169.1 223.282C170.693 219.562 172.807 215.192 175.327 210.417L166.545 215.487V218.877L162.241 216.402L166.545 208.747V212.407L175.535 207.217C172.928 205.312 170.737 203.327 169.1 201.412C167.732 199.792 166.736 198.247 166.207 196.722C165.948 195.962 165.792 195.202 165.8 194.377C165.818 193.547 166.034 192.542 166.58 191.597C167.125 190.642 167.879 189.947 168.598 189.502C169.308 189.062 170.053 188.802 170.849 188.632C172.443 188.292 174.305 188.317 176.418 188.637C178.981 189.027 181.9 189.862 184.966 191.112V180.602L181.787 182.437ZM70.0527 229.807L96.4058 196.622V207.242L127.349 189.377V202.807L96.4058 220.672V232.292L70.0527 229.807ZM164.562 141.032V130.422L190.907 133.182L164.562 166.082V154.462L133.619 172.327V158.897L164.562 141.032ZM87.7716 167.057L114.116 133.887V144.497L145.059 126.632V140.062L114.116 157.927V169.547L87.7716 167.057ZM181.779 78.5023V67.8923L208.123 70.6523L181.779 103.552V91.9323L150.836 109.797V96.3673L181.779 78.5023Z" fill="white"/>
<path d="M194.535 200.317C197.298 202.282 199.584 204.342 201.238 206.277C202.537 207.797 203.429 209.272 203.845 210.462C204.053 211.052 204.131 211.587 204.131 211.937C204.122 212.282 204.061 212.367 204.061 212.377C204.053 212.382 204.01 212.477 203.706 212.662C203.412 212.842 202.91 213.052 202.286 213.182C201.03 213.457 199.29 213.462 197.289 213.157C194.752 212.772 191.781 211.907 188.638 210.612C191.504 207.977 193.738 204.087 194.535 200.317Z" fill="white"/>
<path d="M203.706 172.052C204.002 171.901 204.05 171.931 204.061 171.937L204.061 171.937C204.061 171.947 204.122 171.962 204.131 172.297C204.131 172.647 204.053 173.262 203.845 174.102C203.429 175.772 202.537 178.267 201.238 181.297C199.584 185.142 197.298 189.832 194.544 194.982C193.738 192.137 191.504 190.827 188.638 191.512C191.781 186.587 194.752 182.292 197.289 178.977C199.29 176.362 201.03 174.357 202.286 173.182C202.91 172.592 203.412 172.212 203.706 172.052Z" fill="white"/>
<path d="M177.847 209.962C178.652 212.807 180.878 214.122 183.753 213.432C180.609 218.357 177.639 222.652 175.102 225.967C173.101 228.582 171.36 230.587 170.105 231.762C169.481 232.352 168.979 232.722 168.676 232.887C168.381 233.047 168.338 233.002 168.329 233.007C168.329 232.997 168.269 232.982 168.26 232.647C168.26 232.297 168.338 231.682 168.546 230.842C168.953 229.177 169.853 226.667 171.153 223.647C172.798 219.807 175.093 215.112 177.847 209.962Z" fill="white"/>
<path d="M168.676 192.277C168.979 192.092 169.481 191.892 170.105 191.762C171.36 191.487 173.101 191.482 175.102 191.787C177.639 192.172 180.609 193.037 183.753 194.332C180.878 196.962 178.652 200.857 177.856 204.627C175.093 202.662 172.807 200.602 171.153 198.667C169.853 197.137 168.961 195.672 168.546 194.482C168.338 193.882 168.26 193.357 168.26 193.007C168.269 192.662 168.329 192.577 168.329 192.567L168.33 192.566C168.34 192.548 168.389 192.463 168.676 192.287V192.277Z" fill="white"/>
</svg>
