<svg width="274" height="354" viewBox="0 0 274 354" fill="none" xmlns="http://www.w3.org/2000/svg">
<path d="M153.494 170.262L138.14 129.217L190.101 99.217L205.456 140.262L153.494 170.262Z" fill="#8BC5E4"/>
<path d="M138.139 129.217L122.863 152.577L174.824 122.577L190.101 99.217L138.139 129.217Z" fill="#8BC5E4"/>
<path d="M122.863 152.577L134.589 159.347L186.55 129.347L174.824 122.577L122.863 152.577Z" fill="#8BC5E4"/>
<path d="M134.589 159.347V197.247L186.55 167.247V129.347L134.589 159.347Z" fill="#8BC5E4"/>
<path d="M134.589 197.247L141.578 201.282L193.539 171.282L186.55 167.247L134.589 197.247Z" fill="#8BC5E4"/>
<path d="M141.578 201.282V163.382L193.539 133.382V171.282L141.578 201.282Z" fill="#8BC5E4"/>
<path d="M141.578 163.382L153.494 170.262L205.456 140.262L193.539 133.382L141.578 163.382Z" fill="#8BC5E4"/>
<path d="M153.494 170.262L205.456 140.262L153.494 170.262Z" fill="#8BC5E4"/>
<path d="M99.0992 138.857L83.7446 97.8123L135.706 67.8123L151.061 108.857L99.0992 138.857Z" fill="#8BC5E4"/>
<path d="M83.7445 97.8123L68.4678 121.172L120.429 91.1723L135.706 67.8123L83.7445 97.8123Z" fill="#8BC5E4"/>
<path d="M68.4678 121.172L80.2024 127.947L132.164 97.9471L120.429 91.1721L68.4678 121.172Z" fill="#8BC5E4"/>
<path d="M80.2026 127.947V165.847L132.164 135.847V97.9473L80.2026 127.947Z" fill="#8BC5E4"/>
<path d="M80.2026 165.847L87.1741 169.872L139.136 139.872L132.164 135.847L80.2026 165.847Z" fill="#8BC5E4"/>
<path d="M87.1743 169.872V131.972L139.136 101.972V139.872L87.1743 169.872Z" fill="#8BC5E4"/>
<path d="M87.1743 131.972L99.0995 138.857L151.061 108.857L139.136 101.972L87.1743 131.972Z" fill="#8BC5E4"/>
<path d="M99.0991 138.857L151.061 108.857L99.0991 138.857Z" fill="#8BC5E4"/>
<path d="M174.6 248.567L196.397 278.152L248.359 248.152L226.561 218.567L174.6 248.567Z" fill="#8BC5E4"/>
<path d="M196.397 278.152L174.6 283.257L226.561 253.257L248.359 248.152L196.397 278.152Z" fill="#8BC5E4"/>
<path d="M174.6 283.257V271.487L226.561 241.487V253.257L174.6 283.257Z" fill="#8BC5E4"/>
<path d="M174.6 271.487L150.697 257.687L202.659 227.687L226.561 241.487L174.6 271.487Z" fill="#8BC5E4"/>
<path d="M150.697 257.687V246.417L202.659 216.417V227.687L150.697 257.687Z" fill="#8BC5E4"/>
<path d="M150.697 246.417L174.6 260.217L226.561 230.217L202.659 216.417L150.697 246.417Z" fill="#8BC5E4"/>
<path d="M174.6 260.217V248.567L226.561 218.567V230.217L174.6 260.217Z" fill="#8BC5E4"/>
<path d="M174.6 248.567L226.561 218.567L174.6 248.567Z" fill="#8BC5E4"/>
<path d="M47.5359 175.207L25.7554 179.632L77.7169 149.632L99.4975 145.207L47.5359 175.207Z" fill="#8BC5E4"/>
<path d="M25.7554 179.632L47.5359 209.897L99.4975 179.897L77.7169 149.632L25.7554 179.632Z" fill="#8BC5E4"/>
<path d="M47.5361 209.897V198.127L99.4977 168.127V179.897L47.5361 209.897Z" fill="#8BC5E4"/>
<path d="M47.5361 198.127L71.4558 211.937L123.417 181.937L99.4977 168.127L47.5361 198.127Z" fill="#8BC5E4"/>
<path d="M71.4556 211.937V200.667L123.417 170.667V181.937L71.4556 211.937Z" fill="#8BC5E4"/>
<path d="M71.4558 200.667L47.5361 186.857L99.4977 156.857L123.417 170.667L71.4558 200.667Z" fill="#8BC5E4"/>
<path d="M47.5361 186.857V175.207L99.4977 145.207V156.857L47.5361 186.857Z" fill="#8BC5E4"/>
<path d="M47.5361 175.207L99.4977 145.207L47.5361 175.207Z" fill="#8BC5E4"/>
<path d="M112.09 196.037L164.051 166.037L112.09 196.037Z" fill="#8BC5E4"/>
<path d="M112.09 203.327L164.051 173.327L112.09 203.327Z" fill="#8BC5E4"/>
<path d="M0 37.582V213.142L51.9615 183.142V7.58203L0 37.582Z" fill="#8BC5E4"/>
<path d="M10.4702 231.407L211.232 347.317L263.194 317.317L62.4318 201.407L10.4702 231.407Z" fill="#8BC5E4"/>
<path d="M221.703 341.142V165.582L273.664 135.582V311.142L221.703 341.142Z" fill="#8BC5E4"/>
<path d="M211.232 147.317L10.4702 31.4072L62.4318 1.40723L263.194 117.317L211.232 147.317Z" fill="#8BC5E4"/>
<path d="M10.4702 31.4072L62.4318 1.40723L10.4702 31.4072Z" fill="#8BC5E4"/>
<path d="M10.4702 36.9172L211.232 152.827L263.194 122.827L62.4318 6.91724L10.4702 36.9172Z" fill="#8BC5E4"/>
<path d="M216.965 162.847V338.407L268.927 308.407V132.847L216.965 162.847Z" fill="#8BC5E4"/>
<path d="M211.232 341.807L10.4702 225.897L62.4318 195.897L263.194 311.807L211.232 341.807Z" fill="#8BC5E4"/>
<path d="M4.72852 215.872V40.3123L56.69 10.3123V185.872L4.72852 215.872Z" fill="#8BC5E4"/>
<path d="M10.4702 36.9172L62.4318 6.91724L10.4702 36.9172Z" fill="#8BC5E4"/>
<path d="M10.4702 36.9172L211.232 152.827L263.194 122.827L62.4318 6.91724L10.4702 36.9172Z" fill="#8BC5E4"/>
<path d="M216.965 162.847V338.407L268.927 308.407V132.847L216.965 162.847Z" fill="#8BC5E4"/>
<path d="M211.232 341.807L10.4702 225.897L62.4318 195.897L263.194 311.807L211.232 341.807Z" fill="#8BC5E4"/>
<path d="M4.72852 215.872V40.3123L56.69 10.3123V185.872L4.72852 215.872Z" fill="#8BC5E4"/>
<path d="M10.4702 36.9172L62.4318 6.91724L10.4702 36.9172Z" fill="#8BC5E4"/>
<path d="M138.14 129.217L153.494 170.262L205.456 140.262L190.101 99.217L138.14 129.217Z" fill="#8BC5E4"/>
<path d="M153.494 170.262L141.578 163.382L193.539 133.382L205.456 140.262L153.494 170.262Z" fill="#8BC5E4"/>
<path d="M141.578 163.382V201.282L193.539 171.282V133.382L141.578 163.382Z" fill="#8BC5E4"/>
<path d="M141.578 201.282L134.589 197.247L186.55 167.247L193.539 171.282L141.578 201.282Z" fill="#8BC5E4"/>
<path d="M134.589 197.247V159.347L186.55 129.347V167.247L134.589 197.247Z" fill="#8BC5E4"/>
<path d="M134.589 159.347L122.863 152.577L174.824 122.577L186.55 129.347L134.589 159.347Z" fill="#8BC5E4"/>
<path d="M122.863 152.577L138.139 129.217L190.101 99.217L174.824 122.577L122.863 152.577Z" fill="#8BC5E4"/>
<path d="M138.14 129.217L190.101 99.217L138.14 129.217Z" fill="#8BC5E4"/>
<path d="M83.7446 97.8123L99.0992 138.857L151.061 108.857L135.706 67.8123L83.7446 97.8123Z" fill="#8BC5E4"/>
<path d="M99.0995 138.857L87.1743 131.972L139.136 101.972L151.061 108.857L99.0995 138.857Z" fill="#8BC5E4"/>
<path d="M87.1743 131.972V169.872L139.136 139.872V101.972L87.1743 131.972Z" fill="#8BC5E4"/>
<path d="M87.1741 169.872L80.2026 165.847L132.164 135.847L139.136 139.872L87.1741 169.872Z" fill="#8BC5E4"/>
<path d="M80.2026 165.847V127.947L132.164 97.9473V135.847L80.2026 165.847Z" fill="#8BC5E4"/>
<path d="M80.2024 127.947L68.4678 121.172L120.429 91.1721L132.164 97.9471L80.2024 127.947Z" fill="#8BC5E4"/>
<path d="M68.4678 121.172L83.7445 97.8123L135.706 67.8123L120.429 91.1723L68.4678 121.172Z" fill="#8BC5E4"/>
<path d="M83.7446 97.8123L135.706 67.8123L83.7446 97.8123Z" fill="#8BC5E4"/>
<path d="M196.397 278.152L174.6 248.567L226.561 218.567L248.359 248.152L196.397 278.152Z" fill="#8BC5E4"/>
<path d="M174.6 248.567V260.217L226.561 230.217V218.567L174.6 248.567Z" fill="#8BC5E4"/>
<path d="M174.6 260.217L150.697 246.417L202.659 216.417L226.561 230.217L174.6 260.217Z" fill="#8BC5E4"/>
<path d="M150.697 246.417V257.687L202.659 227.687V216.417L150.697 246.417Z" fill="#8BC5E4"/>
<path d="M150.697 257.687L174.6 271.487L226.561 241.487L202.659 227.687L150.697 257.687Z" fill="#8BC5E4"/>
<path d="M174.6 271.487V283.257L226.561 253.257V241.487L174.6 271.487Z" fill="#8BC5E4"/>
<path d="M174.6 283.257L196.397 278.152L248.359 248.152L226.561 253.257L174.6 283.257Z" fill="#8BC5E4"/>
<path d="M196.397 278.152L248.359 248.152L196.397 278.152Z" fill="#8BC5E4"/>
<path d="M25.7554 179.632L47.5359 175.207L99.4975 145.207L77.7169 149.632L25.7554 179.632Z" fill="#8BC5E4"/>
<path d="M47.5361 175.207V186.857L99.4977 156.857V145.207L47.5361 175.207Z" fill="#8BC5E4"/>
<path d="M47.5361 186.857L71.4558 200.667L123.417 170.667L99.4977 156.857L47.5361 186.857Z" fill="#8BC5E4"/>
<path d="M71.4556 200.667V211.937L123.417 181.937V170.667L71.4556 200.667Z" fill="#8BC5E4"/>
<path d="M71.4558 211.937L47.5361 198.127L99.4977 168.127L123.417 181.937L71.4558 211.937Z" fill="#8BC5E4"/>
<path d="M47.5361 198.127V209.897L99.4977 179.897V168.127L47.5361 198.127Z" fill="#8BC5E4"/>
<path d="M47.5359 209.897L25.7554 179.632L77.7169 149.632L99.4975 179.897L47.5359 209.897Z" fill="#8BC5E4"/>
<path d="M25.7554 179.632L77.7169 149.632L25.7554 179.632Z" fill="#8BC5E4"/>
<path d="M81.5103 214.062L133.472 184.062L81.5103 214.062Z" fill="#8BC5E4"/>
<path d="M112.09 203.327L164.051 173.327L112.09 203.327Z" fill="#8BC5E4"/>
<path d="M112.09 196.037C103.816 191.26 96.2919 190.781 90.7769 193.861L142.738 163.861C148.253 160.781 155.777 161.26 164.051 166.037L112.09 196.037Z" fill="#8BC5E4"/>
<path d="M90.7798 193.86C85.0678 197.049 81.5118 204.055 81.5098 214.055L133.471 184.055C133.473 174.055 137.029 167.049 142.741 163.86L90.7798 193.86Z" fill="#8BC5E4"/>
<path d="M81.5103 214.062C81.5103 233.732 95.2455 257.672 112.09 267.397L164.051 237.397C147.207 227.672 133.472 203.732 133.472 184.062L81.5103 214.062Z" fill="#8BC5E4"/>
<path d="M112.09 267.397C120.36 272.172 127.879 272.658 133.393 269.59L185.355 239.59C179.841 242.658 172.322 242.172 164.051 237.397L112.09 267.397Z" fill="#8BC5E4"/>
<path d="M133.407 269.582C139.12 266.395 142.676 259.389 142.678 249.384L194.64 219.384C194.638 229.389 191.082 236.395 185.369 239.582L133.407 269.582Z" fill="#8BC5E4"/>
<path d="M142.678 249.377C142.678 229.717 128.943 205.767 112.09 196.037L164.051 166.037C180.904 175.767 194.639 199.717 194.639 219.377L142.678 249.377Z" fill="#8BC5E4"/>
<path d="M112.09 203.327C125.565 211.107 136.425 230.047 136.425 245.767L188.387 215.767C188.387 200.047 177.527 181.107 164.051 173.327L112.09 203.327Z" fill="#8BC5E4"/>
<path d="M136.425 245.767C136.425 253.773 133.608 259.359 129.064 261.886L181.025 231.886C185.569 229.359 188.386 223.773 188.386 215.767L136.425 245.767Z" fill="#8BC5E4"/>
<path d="M129.066 261.885C124.688 264.32 118.707 263.915 112.095 260.1L164.057 230.1C170.669 233.915 176.65 234.32 181.028 231.885L129.066 261.885Z" fill="#8BC5E4"/>
<path d="M112.09 260.097C98.6145 252.317 87.7632 233.392 87.7632 217.672L139.725 187.672C139.725 203.392 150.576 222.317 164.051 230.097L112.09 260.097Z" fill="#8BC5E4"/>
<path d="M87.7632 217.672C87.7632 209.674 90.5722 204.087 95.1072 201.553L147.069 171.553C142.534 174.087 139.725 179.674 139.725 187.672L87.7632 217.672Z" fill="#8BC5E4"/>
<path d="M95.1182 201.547C99.4942 199.108 105.473 199.509 112.085 203.324L164.047 173.324C157.435 169.509 151.456 169.108 147.08 171.547L95.1182 201.547Z" fill="#8BC5E4"/>
<path d="M10.47 31.4072C7.64078 29.7742 5.06478 29.6112 3.17578 30.6662L55.1373 0.666154C57.0263 -0.388846 59.6023 -0.225846 62.4316 1.40715L10.47 31.4072Z" fill="#8BC5E4"/>
<path d="M3.179 30.665C1.223 31.755 0.003 34.151 0 37.572L51.9615 7.57204C51.9645 4.15104 53.1845 1.75504 55.1405 0.665039L3.179 30.665Z" fill="#8BC5E4"/>
<path d="M0 213.142C0 219.872 4.7112 228.082 10.4702 231.407L62.4318 201.407C56.6727 198.082 51.9615 189.872 51.9615 183.142L0 213.142Z" fill="#8BC5E4"/>
<path d="M211.232 347.317C214.057 348.948 216.633 349.11 218.523 348.056L270.485 318.056C268.595 319.11 266.019 318.948 263.194 317.317L211.232 347.317Z" fill="#8BC5E4"/>
<path d="M218.532 348.051C220.482 346.958 221.7 344.566 221.702 341.152L273.664 311.152C273.662 314.566 272.444 316.958 270.494 318.051L218.532 348.051Z" fill="#8BC5E4"/>
<path d="M221.703 165.582C221.703 158.852 216.983 150.637 211.232 147.317L263.194 117.317C268.944 120.637 273.664 128.852 273.664 135.582L221.703 165.582Z" fill="#8BC5E4"/>
<path d="M211.232 152.827C214.445 154.682 216.965 159.077 216.965 162.847L268.927 132.847C268.927 129.077 266.407 124.682 263.194 122.827L211.232 152.827Z" fill="#8BC5E4"/>
<path d="M216.965 338.407C216.965 340.321 216.315 341.647 215.255 342.244L267.216 312.244C268.276 311.647 268.926 310.321 268.927 308.407L216.965 338.407Z" fill="#8BC5E4"/>
<path d="M215.257 342.244C214.23 342.824 212.817 342.721 211.237 341.81L263.198 311.81C264.778 312.721 266.191 312.824 267.218 312.244L215.257 342.244Z" fill="#8BC5E4"/>
<path d="M10.4702 225.897C7.24862 224.037 4.72852 219.642 4.72852 215.872L56.69 185.872C56.69 189.642 59.2102 194.037 62.4318 195.897L10.4702 225.897Z" fill="#8BC5E4"/>
<path d="M4.72852 40.3121C4.72802 38.3981 5.37802 37.0721 6.44002 36.4751L58.4015 6.4751C57.3395 7.0721 56.6895 8.3981 56.69 10.3121L4.72852 40.3121Z" fill="#8BC5E4"/>
<path d="M6.43799 36.4762C7.46599 35.8972 8.88099 36.0012 10.466 36.9142L62.4275 6.91424C60.8425 6.00124 59.4275 5.89724 58.3995 6.47624L6.43799 36.4762Z" fill="#8BC5E4"/>
<path d="M211.232 152.827C214.445 154.682 216.965 159.077 216.965 162.847L268.927 132.847C268.927 129.077 266.407 124.682 263.194 122.827L211.232 152.827Z" fill="#8BC5E4"/>
<path d="M216.965 338.407C216.965 340.321 216.315 341.647 215.255 342.244L267.216 312.244C268.276 311.647 268.926 310.321 268.927 308.407L216.965 338.407Z" fill="#8BC5E4"/>
<path d="M215.257 342.244C214.23 342.824 212.817 342.721 211.237 341.81L263.198 311.81C264.778 312.721 266.191 312.824 267.218 312.244L215.257 342.244Z" fill="#8BC5E4"/>
<path d="M10.4702 225.897C7.24862 224.037 4.72852 219.642 4.72852 215.872L56.69 185.872C56.69 189.642 59.2102 194.037 62.4318 195.897L10.4702 225.897Z" fill="#8BC5E4"/>
<path d="M4.72852 40.3121C4.72802 38.3981 5.37802 37.0721 6.44002 36.4751L58.4015 6.4751C57.3395 7.0721 56.6895 8.3981 56.69 10.3121L4.72852 40.3121Z" fill="#8BC5E4"/>
<path d="M6.43799 36.4762C7.46599 35.8972 8.88099 36.0012 10.466 36.9142L62.4275 6.91424C60.8425 6.00124 59.4275 5.89724 58.3995 6.47624L6.43799 36.4762Z" fill="#8BC5E4"/>
<path d="M81.5103 214.062C81.51 204.059 85.066 197.051 90.777 193.861L142.738 163.861C137.027 167.051 133.471 174.059 133.472 184.062L81.5103 214.062Z" fill="#8BC5E4"/>
<path d="M90.792 193.853C96.303 190.783 103.819 191.264 112.083 196.033L164.044 166.033C155.78 161.264 148.264 160.783 142.753 163.853L90.792 193.853Z" fill="#8BC5E4"/>
<path d="M112.09 196.037C128.943 205.767 142.678 229.717 142.678 249.377L194.639 219.377C194.639 199.717 180.904 175.767 164.051 166.037L112.09 196.037Z" fill="#8BC5E4"/>
<path d="M142.678 249.377C142.678 259.394 139.115 266.406 133.393 269.59L185.355 239.59C191.077 236.406 194.64 229.394 194.639 219.377L142.678 249.377Z" fill="#8BC5E4"/>
<path d="M133.395 269.589C127.883 272.657 120.365 272.173 112.096 267.401L164.058 237.401C172.327 242.173 179.845 242.657 185.357 239.589L133.395 269.589Z" fill="#8BC5E4"/>
<path d="M112.09 267.397C95.2455 257.672 81.5103 233.732 81.5103 214.062L133.472 184.062C133.472 203.732 147.207 227.672 164.051 237.397L112.09 267.397Z" fill="#8BC5E4"/>
<path d="M112.09 203.327C125.565 211.107 136.425 230.047 136.425 245.767L188.387 215.767C188.387 200.047 177.527 181.107 164.051 173.327L112.09 203.327Z" fill="#8BC5E4"/>
<path d="M136.425 245.767C136.425 253.773 133.608 259.359 129.064 261.886L181.025 231.886C185.569 229.359 188.386 223.773 188.386 215.767L136.425 245.767Z" fill="#8BC5E4"/>
<path d="M129.066 261.885C124.688 264.32 118.707 263.915 112.095 260.1L164.057 230.1C170.669 233.915 176.65 234.32 181.028 231.885L129.066 261.885Z" fill="#8BC5E4"/>
<path d="M112.09 260.097C98.6145 252.317 87.7632 233.392 87.7632 217.672L139.725 187.672C139.725 203.392 150.576 222.317 164.051 230.097L112.09 260.097Z" fill="#8BC5E4"/>
<path d="M87.7632 217.672C87.7632 209.674 90.5722 204.087 95.1072 201.553L147.069 171.553C142.534 174.087 139.725 179.674 139.725 187.672L87.7632 217.672Z" fill="#8BC5E4"/>
<path d="M95.1182 201.547C99.4942 199.108 105.473 199.509 112.085 203.324L164.047 173.324C157.435 169.509 151.456 169.108 147.08 171.547L95.1182 201.547Z" fill="#8BC5E4"/>
<path d="M153.494 170.262L138.14 129.217L122.863 152.577L134.589 159.347V197.247L141.578 201.282V163.382L153.494 170.262ZM99.0993 138.857L83.7447 97.8121L68.468 121.172L80.2026 127.947V165.847L87.1741 169.872V131.972L99.0993 138.857ZM174.599 248.567L196.397 278.152L174.599 283.257V271.487L150.697 257.687V246.417L174.599 260.217V248.567ZM47.5361 175.207L25.7556 179.632L47.5361 209.897V198.127L71.4558 211.937V200.667L47.5361 186.857V175.207ZM112.09 196.037C95.2455 186.312 81.5103 194.402 81.5103 214.062C81.5103 233.732 95.2455 257.672 112.09 267.397C128.943 277.127 142.678 269.047 142.678 249.377C142.678 229.717 128.943 205.767 112.09 196.037ZM112.09 203.327C125.565 211.107 136.425 230.047 136.425 245.767C136.425 261.487 125.565 267.877 112.09 260.097C98.6143 252.317 87.763 233.392 87.763 217.672C87.763 201.952 98.6143 195.547 112.09 203.327ZM10.4702 31.4071C4.71118 28.0821 0 30.8521 0 37.5821V213.142C0 219.872 4.71118 228.082 10.4702 231.407L211.232 347.317C216.983 350.637 221.702 347.872 221.702 341.142V165.582C221.702 158.852 216.983 150.637 211.232 147.317L10.4702 31.4071ZM10.4702 36.9171L211.232 152.827C214.445 154.682 216.965 159.077 216.965 162.847V338.407C216.965 342.177 214.445 343.662 211.232 341.807L10.4702 225.897C7.24863 224.037 4.7285 219.642 4.7285 215.872V40.3121C4.7285 36.5421 7.24863 35.0571 10.4702 36.9171Z" fill="#8BC5E4"/>
<path fill-rule="evenodd" clip-rule="evenodd" d="M10.4702 36.9171L211.232 152.827C214.445 154.682 216.965 159.077 216.965 162.847V338.407C216.965 342.177 214.445 343.662 211.232 341.807L10.4702 225.897C7.24863 224.037 4.7285 219.642 4.7285 215.872V40.3121C4.7285 36.5421 7.24863 35.0571 10.4702 36.9171ZM138.14 129.217L153.494 170.262L141.578 163.382V201.282L134.589 197.247V159.347L122.863 152.577L138.14 129.217ZM83.7447 97.8121L99.0993 138.857L87.1741 131.972V169.872L80.2026 165.847V127.947L68.468 121.172L83.7447 97.8121ZM196.397 278.152L174.599 248.567V260.217L150.697 246.417V257.687L174.599 271.487V283.257L196.397 278.152ZM25.7556 179.632L47.5361 175.207V186.857L71.4558 200.667V211.937L47.5361 198.127V209.897L25.7556 179.632ZM81.5103 214.062C81.5103 194.402 95.2455 186.312 112.09 196.037C128.943 205.767 142.678 229.717 142.678 249.377C142.678 269.047 128.943 277.127 112.09 267.397C95.2455 257.672 81.5103 233.732 81.5103 214.062Z" fill="white"/>
<path d="M112.09 203.327C125.565 211.107 136.425 230.047 136.425 245.767C136.425 261.487 125.565 267.877 112.09 260.097C98.6143 252.317 87.763 233.392 87.763 217.672C87.763 201.952 98.6143 195.547 112.09 203.327Z" fill="white"/>
</svg>
