<svg width="148" height="281" viewBox="0 0 148 281" fill="none" xmlns="http://www.w3.org/2000/svg">
<path d="M99.6447 121.124L47.6831 91.1243L99.6447 121.124Z" fill="#8BC5E4"/>
<path d="M98.3282 125.674V134.204L46.3667 104.204V95.6743L98.3282 125.674Z" fill="#8BC5E4"/>
<path d="M100.97 132.679V124.149L49.0083 94.1492V102.679L100.97 132.679Z" fill="#8BC5E4"/>
<path d="M98.3282 125.674L46.3667 95.6743L98.3282 125.674Z" fill="#8BC5E4"/>
<path d="M51.9615 219.064V221.664L0 191.664V189.064L51.9615 219.064Z" fill="#8BC5E4"/>
<path d="M51.9615 221.664V246.204L0 216.204V191.664L51.9615 221.664Z" fill="#8BC5E4"/>
<path d="M51.9615 246.204L147.224 191.204L95.2628 161.204L0 216.204L51.9615 246.204Z" fill="#8BC5E4"/>
<path d="M147.224 191.204V164.064L95.2627 134.064V161.204L147.224 191.204Z" fill="#8BC5E4"/>
<path d="M147.224 164.064L51.9615 219.064L0 189.064L95.2628 134.064L147.224 164.064Z" fill="#8BC5E4"/>
<path d="M51.9615 219.064L0 189.064L51.9615 219.064Z" fill="#8BC5E4"/>
<path d="M56.3693 221.729L142.816 171.819L90.8544 141.819L4.40771 191.729L56.3693 221.729Z" fill="#8BC5E4"/>
<path d="M142.816 171.819V188.529L90.8545 158.529V141.819L142.816 171.819Z" fill="#8BC5E4"/>
<path d="M142.816 188.529L56.3693 238.439L4.40771 208.439L90.8544 158.529L142.816 188.529Z" fill="#8BC5E4"/>
<path d="M56.3693 238.439V221.729L4.40771 191.729V208.439L56.3693 238.439Z" fill="#8BC5E4"/>
<path d="M56.3693 221.729L4.40771 191.729L56.3693 221.729Z" fill="#8BC5E4"/>
<path d="M51.9615 134.464V137.074L0 107.074V104.464L51.9615 134.464Z" fill="#8BC5E4"/>
<path d="M51.9615 137.074V213.504L0 183.504V107.074L51.9615 137.074Z" fill="#8BC5E4"/>
<path d="M51.9615 213.504L147.224 158.504L95.2628 128.504L0 183.504L51.9615 213.504Z" fill="#8BC5E4"/>
<path d="M147.224 158.504V79.4644L95.2627 49.4644V128.504L147.224 158.504Z" fill="#8BC5E4"/>
<path d="M147.224 79.4644L51.9615 134.464L0 104.464L95.2628 49.4644L147.224 79.4644Z" fill="#8BC5E4"/>
<path d="M51.9615 134.464L0 104.464L51.9615 134.464Z" fill="#8BC5E4"/>
<path d="M56.3693 137.129L142.816 87.2192L90.8544 57.2192L4.40771 107.129L56.3693 137.129Z" fill="#8BC5E4"/>
<path d="M142.816 87.2192V155.839L90.8545 125.839V57.2192L142.816 87.2192Z" fill="#8BC5E4"/>
<path d="M142.816 155.839L56.3693 205.749L4.40771 175.749L90.8544 125.839L142.816 155.839Z" fill="#8BC5E4"/>
<path d="M56.3693 205.749V137.129L4.40771 107.129V175.749L56.3693 205.749Z" fill="#8BC5E4"/>
<path d="M56.3693 137.129L4.40771 107.129L56.3693 137.129Z" fill="#8BC5E4"/>
<path d="M147.224 75.5542V37.5742L95.2627 7.57422V45.5542L147.224 75.5542Z" fill="#8BC5E4"/>
<path d="M136.78 31.3843L62.293 74.3893L10.3315 44.3893L84.8183 1.38428L136.78 31.3843Z" fill="#8BC5E4"/>
<path d="M51.9615 92.5742V130.554L0 100.554V62.5742L51.9615 92.5742Z" fill="#8BC5E4"/>
<path d="M51.9615 130.554L147.224 75.5542L95.2628 45.5542L0 100.554L51.9615 130.554Z" fill="#8BC5E4"/>
<path d="M147.224 75.5542L95.2627 45.5542L147.224 75.5542Z" fill="#8BC5E4"/>
<path d="M51.9615 251.204V268.134L0 238.134V221.204L51.9615 251.204Z" fill="#8BC5E4"/>
<path d="M62.293 274.389L136.78 231.384L84.8183 201.384L10.3315 244.389L62.293 274.389Z" fill="#8BC5E4"/>
<path d="M147.224 213.134V196.204L95.2627 166.204V183.134L147.224 213.134Z" fill="#8BC5E4"/>
<path d="M147.224 196.204L51.9615 251.204L0 221.204L95.2628 166.204L147.224 196.204Z" fill="#8BC5E4"/>
<path d="M51.9615 251.204L0 221.204L51.9615 251.204Z" fill="#8BC5E4"/>
<path d="M142.816 204.189V215.679L90.8545 185.679V174.189L142.816 204.189Z" fill="#8BC5E4"/>
<path d="M136.78 226.174L62.293 269.179L10.3315 239.179L84.8183 196.174L136.78 226.174Z" fill="#8BC5E4"/>
<path d="M56.3693 265.589V254.099L4.40771 224.099V235.589L56.3693 265.589Z" fill="#8BC5E4"/>
<path d="M56.3693 254.099L142.816 204.189L90.8544 174.189L4.40771 224.099L56.3693 254.099Z" fill="#8BC5E4"/>
<path d="M142.816 204.189L90.8545 174.189L142.816 204.189Z" fill="#8BC5E4"/>
<path d="M56.3693 122.649V90.0293L4.40771 60.0293V92.6493L56.3693 122.649Z" fill="#8BC5E4"/>
<path d="M62.293 79.5992L136.78 36.5942L84.8183 6.59424L10.3315 49.5992L62.293 79.5992Z" fill="#8BC5E4"/>
<path d="M142.816 40.1191V72.7391L90.8545 42.7391V10.1191L142.816 40.1191Z" fill="#8BC5E4"/>
<path d="M142.816 72.7393L56.3693 122.649L4.40771 92.6493L90.8544 42.7393L142.816 72.7393Z" fill="#8BC5E4"/>
<path d="M56.3693 122.649L4.40771 92.6492L56.3693 122.649Z" fill="#8BC5E4"/>
<path d="M56.3693 122.649V90.0293L4.40771 60.0293V92.6493L56.3693 122.649Z" fill="#8BC5E4"/>
<path d="M62.293 79.5992L136.78 36.5942L84.8183 6.59424L10.3315 49.5992L62.293 79.5992Z" fill="#8BC5E4"/>
<path d="M142.816 40.1191V72.7391L90.8545 42.7391V10.1191L142.816 40.1191Z" fill="#8BC5E4"/>
<path d="M142.816 72.7393L56.3693 122.649L4.40771 92.6493L90.8544 42.7393L142.816 72.7393Z" fill="#8BC5E4"/>
<path d="M56.3693 122.649L4.40771 92.6492L56.3693 122.649Z" fill="#8BC5E4"/>
<path d="M56.3693 137.129L142.816 87.2192L90.8544 57.2192L4.40771 107.129L56.3693 137.129Z" fill="#8BC5E4"/>
<path d="M142.816 87.2192V155.839L90.8545 125.839V57.2192L142.816 87.2192Z" fill="#8BC5E4"/>
<path d="M142.816 155.839L56.3693 205.749L4.40771 175.749L90.8544 125.839L142.816 155.839Z" fill="#8BC5E4"/>
<path d="M56.3693 205.749V137.129L4.40771 107.129V175.749L56.3693 205.749Z" fill="#8BC5E4"/>
<path d="M56.3693 137.129L4.40771 107.129L56.3693 137.129Z" fill="#8BC5E4"/>
<path d="M89.4517 139.069L37.4902 109.069L89.4517 139.069Z" fill="#8BC5E4"/>
<path d="M98.3282 125.674V134.204L46.3667 104.204V95.6743L98.3282 125.674Z" fill="#8BC5E4"/>
<path d="M100.97 132.679V124.149L49.0083 94.1492V102.679L100.97 132.679Z" fill="#8BC5E4"/>
<path d="M98.3282 125.674L46.3667 95.6743L98.3282 125.674Z" fill="#8BC5E4"/>
<path d="M56.3693 221.729L142.816 171.819L90.8544 141.819L4.40771 191.729L56.3693 221.729Z" fill="#8BC5E4"/>
<path d="M142.816 171.819V188.529L90.8545 158.529V141.819L142.816 171.819Z" fill="#8BC5E4"/>
<path d="M142.816 188.529L56.3693 238.439L4.40771 208.439L90.8544 158.529L142.816 188.529Z" fill="#8BC5E4"/>
<path d="M56.3693 238.439V221.729L4.40771 191.729V208.439L56.3693 238.439Z" fill="#8BC5E4"/>
<path d="M56.3693 221.729L4.40771 191.729L56.3693 221.729Z" fill="#8BC5E4"/>
<path d="M142.816 204.189V215.679L90.8545 185.679V174.189L142.816 204.189Z" fill="#8BC5E4"/>
<path d="M136.78 226.174L62.293 269.179L10.3315 239.179L84.8183 196.174L136.78 226.174Z" fill="#8BC5E4"/>
<path d="M56.3693 265.589V254.099L4.40771 224.099V235.589L56.3693 265.589Z" fill="#8BC5E4"/>
<path d="M56.3693 254.099L142.816 204.189L90.8544 174.189L4.40771 224.099L56.3693 254.099Z" fill="#8BC5E4"/>
<path d="M142.816 204.189L90.8545 174.189L142.816 204.189Z" fill="#8BC5E4"/>
<path d="M99.6449 121.124C94.033 124.364 89.4517 132.429 89.4517 139.069L37.4902 109.069C37.4902 102.429 42.0715 94.3643 47.6833 91.1243L99.6449 121.124Z" fill="#8BC5E4"/>
<path d="M89.4517 139.069C89.4515 142.426 90.6195 144.796 92.4985 145.903L40.537 115.903C38.658 114.796 37.49 112.426 37.4902 109.069L89.4517 139.069Z" fill="#8BC5E4"/>
<path d="M92.5064 145.908C94.3454 146.986 96.8654 146.856 99.6364 145.259L47.6749 115.259C44.9039 116.856 42.3839 116.986 40.5449 115.908L92.5064 145.908Z" fill="#8BC5E4"/>
<path d="M99.6447 145.254C105.257 142.014 109.838 133.949 109.838 127.299L57.8763 97.2993C57.8763 103.949 53.295 112.014 47.6831 115.254L99.6447 145.254Z" fill="#8BC5E4"/>
<path d="M109.838 127.299C109.837 123.94 108.665 121.57 106.78 120.468L54.8188 90.4683C56.7038 91.5703 57.8758 93.9403 57.8763 97.2993L109.838 127.299Z" fill="#8BC5E4"/>
<path d="M106.783 120.469C104.943 119.392 102.424 119.522 99.6534 121.119L47.6919 91.1192C50.4629 89.5222 52.9819 89.3922 54.8219 90.4692L106.783 120.469Z" fill="#8BC5E4"/>
<path d="M98.3282 134.204C98.3282 134.647 98.4852 134.958 98.7362 135.097L46.7747 105.097C46.5237 104.958 46.3667 104.647 46.3667 104.204L98.3282 134.204Z" fill="#8BC5E4"/>
<path d="M98.7335 135.096C98.9675 135.227 99.2855 135.209 99.6365 135.009L47.675 105.009C47.324 105.209 47.006 105.227 46.772 105.096L98.7335 135.096Z" fill="#8BC5E4"/>
<path d="M99.6447 135.004C100.381 134.579 100.97 133.539 100.97 132.679L49.0082 102.679C49.0082 103.539 48.4193 104.579 47.6831 105.004L99.6447 135.004Z" fill="#8BC5E4"/>
<path d="M100.97 124.149C102.391 123.642 103.659 123.718 104.643 124.298L52.6819 94.2982C51.6979 93.7182 50.4299 93.6422 49.0083 94.1492L100.97 124.149Z" fill="#8BC5E4"/>
<path d="M104.641 124.297C105.947 125.066 106.753 126.72 106.754 129.073L54.7927 99.0734C54.7917 96.7204 53.9857 95.0664 52.6797 94.2974L104.641 124.297Z" fill="#8BC5E4"/>
<path d="M106.755 129.079C106.755 133.749 103.594 139.324 99.6447 141.604L47.6831 111.604C51.6322 109.324 54.7932 103.749 54.7932 99.0793L106.755 129.079Z" fill="#8BC5E4"/>
<path d="M99.6451 141.604C97.6907 142.733 95.9247 142.829 94.6427 142.069L42.6812 112.069C43.9632 112.829 45.7292 112.733 47.6835 111.604L99.6451 141.604Z" fill="#8BC5E4"/>
<path d="M94.6443 142.07C93.3413 141.3 92.5363 139.647 92.5343 137.296L40.5728 107.296C40.5748 109.647 41.3798 111.3 42.6828 112.07L94.6443 142.07Z" fill="#8BC5E4"/>
<path d="M92.5347 137.289C92.5347 133.159 95.0202 128.314 98.3284 125.674L46.3669 95.6743C43.0587 98.3143 40.5732 103.159 40.5732 107.289L92.5347 137.289Z" fill="#8BC5E4"/>
<path d="M147.224 37.5742C147.224 34.1632 146 31.7772 144.054 30.6802L92.0928 0.680176C94.0388 1.77718 95.2628 4.16318 95.2626 7.57418L147.224 37.5742Z" fill="#8BC5E4"/>
<path d="M144.046 30.6752C142.155 29.6152 139.583 29.7692 136.789 31.3792L84.8271 1.37923C87.6211 -0.230775 90.1931 -0.384775 92.0841 0.675225L144.046 30.6752Z" fill="#8BC5E4"/>
<path d="M62.2932 74.3892C56.6121 77.6692 51.9615 85.8442 51.9615 92.5742L0 62.5742C0 55.8442 4.6505 47.6692 10.3317 44.3892L62.2932 74.3892Z" fill="#8BC5E4"/>
<path d="M51.9615 268.134C51.9615 271.538 53.1515 273.938 55.0635 275.055L3.102 245.055C1.19 243.938 0 241.538 0 238.134L51.9615 268.134Z" fill="#8BC5E4"/>
<path d="M55.0606 275.053C56.9256 276.144 59.4796 276.011 62.2846 274.394L10.3231 244.394C7.51812 246.011 4.96412 246.144 3.09912 245.053L55.0606 275.053Z" fill="#8BC5E4"/>
<path d="M136.78 231.384C142.461 228.104 147.224 219.864 147.224 213.134L95.2627 183.134C95.2627 189.864 90.4995 198.104 84.8184 201.384L136.78 231.384Z" fill="#8BC5E4"/>
<path d="M142.816 215.679C142.816 219.609 140.105 224.254 136.78 226.174L84.8184 196.174C88.1439 194.254 90.8546 189.609 90.8546 185.679L142.816 215.679Z" fill="#8BC5E4"/>
<path d="M62.2931 269.179C60.6474 270.129 59.1764 270.22 58.1124 269.591L6.15088 239.591C7.21488 240.22 8.68588 240.129 10.3316 239.179L62.2931 269.179Z" fill="#8BC5E4"/>
<path d="M58.1142 269.592C57.0332 268.954 56.3712 267.573 56.3692 265.595L4.40771 235.595C4.40971 237.573 5.07171 238.954 6.15271 239.592L58.1142 269.592Z" fill="#8BC5E4"/>
<path d="M56.3693 90.0294C56.3693 86.0994 58.976 81.5144 62.2929 79.5994L10.3314 49.5994C7.01451 51.5144 4.40771 56.0994 4.40771 60.0294L56.3693 90.0294Z" fill="#8BC5E4"/>
<path d="M136.78 36.5942C138.455 35.6262 139.975 35.5312 141.07 36.1782L89.1089 6.17823C88.0139 5.53123 86.4939 5.62623 84.8184 6.59423L136.78 36.5942Z" fill="#8BC5E4"/>
<path d="M141.068 36.1772C142.147 36.8122 142.815 38.1662 142.816 40.1132L90.8549 10.1132C90.8539 8.16625 90.1859 6.81225 89.1069 6.17725L141.068 36.1772Z" fill="#8BC5E4"/>
<path d="M56.3693 90.0294C56.3693 86.0994 58.976 81.5144 62.2929 79.5994L10.3314 49.5994C7.01451 51.5144 4.40771 56.0994 4.40771 60.0294L56.3693 90.0294Z" fill="#8BC5E4"/>
<path d="M136.78 36.5942C138.455 35.6262 139.975 35.5312 141.07 36.1782L89.1089 6.17823C88.0139 5.53123 86.4939 5.62623 84.8184 6.59423L136.78 36.5942Z" fill="#8BC5E4"/>
<path d="M141.068 36.1772C142.147 36.8122 142.815 38.1662 142.816 40.1132L90.8549 10.1132C90.8539 8.16625 90.1859 6.81225 89.1069 6.17725L141.068 36.1772Z" fill="#8BC5E4"/>
<path d="M89.4517 139.069C89.4517 132.429 94.033 124.364 99.6449 121.124L47.6833 91.1243C42.0715 94.3643 37.4902 102.429 37.4902 109.069L89.4517 139.069Z" fill="#8BC5E4"/>
<path d="M99.6447 121.124C102.417 119.523 104.939 119.391 106.78 120.468L54.8188 90.4684C52.9778 89.3914 50.4558 89.5234 47.6831 91.1244L99.6447 121.124Z" fill="#8BC5E4"/>
<path d="M106.789 120.473C108.668 121.576 109.836 123.94 109.838 127.289L57.8761 97.2891C57.8741 93.9401 56.7061 91.5761 54.8271 90.4731L106.789 120.473Z" fill="#8BC5E4"/>
<path d="M109.838 127.299C109.838 133.949 105.257 142.014 99.6447 145.254L47.6831 115.254C53.295 112.014 57.8763 103.949 57.8763 97.2993L109.838 127.299Z" fill="#8BC5E4"/>
<path d="M99.645 145.254C96.8666 146.858 94.3406 146.988 92.4986 145.903L40.5371 115.903C42.3791 116.988 44.9051 116.858 47.6834 115.254L99.645 145.254Z" fill="#8BC5E4"/>
<path d="M92.5002 145.904C90.6222 144.8 89.4542 142.433 89.4512 139.079L37.4897 109.079C37.4927 112.433 38.6607 114.8 40.5387 115.904L92.5002 145.904Z" fill="#8BC5E4"/>
<path d="M98.3282 134.204C98.3282 134.647 98.4852 134.958 98.7362 135.097L46.7747 105.097C46.5237 104.958 46.3667 104.647 46.3667 104.204L98.3282 134.204Z" fill="#8BC5E4"/>
<path d="M98.7335 135.096C98.9675 135.227 99.2855 135.209 99.6365 135.009L47.675 105.009C47.324 105.209 47.006 105.227 46.772 105.096L98.7335 135.096Z" fill="#8BC5E4"/>
<path d="M99.6447 135.004C100.381 134.579 100.97 133.539 100.97 132.679L49.0082 102.679C49.0082 103.539 48.4193 104.579 47.6831 105.004L99.6447 135.004Z" fill="#8BC5E4"/>
<path d="M100.97 124.149C102.391 123.642 103.659 123.718 104.643 124.298L52.6819 94.2982C51.6979 93.7182 50.4299 93.6422 49.0083 94.1492L100.97 124.149Z" fill="#8BC5E4"/>
<path d="M104.641 124.297C105.947 125.066 106.753 126.72 106.754 129.073L54.7927 99.0734C54.7917 96.7204 53.9857 95.0664 52.6797 94.2974L104.641 124.297Z" fill="#8BC5E4"/>
<path d="M106.755 129.079C106.755 133.749 103.594 139.324 99.6447 141.604L47.6831 111.604C51.6322 109.324 54.7932 103.749 54.7932 99.0793L106.755 129.079Z" fill="#8BC5E4"/>
<path d="M99.6451 141.604C97.6907 142.733 95.9247 142.829 94.6427 142.069L42.6812 112.069C43.9632 112.829 45.7292 112.733 47.6835 111.604L99.6451 141.604Z" fill="#8BC5E4"/>
<path d="M94.6443 142.07C93.3413 141.3 92.5363 139.647 92.5343 137.296L40.5728 107.296C40.5748 109.647 41.3798 111.3 42.6828 112.07L94.6443 142.07Z" fill="#8BC5E4"/>
<path d="M92.5347 137.289C92.5347 133.159 95.0202 128.314 98.3284 125.674L46.3669 95.6743C43.0587 98.3143 40.5732 103.159 40.5732 107.289L92.5347 137.289Z" fill="#8BC5E4"/>
<path d="M142.816 215.679C142.816 219.609 140.105 224.254 136.78 226.174L84.8184 196.174C88.1439 194.254 90.8546 189.609 90.8546 185.679L142.816 215.679Z" fill="#8BC5E4"/>
<path d="M62.2931 269.179C60.6474 270.129 59.1764 270.22 58.1124 269.591L6.15088 239.591C7.21488 240.22 8.68588 240.129 10.3316 239.179L62.2931 269.179Z" fill="#8BC5E4"/>
<path d="M58.1142 269.592C57.0332 268.954 56.3712 267.573 56.3692 265.595L4.40771 235.595C4.40971 237.573 5.07171 238.954 6.15271 239.592L58.1142 269.592Z" fill="#8BC5E4"/>
<path d="M99.6448 121.124C94.0329 124.364 89.4517 132.429 89.4517 139.069C89.4517 145.719 94.0329 148.494 99.6448 145.254C105.257 142.014 109.838 133.949 109.838 127.299C109.838 120.659 105.257 117.884 99.6448 121.124ZM98.3284 125.674V134.204C98.3284 135.064 98.9173 135.424 99.6448 135.004C100.381 134.579 100.97 133.539 100.97 132.679V124.149C104.278 122.969 106.755 124.949 106.755 129.079C106.755 133.749 103.594 139.324 99.6448 141.604C95.7044 143.879 92.5347 141.959 92.5347 137.289C92.5347 133.159 95.0202 128.314 98.3284 125.674ZM51.9614 219.064V221.664V246.204L147.224 191.204V164.064L51.9614 219.064ZM56.3695 221.729L142.816 171.819V188.529L56.3695 238.439V221.729ZM51.9614 134.464V137.074V213.504L147.224 158.504V79.4642L51.9614 134.464ZM56.3695 137.129L142.816 87.2192V155.839L56.3695 205.749V137.129ZM147.224 75.5542V37.5742C147.224 30.8442 142.461 28.1042 136.78 31.3842L62.2931 74.3892C56.612 77.6692 51.9614 85.8442 51.9614 92.5742V130.554L147.224 75.5542ZM51.9614 251.204V268.134C51.9614 274.864 56.612 277.669 62.2931 274.389L136.78 231.384C142.461 228.104 147.224 219.864 147.224 213.134V196.204L51.9614 251.204ZM142.816 204.189V215.679C142.816 219.609 140.105 224.254 136.78 226.174L62.2931 269.179C58.9762 271.094 56.3695 269.519 56.3695 265.589V254.099L142.816 204.189ZM56.3695 122.649V90.0292C56.3695 86.0992 58.9762 81.5142 62.2931 79.5992L136.78 36.5942C140.105 34.6742 142.816 36.1892 142.816 40.1192V72.7392L56.3695 122.649Z" fill="#8BC5E4"/>
<path d="M56.3695 122.649V90.0292C56.3695 86.0992 58.9762 81.5142 62.2931 79.5992L136.78 36.5942C140.105 34.6742 142.816 36.1892 142.816 40.1192V72.7392L56.3695 122.649Z" fill="white"/>
<path fill-rule="evenodd" clip-rule="evenodd" d="M56.3695 137.129L142.816 87.2192V155.839L56.3695 205.749V137.129ZM89.4517 139.069C89.4517 132.429 94.0329 124.364 99.6448 121.124C105.257 117.884 109.838 120.659 109.838 127.299C109.838 133.949 105.257 142.014 99.6448 145.254C94.0329 148.494 89.4517 145.719 89.4517 139.069Z" fill="white"/>
<path d="M98.3284 125.674V134.204C98.3284 135.064 98.9173 135.424 99.6448 135.004C100.381 134.579 100.97 133.539 100.97 132.679V124.149C104.278 122.969 106.755 124.949 106.755 129.079C106.755 133.749 103.594 139.324 99.6448 141.604C95.7044 143.879 92.5347 141.959 92.5347 137.289C92.5347 133.159 95.0202 128.314 98.3284 125.674Z" fill="white"/>
<path d="M56.3695 221.729L142.816 171.819V188.529L56.3695 238.439V221.729Z" fill="white"/>
<path d="M142.816 204.189V215.679C142.816 219.609 140.105 224.254 136.78 226.174L62.2931 269.179C58.9762 271.094 56.3695 269.519 56.3695 265.589V254.099L142.816 204.189Z" fill="white"/>
</svg>
