<svg width="148" height="281" viewBox="0 0 148 281" fill="none" xmlns="http://www.w3.org/2000/svg">
<path d="M47.6836 121.237L99.6451 91.2371L47.6836 121.237Z" fill="#8BC5E4"/>
<path d="M46.3672 124.267V132.797L98.3287 102.797V94.2671L46.3672 124.267Z" fill="#8BC5E4"/>
<path d="M49.0078 134.322V125.792L100.969 95.792V104.322L49.0078 134.322Z" fill="#8BC5E4"/>
<path d="M46.3672 124.267L98.3287 94.2671L46.3672 124.267Z" fill="#8BC5E4"/>
<path d="M0 164.117V166.717L51.9615 136.717V134.117L0 164.117Z" fill="#8BC5E4"/>
<path d="M0 166.717V191.257L51.9615 161.257V136.717L0 166.717Z" fill="#8BC5E4"/>
<path d="M0 191.257L95.2628 246.257L147.224 216.257L51.9615 161.257L0 191.257Z" fill="#8BC5E4"/>
<path d="M95.2627 246.257V219.117L147.224 189.117V216.257L95.2627 246.257Z" fill="#8BC5E4"/>
<path d="M95.2628 219.117L0 164.117L51.9615 134.117L147.224 189.117L95.2628 219.117Z" fill="#8BC5E4"/>
<path d="M0 164.117L51.9615 134.117L0 164.117Z" fill="#8BC5E4"/>
<path d="M4.4082 171.872L90.8548 221.782L142.816 191.782L56.3697 141.872L4.4082 171.872Z" fill="#8BC5E4"/>
<path d="M90.8545 221.782V238.492L142.816 208.492V191.782L90.8545 221.782Z" fill="#8BC5E4"/>
<path d="M90.8548 238.492L4.4082 188.582L56.3697 158.582L142.816 208.492L90.8548 238.492Z" fill="#8BC5E4"/>
<path d="M4.4082 188.582V171.872L56.3697 141.872V158.582L4.4082 188.582Z" fill="#8BC5E4"/>
<path d="M4.4082 171.872L56.3697 141.872L4.4082 171.872Z" fill="#8BC5E4"/>
<path d="M0 79.5171V82.1271L51.9615 52.1271V49.5171L0 79.5171Z" fill="#8BC5E4"/>
<path d="M0 82.127V158.557L51.9615 128.557V52.127L0 82.127Z" fill="#8BC5E4"/>
<path d="M0 158.557L95.2628 213.557L147.224 183.557L51.9615 128.557L0 158.557Z" fill="#8BC5E4"/>
<path d="M95.2627 213.557V134.517L147.224 104.517V183.557L95.2627 213.557Z" fill="#8BC5E4"/>
<path d="M95.2628 134.517L0 79.5171L51.9615 49.5171L147.224 104.517L95.2628 134.517Z" fill="#8BC5E4"/>
<path d="M0 79.5171L51.9615 49.5171L0 79.5171Z" fill="#8BC5E4"/>
<path d="M4.4082 87.272L90.8548 137.182L142.816 107.182L56.3697 57.272L4.4082 87.272Z" fill="#8BC5E4"/>
<path d="M90.8545 137.182V205.802L142.816 175.802V107.182L90.8545 137.182Z" fill="#8BC5E4"/>
<path d="M90.8548 205.802L4.4082 155.892L56.3697 125.892L142.816 175.802L90.8548 205.802Z" fill="#8BC5E4"/>
<path d="M4.4082 155.892V87.272L56.3697 57.272V125.892L4.4082 155.892Z" fill="#8BC5E4"/>
<path d="M4.4082 87.272L56.3697 57.272L4.4082 87.272Z" fill="#8BC5E4"/>
<path d="M95.2627 130.607V92.627L147.224 62.627V100.607L95.2627 130.607Z" fill="#8BC5E4"/>
<path d="M84.8188 74.3771L10.332 31.3721L62.2935 1.37207L136.78 44.3771L84.8188 74.3771Z" fill="#8BC5E4"/>
<path d="M0 37.627V75.607L51.9615 45.607V7.62695L0 37.627Z" fill="#8BC5E4"/>
<path d="M0 75.6069L95.2628 130.607L147.224 100.607L51.9615 45.6069L0 75.6069Z" fill="#8BC5E4"/>
<path d="M95.2627 130.607L147.224 100.607L95.2627 130.607Z" fill="#8BC5E4"/>
<path d="M0 196.257V213.187L51.9615 183.187V166.257L0 196.257Z" fill="#8BC5E4"/>
<path d="M10.332 231.372L84.8188 274.377L136.78 244.377L62.2935 201.372L10.332 231.372Z" fill="#8BC5E4"/>
<path d="M95.2627 268.187V251.257L147.224 221.257V238.187L95.2627 268.187Z" fill="#8BC5E4"/>
<path d="M95.2628 251.257L0 196.257L51.9615 166.257L147.224 221.257L95.2628 251.257Z" fill="#8BC5E4"/>
<path d="M0 196.257L51.9615 166.257L0 196.257Z" fill="#8BC5E4"/>
<path d="M90.8545 254.152V265.642L142.816 235.642V224.152L90.8545 254.152Z" fill="#8BC5E4"/>
<path d="M84.8188 269.167L10.332 226.162L62.2935 196.162L136.78 239.167L84.8188 269.167Z" fill="#8BC5E4"/>
<path d="M4.4082 215.732V204.242L56.3697 174.242V185.732L4.4082 215.732Z" fill="#8BC5E4"/>
<path d="M4.4082 204.242L90.8548 254.152L142.816 224.152L56.3697 174.242L4.4082 204.242Z" fill="#8BC5E4"/>
<path d="M90.8545 254.152L142.816 224.152L90.8545 254.152Z" fill="#8BC5E4"/>
<path d="M4.4082 72.7919V40.1719L56.3697 10.1719V42.7919L4.4082 72.7919Z" fill="#8BC5E4"/>
<path d="M10.332 36.582L84.8188 79.587L136.78 49.587L62.2935 6.58203L10.332 36.582Z" fill="#8BC5E4"/>
<path d="M90.8545 90.082V122.702L142.816 92.702V60.082L90.8545 90.082Z" fill="#8BC5E4"/>
<path d="M90.8548 122.702L4.4082 72.792L56.3697 42.792L142.816 92.702L90.8548 122.702Z" fill="#8BC5E4"/>
<path d="M4.4082 72.792L56.3697 42.792L4.4082 72.792Z" fill="#8BC5E4"/>
<path d="M4.4082 72.7919V40.1719L56.3697 10.1719V42.7919L4.4082 72.7919Z" fill="#8BC5E4"/>
<path d="M10.332 36.582L84.8188 79.587L136.78 49.587L62.2935 6.58203L10.332 36.582Z" fill="#8BC5E4"/>
<path d="M90.8545 90.082V122.702L142.816 92.702V60.082L90.8545 90.082Z" fill="#8BC5E4"/>
<path d="M90.8548 122.702L4.4082 72.792L56.3697 42.792L142.816 92.702L90.8548 122.702Z" fill="#8BC5E4"/>
<path d="M4.4082 72.792L56.3697 42.792L4.4082 72.792Z" fill="#8BC5E4"/>
<path d="M4.4082 87.272L90.8548 137.182L142.816 107.182L56.3697 57.272L4.4082 87.272Z" fill="#8BC5E4"/>
<path d="M90.8545 137.182V205.802L142.816 175.802V107.182L90.8545 137.182Z" fill="#8BC5E4"/>
<path d="M90.8548 205.802L4.4082 155.892L56.3697 125.892L142.816 175.802L90.8548 205.802Z" fill="#8BC5E4"/>
<path d="M4.4082 155.892V87.272L56.3697 57.272V125.892L4.4082 155.892Z" fill="#8BC5E4"/>
<path d="M4.4082 87.272L56.3697 57.272L4.4082 87.272Z" fill="#8BC5E4"/>
<path d="M37.4902 127.412L89.4518 97.4119L37.4902 127.412Z" fill="#8BC5E4"/>
<path d="M46.3672 124.267V132.797L98.3287 102.797V94.2671L46.3672 124.267Z" fill="#8BC5E4"/>
<path d="M49.0078 134.322V125.792L100.969 95.792V104.322L49.0078 134.322Z" fill="#8BC5E4"/>
<path d="M46.3672 124.267L98.3287 94.2671L46.3672 124.267Z" fill="#8BC5E4"/>
<path d="M4.4082 171.872L90.8548 221.782L142.816 191.782L56.3697 141.872L4.4082 171.872Z" fill="#8BC5E4"/>
<path d="M90.8545 221.782V238.492L142.816 208.492V191.782L90.8545 221.782Z" fill="#8BC5E4"/>
<path d="M90.8548 238.492L4.4082 188.582L56.3697 158.582L142.816 208.492L90.8548 238.492Z" fill="#8BC5E4"/>
<path d="M4.4082 188.582V171.872L56.3697 141.872V158.582L4.4082 188.582Z" fill="#8BC5E4"/>
<path d="M4.4082 171.872L56.3697 141.872L4.4082 171.872Z" fill="#8BC5E4"/>
<path d="M90.8545 254.152V265.642L142.816 235.642V224.152L90.8545 254.152Z" fill="#8BC5E4"/>
<path d="M84.8188 269.167L10.332 226.162L62.2935 196.162L136.78 239.167L84.8188 269.167Z" fill="#8BC5E4"/>
<path d="M4.4082 215.732V204.242L56.3697 174.242V185.732L4.4082 215.732Z" fill="#8BC5E4"/>
<path d="M4.4082 204.242L90.8548 254.152L142.816 224.152L56.3697 174.242L4.4082 204.242Z" fill="#8BC5E4"/>
<path d="M90.8545 254.152L142.816 224.152L90.8545 254.152Z" fill="#8BC5E4"/>
<path d="M47.6833 121.237C44.9099 119.636 42.3889 119.504 40.5479 120.581L92.5093 90.5809C94.3503 89.5039 96.8714 89.6359 99.6448 91.2369L47.6833 121.237Z" fill="#8BC5E4"/>
<path d="M40.5392 120.586C38.6612 121.689 37.4932 124.053 37.4902 127.402L89.4517 97.4019C89.4547 94.0529 90.6227 91.6889 92.5007 90.5859L40.5392 120.586Z" fill="#8BC5E4"/>
<path d="M37.4902 127.412C37.4902 134.062 42.0715 142.127 47.6834 145.367L99.6449 115.367C94.033 112.127 89.4518 104.062 89.4518 97.4119L37.4902 127.412Z" fill="#8BC5E4"/>
<path d="M47.6836 145.367C50.4622 146.971 52.9882 147.101 54.8302 146.016L106.792 116.016C104.95 117.101 102.424 116.971 99.6451 115.367L47.6836 145.367Z" fill="#8BC5E4"/>
<path d="M54.8271 146.017C56.7061 144.913 57.8741 142.546 57.8761 139.192L109.838 109.192C109.836 112.546 108.668 114.913 106.789 116.017L54.8271 146.017Z" fill="#8BC5E4"/>
<path d="M57.8767 139.182C57.8767 132.542 53.2954 124.477 47.6836 121.237L99.6451 91.2371C105.257 94.4771 109.838 102.542 109.838 109.182L57.8767 139.182Z" fill="#8BC5E4"/>
<path d="M46.3672 132.797C46.3672 133.657 46.9561 134.697 47.6836 135.117L99.6451 105.117C98.9176 104.697 98.3287 103.657 98.3287 102.797L46.3672 132.797Z" fill="#8BC5E4"/>
<path d="M47.6836 135.117C48.0462 135.326 48.3722 135.345 48.6112 135.208L100.573 105.208C100.334 105.345 100.008 105.326 99.6451 105.117L47.6836 135.117Z" fill="#8BC5E4"/>
<path d="M48.6191 135.203C48.8581 135.061 49.0061 134.759 49.0081 134.332L100.97 104.332C100.968 104.759 100.82 105.061 100.581 105.203L48.6191 135.203Z" fill="#8BC5E4"/>
<path d="M49.0078 125.792C52.316 128.432 54.7928 133.272 54.7928 137.402L106.754 107.402C106.754 103.272 104.278 98.432 100.969 95.792L49.0078 125.792Z" fill="#8BC5E4"/>
<path d="M54.7932 137.402C54.7928 139.764 53.9848 141.424 52.6738 142.193L104.635 112.193C105.946 111.424 106.754 109.764 106.755 107.402L54.7932 137.402Z" fill="#8BC5E4"/>
<path d="M52.6765 142.192C51.3975 142.943 49.6395 142.844 47.6895 141.72L99.651 111.72C101.601 112.844 103.359 112.943 104.638 112.192L52.6765 142.192Z" fill="#8BC5E4"/>
<path d="M47.6833 141.717C43.7428 139.442 40.5732 133.862 40.5732 129.192L92.5347 99.1919C92.5347 103.862 95.7044 109.442 99.6448 111.717L47.6833 141.717Z" fill="#8BC5E4"/>
<path d="M40.5732 129.192C40.5729 126.837 41.3819 125.182 42.6899 124.414L94.6514 94.4141C93.3434 95.1821 92.5344 96.8371 92.5347 99.1921L40.5732 129.192Z" fill="#8BC5E4"/>
<path d="M42.6875 124.415C43.6725 123.836 44.9405 123.76 46.3615 124.265L98.323 94.2651C96.902 93.7601 95.634 93.8361 94.649 94.4151L42.6875 124.415Z" fill="#8BC5E4"/>
<path d="M95.2627 92.627C95.2627 85.897 90.4996 77.657 84.8184 74.377L136.78 44.377C142.461 47.657 147.224 55.897 147.224 62.627L95.2627 92.627Z" fill="#8BC5E4"/>
<path d="M10.3318 31.3719C7.52405 29.7509 4.96905 29.6159 3.10205 30.7059L55.0635 0.705919C56.9305 -0.384081 59.4855 -0.249081 62.2933 1.37192L10.3318 31.3719Z" fill="#8BC5E4"/>
<path d="M3.093 30.7109C1.189 31.8279 0.003 34.2229 0 37.6169L51.9615 7.61694C51.9645 4.22294 53.1505 1.82794 55.0545 0.710938L3.093 30.7109Z" fill="#8BC5E4"/>
<path d="M0 213.187C0 219.917 4.6506 228.092 10.3317 231.372L62.2932 201.372C56.6121 198.092 51.9615 189.917 51.9615 183.187L0 213.187Z" fill="#8BC5E4"/>
<path d="M84.8184 274.377C87.6199 275.995 90.1989 276.148 92.0929 275.081L144.054 245.081C142.16 246.148 139.581 245.995 136.78 244.377L84.8184 274.377Z" fill="#8BC5E4"/>
<path d="M92.0898 275.082C94.0358 273.987 95.2598 271.604 95.2628 268.197L147.224 238.197C147.221 241.604 145.997 243.987 144.051 245.082L92.0898 275.082Z" fill="#8BC5E4"/>
<path d="M90.8551 265.642C90.8554 267.592 90.1884 268.947 89.1094 269.583L141.071 239.583C142.15 238.947 142.817 237.592 142.817 235.642L90.8551 265.642Z" fill="#8BC5E4"/>
<path d="M89.1103 269.583C88.0163 270.23 86.4973 270.135 84.8223 269.17L136.784 239.17C138.459 240.135 139.978 240.23 141.072 239.583L89.1103 269.583Z" fill="#8BC5E4"/>
<path d="M10.3318 226.162C7.0149 224.247 4.4082 219.662 4.4082 215.732L56.3697 185.732C56.3697 189.662 58.9764 194.247 62.2933 196.162L10.3318 226.162Z" fill="#8BC5E4"/>
<path d="M4.4082 40.1719C4.4081 38.1919 5.0701 36.8089 6.1511 36.1699L58.1126 6.16992C57.0316 6.80892 56.3696 8.19192 56.3697 10.1719L4.4082 40.1719Z" fill="#8BC5E4"/>
<path d="M6.16211 36.1641C7.22411 35.5421 8.68911 35.6351 10.3271 36.5791L62.2886 6.57907C60.6506 5.63507 59.1856 5.54207 58.1236 6.16407L6.16211 36.1641Z" fill="#8BC5E4"/>
<path d="M84.8184 79.5869C88.144 81.5069 90.8546 86.1519 90.8546 90.0819L142.816 60.0819C142.816 56.1519 140.105 51.5069 136.78 49.5869L84.8184 79.5869Z" fill="#8BC5E4"/>
<path d="M4.4082 40.1719C4.4081 38.1919 5.0701 36.8089 6.1511 36.1699L58.1126 6.16992C57.0316 6.80892 56.3696 8.19192 56.3697 10.1719L4.4082 40.1719Z" fill="#8BC5E4"/>
<path d="M6.16211 36.1641C7.22411 35.5421 8.68911 35.6351 10.3271 36.5791L62.2886 6.57907C60.6506 5.63507 59.1856 5.54207 58.1236 6.16407L6.16211 36.1641Z" fill="#8BC5E4"/>
<path d="M84.8184 79.5869C88.144 81.5069 90.8546 86.1519 90.8546 90.0819L142.816 60.0819C142.816 56.1519 140.105 51.5069 136.78 49.5869L84.8184 79.5869Z" fill="#8BC5E4"/>
<path d="M37.4902 127.412C37.49 124.053 38.663 121.683 40.548 120.581L92.5095 90.5811C90.6245 91.6831 89.4515 94.0531 89.4518 97.4121L37.4902 127.412Z" fill="#8BC5E4"/>
<path d="M40.5449 120.582C42.3839 119.505 44.9039 119.635 47.6749 121.232L99.6364 91.232C96.8654 89.635 94.3454 89.505 92.5064 90.582L40.5449 120.582Z" fill="#8BC5E4"/>
<path d="M47.6836 121.237C53.2954 124.477 57.8767 132.542 57.8767 139.182L109.838 109.182C109.838 102.542 105.257 94.4771 99.6451 91.2371L47.6836 121.237Z" fill="#8BC5E4"/>
<path d="M57.8766 139.182C57.8761 142.539 56.7091 144.909 54.8301 146.016L106.792 116.016C108.671 114.909 109.838 112.539 109.838 109.182L57.8766 139.182Z" fill="#8BC5E4"/>
<path d="M54.8214 146.021C52.9814 147.099 50.4624 146.969 47.6914 145.372L99.6529 115.372C102.424 116.969 104.943 117.099 106.783 116.021L54.8214 146.021Z" fill="#8BC5E4"/>
<path d="M47.6834 145.367C42.0715 142.127 37.4902 134.062 37.4902 127.412L89.4518 97.4119C89.4518 104.062 94.033 112.127 99.6449 115.367L47.6834 145.367Z" fill="#8BC5E4"/>
<path d="M46.3672 132.797C46.3672 133.657 46.9561 134.697 47.6836 135.117L99.6451 105.117C98.9176 104.697 98.3287 103.657 98.3287 102.797L46.3672 132.797Z" fill="#8BC5E4"/>
<path d="M47.6836 135.117C48.0462 135.326 48.3722 135.345 48.6112 135.208L100.573 105.208C100.334 105.345 100.008 105.326 99.6451 105.117L47.6836 135.117Z" fill="#8BC5E4"/>
<path d="M48.6191 135.203C48.8581 135.061 49.0061 134.759 49.0081 134.332L100.97 104.332C100.968 104.759 100.82 105.061 100.581 105.203L48.6191 135.203Z" fill="#8BC5E4"/>
<path d="M49.0078 125.792C52.316 128.432 54.7928 133.272 54.7928 137.402L106.754 107.402C106.754 103.272 104.278 98.432 100.969 95.792L49.0078 125.792Z" fill="#8BC5E4"/>
<path d="M54.7932 137.402C54.7928 139.764 53.9848 141.424 52.6738 142.193L104.635 112.193C105.946 111.424 106.754 109.764 106.755 107.402L54.7932 137.402Z" fill="#8BC5E4"/>
<path d="M52.6765 142.192C51.3975 142.943 49.6395 142.844 47.6895 141.72L99.651 111.72C101.601 112.844 103.359 112.943 104.638 112.192L52.6765 142.192Z" fill="#8BC5E4"/>
<path d="M47.6833 141.717C43.7428 139.442 40.5732 133.862 40.5732 129.192L92.5347 99.1919C92.5347 103.862 95.7044 109.442 99.6448 111.717L47.6833 141.717Z" fill="#8BC5E4"/>
<path d="M40.5732 129.192C40.5729 126.837 41.3819 125.182 42.6899 124.414L94.6514 94.4141C93.3434 95.1821 92.5344 96.8371 92.5347 99.1921L40.5732 129.192Z" fill="#8BC5E4"/>
<path d="M42.6875 124.415C43.6725 123.836 44.9405 123.76 46.3615 124.265L98.323 94.2651C96.902 93.7601 95.634 93.8361 94.649 94.4151L42.6875 124.415Z" fill="#8BC5E4"/>
<path d="M90.8551 265.642C90.8554 267.592 90.1884 268.947 89.1094 269.583L141.071 239.583C142.15 238.947 142.817 237.592 142.817 235.642L90.8551 265.642Z" fill="#8BC5E4"/>
<path d="M89.1103 269.583C88.0163 270.23 86.4973 270.135 84.8223 269.17L136.784 239.17C138.459 240.135 139.978 240.23 141.072 239.583L89.1103 269.583Z" fill="#8BC5E4"/>
<path d="M10.3318 226.162C7.0149 224.247 4.4082 219.662 4.4082 215.732L56.3697 185.732C56.3697 189.662 58.9764 194.247 62.2933 196.162L10.3318 226.162Z" fill="#8BC5E4"/>
<path d="M47.6834 121.237C42.0715 117.997 37.4902 120.772 37.4902 127.412C37.4902 134.062 42.0715 142.127 47.6834 145.367C53.2952 148.607 57.8765 145.832 57.8765 139.182C57.8765 132.542 53.2952 124.477 47.6834 121.237ZM46.367 124.267V132.797C46.367 133.657 46.9559 134.697 47.6834 135.117C48.4195 135.542 49.0084 135.182 49.0084 134.322V125.792C52.3166 128.432 54.7934 133.272 54.7934 137.402C54.7934 142.072 51.6324 143.997 47.6834 141.717C43.7429 139.442 40.5733 133.862 40.5733 129.192C40.5733 125.062 43.0588 123.087 46.367 124.267ZM0 164.117V166.717V191.257L95.2628 246.257V219.117L0 164.117ZM4.40807 171.872L90.8547 221.782V238.492L4.40807 188.582V171.872ZM0 79.517V82.127V158.557L95.2628 213.557V134.517L0 79.517ZM4.40807 87.272L90.8547 137.182V205.802L4.40807 155.892V87.272ZM95.2628 130.607V92.627C95.2628 85.897 90.4997 77.657 84.8185 74.377L10.3317 31.372C4.65056 28.092 0 30.897 0 37.627V75.607L95.2628 130.607ZM0 196.257V213.187C0 219.917 4.65056 228.092 10.3317 231.372L84.8185 274.377C90.4997 277.657 95.2628 274.917 95.2628 268.187V251.257L0 196.257ZM90.8547 254.152V265.642C90.8547 269.572 88.1441 271.087 84.8185 269.167L10.3317 226.162C7.01481 224.247 4.40807 219.662 4.40807 215.732V204.242L90.8547 254.152ZM4.40807 72.792V40.172C4.40807 36.242 7.01481 34.667 10.3317 36.582L84.8185 79.587C88.1441 81.507 90.8547 86.152 90.8547 90.082V122.702L4.40807 72.792Z" fill="#8BC5E4"/>
<path d="M4.40807 72.792V40.172C4.40807 36.242 7.01481 34.667 10.3317 36.582L84.8185 79.587C88.1441 81.507 90.8547 86.152 90.8547 90.082V122.702L4.40807 72.792Z" fill="white"/>
<path fill-rule="evenodd" clip-rule="evenodd" d="M4.40807 87.272L90.8547 137.182V205.802L4.40807 155.892V87.272ZM37.4902 127.412C37.4902 120.772 42.0715 117.997 47.6834 121.237C53.2952 124.477 57.8765 132.542 57.8765 139.182C57.8765 145.832 53.2952 148.607 47.6834 145.367C42.0715 142.127 37.4902 134.062 37.4902 127.412Z" fill="white"/>
<path d="M46.367 124.267V132.797C46.367 133.657 46.9559 134.697 47.6834 135.117C48.4195 135.542 49.0084 135.182 49.0084 134.322V125.792C52.3166 128.432 54.7934 133.272 54.7934 137.402C54.7934 142.072 51.6324 143.997 47.6834 141.717C43.7429 139.442 40.5733 133.862 40.5733 129.192C40.5733 125.062 43.0588 123.087 46.367 124.267Z" fill="white"/>
<path d="M4.40807 171.872L90.8547 221.782V238.492L4.40807 188.582V171.872Z" fill="white"/>
<path d="M90.8547 254.152V265.642C90.8547 269.572 88.1441 271.087 84.8185 269.167L10.3317 226.162C7.01481 224.247 4.40807 219.662 4.40807 215.732V204.242L90.8547 254.152Z" fill="white"/>
</svg>
