<svg width="274" height="354" viewBox="0 0 274 354" fill="none" xmlns="http://www.w3.org/2000/svg">
<path d="M203.663 140.675V191.785L151.702 161.785V110.675L203.663 140.675Z" fill="#8BC5E4"/>
<path d="M257.166 160.895V109.785L205.205 79.7848V130.895L257.166 160.895Z" fill="#8BC5E4"/>
<path d="M231.584 116.005L179.622 86.0048L231.584 116.005Z" fill="#8BC5E4"/>
<path d="M231.584 120.695L179.622 90.6947L231.584 120.695Z" fill="#8BC5E4"/>
<path d="M253.148 116.705V161.845L201.186 131.845V86.7047L253.148 116.705Z" fill="#8BC5E4"/>
<path d="M207.69 187.99V142.86L155.729 112.86V157.99L207.69 187.99Z" fill="#8BC5E4"/>
<path d="M207.69 142.86L155.729 112.86L207.69 142.86Z" fill="#8BC5E4"/>
<path d="M136.061 179.705V230.815L84.0996 200.815V149.705L136.061 179.705Z" fill="#8BC5E4"/>
<path d="M189.564 199.925V148.815L137.603 118.815V169.925L189.564 199.925Z" fill="#8BC5E4"/>
<path d="M163.982 155.035L112.021 125.035L163.982 155.035Z" fill="#8BC5E4"/>
<path d="M163.982 159.725L112.021 129.725L163.982 159.725Z" fill="#8BC5E4"/>
<path d="M185.546 155.735V200.875L133.584 170.875V125.735L185.546 155.735Z" fill="#8BC5E4"/>
<path d="M140.08 227.025V181.895L88.1182 151.895V197.025L140.08 227.025Z" fill="#8BC5E4"/>
<path d="M140.08 181.895L88.1182 151.895L140.08 181.895Z" fill="#8BC5E4"/>
<path d="M68.4591 218.735V269.845L16.4976 239.845V188.735L68.4591 218.735Z" fill="#8BC5E4"/>
<path d="M121.962 238.955V187.845L70.0005 157.845V208.955L121.962 238.955Z" fill="#8BC5E4"/>
<path d="M96.3624 194.075L44.4009 164.075L96.3624 194.075Z" fill="#8BC5E4"/>
<path d="M96.3624 198.765L44.4009 168.765L96.3624 198.765Z" fill="#8BC5E4"/>
<path d="M117.935 194.77V239.91L65.9736 209.91V164.77L117.935 194.77Z" fill="#8BC5E4"/>
<path d="M72.4776 266.055V220.925L20.5161 190.925V236.055L72.4776 266.055Z" fill="#8BC5E4"/>
<path d="M72.4776 220.925L20.5161 190.925L72.4776 220.925Z" fill="#8BC5E4"/>
<path d="M51.9615 165.58V341.14L0 311.14V135.58L51.9615 165.58Z" fill="#8BC5E4"/>
<path d="M62.4317 347.315L263.194 231.405L211.232 201.405L10.4702 317.315L62.4317 347.315Z" fill="#8BC5E4"/>
<path d="M273.664 213.14V37.5797L221.703 7.57971V183.14L273.664 213.14Z" fill="#8BC5E4"/>
<path d="M263.194 31.4048L62.4317 147.315L10.4702 117.315L211.232 1.40479L263.194 31.4048Z" fill="#8BC5E4"/>
<path d="M62.4317 147.315L10.4702 117.315L62.4317 147.315Z" fill="#8BC5E4"/>
<path d="M62.4317 152.825L263.194 36.9147L211.232 6.91467L10.4702 122.825L62.4317 152.825Z" fill="#8BC5E4"/>
<path d="M268.927 40.3147V215.875L216.965 185.875V10.3147L268.927 40.3147Z" fill="#8BC5E4"/>
<path d="M263.194 225.895L62.4317 341.805L10.4702 311.805L211.232 195.895L263.194 225.895Z" fill="#8BC5E4"/>
<path d="M56.69 338.41V162.85L4.72852 132.85V308.41L56.69 338.41Z" fill="#8BC5E4"/>
<path d="M62.4317 152.825L10.4702 122.825L62.4317 152.825Z" fill="#8BC5E4"/>
<path d="M253.148 116.705V161.845L201.186 131.845V86.7047L253.148 116.705Z" fill="#8BC5E4"/>
<path d="M207.69 187.99V142.86L155.729 112.86V157.99L207.69 187.99Z" fill="#8BC5E4"/>
<path d="M207.69 142.86L155.729 112.86L207.69 142.86Z" fill="#8BC5E4"/>
<path d="M185.546 155.735V200.875L133.584 170.875V125.735L185.546 155.735Z" fill="#8BC5E4"/>
<path d="M140.08 227.025V181.895L88.1182 151.895V197.025L140.08 227.025Z" fill="#8BC5E4"/>
<path d="M140.08 181.895L88.1182 151.895L140.08 181.895Z" fill="#8BC5E4"/>
<path d="M117.935 194.77V239.91L65.9736 209.91V164.77L117.935 194.77Z" fill="#8BC5E4"/>
<path d="M72.4776 266.055V220.925L20.5161 190.925V236.055L72.4776 266.055Z" fill="#8BC5E4"/>
<path d="M72.4776 220.925L20.5161 190.925L72.4776 220.925Z" fill="#8BC5E4"/>
<path d="M231.584 120.695L179.622 90.6947L231.584 120.695Z" fill="#8BC5E4"/>
<path d="M163.982 159.725L112.021 129.725L163.982 159.725Z" fill="#8BC5E4"/>
<path d="M96.3711 206.33L96.3624 206.335L44.4009 176.335L44.4096 176.33L96.3711 206.33Z" fill="#8BC5E4"/>
<path d="M96.3624 198.765L44.4009 168.765L96.3624 198.765Z" fill="#8BC5E4"/>
<path d="M62.4317 152.825L263.194 36.9147L211.232 6.91467L10.4702 122.825L62.4317 152.825Z" fill="#8BC5E4"/>
<path d="M268.927 40.3147V215.875L216.965 185.875V10.3147L268.927 40.3147Z" fill="#8BC5E4"/>
<path d="M263.194 225.895L62.4317 341.805L10.4702 311.805L211.232 195.895L263.194 225.895Z" fill="#8BC5E4"/>
<path d="M56.69 338.41V162.85L4.72852 132.85V308.41L56.69 338.41Z" fill="#8BC5E4"/>
<path d="M62.4317 152.825L10.4702 122.825L62.4317 152.825Z" fill="#8BC5E4"/>
<path d="M257.166 109.785V160.895L205.205 130.895V79.7848L257.166 109.785Z" fill="#8BC5E4"/>
<path d="M203.663 191.785V140.675L151.702 110.675V161.785L203.663 191.785Z" fill="#8BC5E4"/>
<path d="M214.393 127.36L162.432 97.3597L214.393 127.36Z" fill="#8BC5E4"/>
<path d="M189.564 148.815V199.925L137.603 169.925V118.815L189.564 148.815Z" fill="#8BC5E4"/>
<path d="M136.061 230.815V179.705L84.0996 149.705V200.815L136.061 230.815Z" fill="#8BC5E4"/>
<path d="M146.791 166.39L94.8296 136.39L146.791 166.39Z" fill="#8BC5E4"/>
<path d="M121.962 187.845V238.955L70.0005 208.955V157.845L121.962 187.845Z" fill="#8BC5E4"/>
<path d="M68.4591 269.845V218.735L16.4976 188.735V239.845L68.4591 269.845Z" fill="#8BC5E4"/>
<path d="M79.189 205.42L27.2275 175.42L79.189 205.42Z" fill="#8BC5E4"/>
<path d="M231.584 116.005C225.392 119.58 219.312 123.5 214.393 127.36L162.432 97.3598C167.351 93.4998 173.43 89.5798 179.622 86.0048L231.584 116.005Z" fill="#8BC5E4"/>
<path d="M214.393 127.36C211.942 129.285 209.786 131.18 207.993 133.125L156.032 103.125C157.824 101.18 159.981 99.2847 162.432 97.3597L214.393 127.36Z" fill="#8BC5E4"/>
<path d="M207.993 133.125C206.201 135.07 204.668 137.125 203.862 139.54L151.901 109.54C152.706 107.125 154.239 105.07 156.032 103.125L207.993 133.125Z" fill="#8BC5E4"/>
<path d="M203.862 139.54C203.732 139.925 203.663 140.315 203.663 140.675L151.702 110.675C151.702 110.315 151.771 109.925 151.901 109.54L203.862 139.54Z" fill="#8BC5E4"/>
<path d="M203.663 191.785C203.664 192.414 203.883 192.889 204.259 193.111L152.297 163.111C151.921 162.889 151.702 162.414 151.702 161.785L203.663 191.785Z" fill="#8BC5E4"/>
<path d="M204.264 193.114C204.339 193.157 204.419 193.191 204.505 193.213L152.544 163.213C152.458 163.191 152.378 163.157 152.303 163.114L204.264 193.114Z" fill="#8BC5E4"/>
<path d="M204.512 193.215C206.876 193.79 210.513 192.92 214.947 191.34L162.986 161.34C158.552 162.92 154.915 163.79 152.55 163.215L204.512 193.215Z" fill="#8BC5E4"/>
<path d="M214.947 191.34C219.39 189.755 224.543 187.37 229.514 184.5L177.552 154.5C172.581 157.37 167.429 159.755 162.986 161.34L214.947 191.34Z" fill="#8BC5E4"/>
<path d="M229.514 184.5C235.1 181.275 240.599 177.8 245.284 174.235L193.323 144.235C188.637 147.8 183.138 151.275 177.552 154.5L229.514 184.5Z" fill="#8BC5E4"/>
<path d="M245.284 174.235C249.978 170.685 253.884 167.19 256.473 163.065L204.512 133.065C201.922 137.19 198.017 140.685 193.323 144.235L245.284 174.235Z" fill="#8BC5E4"/>
<path d="M256.473 163.065C256.915 162.36 257.166 161.575 257.166 160.895L205.205 130.895C205.205 131.575 204.953 132.36 204.512 133.065L256.473 163.065Z" fill="#8BC5E4"/>
<path d="M257.166 109.785C257.166 109.325 257.054 108.95 256.846 108.69L204.884 78.6897C205.092 78.9497 205.205 79.3247 205.205 79.7847L257.166 109.785Z" fill="#8BC5E4"/>
<path d="M256.846 108.69C256.554 108.337 256.219 108.057 255.845 107.843L203.884 77.8428C204.258 78.0568 204.593 78.3368 204.884 78.6898L256.846 108.69Z" fill="#8BC5E4"/>
<path d="M255.845 107.844C253.735 106.635 250.382 107.506 246.529 108.848L194.568 78.8477C198.421 77.5057 201.774 76.6347 203.884 77.8437L255.845 107.844Z" fill="#8BC5E4"/>
<path d="M246.523 108.85C241.985 110.44 236.633 113.09 231.584 116.005L179.622 86.0047C184.671 83.0897 190.023 80.4397 194.561 78.8497L246.523 108.85Z" fill="#8BC5E4"/>
<path d="M231.584 120.695C236.433 117.895 241.603 115.35 245.76 113.9L193.799 83.8998C189.642 85.3498 184.472 87.8948 179.622 90.6948L231.584 120.695Z" fill="#8BC5E4"/>
<path d="M245.76 113.9C248.48 112.94 250.376 112.785 251.745 112.895L199.783 82.8948C198.415 82.7848 196.518 82.9398 193.799 83.8998L245.76 113.9Z" fill="#8BC5E4"/>
<path d="M251.745 112.895C250.472 114.44 248.792 116.23 246.384 118.23L194.423 88.2298C196.83 86.2298 198.51 84.4398 199.784 82.8948L251.745 112.895Z" fill="#8BC5E4"/>
<path d="M246.384 118.23C242.504 121.44 237.395 124.92 231.584 128.265L179.622 98.2647C185.433 94.9197 190.543 91.4397 194.422 88.2297L246.384 118.23Z" fill="#8BC5E4"/>
<path d="M231.584 128.265C225.747 131.635 220.144 134.47 215.736 136.095L163.774 106.095C168.182 104.47 173.785 101.635 179.622 98.2648L231.584 128.265Z" fill="#8BC5E4"/>
<path d="M215.736 136.095C212.583 137.275 210.427 137.5 208.911 137.355L156.95 107.355C158.465 107.5 160.622 107.275 163.774 106.095L215.736 136.095Z" fill="#8BC5E4"/>
<path d="M208.911 137.355C209.154 137.055 209.292 136.825 209.595 136.5L157.634 106.5C157.331 106.825 157.192 107.055 156.95 107.355L208.911 137.355Z" fill="#8BC5E4"/>
<path d="M209.595 136.5C210.938 135.045 212.843 133.335 215.103 131.57L163.142 101.57C160.881 103.335 158.976 105.045 157.634 106.5L209.595 136.5Z" fill="#8BC5E4"/>
<path d="M215.103 131.57C219.624 128.02 225.539 124.185 231.584 120.695L179.622 90.6947C173.577 94.1847 167.662 98.0197 163.142 101.57L215.103 131.57Z" fill="#8BC5E4"/>
<path d="M207.69 142.86C209.734 142.83 212.185 142.185 215.025 141.125L163.064 111.125C160.223 112.185 157.772 112.83 155.729 112.86L207.69 142.86Z" fill="#8BC5E4"/>
<path d="M215.025 141.125C219.815 139.36 225.6 136.41 231.584 132.955L179.622 102.955C173.638 106.41 167.853 109.36 163.064 111.125L215.025 141.125Z" fill="#8BC5E4"/>
<path d="M231.584 132.955C237.602 129.49 242.946 125.875 247.233 122.32L195.271 92.3197C190.984 95.8747 185.641 99.4897 179.622 102.955L231.584 132.955Z" fill="#8BC5E4"/>
<path d="M247.233 122.32C249.511 120.435 251.485 118.605 253.148 116.705L201.186 86.7047C199.524 88.6047 197.549 90.4347 195.271 92.3197L247.233 122.32Z" fill="#8BC5E4"/>
<path d="M253.148 161.845C251.528 164.07 248.61 166.985 244.67 169.96L192.708 139.96C196.648 136.985 199.567 134.07 201.186 131.845L253.148 161.845Z" fill="#8BC5E4"/>
<path d="M244.669 169.96C240.304 173.27 234.978 176.655 229.514 179.81L177.552 149.81C183.017 146.655 188.343 143.27 192.708 139.96L244.669 169.96Z" fill="#8BC5E4"/>
<path d="M229.514 179.81C224.82 182.52 219.858 184.815 215.692 186.3L163.73 156.3C167.896 154.815 172.858 152.52 177.552 149.81L229.514 179.81Z" fill="#8BC5E4"/>
<path d="M215.692 186.3C212.063 187.595 209.24 188.065 207.69 187.99L155.729 157.99C157.279 158.065 160.102 157.595 163.731 156.3L215.692 186.3Z" fill="#8BC5E4"/>
<path d="M163.982 155.035C157.79 158.61 151.693 162.54 146.791 166.39L94.8296 136.39C99.7313 132.54 105.828 128.61 112.02 125.035L163.982 155.035Z" fill="#8BC5E4"/>
<path d="M146.791 166.39C144.332 168.32 142.184 170.21 140.391 172.155L88.4297 142.155C90.2224 140.21 92.3701 138.32 94.8297 136.39L146.791 166.39Z" fill="#8BC5E4"/>
<path d="M140.391 172.155C138.599 174.1 137.066 176.155 136.26 178.57L84.2988 148.57C85.1042 146.155 86.6371 144.1 88.4297 142.155L140.391 172.155Z" fill="#8BC5E4"/>
<path d="M136.26 178.57C136.13 178.955 136.061 179.345 136.061 179.705L84.0996 149.705C84.0996 149.345 84.1689 148.955 84.2988 148.57L136.26 178.57Z" fill="#8BC5E4"/>
<path d="M136.061 230.815C136.061 231.444 136.28 231.919 136.656 232.141L84.6949 202.141C84.3189 201.919 84.0999 201.444 84.0996 200.815L136.061 230.815Z" fill="#8BC5E4"/>
<path d="M136.662 232.144C136.737 232.187 136.817 232.221 136.903 232.243L84.9417 202.243C84.8557 202.221 84.7757 202.187 84.7007 202.144L136.662 232.144Z" fill="#8BC5E4"/>
<path d="M136.91 232.245C139.265 232.825 142.903 231.955 147.337 230.375L95.3752 200.375C90.9411 201.955 87.3038 202.825 84.9482 202.245L136.91 232.245Z" fill="#8BC5E4"/>
<path d="M147.337 230.375C151.78 228.79 156.941 226.4 161.912 223.53L109.951 193.53C104.98 196.4 99.8182 198.79 95.3755 200.375L147.337 230.375Z" fill="#8BC5E4"/>
<path d="M161.912 223.53C167.498 220.305 172.989 216.835 177.682 213.265L125.721 183.265C121.027 186.835 115.536 190.305 109.951 193.53L161.912 223.53Z" fill="#8BC5E4"/>
<path d="M177.682 213.265C182.367 209.72 186.282 206.22 188.863 202.1L136.901 172.1C134.32 176.22 130.406 179.72 125.721 183.265L177.682 213.265Z" fill="#8BC5E4"/>
<path d="M188.863 202.1C189.305 201.405 189.564 200.605 189.564 199.925L137.603 169.925C137.603 170.605 137.343 171.405 136.901 172.1L188.863 202.1Z" fill="#8BC5E4"/>
<path d="M189.564 148.815C189.564 148.355 189.443 147.985 189.235 147.725L137.273 117.725C137.481 117.985 137.603 118.355 137.603 118.815L189.564 148.815Z" fill="#8BC5E4"/>
<path d="M189.235 147.725C188.944 147.371 188.611 147.091 188.238 146.876L136.277 116.876C136.65 117.091 136.983 117.371 137.274 117.725L189.235 147.725Z" fill="#8BC5E4"/>
<path d="M188.238 146.877C186.133 145.665 182.78 146.536 178.927 147.878L126.966 117.878C130.819 116.536 134.172 115.665 136.277 116.877L188.238 146.877Z" fill="#8BC5E4"/>
<path d="M178.921 147.88C174.383 149.47 169.022 152.125 163.982 155.035L112.021 125.035C117.061 122.125 122.421 119.47 126.959 117.88L178.921 147.88Z" fill="#8BC5E4"/>
<path d="M163.982 159.725C168.823 156.93 174.002 154.38 178.159 152.93L126.197 122.93C122.04 124.38 116.862 126.93 112.021 129.725L163.982 159.725Z" fill="#8BC5E4"/>
<path d="M178.159 152.93C180.878 151.97 182.775 151.815 184.143 151.925L132.181 121.925C130.813 121.815 128.917 121.97 126.197 122.93L178.159 152.93Z" fill="#8BC5E4"/>
<path d="M184.143 151.925C182.861 153.475 181.19 155.26 178.782 157.26L126.821 127.26C129.228 125.26 130.9 123.475 132.182 121.925L184.143 151.925Z" fill="#8BC5E4"/>
<path d="M178.782 157.26C174.903 160.47 169.793 163.95 163.982 167.295L112.021 137.295C117.832 133.95 122.941 130.47 126.821 127.26L178.782 157.26Z" fill="#8BC5E4"/>
<path d="M163.982 167.295C158.145 170.665 152.541 173.5 148.125 175.13L96.1631 145.13C100.58 143.5 106.183 140.665 112.02 137.295L163.982 167.295Z" fill="#8BC5E4"/>
<path d="M148.125 175.13C144.972 176.31 142.825 176.53 141.309 176.385L89.3477 146.385C90.8633 146.53 93.011 146.31 96.1633 145.13L148.125 175.13Z" fill="#8BC5E4"/>
<path d="M141.309 176.385C141.552 176.085 141.69 175.855 141.993 175.53L90.0319 145.53C89.7288 145.855 89.5902 146.085 89.3477 146.385L141.309 176.385Z" fill="#8BC5E4"/>
<path d="M141.993 175.53C143.327 174.08 145.241 172.365 147.501 170.6L95.5396 140.6C93.2793 142.365 91.3654 144.08 90.0317 145.53L141.993 175.53Z" fill="#8BC5E4"/>
<path d="M147.502 170.6C152.014 167.055 157.937 163.215 163.982 159.725L112.021 129.725C105.976 133.215 100.052 137.055 95.54 140.6L147.502 170.6Z" fill="#8BC5E4"/>
<path d="M140.08 181.895C142.132 181.86 144.583 181.215 147.424 180.155L95.4621 150.155C92.6215 151.215 90.1706 151.86 88.1182 151.895L140.08 181.895Z" fill="#8BC5E4"/>
<path d="M147.423 180.155C152.213 178.39 157.998 175.44 163.982 171.985L112.02 141.985C106.036 145.44 100.251 148.39 95.4619 150.155L147.423 180.155Z" fill="#8BC5E4"/>
<path d="M163.982 171.985C170.001 168.52 175.344 164.905 179.622 161.355L127.661 131.355C123.383 134.905 118.039 138.52 112.021 141.985L163.982 171.985Z" fill="#8BC5E4"/>
<path d="M179.622 161.355C181.9 159.47 183.883 157.635 185.546 155.735L133.584 125.735C131.921 127.635 129.938 129.47 127.661 131.355L179.622 161.355Z" fill="#8BC5E4"/>
<path d="M185.546 200.875C183.926 203.1 180.999 206.02 177.067 208.99L125.106 178.99C129.038 176.02 131.965 173.1 133.584 170.875L185.546 200.875Z" fill="#8BC5E4"/>
<path d="M177.068 208.99C172.694 212.305 167.377 215.685 161.912 218.84L109.951 188.84C115.415 185.685 120.733 182.305 125.106 178.99L177.068 208.99Z" fill="#8BC5E4"/>
<path d="M161.912 218.84C157.218 221.55 152.256 223.845 148.09 225.33L96.1289 195.33C100.295 193.845 105.257 191.55 109.951 188.84L161.912 218.84Z" fill="#8BC5E4"/>
<path d="M148.09 225.33C144.453 226.63 141.638 227.095 140.08 227.025L88.1182 197.025C89.677 197.095 92.4916 196.63 96.1289 195.33L148.09 225.33Z" fill="#8BC5E4"/>
<path d="M96.3623 194.075C90.1789 197.645 84.0907 201.57 79.189 205.42L27.2275 175.42C32.1292 171.57 38.2174 167.645 44.4008 164.075L96.3623 194.075Z" fill="#8BC5E4"/>
<path d="M79.1894 205.42C76.7299 207.35 74.5735 209.245 72.7809 211.19L20.8193 181.19C22.612 179.245 24.7684 177.35 27.2279 175.42L79.1894 205.42Z" fill="#8BC5E4"/>
<path d="M72.7807 211.19C70.9966 213.13 69.4638 215.185 68.6584 217.6L16.6968 187.6C17.5022 185.185 19.0351 183.13 20.8191 181.19L72.7807 211.19Z" fill="#8BC5E4"/>
<path d="M68.6583 217.6C68.5284 217.985 68.4591 218.375 68.4591 218.735L16.4976 188.735C16.4976 188.375 16.5668 187.985 16.6967 187.6L68.6583 217.6Z" fill="#8BC5E4"/>
<path d="M68.4591 269.845C68.4593 270.486 68.6813 270.964 69.0673 271.184L17.1058 241.184C16.7198 240.964 16.4978 240.486 16.4976 239.845L68.4591 269.845Z" fill="#8BC5E4"/>
<path d="M69.0635 271.182C69.1345 271.223 69.2116 271.255 69.2936 271.278L17.3321 241.278C17.2501 241.255 17.1731 241.223 17.1021 241.182L69.0635 271.182Z" fill="#8BC5E4"/>
<path d="M69.2994 271.28C71.655 271.86 75.2923 270.99 79.735 269.405L27.7735 239.405C23.3308 240.99 19.6935 241.86 17.3379 241.28L69.2994 271.28Z" fill="#8BC5E4"/>
<path d="M79.7349 269.405C84.169 267.825 89.3392 265.43 94.3101 262.56L42.3486 232.56C37.3776 235.43 32.2075 237.825 27.7734 239.405L79.7349 269.405Z" fill="#8BC5E4"/>
<path d="M94.3101 262.56C99.896 259.335 105.378 255.87 110.081 252.295L58.1189 222.295C53.4164 225.87 47.9345 229.335 42.3486 232.56L94.3101 262.56Z" fill="#8BC5E4"/>
<path d="M110.08 252.295C114.765 248.75 118.68 245.25 121.261 241.13L69.2991 211.13C66.7184 215.25 62.8039 218.75 58.1187 222.295L110.08 252.295Z" fill="#8BC5E4"/>
<path d="M121.261 241.13C121.703 240.435 121.954 239.64 121.962 238.955L70.0008 208.955C69.9922 209.64 69.741 210.435 69.2993 211.13L121.261 241.13Z" fill="#8BC5E4"/>
<path d="M121.962 187.845C121.954 187.39 121.841 187.015 121.625 186.76L69.6631 156.76C69.8796 157.015 69.9922 157.39 70.0008 157.845L121.962 187.845Z" fill="#8BC5E4"/>
<path d="M121.625 186.76C121.335 186.405 121.002 186.125 120.63 185.909L68.6689 155.909C69.0409 156.125 69.3739 156.405 69.663 156.76L121.625 186.76Z" fill="#8BC5E4"/>
<path d="M120.631 185.91C118.531 184.695 115.178 185.566 111.325 186.908L59.3638 156.908C63.2168 155.566 66.5698 154.695 68.6698 155.91L120.631 185.91Z" fill="#8BC5E4"/>
<path d="M111.319 186.91C106.781 188.5 101.42 191.155 96.3624 194.075L44.4009 164.075C49.4585 161.155 54.8192 158.5 59.3572 156.91L111.319 186.91Z" fill="#8BC5E4"/>
<path d="M96.3624 198.765C101.221 195.96 106.4 193.41 110.548 191.965L58.5864 161.965C54.4381 163.41 49.2593 165.96 44.4009 168.765L96.3624 198.765Z" fill="#8BC5E4"/>
<path d="M110.548 191.965C113.276 191 115.173 190.845 116.532 190.96L64.5706 160.96C63.211 160.845 61.3144 161 58.5864 161.965L110.548 191.965Z" fill="#8BC5E4"/>
<path d="M116.532 190.96C115.259 192.505 113.588 194.29 111.18 196.29L59.2188 166.29C61.6263 164.29 63.2978 162.505 64.5708 160.96L116.532 190.96Z" fill="#8BC5E4"/>
<path d="M111.18 196.29C107.3 199.5 102.191 202.98 96.3712 206.33L44.4097 176.33C50.2293 172.98 55.3389 169.5 59.2187 166.29L111.18 196.29Z" fill="#8BC5E4"/>
<path d="M96.3711 206.33C96.3711 206.33 96.3711 206.33 96.3624 206.335L44.4009 176.335C44.4096 176.33 44.4096 176.33 44.4096 176.33L96.3711 206.33Z" fill="#8BC5E4"/>
<path d="M96.3626 206.335C90.5429 209.695 84.9397 212.53 80.523 214.16L28.5615 184.16C32.9782 182.53 38.5814 179.695 44.4011 176.335L96.3626 206.335Z" fill="#8BC5E4"/>
<path d="M80.5227 214.16C77.3617 215.345 75.2226 215.56 73.7071 215.415L21.7456 185.415C23.2611 185.56 25.4002 185.345 28.5612 184.16L80.5227 214.16Z" fill="#8BC5E4"/>
<path d="M73.7071 215.415C73.9323 215.125 74.0881 214.885 74.3913 214.56L22.4297 184.56C22.1266 184.885 21.9707 185.125 21.7456 185.415L73.7071 215.415Z" fill="#8BC5E4"/>
<path d="M74.3913 214.56C75.7249 213.11 77.6302 211.4 79.8905 209.635L27.929 179.635C25.6687 181.4 23.7634 183.11 22.4297 184.56L74.3913 214.56Z" fill="#8BC5E4"/>
<path d="M79.8907 209.635C84.4027 206.09 90.335 202.245 96.3625 198.765L44.401 168.765C38.3735 172.245 32.4412 176.09 27.9292 179.635L79.8907 209.635Z" fill="#8BC5E4"/>
<path d="M72.4776 220.925C74.5215 220.895 76.981 220.245 79.8129 219.19L27.8514 189.19C25.0194 190.245 22.5599 190.895 20.5161 190.925L72.4776 220.925Z" fill="#8BC5E4"/>
<path d="M79.8131 219.19C84.6109 217.42 90.3872 214.475 96.3628 211.025L44.4013 181.025C38.4257 184.475 32.6493 187.42 27.8516 189.19L79.8131 219.19Z" fill="#8BC5E4"/>
<path d="M96.3624 211.025C102.399 207.55 107.725 203.945 112.02 200.385L60.0586 170.385C55.7632 173.945 50.4371 177.55 44.4009 181.025L96.3624 211.025Z" fill="#8BC5E4"/>
<path d="M112.02 200.385C114.298 198.5 116.272 196.67 117.935 194.77L65.9736 164.77C64.3108 166.67 62.3363 168.5 60.0586 170.385L112.02 200.385Z" fill="#8BC5E4"/>
<path d="M117.935 239.91C116.324 242.13 113.389 245.055 109.465 248.02L57.5039 218.02C61.427 215.055 64.3628 212.13 65.9736 209.91L117.935 239.91Z" fill="#8BC5E4"/>
<path d="M109.466 248.02C105.092 251.335 99.7661 254.72 94.3101 257.87L42.3486 227.87C47.8046 224.72 53.1306 221.335 57.5041 218.02L109.466 248.02Z" fill="#8BC5E4"/>
<path d="M94.31 257.87C89.6162 260.58 84.6452 262.88 80.4796 264.365L28.5181 234.365C32.6837 232.88 37.6547 230.58 42.3485 227.87L94.31 257.87Z" fill="#8BC5E4"/>
<path d="M80.4797 264.365C76.8511 265.66 74.0365 266.125 72.4776 266.055L20.5161 236.055C22.075 236.125 24.8895 235.66 28.5182 234.365L80.4797 264.365Z" fill="#8BC5E4"/>
<path d="M62.4317 147.315C56.6727 150.64 51.9615 158.85 51.9615 165.58L0 135.58C0 128.85 4.7112 120.64 10.4702 117.315L62.4317 147.315Z" fill="#8BC5E4"/>
<path d="M51.9615 341.14C51.9615 344.564 53.1815 346.963 55.1375 348.056L3.176 318.056C1.22 316.963 0 314.564 0 311.14L51.9615 341.14Z" fill="#8BC5E4"/>
<path d="M55.1466 348.061C57.0326 349.109 59.6026 348.946 62.4236 347.32L10.4621 317.32C7.64106 318.946 5.07106 319.109 3.18506 318.061L55.1466 348.061Z" fill="#8BC5E4"/>
<path d="M263.194 231.405C268.944 228.085 273.664 219.87 273.664 213.14L221.702 183.14C221.702 189.87 216.982 198.085 211.232 201.405L263.194 231.405Z" fill="#8BC5E4"/>
<path d="M273.664 37.5798C273.664 34.1558 272.442 31.7578 270.484 30.6658L218.523 0.665771C220.481 1.75777 221.703 4.15577 221.702 7.57977L273.664 37.5798Z" fill="#8BC5E4"/>
<path d="M270.487 30.6677C268.598 29.6127 266.024 29.7727 263.202 31.3997L211.241 1.39971C214.063 -0.227291 216.637 -0.387291 218.526 0.667709L270.487 30.6677Z" fill="#8BC5E4"/>
<path d="M263.194 36.9148C264.775 36.0018 266.188 35.8978 267.216 36.4778L215.255 6.47777C214.227 5.89777 212.814 6.00177 211.232 6.91477L263.194 36.9148Z" fill="#8BC5E4"/>
<path d="M267.215 36.4767C268.275 37.0737 268.925 38.3967 268.926 40.3087L216.965 10.3087C216.964 8.39668 216.314 7.07368 215.254 6.47668L267.215 36.4767Z" fill="#8BC5E4"/>
<path d="M268.927 215.875C268.927 219.645 266.406 224.04 263.194 225.895L211.232 195.895C214.445 194.04 216.965 189.645 216.965 185.875L268.927 215.875Z" fill="#8BC5E4"/>
<path d="M62.4316 341.805C60.8464 342.72 59.4304 342.826 58.4014 342.247L6.43994 312.247C7.46894 312.826 8.88494 312.72 10.4701 311.805L62.4316 341.805Z" fill="#8BC5E4"/>
<path d="M58.4025 342.248C57.3415 341.651 56.6915 340.328 56.6905 338.416L4.729 308.416C4.73 310.328 5.38 311.651 6.441 312.248L58.4025 342.248Z" fill="#8BC5E4"/>
<path d="M56.69 162.85C56.69 159.08 59.2101 154.685 62.4317 152.825L10.4702 122.825C7.24862 124.685 4.72852 129.08 4.72852 132.85L56.69 162.85Z" fill="#8BC5E4"/>
<path d="M207.69 142.86C209.734 142.83 212.185 142.185 215.025 141.125L163.064 111.125C160.223 112.185 157.772 112.83 155.729 112.86L207.69 142.86Z" fill="#8BC5E4"/>
<path d="M215.025 141.125C219.815 139.36 225.6 136.41 231.584 132.955L179.622 102.955C173.638 106.41 167.853 109.36 163.064 111.125L215.025 141.125Z" fill="#8BC5E4"/>
<path d="M231.584 132.955C237.602 129.49 242.946 125.875 247.233 122.32L195.271 92.3197C190.984 95.8747 185.641 99.4897 179.622 102.955L231.584 132.955Z" fill="#8BC5E4"/>
<path d="M247.233 122.32C249.511 120.435 251.485 118.605 253.148 116.705L201.186 86.7047C199.524 88.6047 197.549 90.4347 195.271 92.3197L247.233 122.32Z" fill="#8BC5E4"/>
<path d="M253.148 161.845C251.528 164.07 248.61 166.985 244.67 169.96L192.708 139.96C196.648 136.985 199.567 134.07 201.186 131.845L253.148 161.845Z" fill="#8BC5E4"/>
<path d="M244.669 169.96C240.304 173.27 234.978 176.655 229.514 179.81L177.552 149.81C183.017 146.655 188.343 143.27 192.708 139.96L244.669 169.96Z" fill="#8BC5E4"/>
<path d="M229.514 179.81C224.82 182.52 219.858 184.815 215.692 186.3L163.73 156.3C167.896 154.815 172.858 152.52 177.552 149.81L229.514 179.81Z" fill="#8BC5E4"/>
<path d="M215.692 186.3C212.063 187.595 209.24 188.065 207.69 187.99L155.729 157.99C157.279 158.065 160.102 157.595 163.731 156.3L215.692 186.3Z" fill="#8BC5E4"/>
<path d="M140.08 181.895C142.132 181.86 144.583 181.215 147.424 180.155L95.4621 150.155C92.6215 151.215 90.1706 151.86 88.1182 151.895L140.08 181.895Z" fill="#8BC5E4"/>
<path d="M147.423 180.155C152.213 178.39 157.998 175.44 163.982 171.985L112.02 141.985C106.036 145.44 100.251 148.39 95.4619 150.155L147.423 180.155Z" fill="#8BC5E4"/>
<path d="M163.982 171.985C170.001 168.52 175.344 164.905 179.622 161.355L127.661 131.355C123.383 134.905 118.039 138.52 112.021 141.985L163.982 171.985Z" fill="#8BC5E4"/>
<path d="M179.622 161.355C181.9 159.47 183.883 157.635 185.546 155.735L133.584 125.735C131.921 127.635 129.938 129.47 127.661 131.355L179.622 161.355Z" fill="#8BC5E4"/>
<path d="M185.546 200.875C183.926 203.1 180.999 206.02 177.067 208.99L125.106 178.99C129.038 176.02 131.965 173.1 133.584 170.875L185.546 200.875Z" fill="#8BC5E4"/>
<path d="M177.068 208.99C172.694 212.305 167.377 215.685 161.912 218.84L109.951 188.84C115.415 185.685 120.733 182.305 125.106 178.99L177.068 208.99Z" fill="#8BC5E4"/>
<path d="M161.912 218.84C157.218 221.55 152.256 223.845 148.09 225.33L96.1289 195.33C100.295 193.845 105.257 191.55 109.951 188.84L161.912 218.84Z" fill="#8BC5E4"/>
<path d="M148.09 225.33C144.453 226.63 141.638 227.095 140.08 227.025L88.1182 197.025C89.677 197.095 92.4916 196.63 96.1289 195.33L148.09 225.33Z" fill="#8BC5E4"/>
<path d="M72.4776 220.925C74.5215 220.895 76.981 220.245 79.8129 219.19L27.8514 189.19C25.0194 190.245 22.5599 190.895 20.5161 190.925L72.4776 220.925Z" fill="#8BC5E4"/>
<path d="M79.8131 219.19C84.6109 217.42 90.3872 214.475 96.3628 211.025L44.4013 181.025C38.4257 184.475 32.6493 187.42 27.8516 189.19L79.8131 219.19Z" fill="#8BC5E4"/>
<path d="M96.3624 211.025C102.399 207.55 107.725 203.945 112.02 200.385L60.0586 170.385C55.7632 173.945 50.4371 177.55 44.4009 181.025L96.3624 211.025Z" fill="#8BC5E4"/>
<path d="M112.02 200.385C114.298 198.5 116.272 196.67 117.935 194.77L65.9736 164.77C64.3108 166.67 62.3363 168.5 60.0586 170.385L112.02 200.385Z" fill="#8BC5E4"/>
<path d="M117.935 239.91C116.324 242.13 113.389 245.055 109.465 248.02L57.5039 218.02C61.427 215.055 64.3628 212.13 65.9736 209.91L117.935 239.91Z" fill="#8BC5E4"/>
<path d="M109.466 248.02C105.092 251.335 99.7661 254.72 94.3101 257.87L42.3486 227.87C47.8046 224.72 53.1306 221.335 57.5041 218.02L109.466 248.02Z" fill="#8BC5E4"/>
<path d="M94.31 257.87C89.6162 260.58 84.6452 262.88 80.4796 264.365L28.5181 234.365C32.6837 232.88 37.6547 230.58 42.3485 227.87L94.31 257.87Z" fill="#8BC5E4"/>
<path d="M80.4797 264.365C76.8511 265.66 74.0365 266.125 72.4776 266.055L20.5161 236.055C22.075 236.125 24.8895 235.66 28.5182 234.365L80.4797 264.365Z" fill="#8BC5E4"/>
<path d="M231.584 120.695C236.433 117.895 241.603 115.35 245.76 113.9L193.799 83.8998C189.642 85.3498 184.472 87.8948 179.622 90.6948L231.584 120.695Z" fill="#8BC5E4"/>
<path d="M245.76 113.9C248.48 112.94 250.376 112.785 251.745 112.895L199.783 82.8948C198.415 82.7848 196.518 82.9398 193.799 83.8998L245.76 113.9Z" fill="#8BC5E4"/>
<path d="M251.745 112.895C250.472 114.44 248.792 116.23 246.384 118.23L194.423 88.2298C196.83 86.2298 198.51 84.4398 199.784 82.8948L251.745 112.895Z" fill="#8BC5E4"/>
<path d="M246.384 118.23C242.504 121.44 237.395 124.92 231.584 128.265L179.622 98.2647C185.433 94.9197 190.543 91.4397 194.422 88.2297L246.384 118.23Z" fill="#8BC5E4"/>
<path d="M231.584 128.265C225.747 131.635 220.144 134.47 215.736 136.095L163.774 106.095C168.182 104.47 173.785 101.635 179.622 98.2648L231.584 128.265Z" fill="#8BC5E4"/>
<path d="M215.736 136.095C212.583 137.275 210.427 137.5 208.911 137.355L156.95 107.355C158.465 107.5 160.622 107.275 163.774 106.095L215.736 136.095Z" fill="#8BC5E4"/>
<path d="M208.911 137.355C209.154 137.055 209.292 136.825 209.595 136.5L157.634 106.5C157.331 106.825 157.192 107.055 156.95 107.355L208.911 137.355Z" fill="#8BC5E4"/>
<path d="M209.595 136.5C210.938 135.045 212.843 133.335 215.103 131.57L163.142 101.57C160.881 103.335 158.976 105.045 157.634 106.5L209.595 136.5Z" fill="#8BC5E4"/>
<path d="M215.103 131.57C219.624 128.02 225.539 124.185 231.584 120.695L179.622 90.6947C173.577 94.1847 167.662 98.0197 163.142 101.57L215.103 131.57Z" fill="#8BC5E4"/>
<path d="M163.982 159.725C168.823 156.93 174.002 154.38 178.159 152.93L126.197 122.93C122.04 124.38 116.862 126.93 112.021 129.725L163.982 159.725Z" fill="#8BC5E4"/>
<path d="M178.159 152.93C180.878 151.97 182.775 151.815 184.143 151.925L132.181 121.925C130.813 121.815 128.917 121.97 126.197 122.93L178.159 152.93Z" fill="#8BC5E4"/>
<path d="M184.143 151.925C182.861 153.475 181.19 155.26 178.782 157.26L126.821 127.26C129.228 125.26 130.9 123.475 132.182 121.925L184.143 151.925Z" fill="#8BC5E4"/>
<path d="M178.782 157.26C174.903 160.47 169.793 163.95 163.982 167.295L112.021 137.295C117.832 133.95 122.941 130.47 126.821 127.26L178.782 157.26Z" fill="#8BC5E4"/>
<path d="M163.982 167.295C158.145 170.665 152.541 173.5 148.125 175.13L96.1631 145.13C100.58 143.5 106.183 140.665 112.02 137.295L163.982 167.295Z" fill="#8BC5E4"/>
<path d="M148.125 175.13C144.972 176.31 142.825 176.53 141.309 176.385L89.3477 146.385C90.8633 146.53 93.011 146.31 96.1633 145.13L148.125 175.13Z" fill="#8BC5E4"/>
<path d="M141.309 176.385C141.552 176.085 141.69 175.855 141.993 175.53L90.0319 145.53C89.7288 145.855 89.5902 146.085 89.3477 146.385L141.309 176.385Z" fill="#8BC5E4"/>
<path d="M141.993 175.53C143.327 174.08 145.241 172.365 147.501 170.6L95.5396 140.6C93.2793 142.365 91.3654 144.08 90.0317 145.53L141.993 175.53Z" fill="#8BC5E4"/>
<path d="M147.502 170.6C152.014 167.055 157.937 163.215 163.982 159.725L112.021 129.725C105.976 133.215 100.052 137.055 95.54 140.6L147.502 170.6Z" fill="#8BC5E4"/>
<path d="M96.3624 198.765C101.221 195.96 106.4 193.41 110.548 191.965L58.5864 161.965C54.4381 163.41 49.2593 165.96 44.4009 168.765L96.3624 198.765Z" fill="#8BC5E4"/>
<path d="M110.548 191.965C113.276 191 115.173 190.845 116.532 190.96L64.5706 160.96C63.211 160.845 61.3144 161 58.5864 161.965L110.548 191.965Z" fill="#8BC5E4"/>
<path d="M116.532 190.96C115.259 192.505 113.588 194.29 111.18 196.29L59.2188 166.29C61.6263 164.29 63.2978 162.505 64.5708 160.96L116.532 190.96Z" fill="#8BC5E4"/>
<path d="M111.18 196.29C107.3 199.5 102.191 202.98 96.3712 206.33L44.4097 176.33C50.2293 172.98 55.3389 169.5 59.2187 166.29L111.18 196.29Z" fill="#8BC5E4"/>
<path d="M96.3626 206.335C90.5429 209.695 84.9397 212.53 80.523 214.16L28.5615 184.16C32.9782 182.53 38.5814 179.695 44.4011 176.335L96.3626 206.335Z" fill="#8BC5E4"/>
<path d="M80.5227 214.16C77.3617 215.345 75.2226 215.56 73.7071 215.415L21.7456 185.415C23.2611 185.56 25.4002 185.345 28.5612 184.16L80.5227 214.16Z" fill="#8BC5E4"/>
<path d="M73.7071 215.415C73.9323 215.125 74.0881 214.885 74.3913 214.56L22.4297 184.56C22.1266 184.885 21.9707 185.125 21.7456 185.415L73.7071 215.415Z" fill="#8BC5E4"/>
<path d="M74.3913 214.56C75.7249 213.11 77.6302 211.4 79.8905 209.635L27.929 179.635C25.6687 181.4 23.7634 183.11 22.4297 184.56L74.3913 214.56Z" fill="#8BC5E4"/>
<path d="M79.8907 209.635C84.4027 206.09 90.335 202.245 96.3625 198.765L44.401 168.765C38.3735 172.245 32.4412 176.09 27.9292 179.635L79.8907 209.635Z" fill="#8BC5E4"/>
<path d="M263.194 36.9148C264.775 36.0018 266.188 35.8978 267.216 36.4778L215.255 6.47777C214.227 5.89777 212.814 6.00177 211.232 6.91477L263.194 36.9148Z" fill="#8BC5E4"/>
<path d="M267.215 36.4767C268.275 37.0737 268.925 38.3967 268.926 40.3087L216.965 10.3087C216.964 8.39668 216.314 7.07368 215.254 6.47668L267.215 36.4767Z" fill="#8BC5E4"/>
<path d="M268.927 215.875C268.927 219.645 266.406 224.04 263.194 225.895L211.232 195.895C214.445 194.04 216.965 189.645 216.965 185.875L268.927 215.875Z" fill="#8BC5E4"/>
<path d="M62.4316 341.805C60.8464 342.72 59.4304 342.826 58.4014 342.247L6.43994 312.247C7.46894 312.826 8.88494 312.72 10.4701 311.805L62.4316 341.805Z" fill="#8BC5E4"/>
<path d="M58.4025 342.248C57.3415 341.651 56.6915 340.328 56.6905 338.416L4.729 308.416C4.73 310.328 5.38 311.651 6.441 312.248L58.4025 342.248Z" fill="#8BC5E4"/>
<path d="M56.69 162.85C56.69 159.08 59.2101 154.685 62.4317 152.825L10.4702 122.825C7.24862 124.685 4.72852 129.08 4.72852 132.85L56.69 162.85Z" fill="#8BC5E4"/>
<path d="M214.393 127.36C219.312 123.5 225.392 119.58 231.584 116.005L179.622 86.0048C173.43 89.5798 167.351 93.4998 162.432 97.3598L214.393 127.36Z" fill="#8BC5E4"/>
<path d="M231.584 116.005C236.633 113.09 241.985 110.44 246.523 108.85L194.561 78.8497C190.023 80.4397 184.671 83.0897 179.622 86.0047L231.584 116.005Z" fill="#8BC5E4"/>
<path d="M246.523 108.85C250.378 107.508 253.733 106.634 255.845 107.843L203.884 77.8428C201.772 76.6338 198.417 77.5078 194.561 78.8498L246.523 108.85Z" fill="#8BC5E4"/>
<path d="M255.855 107.848C256.223 108.06 256.553 108.336 256.841 108.683L204.879 78.6828C204.591 78.3358 204.261 78.0598 203.893 77.8478L255.855 107.848Z" fill="#8BC5E4"/>
<path d="M256.846 108.69C257.054 108.95 257.166 109.325 257.166 109.785L205.205 79.7847C205.205 79.3247 205.092 78.9497 204.884 78.6897L256.846 108.69Z" fill="#8BC5E4"/>
<path d="M257.166 160.895C257.166 161.575 256.915 162.36 256.473 163.065L204.512 133.065C204.953 132.36 205.205 131.575 205.205 130.895L257.166 160.895Z" fill="#8BC5E4"/>
<path d="M256.473 163.065C253.884 167.19 249.978 170.685 245.284 174.235L193.323 144.235C198.017 140.685 201.922 137.19 204.512 133.065L256.473 163.065Z" fill="#8BC5E4"/>
<path d="M245.284 174.235C240.599 177.8 235.1 181.275 229.514 184.5L177.552 154.5C183.138 151.275 188.637 147.8 193.323 144.235L245.284 174.235Z" fill="#8BC5E4"/>
<path d="M229.514 184.5C224.543 187.37 219.39 189.755 214.947 191.34L162.986 161.34C167.429 159.755 172.581 157.37 177.552 154.5L229.514 184.5Z" fill="#8BC5E4"/>
<path d="M214.947 191.34C210.513 192.92 206.876 193.79 204.512 193.215L152.55 163.215C154.915 163.79 158.552 162.92 162.986 161.34L214.947 191.34Z" fill="#8BC5E4"/>
<path d="M204.512 193.215C204.421 193.192 204.336 193.157 204.258 193.111L152.297 163.111C152.375 163.157 152.46 163.192 152.55 163.215L204.512 193.215Z" fill="#8BC5E4"/>
<path d="M204.26 193.112C203.885 192.892 203.666 192.419 203.664 191.794L151.702 161.794C151.704 162.419 151.923 162.892 152.298 163.112L204.26 193.112Z" fill="#8BC5E4"/>
<path d="M203.663 140.675C203.663 140.315 203.732 139.925 203.862 139.54L151.901 109.54C151.771 109.925 151.702 110.315 151.702 110.675L203.663 140.675Z" fill="#8BC5E4"/>
<path d="M203.862 139.54C204.668 137.125 206.201 135.07 207.993 133.125L156.032 103.125C154.239 105.07 152.706 107.125 151.901 109.54L203.862 139.54Z" fill="#8BC5E4"/>
<path d="M207.993 133.125C209.786 131.18 211.942 129.285 214.393 127.36L162.432 97.3597C159.981 99.2847 157.824 101.18 156.032 103.125L207.993 133.125Z" fill="#8BC5E4"/>
<path d="M146.791 166.39C151.693 162.54 157.79 158.61 163.982 155.035L112.02 125.035C105.828 128.61 99.7313 132.54 94.8296 136.39L146.791 166.39Z" fill="#8BC5E4"/>
<path d="M163.982 155.035C169.022 152.125 174.383 149.47 178.921 147.88L126.959 117.88C122.421 119.47 117.061 122.125 112.021 125.035L163.982 155.035Z" fill="#8BC5E4"/>
<path d="M178.921 147.88C182.777 146.538 186.132 145.664 188.239 146.876L136.277 116.876C134.17 115.664 130.815 116.538 126.959 117.88L178.921 147.88Z" fill="#8BC5E4"/>
<path d="M188.247 146.881C188.614 147.094 188.943 147.37 189.23 147.718L137.268 117.718C136.981 117.37 136.652 117.094 136.285 116.881L188.247 146.881Z" fill="#8BC5E4"/>
<path d="M189.235 147.725C189.443 147.985 189.564 148.355 189.564 148.815L137.603 118.815C137.603 118.355 137.481 117.985 137.273 117.725L189.235 147.725Z" fill="#8BC5E4"/>
<path d="M189.564 199.925C189.564 200.605 189.305 201.405 188.863 202.1L136.901 172.1C137.343 171.405 137.603 170.605 137.603 169.925L189.564 199.925Z" fill="#8BC5E4"/>
<path d="M188.863 202.1C186.282 206.22 182.367 209.72 177.682 213.265L125.721 183.265C130.406 179.72 134.32 176.22 136.901 172.1L188.863 202.1Z" fill="#8BC5E4"/>
<path d="M177.682 213.265C172.989 216.835 167.498 220.305 161.912 223.53L109.951 193.53C115.536 190.305 121.027 186.835 125.721 183.265L177.682 213.265Z" fill="#8BC5E4"/>
<path d="M161.912 223.53C156.941 226.4 151.78 228.79 147.337 230.375L95.3755 200.375C99.8182 198.79 104.98 196.4 109.951 193.53L161.912 223.53Z" fill="#8BC5E4"/>
<path d="M147.337 230.375C142.903 231.955 139.265 232.825 136.91 232.245L84.9482 202.245C87.3038 202.825 90.9411 201.955 95.3752 200.375L147.337 230.375Z" fill="#8BC5E4"/>
<path d="M136.91 232.245C136.819 232.222 136.734 232.187 136.656 232.141L84.6948 202.141C84.7728 202.187 84.8578 202.222 84.9482 202.245L136.91 232.245Z" fill="#8BC5E4"/>
<path d="M136.658 232.142C136.283 231.922 136.064 231.449 136.062 230.824L84.1001 200.824C84.1021 201.449 84.3211 201.922 84.6961 202.142L136.658 232.142Z" fill="#8BC5E4"/>
<path d="M136.061 179.705C136.061 179.345 136.13 178.955 136.26 178.57L84.2988 148.57C84.1689 148.955 84.0996 149.345 84.0996 149.705L136.061 179.705Z" fill="#8BC5E4"/>
<path d="M136.26 178.57C137.066 176.155 138.599 174.1 140.391 172.155L88.4297 142.155C86.6371 144.1 85.1042 146.155 84.2988 148.57L136.26 178.57Z" fill="#8BC5E4"/>
<path d="M140.391 172.155C142.184 170.21 144.332 168.32 146.791 166.39L94.8297 136.39C92.3701 138.32 90.2224 140.21 88.4297 142.155L140.391 172.155Z" fill="#8BC5E4"/>
<path d="M79.189 205.42C84.0907 201.57 90.1789 197.645 96.3623 194.075L44.4008 164.075C38.2174 167.645 32.1292 171.57 27.2275 175.42L79.189 205.42Z" fill="#8BC5E4"/>
<path d="M96.3624 194.075C101.42 191.155 106.781 188.5 111.319 186.91L59.3572 156.91C54.8192 158.5 49.4585 161.155 44.4009 164.075L96.3624 194.075Z" fill="#8BC5E4"/>
<path d="M111.319 186.91C115.175 185.568 118.53 184.694 120.631 185.909L68.669 155.909C66.568 154.694 63.213 155.568 59.3574 156.91L111.319 186.91Z" fill="#8BC5E4"/>
<path d="M120.638 185.914C121.005 186.127 121.332 186.404 121.618 186.753L69.6568 156.753C69.3708 156.404 69.0438 156.127 68.6768 155.914L120.638 185.914Z" fill="#8BC5E4"/>
<path d="M121.625 186.76C121.841 187.015 121.954 187.39 121.962 187.845L70.0008 157.845C69.9922 157.39 69.8796 157.015 69.6631 156.76L121.625 186.76Z" fill="#8BC5E4"/>
<path d="M121.962 238.955C121.954 239.64 121.703 240.435 121.261 241.13L69.2993 211.13C69.741 210.435 69.9922 209.64 70.0008 208.955L121.962 238.955Z" fill="#8BC5E4"/>
<path d="M121.261 241.13C118.68 245.25 114.765 248.75 110.08 252.295L58.1187 222.295C62.8039 218.75 66.7184 215.25 69.2991 211.13L121.261 241.13Z" fill="#8BC5E4"/>
<path d="M110.081 252.295C105.378 255.87 99.896 259.335 94.3101 262.56L42.3486 232.56C47.9345 229.335 53.4164 225.87 58.1189 222.295L110.081 252.295Z" fill="#8BC5E4"/>
<path d="M94.3101 262.56C89.3392 265.43 84.169 267.825 79.7349 269.405L27.7734 239.405C32.2075 237.825 37.3776 235.43 42.3486 232.56L94.3101 262.56Z" fill="#8BC5E4"/>
<path d="M79.735 269.405C75.2923 270.99 71.655 271.86 69.2994 271.28L17.3379 241.28C19.6935 241.86 23.3308 240.99 27.7735 239.405L79.735 269.405Z" fill="#8BC5E4"/>
<path d="M69.2993 271.28C69.2165 271.257 69.1395 271.225 69.0675 271.184L17.106 241.184C17.178 241.225 17.255 241.257 17.3378 241.28L69.2993 271.28Z" fill="#8BC5E4"/>
<path d="M69.0685 271.185C68.6835 270.966 68.4615 270.491 68.4595 269.854L16.498 239.854C16.5 240.491 16.722 240.966 17.107 241.185L69.0685 271.185Z" fill="#8BC5E4"/>
<path d="M68.4591 218.735C68.4591 218.375 68.5284 217.985 68.6583 217.6L16.6967 187.6C16.5668 187.985 16.4976 188.375 16.4976 188.735L68.4591 218.735Z" fill="#8BC5E4"/>
<path d="M68.6584 217.6C69.4638 215.185 70.9966 213.13 72.7807 211.19L20.8191 181.19C19.0351 183.13 17.5022 185.185 16.6968 187.6L68.6584 217.6Z" fill="#8BC5E4"/>
<path d="M72.7809 211.19C74.5735 209.245 76.7299 207.35 79.1894 205.42L27.2279 175.42C24.7684 177.35 22.612 179.245 20.8193 181.19L72.7809 211.19Z" fill="#8BC5E4"/>
<path d="M231.584 116.005C225.392 119.58 219.312 123.5 214.393 127.36C211.942 129.285 209.786 131.18 207.993 133.125C206.201 135.07 204.668 137.125 203.862 139.54C203.732 139.925 203.663 140.315 203.663 140.675V191.785C203.663 192.545 203.984 193.08 204.512 193.215C206.876 193.79 210.513 192.92 214.947 191.34C219.39 189.755 224.543 187.37 229.514 184.5C235.1 181.275 240.599 177.8 245.284 174.235C249.978 170.685 253.884 167.19 256.473 163.065C256.915 162.36 257.166 161.575 257.166 160.895V109.785C257.166 109.325 257.054 108.95 256.846 108.69C254.906 106.34 251.061 107.27 246.523 108.85C241.985 110.44 236.633 113.09 231.584 116.005ZM231.584 120.695C236.434 117.895 241.604 115.35 245.761 113.9C248.48 112.94 250.377 112.785 251.745 112.895C250.472 114.44 248.792 116.23 246.384 118.23C242.504 121.44 237.395 124.92 231.584 128.265C225.747 131.635 220.144 134.47 215.735 136.095C212.583 137.275 210.427 137.5 208.911 137.355C209.154 137.055 209.292 136.825 209.595 136.5C210.938 135.045 212.843 133.335 215.103 131.57C219.624 128.02 225.539 124.185 231.584 120.695ZM207.69 142.86C209.734 142.83 212.185 142.185 215.025 141.125C219.814 139.36 225.6 136.41 231.584 132.955C237.603 129.49 242.946 125.875 247.233 122.32C249.51 120.435 251.485 118.605 253.148 116.705V161.845C251.528 164.07 248.61 166.985 244.669 169.96C240.305 173.27 234.979 176.655 229.514 179.81C224.82 182.52 219.858 184.815 215.692 186.3C212.064 187.595 209.24 188.065 207.69 187.99V142.86ZM163.982 155.035C157.79 158.61 151.693 162.54 146.791 166.39C144.332 168.32 142.184 170.21 140.391 172.155C138.599 174.1 137.066 176.155 136.26 178.57C136.13 178.955 136.061 179.345 136.061 179.705V230.815C136.061 231.575 136.382 232.11 136.91 232.245C139.265 232.825 142.903 231.955 147.337 230.375C151.78 228.79 156.941 226.4 161.912 223.53C167.498 220.305 172.988 216.835 177.682 213.265C182.368 209.72 186.282 206.22 188.863 202.1C189.304 201.405 189.564 200.605 189.564 199.925V148.815C189.564 148.355 189.443 147.985 189.235 147.725C187.304 145.37 183.459 146.3 178.921 147.88C174.383 149.47 169.022 152.125 163.982 155.035ZM163.982 159.725C168.823 156.93 174.002 154.38 178.159 152.93C180.878 151.97 182.775 151.815 184.143 151.925C182.861 153.475 181.19 155.26 178.782 157.26C174.902 160.47 169.793 163.95 163.982 167.295C158.145 170.665 152.542 173.5 148.125 175.13C144.973 176.31 142.825 176.53 141.309 176.385C141.552 176.085 141.69 175.855 141.993 175.53C143.327 174.08 145.241 172.365 147.501 170.6C152.013 167.055 157.937 163.215 163.982 159.725ZM140.08 181.895C142.132 181.86 144.583 181.215 147.423 180.155C152.213 178.39 157.998 175.44 163.982 171.985C170.001 168.52 175.344 164.905 179.622 161.355C181.9 159.47 183.883 157.635 185.546 155.735V200.875C183.926 203.1 180.999 206.02 177.067 208.99C172.694 212.305 167.377 215.685 161.912 218.84C157.218 221.55 152.256 223.845 148.09 225.33C144.453 226.63 141.638 227.095 140.08 227.025V181.895ZM96.3625 194.075C90.1791 197.645 84.091 201.57 79.1893 205.42C76.7298 207.35 74.5733 209.245 72.7807 211.19C70.9967 213.13 69.4638 215.185 68.6584 217.6C68.5285 217.985 68.4592 218.375 68.4592 218.735V269.845C68.4592 270.605 68.771 271.135 69.2993 271.28C71.6548 271.86 75.2921 270.99 79.7349 269.405C84.1689 267.825 89.3391 265.43 94.3101 262.56C99.8959 259.335 105.378 255.87 110.08 252.295C114.766 248.75 118.68 245.25 121.261 241.13C121.702 240.435 121.954 239.64 121.962 238.955V187.845C121.954 187.39 121.841 187.015 121.625 186.76C119.702 184.4 115.857 185.33 111.319 186.91C106.781 188.5 101.42 191.155 96.3625 194.075ZM96.3625 198.765C101.221 195.96 106.4 193.41 110.548 191.965C113.276 191 115.173 190.845 116.532 190.96C115.259 192.505 113.588 194.29 111.18 196.29C107.3 199.5 102.191 202.98 96.3712 206.33C96.3712 206.33 96.3712 206.33 96.3625 206.335C90.5429 209.695 84.9397 212.53 80.5229 214.16C77.362 215.345 75.2229 215.56 73.7073 215.415C73.9325 215.125 74.0884 214.885 74.3915 214.56C75.7252 213.11 77.6304 211.4 79.8907 209.635C84.4027 206.09 90.335 202.245 96.3625 198.765ZM72.4776 220.925C74.5214 220.895 76.9809 220.245 79.8128 219.19C84.6106 217.42 90.387 214.475 96.3625 211.025C102.399 207.55 107.725 203.945 112.02 200.385C114.298 198.5 116.272 196.67 117.935 194.77V239.91C116.324 242.13 113.389 245.055 109.466 248.02C105.092 251.335 99.766 254.72 94.3101 257.87C89.6162 260.58 84.6452 262.88 80.4796 264.365C76.851 265.66 74.0364 266.125 72.4776 266.055V220.925ZM62.4317 147.315C56.6726 150.64 51.9614 158.85 51.9614 165.58V341.14C51.9614 347.87 56.6726 350.64 62.4317 347.315L263.194 231.405C268.944 228.085 273.664 219.87 273.664 213.14V37.5797C273.664 30.8497 268.944 28.0847 263.194 31.4047L62.4317 147.315ZM62.4317 152.825L263.194 36.9147C266.407 35.0597 268.927 36.5447 268.927 40.3147V215.875C268.927 219.645 266.407 224.04 263.194 225.895L62.4317 341.805C59.2101 343.665 56.6899 342.18 56.6899 338.41V162.85C56.6899 159.08 59.2101 154.685 62.4317 152.825Z" fill="#8BC5E4"/>
<path d="M207.69 142.86C209.734 142.83 212.185 142.185 215.025 141.125C219.814 139.36 225.6 136.41 231.584 132.955C237.603 129.49 242.946 125.875 247.233 122.32C249.51 120.435 251.485 118.605 253.148 116.705V161.845C251.528 164.07 248.61 166.985 244.669 169.96C240.305 173.27 234.979 176.655 229.514 179.81C224.82 182.52 219.858 184.815 215.692 186.3C212.064 187.595 209.24 188.065 207.69 187.99V142.86Z" fill="white"/>
<path d="M140.08 181.895C142.132 181.86 144.583 181.215 147.423 180.155C152.213 178.39 157.998 175.44 163.982 171.985C170.001 168.52 175.344 164.905 179.622 161.355C181.9 159.47 183.883 157.635 185.546 155.735V200.875C183.926 203.1 180.999 206.02 177.067 208.99C172.694 212.305 167.377 215.685 161.912 218.84C157.218 221.55 152.256 223.845 148.09 225.33C144.453 226.63 141.638 227.095 140.08 227.025V181.895Z" fill="white"/>
<path d="M72.4776 220.925C74.5214 220.895 76.9809 220.245 79.8128 219.19C84.6106 217.42 90.387 214.475 96.3625 211.025C102.399 207.55 107.725 203.945 112.02 200.385C114.298 198.5 116.272 196.67 117.935 194.77V239.91C116.324 242.13 113.389 245.055 109.466 248.02C105.092 251.335 99.766 254.72 94.3101 257.87C89.6162 260.58 84.6452 262.88 80.4796 264.365C76.851 265.66 74.0364 266.125 72.4776 266.055V220.925Z" fill="white"/>
<path d="M231.584 120.695C236.434 117.895 241.604 115.35 245.761 113.9C248.48 112.94 250.377 112.785 251.745 112.895C250.472 114.44 248.792 116.23 246.384 118.23C242.504 121.44 237.395 124.92 231.584 128.265C225.747 131.635 220.144 134.47 215.735 136.095C212.583 137.275 210.427 137.5 208.911 137.355C209.154 137.055 209.292 136.825 209.595 136.5C210.938 135.045 212.843 133.335 215.103 131.57C219.624 128.02 225.539 124.185 231.584 120.695Z" fill="white"/>
<path d="M163.982 159.725C168.823 156.93 174.002 154.38 178.159 152.93C180.878 151.97 182.775 151.815 184.143 151.925C182.861 153.475 181.19 155.26 178.782 157.26C174.902 160.47 169.793 163.95 163.982 167.295C158.145 170.665 152.542 173.5 148.125 175.13C144.973 176.31 142.825 176.53 141.309 176.385C141.552 176.085 141.69 175.855 141.993 175.53C143.327 174.08 145.241 172.365 147.501 170.6C152.013 167.055 157.937 163.215 163.982 159.725Z" fill="white"/>
<path d="M96.3625 198.765C101.221 195.96 106.4 193.41 110.548 191.965C113.276 191 115.173 190.845 116.532 190.96C115.259 192.505 113.588 194.29 111.18 196.29C107.3 199.5 102.191 202.98 96.3712 206.33L96.3625 206.335C90.5429 209.695 84.9397 212.53 80.5229 214.16C77.362 215.345 75.2229 215.56 73.7073 215.415C73.9325 215.125 74.0884 214.885 74.3915 214.56C75.7252 213.11 77.6304 211.4 79.8907 209.635C84.4027 206.09 90.335 202.245 96.3625 198.765Z" fill="white"/>
<path fill-rule="evenodd" clip-rule="evenodd" d="M62.4317 152.825L263.194 36.9147C266.407 35.0597 268.927 36.5447 268.927 40.3147V215.875C268.927 219.645 266.407 224.04 263.194 225.895L62.4317 341.805C59.2101 343.665 56.6899 342.18 56.6899 338.41V162.85C56.6899 159.08 59.2101 154.685 62.4317 152.825ZM214.393 127.36C219.312 123.5 225.392 119.58 231.584 116.005C236.633 113.09 241.985 110.44 246.523 108.85C251.061 107.27 254.906 106.34 256.846 108.69C257.054 108.95 257.166 109.325 257.166 109.785V160.895C257.166 161.575 256.915 162.36 256.473 163.065C253.884 167.19 249.978 170.685 245.284 174.235C240.599 177.8 235.1 181.275 229.514 184.5C224.543 187.37 219.39 189.755 214.947 191.34C210.513 192.92 206.876 193.79 204.512 193.215C203.984 193.08 203.663 192.545 203.663 191.785V140.675C203.663 140.315 203.732 139.925 203.862 139.54C204.668 137.125 206.201 135.07 207.993 133.125C209.786 131.18 211.942 129.285 214.393 127.36ZM146.791 166.39C151.693 162.54 157.79 158.61 163.982 155.035C169.022 152.125 174.383 149.47 178.921 147.88C183.459 146.3 187.304 145.37 189.235 147.725C189.443 147.985 189.564 148.355 189.564 148.815V199.925C189.564 200.605 189.304 201.405 188.863 202.1C186.282 206.22 182.368 209.72 177.682 213.265C172.988 216.835 167.498 220.305 161.912 223.53C156.941 226.4 151.78 228.79 147.337 230.375C142.903 231.955 139.265 232.825 136.91 232.245C136.382 232.11 136.061 231.575 136.061 230.815V179.705C136.061 179.345 136.13 178.955 136.26 178.57C137.066 176.155 138.599 174.1 140.391 172.155C142.184 170.21 144.332 168.32 146.791 166.39ZM79.1893 205.42C84.091 201.57 90.1791 197.645 96.3625 194.075C101.42 191.155 106.781 188.5 111.319 186.91C115.857 185.33 119.702 184.4 121.625 186.76C121.841 187.015 121.954 187.39 121.962 187.845V238.955C121.954 239.64 121.702 240.435 121.261 241.13C118.68 245.25 114.766 248.75 110.08 252.295C105.378 255.87 99.8959 259.335 94.3101 262.56C89.3391 265.43 84.1689 267.825 79.7349 269.405C75.2921 270.99 71.6548 271.86 69.2993 271.28C68.771 271.135 68.4592 270.605 68.4592 269.845V218.735C68.4592 218.375 68.5285 217.985 68.6584 217.6C69.4638 215.185 70.9967 213.13 72.7807 211.19C74.5733 209.245 76.7298 207.35 79.1893 205.42Z" fill="white"/>
</svg>
