<svg width="260" height="245" viewBox="0 0 260 245" fill="none" xmlns="http://www.w3.org/2000/svg">
<path d="M94.6045 118.358L184.905 170.493L236.866 140.493L146.566 88.3577L94.6045 118.358Z" fill="#8BC5E4"/>
<path d="M184.905 170.493V191.193L236.867 161.193V140.493L184.905 170.493Z" fill="#8BC5E4"/>
<path d="M184.905 191.193L94.6045 139.058L146.566 109.058L236.866 161.193L184.905 191.193Z" fill="#8BC5E4"/>
<path d="M94.6045 139.058V118.358L146.566 88.3577V109.058L94.6045 139.058Z" fill="#8BC5E4"/>
<path d="M94.6045 118.358L146.566 88.3577L94.6045 118.358Z" fill="#8BC5E4"/>
<path d="M38.5557 98.9578L90.5172 68.9578L38.5557 98.9578Z" fill="#8BC5E4"/>
<path d="M55.3735 108.658L107.335 78.6577L55.3735 108.658Z" fill="#8BC5E4"/>
<path d="M29.3325 70.4026L81.294 40.4026L29.3325 70.4026Z" fill="#8BC5E4"/>
<path d="M64.6055 90.7676L116.567 60.7676L64.6055 90.7676Z" fill="#8BC5E4"/>
<path d="M47.0596 73.3276L42.5303 75.7126L94.4918 45.7126L99.0211 43.3276L47.0596 73.3276Z" fill="#8BC5E4"/>
<path d="M42.5303 75.7126L45.7259 77.5576L97.6875 47.5576L94.4918 45.7126L42.5303 75.7126Z" fill="#8BC5E4"/>
<path d="M45.7261 77.5576V88.1876L97.6877 58.1876V47.5576L45.7261 77.5576Z" fill="#8BC5E4"/>
<path d="M36.2257 93.4826L27.1758 88.2576L79.1373 58.2576L88.1873 63.4826L36.2257 93.4826Z" fill="#8BC5E4"/>
<path d="M27.1758 88.2576V84.5676L79.1373 54.5676V58.2576L27.1758 88.2576Z" fill="#8BC5E4"/>
<path d="M27.1759 84.5676L22.8457 87.2876L74.8073 57.2876L79.1374 54.5676L27.1759 84.5676Z" fill="#8BC5E4"/>
<path d="M22.8457 87.2876L27.1759 94.8076L79.1374 64.8076L74.8073 57.2876L22.8457 87.2876Z" fill="#8BC5E4"/>
<path d="M27.1758 94.8077V91.3777L79.1373 61.3777V64.8077L27.1758 94.8077Z" fill="#8BC5E4"/>
<path d="M27.1758 91.3777L36.0179 96.4827L87.9794 66.4827L79.1373 61.3777L27.1758 91.3777Z" fill="#8BC5E4"/>
<path d="M45.7261 112.608V123.238L97.6877 93.2377V82.6077L45.7261 112.608Z" fill="#8BC5E4"/>
<path d="M45.7259 123.238L42.5303 121.393L94.4918 91.3926L97.6875 93.2376L45.7259 123.238Z" fill="#8BC5E4"/>
<path d="M42.5303 121.393L47.0596 129.008L99.0211 99.0076L94.4918 91.3926L42.5303 121.393Z" fill="#8BC5E4"/>
<path d="M47.0596 129.008L51.4071 126.518L103.369 96.5176L99.0211 99.0076L47.0596 129.008Z" fill="#8BC5E4"/>
<path d="M51.4075 126.518L48.437 124.803L100.399 94.8027L103.369 96.5177L51.4075 126.518Z" fill="#8BC5E4"/>
<path d="M48.437 124.803V114.393L100.399 84.3926V94.8026L48.437 124.803Z" fill="#8BC5E4"/>
<path d="M57.9199 109.128L66.762 114.233L118.724 84.2327L109.881 79.1277L57.9199 109.128Z" fill="#8BC5E4"/>
<path d="M66.7617 114.233V117.663L118.723 87.6627V84.2327L66.7617 114.233Z" fill="#8BC5E4"/>
<path d="M66.7617 117.663L71.0918 115.143L123.053 85.1426L118.723 87.6626L66.7617 117.663Z" fill="#8BC5E4"/>
<path d="M71.0918 115.143L66.7617 107.423L118.723 77.4226L123.053 85.1426L71.0918 115.143Z" fill="#8BC5E4"/>
<path d="M66.7617 107.423V111.113L118.723 81.1126V77.4226L66.7617 107.423Z" fill="#8BC5E4"/>
<path d="M66.7619 111.113L57.7119 105.888L109.674 75.8877L118.723 81.1127L66.7619 111.113Z" fill="#8BC5E4"/>
<path d="M48.437 89.5126V79.1226L100.399 49.1226V59.5126L48.437 89.5126Z" fill="#8BC5E4"/>
<path d="M48.437 79.1226L51.4075 80.8376L103.369 50.8376L100.399 49.1226L48.437 79.1226Z" fill="#8BC5E4"/>
<path d="M51.4071 80.8376L47.0596 73.3276L99.0211 43.3276L103.369 50.8376L51.4071 80.8376Z" fill="#8BC5E4"/>
<path d="M47.0596 73.3276L99.0211 43.3276L47.0596 73.3276Z" fill="#8BC5E4"/>
<path d="M0 39.0876V109.648L51.9615 79.6476V9.08765L0 39.0876Z" fill="#8BC5E4"/>
<path d="M12.7568 131.733L195.09 237.003L247.051 207.003L64.7183 101.733L12.7568 131.733Z" fill="#8BC5E4"/>
<path d="M207.846 229.648V159.088L259.808 129.088V199.648L207.846 229.648Z" fill="#8BC5E4"/>
<path d="M195.09 137.003L12.7568 31.7327L64.7183 1.73267L247.051 107.003L195.09 137.003Z" fill="#8BC5E4"/>
<path d="M12.7568 31.7327L64.7183 1.73267L12.7568 31.7327Z" fill="#8BC5E4"/>
<path d="M12.7568 38.3726L195.09 143.643L247.051 113.643L64.7183 8.37256L12.7568 38.3726Z" fill="#8BC5E4"/>
<path d="M202.087 155.763V226.323L254.049 196.323V125.763L202.087 155.763Z" fill="#8BC5E4"/>
<path d="M195.09 230.363L12.7568 125.093L64.7183 95.0928L247.051 200.363L195.09 230.363Z" fill="#8BC5E4"/>
<path d="M5.75928 112.973V42.4126L57.7208 12.4126V82.9726L5.75928 112.973Z" fill="#8BC5E4"/>
<path d="M12.7568 38.3726L64.7183 8.37256L12.7568 38.3726Z" fill="#8BC5E4"/>
<path d="M12.7568 38.3726L195.09 143.643L247.051 113.643L64.7183 8.37256L12.7568 38.3726Z" fill="#8BC5E4"/>
<path d="M202.087 155.763V226.323L254.049 196.323V125.763L202.087 155.763Z" fill="#8BC5E4"/>
<path d="M195.09 230.363L12.7568 125.093L64.7183 95.0928L247.051 200.363L195.09 230.363Z" fill="#8BC5E4"/>
<path d="M5.75928 112.973V42.4126L57.7208 12.4126V82.9726L5.75928 112.973Z" fill="#8BC5E4"/>
<path d="M12.7568 38.3726L64.7183 8.37256L12.7568 38.3726Z" fill="#8BC5E4"/>
<path d="M184.905 170.493L94.6045 118.358L146.566 88.3577L236.866 140.493L184.905 170.493Z" fill="#8BC5E4"/>
<path d="M94.6045 118.358V139.058L146.566 109.058V88.3577L94.6045 118.358Z" fill="#8BC5E4"/>
<path d="M94.6045 139.058L184.905 191.193L236.866 161.193L146.566 109.058L94.6045 139.058Z" fill="#8BC5E4"/>
<path d="M184.905 191.193V170.493L236.867 140.493V161.193L184.905 191.193Z" fill="#8BC5E4"/>
<path d="M184.905 170.493L236.867 140.493L184.905 170.493Z" fill="#8BC5E4"/>
<path d="M42.5303 75.7126L47.0596 73.3276L99.0211 43.3276L94.4918 45.7126L42.5303 75.7126Z" fill="#8BC5E4"/>
<path d="M47.0596 73.3276L51.4071 80.8376L103.369 50.8376L99.0211 43.3276L47.0596 73.3276Z" fill="#8BC5E4"/>
<path d="M51.4075 80.8376L48.437 79.1226L100.399 49.1226L103.369 50.8376L51.4075 80.8376Z" fill="#8BC5E4"/>
<path d="M48.437 79.1226V89.5126L100.399 59.5126V49.1226L48.437 79.1226Z" fill="#8BC5E4"/>
<path d="M57.7119 105.888L66.7619 111.113L118.723 81.1127L109.674 75.8877L57.7119 105.888Z" fill="#8BC5E4"/>
<path d="M66.7617 111.113V107.423L118.723 77.4226V81.1126L66.7617 111.113Z" fill="#8BC5E4"/>
<path d="M66.7617 107.423L71.0918 115.143L123.053 85.1426L118.723 77.4226L66.7617 107.423Z" fill="#8BC5E4"/>
<path d="M71.0918 115.143L66.7617 117.663L118.723 87.6626L123.053 85.1426L71.0918 115.143Z" fill="#8BC5E4"/>
<path d="M66.7617 117.663V114.233L118.723 84.2327V87.6627L66.7617 117.663Z" fill="#8BC5E4"/>
<path d="M66.762 114.233L57.9199 109.128L109.881 79.1277L118.724 84.2327L66.762 114.233Z" fill="#8BC5E4"/>
<path d="M48.437 114.393V124.803L100.399 94.8026V84.3926L48.437 114.393Z" fill="#8BC5E4"/>
<path d="M48.437 124.803L51.4075 126.518L103.369 96.5177L100.399 94.8027L48.437 124.803Z" fill="#8BC5E4"/>
<path d="M51.4071 126.518L47.0596 129.008L99.0211 99.0076L103.369 96.5176L51.4071 126.518Z" fill="#8BC5E4"/>
<path d="M47.0596 129.008L42.5303 121.393L94.4918 91.3926L99.0211 99.0076L47.0596 129.008Z" fill="#8BC5E4"/>
<path d="M42.5303 121.393L45.7259 123.238L97.6875 93.2376L94.4918 91.3926L42.5303 121.393Z" fill="#8BC5E4"/>
<path d="M45.7261 123.238V112.608L97.6877 82.6077V93.2377L45.7261 123.238Z" fill="#8BC5E4"/>
<path d="M36.0179 96.4827L27.1758 91.3777L79.1373 61.3777L87.9794 66.4827L36.0179 96.4827Z" fill="#8BC5E4"/>
<path d="M27.1758 91.3777V94.8077L79.1373 64.8077V61.3777L27.1758 91.3777Z" fill="#8BC5E4"/>
<path d="M27.1759 94.8076L22.8457 87.2876L74.8073 57.2876L79.1374 64.8076L27.1759 94.8076Z" fill="#8BC5E4"/>
<path d="M22.8457 87.2876L27.1759 84.5676L79.1374 54.5676L74.8073 57.2876L22.8457 87.2876Z" fill="#8BC5E4"/>
<path d="M27.1758 84.5676V88.2576L79.1373 58.2576V54.5676L27.1758 84.5676Z" fill="#8BC5E4"/>
<path d="M27.1758 88.2576L36.2257 93.4826L88.1873 63.4826L79.1373 58.2576L27.1758 88.2576Z" fill="#8BC5E4"/>
<path d="M45.7261 88.1876V77.5576L97.6877 47.5576V58.1876L45.7261 88.1876Z" fill="#8BC5E4"/>
<path d="M45.7259 77.5576L42.5303 75.7126L94.4918 45.7126L97.6875 47.5576L45.7259 77.5576Z" fill="#8BC5E4"/>
<path d="M42.5303 75.7126L94.4918 45.7126L42.5303 75.7126Z" fill="#8BC5E4"/>
<path d="M64.6055 90.7676L116.567 60.7676L64.6055 90.7676Z" fill="#8BC5E4"/>
<path d="M55.3735 108.658L107.335 78.6577L55.3735 108.658Z" fill="#8BC5E4"/>
<path d="M38.5557 98.9578L90.5172 68.9578L38.5557 98.9578Z" fill="#8BC5E4"/>
<path d="M29.3325 70.4026L81.294 40.4026L29.3325 70.4026Z" fill="#8BC5E4"/>
<path d="M38.5557 98.9578C39.3697 102.778 41.6127 106.703 44.4966 109.348L96.4581 79.3478C93.5742 76.7028 91.3312 72.7778 90.5172 68.9578L38.5557 98.9578Z" fill="#8BC5E4"/>
<path d="M44.4964 109.348C44.33 109.418 44.164 109.487 43.999 109.555L95.9605 79.5547C96.1255 79.4867 96.2915 79.4177 96.4579 79.3477L44.4964 109.348Z" fill="#8BC5E4"/>
<path d="M43.9988 109.554C41.0318 110.767 38.2178 111.567 35.7998 111.942L87.7613 81.9417C90.1793 81.5667 92.9933 80.7667 95.9603 79.5537L43.9988 109.554Z" fill="#8BC5E4"/>
<path d="M35.7928 111.943C33.7837 112.263 32.0256 112.258 30.7612 111.988L82.7227 81.9876C83.9871 82.2576 85.7452 82.2626 87.7544 81.9426L35.7928 111.943Z" fill="#8BC5E4"/>
<path d="M30.7614 111.988C30.1379 111.858 29.6183 111.638 29.3325 111.463L81.294 81.4626C81.5798 81.6376 82.0994 81.8576 82.7229 81.9876L30.7614 111.988Z" fill="#8BC5E4"/>
<path d="M29.3325 111.463C29.0206 111.273 28.9774 111.188 28.9688 111.163L80.9302 81.1626C80.9388 81.1876 80.9821 81.2726 81.2939 81.4626L29.3325 111.463Z" fill="#8BC5E4"/>
<path d="M28.9684 111.163C28.9684 111.163 28.9077 111.078 28.9077 110.728L80.8693 80.7278C80.8693 81.0778 80.9299 81.1628 80.9299 81.1628L28.9684 111.163Z" fill="#8BC5E4"/>
<path d="M28.9079 110.728C28.8906 110.368 28.9772 109.838 29.1851 109.228L81.1466 79.2278C80.9387 79.8378 80.8521 80.3678 80.8695 80.7278L28.9079 110.728Z" fill="#8BC5E4"/>
<path d="M29.1851 109.228C29.6007 108.028 30.5014 106.538 31.8178 104.998L83.7793 74.9976C82.4629 76.5376 81.5623 78.0276 81.1466 79.2276L29.1851 109.228Z" fill="#8BC5E4"/>
<path d="M31.8179 104.998C33.3851 103.137 35.5421 101.168 38.1211 99.2737L90.0826 69.2737C87.5036 71.1677 85.3466 73.1367 83.7794 74.9977L31.8179 104.998Z" fill="#8BC5E4"/>
<path d="M38.1128 99.2786C38.2558 99.1736 38.4008 99.0686 38.5468 98.9636L90.5083 68.9636C90.3623 69.0686 90.2173 69.1736 90.0743 69.2786L38.1128 99.2786Z" fill="#8BC5E4"/>
<path d="M55.3735 108.658C58.1447 113.858 60.4484 118.608 62.1198 122.493L114.081 92.4927C112.41 88.6077 110.106 83.8577 107.335 78.6577L55.3735 108.658Z" fill="#8BC5E4"/>
<path d="M62.1201 122.493C63.4278 125.548 64.3285 128.078 64.7528 129.763L116.714 99.7627C116.29 98.0777 115.389 95.5477 114.082 92.4927L62.1201 122.493Z" fill="#8BC5E4"/>
<path d="M64.7529 129.763C64.9608 130.613 65.0387 131.238 65.0387 131.588L117 101.588C117 101.238 116.922 100.613 116.714 99.7627L64.7529 129.763Z" fill="#8BC5E4"/>
<path d="M65.0383 131.588C65.021 131.928 64.969 131.948 64.9604 131.943L116.922 101.943C116.931 101.948 116.983 101.928 117 101.588L65.0383 131.588Z" fill="#8BC5E4"/>
<path d="M64.9608 131.943C64.9612 131.948 64.9582 131.954 64.9492 131.957L116.911 101.957C116.92 101.954 116.923 101.948 116.922 101.943L64.9608 131.943Z" fill="#8BC5E4"/>
<path d="M64.9488 131.957C64.9228 131.968 64.8418 131.956 64.6128 131.832L116.574 101.832C116.803 101.956 116.884 101.968 116.91 101.957L64.9488 131.957Z" fill="#8BC5E4"/>
<path d="M64.6057 131.828C64.3026 131.663 63.8089 131.298 63.1768 130.703L115.138 100.703C115.77 101.298 116.264 101.663 116.567 101.828L64.6057 131.828Z" fill="#8BC5E4"/>
<path d="M63.1767 130.703C61.9123 129.513 60.1629 127.493 58.145 124.848L110.107 94.8477C112.124 97.4927 113.874 99.5127 115.138 100.703L63.1767 130.703Z" fill="#8BC5E4"/>
<path d="M58.1448 124.848C55.5901 121.513 52.5936 117.173 49.4326 112.198L101.394 82.1978C104.555 87.1728 107.552 91.5128 110.106 94.8478L58.1448 124.848Z" fill="#8BC5E4"/>
<path d="M49.4326 112.198C50.8519 112.53 52.1179 112.377 53.1339 111.791L105.095 81.7908C104.079 82.3768 102.813 82.5298 101.394 82.1978L49.4326 112.198Z" fill="#8BC5E4"/>
<path d="M53.1318 111.793C54.1788 111.19 54.9608 110.129 55.3708 108.666L107.332 78.6658C106.922 80.1288 106.14 81.1898 105.093 81.7928L53.1318 111.793Z" fill="#8BC5E4"/>
<path d="M29.3325 70.4026C29.6183 70.5476 30.1379 70.9276 30.7614 71.5276L82.7229 41.5276C82.0994 40.9276 81.5798 40.5476 81.294 40.4026L29.3325 70.4026Z" fill="#8BC5E4"/>
<path d="M30.7612 71.5276C32.0256 72.7076 33.7837 74.7426 35.7928 77.3726L87.7544 47.3726C85.7452 44.7426 83.9871 42.7076 82.7227 41.5276L30.7612 71.5276Z" fill="#8BC5E4"/>
<path d="M35.793 77.3726C38.3478 80.7176 41.3443 85.0576 44.5139 90.0376L96.4754 60.0376C93.3058 55.0576 90.3093 50.7176 87.7546 47.3726L35.793 77.3726Z" fill="#8BC5E4"/>
<path d="M44.5136 90.0377C43.0959 89.7047 41.8319 89.8537 40.8169 90.4337L92.7784 60.4337C93.7934 59.8537 95.0574 59.7047 96.4751 60.0377L44.5136 90.0377Z" fill="#8BC5E4"/>
<path d="M40.8069 90.4387C39.7579 91.0407 38.9759 92.1017 38.5659 93.5647L90.5274 63.5647C90.9374 62.1017 91.7194 61.0407 92.7684 60.4387L40.8069 90.4387Z" fill="#8BC5E4"/>
<path d="M38.5642 93.5728C35.7843 88.3678 33.472 83.6128 31.8179 79.7378L83.7794 49.7378C85.4335 53.6128 87.7458 58.3678 90.5257 63.5728L38.5642 93.5728Z" fill="#8BC5E4"/>
<path d="M31.8178 79.7378C30.5014 76.6778 29.6007 74.1478 29.1851 72.4578L81.1466 42.4578C81.5623 44.1478 82.4629 46.6778 83.7793 49.7378L31.8178 79.7378Z" fill="#8BC5E4"/>
<path d="M29.1851 72.4577C28.9772 71.6177 28.8906 70.9877 28.9079 70.6477L80.8695 40.6477C80.8521 40.9877 80.9387 41.6177 81.1466 42.4577L29.1851 72.4577Z" fill="#8BC5E4"/>
<path d="M28.9077 70.6477C28.9077 70.2977 28.9684 70.2727 28.9684 70.2627L80.9299 40.2627C80.9299 40.2727 80.8693 40.2977 80.8693 40.6477L28.9077 70.6477Z" fill="#8BC5E4"/>
<path d="M28.9688 70.2627C28.9774 70.2677 29.0206 70.2327 29.3325 70.4027L81.2939 40.4027C80.9821 40.2327 80.9388 40.2677 80.9302 40.2627L28.9688 70.2627Z" fill="#8BC5E4"/>
<path d="M64.6055 90.7676C64.9173 90.9576 64.9606 91.0426 64.9606 91.0426L116.922 61.0426C116.922 61.0426 116.879 60.9576 116.567 60.7676L64.6055 90.7676Z" fill="#8BC5E4"/>
<path d="M64.9604 91.0427C64.969 91.0577 65.021 91.1477 65.0383 91.5077L117 61.5077C116.983 61.1477 116.931 61.0577 116.922 61.0427L64.9604 91.0427Z" fill="#8BC5E4"/>
<path d="M65.0387 91.5076C65.0387 91.8576 64.9608 92.3926 64.7529 92.9926L116.714 62.9926C116.922 62.3926 117 61.8576 117 61.5076L65.0387 91.5076Z" fill="#8BC5E4"/>
<path d="M64.7528 92.9927C64.3285 94.1977 63.4278 95.6877 62.1201 97.2327L114.082 67.2327C115.389 65.6877 116.29 64.1977 116.714 62.9927L64.7528 92.9927Z" fill="#8BC5E4"/>
<path d="M62.1199 97.2327C60.5529 99.0937 58.3959 101.054 55.8169 102.956L107.778 72.9557C110.357 71.0537 112.514 69.0937 114.081 67.2327L62.1199 97.2327Z" fill="#8BC5E4"/>
<path d="M55.8202 102.953C55.6772 103.059 55.5322 103.165 55.3862 103.27L107.348 73.2696C107.494 73.1646 107.639 73.0586 107.782 72.9526L55.8202 102.953Z" fill="#8BC5E4"/>
<path d="M55.3822 103.273C54.5682 99.4527 52.3165 95.5227 49.4326 92.8777L101.394 62.8777C104.278 65.5227 106.53 69.4527 107.344 73.2727L55.3822 103.273Z" fill="#8BC5E4"/>
<path d="M49.4326 92.8776C49.5989 92.8076 49.7659 92.7386 49.9309 92.6716L101.892 62.6716C101.727 62.7386 101.56 62.8076 101.394 62.8776L49.4326 92.8776Z" fill="#8BC5E4"/>
<path d="M49.9312 92.6716C52.9052 91.4626 55.7192 90.6536 58.1372 90.2786L110.099 60.2786C107.681 60.6536 104.867 61.4626 101.893 62.6716L49.9312 92.6716Z" fill="#8BC5E4"/>
<path d="M58.145 90.2777C60.1629 89.9727 61.9123 89.9627 63.1767 90.2427L115.138 60.2427C113.874 59.9627 112.124 59.9727 110.107 60.2777L58.145 90.2777Z" fill="#8BC5E4"/>
<path d="M63.1768 90.2427C63.8089 90.3677 64.3026 90.5727 64.6057 90.7677L116.567 60.7677C116.264 60.5727 115.77 60.3677 115.138 60.2427L63.1768 90.2427Z" fill="#8BC5E4"/>
<path d="M45.726 88.1878C42.6517 83.3628 39.6985 79.1078 37.1177 75.7278L89.0793 45.7278C91.66 49.1078 94.6132 53.3628 97.6876 58.1878L45.726 88.1878Z" fill="#8BC5E4"/>
<path d="M37.1177 75.7278C34.996 72.9428 33.1167 70.7378 31.5059 69.2278L83.4674 39.2278C85.0782 40.7378 86.9575 42.9428 89.0793 45.7278L37.1177 75.7278Z" fill="#8BC5E4"/>
<path d="M31.5059 69.2277C30.7005 68.4627 29.9557 67.8727 29.2456 67.4827L81.2071 37.4827C81.9172 37.8727 82.662 38.4627 83.4674 39.2277L31.5059 69.2277Z" fill="#8BC5E4"/>
<path d="M29.2456 67.4827C28.5559 67.1127 27.8579 66.9577 27.3169 67.2027L79.2784 37.2027C79.8194 36.9577 80.5174 37.1127 81.2071 37.4827L29.2456 67.4827Z" fill="#8BC5E4"/>
<path d="M27.3228 67.1997C27.2868 67.2157 27.2518 67.2337 27.2168 67.2537L79.1783 37.2537C79.2133 37.2337 79.2483 37.2157 79.2843 37.1997L27.3228 67.1997Z" fill="#8BC5E4"/>
<path d="M27.2106 67.2576C27.1721 67.2806 27.1351 67.3056 27.1001 67.3326L79.0616 37.3326C79.0966 37.3056 79.1336 37.2806 79.1721 37.2576L27.2106 67.2576Z" fill="#8BC5E4"/>
<path d="M27.1009 67.3328C26.6369 67.6878 26.4479 68.3898 26.4229 69.1528L78.3843 39.1528C78.4094 38.3898 78.5984 37.6878 79.0624 37.3328L27.1009 67.3328Z" fill="#8BC5E4"/>
<path d="M26.4222 69.1626C26.4136 69.9876 26.5608 70.9226 26.8379 72.0026L78.7995 42.0026C78.5223 40.9226 78.3751 39.9876 78.3838 39.1626L26.4222 69.1626Z" fill="#8BC5E4"/>
<path d="M26.8379 72.0027C27.3662 74.1577 28.3708 76.8877 29.7391 80.1077L81.7006 50.1077C80.3323 46.8877 79.3277 44.1577 78.7995 42.0027L26.8379 72.0027Z" fill="#8BC5E4"/>
<path d="M29.7393 80.1077C31.3934 83.9627 33.6018 88.5277 36.2258 93.4827L88.1874 63.4827C85.5633 58.5277 83.3549 53.9627 81.7008 50.1077L29.7393 80.1077Z" fill="#8BC5E4"/>
<path d="M36.0179 96.4827C35.8799 96.5867 35.7429 96.6907 35.6069 96.7947L87.5684 66.7947C87.7044 66.6907 87.8414 66.5867 87.9794 66.4827L36.0179 96.4827Z" fill="#8BC5E4"/>
<path d="M35.6071 96.7947C33.2601 98.5937 31.2661 100.437 29.7441 102.222L81.7056 72.2217C83.2276 70.4367 85.2216 68.5937 87.5686 66.7947L35.6071 96.7947Z" fill="#8BC5E4"/>
<path d="M29.7391 102.228C28.3708 103.868 27.3662 105.428 26.8379 106.973L78.7995 76.9728C79.3277 75.4278 80.3323 73.8678 81.7006 72.2278L29.7391 102.228Z" fill="#8BC5E4"/>
<path d="M26.8379 106.973C26.5781 107.753 26.4136 108.508 26.4222 109.343L78.3838 79.3427C78.3751 78.5077 78.5396 77.7527 78.7995 76.9727L26.8379 106.973Z" fill="#8BC5E4"/>
<path d="M26.4224 109.343C26.4484 110.198 26.6649 111.203 27.2105 112.158L79.172 82.1578C78.6264 81.2028 78.4099 80.1978 78.384 79.3428L26.4224 109.343Z" fill="#8BC5E4"/>
<path d="M27.2104 112.158C27.7647 113.118 28.5095 113.818 29.2456 114.283L81.2071 84.2827C80.4711 83.8177 79.7262 83.1177 79.1719 82.1577L27.2104 112.158Z" fill="#8BC5E4"/>
<path d="M29.2456 114.283C29.9557 114.713 30.7005 114.963 31.5059 115.148L83.4674 85.1477C82.662 84.9627 81.9172 84.7127 81.2071 84.2827L29.2456 114.283Z" fill="#8BC5E4"/>
<path d="M31.5059 115.148C33.1167 115.488 34.996 115.453 37.1177 115.128L89.0793 85.1277C86.9575 85.4527 85.0782 85.4877 83.4674 85.1477L31.5059 115.148Z" fill="#8BC5E4"/>
<path d="M37.1177 115.128C39.5569 114.75 42.3299 113.974 45.2229 112.813L97.1844 82.8127C94.2914 83.9737 91.5184 84.7497 89.0793 85.1277L37.1177 115.128Z" fill="#8BC5E4"/>
<path d="M45.2319 112.81C45.3929 112.745 45.5549 112.679 45.7169 112.612L97.6784 82.6116C97.5164 82.6786 97.3544 82.7446 97.1934 82.8096L45.2319 112.81Z" fill="#8BC5E4"/>
<path d="M48.437 114.393C51.4421 119.078 54.2913 123.203 56.8201 126.503L108.782 96.5026C106.253 93.2026 103.404 89.0776 100.399 84.3926L48.437 114.393Z" fill="#8BC5E4"/>
<path d="M56.8198 126.503C58.9416 129.288 60.8209 131.483 62.423 132.998L114.385 102.998C112.782 101.483 110.903 99.2877 108.781 96.5027L56.8198 126.503Z" fill="#8BC5E4"/>
<path d="M62.4233 132.998C63.2287 133.763 63.9822 134.358 64.701 134.753L116.663 104.753C115.944 104.358 115.19 103.763 114.385 102.998L62.4233 132.998Z" fill="#8BC5E4"/>
<path d="M64.7007 134.753C65.3669 135.1 66.0779 135.271 66.6279 135.031L118.589 105.031C118.039 105.271 117.328 105.1 116.662 104.753L64.7007 134.753Z" fill="#8BC5E4"/>
<path d="M66.6211 135.035C66.6581 135.019 66.6941 135.001 66.7291 134.982L118.691 104.982C118.656 105.001 118.62 105.019 118.583 105.035L66.6211 135.035Z" fill="#8BC5E4"/>
<path d="M66.7358 134.978C66.7739 134.955 66.8099 134.929 66.8439 134.902L118.805 104.902C118.771 104.929 118.735 104.955 118.697 104.978L66.7358 134.978Z" fill="#8BC5E4"/>
<path d="M66.8442 134.902C67.3012 134.543 67.4892 133.841 67.5062 133.073L119.468 103.073C119.451 103.841 119.263 104.543 118.806 104.902L66.8442 134.902Z" fill="#8BC5E4"/>
<path d="M67.5066 133.063C67.5239 132.243 67.3594 131.298 67.0996 130.218L119.061 100.218C119.321 101.298 119.485 102.243 119.468 103.063L67.5066 133.063Z" fill="#8BC5E4"/>
<path d="M67.0998 130.218C66.5715 128.063 65.5669 125.343 64.1812 122.113L116.143 92.1128C117.528 95.3428 118.533 98.0628 119.061 100.218L67.0998 130.218Z" fill="#8BC5E4"/>
<path d="M64.1812 122.113C62.5878 118.373 60.4487 113.948 57.9199 109.128L109.881 79.1277C112.41 83.9477 114.549 88.3727 116.143 92.1127L64.1812 122.113Z" fill="#8BC5E4"/>
<path d="M57.7119 105.888C57.855 105.783 57.998 105.677 58.139 105.571L110.101 75.5706C109.96 75.6766 109.817 75.7826 109.674 75.8876L57.7119 105.888Z" fill="#8BC5E4"/>
<path d="M58.1382 105.572C60.5732 103.745 62.6292 101.845 64.1762 99.9988L116.138 69.9988C114.591 71.8448 112.535 73.7448 110.1 75.5718L58.1382 105.572Z" fill="#8BC5E4"/>
<path d="M64.1812 99.9926C65.5669 98.3626 66.5715 96.7926 67.0998 95.2576L119.061 65.2576C118.533 66.7926 117.528 68.3626 116.143 69.9926L64.1812 99.9926Z" fill="#8BC5E4"/>
<path d="M67.0996 95.2576C67.3594 94.4776 67.5239 93.7226 67.5066 92.8826L119.468 62.8826C119.485 63.7226 119.321 64.4776 119.061 65.2576L67.0996 95.2576Z" fill="#8BC5E4"/>
<path d="M67.5066 92.8826C67.4893 92.0326 67.2728 91.0276 66.7358 90.0776L118.697 60.0776C119.234 61.0276 119.451 62.0326 119.468 62.8826L67.5066 92.8826Z" fill="#8BC5E4"/>
<path d="M66.7358 90.0776C66.1729 89.0926 65.4108 88.3926 64.7007 87.9526L116.662 57.9526C117.372 58.3926 118.134 59.0926 118.697 60.0776L66.7358 90.0776Z" fill="#8BC5E4"/>
<path d="M64.701 87.9526C63.9648 87.5076 63.2287 87.2426 62.4233 87.0776L114.385 57.0776C115.19 57.2426 115.926 57.5076 116.663 57.9526L64.701 87.9526Z" fill="#8BC5E4"/>
<path d="M62.423 87.0777C60.8209 86.7327 58.9416 86.7677 56.8198 87.1027L108.781 57.1027C110.903 56.7677 112.782 56.7327 114.385 57.0777L62.423 87.0777Z" fill="#8BC5E4"/>
<path d="M56.8201 87.1028C54.4292 87.4618 51.7532 88.2278 48.9282 89.3198L100.89 59.3198C103.715 58.2278 106.391 57.4618 108.782 57.1028L56.8201 87.1028Z" fill="#8BC5E4"/>
<path d="M48.9188 89.3237C48.7618 89.3847 48.6038 89.4467 48.4458 89.5097L100.407 59.5097C100.565 59.4467 100.723 59.3847 100.88 59.3237L48.9188 89.3237Z" fill="#8BC5E4"/>
<path d="M12.7567 31.7328C9.24514 29.7048 6.05614 29.5188 3.74414 30.8518L55.7056 0.851795C58.0176 -0.481205 61.2066 -0.295205 64.7182 1.73279L12.7567 31.7328Z" fill="#8BC5E4"/>
<path d="M3.746 30.8506C1.435 32.1826 0.002 35.0336 0 39.0816L51.9615 9.08159C51.9635 5.03359 53.3965 2.18259 55.7075 0.850586L3.746 30.8506Z" fill="#8BC5E4"/>
<path d="M0 109.648C0 117.748 5.7331 127.678 12.7566 131.733L64.7181 101.733C57.6946 97.6777 51.9615 87.7477 51.9615 79.6477L0 109.648Z" fill="#8BC5E4"/>
<path d="M195.089 237.003C198.601 239.031 201.79 239.217 204.102 237.884L256.063 207.884C253.751 209.217 250.562 209.031 247.051 207.003L195.089 237.003Z" fill="#8BC5E4"/>
<path d="M204.1 237.885C206.411 236.553 207.844 233.702 207.846 229.654L259.808 199.654C259.806 203.702 258.373 206.553 256.062 207.885L204.1 237.885Z" fill="#8BC5E4"/>
<path d="M207.846 159.088C207.846 150.988 202.113 141.058 195.089 137.003L247.051 107.003C254.074 111.058 259.807 120.988 259.807 129.088L207.846 159.088Z" fill="#8BC5E4"/>
<path d="M195.089 143.643C199.021 145.913 202.087 151.223 202.087 155.763L254.048 125.763C254.048 121.223 250.983 115.913 247.051 113.643L195.089 143.643Z" fill="#8BC5E4"/>
<path d="M202.087 226.323C202.087 228.593 201.321 230.171 200.063 230.897L252.024 200.897C253.282 200.171 254.048 198.593 254.049 196.323L202.087 226.323Z" fill="#8BC5E4"/>
<path d="M200.064 230.896C198.808 231.622 197.06 231.498 195.095 230.366L247.057 200.366C249.022 201.498 250.77 201.622 252.026 200.896L200.064 230.896Z" fill="#8BC5E4"/>
<path d="M12.7568 125.093C8.82498 122.823 5.75928 117.513 5.75928 112.973L57.7208 82.9727C57.7208 87.5127 60.7865 92.8227 64.7183 95.0927L12.7568 125.093Z" fill="#8BC5E4"/>
<path d="M5.75928 42.4126C5.75918 40.1426 6.52618 38.5656 7.78318 37.8386L59.7447 7.83862C58.4877 8.56562 57.7207 10.1426 57.7208 12.4126L5.75928 42.4126Z" fill="#8BC5E4"/>
<path d="M7.78223 37.8397C9.03823 37.1137 10.7872 37.2377 12.7512 38.3697L64.7127 8.36967C62.7487 7.23767 60.9997 7.11367 59.7437 7.83967L7.78223 37.8397Z" fill="#8BC5E4"/>
<path d="M195.089 143.643C199.021 145.913 202.087 151.223 202.087 155.763L254.048 125.763C254.048 121.223 250.983 115.913 247.051 113.643L195.089 143.643Z" fill="#8BC5E4"/>
<path d="M202.087 226.323C202.087 228.593 201.321 230.171 200.063 230.897L252.024 200.897C253.282 200.171 254.048 198.593 254.049 196.323L202.087 226.323Z" fill="#8BC5E4"/>
<path d="M200.064 230.896C198.808 231.622 197.06 231.498 195.095 230.366L247.057 200.366C249.022 201.498 250.77 201.622 252.026 200.896L200.064 230.896Z" fill="#8BC5E4"/>
<path d="M12.7568 125.093C8.82498 122.823 5.75928 117.513 5.75928 112.973L57.7208 82.9727C57.7208 87.5127 60.7865 92.8227 64.7183 95.0927L12.7568 125.093Z" fill="#8BC5E4"/>
<path d="M5.75928 42.4126C5.75918 40.1426 6.52618 38.5656 7.78318 37.8386L59.7447 7.83862C58.4877 8.56562 57.7207 10.1426 57.7208 12.4126L5.75928 42.4126Z" fill="#8BC5E4"/>
<path d="M7.78223 37.8397C9.03823 37.1137 10.7872 37.2377 12.7512 38.3697L64.7127 8.36967C62.7487 7.23767 60.9997 7.11367 59.7437 7.83967L7.78223 37.8397Z" fill="#8BC5E4"/>
<path d="M48.437 89.5126C48.6012 89.4476 48.7652 89.3826 48.9282 89.3196L100.89 59.3196C100.727 59.3826 100.563 59.4476 100.399 59.5126L48.437 89.5126Z" fill="#8BC5E4"/>
<path d="M48.9282 89.3198C51.7492 88.2288 54.4242 87.4638 56.8132 87.1038L108.775 57.1038C106.386 57.4638 103.711 58.2288 100.89 59.3198L48.9282 89.3198Z" fill="#8BC5E4"/>
<path d="M56.8198 87.1027C58.9416 86.7677 60.8209 86.7327 62.423 87.0777L114.385 57.0777C112.782 56.7327 110.903 56.7677 108.781 57.1027L56.8198 87.1027Z" fill="#8BC5E4"/>
<path d="M62.4233 87.0776C63.2287 87.2426 63.9648 87.5076 64.701 87.9526L116.663 57.9526C115.926 57.5076 115.19 57.2426 114.385 57.0776L62.4233 87.0776Z" fill="#8BC5E4"/>
<path d="M64.7007 87.9526C65.4108 88.3926 66.1729 89.0926 66.7358 90.0776L118.697 60.0776C118.134 59.0926 117.372 58.3926 116.662 57.9526L64.7007 87.9526Z" fill="#8BC5E4"/>
<path d="M66.7358 90.0776C67.2728 91.0276 67.4893 92.0326 67.5066 92.8826L119.468 62.8826C119.451 62.0326 119.234 61.0276 118.697 60.0776L66.7358 90.0776Z" fill="#8BC5E4"/>
<path d="M67.5066 92.8826C67.5239 93.7226 67.3594 94.4776 67.0996 95.2576L119.061 65.2576C119.321 64.4776 119.485 63.7226 119.468 62.8826L67.5066 92.8826Z" fill="#8BC5E4"/>
<path d="M67.0998 95.2576C66.5715 96.7926 65.5669 98.3626 64.1812 99.9926L116.143 69.9926C117.528 68.3626 118.533 66.7926 119.061 65.2576L67.0998 95.2576Z" fill="#8BC5E4"/>
<path d="M64.1813 99.9927C62.6342 101.841 60.5762 103.743 58.1392 105.571L110.101 75.5707C112.538 73.7427 114.596 71.8407 116.143 69.9927L64.1813 99.9927Z" fill="#8BC5E4"/>
<path d="M58.1312 105.577C57.9952 105.679 57.8582 105.781 57.7202 105.882L109.682 75.8817C109.82 75.7807 109.957 75.6787 110.093 75.5767L58.1312 105.577Z" fill="#8BC5E4"/>
<path d="M57.9199 109.128C60.4487 113.948 62.5878 118.373 64.1812 122.113L116.143 92.1127C114.549 88.3727 112.41 83.9477 109.881 79.1277L57.9199 109.128Z" fill="#8BC5E4"/>
<path d="M64.1812 122.113C65.5669 125.343 66.5715 128.063 67.0998 130.218L119.061 100.218C118.533 98.0628 117.528 95.3428 116.143 92.1128L64.1812 122.113Z" fill="#8BC5E4"/>
<path d="M67.0996 130.218C67.3594 131.298 67.5239 132.243 67.5066 133.063L119.468 103.063C119.485 102.243 119.321 101.298 119.061 100.218L67.0996 130.218Z" fill="#8BC5E4"/>
<path d="M67.5069 133.063C67.4912 133.835 67.3022 134.541 66.8442 134.902L118.806 104.902C119.264 104.541 119.453 103.835 119.468 103.063L67.5069 133.063Z" fill="#8BC5E4"/>
<path d="M66.8382 134.907C66.8072 134.931 66.7752 134.953 66.7422 134.974L118.704 104.974C118.737 104.953 118.769 104.931 118.8 104.907L66.8382 134.907Z" fill="#8BC5E4"/>
<path d="M66.7358 134.978C66.7009 134.998 66.6649 135.015 66.6279 135.031L118.589 105.031C118.626 105.015 118.662 104.998 118.697 104.978L66.7358 134.978Z" fill="#8BC5E4"/>
<path d="M66.628 135.031C66.08 135.27 65.373 135.101 64.709 134.757L116.67 104.757C117.334 105.101 118.041 105.27 118.589 105.031L66.628 135.031Z" fill="#8BC5E4"/>
<path d="M64.701 134.753C63.9822 134.358 63.2287 133.763 62.4233 132.998L114.385 102.998C115.19 103.763 115.944 104.358 116.663 104.753L64.701 134.753Z" fill="#8BC5E4"/>
<path d="M62.423 132.998C60.8209 131.483 58.9416 129.288 56.8198 126.503L108.781 96.5027C110.903 99.2877 112.782 101.483 114.385 102.998L62.423 132.998Z" fill="#8BC5E4"/>
<path d="M56.8201 126.503C54.2913 123.203 51.4421 119.078 48.437 114.393L100.399 84.3926C103.404 89.0776 106.253 93.2026 108.782 96.5026L56.8201 126.503Z" fill="#8BC5E4"/>
<path d="M45.7262 112.608C45.5581 112.678 45.3901 112.746 45.2231 112.813L97.1846 82.8127C97.3516 82.7457 97.5196 82.6777 97.6878 82.6077L45.7262 112.608Z" fill="#8BC5E4"/>
<path d="M45.223 112.813C42.333 113.973 39.563 114.748 37.125 115.127L89.0865 85.1267C91.5245 84.7477 94.2945 83.9727 97.1845 82.8127L45.223 112.813Z" fill="#8BC5E4"/>
<path d="M37.1177 115.128C34.996 115.453 33.1167 115.488 31.5059 115.148L83.4674 85.1477C85.0782 85.4877 86.9575 85.4527 89.0793 85.1277L37.1177 115.128Z" fill="#8BC5E4"/>
<path d="M31.5059 115.148C30.7005 114.963 29.9557 114.713 29.2456 114.283L81.2071 84.2827C81.9172 84.7127 82.662 84.9627 83.4674 85.1477L31.5059 115.148Z" fill="#8BC5E4"/>
<path d="M29.2456 114.283C28.5095 113.818 27.7647 113.118 27.2104 112.158L79.1719 82.1577C79.7262 83.1177 80.4711 83.8177 81.2071 84.2827L29.2456 114.283Z" fill="#8BC5E4"/>
<path d="M27.2105 112.158C26.6649 111.203 26.4484 110.198 26.4224 109.343L78.384 79.3428C78.4099 80.1978 78.6264 81.2028 79.172 82.1578L27.2105 112.158Z" fill="#8BC5E4"/>
<path d="M26.4222 109.343C26.4136 108.508 26.5781 107.753 26.8379 106.973L78.7995 76.9727C78.5396 77.7527 78.3751 78.5077 78.3838 79.3427L26.4222 109.343Z" fill="#8BC5E4"/>
<path d="M26.8379 106.973C27.3662 105.428 28.3708 103.868 29.7391 102.228L81.7006 72.2278C80.3323 73.8678 79.3277 75.4278 78.7995 76.9728L26.8379 106.973Z" fill="#8BC5E4"/>
<path d="M29.7393 102.228C31.262 100.441 33.257 98.5967 35.607 96.7947L87.5685 66.7947C85.2185 68.5967 83.2235 70.4407 81.7008 72.2277L29.7393 102.228Z" fill="#8BC5E4"/>
<path d="M35.6152 96.7898C35.7462 96.6888 35.8782 96.5888 36.0112 96.4888L87.9727 66.4888C87.8397 66.5888 87.7077 66.6888 87.5767 66.7898L35.6152 96.7898Z" fill="#8BC5E4"/>
<path d="M36.2258 93.4827C33.6018 88.5277 31.3934 83.9627 29.7393 80.1077L81.7008 50.1077C83.3549 53.9627 85.5633 58.5277 88.1874 63.4827L36.2258 93.4827Z" fill="#8BC5E4"/>
<path d="M29.7391 80.1077C28.3708 76.8877 27.3662 74.1577 26.8379 72.0027L78.7995 42.0027C79.3277 44.1577 80.3323 46.8877 81.7006 50.1077L29.7391 80.1077Z" fill="#8BC5E4"/>
<path d="M26.8379 72.0026C26.5608 70.9226 26.4136 69.9876 26.4222 69.1626L78.3838 39.1626C78.3751 39.9876 78.5223 40.9226 78.7995 42.0026L26.8379 72.0026Z" fill="#8BC5E4"/>
<path d="M26.4224 69.1628C26.447 68.3958 26.635 67.6898 27.1 67.3328L79.0615 37.3328C78.5965 37.6898 78.4085 38.3958 78.384 39.1628L26.4224 69.1628Z" fill="#8BC5E4"/>
<path d="M27.106 67.3277C27.138 67.3047 27.17 67.2817 27.204 67.2617L79.1655 37.2617C79.1315 37.2817 79.0995 37.3047 79.0675 37.3277L27.106 67.3277Z" fill="#8BC5E4"/>
<path d="M27.2104 67.2576C27.2449 67.2376 27.2809 67.2196 27.3169 67.2026L79.2785 37.2026C79.2425 37.2196 79.2064 37.2376 79.1719 37.2576L27.2104 67.2576Z" fill="#8BC5E4"/>
<path d="M27.3159 67.2036C27.8559 66.9576 28.5499 67.1106 29.2369 67.4776L81.1984 37.4776C80.5114 37.1106 79.8174 36.9576 79.2774 37.2036L27.3159 67.2036Z" fill="#8BC5E4"/>
<path d="M29.2456 67.4827C29.9557 67.8727 30.7005 68.4627 31.5059 69.2277L83.4674 39.2277C82.662 38.4627 81.9172 37.8727 81.2071 37.4827L29.2456 67.4827Z" fill="#8BC5E4"/>
<path d="M31.5059 69.2278C33.1167 70.7378 34.996 72.9428 37.1177 75.7278L89.0793 45.7278C86.9575 42.9428 85.0782 40.7378 83.4674 39.2278L31.5059 69.2278Z" fill="#8BC5E4"/>
<path d="M37.1177 75.7278C39.6985 79.1078 42.6517 83.3628 45.726 88.1878L97.6876 58.1878C94.6132 53.3628 91.66 49.1078 89.0793 45.7278L37.1177 75.7278Z" fill="#8BC5E4"/>
<path d="M64.6055 90.7676C64.9173 90.9576 64.9606 91.0426 64.9606 91.0426L116.922 61.0426C116.922 61.0426 116.879 60.9576 116.567 60.7676L64.6055 90.7676Z" fill="#8BC5E4"/>
<path d="M64.9604 91.0427C64.969 91.0577 65.021 91.1477 65.0383 91.5077L117 61.5077C116.983 61.1477 116.931 61.0577 116.922 61.0427L64.9604 91.0427Z" fill="#8BC5E4"/>
<path d="M65.0387 91.5076C65.0387 91.8576 64.9608 92.3926 64.7529 92.9926L116.714 62.9926C116.922 62.3926 117 61.8576 117 61.5076L65.0387 91.5076Z" fill="#8BC5E4"/>
<path d="M64.7528 92.9927C64.3285 94.1977 63.4278 95.6877 62.1201 97.2327L114.082 67.2327C115.389 65.6877 116.29 64.1977 116.714 62.9927L64.7528 92.9927Z" fill="#8BC5E4"/>
<path d="M62.1199 97.2327C60.5529 99.0937 58.3959 101.054 55.8169 102.956L107.778 72.9557C110.357 71.0537 112.514 69.0937 114.081 67.2327L62.1199 97.2327Z" fill="#8BC5E4"/>
<path d="M55.8202 102.953C55.6772 103.059 55.5322 103.165 55.3862 103.27L107.348 73.2696C107.494 73.1646 107.639 73.0586 107.782 72.9526L55.8202 102.953Z" fill="#8BC5E4"/>
<path d="M55.3822 103.273C54.5682 99.4527 52.3165 95.5227 49.4326 92.8777L101.394 62.8777C104.278 65.5227 106.53 69.4527 107.344 73.2727L55.3822 103.273Z" fill="#8BC5E4"/>
<path d="M49.4326 92.8776C49.5989 92.8076 49.7659 92.7386 49.9309 92.6716L101.892 62.6716C101.727 62.7386 101.56 62.8076 101.394 62.8776L49.4326 92.8776Z" fill="#8BC5E4"/>
<path d="M49.9312 92.6716C52.9052 91.4626 55.7192 90.6536 58.1372 90.2786L110.099 60.2786C107.681 60.6536 104.867 61.4626 101.893 62.6716L49.9312 92.6716Z" fill="#8BC5E4"/>
<path d="M58.145 90.2777C60.1629 89.9727 61.9123 89.9627 63.1767 90.2427L115.138 60.2427C113.874 59.9627 112.124 59.9727 110.107 60.2777L58.145 90.2777Z" fill="#8BC5E4"/>
<path d="M63.1768 90.2427C63.8089 90.3677 64.3026 90.5727 64.6057 90.7677L116.567 60.7677C116.264 60.5727 115.77 60.3677 115.138 60.2427L63.1768 90.2427Z" fill="#8BC5E4"/>
<path d="M55.3735 108.658C58.1447 113.858 60.4484 118.608 62.1198 122.493L114.081 92.4927C112.41 88.6077 110.106 83.8577 107.335 78.6577L55.3735 108.658Z" fill="#8BC5E4"/>
<path d="M62.1201 122.493C63.4278 125.548 64.3285 128.078 64.7528 129.763L116.714 99.7627C116.29 98.0777 115.389 95.5477 114.082 92.4927L62.1201 122.493Z" fill="#8BC5E4"/>
<path d="M64.7529 129.763C64.9608 130.613 65.0387 131.238 65.0387 131.588L117 101.588C117 101.238 116.922 100.613 116.714 99.7627L64.7529 129.763Z" fill="#8BC5E4"/>
<path d="M65.0383 131.588C65.021 131.928 64.969 131.948 64.9604 131.943L116.922 101.943C116.931 101.948 116.983 101.928 117 101.588L65.0383 131.588Z" fill="#8BC5E4"/>
<path d="M64.9608 131.943C64.9612 131.948 64.9582 131.954 64.9492 131.957L116.911 101.957C116.92 101.954 116.923 101.948 116.922 101.943L64.9608 131.943Z" fill="#8BC5E4"/>
<path d="M64.9488 131.957C64.9228 131.968 64.8418 131.956 64.6128 131.832L116.574 101.832C116.803 101.956 116.884 101.968 116.91 101.957L64.9488 131.957Z" fill="#8BC5E4"/>
<path d="M64.6057 131.828C64.3026 131.663 63.8089 131.298 63.1768 130.703L115.138 100.703C115.77 101.298 116.264 101.663 116.567 101.828L64.6057 131.828Z" fill="#8BC5E4"/>
<path d="M63.1767 130.703C61.9123 129.513 60.1629 127.493 58.145 124.848L110.107 94.8477C112.124 97.4927 113.874 99.5127 115.138 100.703L63.1767 130.703Z" fill="#8BC5E4"/>
<path d="M58.1448 124.848C55.5901 121.513 52.5936 117.173 49.4326 112.198L101.394 82.1978C104.555 87.1728 107.552 91.5128 110.106 94.8478L58.1448 124.848Z" fill="#8BC5E4"/>
<path d="M49.4326 112.198C50.8519 112.53 52.1179 112.377 53.1339 111.791L105.095 81.7908C104.079 82.3768 102.813 82.5298 101.394 82.1978L49.4326 112.198Z" fill="#8BC5E4"/>
<path d="M53.1318 111.793C54.1788 111.19 54.9608 110.129 55.3708 108.666L107.332 78.6658C106.922 80.1288 106.14 81.1898 105.093 81.7928L53.1318 111.793Z" fill="#8BC5E4"/>
<path d="M38.5557 98.9578C39.3697 102.778 41.6127 106.703 44.4966 109.348L96.4581 79.3478C93.5742 76.7028 91.3312 72.7778 90.5172 68.9578L38.5557 98.9578Z" fill="#8BC5E4"/>
<path d="M44.4964 109.348C44.33 109.418 44.164 109.487 43.999 109.555L95.9605 79.5547C96.1255 79.4867 96.2915 79.4177 96.4579 79.3477L44.4964 109.348Z" fill="#8BC5E4"/>
<path d="M43.9988 109.554C41.0318 110.767 38.2178 111.567 35.7998 111.942L87.7613 81.9417C90.1793 81.5667 92.9933 80.7667 95.9603 79.5537L43.9988 109.554Z" fill="#8BC5E4"/>
<path d="M35.7928 111.943C33.7837 112.263 32.0256 112.258 30.7612 111.988L82.7227 81.9876C83.9871 82.2576 85.7452 82.2626 87.7544 81.9426L35.7928 111.943Z" fill="#8BC5E4"/>
<path d="M30.7614 111.988C30.1379 111.858 29.6183 111.638 29.3325 111.463L81.294 81.4626C81.5798 81.6376 82.0994 81.8576 82.7229 81.9876L30.7614 111.988Z" fill="#8BC5E4"/>
<path d="M29.3325 111.463C29.0206 111.273 28.9774 111.188 28.9688 111.163L80.9302 81.1626C80.9388 81.1876 80.9821 81.2726 81.2939 81.4626L29.3325 111.463Z" fill="#8BC5E4"/>
<path d="M28.9684 111.163C28.9684 111.163 28.9077 111.078 28.9077 110.728L80.8693 80.7278C80.8693 81.0778 80.9299 81.1628 80.9299 81.1628L28.9684 111.163Z" fill="#8BC5E4"/>
<path d="M28.9079 110.728C28.8906 110.368 28.9772 109.838 29.1851 109.228L81.1466 79.2278C80.9387 79.8378 80.8521 80.3678 80.8695 80.7278L28.9079 110.728Z" fill="#8BC5E4"/>
<path d="M29.1851 109.228C29.6007 108.028 30.5014 106.538 31.8178 104.998L83.7793 74.9976C82.4629 76.5376 81.5623 78.0276 81.1466 79.2276L29.1851 109.228Z" fill="#8BC5E4"/>
<path d="M31.8179 104.998C33.3851 103.137 35.5421 101.168 38.1211 99.2737L90.0826 69.2737C87.5036 71.1677 85.3466 73.1367 83.7794 74.9977L31.8179 104.998Z" fill="#8BC5E4"/>
<path d="M38.1128 99.2786C38.2558 99.1736 38.4008 99.0686 38.5468 98.9636L90.5083 68.9636C90.3623 69.0686 90.2173 69.1736 90.0743 69.2786L38.1128 99.2786Z" fill="#8BC5E4"/>
<path d="M29.3325 70.4026C29.6183 70.5476 30.1379 70.9276 30.7614 71.5276L82.7229 41.5276C82.0994 40.9276 81.5798 40.5476 81.294 40.4026L29.3325 70.4026Z" fill="#8BC5E4"/>
<path d="M30.7612 71.5276C32.0256 72.7076 33.7837 74.7426 35.7928 77.3726L87.7544 47.3726C85.7452 44.7426 83.9871 42.7076 82.7227 41.5276L30.7612 71.5276Z" fill="#8BC5E4"/>
<path d="M35.793 77.3726C38.3478 80.7176 41.3443 85.0576 44.5139 90.0376L96.4754 60.0376C93.3058 55.0576 90.3093 50.7176 87.7546 47.3726L35.793 77.3726Z" fill="#8BC5E4"/>
<path d="M44.5136 90.0377C43.0959 89.7047 41.8319 89.8537 40.8169 90.4337L92.7784 60.4337C93.7934 59.8537 95.0574 59.7047 96.4751 60.0377L44.5136 90.0377Z" fill="#8BC5E4"/>
<path d="M40.8069 90.4387C39.7579 91.0407 38.9759 92.1017 38.5659 93.5647L90.5274 63.5647C90.9374 62.1017 91.7194 61.0407 92.7684 60.4387L40.8069 90.4387Z" fill="#8BC5E4"/>
<path d="M38.5642 93.5728C35.7843 88.3678 33.472 83.6128 31.8179 79.7378L83.7794 49.7378C85.4335 53.6128 87.7458 58.3678 90.5257 63.5728L38.5642 93.5728Z" fill="#8BC5E4"/>
<path d="M31.8178 79.7378C30.5014 76.6778 29.6007 74.1478 29.1851 72.4578L81.1466 42.4578C81.5623 44.1478 82.4629 46.6778 83.7793 49.7378L31.8178 79.7378Z" fill="#8BC5E4"/>
<path d="M29.1851 72.4577C28.9772 71.6177 28.8906 70.9877 28.9079 70.6477L80.8695 40.6477C80.8521 40.9877 80.9387 41.6177 81.1466 42.4577L29.1851 72.4577Z" fill="#8BC5E4"/>
<path d="M28.9077 70.6477C28.9077 70.2977 28.9684 70.2727 28.9684 70.2627L80.9299 40.2627C80.9299 40.2727 80.8693 40.2977 80.8693 40.6477L28.9077 70.6477Z" fill="#8BC5E4"/>
<path d="M28.9688 70.2627C28.9774 70.2677 29.0206 70.2327 29.3325 70.4027L81.2939 40.4027C80.9821 40.2327 80.9388 40.2677 80.9302 40.2627L28.9688 70.2627Z" fill="#8BC5E4"/>
<path d="M94.6046 118.358L184.905 170.493V191.193L94.6046 139.058V118.358ZM38.5555 98.9577C39.3695 102.778 41.6125 106.703 44.4964 109.348C41.3441 110.678 38.3476 111.548 35.7928 111.943C33.7837 112.263 32.0256 112.258 30.7612 111.988C30.1377 111.858 29.6181 111.638 29.3323 111.463C29.0205 111.273 28.9772 111.188 28.9685 111.163C28.9685 111.163 28.9079 111.078 28.9079 110.728C28.8906 110.368 28.9772 109.838 29.1851 109.228C29.6007 108.028 30.5014 106.538 31.8178 104.998C33.4719 103.033 35.7842 100.948 38.5555 98.9577ZM55.3737 108.658C58.1449 113.858 60.4486 118.608 62.12 122.493C63.4277 125.548 64.3284 128.078 64.7527 129.763C64.9606 130.613 65.0385 131.238 65.0385 131.588C65.0212 131.928 64.9692 131.948 64.9606 131.943C64.9606 131.963 64.9173 131.998 64.6055 131.828C64.3024 131.663 63.8088 131.298 63.1765 130.703C61.9122 129.513 60.1628 127.493 58.1449 124.848C55.5902 121.513 52.5937 117.173 49.4327 112.198C52.3166 112.873 54.5683 111.543 55.3737 108.658ZM29.3323 70.4027C29.6181 70.5477 30.1377 70.9277 30.7612 71.5277C32.0256 72.7077 33.7837 74.7427 35.7928 77.3727C38.3476 80.7177 41.3441 85.0577 44.5137 90.0377C41.6212 89.3577 39.3695 90.6877 38.5641 93.5727C35.7842 88.3677 33.4719 83.6127 31.8178 79.7377C30.5014 76.6777 29.6007 74.1477 29.1851 72.4577C28.9772 71.6177 28.8906 70.9877 28.9079 70.6477C28.9079 70.2977 28.9685 70.2727 28.9685 70.2627C28.9772 70.2677 29.0205 70.2327 29.3323 70.4027ZM64.6055 90.7677C64.9173 90.9577 64.9606 91.0427 64.9606 91.0427C64.9692 91.0577 65.0212 91.1477 65.0385 91.5077C65.0385 91.8577 64.9606 92.3927 64.7527 92.9927C64.3284 94.1977 63.4277 95.6877 62.12 97.2327C60.4659 99.1977 58.1536 101.273 55.3823 103.273C54.5683 99.4527 52.3166 95.5227 49.4327 92.8777C52.5937 91.5527 55.5902 90.6727 58.1449 90.2777C60.1628 89.9727 61.9122 89.9627 63.1765 90.2427C63.8088 90.3677 64.3024 90.5727 64.6055 90.7677ZM47.0598 73.3277L42.5305 75.7127L45.7261 77.5577V88.1877C42.6518 83.3627 39.6986 79.1077 37.1178 75.7277C34.9961 72.9427 33.1168 70.7377 31.506 69.2277C30.7006 68.4627 29.9558 67.8727 29.2457 67.4827C28.5096 67.0877 27.7648 66.9377 27.2105 67.2577C26.6649 67.5827 26.4484 68.3377 26.4224 69.1627C26.4138 69.9877 26.561 70.9227 26.8381 72.0027C27.3664 74.1577 28.371 76.8877 29.7393 80.1077C31.3934 83.9627 33.6018 88.5277 36.2258 93.4827L27.1759 88.2577V84.5677L22.8457 87.2877L27.1759 94.8077V91.3777L36.018 96.4827C33.4892 98.3827 31.3501 100.338 29.7393 102.228C28.371 103.868 27.3664 105.428 26.8381 106.973C26.5783 107.753 26.4138 108.508 26.4224 109.343C26.4484 110.198 26.6649 111.203 27.2105 112.158C27.7648 113.118 28.5096 113.818 29.2457 114.283C29.9558 114.713 30.7006 114.963 31.506 115.148C33.1168 115.488 34.9961 115.453 37.1178 115.128C39.6986 114.728 42.6518 113.883 45.7261 112.608V123.238L42.5305 121.393L47.0598 129.008L51.4073 126.518L48.4368 124.803V114.393C51.4419 119.078 54.2911 123.203 56.8199 126.503C58.9417 129.288 60.821 131.483 62.4231 132.998C63.2285 133.763 63.982 134.358 64.7008 134.753C65.4109 135.123 66.173 135.293 66.7359 134.978C67.2729 134.648 67.4894 133.893 67.5067 133.063C67.524 132.243 67.3595 131.298 67.0996 130.218C66.5714 128.063 65.5668 125.343 64.1811 122.113C62.5877 118.373 60.4486 113.948 57.9198 109.128L66.7619 114.233V117.663L71.092 115.143L66.7619 107.423V111.113L57.7119 105.888C60.336 103.963 62.5444 101.948 64.1811 99.9927C65.5668 98.3627 66.5714 96.7927 67.0996 95.2577C67.3595 94.4777 67.524 93.7227 67.5067 92.8827C67.4894 92.0327 67.2729 91.0277 66.7359 90.0777C66.173 89.0927 65.4109 88.3927 64.7008 87.9527C63.9646 87.5077 63.2285 87.2427 62.4231 87.0777C60.821 86.7327 58.9417 86.7677 56.8199 87.1027C54.2911 87.4827 51.4419 88.3177 48.4368 89.5127V79.1227L51.4073 80.8377L47.0598 73.3277ZM12.7566 31.7327C5.73309 27.6777 0 30.9877 0 39.0877V109.648C0 117.748 5.73309 127.678 12.7566 131.733L195.09 237.003C202.113 241.058 207.846 237.748 207.846 229.648V159.088C207.846 150.988 202.113 141.058 195.09 137.003L12.7566 31.7327ZM12.7566 38.3727L195.09 143.643C199.021 145.913 202.087 151.223 202.087 155.763V226.323C202.087 230.863 199.021 232.633 195.09 230.363L12.7566 125.093C8.8248 122.823 5.75907 117.513 5.75907 112.973V42.4127C5.75907 37.8727 8.8248 36.1027 12.7566 38.3727Z" fill="#8BC5E4"/>
<path fill-rule="evenodd" clip-rule="evenodd" d="M12.7566 38.3727L195.09 143.643C199.021 145.913 202.087 151.223 202.087 155.763V226.323C202.087 230.863 199.021 232.633 195.09 230.363L12.7566 125.093C8.8248 122.823 5.75907 117.513 5.75907 112.973V42.4127C5.75907 37.8727 8.8248 36.1027 12.7566 38.3727ZM184.905 170.493L94.6046 118.358V139.058L184.905 191.193V170.493ZM42.5305 75.7127L47.0598 73.3277L51.4073 80.8377L48.4368 79.1227V89.5127C51.4419 88.3177 54.2911 87.4827 56.8199 87.1027C58.9417 86.7677 60.821 86.7327 62.4231 87.0777C63.2285 87.2427 63.9646 87.5077 64.7008 87.9527C65.4109 88.3927 66.173 89.0927 66.7359 90.0777C67.2729 91.0277 67.4894 92.0327 67.5067 92.8827C67.524 93.7227 67.3595 94.4777 67.0996 95.2577C66.5714 96.7927 65.5668 98.3627 64.1811 99.9927C62.5444 101.948 60.336 103.963 57.7119 105.888L66.7619 111.113V107.423L71.092 115.143L66.7619 117.663V114.233L57.9198 109.128C60.4486 113.948 62.5877 118.373 64.1811 122.113C65.5668 125.343 66.5714 128.063 67.0996 130.218C67.3595 131.298 67.524 132.243 67.5067 133.063C67.4894 133.893 67.2729 134.648 66.7359 134.978C66.173 135.293 65.4109 135.123 64.7008 134.753C63.982 134.358 63.2285 133.763 62.4231 132.998C60.821 131.483 58.9417 129.288 56.8199 126.503C54.2911 123.203 51.4419 119.078 48.4368 114.393V124.803L51.4073 126.518L47.0598 129.008L42.5305 121.393L45.7261 123.238V112.608C42.6518 113.883 39.6986 114.728 37.1178 115.128C34.9961 115.453 33.1168 115.488 31.506 115.148C30.7006 114.963 29.9558 114.713 29.2457 114.283C28.5096 113.818 27.7648 113.118 27.2105 112.158C26.6649 111.203 26.4484 110.198 26.4224 109.343C26.4138 108.508 26.5783 107.753 26.8381 106.973C27.3664 105.428 28.371 103.868 29.7393 102.228C31.3501 100.338 33.4892 98.3827 36.018 96.4827L27.1759 91.3777V94.8077L22.8457 87.2877L27.1759 84.5677V88.2577L36.2258 93.4827C33.6018 88.5277 31.3934 83.9627 29.7393 80.1077C28.371 76.8877 27.3664 74.1577 26.8381 72.0027C26.561 70.9227 26.4138 69.9877 26.4224 69.1627C26.4484 68.3377 26.6649 67.5827 27.2105 67.2577C27.7648 66.9377 28.5096 67.0877 29.2457 67.4827C29.9558 67.8727 30.7006 68.4627 31.506 69.2277C33.1168 70.7377 34.9961 72.9427 37.1178 75.7277C39.6986 79.1077 42.6518 83.3627 45.7261 88.1877V77.5577L42.5305 75.7127Z" fill="white"/>
<path d="M64.6055 90.7677C64.9173 90.9577 64.9606 91.0427 64.9606 91.0427C64.9692 91.0577 65.0212 91.1477 65.0385 91.5077C65.0385 91.8577 64.9606 92.3927 64.7527 92.9927C64.3284 94.1977 63.4277 95.6877 62.12 97.2327C60.4659 99.1977 58.1536 101.273 55.3823 103.273C54.5683 99.4527 52.3166 95.5227 49.4327 92.8777C52.5937 91.5527 55.5902 90.6727 58.1449 90.2777C60.1628 89.9727 61.9122 89.9627 63.1765 90.2427C63.8088 90.3677 64.3024 90.5727 64.6055 90.7677Z" fill="white"/>
<path d="M55.3737 108.658C58.1449 113.858 60.4486 118.608 62.12 122.493C63.4277 125.548 64.3284 128.078 64.7527 129.763C64.9606 130.613 65.0385 131.238 65.0385 131.588C65.0212 131.928 64.9692 131.948 64.9606 131.943C64.9606 131.963 64.9173 131.998 64.6055 131.828C64.3024 131.663 63.8088 131.298 63.1765 130.703C61.9122 129.513 60.1628 127.493 58.1449 124.848C55.5902 121.513 52.5937 117.173 49.4327 112.198C52.3166 112.873 54.5683 111.543 55.3737 108.658Z" fill="white"/>
<path d="M38.5555 98.9577C39.3695 102.778 41.6125 106.703 44.4964 109.348C41.3441 110.678 38.3476 111.548 35.7928 111.943C33.7837 112.263 32.0256 112.258 30.7612 111.988C30.1377 111.858 29.6181 111.638 29.3323 111.463C29.0205 111.273 28.9772 111.188 28.9685 111.163C28.9685 111.163 28.9079 111.078 28.9079 110.728C28.8906 110.368 28.9772 109.838 29.1851 109.228C29.6007 108.028 30.5014 106.538 31.8178 104.998C33.4719 103.033 35.7842 100.948 38.5555 98.9577Z" fill="white"/>
<path d="M29.3323 70.4027C29.6181 70.5477 30.1377 70.9277 30.7612 71.5277C32.0256 72.7077 33.7837 74.7427 35.7928 77.3727C38.3476 80.7177 41.3441 85.0577 44.5137 90.0377C41.6212 89.3577 39.3695 90.6877 38.5641 93.5727C35.7842 88.3677 33.4719 83.6127 31.8178 79.7377C30.5014 76.6777 29.6007 74.1477 29.1851 72.4577C28.9772 71.6177 28.8906 70.9877 28.9079 70.6477C28.9079 70.2977 28.9685 70.2727 28.9685 70.2627C28.9772 70.2677 29.0205 70.2327 29.3323 70.4027Z" fill="white"/>
</svg>
