<svg width="226" height="326" viewBox="0 0 226 326" fill="none" xmlns="http://www.w3.org/2000/svg">
<path d="M164.848 119.207L160.275 122.307L108.314 92.3073L112.887 89.2073L164.848 119.207Z" fill="#8BC5E4"/>
<path d="M183.692 92.4773L188.343 89.3923L136.382 59.3923L131.731 62.4773L183.692 92.4773Z" fill="#8BC5E4"/>
<path d="M174.573 84.7522L122.612 54.7522L174.573 84.7522Z" fill="#8BC5E4"/>
<path d="M90.82 133.827V158.157L38.8584 128.157V103.827L90.82 133.827Z" fill="#8BC5E4"/>
<path d="M91.2272 164.312L80.8868 164.852L28.9253 134.852L39.2657 134.312L91.2272 164.312Z" fill="#8BC5E4"/>
<path d="M80.8868 164.852L91.8074 166.857L39.8459 136.857L28.9253 134.852L80.8868 164.852Z" fill="#8BC5E4"/>
<path d="M103.879 169.077L129.289 173.747L77.3272 143.747L51.918 139.077L103.879 169.077Z" fill="#8BC5E4"/>
<path d="M129.289 173.747L85.9703 198.667L34.0088 168.667L77.3274 143.747L129.289 173.747Z" fill="#8BC5E4"/>
<path d="M85.9703 198.667L135.992 203.917L84.0304 173.917L34.0088 168.667L85.9703 198.667Z" fill="#8BC5E4"/>
<path d="M135.992 203.917L98.0339 231.652L46.0723 201.652L84.0302 173.917L135.992 203.917Z" fill="#8BC5E4"/>
<path d="M98.0339 231.652L196.57 217.702L144.609 187.702L46.0723 201.652L98.0339 231.652Z" fill="#8BC5E4"/>
<path d="M196.57 217.702L139.638 213.532L87.6763 183.532L144.609 187.702L196.57 217.702Z" fill="#8BC5E4"/>
<path d="M139.638 213.532L172.529 194.632L120.568 164.632L87.6763 183.532L139.638 213.532Z" fill="#8BC5E4"/>
<path d="M172.529 194.632L118.056 189.122L66.0947 159.122L120.568 164.632L172.529 194.632Z" fill="#8BC5E4"/>
<path d="M118.056 189.122L167.099 160.387L115.138 130.387L66.0947 159.122L118.056 189.122Z" fill="#8BC5E4"/>
<path d="M167.099 160.387L111.925 163.242L59.9634 133.242L115.138 130.387L167.099 160.387Z" fill="#8BC5E4"/>
<path d="M119.632 141.522V117.192L67.6709 87.1921V111.522L119.632 141.522Z" fill="#8BC5E4"/>
<path d="M119.632 117.192L114.783 119.992L62.8213 89.9921L67.671 87.1921L119.632 117.192Z" fill="#8BC5E4"/>
<path d="M114.783 119.992V144.292L62.8213 114.292V89.9922L114.783 119.992Z" fill="#8BC5E4"/>
<path d="M104.694 163.617L97.2028 164.002L45.2412 134.002L52.7324 133.617L104.694 163.617Z" fill="#8BC5E4"/>
<path d="M95.6612 155.332V131.032L43.6997 101.032V125.332L95.6612 155.332Z" fill="#8BC5E4"/>
<path d="M95.661 131.032L90.82 133.827L38.8584 103.827L43.6995 101.032L95.661 131.032Z" fill="#8BC5E4"/>
<path d="M90.82 133.827L38.8584 103.827L90.82 133.827Z" fill="#8BC5E4"/>
<path d="M127.73 112.517V154.637L75.7686 124.637V82.5173L127.73 112.517Z" fill="#8BC5E4"/>
<path d="M127.73 154.637L132.58 151.837L80.6184 121.837L75.7686 124.637L127.73 154.637Z" fill="#8BC5E4"/>
<path d="M132.58 151.837V134.707L80.6182 104.707V121.837L132.58 151.837Z" fill="#8BC5E4"/>
<path d="M132.58 134.707L141.976 129.282L90.0146 99.2822L80.6182 104.707L132.58 134.707Z" fill="#8BC5E4"/>
<path d="M141.552 104.537L127.73 112.517L75.7686 82.5174L89.5904 74.5374L141.552 104.537Z" fill="#8BC5E4"/>
<path d="M127.73 112.517L75.7686 82.5173L127.73 112.517Z" fill="#8BC5E4"/>
<path d="M132.58 114.687L141.959 109.272L89.9972 79.2722L80.6182 84.6872L132.58 114.687Z" fill="#8BC5E4"/>
<path d="M142.054 124.267L132.58 129.737L80.6182 99.7373L90.0925 94.2673L142.054 124.267Z" fill="#8BC5E4"/>
<path d="M132.58 129.737V114.687L80.6182 84.6873V99.7373L132.58 129.737Z" fill="#8BC5E4"/>
<path d="M132.58 114.687L80.6182 84.6873L132.58 114.687Z" fill="#8BC5E4"/>
<path d="M62.5875 124.697L214.54 36.9673L162.579 6.96729L10.626 94.6973L62.5875 124.697Z" fill="#8BC5E4"/>
<path d="M220.369 40.2922V215.862L168.407 185.862V10.2922L220.369 40.2922Z" fill="#8BC5E4"/>
<path d="M214.54 225.927L62.5875 313.657L10.626 283.657L162.579 195.927L214.54 225.927Z" fill="#8BC5E4"/>
<path d="M56.7593 310.322V134.752L4.79785 104.752V280.322L56.7593 310.322Z" fill="#8BC5E4"/>
<path d="M62.5875 124.697L10.626 94.6973L62.5875 124.697Z" fill="#8BC5E4"/>
<path d="M51.9615 137.522V313.092L0 283.092V107.522L51.9615 137.522Z" fill="#8BC5E4"/>
<path d="M62.5875 319.177L214.54 231.447L162.579 201.447L10.626 289.177L62.5875 319.177Z" fill="#8BC5E4"/>
<path d="M225.167 213.092V37.5222L173.205 7.52222V183.092L225.167 213.092Z" fill="#8BC5E4"/>
<path d="M214.54 31.4473L62.5875 119.177L10.626 89.1773L162.579 1.44727L214.54 31.4473Z" fill="#8BC5E4"/>
<path d="M62.5875 119.177L10.626 89.1772L62.5875 119.177Z" fill="#8BC5E4"/>
<path d="M62.5875 124.697L214.54 36.9673L162.579 6.96729L10.626 94.6973L62.5875 124.697Z" fill="#8BC5E4"/>
<path d="M220.369 40.2922V215.862L168.407 185.862V10.2922L220.369 40.2922Z" fill="#8BC5E4"/>
<path d="M214.54 225.927L62.5875 313.657L10.626 283.657L162.579 195.927L214.54 225.927Z" fill="#8BC5E4"/>
<path d="M56.7593 310.322V134.752L4.79785 104.752V280.322L56.7593 310.322Z" fill="#8BC5E4"/>
<path d="M62.5875 124.697L10.626 94.6973L62.5875 124.697Z" fill="#8BC5E4"/>
<path d="M188.343 89.3923L183.692 92.4773L131.731 62.4773L136.382 59.3923L188.343 89.3923Z" fill="#8BC5E4"/>
<path d="M160.275 122.307L164.848 119.207L112.887 89.2073L108.314 92.3073L160.275 122.307Z" fill="#8BC5E4"/>
<path d="M167.844 90.0771L115.883 60.0771L167.844 90.0771Z" fill="#8BC5E4"/>
<path d="M90.82 158.157V133.827L38.8584 103.827V128.157L90.82 158.157Z" fill="#8BC5E4"/>
<path d="M90.82 133.827L95.661 131.032L43.6995 101.032L38.8584 103.827L90.82 133.827Z" fill="#8BC5E4"/>
<path d="M95.6612 131.032V155.332L43.6997 125.332V101.032L95.6612 131.032Z" fill="#8BC5E4"/>
<path d="M97.2028 164.002L104.694 163.617L52.7324 133.617L45.2412 134.002L97.2028 164.002Z" fill="#8BC5E4"/>
<path d="M114.783 144.292V119.992L62.8213 89.9922V114.292L114.783 144.292Z" fill="#8BC5E4"/>
<path d="M114.783 119.992L119.632 117.192L67.671 87.1921L62.8213 89.9921L114.783 119.992Z" fill="#8BC5E4"/>
<path d="M119.632 117.192V141.522L67.6709 111.522V87.1921L119.632 117.192Z" fill="#8BC5E4"/>
<path d="M111.925 163.242L167.099 160.387L115.138 130.387L59.9634 133.242L111.925 163.242Z" fill="#8BC5E4"/>
<path d="M167.099 160.387L118.056 189.122L66.0947 159.122L115.138 130.387L167.099 160.387Z" fill="#8BC5E4"/>
<path d="M118.056 189.122L172.529 194.632L120.568 164.632L66.0947 159.122L118.056 189.122Z" fill="#8BC5E4"/>
<path d="M172.529 194.632L139.638 213.532L87.6763 183.532L120.568 164.632L172.529 194.632Z" fill="#8BC5E4"/>
<path d="M139.638 213.532L196.57 217.702L144.609 187.702L87.6763 183.532L139.638 213.532Z" fill="#8BC5E4"/>
<path d="M196.57 217.702L98.0339 231.652L46.0723 201.652L144.609 187.702L196.57 217.702Z" fill="#8BC5E4"/>
<path d="M98.0339 231.652L135.992 203.917L84.0302 173.917L46.0723 201.652L98.0339 231.652Z" fill="#8BC5E4"/>
<path d="M135.992 203.917L85.9703 198.667L34.0088 168.667L84.0304 173.917L135.992 203.917Z" fill="#8BC5E4"/>
<path d="M85.9703 198.667L129.289 173.747L77.3274 143.747L34.0088 168.667L85.9703 198.667Z" fill="#8BC5E4"/>
<path d="M129.289 173.747L103.879 169.077L51.918 139.077L77.3272 143.747L129.289 173.747Z" fill="#8BC5E4"/>
<path d="M91.8074 166.857L80.8868 164.852L28.9253 134.852L39.8459 136.857L91.8074 166.857Z" fill="#8BC5E4"/>
<path d="M80.8868 164.852L91.2272 164.312L39.2657 134.312L28.9253 134.852L80.8868 164.852Z" fill="#8BC5E4"/>
<path d="M90.82 158.157L38.8584 128.157L90.82 158.157Z" fill="#8BC5E4"/>
<path d="M127.73 154.637V112.517L75.7686 82.5173V124.637L127.73 154.637Z" fill="#8BC5E4"/>
<path d="M127.73 112.517L141.552 104.537L89.5904 74.5374L75.7686 82.5174L127.73 112.517Z" fill="#8BC5E4"/>
<path d="M141.976 129.282L132.58 134.707L80.6182 104.707L90.0146 99.2822L141.976 129.282Z" fill="#8BC5E4"/>
<path d="M132.58 134.707V151.837L80.6182 121.837V104.707L132.58 134.707Z" fill="#8BC5E4"/>
<path d="M132.58 151.837L127.73 154.637L75.7686 124.637L80.6184 121.837L132.58 151.837Z" fill="#8BC5E4"/>
<path d="M127.73 154.637L75.7686 124.637L127.73 154.637Z" fill="#8BC5E4"/>
<path d="M132.58 114.687L141.959 109.272L89.9972 79.2722L80.6182 84.6872L132.58 114.687Z" fill="#8BC5E4"/>
<path d="M142.054 124.267L132.58 129.737L80.6182 99.7373L90.0925 94.2673L142.054 124.267Z" fill="#8BC5E4"/>
<path d="M132.58 129.737V114.687L80.6182 84.6873V99.7373L132.58 129.737Z" fill="#8BC5E4"/>
<path d="M132.58 114.687L80.6182 84.6873L132.58 114.687Z" fill="#8BC5E4"/>
<path d="M174.573 84.7522C172.105 86.1772 169.862 87.9522 167.844 90.0772L115.883 60.0772C117.901 57.9522 120.144 56.1772 122.612 54.7522L174.573 84.7522Z" fill="#8BC5E4"/>
<path d="M167.844 90.0771C165.835 92.1971 164.302 94.4921 163.254 96.9471L111.293 66.9471C112.341 64.4921 113.874 62.1971 115.883 60.0771L167.844 90.0771Z" fill="#8BC5E4"/>
<path d="M163.254 96.9473C162.198 99.3973 161.678 101.687 161.678 103.807L109.717 73.8073C109.717 71.6873 110.236 69.3973 111.293 66.9473L163.254 96.9473Z" fill="#8BC5E4"/>
<path d="M161.678 103.807C161.678 105.737 162.103 107.252 162.951 108.332L110.99 78.3324C110.141 77.2524 109.717 75.7374 109.717 73.8074L161.678 103.807Z" fill="#8BC5E4"/>
<path d="M162.951 108.332C163.262 108.709 163.63 109.021 164.056 109.269L112.095 79.2693C111.669 79.0213 111.301 78.7093 110.99 78.3323L162.951 108.332Z" fill="#8BC5E4"/>
<path d="M164.054 109.268C164.812 109.709 165.75 109.944 166.869 109.977L114.908 79.9773C113.789 79.9443 112.851 79.7093 112.093 79.2683L164.054 109.268Z" fill="#8BC5E4"/>
<path d="M166.874 109.977C168.225 110.017 170.581 109.537 173.949 108.532L121.988 78.5322C118.619 79.5372 116.264 80.0172 114.913 79.9772L166.874 109.977Z" fill="#8BC5E4"/>
<path d="M173.95 108.532C177.31 107.512 179.484 106.937 180.471 106.797L128.509 76.7974C127.522 76.9374 125.348 77.5124 121.988 78.5324L173.95 108.532Z" fill="#8BC5E4"/>
<path d="M180.471 106.797C181.74 106.619 182.712 106.729 183.388 107.121L131.427 77.1213C130.751 76.7293 129.779 76.6193 128.509 76.7973L180.471 106.797Z" fill="#8BC5E4"/>
<path d="M183.384 107.119C183.524 107.2 183.651 107.293 183.766 107.398L131.805 77.3981C131.69 77.2931 131.563 77.2001 131.423 77.1191L183.384 107.119Z" fill="#8BC5E4"/>
<path d="M183.771 107.402C184.437 107.987 184.775 108.942 184.775 110.262L132.814 80.2623C132.814 78.9423 132.476 77.9873 131.809 77.4023L183.771 107.402Z" fill="#8BC5E4"/>
<path d="M184.775 110.262C184.775 111.562 184.42 112.977 183.718 114.492L131.757 84.4922C132.458 82.9772 132.813 81.5622 132.813 80.2622L184.775 110.262Z" fill="#8BC5E4"/>
<path d="M183.718 114.492C183.034 115.977 181.986 117.442 180.575 118.897L128.613 88.8972C130.025 87.4422 131.073 85.9772 131.757 84.4922L183.718 114.492Z" fill="#8BC5E4"/>
<path d="M180.575 118.897C179.154 120.347 177.526 121.597 175.673 122.667L123.711 92.6672C125.565 91.5972 127.193 90.3472 128.613 88.8972L180.575 118.897Z" fill="#8BC5E4"/>
<path d="M175.673 122.667C173.586 123.872 171.716 124.542 170.053 124.682L118.091 94.6822C119.754 94.5422 121.625 93.8722 123.712 92.6672L175.673 122.667Z" fill="#8BC5E4"/>
<path d="M170.053 124.682C168.852 124.772 167.879 124.601 167.127 124.169L115.165 94.1692C115.917 94.6012 116.89 94.7722 118.091 94.6822L170.053 124.682Z" fill="#8BC5E4"/>
<path d="M167.132 124.171C166.838 124.003 166.578 123.795 166.351 123.547L114.389 93.5474C114.616 93.7954 114.876 94.0034 115.17 94.1714L167.132 124.171Z" fill="#8BC5E4"/>
<path d="M166.346 123.542C165.567 122.642 165.064 121.192 164.848 119.207L112.886 89.2073C113.103 91.1923 113.605 92.6423 114.384 93.5423L166.346 123.542Z" fill="#8BC5E4"/>
<path d="M160.275 122.307C160.345 125.087 161.012 127.232 162.276 128.742L110.314 98.7424C109.05 97.2324 108.383 95.0874 108.314 92.3074L160.275 122.307Z" fill="#8BC5E4"/>
<path d="M162.276 128.742C162.702 129.233 163.18 129.634 163.711 129.943L111.749 99.9432C111.218 99.6342 110.74 99.2332 110.314 98.7422L162.276 128.742Z" fill="#8BC5E4"/>
<path d="M163.709 129.942C164.775 130.564 166.054 130.817 167.544 130.698L115.582 100.698C114.092 100.817 112.813 100.564 111.747 99.9421L163.709 129.942Z" fill="#8BC5E4"/>
<path d="M167.55 130.697C169.802 130.507 172.581 129.452 175.898 127.537L123.937 97.5374C120.62 99.4524 117.84 100.507 115.588 100.697L167.55 130.697Z" fill="#8BC5E4"/>
<path d="M175.899 127.537C178.514 126.027 180.861 124.132 182.948 121.837L130.986 91.8372C128.899 94.1322 126.552 96.0272 123.937 97.5372L175.899 127.537Z" fill="#8BC5E4"/>
<path d="M182.948 121.837C185.044 119.507 186.654 117.037 187.772 114.422L135.81 84.4224C134.693 87.0374 133.082 89.5074 130.986 91.8374L182.948 121.837Z" fill="#8BC5E4"/>
<path d="M187.772 114.422C188.889 111.787 189.443 109.347 189.443 107.107L137.481 77.1072C137.481 79.3472 136.927 81.7872 135.81 84.4222L187.772 114.422Z" fill="#8BC5E4"/>
<path d="M189.443 107.107C189.443 104.847 188.94 103.147 187.919 102.017L135.957 72.0173C136.979 73.1473 137.481 74.8473 137.481 77.1073L189.443 107.107Z" fill="#8BC5E4"/>
<path d="M187.919 102.017C187.615 101.667 187.259 101.375 186.852 101.14L134.89 71.1401C135.297 71.3751 135.653 71.6671 135.957 72.0171L187.919 102.017Z" fill="#8BC5E4"/>
<path d="M186.854 101.141C185.91 100.596 184.693 100.363 183.206 100.432L131.244 70.4322C132.731 70.3632 133.948 70.5962 134.892 71.1412L186.854 101.141Z" fill="#8BC5E4"/>
<path d="M183.199 100.432C181.727 100.512 179.025 101.182 175.076 102.452L123.114 72.4524C127.063 71.1824 129.765 70.5124 131.238 70.4324L183.199 100.432Z" fill="#8BC5E4"/>
<path d="M175.076 102.452C171.144 103.682 168.71 104.087 167.775 103.647L115.813 73.6471C116.749 74.0871 119.182 73.6821 123.114 72.4521L175.076 102.452Z" fill="#8BC5E4"/>
<path d="M167.775 103.647C167.701 103.613 167.63 103.577 167.561 103.536L115.599 73.5364C115.668 73.5774 115.739 73.6134 115.814 73.6474L167.775 103.647Z" fill="#8BC5E4"/>
<path d="M167.566 103.539C167.544 103.526 167.522 103.513 167.5 103.499L115.538 73.4993C115.56 73.5133 115.582 73.5263 115.604 73.5393L167.566 103.539Z" fill="#8BC5E4"/>
<path d="M167.5 103.5C166.732 103.017 166.347 102.103 166.346 100.751L114.385 70.7512C114.386 72.1032 114.771 73.0172 115.539 73.5002L167.5 103.5Z" fill="#8BC5E4"/>
<path d="M166.346 100.742C166.346 98.9922 167.013 97.1272 168.347 95.1272L116.385 65.1272C115.052 67.1272 114.385 68.9922 114.385 70.7422L166.346 100.742Z" fill="#8BC5E4"/>
<path d="M168.347 95.1274C169.698 93.1074 171.837 91.2524 174.773 89.5574L122.811 59.5574C119.875 61.2524 117.736 63.1074 116.385 65.1274L168.347 95.1274Z" fill="#8BC5E4"/>
<path d="M174.773 89.5572C177.587 87.9322 179.718 87.3822 181.147 87.9172L129.185 57.9172C127.756 57.3822 125.626 57.9322 122.811 59.5572L174.773 89.5572Z" fill="#8BC5E4"/>
<path d="M181.147 87.9172C181.322 87.9812 181.489 88.0592 181.646 88.1512L129.684 58.1512C129.527 58.0592 129.36 57.9812 129.185 57.9172L181.147 87.9172Z" fill="#8BC5E4"/>
<path d="M181.646 88.1514C182.791 88.8224 183.478 90.2594 183.692 92.4704L131.73 62.4704C131.516 60.2594 130.829 58.8224 129.684 58.1514L181.646 88.1514Z" fill="#8BC5E4"/>
<path d="M188.343 89.3922C188.265 86.9672 187.659 85.1072 186.542 83.7922L134.58 53.7922C135.697 55.1072 136.303 56.9672 136.381 59.3922L188.343 89.3922Z" fill="#8BC5E4"/>
<path d="M186.542 83.7924C186.191 83.3784 185.79 83.0394 185.341 82.7764L133.38 52.7764C133.829 53.0394 134.23 53.3784 134.58 53.7924L186.542 83.7924Z" fill="#8BC5E4"/>
<path d="M185.327 82.7674C184.36 82.2064 183.167 81.9964 181.751 82.1414L129.789 52.1414C131.205 51.9964 132.398 52.2064 133.365 52.7674L185.327 82.7674Z" fill="#8BC5E4"/>
<path d="M181.744 82.1423C179.683 82.3123 177.293 83.1823 174.573 84.7523L122.612 54.7523C125.331 53.1823 127.721 52.3123 129.782 52.1423L181.744 82.1423Z" fill="#8BC5E4"/>
<path d="M90.82 158.157C90.82 160.557 90.9499 162.612 91.227 164.312L39.2655 134.312C38.9883 132.612 38.8584 130.557 38.8584 128.157L90.82 158.157Z" fill="#8BC5E4"/>
<path d="M91.8072 166.857C91.9371 167.242 92.067 167.597 92.2143 167.932L40.2527 137.932C40.1055 137.597 39.9756 137.242 39.8457 136.857L91.8072 166.857Z" fill="#8BC5E4"/>
<path d="M92.2145 167.932C92.7386 169.064 93.4586 169.895 94.3746 170.424L42.4131 140.424C41.4971 139.895 40.7771 139.064 40.2529 137.932L92.2145 167.932Z" fill="#8BC5E4"/>
<path d="M94.3814 170.428C95.0964 170.839 95.9314 171.067 96.8844 171.112L44.9229 141.112C43.9699 141.067 43.1349 140.839 42.4199 140.428L94.3814 170.428Z" fill="#8BC5E4"/>
<path d="M96.8907 171.112C98.7613 171.202 101.091 170.517 103.879 169.077L51.918 139.077C49.1294 140.517 46.7998 141.202 44.9292 141.112L96.8907 171.112Z" fill="#8BC5E4"/>
<path d="M111.925 163.242C112.626 162.527 113.267 161.797 113.856 161.037L61.8946 131.037C61.3057 131.797 60.6649 132.527 59.9634 133.242L111.925 163.242Z" fill="#8BC5E4"/>
<path d="M113.856 161.037C116.047 158.202 117.554 155.292 118.385 152.332L66.4238 122.332C65.5924 125.292 64.0856 128.202 61.8945 131.037L113.856 161.037Z" fill="#8BC5E4"/>
<path d="M118.385 152.332C119.217 149.362 119.632 145.762 119.632 141.522L67.6709 111.522C67.6709 115.762 67.2552 119.362 66.4238 122.332L118.385 152.332Z" fill="#8BC5E4"/>
<path d="M114.783 144.292C114.783 149.582 114.029 153.587 112.514 156.322L60.5522 126.322C62.0677 123.587 62.8212 119.582 62.8212 114.292L114.783 144.292Z" fill="#8BC5E4"/>
<path d="M112.514 156.322C110.998 159.057 108.452 161.457 104.893 163.512L52.9312 133.512C56.4906 131.457 59.0367 129.057 60.5523 126.322L112.514 156.322Z" fill="#8BC5E4"/>
<path d="M104.893 163.512C104.824 163.552 104.763 163.577 104.694 163.617L52.7324 133.617C52.8016 133.577 52.8623 133.552 52.9315 133.512L104.893 163.512Z" fill="#8BC5E4"/>
<path d="M97.2027 164.002C96.9429 163.702 96.7177 163.352 96.5445 162.932L44.583 132.932C44.7562 133.352 44.9813 133.702 45.2411 134.002L97.2027 164.002Z" fill="#8BC5E4"/>
<path d="M96.5446 162.932C95.9557 161.522 95.6612 158.992 95.6612 155.332L43.6997 125.332C43.6997 128.992 43.9942 131.522 44.5831 132.932L96.5446 162.932Z" fill="#8BC5E4"/>
<path d="M141.976 129.282C147.164 126.287 150.749 122.987 152.732 119.372L100.771 89.3723C98.7874 92.9873 95.2021 96.2873 90.0146 99.2823L141.976 129.282Z" fill="#8BC5E4"/>
<path d="M152.732 119.372C154.715 115.737 155.703 112.127 155.703 108.547L103.741 78.5474C103.741 82.1274 102.754 85.7374 100.771 89.3724L152.732 119.372Z" fill="#8BC5E4"/>
<path d="M155.703 108.547C155.703 106.457 155.33 104.762 154.577 103.457L102.615 73.4573C103.369 74.7623 103.741 76.4573 103.741 78.5473L155.703 108.547Z" fill="#8BC5E4"/>
<path d="M154.577 103.457C154.083 102.573 153.483 101.922 152.772 101.516L100.81 71.5164C101.521 71.9224 102.121 72.5734 102.615 73.4574L154.577 103.457Z" fill="#8BC5E4"/>
<path d="M152.775 101.518C152.428 101.32 152.056 101.179 151.656 101.098L99.6948 71.0981C100.095 71.1791 100.467 71.3201 100.814 71.5181L152.775 101.518Z" fill="#8BC5E4"/>
<path d="M151.65 101.097C150.437 100.817 148.93 101.027 147.129 101.727L95.1675 71.7273C96.9688 71.0273 98.4757 70.8173 99.6882 71.0973L151.65 101.097Z" fill="#8BC5E4"/>
<path d="M147.129 101.727C145.847 102.197 143.985 103.132 141.552 104.537L89.5903 74.5373C92.0238 73.1323 93.8858 72.1973 95.1675 71.7273L147.129 101.727Z" fill="#8BC5E4"/>
<path d="M141.959 109.272C144.158 108.002 145.665 107.262 146.479 107.042L94.5178 77.0422C93.7037 77.2622 92.1968 78.0022 89.9971 79.2722L141.959 109.272Z" fill="#8BC5E4"/>
<path d="M146.48 107.042C147.418 106.797 148.223 106.866 148.887 107.253L96.9251 77.2533C96.2611 76.8663 95.4561 76.7973 94.5181 77.0423L146.48 107.042Z" fill="#8BC5E4"/>
<path d="M148.882 107.251C149.113 107.385 149.327 107.557 149.523 107.767L97.5619 77.7672C97.3659 77.5572 97.1519 77.3852 96.9209 77.2512L148.882 107.251Z" fill="#8BC5E4"/>
<path d="M149.528 107.772C150.307 108.572 150.706 109.842 150.706 111.612L98.7442 81.6122C98.7442 79.8422 98.3458 78.5722 97.5664 77.7722L149.528 107.772Z" fill="#8BC5E4"/>
<path d="M150.706 111.612C150.706 114.042 150.047 116.302 148.731 118.402L96.7695 88.4023C98.0858 86.3023 98.744 84.0423 98.744 81.6123L150.706 111.612Z" fill="#8BC5E4"/>
<path d="M148.731 118.402C147.414 120.502 145.189 122.457 142.054 124.267L90.0923 94.2673C93.2273 92.4573 95.453 90.5023 96.7694 88.4023L148.731 118.402Z" fill="#8BC5E4"/>
<path d="M214.54 36.9673C216.17 36.0263 217.622 35.9143 218.669 36.5043L166.708 6.50433C165.661 5.91433 164.209 6.02633 162.579 6.96733L214.54 36.9673Z" fill="#8BC5E4"/>
<path d="M218.68 36.5103C219.728 37.1063 220.367 38.4083 220.368 40.2863L168.407 10.2863C168.406 8.40825 167.767 7.10625 166.719 6.51025L218.68 36.5103Z" fill="#8BC5E4"/>
<path d="M220.369 215.862C220.369 219.622 217.814 224.037 214.54 225.927L162.579 195.927C165.852 194.037 168.407 189.622 168.407 185.862L220.369 215.862Z" fill="#8BC5E4"/>
<path d="M62.5875 313.657C60.9504 314.602 59.4934 314.708 58.4454 314.108L6.48389 284.108C7.53189 284.708 8.98889 284.602 10.626 283.657L62.5875 313.657Z" fill="#8BC5E4"/>
<path d="M58.4474 314.109C57.3994 313.51 56.7603 312.205 56.7593 310.328L4.79785 280.328C4.79885 282.205 5.43785 283.51 6.48585 284.109L58.4474 314.109Z" fill="#8BC5E4"/>
<path d="M56.7593 134.752C56.7593 130.992 59.3142 126.587 62.5877 124.697L10.6262 94.6973C7.35255 96.5873 4.79785 100.992 4.79785 104.752L56.7593 134.752Z" fill="#8BC5E4"/>
<path d="M62.5876 119.177C56.742 122.552 51.9615 130.802 51.9615 137.522L0 107.522C0 100.802 4.7804 92.5522 10.6261 89.1772L62.5876 119.177Z" fill="#8BC5E4"/>
<path d="M51.9615 313.092C51.9615 316.459 53.1615 318.826 55.0935 319.927L3.132 289.927C1.2 288.826 0 286.459 0 283.092L51.9615 313.092Z" fill="#8BC5E4"/>
<path d="M55.1026 319.931C57.0246 321.021 59.6696 320.859 62.5796 319.182L10.6181 289.182C7.70811 290.859 5.06311 291.021 3.14111 289.931L55.1026 319.931Z" fill="#8BC5E4"/>
<path d="M214.54 231.447C220.386 228.072 225.166 219.812 225.166 213.092L173.205 183.092C173.205 189.812 168.424 198.072 162.579 201.447L214.54 231.447Z" fill="#8BC5E4"/>
<path d="M225.167 37.5223C225.167 34.1493 223.963 31.7813 222.024 30.6863L170.062 0.686279C172.001 1.78128 173.205 4.14928 173.205 7.52228L225.167 37.5223Z" fill="#8BC5E4"/>
<path d="M222.025 30.6882C220.103 29.6012 217.458 29.7652 214.549 31.4422L162.588 1.44224C165.497 -0.234765 168.142 -0.398765 170.064 0.688235L222.025 30.6882Z" fill="#8BC5E4"/>
<path d="M214.54 36.9673C216.17 36.0263 217.622 35.9143 218.669 36.5043L166.708 6.50433C165.661 5.91433 164.209 6.02633 162.579 6.96733L214.54 36.9673Z" fill="#8BC5E4"/>
<path d="M218.68 36.5103C219.728 37.1063 220.367 38.4083 220.368 40.2863L168.407 10.2863C168.406 8.40825 167.767 7.10625 166.719 6.51025L218.68 36.5103Z" fill="#8BC5E4"/>
<path d="M220.369 215.862C220.369 219.622 217.814 224.037 214.54 225.927L162.579 195.927C165.852 194.037 168.407 189.622 168.407 185.862L220.369 215.862Z" fill="#8BC5E4"/>
<path d="M62.5875 313.657C60.9504 314.602 59.4934 314.708 58.4454 314.108L6.48389 284.108C7.53189 284.708 8.98889 284.602 10.626 283.657L62.5875 313.657Z" fill="#8BC5E4"/>
<path d="M58.4474 314.109C57.3994 313.51 56.7603 312.205 56.7593 310.328L4.79785 280.328C4.79885 282.205 5.43785 283.51 6.48585 284.109L58.4474 314.109Z" fill="#8BC5E4"/>
<path d="M56.7593 134.752C56.7593 130.992 59.3142 126.587 62.5877 124.697L10.6262 94.6973C7.35255 96.5873 4.79785 100.992 4.79785 104.752L56.7593 134.752Z" fill="#8BC5E4"/>
<path d="M167.844 90.0772C169.862 87.9522 172.105 86.1772 174.573 84.7522L122.612 54.7522C120.144 56.1772 117.901 57.9522 115.883 60.0772L167.844 90.0772Z" fill="#8BC5E4"/>
<path d="M174.573 84.7523C177.293 83.1823 179.683 82.3123 181.744 82.1423L129.782 52.1423C127.721 52.3123 125.331 53.1823 122.612 54.7523L174.573 84.7523Z" fill="#8BC5E4"/>
<path d="M181.744 82.1422C183.17 81.9952 184.37 82.2082 185.341 82.7762L133.38 52.7762C132.409 52.2082 131.209 51.9952 129.782 52.1422L181.744 82.1422Z" fill="#8BC5E4"/>
<path d="M185.338 82.7742C185.787 83.0362 186.187 83.3742 186.538 83.7882L134.577 53.7882C134.226 53.3742 133.826 53.0362 133.377 52.7742L185.338 82.7742Z" fill="#8BC5E4"/>
<path d="M186.542 83.7922C187.659 85.1072 188.265 86.9672 188.343 89.3922L136.381 59.3922C136.303 56.9672 135.697 55.1072 134.58 53.7922L186.542 83.7922Z" fill="#8BC5E4"/>
<path d="M183.693 92.4774C183.48 90.2624 182.792 88.8244 181.646 88.1514L129.684 58.1514C130.83 58.8244 131.518 60.2624 131.731 62.4774L183.693 92.4774Z" fill="#8BC5E4"/>
<path d="M181.637 88.1462C181.484 88.0572 181.323 87.9822 181.154 87.9202L129.193 57.9202C129.362 57.9822 129.523 58.0572 129.676 58.1462L181.637 88.1462Z" fill="#8BC5E4"/>
<path d="M181.147 87.9172C179.718 87.3822 177.587 87.9322 174.773 89.5572L122.811 59.5572C125.626 57.9322 127.756 57.3822 129.185 57.9172L181.147 87.9172Z" fill="#8BC5E4"/>
<path d="M174.773 89.5574C171.837 91.2524 169.698 93.1074 168.347 95.1274L116.385 65.1274C117.736 63.1074 119.875 61.2524 122.811 59.5574L174.773 89.5574Z" fill="#8BC5E4"/>
<path d="M168.347 95.1272C167.013 97.1272 166.346 98.9922 166.346 100.742L114.385 70.7422C114.385 68.9922 115.052 67.1272 116.385 65.1272L168.347 95.1272Z" fill="#8BC5E4"/>
<path d="M166.346 100.742C166.347 102.134 166.751 103.063 167.561 103.536L115.599 73.5362C114.789 73.0632 114.385 72.1342 114.385 70.7422L166.346 100.742Z" fill="#8BC5E4"/>
<path d="M167.555 103.533C167.624 103.573 167.695 103.61 167.769 103.644L115.808 73.6442C115.734 73.6102 115.663 73.5732 115.594 73.5332L167.555 103.533Z" fill="#8BC5E4"/>
<path d="M167.775 103.647C168.71 104.087 171.144 103.682 175.076 102.452L123.114 72.4521C119.182 73.6821 116.749 74.0871 115.813 73.6471L167.775 103.647Z" fill="#8BC5E4"/>
<path d="M175.076 102.452C179.025 101.182 181.727 100.512 183.199 100.432L131.238 70.4324C129.765 70.5124 127.063 71.1824 123.114 72.4524L175.076 102.452Z" fill="#8BC5E4"/>
<path d="M183.199 100.432C184.688 100.362 185.907 100.595 186.851 101.14L134.89 71.1403C133.946 70.5953 132.727 70.3623 131.237 70.4323L183.199 100.432Z" fill="#8BC5E4"/>
<path d="M186.846 101.137C187.252 101.37 187.607 101.661 187.912 102.01L135.951 72.0102C135.646 71.6612 135.291 71.3702 134.885 71.1372L186.846 101.137Z" fill="#8BC5E4"/>
<path d="M187.919 102.017C188.94 103.147 189.443 104.847 189.443 107.107L137.481 77.1073C137.481 74.8473 136.979 73.1473 135.957 72.0173L187.919 102.017Z" fill="#8BC5E4"/>
<path d="M189.443 107.107C189.443 109.347 188.889 111.787 187.772 114.422L135.81 84.4222C136.927 81.7872 137.481 79.3472 137.481 77.1072L189.443 107.107Z" fill="#8BC5E4"/>
<path d="M187.772 114.422C186.654 117.037 185.044 119.507 182.948 121.837L130.986 91.8374C133.082 89.5074 134.693 87.0374 135.81 84.4224L187.772 114.422Z" fill="#8BC5E4"/>
<path d="M182.948 121.837C180.861 124.132 178.514 126.027 175.899 127.537L123.937 97.5372C126.552 96.0272 128.899 94.1322 130.986 91.8372L182.948 121.837Z" fill="#8BC5E4"/>
<path d="M175.898 127.537C172.581 129.452 169.802 130.507 167.55 130.697L115.588 100.697C117.84 100.507 120.62 99.4524 123.937 97.5374L175.898 127.537Z" fill="#8BC5E4"/>
<path d="M167.55 130.697C166.058 130.817 164.778 130.565 163.711 129.943L111.749 99.9434C112.816 100.565 114.096 100.817 115.588 100.697L167.55 130.697Z" fill="#8BC5E4"/>
<path d="M163.712 129.945C163.182 129.636 162.704 129.236 162.279 128.746L110.318 98.7463C110.743 99.2363 111.221 99.6363 111.751 99.9453L163.712 129.945Z" fill="#8BC5E4"/>
<path d="M162.276 128.742C161.012 127.232 160.345 125.087 160.275 122.307L108.314 92.3074C108.383 95.0874 109.05 97.2324 110.314 98.7424L162.276 128.742Z" fill="#8BC5E4"/>
<path d="M164.848 119.207C165.064 121.192 165.567 122.642 166.346 123.542L114.384 93.5423C113.605 92.6423 113.103 91.1923 112.886 89.2073L164.848 119.207Z" fill="#8BC5E4"/>
<path d="M166.346 123.542C166.573 123.791 166.833 124 167.127 124.169L115.165 94.1692C114.871 94.0002 114.611 93.7912 114.385 93.5422L166.346 123.542Z" fill="#8BC5E4"/>
<path d="M167.125 124.168C167.875 124.599 168.846 124.771 170.043 124.683L118.081 94.6832C116.884 94.7712 115.913 94.5992 115.163 94.1682L167.125 124.168Z" fill="#8BC5E4"/>
<path d="M170.053 124.682C171.716 124.542 173.586 123.872 175.673 122.667L123.712 92.6672C121.625 93.8722 119.754 94.5422 118.091 94.6822L170.053 124.682Z" fill="#8BC5E4"/>
<path d="M175.673 122.667C177.526 121.597 179.154 120.347 180.575 118.897L128.613 88.8972C127.193 90.3472 125.565 91.5972 123.711 92.6672L175.673 122.667Z" fill="#8BC5E4"/>
<path d="M180.575 118.897C181.986 117.442 183.034 115.977 183.718 114.492L131.757 84.4922C131.073 85.9772 130.025 87.4422 128.613 88.8972L180.575 118.897Z" fill="#8BC5E4"/>
<path d="M183.718 114.492C184.42 112.977 184.775 111.562 184.775 110.262L132.813 80.2622C132.813 81.5622 132.458 82.9772 131.757 84.4922L183.718 114.492Z" fill="#8BC5E4"/>
<path d="M184.775 110.262C184.775 108.942 184.437 107.987 183.771 107.402L131.809 77.4023C132.476 77.9873 132.814 78.9423 132.814 80.2623L184.775 110.262Z" fill="#8BC5E4"/>
<path d="M183.77 107.402C183.655 107.296 183.528 107.203 183.388 107.121L131.427 77.1213C131.567 77.2033 131.694 77.2963 131.809 77.4023L183.77 107.402Z" fill="#8BC5E4"/>
<path d="M183.38 107.116C182.707 106.729 181.74 106.62 180.48 106.796L128.518 76.7963C129.778 76.6203 130.745 76.7293 131.418 77.1163L183.38 107.116Z" fill="#8BC5E4"/>
<path d="M180.471 106.797C179.484 106.937 177.31 107.512 173.95 108.532L121.988 78.5324C125.348 77.5124 127.522 76.9374 128.509 76.7974L180.471 106.797Z" fill="#8BC5E4"/>
<path d="M173.949 108.532C170.581 109.537 168.225 110.017 166.874 109.977L114.913 79.9772C116.264 80.0172 118.619 79.5372 121.988 78.5322L173.949 108.532Z" fill="#8BC5E4"/>
<path d="M166.874 109.977C165.753 109.945 164.814 109.71 164.056 109.269L112.095 79.2693C112.853 79.7103 113.792 79.9453 114.913 79.9773L166.874 109.977Z" fill="#8BC5E4"/>
<path d="M164.047 109.263C163.628 109.018 163.265 108.71 162.957 108.338L110.995 78.3381C111.303 78.7101 111.666 79.0181 112.085 79.2631L164.047 109.263Z" fill="#8BC5E4"/>
<path d="M162.951 108.332C162.103 107.252 161.678 105.737 161.678 103.807L109.717 73.8074C109.717 75.7374 110.141 77.2524 110.99 78.3324L162.951 108.332Z" fill="#8BC5E4"/>
<path d="M161.678 103.807C161.678 101.687 162.198 99.3973 163.254 96.9473L111.293 66.9473C110.236 69.3973 109.717 71.6873 109.717 73.8073L161.678 103.807Z" fill="#8BC5E4"/>
<path d="M163.254 96.9471C164.302 94.4921 165.835 92.1971 167.844 90.0771L115.883 60.0771C113.874 62.1971 112.341 64.4921 111.293 66.9471L163.254 96.9471Z" fill="#8BC5E4"/>
<path d="M95.6612 155.332C95.6612 158.992 95.9557 161.522 96.5446 162.932L44.5831 132.932C43.9942 131.522 43.6997 128.992 43.6997 125.332L95.6612 155.332Z" fill="#8BC5E4"/>
<path d="M96.5445 162.932C96.7177 163.352 96.9429 163.702 97.2027 164.002L45.2411 134.002C44.9813 133.702 44.7562 133.352 44.583 132.932L96.5445 162.932Z" fill="#8BC5E4"/>
<path d="M104.694 163.617C104.763 163.577 104.824 163.552 104.893 163.512L52.9315 133.512C52.8623 133.552 52.8016 133.577 52.7324 133.617L104.694 163.617Z" fill="#8BC5E4"/>
<path d="M104.893 163.512C108.452 161.457 110.998 159.057 112.514 156.322L60.5523 126.322C59.0367 129.057 56.4906 131.457 52.9312 133.512L104.893 163.512Z" fill="#8BC5E4"/>
<path d="M112.514 156.322C114.029 153.587 114.783 149.582 114.783 144.292L62.8212 114.292C62.8212 119.582 62.0677 123.587 60.5522 126.322L112.514 156.322Z" fill="#8BC5E4"/>
<path d="M119.632 141.522C119.632 145.762 119.217 149.362 118.385 152.332L66.4238 122.332C67.2552 119.362 67.6709 115.762 67.6709 111.522L119.632 141.522Z" fill="#8BC5E4"/>
<path d="M118.385 152.332C117.554 155.292 116.047 158.202 113.856 161.037L61.8945 131.037C64.0856 128.202 65.5924 125.292 66.4238 122.332L118.385 152.332Z" fill="#8BC5E4"/>
<path d="M113.856 161.037C113.267 161.797 112.626 162.527 111.925 163.242L59.9634 133.242C60.6649 132.527 61.3057 131.797 61.8946 131.037L113.856 161.037Z" fill="#8BC5E4"/>
<path d="M103.879 169.077C101.091 170.517 98.7613 171.202 96.8907 171.112L44.9292 141.112C46.7998 141.202 49.1294 140.517 51.918 139.077L103.879 169.077Z" fill="#8BC5E4"/>
<path d="M96.891 171.112C95.9316 171.068 95.0936 170.839 94.3746 170.424L42.4131 140.424C43.1321 140.839 43.9701 141.068 44.9295 141.112L96.891 171.112Z" fill="#8BC5E4"/>
<path d="M94.3674 170.42C93.4564 169.891 92.7394 169.064 92.2174 167.938L40.2559 137.938C40.7779 139.064 41.4949 139.891 42.4059 140.42L94.3674 170.42Z" fill="#8BC5E4"/>
<path d="M92.2143 167.932C92.067 167.597 91.9371 167.242 91.8072 166.857L39.8457 136.857C39.9756 137.242 40.1055 137.597 40.2527 137.932L92.2143 167.932Z" fill="#8BC5E4"/>
<path d="M91.227 164.312C90.9499 162.612 90.82 160.557 90.82 158.157L38.8584 128.157C38.8584 130.557 38.9883 132.612 39.2655 134.312L91.227 164.312Z" fill="#8BC5E4"/>
<path d="M141.552 104.537C143.985 103.132 145.847 102.197 147.129 101.727L95.1675 71.7273C93.8858 72.1973 92.0238 73.1323 89.5903 74.5373L141.552 104.537Z" fill="#8BC5E4"/>
<path d="M147.129 101.727C148.93 101.027 150.437 100.817 151.65 101.097L99.6882 71.0973C98.4757 70.8173 96.9688 71.0273 95.1675 71.7273L147.129 101.727Z" fill="#8BC5E4"/>
<path d="M151.649 101.097C152.05 101.177 152.423 101.318 152.771 101.516L100.81 71.5162C100.462 71.3182 100.089 71.1772 99.688 71.0972L151.649 101.097Z" fill="#8BC5E4"/>
<path d="M152.77 101.515C153.479 101.92 154.079 102.569 154.573 103.449L102.611 73.4491C102.117 72.5691 101.517 71.9201 100.808 71.5151L152.77 101.515Z" fill="#8BC5E4"/>
<path d="M154.577 103.457C155.33 104.762 155.703 106.457 155.703 108.547L103.741 78.5473C103.741 76.4573 103.369 74.7623 102.615 73.4573L154.577 103.457Z" fill="#8BC5E4"/>
<path d="M155.703 108.547C155.703 112.127 154.715 115.737 152.732 119.372L100.771 89.3724C102.754 85.7374 103.741 82.1274 103.741 78.5474L155.703 108.547Z" fill="#8BC5E4"/>
<path d="M152.732 119.372C150.749 122.987 147.164 126.287 141.976 129.282L90.0146 99.2823C95.2021 96.2873 98.7874 92.9873 100.771 89.3723L152.732 119.372Z" fill="#8BC5E4"/>
<path d="M141.959 109.272C144.158 108.002 145.665 107.262 146.479 107.042L94.5178 77.0422C93.7037 77.2622 92.1968 78.0022 89.9971 79.2722L141.959 109.272Z" fill="#8BC5E4"/>
<path d="M146.48 107.042C147.418 106.797 148.223 106.866 148.887 107.253L96.9251 77.2533C96.2611 76.8663 95.4561 76.7973 94.5181 77.0423L146.48 107.042Z" fill="#8BC5E4"/>
<path d="M148.882 107.251C149.113 107.385 149.327 107.557 149.523 107.767L97.5619 77.7672C97.3659 77.5572 97.1519 77.3852 96.9209 77.2512L148.882 107.251Z" fill="#8BC5E4"/>
<path d="M149.528 107.772C150.307 108.572 150.706 109.842 150.706 111.612L98.7442 81.6122C98.7442 79.8422 98.3458 78.5722 97.5664 77.7722L149.528 107.772Z" fill="#8BC5E4"/>
<path d="M150.706 111.612C150.706 114.042 150.047 116.302 148.731 118.402L96.7695 88.4023C98.0858 86.3023 98.744 84.0423 98.744 81.6123L150.706 111.612Z" fill="#8BC5E4"/>
<path d="M148.731 118.402C147.414 120.502 145.189 122.457 142.054 124.267L90.0923 94.2673C93.2273 92.4573 95.453 90.5023 96.7694 88.4023L148.731 118.402Z" fill="#8BC5E4"/>
<path d="M174.573 84.7523C172.105 86.1773 169.862 87.9523 167.844 90.0773C165.835 92.1973 164.302 94.4923 163.254 96.9473C162.198 99.3973 161.678 101.687 161.678 103.807C161.678 105.737 162.103 107.252 162.951 108.332C163.817 109.382 165.125 109.927 166.874 109.977C168.225 110.017 170.581 109.537 173.95 108.532C177.31 107.512 179.484 106.937 180.471 106.797C182.004 106.582 183.104 106.787 183.77 107.402C184.437 107.987 184.775 108.942 184.775 110.262C184.775 111.562 184.42 112.977 183.719 114.492C183.034 115.977 181.986 117.442 180.575 118.897C179.155 120.347 177.526 121.597 175.673 122.667C173.586 123.872 171.715 124.542 170.053 124.682C168.381 124.807 167.151 124.427 166.346 123.542C165.567 122.642 165.064 121.192 164.848 119.207L160.275 122.307C160.345 125.087 161.011 127.232 162.276 128.742C163.557 130.222 165.315 130.877 167.55 130.697C169.802 130.507 172.581 129.452 175.898 127.537C178.514 126.027 180.861 124.132 182.948 121.837C185.044 119.507 186.654 117.037 187.772 114.422C188.889 111.787 189.443 109.347 189.443 107.107C189.443 104.847 188.941 103.147 187.919 102.017C186.906 100.852 185.329 100.332 183.199 100.432C181.727 100.512 179.025 101.182 175.076 102.452C171.144 103.682 168.71 104.087 167.775 103.647C166.822 103.217 166.346 102.252 166.346 100.742C166.346 98.9923 167.013 97.1273 168.347 95.1273C169.698 93.1073 171.837 91.2523 174.772 89.5573C177.587 87.9323 179.717 87.3823 181.146 87.9173C182.593 88.4423 183.45 89.9573 183.693 92.4773L188.343 89.3923C188.265 86.9673 187.659 85.1073 186.542 83.7923C185.433 82.4823 183.831 81.9273 181.744 82.1423C179.683 82.3123 177.293 83.1823 174.573 84.7523ZM90.82 133.827V158.157C90.82 160.557 90.9499 162.612 91.227 164.312L80.8867 164.852L91.8073 166.857C91.9372 167.242 92.0671 167.597 92.2143 167.932C93.1496 169.952 94.7084 171.012 96.8908 171.112C98.7614 171.202 101.091 170.517 103.88 169.077L129.289 173.747L85.9702 198.667L135.992 203.917L98.034 231.652L196.57 217.702L139.638 213.532L172.529 194.632L118.056 189.122L167.099 160.387L111.925 163.242C112.627 162.527 113.267 161.797 113.856 161.037C116.047 158.202 117.554 155.292 118.386 152.332C119.217 149.362 119.633 145.762 119.633 141.522V117.192L114.783 119.992V144.292C114.783 149.582 114.029 153.587 112.514 156.322C110.998 159.057 108.452 161.457 104.893 163.512C104.824 163.552 104.763 163.577 104.694 163.617L97.2026 164.002C96.9428 163.702 96.7176 163.352 96.5444 162.932C95.9555 161.522 95.6611 158.992 95.6611 155.332V131.032L90.82 133.827ZM127.73 112.517V154.637L132.58 151.837V134.707L141.976 129.282C147.164 126.287 150.749 122.987 152.732 119.372C154.715 115.737 155.703 112.127 155.703 108.547C155.703 106.457 155.33 104.762 154.577 103.457C153.841 102.142 152.871 101.342 151.65 101.097C150.437 100.817 148.93 101.027 147.129 101.727C145.847 102.197 143.985 103.132 141.552 104.537L127.73 112.517ZM132.58 114.687L141.959 109.272C144.158 108.002 145.665 107.262 146.479 107.042C147.744 106.712 148.766 106.952 149.528 107.772C150.307 108.572 150.706 109.842 150.706 111.612C150.706 114.042 150.047 116.302 148.731 118.402C147.415 120.502 145.189 122.457 142.054 124.267L132.58 129.737V114.687ZM62.5876 124.697L214.54 36.9673C217.814 35.0773 220.369 36.5323 220.369 40.2923V215.862C220.369 219.622 217.814 224.037 214.54 225.927L62.5876 313.657C59.314 315.547 56.7592 314.082 56.7592 310.322V134.752C56.7592 130.992 59.314 126.587 62.5876 124.697ZM62.5876 119.177C56.7419 122.552 51.9614 130.802 51.9614 137.522V313.092C51.9614 319.812 56.7419 322.552 62.5876 319.177L214.54 231.447C220.386 228.072 225.167 219.812 225.167 213.092V37.5223C225.167 30.8023 220.386 28.0723 214.54 31.4473L62.5876 119.177Z" fill="#8BC5E4"/>
<path fill-rule="evenodd" clip-rule="evenodd" d="M62.5876 124.697L214.54 36.9673C217.814 35.0773 220.369 36.5323 220.369 40.2923V215.862C220.369 219.622 217.814 224.037 214.54 225.927L62.5876 313.657C59.314 315.547 56.7592 314.082 56.7592 310.322V134.752C56.7592 130.992 59.314 126.587 62.5876 124.697ZM167.844 90.0773C169.862 87.9523 172.105 86.1773 174.573 84.7523C177.293 83.1823 179.683 82.3123 181.744 82.1423C183.831 81.9273 185.433 82.4823 186.542 83.7923C187.659 85.1073 188.265 86.9673 188.343 89.3923L183.693 92.4773C183.45 89.9573 182.593 88.4423 181.146 87.9173C179.717 87.3823 177.587 87.9323 174.772 89.5573C171.837 91.2523 169.698 93.1073 168.347 95.1273C167.013 97.1273 166.346 98.9923 166.346 100.742C166.346 102.252 166.822 103.217 167.775 103.647C168.71 104.087 171.144 103.682 175.076 102.452C179.025 101.182 181.727 100.512 183.199 100.432C185.329 100.332 186.906 100.852 187.919 102.017C188.941 103.147 189.443 104.847 189.443 107.107C189.443 109.347 188.889 111.787 187.772 114.422C186.654 117.037 185.044 119.507 182.948 121.837C180.861 124.132 178.514 126.027 175.898 127.537C172.581 129.452 169.802 130.507 167.55 130.697C165.315 130.877 163.557 130.222 162.276 128.742C161.011 127.232 160.345 125.087 160.275 122.307L164.848 119.207C165.064 121.192 165.567 122.642 166.346 123.542C167.151 124.427 168.381 124.807 170.053 124.682C171.715 124.542 173.586 123.872 175.673 122.667C177.526 121.597 179.155 120.347 180.575 118.897C181.986 117.442 183.034 115.977 183.719 114.492C184.42 112.977 184.775 111.562 184.775 110.262C184.775 108.942 184.437 107.987 183.77 107.402C183.104 106.787 182.004 106.582 180.471 106.797C179.484 106.937 177.31 107.512 173.95 108.532C170.581 109.537 168.225 110.017 166.874 109.977C165.125 109.927 163.817 109.382 162.951 108.332C162.103 107.252 161.678 105.737 161.678 103.807C161.678 101.687 162.198 99.3973 163.254 96.9473C164.302 94.4923 165.835 92.1973 167.844 90.0773ZM90.82 158.157V133.827L95.6611 131.032V155.332C95.6611 158.992 95.9555 161.522 96.5444 162.932C96.7176 163.352 96.9428 163.702 97.2026 164.002L104.694 163.617C104.763 163.577 104.824 163.552 104.893 163.512C108.452 161.457 110.998 159.057 112.514 156.322C114.029 153.587 114.783 149.582 114.783 144.292V119.992L119.633 117.192V141.522C119.633 145.762 119.217 149.362 118.386 152.332C117.554 155.292 116.047 158.202 113.856 161.037C113.267 161.797 112.627 162.527 111.925 163.242L167.099 160.387L118.056 189.122L172.529 194.632L139.638 213.532L196.57 217.702L98.034 231.652L135.992 203.917L85.9702 198.667L129.289 173.747L103.88 169.077C101.091 170.517 98.7614 171.202 96.8908 171.112C94.7084 171.012 93.1496 169.952 92.2143 167.932C92.0671 167.597 91.9372 167.242 91.8073 166.857L80.8867 164.852L91.227 164.312C90.9499 162.612 90.82 160.557 90.82 158.157ZM127.73 154.637V112.517L141.552 104.537C143.985 103.132 145.847 102.197 147.129 101.727C148.93 101.027 150.437 100.817 151.65 101.097C152.871 101.342 153.841 102.142 154.577 103.457C155.33 104.762 155.703 106.457 155.703 108.547C155.703 112.127 154.715 115.737 152.732 119.372C150.749 122.987 147.164 126.287 141.976 129.282L132.58 134.707V151.837L127.73 154.637Z" fill="white"/>
<path d="M132.58 114.687L141.959 109.272C144.158 108.002 145.665 107.262 146.479 107.042C147.744 106.712 148.766 106.952 149.528 107.772C150.307 108.572 150.706 109.842 150.706 111.612C150.706 114.042 150.047 116.302 148.731 118.402C147.415 120.502 145.189 122.457 142.054 124.267L132.58 129.737V114.687Z" fill="white"/>
</svg>
