<svg width="226" height="326" viewBox="0 0 226 326" fill="none" xmlns="http://www.w3.org/2000/svg">
<path d="M147.51 124.077L143.812 139.242L91.8506 109.242L95.5486 94.0771L147.51 124.077Z" fill="#8BC5E4"/>
<path d="M135.472 147.567L113.614 160.157L61.6523 130.157L83.5108 117.567L135.472 147.567Z" fill="#8BC5E4"/>
<path d="M108.063 160.212L111.353 146.722L59.392 116.722L56.1011 130.212L108.063 160.212Z" fill="#8BC5E4"/>
<path d="M111.354 146.722L107.907 147.412L55.9453 117.412L59.3921 116.722L111.354 146.722Z" fill="#8BC5E4"/>
<path d="M107.906 147.412L104.338 162.032L52.377 132.032L55.945 117.412L107.906 147.412Z" fill="#8BC5E4"/>
<path d="M95.8774 170.377L78.8687 180.177L26.9072 150.177L43.9159 140.377L95.8774 170.377Z" fill="#8BC5E4"/>
<path d="M78.8686 180.177L78.8599 184.352L26.8984 154.352L26.9071 150.177L78.8686 180.177Z" fill="#8BC5E4"/>
<path d="M78.8599 184.352L96.5269 174.172L44.5653 144.172L26.8984 154.352L78.8599 184.352Z" fill="#8BC5E4"/>
<path d="M101.507 173.647L95.8775 196.687L43.916 166.687L49.5452 143.647L101.507 173.647Z" fill="#8BC5E4"/>
<path d="M87.5812 203.997L73.0753 212.352L21.1138 182.352L35.6197 173.997L87.5812 203.997Z" fill="#8BC5E4"/>
<path d="M73.0753 212.352V216.522L21.1138 186.522V182.352L73.0753 212.352Z" fill="#8BC5E4"/>
<path d="M73.0753 216.522L86.6979 208.677L34.7364 178.677L21.1138 186.522L73.0753 216.522Z" fill="#8BC5E4"/>
<path d="M93.0111 208.432L87.9708 229.072L36.0093 199.072L41.0496 178.432L93.0111 208.432Z" fill="#8BC5E4"/>
<path d="M79.7002 236.257L67.3853 243.357L15.4238 213.357L27.7387 206.257L79.7002 236.257Z" fill="#8BC5E4"/>
<path d="M67.3853 243.357V247.527L15.4238 217.527V213.357L67.3853 243.357Z" fill="#8BC5E4"/>
<path d="M67.3853 247.527L78.635 241.042L26.6735 211.042L15.4238 217.527L67.3853 247.527Z" fill="#8BC5E4"/>
<path d="M85.1042 240.827L82.3502 252.107L30.3887 222.107L33.1427 210.827L85.1042 240.827Z" fill="#8BC5E4"/>
<path d="M82.3502 252.107L85.797 251.407L33.8355 221.407L30.3887 222.107L82.3502 252.107Z" fill="#8BC5E4"/>
<path d="M85.7969 251.407L88.8801 238.797L36.9184 208.797L33.8354 221.407L85.7969 251.407Z" fill="#8BC5E4"/>
<path d="M96.6569 230.657L118.472 218.092L66.5105 188.092L44.6953 200.657L96.6569 230.657Z" fill="#8BC5E4"/>
<path d="M124.586 217.982L121.954 228.762L69.9922 198.762L72.625 187.982L124.586 217.982Z" fill="#8BC5E4"/>
<path d="M121.954 228.762L125.401 228.072L73.439 198.072L69.9922 198.762L121.954 228.762Z" fill="#8BC5E4"/>
<path d="M125.401 228.072L128.336 216.037L76.3749 186.037L73.439 198.072L125.401 228.072Z" fill="#8BC5E4"/>
<path d="M136.442 207.737L158.552 194.992L106.591 164.992L84.481 177.737L136.442 207.737Z" fill="#8BC5E4"/>
<path d="M164.146 195.042L161.375 206.402L109.414 176.402L112.185 165.042L164.146 195.042Z" fill="#8BC5E4"/>
<path d="M161.375 206.402L164.822 205.702L112.86 175.702L109.414 176.402L161.375 206.402Z" fill="#8BC5E4"/>
<path d="M164.822 205.702L167.862 193.237L115.9 163.237L112.86 175.702L164.822 205.702Z" fill="#8BC5E4"/>
<path d="M176.479 184.662L190.448 176.617L138.486 146.617L124.517 154.662L176.479 184.662Z" fill="#8BC5E4"/>
<path d="M190.447 176.617L190.456 172.442L138.495 142.442L138.486 146.617L190.447 176.617Z" fill="#8BC5E4"/>
<path d="M190.456 172.442L175.586 181.007L123.625 151.007L138.495 142.442L190.456 172.442Z" fill="#8BC5E4"/>
<path d="M170.702 181.607L175.769 160.852L123.807 130.852L118.741 151.607L170.702 181.607Z" fill="#8BC5E4"/>
<path d="M184.463 152.342L196.146 145.607L144.185 115.607L132.502 122.342L184.463 152.342Z" fill="#8BC5E4"/>
<path d="M196.146 145.607V141.437L144.185 111.437V115.607L196.146 145.607Z" fill="#8BC5E4"/>
<path d="M196.146 141.437L183.762 148.577L131.8 118.577L144.184 111.437L196.146 141.437Z" fill="#8BC5E4"/>
<path d="M178.618 149.197L184.238 126.182L132.277 96.1824L126.656 119.197L178.618 149.197Z" fill="#8BC5E4"/>
<path d="M192.829 118.682L201.931 113.437L149.97 83.4373L140.868 88.6823L192.829 118.682Z" fill="#8BC5E4"/>
<path d="M201.931 113.437L201.94 109.262L149.978 79.2622L149.97 83.4372L201.931 113.437Z" fill="#8BC5E4"/>
<path d="M201.94 109.262L193.66 114.032L141.699 84.0322L149.978 79.2622L201.94 109.262Z" fill="#8BC5E4"/>
<path d="M187.105 114.417L190.378 101.017L138.417 71.0173L135.143 84.4173L187.105 114.417Z" fill="#8BC5E4"/>
<path d="M190.378 101.017L186.931 101.707L134.97 71.7073L138.417 71.0173L190.378 101.017Z" fill="#8BC5E4"/>
<path d="M186.931 101.707L183.329 116.477L131.367 86.4773L134.97 71.7073L186.931 101.707Z" fill="#8BC5E4"/>
<path d="M175.803 124.322L153.278 137.307L101.316 107.307L123.842 94.3223L175.803 124.322Z" fill="#8BC5E4"/>
<path d="M147.536 137.392L150.957 123.377L98.995 93.3772L95.5742 107.392L147.536 137.392Z" fill="#8BC5E4"/>
<path d="M150.957 123.377L147.51 124.077L95.5483 94.0772L98.995 93.3772L150.957 123.377Z" fill="#8BC5E4"/>
<path d="M147.51 124.077L95.5483 94.0771L147.51 124.077Z" fill="#8BC5E4"/>
<path d="M112.947 164.712L136.208 151.312L84.2468 121.312L60.9854 134.712L112.947 164.712Z" fill="#8BC5E4"/>
<path d="M140.98 150.817L135.351 173.887L83.3896 143.887L89.0187 120.817L140.98 150.817Z" fill="#8BC5E4"/>
<path d="M127.279 181.117L103.741 194.687L51.7793 164.687L75.3179 151.117L127.279 181.117Z" fill="#8BC5E4"/>
<path d="M99.567 195.027L105.231 171.807L53.2693 141.807L47.6055 165.027L99.567 195.027Z" fill="#8BC5E4"/>
<path d="M112.947 164.712L60.9854 134.712L112.947 164.712Z" fill="#8BC5E4"/>
<path d="M152.524 141.902L176.608 128.027L124.647 98.0273L100.562 111.902L152.524 141.902Z" fill="#8BC5E4"/>
<path d="M180.566 127.782L174.877 151.087L122.915 121.087L128.605 97.7822L180.566 127.782Z" fill="#8BC5E4"/>
<path d="M167.402 158.002L143.535 171.752L91.5732 141.752L115.441 128.002L167.402 158.002Z" fill="#8BC5E4"/>
<path d="M139.049 172.162L144.695 149.022L92.7339 119.022L87.0874 142.162L139.049 172.162Z" fill="#8BC5E4"/>
<path d="M152.524 141.902L100.562 111.902L152.524 141.902Z" fill="#8BC5E4"/>
<path d="M104.598 198.362L126.483 185.747L74.5212 155.747L52.6367 168.362L104.598 198.362Z" fill="#8BC5E4"/>
<path d="M132.493 185.587L127.444 206.272L75.4829 176.272L80.5318 155.587L132.493 185.587Z" fill="#8BC5E4"/>
<path d="M119.46 213.352L95.6265 227.082L43.665 197.082L67.498 183.352L119.46 213.352Z" fill="#8BC5E4"/>
<path d="M91.6514 227.437L96.787 206.422L44.8254 176.422L39.6899 197.437L91.6514 227.437Z" fill="#8BC5E4"/>
<path d="M104.598 198.362L52.6367 168.362L104.598 198.362Z" fill="#8BC5E4"/>
<path d="M144.315 175.472L166.684 162.587L114.723 132.587L92.353 145.472L144.315 175.472Z" fill="#8BC5E4"/>
<path d="M172.062 162.622L166.97 183.462L115.008 153.462L120.101 132.622L172.062 162.622Z" fill="#8BC5E4"/>
<path d="M159.47 190.302L135.489 204.117L83.5278 174.117L107.508 160.302L159.47 190.302Z" fill="#8BC5E4"/>
<path d="M131.142 204.557L136.243 183.652L84.2816 153.652L79.1807 174.557L131.142 204.557Z" fill="#8BC5E4"/>
<path d="M144.315 175.472L92.353 145.472L144.315 175.472Z" fill="#8BC5E4"/>
<path d="M51.9615 137.522V313.092L0 283.092V107.522L51.9615 137.522Z" fill="#8BC5E4"/>
<path d="M62.5875 319.177L214.54 231.447L162.579 201.447L10.626 289.177L62.5875 319.177Z" fill="#8BC5E4"/>
<path d="M225.167 213.092V37.5222L173.205 7.52222V183.092L225.167 213.092Z" fill="#8BC5E4"/>
<path d="M214.54 31.4473L62.5875 119.177L10.626 89.1773L162.579 1.44727L214.54 31.4473Z" fill="#8BC5E4"/>
<path d="M62.5875 119.177L10.626 89.1772L62.5875 119.177Z" fill="#8BC5E4"/>
<path d="M62.5875 124.697L214.54 36.9673L162.579 6.96729L10.626 94.6973L62.5875 124.697Z" fill="#8BC5E4"/>
<path d="M220.369 40.2922V167.632L168.407 137.632V10.2922L220.369 40.2922Z" fill="#8BC5E4"/>
<path d="M195.124 200.287L147.917 227.542L95.9556 197.542L143.163 170.287L195.124 200.287Z" fill="#8BC5E4"/>
<path d="M147.917 227.542V214.942L95.9556 184.942V197.542L147.917 227.542Z" fill="#8BC5E4"/>
<path d="M147.917 214.942L130.389 241.352L78.4272 211.352L95.9556 184.942L147.917 214.942Z" fill="#8BC5E4"/>
<path d="M130.389 241.352L147.917 249.422L95.9556 219.422L78.4272 211.352L130.389 241.352Z" fill="#8BC5E4"/>
<path d="M147.917 249.422V235.112L95.9556 205.112V219.422L147.917 249.422Z" fill="#8BC5E4"/>
<path d="M147.917 235.112L193.028 209.067L141.067 179.067L95.9556 205.112L147.917 235.112Z" fill="#8BC5E4"/>
<path d="M216.082 184.307L216.116 184.257L164.155 154.257L164.12 154.307L216.082 184.307Z" fill="#8BC5E4"/>
<path d="M216.116 184.257L216.16 184.192L164.198 154.192L164.155 154.257L216.116 184.257Z" fill="#8BC5E4"/>
<path d="M220.369 174.762V215.862L168.407 185.862V144.762L220.369 174.762Z" fill="#8BC5E4"/>
<path d="M214.54 225.927L62.5875 313.657L10.626 283.657L162.579 195.927L214.54 225.927Z" fill="#8BC5E4"/>
<path d="M56.7593 310.322V184.932L4.79785 154.932V280.322L56.7593 310.322Z" fill="#8BC5E4"/>
<path d="M82.8956 149.572L130.103 122.317L78.1412 92.3171L30.9341 119.572L82.8956 149.572Z" fill="#8BC5E4"/>
<path d="M130.103 122.317V134.917L78.1416 104.917V92.3171L130.103 122.317Z" fill="#8BC5E4"/>
<path d="M130.103 134.917L147.631 108.497L95.6699 78.4973L78.1416 104.917L130.103 134.917Z" fill="#8BC5E4"/>
<path d="M147.631 108.497L130.103 100.437L78.1416 70.4373L95.6699 78.4973L147.631 108.497Z" fill="#8BC5E4"/>
<path d="M130.103 100.437V114.737L78.1416 84.7373V70.4373L130.103 100.437Z" fill="#8BC5E4"/>
<path d="M130.103 114.737L85.0002 140.777L33.0386 110.777L78.1413 84.7373L130.103 114.737Z" fill="#8BC5E4"/>
<path d="M61.9468 165.537L61.9035 165.602L9.94189 135.602L9.98519 135.537L61.9468 165.537Z" fill="#8BC5E4"/>
<path d="M61.9034 165.602L61.8687 165.662L9.90723 135.662L9.94183 135.602L61.9034 165.602Z" fill="#8BC5E4"/>
<path d="M56.7593 177.592V134.752L4.79785 104.752V147.592L56.7593 177.592Z" fill="#8BC5E4"/>
<path d="M62.5875 124.697L10.626 94.6973L62.5875 124.697Z" fill="#8BC5E4"/>
<path d="M62.5875 124.697L214.54 36.9673L162.579 6.96729L10.626 94.6973L62.5875 124.697Z" fill="#8BC5E4"/>
<path d="M220.369 40.2922V167.632L168.407 137.632V10.2922L220.369 40.2922Z" fill="#8BC5E4"/>
<path d="M195.124 200.287L147.917 227.542L95.9556 197.542L143.163 170.287L195.124 200.287Z" fill="#8BC5E4"/>
<path d="M147.917 227.542V214.942L95.9556 184.942V197.542L147.917 227.542Z" fill="#8BC5E4"/>
<path d="M147.917 214.942L130.389 241.352L78.4272 211.352L95.9556 184.942L147.917 214.942Z" fill="#8BC5E4"/>
<path d="M130.389 241.352L147.917 249.422L95.9556 219.422L78.4272 211.352L130.389 241.352Z" fill="#8BC5E4"/>
<path d="M147.917 249.422V235.112L95.9556 205.112V219.422L147.917 249.422Z" fill="#8BC5E4"/>
<path d="M147.917 235.112L193.028 209.067L141.067 179.067L95.9556 205.112L147.917 235.112Z" fill="#8BC5E4"/>
<path d="M216.082 184.307L216.116 184.257L164.155 154.257L164.12 154.307L216.082 184.307Z" fill="#8BC5E4"/>
<path d="M216.116 184.257L216.16 184.192L164.198 154.192L164.155 154.257L216.116 184.257Z" fill="#8BC5E4"/>
<path d="M220.369 174.762V215.862L168.407 185.862V144.762L220.369 174.762Z" fill="#8BC5E4"/>
<path d="M214.54 225.927L62.5875 313.657L10.626 283.657L162.579 195.927L214.54 225.927Z" fill="#8BC5E4"/>
<path d="M56.7593 310.322V184.932L4.79785 154.932V280.322L56.7593 310.322Z" fill="#8BC5E4"/>
<path d="M82.8956 149.572L130.103 122.317L78.1412 92.3171L30.9341 119.572L82.8956 149.572Z" fill="#8BC5E4"/>
<path d="M130.103 122.317V134.917L78.1416 104.917V92.3171L130.103 122.317Z" fill="#8BC5E4"/>
<path d="M130.103 134.917L147.631 108.497L95.6699 78.4973L78.1416 104.917L130.103 134.917Z" fill="#8BC5E4"/>
<path d="M147.631 108.497L130.103 100.437L78.1416 70.4373L95.6699 78.4973L147.631 108.497Z" fill="#8BC5E4"/>
<path d="M130.103 100.437V114.737L78.1416 84.7373V70.4373L130.103 100.437Z" fill="#8BC5E4"/>
<path d="M130.103 114.737L85.0002 140.777L33.0386 110.777L78.1413 84.7373L130.103 114.737Z" fill="#8BC5E4"/>
<path d="M61.9468 165.537L61.9035 165.602L9.94189 135.602L9.98519 135.537L61.9468 165.537Z" fill="#8BC5E4"/>
<path d="M61.9034 165.602L61.8687 165.662L9.90723 135.662L9.94183 135.602L61.9034 165.602Z" fill="#8BC5E4"/>
<path d="M56.7593 177.592V134.752L4.79785 104.752V147.592L56.7593 177.592Z" fill="#8BC5E4"/>
<path d="M62.5875 124.697L10.626 94.6973L62.5875 124.697Z" fill="#8BC5E4"/>
<path d="M143.812 139.242L147.51 124.077L95.5486 94.0771L91.8506 109.242L143.812 139.242Z" fill="#8BC5E4"/>
<path d="M147.51 124.077L150.957 123.377L98.995 93.3772L95.5483 94.0772L147.51 124.077Z" fill="#8BC5E4"/>
<path d="M150.957 123.377L147.536 137.392L95.5742 107.392L98.995 93.3772L150.957 123.377Z" fill="#8BC5E4"/>
<path d="M153.278 137.307L175.803 124.322L123.842 94.3223L101.316 107.307L153.278 137.307Z" fill="#8BC5E4"/>
<path d="M183.329 116.477L186.931 101.707L134.97 71.7073L131.367 86.4773L183.329 116.477Z" fill="#8BC5E4"/>
<path d="M186.931 101.707L190.378 101.017L138.417 71.0173L134.97 71.7073L186.931 101.707Z" fill="#8BC5E4"/>
<path d="M190.378 101.017L187.105 114.417L135.143 84.4173L138.417 71.0173L190.378 101.017Z" fill="#8BC5E4"/>
<path d="M193.66 114.032L201.94 109.262L149.978 79.2622L141.699 84.0322L193.66 114.032Z" fill="#8BC5E4"/>
<path d="M201.94 109.262L201.931 113.437L149.97 83.4372L149.978 79.2622L201.94 109.262Z" fill="#8BC5E4"/>
<path d="M201.931 113.437L192.829 118.682L140.868 88.6823L149.97 83.4373L201.931 113.437Z" fill="#8BC5E4"/>
<path d="M184.238 126.182L178.618 149.197L126.656 119.197L132.277 96.1824L184.238 126.182Z" fill="#8BC5E4"/>
<path d="M183.762 148.577L196.146 141.437L144.184 111.437L131.8 118.577L183.762 148.577Z" fill="#8BC5E4"/>
<path d="M196.146 141.437V145.607L144.185 115.607V111.437L196.146 141.437Z" fill="#8BC5E4"/>
<path d="M196.146 145.607L184.463 152.342L132.502 122.342L144.185 115.607L196.146 145.607Z" fill="#8BC5E4"/>
<path d="M175.769 160.852L170.702 181.607L118.741 151.607L123.807 130.852L175.769 160.852Z" fill="#8BC5E4"/>
<path d="M175.586 181.007L190.456 172.442L138.495 142.442L123.625 151.007L175.586 181.007Z" fill="#8BC5E4"/>
<path d="M190.456 172.442L190.447 176.617L138.486 146.617L138.495 142.442L190.456 172.442Z" fill="#8BC5E4"/>
<path d="M190.448 176.617L176.479 184.662L124.517 154.662L138.486 146.617L190.448 176.617Z" fill="#8BC5E4"/>
<path d="M167.862 193.237L164.822 205.702L112.86 175.702L115.9 163.237L167.862 193.237Z" fill="#8BC5E4"/>
<path d="M164.822 205.702L161.375 206.402L109.414 176.402L112.86 175.702L164.822 205.702Z" fill="#8BC5E4"/>
<path d="M161.375 206.402L164.146 195.042L112.185 165.042L109.414 176.402L161.375 206.402Z" fill="#8BC5E4"/>
<path d="M158.552 194.992L136.442 207.737L84.481 177.737L106.591 164.992L158.552 194.992Z" fill="#8BC5E4"/>
<path d="M128.336 216.037L125.401 228.072L73.439 198.072L76.3749 186.037L128.336 216.037Z" fill="#8BC5E4"/>
<path d="M125.401 228.072L121.954 228.762L69.9922 198.762L73.439 198.072L125.401 228.072Z" fill="#8BC5E4"/>
<path d="M121.954 228.762L124.586 217.982L72.625 187.982L69.9922 198.762L121.954 228.762Z" fill="#8BC5E4"/>
<path d="M118.472 218.092L96.6569 230.657L44.6953 200.657L66.5105 188.092L118.472 218.092Z" fill="#8BC5E4"/>
<path d="M88.8801 238.797L85.7969 251.407L33.8354 221.407L36.9184 208.797L88.8801 238.797Z" fill="#8BC5E4"/>
<path d="M85.797 251.407L82.3502 252.107L30.3887 222.107L33.8355 221.407L85.797 251.407Z" fill="#8BC5E4"/>
<path d="M82.3502 252.107L85.1042 240.827L33.1427 210.827L30.3887 222.107L82.3502 252.107Z" fill="#8BC5E4"/>
<path d="M78.635 241.042L67.3853 247.527L15.4238 217.527L26.6735 211.042L78.635 241.042Z" fill="#8BC5E4"/>
<path d="M67.3853 247.527V243.357L15.4238 213.357V217.527L67.3853 247.527Z" fill="#8BC5E4"/>
<path d="M67.3853 243.357L79.7002 236.257L27.7387 206.257L15.4238 213.357L67.3853 243.357Z" fill="#8BC5E4"/>
<path d="M87.9708 229.072L93.0111 208.432L41.0496 178.432L36.0093 199.072L87.9708 229.072Z" fill="#8BC5E4"/>
<path d="M86.6979 208.677L73.0753 216.522L21.1138 186.522L34.7364 178.677L86.6979 208.677Z" fill="#8BC5E4"/>
<path d="M73.0753 216.522V212.352L21.1138 182.352V186.522L73.0753 216.522Z" fill="#8BC5E4"/>
<path d="M73.0753 212.352L87.5812 203.997L35.6197 173.997L21.1138 182.352L73.0753 212.352Z" fill="#8BC5E4"/>
<path d="M95.8775 196.687L101.507 173.647L49.5452 143.647L43.916 166.687L95.8775 196.687Z" fill="#8BC5E4"/>
<path d="M96.5269 174.172L78.8599 184.352L26.8984 154.352L44.5653 144.172L96.5269 174.172Z" fill="#8BC5E4"/>
<path d="M78.8599 184.352L78.8686 180.177L26.9071 150.177L26.8984 154.352L78.8599 184.352Z" fill="#8BC5E4"/>
<path d="M78.8687 180.177L95.8774 170.377L43.9159 140.377L26.9072 150.177L78.8687 180.177Z" fill="#8BC5E4"/>
<path d="M104.338 162.032L107.906 147.412L55.945 117.412L52.377 132.032L104.338 162.032Z" fill="#8BC5E4"/>
<path d="M107.907 147.412L111.354 146.722L59.3921 116.722L55.9453 117.412L107.907 147.412Z" fill="#8BC5E4"/>
<path d="M111.353 146.722L108.063 160.212L56.1011 130.212L59.392 116.722L111.353 146.722Z" fill="#8BC5E4"/>
<path d="M113.614 160.157L135.472 147.567L83.5108 117.567L61.6523 130.157L113.614 160.157Z" fill="#8BC5E4"/>
<path d="M143.812 139.242L91.8506 109.242L143.812 139.242Z" fill="#8BC5E4"/>
<path d="M152.524 141.902L176.608 128.027L124.647 98.0273L100.562 111.902L152.524 141.902Z" fill="#8BC5E4"/>
<path d="M180.566 127.782L174.877 151.087L122.915 121.087L128.605 97.7822L180.566 127.782Z" fill="#8BC5E4"/>
<path d="M167.402 158.002L143.535 171.752L91.5732 141.752L115.441 128.002L167.402 158.002Z" fill="#8BC5E4"/>
<path d="M139.049 172.162L144.695 149.022L92.7339 119.022L87.0874 142.162L139.049 172.162Z" fill="#8BC5E4"/>
<path d="M152.524 141.902L100.562 111.902L152.524 141.902Z" fill="#8BC5E4"/>
<path d="M144.315 175.472L166.684 162.587L114.723 132.587L92.353 145.472L144.315 175.472Z" fill="#8BC5E4"/>
<path d="M172.062 162.622L166.97 183.462L115.008 153.462L120.101 132.622L172.062 162.622Z" fill="#8BC5E4"/>
<path d="M159.47 190.302L135.489 204.117L83.5278 174.117L107.508 160.302L159.47 190.302Z" fill="#8BC5E4"/>
<path d="M131.142 204.557L136.243 183.652L84.2816 153.652L79.1807 174.557L131.142 204.557Z" fill="#8BC5E4"/>
<path d="M144.315 175.472L92.353 145.472L144.315 175.472Z" fill="#8BC5E4"/>
<path d="M104.598 198.362L126.483 185.747L74.5212 155.747L52.6367 168.362L104.598 198.362Z" fill="#8BC5E4"/>
<path d="M132.493 185.587L127.444 206.272L75.4829 176.272L80.5318 155.587L132.493 185.587Z" fill="#8BC5E4"/>
<path d="M119.46 213.352L95.6265 227.082L43.665 197.082L67.498 183.352L119.46 213.352Z" fill="#8BC5E4"/>
<path d="M91.6514 227.437L96.787 206.422L44.8254 176.422L39.6899 197.437L91.6514 227.437Z" fill="#8BC5E4"/>
<path d="M104.598 198.362L52.6367 168.362L104.598 198.362Z" fill="#8BC5E4"/>
<path d="M112.947 164.712L136.208 151.312L84.2468 121.312L60.9854 134.712L112.947 164.712Z" fill="#8BC5E4"/>
<path d="M140.98 150.817L135.351 173.887L83.3896 143.887L89.0187 120.817L140.98 150.817Z" fill="#8BC5E4"/>
<path d="M127.279 181.117L103.741 194.687L51.7793 164.687L75.3179 151.117L127.279 181.117Z" fill="#8BC5E4"/>
<path d="M99.567 195.027L105.231 171.807L53.2693 141.807L47.6055 165.027L99.567 195.027Z" fill="#8BC5E4"/>
<path d="M112.947 164.712L60.9854 134.712L112.947 164.712Z" fill="#8BC5E4"/>
<path d="M143.812 139.242C139.984 141.582 136.693 144.862 135.472 147.567L83.5107 117.567C84.7318 114.862 88.0227 111.582 91.8505 109.242L143.812 139.242Z" fill="#8BC5E4"/>
<path d="M113.614 160.157C113.494 160.033 113.354 159.927 113.196 159.837L61.2349 129.837C61.3929 129.927 61.5329 130.033 61.6522 130.157L113.614 160.157Z" fill="#8BC5E4"/>
<path d="M113.196 159.837C112.164 159.251 110.334 159.379 108.07 160.209L56.1089 130.209C58.3729 129.379 60.2029 129.251 61.2349 129.837L113.196 159.837Z" fill="#8BC5E4"/>
<path d="M104.339 162.032C100.494 164.342 97.1333 167.652 95.8775 170.377L43.916 140.377C45.1718 137.652 48.5319 134.342 52.3771 132.032L104.339 162.032Z" fill="#8BC5E4"/>
<path d="M96.527 174.172C97.6182 174.632 99.3849 174.442 101.507 173.647L49.5451 143.647C47.4233 144.442 45.6566 144.632 44.5654 144.172L96.527 174.172Z" fill="#8BC5E4"/>
<path d="M95.8775 196.687C95.8083 196.727 95.7303 196.762 95.6524 196.807L43.6909 166.807C43.7688 166.762 43.8467 166.727 43.916 166.687L95.8775 196.687Z" fill="#8BC5E4"/>
<path d="M95.6525 196.807C92.3356 198.722 89.2699 201.452 87.5811 203.997L35.6196 173.997C37.3084 171.452 40.3741 168.722 43.691 166.807L95.6525 196.807Z" fill="#8BC5E4"/>
<path d="M86.6978 208.677C86.8265 208.827 86.9825 208.954 87.1625 209.059L35.201 179.059C35.021 178.954 34.865 178.827 34.7363 178.677L86.6978 208.677Z" fill="#8BC5E4"/>
<path d="M87.1612 209.059C88.2982 209.724 90.4112 209.507 93.0022 208.436L41.0407 178.436C38.4497 179.507 36.3367 179.724 35.1997 179.059L87.1612 209.059Z" fill="#8BC5E4"/>
<path d="M87.9709 229.072C87.867 229.132 87.7631 229.182 87.6505 229.247L35.689 199.247C35.8016 199.182 35.9055 199.132 36.0094 199.072L87.9709 229.072Z" fill="#8BC5E4"/>
<path d="M87.6504 229.247C84.4201 231.122 81.415 233.767 79.7003 236.257L27.7388 206.257C29.4535 203.767 32.4586 201.122 35.6889 199.247L87.6504 229.247Z" fill="#8BC5E4"/>
<path d="M78.6348 241.042C78.7732 241.223 78.9472 241.374 79.1542 241.496L27.1927 211.496C26.9857 211.374 26.8117 211.223 26.6733 211.042L78.6348 241.042Z" fill="#8BC5E4"/>
<path d="M79.1534 241.495C80.3024 242.173 82.4554 241.947 85.0954 240.831L33.1339 210.831C30.4939 211.947 28.3409 212.173 27.1919 211.495L79.1534 241.495Z" fill="#8BC5E4"/>
<path d="M88.8801 238.797C92.552 236.407 95.6004 233.217 96.657 230.657L44.6954 200.657C43.6389 203.217 40.5905 206.407 36.9185 208.797L88.8801 238.797Z" fill="#8BC5E4"/>
<path d="M118.472 218.092C118.605 218.256 118.768 218.395 118.96 218.508L66.998 188.508C66.806 188.395 66.643 188.256 66.5107 188.092L118.472 218.092Z" fill="#8BC5E4"/>
<path d="M118.959 218.508C120.056 219.159 122.082 218.983 124.578 217.985L72.6161 187.985C70.1201 188.983 68.0941 189.159 66.9971 188.508L118.959 218.508Z" fill="#8BC5E4"/>
<path d="M128.336 216.037C132.129 213.657 135.334 210.377 136.442 207.737L84.4805 177.737C83.3719 180.377 80.1676 183.657 76.3745 186.037L128.336 216.037Z" fill="#8BC5E4"/>
<path d="M158.552 194.992C158.689 195.155 158.857 195.291 159.054 195.402L107.093 165.402C106.896 165.291 106.728 165.155 106.59 164.992L158.552 194.992Z" fill="#8BC5E4"/>
<path d="M159.053 195.402C160.083 195.984 161.894 195.861 164.138 195.045L112.177 165.045C109.933 165.861 108.122 165.984 107.092 165.402L159.053 195.402Z" fill="#8BC5E4"/>
<path d="M167.861 193.237C171.828 190.867 175.275 187.437 176.478 184.662L124.517 154.662C123.313 157.437 119.866 160.867 115.9 163.237L167.861 193.237Z" fill="#8BC5E4"/>
<path d="M175.587 181.007C174.478 180.627 172.755 180.832 170.702 181.607L118.741 151.607C120.793 150.832 122.517 150.627 123.625 151.007L175.587 181.007Z" fill="#8BC5E4"/>
<path d="M175.769 160.852C179.718 158.532 183.19 155.127 184.464 152.342L132.502 122.342C131.229 125.127 127.756 128.532 123.807 130.852L175.769 160.852Z" fill="#8BC5E4"/>
<path d="M183.762 148.577C182.627 148.122 180.8 148.347 178.618 149.197L126.656 119.197C128.839 118.347 130.666 118.122 131.8 118.577L183.762 148.577Z" fill="#8BC5E4"/>
<path d="M184.238 126.182C184.394 126.102 184.559 126.017 184.723 125.922L132.762 95.9224C132.597 96.0174 132.433 96.1024 132.277 96.1824L184.238 126.182Z" fill="#8BC5E4"/>
<path d="M184.723 125.922C188.066 123.992 191.149 121.232 192.829 118.682L140.868 88.6824C139.188 91.2324 136.105 93.9924 132.762 95.9224L184.723 125.922Z" fill="#8BC5E4"/>
<path d="M193.66 114.032C193.541 113.899 193.399 113.784 193.238 113.687L141.277 83.6873C141.438 83.7843 141.58 83.8993 141.699 84.0323L193.66 114.032Z" fill="#8BC5E4"/>
<path d="M193.238 113.687C192.068 112.983 189.834 113.23 187.113 114.413L135.152 84.4133C137.873 83.2303 140.107 82.9833 141.277 83.6873L193.238 113.687Z" fill="#8BC5E4"/>
<path d="M183.329 116.477C179.813 118.797 176.903 121.837 175.803 124.322L123.841 94.3223C124.941 91.8373 127.851 88.7973 131.367 86.4773L183.329 116.477Z" fill="#8BC5E4"/>
<path d="M153.278 137.307C153.158 137.176 153.016 137.063 152.854 136.968L100.892 106.968C101.054 107.063 101.196 107.176 101.316 107.307L153.278 137.307Z" fill="#8BC5E4"/>
<path d="M152.854 136.969C151.799 136.348 149.899 136.49 147.545 137.389L95.583 107.389C97.937 106.49 99.837 106.348 100.892 106.969L152.854 136.969Z" fill="#8BC5E4"/>
<path d="M136.208 151.312C137.273 151.727 138.962 151.552 140.98 150.817L89.0184 120.817C87.0006 121.552 85.3118 121.727 84.2466 121.312L136.208 151.312Z" fill="#8BC5E4"/>
<path d="M135.351 173.887C132.017 175.822 128.951 178.572 127.28 181.117L75.3184 151.117C76.9898 148.572 80.0556 145.822 83.3898 143.887L135.351 173.887Z" fill="#8BC5E4"/>
<path d="M103.741 194.687C102.771 194.337 101.308 194.462 99.567 195.027L47.6055 165.027C49.3462 164.462 50.8098 164.337 51.7797 164.687L103.741 194.687Z" fill="#8BC5E4"/>
<path d="M105.231 171.807C108.461 169.842 111.371 167.172 112.947 164.712L60.9853 134.712C59.4091 137.172 56.4993 139.842 53.269 141.807L105.231 171.807Z" fill="#8BC5E4"/>
<path d="M176.608 128.027C177.535 128.372 178.912 128.287 180.566 127.782L128.605 97.7822C126.951 98.2872 125.574 98.3722 124.647 98.0272L176.608 128.027Z" fill="#8BC5E4"/>
<path d="M174.876 151.087C171.75 153.022 168.953 155.607 167.402 158.002L115.441 128.002C116.991 125.607 119.788 123.022 122.915 121.087L174.876 151.087Z" fill="#8BC5E4"/>
<path d="M143.535 171.752C142.513 171.362 140.937 171.512 139.049 172.162L87.0874 142.162C88.9753 141.512 90.5515 141.362 91.5734 141.752L143.535 171.752Z" fill="#8BC5E4"/>
<path d="M144.695 149.022C147.952 147.082 150.913 144.382 152.524 141.902L100.563 111.902C98.9519 114.382 95.9901 117.082 92.7339 119.022L144.695 149.022Z" fill="#8BC5E4"/>
<path d="M126.483 185.747C126.604 185.885 126.75 186.004 126.917 186.103L74.956 156.103C74.789 156.004 74.643 155.885 74.5215 155.747L126.483 185.747Z" fill="#8BC5E4"/>
<path d="M126.917 186.103C128.006 186.75 130.018 186.572 132.485 185.59L80.5231 155.59C78.0561 156.572 76.0441 156.75 74.9551 156.103L126.917 186.103Z" fill="#8BC5E4"/>
<path d="M127.444 206.272C124.188 208.162 121.166 210.837 119.46 213.352L67.498 183.352C69.2041 180.837 72.2265 178.162 75.4828 176.272L127.444 206.272Z" fill="#8BC5E4"/>
<path d="M95.6265 227.082C94.6739 226.792 93.2882 226.912 91.6514 227.437L39.6899 197.437C41.3267 196.912 42.7123 196.792 43.665 197.082L95.6265 227.082Z" fill="#8BC5E4"/>
<path d="M96.7868 206.422C100.424 204.072 103.481 200.927 104.598 198.362L52.6368 168.362C51.5196 170.927 48.4626 174.072 44.8252 176.422L96.7868 206.422Z" fill="#8BC5E4"/>
<path d="M166.684 162.587C166.809 162.721 166.957 162.837 167.126 162.933L115.165 132.933C114.996 132.837 114.848 132.721 114.722 132.587L166.684 162.587Z" fill="#8BC5E4"/>
<path d="M167.127 162.933C168.129 163.501 169.88 163.401 172.055 162.625L120.093 132.625C117.918 133.401 116.167 133.501 115.165 132.933L167.127 162.933Z" fill="#8BC5E4"/>
<path d="M166.97 183.462C163.869 185.352 161.063 187.912 159.47 190.302L107.508 160.302C109.102 157.912 111.908 155.352 115.008 153.462L166.97 183.462Z" fill="#8BC5E4"/>
<path d="M135.49 204.117C134.468 203.777 132.952 203.932 131.142 204.557L79.1807 174.557C80.9907 173.932 82.5062 173.777 83.5281 174.117L135.49 204.117Z" fill="#8BC5E4"/>
<path d="M136.243 183.652C139.976 181.317 143.145 178.097 144.315 175.472L92.353 145.472C91.1839 148.097 88.0142 151.317 84.2817 153.652L136.243 183.652Z" fill="#8BC5E4"/>
<path d="M62.5876 119.177C56.742 122.552 51.9615 130.802 51.9615 137.522L0 107.522C0 100.802 4.7804 92.5522 10.6261 89.1772L62.5876 119.177Z" fill="#8BC5E4"/>
<path d="M51.9615 313.092C51.9615 316.459 53.1615 318.826 55.0935 319.927L3.132 289.927C1.2 288.826 0 286.459 0 283.092L51.9615 313.092Z" fill="#8BC5E4"/>
<path d="M55.1026 319.931C57.0246 321.021 59.6696 320.859 62.5796 319.182L10.6181 289.182C7.70811 290.859 5.06311 291.021 3.14111 289.931L55.1026 319.931Z" fill="#8BC5E4"/>
<path d="M214.54 231.447C220.386 228.072 225.166 219.812 225.166 213.092L173.205 183.092C173.205 189.812 168.424 198.072 162.579 201.447L214.54 231.447Z" fill="#8BC5E4"/>
<path d="M225.167 37.5223C225.167 34.1493 223.963 31.7813 222.024 30.6863L170.062 0.686279C172.001 1.78128 173.205 4.14928 173.205 7.52228L225.167 37.5223Z" fill="#8BC5E4"/>
<path d="M222.025 30.6882C220.103 29.6012 217.458 29.7652 214.549 31.4422L162.588 1.44224C165.497 -0.234765 168.142 -0.398765 170.064 0.688235L222.025 30.6882Z" fill="#8BC5E4"/>
<path d="M214.54 36.9673C216.17 36.0263 217.622 35.9143 218.669 36.5043L166.708 6.50433C165.661 5.91433 164.209 6.02633 162.579 6.96733L214.54 36.9673Z" fill="#8BC5E4"/>
<path d="M218.68 36.5103C219.728 37.1063 220.367 38.4083 220.368 40.2863L168.407 10.2863C168.406 8.40825 167.767 7.10625 166.719 6.51025L218.68 36.5103Z" fill="#8BC5E4"/>
<path d="M220.369 167.632C218.55 172.602 215.909 177.347 212.852 182.202L160.89 152.202C163.947 147.347 166.589 142.602 168.407 137.632L220.369 167.632Z" fill="#8BC5E4"/>
<path d="M212.852 182.202C208.305 188.987 201.273 196.737 195.124 200.287L143.163 170.287C149.311 166.737 156.343 158.987 160.89 152.202L212.852 182.202Z" fill="#8BC5E4"/>
<path d="M193.028 209.067C204.52 202.432 211.44 192.027 216.082 184.307L164.12 154.307C159.478 162.027 152.559 172.432 141.067 179.067L193.028 209.067Z" fill="#8BC5E4"/>
<path d="M216.16 184.192C217.268 182.172 218.844 178.832 220.369 174.762L168.407 144.762C166.883 148.832 165.307 152.172 164.198 154.192L216.16 184.192Z" fill="#8BC5E4"/>
<path d="M220.369 215.862C220.369 219.622 217.814 224.037 214.54 225.927L162.579 195.927C165.852 194.037 168.407 189.622 168.407 185.862L220.369 215.862Z" fill="#8BC5E4"/>
<path d="M62.5875 313.657C60.9504 314.602 59.4934 314.708 58.4454 314.108L6.48389 284.108C7.53189 284.708 8.98889 284.602 10.626 283.657L62.5875 313.657Z" fill="#8BC5E4"/>
<path d="M58.4474 314.109C57.3994 313.51 56.7603 312.205 56.7593 310.328L4.79785 280.328C4.79885 282.205 5.43785 283.51 6.48585 284.109L58.4474 314.109Z" fill="#8BC5E4"/>
<path d="M56.7593 184.932C58.5346 178.967 61.5658 173.377 65.1771 167.652L13.2156 137.652C9.60425 143.377 6.57315 148.967 4.79785 154.932L56.7593 184.932Z" fill="#8BC5E4"/>
<path d="M65.1768 167.652C69.7148 160.872 76.7469 153.122 82.8957 149.572L30.9342 119.572C24.7854 123.122 17.7533 130.872 13.2153 137.652L65.1768 167.652Z" fill="#8BC5E4"/>
<path d="M85.0005 140.777C73.5084 147.412 66.5889 157.827 61.947 165.537L9.98535 135.537C14.6273 127.827 21.5469 117.412 33.039 110.777L85.0005 140.777Z" fill="#8BC5E4"/>
<path d="M61.8689 165.662C60.5353 168.092 58.5261 172.402 56.7593 177.592L4.79785 147.592C6.56445 142.402 8.57365 138.092 9.90735 135.662L61.8689 165.662Z" fill="#8BC5E4"/>
<path d="M56.7593 134.752C56.7593 130.992 59.3142 126.587 62.5877 124.697L10.6262 94.6973C7.35255 96.5873 4.79785 100.992 4.79785 104.752L56.7593 134.752Z" fill="#8BC5E4"/>
<path d="M214.54 36.9673C216.17 36.0263 217.622 35.9143 218.669 36.5043L166.708 6.50433C165.661 5.91433 164.209 6.02633 162.579 6.96733L214.54 36.9673Z" fill="#8BC5E4"/>
<path d="M218.68 36.5103C219.728 37.1063 220.367 38.4083 220.368 40.2863L168.407 10.2863C168.406 8.40825 167.767 7.10625 166.719 6.51025L218.68 36.5103Z" fill="#8BC5E4"/>
<path d="M220.369 167.632C218.55 172.602 215.909 177.347 212.852 182.202L160.89 152.202C163.947 147.347 166.589 142.602 168.407 137.632L220.369 167.632Z" fill="#8BC5E4"/>
<path d="M212.852 182.202C208.305 188.987 201.273 196.737 195.124 200.287L143.163 170.287C149.311 166.737 156.343 158.987 160.89 152.202L212.852 182.202Z" fill="#8BC5E4"/>
<path d="M193.028 209.067C204.52 202.432 211.44 192.027 216.082 184.307L164.12 154.307C159.478 162.027 152.559 172.432 141.067 179.067L193.028 209.067Z" fill="#8BC5E4"/>
<path d="M216.16 184.192C217.268 182.172 218.844 178.832 220.369 174.762L168.407 144.762C166.883 148.832 165.307 152.172 164.198 154.192L216.16 184.192Z" fill="#8BC5E4"/>
<path d="M220.369 215.862C220.369 219.622 217.814 224.037 214.54 225.927L162.579 195.927C165.852 194.037 168.407 189.622 168.407 185.862L220.369 215.862Z" fill="#8BC5E4"/>
<path d="M62.5875 313.657C60.9504 314.602 59.4934 314.708 58.4454 314.108L6.48389 284.108C7.53189 284.708 8.98889 284.602 10.626 283.657L62.5875 313.657Z" fill="#8BC5E4"/>
<path d="M58.4474 314.109C57.3994 313.51 56.7603 312.205 56.7593 310.328L4.79785 280.328C4.79885 282.205 5.43785 283.51 6.48585 284.109L58.4474 314.109Z" fill="#8BC5E4"/>
<path d="M56.7593 184.932C58.5346 178.967 61.5658 173.377 65.1771 167.652L13.2156 137.652C9.60425 143.377 6.57315 148.967 4.79785 154.932L56.7593 184.932Z" fill="#8BC5E4"/>
<path d="M65.1768 167.652C69.7148 160.872 76.7469 153.122 82.8957 149.572L30.9342 119.572C24.7854 123.122 17.7533 130.872 13.2153 137.652L65.1768 167.652Z" fill="#8BC5E4"/>
<path d="M85.0005 140.777C73.5084 147.412 66.5889 157.827 61.947 165.537L9.98535 135.537C14.6273 127.827 21.5469 117.412 33.039 110.777L85.0005 140.777Z" fill="#8BC5E4"/>
<path d="M61.8689 165.662C60.5353 168.092 58.5261 172.402 56.7593 177.592L4.79785 147.592C6.56445 142.402 8.57365 138.092 9.90735 135.662L61.8689 165.662Z" fill="#8BC5E4"/>
<path d="M56.7593 134.752C56.7593 130.992 59.3142 126.587 62.5877 124.697L10.6262 94.6973C7.35255 96.5873 4.79785 100.992 4.79785 104.752L56.7593 134.752Z" fill="#8BC5E4"/>
<path d="M147.536 137.392C149.894 136.49 151.796 136.348 152.853 136.968L100.892 106.968C99.8347 106.348 97.9327 106.49 95.5742 107.392L147.536 137.392Z" fill="#8BC5E4"/>
<path d="M152.847 136.964C153.009 137.059 153.151 137.171 153.272 137.301L101.311 107.301C101.19 107.171 101.048 107.059 100.886 106.964L152.847 136.964Z" fill="#8BC5E4"/>
<path d="M175.803 124.322C176.903 121.837 179.813 118.797 183.329 116.477L131.367 86.4773C127.851 88.7973 124.941 91.8373 123.841 94.3223L175.803 124.322Z" fill="#8BC5E4"/>
<path d="M187.105 114.417C189.829 113.23 192.066 112.983 193.238 113.687L141.277 83.6873C140.105 82.9833 137.868 83.2303 135.143 84.4173L187.105 114.417Z" fill="#8BC5E4"/>
<path d="M193.232 113.683C193.393 113.779 193.535 113.894 193.655 114.026L141.693 84.0263C141.573 83.8943 141.431 83.7793 141.27 83.6833L193.232 113.683Z" fill="#8BC5E4"/>
<path d="M192.829 118.682C191.149 121.232 188.066 123.992 184.723 125.922L132.762 95.9224C136.105 93.9924 139.188 91.2324 140.868 88.6824L192.829 118.682Z" fill="#8BC5E4"/>
<path d="M184.723 125.922C184.559 126.017 184.394 126.102 184.238 126.182L132.277 96.1824C132.433 96.1024 132.597 96.0174 132.762 95.9224L184.723 125.922Z" fill="#8BC5E4"/>
<path d="M178.618 149.197C180.8 148.347 182.627 148.122 183.762 148.577L131.8 118.577C130.666 118.122 128.839 118.347 126.656 119.197L178.618 149.197Z" fill="#8BC5E4"/>
<path d="M184.464 152.342C183.19 155.127 179.718 158.532 175.769 160.852L123.807 130.852C127.756 128.532 131.229 125.127 132.502 122.342L184.464 152.342Z" fill="#8BC5E4"/>
<path d="M170.702 181.607C172.755 180.832 174.478 180.627 175.587 181.007L123.625 151.007C122.517 150.627 120.793 150.832 118.741 151.607L170.702 181.607Z" fill="#8BC5E4"/>
<path d="M176.478 184.662C175.275 187.437 171.828 190.867 167.861 193.237L115.9 163.237C119.866 160.867 123.313 157.437 124.517 154.662L176.478 184.662Z" fill="#8BC5E4"/>
<path d="M164.146 195.042C161.898 195.861 160.085 195.985 159.054 195.402L107.093 165.402C108.124 165.985 109.937 165.861 112.185 165.042L164.146 195.042Z" fill="#8BC5E4"/>
<path d="M159.045 195.398C158.854 195.289 158.691 195.156 158.556 194.998L106.595 164.998C106.73 165.156 106.893 165.289 107.084 165.398L159.045 195.398Z" fill="#8BC5E4"/>
<path d="M136.442 207.737C135.334 210.377 132.129 213.657 128.336 216.037L76.3745 186.037C80.1676 183.657 83.3719 180.377 84.4805 177.737L136.442 207.737Z" fill="#8BC5E4"/>
<path d="M124.586 217.982C122.087 218.983 120.058 219.16 118.96 218.508L66.998 188.508C68.096 189.16 70.125 188.983 72.6249 187.982L124.586 217.982Z" fill="#8BC5E4"/>
<path d="M118.966 218.512C118.775 218.399 118.611 218.261 118.478 218.098L66.5161 188.098C66.6491 188.261 66.8131 188.399 67.0041 188.512L118.966 218.512Z" fill="#8BC5E4"/>
<path d="M96.657 230.657C95.6004 233.217 92.552 236.407 88.8801 238.797L36.9185 208.797C40.5905 206.407 43.6389 203.217 44.6954 200.657L96.657 230.657Z" fill="#8BC5E4"/>
<path d="M85.1042 240.827C82.4614 241.946 80.3044 242.174 79.1544 241.496L27.1929 211.496C28.3429 212.174 30.4999 211.946 33.1427 210.827L85.1042 240.827Z" fill="#8BC5E4"/>
<path d="M79.1452 241.49C78.9452 241.371 78.7762 241.224 78.6402 241.049L26.6787 211.049C26.8147 211.224 26.9837 211.371 27.1837 211.49L79.1452 241.49Z" fill="#8BC5E4"/>
<path d="M79.7003 236.257C81.415 233.767 84.4201 231.122 87.6504 229.247L35.6889 199.247C32.4586 201.122 29.4535 203.767 27.7388 206.257L79.7003 236.257Z" fill="#8BC5E4"/>
<path d="M87.6505 229.247C87.7631 229.182 87.867 229.132 87.9709 229.072L36.0094 199.072C35.9055 199.132 35.8016 199.182 35.689 199.247L87.6505 229.247Z" fill="#8BC5E4"/>
<path d="M93.0108 208.432C90.4162 209.507 88.3002 209.725 87.1622 209.059L35.2007 179.059C36.3387 179.725 38.4547 179.507 41.0493 178.432L93.0108 208.432Z" fill="#8BC5E4"/>
<path d="M87.1532 209.054C86.9792 208.951 86.8292 208.828 86.7032 208.683L34.7417 178.683C34.8677 178.828 35.0177 178.951 35.1917 179.054L87.1532 209.054Z" fill="#8BC5E4"/>
<path d="M87.5811 203.997C89.2699 201.452 92.3356 198.722 95.6525 196.807L43.691 166.807C40.3741 168.722 37.3084 171.452 35.6196 173.997L87.5811 203.997Z" fill="#8BC5E4"/>
<path d="M95.6524 196.807C95.7303 196.762 95.8083 196.727 95.8775 196.687L43.916 166.687C43.8467 166.727 43.7688 166.762 43.6909 166.807L95.6524 196.807Z" fill="#8BC5E4"/>
<path d="M101.507 173.647C99.3849 174.442 97.6182 174.632 96.527 174.172L44.5654 144.172C45.6566 144.632 47.4233 144.442 49.5451 143.647L101.507 173.647Z" fill="#8BC5E4"/>
<path d="M95.8775 170.377C97.1333 167.652 100.494 164.342 104.339 162.032L52.3771 132.032C48.5319 134.342 45.1718 137.652 43.916 140.377L95.8775 170.377Z" fill="#8BC5E4"/>
<path d="M108.063 160.212C110.33 159.38 112.162 159.25 113.196 159.837L61.235 129.837C60.201 129.25 58.369 129.38 56.1011 130.212L108.063 160.212Z" fill="#8BC5E4"/>
<path d="M113.205 159.842C113.357 159.929 113.493 160.033 113.609 160.152L61.6472 130.152C61.5312 130.033 61.3952 129.929 61.2432 129.842L113.205 159.842Z" fill="#8BC5E4"/>
<path d="M135.472 147.567C136.693 144.862 139.984 141.582 143.812 139.242L91.8505 109.242C88.0227 111.582 84.7318 114.862 83.5107 117.567L135.472 147.567Z" fill="#8BC5E4"/>
<path d="M176.608 128.027C177.535 128.372 178.912 128.287 180.566 127.782L128.605 97.7822C126.951 98.2872 125.574 98.3722 124.647 98.0272L176.608 128.027Z" fill="#8BC5E4"/>
<path d="M174.876 151.087C171.75 153.022 168.953 155.607 167.402 158.002L115.441 128.002C116.991 125.607 119.788 123.022 122.915 121.087L174.876 151.087Z" fill="#8BC5E4"/>
<path d="M143.535 171.752C142.513 171.362 140.937 171.512 139.049 172.162L87.0874 142.162C88.9753 141.512 90.5515 141.362 91.5734 141.752L143.535 171.752Z" fill="#8BC5E4"/>
<path d="M144.695 149.022C147.952 147.082 150.913 144.382 152.524 141.902L100.563 111.902C98.9519 114.382 95.9901 117.082 92.7339 119.022L144.695 149.022Z" fill="#8BC5E4"/>
<path d="M166.684 162.587C166.809 162.721 166.957 162.837 167.126 162.933L115.165 132.933C114.996 132.837 114.848 132.721 114.722 132.587L166.684 162.587Z" fill="#8BC5E4"/>
<path d="M167.127 162.933C168.129 163.501 169.88 163.401 172.055 162.625L120.093 132.625C117.918 133.401 116.167 133.501 115.165 132.933L167.127 162.933Z" fill="#8BC5E4"/>
<path d="M166.97 183.462C163.869 185.352 161.063 187.912 159.47 190.302L107.508 160.302C109.102 157.912 111.908 155.352 115.008 153.462L166.97 183.462Z" fill="#8BC5E4"/>
<path d="M135.49 204.117C134.468 203.777 132.952 203.932 131.142 204.557L79.1807 174.557C80.9907 173.932 82.5062 173.777 83.5281 174.117L135.49 204.117Z" fill="#8BC5E4"/>
<path d="M136.243 183.652C139.976 181.317 143.145 178.097 144.315 175.472L92.353 145.472C91.1839 148.097 88.0142 151.317 84.2817 153.652L136.243 183.652Z" fill="#8BC5E4"/>
<path d="M126.483 185.747C126.604 185.885 126.75 186.004 126.917 186.103L74.956 156.103C74.789 156.004 74.643 155.885 74.5215 155.747L126.483 185.747Z" fill="#8BC5E4"/>
<path d="M126.917 186.103C128.006 186.75 130.018 186.572 132.485 185.59L80.5231 155.59C78.0561 156.572 76.0441 156.75 74.9551 156.103L126.917 186.103Z" fill="#8BC5E4"/>
<path d="M127.444 206.272C124.188 208.162 121.166 210.837 119.46 213.352L67.498 183.352C69.2041 180.837 72.2265 178.162 75.4828 176.272L127.444 206.272Z" fill="#8BC5E4"/>
<path d="M95.6265 227.082C94.6739 226.792 93.2882 226.912 91.6514 227.437L39.6899 197.437C41.3267 196.912 42.7123 196.792 43.665 197.082L95.6265 227.082Z" fill="#8BC5E4"/>
<path d="M96.7868 206.422C100.424 204.072 103.481 200.927 104.598 198.362L52.6368 168.362C51.5196 170.927 48.4626 174.072 44.8252 176.422L96.7868 206.422Z" fill="#8BC5E4"/>
<path d="M136.208 151.312C137.273 151.727 138.962 151.552 140.98 150.817L89.0184 120.817C87.0006 121.552 85.3118 121.727 84.2466 121.312L136.208 151.312Z" fill="#8BC5E4"/>
<path d="M135.351 173.887C132.017 175.822 128.951 178.572 127.28 181.117L75.3184 151.117C76.9898 148.572 80.0556 145.822 83.3898 143.887L135.351 173.887Z" fill="#8BC5E4"/>
<path d="M103.741 194.687C102.771 194.337 101.308 194.462 99.567 195.027L47.6055 165.027C49.3462 164.462 50.8098 164.337 51.7797 164.687L103.741 194.687Z" fill="#8BC5E4"/>
<path d="M105.231 171.807C108.461 169.842 111.371 167.172 112.947 164.712L60.9853 134.712C59.4091 137.172 56.4993 139.842 53.269 141.807L105.231 171.807Z" fill="#8BC5E4"/>
<path d="M147.51 124.077L143.812 139.242C139.984 141.582 136.693 144.862 135.472 147.567L113.614 160.157C112.713 159.227 110.678 159.252 108.063 160.212L111.353 146.722L107.907 147.412L104.339 162.032C100.493 164.342 97.1333 167.652 95.8776 170.377L78.8688 180.177L78.8602 184.352L96.5271 174.172C97.6183 174.632 99.385 174.442 101.507 173.647L95.8776 196.687C95.8083 196.727 95.7303 196.762 95.6524 196.807C92.3355 198.722 89.2698 201.452 87.5811 203.997L73.0751 212.352V216.522L86.6977 208.677C87.6417 209.772 90.0059 209.677 93.011 208.432L87.9708 229.072C87.8668 229.132 87.7629 229.182 87.6503 229.247C84.4201 231.122 81.4149 233.767 79.7002 236.257L67.3853 243.357V247.527L78.635 241.042C79.5443 242.227 81.9865 242.147 85.1042 240.827L82.3503 252.107L85.797 251.407L88.8801 238.797C92.552 236.407 95.6004 233.217 96.657 230.657L118.472 218.092C119.364 219.197 121.65 219.157 124.586 217.982L121.954 228.762L125.4 228.072L128.336 216.037C132.129 213.657 135.334 210.377 136.442 207.737L158.552 194.992C159.409 196.007 161.47 196.017 164.146 195.042L161.375 206.402L164.822 205.702L167.862 193.237C171.828 190.867 175.275 187.437 176.479 184.662L190.448 176.617L190.456 172.442L175.587 181.007C174.478 180.627 172.755 180.832 170.702 181.607L175.768 160.852C179.717 158.532 183.19 155.127 184.463 152.342L196.146 145.607V141.437L183.762 148.577C182.627 148.122 180.8 148.347 178.618 149.197L184.238 126.182C184.394 126.102 184.559 126.017 184.723 125.922C188.066 123.992 191.149 121.232 192.829 118.682L201.931 113.437L201.94 109.262L193.66 114.032C192.673 112.932 190.205 113.067 187.105 114.417L190.378 101.017L186.931 101.707L183.329 116.477C179.813 118.797 176.903 121.837 175.803 124.322L153.278 137.307C152.368 136.322 150.255 136.352 147.536 137.392L150.957 123.377L147.51 124.077ZM112.947 164.712L136.208 151.312C137.274 151.727 138.962 151.552 140.98 150.817L135.351 173.887C132.017 175.822 128.951 178.572 127.28 181.117L103.741 194.687C102.771 194.337 101.308 194.462 99.5668 195.027L105.231 171.807C108.461 169.842 111.371 167.172 112.947 164.712ZM152.524 141.902L176.608 128.027C177.535 128.372 178.912 128.287 180.566 127.782L174.876 151.087C171.75 153.022 168.953 155.607 167.403 158.002L143.535 171.752C142.513 171.362 140.937 171.512 139.049 172.162L144.695 149.022C147.952 147.082 150.913 144.382 152.524 141.902ZM104.598 198.362L126.483 185.747C127.401 186.787 129.644 186.722 132.493 185.587L127.444 206.272C124.188 208.162 121.166 210.837 119.459 213.352L95.6264 227.082C94.6738 226.792 93.2882 226.912 91.6514 227.437L96.7869 206.422C100.424 204.072 103.481 200.927 104.598 198.362ZM144.314 175.472L166.684 162.587C167.55 163.517 169.516 163.532 172.062 162.622L166.97 183.462C163.869 185.352 161.063 187.912 159.47 190.302L135.49 204.117C134.468 203.777 132.952 203.932 131.142 204.557L136.243 183.652C139.976 181.317 143.145 178.097 144.314 175.472ZM62.5876 119.177C56.7419 122.552 51.9614 130.802 51.9614 137.522V313.092C51.9614 319.812 56.7419 322.552 62.5876 319.177L214.54 231.447C220.386 228.072 225.167 219.812 225.167 213.092V37.5223C225.167 30.8023 220.386 28.0723 214.54 31.4473L62.5876 119.177ZM62.5876 124.697L214.54 36.9673C217.814 35.0773 220.369 36.5323 220.369 40.2923V167.632C218.55 172.602 215.909 177.347 212.852 182.202C208.305 188.987 201.273 196.737 195.124 200.287L147.917 227.542V214.942L130.389 241.352L147.917 249.422V235.112L193.028 209.067C204.52 202.432 211.44 192.027 216.082 184.307L216.117 184.257L216.16 184.192C217.268 182.172 218.845 178.832 220.369 174.762V215.862C220.369 219.622 217.814 224.037 214.54 225.927L62.5876 313.657C59.314 315.547 56.7592 314.082 56.7592 310.322V184.932C58.5346 178.967 61.5656 173.377 65.177 167.652C69.7149 160.872 76.7471 153.122 82.8959 149.572L130.103 122.317V134.917L147.631 108.497L130.103 100.437V114.737L85.0003 140.777C73.5081 147.412 66.5886 157.827 61.9467 165.537L61.9034 165.602L61.8688 165.662C60.5351 168.092 58.5259 172.402 56.7592 177.592V134.752C56.7592 130.992 59.314 126.587 62.5876 124.697Z" fill="#8BC5E4"/>
<path fill-rule="evenodd" clip-rule="evenodd" d="M62.5876 124.697L214.54 36.9673C217.814 35.0773 220.369 36.5323 220.369 40.2923V167.632C218.55 172.602 215.909 177.347 212.852 182.202C208.305 188.987 201.273 196.737 195.124 200.287L147.917 227.542V214.942L130.389 241.352L147.917 249.422V235.112L193.028 209.067C204.52 202.432 211.44 192.027 216.082 184.307L216.117 184.257L216.16 184.192C217.268 182.172 218.845 178.832 220.369 174.762V215.862C220.369 219.622 217.814 224.037 214.54 225.927L62.5876 313.657C59.314 315.547 56.7592 314.082 56.7592 310.322V184.932C58.5346 178.967 61.5656 173.377 65.177 167.652C69.7149 160.872 76.7471 153.122 82.8959 149.572L130.103 122.317V134.917L147.631 108.497L130.103 100.437V114.737L85.0003 140.777C73.5081 147.412 66.5886 157.827 61.9467 165.537L61.9034 165.602L61.8688 165.662C60.5351 168.092 58.5259 172.402 56.7592 177.592V134.752C56.7592 130.992 59.314 126.587 62.5876 124.697ZM143.812 139.242L147.51 124.077L150.957 123.377L147.536 137.392C150.255 136.352 152.368 136.322 153.278 137.307L175.803 124.322C176.903 121.837 179.813 118.797 183.329 116.477L186.931 101.707L190.378 101.017L187.105 114.417C190.205 113.067 192.673 112.932 193.66 114.032L201.94 109.262L201.931 113.437L192.829 118.682C191.149 121.232 188.066 123.992 184.723 125.922C184.559 126.017 184.394 126.102 184.238 126.182L178.618 149.197C180.8 148.347 182.627 148.122 183.762 148.577L196.146 141.437V145.607L184.463 152.342C183.19 155.127 179.717 158.532 175.768 160.852L170.702 181.607C172.755 180.832 174.478 180.627 175.587 181.007L190.456 172.442L190.448 176.617L176.479 184.662C175.275 187.437 171.828 190.867 167.862 193.237L164.822 205.702L161.375 206.402L164.146 195.042C161.47 196.017 159.409 196.007 158.552 194.992L136.442 207.737C135.334 210.377 132.129 213.657 128.336 216.037L125.4 228.072L121.954 228.762L124.586 217.982C121.65 219.157 119.364 219.197 118.472 218.092L96.657 230.657C95.6004 233.217 92.552 236.407 88.8801 238.797L85.797 251.407L82.3503 252.107L85.1042 240.827C81.9865 242.147 79.5443 242.227 78.635 241.042L67.3853 247.527V243.357L79.7002 236.257C81.4149 233.767 84.4201 231.122 87.6503 229.247C87.7629 229.182 87.8668 229.132 87.9708 229.072L93.011 208.432C90.0059 209.677 87.6417 209.772 86.6977 208.677L73.0751 216.522V212.352L87.5811 203.997C89.2698 201.452 92.3355 198.722 95.6524 196.807C95.7303 196.762 95.8083 196.727 95.8776 196.687L101.507 173.647C99.385 174.442 97.6183 174.632 96.5271 174.172L78.8602 184.352L78.8688 180.177L95.8776 170.377C97.1333 167.652 100.493 164.342 104.339 162.032L107.907 147.412L111.353 146.722L108.063 160.212C110.678 159.252 112.713 159.227 113.614 160.157L135.472 147.567C136.693 144.862 139.984 141.582 143.812 139.242Z" fill="white"/>
<path d="M152.524 141.902L176.608 128.027C177.535 128.372 178.912 128.287 180.566 127.782L174.876 151.087C171.75 153.022 168.953 155.607 167.403 158.002L143.535 171.752C142.513 171.362 140.937 171.512 139.049 172.162L144.695 149.022C147.952 147.082 150.913 144.382 152.524 141.902Z" fill="white"/>
<path d="M144.314 175.472L166.684 162.587C167.55 163.517 169.516 163.532 172.062 162.622L166.97 183.462C163.869 185.352 161.063 187.912 159.47 190.302L135.49 204.117C134.468 203.777 132.952 203.932 131.142 204.557L136.243 183.652C139.976 181.317 143.145 178.097 144.314 175.472Z" fill="white"/>
<path d="M104.598 198.362L126.483 185.747C127.401 186.787 129.644 186.722 132.493 185.587L127.444 206.272C124.188 208.162 121.166 210.837 119.459 213.352L95.6264 227.082C94.6738 226.792 93.2882 226.912 91.6514 227.437L96.7869 206.422C100.424 204.072 103.481 200.927 104.598 198.362Z" fill="white"/>
<path d="M112.947 164.712L136.208 151.312C137.274 151.727 138.962 151.552 140.98 150.817L135.351 173.887C132.017 175.822 128.951 178.572 127.28 181.117L103.741 194.687C102.771 194.337 101.308 194.462 99.5668 195.027L105.231 171.807C108.461 169.842 111.371 167.172 112.947 164.712Z" fill="white"/>
</svg>
