<svg width="246" height="202" viewBox="0 0 246 202" fill="none" xmlns="http://www.w3.org/2000/svg">
<path d="M144.864 57.2049L144.769 57.1499V117.15L144.864 117.205V57.2049Z" fill="#8BC5E4"/>
<path d="M144.769 57.1501L144.665 57.1001V117.1L144.769 117.15V57.1501Z" fill="#8BC5E4"/>
<path d="M147.688 71.2949L147.67 71.3349V131.335L147.688 131.295V71.2949Z" fill="#8BC5E4"/>
<path d="M147.67 71.335L147.644 71.38V131.38L147.67 131.335V71.335Z" fill="#8BC5E4"/>
<path d="M129.917 80.255L129.926 80.25V140.25L129.917 140.255V80.255Z" fill="#8BC5E4"/>
<path d="M129.925 80.25L129.943 80.24V140.24L129.925 140.25V80.25Z" fill="#8BC5E4"/>
<path d="M147.688 71.2949L147.67 71.3349V131.335L147.688 131.295V71.2949Z" fill="#8BC5E4"/>
<path d="M147.67 71.335L147.644 71.38V131.38L147.67 131.335V71.335Z" fill="#8BC5E4"/>
<path d="M129.917 80.255L129.926 80.25V140.25L129.917 140.255V80.255Z" fill="#8BC5E4"/>
<path d="M129.925 80.25L129.943 80.24V140.24L129.925 140.25V80.25Z" fill="#8BC5E4"/>
<path d="M203.408 24.6951L203.849 24.9501V84.9501L203.408 84.6951V24.6951Z" fill="#8BC5E4"/>
<path d="M144.864 57.2049L144.769 57.1499V117.15L144.864 117.205V57.2049Z" fill="#8BC5E4"/>
<path d="M144.769 57.1501L144.665 57.1001V117.1L144.769 117.15V57.1501Z" fill="#8BC5E4"/>
<path d="M209.808 21C162.012 -6.59496 84.3897 -6.58996 36.6025 21V81C84.3897 53.41 162.012 53.405 209.808 81V21Z" fill="#8BC5E4"/>
<path d="M36.6028 21C12.7093 34.795 0.760277 52.896 0.759277 70.998V130.998C0.760277 112.896 12.7093 94.795 36.6028 81V21Z" fill="#8BC5E4"/>
<path d="M0.759278 70.9951C0.757278 89.0961 12.7003 107.197 36.5943 120.995V180.995C12.7003 167.197 0.757278 149.096 0.759278 130.995V70.9951Z" fill="#8BC5E4"/>
<path d="M36.6025 121C84.3984 148.595 162.02 148.59 209.808 121V181C162.02 208.59 84.3984 208.595 36.6025 181V121Z" fill="#8BC5E4"/>
<path d="M209.808 121C233.701 107.205 245.65 89.104 245.651 71.002V131.002C245.65 149.104 233.701 167.205 209.808 181V121Z" fill="#8BC5E4"/>
<path d="M245.651 71.0049C245.653 52.9039 233.71 34.8019 209.816 21.0049V81.0049C233.71 94.8019 245.653 112.904 245.651 131.005V71.0049Z" fill="#8BC5E4"/>
<path d="M203.408 24.6951C203.555 24.7801 203.702 24.8651 203.849 24.9501V84.9501C203.702 84.8651 203.555 84.7801 203.408 84.6951V24.6951Z" fill="#8BC5E4"/>
<path d="M203.849 24.95C201.208 27.605 198.263 30.305 195.085 33.01V93.0099C198.263 90.3049 201.208 87.6049 203.849 84.95V24.95Z" fill="#8BC5E4"/>
<path d="M195.085 33.01C189.127 31.97 182.658 32.895 178.25 35.44V95.44C182.658 92.895 189.127 91.97 195.085 93.01V33.01Z" fill="#8BC5E4"/>
<path d="M178.25 35.4399C175.021 37.3039 173.34 39.7719 173.312 42.2659V102.266C173.34 99.7719 175.021 97.3039 178.25 95.4399V35.4399Z" fill="#8BC5E4"/>
<path d="M173.312 42.262C173.291 44.095 174.164 45.943 175.974 47.574V107.574C174.164 105.943 173.291 104.095 173.312 102.262V42.262Z" fill="#8BC5E4"/>
<path d="M175.981 47.5801C170.75 51.2201 165.268 54.8051 159.682 58.2801V118.28C165.268 114.805 170.75 111.22 175.981 107.58V47.5801Z" fill="#8BC5E4"/>
<path d="M159.682 58.28C160.74 54.362 161.266 50.484 161.271 46.655V106.655C161.266 110.484 160.74 114.362 159.682 118.28V58.28Z" fill="#8BC5E4"/>
<path d="M161.272 46.6561C161.294 32.3351 154.039 18.7021 140.116 6.23608V66.2361C154.039 78.7021 161.294 92.3351 161.272 106.656V46.6561Z" fill="#8BC5E4"/>
<path d="M140.11 6.22998C163.259 8.23498 185.559 14.39 203.408 24.695V84.695C185.559 74.39 163.259 68.235 140.11 66.23V6.22998Z" fill="#8BC5E4"/>
<path d="M208.457 27.8C227.377 40.218 236.777 55.766 236.659 71.293V131.293C236.777 115.766 227.377 100.218 208.457 87.8V27.8Z" fill="#8BC5E4"/>
<path d="M236.659 71.291C236.549 85.791 228.138 100.274 211.425 112.175V172.175C228.138 160.274 236.549 145.791 236.659 131.291V71.291Z" fill="#8BC5E4"/>
<path d="M211.418 112.18C207.452 106.24 202.853 100.695 197.813 95.5149V155.515C202.853 160.695 207.452 166.24 211.418 172.18V112.18Z" fill="#8BC5E4"/>
<path d="M197.813 95.515C198.09 95.385 198.359 95.24 198.627 95.095V155.095C198.359 155.24 198.09 155.385 197.813 155.515V95.515Z" fill="#8BC5E4"/>
<path d="M198.627 95.095C201.58 93.39 203.323 91.125 203.547 88.729V148.729C203.323 151.125 201.58 153.39 198.627 155.095V95.095Z" fill="#8BC5E4"/>
<path d="M203.547 88.737C203.563 88.561 203.572 88.385 203.572 88.208V148.208C203.572 148.385 203.563 148.561 203.547 148.737V88.737Z" fill="#8BC5E4"/>
<path d="M203.572 88.1999C203.572 88.0239 203.564 87.8479 203.547 87.6719V147.672C203.564 147.848 203.572 148.024 203.572 148.2V88.1999Z" fill="#8BC5E4"/>
<path d="M203.546 87.658C203.316 85.275 201.576 83.009 198.623 81.313V141.313C201.576 143.009 203.316 145.275 203.546 147.658V87.658Z" fill="#8BC5E4"/>
<path d="M198.619 81.31C193.57 78.395 185.888 77.64 179.436 79.415V139.415C185.888 137.64 193.57 138.395 198.619 141.31V81.31Z" fill="#8BC5E4"/>
<path d="M179.436 79.415C172.508 74.145 165.216 69.325 157.889 64.895V124.895C165.216 129.325 172.508 134.145 179.436 139.415V79.415Z" fill="#8BC5E4"/>
<path d="M157.889 64.895C165.675 60.26 173.348 55.36 180.579 50.335V110.335C173.348 115.36 165.675 120.26 157.889 124.895V64.895Z" fill="#8BC5E4"/>
<path d="M180.579 50.3351C187.282 53.0251 196.349 52.5501 202.126 49.2251V109.225C196.349 112.55 187.282 113.025 180.579 110.335V50.3351Z" fill="#8BC5E4"/>
<path d="M202.126 49.225C205.421 47.323 207.069 44.829 207.068 42.334V102.334C207.069 104.829 205.421 107.323 202.126 109.225V49.225Z" fill="#8BC5E4"/>
<path d="M207.068 42.3361C207.067 39.8431 205.419 37.3481 202.122 35.4431V95.4431C205.419 97.3481 207.067 99.8431 207.068 102.336V42.3361Z" fill="#8BC5E4"/>
<path d="M202.117 35.44C201.719 35.21 201.295 34.995 200.853 34.79V94.79C201.295 94.995 201.719 95.21 202.117 95.44V35.44Z" fill="#8BC5E4"/>
<path d="M200.853 34.79C203.564 32.445 206.11 30.115 208.457 27.8V87.8C206.11 90.115 203.564 92.445 200.853 94.79V34.79Z" fill="#8BC5E4"/>
<path d="M131.692 5.67993C147 18.2909 155.072 32.0029 155.092 46.5469V106.547C155.072 92.0029 147 78.2909 131.692 65.6799V5.67993Z" fill="#8BC5E4"/>
<path d="M155.092 46.542C155.1 51.466 154.184 56.484 152.315 61.588V121.588C154.184 116.484 155.1 111.466 155.092 106.542V46.542Z" fill="#8BC5E4"/>
<path d="M152.312 61.5951C149.827 60.1601 147.332 58.5501 144.864 57.2051V117.205C147.332 118.55 149.827 120.16 152.312 121.595V61.5951Z" fill="#8BC5E4"/>
<path d="M144.665 57.1C128.28 49.52 112.769 43.105 96.7393 37.53V97.53C112.769 103.105 128.28 109.52 144.665 117.1V57.1Z" fill="#8BC5E4"/>
<path d="M96.7393 37.53C97.396 36.465 97.715 35.363 97.716 34.271V94.271C97.715 95.363 97.396 96.465 96.7393 97.53V37.53Z" fill="#8BC5E4"/>
<path d="M97.7159 34.272C97.7199 31.734 96.0029 29.244 92.7969 27.384V87.384C96.0029 89.244 97.7199 91.734 97.7159 94.272V34.272Z" fill="#8BC5E4"/>
<path d="M92.7902 27.3799C89.6205 25.5499 85.3337 24.5249 80.8477 24.5249V84.5249C85.3337 84.5249 89.6205 85.5499 92.7902 87.3799V27.3799Z" fill="#8BC5E4"/>
<path d="M80.8479 24.5249C76.3792 24.5249 72.0751 25.5499 68.9141 27.3849V87.3849C72.0751 85.5499 76.3792 84.5249 80.8479 84.5249V24.5249Z" fill="#8BC5E4"/>
<path d="M68.9142 27.385C68.3599 27.705 67.8403 28.055 67.3726 28.415V88.415C67.8403 88.055 68.3599 87.705 68.9142 87.385V27.385Z" fill="#8BC5E4"/>
<path d="M67.3725 28.415C60.4876 26.53 53.3862 24.74 45.9731 23.04V83.04C53.3862 84.74 60.4876 86.53 67.3725 88.415V28.415Z" fill="#8BC5E4"/>
<path d="M45.9731 23.0399C69.9446 10.1499 101.191 4.3599 131.692 5.6799V65.6799C101.191 64.3599 69.9446 70.1499 45.9731 83.0399V23.0399Z" fill="#8BC5E4"/>
<path d="M142.622 61.1599C144.726 62.3949 146.839 63.7149 148.952 64.9449V124.945C146.839 123.715 144.726 122.395 142.622 121.16V61.1599Z" fill="#8BC5E4"/>
<path d="M148.952 64.9451C141.14 69.4651 133.32 73.6901 125.786 77.3801V137.38C133.32 133.69 141.14 129.465 148.952 124.945V64.9451Z" fill="#8BC5E4"/>
<path d="M125.786 77.3799C110.691 84.5849 94.86 90.1649 79.4014 94.3199V154.32C94.86 150.165 110.691 144.585 125.786 137.38V77.3799Z" fill="#8BC5E4"/>
<path d="M79.4016 94.3201C78.9426 93.9651 78.449 93.6301 77.9121 93.3101V153.31C78.449 153.63 78.9426 153.965 79.4016 154.32V94.3201Z" fill="#8BC5E4"/>
<path d="M77.9119 93.31C74.7509 91.485 70.4554 90.455 65.978 90.46V150.46C70.4554 150.455 74.7509 151.485 77.9119 153.31V93.31Z" fill="#8BC5E4"/>
<path d="M65.9781 90.46C61.5008 90.455 57.2053 91.485 54.0356 93.315V153.315C57.2053 151.485 61.5008 150.455 65.9781 150.46V90.46Z" fill="#8BC5E4"/>
<path d="M54.0355 93.3149C50.857 95.1499 49.098 97.6319 49.104 100.215V160.215C49.098 157.632 50.857 155.15 54.0355 153.315V93.3149Z" fill="#8BC5E4"/>
<path d="M49.104 100.224C49.105 100.408 49.114 100.592 49.133 100.777V160.777C49.114 160.592 49.105 160.408 49.104 160.224V100.224Z" fill="#8BC5E4"/>
<path d="M49.1338 100.785C40.5255 102.155 32.2983 103.055 24.7119 103.525V163.525C32.2983 163.055 40.5255 162.155 49.1338 160.785V100.785Z" fill="#8BC5E4"/>
<path d="M24.7119 103.525C14.755 93.4959 9.767 82.2769 9.75 71.0569V131.057C9.767 142.277 14.755 153.496 24.7119 163.525V103.525Z" fill="#8BC5E4"/>
<path d="M9.75005 71.0591C9.72405 54.8101 20.122 38.5581 40.943 25.9141V85.9141C20.122 98.5581 9.72405 114.81 9.75005 131.059V71.0591Z" fill="#8BC5E4"/>
<path d="M40.9502 25.9099C49.1774 27.7599 57.0063 29.6999 64.5581 31.7699V91.7699C57.0063 89.6999 49.1774 87.7599 40.9502 85.9099V25.9099Z" fill="#8BC5E4"/>
<path d="M64.5578 31.77C64.167 32.615 63.981 33.475 63.988 34.327V94.327C63.981 93.475 64.167 92.615 64.5578 91.77V31.77Z" fill="#8BC5E4"/>
<path d="M63.9883 34.3259C64.0093 36.8549 65.7373 39.3219 68.9083 41.1609V101.161C65.7373 99.3219 64.0093 96.8549 63.9883 94.3259V34.3259Z" fill="#8BC5E4"/>
<path d="M68.9141 41.165C72.0751 42.99 76.3705 44.02 80.8479 44.015V104.015C76.3705 104.02 72.0751 102.99 68.9141 101.165V41.165Z" fill="#8BC5E4"/>
<path d="M80.8477 44.015C85.325 44.02 89.6205 42.99 92.7815 41.165V101.165C89.6205 102.99 85.325 104.02 80.8477 104.015V44.015Z" fill="#8BC5E4"/>
<path d="M92.7817 41.165C93.0242 41.025 93.2494 40.885 93.4659 40.74V100.74C93.2494 100.885 93.0242 101.025 92.7817 101.165V41.165Z" fill="#8BC5E4"/>
<path d="M93.4658 40.74C109.141 46.2 124.348 52.49 140.508 59.97V119.97C124.348 112.49 109.141 106.2 93.4658 100.74V40.74Z" fill="#8BC5E4"/>
<path d="M140.508 59.97C141.218 60.35 141.92 60.755 142.621 61.16V121.16C141.92 120.755 141.218 120.35 140.508 119.97V59.97Z" fill="#8BC5E4"/>
<path d="M155.568 68.855C161.942 72.795 168.247 77.035 174.266 81.61V141.61C168.247 137.035 161.942 132.795 155.568 128.855V68.855Z" fill="#8BC5E4"/>
<path d="M174.266 81.6101C171.312 83.4651 169.834 85.8091 169.812 88.1521V148.152C169.834 145.809 171.312 143.465 174.266 141.61V81.6101Z" fill="#8BC5E4"/>
<path d="M169.812 88.1499C169.788 90.6639 171.44 93.1769 174.746 95.0869V155.087C171.44 153.177 169.788 150.664 169.812 148.15V88.1499Z" fill="#8BC5E4"/>
<path d="M174.751 95.0901C179.332 97.7351 186.122 98.6251 192.245 97.3901V157.39C186.122 158.625 179.332 157.735 174.751 155.09V95.0901Z" fill="#8BC5E4"/>
<path d="M192.245 97.3899C197.64 102.955 202.498 108.94 206.603 115.39V175.39C202.498 168.94 197.64 162.955 192.245 157.39V97.3899Z" fill="#8BC5E4"/>
<path d="M206.603 115.39C205.564 116.04 204.499 116.675 203.408 117.305V177.305C204.499 176.675 205.564 176.04 206.603 175.39V115.39Z" fill="#8BC5E4"/>
<path d="M203.408 117.305C174.491 134 133.901 139.805 96.8779 134.72V194.72C133.901 199.805 174.491 194 203.408 177.305V117.305Z" fill="#8BC5E4"/>
<path d="M96.8779 134.72C105.677 128.02 114.129 121.06 121.923 113.69V173.69C114.129 181.06 105.677 188.02 96.8779 194.72V134.72Z" fill="#8BC5E4"/>
<path d="M121.923 113.69C127.96 114.835 134.619 113.92 139.123 111.32V171.32C134.619 173.92 127.96 174.835 121.923 173.69V113.69Z" fill="#8BC5E4"/>
<path d="M139.123 111.32C142.067 109.62 143.817 107.351 144.036 104.958V164.958C143.817 167.351 142.067 169.62 139.123 171.32V111.32Z" fill="#8BC5E4"/>
<path d="M144.035 104.966C144.051 104.791 144.059 104.615 144.059 104.438V164.438C144.059 164.615 144.051 164.791 144.035 164.966V104.966Z" fill="#8BC5E4"/>
<path d="M144.059 104.43C144.059 104.253 144.052 104.077 144.036 103.902V163.902C144.052 164.077 144.059 164.253 144.059 164.43V104.43Z" fill="#8BC5E4"/>
<path d="M144.036 103.902C143.818 101.51 142.069 99.2421 139.119 97.5381V157.538C142.069 159.242 143.818 161.51 144.036 163.902V103.902Z" fill="#8BC5E4"/>
<path d="M139.114 97.535C138.681 97.295 138.222 97.06 137.746 96.845V156.845C138.222 157.06 138.681 157.295 139.114 157.535V97.535Z" fill="#8BC5E4"/>
<path d="M137.746 96.845C143.981 89.255 149.428 81.19 153.81 72.5V132.5C149.428 141.19 143.981 149.255 137.746 156.845V96.845Z" fill="#8BC5E4"/>
<path d="M153.81 72.5C153.81 72.5 153.802 72.495 153.81 72.49V132.49C153.802 132.495 153.81 132.5 153.81 132.5V72.5Z" fill="#8BC5E4"/>
<path d="M153.811 72.49C154.538 71.27 154.954 70.07 155.569 68.855V128.855C154.954 130.07 154.538 131.27 153.811 132.49V72.49Z" fill="#8BC5E4"/>
<path d="M148.025 70.6101C147.887 70.8401 147.826 71.0651 147.688 71.2951V131.295C147.826 131.065 147.887 130.84 148.025 130.61V70.6101Z" fill="#8BC5E4"/>
<path d="M147.644 71.3799C143.401 79.8399 138.101 87.6999 132.03 95.1049V155.105C138.101 147.7 143.401 139.84 147.644 131.38V71.3799Z" fill="#8BC5E4"/>
<path d="M132.03 95.105C126.08 94.07 119.637 95.01 115.246 97.535V157.535C119.637 155.01 126.08 154.07 132.03 155.105V95.105Z" fill="#8BC5E4"/>
<path d="M115.246 97.5349C112.293 99.2399 110.543 101.509 110.324 103.902V163.902C110.543 161.509 112.293 159.24 115.246 157.535V97.5349Z" fill="#8BC5E4"/>
<path d="M110.325 103.894C110.309 104.069 110.301 104.245 110.301 104.422V164.422C110.301 164.245 110.309 164.069 110.325 163.894V103.894Z" fill="#8BC5E4"/>
<path d="M110.301 104.43C110.301 104.607 110.308 104.783 110.324 104.958V164.958C110.308 164.783 110.301 164.607 110.301 164.43V104.43Z" fill="#8BC5E4"/>
<path d="M110.324 104.958C110.543 107.35 112.291 109.618 115.233 111.317V171.317C112.291 169.618 110.543 167.35 110.324 164.958V104.958Z" fill="#8BC5E4"/>
<path d="M115.238 111.32C115.575 111.515 115.922 111.695 116.286 111.865V171.865C115.922 171.695 115.575 171.515 115.238 171.32V111.32Z" fill="#8BC5E4"/>
<path d="M116.286 111.865C108.206 119.5 99.3721 126.7 90.1489 133.665V193.665C99.3721 186.7 108.206 179.5 116.286 171.865V111.865Z" fill="#8BC5E4"/>
<path d="M90.1488 133.665C72.9062 130.64 56.6509 125.185 43.0024 117.305V177.305C56.6509 185.185 72.9062 190.64 90.1488 193.665V133.665Z" fill="#8BC5E4"/>
<path d="M43.0022 117.305C37.4596 114.105 32.6012 110.66 28.4443 107.02V167.02C32.6012 170.66 37.4596 174.105 43.0022 177.305V117.305Z" fill="#8BC5E4"/>
<path d="M28.4443 107.02C35.5111 106.5 43.0022 105.635 50.7618 104.405V164.405C43.0022 165.635 35.5111 166.5 28.4443 167.02V107.02Z" fill="#8BC5E4"/>
<path d="M50.7622 104.405C51.5849 105.4 52.6934 106.31 54.0358 107.095V167.095C52.6934 166.31 51.5849 165.4 50.7622 164.405V104.405Z" fill="#8BC5E4"/>
<path d="M54.0356 107.095C57.2052 108.925 61.492 109.95 65.978 109.95V169.95C61.492 169.95 57.2052 168.925 54.0356 167.095V107.095Z" fill="#8BC5E4"/>
<path d="M65.978 109.95C70.4467 109.95 74.7509 108.925 77.9119 107.1V167.1C74.7509 168.925 70.4467 169.95 65.978 169.95V109.95Z" fill="#8BC5E4"/>
<path d="M77.9121 107.1C81.0992 105.252 82.8282 102.781 82.8442 100.246V160.246C82.8282 162.781 81.0992 165.252 77.9121 167.1V107.1Z" fill="#8BC5E4"/>
<path d="M82.844 100.25C82.85 99.3969 82.662 98.5359 82.27 97.6899V157.69C82.662 158.536 82.85 159.397 82.844 160.25V100.25Z" fill="#8BC5E4"/>
<path d="M82.2681 97.6849C98.1683 93.4049 114.398 87.6549 129.917 80.2549V140.255C114.398 147.655 98.1683 153.405 82.2681 157.685V97.6849Z" fill="#8BC5E4"/>
<path d="M129.943 80.2401C135.832 77.3501 141.946 74.0001 148.025 70.6101V130.61C141.946 134 135.832 137.35 129.943 140.24V80.2401Z" fill="#8BC5E4"/>
<path d="M142.622 61.1599C144.726 62.3949 146.839 63.7149 148.952 64.9449V124.945C146.839 123.715 144.726 122.395 142.622 121.16V61.1599Z" fill="#8BC5E4"/>
<path d="M148.952 64.9451C141.14 69.4651 133.32 73.6901 125.786 77.3801V137.38C133.32 133.69 141.14 129.465 148.952 124.945V64.9451Z" fill="#8BC5E4"/>
<path d="M125.786 77.3799C110.691 84.5849 94.86 90.1649 79.4014 94.3199V154.32C94.86 150.165 110.691 144.585 125.786 137.38V77.3799Z" fill="#8BC5E4"/>
<path d="M79.4016 94.3201C78.9426 93.9651 78.449 93.6301 77.9121 93.3101V153.31C78.449 153.63 78.9426 153.965 79.4016 154.32V94.3201Z" fill="#8BC5E4"/>
<path d="M77.9119 93.31C74.7509 91.485 70.4554 90.455 65.978 90.46V150.46C70.4554 150.455 74.7509 151.485 77.9119 153.31V93.31Z" fill="#8BC5E4"/>
<path d="M65.9781 90.46C61.5008 90.455 57.2053 91.485 54.0356 93.315V153.315C57.2053 151.485 61.5008 150.455 65.9781 150.46V90.46Z" fill="#8BC5E4"/>
<path d="M54.0355 93.3149C50.857 95.1499 49.098 97.6319 49.104 100.215V160.215C49.098 157.632 50.857 155.15 54.0355 153.315V93.3149Z" fill="#8BC5E4"/>
<path d="M49.104 100.224C49.105 100.408 49.114 100.592 49.133 100.777V160.777C49.114 160.592 49.105 160.408 49.104 160.224V100.224Z" fill="#8BC5E4"/>
<path d="M49.1338 100.785C40.5255 102.155 32.2983 103.055 24.7119 103.525V163.525C32.2983 163.055 40.5255 162.155 49.1338 160.785V100.785Z" fill="#8BC5E4"/>
<path d="M24.7119 103.525C14.755 93.4959 9.767 82.2769 9.75 71.0569V131.057C9.767 142.277 14.755 153.496 24.7119 163.525V103.525Z" fill="#8BC5E4"/>
<path d="M9.75005 71.0591C9.72405 54.8101 20.122 38.5581 40.943 25.9141V85.9141C20.122 98.5581 9.72405 114.81 9.75005 131.059V71.0591Z" fill="#8BC5E4"/>
<path d="M40.9502 25.9099C49.1774 27.7599 57.0063 29.6999 64.5581 31.7699V91.7699C57.0063 89.6999 49.1774 87.7599 40.9502 85.9099V25.9099Z" fill="#8BC5E4"/>
<path d="M64.5578 31.77C64.167 32.615 63.981 33.475 63.988 34.327V94.327C63.981 93.475 64.167 92.615 64.5578 91.77V31.77Z" fill="#8BC5E4"/>
<path d="M63.9883 34.3259C64.0093 36.8549 65.7373 39.3219 68.9083 41.1609V101.161C65.7373 99.3219 64.0093 96.8549 63.9883 94.3259V34.3259Z" fill="#8BC5E4"/>
<path d="M68.9141 41.165C72.0751 42.99 76.3705 44.02 80.8479 44.015V104.015C76.3705 104.02 72.0751 102.99 68.9141 101.165V41.165Z" fill="#8BC5E4"/>
<path d="M80.8477 44.015C85.325 44.02 89.6205 42.99 92.7815 41.165V101.165C89.6205 102.99 85.325 104.02 80.8477 104.015V44.015Z" fill="#8BC5E4"/>
<path d="M92.7817 41.165C93.0242 41.025 93.2494 40.885 93.4659 40.74V100.74C93.2494 100.885 93.0242 101.025 92.7817 101.165V41.165Z" fill="#8BC5E4"/>
<path d="M93.4658 40.74C109.141 46.2 124.348 52.49 140.508 59.97V119.97C124.348 112.49 109.141 106.2 93.4658 100.74V40.74Z" fill="#8BC5E4"/>
<path d="M140.508 59.97C141.218 60.35 141.92 60.755 142.621 61.16V121.16C141.92 120.755 141.218 120.35 140.508 119.97V59.97Z" fill="#8BC5E4"/>
<path d="M148.025 70.6101C147.887 70.8401 147.826 71.0651 147.688 71.2951V131.295C147.826 131.065 147.887 130.84 148.025 130.61V70.6101Z" fill="#8BC5E4"/>
<path d="M147.644 71.3799C143.401 79.8399 138.101 87.6999 132.03 95.1049V155.105C138.101 147.7 143.401 139.84 147.644 131.38V71.3799Z" fill="#8BC5E4"/>
<path d="M132.03 95.105C126.08 94.07 119.637 95.01 115.246 97.535V157.535C119.637 155.01 126.08 154.07 132.03 155.105V95.105Z" fill="#8BC5E4"/>
<path d="M115.246 97.5349C112.293 99.2399 110.543 101.509 110.324 103.902V163.902C110.543 161.509 112.293 159.24 115.246 157.535V97.5349Z" fill="#8BC5E4"/>
<path d="M110.325 103.894C110.309 104.069 110.301 104.245 110.301 104.422V164.422C110.301 164.245 110.309 164.069 110.325 163.894V103.894Z" fill="#8BC5E4"/>
<path d="M110.301 104.43C110.301 104.607 110.308 104.783 110.324 104.958V164.958C110.308 164.783 110.301 164.607 110.301 164.43V104.43Z" fill="#8BC5E4"/>
<path d="M110.324 104.958C110.543 107.35 112.291 109.618 115.233 111.317V171.317C112.291 169.618 110.543 167.35 110.324 164.958V104.958Z" fill="#8BC5E4"/>
<path d="M115.238 111.32C115.575 111.515 115.922 111.695 116.286 111.865V171.865C115.922 171.695 115.575 171.515 115.238 171.32V111.32Z" fill="#8BC5E4"/>
<path d="M116.286 111.865C108.206 119.5 99.3721 126.7 90.1489 133.665V193.665C99.3721 186.7 108.206 179.5 116.286 171.865V111.865Z" fill="#8BC5E4"/>
<path d="M90.1488 133.665C72.9062 130.64 56.6509 125.185 43.0024 117.305V177.305C56.6509 185.185 72.9062 190.64 90.1488 193.665V133.665Z" fill="#8BC5E4"/>
<path d="M43.0022 117.305C37.4596 114.105 32.6012 110.66 28.4443 107.02V167.02C32.6012 170.66 37.4596 174.105 43.0022 177.305V117.305Z" fill="#8BC5E4"/>
<path d="M28.4443 107.02C35.5111 106.5 43.0022 105.635 50.7618 104.405V164.405C43.0022 165.635 35.5111 166.5 28.4443 167.02V107.02Z" fill="#8BC5E4"/>
<path d="M50.7622 104.405C51.5849 105.4 52.6934 106.31 54.0358 107.095V167.095C52.6934 166.31 51.5849 165.4 50.7622 164.405V104.405Z" fill="#8BC5E4"/>
<path d="M54.0356 107.095C57.2052 108.925 61.492 109.95 65.978 109.95V169.95C61.492 169.95 57.2052 168.925 54.0356 167.095V107.095Z" fill="#8BC5E4"/>
<path d="M65.978 109.95C70.4467 109.95 74.7509 108.925 77.9119 107.1V167.1C74.7509 168.925 70.4467 169.95 65.978 169.95V109.95Z" fill="#8BC5E4"/>
<path d="M77.9121 107.1C81.0992 105.252 82.8282 102.781 82.8442 100.246V160.246C82.8282 162.781 81.0992 165.252 77.9121 167.1V107.1Z" fill="#8BC5E4"/>
<path d="M82.844 100.25C82.85 99.3969 82.662 98.5359 82.27 97.6899V157.69C82.662 158.536 82.85 159.397 82.844 160.25V100.25Z" fill="#8BC5E4"/>
<path d="M82.2681 97.6849C98.1683 93.4049 114.398 87.6549 129.917 80.2549V140.255C114.398 147.655 98.1683 153.405 82.2681 157.685V97.6849Z" fill="#8BC5E4"/>
<path d="M129.943 80.2401C135.832 77.3501 141.946 74.0001 148.025 70.6101V130.61C141.946 134 135.832 137.35 129.943 140.24V80.2401Z" fill="#8BC5E4"/>
<path d="M155.568 68.855C161.942 72.795 168.247 77.035 174.266 81.61V141.61C168.247 137.035 161.942 132.795 155.568 128.855V68.855Z" fill="#8BC5E4"/>
<path d="M174.266 81.6101C171.312 83.4651 169.834 85.8091 169.812 88.1521V148.152C169.834 145.809 171.312 143.465 174.266 141.61V81.6101Z" fill="#8BC5E4"/>
<path d="M169.812 88.1499C169.788 90.6639 171.44 93.1769 174.746 95.0869V155.087C171.44 153.177 169.788 150.664 169.812 148.15V88.1499Z" fill="#8BC5E4"/>
<path d="M174.751 95.0901C179.332 97.7351 186.122 98.6251 192.245 97.3901V157.39C186.122 158.625 179.332 157.735 174.751 155.09V95.0901Z" fill="#8BC5E4"/>
<path d="M192.245 97.3899C197.64 102.955 202.498 108.94 206.603 115.39V175.39C202.498 168.94 197.64 162.955 192.245 157.39V97.3899Z" fill="#8BC5E4"/>
<path d="M206.603 115.39C205.564 116.04 204.499 116.675 203.408 117.305V177.305C204.499 176.675 205.564 176.04 206.603 175.39V115.39Z" fill="#8BC5E4"/>
<path d="M203.408 117.305C174.491 134 133.901 139.805 96.8779 134.72V194.72C133.901 199.805 174.491 194 203.408 177.305V117.305Z" fill="#8BC5E4"/>
<path d="M96.8779 134.72C105.677 128.02 114.129 121.06 121.923 113.69V173.69C114.129 181.06 105.677 188.02 96.8779 194.72V134.72Z" fill="#8BC5E4"/>
<path d="M121.923 113.69C127.96 114.835 134.619 113.92 139.123 111.32V171.32C134.619 173.92 127.96 174.835 121.923 173.69V113.69Z" fill="#8BC5E4"/>
<path d="M139.123 111.32C142.067 109.62 143.817 107.351 144.036 104.958V164.958C143.817 167.351 142.067 169.62 139.123 171.32V111.32Z" fill="#8BC5E4"/>
<path d="M144.035 104.966C144.051 104.791 144.059 104.615 144.059 104.438V164.438C144.059 164.615 144.051 164.791 144.035 164.966V104.966Z" fill="#8BC5E4"/>
<path d="M144.059 104.43C144.059 104.253 144.052 104.077 144.036 103.902V163.902C144.052 164.077 144.059 164.253 144.059 164.43V104.43Z" fill="#8BC5E4"/>
<path d="M144.036 103.902C143.818 101.51 142.069 99.2421 139.119 97.5381V157.538C142.069 159.242 143.818 161.51 144.036 163.902V103.902Z" fill="#8BC5E4"/>
<path d="M139.114 97.535C138.681 97.295 138.222 97.06 137.746 96.845V156.845C138.222 157.06 138.681 157.295 139.114 157.535V97.535Z" fill="#8BC5E4"/>
<path d="M137.746 96.845C143.981 89.255 149.428 81.19 153.81 72.5V132.5C149.428 141.19 143.981 149.255 137.746 156.845V96.845Z" fill="#8BC5E4"/>
<path d="M153.81 72.5C153.81 72.5 153.802 72.495 153.81 72.49V132.49C153.802 132.495 153.81 132.5 153.81 132.5V72.5Z" fill="#8BC5E4"/>
<path d="M153.811 72.49C154.538 71.27 154.954 70.07 155.569 68.855V128.855C154.954 130.07 154.538 131.27 153.811 132.49V72.49Z" fill="#8BC5E4"/>
<path d="M208.457 27.8C227.377 40.218 236.777 55.766 236.659 71.293V131.293C236.777 115.766 227.377 100.218 208.457 87.8V27.8Z" fill="#8BC5E4"/>
<path d="M236.659 71.291C236.549 85.791 228.138 100.274 211.425 112.175V172.175C228.138 160.274 236.549 145.791 236.659 131.291V71.291Z" fill="#8BC5E4"/>
<path d="M211.418 112.18C207.452 106.24 202.853 100.695 197.813 95.5149V155.515C202.853 160.695 207.452 166.24 211.418 172.18V112.18Z" fill="#8BC5E4"/>
<path d="M197.813 95.515C198.09 95.385 198.359 95.24 198.627 95.095V155.095C198.359 155.24 198.09 155.385 197.813 155.515V95.515Z" fill="#8BC5E4"/>
<path d="M198.627 95.095C201.58 93.39 203.323 91.125 203.547 88.729V148.729C203.323 151.125 201.58 153.39 198.627 155.095V95.095Z" fill="#8BC5E4"/>
<path d="M203.547 88.737C203.563 88.561 203.572 88.385 203.572 88.208V148.208C203.572 148.385 203.563 148.561 203.547 148.737V88.737Z" fill="#8BC5E4"/>
<path d="M203.572 88.1999C203.572 88.0239 203.564 87.8479 203.547 87.6719V147.672C203.564 147.848 203.572 148.024 203.572 148.2V88.1999Z" fill="#8BC5E4"/>
<path d="M203.546 87.658C203.316 85.275 201.576 83.009 198.623 81.313V141.313C201.576 143.009 203.316 145.275 203.546 147.658V87.658Z" fill="#8BC5E4"/>
<path d="M198.619 81.31C193.57 78.395 185.888 77.64 179.436 79.415V139.415C185.888 137.64 193.57 138.395 198.619 141.31V81.31Z" fill="#8BC5E4"/>
<path d="M179.436 79.415C172.508 74.145 165.216 69.325 157.889 64.895V124.895C165.216 129.325 172.508 134.145 179.436 139.415V79.415Z" fill="#8BC5E4"/>
<path d="M157.889 64.895C165.675 60.26 173.348 55.36 180.579 50.335V110.335C173.348 115.36 165.675 120.26 157.889 124.895V64.895Z" fill="#8BC5E4"/>
<path d="M180.579 50.3351C187.282 53.0251 196.349 52.5501 202.126 49.2251V109.225C196.349 112.55 187.282 113.025 180.579 110.335V50.3351Z" fill="#8BC5E4"/>
<path d="M202.126 49.225C205.421 47.323 207.069 44.829 207.068 42.334V102.334C207.069 104.829 205.421 107.323 202.126 109.225V49.225Z" fill="#8BC5E4"/>
<path d="M207.068 42.3361C207.067 39.8431 205.419 37.3481 202.122 35.4431V95.4431C205.419 97.3481 207.067 99.8431 207.068 102.336V42.3361Z" fill="#8BC5E4"/>
<path d="M202.117 35.44C201.719 35.21 201.295 34.995 200.853 34.79V94.79C201.295 94.995 201.719 95.21 202.117 95.44V35.44Z" fill="#8BC5E4"/>
<path d="M200.853 34.79C203.564 32.445 206.11 30.115 208.457 27.8V87.8C206.11 90.115 203.564 92.445 200.853 94.79V34.79Z" fill="#8BC5E4"/>
<path d="M203.849 24.95C201.208 27.605 198.263 30.305 195.085 33.01V93.0099C198.263 90.3049 201.208 87.6049 203.849 84.95V24.95Z" fill="#8BC5E4"/>
<path d="M195.085 33.01C189.127 31.97 182.658 32.895 178.25 35.44V95.44C182.658 92.895 189.127 91.97 195.085 93.01V33.01Z" fill="#8BC5E4"/>
<path d="M178.25 35.4399C175.021 37.3039 173.34 39.7719 173.312 42.2659V102.266C173.34 99.7719 175.021 97.3039 178.25 95.4399V35.4399Z" fill="#8BC5E4"/>
<path d="M173.312 42.262C173.291 44.095 174.164 45.943 175.974 47.574V107.574C174.164 105.943 173.291 104.095 173.312 102.262V42.262Z" fill="#8BC5E4"/>
<path d="M175.981 47.5801C170.75 51.2201 165.268 54.8051 159.682 58.2801V118.28C165.268 114.805 170.75 111.22 175.981 107.58V47.5801Z" fill="#8BC5E4"/>
<path d="M159.682 58.28C160.74 54.362 161.266 50.484 161.271 46.655V106.655C161.266 110.484 160.74 114.362 159.682 118.28V58.28Z" fill="#8BC5E4"/>
<path d="M161.272 46.6561C161.294 32.3351 154.039 18.7021 140.116 6.23608V66.2361C154.039 78.7021 161.294 92.3351 161.272 106.656V46.6561Z" fill="#8BC5E4"/>
<path d="M140.11 6.22998C163.259 8.23498 185.559 14.39 203.408 24.695V84.695C185.559 74.39 163.259 68.235 140.11 66.23V6.22998Z" fill="#8BC5E4"/>
<path d="M131.692 5.67993C147 18.2909 155.072 32.0029 155.092 46.5469V106.547C155.072 92.0029 147 78.2909 131.692 65.6799V5.67993Z" fill="#8BC5E4"/>
<path d="M155.092 46.542C155.1 51.466 154.184 56.484 152.315 61.588V121.588C154.184 116.484 155.1 111.466 155.092 106.542V46.542Z" fill="#8BC5E4"/>
<path d="M152.312 61.5951C149.827 60.1601 147.332 58.5501 144.864 57.2051V117.205C147.332 118.55 149.827 120.16 152.312 121.595V61.5951Z" fill="#8BC5E4"/>
<path d="M144.665 57.1C128.28 49.52 112.769 43.105 96.7393 37.53V97.53C112.769 103.105 128.28 109.52 144.665 117.1V57.1Z" fill="#8BC5E4"/>
<path d="M96.7393 37.53C97.396 36.465 97.715 35.363 97.716 34.271V94.271C97.715 95.363 97.396 96.465 96.7393 97.53V37.53Z" fill="#8BC5E4"/>
<path d="M97.7159 34.272C97.7199 31.734 96.0029 29.244 92.7969 27.384V87.384C96.0029 89.244 97.7199 91.734 97.7159 94.272V34.272Z" fill="#8BC5E4"/>
<path d="M92.7902 27.3799C89.6205 25.5499 85.3337 24.5249 80.8477 24.5249V84.5249C85.3337 84.5249 89.6205 85.5499 92.7902 87.3799V27.3799Z" fill="#8BC5E4"/>
<path d="M80.8479 24.5249C76.3792 24.5249 72.0751 25.5499 68.9141 27.3849V87.3849C72.0751 85.5499 76.3792 84.5249 80.8479 84.5249V24.5249Z" fill="#8BC5E4"/>
<path d="M68.9142 27.385C68.3599 27.705 67.8403 28.055 67.3726 28.415V88.415C67.8403 88.055 68.3599 87.705 68.9142 87.385V27.385Z" fill="#8BC5E4"/>
<path d="M67.3725 28.415C60.4876 26.53 53.3862 24.74 45.9731 23.04V83.04C53.3862 84.74 60.4876 86.53 67.3725 88.415V28.415Z" fill="#8BC5E4"/>
<path d="M45.9731 23.0399C69.9446 10.1499 101.191 4.3599 131.692 5.6799V65.6799C101.191 64.3599 69.9446 70.1499 45.9731 83.0399V23.0399Z" fill="#8BC5E4"/>
<path d="M209.808 21C162.012 -6.59496 84.3898 -6.58996 36.6025 21C-11.1848 48.59 -11.1934 93.405 36.6025 121C84.3984 148.595 162.02 148.59 209.808 121C257.595 93.41 257.604 48.595 209.808 21ZM203.408 24.695C203.555 24.78 203.702 24.865 203.849 24.95C201.208 27.605 198.263 30.305 195.085 33.01C189.127 31.97 182.658 32.895 178.25 35.44C172.646 38.675 171.702 43.73 175.981 47.58C170.75 51.22 165.268 54.805 159.682 58.28C164.696 39.705 157.759 22.03 140.11 6.23004C163.259 8.23504 185.559 14.39 203.408 24.695ZM208.457 27.8C245.046 51.815 246.033 87.535 211.418 112.18C207.452 106.24 202.853 100.695 197.813 95.515C198.09 95.385 198.359 95.24 198.627 95.095C201.797 93.265 203.572 90.79 203.572 88.2C203.572 85.62 201.797 83.135 198.619 81.31C193.57 78.395 185.888 77.64 179.436 79.415C172.508 74.145 165.216 69.325 157.889 64.895C165.675 60.26 173.348 55.36 180.579 50.335C187.282 53.025 196.35 52.55 202.126 49.225C208.716 45.42 208.716 39.25 202.117 35.44C201.719 35.21 201.295 34.995 200.853 34.79C203.564 32.445 206.11 30.115 208.457 27.8ZM131.692 5.68004C152.182 22.56 159.708 41.415 152.312 61.595C149.827 60.16 147.333 58.55 144.864 57.205L144.769 57.15L144.665 57.1C128.28 49.52 112.769 43.105 96.7393 37.53C98.9217 33.99 97.3802 30.04 92.7902 27.38C89.6206 25.55 85.3337 24.525 80.8477 24.525C76.379 24.525 72.0749 25.55 68.9139 27.385C68.3596 27.705 67.84 28.055 67.3724 28.415C60.4875 26.53 53.3861 24.74 45.9729 23.04C69.9445 10.15 101.191 4.36004 131.692 5.68004ZM142.621 61.16C144.726 62.395 146.839 63.715 148.952 64.945C141.14 69.465 133.32 73.69 125.786 77.38C110.691 84.585 94.86 90.165 79.4015 94.32C78.9425 93.965 78.4488 93.63 77.9119 93.31C74.7509 91.485 70.4554 90.455 65.9781 90.46C61.5007 90.455 57.2052 91.485 54.0356 93.315C50.6234 95.285 48.8481 98 49.1339 100.785C40.5256 102.155 32.2984 103.055 24.712 103.525C0.333349 78.97 5.746 47.285 40.9499 25.91C49.1772 27.76 57.0061 29.7 64.5578 31.77C63.0076 35.125 64.6704 38.705 68.9139 41.165C72.0749 42.99 76.3704 44.02 80.8477 44.015C85.3251 44.02 89.6206 42.99 92.7816 41.165C93.024 41.025 93.2492 40.885 93.4657 40.74C109.141 46.2 124.348 52.49 140.508 59.97C141.218 60.35 141.92 60.755 142.621 61.16ZM155.568 68.855C161.942 72.795 168.247 77.035 174.266 81.61C168.143 85.455 168.36 91.4 174.751 95.09C179.332 97.735 186.122 98.625 192.245 97.39C197.64 102.955 202.498 108.94 206.603 115.39C205.564 116.04 204.499 116.675 203.408 117.305C174.491 134 133.9 139.805 96.8779 134.72C105.677 128.02 114.129 121.06 121.923 113.69C127.96 114.835 134.619 113.92 139.123 111.32C142.284 109.495 144.068 107.015 144.059 104.43C144.068 101.845 142.284 99.365 139.114 97.535C138.681 97.295 138.222 97.06 137.746 96.845C143.981 89.255 149.428 81.19 153.81 72.5C153.81 72.5 153.802 72.495 153.81 72.49C154.538 71.27 154.954 70.07 155.568 68.855ZM148.025 70.61C147.887 70.84 147.826 71.065 147.688 71.295L147.67 71.335L147.644 71.38C143.401 79.84 138.101 87.7 132.03 95.105C126.08 94.07 119.637 95.01 115.246 97.535C112.077 99.365 110.293 101.845 110.301 104.43C110.293 107.015 112.077 109.495 115.238 111.32C115.575 111.515 115.922 111.695 116.285 111.865C108.205 119.5 99.372 126.7 90.1488 133.665C72.9063 130.64 56.651 125.185 43.0024 117.305C37.4599 114.105 32.6015 110.66 28.4445 107.02C35.5113 106.5 43.0024 105.635 50.762 104.405C51.5847 105.4 52.6932 106.31 54.0356 107.095C57.2052 108.925 61.4921 109.95 65.9781 109.95C70.4468 109.95 74.7509 108.925 77.9119 107.1C82.1727 104.63 83.8269 101.045 82.268 97.685C98.1682 93.405 114.398 87.655 129.917 80.255L129.943 80.24C135.832 77.35 141.946 74 148.025 70.61Z" fill="#8BC5E4"/>
<path d="M142.621 61.16C144.726 62.395 146.839 63.715 148.952 64.945C141.14 69.465 133.32 73.69 125.786 77.38C110.691 84.585 94.86 90.165 79.4015 94.32C78.9425 93.965 78.4488 93.63 77.9119 93.31C74.7509 91.485 70.4554 90.455 65.9781 90.46C61.5007 90.455 57.2052 91.485 54.0356 93.315C50.6234 95.285 48.8481 98 49.1339 100.785C40.5256 102.155 32.2984 103.055 24.712 103.525C0.333349 78.97 5.746 47.285 40.9499 25.91C49.1772 27.76 57.0061 29.7 64.5578 31.77C63.0076 35.125 64.6704 38.705 68.9139 41.165C72.0749 42.99 76.3704 44.02 80.8477 44.015C85.3251 44.02 89.6206 42.99 92.7816 41.165C93.024 41.025 93.2492 40.885 93.4657 40.74C109.141 46.2 124.348 52.49 140.508 59.97C141.218 60.35 141.92 60.755 142.621 61.16Z" fill="white"/>
<path d="M148.025 70.61C147.887 70.84 147.826 71.065 147.688 71.295L147.67 71.335L147.644 71.38C143.401 79.84 138.101 87.7 132.03 95.105C126.08 94.07 119.637 95.01 115.246 97.535C112.077 99.365 110.293 101.845 110.301 104.43C110.293 107.015 112.077 109.495 115.238 111.32C115.575 111.515 115.922 111.695 116.285 111.865C108.205 119.5 99.372 126.7 90.1488 133.665C72.9063 130.64 56.651 125.185 43.0024 117.305C37.4599 114.105 32.6015 110.66 28.4445 107.02C35.5113 106.5 43.0024 105.635 50.762 104.405C51.5847 105.4 52.6932 106.31 54.0356 107.095C57.2052 108.925 61.4921 109.95 65.9781 109.95C70.4468 109.95 74.7509 108.925 77.9119 107.1C82.1727 104.63 83.8269 101.045 82.268 97.685C98.1682 93.405 114.398 87.655 129.917 80.255L129.943 80.24C135.832 77.35 141.946 74 148.025 70.61Z" fill="white"/>
<path d="M155.568 68.855C161.942 72.795 168.247 77.035 174.266 81.61C168.143 85.455 168.36 91.4 174.751 95.09C179.332 97.735 186.122 98.625 192.245 97.39C197.64 102.955 202.498 108.94 206.603 115.39C205.564 116.04 204.499 116.675 203.408 117.305C174.491 134 133.9 139.805 96.8779 134.72C105.677 128.02 114.129 121.06 121.923 113.69C127.96 114.835 134.619 113.92 139.123 111.32C142.284 109.495 144.068 107.015 144.059 104.43C144.068 101.845 142.284 99.365 139.114 97.535C138.681 97.295 138.222 97.06 137.746 96.845C143.981 89.255 149.428 81.19 153.81 72.5C153.81 72.5 153.802 72.495 153.81 72.49C154.538 71.27 154.954 70.07 155.568 68.855Z" fill="white"/>
<path d="M208.457 27.8C245.046 51.815 246.033 87.535 211.418 112.18C207.452 106.24 202.853 100.695 197.813 95.515C198.09 95.385 198.359 95.24 198.627 95.095C201.797 93.265 203.572 90.79 203.572 88.2C203.572 85.62 201.797 83.135 198.619 81.31C193.57 78.395 185.888 77.64 179.436 79.415C172.508 74.145 165.216 69.325 157.889 64.895C165.675 60.26 173.348 55.36 180.579 50.335C187.282 53.025 196.35 52.55 202.126 49.225C208.716 45.42 208.716 39.25 202.117 35.44C201.719 35.21 201.295 34.995 200.853 34.79C203.564 32.445 206.11 30.115 208.457 27.8Z" fill="white"/>
<path d="M203.408 24.695L203.849 24.95C201.208 27.605 198.263 30.305 195.085 33.01C189.127 31.97 182.658 32.895 178.25 35.44C172.646 38.675 171.702 43.73 175.981 47.58C170.75 51.22 165.268 54.805 159.682 58.28C164.696 39.705 157.759 22.03 140.11 6.23004C163.259 8.23504 185.559 14.39 203.408 24.695Z" fill="white"/>
<path d="M131.692 5.68004C152.182 22.56 159.708 41.415 152.312 61.595C149.827 60.16 147.333 58.55 144.864 57.205L144.769 57.15L144.665 57.1C128.28 49.52 112.769 43.105 96.7393 37.53C98.9217 33.99 97.3802 30.04 92.7902 27.38C89.6206 25.55 85.3337 24.525 80.8477 24.525C76.379 24.525 72.0749 25.55 68.9139 27.385C68.3596 27.705 67.84 28.055 67.3724 28.415C60.4875 26.53 53.3861 24.74 45.9729 23.04C69.9445 10.15 101.191 4.36004 131.692 5.68004Z" fill="white"/>
</svg>
