<svg width="226" height="316" viewBox="0 0 226 316" fill="none" xmlns="http://www.w3.org/2000/svg">
<path d="M0 38.1331V185.993L51.9615 155.993V8.13306L0 38.1331Z" fill="#8BC5E4"/>
<path d="M10.626 205.018L122.898 269.838L174.859 239.838L62.5876 175.018L10.626 205.018Z" fill="#8BC5E4"/>
<path d="M122.897 269.838V286.198L174.859 256.198V239.838L122.897 269.838Z" fill="#8BC5E4"/>
<path d="M122.897 286.198L136.052 284.613L188.014 254.613L174.859 256.198L122.897 286.198Z" fill="#8BC5E4"/>
<path d="M136.053 284.613L149.216 301.393L201.178 271.393L188.014 254.613L136.053 284.613Z" fill="#8BC5E4"/>
<path d="M149.216 301.393V285.033L201.178 255.033V271.393L149.216 301.393Z" fill="#8BC5E4"/>
<path d="M149.216 285.033L162.579 292.748L214.541 262.748L201.178 255.033L149.216 285.033Z" fill="#8BC5E4"/>
<path d="M173.205 285.993V138.133L225.167 108.133V255.993L173.205 285.993Z" fill="#8BC5E4"/>
<path d="M162.579 119.108L10.626 31.3782L62.5876 1.37817L214.54 89.1082L162.579 119.108Z" fill="#8BC5E4"/>
<path d="M10.626 31.3782L62.5876 1.37817L10.626 31.3782Z" fill="#8BC5E4"/>
<path d="M10.626 37.1982L162.579 124.928L214.54 94.9282L62.5876 7.19824L10.626 37.1982Z" fill="#8BC5E4"/>
<path d="M168.407 135.363V283.223L220.369 253.223V105.363L168.407 135.363Z" fill="#8BC5E4"/>
<path d="M162.579 286.928L149.216 279.213L201.178 249.213L214.541 256.928L162.579 286.928Z" fill="#8BC5E4"/>
<path d="M149.216 279.213V268.173L201.178 238.173V249.213L149.216 279.213Z" fill="#8BC5E4"/>
<path d="M122.897 253.178V264.018L174.859 234.018V223.178L122.897 253.178Z" fill="#8BC5E4"/>
<path d="M122.898 264.018L10.626 199.198L62.5876 169.198L174.859 234.018L122.898 264.018Z" fill="#8BC5E4"/>
<path d="M4.79785 188.763V40.9031L56.7593 10.9031V158.763L4.79785 188.763Z" fill="#8BC5E4"/>
<path d="M10.626 37.1982L62.5876 7.19824L10.626 37.1982Z" fill="#8BC5E4"/>
<path d="M33.9307 85.4531V95.0931L85.8922 65.0931V55.4531L33.9307 85.4531Z" fill="#8BC5E4"/>
<path d="M33.9307 95.0933L140.331 156.523L192.292 126.523L85.8922 65.0933L33.9307 95.0933Z" fill="#8BC5E4"/>
<path d="M140.331 156.523V146.883L192.292 116.883V126.523L140.331 156.523Z" fill="#8BC5E4"/>
<path d="M140.331 146.883L33.9307 85.4531L85.8922 55.4531L192.292 116.883L140.331 146.883Z" fill="#8BC5E4"/>
<path d="M33.9307 85.4531L85.8922 55.4531L33.9307 85.4531Z" fill="#8BC5E4"/>
<path d="M33.9307 111.583V121.223L85.8922 91.2233V81.5833L33.9307 111.583Z" fill="#8BC5E4"/>
<path d="M33.9307 121.223L140.331 182.653L192.292 152.653L85.8922 91.2231L33.9307 121.223Z" fill="#8BC5E4"/>
<path d="M140.331 182.653V173.013L192.292 143.013V152.653L140.331 182.653Z" fill="#8BC5E4"/>
<path d="M140.331 173.013L33.9307 111.583L85.8922 81.5833L192.292 143.013L140.331 173.013Z" fill="#8BC5E4"/>
<path d="M33.9307 111.583L85.8922 81.5833L33.9307 111.583Z" fill="#8BC5E4"/>
<path d="M33.9307 138.023V147.663L85.8922 117.663V108.023L33.9307 138.023Z" fill="#8BC5E4"/>
<path d="M33.9307 147.663L92.1709 181.288L144.132 151.288L85.8922 117.663L33.9307 147.663Z" fill="#8BC5E4"/>
<path d="M92.1709 181.288V171.648L144.132 141.648V151.288L92.1709 181.288Z" fill="#8BC5E4"/>
<path d="M92.1709 171.648L33.9307 138.023L85.8922 108.023L144.132 141.648L92.1709 171.648Z" fill="#8BC5E4"/>
<path d="M33.9307 138.023L85.8922 108.023L33.9307 138.023Z" fill="#8BC5E4"/>
<path d="M10.626 37.1982L162.579 124.928L214.54 94.9282L62.5876 7.19824L10.626 37.1982Z" fill="#8BC5E4"/>
<path d="M168.407 135.363V283.223L220.369 253.223V105.363L168.407 135.363Z" fill="#8BC5E4"/>
<path d="M162.579 286.928L149.216 279.213L201.178 249.213L214.541 256.928L162.579 286.928Z" fill="#8BC5E4"/>
<path d="M149.216 279.213V268.173L201.178 238.173V249.213L149.216 279.213Z" fill="#8BC5E4"/>
<path d="M122.897 253.178V264.018L174.859 234.018V223.178L122.897 253.178Z" fill="#8BC5E4"/>
<path d="M122.898 264.018L10.626 199.198L62.5876 169.198L174.859 234.018L122.898 264.018Z" fill="#8BC5E4"/>
<path d="M4.79785 188.763V40.9031L56.7593 10.9031V158.763L4.79785 188.763Z" fill="#8BC5E4"/>
<path d="M10.626 37.1982L62.5876 7.19824L10.626 37.1982Z" fill="#8BC5E4"/>
<path d="M33.9307 95.0931V85.4531L85.8922 55.4531V65.0931L33.9307 95.0931Z" fill="#8BC5E4"/>
<path d="M33.9307 85.4531L140.331 146.883L192.292 116.883L85.8922 55.4531L33.9307 85.4531Z" fill="#8BC5E4"/>
<path d="M140.331 146.883V156.523L192.292 126.523V116.883L140.331 146.883Z" fill="#8BC5E4"/>
<path d="M140.331 156.523L33.9307 95.0933L85.8922 65.0933L192.292 126.523L140.331 156.523Z" fill="#8BC5E4"/>
<path d="M33.9307 95.0933L85.8922 65.0933L33.9307 95.0933Z" fill="#8BC5E4"/>
<path d="M33.9307 121.223V111.583L85.8922 81.5833V91.2233L33.9307 121.223Z" fill="#8BC5E4"/>
<path d="M33.9307 111.583L140.331 173.013L192.292 143.013L85.8922 81.5833L33.9307 111.583Z" fill="#8BC5E4"/>
<path d="M140.331 173.013V182.653L192.292 152.653V143.013L140.331 173.013Z" fill="#8BC5E4"/>
<path d="M140.331 182.653L33.9307 121.223L85.8922 91.2231L192.292 152.653L140.331 182.653Z" fill="#8BC5E4"/>
<path d="M33.9307 121.223L85.8922 91.2231L33.9307 121.223Z" fill="#8BC5E4"/>
<path d="M33.9307 147.663V138.023L85.8922 108.023V117.663L33.9307 147.663Z" fill="#8BC5E4"/>
<path d="M33.9307 138.023L92.1709 171.648L144.132 141.648L85.8922 108.023L33.9307 138.023Z" fill="#8BC5E4"/>
<path d="M92.1709 171.648V181.288L144.132 151.288V141.648L92.1709 171.648Z" fill="#8BC5E4"/>
<path d="M92.1709 181.288L33.9307 147.663L85.8922 117.663L144.132 151.288L92.1709 181.288Z" fill="#8BC5E4"/>
<path d="M33.9307 147.663L85.8922 117.663L33.9307 147.663Z" fill="#8BC5E4"/>
<path d="M10.6259 31.3781C7.83477 29.7661 5.28577 29.6181 3.38477 30.6741L55.3463 0.674141C57.2473 -0.381859 59.7963 -0.233859 62.5875 1.37814L10.6259 31.3781Z" fill="#8BC5E4"/>
<path d="M3.386 30.6741C1.306 31.8291 0.001 34.4261 0 38.1281L51.9615 8.12807C51.9625 4.42607 53.2675 1.82907 55.3475 0.674072L3.386 30.6741Z" fill="#8BC5E4"/>
<path d="M0 185.993C0 193.083 4.7805 201.643 10.6261 205.018L62.5877 175.018C56.742 171.643 51.9615 163.083 51.9615 155.993L0 185.993Z" fill="#8BC5E4"/>
<path d="M162.579 292.748C165.37 294.36 167.919 294.508 169.82 293.452L221.782 263.452C219.881 264.508 217.332 264.36 214.541 262.748L162.579 292.748Z" fill="#8BC5E4"/>
<path d="M169.819 293.452C171.899 292.297 173.204 289.7 173.205 285.998L225.166 255.998C225.165 259.7 223.86 262.297 221.78 263.452L169.819 293.452Z" fill="#8BC5E4"/>
<path d="M173.205 138.133C173.205 131.043 168.425 122.483 162.579 119.108L214.541 89.1082C220.386 92.4832 225.167 101.043 225.167 108.133L173.205 138.133Z" fill="#8BC5E4"/>
<path d="M162.579 124.928C165.853 126.818 168.408 131.393 168.408 135.363L220.369 105.363C220.369 101.393 217.814 96.8182 214.541 94.9282L162.579 124.928Z" fill="#8BC5E4"/>
<path d="M168.407 283.223C168.407 285.249 167.738 286.667 166.646 287.315L218.607 257.315C219.699 256.667 220.368 255.249 220.369 253.223L168.407 283.223Z" fill="#8BC5E4"/>
<path d="M166.648 287.314C165.607 287.933 164.181 287.851 162.584 286.931L214.545 256.931C216.142 257.851 217.568 257.933 218.609 257.314L166.648 287.314Z" fill="#8BC5E4"/>
<path d="M149.216 268.173C149.909 267.938 150.566 267.637 151.185 267.275L203.147 237.275C202.528 237.637 201.871 237.938 201.178 238.173L149.216 268.173Z" fill="#8BC5E4"/>
<path d="M151.184 267.275C155.479 264.76 157.954 259.258 157.963 251.949L209.925 221.949C209.916 229.258 207.441 234.76 203.146 237.275L151.184 267.275Z" fill="#8BC5E4"/>
<path d="M157.963 251.943C157.963 244.863 155.642 236.733 151.511 229.338L203.473 199.338C207.604 206.733 209.925 214.863 209.925 221.943L157.963 251.943Z" fill="#8BC5E4"/>
<path d="M151.511 229.338C147.38 221.943 141.786 215.903 135.94 212.528L187.901 182.528C193.747 185.903 199.342 191.943 203.473 199.338L151.511 229.338Z" fill="#8BC5E4"/>
<path d="M135.94 212.528C129.991 209.093 124.594 208.838 120.632 211.2L172.593 181.2C176.555 178.838 181.952 179.093 187.901 182.528L135.94 212.528Z" fill="#8BC5E4"/>
<path d="M120.633 211.199C116.498 213.664 113.927 218.981 113.926 226.513L165.887 196.513C165.888 188.981 168.459 183.664 172.594 181.199L120.633 211.199Z" fill="#8BC5E4"/>
<path d="M113.926 226.518C113.934 235.003 117.26 244.893 122.898 253.178L174.859 223.178C169.222 214.893 165.896 205.003 165.887 196.518L113.926 226.518Z" fill="#8BC5E4"/>
<path d="M10.6262 199.198C7.35265 197.308 4.79785 192.723 4.79785 188.763L56.7593 158.763C56.7593 162.723 59.3142 167.308 62.5878 169.198L10.6262 199.198Z" fill="#8BC5E4"/>
<path d="M4.79785 40.9031C4.79805 38.8711 5.46705 37.4541 6.55905 36.8071L58.5205 6.80713C57.4286 7.45413 56.7595 8.87113 56.7593 10.9031L4.79785 40.9031Z" fill="#8BC5E4"/>
<path d="M6.55713 36.8081C7.59813 36.1911 9.02413 36.2751 10.6211 37.1951L62.5826 7.19509C60.9856 6.27509 59.5596 6.19109 58.5186 6.80809L6.55713 36.8081Z" fill="#8BC5E4"/>
<path d="M162.579 124.928C165.853 126.818 168.408 131.393 168.408 135.363L220.369 105.363C220.369 101.393 217.814 96.8182 214.541 94.9282L162.579 124.928Z" fill="#8BC5E4"/>
<path d="M168.407 283.223C168.407 285.249 167.738 286.667 166.646 287.315L218.607 257.315C219.699 256.667 220.368 255.249 220.369 253.223L168.407 283.223Z" fill="#8BC5E4"/>
<path d="M166.648 287.314C165.607 287.933 164.181 287.851 162.584 286.931L214.545 256.931C216.142 257.851 217.568 257.933 218.609 257.314L166.648 287.314Z" fill="#8BC5E4"/>
<path d="M149.216 268.173C149.909 267.938 150.566 267.637 151.185 267.275L203.147 237.275C202.528 237.637 201.871 237.938 201.178 238.173L149.216 268.173Z" fill="#8BC5E4"/>
<path d="M151.184 267.275C155.479 264.76 157.954 259.258 157.963 251.949L209.925 221.949C209.916 229.258 207.441 234.76 203.146 237.275L151.184 267.275Z" fill="#8BC5E4"/>
<path d="M157.963 251.943C157.963 244.863 155.642 236.733 151.511 229.338L203.473 199.338C207.604 206.733 209.925 214.863 209.925 221.943L157.963 251.943Z" fill="#8BC5E4"/>
<path d="M151.511 229.338C147.38 221.943 141.786 215.903 135.94 212.528L187.901 182.528C193.747 185.903 199.342 191.943 203.473 199.338L151.511 229.338Z" fill="#8BC5E4"/>
<path d="M135.94 212.528C129.991 209.093 124.594 208.838 120.632 211.2L172.593 181.2C176.555 178.838 181.952 179.093 187.901 182.528L135.94 212.528Z" fill="#8BC5E4"/>
<path d="M120.633 211.199C116.498 213.664 113.927 218.981 113.926 226.513L165.887 196.513C165.888 188.981 168.459 183.664 172.594 181.199L120.633 211.199Z" fill="#8BC5E4"/>
<path d="M113.926 226.518C113.934 235.003 117.26 244.893 122.898 253.178L174.859 223.178C169.222 214.893 165.896 205.003 165.887 196.518L113.926 226.518Z" fill="#8BC5E4"/>
<path d="M10.6262 199.198C7.35265 197.308 4.79785 192.723 4.79785 188.763L56.7593 158.763C56.7593 162.723 59.3142 167.308 62.5878 169.198L10.6262 199.198Z" fill="#8BC5E4"/>
<path d="M4.79785 40.9031C4.79805 38.8711 5.46705 37.4541 6.55905 36.8071L58.5205 6.80713C57.4286 7.45413 56.7595 8.87113 56.7593 10.9031L4.79785 40.9031Z" fill="#8BC5E4"/>
<path d="M6.55713 36.8081C7.59813 36.1911 9.02413 36.2751 10.6211 37.1951L62.5826 7.19509C60.9856 6.27509 59.5596 6.19109 58.5186 6.80809L6.55713 36.8081Z" fill="#8BC5E4"/>
<path d="M10.6261 31.3782C4.78046 28.0032 0 31.0432 0 38.1332V185.993C0 193.083 4.78046 201.643 10.6261 205.018L122.898 269.838V286.198L136.053 284.613L149.216 301.393V285.033L162.579 292.748C168.425 296.123 173.205 293.083 173.205 285.993V138.133C173.205 131.043 168.425 122.483 162.579 119.108L10.6261 31.3782ZM10.6261 37.1982L162.579 124.928C165.853 126.818 168.407 131.393 168.407 135.363V283.223C168.407 287.183 165.853 288.818 162.579 286.928L149.216 279.213V268.173C154.715 266.308 157.954 260.308 157.963 251.943C157.963 244.863 155.642 236.733 151.511 229.338C147.38 221.943 141.786 215.903 135.94 212.528C123.781 205.508 113.926 211.768 113.926 226.518C113.934 235.003 117.26 244.893 122.898 253.178V264.018L10.6261 199.198C7.35256 197.308 4.79778 192.723 4.79778 188.763V40.9032C4.79778 36.9332 7.35256 35.3082 10.6261 37.1982ZM33.9309 85.4532V95.0932L140.331 156.523V146.883L33.9309 85.4532ZM33.9309 111.583V121.223L140.331 182.653V173.013L33.9309 111.583ZM33.9309 138.023V147.663L92.1711 181.288V171.648L33.9309 138.023Z" fill="#8BC5E4"/>
<path fill-rule="evenodd" clip-rule="evenodd" d="M10.6261 37.1982L162.579 124.928C165.853 126.818 168.407 131.393 168.407 135.363V283.223C168.407 287.183 165.853 288.818 162.579 286.928L149.216 279.213V268.173C154.715 266.308 157.954 260.308 157.963 251.943C157.963 244.863 155.642 236.733 151.511 229.338C147.38 221.943 141.786 215.903 135.94 212.528C123.781 205.508 113.926 211.768 113.926 226.518C113.934 235.003 117.26 244.893 122.898 253.178V264.018L10.6261 199.198C7.35256 197.308 4.79778 192.723 4.79778 188.763V40.9032C4.79778 36.9332 7.35256 35.3082 10.6261 37.1982ZM33.9309 95.0932V85.4532L140.331 146.883V156.523L33.9309 95.0932ZM33.9309 121.223V111.583L140.331 173.013V182.653L33.9309 121.223ZM33.9309 147.663V138.023L92.1711 171.648V181.288L33.9309 147.663Z" fill="white"/>
</svg>
