<svg width="226" height="315" viewBox="0 0 226 315" fill="none" xmlns="http://www.w3.org/2000/svg">
<path d="M26.9424 30V42.98L78.9039 12.98V0L26.9424 30Z" fill="#8BC5E4"/>
<path d="M26.9424 42.98L28.5618 43.915L80.5233 13.915L78.9039 12.98L26.9424 42.98Z" fill="#8BC5E4"/>
<path d="M28.5615 43.915V62.985L80.523 32.985V13.915L28.5615 43.915Z" fill="#8BC5E4"/>
<path d="M28.5613 62.985L28.0938 62.715L80.0552 32.715L80.5229 32.985L28.5613 62.985Z" fill="#8BC5E4"/>
<path d="M23.8154 65.315V96.245L75.7769 66.245V35.315L23.8154 65.315Z" fill="#8BC5E4"/>
<path d="M23.8158 96.245L14.6099 90.93L66.5715 60.93L75.7773 66.245L23.8158 96.245Z" fill="#8BC5E4"/>
<path d="M0 99.795V197.145L51.9615 167.145V69.795L0 99.795Z" fill="#8BC5E4"/>
<path d="M14.6099 222.88L158.595 306.01L210.557 276.01L66.5715 192.88L14.6099 222.88Z" fill="#8BC5E4"/>
<path d="M173.205 297.145V199.795L225.167 169.795V267.145L173.205 297.145Z" fill="#8BC5E4"/>
<path d="M158.595 174.06L148.671 168.33L200.632 138.33L210.557 144.06L158.595 174.06Z" fill="#8BC5E4"/>
<path d="M148.671 168.33V137.4L200.632 107.4V138.33L148.671 168.33Z" fill="#8BC5E4"/>
<path d="M144.392 129.86L143.925 129.59L195.886 99.59L196.354 99.86L144.392 129.86Z" fill="#8BC5E4"/>
<path d="M143.925 129.59V110.52L195.886 80.52V99.59L143.925 129.59Z" fill="#8BC5E4"/>
<path d="M143.925 110.52L145.544 111.455L197.506 81.455L195.886 80.52L143.925 110.52Z" fill="#8BC5E4"/>
<path d="M145.544 111.455V98.475L197.506 68.475V81.455L145.544 111.455Z" fill="#8BC5E4"/>
<path d="M145.544 98.475L137.473 93.815L189.434 63.815L197.506 68.475L145.544 98.475Z" fill="#8BC5E4"/>
<path d="M137.473 93.815V106.795L189.434 76.795V63.815L137.473 93.815Z" fill="#8BC5E4"/>
<path d="M137.473 106.795L139.092 107.73L191.054 77.73L189.434 76.795L137.473 106.795Z" fill="#8BC5E4"/>
<path d="M139.092 107.73V126.8L191.054 96.8V77.73L139.092 107.73Z" fill="#8BC5E4"/>
<path d="M139.093 126.8L138.625 126.53L190.586 96.53L191.054 96.8L139.093 126.8Z" fill="#8BC5E4"/>
<path d="M134.347 129.13V160.06L186.308 130.06V99.13L134.347 129.13Z" fill="#8BC5E4"/>
<path d="M134.346 160.06L38.1396 104.515L90.1011 74.515L186.308 130.06L134.346 160.06Z" fill="#8BC5E4"/>
<path d="M38.1396 104.515V73.585L90.1011 43.585V74.515L38.1396 104.515Z" fill="#8BC5E4"/>
<path d="M33.8613 66.045L33.3936 65.775L85.3552 35.775L85.8228 36.045L33.8613 66.045Z" fill="#8BC5E4"/>
<path d="M33.3936 65.775V46.705L85.3552 16.705V35.775L33.3936 65.775Z" fill="#8BC5E4"/>
<path d="M33.3936 46.705L35.0131 47.64L86.9746 17.64L85.3552 16.705L33.3936 46.705Z" fill="#8BC5E4"/>
<path d="M35.0137 47.64V34.66L86.9752 4.66V17.64L35.0137 47.64Z" fill="#8BC5E4"/>
<path d="M35.0137 34.66L26.9424 30L78.9039 0L86.9752 4.66L35.0137 34.66Z" fill="#8BC5E4"/>
<path d="M26.9424 30L78.9039 0L26.9424 30Z" fill="#8BC5E4"/>
<path d="M14.6099 96.16L158.595 179.29L210.557 149.29L66.5715 66.16L14.6099 96.16Z" fill="#8BC5E4"/>
<path d="M168.78 197.24V294.59L220.741 264.59V167.24L168.78 197.24Z" fill="#8BC5E4"/>
<path d="M158.595 300.77L14.6099 217.64L66.5715 187.64L210.557 270.77L158.595 300.77Z" fill="#8BC5E4"/>
<path d="M4.42529 199.7V102.35L56.3868 72.35V169.7L4.42529 199.7Z" fill="#8BC5E4"/>
<path d="M14.6099 96.16L66.5715 66.16L14.6099 96.16Z" fill="#8BC5E4"/>
<path d="M13.3977 171.82L11.9688 170.995L63.9302 140.995L65.3591 141.82L13.3977 171.82Z" fill="#8BC5E4"/>
<path d="M158.968 255.865L160.388 256.685L212.35 226.685L210.929 225.865L158.968 255.865Z" fill="#8BC5E4"/>
<path d="M41.5693 174.365L93.5308 144.365L41.5693 174.365Z" fill="#8BC5E4"/>
<path d="M17.6496 174.275L16.2466 173.465L68.2082 143.465L69.6111 144.275L17.6496 174.275Z" fill="#8BC5E4"/>
<path d="M23.729 169.115L75.6905 139.115L23.729 169.115Z" fill="#8BC5E4"/>
<path d="M59.418 189.72L111.379 159.72L59.418 189.72Z" fill="#8BC5E4"/>
<path d="M95.0981 210.32L147.06 180.32L95.0981 210.32Z" fill="#8BC5E4"/>
<path d="M130.778 230.92L182.74 200.92L130.778 230.92Z" fill="#8BC5E4"/>
<path d="M41.5693 181.095L93.5308 151.095L41.5693 181.095Z" fill="#8BC5E4"/>
<path d="M77.2578 201.7L129.219 171.7L77.2578 201.7Z" fill="#8BC5E4"/>
<path d="M112.938 222.3L164.9 192.3L112.938 222.3Z" fill="#8BC5E4"/>
<path d="M154.707 253.405L156.127 254.225L208.089 224.225L206.669 223.405L154.707 253.405Z" fill="#8BC5E4"/>
<path d="M148.627 242.905L200.588 212.905L148.627 242.905Z" fill="#8BC5E4"/>
<path d="M14.6099 96.16L158.595 179.29L210.557 149.29L66.5715 66.16L14.6099 96.16Z" fill="#8BC5E4"/>
<path d="M168.78 197.24V294.59L220.741 264.59V167.24L168.78 197.24Z" fill="#8BC5E4"/>
<path d="M158.595 300.77L14.6099 217.64L66.5715 187.64L210.557 270.77L158.595 300.77Z" fill="#8BC5E4"/>
<path d="M4.42529 199.7V102.35L56.3868 72.35V169.7L4.42529 199.7Z" fill="#8BC5E4"/>
<path d="M14.6099 96.16L66.5715 66.16L14.6099 96.16Z" fill="#8BC5E4"/>
<path d="M160.388 256.685L158.968 255.865L210.929 225.865L212.35 226.685L160.388 256.685Z" fill="#8BC5E4"/>
<path d="M11.9688 170.995L13.3977 171.82L65.3591 141.82L63.9302 140.995L11.9688 170.995Z" fill="#8BC5E4"/>
<path d="M34.0869 174.665L86.0484 144.665L34.0869 174.665Z" fill="#8BC5E4"/>
<path d="M154.707 253.405L156.127 254.225L208.089 224.225L206.669 223.405L154.707 253.405Z" fill="#8BC5E4"/>
<path d="M148.627 242.905L200.588 212.905L148.627 242.905Z" fill="#8BC5E4"/>
<path d="M137.126 241.815L137.063 241.915L189.025 211.915L189.088 211.815L137.126 241.815Z" fill="#8BC5E4"/>
<path d="M130.778 230.92L182.74 200.92L130.778 230.92Z" fill="#8BC5E4"/>
<path d="M112.938 222.3L164.9 192.3L112.938 222.3Z" fill="#8BC5E4"/>
<path d="M95.0981 210.32L147.06 180.32L95.0981 210.32Z" fill="#8BC5E4"/>
<path d="M77.2578 201.7L129.219 171.7L77.2578 201.7Z" fill="#8BC5E4"/>
<path d="M59.418 189.72L111.379 159.72L59.418 189.72Z" fill="#8BC5E4"/>
<path d="M41.5693 181.095L93.5308 151.095L41.5693 181.095Z" fill="#8BC5E4"/>
<path d="M17.6496 174.275L16.2466 173.465L68.2082 143.465L69.6111 144.275L17.6496 174.275Z" fill="#8BC5E4"/>
<path d="M23.729 169.115L75.6905 139.115L23.729 169.115Z" fill="#8BC5E4"/>
<path d="M28.0939 62.715C26.917 62.035 25.855 61.978 25.083 62.437L77.0445 32.437C77.8165 31.978 78.8785 32.035 80.0554 32.715L28.0939 62.715Z" fill="#8BC5E4"/>
<path d="M25.0849 62.435C24.3019 62.899 23.8179 63.894 23.8159 65.307L75.7774 35.307C75.7794 33.894 76.2634 32.899 77.0464 32.435L25.0849 62.435Z" fill="#8BC5E4"/>
<path d="M14.6101 90.93C10.6223 88.628 7.0023 88.44 4.3623 89.995L56.3238 59.995C58.9638 58.44 62.5838 58.628 66.5717 60.93L14.6101 90.93Z" fill="#8BC5E4"/>
<path d="M4.364 89.994C1.673 91.578 0.002 94.974 0 99.788L51.9615 69.788C51.9635 64.974 53.6345 61.578 56.3255 59.994L4.364 89.994Z" fill="#8BC5E4"/>
<path d="M0 197.145C0 206.685 6.5558 218.23 14.6098 222.88L66.5714 192.88C58.5173 188.23 51.9615 176.685 51.9615 167.145L0 197.145Z" fill="#8BC5E4"/>
<path d="M158.595 306.01C162.583 308.312 166.203 308.5 168.843 306.945L220.805 276.945C218.165 278.5 214.545 278.312 210.557 276.01L158.595 306.01Z" fill="#8BC5E4"/>
<path d="M168.841 306.946C171.532 305.362 173.203 301.966 173.205 297.152L225.166 267.152C225.164 271.966 223.493 275.362 220.802 276.946L168.841 306.946Z" fill="#8BC5E4"/>
<path d="M173.205 199.795C173.205 190.255 166.649 178.71 158.595 174.06L210.557 144.06C218.611 148.71 225.167 160.255 225.167 169.795L173.205 199.795Z" fill="#8BC5E4"/>
<path d="M148.671 137.4C148.671 134.59 146.765 131.23 144.393 129.86L196.354 99.86C198.727 101.23 200.632 104.59 200.632 107.4L148.671 137.4Z" fill="#8BC5E4"/>
<path d="M138.625 126.53C137.448 125.85 136.385 125.793 135.614 126.252L187.576 96.252C188.347 95.793 189.41 95.85 190.586 96.53L138.625 126.53Z" fill="#8BC5E4"/>
<path d="M135.616 126.25C134.833 126.714 134.349 127.709 134.347 129.122L186.308 99.122C186.31 97.709 186.794 96.714 187.577 96.25L135.616 126.25Z" fill="#8BC5E4"/>
<path d="M38.1395 73.585C38.1395 70.775 36.2342 67.415 33.8613 66.045L85.8228 36.045C88.1957 37.415 90.101 40.775 90.101 43.585L38.1395 73.585Z" fill="#8BC5E4"/>
<path d="M158.595 179.29C164.276 182.57 168.78 190.51 168.78 197.24L220.741 167.24C220.741 160.51 216.238 152.57 210.557 149.29L158.595 179.29Z" fill="#8BC5E4"/>
<path d="M168.78 294.59C168.78 297.989 167.627 300.37 165.753 301.469L217.714 271.469C219.588 270.37 220.741 267.989 220.741 264.59L168.78 294.59Z" fill="#8BC5E4"/>
<path d="M165.756 301.467C163.927 302.541 161.409 302.392 158.604 300.775L210.566 270.775C213.371 272.392 215.889 272.541 217.718 271.467L165.756 301.467Z" fill="#8BC5E4"/>
<path d="M14.6097 217.64C8.92859 214.36 4.42529 206.42 4.42529 199.7L56.3868 169.7C56.3868 176.42 60.8901 184.36 66.5713 187.64L14.6097 217.64Z" fill="#8BC5E4"/>
<path d="M4.42529 102.35C4.42489 98.952 5.57289 96.571 7.44089 95.469L59.4024 65.469C57.5344 66.571 56.3864 68.952 56.3868 72.35L4.42529 102.35Z" fill="#8BC5E4"/>
<path d="M7.44922 95.464C9.27822 94.389 11.7962 94.538 14.6022 96.155L66.5637 66.155C63.7577 64.538 61.2397 64.389 59.4107 65.464L7.44922 95.464Z" fill="#8BC5E4"/>
<path d="M41.5695 174.365C38.8603 172.801 36.6373 173.105 34.9463 174.081L86.9078 144.081C88.5988 143.105 90.8218 142.801 93.531 144.365L41.5695 174.365Z" fill="#8BC5E4"/>
<path d="M34.9508 174.078C34.6478 174.253 34.3608 174.45 34.0918 174.661L86.0533 144.661C86.3223 144.45 86.6093 144.253 86.9123 144.078L34.9508 174.078Z" fill="#8BC5E4"/>
<path d="M34.0867 174.665C33.1947 175.39 32.4326 176.28 31.7744 177.22L83.7359 147.22C84.3941 146.28 85.1562 145.39 86.0482 144.665L34.0867 174.665Z" fill="#8BC5E4"/>
<path d="M31.7745 177.22C31.3068 176.06 30.7959 174.875 30.2329 173.74L82.1945 143.74C82.7574 144.875 83.2683 146.06 83.736 147.22L31.7745 177.22Z" fill="#8BC5E4"/>
<path d="M30.2328 173.74C28.648 170.515 26.483 167.345 23.729 165.755L75.6905 135.755C78.4445 137.345 80.6095 140.515 82.1944 143.74L30.2328 173.74Z" fill="#8BC5E4"/>
<path d="M23.7293 165.755C21.2222 164.308 18.9702 164.602 17.1982 165.63L69.1597 135.63C70.9317 134.602 73.1837 134.308 75.6908 135.755L23.7293 165.755Z" fill="#8BC5E4"/>
<path d="M17.2033 165.627C16.9853 165.753 16.7753 165.89 16.5723 166.036L68.5338 136.036C68.7368 135.89 68.9468 135.753 69.1648 135.627L17.2033 165.627Z" fill="#8BC5E4"/>
<path d="M16.5674 166.04C16.4563 166.12 16.3463 166.203 16.2393 166.288L68.2008 136.288C68.3078 136.203 68.4178 136.12 68.5289 136.04L16.5674 166.04Z" fill="#8BC5E4"/>
<path d="M16.2389 166.287C14.6279 167.563 13.4889 169.411 13.3979 171.812L65.3594 141.812C65.4504 139.411 66.5895 137.563 68.2005 136.287L16.2389 166.287Z" fill="#8BC5E4"/>
<path d="M11.9688 170.995C11.9688 174.475 13.4842 178.29 15.5194 182.105L67.4809 152.105C65.4457 148.29 63.9302 144.475 63.9302 140.995L11.9688 170.995Z" fill="#8BC5E4"/>
<path d="M15.5195 182.105C17.546 185.905 20.2999 189.835 23.7294 191.815L75.6909 161.815C72.2615 159.835 69.5075 155.905 67.481 152.105L15.5195 182.105Z" fill="#8BC5E4"/>
<path d="M23.729 191.815C26.4169 193.367 28.6129 193.09 30.2709 192.122L82.2324 162.122C80.5744 163.09 78.3784 163.367 75.6905 161.815L23.729 191.815Z" fill="#8BC5E4"/>
<path d="M30.2671 192.125C30.6491 191.902 31.0031 191.642 31.3281 191.359L83.2896 161.359C82.9646 161.642 82.6106 161.902 82.2286 162.125L30.2671 192.125Z" fill="#8BC5E4"/>
<path d="M31.333 191.355C32.1471 190.645 32.8312 189.79 33.4374 188.9L85.399 158.9C84.7927 159.79 84.1086 160.645 83.2945 161.355L31.333 191.355Z" fill="#8BC5E4"/>
<path d="M33.4375 188.9C33.9572 190.17 34.5287 191.45 35.1609 192.695L87.1225 162.695C86.4903 161.45 85.9187 160.17 85.3991 158.9L33.4375 188.9Z" fill="#8BC5E4"/>
<path d="M35.1606 192.695C36.7801 195.85 38.9192 198.895 41.5692 200.425L93.5307 170.425C90.8807 168.895 88.7416 165.85 87.1222 162.695L35.1606 192.695Z" fill="#8BC5E4"/>
<path d="M41.5693 200.425C43.7261 201.67 45.4881 201.444 46.9101 200.613L98.8716 170.613C97.4496 171.444 95.6876 171.67 93.5308 170.425L41.5693 200.425Z" fill="#8BC5E4"/>
<path d="M46.9062 200.616C47.2592 200.41 47.5922 200.166 47.9043 199.899L99.8657 169.899C99.5537 170.166 99.2207 170.41 98.8677 170.616L46.9062 200.616Z" fill="#8BC5E4"/>
<path d="M47.9082 199.895C48.601 199.295 49.2246 198.575 49.7962 197.825L101.758 167.825C101.186 168.575 100.563 169.295 99.8697 169.895L47.9082 199.895Z" fill="#8BC5E4"/>
<path d="M49.7964 197.825C50.5758 199.665 51.4505 201.6 52.4204 203.48L104.382 173.48C103.412 171.6 102.537 169.665 101.758 167.825L49.7964 197.825Z" fill="#8BC5E4"/>
<path d="M52.4204 203.48C54.1871 206.91 56.2136 210.57 59.4179 212.42L111.379 182.42C108.175 180.57 106.149 176.91 104.382 173.48L52.4204 203.48Z" fill="#8BC5E4"/>
<path d="M59.418 212.42C61.833 213.814 63.767 213.467 65.376 212.546L117.337 182.546C115.728 183.467 113.794 183.814 111.379 182.42L59.418 212.42Z" fill="#8BC5E4"/>
<path d="M65.3711 212.548C65.6431 212.393 65.9051 212.221 66.1591 212.039L118.121 182.039C117.867 182.221 117.605 182.393 117.333 182.548L65.3711 212.548Z" fill="#8BC5E4"/>
<path d="M66.1641 212.035C66.2288 211.988 66.2928 211.94 66.3568 211.891L118.318 181.891C118.254 181.94 118.19 181.988 118.126 182.035L66.1641 212.035Z" fill="#8BC5E4"/>
<path d="M66.356 211.891C67.312 211.156 68.2 210.213 69.034 209.142L120.995 179.142C120.161 180.213 119.273 181.156 118.317 181.891L66.356 211.891Z" fill="#8BC5E4"/>
<path d="M69.0396 209.135C69.7065 210.82 70.3993 212.42 71.1701 213.925L123.132 183.925C122.361 182.42 121.668 180.82 121.001 179.135L69.0396 209.135Z" fill="#8BC5E4"/>
<path d="M71.1699 213.925C72.7027 216.89 74.7292 219.57 77.258 221.03L129.22 191.03C126.691 189.57 124.664 186.89 123.131 183.925L71.1699 213.925Z" fill="#8BC5E4"/>
<path d="M77.2578 221.03C79.3727 222.251 81.0997 222.042 82.4947 221.233L134.456 191.233C133.061 192.042 131.334 192.251 129.219 191.03L77.2578 221.03Z" fill="#8BC5E4"/>
<path d="M82.4912 221.235C82.8382 221.034 83.1652 220.796 83.4722 220.534L135.434 190.534C135.127 190.796 134.8 191.034 134.453 191.235L82.4912 221.235Z" fill="#8BC5E4"/>
<path d="M83.4761 220.53C84.1776 219.925 84.8098 219.18 85.4073 218.415L137.369 188.415C136.771 189.18 136.139 189.925 135.438 190.53L83.4761 220.53Z" fill="#8BC5E4"/>
<path d="M85.4072 218.415C86.0914 220.16 86.8362 222 87.7282 223.845L139.69 193.845C138.798 192 138.053 190.16 137.369 188.415L85.4072 218.415Z" fill="#8BC5E4"/>
<path d="M87.7285 223.845C89.3739 227.265 91.8248 231.13 95.0983 233.02L147.06 203.02C143.786 201.13 141.335 197.265 139.69 193.845L87.7285 223.845Z" fill="#8BC5E4"/>
<path d="M95.0981 233.02C97.6359 234.485 99.7299 234.245 101.309 233.336L153.27 203.336C151.691 204.245 149.597 204.485 147.06 203.02L95.0981 233.02Z" fill="#8BC5E4"/>
<path d="M101.304 233.339C101.697 233.113 102.057 232.846 102.385 232.554L154.346 202.554C154.018 202.846 153.658 203.113 153.265 203.339L101.304 233.339Z" fill="#8BC5E4"/>
<path d="M102.39 232.55C103.291 231.74 104.053 230.76 104.763 229.75L156.725 199.75C156.014 200.76 155.252 201.74 154.352 202.55L102.39 232.55Z" fill="#8BC5E4"/>
<path d="M104.763 229.75C105.343 231.235 105.958 232.71 106.66 234.125L158.621 204.125C157.92 202.71 157.305 201.235 156.725 199.75L104.763 229.75Z" fill="#8BC5E4"/>
<path d="M106.66 234.125C108.149 237.155 110.228 240.065 112.938 241.63L164.9 211.63C162.189 210.065 160.111 207.155 158.621 204.125L106.66 234.125Z" fill="#8BC5E4"/>
<path d="M112.938 241.63C115.166 242.916 116.954 242.775 118.346 241.962L170.308 211.962C168.916 212.775 167.128 212.916 164.9 211.63L112.938 241.63Z" fill="#8BC5E4"/>
<path d="M118.342 241.964C118.655 241.782 118.948 241.566 119.221 241.324L171.182 211.324C170.909 211.566 170.616 211.782 170.303 211.964L118.342 241.964Z" fill="#8BC5E4"/>
<path d="M119.226 241.32C119.927 240.705 120.533 239.935 121.122 239.125L173.084 209.125C172.495 209.935 171.889 210.705 171.187 211.32L119.226 241.32Z" fill="#8BC5E4"/>
<path d="M121.122 239.125C121.824 240.94 122.577 242.795 123.478 244.655L175.439 214.655C174.539 212.795 173.785 210.94 173.084 209.125L121.122 239.125Z" fill="#8BC5E4"/>
<path d="M123.478 244.655C125.123 248.035 127.583 251.775 130.778 253.62L182.74 223.62C179.544 221.775 177.085 218.035 175.439 214.655L123.478 244.655Z" fill="#8BC5E4"/>
<path d="M130.778 253.62C133.368 255.115 135.506 254.864 137.122 253.931L189.083 223.931C187.467 224.864 185.329 225.115 182.74 223.62L130.778 253.62Z" fill="#8BC5E4"/>
<path d="M137.117 253.934C137.49 253.719 137.835 253.468 138.152 253.194L190.114 223.194C189.797 223.468 189.452 223.719 189.079 223.934L137.117 253.934Z" fill="#8BC5E4"/>
<path d="M138.157 253.19C139.032 252.415 139.785 251.47 140.47 250.485L192.431 220.485C191.747 221.47 190.993 222.415 190.119 223.19L138.157 253.19Z" fill="#8BC5E4"/>
<path d="M140.469 250.485C140.928 251.72 141.422 252.985 142.002 254.24L193.964 224.24C193.383 222.985 192.89 221.72 192.431 220.485L140.469 250.485Z" fill="#8BC5E4"/>
<path d="M142.002 254.24C143.431 257.325 145.587 260.48 148.627 262.235L200.589 232.235C197.549 230.48 195.392 227.325 193.963 224.24L142.002 254.24Z" fill="#8BC5E4"/>
<path d="M148.627 262.235C151.215 263.729 153.404 263.48 155.073 262.511L207.034 232.511C205.365 233.48 203.176 233.729 200.588 232.235L148.627 262.235Z" fill="#8BC5E4"/>
<path d="M155.068 262.514C155.443 262.297 155.792 262.043 156.113 261.764L208.074 231.764C207.753 232.043 207.404 232.297 207.029 232.514L155.068 262.514Z" fill="#8BC5E4"/>
<path d="M156.118 261.76C157.876 260.235 158.967 258.195 158.967 255.865L210.929 225.865C210.929 228.195 209.838 230.235 208.08 231.76L156.118 261.76Z" fill="#8BC5E4"/>
<path d="M160.388 256.685C160.388 249.655 155.512 240.15 148.627 236.175L200.588 206.175C207.473 210.15 212.349 219.655 212.349 226.685L160.388 256.685Z" fill="#8BC5E4"/>
<path d="M148.627 236.175C145.758 234.519 143.374 234.596 141.723 235.552L193.684 205.552C195.335 204.596 197.719 204.519 200.588 206.175L148.627 236.175Z" fill="#8BC5E4"/>
<path d="M141.716 235.556C141.374 235.755 141.063 235.993 140.786 236.26L192.748 206.26C193.025 205.993 193.336 205.755 193.678 205.556L141.716 235.556Z" fill="#8BC5E4"/>
<path d="M140.781 236.265C139.906 237.11 139.239 238.145 138.65 239.175L190.612 209.175C191.201 208.145 191.868 207.11 192.742 206.265L140.781 236.265Z" fill="#8BC5E4"/>
<path d="M138.651 239.175C138.148 237.945 137.611 236.685 137.031 235.47L188.993 205.47C189.573 206.685 190.11 207.945 190.612 209.175L138.651 239.175Z" fill="#8BC5E4"/>
<path d="M137.031 235.47C135.516 232.305 133.48 229.12 130.778 227.56L182.74 197.56C185.442 199.12 187.477 202.305 188.993 205.47L137.031 235.47Z" fill="#8BC5E4"/>
<path d="M130.778 227.56C128.719 226.371 127.035 226.529 125.676 227.304L177.637 197.304C178.996 196.529 180.68 196.371 182.74 197.56L130.778 227.56Z" fill="#8BC5E4"/>
<path d="M125.66 227.314C125.278 227.533 124.922 227.801 124.591 228.101L176.552 198.101C176.883 197.801 177.239 197.533 177.621 197.314L125.66 227.314Z" fill="#8BC5E4"/>
<path d="M124.586 228.105C123.937 228.7 123.348 229.42 122.776 230.18L174.738 200.18C175.309 199.42 175.898 198.7 176.548 198.105L124.586 228.105Z" fill="#8BC5E4"/>
<path d="M122.776 230.18C122.057 228.305 121.287 226.36 120.334 224.42L172.296 194.42C173.248 196.36 174.019 198.305 174.738 200.18L122.776 230.18Z" fill="#8BC5E4"/>
<path d="M120.334 224.42C118.697 221.085 116.151 217.425 112.938 215.57L164.9 185.57C168.113 187.425 170.659 191.085 172.296 194.42L120.334 224.42Z" fill="#8BC5E4"/>
<path d="M112.938 215.57C110.294 214.043 108.081 214.24 106.465 215.167L158.426 185.167C160.042 184.24 162.255 184.043 164.9 185.57L112.938 215.57Z" fill="#8BC5E4"/>
<path d="M106.469 215.165C106.143 215.352 105.841 215.568 105.565 215.806L157.526 185.806C157.802 185.568 158.104 185.352 158.43 185.165L106.469 215.165Z" fill="#8BC5E4"/>
<path d="M105.56 215.81C104.599 216.645 103.828 217.69 103.101 218.75L155.062 188.75C155.79 187.69 156.56 186.645 157.522 185.81L105.56 215.81Z" fill="#8BC5E4"/>
<path d="M103.1 218.75C102.537 217.335 101.94 215.93 101.282 214.58L153.243 184.58C153.901 185.93 154.499 187.335 155.062 188.75L103.1 218.75Z" fill="#8BC5E4"/>
<path d="M101.282 214.58C99.766 211.475 97.7395 208.485 95.0981 206.96L147.06 176.96C149.701 178.485 151.728 181.475 153.243 184.58L101.282 214.58Z" fill="#8BC5E4"/>
<path d="M95.0983 206.96C93.0571 205.782 91.3891 205.961 90.0381 206.731L142 176.731C143.351 175.961 145.019 175.782 147.06 176.96L95.0983 206.96Z" fill="#8BC5E4"/>
<path d="M90.0408 206.729C89.6098 206.974 89.2098 207.28 88.8408 207.621L140.802 177.621C141.171 177.28 141.571 176.974 142.002 176.729L90.0408 206.729Z" fill="#8BC5E4"/>
<path d="M88.8371 207.625C88.1962 208.215 87.6247 208.915 87.0791 209.64L139.041 179.64C139.586 178.915 140.158 178.215 140.799 177.625L88.8371 207.625Z" fill="#8BC5E4"/>
<path d="M87.0789 209.64C86.3427 207.795 85.5373 205.85 84.5674 203.9L136.529 173.9C137.499 175.85 138.304 177.795 139.04 179.64L87.0789 209.64Z" fill="#8BC5E4"/>
<path d="M84.5671 203.9C82.9043 200.55 80.4621 196.82 77.2578 194.97L129.219 164.97C132.424 166.82 134.866 170.55 136.529 173.9L84.5671 203.9Z" fill="#8BC5E4"/>
<path d="M77.2582 194.97C74.6361 193.456 72.3851 193.621 70.7251 194.589L122.687 164.589C124.347 163.621 126.598 163.456 129.22 164.97L77.2582 194.97Z" fill="#8BC5E4"/>
<path d="M70.7301 194.586C70.5101 194.714 70.3001 194.857 70.1011 195.011L122.063 165.011C122.262 164.857 122.472 164.714 122.692 164.586L70.7301 194.586Z" fill="#8BC5E4"/>
<path d="M70.0964 195.015C70.0313 195.066 69.9673 195.119 69.9033 195.172L121.865 165.172C121.929 165.119 121.993 165.066 122.058 165.015L70.0964 195.015Z" fill="#8BC5E4"/>
<path d="M69.904 195.172C68.951 195.969 68.143 196.997 67.373 198.133L119.335 168.133C120.105 166.997 120.913 165.969 121.866 165.172L69.904 195.172Z" fill="#8BC5E4"/>
<path d="M67.3682 198.14C66.6494 196.455 65.896 194.85 65.1079 193.365L117.069 163.365C117.858 164.85 118.611 166.455 119.33 168.14L67.3682 198.14Z" fill="#8BC5E4"/>
<path d="M65.1078 193.365C63.4883 190.32 61.6264 187.635 59.418 186.36L111.379 156.36C113.588 157.635 115.45 160.32 117.069 163.365L65.1078 193.365Z" fill="#8BC5E4"/>
<path d="M59.4177 186.36C57.6087 185.316 56.1057 185.607 54.7627 186.38L106.724 156.38C108.067 155.607 109.57 155.316 111.379 156.36L59.4177 186.36Z" fill="#8BC5E4"/>
<path d="M54.767 186.377C54.329 186.629 53.908 186.932 53.499 187.256L105.461 157.256C105.87 156.932 106.291 156.629 106.729 156.377L54.767 186.377Z" fill="#8BC5E4"/>
<path d="M53.4947 187.26C53.4503 187.295 53.4063 187.33 53.3623 187.366L105.324 157.366C105.368 157.33 105.412 157.295 105.456 157.26L53.4947 187.26Z" fill="#8BC5E4"/>
<path d="M53.362 187.366C52.703 187.902 52.081 188.526 51.498 189.181L103.46 159.181C104.043 158.526 104.665 157.902 105.324 157.366L53.362 187.366Z" fill="#8BC5E4"/>
<path d="M51.4942 189.185C50.784 187.375 49.97 185.415 49 183.465L100.961 153.465C101.931 155.415 102.746 157.375 103.456 159.185L51.4942 189.185Z" fill="#8BC5E4"/>
<path d="M48.9998 183.465C47.3111 180.06 44.8429 176.255 41.5693 174.365L93.5308 144.365C96.8044 146.255 99.2726 150.06 100.961 153.465L48.9998 183.465Z" fill="#8BC5E4"/>
<path d="M23.729 169.115C25.3831 170.07 26.7341 171.96 28.0331 174.59L79.9947 144.59C78.6956 141.96 77.3446 140.07 75.6905 139.115L23.729 169.115Z" fill="#8BC5E4"/>
<path d="M28.0332 174.59C28.8213 176.195 29.5401 178.01 30.1896 179.815L82.1512 149.815C81.5017 148.01 80.7828 146.195 79.9948 144.59L28.0332 174.59Z" fill="#8BC5E4"/>
<path d="M30.1896 179.815C30.1637 179.87 30.129 179.93 30.103 179.985L82.0646 149.985C82.0905 149.93 82.1252 149.87 82.1512 149.815L30.1896 179.815Z" fill="#8BC5E4"/>
<path d="M30.1032 179.985C29.1593 181.71 28.0854 183.55 26.9336 184.555L78.8951 154.555C80.0469 153.55 81.1208 151.71 82.0648 149.985L30.1032 179.985Z" fill="#8BC5E4"/>
<path d="M26.9334 184.555C26.668 184.789 26.414 184.977 26.166 185.121L78.1275 155.121C78.3755 154.977 78.6295 154.789 78.8949 154.555L26.9334 184.555Z" fill="#8BC5E4"/>
<path d="M26.1673 185.12C25.3413 185.598 24.5863 185.578 23.7363 185.089L75.6978 155.089C76.5478 155.578 77.3028 155.598 78.1288 155.12L26.1673 185.12Z" fill="#8BC5E4"/>
<path d="M23.7293 185.085C22.7507 184.52 21.0446 182.485 19.7109 179.985L71.6725 149.985C73.0061 152.485 74.7122 154.52 75.6908 155.085L23.7293 185.085Z" fill="#8BC5E4"/>
<path d="M19.7105 179.985C18.3855 177.5 17.6494 174.675 17.6494 174.275L69.6109 144.275C69.6109 144.675 70.347 147.5 71.6721 149.985L19.7105 179.985Z" fill="#8BC5E4"/>
<path d="M16.2466 173.465C16.378 172.331 17.19 170.705 18.441 169.69L70.4025 139.69C69.1515 140.705 68.3395 142.331 68.2082 143.465L16.2466 173.465Z" fill="#8BC5E4"/>
<path d="M18.4341 169.696C18.5061 169.637 18.5801 169.58 18.6551 169.526L70.6166 139.526C70.5416 139.58 70.4676 139.637 70.3956 139.696L18.4341 169.696Z" fill="#8BC5E4"/>
<path d="M18.6631 169.52C18.8103 169.414 18.9623 169.315 19.1173 169.225L71.0788 139.225C70.9238 139.315 70.7718 139.414 70.6247 139.52L18.6631 169.52Z" fill="#8BC5E4"/>
<path d="M19.1162 169.226C20.5482 168.396 22.2872 168.285 23.7242 169.112L75.6857 139.112C74.2487 138.285 72.5097 138.396 71.0777 139.226L19.1162 169.226Z" fill="#8BC5E4"/>
<path d="M59.418 189.72C60.388 190.28 61.6437 191.855 63.012 194.425L114.973 164.425C113.605 161.855 112.349 160.28 111.379 159.72L59.418 189.72Z" fill="#8BC5E4"/>
<path d="M63.0117 194.425C63.9297 196.155 64.8737 198.27 65.7917 200.56L117.753 170.56C116.835 168.27 115.891 166.155 114.973 164.425L63.0117 194.425Z" fill="#8BC5E4"/>
<path d="M65.7921 200.56C64.6181 202.381 63.3861 203.938 62.2441 204.856L114.206 174.856C115.348 173.938 116.58 172.381 117.754 170.56L65.7921 200.56Z" fill="#8BC5E4"/>
<path d="M62.2359 204.862C62.1449 204.935 62.0529 205.005 61.9629 205.07L113.924 175.07C114.014 175.005 114.106 174.935 114.197 174.862L62.2359 204.862Z" fill="#8BC5E4"/>
<path d="M61.9556 205.075C61.7971 205.191 61.6431 205.291 61.4941 205.376L113.456 175.376C113.605 175.291 113.759 175.191 113.917 175.075L61.9556 205.075Z" fill="#8BC5E4"/>
<path d="M61.4978 205.374C60.5008 205.947 59.7408 205.87 59.4258 205.695L111.387 175.695C111.702 175.87 112.462 175.947 113.459 175.374L61.4978 205.374Z" fill="#8BC5E4"/>
<path d="M59.4177 205.69C59.435 205.7 58.0754 204.185 56.707 201.545L108.669 171.545C110.037 174.185 111.397 175.7 111.379 175.69L59.4177 205.69Z" fill="#8BC5E4"/>
<path d="M56.7073 201.545C55.417 199.03 54.1093 195.895 53.0874 193.305L105.049 163.305C106.071 165.895 107.379 169.03 108.669 171.545L56.7073 201.545Z" fill="#8BC5E4"/>
<path d="M53.0874 193.305C53.826 192.41 54.634 191.519 55.474 190.834L107.436 160.834C106.596 161.519 105.788 162.41 105.049 163.305L53.0874 193.305Z" fill="#8BC5E4"/>
<path d="M55.4688 190.838C55.5248 190.792 55.5807 190.748 55.6367 190.704L107.598 160.704C107.542 160.748 107.486 160.792 107.43 160.838L55.4688 190.838Z" fill="#8BC5E4"/>
<path d="M55.6421 190.7C55.898 190.498 56.156 190.322 56.412 190.173L108.373 160.173C108.117 160.322 107.859 160.498 107.604 160.7L55.6421 190.7Z" fill="#8BC5E4"/>
<path d="M56.4277 190.164C57.6197 189.473 58.7657 189.347 59.4127 189.717L111.374 159.717C110.727 159.347 109.581 159.473 108.389 160.164L56.4277 190.164Z" fill="#8BC5E4"/>
<path d="M95.0981 210.32C96.683 211.235 97.8261 212.865 99.0732 215.415L151.035 185.415C149.788 182.865 148.645 181.235 147.06 180.32L95.0981 210.32Z" fill="#8BC5E4"/>
<path d="M99.0732 215.415C99.8873 217.075 100.667 219.055 101.472 221.16L153.434 191.16C152.628 189.055 151.849 187.075 151.035 185.415L99.0732 215.415Z" fill="#8BC5E4"/>
<path d="M101.472 221.16C100.173 222.99 99.0473 224.81 97.9648 225.775L149.926 195.775C151.009 194.81 152.135 192.99 153.434 191.16L101.472 221.16Z" fill="#8BC5E4"/>
<path d="M97.9651 225.775C97.6703 226.041 97.4053 226.245 97.1533 226.389L149.115 196.389C149.367 196.245 149.632 196.041 149.927 195.775L97.9651 225.775Z" fill="#8BC5E4"/>
<path d="M97.155 226.389C96.461 226.789 95.878 226.739 95.104 226.294L147.066 196.294C147.84 196.739 148.423 196.789 149.117 196.389L97.155 226.389Z" fill="#8BC5E4"/>
<path d="M95.0983 226.29C94.1457 225.74 93.3403 224.645 92.1885 222.25L144.15 192.25C145.302 194.645 146.107 195.74 147.06 196.29L95.0983 226.29Z" fill="#8BC5E4"/>
<path d="M92.1881 222.25C91.0796 219.95 89.9797 216.895 88.75 213.855L140.711 183.855C141.941 186.895 143.041 189.95 144.15 192.25L92.1881 222.25Z" fill="#8BC5E4"/>
<path d="M88.75 213.855C89.5121 212.785 90.2655 211.73 91.0709 210.995L143.033 180.995C142.227 181.73 141.474 182.785 140.711 183.855L88.75 213.855Z" fill="#8BC5E4"/>
<path d="M91.0713 210.995C91.4041 210.685 91.7341 210.43 92.0671 210.239L144.029 180.239C143.696 180.43 143.366 180.685 143.033 180.995L91.0713 210.995Z" fill="#8BC5E4"/>
<path d="M92.0659 210.24C93.0029 209.701 93.9639 209.667 95.0939 210.317L147.055 180.317C145.925 179.667 144.964 179.701 144.027 180.24L92.0659 210.24Z" fill="#8BC5E4"/>
<path d="M130.778 230.92C132.311 231.805 133.524 233.595 134.797 236.26L186.758 206.26C185.485 203.595 184.273 201.805 182.74 200.92L130.778 230.92Z" fill="#8BC5E4"/>
<path d="M134.797 236.26C135.594 237.93 136.356 239.86 137.127 241.815L189.088 211.815C188.317 209.86 187.555 207.93 186.758 206.26L134.797 236.26Z" fill="#8BC5E4"/>
<path d="M137.126 241.815C137.105 241.848 137.084 241.882 137.063 241.915L189.025 211.915C189.046 211.882 189.067 211.848 189.088 211.815L137.126 241.815Z" fill="#8BC5E4"/>
<path d="M137.064 241.915C135.934 243.705 134.838 245.442 133.758 246.38L185.719 216.38C186.799 215.442 187.896 213.705 189.025 211.915L137.064 241.915Z" fill="#8BC5E4"/>
<path d="M133.757 246.38C133.483 246.619 133.228 246.807 132.984 246.947L184.945 216.947C185.189 216.807 185.444 216.619 185.719 216.38L133.757 246.38Z" fill="#8BC5E4"/>
<path d="M132.986 246.946C132.225 247.384 131.576 247.349 130.785 246.894L182.747 216.894C183.538 217.349 184.187 217.384 184.948 216.946L132.986 246.946Z" fill="#8BC5E4"/>
<path d="M130.779 246.89C129.757 246.3 129.047 245.34 127.921 243.02L179.882 213.02C181.008 215.34 181.718 216.3 182.74 216.89L130.779 246.89Z" fill="#8BC5E4"/>
<path d="M127.921 243.02C126.847 240.8 125.721 237.7 124.431 234.445L176.392 204.445C177.683 207.7 178.808 210.8 179.882 213.02L127.921 243.02Z" fill="#8BC5E4"/>
<path d="M124.431 234.445C125.227 233.295 126.007 232.215 126.812 231.48L178.774 201.48C177.968 202.215 177.189 203.295 176.392 204.445L124.431 234.445Z" fill="#8BC5E4"/>
<path d="M126.812 231.48C127.116 231.205 127.414 230.977 127.712 230.803L179.673 200.803C179.375 200.977 179.077 201.205 178.774 201.48L126.812 231.48Z" fill="#8BC5E4"/>
<path d="M127.712 230.804C128.645 230.258 129.588 230.234 130.774 230.917L182.735 200.917C181.549 200.234 180.606 200.258 179.673 200.804L127.712 230.804Z" fill="#8BC5E4"/>
<path d="M41.5693 181.095C42.5219 181.645 43.4486 182.86 44.6177 185.215L96.5793 155.215C95.4101 152.86 94.4835 151.645 93.5308 151.095L41.5693 181.095Z" fill="#8BC5E4"/>
<path d="M44.6177 185.215C45.7955 187.585 46.93 190.68 48.0559 193.55L100.017 163.55C98.8915 160.68 97.757 157.585 96.5793 155.215L44.6177 185.215Z" fill="#8BC5E4"/>
<path d="M48.0557 193.55C48.073 193.59 48.0816 193.625 48.099 193.665L100.06 163.665C100.043 163.625 100.034 163.59 100.017 163.55L48.0557 193.55Z" fill="#8BC5E4"/>
<path d="M48.0994 193.665C47.3546 194.725 46.5665 195.76 45.7178 196.49L97.6793 166.49C98.528 165.76 99.3161 164.725 100.061 163.665L48.0994 193.665Z" fill="#8BC5E4"/>
<path d="M45.7176 196.49C45.4371 196.73 45.1561 196.934 44.8721 197.097L96.8336 167.097C97.1176 166.934 97.3986 166.73 97.6791 166.49L45.7176 196.49Z" fill="#8BC5E4"/>
<path d="M44.8732 197.097C43.8392 197.696 42.7762 197.76 41.5742 197.068L93.5357 167.068C94.7377 167.76 95.8007 167.696 96.8347 167.097L44.8732 197.097Z" fill="#8BC5E4"/>
<path d="M41.5691 197.065C40.0103 196.165 38.6333 194.31 37.3169 191.74L89.2785 161.74C90.5948 164.31 91.9718 166.165 93.5306 167.065L41.5691 197.065Z" fill="#8BC5E4"/>
<path d="M37.3169 191.74C36.4596 190.075 35.6801 188.175 34.9873 186.275L86.9489 156.275C87.6417 158.175 88.4211 160.075 89.2785 161.74L37.3169 191.74Z" fill="#8BC5E4"/>
<path d="M34.9873 186.275C35.0566 186.145 35.1346 186.01 35.2038 185.88L87.1654 155.88C87.0961 156.01 87.0181 156.145 86.9489 156.275L34.9873 186.275Z" fill="#8BC5E4"/>
<path d="M35.2041 185.88C36.1135 184.205 37.222 182.475 38.3911 181.55L90.3526 151.55C89.1835 152.475 88.075 154.205 87.1657 155.88L35.2041 185.88Z" fill="#8BC5E4"/>
<path d="M38.3906 181.55C38.6057 181.378 38.8137 181.235 39.0187 181.118L90.9802 151.118C90.7752 151.235 90.5672 151.378 90.3521 151.55L38.3906 181.55Z" fill="#8BC5E4"/>
<path d="M39.0171 181.119C39.9241 180.601 40.7381 180.617 41.5631 181.092L93.5246 151.092C92.6996 150.617 91.8856 150.601 90.9786 151.119L39.0171 181.119Z" fill="#8BC5E4"/>
<path d="M77.2578 201.7C78.2191 202.255 79.0332 203.335 80.185 205.65L132.147 175.65C130.995 173.335 130.181 172.255 129.219 171.7L77.2578 201.7Z" fill="#8BC5E4"/>
<path d="M80.1855 205.65C81.3286 207.96 82.4891 211.09 83.7622 214.205L135.724 184.205C134.451 181.09 133.29 177.96 132.147 175.65L80.1855 205.65Z" fill="#8BC5E4"/>
<path d="M83.7619 214.205C82.9478 215.315 82.1337 216.385 81.2764 217.12L133.238 187.12C134.095 186.385 134.909 185.315 135.723 184.205L83.7619 214.205Z" fill="#8BC5E4"/>
<path d="M81.2762 217.12C80.9927 217.366 80.7117 217.573 80.4287 217.737L132.39 187.737C132.673 187.573 132.954 187.366 133.238 187.12L81.2762 217.12Z" fill="#8BC5E4"/>
<path d="M80.4297 217.736C79.4437 218.307 78.4387 218.35 77.2627 217.673L129.224 187.673C130.4 188.35 131.405 188.307 132.391 187.736L80.4297 217.736Z" fill="#8BC5E4"/>
<path d="M77.2581 217.67C75.6213 216.725 74.5301 215.305 73.3091 212.95L125.271 182.95C126.492 185.305 127.583 186.725 129.22 187.67L77.2581 217.67Z" fill="#8BC5E4"/>
<path d="M73.3089 212.95C72.4515 211.285 71.6028 209.175 70.7021 206.785L122.664 176.785C123.564 179.175 124.413 181.285 125.27 182.95L73.3089 212.95Z" fill="#8BC5E4"/>
<path d="M70.7021 206.785C70.7454 206.72 70.7801 206.66 70.8234 206.605L122.785 176.605C122.742 176.66 122.707 176.72 122.664 176.785L70.7021 206.785Z" fill="#8BC5E4"/>
<path d="M70.8232 206.605C72.1655 204.49 73.3346 202.735 74.3825 201.91L126.344 171.91C125.296 172.735 124.127 174.49 122.785 176.605L70.8232 206.605Z" fill="#8BC5E4"/>
<path d="M74.3828 201.91C74.5889 201.748 74.7789 201.615 74.9589 201.51L126.92 171.51C126.74 171.615 126.55 171.748 126.344 171.91L74.3828 201.91Z" fill="#8BC5E4"/>
<path d="M74.958 201.511C75.7 201.081 76.286 201.14 77.251 201.696L129.213 171.696C128.248 171.14 127.662 171.081 126.92 171.511L74.958 201.511Z" fill="#8BC5E4"/>
<path d="M112.938 222.3C114.229 223.045 114.852 223.935 115.918 226.1L167.879 196.1C166.814 193.935 166.19 193.045 164.9 192.3L112.938 222.3Z" fill="#8BC5E4"/>
<path d="M115.917 226.1C116.974 228.26 118.074 231.385 119.442 234.805L171.404 204.805C170.035 201.385 168.936 198.26 167.879 196.1L115.917 226.1Z" fill="#8BC5E4"/>
<path d="M119.442 234.805C119.451 234.82 119.46 234.845 119.46 234.855L171.421 204.855C171.421 204.845 171.413 204.82 171.404 204.805L119.442 234.805Z" fill="#8BC5E4"/>
<path d="M119.46 234.855C118.628 236.065 117.849 237.195 117.018 237.925L168.979 207.925C169.811 207.195 170.59 206.065 171.421 204.855L119.46 234.855Z" fill="#8BC5E4"/>
<path d="M117.017 237.925C116.74 238.17 116.468 238.375 116.191 238.533L168.152 208.533C168.429 208.375 168.701 208.17 168.979 207.925L117.017 237.925Z" fill="#8BC5E4"/>
<path d="M116.192 238.532C115.269 239.057 114.301 239.055 112.944 238.273L164.906 208.273C166.263 209.055 167.231 209.057 168.154 208.532L116.192 238.532Z" fill="#8BC5E4"/>
<path d="M112.938 238.27C111.163 237.245 110.054 235.695 108.859 233.265L160.821 203.265C162.016 205.695 163.124 207.245 164.9 208.27L112.938 238.27Z" fill="#8BC5E4"/>
<path d="M108.859 233.265C108.028 231.595 107.248 229.555 106.408 227.34L158.37 197.34C159.21 199.555 159.989 201.595 160.821 203.265L108.859 233.265Z" fill="#8BC5E4"/>
<path d="M106.408 227.34C106.426 227.32 106.443 227.29 106.46 227.27L158.422 197.27C158.404 197.29 158.387 197.32 158.37 197.34L106.408 227.34Z" fill="#8BC5E4"/>
<path d="M106.46 227.27C107.811 225.38 108.903 223.52 109.959 222.61L161.921 192.61C160.864 193.52 159.773 195.38 158.422 197.27L106.46 227.27Z" fill="#8BC5E4"/>
<path d="M109.959 222.61C110.229 222.374 110.471 222.189 110.703 222.056L162.664 192.056C162.432 192.189 162.19 192.374 161.921 192.61L109.959 222.61Z" fill="#8BC5E4"/>
<path d="M110.701 222.057C111.368 221.677 111.958 221.736 112.931 222.296L164.893 192.296C163.92 191.736 163.33 191.677 162.663 192.057L110.701 222.057Z" fill="#8BC5E4"/>
<path d="M148.627 242.905C152.429 245.1 154.706 250.025 154.706 253.405L206.668 223.405C206.668 220.025 204.39 215.1 200.588 212.905L148.627 242.905Z" fill="#8BC5E4"/>
<path d="M156.127 254.225C156.127 254.915 155.339 257.13 153.928 258.355L205.889 228.355C207.301 227.13 208.089 224.915 208.089 224.225L156.127 254.225Z" fill="#8BC5E4"/>
<path d="M153.927 258.355C153.664 258.583 153.384 258.784 153.091 258.953L205.052 228.953C205.345 228.784 205.625 228.583 205.889 228.355L153.927 258.355Z" fill="#8BC5E4"/>
<path d="M153.082 258.958C151.797 259.693 150.25 259.809 148.633 258.878L200.594 228.878C202.211 229.809 203.758 229.693 205.043 228.958L153.082 258.958Z" fill="#8BC5E4"/>
<path d="M148.627 258.875C146.497 257.645 145.414 255.99 144.28 253.535L196.241 223.535C197.376 225.99 198.458 227.645 200.589 228.875L148.627 258.875Z" fill="#8BC5E4"/>
<path d="M144.28 253.535C143.527 251.9 142.851 249.98 142.098 247.945L194.059 217.945C194.813 219.98 195.488 221.9 196.242 223.535L144.28 253.535Z" fill="#8BC5E4"/>
<path d="M142.098 247.945C142.132 247.895 142.158 247.84 142.193 247.8L194.154 217.8C194.12 217.84 194.094 217.895 194.059 217.945L142.098 247.945Z" fill="#8BC5E4"/>
<path d="M142.192 247.8C143.457 245.81 144.357 243.86 145.284 242.955L197.246 212.955C196.319 213.86 195.418 215.81 194.154 217.8L142.192 247.8Z" fill="#8BC5E4"/>
<path d="M145.284 242.955C145.531 242.717 145.749 242.526 145.973 242.393L197.934 212.393C197.71 212.526 197.492 212.717 197.246 212.955L145.284 242.955Z" fill="#8BC5E4"/>
<path d="M145.972 242.393C146.59 242.026 147.245 242.107 148.622 242.902L200.583 212.902C199.206 212.107 198.551 212.026 197.933 212.393L145.972 242.393Z" fill="#8BC5E4"/>
<path d="M158.595 179.29C164.276 182.57 168.78 190.51 168.78 197.24L220.741 167.24C220.741 160.51 216.238 152.57 210.557 149.29L158.595 179.29Z" fill="#8BC5E4"/>
<path d="M168.78 294.59C168.78 297.989 167.627 300.37 165.753 301.469L217.714 271.469C219.588 270.37 220.741 267.989 220.741 264.59L168.78 294.59Z" fill="#8BC5E4"/>
<path d="M165.756 301.467C163.927 302.541 161.409 302.392 158.604 300.775L210.566 270.775C213.371 272.392 215.889 272.541 217.718 271.467L165.756 301.467Z" fill="#8BC5E4"/>
<path d="M14.6097 217.64C8.92859 214.36 4.42529 206.42 4.42529 199.7L56.3868 169.7C56.3868 176.42 60.8901 184.36 66.5713 187.64L14.6097 217.64Z" fill="#8BC5E4"/>
<path d="M4.42529 102.35C4.42489 98.952 5.57289 96.571 7.44089 95.469L59.4024 65.469C57.5344 66.571 56.3864 68.952 56.3868 72.35L4.42529 102.35Z" fill="#8BC5E4"/>
<path d="M7.44922 95.464C9.27822 94.389 11.7962 94.538 14.6022 96.155L66.5637 66.155C63.7577 64.538 61.2397 64.389 59.4107 65.464L7.44922 95.464Z" fill="#8BC5E4"/>
<path d="M34.0869 174.665C34.3561 174.453 34.6431 174.256 34.9461 174.081L86.9076 144.081C86.6046 144.256 86.3176 144.453 86.0484 144.665L34.0869 174.665Z" fill="#8BC5E4"/>
<path d="M34.9463 174.081C36.6363 173.106 38.8583 172.801 41.5653 174.362L93.5268 144.362C90.8198 142.801 88.5978 143.106 86.9078 144.081L34.9463 174.081Z" fill="#8BC5E4"/>
<path d="M41.5693 174.365C44.8429 176.255 47.3111 180.06 48.9998 183.465L100.961 153.465C99.2726 150.06 96.8044 146.255 93.5308 144.365L41.5693 174.365Z" fill="#8BC5E4"/>
<path d="M49 183.465C49.97 185.415 50.784 187.375 51.4942 189.185L103.456 159.185C102.746 157.375 101.931 155.415 100.961 153.465L49 183.465Z" fill="#8BC5E4"/>
<path d="M51.4941 189.185C52.0782 188.529 52.7012 187.903 53.3622 187.366L105.324 157.366C104.663 157.903 104.04 158.529 103.456 159.185L51.4941 189.185Z" fill="#8BC5E4"/>
<path d="M53.3579 187.369C53.4019 187.333 53.4459 187.298 53.4899 187.263L105.451 157.263C105.407 157.298 105.363 157.333 105.319 157.369L53.3579 187.369Z" fill="#8BC5E4"/>
<path d="M53.4941 187.26C53.9037 186.935 54.3247 186.632 54.7627 186.38L106.724 156.38C106.286 156.632 105.865 156.935 105.456 157.26L53.4941 187.26Z" fill="#8BC5E4"/>
<path d="M54.7617 186.38C56.1027 185.608 57.6047 185.316 59.4107 186.356L111.372 156.356C109.566 155.316 108.064 155.608 106.723 156.38L54.7617 186.38Z" fill="#8BC5E4"/>
<path d="M59.418 186.36C61.6264 187.635 63.4883 190.32 65.1078 193.365L117.069 163.365C115.45 160.32 113.588 157.635 111.379 156.36L59.418 186.36Z" fill="#8BC5E4"/>
<path d="M65.1079 193.365C65.896 194.85 66.6494 196.455 67.3682 198.14L119.33 168.14C118.611 166.455 117.858 164.85 117.069 163.365L65.1079 193.365Z" fill="#8BC5E4"/>
<path d="M67.3682 198.14C68.1391 197.001 68.9491 195.972 69.9031 195.172L121.865 165.172C120.911 165.972 120.101 167.001 119.33 168.14L67.3682 198.14Z" fill="#8BC5E4"/>
<path d="M69.8979 195.177C69.9609 195.123 70.0249 195.071 70.0899 195.02L122.051 165.02C121.986 165.071 121.922 165.123 121.859 165.177L69.8979 195.177Z" fill="#8BC5E4"/>
<path d="M70.0962 195.015C70.2951 194.86 70.5051 194.718 70.7251 194.589L122.687 164.589C122.467 164.718 122.257 164.86 122.058 165.015L70.0962 195.015Z" fill="#8BC5E4"/>
<path d="M70.7251 194.59C72.3841 193.622 74.6331 193.456 77.2541 194.967L129.216 164.967C126.595 163.456 124.346 163.622 122.687 164.59L70.7251 194.59Z" fill="#8BC5E4"/>
<path d="M77.2578 194.97C80.4621 196.82 82.9043 200.55 84.5671 203.9L136.529 173.9C134.866 170.55 132.424 166.82 129.219 164.97L77.2578 194.97Z" fill="#8BC5E4"/>
<path d="M84.5674 203.9C85.5373 205.85 86.3427 207.795 87.0789 209.64L139.04 179.64C138.304 177.795 137.499 175.85 136.529 173.9L84.5674 203.9Z" fill="#8BC5E4"/>
<path d="M87.0791 209.64C87.6247 208.915 88.1962 208.215 88.8371 207.625L140.799 177.625C140.158 178.215 139.586 178.915 139.041 179.64L87.0791 209.64Z" fill="#8BC5E4"/>
<path d="M88.8369 207.625C89.206 207.284 89.606 206.977 90.038 206.731L142 176.731C141.568 176.977 141.168 177.284 140.798 177.625L88.8369 207.625Z" fill="#8BC5E4"/>
<path d="M90.0371 206.732C91.3871 205.962 93.0521 205.782 95.0901 206.955L147.052 176.955C145.014 175.782 143.349 175.962 141.999 176.732L90.0371 206.732Z" fill="#8BC5E4"/>
<path d="M95.0981 206.96C97.7395 208.485 99.766 211.475 101.282 214.58L153.243 184.58C151.728 181.475 149.701 178.485 147.06 176.96L95.0981 206.96Z" fill="#8BC5E4"/>
<path d="M101.282 214.58C101.94 215.93 102.537 217.335 103.1 218.75L155.062 188.75C154.499 187.335 153.901 185.93 153.243 184.58L101.282 214.58Z" fill="#8BC5E4"/>
<path d="M103.101 218.75C103.828 217.69 104.599 216.645 105.56 215.81L157.522 185.81C156.56 186.645 155.79 187.69 155.062 188.75L103.101 218.75Z" fill="#8BC5E4"/>
<path d="M105.56 215.81C105.836 215.571 106.138 215.355 106.465 215.167L158.426 185.167C158.099 185.355 157.797 185.571 157.521 185.81L105.56 215.81Z" fill="#8BC5E4"/>
<path d="M106.464 215.168C108.08 214.241 110.291 214.044 112.934 215.567L164.895 185.567C162.252 184.044 160.041 184.241 158.425 185.168L106.464 215.168Z" fill="#8BC5E4"/>
<path d="M112.938 215.57C116.151 217.425 118.697 221.085 120.334 224.42L172.296 194.42C170.659 191.085 168.113 187.425 164.9 185.57L112.938 215.57Z" fill="#8BC5E4"/>
<path d="M120.334 224.42C121.287 226.36 122.057 228.305 122.776 230.18L174.738 200.18C174.019 198.305 173.248 196.36 172.296 194.42L120.334 224.42Z" fill="#8BC5E4"/>
<path d="M122.776 230.18C123.348 229.42 123.937 228.7 124.586 228.105L176.548 198.105C175.898 198.7 175.309 199.42 174.738 200.18L122.776 230.18Z" fill="#8BC5E4"/>
<path d="M124.586 228.105C124.924 227.799 125.287 227.526 125.676 227.304L177.638 197.304C177.249 197.526 176.886 197.799 176.548 198.105L124.586 228.105Z" fill="#8BC5E4"/>
<path d="M125.675 227.305C127.032 226.53 128.713 226.371 130.771 227.556L182.732 197.556C180.674 196.371 178.993 196.53 177.636 197.305L125.675 227.305Z" fill="#8BC5E4"/>
<path d="M130.778 227.56C133.48 229.12 135.516 232.305 137.031 235.47L188.993 205.47C187.477 202.305 185.442 199.12 182.74 197.56L130.778 227.56Z" fill="#8BC5E4"/>
<path d="M137.031 235.47C137.611 236.685 138.148 237.945 138.651 239.175L190.612 209.175C190.11 207.945 189.573 206.685 188.993 205.47L137.031 235.47Z" fill="#8BC5E4"/>
<path d="M138.65 239.175C139.239 238.145 139.906 237.11 140.781 236.265L192.742 206.265C191.868 207.11 191.201 208.145 190.612 209.175L138.65 239.175Z" fill="#8BC5E4"/>
<path d="M140.781 236.265C141.061 235.994 141.376 235.754 141.723 235.552L193.685 205.552C193.338 205.754 193.023 205.994 192.743 206.265L140.781 236.265Z" fill="#8BC5E4"/>
<path d="M141.723 235.553C143.372 234.597 145.755 234.519 148.622 236.172L200.583 206.172C197.716 204.519 195.333 204.597 193.684 205.553L141.723 235.553Z" fill="#8BC5E4"/>
<path d="M148.627 236.175C155.512 240.15 160.388 249.655 160.388 256.685L212.349 226.685C212.349 219.655 207.473 210.15 200.588 206.175L148.627 236.175Z" fill="#8BC5E4"/>
<path d="M158.967 255.865C158.967 258.195 157.876 260.235 156.118 261.76L208.08 231.76C209.838 230.235 210.929 228.195 210.929 225.865L158.967 255.865Z" fill="#8BC5E4"/>
<path d="M156.119 261.76C155.797 262.039 155.448 262.293 155.073 262.511L207.035 232.511C207.41 232.293 207.759 232.039 208.08 231.76L156.119 261.76Z" fill="#8BC5E4"/>
<path d="M155.074 262.511C153.406 263.479 151.218 263.729 148.632 262.238L200.593 232.238C203.179 233.729 205.367 233.479 207.035 232.511L155.074 262.511Z" fill="#8BC5E4"/>
<path d="M148.627 262.235C145.587 260.48 143.431 257.325 142.002 254.24L193.963 224.24C195.392 227.325 197.549 230.48 200.589 232.235L148.627 262.235Z" fill="#8BC5E4"/>
<path d="M142.002 254.24C141.422 252.985 140.928 251.72 140.469 250.485L192.431 220.485C192.89 221.72 193.383 222.985 193.964 224.24L142.002 254.24Z" fill="#8BC5E4"/>
<path d="M140.47 250.485C139.785 251.47 139.032 252.415 138.157 253.19L190.119 223.19C190.993 222.415 191.747 221.47 192.431 220.485L140.47 250.485Z" fill="#8BC5E4"/>
<path d="M138.157 253.19C137.84 253.465 137.495 253.716 137.122 253.931L189.084 223.931C189.457 223.716 189.802 223.465 190.119 223.19L138.157 253.19Z" fill="#8BC5E4"/>
<path d="M137.123 253.931C135.507 254.863 133.371 255.115 130.783 253.623L182.745 223.623C185.333 225.115 187.469 224.863 189.085 223.931L137.123 253.931Z" fill="#8BC5E4"/>
<path d="M130.778 253.62C127.583 251.775 125.123 248.035 123.478 244.655L175.439 214.655C177.085 218.035 179.544 221.775 182.74 223.62L130.778 253.62Z" fill="#8BC5E4"/>
<path d="M123.478 244.655C122.577 242.795 121.824 240.94 121.122 239.125L173.084 209.125C173.785 210.94 174.539 212.795 175.439 214.655L123.478 244.655Z" fill="#8BC5E4"/>
<path d="M121.122 239.125C120.533 239.935 119.927 240.705 119.226 241.32L171.187 211.32C171.889 210.705 172.495 209.935 173.084 209.125L121.122 239.125Z" fill="#8BC5E4"/>
<path d="M119.225 241.32C118.952 241.562 118.659 241.779 118.346 241.962L170.307 211.962C170.62 211.779 170.913 211.562 171.187 211.32L119.225 241.32Z" fill="#8BC5E4"/>
<path d="M118.347 241.962C116.957 242.775 115.17 242.916 112.946 241.635L164.908 211.635C167.132 212.916 168.919 212.775 170.309 211.962L118.347 241.962Z" fill="#8BC5E4"/>
<path d="M112.938 241.63C110.228 240.065 108.149 237.155 106.66 234.125L158.621 204.125C160.111 207.155 162.189 210.065 164.9 211.63L112.938 241.63Z" fill="#8BC5E4"/>
<path d="M106.66 234.125C105.958 232.71 105.343 231.235 104.763 229.75L156.725 199.75C157.305 201.235 157.92 202.71 158.621 204.125L106.66 234.125Z" fill="#8BC5E4"/>
<path d="M104.763 229.75C104.053 230.76 103.291 231.74 102.39 232.55L154.352 202.55C155.252 201.74 156.014 200.76 156.725 199.75L104.763 229.75Z" fill="#8BC5E4"/>
<path d="M102.39 232.55C102.062 232.843 101.702 233.11 101.309 233.336L153.271 203.336C153.664 203.11 154.024 202.843 154.352 202.55L102.39 232.55Z" fill="#8BC5E4"/>
<path d="M101.31 233.336C99.732 234.244 97.639 234.485 95.103 233.023L147.065 203.023C149.601 204.485 151.694 204.244 153.272 203.336L101.31 233.336Z" fill="#8BC5E4"/>
<path d="M95.0983 233.02C91.8248 231.13 89.3739 227.265 87.7285 223.845L139.69 193.845C141.335 197.265 143.786 201.13 147.06 203.02L95.0983 233.02Z" fill="#8BC5E4"/>
<path d="M87.7282 223.845C86.8362 222 86.0914 220.16 85.4072 218.415L137.369 188.415C138.053 190.16 138.798 192 139.69 193.845L87.7282 223.845Z" fill="#8BC5E4"/>
<path d="M85.4073 218.415C84.8098 219.18 84.1776 219.925 83.4761 220.53L135.438 190.53C136.139 189.925 136.771 189.18 137.369 188.415L85.4073 218.415Z" fill="#8BC5E4"/>
<path d="M83.4763 220.53C83.1691 220.793 82.8421 221.032 82.4951 221.233L134.457 191.233C134.804 191.032 135.131 190.793 135.438 190.53L83.4763 220.53Z" fill="#8BC5E4"/>
<path d="M82.4961 221.232C81.1021 222.042 79.3781 222.251 77.2661 221.034L129.228 191.034C131.34 192.251 133.064 192.042 134.458 191.232L82.4961 221.232Z" fill="#8BC5E4"/>
<path d="M77.258 221.03C74.7292 219.57 72.7027 216.89 71.1699 213.925L123.131 183.925C124.664 186.89 126.691 189.57 129.22 191.03L77.258 221.03Z" fill="#8BC5E4"/>
<path d="M71.1701 213.925C70.3993 212.42 69.7065 210.82 69.0396 209.135L121.001 179.135C121.668 180.82 122.361 182.42 123.132 183.925L71.1701 213.925Z" fill="#8BC5E4"/>
<path d="M69.0394 209.135C68.2029 210.208 67.3139 211.154 66.3569 211.891L118.318 181.891C119.275 181.154 120.164 180.208 121.001 179.135L69.0394 209.135Z" fill="#8BC5E4"/>
<path d="M66.3619 211.887C66.2979 211.936 66.2339 211.984 66.1699 212.031L118.131 182.031C118.195 181.984 118.259 181.936 118.323 181.887L66.3619 211.887Z" fill="#8BC5E4"/>
<path d="M66.1643 212.035C65.91 212.218 65.648 212.39 65.376 212.546L117.337 182.546C117.609 182.39 117.871 182.218 118.126 182.035L66.1643 212.035Z" fill="#8BC5E4"/>
<path d="M65.3768 212.545C63.7688 213.466 61.8378 213.814 59.4258 212.425L111.387 182.425C113.799 183.814 115.73 183.466 117.338 182.545L65.3768 212.545Z" fill="#8BC5E4"/>
<path d="M59.4179 212.42C56.2136 210.57 54.1871 206.91 52.4204 203.48L104.382 173.48C106.149 176.91 108.175 180.57 111.379 182.42L59.4179 212.42Z" fill="#8BC5E4"/>
<path d="M52.4204 203.48C51.4505 201.6 50.5758 199.665 49.7964 197.825L101.758 167.825C102.537 169.665 103.412 171.6 104.382 173.48L52.4204 203.48Z" fill="#8BC5E4"/>
<path d="M49.7962 197.825C49.2246 198.575 48.601 199.295 47.9082 199.895L99.8697 169.895C100.563 169.295 101.186 168.575 101.758 167.825L49.7962 197.825Z" fill="#8BC5E4"/>
<path d="M47.9087 199.895C47.5962 200.163 47.2642 200.407 46.9102 200.613L98.8717 170.613C99.2257 170.407 99.5577 170.163 99.8702 169.895L47.9087 199.895Z" fill="#8BC5E4"/>
<path d="M46.9111 200.613C45.4911 201.443 43.7311 201.67 41.5771 200.43L93.5386 170.43C95.6926 171.67 97.4527 171.443 98.8727 170.613L46.9111 200.613Z" fill="#8BC5E4"/>
<path d="M41.5692 200.425C38.9192 198.895 36.7801 195.85 35.1606 192.695L87.1222 162.695C88.7416 165.85 90.8807 168.895 93.5307 170.425L41.5692 200.425Z" fill="#8BC5E4"/>
<path d="M35.1609 192.695C34.5287 191.45 33.9572 190.17 33.4375 188.9L85.3991 158.9C85.9187 160.17 86.4903 161.45 87.1225 162.695L35.1609 192.695Z" fill="#8BC5E4"/>
<path d="M33.4374 188.9C32.8312 189.79 32.1471 190.645 31.333 191.355L83.2945 161.355C84.1086 160.645 84.7927 159.79 85.399 158.9L33.4374 188.9Z" fill="#8BC5E4"/>
<path d="M31.3328 191.355C31.008 191.638 30.654 191.898 30.271 192.122L82.2325 162.122C82.6155 161.898 82.9695 161.638 83.2943 161.355L31.3328 191.355Z" fill="#8BC5E4"/>
<path d="M30.2719 192.121C28.6149 193.089 26.4199 193.367 23.7339 191.818L75.6954 161.818C78.3814 163.367 80.5764 163.089 82.2334 162.121L30.2719 192.121Z" fill="#8BC5E4"/>
<path d="M23.7294 191.815C20.2999 189.835 17.546 185.905 15.5195 182.105L67.481 152.105C69.5075 155.905 72.2615 159.835 75.6909 161.815L23.7294 191.815Z" fill="#8BC5E4"/>
<path d="M15.5194 182.105C13.4842 178.29 11.9688 174.475 11.9688 170.995L63.9302 140.995C63.9302 144.475 65.4457 148.29 67.4809 152.105L15.5194 182.105Z" fill="#8BC5E4"/>
<path d="M13.3975 171.82C13.4871 169.415 14.6261 167.564 16.2391 166.288L68.2006 136.288C66.5876 137.564 65.4486 139.415 65.359 141.82L13.3975 171.82Z" fill="#8BC5E4"/>
<path d="M16.2339 166.292C16.3409 166.207 16.4509 166.124 16.5619 166.044L68.5234 136.044C68.4124 136.124 68.3024 136.207 68.1954 136.292L16.2339 166.292Z" fill="#8BC5E4"/>
<path d="M16.5674 166.04C16.7703 165.893 16.9803 165.756 17.1983 165.63L69.1598 135.63C68.9418 135.756 68.7318 135.893 68.5289 136.04L16.5674 166.04Z" fill="#8BC5E4"/>
<path d="M17.209 165.623C18.978 164.601 21.223 164.311 23.721 165.75L75.6825 135.75C73.1845 134.311 70.9395 134.601 69.1705 135.623L17.209 165.623Z" fill="#8BC5E4"/>
<path d="M23.729 165.755C26.483 167.345 28.648 170.515 30.2328 173.74L82.1944 143.74C80.6095 140.515 78.4445 137.345 75.6905 135.755L23.729 165.755Z" fill="#8BC5E4"/>
<path d="M30.2329 173.74C30.7959 174.875 31.3068 176.06 31.7745 177.22L83.736 147.22C83.2683 146.06 82.7574 144.875 82.1945 143.74L30.2329 173.74Z" fill="#8BC5E4"/>
<path d="M31.7744 177.22C32.4326 176.28 33.1947 175.39 34.0867 174.665L86.0482 144.665C85.1562 145.39 84.3941 146.28 83.7359 147.22L31.7744 177.22Z" fill="#8BC5E4"/>
<path d="M148.627 242.905C152.429 245.1 154.706 250.025 154.706 253.405L206.668 223.405C206.668 220.025 204.39 215.1 200.588 212.905L148.627 242.905Z" fill="#8BC5E4"/>
<path d="M156.127 254.225C156.127 254.915 155.339 257.13 153.928 258.355L205.889 228.355C207.301 227.13 208.089 224.915 208.089 224.225L156.127 254.225Z" fill="#8BC5E4"/>
<path d="M153.927 258.355C153.664 258.583 153.384 258.784 153.091 258.953L205.052 228.953C205.345 228.784 205.625 228.583 205.889 228.355L153.927 258.355Z" fill="#8BC5E4"/>
<path d="M153.082 258.958C151.797 259.693 150.25 259.809 148.633 258.878L200.594 228.878C202.211 229.809 203.758 229.693 205.043 228.958L153.082 258.958Z" fill="#8BC5E4"/>
<path d="M148.627 258.875C146.497 257.645 145.414 255.99 144.28 253.535L196.241 223.535C197.376 225.99 198.458 227.645 200.589 228.875L148.627 258.875Z" fill="#8BC5E4"/>
<path d="M144.28 253.535C143.527 251.9 142.851 249.98 142.098 247.945L194.059 217.945C194.813 219.98 195.488 221.9 196.242 223.535L144.28 253.535Z" fill="#8BC5E4"/>
<path d="M142.098 247.945C142.132 247.895 142.158 247.84 142.193 247.8L194.154 217.8C194.12 217.84 194.094 217.895 194.059 217.945L142.098 247.945Z" fill="#8BC5E4"/>
<path d="M142.192 247.8C143.457 245.81 144.357 243.86 145.284 242.955L197.246 212.955C196.319 213.86 195.418 215.81 194.154 217.8L142.192 247.8Z" fill="#8BC5E4"/>
<path d="M145.284 242.955C145.531 242.717 145.749 242.526 145.973 242.393L197.934 212.393C197.71 212.526 197.492 212.717 197.246 212.955L145.284 242.955Z" fill="#8BC5E4"/>
<path d="M145.972 242.393C146.59 242.026 147.245 242.107 148.622 242.902L200.583 212.902C199.206 212.107 198.551 212.026 197.933 212.393L145.972 242.393Z" fill="#8BC5E4"/>
<path d="M130.778 230.92C132.311 231.805 133.524 233.595 134.797 236.26L186.758 206.26C185.485 203.595 184.273 201.805 182.74 200.92L130.778 230.92Z" fill="#8BC5E4"/>
<path d="M134.797 236.26C135.594 237.93 136.356 239.86 137.127 241.815L189.088 211.815C188.317 209.86 187.555 207.93 186.758 206.26L134.797 236.26Z" fill="#8BC5E4"/>
<path d="M137.064 241.915C135.934 243.705 134.838 245.442 133.758 246.38L185.719 216.38C186.799 215.442 187.896 213.705 189.025 211.915L137.064 241.915Z" fill="#8BC5E4"/>
<path d="M133.757 246.38C133.483 246.619 133.228 246.807 132.984 246.947L184.945 216.947C185.189 216.807 185.444 216.619 185.719 216.38L133.757 246.38Z" fill="#8BC5E4"/>
<path d="M132.986 246.946C132.225 247.384 131.576 247.349 130.785 246.894L182.747 216.894C183.538 217.349 184.187 217.384 184.948 216.946L132.986 246.946Z" fill="#8BC5E4"/>
<path d="M130.779 246.89C129.757 246.3 129.047 245.34 127.921 243.02L179.882 213.02C181.008 215.34 181.718 216.3 182.74 216.89L130.779 246.89Z" fill="#8BC5E4"/>
<path d="M127.921 243.02C126.847 240.8 125.721 237.7 124.431 234.445L176.392 204.445C177.683 207.7 178.808 210.8 179.882 213.02L127.921 243.02Z" fill="#8BC5E4"/>
<path d="M124.431 234.445C125.227 233.295 126.007 232.215 126.812 231.48L178.774 201.48C177.968 202.215 177.189 203.295 176.392 204.445L124.431 234.445Z" fill="#8BC5E4"/>
<path d="M126.812 231.48C127.116 231.205 127.414 230.977 127.712 230.803L179.673 200.803C179.375 200.977 179.077 201.205 178.774 201.48L126.812 231.48Z" fill="#8BC5E4"/>
<path d="M127.712 230.804C128.645 230.258 129.588 230.234 130.774 230.917L182.735 200.917C181.549 200.234 180.606 200.258 179.673 200.804L127.712 230.804Z" fill="#8BC5E4"/>
<path d="M112.938 222.3C114.229 223.045 114.852 223.935 115.918 226.1L167.879 196.1C166.814 193.935 166.19 193.045 164.9 192.3L112.938 222.3Z" fill="#8BC5E4"/>
<path d="M115.917 226.1C116.974 228.26 118.074 231.385 119.442 234.805L171.404 204.805C170.035 201.385 168.936 198.26 167.879 196.1L115.917 226.1Z" fill="#8BC5E4"/>
<path d="M119.442 234.805C119.451 234.82 119.46 234.845 119.46 234.855L171.421 204.855C171.421 204.845 171.413 204.82 171.404 204.805L119.442 234.805Z" fill="#8BC5E4"/>
<path d="M119.46 234.855C118.628 236.065 117.849 237.195 117.018 237.925L168.979 207.925C169.811 207.195 170.59 206.065 171.421 204.855L119.46 234.855Z" fill="#8BC5E4"/>
<path d="M117.017 237.925C116.74 238.17 116.468 238.375 116.191 238.533L168.152 208.533C168.429 208.375 168.701 208.17 168.979 207.925L117.017 237.925Z" fill="#8BC5E4"/>
<path d="M116.192 238.532C115.269 239.057 114.301 239.055 112.944 238.273L164.906 208.273C166.263 209.055 167.231 209.057 168.154 208.532L116.192 238.532Z" fill="#8BC5E4"/>
<path d="M112.938 238.27C111.163 237.245 110.054 235.695 108.859 233.265L160.821 203.265C162.016 205.695 163.124 207.245 164.9 208.27L112.938 238.27Z" fill="#8BC5E4"/>
<path d="M108.859 233.265C108.028 231.595 107.248 229.555 106.408 227.34L158.37 197.34C159.21 199.555 159.989 201.595 160.821 203.265L108.859 233.265Z" fill="#8BC5E4"/>
<path d="M106.408 227.34C106.426 227.32 106.443 227.29 106.46 227.27L158.422 197.27C158.404 197.29 158.387 197.32 158.37 197.34L106.408 227.34Z" fill="#8BC5E4"/>
<path d="M106.46 227.27C107.811 225.38 108.903 223.52 109.959 222.61L161.921 192.61C160.864 193.52 159.773 195.38 158.422 197.27L106.46 227.27Z" fill="#8BC5E4"/>
<path d="M109.959 222.61C110.229 222.374 110.471 222.189 110.703 222.056L162.664 192.056C162.432 192.189 162.19 192.374 161.921 192.61L109.959 222.61Z" fill="#8BC5E4"/>
<path d="M110.701 222.057C111.368 221.677 111.958 221.736 112.931 222.296L164.893 192.296C163.92 191.736 163.33 191.677 162.663 192.057L110.701 222.057Z" fill="#8BC5E4"/>
<path d="M95.0981 210.32C96.683 211.235 97.8261 212.865 99.0732 215.415L151.035 185.415C149.788 182.865 148.645 181.235 147.06 180.32L95.0981 210.32Z" fill="#8BC5E4"/>
<path d="M99.0732 215.415C99.8873 217.075 100.667 219.055 101.472 221.16L153.434 191.16C152.628 189.055 151.849 187.075 151.035 185.415L99.0732 215.415Z" fill="#8BC5E4"/>
<path d="M101.472 221.16C100.173 222.99 99.0473 224.81 97.9648 225.775L149.926 195.775C151.009 194.81 152.135 192.99 153.434 191.16L101.472 221.16Z" fill="#8BC5E4"/>
<path d="M97.9651 225.775C97.6703 226.041 97.4053 226.245 97.1533 226.389L149.115 196.389C149.367 196.245 149.632 196.041 149.927 195.775L97.9651 225.775Z" fill="#8BC5E4"/>
<path d="M97.155 226.389C96.461 226.789 95.878 226.739 95.104 226.294L147.066 196.294C147.84 196.739 148.423 196.789 149.117 196.389L97.155 226.389Z" fill="#8BC5E4"/>
<path d="M95.0983 226.29C94.1457 225.74 93.3403 224.645 92.1885 222.25L144.15 192.25C145.302 194.645 146.107 195.74 147.06 196.29L95.0983 226.29Z" fill="#8BC5E4"/>
<path d="M92.1881 222.25C91.0796 219.95 89.9797 216.895 88.75 213.855L140.711 183.855C141.941 186.895 143.041 189.95 144.15 192.25L92.1881 222.25Z" fill="#8BC5E4"/>
<path d="M88.75 213.855C89.5121 212.785 90.2655 211.73 91.0709 210.995L143.033 180.995C142.227 181.73 141.474 182.785 140.711 183.855L88.75 213.855Z" fill="#8BC5E4"/>
<path d="M91.0713 210.995C91.4041 210.685 91.7341 210.43 92.0671 210.239L144.029 180.239C143.696 180.43 143.366 180.685 143.033 180.995L91.0713 210.995Z" fill="#8BC5E4"/>
<path d="M92.0659 210.24C93.0029 209.701 93.9639 209.667 95.0939 210.317L147.055 180.317C145.925 179.667 144.964 179.701 144.027 180.24L92.0659 210.24Z" fill="#8BC5E4"/>
<path d="M77.2578 201.7C78.2191 202.255 79.0332 203.335 80.185 205.65L132.147 175.65C130.995 173.335 130.181 172.255 129.219 171.7L77.2578 201.7Z" fill="#8BC5E4"/>
<path d="M80.1855 205.65C81.3286 207.96 82.4891 211.09 83.7622 214.205L135.724 184.205C134.451 181.09 133.29 177.96 132.147 175.65L80.1855 205.65Z" fill="#8BC5E4"/>
<path d="M83.7619 214.205C82.9478 215.315 82.1337 216.385 81.2764 217.12L133.238 187.12C134.095 186.385 134.909 185.315 135.723 184.205L83.7619 214.205Z" fill="#8BC5E4"/>
<path d="M81.2762 217.12C80.9927 217.366 80.7117 217.573 80.4287 217.737L132.39 187.737C132.673 187.573 132.954 187.366 133.238 187.12L81.2762 217.12Z" fill="#8BC5E4"/>
<path d="M80.4297 217.736C79.4437 218.307 78.4387 218.35 77.2627 217.673L129.224 187.673C130.4 188.35 131.405 188.307 132.391 187.736L80.4297 217.736Z" fill="#8BC5E4"/>
<path d="M77.2581 217.67C75.6213 216.725 74.5301 215.305 73.3091 212.95L125.271 182.95C126.492 185.305 127.583 186.725 129.22 187.67L77.2581 217.67Z" fill="#8BC5E4"/>
<path d="M73.3089 212.95C72.4515 211.285 71.6028 209.175 70.7021 206.785L122.664 176.785C123.564 179.175 124.413 181.285 125.27 182.95L73.3089 212.95Z" fill="#8BC5E4"/>
<path d="M70.7021 206.785C70.7454 206.72 70.7801 206.66 70.8234 206.605L122.785 176.605C122.742 176.66 122.707 176.72 122.664 176.785L70.7021 206.785Z" fill="#8BC5E4"/>
<path d="M70.8232 206.605C72.1655 204.49 73.3346 202.735 74.3825 201.91L126.344 171.91C125.296 172.735 124.127 174.49 122.785 176.605L70.8232 206.605Z" fill="#8BC5E4"/>
<path d="M74.3828 201.91C74.5889 201.748 74.7789 201.615 74.9589 201.51L126.92 171.51C126.74 171.615 126.55 171.748 126.344 171.91L74.3828 201.91Z" fill="#8BC5E4"/>
<path d="M74.958 201.511C75.7 201.081 76.286 201.14 77.251 201.696L129.213 171.696C128.248 171.14 127.662 171.081 126.92 171.511L74.958 201.511Z" fill="#8BC5E4"/>
<path d="M59.418 189.72C60.388 190.28 61.6437 191.855 63.012 194.425L114.973 164.425C113.605 161.855 112.349 160.28 111.379 159.72L59.418 189.72Z" fill="#8BC5E4"/>
<path d="M63.0117 194.425C63.9297 196.155 64.8737 198.27 65.7917 200.56L117.753 170.56C116.835 168.27 115.891 166.155 114.973 164.425L63.0117 194.425Z" fill="#8BC5E4"/>
<path d="M65.7921 200.56C64.6181 202.381 63.3861 203.938 62.2441 204.856L114.206 174.856C115.348 173.938 116.58 172.381 117.754 170.56L65.7921 200.56Z" fill="#8BC5E4"/>
<path d="M62.2359 204.862C62.1449 204.935 62.0529 205.005 61.9629 205.07L113.924 175.07C114.014 175.005 114.106 174.935 114.197 174.862L62.2359 204.862Z" fill="#8BC5E4"/>
<path d="M61.9556 205.075C61.7971 205.191 61.6431 205.291 61.4941 205.376L113.456 175.376C113.605 175.291 113.759 175.191 113.917 175.075L61.9556 205.075Z" fill="#8BC5E4"/>
<path d="M61.4978 205.374C60.5008 205.947 59.7408 205.87 59.4258 205.695L111.387 175.695C111.702 175.87 112.462 175.947 113.459 175.374L61.4978 205.374Z" fill="#8BC5E4"/>
<path d="M59.4177 205.69C59.435 205.7 58.0754 204.185 56.707 201.545L108.669 171.545C110.037 174.185 111.397 175.7 111.379 175.69L59.4177 205.69Z" fill="#8BC5E4"/>
<path d="M56.7073 201.545C55.417 199.03 54.1093 195.895 53.0874 193.305L105.049 163.305C106.071 165.895 107.379 169.03 108.669 171.545L56.7073 201.545Z" fill="#8BC5E4"/>
<path d="M53.0874 193.305C53.826 192.41 54.634 191.519 55.474 190.834L107.436 160.834C106.596 161.519 105.788 162.41 105.049 163.305L53.0874 193.305Z" fill="#8BC5E4"/>
<path d="M55.4688 190.838C55.5248 190.792 55.5807 190.748 55.6367 190.704L107.598 160.704C107.542 160.748 107.486 160.792 107.43 160.838L55.4688 190.838Z" fill="#8BC5E4"/>
<path d="M55.6421 190.7C55.898 190.498 56.156 190.322 56.412 190.173L108.373 160.173C108.117 160.322 107.859 160.498 107.604 160.7L55.6421 190.7Z" fill="#8BC5E4"/>
<path d="M56.4277 190.164C57.6197 189.473 58.7657 189.347 59.4127 189.717L111.374 159.717C110.727 159.347 109.581 159.473 108.389 160.164L56.4277 190.164Z" fill="#8BC5E4"/>
<path d="M41.5693 181.095C42.5219 181.645 43.4486 182.86 44.6177 185.215L96.5793 155.215C95.4101 152.86 94.4835 151.645 93.5308 151.095L41.5693 181.095Z" fill="#8BC5E4"/>
<path d="M44.6177 185.215C45.7955 187.585 46.93 190.68 48.0559 193.55L100.017 163.55C98.8915 160.68 97.757 157.585 96.5793 155.215L44.6177 185.215Z" fill="#8BC5E4"/>
<path d="M48.0557 193.55C48.073 193.59 48.0816 193.625 48.099 193.665L100.06 163.665C100.043 163.625 100.034 163.59 100.017 163.55L48.0557 193.55Z" fill="#8BC5E4"/>
<path d="M48.0994 193.665C47.3546 194.725 46.5665 195.76 45.7178 196.49L97.6793 166.49C98.528 165.76 99.3161 164.725 100.061 163.665L48.0994 193.665Z" fill="#8BC5E4"/>
<path d="M45.7176 196.49C45.4371 196.73 45.1561 196.934 44.8721 197.097L96.8336 167.097C97.1176 166.934 97.3986 166.73 97.6791 166.49L45.7176 196.49Z" fill="#8BC5E4"/>
<path d="M44.8732 197.097C43.8392 197.696 42.7762 197.76 41.5742 197.068L93.5357 167.068C94.7377 167.76 95.8007 167.696 96.8347 167.097L44.8732 197.097Z" fill="#8BC5E4"/>
<path d="M41.5691 197.065C40.0103 196.165 38.6333 194.31 37.3169 191.74L89.2785 161.74C90.5948 164.31 91.9718 166.165 93.5306 167.065L41.5691 197.065Z" fill="#8BC5E4"/>
<path d="M37.3169 191.74C36.4596 190.075 35.6801 188.175 34.9873 186.275L86.9489 156.275C87.6417 158.175 88.4211 160.075 89.2785 161.74L37.3169 191.74Z" fill="#8BC5E4"/>
<path d="M34.9873 186.275C35.0566 186.145 35.1346 186.01 35.2038 185.88L87.1654 155.88C87.0961 156.01 87.0181 156.145 86.9489 156.275L34.9873 186.275Z" fill="#8BC5E4"/>
<path d="M35.2041 185.88C36.1135 184.205 37.222 182.475 38.3911 181.55L90.3526 151.55C89.1835 152.475 88.075 154.205 87.1657 155.88L35.2041 185.88Z" fill="#8BC5E4"/>
<path d="M38.3906 181.55C38.6057 181.378 38.8137 181.235 39.0187 181.118L90.9802 151.118C90.7752 151.235 90.5672 151.378 90.3521 151.55L38.3906 181.55Z" fill="#8BC5E4"/>
<path d="M39.0171 181.119C39.9241 180.601 40.7381 180.617 41.5631 181.092L93.5246 151.092C92.6996 150.617 91.8856 150.601 90.9786 151.119L39.0171 181.119Z" fill="#8BC5E4"/>
<path d="M23.729 169.115C25.3831 170.07 26.7341 171.96 28.0331 174.59L79.9947 144.59C78.6956 141.96 77.3446 140.07 75.6905 139.115L23.729 169.115Z" fill="#8BC5E4"/>
<path d="M28.0332 174.59C28.8213 176.195 29.5401 178.01 30.1896 179.815L82.1512 149.815C81.5017 148.01 80.7828 146.195 79.9948 144.59L28.0332 174.59Z" fill="#8BC5E4"/>
<path d="M30.1896 179.815C30.1637 179.87 30.129 179.93 30.103 179.985L82.0646 149.985C82.0905 149.93 82.1252 149.87 82.1512 149.815L30.1896 179.815Z" fill="#8BC5E4"/>
<path d="M30.1032 179.985C29.1593 181.71 28.0854 183.55 26.9336 184.555L78.8951 154.555C80.0469 153.55 81.1208 151.71 82.0648 149.985L30.1032 179.985Z" fill="#8BC5E4"/>
<path d="M26.9334 184.555C26.668 184.789 26.414 184.977 26.166 185.121L78.1275 155.121C78.3755 154.977 78.6295 154.789 78.8949 154.555L26.9334 184.555Z" fill="#8BC5E4"/>
<path d="M26.1673 185.12C25.3413 185.598 24.5863 185.578 23.7363 185.089L75.6978 155.089C76.5478 155.578 77.3028 155.598 78.1288 155.12L26.1673 185.12Z" fill="#8BC5E4"/>
<path d="M23.7293 185.085C22.7507 184.52 21.0446 182.485 19.7109 179.985L71.6725 149.985C73.0061 152.485 74.7122 154.52 75.6908 155.085L23.7293 185.085Z" fill="#8BC5E4"/>
<path d="M19.7105 179.985C18.3855 177.5 17.6494 174.675 17.6494 174.275L69.6109 144.275C69.6109 144.675 70.347 147.5 71.6721 149.985L19.7105 179.985Z" fill="#8BC5E4"/>
<path d="M16.2466 173.465C16.378 172.331 17.19 170.705 18.441 169.69L70.4025 139.69C69.1515 140.705 68.3395 142.331 68.2082 143.465L16.2466 173.465Z" fill="#8BC5E4"/>
<path d="M18.4341 169.696C18.5061 169.637 18.5801 169.58 18.6551 169.526L70.6166 139.526C70.5416 139.58 70.4676 139.637 70.3956 139.696L18.4341 169.696Z" fill="#8BC5E4"/>
<path d="M18.6631 169.52C18.8103 169.414 18.9623 169.315 19.1173 169.225L71.0788 139.225C70.9238 139.315 70.7718 139.414 70.6247 139.52L18.6631 169.52Z" fill="#8BC5E4"/>
<path d="M19.1162 169.226C20.5482 168.396 22.2872 168.285 23.7242 169.112L75.6857 139.112C74.2487 138.285 72.5097 138.396 71.0777 139.226L19.1162 169.226Z" fill="#8BC5E4"/>
<path fill-rule="evenodd" clip-rule="evenodd" d="M14.6098 96.16L158.595 179.29C164.276 182.57 168.78 190.51 168.78 197.24V294.59C168.78 301.31 164.276 304.05 158.595 300.77L14.6098 217.64C8.92872 214.36 4.42539 206.42 4.42539 199.7V102.35C4.42539 95.62 8.92872 92.88 14.6098 96.16ZM34.0868 174.665C35.8535 173.275 38.3736 172.52 41.5692 174.365C44.8428 176.255 47.311 180.06 48.9997 183.465C49.9697 185.415 50.7837 187.375 51.4939 189.185C52.1174 188.485 52.7842 187.82 53.4944 187.26C55.1572 185.94 57.0191 184.975 59.418 186.36C61.6264 187.635 63.4883 190.32 65.1078 193.365C65.8959 194.85 66.6493 196.455 67.3681 198.14C68.1908 196.925 69.0569 195.835 70.0961 195.015C71.7935 193.695 74.2877 193.255 77.2581 194.97C80.4624 196.82 82.9046 200.55 84.5674 203.9C85.5373 205.85 86.3427 207.795 87.0789 209.64C87.6244 208.915 88.196 208.215 88.8369 207.625C90.3611 206.215 92.4049 205.405 95.0982 206.96C97.7396 208.485 99.7661 211.475 101.282 214.58C101.94 215.93 102.537 217.335 103.1 218.75C103.828 217.69 104.599 216.645 105.56 215.81C107.205 214.39 109.76 213.735 112.938 215.57C116.151 217.425 118.697 221.085 120.334 224.42C121.287 226.36 122.058 228.305 122.776 230.18C123.348 229.42 123.937 228.7 124.586 228.105C126.102 226.73 128.128 226.03 130.778 227.56C133.48 229.12 135.516 232.305 137.031 235.47C137.611 236.685 138.148 237.945 138.651 239.175C139.24 238.145 139.906 237.11 140.781 236.265C142.392 234.705 145.155 234.17 148.627 236.175C155.512 240.15 160.388 249.655 160.388 256.685L158.968 255.865C158.968 258.195 157.876 260.235 156.118 261.76C154.369 263.28 151.797 264.065 148.627 262.235C145.588 260.48 143.431 257.325 142.002 254.24C141.422 252.985 140.928 251.72 140.469 250.485C139.785 251.47 139.032 252.415 138.157 253.19C136.468 254.655 133.965 255.46 130.778 253.62C127.583 251.775 125.123 248.035 123.478 244.655C122.577 242.795 121.824 240.94 121.122 239.125C120.533 239.935 119.927 240.705 119.226 241.32C117.736 242.64 115.666 243.205 112.938 241.63C110.228 240.065 108.149 237.155 106.66 234.125C105.958 232.71 105.343 231.235 104.763 229.75C104.053 230.76 103.291 231.74 102.39 232.55C100.745 234.02 98.2679 234.85 95.0982 233.02C91.8247 231.13 89.3738 227.265 87.7284 223.845C86.8364 222 86.0916 220.16 85.4074 218.415C84.8099 219.18 84.1777 219.925 83.4762 220.53C81.9347 221.85 79.8995 222.555 77.2581 221.03C74.7293 219.57 72.7028 216.89 71.17 213.925C70.3992 212.42 69.7064 210.82 69.0395 209.135C68.1475 210.28 67.1949 211.28 66.1643 212.035C64.4063 213.3 62.2412 214.05 59.418 212.42C56.2137 210.57 54.1872 206.91 52.4205 203.48C51.4506 201.6 50.5759 199.665 49.7965 197.825C49.2249 198.575 48.6013 199.295 47.9085 199.895C46.341 201.24 44.2626 201.98 41.5692 200.425C38.9192 198.895 36.7801 195.85 35.1606 192.695C34.5284 191.45 33.9569 190.17 33.4372 188.9C32.831 189.79 32.1469 190.645 31.3328 191.355C29.6007 192.865 27.0373 193.725 23.7291 191.815C20.2996 189.835 17.5457 185.905 15.5192 182.105C13.484 178.29 11.9685 174.475 11.9685 170.995L13.3974 171.82C13.4927 169.255 14.7831 167.32 16.5671 166.04C18.4204 164.7 20.9145 164.13 23.7291 165.755C26.4831 167.345 28.6481 170.515 30.2329 173.74C30.7959 174.875 31.3068 176.06 31.7745 177.22C32.4326 176.28 33.1948 175.39 34.0868 174.665Z" fill="white"/>
<path d="M148.627 242.905C152.429 245.1 154.707 250.025 154.707 253.405L156.127 254.225C156.127 254.915 155.339 257.13 153.927 258.355C152.507 259.585 150.619 260.025 148.627 258.875C146.497 257.645 145.414 255.99 144.28 253.535C143.65 252.167 143.074 250.6 142.461 248.933C142.342 248.607 142.221 248.278 142.097 247.945C142.132 247.895 142.158 247.84 142.193 247.8C142.638 247.099 143.038 246.404 143.41 245.757C144.095 244.566 144.684 243.541 145.284 242.955C146.211 242.06 146.748 241.82 148.627 242.905Z" fill="white"/>
<path d="M130.778 230.92C132.311 231.805 133.524 233.595 134.797 236.26C135.594 237.93 136.356 239.86 137.126 241.815L137.063 241.915C135.934 243.705 134.837 245.442 133.758 246.38C132.623 247.365 131.826 247.495 130.778 246.89C129.757 246.3 129.046 245.34 127.921 243.02C127.131 241.389 126.314 239.282 125.424 236.988C125.103 236.16 124.773 235.308 124.431 234.445C125.227 233.295 126.007 232.215 126.812 231.48C128.068 230.345 129.211 230.015 130.778 230.92Z" fill="white"/>
<path d="M112.938 222.3C114.229 223.045 114.852 223.935 115.918 226.1C116.636 227.569 117.375 229.484 118.204 231.635C118.594 232.647 119.004 233.711 119.442 234.805C119.448 234.815 119.454 234.829 119.457 234.841L119.458 234.846C119.459 234.849 119.46 234.853 119.46 234.855C118.628 236.065 117.849 237.195 117.017 237.925C115.814 238.99 114.705 239.29 112.938 238.27C111.163 237.245 110.055 235.695 108.859 233.265C108.028 231.595 107.249 229.555 106.409 227.34C106.426 227.32 106.443 227.29 106.461 227.27C106.84 226.739 107.199 226.21 107.543 225.704L107.545 225.701L107.545 225.7C108.424 224.407 109.2 223.264 109.959 222.61C111.007 221.695 111.622 221.54 112.938 222.3Z" fill="white"/>
<path d="M95.0982 210.32C96.6831 211.235 97.8262 212.865 99.0733 215.415C99.8874 217.075 100.667 219.055 101.472 221.16C101.169 221.587 100.875 222.014 100.589 222.429L100.588 222.43C99.6494 223.794 98.7944 225.036 97.9648 225.775C96.8563 226.775 96.1548 226.9 95.0982 226.29C94.1456 225.74 93.3402 224.645 92.1884 222.25C91.4224 220.661 90.6605 218.711 89.857 216.654C89.4978 215.735 89.1302 214.794 88.7503 213.855C89.5124 212.785 90.2658 211.73 91.0712 210.995C92.3443 209.81 93.5654 209.435 95.0982 210.32Z" fill="white"/>
<path d="M77.2581 201.7C78.2194 202.255 79.0335 203.335 80.1853 205.65C81.0116 207.32 81.8469 209.418 82.7273 211.629C83.0649 212.477 83.4091 213.342 83.762 214.205C82.9479 215.315 82.1338 216.385 81.2765 217.12C80.0034 218.225 78.7737 218.545 77.2581 217.67C75.6213 216.725 74.5301 215.305 73.3091 212.95C72.4517 211.285 71.603 209.175 70.7023 206.785C70.716 206.764 70.7288 206.744 70.7413 206.725C70.7684 206.683 70.7939 206.643 70.8236 206.605C72.1659 204.49 73.335 202.735 74.3829 201.91C75.4395 201.08 76.0543 201.005 77.2581 201.7Z" fill="white"/>
<path d="M59.418 189.72C60.388 190.28 61.6437 191.855 63.012 194.425C63.93 196.155 64.874 198.27 65.7919 200.56C64.5189 202.535 63.1766 204.2 61.9555 205.075C60.7257 205.975 59.7731 205.895 59.418 205.69C59.418 205.69 59.4093 205.679 59.3882 205.654C59.1825 205.409 57.9485 203.94 56.7073 201.545C55.417 199.03 54.1093 195.895 53.0874 193.305C53.8754 192.35 54.7415 191.4 55.6421 190.7C57.0971 189.55 58.6299 189.265 59.418 189.72Z" fill="white"/>
<path d="M41.5692 181.095C42.5218 181.645 43.4485 182.86 44.6176 185.215C45.5659 187.123 46.486 189.501 47.3962 191.853C47.6165 192.423 47.8363 192.991 48.0558 193.55C48.0644 193.57 48.0709 193.589 48.0774 193.608C48.0839 193.626 48.0904 193.645 48.0991 193.665C47.3543 194.725 46.5662 195.76 45.7175 196.49C44.4098 197.605 43.1021 197.95 41.5692 197.065C40.0104 196.165 38.6334 194.31 37.317 191.74C36.4597 190.075 35.6802 188.175 34.9874 186.275C35.0221 186.21 35.0589 186.144 35.0957 186.078C35.1325 186.011 35.1693 185.945 35.2039 185.88C36.1133 184.205 37.2218 182.475 38.3909 181.55C39.56 180.615 40.556 180.51 41.5692 181.095Z" fill="white"/>
<path d="M23.7291 169.115C25.3832 170.07 26.7342 171.96 28.0332 174.59C28.8213 176.195 29.5401 178.01 30.1896 179.815C30.1767 179.843 30.1615 179.871 30.1463 179.9C30.1312 179.929 30.116 179.958 30.103 179.985C29.1591 181.71 28.0852 183.55 26.9334 184.555C25.7816 185.57 24.8376 185.725 23.7291 185.085C22.7505 184.52 21.0444 182.485 19.7107 179.985C18.3857 177.5 17.6496 174.675 17.6496 174.275L16.2466 173.465C16.3852 172.265 17.2859 170.515 18.6628 169.52C20.1697 168.43 22.1356 168.195 23.7291 169.115Z" fill="white"/>
<path d="M26.9421 30V42.98L28.5615 43.915V62.985L28.0939 62.715C25.721 61.345 23.8157 62.505 23.8157 65.315V96.245L38.1398 104.515V73.585C38.1398 70.775 36.2345 67.415 33.8616 66.045L33.3939 65.775V46.705L35.0134 47.64V34.66L26.9421 30Z" fill="white"/>
<path d="M148.671 168.33V137.4C148.671 134.59 146.765 131.23 144.392 129.86L143.925 129.59V110.52L145.544 111.455V98.475L137.473 93.815V106.795L139.092 107.73V126.8L138.625 126.53C136.252 125.16 134.347 126.32 134.347 129.13V160.06L148.671 168.33Z" fill="white"/>
</svg>
