<svg width="274" height="354" viewBox="0 0 274 354" fill="none" xmlns="http://www.w3.org/2000/svg">
<path d="M51.9615 165.572V341.142L0 311.142V135.572L51.9615 165.572Z" fill="#8BC5E4"/>
<path d="M62.4229 347.322L263.194 231.407L211.232 201.407L10.4614 317.322L62.4229 347.322Z" fill="#8BC5E4"/>
<path d="M273.664 213.142V37.5724L221.702 7.57239V183.142L273.664 213.142Z" fill="#8BC5E4"/>
<path d="M263.194 31.4073L62.4229 147.322L10.4614 117.322L211.232 1.40735L263.194 31.4073Z" fill="#8BC5E4"/>
<path d="M62.4229 147.322L10.4614 117.322L62.4229 147.322Z" fill="#8BC5E4"/>
<path d="M62.4229 152.842L263.194 36.9274L211.232 6.92737L10.4614 122.842L62.4229 152.842Z" fill="#8BC5E4"/>
<path d="M268.935 40.3024V150.022L216.974 120.022V10.3024L268.935 40.3024Z" fill="#8BC5E4"/>
<path d="M263.194 150.867L246.956 160.242L194.994 130.242L211.232 120.867L263.194 150.867Z" fill="#8BC5E4"/>
<path d="M246.956 160.242V88.8024L194.994 58.8024V130.242L246.956 160.242Z" fill="#8BC5E4"/>
<path d="M265.749 40.3724L60.3619 158.742L8.40039 128.742L213.787 10.3724L265.749 40.3724Z" fill="#8BC5E4"/>
<path d="M73.257 184.997V260.527L21.2954 230.527V154.997L73.257 184.997Z" fill="#8BC5E4"/>
<path d="M73.2569 260.527L62.4229 266.782L10.4614 236.782L21.2953 230.527L73.2569 260.527Z" fill="#8BC5E4"/>
<path d="M56.69 272.562V162.842L4.72852 132.842V242.562L56.69 272.562Z" fill="#8BC5E4"/>
<path d="M62.4229 152.842L10.4614 122.842L62.4229 152.842Z" fill="#8BC5E4"/>
<path d="M114.921 182.322V236.472L62.96 206.472V152.322L114.921 182.322Z" fill="#8BC5E4"/>
<path d="M114.921 236.472L80.3065 256.457L28.345 226.457L62.96 206.472L114.921 236.472Z" fill="#8BC5E4"/>
<path d="M80.3065 256.457V186.237L28.345 156.237V226.457L80.3065 256.457Z" fill="#8BC5E4"/>
<path d="M80.3065 186.237L28.345 156.237L80.3065 186.237Z" fill="#8BC5E4"/>
<path d="M239.906 97.3524V164.312L187.945 134.312V67.3524L239.906 97.3524Z" fill="#8BC5E4"/>
<path d="M239.906 164.312L205.291 184.297L153.33 154.297L187.945 134.312L239.906 164.312Z" fill="#8BC5E4"/>
<path d="M205.291 184.297V131.107L153.33 101.107V154.297L205.291 184.297Z" fill="#8BC5E4"/>
<path d="M239.906 97.3524L187.945 67.3524L239.906 97.3524Z" fill="#8BC5E4"/>
<path d="M156.577 164.282V212.422L104.616 182.422V134.282L156.577 164.282Z" fill="#8BC5E4"/>
<path d="M156.577 212.422L121.971 232.402L70.0095 202.402L104.616 182.422L156.577 212.422Z" fill="#8BC5E4"/>
<path d="M121.971 232.402V180.052L70.0095 150.052V202.402L121.971 232.402Z" fill="#8BC5E4"/>
<path d="M121.971 180.052L70.0095 150.052L121.971 180.052Z" fill="#8BC5E4"/>
<path d="M198.242 136.757V188.367L146.28 158.367V106.757L198.242 136.757Z" fill="#8BC5E4"/>
<path d="M198.242 188.367L163.635 208.347L111.674 178.347L146.28 158.367L198.242 188.367Z" fill="#8BC5E4"/>
<path d="M163.635 208.347V160.257L111.674 130.257V178.347L163.635 208.347Z" fill="#8BC5E4"/>
<path d="M198.242 136.757L146.28 106.757L198.242 136.757Z" fill="#8BC5E4"/>
<path d="M259.894 194.022L258.101 195.057L206.14 165.057L207.933 164.022L259.894 194.022Z" fill="#8BC5E4"/>
<path d="M72.2611 302.352L74.0711 301.307L22.1096 271.307L20.2996 272.352L72.2611 302.352Z" fill="#8BC5E4"/>
<path d="M109.691 263.662L57.729 233.662L109.691 263.662Z" fill="#8BC5E4"/>
<path d="M77.6823 299.222L79.4489 298.202L27.4874 268.202L25.7207 269.222L77.6823 299.222Z" fill="#8BC5E4"/>
<path d="M87.1307 282.967L35.1692 252.967L87.1307 282.967Z" fill="#8BC5E4"/>
<path d="M132.242 256.922L80.2805 226.922L132.242 256.922Z" fill="#8BC5E4"/>
<path d="M177.353 230.877L125.392 200.877L177.353 230.877Z" fill="#8BC5E4"/>
<path d="M222.464 204.832L170.503 174.832L222.464 204.832Z" fill="#8BC5E4"/>
<path d="M109.691 272.042L57.729 242.042L109.691 272.042Z" fill="#8BC5E4"/>
<path d="M154.802 245.997L102.84 215.997L154.802 245.997Z" fill="#8BC5E4"/>
<path d="M199.913 219.952L147.952 189.952L199.913 219.952Z" fill="#8BC5E4"/>
<path d="M254.507 197.132L252.706 198.172L200.745 168.172L202.546 167.132L254.507 197.132Z" fill="#8BC5E4"/>
<path d="M245.024 193.907L193.063 163.907L245.024 193.907Z" fill="#8BC5E4"/>
<path d="M198.242 136.757V188.367L146.28 158.367V106.757L198.242 136.757Z" fill="#8BC5E4"/>
<path d="M198.242 188.367L163.635 208.347L111.674 178.347L146.28 158.367L198.242 188.367Z" fill="#8BC5E4"/>
<path d="M163.635 208.347V160.257L111.674 130.257V178.347L163.635 208.347Z" fill="#8BC5E4"/>
<path d="M198.242 136.757L146.28 106.757L198.242 136.757Z" fill="#8BC5E4"/>
<path d="M62.4229 152.842L263.194 36.9274L211.232 6.92737L10.4614 122.842L62.4229 152.842Z" fill="#8BC5E4"/>
<path d="M268.935 40.3024V150.022L216.974 120.022V10.3024L268.935 40.3024Z" fill="#8BC5E4"/>
<path d="M263.194 150.867L246.956 160.242L194.994 130.242L211.232 120.867L263.194 150.867Z" fill="#8BC5E4"/>
<path d="M246.956 160.242V88.8024L194.994 58.8024V130.242L246.956 160.242Z" fill="#8BC5E4"/>
<path d="M265.749 40.3724L60.3619 158.742L8.40039 128.742L213.787 10.3724L265.749 40.3724Z" fill="#8BC5E4"/>
<path d="M73.257 184.997V260.527L21.2954 230.527V154.997L73.257 184.997Z" fill="#8BC5E4"/>
<path d="M73.2569 260.527L62.4229 266.782L10.4614 236.782L21.2953 230.527L73.2569 260.527Z" fill="#8BC5E4"/>
<path d="M56.69 272.562V162.842L4.72852 132.842V242.562L56.69 272.562Z" fill="#8BC5E4"/>
<path d="M62.4229 152.842L10.4614 122.842L62.4229 152.842Z" fill="#8BC5E4"/>
<path d="M114.921 182.322V236.472L62.96 206.472V152.322L114.921 182.322Z" fill="#8BC5E4"/>
<path d="M114.921 236.472L80.3065 256.457L28.345 226.457L62.96 206.472L114.921 236.472Z" fill="#8BC5E4"/>
<path d="M80.3065 256.457V186.237L28.345 156.237V226.457L80.3065 256.457Z" fill="#8BC5E4"/>
<path d="M80.3065 186.237L28.345 156.237L80.3065 186.237Z" fill="#8BC5E4"/>
<path d="M156.577 164.282V212.422L104.616 182.422V134.282L156.577 164.282Z" fill="#8BC5E4"/>
<path d="M156.577 212.422L121.971 232.402L70.0095 202.402L104.616 182.422L156.577 212.422Z" fill="#8BC5E4"/>
<path d="M121.971 232.402V180.052L70.0095 150.052V202.402L121.971 232.402Z" fill="#8BC5E4"/>
<path d="M121.971 180.052L70.0095 150.052L121.971 180.052Z" fill="#8BC5E4"/>
<path d="M239.906 97.3524V164.312L187.945 134.312V67.3524L239.906 97.3524Z" fill="#8BC5E4"/>
<path d="M239.906 164.312L205.291 184.297L153.33 154.297L187.945 134.312L239.906 164.312Z" fill="#8BC5E4"/>
<path d="M205.291 184.297V131.107L153.33 101.107V154.297L205.291 184.297Z" fill="#8BC5E4"/>
<path d="M239.906 97.3524L187.945 67.3524L239.906 97.3524Z" fill="#8BC5E4"/>
<path d="M259.894 194.022L258.101 195.057L206.14 165.057L207.933 164.022L259.894 194.022Z" fill="#8BC5E4"/>
<path d="M72.2611 302.352L74.0711 301.307L22.1096 271.307L20.2996 272.352L72.2611 302.352Z" fill="#8BC5E4"/>
<path d="M109.691 263.662L57.729 233.662L109.691 263.662Z" fill="#8BC5E4"/>
<path d="M79.4489 298.202L77.6823 299.222L25.7207 269.222L27.4874 268.202L79.4489 298.202Z" fill="#8BC5E4"/>
<path d="M80.7309 290.802L28.7693 260.802L80.7309 290.802Z" fill="#8BC5E4"/>
<path d="M127.47 263.617L75.5085 233.617L127.47 263.617Z" fill="#8BC5E4"/>
<path d="M172.261 237.557L120.3 207.557L172.261 237.557Z" fill="#8BC5E4"/>
<path d="M230.484 209.212L230.389 209.468L178.428 179.468L178.522 179.212L230.484 209.212Z" fill="#8BC5E4"/>
<path d="M217.45 211.277L165.489 181.277L217.45 211.277Z" fill="#8BC5E4"/>
<path d="M105.672 277.202L53.7109 247.202L105.672 277.202Z" fill="#8BC5E4"/>
<path d="M151.173 250.412L99.2117 220.412L151.173 250.412Z" fill="#8BC5E4"/>
<path d="M196.137 224.652L144.176 194.652L196.137 224.652Z" fill="#8BC5E4"/>
<path d="M252.706 198.172L254.507 197.132L202.546 167.132L200.745 168.172L252.706 198.172Z" fill="#8BC5E4"/>
<path d="M240.807 198.802L188.845 168.802L240.807 198.802Z" fill="#8BC5E4"/>
<path d="M62.4231 147.322C56.6727 150.642 51.9615 158.852 51.9615 165.572L0 135.572C0 128.852 4.7112 120.642 10.4616 117.322L62.4231 147.322Z" fill="#8BC5E4"/>
<path d="M51.9615 341.142C51.9615 344.561 53.1815 346.96 55.1365 348.055L3.175 318.055C1.22 316.96 0 314.561 0 311.142L51.9615 341.142Z" fill="#8BC5E4"/>
<path d="M55.1334 348.053C57.0204 349.111 59.5924 348.954 62.4144 347.327L10.4529 317.327C7.63088 318.954 5.05887 319.111 3.17188 318.053L55.1334 348.053Z" fill="#8BC5E4"/>
<path d="M263.194 231.407C268.953 228.082 273.664 219.862 273.664 213.142L221.702 183.142C221.702 189.862 216.991 198.082 211.232 201.407L263.194 231.407Z" fill="#8BC5E4"/>
<path d="M273.664 37.5724C273.664 34.2324 272.499 31.8674 270.621 30.7424L218.66 0.742371C220.538 1.86737 221.703 4.23237 221.702 7.57237L273.664 37.5724Z" fill="#8BC5E4"/>
<path d="M270.613 30.7373C268.715 29.6063 266.091 29.7373 263.202 31.4023L211.241 1.40234C214.13 -0.262656 216.754 -0.393656 218.652 0.737344L270.613 30.7373Z" fill="#8BC5E4"/>
<path d="M263.194 36.9274C264.817 35.9904 266.262 35.8994 267.296 36.5214L215.335 6.52136C214.301 5.89936 212.856 5.99036 211.232 6.92736L263.194 36.9274Z" fill="#8BC5E4"/>
<path d="M267.295 36.5214C268.313 37.1324 268.934 38.4334 268.935 40.2964L216.974 10.2964C216.973 8.43336 216.352 7.13236 215.334 6.52136L267.295 36.5214Z" fill="#8BC5E4"/>
<path d="M268.935 150.022C268.647 149.795 268.389 149.614 268.146 149.476L216.185 119.476C216.428 119.614 216.686 119.795 216.974 120.022L268.935 150.022Z" fill="#8BC5E4"/>
<path d="M268.146 149.476C266.795 148.71 265.925 149.29 263.198 150.864L211.237 120.864C213.964 119.29 214.834 118.71 216.185 119.476L268.146 149.476Z" fill="#8BC5E4"/>
<path d="M246.956 88.8024C259.79 72.1824 265.748 57.3624 265.748 40.3724L213.787 10.3724C213.787 27.3624 207.829 42.1824 194.994 58.8024L246.956 88.8024Z" fill="#8BC5E4"/>
<path d="M60.3619 158.742C60.3615 173.819 64.1745 180.359 69.4645 183.406L17.503 153.406C12.213 150.359 8.39999 143.819 8.40039 128.742L60.3619 158.742Z" fill="#8BC5E4"/>
<path d="M69.4793 183.414C70.6703 184.099 71.9373 184.607 73.2513 184.995L21.2898 154.995C19.9758 154.607 18.7088 154.099 17.5178 153.414L69.4793 183.414Z" fill="#8BC5E4"/>
<path d="M62.4231 266.782C59.2101 268.637 58.1016 269.587 56.69 272.562L4.72852 242.562C6.14012 239.587 7.24862 238.637 10.4616 236.782L62.4231 266.782Z" fill="#8BC5E4"/>
<path d="M56.69 162.842C56.69 159.082 59.2101 154.697 62.4231 152.842L10.4616 122.842C7.24862 124.697 4.72852 129.082 4.72852 132.842L56.69 162.842Z" fill="#8BC5E4"/>
<path d="M80.3065 186.237C81.8394 186.402 83.3809 186.552 84.8791 186.737L32.9176 156.737C31.4194 156.552 29.8779 156.402 28.345 156.237L80.3065 186.237Z" fill="#8BC5E4"/>
<path d="M84.879 186.737C93.9463 187.162 104.157 185.507 114.921 182.322L62.9599 152.322C52.1952 155.507 41.9848 157.162 32.9175 156.737L84.879 186.737Z" fill="#8BC5E4"/>
<path d="M205.291 131.107C208.53 128.437 211.648 125.747 214.592 123.087L162.631 93.0873C159.686 95.7473 156.569 98.4373 153.33 101.107L205.291 131.107Z" fill="#8BC5E4"/>
<path d="M214.592 123.087C224.56 113.732 232.969 105.287 239.906 97.3524L187.945 67.3524C181.008 75.2874 172.599 83.7324 162.631 93.0874L214.592 123.087Z" fill="#8BC5E4"/>
<path d="M121.971 180.052C133.264 176.112 145.016 170.667 156.577 164.282L104.616 134.282C93.0544 140.667 81.3024 146.112 70.0095 150.052L121.971 180.052Z" fill="#8BC5E4"/>
<path d="M163.635 160.257C175.786 153.112 187.572 145.047 198.242 136.757L146.28 106.757C135.611 115.047 123.824 123.112 111.674 130.257L163.635 160.257Z" fill="#8BC5E4"/>
<path d="M109.691 263.662C113.039 261.729 115.721 262.118 117.757 263.291L65.7958 233.291C63.7598 232.118 61.0778 231.729 57.729 233.662L109.691 263.662Z" fill="#8BC5E4"/>
<path d="M117.766 263.296C118.236 263.568 118.671 263.881 119.072 264.217L67.1109 234.217C66.7099 233.881 66.2749 233.568 65.8049 233.296L117.766 263.296Z" fill="#8BC5E4"/>
<path d="M119.079 264.222C120.308 265.242 121.33 266.512 122.231 267.732L70.2693 237.732C69.3686 236.512 68.3467 235.242 67.1169 234.222L119.079 264.222Z" fill="#8BC5E4"/>
<path d="M122.231 267.732C123.019 265.957 123.859 264.172 124.76 262.442L72.7981 232.442C71.8974 234.172 71.0574 235.957 70.2693 237.732L122.231 267.732Z" fill="#8BC5E4"/>
<path d="M124.76 262.442C126.864 258.387 129.211 254.482 132.242 252.732L80.2805 222.732C77.2494 224.482 74.9025 228.387 72.7981 232.442L124.76 262.442Z" fill="#8BC5E4"/>
<path d="M132.242 252.732C134.69 251.319 136.8 251.64 138.664 252.717L86.702 222.717C84.838 221.64 82.728 221.319 80.2805 222.732L132.242 252.732Z" fill="#8BC5E4"/>
<path d="M138.67 252.721C138.932 252.873 139.189 253.039 139.441 253.218L87.48 223.218C87.228 223.039 86.971 222.873 86.709 222.721L138.67 252.721Z" fill="#8BC5E4"/>
<path d="M139.447 253.222C139.509 253.265 139.571 253.31 139.633 253.355L87.6719 223.355C87.6099 223.31 87.5479 223.265 87.4858 223.222L139.447 253.222Z" fill="#8BC5E4"/>
<path d="M139.633 253.355C140.559 254.031 141.44 254.894 142.291 255.881L90.3299 225.881C89.4789 224.894 88.5979 224.031 87.6719 223.355L139.633 253.355Z" fill="#8BC5E4"/>
<path d="M142.296 255.887C143.336 253.197 144.427 250.577 145.752 248.042L93.7904 218.042C92.4654 220.577 91.3742 223.197 90.335 225.887L142.296 255.887Z" fill="#8BC5E4"/>
<path d="M145.752 248.042C147.9 243.932 151.052 239.782 154.802 237.617L102.841 207.617C99.0906 209.782 95.9383 213.932 93.7905 218.042L145.752 248.042Z" fill="#8BC5E4"/>
<path d="M154.802 237.617C158.08 235.724 160.732 236.085 162.74 237.23L110.779 207.23C108.771 206.085 106.119 205.724 102.84 207.617L154.802 237.617Z" fill="#8BC5E4"/>
<path d="M162.749 237.235C163.212 237.5 163.642 237.807 164.036 238.137L112.075 208.137C111.681 207.807 111.251 207.5 110.788 207.235L162.749 237.235Z" fill="#8BC5E4"/>
<path d="M164.042 238.142C165.263 239.157 166.294 240.422 167.221 241.657L115.259 211.657C114.332 210.422 113.302 209.157 112.081 208.142L164.042 238.142Z" fill="#8BC5E4"/>
<path d="M167.221 241.657C167.905 239.962 168.632 238.252 169.446 236.582L117.485 206.582C116.671 208.252 115.943 209.962 115.259 211.657L167.221 241.657Z" fill="#8BC5E4"/>
<path d="M169.446 236.582C171.369 232.632 173.95 228.652 177.353 226.687L125.392 196.687C121.988 198.652 119.407 202.632 117.485 206.582L169.446 236.582Z" fill="#8BC5E4"/>
<path d="M177.353 226.687C180.062 225.123 182.26 225.345 184.019 226.375L132.058 196.375C130.299 195.345 128.101 195.123 125.392 196.687L177.353 226.687Z" fill="#8BC5E4"/>
<path d="M184.014 226.372C184.425 226.612 184.812 226.896 185.176 227.212L133.215 197.212C132.851 196.896 132.464 196.612 132.053 196.372L184.014 226.372Z" fill="#8BC5E4"/>
<path d="M185.182 227.217C186.014 227.947 186.758 228.837 187.477 229.782L135.516 199.782C134.797 198.837 134.052 197.947 133.221 197.217L185.182 227.217Z" fill="#8BC5E4"/>
<path d="M187.477 229.782C188.387 227.417 189.374 224.987 190.578 222.562L138.616 192.562C137.412 194.987 136.425 197.417 135.516 199.782L187.477 229.782Z" fill="#8BC5E4"/>
<path d="M190.577 222.562C192.656 218.402 195.886 213.897 199.913 211.572L147.952 181.572C143.925 183.897 140.694 188.402 138.616 192.562L190.577 222.562Z" fill="#8BC5E4"/>
<path d="M199.913 211.572C203.292 209.621 206.084 209.892 208.119 211.06L156.158 181.06C154.123 179.892 151.331 179.621 147.952 181.572L199.913 211.572Z" fill="#8BC5E4"/>
<path d="M208.113 211.057C208.523 211.292 208.903 211.564 209.251 211.862L157.29 181.862C156.942 181.564 156.562 181.292 156.152 181.057L208.113 211.057Z" fill="#8BC5E4"/>
<path d="M209.258 211.867C210.461 212.912 211.44 214.207 212.349 215.502L160.388 185.502C159.479 184.207 158.5 182.912 157.296 181.867L209.258 211.867Z" fill="#8BC5E4"/>
<path d="M212.349 215.502C213.068 213.737 213.813 211.977 214.644 210.287L162.683 180.287C161.852 181.977 161.107 183.737 160.388 185.502L212.349 215.502Z" fill="#8BC5E4"/>
<path d="M214.644 210.287C216.55 206.397 219.113 202.577 222.465 200.642L170.503 170.642C167.151 172.577 164.588 176.397 162.683 180.287L214.644 210.287Z" fill="#8BC5E4"/>
<path d="M222.464 200.642C225.09 199.126 227.21 199.381 228.924 200.372L176.963 170.372C175.249 169.381 173.129 169.126 170.503 170.642L222.464 200.642Z" fill="#8BC5E4"/>
<path d="M228.92 200.369C229.438 200.669 229.919 201.036 230.366 201.442L178.404 171.442C177.957 171.036 177.476 170.669 176.958 170.369L228.92 200.369Z" fill="#8BC5E4"/>
<path d="M230.371 201.447C231.108 202.112 231.774 202.897 232.415 203.707L180.454 173.707C179.813 172.897 179.146 172.112 178.41 171.447L230.371 201.447Z" fill="#8BC5E4"/>
<path d="M232.415 203.707C233.16 201.567 234 199.322 235.1 197.007L183.138 167.007C182.038 169.322 181.198 171.567 180.454 173.707L232.415 203.707Z" fill="#8BC5E4"/>
<path d="M235.1 197.007C237.144 192.717 240.634 188.062 245.025 185.527L193.063 155.527C188.672 158.062 185.182 162.717 183.138 167.007L235.1 197.007Z" fill="#8BC5E4"/>
<path d="M245.024 185.527C249.253 183.086 252.879 182.954 255.492 184.466L203.531 154.466C200.918 152.954 197.292 153.086 193.063 155.527L245.024 185.527Z" fill="#8BC5E4"/>
<path d="M255.49 184.465C258.261 186.066 259.892 189.515 259.894 194.016L207.933 164.016C207.931 159.515 206.3 156.066 203.529 154.465L255.49 184.465Z" fill="#8BC5E4"/>
<path d="M258.101 195.057C258.101 197.967 256.716 202.097 254.499 206.527L202.537 176.527C204.754 172.097 206.14 167.967 206.14 165.057L258.101 195.057Z" fill="#8BC5E4"/>
<path d="M254.499 206.527C252.282 210.957 249.034 215.672 245.024 217.987L193.063 187.987C197.073 185.672 200.32 180.957 202.537 176.527L254.499 206.527Z" fill="#8BC5E4"/>
<path d="M245.024 217.987C242.005 219.73 239.68 219.599 237.944 218.603L185.983 188.603C187.719 189.599 190.044 189.73 193.063 187.987L245.024 217.987Z" fill="#8BC5E4"/>
<path d="M237.949 218.606C237.475 218.334 237.044 217.998 236.655 217.617L184.694 187.617C185.083 187.998 185.514 188.334 185.988 188.606L237.949 218.606Z" fill="#8BC5E4"/>
<path d="M236.65 217.612C235.922 216.892 235.299 216.042 234.71 215.172L182.749 185.172C183.337 186.042 183.961 186.892 184.688 187.612L236.65 217.612Z" fill="#8BC5E4"/>
<path d="M234.71 215.172C233.853 217.377 232.9 219.647 231.783 221.882L179.822 191.882C180.939 189.647 181.891 187.377 182.749 185.172L234.71 215.172Z" fill="#8BC5E4"/>
<path d="M231.783 221.882C229.652 226.162 226.491 230.777 222.464 233.102L170.503 203.102C174.53 200.777 177.691 196.162 179.821 191.882L231.783 221.882Z" fill="#8BC5E4"/>
<path d="M222.465 233.102C219.232 234.968 216.589 234.647 214.597 233.505L162.636 203.505C164.628 204.647 167.271 204.968 170.503 203.102L222.465 233.102Z" fill="#8BC5E4"/>
<path d="M214.603 233.509C214.107 233.225 213.652 232.891 213.238 232.527L161.277 202.527C161.691 202.891 162.146 203.225 162.642 203.509L214.603 233.509Z" fill="#8BC5E4"/>
<path d="M213.233 232.522C212.098 231.517 211.145 230.287 210.253 229.052L158.292 199.052C159.184 200.287 160.137 201.517 161.271 202.522L213.233 232.522Z" fill="#8BC5E4"/>
<path d="M210.254 229.052C209.517 230.907 208.738 232.747 207.863 234.522L155.902 204.522C156.777 202.747 157.556 200.907 158.292 199.052L210.254 229.052Z" fill="#8BC5E4"/>
<path d="M207.863 234.522C205.975 238.332 203.36 242.042 199.913 244.032L147.952 214.032C151.398 212.042 154.014 208.332 155.902 204.522L207.863 234.522Z" fill="#8BC5E4"/>
<path d="M199.913 244.032C197.066 245.676 194.783 245.526 193.01 244.512L141.049 214.512C142.822 215.526 145.105 215.676 147.952 214.032L199.913 244.032Z" fill="#8BC5E4"/>
<path d="M193.015 244.515C192.647 244.305 192.301 244.058 191.977 243.782L140.016 213.782C140.34 214.058 140.686 214.305 141.054 214.515L193.015 244.515Z" fill="#8BC5E4"/>
<path d="M191.972 243.777C191.088 243.027 190.309 242.087 189.573 241.072L137.611 211.072C138.347 212.087 139.127 213.027 140.01 213.777L191.972 243.777Z" fill="#8BC5E4"/>
<path d="M189.573 241.072C188.681 243.357 187.72 245.692 186.576 248.002L134.615 218.002C135.758 215.692 136.719 213.357 137.611 211.072L189.573 241.072Z" fill="#8BC5E4"/>
<path d="M186.576 248.002C184.489 252.227 181.363 256.832 177.353 259.147L125.392 229.147C129.401 226.832 132.528 222.227 134.615 218.002L186.576 248.002Z" fill="#8BC5E4"/>
<path d="M177.353 259.147C174.136 261.005 171.546 260.657 169.576 259.532L117.614 229.532C119.584 230.657 122.174 231.005 125.392 229.147L177.353 259.147Z" fill="#8BC5E4"/>
<path d="M169.58 259.535C169.016 259.213 168.503 258.828 168.04 258.412L116.079 228.412C116.542 228.828 117.055 229.213 117.619 229.535L169.58 259.535Z" fill="#8BC5E4"/>
<path d="M168.035 258.407C166.909 257.397 165.965 256.192 165.108 255.007L113.146 225.007C114.004 226.192 114.948 227.397 116.073 228.407L168.035 258.407Z" fill="#8BC5E4"/>
<path d="M165.108 255.007C164.354 256.822 163.549 258.667 162.657 260.442L110.695 230.442C111.587 228.667 112.393 226.822 113.146 225.007L165.108 255.007Z" fill="#8BC5E4"/>
<path d="M162.657 260.442C160.717 264.312 158.145 268.147 154.802 270.077L102.84 240.077C106.183 238.147 108.755 234.312 110.695 230.442L162.657 260.442Z" fill="#8BC5E4"/>
<path d="M154.802 270.077C152.013 271.687 149.702 271.582 147.868 270.539L95.907 240.539C97.741 241.582 100.052 241.687 102.84 240.077L154.802 270.077Z" fill="#8BC5E4"/>
<path d="M147.862 270.535C147.605 270.388 147.357 270.223 147.118 270.041L95.156 240.041C95.395 240.223 95.643 240.388 95.9 240.535L147.862 270.535Z" fill="#8BC5E4"/>
<path d="M147.112 270.037C147.051 269.99 146.99 269.943 146.93 269.894L94.968 239.894C95.028 239.943 95.089 239.99 95.1502 240.037L147.112 270.037Z" fill="#8BC5E4"/>
<path d="M146.93 269.894C146.024 269.167 145.206 268.226 144.419 267.162L92.457 237.162C93.244 238.226 94.062 239.167 94.968 239.894L146.93 269.894Z" fill="#8BC5E4"/>
<path d="M144.418 267.162C143.284 269.877 142.089 272.497 140.772 274.947L88.8108 244.947C90.1271 242.497 91.3223 239.877 92.4567 237.162L144.418 267.162Z" fill="#8BC5E4"/>
<path d="M140.772 274.947C138.555 279.077 135.819 283.127 132.242 285.192L80.2805 255.192C83.8572 253.127 86.5939 249.077 88.8109 244.947L140.772 274.947Z" fill="#8BC5E4"/>
<path d="M132.242 285.192C129.2 286.948 126.997 286.467 125.14 285.394L73.179 255.394C75.036 256.467 77.239 256.948 80.2805 255.192L132.242 285.192Z" fill="#8BC5E4"/>
<path d="M125.146 285.397C124.534 285.044 123.96 284.626 123.406 284.202L71.4448 254.202C71.9988 254.626 72.5728 255.044 73.1848 255.397L125.146 285.397Z" fill="#8BC5E4"/>
<path d="M123.4 284.197C123.328 284.142 123.257 284.087 123.186 284.031L71.2249 254.031C71.2959 254.087 71.3669 254.142 71.4383 254.197L123.4 284.197Z" fill="#8BC5E4"/>
<path d="M123.172 284.02C122.043 283.122 121.012 282.054 120.088 280.969L68.127 250.969C69.051 252.054 70.082 253.122 71.211 254.02L123.172 284.02Z" fill="#8BC5E4"/>
<path d="M120.083 280.962C119.364 282.717 118.576 284.522 117.701 286.277L65.74 256.277C66.6147 254.522 67.4027 252.717 68.1215 250.962L120.083 280.962Z" fill="#8BC5E4"/>
<path d="M117.701 286.277C115.718 290.212 113.085 294.162 109.691 296.122L57.729 266.122C61.1239 264.162 63.7566 260.212 65.7398 256.277L117.701 286.277Z" fill="#8BC5E4"/>
<path d="M109.691 296.122C106.817 297.782 104.424 297.502 102.513 296.397L50.551 266.397C52.462 267.502 54.855 267.782 57.7292 266.122L109.691 296.122Z" fill="#8BC5E4"/>
<path d="M102.517 296.401C102.194 296.214 101.885 296.005 101.59 295.777L49.6289 265.777C49.9239 266.005 50.2329 266.214 50.5559 266.401L102.517 296.401Z" fill="#8BC5E4"/>
<path d="M101.585 295.772C101.534 295.733 101.484 295.693 101.434 295.653L49.4729 265.653C49.5229 265.693 49.5729 265.733 49.6231 265.772L101.585 295.772Z" fill="#8BC5E4"/>
<path d="M101.434 295.653C100.691 295.052 100.022 294.333 99.4063 293.547L47.4448 263.547C48.0608 264.333 48.7298 265.052 49.4728 265.653L101.434 295.653Z" fill="#8BC5E4"/>
<path d="M99.4023 293.542C98.6402 295.532 97.7741 297.592 96.7436 299.657L44.782 269.657C45.8126 267.592 46.6786 265.532 47.4407 263.542L99.4023 293.542Z" fill="#8BC5E4"/>
<path d="M96.7436 299.657C94.5612 304.047 91.3136 308.822 87.1307 311.237L35.1692 281.237C39.3521 278.822 42.5997 274.047 44.782 269.657L96.7436 299.657Z" fill="#8BC5E4"/>
<path d="M87.1307 311.237C83.2494 313.478 80.0614 312.998 77.5904 311.58L25.6289 281.58C28.0999 282.998 31.2879 283.478 35.1692 281.237L87.1307 311.237Z" fill="#8BC5E4"/>
<path d="M77.5825 311.575C77.2965 311.41 77.0205 311.234 76.7545 311.047L24.793 281.047C25.059 281.234 25.335 281.41 25.621 281.575L77.5825 311.575Z" fill="#8BC5E4"/>
<path d="M76.747 311.042C76.5764 310.922 76.4094 310.8 76.2454 310.673L24.2839 280.673C24.4479 280.8 24.6149 280.922 24.7855 281.042L76.747 311.042Z" fill="#8BC5E4"/>
<path d="M76.2453 310.673C73.9373 308.897 72.2633 306.406 72.2613 302.358L20.2998 272.358C20.3018 276.406 21.9758 278.897 24.2838 280.673L76.2453 310.673Z" fill="#8BC5E4"/>
<path d="M74.0711 301.307C74.201 297.972 75.8292 293.692 78.0808 289.512L26.1193 259.512C23.8676 263.692 22.2395 267.972 22.1096 271.307L74.0711 301.307Z" fill="#8BC5E4"/>
<path d="M78.0806 289.512C80.4189 285.162 83.5712 280.832 87.1306 278.777L35.1691 248.777C31.6097 250.832 28.4574 255.162 26.1191 259.512L78.0806 289.512Z" fill="#8BC5E4"/>
<path d="M87.1307 278.777C89.9934 277.124 92.3434 277.382 94.2054 278.472L42.2439 248.472C40.3819 247.382 38.0319 247.124 35.1692 248.777L87.1307 278.777Z" fill="#8BC5E4"/>
<path d="M94.1995 278.469C94.6075 278.707 94.9915 278.985 95.3525 279.292L43.391 249.292C43.03 248.985 42.646 248.707 42.238 248.469L94.1995 278.469Z" fill="#8BC5E4"/>
<path d="M95.358 279.297C96.0682 279.907 96.709 280.637 97.2979 281.407L45.3364 251.407C44.7475 250.637 44.1067 249.907 43.3965 249.297L95.358 279.297Z" fill="#8BC5E4"/>
<path d="M97.2979 281.407C98.138 279.272 99.0993 277.057 100.225 274.877L48.2636 244.877C47.1377 247.057 46.1764 249.272 45.3364 251.407L97.2979 281.407Z" fill="#8BC5E4"/>
<path d="M100.225 274.877C102.459 270.577 105.646 265.997 109.691 263.662L57.729 233.662C53.6847 235.997 50.4977 240.577 48.2634 244.877L100.225 274.877Z" fill="#8BC5E4"/>
<path d="M87.1308 282.967C85.1216 284.127 82.6361 287.272 80.7309 290.802L28.7693 260.802C30.6746 257.272 33.1601 254.127 35.1693 252.967L87.1308 282.967Z" fill="#8BC5E4"/>
<path d="M80.7307 290.802C78.9813 294.052 77.8468 297.537 77.6823 299.222L25.7207 269.222C25.8853 267.537 27.0198 264.052 28.7691 260.802L80.7307 290.802Z" fill="#8BC5E4"/>
<path d="M79.449 298.202C79.4494 298.687 80.2874 300.923 81.8154 302.155L29.8539 272.155C28.3259 270.923 27.4879 268.687 27.4875 268.202L79.449 298.202Z" fill="#8BC5E4"/>
<path d="M81.8194 302.16C81.8944 302.22 81.9714 302.279 82.0504 302.334L30.0889 272.334C30.0099 272.279 29.9329 272.22 29.8579 272.16L81.8194 302.16Z" fill="#8BC5E4"/>
<path d="M82.0557 302.337C82.1873 302.429 82.3213 302.515 82.4573 302.593L30.4958 272.593C30.3598 272.515 30.2258 272.429 30.0942 272.337L82.0557 302.337Z" fill="#8BC5E4"/>
<path d="M82.4573 302.593C84.0643 303.52 85.9883 303.522 87.1233 302.871L35.1618 272.871C34.0268 273.522 32.1028 273.52 30.4958 272.593L82.4573 302.593Z" fill="#8BC5E4"/>
<path d="M87.1307 302.867C88.5337 302.057 89.7201 300.492 91.1837 297.567L39.2222 267.567C37.7586 270.492 36.5721 272.057 35.1692 272.867L87.1307 302.867Z" fill="#8BC5E4"/>
<path d="M91.1837 297.567C92.6386 294.637 93.9983 290.792 95.1847 287.277L43.2232 257.277C42.0367 260.792 40.6771 264.637 39.2222 267.567L91.1837 297.567Z" fill="#8BC5E4"/>
<path d="M95.1846 287.277C95.2193 287.167 95.2626 287.052 95.2972 286.942L43.3357 256.942C43.301 257.052 43.2577 257.167 43.2231 257.277L95.1846 287.277Z" fill="#8BC5E4"/>
<path d="M95.2974 286.942C94.4747 285.627 93.574 284.407 92.5694 283.557L40.6079 253.557C41.6125 254.407 42.5132 255.627 43.3359 256.942L95.2974 286.942Z" fill="#8BC5E4"/>
<path d="M92.5693 283.557C92.2364 283.272 91.9014 283.028 91.5604 282.831L39.5989 252.831C39.9399 253.028 40.2749 253.272 40.6078 253.557L92.5693 283.557Z" fill="#8BC5E4"/>
<path d="M91.5613 282.831C90.2253 282.059 88.8043 282.003 87.1363 282.963L35.1748 252.963C36.8428 252.003 38.2638 252.059 39.5998 252.831L91.5613 282.831Z" fill="#8BC5E4"/>
<path d="M132.242 256.922C131.255 257.492 129.323 260.057 127.47 263.617L75.5085 233.617C77.3618 230.057 79.2931 227.492 80.2803 226.922L132.242 256.922Z" fill="#8BC5E4"/>
<path d="M127.47 263.617C126.344 265.787 125.236 268.227 124.249 270.567L72.2871 240.567C73.2744 238.227 74.3829 235.787 75.5087 233.617L127.47 263.617Z" fill="#8BC5E4"/>
<path d="M124.249 270.567C125.446 272.191 126.974 274.051 128.504 275.312L76.542 245.312C75.012 244.051 73.484 242.191 72.2871 240.567L124.249 270.567Z" fill="#8BC5E4"/>
<path d="M128.508 275.316C128.614 275.403 128.72 275.487 128.825 275.568L76.8639 245.568C76.7589 245.487 76.6529 245.403 76.5469 245.316L128.508 275.316Z" fill="#8BC5E4"/>
<path d="M128.83 275.572C129.058 275.747 129.286 275.898 129.51 276.027L77.548 246.027C77.324 245.898 77.096 245.747 76.8684 245.572L128.83 275.572Z" fill="#8BC5E4"/>
<path d="M129.509 276.027C130.973 276.87 132.272 276.805 132.242 276.822L80.2809 246.822C80.3109 246.805 79.0119 246.87 77.5479 246.027L129.509 276.027Z" fill="#8BC5E4"/>
<path d="M132.242 276.822C132.692 276.562 133.896 275.277 135.464 272.372L83.5021 242.372C81.9346 245.277 80.7309 246.562 80.2805 246.822L132.242 276.822Z" fill="#8BC5E4"/>
<path d="M135.464 272.372C136.996 269.507 138.694 265.497 140.305 261.187L88.3431 231.187C86.7323 235.497 85.0349 239.507 83.502 242.372L135.464 272.372Z" fill="#8BC5E4"/>
<path d="M140.305 261.187C139.225 259.774 138.124 258.573 137.035 257.748L85.074 227.748C86.163 228.573 87.264 229.774 88.3432 231.187L140.305 261.187Z" fill="#8BC5E4"/>
<path d="M137.028 257.742C136.95 257.684 136.872 257.627 136.795 257.572L84.834 227.572C84.911 227.627 84.989 227.684 85.067 227.742L137.028 257.742Z" fill="#8BC5E4"/>
<path d="M136.789 257.567C136.593 257.429 136.399 257.306 136.208 257.195L84.2468 227.195C84.4378 227.306 84.6318 227.429 84.827 227.567L136.789 257.567Z" fill="#8BC5E4"/>
<path d="M136.209 257.196C134.712 256.333 133.339 256.293 132.249 256.918L80.2878 226.918C81.3778 226.293 82.7508 226.333 84.2478 227.196L136.209 257.196Z" fill="#8BC5E4"/>
<path d="M177.353 230.877C175.422 231.992 173.881 234.232 172.261 237.557L120.3 207.557C121.919 204.232 123.461 201.992 125.392 200.877L177.353 230.877Z" fill="#8BC5E4"/>
<path d="M172.261 237.557C171.248 239.642 170.295 242.032 169.334 244.477L117.372 214.477C118.334 212.032 119.286 209.642 120.3 207.557L172.261 237.557Z" fill="#8BC5E4"/>
<path d="M169.334 244.477C170.884 246.492 172.278 248.697 173.673 249.952L121.711 219.952C120.317 218.697 118.923 216.492 117.372 214.477L169.334 244.477Z" fill="#8BC5E4"/>
<path d="M173.673 249.952C174.061 250.301 174.419 250.572 174.757 250.768L122.796 220.768C122.458 220.572 122.1 220.301 121.711 219.952L173.673 249.952Z" fill="#8BC5E4"/>
<path d="M174.755 250.767C175.687 251.309 176.471 251.284 177.346 250.781L125.385 220.781C124.51 221.284 123.726 221.309 122.794 220.767L174.755 250.767Z" fill="#8BC5E4"/>
<path d="M177.353 250.777C178.695 250.002 179.579 248.822 180.982 245.972L129.02 215.972C127.617 218.822 126.734 220.002 125.392 220.777L177.353 250.777Z" fill="#8BC5E4"/>
<path d="M180.982 245.972C182.35 243.202 183.779 239.307 185.407 235.147L133.446 205.147C131.818 209.307 130.389 213.202 129.02 215.972L180.982 245.972Z" fill="#8BC5E4"/>
<path d="M185.407 235.147C184.394 233.702 183.407 232.352 182.385 231.462L130.423 201.462C131.445 202.352 132.433 203.702 133.446 205.147L185.407 235.147Z" fill="#8BC5E4"/>
<path d="M182.385 231.462C182.028 231.152 181.678 230.892 181.326 230.69L129.364 200.69C129.716 200.892 130.066 201.152 130.423 201.462L182.385 231.462Z" fill="#8BC5E4"/>
<path d="M181.317 230.686C180.12 230.002 178.907 229.982 177.359 230.874L125.398 200.874C126.946 199.982 128.159 200.002 129.356 200.686L181.317 230.686Z" fill="#8BC5E4"/>
<path d="M222.465 204.832C220.481 205.977 219.026 208.057 217.45 211.277L165.489 181.277C167.065 178.057 168.52 175.977 170.503 174.832L222.465 204.832Z" fill="#8BC5E4"/>
<path d="M217.45 211.277C216.428 213.367 215.45 215.832 214.436 218.417L162.475 188.417C163.488 185.832 164.467 183.367 165.489 181.277L217.45 211.277Z" fill="#8BC5E4"/>
<path d="M214.436 218.417C216.073 220.602 217.485 222.837 218.853 224.047L166.892 194.047C165.523 192.837 164.112 190.602 162.475 188.417L214.436 218.417Z" fill="#8BC5E4"/>
<path d="M218.853 224.047C219.224 224.377 219.56 224.632 219.876 224.816L167.915 194.816C167.599 194.632 167.263 194.377 166.892 194.047L218.853 224.047Z" fill="#8BC5E4"/>
<path d="M219.889 224.823C220.772 225.334 221.507 225.283 222.457 224.736L170.495 194.736C169.545 195.283 168.811 195.334 167.927 194.823L219.889 224.823Z" fill="#8BC5E4"/>
<path d="M222.464 224.732C223.781 223.972 224.794 222.647 226.223 219.792L174.261 189.792C172.833 192.647 171.819 193.972 170.503 194.732L222.464 224.732Z" fill="#8BC5E4"/>
<path d="M226.223 219.792C227.587 217.058 228.968 213.319 230.389 209.468L178.428 179.468C177.006 183.319 175.626 187.058 174.261 189.792L226.223 219.792Z" fill="#8BC5E4"/>
<path d="M230.389 209.468C230.421 209.383 230.452 209.298 230.484 209.212L178.522 179.212C178.491 179.298 178.459 179.383 178.428 179.468L230.389 209.468Z" fill="#8BC5E4"/>
<path d="M230.484 209.212C229.514 207.892 228.553 206.587 227.539 205.662L175.578 175.662C176.591 176.587 177.552 177.892 178.522 179.212L230.484 209.212Z" fill="#8BC5E4"/>
<path d="M227.539 205.662C227.136 205.294 226.738 204.989 226.338 204.755L174.377 174.755C174.777 174.989 175.175 175.294 175.578 175.662L227.539 205.662Z" fill="#8BC5E4"/>
<path d="M226.34 204.756C225.14 204.055 223.917 203.996 222.471 204.829L170.509 174.829C171.955 173.996 173.178 174.055 174.378 174.756L226.34 204.756Z" fill="#8BC5E4"/>
<path d="M109.691 272.042C108.4 272.787 107.153 274.347 105.672 277.202L53.7109 247.202C55.1918 244.347 56.4389 242.787 57.7292 242.042L109.691 272.042Z" fill="#8BC5E4"/>
<path d="M105.672 277.202C104.191 280.057 102.788 283.817 101.637 287.232L49.675 257.232C50.8268 253.817 52.2298 250.057 53.7107 247.202L105.672 277.202Z" fill="#8BC5E4"/>
<path d="M101.637 287.232C101.55 287.482 101.455 287.767 101.359 288.042L49.3979 258.042C49.4931 257.767 49.5884 257.482 49.675 257.232L101.637 287.232Z" fill="#8BC5E4"/>
<path d="M101.359 288.042C102.243 289.392 103.23 290.632 104.304 291.472L52.3423 261.472C51.2685 260.632 50.2812 259.392 49.3979 258.042L101.359 288.042Z" fill="#8BC5E4"/>
<path d="M104.304 291.472C104.559 291.668 104.815 291.841 105.073 291.99L53.111 261.99C52.853 261.841 52.597 261.668 52.3425 261.472L104.304 291.472Z" fill="#8BC5E4"/>
<path d="M105.072 291.99C106.506 292.82 108.006 292.902 109.684 291.935L57.7228 261.935C56.0448 262.902 54.5448 262.82 53.1108 261.99L105.072 291.99Z" fill="#8BC5E4"/>
<path d="M109.691 291.932C111.631 290.812 113.276 288.492 114.93 285.207L62.9685 255.207C61.3144 258.492 59.6689 260.812 57.729 261.932L109.691 291.932Z" fill="#8BC5E4"/>
<path d="M114.93 285.207C116.004 283.067 116.991 280.637 117.944 278.237L65.9823 248.237C65.0296 250.637 64.0424 253.067 62.9685 255.207L114.93 285.207Z" fill="#8BC5E4"/>
<path d="M117.944 278.237C117.927 278.207 117.901 278.182 117.883 278.162L65.9216 248.162C65.939 248.182 65.9649 248.207 65.9823 248.237L117.944 278.237Z" fill="#8BC5E4"/>
<path d="M117.883 278.162C116.463 276.212 115.026 274.002 113.545 272.757L61.583 242.757C63.0639 244.002 64.5016 246.212 65.9218 248.162L117.883 278.162Z" fill="#8BC5E4"/>
<path d="M113.544 272.757C113.22 272.485 112.911 272.264 112.613 272.093L60.6519 242.093C60.9499 242.264 61.2589 242.485 61.5829 242.757L113.544 272.757Z" fill="#8BC5E4"/>
<path d="M112.615 272.094C111.554 271.482 110.636 271.499 109.697 272.038L57.7358 242.038C58.6748 241.499 59.5928 241.482 60.6538 242.094L112.615 272.094Z" fill="#8BC5E4"/>
<path d="M154.802 245.997C153.286 246.872 152.507 247.852 151.173 250.412L99.2117 220.412C100.545 217.852 101.325 216.872 102.84 215.997L154.802 245.997Z" fill="#8BC5E4"/>
<path d="M151.173 250.412C149.84 252.972 148.367 256.842 146.661 261.427L94.6997 231.427C96.4057 226.842 97.878 222.972 99.2116 220.412L151.173 250.412Z" fill="#8BC5E4"/>
<path d="M146.661 261.427C146.618 261.552 146.566 261.692 146.514 261.822L94.5525 231.822C94.6045 231.692 94.6565 231.552 94.6998 231.427L146.661 261.427Z" fill="#8BC5E4"/>
<path d="M146.514 261.822C147.657 263.492 148.722 264.887 149.814 265.727L97.8521 235.727C96.7609 234.887 95.6957 233.492 94.5525 231.822L146.514 261.822Z" fill="#8BC5E4"/>
<path d="M149.814 265.727C150.042 265.901 150.267 266.053 150.491 266.182L98.5299 236.182C98.3059 236.053 98.0809 235.901 97.8521 235.727L149.814 265.727Z" fill="#8BC5E4"/>
<path d="M150.49 266.182C151.774 266.922 153.028 266.909 154.795 265.891L102.834 235.891C101.067 236.909 99.8128 236.922 98.5288 236.182L150.49 266.182Z" fill="#8BC5E4"/>
<path d="M154.802 265.887C156.724 264.777 158.266 262.597 159.885 259.382L107.924 229.382C106.304 232.597 104.763 234.777 102.84 235.887L154.802 265.887Z" fill="#8BC5E4"/>
<path d="M159.886 259.382C160.968 257.227 161.99 254.707 163.021 252.152L111.059 222.152C110.028 224.707 109.007 227.227 107.924 229.382L159.886 259.382Z" fill="#8BC5E4"/>
<path d="M163.021 252.152C161.418 250.107 159.955 247.882 158.5 246.672L106.538 216.672C107.993 217.882 109.457 220.107 111.059 222.152L163.021 252.152Z" fill="#8BC5E4"/>
<path d="M158.5 246.672C158.17 246.396 157.862 246.174 157.569 246.004L105.608 216.004C105.901 216.174 106.209 216.396 106.538 216.672L158.5 246.672Z" fill="#8BC5E4"/>
<path d="M157.57 246.005C156.571 245.427 155.744 245.455 154.809 245.993L102.848 215.993C103.783 215.455 104.61 215.427 105.609 216.005L157.57 246.005Z" fill="#8BC5E4"/>
<path d="M199.913 219.952C198.25 220.912 197.471 221.992 196.137 224.652L144.176 194.652C145.509 191.992 146.289 190.912 147.952 189.952L199.913 219.952Z" fill="#8BC5E4"/>
<path d="M196.137 224.652C194.812 227.317 193.427 231.207 191.712 235.537L139.75 205.537C141.465 201.207 142.851 197.317 144.176 194.652L196.137 224.652Z" fill="#8BC5E4"/>
<path d="M191.712 235.537C191.695 235.587 191.677 235.637 191.651 235.692L139.69 205.692C139.716 205.637 139.733 205.587 139.751 205.537L191.712 235.537Z" fill="#8BC5E4"/>
<path d="M191.651 235.692C192.708 237.232 193.704 238.637 194.752 239.522L142.79 209.522C141.742 208.637 140.746 207.232 139.69 205.692L191.651 235.692Z" fill="#8BC5E4"/>
<path d="M194.752 239.522C195.059 239.783 195.362 240.005 195.668 240.182L143.707 210.182C143.401 210.005 143.098 209.783 142.79 209.522L194.752 239.522Z" fill="#8BC5E4"/>
<path d="M195.667 240.181C196.866 240.875 198.115 240.878 199.906 239.846L147.945 209.846C146.154 210.878 144.905 210.875 143.706 210.181L195.667 240.181Z" fill="#8BC5E4"/>
<path d="M199.913 239.842C202.147 238.552 203.55 236.572 205.066 233.507L153.104 203.507C151.589 206.572 150.186 208.552 147.952 209.842L199.913 239.842Z" fill="#8BC5E4"/>
<path d="M205.066 233.507C206.114 231.392 207.101 228.852 208.158 226.132L156.196 196.132C155.14 198.852 154.152 201.392 153.104 203.507L205.066 233.507Z" fill="#8BC5E4"/>
<path d="M208.158 226.132C208.149 226.127 208.14 226.112 208.132 226.107L156.17 196.107C156.179 196.112 156.188 196.127 156.196 196.132L208.158 226.132Z" fill="#8BC5E4"/>
<path d="M208.132 226.107C206.4 223.837 205.014 221.527 203.672 220.362L151.71 190.362C153.053 191.527 154.438 193.837 156.17 196.107L208.132 226.107Z" fill="#8BC5E4"/>
<path d="M203.672 220.362C203.333 220.067 203.029 219.835 202.737 219.669L150.776 189.669C151.068 189.835 151.372 190.067 151.71 190.362L203.672 220.362Z" fill="#8BC5E4"/>
<path d="M202.739 219.669C201.882 219.179 201.131 219.25 199.919 219.949L147.957 189.949C149.169 189.25 149.92 189.179 150.777 189.669L202.739 219.669Z" fill="#8BC5E4"/>
<path d="M245.024 193.907C242.652 195.277 241.976 196.347 240.807 198.802L188.845 168.802C190.015 166.347 190.69 165.277 193.063 163.907L245.024 193.907Z" fill="#8BC5E4"/>
<path d="M240.807 198.802C239.629 201.272 238.495 205.007 236.893 209.322L184.931 179.322C186.533 175.007 187.668 171.272 188.845 168.802L240.807 198.802Z" fill="#8BC5E4"/>
<path d="M236.892 209.322C236.858 209.422 236.814 209.527 236.78 209.627L184.818 179.627C184.853 179.527 184.896 179.422 184.931 179.322L236.892 209.322Z" fill="#8BC5E4"/>
<path d="M236.78 209.627C237.724 211.082 238.573 212.502 239.534 213.447L187.572 183.447C186.611 182.502 185.762 181.082 184.818 179.627L236.78 209.627Z" fill="#8BC5E4"/>
<path d="M239.534 213.447C239.907 213.815 240.278 214.12 240.669 214.343L188.708 184.343C188.317 184.12 187.946 183.815 187.572 183.447L239.534 213.447Z" fill="#8BC5E4"/>
<path d="M240.669 214.342C241.772 214.97 243.039 214.942 245.017 213.802L193.055 183.802C191.077 184.942 189.81 184.97 188.707 184.342L240.669 214.342Z" fill="#8BC5E4"/>
<path d="M245.024 213.797C247.536 212.347 249.935 209.052 251.728 205.467L199.766 175.467C197.973 179.052 195.574 182.347 193.063 183.797L245.024 213.797Z" fill="#8BC5E4"/>
<path d="M251.728 205.467C253.512 201.897 254.508 198.002 254.508 197.132L202.546 167.132C202.546 168.002 201.55 171.897 199.766 175.467L251.728 205.467Z" fill="#8BC5E4"/>
<path d="M252.706 198.172C252.706 195.941 251.897 194.092 250.416 193.266L198.455 163.266C199.936 164.092 200.745 165.941 200.745 168.172L252.706 198.172Z" fill="#8BC5E4"/>
<path d="M250.419 193.267C249.114 192.538 247.286 192.603 245.031 193.903L193.07 163.903C195.325 162.603 197.153 162.538 198.458 163.267L250.419 193.267Z" fill="#8BC5E4"/>
<path d="M163.635 160.257C175.786 153.112 187.572 145.047 198.242 136.757L146.28 106.757C135.611 115.047 123.824 123.112 111.674 130.257L163.635 160.257Z" fill="#8BC5E4"/>
<path d="M263.194 36.9274C264.817 35.9904 266.262 35.8994 267.296 36.5214L215.335 6.52136C214.301 5.89936 212.856 5.99036 211.232 6.92736L263.194 36.9274Z" fill="#8BC5E4"/>
<path d="M267.295 36.5214C268.313 37.1324 268.934 38.4334 268.935 40.2964L216.974 10.2964C216.973 8.43336 216.352 7.13236 215.334 6.52136L267.295 36.5214Z" fill="#8BC5E4"/>
<path d="M268.935 150.022C268.647 149.795 268.389 149.614 268.146 149.476L216.185 119.476C216.428 119.614 216.686 119.795 216.974 120.022L268.935 150.022Z" fill="#8BC5E4"/>
<path d="M268.146 149.476C266.795 148.71 265.925 149.29 263.198 150.864L211.237 120.864C213.964 119.29 214.834 118.71 216.185 119.476L268.146 149.476Z" fill="#8BC5E4"/>
<path d="M246.956 88.8024C259.79 72.1824 265.748 57.3624 265.748 40.3724L213.787 10.3724C213.787 27.3624 207.829 42.1824 194.994 58.8024L246.956 88.8024Z" fill="#8BC5E4"/>
<path d="M60.3619 158.742C60.3615 173.819 64.1745 180.359 69.4645 183.406L17.503 153.406C12.213 150.359 8.39999 143.819 8.40039 128.742L60.3619 158.742Z" fill="#8BC5E4"/>
<path d="M69.4793 183.414C70.6703 184.099 71.9373 184.607 73.2513 184.995L21.2898 154.995C19.9758 154.607 18.7088 154.099 17.5178 153.414L69.4793 183.414Z" fill="#8BC5E4"/>
<path d="M62.4231 266.782C59.2101 268.637 58.1016 269.587 56.69 272.562L4.72852 242.562C6.14012 239.587 7.24862 238.637 10.4616 236.782L62.4231 266.782Z" fill="#8BC5E4"/>
<path d="M56.69 162.842C56.69 159.082 59.2101 154.697 62.4231 152.842L10.4616 122.842C7.24862 124.697 4.72852 129.082 4.72852 132.842L56.69 162.842Z" fill="#8BC5E4"/>
<path d="M80.3065 186.237C81.8394 186.402 83.3809 186.552 84.8791 186.737L32.9176 156.737C31.4194 156.552 29.8779 156.402 28.345 156.237L80.3065 186.237Z" fill="#8BC5E4"/>
<path d="M84.879 186.737C93.9463 187.162 104.157 185.507 114.921 182.322L62.9599 152.322C52.1952 155.507 41.9848 157.162 32.9175 156.737L84.879 186.737Z" fill="#8BC5E4"/>
<path d="M121.971 180.052C133.264 176.112 145.016 170.667 156.577 164.282L104.616 134.282C93.0544 140.667 81.3024 146.112 70.0095 150.052L121.971 180.052Z" fill="#8BC5E4"/>
<path d="M205.291 131.107C208.53 128.437 211.648 125.747 214.592 123.087L162.631 93.0873C159.686 95.7473 156.569 98.4373 153.33 101.107L205.291 131.107Z" fill="#8BC5E4"/>
<path d="M214.592 123.087C224.56 113.732 232.969 105.287 239.906 97.3524L187.945 67.3524C181.008 75.2874 172.599 83.7324 162.631 93.0874L214.592 123.087Z" fill="#8BC5E4"/>
<path d="M109.691 263.662C113.039 261.729 115.721 262.118 117.757 263.291L65.7958 233.291C63.7598 232.118 61.0778 231.729 57.729 233.662L109.691 263.662Z" fill="#8BC5E4"/>
<path d="M117.766 263.296C118.236 263.568 118.671 263.881 119.072 264.217L67.1109 234.217C66.7099 233.881 66.2749 233.568 65.8049 233.296L117.766 263.296Z" fill="#8BC5E4"/>
<path d="M119.079 264.222C120.308 265.242 121.33 266.512 122.231 267.732L70.2693 237.732C69.3686 236.512 68.3467 235.242 67.1169 234.222L119.079 264.222Z" fill="#8BC5E4"/>
<path d="M122.231 267.732C123.019 265.957 123.859 264.172 124.76 262.442L72.7981 232.442C71.8974 234.172 71.0574 235.957 70.2693 237.732L122.231 267.732Z" fill="#8BC5E4"/>
<path d="M124.76 262.442C126.864 258.387 129.211 254.482 132.242 252.732L80.2805 222.732C77.2494 224.482 74.9025 228.387 72.7981 232.442L124.76 262.442Z" fill="#8BC5E4"/>
<path d="M132.242 252.732C134.69 251.319 136.8 251.64 138.664 252.717L86.702 222.717C84.838 221.64 82.728 221.319 80.2805 222.732L132.242 252.732Z" fill="#8BC5E4"/>
<path d="M138.67 252.721C138.932 252.873 139.189 253.039 139.441 253.218L87.48 223.218C87.228 223.039 86.971 222.873 86.709 222.721L138.67 252.721Z" fill="#8BC5E4"/>
<path d="M139.447 253.222C139.509 253.265 139.571 253.31 139.633 253.355L87.6719 223.355C87.6099 223.31 87.5479 223.265 87.4858 223.222L139.447 253.222Z" fill="#8BC5E4"/>
<path d="M139.633 253.355C140.559 254.031 141.44 254.894 142.291 255.881L90.3299 225.881C89.4789 224.894 88.5979 224.031 87.6719 223.355L139.633 253.355Z" fill="#8BC5E4"/>
<path d="M142.296 255.887C143.336 253.197 144.427 250.577 145.752 248.042L93.7904 218.042C92.4654 220.577 91.3742 223.197 90.335 225.887L142.296 255.887Z" fill="#8BC5E4"/>
<path d="M145.752 248.042C147.9 243.932 151.052 239.782 154.802 237.617L102.841 207.617C99.0906 209.782 95.9383 213.932 93.7905 218.042L145.752 248.042Z" fill="#8BC5E4"/>
<path d="M154.802 237.617C158.08 235.724 160.732 236.085 162.74 237.23L110.779 207.23C108.771 206.085 106.119 205.724 102.84 207.617L154.802 237.617Z" fill="#8BC5E4"/>
<path d="M162.749 237.235C163.212 237.5 163.642 237.807 164.036 238.137L112.075 208.137C111.681 207.807 111.251 207.5 110.788 207.235L162.749 237.235Z" fill="#8BC5E4"/>
<path d="M164.042 238.142C165.263 239.157 166.294 240.422 167.221 241.657L115.259 211.657C114.332 210.422 113.302 209.157 112.081 208.142L164.042 238.142Z" fill="#8BC5E4"/>
<path d="M167.221 241.657C167.905 239.962 168.632 238.252 169.446 236.582L117.485 206.582C116.671 208.252 115.943 209.962 115.259 211.657L167.221 241.657Z" fill="#8BC5E4"/>
<path d="M169.446 236.582C171.369 232.632 173.95 228.652 177.353 226.687L125.392 196.687C121.988 198.652 119.407 202.632 117.485 206.582L169.446 236.582Z" fill="#8BC5E4"/>
<path d="M177.353 226.687C180.062 225.123 182.26 225.345 184.019 226.375L132.058 196.375C130.299 195.345 128.101 195.123 125.392 196.687L177.353 226.687Z" fill="#8BC5E4"/>
<path d="M184.014 226.372C184.425 226.612 184.812 226.896 185.176 227.212L133.215 197.212C132.851 196.896 132.464 196.612 132.053 196.372L184.014 226.372Z" fill="#8BC5E4"/>
<path d="M185.182 227.217C186.014 227.947 186.758 228.837 187.477 229.782L135.516 199.782C134.797 198.837 134.052 197.947 133.221 197.217L185.182 227.217Z" fill="#8BC5E4"/>
<path d="M187.477 229.782C188.387 227.417 189.374 224.987 190.578 222.562L138.616 192.562C137.412 194.987 136.425 197.417 135.516 199.782L187.477 229.782Z" fill="#8BC5E4"/>
<path d="M190.577 222.562C192.656 218.402 195.886 213.897 199.913 211.572L147.952 181.572C143.925 183.897 140.694 188.402 138.616 192.562L190.577 222.562Z" fill="#8BC5E4"/>
<path d="M199.913 211.572C203.292 209.621 206.084 209.892 208.119 211.06L156.158 181.06C154.123 179.892 151.331 179.621 147.952 181.572L199.913 211.572Z" fill="#8BC5E4"/>
<path d="M208.113 211.057C208.523 211.292 208.903 211.564 209.251 211.862L157.29 181.862C156.942 181.564 156.562 181.292 156.152 181.057L208.113 211.057Z" fill="#8BC5E4"/>
<path d="M209.258 211.867C210.461 212.912 211.44 214.207 212.349 215.502L160.388 185.502C159.479 184.207 158.5 182.912 157.296 181.867L209.258 211.867Z" fill="#8BC5E4"/>
<path d="M212.349 215.502C213.068 213.737 213.813 211.977 214.644 210.287L162.683 180.287C161.852 181.977 161.107 183.737 160.388 185.502L212.349 215.502Z" fill="#8BC5E4"/>
<path d="M214.644 210.287C216.55 206.397 219.113 202.577 222.465 200.642L170.503 170.642C167.151 172.577 164.588 176.397 162.683 180.287L214.644 210.287Z" fill="#8BC5E4"/>
<path d="M222.464 200.642C225.09 199.126 227.21 199.381 228.924 200.372L176.963 170.372C175.249 169.381 173.129 169.126 170.503 170.642L222.464 200.642Z" fill="#8BC5E4"/>
<path d="M228.92 200.369C229.438 200.669 229.919 201.036 230.366 201.442L178.404 171.442C177.957 171.036 177.476 170.669 176.958 170.369L228.92 200.369Z" fill="#8BC5E4"/>
<path d="M230.371 201.447C231.108 202.112 231.774 202.897 232.415 203.707L180.454 173.707C179.813 172.897 179.146 172.112 178.41 171.447L230.371 201.447Z" fill="#8BC5E4"/>
<path d="M232.415 203.707C233.16 201.567 234 199.322 235.1 197.007L183.138 167.007C182.038 169.322 181.198 171.567 180.454 173.707L232.415 203.707Z" fill="#8BC5E4"/>
<path d="M235.1 197.007C237.144 192.717 240.634 188.062 245.025 185.527L193.063 155.527C188.672 158.062 185.182 162.717 183.138 167.007L235.1 197.007Z" fill="#8BC5E4"/>
<path d="M245.024 185.527C249.253 183.086 252.879 182.954 255.492 184.466L203.531 154.466C200.918 152.954 197.292 153.086 193.063 155.527L245.024 185.527Z" fill="#8BC5E4"/>
<path d="M255.49 184.465C258.261 186.066 259.892 189.515 259.894 194.016L207.933 164.016C207.931 159.515 206.3 156.066 203.529 154.465L255.49 184.465Z" fill="#8BC5E4"/>
<path d="M258.101 195.057C258.101 197.967 256.716 202.097 254.499 206.527L202.537 176.527C204.754 172.097 206.14 167.967 206.14 165.057L258.101 195.057Z" fill="#8BC5E4"/>
<path d="M254.499 206.527C252.282 210.957 249.034 215.672 245.024 217.987L193.063 187.987C197.073 185.672 200.32 180.957 202.537 176.527L254.499 206.527Z" fill="#8BC5E4"/>
<path d="M245.024 217.987C242.005 219.73 239.68 219.599 237.944 218.603L185.983 188.603C187.719 189.599 190.044 189.73 193.063 187.987L245.024 217.987Z" fill="#8BC5E4"/>
<path d="M237.949 218.606C237.475 218.334 237.044 217.998 236.655 217.617L184.694 187.617C185.083 187.998 185.514 188.334 185.988 188.606L237.949 218.606Z" fill="#8BC5E4"/>
<path d="M236.65 217.612C235.922 216.892 235.299 216.042 234.71 215.172L182.749 185.172C183.337 186.042 183.961 186.892 184.688 187.612L236.65 217.612Z" fill="#8BC5E4"/>
<path d="M234.71 215.172C233.853 217.377 232.9 219.647 231.783 221.882L179.822 191.882C180.939 189.647 181.891 187.377 182.749 185.172L234.71 215.172Z" fill="#8BC5E4"/>
<path d="M231.783 221.882C229.652 226.162 226.491 230.777 222.464 233.102L170.503 203.102C174.53 200.777 177.691 196.162 179.821 191.882L231.783 221.882Z" fill="#8BC5E4"/>
<path d="M222.465 233.102C219.232 234.968 216.589 234.647 214.597 233.505L162.636 203.505C164.628 204.647 167.271 204.968 170.503 203.102L222.465 233.102Z" fill="#8BC5E4"/>
<path d="M214.603 233.509C214.107 233.225 213.652 232.891 213.238 232.527L161.277 202.527C161.691 202.891 162.146 203.225 162.642 203.509L214.603 233.509Z" fill="#8BC5E4"/>
<path d="M213.233 232.522C212.098 231.517 211.145 230.287 210.253 229.052L158.292 199.052C159.184 200.287 160.137 201.517 161.271 202.522L213.233 232.522Z" fill="#8BC5E4"/>
<path d="M210.254 229.052C209.517 230.907 208.738 232.747 207.863 234.522L155.902 204.522C156.777 202.747 157.556 200.907 158.292 199.052L210.254 229.052Z" fill="#8BC5E4"/>
<path d="M207.863 234.522C205.975 238.332 203.36 242.042 199.913 244.032L147.952 214.032C151.398 212.042 154.014 208.332 155.902 204.522L207.863 234.522Z" fill="#8BC5E4"/>
<path d="M199.913 244.032C197.066 245.676 194.783 245.526 193.01 244.512L141.049 214.512C142.822 215.526 145.105 215.676 147.952 214.032L199.913 244.032Z" fill="#8BC5E4"/>
<path d="M193.015 244.515C192.647 244.305 192.301 244.058 191.977 243.782L140.016 213.782C140.34 214.058 140.686 214.305 141.054 214.515L193.015 244.515Z" fill="#8BC5E4"/>
<path d="M191.972 243.777C191.088 243.027 190.309 242.087 189.573 241.072L137.611 211.072C138.347 212.087 139.127 213.027 140.01 213.777L191.972 243.777Z" fill="#8BC5E4"/>
<path d="M189.573 241.072C188.681 243.357 187.72 245.692 186.576 248.002L134.615 218.002C135.758 215.692 136.719 213.357 137.611 211.072L189.573 241.072Z" fill="#8BC5E4"/>
<path d="M186.576 248.002C184.489 252.227 181.363 256.832 177.353 259.147L125.392 229.147C129.401 226.832 132.528 222.227 134.615 218.002L186.576 248.002Z" fill="#8BC5E4"/>
<path d="M177.353 259.147C174.136 261.005 171.546 260.657 169.576 259.532L117.614 229.532C119.584 230.657 122.174 231.005 125.392 229.147L177.353 259.147Z" fill="#8BC5E4"/>
<path d="M169.58 259.535C169.016 259.213 168.503 258.828 168.04 258.412L116.079 228.412C116.542 228.828 117.055 229.213 117.619 229.535L169.58 259.535Z" fill="#8BC5E4"/>
<path d="M168.035 258.407C166.909 257.397 165.965 256.192 165.108 255.007L113.146 225.007C114.004 226.192 114.948 227.397 116.073 228.407L168.035 258.407Z" fill="#8BC5E4"/>
<path d="M165.108 255.007C164.354 256.822 163.549 258.667 162.657 260.442L110.695 230.442C111.587 228.667 112.393 226.822 113.146 225.007L165.108 255.007Z" fill="#8BC5E4"/>
<path d="M162.657 260.442C160.717 264.312 158.145 268.147 154.802 270.077L102.84 240.077C106.183 238.147 108.755 234.312 110.695 230.442L162.657 260.442Z" fill="#8BC5E4"/>
<path d="M154.802 270.077C152.013 271.687 149.702 271.582 147.868 270.539L95.907 240.539C97.741 241.582 100.052 241.687 102.84 240.077L154.802 270.077Z" fill="#8BC5E4"/>
<path d="M147.862 270.535C147.605 270.388 147.357 270.223 147.118 270.041L95.156 240.041C95.395 240.223 95.643 240.388 95.9 240.535L147.862 270.535Z" fill="#8BC5E4"/>
<path d="M147.112 270.037C147.051 269.99 146.99 269.943 146.93 269.894L94.968 239.894C95.028 239.943 95.089 239.99 95.1502 240.037L147.112 270.037Z" fill="#8BC5E4"/>
<path d="M146.93 269.894C146.024 269.167 145.206 268.226 144.419 267.162L92.457 237.162C93.244 238.226 94.062 239.167 94.968 239.894L146.93 269.894Z" fill="#8BC5E4"/>
<path d="M144.418 267.162C143.284 269.877 142.089 272.497 140.772 274.947L88.8108 244.947C90.1271 242.497 91.3223 239.877 92.4567 237.162L144.418 267.162Z" fill="#8BC5E4"/>
<path d="M140.772 274.947C138.555 279.077 135.819 283.127 132.242 285.192L80.2805 255.192C83.8572 253.127 86.5939 249.077 88.8109 244.947L140.772 274.947Z" fill="#8BC5E4"/>
<path d="M132.242 285.192C129.2 286.948 126.997 286.467 125.14 285.394L73.179 255.394C75.036 256.467 77.239 256.948 80.2805 255.192L132.242 285.192Z" fill="#8BC5E4"/>
<path d="M125.146 285.397C124.534 285.044 123.96 284.626 123.406 284.202L71.4448 254.202C71.9988 254.626 72.5728 255.044 73.1848 255.397L125.146 285.397Z" fill="#8BC5E4"/>
<path d="M123.4 284.197C123.328 284.142 123.257 284.087 123.186 284.031L71.2249 254.031C71.2959 254.087 71.3669 254.142 71.4383 254.197L123.4 284.197Z" fill="#8BC5E4"/>
<path d="M123.172 284.02C122.043 283.122 121.012 282.054 120.088 280.969L68.127 250.969C69.051 252.054 70.082 253.122 71.211 254.02L123.172 284.02Z" fill="#8BC5E4"/>
<path d="M120.083 280.962C119.364 282.717 118.576 284.522 117.701 286.277L65.74 256.277C66.6147 254.522 67.4027 252.717 68.1215 250.962L120.083 280.962Z" fill="#8BC5E4"/>
<path d="M117.701 286.277C115.718 290.212 113.085 294.162 109.691 296.122L57.729 266.122C61.1239 264.162 63.7566 260.212 65.7398 256.277L117.701 286.277Z" fill="#8BC5E4"/>
<path d="M109.691 296.122C106.817 297.782 104.424 297.502 102.513 296.397L50.551 266.397C52.462 267.502 54.855 267.782 57.7292 266.122L109.691 296.122Z" fill="#8BC5E4"/>
<path d="M102.517 296.401C102.194 296.214 101.885 296.005 101.59 295.777L49.6289 265.777C49.9239 266.005 50.2329 266.214 50.5559 266.401L102.517 296.401Z" fill="#8BC5E4"/>
<path d="M101.585 295.772C101.534 295.733 101.484 295.693 101.434 295.653L49.4729 265.653C49.5229 265.693 49.5729 265.733 49.6231 265.772L101.585 295.772Z" fill="#8BC5E4"/>
<path d="M101.434 295.653C100.691 295.052 100.022 294.333 99.4063 293.547L47.4448 263.547C48.0608 264.333 48.7298 265.052 49.4728 265.653L101.434 295.653Z" fill="#8BC5E4"/>
<path d="M99.4023 293.542C98.6402 295.532 97.7741 297.592 96.7436 299.657L44.782 269.657C45.8126 267.592 46.6786 265.532 47.4407 263.542L99.4023 293.542Z" fill="#8BC5E4"/>
<path d="M96.7436 299.657C94.5612 304.047 91.3136 308.822 87.1307 311.237L35.1692 281.237C39.3521 278.822 42.5997 274.047 44.782 269.657L96.7436 299.657Z" fill="#8BC5E4"/>
<path d="M87.1307 311.237C83.2494 313.478 80.0614 312.998 77.5904 311.58L25.6289 281.58C28.0999 282.998 31.2879 283.478 35.1692 281.237L87.1307 311.237Z" fill="#8BC5E4"/>
<path d="M77.5825 311.575C77.2965 311.41 77.0205 311.234 76.7545 311.047L24.793 281.047C25.059 281.234 25.335 281.41 25.621 281.575L77.5825 311.575Z" fill="#8BC5E4"/>
<path d="M76.747 311.042C76.5764 310.922 76.4094 310.8 76.2454 310.673L24.2839 280.673C24.4479 280.8 24.6149 280.922 24.7855 281.042L76.747 311.042Z" fill="#8BC5E4"/>
<path d="M76.2453 310.673C73.9373 308.897 72.2633 306.406 72.2613 302.358L20.2998 272.358C20.3018 276.406 21.9758 278.897 24.2838 280.673L76.2453 310.673Z" fill="#8BC5E4"/>
<path d="M74.0711 301.307C74.201 297.972 75.8292 293.692 78.0808 289.512L26.1193 259.512C23.8676 263.692 22.2395 267.972 22.1096 271.307L74.0711 301.307Z" fill="#8BC5E4"/>
<path d="M78.0806 289.512C80.4189 285.162 83.5712 280.832 87.1306 278.777L35.1691 248.777C31.6097 250.832 28.4574 255.162 26.1191 259.512L78.0806 289.512Z" fill="#8BC5E4"/>
<path d="M87.1307 278.777C89.9934 277.124 92.3434 277.382 94.2054 278.472L42.2439 248.472C40.3819 247.382 38.0319 247.124 35.1692 248.777L87.1307 278.777Z" fill="#8BC5E4"/>
<path d="M94.1995 278.469C94.6075 278.707 94.9915 278.985 95.3525 279.292L43.391 249.292C43.03 248.985 42.646 248.707 42.238 248.469L94.1995 278.469Z" fill="#8BC5E4"/>
<path d="M95.358 279.297C96.0682 279.907 96.709 280.637 97.2979 281.407L45.3364 251.407C44.7475 250.637 44.1067 249.907 43.3965 249.297L95.358 279.297Z" fill="#8BC5E4"/>
<path d="M97.2979 281.407C98.138 279.272 99.0993 277.057 100.225 274.877L48.2636 244.877C47.1377 247.057 46.1764 249.272 45.3364 251.407L97.2979 281.407Z" fill="#8BC5E4"/>
<path d="M100.225 274.877C102.459 270.577 105.646 265.997 109.691 263.662L57.729 233.662C53.6847 235.997 50.4977 240.577 48.2634 244.877L100.225 274.877Z" fill="#8BC5E4"/>
<path d="M80.7309 290.802C82.6361 287.272 85.1216 284.127 87.1308 282.967L35.1693 252.967C33.1601 254.127 30.6746 257.272 28.7693 260.802L80.7309 290.802Z" fill="#8BC5E4"/>
<path d="M87.1307 282.967C88.8004 282.003 90.2234 282.058 91.5604 282.831L39.5989 252.831C38.2619 252.058 36.8389 252.003 35.1692 252.967L87.1307 282.967Z" fill="#8BC5E4"/>
<path d="M91.5565 282.829C91.8975 283.025 92.2325 283.268 92.5645 283.553L40.603 253.553C40.271 253.268 39.936 253.025 39.595 252.829L91.5565 282.829Z" fill="#8BC5E4"/>
<path d="M92.5694 283.557C93.574 284.407 94.4747 285.627 95.2974 286.942L43.3359 256.942C42.5132 255.627 41.6125 254.407 40.6079 253.557L92.5694 283.557Z" fill="#8BC5E4"/>
<path d="M95.2972 286.942C95.2626 287.052 95.2193 287.167 95.1846 287.277L43.2231 257.277C43.2577 257.167 43.301 257.052 43.3357 256.942L95.2972 286.942Z" fill="#8BC5E4"/>
<path d="M95.1847 287.277C93.9983 290.792 92.6386 294.637 91.1837 297.567L39.2222 267.567C40.6771 264.637 42.0367 260.792 43.2232 257.277L95.1847 287.277Z" fill="#8BC5E4"/>
<path d="M91.1837 297.567C89.7201 300.492 88.5337 302.057 87.1307 302.867L35.1692 272.867C36.5721 272.057 37.7586 270.492 39.2222 267.567L91.1837 297.567Z" fill="#8BC5E4"/>
<path d="M87.1306 302.867C85.9973 303.522 84.0683 303.522 82.4573 302.593L30.4958 272.593C32.1068 273.522 34.0358 273.522 35.1691 272.867L87.1306 302.867Z" fill="#8BC5E4"/>
<path d="M82.4624 302.596C82.3254 302.517 82.1914 302.432 82.0604 302.34L30.0989 272.34C30.2299 272.432 30.3639 272.517 30.5009 272.596L82.4624 302.596Z" fill="#8BC5E4"/>
<path d="M82.0559 302.337C81.9735 302.279 81.8935 302.219 81.8155 302.155L29.854 272.155C29.932 272.219 30.012 272.279 30.0944 272.337L82.0559 302.337Z" fill="#8BC5E4"/>
<path d="M81.8165 302.156C80.2945 300.929 79.4565 298.705 79.4495 298.208L27.488 268.208C27.495 268.705 28.333 270.929 29.855 272.156L81.8165 302.156Z" fill="#8BC5E4"/>
<path d="M77.6823 299.222C77.8468 297.537 78.9813 294.052 80.7307 290.802L28.7691 260.802C27.0198 264.052 25.8853 267.537 25.7207 269.222L77.6823 299.222Z" fill="#8BC5E4"/>
<path d="M127.47 263.617C129.323 260.057 131.255 257.492 132.242 256.922L80.2803 226.922C79.2931 227.492 77.3618 230.057 75.5085 233.617L127.47 263.617Z" fill="#8BC5E4"/>
<path d="M132.242 256.922C133.333 256.292 134.709 256.331 136.209 257.195L84.247 227.195C82.747 226.331 81.371 226.292 80.2805 226.922L132.242 256.922Z" fill="#8BC5E4"/>
<path d="M136.223 257.204C136.408 257.311 136.595 257.431 136.783 257.563L84.822 227.563C84.634 227.431 84.447 227.311 84.262 227.204L136.223 257.204Z" fill="#8BC5E4"/>
<path d="M136.789 257.567C136.87 257.625 136.953 257.685 137.035 257.748L85.0739 227.748C84.9919 227.685 84.9089 227.625 84.8271 227.567L136.789 257.567Z" fill="#8BC5E4"/>
<path d="M137.035 257.747C138.123 258.571 139.223 259.772 140.301 261.183L88.34 231.183C87.262 229.772 86.162 228.571 85.074 227.747L137.035 257.747Z" fill="#8BC5E4"/>
<path d="M140.305 261.187C138.694 265.497 136.996 269.507 135.464 272.372L83.502 242.372C85.0349 239.507 86.7323 235.497 88.3431 231.187L140.305 261.187Z" fill="#8BC5E4"/>
<path d="M135.464 272.372C133.896 275.277 132.692 276.562 132.242 276.822L80.2805 246.822C80.7309 246.562 81.9346 245.277 83.5021 242.372L135.464 272.372Z" fill="#8BC5E4"/>
<path d="M132.242 276.822C132.272 276.805 130.973 276.87 129.509 276.027L77.5479 246.027C79.0119 246.87 80.3109 246.805 80.2804 246.822L132.242 276.822Z" fill="#8BC5E4"/>
<path d="M129.509 276.027C129.285 275.898 129.057 275.747 128.829 275.572L76.8679 245.572C77.0959 245.747 77.3239 245.898 77.5479 246.027L129.509 276.027Z" fill="#8BC5E4"/>
<path d="M128.83 275.572C128.721 275.489 128.612 275.402 128.503 275.312L76.542 245.312C76.651 245.402 76.76 245.489 76.8684 245.572L128.83 275.572Z" fill="#8BC5E4"/>
<path d="M128.504 275.313C126.976 274.053 125.449 272.196 124.253 270.572L72.291 240.572C73.487 242.196 75.014 244.053 76.542 245.313L128.504 275.313Z" fill="#8BC5E4"/>
<path d="M124.249 270.567C125.236 268.227 126.344 265.787 127.47 263.617L75.5087 233.617C74.3829 235.787 73.2744 238.227 72.2871 240.567L124.249 270.567Z" fill="#8BC5E4"/>
<path d="M172.261 237.557C173.881 234.232 175.422 231.992 177.353 230.877L125.392 200.877C123.461 201.992 121.919 204.232 120.3 207.557L172.261 237.557Z" fill="#8BC5E4"/>
<path d="M177.353 230.877C178.907 229.98 180.124 230.001 181.325 230.69L129.364 200.69C128.163 200.001 126.946 199.98 125.392 200.877L177.353 230.877Z" fill="#8BC5E4"/>
<path d="M181.321 230.688C181.673 230.89 182.023 231.148 182.38 231.458L130.419 201.458C130.062 201.148 129.712 200.89 129.36 200.688L181.321 230.688Z" fill="#8BC5E4"/>
<path d="M182.385 231.462C183.407 232.352 184.394 233.702 185.407 235.147L133.446 205.147C132.433 203.702 131.445 202.352 130.423 201.462L182.385 231.462Z" fill="#8BC5E4"/>
<path d="M185.407 235.147C183.779 239.307 182.35 243.202 180.982 245.972L129.02 215.972C130.389 213.202 131.818 209.307 133.446 205.147L185.407 235.147Z" fill="#8BC5E4"/>
<path d="M180.982 245.972C179.579 248.822 178.695 250.002 177.353 250.777L125.392 220.777C126.734 220.002 127.617 218.822 129.02 215.972L180.982 245.972Z" fill="#8BC5E4"/>
<path d="M177.353 250.777C176.475 251.284 175.691 251.31 174.757 250.768L122.796 220.768C123.73 221.31 124.514 221.284 125.392 220.777L177.353 250.777Z" fill="#8BC5E4"/>
<path d="M174.759 250.77C174.422 250.574 174.064 250.304 173.676 249.956L121.715 219.956C122.103 220.304 122.461 220.574 122.798 220.77L174.759 250.77Z" fill="#8BC5E4"/>
<path d="M173.673 249.952C172.278 248.697 170.884 246.492 169.334 244.477L117.372 214.477C118.923 216.492 120.317 218.697 121.711 219.952L173.673 249.952Z" fill="#8BC5E4"/>
<path d="M169.334 244.477C170.295 242.032 171.248 239.642 172.261 237.557L120.3 207.557C119.286 209.642 118.334 212.032 117.372 214.477L169.334 244.477Z" fill="#8BC5E4"/>
<path d="M217.45 211.277C219.026 208.057 220.481 205.977 222.465 204.832L170.503 174.832C168.52 175.977 167.065 178.057 165.489 181.277L217.45 211.277Z" fill="#8BC5E4"/>
<path d="M222.464 204.832C223.913 203.996 225.137 204.054 226.338 204.755L174.377 174.755C173.176 174.054 171.952 173.996 170.503 174.832L222.464 204.832Z" fill="#8BC5E4"/>
<path d="M226.335 204.753C226.735 204.987 227.133 205.291 227.535 205.658L175.573 175.658C175.171 175.291 174.773 174.987 174.373 174.753L226.335 204.753Z" fill="#8BC5E4"/>
<path d="M227.539 205.662C228.553 206.587 229.514 207.892 230.484 209.212L178.522 179.212C177.552 177.892 176.591 176.587 175.578 175.662L227.539 205.662Z" fill="#8BC5E4"/>
<path d="M230.389 209.468C228.968 213.319 227.587 217.058 226.223 219.792L174.261 189.792C175.626 187.058 177.006 183.319 178.428 179.468L230.389 209.468Z" fill="#8BC5E4"/>
<path d="M226.223 219.792C224.794 222.647 223.781 223.972 222.464 224.732L170.503 194.732C171.819 193.972 172.833 192.647 174.261 189.792L226.223 219.792Z" fill="#8BC5E4"/>
<path d="M222.465 224.732C221.506 225.286 220.769 225.335 219.877 224.816L167.915 194.816C168.807 195.335 169.544 195.286 170.503 194.732L222.465 224.732Z" fill="#8BC5E4"/>
<path d="M219.879 224.818C219.563 224.634 219.228 224.38 218.857 224.051L166.896 194.051C167.267 194.38 167.602 194.634 167.918 194.818L219.879 224.818Z" fill="#8BC5E4"/>
<path d="M218.853 224.047C217.485 222.837 216.073 220.602 214.436 218.417L162.475 188.417C164.112 190.602 165.523 192.837 166.892 194.047L218.853 224.047Z" fill="#8BC5E4"/>
<path d="M214.436 218.417C215.45 215.832 216.428 213.367 217.45 211.277L165.489 181.277C164.467 183.367 163.488 185.832 162.475 188.417L214.436 218.417Z" fill="#8BC5E4"/>
<path d="M105.672 277.202C107.153 274.347 108.4 272.787 109.691 272.042L57.7292 242.042C56.4389 242.787 55.1918 244.347 53.7109 247.202L105.672 277.202Z" fill="#8BC5E4"/>
<path d="M109.691 272.042C110.631 271.499 111.55 271.481 112.613 272.093L60.6518 242.093C59.5888 241.481 58.6698 241.499 57.729 242.042L109.691 272.042Z" fill="#8BC5E4"/>
<path d="M112.61 272.091C112.908 272.262 113.216 272.482 113.54 272.753L61.5789 242.753C61.2549 242.482 60.9469 242.262 60.6489 242.091L112.61 272.091Z" fill="#8BC5E4"/>
<path d="M113.545 272.757C115.026 274.002 116.463 276.212 117.883 278.162L65.9218 248.162C64.5016 246.212 63.0639 244.002 61.583 242.757L113.545 272.757Z" fill="#8BC5E4"/>
<path d="M117.883 278.162C117.901 278.182 117.927 278.207 117.944 278.237L65.9823 248.237C65.9649 248.207 65.939 248.182 65.9216 248.162L117.883 278.162Z" fill="#8BC5E4"/>
<path d="M117.944 278.237C116.991 280.637 116.004 283.067 114.93 285.207L62.9685 255.207C64.0424 253.067 65.0296 250.637 65.9823 248.237L117.944 278.237Z" fill="#8BC5E4"/>
<path d="M114.93 285.207C113.276 288.492 111.631 290.812 109.691 291.932L57.729 261.932C59.6689 260.812 61.3144 258.492 62.9685 255.207L114.93 285.207Z" fill="#8BC5E4"/>
<path d="M109.691 291.932C108.009 292.903 106.509 292.82 105.072 291.99L53.1108 261.99C54.5478 262.82 56.0478 262.903 57.729 261.932L109.691 291.932Z" fill="#8BC5E4"/>
<path d="M105.076 291.993C104.818 291.844 104.562 291.671 104.308 291.476L52.3469 261.476C52.6009 261.671 52.8569 261.844 53.1149 261.993L105.076 291.993Z" fill="#8BC5E4"/>
<path d="M104.304 291.472C103.23 290.632 102.243 289.392 101.359 288.042L49.3979 258.042C50.2812 259.392 51.2685 260.632 52.3423 261.472L104.304 291.472Z" fill="#8BC5E4"/>
<path d="M101.359 288.042C101.455 287.767 101.55 287.482 101.637 287.232L49.675 257.232C49.5884 257.482 49.4931 257.767 49.3979 258.042L101.359 288.042Z" fill="#8BC5E4"/>
<path d="M101.637 287.232C102.788 283.817 104.191 280.057 105.672 277.202L53.7107 247.202C52.2298 250.057 50.8268 253.817 49.675 257.232L101.637 287.232Z" fill="#8BC5E4"/>
<path d="M151.173 250.412C152.507 247.852 153.286 246.872 154.802 245.997L102.84 215.997C101.325 216.872 100.545 217.852 99.2117 220.412L151.173 250.412Z" fill="#8BC5E4"/>
<path d="M154.802 245.997C155.739 245.456 156.568 245.426 157.569 246.004L105.608 216.004C104.607 215.426 103.778 215.456 102.84 215.997L154.802 245.997Z" fill="#8BC5E4"/>
<path d="M157.566 246.003C157.859 246.172 158.166 246.393 158.495 246.668L106.534 216.668C106.205 216.393 105.898 216.172 105.605 216.003L157.566 246.003Z" fill="#8BC5E4"/>
<path d="M158.5 246.672C159.955 247.882 161.418 250.107 163.021 252.152L111.059 222.152C109.457 220.107 107.993 217.882 106.538 216.672L158.5 246.672Z" fill="#8BC5E4"/>
<path d="M163.021 252.152C161.99 254.707 160.968 257.227 159.886 259.382L107.924 229.382C109.007 227.227 110.028 224.707 111.059 222.152L163.021 252.152Z" fill="#8BC5E4"/>
<path d="M159.885 259.382C158.266 262.597 156.724 264.777 154.802 265.887L102.84 235.887C104.763 234.777 106.304 232.597 107.924 229.382L159.885 259.382Z" fill="#8BC5E4"/>
<path d="M154.802 265.887C153.033 266.909 151.778 266.923 150.492 266.182L98.53 236.182C99.816 236.923 101.071 236.909 102.841 235.887L154.802 265.887Z" fill="#8BC5E4"/>
<path d="M150.477 266.173C150.259 266.047 150.04 265.899 149.818 265.73L97.8569 235.73C98.0789 235.899 98.2979 236.047 98.5159 236.173L150.477 266.173Z" fill="#8BC5E4"/>
<path d="M149.814 265.727C148.722 264.887 147.657 263.492 146.514 261.822L94.5525 231.822C95.6957 233.492 96.7609 234.887 97.8521 235.727L149.814 265.727Z" fill="#8BC5E4"/>
<path d="M146.514 261.822C146.566 261.692 146.618 261.552 146.661 261.427L94.6998 231.427C94.6565 231.552 94.6045 231.692 94.5525 231.822L146.514 261.822Z" fill="#8BC5E4"/>
<path d="M146.661 261.427C148.367 256.842 149.84 252.972 151.173 250.412L99.2116 220.412C97.878 222.972 96.4057 226.842 94.6997 231.427L146.661 261.427Z" fill="#8BC5E4"/>
<path d="M196.137 224.652C197.471 221.992 198.25 220.912 199.913 219.952L147.952 189.952C146.289 190.912 145.509 191.992 144.176 194.652L196.137 224.652Z" fill="#8BC5E4"/>
<path d="M199.913 219.952C201.128 219.251 201.879 219.178 202.737 219.669L150.776 189.669C149.918 189.178 149.167 189.251 147.952 189.952L199.913 219.952Z" fill="#8BC5E4"/>
<path d="M202.734 219.668C203.026 219.834 203.329 220.065 203.667 220.359L151.706 190.359C151.368 190.065 151.065 189.834 150.773 189.668L202.734 219.668Z" fill="#8BC5E4"/>
<path d="M203.672 220.362C205.014 221.527 206.4 223.837 208.132 226.107L156.17 196.107C154.438 193.837 153.053 191.527 151.71 190.362L203.672 220.362Z" fill="#8BC5E4"/>
<path d="M208.132 226.107C208.14 226.112 208.149 226.127 208.158 226.132L156.196 196.132C156.188 196.127 156.179 196.112 156.17 196.107L208.132 226.107Z" fill="#8BC5E4"/>
<path d="M208.158 226.132C207.101 228.852 206.114 231.392 205.066 233.507L153.104 203.507C154.152 201.392 155.14 198.852 156.196 196.132L208.158 226.132Z" fill="#8BC5E4"/>
<path d="M205.066 233.507C203.55 236.572 202.147 238.552 199.913 239.842L147.952 209.842C150.186 208.552 151.589 206.572 153.104 203.507L205.066 233.507Z" fill="#8BC5E4"/>
<path d="M199.913 239.842C198.119 240.878 196.87 240.876 195.669 240.182L143.707 210.182C144.908 210.876 146.157 210.878 147.952 209.842L199.913 239.842Z" fill="#8BC5E4"/>
<path d="M195.663 240.179C195.36 240.003 195.061 239.784 194.756 239.526L142.795 209.526C143.1 209.784 143.399 210.003 143.702 210.179L195.663 240.179Z" fill="#8BC5E4"/>
<path d="M194.752 239.522C193.704 238.637 192.708 237.232 191.651 235.692L139.69 205.692C140.746 207.232 141.742 208.637 142.79 209.522L194.752 239.522Z" fill="#8BC5E4"/>
<path d="M191.651 235.692C191.677 235.637 191.695 235.587 191.712 235.537L139.751 205.537C139.733 205.587 139.716 205.637 139.69 205.692L191.651 235.692Z" fill="#8BC5E4"/>
<path d="M191.712 235.537C193.427 231.207 194.812 227.317 196.137 224.652L144.176 194.652C142.851 197.317 141.465 201.207 139.75 205.537L191.712 235.537Z" fill="#8BC5E4"/>
<path d="M240.807 198.802C241.976 196.347 242.652 195.277 245.024 193.907L193.063 163.907C190.69 165.277 190.015 166.347 188.845 168.802L240.807 198.802Z" fill="#8BC5E4"/>
<path d="M245.024 193.907C247.281 192.604 249.11 192.537 250.416 193.266L198.455 163.266C197.149 162.537 195.32 162.604 193.063 163.907L245.024 193.907Z" fill="#8BC5E4"/>
<path d="M250.415 193.264C251.895 194.089 252.704 195.936 252.706 198.166L200.745 168.166C200.743 165.936 199.934 164.089 198.454 163.264L250.415 193.264Z" fill="#8BC5E4"/>
<path d="M254.508 197.132C254.508 198.002 253.512 201.897 251.728 205.467L199.766 175.467C201.55 171.897 202.546 168.002 202.546 167.132L254.508 197.132Z" fill="#8BC5E4"/>
<path d="M251.728 205.467C249.935 209.052 247.536 212.347 245.024 213.797L193.063 183.797C195.574 182.347 197.973 179.052 199.766 175.467L251.728 205.467Z" fill="#8BC5E4"/>
<path d="M245.025 213.797C243.043 214.941 241.774 214.971 240.67 214.343L188.708 184.343C189.812 184.971 191.081 184.941 193.063 183.797L245.025 213.797Z" fill="#8BC5E4"/>
<path d="M240.672 214.345C240.282 214.123 239.911 213.818 239.538 213.451L187.577 183.451C187.95 183.818 188.321 184.123 188.711 184.345L240.672 214.345Z" fill="#8BC5E4"/>
<path d="M239.534 213.447C238.573 212.502 237.724 211.082 236.78 209.627L184.818 179.627C185.762 181.082 186.611 182.502 187.572 183.447L239.534 213.447Z" fill="#8BC5E4"/>
<path d="M236.78 209.627C236.814 209.527 236.858 209.422 236.892 209.322L184.931 179.322C184.896 179.422 184.853 179.527 184.818 179.627L236.78 209.627Z" fill="#8BC5E4"/>
<path d="M236.893 209.322C238.495 205.007 239.629 201.272 240.807 198.802L188.845 168.802C187.668 171.272 186.533 175.007 184.931 179.322L236.893 209.322Z" fill="#8BC5E4"/>
<path d="M62.423 147.322C56.6726 150.642 51.9614 158.852 51.9614 165.572V341.142C51.9614 347.862 56.6726 350.642 62.423 347.322L263.194 231.407C268.953 228.082 273.664 219.862 273.664 213.142V37.5724C273.664 30.8524 268.953 28.0824 263.194 31.4074L62.423 147.322ZM62.423 152.842L263.194 36.9274C266.415 35.0674 268.935 36.5424 268.935 40.3024V150.022C267.047 148.532 266.415 149.007 263.194 150.867L246.956 160.242V88.8024C259.79 72.1824 265.748 57.3624 265.748 40.3724L60.3619 158.742C60.3619 177.232 66.095 182.882 73.257 184.997V260.527L62.423 266.782C59.2101 268.637 58.1015 269.587 56.6899 272.562V162.842C56.6899 159.082 59.2101 154.697 62.423 152.842ZM80.3064 186.237C81.8393 186.402 83.3808 186.552 84.879 186.737C93.9463 187.162 104.157 185.507 114.921 182.322V236.472L80.3064 256.457V186.237ZM239.906 97.3524V164.312L205.291 184.297V131.107C208.53 128.437 211.648 125.747 214.592 123.087C224.56 113.732 232.969 105.287 239.906 97.3524ZM121.971 180.052C133.264 176.112 145.016 170.667 156.577 164.282V212.422L121.971 232.402V180.052ZM198.242 136.757V188.367L163.635 208.347V160.257C175.786 153.112 187.572 145.047 198.242 136.757ZM109.691 263.662C113.822 261.277 116.939 262.427 119.078 264.222C120.308 265.242 121.33 266.512 122.231 267.732C123.019 265.957 123.859 264.172 124.76 262.442C126.864 258.387 129.211 254.482 132.242 252.732C135.039 251.117 137.395 251.767 139.447 253.222C140.443 253.917 141.387 254.832 142.297 255.887C143.336 253.197 144.427 250.577 145.752 248.042C147.9 243.932 151.052 239.782 154.802 237.617C158.846 235.282 161.938 236.377 164.042 238.142C165.264 239.157 166.294 240.422 167.221 241.657C167.905 239.962 168.632 238.252 169.446 236.582C171.369 232.632 173.95 228.652 177.353 226.687C180.696 224.757 183.26 225.547 185.182 227.217C186.014 227.947 186.758 228.837 187.477 229.782C188.386 227.417 189.374 224.987 190.577 222.562C192.656 218.402 195.886 213.897 199.913 211.572C203.975 209.227 207.188 210.092 209.258 211.867C210.461 212.912 211.44 214.207 212.349 215.502C213.068 213.737 213.813 211.977 214.644 210.287C216.55 206.397 219.113 202.577 222.465 200.642C225.885 198.667 228.449 199.697 230.371 201.447C231.107 202.112 231.774 202.897 232.415 203.707C233.16 201.567 234 199.322 235.1 197.007C237.144 192.717 240.634 188.062 245.024 185.527C253.737 180.497 259.894 185.272 259.894 194.022L258.101 195.057C258.101 197.967 256.716 202.097 254.499 206.527C252.282 210.957 249.034 215.672 245.024 217.987C241.179 220.207 238.46 219.387 236.65 217.612C235.923 216.892 235.299 216.042 234.71 215.172C233.853 217.377 232.9 219.647 231.783 221.882C229.653 226.162 226.492 230.777 222.465 233.102C218.429 235.432 215.311 234.352 213.233 232.522C212.098 231.517 211.146 230.287 210.254 229.052C209.517 230.907 208.738 232.747 207.863 234.522C205.975 238.332 203.36 242.042 199.913 244.032C196.475 246.017 193.86 245.387 191.972 243.777C191.088 243.027 190.309 242.087 189.573 241.072C188.681 243.357 187.72 245.692 186.576 248.002C184.489 252.227 181.363 256.832 177.353 259.147C173.214 261.537 170.113 260.277 168.035 258.407C166.909 257.397 165.965 256.192 165.108 255.007C164.354 256.822 163.549 258.667 162.657 260.442C160.717 264.312 158.145 268.147 154.802 270.077C151.615 271.917 149.052 271.517 147.112 270.037C146.133 269.292 145.258 268.297 144.418 267.162C143.284 269.877 142.089 272.497 140.772 274.947C138.555 279.077 135.819 283.127 132.242 285.192C128.198 287.527 125.634 285.907 123.4 284.197C122.179 283.262 121.07 282.122 120.083 280.962C119.364 282.717 118.576 284.522 117.701 286.277C115.718 290.212 113.085 294.162 109.691 296.122C106.331 298.062 103.629 297.352 101.585 295.772C100.779 295.147 100.06 294.382 99.4023 293.542C98.6402 295.532 97.7742 297.592 96.7436 299.657C94.5612 304.047 91.3136 308.822 87.1307 311.237C82.7919 313.742 79.3192 312.847 76.7471 311.042C74.1836 309.242 72.2611 306.692 72.2611 302.352L74.0711 301.307C74.201 297.972 75.8291 293.692 78.0808 289.512C80.419 285.162 83.5714 280.832 87.1307 278.777C90.6208 276.762 93.3488 277.587 95.358 279.297C96.0681 279.907 96.709 280.637 97.2979 281.407C98.1379 279.272 99.0992 277.057 100.225 274.877C102.459 270.577 105.646 265.997 109.691 263.662ZM87.1307 282.967C85.1215 284.127 82.636 287.272 80.7308 290.802C78.9814 294.052 77.8469 297.537 77.6824 299.222L79.4491 298.202C79.4491 298.712 80.3757 301.157 82.0558 302.337C83.7359 303.517 85.901 303.577 87.1307 302.867C88.5337 302.057 89.7201 300.492 91.1837 297.567C92.6386 294.637 93.9983 290.792 95.1848 287.277C95.2194 287.167 95.2627 287.052 95.2973 286.942C94.4746 285.627 93.5739 284.407 92.5694 283.557C90.9326 282.152 89.2265 281.757 87.1307 282.967ZM132.242 256.922C131.255 257.492 129.323 260.057 127.47 263.617C126.344 265.787 125.236 268.227 124.249 270.567C125.53 272.307 127.193 274.317 128.83 275.572C130.545 276.892 132.277 276.802 132.242 276.822C132.692 276.562 133.896 275.277 135.464 272.372C136.996 269.507 138.694 265.497 140.305 261.187C139.144 259.667 137.958 258.392 136.789 257.567C135.065 256.352 133.472 256.212 132.242 256.922ZM177.353 230.877C175.422 231.992 173.88 234.232 172.261 237.557C171.248 239.642 170.295 242.032 169.334 244.477C170.884 246.492 172.278 248.697 173.673 249.952C175.136 251.267 176.158 251.467 177.353 250.777C178.696 250.002 179.579 248.822 180.982 245.972C182.35 243.202 183.779 239.307 185.407 235.147C184.394 233.702 183.407 232.352 182.385 231.462C180.809 230.092 179.362 229.717 177.353 230.877ZM222.465 204.832C220.481 205.977 219.026 208.057 217.45 211.277C216.428 213.367 215.45 215.832 214.436 218.417C216.073 220.602 217.485 222.837 218.853 224.047C220.273 225.307 221.165 225.482 222.465 224.732C223.781 223.972 224.794 222.647 226.223 219.792C227.587 217.058 228.968 213.319 230.389 209.469C230.421 209.383 230.452 209.298 230.484 209.212C229.514 207.892 228.553 206.587 227.539 205.662C225.929 204.192 224.396 203.717 222.465 204.832ZM109.691 272.042C108.4 272.787 107.153 274.347 105.672 277.202C104.191 280.057 102.788 283.817 101.637 287.232C101.55 287.482 101.455 287.767 101.36 288.042C102.243 289.392 103.23 290.632 104.304 291.472C105.975 292.757 107.707 293.077 109.691 291.932C111.631 290.812 113.276 288.492 114.93 285.207C116.004 283.067 116.991 280.637 117.944 278.237C117.927 278.207 117.901 278.182 117.883 278.162C116.463 276.212 115.025 274.002 113.544 272.757C112.064 271.512 110.894 271.347 109.691 272.042ZM154.802 245.997C153.286 246.872 152.507 247.852 151.173 250.412C149.84 252.972 148.367 256.842 146.661 261.427C146.618 261.552 146.566 261.692 146.514 261.822C147.657 263.492 148.722 264.887 149.814 265.727C151.355 266.897 152.723 267.087 154.802 265.887C156.725 264.777 158.266 262.597 159.886 259.382C160.968 257.227 161.99 254.707 163.021 252.152C161.418 250.107 159.955 247.882 158.5 246.672C157.045 245.452 156.014 245.297 154.802 245.997ZM199.913 219.952C198.25 220.912 197.471 221.992 196.137 224.652C194.812 227.317 193.427 231.207 191.712 235.537C191.695 235.587 191.677 235.637 191.651 235.692C192.708 237.232 193.704 238.637 194.752 239.522C196.267 240.807 197.662 241.142 199.913 239.842C202.148 238.552 203.551 236.572 205.066 233.507C206.114 231.392 207.101 228.852 208.158 226.132C208.149 226.127 208.14 226.112 208.132 226.107C206.4 223.837 205.014 221.527 203.672 220.362C202.338 219.202 201.541 219.012 199.913 219.952ZM245.024 193.907C242.652 195.277 241.976 196.347 240.807 198.802C239.629 201.272 238.495 205.007 236.892 209.322C236.858 209.422 236.815 209.527 236.78 209.627C237.724 211.082 238.573 212.502 239.534 213.447C240.963 214.852 242.34 215.347 245.024 213.797C247.536 212.347 249.935 209.052 251.728 205.467C253.512 201.897 254.507 198.002 254.507 197.132L252.706 198.172C252.706 193.972 249.84 191.127 245.024 193.907Z" fill="#8BC5E4"/>
<path d="M198.242 136.757V188.367L163.635 208.347V160.257C175.786 153.112 187.572 145.047 198.242 136.757Z" fill="white"/>
<path d="M62.423 152.842L263.194 36.9274C266.415 35.0674 268.935 36.5424 268.935 40.3024V150.022C267.047 148.532 266.415 149.007 263.194 150.867L246.956 160.242V88.8024C259.79 72.1824 265.748 57.3624 265.748 40.3724L60.3619 158.742C60.3619 177.232 66.095 182.882 73.257 184.997V260.527L62.423 266.782C59.2101 268.637 58.1015 269.587 56.6899 272.562V162.842C56.6899 159.082 59.2101 154.697 62.423 152.842Z" fill="white"/>
<path d="M80.3064 186.237C81.8393 186.402 83.3808 186.552 84.879 186.737C93.9463 187.162 104.157 185.507 114.921 182.322V236.472L80.3064 256.457V186.237Z" fill="white"/>
<path d="M121.971 180.052C133.264 176.112 145.016 170.667 156.577 164.282V212.422L121.971 232.402V180.052Z" fill="white"/>
<path d="M239.906 97.3524V164.312L205.291 184.297V131.107C208.53 128.437 211.648 125.747 214.592 123.087C224.56 113.732 232.969 105.287 239.906 97.3524Z" fill="white"/>
<path fill-rule="evenodd" clip-rule="evenodd" d="M109.691 263.662C113.822 261.277 116.939 262.427 119.078 264.222C120.308 265.242 121.33 266.512 122.231 267.732C123.019 265.957 123.859 264.172 124.76 262.442C126.864 258.387 129.211 254.482 132.242 252.732C135.039 251.117 137.395 251.767 139.447 253.222C140.443 253.917 141.387 254.832 142.297 255.887C143.336 253.197 144.427 250.577 145.752 248.042C147.9 243.932 151.052 239.782 154.802 237.617C158.846 235.282 161.938 236.377 164.042 238.142C165.264 239.157 166.294 240.422 167.221 241.657C167.905 239.962 168.632 238.252 169.446 236.582C171.369 232.632 173.95 228.652 177.353 226.687C180.696 224.757 183.26 225.547 185.182 227.217C186.014 227.947 186.758 228.837 187.477 229.782C188.386 227.417 189.374 224.987 190.577 222.562C192.656 218.402 195.886 213.897 199.913 211.572C203.975 209.227 207.188 210.092 209.258 211.867C210.461 212.912 211.44 214.207 212.349 215.502C213.068 213.737 213.813 211.977 214.644 210.287C216.55 206.397 219.113 202.577 222.465 200.642C225.885 198.667 228.449 199.697 230.371 201.447C231.107 202.112 231.774 202.897 232.415 203.707C233.16 201.567 234 199.322 235.1 197.007C237.144 192.717 240.634 188.062 245.024 185.527C253.737 180.497 259.894 185.272 259.894 194.022L258.101 195.057C258.101 197.967 256.716 202.097 254.499 206.527C252.282 210.957 249.034 215.672 245.024 217.987C241.179 220.207 238.46 219.387 236.65 217.612C235.923 216.892 235.299 216.042 234.71 215.172C233.853 217.377 232.9 219.647 231.783 221.882C229.653 226.162 226.492 230.777 222.465 233.102C218.429 235.432 215.311 234.352 213.233 232.522C212.098 231.517 211.146 230.287 210.254 229.052C209.517 230.907 208.738 232.747 207.863 234.522C205.975 238.332 203.36 242.042 199.913 244.032C196.475 246.017 193.86 245.387 191.972 243.777C191.088 243.027 190.309 242.087 189.573 241.072C188.681 243.357 187.72 245.692 186.576 248.002C184.489 252.227 181.363 256.832 177.353 259.147C173.214 261.537 170.113 260.277 168.035 258.407C166.909 257.397 165.965 256.192 165.108 255.007C164.354 256.822 163.549 258.667 162.657 260.442C160.717 264.312 158.145 268.147 154.802 270.077C151.615 271.917 149.052 271.517 147.112 270.037C146.133 269.292 145.258 268.297 144.418 267.162C143.284 269.877 142.089 272.497 140.772 274.947C138.555 279.077 135.819 283.127 132.242 285.192C128.198 287.527 125.634 285.907 123.4 284.197C122.179 283.262 121.07 282.122 120.083 280.962C119.364 282.717 118.576 284.522 117.701 286.277C115.718 290.212 113.085 294.162 109.691 296.122C106.331 298.062 103.629 297.352 101.585 295.772C100.779 295.147 100.06 294.382 99.4023 293.542C98.6402 295.532 97.7742 297.592 96.7436 299.657C94.5612 304.047 91.3136 308.822 87.1307 311.237C82.7919 313.742 79.3192 312.847 76.7471 311.042C74.1836 309.242 72.2611 306.692 72.2611 302.352L74.0711 301.307C74.201 297.972 75.8291 293.692 78.0808 289.512C80.419 285.162 83.5714 280.832 87.1307 278.777C90.6208 276.762 93.3488 277.587 95.358 279.297C96.0681 279.907 96.709 280.637 97.2979 281.407C98.1379 279.272 99.0992 277.057 100.225 274.877C102.459 270.577 105.646 265.997 109.691 263.662ZM80.7308 290.802C82.636 287.272 85.1215 284.127 87.1307 282.967C89.2265 281.757 90.9326 282.152 92.5694 283.557C93.5739 284.407 94.4746 285.627 95.2973 286.942C95.2627 287.052 95.2194 287.167 95.1848 287.277C93.9983 290.792 92.6386 294.637 91.1837 297.567C89.7201 300.492 88.5337 302.057 87.1307 302.867C85.901 303.577 83.7359 303.517 82.0558 302.337C80.3757 301.157 79.4491 298.712 79.4491 298.202L77.6824 299.222C77.8469 297.537 78.9814 294.052 80.7308 290.802ZM127.47 263.617C129.323 260.057 131.255 257.492 132.242 256.922C133.472 256.212 135.065 256.352 136.789 257.567C137.958 258.392 139.144 259.667 140.305 261.187C138.694 265.497 136.996 269.507 135.464 272.372C133.896 275.277 132.692 276.562 132.242 276.822C132.277 276.802 130.545 276.892 128.83 275.572C127.193 274.317 125.53 272.307 124.249 270.567C125.236 268.227 126.344 265.787 127.47 263.617ZM172.261 237.557C173.88 234.232 175.422 231.992 177.353 230.877C179.362 229.717 180.809 230.092 182.385 231.462C183.407 232.352 184.394 233.702 185.407 235.147C183.779 239.307 182.35 243.202 180.982 245.972C179.579 248.822 178.696 250.002 177.353 250.777C176.158 251.467 175.136 251.267 173.673 249.952C172.278 248.697 170.884 246.492 169.334 244.477C170.295 242.032 171.248 239.642 172.261 237.557ZM217.45 211.277C219.026 208.057 220.481 205.977 222.465 204.832C224.396 203.717 225.929 204.192 227.539 205.662C228.553 206.587 229.514 207.892 230.484 209.212L230.389 209.469C228.968 213.319 227.587 217.058 226.223 219.792C224.794 222.647 223.781 223.972 222.465 224.732C221.165 225.482 220.273 225.307 218.853 224.047C217.485 222.837 216.073 220.602 214.436 218.417C215.45 215.832 216.428 213.367 217.45 211.277ZM105.672 277.202C107.153 274.347 108.4 272.787 109.691 272.042C110.894 271.347 112.064 271.512 113.544 272.757C115.025 274.002 116.463 276.212 117.883 278.162C117.901 278.182 117.927 278.207 117.944 278.237C116.991 280.637 116.004 283.067 114.93 285.207C113.276 288.492 111.631 290.812 109.691 291.932C107.707 293.077 105.975 292.757 104.304 291.472C103.23 290.632 102.243 289.392 101.36 288.042C101.455 287.767 101.55 287.482 101.637 287.232C102.788 283.817 104.191 280.057 105.672 277.202ZM151.173 250.412C152.507 247.852 153.286 246.872 154.802 245.997C156.014 245.297 157.045 245.452 158.5 246.672C159.955 247.882 161.418 250.107 163.021 252.152C161.99 254.707 160.968 257.227 159.886 259.382C158.266 262.597 156.725 264.777 154.802 265.887C152.723 267.087 151.355 266.897 149.814 265.727C148.722 264.887 147.657 263.492 146.514 261.822C146.566 261.692 146.618 261.552 146.661 261.427C148.367 256.842 149.84 252.972 151.173 250.412ZM196.137 224.652C197.471 221.992 198.25 220.912 199.913 219.952C201.541 219.012 202.338 219.202 203.672 220.362C205.014 221.527 206.4 223.837 208.132 226.107C208.14 226.112 208.149 226.127 208.158 226.132C207.101 228.852 206.114 231.392 205.066 233.507C203.551 236.572 202.148 238.552 199.913 239.842C197.662 241.142 196.267 240.807 194.752 239.522C193.704 238.637 192.708 237.232 191.651 235.692C191.677 235.637 191.695 235.587 191.712 235.537C193.427 231.207 194.812 227.317 196.137 224.652ZM240.807 198.802C241.976 196.347 242.652 195.277 245.024 193.907C249.84 191.127 252.706 193.972 252.706 198.172L254.507 197.132C254.507 198.002 253.512 201.897 251.728 205.467C249.935 209.052 247.536 212.347 245.024 213.797C242.34 215.347 240.963 214.852 239.534 213.447C238.573 212.502 237.724 211.082 236.78 209.627C236.815 209.527 236.858 209.422 236.892 209.322C238.495 205.007 239.629 201.272 240.807 198.802Z" fill="white"/>
</svg>
