<svg width="226" height="326" viewBox="0 0 226 326" fill="none" xmlns="http://www.w3.org/2000/svg">
<path d="M77.8037 93.7823V125.362L129.765 95.3623V63.7823L77.8037 93.7823Z" fill="#8BC5E4"/>
<path d="M77.8037 125.362L82.9566 128.337L134.918 98.3374L129.765 95.3624L77.8037 125.362Z" fill="#8BC5E4"/>
<path d="M82.9565 128.337V107.747L134.918 77.7474V98.3374L82.9565 128.337Z" fill="#8BC5E4"/>
<path d="M82.9565 107.747L94.0329 134.732L145.995 104.732L134.918 77.7474L82.9565 107.747Z" fill="#8BC5E4"/>
<path d="M94.0332 134.732L99.6104 137.952L151.572 107.952L145.995 104.732L94.0332 134.732Z" fill="#8BC5E4"/>
<path d="M99.6104 137.952V106.372L151.572 76.3724V107.952L99.6104 137.952Z" fill="#8BC5E4"/>
<path d="M99.6102 106.372L94.4487 103.392L146.41 73.3924L151.572 76.3724L99.6102 106.372Z" fill="#8BC5E4"/>
<path d="M94.4487 103.392V124.482L146.41 94.4824V73.3924L94.4487 103.392Z" fill="#8BC5E4"/>
<path d="M94.449 124.482L83.208 96.9025L135.17 66.9025L146.411 94.4825L94.449 124.482Z" fill="#8BC5E4"/>
<path d="M83.2077 96.9023L77.8037 93.7823L129.765 63.7823L135.169 66.9023L83.2077 96.9023Z" fill="#8BC5E4"/>
<path d="M77.8037 93.7823L129.765 63.7823L77.8037 93.7823Z" fill="#8BC5E4"/>
<path d="M89.3565 138.522L79.8389 149.427L131.8 119.427L141.318 108.522L89.3565 138.522Z" fill="#8BC5E4"/>
<path d="M79.8389 149.427L85.9877 152.977L137.949 122.977L131.8 119.427L79.8389 149.427Z" fill="#8BC5E4"/>
<path d="M85.9878 152.977V166.137L137.949 136.137V122.977L85.9878 152.977Z" fill="#8BC5E4"/>
<path d="M80.9735 169.012L69.5073 162.392L121.469 132.392L132.935 139.012L80.9735 169.012Z" fill="#8BC5E4"/>
<path d="M69.5073 162.392V155.332L121.469 125.332V132.392L69.5073 162.392Z" fill="#8BC5E4"/>
<path d="M69.5075 155.332L55.2441 158.037L107.206 128.037L121.469 125.332L69.5075 155.332Z" fill="#8BC5E4"/>
<path d="M55.2441 158.037L69.5075 177.212L121.469 147.212L107.206 128.037L55.2441 158.037Z" fill="#8BC5E4"/>
<path d="M69.5073 177.212V170.152L121.469 140.152V147.212L69.5073 177.212Z" fill="#8BC5E4"/>
<path d="M69.5073 170.152L80.9648 176.767L132.926 146.767L121.469 140.152L69.5073 170.152Z" fill="#8BC5E4"/>
<path d="M85.9878 185.437V198.607L137.949 168.607V155.437L85.9878 185.437Z" fill="#8BC5E4"/>
<path d="M85.9877 198.607L79.8389 195.057L131.8 165.057L137.949 168.607L85.9877 198.607Z" fill="#8BC5E4"/>
<path d="M79.8389 195.057L89.3565 216.942L141.318 186.942L131.8 165.057L79.8389 195.057Z" fill="#8BC5E4"/>
<path d="M89.3564 216.942L98.874 206.047L150.836 176.047L141.318 186.942L89.3564 216.942Z" fill="#8BC5E4"/>
<path d="M98.874 206.047L92.7339 202.502L144.695 172.502L150.835 176.047L98.874 206.047Z" fill="#8BC5E4"/>
<path d="M92.7339 202.502V189.332L144.695 159.332V172.502L92.7339 202.502Z" fill="#8BC5E4"/>
<path d="M97.748 186.457L109.214 193.077L161.176 163.077L149.71 156.457L97.748 186.457Z" fill="#8BC5E4"/>
<path d="M109.215 193.077V200.137L161.176 170.137V163.077L109.215 193.077Z" fill="#8BC5E4"/>
<path d="M109.215 200.137L123.478 197.432L175.44 167.432L161.176 170.137L109.215 200.137Z" fill="#8BC5E4"/>
<path d="M123.478 197.432L109.215 178.257L161.176 148.257L175.44 167.432L123.478 197.432Z" fill="#8BC5E4"/>
<path d="M109.215 178.257V185.317L161.176 155.317V148.257L109.215 178.257Z" fill="#8BC5E4"/>
<path d="M109.214 185.317L97.7568 178.702L149.718 148.702L161.176 155.317L109.214 185.317Z" fill="#8BC5E4"/>
<path d="M92.7339 170.042V156.872L144.695 126.872V140.042L92.7339 170.042Z" fill="#8BC5E4"/>
<path d="M92.7339 156.872L98.874 160.417L150.835 130.417L144.695 126.872L92.7339 156.872Z" fill="#8BC5E4"/>
<path d="M98.874 160.417L89.3564 138.522L141.318 108.522L150.836 130.417L98.874 160.417Z" fill="#8BC5E4"/>
<path d="M89.3564 138.522L141.318 108.522L89.3564 138.522Z" fill="#8BC5E4"/>
<path d="M130.493 185.232V216.822L182.454 186.822V155.232L130.493 185.232Z" fill="#8BC5E4"/>
<path d="M130.493 216.822L151.399 228.892L203.36 198.892L182.454 186.822L130.493 216.822Z" fill="#8BC5E4"/>
<path d="M151.398 228.892V223.572L203.36 193.572V198.892L151.398 228.892Z" fill="#8BC5E4"/>
<path d="M151.399 223.572L136.044 214.707L188.006 184.707L203.36 193.572L151.399 223.572Z" fill="#8BC5E4"/>
<path d="M136.044 214.707V206.107L188.006 176.107V184.707L136.044 214.707Z" fill="#8BC5E4"/>
<path d="M136.044 206.107L149.84 214.072L201.801 184.072L188.006 176.107L136.044 206.107Z" fill="#8BC5E4"/>
<path d="M149.84 214.072V208.752L201.801 178.752V184.072L149.84 214.072Z" fill="#8BC5E4"/>
<path d="M149.84 208.752L136.044 200.787L188.006 170.787L201.801 178.752L149.84 208.752Z" fill="#8BC5E4"/>
<path d="M136.044 200.787V193.787L188.006 163.787V170.787L136.044 200.787Z" fill="#8BC5E4"/>
<path d="M136.044 193.787L150.87 202.347L202.832 172.347L188.006 163.787L136.044 193.787Z" fill="#8BC5E4"/>
<path d="M150.87 202.347V196.997L202.832 166.997V172.347L150.87 202.347Z" fill="#8BC5E4"/>
<path d="M150.87 196.997L130.493 185.232L182.454 155.232L202.832 166.997L150.87 196.997Z" fill="#8BC5E4"/>
<path d="M130.493 185.232L182.454 155.232L130.493 185.232Z" fill="#8BC5E4"/>
<path d="M13.2935 117.657L19.8493 153.022L71.8108 123.022L65.255 87.6574L13.2935 117.657Z" fill="#8BC5E4"/>
<path d="M19.8496 153.022L25.8685 156.497L77.83 126.497L71.8111 123.022L19.8496 153.022Z" fill="#8BC5E4"/>
<path d="M25.8682 156.497L31.3241 136.037L83.2857 106.037L77.8297 126.497L25.8682 156.497Z" fill="#8BC5E4"/>
<path d="M31.3242 136.037L36.7975 162.807L88.759 132.807L83.2858 106.037L31.3242 136.037Z" fill="#8BC5E4"/>
<path d="M36.7974 162.807L42.6864 166.207L94.6479 136.207L88.7589 132.807L36.7974 162.807Z" fill="#8BC5E4"/>
<path d="M42.6865 166.207L49.3635 138.482L101.325 108.482L94.648 136.207L42.6865 166.207Z" fill="#8BC5E4"/>
<path d="M49.3631 138.482L43.7773 135.257L95.7388 105.257L101.325 108.482L49.3631 138.482Z" fill="#8BC5E4"/>
<path d="M43.778 135.257L39.5518 154.877L91.5133 124.877L95.7395 105.257L43.778 135.257Z" fill="#8BC5E4"/>
<path d="M39.5514 154.877L34.7363 130.037L86.6978 100.037L91.5129 124.877L39.5514 154.877Z" fill="#8BC5E4"/>
<path d="M34.7363 130.037L28.1372 126.227L80.0987 96.2274L86.6978 100.037L34.7363 130.037Z" fill="#8BC5E4"/>
<path d="M28.1373 126.227L23.1143 145.017L75.0758 115.017L80.0988 96.2274L28.1373 126.227Z" fill="#8BC5E4"/>
<path d="M23.1142 145.017L18.9746 120.937L70.9361 90.9374L75.0757 115.017L23.1142 145.017Z" fill="#8BC5E4"/>
<path d="M18.9746 120.937L13.2935 117.657L65.255 87.6574L70.9361 90.9374L18.9746 120.937Z" fill="#8BC5E4"/>
<path d="M13.2935 117.657L65.255 87.6574L13.2935 117.657Z" fill="#8BC5E4"/>
<path d="M82.2723 243.512L76.877 240.997L128.838 210.997L134.234 213.512L82.2723 243.512Z" fill="#8BC5E4"/>
<path d="M92.8809 238.237L98.4322 241.162L150.394 211.162L144.842 208.237L92.8809 238.237Z" fill="#8BC5E4"/>
<path d="M87.9014 225.522L139.863 195.522L87.9014 225.522Z" fill="#8BC5E4"/>
<path d="M10.626 36.9674L162.579 124.697L214.54 94.6974L62.5876 6.96741L10.626 36.9674Z" fill="#8BC5E4"/>
<path d="M168.407 134.752V310.322L220.369 280.322V104.752L168.407 134.752Z" fill="#8BC5E4"/>
<path d="M162.579 313.657L10.626 225.927L62.5876 195.927L214.54 283.657L162.579 313.657Z" fill="#8BC5E4"/>
<path d="M4.79785 215.862V40.2924L56.7593 10.2924V185.862L4.79785 215.862Z" fill="#8BC5E4"/>
<path d="M10.626 36.9674L62.5876 6.96741L10.626 36.9674Z" fill="#8BC5E4"/>
<path d="M0 37.5224V213.092L51.9615 183.092V7.5224L0 37.5224Z" fill="#8BC5E4"/>
<path d="M10.626 231.447L162.579 319.177L214.54 289.177L62.5876 201.447L10.626 231.447Z" fill="#8BC5E4"/>
<path d="M173.205 313.092V137.522L225.167 107.522V283.092L173.205 313.092Z" fill="#8BC5E4"/>
<path d="M162.579 119.177L10.626 31.4474L62.5876 1.44739L214.54 89.1774L162.579 119.177Z" fill="#8BC5E4"/>
<path d="M10.626 31.4474L62.5876 1.44739L10.626 31.4474Z" fill="#8BC5E4"/>
<path d="M10.626 36.9674L162.579 124.697L214.54 94.6974L62.5876 6.96741L10.626 36.9674Z" fill="#8BC5E4"/>
<path d="M168.407 134.752V310.322L220.369 280.322V104.752L168.407 134.752Z" fill="#8BC5E4"/>
<path d="M162.579 313.657L10.626 225.927L62.5876 195.927L214.54 283.657L162.579 313.657Z" fill="#8BC5E4"/>
<path d="M4.79785 215.862V40.2924L56.7593 10.2924V185.862L4.79785 215.862Z" fill="#8BC5E4"/>
<path d="M10.626 36.9674L62.5876 6.96741L10.626 36.9674Z" fill="#8BC5E4"/>
<path d="M77.8037 125.362V93.7823L129.765 63.7823V95.3623L77.8037 125.362Z" fill="#8BC5E4"/>
<path d="M77.8037 93.7823L83.2077 96.9023L135.169 66.9023L129.765 63.7823L77.8037 93.7823Z" fill="#8BC5E4"/>
<path d="M83.208 96.9025L94.449 124.482L146.411 94.4825L135.17 66.9025L83.208 96.9025Z" fill="#8BC5E4"/>
<path d="M94.4487 124.482V103.392L146.41 73.3924V94.4824L94.4487 124.482Z" fill="#8BC5E4"/>
<path d="M94.4487 103.392L99.6102 106.372L151.572 76.3724L146.41 73.3924L94.4487 103.392Z" fill="#8BC5E4"/>
<path d="M99.6104 106.372V137.952L151.572 107.952V76.3724L99.6104 106.372Z" fill="#8BC5E4"/>
<path d="M99.6104 137.952L94.0332 134.732L145.995 104.732L151.572 107.952L99.6104 137.952Z" fill="#8BC5E4"/>
<path d="M94.0329 134.732L82.9565 107.747L134.918 77.7474L145.995 104.732L94.0329 134.732Z" fill="#8BC5E4"/>
<path d="M82.9565 107.747V128.337L134.918 98.3374V77.7474L82.9565 107.747Z" fill="#8BC5E4"/>
<path d="M82.9566 128.337L77.8037 125.362L129.765 95.3624L134.918 98.3374L82.9566 128.337Z" fill="#8BC5E4"/>
<path d="M77.8037 125.362L129.765 95.3624L77.8037 125.362Z" fill="#8BC5E4"/>
<path d="M79.8389 149.427L89.3565 138.522L141.318 108.522L131.8 119.427L79.8389 149.427Z" fill="#8BC5E4"/>
<path d="M89.3564 138.522L98.874 160.417L150.836 130.417L141.318 108.522L89.3564 138.522Z" fill="#8BC5E4"/>
<path d="M98.874 160.417L92.7339 156.872L144.695 126.872L150.835 130.417L98.874 160.417Z" fill="#8BC5E4"/>
<path d="M92.7339 156.872V170.042L144.695 140.042V126.872L92.7339 156.872Z" fill="#8BC5E4"/>
<path d="M97.7568 178.702L109.214 185.317L161.176 155.317L149.718 148.702L97.7568 178.702Z" fill="#8BC5E4"/>
<path d="M109.215 185.317V178.257L161.176 148.257V155.317L109.215 185.317Z" fill="#8BC5E4"/>
<path d="M109.215 178.257L123.478 197.432L175.44 167.432L161.176 148.257L109.215 178.257Z" fill="#8BC5E4"/>
<path d="M123.478 197.432L109.215 200.137L161.176 170.137L175.44 167.432L123.478 197.432Z" fill="#8BC5E4"/>
<path d="M109.215 200.137V193.077L161.176 163.077V170.137L109.215 200.137Z" fill="#8BC5E4"/>
<path d="M109.214 193.077L97.748 186.457L149.71 156.457L161.176 163.077L109.214 193.077Z" fill="#8BC5E4"/>
<path d="M92.7339 189.332V202.502L144.695 172.502V159.332L92.7339 189.332Z" fill="#8BC5E4"/>
<path d="M92.7339 202.502L98.874 206.047L150.835 176.047L144.695 172.502L92.7339 202.502Z" fill="#8BC5E4"/>
<path d="M98.874 206.047L89.3564 216.942L141.318 186.942L150.836 176.047L98.874 206.047Z" fill="#8BC5E4"/>
<path d="M89.3565 216.942L79.8389 195.057L131.8 165.057L141.318 186.942L89.3565 216.942Z" fill="#8BC5E4"/>
<path d="M79.8389 195.057L85.9877 198.607L137.949 168.607L131.8 165.057L79.8389 195.057Z" fill="#8BC5E4"/>
<path d="M85.9878 198.607V185.437L137.949 155.437V168.607L85.9878 198.607Z" fill="#8BC5E4"/>
<path d="M80.9648 176.767L69.5073 170.152L121.469 140.152L132.926 146.767L80.9648 176.767Z" fill="#8BC5E4"/>
<path d="M69.5073 170.152V177.212L121.469 147.212V140.152L69.5073 170.152Z" fill="#8BC5E4"/>
<path d="M69.5075 177.212L55.2441 158.037L107.206 128.037L121.469 147.212L69.5075 177.212Z" fill="#8BC5E4"/>
<path d="M55.2441 158.037L69.5075 155.332L121.469 125.332L107.206 128.037L55.2441 158.037Z" fill="#8BC5E4"/>
<path d="M69.5073 155.332V162.392L121.469 132.392V125.332L69.5073 155.332Z" fill="#8BC5E4"/>
<path d="M69.5073 162.392L80.9735 169.012L132.935 139.012L121.469 132.392L69.5073 162.392Z" fill="#8BC5E4"/>
<path d="M85.9878 166.137V152.977L137.949 122.977V136.137L85.9878 166.137Z" fill="#8BC5E4"/>
<path d="M85.9877 152.977L79.8389 149.427L131.8 119.427L137.949 122.977L85.9877 152.977Z" fill="#8BC5E4"/>
<path d="M79.8389 149.427L131.8 119.427L79.8389 149.427Z" fill="#8BC5E4"/>
<path d="M130.493 216.822V185.232L182.454 155.232V186.822L130.493 216.822Z" fill="#8BC5E4"/>
<path d="M130.493 185.232L150.87 196.997L202.832 166.997L182.454 155.232L130.493 185.232Z" fill="#8BC5E4"/>
<path d="M150.87 196.997V202.347L202.832 172.347V166.997L150.87 196.997Z" fill="#8BC5E4"/>
<path d="M150.87 202.347L136.044 193.787L188.006 163.787L202.832 172.347L150.87 202.347Z" fill="#8BC5E4"/>
<path d="M136.044 193.787V200.787L188.006 170.787V163.787L136.044 193.787Z" fill="#8BC5E4"/>
<path d="M136.044 200.787L149.84 208.752L201.801 178.752L188.006 170.787L136.044 200.787Z" fill="#8BC5E4"/>
<path d="M149.84 208.752V214.072L201.801 184.072V178.752L149.84 208.752Z" fill="#8BC5E4"/>
<path d="M149.84 214.072L136.044 206.107L188.006 176.107L201.801 184.072L149.84 214.072Z" fill="#8BC5E4"/>
<path d="M136.044 206.107V214.707L188.006 184.707V176.107L136.044 206.107Z" fill="#8BC5E4"/>
<path d="M136.044 214.707L151.399 223.572L203.36 193.572L188.006 184.707L136.044 214.707Z" fill="#8BC5E4"/>
<path d="M151.398 223.572V228.892L203.36 198.892V193.572L151.398 223.572Z" fill="#8BC5E4"/>
<path d="M151.399 228.892L130.493 216.822L182.454 186.822L203.36 198.892L151.399 228.892Z" fill="#8BC5E4"/>
<path d="M130.493 216.822L182.454 186.822L130.493 216.822Z" fill="#8BC5E4"/>
<path d="M19.8493 153.022L13.2935 117.657L65.255 87.6574L71.8108 123.022L19.8493 153.022Z" fill="#8BC5E4"/>
<path d="M13.2935 117.657L18.9746 120.937L70.9361 90.9374L65.255 87.6574L13.2935 117.657Z" fill="#8BC5E4"/>
<path d="M18.9746 120.937L23.1142 145.017L75.0757 115.017L70.9361 90.9374L18.9746 120.937Z" fill="#8BC5E4"/>
<path d="M23.1143 145.017L28.1373 126.227L80.0988 96.2274L75.0758 115.017L23.1143 145.017Z" fill="#8BC5E4"/>
<path d="M28.1372 126.227L34.7363 130.037L86.6978 100.037L80.0987 96.2274L28.1372 126.227Z" fill="#8BC5E4"/>
<path d="M34.7363 130.037L39.5514 154.877L91.5129 124.877L86.6978 100.037L34.7363 130.037Z" fill="#8BC5E4"/>
<path d="M39.5518 154.877L43.778 135.257L95.7395 105.257L91.5133 124.877L39.5518 154.877Z" fill="#8BC5E4"/>
<path d="M43.7773 135.257L49.3631 138.482L101.325 108.482L95.7388 105.257L43.7773 135.257Z" fill="#8BC5E4"/>
<path d="M49.3635 138.482L42.6865 166.207L94.648 136.207L101.325 108.482L49.3635 138.482Z" fill="#8BC5E4"/>
<path d="M42.6864 166.207L36.7974 162.807L88.7589 132.807L94.6479 136.207L42.6864 166.207Z" fill="#8BC5E4"/>
<path d="M36.7975 162.807L31.3242 136.037L83.2858 106.037L88.759 132.807L36.7975 162.807Z" fill="#8BC5E4"/>
<path d="M31.3241 136.037L25.8682 156.497L77.8297 126.497L83.2857 106.037L31.3241 136.037Z" fill="#8BC5E4"/>
<path d="M25.8685 156.497L19.8496 153.022L71.8111 123.022L77.83 126.497L25.8685 156.497Z" fill="#8BC5E4"/>
<path d="M19.8496 153.022L71.8111 123.022L19.8496 153.022Z" fill="#8BC5E4"/>
<path d="M98.4322 241.162L92.8809 238.237L144.842 208.237L150.394 211.162L98.4322 241.162Z" fill="#8BC5E4"/>
<path d="M76.877 240.997L82.2723 243.512L134.234 213.512L128.838 210.997L76.877 240.997Z" fill="#8BC5E4"/>
<path d="M82.4805 223.482L134.442 193.482L82.4805 223.482Z" fill="#8BC5E4"/>
<path d="M85.9875 166.137C84.8448 166.007 83.8198 166.203 82.9668 166.693L134.928 136.693C135.781 136.203 136.806 136.007 137.949 136.137L85.9875 166.137Z" fill="#8BC5E4"/>
<path d="M82.9701 166.692C82.1171 167.181 81.4351 167.963 80.9761 169.006L132.938 139.006C133.397 137.963 134.079 137.181 134.932 136.692L82.9701 166.692Z" fill="#8BC5E4"/>
<path d="M80.9648 176.767C81.8915 179.932 83.7015 183.057 85.9878 185.437L137.949 155.437C135.663 153.057 133.853 149.932 132.926 146.767L80.9648 176.767Z" fill="#8BC5E4"/>
<path d="M92.7339 189.332C93.8769 189.462 94.9009 189.268 95.7539 188.78L147.715 158.78C146.862 159.268 145.838 159.462 144.695 159.332L92.7339 189.332Z" fill="#8BC5E4"/>
<path d="M95.752 188.781C96.605 188.293 97.286 187.511 97.746 186.463L149.707 156.463C149.247 157.511 148.566 158.293 147.713 158.781L95.752 188.781Z" fill="#8BC5E4"/>
<path d="M97.7568 178.702C96.8302 175.547 95.0202 172.412 92.7339 170.042L144.695 140.042C146.982 142.412 148.792 145.547 149.718 148.702L97.7568 178.702Z" fill="#8BC5E4"/>
<path d="M87.9018 225.522C85.7887 224.302 83.9787 223.617 82.4805 223.482L134.442 193.482C135.94 193.617 137.75 194.302 139.863 195.522L87.9018 225.522Z" fill="#8BC5E4"/>
<path d="M82.4806 223.482C81.4793 223.401 80.6353 223.56 79.9473 223.958L131.909 193.958C132.597 193.56 133.441 193.401 134.442 193.482L82.4806 223.482Z" fill="#8BC5E4"/>
<path d="M79.9507 223.955C79.6147 224.149 79.3167 224.399 79.0547 224.706L131.016 194.706C131.278 194.399 131.576 194.149 131.912 193.955L79.9507 223.955Z" fill="#8BC5E4"/>
<path d="M79.0508 224.712C78.2627 225.657 77.873 226.932 77.873 228.542L129.835 198.542C129.835 196.932 130.224 195.657 131.012 194.712L79.0508 224.712Z" fill="#8BC5E4"/>
<path d="M77.873 228.542C77.873 231.032 78.713 233.637 80.4018 236.352L132.363 206.352C130.675 203.637 129.835 201.032 129.835 198.542L77.873 228.542Z" fill="#8BC5E4"/>
<path d="M80.4019 236.352C81.597 238.282 83.6841 240.527 86.6633 243.087L138.625 213.087C135.646 210.527 133.558 208.282 132.363 206.352L80.4019 236.352Z" fill="#8BC5E4"/>
<path d="M86.6631 243.087C88.9753 245.092 90.4563 246.407 91.1058 247.032L143.067 217.032C142.418 216.407 140.937 215.092 138.625 213.087L86.6631 243.087Z" fill="#8BC5E4"/>
<path d="M91.106 247.032C92.0499 247.967 92.7168 248.812 93.0892 249.557L145.051 219.557C144.678 218.812 144.011 217.967 143.067 217.032L91.106 247.032Z" fill="#8BC5E4"/>
<path d="M93.0889 249.557C93.4786 250.302 93.6691 251.042 93.6691 251.792L145.631 221.792C145.631 221.042 145.44 220.302 145.05 219.557L93.0889 249.557Z" fill="#8BC5E4"/>
<path d="M93.6694 251.792C93.6691 252.798 93.3311 253.503 92.6421 253.901L144.604 223.901C145.293 223.503 145.631 222.798 145.631 221.792L93.6694 251.792Z" fill="#8BC5E4"/>
<path d="M92.6267 253.909C92.5267 253.966 92.4197 254.016 92.3057 254.06L144.267 224.06C144.381 224.016 144.488 223.966 144.588 223.909L92.6267 253.909Z" fill="#8BC5E4"/>
<path d="M92.3009 254.062C91.4089 254.407 90.0579 254.057 88.2739 253.027L140.235 223.027C142.019 224.057 143.37 224.407 144.262 224.062L92.3009 254.062Z" fill="#8BC5E4"/>
<path d="M88.2741 253.027C86.5853 252.052 85.243 250.787 84.2471 249.242L136.209 219.242C137.204 220.787 138.547 222.052 140.236 223.027L88.2741 253.027Z" fill="#8BC5E4"/>
<path d="M84.2471 249.242C83.2598 247.692 82.6016 245.782 82.2725 243.512L134.234 213.512C134.563 215.782 135.221 217.692 136.209 219.242L84.2471 249.242Z" fill="#8BC5E4"/>
<path d="M76.877 240.997C77.2407 244.737 78.3492 248.077 80.2112 251.002L132.173 221.002C130.311 218.077 129.202 214.737 128.838 210.997L76.877 240.997Z" fill="#8BC5E4"/>
<path d="M80.2114 251.002C82.0733 253.917 84.7407 256.377 88.2134 258.382L140.175 228.382C136.702 226.377 134.035 223.917 132.173 221.002L80.2114 251.002Z" fill="#8BC5E4"/>
<path d="M88.2134 258.382C90.6037 259.762 92.5955 260.532 94.1977 260.687L146.159 230.687C144.557 230.532 142.565 229.762 140.175 228.382L88.2134 258.382Z" fill="#8BC5E4"/>
<path d="M94.1973 260.687C95.2357 260.788 96.1217 260.627 96.8527 260.208L148.814 230.208C148.083 230.627 147.197 230.788 146.159 230.687L94.1973 260.687Z" fill="#8BC5E4"/>
<path d="M96.8491 260.21C97.2441 259.984 97.5951 259.681 97.8991 259.303L149.861 229.303C149.557 229.681 149.206 229.984 148.811 230.21L96.8491 260.21Z" fill="#8BC5E4"/>
<path d="M97.9043 259.297C98.7876 258.227 99.2206 256.787 99.2206 254.977L151.182 224.977C151.182 226.787 150.749 228.227 149.866 229.297L97.9043 259.297Z" fill="#8BC5E4"/>
<path d="M99.2208 254.977C99.2208 252.977 98.8571 251.097 98.1123 249.317L150.074 219.317C150.819 221.097 151.182 222.977 151.182 224.977L99.2208 254.977Z" fill="#8BC5E4"/>
<path d="M98.1122 249.317C97.3934 247.532 96.3802 245.877 95.0811 244.357L147.043 214.357C148.342 215.877 149.355 217.532 150.074 219.317L98.1122 249.317Z" fill="#8BC5E4"/>
<path d="M95.0809 244.357C93.7906 242.822 91.7987 240.912 89.0967 238.612L141.058 208.612C143.76 210.912 145.752 212.822 147.042 214.357L95.0809 244.357Z" fill="#8BC5E4"/>
<path d="M89.0966 238.612C86.4033 236.327 84.6972 234.642 84.0044 233.562L135.966 203.562C136.659 204.642 138.365 206.327 141.058 208.612L89.0966 238.612Z" fill="#8BC5E4"/>
<path d="M84.0043 233.562C83.45 232.712 83.1729 231.912 83.1729 231.172L135.134 201.172C135.134 201.912 135.411 202.712 135.966 203.562L84.0043 233.562Z" fill="#8BC5E4"/>
<path d="M83.1729 231.172C83.1728 230.512 83.3638 230.066 83.7448 229.844L135.706 199.844C135.325 200.066 135.134 200.512 135.134 201.172L83.1729 231.172Z" fill="#8BC5E4"/>
<path d="M83.752 229.84C83.841 229.789 83.94 229.751 84.05 229.724L136.011 199.724C135.901 199.751 135.802 199.789 135.713 199.84L83.752 229.84Z" fill="#8BC5E4"/>
<path d="M84.0566 229.722C84.966 229.477 86.2303 229.827 87.8412 230.757L139.803 200.757C138.192 199.827 136.928 199.477 136.018 199.722L84.0566 229.722Z" fill="#8BC5E4"/>
<path d="M87.8408 230.757C89.3996 231.657 90.5687 232.692 91.3482 233.862L143.31 203.862C142.53 202.692 141.361 201.657 139.802 200.757L87.8408 230.757Z" fill="#8BC5E4"/>
<path d="M91.3486 233.862C92.1366 235.017 92.6476 236.482 92.8814 238.237L144.843 208.237C144.609 206.482 144.098 205.017 143.31 203.862L91.3486 233.862Z" fill="#8BC5E4"/>
<path d="M98.4327 241.162C98.346 238.212 97.4281 235.362 95.6787 232.612L147.64 202.612C149.39 205.362 150.308 208.212 150.394 211.162L98.4327 241.162Z" fill="#8BC5E4"/>
<path d="M95.6783 232.612C93.9376 229.867 91.3482 227.512 87.9014 225.522L139.863 195.522C143.31 197.512 145.899 199.867 147.64 202.612L95.6783 232.612Z" fill="#8BC5E4"/>
<path d="M162.579 124.697C165.853 126.587 168.408 130.992 168.408 134.752L220.369 104.752C220.369 100.992 217.814 96.5874 214.541 94.6974L162.579 124.697Z" fill="#8BC5E4"/>
<path d="M168.407 310.322C168.407 312.202 167.769 313.508 166.721 314.108L218.682 284.108C219.73 283.508 220.368 282.202 220.369 280.322L168.407 310.322Z" fill="#8BC5E4"/>
<path d="M166.71 314.115C165.664 314.707 164.213 314.599 162.584 313.66L214.545 283.66C216.174 284.599 217.625 284.707 218.671 284.115L166.71 314.115Z" fill="#8BC5E4"/>
<path d="M10.6262 225.927C7.35265 224.037 4.79785 219.622 4.79785 215.862L56.7593 185.862C56.7593 189.622 59.3142 194.037 62.5878 195.927L10.6262 225.927Z" fill="#8BC5E4"/>
<path d="M4.79785 40.2924C4.79805 38.4054 5.44105 37.0984 6.49705 36.5044L58.4586 6.50439C57.4026 7.09839 56.7595 8.40539 56.7593 10.2924L4.79785 40.2924Z" fill="#8BC5E4"/>
<path d="M6.49512 36.5054C7.54112 35.9144 8.99212 36.0254 10.6211 36.9644L62.5826 6.96437C60.9536 6.02537 59.5026 5.91437 58.4566 6.50537L6.49512 36.5054Z" fill="#8BC5E4"/>
<path d="M10.6261 31.4474C7.71504 29.7664 5.06804 29.6004 3.14404 30.6864L55.1055 0.686397C57.0295 -0.399603 59.6765 -0.233603 62.5877 1.4474L10.6261 31.4474Z" fill="#8BC5E4"/>
<path d="M3.135 30.6914C1.203 31.7874 0.003 34.1494 0 37.5124L51.9615 7.51241C51.9645 4.14941 53.1645 1.78741 55.0965 0.691406L3.135 30.6914Z" fill="#8BC5E4"/>
<path d="M0 213.092C0 219.812 4.7805 228.072 10.6261 231.447L62.5877 201.447C56.742 198.072 51.9615 189.812 51.9615 183.092L0 213.092Z" fill="#8BC5E4"/>
<path d="M162.579 319.177C165.496 320.861 168.148 321.023 170.073 319.927L222.035 289.927C220.11 291.023 217.458 290.861 214.541 289.177L162.579 319.177Z" fill="#8BC5E4"/>
<path d="M170.07 319.928C172.002 318.83 173.202 316.465 173.205 313.102L225.167 283.102C225.164 286.465 223.964 288.83 222.032 289.928L170.07 319.928Z" fill="#8BC5E4"/>
<path d="M173.205 137.522C173.205 130.802 168.425 122.552 162.579 119.177L214.541 89.1774C220.386 92.5524 225.167 100.802 225.167 107.522L173.205 137.522Z" fill="#8BC5E4"/>
<path d="M162.579 124.697C165.853 126.587 168.408 130.992 168.408 134.752L220.369 104.752C220.369 100.992 217.814 96.5874 214.541 94.6974L162.579 124.697Z" fill="#8BC5E4"/>
<path d="M168.407 310.322C168.407 312.202 167.769 313.508 166.721 314.108L218.682 284.108C219.73 283.508 220.368 282.202 220.369 280.322L168.407 310.322Z" fill="#8BC5E4"/>
<path d="M166.71 314.115C165.664 314.707 164.213 314.599 162.584 313.66L214.545 283.66C216.174 284.599 217.625 284.707 218.671 284.115L166.71 314.115Z" fill="#8BC5E4"/>
<path d="M10.6262 225.927C7.35265 224.037 4.79785 219.622 4.79785 215.862L56.7593 185.862C56.7593 189.622 59.3142 194.037 62.5878 195.927L10.6262 225.927Z" fill="#8BC5E4"/>
<path d="M4.79785 40.2924C4.79805 38.4054 5.44105 37.0984 6.49705 36.5044L58.4586 6.50439C57.4026 7.09839 56.7595 8.40539 56.7593 10.2924L4.79785 40.2924Z" fill="#8BC5E4"/>
<path d="M6.49512 36.5054C7.54112 35.9144 8.99212 36.0254 10.6211 36.9644L62.5826 6.96437C60.9536 6.02537 59.5026 5.91437 58.4566 6.50537L6.49512 36.5054Z" fill="#8BC5E4"/>
<path d="M92.7339 170.042C95.0202 172.412 96.8302 175.547 97.7568 178.702L149.718 148.702C148.792 145.547 146.982 142.412 144.695 140.042L92.7339 170.042Z" fill="#8BC5E4"/>
<path d="M97.7482 186.457C97.2889 187.507 96.6069 188.291 95.7539 188.78L147.715 158.78C148.568 158.291 149.25 157.507 149.71 156.457L97.7482 186.457Z" fill="#8BC5E4"/>
<path d="M95.7572 188.778C94.9052 189.267 93.8822 189.461 92.7412 189.333L144.703 159.333C145.844 159.461 146.867 159.267 147.719 158.778L95.7572 188.778Z" fill="#8BC5E4"/>
<path d="M85.9878 185.437C83.7015 183.057 81.8915 179.932 80.9648 176.767L132.926 146.767C133.853 149.932 135.663 153.057 137.949 155.437L85.9878 185.437Z" fill="#8BC5E4"/>
<path d="M80.9736 169.012C81.4322 167.967 82.1142 167.183 82.9672 166.693L134.929 136.693C134.076 137.183 133.394 137.967 132.935 139.012L80.9736 169.012Z" fill="#8BC5E4"/>
<path d="M82.9648 166.695C83.8168 166.205 84.8388 166.008 85.9808 166.136L137.942 136.136C136.8 136.008 135.778 136.205 134.926 136.695L82.9648 166.695Z" fill="#8BC5E4"/>
<path d="M82.4805 223.482C83.9787 223.617 85.7887 224.302 87.9018 225.522L139.863 195.522C137.75 194.302 135.94 193.617 134.442 193.482L82.4805 223.482Z" fill="#8BC5E4"/>
<path d="M87.9014 225.522C91.3482 227.512 93.9376 229.867 95.6783 232.612L147.64 202.612C145.899 199.867 143.31 197.512 139.863 195.522L87.9014 225.522Z" fill="#8BC5E4"/>
<path d="M95.6787 232.612C97.4281 235.362 98.346 238.212 98.4327 241.162L150.394 211.162C150.308 208.212 149.39 205.362 147.64 202.612L95.6787 232.612Z" fill="#8BC5E4"/>
<path d="M92.8814 238.237C92.6476 236.482 92.1366 235.017 91.3486 233.862L143.31 203.862C144.098 205.017 144.609 206.482 144.843 208.237L92.8814 238.237Z" fill="#8BC5E4"/>
<path d="M91.3482 233.862C90.5687 232.692 89.3996 231.657 87.8408 230.757L139.802 200.757C141.361 201.657 142.53 202.692 143.31 203.862L91.3482 233.862Z" fill="#8BC5E4"/>
<path d="M87.8412 230.757C86.2303 229.827 84.966 229.477 84.0566 229.722L136.018 199.722C136.928 199.477 138.192 199.827 139.803 200.757L87.8412 230.757Z" fill="#8BC5E4"/>
<path d="M84.0565 229.722C83.9411 229.749 83.8381 229.79 83.7451 229.844L135.707 199.844C135.8 199.79 135.903 199.749 136.018 199.722L84.0565 229.722Z" fill="#8BC5E4"/>
<path d="M83.7459 229.843C83.3659 230.064 83.1749 230.507 83.1729 231.162L135.134 201.162C135.136 200.507 135.327 200.064 135.707 199.843L83.7459 229.843Z" fill="#8BC5E4"/>
<path d="M83.1729 231.172C83.1729 231.912 83.45 232.712 84.0043 233.562L135.966 203.562C135.411 202.712 135.134 201.912 135.134 201.172L83.1729 231.172Z" fill="#8BC5E4"/>
<path d="M84.0044 233.562C84.6972 234.642 86.4033 236.327 89.0966 238.612L141.058 208.612C138.365 206.327 136.659 204.642 135.966 203.562L84.0044 233.562Z" fill="#8BC5E4"/>
<path d="M89.0967 238.612C91.7987 240.912 93.7906 242.822 95.0809 244.357L147.042 214.357C145.752 212.822 143.76 210.912 141.058 208.612L89.0967 238.612Z" fill="#8BC5E4"/>
<path d="M95.0811 244.357C96.3802 245.877 97.3934 247.532 98.1122 249.317L150.074 219.317C149.355 217.532 148.342 215.877 147.043 214.357L95.0811 244.357Z" fill="#8BC5E4"/>
<path d="M98.1123 249.317C98.8571 251.097 99.2208 252.977 99.2208 254.977L151.182 224.977C151.182 222.977 150.819 221.097 150.074 219.317L98.1123 249.317Z" fill="#8BC5E4"/>
<path d="M99.2206 254.977C99.2206 256.787 98.7876 258.227 97.9043 259.297L149.866 229.297C150.749 228.227 151.182 226.787 151.182 224.977L99.2206 254.977Z" fill="#8BC5E4"/>
<path d="M97.9042 259.297C97.6 259.677 97.249 259.98 96.853 260.208L148.815 230.208C149.211 229.98 149.562 229.677 149.866 229.297L97.9042 259.297Z" fill="#8BC5E4"/>
<path d="M96.842 260.214C96.116 260.628 95.237 260.786 94.207 260.688L146.169 230.688C147.199 230.786 148.078 230.628 148.804 230.214L96.842 260.214Z" fill="#8BC5E4"/>
<path d="M94.1977 260.687C92.5955 260.532 90.6037 259.762 88.2134 258.382L140.175 228.382C142.565 229.762 144.557 230.532 146.159 230.687L94.1977 260.687Z" fill="#8BC5E4"/>
<path d="M88.2134 258.382C84.7407 256.377 82.0733 253.917 80.2114 251.002L132.173 221.002C134.035 223.917 136.702 226.377 140.175 228.382L88.2134 258.382Z" fill="#8BC5E4"/>
<path d="M80.2112 251.002C78.3492 248.077 77.2407 244.737 76.877 240.997L128.838 210.997C129.202 214.737 130.311 218.077 132.173 221.002L80.2112 251.002Z" fill="#8BC5E4"/>
<path d="M82.2725 243.512C82.6016 245.782 83.2598 247.692 84.2471 249.242L136.209 219.242C135.221 217.692 134.563 215.782 134.234 213.512L82.2725 243.512Z" fill="#8BC5E4"/>
<path d="M84.2471 249.242C85.243 250.787 86.5853 252.052 88.2741 253.027L140.236 223.027C138.547 222.052 137.204 220.787 136.209 219.242L84.2471 249.242Z" fill="#8BC5E4"/>
<path d="M88.2739 253.027C90.0579 254.057 91.4089 254.407 92.3009 254.062L144.262 224.062C143.37 224.407 142.019 224.057 140.235 223.027L88.2739 253.027Z" fill="#8BC5E4"/>
<path d="M92.3008 254.062C92.4228 254.016 92.5368 253.962 92.6418 253.901L144.603 223.901C144.498 223.962 144.384 224.016 144.262 224.062L92.3008 254.062Z" fill="#8BC5E4"/>
<path d="M92.6411 253.901C93.3291 253.505 93.6681 252.801 93.6691 251.799L145.631 221.799C145.63 222.801 145.291 223.505 144.603 223.901L92.6411 253.901Z" fill="#8BC5E4"/>
<path d="M93.6691 251.792C93.6691 251.042 93.4786 250.302 93.0889 249.557L145.05 219.557C145.44 220.302 145.631 221.042 145.631 221.792L93.6691 251.792Z" fill="#8BC5E4"/>
<path d="M93.0892 249.557C92.7168 248.812 92.0499 247.967 91.106 247.032L143.067 217.032C144.011 217.967 144.678 218.812 145.051 219.557L93.0892 249.557Z" fill="#8BC5E4"/>
<path d="M91.1058 247.032C90.4563 246.407 88.9753 245.092 86.6631 243.087L138.625 213.087C140.937 215.092 142.418 216.407 143.067 217.032L91.1058 247.032Z" fill="#8BC5E4"/>
<path d="M86.6633 243.087C83.6841 240.527 81.597 238.282 80.4019 236.352L132.363 206.352C133.558 208.282 135.646 210.527 138.625 213.087L86.6633 243.087Z" fill="#8BC5E4"/>
<path d="M80.4018 236.352C78.713 233.637 77.873 231.032 77.873 228.542L129.835 198.542C129.835 201.032 130.675 203.637 132.363 206.352L80.4018 236.352Z" fill="#8BC5E4"/>
<path d="M77.873 228.542C77.873 226.932 78.2627 225.657 79.0508 224.712L131.012 194.712C130.224 195.657 129.835 196.932 129.835 198.542L77.873 228.542Z" fill="#8BC5E4"/>
<path d="M79.0508 224.712C79.312 224.404 79.611 224.152 79.947 223.958L131.908 193.958C131.572 194.152 131.273 194.404 131.012 194.712L79.0508 224.712Z" fill="#8BC5E4"/>
<path d="M79.9453 223.959C80.6313 223.562 81.4743 223.402 82.4723 223.481L134.434 193.481C133.436 193.402 132.593 193.562 131.907 193.959L79.9453 223.959Z" fill="#8BC5E4"/>
<path d="M77.8037 93.7824V125.362L82.9566 128.337V107.747L94.033 134.732L99.6102 137.952V106.372L94.4487 103.392V124.482L83.2077 96.9024L77.8037 93.7824ZM89.3565 138.522L79.8389 149.427L85.9877 152.977V166.137C83.7014 165.877 81.8914 166.922 80.9734 169.012L69.5072 162.392V155.332L55.2438 158.037L69.5072 177.212V170.152L80.9647 176.767C81.8914 179.932 83.7014 183.057 85.9877 185.437V198.607L79.8389 195.057L89.3565 216.942L98.8741 206.047L92.734 202.502V189.332C95.0203 189.592 96.8303 188.557 97.7483 186.457L109.214 193.077V200.137L123.478 197.432L109.214 178.257V185.317L97.7569 178.702C96.8303 175.547 95.0203 172.412 92.734 170.042V156.872L98.8741 160.417L89.3565 138.522ZM130.493 185.232V216.822L151.399 228.892V223.572L136.044 214.707V206.107L149.84 214.072V208.752L136.044 200.787V193.787L150.87 202.347V196.997L130.493 185.232ZM13.2935 117.657L19.8493 153.022L25.8682 156.497L31.3241 136.037L36.7974 162.807L42.6864 166.207L49.3634 138.482L43.7776 135.257L39.5514 154.877L34.7363 130.037L28.1372 126.227L23.1142 145.017L18.9746 120.937L13.2935 117.657ZM87.9016 225.522C85.7885 224.302 83.9785 223.617 82.4803 223.482C80.9907 223.362 79.8475 223.772 79.0508 224.712C78.2627 225.657 77.873 226.932 77.873 228.542C77.873 231.032 78.713 233.637 80.4018 236.352C81.5969 238.282 83.684 240.527 86.6632 243.087C88.9754 245.092 90.4563 246.407 91.1059 247.032C92.0498 247.967 92.7167 248.812 93.0891 249.557C93.4788 250.302 93.6693 251.042 93.6693 251.792C93.6693 252.952 93.219 253.712 92.301 254.062C91.409 254.407 90.058 254.057 88.274 253.027C86.5852 252.052 85.2429 250.787 84.2469 249.242C83.2597 247.692 82.6015 245.782 82.2724 243.512L76.8771 240.997C77.2408 244.737 78.3493 248.077 80.2113 251.002C82.0732 253.917 84.7406 256.377 88.2133 258.382C90.6036 259.762 92.5954 260.532 94.1976 260.687C95.7997 260.842 97.0381 260.377 97.9042 259.297C98.7875 258.227 99.2205 256.787 99.2205 254.977C99.2205 252.977 98.8568 251.097 98.112 249.317C97.3932 247.532 96.38 245.877 95.0809 244.357C93.7906 242.822 91.7987 240.912 89.0967 238.612C86.4034 236.327 84.6973 234.642 84.0045 233.562C83.4502 232.712 83.1731 231.912 83.1731 231.172C83.1731 230.352 83.4675 229.862 84.0564 229.722C84.9658 229.477 86.2301 229.827 87.841 230.757C89.3998 231.657 90.5689 232.692 91.3484 233.862C92.1364 235.017 92.6474 236.482 92.8812 238.237L98.4324 241.162C98.3458 238.212 97.4279 235.362 95.6785 232.612C93.9378 229.867 91.3484 227.512 87.9016 225.522ZM10.6261 36.9674L162.579 124.697C165.853 126.587 168.407 130.992 168.407 134.752V310.322C168.407 314.082 165.853 315.547 162.579 313.657L10.6261 225.927C7.35256 224.037 4.79778 219.622 4.79778 215.862V40.2924C4.79778 36.5324 7.35256 35.0774 10.6261 36.9674ZM10.6261 31.4474C4.78046 28.0724 0 30.8024 0 37.5224V213.092C0 219.812 4.78046 228.072 10.6261 231.447L162.579 319.177C168.425 322.552 173.205 319.812 173.205 313.092V137.522C173.205 130.802 168.425 122.552 162.579 119.177L10.6261 31.4474Z" fill="#8BC5E4"/>
<path fill-rule="evenodd" clip-rule="evenodd" d="M10.6261 36.9674L162.579 124.697C165.853 126.587 168.407 130.992 168.407 134.752V310.322C168.407 314.082 165.853 315.547 162.579 313.657L10.6261 225.927C7.35256 224.037 4.79778 219.622 4.79778 215.862V40.2924C4.79778 36.5324 7.35256 35.0774 10.6261 36.9674ZM77.8037 125.362V93.7824L83.2077 96.9024L94.4487 124.482V103.392L99.6102 106.372V137.952L94.033 134.732L82.9566 107.747V128.337L77.8037 125.362ZM79.8389 149.427L89.3565 138.522L98.8741 160.417L92.734 156.872V170.042C95.0203 172.412 96.8303 175.547 97.7569 178.702L109.214 185.317V178.257L123.478 197.432L109.214 200.137V193.077L97.7483 186.457C96.8303 188.557 95.0203 189.592 92.734 189.332V202.502L98.8741 206.047L89.3565 216.942L79.8389 195.057L85.9877 198.607V185.437C83.7014 183.057 81.8914 179.932 80.9647 176.767L69.5072 170.152V177.212L55.2438 158.037L69.5072 155.332V162.392L80.9734 169.012C81.8914 166.922 83.7014 165.877 85.9877 166.137V152.977L79.8389 149.427ZM130.493 216.822V185.232L150.87 196.997V202.347L136.044 193.787V200.787L149.84 208.752V214.072L136.044 206.107V214.707L151.399 223.572V228.892L130.493 216.822ZM19.8493 153.022L13.2935 117.657L18.9746 120.937L23.1142 145.017L28.1372 126.227L34.7363 130.037L39.5514 154.877L43.7776 135.257L49.3634 138.482L42.6864 166.207L36.7974 162.807L31.3241 136.037L25.8682 156.497L19.8493 153.022ZM82.4803 223.482C83.9785 223.617 85.7885 224.302 87.9016 225.522C91.3484 227.512 93.9378 229.867 95.6785 232.612C97.4279 235.362 98.3458 238.212 98.4324 241.162L92.8812 238.237C92.6474 236.482 92.1364 235.017 91.3484 233.862C90.5689 232.692 89.3998 231.657 87.841 230.757C86.2301 229.827 84.9658 229.477 84.0564 229.722C83.4675 229.862 83.1731 230.352 83.1731 231.172C83.1731 231.912 83.4502 232.712 84.0045 233.562C84.6973 234.642 86.4034 236.327 89.0967 238.612C91.7987 240.912 93.7906 242.822 95.0809 244.357C96.38 245.877 97.3932 247.532 98.112 249.317C98.8568 251.097 99.2205 252.977 99.2205 254.977C99.2205 256.787 98.7875 258.227 97.9042 259.297C97.0381 260.377 95.7997 260.842 94.1976 260.687C92.5954 260.532 90.6036 259.762 88.2133 258.382C84.7406 256.377 82.0732 253.917 80.2113 251.002C78.3493 248.077 77.2408 244.737 76.8771 240.997L82.2724 243.512C82.6015 245.782 83.2597 247.692 84.2469 249.242C85.2429 250.787 86.5852 252.052 88.274 253.027C90.058 254.057 91.409 254.407 92.301 254.062C93.219 253.712 93.6693 252.952 93.6693 251.792C93.6693 251.042 93.4788 250.302 93.0891 249.557C92.7167 248.812 92.0498 247.967 91.1059 247.032C90.4563 246.407 88.9754 245.092 86.6632 243.087C83.684 240.527 81.5969 238.282 80.4018 236.352C78.713 233.637 77.873 231.032 77.873 228.542C77.873 226.932 78.2627 225.657 79.0508 224.712C79.8475 223.772 80.9907 223.362 82.4803 223.482Z" fill="white"/>
</svg>
