<svg width="274" height="354" viewBox="0 0 274 354" fill="none" xmlns="http://www.w3.org/2000/svg">
<path d="M127.695 190.647L153.286 198.942L205.248 168.942L179.657 160.647L127.695 190.647Z" fill="#8BC5E4"/>
<path d="M153.287 198.942L149.511 208.022L201.472 178.022L205.248 168.942L153.287 198.942Z" fill="#8BC5E4"/>
<path d="M149.511 208.022L172.036 231.297L223.998 201.297L201.472 178.022L149.511 208.022Z" fill="#8BC5E4"/>
<path d="M172.036 231.297L169.031 238.542L220.992 208.542L223.997 201.297L172.036 231.297Z" fill="#8BC5E4"/>
<path d="M169.031 238.542L146.505 215.267L198.467 185.267L220.992 208.542L169.031 238.542Z" fill="#8BC5E4"/>
<path d="M146.505 215.267L142.738 224.352L194.7 194.352L198.467 185.267L146.505 215.267Z" fill="#8BC5E4"/>
<path d="M142.738 224.352L127.695 190.647L179.657 160.647L194.7 194.352L142.738 224.352Z" fill="#8BC5E4"/>
<path d="M127.695 190.647L179.657 160.647L127.695 190.647Z" fill="#8BC5E4"/>
<path d="M92.1363 170.117L66.5366 148.857L118.498 118.857L144.098 140.117L92.1363 170.117Z" fill="#8BC5E4"/>
<path d="M66.5366 148.857L70.3212 162.302L122.283 132.302L118.498 118.857L66.5366 148.857Z" fill="#8BC5E4"/>
<path d="M70.3211 162.302L47.7871 159.562L99.7486 129.562L122.283 132.302L70.3211 162.302Z" fill="#8BC5E4"/>
<path d="M47.7871 159.562L50.7922 170.277L102.754 140.277L99.7486 129.562L47.7871 159.562Z" fill="#8BC5E4"/>
<path d="M50.7925 170.277L73.3178 173.012L125.279 143.012L102.754 140.277L50.7925 170.277Z" fill="#8BC5E4"/>
<path d="M73.3174 173.012L77.0933 186.452L129.055 156.452L125.279 143.012L73.3174 173.012Z" fill="#8BC5E4"/>
<path d="M77.0938 186.452L92.1365 170.117L144.098 140.117L129.055 156.452L77.0938 186.452Z" fill="#8BC5E4"/>
<path d="M92.1367 170.117L144.098 140.117L92.1367 170.117Z" fill="#8BC5E4"/>
<path d="M110.34 180.557L95.8516 197.632L147.813 167.632L162.302 150.557L110.34 180.557Z" fill="#8BC5E4"/>
<path d="M95.8516 197.632L106.209 203.612L158.171 173.612L147.813 167.632L95.8516 197.632Z" fill="#8BC5E4"/>
<path d="M106.209 203.612V231.832L158.171 201.832V173.612L106.209 203.612Z" fill="#8BC5E4"/>
<path d="M106.209 231.832L114.471 236.602L166.433 206.602L158.171 201.832L106.209 231.832Z" fill="#8BC5E4"/>
<path d="M114.471 236.602V208.382L166.433 178.382V206.602L114.471 236.602Z" fill="#8BC5E4"/>
<path d="M114.471 208.382L124.838 214.367L176.799 184.367L166.433 178.382L114.471 208.382Z" fill="#8BC5E4"/>
<path d="M124.838 214.367L110.34 180.557L162.302 150.557L176.799 184.367L124.838 214.367Z" fill="#8BC5E4"/>
<path d="M110.34 180.557L162.302 150.557L110.34 180.557Z" fill="#8BC5E4"/>
<path d="M110.34 110.037L91.6514 122.077L143.613 92.0772L162.302 80.0372L110.34 110.037Z" fill="#8BC5E4"/>
<path d="M91.6514 122.077L99.8007 126.782L151.762 96.7821L143.613 92.0771L91.6514 122.077Z" fill="#8BC5E4"/>
<path d="M99.8008 126.782V166.162L151.762 136.162V96.7822L99.8008 126.782Z" fill="#8BC5E4"/>
<path d="M99.8008 166.162L120.888 178.337L172.85 148.337L151.762 136.162L99.8008 166.162Z" fill="#8BC5E4"/>
<path d="M120.889 178.337V138.957L172.85 108.957V148.337L120.889 178.337Z" fill="#8BC5E4"/>
<path d="M120.889 138.957L129.038 143.662L180.999 113.662L172.85 108.957L120.889 138.957Z" fill="#8BC5E4"/>
<path d="M129.038 143.662L110.34 110.037L162.302 80.0372L180.999 113.662L129.038 143.662Z" fill="#8BC5E4"/>
<path d="M110.34 110.037L162.302 80.0372L110.34 110.037Z" fill="#8BC5E4"/>
<path d="M177.12 294.952L178.514 295.757L230.475 265.757L229.081 264.952L177.12 294.952Z" fill="#8BC5E4"/>
<path d="M171.188 284.807L223.149 254.807L171.188 284.807Z" fill="#8BC5E4"/>
<path d="M136.364 264.702L188.326 234.702L136.364 264.702Z" fill="#8BC5E4"/>
<path d="M101.55 244.602L153.511 214.602L101.55 244.602Z" fill="#8BC5E4"/>
<path d="M66.7275 224.497L118.689 194.497L66.7275 224.497Z" fill="#8BC5E4"/>
<path d="M153.78 273.147L205.742 243.147L153.78 273.147Z" fill="#8BC5E4"/>
<path d="M118.957 253.042L170.919 223.042L118.957 253.042Z" fill="#8BC5E4"/>
<path d="M84.1343 232.937L136.096 202.937L84.1343 232.937Z" fill="#8BC5E4"/>
<path d="M43.379 217.737L42.0107 216.947L93.9722 186.947L95.3405 187.737L43.379 217.737Z" fill="#8BC5E4"/>
<path d="M49.3203 212.837L101.282 182.837L49.3203 212.837Z" fill="#8BC5E4"/>
<path d="M39.2313 215.342L37.8369 214.537L89.7985 184.537L91.1928 185.342L39.2313 215.342Z" fill="#8BC5E4"/>
<path d="M181.285 297.357L182.662 298.152L234.624 268.152L233.247 267.357L181.285 297.357Z" fill="#8BC5E4"/>
<path d="M66.7275 218.027L118.689 188.027L66.7275 218.027Z" fill="#8BC5E4"/>
<path d="M0 37.5822V213.142L51.9615 183.142V7.58215L0 37.5822Z" fill="#8BC5E4"/>
<path d="M10.4702 231.407L211.232 347.317L263.194 317.317L62.4318 201.407L10.4702 231.407Z" fill="#8BC5E4"/>
<path d="M221.702 341.142V165.582L273.664 135.582V311.142L221.702 341.142Z" fill="#8BC5E4"/>
<path d="M211.232 147.317L10.4702 31.4072L62.4318 1.40717L263.194 117.317L211.232 147.317Z" fill="#8BC5E4"/>
<path d="M10.4702 31.4072L62.4318 1.40717L10.4702 31.4072Z" fill="#8BC5E4"/>
<path d="M10.4702 36.9172L211.232 152.827L263.194 122.827L62.4318 6.91718L10.4702 36.9172Z" fill="#8BC5E4"/>
<path d="M216.965 162.847V338.407L268.927 308.407V132.847L216.965 162.847Z" fill="#8BC5E4"/>
<path d="M211.232 341.807L10.4702 225.897L62.4318 195.897L263.194 311.807L211.232 341.807Z" fill="#8BC5E4"/>
<path d="M4.72852 215.872V40.3122L56.69 10.3122V185.872L4.72852 215.872Z" fill="#8BC5E4"/>
<path d="M10.4702 36.9172L62.4318 6.91718L10.4702 36.9172Z" fill="#8BC5E4"/>
<path d="M10.4702 36.9172L211.232 152.827L263.194 122.827L62.4318 6.91718L10.4702 36.9172Z" fill="#8BC5E4"/>
<path d="M216.965 162.847V338.407L268.927 308.407V132.847L216.965 162.847Z" fill="#8BC5E4"/>
<path d="M211.232 341.807L10.4702 225.897L62.4318 195.897L263.194 311.807L211.232 341.807Z" fill="#8BC5E4"/>
<path d="M4.72852 215.872V40.3122L56.69 10.3122V185.872L4.72852 215.872Z" fill="#8BC5E4"/>
<path d="M10.4702 36.9172L62.4318 6.91718L10.4702 36.9172Z" fill="#8BC5E4"/>
<path d="M153.286 198.942L127.695 190.647L179.657 160.647L205.248 168.942L153.286 198.942Z" fill="#8BC5E4"/>
<path d="M127.695 190.647L142.738 224.352L194.7 194.352L179.657 160.647L127.695 190.647Z" fill="#8BC5E4"/>
<path d="M142.738 224.352L146.505 215.267L198.467 185.267L194.7 194.352L142.738 224.352Z" fill="#8BC5E4"/>
<path d="M146.505 215.267L169.031 238.542L220.992 208.542L198.467 185.267L146.505 215.267Z" fill="#8BC5E4"/>
<path d="M169.031 238.542L172.036 231.297L223.997 201.297L220.992 208.542L169.031 238.542Z" fill="#8BC5E4"/>
<path d="M172.036 231.297L149.511 208.022L201.472 178.022L223.998 201.297L172.036 231.297Z" fill="#8BC5E4"/>
<path d="M149.511 208.022L153.287 198.942L205.248 168.942L201.472 178.022L149.511 208.022Z" fill="#8BC5E4"/>
<path d="M153.287 198.942L205.248 168.942L153.287 198.942Z" fill="#8BC5E4"/>
<path d="M66.5366 148.857L92.1363 170.117L144.098 140.117L118.498 118.857L66.5366 148.857Z" fill="#8BC5E4"/>
<path d="M92.1365 170.117L77.0938 186.452L129.055 156.452L144.098 140.117L92.1365 170.117Z" fill="#8BC5E4"/>
<path d="M77.0933 186.452L73.3174 173.012L125.279 143.012L129.055 156.452L77.0933 186.452Z" fill="#8BC5E4"/>
<path d="M73.3178 173.012L50.7925 170.277L102.754 140.277L125.279 143.012L73.3178 173.012Z" fill="#8BC5E4"/>
<path d="M50.7922 170.277L47.7871 159.562L99.7486 129.562L102.754 140.277L50.7922 170.277Z" fill="#8BC5E4"/>
<path d="M47.7871 159.562L70.3211 162.302L122.283 132.302L99.7486 129.562L47.7871 159.562Z" fill="#8BC5E4"/>
<path d="M70.3212 162.302L66.5366 148.857L118.498 118.857L122.283 132.302L70.3212 162.302Z" fill="#8BC5E4"/>
<path d="M66.5366 148.857L118.498 118.857L66.5366 148.857Z" fill="#8BC5E4"/>
<path d="M95.8516 197.632L110.34 180.557L162.302 150.557L147.813 167.632L95.8516 197.632Z" fill="#8BC5E4"/>
<path d="M110.34 180.557L124.838 214.367L176.799 184.367L162.302 150.557L110.34 180.557Z" fill="#8BC5E4"/>
<path d="M124.838 214.367L114.471 208.382L166.433 178.382L176.799 184.367L124.838 214.367Z" fill="#8BC5E4"/>
<path d="M114.471 208.382V236.602L166.433 206.602V178.382L114.471 208.382Z" fill="#8BC5E4"/>
<path d="M114.471 236.602L106.209 231.832L158.171 201.832L166.433 206.602L114.471 236.602Z" fill="#8BC5E4"/>
<path d="M106.209 231.832V203.612L158.171 173.612V201.832L106.209 231.832Z" fill="#8BC5E4"/>
<path d="M106.209 203.612L95.8516 197.632L147.813 167.632L158.171 173.612L106.209 203.612Z" fill="#8BC5E4"/>
<path d="M95.8516 197.632L147.813 167.632L95.8516 197.632Z" fill="#8BC5E4"/>
<path d="M91.6514 122.077L110.34 110.037L162.302 80.0372L143.613 92.0772L91.6514 122.077Z" fill="#8BC5E4"/>
<path d="M110.34 110.037L129.038 143.662L180.999 113.662L162.302 80.0372L110.34 110.037Z" fill="#8BC5E4"/>
<path d="M129.038 143.662L120.889 138.957L172.85 108.957L180.999 113.662L129.038 143.662Z" fill="#8BC5E4"/>
<path d="M120.889 138.957V178.337L172.85 148.337V108.957L120.889 138.957Z" fill="#8BC5E4"/>
<path d="M120.888 178.337L99.8008 166.162L151.762 136.162L172.85 148.337L120.888 178.337Z" fill="#8BC5E4"/>
<path d="M99.8008 166.162V126.782L151.762 96.7822V136.162L99.8008 166.162Z" fill="#8BC5E4"/>
<path d="M99.8007 126.782L91.6514 122.077L143.613 92.0771L151.762 96.7821L99.8007 126.782Z" fill="#8BC5E4"/>
<path d="M91.6514 122.077L143.613 92.0771L91.6514 122.077Z" fill="#8BC5E4"/>
<path d="M182.662 298.152L181.285 297.357L233.247 267.357L234.624 268.152L182.662 298.152Z" fill="#8BC5E4"/>
<path d="M37.8369 214.537L39.2313 215.342L91.1928 185.342L89.7985 184.537L37.8369 214.537Z" fill="#8BC5E4"/>
<path d="M59.418 218.247L111.379 188.247L59.418 218.247Z" fill="#8BC5E4"/>
<path d="M177.12 294.952L178.514 295.757L230.475 265.757L229.081 264.952L177.12 294.952Z" fill="#8BC5E4"/>
<path d="M171.188 284.807L223.149 254.807L171.188 284.807Z" fill="#8BC5E4"/>
<path d="M159.972 283.672L159.872 283.827L211.834 253.827L211.933 253.672L159.972 283.672Z" fill="#8BC5E4"/>
<path d="M153.78 273.147L205.742 243.147L153.78 273.147Z" fill="#8BC5E4"/>
<path d="M142.729 276.837L142.711 276.863L194.672 246.863L194.691 246.837L142.729 276.837Z" fill="#8BC5E4"/>
<path d="M136.364 264.702L188.326 234.702L136.364 264.702Z" fill="#8BC5E4"/>
<path d="M118.957 253.042L170.919 223.042L118.957 253.042Z" fill="#8BC5E4"/>
<path d="M101.55 244.602L153.511 214.602L101.55 244.602Z" fill="#8BC5E4"/>
<path d="M84.1343 232.937L136.096 202.937L84.1343 232.937Z" fill="#8BC5E4"/>
<path d="M66.7275 224.497L118.689 194.497L66.7275 224.497Z" fill="#8BC5E4"/>
<path d="M43.379 217.737L42.0107 216.947L93.9722 186.947L95.3405 187.737L43.379 217.737Z" fill="#8BC5E4"/>
<path d="M49.3203 212.837L101.282 182.837L49.3203 212.837Z" fill="#8BC5E4"/>
<path d="M171.188 284.807C174.903 286.952 177.12 291.702 177.12 294.952L229.081 264.952C229.081 261.702 226.864 256.952 223.149 254.807L171.188 284.807Z" fill="#8BC5E4"/>
<path d="M178.514 295.757C178.514 296.427 177.743 298.552 176.357 299.712L228.319 269.712C229.705 268.552 230.475 266.427 230.475 265.757L178.514 295.757Z" fill="#8BC5E4"/>
<path d="M176.357 299.712C176.114 299.918 175.856 300.1 175.587 300.254L227.548 270.254C227.817 270.1 228.075 269.918 228.319 269.712L176.357 299.712Z" fill="#8BC5E4"/>
<path d="M175.588 300.254C174.325 300.978 172.797 301.094 171.193 300.17L223.154 270.17C224.758 271.094 226.286 270.978 227.549 270.254L175.588 300.254Z" fill="#8BC5E4"/>
<path d="M171.187 300.167C169.117 298.972 168.052 297.367 166.952 295.002L218.914 265.002C220.014 267.367 221.079 268.972 223.149 270.167L171.187 300.167Z" fill="#8BC5E4"/>
<path d="M166.952 295.002C166.216 293.427 165.558 291.567 164.831 289.607L216.792 259.607C217.52 261.567 218.178 263.427 218.914 265.002L166.952 295.002Z" fill="#8BC5E4"/>
<path d="M164.831 289.607C164.857 289.552 164.883 289.507 164.917 289.467L216.879 259.467C216.844 259.507 216.818 259.552 216.792 259.607L164.831 289.607Z" fill="#8BC5E4"/>
<path d="M164.917 289.467C166.147 287.557 167.021 285.692 167.939 284.842L219.901 254.842C218.983 255.692 218.108 257.557 216.878 259.467L164.917 289.467Z" fill="#8BC5E4"/>
<path d="M167.939 284.842C168.179 284.614 168.391 284.43 168.608 284.302L220.569 254.302C220.352 254.43 220.14 254.614 219.901 254.842L167.939 284.842Z" fill="#8BC5E4"/>
<path d="M168.608 284.303C169.207 283.951 169.843 284.031 171.182 284.804L223.143 254.804C221.804 254.031 221.168 253.951 220.569 254.303L168.608 284.303Z" fill="#8BC5E4"/>
<path d="M136.364 264.702C137.629 265.432 138.235 266.282 139.274 268.372L191.236 238.372C190.196 236.282 189.59 235.432 188.326 234.702L136.364 264.702Z" fill="#8BC5E4"/>
<path d="M139.274 268.372C140.305 270.467 141.379 273.487 142.721 276.782L194.683 246.782C193.34 243.487 192.267 240.467 191.236 238.372L139.274 268.372Z" fill="#8BC5E4"/>
<path d="M142.721 276.782C142.721 276.792 142.729 276.807 142.729 276.837L194.691 246.837C194.691 246.807 194.682 246.792 194.682 246.782L142.721 276.782Z" fill="#8BC5E4"/>
<path d="M142.729 276.837C142.723 276.846 142.717 276.855 142.711 276.863L194.672 246.863C194.679 246.855 194.685 246.846 194.691 246.837L142.729 276.837Z" fill="#8BC5E4"/>
<path d="M142.711 276.863C141.904 278.003 141.147 279.072 140.348 279.762L192.31 249.762C193.109 249.072 193.866 248.003 194.673 246.863L142.711 276.863Z" fill="#8BC5E4"/>
<path d="M140.348 279.762C140.1 279.977 139.855 280.159 139.609 280.303L191.57 250.303C191.816 250.159 192.061 249.977 192.309 249.762L140.348 279.762Z" fill="#8BC5E4"/>
<path d="M139.609 280.303C138.686 280.841 137.727 280.847 136.369 280.065L188.331 250.065C189.689 250.847 190.648 250.841 191.571 250.303L139.609 280.303Z" fill="#8BC5E4"/>
<path d="M136.365 280.062C134.624 279.057 133.55 277.557 132.381 275.212L184.342 245.212C185.512 247.557 186.585 249.057 188.326 250.062L136.365 280.062Z" fill="#8BC5E4"/>
<path d="M132.38 275.212C131.584 273.602 130.813 271.627 129.99 269.502L181.952 239.502C182.775 241.627 183.545 243.602 184.342 245.212L132.38 275.212Z" fill="#8BC5E4"/>
<path d="M129.99 269.502C130.008 269.482 130.025 269.452 130.042 269.432L182.004 239.432C181.986 239.452 181.969 239.482 181.952 239.502L129.99 269.502Z" fill="#8BC5E4"/>
<path d="M130.042 269.432C131.367 267.627 132.433 265.852 133.455 264.972L185.416 234.972C184.394 235.852 183.329 237.627 182.004 239.432L130.042 269.432Z" fill="#8BC5E4"/>
<path d="M133.455 264.972C133.696 264.769 133.914 264.606 134.122 264.485L186.084 234.485C185.876 234.606 185.658 234.769 185.416 234.972L133.455 264.972Z" fill="#8BC5E4"/>
<path d="M134.131 264.479C134.806 264.089 135.384 264.138 136.357 264.698L188.318 234.698C187.345 234.138 186.767 234.089 186.092 234.479L134.131 264.479Z" fill="#8BC5E4"/>
<path d="M101.55 244.602C102.485 245.142 103.282 246.192 104.408 248.422L156.369 218.422C155.243 216.192 154.447 215.142 153.511 214.602L101.55 244.602Z" fill="#8BC5E4"/>
<path d="M104.408 248.422C105.525 250.657 106.66 253.672 107.89 256.672L159.851 226.672C158.621 223.672 157.487 220.657 156.37 218.422L104.408 248.422Z" fill="#8BC5E4"/>
<path d="M107.889 256.672C107.093 257.742 106.305 258.767 105.473 259.467L157.435 229.467C158.266 228.767 159.054 227.742 159.851 226.672L107.889 256.672Z" fill="#8BC5E4"/>
<path d="M105.473 259.467C105.205 259.693 104.94 259.884 104.673 260.036L156.634 230.036C156.901 229.884 157.166 229.693 157.435 229.467L105.473 259.467Z" fill="#8BC5E4"/>
<path d="M104.675 260.035C103.703 260.591 102.719 260.634 101.559 259.967L153.521 229.967C154.681 230.634 155.665 230.591 156.637 230.035L104.675 260.035Z" fill="#8BC5E4"/>
<path d="M101.55 259.962C99.948 259.037 98.8828 257.652 97.6963 255.387L149.658 225.387C150.844 227.652 151.909 229.037 153.512 229.962L101.55 259.962Z" fill="#8BC5E4"/>
<path d="M97.6965 255.387C96.8565 253.772 96.0251 251.732 95.1504 249.437L147.112 219.437C147.987 221.732 148.818 223.772 149.658 225.387L97.6965 255.387Z" fill="#8BC5E4"/>
<path d="M95.1504 249.437C95.1851 249.377 95.2197 249.307 95.2717 249.267L147.233 219.267C147.181 219.307 147.147 219.377 147.112 219.437L95.1504 249.437Z" fill="#8BC5E4"/>
<path d="M95.2715 249.267C96.5792 247.242 97.7136 245.557 98.7442 244.782L150.706 214.782C149.675 215.557 148.541 217.242 147.233 219.267L95.2715 249.267Z" fill="#8BC5E4"/>
<path d="M98.7441 244.782C98.9359 244.634 99.1129 244.511 99.2819 244.414L151.243 214.414C151.074 214.511 150.897 214.634 150.706 214.782L98.7441 244.782Z" fill="#8BC5E4"/>
<path d="M99.2812 244.415C100.014 243.995 100.597 244.053 101.543 244.598L153.505 214.598C152.559 214.053 151.976 213.995 151.243 214.415L99.2812 244.415Z" fill="#8BC5E4"/>
<path d="M66.7275 224.497C67.6541 225.032 68.5461 226.197 69.7066 228.487L121.668 198.487C120.508 196.197 119.616 195.032 118.689 194.497L66.7275 224.497Z" fill="#8BC5E4"/>
<path d="M69.7061 228.487C70.8492 230.767 71.9491 233.752 73.0489 236.527L125.01 206.527C123.911 203.752 122.811 200.767 121.668 198.487L69.7061 228.487Z" fill="#8BC5E4"/>
<path d="M73.0493 236.527C73.058 236.552 73.0753 236.592 73.1013 236.647L125.063 206.647C125.037 206.592 125.02 206.552 125.011 206.527L73.0493 236.527Z" fill="#8BC5E4"/>
<path d="M73.101 236.647C72.3649 237.642 71.5941 238.637 70.7627 239.327L122.724 209.327C123.556 208.637 124.326 207.642 125.062 206.647L73.101 236.647Z" fill="#8BC5E4"/>
<path d="M70.763 239.327C70.5011 239.549 70.2391 239.738 69.9741 239.891L121.936 209.891C122.201 209.738 122.463 209.549 122.725 209.327L70.763 239.327Z" fill="#8BC5E4"/>
<path d="M69.9749 239.891C68.9609 240.478 67.9109 240.539 66.7319 239.86L118.693 209.86C119.872 210.539 120.922 210.478 121.936 209.891L69.9749 239.891Z" fill="#8BC5E4"/>
<path d="M66.7273 239.857C65.2031 238.977 63.8607 237.182 62.5703 234.697L114.532 204.697C115.822 207.182 117.165 208.977 118.689 209.857L66.7273 239.857Z" fill="#8BC5E4"/>
<path d="M62.5706 234.697C61.7306 233.082 60.9772 231.247 60.293 229.422L112.254 199.422C112.939 201.247 113.692 203.082 114.532 204.697L62.5706 234.697Z" fill="#8BC5E4"/>
<path d="M60.293 229.422C60.3709 229.307 60.4402 229.167 60.5095 229.047L112.471 199.047C112.402 199.167 112.332 199.307 112.254 199.422L60.293 229.422Z" fill="#8BC5E4"/>
<path d="M60.5093 229.047C61.4013 227.442 62.4752 225.782 63.6183 224.902L115.58 194.902C114.437 195.782 113.363 197.442 112.471 199.047L60.5093 229.047Z" fill="#8BC5E4"/>
<path d="M63.6182 224.902C63.806 224.756 63.989 224.631 64.168 224.528L116.129 194.528C115.95 194.631 115.767 194.756 115.58 194.902L63.6182 224.902Z" fill="#8BC5E4"/>
<path d="M64.167 224.529C65.078 224.002 65.891 224.016 66.721 224.494L118.682 194.494C117.852 194.016 117.039 194.002 116.128 194.529L64.167 224.529Z" fill="#8BC5E4"/>
<path d="M153.78 273.147C155.27 274.007 156.448 275.727 157.703 278.302L209.665 248.302C208.409 245.727 207.231 244.007 205.742 243.147L153.78 273.147Z" fill="#8BC5E4"/>
<path d="M157.703 278.302C158.474 279.917 159.219 281.777 159.972 283.672L211.934 253.672C211.18 251.777 210.435 249.917 209.665 248.302L157.703 278.302Z" fill="#8BC5E4"/>
<path d="M159.972 283.672C159.939 283.724 159.905 283.775 159.872 283.827L211.834 253.827C211.867 253.775 211.9 253.724 211.933 253.672L159.972 283.672Z" fill="#8BC5E4"/>
<path d="M159.873 283.827C158.782 285.513 157.724 287.149 156.682 288.032L208.643 258.032C209.685 257.149 210.744 255.513 211.834 253.827L159.873 283.827Z" fill="#8BC5E4"/>
<path d="M156.681 288.032C156.434 288.241 156.204 288.409 155.984 288.538L207.945 258.538C208.165 258.409 208.395 258.241 208.643 258.032L156.681 288.032Z" fill="#8BC5E4"/>
<path d="M155.985 288.537C155.217 288.985 154.571 288.952 153.786 288.5L205.748 258.5C206.533 258.952 207.179 258.985 207.947 258.537L155.985 288.537Z" fill="#8BC5E4"/>
<path d="M153.78 288.497C152.775 287.917 152.082 286.987 150.991 284.747L202.953 254.747C204.044 256.987 204.737 257.917 205.741 258.497L153.78 288.497Z" fill="#8BC5E4"/>
<path d="M150.991 284.747C149.935 282.607 148.835 279.612 147.579 276.477L199.541 246.477C200.796 249.612 201.896 252.607 202.953 254.747L150.991 284.747Z" fill="#8BC5E4"/>
<path d="M147.579 276.477C148.359 275.367 149.112 274.332 149.9 273.647L201.862 243.647C201.074 244.332 200.32 245.367 199.541 246.477L147.579 276.477Z" fill="#8BC5E4"/>
<path d="M149.9 273.647C150.187 273.393 150.467 273.182 150.75 273.019L202.712 243.019C202.429 243.182 202.149 243.393 201.862 243.647L149.9 273.647Z" fill="#8BC5E4"/>
<path d="M150.749 273.019C151.67 272.487 152.604 272.469 153.776 273.144L205.738 243.144C204.566 242.469 203.632 242.487 202.711 243.019L150.749 273.019Z" fill="#8BC5E4"/>
<path d="M118.957 253.042C120.507 253.937 121.616 255.497 122.837 257.972L174.798 227.972C173.577 225.497 172.469 223.937 170.919 223.042L118.957 253.042Z" fill="#8BC5E4"/>
<path d="M122.837 257.972C123.634 259.572 124.387 261.487 125.175 263.522L177.137 233.522C176.349 231.487 175.595 229.572 174.799 227.972L122.837 257.972Z" fill="#8BC5E4"/>
<path d="M125.175 263.522C123.919 265.267 122.811 266.997 121.754 267.927L173.716 237.927C174.772 236.997 175.881 235.267 177.137 233.522L125.175 263.522Z" fill="#8BC5E4"/>
<path d="M121.754 267.927C121.484 268.163 121.238 268.348 121.006 268.482L172.967 238.482C173.199 238.348 173.445 238.163 173.716 237.927L121.754 267.927Z" fill="#8BC5E4"/>
<path d="M121.007 268.481C120.311 268.884 119.733 268.839 118.963 268.395L170.924 238.395C171.694 238.839 172.272 238.884 172.968 238.481L121.007 268.481Z" fill="#8BC5E4"/>
<path d="M118.957 268.392C118.031 267.857 117.242 266.802 116.117 264.482L168.078 234.482C169.204 236.802 169.992 237.857 170.919 238.392L118.957 268.392Z" fill="#8BC5E4"/>
<path d="M116.117 264.482C115.034 262.257 113.96 259.317 112.765 256.387L164.727 226.387C165.922 229.317 166.996 232.257 168.078 234.482L116.117 264.482Z" fill="#8BC5E4"/>
<path d="M112.765 256.387C113.51 255.357 114.237 254.357 115.025 253.652L166.987 223.652C166.199 224.357 165.471 225.357 164.727 226.387L112.765 256.387Z" fill="#8BC5E4"/>
<path d="M115.025 253.652C115.33 253.382 115.63 253.157 115.931 252.982L167.892 222.982C167.591 223.157 167.291 223.382 166.987 223.652L115.025 253.652Z" fill="#8BC5E4"/>
<path d="M115.93 252.983C116.872 252.437 117.825 252.39 118.953 253.039L170.914 223.039C169.786 222.39 168.833 222.437 167.891 222.983L115.93 252.983Z" fill="#8BC5E4"/>
<path d="M84.1343 232.937C85.0869 233.487 86.308 235.002 87.6503 237.487L139.612 207.487C138.269 205.002 137.048 203.487 136.096 202.937L84.1343 232.937Z" fill="#8BC5E4"/>
<path d="M87.6504 237.487C88.5424 239.162 89.4604 241.202 90.3524 243.417L142.314 213.417C141.422 211.202 140.504 209.162 139.612 207.487L87.6504 237.487Z" fill="#8BC5E4"/>
<path d="M90.3523 243.417C89.2109 245.146 88.0099 246.636 86.8999 247.513L138.861 217.513C139.971 216.636 141.172 215.146 142.314 213.417L90.3523 243.417Z" fill="#8BC5E4"/>
<path d="M86.893 247.519C86.803 247.589 86.715 247.655 86.627 247.717L138.588 217.717C138.676 217.655 138.764 217.589 138.854 217.519L86.893 247.519Z" fill="#8BC5E4"/>
<path d="M86.6203 247.722C86.4884 247.816 86.3604 247.898 86.2354 247.97L138.197 217.97C138.322 217.898 138.45 217.816 138.582 217.722L86.6203 247.722Z" fill="#8BC5E4"/>
<path d="M86.2381 247.968C85.2301 248.552 84.4651 248.471 84.1431 248.292L136.105 218.292C136.427 218.471 137.192 218.552 138.2 217.968L86.2381 247.968Z" fill="#8BC5E4"/>
<path d="M84.1346 248.287C84.1519 248.297 82.8269 246.832 81.4932 244.282L133.455 214.282C134.788 216.832 136.113 218.297 136.096 218.287L84.1346 248.287Z" fill="#8BC5E4"/>
<path d="M81.493 244.282C80.2373 241.857 78.9555 238.827 77.9683 236.337L129.93 206.337C130.917 208.827 132.199 211.857 133.454 214.282L81.493 244.282Z" fill="#8BC5E4"/>
<path d="M77.9683 236.337C78.675 235.46 79.472 234.628 80.283 233.967L132.244 203.967C131.433 204.628 130.636 205.46 129.93 206.337L77.9683 236.337Z" fill="#8BC5E4"/>
<path d="M80.2783 233.971C80.3323 233.927 80.3863 233.883 80.4403 233.841L132.402 203.841C132.348 203.883 132.294 203.927 132.24 203.971L80.2783 233.971Z" fill="#8BC5E4"/>
<path d="M80.4453 233.837C80.6742 233.662 80.9052 233.508 81.1342 233.376L133.096 203.376C132.867 203.508 132.636 203.662 132.407 203.837L80.4453 233.837Z" fill="#8BC5E4"/>
<path d="M81.1318 233.376C82.3308 232.683 83.4878 232.568 84.1298 232.934L136.091 202.934C135.449 202.568 134.292 202.683 133.093 203.376L81.1318 233.376Z" fill="#8BC5E4"/>
<path d="M49.3203 212.837C50.9225 213.762 52.2475 215.587 53.5206 218.132L105.482 188.132C104.209 185.587 102.884 183.762 101.282 182.837L49.3203 212.837Z" fill="#8BC5E4"/>
<path d="M53.5205 218.132C54.2826 219.682 54.9841 221.427 55.6163 223.172L107.578 193.172C106.946 191.427 106.244 189.682 105.482 188.132L53.5205 218.132Z" fill="#8BC5E4"/>
<path d="M55.6159 223.172C55.5899 223.217 55.5639 223.272 55.5293 223.332L107.491 193.332C107.525 193.272 107.551 193.217 107.577 193.172L55.6159 223.172Z" fill="#8BC5E4"/>
<path d="M55.5293 223.332C54.6113 224.992 53.5634 226.747 52.4375 227.707L104.399 197.707C105.525 196.747 106.573 194.992 107.491 193.332L55.5293 223.332Z" fill="#8BC5E4"/>
<path d="M52.4378 227.707C52.2 227.907 51.972 228.072 51.75 228.202L103.711 198.202C103.933 198.072 104.161 197.907 104.399 197.707L52.4378 227.707Z" fill="#8BC5E4"/>
<path d="M51.7512 228.201C50.9212 228.685 50.1722 228.676 49.3262 228.191L101.288 198.191C102.134 198.676 102.883 198.685 103.713 198.201L51.7512 228.201Z" fill="#8BC5E4"/>
<path d="M49.3205 228.187C48.3593 227.632 46.6878 225.657 45.3975 223.252L97.359 193.252C98.6494 195.657 100.321 197.632 101.282 198.187L49.3205 228.187Z" fill="#8BC5E4"/>
<path d="M45.3968 223.252C44.0977 220.842 43.3789 218.127 43.3789 217.737L95.3404 187.737C95.3404 188.127 96.0592 190.842 97.3583 193.252L45.3968 223.252Z" fill="#8BC5E4"/>
<path d="M42.0107 216.947C42.1418 215.869 42.9308 214.305 44.1498 213.33L96.1113 183.33C94.8923 184.305 94.1033 185.869 93.9722 186.947L42.0107 216.947Z" fill="#8BC5E4"/>
<path d="M44.144 213.336C44.214 213.28 44.286 213.225 44.359 213.173L96.3205 183.173C96.2475 183.225 96.1755 183.28 96.1055 183.336L44.144 213.336Z" fill="#8BC5E4"/>
<path d="M44.3662 213.167C44.4957 213.076 44.6287 212.992 44.7647 212.915L96.7262 182.915C96.5902 182.992 96.4572 183.076 96.3277 183.167L44.3662 213.167Z" fill="#8BC5E4"/>
<path d="M44.7729 212.91C46.1789 212.111 47.8979 212.018 49.3159 212.834L101.277 182.834C99.8595 182.018 98.1404 182.111 96.7344 182.91L44.7729 212.91Z" fill="#8BC5E4"/>
<path d="M66.7273 218.027C64.041 216.476 61.846 216.775 60.189 217.73L112.15 187.73C113.807 186.775 116.002 186.476 118.689 188.027L66.7273 218.027Z" fill="#8BC5E4"/>
<path d="M60.1929 217.728C59.9219 217.884 59.6649 218.057 59.4229 218.243L111.384 188.243C111.626 188.057 111.883 187.884 112.154 187.728L60.1929 217.728Z" fill="#8BC5E4"/>
<path d="M59.4179 218.247C59.3629 218.29 59.3089 218.333 59.2559 218.377L111.217 188.377C111.27 188.333 111.324 188.29 111.379 188.247L59.4179 218.247Z" fill="#8BC5E4"/>
<path d="M59.2561 218.377C58.4531 219.038 57.7691 219.84 57.1611 220.677L109.123 190.677C109.731 189.84 110.415 189.038 111.218 188.377L59.2561 218.377Z" fill="#8BC5E4"/>
<path d="M57.1575 220.682C56.7071 219.562 56.2135 218.427 55.6592 217.327L107.621 187.327C108.175 188.427 108.669 189.562 109.119 190.682L57.1575 220.682Z" fill="#8BC5E4"/>
<path d="M55.6596 217.327C54.1181 214.217 52.005 211.147 49.3203 209.597L101.282 179.597C103.967 181.147 106.08 184.217 107.621 187.327L55.6596 217.327Z" fill="#8BC5E4"/>
<path d="M49.3202 209.597C46.8461 208.168 44.6301 208.447 42.8931 209.443L94.8546 179.443C96.5916 178.447 98.8076 178.168 101.282 179.597L49.3202 209.597Z" fill="#8BC5E4"/>
<path d="M42.8871 209.447C42.6951 209.557 42.5081 209.676 42.3281 209.803L94.2896 179.803C94.4696 179.676 94.6566 179.557 94.8486 179.447L42.8871 209.447Z" fill="#8BC5E4"/>
<path d="M42.3227 209.807C42.214 209.884 42.107 209.963 42.002 210.044L93.9635 180.044C94.0685 179.963 94.1755 179.884 94.2842 179.807L42.3227 209.807Z" fill="#8BC5E4"/>
<path d="M42.003 210.044C40.433 211.264 39.33 213.032 39.231 215.335L91.1925 185.335C91.2915 183.032 92.3945 181.264 93.9645 180.044L42.003 210.044Z" fill="#8BC5E4"/>
<path d="M37.8369 214.537C37.8369 217.887 39.3265 221.577 41.2924 225.242L93.2539 195.242C91.288 191.577 89.7985 187.887 89.7985 184.537L37.8369 214.537Z" fill="#8BC5E4"/>
<path d="M41.292 225.242C43.2752 228.917 45.9685 232.722 49.32 234.657L101.282 204.657C97.9301 202.722 95.2367 198.917 93.2535 195.242L41.292 225.242Z" fill="#8BC5E4"/>
<path d="M49.3203 234.657C51.9382 236.168 54.0812 235.92 55.6982 234.999L107.66 204.999C106.043 205.92 103.9 206.168 101.282 204.657L49.3203 234.657Z" fill="#8BC5E4"/>
<path d="M55.6934 235.002C56.0664 234.79 56.4124 234.542 56.7284 234.271L108.69 204.271C108.374 204.542 108.028 204.79 107.655 205.002L55.6934 235.002Z" fill="#8BC5E4"/>
<path d="M56.7334 234.267C57.5302 233.607 58.197 232.782 58.7859 231.932L110.747 201.932C110.158 202.782 109.492 203.607 108.695 204.267L56.7334 234.267Z" fill="#8BC5E4"/>
<path d="M58.7861 231.932C59.2884 233.162 59.8513 234.387 60.4749 235.597L112.436 205.597C111.813 204.387 111.25 203.162 110.748 201.932L58.7861 231.932Z" fill="#8BC5E4"/>
<path d="M60.4746 235.597C62.0507 238.647 64.1378 241.602 66.7273 243.097L118.689 213.097C116.099 211.602 114.012 208.647 112.436 205.597L60.4746 235.597Z" fill="#8BC5E4"/>
<path d="M66.7275 243.097C68.8472 244.321 70.5862 244.09 71.9852 243.279L123.947 213.279C122.548 214.09 120.809 214.321 118.689 213.097L66.7275 243.097Z" fill="#8BC5E4"/>
<path d="M71.9912 243.276C72.3142 243.088 72.6192 242.87 72.9062 242.631L124.868 212.631C124.581 212.87 124.276 213.088 123.953 213.276L71.9912 243.276Z" fill="#8BC5E4"/>
<path d="M72.9106 242.627C73.5861 242.047 74.1923 241.367 74.7466 240.647L126.708 210.647C126.154 211.367 125.548 212.047 124.872 212.627L72.9106 242.627Z" fill="#8BC5E4"/>
<path d="M74.7466 240.647C75.5087 242.417 76.366 244.292 77.3013 246.092L129.263 216.092C128.327 214.292 127.47 212.417 126.708 210.647L74.7466 240.647Z" fill="#8BC5E4"/>
<path d="M77.3018 246.092C79.0339 249.422 81.0084 252.952 84.1348 254.757L136.096 224.757C132.97 222.952 130.995 219.422 129.263 216.092L77.3018 246.092Z" fill="#8BC5E4"/>
<path d="M84.1343 254.757C86.5569 256.156 88.4799 255.79 90.0729 254.869L142.034 224.869C140.441 225.79 138.518 226.156 136.096 224.757L84.1343 254.757Z" fill="#8BC5E4"/>
<path d="M90.0791 254.866C90.2991 254.739 90.5121 254.601 90.7201 254.456L142.682 224.456C142.474 224.601 142.261 224.739 142.041 224.866L90.0791 254.866Z" fill="#8BC5E4"/>
<path d="M90.7246 254.452C90.7878 254.406 90.8498 254.36 90.9118 254.313L142.873 224.313C142.811 224.36 142.749 224.406 142.686 224.452L90.7246 254.452Z" fill="#8BC5E4"/>
<path d="M90.9121 254.313C91.8421 253.604 92.7061 252.704 93.5171 251.693L145.479 221.693C144.668 222.704 143.804 223.604 142.874 224.313L90.9121 254.313Z" fill="#8BC5E4"/>
<path d="M93.5225 251.687C94.1807 253.317 94.8562 254.867 95.6096 256.312L147.571 226.312C146.818 224.867 146.142 223.317 145.484 221.687L93.5225 251.687Z" fill="#8BC5E4"/>
<path d="M95.6094 256.312C97.1076 259.177 99.0822 261.777 101.55 263.202L153.512 233.202C151.044 231.777 149.069 229.177 147.571 226.312L95.6094 256.312Z" fill="#8BC5E4"/>
<path d="M101.55 263.202C103.63 264.403 105.33 264.195 106.697 263.407L158.658 233.407C157.291 234.195 155.591 234.403 153.511 233.202L101.55 263.202Z" fill="#8BC5E4"/>
<path d="M106.713 263.398C107.029 263.215 107.327 263.001 107.608 262.766L159.569 232.766C159.288 233.001 158.99 233.215 158.674 233.398L106.713 263.398Z" fill="#8BC5E4"/>
<path d="M107.612 262.762C108.305 262.182 108.92 261.467 109.5 260.742L161.462 230.742C160.882 231.467 160.267 232.182 159.574 232.762L107.612 262.762Z" fill="#8BC5E4"/>
<path d="M109.5 260.742C110.167 262.417 110.903 264.202 111.76 265.977L163.722 235.977C162.864 234.202 162.128 232.417 161.461 230.742L109.5 260.742Z" fill="#8BC5E4"/>
<path d="M111.761 265.977C113.363 269.282 115.762 273.017 118.957 274.862L170.919 244.862C167.723 243.017 165.324 239.282 163.722 235.977L111.761 265.977Z" fill="#8BC5E4"/>
<path d="M118.957 274.862C121.469 276.312 123.53 276.069 125.083 275.179L177.044 245.179C175.491 246.069 173.43 246.312 170.919 244.862L118.957 274.862Z" fill="#8BC5E4"/>
<path d="M125.078 275.182C125.436 274.977 125.767 274.737 126.071 274.476L178.033 244.476C177.729 244.737 177.398 244.977 177.04 245.182L125.078 275.182Z" fill="#8BC5E4"/>
<path d="M126.076 274.472C126.951 273.707 127.696 272.757 128.388 271.797L180.35 241.797C179.657 242.757 178.912 243.707 178.038 244.472L126.076 274.472Z" fill="#8BC5E4"/>
<path d="M128.388 271.797C128.951 273.232 129.549 274.657 130.241 276.027L182.203 246.027C181.51 244.657 180.913 243.232 180.35 241.797L128.388 271.797Z" fill="#8BC5E4"/>
<path d="M130.242 276.027C131.697 278.947 133.714 281.772 136.364 283.302L188.326 253.302C185.676 251.772 183.658 248.947 182.203 246.027L130.242 276.027Z" fill="#8BC5E4"/>
<path d="M136.364 283.302C138.542 284.559 140.287 284.427 141.646 283.65L193.607 253.65C192.248 254.427 190.503 254.559 188.326 253.302L136.364 283.302Z" fill="#8BC5E4"/>
<path d="M141.642 283.653C141.947 283.478 142.233 283.272 142.5 283.041L194.462 253.041C194.195 253.272 193.909 253.478 193.604 253.653L141.642 283.653Z" fill="#8BC5E4"/>
<path d="M142.504 283.037C143.18 282.447 143.786 281.727 144.34 280.937L196.302 250.937C195.748 251.727 195.141 252.447 194.466 253.037L142.504 283.037Z" fill="#8BC5E4"/>
<path d="M144.341 280.937C145.034 282.697 145.778 284.487 146.653 286.282L198.615 256.282C197.74 254.487 196.995 252.697 196.302 250.937L144.341 280.937Z" fill="#8BC5E4"/>
<path d="M146.652 286.282C148.255 289.547 150.662 293.167 153.78 294.967L205.741 264.967C202.624 263.167 200.216 259.547 198.614 256.282L146.652 286.282Z" fill="#8BC5E4"/>
<path d="M153.78 294.967C156.343 296.446 158.446 296.194 160.028 295.275L211.99 265.275C210.408 266.194 208.305 266.446 205.742 264.967L153.78 294.967Z" fill="#8BC5E4"/>
<path d="M160.023 295.278C160.36 295.082 160.674 294.857 160.963 294.611L212.924 264.611C212.635 264.857 212.321 265.082 211.984 265.278L160.023 295.278Z" fill="#8BC5E4"/>
<path d="M160.968 294.607C161.834 293.877 162.57 292.982 163.228 292.032L215.19 262.032C214.531 262.982 213.795 263.877 212.929 264.607L160.968 294.607Z" fill="#8BC5E4"/>
<path d="M163.229 292.032C163.679 293.222 164.164 294.442 164.727 295.647L216.688 265.647C216.125 264.442 215.64 263.222 215.19 262.032L163.229 292.032Z" fill="#8BC5E4"/>
<path d="M164.727 295.647C166.121 298.632 168.225 301.697 171.187 303.407L223.149 273.407C220.187 271.697 218.082 268.632 216.688 265.647L164.727 295.647Z" fill="#8BC5E4"/>
<path d="M171.188 303.407C173.749 304.886 175.902 304.628 177.541 303.681L229.503 273.681C227.864 274.628 225.711 274.886 223.149 273.407L171.188 303.407Z" fill="#8BC5E4"/>
<path d="M177.547 303.677C177.888 303.48 178.205 303.253 178.5 303.006L230.461 273.006C230.166 273.253 229.849 273.48 229.508 273.677L177.547 303.677Z" fill="#8BC5E4"/>
<path d="M178.505 303.002C180.22 301.552 181.285 299.607 181.285 297.357L233.246 267.357C233.246 269.607 232.181 271.552 230.466 273.002L178.505 303.002Z" fill="#8BC5E4"/>
<path d="M182.662 298.152C182.662 291.392 177.917 282.222 171.188 278.337L223.149 248.337C229.878 252.222 234.624 261.392 234.624 268.152L182.662 298.152Z" fill="#8BC5E4"/>
<path d="M171.187 278.337C168.35 276.699 165.999 276.774 164.384 277.718L216.345 247.718C217.96 246.774 220.311 246.699 223.149 248.337L171.187 278.337Z" fill="#8BC5E4"/>
<path d="M164.378 277.722C164.07 277.902 163.789 278.115 163.536 278.353L215.498 248.353C215.751 248.115 216.032 247.902 216.34 247.722L164.378 277.722Z" fill="#8BC5E4"/>
<path d="M163.532 278.357C162.674 279.162 162.034 280.152 161.462 281.142L213.423 251.142C213.995 250.152 214.636 249.162 215.493 248.357L163.532 278.357Z" fill="#8BC5E4"/>
<path d="M161.462 281.142C160.968 279.957 160.448 278.747 159.877 277.567L211.838 247.567C212.41 248.747 212.93 249.957 213.423 251.142L161.462 281.142Z" fill="#8BC5E4"/>
<path d="M159.877 277.567C158.396 274.502 156.413 271.427 153.78 269.907L205.742 239.907C208.375 241.427 210.358 244.502 211.839 247.567L159.877 277.567Z" fill="#8BC5E4"/>
<path d="M153.78 269.907C151.737 268.727 150.077 268.889 148.739 269.651L200.701 239.651C202.039 238.889 203.699 238.727 205.742 239.907L153.78 269.907Z" fill="#8BC5E4"/>
<path d="M148.744 269.649C148.386 269.852 148.052 270.098 147.74 270.373L199.702 240.373C200.014 240.098 200.348 239.852 200.706 239.649L148.744 269.649Z" fill="#8BC5E4"/>
<path d="M147.735 270.377C147.095 270.937 146.523 271.637 145.969 272.357L197.93 242.357C198.485 241.637 199.056 240.937 199.697 240.377L147.735 270.377Z" fill="#8BC5E4"/>
<path d="M145.968 272.357C145.267 270.552 144.514 268.677 143.578 266.797L195.54 236.797C196.475 238.677 197.228 240.552 197.93 242.357L145.968 272.357Z" fill="#8BC5E4"/>
<path d="M143.578 266.797C141.985 263.587 139.499 260.042 136.364 258.232L188.326 228.232C191.461 230.042 193.946 233.587 195.54 236.797L143.578 266.797Z" fill="#8BC5E4"/>
<path d="M136.364 258.232C133.741 256.717 131.562 256.912 129.982 257.829L181.943 227.829C183.523 226.912 185.702 226.717 188.326 228.232L136.364 258.232Z" fill="#8BC5E4"/>
<path d="M129.987 257.826C129.694 257.996 129.422 258.19 129.172 258.403L181.133 228.403C181.383 228.19 181.655 227.996 181.948 227.826L129.987 257.826Z" fill="#8BC5E4"/>
<path d="M129.167 258.407C128.232 259.197 127.47 260.197 126.769 261.212L178.73 231.212C179.432 230.197 180.194 229.197 181.129 228.407L129.167 258.407Z" fill="#8BC5E4"/>
<path d="M126.769 261.212C126.223 259.847 125.643 258.492 124.993 257.177L176.955 227.177C177.604 228.492 178.184 229.847 178.73 231.212L126.769 261.212Z" fill="#8BC5E4"/>
<path d="M124.993 257.177C123.512 254.192 121.529 251.287 118.957 249.802L170.919 219.802C173.491 221.287 175.474 224.192 176.955 227.177L124.993 257.177Z" fill="#8BC5E4"/>
<path d="M118.957 249.802C116.911 248.62 115.257 248.82 113.922 249.596L165.883 219.596C167.218 218.82 168.872 218.62 170.919 219.802L118.957 249.802Z" fill="#8BC5E4"/>
<path d="M113.926 249.594C113.544 249.816 113.188 250.085 112.856 250.383L164.817 220.383C165.149 220.085 165.505 219.816 165.887 219.594L113.926 249.594Z" fill="#8BC5E4"/>
<path d="M112.852 250.387C112.22 250.952 111.657 251.617 111.128 252.312L163.09 222.312C163.618 221.617 164.181 220.952 164.813 220.387L112.852 250.387Z" fill="#8BC5E4"/>
<path d="M111.129 252.312C110.419 250.542 109.622 248.652 108.687 246.772L160.648 216.772C161.583 218.652 162.38 220.542 163.09 222.312L111.129 252.312Z" fill="#8BC5E4"/>
<path d="M108.686 246.772C107.049 243.537 104.676 239.937 101.55 238.132L153.511 208.132C156.638 209.937 159.011 213.537 160.647 216.772L108.686 246.772Z" fill="#8BC5E4"/>
<path d="M101.55 238.132C98.9633 236.638 96.7363 236.793 95.1113 237.74L147.073 207.74C148.698 206.793 150.925 206.638 153.512 208.132L101.55 238.132Z" fill="#8BC5E4"/>
<path d="M95.1149 237.737C94.9239 237.849 94.7399 237.971 94.5659 238.103L146.527 208.103C146.701 207.971 146.885 207.849 147.076 207.737L95.1149 237.737Z" fill="#8BC5E4"/>
<path d="M94.5613 238.107C94.498 238.157 94.435 238.207 94.373 238.259L146.335 208.259C146.397 208.207 146.46 208.157 146.523 208.107L94.5613 238.107Z" fill="#8BC5E4"/>
<path d="M94.3739 238.259C93.4439 239.03 92.6529 240.01 91.8989 241.09L143.86 211.09C144.614 210.01 145.405 209.03 146.335 208.259L94.3739 238.259Z" fill="#8BC5E4"/>
<path d="M91.894 241.097C91.1925 239.472 90.465 237.922 89.6943 236.487L141.656 206.487C142.427 207.922 143.154 209.472 143.856 211.097L91.894 241.097Z" fill="#8BC5E4"/>
<path d="M89.6942 236.487C88.1007 233.537 86.2907 230.942 84.1343 229.697L136.096 199.697C138.252 200.942 140.062 203.537 141.656 206.487L89.6942 236.487Z" fill="#8BC5E4"/>
<path d="M84.1345 229.697C82.3261 228.653 80.8331 228.97 79.4971 229.74L131.459 199.74C132.795 198.97 134.288 198.653 136.096 199.697L84.1345 229.697Z" fill="#8BC5E4"/>
<path d="M79.5013 229.738C79.1103 229.963 78.7323 230.228 78.3633 230.508L130.325 200.508C130.694 200.228 131.072 199.963 131.463 199.738L79.5013 229.738Z" fill="#8BC5E4"/>
<path d="M78.358 230.512C78.315 230.546 78.272 230.58 78.228 230.614L130.19 200.614C130.234 200.58 130.277 200.546 130.32 200.512L78.358 230.512Z" fill="#8BC5E4"/>
<path d="M78.2293 230.614C77.5853 231.13 76.9723 231.721 76.4043 232.338L128.366 202.338C128.934 201.721 129.547 201.13 130.191 200.614L78.2293 230.614Z" fill="#8BC5E4"/>
<path d="M76.4005 232.342C75.7163 230.607 74.9196 228.717 73.9756 226.842L125.937 196.842C126.881 198.717 127.678 200.607 128.362 202.342L76.4005 232.342Z" fill="#8BC5E4"/>
<path d="M73.9761 226.842C72.322 223.537 69.9144 219.867 66.7275 218.027L118.689 188.027C121.876 189.867 124.284 193.537 125.938 196.842L73.9761 226.842Z" fill="#8BC5E4"/>
<path d="M10.47 31.4072C7.64078 29.7742 5.06478 29.6112 3.17578 30.6662L55.1373 0.666154C57.0263 -0.388846 59.6023 -0.225846 62.4316 1.40715L10.47 31.4072Z" fill="#8BC5E4"/>
<path d="M3.179 30.6652C1.223 31.7552 0.003 34.1512 0 37.5722L51.9615 7.57216C51.9645 4.15116 53.1845 1.75516 55.1405 0.665161L3.179 30.6652Z" fill="#8BC5E4"/>
<path d="M0 213.142C0 219.872 4.7112 228.082 10.4702 231.407L62.4318 201.407C56.6727 198.082 51.9615 189.872 51.9615 183.142L0 213.142Z" fill="#8BC5E4"/>
<path d="M211.232 347.317C214.057 348.948 216.633 349.11 218.523 348.056L270.485 318.056C268.595 319.11 266.019 318.948 263.194 317.317L211.232 347.317Z" fill="#8BC5E4"/>
<path d="M218.532 348.051C220.482 346.958 221.7 344.566 221.702 341.152L273.664 311.152C273.662 314.566 272.444 316.958 270.494 318.051L218.532 348.051Z" fill="#8BC5E4"/>
<path d="M221.703 165.582C221.703 158.852 216.983 150.637 211.232 147.317L263.194 117.317C268.944 120.637 273.664 128.852 273.664 135.582L221.703 165.582Z" fill="#8BC5E4"/>
<path d="M211.232 152.827C214.445 154.682 216.965 159.077 216.965 162.847L268.927 132.847C268.927 129.077 266.407 124.682 263.194 122.827L211.232 152.827Z" fill="#8BC5E4"/>
<path d="M216.965 338.407C216.965 340.321 216.315 341.647 215.255 342.244L267.216 312.244C268.276 311.647 268.926 310.321 268.927 308.407L216.965 338.407Z" fill="#8BC5E4"/>
<path d="M215.257 342.244C214.23 342.824 212.817 342.721 211.237 341.81L263.199 311.81C264.779 312.721 266.192 312.824 267.219 312.244L215.257 342.244Z" fill="#8BC5E4"/>
<path d="M10.4702 225.897C7.24862 224.037 4.72852 219.642 4.72852 215.872L56.69 185.872C56.69 189.642 59.2102 194.037 62.4318 195.897L10.4702 225.897Z" fill="#8BC5E4"/>
<path d="M4.72852 40.3122C4.72802 38.3982 5.37802 37.0722 6.44002 36.4752L58.4015 6.47516C57.3395 7.07216 56.6895 8.39816 56.69 10.3122L4.72852 40.3122Z" fill="#8BC5E4"/>
<path d="M6.43799 36.4762C7.46599 35.8972 8.88099 36.0012 10.466 36.9142L62.4275 6.91418C60.8425 6.00118 59.4275 5.89718 58.3995 6.47618L6.43799 36.4762Z" fill="#8BC5E4"/>
<path d="M211.232 152.827C214.445 154.682 216.965 159.077 216.965 162.847L268.927 132.847C268.927 129.077 266.407 124.682 263.194 122.827L211.232 152.827Z" fill="#8BC5E4"/>
<path d="M216.965 338.407C216.965 340.321 216.315 341.647 215.255 342.244L267.216 312.244C268.276 311.647 268.926 310.321 268.927 308.407L216.965 338.407Z" fill="#8BC5E4"/>
<path d="M215.257 342.244C214.23 342.824 212.817 342.721 211.237 341.81L263.199 311.81C264.779 312.721 266.192 312.824 267.219 312.244L215.257 342.244Z" fill="#8BC5E4"/>
<path d="M10.4702 225.897C7.24862 224.037 4.72852 219.642 4.72852 215.872L56.69 185.872C56.69 189.642 59.2102 194.037 62.4318 195.897L10.4702 225.897Z" fill="#8BC5E4"/>
<path d="M4.72852 40.3122C4.72802 38.3982 5.37802 37.0722 6.44002 36.4752L58.4015 6.47516C57.3395 7.07216 56.6895 8.39816 56.69 10.3122L4.72852 40.3122Z" fill="#8BC5E4"/>
<path d="M6.43799 36.4762C7.46599 35.8972 8.88099 36.0012 10.466 36.9142L62.4275 6.91418C60.8425 6.00118 59.4275 5.89718 58.3995 6.47618L6.43799 36.4762Z" fill="#8BC5E4"/>
<path d="M59.418 218.247C59.66 218.061 59.917 217.887 60.189 217.73L112.15 187.73C111.878 187.887 111.621 188.061 111.379 188.247L59.418 218.247Z" fill="#8BC5E4"/>
<path d="M60.188 217.731C61.845 216.776 64.038 216.476 66.723 218.024L118.684 188.024C115.999 186.476 113.806 186.776 112.149 187.731L60.188 217.731Z" fill="#8BC5E4"/>
<path d="M66.7275 218.027C69.9144 219.867 72.322 223.537 73.9761 226.842L125.938 196.842C124.284 193.537 121.876 189.867 118.689 188.027L66.7275 218.027Z" fill="#8BC5E4"/>
<path d="M73.9756 226.842C74.9196 228.717 75.7163 230.607 76.4005 232.342L128.362 202.342C127.678 200.607 126.881 198.717 125.937 196.842L73.9756 226.842Z" fill="#8BC5E4"/>
<path d="M76.4009 232.342C76.9691 231.723 77.5831 231.131 78.2281 230.614L130.19 200.614C129.545 201.131 128.931 201.723 128.362 202.342L76.4009 232.342Z" fill="#8BC5E4"/>
<path d="M78.2251 230.617C78.2681 230.583 78.3111 230.549 78.3541 230.515L130.316 200.515C130.273 200.549 130.23 200.583 130.187 200.617L78.2251 230.617Z" fill="#8BC5E4"/>
<path d="M78.3579 230.512C78.7269 230.231 79.1049 229.966 79.4969 229.74L131.458 199.74C131.066 199.966 130.688 200.231 130.319 200.512L78.3579 230.512Z" fill="#8BC5E4"/>
<path d="M79.4961 229.741C80.8311 228.971 82.3221 228.653 84.1281 229.693L136.09 199.693C134.284 198.653 132.793 198.971 131.458 199.741L79.4961 229.741Z" fill="#8BC5E4"/>
<path d="M84.1343 229.697C86.2907 230.942 88.1007 233.537 89.6942 236.487L141.656 206.487C140.062 203.537 138.252 200.942 136.096 199.697L84.1343 229.697Z" fill="#8BC5E4"/>
<path d="M89.6943 236.487C90.465 237.922 91.1925 239.472 91.894 241.097L143.856 211.097C143.154 209.472 142.427 207.922 141.656 206.487L89.6943 236.487Z" fill="#8BC5E4"/>
<path d="M91.894 241.097C92.649 240.014 93.442 239.032 94.373 238.259L146.335 208.259C145.404 209.032 144.611 210.014 143.856 211.097L91.894 241.097Z" fill="#8BC5E4"/>
<path d="M94.3682 238.264C94.4292 238.212 94.4922 238.162 94.5552 238.112L146.517 208.112C146.454 208.162 146.391 208.212 146.33 208.264L94.3682 238.264Z" fill="#8BC5E4"/>
<path d="M94.5615 238.107C94.7362 237.975 94.9192 237.852 95.1112 237.74L147.073 207.74C146.881 207.852 146.698 207.975 146.523 208.107L94.5615 238.107Z" fill="#8BC5E4"/>
<path d="M95.1104 237.74C96.7334 236.794 98.9584 236.638 101.542 238.127L153.504 208.127C150.92 206.638 148.695 206.794 147.072 207.74L95.1104 237.74Z" fill="#8BC5E4"/>
<path d="M101.55 238.132C104.676 239.937 107.049 243.537 108.686 246.772L160.647 216.772C159.011 213.537 156.638 209.937 153.511 208.132L101.55 238.132Z" fill="#8BC5E4"/>
<path d="M108.687 246.772C109.622 248.652 110.419 250.542 111.129 252.312L163.09 222.312C162.38 220.542 161.583 218.652 160.648 216.772L108.687 246.772Z" fill="#8BC5E4"/>
<path d="M111.128 252.312C111.657 251.617 112.22 250.952 112.852 250.387L164.813 220.387C164.181 220.952 163.618 221.617 163.09 222.312L111.128 252.312Z" fill="#8BC5E4"/>
<path d="M112.852 250.387C113.183 250.089 113.54 249.819 113.922 249.596L165.883 219.596C165.501 219.819 165.144 220.089 164.813 220.387L112.852 250.387Z" fill="#8BC5E4"/>
<path d="M113.921 249.597C115.254 248.82 116.906 248.62 118.95 249.798L170.911 219.798C168.867 218.62 167.215 218.82 165.882 219.597L113.921 249.597Z" fill="#8BC5E4"/>
<path d="M118.957 249.802C121.529 251.287 123.512 254.192 124.993 257.177L176.955 227.177C175.474 224.192 173.491 221.287 170.919 219.802L118.957 249.802Z" fill="#8BC5E4"/>
<path d="M124.993 257.177C125.643 258.492 126.223 259.847 126.769 261.212L178.73 231.212C178.184 229.847 177.604 228.492 176.955 227.177L124.993 257.177Z" fill="#8BC5E4"/>
<path d="M126.769 261.212C127.47 260.197 128.232 259.197 129.167 258.407L181.129 228.407C180.194 229.197 179.432 230.197 178.73 231.212L126.769 261.212Z" fill="#8BC5E4"/>
<path d="M129.168 258.407C129.418 258.194 129.69 257.999 129.982 257.829L181.944 227.829C181.652 227.999 181.38 228.194 181.129 228.407L129.168 258.407Z" fill="#8BC5E4"/>
<path d="M129.982 257.829C131.56 256.912 133.738 256.718 136.36 258.229L188.321 228.229C185.699 226.718 183.521 226.912 181.943 227.829L129.982 257.829Z" fill="#8BC5E4"/>
<path d="M136.364 258.232C139.499 260.042 141.985 263.587 143.578 266.797L195.54 236.797C193.946 233.587 191.461 230.042 188.326 228.232L136.364 258.232Z" fill="#8BC5E4"/>
<path d="M143.578 266.797C144.514 268.677 145.267 270.552 145.968 272.357L197.93 242.357C197.228 240.552 196.475 238.677 195.54 236.797L143.578 266.797Z" fill="#8BC5E4"/>
<path d="M145.969 272.357C146.523 271.637 147.095 270.937 147.735 270.377L199.697 240.377C199.056 240.937 198.485 241.637 197.93 242.357L145.969 272.357Z" fill="#8BC5E4"/>
<path d="M147.735 270.377C148.048 270.102 148.382 269.855 148.739 269.651L200.701 239.651C200.344 239.855 200.01 240.102 199.697 240.377L147.735 270.377Z" fill="#8BC5E4"/>
<path d="M148.739 269.652C150.074 268.89 151.732 268.727 153.773 269.903L205.735 239.903C203.694 238.727 202.036 238.89 200.701 239.652L148.739 269.652Z" fill="#8BC5E4"/>
<path d="M153.78 269.907C156.413 271.427 158.396 274.502 159.877 277.567L211.839 247.567C210.358 244.502 208.375 241.427 205.742 239.907L153.78 269.907Z" fill="#8BC5E4"/>
<path d="M159.877 277.567C160.448 278.747 160.968 279.957 161.462 281.142L213.423 251.142C212.93 249.957 212.41 248.747 211.838 247.567L159.877 277.567Z" fill="#8BC5E4"/>
<path d="M161.462 281.142C162.034 280.152 162.674 279.162 163.532 278.357L215.493 248.357C214.636 249.162 213.995 250.152 213.423 251.142L161.462 281.142Z" fill="#8BC5E4"/>
<path d="M163.531 278.357C163.787 278.115 164.072 277.9 164.384 277.718L216.345 247.718C216.033 247.9 215.748 248.115 215.493 248.357L163.531 278.357Z" fill="#8BC5E4"/>
<path d="M164.384 277.718C165.998 276.774 168.347 276.698 171.182 278.334L223.143 248.334C220.308 246.698 217.959 246.774 216.345 247.718L164.384 277.718Z" fill="#8BC5E4"/>
<path d="M171.188 278.337C177.917 282.222 182.662 291.392 182.662 298.152L234.624 268.152C234.624 261.392 229.878 252.222 223.149 248.337L171.188 278.337Z" fill="#8BC5E4"/>
<path d="M181.285 297.357C181.285 299.607 180.22 301.552 178.505 303.002L230.466 273.002C232.181 271.552 233.246 269.607 233.246 267.357L181.285 297.357Z" fill="#8BC5E4"/>
<path d="M178.505 303.002C178.207 303.252 177.885 303.482 177.541 303.681L229.503 273.681C229.847 273.482 230.169 273.252 230.467 273.002L178.505 303.002Z" fill="#8BC5E4"/>
<path d="M177.541 303.681C175.903 304.627 173.751 304.886 171.192 303.41L223.153 273.41C225.712 274.886 227.864 274.627 229.502 273.681L177.541 303.681Z" fill="#8BC5E4"/>
<path d="M171.187 303.407C168.225 301.697 166.121 298.632 164.727 295.647L216.688 265.647C218.082 268.632 220.187 271.697 223.149 273.407L171.187 303.407Z" fill="#8BC5E4"/>
<path d="M164.727 295.647C164.164 294.442 163.679 293.222 163.229 292.032L215.19 262.032C215.64 263.222 216.125 264.442 216.688 265.647L164.727 295.647Z" fill="#8BC5E4"/>
<path d="M163.228 292.032C162.57 292.982 161.834 293.877 160.968 294.607L212.929 264.607C213.795 263.877 214.531 262.982 215.19 262.032L163.228 292.032Z" fill="#8BC5E4"/>
<path d="M160.968 294.607C160.679 294.853 160.365 295.079 160.028 295.275L211.99 265.275C212.327 265.079 212.641 264.853 212.93 264.607L160.968 294.607Z" fill="#8BC5E4"/>
<path d="M160.028 295.275C158.447 296.193 156.346 296.446 153.785 294.97L205.747 264.97C208.308 266.446 210.409 266.193 211.99 265.275L160.028 295.275Z" fill="#8BC5E4"/>
<path d="M153.78 294.967C150.662 293.167 148.255 289.547 146.652 286.282L198.614 256.282C200.216 259.547 202.624 263.167 205.741 264.967L153.78 294.967Z" fill="#8BC5E4"/>
<path d="M146.653 286.282C145.778 284.487 145.034 282.697 144.341 280.937L196.302 250.937C196.995 252.697 197.74 254.487 198.615 256.282L146.653 286.282Z" fill="#8BC5E4"/>
<path d="M144.34 280.937C143.786 281.727 143.18 282.447 142.504 283.037L194.466 253.037C195.141 252.447 195.748 251.727 196.302 250.937L144.34 280.937Z" fill="#8BC5E4"/>
<path d="M142.504 283.037C142.237 283.268 141.951 283.476 141.646 283.65L193.607 253.65C193.912 253.476 194.198 253.268 194.466 253.037L142.504 283.037Z" fill="#8BC5E4"/>
<path d="M141.647 283.65C140.289 284.426 138.547 284.559 136.372 283.307L188.334 253.307C190.509 254.559 192.251 254.426 193.609 253.65L141.647 283.65Z" fill="#8BC5E4"/>
<path d="M136.364 283.302C133.714 281.772 131.697 278.947 130.242 276.027L182.203 246.027C183.658 248.947 185.676 251.772 188.326 253.302L136.364 283.302Z" fill="#8BC5E4"/>
<path d="M130.241 276.027C129.549 274.657 128.951 273.232 128.388 271.797L180.35 241.797C180.913 243.232 181.51 244.657 182.203 246.027L130.241 276.027Z" fill="#8BC5E4"/>
<path d="M128.388 271.797C127.696 272.757 126.951 273.707 126.076 274.472L178.038 244.472C178.912 243.707 179.657 242.757 180.35 241.797L128.388 271.797Z" fill="#8BC5E4"/>
<path d="M126.076 274.472C125.772 274.734 125.441 274.974 125.083 275.179L177.045 245.179C177.403 244.974 177.734 244.734 178.038 244.472L126.076 274.472Z" fill="#8BC5E4"/>
<path d="M125.083 275.179C123.531 276.068 121.472 276.312 118.962 274.865L170.923 244.865C173.433 246.312 175.492 246.068 177.044 245.179L125.083 275.179Z" fill="#8BC5E4"/>
<path d="M118.957 274.862C115.762 273.017 113.363 269.282 111.761 265.977L163.722 235.977C165.324 239.282 167.723 243.017 170.919 244.862L118.957 274.862Z" fill="#8BC5E4"/>
<path d="M111.76 265.977C110.903 264.202 110.167 262.417 109.5 260.742L161.461 230.742C162.128 232.417 162.864 234.202 163.722 235.977L111.76 265.977Z" fill="#8BC5E4"/>
<path d="M109.5 260.742C108.92 261.467 108.305 262.182 107.612 262.762L159.574 232.762C160.267 232.182 160.882 231.467 161.462 230.742L109.5 260.742Z" fill="#8BC5E4"/>
<path d="M107.613 262.762C107.326 263.002 107.021 263.221 106.697 263.407L158.659 233.407C158.983 233.221 159.288 233.002 159.574 232.762L107.613 262.762Z" fill="#8BC5E4"/>
<path d="M106.698 263.407C105.333 264.194 103.634 264.403 101.558 263.206L153.52 233.206C155.596 234.403 157.295 234.194 158.66 233.407L106.698 263.407Z" fill="#8BC5E4"/>
<path d="M101.55 263.202C99.0822 261.777 97.1076 259.177 95.6094 256.312L147.571 226.312C149.069 229.177 151.044 231.777 153.512 233.202L101.55 263.202Z" fill="#8BC5E4"/>
<path d="M95.6096 256.312C94.8562 254.867 94.1807 253.317 93.5225 251.687L145.484 221.687C146.142 223.317 146.818 224.867 147.571 226.312L95.6096 256.312Z" fill="#8BC5E4"/>
<path d="M93.5222 251.687C92.7101 252.7 91.8451 253.602 90.9121 254.313L142.874 224.313C143.807 223.602 144.672 222.7 145.484 221.687L93.5222 251.687Z" fill="#8BC5E4"/>
<path d="M90.918 254.309C90.856 254.356 90.794 254.402 90.731 254.448L142.692 224.448C142.755 224.402 142.817 224.356 142.879 224.309L90.918 254.309Z" fill="#8BC5E4"/>
<path d="M90.725 254.452C90.5142 254.6 90.2972 254.74 90.0732 254.869L142.035 224.869C142.259 224.74 142.476 224.6 142.687 224.452L90.725 254.452Z" fill="#8BC5E4"/>
<path d="M90.0741 254.869C88.4831 255.789 86.5621 256.155 84.1421 254.762L136.104 224.762C138.524 226.155 140.445 225.789 142.036 224.869L90.0741 254.869Z" fill="#8BC5E4"/>
<path d="M84.1348 254.757C81.0084 252.952 79.0339 249.422 77.3018 246.092L129.263 216.092C130.995 219.422 132.97 222.952 136.096 224.757L84.1348 254.757Z" fill="#8BC5E4"/>
<path d="M77.3013 246.092C76.366 244.292 75.5087 242.417 74.7466 240.647L126.708 210.647C127.47 212.417 128.327 214.292 129.263 216.092L77.3013 246.092Z" fill="#8BC5E4"/>
<path d="M74.7466 240.647C74.1923 241.367 73.5861 242.047 72.9106 242.627L124.872 212.627C125.548 212.047 126.154 211.367 126.708 210.647L74.7466 240.647Z" fill="#8BC5E4"/>
<path d="M72.9111 242.627C72.6204 242.869 72.3124 243.09 71.9854 243.279L123.947 213.279C124.274 213.09 124.582 212.869 124.873 212.627L72.9111 242.627Z" fill="#8BC5E4"/>
<path d="M71.9864 243.279C70.5884 244.089 68.8524 244.321 66.7354 243.101L118.697 213.101C120.814 214.321 122.55 214.089 123.948 213.279L71.9864 243.279Z" fill="#8BC5E4"/>
<path d="M66.7273 243.097C64.1378 241.602 62.0507 238.647 60.4746 235.597L112.436 205.597C114.012 208.647 116.099 211.602 118.689 213.097L66.7273 243.097Z" fill="#8BC5E4"/>
<path d="M60.4749 235.597C59.8513 234.387 59.2884 233.162 58.7861 231.932L110.748 201.932C111.25 203.162 111.813 204.387 112.436 205.597L60.4749 235.597Z" fill="#8BC5E4"/>
<path d="M58.7859 231.932C58.197 232.782 57.5302 233.607 56.7334 234.267L108.695 204.267C109.492 203.607 110.158 202.782 110.747 201.932L58.7859 231.932Z" fill="#8BC5E4"/>
<path d="M56.7335 234.267C56.4172 234.538 56.0712 234.786 55.6982 234.999L107.66 204.999C108.033 204.786 108.379 204.538 108.695 204.267L56.7335 234.267Z" fill="#8BC5E4"/>
<path d="M55.6992 234.999C54.0822 235.919 51.9402 236.168 49.3252 234.66L101.287 204.66C103.902 206.168 106.044 205.919 107.661 204.999L55.6992 234.999Z" fill="#8BC5E4"/>
<path d="M49.32 234.657C45.9685 232.722 43.2752 228.917 41.292 225.242L93.2535 195.242C95.2367 198.917 97.9301 202.722 101.282 204.657L49.32 234.657Z" fill="#8BC5E4"/>
<path d="M41.2924 225.242C39.3265 221.577 37.8369 217.887 37.8369 214.537L89.7985 184.537C89.7985 187.887 91.288 191.577 93.2539 195.242L41.2924 225.242Z" fill="#8BC5E4"/>
<path d="M39.231 215.342C39.328 213.036 40.431 211.266 42.002 210.044L93.9635 180.044C92.3925 181.266 91.2895 183.036 91.1925 185.342L39.231 215.342Z" fill="#8BC5E4"/>
<path d="M41.998 210.048C42.103 209.967 42.209 209.888 42.318 209.811L94.2795 179.811C94.1705 179.888 94.0645 179.967 93.9595 180.048L41.998 210.048Z" fill="#8BC5E4"/>
<path d="M42.3228 209.807C42.5061 209.678 42.6971 209.556 42.8931 209.443L94.8546 179.443C94.6586 179.556 94.4676 179.678 94.2843 179.807L42.3228 209.807Z" fill="#8BC5E4"/>
<path d="M42.8931 209.443C44.6281 208.448 46.8401 208.169 49.3121 209.592L101.274 179.592C98.8016 178.169 96.5896 178.448 94.8546 179.443L42.8931 209.443Z" fill="#8BC5E4"/>
<path d="M49.3203 209.597C52.005 211.147 54.1181 214.217 55.6596 217.327L107.621 187.327C106.08 184.217 103.967 181.147 101.282 179.597L49.3203 209.597Z" fill="#8BC5E4"/>
<path d="M55.6592 217.327C56.2135 218.427 56.7071 219.562 57.1575 220.682L109.119 190.682C108.669 189.562 108.175 188.427 107.621 187.327L55.6592 217.327Z" fill="#8BC5E4"/>
<path d="M57.1577 220.682C57.767 219.843 58.452 219.039 59.256 218.377L111.218 188.377C110.414 189.039 109.729 189.843 109.119 190.682L57.1577 220.682Z" fill="#8BC5E4"/>
<path d="M59.2607 218.373C59.3107 218.332 59.3617 218.291 59.4127 218.251L111.374 188.251C111.323 188.291 111.272 188.332 111.222 188.373L59.2607 218.373Z" fill="#8BC5E4"/>
<path d="M171.188 284.807C174.903 286.952 177.12 291.702 177.12 294.952L229.081 264.952C229.081 261.702 226.864 256.952 223.149 254.807L171.188 284.807Z" fill="#8BC5E4"/>
<path d="M178.514 295.757C178.514 296.427 177.743 298.552 176.357 299.712L228.319 269.712C229.705 268.552 230.475 266.427 230.475 265.757L178.514 295.757Z" fill="#8BC5E4"/>
<path d="M176.357 299.712C176.114 299.918 175.856 300.1 175.587 300.254L227.548 270.254C227.817 270.1 228.075 269.918 228.319 269.712L176.357 299.712Z" fill="#8BC5E4"/>
<path d="M175.588 300.254C174.325 300.978 172.797 301.094 171.193 300.17L223.154 270.17C224.758 271.094 226.286 270.978 227.549 270.254L175.588 300.254Z" fill="#8BC5E4"/>
<path d="M171.187 300.167C169.117 298.972 168.052 297.367 166.952 295.002L218.914 265.002C220.014 267.367 221.079 268.972 223.149 270.167L171.187 300.167Z" fill="#8BC5E4"/>
<path d="M166.952 295.002C166.216 293.427 165.558 291.567 164.831 289.607L216.792 259.607C217.52 261.567 218.178 263.427 218.914 265.002L166.952 295.002Z" fill="#8BC5E4"/>
<path d="M164.831 289.607C164.857 289.552 164.883 289.507 164.917 289.467L216.879 259.467C216.844 259.507 216.818 259.552 216.792 259.607L164.831 289.607Z" fill="#8BC5E4"/>
<path d="M164.917 289.467C166.147 287.557 167.021 285.692 167.939 284.842L219.901 254.842C218.983 255.692 218.108 257.557 216.878 259.467L164.917 289.467Z" fill="#8BC5E4"/>
<path d="M167.939 284.842C168.179 284.614 168.391 284.43 168.608 284.302L220.569 254.302C220.352 254.43 220.14 254.614 219.901 254.842L167.939 284.842Z" fill="#8BC5E4"/>
<path d="M168.608 284.303C169.207 283.951 169.843 284.031 171.182 284.804L223.143 254.804C221.804 254.031 221.168 253.951 220.569 254.303L168.608 284.303Z" fill="#8BC5E4"/>
<path d="M153.78 273.147C155.27 274.007 156.448 275.727 157.703 278.302L209.665 248.302C208.409 245.727 207.231 244.007 205.742 243.147L153.78 273.147Z" fill="#8BC5E4"/>
<path d="M157.703 278.302C158.474 279.917 159.219 281.777 159.972 283.672L211.934 253.672C211.18 251.777 210.435 249.917 209.665 248.302L157.703 278.302Z" fill="#8BC5E4"/>
<path d="M159.873 283.827C158.782 285.513 157.724 287.149 156.682 288.032L208.643 258.032C209.685 257.149 210.744 255.513 211.834 253.827L159.873 283.827Z" fill="#8BC5E4"/>
<path d="M156.681 288.032C156.434 288.241 156.204 288.409 155.984 288.538L207.945 258.538C208.165 258.409 208.395 258.241 208.643 258.032L156.681 288.032Z" fill="#8BC5E4"/>
<path d="M155.985 288.537C155.217 288.985 154.571 288.952 153.786 288.5L205.748 258.5C206.533 258.952 207.179 258.985 207.947 258.537L155.985 288.537Z" fill="#8BC5E4"/>
<path d="M153.78 288.497C152.775 287.917 152.082 286.987 150.991 284.747L202.953 254.747C204.044 256.987 204.737 257.917 205.741 258.497L153.78 288.497Z" fill="#8BC5E4"/>
<path d="M150.991 284.747C149.935 282.607 148.835 279.612 147.579 276.477L199.541 246.477C200.796 249.612 201.896 252.607 202.953 254.747L150.991 284.747Z" fill="#8BC5E4"/>
<path d="M147.579 276.477C148.359 275.367 149.112 274.332 149.9 273.647L201.862 243.647C201.074 244.332 200.32 245.367 199.541 246.477L147.579 276.477Z" fill="#8BC5E4"/>
<path d="M149.9 273.647C150.187 273.393 150.467 273.182 150.75 273.019L202.712 243.019C202.429 243.182 202.149 243.393 201.862 243.647L149.9 273.647Z" fill="#8BC5E4"/>
<path d="M150.749 273.019C151.67 272.487 152.604 272.469 153.776 273.144L205.738 243.144C204.566 242.469 203.632 242.487 202.711 243.019L150.749 273.019Z" fill="#8BC5E4"/>
<path d="M136.364 264.702C137.629 265.432 138.235 266.282 139.274 268.372L191.236 238.372C190.196 236.282 189.59 235.432 188.326 234.702L136.364 264.702Z" fill="#8BC5E4"/>
<path d="M139.274 268.372C140.305 270.467 141.379 273.487 142.721 276.782L194.683 246.782C193.34 243.487 192.267 240.467 191.236 238.372L139.274 268.372Z" fill="#8BC5E4"/>
<path d="M142.721 276.782C142.721 276.792 142.729 276.807 142.729 276.837L194.691 246.837C194.691 246.807 194.682 246.792 194.682 246.782L142.721 276.782Z" fill="#8BC5E4"/>
<path d="M142.711 276.863C141.904 278.003 141.147 279.072 140.348 279.762L192.31 249.762C193.109 249.072 193.866 248.003 194.673 246.863L142.711 276.863Z" fill="#8BC5E4"/>
<path d="M140.348 279.762C140.1 279.977 139.855 280.159 139.609 280.303L191.57 250.303C191.816 250.159 192.061 249.977 192.309 249.762L140.348 279.762Z" fill="#8BC5E4"/>
<path d="M139.609 280.303C138.686 280.841 137.727 280.847 136.369 280.065L188.331 250.065C189.689 250.847 190.648 250.841 191.571 250.303L139.609 280.303Z" fill="#8BC5E4"/>
<path d="M136.365 280.062C134.624 279.057 133.55 277.557 132.381 275.212L184.342 245.212C185.512 247.557 186.585 249.057 188.326 250.062L136.365 280.062Z" fill="#8BC5E4"/>
<path d="M132.38 275.212C131.584 273.602 130.813 271.627 129.99 269.502L181.952 239.502C182.775 241.627 183.545 243.602 184.342 245.212L132.38 275.212Z" fill="#8BC5E4"/>
<path d="M129.99 269.502C130.008 269.482 130.025 269.452 130.042 269.432L182.004 239.432C181.986 239.452 181.969 239.482 181.952 239.502L129.99 269.502Z" fill="#8BC5E4"/>
<path d="M130.042 269.432C131.367 267.627 132.433 265.852 133.455 264.972L185.416 234.972C184.394 235.852 183.329 237.627 182.004 239.432L130.042 269.432Z" fill="#8BC5E4"/>
<path d="M133.455 264.972C133.696 264.769 133.914 264.606 134.122 264.485L186.084 234.485C185.876 234.606 185.658 234.769 185.416 234.972L133.455 264.972Z" fill="#8BC5E4"/>
<path d="M134.131 264.479C134.806 264.089 135.384 264.138 136.357 264.698L188.318 234.698C187.345 234.138 186.767 234.089 186.092 234.479L134.131 264.479Z" fill="#8BC5E4"/>
<path d="M118.957 253.042C120.507 253.937 121.616 255.497 122.837 257.972L174.798 227.972C173.577 225.497 172.469 223.937 170.919 223.042L118.957 253.042Z" fill="#8BC5E4"/>
<path d="M122.837 257.972C123.634 259.572 124.387 261.487 125.175 263.522L177.137 233.522C176.349 231.487 175.595 229.572 174.799 227.972L122.837 257.972Z" fill="#8BC5E4"/>
<path d="M125.175 263.522C123.919 265.267 122.811 266.997 121.754 267.927L173.716 237.927C174.772 236.997 175.881 235.267 177.137 233.522L125.175 263.522Z" fill="#8BC5E4"/>
<path d="M121.754 267.927C121.484 268.163 121.238 268.348 121.006 268.482L172.967 238.482C173.199 238.348 173.445 238.163 173.716 237.927L121.754 267.927Z" fill="#8BC5E4"/>
<path d="M121.007 268.481C120.311 268.884 119.733 268.839 118.963 268.395L170.924 238.395C171.694 238.839 172.272 238.884 172.968 238.481L121.007 268.481Z" fill="#8BC5E4"/>
<path d="M118.957 268.392C118.031 267.857 117.242 266.802 116.117 264.482L168.078 234.482C169.204 236.802 169.992 237.857 170.919 238.392L118.957 268.392Z" fill="#8BC5E4"/>
<path d="M116.117 264.482C115.034 262.257 113.96 259.317 112.765 256.387L164.727 226.387C165.922 229.317 166.996 232.257 168.078 234.482L116.117 264.482Z" fill="#8BC5E4"/>
<path d="M112.765 256.387C113.51 255.357 114.237 254.357 115.025 253.652L166.987 223.652C166.199 224.357 165.471 225.357 164.727 226.387L112.765 256.387Z" fill="#8BC5E4"/>
<path d="M115.025 253.652C115.33 253.382 115.63 253.157 115.931 252.982L167.892 222.982C167.591 223.157 167.291 223.382 166.987 223.652L115.025 253.652Z" fill="#8BC5E4"/>
<path d="M115.93 252.983C116.872 252.437 117.825 252.39 118.953 253.039L170.914 223.039C169.786 222.39 168.833 222.437 167.891 222.983L115.93 252.983Z" fill="#8BC5E4"/>
<path d="M101.55 244.602C102.485 245.142 103.282 246.192 104.408 248.422L156.369 218.422C155.243 216.192 154.447 215.142 153.511 214.602L101.55 244.602Z" fill="#8BC5E4"/>
<path d="M104.408 248.422C105.525 250.657 106.66 253.672 107.89 256.672L159.851 226.672C158.621 223.672 157.487 220.657 156.37 218.422L104.408 248.422Z" fill="#8BC5E4"/>
<path d="M107.889 256.672C107.093 257.742 106.305 258.767 105.473 259.467L157.435 229.467C158.266 228.767 159.054 227.742 159.851 226.672L107.889 256.672Z" fill="#8BC5E4"/>
<path d="M105.473 259.467C105.205 259.693 104.94 259.884 104.673 260.036L156.634 230.036C156.901 229.884 157.166 229.693 157.435 229.467L105.473 259.467Z" fill="#8BC5E4"/>
<path d="M104.675 260.035C103.703 260.591 102.719 260.634 101.559 259.967L153.521 229.967C154.681 230.634 155.665 230.591 156.637 230.035L104.675 260.035Z" fill="#8BC5E4"/>
<path d="M101.55 259.962C99.948 259.037 98.8828 257.652 97.6963 255.387L149.658 225.387C150.844 227.652 151.909 229.037 153.512 229.962L101.55 259.962Z" fill="#8BC5E4"/>
<path d="M97.6965 255.387C96.8565 253.772 96.0251 251.732 95.1504 249.437L147.112 219.437C147.987 221.732 148.818 223.772 149.658 225.387L97.6965 255.387Z" fill="#8BC5E4"/>
<path d="M95.1504 249.437C95.1851 249.377 95.2197 249.307 95.2717 249.267L147.233 219.267C147.181 219.307 147.147 219.377 147.112 219.437L95.1504 249.437Z" fill="#8BC5E4"/>
<path d="M95.2715 249.267C96.5792 247.242 97.7136 245.557 98.7442 244.782L150.706 214.782C149.675 215.557 148.541 217.242 147.233 219.267L95.2715 249.267Z" fill="#8BC5E4"/>
<path d="M98.7441 244.782C98.9359 244.634 99.1129 244.511 99.2819 244.414L151.243 214.414C151.074 214.511 150.897 214.634 150.706 214.782L98.7441 244.782Z" fill="#8BC5E4"/>
<path d="M99.2812 244.415C100.014 243.995 100.597 244.053 101.543 244.598L153.505 214.598C152.559 214.053 151.976 213.995 151.243 214.415L99.2812 244.415Z" fill="#8BC5E4"/>
<path d="M84.1343 232.937C85.0869 233.487 86.308 235.002 87.6503 237.487L139.612 207.487C138.269 205.002 137.048 203.487 136.096 202.937L84.1343 232.937Z" fill="#8BC5E4"/>
<path d="M87.6504 237.487C88.5424 239.162 89.4604 241.202 90.3524 243.417L142.314 213.417C141.422 211.202 140.504 209.162 139.612 207.487L87.6504 237.487Z" fill="#8BC5E4"/>
<path d="M90.3523 243.417C89.2109 245.146 88.0099 246.636 86.8999 247.513L138.861 217.513C139.971 216.636 141.172 215.146 142.314 213.417L90.3523 243.417Z" fill="#8BC5E4"/>
<path d="M86.893 247.519C86.803 247.589 86.715 247.655 86.627 247.717L138.588 217.717C138.676 217.655 138.764 217.589 138.854 217.519L86.893 247.519Z" fill="#8BC5E4"/>
<path d="M86.6203 247.722C86.4884 247.816 86.3604 247.898 86.2354 247.97L138.197 217.97C138.322 217.898 138.45 217.816 138.582 217.722L86.6203 247.722Z" fill="#8BC5E4"/>
<path d="M86.2381 247.968C85.2301 248.552 84.4651 248.471 84.1431 248.292L136.105 218.292C136.427 218.471 137.192 218.552 138.2 217.968L86.2381 247.968Z" fill="#8BC5E4"/>
<path d="M84.1346 248.287C84.1519 248.297 82.8269 246.832 81.4932 244.282L133.455 214.282C134.788 216.832 136.113 218.297 136.096 218.287L84.1346 248.287Z" fill="#8BC5E4"/>
<path d="M81.493 244.282C80.2373 241.857 78.9555 238.827 77.9683 236.337L129.93 206.337C130.917 208.827 132.199 211.857 133.454 214.282L81.493 244.282Z" fill="#8BC5E4"/>
<path d="M77.9683 236.337C78.675 235.46 79.472 234.628 80.283 233.967L132.244 203.967C131.433 204.628 130.636 205.46 129.93 206.337L77.9683 236.337Z" fill="#8BC5E4"/>
<path d="M80.2783 233.971C80.3323 233.927 80.3863 233.883 80.4403 233.841L132.402 203.841C132.348 203.883 132.294 203.927 132.24 203.971L80.2783 233.971Z" fill="#8BC5E4"/>
<path d="M80.4453 233.837C80.6742 233.662 80.9052 233.508 81.1342 233.376L133.096 203.376C132.867 203.508 132.636 203.662 132.407 203.837L80.4453 233.837Z" fill="#8BC5E4"/>
<path d="M81.1318 233.376C82.3308 232.683 83.4878 232.568 84.1298 232.934L136.091 202.934C135.449 202.568 134.292 202.683 133.093 203.376L81.1318 233.376Z" fill="#8BC5E4"/>
<path d="M66.7275 224.497C67.6541 225.032 68.5461 226.197 69.7066 228.487L121.668 198.487C120.508 196.197 119.616 195.032 118.689 194.497L66.7275 224.497Z" fill="#8BC5E4"/>
<path d="M69.7061 228.487C70.8492 230.767 71.9491 233.752 73.0489 236.527L125.01 206.527C123.911 203.752 122.811 200.767 121.668 198.487L69.7061 228.487Z" fill="#8BC5E4"/>
<path d="M73.0493 236.527C73.058 236.552 73.0753 236.592 73.1013 236.647L125.063 206.647C125.037 206.592 125.02 206.552 125.011 206.527L73.0493 236.527Z" fill="#8BC5E4"/>
<path d="M73.101 236.647C72.3649 237.642 71.5941 238.637 70.7627 239.327L122.724 209.327C123.556 208.637 124.326 207.642 125.062 206.647L73.101 236.647Z" fill="#8BC5E4"/>
<path d="M70.763 239.327C70.5011 239.549 70.2391 239.738 69.9741 239.891L121.936 209.891C122.201 209.738 122.463 209.549 122.725 209.327L70.763 239.327Z" fill="#8BC5E4"/>
<path d="M69.9749 239.891C68.9609 240.478 67.9109 240.539 66.7319 239.86L118.693 209.86C119.872 210.539 120.922 210.478 121.936 209.891L69.9749 239.891Z" fill="#8BC5E4"/>
<path d="M66.7273 239.857C65.2031 238.977 63.8607 237.182 62.5703 234.697L114.532 204.697C115.822 207.182 117.165 208.977 118.689 209.857L66.7273 239.857Z" fill="#8BC5E4"/>
<path d="M62.5706 234.697C61.7306 233.082 60.9772 231.247 60.293 229.422L112.254 199.422C112.939 201.247 113.692 203.082 114.532 204.697L62.5706 234.697Z" fill="#8BC5E4"/>
<path d="M60.293 229.422C60.3709 229.307 60.4402 229.167 60.5095 229.047L112.471 199.047C112.402 199.167 112.332 199.307 112.254 199.422L60.293 229.422Z" fill="#8BC5E4"/>
<path d="M60.5093 229.047C61.4013 227.442 62.4752 225.782 63.6183 224.902L115.58 194.902C114.437 195.782 113.363 197.442 112.471 199.047L60.5093 229.047Z" fill="#8BC5E4"/>
<path d="M63.6182 224.902C63.806 224.756 63.989 224.631 64.168 224.528L116.129 194.528C115.95 194.631 115.767 194.756 115.58 194.902L63.6182 224.902Z" fill="#8BC5E4"/>
<path d="M64.167 224.529C65.078 224.002 65.891 224.016 66.721 224.494L118.682 194.494C117.852 194.016 117.039 194.002 116.128 194.529L64.167 224.529Z" fill="#8BC5E4"/>
<path d="M49.3203 212.837C50.9225 213.762 52.2475 215.587 53.5206 218.132L105.482 188.132C104.209 185.587 102.884 183.762 101.282 182.837L49.3203 212.837Z" fill="#8BC5E4"/>
<path d="M53.5205 218.132C54.2826 219.682 54.9841 221.427 55.6163 223.172L107.578 193.172C106.946 191.427 106.244 189.682 105.482 188.132L53.5205 218.132Z" fill="#8BC5E4"/>
<path d="M55.6159 223.172C55.5899 223.217 55.5639 223.272 55.5293 223.332L107.491 193.332C107.525 193.272 107.551 193.217 107.577 193.172L55.6159 223.172Z" fill="#8BC5E4"/>
<path d="M55.5293 223.332C54.6113 224.992 53.5634 226.747 52.4375 227.707L104.399 197.707C105.525 196.747 106.573 194.992 107.491 193.332L55.5293 223.332Z" fill="#8BC5E4"/>
<path d="M52.4378 227.707C52.2 227.907 51.972 228.072 51.75 228.202L103.711 198.202C103.933 198.072 104.161 197.907 104.399 197.707L52.4378 227.707Z" fill="#8BC5E4"/>
<path d="M51.7512 228.201C50.9212 228.685 50.1722 228.676 49.3262 228.191L101.288 198.191C102.134 198.676 102.883 198.685 103.713 198.201L51.7512 228.201Z" fill="#8BC5E4"/>
<path d="M49.3205 228.187C48.3593 227.632 46.6878 225.657 45.3975 223.252L97.359 193.252C98.6494 195.657 100.321 197.632 101.282 198.187L49.3205 228.187Z" fill="#8BC5E4"/>
<path d="M45.3968 223.252C44.0977 220.842 43.3789 218.127 43.3789 217.737L95.3404 187.737C95.3404 188.127 96.0592 190.842 97.3583 193.252L45.3968 223.252Z" fill="#8BC5E4"/>
<path d="M42.0107 216.947C42.1418 215.869 42.9308 214.305 44.1498 213.33L96.1113 183.33C94.8923 184.305 94.1033 185.869 93.9722 186.947L42.0107 216.947Z" fill="#8BC5E4"/>
<path d="M44.144 213.336C44.214 213.28 44.286 213.225 44.359 213.173L96.3205 183.173C96.2475 183.225 96.1755 183.28 96.1055 183.336L44.144 213.336Z" fill="#8BC5E4"/>
<path d="M44.3662 213.167C44.4957 213.076 44.6287 212.992 44.7647 212.915L96.7262 182.915C96.5902 182.992 96.4572 183.076 96.3277 183.167L44.3662 213.167Z" fill="#8BC5E4"/>
<path d="M44.7729 212.91C46.1789 212.111 47.8979 212.018 49.3159 212.834L101.277 182.834C99.8595 182.018 98.1404 182.111 96.7344 182.91L44.7729 212.91Z" fill="#8BC5E4"/>
<path d="M127.695 190.647L153.286 198.942L149.511 208.022L172.036 231.297L169.031 238.542L146.506 215.267L142.738 224.352L127.695 190.647ZM92.1364 170.117L66.5367 148.857L70.3213 162.302L47.7873 159.562L50.7924 170.277L73.3177 173.012L77.0936 186.452L92.1364 170.117ZM110.34 180.557L95.8517 197.632L106.209 203.612V231.832L114.471 236.602V208.382L124.838 214.367L110.34 180.557ZM110.34 110.037L91.6515 122.077L99.8008 126.782V166.162L120.888 178.337V138.957L129.038 143.662L110.34 110.037ZM171.187 284.807C174.902 286.952 177.12 291.702 177.12 294.952L178.514 295.757C178.514 296.427 177.743 298.552 176.357 299.712C174.972 300.882 173.136 301.292 171.187 300.167C169.117 298.972 168.052 297.367 166.952 295.002C166.216 293.427 165.558 291.567 164.831 289.607C164.857 289.552 164.883 289.507 164.917 289.467C166.147 287.557 167.022 285.692 167.94 284.842C168.84 283.982 169.36 283.752 171.187 284.807ZM136.364 264.702C137.629 265.432 138.235 266.282 139.274 268.372C140.305 270.467 141.379 273.487 142.721 276.782C142.721 276.792 142.73 276.807 142.73 276.837C142.723 276.846 142.717 276.855 142.711 276.863C141.904 278.003 141.147 279.072 140.348 279.762C139.17 280.782 138.088 281.057 136.364 280.062C134.624 279.057 133.55 277.557 132.381 275.212C131.584 273.602 130.813 271.627 129.99 269.502C130.008 269.482 130.025 269.452 130.042 269.432C131.367 267.627 132.433 265.852 133.455 264.972C134.485 264.107 135.083 263.962 136.364 264.702ZM101.55 244.602C102.485 245.142 103.282 246.192 104.408 248.422C105.525 250.657 106.66 253.672 107.889 256.672C107.093 257.742 106.305 258.767 105.473 259.467C104.226 260.517 103.031 260.817 101.55 259.962C99.948 259.037 98.8828 257.652 97.6963 255.387C96.8563 253.772 96.0249 251.732 95.1502 249.437C95.1849 249.377 95.2195 249.307 95.2715 249.267C96.5792 247.242 97.7136 245.557 98.7442 244.782C99.7661 243.992 100.381 243.927 101.55 244.602ZM66.7273 224.497C67.6539 225.032 68.5459 226.197 69.7064 228.487C70.8495 230.767 71.9494 233.752 73.0492 236.527C73.0579 236.552 73.0752 236.592 73.1012 236.647C72.3651 237.642 71.5943 238.637 70.7629 239.327C69.4985 240.397 68.2168 240.717 66.7273 239.857C65.2031 238.977 63.8607 237.182 62.5703 234.697C61.7303 233.082 60.9769 231.247 60.2927 229.422C60.3706 229.307 60.4399 229.167 60.5092 229.047C61.4012 227.442 62.4751 225.782 63.6182 224.902C64.7614 224.012 65.7313 223.922 66.7273 224.497ZM153.78 273.147C155.27 274.007 156.447 275.727 157.703 278.302C158.474 279.917 159.219 281.777 159.972 283.672C159.939 283.724 159.906 283.775 159.872 283.827C158.782 285.513 157.723 287.149 156.681 288.032C155.573 288.972 154.793 289.082 153.78 288.497C152.776 287.917 152.083 286.987 150.992 284.747C149.935 282.607 148.835 279.612 147.579 276.477C148.359 275.367 149.112 274.332 149.9 273.647C151.121 272.562 152.247 272.262 153.78 273.147ZM118.957 253.042C120.507 253.937 121.616 255.497 122.837 257.972C123.634 259.572 124.387 261.487 125.175 263.522C123.92 265.267 122.811 266.997 121.755 267.927C120.672 268.872 119.988 268.987 118.957 268.392C118.031 267.857 117.243 266.802 116.117 264.482C115.034 262.257 113.96 259.317 112.765 256.387C113.51 255.357 114.237 254.357 115.025 253.652C116.281 252.537 117.468 252.182 118.957 253.042ZM84.1344 232.937C85.087 233.487 86.3081 235.002 87.6504 237.487C88.5424 239.162 89.4604 241.202 90.3524 243.417C89.114 245.292 87.8063 246.887 86.6199 247.722C85.4161 248.577 84.4894 248.492 84.1344 248.287C84.1517 248.297 82.8267 246.832 81.493 244.282C80.2373 241.857 78.9555 238.827 77.9683 236.337C78.7217 235.402 79.5791 234.517 80.4451 233.837C81.874 232.742 83.3723 232.497 84.1344 232.937ZM49.3201 212.837C50.9223 213.762 52.2473 215.587 53.5204 218.132C54.2825 219.682 54.984 221.427 55.6162 223.172C55.5902 223.217 55.5642 223.272 55.5296 223.332C54.6116 224.992 53.5637 226.747 52.4378 227.707C51.312 228.657 50.394 228.807 49.3201 228.187C48.3589 227.632 46.6874 225.657 45.397 223.252C44.098 220.842 43.3792 218.127 43.3792 217.737L42.0109 216.947C42.1495 215.807 43.0241 214.122 44.3665 213.167C45.8387 212.137 47.7613 211.937 49.3201 212.837ZM66.7273 218.027C63.6009 216.222 61.1414 216.922 59.418 218.247C58.5433 218.932 57.8072 219.787 57.1577 220.682C56.7073 219.562 56.2137 218.427 55.6594 217.327C54.1179 214.217 52.0048 211.147 49.3201 209.597C46.5662 208.007 44.1327 208.532 42.3227 209.807C40.582 211.032 39.3349 212.882 39.2309 215.342L37.8366 214.537C37.8366 217.887 39.3262 221.577 41.2921 225.242C43.2753 228.917 45.9686 232.722 49.3201 234.657C52.5418 236.517 55.0446 235.712 56.7333 234.267C57.5301 233.607 58.1969 232.782 58.7858 231.932C59.2881 233.162 59.851 234.387 60.4746 235.597C62.0507 238.647 64.1378 241.602 66.7273 243.097C69.3427 244.607 71.3778 243.902 72.9107 242.627C73.5862 242.047 74.1924 241.367 74.7466 240.647C75.5087 242.417 76.3661 244.292 77.3014 246.092C79.0335 249.422 81.008 252.952 84.1344 254.757C86.897 256.352 89.0101 255.652 90.7248 254.452C91.7294 253.722 92.6561 252.767 93.5221 251.687C94.1803 253.317 94.8558 254.867 95.6092 256.312C97.1074 259.177 99.082 261.777 101.55 263.202C104.122 264.687 106.114 264.017 107.612 262.762C108.305 262.182 108.92 261.467 109.5 260.742C110.167 262.417 110.903 264.202 111.761 265.977C113.363 269.282 115.762 273.017 118.957 274.862C122.049 276.647 124.457 275.867 126.076 274.472C126.951 273.707 127.695 272.757 128.388 271.797C128.951 273.232 129.549 274.657 130.242 276.027C131.696 278.947 133.714 281.772 136.364 283.302C139.032 284.842 141.05 284.297 142.504 283.037C143.18 282.447 143.786 281.727 144.34 280.937C145.033 282.697 145.778 284.487 146.653 286.282C148.255 289.547 150.662 293.167 153.78 294.967C156.889 296.762 159.323 296.007 160.968 294.607C161.834 293.877 162.57 292.982 163.228 292.032C163.679 293.222 164.164 294.442 164.727 295.647C166.121 298.632 168.225 301.697 171.187 303.407C174.288 305.197 176.79 304.442 178.505 303.002C180.22 301.552 181.285 299.607 181.285 297.357L182.662 298.152C182.662 291.392 177.916 282.222 171.187 278.337C167.801 276.382 165.108 276.867 163.532 278.357C162.674 279.162 162.033 280.152 161.462 281.142C160.968 279.957 160.449 278.747 159.877 277.567C158.396 274.502 156.413 271.427 153.78 269.907C151.191 268.412 149.216 269.072 147.735 270.377C147.094 270.937 146.523 271.637 145.969 272.357C145.267 270.552 144.514 268.677 143.578 266.797C141.985 263.587 139.499 260.042 136.364 258.232C133.255 256.437 130.77 257.042 129.168 258.407C128.232 259.197 127.47 260.197 126.769 261.212C126.223 259.847 125.643 258.492 124.993 257.177C123.513 254.192 121.529 251.287 118.957 249.802C116.325 248.282 114.341 249.047 112.852 250.387C112.22 250.952 111.657 251.617 111.128 252.312C110.418 250.542 109.621 248.652 108.686 246.772C107.049 243.537 104.676 239.937 101.55 238.132C98.6576 236.462 96.2154 236.852 94.5613 238.107C93.5481 238.902 92.6994 239.942 91.894 241.097C91.1925 239.472 90.465 237.922 89.6942 236.487C88.1008 233.537 86.2908 230.942 84.1344 229.697C81.7961 228.347 79.9861 229.272 78.358 230.512C77.6652 231.052 77.007 231.682 76.4008 232.342C75.7166 230.607 74.9199 228.717 73.9759 226.842C72.3218 223.537 69.9142 219.867 66.7273 218.027ZM10.4702 31.4072C4.71118 28.0822 0 30.8522 0 37.5822V213.142C0 219.872 4.71118 228.082 10.4702 231.407L211.232 347.317C216.983 350.637 221.702 347.872 221.702 341.142V165.582C221.702 158.852 216.983 150.637 211.232 147.317L10.4702 31.4072ZM10.4702 36.9172L211.232 152.827C214.445 154.682 216.965 159.077 216.965 162.847V338.407C216.965 342.177 214.445 343.662 211.232 341.807L10.4702 225.897C7.24863 224.037 4.7285 219.642 4.7285 215.872V40.3122C4.7285 36.5422 7.24863 35.0572 10.4702 36.9172Z" fill="#8BC5E4"/>
<path fill-rule="evenodd" clip-rule="evenodd" d="M10.4702 36.9172L211.232 152.827C214.445 154.682 216.965 159.077 216.965 162.847V338.407C216.965 342.177 214.445 343.662 211.232 341.807L10.4702 225.897C7.24863 224.037 4.7285 219.642 4.7285 215.872V40.3122C4.7285 36.5422 7.24863 35.0572 10.4702 36.9172ZM153.286 198.942L127.695 190.647L142.738 224.352L146.506 215.267L169.031 238.542L172.036 231.297L149.511 208.022L153.286 198.942ZM66.5367 148.857L92.1364 170.117L77.0936 186.452L73.3177 173.012L50.7924 170.277L47.7873 159.562L70.3213 162.302L66.5367 148.857ZM95.8517 197.632L110.34 180.557L124.838 214.367L114.471 208.382V236.602L106.209 231.832V203.612L95.8517 197.632ZM91.6515 122.077L110.34 110.037L129.038 143.662L120.888 138.957V178.337L99.8008 166.162V126.782L91.6515 122.077ZM59.418 218.247C61.1414 216.922 63.6009 216.222 66.7273 218.027C69.9142 219.867 72.3218 223.537 73.9759 226.842C74.9199 228.717 75.7166 230.607 76.4008 232.342C77.007 231.682 77.6652 231.052 78.358 230.512C79.9861 229.272 81.7961 228.347 84.1344 229.697C86.2908 230.942 88.1008 233.537 89.6942 236.487C90.465 237.922 91.1925 239.472 91.894 241.097C92.6994 239.942 93.5481 238.902 94.5613 238.107C96.2154 236.852 98.6576 236.462 101.55 238.132C104.676 239.937 107.049 243.537 108.686 246.772C109.621 248.652 110.418 250.542 111.128 252.312C111.657 251.617 112.22 250.952 112.852 250.387C114.341 249.047 116.325 248.282 118.957 249.802C121.529 251.287 123.513 254.192 124.993 257.177C125.643 258.492 126.223 259.847 126.769 261.212C127.47 260.197 128.232 259.197 129.168 258.407C130.77 257.042 133.255 256.437 136.364 258.232C139.499 260.042 141.985 263.587 143.578 266.797C144.514 268.677 145.267 270.552 145.969 272.357C146.523 271.637 147.094 270.937 147.735 270.377C149.216 269.072 151.191 268.412 153.78 269.907C156.413 271.427 158.396 274.502 159.877 277.567C160.449 278.747 160.968 279.957 161.462 281.142C162.033 280.152 162.674 279.162 163.532 278.357C165.108 276.867 167.801 276.382 171.187 278.337C177.916 282.222 182.662 291.392 182.662 298.152L181.285 297.357C181.285 299.607 180.22 301.552 178.505 303.002C176.79 304.442 174.288 305.197 171.187 303.407C168.225 301.697 166.121 298.632 164.727 295.647C164.164 294.442 163.679 293.222 163.228 292.032C162.57 292.982 161.834 293.877 160.968 294.607C159.323 296.007 156.889 296.762 153.78 294.967C150.662 293.167 148.255 289.547 146.653 286.282C145.778 284.487 145.033 282.697 144.34 280.937C143.786 281.727 143.18 282.447 142.504 283.037C141.05 284.297 139.032 284.842 136.364 283.302C133.714 281.772 131.696 278.947 130.242 276.027C129.549 274.657 128.951 273.232 128.388 271.797C127.695 272.757 126.951 273.707 126.076 274.472C124.457 275.867 122.049 276.647 118.957 274.862C115.762 273.017 113.363 269.282 111.761 265.977C110.903 264.202 110.167 262.417 109.5 260.742C108.92 261.467 108.305 262.182 107.612 262.762C106.114 264.017 104.122 264.687 101.55 263.202C99.082 261.777 97.1074 259.177 95.6092 256.312C94.8558 254.867 94.1803 253.317 93.5221 251.687C92.6561 252.767 91.7294 253.722 90.7248 254.452C89.0101 255.652 86.897 256.352 84.1344 254.757C81.008 252.952 79.0335 249.422 77.3014 246.092C76.3661 244.292 75.5087 242.417 74.7466 240.647C74.1924 241.367 73.5862 242.047 72.9107 242.627C71.3778 243.902 69.3427 244.607 66.7273 243.097C64.1378 241.602 62.0507 238.647 60.4746 235.597C59.851 234.387 59.2881 233.162 58.7858 231.932C58.1969 232.782 57.5301 233.607 56.7333 234.267C55.0446 235.712 52.5418 236.517 49.3201 234.657C45.9686 232.722 43.2753 228.917 41.2921 225.242C39.3262 221.577 37.8366 217.887 37.8366 214.537L39.2309 215.342C39.3349 212.882 40.582 211.032 42.3227 209.807C44.1327 208.532 46.5662 208.007 49.3201 209.597C52.0048 211.147 54.1179 214.217 55.6594 217.327C56.2137 218.427 56.7073 219.562 57.1577 220.682C57.8072 219.787 58.5433 218.932 59.418 218.247Z" fill="white"/>
<path d="M171.187 284.807C174.902 286.952 177.12 291.702 177.12 294.952L178.514 295.757C178.514 296.427 177.743 298.552 176.357 299.712C174.972 300.882 173.136 301.292 171.187 300.167C169.117 298.972 168.052 297.367 166.952 295.002C166.216 293.427 165.558 291.567 164.831 289.607C164.857 289.552 164.883 289.507 164.917 289.467C166.147 287.557 167.022 285.692 167.94 284.842C168.84 283.982 169.36 283.752 171.187 284.807Z" fill="white"/>
<path d="M153.78 273.147C155.27 274.007 156.447 275.727 157.703 278.302C158.474 279.917 159.219 281.777 159.972 283.672L159.872 283.827C158.782 285.513 157.723 287.149 156.681 288.032C155.573 288.972 154.793 289.082 153.78 288.497C152.776 287.917 152.083 286.987 150.992 284.747C149.935 282.607 148.835 279.612 147.579 276.477C148.359 275.367 149.112 274.332 149.9 273.647C151.121 272.562 152.247 272.262 153.78 273.147Z" fill="white"/>
<path d="M136.364 264.702C137.629 265.432 138.235 266.282 139.274 268.372C140.305 270.467 141.379 273.487 142.721 276.782C142.721 276.792 142.73 276.807 142.73 276.837L142.711 276.863C141.904 278.003 141.147 279.072 140.348 279.762C139.17 280.782 138.088 281.057 136.364 280.062C134.624 279.057 133.55 277.557 132.381 275.212C131.584 273.602 130.813 271.627 129.99 269.502C130.008 269.482 130.025 269.452 130.042 269.432C131.367 267.627 132.433 265.852 133.455 264.972C134.485 264.107 135.083 263.962 136.364 264.702Z" fill="white"/>
<path d="M118.957 253.042C120.507 253.937 121.616 255.497 122.837 257.972C123.634 259.572 124.387 261.487 125.175 263.522C123.92 265.267 122.811 266.997 121.755 267.927C120.672 268.872 119.988 268.987 118.957 268.392C118.031 267.857 117.243 266.802 116.117 264.482C115.034 262.257 113.96 259.317 112.765 256.387C113.51 255.357 114.237 254.357 115.025 253.652C116.281 252.537 117.468 252.182 118.957 253.042Z" fill="white"/>
<path d="M101.55 244.602C102.485 245.142 103.282 246.192 104.408 248.422C105.525 250.657 106.66 253.672 107.889 256.672C107.093 257.742 106.305 258.767 105.473 259.467C104.226 260.517 103.031 260.817 101.55 259.962C99.948 259.037 98.8828 257.652 97.6963 255.387C96.8563 253.772 96.0249 251.732 95.1502 249.437C95.1849 249.377 95.2195 249.307 95.2715 249.267C96.5792 247.242 97.7136 245.557 98.7442 244.782C99.7661 243.992 100.381 243.927 101.55 244.602Z" fill="white"/>
<path d="M84.1344 232.937C85.087 233.487 86.3081 235.002 87.6504 237.487C88.5424 239.162 89.4604 241.202 90.3524 243.417C89.114 245.292 87.8063 246.887 86.6199 247.722C85.4161 248.577 84.4894 248.492 84.1344 248.287C84.1517 248.297 82.8267 246.832 81.493 244.282C80.2373 241.857 78.9555 238.827 77.9683 236.337C78.7217 235.402 79.5791 234.517 80.4451 233.837C81.874 232.742 83.3723 232.497 84.1344 232.937Z" fill="white"/>
<path d="M66.7273 224.497C67.6539 225.032 68.5459 226.197 69.7064 228.487C70.8495 230.767 71.9494 233.752 73.0492 236.527C73.0579 236.552 73.0752 236.592 73.1012 236.647C72.3651 237.642 71.5943 238.637 70.7629 239.327C69.4985 240.397 68.2168 240.717 66.7273 239.857C65.2031 238.977 63.8607 237.182 62.5703 234.697C61.7303 233.082 60.9769 231.247 60.2927 229.422C60.3706 229.307 60.4399 229.167 60.5092 229.047C61.4012 227.442 62.4751 225.782 63.6182 224.902C64.7614 224.012 65.7313 223.922 66.7273 224.497Z" fill="white"/>
<path d="M49.3201 212.837C50.9223 213.762 52.2473 215.587 53.5204 218.132C54.2825 219.682 54.984 221.427 55.6162 223.172C55.5902 223.217 55.5642 223.272 55.5296 223.332C54.6116 224.992 53.5637 226.747 52.4378 227.707C51.312 228.657 50.394 228.807 49.3201 228.187C48.3589 227.632 46.6874 225.657 45.397 223.252C44.098 220.842 43.3792 218.127 43.3792 217.737L42.0109 216.947C42.1495 215.807 43.0241 214.122 44.3665 213.167C45.8387 212.137 47.7613 211.937 49.3201 212.837Z" fill="white"/>
</svg>
