<svg width="274" height="354" viewBox="0 0 274 354" fill="none" xmlns="http://www.w3.org/2000/svg">
<path d="M179.657 171.195L205.248 149.94L153.286 119.94L127.695 141.195L179.657 171.195Z" fill="#8BC5E4"/>
<path d="M205.248 149.94L201.472 163.38L149.51 133.38L153.286 119.94L205.248 149.94Z" fill="#8BC5E4"/>
<path d="M201.472 163.38L223.997 160.645L172.036 130.645L149.51 133.38L201.472 163.38Z" fill="#8BC5E4"/>
<path d="M223.997 160.645L220.992 171.36L169.031 141.36L172.036 130.645L223.997 160.645Z" fill="#8BC5E4"/>
<path d="M220.992 171.36L198.467 174.095L146.505 144.095L169.031 141.36L220.992 171.36Z" fill="#8BC5E4"/>
<path d="M198.467 174.095L194.7 187.53L142.738 157.53L146.505 144.095L198.467 174.095Z" fill="#8BC5E4"/>
<path d="M194.7 187.53L179.657 171.195L127.695 141.195L142.738 157.53L194.7 187.53Z" fill="#8BC5E4"/>
<path d="M179.657 171.195L127.695 141.195L179.657 171.195Z" fill="#8BC5E4"/>
<path d="M144.098 191.725L118.498 200.025L66.5366 170.025L92.1363 161.725L144.098 191.725Z" fill="#8BC5E4"/>
<path d="M118.498 200.025L122.283 209.1L70.3211 179.1L66.5366 170.025L118.498 200.025Z" fill="#8BC5E4"/>
<path d="M122.283 209.1L99.7486 232.38L47.7871 202.38L70.321 179.1L122.283 209.1Z" fill="#8BC5E4"/>
<path d="M99.7486 232.38L102.754 239.625L50.7922 209.625L47.7871 202.38L99.7486 232.38Z" fill="#8BC5E4"/>
<path d="M102.754 239.625L125.279 216.35L73.3175 186.35L50.7922 209.625L102.754 239.625Z" fill="#8BC5E4"/>
<path d="M125.279 216.35L129.055 225.43L77.0935 195.43L73.3176 186.35L125.279 216.35Z" fill="#8BC5E4"/>
<path d="M129.055 225.43L144.098 191.725L92.1363 161.725L77.0935 195.43L129.055 225.43Z" fill="#8BC5E4"/>
<path d="M144.098 191.725L92.1362 161.725L144.098 191.725Z" fill="#8BC5E4"/>
<path d="M162.302 181.145L147.813 214.95L95.8516 184.95L110.34 151.145L162.302 181.145Z" fill="#8BC5E4"/>
<path d="M147.813 214.95L158.171 208.97L106.209 178.97L95.8516 184.95L147.813 214.95Z" fill="#8BC5E4"/>
<path d="M158.171 208.97V237.19L106.209 207.19V178.97L158.171 208.97Z" fill="#8BC5E4"/>
<path d="M158.171 237.19L166.433 232.42L114.471 202.42L106.209 207.19L158.171 237.19Z" fill="#8BC5E4"/>
<path d="M166.433 232.42V204.2L114.471 174.2V202.42L166.433 232.42Z" fill="#8BC5E4"/>
<path d="M166.433 204.2L176.799 198.215L124.837 168.215L114.471 174.2L166.433 204.2Z" fill="#8BC5E4"/>
<path d="M176.799 198.215L162.302 181.145L110.34 151.145L124.838 168.215L176.799 198.215Z" fill="#8BC5E4"/>
<path d="M162.302 181.145L110.34 151.145L162.302 181.145Z" fill="#8BC5E4"/>
<path d="M162.302 110.625L143.613 144.245L91.6514 114.245L110.34 80.6248L162.302 110.625Z" fill="#8BC5E4"/>
<path d="M143.613 144.245L151.762 139.54L99.8007 109.54L91.6514 114.245L143.613 144.245Z" fill="#8BC5E4"/>
<path d="M151.762 139.54V178.92L99.8005 148.92V109.54L151.762 139.54Z" fill="#8BC5E4"/>
<path d="M151.762 178.92L172.85 166.745L120.888 136.745L99.8005 148.92L151.762 178.92Z" fill="#8BC5E4"/>
<path d="M172.85 166.745V127.365L120.888 97.3647V136.745L172.85 166.745Z" fill="#8BC5E4"/>
<path d="M172.85 127.365L180.999 122.66L129.038 92.6597L120.888 97.3647L172.85 127.365Z" fill="#8BC5E4"/>
<path d="M180.999 122.66L162.302 110.625L110.34 80.6248L129.038 92.6598L180.999 122.66Z" fill="#8BC5E4"/>
<path d="M162.302 110.625L110.34 80.6248L162.302 110.625Z" fill="#8BC5E4"/>
<path d="M229.081 218.43L230.475 217.625L178.514 187.625L177.119 188.43L229.081 218.43Z" fill="#8BC5E4"/>
<path d="M223.149 215.135L171.187 185.135L223.149 215.135Z" fill="#8BC5E4"/>
<path d="M188.326 235.24L136.364 205.24L188.326 235.24Z" fill="#8BC5E4"/>
<path d="M153.512 255.34L101.55 225.34L153.512 255.34Z" fill="#8BC5E4"/>
<path d="M118.689 275.445L66.7271 245.445L118.689 275.445Z" fill="#8BC5E4"/>
<path d="M205.742 223.575L153.78 193.575L205.742 223.575Z" fill="#8BC5E4"/>
<path d="M170.919 243.68L118.957 213.68L170.919 243.68Z" fill="#8BC5E4"/>
<path d="M136.096 263.785L84.1343 233.785L136.096 263.785Z" fill="#8BC5E4"/>
<path d="M95.3405 295.645L93.9722 296.435L42.0107 266.435L43.379 265.645L95.3405 295.645Z" fill="#8BC5E4"/>
<path d="M101.282 283.885L49.3201 253.885L101.282 283.885Z" fill="#8BC5E4"/>
<path d="M91.1923 298.04L89.7979 298.845L37.8364 268.845L39.2307 268.04L91.1923 298.04Z" fill="#8BC5E4"/>
<path d="M233.246 216.025L234.623 215.23L182.662 185.23L181.285 186.025L233.246 216.025Z" fill="#8BC5E4"/>
<path d="M118.689 268.975L66.7271 238.975L118.689 268.975Z" fill="#8BC5E4"/>
<path d="M51.9615 165.58V341.14L0 311.14V135.58L51.9615 165.58Z" fill="#8BC5E4"/>
<path d="M62.4317 347.315L263.194 231.405L211.232 201.405L10.4702 317.315L62.4317 347.315Z" fill="#8BC5E4"/>
<path d="M273.664 213.14V37.5797L221.702 7.57971V183.14L273.664 213.14Z" fill="#8BC5E4"/>
<path d="M263.194 31.4047L62.4317 147.315L10.4702 117.315L211.232 1.40466L263.194 31.4047Z" fill="#8BC5E4"/>
<path d="M62.4317 147.315L10.4702 117.315L62.4317 147.315Z" fill="#8BC5E4"/>
<path d="M62.4317 152.825L263.194 36.9147L211.232 6.91467L10.4702 122.825L62.4317 152.825Z" fill="#8BC5E4"/>
<path d="M268.927 40.3147V215.875L216.965 185.875V10.3147L268.927 40.3147Z" fill="#8BC5E4"/>
<path d="M263.194 225.895L62.4317 341.805L10.4702 311.805L211.232 195.895L263.194 225.895Z" fill="#8BC5E4"/>
<path d="M56.69 338.41V162.85L4.72852 132.85V308.41L56.69 338.41Z" fill="#8BC5E4"/>
<path d="M62.4317 152.825L10.4702 122.825L62.4317 152.825Z" fill="#8BC5E4"/>
<path d="M62.4317 152.825L263.194 36.9147L211.232 6.91467L10.4702 122.825L62.4317 152.825Z" fill="#8BC5E4"/>
<path d="M268.927 40.3147V215.875L216.965 185.875V10.3147L268.927 40.3147Z" fill="#8BC5E4"/>
<path d="M263.194 225.895L62.4317 341.805L10.4702 311.805L211.232 195.895L263.194 225.895Z" fill="#8BC5E4"/>
<path d="M56.69 338.41V162.85L4.72852 132.85V308.41L56.69 338.41Z" fill="#8BC5E4"/>
<path d="M62.4317 152.825L10.4702 122.825L62.4317 152.825Z" fill="#8BC5E4"/>
<path d="M205.248 149.94L179.657 171.195L127.695 141.195L153.286 119.94L205.248 149.94Z" fill="#8BC5E4"/>
<path d="M179.657 171.195L194.7 187.53L142.738 157.53L127.695 141.195L179.657 171.195Z" fill="#8BC5E4"/>
<path d="M194.7 187.53L198.467 174.095L146.505 144.095L142.738 157.53L194.7 187.53Z" fill="#8BC5E4"/>
<path d="M198.467 174.095L220.992 171.36L169.031 141.36L146.505 144.095L198.467 174.095Z" fill="#8BC5E4"/>
<path d="M220.992 171.36L223.997 160.645L172.036 130.645L169.031 141.36L220.992 171.36Z" fill="#8BC5E4"/>
<path d="M223.997 160.645L201.472 163.38L149.51 133.38L172.036 130.645L223.997 160.645Z" fill="#8BC5E4"/>
<path d="M201.472 163.38L205.248 149.94L153.286 119.94L149.51 133.38L201.472 163.38Z" fill="#8BC5E4"/>
<path d="M205.248 149.94L153.286 119.94L205.248 149.94Z" fill="#8BC5E4"/>
<path d="M118.498 200.025L144.098 191.725L92.1363 161.725L66.5366 170.025L118.498 200.025Z" fill="#8BC5E4"/>
<path d="M144.098 191.725L129.055 225.43L77.0935 195.43L92.1363 161.725L144.098 191.725Z" fill="#8BC5E4"/>
<path d="M129.055 225.43L125.279 216.35L73.3176 186.35L77.0935 195.43L129.055 225.43Z" fill="#8BC5E4"/>
<path d="M125.279 216.35L102.754 239.625L50.7922 209.625L73.3175 186.35L125.279 216.35Z" fill="#8BC5E4"/>
<path d="M102.754 239.625L99.7486 232.38L47.7871 202.38L50.7922 209.625L102.754 239.625Z" fill="#8BC5E4"/>
<path d="M99.7486 232.38L122.283 209.1L70.321 179.1L47.7871 202.38L99.7486 232.38Z" fill="#8BC5E4"/>
<path d="M122.283 209.1L118.498 200.025L66.5366 170.025L70.3211 179.1L122.283 209.1Z" fill="#8BC5E4"/>
<path d="M118.498 200.025L66.5366 170.025L118.498 200.025Z" fill="#8BC5E4"/>
<path d="M147.813 214.95L162.302 181.145L110.34 151.145L95.8516 184.95L147.813 214.95Z" fill="#8BC5E4"/>
<path d="M162.302 181.145L176.799 198.215L124.838 168.215L110.34 151.145L162.302 181.145Z" fill="#8BC5E4"/>
<path d="M176.799 198.215L166.433 204.2L114.471 174.2L124.837 168.215L176.799 198.215Z" fill="#8BC5E4"/>
<path d="M166.433 204.2V232.42L114.471 202.42V174.2L166.433 204.2Z" fill="#8BC5E4"/>
<path d="M166.433 232.42L158.171 237.19L106.209 207.19L114.471 202.42L166.433 232.42Z" fill="#8BC5E4"/>
<path d="M158.171 237.19V208.97L106.209 178.97V207.19L158.171 237.19Z" fill="#8BC5E4"/>
<path d="M158.171 208.97L147.813 214.95L95.8516 184.95L106.209 178.97L158.171 208.97Z" fill="#8BC5E4"/>
<path d="M147.813 214.95L95.8516 184.95L147.813 214.95Z" fill="#8BC5E4"/>
<path d="M143.613 144.245L162.302 110.625L110.34 80.6248L91.6514 114.245L143.613 144.245Z" fill="#8BC5E4"/>
<path d="M162.302 110.625L180.999 122.66L129.038 92.6598L110.34 80.6248L162.302 110.625Z" fill="#8BC5E4"/>
<path d="M180.999 122.66L172.85 127.365L120.888 97.3647L129.038 92.6597L180.999 122.66Z" fill="#8BC5E4"/>
<path d="M172.85 127.365V166.745L120.888 136.745V97.3647L172.85 127.365Z" fill="#8BC5E4"/>
<path d="M172.85 166.745L151.762 178.92L99.8005 148.92L120.888 136.745L172.85 166.745Z" fill="#8BC5E4"/>
<path d="M151.762 178.92V139.54L99.8005 109.54V148.92L151.762 178.92Z" fill="#8BC5E4"/>
<path d="M151.762 139.54L143.613 144.245L91.6514 114.245L99.8007 109.54L151.762 139.54Z" fill="#8BC5E4"/>
<path d="M143.613 144.245L91.6514 114.245L143.613 144.245Z" fill="#8BC5E4"/>
<path d="M234.623 215.23L233.246 216.025L181.285 186.025L182.662 185.23L234.623 215.23Z" fill="#8BC5E4"/>
<path d="M89.7979 298.845L91.1923 298.04L39.2307 268.04L37.8364 268.845L89.7979 298.845Z" fill="#8BC5E4"/>
<path d="M111.379 277.635L59.418 247.635L111.379 277.635Z" fill="#8BC5E4"/>
<path d="M229.081 218.43L230.475 217.625L178.514 187.625L177.119 188.43L229.081 218.43Z" fill="#8BC5E4"/>
<path d="M223.149 215.135L171.187 185.135L223.149 215.135Z" fill="#8BC5E4"/>
<path d="M211.934 226.95L211.834 227.22L159.872 197.22L159.972 196.95L211.934 226.95Z" fill="#8BC5E4"/>
<path d="M205.742 223.575L153.78 193.575L205.742 223.575Z" fill="#8BC5E4"/>
<path d="M194.691 240.025L194.673 240.072L142.711 210.072L142.73 210.025L194.691 240.025Z" fill="#8BC5E4"/>
<path d="M188.326 235.24L136.364 205.24L188.326 235.24Z" fill="#8BC5E4"/>
<path d="M170.919 243.68L118.957 213.68L170.919 243.68Z" fill="#8BC5E4"/>
<path d="M153.512 255.34L101.55 225.34L153.512 255.34Z" fill="#8BC5E4"/>
<path d="M136.096 263.785L84.1343 233.785L136.096 263.785Z" fill="#8BC5E4"/>
<path d="M118.689 275.445L66.7271 245.445L118.689 275.445Z" fill="#8BC5E4"/>
<path d="M95.3405 295.645L93.9722 296.435L42.0107 266.435L43.379 265.645L95.3405 295.645Z" fill="#8BC5E4"/>
<path d="M101.282 283.885L49.3201 253.885L101.282 283.885Z" fill="#8BC5E4"/>
<path d="M223.149 215.135C224.89 214.13 226.302 214.077 227.311 214.639L175.35 184.639C174.341 184.077 172.929 184.13 171.187 185.135L223.149 215.135Z" fill="#8BC5E4"/>
<path d="M227.308 214.637C228.452 215.272 229.078 216.697 229.081 218.42L177.12 188.42C177.117 186.697 176.491 185.272 175.347 184.637L227.308 214.637Z" fill="#8BC5E4"/>
<path d="M230.475 217.625C230.475 218.295 229.705 221.31 228.319 224.07L176.357 194.07C177.743 191.31 178.514 188.295 178.514 187.625L230.475 217.625Z" fill="#8BC5E4"/>
<path d="M228.319 224.07C226.933 226.84 225.097 229.37 223.149 230.495L171.187 200.495C173.136 199.37 174.972 196.84 176.357 194.07L228.319 224.07Z" fill="#8BC5E4"/>
<path d="M223.149 230.495C221.62 231.377 220.64 231.404 219.788 230.917L167.827 200.917C168.679 201.404 169.659 201.377 171.187 200.495L223.149 230.495Z" fill="#8BC5E4"/>
<path d="M219.793 230.919C219.492 230.747 219.207 230.511 218.92 230.226L166.959 200.226C167.246 200.511 167.531 200.747 167.832 200.919L219.793 230.919Z" fill="#8BC5E4"/>
<path d="M218.914 230.22C218.178 229.495 217.52 228.395 216.792 227.275L164.831 197.275C165.558 198.395 166.216 199.495 166.952 200.22L218.914 230.22Z" fill="#8BC5E4"/>
<path d="M216.792 227.275C216.818 227.19 216.844 227.115 216.879 227.035L164.917 197.035C164.882 197.115 164.857 197.19 164.831 197.275L216.792 227.275Z" fill="#8BC5E4"/>
<path d="M216.879 227.035C218.109 223.705 218.983 220.83 219.901 218.92L167.94 188.92C167.022 190.83 166.147 193.705 164.917 197.035L216.879 227.035Z" fill="#8BC5E4"/>
<path d="M219.901 218.92C220.802 217.02 221.321 216.19 223.149 215.135L171.187 185.135C169.36 186.19 168.84 187.02 167.939 188.92L219.901 218.92Z" fill="#8BC5E4"/>
<path d="M188.326 235.24C189.284 234.687 189.864 234.639 190.541 235.036L138.58 205.036C137.903 204.639 137.323 204.687 136.364 205.24L188.326 235.24Z" fill="#8BC5E4"/>
<path d="M190.537 235.033C190.753 235.159 190.978 235.33 191.229 235.545L139.268 205.545C139.017 205.33 138.792 205.159 138.576 205.033L190.537 235.033Z" fill="#8BC5E4"/>
<path d="M191.236 235.55C192.266 236.455 193.34 238.235 194.682 239.98L142.721 209.98C141.379 208.235 140.305 206.455 139.274 205.55L191.236 235.55Z" fill="#8BC5E4"/>
<path d="M194.682 239.98C194.682 239.99 194.691 239.995 194.691 240.025L142.73 210.025C142.73 209.995 142.721 209.99 142.721 209.98L194.682 239.98Z" fill="#8BC5E4"/>
<path d="M194.691 240.025C194.685 240.04 194.679 240.056 194.673 240.072L142.711 210.072C142.717 210.056 142.723 210.04 142.73 210.025L194.691 240.025Z" fill="#8BC5E4"/>
<path d="M194.673 240.072C193.866 242.144 193.109 244.087 192.31 245.7L140.348 215.7C141.147 214.087 141.904 212.144 142.711 210.072L194.673 240.072Z" fill="#8BC5E4"/>
<path d="M192.31 245.7C191.132 248.08 190.049 249.605 188.326 250.6L136.364 220.6C138.088 219.605 139.17 218.08 140.348 215.7L192.31 245.7Z" fill="#8BC5E4"/>
<path d="M188.326 250.6C186.938 251.401 185.975 251.398 185.049 250.861L133.088 220.861C134.014 221.398 134.977 221.401 136.364 220.6L188.326 250.6Z" fill="#8BC5E4"/>
<path d="M185.04 250.856C184.809 250.721 184.58 250.553 184.348 250.356L132.387 220.356C132.619 220.553 132.848 220.721 133.079 220.856L185.04 250.856Z" fill="#8BC5E4"/>
<path d="M184.342 250.35C183.545 249.66 182.774 248.575 181.952 247.4L129.99 217.4C130.813 218.575 131.584 219.66 132.38 220.35L184.342 250.35Z" fill="#8BC5E4"/>
<path d="M181.952 247.4C181.969 247.36 181.986 247.31 182.004 247.27L130.042 217.27C130.025 217.31 130.008 217.36 129.99 217.4L181.952 247.4Z" fill="#8BC5E4"/>
<path d="M182.004 247.27C183.329 243.935 184.394 240.93 185.416 238.87L133.454 208.87C132.432 210.93 131.367 213.935 130.042 217.27L182.004 247.27Z" fill="#8BC5E4"/>
<path d="M185.416 238.87C186.446 236.815 187.044 235.98 188.326 235.24L136.364 205.24C135.082 205.98 134.485 206.815 133.454 208.87L185.416 238.87Z" fill="#8BC5E4"/>
<path d="M153.512 255.34C154.235 254.922 154.875 254.905 155.649 255.35L103.688 225.35C102.914 224.905 102.274 224.922 101.55 225.34L153.512 255.34Z" fill="#8BC5E4"/>
<path d="M155.644 255.347C155.87 255.476 156.108 255.645 156.362 255.855L104.401 225.855C104.147 225.645 103.909 225.476 103.683 225.347L155.644 255.347Z" fill="#8BC5E4"/>
<path d="M156.369 255.86C157.487 256.805 158.621 258.51 159.851 260.09L107.889 230.09C106.66 228.51 105.525 226.805 104.408 225.86L156.369 255.86Z" fill="#8BC5E4"/>
<path d="M159.851 260.09C159.054 262.08 158.266 264.015 157.435 265.675L105.473 235.675C106.305 234.015 107.093 232.08 107.889 230.09L159.851 260.09Z" fill="#8BC5E4"/>
<path d="M157.435 265.675C156.188 268.165 154.992 269.845 153.512 270.7L101.55 240.7C103.031 239.845 104.226 238.165 105.473 235.675L157.435 265.675Z" fill="#8BC5E4"/>
<path d="M153.512 270.7C152.147 271.488 151.172 271.492 150.18 270.924L98.219 240.924C99.211 241.492 100.186 241.488 101.55 240.7L153.512 270.7Z" fill="#8BC5E4"/>
<path d="M150.172 270.919C150.004 270.822 149.835 270.709 149.664 270.58L97.7029 240.58C97.8739 240.709 98.0429 240.822 98.2109 240.919L150.172 270.919Z" fill="#8BC5E4"/>
<path d="M149.658 270.575C148.818 269.93 147.986 268.85 147.112 267.565L95.1501 237.565C96.0248 238.85 96.8562 239.93 97.6962 240.575L149.658 270.575Z" fill="#8BC5E4"/>
<path d="M147.112 267.565C147.146 267.465 147.181 267.355 147.233 267.255L95.2713 237.255C95.2194 237.355 95.1847 237.465 95.1501 237.565L147.112 267.565Z" fill="#8BC5E4"/>
<path d="M147.233 267.255C148.541 263.72 149.675 260.725 150.706 258.76L98.744 228.76C97.7134 230.725 96.5789 233.72 95.2712 237.255L147.233 267.255Z" fill="#8BC5E4"/>
<path d="M150.706 258.76C151.728 256.79 152.342 256.015 153.512 255.34L101.55 225.34C100.381 226.015 99.766 226.79 98.7441 228.76L150.706 258.76Z" fill="#8BC5E4"/>
<path d="M118.689 275.445C119.423 275.021 120.136 275.018 120.978 275.508L69.0169 245.508C68.1749 245.018 67.4619 245.021 66.7271 245.445L118.689 275.445Z" fill="#8BC5E4"/>
<path d="M120.974 275.505C121.193 275.633 121.421 275.793 121.661 275.989L69.6999 245.989C69.4599 245.793 69.2319 245.633 69.0129 245.505L120.974 275.505Z" fill="#8BC5E4"/>
<path d="M121.668 275.995C122.811 276.955 123.911 278.67 125.011 280.175L73.0491 250.175C71.9493 248.67 70.8494 246.955 69.7063 245.995L121.668 275.995Z" fill="#8BC5E4"/>
<path d="M125.011 280.175C125.019 280.19 125.037 280.21 125.063 280.235L73.1011 250.235C73.0751 250.21 73.0578 250.19 73.0491 250.175L125.011 280.175Z" fill="#8BC5E4"/>
<path d="M125.063 280.235C124.327 282.08 123.556 283.965 122.724 285.615L70.7629 255.615C71.5943 253.965 72.3651 252.08 73.1012 250.235L125.063 280.235Z" fill="#8BC5E4"/>
<path d="M122.724 285.615C121.46 288.145 120.178 289.945 118.689 290.805L66.7271 260.805C68.2167 259.945 69.4984 258.145 70.7628 255.615L122.724 285.615Z" fill="#8BC5E4"/>
<path d="M118.689 290.805C117.396 291.551 116.235 291.489 115.125 290.846L63.1638 260.846C64.2738 261.489 65.4348 261.551 66.727 260.805L118.689 290.805Z" fill="#8BC5E4"/>
<path d="M115.116 290.841C114.923 290.728 114.73 290.598 114.539 290.451L62.5779 260.451C62.7689 260.598 62.9619 260.728 63.1549 260.841L115.116 290.841Z" fill="#8BC5E4"/>
<path d="M114.532 290.445C114.476 290.402 114.42 290.358 114.365 290.312L62.4038 260.312C62.4588 260.358 62.5148 260.402 62.5701 260.445L114.532 290.445Z" fill="#8BC5E4"/>
<path d="M114.365 290.313C113.593 289.673 112.896 288.77 112.258 287.806L60.2969 257.806C60.9349 258.77 61.6319 259.673 62.4039 260.313L114.365 290.313Z" fill="#8BC5E4"/>
<path d="M112.254 287.8C112.332 287.595 112.401 287.375 112.471 287.175L60.5092 257.175C60.4399 257.375 60.3706 257.595 60.2927 257.8L112.254 287.8Z" fill="#8BC5E4"/>
<path d="M112.471 287.175C113.363 284.54 114.436 281.64 115.58 279.44L63.618 249.44C62.4748 251.64 61.401 254.54 60.509 257.175L112.471 287.175Z" fill="#8BC5E4"/>
<path d="M115.58 279.44C116.723 277.23 117.693 276.02 118.689 275.445L66.7272 245.445C65.7313 246.02 64.7614 247.23 63.6182 249.44L115.58 279.44Z" fill="#8BC5E4"/>
<path d="M205.742 223.575C206.858 222.93 207.8 222.971 208.731 223.507L156.77 193.507C155.839 192.971 154.897 192.93 153.78 193.575L205.742 223.575Z" fill="#8BC5E4"/>
<path d="M208.726 223.504C209.035 223.681 209.344 223.913 209.657 224.193L157.696 194.193C157.383 193.913 157.074 193.681 156.765 193.504L208.726 223.504Z" fill="#8BC5E4"/>
<path d="M209.665 224.2C210.435 224.925 211.18 225.925 211.934 226.95L159.972 196.95C159.219 195.925 158.474 194.925 157.703 194.2L209.665 224.2Z" fill="#8BC5E4"/>
<path d="M211.934 226.95C211.9 227.04 211.867 227.13 211.834 227.22L159.872 197.22C159.906 197.13 159.939 197.04 159.972 196.95L211.934 226.95Z" fill="#8BC5E4"/>
<path d="M211.834 227.219C210.743 230.165 209.685 233.023 208.643 235.11L156.681 205.11C157.723 203.023 158.782 200.165 159.872 197.219L211.834 227.219Z" fill="#8BC5E4"/>
<path d="M208.643 235.11C207.534 237.33 206.755 238.34 205.742 238.925L153.78 208.925C154.793 208.34 155.573 207.33 156.681 205.11L208.643 235.11Z" fill="#8BC5E4"/>
<path d="M205.742 238.925C205.004 239.351 204.435 239.394 203.752 238.999L151.79 208.999C152.473 209.394 153.042 209.351 153.78 208.925L205.742 238.925Z" fill="#8BC5E4"/>
<path d="M203.745 238.995C203.502 238.853 203.244 238.656 202.96 238.401L150.998 208.401C151.282 208.656 151.54 208.853 151.783 208.995L203.745 238.995Z" fill="#8BC5E4"/>
<path d="M202.953 238.395C201.896 237.475 200.797 235.75 199.541 234.065L147.579 204.065C148.835 205.75 149.935 207.475 150.991 208.395L202.953 238.395Z" fill="#8BC5E4"/>
<path d="M199.541 234.065C200.32 232.055 201.074 230.15 201.862 228.555L149.9 198.555C149.112 200.15 148.359 202.055 147.579 204.065L199.541 234.065Z" fill="#8BC5E4"/>
<path d="M201.862 228.555C203.083 226.06 204.209 224.46 205.741 223.575L153.78 193.575C152.247 194.46 151.121 196.06 149.9 198.555L201.862 228.555Z" fill="#8BC5E4"/>
<path d="M170.919 243.68C172.117 242.988 173.052 242.998 173.979 243.532L122.018 213.532C121.091 212.998 120.156 212.988 118.957 213.68L170.919 243.68Z" fill="#8BC5E4"/>
<path d="M173.974 243.529C174.245 243.684 174.515 243.884 174.791 244.124L122.83 214.124C122.554 213.884 122.284 213.684 122.013 213.529L173.974 243.529Z" fill="#8BC5E4"/>
<path d="M174.798 244.13C175.595 244.81 176.349 245.855 177.137 246.98L125.175 216.98C124.387 215.855 123.634 214.81 122.837 214.13L174.798 244.13Z" fill="#8BC5E4"/>
<path d="M177.137 246.98C175.881 250.175 174.772 253.185 173.716 255.335L121.754 225.335C122.811 223.185 123.919 220.175 125.175 216.98L177.137 246.98Z" fill="#8BC5E4"/>
<path d="M173.716 255.335C172.633 257.53 171.949 258.435 170.919 259.03L118.957 229.03C119.988 228.435 120.672 227.53 121.754 225.335L173.716 255.335Z" fill="#8BC5E4"/>
<path d="M170.919 259.03C170.238 259.423 169.632 259.449 168.912 259.031L116.951 229.031C117.671 229.449 118.277 229.423 118.957 229.03L170.919 259.03Z" fill="#8BC5E4"/>
<path d="M168.917 259.034C168.658 258.884 168.383 258.676 168.085 258.406L116.123 228.406C116.421 228.676 116.696 228.884 116.955 229.034L168.917 259.034Z" fill="#8BC5E4"/>
<path d="M168.078 258.4C166.996 257.425 165.922 255.725 164.727 254.175L112.765 224.175C113.96 225.725 115.034 227.425 116.117 228.4L168.078 258.4Z" fill="#8BC5E4"/>
<path d="M164.727 254.175C165.472 252.285 166.199 250.445 166.987 248.83L115.026 218.83C114.237 220.445 113.51 222.285 112.765 224.175L164.727 254.175Z" fill="#8BC5E4"/>
<path d="M166.987 248.83C168.243 246.265 169.429 244.54 170.919 243.68L118.957 213.68C117.468 214.54 116.281 216.265 115.025 218.83L166.987 248.83Z" fill="#8BC5E4"/>
<path d="M136.096 263.785C136.944 263.295 138.005 263.325 139.176 263.998L87.215 233.998C86.044 233.325 84.983 233.295 84.1343 233.785L136.096 263.785Z" fill="#8BC5E4"/>
<path d="M139.17 263.994C139.313 264.076 139.458 264.168 139.605 264.27L87.643 234.27C87.496 234.168 87.351 234.076 87.208 233.994L139.17 263.994Z" fill="#8BC5E4"/>
<path d="M139.612 264.275C139.674 264.32 139.737 264.367 139.8 264.416L87.839 234.416C87.776 234.367 87.713 234.32 87.6504 234.275L139.612 264.275Z" fill="#8BC5E4"/>
<path d="M139.8 264.416C140.631 265.057 141.481 265.979 142.308 267.078L90.3469 237.078C89.5199 235.979 88.6699 235.057 87.8389 234.416L139.8 264.416Z" fill="#8BC5E4"/>
<path d="M142.314 267.085C141.075 270.39 139.768 273.495 138.581 275.7L86.6196 245.7C87.8061 243.495 89.1138 240.39 90.3522 237.085L142.314 267.085Z" fill="#8BC5E4"/>
<path d="M138.581 275.7C137.378 277.945 136.451 278.93 136.096 279.135L84.1343 249.135C84.4894 248.93 85.4161 247.945 86.6198 245.7L138.581 275.7Z" fill="#8BC5E4"/>
<path d="M136.096 279.135C136.111 279.126 135.098 279.175 133.951 278.511L81.99 248.511C83.137 249.175 84.15 249.126 84.1343 249.135L136.096 279.135Z" fill="#8BC5E4"/>
<path d="M133.951 278.511C133.787 278.416 133.621 278.306 133.454 278.18L81.4929 248.18C81.6599 248.306 81.8259 248.416 81.9899 248.511L133.951 278.511Z" fill="#8BC5E4"/>
<path d="M133.454 278.18C133.371 278.115 133.287 278.048 133.204 277.978L81.2429 247.978C81.3259 248.048 81.4099 248.115 81.4929 248.18L133.454 278.18Z" fill="#8BC5E4"/>
<path d="M133.204 277.979C132.032 277.003 130.856 275.571 129.935 274.313L77.9739 244.313C78.8949 245.571 80.0709 247.003 81.2429 247.979L133.204 277.979Z" fill="#8BC5E4"/>
<path d="M129.93 274.305C130.683 272.5 131.54 270.625 132.406 268.945L80.4449 238.945C79.5788 240.625 78.7215 242.5 77.968 244.305L129.93 274.305Z" fill="#8BC5E4"/>
<path d="M132.407 268.945C133.835 266.2 135.334 264.225 136.096 263.785L84.1343 233.785C83.3722 234.225 81.874 236.2 80.4451 238.945L132.407 268.945Z" fill="#8BC5E4"/>
<path d="M101.282 283.885C102.577 283.137 103.691 283.187 104.743 283.802L52.782 253.802C51.73 253.187 50.616 253.137 49.3201 253.885L101.282 283.885Z" fill="#8BC5E4"/>
<path d="M104.737 283.798C104.986 283.943 105.231 284.119 105.474 284.324L53.5129 254.324C53.2699 254.119 53.0249 253.943 52.7759 253.798L104.737 283.798Z" fill="#8BC5E4"/>
<path d="M105.482 284.33C106.244 285 106.945 285.935 107.578 286.95L55.6161 256.95C54.9839 255.935 54.2824 255 53.5203 254.33L105.482 284.33Z" fill="#8BC5E4"/>
<path d="M107.578 286.95C107.552 287.025 107.526 287.11 107.491 287.21L55.5295 257.21C55.5642 257.11 55.5901 257.025 55.6161 256.95L107.578 286.95Z" fill="#8BC5E4"/>
<path d="M107.491 287.21C106.573 289.93 105.525 292.895 104.399 295.155L52.4377 265.155C53.5635 262.895 54.6114 259.93 55.5294 257.21L107.491 287.21Z" fill="#8BC5E4"/>
<path d="M104.399 295.155C103.273 297.405 102.355 298.615 101.282 299.235L49.3201 269.235C50.394 268.615 51.312 267.405 52.4378 265.155L104.399 295.155Z" fill="#8BC5E4"/>
<path d="M101.281 299.235C100.395 299.747 98.9053 299.748 97.6673 299.029L45.7058 269.029C46.9438 269.748 48.4338 269.747 49.3199 269.235L101.281 299.235Z" fill="#8BC5E4"/>
<path d="M97.6755 299.033C97.5705 298.972 97.4675 298.906 97.3665 298.835L45.405 268.835C45.506 268.906 45.609 268.972 45.714 269.033L97.6755 299.033Z" fill="#8BC5E4"/>
<path d="M97.3586 298.83C97.2975 298.787 97.2385 298.743 97.1795 298.696L45.218 268.696C45.277 268.743 45.336 268.787 45.397 268.83L97.3586 298.83Z" fill="#8BC5E4"/>
<path d="M97.1814 298.697C96.0034 297.756 95.3504 296.045 95.3404 295.654L43.3789 265.654C43.3889 266.045 44.0419 267.756 45.2199 268.697L97.1814 298.697Z" fill="#8BC5E4"/>
<path d="M93.9722 296.435C94.1108 295.135 94.9854 292.44 96.3278 289.935L44.3663 259.935C43.0239 262.44 42.1492 265.135 42.0107 266.435L93.9722 296.435Z" fill="#8BC5E4"/>
<path d="M96.328 289.935C97.8002 287.205 99.7228 284.785 101.282 283.885L49.3201 253.885C47.7613 254.785 45.8387 257.205 44.3665 259.935L96.328 289.935Z" fill="#8BC5E4"/>
<path d="M118.689 268.975C115.562 270.78 113.103 274.32 111.379 277.635L59.418 247.635C61.1414 244.32 63.6009 240.78 66.7272 238.975L118.689 268.975Z" fill="#8BC5E4"/>
<path d="M111.38 277.635C110.505 279.33 109.769 281.035 109.119 282.68L57.1577 252.68C57.8072 251.035 58.5433 249.33 59.418 247.635L111.38 277.635Z" fill="#8BC5E4"/>
<path d="M109.119 282.68C108.669 282.08 108.175 281.515 107.621 281.055L55.6594 251.055C56.2137 251.515 56.7073 252.08 57.1577 252.68L109.119 282.68Z" fill="#8BC5E4"/>
<path d="M107.621 281.055C107.325 280.8 107.009 280.572 106.672 280.379L54.7109 250.379C55.0479 250.572 55.3639 250.8 55.6593 251.055L107.621 281.055Z" fill="#8BC5E4"/>
<path d="M106.673 280.379C105.251 279.564 103.457 279.392 101.289 280.64L49.3279 250.64C51.4959 249.392 53.2899 249.564 54.7119 250.379L106.673 280.379Z" fill="#8BC5E4"/>
<path d="M101.282 280.645C98.5276 282.235 96.0941 285.57 94.2841 288.935L42.3225 258.935C44.1325 255.57 46.5661 252.235 49.32 250.645L101.282 280.645Z" fill="#8BC5E4"/>
<path d="M94.284 288.935C92.5432 292.17 91.2962 295.46 91.1923 298.04L39.2307 268.04C39.3346 265.46 40.5817 262.17 42.3224 258.935L94.284 288.935Z" fill="#8BC5E4"/>
<path d="M89.7979 298.845C89.7983 301.973 91.0963 303.897 92.8683 305.274L40.9068 275.274C39.1348 273.897 37.8368 271.973 37.8364 268.845L89.7979 298.845Z" fill="#8BC5E4"/>
<path d="M92.8743 305.279C92.9963 305.374 93.1203 305.466 93.2473 305.556L41.2858 275.556C41.1588 275.466 41.0348 275.374 40.9128 275.279L92.8743 305.279Z" fill="#8BC5E4"/>
<path d="M93.2535 305.56C93.4624 305.706 93.6794 305.844 93.9044 305.973L41.9429 275.973C41.7179 275.844 41.5009 275.706 41.292 275.56L93.2535 305.56Z" fill="#8BC5E4"/>
<path d="M93.9044 305.973C95.8104 307.061 98.2804 307.435 101.276 305.708L49.3149 275.708C46.3189 277.435 43.8489 277.061 41.9429 275.973L93.9044 305.973Z" fill="#8BC5E4"/>
<path d="M101.282 305.705C104.503 303.845 107.006 300.15 108.695 296.755L56.7333 266.755C55.0446 270.15 52.5417 273.845 49.3201 275.705L101.282 305.705Z" fill="#8BC5E4"/>
<path d="M108.695 296.755C109.491 295.175 110.158 293.58 110.747 292.05L58.7857 262.05C58.1968 263.58 57.5299 265.175 56.7332 266.755L108.695 296.755Z" fill="#8BC5E4"/>
<path d="M110.747 292.05C111.218 292.659 111.742 293.203 112.319 293.672L60.3578 263.672C59.7808 263.203 59.2568 262.659 58.7856 262.05L110.747 292.05Z" fill="#8BC5E4"/>
<path d="M112.327 293.678C112.36 293.705 112.394 293.732 112.428 293.759L60.467 263.759C60.433 263.732 60.399 263.705 60.366 263.678L112.327 293.678Z" fill="#8BC5E4"/>
<path d="M112.436 293.765C112.663 293.943 112.902 294.106 113.151 294.251L61.1899 264.251C60.9409 264.106 60.7019 263.943 60.4744 263.765L112.436 293.765Z" fill="#8BC5E4"/>
<path d="M113.15 294.251C114.623 295.109 116.469 295.324 118.681 294.049L66.72 264.049C64.508 265.324 62.662 265.109 61.189 264.251L113.15 294.251Z" fill="#8BC5E4"/>
<path d="M118.689 294.045C121.304 292.535 123.339 289.48 124.872 286.435L72.9106 256.435C71.3777 259.48 69.3425 262.535 66.7271 264.045L118.689 294.045Z" fill="#8BC5E4"/>
<path d="M124.872 286.435C125.548 285.075 126.154 283.695 126.708 282.335L74.7465 252.335C74.1923 253.695 73.5861 255.075 72.9106 256.435L124.872 286.435Z" fill="#8BC5E4"/>
<path d="M126.708 282.335C127.422 283.169 128.22 283.999 129.088 284.693L77.127 254.693C76.259 253.999 75.461 253.169 74.7466 252.335L126.708 282.335Z" fill="#8BC5E4"/>
<path d="M129.094 284.698C129.148 284.741 129.202 284.784 129.257 284.826L77.2958 254.826C77.2408 254.784 77.1868 254.741 77.1328 254.698L129.094 284.698Z" fill="#8BC5E4"/>
<path d="M129.263 284.83C129.692 285.16 130.137 285.485 130.61 285.76L78.6489 255.76C78.1759 255.485 77.7309 255.16 77.3013 254.83L129.263 284.83Z" fill="#8BC5E4"/>
<path d="M130.609 285.759C132.044 286.591 133.742 286.962 136.091 285.608L84.1299 255.608C81.7809 256.962 80.0829 256.591 78.6479 255.759L130.609 285.759Z" fill="#8BC5E4"/>
<path d="M136.096 285.605C138.858 284.01 140.972 280.87 142.686 277.69L90.7248 247.69C89.0101 250.87 86.897 254.01 84.1343 255.605L136.096 285.605Z" fill="#8BC5E4"/>
<path d="M142.686 277.69C143.691 275.8 144.617 273.775 145.483 271.695L93.5219 241.695C92.6558 243.775 91.7292 245.8 90.7246 247.69L142.686 277.69Z" fill="#8BC5E4"/>
<path d="M145.483 271.695C146.1 272.511 146.732 273.238 147.43 273.8L95.4689 243.8C94.7709 243.238 94.1389 242.511 93.522 241.695L145.483 271.695Z" fill="#8BC5E4"/>
<path d="M147.426 273.797C147.472 273.834 147.519 273.871 147.566 273.907L95.6048 243.907C95.5578 243.871 95.5108 243.834 95.4648 243.797L147.426 273.797Z" fill="#8BC5E4"/>
<path d="M147.571 273.91C147.74 274.039 147.916 274.157 148.098 274.263L96.1369 244.263C95.9549 244.157 95.7789 244.039 95.6091 243.91L147.571 273.91Z" fill="#8BC5E4"/>
<path d="M148.097 274.263C149.52 275.094 151.318 275.203 153.504 273.944L101.543 243.944C99.357 245.203 97.559 245.094 96.136 244.263L148.097 274.263Z" fill="#8BC5E4"/>
<path d="M153.512 273.94C156.084 272.455 158.076 269.485 159.574 266.5L107.612 236.5C106.114 239.485 104.122 242.455 101.55 243.94L153.512 273.94Z" fill="#8BC5E4"/>
<path d="M159.574 266.5C160.267 265.12 160.882 263.695 161.462 262.3L109.5 232.3C108.92 233.695 108.305 235.12 107.612 236.5L159.574 266.5Z" fill="#8BC5E4"/>
<path d="M161.462 262.3C162.129 263.205 162.865 264.14 163.722 264.925L111.761 234.925C110.903 234.14 110.167 233.205 109.5 232.3L161.462 262.3Z" fill="#8BC5E4"/>
<path d="M163.722 264.925C164.078 265.249 164.475 265.549 164.91 265.798L112.949 235.798C112.514 235.549 112.117 235.249 111.76 234.925L163.722 264.925Z" fill="#8BC5E4"/>
<path d="M164.91 265.798C166.43 266.67 168.431 266.934 170.914 265.503L118.953 235.503C116.47 236.934 114.469 236.67 112.949 235.798L164.91 265.798Z" fill="#8BC5E4"/>
<path d="M170.919 265.5C174.01 263.715 176.418 260.155 178.037 256.89L126.076 226.89C124.456 230.155 122.049 233.715 118.957 235.5L170.919 265.5Z" fill="#8BC5E4"/>
<path d="M178.037 256.89C178.912 255.115 179.657 253.305 180.35 251.545L128.388 221.545C127.695 223.305 126.951 225.115 126.076 226.89L178.037 256.89Z" fill="#8BC5E4"/>
<path d="M180.35 251.545C180.913 252.33 181.51 253.065 182.203 253.635L130.241 223.635C129.549 223.065 128.951 222.33 128.388 221.545L180.35 251.545Z" fill="#8BC5E4"/>
<path d="M182.203 253.635C182.453 253.848 182.719 254.039 183.003 254.202L131.042 224.202C130.758 224.039 130.492 223.848 130.241 223.635L182.203 253.635Z" fill="#8BC5E4"/>
<path d="M183.003 254.201C184.368 254.984 186.127 255.107 188.319 253.844L136.357 223.844C134.165 225.107 132.406 224.984 131.041 224.201L183.003 254.201Z" fill="#8BC5E4"/>
<path d="M188.326 253.84C190.993 252.3 193.011 249.425 194.466 246.485L142.504 216.485C141.049 219.425 139.032 222.3 136.364 223.84L188.326 253.84Z" fill="#8BC5E4"/>
<path d="M194.466 246.485C195.141 245.115 195.748 243.695 196.302 242.265L144.34 212.265C143.786 213.695 143.18 215.115 142.504 216.485L194.466 246.485Z" fill="#8BC5E4"/>
<path d="M196.302 242.265C196.995 243.225 197.74 244.155 198.614 244.94L146.653 214.94C145.778 214.155 145.033 213.225 144.34 212.265L196.302 242.265Z" fill="#8BC5E4"/>
<path d="M198.614 244.94C198.933 245.222 199.284 245.481 199.666 245.701L147.705 215.701C147.323 215.481 146.972 215.222 146.653 214.94L198.614 244.94Z" fill="#8BC5E4"/>
<path d="M199.666 245.7C201.202 246.584 203.242 246.836 205.737 245.398L153.776 215.398C151.281 216.836 149.241 216.584 147.705 215.7L199.666 245.7Z" fill="#8BC5E4"/>
<path d="M205.742 245.395C208.851 243.6 211.284 240.035 212.93 236.735L160.968 206.735C159.323 210.035 156.889 213.6 153.78 215.395L205.742 245.395Z" fill="#8BC5E4"/>
<path d="M212.93 236.735C213.796 235.005 214.532 233.26 215.19 231.55L163.228 201.55C162.57 203.26 161.834 205.005 160.968 206.735L212.93 236.735Z" fill="#8BC5E4"/>
<path d="M215.19 231.55C215.64 232.22 216.125 232.88 216.688 233.435L164.727 203.435C164.164 202.88 163.679 202.22 163.228 201.55L215.19 231.55Z" fill="#8BC5E4"/>
<path d="M216.688 233.435C216.987 233.73 217.32 233.992 217.686 234.203L165.725 204.203C165.359 203.992 165.026 203.73 164.727 203.435L216.688 233.435Z" fill="#8BC5E4"/>
<path d="M217.685 234.202C219.023 234.974 220.818 235.078 223.14 233.74L171.179 203.74C168.857 205.078 167.062 204.974 165.724 204.202L217.685 234.202Z" fill="#8BC5E4"/>
<path d="M223.149 233.735C226.249 231.945 228.752 228.3 230.467 224.88L178.505 194.88C176.79 198.3 174.287 201.945 171.187 203.735L223.149 233.735Z" fill="#8BC5E4"/>
<path d="M230.467 224.88C232.181 221.45 233.247 218.275 233.247 216.025L181.285 186.025C181.285 188.275 180.22 191.45 178.505 194.88L230.467 224.88Z" fill="#8BC5E4"/>
<path d="M234.623 215.23C234.623 211.751 233.366 209.085 231.229 207.846L179.268 177.846C181.405 179.085 182.662 181.751 182.662 185.23L234.623 215.23Z" fill="#8BC5E4"/>
<path d="M231.218 207.84C229.204 206.679 226.411 206.783 223.153 208.662L171.192 178.662C174.45 176.783 177.243 176.679 179.257 177.84L231.218 207.84Z" fill="#8BC5E4"/>
<path d="M223.149 208.665C219.762 210.62 217.069 214.215 215.493 217.525L163.531 187.525C165.108 184.215 167.801 180.62 171.187 178.665L223.149 208.665Z" fill="#8BC5E4"/>
<path d="M215.493 217.525C214.636 219.32 213.995 221.05 213.423 222.7L161.462 192.7C162.033 191.05 162.674 189.32 163.531 187.525L215.493 217.525Z" fill="#8BC5E4"/>
<path d="M213.423 222.7C212.929 222.085 212.41 221.475 211.838 220.955L159.877 190.955C160.448 191.475 160.968 192.085 161.462 192.7L213.423 222.7Z" fill="#8BC5E4"/>
<path d="M211.838 220.955C211.494 220.64 211.122 220.356 210.722 220.124L158.761 190.124C159.161 190.356 159.533 190.64 159.877 190.955L211.838 220.955Z" fill="#8BC5E4"/>
<path d="M210.713 220.119C209.394 219.36 207.762 219.172 205.749 220.331L153.788 190.331C155.801 189.172 157.433 189.36 158.752 190.119L210.713 220.119Z" fill="#8BC5E4"/>
<path d="M205.742 220.335C203.152 221.83 201.178 224.77 199.697 227.785L147.735 197.785C149.216 194.77 151.191 191.83 153.78 190.335L205.742 220.335Z" fill="#8BC5E4"/>
<path d="M199.697 227.785C199.056 229.085 198.484 230.445 197.93 231.805L145.969 201.805C146.523 200.445 147.094 199.085 147.735 197.785L199.697 227.785Z" fill="#8BC5E4"/>
<path d="M197.93 231.805C197.228 230.81 196.475 229.805 195.54 229.005L143.578 199.005C144.513 199.805 145.267 200.81 145.968 201.805L197.93 231.805Z" fill="#8BC5E4"/>
<path d="M195.54 229.005C195.272 228.775 194.979 228.564 194.662 228.382L142.701 198.382C143.018 198.564 143.311 198.775 143.578 199.005L195.54 229.005Z" fill="#8BC5E4"/>
<path d="M194.663 228.382C193.094 227.479 190.937 227.264 188.33 228.767L136.369 198.767C138.976 197.264 141.133 197.479 142.702 198.382L194.663 228.382Z" fill="#8BC5E4"/>
<path d="M188.326 228.77C185.217 230.565 182.731 234.04 181.129 237.255L129.168 207.255C130.77 204.04 133.255 200.565 136.364 198.77L188.326 228.77Z" fill="#8BC5E4"/>
<path d="M181.129 237.255C180.194 239.125 179.432 241.005 178.73 242.83L126.769 212.83C127.47 211.005 128.232 209.125 129.168 207.255L181.129 237.255Z" fill="#8BC5E4"/>
<path d="M178.73 242.83C178.185 242.095 177.605 241.41 176.955 240.845L124.993 210.845C125.643 211.41 126.223 212.095 126.769 212.83L178.73 242.83Z" fill="#8BC5E4"/>
<path d="M176.955 240.845C176.671 240.601 176.369 240.381 176.048 240.196L124.087 210.196C124.408 210.381 124.71 210.601 124.993 210.845L176.955 240.845Z" fill="#8BC5E4"/>
<path d="M176.049 240.196C174.695 239.412 173.002 239.239 170.926 240.436L118.965 210.436C121.041 209.239 122.734 209.412 124.088 210.196L176.049 240.196Z" fill="#8BC5E4"/>
<path d="M170.919 240.44C168.286 241.96 166.303 245.015 164.813 248.075L112.852 218.075C114.341 215.015 116.324 211.96 118.957 210.44L170.919 240.44Z" fill="#8BC5E4"/>
<path d="M164.813 248.075C164.181 249.37 163.618 250.685 163.09 251.99L111.128 221.99C111.657 220.685 112.22 219.37 112.852 218.075L164.813 248.075Z" fill="#8BC5E4"/>
<path d="M163.09 251.99C162.38 251.04 161.583 250.07 160.648 249.27L108.686 219.27C109.621 220.07 110.418 221.04 111.128 221.99L163.09 251.99Z" fill="#8BC5E4"/>
<path d="M160.648 249.27C160.356 249.031 160.042 248.807 159.705 248.611L107.744 218.611C108.081 218.807 108.395 219.031 108.686 219.27L160.648 249.27Z" fill="#8BC5E4"/>
<path d="M159.705 248.611C158.144 247.704 156.085 247.386 153.516 248.867L101.555 218.867C104.124 217.386 106.183 217.704 107.744 218.611L159.705 248.611Z" fill="#8BC5E4"/>
<path d="M153.512 248.87C150.619 250.54 148.177 253.75 146.523 256.915L94.5613 226.915C96.2154 223.75 98.6576 220.54 101.55 218.87L153.512 248.87Z" fill="#8BC5E4"/>
<path d="M146.523 256.915C145.509 258.88 144.661 260.9 143.855 262.985L91.8938 232.985C92.6992 230.9 93.5479 228.88 94.5612 226.915L146.523 256.915Z" fill="#8BC5E4"/>
<path d="M143.855 262.985C143.197 262.221 142.517 261.549 141.799 261.019L89.8379 231.019C90.5559 231.549 91.2359 232.221 91.8938 232.985L143.855 262.985Z" fill="#8BC5E4"/>
<path d="M141.804 261.022C141.756 260.987 141.708 260.952 141.66 260.918L89.699 230.918C89.747 230.952 89.795 230.987 89.843 231.022L141.804 261.022Z" fill="#8BC5E4"/>
<path d="M141.656 260.915C141.476 260.789 141.292 260.671 141.106 260.563L89.144 230.563C89.33 230.671 89.514 230.789 89.6942 230.915L141.656 260.915Z" fill="#8BC5E4"/>
<path d="M141.106 260.563C139.649 259.714 138.011 259.441 136.102 260.541L84.1409 230.541C86.0499 229.441 87.6879 229.714 89.1449 230.563L141.106 260.563Z" fill="#8BC5E4"/>
<path d="M136.096 260.545C133.758 261.895 131.948 264.91 130.319 268.03L78.3579 238.03C79.986 234.91 81.796 231.895 84.1342 230.545L136.096 260.545Z" fill="#8BC5E4"/>
<path d="M130.319 268.03C129.627 269.37 128.968 270.76 128.362 272.12L76.4006 242.12C77.0069 240.76 77.665 239.37 78.3579 238.03L130.319 268.03Z" fill="#8BC5E4"/>
<path d="M128.362 272.12C127.678 271.175 126.881 270.205 125.937 269.42L73.9758 239.42C74.9197 240.205 75.7165 241.175 76.4006 242.12L128.362 272.12Z" fill="#8BC5E4"/>
<path d="M125.937 269.42C125.627 269.158 125.29 268.915 124.927 268.703L72.9658 238.703C73.3288 238.915 73.6658 239.158 73.9757 239.42L125.937 269.42Z" fill="#8BC5E4"/>
<path d="M124.916 268.697C123.344 267.787 121.275 267.484 118.693 268.972L66.7319 238.972C69.3139 237.484 71.3829 237.787 72.9549 238.697L124.916 268.697Z" fill="#8BC5E4"/>
<path d="M62.4317 147.315C56.6727 150.64 51.9615 158.85 51.9615 165.58L0 135.58C0 128.85 4.7112 120.64 10.4702 117.315L62.4317 147.315Z" fill="#8BC5E4"/>
<path d="M51.9615 341.14C51.9615 344.564 53.1815 346.963 55.1375 348.056L3.176 318.056C1.22 316.963 0 314.564 0 311.14L51.9615 341.14Z" fill="#8BC5E4"/>
<path d="M55.1463 348.061C57.0323 349.109 59.6023 348.946 62.4233 347.32L10.4618 317.32C7.64081 318.946 5.07081 319.109 3.18481 318.061L55.1463 348.061Z" fill="#8BC5E4"/>
<path d="M263.194 231.405C268.944 228.085 273.664 219.87 273.664 213.14L221.702 183.14C221.702 189.87 216.983 198.085 211.232 201.405L263.194 231.405Z" fill="#8BC5E4"/>
<path d="M273.664 37.5797C273.664 34.1557 272.442 31.7577 270.484 30.6657L218.523 0.66571C220.481 1.75771 221.703 4.15571 221.702 7.57971L273.664 37.5797Z" fill="#8BC5E4"/>
<path d="M270.487 30.6677C268.598 29.6127 266.024 29.7727 263.202 31.3997L211.241 1.39971C214.063 -0.227291 216.637 -0.387291 218.526 0.667709L270.487 30.6677Z" fill="#8BC5E4"/>
<path d="M263.194 36.9147C264.775 36.0017 266.188 35.8977 267.216 36.4777L215.255 6.47771C214.227 5.89771 212.814 6.00171 211.232 6.91471L263.194 36.9147Z" fill="#8BC5E4"/>
<path d="M267.215 36.4767C268.275 37.0737 268.925 38.3967 268.926 40.3087L216.965 10.3087C216.964 8.39668 216.314 7.07368 215.254 6.47668L267.215 36.4767Z" fill="#8BC5E4"/>
<path d="M268.927 215.875C268.927 219.645 266.407 224.04 263.194 225.895L211.232 195.895C214.445 194.04 216.965 189.645 216.965 185.875L268.927 215.875Z" fill="#8BC5E4"/>
<path d="M62.4316 341.805C60.8464 342.72 59.4304 342.826 58.4014 342.247L6.43994 312.247C7.46894 312.826 8.88494 312.72 10.4701 311.805L62.4316 341.805Z" fill="#8BC5E4"/>
<path d="M58.4025 342.248C57.3415 341.651 56.6915 340.328 56.6905 338.416L4.729 308.416C4.73 310.328 5.38 311.651 6.441 312.248L58.4025 342.248Z" fill="#8BC5E4"/>
<path d="M56.69 162.85C56.69 159.08 59.2101 154.685 62.4317 152.825L10.4702 122.825C7.24862 124.685 4.72852 129.08 4.72852 132.85L56.69 162.85Z" fill="#8BC5E4"/>
<path d="M263.194 36.9147C264.775 36.0017 266.188 35.8977 267.216 36.4777L215.255 6.47771C214.227 5.89771 212.814 6.00171 211.232 6.91471L263.194 36.9147Z" fill="#8BC5E4"/>
<path d="M267.215 36.4767C268.275 37.0737 268.925 38.3967 268.926 40.3087L216.965 10.3087C216.964 8.39668 216.314 7.07368 215.254 6.47668L267.215 36.4767Z" fill="#8BC5E4"/>
<path d="M268.927 215.875C268.927 219.645 266.407 224.04 263.194 225.895L211.232 195.895C214.445 194.04 216.965 189.645 216.965 185.875L268.927 215.875Z" fill="#8BC5E4"/>
<path d="M62.4316 341.805C60.8464 342.72 59.4304 342.826 58.4014 342.247L6.43994 312.247C7.46894 312.826 8.88494 312.72 10.4701 311.805L62.4316 341.805Z" fill="#8BC5E4"/>
<path d="M58.4025 342.248C57.3415 341.651 56.6915 340.328 56.6905 338.416L4.729 308.416C4.73 310.328 5.38 311.651 6.441 312.248L58.4025 342.248Z" fill="#8BC5E4"/>
<path d="M56.69 162.85C56.69 159.08 59.2101 154.685 62.4317 152.825L10.4702 122.825C7.24862 124.685 4.72852 129.08 4.72852 132.85L56.69 162.85Z" fill="#8BC5E4"/>
<path d="M111.379 277.635C113.103 274.32 115.562 270.78 118.689 268.975L66.7272 238.975C63.6009 240.78 61.1414 244.32 59.418 247.635L111.379 277.635Z" fill="#8BC5E4"/>
<path d="M118.689 268.975C121.278 267.48 123.353 267.787 124.927 268.703L72.9659 238.703C71.3919 237.787 69.3169 237.48 66.7271 238.975L118.689 268.975Z" fill="#8BC5E4"/>
<path d="M124.922 268.701C125.285 268.911 125.622 269.155 125.932 269.416L73.9709 239.416C73.6609 239.155 73.3239 238.911 72.9609 238.701L124.922 268.701Z" fill="#8BC5E4"/>
<path d="M125.937 269.42C126.881 270.205 127.678 271.175 128.362 272.12L76.4006 242.12C75.7165 241.175 74.9197 240.205 73.9758 239.42L125.937 269.42Z" fill="#8BC5E4"/>
<path d="M128.362 272.12C128.968 270.76 129.627 269.37 130.319 268.03L78.3579 238.03C77.665 239.37 77.0069 240.76 76.4006 242.12L128.362 272.12Z" fill="#8BC5E4"/>
<path d="M130.319 268.03C131.948 264.91 133.758 261.895 136.096 260.545L84.1342 230.545C81.796 231.895 79.986 234.91 78.3579 238.03L130.319 268.03Z" fill="#8BC5E4"/>
<path d="M136.096 260.545C138.007 259.441 139.647 259.713 141.105 260.563L89.144 230.563C87.686 229.713 86.046 229.441 84.1343 230.545L136.096 260.545Z" fill="#8BC5E4"/>
<path d="M141.101 260.56C141.287 260.669 141.471 260.786 141.651 260.912L89.6899 230.912C89.5099 230.786 89.3259 230.669 89.1399 230.56L141.101 260.56Z" fill="#8BC5E4"/>
<path d="M141.656 260.915C141.703 260.949 141.751 260.984 141.799 261.019L89.8379 231.019C89.7899 230.984 89.7419 230.949 89.6941 230.915L141.656 260.915Z" fill="#8BC5E4"/>
<path d="M141.799 261.019C142.516 261.548 143.195 262.218 143.851 262.98L91.8899 232.98C91.2339 232.218 90.5549 231.548 89.8379 231.019L141.799 261.019Z" fill="#8BC5E4"/>
<path d="M143.855 262.985C144.661 260.9 145.509 258.88 146.523 256.915L94.5612 226.915C93.5479 228.88 92.6992 230.9 91.8938 232.985L143.855 262.985Z" fill="#8BC5E4"/>
<path d="M146.523 256.915C148.177 253.75 150.619 250.54 153.512 248.87L101.55 218.87C98.6576 220.54 96.2154 223.75 94.5613 226.915L146.523 256.915Z" fill="#8BC5E4"/>
<path d="M153.512 248.87C156.082 247.386 158.143 247.703 159.705 248.611L107.744 218.611C106.182 217.703 104.121 217.386 101.55 218.87L153.512 248.87Z" fill="#8BC5E4"/>
<path d="M159.711 248.615C160.044 248.809 160.355 249.03 160.643 249.266L108.681 219.266C108.393 219.03 108.083 218.809 107.75 218.615L159.711 248.615Z" fill="#8BC5E4"/>
<path d="M160.648 249.27C161.583 250.07 162.38 251.04 163.09 251.99L111.128 221.99C110.418 221.04 109.621 220.07 108.686 219.27L160.648 249.27Z" fill="#8BC5E4"/>
<path d="M163.09 251.99C163.618 250.685 164.181 249.37 164.813 248.075L112.852 218.075C112.22 219.37 111.657 220.685 111.128 221.99L163.09 251.99Z" fill="#8BC5E4"/>
<path d="M164.813 248.075C166.303 245.015 168.286 241.96 170.919 240.44L118.957 210.44C116.324 211.96 114.341 215.015 112.852 218.075L164.813 248.075Z" fill="#8BC5E4"/>
<path d="M170.919 240.44C172.998 239.239 174.693 239.411 176.048 240.196L124.087 210.196C122.732 209.411 121.037 209.239 118.957 210.44L170.919 240.44Z" fill="#8BC5E4"/>
<path d="M176.055 240.199C176.372 240.383 176.671 240.6 176.951 240.841L124.989 210.841C124.709 210.6 124.41 210.383 124.093 210.199L176.055 240.199Z" fill="#8BC5E4"/>
<path d="M176.955 240.845C177.605 241.41 178.185 242.095 178.73 242.83L126.769 212.83C126.223 212.095 125.643 211.41 124.993 210.845L176.955 240.845Z" fill="#8BC5E4"/>
<path d="M178.73 242.83C179.432 241.005 180.194 239.125 181.129 237.255L129.168 207.255C128.232 209.125 127.47 211.005 126.769 212.83L178.73 242.83Z" fill="#8BC5E4"/>
<path d="M181.129 237.255C182.731 234.04 185.217 230.565 188.326 228.77L136.364 198.77C133.255 200.565 130.77 204.04 129.168 207.255L181.129 237.255Z" fill="#8BC5E4"/>
<path d="M188.326 228.77C190.934 227.264 193.093 227.478 194.662 228.382L142.701 198.382C141.132 197.478 138.973 197.264 136.364 198.77L188.326 228.77Z" fill="#8BC5E4"/>
<path d="M194.659 228.379C194.975 228.561 195.268 228.771 195.536 229.001L143.574 199.001C143.306 198.771 143.013 198.561 142.697 198.379L194.659 228.379Z" fill="#8BC5E4"/>
<path d="M195.54 229.005C196.475 229.805 197.228 230.81 197.93 231.805L145.968 201.805C145.267 200.81 144.513 199.805 143.578 199.005L195.54 229.005Z" fill="#8BC5E4"/>
<path d="M197.93 231.805C198.484 230.445 199.056 229.085 199.697 227.785L147.735 197.785C147.094 199.085 146.523 200.445 145.969 201.805L197.93 231.805Z" fill="#8BC5E4"/>
<path d="M199.697 227.785C201.178 224.77 203.152 221.83 205.742 220.335L153.78 190.335C151.191 191.83 149.216 194.77 147.735 197.785L199.697 227.785Z" fill="#8BC5E4"/>
<path d="M205.742 220.335C207.762 219.168 209.4 219.36 210.722 220.124L158.761 190.124C157.439 189.36 155.801 189.168 153.78 190.335L205.742 220.335Z" fill="#8BC5E4"/>
<path d="M210.728 220.128C211.125 220.358 211.493 220.639 211.834 220.951L159.873 190.951C159.532 190.639 159.164 190.358 158.767 190.128L210.728 220.128Z" fill="#8BC5E4"/>
<path d="M211.838 220.955C212.41 221.475 212.929 222.085 213.423 222.7L161.462 192.7C160.968 192.085 160.448 191.475 159.877 190.955L211.838 220.955Z" fill="#8BC5E4"/>
<path d="M213.423 222.7C213.995 221.05 214.636 219.32 215.493 217.525L163.531 187.525C162.674 189.32 162.033 191.05 161.462 192.7L213.423 222.7Z" fill="#8BC5E4"/>
<path d="M215.493 217.525C217.069 214.215 219.762 210.62 223.149 208.665L171.187 178.665C167.801 180.62 165.108 184.215 163.531 187.525L215.493 217.525Z" fill="#8BC5E4"/>
<path d="M223.149 208.665C226.414 206.779 229.213 206.678 231.229 207.846L179.268 177.846C177.252 176.678 174.453 176.779 171.187 178.665L223.149 208.665Z" fill="#8BC5E4"/>
<path d="M231.226 207.845C233.363 209.081 234.62 211.744 234.623 215.22L182.662 185.22C182.659 181.744 181.402 179.081 179.265 177.845L231.226 207.845Z" fill="#8BC5E4"/>
<path d="M233.247 216.025C233.247 218.275 232.181 221.45 230.467 224.88L178.505 194.88C180.22 191.45 181.285 188.275 181.285 186.025L233.247 216.025Z" fill="#8BC5E4"/>
<path d="M230.467 224.88C228.752 228.3 226.249 231.945 223.149 233.735L171.187 203.735C174.287 201.945 176.79 198.3 178.505 194.88L230.467 224.88Z" fill="#8BC5E4"/>
<path d="M223.149 233.735C220.823 235.078 219.026 234.975 217.686 234.203L165.725 204.203C167.065 204.975 168.862 205.078 171.187 203.735L223.149 233.735Z" fill="#8BC5E4"/>
<path d="M217.69 234.205C217.324 233.994 216.991 233.734 216.692 233.439L164.731 203.439C165.03 203.734 165.363 203.994 165.729 204.205L217.69 234.205Z" fill="#8BC5E4"/>
<path d="M216.688 233.435C216.125 232.88 215.64 232.22 215.19 231.55L163.228 201.55C163.679 202.22 164.164 202.88 164.727 203.435L216.688 233.435Z" fill="#8BC5E4"/>
<path d="M215.19 231.55C214.532 233.26 213.796 235.005 212.93 236.735L160.968 206.735C161.834 205.005 162.57 203.26 163.228 201.55L215.19 231.55Z" fill="#8BC5E4"/>
<path d="M212.93 236.735C211.284 240.035 208.851 243.6 205.742 245.395L153.78 215.395C156.889 213.6 159.323 210.035 160.968 206.735L212.93 236.735Z" fill="#8BC5E4"/>
<path d="M205.741 245.395C203.245 246.836 201.203 246.585 199.666 245.701L147.705 215.701C149.242 216.585 151.284 216.836 153.78 215.395L205.741 245.395Z" fill="#8BC5E4"/>
<path d="M199.671 245.704C199.289 245.484 198.937 245.225 198.618 244.944L146.657 214.944C146.976 215.225 147.328 215.484 147.71 215.704L199.671 245.704Z" fill="#8BC5E4"/>
<path d="M198.614 244.94C197.74 244.155 196.995 243.225 196.302 242.265L144.34 212.265C145.033 213.225 145.778 214.155 146.653 214.94L198.614 244.94Z" fill="#8BC5E4"/>
<path d="M196.302 242.265C195.748 243.695 195.141 245.115 194.466 246.485L142.504 216.485C143.18 215.115 143.786 213.695 144.34 212.265L196.302 242.265Z" fill="#8BC5E4"/>
<path d="M194.466 246.485C193.011 249.425 190.993 252.3 188.326 253.84L136.364 223.84C139.032 222.3 141.049 219.425 142.504 216.485L194.466 246.485Z" fill="#8BC5E4"/>
<path d="M188.326 253.84C186.131 255.107 184.37 254.985 183.003 254.202L131.042 224.202C132.409 224.985 134.17 225.107 136.364 223.84L188.326 253.84Z" fill="#8BC5E4"/>
<path d="M183.007 254.204C182.723 254.042 182.457 253.852 182.207 253.639L130.246 223.639C130.496 223.852 130.762 224.042 131.046 224.204L183.007 254.204Z" fill="#8BC5E4"/>
<path d="M182.203 253.635C181.51 253.065 180.913 252.33 180.35 251.545L128.388 221.545C128.951 222.33 129.549 223.065 130.241 223.635L182.203 253.635Z" fill="#8BC5E4"/>
<path d="M180.35 251.545C179.657 253.305 178.912 255.115 178.037 256.89L126.076 226.89C126.951 225.115 127.695 223.305 128.388 221.545L180.35 251.545Z" fill="#8BC5E4"/>
<path d="M178.037 256.89C176.418 260.155 174.01 263.715 170.919 265.5L118.957 235.5C122.049 233.715 124.456 230.155 126.076 226.89L178.037 256.89Z" fill="#8BC5E4"/>
<path d="M170.919 265.5C168.434 266.934 166.431 266.67 164.91 265.798L112.949 235.798C114.47 236.67 116.473 236.934 118.957 235.5L170.919 265.5Z" fill="#8BC5E4"/>
<path d="M164.914 265.801C164.479 265.552 164.083 265.253 163.726 264.929L111.765 234.929C112.122 235.253 112.518 235.552 112.953 235.801L164.914 265.801Z" fill="#8BC5E4"/>
<path d="M163.722 264.925C162.865 264.14 162.129 263.205 161.462 262.3L109.5 232.3C110.167 233.205 110.903 234.14 111.761 234.925L163.722 264.925Z" fill="#8BC5E4"/>
<path d="M161.462 262.3C160.882 263.695 160.267 265.12 159.574 266.5L107.612 236.5C108.305 235.12 108.92 233.695 109.5 232.3L161.462 262.3Z" fill="#8BC5E4"/>
<path d="M159.574 266.5C158.076 269.485 156.084 272.455 153.512 273.94L101.55 243.94C104.122 242.455 106.114 239.485 107.612 236.5L159.574 266.5Z" fill="#8BC5E4"/>
<path d="M153.512 273.94C151.323 275.204 149.522 275.095 148.098 274.263L96.137 244.263C97.561 245.095 99.362 245.204 101.55 243.94L153.512 273.94Z" fill="#8BC5E4"/>
<path d="M148.103 274.265C147.921 274.159 147.746 274.041 147.576 273.913L95.614 243.913C95.784 244.041 95.959 244.159 96.141 244.265L148.103 274.265Z" fill="#8BC5E4"/>
<path d="M147.571 273.91C147.523 273.874 147.476 273.837 147.43 273.8L95.469 243.8C95.515 243.837 95.562 243.874 95.6092 243.91L147.571 273.91Z" fill="#8BC5E4"/>
<path d="M147.43 273.8C146.734 273.24 146.103 272.514 145.487 271.7L93.5259 241.7C94.1419 242.514 94.7729 243.24 95.4689 243.8L147.43 273.8Z" fill="#8BC5E4"/>
<path d="M145.483 271.695C144.617 273.775 143.691 275.8 142.686 277.69L90.7246 247.69C91.7292 245.8 92.6558 243.775 93.5219 241.695L145.483 271.695Z" fill="#8BC5E4"/>
<path d="M142.686 277.69C140.972 280.87 138.858 284.01 136.096 285.605L84.1343 255.605C86.897 254.01 89.0101 250.87 90.7248 247.69L142.686 277.69Z" fill="#8BC5E4"/>
<path d="M136.096 285.605C133.744 286.962 132.045 286.592 130.61 285.76L78.6489 255.76C80.0839 256.592 81.7829 256.962 84.1342 255.605L136.096 285.605Z" fill="#8BC5E4"/>
<path d="M130.603 285.755C130.134 285.483 129.694 285.161 129.268 284.834L77.3069 254.834C77.7329 255.161 78.1729 255.483 78.6419 255.755L130.603 285.755Z" fill="#8BC5E4"/>
<path d="M129.263 284.83C129.204 284.785 129.146 284.739 129.088 284.693L77.127 254.693C77.185 254.739 77.243 254.785 77.3014 254.83L129.263 284.83Z" fill="#8BC5E4"/>
<path d="M129.088 284.693C128.222 284.001 127.425 283.173 126.712 282.34L74.751 252.34C75.464 253.173 76.261 254.001 77.127 254.693L129.088 284.693Z" fill="#8BC5E4"/>
<path d="M126.708 282.335C126.154 283.695 125.548 285.075 124.872 286.435L72.9106 256.435C73.5861 255.075 74.1923 253.695 74.7465 252.335L126.708 282.335Z" fill="#8BC5E4"/>
<path d="M124.872 286.435C123.339 289.48 121.304 292.535 118.689 294.045L66.7271 264.045C69.3425 262.535 71.3777 259.48 72.9106 256.435L124.872 286.435Z" fill="#8BC5E4"/>
<path d="M118.689 294.045C116.473 295.324 114.626 295.11 113.151 294.251L61.1899 264.251C62.6649 265.11 64.5119 265.324 66.7271 264.045L118.689 294.045Z" fill="#8BC5E4"/>
<path d="M113.156 294.254C112.907 294.109 112.669 293.946 112.441 293.769L60.479 263.769C60.707 263.946 60.945 264.109 61.194 264.254L113.156 294.254Z" fill="#8BC5E4"/>
<path d="M112.436 293.765C112.397 293.734 112.358 293.703 112.319 293.672L60.3579 263.672C60.3969 263.703 60.4359 263.734 60.4744 263.765L112.436 293.765Z" fill="#8BC5E4"/>
<path d="M112.32 293.673C111.744 293.205 111.222 292.664 110.753 292.058L58.792 262.058C59.261 262.664 59.783 263.205 60.359 263.673L112.32 293.673Z" fill="#8BC5E4"/>
<path d="M110.747 292.05C110.158 293.58 109.491 295.175 108.695 296.755L56.7332 266.755C57.5299 265.175 58.1968 263.58 58.7857 262.05L110.747 292.05Z" fill="#8BC5E4"/>
<path d="M108.695 296.755C107.006 300.15 104.503 303.845 101.282 305.705L49.3201 275.705C52.5417 273.845 55.0446 270.15 56.7333 266.755L108.695 296.755Z" fill="#8BC5E4"/>
<path d="M101.281 305.705C98.2834 307.436 95.8124 307.062 93.9044 305.973L41.9429 275.973C43.8509 277.062 46.3219 277.436 49.32 275.705L101.281 305.705Z" fill="#8BC5E4"/>
<path d="M93.9104 305.976C93.6854 305.848 93.4683 305.71 93.2593 305.564L41.2979 275.564C41.5069 275.71 41.7239 275.848 41.9489 275.976L93.9104 305.976Z" fill="#8BC5E4"/>
<path d="M93.2536 305.56C93.1235 305.467 92.9945 305.372 92.8685 305.274L40.907 275.274C41.033 275.372 41.162 275.467 41.2921 275.56L93.2536 305.56Z" fill="#8BC5E4"/>
<path d="M92.8684 305.274C91.0984 303.899 89.8014 301.977 89.7984 298.855L37.8369 268.855C37.8399 271.977 39.1369 273.899 40.9069 275.274L92.8684 305.274Z" fill="#8BC5E4"/>
<path d="M91.1923 298.04C91.2962 295.46 92.5432 292.17 94.284 288.935L42.3224 258.935C40.5817 262.17 39.3346 265.46 39.2307 268.04L91.1923 298.04Z" fill="#8BC5E4"/>
<path d="M94.2841 288.935C96.0941 285.57 98.5276 282.235 101.282 280.645L49.32 250.645C46.5661 252.235 44.1325 255.57 42.3225 258.935L94.2841 288.935Z" fill="#8BC5E4"/>
<path d="M101.282 280.645C103.452 279.392 105.249 279.564 106.672 280.379L54.711 250.379C53.288 249.564 51.491 249.392 49.3201 250.645L101.282 280.645Z" fill="#8BC5E4"/>
<path d="M106.669 280.376C107.006 280.569 107.322 280.797 107.617 281.051L55.655 251.051C55.36 250.797 55.044 250.569 54.707 250.376L106.669 280.376Z" fill="#8BC5E4"/>
<path d="M107.621 281.055C108.175 281.515 108.669 282.08 109.119 282.68L57.1577 252.68C56.7073 252.08 56.2137 251.515 55.6594 251.055L107.621 281.055Z" fill="#8BC5E4"/>
<path d="M109.119 282.68C109.769 281.035 110.505 279.33 111.38 277.635L59.418 247.635C58.5433 249.33 57.8072 251.035 57.1577 252.68L109.119 282.68Z" fill="#8BC5E4"/>
<path d="M223.149 215.135C224.89 214.13 226.302 214.077 227.311 214.639L175.35 184.639C174.341 184.077 172.929 184.13 171.187 185.135L223.149 215.135Z" fill="#8BC5E4"/>
<path d="M227.308 214.637C228.452 215.272 229.078 216.697 229.081 218.42L177.12 188.42C177.117 186.697 176.491 185.272 175.347 184.637L227.308 214.637Z" fill="#8BC5E4"/>
<path d="M230.475 217.625C230.475 218.295 229.705 221.31 228.319 224.07L176.357 194.07C177.743 191.31 178.514 188.295 178.514 187.625L230.475 217.625Z" fill="#8BC5E4"/>
<path d="M228.319 224.07C226.933 226.84 225.097 229.37 223.149 230.495L171.187 200.495C173.136 199.37 174.972 196.84 176.357 194.07L228.319 224.07Z" fill="#8BC5E4"/>
<path d="M223.149 230.495C221.62 231.377 220.64 231.404 219.788 230.917L167.827 200.917C168.679 201.404 169.659 201.377 171.187 200.495L223.149 230.495Z" fill="#8BC5E4"/>
<path d="M219.793 230.919C219.492 230.747 219.207 230.511 218.92 230.226L166.959 200.226C167.246 200.511 167.531 200.747 167.832 200.919L219.793 230.919Z" fill="#8BC5E4"/>
<path d="M218.914 230.22C218.178 229.495 217.52 228.395 216.792 227.275L164.831 197.275C165.558 198.395 166.216 199.495 166.952 200.22L218.914 230.22Z" fill="#8BC5E4"/>
<path d="M216.792 227.275C216.818 227.19 216.844 227.115 216.879 227.035L164.917 197.035C164.882 197.115 164.857 197.19 164.831 197.275L216.792 227.275Z" fill="#8BC5E4"/>
<path d="M216.879 227.035C218.109 223.705 218.983 220.83 219.901 218.92L167.94 188.92C167.022 190.83 166.147 193.705 164.917 197.035L216.879 227.035Z" fill="#8BC5E4"/>
<path d="M219.901 218.92C220.802 217.02 221.321 216.19 223.149 215.135L171.187 185.135C169.36 186.19 168.84 187.02 167.939 188.92L219.901 218.92Z" fill="#8BC5E4"/>
<path d="M205.742 223.575C206.858 222.93 207.8 222.971 208.731 223.507L156.77 193.507C155.839 192.971 154.897 192.93 153.78 193.575L205.742 223.575Z" fill="#8BC5E4"/>
<path d="M208.726 223.504C209.035 223.681 209.344 223.913 209.657 224.193L157.696 194.193C157.383 193.913 157.074 193.681 156.765 193.504L208.726 223.504Z" fill="#8BC5E4"/>
<path d="M209.665 224.2C210.435 224.925 211.18 225.925 211.934 226.95L159.972 196.95C159.219 195.925 158.474 194.925 157.703 194.2L209.665 224.2Z" fill="#8BC5E4"/>
<path d="M211.834 227.219C210.743 230.165 209.685 233.023 208.643 235.11L156.681 205.11C157.723 203.023 158.782 200.165 159.872 197.219L211.834 227.219Z" fill="#8BC5E4"/>
<path d="M208.643 235.11C207.534 237.33 206.755 238.34 205.742 238.925L153.78 208.925C154.793 208.34 155.573 207.33 156.681 205.11L208.643 235.11Z" fill="#8BC5E4"/>
<path d="M205.742 238.925C205.004 239.351 204.435 239.394 203.752 238.999L151.79 208.999C152.473 209.394 153.042 209.351 153.78 208.925L205.742 238.925Z" fill="#8BC5E4"/>
<path d="M203.745 238.995C203.502 238.853 203.244 238.656 202.96 238.401L150.998 208.401C151.282 208.656 151.54 208.853 151.783 208.995L203.745 238.995Z" fill="#8BC5E4"/>
<path d="M202.953 238.395C201.896 237.475 200.797 235.75 199.541 234.065L147.579 204.065C148.835 205.75 149.935 207.475 150.991 208.395L202.953 238.395Z" fill="#8BC5E4"/>
<path d="M199.541 234.065C200.32 232.055 201.074 230.15 201.862 228.555L149.9 198.555C149.112 200.15 148.359 202.055 147.579 204.065L199.541 234.065Z" fill="#8BC5E4"/>
<path d="M201.862 228.555C203.083 226.06 204.209 224.46 205.741 223.575L153.78 193.575C152.247 194.46 151.121 196.06 149.9 198.555L201.862 228.555Z" fill="#8BC5E4"/>
<path d="M188.326 235.24C189.284 234.687 189.864 234.639 190.541 235.036L138.58 205.036C137.903 204.639 137.323 204.687 136.364 205.24L188.326 235.24Z" fill="#8BC5E4"/>
<path d="M190.537 235.033C190.753 235.159 190.978 235.33 191.229 235.545L139.268 205.545C139.017 205.33 138.792 205.159 138.576 205.033L190.537 235.033Z" fill="#8BC5E4"/>
<path d="M191.236 235.55C192.266 236.455 193.34 238.235 194.682 239.98L142.721 209.98C141.379 208.235 140.305 206.455 139.274 205.55L191.236 235.55Z" fill="#8BC5E4"/>
<path d="M194.682 239.98C194.682 239.99 194.691 239.995 194.691 240.025L142.73 210.025C142.73 209.995 142.721 209.99 142.721 209.98L194.682 239.98Z" fill="#8BC5E4"/>
<path d="M194.673 240.072C193.866 242.144 193.109 244.087 192.31 245.7L140.348 215.7C141.147 214.087 141.904 212.144 142.711 210.072L194.673 240.072Z" fill="#8BC5E4"/>
<path d="M192.31 245.7C191.132 248.08 190.049 249.605 188.326 250.6L136.364 220.6C138.088 219.605 139.17 218.08 140.348 215.7L192.31 245.7Z" fill="#8BC5E4"/>
<path d="M188.326 250.6C186.938 251.401 185.975 251.398 185.049 250.861L133.088 220.861C134.014 221.398 134.977 221.401 136.364 220.6L188.326 250.6Z" fill="#8BC5E4"/>
<path d="M185.04 250.856C184.809 250.721 184.58 250.553 184.348 250.356L132.387 220.356C132.619 220.553 132.848 220.721 133.079 220.856L185.04 250.856Z" fill="#8BC5E4"/>
<path d="M184.342 250.35C183.545 249.66 182.774 248.575 181.952 247.4L129.99 217.4C130.813 218.575 131.584 219.66 132.38 220.35L184.342 250.35Z" fill="#8BC5E4"/>
<path d="M181.952 247.4C181.969 247.36 181.986 247.31 182.004 247.27L130.042 217.27C130.025 217.31 130.008 217.36 129.99 217.4L181.952 247.4Z" fill="#8BC5E4"/>
<path d="M182.004 247.27C183.329 243.935 184.394 240.93 185.416 238.87L133.454 208.87C132.432 210.93 131.367 213.935 130.042 217.27L182.004 247.27Z" fill="#8BC5E4"/>
<path d="M185.416 238.87C186.446 236.815 187.044 235.98 188.326 235.24L136.364 205.24C135.082 205.98 134.485 206.815 133.454 208.87L185.416 238.87Z" fill="#8BC5E4"/>
<path d="M170.919 243.68C172.117 242.988 173.052 242.998 173.979 243.532L122.018 213.532C121.091 212.998 120.156 212.988 118.957 213.68L170.919 243.68Z" fill="#8BC5E4"/>
<path d="M173.974 243.529C174.245 243.684 174.515 243.884 174.791 244.124L122.83 214.124C122.554 213.884 122.284 213.684 122.013 213.529L173.974 243.529Z" fill="#8BC5E4"/>
<path d="M174.798 244.13C175.595 244.81 176.349 245.855 177.137 246.98L125.175 216.98C124.387 215.855 123.634 214.81 122.837 214.13L174.798 244.13Z" fill="#8BC5E4"/>
<path d="M177.137 246.98C175.881 250.175 174.772 253.185 173.716 255.335L121.754 225.335C122.811 223.185 123.919 220.175 125.175 216.98L177.137 246.98Z" fill="#8BC5E4"/>
<path d="M173.716 255.335C172.633 257.53 171.949 258.435 170.919 259.03L118.957 229.03C119.988 228.435 120.672 227.53 121.754 225.335L173.716 255.335Z" fill="#8BC5E4"/>
<path d="M170.919 259.03C170.238 259.423 169.632 259.449 168.912 259.031L116.951 229.031C117.671 229.449 118.277 229.423 118.957 229.03L170.919 259.03Z" fill="#8BC5E4"/>
<path d="M168.917 259.034C168.658 258.884 168.383 258.676 168.085 258.406L116.123 228.406C116.421 228.676 116.696 228.884 116.955 229.034L168.917 259.034Z" fill="#8BC5E4"/>
<path d="M168.078 258.4C166.996 257.425 165.922 255.725 164.727 254.175L112.765 224.175C113.96 225.725 115.034 227.425 116.117 228.4L168.078 258.4Z" fill="#8BC5E4"/>
<path d="M164.727 254.175C165.472 252.285 166.199 250.445 166.987 248.83L115.026 218.83C114.237 220.445 113.51 222.285 112.765 224.175L164.727 254.175Z" fill="#8BC5E4"/>
<path d="M166.987 248.83C168.243 246.265 169.429 244.54 170.919 243.68L118.957 213.68C117.468 214.54 116.281 216.265 115.025 218.83L166.987 248.83Z" fill="#8BC5E4"/>
<path d="M153.512 255.34C154.235 254.922 154.875 254.905 155.649 255.35L103.688 225.35C102.914 224.905 102.274 224.922 101.55 225.34L153.512 255.34Z" fill="#8BC5E4"/>
<path d="M155.644 255.347C155.87 255.476 156.108 255.645 156.362 255.855L104.401 225.855C104.147 225.645 103.909 225.476 103.683 225.347L155.644 255.347Z" fill="#8BC5E4"/>
<path d="M156.369 255.86C157.487 256.805 158.621 258.51 159.851 260.09L107.889 230.09C106.66 228.51 105.525 226.805 104.408 225.86L156.369 255.86Z" fill="#8BC5E4"/>
<path d="M159.851 260.09C159.054 262.08 158.266 264.015 157.435 265.675L105.473 235.675C106.305 234.015 107.093 232.08 107.889 230.09L159.851 260.09Z" fill="#8BC5E4"/>
<path d="M157.435 265.675C156.188 268.165 154.992 269.845 153.512 270.7L101.55 240.7C103.031 239.845 104.226 238.165 105.473 235.675L157.435 265.675Z" fill="#8BC5E4"/>
<path d="M153.512 270.7C152.147 271.488 151.172 271.492 150.18 270.924L98.219 240.924C99.211 241.492 100.186 241.488 101.55 240.7L153.512 270.7Z" fill="#8BC5E4"/>
<path d="M150.172 270.919C150.004 270.822 149.835 270.709 149.664 270.58L97.7029 240.58C97.8739 240.709 98.0429 240.822 98.2109 240.919L150.172 270.919Z" fill="#8BC5E4"/>
<path d="M149.658 270.575C148.818 269.93 147.986 268.85 147.112 267.565L95.1501 237.565C96.0248 238.85 96.8562 239.93 97.6962 240.575L149.658 270.575Z" fill="#8BC5E4"/>
<path d="M147.112 267.565C147.146 267.465 147.181 267.355 147.233 267.255L95.2713 237.255C95.2194 237.355 95.1847 237.465 95.1501 237.565L147.112 267.565Z" fill="#8BC5E4"/>
<path d="M147.233 267.255C148.541 263.72 149.675 260.725 150.706 258.76L98.744 228.76C97.7134 230.725 96.5789 233.72 95.2712 237.255L147.233 267.255Z" fill="#8BC5E4"/>
<path d="M150.706 258.76C151.728 256.79 152.342 256.015 153.512 255.34L101.55 225.34C100.381 226.015 99.766 226.79 98.7441 228.76L150.706 258.76Z" fill="#8BC5E4"/>
<path d="M136.096 263.785C136.944 263.295 138.005 263.325 139.176 263.998L87.215 233.998C86.044 233.325 84.983 233.295 84.1343 233.785L136.096 263.785Z" fill="#8BC5E4"/>
<path d="M139.17 263.994C139.313 264.076 139.458 264.168 139.605 264.27L87.643 234.27C87.496 234.168 87.351 234.076 87.208 233.994L139.17 263.994Z" fill="#8BC5E4"/>
<path d="M139.612 264.275C139.674 264.32 139.737 264.367 139.8 264.416L87.839 234.416C87.776 234.367 87.713 234.32 87.6504 234.275L139.612 264.275Z" fill="#8BC5E4"/>
<path d="M139.8 264.416C140.631 265.057 141.481 265.979 142.308 267.078L90.3469 237.078C89.5199 235.979 88.6699 235.057 87.8389 234.416L139.8 264.416Z" fill="#8BC5E4"/>
<path d="M142.314 267.085C141.075 270.39 139.768 273.495 138.581 275.7L86.6196 245.7C87.8061 243.495 89.1138 240.39 90.3522 237.085L142.314 267.085Z" fill="#8BC5E4"/>
<path d="M138.581 275.7C137.378 277.945 136.451 278.93 136.096 279.135L84.1343 249.135C84.4894 248.93 85.4161 247.945 86.6198 245.7L138.581 275.7Z" fill="#8BC5E4"/>
<path d="M136.096 279.135C136.111 279.126 135.098 279.175 133.951 278.511L81.99 248.511C83.137 249.175 84.15 249.126 84.1343 249.135L136.096 279.135Z" fill="#8BC5E4"/>
<path d="M133.951 278.511C133.787 278.416 133.621 278.306 133.454 278.18L81.4929 248.18C81.6599 248.306 81.8259 248.416 81.9899 248.511L133.951 278.511Z" fill="#8BC5E4"/>
<path d="M133.454 278.18C133.371 278.115 133.287 278.048 133.204 277.978L81.2429 247.978C81.3259 248.048 81.4099 248.115 81.4929 248.18L133.454 278.18Z" fill="#8BC5E4"/>
<path d="M133.204 277.979C132.032 277.003 130.856 275.571 129.935 274.313L77.9739 244.313C78.8949 245.571 80.0709 247.003 81.2429 247.979L133.204 277.979Z" fill="#8BC5E4"/>
<path d="M129.93 274.305C130.683 272.5 131.54 270.625 132.406 268.945L80.4449 238.945C79.5788 240.625 78.7215 242.5 77.968 244.305L129.93 274.305Z" fill="#8BC5E4"/>
<path d="M132.407 268.945C133.835 266.2 135.334 264.225 136.096 263.785L84.1343 233.785C83.3722 234.225 81.874 236.2 80.4451 238.945L132.407 268.945Z" fill="#8BC5E4"/>
<path d="M118.689 275.445C119.423 275.021 120.136 275.018 120.978 275.508L69.0169 245.508C68.1749 245.018 67.4619 245.021 66.7271 245.445L118.689 275.445Z" fill="#8BC5E4"/>
<path d="M120.974 275.505C121.193 275.633 121.421 275.793 121.661 275.989L69.6999 245.989C69.4599 245.793 69.2319 245.633 69.0129 245.505L120.974 275.505Z" fill="#8BC5E4"/>
<path d="M121.668 275.995C122.811 276.955 123.911 278.67 125.011 280.175L73.0491 250.175C71.9493 248.67 70.8494 246.955 69.7063 245.995L121.668 275.995Z" fill="#8BC5E4"/>
<path d="M125.011 280.175C125.019 280.19 125.037 280.21 125.063 280.235L73.1011 250.235C73.0751 250.21 73.0578 250.19 73.0491 250.175L125.011 280.175Z" fill="#8BC5E4"/>
<path d="M125.063 280.235C124.327 282.08 123.556 283.965 122.724 285.615L70.7629 255.615C71.5943 253.965 72.3651 252.08 73.1012 250.235L125.063 280.235Z" fill="#8BC5E4"/>
<path d="M122.724 285.615C121.46 288.145 120.178 289.945 118.689 290.805L66.7271 260.805C68.2167 259.945 69.4984 258.145 70.7628 255.615L122.724 285.615Z" fill="#8BC5E4"/>
<path d="M118.689 290.805C117.396 291.551 116.235 291.489 115.125 290.846L63.1638 260.846C64.2738 261.489 65.4348 261.551 66.727 260.805L118.689 290.805Z" fill="#8BC5E4"/>
<path d="M115.116 290.841C114.923 290.728 114.73 290.598 114.539 290.451L62.5779 260.451C62.7689 260.598 62.9619 260.728 63.1549 260.841L115.116 290.841Z" fill="#8BC5E4"/>
<path d="M114.532 290.445C114.476 290.402 114.42 290.358 114.365 290.312L62.4038 260.312C62.4588 260.358 62.5148 260.402 62.5701 260.445L114.532 290.445Z" fill="#8BC5E4"/>
<path d="M114.365 290.313C113.593 289.673 112.896 288.77 112.258 287.806L60.2969 257.806C60.9349 258.77 61.6319 259.673 62.4039 260.313L114.365 290.313Z" fill="#8BC5E4"/>
<path d="M112.254 287.8C112.332 287.595 112.401 287.375 112.471 287.175L60.5092 257.175C60.4399 257.375 60.3706 257.595 60.2927 257.8L112.254 287.8Z" fill="#8BC5E4"/>
<path d="M112.471 287.175C113.363 284.54 114.436 281.64 115.58 279.44L63.618 249.44C62.4748 251.64 61.401 254.54 60.509 257.175L112.471 287.175Z" fill="#8BC5E4"/>
<path d="M115.58 279.44C116.723 277.23 117.693 276.02 118.689 275.445L66.7272 245.445C65.7313 246.02 64.7614 247.23 63.6182 249.44L115.58 279.44Z" fill="#8BC5E4"/>
<path d="M101.282 283.885C102.577 283.137 103.691 283.187 104.743 283.802L52.782 253.802C51.73 253.187 50.616 253.137 49.3201 253.885L101.282 283.885Z" fill="#8BC5E4"/>
<path d="M104.737 283.798C104.986 283.943 105.231 284.119 105.474 284.324L53.5129 254.324C53.2699 254.119 53.0249 253.943 52.7759 253.798L104.737 283.798Z" fill="#8BC5E4"/>
<path d="M105.482 284.33C106.244 285 106.945 285.935 107.578 286.95L55.6161 256.95C54.9839 255.935 54.2824 255 53.5203 254.33L105.482 284.33Z" fill="#8BC5E4"/>
<path d="M107.578 286.95C107.552 287.025 107.526 287.11 107.491 287.21L55.5295 257.21C55.5642 257.11 55.5901 257.025 55.6161 256.95L107.578 286.95Z" fill="#8BC5E4"/>
<path d="M107.491 287.21C106.573 289.93 105.525 292.895 104.399 295.155L52.4377 265.155C53.5635 262.895 54.6114 259.93 55.5294 257.21L107.491 287.21Z" fill="#8BC5E4"/>
<path d="M104.399 295.155C103.273 297.405 102.355 298.615 101.282 299.235L49.3201 269.235C50.394 268.615 51.312 267.405 52.4378 265.155L104.399 295.155Z" fill="#8BC5E4"/>
<path d="M101.281 299.235C100.395 299.747 98.9053 299.748 97.6673 299.029L45.7058 269.029C46.9438 269.748 48.4338 269.747 49.3199 269.235L101.281 299.235Z" fill="#8BC5E4"/>
<path d="M97.6755 299.033C97.5705 298.972 97.4675 298.906 97.3665 298.835L45.405 268.835C45.506 268.906 45.609 268.972 45.714 269.033L97.6755 299.033Z" fill="#8BC5E4"/>
<path d="M97.3586 298.83C97.2975 298.787 97.2385 298.743 97.1795 298.696L45.218 268.696C45.277 268.743 45.336 268.787 45.397 268.83L97.3586 298.83Z" fill="#8BC5E4"/>
<path d="M97.1814 298.697C96.0034 297.756 95.3504 296.045 95.3404 295.654L43.3789 265.654C43.3889 266.045 44.0419 267.756 45.2199 268.697L97.1814 298.697Z" fill="#8BC5E4"/>
<path d="M93.9722 296.435C94.1108 295.135 94.9854 292.44 96.3278 289.935L44.3663 259.935C43.0239 262.44 42.1492 265.135 42.0107 266.435L93.9722 296.435Z" fill="#8BC5E4"/>
<path d="M96.328 289.935C97.8002 287.205 99.7228 284.785 101.282 283.885L49.3201 253.885C47.7613 254.785 45.8387 257.205 44.3665 259.935L96.328 289.935Z" fill="#8BC5E4"/>
<path d="M179.657 171.195L205.248 149.94L201.472 163.38L223.997 160.645L220.992 171.36L198.467 174.095L194.7 187.53L179.657 171.195ZM144.098 191.725L118.498 200.025L122.283 209.1L99.7487 232.38L102.754 239.625L125.279 216.35L129.055 225.43L144.098 191.725ZM162.302 181.145L147.813 214.95L158.171 208.97V237.19L166.433 232.42V204.2L176.799 198.215L162.302 181.145ZM162.302 110.625L143.613 144.245L151.762 139.54V178.92L172.85 166.745V127.365L180.999 122.66L162.302 110.625ZM223.149 215.135C226.864 212.99 229.081 215.18 229.081 218.43L230.475 217.625C230.475 218.295 229.704 221.31 228.319 224.07C226.933 226.84 225.097 229.37 223.149 230.495C221.079 231.69 220.014 231.315 218.914 230.22C218.178 229.495 217.519 228.395 216.792 227.275C216.818 227.19 216.844 227.115 216.879 227.035C218.108 223.705 218.983 220.83 219.901 218.92C220.802 217.02 221.321 216.19 223.149 215.135ZM188.326 235.24C189.59 234.51 190.196 234.66 191.236 235.55C192.266 236.455 193.34 238.235 194.682 239.98C194.682 239.99 194.691 239.995 194.691 240.025C194.685 240.041 194.679 240.056 194.673 240.072C193.865 242.144 193.109 244.087 192.309 245.7C191.132 248.08 190.049 249.605 188.326 250.6C186.585 251.605 185.511 251.345 184.342 250.35C183.545 249.66 182.775 248.575 181.952 247.4C181.969 247.36 181.986 247.31 182.004 247.27C183.329 243.935 184.394 240.93 185.416 238.87C186.447 236.815 187.044 235.98 188.326 235.24ZM153.512 255.34C154.447 254.8 155.244 254.93 156.369 255.86C157.487 256.805 158.621 258.51 159.851 260.09C159.054 262.08 158.266 264.015 157.435 265.675C156.188 268.165 154.992 269.845 153.512 270.7C151.909 271.625 150.844 271.47 149.658 270.575C148.818 269.93 147.986 268.85 147.112 267.565C147.146 267.465 147.181 267.355 147.233 267.255C148.541 263.72 149.675 260.725 150.706 258.76C151.728 256.79 152.342 256.015 153.512 255.34ZM118.689 275.445C119.615 274.91 120.507 275.045 121.668 275.995C122.811 276.955 123.911 278.67 125.011 280.175C125.019 280.19 125.037 280.21 125.063 280.235C124.327 282.08 123.556 283.965 122.724 285.615C121.46 288.145 120.178 289.945 118.689 290.805C117.164 291.685 115.822 291.44 114.532 290.445C113.692 289.8 112.938 288.835 112.254 287.8C112.332 287.595 112.401 287.375 112.471 287.175C113.363 284.54 114.436 281.64 115.58 279.44C116.723 277.23 117.693 276.02 118.689 275.445ZM205.742 223.575C207.231 222.715 208.409 223.075 209.665 224.2C210.435 224.925 211.18 225.925 211.934 226.95C211.9 227.04 211.867 227.13 211.834 227.22C210.743 230.165 209.685 233.023 208.643 235.11C207.534 237.33 206.755 238.34 205.742 238.925C204.737 239.505 204.044 239.375 202.953 238.395C201.896 237.475 200.797 235.75 199.541 234.065C200.32 232.055 201.074 230.15 201.862 228.555C203.083 226.06 204.209 224.46 205.742 223.575ZM170.919 243.68C172.469 242.785 173.577 243.065 174.798 244.13C175.595 244.81 176.349 245.855 177.137 246.98C175.881 250.175 174.772 253.185 173.716 255.335C172.633 257.53 171.949 258.435 170.919 259.03C169.992 259.565 169.204 259.42 168.078 258.4C166.996 257.425 165.922 255.725 164.727 254.175C165.471 252.285 166.199 250.445 166.987 248.83C168.243 246.265 169.429 244.54 170.919 243.68ZM136.096 263.785C137.048 263.235 138.27 263.34 139.612 264.275C140.504 264.92 141.422 265.9 142.314 267.085C141.075 270.39 139.768 273.495 138.581 275.7C137.378 277.945 136.451 278.93 136.096 279.135C136.113 279.125 134.788 279.19 133.454 278.18C132.199 277.205 130.917 275.655 129.93 274.305C130.683 272.5 131.54 270.625 132.407 268.945C133.835 266.2 135.334 264.225 136.096 263.785ZM101.282 283.885C102.884 282.96 104.209 283.255 105.482 284.33C106.244 285 106.945 285.935 107.578 286.95C107.552 287.025 107.526 287.11 107.491 287.21C106.573 289.93 105.525 292.895 104.399 295.155C103.273 297.405 102.355 298.615 101.282 299.235C100.32 299.79 98.6489 299.745 97.3585 298.83C96.0594 297.92 95.3406 296.035 95.3406 295.645L93.9723 296.435C94.1109 295.135 94.9856 292.44 96.3279 289.935C97.8001 287.205 99.7227 284.785 101.282 283.885ZM118.689 268.975C115.562 270.78 113.103 274.32 111.379 277.635C110.505 279.33 109.769 281.035 109.119 282.68C108.669 282.08 108.175 281.515 107.621 281.055C106.079 279.725 103.966 279.095 101.282 280.645C98.5276 282.235 96.0941 285.57 94.2841 288.935C92.5434 292.17 91.2963 295.46 91.1924 298.04L89.7981 298.845C89.7981 302.195 91.2876 304.165 93.2535 305.56C95.2367 306.945 97.9301 307.64 101.282 305.705C104.503 303.845 107.006 300.15 108.695 296.755C109.491 295.175 110.158 293.58 110.747 292.05C111.25 292.7 111.812 293.275 112.436 293.765C114.012 294.995 116.099 295.54 118.689 294.045C121.304 292.535 123.339 289.48 124.872 286.435C125.548 285.075 126.154 283.695 126.708 282.335C127.47 283.225 128.328 284.11 129.263 284.83C130.995 286.16 132.969 287.41 136.096 285.605C138.858 284.01 140.972 280.87 142.686 277.69C143.691 275.8 144.617 273.775 145.484 271.695C146.142 272.565 146.817 273.335 147.571 273.91C149.069 275.045 151.043 275.365 153.512 273.94C156.084 272.455 158.076 269.485 159.574 266.5C160.267 265.12 160.881 263.695 161.462 262.3C162.129 263.205 162.865 264.14 163.722 264.925C165.324 266.38 167.723 267.345 170.919 265.5C174.01 263.715 176.418 260.155 178.037 256.89C178.912 255.115 179.657 253.305 180.35 251.545C180.913 252.33 181.51 253.065 182.203 253.635C183.658 254.875 185.676 255.37 188.326 253.84C190.993 252.3 193.011 249.425 194.466 246.485C195.141 245.115 195.748 243.695 196.302 242.265C196.995 243.225 197.739 244.155 198.614 244.94C200.216 246.355 202.624 247.195 205.742 245.395C208.851 243.6 211.284 240.035 212.93 236.735C213.796 235.005 214.532 233.26 215.19 231.55C215.64 232.22 216.125 232.88 216.688 233.435C218.082 234.81 220.187 235.445 223.149 233.735C226.249 231.945 228.752 228.3 230.467 224.88C232.181 221.45 233.247 218.275 233.247 216.025L234.623 215.23C234.623 208.47 229.878 204.78 223.149 208.665C219.763 210.62 217.069 214.215 215.493 217.525C214.636 219.32 213.995 221.05 213.423 222.7C212.93 222.085 212.41 221.475 211.838 220.955C210.357 219.6 208.374 218.815 205.742 220.335C203.152 221.83 201.178 224.77 199.697 227.785C199.056 229.085 198.484 230.445 197.93 231.805C197.229 230.81 196.475 229.805 195.54 229.005C193.946 227.635 191.461 226.96 188.326 228.77C185.217 230.565 182.731 234.04 181.129 237.255C180.194 239.125 179.432 241.005 178.73 242.83C178.185 242.095 177.604 241.41 176.955 240.845C175.474 239.57 173.491 238.955 170.919 240.44C168.286 241.96 166.303 245.015 164.813 248.075C164.181 249.37 163.618 250.685 163.09 251.99C162.38 251.04 161.583 250.07 160.648 249.27C159.011 247.925 156.638 247.065 153.512 248.87C150.619 250.54 148.177 253.75 146.523 256.915C145.509 258.88 144.661 260.9 143.855 262.985C143.154 262.17 142.426 261.46 141.656 260.915C140.062 259.805 138.252 259.3 136.096 260.545C133.758 261.895 131.948 264.91 130.319 268.03C129.627 269.37 128.968 270.76 128.362 272.12C127.678 271.175 126.881 270.205 125.937 269.42C124.283 268.025 121.876 267.135 118.689 268.975ZM62.4317 147.315C56.6726 150.64 51.9614 158.85 51.9614 165.58V341.14C51.9614 347.87 56.6726 350.64 62.4317 347.315L263.194 231.405C268.944 228.085 273.664 219.87 273.664 213.14V37.5797C273.664 30.8497 268.944 28.0847 263.194 31.4047L62.4317 147.315ZM62.4317 152.825L263.194 36.9147C266.407 35.0597 268.927 36.5447 268.927 40.3147V215.875C268.927 219.645 266.407 224.04 263.194 225.895L62.4317 341.805C59.2101 343.665 56.6899 342.18 56.6899 338.41V162.85C56.6899 159.08 59.2101 154.685 62.4317 152.825Z" fill="#8BC5E4"/>
<path fill-rule="evenodd" clip-rule="evenodd" d="M62.4317 152.825L263.194 36.9147C266.407 35.0597 268.927 36.5447 268.927 40.3147V215.875C268.927 219.645 266.407 224.04 263.194 225.895L62.4317 341.805C59.2101 343.665 56.6899 342.18 56.6899 338.41V162.85C56.6899 159.08 59.2101 154.685 62.4317 152.825ZM205.248 149.94L179.657 171.195L194.7 187.53L198.467 174.095L220.992 171.36L223.997 160.645L201.472 163.38L205.248 149.94ZM118.498 200.025L144.098 191.725L129.055 225.43L125.279 216.35L102.754 239.625L99.7487 232.38L122.283 209.1L118.498 200.025ZM147.813 214.95L162.302 181.145L176.799 198.215L166.433 204.2V232.42L158.171 237.19V208.97L147.813 214.95ZM143.613 144.245L162.302 110.625L180.999 122.66L172.85 127.365V166.745L151.762 178.92V139.54L143.613 144.245ZM111.379 277.635C113.103 274.32 115.562 270.78 118.689 268.975C121.876 267.135 124.283 268.025 125.937 269.42C126.881 270.205 127.678 271.175 128.362 272.12C128.968 270.76 129.627 269.37 130.319 268.03C131.948 264.91 133.758 261.895 136.096 260.545C138.252 259.3 140.062 259.805 141.656 260.915C142.426 261.46 143.154 262.17 143.855 262.985C144.661 260.9 145.509 258.88 146.523 256.915C148.177 253.75 150.619 250.54 153.512 248.87C156.638 247.065 159.011 247.925 160.648 249.27C161.583 250.07 162.38 251.04 163.09 251.99C163.618 250.685 164.181 249.37 164.813 248.075C166.303 245.015 168.286 241.96 170.919 240.44C173.491 238.955 175.474 239.57 176.955 240.845C177.604 241.41 178.185 242.095 178.73 242.83C179.432 241.005 180.194 239.125 181.129 237.255C182.731 234.04 185.217 230.565 188.326 228.77C191.461 226.96 193.946 227.635 195.54 229.005C196.475 229.805 197.229 230.81 197.93 231.805C198.484 230.445 199.056 229.085 199.697 227.785C201.178 224.77 203.152 221.83 205.742 220.335C208.374 218.815 210.357 219.6 211.838 220.955C212.41 221.475 212.93 222.085 213.423 222.7C213.995 221.05 214.636 219.32 215.493 217.525C217.069 214.215 219.763 210.62 223.149 208.665C229.878 204.78 234.623 208.47 234.623 215.23L233.247 216.025C233.247 218.275 232.181 221.45 230.467 224.88C228.752 228.3 226.249 231.945 223.149 233.735C220.187 235.445 218.082 234.81 216.688 233.435C216.125 232.88 215.64 232.22 215.19 231.55C214.532 233.26 213.796 235.005 212.93 236.735C211.284 240.035 208.851 243.6 205.742 245.395C202.624 247.195 200.216 246.355 198.614 244.94C197.739 244.155 196.995 243.225 196.302 242.265C195.748 243.695 195.141 245.115 194.466 246.485C193.011 249.425 190.993 252.3 188.326 253.84C185.676 255.37 183.658 254.875 182.203 253.635C181.51 253.065 180.913 252.33 180.35 251.545C179.657 253.305 178.912 255.115 178.037 256.89C176.418 260.155 174.01 263.715 170.919 265.5C167.723 267.345 165.324 266.38 163.722 264.925C162.865 264.14 162.129 263.205 161.462 262.3C160.881 263.695 160.267 265.12 159.574 266.5C158.076 269.485 156.084 272.455 153.512 273.94C151.043 275.365 149.069 275.045 147.571 273.91C146.817 273.335 146.142 272.565 145.484 271.695C144.617 273.775 143.691 275.8 142.686 277.69C140.972 280.87 138.858 284.01 136.096 285.605C132.969 287.41 130.995 286.16 129.263 284.83C128.328 284.11 127.47 283.225 126.708 282.335C126.154 283.695 125.548 285.075 124.872 286.435C123.339 289.48 121.304 292.535 118.689 294.045C116.099 295.54 114.012 294.995 112.436 293.765C111.812 293.275 111.25 292.7 110.747 292.05C110.158 293.58 109.491 295.175 108.695 296.755C107.006 300.15 104.503 303.845 101.282 305.705C97.9301 307.64 95.2367 306.945 93.2535 305.56C91.2876 304.165 89.7981 302.195 89.7981 298.845L91.1924 298.04C91.2963 295.46 92.5434 292.17 94.2841 288.935C96.0941 285.57 98.5276 282.235 101.282 280.645C103.966 279.095 106.079 279.725 107.621 281.055C108.175 281.515 108.669 282.08 109.119 282.68C109.769 281.035 110.505 279.33 111.379 277.635Z" fill="white"/>
<path d="M223.149 215.135C226.864 212.99 229.081 215.18 229.081 218.43L230.475 217.625C230.475 218.295 229.704 221.31 228.319 224.07C226.933 226.84 225.097 229.37 223.149 230.495C221.079 231.69 220.014 231.315 218.914 230.22C218.178 229.495 217.519 228.395 216.792 227.275C216.818 227.19 216.844 227.115 216.879 227.035C218.108 223.705 218.983 220.83 219.901 218.92C220.802 217.02 221.321 216.19 223.149 215.135Z" fill="white"/>
<path d="M205.742 223.575C207.231 222.715 208.409 223.075 209.665 224.2C210.435 224.925 211.18 225.925 211.934 226.95L211.834 227.22C210.743 230.165 209.685 233.023 208.643 235.11C207.534 237.33 206.755 238.34 205.742 238.925C204.737 239.505 204.044 239.375 202.953 238.395C201.896 237.475 200.797 235.75 199.541 234.065C200.32 232.055 201.074 230.15 201.862 228.555C203.083 226.06 204.209 224.46 205.742 223.575Z" fill="white"/>
<path d="M188.326 235.24C189.59 234.51 190.196 234.66 191.236 235.55C192.266 236.455 193.34 238.235 194.682 239.98C194.682 239.99 194.691 239.995 194.691 240.025L194.673 240.072C193.865 242.144 193.109 244.087 192.309 245.7C191.132 248.08 190.049 249.605 188.326 250.6C186.585 251.605 185.511 251.345 184.342 250.35C183.545 249.66 182.775 248.575 181.952 247.4C181.969 247.36 181.986 247.31 182.004 247.27C183.329 243.935 184.394 240.93 185.416 238.87C186.447 236.815 187.044 235.98 188.326 235.24Z" fill="white"/>
<path d="M170.919 243.68C172.469 242.785 173.577 243.065 174.798 244.13C175.595 244.81 176.349 245.855 177.137 246.98C175.881 250.175 174.772 253.185 173.716 255.335C172.633 257.53 171.949 258.435 170.919 259.03C169.992 259.565 169.204 259.42 168.078 258.4C166.996 257.425 165.922 255.725 164.727 254.175C165.471 252.285 166.199 250.445 166.987 248.83C168.243 246.265 169.429 244.54 170.919 243.68Z" fill="white"/>
<path d="M153.512 255.34C154.447 254.8 155.244 254.93 156.369 255.86C157.487 256.805 158.621 258.51 159.851 260.09C159.054 262.08 158.266 264.015 157.435 265.675C156.188 268.165 154.992 269.845 153.512 270.7C151.909 271.625 150.844 271.47 149.658 270.575C148.818 269.93 147.986 268.85 147.112 267.565C147.146 267.465 147.181 267.355 147.233 267.255C148.541 263.72 149.675 260.725 150.706 258.76C151.728 256.79 152.342 256.015 153.512 255.34Z" fill="white"/>
<path d="M136.096 263.785C137.048 263.235 138.27 263.34 139.612 264.275C140.504 264.92 141.422 265.9 142.314 267.085C141.075 270.39 139.768 273.495 138.581 275.7C137.378 277.945 136.451 278.93 136.096 279.135C136.113 279.125 134.788 279.19 133.454 278.18C132.199 277.205 130.917 275.655 129.93 274.305C130.683 272.5 131.54 270.625 132.407 268.945C133.835 266.2 135.334 264.225 136.096 263.785Z" fill="white"/>
<path d="M118.689 275.445C119.615 274.91 120.507 275.045 121.668 275.995C122.811 276.955 123.911 278.67 125.011 280.175C125.019 280.19 125.037 280.21 125.063 280.235C124.327 282.08 123.556 283.965 122.724 285.615C121.46 288.145 120.178 289.945 118.689 290.805C117.164 291.685 115.822 291.44 114.532 290.445C113.692 289.8 112.938 288.835 112.254 287.8C112.332 287.595 112.401 287.375 112.471 287.175C113.363 284.54 114.436 281.64 115.58 279.44C116.723 277.23 117.693 276.02 118.689 275.445Z" fill="white"/>
<path d="M101.282 283.885C102.884 282.96 104.209 283.255 105.482 284.33C106.244 285 106.945 285.935 107.578 286.95C107.552 287.025 107.526 287.11 107.491 287.21C106.573 289.93 105.525 292.895 104.399 295.155C103.273 297.405 102.355 298.615 101.282 299.235C100.32 299.79 98.6489 299.745 97.3585 298.83C96.0594 297.92 95.3406 296.035 95.3406 295.645L93.9723 296.435C94.1109 295.135 94.9856 292.44 96.3279 289.935C97.8001 287.205 99.7227 284.785 101.282 283.885Z" fill="white"/>
</svg>
