<svg width="245" height="202" viewBox="0 0 245 202" fill="none" xmlns="http://www.w3.org/2000/svg">
<path fill-rule="evenodd" clip-rule="evenodd" d="M77.43 32.545L61.1055 23.12V83.12L77.43 92.545V32.545Z" fill="#8BC5E4"/>
<path fill-rule="evenodd" clip-rule="evenodd" d="M61.1047 23.12L40.043 35.28V95.28L61.1047 83.12V23.12Z" fill="#8BC5E4"/>
<path fill-rule="evenodd" clip-rule="evenodd" d="M40.043 35.28L56.3675 44.705V104.705L40.043 95.28V35.28Z" fill="#8BC5E4"/>
<path fill-rule="evenodd" clip-rule="evenodd" d="M167.496 108.865L183.821 118.29V178.29L167.496 168.865V108.865Z" fill="#8BC5E4"/>
<path fill-rule="evenodd" clip-rule="evenodd" d="M183.82 118.29L204.882 106.13V166.13L183.82 178.29V118.29Z" fill="#8BC5E4"/>
<path fill-rule="evenodd" clip-rule="evenodd" d="M204.882 106.13L188.558 96.705V156.705L204.882 166.13V106.13Z" fill="#8BC5E4"/>
<path fill-rule="evenodd" clip-rule="evenodd" d="M182.288 93.085L161.287 80.96V140.96L182.288 153.085V93.085Z" fill="#8BC5E4"/>
<path fill-rule="evenodd" clip-rule="evenodd" d="M161.286 80.96L140.225 93.12V153.12L161.286 140.96V80.96Z" fill="#8BC5E4"/>
<path fill-rule="evenodd" clip-rule="evenodd" d="M140.225 93.12L161.226 105.245V165.245L140.225 153.12V93.12Z" fill="#8BC5E4"/>
<path fill-rule="evenodd" clip-rule="evenodd" d="M62.6377 48.325L83.6388 60.45V120.45L62.6377 108.325V48.325Z" fill="#8BC5E4"/>
<path fill-rule="evenodd" clip-rule="evenodd" d="M83.6387 60.45L104.7 48.29V108.29L83.6387 120.45V60.45Z" fill="#8BC5E4"/>
<path fill-rule="evenodd" clip-rule="evenodd" d="M104.7 48.29L83.6992 36.165V96.165L104.7 108.29V48.29Z" fill="#8BC5E4"/>
<path fill-rule="evenodd" clip-rule="evenodd" d="M178.997 38.055C151.406 22.125 108.546 20.29 77.4297 32.545V92.545C108.546 80.29 151.406 82.125 178.997 98.055V38.055Z" fill="#8BC5E4"/>
<path fill-rule="evenodd" clip-rule="evenodd" d="M56.3681 44.705C47.8776 51.891 43.2918 60.1618 42.6113 68.5193V128.519C43.2918 120.162 47.8776 111.891 56.3681 104.705V44.705Z" fill="#8BC5E4"/>
<path fill-rule="evenodd" clip-rule="evenodd" d="M42.6114 68.5193C41.5907 81.0556 49.3568 93.787 65.9118 103.345V163.345C49.3568 153.787 41.5907 141.056 42.6114 128.519V68.5193Z" fill="#8BC5E4"/>
<path fill-rule="evenodd" clip-rule="evenodd" d="M65.9111 103.345C93.5114 119.28 136.371 121.115 167.496 108.865V168.865C136.371 181.115 93.5114 179.28 65.9111 163.345V103.345Z" fill="#8BC5E4"/>
<path fill-rule="evenodd" clip-rule="evenodd" d="M188.558 96.705C197.045 89.517 201.63 81.2458 202.31 72.8879V132.888C201.63 141.246 197.045 149.517 188.558 156.705V96.705Z" fill="#8BC5E4"/>
<path fill-rule="evenodd" clip-rule="evenodd" d="M202.31 72.8879C203.33 60.351 195.562 47.619 178.997 38.055V98.055C195.562 107.619 203.33 120.351 202.31 132.888V72.8879Z" fill="#8BC5E4"/>
<path fill-rule="evenodd" clip-rule="evenodd" d="M172.849 41.605C186.438 49.4506 193.397 59.6498 193.738 69.9081V129.908C193.397 119.65 186.438 109.451 172.849 101.605V41.605Z" fill="#8BC5E4"/>
<path fill-rule="evenodd" clip-rule="evenodd" d="M193.738 69.9081C194.006 77.9682 190.187 86.0648 182.288 93.085V153.085C190.187 146.065 194.006 137.968 193.738 129.908V69.9081Z" fill="#8BC5E4"/>
<path fill-rule="evenodd" clip-rule="evenodd" d="M161.227 105.245C133.592 115.61 96.3266 113.805 72.0605 99.795V159.795C96.3266 173.805 133.592 175.61 161.227 165.245V105.245Z" fill="#8BC5E4"/>
<path fill-rule="evenodd" clip-rule="evenodd" d="M72.06 99.795C58.4808 91.955 51.5255 81.7583 51.1865 71.5011V131.501C51.5255 141.758 58.4808 151.955 72.06 159.795V99.795Z" fill="#8BC5E4"/>
<path fill-rule="evenodd" clip-rule="evenodd" d="M51.1869 71.5011C50.9205 63.4418 54.7388 55.3452 62.638 48.325V108.325C54.7388 115.345 50.9205 123.442 51.1869 131.501V71.5011Z" fill="#8BC5E4"/>
<path fill-rule="evenodd" clip-rule="evenodd" d="M83.6992 36.165C111.334 25.8 148.599 27.605 172.848 41.605V101.605C148.599 87.605 111.334 85.8 83.6992 96.165V36.165Z" fill="#8BC5E4"/>
<path fill-rule="evenodd" clip-rule="evenodd" d="M206.857 21.97C229.242 34.894 240.883 51.6646 241.78 68.5878V128.588C240.883 111.665 229.242 94.894 206.857 81.97V21.97Z" fill="#8BC5E4"/>
<path fill-rule="evenodd" clip-rule="evenodd" d="M241.779 68.5878C242.751 86.9214 231.115 105.434 206.874 119.43V179.43C231.115 165.434 242.751 146.921 241.779 128.588V68.5878Z" fill="#8BC5E4"/>
<path fill-rule="evenodd" clip-rule="evenodd" d="M206.875 119.43C160.239 146.355 84.6872 146.355 38.0518 119.43V179.43C84.6872 206.355 160.239 206.355 206.875 179.43V119.43Z" fill="#8BC5E4"/>
<path fill-rule="evenodd" clip-rule="evenodd" d="M38.0513 119.43C15.6745 106.511 4.03866 89.7428 3.14551 72.8197V132.82C4.03866 149.743 15.6745 166.511 38.0513 179.43V119.43Z" fill="#8BC5E4"/>
<path fill-rule="evenodd" clip-rule="evenodd" d="M3.14554 72.8197C2.17796 54.4864 13.8182 35.971 38.0686 21.97V81.97C13.8182 95.971 2.17796 114.486 3.14554 132.82V72.8197Z" fill="#8BC5E4"/>
<path fill-rule="evenodd" clip-rule="evenodd" d="M38.0684 21.97C84.6865 -4.945 160.239 -4.945 206.857 21.97V81.97C160.239 55.055 84.6865 55.055 38.0684 81.97V21.97Z" fill="#8BC5E4"/>
<path fill-rule="evenodd" clip-rule="evenodd" d="M209.057 20.7C161.252 -6.9 83.6737 -6.9 35.8691 20.7V80.7C83.6737 53.1 161.252 53.1 209.057 80.7V20.7Z" fill="#8BC5E4"/>
<path fill-rule="evenodd" clip-rule="evenodd" d="M35.8686 20.7C12.9141 33.9528 0.977714 51.1639 0.0576172 68.5322V128.532C0.977714 111.164 12.9141 93.9528 35.8686 80.7V20.7Z" fill="#8BC5E4"/>
<path fill-rule="evenodd" clip-rule="evenodd" d="M0.0576363 68.5322C-0.939136 87.3478 10.9929 106.348 35.8513 120.7V180.7C10.9929 166.348 -0.939136 147.348 0.0576363 128.532V68.5322Z" fill="#8BC5E4"/>
<path fill-rule="evenodd" clip-rule="evenodd" d="M35.8516 120.7C83.6735 148.31 161.252 148.31 209.074 120.7V180.7C161.252 208.31 83.6735 208.31 35.8516 180.7V120.7Z" fill="#8BC5E4"/>
<path fill-rule="evenodd" clip-rule="evenodd" d="M209.074 120.7C232.02 107.452 243.952 90.2434 244.868 72.8753V132.875C243.952 150.243 232.02 167.452 209.074 180.7V120.7Z" fill="#8BC5E4"/>
<path fill-rule="evenodd" clip-rule="evenodd" d="M244.868 72.8753C245.86 54.0599 233.924 35.0572 209.057 20.7V80.7C233.924 95.0572 245.86 114.06 244.868 132.875V72.8753Z" fill="#8BC5E4"/>
<path d="M178.997 38.055C151.405 22.125 108.545 20.29 77.4292 32.545L61.1046 23.12L40.0428 35.28L56.3674 44.705C35.1411 62.67 38.3195 87.415 65.911 103.345C93.5113 119.28 136.371 121.115 167.496 108.865L183.82 118.29L204.882 106.13L188.558 96.705C209.775 78.735 206.606 53.995 178.997 38.055ZM172.848 41.605C197.114 55.615 200.24 77.13 182.288 93.085L161.286 80.96L140.225 93.12L161.226 105.245C133.591 115.61 96.3258 113.805 72.0598 99.795C47.8111 85.795 44.6847 64.28 62.6375 48.325L83.6386 60.45L104.7 48.29L83.6992 36.165C111.334 25.8 148.599 27.605 172.848 41.605ZM206.857 21.97C253.492 48.895 253.492 92.515 206.874 119.43C160.239 146.355 84.6864 146.355 38.051 119.43C-8.56717 92.515 -8.56715 48.895 38.0683 21.97C84.6865 -4.945 160.239 -4.945 206.857 21.97ZM209.056 20.7C161.252 -6.9 83.6732 -6.9 35.8686 20.7C-11.9533 48.31 -11.9533 93.1 35.8513 120.7C83.6732 148.31 161.252 148.31 209.074 120.7C256.878 93.1 256.878 48.31 209.056 20.7Z" fill="#8BC5E4"/>
<path fill-rule="evenodd" clip-rule="evenodd" d="M206.857 21.97C253.492 48.895 253.492 92.515 206.874 119.43C160.239 146.355 84.6864 146.355 38.051 119.43C-8.56717 92.515 -8.56715 48.895 38.0683 21.97C84.6865 -4.945 160.239 -4.945 206.857 21.97ZM77.4292 32.545C108.545 20.29 151.405 22.125 178.997 38.055C206.606 53.995 209.775 78.735 188.558 96.705L204.882 106.13L183.82 118.29L167.496 108.865C136.371 121.115 93.5113 119.28 65.911 103.345C38.3195 87.415 35.1411 62.67 56.3674 44.705L40.0428 35.28L61.1046 23.12L77.4292 32.545Z" fill="white"/>
<path d="M172.848 41.605C197.114 55.615 200.24 77.13 182.288 93.085L161.286 80.96L140.225 93.12L161.226 105.245C133.591 115.61 96.3258 113.805 72.0598 99.795C47.8111 85.795 44.6847 64.28 62.6375 48.325L83.6386 60.45L104.7 48.29L83.6992 36.165C111.334 25.8 148.599 27.605 172.848 41.605Z" fill="white"/>
</svg>
