<svg width="245" height="202" viewBox="0 0 245 202" fill="none" xmlns="http://www.w3.org/2000/svg">
<path fill-rule="evenodd" clip-rule="evenodd" d="M160.058 34.1851L146.92 41.7701V101.77L160.058 94.1851V34.1851Z" fill="#8BC5E4"/>
<path fill-rule="evenodd" clip-rule="evenodd" d="M146.92 49.39L150.505 51.46V111.46L146.92 109.39V49.39Z" fill="#8BC5E4"/>
<path fill-rule="evenodd" clip-rule="evenodd" d="M150.505 51.46L133.938 61.025V121.025L150.505 111.46V51.46Z" fill="#8BC5E4"/>
<path fill-rule="evenodd" clip-rule="evenodd" d="M133.938 61.025L81.249 30.605V90.605L133.938 121.025V61.025Z" fill="#8BC5E4"/>
<path fill-rule="evenodd" clip-rule="evenodd" d="M67.7038 30.605L55.0771 37.895V97.895L67.7038 90.605V30.605Z" fill="#8BC5E4"/>
<path fill-rule="evenodd" clip-rule="evenodd" d="M55.0771 45.715L62.6982 50.115V110.115L55.0771 105.715V45.715Z" fill="#8BC5E4"/>
<path fill-rule="evenodd" clip-rule="evenodd" d="M62.699 50.115L46.5303 59.45V119.45L62.699 110.115V50.115Z" fill="#8BC5E4"/>
<path fill-rule="evenodd" clip-rule="evenodd" d="M52.3232 62.785L68.4833 53.455V113.455L52.3232 122.785V62.785Z" fill="#8BC5E4"/>
<path fill-rule="evenodd" clip-rule="evenodd" d="M68.4834 53.455L92.7494 67.465V127.465L68.4834 113.455V53.455Z" fill="#8BC5E4"/>
<path fill-rule="evenodd" clip-rule="evenodd" d="M92.7497 67.465L76.5811 76.8V136.8L92.7497 127.465V67.465Z" fill="#8BC5E4"/>
<path fill-rule="evenodd" clip-rule="evenodd" d="M82.375 80.1351L98.535 70.8051V130.805L82.375 140.135V80.1351Z" fill="#8BC5E4"/>
<path fill-rule="evenodd" clip-rule="evenodd" d="M98.5342 70.8051L122.8 84.8151V144.815L98.5342 130.805V70.8051Z" fill="#8BC5E4"/>
<path fill-rule="evenodd" clip-rule="evenodd" d="M122.801 84.8149L106.632 94.1499V154.15L122.801 144.815V84.8149Z" fill="#8BC5E4"/>
<path fill-rule="evenodd" clip-rule="evenodd" d="M112.426 97.485L128.586 88.155V148.155L112.426 157.485V97.485Z" fill="#8BC5E4"/>
<path fill-rule="evenodd" clip-rule="evenodd" d="M128.586 88.155L152.843 102.16V162.16L128.586 148.155V88.155Z" fill="#8BC5E4"/>
<path fill-rule="evenodd" clip-rule="evenodd" d="M152.843 102.16L136.675 111.495V171.495L152.843 162.16V102.16Z" fill="#8BC5E4"/>
<path fill-rule="evenodd" clip-rule="evenodd" d="M142.477 114.835L158.637 105.505V165.505L142.477 174.835V114.835Z" fill="#8BC5E4"/>
<path fill-rule="evenodd" clip-rule="evenodd" d="M158.637 105.505L166.258 109.905V169.905L158.637 165.505V105.505Z" fill="#8BC5E4"/>
<path fill-rule="evenodd" clip-rule="evenodd" d="M179.803 109.905L192.429 102.615V162.615L179.803 169.905V109.905Z" fill="#8BC5E4"/>
<path fill-rule="evenodd" clip-rule="evenodd" d="M192.429 94.795L139.74 64.375V124.375L192.429 154.795V94.795Z" fill="#8BC5E4"/>
<path fill-rule="evenodd" clip-rule="evenodd" d="M139.74 64.3751L156.307 54.8101V114.81L139.74 124.375V64.3751Z" fill="#8BC5E4"/>
<path fill-rule="evenodd" clip-rule="evenodd" d="M156.308 54.8101L159.893 56.8801V116.88L156.308 114.81V54.8101Z" fill="#8BC5E4"/>
<path fill-rule="evenodd" clip-rule="evenodd" d="M173.091 56.88L186.228 49.295V109.295L173.091 116.88V56.88Z" fill="#8BC5E4"/>
<path fill-rule="evenodd" clip-rule="evenodd" d="M186.246 41.665L173.272 34.175V94.175L186.246 101.665V41.665Z" fill="#8BC5E4"/>
<path fill-rule="evenodd" clip-rule="evenodd" d="M173.272 34.175C169.618 32.065 163.729 32.065 160.057 34.185V94.185C163.729 92.065 169.618 92.065 173.272 94.175V34.175Z" fill="#8BC5E4"/>
<path fill-rule="evenodd" clip-rule="evenodd" d="M146.919 41.77C145.165 42.7828 144.253 44.0928 144.183 45.4147V105.415C144.253 104.093 145.165 102.783 146.919 101.77V41.77Z" fill="#8BC5E4"/>
<path fill-rule="evenodd" clip-rule="evenodd" d="M144.183 45.4147C144.107 46.8467 145.019 48.2928 146.92 49.39V109.39C145.019 108.293 144.107 106.847 144.183 105.415V45.4147Z" fill="#8BC5E4"/>
<path fill-rule="evenodd" clip-rule="evenodd" d="M81.2487 30.605C77.5075 28.445 71.454 28.44 67.7041 30.605V90.605C71.454 88.44 77.5075 88.445 81.2487 90.605V30.605Z" fill="#8BC5E4"/>
<path fill-rule="evenodd" clip-rule="evenodd" d="M55.0773 37.895C53.2773 38.9342 52.3433 40.2799 52.2725 41.6372V101.637C52.3433 100.28 53.2773 98.9342 55.0773 97.895V37.895Z" fill="#8BC5E4"/>
<path fill-rule="evenodd" clip-rule="evenodd" d="M52.2729 41.6372C52.1961 43.1077 53.1323 44.5918 55.0777 45.715V105.715C53.1323 104.592 52.1961 103.108 52.2729 101.637V41.6372Z" fill="#8BC5E4"/>
<path fill-rule="evenodd" clip-rule="evenodd" d="M46.5302 59.45C41.6112 58.05 35.6962 58.605 31.8164 60.835V120.835C35.6962 118.605 41.6112 118.05 46.5302 119.45V59.45Z" fill="#8BC5E4"/>
<path fill-rule="evenodd" clip-rule="evenodd" d="M31.8159 60.835C29.4174 62.2198 28.1702 64.0181 28.0742 65.833V125.833C28.1702 124.018 29.4174 122.22 31.8159 120.835V60.835Z" fill="#8BC5E4"/>
<path fill-rule="evenodd" clip-rule="evenodd" d="M28.0744 65.8331C27.9704 67.7993 29.2177 69.7849 31.8161 71.2851V131.285C29.2177 129.785 27.9704 127.799 28.0744 125.833V65.8331Z" fill="#8BC5E4"/>
<path fill-rule="evenodd" clip-rule="evenodd" d="M31.8164 71.285C36.8134 74.17 44.9107 74.165 49.9077 71.28V131.28C44.9107 134.165 36.8134 134.17 31.8164 131.285V71.285Z" fill="#8BC5E4"/>
<path fill-rule="evenodd" clip-rule="evenodd" d="M49.9072 71.2801C52.2351 69.9361 53.5123 68.1691 53.6379 66.3571V126.357C53.5123 128.169 52.2351 129.936 49.9072 131.28V71.2801Z" fill="#8BC5E4"/>
<path fill-rule="evenodd" clip-rule="evenodd" d="M53.6377 66.357C53.7214 65.149 53.2932 63.921 52.3232 62.785V122.785C53.2932 123.921 53.7214 125.149 53.6377 126.357V66.357Z" fill="#8BC5E4"/>
<path fill-rule="evenodd" clip-rule="evenodd" d="M76.581 76.8C71.6619 75.4 65.747 75.955 61.8672 78.185V138.185C65.747 135.955 71.6619 135.4 76.581 136.8V76.8Z" fill="#8BC5E4"/>
<path fill-rule="evenodd" clip-rule="evenodd" d="M61.8667 78.1851C59.4682 79.5699 58.2209 81.3682 58.125 83.1831V143.183C58.2209 141.368 59.4682 139.57 61.8667 138.185V78.1851Z" fill="#8BC5E4"/>
<path fill-rule="evenodd" clip-rule="evenodd" d="M58.1251 83.1831C58.0212 85.1493 59.2684 87.1348 61.8669 88.635V148.635C59.2684 147.135 58.0212 145.149 58.1251 143.183V83.1831Z" fill="#8BC5E4"/>
<path fill-rule="evenodd" clip-rule="evenodd" d="M61.8672 88.635C66.8642 91.52 74.9701 91.52 79.9671 88.635V148.635C74.9701 151.52 66.8642 151.52 61.8672 148.635V88.635Z" fill="#8BC5E4"/>
<path fill-rule="evenodd" clip-rule="evenodd" d="M79.9668 88.635C82.2947 87.291 83.5719 85.524 83.6956 83.7109V143.711C83.5719 145.524 82.2947 147.291 79.9668 148.635V88.635Z" fill="#8BC5E4"/>
<path fill-rule="evenodd" clip-rule="evenodd" d="M83.6962 83.7109C83.7787 82.5022 83.3484 81.273 82.375 80.135V140.135C83.3484 141.273 83.7787 142.502 83.6962 143.711V83.7109Z" fill="#8BC5E4"/>
<path fill-rule="evenodd" clip-rule="evenodd" d="M106.632 94.15C101.713 92.75 95.7978 93.305 91.918 95.535V155.535C95.7978 153.305 101.713 152.75 106.632 154.15V94.15Z" fill="#8BC5E4"/>
<path fill-rule="evenodd" clip-rule="evenodd" d="M91.9185 95.535C89.5199 96.9198 88.2727 98.7182 88.1768 100.533V160.533C88.2727 158.718 89.5199 156.92 91.9185 155.535V95.535Z" fill="#8BC5E4"/>
<path fill-rule="evenodd" clip-rule="evenodd" d="M88.1769 100.533C88.073 102.499 89.3202 104.485 91.9186 105.985V165.985C89.3202 164.485 88.073 162.499 88.1769 160.533V100.533Z" fill="#8BC5E4"/>
<path fill-rule="evenodd" clip-rule="evenodd" d="M91.918 105.985C96.9149 108.87 105.021 108.87 110.018 105.985V165.985C105.021 168.87 96.9149 168.87 91.918 165.985V105.985Z" fill="#8BC5E4"/>
<path fill-rule="evenodd" clip-rule="evenodd" d="M110.019 105.985C112.341 104.638 113.616 102.87 113.741 101.057V161.057C113.616 162.87 112.341 164.638 110.019 165.985V105.985Z" fill="#8BC5E4"/>
<path fill-rule="evenodd" clip-rule="evenodd" d="M113.741 101.057C113.824 99.849 113.396 98.621 112.426 97.485V157.485C113.396 158.621 113.824 159.849 113.741 161.057V101.057Z" fill="#8BC5E4"/>
<path fill-rule="evenodd" clip-rule="evenodd" d="M136.674 111.495C131.764 110.1 125.849 110.655 121.978 112.89V172.89C125.849 170.655 131.764 170.1 136.674 171.495V111.495Z" fill="#8BC5E4"/>
<path fill-rule="evenodd" clip-rule="evenodd" d="M121.978 112.89C119.58 114.275 118.33 116.072 118.232 117.886V177.886C118.33 176.072 119.58 174.275 121.978 172.89V112.89Z" fill="#8BC5E4"/>
<path fill-rule="evenodd" clip-rule="evenodd" d="M118.232 117.886C118.126 119.851 119.371 121.835 121.969 123.335V183.335C119.371 181.835 118.126 179.851 118.232 177.886V117.886Z" fill="#8BC5E4"/>
<path fill-rule="evenodd" clip-rule="evenodd" d="M121.97 123.335C126.967 126.22 135.073 126.22 140.07 123.335V183.335C135.073 186.22 126.967 186.22 121.97 183.335V123.335Z" fill="#8BC5E4"/>
<path fill-rule="evenodd" clip-rule="evenodd" d="M140.069 123.335C142.397 121.991 143.674 120.224 143.798 118.411V178.411C143.674 180.224 142.397 181.991 140.069 183.335V123.335Z" fill="#8BC5E4"/>
<path fill-rule="evenodd" clip-rule="evenodd" d="M143.798 118.411C143.88 117.202 143.45 115.973 142.477 114.835V174.835C143.45 175.973 143.88 177.202 143.798 178.411V118.411Z" fill="#8BC5E4"/>
<path fill-rule="evenodd" clip-rule="evenodd" d="M166.258 109.905C169.999 112.065 176.053 112.07 179.802 109.905V169.905C176.053 172.07 169.999 172.065 166.258 169.905V109.905Z" fill="#8BC5E4"/>
<path fill-rule="evenodd" clip-rule="evenodd" d="M192.429 102.615C194.229 101.576 195.163 100.23 195.234 98.8728V158.873C195.163 160.23 194.229 161.576 192.429 162.615V102.615Z" fill="#8BC5E4"/>
<path fill-rule="evenodd" clip-rule="evenodd" d="M195.234 98.8728C195.31 97.4024 194.374 95.9182 192.429 94.795V154.795C194.374 155.918 195.31 157.402 195.234 158.873V98.8728Z" fill="#8BC5E4"/>
<path fill-rule="evenodd" clip-rule="evenodd" d="M159.893 56.88C163.547 58.99 169.436 58.99 173.091 56.88V116.88C169.436 118.99 163.547 118.99 159.893 116.88V56.88Z" fill="#8BC5E4"/>
<path fill-rule="evenodd" clip-rule="evenodd" d="M186.229 49.295C187.991 48.2774 188.908 46.9649 188.98 45.6417V105.642C188.908 106.965 187.991 108.277 186.229 109.295V49.295Z" fill="#8BC5E4"/>
<path fill-rule="evenodd" clip-rule="evenodd" d="M188.98 45.6417C189.059 44.2083 188.146 42.7622 186.246 41.665V101.665C188.146 102.762 189.059 104.208 188.98 105.642V45.6417Z" fill="#8BC5E4"/>
<path fill-rule="evenodd" clip-rule="evenodd" d="M206.857 22.265C229.242 35.189 240.883 51.9595 241.78 68.8828V128.883C240.883 111.96 229.242 95.189 206.857 82.265V22.265Z" fill="#8BC5E4"/>
<path fill-rule="evenodd" clip-rule="evenodd" d="M241.779 68.8828C242.751 87.2164 231.115 105.729 206.874 119.725V179.725C231.115 165.729 242.751 147.216 241.779 128.883V68.8828Z" fill="#8BC5E4"/>
<path fill-rule="evenodd" clip-rule="evenodd" d="M206.875 119.725C160.239 146.65 84.6872 146.65 38.0518 119.725V179.725C84.6872 206.65 160.239 206.65 206.875 179.725V119.725Z" fill="#8BC5E4"/>
<path fill-rule="evenodd" clip-rule="evenodd" d="M38.0513 119.725C15.6745 106.806 4.03866 90.0377 3.14551 73.1146V133.115C4.03866 150.038 15.6745 166.806 38.0513 179.725V119.725Z" fill="#8BC5E4"/>
<path fill-rule="evenodd" clip-rule="evenodd" d="M3.14554 73.1147C2.17796 54.7813 13.8182 36.266 38.0686 22.265V82.265C13.8182 96.266 2.17796 114.781 3.14554 133.115V73.1147Z" fill="#8BC5E4"/>
<path fill-rule="evenodd" clip-rule="evenodd" d="M38.0684 22.265C84.6865 -4.65001 160.239 -4.65001 206.857 22.265V82.265C160.239 55.35 84.6865 55.35 38.0684 82.265V22.265Z" fill="#8BC5E4"/>
<path fill-rule="evenodd" clip-rule="evenodd" d="M209.057 20.995C161.252 -6.60496 83.6737 -6.60496 35.8691 20.995V80.995C83.6737 53.395 161.252 53.395 209.057 80.995V20.995Z" fill="#8BC5E4"/>
<path fill-rule="evenodd" clip-rule="evenodd" d="M35.8686 20.995C12.9141 34.2478 0.977714 51.4589 0.0576172 68.8272V128.827C0.977714 111.459 12.9141 94.2478 35.8686 80.995V20.995Z" fill="#8BC5E4"/>
<path fill-rule="evenodd" clip-rule="evenodd" d="M0.0576363 68.8271C-0.939136 87.6428 10.9929 106.643 35.8513 120.995V180.995C10.9929 166.643 -0.939136 147.643 0.0576363 128.827V68.8271Z" fill="#8BC5E4"/>
<path fill-rule="evenodd" clip-rule="evenodd" d="M35.8516 120.995C83.6735 148.605 161.252 148.605 209.074 120.995V180.995C161.252 208.605 83.6735 208.605 35.8516 180.995V120.995Z" fill="#8BC5E4"/>
<path fill-rule="evenodd" clip-rule="evenodd" d="M209.074 120.995C232.02 107.747 243.952 90.5384 244.868 73.1703V133.17C243.952 150.538 232.02 167.747 209.074 180.995V120.995Z" fill="#8BC5E4"/>
<path fill-rule="evenodd" clip-rule="evenodd" d="M244.868 73.1703C245.86 54.3549 233.924 35.3522 209.057 20.995V80.995C233.924 95.3522 245.86 114.355 244.868 133.17V73.1703Z" fill="#8BC5E4"/>
<path d="M173.272 34.175C169.618 32.065 163.729 32.065 160.057 34.185L146.919 41.77C143.264 43.88 143.264 47.28 146.919 49.39L150.504 51.46L133.937 61.025L81.2483 30.605C77.5071 28.445 71.4536 28.44 67.7037 30.605L55.077 37.895C51.3272 40.06 51.3358 43.555 55.077 45.715L62.6981 50.115L46.5294 59.45C41.6104 58.05 35.6954 58.605 31.8156 60.835C26.8186 63.72 26.8186 68.4 31.8156 71.285C36.8126 74.17 44.9099 74.165 49.9069 71.28C53.7867 69.04 54.748 65.625 52.3231 62.785L68.4831 53.455L92.7492 67.465L76.5805 76.8C71.6614 75.4 65.7465 75.955 61.8667 78.185C56.8697 81.07 56.8697 85.75 61.8667 88.635C66.8637 91.52 74.9697 91.52 79.9666 88.635C83.8464 86.395 84.8077 82.98 82.3742 80.135L98.5342 70.805L122.8 84.815L106.632 94.15C101.713 92.75 95.7976 93.305 91.9178 95.535C86.9208 98.42 86.9208 103.1 91.9178 105.985C96.9147 108.87 105.021 108.87 110.018 105.985C113.889 103.74 114.85 100.325 112.425 97.485L128.585 88.155L152.843 102.16L136.674 111.495C131.764 110.1 125.849 110.655 121.978 112.89C116.981 115.775 116.972 120.45 121.969 123.335C126.966 126.22 135.072 126.22 140.069 123.335C143.949 121.095 144.91 117.68 142.476 114.835L158.636 105.505L166.257 109.905C169.999 112.065 176.052 112.07 179.802 109.905L192.429 102.615C196.179 100.45 196.17 96.955 192.429 94.795L139.74 64.375L156.307 54.81L159.892 56.88C163.547 58.99 169.436 58.99 173.09 56.88L186.228 49.295C189.9 47.175 189.9 43.775 186.245 41.665L173.272 34.175ZM206.857 22.265C253.492 49.19 253.492 92.81 206.874 119.725C160.239 146.65 84.6864 146.65 38.051 119.725C-8.56717 92.81 -8.56715 49.19 38.0683 22.265C84.6865 -4.64996 160.239 -4.64996 206.857 22.265ZM209.056 20.995C161.252 -6.60496 83.6732 -6.60496 35.8686 20.995C-11.9533 48.605 -11.9533 93.395 35.8513 120.995C83.6732 148.605 161.252 148.605 209.074 120.995C256.878 93.395 256.878 48.605 209.056 20.995Z" fill="#8BC5E4"/>
<path fill-rule="evenodd" clip-rule="evenodd" d="M206.857 22.265C253.492 49.19 253.492 92.81 206.874 119.725C160.239 146.65 84.6864 146.65 38.051 119.725C-8.56717 92.81 -8.56715 49.19 38.0683 22.265C84.6865 -4.64996 160.239 -4.64996 206.857 22.265ZM160.057 34.185C163.729 32.065 169.618 32.065 173.272 34.175L186.245 41.665C189.9 43.775 189.9 47.175 186.228 49.295L173.09 56.88C169.436 58.99 163.547 58.99 159.892 56.88L156.307 54.81L139.74 64.375L192.429 94.795C196.17 96.955 196.179 100.45 192.429 102.615L179.802 109.905C176.052 112.07 169.999 112.065 166.257 109.905L158.636 105.505L142.476 114.835C144.91 117.68 143.949 121.095 140.069 123.335C135.072 126.22 126.966 126.22 121.969 123.335C116.972 120.45 116.981 115.775 121.978 112.89C125.849 110.655 131.764 110.1 136.674 111.495L152.843 102.16L128.585 88.155L112.425 97.485C114.85 100.325 113.889 103.74 110.018 105.985C105.021 108.87 96.9147 108.87 91.9178 105.985C86.9208 103.1 86.9208 98.42 91.9178 95.535C95.7976 93.305 101.713 92.75 106.632 94.15L122.8 84.815L98.5342 70.805L82.3742 80.135C84.8077 82.98 83.8464 86.395 79.9666 88.635C74.9697 91.52 66.8637 91.52 61.8667 88.635C56.8697 85.75 56.8697 81.07 61.8667 78.185C65.7465 75.955 71.6614 75.4 76.5805 76.8L92.7492 67.465L68.4831 53.455L52.3231 62.785C54.748 65.625 53.7867 69.04 49.9069 71.28C44.9099 74.165 36.8126 74.17 31.8156 71.285C26.8186 68.4 26.8186 63.72 31.8156 60.835C35.6954 58.605 41.6104 58.05 46.5294 59.45L62.6981 50.115L55.077 45.715C51.3358 43.555 51.3272 40.06 55.077 37.895L67.7037 30.605C71.4536 28.44 77.5071 28.445 81.2483 30.605L133.937 61.025L150.504 51.46L146.919 49.39C143.264 47.28 143.264 43.88 146.919 41.77L160.057 34.185Z" fill="white"/>
</svg>
