<svg width="245" height="202" viewBox="0 0 245 202" fill="none" xmlns="http://www.w3.org/2000/svg">
<path fill-rule="evenodd" clip-rule="evenodd" d="M78.7739 49.1687L97.9997 60.2687V120.269L78.7739 109.169V49.1687Z" fill="#8BC5E4"/>
<path fill-rule="evenodd" clip-rule="evenodd" d="M93.0459 78.5387L67.7319 85.8937V145.894L93.0459 138.539V78.5387Z" fill="#8BC5E4"/>
<path fill-rule="evenodd" clip-rule="evenodd" d="M71.5601 90.0038L96.5968 82.7288V142.729L71.5601 150.004V90.0038Z" fill="#8BC5E4"/>
<path fill-rule="evenodd" clip-rule="evenodd" d="M128.181 91.4237L130.536 106.724V166.724L128.181 151.424V91.4237Z" fill="#8BC5E4"/>
<path fill-rule="evenodd" clip-rule="evenodd" d="M138.564 106.179L136.122 90.3788V150.379L138.564 166.179V106.179Z" fill="#8BC5E4"/>
<path fill-rule="evenodd" clip-rule="evenodd" d="M156.552 78.5938L183.91 79.9988V139.999L156.552 138.594V78.5938Z" fill="#8BC5E4"/>
<path fill-rule="evenodd" clip-rule="evenodd" d="M184.845 75.3688L158.353 74.0038V134.004L184.845 135.369V75.3688Z" fill="#8BC5E4"/>
<path fill-rule="evenodd" clip-rule="evenodd" d="M143.267 55.7837L155.893 41.3137V101.314L143.267 115.784V55.7837Z" fill="#8BC5E4"/>
<path fill-rule="evenodd" clip-rule="evenodd" d="M148.775 39.1038L136.044 53.7138V113.714L148.775 99.1038V39.1038Z" fill="#8BC5E4"/>
<path fill-rule="evenodd" clip-rule="evenodd" d="M103.603 56.9137L84.6367 45.9637V105.964L103.603 116.914V56.9137Z" fill="#8BC5E4"/>
<path fill-rule="evenodd" clip-rule="evenodd" d="M57.0021 32.9187C53.6391 34.8603 51.8904 37.3814 51.7559 39.9256V99.9256C51.8904 97.3814 53.6391 94.8603 57.0021 92.9187V32.9187Z" fill="#8BC5E4"/>
<path fill-rule="evenodd" clip-rule="evenodd" d="M51.756 39.9257C51.6102 42.6819 53.359 45.4654 57.0022 47.5688V107.569C53.359 105.465 51.6102 102.682 51.756 99.9257V39.9257Z" fill="#8BC5E4"/>
<path fill-rule="evenodd" clip-rule="evenodd" d="M57.002 47.5687C62.787 50.8987 71.733 51.5537 78.7738 49.1687V109.169C71.733 111.554 62.787 110.899 57.002 107.569V47.5687Z" fill="#8BC5E4"/>
<path fill-rule="evenodd" clip-rule="evenodd" d="M97.9996 60.2687C93.5988 63.6095 91.2519 67.6241 91.1245 71.703V131.703C91.2519 127.624 93.5988 123.609 97.9996 120.269V60.2687Z" fill="#8BC5E4"/>
<path fill-rule="evenodd" clip-rule="evenodd" d="M91.1246 71.703C91.053 73.9974 91.6836 76.3121 93.0461 78.5387V138.539C91.6836 136.312 91.053 133.997 91.1246 131.703V71.703Z" fill="#8BC5E4"/>
<path fill-rule="evenodd" clip-rule="evenodd" d="M67.7323 85.8937C62.3369 82.3487 53.4861 81.3587 46.1855 83.4737V143.474C53.4861 141.359 62.3369 142.349 67.7323 145.894V85.8937Z" fill="#8BC5E4"/>
<path fill-rule="evenodd" clip-rule="evenodd" d="M46.1855 83.4738C41.9334 84.7088 38.7117 86.8688 37.2222 89.4788V149.479C38.7117 146.869 41.9334 144.709 46.1855 143.474V83.4738Z" fill="#8BC5E4"/>
<path fill-rule="evenodd" clip-rule="evenodd" d="M37.2218 89.4788C36.626 90.5228 36.3253 91.6044 36.3159 92.6836V152.684C36.3253 151.604 36.626 150.523 37.2218 149.479V89.4788Z" fill="#8BC5E4"/>
<path fill-rule="evenodd" clip-rule="evenodd" d="M36.3161 92.6836C36.302 94.3024 36.9432 95.9158 38.2267 97.3888V157.389C36.9432 155.916 36.302 154.302 36.3161 152.684V92.6836Z" fill="#8BC5E4"/>
<path fill-rule="evenodd" clip-rule="evenodd" d="M38.2266 97.3888C42.6866 102.504 53.4686 104.559 62.328 101.984V161.984C53.4686 164.559 42.6866 162.504 38.2266 157.389V97.3888Z" fill="#8BC5E4"/>
<path fill-rule="evenodd" clip-rule="evenodd" d="M62.3281 101.984C68.418 100.212 72.108 96.6509 72.192 92.8629V152.863C72.108 156.651 68.418 160.212 62.3281 161.984V101.984Z" fill="#8BC5E4"/>
<path fill-rule="evenodd" clip-rule="evenodd" d="M72.192 92.863C72.213 91.916 72.0087 90.9548 71.5601 90.0038V150.004C72.0087 150.955 72.213 151.916 72.192 152.863V92.863Z" fill="#8BC5E4"/>
<path fill-rule="evenodd" clip-rule="evenodd" d="M96.5967 82.7288C97.8611 83.8488 99.3247 84.8838 100.961 85.8288V145.829C99.3247 144.884 97.8611 143.849 96.5967 142.729V82.7288Z" fill="#8BC5E4"/>
<path fill-rule="evenodd" clip-rule="evenodd" d="M100.961 85.8287C108.115 89.9587 118.109 92.0087 128.181 91.4237V151.424C118.109 152.009 108.115 149.959 100.961 145.829V85.8287Z" fill="#8BC5E4"/>
<path fill-rule="evenodd" clip-rule="evenodd" d="M130.536 106.724C123.469 108.182 118.784 112.006 118.633 116.268V176.268C118.784 172.006 123.469 168.182 130.536 166.724V106.724Z" fill="#8BC5E4"/>
<path fill-rule="evenodd" clip-rule="evenodd" d="M118.633 116.268C118.62 116.639 118.641 117.013 118.697 117.389V177.389C118.641 177.013 118.62 176.639 118.633 176.268V116.268Z" fill="#8BC5E4"/>
<path fill-rule="evenodd" clip-rule="evenodd" d="M118.698 117.389C119.122 120.124 121.408 122.654 125.063 124.414V184.414C121.408 182.654 119.122 180.124 118.698 177.389V117.389Z" fill="#8BC5E4"/>
<path fill-rule="evenodd" clip-rule="evenodd" d="M125.063 124.414C128.709 126.179 133.429 127.034 138.166 126.789V186.789C133.429 187.034 128.709 186.179 125.063 184.414V124.414Z" fill="#8BC5E4"/>
<path fill-rule="evenodd" clip-rule="evenodd" d="M138.166 126.789C142.912 126.549 147.285 125.224 150.342 123.119V183.119C147.285 185.224 142.912 186.549 138.166 186.789V126.789Z" fill="#8BC5E4"/>
<path fill-rule="evenodd" clip-rule="evenodd" d="M150.342 123.119C153.033 121.258 154.502 118.932 154.527 116.53V176.53C154.502 178.932 153.033 181.258 150.342 183.119V123.119Z" fill="#8BC5E4"/>
<path fill-rule="evenodd" clip-rule="evenodd" d="M154.527 116.53C154.53 116.202 154.507 115.873 154.456 115.544V175.544C154.507 175.873 154.53 176.202 154.527 176.53V116.53Z" fill="#8BC5E4"/>
<path fill-rule="evenodd" clip-rule="evenodd" d="M154.456 115.544C153.694 110.644 147.043 106.724 138.564 106.179V166.179C147.043 166.724 153.694 170.644 154.456 175.544V115.544Z" fill="#8BC5E4"/>
<path fill-rule="evenodd" clip-rule="evenodd" d="M136.122 90.3787C140.833 89.4187 145.111 87.8687 148.653 85.8337V145.834C145.111 147.869 140.833 149.419 136.122 150.379V90.3787Z" fill="#8BC5E4"/>
<path fill-rule="evenodd" clip-rule="evenodd" d="M148.653 85.8338C152.195 83.7888 154.889 81.3138 156.551 78.5938V138.594C154.889 141.314 152.195 143.789 148.653 145.834V85.8338Z" fill="#8BC5E4"/>
<path fill-rule="evenodd" clip-rule="evenodd" d="M183.909 79.9988C184.853 84.8938 191.643 88.7338 200.13 89.1738V149.174C191.643 148.734 184.853 144.894 183.909 139.999V79.9988Z" fill="#8BC5E4"/>
<path fill-rule="evenodd" clip-rule="evenodd" d="M200.13 89.1737C204.884 89.4187 209.587 88.5637 213.25 86.7987V146.799C209.587 148.564 204.884 149.419 200.13 149.174V89.1737Z" fill="#8BC5E4"/>
<path fill-rule="evenodd" clip-rule="evenodd" d="M213.25 86.7987C216.896 85.0337 219.191 82.5087 219.607 79.7687V139.769C219.191 142.509 216.896 145.034 213.25 146.799V86.7987Z" fill="#8BC5E4"/>
<path fill-rule="evenodd" clip-rule="evenodd" d="M219.607 79.7687C219.641 79.5499 219.663 79.3312 219.672 79.1128V139.113C219.663 139.331 219.641 139.55 219.607 139.769V79.7687Z" fill="#8BC5E4"/>
<path fill-rule="evenodd" clip-rule="evenodd" d="M219.672 79.1128C219.784 76.6017 218.306 74.1403 215.493 72.2037V132.204C218.306 134.14 219.784 136.602 219.672 139.113V79.1128Z" fill="#8BC5E4"/>
<path fill-rule="evenodd" clip-rule="evenodd" d="M215.493 72.2037C212.445 70.0937 208.063 68.7737 203.326 68.5287V128.529C208.063 128.774 212.445 130.094 215.493 132.204V72.2037Z" fill="#8BC5E4"/>
<path fill-rule="evenodd" clip-rule="evenodd" d="M203.326 68.5288C195.185 68.1188 187.59 70.9238 184.845 75.3688V135.369C187.59 130.924 195.185 128.119 203.326 128.529V68.5288Z" fill="#8BC5E4"/>
<path fill-rule="evenodd" clip-rule="evenodd" d="M158.353 74.0038C158.434 73.5386 158.486 73.0737 158.509 72.6099V132.61C158.486 133.074 158.434 133.539 158.353 134.004V74.0038Z" fill="#8BC5E4"/>
<path fill-rule="evenodd" clip-rule="evenodd" d="M158.509 72.6098C158.775 67.276 155.243 62.0883 148.662 58.2887V118.289C155.243 122.088 158.775 127.276 158.509 132.61V72.6098Z" fill="#8BC5E4"/>
<path fill-rule="evenodd" clip-rule="evenodd" d="M148.662 58.2887C147.016 57.3487 145.215 56.5087 143.267 55.7837V115.784C145.215 116.509 147.016 117.349 148.662 118.289V58.2887Z" fill="#8BC5E4"/>
<path fill-rule="evenodd" clip-rule="evenodd" d="M155.894 41.3138C164.129 42.6088 172.798 40.3838 176.635 35.9888V95.9888C172.798 100.384 164.129 102.609 155.894 101.314V41.3138Z" fill="#8BC5E4"/>
<path fill-rule="evenodd" clip-rule="evenodd" d="M176.635 35.9888C177.838 34.6112 178.481 33.1144 178.552 31.6056V91.6056C178.481 93.1144 177.838 94.6112 176.635 95.9888V35.9888Z" fill="#8BC5E4"/>
<path fill-rule="evenodd" clip-rule="evenodd" d="M178.552 31.6056C178.609 30.4201 178.312 29.2271 177.657 28.0787V88.0787C178.312 89.2271 178.609 90.4201 178.552 91.6056V31.6056Z" fill="#8BC5E4"/>
<path fill-rule="evenodd" clip-rule="evenodd" d="M177.657 28.0787C176.167 25.4687 172.937 23.3037 168.685 22.0687V82.0687C172.937 83.3037 176.167 85.4687 177.657 88.0787V28.0787Z" fill="#8BC5E4"/>
<path fill-rule="evenodd" clip-rule="evenodd" d="M168.684 22.0687C164.432 20.8337 159.505 20.6287 154.984 21.4887V81.4887C159.505 80.6287 164.432 80.8337 168.684 82.0687V22.0687Z" fill="#8BC5E4"/>
<path fill-rule="evenodd" clip-rule="evenodd" d="M154.984 21.4888C150.463 22.3488 146.722 24.2088 144.583 26.6638V86.6638C146.722 84.2088 150.463 82.3488 154.984 81.4888V21.4888Z" fill="#8BC5E4"/>
<path fill-rule="evenodd" clip-rule="evenodd" d="M144.583 26.6637C143.411 28.0125 142.79 29.4529 142.688 30.8903V90.8903C142.79 89.4529 143.411 88.0125 144.583 86.6637V26.6637Z" fill="#8BC5E4"/>
<path fill-rule="evenodd" clip-rule="evenodd" d="M142.687 30.8904C142.471 33.9448 144.6 36.9855 148.775 39.1037V99.1037C144.6 96.9855 142.471 93.9448 142.687 90.8904V30.8904Z" fill="#8BC5E4"/>
<path fill-rule="evenodd" clip-rule="evenodd" d="M136.044 53.7137C124.994 51.4537 112.722 52.6687 103.603 56.9137V116.914C112.722 112.669 124.994 111.454 136.044 113.714V53.7137Z" fill="#8BC5E4"/>
<path fill-rule="evenodd" clip-rule="evenodd" d="M84.6367 45.9637C86.5247 44.3217 87.5078 42.4629 87.6221 40.6001V100.6C87.5078 102.463 86.5247 104.322 84.6367 105.964V45.9637Z" fill="#8BC5E4"/>
<path fill-rule="evenodd" clip-rule="evenodd" d="M87.6224 40.6001C87.7939 37.8059 86.0106 35.0027 82.394 32.9087V92.9087C86.0106 95.0027 87.7939 97.8059 87.6224 100.6V40.6001Z" fill="#8BC5E4"/>
<path fill-rule="evenodd" clip-rule="evenodd" d="M82.3937 32.9088C79.0248 30.9638 74.4609 29.8788 69.6978 29.8788V89.8788C74.4609 89.8788 79.0248 90.9638 82.3937 92.9088V32.9088Z" fill="#8BC5E4"/>
<path fill-rule="evenodd" clip-rule="evenodd" d="M69.6979 29.8788C64.9347 29.8788 60.3708 30.9738 57.002 32.9188V92.9188C60.3708 90.9738 64.9347 89.8788 69.6979 89.8788V29.8788Z" fill="#8BC5E4"/>
<path fill-rule="evenodd" clip-rule="evenodd" d="M38.0532 21.9787C84.6887 -4.9463 160.241 -4.94631 206.859 21.9687V81.9687C160.241 55.0537 84.6887 55.0537 38.0532 81.9787V21.9787Z" fill="#8BC5E4"/>
<path fill-rule="evenodd" clip-rule="evenodd" d="M206.859 21.9688C229.244 34.8927 240.884 51.6633 241.78 68.5877V128.588C240.884 111.663 229.244 94.8927 206.859 81.9688V21.9688Z" fill="#8BC5E4"/>
<path fill-rule="evenodd" clip-rule="evenodd" d="M241.78 68.5876C242.75 86.9224 231.109 105.438 206.859 119.439V179.439C231.109 165.438 242.75 146.922 241.78 128.588V68.5876Z" fill="#8BC5E4"/>
<path fill-rule="evenodd" clip-rule="evenodd" d="M206.859 119.439C160.241 146.354 84.6887 146.354 38.0532 119.429V179.429C84.6887 206.354 160.241 206.354 206.859 179.439V119.439Z" fill="#8BC5E4"/>
<path fill-rule="evenodd" clip-rule="evenodd" d="M38.0532 119.429C15.6765 106.509 4.04058 89.7414 3.14551 72.8195V132.819C4.04058 149.741 15.6765 166.509 38.0532 179.429V119.429Z" fill="#8BC5E4"/>
<path fill-rule="evenodd" clip-rule="evenodd" d="M3.14579 72.8195C2.17613 54.4874 13.812 35.9746 38.0535 21.9788V81.9788C13.812 95.9746 2.17613 114.487 3.14579 132.82V72.8195Z" fill="#8BC5E4"/>
<path fill-rule="evenodd" clip-rule="evenodd" d="M35.8537 20.7087C12.9075 33.9567 0.975466 51.1653 0.0576172 68.5323V128.532C0.975466 111.165 12.9075 93.9567 35.8537 80.7087V20.7087Z" fill="#8BC5E4"/>
<path fill-rule="evenodd" clip-rule="evenodd" d="M0.0573655 68.5323C-0.93697 87.3466 10.9951 106.347 35.8535 120.699V180.699C10.9951 166.347 -0.93697 147.347 0.0573655 128.532V68.5323Z" fill="#8BC5E4"/>
<path fill-rule="evenodd" clip-rule="evenodd" d="M35.8535 120.699C83.6754 148.309 161.254 148.309 209.059 120.709V180.709C161.254 208.309 83.6754 208.309 35.8535 180.699V120.699Z" fill="#8BC5E4"/>
<path fill-rule="evenodd" clip-rule="evenodd" d="M209.059 120.709C232.013 107.456 243.949 90.2449 244.868 72.8755V132.875C243.949 150.245 232.013 167.456 209.059 180.709V120.709Z" fill="#8BC5E4"/>
<path fill-rule="evenodd" clip-rule="evenodd" d="M244.868 72.8755C245.862 54.0586 233.926 35.0559 209.059 20.6987V80.6987C233.926 95.0559 245.862 114.059 244.868 132.875V72.8755Z" fill="#8BC5E4"/>
<path fill-rule="evenodd" clip-rule="evenodd" d="M209.059 20.6987C161.254 -6.90125 83.6754 -6.90125 35.8535 20.7088V80.7087C83.6754 53.0987 161.254 53.0987 209.059 80.6987V20.6987Z" fill="#8BC5E4"/>
<path d="M57.0018 32.9188C49.9956 36.9638 49.9956 43.5238 57.0018 47.5688C62.7868 50.8988 71.7329 51.5537 78.7737 49.1688L97.9994 60.2688C91.1232 65.4888 89.2612 72.3538 93.0458 78.5387L67.7318 85.8937C62.3365 82.3487 53.4857 81.3588 46.1851 83.4738C41.933 84.7088 38.7113 86.8688 37.2218 89.4788C35.7322 92.0888 36.0873 94.9337 38.2264 97.3887C42.6864 102.504 53.4684 104.559 62.3279 101.984C69.9402 99.7688 73.8027 94.7588 71.5597 90.0038L96.5965 82.7287C97.8609 83.8487 99.3245 84.8838 100.961 85.8288C108.115 89.9587 118.109 92.0087 128.18 91.4237L130.536 106.724C122.854 108.309 117.987 112.689 118.697 117.389C119.122 120.124 121.408 122.654 125.063 124.414C128.709 126.179 133.429 127.034 138.166 126.789C142.912 126.549 147.285 125.224 150.342 123.119C153.399 121.004 154.88 118.289 154.456 115.544C153.694 110.644 147.042 106.724 138.564 106.179L136.122 90.3787C140.833 89.4187 145.111 87.8687 148.653 85.8337C152.195 83.7887 154.889 81.3138 156.551 78.5938L183.909 79.9987C184.853 84.8937 191.643 88.7337 200.13 89.1737C204.884 89.4187 209.587 88.5637 213.25 86.7987C216.896 85.0337 219.191 82.5087 219.607 79.7687C220.031 77.0337 218.55 74.3088 215.493 72.2038C212.445 70.0938 208.063 68.7738 203.325 68.5287C195.185 68.1187 187.59 70.9237 184.844 75.3687L158.353 74.0037C159.366 68.1887 155.815 62.4188 148.662 58.2887C147.016 57.3488 145.215 56.5087 143.267 55.7837L155.893 41.3138C164.129 42.6087 172.798 40.3837 176.635 35.9887C178.782 33.5287 179.146 30.6887 177.656 28.0787C176.167 25.4687 172.937 23.3037 168.684 22.0687C164.432 20.8337 159.505 20.6287 154.984 21.4887C150.463 22.3487 146.722 24.2088 144.583 26.6638C140.92 30.8788 142.634 35.9888 148.774 39.1038L136.044 53.7137C124.993 51.4538 112.722 52.6688 103.603 56.9137L84.6367 45.9637C89.3565 41.8587 88.4212 36.3988 82.3937 32.9087C79.0248 30.9637 74.4609 29.8787 69.6977 29.8787C64.9346 29.8787 60.3706 30.9738 57.0018 32.9188ZM38.0532 21.9788C84.6886 -4.94625 160.241 -4.94625 206.859 21.9687C253.494 48.8937 253.494 92.5137 206.859 119.439C160.241 146.354 84.6886 146.354 38.0532 119.429C-8.56499 92.5137 -8.56499 48.8938 38.0532 21.9788ZM35.8535 20.7088C-11.9512 48.3088 -11.9512 93.0987 35.8535 120.699C83.6754 148.309 161.254 148.309 209.059 120.709C256.88 93.0987 256.88 48.3088 209.059 20.6987C161.254 -6.90125 83.6754 -6.90125 35.8535 20.7088Z" fill="#8BC5E4"/>
<path fill-rule="evenodd" clip-rule="evenodd" d="M38.0532 21.9788C84.6886 -4.94625 160.241 -4.94625 206.859 21.9687C253.494 48.8937 253.494 92.5137 206.859 119.439C160.241 146.354 84.6886 146.354 38.0532 119.429C-8.56499 92.5137 -8.56499 48.8938 38.0532 21.9788ZM57.0018 47.5688C49.9956 43.5238 49.9956 36.9638 57.0018 32.9188C60.3706 30.9738 64.9346 29.8787 69.6977 29.8787C74.4609 29.8787 79.0248 30.9637 82.3937 32.9087C88.4212 36.3988 89.3565 41.8587 84.6367 45.9637L103.603 56.9137C112.722 52.6688 124.993 51.4538 136.044 53.7137L148.774 39.1038C142.634 35.9888 140.92 30.8788 144.583 26.6638C146.722 24.2088 150.463 22.3487 154.984 21.4887C159.505 20.6287 164.432 20.8337 168.684 22.0687C172.937 23.3037 176.167 25.4687 177.656 28.0787C179.146 30.6887 178.782 33.5287 176.635 35.9887C172.798 40.3837 164.129 42.6087 155.893 41.3138L143.267 55.7837C145.215 56.5087 147.016 57.3488 148.662 58.2887C155.815 62.4188 159.366 68.1887 158.353 74.0037L184.844 75.3687C187.59 70.9237 195.185 68.1187 203.325 68.5287C208.063 68.7738 212.445 70.0938 215.493 72.2038C218.55 74.3088 220.031 77.0337 219.607 79.7687C219.191 82.5087 216.896 85.0337 213.25 86.7987C209.587 88.5637 204.884 89.4187 200.13 89.1737C191.643 88.7337 184.853 84.8937 183.909 79.9987L156.551 78.5938C154.889 81.3138 152.195 83.7887 148.653 85.8337C145.111 87.8687 140.833 89.4187 136.122 90.3787L138.564 106.179C147.042 106.724 153.694 110.644 154.456 115.544C154.88 118.289 153.399 121.004 150.342 123.119C147.285 125.224 142.912 126.549 138.166 126.789C133.429 127.034 128.709 126.179 125.063 124.414C121.408 122.654 119.122 120.124 118.697 117.389C117.987 112.689 122.854 108.309 130.536 106.724L128.18 91.4237C118.109 92.0087 108.115 89.9587 100.961 85.8288C99.3245 84.8838 97.8609 83.8487 96.5965 82.7287L71.5597 90.0038C73.8027 94.7588 69.9402 99.7688 62.3279 101.984C53.4684 104.559 42.6864 102.504 38.2264 97.3887C36.0873 94.9337 35.7322 92.0888 37.2218 89.4788C38.7113 86.8688 41.933 84.7088 46.1851 83.4738C53.4857 81.3588 62.3365 82.3487 67.7318 85.8937L93.0458 78.5387C89.2612 72.3538 91.1232 65.4888 97.9994 60.2688L78.7737 49.1688C71.7329 51.5537 62.7868 50.8988 57.0018 47.5688Z" fill="white"/>
</svg>
