<svg width="226" height="326" viewBox="0 0 226 326" fill="none" xmlns="http://www.w3.org/2000/svg">
<path d="M150.368 182.007L154.655 197.662L102.693 167.662L98.4062 152.007L150.368 182.007Z" fill="#8BC5E4"/>
<path d="M154.655 197.662L157.781 192.307L105.82 162.307L102.693 167.662L154.655 197.662Z" fill="#8BC5E4"/>
<path d="M157.781 192.307L170.806 199.947L118.844 169.947L105.819 162.307L157.781 192.307Z" fill="#8BC5E4"/>
<path d="M170.806 199.947L167.68 205.302L115.718 175.302L118.845 169.947L170.806 199.947Z" fill="#8BC5E4"/>
<path d="M167.68 205.302L183.389 201.402L131.428 171.402L115.718 175.302L167.68 205.302Z" fill="#8BC5E4"/>
<path d="M183.389 201.402L179.094 185.762L127.132 155.762L131.428 171.402L183.389 201.402Z" fill="#8BC5E4"/>
<path d="M179.094 185.762L175.968 191.117L124.006 161.117L127.133 155.762L179.094 185.762Z" fill="#8BC5E4"/>
<path d="M175.968 191.117L162.943 183.477L110.981 153.477L124.006 161.117L175.968 191.117Z" fill="#8BC5E4"/>
<path d="M162.943 183.477L166.078 178.107L114.116 148.107L110.981 153.477L162.943 183.477Z" fill="#8BC5E4"/>
<path d="M166.078 178.107L150.368 182.007L98.4062 152.007L114.116 148.107L166.078 178.107Z" fill="#8BC5E4"/>
<path d="M150.368 182.007L98.4062 152.007L150.368 182.007Z" fill="#8BC5E4"/>
<path d="M95.7042 149.907L99.9824 165.567L48.0209 135.567L43.7427 119.907L95.7042 149.907Z" fill="#8BC5E4"/>
<path d="M99.9825 165.567L103.109 160.202L51.1473 130.202L48.021 135.567L99.9825 165.567Z" fill="#8BC5E4"/>
<path d="M103.109 160.202L116.134 167.852L64.1726 137.852L51.1475 130.202L103.109 160.202Z" fill="#8BC5E4"/>
<path d="M116.134 167.852L113.007 173.207L61.0459 143.207L64.1723 137.852L116.134 167.852Z" fill="#8BC5E4"/>
<path d="M113.007 173.207L128.717 169.297L76.7556 139.297L61.0459 143.207L113.007 173.207Z" fill="#8BC5E4"/>
<path d="M128.717 169.297L124.43 153.662L72.4688 123.662L76.7555 139.297L128.717 169.297Z" fill="#8BC5E4"/>
<path d="M124.43 153.662L121.304 159.007L69.3423 129.007L72.4687 123.662L124.43 153.662Z" fill="#8BC5E4"/>
<path d="M121.304 159.007L108.279 151.357L56.3174 121.357L69.3424 129.007L121.304 159.007Z" fill="#8BC5E4"/>
<path d="M108.279 151.357L111.405 146.012L59.4438 116.012L56.3174 121.357L108.279 151.357Z" fill="#8BC5E4"/>
<path d="M111.405 146.012L95.7042 149.907L43.7427 119.907L59.4438 116.012L111.405 146.012Z" fill="#8BC5E4"/>
<path d="M95.7042 149.907L43.7427 119.907L95.7042 149.907Z" fill="#8BC5E4"/>
<path d="M128.579 194.437L112.8 208.477L60.8384 178.477L76.6173 164.437L128.579 194.437Z" fill="#8BC5E4"/>
<path d="M112.8 208.477L115.9 210.267L63.9387 180.267L60.8384 178.477L112.8 208.477Z" fill="#8BC5E4"/>
<path d="M115.9 210.267L102.702 232.857L50.7402 202.857L63.9384 180.267L115.9 210.267Z" fill="#8BC5E4"/>
<path d="M102.702 232.857L99.6099 231.042L47.6484 201.042L50.7401 202.857L102.702 232.857Z" fill="#8BC5E4"/>
<path d="M99.6103 231.042L95.107 251.712L43.1455 221.712L47.6488 201.042L99.6103 231.042Z" fill="#8BC5E4"/>
<path d="M95.107 251.712L110.877 237.677L58.9158 207.677L43.1455 221.712L95.107 251.712Z" fill="#8BC5E4"/>
<path d="M110.877 237.677L107.794 235.857L55.8325 205.857L58.9156 207.677L110.877 237.677Z" fill="#8BC5E4"/>
<path d="M107.794 235.857L120.992 213.267L69.0308 183.267L55.8325 205.857L107.794 235.857Z" fill="#8BC5E4"/>
<path d="M120.992 213.267L124.075 215.087L72.1138 185.087L69.0308 183.267L120.992 213.267Z" fill="#8BC5E4"/>
<path d="M124.075 215.087L128.579 194.437L76.6171 164.437L72.1138 185.087L124.075 215.087Z" fill="#8BC5E4"/>
<path d="M128.579 194.437L76.6172 164.437L128.579 194.437Z" fill="#8BC5E4"/>
<path d="M183.97 99.6169L168.199 113.652L116.238 83.6519L132.008 69.6169L183.97 99.6169Z" fill="#8BC5E4"/>
<path d="M168.199 113.652L171.291 115.457L119.329 85.4571L116.238 83.6521L168.199 113.652Z" fill="#8BC5E4"/>
<path d="M171.291 115.457L158.093 138.047L106.131 108.047L119.33 85.457L171.291 115.457Z" fill="#8BC5E4"/>
<path d="M158.093 138.047L155.01 136.237L103.048 106.237L106.131 108.047L158.093 138.047Z" fill="#8BC5E4"/>
<path d="M155.01 136.237L150.515 156.882L98.5537 126.882L103.048 106.237L155.01 136.237Z" fill="#8BC5E4"/>
<path d="M150.515 156.882L166.277 142.852L114.315 112.852L98.5537 126.882L150.515 156.882Z" fill="#8BC5E4"/>
<path d="M166.277 142.852L163.194 141.032L111.232 111.032L114.315 112.852L166.277 142.852Z" fill="#8BC5E4"/>
<path d="M163.194 141.032L176.384 118.447L124.422 88.447L111.232 111.032L163.194 141.032Z" fill="#8BC5E4"/>
<path d="M176.383 118.447L179.466 120.267L127.505 90.267L124.422 88.447L176.383 118.447Z" fill="#8BC5E4"/>
<path d="M179.466 120.267L183.97 99.6169L132.008 69.6169L127.505 90.2669L179.466 120.267Z" fill="#8BC5E4"/>
<path d="M183.97 99.6169L132.008 69.6169L183.97 99.6169Z" fill="#8BC5E4"/>
<path d="M124.127 184.557L109.89 183.557L57.9282 153.557L72.1657 154.557L124.127 184.557Z" fill="#8BC5E4"/>
<path d="M109.89 183.557V188.607L57.9282 158.607V153.557L109.89 183.557Z" fill="#8BC5E4"/>
<path d="M109.89 188.607L91.357 199.307L39.3955 169.307L57.9284 158.607L109.89 188.607Z" fill="#8BC5E4"/>
<path d="M91.357 199.307V194.257L39.3955 164.257V169.307L91.357 199.307Z" fill="#8BC5E4"/>
<path d="M91.3567 194.257L77.1192 211.697L25.1577 181.697L39.3952 164.257L91.3567 194.257Z" fill="#8BC5E4"/>
<path d="M77.1192 211.697L91.3567 212.707L39.3952 182.707L25.1577 181.697L77.1192 211.697Z" fill="#8BC5E4"/>
<path d="M91.357 212.707V207.647L39.3955 177.647V182.707L91.357 212.707Z" fill="#8BC5E4"/>
<path d="M91.357 207.647L109.89 196.947L57.9284 166.947L39.3955 177.647L91.357 207.647Z" fill="#8BC5E4"/>
<path d="M109.89 196.947V202.007L57.9282 172.007V166.947L109.89 196.947Z" fill="#8BC5E4"/>
<path d="M109.89 202.007L124.127 184.557L72.1657 154.557L57.9282 172.007L109.89 202.007Z" fill="#8BC5E4"/>
<path d="M124.128 184.557L72.166 154.557L124.128 184.557Z" fill="#8BC5E4"/>
<path d="M201.957 139.622L187.719 138.622L135.758 108.622L149.995 109.622L201.957 139.622Z" fill="#8BC5E4"/>
<path d="M187.719 138.622V143.672L135.758 113.672V108.622L187.719 138.622Z" fill="#8BC5E4"/>
<path d="M187.719 143.672L169.187 154.372L117.225 124.372L135.758 113.672L187.719 143.672Z" fill="#8BC5E4"/>
<path d="M169.187 154.372V149.322L117.225 119.322V124.372L169.187 154.372Z" fill="#8BC5E4"/>
<path d="M169.186 149.322L154.958 166.757L102.996 136.757L117.225 119.322L169.186 149.322Z" fill="#8BC5E4"/>
<path d="M154.958 166.757L169.186 167.772L117.225 137.772L102.996 136.757L154.958 166.757Z" fill="#8BC5E4"/>
<path d="M169.187 167.772V162.712L117.225 132.712V137.772L169.187 167.772Z" fill="#8BC5E4"/>
<path d="M169.187 162.712L187.719 152.012L135.758 122.012L117.225 132.712L169.187 162.712Z" fill="#8BC5E4"/>
<path d="M187.719 152.012V157.072L135.758 127.072V122.012L187.719 152.012Z" fill="#8BC5E4"/>
<path d="M187.719 157.072L201.957 139.622L149.995 109.622L135.758 127.072L187.719 157.072Z" fill="#8BC5E4"/>
<path d="M201.957 139.622L149.996 109.622L201.957 139.622Z" fill="#8BC5E4"/>
<path d="M139.542 193.367L131.523 214.357L79.5615 184.357L87.5809 163.367L139.542 193.367Z" fill="#8BC5E4"/>
<path d="M131.523 214.357L135.914 211.822L83.9523 181.822L79.5615 184.357L131.523 214.357Z" fill="#8BC5E4"/>
<path d="M135.914 211.822V233.132L83.9526 203.132V181.822L135.914 211.822Z" fill="#8BC5E4"/>
<path d="M135.914 233.132L131.523 235.667L79.5615 205.667L83.9523 203.132L135.914 233.132Z" fill="#8BC5E4"/>
<path d="M131.523 235.667L139.542 247.397L87.5809 217.397L79.5615 205.667L131.523 235.667Z" fill="#8BC5E4"/>
<path d="M139.543 247.397L147.562 226.407L95.6005 196.407L87.5811 217.397L139.543 247.397Z" fill="#8BC5E4"/>
<path d="M147.562 226.407L143.163 228.947L91.2012 198.947L95.6006 196.407L147.562 226.407Z" fill="#8BC5E4"/>
<path d="M143.163 228.947V207.637L91.2012 177.637V198.947L143.163 228.947Z" fill="#8BC5E4"/>
<path d="M143.163 207.637L147.562 205.097L95.6006 175.097L91.2012 177.637L143.163 207.637Z" fill="#8BC5E4"/>
<path d="M147.562 205.097L139.543 193.367L87.5811 163.367L95.6005 175.097L147.562 205.097Z" fill="#8BC5E4"/>
<path d="M139.543 193.367L87.5811 163.367L139.543 193.367Z" fill="#8BC5E4"/>
<path d="M139.542 103.917L131.523 124.917L79.5615 94.917L87.5809 73.917L139.542 103.917Z" fill="#8BC5E4"/>
<path d="M131.523 124.917L135.914 122.382L83.9523 92.3821L79.5615 94.9171L131.523 124.917Z" fill="#8BC5E4"/>
<path d="M135.914 122.382V143.682L83.9526 113.682V92.3821L135.914 122.382Z" fill="#8BC5E4"/>
<path d="M135.914 143.682L131.523 146.217L79.5615 116.217L83.9523 113.682L135.914 143.682Z" fill="#8BC5E4"/>
<path d="M131.523 146.217L139.542 157.947L87.5809 127.947L79.5615 116.217L131.523 146.217Z" fill="#8BC5E4"/>
<path d="M139.543 157.947L147.562 136.957L95.6005 106.957L87.5811 127.947L139.543 157.947Z" fill="#8BC5E4"/>
<path d="M147.562 136.957L143.163 139.497L91.2012 109.497L95.6006 106.957L147.562 136.957Z" fill="#8BC5E4"/>
<path d="M143.163 139.497V118.197L91.2012 88.197V109.497L143.163 139.497Z" fill="#8BC5E4"/>
<path d="M143.163 118.197L147.562 115.657L95.6006 85.657L91.2012 88.197L143.163 118.197Z" fill="#8BC5E4"/>
<path d="M147.562 115.657L139.543 103.917L87.5811 73.917L95.6005 85.657L147.562 115.657Z" fill="#8BC5E4"/>
<path d="M139.543 103.917L87.5811 73.917L139.543 103.917Z" fill="#8BC5E4"/>
<path d="M151.416 168.802L99.4541 138.802L151.416 168.802Z" fill="#8BC5E4"/>
<path d="M138.928 92.9919L86.9663 62.9919L138.928 92.9919Z" fill="#8BC5E4"/>
<path d="M138.928 101.322L86.9663 71.322L138.928 101.322Z" fill="#8BC5E4"/>
<path d="M62.5875 124.687L214.54 36.957L162.579 6.95703L10.626 94.687L62.5875 124.687Z" fill="#8BC5E4"/>
<path d="M220.369 40.302V215.862L168.407 185.862V10.302L220.369 40.302Z" fill="#8BC5E4"/>
<path d="M214.54 225.937L62.5875 313.667L10.626 283.667L162.579 195.937L214.54 225.937Z" fill="#8BC5E4"/>
<path d="M56.7593 310.322V134.762L4.79785 104.762V280.322L56.7593 310.322Z" fill="#8BC5E4"/>
<path d="M62.5875 124.687L10.626 94.687L62.5875 124.687Z" fill="#8BC5E4"/>
<path d="M51.9615 137.532V313.092L0 283.092V107.532L51.9615 137.532Z" fill="#8BC5E4"/>
<path d="M62.5875 319.177L214.54 231.447L162.579 201.447L10.626 289.177L62.5875 319.177Z" fill="#8BC5E4"/>
<path d="M225.167 213.092V37.532L173.205 7.53198V183.092L225.167 213.092Z" fill="#8BC5E4"/>
<path d="M214.54 31.447L62.5875 119.177L10.626 89.177L162.579 1.44702L214.54 31.447Z" fill="#8BC5E4"/>
<path d="M62.5875 119.177L10.626 89.177L62.5875 119.177Z" fill="#8BC5E4"/>
<path d="M62.5875 124.687L214.54 36.957L162.579 6.95703L10.626 94.687L62.5875 124.687Z" fill="#8BC5E4"/>
<path d="M220.369 40.302V215.862L168.407 185.862V10.302L220.369 40.302Z" fill="#8BC5E4"/>
<path d="M214.54 225.937L62.5875 313.667L10.626 283.667L162.579 195.937L214.54 225.937Z" fill="#8BC5E4"/>
<path d="M56.7593 310.322V134.762L4.79785 104.762V280.322L56.7593 310.322Z" fill="#8BC5E4"/>
<path d="M62.5875 124.687L10.626 94.687L62.5875 124.687Z" fill="#8BC5E4"/>
<path d="M66.7443 217.617L14.7827 187.617L66.7443 217.617Z" fill="#8BC5E4"/>
<path d="M138.928 101.322L86.9663 71.322L138.928 101.322Z" fill="#8BC5E4"/>
<path d="M154.655 197.662L150.368 182.007L98.4062 152.007L102.693 167.662L154.655 197.662Z" fill="#8BC5E4"/>
<path d="M150.368 182.007L166.078 178.107L114.116 148.107L98.4062 152.007L150.368 182.007Z" fill="#8BC5E4"/>
<path d="M166.078 178.107L162.943 183.477L110.981 153.477L114.116 148.107L166.078 178.107Z" fill="#8BC5E4"/>
<path d="M162.943 183.477L175.968 191.117L124.006 161.117L110.981 153.477L162.943 183.477Z" fill="#8BC5E4"/>
<path d="M175.968 191.117L179.094 185.762L127.133 155.762L124.006 161.117L175.968 191.117Z" fill="#8BC5E4"/>
<path d="M179.094 185.762L183.389 201.402L131.428 171.402L127.132 155.762L179.094 185.762Z" fill="#8BC5E4"/>
<path d="M183.389 201.402L167.68 205.302L115.718 175.302L131.428 171.402L183.389 201.402Z" fill="#8BC5E4"/>
<path d="M167.68 205.302L170.806 199.947L118.845 169.947L115.718 175.302L167.68 205.302Z" fill="#8BC5E4"/>
<path d="M170.806 199.947L157.781 192.307L105.819 162.307L118.844 169.947L170.806 199.947Z" fill="#8BC5E4"/>
<path d="M157.781 192.307L154.655 197.662L102.693 167.662L105.82 162.307L157.781 192.307Z" fill="#8BC5E4"/>
<path d="M154.655 197.662L102.693 167.662L154.655 197.662Z" fill="#8BC5E4"/>
<path d="M99.9824 165.567L95.7042 149.907L43.7427 119.907L48.0209 135.567L99.9824 165.567Z" fill="#8BC5E4"/>
<path d="M95.7042 149.907L111.405 146.012L59.4438 116.012L43.7427 119.907L95.7042 149.907Z" fill="#8BC5E4"/>
<path d="M111.405 146.012L108.279 151.357L56.3174 121.357L59.4438 116.012L111.405 146.012Z" fill="#8BC5E4"/>
<path d="M108.279 151.357L121.304 159.007L69.3424 129.007L56.3174 121.357L108.279 151.357Z" fill="#8BC5E4"/>
<path d="M121.304 159.007L124.43 153.662L72.4687 123.662L69.3423 129.007L121.304 159.007Z" fill="#8BC5E4"/>
<path d="M124.43 153.662L128.717 169.297L76.7555 139.297L72.4688 123.662L124.43 153.662Z" fill="#8BC5E4"/>
<path d="M128.717 169.297L113.007 173.207L61.0459 143.207L76.7556 139.297L128.717 169.297Z" fill="#8BC5E4"/>
<path d="M113.007 173.207L116.134 167.852L64.1723 137.852L61.0459 143.207L113.007 173.207Z" fill="#8BC5E4"/>
<path d="M116.134 167.852L103.109 160.202L51.1475 130.202L64.1726 137.852L116.134 167.852Z" fill="#8BC5E4"/>
<path d="M103.109 160.202L99.9825 165.567L48.021 135.567L51.1473 130.202L103.109 160.202Z" fill="#8BC5E4"/>
<path d="M99.9825 165.567L48.021 135.567L99.9825 165.567Z" fill="#8BC5E4"/>
<path d="M112.8 208.477L128.579 194.437L76.6173 164.437L60.8384 178.477L112.8 208.477Z" fill="#8BC5E4"/>
<path d="M128.579 194.437L124.075 215.087L72.1138 185.087L76.6171 164.437L128.579 194.437Z" fill="#8BC5E4"/>
<path d="M124.075 215.087L120.992 213.267L69.0308 183.267L72.1138 185.087L124.075 215.087Z" fill="#8BC5E4"/>
<path d="M120.992 213.267L107.794 235.857L55.8325 205.857L69.0308 183.267L120.992 213.267Z" fill="#8BC5E4"/>
<path d="M107.794 235.857L110.877 237.677L58.9156 207.677L55.8325 205.857L107.794 235.857Z" fill="#8BC5E4"/>
<path d="M110.877 237.677L95.107 251.712L43.1455 221.712L58.9158 207.677L110.877 237.677Z" fill="#8BC5E4"/>
<path d="M95.107 251.712L99.6103 231.042L47.6488 201.042L43.1455 221.712L95.107 251.712Z" fill="#8BC5E4"/>
<path d="M99.6099 231.042L102.702 232.857L50.7401 202.857L47.6484 201.042L99.6099 231.042Z" fill="#8BC5E4"/>
<path d="M102.702 232.857L115.9 210.267L63.9384 180.267L50.7402 202.857L102.702 232.857Z" fill="#8BC5E4"/>
<path d="M115.9 210.267L112.8 208.477L60.8384 178.477L63.9387 180.267L115.9 210.267Z" fill="#8BC5E4"/>
<path d="M112.8 208.477L60.8384 178.477L112.8 208.477Z" fill="#8BC5E4"/>
<path d="M168.199 113.652L183.97 99.6169L132.008 69.6169L116.238 83.6519L168.199 113.652Z" fill="#8BC5E4"/>
<path d="M183.97 99.6169L179.466 120.267L127.505 90.2669L132.008 69.6169L183.97 99.6169Z" fill="#8BC5E4"/>
<path d="M179.466 120.267L176.383 118.447L124.422 88.447L127.505 90.267L179.466 120.267Z" fill="#8BC5E4"/>
<path d="M176.384 118.447L163.194 141.032L111.232 111.032L124.422 88.447L176.384 118.447Z" fill="#8BC5E4"/>
<path d="M163.194 141.032L166.277 142.852L114.315 112.852L111.232 111.032L163.194 141.032Z" fill="#8BC5E4"/>
<path d="M166.277 142.852L150.515 156.882L98.5537 126.882L114.315 112.852L166.277 142.852Z" fill="#8BC5E4"/>
<path d="M150.515 156.882L155.01 136.237L103.048 106.237L98.5537 126.882L150.515 156.882Z" fill="#8BC5E4"/>
<path d="M155.01 136.237L158.093 138.047L106.131 108.047L103.048 106.237L155.01 136.237Z" fill="#8BC5E4"/>
<path d="M158.093 138.047L171.291 115.457L119.33 85.457L106.131 108.047L158.093 138.047Z" fill="#8BC5E4"/>
<path d="M171.291 115.457L168.199 113.652L116.238 83.6521L119.329 85.4571L171.291 115.457Z" fill="#8BC5E4"/>
<path d="M168.199 113.652L116.238 83.6521L168.199 113.652Z" fill="#8BC5E4"/>
<path d="M109.89 183.557L124.127 184.557L72.1657 154.557L57.9282 153.557L109.89 183.557Z" fill="#8BC5E4"/>
<path d="M124.127 184.557L109.89 202.007L57.9282 172.007L72.1657 154.557L124.127 184.557Z" fill="#8BC5E4"/>
<path d="M109.89 202.007V196.947L57.9282 166.947V172.007L109.89 202.007Z" fill="#8BC5E4"/>
<path d="M109.89 196.947L91.357 207.647L39.3955 177.647L57.9284 166.947L109.89 196.947Z" fill="#8BC5E4"/>
<path d="M91.357 207.647V212.707L39.3955 182.707V177.647L91.357 207.647Z" fill="#8BC5E4"/>
<path d="M91.3567 212.707L77.1192 211.697L25.1577 181.697L39.3952 182.707L91.3567 212.707Z" fill="#8BC5E4"/>
<path d="M77.1192 211.697L91.3567 194.257L39.3952 164.257L25.1577 181.697L77.1192 211.697Z" fill="#8BC5E4"/>
<path d="M91.357 194.257V199.307L39.3955 169.307V164.257L91.357 194.257Z" fill="#8BC5E4"/>
<path d="M91.357 199.307L109.89 188.607L57.9284 158.607L39.3955 169.307L91.357 199.307Z" fill="#8BC5E4"/>
<path d="M109.89 188.607V183.557L57.9282 153.557V158.607L109.89 188.607Z" fill="#8BC5E4"/>
<path d="M109.89 183.557L57.9282 153.557L109.89 183.557Z" fill="#8BC5E4"/>
<path d="M187.719 138.622L201.957 139.622L149.995 109.622L135.758 108.622L187.719 138.622Z" fill="#8BC5E4"/>
<path d="M201.957 139.622L187.719 157.072L135.758 127.072L149.995 109.622L201.957 139.622Z" fill="#8BC5E4"/>
<path d="M187.719 157.072V152.012L135.758 122.012V127.072L187.719 157.072Z" fill="#8BC5E4"/>
<path d="M187.719 152.012L169.187 162.712L117.225 132.712L135.758 122.012L187.719 152.012Z" fill="#8BC5E4"/>
<path d="M169.187 162.712V167.772L117.225 137.772V132.712L169.187 162.712Z" fill="#8BC5E4"/>
<path d="M169.186 167.772L154.958 166.757L102.996 136.757L117.225 137.772L169.186 167.772Z" fill="#8BC5E4"/>
<path d="M154.958 166.757L169.186 149.322L117.225 119.322L102.996 136.757L154.958 166.757Z" fill="#8BC5E4"/>
<path d="M169.187 149.322V154.372L117.225 124.372V119.322L169.187 149.322Z" fill="#8BC5E4"/>
<path d="M169.187 154.372L187.719 143.672L135.758 113.672L117.225 124.372L169.187 154.372Z" fill="#8BC5E4"/>
<path d="M187.719 143.672V138.622L135.758 108.622V113.672L187.719 143.672Z" fill="#8BC5E4"/>
<path d="M187.719 138.622L135.758 108.622L187.719 138.622Z" fill="#8BC5E4"/>
<path d="M131.523 214.357L139.542 193.367L87.5809 163.367L79.5615 184.357L131.523 214.357Z" fill="#8BC5E4"/>
<path d="M139.543 193.367L147.562 205.097L95.6005 175.097L87.5811 163.367L139.543 193.367Z" fill="#8BC5E4"/>
<path d="M147.562 205.097L143.163 207.637L91.2012 177.637L95.6006 175.097L147.562 205.097Z" fill="#8BC5E4"/>
<path d="M143.163 207.637V228.947L91.2012 198.947V177.637L143.163 207.637Z" fill="#8BC5E4"/>
<path d="M143.163 228.947L147.562 226.407L95.6006 196.407L91.2012 198.947L143.163 228.947Z" fill="#8BC5E4"/>
<path d="M147.562 226.407L139.543 247.397L87.5811 217.397L95.6005 196.407L147.562 226.407Z" fill="#8BC5E4"/>
<path d="M139.542 247.397L131.523 235.667L79.5615 205.667L87.5809 217.397L139.542 247.397Z" fill="#8BC5E4"/>
<path d="M131.523 235.667L135.914 233.132L83.9523 203.132L79.5615 205.667L131.523 235.667Z" fill="#8BC5E4"/>
<path d="M135.914 233.132V211.822L83.9526 181.822V203.132L135.914 233.132Z" fill="#8BC5E4"/>
<path d="M135.914 211.822L131.523 214.357L79.5615 184.357L83.9523 181.822L135.914 211.822Z" fill="#8BC5E4"/>
<path d="M131.523 214.357L79.5615 184.357L131.523 214.357Z" fill="#8BC5E4"/>
<path d="M131.523 124.917L139.542 103.917L87.5809 73.917L79.5615 94.917L131.523 124.917Z" fill="#8BC5E4"/>
<path d="M139.543 103.917L147.562 115.657L95.6005 85.657L87.5811 73.917L139.543 103.917Z" fill="#8BC5E4"/>
<path d="M147.562 115.657L143.163 118.197L91.2012 88.197L95.6006 85.657L147.562 115.657Z" fill="#8BC5E4"/>
<path d="M143.163 118.197V139.497L91.2012 109.497V88.197L143.163 118.197Z" fill="#8BC5E4"/>
<path d="M143.163 139.497L147.562 136.957L95.6006 106.957L91.2012 109.497L143.163 139.497Z" fill="#8BC5E4"/>
<path d="M147.562 136.957L139.543 157.947L87.5811 127.947L95.6005 106.957L147.562 136.957Z" fill="#8BC5E4"/>
<path d="M139.542 157.947L131.523 146.217L79.5615 116.217L87.5809 127.947L139.542 157.947Z" fill="#8BC5E4"/>
<path d="M131.523 146.217L135.914 143.682L83.9523 113.682L79.5615 116.217L131.523 146.217Z" fill="#8BC5E4"/>
<path d="M135.914 143.682V122.382L83.9526 92.3821V113.682L135.914 143.682Z" fill="#8BC5E4"/>
<path d="M135.914 122.382L131.523 124.917L79.5615 94.9171L83.9523 92.3821L135.914 122.382Z" fill="#8BC5E4"/>
<path d="M131.523 124.917L79.5615 94.917L131.523 124.917Z" fill="#8BC5E4"/>
<path d="M147.943 180.467L95.9814 150.467L147.943 180.467Z" fill="#8BC5E4"/>
<path d="M151.416 168.802C151.416 172.422 150.169 176.622 147.943 180.467L95.9814 150.467C98.2071 146.622 99.4541 142.422 99.4541 138.802L151.416 168.802Z" fill="#8BC5E4"/>
<path d="M147.943 180.467C145.709 184.317 142.686 187.502 139.543 189.317L87.5811 159.317C90.7248 157.502 93.7472 154.317 95.9816 150.467L147.943 180.467Z" fill="#8BC5E4"/>
<path d="M139.542 189.317C136.266 191.203 133.303 191.39 131.156 190.167L79.1948 160.167C81.3418 161.39 84.3048 161.203 87.5809 159.317L139.542 189.317Z" fill="#8BC5E4"/>
<path d="M131.159 190.167C129.004 188.94 127.672 186.293 127.67 182.518L75.708 152.518C75.71 156.293 77.042 158.94 79.197 160.167L131.159 190.167Z" fill="#8BC5E4"/>
<path d="M127.67 182.512C127.67 174.982 132.978 165.797 139.543 162.007L87.5812 132.007C81.0167 135.797 75.708 144.982 75.708 152.512L127.67 182.512Z" fill="#8BC5E4"/>
<path d="M139.543 162.007C142.471 160.316 145.294 159.936 147.474 160.919L95.513 130.919C93.333 129.936 90.51 130.316 87.5811 132.007L139.543 162.007Z" fill="#8BC5E4"/>
<path d="M147.467 160.916C147.627 160.987 147.783 161.067 147.936 161.153L95.9749 131.153C95.8219 131.067 95.6659 130.987 95.5059 130.916L147.467 160.916Z" fill="#8BC5E4"/>
<path d="M147.943 161.157C148.095 161.244 148.242 161.338 148.385 161.439L96.4238 131.439C96.2808 131.338 96.1338 131.244 95.9814 131.157L147.943 161.157Z" fill="#8BC5E4"/>
<path d="M148.385 161.439C150.332 162.811 151.414 165.426 151.415 168.797L99.4538 138.797C99.4528 135.426 98.3708 132.811 96.4238 131.439L148.385 161.439Z" fill="#8BC5E4"/>
<path d="M138.928 92.9919C99.099 115.987 66.7443 171.847 66.7443 217.617L14.7827 187.617C14.7827 141.847 47.1374 85.9869 86.9659 62.9919L138.928 92.9919Z" fill="#8BC5E4"/>
<path d="M66.7443 217.617C66.7442 240.553 74.8722 256.645 87.9962 264.097L36.0347 234.097C22.9107 226.645 14.7827 210.553 14.7827 187.617L66.7443 217.617Z" fill="#8BC5E4"/>
<path d="M87.9932 264.096C101.052 271.512 119.056 270.372 138.92 258.906L86.9587 228.906C67.0947 240.372 49.0907 241.512 36.0317 234.096L87.9932 264.096Z" fill="#8BC5E4"/>
<path d="M138.928 258.902C178.756 235.907 211.111 180.027 211.111 134.267L159.15 104.267C159.15 150.027 126.795 205.907 86.9663 228.902L138.928 258.902Z" fill="#8BC5E4"/>
<path d="M211.111 134.267C211.11 111.326 202.982 95.2361 189.859 87.7881L137.898 57.7881C151.021 65.2361 159.149 81.3261 159.149 104.267L211.111 134.267Z" fill="#8BC5E4"/>
<path d="M189.862 87.7891C176.804 80.3771 158.8 81.5221 138.936 92.9881L86.9741 62.9881C106.838 51.5221 124.842 50.3771 137.9 57.7891L189.862 87.7891Z" fill="#8BC5E4"/>
<path d="M138.928 101.322C156.833 90.985 173.029 89.933 184.766 96.596L132.804 66.596C121.067 59.933 104.871 60.985 86.9663 71.322L138.928 101.322Z" fill="#8BC5E4"/>
<path d="M184.763 96.595C196.558 103.289 203.851 117.772 203.853 138.449L151.892 108.449C151.89 87.772 144.597 73.289 132.802 66.595L184.763 96.595Z" fill="#8BC5E4"/>
<path d="M203.854 138.457C203.854 179.717 174.825 229.847 138.928 250.572L86.9663 220.572C122.863 199.847 151.892 149.717 151.892 108.457L203.854 138.457Z" fill="#8BC5E4"/>
<path d="M138.928 250.572C121.023 260.909 104.827 261.958 93.0894 255.293L41.1279 225.293C52.8659 231.958 69.0619 230.909 86.9661 220.572L138.928 250.572Z" fill="#8BC5E4"/>
<path d="M93.0915 255.294C81.2965 248.598 74.0035 234.112 74.0015 213.435L22.04 183.435C22.042 204.112 29.335 218.598 41.13 225.294L93.0915 255.294Z" fill="#8BC5E4"/>
<path d="M74.0015 213.427C74.0015 172.167 103.031 122.047 138.928 101.322L86.9659 71.322C51.0692 92.047 22.04 142.167 22.04 183.427L74.0015 213.427Z" fill="#8BC5E4"/>
<path d="M214.54 36.9569C216.177 36.0119 217.634 35.9059 218.682 36.5069L166.721 6.50689C165.673 5.90589 164.216 6.01189 162.579 6.95689L214.54 36.9569Z" fill="#8BC5E4"/>
<path d="M218.68 36.5061C219.728 37.1061 220.367 38.4131 220.368 40.2961L168.407 10.2961C168.406 8.4131 167.767 7.1061 166.719 6.5061L218.68 36.5061Z" fill="#8BC5E4"/>
<path d="M220.369 215.862C220.369 219.632 217.814 224.047 214.54 225.937L162.579 195.937C165.852 194.047 168.407 189.632 168.407 185.862L220.369 215.862Z" fill="#8BC5E4"/>
<path d="M62.5875 313.667C60.9504 314.612 59.4934 314.718 58.4454 314.117L6.48389 284.117C7.53189 284.718 8.98889 284.612 10.626 283.667L62.5875 313.667Z" fill="#8BC5E4"/>
<path d="M58.4474 314.118C57.3994 313.518 56.7603 312.211 56.7593 310.328L4.79785 280.328C4.79885 282.211 5.43785 283.518 6.48585 284.118L58.4474 314.118Z" fill="#8BC5E4"/>
<path d="M56.7593 134.762C56.7593 130.992 59.3142 126.577 62.5877 124.687L10.6262 94.687C7.35255 96.577 4.79785 100.992 4.79785 104.762L56.7593 134.762Z" fill="#8BC5E4"/>
<path d="M62.5876 119.177C56.742 122.552 51.9615 130.802 51.9615 137.532L0 107.532C0 100.802 4.7804 92.552 10.6261 89.177L62.5876 119.177Z" fill="#8BC5E4"/>
<path d="M51.9615 313.092C51.9615 316.464 53.1615 318.831 55.0935 319.93L3.132 289.93C1.2 288.831 0 286.464 0 283.092L51.9615 313.092Z" fill="#8BC5E4"/>
<path d="M55.1026 319.935C57.0246 321.023 59.6696 320.859 62.5796 319.182L10.6181 289.182C7.70811 290.859 5.06311 291.023 3.14111 289.935L55.1026 319.935Z" fill="#8BC5E4"/>
<path d="M214.54 231.447C220.386 228.072 225.166 219.822 225.166 213.092L173.205 183.092C173.205 189.822 168.424 198.072 162.579 201.447L214.54 231.447Z" fill="#8BC5E4"/>
<path d="M225.166 37.5321C225.166 34.1601 223.966 31.7931 222.034 30.6941L170.073 0.694092C172.005 1.79309 173.205 4.16009 173.205 7.53209L225.166 37.5321Z" fill="#8BC5E4"/>
<path d="M222.025 30.689C220.103 29.601 217.458 29.765 214.549 31.442L162.588 1.44204C165.497 -0.234963 168.142 -0.398963 170.064 0.689037L222.025 30.689Z" fill="#8BC5E4"/>
<path d="M214.54 36.9569C216.177 36.0119 217.634 35.9059 218.682 36.5069L166.721 6.50689C165.673 5.90589 164.216 6.01189 162.579 6.95689L214.54 36.9569Z" fill="#8BC5E4"/>
<path d="M218.68 36.5061C219.728 37.1061 220.367 38.4131 220.368 40.2961L168.407 10.2961C168.406 8.4131 167.767 7.1061 166.719 6.5061L218.68 36.5061Z" fill="#8BC5E4"/>
<path d="M220.369 215.862C220.369 219.632 217.814 224.047 214.54 225.937L162.579 195.937C165.852 194.047 168.407 189.632 168.407 185.862L220.369 215.862Z" fill="#8BC5E4"/>
<path d="M62.5875 313.667C60.9504 314.612 59.4934 314.718 58.4454 314.117L6.48389 284.117C7.53189 284.718 8.98889 284.612 10.626 283.667L62.5875 313.667Z" fill="#8BC5E4"/>
<path d="M58.4474 314.118C57.3994 313.518 56.7603 312.211 56.7593 310.328L4.79785 280.328C4.79885 282.211 5.43785 283.518 6.48585 284.118L58.4474 314.118Z" fill="#8BC5E4"/>
<path d="M56.7593 134.762C56.7593 130.992 59.3142 126.577 62.5877 124.687L10.6262 94.687C7.35255 96.577 4.79785 100.992 4.79785 104.762L56.7593 134.762Z" fill="#8BC5E4"/>
<path d="M66.7443 217.617C66.7443 171.847 99.099 115.987 138.928 92.9919L86.9659 62.9919C47.1374 85.9869 14.7827 141.847 14.7827 187.617L66.7443 217.617Z" fill="#8BC5E4"/>
<path d="M138.928 92.9921C158.794 81.5231 176.8 80.3761 189.86 87.7881L137.898 57.7881C124.838 50.3761 106.832 51.5231 86.9663 62.9921L138.928 92.9921Z" fill="#8BC5E4"/>
<path d="M189.857 87.7871C202.981 95.2331 211.109 111.321 211.111 134.259L159.149 104.259C159.147 81.3211 151.019 65.2331 137.895 57.7871L189.857 87.7871Z" fill="#8BC5E4"/>
<path d="M211.111 134.267C211.111 180.027 178.756 235.907 138.928 258.902L86.9663 228.902C126.795 205.907 159.15 150.027 159.15 104.267L211.111 134.267Z" fill="#8BC5E4"/>
<path d="M138.928 258.902C119.063 270.371 101.056 271.513 87.9967 264.097L36.0352 234.097C49.0942 241.513 67.1012 240.371 86.9664 228.902L138.928 258.902Z" fill="#8BC5E4"/>
<path d="M87.9982 264.099C74.8752 256.648 66.7462 240.558 66.7442 217.625L14.7827 187.625C14.7847 210.558 22.9137 226.648 36.0367 234.099L87.9982 264.099Z" fill="#8BC5E4"/>
<path d="M138.928 101.322C156.833 90.985 173.029 89.933 184.766 96.596L132.804 66.596C121.067 59.933 104.871 60.985 86.9663 71.322L138.928 101.322Z" fill="#8BC5E4"/>
<path d="M184.763 96.595C196.558 103.289 203.851 117.772 203.853 138.449L151.892 108.449C151.89 87.772 144.597 73.289 132.802 66.595L184.763 96.595Z" fill="#8BC5E4"/>
<path d="M203.854 138.457C203.854 179.717 174.825 229.847 138.928 250.572L86.9663 220.572C122.863 199.847 151.892 149.717 151.892 108.457L203.854 138.457Z" fill="#8BC5E4"/>
<path d="M138.928 250.572C121.023 260.909 104.827 261.958 93.0894 255.293L41.1279 225.293C52.8659 231.958 69.0619 230.909 86.9661 220.572L138.928 250.572Z" fill="#8BC5E4"/>
<path d="M93.0915 255.294C81.2965 248.598 74.0035 234.112 74.0015 213.435L22.04 183.435C22.042 204.112 29.335 218.598 41.13 225.294L93.0915 255.294Z" fill="#8BC5E4"/>
<path d="M74.0015 213.427C74.0015 172.167 103.031 122.047 138.928 101.322L86.9659 71.322C51.0692 92.047 22.04 142.167 22.04 183.427L74.0015 213.427Z" fill="#8BC5E4"/>
<path d="M147.943 180.467C150.169 176.622 151.416 172.422 151.416 168.802L99.4541 138.802C99.4541 142.422 98.2071 146.622 95.9814 150.467L147.943 180.467Z" fill="#8BC5E4"/>
<path d="M151.416 168.802C151.415 165.429 150.333 162.812 148.385 161.439L96.4238 131.439C98.3718 132.812 99.4538 135.429 99.4541 138.802L151.416 168.802Z" fill="#8BC5E4"/>
<path d="M148.391 161.443C148.248 161.342 148.101 161.248 147.949 161.161L95.9878 131.161C96.1398 131.248 96.2868 131.342 96.4298 131.443L148.391 161.443Z" fill="#8BC5E4"/>
<path d="M147.943 161.157C147.79 161.07 147.633 160.991 147.474 160.919L95.5127 130.919C95.6717 130.991 95.8287 131.07 95.9813 131.157L147.943 161.157Z" fill="#8BC5E4"/>
<path d="M147.474 160.919C145.296 159.937 142.474 160.316 139.547 162.004L87.5859 132.004C90.5129 130.316 93.3349 129.937 95.5129 130.919L147.474 160.919Z" fill="#8BC5E4"/>
<path d="M139.543 162.007C132.978 165.797 127.67 174.982 127.67 182.512L75.708 152.512C75.708 144.982 81.0167 135.797 87.5812 132.007L139.543 162.007Z" fill="#8BC5E4"/>
<path d="M127.67 182.512C127.67 186.289 129.002 188.939 131.157 190.167L79.1951 160.167C77.0401 158.939 75.7081 156.289 75.708 152.512L127.67 182.512Z" fill="#8BC5E4"/>
<path d="M131.168 190.173C133.313 191.389 136.27 191.201 139.538 189.32L87.5761 159.32C84.3081 161.201 81.3511 161.389 79.2061 160.173L131.168 190.173Z" fill="#8BC5E4"/>
<path d="M139.543 189.317C142.686 187.502 145.709 184.317 147.943 180.467L95.9816 150.467C93.7472 154.317 90.7248 157.502 87.5811 159.317L139.543 189.317Z" fill="#8BC5E4"/>
<path d="M150.368 182.007L154.655 197.662L157.781 192.307L170.806 199.947L167.68 205.302L183.389 201.402L179.094 185.762L175.968 191.117L162.943 183.477L166.078 178.107L150.368 182.007ZM95.7044 149.907L99.9825 165.567L103.109 160.202L116.134 167.852L113.008 173.207L128.717 169.297L124.43 153.662L121.304 159.007L108.279 151.357L111.405 146.012L95.7044 149.907ZM128.579 194.437L112.8 208.477L115.9 210.267L102.702 232.857L99.6101 231.042L95.1068 251.712L110.877 237.677L107.794 235.857L120.992 213.267L124.075 215.087L128.579 194.437ZM183.97 99.617L168.199 113.652L171.291 115.457L158.093 138.047L155.01 136.237L150.515 156.882L166.277 142.852L163.194 141.032L176.383 118.447L179.466 120.267L183.97 99.617ZM124.127 184.557L109.89 183.557V188.607L91.3569 199.307V194.257L77.1195 211.697L91.3569 212.707V207.647L109.89 196.947V202.007L124.127 184.557ZM201.957 139.622L187.72 138.622V143.672L169.187 154.372V149.322L154.958 166.757L169.187 167.772V162.712L187.72 152.012V157.072L201.957 139.622ZM139.543 193.367L131.523 214.357L135.914 211.822V233.132L131.523 235.667L139.543 247.397L147.562 226.407L143.163 228.947V207.637L147.562 205.097L139.543 193.367ZM139.543 103.917L131.523 124.917L135.914 122.382V143.682L131.523 146.217L139.543 157.947L147.562 136.957L143.163 139.497V118.197L147.562 115.657L139.543 103.917ZM151.416 168.802C151.416 172.422 150.169 176.622 147.943 180.467C145.709 184.317 142.686 187.502 139.543 189.317C132.978 193.097 127.669 190.052 127.669 182.512C127.669 174.982 132.978 165.797 139.543 162.007C142.686 160.192 145.709 159.887 147.943 161.157C150.169 162.432 151.416 165.182 151.416 168.802ZM138.928 92.992C99.0992 115.987 66.7445 171.847 66.7445 217.617C66.7445 263.377 99.0992 281.897 138.928 258.902C178.756 235.907 211.111 180.027 211.111 134.267C211.111 88.497 178.756 69.997 138.928 92.992ZM138.928 101.322C174.824 80.597 203.854 97.197 203.854 138.457C203.854 179.717 174.824 229.847 138.928 250.572C103.031 271.297 74.0018 254.687 74.0018 213.427C74.0018 172.167 103.031 122.047 138.928 101.322ZM62.5876 124.687L214.54 36.957C217.814 35.067 220.369 36.532 220.369 40.302V215.862C220.369 219.632 217.814 224.047 214.54 225.937L62.5876 313.667C59.314 315.557 56.7592 314.092 56.7592 310.322V134.762C56.7592 130.992 59.314 126.577 62.5876 124.687ZM62.5876 119.177C56.7419 122.552 51.9614 130.802 51.9614 137.532V313.092C51.9614 319.822 56.7419 322.552 62.5876 319.177L214.54 231.447C220.386 228.072 225.167 219.822 225.167 213.092V37.532C225.167 30.802 220.386 28.072 214.54 31.447L62.5876 119.177Z" fill="#8BC5E4"/>
<path fill-rule="evenodd" clip-rule="evenodd" d="M62.5876 124.687L214.54 36.957C217.814 35.067 220.369 36.532 220.369 40.302V215.862C220.369 219.632 217.814 224.047 214.54 225.937L62.5876 313.667C59.314 315.557 56.7592 314.092 56.7592 310.322V134.762C56.7592 130.992 59.314 126.577 62.5876 124.687ZM66.7445 217.617C66.7445 171.847 99.0992 115.987 138.928 92.992C178.756 69.997 211.111 88.497 211.111 134.267C211.111 180.027 178.756 235.907 138.928 258.902C99.0992 281.897 66.7445 263.377 66.7445 217.617Z" fill="white"/>
<path fill-rule="evenodd" clip-rule="evenodd" d="M138.928 101.322C174.824 80.597 203.854 97.197 203.854 138.457C203.854 179.717 174.824 229.847 138.928 250.572C103.031 271.297 74.0018 254.687 74.0018 213.427C74.0018 172.167 103.031 122.047 138.928 101.322ZM154.655 197.662L150.368 182.007L166.078 178.107L162.943 183.477L175.968 191.117L179.094 185.762L183.389 201.402L167.68 205.302L170.806 199.947L157.781 192.307L154.655 197.662ZM99.9825 165.567L95.7044 149.907L111.405 146.012L108.279 151.357L121.304 159.007L124.43 153.662L128.717 169.297L113.008 173.207L116.134 167.852L103.109 160.202L99.9825 165.567ZM112.8 208.477L128.579 194.437L124.075 215.087L120.992 213.267L107.794 235.857L110.877 237.677L95.1068 251.712L99.6101 231.042L102.702 232.857L115.9 210.267L112.8 208.477ZM168.199 113.652L183.97 99.617L179.466 120.267L176.383 118.447L163.194 141.032L166.277 142.852L150.515 156.882L155.01 136.237L158.093 138.047L171.291 115.457L168.199 113.652ZM109.89 183.557L124.127 184.557L109.89 202.007V196.947L91.3569 207.647V212.707L77.1195 211.697L91.3569 194.257V199.307L109.89 188.607V183.557ZM187.72 138.622L201.957 139.622L187.72 157.072V152.012L169.187 162.712V167.772L154.958 166.757L169.187 149.322V154.372L187.72 143.672V138.622ZM131.523 214.357L139.543 193.367L147.562 205.097L143.163 207.637V228.947L147.562 226.407L139.543 247.397L131.523 235.667L135.914 233.132V211.822L131.523 214.357ZM131.523 124.917L139.543 103.917L147.562 115.657L143.163 118.197V139.497L147.562 136.957L139.543 157.947L131.523 146.217L135.914 143.682V122.382L131.523 124.917ZM147.943 180.467C150.169 176.622 151.416 172.422 151.416 168.802C151.416 165.182 150.169 162.432 147.943 161.157C145.709 159.887 142.686 160.192 139.543 162.007C132.978 165.797 127.669 174.982 127.669 182.512C127.669 190.052 132.978 193.097 139.543 189.317C142.686 187.502 145.709 184.317 147.943 180.467Z" fill="white"/>
</svg>
