<svg width="226" height="326" viewBox="0 0 226 326" fill="none" xmlns="http://www.w3.org/2000/svg">
<path d="M80.627 130.162L93.9984 137.882L145.96 107.882L132.588 100.162L80.627 130.162Z" fill="#8BC5E4"/>
<path d="M93.9985 137.882V217.982L145.96 187.982V107.882L93.9985 137.882Z" fill="#8BC5E4"/>
<path d="M93.9984 217.982L80.627 210.262L132.588 180.262L145.96 187.982L93.9984 217.982Z" fill="#8BC5E4"/>
<path d="M80.627 210.262V130.162L132.588 100.162V180.262L80.627 210.262Z" fill="#8BC5E4"/>
<path d="M80.627 130.162L132.588 100.162L80.627 130.162Z" fill="#8BC5E4"/>
<path d="M18.9141 63.2122V70.5122L70.8756 40.5122V33.2122L18.9141 63.2122Z" fill="#8BC5E4"/>
<path d="M18.9141 70.5122L154.395 148.732L206.357 118.732L70.8756 40.5122L18.9141 70.5122Z" fill="#8BC5E4"/>
<path d="M154.395 148.732V141.432L206.357 111.432V118.732L154.395 148.732Z" fill="#8BC5E4"/>
<path d="M154.395 141.432L18.9141 63.2122L70.8756 33.2122L206.357 111.432L154.395 141.432Z" fill="#8BC5E4"/>
<path d="M18.9141 63.2122L70.8756 33.2122L18.9141 63.2122Z" fill="#8BC5E4"/>
<path d="M18.9141 79.6824V86.9824L70.8756 56.9824V49.6824L18.9141 79.6824Z" fill="#8BC5E4"/>
<path d="M18.9141 86.9822L46.0467 102.647L98.0082 72.6472L70.8756 56.9822L18.9141 86.9822Z" fill="#8BC5E4"/>
<path d="M46.0464 102.647V200.517L98.0079 170.517V72.6472L46.0464 102.647Z" fill="#8BC5E4"/>
<path d="M46.0467 200.517L18.9141 184.852L70.8756 154.852L98.0082 170.517L46.0467 200.517Z" fill="#8BC5E4"/>
<path d="M18.9141 184.852V192.142L70.8756 162.142V154.852L18.9141 184.852Z" fill="#8BC5E4"/>
<path d="M18.9141 192.142L154.395 270.362L206.357 240.362L70.8756 162.142L18.9141 192.142Z" fill="#8BC5E4"/>
<path d="M154.395 270.362V263.072L206.357 233.072V240.362L154.395 270.362Z" fill="#8BC5E4"/>
<path d="M154.395 263.072L129.064 248.447L181.025 218.447L206.357 233.072L154.395 263.072Z" fill="#8BC5E4"/>
<path d="M129.064 248.447V150.577L181.025 120.577V218.447L129.064 248.447Z" fill="#8BC5E4"/>
<path d="M129.064 150.577L154.395 165.202L206.357 135.202L181.025 120.577L129.064 150.577Z" fill="#8BC5E4"/>
<path d="M154.395 165.202V157.902L206.357 127.902V135.202L154.395 165.202Z" fill="#8BC5E4"/>
<path d="M154.395 157.902L18.9141 79.6824L70.8756 49.6824L206.357 127.902L154.395 157.902Z" fill="#8BC5E4"/>
<path d="M18.9141 79.6824L70.8756 49.6824L18.9141 79.6824Z" fill="#8BC5E4"/>
<path d="M52.3945 106.312L122.716 146.912L174.677 116.912L104.356 76.3123L52.3945 106.312Z" fill="#8BC5E4"/>
<path d="M122.716 146.912V244.782L174.677 214.782V116.912L122.716 146.912Z" fill="#8BC5E4"/>
<path d="M122.716 244.782L52.3945 204.182L104.356 174.182L174.677 214.782L122.716 244.782Z" fill="#8BC5E4"/>
<path d="M52.3945 204.182V106.312L104.356 76.3123V174.182L52.3945 204.182Z" fill="#8BC5E4"/>
<path d="M52.3945 106.312L104.356 76.3123L52.3945 106.312Z" fill="#8BC5E4"/>
<path d="M18.9141 203.532V210.832L70.8756 180.832V173.532L18.9141 203.532Z" fill="#8BC5E4"/>
<path d="M18.9141 210.832L154.395 289.052L206.357 259.052L70.8756 180.832L18.9141 210.832Z" fill="#8BC5E4"/>
<path d="M154.395 289.052V281.752L206.357 251.752V259.052L154.395 289.052Z" fill="#8BC5E4"/>
<path d="M154.395 281.752L18.9141 203.532L70.8756 173.532L206.357 251.752L154.395 281.752Z" fill="#8BC5E4"/>
<path d="M18.9141 203.532L70.8756 173.532L18.9141 203.532Z" fill="#8BC5E4"/>
<path d="M0 37.5322V213.092L51.9615 183.092V7.53223L0 37.5322Z" fill="#8BC5E4"/>
<path d="M10.626 231.447L162.579 319.177L214.54 289.177L62.5876 201.447L10.626 231.447Z" fill="#8BC5E4"/>
<path d="M173.205 313.092V137.532L225.167 107.532V283.092L173.205 313.092Z" fill="#8BC5E4"/>
<path d="M162.579 119.177L10.626 31.4473L62.5876 1.44727L214.54 89.1773L162.579 119.177Z" fill="#8BC5E4"/>
<path d="M10.626 31.4473L62.5876 1.44727L10.626 31.4473Z" fill="#8BC5E4"/>
<path d="M10.626 36.9573L162.579 124.687L214.54 94.6873L62.5876 6.95728L10.626 36.9573Z" fill="#8BC5E4"/>
<path d="M168.407 134.762V310.322L220.369 280.322V104.762L168.407 134.762Z" fill="#8BC5E4"/>
<path d="M162.579 313.667L10.626 225.937L62.5876 195.937L214.54 283.667L162.579 313.667Z" fill="#8BC5E4"/>
<path d="M4.79785 215.862V40.3022L56.7593 10.3022V185.862L4.79785 215.862Z" fill="#8BC5E4"/>
<path d="M10.626 36.9573L62.5876 6.95728L10.626 36.9573Z" fill="#8BC5E4"/>
<path d="M10.626 36.9573L162.579 124.687L214.54 94.6873L62.5876 6.95728L10.626 36.9573Z" fill="#8BC5E4"/>
<path d="M168.407 134.762V310.322L220.369 280.322V104.762L168.407 134.762Z" fill="#8BC5E4"/>
<path d="M162.579 313.667L10.626 225.937L62.5876 195.937L214.54 283.667L162.579 313.667Z" fill="#8BC5E4"/>
<path d="M4.79785 215.862V40.3022L56.7593 10.3022V185.862L4.79785 215.862Z" fill="#8BC5E4"/>
<path d="M10.626 36.9573L62.5876 6.95728L10.626 36.9573Z" fill="#8BC5E4"/>
<path d="M18.9141 70.5122V63.2122L70.8756 33.2122V40.5122L18.9141 70.5122Z" fill="#8BC5E4"/>
<path d="M18.9141 63.2122L154.395 141.432L206.357 111.432L70.8756 33.2122L18.9141 63.2122Z" fill="#8BC5E4"/>
<path d="M154.395 141.432V148.732L206.357 118.732V111.432L154.395 141.432Z" fill="#8BC5E4"/>
<path d="M154.395 148.732L18.9141 70.5122L70.8756 40.5122L206.357 118.732L154.395 148.732Z" fill="#8BC5E4"/>
<path d="M18.9141 70.5122L70.8756 40.5122L18.9141 70.5122Z" fill="#8BC5E4"/>
<path d="M18.9141 86.9824V79.6824L70.8756 49.6824V56.9824L18.9141 86.9824Z" fill="#8BC5E4"/>
<path d="M18.9141 79.6824L154.395 157.902L206.357 127.902L70.8756 49.6824L18.9141 79.6824Z" fill="#8BC5E4"/>
<path d="M154.395 157.902V165.202L206.357 135.202V127.902L154.395 157.902Z" fill="#8BC5E4"/>
<path d="M154.395 165.202L129.064 150.577L181.025 120.577L206.357 135.202L154.395 165.202Z" fill="#8BC5E4"/>
<path d="M129.064 150.577V248.447L181.025 218.447V120.577L129.064 150.577Z" fill="#8BC5E4"/>
<path d="M129.064 248.447L154.395 263.072L206.357 233.072L181.025 218.447L129.064 248.447Z" fill="#8BC5E4"/>
<path d="M154.395 263.072V270.362L206.357 240.362V233.072L154.395 263.072Z" fill="#8BC5E4"/>
<path d="M154.395 270.362L18.9141 192.142L70.8756 162.142L206.357 240.362L154.395 270.362Z" fill="#8BC5E4"/>
<path d="M18.9141 192.142V184.852L70.8756 154.852V162.142L18.9141 192.142Z" fill="#8BC5E4"/>
<path d="M18.9141 184.852L46.0467 200.517L98.0082 170.517L70.8756 154.852L18.9141 184.852Z" fill="#8BC5E4"/>
<path d="M46.0464 200.517V102.647L98.0079 72.6472V170.517L46.0464 200.517Z" fill="#8BC5E4"/>
<path d="M46.0467 102.647L18.9141 86.9822L70.8756 56.9822L98.0082 72.6472L46.0467 102.647Z" fill="#8BC5E4"/>
<path d="M18.9141 86.9822L70.8756 56.9822L18.9141 86.9822Z" fill="#8BC5E4"/>
<path d="M18.9141 210.832V203.532L70.8756 173.532V180.832L18.9141 210.832Z" fill="#8BC5E4"/>
<path d="M18.9141 203.532L154.395 281.752L206.357 251.752L70.8756 173.532L18.9141 203.532Z" fill="#8BC5E4"/>
<path d="M154.395 281.752V289.052L206.357 259.052V251.752L154.395 281.752Z" fill="#8BC5E4"/>
<path d="M154.395 289.052L18.9141 210.832L70.8756 180.832L206.357 259.052L154.395 289.052Z" fill="#8BC5E4"/>
<path d="M18.9141 210.832L70.8756 180.832L18.9141 210.832Z" fill="#8BC5E4"/>
<path d="M52.3945 106.312L122.716 146.912L174.677 116.912L104.356 76.3123L52.3945 106.312Z" fill="#8BC5E4"/>
<path d="M122.716 146.912V244.782L174.677 214.782V116.912L122.716 146.912Z" fill="#8BC5E4"/>
<path d="M122.716 244.782L52.3945 204.182L104.356 174.182L174.677 214.782L122.716 244.782Z" fill="#8BC5E4"/>
<path d="M52.3945 204.182V106.312L104.356 76.3123V174.182L52.3945 204.182Z" fill="#8BC5E4"/>
<path d="M52.3945 106.312L104.356 76.3123L52.3945 106.312Z" fill="#8BC5E4"/>
<path d="M93.9984 137.882L80.627 130.162L132.588 100.162L145.96 107.882L93.9984 137.882Z" fill="#8BC5E4"/>
<path d="M80.627 130.162V210.262L132.588 180.262V100.162L80.627 130.162Z" fill="#8BC5E4"/>
<path d="M80.627 210.262L93.9984 217.982L145.96 187.982L132.588 180.262L80.627 210.262Z" fill="#8BC5E4"/>
<path d="M93.9985 217.982V137.882L145.96 107.882V187.982L93.9985 217.982Z" fill="#8BC5E4"/>
<path d="M93.9985 137.882L145.96 107.882L93.9985 137.882Z" fill="#8BC5E4"/>
<path d="M10.6259 31.4471C7.70884 29.7631 5.05684 29.5991 3.13184 30.6941L55.0933 0.694141C57.0183 -0.400859 59.6703 -0.236859 62.5875 1.44714L10.6259 31.4471Z" fill="#8BC5E4"/>
<path d="M3.124 30.6992C1.198 31.7992 0.003 34.1612 0 37.5222L51.9615 7.52222C51.9645 4.16122 53.1595 1.79922 55.0855 0.699219L3.124 30.6992Z" fill="#8BC5E4"/>
<path d="M0 213.092C0 219.822 4.7805 228.072 10.6261 231.447L62.5877 201.447C56.742 198.072 51.9615 189.822 51.9615 183.092L0 213.092Z" fill="#8BC5E4"/>
<path d="M162.579 319.177C165.496 320.861 168.148 321.025 170.073 319.93L222.035 289.93C220.11 291.025 217.458 290.861 214.541 289.177L162.579 319.177Z" fill="#8BC5E4"/>
<path d="M170.081 319.925C172.007 318.826 173.202 316.463 173.205 313.102L225.167 283.102C225.164 286.463 223.969 288.826 222.043 289.925L170.081 319.925Z" fill="#8BC5E4"/>
<path d="M173.205 137.532C173.205 130.802 168.425 122.552 162.579 119.177L214.541 89.1772C220.386 92.5522 225.167 100.802 225.167 107.532L173.205 137.532Z" fill="#8BC5E4"/>
<path d="M162.579 124.687C165.853 126.577 168.408 130.992 168.408 134.762L220.369 104.762C220.369 100.992 217.814 96.5773 214.541 94.6873L162.579 124.687Z" fill="#8BC5E4"/>
<path d="M168.407 310.322C168.407 312.207 167.769 313.516 166.721 314.117L218.683 284.117C219.731 283.516 220.369 282.207 220.369 280.322L168.407 310.322Z" fill="#8BC5E4"/>
<path d="M166.722 314.116C165.675 314.718 164.219 314.613 162.584 313.67L214.545 283.67C216.18 284.613 217.636 284.718 218.683 284.116L166.722 314.116Z" fill="#8BC5E4"/>
<path d="M10.6262 225.937C7.35265 224.047 4.79785 219.632 4.79785 215.862L56.7593 185.862C56.7593 189.632 59.3142 194.047 62.5878 195.937L10.6262 225.937Z" fill="#8BC5E4"/>
<path d="M4.79785 40.3023C4.79805 38.4173 5.43605 37.1083 6.48405 36.5073L58.4456 6.50732C57.3976 7.10832 56.7595 8.41732 56.7593 10.3023L4.79785 40.3023Z" fill="#8BC5E4"/>
<path d="M6.48291 36.5082C7.52991 35.9062 8.98591 36.0112 10.6209 36.9542L62.5824 6.95419C60.9474 6.01119 59.4914 5.90619 58.4444 6.50819L6.48291 36.5082Z" fill="#8BC5E4"/>
<path d="M162.579 124.687C165.853 126.577 168.408 130.992 168.408 134.762L220.369 104.762C220.369 100.992 217.814 96.5773 214.541 94.6873L162.579 124.687Z" fill="#8BC5E4"/>
<path d="M168.407 310.322C168.407 312.207 167.769 313.516 166.721 314.117L218.683 284.117C219.731 283.516 220.369 282.207 220.369 280.322L168.407 310.322Z" fill="#8BC5E4"/>
<path d="M166.722 314.116C165.675 314.718 164.219 314.613 162.584 313.67L214.545 283.67C216.18 284.613 217.636 284.718 218.683 284.116L166.722 314.116Z" fill="#8BC5E4"/>
<path d="M10.6262 225.937C7.35265 224.047 4.79785 219.632 4.79785 215.862L56.7593 185.862C56.7593 189.632 59.3142 194.047 62.5878 195.937L10.6262 225.937Z" fill="#8BC5E4"/>
<path d="M4.79785 40.3023C4.79805 38.4173 5.43605 37.1083 6.48405 36.5073L58.4456 6.50732C57.3976 7.10832 56.7595 8.41732 56.7593 10.3023L4.79785 40.3023Z" fill="#8BC5E4"/>
<path d="M6.48291 36.5082C7.52991 35.9062 8.98591 36.0112 10.6209 36.9542L62.5824 6.95419C60.9474 6.01119 59.4914 5.90619 58.4444 6.50819L6.48291 36.5082Z" fill="#8BC5E4"/>
<path d="M80.627 130.162L93.9984 137.882V217.982L80.627 210.262V130.162ZM18.914 63.2123V70.5123L154.395 148.732V141.432L18.914 63.2123ZM18.914 79.6823V86.9823L46.0466 102.647V200.517L18.914 184.852V192.142L154.395 270.362V263.072L129.064 248.447V150.577L154.395 165.202V157.902L18.914 79.6823ZM52.3945 106.312L122.716 146.912V244.782L52.3945 204.182V106.312ZM18.914 203.532V210.832L154.395 289.052V281.752L18.914 203.532ZM10.6261 31.4473C4.78046 28.0723 0 30.8023 0 37.5323V213.092C0 219.822 4.78046 228.072 10.6261 231.447L162.579 319.177C168.425 322.552 173.205 319.822 173.205 313.092V137.532C173.205 130.802 168.425 122.552 162.579 119.177L10.6261 31.4473ZM10.6261 36.9573L162.579 124.687C165.853 126.577 168.407 130.992 168.407 134.762V310.322C168.407 314.092 165.853 315.557 162.579 313.667L10.6261 225.937C7.35256 224.047 4.79778 219.632 4.79778 215.862V40.3023C4.79778 36.5323 7.35256 35.0673 10.6261 36.9573Z" fill="#8BC5E4"/>
<path fill-rule="evenodd" clip-rule="evenodd" d="M10.6261 36.9573L162.579 124.687C165.853 126.577 168.407 130.992 168.407 134.762V310.322C168.407 314.092 165.853 315.557 162.579 313.667L10.6261 225.937C7.35256 224.047 4.79778 219.632 4.79778 215.862V40.3023C4.79778 36.5323 7.35256 35.0673 10.6261 36.9573ZM18.914 70.5123V63.2123L154.395 141.432V148.732L18.914 70.5123ZM18.914 86.9823V79.6823L154.395 157.902V165.202L129.064 150.577V248.447L154.395 263.072V270.362L18.914 192.142V184.852L46.0466 200.517V102.647L18.914 86.9823ZM18.914 210.832V203.532L154.395 281.752V289.052L18.914 210.832Z" fill="white"/>
<path fill-rule="evenodd" clip-rule="evenodd" d="M52.3945 106.312L122.716 146.912V244.782L52.3945 204.182V106.312ZM93.9984 137.882L80.627 130.162V210.262L93.9984 217.982V137.882Z" fill="white"/>
</svg>
