<svg width="246" height="202" viewBox="0 0 246 202" fill="none" xmlns="http://www.w3.org/2000/svg">
<path d="M69.9531 80.3647L68.6367 81.1247V141.125L69.9531 140.365V80.3647Z" fill="#8BC5E4"/>
<path d="M68.6368 81.125L58.3918 87.04V147.04L68.6368 141.125V81.125Z" fill="#8BC5E4"/>
<path d="M58.3917 87.0399L50.1211 82.2649V142.265L58.3917 147.04V87.0399Z" fill="#8BC5E4"/>
<path d="M50.1211 82.265L56.4951 78.585V138.585L50.1211 142.265V82.265Z" fill="#8BC5E4"/>
<path d="M56.4952 78.585L32.4976 76.02V136.02L56.4952 138.585V78.585Z" fill="#8BC5E4"/>
<path d="M32.4976 76.02L37.6418 89.47V149.47L32.4976 136.02V76.02Z" fill="#8BC5E4"/>
<path d="M37.6418 89.47L43.3056 86.2V146.2L37.6418 149.47V89.47Z" fill="#8BC5E4"/>
<path d="M43.3057 86.2L51.5762 90.975V150.975L43.3057 146.2V86.2Z" fill="#8BC5E4"/>
<path d="M51.576 90.9749L40.335 97.4649V157.465L51.576 150.975V90.9749Z" fill="#8BC5E4"/>
<path d="M40.335 97.4648L83.4285 122.345V182.345L40.335 157.465V97.4648Z" fill="#8BC5E4"/>
<path d="M83.4285 122.345L94.7128 115.83V175.83L83.4285 182.345V122.345Z" fill="#8BC5E4"/>
<path d="M94.7129 115.83L103.027 120.63V180.63L94.7129 175.83V115.83Z" fill="#8BC5E4"/>
<path d="M103.027 120.63L97.3542 123.905V183.905L103.027 180.63V120.63Z" fill="#8BC5E4"/>
<path d="M97.3542 123.905L120.65 126.875V186.875L97.3542 183.905V123.905Z" fill="#8BC5E4"/>
<path d="M120.65 126.875L116.216 113.015V173.015L120.65 186.875V126.875Z" fill="#8BC5E4"/>
<path d="M116.216 113.015L109.842 116.695V176.695L116.216 173.015V113.015Z" fill="#8BC5E4"/>
<path d="M109.842 116.695L101.529 111.895V171.895L109.842 176.695V116.695Z" fill="#8BC5E4"/>
<path d="M101.529 111.895L113.047 105.245V165.245L101.529 171.895V111.895Z" fill="#8BC5E4"/>
<path d="M113.047 105.245L69.9531 80.3647V140.365L113.047 165.245V105.245Z" fill="#8BC5E4"/>
<path d="M69.9531 83.4148L107.764 105.245V165.245L69.9531 143.415V83.4148Z" fill="#8BC5E4"/>
<path d="M107.764 105.245L83.4199 119.3V179.3L107.764 165.245V105.245Z" fill="#8BC5E4"/>
<path d="M83.4198 119.3L45.6091 97.4697V157.47L83.4198 179.3V119.3Z" fill="#8BC5E4"/>
<path d="M45.6091 97.4698L69.9531 83.4148V143.415L45.6091 157.47V97.4698Z" fill="#8BC5E4"/>
<path d="M72.3001 88.5898L69.6587 90.1148V150.115L72.3001 148.59V88.5898Z" fill="#8BC5E4"/>
<path d="M69.6587 90.1147L95.7521 105.18V165.18L69.6587 150.115V90.1147Z" fill="#8BC5E4"/>
<path d="M95.7522 105.18L98.3936 103.655V163.655L95.7522 165.18V105.18Z" fill="#8BC5E4"/>
<path d="M98.3934 103.655L72.3 88.5898V148.59L98.3934 163.655V103.655Z" fill="#8BC5E4"/>
<path d="M64.7918 92.9248L62.1504 94.4498V154.45L64.7918 152.925V92.9248Z" fill="#8BC5E4"/>
<path d="M62.1504 94.45L88.2438 109.515V169.515L62.1504 154.45V94.45Z" fill="#8BC5E4"/>
<path d="M88.2437 109.515L90.885 107.99V167.99L88.2437 169.515V109.515Z" fill="#8BC5E4"/>
<path d="M90.885 107.99L64.7917 92.9248V152.925L90.885 167.99V107.99Z" fill="#8BC5E4"/>
<path d="M57.2831 97.2598L54.6504 98.7798V158.78L57.2831 157.26V97.2598Z" fill="#8BC5E4"/>
<path d="M54.6504 98.7798L80.7438 113.845V173.845L54.6504 158.78V98.7798Z" fill="#8BC5E4"/>
<path d="M80.7439 113.845L83.3766 112.325V172.325L80.7439 173.845V113.845Z" fill="#8BC5E4"/>
<path d="M83.3766 112.325L57.2832 97.2598V157.26L83.3766 172.325V112.325Z" fill="#8BC5E4"/>
<path d="M154.867 56.3898L193.31 56.1748V116.175L154.867 116.39V56.3898Z" fill="#8BC5E4"/>
<path d="M193.31 56.1748L193.154 46.9648V106.965L193.31 116.175V56.1748Z" fill="#8BC5E4"/>
<path d="M193.154 46.9648L228.237 60.2498V120.25L193.154 106.965V46.9648Z" fill="#8BC5E4"/>
<path d="M228.237 60.25L193.604 74.015V134.015L228.237 120.25V60.25Z" fill="#8BC5E4"/>
<path d="M193.604 74.0149L193.457 64.8899V124.89L193.604 134.015V74.0149Z" fill="#8BC5E4"/>
<path d="M193.457 64.8899L155.014 65.1049V125.105L193.457 124.89V64.8899Z" fill="#8BC5E4"/>
<path d="M155.014 65.1049L154.867 56.3899V116.39L155.014 125.105V65.1049Z" fill="#8BC5E4"/>
<path d="M148.831 10.5149L149.203 32.7099V92.7099L148.831 70.5149V10.5149Z" fill="#8BC5E4"/>
<path d="M149.203 32.7099L165.155 32.6199V92.6199L149.203 92.7099V32.7099Z" fill="#8BC5E4"/>
<path d="M165.155 32.6199L142.154 52.8699V112.87L165.155 92.6199V32.6199Z" fill="#8BC5E4"/>
<path d="M142.154 52.8699L118.303 32.8799V92.8799L142.154 112.87V52.8699Z" fill="#8BC5E4"/>
<path d="M118.303 32.8799L134.108 32.7949V92.7949L118.303 92.8799V32.8799Z" fill="#8BC5E4"/>
<path d="M134.108 32.7949L133.736 10.5999V70.5999L134.108 92.7949V32.7949Z" fill="#8BC5E4"/>
<path d="M133.736 10.5999L148.831 10.5149V70.5149L133.736 70.5999V10.5999Z" fill="#8BC5E4"/>
<path d="M127.622 65.0598L89.1702 65.2798V125.28L127.622 125.06V65.0598Z" fill="#8BC5E4"/>
<path d="M89.1702 65.2798L89.3347 74.4948V134.495L89.1702 125.28V65.2798Z" fill="#8BC5E4"/>
<path d="M89.3348 74.495L54.2522 61.21V121.21L89.3348 134.495V74.495Z" fill="#8BC5E4"/>
<path d="M54.2522 61.2099L88.8759 47.4399V107.44L54.2522 121.21V61.2099Z" fill="#8BC5E4"/>
<path d="M88.876 47.4399L89.0318 56.5699V116.57L88.876 107.44V47.4399Z" fill="#8BC5E4"/>
<path d="M89.0317 56.57L127.475 56.355V116.355L89.0317 116.57V56.57Z" fill="#8BC5E4"/>
<path d="M127.475 56.355L127.622 65.06V125.06L127.475 116.355V56.355Z" fill="#8BC5E4"/>
<path d="M134.238 111.53L133.866 89.335V149.335L134.238 171.53V111.53Z" fill="#8BC5E4"/>
<path d="M133.866 89.335L117.914 89.425V149.425L133.866 149.335V89.335Z" fill="#8BC5E4"/>
<path d="M117.914 89.4248L140.915 69.1748V129.175L117.914 149.425V89.4248Z" fill="#8BC5E4"/>
<path d="M140.915 69.1748L164.766 89.1648V149.165L140.915 129.175V69.1748Z" fill="#8BC5E4"/>
<path d="M164.766 89.1648L148.952 89.2548V149.255L164.766 149.165V89.1648Z" fill="#8BC5E4"/>
<path d="M148.952 89.2549L149.333 111.445V171.445L148.952 149.255V89.2549Z" fill="#8BC5E4"/>
<path d="M149.333 111.445L134.238 111.53V171.53L149.333 171.445V111.445Z" fill="#8BC5E4"/>
<path d="M68.6367 81.1247L69.9531 80.3647V140.365L68.6367 141.125V81.1247Z" fill="#8BC5E4"/>
<path d="M69.9531 80.3647L113.047 105.245V165.245L69.9531 140.365V80.3647Z" fill="#8BC5E4"/>
<path d="M113.047 105.245L101.529 111.895V171.895L113.047 165.245V105.245Z" fill="#8BC5E4"/>
<path d="M101.529 111.895L109.842 116.695V176.695L101.529 171.895V111.895Z" fill="#8BC5E4"/>
<path d="M109.842 116.695L116.216 113.015V173.015L109.842 176.695V116.695Z" fill="#8BC5E4"/>
<path d="M116.216 113.015L120.65 126.875V186.875L116.216 173.015V113.015Z" fill="#8BC5E4"/>
<path d="M120.65 126.875L97.3542 123.905V183.905L120.65 186.875V126.875Z" fill="#8BC5E4"/>
<path d="M97.3542 123.905L103.027 120.63V180.63L97.3542 183.905V123.905Z" fill="#8BC5E4"/>
<path d="M103.027 120.63L94.7129 115.83V175.83L103.027 180.63V120.63Z" fill="#8BC5E4"/>
<path d="M94.7128 115.83L83.4285 122.345V182.345L94.7128 175.83V115.83Z" fill="#8BC5E4"/>
<path d="M83.4285 122.345L40.335 97.4648V157.465L83.4285 182.345V122.345Z" fill="#8BC5E4"/>
<path d="M40.335 97.4649L51.576 90.9749V150.975L40.335 157.465V97.4649Z" fill="#8BC5E4"/>
<path d="M51.5762 90.975L43.3057 86.2V146.2L51.5762 150.975V90.975Z" fill="#8BC5E4"/>
<path d="M43.3056 86.2L37.6418 89.47V149.47L43.3056 146.2V86.2Z" fill="#8BC5E4"/>
<path d="M37.6418 89.47L32.4976 76.02V136.02L37.6418 149.47V89.47Z" fill="#8BC5E4"/>
<path d="M32.4976 76.02L56.4952 78.585V138.585L32.4976 136.02V76.02Z" fill="#8BC5E4"/>
<path d="M56.4951 78.585L50.1211 82.265V142.265L56.4951 138.585V78.585Z" fill="#8BC5E4"/>
<path d="M50.1211 82.2649L58.3917 87.0399V147.04L50.1211 142.265V82.2649Z" fill="#8BC5E4"/>
<path d="M58.3918 87.04L68.6368 81.125V141.125L58.3918 147.04V87.04Z" fill="#8BC5E4"/>
<path d="M193.31 56.1748L154.867 56.3898V116.39L193.31 116.175V56.1748Z" fill="#8BC5E4"/>
<path d="M154.867 56.3899L155.014 65.1049V125.105L154.867 116.39V56.3899Z" fill="#8BC5E4"/>
<path d="M155.014 65.1049L193.457 64.8899V124.89L155.014 125.105V65.1049Z" fill="#8BC5E4"/>
<path d="M193.457 64.8899L193.604 74.0149V134.015L193.457 124.89V64.8899Z" fill="#8BC5E4"/>
<path d="M193.604 74.015L228.237 60.25V120.25L193.604 134.015V74.015Z" fill="#8BC5E4"/>
<path d="M228.237 60.2498L193.154 46.9648V106.965L228.237 120.25V60.2498Z" fill="#8BC5E4"/>
<path d="M193.154 46.9648L193.31 56.1748V116.175L193.154 106.965V46.9648Z" fill="#8BC5E4"/>
<path d="M149.203 32.7099L148.831 10.5149V70.5149L149.203 92.7099V32.7099Z" fill="#8BC5E4"/>
<path d="M148.831 10.5149L133.736 10.5999V70.5999L148.831 70.5149V10.5149Z" fill="#8BC5E4"/>
<path d="M133.736 10.5999L134.108 32.7949V92.7949L133.736 70.5999V10.5999Z" fill="#8BC5E4"/>
<path d="M134.108 32.7949L118.303 32.8799V92.8799L134.108 92.7949V32.7949Z" fill="#8BC5E4"/>
<path d="M118.303 32.8799L142.154 52.8699V112.87L118.303 92.8799V32.8799Z" fill="#8BC5E4"/>
<path d="M142.154 52.8699L165.155 32.6199V92.6199L142.154 112.87V52.8699Z" fill="#8BC5E4"/>
<path d="M165.155 32.6199L149.203 32.7099V92.7099L165.155 92.6199V32.6199Z" fill="#8BC5E4"/>
<path d="M89.1702 65.2798L127.622 65.0598V125.06L89.1702 125.28V65.2798Z" fill="#8BC5E4"/>
<path d="M127.622 65.06L127.475 56.355V116.355L127.622 125.06V65.06Z" fill="#8BC5E4"/>
<path d="M127.475 56.355L89.0317 56.57V116.57L127.475 116.355V56.355Z" fill="#8BC5E4"/>
<path d="M89.0318 56.5699L88.876 47.4399V107.44L89.0318 116.57V56.5699Z" fill="#8BC5E4"/>
<path d="M88.8759 47.4399L54.2522 61.2099V121.21L88.8759 107.44V47.4399Z" fill="#8BC5E4"/>
<path d="M54.2522 61.21L89.3348 74.495V134.495L54.2522 121.21V61.21Z" fill="#8BC5E4"/>
<path d="M89.3347 74.4948L89.1702 65.2798V125.28L89.3347 134.495V74.4948Z" fill="#8BC5E4"/>
<path d="M133.866 89.335L134.238 111.53V171.53L133.866 149.335V89.335Z" fill="#8BC5E4"/>
<path d="M134.238 111.53L149.333 111.445V171.445L134.238 171.53V111.53Z" fill="#8BC5E4"/>
<path d="M149.333 111.445L148.952 89.2549V149.255L149.333 171.445V111.445Z" fill="#8BC5E4"/>
<path d="M148.952 89.2548L164.766 89.1648V149.165L148.952 149.255V89.2548Z" fill="#8BC5E4"/>
<path d="M164.766 89.1648L140.915 69.1748V129.175L164.766 149.165V89.1648Z" fill="#8BC5E4"/>
<path d="M140.915 69.1748L117.914 89.4248V149.425L140.915 129.175V69.1748Z" fill="#8BC5E4"/>
<path d="M117.914 89.425L133.866 89.335V149.335L117.914 149.425V89.425Z" fill="#8BC5E4"/>
<path d="M69.9531 83.4148L107.764 105.245V165.245L69.9531 143.415V83.4148Z" fill="#8BC5E4"/>
<path d="M107.764 105.245L83.4199 119.3V179.3L107.764 165.245V105.245Z" fill="#8BC5E4"/>
<path d="M83.4198 119.3L45.6091 97.4697V157.47L83.4198 179.3V119.3Z" fill="#8BC5E4"/>
<path d="M45.6091 97.4698L69.9531 83.4148V143.415L45.6091 157.47V97.4698Z" fill="#8BC5E4"/>
<path d="M69.6587 90.1148L72.3001 88.5898V148.59L69.6587 150.115V90.1148Z" fill="#8BC5E4"/>
<path d="M72.3 88.5898L98.3934 103.655V163.655L72.3 148.59V88.5898Z" fill="#8BC5E4"/>
<path d="M98.3936 103.655L95.7522 105.18V165.18L98.3936 163.655V103.655Z" fill="#8BC5E4"/>
<path d="M95.7521 105.18L69.6587 90.1147V150.115L95.7521 165.18V105.18Z" fill="#8BC5E4"/>
<path d="M62.1504 94.4498L64.7918 92.9248V152.925L62.1504 154.45V94.4498Z" fill="#8BC5E4"/>
<path d="M64.7917 92.9248L90.885 107.99V167.99L64.7917 152.925V92.9248Z" fill="#8BC5E4"/>
<path d="M90.885 107.99L88.2437 109.515V169.515L90.885 167.99V107.99Z" fill="#8BC5E4"/>
<path d="M88.2438 109.515L62.1504 94.45V154.45L88.2438 169.515V109.515Z" fill="#8BC5E4"/>
<path d="M54.6504 98.7798L57.2831 97.2598V157.26L54.6504 158.78V98.7798Z" fill="#8BC5E4"/>
<path d="M57.2832 97.2598L83.3766 112.325V172.325L57.2832 157.26V97.2598Z" fill="#8BC5E4"/>
<path d="M83.3766 112.325L80.7439 113.845V173.845L83.3766 172.325V112.325Z" fill="#8BC5E4"/>
<path d="M80.7438 113.845L54.6504 98.7798V158.78L80.7438 173.845V113.845Z" fill="#8BC5E4"/>
<path d="M207.608 22.27C230.921 35.73 242.578 53.365 242.578 71V131C242.578 113.365 230.921 95.73 207.608 82.27V22.27Z" fill="#8BC5E4"/>
<path d="M242.578 70.9968C242.579 88.6308 230.926 106.265 207.616 119.725V179.725C230.926 166.265 242.579 148.631 242.578 130.997V70.9968Z" fill="#8BC5E4"/>
<path d="M207.608 119.73C160.981 146.65 85.429 146.65 38.8022 119.73V179.73C85.429 206.65 160.981 206.65 207.608 179.73V119.73Z" fill="#8BC5E4"/>
<path d="M38.8022 119.73C15.489 106.27 3.83203 88.635 3.83203 71V131C3.83203 148.635 15.489 166.27 38.8022 179.73V119.73Z" fill="#8BC5E4"/>
<path d="M3.83203 71.0029C3.83103 53.3689 15.484 35.7349 38.794 22.2749V82.2749C15.484 95.7349 3.83103 113.369 3.83203 131.003V71.0029Z" fill="#8BC5E4"/>
<path d="M38.8022 22.2698C85.429 -4.65017 160.981 -4.65017 207.608 22.2698V82.2698C160.981 55.3498 85.429 55.3498 38.8022 82.2698V22.2698Z" fill="#8BC5E4"/>
<path d="M209.808 20.9999C161.994 -6.60511 84.4157 -6.60511 36.6025 20.9999V80.9999C84.4157 53.3949 161.994 53.3949 209.808 80.9999V20.9999Z" fill="#8BC5E4"/>
<path d="M36.6027 21C12.6962 34.802 0.743164 52.901 0.743164 71V131C0.743164 112.901 12.6962 94.802 36.6027 81V21Z" fill="#8BC5E4"/>
<path d="M0.742188 70.9968C0.741188 89.0938 12.6922 107.192 36.5942 120.995V180.995C12.6922 167.192 0.741188 149.094 0.742188 130.997V70.9968Z" fill="#8BC5E4"/>
<path d="M36.6025 121C84.4157 148.605 161.994 148.605 209.808 121V181C161.994 208.605 84.4157 208.605 36.6025 181V121Z" fill="#8BC5E4"/>
<path d="M209.808 121C233.714 107.198 245.667 89.099 245.667 71V131C245.667 149.099 233.714 167.198 209.808 181V121Z" fill="#8BC5E4"/>
<path d="M245.668 71.0029C245.669 52.9059 233.718 34.8079 209.816 21.0049V81.0049C233.718 94.8079 245.669 112.906 245.668 131.003V71.0029Z" fill="#8BC5E4"/>
<path d="M207.608 22.27C230.921 35.73 242.578 53.365 242.578 71V131C242.578 113.365 230.921 95.73 207.608 82.27V22.27Z" fill="#8BC5E4"/>
<path d="M242.578 70.9968C242.579 88.6308 230.926 106.265 207.616 119.725V179.725C230.926 166.265 242.579 148.631 242.578 130.997V70.9968Z" fill="#8BC5E4"/>
<path d="M207.608 119.73C160.981 146.65 85.429 146.65 38.8022 119.73V179.73C85.429 206.65 160.981 206.65 207.608 179.73V119.73Z" fill="#8BC5E4"/>
<path d="M38.8022 119.73C15.489 106.27 3.83203 88.635 3.83203 71V131C3.83203 148.635 15.489 166.27 38.8022 179.73V119.73Z" fill="#8BC5E4"/>
<path d="M3.83203 71.0029C3.83103 53.3689 15.484 35.7349 38.794 22.2749V82.2749C15.484 95.7349 3.83103 113.369 3.83203 131.003V71.0029Z" fill="#8BC5E4"/>
<path d="M38.8022 22.2698C85.429 -4.65017 160.981 -4.65017 207.608 22.2698V82.2698C160.981 55.3498 85.429 55.3498 38.8022 82.2698V22.2698Z" fill="#8BC5E4"/>
<path d="M69.9532 80.3649L58.3918 87.0399L50.1212 82.2649L56.4952 78.5849L32.4976 76.0199L37.6418 89.4699L43.3056 86.1999L51.5761 90.9749L40.3351 97.4649L83.4286 122.345L94.7129 115.83L103.027 120.63L97.3542 123.905L120.65 126.875L116.216 113.015L109.842 116.695L101.528 111.895L113.047 105.245L69.9532 80.3649ZM69.9532 83.4149L107.764 105.245L83.4199 119.3L45.6092 97.4699L69.9532 83.4149ZM72.3001 88.5899L69.6587 90.1149L95.7521 105.18L98.3935 103.655L72.3001 88.5899ZM64.7917 92.9249L62.1503 94.4499L88.2437 109.515L90.885 107.99L64.7917 92.9249ZM57.2832 97.2599L54.6505 98.7799L80.7439 113.845L83.3766 112.325L57.2832 97.2599ZM207.608 22.2699C254.235 49.1899 254.235 92.8099 207.608 119.73C160.981 146.65 85.4291 146.65 38.8023 119.73C-7.82455 92.8099 -7.82454 49.1899 38.8023 22.2699C85.4291 -4.65011 160.981 -4.65011 207.608 22.2699ZM209.808 20.9999C161.994 -6.60511 84.4158 -6.60511 36.6026 20.9999C-11.2107 48.6049 -11.2107 93.3949 36.6026 121C84.4158 148.605 161.994 148.605 209.808 121C257.621 93.3949 257.621 48.6049 209.808 20.9999ZM154.867 56.3899L193.31 56.1749L193.154 46.9649L228.237 60.2499L193.604 74.0149L193.457 64.8899L155.014 65.1049L154.867 56.3899ZM148.831 10.5149L149.203 32.7099L165.155 32.6199L142.154 52.8699L118.303 32.8799L134.108 32.7949L133.736 10.5999L148.831 10.5149ZM127.622 65.0599L89.1703 65.2799L89.3348 74.4949L54.2522 61.2099L88.8758 47.4399L89.0317 56.5699L127.475 56.3549L127.622 65.0599ZM134.238 111.53L133.866 89.3349L117.914 89.4249L140.915 69.1749L164.766 89.1649L148.952 89.2549L149.333 111.445L134.238 111.53Z" fill="#8BC5E4"/>
<path fill-rule="evenodd" clip-rule="evenodd" d="M207.608 22.2699C254.235 49.1899 254.235 92.8099 207.608 119.73C160.981 146.65 85.4291 146.65 38.8023 119.73C-7.82455 92.8099 -7.82454 49.1899 38.8023 22.2699C85.4291 -4.65011 160.981 -4.65011 207.608 22.2699ZM69.9532 80.3649L113.047 105.245L101.528 111.895L109.842 116.695L116.216 113.015L120.65 126.875L97.3542 123.905L103.027 120.63L94.7129 115.83L83.4286 122.345L40.3351 97.4649L51.5761 90.9749L43.3056 86.1999L37.6418 89.4699L32.4976 76.0199L56.4952 78.5849L50.1212 82.2649L58.3918 87.0399L69.9532 80.3649ZM193.31 56.1749L154.867 56.3899L155.014 65.1049L193.457 64.8899L193.604 74.0149L228.237 60.2499L193.154 46.9649L193.31 56.1749ZM149.203 32.7099L148.831 10.5149L133.736 10.5999L134.108 32.7949L118.303 32.8799L142.154 52.8699L165.155 32.6199L149.203 32.7099ZM89.1703 65.2799L127.622 65.0599L127.475 56.3549L89.0317 56.5699L88.8758 47.4399L54.2522 61.2099L89.3348 74.4949L89.1703 65.2799ZM133.866 89.3349L134.238 111.53L149.333 111.445L148.952 89.2549L164.766 89.1649L140.915 69.1749L117.914 89.4249L133.866 89.3349Z" fill="white"/>
<path fill-rule="evenodd" clip-rule="evenodd" d="M69.9532 83.4149L107.764 105.245L83.4199 119.3L45.6092 97.4699L69.9532 83.4149ZM69.6587 90.1149L72.3001 88.5899L98.3935 103.655L95.7521 105.18L69.6587 90.1149ZM62.1503 94.4499L64.7917 92.9249L90.885 107.99L88.2437 109.515L62.1503 94.4499ZM54.6505 98.7799L57.2832 97.2599L83.3766 112.325L80.7439 113.845L54.6505 98.7799Z" fill="white"/>
</svg>
