<svg width="274" height="354" viewBox="0 0 274 354" fill="none" xmlns="http://www.w3.org/2000/svg">
<path d="M51.9615 166.21V341.79L0 311.79V136.21L51.9615 166.21Z" fill="#8BC5E4"/>
<path d="M62.4317 347.955L263.194 232.045L211.232 202.045L10.4702 317.955L62.4317 347.955Z" fill="#8BC5E4"/>
<path d="M273.664 213.79V38.21L221.703 8.20996V183.79L273.664 213.79Z" fill="#8BC5E4"/>
<path d="M263.194 32.0449L62.4317 147.955L10.4702 117.955L211.232 2.04492L263.194 32.0449Z" fill="#8BC5E4"/>
<path d="M62.4317 147.955L10.4702 117.955L62.4317 147.955Z" fill="#8BC5E4"/>
<path d="M62.4317 153.465L263.194 37.5549L211.232 7.55493L10.4702 123.465L62.4317 153.465Z" fill="#8BC5E4"/>
<path d="M268.936 40.9399V216.52L216.974 186.52V10.9399L268.936 40.9399Z" fill="#8BC5E4"/>
<path d="M263.194 226.525L62.4317 342.435L10.4702 312.435L211.232 196.525L263.194 226.525Z" fill="#8BC5E4"/>
<path d="M56.69 339.06V163.48L4.72852 133.48V309.06L56.69 339.06Z" fill="#8BC5E4"/>
<path d="M62.4317 153.465L10.4702 123.465L62.4317 153.465Z" fill="#8BC5E4"/>
<path d="M151.528 191.615L174.071 178.66L122.11 148.66L99.5669 161.615L151.528 191.615Z" fill="#8BC5E4"/>
<path d="M162.631 104.135L110.669 74.135L162.631 104.135Z" fill="#8BC5E4"/>
<path d="M107.075 139.99L89.4517 152.175L37.4902 122.175L55.1138 109.99L107.075 139.99Z" fill="#8BC5E4"/>
<path d="M89.4517 152.175L97.7916 165.59L45.83 135.59L37.4902 122.175L89.4517 152.175Z" fill="#8BC5E4"/>
<path d="M97.7917 165.59L100.831 157.205L48.8699 127.205L45.8301 135.59L97.7917 165.59Z" fill="#8BC5E4"/>
<path d="M100.831 157.205L120.066 158.11L68.104 128.11L48.8696 127.205L100.831 157.205Z" fill="#8BC5E4"/>
<path d="M120.066 158.11L123.261 149.295L71.2996 119.295L68.104 128.11L120.066 158.11Z" fill="#8BC5E4"/>
<path d="M123.262 149.295L104.036 148.375L52.0742 118.375L71.2999 119.295L123.262 149.295Z" fill="#8BC5E4"/>
<path d="M104.036 148.375L107.076 139.99L55.1139 109.99L52.0742 118.375L104.036 148.375Z" fill="#8BC5E4"/>
<path d="M107.075 139.99L55.1138 109.99L107.075 139.99Z" fill="#8BC5E4"/>
<path d="M217.823 76.05L220.863 80.925L168.901 50.925L165.861 46.05L217.823 76.05Z" fill="#8BC5E4"/>
<path d="M220.862 80.925L201.636 104.045L149.675 74.045L168.901 50.925L220.862 80.925Z" fill="#8BC5E4"/>
<path d="M201.636 104.045L204.832 109.17L152.871 79.1699L149.675 74.0449L201.636 104.045Z" fill="#8BC5E4"/>
<path d="M204.832 109.17L224.067 86.0549L172.105 56.0549L152.871 79.1699L204.832 109.17Z" fill="#8BC5E4"/>
<path d="M224.066 86.0549L227.106 90.9299L175.145 60.9299L172.105 56.0549L224.066 86.0549Z" fill="#8BC5E4"/>
<path d="M227.107 90.93L235.446 67.885L183.485 37.885L175.145 60.93L227.107 90.93Z" fill="#8BC5E4"/>
<path d="M235.446 67.885L217.823 76.05L165.861 46.05L183.485 37.885L235.446 67.885Z" fill="#8BC5E4"/>
<path d="M217.823 76.05L165.861 46.05L217.823 76.05Z" fill="#8BC5E4"/>
<path d="M110.782 176.99V184.51L58.8203 154.51V146.99L110.782 176.99Z" fill="#8BC5E4"/>
<path d="M110.782 184.51L88.9665 197.105L37.0049 167.105L58.8201 154.51L110.782 184.51Z" fill="#8BC5E4"/>
<path d="M88.9665 197.105V205.025L37.0049 175.025V167.105L88.9665 197.105Z" fill="#8BC5E4"/>
<path d="M88.9665 205.025L110.782 192.43L58.8201 162.43L37.0049 175.025L88.9665 205.025Z" fill="#8BC5E4"/>
<path d="M110.782 192.43V199.94L58.8203 169.94V162.43L110.782 192.43Z" fill="#8BC5E4"/>
<path d="M110.782 199.94L125.513 179.965L73.5514 149.965L58.8203 169.94L110.782 199.94Z" fill="#8BC5E4"/>
<path d="M125.513 179.965L110.782 176.99L58.8203 146.99L73.5514 149.965L125.513 179.965Z" fill="#8BC5E4"/>
<path d="M110.782 176.99L58.8203 146.99L110.782 176.99Z" fill="#8BC5E4"/>
<path d="M214.116 117.33L199.394 137.31L147.432 107.31L162.155 87.3301L214.116 117.33Z" fill="#8BC5E4"/>
<path d="M199.394 137.31L214.116 140.28L162.155 110.28L147.432 107.31L199.394 137.31Z" fill="#8BC5E4"/>
<path d="M214.116 140.28V132.77L162.154 102.77V110.28L214.116 140.28Z" fill="#8BC5E4"/>
<path d="M214.116 132.77L235.931 120.175L183.969 90.175L162.154 102.77L214.116 132.77Z" fill="#8BC5E4"/>
<path d="M235.931 120.175V112.255L183.97 82.2549V90.1749L235.931 120.175Z" fill="#8BC5E4"/>
<path d="M235.931 112.255L214.116 124.85L162.154 94.8499L183.969 82.2549L235.931 112.255Z" fill="#8BC5E4"/>
<path d="M214.116 124.85V117.33L162.154 87.3301V94.8501L214.116 124.85Z" fill="#8BC5E4"/>
<path d="M214.116 117.33L162.154 87.3301L214.116 117.33Z" fill="#8BC5E4"/>
<path d="M120.066 208.1L100.831 231.225L48.8696 201.225L68.104 178.1L120.066 208.1Z" fill="#8BC5E4"/>
<path d="M100.831 231.225L97.7917 226.35L45.8301 196.35L48.8699 201.225L100.831 231.225Z" fill="#8BC5E4"/>
<path d="M97.7916 226.35L89.4517 249.395L37.4902 219.395L45.83 196.35L97.7916 226.35Z" fill="#8BC5E4"/>
<path d="M89.4517 249.395L107.075 241.22L55.1138 211.22L37.4902 219.395L89.4517 249.395Z" fill="#8BC5E4"/>
<path d="M107.076 241.22L104.036 236.355L52.0742 206.355L55.1139 211.22L107.076 241.22Z" fill="#8BC5E4"/>
<path d="M104.036 236.355L123.262 213.235L71.2999 183.235L52.0742 206.355L104.036 236.355Z" fill="#8BC5E4"/>
<path d="M123.261 213.235L120.066 208.1L68.104 178.1L71.2996 183.235L123.261 213.235Z" fill="#8BC5E4"/>
<path d="M120.066 208.1L68.104 178.1L120.066 208.1Z" fill="#8BC5E4"/>
<path d="M204.832 159.16L201.636 167.985L149.675 137.985L152.871 129.16L204.832 159.16Z" fill="#8BC5E4"/>
<path d="M201.636 167.985L220.862 168.905L168.901 138.905L149.675 137.985L201.636 167.985Z" fill="#8BC5E4"/>
<path d="M220.863 168.905L217.823 177.28L165.861 147.28L168.901 138.905L220.863 168.905Z" fill="#8BC5E4"/>
<path d="M217.823 177.28L235.446 165.105L183.485 135.105L165.861 147.28L217.823 177.28Z" fill="#8BC5E4"/>
<path d="M235.446 165.105L227.107 151.69L175.145 121.69L183.485 135.105L235.446 165.105Z" fill="#8BC5E4"/>
<path d="M227.106 151.69L224.066 160.075L172.105 130.075L175.145 121.69L227.106 151.69Z" fill="#8BC5E4"/>
<path d="M224.067 160.075L204.832 159.16L152.871 129.16L172.105 130.075L224.067 160.075Z" fill="#8BC5E4"/>
<path d="M204.832 159.16L152.871 129.16L204.832 159.16Z" fill="#8BC5E4"/>
<path d="M149.467 202.025V215.645L97.5059 185.645V172.025L149.467 202.025Z" fill="#8BC5E4"/>
<path d="M151.814 217.02L153.555 216.015L101.593 186.015L99.8525 187.02L151.814 217.02Z" fill="#8BC5E4"/>
<path d="M171.239 205.805L173.084 204.74L121.122 174.74L119.278 175.805L171.239 205.805Z" fill="#8BC5E4"/>
<path d="M175.431 200.655V187.035L123.469 157.035V170.655L175.431 200.655Z" fill="#8BC5E4"/>
<path d="M173.084 185.65L151.814 197.93L99.8525 167.93L121.122 155.65L173.084 185.65Z" fill="#8BC5E4"/>
<path d="M151.814 197.93L99.8525 167.93L151.814 197.93Z" fill="#8BC5E4"/>
<path d="M152.308 200.955L172.59 189.245L120.628 159.245L100.346 170.955L152.308 200.955Z" fill="#8BC5E4"/>
<path d="M172.59 189.245V201.715L120.628 171.715V159.245L172.59 189.245Z" fill="#8BC5E4"/>
<path d="M172.59 201.715L152.308 213.425L100.346 183.425L120.628 171.715L172.59 201.715Z" fill="#8BC5E4"/>
<path d="M152.308 213.425V200.955L100.346 170.955V183.425L152.308 213.425Z" fill="#8BC5E4"/>
<path d="M152.308 200.955L100.346 170.955L152.308 200.955Z" fill="#8BC5E4"/>
<path d="M156.499 214.315L168.086 207.625L116.125 177.625L104.538 184.315L156.499 214.315Z" fill="#8BC5E4"/>
<path d="M156.499 214.315L104.538 184.315L156.499 214.315Z" fill="#8BC5E4"/>
<path d="M156.118 263.985L151.649 267.025L99.688 237.025L104.157 233.985L156.118 263.985Z" fill="#8BC5E4"/>
<path d="M174.539 237.62L179.085 234.595L127.124 204.595L122.577 207.62L174.539 237.62Z" fill="#8BC5E4"/>
<path d="M165.627 229.875L113.666 199.875L165.627 229.875Z" fill="#8BC5E4"/>
<path d="M111.397 261.905V303.685L59.4351 273.685V231.905L111.397 261.905Z" fill="#8BC5E4"/>
<path d="M111.397 303.685L115.961 301.05L63.9991 271.05L59.4351 273.685L111.397 303.685Z" fill="#8BC5E4"/>
<path d="M115.961 301.05V265.48L63.999 235.48V271.05L115.961 301.05Z" fill="#8BC5E4"/>
<path d="M115.961 265.48L126.318 295.07L74.3566 265.07L63.999 235.48L115.961 265.48Z" fill="#8BC5E4"/>
<path d="M126.318 295.07L130.597 292.6L78.6351 262.6L74.3569 265.07L126.318 295.07Z" fill="#8BC5E4"/>
<path d="M130.597 292.6L140.998 251.625L89.0362 221.625L78.6353 262.6L130.597 292.6Z" fill="#8BC5E4"/>
<path d="M140.998 251.625V286.595L89.0361 256.595V221.625L140.998 251.625Z" fill="#8BC5E4"/>
<path d="M140.998 286.595L145.57 283.955L93.6088 253.955L89.0361 256.595L140.998 286.595Z" fill="#8BC5E4"/>
<path d="M145.57 283.955V242.175L93.6084 212.175V253.955L145.57 283.955Z" fill="#8BC5E4"/>
<path d="M145.57 242.175L139.196 245.855L87.2349 215.855L93.6089 212.175L145.57 242.175Z" fill="#8BC5E4"/>
<path d="M139.196 245.855L130.623 279.875L78.6611 249.875L87.2347 215.855L139.196 245.855Z" fill="#8BC5E4"/>
<path d="M127.002 282.475L118.533 257.785L66.5713 227.785L75.041 252.475L127.002 282.475Z" fill="#8BC5E4"/>
<path d="M118.533 257.785L111.397 261.905L59.4351 231.905L66.5712 227.785L118.533 257.785Z" fill="#8BC5E4"/>
<path d="M111.397 261.905L59.4351 231.905L111.397 261.905Z" fill="#8BC5E4"/>
<path d="M186.776 218.385V260.165L134.814 230.165V188.385L186.776 218.385Z" fill="#8BC5E4"/>
<path d="M186.776 260.165L213.501 244.735L161.54 214.735L134.814 230.165L186.776 260.165Z" fill="#8BC5E4"/>
<path d="M213.501 244.735V239.805L161.54 209.805V214.735L213.501 244.735Z" fill="#8BC5E4"/>
<path d="M213.501 239.805L191.522 252.495L139.56 222.495L161.54 209.805L213.501 239.805Z" fill="#8BC5E4"/>
<path d="M191.522 252.495V238.275L139.56 208.275V222.495L191.522 252.495Z" fill="#8BC5E4"/>
<path d="M191.522 238.275L211.328 226.84L159.366 196.84L139.56 208.275L191.522 238.275Z" fill="#8BC5E4"/>
<path d="M211.327 226.84V221.94L159.366 191.94V196.84L211.327 226.84Z" fill="#8BC5E4"/>
<path d="M211.328 221.94L191.522 233.375L139.56 203.375L159.366 191.94L211.328 221.94Z" fill="#8BC5E4"/>
<path d="M191.522 233.375V220.575L139.56 190.575V203.375L191.522 233.375Z" fill="#8BC5E4"/>
<path d="M191.522 220.575L212.67 208.365L160.708 178.365L139.56 190.575L191.522 220.575Z" fill="#8BC5E4"/>
<path d="M212.67 208.365V203.435L160.708 173.435V178.365L212.67 208.365Z" fill="#8BC5E4"/>
<path d="M212.67 203.435L186.776 218.385L134.814 188.385L160.708 173.435L212.67 203.435Z" fill="#8BC5E4"/>
<path d="M186.776 218.385L134.814 188.385L186.776 218.385Z" fill="#8BC5E4"/>
<path d="M62.4317 153.465L263.194 37.5549L211.232 7.55493L10.4702 123.465L62.4317 153.465Z" fill="#8BC5E4"/>
<path d="M268.936 40.9399V216.52L216.974 186.52V10.9399L268.936 40.9399Z" fill="#8BC5E4"/>
<path d="M263.194 226.525L62.4317 342.435L10.4702 312.435L211.232 196.525L263.194 226.525Z" fill="#8BC5E4"/>
<path d="M56.69 339.06V163.48L4.72852 133.48V309.06L56.69 339.06Z" fill="#8BC5E4"/>
<path d="M62.4317 153.465L10.4702 123.465L62.4317 153.465Z" fill="#8BC5E4"/>
<path d="M174.071 178.66L151.528 191.615L99.5669 161.615L122.11 148.66L174.071 178.66Z" fill="#8BC5E4"/>
<path d="M137.776 147.925L85.8145 117.925L137.776 147.925Z" fill="#8BC5E4"/>
<path d="M89.4517 152.175L107.075 139.99L55.1138 109.99L37.4902 122.175L89.4517 152.175Z" fill="#8BC5E4"/>
<path d="M107.076 139.99L104.036 148.375L52.0742 118.375L55.1139 109.99L107.076 139.99Z" fill="#8BC5E4"/>
<path d="M104.036 148.375L123.262 149.295L71.2999 119.295L52.0742 118.375L104.036 148.375Z" fill="#8BC5E4"/>
<path d="M123.261 149.295L120.066 158.11L68.104 128.11L71.2996 119.295L123.261 149.295Z" fill="#8BC5E4"/>
<path d="M120.066 158.11L100.831 157.205L48.8696 127.205L68.104 128.11L120.066 158.11Z" fill="#8BC5E4"/>
<path d="M100.831 157.205L97.7917 165.59L45.8301 135.59L48.8699 127.205L100.831 157.205Z" fill="#8BC5E4"/>
<path d="M97.7916 165.59L89.4517 152.175L37.4902 122.175L45.83 135.59L97.7916 165.59Z" fill="#8BC5E4"/>
<path d="M89.4517 152.175L37.4902 122.175L89.4517 152.175Z" fill="#8BC5E4"/>
<path d="M220.863 80.925L217.823 76.05L165.861 46.05L168.901 50.925L220.863 80.925Z" fill="#8BC5E4"/>
<path d="M217.823 76.05L235.446 67.885L183.485 37.885L165.861 46.05L217.823 76.05Z" fill="#8BC5E4"/>
<path d="M235.446 67.885L227.107 90.93L175.145 60.93L183.485 37.885L235.446 67.885Z" fill="#8BC5E4"/>
<path d="M227.106 90.9299L224.066 86.0549L172.105 56.0549L175.145 60.9299L227.106 90.9299Z" fill="#8BC5E4"/>
<path d="M224.067 86.0549L204.832 109.17L152.871 79.1699L172.105 56.0549L224.067 86.0549Z" fill="#8BC5E4"/>
<path d="M204.832 109.17L201.636 104.045L149.675 74.0449L152.871 79.1699L204.832 109.17Z" fill="#8BC5E4"/>
<path d="M201.636 104.045L220.862 80.925L168.901 50.925L149.675 74.045L201.636 104.045Z" fill="#8BC5E4"/>
<path d="M220.862 80.925L168.901 50.925L220.862 80.925Z" fill="#8BC5E4"/>
<path d="M110.782 184.51V176.99L58.8203 146.99V154.51L110.782 184.51Z" fill="#8BC5E4"/>
<path d="M110.782 176.99L125.513 179.965L73.5514 149.965L58.8203 146.99L110.782 176.99Z" fill="#8BC5E4"/>
<path d="M125.513 179.965L110.782 199.94L58.8203 169.94L73.5514 149.965L125.513 179.965Z" fill="#8BC5E4"/>
<path d="M110.782 199.94V192.43L58.8203 162.43V169.94L110.782 199.94Z" fill="#8BC5E4"/>
<path d="M110.782 192.43L88.9665 205.025L37.0049 175.025L58.8201 162.43L110.782 192.43Z" fill="#8BC5E4"/>
<path d="M88.9665 205.025V197.105L37.0049 167.105V175.025L88.9665 205.025Z" fill="#8BC5E4"/>
<path d="M88.9665 197.105L110.782 184.51L58.8201 154.51L37.0049 167.105L88.9665 197.105Z" fill="#8BC5E4"/>
<path d="M110.782 184.51L58.8203 154.51L110.782 184.51Z" fill="#8BC5E4"/>
<path d="M199.394 137.31L214.116 117.33L162.155 87.3301L147.432 107.31L199.394 137.31Z" fill="#8BC5E4"/>
<path d="M214.116 117.33V124.85L162.154 94.8501V87.3301L214.116 117.33Z" fill="#8BC5E4"/>
<path d="M214.116 124.85L235.931 112.255L183.969 82.2549L162.154 94.8499L214.116 124.85Z" fill="#8BC5E4"/>
<path d="M235.931 112.255V120.175L183.97 90.1749V82.2549L235.931 112.255Z" fill="#8BC5E4"/>
<path d="M235.931 120.175L214.116 132.77L162.154 102.77L183.969 90.175L235.931 120.175Z" fill="#8BC5E4"/>
<path d="M214.116 132.77V140.28L162.154 110.28V102.77L214.116 132.77Z" fill="#8BC5E4"/>
<path d="M214.116 140.28L199.394 137.31L147.432 107.31L162.155 110.28L214.116 140.28Z" fill="#8BC5E4"/>
<path d="M199.394 137.31L147.432 107.31L199.394 137.31Z" fill="#8BC5E4"/>
<path d="M100.831 231.225L120.066 208.1L68.104 178.1L48.8696 201.225L100.831 231.225Z" fill="#8BC5E4"/>
<path d="M120.066 208.1L123.261 213.235L71.2996 183.235L68.104 178.1L120.066 208.1Z" fill="#8BC5E4"/>
<path d="M123.262 213.235L104.036 236.355L52.0742 206.355L71.2999 183.235L123.262 213.235Z" fill="#8BC5E4"/>
<path d="M104.036 236.355L107.076 241.22L55.1139 211.22L52.0742 206.355L104.036 236.355Z" fill="#8BC5E4"/>
<path d="M107.075 241.22L89.4517 249.395L37.4902 219.395L55.1138 211.22L107.075 241.22Z" fill="#8BC5E4"/>
<path d="M89.4517 249.395L97.7916 226.35L45.83 196.35L37.4902 219.395L89.4517 249.395Z" fill="#8BC5E4"/>
<path d="M97.7917 226.35L100.831 231.225L48.8699 201.225L45.8301 196.35L97.7917 226.35Z" fill="#8BC5E4"/>
<path d="M100.831 231.225L48.8696 201.225L100.831 231.225Z" fill="#8BC5E4"/>
<path d="M201.636 167.985L204.832 159.16L152.871 129.16L149.675 137.985L201.636 167.985Z" fill="#8BC5E4"/>
<path d="M204.832 159.16L224.067 160.075L172.105 130.075L152.871 129.16L204.832 159.16Z" fill="#8BC5E4"/>
<path d="M224.066 160.075L227.106 151.69L175.145 121.69L172.105 130.075L224.066 160.075Z" fill="#8BC5E4"/>
<path d="M227.107 151.69L235.446 165.105L183.485 135.105L175.145 121.69L227.107 151.69Z" fill="#8BC5E4"/>
<path d="M235.446 165.105L217.823 177.28L165.861 147.28L183.485 135.105L235.446 165.105Z" fill="#8BC5E4"/>
<path d="M217.823 177.28L220.863 168.905L168.901 138.905L165.861 147.28L217.823 177.28Z" fill="#8BC5E4"/>
<path d="M220.862 168.905L201.636 167.985L149.675 137.985L168.901 138.905L220.862 168.905Z" fill="#8BC5E4"/>
<path d="M201.636 167.985L149.675 137.985L201.636 167.985Z" fill="#8BC5E4"/>
<path d="M151.814 197.93L173.084 185.65L121.122 155.65L99.8525 167.93L151.814 197.93Z" fill="#8BC5E4"/>
<path d="M175.431 187.035V200.655L123.469 170.655V157.035L175.431 187.035Z" fill="#8BC5E4"/>
<path d="M173.084 204.74L171.239 205.805L119.278 175.805L121.122 174.74L173.084 204.74Z" fill="#8BC5E4"/>
<path d="M153.555 216.015L151.814 217.02L99.8525 187.02L101.593 186.015L153.555 216.015Z" fill="#8BC5E4"/>
<path d="M149.467 215.645V202.025L97.5059 172.025V185.645L149.467 215.645Z" fill="#8BC5E4"/>
<path d="M149.467 202.025L97.5059 172.025L149.467 202.025Z" fill="#8BC5E4"/>
<path d="M179.085 234.595L174.539 237.62L122.577 207.62L127.124 204.595L179.085 234.595Z" fill="#8BC5E4"/>
<path d="M151.649 267.025L156.118 263.985L104.157 233.985L99.688 237.025L151.649 267.025Z" fill="#8BC5E4"/>
<path d="M159.054 235.1L107.093 205.1L159.054 235.1Z" fill="#8BC5E4"/>
<path d="M111.397 303.685V261.905L59.4351 231.905V273.685L111.397 303.685Z" fill="#8BC5E4"/>
<path d="M111.397 261.905L118.533 257.785L66.5712 227.785L59.4351 231.905L111.397 261.905Z" fill="#8BC5E4"/>
<path d="M118.533 257.785L127.002 282.475L75.041 252.475L66.5713 227.785L118.533 257.785Z" fill="#8BC5E4"/>
<path d="M130.623 279.875L139.196 245.855L87.2347 215.855L78.6611 249.875L130.623 279.875Z" fill="#8BC5E4"/>
<path d="M139.196 245.855L145.57 242.175L93.6089 212.175L87.2349 215.855L139.196 245.855Z" fill="#8BC5E4"/>
<path d="M145.57 242.175V283.955L93.6084 253.955V212.175L145.57 242.175Z" fill="#8BC5E4"/>
<path d="M145.57 283.955L140.998 286.595L89.0361 256.595L93.6088 253.955L145.57 283.955Z" fill="#8BC5E4"/>
<path d="M140.998 286.595V251.625L89.0361 221.625V256.595L140.998 286.595Z" fill="#8BC5E4"/>
<path d="M140.998 251.625L130.597 292.6L78.6353 262.6L89.0362 221.625L140.998 251.625Z" fill="#8BC5E4"/>
<path d="M130.597 292.6L126.318 295.07L74.3569 265.07L78.6351 262.6L130.597 292.6Z" fill="#8BC5E4"/>
<path d="M126.318 295.07L115.961 265.48L63.999 235.48L74.3566 265.07L126.318 295.07Z" fill="#8BC5E4"/>
<path d="M115.961 265.48V301.05L63.999 271.05V235.48L115.961 265.48Z" fill="#8BC5E4"/>
<path d="M115.961 301.05L111.397 303.685L59.4351 273.685L63.9991 271.05L115.961 301.05Z" fill="#8BC5E4"/>
<path d="M111.397 303.685L59.4351 273.685L111.397 303.685Z" fill="#8BC5E4"/>
<path d="M186.776 260.165V218.385L134.814 188.385V230.165L186.776 260.165Z" fill="#8BC5E4"/>
<path d="M186.776 218.385L212.67 203.435L160.708 173.435L134.814 188.385L186.776 218.385Z" fill="#8BC5E4"/>
<path d="M212.67 203.435V208.365L160.708 178.365V173.435L212.67 203.435Z" fill="#8BC5E4"/>
<path d="M212.67 208.365L191.522 220.575L139.56 190.575L160.708 178.365L212.67 208.365Z" fill="#8BC5E4"/>
<path d="M191.522 220.575V233.375L139.56 203.375V190.575L191.522 220.575Z" fill="#8BC5E4"/>
<path d="M191.522 233.375L211.328 221.94L159.366 191.94L139.56 203.375L191.522 233.375Z" fill="#8BC5E4"/>
<path d="M211.327 221.94V226.84L159.366 196.84V191.94L211.327 221.94Z" fill="#8BC5E4"/>
<path d="M211.328 226.84L191.522 238.275L139.56 208.275L159.366 196.84L211.328 226.84Z" fill="#8BC5E4"/>
<path d="M191.522 238.275V252.495L139.56 222.495V208.275L191.522 238.275Z" fill="#8BC5E4"/>
<path d="M191.522 252.495L213.501 239.805L161.54 209.805L139.56 222.495L191.522 252.495Z" fill="#8BC5E4"/>
<path d="M213.501 239.805V244.735L161.54 214.735V209.805L213.501 239.805Z" fill="#8BC5E4"/>
<path d="M213.501 244.735L186.776 260.165L134.814 230.165L161.54 214.735L213.501 244.735Z" fill="#8BC5E4"/>
<path d="M186.776 260.165L134.814 230.165L186.776 260.165Z" fill="#8BC5E4"/>
<path d="M152.308 200.955L172.59 189.245L120.628 159.245L100.346 170.955L152.308 200.955Z" fill="#8BC5E4"/>
<path d="M172.59 189.245V201.715L120.628 171.715V159.245L172.59 189.245Z" fill="#8BC5E4"/>
<path d="M172.59 201.715L152.308 213.425L100.346 183.425L120.628 171.715L172.59 201.715Z" fill="#8BC5E4"/>
<path d="M152.308 213.425V200.955L100.346 170.955V183.425L152.308 213.425Z" fill="#8BC5E4"/>
<path d="M152.308 200.955L100.346 170.955L152.308 200.955Z" fill="#8BC5E4"/>
<path d="M156.499 214.315L168.086 207.625L116.125 177.625L104.538 184.315L156.499 214.315Z" fill="#8BC5E4"/>
<path d="M156.499 214.315L104.538 184.315L156.499 214.315Z" fill="#8BC5E4"/>
<path d="M62.4317 147.955C56.6727 151.28 51.9615 159.49 51.9615 166.21L0 136.21C0 129.49 4.7112 121.28 10.4702 117.955L62.4317 147.955Z" fill="#8BC5E4"/>
<path d="M51.9615 341.79C51.9615 345.132 53.1305 347.499 55.0145 348.622L3.053 318.622C1.169 317.499 0 315.132 0 311.79L51.9615 341.79Z" fill="#8BC5E4"/>
<path d="M55.0123 348.621C56.9103 349.754 59.5343 349.625 62.4233 347.96L10.4618 317.96C7.57278 319.625 4.94878 319.754 3.05078 318.621L55.0123 348.621Z" fill="#8BC5E4"/>
<path d="M263.194 232.045C268.953 228.72 273.664 220.5 273.664 213.79L221.702 183.79C221.702 190.5 216.991 198.72 211.232 202.045L263.194 232.045Z" fill="#8BC5E4"/>
<path d="M273.664 38.2099C273.665 34.8699 272.5 32.5049 270.622 31.3799L218.66 1.37988C220.538 2.50488 221.703 4.86988 221.703 8.20988L273.664 38.2099Z" fill="#8BC5E4"/>
<path d="M270.613 31.375C268.715 30.244 266.091 30.375 263.202 32.04L211.241 2.04004C214.13 0.37504 216.754 0.24404 218.652 1.37504L270.613 31.375Z" fill="#8BC5E4"/>
<path d="M263.194 37.555C264.779 36.64 266.195 36.534 267.224 37.112L215.263 7.11204C214.234 6.53404 212.818 6.64004 211.232 7.55504L263.194 37.555Z" fill="#8BC5E4"/>
<path d="M267.222 37.1111C268.284 37.7061 268.934 39.0271 268.935 40.9341L216.974 10.9341C216.973 9.02708 216.323 7.70608 215.261 7.11108L267.222 37.1111Z" fill="#8BC5E4"/>
<path d="M268.935 216.52C268.935 220.27 266.415 224.665 263.194 226.525L211.232 196.525C214.454 194.665 216.974 190.27 216.974 186.52L268.935 216.52Z" fill="#8BC5E4"/>
<path d="M62.4316 342.435C60.8144 343.369 59.3744 343.459 58.3404 342.844L6.37891 312.844C7.41291 313.459 8.85291 313.369 10.4701 312.435L62.4316 342.435Z" fill="#8BC5E4"/>
<path d="M58.3305 342.838C57.3115 342.225 56.6915 340.923 56.6905 339.065L4.729 309.065C4.73 310.923 5.35 312.225 6.369 312.838L58.3305 342.838Z" fill="#8BC5E4"/>
<path d="M56.69 163.48C56.69 159.72 59.2101 155.325 62.4317 153.465L10.4702 123.465C7.24862 125.325 4.72852 129.72 4.72852 133.48L56.69 163.48Z" fill="#8BC5E4"/>
<path d="M162.631 104.135C147.363 112.95 137.776 134.625 137.776 147.925L85.8145 117.925C85.8145 104.625 95.4014 82.95 110.669 74.135L162.631 104.135Z" fill="#8BC5E4"/>
<path d="M137.776 147.925C137.776 163.785 142.141 164.975 145.068 168.425L93.1065 138.425C90.1793 134.975 85.8145 133.785 85.8145 117.925L137.776 147.925Z" fill="#8BC5E4"/>
<path d="M145.068 168.425C148.991 173.04 151.416 183.72 151.528 191.615L99.5669 161.615C99.4543 153.72 97.0295 143.04 93.1064 138.425L145.068 168.425Z" fill="#8BC5E4"/>
<path d="M174.071 178.66C174.071 171.09 175.015 159.335 179.553 149.735L127.591 119.735C123.053 129.335 122.109 141.09 122.109 148.66L174.071 178.66Z" fill="#8BC5E4"/>
<path d="M179.553 149.735C184.714 138.815 187.122 132.955 187.122 119.135L135.16 89.135C135.16 102.955 132.753 108.815 127.591 119.735L179.553 149.735Z" fill="#8BC5E4"/>
<path d="M187.122 119.135C187.123 110.752 184.402 105.031 179.976 102.395L128.014 72.395C132.44 75.031 135.161 80.752 135.161 89.135L187.122 119.135Z" fill="#8BC5E4"/>
<path d="M179.976 102.396C175.559 99.7641 169.443 100.203 162.635 104.132L110.674 74.1321C117.482 70.2031 123.598 69.7641 128.015 72.3961L179.976 102.396Z" fill="#8BC5E4"/>
<path d="M151.814 197.93C150.541 198.665 149.467 200.535 149.467 202.025L97.5059 172.025C97.5059 170.535 98.5798 168.665 99.8528 167.93L151.814 197.93Z" fill="#8BC5E4"/>
<path d="M149.467 215.645C149.468 216.385 149.736 216.913 150.164 217.163L98.2021 187.163C97.7741 186.913 97.5061 186.385 97.5059 185.645L149.467 215.645Z" fill="#8BC5E4"/>
<path d="M150.16 217.162C150.586 217.413 151.171 217.389 151.806 217.024L99.8447 187.024C99.2097 187.389 98.6247 187.413 98.1987 187.162L150.16 217.162Z" fill="#8BC5E4"/>
<path d="M153.555 216.015C153.833 217.271 154.441 218.172 155.29 218.662L103.329 188.662C102.48 188.172 101.872 187.271 101.593 186.015L153.555 216.015Z" fill="#8BC5E4"/>
<path d="M155.285 218.659C155.545 218.809 155.826 218.921 156.128 218.993L104.167 188.993C103.865 188.921 103.584 188.809 103.324 188.659L155.285 218.659Z" fill="#8BC5E4"/>
<path d="M156.136 218.995C157.729 219.375 159.816 218.75 162.163 217.395L110.202 187.395C107.855 188.75 105.768 189.375 104.174 188.995L156.136 218.995Z" fill="#8BC5E4"/>
<path d="M162.163 217.395C164.77 215.89 166.866 213.97 168.442 211.74L116.48 181.74C114.904 183.97 112.808 185.89 110.202 187.395L162.163 217.395Z" fill="#8BC5E4"/>
<path d="M168.442 211.74C169.767 209.855 170.676 207.81 171.239 205.805L119.278 175.805C118.715 177.81 117.805 179.855 116.48 181.74L168.442 211.74Z" fill="#8BC5E4"/>
<path d="M173.084 204.74C174.357 204.005 175.43 202.135 175.43 200.655L123.469 170.655C123.469 172.135 122.395 174.005 121.122 174.74L173.084 204.74Z" fill="#8BC5E4"/>
<path d="M175.431 187.035C175.43 186.29 175.162 185.76 174.734 185.508L122.773 155.508C123.201 155.76 123.469 156.29 123.469 157.035L175.431 187.035Z" fill="#8BC5E4"/>
<path d="M174.737 185.509C174.311 185.257 173.726 185.282 173.091 185.646L121.13 155.646C121.765 155.282 122.35 155.257 122.776 155.509L174.737 185.509Z" fill="#8BC5E4"/>
<path d="M168.087 207.625C167.749 208.46 167.316 209.25 166.779 210.02L114.817 180.02C115.354 179.25 115.787 178.46 116.125 177.625L168.087 207.625Z" fill="#8BC5E4"/>
<path d="M166.779 210.02C165.783 211.435 164.337 212.83 162.163 214.085L110.202 184.085C112.375 182.83 113.822 181.435 114.818 180.02L166.779 210.02Z" fill="#8BC5E4"/>
<path d="M162.163 214.085C160.223 215.205 158.716 215.575 157.755 215.34L105.793 185.34C106.755 185.575 108.262 185.205 110.202 184.085L162.163 214.085Z" fill="#8BC5E4"/>
<path d="M157.755 215.34C157.553 215.292 157.371 215.224 157.209 215.131L105.247 185.131C105.409 185.224 105.591 185.292 105.794 185.34L157.755 215.34Z" fill="#8BC5E4"/>
<path d="M157.211 215.133C156.903 214.958 156.668 214.696 156.503 214.322L104.541 184.322C104.706 184.696 104.941 184.958 105.249 185.133L157.211 215.133Z" fill="#8BC5E4"/>
<path d="M165.627 229.875C163.211 231.27 161.02 233.015 159.054 235.1L107.093 205.1C109.059 203.015 111.25 201.27 113.666 199.875L165.627 229.875Z" fill="#8BC5E4"/>
<path d="M159.054 235.1C157.08 237.19 155.582 239.455 154.56 241.885L102.598 211.885C103.62 209.455 105.118 207.19 107.093 205.1L159.054 235.1Z" fill="#8BC5E4"/>
<path d="M154.56 241.885C153.529 244.3 153.018 246.565 153.018 248.675L101.057 218.675C101.057 216.565 101.568 214.3 102.598 211.885L154.56 241.885Z" fill="#8BC5E4"/>
<path d="M153.018 248.675C153.018 250.595 153.434 252.095 154.265 253.175L102.304 223.175C101.472 222.095 101.057 220.595 101.057 218.675L153.018 248.675Z" fill="#8BC5E4"/>
<path d="M154.265 253.175C154.584 253.565 154.963 253.888 155.403 254.141L103.441 224.141C103.001 223.888 102.622 223.565 102.304 223.175L154.265 253.175Z" fill="#8BC5E4"/>
<path d="M155.414 254.148C156.142 254.565 157.036 254.795 158.092 254.83L106.13 224.83C105.074 224.795 104.18 224.565 103.452 224.148L155.414 254.148Z" fill="#8BC5E4"/>
<path d="M158.102 254.83C159.418 254.89 161.722 254.43 165.013 253.46L113.051 223.46C109.76 224.43 107.457 224.89 106.14 224.83L158.102 254.83Z" fill="#8BC5E4"/>
<path d="M165.012 253.46C168.303 252.48 170.425 251.925 171.386 251.81L119.425 221.81C118.463 221.925 116.342 222.48 113.051 223.46L165.012 253.46Z" fill="#8BC5E4"/>
<path d="M171.386 251.81C172.627 251.64 173.576 251.755 174.24 252.146L122.279 222.146C121.615 221.755 120.666 221.64 119.425 221.81L171.386 251.81Z" fill="#8BC5E4"/>
<path d="M174.236 252.143C174.374 252.224 174.499 252.317 174.612 252.421L122.651 222.421C122.538 222.317 122.413 222.224 122.275 222.143L174.236 252.143Z" fill="#8BC5E4"/>
<path d="M174.617 252.425C175.266 253.02 175.595 253.97 175.595 255.28L123.634 225.28C123.634 223.97 123.305 223.02 122.655 222.425L174.617 252.425Z" fill="#8BC5E4"/>
<path d="M175.595 255.28C175.595 256.57 175.249 257.97 174.565 259.465L122.603 229.465C123.287 227.97 123.634 226.57 123.634 225.28L175.595 255.28Z" fill="#8BC5E4"/>
<path d="M174.565 259.465C173.898 260.93 172.876 262.38 171.49 263.8L119.529 233.8C120.914 232.38 121.936 230.93 122.603 229.465L174.565 259.465Z" fill="#8BC5E4"/>
<path d="M171.49 263.8C170.105 265.23 168.511 266.46 166.701 267.505L114.74 237.505C116.55 236.46 118.143 235.23 119.529 233.8L171.49 263.8Z" fill="#8BC5E4"/>
<path d="M166.701 267.505C164.666 268.68 162.83 269.33 161.202 269.46L109.24 239.46C110.868 239.33 112.704 238.68 114.74 237.505L166.701 267.505Z" fill="#8BC5E4"/>
<path d="M161.202 269.46C160.045 269.531 159.102 269.357 158.373 268.934L106.411 238.934C107.14 239.357 108.083 239.531 109.241 239.46L161.202 269.46Z" fill="#8BC5E4"/>
<path d="M158.377 268.937C158.081 268.766 157.82 268.554 157.595 268.3L105.634 238.3C105.859 238.554 106.12 238.766 106.416 238.937L158.377 268.937Z" fill="#8BC5E4"/>
<path d="M157.591 268.295C156.82 267.39 156.335 265.95 156.118 263.985L104.157 233.985C104.373 235.95 104.858 237.39 105.629 238.295L157.591 268.295Z" fill="#8BC5E4"/>
<path d="M151.649 267.025C151.719 269.775 152.368 271.91 153.607 273.415L101.645 243.415C100.407 241.91 99.7572 239.775 99.688 237.025L151.649 267.025Z" fill="#8BC5E4"/>
<path d="M153.607 273.415C154.049 273.934 154.547 274.353 155.102 274.671L103.14 244.671C102.585 244.353 102.087 243.934 101.646 243.415L153.607 273.415Z" fill="#8BC5E4"/>
<path d="M155.101 274.67C156.124 275.258 157.341 275.503 158.754 275.4L106.792 245.4C105.379 245.503 104.162 245.258 103.139 244.67L155.101 274.67Z" fill="#8BC5E4"/>
<path d="M158.76 275.4C160.96 275.23 163.679 274.21 166.918 272.34L114.956 242.34C111.717 244.21 108.998 245.23 106.798 245.4L158.76 275.4Z" fill="#8BC5E4"/>
<path d="M166.918 272.34C169.472 270.865 171.776 268.995 173.811 266.74L121.85 236.74C119.814 238.995 117.511 240.865 114.956 242.34L166.918 272.34Z" fill="#8BC5E4"/>
<path d="M173.811 266.74C175.864 264.455 177.431 262.02 178.522 259.43L126.561 229.43C125.47 232.02 123.902 234.455 121.85 236.74L173.811 266.74Z" fill="#8BC5E4"/>
<path d="M178.523 259.43C179.614 256.82 180.159 254.405 180.159 252.185L128.198 222.185C128.198 224.405 127.652 226.82 126.561 229.43L178.523 259.43Z" fill="#8BC5E4"/>
<path d="M180.159 252.185C180.159 249.945 179.665 248.25 178.67 247.115L126.708 217.115C127.704 218.25 128.198 219.945 128.198 222.185L180.159 252.185Z" fill="#8BC5E4"/>
<path d="M178.669 247.115C178.358 246.754 177.994 246.454 177.578 246.214L125.617 216.214C126.033 216.454 126.397 216.754 126.708 217.115L178.669 247.115Z" fill="#8BC5E4"/>
<path d="M177.58 246.214C176.664 245.687 175.493 245.452 174.06 245.51L122.098 215.51C123.531 215.452 124.702 215.687 125.618 216.214L177.58 246.214Z" fill="#8BC5E4"/>
<path d="M174.054 245.51C172.616 245.58 169.975 246.215 166.112 247.445L114.151 217.445C118.013 216.215 120.655 215.58 122.092 215.51L174.054 245.51Z" fill="#8BC5E4"/>
<path d="M166.112 247.445C162.267 248.635 159.894 249.005 158.976 248.565L107.015 218.565C107.933 219.005 110.306 218.635 114.151 217.445L166.112 247.445Z" fill="#8BC5E4"/>
<path d="M158.976 248.565C158.911 248.535 158.848 248.503 158.787 248.467L106.826 218.467C106.887 218.503 106.95 218.535 107.014 218.565L158.976 248.565Z" fill="#8BC5E4"/>
<path d="M158.788 248.467C157.989 248.002 157.592 247.064 157.59 245.674L105.629 215.674C105.631 217.064 106.028 218.002 106.827 218.467L158.788 248.467Z" fill="#8BC5E4"/>
<path d="M157.59 245.665C157.59 243.935 158.24 242.09 159.539 240.12L107.578 210.12C106.278 212.09 105.629 213.935 105.629 215.665L157.59 245.665Z" fill="#8BC5E4"/>
<path d="M159.539 240.12C160.864 238.125 162.951 236.3 165.818 234.645L113.856 204.645C110.99 206.3 108.903 208.125 107.578 210.12L159.539 240.12Z" fill="#8BC5E4"/>
<path d="M165.818 234.645C168.572 233.055 170.65 232.525 172.053 233.065L120.092 203.065C118.689 202.525 116.61 203.055 113.856 204.645L165.818 234.645Z" fill="#8BC5E4"/>
<path d="M172.053 233.065C172.208 233.124 172.356 233.194 172.496 233.276L120.534 203.276C120.394 203.194 120.246 203.124 120.092 203.065L172.053 233.065Z" fill="#8BC5E4"/>
<path d="M172.495 233.276C173.638 233.943 174.321 235.39 174.538 237.613L122.577 207.613C122.36 205.39 121.677 203.943 120.534 203.276L172.495 233.276Z" fill="#8BC5E4"/>
<path d="M179.085 234.595C178.999 232.195 178.418 230.33 177.327 229.02L125.366 199.02C126.457 200.33 127.037 202.195 127.124 204.595L179.085 234.595Z" fill="#8BC5E4"/>
<path d="M177.327 229.02C176.969 228.593 176.559 228.246 176.099 227.979L124.138 197.979C124.598 198.246 125.008 198.593 125.365 199.02L177.327 229.02Z" fill="#8BC5E4"/>
<path d="M176.101 227.979C175.159 227.432 174.004 227.219 172.639 227.349L120.678 197.349C122.043 197.219 123.198 197.432 124.14 197.979L176.101 227.979Z" fill="#8BC5E4"/>
<path d="M172.633 227.35C170.615 227.505 168.277 228.345 165.627 229.875L113.666 199.875C116.316 198.345 118.654 197.505 120.672 197.35L172.633 227.35Z" fill="#8BC5E4"/>
<path d="M130.623 279.875C129.757 283.315 129.124 285.92 128.717 287.675L76.7559 257.675C77.1629 255.92 77.7951 253.315 78.6612 249.875L130.623 279.875Z" fill="#8BC5E4"/>
<path d="M128.717 287.675C128.354 286.515 127.782 284.785 127.003 282.475L75.041 252.475C75.8204 254.785 76.392 256.515 76.7557 257.675L128.717 287.675Z" fill="#8BC5E4"/>
<path d="M263.194 37.555C264.779 36.64 266.195 36.534 267.224 37.112L215.263 7.11204C214.234 6.53404 212.818 6.64004 211.232 7.55504L263.194 37.555Z" fill="#8BC5E4"/>
<path d="M267.222 37.1111C268.284 37.7061 268.934 39.0271 268.935 40.9341L216.974 10.9341C216.973 9.02708 216.323 7.70608 215.261 7.11108L267.222 37.1111Z" fill="#8BC5E4"/>
<path d="M268.935 216.52C268.935 220.27 266.415 224.665 263.194 226.525L211.232 196.525C214.454 194.665 216.974 190.27 216.974 186.52L268.935 216.52Z" fill="#8BC5E4"/>
<path d="M62.4316 342.435C60.8144 343.369 59.3744 343.459 58.3404 342.844L6.37891 312.844C7.41291 313.459 8.85291 313.369 10.4701 312.435L62.4316 342.435Z" fill="#8BC5E4"/>
<path d="M58.3305 342.838C57.3115 342.225 56.6915 340.923 56.6905 339.065L4.729 309.065C4.73 310.923 5.35 312.225 6.369 312.838L58.3305 342.838Z" fill="#8BC5E4"/>
<path d="M56.69 163.48C56.69 159.72 59.2101 155.325 62.4317 153.465L10.4702 123.465C7.24862 125.325 4.72852 129.72 4.72852 133.48L56.69 163.48Z" fill="#8BC5E4"/>
<path d="M137.776 147.925C137.776 134.625 147.363 112.95 162.631 104.135L110.669 74.135C95.4014 82.95 85.8145 104.625 85.8145 117.925L137.776 147.925Z" fill="#8BC5E4"/>
<path d="M162.631 104.135C169.44 100.204 175.558 99.7629 179.976 102.395L128.014 72.3949C123.596 69.7629 117.478 70.2039 110.669 74.1349L162.631 104.135Z" fill="#8BC5E4"/>
<path d="M179.973 102.394C184.4 105.03 187.12 110.748 187.122 119.129L135.161 89.129C135.159 80.748 132.439 75.03 128.012 72.394L179.973 102.394Z" fill="#8BC5E4"/>
<path d="M187.122 119.135C187.122 132.955 184.714 138.815 179.553 149.735L127.591 119.735C132.753 108.815 135.16 102.955 135.16 89.135L187.122 119.135Z" fill="#8BC5E4"/>
<path d="M179.553 149.735C175.015 159.335 174.071 171.09 174.071 178.66L122.109 148.66C122.109 141.09 123.053 129.335 127.591 119.735L179.553 149.735Z" fill="#8BC5E4"/>
<path d="M151.528 191.615C151.416 183.72 148.991 173.04 145.068 168.425L93.1064 138.425C97.0295 143.04 99.4543 153.72 99.5669 161.615L151.528 191.615Z" fill="#8BC5E4"/>
<path d="M145.068 168.425C142.141 164.975 137.776 163.785 137.776 147.925L85.8145 117.925C85.8145 133.785 90.1793 134.975 93.1065 138.425L145.068 168.425Z" fill="#8BC5E4"/>
<path d="M149.467 202.025C149.467 200.535 150.541 198.665 151.814 197.93L99.8528 167.93C98.5798 168.665 97.5059 170.535 97.5059 172.025L149.467 202.025Z" fill="#8BC5E4"/>
<path d="M173.084 185.65C173.72 185.283 174.307 185.256 174.734 185.508L122.773 155.508C122.346 155.256 121.759 155.283 121.122 155.65L173.084 185.65Z" fill="#8BC5E4"/>
<path d="M174.742 185.513C175.163 185.765 175.428 186.29 175.43 187.026L123.469 157.026C123.467 156.29 123.202 155.765 122.781 155.513L174.742 185.513Z" fill="#8BC5E4"/>
<path d="M175.43 200.655C175.43 202.135 174.357 204.005 173.084 204.74L121.122 174.74C122.395 174.005 123.469 172.135 123.469 170.655L175.43 200.655Z" fill="#8BC5E4"/>
<path d="M171.239 205.805C170.676 207.81 169.767 209.855 168.442 211.74L116.48 181.74C117.805 179.855 118.715 177.81 119.278 175.805L171.239 205.805Z" fill="#8BC5E4"/>
<path d="M168.442 211.74C166.866 213.97 164.77 215.89 162.163 217.395L110.202 187.395C112.808 185.89 114.904 183.97 116.48 181.74L168.442 211.74Z" fill="#8BC5E4"/>
<path d="M162.163 217.395C159.816 218.75 157.729 219.375 156.136 218.995L104.174 188.995C105.768 189.375 107.855 188.75 110.202 187.395L162.163 217.395Z" fill="#8BC5E4"/>
<path d="M156.136 218.995C155.834 218.924 155.551 218.812 155.291 218.662L103.329 188.662C103.589 188.812 103.872 188.924 104.174 188.995L156.136 218.995Z" fill="#8BC5E4"/>
<path d="M155.292 218.663C154.444 218.174 153.836 217.276 153.557 216.025L101.596 186.025C101.875 187.276 102.483 188.174 103.331 188.663L155.292 218.663Z" fill="#8BC5E4"/>
<path d="M151.814 217.02C151.178 217.387 150.591 217.414 150.164 217.163L98.2021 187.163C98.6291 187.414 99.2161 187.387 99.8528 187.02L151.814 217.02Z" fill="#8BC5E4"/>
<path d="M150.165 217.165C149.738 216.916 149.469 216.391 149.467 215.654L97.5059 185.654C97.5079 186.391 97.7769 186.916 98.2039 187.165L150.165 217.165Z" fill="#8BC5E4"/>
<path d="M159.054 235.1C161.02 233.015 163.211 231.27 165.627 229.875L113.666 199.875C111.25 201.27 109.059 203.015 107.093 205.1L159.054 235.1Z" fill="#8BC5E4"/>
<path d="M165.627 229.875C168.277 228.345 170.615 227.505 172.633 227.35L120.672 197.35C118.654 197.505 116.316 198.345 113.666 199.875L165.627 229.875Z" fill="#8BC5E4"/>
<path d="M172.633 227.35C174 227.219 175.157 227.431 176.099 227.979L124.138 197.979C123.196 197.431 122.039 197.219 120.672 197.35L172.633 227.35Z" fill="#8BC5E4"/>
<path d="M176.11 227.985C176.563 228.25 176.967 228.592 177.32 229.012L125.359 199.012C125.006 198.592 124.602 198.25 124.149 197.985L176.11 227.985Z" fill="#8BC5E4"/>
<path d="M177.327 229.02C178.418 230.33 178.999 232.195 179.085 234.595L127.124 204.595C127.037 202.195 126.457 200.33 125.366 199.02L177.327 229.02Z" fill="#8BC5E4"/>
<path d="M174.538 237.62C174.322 235.393 173.639 233.944 172.495 233.276L120.534 203.276C121.678 203.944 122.361 205.393 122.577 207.62L174.538 237.62Z" fill="#8BC5E4"/>
<path d="M172.503 233.28C172.363 233.197 172.216 233.127 172.062 233.068L120.1 203.068C120.254 203.127 120.401 203.197 120.541 203.28L172.503 233.28Z" fill="#8BC5E4"/>
<path d="M172.053 233.065C170.65 232.525 168.572 233.055 165.818 234.645L113.856 204.645C116.61 203.055 118.689 202.525 120.092 203.065L172.053 233.065Z" fill="#8BC5E4"/>
<path d="M165.818 234.645C162.951 236.3 160.864 238.125 159.539 240.12L107.578 210.12C108.903 208.125 110.99 206.3 113.856 204.645L165.818 234.645Z" fill="#8BC5E4"/>
<path d="M159.539 240.12C158.24 242.09 157.59 243.935 157.59 245.665L105.629 215.665C105.629 213.935 106.278 212.09 107.578 210.12L159.539 240.12Z" fill="#8BC5E4"/>
<path d="M157.59 245.665C157.59 247.06 157.987 248 158.787 248.467L106.826 218.467C106.026 218 105.629 217.06 105.629 215.665L157.59 245.665Z" fill="#8BC5E4"/>
<path d="M158.793 248.471C158.85 248.504 158.91 248.535 158.971 248.563L107.009 218.563C106.948 218.535 106.888 218.504 106.831 218.471L158.793 248.471Z" fill="#8BC5E4"/>
<path d="M158.976 248.565C159.894 249.005 162.267 248.635 166.112 247.445L114.151 217.445C110.306 218.635 107.933 219.005 107.015 218.565L158.976 248.565Z" fill="#8BC5E4"/>
<path d="M166.112 247.445C169.975 246.215 172.616 245.58 174.054 245.51L122.092 215.51C120.655 215.58 118.013 216.215 114.151 217.445L166.112 247.445Z" fill="#8BC5E4"/>
<path d="M174.054 245.51C175.489 245.452 176.662 245.686 177.579 246.214L125.617 216.214C124.7 215.686 123.527 215.452 122.092 215.51L174.054 245.51Z" fill="#8BC5E4"/>
<path d="M177.588 246.22C177.997 246.457 178.356 246.753 178.663 247.108L126.702 217.108C126.395 216.753 126.036 216.457 125.627 216.22L177.588 246.22Z" fill="#8BC5E4"/>
<path d="M178.67 247.115C179.665 248.25 180.159 249.945 180.159 252.185L128.198 222.185C128.198 219.945 127.704 218.25 126.708 217.115L178.67 247.115Z" fill="#8BC5E4"/>
<path d="M180.159 252.185C180.159 254.405 179.614 256.82 178.523 259.43L126.561 229.43C127.652 226.82 128.198 224.405 128.198 222.185L180.159 252.185Z" fill="#8BC5E4"/>
<path d="M178.522 259.43C177.431 262.02 175.864 264.455 173.811 266.74L121.85 236.74C123.902 234.455 125.47 232.02 126.561 229.43L178.522 259.43Z" fill="#8BC5E4"/>
<path d="M173.811 266.74C171.776 268.995 169.472 270.865 166.918 272.34L114.956 242.34C117.511 240.865 119.814 238.995 121.85 236.74L173.811 266.74Z" fill="#8BC5E4"/>
<path d="M166.918 272.34C163.679 274.21 160.96 275.23 158.76 275.4L106.798 245.4C108.998 245.23 111.717 244.21 114.956 242.34L166.918 272.34Z" fill="#8BC5E4"/>
<path d="M158.76 275.4C157.345 275.504 156.127 275.259 155.102 274.671L103.14 244.671C104.165 245.259 105.383 245.504 106.798 245.4L158.76 275.4Z" fill="#8BC5E4"/>
<path d="M155.095 274.667C154.544 274.35 154.049 273.934 153.61 273.419L101.649 243.419C102.088 243.934 102.583 244.35 103.134 244.667L155.095 274.667Z" fill="#8BC5E4"/>
<path d="M153.607 273.415C152.368 271.91 151.719 269.775 151.649 267.025L99.688 237.025C99.7572 239.775 100.407 241.91 101.645 243.415L153.607 273.415Z" fill="#8BC5E4"/>
<path d="M156.118 263.985C156.335 265.95 156.82 267.39 157.591 268.295L105.629 238.295C104.858 237.39 104.373 235.95 104.157 233.985L156.118 263.985Z" fill="#8BC5E4"/>
<path d="M157.59 268.295C157.815 268.549 158.076 268.762 158.372 268.934L106.411 238.934C106.115 238.762 105.854 238.549 105.629 238.295L157.59 268.295Z" fill="#8BC5E4"/>
<path d="M158.383 268.94C159.108 269.357 160.044 269.53 161.192 269.461L109.231 239.461C108.083 239.53 107.147 239.357 106.422 238.94L158.383 268.94Z" fill="#8BC5E4"/>
<path d="M161.202 269.46C162.83 269.33 164.666 268.68 166.701 267.505L114.74 237.505C112.704 238.68 110.868 239.33 109.24 239.46L161.202 269.46Z" fill="#8BC5E4"/>
<path d="M166.701 267.505C168.511 266.46 170.105 265.23 171.49 263.8L119.529 233.8C118.143 235.23 116.55 236.46 114.74 237.505L166.701 267.505Z" fill="#8BC5E4"/>
<path d="M171.49 263.8C172.876 262.38 173.898 260.93 174.565 259.465L122.603 229.465C121.936 230.93 120.914 232.38 119.529 233.8L171.49 263.8Z" fill="#8BC5E4"/>
<path d="M174.565 259.465C175.249 257.97 175.595 256.57 175.595 255.28L123.634 225.28C123.634 226.57 123.287 227.97 122.603 229.465L174.565 259.465Z" fill="#8BC5E4"/>
<path d="M175.595 255.28C175.595 253.97 175.266 253.02 174.617 252.425L122.655 222.425C123.305 223.02 123.634 223.97 123.634 225.28L175.595 255.28Z" fill="#8BC5E4"/>
<path d="M174.617 252.425C174.503 252.32 174.378 252.227 174.24 252.146L122.279 222.146C122.417 222.227 122.542 222.32 122.655 222.425L174.617 252.425Z" fill="#8BC5E4"/>
<path d="M174.242 252.146C173.579 251.756 172.632 251.641 171.396 251.809L119.434 221.809C120.67 221.641 121.617 221.756 122.28 222.146L174.242 252.146Z" fill="#8BC5E4"/>
<path d="M171.386 251.81C170.425 251.925 168.303 252.48 165.012 253.46L113.051 223.46C116.342 222.48 118.463 221.925 119.425 221.81L171.386 251.81Z" fill="#8BC5E4"/>
<path d="M165.013 253.46C161.722 254.43 159.418 254.89 158.102 254.83L106.14 224.83C107.457 224.89 109.76 224.43 113.051 223.46L165.013 253.46Z" fill="#8BC5E4"/>
<path d="M158.102 254.83C157.035 254.796 156.134 254.564 155.402 254.141L103.441 224.141C104.173 224.564 105.074 224.796 106.14 224.83L158.102 254.83Z" fill="#8BC5E4"/>
<path d="M155.407 254.144C154.968 253.891 154.589 253.57 154.271 253.181L102.309 223.181C102.627 223.57 103.006 223.891 103.445 224.144L155.407 254.144Z" fill="#8BC5E4"/>
<path d="M154.265 253.175C153.434 252.095 153.018 250.595 153.018 248.675L101.057 218.675C101.057 220.595 101.472 222.095 102.304 223.175L154.265 253.175Z" fill="#8BC5E4"/>
<path d="M153.018 248.675C153.018 246.565 153.529 244.3 154.56 241.885L102.598 211.885C101.568 214.3 101.057 216.565 101.057 218.675L153.018 248.675Z" fill="#8BC5E4"/>
<path d="M154.56 241.885C155.582 239.455 157.08 237.19 159.054 235.1L107.093 205.1C105.118 207.19 103.62 209.455 102.598 211.885L154.56 241.885Z" fill="#8BC5E4"/>
<path d="M127.003 282.475C127.782 284.785 128.354 286.515 128.717 287.675L76.7557 257.675C76.392 256.515 75.8204 254.785 75.041 252.475L127.003 282.475Z" fill="#8BC5E4"/>
<path d="M128.717 287.675C129.124 285.92 129.757 283.315 130.623 279.875L78.6612 249.875C77.7951 253.315 77.1629 255.92 76.7559 257.675L128.717 287.675Z" fill="#8BC5E4"/>
<path d="M168.087 207.625C167.749 208.46 167.316 209.25 166.779 210.02L114.817 180.02C115.354 179.25 115.787 178.46 116.125 177.625L168.087 207.625Z" fill="#8BC5E4"/>
<path d="M166.779 210.02C165.783 211.435 164.337 212.83 162.163 214.085L110.202 184.085C112.375 182.83 113.822 181.435 114.818 180.02L166.779 210.02Z" fill="#8BC5E4"/>
<path d="M162.163 214.085C160.223 215.205 158.716 215.575 157.755 215.34L105.793 185.34C106.755 185.575 108.262 185.205 110.202 184.085L162.163 214.085Z" fill="#8BC5E4"/>
<path d="M157.755 215.34C157.553 215.292 157.371 215.224 157.209 215.131L105.247 185.131C105.409 185.224 105.591 185.292 105.794 185.34L157.755 215.34Z" fill="#8BC5E4"/>
<path d="M157.211 215.133C156.903 214.958 156.668 214.696 156.503 214.322L104.541 184.322C104.706 184.696 104.941 184.958 105.249 185.133L157.211 215.133Z" fill="#8BC5E4"/>
<path d="M62.4317 147.955C56.6726 151.28 51.9614 159.49 51.9614 166.21V341.79C51.9614 348.5 56.6726 351.28 62.4317 347.955L263.194 232.045C268.953 228.72 273.664 220.5 273.664 213.79V38.21C273.664 31.49 268.953 28.72 263.194 32.045L62.4317 147.955ZM62.4317 153.465L263.194 37.555C266.415 35.695 268.935 37.18 268.935 40.94V216.52C268.935 220.27 266.415 224.665 263.194 226.525L62.4317 342.435C59.2101 344.295 56.6899 342.81 56.6899 339.06V163.48C56.6899 159.72 59.2101 155.325 62.4317 153.465ZM162.631 104.135C147.363 112.95 137.776 134.625 137.776 147.925C137.776 163.785 142.141 164.975 145.068 168.425C148.991 173.04 151.416 183.72 151.528 191.615L174.071 178.66C174.071 171.09 175.015 159.335 179.553 149.735C184.714 138.815 187.122 132.955 187.122 119.135C187.122 102.385 176.262 96.265 162.631 104.135ZM107.075 139.99L89.4517 152.175L97.7915 165.59L100.831 157.205L120.066 158.11L123.261 149.295L104.036 148.375L107.075 139.99ZM217.823 76.05L220.862 80.925L201.637 104.045L204.832 109.17L224.067 86.055L227.106 90.93L235.446 67.885L217.823 76.05ZM110.782 176.99V184.51L88.9667 197.105V205.025L110.782 192.43V199.94L125.513 179.965L110.782 176.99ZM214.116 117.33L199.394 137.31L214.116 140.28V132.77L235.931 120.175V112.255L214.116 124.85V117.33ZM120.066 208.1L100.831 231.225L97.7915 226.35L89.4517 249.395L107.075 241.22L104.036 236.355L123.261 213.235L120.066 208.1ZM204.832 159.16L201.637 167.985L220.862 168.905L217.823 177.28L235.446 165.105L227.106 151.69L224.067 160.075L204.832 159.16ZM151.814 197.93C150.541 198.665 149.467 200.535 149.467 202.025V215.645C149.467 217.125 150.541 217.755 151.814 217.02L153.555 216.015C153.919 217.655 154.845 218.69 156.136 218.995C157.729 219.375 159.816 218.75 162.163 217.395C164.77 215.89 166.866 213.97 168.442 211.74C169.767 209.855 170.676 207.81 171.239 205.805L173.084 204.74C174.357 204.005 175.431 202.135 175.431 200.655V187.035C175.431 185.545 174.357 184.915 173.084 185.65L151.814 197.93ZM152.308 200.955L172.59 189.245V201.715L152.308 213.425V200.955ZM156.499 214.315L168.087 207.625C167.749 208.46 167.316 209.25 166.779 210.02C165.783 211.435 164.337 212.83 162.163 214.085C160.223 215.205 158.716 215.575 157.755 215.34C157.166 215.2 156.75 214.89 156.499 214.315ZM165.627 229.875C163.211 231.27 161.02 233.015 159.054 235.1C157.08 237.19 155.581 239.455 154.559 241.885C153.529 244.3 153.018 246.565 153.018 248.675C153.018 250.595 153.434 252.095 154.265 253.175C155.114 254.215 156.395 254.775 158.101 254.83C159.418 254.89 161.721 254.43 165.012 253.46C168.303 252.48 170.425 251.925 171.386 251.81C172.885 251.605 173.958 251.815 174.617 252.425C175.266 253.02 175.595 253.97 175.595 255.28C175.595 256.57 175.249 257.97 174.565 259.465C173.898 260.93 172.876 262.38 171.49 263.8C170.105 265.23 168.511 266.46 166.701 267.505C164.666 268.68 162.83 269.33 161.202 269.46C159.574 269.56 158.37 269.175 157.591 268.295C156.82 267.39 156.335 265.95 156.118 263.985L151.65 267.025C151.719 269.775 152.368 271.91 153.607 273.415C154.863 274.89 156.577 275.56 158.76 275.4C160.959 275.23 163.679 274.21 166.918 272.34C169.472 270.865 171.776 268.995 173.811 266.74C175.864 264.455 177.431 262.02 178.522 259.43C179.614 256.82 180.159 254.405 180.159 252.185C180.159 249.945 179.666 248.25 178.67 247.115C177.674 245.96 176.141 245.425 174.054 245.51C172.616 245.58 169.975 246.215 166.112 247.445C162.267 248.635 159.894 249.005 158.976 248.565C158.05 248.14 157.591 247.165 157.591 245.665C157.591 243.935 158.24 242.09 159.539 240.12C160.864 238.125 162.951 236.3 165.818 234.645C168.572 233.055 170.65 232.525 172.053 233.065C173.465 233.6 174.296 235.12 174.539 237.62L179.085 234.595C178.999 232.195 178.418 230.33 177.327 229.02C176.236 227.72 174.669 227.155 172.633 227.35C170.616 227.505 168.277 228.345 165.627 229.875ZM111.397 261.905V303.685L115.961 301.05V265.48L126.318 295.07L130.597 292.6L140.997 251.625V286.595L145.57 283.955V242.175L139.196 245.855L130.623 279.875C129.756 283.315 129.124 285.92 128.717 287.675C128.354 286.515 127.782 284.785 127.003 282.475L118.533 257.785L111.397 261.905ZM186.776 218.385V260.165L213.501 244.735V239.805L191.521 252.495V238.275L211.327 226.84V221.94L191.521 233.375V220.575L212.67 208.365V203.435L186.776 218.385Z" fill="#8BC5E4"/>
<path fill-rule="evenodd" clip-rule="evenodd" d="M62.4317 153.465L263.194 37.555C266.415 35.695 268.935 37.18 268.935 40.94V216.52C268.935 220.27 266.415 224.665 263.194 226.525L62.4317 342.435C59.2101 344.295 56.6899 342.81 56.6899 339.06V163.48C56.6899 159.72 59.2101 155.325 62.4317 153.465ZM137.776 147.925C137.776 134.625 147.363 112.95 162.631 104.135C176.262 96.265 187.122 102.385 187.122 119.135C187.122 132.955 184.714 138.815 179.553 149.735C175.015 159.335 174.071 171.09 174.071 178.66L151.528 191.615C151.416 183.72 148.991 173.04 145.068 168.425C142.141 164.975 137.776 163.785 137.776 147.925ZM89.4517 152.175L107.075 139.99L104.036 148.375L123.261 149.295L120.066 158.11L100.831 157.205L97.7915 165.59L89.4517 152.175ZM220.862 80.925L217.823 76.05L235.446 67.885L227.106 90.93L224.067 86.055L204.832 109.17L201.637 104.045L220.862 80.925ZM110.782 184.51V176.99L125.513 179.965L110.782 199.94V192.43L88.9667 205.025V197.105L110.782 184.51ZM199.394 137.31L214.116 117.33V124.85L235.931 112.255V120.175L214.116 132.77V140.28L199.394 137.31ZM100.831 231.225L120.066 208.1L123.261 213.235L104.036 236.355L107.075 241.22L89.4517 249.395L97.7915 226.35L100.831 231.225ZM201.637 167.985L204.832 159.16L224.067 160.075L227.106 151.69L235.446 165.105L217.823 177.28L220.862 168.905L201.637 167.985ZM149.467 202.025C149.467 200.535 150.541 198.665 151.814 197.93L173.084 185.65C174.357 184.915 175.431 185.545 175.431 187.035V200.655C175.431 202.135 174.357 204.005 173.084 204.74L171.239 205.805C170.676 207.81 169.767 209.855 168.442 211.74C166.866 213.97 164.77 215.89 162.163 217.395C159.816 218.75 157.729 219.375 156.136 218.995C154.845 218.69 153.919 217.655 153.555 216.015L151.814 217.02C150.541 217.755 149.467 217.125 149.467 215.645V202.025ZM159.054 235.1C161.02 233.015 163.211 231.27 165.627 229.875C168.277 228.345 170.616 227.505 172.633 227.35C174.669 227.155 176.236 227.72 177.327 229.02C178.418 230.33 178.999 232.195 179.085 234.595L174.539 237.62C174.296 235.12 173.465 233.6 172.053 233.065C170.65 232.525 168.572 233.055 165.818 234.645C162.951 236.3 160.864 238.125 159.539 240.12C158.24 242.09 157.591 243.935 157.591 245.665C157.591 247.165 158.05 248.14 158.976 248.565C159.894 249.005 162.267 248.635 166.112 247.445C169.975 246.215 172.616 245.58 174.054 245.51C176.141 245.425 177.674 245.96 178.67 247.115C179.666 248.25 180.159 249.945 180.159 252.185C180.159 254.405 179.614 256.82 178.522 259.43C177.431 262.02 175.864 264.455 173.811 266.74C171.776 268.995 169.472 270.865 166.918 272.34C163.679 274.21 160.959 275.23 158.76 275.4C156.577 275.56 154.863 274.89 153.607 273.415C152.368 271.91 151.719 269.775 151.65 267.025L156.118 263.985C156.335 265.95 156.82 267.39 157.591 268.295C158.37 269.175 159.574 269.56 161.202 269.46C162.83 269.33 164.666 268.68 166.701 267.505C168.511 266.46 170.105 265.23 171.49 263.8C172.876 262.38 173.898 260.93 174.565 259.465C175.249 257.97 175.595 256.57 175.595 255.28C175.595 253.97 175.266 253.02 174.617 252.425C173.958 251.815 172.885 251.605 171.386 251.81C170.425 251.925 168.303 252.48 165.012 253.46C161.721 254.43 159.418 254.89 158.101 254.83C156.395 254.775 155.114 254.215 154.265 253.175C153.434 252.095 153.018 250.595 153.018 248.675C153.018 246.565 153.529 244.3 154.559 241.885C155.581 239.455 157.08 237.19 159.054 235.1ZM111.397 303.685V261.905L118.533 257.785L127.003 282.475C127.782 284.785 128.354 286.515 128.717 287.675C129.124 285.92 129.756 283.315 130.623 279.875L139.196 245.855L145.57 242.175V283.955L140.997 286.595V251.625L130.597 292.6L126.318 295.07L115.961 265.48V301.05L111.397 303.685ZM186.776 260.165V218.385L212.67 203.435V208.365L191.521 220.575V233.375L211.327 221.94V226.84L191.521 238.275V252.495L213.501 239.805V244.735L186.776 260.165Z" fill="white"/>
<path d="M152.308 200.955L172.59 189.245V201.715L152.308 213.425V200.955Z" fill="white"/>
<path d="M156.499 214.315L168.087 207.625C167.749 208.46 167.316 209.25 166.779 210.02C165.783 211.435 164.337 212.83 162.163 214.085C160.223 215.205 158.716 215.575 157.755 215.34C157.166 215.2 156.75 214.89 156.499 214.315Z" fill="white"/>
</svg>
