<svg width="274" height="354" viewBox="0 0 274 354" fill="none" xmlns="http://www.w3.org/2000/svg">
<path d="M86.9058 203.947V148.687L138.867 118.687V173.947L86.9058 203.947Z" fill="#8BC5E4"/>
<path d="M86.9058 148.687L126.656 199.387L178.618 169.387L138.867 118.687L86.9058 148.687Z" fill="#8BC5E4"/>
<path d="M126.656 199.387L86.9058 203.947L138.867 173.947L178.618 169.387L126.656 199.387Z" fill="#8BC5E4"/>
<path d="M86.9058 203.947L138.867 173.947L86.9058 203.947Z" fill="#8BC5E4"/>
<path d="M76.5131 205.027L72.6074 198.282L124.569 168.282L128.475 175.027L76.5131 205.027Z" fill="#8BC5E4"/>
<path d="M72.6078 198.282L46.8608 213.877L98.8224 183.877L124.569 168.282L72.6078 198.282Z" fill="#8BC5E4"/>
<path d="M46.8608 213.877L50.7579 220.607L102.72 190.607L98.8224 183.877L46.8608 213.877Z" fill="#8BC5E4"/>
<path d="M50.7578 220.607L36.8062 215.572L88.7677 185.572L102.719 190.607L50.7578 220.607Z" fill="#8BC5E4"/>
<path d="M36.8062 215.572L39.2311 200.682L91.1926 170.682L88.7677 185.572L36.8062 215.572Z" fill="#8BC5E4"/>
<path d="M39.231 200.682L43.1454 207.442L95.1069 177.442L91.1925 170.682L39.231 200.682Z" fill="#8BC5E4"/>
<path d="M43.1455 207.442L68.8924 191.857L120.854 161.857L95.107 177.442L43.1455 207.442Z" fill="#8BC5E4"/>
<path d="M68.8924 191.857L64.978 185.107L116.94 155.107L120.854 161.857L68.8924 191.857Z" fill="#8BC5E4"/>
<path d="M64.978 185.107L78.9816 190.022L130.943 160.022L116.94 155.107L64.978 185.107Z" fill="#8BC5E4"/>
<path d="M78.9814 190.022L76.5132 205.027L128.475 175.027L130.943 160.022L78.9814 190.022Z" fill="#8BC5E4"/>
<path d="M76.5132 205.027L128.475 175.027L76.5132 205.027Z" fill="#8BC5E4"/>
<path d="M76.5738 135.672L72.668 137.907L124.629 107.907L128.535 105.672L76.5738 135.672Z" fill="#8BC5E4"/>
<path d="M72.6683 137.907L46.9214 92.592L98.8829 62.592L124.63 107.907L72.6683 137.907Z" fill="#8BC5E4"/>
<path d="M46.9214 92.5921L50.8185 90.3621L102.78 60.3621L98.8829 62.5921L46.9214 92.5921Z" fill="#8BC5E4"/>
<path d="M50.8185 90.362L36.8755 79.282L88.837 49.282L102.78 60.362L50.8185 90.362Z" fill="#8BC5E4"/>
<path d="M36.8755 79.282L39.2917 96.967L91.2532 66.967L88.837 49.282L36.8755 79.282Z" fill="#8BC5E4"/>
<path d="M39.2915 96.9671L43.2059 94.7271L95.1674 64.7271L91.253 66.9671L39.2915 96.9671Z" fill="#8BC5E4"/>
<path d="M43.2061 94.7271L68.953 140.052L120.915 110.052L95.1676 64.7271L43.2061 94.7271Z" fill="#8BC5E4"/>
<path d="M68.953 140.052L65.0386 142.282L117 112.282L120.915 110.052L68.953 140.052Z" fill="#8BC5E4"/>
<path d="M65.0386 142.282L79.0422 153.537L131.004 123.537L117 112.282L65.0386 142.282Z" fill="#8BC5E4"/>
<path d="M79.0423 153.537L76.5742 135.672L128.536 105.672L131.004 123.537L79.0423 153.537Z" fill="#8BC5E4"/>
<path d="M76.5742 135.672L128.536 105.672L76.5742 135.672Z" fill="#8BC5E4"/>
<path d="M67.2988 155.617V162.017L119.26 132.017V125.617L67.2988 155.617Z" fill="#8BC5E4"/>
<path d="M67.2989 162.017L30.6401 140.852L82.6016 110.852L119.261 132.017L67.2989 162.017Z" fill="#8BC5E4"/>
<path d="M30.6401 140.852V134.472L82.6016 104.472V110.852L30.6401 140.852Z" fill="#8BC5E4"/>
<path d="M30.6399 134.472L19.0005 137.212L70.962 107.212L82.6014 104.472L30.6399 134.472Z" fill="#8BC5E4"/>
<path d="M19.0005 137.212L30.6399 153.352L82.6014 123.352L70.962 107.212L19.0005 137.212Z" fill="#8BC5E4"/>
<path d="M30.6401 153.352V146.932L82.6016 116.932V123.352L30.6401 153.352Z" fill="#8BC5E4"/>
<path d="M30.6401 146.932L67.2989 168.097L119.261 138.097L82.6016 116.932L30.6401 146.932Z" fill="#8BC5E4"/>
<path d="M67.2988 168.097V174.507L119.26 144.507V138.097L67.2988 168.097Z" fill="#8BC5E4"/>
<path d="M67.2988 174.507L79.0768 171.897L131.038 141.897L119.26 144.507L67.2988 174.507Z" fill="#8BC5E4"/>
<path d="M79.0768 171.897L67.2988 155.617L119.26 125.617L131.038 141.897L79.0768 171.897Z" fill="#8BC5E4"/>
<path d="M67.2988 155.617L119.26 125.617L67.2988 155.617Z" fill="#8BC5E4"/>
<path d="M10.4702 36.917L211.232 152.827L263.194 122.827L62.4318 6.91699L10.4702 36.917Z" fill="#8BC5E4"/>
<path d="M216.965 162.847V338.407L268.927 308.407V132.847L216.965 162.847Z" fill="#8BC5E4"/>
<path d="M211.232 341.807L10.4702 225.897L62.4318 195.897L263.194 311.807L211.232 341.807Z" fill="#8BC5E4"/>
<path d="M4.72852 215.872V40.312L56.69 10.312V185.872L4.72852 215.872Z" fill="#8BC5E4"/>
<path d="M10.4702 36.917L62.4318 6.91699L10.4702 36.917Z" fill="#8BC5E4"/>
<path d="M0 37.582V213.142L51.9615 183.142V7.58203L0 37.582Z" fill="#8BC5E4"/>
<path d="M10.4702 231.407L211.232 347.317L263.194 317.317L62.4318 201.407L10.4702 231.407Z" fill="#8BC5E4"/>
<path d="M221.703 341.142V165.582L273.664 135.582V311.142L221.703 341.142Z" fill="#8BC5E4"/>
<path d="M211.232 147.317L10.4702 31.407L62.4318 1.40698L263.194 117.317L211.232 147.317Z" fill="#8BC5E4"/>
<path d="M10.4702 31.407L62.4318 1.40698L10.4702 31.407Z" fill="#8BC5E4"/>
<path d="M181.631 213.257V225.217L233.593 195.217V183.257L181.631 213.257Z" fill="#8BC5E4"/>
<path d="M181.631 225.217L156.915 210.947L208.877 180.947L233.593 195.217L181.631 225.217Z" fill="#8BC5E4"/>
<path d="M156.915 210.947V198.987L208.877 168.987V180.947L156.915 210.947Z" fill="#8BC5E4"/>
<path d="M156.915 198.987L135.117 204.142L187.079 174.142L208.877 168.987L156.915 198.987Z" fill="#8BC5E4"/>
<path d="M135.117 204.142L156.915 234.357L208.877 204.357L187.079 174.142L135.117 204.142Z" fill="#8BC5E4"/>
<path d="M156.915 234.357V222.347L208.877 192.347V204.357L156.915 234.357Z" fill="#8BC5E4"/>
<path d="M156.915 222.347L181.631 236.617L233.593 206.617L208.877 192.347L156.915 222.347Z" fill="#8BC5E4"/>
<path d="M181.631 236.617V248.627L233.593 218.627V206.617L181.631 236.617Z" fill="#8BC5E4"/>
<path d="M181.631 248.627L203.663 243.717L255.625 213.717L233.593 218.627L181.631 248.627Z" fill="#8BC5E4"/>
<path d="M203.663 243.717L181.631 213.257L233.593 183.257L255.625 213.717L203.663 243.717Z" fill="#8BC5E4"/>
<path d="M181.631 213.257L233.593 183.257L181.631 213.257Z" fill="#8BC5E4"/>
<path d="M10.4702 36.917L211.232 152.827L263.194 122.827L62.4318 6.91699L10.4702 36.917Z" fill="#8BC5E4"/>
<path d="M216.965 162.847V338.407L268.927 308.407V132.847L216.965 162.847Z" fill="#8BC5E4"/>
<path d="M211.232 341.807L10.4702 225.897L62.4318 195.897L263.194 311.807L211.232 341.807Z" fill="#8BC5E4"/>
<path d="M4.72852 215.872V40.312L56.69 10.312V185.872L4.72852 215.872Z" fill="#8BC5E4"/>
<path d="M10.4702 36.917L62.4318 6.91699L10.4702 36.917Z" fill="#8BC5E4"/>
<path d="M86.9058 148.687V203.947L138.867 173.947V118.687L86.9058 148.687Z" fill="#8BC5E4"/>
<path d="M86.9058 203.947L126.656 199.387L178.618 169.387L138.867 173.947L86.9058 203.947Z" fill="#8BC5E4"/>
<path d="M126.656 199.387L86.9058 148.687L138.867 118.687L178.618 169.387L126.656 199.387Z" fill="#8BC5E4"/>
<path d="M86.9058 148.687L138.867 118.687L86.9058 148.687Z" fill="#8BC5E4"/>
<path d="M72.6074 198.282L76.5131 205.027L128.475 175.027L124.569 168.282L72.6074 198.282Z" fill="#8BC5E4"/>
<path d="M76.5132 205.027L78.9814 190.022L130.943 160.022L128.475 175.027L76.5132 205.027Z" fill="#8BC5E4"/>
<path d="M78.9816 190.022L64.978 185.107L116.94 155.107L130.943 160.022L78.9816 190.022Z" fill="#8BC5E4"/>
<path d="M64.978 185.107L68.8924 191.857L120.854 161.857L116.94 155.107L64.978 185.107Z" fill="#8BC5E4"/>
<path d="M68.8924 191.857L43.1455 207.442L95.107 177.442L120.854 161.857L68.8924 191.857Z" fill="#8BC5E4"/>
<path d="M43.1454 207.442L39.231 200.682L91.1925 170.682L95.1069 177.442L43.1454 207.442Z" fill="#8BC5E4"/>
<path d="M39.2311 200.682L36.8062 215.572L88.7677 185.572L91.1926 170.682L39.2311 200.682Z" fill="#8BC5E4"/>
<path d="M36.8062 215.572L50.7578 220.607L102.719 190.607L88.7677 185.572L36.8062 215.572Z" fill="#8BC5E4"/>
<path d="M50.7579 220.607L46.8608 213.877L98.8224 183.877L102.72 190.607L50.7579 220.607Z" fill="#8BC5E4"/>
<path d="M46.8608 213.877L72.6078 198.282L124.569 168.282L98.8224 183.877L46.8608 213.877Z" fill="#8BC5E4"/>
<path d="M72.6074 198.282L124.569 168.282L72.6074 198.282Z" fill="#8BC5E4"/>
<path d="M72.668 137.907L76.5738 135.672L128.535 105.672L124.629 107.907L72.668 137.907Z" fill="#8BC5E4"/>
<path d="M76.5742 135.672L79.0423 153.537L131.004 123.537L128.536 105.672L76.5742 135.672Z" fill="#8BC5E4"/>
<path d="M79.0422 153.537L65.0386 142.282L117 112.282L131.004 123.537L79.0422 153.537Z" fill="#8BC5E4"/>
<path d="M65.0386 142.282L68.953 140.052L120.915 110.052L117 112.282L65.0386 142.282Z" fill="#8BC5E4"/>
<path d="M68.953 140.052L43.2061 94.7271L95.1676 64.7271L120.915 110.052L68.953 140.052Z" fill="#8BC5E4"/>
<path d="M43.2059 94.7271L39.2915 96.9671L91.253 66.9671L95.1674 64.7271L43.2059 94.7271Z" fill="#8BC5E4"/>
<path d="M39.2917 96.967L36.8755 79.282L88.837 49.282L91.2532 66.967L39.2917 96.967Z" fill="#8BC5E4"/>
<path d="M36.8755 79.282L50.8185 90.362L102.78 60.362L88.837 49.282L36.8755 79.282Z" fill="#8BC5E4"/>
<path d="M50.8185 90.3621L46.9214 92.5921L98.8829 62.5921L102.78 60.3621L50.8185 90.3621Z" fill="#8BC5E4"/>
<path d="M46.9214 92.592L72.6683 137.907L124.63 107.907L98.8829 62.592L46.9214 92.592Z" fill="#8BC5E4"/>
<path d="M72.668 137.907L124.629 107.907L72.668 137.907Z" fill="#8BC5E4"/>
<path d="M67.2988 162.017V155.617L119.26 125.617V132.017L67.2988 162.017Z" fill="#8BC5E4"/>
<path d="M67.2988 155.617L79.0768 171.897L131.038 141.897L119.26 125.617L67.2988 155.617Z" fill="#8BC5E4"/>
<path d="M79.0768 171.897L67.2988 174.507L119.26 144.507L131.038 141.897L79.0768 171.897Z" fill="#8BC5E4"/>
<path d="M67.2988 174.507V168.097L119.26 138.097V144.507L67.2988 174.507Z" fill="#8BC5E4"/>
<path d="M67.2989 168.097L30.6401 146.932L82.6016 116.932L119.261 138.097L67.2989 168.097Z" fill="#8BC5E4"/>
<path d="M30.6401 146.932V153.352L82.6016 123.352V116.932L30.6401 146.932Z" fill="#8BC5E4"/>
<path d="M30.6399 153.352L19.0005 137.212L70.962 107.212L82.6014 123.352L30.6399 153.352Z" fill="#8BC5E4"/>
<path d="M19.0005 137.212L30.6399 134.472L82.6014 104.472L70.962 107.212L19.0005 137.212Z" fill="#8BC5E4"/>
<path d="M30.6401 134.472V140.852L82.6016 110.852V104.472L30.6401 134.472Z" fill="#8BC5E4"/>
<path d="M30.6401 140.852L67.2989 162.017L119.261 132.017L82.6016 110.852L30.6401 140.852Z" fill="#8BC5E4"/>
<path d="M67.2988 162.017L119.26 132.017L67.2988 162.017Z" fill="#8BC5E4"/>
<path d="M181.631 225.217V213.257L233.593 183.257V195.217L181.631 225.217Z" fill="#8BC5E4"/>
<path d="M181.631 213.257L203.663 243.717L255.625 213.717L233.593 183.257L181.631 213.257Z" fill="#8BC5E4"/>
<path d="M203.663 243.717L181.631 248.627L233.593 218.627L255.625 213.717L203.663 243.717Z" fill="#8BC5E4"/>
<path d="M181.631 248.627V236.617L233.593 206.617V218.627L181.631 248.627Z" fill="#8BC5E4"/>
<path d="M181.631 236.617L156.915 222.347L208.877 192.347L233.593 206.617L181.631 236.617Z" fill="#8BC5E4"/>
<path d="M156.915 222.347V234.357L208.877 204.357V192.347L156.915 222.347Z" fill="#8BC5E4"/>
<path d="M156.915 234.357L135.117 204.142L187.079 174.142L208.877 204.357L156.915 234.357Z" fill="#8BC5E4"/>
<path d="M135.117 204.142L156.915 198.987L208.877 168.987L187.079 174.142L135.117 204.142Z" fill="#8BC5E4"/>
<path d="M156.915 198.987V210.947L208.877 180.947V168.987L156.915 198.987Z" fill="#8BC5E4"/>
<path d="M156.915 210.947L181.631 225.217L233.593 195.217L208.877 180.947L156.915 210.947Z" fill="#8BC5E4"/>
<path d="M181.631 225.217L233.593 195.217L181.631 225.217Z" fill="#8BC5E4"/>
<path d="M211.232 152.827C214.445 154.682 216.965 159.077 216.965 162.847L268.927 132.847C268.927 129.077 266.407 124.682 263.194 122.827L211.232 152.827Z" fill="#8BC5E4"/>
<path d="M216.965 338.407C216.965 340.321 216.315 341.647 215.255 342.244L267.216 312.244C268.276 311.647 268.926 310.321 268.927 308.407L216.965 338.407Z" fill="#8BC5E4"/>
<path d="M215.257 342.244C214.23 342.824 212.817 342.721 211.237 341.81L263.198 311.81C264.778 312.721 266.191 312.824 267.218 312.244L215.257 342.244Z" fill="#8BC5E4"/>
<path d="M10.4702 225.897C7.24862 224.037 4.72852 219.642 4.72852 215.872L56.69 185.872C56.69 189.642 59.2102 194.037 62.4318 195.897L10.4702 225.897Z" fill="#8BC5E4"/>
<path d="M4.72852 40.3121C4.72802 38.3981 5.37802 37.0721 6.44002 36.4751L58.4015 6.4751C57.3395 7.0721 56.6895 8.3981 56.69 10.3121L4.72852 40.3121Z" fill="#8BC5E4"/>
<path d="M6.43799 36.476C7.46599 35.897 8.88099 36.001 10.466 36.914L62.4275 6.914C60.8425 6.001 59.4275 5.897 58.3995 6.476L6.43799 36.476Z" fill="#8BC5E4"/>
<path d="M10.47 31.4072C7.64078 29.7742 5.06478 29.6112 3.17578 30.6662L55.1373 0.666154C57.0263 -0.388846 59.6023 -0.225846 62.4316 1.40715L10.47 31.4072Z" fill="#8BC5E4"/>
<path d="M3.179 30.665C1.223 31.755 0.003 34.151 0 37.572L51.9615 7.57204C51.9645 4.15104 53.1845 1.75504 55.1405 0.665039L3.179 30.665Z" fill="#8BC5E4"/>
<path d="M0 213.142C0 219.872 4.7112 228.082 10.4702 231.407L62.4318 201.407C56.6727 198.082 51.9615 189.872 51.9615 183.142L0 213.142Z" fill="#8BC5E4"/>
<path d="M211.232 347.317C214.057 348.948 216.633 349.11 218.523 348.056L270.485 318.056C268.595 319.11 266.019 318.948 263.194 317.317L211.232 347.317Z" fill="#8BC5E4"/>
<path d="M218.532 348.051C220.482 346.958 221.7 344.566 221.702 341.152L273.664 311.152C273.662 314.566 272.444 316.958 270.494 318.051L218.532 348.051Z" fill="#8BC5E4"/>
<path d="M221.703 165.582C221.703 158.852 216.983 150.637 211.232 147.317L263.194 117.317C268.944 120.637 273.664 128.852 273.664 135.582L221.703 165.582Z" fill="#8BC5E4"/>
<path d="M211.232 152.827C214.445 154.682 216.965 159.077 216.965 162.847L268.927 132.847C268.927 129.077 266.407 124.682 263.194 122.827L211.232 152.827Z" fill="#8BC5E4"/>
<path d="M216.965 338.407C216.965 340.321 216.315 341.647 215.255 342.244L267.216 312.244C268.276 311.647 268.926 310.321 268.927 308.407L216.965 338.407Z" fill="#8BC5E4"/>
<path d="M215.257 342.244C214.23 342.824 212.817 342.721 211.237 341.81L263.198 311.81C264.778 312.721 266.191 312.824 267.218 312.244L215.257 342.244Z" fill="#8BC5E4"/>
<path d="M10.4702 225.897C7.24862 224.037 4.72852 219.642 4.72852 215.872L56.69 185.872C56.69 189.642 59.2102 194.037 62.4318 195.897L10.4702 225.897Z" fill="#8BC5E4"/>
<path d="M4.72852 40.3121C4.72802 38.3981 5.37802 37.0721 6.44002 36.4751L58.4015 6.4751C57.3395 7.0721 56.6895 8.3981 56.69 10.3121L4.72852 40.3121Z" fill="#8BC5E4"/>
<path d="M6.43799 36.476C7.46599 35.897 8.88099 36.001 10.466 36.914L62.4275 6.914C60.8425 6.001 59.4275 5.897 58.3995 6.476L6.43799 36.476Z" fill="#8BC5E4"/>
<path d="M86.9056 203.947V148.687L126.656 199.387L86.9056 203.947ZM76.5133 205.027L72.6076 198.282L46.8606 213.877L50.7577 220.607L36.8061 215.572L39.2309 200.682L43.1454 207.442L68.8923 191.857L64.9779 185.107L78.9815 190.022L76.5133 205.027ZM76.574 135.672L72.6682 137.907L46.9213 92.5921L50.8184 90.3621L36.8754 79.2821L39.2916 96.9671L43.206 94.7271L68.9529 140.052L65.0385 142.282L79.0421 153.537L76.574 135.672ZM67.2988 155.617V162.017L30.64 140.852V134.472L19.0006 137.212L30.64 153.352V146.932L67.2988 168.097V174.507L79.0768 171.897L67.2988 155.617ZM10.4702 36.9171L211.232 152.827C214.445 154.682 216.965 159.077 216.965 162.847V338.407C216.965 342.177 214.445 343.662 211.232 341.807L10.4702 225.897C7.24863 224.037 4.7285 219.642 4.7285 215.872V40.3121C4.7285 36.5421 7.24863 35.0571 10.4702 36.9171ZM10.4702 31.4071C4.71118 28.0821 0 30.8521 0 37.5821V213.142C0 219.872 4.71118 228.082 10.4702 231.407L211.232 347.317C216.983 350.637 221.702 347.872 221.702 341.142V165.582C221.702 158.852 216.983 150.637 211.232 147.317L10.4702 31.4071ZM181.632 213.257V225.217L156.915 210.947V198.987L135.117 204.142L156.915 234.357V222.347L181.632 236.617V248.627L203.663 243.717L181.632 213.257Z" fill="#8BC5E4"/>
<path fill-rule="evenodd" clip-rule="evenodd" d="M10.4702 36.9171L211.232 152.827C214.445 154.682 216.965 159.077 216.965 162.847V338.407C216.965 342.177 214.445 343.662 211.232 341.807L10.4702 225.897C7.24863 224.037 4.7285 219.642 4.7285 215.872V40.3121C4.7285 36.5421 7.24863 35.0571 10.4702 36.9171ZM86.9056 148.687V203.947L126.656 199.387L86.9056 148.687ZM72.6076 198.282L76.5133 205.027L78.9815 190.022L64.9779 185.107L68.8923 191.857L43.1454 207.442L39.2309 200.682L36.8061 215.572L50.7577 220.607L46.8606 213.877L72.6076 198.282ZM72.6682 137.907L76.574 135.672L79.0421 153.537L65.0385 142.282L68.9529 140.052L43.206 94.7271L39.2916 96.9671L36.8754 79.2821L50.8184 90.3621L46.9213 92.5921L72.6682 137.907ZM67.2988 162.017V155.617L79.0768 171.897L67.2988 174.507V168.097L30.64 146.932V153.352L19.0006 137.212L30.64 134.472V140.852L67.2988 162.017ZM181.632 225.217V213.257L203.663 243.717L181.632 248.627V236.617L156.915 222.347V234.357L135.117 204.142L156.915 198.987V210.947L181.632 225.217Z" fill="white"/>
</svg>
