<svg width="246" height="202" viewBox="0 0 246 202" fill="none" xmlns="http://www.w3.org/2000/svg">
<path d="M114.917 129.155L114.484 103.855V163.855L114.917 189.155V129.155Z" fill="#8BC5E4"/>
<path d="M114.484 103.855L96.2977 103.955V163.955L114.484 163.855V103.855Z" fill="#8BC5E4"/>
<path d="M96.2977 103.955L122.521 80.865V140.865L96.2977 163.955V103.955Z" fill="#8BC5E4"/>
<path d="M122.521 80.865L149.714 103.655V163.655L122.521 140.865V80.865Z" fill="#8BC5E4"/>
<path d="M149.714 103.655L131.692 103.76V163.76L149.714 163.655V103.655Z" fill="#8BC5E4"/>
<path d="M131.692 103.76L132.116 129.055V189.055L131.692 163.76V103.76Z" fill="#8BC5E4"/>
<path d="M132.117 129.055L114.917 129.155V189.155L132.117 189.055V129.055Z" fill="#8BC5E4"/>
<path d="M107.374 76.1799L63.5532 76.4299V136.43L107.374 136.18V76.1799Z" fill="#8BC5E4"/>
<path d="M63.5532 76.4299L63.7264 86.9299V146.93L63.5532 136.43V76.4299Z" fill="#8BC5E4"/>
<path d="M63.7265 86.93L23.7334 71.79V131.79L63.7265 146.93V86.93Z" fill="#8BC5E4"/>
<path d="M23.7334 71.7901L63.2069 56.0901V116.09L23.7334 131.79V71.7901Z" fill="#8BC5E4"/>
<path d="M63.2069 56.0901L63.3801 66.5001V126.5L63.2069 116.09V56.0901Z" fill="#8BC5E4"/>
<path d="M63.3801 66.5L107.201 66.25V126.25L63.3801 126.5V66.5Z" fill="#8BC5E4"/>
<path d="M107.201 66.25L107.374 76.18V136.18L107.201 126.25V66.25Z" fill="#8BC5E4"/>
<path d="M131.545 13.9951L131.969 39.3001V99.3001L131.545 73.9951V13.9951Z" fill="#8BC5E4"/>
<path d="M131.969 39.3001L150.164 39.1951V99.1951L131.969 99.3001V39.3001Z" fill="#8BC5E4"/>
<path d="M150.164 39.1951L123.941 62.2851V122.285L150.164 99.1951V39.1951Z" fill="#8BC5E4"/>
<path d="M123.941 62.2851L96.7479 39.4951V99.4951L123.941 122.285V62.2851Z" fill="#8BC5E4"/>
<path d="M96.7479 39.495L114.779 39.395V99.395L96.7479 99.495V39.495Z" fill="#8BC5E4"/>
<path d="M114.779 39.3951L114.337 14.0901V74.0901L114.779 99.3951V39.3951Z" fill="#8BC5E4"/>
<path d="M114.337 14.0901L131.545 13.9951V73.9951L114.337 74.0901V14.0901Z" fill="#8BC5E4"/>
<path d="M138.43 66.3L182.251 66.05V126.05L138.43 126.3V66.3Z" fill="#8BC5E4"/>
<path d="M182.251 66.05L182.078 55.55V115.55L182.251 126.05V66.05Z" fill="#8BC5E4"/>
<path d="M182.078 55.55L222.071 70.69V130.69L182.078 115.55V55.55Z" fill="#8BC5E4"/>
<path d="M222.071 70.6899L182.597 86.3899V146.39L222.071 130.69V70.6899Z" fill="#8BC5E4"/>
<path d="M182.597 86.39L182.424 75.98V135.98L182.597 146.39V86.39Z" fill="#8BC5E4"/>
<path d="M182.424 75.98L138.603 76.23V136.23L182.424 135.98V75.98Z" fill="#8BC5E4"/>
<path d="M138.603 76.23L138.43 66.3V126.3L138.603 136.23V76.23Z" fill="#8BC5E4"/>
<path d="M114.484 103.855L114.917 129.155V189.155L114.484 163.855V103.855Z" fill="#8BC5E4"/>
<path d="M114.917 129.155L132.117 129.055V189.055L114.917 189.155V129.155Z" fill="#8BC5E4"/>
<path d="M132.116 129.055L131.692 103.76V163.76L132.116 189.055V129.055Z" fill="#8BC5E4"/>
<path d="M131.692 103.76L149.714 103.655V163.655L131.692 163.76V103.76Z" fill="#8BC5E4"/>
<path d="M149.714 103.655L122.521 80.865V140.865L149.714 163.655V103.655Z" fill="#8BC5E4"/>
<path d="M122.521 80.865L96.2977 103.955V163.955L122.521 140.865V80.865Z" fill="#8BC5E4"/>
<path d="M96.2977 103.955L114.484 103.855V163.855L96.2977 163.955V103.955Z" fill="#8BC5E4"/>
<path d="M63.5532 76.4299L107.374 76.1799V136.18L63.5532 136.43V76.4299Z" fill="#8BC5E4"/>
<path d="M107.374 76.18L107.201 66.25V126.25L107.374 136.18V76.18Z" fill="#8BC5E4"/>
<path d="M107.201 66.25L63.3801 66.5V126.5L107.201 126.25V66.25Z" fill="#8BC5E4"/>
<path d="M63.3801 66.5001L63.2069 56.0901V116.09L63.3801 126.5V66.5001Z" fill="#8BC5E4"/>
<path d="M63.2069 56.0901L23.7334 71.7901V131.79L63.2069 116.09V56.0901Z" fill="#8BC5E4"/>
<path d="M23.7334 71.79L63.7265 86.93V146.93L23.7334 131.79V71.79Z" fill="#8BC5E4"/>
<path d="M63.7264 86.9299L63.5532 76.4299V136.43L63.7264 146.93V86.9299Z" fill="#8BC5E4"/>
<path d="M131.969 39.3001L131.545 13.9951V73.9951L131.969 99.3001V39.3001Z" fill="#8BC5E4"/>
<path d="M131.545 13.9951L114.337 14.0901V74.0901L131.545 73.9951V13.9951Z" fill="#8BC5E4"/>
<path d="M114.337 14.0901L114.779 39.3951V99.3951L114.337 74.0901V14.0901Z" fill="#8BC5E4"/>
<path d="M114.779 39.395L96.7479 39.495V99.495L114.779 99.395V39.395Z" fill="#8BC5E4"/>
<path d="M96.7479 39.4951L123.941 62.2851V122.285L96.7479 99.4951V39.4951Z" fill="#8BC5E4"/>
<path d="M123.941 62.2851L150.164 39.1951V99.1951L123.941 122.285V62.2851Z" fill="#8BC5E4"/>
<path d="M150.164 39.1951L131.969 39.3001V99.3001L150.164 99.1951V39.1951Z" fill="#8BC5E4"/>
<path d="M182.251 66.05L138.43 66.3V126.3L182.251 126.05V66.05Z" fill="#8BC5E4"/>
<path d="M138.43 66.3L138.603 76.23V136.23L138.43 126.3V66.3Z" fill="#8BC5E4"/>
<path d="M138.603 76.23L182.424 75.98V135.98L138.603 136.23V76.23Z" fill="#8BC5E4"/>
<path d="M182.424 75.98L182.597 86.39V146.39L182.424 135.98V75.98Z" fill="#8BC5E4"/>
<path d="M182.597 86.3899L222.071 70.6899V130.69L182.597 146.39V86.3899Z" fill="#8BC5E4"/>
<path d="M222.071 70.69L182.078 55.55V115.55L222.071 130.69V70.69Z" fill="#8BC5E4"/>
<path d="M182.078 55.55L182.251 66.05V126.05L182.078 115.55V55.55Z" fill="#8BC5E4"/>
<path d="M131.693 0.990234L148.208 10.5252V70.5252L131.693 60.9902V0.990234Z" fill="#8BC5E4"/>
<path d="M148.208 10.5251L126.505 23.0551V83.0551L148.208 70.5251V10.5251Z" fill="#8BC5E4"/>
<path d="M126.505 23.0553L92.3229 3.32031V63.3203L126.505 83.0553V23.0553Z" fill="#8BC5E4"/>
<path d="M92.3229 3.32031L79.7483 5.64031V65.6403L92.3229 63.3203V3.32031Z" fill="#8BC5E4"/>
<path d="M79.7483 5.64014L61.3452 16.2651V76.2651L79.7483 65.6401V5.64014Z" fill="#8BC5E4"/>
<path d="M61.3452 16.2652L55.6035 12.9502V72.9502L61.3452 76.2652V16.2652Z" fill="#8BC5E4"/>
<path d="M55.6034 12.9502L49.394 15.4452V75.4452L55.6034 72.9502V12.9502Z" fill="#8BC5E4"/>
<path d="M49.394 15.4453L94.5399 41.5103V101.51L49.394 75.4453V15.4453Z" fill="#8BC5E4"/>
<path d="M94.5399 41.5103L73.0278 53.9303V113.93L94.5399 101.51V41.5103Z" fill="#8BC5E4"/>
<path d="M73.0279 53.9301L28.0725 27.9751V87.9751L73.0279 113.93V53.9301Z" fill="#8BC5E4"/>
<path d="M28.0724 27.9751L23.5085 31.4201V91.4201L28.0724 87.9751V27.9751Z" fill="#8BC5E4"/>
<path d="M23.5085 31.4202L29.3022 34.7652V94.7652L23.5085 91.4202V31.4202Z" fill="#8BC5E4"/>
<path d="M29.3022 34.7651L10.5527 45.5901V105.59L29.3022 94.7651V34.7651Z" fill="#8BC5E4"/>
<path d="M10.5528 45.5901L6.36133 52.6801V112.68L10.5528 105.59V45.5901Z" fill="#8BC5E4"/>
<path d="M6.36133 52.6802L40.7771 72.5502V132.55L6.36133 112.68V52.6802Z" fill="#8BC5E4"/>
<path d="M40.7771 72.5503L18.7974 85.2403V145.24L40.7771 132.55V72.5503Z" fill="#8BC5E4"/>
<path d="M18.7974 85.2403L3.09631 76.1753V136.175L18.7974 145.24V85.2403Z" fill="#8BC5E4"/>
<path d="M3.09631 76.1753L4.63791 83.1453V143.145L3.09631 136.175V76.1753Z" fill="#8BC5E4"/>
<path d="M4.63794 83.1453L101.46 139.045V199.045L4.63794 143.145V83.1453Z" fill="#8BC5E4"/>
<path d="M101.459 139.045L113.982 140.195V200.195L101.459 199.045V139.045Z" fill="#8BC5E4"/>
<path d="M113.982 140.195L101.061 132.735V192.735L113.982 200.195V140.195Z" fill="#8BC5E4"/>
<path d="M101.061 132.735L123.041 120.045V180.045L101.061 192.735V132.735Z" fill="#8BC5E4"/>
<path d="M123.041 120.045L154.304 138.095V198.095L123.041 180.045V120.045Z" fill="#8BC5E4"/>
<path d="M154.304 138.095L177.722 132.975V192.975L154.304 198.095V138.095Z" fill="#8BC5E4"/>
<path d="M177.722 132.975L188.564 126.715V186.715L177.722 192.975V132.975Z" fill="#8BC5E4"/>
<path d="M188.564 126.715L190.894 128.06V188.06L188.564 186.715V126.715Z" fill="#8BC5E4"/>
<path d="M190.894 128.06L197.337 125.7V185.7L190.894 188.06V128.06Z" fill="#8BC5E4"/>
<path d="M197.337 125.7L155.292 101.425V161.425L197.337 185.7V125.7Z" fill="#8BC5E4"/>
<path d="M155.292 101.425L176.804 89.0051V149.005L155.292 161.425V101.425Z" fill="#8BC5E4"/>
<path d="M176.804 89.0051L218.659 113.17V173.17L176.804 149.005V89.0051Z" fill="#8BC5E4"/>
<path d="M218.659 113.17L222.989 109.59V169.59L218.659 173.17V113.17Z" fill="#8BC5E4"/>
<path d="M222.989 109.59L220.607 108.215V168.215L222.989 169.59V109.59Z" fill="#8BC5E4"/>
<path d="M220.607 108.215L231.502 101.925V161.925L220.607 168.215V108.215Z" fill="#8BC5E4"/>
<path d="M231.502 101.925L240.335 88.7751V148.775L231.502 161.925V101.925Z" fill="#8BC5E4"/>
<path d="M240.335 88.7753L208.769 70.5503V130.55L240.335 148.775V88.7753Z" fill="#8BC5E4"/>
<path d="M208.769 70.5503L230.471 58.0203V118.02L208.769 130.55V70.5503Z" fill="#8BC5E4"/>
<path d="M230.471 58.0203L243.756 65.6903V125.69L230.471 118.02V58.0203Z" fill="#8BC5E4"/>
<path d="M243.756 65.6903L242.189 58.6953V118.695L243.756 125.69V65.6903Z" fill="#8BC5E4"/>
<path d="M242.189 58.6952L143.773 1.87524V61.8752L242.189 118.695V58.6952Z" fill="#8BC5E4"/>
<path d="M143.774 1.87523L131.693 0.990234V60.9902L143.774 61.8752V1.87523Z" fill="#8BC5E4"/>
<path d="M153.473 13.5652L225.197 54.9752V114.975L153.473 73.5652V13.5652Z" fill="#8BC5E4"/>
<path d="M225.197 54.9751L203.495 67.5051V127.505L225.197 114.975V54.9751Z" fill="#8BC5E4"/>
<path d="M203.495 67.5052L131.77 26.0952V86.0952L203.495 127.505V67.5052Z" fill="#8BC5E4"/>
<path d="M131.77 26.0952L153.473 13.5652V73.5652L131.77 86.0952V26.0952Z" fill="#8BC5E4"/>
<path d="M88.0448 6.94019L159.769 48.3502V108.35L88.0448 66.9402V6.94019Z" fill="#8BC5E4"/>
<path d="M159.769 48.3501L138.344 60.7201V120.72L159.769 108.35V48.3501Z" fill="#8BC5E4"/>
<path d="M138.343 60.7203L66.6193 19.3103V79.3103L138.343 120.72V60.7203Z" fill="#8BC5E4"/>
<path d="M66.6193 19.3102L88.0448 6.94019V66.9402L66.6193 79.3102V19.3102Z" fill="#8BC5E4"/>
<path d="M165.034 51.3901L236.759 92.8001V152.8L165.034 111.39V51.3901Z" fill="#8BC5E4"/>
<path d="M236.759 92.8003L215.333 105.17V165.17L236.759 152.8V92.8003Z" fill="#8BC5E4"/>
<path d="M215.333 105.17L143.609 63.7603V123.76L215.333 165.17V105.17Z" fill="#8BC5E4"/>
<path d="M143.609 63.7601L165.034 51.3901V111.39L143.609 123.76V63.7601Z" fill="#8BC5E4"/>
<path d="M99.8054 44.5503L171.53 85.9603V145.96L99.8054 104.55V44.5503Z" fill="#8BC5E4"/>
<path d="M171.53 85.9602L150.017 98.3802V158.38L171.53 145.96V85.9602Z" fill="#8BC5E4"/>
<path d="M150.018 98.3802L78.2933 56.9702V116.97L150.018 158.38V98.3802Z" fill="#8BC5E4"/>
<path d="M78.2933 56.9703L99.8054 44.5503V104.55L78.2933 116.97V56.9703Z" fill="#8BC5E4"/>
<path d="M34.5764 37.8103L106.301 79.2203V139.22L34.5764 97.8103V37.8103Z" fill="#8BC5E4"/>
<path d="M106.301 79.2202L84.5807 91.7602V151.76L106.301 139.22V79.2202Z" fill="#8BC5E4"/>
<path d="M84.5806 91.7601L12.8564 50.3501V110.35L84.5806 151.76V91.7601Z" fill="#8BC5E4"/>
<path d="M12.8564 50.3503L34.5763 37.8103V97.8103L12.8564 110.35V50.3503Z" fill="#8BC5E4"/>
<path d="M111.566 82.2603L183.29 123.67V183.67L111.566 142.26V82.2603Z" fill="#8BC5E4"/>
<path d="M183.29 123.67L161.57 136.21V196.21L183.29 183.67V123.67Z" fill="#8BC5E4"/>
<path d="M161.57 136.21L89.8461 94.8003V154.8L161.57 196.21V136.21Z" fill="#8BC5E4"/>
<path d="M89.8461 94.8003L111.566 82.2603V142.26L89.8461 154.8V94.8003Z" fill="#8BC5E4"/>
<path d="M46.0425 75.5901L117.767 117V177L46.0425 135.59V75.5901Z" fill="#8BC5E4"/>
<path d="M117.767 117L95.787 129.69V189.69L117.767 177V117Z" fill="#8BC5E4"/>
<path d="M95.7869 129.69L24.0627 88.2803V148.28L95.7869 189.69V129.69Z" fill="#8BC5E4"/>
<path d="M24.0627 88.2801L46.0424 75.5901V135.59L24.0627 148.28V88.2801Z" fill="#8BC5E4"/>
<path d="M131.693 0.990234L148.208 10.5252V70.5252L131.693 60.9902V0.990234Z" fill="#8BC5E4"/>
<path d="M148.208 10.5251L126.505 23.0551V83.0551L148.208 70.5251V10.5251Z" fill="#8BC5E4"/>
<path d="M126.505 23.0553L92.3229 3.32031V63.3203L126.505 83.0553V23.0553Z" fill="#8BC5E4"/>
<path d="M92.3229 3.32031L79.7483 5.64031V65.6403L92.3229 63.3203V3.32031Z" fill="#8BC5E4"/>
<path d="M79.7483 5.64014L61.3452 16.2651V76.2651L79.7483 65.6401V5.64014Z" fill="#8BC5E4"/>
<path d="M61.3452 16.2652L55.6035 12.9502V72.9502L61.3452 76.2652V16.2652Z" fill="#8BC5E4"/>
<path d="M55.6034 12.9502L49.394 15.4452V75.4452L55.6034 72.9502V12.9502Z" fill="#8BC5E4"/>
<path d="M49.394 15.4453L94.5399 41.5103V101.51L49.394 75.4453V15.4453Z" fill="#8BC5E4"/>
<path d="M94.5399 41.5103L73.0278 53.9303V113.93L94.5399 101.51V41.5103Z" fill="#8BC5E4"/>
<path d="M73.0279 53.9301L28.0725 27.9751V87.9751L73.0279 113.93V53.9301Z" fill="#8BC5E4"/>
<path d="M28.0724 27.9751L23.5085 31.4201V91.4201L28.0724 87.9751V27.9751Z" fill="#8BC5E4"/>
<path d="M23.5085 31.4202L29.3022 34.7652V94.7652L23.5085 91.4202V31.4202Z" fill="#8BC5E4"/>
<path d="M29.3022 34.7651L10.5527 45.5901V105.59L29.3022 94.7651V34.7651Z" fill="#8BC5E4"/>
<path d="M10.5528 45.5901L6.36133 52.6801V112.68L10.5528 105.59V45.5901Z" fill="#8BC5E4"/>
<path d="M6.36133 52.6802L40.7771 72.5502V132.55L6.36133 112.68V52.6802Z" fill="#8BC5E4"/>
<path d="M40.7771 72.5503L18.7974 85.2403V145.24L40.7771 132.55V72.5503Z" fill="#8BC5E4"/>
<path d="M18.7974 85.2403L3.09631 76.1753V136.175L18.7974 145.24V85.2403Z" fill="#8BC5E4"/>
<path d="M3.09631 76.1753L4.63791 83.1453V143.145L3.09631 136.175V76.1753Z" fill="#8BC5E4"/>
<path d="M4.63794 83.1453L101.46 139.045V199.045L4.63794 143.145V83.1453Z" fill="#8BC5E4"/>
<path d="M101.459 139.045L113.982 140.195V200.195L101.459 199.045V139.045Z" fill="#8BC5E4"/>
<path d="M113.982 140.195L101.061 132.735V192.735L113.982 200.195V140.195Z" fill="#8BC5E4"/>
<path d="M101.061 132.735L123.041 120.045V180.045L101.061 192.735V132.735Z" fill="#8BC5E4"/>
<path d="M123.041 120.045L154.304 138.095V198.095L123.041 180.045V120.045Z" fill="#8BC5E4"/>
<path d="M154.304 138.095L177.722 132.975V192.975L154.304 198.095V138.095Z" fill="#8BC5E4"/>
<path d="M177.722 132.975L188.564 126.715V186.715L177.722 192.975V132.975Z" fill="#8BC5E4"/>
<path d="M188.564 126.715L190.894 128.06V188.06L188.564 186.715V126.715Z" fill="#8BC5E4"/>
<path d="M190.894 128.06L197.337 125.7V185.7L190.894 188.06V128.06Z" fill="#8BC5E4"/>
<path d="M197.337 125.7L155.292 101.425V161.425L197.337 185.7V125.7Z" fill="#8BC5E4"/>
<path d="M155.292 101.425L176.804 89.0051V149.005L155.292 161.425V101.425Z" fill="#8BC5E4"/>
<path d="M176.804 89.0051L218.659 113.17V173.17L176.804 149.005V89.0051Z" fill="#8BC5E4"/>
<path d="M218.659 113.17L222.989 109.59V169.59L218.659 173.17V113.17Z" fill="#8BC5E4"/>
<path d="M222.989 109.59L220.607 108.215V168.215L222.989 169.59V109.59Z" fill="#8BC5E4"/>
<path d="M220.607 108.215L231.502 101.925V161.925L220.607 168.215V108.215Z" fill="#8BC5E4"/>
<path d="M231.502 101.925L240.335 88.7751V148.775L231.502 161.925V101.925Z" fill="#8BC5E4"/>
<path d="M240.335 88.7753L208.769 70.5503V130.55L240.335 148.775V88.7753Z" fill="#8BC5E4"/>
<path d="M208.769 70.5503L230.471 58.0203V118.02L208.769 130.55V70.5503Z" fill="#8BC5E4"/>
<path d="M230.471 58.0203L243.756 65.6903V125.69L230.471 118.02V58.0203Z" fill="#8BC5E4"/>
<path d="M243.756 65.6903L242.189 58.6953V118.695L243.756 125.69V65.6903Z" fill="#8BC5E4"/>
<path d="M242.189 58.6952L143.773 1.87524V61.8752L242.189 118.695V58.6952Z" fill="#8BC5E4"/>
<path d="M143.774 1.87523L131.693 0.990234V60.9902L143.774 61.8752V1.87523Z" fill="#8BC5E4"/>
<path d="M153.473 13.5652L225.197 54.9752V114.975L153.473 73.5652V13.5652Z" fill="#8BC5E4"/>
<path d="M225.197 54.9751L203.495 67.5051V127.505L225.197 114.975V54.9751Z" fill="#8BC5E4"/>
<path d="M203.495 67.5052L131.77 26.0952V86.0952L203.495 127.505V67.5052Z" fill="#8BC5E4"/>
<path d="M131.77 26.0952L153.473 13.5652V73.5652L131.77 86.0952V26.0952Z" fill="#8BC5E4"/>
<path d="M88.0448 6.94019L159.769 48.3502V108.35L88.0448 66.9402V6.94019Z" fill="#8BC5E4"/>
<path d="M159.769 48.3501L138.344 60.7201V120.72L159.769 108.35V48.3501Z" fill="#8BC5E4"/>
<path d="M138.343 60.7203L66.6193 19.3103V79.3103L138.343 120.72V60.7203Z" fill="#8BC5E4"/>
<path d="M66.6193 19.3102L88.0448 6.94019V66.9402L66.6193 79.3102V19.3102Z" fill="#8BC5E4"/>
<path d="M165.034 51.3901L236.759 92.8001V152.8L165.034 111.39V51.3901Z" fill="#8BC5E4"/>
<path d="M236.759 92.8003L215.333 105.17V165.17L236.759 152.8V92.8003Z" fill="#8BC5E4"/>
<path d="M215.333 105.17L143.609 63.7603V123.76L215.333 165.17V105.17Z" fill="#8BC5E4"/>
<path d="M143.609 63.7601L165.034 51.3901V111.39L143.609 123.76V63.7601Z" fill="#8BC5E4"/>
<path d="M99.8054 44.5503L171.53 85.9603V145.96L99.8054 104.55V44.5503Z" fill="#8BC5E4"/>
<path d="M171.53 85.9602L150.017 98.3802V158.38L171.53 145.96V85.9602Z" fill="#8BC5E4"/>
<path d="M150.018 98.3802L78.2933 56.9702V116.97L150.018 158.38V98.3802Z" fill="#8BC5E4"/>
<path d="M78.2933 56.9703L99.8054 44.5503V104.55L78.2933 116.97V56.9703Z" fill="#8BC5E4"/>
<path d="M34.5764 37.8103L106.301 79.2203V139.22L34.5764 97.8103V37.8103Z" fill="#8BC5E4"/>
<path d="M106.301 79.2202L84.5807 91.7602V151.76L106.301 139.22V79.2202Z" fill="#8BC5E4"/>
<path d="M84.5806 91.7601L12.8564 50.3501V110.35L84.5806 151.76V91.7601Z" fill="#8BC5E4"/>
<path d="M12.8564 50.3503L34.5763 37.8103V97.8103L12.8564 110.35V50.3503Z" fill="#8BC5E4"/>
<path d="M111.566 82.2603L183.29 123.67V183.67L111.566 142.26V82.2603Z" fill="#8BC5E4"/>
<path d="M183.29 123.67L161.57 136.21V196.21L183.29 183.67V123.67Z" fill="#8BC5E4"/>
<path d="M161.57 136.21L89.8461 94.8003V154.8L161.57 196.21V136.21Z" fill="#8BC5E4"/>
<path d="M89.8461 94.8003L111.566 82.2603V142.26L89.8461 154.8V94.8003Z" fill="#8BC5E4"/>
<path d="M46.0425 75.5901L117.767 117V177L46.0425 135.59V75.5901Z" fill="#8BC5E4"/>
<path d="M117.767 117L95.787 129.69V189.69L117.767 177V117Z" fill="#8BC5E4"/>
<path d="M95.7869 129.69L24.0627 88.2803V148.28L95.7869 189.69V129.69Z" fill="#8BC5E4"/>
<path d="M24.0627 88.2801L46.0424 75.5901V135.59L24.0627 148.28V88.2801Z" fill="#8BC5E4"/>
<path d="M209.808 20.9999C161.994 -6.60511 84.4157 -6.60511 36.6025 20.9999V80.9999C84.4157 53.3949 161.994 53.3949 209.808 80.9999V20.9999Z" fill="#8BC5E4"/>
<path d="M36.6025 21C12.696 34.802 0.743042 52.901 0.743042 71V131C0.743042 112.901 12.696 94.802 36.6025 81V21Z" fill="#8BC5E4"/>
<path d="M0.742065 70.9971C0.741065 89.0941 12.6921 107.192 36.5941 120.995V180.995C12.6921 167.192 0.741065 149.094 0.742065 130.997V70.9971Z" fill="#8BC5E4"/>
<path d="M36.6025 121C84.4157 148.605 161.994 148.605 209.808 121V181C161.994 208.605 84.4157 208.605 36.6025 181V121Z" fill="#8BC5E4"/>
<path d="M209.808 121C233.714 107.198 245.667 89.099 245.667 71V131C245.667 149.099 233.714 167.198 209.808 181V121Z" fill="#8BC5E4"/>
<path d="M245.668 71.0029C245.669 52.9059 233.718 34.8079 209.816 21.0049V81.0049C233.718 94.8079 245.669 112.906 245.668 131.003V71.0029Z" fill="#8BC5E4"/>
<path d="M207.608 22.27C230.921 35.73 242.578 53.365 242.578 71V131C242.578 113.365 230.921 95.73 207.608 82.27V22.27Z" fill="#8BC5E4"/>
<path d="M242.578 70.9971C242.579 88.6311 230.926 106.265 207.616 119.725V179.725C230.926 166.265 242.579 148.631 242.578 130.997V70.9971Z" fill="#8BC5E4"/>
<path d="M207.608 119.73C160.981 146.65 85.429 146.65 38.8022 119.73V179.73C85.429 206.65 160.981 206.65 207.608 179.73V119.73Z" fill="#8BC5E4"/>
<path d="M38.8022 119.73C15.489 106.27 3.83203 88.635 3.83203 71V131C3.83203 148.635 15.489 166.27 38.8022 179.73V119.73Z" fill="#8BC5E4"/>
<path d="M3.83203 71.0029C3.83103 53.3689 15.484 35.7349 38.794 22.2749V82.2749C15.484 95.7349 3.83103 113.369 3.83203 131.003V71.0029Z" fill="#8BC5E4"/>
<path d="M38.8022 22.2701C85.429 -4.64992 160.981 -4.64992 207.608 22.2701V82.2701C160.981 55.3501 85.429 55.3501 38.8022 82.2701V22.2701Z" fill="#8BC5E4"/>
<path d="M207.608 22.27C230.921 35.73 242.578 53.365 242.578 71V131C242.578 113.365 230.921 95.73 207.608 82.27V22.27Z" fill="#8BC5E4"/>
<path d="M242.578 70.9971C242.579 88.6311 230.926 106.265 207.616 119.725V179.725C230.926 166.265 242.579 148.631 242.578 130.997V70.9971Z" fill="#8BC5E4"/>
<path d="M207.608 119.73C160.981 146.65 85.429 146.65 38.8022 119.73V179.73C85.429 206.65 160.981 206.65 207.608 179.73V119.73Z" fill="#8BC5E4"/>
<path d="M38.8022 119.73C15.489 106.27 3.83203 88.635 3.83203 71V131C3.83203 148.635 15.489 166.27 38.8022 179.73V119.73Z" fill="#8BC5E4"/>
<path d="M3.83203 71.0029C3.83103 53.3689 15.484 35.7349 38.794 22.2749V82.2749C15.484 95.7349 3.83103 113.369 3.83203 131.003V71.0029Z" fill="#8BC5E4"/>
<path d="M38.8022 22.2701C85.429 -4.64992 160.981 -4.64992 207.608 22.2701V82.2701C160.981 55.3501 85.429 55.3501 38.8022 82.2701V22.2701Z" fill="#8BC5E4"/>
<path d="M114.917 129.155L114.484 103.855L96.2976 103.955L122.521 80.8649L149.714 103.655L131.692 103.76L132.116 129.055L114.917 129.155ZM107.374 76.1799L63.5532 76.4299L63.7264 86.9299L23.7334 71.7899L63.2068 56.0899L63.38 66.4999L107.201 66.2499L107.374 76.1799ZM131.545 13.9949L131.969 39.2999L150.164 39.1949L123.941 62.2849L96.748 39.4949L114.779 39.3949L114.337 14.0899L131.545 13.9949ZM138.43 66.2999L182.251 66.0499L182.077 55.5499L222.07 70.6899L182.597 86.3899L182.424 75.9799L138.603 76.2299L138.43 66.2999ZM209.808 20.9999C161.994 -6.60511 84.4158 -6.60511 36.6025 20.9999C-11.2108 48.6049 -11.2108 93.3949 36.6025 121C84.4158 148.605 161.994 148.605 209.808 121C257.621 93.3949 257.621 48.6049 209.808 20.9999ZM207.608 22.2699C254.235 49.1899 254.235 92.8099 207.608 119.73C160.981 146.65 85.429 146.65 38.8022 119.73C-7.82461 92.8099 -7.8246 49.1899 38.8022 22.2699C85.429 -4.65011 160.981 -4.65011 207.608 22.2699Z" fill="#8BC5E4"/>
<path fill-rule="evenodd" clip-rule="evenodd" d="M207.608 22.2699C254.235 49.1899 254.235 92.8099 207.608 119.73C160.981 146.65 85.429 146.65 38.8022 119.73C-7.82461 92.8099 -7.8246 49.1899 38.8022 22.2699C85.429 -4.65011 160.981 -4.65011 207.608 22.2699ZM114.484 103.855L114.917 129.155L132.116 129.055L131.692 103.76L149.714 103.655L122.521 80.8649L96.2976 103.955L114.484 103.855ZM63.5532 76.4299L107.374 76.1799L107.201 66.2499L63.38 66.4999L63.2068 56.0899L23.7334 71.7899L63.7264 86.9299L63.5532 76.4299ZM131.969 39.2999L131.545 13.9949L114.337 14.0899L114.779 39.3949L96.748 39.4949L123.941 62.2849L150.164 39.1949L131.969 39.2999ZM182.251 66.0499L138.43 66.2999L138.603 76.2299L182.424 75.9799L182.597 86.3899L222.07 70.6899L182.077 55.5499L182.251 66.0499Z" fill="white"/>
<path d="M131.692 0.990069L148.207 10.5251L126.505 23.0551L92.3229 3.32007L79.7482 5.64007L61.3451 16.2651L55.6034 12.9501L49.394 15.4451L94.5399 41.5101L73.0278 53.9301L28.0725 27.9751L23.5085 31.4201L29.3022 34.7651L10.5528 45.5901L6.3612 52.6801L40.777 72.5501L18.7973 85.2401L3.09628 76.1751L4.6378 83.1451L101.459 139.045L113.982 140.195L101.061 132.735L123.041 120.045L154.304 138.095L177.722 132.975L188.564 126.715L190.894 128.06L197.337 125.7L155.292 101.425L176.804 89.0051L218.659 113.17L222.989 109.59L220.607 108.215L231.502 101.925L240.335 88.7751L208.769 70.5501L230.471 58.0201L243.756 65.6901L242.189 58.6951L143.773 1.87507L131.692 0.990069ZM153.473 13.5651L225.197 54.9751L203.495 67.5051L131.77 26.0951L153.473 13.5651ZM88.0447 6.94007L159.769 48.3501L138.343 60.7201L66.6192 19.3101L88.0447 6.94007ZM165.034 51.3901L236.759 92.8001L215.333 105.17L143.609 63.7601L165.034 51.3901ZM99.8053 44.5501L171.53 85.9601L150.017 98.3801L78.2933 56.9701L99.8053 44.5501ZM34.5763 37.8101L106.301 79.2201L84.5806 91.7601L12.8564 50.3501L34.5763 37.8101ZM111.566 82.2601L183.29 123.67L161.57 136.21L89.846 94.8001L111.566 82.2601ZM46.0425 75.5901L117.767 117L95.787 129.69L24.0627 88.2801L46.0425 75.5901Z" fill="#8BC5E4"/>
<path d="M131.692 0.990069L148.207 10.5251L126.505 23.0551L92.3229 3.32007L79.7482 5.64007L61.3451 16.2651L55.6034 12.9501L49.394 15.4451L94.5399 41.5101L73.0278 53.9301L28.0725 27.9751L23.5085 31.4201L29.3022 34.7651L10.5528 45.5901L6.3612 52.6801L40.777 72.5501L18.7973 85.2401L3.09628 76.1751L4.6378 83.1451L101.459 139.045L113.982 140.195L101.061 132.735L123.041 120.045L154.304 138.095L177.722 132.975L188.564 126.715L190.894 128.06L197.337 125.7L155.292 101.425L176.804 89.0051L218.659 113.17L222.989 109.59L220.607 108.215L231.502 101.925L240.335 88.7751L208.769 70.5501L230.471 58.0201L243.756 65.6901L242.189 58.6951L143.773 1.87507L131.692 0.990069ZM153.473 13.5651L225.197 54.9751L203.495 67.5051L131.77 26.0951L153.473 13.5651ZM88.0447 6.94007L159.769 48.3501L138.343 60.7201L66.6192 19.3101L88.0447 6.94007ZM165.034 51.3901L236.759 92.8001L215.333 105.17L143.609 63.7601L165.034 51.3901ZM99.8053 44.5501L171.53 85.9601L150.017 98.3801L78.2933 56.9701L99.8053 44.5501ZM34.5763 37.8101L106.301 79.2201L84.5806 91.7601L12.8564 50.3501L34.5763 37.8101ZM111.566 82.2601L183.29 123.67L161.57 136.21L89.846 94.8001L111.566 82.2601ZM46.0425 75.5901L117.767 117L95.787 129.69L24.0627 88.2801L46.0425 75.5901Z" fill="white" fill-opacity="0.5"/>
</svg>
