<svg width="246" height="203" viewBox="0 0 246 203" fill="none" xmlns="http://www.w3.org/2000/svg">
<path d="M222.062 76.2987L178.778 76.5387V136.539L222.062 136.299V76.2987Z" fill="#8BC5E4"/>
<path d="M178.778 76.5387L178.943 86.9138V146.914L178.778 136.539V76.5387Z" fill="#8BC5E4"/>
<path d="M178.943 86.9138L139.443 71.9587V131.959L178.943 146.914V86.9138Z" fill="#8BC5E4"/>
<path d="M139.443 71.9587L178.432 56.4487V116.449L139.443 131.959V71.9587Z" fill="#8BC5E4"/>
<path d="M178.432 56.4487L178.596 66.7337V126.734L178.432 116.449V56.4487Z" fill="#8BC5E4"/>
<path d="M178.596 66.7337L221.889 66.4987V126.499L178.596 126.734V66.7337Z" fill="#8BC5E4"/>
<path d="M221.889 66.4987L222.062 76.2987V136.299L221.889 126.499V66.4987Z" fill="#8BC5E4"/>
<path d="M131.432 80.6038L131.848 105.594V165.594L131.432 140.604V80.6038Z" fill="#8BC5E4"/>
<path d="M131.848 105.594L149.81 105.494V165.494L131.848 165.594V105.594Z" fill="#8BC5E4"/>
<path d="M149.81 105.494L123.924 128.299V188.299L149.81 165.494V105.494Z" fill="#8BC5E4"/>
<path d="M123.924 128.299L97.0601 105.789V165.789L123.924 188.299V128.299Z" fill="#8BC5E4"/>
<path d="M97.0601 105.789L114.857 105.684V165.684L97.0601 165.789V105.789Z" fill="#8BC5E4"/>
<path d="M114.857 105.684L114.441 80.6937V140.694L114.857 165.684V105.684Z" fill="#8BC5E4"/>
<path d="M114.441 80.6937L131.432 80.6038V140.604L114.441 140.694V80.6937Z" fill="#8BC5E4"/>
<path d="M25.05 66.8137L68.3252 66.5687V126.569L25.05 126.814V66.8137Z" fill="#8BC5E4"/>
<path d="M68.3252 66.5687L68.1606 56.2037V116.204L68.3252 126.569V66.5687Z" fill="#8BC5E4"/>
<path d="M68.1606 56.2037L107.669 71.1537V131.154L68.1606 116.204V56.2037Z" fill="#8BC5E4"/>
<path d="M107.669 71.1537L68.6716 86.6588V146.659L107.669 131.154V71.1537Z" fill="#8BC5E4"/>
<path d="M68.6716 86.6588L68.4983 76.3887V136.389L68.6716 146.659V86.6588Z" fill="#8BC5E4"/>
<path d="M68.4983 76.3887L25.2146 76.6287V136.629L68.4983 136.389V76.3887Z" fill="#8BC5E4"/>
<path d="M25.2146 76.6287L25.05 66.8137V126.814L25.2146 136.629V76.6287Z" fill="#8BC5E4"/>
<path d="M114.519 62.8887L114.103 37.8987V97.8988L114.519 122.889V62.8887Z" fill="#8BC5E4"/>
<path d="M114.103 37.8987L96.1421 37.9987V97.9987L114.103 97.8988V37.8987Z" fill="#8BC5E4"/>
<path d="M96.1421 37.9987L122.045 15.1937V75.1937L96.1421 97.9987V37.9987Z" fill="#8BC5E4"/>
<path d="M122.045 15.1937L148.892 37.7037V97.7037L122.045 75.1937V15.1937Z" fill="#8BC5E4"/>
<path d="M148.892 37.7037L131.095 37.7987V97.7987L148.892 97.7037V37.7037Z" fill="#8BC5E4"/>
<path d="M131.095 37.7987L131.519 62.7937V122.794L131.095 97.7987V37.7987Z" fill="#8BC5E4"/>
<path d="M131.519 62.7937L114.519 62.8887V122.889L131.519 122.794V62.7937Z" fill="#8BC5E4"/>
<path d="M178.778 76.5387L222.062 76.2987V136.299L178.778 136.539V76.5387Z" fill="#8BC5E4"/>
<path d="M222.062 76.2987L221.889 66.4987V126.499L222.062 136.299V76.2987Z" fill="#8BC5E4"/>
<path d="M221.889 66.4987L178.596 66.7337V126.734L221.889 126.499V66.4987Z" fill="#8BC5E4"/>
<path d="M178.596 66.7337L178.432 56.4487V116.449L178.596 126.734V66.7337Z" fill="#8BC5E4"/>
<path d="M178.432 56.4487L139.443 71.9587V131.959L178.432 116.449V56.4487Z" fill="#8BC5E4"/>
<path d="M139.443 71.9587L178.943 86.9138V146.914L139.443 131.959V71.9587Z" fill="#8BC5E4"/>
<path d="M178.943 86.9138L178.778 76.5387V136.539L178.943 146.914V86.9138Z" fill="#8BC5E4"/>
<path d="M131.848 105.594L131.432 80.6038V140.604L131.848 165.594V105.594Z" fill="#8BC5E4"/>
<path d="M131.432 80.6038L114.441 80.6937V140.694L131.432 140.604V80.6038Z" fill="#8BC5E4"/>
<path d="M114.441 80.6937L114.857 105.684V165.684L114.441 140.694V80.6937Z" fill="#8BC5E4"/>
<path d="M114.857 105.684L97.0601 105.789V165.789L114.857 165.684V105.684Z" fill="#8BC5E4"/>
<path d="M97.0601 105.789L123.924 128.299V188.299L97.0601 165.789V105.789Z" fill="#8BC5E4"/>
<path d="M123.924 128.299L149.81 105.494V165.494L123.924 188.299V128.299Z" fill="#8BC5E4"/>
<path d="M149.81 105.494L131.848 105.594V165.594L149.81 165.494V105.494Z" fill="#8BC5E4"/>
<path d="M68.3252 66.5687L25.05 66.8137V126.814L68.3252 126.569V66.5687Z" fill="#8BC5E4"/>
<path d="M25.05 66.8137L25.2146 76.6287V136.629L25.05 126.814V66.8137Z" fill="#8BC5E4"/>
<path d="M25.2146 76.6287L68.4983 76.3887V136.389L25.2146 136.629V76.6287Z" fill="#8BC5E4"/>
<path d="M68.4983 76.3887L68.6716 86.6588V146.659L68.4983 136.389V76.3887Z" fill="#8BC5E4"/>
<path d="M68.6716 86.6588L107.669 71.1537V131.154L68.6716 146.659V86.6588Z" fill="#8BC5E4"/>
<path d="M107.669 71.1537L68.1606 56.2037V116.204L107.669 131.154V71.1537Z" fill="#8BC5E4"/>
<path d="M68.1606 56.2037L68.3252 66.5687V126.569L68.1606 116.204V56.2037Z" fill="#8BC5E4"/>
<path d="M114.103 37.8987L114.519 62.8887V122.889L114.103 97.8988V37.8987Z" fill="#8BC5E4"/>
<path d="M114.519 62.8887L131.519 62.7937V122.794L114.519 122.889V62.8887Z" fill="#8BC5E4"/>
<path d="M131.519 62.7937L131.095 37.7987V97.7987L131.519 122.794V62.7937Z" fill="#8BC5E4"/>
<path d="M131.095 37.7987L148.892 37.7037V97.7037L131.095 97.7987V37.7987Z" fill="#8BC5E4"/>
<path d="M148.892 37.7037L122.045 15.1937V75.1937L148.892 97.7037V37.7037Z" fill="#8BC5E4"/>
<path d="M122.045 15.1937L96.1421 37.9987V97.9987L122.045 75.1937V15.1937Z" fill="#8BC5E4"/>
<path d="M96.1421 37.9987L114.103 37.8987V97.8988L96.1421 97.9987V37.9987Z" fill="#8BC5E4"/>
<path d="M36.854 21.7087C12.9521 35.5087 1 53.6067 1 71.7037V131.704C1 113.607 12.9521 95.5088 36.854 81.7087V21.7087Z" fill="#8BC5E4"/>
<path d="M1 71.7008C0.999 89.7968 12.947 107.894 36.845 121.694V181.694C12.947 167.894 0.999 149.797 1 131.701V71.7008Z" fill="#8BC5E4"/>
<path d="M36.854 121.699C84.6759 149.309 162.255 149.309 210.059 121.709V181.709C162.255 209.309 84.6759 209.309 36.854 181.699V121.699Z" fill="#8BC5E4"/>
<path d="M210.059 121.709C233.97 107.904 245.925 89.8037 245.925 71.7037V131.704C245.925 149.804 233.97 167.904 210.059 181.709V121.709Z" fill="#8BC5E4"/>
<path d="M245.925 71.7067C245.927 53.6077 233.974 35.5087 210.068 21.7037V81.7037C233.974 95.5087 245.927 113.608 245.925 131.707V71.7067Z" fill="#8BC5E4"/>
<path d="M210.059 21.6988C162.255 -5.90125 84.6759 -5.90125 36.854 21.7087V81.7087C84.6759 54.0987 162.255 54.0988 210.059 81.6988V21.6988Z" fill="#8BC5E4"/>
<path d="M39.0537 22.9788C85.6891 -3.94623 161.241 -3.94624 207.859 22.9688V82.9688C161.241 56.0538 85.6891 56.0538 39.0537 82.9788V22.9788Z" fill="#8BC5E4"/>
<path d="M207.859 22.9688C231.177 36.4308 242.836 54.0678 242.836 71.7038V131.704C242.836 114.068 231.177 96.4308 207.859 82.9688V22.9688Z" fill="#8BC5E4"/>
<path d="M242.836 71.7008C242.837 89.3358 231.182 106.971 207.868 120.434V180.434C231.182 166.971 242.837 149.336 242.836 131.701V71.7008Z" fill="#8BC5E4"/>
<path d="M207.859 120.439C161.241 147.354 85.6891 147.354 39.0537 120.429V180.429C85.6891 207.354 161.241 207.354 207.859 180.439V120.439Z" fill="#8BC5E4"/>
<path d="M39.0537 120.429C15.7451 106.971 4.09009 89.3377 4.09009 71.7037V131.704C4.09009 149.338 15.7451 166.971 39.0537 180.429V120.429Z" fill="#8BC5E4"/>
<path d="M4.09009 71.7068C4.08809 54.0738 15.7401 36.4408 39.0451 22.9838V82.9838C15.7401 96.4408 4.08809 114.074 4.09009 131.707V71.7068Z" fill="#8BC5E4"/>
<path d="M39.0537 22.9788C85.6891 -3.94623 161.241 -3.94624 207.859 22.9688V82.9688C161.241 56.0538 85.6891 56.0538 39.0537 82.9788V22.9788Z" fill="#8BC5E4"/>
<path d="M207.859 22.9688C231.177 36.4308 242.836 54.0678 242.836 71.7038V131.704C242.836 114.068 231.177 96.4308 207.859 82.9688V22.9688Z" fill="#8BC5E4"/>
<path d="M242.836 71.7008C242.837 89.3358 231.182 106.971 207.868 120.434V180.434C231.182 166.971 242.837 149.336 242.836 131.701V71.7008Z" fill="#8BC5E4"/>
<path d="M207.859 120.439C161.241 147.354 85.6891 147.354 39.0537 120.429V180.429C85.6891 207.354 161.241 207.354 207.859 180.439V120.439Z" fill="#8BC5E4"/>
<path d="M39.0537 120.429C15.7451 106.971 4.09009 89.3377 4.09009 71.7037V131.704C4.09009 149.338 15.7451 166.971 39.0537 180.429V120.429Z" fill="#8BC5E4"/>
<path d="M4.09009 71.7068C4.08809 54.0738 15.7401 36.4408 39.0451 22.9838V82.9838C15.7401 96.4408 4.08809 114.074 4.09009 131.707V71.7068Z" fill="#8BC5E4"/>
<path d="M222.062 76.2987L178.778 76.5387V136.539L222.062 136.299V76.2987Z" fill="#8BC5E4"/>
<path d="M178.778 76.5387L178.943 86.9138V146.914L178.778 136.539V76.5387Z" fill="#8BC5E4"/>
<path d="M178.943 86.9138L139.443 71.9587V131.959L178.943 146.914V86.9138Z" fill="#8BC5E4"/>
<path d="M139.443 71.9587L178.432 56.4487V116.449L139.443 131.959V71.9587Z" fill="#8BC5E4"/>
<path d="M178.432 56.4487L178.596 66.7337V126.734L178.432 116.449V56.4487Z" fill="#8BC5E4"/>
<path d="M178.596 66.7337L221.889 66.4987V126.499L178.596 126.734V66.7337Z" fill="#8BC5E4"/>
<path d="M221.889 66.4987L222.062 76.2987V136.299L221.889 126.499V66.4987Z" fill="#8BC5E4"/>
<path d="M131.432 80.6038L131.848 105.594V165.594L131.432 140.604V80.6038Z" fill="#8BC5E4"/>
<path d="M131.848 105.594L149.81 105.494V165.494L131.848 165.594V105.594Z" fill="#8BC5E4"/>
<path d="M149.81 105.494L123.924 128.299V188.299L149.81 165.494V105.494Z" fill="#8BC5E4"/>
<path d="M123.924 128.299L97.0601 105.789V165.789L123.924 188.299V128.299Z" fill="#8BC5E4"/>
<path d="M97.0601 105.789L114.857 105.684V165.684L97.0601 165.789V105.789Z" fill="#8BC5E4"/>
<path d="M114.857 105.684L114.441 80.6937V140.694L114.857 165.684V105.684Z" fill="#8BC5E4"/>
<path d="M114.441 80.6937L131.432 80.6038V140.604L114.441 140.694V80.6937Z" fill="#8BC5E4"/>
<path d="M25.05 66.8137L68.3252 66.5687V126.569L25.05 126.814V66.8137Z" fill="#8BC5E4"/>
<path d="M68.3252 66.5687L68.1606 56.2037V116.204L68.3252 126.569V66.5687Z" fill="#8BC5E4"/>
<path d="M68.1606 56.2037L107.669 71.1537V131.154L68.1606 116.204V56.2037Z" fill="#8BC5E4"/>
<path d="M107.669 71.1537L68.6716 86.6588V146.659L107.669 131.154V71.1537Z" fill="#8BC5E4"/>
<path d="M68.6716 86.6588L68.4983 76.3887V136.389L68.6716 146.659V86.6588Z" fill="#8BC5E4"/>
<path d="M68.4983 76.3887L25.2146 76.6287V136.629L68.4983 136.389V76.3887Z" fill="#8BC5E4"/>
<path d="M25.2146 76.6287L25.05 66.8137V126.814L25.2146 136.629V76.6287Z" fill="#8BC5E4"/>
<path d="M114.519 62.8887L114.103 37.8987V97.8988L114.519 122.889V62.8887Z" fill="#8BC5E4"/>
<path d="M114.103 37.8987L96.1421 37.9987V97.9987L114.103 97.8988V37.8987Z" fill="#8BC5E4"/>
<path d="M96.1421 37.9987L122.045 15.1937V75.1937L96.1421 97.9987V37.9987Z" fill="#8BC5E4"/>
<path d="M122.045 15.1937L148.892 37.7037V97.7037L122.045 75.1937V15.1937Z" fill="#8BC5E4"/>
<path d="M148.892 37.7037L131.095 37.7987V97.7987L148.892 97.7037V37.7037Z" fill="#8BC5E4"/>
<path d="M131.095 37.7987L131.519 62.7937V122.794L131.095 97.7987V37.7987Z" fill="#8BC5E4"/>
<path d="M131.519 62.7937L114.519 62.8887V122.889L131.519 122.794V62.7937Z" fill="#8BC5E4"/>
<path d="M178.778 76.5387L222.062 76.2987V136.299L178.778 136.539V76.5387Z" fill="#8BC5E4"/>
<path d="M222.062 76.2987L221.889 66.4987V126.499L222.062 136.299V76.2987Z" fill="#8BC5E4"/>
<path d="M221.889 66.4987L178.596 66.7337V126.734L221.889 126.499V66.4987Z" fill="#8BC5E4"/>
<path d="M178.596 66.7337L178.432 56.4487V116.449L178.596 126.734V66.7337Z" fill="#8BC5E4"/>
<path d="M178.432 56.4487L139.443 71.9587V131.959L178.432 116.449V56.4487Z" fill="#8BC5E4"/>
<path d="M139.443 71.9587L178.943 86.9138V146.914L139.443 131.959V71.9587Z" fill="#8BC5E4"/>
<path d="M178.943 86.9138L178.778 76.5387V136.539L178.943 146.914V86.9138Z" fill="#8BC5E4"/>
<path d="M131.848 105.594L131.432 80.6038V140.604L131.848 165.594V105.594Z" fill="#8BC5E4"/>
<path d="M131.432 80.6038L114.441 80.6937V140.694L131.432 140.604V80.6038Z" fill="#8BC5E4"/>
<path d="M114.441 80.6937L114.857 105.684V165.684L114.441 140.694V80.6937Z" fill="#8BC5E4"/>
<path d="M114.857 105.684L97.0601 105.789V165.789L114.857 165.684V105.684Z" fill="#8BC5E4"/>
<path d="M97.0601 105.789L123.924 128.299V188.299L97.0601 165.789V105.789Z" fill="#8BC5E4"/>
<path d="M123.924 128.299L149.81 105.494V165.494L123.924 188.299V128.299Z" fill="#8BC5E4"/>
<path d="M149.81 105.494L131.848 105.594V165.594L149.81 165.494V105.494Z" fill="#8BC5E4"/>
<path d="M68.3252 66.5687L25.05 66.8137V126.814L68.3252 126.569V66.5687Z" fill="#8BC5E4"/>
<path d="M25.05 66.8137L25.2146 76.6287V136.629L25.05 126.814V66.8137Z" fill="#8BC5E4"/>
<path d="M25.2146 76.6287L68.4983 76.3887V136.389L25.2146 136.629V76.6287Z" fill="#8BC5E4"/>
<path d="M68.4983 76.3887L68.6716 86.6588V146.659L68.4983 136.389V76.3887Z" fill="#8BC5E4"/>
<path d="M68.6716 86.6588L107.669 71.1537V131.154L68.6716 146.659V86.6588Z" fill="#8BC5E4"/>
<path d="M107.669 71.1537L68.1606 56.2037V116.204L107.669 131.154V71.1537Z" fill="#8BC5E4"/>
<path d="M68.1606 56.2037L68.3252 66.5687V126.569L68.1606 116.204V56.2037Z" fill="#8BC5E4"/>
<path d="M114.103 37.8987L114.519 62.8887V122.889L114.103 97.8988V37.8987Z" fill="#8BC5E4"/>
<path d="M114.519 62.8887L131.519 62.7937V122.794L114.519 122.889V62.8887Z" fill="#8BC5E4"/>
<path d="M131.519 62.7937L131.095 37.7987V97.7987L131.519 122.794V62.7937Z" fill="#8BC5E4"/>
<path d="M131.095 37.7987L148.892 37.7037V97.7037L131.095 97.7987V37.7987Z" fill="#8BC5E4"/>
<path d="M148.892 37.7037L122.045 15.1937V75.1937L148.892 97.7037V37.7037Z" fill="#8BC5E4"/>
<path d="M122.045 15.1937L96.1421 37.9987V97.9987L122.045 75.1937V15.1937Z" fill="#8BC5E4"/>
<path d="M96.1421 37.9987L114.103 37.8987V97.8988L96.1421 97.9987V37.9987Z" fill="#8BC5E4"/>
<path d="M36.854 21.7087C12.9521 35.5087 1 53.6067 1 71.7037V131.704C1 113.607 12.9521 95.5088 36.854 81.7087V21.7087Z" fill="#8BC5E4"/>
<path d="M1 71.7008C0.999 89.7968 12.947 107.894 36.845 121.694V181.694C12.947 167.894 0.999 149.797 1 131.701V71.7008Z" fill="#8BC5E4"/>
<path d="M36.854 121.699C84.6759 149.309 162.255 149.309 210.059 121.709V181.709C162.255 209.309 84.6759 209.309 36.854 181.699V121.699Z" fill="#8BC5E4"/>
<path d="M210.059 121.709C233.97 107.904 245.925 89.8037 245.925 71.7037V131.704C245.925 149.804 233.97 167.904 210.059 181.709V121.709Z" fill="#8BC5E4"/>
<path d="M245.925 71.7067C245.927 53.6077 233.974 35.5087 210.068 21.7037V81.7037C233.974 95.5087 245.927 113.608 245.925 131.707V71.7067Z" fill="#8BC5E4"/>
<path d="M210.059 21.6988C162.255 -5.90125 84.6759 -5.90125 36.854 21.7087V81.7087C84.6759 54.0987 162.255 54.0988 210.059 81.6988V21.6988Z" fill="#8BC5E4"/>
<path d="M39.0537 22.9788C85.6891 -3.94623 161.241 -3.94624 207.859 22.9688V82.9688C161.241 56.0538 85.6891 56.0538 39.0537 82.9788V22.9788Z" fill="#8BC5E4"/>
<path d="M207.859 22.9688C231.177 36.4308 242.836 54.0678 242.836 71.7038V131.704C242.836 114.068 231.177 96.4308 207.859 82.9688V22.9688Z" fill="#8BC5E4"/>
<path d="M242.836 71.7008C242.837 89.3358 231.182 106.971 207.868 120.434V180.434C231.182 166.971 242.837 149.336 242.836 131.701V71.7008Z" fill="#8BC5E4"/>
<path d="M207.859 120.439C161.241 147.354 85.6891 147.354 39.0537 120.429V180.429C85.6891 207.354 161.241 207.354 207.859 180.439V120.439Z" fill="#8BC5E4"/>
<path d="M39.0537 120.429C15.7451 106.971 4.09009 89.3377 4.09009 71.7037V131.704C4.09009 149.338 15.7451 166.971 39.0537 180.429V120.429Z" fill="#8BC5E4"/>
<path d="M4.09009 71.7068C4.08809 54.0738 15.7401 36.4408 39.0451 22.9838V82.9838C15.7401 96.4408 4.08809 114.074 4.09009 131.707V71.7068Z" fill="#8BC5E4"/>
<path d="M39.0537 22.9788C85.6891 -3.94623 161.241 -3.94624 207.859 22.9688V82.9688C161.241 56.0538 85.6891 56.0538 39.0537 82.9788V22.9788Z" fill="#8BC5E4"/>
<path d="M207.859 22.9688C231.177 36.4308 242.836 54.0678 242.836 71.7038V131.704C242.836 114.068 231.177 96.4308 207.859 82.9688V22.9688Z" fill="#8BC5E4"/>
<path d="M242.836 71.7008C242.837 89.3358 231.182 106.971 207.868 120.434V180.434C231.182 166.971 242.837 149.336 242.836 131.701V71.7008Z" fill="#8BC5E4"/>
<path d="M207.859 120.439C161.241 147.354 85.6891 147.354 39.0537 120.429V180.429C85.6891 207.354 161.241 207.354 207.859 180.439V120.439Z" fill="#8BC5E4"/>
<path d="M39.0537 120.429C15.7451 106.971 4.09009 89.3377 4.09009 71.7037V131.704C4.09009 149.338 15.7451 166.971 39.0537 180.429V120.429Z" fill="#8BC5E4"/>
<path d="M4.09009 71.7068C4.08809 54.0738 15.7401 36.4408 39.0451 22.9838V82.9838C15.7401 96.4408 4.08809 114.074 4.09009 131.707V71.7068Z" fill="#8BC5E4"/>
<path d="M221.802 75.595L178.518 75.835L178.683 86.21L139.183 71.255L178.172 55.745L178.336 66.03L221.629 65.795L221.802 75.595ZM131.173 79.9L131.588 104.89L149.55 104.79L123.664 127.595L96.8 105.085L114.597 104.98L114.181 79.99L131.173 79.9ZM24.79 66.11L68.0652 65.865L67.9007 55.5L107.409 70.45L68.4117 85.955L68.2384 75.685L24.9545 75.925L24.79 66.11ZM114.259 62.185L113.843 37.195L95.882 37.295L121.785 14.49L148.632 37L130.835 37.095L131.259 62.09L114.259 62.185ZM36.5939 21.005C-11.2107 48.605 -11.2107 93.395 36.5939 120.995C84.4158 148.605 161.994 148.605 209.799 121.005C257.621 93.395 257.621 48.605 209.799 20.995C161.994 -6.605 84.4158 -6.605 36.5939 21.005ZM38.7936 22.275C85.429 -4.65 160.981 -4.65001 207.599 22.265C254.235 49.19 254.235 92.81 207.599 119.735C160.981 146.65 85.429 146.65 38.7936 119.725C-7.82457 92.81 -7.82457 49.19 38.7936 22.275Z" fill="#8BC5E4"/>
<path fill-rule="evenodd" clip-rule="evenodd" d="M38.7936 22.275C85.429 -4.65 160.981 -4.65001 207.599 22.265C254.235 49.19 254.235 92.81 207.599 119.735C160.981 146.65 85.429 146.65 38.7936 119.725C-7.82457 92.81 -7.82457 49.19 38.7936 22.275ZM178.518 75.835L221.802 75.595L221.629 65.795L178.336 66.03L178.172 55.745L139.183 71.255L178.683 86.21L178.518 75.835ZM131.588 104.89L131.173 79.9L114.181 79.99L114.597 104.98L96.8 105.085L123.664 127.595L149.55 104.79L131.588 104.89ZM68.0652 65.865L24.79 66.11L24.9545 75.925L68.2384 75.685L68.4117 85.955L107.409 70.45L67.9007 55.5L68.0652 65.865ZM113.843 37.195L114.259 62.185L131.259 62.09L130.835 37.095L148.632 37L121.785 14.49L95.882 37.295L113.843 37.195Z" fill="white"/>
</svg>
