<svg width="246" height="202" viewBox="0 0 246 202" fill="none" xmlns="http://www.w3.org/2000/svg">
<path d="M94.9987 96.7549L87.0226 101.36V161.36L94.9987 156.755V96.7549Z" fill="#8BC5E4"/>
<path d="M87.0226 101.36L71.5813 92.4451V152.445L87.0226 161.36V101.36Z" fill="#8BC5E4"/>
<path d="M71.5813 92.4451L79.5574 87.8401V147.84L71.5813 152.445V92.4451Z" fill="#8BC5E4"/>
<path d="M77.3577 86.5701L69.3816 91.1751V151.175L77.3577 146.57V86.5701Z" fill="#8BC5E4"/>
<path d="M69.3816 91.1749L62.8258 87.3899V147.39L69.3816 151.175V91.1749Z" fill="#8BC5E4"/>
<path d="M62.8258 87.3899L40.9067 100.045V160.045L62.8258 147.39V87.3899Z" fill="#8BC5E4"/>
<path d="M40.9067 100.045L72.8977 118.515V178.515L40.9067 160.045V100.045Z" fill="#8BC5E4"/>
<path d="M72.8977 118.515L94.8168 105.86V165.86L72.8977 178.515V118.515Z" fill="#8BC5E4"/>
<path d="M94.8168 105.86L89.2223 102.63V162.63L94.8168 165.86V105.86Z" fill="#8BC5E4"/>
<path d="M89.2223 102.63L97.1984 98.0249V158.025L89.2223 162.63V102.63Z" fill="#8BC5E4"/>
<path d="M68.5502 103.565L63.406 106.535V166.535L68.5502 163.565V103.565Z" fill="#8BC5E4"/>
<path d="M63.4059 106.535L61.6479 105.52V165.52L63.4059 166.535V106.535Z" fill="#8BC5E4"/>
<path d="M61.6479 105.52L66.7921 102.55V162.55L61.6479 165.52V105.52Z" fill="#8BC5E4"/>
<path d="M146.38 61.1201L190.201 60.8701V120.87L146.38 121.12V61.1201Z" fill="#8BC5E4"/>
<path d="M190.201 60.8701L190.028 50.3701V110.37L190.201 120.87V60.8701Z" fill="#8BC5E4"/>
<path d="M190.028 50.3701L230.012 65.5151V125.515L190.028 110.37V50.3701Z" fill="#8BC5E4"/>
<path d="M230.012 65.5149L190.547 81.2099V141.21L230.012 125.515V65.5149Z" fill="#8BC5E4"/>
<path d="M190.547 81.21L190.374 70.8V130.8L190.547 141.21V81.21Z" fill="#8BC5E4"/>
<path d="M190.374 70.8L146.553 71.05V131.05L190.374 130.8V70.8Z" fill="#8BC5E4"/>
<path d="M146.553 71.0501L146.38 61.1201V121.12L146.553 131.05V71.0501Z" fill="#8BC5E4"/>
<path d="M139.495 8.81494L139.919 34.1199V94.1199L139.495 68.8149V8.81494Z" fill="#8BC5E4"/>
<path d="M139.919 34.1199L158.115 34.0149V94.0149L139.919 94.1199V34.1199Z" fill="#8BC5E4"/>
<path d="M158.115 34.0149L131.891 57.1049V117.105L158.115 94.0149V34.0149Z" fill="#8BC5E4"/>
<path d="M131.891 57.1049L104.698 34.3149V94.3149L131.891 117.105V57.1049Z" fill="#8BC5E4"/>
<path d="M104.698 34.315L122.72 34.21V94.21L104.698 94.315V34.315Z" fill="#8BC5E4"/>
<path d="M122.72 34.21L122.296 8.91504V68.915L122.72 94.21V34.21Z" fill="#8BC5E4"/>
<path d="M122.296 8.91494L139.495 8.81494V68.8149L122.296 68.9149V8.91494Z" fill="#8BC5E4"/>
<path d="M115.324 71L71.5034 71.25V131.25L115.324 131V71Z" fill="#8BC5E4"/>
<path d="M71.5034 71.25L71.6766 81.75V141.75L71.5034 131.25V71.25Z" fill="#8BC5E4"/>
<path d="M71.6766 81.7501L31.6835 66.6101V126.61L71.6766 141.75V81.7501Z" fill="#8BC5E4"/>
<path d="M31.6835 66.61L71.1483 50.915V110.915L31.6835 126.61V66.61Z" fill="#8BC5E4"/>
<path d="M71.1482 50.915L71.3214 61.315V121.315L71.1482 110.915V50.915Z" fill="#8BC5E4"/>
<path d="M71.3215 61.315L115.142 61.075V121.075L71.3215 121.315V61.315Z" fill="#8BC5E4"/>
<path d="M115.142 61.075L115.324 71V131L115.142 121.075V61.075Z" fill="#8BC5E4"/>
<path d="M122.859 123.97L122.434 98.675V158.675L122.859 183.97V123.97Z" fill="#8BC5E4"/>
<path d="M122.434 98.675L104.248 98.775V158.775L122.434 158.675V98.675Z" fill="#8BC5E4"/>
<path d="M104.248 98.7751L130.471 75.6851V135.685L104.248 158.775V98.7751Z" fill="#8BC5E4"/>
<path d="M130.471 75.6851L157.664 98.4751V158.475L130.471 135.685V75.6851Z" fill="#8BC5E4"/>
<path d="M157.664 98.4751L139.642 98.5801V158.58L157.664 158.475V98.4751Z" fill="#8BC5E4"/>
<path d="M139.642 98.5801L140.058 123.88V183.88L139.642 158.58V98.5801Z" fill="#8BC5E4"/>
<path d="M140.058 123.88L122.859 123.97V183.97L140.058 183.88V123.88Z" fill="#8BC5E4"/>
<path d="M97.1984 98.0249L89.2223 102.63V162.63L97.1984 158.025V98.0249Z" fill="#8BC5E4"/>
<path d="M89.2223 102.63L94.8168 105.86V165.86L89.2223 162.63V102.63Z" fill="#8BC5E4"/>
<path d="M94.8168 105.86L72.8977 118.515V178.515L94.8168 165.86V105.86Z" fill="#8BC5E4"/>
<path d="M72.8977 118.515L40.9067 100.045V160.045L72.8977 178.515V118.515Z" fill="#8BC5E4"/>
<path d="M40.9067 100.045L62.8258 87.3899V147.39L40.9067 160.045V100.045Z" fill="#8BC5E4"/>
<path d="M62.8258 87.3899L69.3816 91.1749V151.175L62.8258 147.39V87.3899Z" fill="#8BC5E4"/>
<path d="M69.3816 91.1751L77.3577 86.5701V146.57L69.3816 151.175V91.1751Z" fill="#8BC5E4"/>
<path d="M190.201 60.8701L146.38 61.1201V121.12L190.201 120.87V60.8701Z" fill="#8BC5E4"/>
<path d="M146.38 61.1201L146.553 71.0501V131.05L146.38 121.12V61.1201Z" fill="#8BC5E4"/>
<path d="M146.553 71.05L190.374 70.8V130.8L146.553 131.05V71.05Z" fill="#8BC5E4"/>
<path d="M190.374 70.8L190.547 81.21V141.21L190.374 130.8V70.8Z" fill="#8BC5E4"/>
<path d="M190.547 81.2099L230.012 65.5149V125.515L190.547 141.21V81.2099Z" fill="#8BC5E4"/>
<path d="M230.012 65.5151L190.028 50.3701V110.37L230.012 125.515V65.5151Z" fill="#8BC5E4"/>
<path d="M190.028 50.3701L190.201 60.8701V120.87L190.028 110.37V50.3701Z" fill="#8BC5E4"/>
<path d="M139.919 34.1199L139.495 8.81494V68.8149L139.919 94.1199V34.1199Z" fill="#8BC5E4"/>
<path d="M139.495 8.81494L122.296 8.91494V68.9149L139.495 68.8149V8.81494Z" fill="#8BC5E4"/>
<path d="M122.296 8.91504L122.72 34.21V94.21L122.296 68.915V8.91504Z" fill="#8BC5E4"/>
<path d="M122.72 34.21L104.698 34.315V94.315L122.72 94.21V34.21Z" fill="#8BC5E4"/>
<path d="M104.698 34.3149L131.891 57.1049V117.105L104.698 94.3149V34.3149Z" fill="#8BC5E4"/>
<path d="M131.891 57.1049L158.115 34.0149V94.0149L131.891 117.105V57.1049Z" fill="#8BC5E4"/>
<path d="M158.115 34.0149L139.919 34.1199V94.1199L158.115 94.0149V34.0149Z" fill="#8BC5E4"/>
<path d="M71.5034 71.25L115.324 71V131L71.5034 131.25V71.25Z" fill="#8BC5E4"/>
<path d="M115.324 71L115.142 61.075V121.075L115.324 131V71Z" fill="#8BC5E4"/>
<path d="M115.142 61.075L71.3215 61.315V121.315L115.142 121.075V61.075Z" fill="#8BC5E4"/>
<path d="M71.3214 61.315L71.1482 50.915V110.915L71.3214 121.315V61.315Z" fill="#8BC5E4"/>
<path d="M71.1483 50.915L31.6835 66.61V126.61L71.1483 110.915V50.915Z" fill="#8BC5E4"/>
<path d="M31.6835 66.6101L71.6766 81.7501V141.75L31.6835 126.61V66.6101Z" fill="#8BC5E4"/>
<path d="M71.6766 81.75L71.5034 71.25V131.25L71.6766 141.75V81.75Z" fill="#8BC5E4"/>
<path d="M122.434 98.675L122.859 123.97V183.97L122.434 158.675V98.675Z" fill="#8BC5E4"/>
<path d="M122.859 123.97L140.058 123.88V183.88L122.859 183.97V123.97Z" fill="#8BC5E4"/>
<path d="M140.058 123.88L139.642 98.5801V158.58L140.058 183.88V123.88Z" fill="#8BC5E4"/>
<path d="M139.642 98.5801L157.664 98.4751V158.475L139.642 158.58V98.5801Z" fill="#8BC5E4"/>
<path d="M157.664 98.4751L130.471 75.6851V135.685L157.664 158.475V98.4751Z" fill="#8BC5E4"/>
<path d="M130.471 75.6851L104.248 98.7751V158.775L130.471 135.685V75.6851Z" fill="#8BC5E4"/>
<path d="M104.248 98.775L122.434 98.675V158.675L104.248 158.775V98.775Z" fill="#8BC5E4"/>
<path d="M94.9987 96.7549L87.0226 101.36V161.36L94.9987 156.755V96.7549Z" fill="#8BC5E4"/>
<path d="M87.0226 101.36L71.5813 92.4451V152.445L87.0226 161.36V101.36Z" fill="#8BC5E4"/>
<path d="M71.5813 92.4451L79.5574 87.8401V147.84L71.5813 152.445V92.4451Z" fill="#8BC5E4"/>
<path d="M68.5502 103.565L63.406 106.535V166.535L68.5502 163.565V103.565Z" fill="#8BC5E4"/>
<path d="M63.4059 106.535L61.6479 105.52V165.52L63.4059 166.535V106.535Z" fill="#8BC5E4"/>
<path d="M61.6479 105.52L66.7921 102.55V162.55L61.6479 165.52V105.52Z" fill="#8BC5E4"/>
<path d="M94.8513 87.9199C96.969 89.1429 98.085 90.7849 98.087 92.4289V152.429C98.085 150.785 96.969 149.143 94.8513 147.92V87.9199Z" fill="#8BC5E4"/>
<path d="M98.0871 92.427C98.0901 93.983 97.0951 95.542 95.0051 96.751V156.751C97.0951 155.542 98.0901 153.983 98.0871 152.427V92.427Z" fill="#8BC5E4"/>
<path d="M79.5574 87.8399C83.0302 85.8349 89.7419 84.9699 94.8514 87.9199V147.92C89.7419 144.97 83.0302 145.835 79.5574 147.84V87.8399Z" fill="#8BC5E4"/>
<path d="M97.0511 86.6499C90.7465 83.0099 81.9563 83.9149 77.3577 86.5699V146.57C81.9563 143.915 90.7465 143.01 97.0511 146.65V86.6499Z" fill="#8BC5E4"/>
<path d="M97.1984 98.025C99.8851 96.474 101.178 94.465 101.186 92.458V152.458C101.178 154.465 99.8851 156.474 97.1984 158.025V98.025Z" fill="#8BC5E4"/>
<path d="M101.186 92.4611C101.197 90.3431 99.7771 88.2261 97.0591 86.6541V146.654C99.7771 148.226 101.197 150.343 101.186 152.461V92.4611Z" fill="#8BC5E4"/>
<path d="M71.9364 103.16C71.0444 103.675 69.7194 103.83 68.5502 103.565V163.565C69.7194 163.83 71.0444 163.675 71.9364 163.16V103.16Z" fill="#8BC5E4"/>
<path d="M66.7922 102.55C66.6481 102.335 66.5771 102.111 66.5771 101.888V161.888C66.5771 162.111 66.6481 162.335 66.7922 162.55V102.55Z" fill="#8BC5E4"/>
<path d="M66.5781 101.889C66.5771 101.418 66.8931 100.953 67.4971 100.603V160.603C66.8931 160.953 66.5771 161.418 66.5781 161.889V101.889Z" fill="#8BC5E4"/>
<path d="M67.5024 100.6C68.7321 99.8901 70.7153 99.8851 71.9364 100.59V160.59C70.7153 159.885 68.7321 159.89 67.5024 160.6V100.6Z" fill="#8BC5E4"/>
<path d="M71.9364 100.59C72.5561 100.948 72.8631 101.412 72.8621 101.877V161.877C72.8631 161.412 72.5561 160.948 71.9364 160.59V100.59Z" fill="#8BC5E4"/>
<path d="M72.8621 101.875C72.8621 102.338 72.5541 102.801 71.9431 103.156V163.156C72.5541 162.801 72.8621 162.338 72.8621 161.875V101.875Z" fill="#8BC5E4"/>
<path d="M207.599 22.2649C230.917 35.7269 242.576 53.3639 242.578 70.9989V130.999C242.576 113.364 230.917 95.7269 207.599 82.2649V22.2649Z" fill="#8BC5E4"/>
<path d="M242.578 70.9951C242.582 88.6301 230.93 106.262 207.625 119.72V179.72C230.93 166.262 242.582 148.63 242.578 130.995V70.9951Z" fill="#8BC5E4"/>
<path d="M207.617 119.725C160.981 146.65 85.4291 146.65 38.7936 119.725V179.725C85.4291 206.65 160.981 206.65 207.617 179.725V119.725Z" fill="#8BC5E4"/>
<path d="M38.7935 119.725C15.484 106.268 3.83003 88.634 3.83203 70.999V130.999C3.83003 148.634 15.484 166.268 38.7935 179.725V119.725Z" fill="#8BC5E4"/>
<path d="M3.83203 70.989C3.83803 53.359 15.494 35.729 38.802 22.27V82.27C15.494 95.729 3.83803 113.359 3.83203 130.989V70.989Z" fill="#8BC5E4"/>
<path d="M38.8108 22.2651C85.429 -4.64989 160.981 -4.64989 207.599 22.2651V82.2651C160.981 55.3501 85.429 55.3501 38.8108 82.2651V22.2651Z" fill="#8BC5E4"/>
<path d="M209.799 20.9949C161.994 -6.60508 84.4158 -6.60508 36.6112 20.9949V80.9949C84.4158 53.3949 161.994 53.3949 209.799 80.9949V20.9949Z" fill="#8BC5E4"/>
<path d="M36.6113 20.9951C12.7002 34.8001 0.745164 52.9001 0.743164 70.9991V130.999C0.745164 112.9 12.7002 94.8001 36.6113 80.9951V20.9951Z" fill="#8BC5E4"/>
<path d="M0.742066 70.9951C0.739066 89.0931 12.6871 107.19 36.5851 120.99V180.99C12.6871 167.19 0.739066 149.093 0.742066 130.995V70.9951Z" fill="#8BC5E4"/>
<path d="M36.5939 120.995C84.4158 148.605 161.994 148.605 209.816 120.995V180.995C161.994 208.605 84.4158 208.605 36.5939 180.995V120.995Z" fill="#8BC5E4"/>
<path d="M209.816 120.995C233.719 107.195 245.67 89.097 245.667 70.999V130.999C245.67 149.097 233.719 167.195 209.816 180.995V120.995Z" fill="#8BC5E4"/>
<path d="M245.668 70.989C245.661 52.895 233.709 34.802 209.808 21V81C233.709 94.802 245.661 112.895 245.668 130.989V70.989Z" fill="#8BC5E4"/>
<path d="M207.599 22.2649C230.917 35.7269 242.576 53.3639 242.578 70.9989V130.999C242.576 113.364 230.917 95.7269 207.599 82.2649V22.2649Z" fill="#8BC5E4"/>
<path d="M242.578 70.9951C242.582 88.6301 230.93 106.262 207.625 119.72V179.72C230.93 166.262 242.582 148.63 242.578 130.995V70.9951Z" fill="#8BC5E4"/>
<path d="M207.617 119.725C160.981 146.65 85.4291 146.65 38.7936 119.725V179.725C85.4291 206.65 160.981 206.65 207.617 179.725V119.725Z" fill="#8BC5E4"/>
<path d="M38.7935 119.725C15.484 106.268 3.83003 88.634 3.83203 70.999V130.999C3.83003 148.634 15.484 166.268 38.7935 179.725V119.725Z" fill="#8BC5E4"/>
<path d="M3.83203 70.989C3.83803 53.359 15.494 35.729 38.802 22.27V82.27C15.494 95.729 3.83803 113.359 3.83203 130.989V70.989Z" fill="#8BC5E4"/>
<path d="M38.8108 22.2651C85.429 -4.64989 160.981 -4.64989 207.599 22.2651V82.2651C160.981 55.3501 85.429 55.3501 38.8108 82.2651V22.2651Z" fill="#8BC5E4"/>
<path d="M77.3577 86.5699C81.9563 83.9149 90.7465 83.0099 97.0511 86.6499V146.65C90.7465 143.01 81.9563 143.915 77.3577 146.57V86.5699Z" fill="#8BC5E4"/>
<path d="M97.051 86.6499C99.774 88.2219 101.196 90.3389 101.186 92.4579V152.458C101.196 150.339 99.774 148.222 97.051 146.65V86.6499Z" fill="#8BC5E4"/>
<path d="M101.187 92.4551C101.179 94.4611 99.8891 96.4691 97.2061 98.0201V158.02C99.8891 156.469 101.179 154.461 101.187 152.455V92.4551Z" fill="#8BC5E4"/>
<path d="M94.8513 87.9199C96.969 89.1429 98.085 90.7849 98.087 92.4289V152.429C98.085 150.785 96.969 149.143 94.8513 147.92V87.9199Z" fill="#8BC5E4"/>
<path d="M98.0871 92.427C98.0901 93.983 97.0951 95.542 95.0051 96.751V156.751C97.0951 155.542 98.0901 153.983 98.0871 152.427V92.427Z" fill="#8BC5E4"/>
<path d="M79.5574 87.8399C83.0302 85.8349 89.7419 84.9699 94.8514 87.9199V147.92C89.7419 144.97 83.0302 145.835 79.5574 147.84V87.8399Z" fill="#8BC5E4"/>
<path d="M71.9364 103.16C71.0444 103.675 69.7194 103.83 68.5502 103.565V163.565C69.7194 163.83 71.0444 163.675 71.9364 163.16V103.16Z" fill="#8BC5E4"/>
<path d="M66.7922 102.55C66.6481 102.335 66.5771 102.111 66.5771 101.888V161.888C66.5771 162.111 66.6481 162.335 66.7922 162.55V102.55Z" fill="#8BC5E4"/>
<path d="M66.5781 101.889C66.5771 101.418 66.8931 100.953 67.4971 100.603V160.603C66.8931 160.953 66.5771 161.418 66.5781 161.889V101.889Z" fill="#8BC5E4"/>
<path d="M67.5024 100.6C68.7321 99.8901 70.7153 99.8851 71.9364 100.59V160.59C70.7153 159.885 68.7321 159.89 67.5024 160.6V100.6Z" fill="#8BC5E4"/>
<path d="M71.9364 100.59C72.5561 100.948 72.8631 101.412 72.8621 101.877V161.877C72.8631 161.412 72.5561 160.948 71.9364 160.59V100.59Z" fill="#8BC5E4"/>
<path d="M72.8621 101.875C72.8621 102.338 72.5541 102.801 71.9431 103.156V163.156C72.5541 162.801 72.8621 162.338 72.8621 161.875V101.875Z" fill="#8BC5E4"/>
<path d="M94.8514 87.9199C98.9737 90.2999 99.3027 94.2699 94.9986 96.7549L87.0225 101.36L71.5813 92.4449L79.5574 87.8399C83.0301 85.8349 89.7418 84.9699 94.8514 87.9199ZM97.0511 86.6499C90.7464 83.0099 81.9563 83.9149 77.3577 86.5699L69.3816 91.1749L62.8257 87.3899L40.9066 100.045L72.8976 118.515L94.8167 105.86L89.2222 102.63L97.1983 98.0249C102.724 94.8349 102.351 89.7099 97.0511 86.6499ZM71.9363 103.16C71.0443 103.675 69.7193 103.83 68.5502 103.565L63.406 106.535L61.648 105.52L66.7922 102.55C66.3418 101.88 66.6103 101.115 67.5023 100.6C68.732 99.8899 70.7152 99.8849 71.9363 100.59C73.1747 101.305 73.1661 102.45 71.9363 103.16ZM207.599 22.2649C254.235 49.1899 254.235 92.8099 207.617 119.725C160.981 146.65 85.429 146.65 38.7935 119.725C-7.82462 92.8099 -7.8246 49.1899 38.8109 22.2649C85.429 -4.65008 160.981 -4.65008 207.599 22.2649ZM209.799 20.9949C161.994 -6.60508 84.4158 -6.60508 36.6112 20.9949C-11.2108 48.6049 -11.2108 93.3949 36.5938 120.995C84.4158 148.605 161.994 148.605 209.816 120.995C257.621 93.3949 257.621 48.6049 209.799 20.9949ZM146.38 61.1199L190.201 60.8699L190.028 50.3699L230.012 65.5149L190.547 81.2099L190.374 70.7999L146.553 71.0499L146.38 61.1199ZM139.495 8.81492L139.919 34.1199L158.115 34.0149L131.891 57.1049L104.698 34.3149L122.72 34.2099L122.296 8.91492L139.495 8.81492ZM115.324 70.9999L71.5033 71.2499L71.6765 81.7499L31.6835 66.6099L71.1483 50.9149L71.3215 61.3149L115.142 61.0749L115.324 70.9999ZM122.859 123.97L122.434 98.6749L104.248 98.7749L130.471 75.6849L157.664 98.4749L139.642 98.5799L140.058 123.88L122.859 123.97Z" fill="#8BC5E4"/>
<path fill-rule="evenodd" clip-rule="evenodd" d="M207.599 22.2649C254.235 49.1899 254.235 92.8099 207.617 119.725C160.981 146.65 85.429 146.65 38.7935 119.725C-7.82462 92.8099 -7.8246 49.1899 38.8109 22.2649C85.429 -4.65008 160.981 -4.65008 207.599 22.2649ZM77.3577 86.5699C81.9563 83.9149 90.7464 83.0099 97.0511 86.6499C102.351 89.7099 102.724 94.8349 97.1983 98.0249L89.2222 102.63L94.8167 105.86L72.8976 118.515L40.9066 100.045L62.8257 87.3899L69.3816 91.1749L77.3577 86.5699ZM190.201 60.8699L146.38 61.1199L146.553 71.0499L190.374 70.7999L190.547 81.2099L230.012 65.5149L190.028 50.3699L190.201 60.8699ZM139.919 34.1199L139.495 8.81492L122.296 8.91492L122.72 34.2099L104.698 34.3149L131.891 57.1049L158.115 34.0149L139.919 34.1199ZM71.5033 71.2499L115.324 70.9999L115.142 61.0749L71.3215 61.3149L71.1483 50.9149L31.6835 66.6099L71.6765 81.7499L71.5033 71.2499ZM122.434 98.6749L122.859 123.97L140.058 123.88L139.642 98.5799L157.664 98.4749L130.471 75.6849L104.248 98.7749L122.434 98.6749Z" fill="white"/>
<path d="M94.8514 87.9199C98.9737 90.2999 99.3027 94.2699 94.9986 96.7549L87.0225 101.36L71.5813 92.4449L79.5574 87.8399C83.0301 85.8349 89.7418 84.9699 94.8514 87.9199Z" fill="white"/>
<path d="M71.9363 103.16C71.0443 103.675 69.7193 103.83 68.5502 103.565L63.406 106.535L61.648 105.52L66.7922 102.55C66.3418 101.88 66.6103 101.115 67.5023 100.6C68.732 99.8899 70.7152 99.8849 71.9363 100.59C73.1747 101.305 73.1661 102.45 71.9363 103.16Z" fill="white"/>
</svg>
