<svg width="246" height="202" viewBox="0 0 246 202" fill="none" xmlns="http://www.w3.org/2000/svg">
<path d="M74.4998 46L33.1731 34.45V94.45L74.4998 106V46Z" fill="#8BC5E4"/>
<path d="M33.1731 34.45L37.5812 31.905V91.905L33.1731 94.45V34.45Z" fill="#8BC5E4"/>
<path d="M37.5812 31.905L72.7937 41.585V101.585L37.5812 91.905V31.905Z" fill="#8BC5E4"/>
<path d="M72.7938 41.5849L56.0103 21.2649V81.2649L72.7938 101.585V41.5849Z" fill="#8BC5E4"/>
<path d="M56.0103 21.2649L59.9074 19.0149V79.0149L56.0103 81.2649V21.2649Z" fill="#8BC5E4"/>
<path d="M59.9073 19.0149L79.2976 43.2299V103.23L59.9073 79.0149V19.0149Z" fill="#8BC5E4"/>
<path d="M79.2976 43.23L74.4998 46V106L79.2976 103.23V43.23Z" fill="#8BC5E4"/>
<path d="M223.932 75.7849L180.112 76.0349V136.035L223.932 135.785V75.7849Z" fill="#8BC5E4"/>
<path d="M180.112 76.0349L180.285 86.5349V146.535L180.112 136.035V76.0349Z" fill="#8BC5E4"/>
<path d="M180.285 86.535L140.292 71.395V131.395L180.285 146.535V86.535Z" fill="#8BC5E4"/>
<path d="M140.292 71.3951L179.765 55.6951V115.695L140.292 131.395V71.3951Z" fill="#8BC5E4"/>
<path d="M179.765 55.6951L179.947 66.1001V126.1L179.765 115.695V55.6951Z" fill="#8BC5E4"/>
<path d="M179.947 66.1001L223.768 65.8601V125.86L179.947 126.1V66.1001Z" fill="#8BC5E4"/>
<path d="M223.768 65.8601L223.933 75.7851V135.785L223.768 125.86V65.8601Z" fill="#8BC5E4"/>
<path d="M132.168 80.145L132.61 105.44V165.44L132.168 140.145V80.145Z" fill="#8BC5E4"/>
<path d="M132.61 105.44L150.797 105.34V165.34L132.61 165.44V105.44Z" fill="#8BC5E4"/>
<path d="M150.797 105.34L124.573 128.43V188.43L150.797 165.34V105.34Z" fill="#8BC5E4"/>
<path d="M124.573 128.43L97.3715 105.645V165.645L124.573 188.43V128.43Z" fill="#8BC5E4"/>
<path d="M97.3715 105.645L115.402 105.545V165.545L97.3715 165.645V105.645Z" fill="#8BC5E4"/>
<path d="M115.402 105.545L114.978 80.24V140.24L115.402 165.545V105.545Z" fill="#8BC5E4"/>
<path d="M114.978 80.24L132.168 80.145V140.145L114.978 140.24V80.24Z" fill="#8BC5E4"/>
<path d="M24.4695 66.1849L68.2991 65.9399V125.94L24.4695 126.185V66.1849Z" fill="#8BC5E4"/>
<path d="M68.2991 65.9399L68.1259 55.4399V115.44L68.2991 125.94V65.9399Z" fill="#8BC5E4"/>
<path d="M68.1259 55.4399L108.119 70.5799V130.58L68.1259 115.44V55.4399Z" fill="#8BC5E4"/>
<path d="M108.119 70.5801L68.6368 86.2751V146.275L108.119 130.58V70.5801Z" fill="#8BC5E4"/>
<path d="M68.6368 86.2751L68.455 75.8701V135.87L68.6368 146.275V86.2751Z" fill="#8BC5E4"/>
<path d="M68.455 75.8701L24.6427 76.1151V136.115L68.455 135.87V75.8701Z" fill="#8BC5E4"/>
<path d="M24.6427 76.1151L24.4695 66.1851V126.185L24.6427 136.115V76.1151Z" fill="#8BC5E4"/>
<path d="M115.064 62.21L114.64 36.905V96.905L115.064 122.21V62.21Z" fill="#8BC5E4"/>
<path d="M114.64 36.905L96.4536 37.015V97.015L114.64 96.905V36.905Z" fill="#8BC5E4"/>
<path d="M96.4536 37.0149L122.686 13.9199V73.9199L96.4536 97.0149V37.0149Z" fill="#8BC5E4"/>
<path d="M122.686 13.9199L149.861 36.7099V96.7099L122.686 73.9199V13.9199Z" fill="#8BC5E4"/>
<path d="M149.861 36.71L131.831 36.81V96.81L149.861 96.71V36.71Z" fill="#8BC5E4"/>
<path d="M131.831 36.8101L132.264 62.1101V122.11L131.831 96.8101V36.8101Z" fill="#8BC5E4"/>
<path d="M132.264 62.1101L115.064 62.2101V122.21L132.264 122.11V62.1101Z" fill="#8BC5E4"/>
<path d="M33.1731 34.45L74.4998 46V106L33.1731 94.45V34.45Z" fill="#8BC5E4"/>
<path d="M74.4998 46L79.2976 43.23V103.23L74.4998 106V46Z" fill="#8BC5E4"/>
<path d="M79.2976 43.2299L59.9073 19.0149V79.0149L79.2976 103.23V43.2299Z" fill="#8BC5E4"/>
<path d="M59.9074 19.0149L56.0103 21.2649V81.2649L59.9074 79.0149V19.0149Z" fill="#8BC5E4"/>
<path d="M56.0103 21.2649L72.7938 41.5849V101.585L56.0103 81.2649V21.2649Z" fill="#8BC5E4"/>
<path d="M72.7937 41.585L37.5812 31.905V91.905L72.7937 101.585V41.585Z" fill="#8BC5E4"/>
<path d="M37.5812 31.905L33.1731 34.45V94.45L37.5812 91.905V31.905Z" fill="#8BC5E4"/>
<path d="M180.112 76.0349L223.932 75.7849V135.785L180.112 136.035V76.0349Z" fill="#8BC5E4"/>
<path d="M223.933 75.7851L223.768 65.8601V125.86L223.933 135.785V75.7851Z" fill="#8BC5E4"/>
<path d="M223.768 65.8601L179.947 66.1001V126.1L223.768 125.86V65.8601Z" fill="#8BC5E4"/>
<path d="M179.947 66.1001L179.765 55.6951V115.695L179.947 126.1V66.1001Z" fill="#8BC5E4"/>
<path d="M179.765 55.6951L140.292 71.3951V131.395L179.765 115.695V55.6951Z" fill="#8BC5E4"/>
<path d="M140.292 71.395L180.285 86.535V146.535L140.292 131.395V71.395Z" fill="#8BC5E4"/>
<path d="M180.285 86.5349L180.112 76.0349V136.035L180.285 146.535V86.5349Z" fill="#8BC5E4"/>
<path d="M132.61 105.44L132.168 80.145V140.145L132.61 165.44V105.44Z" fill="#8BC5E4"/>
<path d="M132.168 80.145L114.978 80.24V140.24L132.168 140.145V80.145Z" fill="#8BC5E4"/>
<path d="M114.978 80.24L115.402 105.545V165.545L114.978 140.24V80.24Z" fill="#8BC5E4"/>
<path d="M115.402 105.545L97.3715 105.645V165.645L115.402 165.545V105.545Z" fill="#8BC5E4"/>
<path d="M97.3715 105.645L124.573 128.43V188.43L97.3715 165.645V105.645Z" fill="#8BC5E4"/>
<path d="M124.573 128.43L150.797 105.34V165.34L124.573 188.43V128.43Z" fill="#8BC5E4"/>
<path d="M150.797 105.34L132.61 105.44V165.44L150.797 165.34V105.34Z" fill="#8BC5E4"/>
<path d="M68.2991 65.9399L24.4695 66.1849V126.185L68.2991 125.94V65.9399Z" fill="#8BC5E4"/>
<path d="M24.4695 66.1851L24.6427 76.1151V136.115L24.4695 126.185V66.1851Z" fill="#8BC5E4"/>
<path d="M24.6427 76.1151L68.455 75.8701V135.87L24.6427 136.115V76.1151Z" fill="#8BC5E4"/>
<path d="M68.455 75.8701L68.6368 86.2751V146.275L68.455 135.87V75.8701Z" fill="#8BC5E4"/>
<path d="M68.6368 86.2751L108.119 70.5801V130.58L68.6368 146.275V86.2751Z" fill="#8BC5E4"/>
<path d="M108.119 70.5799L68.1259 55.4399V115.44L108.119 130.58V70.5799Z" fill="#8BC5E4"/>
<path d="M68.1259 55.4399L68.2991 65.9399V125.94L68.1259 115.44V55.4399Z" fill="#8BC5E4"/>
<path d="M114.64 36.905L115.064 62.21V122.21L114.64 96.905V36.905Z" fill="#8BC5E4"/>
<path d="M115.064 62.2101L132.264 62.1101V122.11L115.064 122.21V62.2101Z" fill="#8BC5E4"/>
<path d="M132.264 62.1101L131.831 36.8101V96.8101L132.264 122.11V62.1101Z" fill="#8BC5E4"/>
<path d="M131.831 36.81L149.861 36.71V96.71L131.831 96.81V36.81Z" fill="#8BC5E4"/>
<path d="M149.861 36.7099L122.686 13.9199V73.9199L149.861 96.7099V36.7099Z" fill="#8BC5E4"/>
<path d="M122.686 13.9199L96.4536 37.0149V97.0149L122.686 73.9199V13.9199Z" fill="#8BC5E4"/>
<path d="M96.4536 37.015L114.64 36.905V96.905L96.4536 97.015V37.015Z" fill="#8BC5E4"/>
<path d="M36.5939 21.0049C12.692 34.8049 0.73999 52.9029 0.73999 70.9999V131C0.73999 112.903 12.692 94.8049 36.5939 81.0049V21.0049Z" fill="#8BC5E4"/>
<path d="M0.73999 70.9971C0.73899 89.0931 12.687 107.19 36.585 120.99V180.99C12.687 167.19 0.73899 149.093 0.73999 130.997V70.9971Z" fill="#8BC5E4"/>
<path d="M36.5939 120.995C84.4158 148.605 161.994 148.605 209.799 121.005V181.005C161.994 208.605 84.4158 208.605 36.5939 180.995V120.995Z" fill="#8BC5E4"/>
<path d="M209.799 121.005C233.71 107.2 245.665 89.1 245.665 71V131C245.665 149.1 233.71 167.2 209.799 181.005V121.005Z" fill="#8BC5E4"/>
<path d="M245.665 71.003C245.667 52.904 233.714 34.805 209.808 21V81C233.714 94.805 245.667 112.904 245.665 131.003V71.003Z" fill="#8BC5E4"/>
<path d="M209.799 20.9949C161.994 -6.60511 84.4158 -6.60511 36.5939 21.0049V81.0049C84.4158 53.3949 161.994 53.3949 209.799 80.9949V20.9949Z" fill="#8BC5E4"/>
<path d="M38.7936 22.2751C85.429 -4.64992 160.981 -4.64992 207.599 22.2651V82.2651C160.981 55.3501 85.429 55.3501 38.7936 82.2751V22.2751Z" fill="#8BC5E4"/>
<path d="M207.599 22.2649C230.917 35.7269 242.576 53.3639 242.576 70.9999V131C242.576 113.364 230.917 95.7269 207.599 82.2649V22.2649Z" fill="#8BC5E4"/>
<path d="M242.576 70.9971C242.577 88.6321 230.922 106.267 207.608 119.73V179.73C230.922 166.267 242.577 148.632 242.576 130.997V70.9971Z" fill="#8BC5E4"/>
<path d="M207.599 119.735C160.981 146.65 85.429 146.65 38.7936 119.725V179.725C85.429 206.65 160.981 206.65 207.599 179.735V119.735Z" fill="#8BC5E4"/>
<path d="M38.7936 119.725C15.485 106.267 3.82996 88.634 3.82996 71V131C3.82996 148.634 15.485 166.267 38.7936 179.725V119.725Z" fill="#8BC5E4"/>
<path d="M3.82996 71.003C3.82796 53.37 15.48 35.737 38.785 22.28V82.28C15.48 95.737 3.82796 113.37 3.82996 131.003V71.003Z" fill="#8BC5E4"/>
<path d="M38.7936 22.2751C85.429 -4.64992 160.981 -4.64992 207.599 22.2651V82.2651C160.981 55.3501 85.429 55.3501 38.7936 82.2751V22.2751Z" fill="#8BC5E4"/>
<path d="M207.599 22.2649C230.917 35.7269 242.576 53.3639 242.576 70.9999V131C242.576 113.364 230.917 95.7269 207.599 82.2649V22.2649Z" fill="#8BC5E4"/>
<path d="M242.576 70.9971C242.577 88.6321 230.922 106.267 207.608 119.73V179.73C230.922 166.267 242.577 148.632 242.576 130.997V70.9971Z" fill="#8BC5E4"/>
<path d="M207.599 119.735C160.981 146.65 85.429 146.65 38.7936 119.725V179.725C85.429 206.65 160.981 206.65 207.599 179.735V119.735Z" fill="#8BC5E4"/>
<path d="M38.7936 119.725C15.485 106.267 3.82996 88.634 3.82996 71V131C3.82996 148.634 15.485 166.267 38.7936 179.725V119.725Z" fill="#8BC5E4"/>
<path d="M3.82996 71.003C3.82796 53.37 15.48 35.737 38.785 22.28V82.28C15.48 95.737 3.82796 113.37 3.82996 131.003V71.003Z" fill="#8BC5E4"/>
<path d="M74.4998 45.9999L33.1731 34.4499L37.5811 31.9049L72.7937 41.5849L56.0102 21.2649L59.9073 19.0149L79.2976 43.2299L74.4998 45.9999ZM223.932 75.7849L180.112 76.0349L180.285 86.5349L140.292 71.3949L179.765 55.6949L179.947 66.0999L223.768 65.8599L223.932 75.7849ZM132.168 80.1449L132.61 105.44L150.797 105.34L124.573 128.43L97.3715 105.645L115.402 105.545L114.978 80.2399L132.168 80.1449ZM24.4695 66.1849L68.2991 65.9399L68.1259 55.4399L108.119 70.5799L68.6368 86.2749L68.4549 75.8699L24.6427 76.1149L24.4695 66.1849ZM115.064 62.2099L114.64 36.9049L96.4535 37.0149L122.685 13.9199L149.861 36.7099L131.831 36.8099L132.264 62.1099L115.064 62.2099ZM36.5939 21.0049C-11.2107 48.6049 -11.2107 93.3949 36.5939 120.995C84.4158 148.605 161.994 148.605 209.799 121.005C257.621 93.3949 257.621 48.6049 209.799 20.9949C161.994 -6.60511 84.4158 -6.6051 36.5939 21.0049ZM38.7936 22.2749C85.429 -4.65011 160.981 -4.65011 207.599 22.2649C254.235 49.1899 254.235 92.8099 207.599 119.735C160.981 146.65 85.429 146.65 38.7936 119.725C-7.82457 92.8099 -7.82457 49.1899 38.7936 22.2749Z" fill="#8BC5E4"/>
<path fill-rule="evenodd" clip-rule="evenodd" d="M38.7936 22.2749C85.429 -4.65011 160.981 -4.65011 207.599 22.2649C254.235 49.1899 254.235 92.8099 207.599 119.735C160.981 146.65 85.429 146.65 38.7936 119.725C-7.82457 92.8099 -7.82457 49.1899 38.7936 22.2749ZM33.1731 34.4499L74.4998 45.9999L79.2976 43.2299L59.9073 19.0149L56.0102 21.2649L72.7937 41.5849L37.5811 31.9049L33.1731 34.4499ZM180.112 76.0349L223.932 75.7849L223.768 65.8599L179.947 66.0999L179.765 55.6949L140.292 71.3949L180.285 86.5349L180.112 76.0349ZM132.61 105.44L132.168 80.1449L114.978 80.2399L115.402 105.545L97.3715 105.645L124.573 128.43L150.797 105.34L132.61 105.44ZM68.2991 65.9399L24.4695 66.1849L24.6427 76.1149L68.4549 75.8699L68.6368 86.2749L108.119 70.5799L68.1259 55.4399L68.2991 65.9399ZM114.64 36.9049L115.064 62.2099L132.264 62.1099L131.831 36.8099L149.861 36.7099L122.685 13.9199L96.4535 37.0149L114.64 36.9049Z" fill="white"/>
</svg>
