<svg width="246" height="202" viewBox="0 0 246 202" fill="none" xmlns="http://www.w3.org/2000/svg">
<path d="M166.506 42.88L186.512 19.02V79.02L166.506 102.88V42.88Z" fill="#8BC5E4"/>
<path d="M186.512 19.02L190.92 21.565V81.565L186.512 79.02V19.02Z" fill="#8BC5E4"/>
<path d="M190.92 21.5649L174.153 41.8949V101.895L190.92 81.5649V21.5649Z" fill="#8BC5E4"/>
<path d="M174.153 41.8951L209.349 32.2051V92.2051L174.153 101.895V41.8951Z" fill="#8BC5E4"/>
<path d="M209.349 32.2051L213.246 34.4551V94.4551L209.349 92.2051V32.2051Z" fill="#8BC5E4"/>
<path d="M213.246 34.4551L171.304 45.6501V105.65L213.246 94.4551V34.4551Z" fill="#8BC5E4"/>
<path d="M171.304 45.6499L166.506 42.8799V102.88L171.304 105.65V45.6499Z" fill="#8BC5E4"/>
<path d="M114.917 129.155L114.484 103.855V163.855L114.917 189.155V129.155Z" fill="#8BC5E4"/>
<path d="M114.484 103.855L96.2977 103.955V163.955L114.484 163.855V103.855Z" fill="#8BC5E4"/>
<path d="M96.2977 103.955L122.521 80.865V140.865L96.2977 163.955V103.955Z" fill="#8BC5E4"/>
<path d="M122.521 80.865L149.714 103.655V163.655L122.521 140.865V80.865Z" fill="#8BC5E4"/>
<path d="M149.714 103.655L131.692 103.76V163.76L149.714 163.655V103.655Z" fill="#8BC5E4"/>
<path d="M131.692 103.76L132.108 129.06V189.06L131.692 163.76V103.76Z" fill="#8BC5E4"/>
<path d="M132.108 129.06L114.917 129.155V189.155L132.108 189.06V129.06Z" fill="#8BC5E4"/>
<path d="M107.365 76.175L63.5532 76.43V136.43L107.365 136.175V76.175Z" fill="#8BC5E4"/>
<path d="M63.5532 76.4299L63.7264 86.9299V146.93L63.5532 136.43V76.4299Z" fill="#8BC5E4"/>
<path d="M63.7265 86.93L23.7334 71.79V131.79L63.7265 146.93V86.93Z" fill="#8BC5E4"/>
<path d="M23.7334 71.79L63.1982 56.085V116.085L23.7334 131.79V71.79Z" fill="#8BC5E4"/>
<path d="M63.1981 56.085L63.3713 66.495V126.495L63.1981 116.085V56.085Z" fill="#8BC5E4"/>
<path d="M63.3713 66.495L107.201 66.25V126.25L63.3713 126.495V66.495Z" fill="#8BC5E4"/>
<path d="M107.201 66.25L107.365 76.175V136.175L107.201 126.25V66.25Z" fill="#8BC5E4"/>
<path d="M131.545 13.9951L131.969 39.3001V99.3001L131.545 73.9951V13.9951Z" fill="#8BC5E4"/>
<path d="M131.969 39.3L150.156 39.2V99.2L131.969 99.2999V39.3Z" fill="#8BC5E4"/>
<path d="M150.156 39.2L123.933 62.29V122.29L150.156 99.2V39.2Z" fill="#8BC5E4"/>
<path d="M123.933 62.2901L96.7479 39.4951V99.4951L123.933 122.29V62.2901Z" fill="#8BC5E4"/>
<path d="M96.7479 39.4949L114.77 39.3899V99.3899L96.7479 99.4949V39.4949Z" fill="#8BC5E4"/>
<path d="M114.77 39.39L114.346 14.095V74.095L114.77 99.39V39.39Z" fill="#8BC5E4"/>
<path d="M114.346 14.0951L131.545 13.9951V73.9951L114.346 74.0951V14.0951Z" fill="#8BC5E4"/>
<path d="M138.43 66.2999L182.259 66.0549V126.055L138.43 126.3V66.2999Z" fill="#8BC5E4"/>
<path d="M182.259 66.0549L182.069 55.5549V115.555L182.259 126.055V66.0549Z" fill="#8BC5E4"/>
<path d="M182.069 55.5549L222.071 70.6999V130.7L182.069 115.555V55.5549Z" fill="#8BC5E4"/>
<path d="M222.071 70.7L182.597 86.39V146.39L222.071 130.7V70.7Z" fill="#8BC5E4"/>
<path d="M182.597 86.39L182.424 75.98V135.98L182.597 146.39V86.39Z" fill="#8BC5E4"/>
<path d="M182.424 75.98L138.603 76.23V136.23L182.424 135.98V75.98Z" fill="#8BC5E4"/>
<path d="M138.603 76.23L138.43 66.3V126.3L138.603 136.23V76.23Z" fill="#8BC5E4"/>
<path d="M186.512 19.02L166.506 42.88V102.88L186.512 79.02V19.02Z" fill="#8BC5E4"/>
<path d="M166.506 42.8799L171.304 45.6499V105.65L166.506 102.88V42.8799Z" fill="#8BC5E4"/>
<path d="M171.304 45.6501L213.246 34.4551V94.4551L171.304 105.65V45.6501Z" fill="#8BC5E4"/>
<path d="M213.246 34.4551L209.349 32.2051V92.2051L213.246 94.4551V34.4551Z" fill="#8BC5E4"/>
<path d="M209.349 32.2051L174.153 41.8951V101.895L209.349 92.2051V32.2051Z" fill="#8BC5E4"/>
<path d="M174.153 41.8949L190.92 21.5649V81.5649L174.153 101.895V41.8949Z" fill="#8BC5E4"/>
<path d="M190.92 21.565L186.512 19.02V79.02L190.92 81.565V21.565Z" fill="#8BC5E4"/>
<path d="M114.484 103.855L114.917 129.155V189.155L114.484 163.855V103.855Z" fill="#8BC5E4"/>
<path d="M114.917 129.155L132.108 129.06V189.06L114.917 189.155V129.155Z" fill="#8BC5E4"/>
<path d="M132.108 129.06L131.692 103.76V163.76L132.108 189.06V129.06Z" fill="#8BC5E4"/>
<path d="M131.692 103.76L149.714 103.655V163.655L131.692 163.76V103.76Z" fill="#8BC5E4"/>
<path d="M149.714 103.655L122.521 80.865V140.865L149.714 163.655V103.655Z" fill="#8BC5E4"/>
<path d="M122.521 80.865L96.2977 103.955V163.955L122.521 140.865V80.865Z" fill="#8BC5E4"/>
<path d="M96.2977 103.955L114.484 103.855V163.855L96.2977 163.955V103.955Z" fill="#8BC5E4"/>
<path d="M63.5532 76.43L107.365 76.175V136.175L63.5532 136.43V76.43Z" fill="#8BC5E4"/>
<path d="M107.365 76.175L107.201 66.25V126.25L107.365 136.175V76.175Z" fill="#8BC5E4"/>
<path d="M107.201 66.25L63.3713 66.495V126.495L107.201 126.25V66.25Z" fill="#8BC5E4"/>
<path d="M63.3713 66.495L63.1981 56.085V116.085L63.3713 126.495V66.495Z" fill="#8BC5E4"/>
<path d="M63.1982 56.085L23.7334 71.79V131.79L63.1982 116.085V56.085Z" fill="#8BC5E4"/>
<path d="M23.7334 71.79L63.7265 86.93V146.93L23.7334 131.79V71.79Z" fill="#8BC5E4"/>
<path d="M63.7264 86.9299L63.5532 76.4299V136.43L63.7264 146.93V86.9299Z" fill="#8BC5E4"/>
<path d="M131.969 39.3001L131.545 13.9951V73.9951L131.969 99.3001V39.3001Z" fill="#8BC5E4"/>
<path d="M131.545 13.9951L114.346 14.0951V74.0951L131.545 73.9951V13.9951Z" fill="#8BC5E4"/>
<path d="M114.346 14.095L114.77 39.39V99.39L114.346 74.095V14.095Z" fill="#8BC5E4"/>
<path d="M114.77 39.3899L96.7479 39.4949V99.4949L114.77 99.3899V39.3899Z" fill="#8BC5E4"/>
<path d="M96.7479 39.4951L123.933 62.2901V122.29L96.7479 99.4951V39.4951Z" fill="#8BC5E4"/>
<path d="M123.933 62.29L150.156 39.2V99.2L123.933 122.29V62.29Z" fill="#8BC5E4"/>
<path d="M150.156 39.2L131.969 39.3V99.2999L150.156 99.2V39.2Z" fill="#8BC5E4"/>
<path d="M182.259 66.0549L138.43 66.2999V126.3L182.259 126.055V66.0549Z" fill="#8BC5E4"/>
<path d="M138.43 66.3L138.603 76.23V136.23L138.43 126.3V66.3Z" fill="#8BC5E4"/>
<path d="M138.603 76.23L182.424 75.98V135.98L138.603 136.23V76.23Z" fill="#8BC5E4"/>
<path d="M182.424 75.98L182.597 86.39V146.39L182.424 135.98V75.98Z" fill="#8BC5E4"/>
<path d="M182.597 86.39L222.071 70.7V130.7L182.597 146.39V86.39Z" fill="#8BC5E4"/>
<path d="M222.071 70.6999L182.069 55.5549V115.555L222.071 130.7V70.6999Z" fill="#8BC5E4"/>
<path d="M182.069 55.5549L182.259 66.0549V126.055L182.069 115.555V55.5549Z" fill="#8BC5E4"/>
<path d="M209.799 20.9949C161.994 -6.60508 84.4158 -6.60508 36.6112 20.9949V80.9949C84.4158 53.3949 161.994 53.3949 209.799 80.9949V20.9949Z" fill="#8BC5E4"/>
<path d="M36.6111 20.9951C12.7 34.8001 0.745042 52.9001 0.743042 70.9991V130.999C0.745042 112.9 12.7 94.8001 36.6111 80.9951V20.9951Z" fill="#8BC5E4"/>
<path d="M0.742066 70.9951C0.739066 89.0931 12.6871 107.19 36.5851 120.99V180.99C12.6871 167.19 0.739066 149.093 0.742066 130.995V70.9951Z" fill="#8BC5E4"/>
<path d="M36.5939 120.995C84.4158 148.605 161.994 148.605 209.816 120.995V180.995C161.994 208.605 84.4158 208.605 36.5939 180.995V120.995Z" fill="#8BC5E4"/>
<path d="M209.816 120.995C233.719 107.195 245.67 89.097 245.667 70.999V130.999C245.67 149.097 233.719 167.195 209.816 180.995V120.995Z" fill="#8BC5E4"/>
<path d="M245.668 70.989C245.661 52.895 233.709 34.802 209.808 21V81C233.709 94.802 245.661 112.895 245.668 130.989V70.989Z" fill="#8BC5E4"/>
<path d="M207.599 22.2649C230.917 35.7269 242.576 53.3639 242.578 70.9989V130.999C242.576 113.364 230.917 95.7269 207.599 82.2649V22.2649Z" fill="#8BC5E4"/>
<path d="M242.578 70.9951C242.582 88.6301 230.93 106.262 207.625 119.72V179.72C230.93 166.262 242.582 148.63 242.578 130.995V70.9951Z" fill="#8BC5E4"/>
<path d="M207.617 119.725C160.981 146.65 85.4291 146.65 38.7936 119.725V179.725C85.4291 206.65 160.981 206.65 207.617 179.725V119.725Z" fill="#8BC5E4"/>
<path d="M38.7935 119.725C15.484 106.268 3.83003 88.634 3.83203 70.999V130.999C3.83003 148.634 15.484 166.268 38.7935 179.725V119.725Z" fill="#8BC5E4"/>
<path d="M3.83203 70.989C3.83803 53.359 15.494 35.729 38.802 22.27V82.27C15.494 95.729 3.83803 113.359 3.83203 130.989V70.989Z" fill="#8BC5E4"/>
<path d="M38.8109 22.2651C85.4291 -4.64989 160.981 -4.64989 207.599 22.2651V82.2651C160.981 55.3501 85.4291 55.3501 38.8109 82.2651V22.2651Z" fill="#8BC5E4"/>
<path d="M207.599 22.2649C230.917 35.7269 242.576 53.3639 242.578 70.9989V130.999C242.576 113.364 230.917 95.7269 207.599 82.2649V22.2649Z" fill="#8BC5E4"/>
<path d="M242.578 70.9951C242.582 88.6301 230.93 106.262 207.625 119.72V179.72C230.93 166.262 242.582 148.63 242.578 130.995V70.9951Z" fill="#8BC5E4"/>
<path d="M207.617 119.725C160.981 146.65 85.4291 146.65 38.7936 119.725V179.725C85.4291 206.65 160.981 206.65 207.617 179.725V119.725Z" fill="#8BC5E4"/>
<path d="M38.7935 119.725C15.484 106.268 3.83003 88.634 3.83203 70.999V130.999C3.83003 148.634 15.484 166.268 38.7935 179.725V119.725Z" fill="#8BC5E4"/>
<path d="M3.83203 70.989C3.83803 53.359 15.494 35.729 38.802 22.27V82.27C15.494 95.729 3.83803 113.359 3.83203 130.989V70.989Z" fill="#8BC5E4"/>
<path d="M38.8109 22.2651C85.4291 -4.64989 160.981 -4.64989 207.599 22.2651V82.2651C160.981 55.3501 85.4291 55.3501 38.8109 82.2651V22.2651Z" fill="#8BC5E4"/>
<path d="M166.506 42.8799L186.512 19.0199L190.92 21.5649L174.153 41.8949L209.349 32.2049L213.246 34.4549L171.304 45.6499L166.506 42.8799ZM114.917 129.155L114.484 103.855L96.2977 103.955L122.521 80.8649L149.714 103.655L131.692 103.76L132.108 129.06L114.917 129.155ZM107.365 76.1749L63.5533 76.4299L63.7265 86.9299L23.7334 71.7899L63.1982 56.0849L63.3714 66.4949L107.201 66.2499L107.365 76.1749ZM131.545 13.9949L131.969 39.2999L150.156 39.1999L123.933 62.2899L96.748 39.4949L114.77 39.3899L114.346 14.0949L131.545 13.9949ZM138.43 66.2999L182.259 66.0549L182.069 55.5549L222.071 70.6999L182.597 86.3899L182.424 75.9799L138.603 76.2299L138.43 66.2999ZM209.799 20.9949C161.994 -6.60508 84.4158 -6.60508 36.6112 20.9949C-11.2107 48.6049 -11.2107 93.3949 36.5939 120.995C84.4158 148.605 161.994 148.605 209.816 120.995C257.621 93.3949 257.621 48.6049 209.799 20.9949ZM207.599 22.2649C254.235 49.1899 254.235 92.8099 207.617 119.725C160.981 146.65 85.4291 146.65 38.7936 119.725C-7.82455 92.8099 -7.82454 49.1899 38.8109 22.2649C85.4291 -4.65008 160.981 -4.65008 207.599 22.2649Z" fill="#8BC5E4"/>
<path fill-rule="evenodd" clip-rule="evenodd" d="M207.599 22.2649C254.235 49.1899 254.235 92.8099 207.617 119.725C160.981 146.65 85.4291 146.65 38.7936 119.725C-7.82455 92.8099 -7.82454 49.1899 38.8109 22.2649C85.4291 -4.65008 160.981 -4.65008 207.599 22.2649ZM186.512 19.0199L166.506 42.8799L171.304 45.6499L213.246 34.4549L209.349 32.2049L174.153 41.8949L190.92 21.5649L186.512 19.0199ZM114.484 103.855L114.917 129.155L132.108 129.06L131.692 103.76L149.714 103.655L122.521 80.8649L96.2977 103.955L114.484 103.855ZM63.5533 76.4299L107.365 76.1749L107.201 66.2499L63.3714 66.4949L63.1982 56.0849L23.7334 71.7899L63.7265 86.9299L63.5533 76.4299ZM131.969 39.2999L131.545 13.9949L114.346 14.0949L114.77 39.3899L96.748 39.4949L123.933 62.2899L150.156 39.1999L131.969 39.2999ZM182.259 66.0549L138.43 66.2999L138.603 76.2299L182.424 75.9799L182.597 86.3899L222.071 70.6999L182.069 55.5549L182.259 66.0549Z" fill="white"/>
</svg>
