<svg width="246" height="202" viewBox="0 0 246 202" fill="none" xmlns="http://www.w3.org/2000/svg">
<path d="M166.547 114.082L166.584 112.204V172.204L166.547 174.082V114.082Z" fill="#8BC5E4"/>
<path d="M193.465 96.2065L197.265 96.2029V156.203L193.465 156.206V96.2065Z" fill="#8BC5E4"/>
<path d="M197.253 91.6255L193.459 91.6309V151.631L197.253 151.625V91.6255Z" fill="#8BC5E4"/>
<path d="M158.532 112.169L158.495 114.029V174.029L158.532 172.169V112.169Z" fill="#8BC5E4"/>
<path d="M173.207 111.831L173.213 114.068V174.068L173.207 171.831V111.831Z" fill="#8BC5E4"/>
<path d="M181.265 114.064L181.259 111.829V171.829L181.265 174.064V114.064Z" fill="#8BC5E4"/>
<path d="M194.353 104.549L197.358 104.538V164.538L194.353 164.549V104.549Z" fill="#8BC5E4"/>
<path d="M197.308 99.9629L194.331 99.9735V159.973L197.308 159.963V99.9629Z" fill="#8BC5E4"/>
<path d="M221.802 75.595L178.518 75.835V135.835L221.802 135.595V75.595Z" fill="#8BC5E4"/>
<path d="M178.518 75.835L178.683 86.21V146.21L178.518 135.835V75.835Z" fill="#8BC5E4"/>
<path d="M178.683 86.2099L139.183 71.2549V131.255L178.683 146.21V86.2099Z" fill="#8BC5E4"/>
<path d="M139.183 71.2549L178.172 55.7449V115.745L139.183 131.255V71.2549Z" fill="#8BC5E4"/>
<path d="M178.172 55.7449L178.336 66.0299V126.03L178.172 115.745V55.7449Z" fill="#8BC5E4"/>
<path d="M178.336 66.0299L221.629 65.7949V125.795L178.336 126.03V66.0299Z" fill="#8BC5E4"/>
<path d="M221.629 65.7949L221.802 75.5949V135.595L221.629 125.795V65.7949Z" fill="#8BC5E4"/>
<path d="M131.172 79.8999L131.588 104.89V164.89L131.172 139.9V79.8999Z" fill="#8BC5E4"/>
<path d="M131.588 104.89L149.55 104.79V164.79L131.588 164.89V104.89Z" fill="#8BC5E4"/>
<path d="M149.55 104.79L123.664 127.595V187.595L149.55 164.79V104.79Z" fill="#8BC5E4"/>
<path d="M123.664 127.595L96.8 105.085V165.085L123.664 187.595V127.595Z" fill="#8BC5E4"/>
<path d="M96.8 105.085L114.597 104.98V164.98L96.8 165.085V105.085Z" fill="#8BC5E4"/>
<path d="M114.597 104.98L114.181 79.99V139.99L114.597 164.98V104.98Z" fill="#8BC5E4"/>
<path d="M114.181 79.9899L131.173 79.8999V139.9L114.181 139.99V79.9899Z" fill="#8BC5E4"/>
<path d="M24.79 66.11L68.0652 65.865V125.865L24.79 126.11V66.11Z" fill="#8BC5E4"/>
<path d="M68.0651 65.865L67.9006 55.5V115.5L68.0651 125.865V65.865Z" fill="#8BC5E4"/>
<path d="M67.9006 55.5L107.409 70.45V130.45L67.9006 115.5V55.5Z" fill="#8BC5E4"/>
<path d="M107.409 70.45L68.4116 85.955V145.955L107.409 130.45V70.45Z" fill="#8BC5E4"/>
<path d="M68.4117 85.9548L68.2384 75.6848V135.685L68.4117 145.955V85.9548Z" fill="#8BC5E4"/>
<path d="M68.2384 75.6848L24.9545 75.9248V135.925L68.2384 135.685V75.6848Z" fill="#8BC5E4"/>
<path d="M24.9545 75.9249L24.79 66.1099V126.11L24.9545 135.925V75.9249Z" fill="#8BC5E4"/>
<path d="M114.259 62.1848L113.843 37.1948V97.1948L114.259 122.185V62.1848Z" fill="#8BC5E4"/>
<path d="M113.843 37.1948L95.882 37.2948V97.2948L113.843 97.1948V37.1948Z" fill="#8BC5E4"/>
<path d="M95.882 37.295L121.785 14.49V74.49L95.882 97.295V37.295Z" fill="#8BC5E4"/>
<path d="M121.785 14.49L148.632 37V97L121.785 74.49V14.49Z" fill="#8BC5E4"/>
<path d="M148.632 37L130.835 37.095V97.095L148.632 97V37Z" fill="#8BC5E4"/>
<path d="M130.835 37.095L131.259 62.09V122.09L130.835 97.095V37.095Z" fill="#8BC5E4"/>
<path d="M131.259 62.0898L114.259 62.1848V122.185L131.259 122.09V62.0898Z" fill="#8BC5E4"/>
<path d="M158.495 114.029L158.532 112.169V172.169L158.495 174.029V114.029Z" fill="#8BC5E4"/>
<path d="M193.459 91.6309L197.253 91.6255V151.625L193.459 151.631V91.6309Z" fill="#8BC5E4"/>
<path d="M197.265 96.2029L193.465 96.2065V156.206L197.265 156.203V96.2029Z" fill="#8BC5E4"/>
<path d="M193.465 96.2063H193.459V156.206H193.465V96.2063Z" fill="#8BC5E4"/>
<path d="M166.584 112.204L166.547 114.082V174.082L166.584 172.204V112.204Z" fill="#8BC5E4"/>
<path d="M173.213 114.068L173.207 111.831V171.831L173.213 174.068V114.068Z" fill="#8BC5E4"/>
<path d="M194.331 99.9735L197.308 99.9629V159.963L194.331 159.973V99.9735Z" fill="#8BC5E4"/>
<path d="M197.358 104.538L194.353 104.549V164.549L197.358 164.538V104.538Z" fill="#8BC5E4"/>
<path d="M194.353 104.549H194.331V164.549H194.353V104.549Z" fill="#8BC5E4"/>
<path d="M181.259 111.829L181.265 114.064V174.064L181.259 171.829V111.829Z" fill="#8BC5E4"/>
<path d="M178.518 75.835L221.802 75.595V135.595L178.518 135.835V75.835Z" fill="#8BC5E4"/>
<path d="M221.802 75.5949L221.629 65.7949V125.795L221.802 135.595V75.5949Z" fill="#8BC5E4"/>
<path d="M221.629 65.7949L178.336 66.0299V126.03L221.629 125.795V65.7949Z" fill="#8BC5E4"/>
<path d="M178.336 66.0299L178.172 55.7449V115.745L178.336 126.03V66.0299Z" fill="#8BC5E4"/>
<path d="M178.172 55.7449L139.183 71.2549V131.255L178.172 115.745V55.7449Z" fill="#8BC5E4"/>
<path d="M139.183 71.2549L178.683 86.2099V146.21L139.183 131.255V71.2549Z" fill="#8BC5E4"/>
<path d="M178.683 86.21L178.518 75.835V135.835L178.683 146.21V86.21Z" fill="#8BC5E4"/>
<path d="M131.588 104.89L131.172 79.8999V139.9L131.588 164.89V104.89Z" fill="#8BC5E4"/>
<path d="M131.173 79.8999L114.181 79.9899V139.99L131.173 139.9V79.8999Z" fill="#8BC5E4"/>
<path d="M114.181 79.99L114.597 104.98V164.98L114.181 139.99V79.99Z" fill="#8BC5E4"/>
<path d="M114.597 104.98L96.8 105.085V165.085L114.597 164.98V104.98Z" fill="#8BC5E4"/>
<path d="M96.8 105.085L123.664 127.595V187.595L96.8 165.085V105.085Z" fill="#8BC5E4"/>
<path d="M123.664 127.595L149.55 104.79V164.79L123.664 187.595V127.595Z" fill="#8BC5E4"/>
<path d="M149.55 104.79L131.588 104.89V164.89L149.55 164.79V104.79Z" fill="#8BC5E4"/>
<path d="M68.0652 65.865L24.79 66.11V126.11L68.0652 125.865V65.865Z" fill="#8BC5E4"/>
<path d="M24.79 66.1099L24.9545 75.9249V135.925L24.79 126.11V66.1099Z" fill="#8BC5E4"/>
<path d="M24.9545 75.9248L68.2384 75.6848V135.685L24.9545 135.925V75.9248Z" fill="#8BC5E4"/>
<path d="M68.2384 75.6848L68.4117 85.9548V145.955L68.2384 135.685V75.6848Z" fill="#8BC5E4"/>
<path d="M68.4116 85.955L107.409 70.45V130.45L68.4116 145.955V85.955Z" fill="#8BC5E4"/>
<path d="M107.409 70.45L67.9006 55.5V115.5L107.409 130.45V70.45Z" fill="#8BC5E4"/>
<path d="M67.9006 55.5L68.0651 65.865V125.865L67.9006 115.5V55.5Z" fill="#8BC5E4"/>
<path d="M113.843 37.1948L114.259 62.1848V122.185L113.843 97.1948V37.1948Z" fill="#8BC5E4"/>
<path d="M114.259 62.1848L131.259 62.0898V122.09L114.259 122.185V62.1848Z" fill="#8BC5E4"/>
<path d="M131.259 62.09L130.835 37.095V97.095L131.259 122.09V62.09Z" fill="#8BC5E4"/>
<path d="M130.835 37.095L148.632 37V97L130.835 97.095V37.095Z" fill="#8BC5E4"/>
<path d="M148.632 37L121.785 14.49V74.49L148.632 97V37Z" fill="#8BC5E4"/>
<path d="M121.785 14.49L95.882 37.295V97.295L121.785 74.49V14.49Z" fill="#8BC5E4"/>
<path d="M95.882 37.2948L113.843 37.1948V97.1948L95.882 97.2948V37.2948Z" fill="#8BC5E4"/>
<path d="M158.495 114.029C158.47 115.294 160.251 116.33 162.476 116.344V176.344C160.251 176.33 158.47 175.294 158.495 174.029V114.029Z" fill="#8BC5E4"/>
<path d="M162.476 116.344C164.698 116.358 166.523 115.345 166.547 114.082V174.082C166.523 175.345 164.698 176.358 162.476 176.344V116.344Z" fill="#8BC5E4"/>
<path d="M166.584 112.204C166.584 112.197 166.586 112.191 166.587 112.183V172.183C166.586 172.191 166.584 172.197 166.584 172.204V112.204Z" fill="#8BC5E4"/>
<path d="M166.584 112.204C166.584 112.197 166.586 112.191 166.587 112.183V172.183C166.586 172.191 166.584 172.197 166.584 172.204V112.204Z" fill="#8BC5E4"/>
<path d="M166.587 112.175C166.587 111.862 166.602 111.553 166.631 111.249V171.249C166.602 171.553 166.587 171.862 166.587 172.175V112.175Z" fill="#8BC5E4"/>
<path d="M166.631 111.249C167.065 106.68 170.698 103.076 175.692 100.479V160.479C170.698 163.076 167.065 166.68 166.631 171.249V111.249Z" fill="#8BC5E4"/>
<path d="M175.7 100.474C181.031 97.7042 187.974 96.2063 193.459 96.2063V156.206C187.974 156.206 181.031 157.704 175.7 160.474V100.474Z" fill="#8BC5E4"/>
<path d="M193.459 96.2063C193.462 96.2063 193.462 96.2063 193.465 96.2063V156.206C193.462 156.206 193.462 156.206 193.459 156.206V96.2063Z" fill="#8BC5E4"/>
<path d="M197.265 96.2028C199.49 96.2011 201.29 95.174 201.287 93.9106V153.911C201.29 155.174 199.49 156.201 197.265 156.203V96.2028Z" fill="#8BC5E4"/>
<path d="M201.287 93.9106C201.283 92.6473 199.478 91.6238 197.253 91.6255V151.625C199.478 151.624 201.283 152.647 201.287 153.911V93.9106Z" fill="#8BC5E4"/>
<path d="M193.459 91.6309C185.545 91.6309 177.034 93.5801 170.264 97.0966V157.097C177.034 153.58 185.545 151.631 193.459 151.631V91.6309Z" fill="#8BC5E4"/>
<path d="M170.264 97.0967C163.935 100.389 159.182 105.16 158.593 110.957V170.957C159.182 165.16 163.935 160.389 170.264 157.097V97.0967Z" fill="#8BC5E4"/>
<path d="M158.593 110.967C158.553 111.36 158.533 111.758 158.532 112.16V172.16C158.533 171.758 158.553 171.36 158.593 170.967V110.967Z" fill="#8BC5E4"/>
<path d="M158.532 112.169C158.532 112.17 158.532 112.171 158.532 112.172V172.172C158.532 172.171 158.532 172.17 158.532 172.169V112.169Z" fill="#8BC5E4"/>
<path d="M173.213 114.068C173.213 115.331 175.019 116.355 177.243 116.355V176.355C175.019 176.355 173.213 175.331 173.213 174.068V114.068Z" fill="#8BC5E4"/>
<path d="M177.244 116.355C179.465 116.353 181.265 115.328 181.265 114.064V174.064C181.265 175.328 179.465 176.353 177.244 176.355V116.355Z" fill="#8BC5E4"/>
<path d="M181.259 111.829C181.259 111.702 181.269 111.573 181.288 111.442V171.442C181.269 171.573 181.259 171.702 181.259 171.829V111.829Z" fill="#8BC5E4"/>
<path d="M181.288 111.442C181.507 109.975 182.93 108.256 185.212 106.929V166.929C182.93 168.256 181.507 169.975 181.288 171.442V111.442Z" fill="#8BC5E4"/>
<path d="M185.219 106.925C187.703 105.478 191.022 104.549 194.331 104.549V164.549C191.022 164.549 187.703 165.478 185.219 166.925V106.925Z" fill="#8BC5E4"/>
<path d="M194.331 104.549C194.337 104.549 194.347 104.549 194.353 104.549V164.549C194.347 164.549 194.337 164.549 194.331 164.549V104.549Z" fill="#8BC5E4"/>
<path d="M197.357 104.538C199.582 104.531 201.373 103.501 201.361 102.237V162.237C201.373 163.501 199.582 164.531 197.357 164.538V104.538Z" fill="#8BC5E4"/>
<path d="M201.361 102.237C201.348 100.972 199.533 99.9538 197.308 99.9627V159.963C199.533 159.954 201.348 160.972 201.361 162.237V102.237Z" fill="#8BC5E4"/>
<path d="M194.331 99.9734C188.455 99.9734 183.222 101.537 179.456 103.726V163.726C183.222 161.537 188.455 159.973 194.331 159.973V99.9734Z" fill="#8BC5E4"/>
<path d="M179.456 103.726C175.955 105.763 173.562 108.387 173.243 111.19V171.19C173.562 168.387 175.955 165.763 179.456 163.726V103.726Z" fill="#8BC5E4"/>
<path d="M173.244 111.182C173.22 111.393 173.207 111.606 173.207 111.82V171.82C173.207 171.606 173.22 171.393 173.244 171.182V111.182Z" fill="#8BC5E4"/>
<path d="M195.093 109.272C198.541 109.272 201.339 110.862 201.339 112.824V172.824C201.339 170.862 198.541 169.272 195.093 169.272V109.272Z" fill="#8BC5E4"/>
<path d="M201.339 112.824C201.339 114.786 198.541 116.374 195.093 116.374V176.374C198.541 176.374 201.339 174.786 201.339 172.824V112.824Z" fill="#8BC5E4"/>
<path d="M195.092 116.374C193.434 116.374 191.844 116.001 190.673 115.335V175.335C191.844 176.001 193.434 176.374 195.092 176.374V116.374Z" fill="#8BC5E4"/>
<path d="M190.673 115.335C189.582 114.715 188.938 113.892 188.853 113.022V173.022C188.938 173.892 189.582 174.715 190.673 175.335V115.335Z" fill="#8BC5E4"/>
<path d="M188.853 113.027C188.847 112.962 188.843 112.896 188.843 112.83V172.83C188.843 172.896 188.847 172.962 188.853 173.027V113.027Z" fill="#8BC5E4"/>
<path d="M188.843 112.824C188.843 112.758 188.846 112.692 188.853 112.626V172.626C188.846 172.692 188.843 172.758 188.843 172.824V112.824Z" fill="#8BC5E4"/>
<path d="M188.853 112.626C188.938 111.758 189.579 110.934 190.667 110.317V170.317C189.579 170.934 188.938 171.758 188.853 172.626V112.626Z" fill="#8BC5E4"/>
<path d="M190.673 110.313C191.844 109.647 193.434 109.272 195.092 109.272V169.272C193.434 169.272 191.844 169.647 190.673 170.313V110.313Z" fill="#8BC5E4"/>
<path d="M36.5939 21.0049C12.692 34.8049 0.73999 52.9029 0.73999 70.9999V131C0.73999 112.903 12.692 94.8049 36.5939 81.0049V21.0049Z" fill="#8BC5E4"/>
<path d="M0.73999 70.9968C0.73899 89.0928 12.687 107.19 36.585 120.99V180.99C12.687 167.19 0.73899 149.093 0.73999 130.997V70.9968Z" fill="#8BC5E4"/>
<path d="M36.5939 120.995C84.4158 148.605 161.994 148.605 209.799 121.005V181.005C161.994 208.605 84.4158 208.605 36.5939 180.995V120.995Z" fill="#8BC5E4"/>
<path d="M209.799 121.005C233.71 107.2 245.665 89.1 245.665 71V131C245.665 149.1 233.71 167.2 209.799 181.005V121.005Z" fill="#8BC5E4"/>
<path d="M245.665 71.003C245.667 52.904 233.714 34.805 209.808 21V81C233.714 94.805 245.667 112.904 245.665 131.003V71.003Z" fill="#8BC5E4"/>
<path d="M209.799 20.9949C161.994 -6.60511 84.4158 -6.60511 36.5939 21.0049V81.0049C84.4158 53.3949 161.994 53.3949 209.799 80.9949V20.9949Z" fill="#8BC5E4"/>
<path d="M38.7936 22.2748C85.429 -4.65017 160.981 -4.65017 207.599 22.2648V82.2648C160.981 55.3498 85.429 55.3498 38.7936 82.2748V22.2748Z" fill="#8BC5E4"/>
<path d="M207.599 22.2649C230.917 35.7269 242.576 53.3639 242.576 70.9999V131C242.576 113.364 230.917 95.7269 207.599 82.2649V22.2649Z" fill="#8BC5E4"/>
<path d="M242.576 70.9968C242.577 88.6318 230.922 106.267 207.608 119.73V179.73C230.922 166.267 242.577 148.632 242.576 130.997V70.9968Z" fill="#8BC5E4"/>
<path d="M207.599 119.735C160.981 146.65 85.429 146.65 38.7936 119.725V179.725C85.429 206.65 160.981 206.65 207.599 179.735V119.735Z" fill="#8BC5E4"/>
<path d="M38.7936 119.725C15.485 106.267 3.83002 88.634 3.83002 71V131C3.83002 148.634 15.485 166.267 38.7936 179.725V119.725Z" fill="#8BC5E4"/>
<path d="M3.82996 71.0028C3.82796 53.3698 15.48 35.7368 38.785 22.2798V82.2798C15.48 95.7368 3.82796 113.37 3.82996 131.003V71.0028Z" fill="#8BC5E4"/>
<path d="M38.7936 22.2748C85.429 -4.65017 160.981 -4.65017 207.599 22.2648V82.2648C160.981 55.3498 85.429 55.3498 38.7936 82.2748V22.2748Z" fill="#8BC5E4"/>
<path d="M207.599 22.2649C230.917 35.7269 242.576 53.3639 242.576 70.9999V131C242.576 113.364 230.917 95.7269 207.599 82.2649V22.2649Z" fill="#8BC5E4"/>
<path d="M242.576 70.9968C242.577 88.6318 230.922 106.267 207.608 119.73V179.73C230.922 166.267 242.577 148.632 242.576 130.997V70.9968Z" fill="#8BC5E4"/>
<path d="M207.599 119.735C160.981 146.65 85.429 146.65 38.7936 119.725V179.725C85.429 206.65 160.981 206.65 207.599 179.735V119.735Z" fill="#8BC5E4"/>
<path d="M38.7936 119.725C15.485 106.267 3.83002 88.634 3.83002 71V131C3.83002 148.634 15.485 166.267 38.7936 179.725V119.725Z" fill="#8BC5E4"/>
<path d="M3.82996 71.0028C3.82796 53.3698 15.48 35.7368 38.785 22.2798V82.2798C15.48 95.7368 3.82796 113.37 3.82996 131.003V71.0028Z" fill="#8BC5E4"/>
<path d="M162.476 116.344C160.251 116.33 158.47 115.294 158.495 114.029V174.029C158.47 175.294 160.251 176.33 162.476 176.344V116.344Z" fill="#8BC5E4"/>
<path d="M158.532 112.169C158.532 111.76 158.553 111.356 158.593 110.957V170.957C158.553 171.356 158.532 171.76 158.532 172.169V112.169Z" fill="#8BC5E4"/>
<path d="M158.593 110.957C159.182 105.162 163.932 100.391 170.259 97.0989V157.099C163.932 160.391 159.182 165.162 158.593 170.957V110.957Z" fill="#8BC5E4"/>
<path d="M170.264 97.0966C177.034 93.5801 185.545 91.6309 193.459 91.6309V151.631C185.545 151.631 177.034 153.58 170.264 157.097V97.0966Z" fill="#8BC5E4"/>
<path d="M197.253 91.6255C199.478 91.6238 201.283 92.6473 201.287 93.9106V153.911C201.283 152.647 199.478 151.624 197.253 151.625V91.6255Z" fill="#8BC5E4"/>
<path d="M201.287 93.9106C201.29 95.174 199.49 96.2011 197.265 96.2028V156.203C199.49 156.201 201.29 155.174 201.287 153.911V93.9106Z" fill="#8BC5E4"/>
<path d="M193.459 96.2063C187.974 96.2063 181.031 97.7042 175.7 100.474V160.474C181.031 157.704 187.974 156.206 193.459 156.206V96.2063Z" fill="#8BC5E4"/>
<path d="M175.7 100.475C170.702 103.072 167.066 106.678 166.631 111.249V171.249C167.066 166.678 170.702 163.072 175.7 160.475V100.475Z" fill="#8BC5E4"/>
<path d="M166.631 111.242C166.602 111.546 166.587 111.855 166.587 112.168V172.168C166.587 171.855 166.602 171.546 166.631 171.242V111.242Z" fill="#8BC5E4"/>
<path d="M166.587 112.175C166.587 112.178 166.587 112.181 166.587 112.183V172.183C166.587 172.181 166.587 172.178 166.587 172.175V112.175Z" fill="#8BC5E4"/>
<path d="M166.586 112.187C166.585 112.191 166.585 112.194 166.585 112.197V172.197C166.585 172.194 166.585 172.191 166.586 172.187V112.187Z" fill="#8BC5E4"/>
<path d="M166.547 114.082C166.523 115.345 164.698 116.358 162.476 116.344V176.344C164.698 176.358 166.523 175.345 166.547 174.082V114.082Z" fill="#8BC5E4"/>
<path d="M173.207 111.829C173.207 111.615 173.219 111.402 173.243 111.19V171.19C173.219 171.402 173.207 171.615 173.207 171.829V111.829Z" fill="#8BC5E4"/>
<path d="M173.243 111.19C173.562 108.388 175.953 105.766 179.451 103.73V163.73C175.953 165.766 173.562 168.388 173.243 171.19V111.19Z" fill="#8BC5E4"/>
<path d="M179.456 103.726C183.222 101.537 188.455 99.9734 194.331 99.9734V159.973C188.455 159.973 183.222 161.537 179.456 163.726V103.726Z" fill="#8BC5E4"/>
<path d="M197.308 99.9627C199.533 99.9538 201.348 100.972 201.361 102.237V162.237C201.348 160.972 199.533 159.954 197.308 159.963V99.9627Z" fill="#8BC5E4"/>
<path d="M201.361 102.237C201.373 103.501 199.582 104.531 197.357 104.538V164.538C199.582 164.531 201.373 163.501 201.361 162.237V102.237Z" fill="#8BC5E4"/>
<path d="M194.331 104.549C191.022 104.549 187.703 105.478 185.219 106.925V166.925C187.703 165.478 191.022 164.549 194.331 164.549V104.549Z" fill="#8BC5E4"/>
<path d="M185.219 106.925C182.933 108.253 181.507 109.973 181.288 111.442V171.442C181.507 169.973 182.933 168.253 185.219 166.925V106.925Z" fill="#8BC5E4"/>
<path d="M181.29 111.433C181.27 111.564 181.259 111.693 181.259 111.82V171.82C181.259 171.693 181.27 171.564 181.29 171.433V111.433Z" fill="#8BC5E4"/>
<path d="M181.265 114.064C181.265 115.328 179.465 116.353 177.244 116.355V176.355C179.465 176.353 181.265 175.328 181.265 174.064V114.064Z" fill="#8BC5E4"/>
<path d="M177.243 116.355C175.019 116.355 173.213 115.331 173.213 114.068V174.068C173.213 175.331 175.019 176.355 177.243 176.355V116.355Z" fill="#8BC5E4"/>
<path d="M201.339 112.824C201.339 110.862 198.541 109.272 195.093 109.272V169.272C198.541 169.272 201.339 170.862 201.339 172.824V112.824Z" fill="#8BC5E4"/>
<path d="M195.092 109.272C193.434 109.272 191.844 109.647 190.673 110.313V170.313C191.844 169.647 193.434 169.272 195.092 169.272V109.272Z" fill="#8BC5E4"/>
<path d="M190.673 110.313C189.582 110.931 188.938 111.756 188.853 112.626V172.626C188.938 171.756 189.582 170.931 190.673 170.313V110.313Z" fill="#8BC5E4"/>
<path d="M188.853 112.621C188.847 112.687 188.843 112.753 188.843 112.819V172.819C188.843 172.753 188.847 172.687 188.853 172.621V112.621Z" fill="#8BC5E4"/>
<path d="M188.843 112.824C188.843 112.89 188.846 112.956 188.853 113.022V173.022C188.846 172.956 188.843 172.89 188.843 172.824V112.824Z" fill="#8BC5E4"/>
<path d="M188.853 113.022C188.938 113.89 189.579 114.712 190.667 115.331V175.331C189.579 174.712 188.938 173.89 188.853 173.022V113.022Z" fill="#8BC5E4"/>
<path d="M190.673 115.335C191.844 116.001 193.434 116.374 195.092 116.374V176.374C193.434 176.374 191.844 176.001 190.673 175.335V115.335Z" fill="#8BC5E4"/>
<path d="M195.093 116.374C198.541 116.374 201.339 114.786 201.339 112.824V172.824C201.339 174.786 198.541 176.374 195.093 176.374V116.374Z" fill="#8BC5E4"/>
<path d="M158.495 114.029C158.47 115.294 160.251 116.33 162.476 116.344C164.698 116.358 166.522 115.345 166.547 114.082L166.584 112.204C166.584 112.195 166.587 112.186 166.587 112.175C166.587 107.163 170.368 103.245 175.7 100.475C181.031 97.7043 187.974 96.2064 193.459 96.2064C193.462 96.2064 193.462 96.2064 193.465 96.2064L197.265 96.2028C199.49 96.2011 201.29 95.174 201.287 93.9106C201.284 92.6473 199.478 91.6238 197.253 91.6255L193.459 91.6309C185.546 91.6309 177.034 93.5801 170.264 97.0966C163.499 100.615 158.535 105.825 158.532 112.169C158.532 112.171 158.532 112.173 158.532 112.175V112.169L158.495 114.029ZM173.207 111.831L173.213 114.068C173.213 115.331 175.019 116.355 177.244 116.355C179.465 116.353 181.265 115.328 181.265 114.064L181.259 111.829C181.259 110.283 182.729 108.371 185.219 106.925C187.703 105.478 191.022 104.549 194.331 104.549C194.337 104.549 194.347 104.549 194.353 104.549L197.357 104.538C199.582 104.531 201.373 103.501 201.361 102.237C201.348 100.972 199.533 99.9539 197.308 99.9628L194.331 99.9734C188.455 99.9734 183.222 101.537 179.456 103.726C175.69 105.917 173.207 108.787 173.207 111.829V111.831ZM195.092 109.272C198.541 109.272 201.339 110.862 201.339 112.824C201.339 114.786 198.541 116.374 195.092 116.374C193.435 116.374 191.844 116.001 190.673 115.335C189.499 114.668 188.843 113.766 188.843 112.824C188.843 111.882 189.499 110.978 190.673 110.313C191.844 109.647 193.435 109.272 195.092 109.272Z" fill="#8BC5E4"/>
<path d="M221.802 75.5949L178.518 75.8349L178.683 86.2099L139.183 71.2549L178.172 55.7449L178.336 66.0299L221.629 65.7949L221.802 75.5949ZM131.173 79.8999L131.588 104.89L149.55 104.79L123.664 127.595L96.7999 105.085L114.597 104.98L114.181 79.9899L131.173 79.8999ZM24.7899 66.1099L68.0652 65.8649L67.9007 55.4999L107.409 70.4499L68.4116 85.9549L68.2384 75.6849L24.9545 75.9249L24.7899 66.1099ZM114.259 62.1849L113.843 37.1949L95.882 37.2949L121.785 14.4899L148.632 36.9999L130.835 37.0949L131.259 62.0899L114.259 62.1849ZM36.5939 21.0049C-11.2107 48.6049 -11.2107 93.3949 36.5939 120.995C84.4158 148.605 161.994 148.605 209.799 121.005C257.621 93.3949 257.621 48.6049 209.799 20.9949C161.994 -6.60511 84.4158 -6.6051 36.5939 21.0049ZM38.7936 22.2749C85.429 -4.65011 160.981 -4.65011 207.599 22.2649C254.235 49.1899 254.235 92.8099 207.599 119.735C160.981 146.65 85.429 146.65 38.7936 119.725C-7.82457 92.8099 -7.82457 49.1899 38.7936 22.2749Z" fill="#8BC5E4"/>
<path fill-rule="evenodd" clip-rule="evenodd" d="M38.7936 22.2749C85.429 -4.65011 160.981 -4.65011 207.599 22.2649C254.235 49.1899 254.235 92.8099 207.599 119.735C160.981 146.65 85.429 146.65 38.7936 119.725C-7.82457 92.8099 -7.82457 49.1899 38.7936 22.2749ZM162.476 116.344C160.251 116.33 158.47 115.294 158.495 114.029L158.532 112.169C158.535 105.825 163.499 100.615 170.264 97.0966C177.034 93.5801 185.546 91.6309 193.459 91.6309L197.253 91.6255C199.478 91.6238 201.284 92.6473 201.287 93.9106C201.29 95.174 199.49 96.2011 197.265 96.2028L193.465 96.2064H193.459C187.974 96.2064 181.031 97.7043 175.7 100.475C170.368 103.245 166.587 107.163 166.587 112.175C166.587 112.186 166.584 112.195 166.584 112.204L166.547 114.082C166.522 115.345 164.698 116.358 162.476 116.344ZM173.213 114.068L173.207 111.831V111.829C173.207 108.787 175.69 105.917 179.456 103.726C183.222 101.537 188.455 99.9734 194.331 99.9734L197.308 99.9628C199.533 99.9539 201.348 100.972 201.361 102.237C201.373 103.501 199.582 104.531 197.357 104.538L194.353 104.549H194.331C191.022 104.549 187.703 105.478 185.219 106.925C182.729 108.371 181.259 110.283 181.259 111.829L181.265 114.064C181.265 115.328 179.465 116.353 177.244 116.355C175.019 116.355 173.213 115.331 173.213 114.068ZM201.339 112.824C201.339 110.862 198.541 109.272 195.092 109.272C193.435 109.272 191.844 109.647 190.673 110.313C189.499 110.978 188.843 111.882 188.843 112.824C188.843 113.766 189.499 114.668 190.673 115.335C191.844 116.001 193.435 116.374 195.092 116.374C198.541 116.374 201.339 114.786 201.339 112.824ZM178.518 75.8349L221.802 75.5949L221.629 65.7949L178.336 66.0299L178.172 55.7449L139.183 71.2549L178.683 86.2099L178.518 75.8349ZM131.588 104.89L131.173 79.8999L114.181 79.9899L114.597 104.98L96.7999 105.085L123.664 127.595L149.55 104.79L131.588 104.89ZM68.0652 65.8649L24.7899 66.1099L24.9545 75.9249L68.2384 75.6849L68.4116 85.9549L107.409 70.4499L67.9007 55.4999L68.0652 65.8649ZM113.843 37.1949L114.259 62.1849L131.259 62.0899L130.835 37.0949L148.632 36.9999L121.785 14.4899L95.882 37.2949L113.843 37.1949Z" fill="white"/>
</svg>
