<svg width="226" height="330" viewBox="0 0 226 330" fill="none" xmlns="http://www.w3.org/2000/svg">
<path fill-rule="evenodd" clip-rule="evenodd" d="M14.6792 105.925L42.6172 122.055L94.5787 92.055L66.6407 75.925L14.6792 105.925Z" fill="#8BC5E4"/>
<path fill-rule="evenodd" clip-rule="evenodd" d="M42.6172 122.055V86.135L94.5787 56.135V92.055L42.6172 122.055Z" fill="#8BC5E4"/>
<path fill-rule="evenodd" clip-rule="evenodd" d="M42.6172 86.135L14.6792 70.005L66.6407 40.005L94.5787 56.135L42.6172 86.135Z" fill="#8BC5E4"/>
<path fill-rule="evenodd" clip-rule="evenodd" d="M14.6792 70.005L66.6407 40.005L14.6792 70.005Z" fill="#8BC5E4"/>
<path fill-rule="evenodd" clip-rule="evenodd" d="M52.5762 127.805L80.5055 143.93L132.467 113.93L104.538 97.8049L52.5762 127.805Z" fill="#8BC5E4"/>
<path fill-rule="evenodd" clip-rule="evenodd" d="M80.5059 143.93V108.01L132.467 78.01V113.93L80.5059 143.93Z" fill="#8BC5E4"/>
<path fill-rule="evenodd" clip-rule="evenodd" d="M80.5055 108.01L52.5762 91.885L104.538 61.885L132.467 78.01L80.5055 108.01Z" fill="#8BC5E4"/>
<path fill-rule="evenodd" clip-rule="evenodd" d="M52.5762 91.885L104.538 61.885L52.5762 91.885Z" fill="#8BC5E4"/>
<path fill-rule="evenodd" clip-rule="evenodd" d="M90.4995 149.7L118.429 165.825L170.39 135.825L142.461 119.7L90.4995 149.7Z" fill="#8BC5E4"/>
<path fill-rule="evenodd" clip-rule="evenodd" d="M118.429 165.825V129.905L170.391 99.905V135.825L118.429 165.825Z" fill="#8BC5E4"/>
<path fill-rule="evenodd" clip-rule="evenodd" d="M118.429 129.905L90.4995 113.78L142.461 83.78L170.39 99.905L118.429 129.905Z" fill="#8BC5E4"/>
<path fill-rule="evenodd" clip-rule="evenodd" d="M90.4995 113.78L142.461 83.78L90.4995 113.78Z" fill="#8BC5E4"/>
<path fill-rule="evenodd" clip-rule="evenodd" d="M128.397 171.58L156.352 187.72L208.314 157.72L180.358 141.58L128.397 171.58Z" fill="#8BC5E4"/>
<path fill-rule="evenodd" clip-rule="evenodd" d="M156.352 187.72V151.8L208.314 121.8V157.72L156.352 187.72Z" fill="#8BC5E4"/>
<path fill-rule="evenodd" clip-rule="evenodd" d="M156.352 151.8L128.397 135.66L180.358 105.66L208.314 121.8L156.352 151.8Z" fill="#8BC5E4"/>
<path fill-rule="evenodd" clip-rule="evenodd" d="M128.397 135.66L180.358 105.66L128.397 135.66Z" fill="#8BC5E4"/>
<path fill-rule="evenodd" clip-rule="evenodd" d="M19.3037 77.925L37.9925 88.715L89.9541 58.715L71.2652 47.925L19.3037 77.925Z" fill="#8BC5E4"/>
<path fill-rule="evenodd" clip-rule="evenodd" d="M37.9927 88.715V114.125L89.9542 84.125V58.715L37.9927 88.715Z" fill="#8BC5E4"/>
<path fill-rule="evenodd" clip-rule="evenodd" d="M37.9925 114.125L19.3037 103.335L71.2652 73.335L89.9541 84.125L37.9925 114.125Z" fill="#8BC5E4"/>
<path fill-rule="evenodd" clip-rule="evenodd" d="M19.3037 103.335V77.925L71.2652 47.925V73.335L19.3037 103.335Z" fill="#8BC5E4"/>
<path fill-rule="evenodd" clip-rule="evenodd" d="M19.3037 77.925L71.2652 47.925L19.3037 77.925Z" fill="#8BC5E4"/>
<path fill-rule="evenodd" clip-rule="evenodd" d="M57.2012 99.8051L75.89 110.595L127.852 80.5951L109.163 69.8051L57.2012 99.8051Z" fill="#8BC5E4"/>
<path fill-rule="evenodd" clip-rule="evenodd" d="M75.8896 110.595V136.005L127.851 106.005V80.595L75.8896 110.595Z" fill="#8BC5E4"/>
<path fill-rule="evenodd" clip-rule="evenodd" d="M75.89 136.005L57.2012 125.215L109.163 95.215L127.852 106.005L75.89 136.005Z" fill="#8BC5E4"/>
<path fill-rule="evenodd" clip-rule="evenodd" d="M57.2012 125.215V99.8051L109.163 69.8051V95.2151L57.2012 125.215Z" fill="#8BC5E4"/>
<path fill-rule="evenodd" clip-rule="evenodd" d="M57.2012 99.8051L109.163 69.8051L57.2012 99.8051Z" fill="#8BC5E4"/>
<path fill-rule="evenodd" clip-rule="evenodd" d="M95.124 121.7L113.804 132.485L165.766 102.485L147.086 91.7L95.124 121.7Z" fill="#8BC5E4"/>
<path fill-rule="evenodd" clip-rule="evenodd" d="M113.804 132.485V157.895L165.766 127.895V102.485L113.804 132.485Z" fill="#8BC5E4"/>
<path fill-rule="evenodd" clip-rule="evenodd" d="M113.804 157.895L95.124 147.11L147.086 117.11L165.766 127.895L113.804 157.895Z" fill="#8BC5E4"/>
<path fill-rule="evenodd" clip-rule="evenodd" d="M95.124 147.11V121.7L147.086 91.7V117.11L95.124 147.11Z" fill="#8BC5E4"/>
<path fill-rule="evenodd" clip-rule="evenodd" d="M95.124 121.7L147.086 91.7L95.124 121.7Z" fill="#8BC5E4"/>
<path fill-rule="evenodd" clip-rule="evenodd" d="M133.021 143.58L151.728 154.38L203.689 124.38L184.983 113.58L133.021 143.58Z" fill="#8BC5E4"/>
<path fill-rule="evenodd" clip-rule="evenodd" d="M151.728 154.38V179.79L203.689 149.79V124.38L151.728 154.38Z" fill="#8BC5E4"/>
<path fill-rule="evenodd" clip-rule="evenodd" d="M151.728 179.79L133.021 168.99L184.983 138.99L203.689 149.79L151.728 179.79Z" fill="#8BC5E4"/>
<path fill-rule="evenodd" clip-rule="evenodd" d="M133.021 168.99V143.58L184.983 113.58V138.99L133.021 168.99Z" fill="#8BC5E4"/>
<path fill-rule="evenodd" clip-rule="evenodd" d="M133.021 143.58L184.983 113.58L133.021 143.58Z" fill="#8BC5E4"/>
<path fill-rule="evenodd" clip-rule="evenodd" d="M14.6792 154.305L42.6172 170.435L94.5787 140.435L66.6407 124.305L14.6792 154.305Z" fill="#8BC5E4"/>
<path fill-rule="evenodd" clip-rule="evenodd" d="M42.6172 170.435V134.525L94.5787 104.525V140.435L42.6172 170.435Z" fill="#8BC5E4"/>
<path fill-rule="evenodd" clip-rule="evenodd" d="M42.6172 134.525L14.6792 118.395L66.6407 88.395L94.5787 104.525L42.6172 134.525Z" fill="#8BC5E4"/>
<path fill-rule="evenodd" clip-rule="evenodd" d="M14.6792 118.395L66.6407 88.395L14.6792 118.395Z" fill="#8BC5E4"/>
<path fill-rule="evenodd" clip-rule="evenodd" d="M52.5762 176.185L80.5055 192.31L132.467 162.31L104.538 146.185L52.5762 176.185Z" fill="#8BC5E4"/>
<path fill-rule="evenodd" clip-rule="evenodd" d="M80.5059 192.31V156.4L132.467 126.4V162.31L80.5059 192.31Z" fill="#8BC5E4"/>
<path fill-rule="evenodd" clip-rule="evenodd" d="M80.5055 156.4L52.5762 140.275L104.538 110.275L132.467 126.4L80.5055 156.4Z" fill="#8BC5E4"/>
<path fill-rule="evenodd" clip-rule="evenodd" d="M52.5762 140.275L104.538 110.275L52.5762 140.275Z" fill="#8BC5E4"/>
<path fill-rule="evenodd" clip-rule="evenodd" d="M90.4995 198.08L118.429 214.205L170.39 184.205L142.461 168.08L90.4995 198.08Z" fill="#8BC5E4"/>
<path fill-rule="evenodd" clip-rule="evenodd" d="M118.429 214.205V178.295L170.391 148.295V184.205L118.429 214.205Z" fill="#8BC5E4"/>
<path fill-rule="evenodd" clip-rule="evenodd" d="M118.429 178.295L90.4995 162.17L142.461 132.17L170.39 148.295L118.429 178.295Z" fill="#8BC5E4"/>
<path fill-rule="evenodd" clip-rule="evenodd" d="M90.4995 162.17L142.461 132.17L90.4995 162.17Z" fill="#8BC5E4"/>
<path fill-rule="evenodd" clip-rule="evenodd" d="M128.397 219.96L156.352 236.1L208.314 206.1L180.358 189.96L128.397 219.96Z" fill="#8BC5E4"/>
<path fill-rule="evenodd" clip-rule="evenodd" d="M156.352 236.1V200.19L208.314 170.19V206.1L156.352 236.1Z" fill="#8BC5E4"/>
<path fill-rule="evenodd" clip-rule="evenodd" d="M156.352 200.19L128.397 184.05L180.358 154.05L208.314 170.19L156.352 200.19Z" fill="#8BC5E4"/>
<path fill-rule="evenodd" clip-rule="evenodd" d="M128.397 184.05L180.358 154.05L128.397 184.05Z" fill="#8BC5E4"/>
<path fill-rule="evenodd" clip-rule="evenodd" d="M19.3037 126.315L37.9925 137.105L89.9541 107.105L71.2652 96.3149L19.3037 126.315Z" fill="#8BC5E4"/>
<path fill-rule="evenodd" clip-rule="evenodd" d="M37.9927 137.105V162.515L89.9542 132.515V107.105L37.9927 137.105Z" fill="#8BC5E4"/>
<path fill-rule="evenodd" clip-rule="evenodd" d="M37.9925 162.515L19.3037 151.725L71.2652 121.725L89.9541 132.515L37.9925 162.515Z" fill="#8BC5E4"/>
<path fill-rule="evenodd" clip-rule="evenodd" d="M19.3037 151.725V126.315L71.2652 96.3149V121.725L19.3037 151.725Z" fill="#8BC5E4"/>
<path fill-rule="evenodd" clip-rule="evenodd" d="M19.3037 126.315L71.2652 96.3149L19.3037 126.315Z" fill="#8BC5E4"/>
<path fill-rule="evenodd" clip-rule="evenodd" d="M57.2012 148.195L75.89 158.985L127.852 128.985L109.163 118.195L57.2012 148.195Z" fill="#8BC5E4"/>
<path fill-rule="evenodd" clip-rule="evenodd" d="M75.8896 158.985V184.395L127.851 154.395V128.985L75.8896 158.985Z" fill="#8BC5E4"/>
<path fill-rule="evenodd" clip-rule="evenodd" d="M75.89 184.395L57.2012 173.605L109.163 143.605L127.852 154.395L75.89 184.395Z" fill="#8BC5E4"/>
<path fill-rule="evenodd" clip-rule="evenodd" d="M57.2012 173.605V148.195L109.163 118.195V143.605L57.2012 173.605Z" fill="#8BC5E4"/>
<path fill-rule="evenodd" clip-rule="evenodd" d="M57.2012 148.195L109.163 118.195L57.2012 148.195Z" fill="#8BC5E4"/>
<path fill-rule="evenodd" clip-rule="evenodd" d="M95.124 170.09L113.804 180.875L165.766 150.875L147.086 140.09L95.124 170.09Z" fill="#8BC5E4"/>
<path fill-rule="evenodd" clip-rule="evenodd" d="M113.804 180.875V206.285L165.766 176.285V150.875L113.804 180.875Z" fill="#8BC5E4"/>
<path fill-rule="evenodd" clip-rule="evenodd" d="M113.804 206.285L95.124 195.5L147.086 165.5L165.766 176.285L113.804 206.285Z" fill="#8BC5E4"/>
<path fill-rule="evenodd" clip-rule="evenodd" d="M95.124 195.5V170.09L147.086 140.09V165.5L95.124 195.5Z" fill="#8BC5E4"/>
<path fill-rule="evenodd" clip-rule="evenodd" d="M95.124 170.09L147.086 140.09L95.124 170.09Z" fill="#8BC5E4"/>
<path fill-rule="evenodd" clip-rule="evenodd" d="M133.021 191.97L151.728 202.77L203.689 172.77L184.983 161.97L133.021 191.97Z" fill="#8BC5E4"/>
<path fill-rule="evenodd" clip-rule="evenodd" d="M151.728 202.77V228.18L203.689 198.18V172.77L151.728 202.77Z" fill="#8BC5E4"/>
<path fill-rule="evenodd" clip-rule="evenodd" d="M151.728 228.18L133.021 217.38L184.983 187.38L203.689 198.18L151.728 228.18Z" fill="#8BC5E4"/>
<path fill-rule="evenodd" clip-rule="evenodd" d="M133.021 217.38V191.97L184.983 161.97V187.38L133.021 217.38Z" fill="#8BC5E4"/>
<path fill-rule="evenodd" clip-rule="evenodd" d="M133.021 191.97L184.983 161.97L133.021 191.97Z" fill="#8BC5E4"/>
<path fill-rule="evenodd" clip-rule="evenodd" d="M0 30V230L51.9615 200V0L0 30Z" fill="#8BC5E4"/>
<path fill-rule="evenodd" clip-rule="evenodd" d="M0 230L173.205 330L225.167 300L51.9615 200L0 230Z" fill="#8BC5E4"/>
<path fill-rule="evenodd" clip-rule="evenodd" d="M173.205 330V130L225.167 100V300L173.205 330Z" fill="#8BC5E4"/>
<path fill-rule="evenodd" clip-rule="evenodd" d="M173.205 130L0 30L51.9615 0L225.167 100L173.205 130Z" fill="#8BC5E4"/>
<path fill-rule="evenodd" clip-rule="evenodd" d="M0 30L51.9615 0L0 30Z" fill="#8BC5E4"/>
<path fill-rule="evenodd" clip-rule="evenodd" d="M4.62451 37.92L168.58 132.58L220.542 102.58L56.586 7.92004L4.62451 37.92Z" fill="#8BC5E4"/>
<path fill-rule="evenodd" clip-rule="evenodd" d="M168.581 132.58V322.08L220.542 292.08V102.58L168.581 132.58Z" fill="#8BC5E4"/>
<path fill-rule="evenodd" clip-rule="evenodd" d="M168.58 322.08L105.664 285.755L157.625 255.755L220.542 292.08L168.58 322.08Z" fill="#8BC5E4"/>
<path fill-rule="evenodd" clip-rule="evenodd" d="M105.664 285.755V219.885L157.625 189.885V255.755L105.664 285.755Z" fill="#8BC5E4"/>
<path fill-rule="evenodd" clip-rule="evenodd" d="M105.664 219.885L65.8267 196.885L117.788 166.885L157.625 189.885L105.664 219.885Z" fill="#8BC5E4"/>
<path fill-rule="evenodd" clip-rule="evenodd" d="M65.8267 196.885V262.755L117.788 232.755V166.885L65.8267 196.885Z" fill="#8BC5E4"/>
<path fill-rule="evenodd" clip-rule="evenodd" d="M65.8265 262.755L4.62451 227.42L56.586 197.42L117.788 232.755L65.8265 262.755Z" fill="#8BC5E4"/>
<path fill-rule="evenodd" clip-rule="evenodd" d="M4.62451 227.42V37.92L56.586 7.92004V197.42L4.62451 227.42Z" fill="#8BC5E4"/>
<path fill-rule="evenodd" clip-rule="evenodd" d="M4.62451 37.92L56.586 7.92004L4.62451 37.92Z" fill="#8BC5E4"/>
<path fill-rule="evenodd" clip-rule="evenodd" d="M70.4512 204.805L101.039 222.465L153.001 192.465L122.413 174.805L70.4512 204.805Z" fill="#8BC5E4"/>
<path fill-rule="evenodd" clip-rule="evenodd" d="M101.039 222.465V283.085L153.001 253.085V192.465L101.039 222.465Z" fill="#8BC5E4"/>
<path fill-rule="evenodd" clip-rule="evenodd" d="M101.039 283.085L70.4512 265.425L122.413 235.425L153.001 253.085L101.039 283.085Z" fill="#8BC5E4"/>
<path fill-rule="evenodd" clip-rule="evenodd" d="M70.4512 265.425V204.805L122.413 174.805V235.425L70.4512 265.425Z" fill="#8BC5E4"/>
<path fill-rule="evenodd" clip-rule="evenodd" d="M70.4512 204.805L122.413 174.805L70.4512 204.805Z" fill="#8BC5E4"/>
<path fill-rule="evenodd" clip-rule="evenodd" d="M14.6792 70.005C14.6792 81.975 14.6792 93.945 14.6792 105.925L66.6407 75.925C66.6407 63.945 66.6407 51.975 66.6407 40.005L14.6792 70.005Z" fill="#8BC5E4"/>
<path fill-rule="evenodd" clip-rule="evenodd" d="M52.5762 91.885C52.5762 103.855 52.5762 115.825 52.5762 127.805L104.538 97.805C104.538 85.825 104.538 73.855 104.538 61.885L52.5762 91.885Z" fill="#8BC5E4"/>
<path fill-rule="evenodd" clip-rule="evenodd" d="M90.4995 113.78C90.4995 125.75 90.4995 137.72 90.4995 149.7L142.461 119.7C142.461 107.72 142.461 95.75 142.461 83.78L90.4995 113.78Z" fill="#8BC5E4"/>
<path fill-rule="evenodd" clip-rule="evenodd" d="M128.397 135.66C128.397 147.63 128.397 159.6 128.397 171.58L180.358 141.58C180.358 129.6 180.358 117.63 180.358 105.66L128.397 135.66Z" fill="#8BC5E4"/>
<path fill-rule="evenodd" clip-rule="evenodd" d="M14.6792 118.395C14.6792 130.365 14.6792 142.335 14.6792 154.305L66.6407 124.305C66.6407 112.335 66.6407 100.365 66.6407 88.395L14.6792 118.395Z" fill="#8BC5E4"/>
<path fill-rule="evenodd" clip-rule="evenodd" d="M52.5762 140.275C52.5762 152.245 52.5762 164.215 52.5762 176.185L104.538 146.185C104.538 134.215 104.538 122.245 104.538 110.275L52.5762 140.275Z" fill="#8BC5E4"/>
<path fill-rule="evenodd" clip-rule="evenodd" d="M90.4995 162.17C90.4995 174.14 90.4995 186.11 90.4995 198.08L142.461 168.08C142.461 156.11 142.461 144.14 142.461 132.17L90.4995 162.17Z" fill="#8BC5E4"/>
<path fill-rule="evenodd" clip-rule="evenodd" d="M128.397 184.05C128.397 196.02 128.397 207.99 128.397 219.96L180.358 189.96C180.358 177.99 180.358 166.02 180.358 154.05L128.397 184.05Z" fill="#8BC5E4"/>
<path d="M14.6791 70.005C14.6791 81.975 14.6791 93.945 14.6791 105.925L42.6171 122.055V86.135L14.6791 70.005ZM52.5764 91.885C52.5764 103.855 52.5764 115.825 52.5764 127.805L80.5057 143.93V108.01L52.5764 91.885ZM90.4997 113.78C90.4997 125.75 90.4997 137.72 90.4997 149.7L118.429 165.825V129.905L90.4997 113.78ZM128.397 135.66C128.397 147.63 128.397 159.6 128.397 171.58L156.352 187.72V151.8L128.397 135.66ZM19.3037 77.925L37.9925 88.715V114.125L19.3037 103.335V77.925ZM57.201 99.805L75.8898 110.595V136.005L57.201 125.215V99.805ZM95.1242 121.7L113.804 132.485V157.895L95.1242 147.11V121.7ZM133.022 143.58L151.728 154.38V179.79L133.022 168.99V143.58ZM14.6791 118.395C14.6791 130.365 14.6791 142.335 14.6791 154.305L42.6171 170.435V134.525L14.6791 118.395ZM52.5764 140.275C52.5764 152.245 52.5764 164.215 52.5764 176.185L80.5057 192.31V156.4L52.5764 140.275ZM90.4997 162.17C90.4997 174.14 90.4997 186.11 90.4997 198.08L118.429 214.205V178.295L90.4997 162.17ZM128.397 184.05C128.397 196.02 128.397 207.99 128.397 219.96L156.352 236.1V200.19L128.397 184.05ZM19.3037 126.315L37.9925 137.105V162.515L19.3037 151.725V126.315ZM57.201 148.195L75.8898 158.985V184.395L57.201 173.605V148.195ZM95.1242 170.09L113.804 180.875V206.285L95.1242 195.5V170.09ZM133.022 191.97L151.728 202.77V228.18L133.022 217.38V191.97ZM0 30V230L173.205 330V130L0 30ZM4.62458 37.92L168.581 132.58V322.08L105.664 285.755V219.885L65.8266 196.885V262.755L4.62458 227.42V37.92ZM70.4512 204.805L101.039 222.465V283.085L70.4512 265.425V204.805Z" fill="#8BC5E4"/>
<path fill-rule="evenodd" clip-rule="evenodd" d="M4.62458 37.92L168.581 132.58V322.08L105.664 285.755V219.885L65.8266 196.885V262.755L4.62458 227.42V37.92ZM14.6791 105.925V70.005L42.6171 86.135V122.055L14.6791 105.925ZM52.5764 127.805V91.885L80.5057 108.01V143.93L52.5764 127.805ZM90.4997 149.7V113.78L118.429 129.905V165.825L90.4997 149.7ZM128.397 171.58V135.66L156.352 151.8V187.72L128.397 171.58ZM14.6791 154.305V118.395L42.6171 134.525V170.435L14.6791 154.305ZM52.5764 176.185V140.275L80.5057 156.4V192.31L52.5764 176.185ZM90.4997 198.08V162.17L118.429 178.295V214.205L90.4997 198.08ZM128.397 219.96V184.05L156.352 200.19V236.1L128.397 219.96Z" fill="white"/>
</svg>
