<svg width="226" height="330" viewBox="0 0 226 330" fill="none" xmlns="http://www.w3.org/2000/svg">
<path fill-rule="evenodd" clip-rule="evenodd" d="M66.6407 188.975L94.5787 172.845L42.6172 142.845L14.6792 158.975L66.6407 188.975Z" fill="#8BC5E4"/>
<path fill-rule="evenodd" clip-rule="evenodd" d="M94.5787 172.845V136.925L42.6172 106.925V142.845L94.5787 172.845Z" fill="#8BC5E4"/>
<path fill-rule="evenodd" clip-rule="evenodd" d="M94.5787 136.925L66.6407 153.055L14.6792 123.055L42.6172 106.925L94.5787 136.925Z" fill="#8BC5E4"/>
<path fill-rule="evenodd" clip-rule="evenodd" d="M66.6407 153.055L14.6792 123.055L66.6407 153.055Z" fill="#8BC5E4"/>
<path fill-rule="evenodd" clip-rule="evenodd" d="M104.538 167.095L132.467 150.97L80.5055 120.97L52.5762 137.095L104.538 167.095Z" fill="#8BC5E4"/>
<path fill-rule="evenodd" clip-rule="evenodd" d="M132.467 150.97V115.05L80.5059 85.05V120.97L132.467 150.97Z" fill="#8BC5E4"/>
<path fill-rule="evenodd" clip-rule="evenodd" d="M132.467 115.05L104.538 131.175L52.5762 101.175L80.5055 85.05L132.467 115.05Z" fill="#8BC5E4"/>
<path fill-rule="evenodd" clip-rule="evenodd" d="M104.538 131.175L52.5762 101.175L104.538 131.175Z" fill="#8BC5E4"/>
<path fill-rule="evenodd" clip-rule="evenodd" d="M142.461 145.2L170.39 129.075L118.429 99.075L90.4995 115.2L142.461 145.2Z" fill="#8BC5E4"/>
<path fill-rule="evenodd" clip-rule="evenodd" d="M170.39 129.075V93.155L118.429 63.155V99.075L170.39 129.075Z" fill="#8BC5E4"/>
<path fill-rule="evenodd" clip-rule="evenodd" d="M170.39 93.155L142.461 109.28L90.4995 79.28L118.429 63.155L170.39 93.155Z" fill="#8BC5E4"/>
<path fill-rule="evenodd" clip-rule="evenodd" d="M142.461 109.28L90.4995 79.28L142.461 109.28Z" fill="#8BC5E4"/>
<path fill-rule="evenodd" clip-rule="evenodd" d="M180.358 123.32L208.314 107.18L156.352 77.1801L128.397 93.3201L180.358 123.32Z" fill="#8BC5E4"/>
<path fill-rule="evenodd" clip-rule="evenodd" d="M208.314 107.18V71.26L156.352 41.26V77.18L208.314 107.18Z" fill="#8BC5E4"/>
<path fill-rule="evenodd" clip-rule="evenodd" d="M208.314 71.26L180.358 87.4L128.397 57.4L156.352 41.26L208.314 71.26Z" fill="#8BC5E4"/>
<path fill-rule="evenodd" clip-rule="evenodd" d="M180.358 87.4L128.397 57.4L180.358 87.4Z" fill="#8BC5E4"/>
<path fill-rule="evenodd" clip-rule="evenodd" d="M71.2652 155.635L89.9541 144.845L37.9925 114.845L19.3037 125.635L71.2652 155.635Z" fill="#8BC5E4"/>
<path fill-rule="evenodd" clip-rule="evenodd" d="M89.9542 144.845V170.255L37.9927 140.255V114.845L89.9542 144.845Z" fill="#8BC5E4"/>
<path fill-rule="evenodd" clip-rule="evenodd" d="M89.9541 170.255L71.2652 181.045L19.3037 151.045L37.9925 140.255L89.9541 170.255Z" fill="#8BC5E4"/>
<path fill-rule="evenodd" clip-rule="evenodd" d="M71.2652 181.045V155.635L19.3037 125.635V151.045L71.2652 181.045Z" fill="#8BC5E4"/>
<path fill-rule="evenodd" clip-rule="evenodd" d="M71.2652 155.635L19.3037 125.635L71.2652 155.635Z" fill="#8BC5E4"/>
<path fill-rule="evenodd" clip-rule="evenodd" d="M109.162 133.755L127.851 122.965L75.8895 92.965L57.2007 103.755L109.162 133.755Z" fill="#8BC5E4"/>
<path fill-rule="evenodd" clip-rule="evenodd" d="M127.851 122.965V148.375L75.8896 118.375V92.965L127.851 122.965Z" fill="#8BC5E4"/>
<path fill-rule="evenodd" clip-rule="evenodd" d="M127.851 148.375L109.162 159.165L57.2007 129.165L75.8895 118.375L127.851 148.375Z" fill="#8BC5E4"/>
<path fill-rule="evenodd" clip-rule="evenodd" d="M109.162 159.165V133.755L57.2007 103.755V129.165L109.162 159.165Z" fill="#8BC5E4"/>
<path fill-rule="evenodd" clip-rule="evenodd" d="M109.162 133.755L57.2007 103.755L109.162 133.755Z" fill="#8BC5E4"/>
<path fill-rule="evenodd" clip-rule="evenodd" d="M147.086 111.86L165.766 101.075L113.804 71.075L95.124 81.86L147.086 111.86Z" fill="#8BC5E4"/>
<path fill-rule="evenodd" clip-rule="evenodd" d="M165.766 101.075V126.485L113.804 96.485V71.075L165.766 101.075Z" fill="#8BC5E4"/>
<path fill-rule="evenodd" clip-rule="evenodd" d="M165.766 126.485L147.086 137.27L95.124 107.27L113.804 96.485L165.766 126.485Z" fill="#8BC5E4"/>
<path fill-rule="evenodd" clip-rule="evenodd" d="M147.086 137.27V111.86L95.124 81.86V107.27L147.086 137.27Z" fill="#8BC5E4"/>
<path fill-rule="evenodd" clip-rule="evenodd" d="M147.086 111.86L95.124 81.86L147.086 111.86Z" fill="#8BC5E4"/>
<path fill-rule="evenodd" clip-rule="evenodd" d="M184.983 89.98L203.689 79.1801L151.728 49.1801L133.021 59.98L184.983 89.98Z" fill="#8BC5E4"/>
<path fill-rule="evenodd" clip-rule="evenodd" d="M203.689 79.1801V104.59L151.728 74.5901V49.1801L203.689 79.1801Z" fill="#8BC5E4"/>
<path fill-rule="evenodd" clip-rule="evenodd" d="M203.689 104.59L184.983 115.39L133.021 85.39L151.728 74.59L203.689 104.59Z" fill="#8BC5E4"/>
<path fill-rule="evenodd" clip-rule="evenodd" d="M184.983 115.39V89.98L133.021 59.98V85.39L184.983 115.39Z" fill="#8BC5E4"/>
<path fill-rule="evenodd" clip-rule="evenodd" d="M184.983 89.98L133.021 59.98L184.983 89.98Z" fill="#8BC5E4"/>
<path fill-rule="evenodd" clip-rule="evenodd" d="M66.6407 237.355L94.5787 221.225L42.6172 191.225L14.6792 207.355L66.6407 237.355Z" fill="#8BC5E4"/>
<path fill-rule="evenodd" clip-rule="evenodd" d="M94.5787 221.225V185.315L42.6172 155.315V191.225L94.5787 221.225Z" fill="#8BC5E4"/>
<path fill-rule="evenodd" clip-rule="evenodd" d="M94.5787 185.315L66.6407 201.445L14.6792 171.445L42.6172 155.315L94.5787 185.315Z" fill="#8BC5E4"/>
<path fill-rule="evenodd" clip-rule="evenodd" d="M66.6407 201.445L14.6792 171.445L66.6407 201.445Z" fill="#8BC5E4"/>
<path fill-rule="evenodd" clip-rule="evenodd" d="M104.538 215.475L132.467 199.35L80.5055 169.35L52.5762 185.475L104.538 215.475Z" fill="#8BC5E4"/>
<path fill-rule="evenodd" clip-rule="evenodd" d="M132.467 199.35V163.44L80.5059 133.44V169.35L132.467 199.35Z" fill="#8BC5E4"/>
<path fill-rule="evenodd" clip-rule="evenodd" d="M132.467 163.44L104.538 179.565L52.5762 149.565L80.5055 133.44L132.467 163.44Z" fill="#8BC5E4"/>
<path fill-rule="evenodd" clip-rule="evenodd" d="M104.538 179.565L52.5762 149.565L104.538 179.565Z" fill="#8BC5E4"/>
<path fill-rule="evenodd" clip-rule="evenodd" d="M142.461 193.58L170.39 177.455L118.429 147.455L90.4995 163.58L142.461 193.58Z" fill="#8BC5E4"/>
<path fill-rule="evenodd" clip-rule="evenodd" d="M170.39 177.455V141.545L118.429 111.545V147.455L170.39 177.455Z" fill="#8BC5E4"/>
<path fill-rule="evenodd" clip-rule="evenodd" d="M170.39 141.545L142.461 157.67L90.4995 127.67L118.429 111.545L170.39 141.545Z" fill="#8BC5E4"/>
<path fill-rule="evenodd" clip-rule="evenodd" d="M142.461 157.67L90.4995 127.67L142.461 157.67Z" fill="#8BC5E4"/>
<path fill-rule="evenodd" clip-rule="evenodd" d="M180.358 171.7L208.314 155.56L156.352 125.56L128.397 141.7L180.358 171.7Z" fill="#8BC5E4"/>
<path fill-rule="evenodd" clip-rule="evenodd" d="M208.314 155.56V119.65L156.352 89.65V125.56L208.314 155.56Z" fill="#8BC5E4"/>
<path fill-rule="evenodd" clip-rule="evenodd" d="M208.314 119.65L180.358 135.79L128.397 105.79L156.352 89.65L208.314 119.65Z" fill="#8BC5E4"/>
<path fill-rule="evenodd" clip-rule="evenodd" d="M180.358 135.79L128.397 105.79L180.358 135.79Z" fill="#8BC5E4"/>
<path fill-rule="evenodd" clip-rule="evenodd" d="M71.2652 204.025L89.9541 193.235L37.9925 163.235L19.3037 174.025L71.2652 204.025Z" fill="#8BC5E4"/>
<path fill-rule="evenodd" clip-rule="evenodd" d="M89.9542 193.235V218.645L37.9927 188.645V163.235L89.9542 193.235Z" fill="#8BC5E4"/>
<path fill-rule="evenodd" clip-rule="evenodd" d="M89.9541 218.645L71.2652 229.435L19.3037 199.435L37.9925 188.645L89.9541 218.645Z" fill="#8BC5E4"/>
<path fill-rule="evenodd" clip-rule="evenodd" d="M71.2652 229.435V204.025L19.3037 174.025V199.435L71.2652 229.435Z" fill="#8BC5E4"/>
<path fill-rule="evenodd" clip-rule="evenodd" d="M71.2652 204.025L19.3037 174.025L71.2652 204.025Z" fill="#8BC5E4"/>
<path fill-rule="evenodd" clip-rule="evenodd" d="M109.162 182.145L127.851 171.355L75.8895 141.355L57.2007 152.145L109.162 182.145Z" fill="#8BC5E4"/>
<path fill-rule="evenodd" clip-rule="evenodd" d="M127.851 171.355V196.765L75.8896 166.765V141.355L127.851 171.355Z" fill="#8BC5E4"/>
<path fill-rule="evenodd" clip-rule="evenodd" d="M127.851 196.765L109.162 207.555L57.2007 177.555L75.8895 166.765L127.851 196.765Z" fill="#8BC5E4"/>
<path fill-rule="evenodd" clip-rule="evenodd" d="M109.162 207.555V182.145L57.2007 152.145V177.555L109.162 207.555Z" fill="#8BC5E4"/>
<path fill-rule="evenodd" clip-rule="evenodd" d="M109.162 182.145L57.2007 152.145L109.162 182.145Z" fill="#8BC5E4"/>
<path fill-rule="evenodd" clip-rule="evenodd" d="M147.086 160.25L165.766 149.465L113.804 119.465L95.124 130.25L147.086 160.25Z" fill="#8BC5E4"/>
<path fill-rule="evenodd" clip-rule="evenodd" d="M165.766 149.465V174.875L113.804 144.875V119.465L165.766 149.465Z" fill="#8BC5E4"/>
<path fill-rule="evenodd" clip-rule="evenodd" d="M165.766 174.875L147.086 185.66L95.124 155.66L113.804 144.875L165.766 174.875Z" fill="#8BC5E4"/>
<path fill-rule="evenodd" clip-rule="evenodd" d="M147.086 185.66V160.25L95.124 130.25V155.66L147.086 185.66Z" fill="#8BC5E4"/>
<path fill-rule="evenodd" clip-rule="evenodd" d="M147.086 160.25L95.124 130.25L147.086 160.25Z" fill="#8BC5E4"/>
<path fill-rule="evenodd" clip-rule="evenodd" d="M184.983 138.37L203.689 127.57L151.728 97.5699L133.021 108.37L184.983 138.37Z" fill="#8BC5E4"/>
<path fill-rule="evenodd" clip-rule="evenodd" d="M203.689 127.57V152.98L151.728 122.98V97.5699L203.689 127.57Z" fill="#8BC5E4"/>
<path fill-rule="evenodd" clip-rule="evenodd" d="M203.689 152.98L184.983 163.78L133.021 133.78L151.728 122.98L203.689 152.98Z" fill="#8BC5E4"/>
<path fill-rule="evenodd" clip-rule="evenodd" d="M184.983 163.78V138.37L133.021 108.37V133.78L184.983 163.78Z" fill="#8BC5E4"/>
<path fill-rule="evenodd" clip-rule="evenodd" d="M184.983 138.37L133.021 108.37L184.983 138.37Z" fill="#8BC5E4"/>
<path fill-rule="evenodd" clip-rule="evenodd" d="M51.9615 130V330L0 300V100L51.9615 130Z" fill="#8BC5E4"/>
<path fill-rule="evenodd" clip-rule="evenodd" d="M51.9615 330L225.167 230L173.205 200L0 300L51.9615 330Z" fill="#8BC5E4"/>
<path fill-rule="evenodd" clip-rule="evenodd" d="M225.167 230V30L173.205 0V200L225.167 230Z" fill="#8BC5E4"/>
<path fill-rule="evenodd" clip-rule="evenodd" d="M225.167 30L51.9615 130L0 100L173.205 0L225.167 30Z" fill="#8BC5E4"/>
<path fill-rule="evenodd" clip-rule="evenodd" d="M51.9615 130L0 100L51.9615 130Z" fill="#8BC5E4"/>
<path fill-rule="evenodd" clip-rule="evenodd" d="M56.586 132.58L220.542 37.92L168.58 7.92004L4.62451 102.58L56.586 132.58Z" fill="#8BC5E4"/>
<path fill-rule="evenodd" clip-rule="evenodd" d="M220.542 37.92V227.42L168.581 197.42V7.92004L220.542 37.92Z" fill="#8BC5E4"/>
<path fill-rule="evenodd" clip-rule="evenodd" d="M220.542 227.42L157.625 263.745L105.664 233.745L168.58 197.42L220.542 227.42Z" fill="#8BC5E4"/>
<path fill-rule="evenodd" clip-rule="evenodd" d="M157.625 263.745V197.875L105.664 167.875V233.745L157.625 263.745Z" fill="#8BC5E4"/>
<path fill-rule="evenodd" clip-rule="evenodd" d="M157.625 197.875L117.788 220.875L65.8267 190.875L105.664 167.875L157.625 197.875Z" fill="#8BC5E4"/>
<path fill-rule="evenodd" clip-rule="evenodd" d="M117.788 220.875V286.745L65.8267 256.745V190.875L117.788 220.875Z" fill="#8BC5E4"/>
<path fill-rule="evenodd" clip-rule="evenodd" d="M117.788 286.745L56.586 322.08L4.62451 292.08L65.8265 256.745L117.788 286.745Z" fill="#8BC5E4"/>
<path fill-rule="evenodd" clip-rule="evenodd" d="M56.586 322.08V132.58L4.62451 102.58V292.08L56.586 322.08Z" fill="#8BC5E4"/>
<path fill-rule="evenodd" clip-rule="evenodd" d="M56.586 132.58L4.62451 102.58L56.586 132.58Z" fill="#8BC5E4"/>
<path fill-rule="evenodd" clip-rule="evenodd" d="M122.413 223.455L153.001 205.795L101.039 175.795L70.4512 193.455L122.413 223.455Z" fill="#8BC5E4"/>
<path fill-rule="evenodd" clip-rule="evenodd" d="M153.001 205.795V266.415L101.039 236.415V175.795L153.001 205.795Z" fill="#8BC5E4"/>
<path fill-rule="evenodd" clip-rule="evenodd" d="M153.001 266.415L122.413 284.075L70.4512 254.075L101.039 236.415L153.001 266.415Z" fill="#8BC5E4"/>
<path fill-rule="evenodd" clip-rule="evenodd" d="M122.413 284.075V223.455L70.4512 193.455V254.075L122.413 284.075Z" fill="#8BC5E4"/>
<path fill-rule="evenodd" clip-rule="evenodd" d="M122.413 223.455L70.4512 193.455L122.413 223.455Z" fill="#8BC5E4"/>
<path fill-rule="evenodd" clip-rule="evenodd" d="M66.6407 153.055C66.6407 165.025 66.6407 176.995 66.6407 188.975L14.6792 158.975C14.6792 146.995 14.6792 135.025 14.6792 123.055L66.6407 153.055Z" fill="#8BC5E4"/>
<path fill-rule="evenodd" clip-rule="evenodd" d="M104.538 131.175C104.538 143.145 104.538 155.115 104.538 167.095L52.5762 137.095C52.5762 125.115 52.5762 113.145 52.5762 101.175L104.538 131.175Z" fill="#8BC5E4"/>
<path fill-rule="evenodd" clip-rule="evenodd" d="M142.461 109.28C142.461 121.25 142.461 133.22 142.461 145.2L90.4995 115.2C90.4995 103.22 90.4995 91.25 90.4995 79.28L142.461 109.28Z" fill="#8BC5E4"/>
<path fill-rule="evenodd" clip-rule="evenodd" d="M180.358 87.4C180.358 99.37 180.358 111.34 180.358 123.32L128.397 93.32C128.397 81.34 128.397 69.37 128.397 57.4L180.358 87.4Z" fill="#8BC5E4"/>
<path fill-rule="evenodd" clip-rule="evenodd" d="M66.6407 201.445C66.6407 213.415 66.6407 225.385 66.6407 237.355L14.6792 207.355C14.6792 195.385 14.6792 183.415 14.6792 171.445L66.6407 201.445Z" fill="#8BC5E4"/>
<path fill-rule="evenodd" clip-rule="evenodd" d="M104.538 179.565C104.538 191.535 104.538 203.505 104.538 215.475L52.5762 185.475C52.5762 173.505 52.5762 161.535 52.5762 149.565L104.538 179.565Z" fill="#8BC5E4"/>
<path fill-rule="evenodd" clip-rule="evenodd" d="M142.461 157.67C142.461 169.64 142.461 181.61 142.461 193.58L90.4995 163.58C90.4995 151.61 90.4995 139.64 90.4995 127.67L142.461 157.67Z" fill="#8BC5E4"/>
<path fill-rule="evenodd" clip-rule="evenodd" d="M180.358 135.79C180.358 147.76 180.358 159.73 180.358 171.7L128.397 141.7C128.397 129.73 128.397 117.76 128.397 105.79L180.358 135.79Z" fill="#8BC5E4"/>
<path d="M66.6406 153.055C66.6406 165.025 66.6406 176.995 66.6406 188.975L94.5785 172.845V136.925L66.6406 153.055ZM104.538 131.175C104.538 143.145 104.538 155.115 104.538 167.095L132.467 150.97V115.05L104.538 131.175ZM142.461 109.28C142.461 121.25 142.461 133.22 142.461 145.2L170.39 129.075V93.155L142.461 109.28ZM180.358 87.4C180.358 99.37 180.358 111.34 180.358 123.32L208.314 107.18V71.26L180.358 87.4ZM71.2651 155.635L89.954 144.845V170.255L71.2651 181.045V155.635ZM109.162 133.755L127.851 122.965V148.375L109.162 159.165V133.755ZM147.086 111.86L165.766 101.075V126.485L147.086 137.27V111.86ZM184.983 89.98L203.689 79.18V104.59L184.983 115.39V89.98ZM66.6406 201.445C66.6406 213.415 66.6406 225.385 66.6406 237.355L94.5785 221.225V185.315L66.6406 201.445ZM104.538 179.565C104.538 191.535 104.538 203.505 104.538 215.475L132.467 199.35V163.44L104.538 179.565ZM142.461 157.67C142.461 169.64 142.461 181.61 142.461 193.58L170.39 177.455V141.545L142.461 157.67ZM180.358 135.79C180.358 147.76 180.358 159.73 180.358 171.7L208.314 155.56V119.65L180.358 135.79ZM71.2651 204.025L89.954 193.235V218.645L71.2651 229.435V204.025ZM109.162 182.145L127.851 171.355V196.765L109.162 207.555V182.145ZM147.086 160.25L165.766 149.465V174.875L147.086 185.66V160.25ZM184.983 138.37L203.689 127.57V152.98L184.983 163.78V138.37ZM51.9614 130V330L225.167 230V30L51.9614 130ZM56.586 132.58L220.542 37.92V227.42L157.625 263.745V197.875L117.788 220.875V286.745L56.586 322.08V132.58ZM122.413 223.455L153.001 205.795V266.415L122.413 284.075V223.455Z" fill="#8BC5E4"/>
<path fill-rule="evenodd" clip-rule="evenodd" d="M56.586 132.58L220.542 37.92V227.42L157.625 263.745V197.875L117.788 220.875V286.745L56.586 322.08V132.58ZM66.6406 188.975V153.055L94.5785 136.925V172.845L66.6406 188.975ZM104.538 167.095V131.175L132.467 115.05V150.97L104.538 167.095ZM142.461 145.2V109.28L170.39 93.155V129.075L142.461 145.2ZM180.358 123.32V87.4L208.314 71.26V107.18L180.358 123.32ZM66.6406 237.355V201.445L94.5785 185.315V221.225L66.6406 237.355ZM104.538 215.475V179.565L132.467 163.44V199.35L104.538 215.475ZM142.461 193.58V157.67L170.39 141.545V177.455L142.461 193.58ZM180.358 171.7V135.79L208.314 119.65V155.56L180.358 171.7Z" fill="white"/>
</svg>
