<svg width="141" height="275" viewBox="0 0 141 275" fill="none" xmlns="http://www.w3.org/2000/svg">
<path fill-rule="evenodd" clip-rule="evenodd" d="M113.713 171.783L129.596 162.613L77.6344 132.613L61.7515 141.783L113.713 171.783Z" fill="#8BC5E4" stroke="#8BC5E4"/>
<path fill-rule="evenodd" clip-rule="evenodd" d="M131.649 163.898V182.368L79.687 152.368V133.898L131.649 163.898Z" fill="#8BC5E4" stroke="#8BC5E4"/>
<path fill-rule="evenodd" clip-rule="evenodd" d="M129.596 186.013L113.713 195.183L61.7515 165.183L77.6344 156.013L129.596 186.013Z" fill="#8BC5E4" stroke="#8BC5E4"/>
<path fill-rule="evenodd" clip-rule="evenodd" d="M111.661 193.908V175.438L59.6992 145.438V163.908L111.661 193.908Z" fill="#8BC5E4" stroke="#8BC5E4"/>
<path fill-rule="evenodd" clip-rule="evenodd" d="M113.713 171.783V171.783L61.7515 141.783V141.783L113.713 171.783Z" fill="#8BC5E4"/>
<path d="M113.713 171.783V171.783ZM113.713 171.783L61.7515 141.783M61.7515 141.783V141.783Z" stroke="#8BC5E4"/>
<path fill-rule="evenodd" clip-rule="evenodd" d="M88.3126 186.448L104.213 177.268L52.2513 147.268L36.3511 156.448L88.3126 186.448Z" fill="#8BC5E4" stroke="#8BC5E4"/>
<path fill-rule="evenodd" clip-rule="evenodd" d="M106.265 178.553V197.023L54.3037 167.023V148.553L106.265 178.553Z" fill="#8BC5E4" stroke="#8BC5E4"/>
<path fill-rule="evenodd" clip-rule="evenodd" d="M104.213 200.668L88.3297 209.838L36.3682 179.838L52.2511 170.668L104.213 200.668Z" fill="#8BC5E4" stroke="#8BC5E4"/>
<path fill-rule="evenodd" clip-rule="evenodd" d="M86.2599 208.573V190.103L34.2983 160.103V178.573L86.2599 208.573Z" fill="#8BC5E4" stroke="#8BC5E4"/>
<path fill-rule="evenodd" clip-rule="evenodd" d="M88.3299 186.438L88.3126 186.448L36.3511 156.448L36.3684 156.438L88.3299 186.438Z" fill="#8BC5E4" stroke="#8BC5E4"/>
<path fill-rule="evenodd" clip-rule="evenodd" d="M88.3126 186.448V186.448L36.3511 156.448V156.448L88.3126 186.448Z" fill="#8BC5E4"/>
<path d="M88.3126 186.448V186.448ZM88.3126 186.448L36.3511 156.448M36.3511 156.448V156.448Z" stroke="#8BC5E4"/>
<path fill-rule="evenodd" clip-rule="evenodd" d="M62.9293 201.103L78.8122 191.933L26.8507 161.933L10.9678 171.103L62.9293 201.103Z" fill="#8BC5E4" stroke="#8BC5E4"/>
<path fill-rule="evenodd" clip-rule="evenodd" d="M80.8648 193.218V211.688L28.9033 181.688V163.218L80.8648 193.218Z" fill="#8BC5E4" stroke="#8BC5E4"/>
<path fill-rule="evenodd" clip-rule="evenodd" d="M78.8122 215.333L62.9293 224.503L10.9678 194.503L26.8507 185.333L78.8122 215.333Z" fill="#8BC5E4" stroke="#8BC5E4"/>
<path fill-rule="evenodd" clip-rule="evenodd" d="M60.8771 223.228V204.758L8.91553 174.758V193.228L60.8771 223.228Z" fill="#8BC5E4" stroke="#8BC5E4"/>
<path fill-rule="evenodd" clip-rule="evenodd" d="M62.9293 201.103V201.103L10.9678 171.103V171.103L62.9293 201.103Z" fill="#8BC5E4"/>
<path d="M62.9293 201.103V201.103ZM62.9293 201.103L10.9678 171.103M10.9678 171.103V171.103Z" stroke="#8BC5E4"/>
<path fill-rule="evenodd" clip-rule="evenodd" d="M113.713 134.863L129.596 125.693L77.6344 95.693L61.7515 104.863L113.713 134.863Z" fill="#8BC5E4" stroke="#8BC5E4"/>
<path fill-rule="evenodd" clip-rule="evenodd" d="M131.649 126.968V145.428L79.687 115.428V96.968L131.649 126.968Z" fill="#8BC5E4" stroke="#8BC5E4"/>
<path fill-rule="evenodd" clip-rule="evenodd" d="M129.596 149.083L113.713 158.253L61.7515 128.253L77.6344 119.083L129.596 149.083Z" fill="#8BC5E4" stroke="#8BC5E4"/>
<path fill-rule="evenodd" clip-rule="evenodd" d="M111.661 156.968V138.508L59.6992 108.508V126.968L111.661 156.968Z" fill="#8BC5E4" stroke="#8BC5E4"/>
<path fill-rule="evenodd" clip-rule="evenodd" d="M113.713 134.863V134.863L61.7515 104.863V104.863L113.713 134.863Z" fill="#8BC5E4"/>
<path d="M113.713 134.863V134.863ZM113.713 134.863L61.7515 104.863M61.7515 104.863V104.863Z" stroke="#8BC5E4"/>
<path fill-rule="evenodd" clip-rule="evenodd" d="M88.3126 149.528L104.213 140.348L52.2513 110.348L36.3511 119.528L88.3126 149.528Z" fill="#8BC5E4" stroke="#8BC5E4"/>
<path fill-rule="evenodd" clip-rule="evenodd" d="M106.265 141.623V160.083L54.3037 130.083V111.623L106.265 141.623Z" fill="#8BC5E4" stroke="#8BC5E4"/>
<path fill-rule="evenodd" clip-rule="evenodd" d="M104.213 163.738L88.3297 172.908L36.3682 142.908L52.2511 133.738L104.213 163.738Z" fill="#8BC5E4" stroke="#8BC5E4"/>
<path fill-rule="evenodd" clip-rule="evenodd" d="M86.2599 171.633V153.173L34.2983 123.173V141.633L86.2599 171.633Z" fill="#8BC5E4" stroke="#8BC5E4"/>
<path fill-rule="evenodd" clip-rule="evenodd" d="M88.3299 149.518L88.3126 149.528L36.3511 119.528L36.3684 119.518L88.3299 149.518Z" fill="#8BC5E4" stroke="#8BC5E4"/>
<path fill-rule="evenodd" clip-rule="evenodd" d="M88.3126 149.528V149.528L36.3511 119.528V119.528L88.3126 149.528Z" fill="#8BC5E4"/>
<path d="M88.3126 149.528V149.528ZM88.3126 149.528L36.3511 119.528M36.3511 119.528V119.528Z" stroke="#8BC5E4"/>
<path fill-rule="evenodd" clip-rule="evenodd" d="M62.9293 164.183L78.8122 155.013L26.8507 125.013L10.9678 134.183L62.9293 164.183Z" fill="#8BC5E4" stroke="#8BC5E4"/>
<path fill-rule="evenodd" clip-rule="evenodd" d="M80.8648 156.288V174.748L28.9033 144.748V126.288L80.8648 156.288Z" fill="#8BC5E4" stroke="#8BC5E4"/>
<path fill-rule="evenodd" clip-rule="evenodd" d="M78.8122 178.403L62.9293 187.573L10.9678 157.573L26.8507 148.403L78.8122 178.403Z" fill="#8BC5E4" stroke="#8BC5E4"/>
<path fill-rule="evenodd" clip-rule="evenodd" d="M60.8771 186.288V167.828L8.91553 137.828V156.288L60.8771 186.288Z" fill="#8BC5E4" stroke="#8BC5E4"/>
<path fill-rule="evenodd" clip-rule="evenodd" d="M62.9293 164.183V164.183L10.9678 134.183V134.183L62.9293 164.183Z" fill="#8BC5E4"/>
<path d="M62.9293 164.183V164.183ZM62.9293 164.183L10.9678 134.183M10.9678 134.183V134.183Z" stroke="#8BC5E4"/>
<path fill-rule="evenodd" clip-rule="evenodd" d="M113.713 97.9329L129.596 88.7629L77.6344 58.7629L61.7515 67.9329L113.713 97.9329Z" fill="#8BC5E4" stroke="#8BC5E4"/>
<path fill-rule="evenodd" clip-rule="evenodd" d="M131.649 90.048V108.498L79.687 78.498V60.048L131.649 90.048Z" fill="#8BC5E4" stroke="#8BC5E4"/>
<path fill-rule="evenodd" clip-rule="evenodd" d="M129.596 112.143L113.713 121.313L61.7515 91.3129L77.6344 82.1429L129.596 112.143Z" fill="#8BC5E4" stroke="#8BC5E4"/>
<path fill-rule="evenodd" clip-rule="evenodd" d="M111.661 120.038V101.588L59.6992 71.588V90.038L111.661 120.038Z" fill="#8BC5E4" stroke="#8BC5E4"/>
<path fill-rule="evenodd" clip-rule="evenodd" d="M113.713 97.933V97.933L61.7515 67.933V67.933L113.713 97.933Z" fill="#8BC5E4"/>
<path d="M113.713 97.933V97.933ZM113.713 97.933L61.7515 67.933M61.7515 67.933V67.933Z" stroke="#8BC5E4"/>
<path fill-rule="evenodd" clip-rule="evenodd" d="M88.3126 112.598L104.213 103.418L52.2513 73.418L36.3511 82.598L88.3126 112.598Z" fill="#8BC5E4" stroke="#8BC5E4"/>
<path fill-rule="evenodd" clip-rule="evenodd" d="M106.265 104.703V123.153L54.3037 93.153V74.703L106.265 104.703Z" fill="#8BC5E4" stroke="#8BC5E4"/>
<path fill-rule="evenodd" clip-rule="evenodd" d="M104.213 126.798L88.3126 135.978L36.3511 105.978L52.2513 96.798L104.213 126.798Z" fill="#8BC5E4" stroke="#8BC5E4"/>
<path fill-rule="evenodd" clip-rule="evenodd" d="M86.2599 134.703V116.253L34.2983 86.2529V104.703L86.2599 134.703Z" fill="#8BC5E4" stroke="#8BC5E4"/>
<path fill-rule="evenodd" clip-rule="evenodd" d="M88.3126 112.598V112.598L36.3511 82.598V82.598L88.3126 112.598Z" fill="#8BC5E4"/>
<path d="M88.3126 112.598V112.598ZM88.3126 112.598L36.3511 82.598M36.3511 82.598V82.598Z" stroke="#8BC5E4"/>
<path fill-rule="evenodd" clip-rule="evenodd" d="M62.9293 127.253L78.8122 118.083L26.8507 88.083L10.9678 97.253L62.9293 127.253Z" fill="#8BC5E4" stroke="#8BC5E4"/>
<path fill-rule="evenodd" clip-rule="evenodd" d="M80.8648 119.368V137.818L28.9033 107.818V89.3679L80.8648 119.368Z" fill="#8BC5E4" stroke="#8BC5E4"/>
<path fill-rule="evenodd" clip-rule="evenodd" d="M78.8122 141.463L62.9293 150.633L10.9678 120.633L26.8507 111.463L78.8122 141.463Z" fill="#8BC5E4" stroke="#8BC5E4"/>
<path fill-rule="evenodd" clip-rule="evenodd" d="M60.8771 149.358V130.908L8.91553 100.908V119.358L60.8771 149.358Z" fill="#8BC5E4" stroke="#8BC5E4"/>
<path fill-rule="evenodd" clip-rule="evenodd" d="M62.9293 127.253V127.253L10.9678 97.2529V97.2529L62.9293 127.253Z" fill="#8BC5E4"/>
<path d="M62.9293 127.253V127.253ZM62.9293 127.253L10.9678 97.2529M10.9678 97.2529V97.2529Z" stroke="#8BC5E4"/>
<path fill-rule="evenodd" clip-rule="evenodd" d="M96.2628 228.708V228.708L44.3013 198.708V198.708L96.2628 228.708Z" fill="#8BC5E4"/>
<path d="M96.2628 228.708V228.708ZM96.2628 228.708L44.3013 198.708M44.3013 198.708V198.708Z" stroke="#8BC5E4"/>
<path fill-rule="evenodd" clip-rule="evenodd" d="M57.0748 245.303L135.45 200.053L83.4886 170.053L5.11328 215.303L57.0748 245.303Z" fill="#8BC5E4" stroke="#8BC5E4"/>
<path fill-rule="evenodd" clip-rule="evenodd" d="M135.45 200.053V74.083L83.4888 44.083V170.053L135.45 200.053Z" fill="#8BC5E4" stroke="#8BC5E4"/>
<path fill-rule="evenodd" clip-rule="evenodd" d="M135.45 74.083L57.0748 119.333L5.11328 89.333L83.4886 44.083L135.45 74.083Z" fill="#8BC5E4" stroke="#8BC5E4"/>
<path fill-rule="evenodd" clip-rule="evenodd" d="M57.0748 119.333V245.303L5.11328 215.303V89.333L57.0748 119.333Z" fill="#8BC5E4" stroke="#8BC5E4"/>
<path fill-rule="evenodd" clip-rule="evenodd" d="M57.0748 245.303V245.303L5.11328 215.303V215.303L57.0748 245.303Z" fill="#8BC5E4"/>
<path d="M57.0748 245.303V245.303ZM57.0748 245.303L5.11328 215.303M5.11328 215.303V215.303Z" stroke="#8BC5E4"/>
<path fill-rule="evenodd" clip-rule="evenodd" d="M78.44 86.4979L113.272 66.3879L61.3101 36.3879L26.4785 56.4979L78.44 86.4979Z" fill="#8BC5E4" stroke="#8BC5E4"/>
<path fill-rule="evenodd" clip-rule="evenodd" d="M113.272 66.388V61.938L61.3101 31.938V36.388L113.272 66.388Z" fill="#8BC5E4" stroke="#8BC5E4"/>
<path fill-rule="evenodd" clip-rule="evenodd" d="M113.272 61.938L78.44 82.048L26.4785 52.048L61.3101 31.938L113.272 61.938Z" fill="#8BC5E4" stroke="#8BC5E4"/>
<path fill-rule="evenodd" clip-rule="evenodd" d="M78.44 82.048V86.498L26.4785 56.498V52.048L78.44 82.048Z" fill="#8BC5E4" stroke="#8BC5E4"/>
<path fill-rule="evenodd" clip-rule="evenodd" d="M78.44 86.4979V86.4979L26.4785 56.4979V56.4979L78.44 86.4979Z" fill="#8BC5E4"/>
<path d="M78.44 86.4979V86.4979ZM78.44 86.4979L26.4785 56.4979M26.4785 56.4979V56.4979Z" stroke="#8BC5E4"/>
<path fill-rule="evenodd" clip-rule="evenodd" d="M61.2926 72.488L131.233 32.108L79.2713 2.10803L9.33105 42.488L61.2926 72.488Z" fill="#8BC5E4" stroke="#8BC5E4"/>
<path fill-rule="evenodd" clip-rule="evenodd" d="M139.564 37.278V217.318L87.6025 187.318V7.27795L139.564 37.278Z" fill="#8BC5E4" stroke="#8BC5E4"/>
<path fill-rule="evenodd" clip-rule="evenodd" d="M131.233 232.108L61.2926 272.488L9.33105 242.488L79.2713 202.108L131.233 232.108Z" fill="#8BC5E4" stroke="#8BC5E4"/>
<path fill-rule="evenodd" clip-rule="evenodd" d="M52.9615 267.318V87.278L1 57.278V237.318L52.9615 267.318Z" fill="#8BC5E4" stroke="#8BC5E4"/>
<path fill-rule="evenodd" clip-rule="evenodd" d="M61.2926 72.4879V72.4879L9.33105 42.4879V42.4879L61.2926 72.4879Z" fill="#8BC5E4"/>
<path d="M61.2926 72.4879V72.4879ZM61.2926 72.4879L9.33105 42.4879M9.33105 42.4879V42.4879Z" stroke="#8BC5E4"/>
<path fill-rule="evenodd" clip-rule="evenodd" d="M129.596 162.613C130.14 162.299 130.635 162.266 131.002 162.469L79.0407 132.469C78.6735 132.266 78.1788 132.299 77.6343 132.613L129.596 162.613Z" fill="#8BC5E4" stroke="#8BC5E4"/>
<path fill-rule="evenodd" clip-rule="evenodd" d="M131.003 162.469C131.4 162.689 131.649 163.186 131.649 163.898L79.6871 133.898C79.6871 133.186 79.4388 132.689 79.041 132.469L131.003 162.469Z" fill="#8BC5E4" stroke="#8BC5E4"/>
<path fill-rule="evenodd" clip-rule="evenodd" d="M131.648 182.368C131.648 183.728 130.73 185.358 129.596 186.013L77.6343 156.013C78.7688 155.358 79.6868 153.728 79.6868 152.368L131.648 182.368Z" fill="#8BC5E4" stroke="#8BC5E4"/>
<path fill-rule="evenodd" clip-rule="evenodd" d="M113.713 195.183C113.169 195.497 112.674 195.53 112.307 195.328L60.3452 165.328C60.7124 165.53 61.2071 165.497 61.7517 165.183L113.713 195.183Z" fill="#8BC5E4" stroke="#8BC5E4"/>
<path fill-rule="evenodd" clip-rule="evenodd" d="M112.307 195.328C111.909 195.109 111.661 194.615 111.661 193.908L59.6992 163.908C59.6992 164.615 59.9474 165.109 60.3453 165.328L112.307 195.328Z" fill="#8BC5E4" stroke="#8BC5E4"/>
<path fill-rule="evenodd" clip-rule="evenodd" d="M111.661 175.438C111.661 174.068 112.579 172.438 113.713 171.783L61.7517 141.783C60.6172 142.438 59.6992 144.068 59.6992 145.438L111.661 175.438Z" fill="#8BC5E4" stroke="#8BC5E4"/>
<path fill-rule="evenodd" clip-rule="evenodd" d="M104.213 177.268C104.758 176.954 105.252 176.921 105.619 177.125L53.6579 147.125C53.2907 146.921 52.796 146.954 52.2515 147.268L104.213 177.268Z" fill="#8BC5E4" stroke="#8BC5E4"/>
<path fill-rule="evenodd" clip-rule="evenodd" d="M105.619 177.125C106.017 177.345 106.265 177.841 106.265 178.553L54.3038 148.553C54.3038 147.841 54.0555 147.345 53.6577 147.125L105.619 177.125Z" fill="#8BC5E4" stroke="#8BC5E4"/>
<path fill-rule="evenodd" clip-rule="evenodd" d="M106.265 197.023C106.265 198.383 105.347 200.013 104.213 200.668L52.2515 170.668C53.386 170.013 54.3039 168.383 54.3039 167.023L106.265 197.023Z" fill="#8BC5E4" stroke="#8BC5E4"/>
<path fill-rule="evenodd" clip-rule="evenodd" d="M88.3301 209.838C87.7772 210.157 87.2783 210.192 86.9088 209.991L34.9473 179.991C35.3167 180.192 35.8157 180.157 36.3686 179.838L88.3301 209.838Z" fill="#8BC5E4" stroke="#8BC5E4"/>
<path fill-rule="evenodd" clip-rule="evenodd" d="M86.9083 209.991C86.5081 209.774 86.2599 209.28 86.2599 208.573L34.2983 178.573C34.2983 179.28 34.5466 179.774 34.9468 179.991L86.9083 209.991Z" fill="#8BC5E4" stroke="#8BC5E4"/>
<path fill-rule="evenodd" clip-rule="evenodd" d="M86.2599 190.103C86.2599 188.733 87.1779 187.103 88.3297 186.438L36.3681 156.438C35.2163 157.103 34.2983 158.733 34.2983 160.103L86.2599 190.103Z" fill="#8BC5E4" stroke="#8BC5E4"/>
<path fill-rule="evenodd" clip-rule="evenodd" d="M78.8121 191.933C79.3567 191.619 79.8513 191.586 80.2186 191.789L28.257 161.789C27.8898 161.586 27.3951 161.619 26.8506 161.933L78.8121 191.933Z" fill="#8BC5E4" stroke="#8BC5E4"/>
<path fill-rule="evenodd" clip-rule="evenodd" d="M80.2188 191.789C80.6167 192.009 80.8649 192.506 80.8649 193.218L28.9034 163.218C28.9034 162.506 28.6551 162.009 28.2573 161.789L80.2188 191.789Z" fill="#8BC5E4" stroke="#8BC5E4"/>
<path fill-rule="evenodd" clip-rule="evenodd" d="M80.8646 211.688C80.8646 213.048 79.9466 214.678 78.8121 215.333L26.8506 185.333C27.9851 184.678 28.9031 183.048 28.9031 181.688L80.8646 211.688Z" fill="#8BC5E4" stroke="#8BC5E4"/>
<path fill-rule="evenodd" clip-rule="evenodd" d="M62.9295 224.503C62.3849 224.817 61.8903 224.849 61.523 224.648L9.56152 194.648C9.92874 194.849 10.4234 194.817 10.968 194.503L62.9295 224.503Z" fill="#8BC5E4" stroke="#8BC5E4"/>
<path fill-rule="evenodd" clip-rule="evenodd" d="M61.5231 224.648C61.1253 224.429 60.8771 223.935 60.8771 223.228L8.91553 193.228C8.91553 193.935 9.16375 194.429 9.56156 194.648L61.5231 224.648Z" fill="#8BC5E4" stroke="#8BC5E4"/>
<path fill-rule="evenodd" clip-rule="evenodd" d="M60.8771 204.758C60.8771 203.388 61.795 201.758 62.9295 201.103L10.968 171.103C9.83351 171.758 8.91553 173.388 8.91553 174.758L60.8771 204.758Z" fill="#8BC5E4" stroke="#8BC5E4"/>
<path fill-rule="evenodd" clip-rule="evenodd" d="M129.596 125.693C130.14 125.379 130.635 125.346 131.002 125.548L79.0407 95.5484C78.6735 95.3465 78.1788 95.3786 77.6343 95.693L129.596 125.693Z" fill="#8BC5E4" stroke="#8BC5E4"/>
<path fill-rule="evenodd" clip-rule="evenodd" d="M131.003 125.548C131.4 125.767 131.649 126.261 131.649 126.968L79.6871 96.9679C79.6871 96.2607 79.4388 95.7671 79.041 95.5483L131.003 125.548Z" fill="#8BC5E4" stroke="#8BC5E4"/>
<path fill-rule="evenodd" clip-rule="evenodd" d="M131.648 145.428C131.648 146.798 130.73 148.428 129.596 149.083L77.6343 119.083C78.7688 118.428 79.6868 116.798 79.6868 115.428L131.648 145.428Z" fill="#8BC5E4" stroke="#8BC5E4"/>
<path fill-rule="evenodd" clip-rule="evenodd" d="M113.713 158.253C113.169 158.567 112.674 158.599 112.307 158.396L60.3452 128.396C60.7124 128.599 61.2071 128.567 61.7517 128.253L113.713 158.253Z" fill="#8BC5E4" stroke="#8BC5E4"/>
<path fill-rule="evenodd" clip-rule="evenodd" d="M112.307 158.396C111.909 158.176 111.661 157.68 111.661 156.968L59.6992 126.968C59.6992 127.68 59.9474 128.176 60.3453 128.396L112.307 158.396Z" fill="#8BC5E4" stroke="#8BC5E4"/>
<path fill-rule="evenodd" clip-rule="evenodd" d="M111.661 138.508C111.661 137.148 112.579 135.518 113.713 134.863L61.7517 104.863C60.6172 105.518 59.6992 107.148 59.6992 108.508L111.661 138.508Z" fill="#8BC5E4" stroke="#8BC5E4"/>
<path fill-rule="evenodd" clip-rule="evenodd" d="M104.213 140.348C104.758 140.034 105.252 140.001 105.619 140.203L53.6579 110.203C53.2907 110.001 52.796 110.034 52.2515 110.348L104.213 140.348Z" fill="#8BC5E4" stroke="#8BC5E4"/>
<path fill-rule="evenodd" clip-rule="evenodd" d="M105.619 140.203C106.017 140.422 106.265 140.916 106.265 141.623L54.3038 111.623C54.3038 110.916 54.0555 110.422 53.6577 110.203L105.619 140.203Z" fill="#8BC5E4" stroke="#8BC5E4"/>
<path fill-rule="evenodd" clip-rule="evenodd" d="M106.265 160.083C106.265 161.453 105.347 163.083 104.213 163.738L52.2515 133.738C53.386 133.083 54.3039 131.453 54.3039 130.083L106.265 160.083Z" fill="#8BC5E4" stroke="#8BC5E4"/>
<path fill-rule="evenodd" clip-rule="evenodd" d="M88.3301 172.908C87.7772 173.227 87.2783 173.262 86.9088 173.06L34.9473 143.06C35.3167 143.262 35.8157 143.227 36.3686 142.908L88.3301 172.908Z" fill="#8BC5E4" stroke="#8BC5E4"/>
<path fill-rule="evenodd" clip-rule="evenodd" d="M86.9083 173.06C86.5081 172.841 86.2599 172.345 86.2599 171.633L34.2983 141.633C34.2983 142.345 34.5466 142.841 34.9468 143.06L86.9083 173.06Z" fill="#8BC5E4" stroke="#8BC5E4"/>
<path fill-rule="evenodd" clip-rule="evenodd" d="M86.2599 153.173C86.2599 151.813 87.1779 150.183 88.3297 149.518L36.3681 119.518C35.2163 120.183 34.2983 121.813 34.2983 123.173L86.2599 153.173Z" fill="#8BC5E4" stroke="#8BC5E4"/>
<path fill-rule="evenodd" clip-rule="evenodd" d="M78.8121 155.013C79.3567 154.699 79.8513 154.666 80.2186 154.868L28.257 124.868C27.8898 124.666 27.3951 124.699 26.8506 125.013L78.8121 155.013Z" fill="#8BC5E4" stroke="#8BC5E4"/>
<path fill-rule="evenodd" clip-rule="evenodd" d="M80.2188 154.868C80.6167 155.087 80.8649 155.581 80.8649 156.288L28.9034 126.288C28.9034 125.581 28.6551 125.087 28.2573 124.868L80.2188 154.868Z" fill="#8BC5E4" stroke="#8BC5E4"/>
<path fill-rule="evenodd" clip-rule="evenodd" d="M80.8646 174.748C80.8646 176.118 79.9466 177.748 78.8121 178.403L26.8506 148.403C27.9851 147.748 28.9031 146.118 28.9031 144.748L80.8646 174.748Z" fill="#8BC5E4" stroke="#8BC5E4"/>
<path fill-rule="evenodd" clip-rule="evenodd" d="M62.9295 187.573C62.3849 187.887 61.8903 187.92 61.523 187.716L9.56152 157.716C9.92874 157.92 10.4234 157.887 10.968 157.573L62.9295 187.573Z" fill="#8BC5E4" stroke="#8BC5E4"/>
<path fill-rule="evenodd" clip-rule="evenodd" d="M61.5231 187.716C61.1253 187.496 60.8771 187 60.8771 186.288L8.91553 156.288C8.91553 157 9.16375 157.496 9.56156 157.716L61.5231 187.716Z" fill="#8BC5E4" stroke="#8BC5E4"/>
<path fill-rule="evenodd" clip-rule="evenodd" d="M60.8771 167.828C60.8771 166.468 61.795 164.838 62.9295 164.183L10.968 134.183C9.83351 134.838 8.91553 136.468 8.91553 137.828L60.8771 167.828Z" fill="#8BC5E4" stroke="#8BC5E4"/>
<path fill-rule="evenodd" clip-rule="evenodd" d="M129.596 88.763C130.14 88.4486 130.635 88.4164 131.002 88.6195L79.0407 58.6195C78.6735 58.4164 78.1788 58.4486 77.6343 58.763L129.596 88.763Z" fill="#8BC5E4" stroke="#8BC5E4"/>
<path fill-rule="evenodd" clip-rule="evenodd" d="M131.003 88.6195C131.4 88.8395 131.649 89.3356 131.649 90.048L79.6871 60.048C79.6871 59.3356 79.4388 58.8395 79.041 58.6195L131.003 88.6195Z" fill="#8BC5E4" stroke="#8BC5E4"/>
<path fill-rule="evenodd" clip-rule="evenodd" d="M131.648 108.498C131.648 109.868 130.73 111.488 129.596 112.143L77.6343 82.1429C78.7688 81.4879 79.6868 79.8679 79.6868 78.4979L131.648 108.498Z" fill="#8BC5E4" stroke="#8BC5E4"/>
<path fill-rule="evenodd" clip-rule="evenodd" d="M113.713 121.313C113.169 121.627 112.674 121.662 112.307 121.461L60.3452 91.4612C60.7124 91.6619 61.2071 91.6274 61.7517 91.313L113.713 121.313Z" fill="#8BC5E4" stroke="#8BC5E4"/>
<path fill-rule="evenodd" clip-rule="evenodd" d="M112.307 121.461C111.909 121.244 111.661 120.75 111.661 120.038L59.6992 90.038C59.6992 90.7504 59.9474 91.2437 60.3453 91.4611L112.307 121.461Z" fill="#8BC5E4" stroke="#8BC5E4"/>
<path fill-rule="evenodd" clip-rule="evenodd" d="M111.661 101.588C111.661 100.218 112.579 98.588 113.713 97.933L61.7517 67.933C60.6172 68.588 59.6992 70.218 59.6992 71.588L111.661 101.588Z" fill="#8BC5E4" stroke="#8BC5E4"/>
<path fill-rule="evenodd" clip-rule="evenodd" d="M104.213 103.418C104.758 103.104 105.252 103.071 105.619 103.275L53.6579 73.2745C53.2907 73.0715 52.796 73.1036 52.2515 73.418L104.213 103.418Z" fill="#8BC5E4" stroke="#8BC5E4"/>
<path fill-rule="evenodd" clip-rule="evenodd" d="M105.619 103.275C106.017 103.495 106.265 103.991 106.265 104.703L54.3038 74.703C54.3038 73.9906 54.0555 73.4945 53.6577 73.2745L105.619 103.275Z" fill="#8BC5E4" stroke="#8BC5E4"/>
<path fill-rule="evenodd" clip-rule="evenodd" d="M106.265 123.153C106.265 124.523 105.347 126.143 104.213 126.798L52.2515 96.798C53.386 96.143 54.3039 94.523 54.3039 93.153L106.265 123.153Z" fill="#8BC5E4" stroke="#8BC5E4"/>
<path fill-rule="evenodd" clip-rule="evenodd" d="M88.3128 135.978C87.7682 136.292 87.2736 136.327 86.9063 136.126L34.9448 106.126C35.312 106.327 35.8067 106.292 36.3513 105.978L88.3128 135.978Z" fill="#8BC5E4" stroke="#8BC5E4"/>
<path fill-rule="evenodd" clip-rule="evenodd" d="M86.9059 136.126C86.5081 135.909 86.2599 135.415 86.2599 134.703L34.2983 104.703C34.2983 105.415 34.5466 105.909 34.9444 106.126L86.9059 136.126Z" fill="#8BC5E4" stroke="#8BC5E4"/>
<path fill-rule="evenodd" clip-rule="evenodd" d="M86.2599 116.253C86.2599 114.883 87.1779 113.253 88.3123 112.598L36.3508 82.598C35.2163 83.253 34.2983 84.883 34.2983 86.253L86.2599 116.253Z" fill="#8BC5E4" stroke="#8BC5E4"/>
<path fill-rule="evenodd" clip-rule="evenodd" d="M78.8121 118.083C79.3567 117.769 79.8513 117.736 80.2186 117.939L28.257 87.9395C27.8898 87.7364 27.3951 87.7685 26.8506 88.0829L78.8121 118.083Z" fill="#8BC5E4" stroke="#8BC5E4"/>
<path fill-rule="evenodd" clip-rule="evenodd" d="M80.2188 117.939C80.6167 118.159 80.8649 118.656 80.8649 119.368L28.9034 89.3679C28.9034 88.6555 28.6551 88.1595 28.2573 87.9395L80.2188 117.939Z" fill="#8BC5E4" stroke="#8BC5E4"/>
<path fill-rule="evenodd" clip-rule="evenodd" d="M80.8646 137.818C80.8646 139.188 79.9466 140.808 78.8121 141.463L26.8506 111.463C27.9851 110.808 28.9031 109.188 28.9031 107.818L80.8646 137.818Z" fill="#8BC5E4" stroke="#8BC5E4"/>
<path fill-rule="evenodd" clip-rule="evenodd" d="M62.9295 150.633C62.3849 150.947 61.8903 150.982 61.523 150.781L9.56152 120.781C9.92874 120.982 10.4234 120.947 10.968 120.633L62.9295 150.633Z" fill="#8BC5E4" stroke="#8BC5E4"/>
<path fill-rule="evenodd" clip-rule="evenodd" d="M61.5231 150.781C61.1253 150.564 60.8771 150.07 60.8771 149.358L8.91553 119.358C8.91553 120.07 9.16375 120.564 9.56156 120.781L61.5231 150.781Z" fill="#8BC5E4" stroke="#8BC5E4"/>
<path fill-rule="evenodd" clip-rule="evenodd" d="M60.8771 130.908C60.8771 129.538 61.795 127.908 62.9295 127.253L10.968 97.2529C9.83351 97.9079 8.91553 99.5379 8.91553 100.908L60.8771 130.908Z" fill="#8BC5E4" stroke="#8BC5E4"/>
<path fill-rule="evenodd" clip-rule="evenodd" d="M96.2627 228.708C92.4176 230.928 89.2999 236.458 89.2999 241.068L37.3384 211.068C37.3384 206.458 40.4561 200.928 44.3012 198.708L96.2627 228.708Z" fill="#8BC5E4" stroke="#8BC5E4"/>
<path fill-rule="evenodd" clip-rule="evenodd" d="M89.2999 241.068C89.2999 243.281 90.0182 244.876 91.1905 245.691L39.229 215.691C38.0567 214.876 37.3384 213.281 37.3384 211.068L89.2999 241.068Z" fill="#8BC5E4" stroke="#8BC5E4"/>
<path fill-rule="evenodd" clip-rule="evenodd" d="M91.1905 245.691C92.4605 246.575 94.2633 246.542 96.2628 245.388L44.3012 215.388C42.3018 216.542 40.499 216.575 39.229 215.691L91.1905 245.691Z" fill="#8BC5E4" stroke="#8BC5E4"/>
<path fill-rule="evenodd" clip-rule="evenodd" d="M96.2628 245.388C100.108 243.168 103.226 237.638 103.226 233.028L51.2641 203.028C51.2641 207.638 48.1464 213.168 44.3013 215.388L96.2628 245.388Z" fill="#8BC5E4" stroke="#8BC5E4"/>
<path fill-rule="evenodd" clip-rule="evenodd" d="M103.226 233.028C103.226 230.815 102.507 229.22 101.335 228.405L49.3735 198.405C50.5458 199.22 51.2641 200.815 51.2641 203.028L103.226 233.028Z" fill="#8BC5E4" stroke="#8BC5E4"/>
<path fill-rule="evenodd" clip-rule="evenodd" d="M101.335 228.405C100.065 227.521 98.2623 227.554 96.2628 228.708L44.3013 198.708C46.3007 197.554 48.1035 197.521 49.3735 198.405L101.335 228.405Z" fill="#8BC5E4" stroke="#8BC5E4"/>
<path fill-rule="evenodd" clip-rule="evenodd" d="M131.233 32.108C133.449 30.8288 135.457 30.6947 136.946 31.5127L84.9846 1.5127C83.4953 0.694708 81.4871 0.828821 79.2715 2.10802L131.233 32.108Z" fill="#8BC5E4" stroke="#8BC5E4"/>
<path fill-rule="evenodd" clip-rule="evenodd" d="M136.946 31.5127C138.559 32.3989 139.564 34.4024 139.564 37.278L87.6024 7.27801C87.6024 4.40241 86.5978 2.39885 84.9844 1.5127L136.946 31.5127Z" fill="#8BC5E4" stroke="#8BC5E4"/>
<path fill-rule="evenodd" clip-rule="evenodd" d="M139.564 217.318C139.564 222.848 135.849 229.443 131.233 232.108L79.2715 202.108C83.8874 199.443 87.6027 192.848 87.6027 187.318L139.564 217.318Z" fill="#8BC5E4" stroke="#8BC5E4"/>
<path fill-rule="evenodd" clip-rule="evenodd" d="M61.2928 272.488C59.0772 273.767 57.069 273.901 55.5797 273.083L3.61816 243.083C5.10751 243.901 7.11563 243.767 9.33127 242.488L61.2928 272.488Z" fill="#8BC5E4" stroke="#8BC5E4"/>
<path fill-rule="evenodd" clip-rule="evenodd" d="M55.5796 273.083C53.9661 272.197 52.9615 270.194 52.9615 267.318L1 237.318C1 240.194 2.0046 242.197 3.61806 243.083L55.5796 273.083Z" fill="#8BC5E4" stroke="#8BC5E4"/>
<path fill-rule="evenodd" clip-rule="evenodd" d="M52.9615 87.2779C52.9615 81.7479 56.6768 75.1529 61.2927 72.4879L9.33116 42.4879C4.71525 45.1529 1 51.7479 1 57.2779L52.9615 87.2779Z" fill="#8BC5E4" stroke="#8BC5E4"/>
<path fill-rule="evenodd" clip-rule="evenodd" d="M61.2926 72.488L131.233 32.108C135.849 29.443 139.564 31.748 139.564 37.278V217.318C139.564 222.848 135.849 229.443 131.233 232.108L61.2926 272.488C56.6767 275.153 52.9614 272.848 52.9614 267.318V87.278C52.9614 81.748 56.6767 75.153 61.2926 72.488ZM89.2999 241.068C89.2999 236.458 92.4175 230.928 96.2627 228.708C100.108 226.488 103.226 228.418 103.226 233.028C103.226 237.638 100.108 243.168 96.2627 245.388C92.4175 247.608 89.2999 245.678 89.2999 241.068ZM135.45 200.053L57.075 245.303V119.333L135.45 74.083V200.053ZM113.271 66.388L78.4399 86.498V82.048L113.271 61.938V66.388Z" fill="white"/>
<path fill-rule="evenodd" clip-rule="evenodd" d="M57.075 245.303L135.45 200.053V74.083L57.075 119.333V245.303ZM129.596 162.613L113.713 171.783C112.579 172.438 111.661 174.068 111.661 175.438V193.908C111.661 195.268 112.579 195.838 113.713 195.183L129.596 186.013C130.731 185.358 131.648 183.728 131.648 182.368V163.898C131.648 162.528 130.731 161.958 129.596 162.613ZM104.213 177.268L88.3299 186.438C87.1781 187.103 86.2601 188.733 86.2601 190.103V208.573C86.2601 209.933 87.1781 210.503 88.3299 209.838L104.213 200.668C105.347 200.013 106.265 198.383 106.265 197.023V178.553C106.265 177.183 105.347 176.613 104.213 177.268ZM78.8123 191.933L62.9294 201.103C61.7949 201.758 60.8769 203.388 60.8769 204.758V223.228C60.8769 224.588 61.7949 225.158 62.9294 224.503L78.8123 215.333C79.9468 214.678 80.8648 213.048 80.8648 211.688V193.218C80.8648 191.848 79.9468 191.278 78.8123 191.933ZM129.596 125.693L113.713 134.863C112.579 135.518 111.661 137.148 111.661 138.508V156.968C111.661 158.338 112.579 158.908 113.713 158.253L129.596 149.083C130.731 148.428 131.648 146.798 131.648 145.428V126.968C131.648 125.608 130.731 125.038 129.596 125.693ZM104.213 140.348L88.3299 149.518C87.1781 150.183 86.2601 151.813 86.2601 153.173V171.633C86.2601 173.003 87.1781 173.573 88.3299 172.908L104.213 163.738C105.347 163.083 106.265 161.453 106.265 160.083V141.623C106.265 140.263 105.347 139.693 104.213 140.348ZM78.8123 155.013L62.9294 164.183C61.7949 164.838 60.8769 166.468 60.8769 167.828V186.288C60.8769 187.658 61.7949 188.228 62.9294 187.573L78.8123 178.403C79.9468 177.748 80.8648 176.118 80.8648 174.748V156.288C80.8648 154.928 79.9468 154.358 78.8123 155.013ZM129.596 88.763L113.713 97.933C112.579 98.588 111.661 100.218 111.661 101.588V120.038C111.661 121.408 112.579 121.968 113.713 121.313L129.596 112.143C130.731 111.488 131.648 109.868 131.648 108.498V90.048C131.648 88.678 130.731 88.108 129.596 88.763ZM104.213 103.418L88.3126 112.598C87.1781 113.253 86.2601 114.883 86.2601 116.253V134.703C86.2601 136.073 87.1781 136.633 88.3126 135.978L104.213 126.798C105.347 126.143 106.265 124.523 106.265 123.153V104.703C106.265 103.333 105.347 102.763 104.213 103.418ZM78.8123 118.083L62.9294 127.253C61.7949 127.908 60.8769 129.538 60.8769 130.908V149.358C60.8769 150.728 61.7949 151.288 62.9294 150.633L78.8123 141.463C79.9468 140.808 80.8648 139.188 80.8648 137.818V119.368C80.8648 117.998 79.9468 117.428 78.8123 118.083Z" fill="#8BC5E4"/>
<path d="M113.713 97.933L129.596 88.763C130.731 88.108 131.648 88.678 131.648 90.048V108.498C131.648 109.868 130.731 111.488 129.596 112.143L113.713 121.313C112.579 121.968 111.661 121.408 111.661 120.038V101.588C111.661 100.218 112.579 98.588 113.713 97.933Z" fill="white"/>
<path d="M88.3126 112.598L104.213 103.418C105.347 102.763 106.265 103.333 106.265 104.703V123.153C106.265 124.523 105.347 126.143 104.213 126.798L88.3126 135.978C87.1781 136.633 86.2601 136.073 86.2601 134.703V116.253C86.2601 114.883 87.1781 113.253 88.3126 112.598Z" fill="white"/>
<path d="M62.9294 201.103L78.8123 191.933C79.9468 191.278 80.8648 191.848 80.8648 193.218V211.688C80.8648 213.048 79.9468 214.678 78.8123 215.333L62.9294 224.503C61.7949 225.158 60.8769 224.588 60.8769 223.228V204.758C60.8769 203.388 61.7949 201.758 62.9294 201.103Z" fill="white"/>
<path d="M88.3299 186.438L104.213 177.268C105.347 176.613 106.265 177.183 106.265 178.553V197.023C106.265 198.383 105.347 200.013 104.213 200.668L88.3299 209.838C87.1781 210.503 86.2601 209.933 86.2601 208.573V190.103C86.2601 188.733 87.1781 187.103 88.3299 186.438Z" fill="white"/>
<path d="M113.713 171.783L129.596 162.613C130.731 161.958 131.648 162.528 131.648 163.898V182.368C131.648 183.728 130.731 185.358 129.596 186.013L113.713 195.183C112.579 195.838 111.661 195.268 111.661 193.908V175.438C111.661 174.068 112.579 172.438 113.713 171.783Z" fill="white"/>
<path d="M113.713 134.863L129.596 125.693C130.731 125.038 131.648 125.608 131.648 126.968V145.428C131.648 146.798 130.731 148.428 129.596 149.083L113.713 158.253C112.579 158.908 111.661 158.338 111.661 156.968V138.508C111.661 137.148 112.579 135.518 113.713 134.863Z" fill="white"/>
<path d="M88.3299 149.518L104.213 140.348C105.347 139.693 106.265 140.263 106.265 141.623V160.083C106.265 161.453 105.347 163.083 104.213 163.738L88.3299 172.908C87.1781 173.573 86.2601 173.003 86.2601 171.633V153.173C86.2601 151.813 87.1781 150.183 88.3299 149.518Z" fill="white"/>
<path d="M62.9294 164.183L78.8123 155.013C79.9468 154.358 80.8648 154.928 80.8648 156.288V174.748C80.8648 176.118 79.9468 177.748 78.8123 178.403L62.9294 187.573C61.7949 188.228 60.8769 187.658 60.8769 186.288V167.828C60.8769 166.468 61.7949 164.838 62.9294 164.183Z" fill="white"/>
<path d="M62.9294 127.253L78.8123 118.083C79.9468 117.428 80.8648 117.998 80.8648 119.368V137.818C80.8648 139.188 79.9468 140.808 78.8123 141.463L62.9294 150.633C61.7949 151.288 60.8769 150.728 60.8769 149.358V130.908C60.8769 129.538 61.7949 127.908 62.9294 127.253Z" fill="white"/>
<path d="M104.213 177.268L88.3126 186.448L88.3299 186.438M104.213 177.268C105.347 176.613 106.265 177.183 106.265 178.553V197.023C106.265 198.383 105.347 200.013 104.213 200.668L88.3299 209.838C87.1781 210.503 86.2601 209.933 86.2601 208.573V190.103C86.2601 188.733 87.1781 187.103 88.3299 186.438M104.213 177.268L88.3299 186.438M104.213 140.348L88.3126 149.528L88.3299 149.518M104.213 140.348C105.347 139.693 106.265 140.263 106.265 141.623V160.083C106.265 161.453 105.347 163.083 104.213 163.738L88.3299 172.908C87.1781 173.573 86.2601 173.003 86.2601 171.633V153.173C86.2601 151.813 87.1781 150.183 88.3299 149.518M104.213 140.348L88.3299 149.518M113.713 171.783L129.596 162.613C130.731 161.958 131.648 162.528 131.648 163.898V182.368C131.648 183.728 130.731 185.358 129.596 186.013L113.713 195.183C112.579 195.838 111.661 195.268 111.661 193.908V175.438C111.661 174.068 112.579 172.438 113.713 171.783ZM62.9294 201.103L78.8123 191.933C79.9468 191.278 80.8648 191.848 80.8648 193.218V211.688C80.8648 213.048 79.9468 214.678 78.8123 215.333L62.9294 224.503C61.7949 225.158 60.8769 224.588 60.8769 223.228V204.758C60.8769 203.388 61.7949 201.758 62.9294 201.103ZM113.713 134.863L129.596 125.693C130.731 125.038 131.648 125.608 131.648 126.968V145.428C131.648 146.798 130.731 148.428 129.596 149.083L113.713 158.253C112.579 158.908 111.661 158.338 111.661 156.968V138.508C111.661 137.148 112.579 135.518 113.713 134.863ZM62.9294 164.183L78.8123 155.013C79.9468 154.358 80.8648 154.928 80.8648 156.288V174.748C80.8648 176.118 79.9468 177.748 78.8123 178.403L62.9294 187.573C61.7949 188.228 60.8769 187.658 60.8769 186.288V167.828C60.8769 166.468 61.7949 164.838 62.9294 164.183ZM113.713 97.933L129.596 88.763C130.731 88.108 131.648 88.678 131.648 90.048V108.498C131.648 109.868 130.731 111.488 129.596 112.143L113.713 121.313C112.579 121.968 111.661 121.408 111.661 120.038V101.588C111.661 100.218 112.579 98.588 113.713 97.933ZM88.3126 112.598L104.213 103.418C105.347 102.763 106.265 103.333 106.265 104.703V123.153C106.265 124.523 105.347 126.143 104.213 126.798L88.3126 135.978C87.1781 136.633 86.2601 136.073 86.2601 134.703V116.253C86.2601 114.883 87.1781 113.253 88.3126 112.598ZM62.9294 127.253L78.8123 118.083C79.9468 117.428 80.8648 117.998 80.8648 119.368V137.818C80.8648 139.188 79.9468 140.808 78.8123 141.463L62.9294 150.633C61.7949 151.288 60.8769 150.728 60.8769 149.358V130.908C60.8769 129.538 61.7949 127.908 62.9294 127.253ZM96.2627 228.708C92.4175 230.928 89.2999 236.458 89.2999 241.068C89.2999 245.678 92.4175 247.608 96.2627 245.388C100.108 243.168 103.226 237.638 103.226 233.028C103.226 228.418 100.108 226.488 96.2627 228.708ZM57.075 245.303L135.45 200.053V74.083L57.075 119.333V245.303ZM78.4399 86.498L113.271 66.388V61.938L78.4399 82.048V86.498ZM61.2926 72.488L131.233 32.108C135.849 29.443 139.564 31.748 139.564 37.278V217.318C139.564 222.848 135.849 229.443 131.233 232.108L61.2926 272.488C56.6767 275.153 52.9614 272.848 52.9614 267.318V87.278C52.9614 81.748 56.6767 75.153 61.2926 72.488Z" stroke="#8BC5E4"/>
</svg>
