<svg width="399" height="445" viewBox="0 0 399 445" fill="none" xmlns="http://www.w3.org/2000/svg">
<path fill-rule="evenodd" clip-rule="evenodd" d="M125.4 52.715V55.145L177.362 25.145V22.715L125.4 52.715Z" fill="#8BC5E4"/>
<path fill-rule="evenodd" clip-rule="evenodd" d="M125.4 55.145V88.375L177.362 58.375V25.145L125.4 55.145Z" fill="#8BC5E4"/>
<path fill-rule="evenodd" clip-rule="evenodd" d="M125.4 88.375L153.624 104.67L205.586 74.67L177.362 58.375L125.4 88.375Z" fill="#8BC5E4"/>
<path fill-rule="evenodd" clip-rule="evenodd" d="M153.624 104.67V69.01L205.586 39.01V74.67L153.624 104.67Z" fill="#8BC5E4"/>
<path fill-rule="evenodd" clip-rule="evenodd" d="M153.624 69.01L125.4 52.715L177.362 22.715L205.586 39.01L153.624 69.01Z" fill="#8BC5E4"/>
<path fill-rule="evenodd" clip-rule="evenodd" d="M125.4 52.715L177.362 22.715L125.4 52.715Z" fill="#8BC5E4"/>
<path fill-rule="evenodd" clip-rule="evenodd" d="M159.089 72.165V74.595L211.05 44.595V42.165L159.089 72.165Z" fill="#8BC5E4"/>
<path fill-rule="evenodd" clip-rule="evenodd" d="M159.089 74.595V107.825L211.05 77.825V44.595L159.089 74.595Z" fill="#8BC5E4"/>
<path fill-rule="evenodd" clip-rule="evenodd" d="M159.089 107.825L187.321 124.125L239.283 94.125L211.05 77.825L159.089 107.825Z" fill="#8BC5E4"/>
<path fill-rule="evenodd" clip-rule="evenodd" d="M187.321 124.125V88.465L239.283 58.465V94.125L187.321 124.125Z" fill="#8BC5E4"/>
<path fill-rule="evenodd" clip-rule="evenodd" d="M187.321 88.465L159.089 72.165L211.05 42.165L239.283 58.465L187.321 88.465Z" fill="#8BC5E4"/>
<path fill-rule="evenodd" clip-rule="evenodd" d="M159.089 72.165L211.05 42.165L159.089 72.165Z" fill="#8BC5E4"/>
<path fill-rule="evenodd" clip-rule="evenodd" d="M192.786 91.62V94.05L244.748 64.05V61.62L192.786 91.62Z" fill="#8BC5E4"/>
<path fill-rule="evenodd" clip-rule="evenodd" d="M192.786 94.0499V127.28L244.748 97.2799V64.0499L192.786 94.0499Z" fill="#8BC5E4"/>
<path fill-rule="evenodd" clip-rule="evenodd" d="M192.786 127.28L221.01 143.575L272.971 113.575L244.748 97.28L192.786 127.28Z" fill="#8BC5E4"/>
<path fill-rule="evenodd" clip-rule="evenodd" d="M221.01 143.575V107.915L272.971 77.915V113.575L221.01 143.575Z" fill="#8BC5E4"/>
<path fill-rule="evenodd" clip-rule="evenodd" d="M221.01 107.915L192.786 91.62L244.748 61.62L272.971 77.915L221.01 107.915Z" fill="#8BC5E4"/>
<path fill-rule="evenodd" clip-rule="evenodd" d="M192.786 91.62L244.748 61.62L192.786 91.62Z" fill="#8BC5E4"/>
<path fill-rule="evenodd" clip-rule="evenodd" d="M129.54 59.975L149.476 71.485L201.437 41.485L181.502 29.975L129.54 59.975Z" fill="#8BC5E4"/>
<path fill-rule="evenodd" clip-rule="evenodd" d="M149.476 71.485V97.405L201.438 67.405V41.485L149.476 71.485Z" fill="#8BC5E4"/>
<path fill-rule="evenodd" clip-rule="evenodd" d="M149.476 97.405L129.54 85.895L181.502 55.895L201.437 67.405L149.476 97.405Z" fill="#8BC5E4"/>
<path fill-rule="evenodd" clip-rule="evenodd" d="M129.54 85.895V59.975L181.502 29.975V55.895L129.54 85.895Z" fill="#8BC5E4"/>
<path fill-rule="evenodd" clip-rule="evenodd" d="M129.54 59.975L181.502 29.975L129.54 59.975Z" fill="#8BC5E4"/>
<path fill-rule="evenodd" clip-rule="evenodd" d="M163.237 79.4301L183.173 90.94L235.135 60.94L215.199 49.4301L163.237 79.4301Z" fill="#8BC5E4"/>
<path fill-rule="evenodd" clip-rule="evenodd" d="M183.173 90.9399V116.86L235.134 86.8599V60.9399L183.173 90.9399Z" fill="#8BC5E4"/>
<path fill-rule="evenodd" clip-rule="evenodd" d="M183.173 116.86L163.237 105.35L215.199 75.35L235.135 86.86L183.173 116.86Z" fill="#8BC5E4"/>
<path fill-rule="evenodd" clip-rule="evenodd" d="M163.237 105.35V79.4301L215.199 49.4301V75.3501L163.237 105.35Z" fill="#8BC5E4"/>
<path fill-rule="evenodd" clip-rule="evenodd" d="M163.237 79.4301L215.199 49.4301L163.237 79.4301Z" fill="#8BC5E4"/>
<path fill-rule="evenodd" clip-rule="evenodd" d="M196.934 98.885L216.87 110.395L268.832 80.395L248.896 68.885L196.934 98.885Z" fill="#8BC5E4"/>
<path fill-rule="evenodd" clip-rule="evenodd" d="M216.87 110.395V136.315L268.832 106.315V80.395L216.87 110.395Z" fill="#8BC5E4"/>
<path fill-rule="evenodd" clip-rule="evenodd" d="M216.87 136.315L196.934 124.805L248.896 94.8049L268.832 106.315L216.87 136.315Z" fill="#8BC5E4"/>
<path fill-rule="evenodd" clip-rule="evenodd" d="M196.934 124.805V98.885L248.896 68.885V94.805L196.934 124.805Z" fill="#8BC5E4"/>
<path fill-rule="evenodd" clip-rule="evenodd" d="M196.934 98.885L248.896 68.885L196.934 98.885Z" fill="#8BC5E4"/>
<path fill-rule="evenodd" clip-rule="evenodd" d="M125.4 98.325V100.765L177.362 70.765V68.325L125.4 98.325Z" fill="#8BC5E4"/>
<path fill-rule="evenodd" clip-rule="evenodd" d="M125.4 100.765V133.985L177.362 103.985V70.765L125.4 100.765Z" fill="#8BC5E4"/>
<path fill-rule="evenodd" clip-rule="evenodd" d="M125.4 133.985L153.624 150.28L205.586 120.28L177.362 103.985L125.4 133.985Z" fill="#8BC5E4"/>
<path fill-rule="evenodd" clip-rule="evenodd" d="M153.624 150.28V114.62L205.586 84.62V120.28L153.624 150.28Z" fill="#8BC5E4"/>
<path fill-rule="evenodd" clip-rule="evenodd" d="M153.624 114.62L125.4 98.325L177.362 68.325L205.586 84.6199L153.624 114.62Z" fill="#8BC5E4"/>
<path fill-rule="evenodd" clip-rule="evenodd" d="M125.4 98.325L177.362 68.325L125.4 98.325Z" fill="#8BC5E4"/>
<path fill-rule="evenodd" clip-rule="evenodd" d="M159.089 117.775V120.215L211.05 90.215V87.775L159.089 117.775Z" fill="#8BC5E4"/>
<path fill-rule="evenodd" clip-rule="evenodd" d="M159.089 120.215V153.435L211.05 123.435V90.215L159.089 120.215Z" fill="#8BC5E4"/>
<path fill-rule="evenodd" clip-rule="evenodd" d="M159.089 153.435L187.321 169.735L239.283 139.735L211.05 123.435L159.089 153.435Z" fill="#8BC5E4"/>
<path fill-rule="evenodd" clip-rule="evenodd" d="M187.321 169.735V134.075L239.283 104.075V139.735L187.321 169.735Z" fill="#8BC5E4"/>
<path fill-rule="evenodd" clip-rule="evenodd" d="M187.321 134.075L159.089 117.775L211.05 87.775L239.283 104.075L187.321 134.075Z" fill="#8BC5E4"/>
<path fill-rule="evenodd" clip-rule="evenodd" d="M159.089 117.775L211.05 87.775L159.089 117.775Z" fill="#8BC5E4"/>
<path fill-rule="evenodd" clip-rule="evenodd" d="M192.786 137.23V139.67L244.748 109.67V107.23L192.786 137.23Z" fill="#8BC5E4"/>
<path fill-rule="evenodd" clip-rule="evenodd" d="M192.786 139.67V172.89L244.748 142.89V109.67L192.786 139.67Z" fill="#8BC5E4"/>
<path fill-rule="evenodd" clip-rule="evenodd" d="M192.786 172.89L221.01 189.185L272.971 159.185L244.748 142.89L192.786 172.89Z" fill="#8BC5E4"/>
<path fill-rule="evenodd" clip-rule="evenodd" d="M221.01 189.185V153.525L272.971 123.525V159.185L221.01 189.185Z" fill="#8BC5E4"/>
<path fill-rule="evenodd" clip-rule="evenodd" d="M221.01 153.525L192.786 137.23L244.748 107.23L272.971 123.525L221.01 153.525Z" fill="#8BC5E4"/>
<path fill-rule="evenodd" clip-rule="evenodd" d="M192.786 137.23L244.748 107.23L192.786 137.23Z" fill="#8BC5E4"/>
<path fill-rule="evenodd" clip-rule="evenodd" d="M129.54 105.585L149.476 117.095L201.437 87.095L181.502 75.585L129.54 105.585Z" fill="#8BC5E4"/>
<path fill-rule="evenodd" clip-rule="evenodd" d="M149.476 117.095V143.025L201.438 113.025V87.095L149.476 117.095Z" fill="#8BC5E4"/>
<path fill-rule="evenodd" clip-rule="evenodd" d="M149.476 143.025L129.54 131.515L181.502 101.515L201.437 113.025L149.476 143.025Z" fill="#8BC5E4"/>
<path fill-rule="evenodd" clip-rule="evenodd" d="M129.54 131.515V105.585L181.502 75.585V101.515L129.54 131.515Z" fill="#8BC5E4"/>
<path fill-rule="evenodd" clip-rule="evenodd" d="M129.54 105.585L181.502 75.585L129.54 105.585Z" fill="#8BC5E4"/>
<path fill-rule="evenodd" clip-rule="evenodd" d="M163.237 125.04L183.173 136.55L235.135 106.55L215.199 95.0399L163.237 125.04Z" fill="#8BC5E4"/>
<path fill-rule="evenodd" clip-rule="evenodd" d="M183.173 136.55V162.48L235.134 132.48V106.55L183.173 136.55Z" fill="#8BC5E4"/>
<path fill-rule="evenodd" clip-rule="evenodd" d="M183.173 162.48L163.237 150.97L215.199 120.97L235.135 132.48L183.173 162.48Z" fill="#8BC5E4"/>
<path fill-rule="evenodd" clip-rule="evenodd" d="M163.237 150.97V125.04L215.199 95.0399V120.97L163.237 150.97Z" fill="#8BC5E4"/>
<path fill-rule="evenodd" clip-rule="evenodd" d="M163.237 125.04L215.199 95.0399L163.237 125.04Z" fill="#8BC5E4"/>
<path fill-rule="evenodd" clip-rule="evenodd" d="M196.934 144.495L216.87 156.005L268.832 126.005L248.896 114.495L196.934 144.495Z" fill="#8BC5E4"/>
<path fill-rule="evenodd" clip-rule="evenodd" d="M216.87 156.005V181.935L268.832 151.935V126.005L216.87 156.005Z" fill="#8BC5E4"/>
<path fill-rule="evenodd" clip-rule="evenodd" d="M216.87 181.935L196.934 170.425L248.896 140.425L268.832 151.935L216.87 181.935Z" fill="#8BC5E4"/>
<path fill-rule="evenodd" clip-rule="evenodd" d="M196.934 170.425V144.495L248.896 114.495V140.425L196.934 170.425Z" fill="#8BC5E4"/>
<path fill-rule="evenodd" clip-rule="evenodd" d="M196.934 144.495L248.896 114.495L196.934 144.495Z" fill="#8BC5E4"/>
<path fill-rule="evenodd" clip-rule="evenodd" d="M10.8774 77.8049V80.2349L62.839 50.2349V47.8049L10.8774 77.8049Z" fill="#8BC5E4"/>
<path fill-rule="evenodd" clip-rule="evenodd" d="M10.8774 80.235V113.435L62.839 83.435V50.235L10.8774 80.235Z" fill="#8BC5E4"/>
<path fill-rule="evenodd" clip-rule="evenodd" d="M10.8774 113.435L39.1272 129.745L91.0887 99.7449L62.839 83.4349L10.8774 113.435Z" fill="#8BC5E4"/>
<path fill-rule="evenodd" clip-rule="evenodd" d="M39.127 129.745V94.115L91.0885 64.115V99.745L39.127 129.745Z" fill="#8BC5E4"/>
<path fill-rule="evenodd" clip-rule="evenodd" d="M39.1272 94.1149L10.8774 77.8049L62.839 47.8049L91.0887 64.1149L39.1272 94.1149Z" fill="#8BC5E4"/>
<path fill-rule="evenodd" clip-rule="evenodd" d="M10.8774 77.8049L62.839 47.8049L10.8774 77.8049Z" fill="#8BC5E4"/>
<path fill-rule="evenodd" clip-rule="evenodd" d="M44.5742 97.26V99.69L96.5357 69.69V67.26L44.5742 97.26Z" fill="#8BC5E4"/>
<path fill-rule="evenodd" clip-rule="evenodd" d="M44.5742 99.6899V132.89L96.5357 102.89V69.6899L44.5742 99.6899Z" fill="#8BC5E4"/>
<path fill-rule="evenodd" clip-rule="evenodd" d="M44.5742 132.89L72.824 149.2L124.785 119.2L96.5357 102.89L44.5742 132.89Z" fill="#8BC5E4"/>
<path fill-rule="evenodd" clip-rule="evenodd" d="M72.8242 149.2V113.57L124.786 83.5699V119.2L72.8242 149.2Z" fill="#8BC5E4"/>
<path fill-rule="evenodd" clip-rule="evenodd" d="M72.824 113.57L44.5742 97.26L96.5357 67.26L124.785 83.57L72.824 113.57Z" fill="#8BC5E4"/>
<path fill-rule="evenodd" clip-rule="evenodd" d="M44.5742 97.26L96.5357 67.26L44.5742 97.26Z" fill="#8BC5E4"/>
<path fill-rule="evenodd" clip-rule="evenodd" d="M78.2715 116.715V119.145L130.233 89.145V86.715L78.2715 116.715Z" fill="#8BC5E4"/>
<path fill-rule="evenodd" clip-rule="evenodd" d="M78.2715 119.145V152.345L130.233 122.345V89.145L78.2715 119.145Z" fill="#8BC5E4"/>
<path fill-rule="evenodd" clip-rule="evenodd" d="M78.2715 152.345L106.521 168.655L158.483 138.655L130.233 122.345L78.2715 152.345Z" fill="#8BC5E4"/>
<path fill-rule="evenodd" clip-rule="evenodd" d="M106.521 168.655V133.025L158.483 103.025V138.655L106.521 168.655Z" fill="#8BC5E4"/>
<path fill-rule="evenodd" clip-rule="evenodd" d="M106.521 133.025L78.2715 116.715L130.233 86.715L158.483 103.025L106.521 133.025Z" fill="#8BC5E4"/>
<path fill-rule="evenodd" clip-rule="evenodd" d="M78.2715 116.715L130.233 86.715L78.2715 116.715Z" fill="#8BC5E4"/>
<path fill-rule="evenodd" clip-rule="evenodd" d="M239.915 210.04V212.47L291.877 182.47V180.04L239.915 210.04Z" fill="#8BC5E4"/>
<path fill-rule="evenodd" clip-rule="evenodd" d="M239.915 212.47V245.67L291.877 215.67V182.47L239.915 212.47Z" fill="#8BC5E4"/>
<path fill-rule="evenodd" clip-rule="evenodd" d="M239.915 245.67L268.139 261.965L320.1 231.965L291.877 215.67L239.915 245.67Z" fill="#8BC5E4"/>
<path fill-rule="evenodd" clip-rule="evenodd" d="M268.139 261.965V226.335L320.1 196.335V231.965L268.139 261.965Z" fill="#8BC5E4"/>
<path fill-rule="evenodd" clip-rule="evenodd" d="M268.139 226.335L239.915 210.04L291.877 180.04L320.1 196.335L268.139 226.335Z" fill="#8BC5E4"/>
<path fill-rule="evenodd" clip-rule="evenodd" d="M239.915 210.04L291.877 180.04L239.915 210.04Z" fill="#8BC5E4"/>
<path fill-rule="evenodd" clip-rule="evenodd" d="M273.612 229.495V231.925L325.574 201.925V199.495L273.612 229.495Z" fill="#8BC5E4"/>
<path fill-rule="evenodd" clip-rule="evenodd" d="M273.612 231.925V265.125L325.574 235.125V201.925L273.612 231.925Z" fill="#8BC5E4"/>
<path fill-rule="evenodd" clip-rule="evenodd" d="M273.612 265.125L301.836 281.42L353.798 251.42L325.574 235.125L273.612 265.125Z" fill="#8BC5E4"/>
<path fill-rule="evenodd" clip-rule="evenodd" d="M301.836 281.42V245.79L353.797 215.79V251.42L301.836 281.42Z" fill="#8BC5E4"/>
<path fill-rule="evenodd" clip-rule="evenodd" d="M301.836 245.79L273.612 229.495L325.574 199.495L353.798 215.79L301.836 245.79Z" fill="#8BC5E4"/>
<path fill-rule="evenodd" clip-rule="evenodd" d="M273.612 229.495L325.574 199.495L273.612 229.495Z" fill="#8BC5E4"/>
<path fill-rule="evenodd" clip-rule="evenodd" d="M307.309 248.95V251.38L359.271 221.38V218.95L307.309 248.95Z" fill="#8BC5E4"/>
<path fill-rule="evenodd" clip-rule="evenodd" d="M307.309 251.38V284.58L359.271 254.58V221.38L307.309 251.38Z" fill="#8BC5E4"/>
<path fill-rule="evenodd" clip-rule="evenodd" d="M307.309 284.58L335.533 300.875L387.494 270.875L359.271 254.58L307.309 284.58Z" fill="#8BC5E4"/>
<path fill-rule="evenodd" clip-rule="evenodd" d="M335.533 300.875V265.245L387.494 235.245V270.875L335.533 300.875Z" fill="#8BC5E4"/>
<path fill-rule="evenodd" clip-rule="evenodd" d="M335.533 265.245L307.309 248.95L359.271 218.95L387.494 235.245L335.533 265.245Z" fill="#8BC5E4"/>
<path fill-rule="evenodd" clip-rule="evenodd" d="M307.309 248.95L359.271 218.95L307.309 248.95Z" fill="#8BC5E4"/>
<path fill-rule="evenodd" clip-rule="evenodd" d="M125.4 143.945V146.375L177.362 116.375V113.945L125.4 143.945Z" fill="#8BC5E4"/>
<path fill-rule="evenodd" clip-rule="evenodd" d="M125.4 146.375V179.585L177.362 149.585V116.375L125.4 146.375Z" fill="#8BC5E4"/>
<path fill-rule="evenodd" clip-rule="evenodd" d="M125.4 179.585L153.624 195.88L205.586 165.88L177.362 149.585L125.4 179.585Z" fill="#8BC5E4"/>
<path fill-rule="evenodd" clip-rule="evenodd" d="M153.624 195.88V160.24L205.586 130.24V165.88L153.624 195.88Z" fill="#8BC5E4"/>
<path fill-rule="evenodd" clip-rule="evenodd" d="M153.624 160.24L125.4 143.945L177.362 113.945L205.586 130.24L153.624 160.24Z" fill="#8BC5E4"/>
<path fill-rule="evenodd" clip-rule="evenodd" d="M125.4 143.945L177.362 113.945L125.4 143.945Z" fill="#8BC5E4"/>
<path fill-rule="evenodd" clip-rule="evenodd" d="M159.089 163.395V165.825L211.05 135.825V133.395L159.089 163.395Z" fill="#8BC5E4"/>
<path fill-rule="evenodd" clip-rule="evenodd" d="M159.089 165.825V199.035L211.05 169.035V135.825L159.089 165.825Z" fill="#8BC5E4"/>
<path fill-rule="evenodd" clip-rule="evenodd" d="M159.089 199.035L187.321 215.335L239.283 185.335L211.05 169.035L159.089 199.035Z" fill="#8BC5E4"/>
<path fill-rule="evenodd" clip-rule="evenodd" d="M187.321 215.335V179.695L239.283 149.695V185.335L187.321 215.335Z" fill="#8BC5E4"/>
<path fill-rule="evenodd" clip-rule="evenodd" d="M187.321 179.695L159.089 163.395L211.05 133.395L239.283 149.695L187.321 179.695Z" fill="#8BC5E4"/>
<path fill-rule="evenodd" clip-rule="evenodd" d="M159.089 163.395L211.05 133.395L159.089 163.395Z" fill="#8BC5E4"/>
<path fill-rule="evenodd" clip-rule="evenodd" d="M192.786 182.85V185.28L244.748 155.28V152.85L192.786 182.85Z" fill="#8BC5E4"/>
<path fill-rule="evenodd" clip-rule="evenodd" d="M192.786 185.28V218.49L244.748 188.49V155.28L192.786 185.28Z" fill="#8BC5E4"/>
<path fill-rule="evenodd" clip-rule="evenodd" d="M192.786 218.49L221.01 234.785L272.971 204.785L244.748 188.49L192.786 218.49Z" fill="#8BC5E4"/>
<path fill-rule="evenodd" clip-rule="evenodd" d="M221.01 234.785V199.145L272.971 169.145V204.785L221.01 234.785Z" fill="#8BC5E4"/>
<path fill-rule="evenodd" clip-rule="evenodd" d="M221.01 199.145L192.786 182.85L244.748 152.85L272.971 169.145L221.01 199.145Z" fill="#8BC5E4"/>
<path fill-rule="evenodd" clip-rule="evenodd" d="M192.786 182.85L244.748 152.85L192.786 182.85Z" fill="#8BC5E4"/>
<path fill-rule="evenodd" clip-rule="evenodd" d="M15.0254 85.0599L34.9786 96.5799L86.9401 66.5799L66.9869 55.0599L15.0254 85.0599Z" fill="#8BC5E4"/>
<path fill-rule="evenodd" clip-rule="evenodd" d="M34.979 96.58V122.48L86.9405 92.48V66.58L34.979 96.58Z" fill="#8BC5E4"/>
<path fill-rule="evenodd" clip-rule="evenodd" d="M34.9786 122.48L15.0254 110.96L66.9869 80.96L86.9401 92.48L34.9786 122.48Z" fill="#8BC5E4"/>
<path fill-rule="evenodd" clip-rule="evenodd" d="M15.0254 110.96V85.0599L66.9869 55.0599V80.9599L15.0254 110.96Z" fill="#8BC5E4"/>
<path fill-rule="evenodd" clip-rule="evenodd" d="M15.0254 85.0599L66.9869 55.0599L15.0254 85.0599Z" fill="#8BC5E4"/>
<path fill-rule="evenodd" clip-rule="evenodd" d="M48.7227 104.515L68.6759 116.035L120.637 86.035L100.684 74.515L48.7227 104.515Z" fill="#8BC5E4"/>
<path fill-rule="evenodd" clip-rule="evenodd" d="M68.6758 116.035V141.935L120.637 111.935V86.035L68.6758 116.035Z" fill="#8BC5E4"/>
<path fill-rule="evenodd" clip-rule="evenodd" d="M68.6759 141.935L48.7227 130.415L100.684 100.415L120.637 111.935L68.6759 141.935Z" fill="#8BC5E4"/>
<path fill-rule="evenodd" clip-rule="evenodd" d="M48.7227 130.415V104.515L100.684 74.515V100.415L48.7227 130.415Z" fill="#8BC5E4"/>
<path fill-rule="evenodd" clip-rule="evenodd" d="M48.7227 104.515L100.684 74.515L48.7227 104.515Z" fill="#8BC5E4"/>
<path fill-rule="evenodd" clip-rule="evenodd" d="M82.4194 123.97L102.373 135.49L154.334 105.49L134.381 93.97L82.4194 123.97Z" fill="#8BC5E4"/>
<path fill-rule="evenodd" clip-rule="evenodd" d="M102.373 135.49V161.39L154.335 131.39V105.49L102.373 135.49Z" fill="#8BC5E4"/>
<path fill-rule="evenodd" clip-rule="evenodd" d="M102.373 161.39L82.4194 149.87L134.381 119.87L154.334 131.39L102.373 161.39Z" fill="#8BC5E4"/>
<path fill-rule="evenodd" clip-rule="evenodd" d="M82.4194 149.87V123.97L134.381 93.97V119.87L82.4194 149.87Z" fill="#8BC5E4"/>
<path fill-rule="evenodd" clip-rule="evenodd" d="M82.4194 123.97L134.381 93.97L82.4194 123.97Z" fill="#8BC5E4"/>
<path fill-rule="evenodd" clip-rule="evenodd" d="M244.055 217.29L263.991 228.8L315.952 198.8L296.016 187.29L244.055 217.29Z" fill="#8BC5E4"/>
<path fill-rule="evenodd" clip-rule="evenodd" d="M263.991 228.8V254.7L315.952 224.7V198.8L263.991 228.8Z" fill="#8BC5E4"/>
<path fill-rule="evenodd" clip-rule="evenodd" d="M263.991 254.7L244.055 243.19L296.016 213.19L315.952 224.7L263.991 254.7Z" fill="#8BC5E4"/>
<path fill-rule="evenodd" clip-rule="evenodd" d="M244.055 243.19V217.29L296.016 187.29V213.19L244.055 243.19Z" fill="#8BC5E4"/>
<path fill-rule="evenodd" clip-rule="evenodd" d="M244.055 217.29L296.016 187.29L244.055 217.29Z" fill="#8BC5E4"/>
<path fill-rule="evenodd" clip-rule="evenodd" d="M277.751 236.745L297.687 248.255L349.649 218.255L329.713 206.745L277.751 236.745Z" fill="#8BC5E4"/>
<path fill-rule="evenodd" clip-rule="evenodd" d="M297.688 248.255V274.155L349.649 244.155V218.255L297.688 248.255Z" fill="#8BC5E4"/>
<path fill-rule="evenodd" clip-rule="evenodd" d="M297.687 274.155L277.751 262.645L329.713 232.645L349.649 244.155L297.687 274.155Z" fill="#8BC5E4"/>
<path fill-rule="evenodd" clip-rule="evenodd" d="M277.751 262.645V236.745L329.713 206.745V232.645L277.751 262.645Z" fill="#8BC5E4"/>
<path fill-rule="evenodd" clip-rule="evenodd" d="M277.751 236.745L329.713 206.745L277.751 236.745Z" fill="#8BC5E4"/>
<path fill-rule="evenodd" clip-rule="evenodd" d="M311.449 256.2L331.385 267.71L383.346 237.71L363.41 226.2L311.449 256.2Z" fill="#8BC5E4"/>
<path fill-rule="evenodd" clip-rule="evenodd" d="M331.385 267.71V293.61L383.346 263.61V237.71L331.385 267.71Z" fill="#8BC5E4"/>
<path fill-rule="evenodd" clip-rule="evenodd" d="M331.385 293.61L311.449 282.1L363.41 252.1L383.346 263.61L331.385 293.61Z" fill="#8BC5E4"/>
<path fill-rule="evenodd" clip-rule="evenodd" d="M311.449 282.1V256.2L363.41 226.2V252.1L311.449 282.1Z" fill="#8BC5E4"/>
<path fill-rule="evenodd" clip-rule="evenodd" d="M311.449 256.2L363.41 226.2L311.449 256.2Z" fill="#8BC5E4"/>
<path fill-rule="evenodd" clip-rule="evenodd" d="M129.54 151.205L149.476 162.715L201.437 132.715L181.502 121.205L129.54 151.205Z" fill="#8BC5E4"/>
<path fill-rule="evenodd" clip-rule="evenodd" d="M149.476 162.715V188.615L201.438 158.615V132.715L149.476 162.715Z" fill="#8BC5E4"/>
<path fill-rule="evenodd" clip-rule="evenodd" d="M149.476 188.615L129.54 177.105L181.502 147.105L201.437 158.615L149.476 188.615Z" fill="#8BC5E4"/>
<path fill-rule="evenodd" clip-rule="evenodd" d="M129.54 177.105V151.205L181.502 121.205V147.105L129.54 177.105Z" fill="#8BC5E4"/>
<path fill-rule="evenodd" clip-rule="evenodd" d="M129.54 151.205L181.502 121.205L129.54 151.205Z" fill="#8BC5E4"/>
<path fill-rule="evenodd" clip-rule="evenodd" d="M163.237 170.66L183.173 182.17L235.135 152.17L215.199 140.66L163.237 170.66Z" fill="#8BC5E4"/>
<path fill-rule="evenodd" clip-rule="evenodd" d="M183.173 182.17V208.07L235.134 178.07V152.17L183.173 182.17Z" fill="#8BC5E4"/>
<path fill-rule="evenodd" clip-rule="evenodd" d="M183.173 208.07L163.237 196.56L215.199 166.56L235.135 178.07L183.173 208.07Z" fill="#8BC5E4"/>
<path fill-rule="evenodd" clip-rule="evenodd" d="M163.237 196.56V170.66L215.199 140.66V166.56L163.237 196.56Z" fill="#8BC5E4"/>
<path fill-rule="evenodd" clip-rule="evenodd" d="M163.237 170.66L215.199 140.66L163.237 170.66Z" fill="#8BC5E4"/>
<path fill-rule="evenodd" clip-rule="evenodd" d="M196.934 190.115L216.87 201.625L268.832 171.625L248.896 160.115L196.934 190.115Z" fill="#8BC5E4"/>
<path fill-rule="evenodd" clip-rule="evenodd" d="M216.87 201.625V227.525L268.832 197.525V171.625L216.87 201.625Z" fill="#8BC5E4"/>
<path fill-rule="evenodd" clip-rule="evenodd" d="M216.87 227.525L196.934 216.015L248.896 186.015L268.832 197.525L216.87 227.525Z" fill="#8BC5E4"/>
<path fill-rule="evenodd" clip-rule="evenodd" d="M196.934 216.015V190.115L248.896 160.115V186.015L196.934 216.015Z" fill="#8BC5E4"/>
<path fill-rule="evenodd" clip-rule="evenodd" d="M196.934 190.115L248.896 160.115L196.934 190.115Z" fill="#8BC5E4"/>
<path fill-rule="evenodd" clip-rule="evenodd" d="M10.8774 123.415V125.855L62.839 95.8549V93.4149L10.8774 123.415Z" fill="#8BC5E4"/>
<path fill-rule="evenodd" clip-rule="evenodd" d="M10.8774 125.855V159.055L62.839 129.055V95.855L10.8774 125.855Z" fill="#8BC5E4"/>
<path fill-rule="evenodd" clip-rule="evenodd" d="M10.8774 159.055L39.1272 175.365L91.0887 145.365L62.839 129.055L10.8774 159.055Z" fill="#8BC5E4"/>
<path fill-rule="evenodd" clip-rule="evenodd" d="M39.127 175.365V139.725L91.0885 109.725V145.365L39.127 175.365Z" fill="#8BC5E4"/>
<path fill-rule="evenodd" clip-rule="evenodd" d="M39.1272 139.725L10.8774 123.415L62.839 93.4149L91.0887 109.725L39.1272 139.725Z" fill="#8BC5E4"/>
<path fill-rule="evenodd" clip-rule="evenodd" d="M10.8774 123.415L62.839 93.4149L10.8774 123.415Z" fill="#8BC5E4"/>
<path fill-rule="evenodd" clip-rule="evenodd" d="M44.5742 142.87V145.31L96.5357 115.31V112.87L44.5742 142.87Z" fill="#8BC5E4"/>
<path fill-rule="evenodd" clip-rule="evenodd" d="M44.5742 145.31V178.51L96.5357 148.51V115.31L44.5742 145.31Z" fill="#8BC5E4"/>
<path fill-rule="evenodd" clip-rule="evenodd" d="M44.5742 178.51L72.824 194.82L124.785 164.82L96.5357 148.51L44.5742 178.51Z" fill="#8BC5E4"/>
<path fill-rule="evenodd" clip-rule="evenodd" d="M72.8242 194.82V159.18L124.786 129.18V164.82L72.8242 194.82Z" fill="#8BC5E4"/>
<path fill-rule="evenodd" clip-rule="evenodd" d="M72.824 159.18L44.5742 142.87L96.5357 112.87L124.785 129.18L72.824 159.18Z" fill="#8BC5E4"/>
<path fill-rule="evenodd" clip-rule="evenodd" d="M44.5742 142.87L96.5357 112.87L44.5742 142.87Z" fill="#8BC5E4"/>
<path fill-rule="evenodd" clip-rule="evenodd" d="M78.2715 162.325V164.765L130.233 134.765V132.325L78.2715 162.325Z" fill="#8BC5E4"/>
<path fill-rule="evenodd" clip-rule="evenodd" d="M78.2715 164.765V197.965L130.233 167.965V134.765L78.2715 164.765Z" fill="#8BC5E4"/>
<path fill-rule="evenodd" clip-rule="evenodd" d="M78.2715 197.965L106.521 214.275L158.483 184.275L130.233 167.965L78.2715 197.965Z" fill="#8BC5E4"/>
<path fill-rule="evenodd" clip-rule="evenodd" d="M106.521 214.275V178.635L158.483 148.635V184.275L106.521 214.275Z" fill="#8BC5E4"/>
<path fill-rule="evenodd" clip-rule="evenodd" d="M106.521 178.635L78.2715 162.325L130.233 132.325L158.483 148.635L106.521 178.635Z" fill="#8BC5E4"/>
<path fill-rule="evenodd" clip-rule="evenodd" d="M78.2715 162.325L130.233 132.325L78.2715 162.325Z" fill="#8BC5E4"/>
<path fill-rule="evenodd" clip-rule="evenodd" d="M239.915 255.65V258.09L291.877 228.09V225.65L239.915 255.65Z" fill="#8BC5E4"/>
<path fill-rule="evenodd" clip-rule="evenodd" d="M239.915 258.09V291.29L291.877 261.29V228.09L239.915 258.09Z" fill="#8BC5E4"/>
<path fill-rule="evenodd" clip-rule="evenodd" d="M239.915 291.29L268.139 307.585L320.1 277.585L291.877 261.29L239.915 291.29Z" fill="#8BC5E4"/>
<path fill-rule="evenodd" clip-rule="evenodd" d="M268.139 307.585V271.945L320.1 241.945V277.585L268.139 307.585Z" fill="#8BC5E4"/>
<path fill-rule="evenodd" clip-rule="evenodd" d="M268.139 271.945L239.915 255.65L291.877 225.65L320.1 241.945L268.139 271.945Z" fill="#8BC5E4"/>
<path fill-rule="evenodd" clip-rule="evenodd" d="M239.915 255.65L291.877 225.65L239.915 255.65Z" fill="#8BC5E4"/>
<path fill-rule="evenodd" clip-rule="evenodd" d="M273.612 275.105V277.545L325.574 247.545V245.105L273.612 275.105Z" fill="#8BC5E4"/>
<path fill-rule="evenodd" clip-rule="evenodd" d="M273.612 277.545V310.745L325.574 280.745V247.545L273.612 277.545Z" fill="#8BC5E4"/>
<path fill-rule="evenodd" clip-rule="evenodd" d="M273.612 310.745L301.836 327.04L353.798 297.04L325.574 280.745L273.612 310.745Z" fill="#8BC5E4"/>
<path fill-rule="evenodd" clip-rule="evenodd" d="M301.836 327.04V291.4L353.797 261.4V297.04L301.836 327.04Z" fill="#8BC5E4"/>
<path fill-rule="evenodd" clip-rule="evenodd" d="M301.836 291.4L273.612 275.105L325.574 245.105L353.798 261.4L301.836 291.4Z" fill="#8BC5E4"/>
<path fill-rule="evenodd" clip-rule="evenodd" d="M273.612 275.105L325.574 245.105L273.612 275.105Z" fill="#8BC5E4"/>
<path fill-rule="evenodd" clip-rule="evenodd" d="M307.309 294.56V297L359.271 267V264.56L307.309 294.56Z" fill="#8BC5E4"/>
<path fill-rule="evenodd" clip-rule="evenodd" d="M307.309 297V330.2L359.271 300.2V267L307.309 297Z" fill="#8BC5E4"/>
<path fill-rule="evenodd" clip-rule="evenodd" d="M307.309 330.2L335.533 346.495L387.494 316.495L359.271 300.2L307.309 330.2Z" fill="#8BC5E4"/>
<path fill-rule="evenodd" clip-rule="evenodd" d="M335.533 346.495V310.855L387.494 280.855V316.495L335.533 346.495Z" fill="#8BC5E4"/>
<path fill-rule="evenodd" clip-rule="evenodd" d="M335.533 310.855L307.309 294.56L359.271 264.56L387.494 280.855L335.533 310.855Z" fill="#8BC5E4"/>
<path fill-rule="evenodd" clip-rule="evenodd" d="M307.309 294.56L359.271 264.56L307.309 294.56Z" fill="#8BC5E4"/>
<path fill-rule="evenodd" clip-rule="evenodd" d="M125.4 189.565V191.995L177.362 161.995V159.565L125.4 189.565Z" fill="#8BC5E4"/>
<path fill-rule="evenodd" clip-rule="evenodd" d="M125.4 191.995V225.195L177.362 195.195V161.995L125.4 191.995Z" fill="#8BC5E4"/>
<path fill-rule="evenodd" clip-rule="evenodd" d="M125.4 225.195L153.624 241.49L205.586 211.49L177.362 195.195L125.4 225.195Z" fill="#8BC5E4"/>
<path fill-rule="evenodd" clip-rule="evenodd" d="M153.624 241.49V205.86L205.586 175.86V211.49L153.624 241.49Z" fill="#8BC5E4"/>
<path fill-rule="evenodd" clip-rule="evenodd" d="M153.624 205.86L125.4 189.565L177.362 159.565L205.586 175.86L153.624 205.86Z" fill="#8BC5E4"/>
<path fill-rule="evenodd" clip-rule="evenodd" d="M125.4 189.565L177.362 159.565L125.4 189.565Z" fill="#8BC5E4"/>
<path fill-rule="evenodd" clip-rule="evenodd" d="M159.089 209.015V211.445L211.05 181.445V179.015L159.089 209.015Z" fill="#8BC5E4"/>
<path fill-rule="evenodd" clip-rule="evenodd" d="M159.089 211.445V244.645L211.05 214.645V181.445L159.089 211.445Z" fill="#8BC5E4"/>
<path fill-rule="evenodd" clip-rule="evenodd" d="M159.089 244.645L187.321 260.945L239.283 230.945L211.05 214.645L159.089 244.645Z" fill="#8BC5E4"/>
<path fill-rule="evenodd" clip-rule="evenodd" d="M187.321 260.945V225.315L239.283 195.315V230.945L187.321 260.945Z" fill="#8BC5E4"/>
<path fill-rule="evenodd" clip-rule="evenodd" d="M187.321 225.315L159.089 209.015L211.05 179.015L239.283 195.315L187.321 225.315Z" fill="#8BC5E4"/>
<path fill-rule="evenodd" clip-rule="evenodd" d="M159.089 209.015L211.05 179.015L159.089 209.015Z" fill="#8BC5E4"/>
<path fill-rule="evenodd" clip-rule="evenodd" d="M192.786 228.47V230.9L244.748 200.9V198.47L192.786 228.47Z" fill="#8BC5E4"/>
<path fill-rule="evenodd" clip-rule="evenodd" d="M192.786 230.9V264.1L244.748 234.1V200.9L192.786 230.9Z" fill="#8BC5E4"/>
<path fill-rule="evenodd" clip-rule="evenodd" d="M192.786 264.1L221.01 280.395L272.971 250.395L244.748 234.1L192.786 264.1Z" fill="#8BC5E4"/>
<path fill-rule="evenodd" clip-rule="evenodd" d="M221.01 280.395V244.765L272.971 214.765V250.395L221.01 280.395Z" fill="#8BC5E4"/>
<path fill-rule="evenodd" clip-rule="evenodd" d="M221.01 244.765L192.786 228.47L244.748 198.47L272.971 214.765L221.01 244.765Z" fill="#8BC5E4"/>
<path fill-rule="evenodd" clip-rule="evenodd" d="M192.786 228.47L244.748 198.47L192.786 228.47Z" fill="#8BC5E4"/>
<path fill-rule="evenodd" clip-rule="evenodd" d="M15.0254 130.68L34.9786 142.2L86.9401 112.2L66.9869 100.68L15.0254 130.68Z" fill="#8BC5E4"/>
<path fill-rule="evenodd" clip-rule="evenodd" d="M34.979 142.2V168.1L86.9405 138.1V112.2L34.979 142.2Z" fill="#8BC5E4"/>
<path fill-rule="evenodd" clip-rule="evenodd" d="M34.9786 168.1L15.0254 156.58L66.9869 126.58L86.9401 138.1L34.9786 168.1Z" fill="#8BC5E4"/>
<path fill-rule="evenodd" clip-rule="evenodd" d="M15.0254 156.58V130.68L66.9869 100.68V126.58L15.0254 156.58Z" fill="#8BC5E4"/>
<path fill-rule="evenodd" clip-rule="evenodd" d="M15.0254 130.68L66.9869 100.68L15.0254 130.68Z" fill="#8BC5E4"/>
<path fill-rule="evenodd" clip-rule="evenodd" d="M48.7227 150.135L68.6759 161.655L120.637 131.655L100.684 120.135L48.7227 150.135Z" fill="#8BC5E4"/>
<path fill-rule="evenodd" clip-rule="evenodd" d="M68.6758 161.655V187.555L120.637 157.555V131.655L68.6758 161.655Z" fill="#8BC5E4"/>
<path fill-rule="evenodd" clip-rule="evenodd" d="M68.6759 187.555L48.7227 176.035L100.684 146.035L120.637 157.555L68.6759 187.555Z" fill="#8BC5E4"/>
<path fill-rule="evenodd" clip-rule="evenodd" d="M48.7227 176.035V150.135L100.684 120.135V146.035L48.7227 176.035Z" fill="#8BC5E4"/>
<path fill-rule="evenodd" clip-rule="evenodd" d="M48.7227 150.135L100.684 120.135L48.7227 150.135Z" fill="#8BC5E4"/>
<path fill-rule="evenodd" clip-rule="evenodd" d="M82.4194 169.59L102.373 181.11L154.334 151.11L134.381 139.59L82.4194 169.59Z" fill="#8BC5E4"/>
<path fill-rule="evenodd" clip-rule="evenodd" d="M102.373 181.11V207.01L154.335 177.01V151.11L102.373 181.11Z" fill="#8BC5E4"/>
<path fill-rule="evenodd" clip-rule="evenodd" d="M102.373 207.01L82.4194 195.49L134.381 165.49L154.334 177.01L102.373 207.01Z" fill="#8BC5E4"/>
<path fill-rule="evenodd" clip-rule="evenodd" d="M82.4194 195.49V169.59L134.381 139.59V165.49L82.4194 195.49Z" fill="#8BC5E4"/>
<path fill-rule="evenodd" clip-rule="evenodd" d="M82.4194 169.59L134.381 139.59L82.4194 169.59Z" fill="#8BC5E4"/>
<path fill-rule="evenodd" clip-rule="evenodd" d="M244.055 262.91L263.991 274.42L315.952 244.42L296.016 232.91L244.055 262.91Z" fill="#8BC5E4"/>
<path fill-rule="evenodd" clip-rule="evenodd" d="M263.991 274.42V300.32L315.952 270.32V244.42L263.991 274.42Z" fill="#8BC5E4"/>
<path fill-rule="evenodd" clip-rule="evenodd" d="M263.991 300.32L244.055 288.81L296.016 258.81L315.952 270.32L263.991 300.32Z" fill="#8BC5E4"/>
<path fill-rule="evenodd" clip-rule="evenodd" d="M244.055 288.81V262.91L296.016 232.91V258.81L244.055 288.81Z" fill="#8BC5E4"/>
<path fill-rule="evenodd" clip-rule="evenodd" d="M244.055 262.91L296.016 232.91L244.055 262.91Z" fill="#8BC5E4"/>
<path fill-rule="evenodd" clip-rule="evenodd" d="M277.751 282.365L297.687 293.875L349.649 263.875L329.713 252.365L277.751 282.365Z" fill="#8BC5E4"/>
<path fill-rule="evenodd" clip-rule="evenodd" d="M297.688 293.875V319.775L349.649 289.775V263.875L297.688 293.875Z" fill="#8BC5E4"/>
<path fill-rule="evenodd" clip-rule="evenodd" d="M297.687 319.775L277.751 308.265L329.713 278.265L349.649 289.775L297.687 319.775Z" fill="#8BC5E4"/>
<path fill-rule="evenodd" clip-rule="evenodd" d="M277.751 308.265V282.365L329.713 252.365V278.265L277.751 308.265Z" fill="#8BC5E4"/>
<path fill-rule="evenodd" clip-rule="evenodd" d="M277.751 282.365L329.713 252.365L277.751 282.365Z" fill="#8BC5E4"/>
<path fill-rule="evenodd" clip-rule="evenodd" d="M311.449 301.82L331.385 313.33L383.346 283.33L363.41 271.82L311.449 301.82Z" fill="#8BC5E4"/>
<path fill-rule="evenodd" clip-rule="evenodd" d="M331.385 313.33V339.23L383.346 309.23V283.33L331.385 313.33Z" fill="#8BC5E4"/>
<path fill-rule="evenodd" clip-rule="evenodd" d="M331.385 339.23L311.449 327.72L363.41 297.72L383.346 309.23L331.385 339.23Z" fill="#8BC5E4"/>
<path fill-rule="evenodd" clip-rule="evenodd" d="M311.449 327.72V301.82L363.41 271.82V297.72L311.449 327.72Z" fill="#8BC5E4"/>
<path fill-rule="evenodd" clip-rule="evenodd" d="M311.449 301.82L363.41 271.82L311.449 301.82Z" fill="#8BC5E4"/>
<path fill-rule="evenodd" clip-rule="evenodd" d="M129.54 196.815L149.476 208.325L201.437 178.325L181.502 166.815L129.54 196.815Z" fill="#8BC5E4"/>
<path fill-rule="evenodd" clip-rule="evenodd" d="M149.476 208.325V234.225L201.438 204.225V178.325L149.476 208.325Z" fill="#8BC5E4"/>
<path fill-rule="evenodd" clip-rule="evenodd" d="M149.476 234.225L129.54 222.715L181.502 192.715L201.437 204.225L149.476 234.225Z" fill="#8BC5E4"/>
<path fill-rule="evenodd" clip-rule="evenodd" d="M129.54 222.715V196.815L181.502 166.815V192.715L129.54 222.715Z" fill="#8BC5E4"/>
<path fill-rule="evenodd" clip-rule="evenodd" d="M129.54 196.815L181.502 166.815L129.54 196.815Z" fill="#8BC5E4"/>
<path fill-rule="evenodd" clip-rule="evenodd" d="M163.237 216.27L183.173 227.78L235.135 197.78L215.199 186.27L163.237 216.27Z" fill="#8BC5E4"/>
<path fill-rule="evenodd" clip-rule="evenodd" d="M183.173 227.78V253.68L235.134 223.68V197.78L183.173 227.78Z" fill="#8BC5E4"/>
<path fill-rule="evenodd" clip-rule="evenodd" d="M183.173 253.68L163.237 242.17L215.199 212.17L235.135 223.68L183.173 253.68Z" fill="#8BC5E4"/>
<path fill-rule="evenodd" clip-rule="evenodd" d="M163.237 242.17V216.27L215.199 186.27V212.17L163.237 242.17Z" fill="#8BC5E4"/>
<path fill-rule="evenodd" clip-rule="evenodd" d="M163.237 216.27L215.199 186.27L163.237 216.27Z" fill="#8BC5E4"/>
<path fill-rule="evenodd" clip-rule="evenodd" d="M196.934 235.725L216.87 247.235L268.832 217.235L248.896 205.725L196.934 235.725Z" fill="#8BC5E4"/>
<path fill-rule="evenodd" clip-rule="evenodd" d="M216.87 247.235V273.135L268.832 243.135V217.235L216.87 247.235Z" fill="#8BC5E4"/>
<path fill-rule="evenodd" clip-rule="evenodd" d="M216.87 273.135L196.934 261.625L248.896 231.625L268.832 243.135L216.87 273.135Z" fill="#8BC5E4"/>
<path fill-rule="evenodd" clip-rule="evenodd" d="M196.934 261.625V235.725L248.896 205.725V231.625L196.934 261.625Z" fill="#8BC5E4"/>
<path fill-rule="evenodd" clip-rule="evenodd" d="M196.934 235.725L248.896 205.725L196.934 235.725Z" fill="#8BC5E4"/>
<path fill-rule="evenodd" clip-rule="evenodd" d="M10.8774 169.005V171.445L62.839 141.445V139.005L10.8774 169.005Z" fill="#8BC5E4"/>
<path fill-rule="evenodd" clip-rule="evenodd" d="M10.8774 171.445V204.665L62.839 174.665V141.445L10.8774 171.445Z" fill="#8BC5E4"/>
<path fill-rule="evenodd" clip-rule="evenodd" d="M10.8774 204.665L39.1272 220.975L91.0887 190.975L62.839 174.665L10.8774 204.665Z" fill="#8BC5E4"/>
<path fill-rule="evenodd" clip-rule="evenodd" d="M39.127 220.975V185.315L91.0885 155.315V190.975L39.127 220.975Z" fill="#8BC5E4"/>
<path fill-rule="evenodd" clip-rule="evenodd" d="M39.1272 185.315L10.8774 169.005L62.839 139.005L91.0887 155.315L39.1272 185.315Z" fill="#8BC5E4"/>
<path fill-rule="evenodd" clip-rule="evenodd" d="M10.8774 169.005L62.839 139.005L10.8774 169.005Z" fill="#8BC5E4"/>
<path fill-rule="evenodd" clip-rule="evenodd" d="M44.5742 188.46V190.9L96.5357 160.9V158.46L44.5742 188.46Z" fill="#8BC5E4"/>
<path fill-rule="evenodd" clip-rule="evenodd" d="M44.5742 190.9V224.12L96.5357 194.12V160.9L44.5742 190.9Z" fill="#8BC5E4"/>
<path fill-rule="evenodd" clip-rule="evenodd" d="M44.5742 224.12L72.824 240.43L124.785 210.43L96.5357 194.12L44.5742 224.12Z" fill="#8BC5E4"/>
<path fill-rule="evenodd" clip-rule="evenodd" d="M72.8242 240.43V204.77L124.786 174.77V210.43L72.8242 240.43Z" fill="#8BC5E4"/>
<path fill-rule="evenodd" clip-rule="evenodd" d="M72.824 204.77L44.5742 188.46L96.5357 158.46L124.785 174.77L72.824 204.77Z" fill="#8BC5E4"/>
<path fill-rule="evenodd" clip-rule="evenodd" d="M44.5742 188.46L96.5357 158.46L44.5742 188.46Z" fill="#8BC5E4"/>
<path fill-rule="evenodd" clip-rule="evenodd" d="M78.2715 207.915V210.355L130.233 180.355V177.915L78.2715 207.915Z" fill="#8BC5E4"/>
<path fill-rule="evenodd" clip-rule="evenodd" d="M78.2715 210.355V243.575L130.233 213.575V180.355L78.2715 210.355Z" fill="#8BC5E4"/>
<path fill-rule="evenodd" clip-rule="evenodd" d="M78.2715 243.575L106.521 259.885L158.483 229.885L130.233 213.575L78.2715 243.575Z" fill="#8BC5E4"/>
<path fill-rule="evenodd" clip-rule="evenodd" d="M106.521 259.885V224.225L158.483 194.225V229.885L106.521 259.885Z" fill="#8BC5E4"/>
<path fill-rule="evenodd" clip-rule="evenodd" d="M106.521 224.225L78.2715 207.915L130.233 177.915L158.483 194.225L106.521 224.225Z" fill="#8BC5E4"/>
<path fill-rule="evenodd" clip-rule="evenodd" d="M78.2715 207.915L130.233 177.915L78.2715 207.915Z" fill="#8BC5E4"/>
<path fill-rule="evenodd" clip-rule="evenodd" d="M239.915 301.24V303.68L291.877 273.68V271.24L239.915 301.24Z" fill="#8BC5E4"/>
<path fill-rule="evenodd" clip-rule="evenodd" d="M239.915 303.68V336.9L291.877 306.9V273.68L239.915 303.68Z" fill="#8BC5E4"/>
<path fill-rule="evenodd" clip-rule="evenodd" d="M239.915 336.9L268.139 353.195L320.1 323.195L291.877 306.9L239.915 336.9Z" fill="#8BC5E4"/>
<path fill-rule="evenodd" clip-rule="evenodd" d="M268.139 353.195V317.535L320.1 287.535V323.195L268.139 353.195Z" fill="#8BC5E4"/>
<path fill-rule="evenodd" clip-rule="evenodd" d="M268.139 317.535L239.915 301.24L291.877 271.24L320.1 287.535L268.139 317.535Z" fill="#8BC5E4"/>
<path fill-rule="evenodd" clip-rule="evenodd" d="M239.915 301.24L291.877 271.24L239.915 301.24Z" fill="#8BC5E4"/>
<path fill-rule="evenodd" clip-rule="evenodd" d="M273.612 320.695V323.135L325.574 293.135V290.695L273.612 320.695Z" fill="#8BC5E4"/>
<path fill-rule="evenodd" clip-rule="evenodd" d="M273.612 323.135V356.355L325.574 326.355V293.135L273.612 323.135Z" fill="#8BC5E4"/>
<path fill-rule="evenodd" clip-rule="evenodd" d="M273.612 356.355L301.836 372.65L353.798 342.65L325.574 326.355L273.612 356.355Z" fill="#8BC5E4"/>
<path fill-rule="evenodd" clip-rule="evenodd" d="M301.836 372.65V336.99L353.797 306.99V342.65L301.836 372.65Z" fill="#8BC5E4"/>
<path fill-rule="evenodd" clip-rule="evenodd" d="M301.836 336.99L273.612 320.695L325.574 290.695L353.798 306.99L301.836 336.99Z" fill="#8BC5E4"/>
<path fill-rule="evenodd" clip-rule="evenodd" d="M273.612 320.695L325.574 290.695L273.612 320.695Z" fill="#8BC5E4"/>
<path fill-rule="evenodd" clip-rule="evenodd" d="M307.309 340.15V342.59L359.271 312.59V310.15L307.309 340.15Z" fill="#8BC5E4"/>
<path fill-rule="evenodd" clip-rule="evenodd" d="M307.309 342.59V375.81L359.271 345.81V312.59L307.309 342.59Z" fill="#8BC5E4"/>
<path fill-rule="evenodd" clip-rule="evenodd" d="M307.309 375.81L335.533 392.105L387.494 362.105L359.271 345.81L307.309 375.81Z" fill="#8BC5E4"/>
<path fill-rule="evenodd" clip-rule="evenodd" d="M335.533 392.105V356.445L387.494 326.445V362.105L335.533 392.105Z" fill="#8BC5E4"/>
<path fill-rule="evenodd" clip-rule="evenodd" d="M335.533 356.445L307.309 340.15L359.271 310.15L387.494 326.445L335.533 356.445Z" fill="#8BC5E4"/>
<path fill-rule="evenodd" clip-rule="evenodd" d="M307.309 340.15L359.271 310.15L307.309 340.15Z" fill="#8BC5E4"/>
<path fill-rule="evenodd" clip-rule="evenodd" d="M15.0254 176.27L34.9786 187.79L86.9401 157.79L66.9869 146.27L15.0254 176.27Z" fill="#8BC5E4"/>
<path fill-rule="evenodd" clip-rule="evenodd" d="M34.979 187.79V213.72L86.9405 183.72V157.79L34.979 187.79Z" fill="#8BC5E4"/>
<path fill-rule="evenodd" clip-rule="evenodd" d="M34.9786 213.72L15.0254 202.2L66.9869 172.2L86.9401 183.72L34.9786 213.72Z" fill="#8BC5E4"/>
<path fill-rule="evenodd" clip-rule="evenodd" d="M15.0254 202.2V176.27L66.9869 146.27V172.2L15.0254 202.2Z" fill="#8BC5E4"/>
<path fill-rule="evenodd" clip-rule="evenodd" d="M15.0254 176.27L66.9869 146.27L15.0254 176.27Z" fill="#8BC5E4"/>
<path fill-rule="evenodd" clip-rule="evenodd" d="M48.7227 195.725L68.6759 207.245L120.637 177.245L100.684 165.725L48.7227 195.725Z" fill="#8BC5E4"/>
<path fill-rule="evenodd" clip-rule="evenodd" d="M68.6758 207.245V233.175L120.637 203.175V177.245L68.6758 207.245Z" fill="#8BC5E4"/>
<path fill-rule="evenodd" clip-rule="evenodd" d="M68.6759 233.175L48.7227 221.655L100.684 191.655L120.637 203.175L68.6759 233.175Z" fill="#8BC5E4"/>
<path fill-rule="evenodd" clip-rule="evenodd" d="M48.7227 221.655V195.725L100.684 165.725V191.655L48.7227 221.655Z" fill="#8BC5E4"/>
<path fill-rule="evenodd" clip-rule="evenodd" d="M48.7227 195.725L100.684 165.725L48.7227 195.725Z" fill="#8BC5E4"/>
<path fill-rule="evenodd" clip-rule="evenodd" d="M82.4194 215.18L102.373 226.7L154.334 196.7L134.381 185.18L82.4194 215.18Z" fill="#8BC5E4"/>
<path fill-rule="evenodd" clip-rule="evenodd" d="M102.373 226.7V252.63L154.335 222.63V196.7L102.373 226.7Z" fill="#8BC5E4"/>
<path fill-rule="evenodd" clip-rule="evenodd" d="M102.373 252.63L82.4194 241.11L134.381 211.11L154.334 222.63L102.373 252.63Z" fill="#8BC5E4"/>
<path fill-rule="evenodd" clip-rule="evenodd" d="M82.4194 241.11V215.18L134.381 185.18V211.11L82.4194 241.11Z" fill="#8BC5E4"/>
<path fill-rule="evenodd" clip-rule="evenodd" d="M82.4194 215.18L134.381 185.18L82.4194 215.18Z" fill="#8BC5E4"/>
<path fill-rule="evenodd" clip-rule="evenodd" d="M244.055 308.5L263.991 320.01L315.952 290.01L296.016 278.5L244.055 308.5Z" fill="#8BC5E4"/>
<path fill-rule="evenodd" clip-rule="evenodd" d="M263.991 320.01V345.94L315.952 315.94V290.01L263.991 320.01Z" fill="#8BC5E4"/>
<path fill-rule="evenodd" clip-rule="evenodd" d="M263.991 345.94L244.055 334.43L296.016 304.43L315.952 315.94L263.991 345.94Z" fill="#8BC5E4"/>
<path fill-rule="evenodd" clip-rule="evenodd" d="M244.055 334.43V308.5L296.016 278.5V304.43L244.055 334.43Z" fill="#8BC5E4"/>
<path fill-rule="evenodd" clip-rule="evenodd" d="M244.055 308.5L296.016 278.5L244.055 308.5Z" fill="#8BC5E4"/>
<path fill-rule="evenodd" clip-rule="evenodd" d="M277.751 327.955L297.687 339.465L349.649 309.465L329.713 297.955L277.751 327.955Z" fill="#8BC5E4"/>
<path fill-rule="evenodd" clip-rule="evenodd" d="M297.688 339.465V365.395L349.649 335.395V309.465L297.688 339.465Z" fill="#8BC5E4"/>
<path fill-rule="evenodd" clip-rule="evenodd" d="M297.687 365.395L277.751 353.885L329.713 323.885L349.649 335.395L297.687 365.395Z" fill="#8BC5E4"/>
<path fill-rule="evenodd" clip-rule="evenodd" d="M277.751 353.885V327.955L329.713 297.955V323.885L277.751 353.885Z" fill="#8BC5E4"/>
<path fill-rule="evenodd" clip-rule="evenodd" d="M277.751 327.955L329.713 297.955L277.751 327.955Z" fill="#8BC5E4"/>
<path fill-rule="evenodd" clip-rule="evenodd" d="M311.449 347.41L331.385 358.92L383.346 328.92L363.41 317.41L311.449 347.41Z" fill="#8BC5E4"/>
<path fill-rule="evenodd" clip-rule="evenodd" d="M331.385 358.92V384.85L383.346 354.85V328.92L331.385 358.92Z" fill="#8BC5E4"/>
<path fill-rule="evenodd" clip-rule="evenodd" d="M331.385 384.85L311.449 373.34L363.41 343.34L383.346 354.85L331.385 384.85Z" fill="#8BC5E4"/>
<path fill-rule="evenodd" clip-rule="evenodd" d="M311.449 373.34V347.41L363.41 317.41V343.34L311.449 373.34Z" fill="#8BC5E4"/>
<path fill-rule="evenodd" clip-rule="evenodd" d="M311.449 347.41L363.41 317.41L311.449 347.41Z" fill="#8BC5E4"/>
<path fill-rule="evenodd" clip-rule="evenodd" d="M113.042 30V124.54L165.004 94.54V0L113.042 30Z" fill="#8BC5E4"/>
<path fill-rule="evenodd" clip-rule="evenodd" d="M113.042 124.54L0 59.275L51.9615 29.275L165.004 94.54L113.042 124.54Z" fill="#8BC5E4"/>
<path fill-rule="evenodd" clip-rule="evenodd" d="M0 59.275V244.735L51.9615 214.735V29.275L0 59.275Z" fill="#8BC5E4"/>
<path fill-rule="evenodd" clip-rule="evenodd" d="M0 244.735L2.0698 245.93L54.0313 215.93L51.9615 214.735L0 244.735Z" fill="#8BC5E4"/>
<path fill-rule="evenodd" clip-rule="evenodd" d="M2.06982 245.93L346.41 444.735L398.372 414.735L54.0313 215.93L2.06982 245.93Z" fill="#8BC5E4"/>
<path fill-rule="evenodd" clip-rule="evenodd" d="M346.41 444.735V259.275L398.372 229.275V414.735L346.41 444.735Z" fill="#8BC5E4"/>
<path fill-rule="evenodd" clip-rule="evenodd" d="M346.41 259.275L234.667 194.76L286.629 164.76L398.372 229.275L346.41 259.275Z" fill="#8BC5E4"/>
<path fill-rule="evenodd" clip-rule="evenodd" d="M234.667 194.76V100.22L286.629 70.22V164.76L234.667 194.76Z" fill="#8BC5E4"/>
<path fill-rule="evenodd" clip-rule="evenodd" d="M234.667 100.22L113.042 30L165.004 0L286.629 70.22L234.667 100.22Z" fill="#8BC5E4"/>
<path fill-rule="evenodd" clip-rule="evenodd" d="M113.042 30L165.004 0L113.042 30Z" fill="#8BC5E4"/>
<path fill-rule="evenodd" clip-rule="evenodd" d="M117.19 37.265L230.527 102.7L282.489 72.7L169.152 7.26501L117.19 37.265Z" fill="#8BC5E4"/>
<path fill-rule="evenodd" clip-rule="evenodd" d="M230.527 102.7V197.24L282.489 167.24V72.7L230.527 102.7Z" fill="#8BC5E4"/>
<path fill-rule="evenodd" clip-rule="evenodd" d="M230.527 197.24L342.262 261.75L394.223 231.75L282.489 167.24L230.527 197.24Z" fill="#8BC5E4"/>
<path fill-rule="evenodd" clip-rule="evenodd" d="M342.262 261.75V437.47L394.223 407.47V231.75L342.262 261.75Z" fill="#8BC5E4"/>
<path fill-rule="evenodd" clip-rule="evenodd" d="M342.262 437.47L4.14844 242.26L56.11 212.26L394.224 407.47L342.262 437.47Z" fill="#8BC5E4"/>
<path fill-rule="evenodd" clip-rule="evenodd" d="M4.14844 242.26V66.54L56.11 36.54V212.26L4.14844 242.26Z" fill="#8BC5E4"/>
<path fill-rule="evenodd" clip-rule="evenodd" d="M4.14844 66.54L117.191 131.805L169.152 101.805L56.11 36.54L4.14844 66.54Z" fill="#8BC5E4"/>
<path fill-rule="evenodd" clip-rule="evenodd" d="M117.19 131.805V37.265L169.152 7.26501V101.805L117.19 131.805Z" fill="#8BC5E4"/>
<path fill-rule="evenodd" clip-rule="evenodd" d="M117.19 37.265L169.152 7.26501L117.19 37.265Z" fill="#8BC5E4"/>
<path d="M125.4 52.715V55.145V88.375L153.624 104.67V69.01L125.4 52.715ZM159.089 72.165V74.595V107.825L187.321 124.125V88.465L159.089 72.165ZM192.786 91.62V94.05V127.28L221.01 143.575V107.915L192.786 91.62ZM129.54 59.975L149.476 71.485V97.405L129.54 85.895V59.975ZM163.237 79.43L183.173 90.94V116.86L163.237 105.35V79.43ZM196.934 98.885L216.87 110.395V136.315L196.934 124.805V98.885ZM125.4 98.325V100.765V133.985L153.624 150.28V114.62L125.4 98.325ZM159.089 117.775V120.215V153.435L187.321 169.735V134.075L159.089 117.775ZM192.786 137.23V139.67V172.89L221.01 189.185V153.525L192.786 137.23ZM129.54 105.585L149.476 117.095V143.025L129.54 131.515V105.585ZM163.237 125.04L183.173 136.55V162.48L163.237 150.97V125.04ZM196.934 144.495L216.87 156.005V181.935L196.934 170.425V144.495ZM10.8773 77.805V80.235V113.435L39.127 129.745V94.115L10.8773 77.805ZM44.5743 97.26V99.69V132.89L72.8241 149.2V113.57L44.5743 97.26ZM78.2714 116.715V119.145V152.345L106.521 168.655V133.025L78.2714 116.715ZM239.915 210.04V212.47V245.67L268.139 261.965V226.335L239.915 210.04ZM273.612 229.495V231.925V265.125L301.836 281.42V245.79L273.612 229.495ZM307.309 248.95V251.38V284.58L335.533 300.875V265.245L307.309 248.95ZM125.4 143.945V146.375V179.585L153.624 195.88V160.24L125.4 143.945ZM159.089 163.395V165.825V199.035L187.321 215.335V179.695L159.089 163.395ZM192.786 182.85V185.28V218.49L221.01 234.785V199.145L192.786 182.85ZM15.0255 85.06L34.9788 96.58V122.48L15.0255 110.96V85.06ZM48.7226 104.515L68.6758 116.035V141.935L48.7226 130.415V104.515ZM82.4196 123.97L102.373 135.49V161.39L82.4196 149.87V123.97ZM244.055 217.29L263.991 228.8V254.7L244.055 243.19V217.29ZM277.752 236.745L297.688 248.255V274.155L277.752 262.645V236.745ZM311.449 256.2L331.385 267.71V293.61L311.449 282.1V256.2ZM129.54 151.205L149.476 162.715V188.615L129.54 177.105V151.205ZM163.237 170.66L183.173 182.17V208.07L163.237 196.56V170.66ZM196.934 190.115L216.87 201.625V227.525L196.934 216.015V190.115ZM10.8773 123.415V125.855V159.055L39.127 175.365V139.725L10.8773 123.415ZM44.5743 142.87V145.31V178.51L72.8241 194.82V159.18L44.5743 142.87ZM78.2714 162.325V164.765V197.965L106.521 214.275V178.635L78.2714 162.325ZM239.915 255.65V258.09V291.29L268.139 307.585V271.945L239.915 255.65ZM273.612 275.105V277.545V310.745L301.836 327.04V291.4L273.612 275.105ZM307.309 294.56V297V330.2L335.533 346.495V310.855L307.309 294.56ZM125.4 189.565V191.995V225.195L153.624 241.49V205.86L125.4 189.565ZM159.089 209.015V211.445V244.645L187.321 260.945V225.315L159.089 209.015ZM192.786 228.47V230.9V264.1L221.01 280.395V244.765L192.786 228.47ZM15.0255 130.68L34.9788 142.2V168.1L15.0255 156.58V130.68ZM48.7226 150.135L68.6758 161.655V187.555L48.7226 176.035V150.135ZM82.4196 169.59L102.373 181.11V207.01L82.4196 195.49V169.59ZM244.055 262.91L263.991 274.42V300.32L244.055 288.81V262.91ZM277.752 282.365L297.688 293.875V319.775L277.752 308.265V282.365ZM311.449 301.82L331.385 313.33V339.23L311.449 327.72V301.82ZM129.54 196.815L149.476 208.325V234.225L129.54 222.715V196.815ZM163.237 216.27L183.173 227.78V253.68L163.237 242.17V216.27ZM196.934 235.725L216.87 247.235V273.135L196.934 261.625V235.725ZM10.8773 169.005V171.445V204.665L39.127 220.975V185.315L10.8773 169.005ZM44.5743 188.46V190.9V224.12L72.8241 240.43V204.77L44.5743 188.46ZM78.2714 207.915V210.355V243.575L106.521 259.885V224.225L78.2714 207.915ZM239.915 301.24V303.68V336.9L268.139 353.195V317.535L239.915 301.24ZM273.612 320.695V323.135V356.355L301.836 372.65V336.99L273.612 320.695ZM307.309 340.15V342.59V375.81L335.533 392.105V356.445L307.309 340.15ZM15.0255 176.27L34.9788 187.79V213.72L15.0255 202.2V176.27ZM48.7226 195.725L68.6758 207.245V233.175L48.7226 221.655V195.725ZM82.4196 215.18L102.373 226.7V252.63L82.4196 241.11V215.18ZM244.055 308.5L263.991 320.01V345.94L244.055 334.43V308.5ZM277.752 327.955L297.688 339.465V365.395L277.752 353.885V327.955ZM311.449 347.41L331.385 358.92V384.85L311.449 373.34V347.41ZM113.042 30V124.54L0 59.275V244.735L2.0698 245.93L346.41 444.735V259.275L234.667 194.76V100.22L113.042 30ZM117.191 37.265L230.527 102.7V197.24L342.262 261.75V437.47L4.14826 242.26V66.54L117.191 131.805V37.265Z" fill="#8BC5E4"/>
<path fill-rule="evenodd" clip-rule="evenodd" d="M117.191 37.265L230.527 102.7V197.24L342.262 261.75V437.47L4.14826 242.26V66.54L117.191 131.805V37.265ZM125.4 55.145V52.715L153.624 69.01V104.67L125.4 88.375V55.145ZM159.089 74.595V72.165L187.321 88.465V124.125L159.089 107.825V74.595ZM192.786 94.05V91.62L221.01 107.915V143.575L192.786 127.28V94.05ZM125.4 100.765V98.325L153.624 114.62V150.28L125.4 133.985V100.765ZM159.089 120.215V117.775L187.321 134.075V169.735L159.089 153.435V120.215ZM192.786 139.67V137.23L221.01 153.525V189.185L192.786 172.89V139.67ZM10.8773 80.235V77.805L39.127 94.115V129.745L10.8773 113.435V80.235ZM44.5743 99.69V97.26L72.8241 113.57V149.2L44.5743 132.89V99.69ZM78.2714 119.145V116.715L106.521 133.025V168.655L78.2714 152.345V119.145ZM239.915 212.47V210.04L268.139 226.335V261.965L239.915 245.67V212.47ZM273.612 231.925V229.495L301.836 245.79V281.42L273.612 265.125V231.925ZM307.309 251.38V248.95L335.533 265.245V300.875L307.309 284.58V251.38ZM125.4 146.375V143.945L153.624 160.24V195.88L125.4 179.585V146.375ZM159.089 165.825V163.395L187.321 179.695V215.335L159.089 199.035V165.825ZM192.786 185.28V182.85L221.01 199.145V234.785L192.786 218.49V185.28ZM10.8773 125.855V123.415L39.127 139.725V175.365L10.8773 159.055V125.855ZM44.5743 145.31V142.87L72.8241 159.18V194.82L44.5743 178.51V145.31ZM78.2714 164.765V162.325L106.521 178.635V214.275L78.2714 197.965V164.765ZM239.915 258.09V255.65L268.139 271.945V307.585L239.915 291.29V258.09ZM273.612 277.545V275.105L301.836 291.4V327.04L273.612 310.745V277.545ZM307.309 297V294.56L335.533 310.855V346.495L307.309 330.2V297ZM125.4 191.995V189.565L153.624 205.86V241.49L125.4 225.195V191.995ZM159.089 211.445V209.015L187.321 225.315V260.945L159.089 244.645V211.445ZM192.786 230.9V228.47L221.01 244.765V280.395L192.786 264.1V230.9ZM10.8773 171.445V169.005L39.127 185.315V220.975L10.8773 204.665V171.445ZM44.5743 190.9V188.46L72.8241 204.77V240.43L44.5743 224.12V190.9ZM78.2714 210.355V207.915L106.521 224.225V259.885L78.2714 243.575V210.355ZM239.915 303.68V301.24L268.139 317.535V353.195L239.915 336.9V303.68ZM273.612 323.135V320.695L301.836 336.99V372.65L273.612 356.355V323.135ZM307.309 342.59V340.15L335.533 356.445V392.105L307.309 375.81V342.59Z" fill="white"/>
</svg>
