<svg width="182" height="297" viewBox="0 0 182 297" fill="none" xmlns="http://www.w3.org/2000/svg">
<path fill-rule="evenodd" clip-rule="evenodd" d="M70.9536 245.557L122.915 215.557L70.9536 245.557Z" fill="#8BC5E4"/>
<path fill-rule="evenodd" clip-rule="evenodd" d="M68.061 80.9769L120.023 50.9769L68.061 80.9769Z" fill="#8BC5E4"/>
<path fill-rule="evenodd" clip-rule="evenodd" d="M12.436 58.7219L117.615 119.447L169.576 89.4469L64.3976 28.7219L12.436 58.7219Z" fill="#8BC5E4"/>
<path fill-rule="evenodd" clip-rule="evenodd" d="M117.615 119.447V258.297L169.576 228.297V89.4469L117.615 119.447Z" fill="#8BC5E4"/>
<path fill-rule="evenodd" clip-rule="evenodd" d="M117.615 258.297L12.436 197.572L64.3976 167.572L169.576 228.297L117.615 258.297Z" fill="#8BC5E4"/>
<path fill-rule="evenodd" clip-rule="evenodd" d="M12.436 197.572V58.7219L64.3976 28.7219V167.572L12.436 197.572Z" fill="#8BC5E4"/>
<path fill-rule="evenodd" clip-rule="evenodd" d="M12.436 58.7219L64.3976 28.7219L12.436 58.7219Z" fill="#8BC5E4"/>
<path fill-rule="evenodd" clip-rule="evenodd" d="M0 37.3619V213.802L51.9615 183.802V7.36194L0 37.3619Z" fill="#8BC5E4"/>
<path fill-rule="evenodd" clip-rule="evenodd" d="M9.91602 231.307L119.988 294.857L171.949 264.857L61.8775 201.307L9.91602 231.307Z" fill="#8BC5E4"/>
<path fill-rule="evenodd" clip-rule="evenodd" d="M129.904 288.802V112.362L181.865 82.3619V258.802L129.904 288.802Z" fill="#8BC5E4"/>
<path fill-rule="evenodd" clip-rule="evenodd" d="M119.988 94.8569L9.91602 31.3069L61.8775 1.30688L171.949 64.8569L119.988 94.8569Z" fill="#8BC5E4"/>
<path fill-rule="evenodd" clip-rule="evenodd" d="M9.91602 31.3069L61.8775 1.30688L9.91602 31.3069Z" fill="#8BC5E4"/>
<path fill-rule="evenodd" clip-rule="evenodd" d="M9.91602 37.9269L119.988 101.477L171.949 71.4769L61.8775 7.92688L9.91602 37.9269Z" fill="#8BC5E4"/>
<path fill-rule="evenodd" clip-rule="evenodd" d="M124.335 109.147V285.587L176.297 255.587V79.1469L124.335 109.147Z" fill="#8BC5E4"/>
<path fill-rule="evenodd" clip-rule="evenodd" d="M119.988 288.237L9.91602 224.687L61.8775 194.687L171.949 258.237L119.988 288.237Z" fill="#8BC5E4"/>
<path fill-rule="evenodd" clip-rule="evenodd" d="M5.56836 217.017V40.5769L57.5299 10.5769V187.017L5.56836 217.017Z" fill="#8BC5E4"/>
<path fill-rule="evenodd" clip-rule="evenodd" d="M9.91602 37.9269L61.8775 7.92688L9.91602 37.9269Z" fill="#8BC5E4"/>
<path fill-rule="evenodd" clip-rule="evenodd" d="M70.9533 245.557C70.9533 247.467 70.3288 248.84 69.3096 249.537L121.271 219.537C122.29 218.84 122.915 217.467 122.915 215.557L70.9533 245.557Z" fill="#8BC5E4"/>
<path fill-rule="evenodd" clip-rule="evenodd" d="M69.3097 249.537C68.2055 250.292 66.6382 250.256 64.8999 249.252L116.861 219.252C118.6 220.256 120.167 220.292 121.271 219.537L69.3097 249.537Z" fill="#8BC5E4"/>
<path fill-rule="evenodd" clip-rule="evenodd" d="M64.9001 249.252C61.5572 247.322 58.8379 242.542 58.8379 238.562L110.799 208.562C110.799 212.542 113.519 217.322 116.862 219.252L64.9001 249.252Z" fill="#8BC5E4"/>
<path fill-rule="evenodd" clip-rule="evenodd" d="M58.8379 238.562C58.8379 236.652 59.4701 235.187 60.6132 234.497L112.575 204.497C111.432 205.187 110.799 206.652 110.799 208.562L58.8379 238.562Z" fill="#8BC5E4"/>
<path fill-rule="evenodd" clip-rule="evenodd" d="M60.6133 234.497C61.7478 233.802 63.2893 233.932 64.9001 234.862L116.862 204.862C115.251 203.932 113.709 203.802 112.575 204.497L60.6133 234.497Z" fill="#8BC5E4"/>
<path fill-rule="evenodd" clip-rule="evenodd" d="M64.8999 234.862C66.502 235.787 68.0436 237.437 69.1781 239.442L121.14 209.442C120.005 207.437 118.464 205.787 116.861 204.862L64.8999 234.862Z" fill="#8BC5E4"/>
<path fill-rule="evenodd" clip-rule="evenodd" d="M69.1782 239.442C70.3214 241.452 70.9536 243.647 70.9536 245.557L122.915 215.557C122.915 213.647 122.283 211.452 121.14 209.442L69.1782 239.442Z" fill="#8BC5E4"/>
<path fill-rule="evenodd" clip-rule="evenodd" d="M68.0611 80.9769C68.0611 81.9945 67.7279 82.7276 67.1841 83.1009L119.146 53.1009C119.689 52.7276 120.023 51.9945 120.023 50.9769L68.0611 80.9769Z" fill="#8BC5E4"/>
<path fill-rule="evenodd" clip-rule="evenodd" d="M67.1838 83.1009C66.5946 83.5053 65.7583 83.4875 64.8306 82.9519L116.792 52.9519C117.72 53.4875 118.556 53.5053 119.145 53.1009L67.1838 83.1009Z" fill="#8BC5E4"/>
<path fill-rule="evenodd" clip-rule="evenodd" d="M64.8309 82.952C63.0469 81.922 61.6006 79.3669 61.6006 77.2469L113.562 47.2469C113.562 49.3669 115.008 51.922 116.792 52.952L64.8309 82.952Z" fill="#8BC5E4"/>
<path fill-rule="evenodd" clip-rule="evenodd" d="M61.6006 77.2469C61.6006 76.2269 61.9383 75.4519 62.5446 75.0819L114.506 45.0819C113.9 45.4519 113.562 46.2269 113.562 47.2469L61.6006 77.2469Z" fill="#8BC5E4"/>
<path fill-rule="evenodd" clip-rule="evenodd" d="M62.5444 75.0819C63.1507 74.7119 63.9734 74.7769 64.8307 75.2719L116.792 45.2719C115.935 44.7769 115.112 44.7119 114.506 45.0819L62.5444 75.0819Z" fill="#8BC5E4"/>
<path fill-rule="evenodd" clip-rule="evenodd" d="M64.8306 75.2719C65.6879 75.7669 66.5107 76.6519 67.1169 77.7219L119.078 47.7219C118.472 46.6519 117.649 45.7669 116.792 45.2719L64.8306 75.2719Z" fill="#8BC5E4"/>
<path fill-rule="evenodd" clip-rule="evenodd" d="M67.1172 77.7219C67.7234 78.7919 68.0612 79.9569 68.0612 80.9769L120.023 50.9769C120.023 49.9569 119.685 48.7919 119.079 47.7219L67.1172 77.7219Z" fill="#8BC5E4"/>
<path fill-rule="evenodd" clip-rule="evenodd" d="M9.916 31.3069C7.3013 29.7973 4.91206 29.6413 3.13428 30.6028L55.0958 0.602825C56.8736 -0.358661 59.2628 -0.202661 61.8775 1.30694L9.916 31.3069Z" fill="#8BC5E4"/>
<path fill-rule="evenodd" clip-rule="evenodd" d="M3.13427 30.6028C1.20833 31.6444 0 33.9975 0 37.3619L51.9615 7.3619C51.9615 3.9975 53.1699 1.64439 55.0958 0.602783L3.13427 30.6028Z" fill="#8BC5E4"/>
<path fill-rule="evenodd" clip-rule="evenodd" d="M0 213.802C0 220.262 4.46869 228.162 9.91599 231.307L61.8775 201.307C56.4302 198.162 51.9615 190.262 51.9615 183.802L0 213.802Z" fill="#8BC5E4"/>
<path fill-rule="evenodd" clip-rule="evenodd" d="M119.988 294.857C122.602 296.367 124.992 296.52 126.77 295.557L178.731 265.557C176.953 266.52 174.564 266.367 171.949 264.857L119.988 294.857Z" fill="#8BC5E4"/>
<path fill-rule="evenodd" clip-rule="evenodd" d="M126.77 295.557C128.695 294.514 129.904 292.161 129.904 288.802L181.865 258.802C181.865 262.161 180.657 264.514 178.731 265.557L126.77 295.557Z" fill="#8BC5E4"/>
<path fill-rule="evenodd" clip-rule="evenodd" d="M129.904 112.362C129.904 105.892 125.435 98.0019 119.988 94.8569L171.949 64.8569C177.397 68.0019 181.865 75.8919 181.865 82.3619L129.904 112.362Z" fill="#8BC5E4"/>
<path fill-rule="evenodd" clip-rule="evenodd" d="M119.988 101.477C122.439 102.892 124.335 106.237 124.335 109.147L176.297 79.1469C176.297 76.2369 174.4 72.8919 171.949 71.4769L119.988 101.477Z" fill="#8BC5E4"/>
<path fill-rule="evenodd" clip-rule="evenodd" d="M124.335 285.587C124.335 286.984 123.898 287.976 123.173 288.474L175.134 258.474C175.86 257.976 176.297 256.984 176.297 255.587L124.335 285.587Z" fill="#8BC5E4"/>
<path fill-rule="evenodd" clip-rule="evenodd" d="M123.173 288.474C122.387 289.014 121.262 288.973 119.988 288.237L171.949 258.237C173.224 258.973 174.348 259.014 175.134 258.474L123.173 288.474Z" fill="#8BC5E4"/>
<path fill-rule="evenodd" clip-rule="evenodd" d="M9.91581 224.687C7.46495 223.272 5.56836 219.927 5.56836 217.017L57.5299 187.017C57.5299 189.927 59.4265 193.272 61.8773 194.687L9.91581 224.687Z" fill="#8BC5E4"/>
<path fill-rule="evenodd" clip-rule="evenodd" d="M5.56836 40.5769C5.56836 39.1801 6.00533 38.1877 6.73083 37.6897L58.6924 7.6897C57.9669 8.18766 57.5299 9.18011 57.5299 10.5769L5.56836 40.5769Z" fill="#8BC5E4"/>
<path fill-rule="evenodd" clip-rule="evenodd" d="M6.73096 37.6897C7.51691 37.1502 8.64149 37.1911 9.91593 37.9269L61.8775 7.92687C60.603 7.19107 59.4784 7.1502 58.6925 7.68966L6.73096 37.6897Z" fill="#8BC5E4"/>
<path d="M70.9535 245.557C70.9535 249.537 68.2428 251.182 64.8999 249.252C61.5571 247.322 58.8378 242.542 58.8378 238.562C58.8378 236.652 59.47 235.187 60.6131 234.497C61.7476 233.802 63.2891 233.932 64.8999 234.862C66.5021 235.787 68.0436 237.437 69.1781 239.442C70.3213 241.452 70.9535 243.647 70.9535 245.557ZM68.0609 80.9769C68.0609 83.0969 66.6147 83.9819 64.8307 82.9519C63.0467 81.9219 61.6004 79.3669 61.6004 77.2469C61.6004 76.2269 61.9381 75.4519 62.5444 75.0819C63.1506 74.7119 63.9733 74.7769 64.8307 75.2719C65.688 75.7669 66.5107 76.6519 67.117 77.7219C67.7232 78.7919 68.0609 79.9569 68.0609 80.9769ZM12.4361 58.7219L117.615 119.447V258.297L12.4361 197.572V58.7219ZM9.91599 31.3069C4.46869 28.1619 0 30.8919 0 37.3619V213.802C0 220.262 4.46869 228.162 9.91599 231.307L119.988 294.857C125.435 298.002 129.904 295.262 129.904 288.802V112.362C129.904 105.892 125.435 98.0019 119.988 94.8569L9.91599 31.3069ZM9.91599 37.9269L119.988 101.477C122.439 102.892 124.335 106.237 124.335 109.147V285.587C124.335 288.497 122.439 289.652 119.988 288.237L9.91599 224.687C7.46514 223.272 5.56854 219.927 5.56854 217.017V40.5769C5.56854 37.6669 7.46514 36.5119 9.91599 37.9269Z" fill="#8BC5E4"/>
<path fill-rule="evenodd" clip-rule="evenodd" d="M9.91599 37.9269L119.988 101.477C122.439 102.892 124.335 106.237 124.335 109.147V285.587C124.335 288.497 122.439 289.652 119.988 288.237L9.91599 224.687C7.46514 223.272 5.56854 219.927 5.56854 217.017V40.5769C5.56854 37.6669 7.46514 36.5119 9.91599 37.9269ZM64.8999 249.252C68.2428 251.182 70.9535 249.537 70.9535 245.557C70.9535 243.647 70.3213 241.452 69.1781 239.442C68.0436 237.437 66.5021 235.787 64.8999 234.862C63.2891 233.932 61.7476 233.802 60.6131 234.497C59.47 235.187 58.8378 236.652 58.8378 238.562C58.8378 242.542 61.5571 247.322 64.8999 249.252ZM64.8307 82.9519C66.6147 83.9819 68.0609 83.0969 68.0609 80.9769C68.0609 79.9569 67.7232 78.7919 67.117 77.7219C66.5107 76.6519 65.688 75.7669 64.8307 75.2719C63.9733 74.7769 63.1506 74.7119 62.5444 75.0819C61.9381 75.4519 61.6004 76.2269 61.6004 77.2469C61.6004 79.3669 63.0467 81.9219 64.8307 82.9519ZM117.615 119.447L12.4361 58.7219V197.572L117.615 258.297V119.447Z" fill="white"/>
</svg>
