<svg width="226" height="213" viewBox="0 0 226 213" fill="none" xmlns="http://www.w3.org/2000/svg">
<path fill-rule="evenodd" clip-rule="evenodd" d="M110.773 30L88.7848 67.105L36.8232 37.105L58.8116 0L110.773 30Z" fill="#8BC5E4"/>
<path fill-rule="evenodd" clip-rule="evenodd" d="M88.7848 67.1052V52.2852L36.8232 22.2852V37.1052L88.7848 67.1052Z" fill="#8BC5E4"/>
<path fill-rule="evenodd" clip-rule="evenodd" d="M88.785 52.2852L71.6637 62.1702L19.7021 32.1702L36.8235 22.2852L88.785 52.2852Z" fill="#8BC5E4"/>
<path fill-rule="evenodd" clip-rule="evenodd" d="M71.6637 62.1702V96.3102L19.7021 66.3102V32.1702L71.6637 62.1702Z" fill="#8BC5E4"/>
<path fill-rule="evenodd" clip-rule="evenodd" d="M71.6636 96.3101L51.9615 129.465L0 99.4651L19.7021 66.3101L71.6636 96.3101Z" fill="#8BC5E4"/>
<path fill-rule="evenodd" clip-rule="evenodd" d="M51.9615 129.465L63.1419 123.01L11.1804 93.01L0 99.465L51.9615 129.465Z" fill="#8BC5E4"/>
<path fill-rule="evenodd" clip-rule="evenodd" d="M63.1417 123.01V210.41L11.1802 180.41V93.01L63.1417 123.01Z" fill="#8BC5E4"/>
<path fill-rule="evenodd" clip-rule="evenodd" d="M63.1417 210.41L113.466 181.355L61.5049 151.355L11.1802 180.41L63.1417 210.41Z" fill="#8BC5E4"/>
<path fill-rule="evenodd" clip-rule="evenodd" d="M113.466 181.355V197.515L61.5049 167.515V151.355L113.466 181.355Z" fill="#8BC5E4"/>
<path fill-rule="evenodd" clip-rule="evenodd" d="M124.517 203.365L158.855 183.54L106.894 153.54L72.5557 173.365L124.517 203.365Z" fill="#8BC5E4"/>
<path fill-rule="evenodd" clip-rule="evenodd" d="M158.855 183.54V191.74L106.894 161.74V153.54L158.855 183.54Z" fill="#8BC5E4"/>
<path fill-rule="evenodd" clip-rule="evenodd" d="M158.855 191.74L143.76 200.455L91.7988 170.455L106.894 161.74L158.855 191.74Z" fill="#8BC5E4"/>
<path fill-rule="evenodd" clip-rule="evenodd" d="M143.76 210.925L194.873 181.415L142.912 151.415L91.7988 180.925L143.76 210.925Z" fill="#8BC5E4"/>
<path fill-rule="evenodd" clip-rule="evenodd" d="M194.873 170.945L179.778 179.66L127.816 149.66L142.911 140.945L194.873 170.945Z" fill="#8BC5E4"/>
<path fill-rule="evenodd" clip-rule="evenodd" d="M179.778 179.66V171.46L127.816 141.46V149.66L179.778 179.66Z" fill="#8BC5E4"/>
<path fill-rule="evenodd" clip-rule="evenodd" d="M179.778 171.46L214.116 151.635L162.154 121.635L127.816 141.46L179.778 171.46Z" fill="#8BC5E4"/>
<path fill-rule="evenodd" clip-rule="evenodd" d="M225.167 133.025V76.2952L173.205 46.2952V103.025L225.167 133.025Z" fill="#8BC5E4"/>
<path fill-rule="evenodd" clip-rule="evenodd" d="M214.116 70.4451L158.682 102.45L106.72 72.4501L162.155 40.4451L214.116 70.4451Z" fill="#8BC5E4"/>
<path fill-rule="evenodd" clip-rule="evenodd" d="M158.682 102.45V67.8501L106.72 37.8501V72.4501L158.682 102.45Z" fill="#8BC5E4"/>
<path fill-rule="evenodd" clip-rule="evenodd" d="M158.682 67.85L169.594 61.55L117.632 31.55L106.72 37.85L158.682 67.85Z" fill="#8BC5E4"/>
<path fill-rule="evenodd" clip-rule="evenodd" d="M169.593 61.55L110.773 30L58.8115 0L117.632 31.55L169.593 61.55Z" fill="#8BC5E4"/>
<path fill-rule="evenodd" clip-rule="evenodd" d="M110.773 30L58.8115 0L110.773 30Z" fill="#8BC5E4"/>
<path fill-rule="evenodd" clip-rule="evenodd" d="M68.8141 119.735L153 71.1301L101.039 41.1301L16.8525 89.7351L68.8141 119.735Z" fill="#8BC5E4"/>
<path fill-rule="evenodd" clip-rule="evenodd" d="M153.001 71.1301V105.73L101.039 75.7301V41.1301L153.001 71.1301Z" fill="#8BC5E4"/>
<path fill-rule="evenodd" clip-rule="evenodd" d="M153.001 105.73L124.517 122.175L72.5557 92.175L101.039 75.73L153.001 105.73Z" fill="#8BC5E4"/>
<path fill-rule="evenodd" clip-rule="evenodd" d="M113.466 140.785V175.075L61.5049 145.075V110.785L113.466 140.785Z" fill="#8BC5E4"/>
<path fill-rule="evenodd" clip-rule="evenodd" d="M113.466 175.075L68.8141 200.855L16.8525 170.855L61.5048 145.075L113.466 175.075Z" fill="#8BC5E4"/>
<path fill-rule="evenodd" clip-rule="evenodd" d="M68.8141 200.855V119.735L16.8525 89.7351V170.855L68.8141 200.855Z" fill="#8BC5E4"/>
<path fill-rule="evenodd" clip-rule="evenodd" d="M68.8141 119.735L16.8525 89.7351L68.8141 119.735Z" fill="#8BC5E4"/>
<path fill-rule="evenodd" clip-rule="evenodd" d="M124.517 128.455L214.116 76.7251L162.155 46.7251L72.5557 98.4551L124.517 128.455Z" fill="#8BC5E4"/>
<path fill-rule="evenodd" clip-rule="evenodd" d="M219.485 79.5752V136.305L167.524 106.305V49.5752L219.485 79.5752Z" fill="#8BC5E4"/>
<path fill-rule="evenodd" clip-rule="evenodd" d="M214.116 145.355L124.517 197.085L72.5557 167.085L162.155 115.355L214.116 145.355Z" fill="#8BC5E4"/>
<path fill-rule="evenodd" clip-rule="evenodd" d="M119.148 194.235V137.505L67.186 107.505V164.235L119.148 194.235Z" fill="#8BC5E4"/>
<path fill-rule="evenodd" clip-rule="evenodd" d="M124.517 128.455L72.5557 98.4551L124.517 128.455Z" fill="#8BC5E4"/>
<path fill-rule="evenodd" clip-rule="evenodd" d="M126.907 133.685V188.865L74.9458 158.865V103.685L126.907 133.685Z" fill="#8BC5E4"/>
<path fill-rule="evenodd" clip-rule="evenodd" d="M126.907 188.865L211.726 139.895L159.764 109.895L74.9458 158.865L126.907 188.865Z" fill="#8BC5E4"/>
<path fill-rule="evenodd" clip-rule="evenodd" d="M211.726 139.895V84.7151L159.764 54.7151V109.895L211.726 139.895Z" fill="#8BC5E4"/>
<path fill-rule="evenodd" clip-rule="evenodd" d="M211.726 84.7151L126.907 133.685L74.9458 103.685L159.764 54.7151L211.726 84.7151Z" fill="#8BC5E4"/>
<path fill-rule="evenodd" clip-rule="evenodd" d="M126.907 133.685L74.9458 103.685L126.907 133.685Z" fill="#8BC5E4"/>
<path fill-rule="evenodd" clip-rule="evenodd" d="M113.466 197.515C113.466 200.741 114.614 203.025 116.478 204.141L64.5168 174.141C62.6522 173.025 61.5049 170.741 61.5049 167.515L113.466 197.515Z" fill="#8BC5E4"/>
<path fill-rule="evenodd" clip-rule="evenodd" d="M116.479 204.141C118.499 205.35 121.36 205.188 124.517 203.365L72.5557 173.365C69.3988 175.188 66.5371 175.35 64.5171 174.141L116.479 204.141Z" fill="#8BC5E4"/>
<path fill-rule="evenodd" clip-rule="evenodd" d="M143.76 200.455C141.145 201.965 139.023 205.53 139.023 208.42L87.0615 178.42C87.0615 175.53 89.1833 171.965 91.7987 170.455L143.76 200.455Z" fill="#8BC5E4"/>
<path fill-rule="evenodd" clip-rule="evenodd" d="M139.023 208.42C139.023 209.812 139.512 210.793 140.31 211.269L88.348 181.269C87.5504 180.793 87.0615 179.812 87.0615 178.42L139.023 208.42Z" fill="#8BC5E4"/>
<path fill-rule="evenodd" clip-rule="evenodd" d="M140.31 211.269C141.174 211.786 142.4 211.71 143.76 210.925L91.7988 180.925C90.4388 181.71 89.2123 181.786 88.3481 181.269L140.31 211.269Z" fill="#8BC5E4"/>
<path fill-rule="evenodd" clip-rule="evenodd" d="M194.873 181.415C197.489 179.905 199.602 176.345 199.602 173.445L147.64 143.445C147.64 146.345 145.527 149.905 142.912 151.415L194.873 181.415Z" fill="#8BC5E4"/>
<path fill-rule="evenodd" clip-rule="evenodd" d="M199.601 173.445C199.601 172.058 199.115 171.079 198.319 170.602L146.357 140.602C147.153 141.079 147.64 142.058 147.64 143.445L199.601 173.445Z" fill="#8BC5E4"/>
<path fill-rule="evenodd" clip-rule="evenodd" d="M198.319 170.602C197.457 170.086 196.233 170.16 194.873 170.945L142.912 140.945C144.272 140.16 145.496 140.086 146.358 140.602L198.319 170.602Z" fill="#8BC5E4"/>
<path fill-rule="evenodd" clip-rule="evenodd" d="M214.116 151.635C220.187 148.13 225.166 139.745 225.166 133.025L173.205 103.025C173.205 109.745 168.225 118.13 162.154 121.635L214.116 151.635Z" fill="#8BC5E4"/>
<path fill-rule="evenodd" clip-rule="evenodd" d="M225.166 76.2952C225.166 73.0696 224.019 70.7852 222.154 69.6692L170.193 39.6692C172.057 40.7852 173.205 43.0696 173.205 46.2952L225.166 76.2952Z" fill="#8BC5E4"/>
<path fill-rule="evenodd" clip-rule="evenodd" d="M222.154 69.669C220.134 68.4601 217.273 68.6224 214.116 70.445L162.154 40.445C165.311 38.6224 168.173 38.4601 170.193 39.669L222.154 69.669Z" fill="#8BC5E4"/>
<path fill-rule="evenodd" clip-rule="evenodd" d="M124.517 122.175C118.446 125.68 113.466 134.065 113.466 140.785L61.5049 110.785C61.5049 104.065 66.4845 95.68 72.5554 92.175L124.517 122.175Z" fill="#8BC5E4"/>
<path fill-rule="evenodd" clip-rule="evenodd" d="M214.116 76.7251C215.567 75.8875 216.862 75.7388 217.816 76.1811L165.855 46.1811C164.9 45.7388 163.605 45.8875 162.154 46.7251L214.116 76.7251Z" fill="#8BC5E4"/>
<path fill-rule="evenodd" clip-rule="evenodd" d="M217.817 76.1812C218.851 76.6603 219.485 77.8331 219.485 79.5751L167.524 49.5751C167.524 47.8331 166.889 46.6603 165.855 46.1812L217.817 76.1812Z" fill="#8BC5E4"/>
<path fill-rule="evenodd" clip-rule="evenodd" d="M219.485 136.305C219.485 139.655 217.138 143.61 214.116 145.355L162.154 115.355C165.177 113.61 167.524 109.655 167.524 106.305L219.485 136.305Z" fill="#8BC5E4"/>
<path fill-rule="evenodd" clip-rule="evenodd" d="M124.517 197.085C123.066 197.923 121.771 198.071 120.817 197.629L68.855 167.629C69.8096 168.071 71.1048 167.923 72.5555 167.085L124.517 197.085Z" fill="#8BC5E4"/>
<path fill-rule="evenodd" clip-rule="evenodd" d="M120.816 197.629C119.782 197.15 119.148 195.977 119.148 194.235L67.186 164.235C67.186 165.977 67.8206 167.15 68.8548 167.629L120.816 197.629Z" fill="#8BC5E4"/>
<path fill-rule="evenodd" clip-rule="evenodd" d="M119.148 137.505C119.148 134.155 121.494 130.2 124.517 128.455L72.5554 98.4551C69.533 100.2 67.186 104.155 67.186 107.505L119.148 137.505Z" fill="#8BC5E4"/>
<path fill-rule="evenodd" clip-rule="evenodd" d="M110.773 30L88.7848 67.105V52.285L71.6635 62.17V96.31L51.9614 129.465L63.1418 123.01V210.41L113.467 181.355V197.515C113.467 204.235 118.446 206.87 124.517 203.365L158.855 183.54V191.74L143.76 200.455C141.145 201.965 139.023 205.53 139.023 208.42C139.023 211.32 141.145 212.435 143.76 210.925L194.873 181.415C197.488 179.905 199.601 176.345 199.601 173.445C199.601 170.555 197.488 169.435 194.873 170.945L179.778 179.66V171.46L214.116 151.635C220.187 148.13 225.167 139.745 225.167 133.025V76.295C225.167 69.575 220.187 66.94 214.116 70.445L158.682 102.45V67.85L169.594 61.55L110.773 30ZM153.001 71.13L68.8143 119.735V200.855L113.467 175.075V140.785C113.467 134.065 118.446 125.68 124.517 122.175L153.001 105.73V71.13ZM214.116 76.725L124.517 128.455C121.495 130.2 119.148 134.155 119.148 137.505V194.235C119.148 197.585 121.495 198.83 124.517 197.085L214.116 145.355C217.138 143.61 219.485 139.655 219.485 136.305V79.575C219.485 76.225 217.138 74.98 214.116 76.725Z" fill="white"/>
<path d="M126.907 133.685V188.865L211.726 139.895V84.715L126.907 133.685Z" fill="white"/>
<path fill-rule="evenodd" clip-rule="evenodd" d="M110.773 30L88.7848 67.105V52.285L71.6635 62.17V96.31L51.9614 129.465L63.1418 123.01V210.41L113.467 181.355V197.515C113.467 204.235 118.446 206.87 124.517 203.365L158.855 183.54V191.74L143.76 200.455C141.145 201.965 139.023 205.53 139.023 208.42C139.023 211.32 141.145 212.435 143.76 210.925L194.873 181.415C197.488 179.905 199.601 176.345 199.601 173.445C199.601 170.555 197.488 169.435 194.873 170.945L179.778 179.66V171.46L214.116 151.635C220.187 148.13 225.167 139.745 225.167 133.025V76.295C225.167 69.575 220.187 66.94 214.116 70.445L158.682 102.45V67.85L169.594 61.55L110.773 30ZM153.001 71.13L68.8143 119.735V200.855L113.467 175.075V140.785C113.467 134.065 118.446 125.68 124.517 122.175L153.001 105.73V71.13ZM214.116 76.725L124.517 128.455C121.495 130.2 119.148 134.155 119.148 137.505V194.235C119.148 197.585 121.495 198.83 124.517 197.085L214.116 145.355C217.138 143.61 219.485 139.655 219.485 136.305V79.575C219.485 76.225 217.138 74.98 214.116 76.725Z" stroke="#8BC5E4"/>
<path d="M126.907 133.685V188.865L211.726 139.895V84.715L126.907 133.685Z" stroke="#8BC5E4"/>
</svg>
