<svg width="226" height="252" viewBox="0 0 226 252" fill="none" xmlns="http://www.w3.org/2000/svg">
<path fill-rule="evenodd" clip-rule="evenodd" d="M25.9375 132.943L27.557 133.878L79.5185 103.878L77.899 102.943L25.9375 132.943Z" fill="#8BC5E4"/>
<path fill-rule="evenodd" clip-rule="evenodd" d="M27.5571 133.878L145.718 202.098L197.679 172.098L79.5187 103.878L27.5571 133.878Z" fill="#8BC5E4"/>
<path fill-rule="evenodd" clip-rule="evenodd" d="M145.717 202.098L147.467 203.108L199.428 173.108L197.679 172.098L145.717 202.098Z" fill="#8BC5E4"/>
<path fill-rule="evenodd" clip-rule="evenodd" d="M151.424 207.813L170.849 240.728L222.811 210.728L203.386 177.813L151.424 207.813Z" fill="#8BC5E4"/>
<path fill-rule="evenodd" clip-rule="evenodd" d="M170.85 240.728V245.868L222.811 215.868V210.728L170.85 240.728Z" fill="#8BC5E4"/>
<path fill-rule="evenodd" clip-rule="evenodd" d="M165.853 248.043L7.49121 156.613L59.4527 126.613L217.814 218.043L165.853 248.043Z" fill="#8BC5E4"/>
<path fill-rule="evenodd" clip-rule="evenodd" d="M2.35547 148.158V143.648L54.317 113.648V118.158L2.35547 148.158Z" fill="#8BC5E4"/>
<path fill-rule="evenodd" clip-rule="evenodd" d="M2.35547 143.648L23.0362 132.708L74.9977 102.708L54.317 113.648L2.35547 143.648Z" fill="#8BC5E4"/>
<path fill-rule="evenodd" clip-rule="evenodd" d="M25.9375 132.943L77.899 102.943L25.9375 132.943Z" fill="#8BC5E4"/>
<path fill-rule="evenodd" clip-rule="evenodd" d="M27.5571 33.7581L145.718 101.978L197.679 71.9781L79.5187 3.75806L27.5571 33.7581Z" fill="#8BC5E4"/>
<path fill-rule="evenodd" clip-rule="evenodd" d="M150.706 110.748V196.288L202.667 166.288V80.7482L150.706 110.748Z" fill="#8BC5E4"/>
<path fill-rule="evenodd" clip-rule="evenodd" d="M145.718 199.318L27.5571 131.098L79.5187 101.098L197.679 169.318L145.718 199.318Z" fill="#8BC5E4"/>
<path fill-rule="evenodd" clip-rule="evenodd" d="M22.5771 122.313V36.7731L74.5387 6.77307V92.3131L22.5771 122.313Z" fill="#8BC5E4"/>
<path fill-rule="evenodd" clip-rule="evenodd" d="M27.5571 33.7581L79.5187 3.75806L27.5571 33.7581Z" fill="#8BC5E4"/>
<path fill-rule="evenodd" clip-rule="evenodd" d="M20.2217 35.4131V120.953L72.1832 90.9531V5.41309L20.2217 35.4131Z" fill="#8BC5E4"/>
<path fill-rule="evenodd" clip-rule="evenodd" d="M21.4773 129.708L21.46 129.718L73.4215 99.7181L73.4388 99.7081L21.4773 129.708Z" fill="#8BC5E4"/>
<path fill-rule="evenodd" clip-rule="evenodd" d="M21.4601 129.718L0 141.088L51.9615 111.088L73.4216 99.7181L21.4601 129.718Z" fill="#8BC5E4"/>
<path fill-rule="evenodd" clip-rule="evenodd" d="M0 141.088V146.798L51.9615 116.798V111.088L0 141.088Z" fill="#8BC5E4"/>
<path fill-rule="evenodd" clip-rule="evenodd" d="M7.49121 159.393L165.853 250.823L217.814 220.823L59.4527 129.393L7.49121 159.393Z" fill="#8BC5E4"/>
<path fill-rule="evenodd" clip-rule="evenodd" d="M173.205 247.228V240.888L225.167 210.888V217.228L173.205 247.228Z" fill="#8BC5E4"/>
<path fill-rule="evenodd" clip-rule="evenodd" d="M173.205 240.888L152.94 206.558L204.901 176.558L225.166 210.888L173.205 240.888Z" fill="#8BC5E4"/>
<path fill-rule="evenodd" clip-rule="evenodd" d="M152.94 206.558L152.897 206.483L204.858 176.483L204.902 176.558L152.94 206.558Z" fill="#8BC5E4"/>
<path fill-rule="evenodd" clip-rule="evenodd" d="M153.062 197.658V112.108L205.023 82.1082V167.658L153.062 197.658Z" fill="#8BC5E4"/>
<path fill-rule="evenodd" clip-rule="evenodd" d="M145.718 99.1982L27.5571 30.9781L79.5187 0.978149L197.679 69.1982L145.718 99.1982Z" fill="#8BC5E4"/>
<path fill-rule="evenodd" clip-rule="evenodd" d="M27.5571 30.9781L79.5187 0.978149L27.5571 30.9781Z" fill="#8BC5E4"/>
<path fill-rule="evenodd" clip-rule="evenodd" d="M29.1592 42.5931L143.786 108.773L195.748 78.7731L81.1207 12.5931L29.1592 42.5931Z" fill="#8BC5E4"/>
<path fill-rule="evenodd" clip-rule="evenodd" d="M143.786 108.773V190.373L195.748 160.373V78.7731L143.786 108.773Z" fill="#8BC5E4"/>
<path fill-rule="evenodd" clip-rule="evenodd" d="M143.786 190.373L29.1592 124.193L81.1207 94.1931L195.748 160.373L143.786 190.373Z" fill="#8BC5E4"/>
<path fill-rule="evenodd" clip-rule="evenodd" d="M29.1592 124.193V42.5931L81.1207 12.5931V94.1931L29.1592 124.193Z" fill="#8BC5E4"/>
<path fill-rule="evenodd" clip-rule="evenodd" d="M29.1592 42.5931L81.1207 12.5931L29.1592 42.5931Z" fill="#8BC5E4"/>
<path fill-rule="evenodd" clip-rule="evenodd" d="M57.3223 174.983L63.3325 166.303L115.294 136.303L109.284 144.983L57.3223 174.983Z" fill="#8BC5E4"/>
<path fill-rule="evenodd" clip-rule="evenodd" d="M63.3325 166.303L110.081 193.293L162.042 163.293L115.294 136.303L63.3325 166.303Z" fill="#8BC5E4"/>
<path fill-rule="evenodd" clip-rule="evenodd" d="M110.081 193.293L116.108 208.923L168.07 178.923L162.042 163.293L110.081 193.293Z" fill="#8BC5E4"/>
<path fill-rule="evenodd" clip-rule="evenodd" d="M116.108 208.923L100.52 199.923L152.481 169.923L168.07 178.923L116.108 208.923Z" fill="#8BC5E4"/>
<path fill-rule="evenodd" clip-rule="evenodd" d="M100.52 199.923V202.053L152.481 172.053V169.923L100.52 199.923Z" fill="#8BC5E4"/>
<path fill-rule="evenodd" clip-rule="evenodd" d="M96.8129 204.543L76.0889 192.578L128.05 162.578L148.774 174.543L96.8129 204.543Z" fill="#8BC5E4"/>
<path fill-rule="evenodd" clip-rule="evenodd" d="M72.5645 186.023V183.783L124.526 153.783V156.023L72.5645 186.023Z" fill="#8BC5E4"/>
<path fill-rule="evenodd" clip-rule="evenodd" d="M72.5643 183.783L57.3223 174.983L109.284 144.983L124.526 153.783L72.5643 183.783Z" fill="#8BC5E4"/>
<path fill-rule="evenodd" clip-rule="evenodd" d="M57.3223 174.983L109.284 144.983L57.3223 174.983Z" fill="#8BC5E4"/>
<path fill-rule="evenodd" clip-rule="evenodd" d="M147.467 203.108C148.186 203.523 150.013 205.718 151.425 207.813L203.386 177.813C201.974 175.718 200.147 173.523 199.428 173.108L147.467 203.108Z" fill="#8BC5E4"/>
<path fill-rule="evenodd" clip-rule="evenodd" d="M170.849 245.868C170.849 246.959 170.418 247.821 169.7 248.308L221.661 218.308C222.38 217.821 222.811 216.959 222.811 215.868L170.849 245.868Z" fill="#8BC5E4"/>
<path fill-rule="evenodd" clip-rule="evenodd" d="M169.7 248.308C168.785 248.927 167.404 248.939 165.853 248.043L217.814 218.043C219.366 218.939 220.747 218.927 221.661 218.308L169.7 248.308Z" fill="#8BC5E4"/>
<path fill-rule="evenodd" clip-rule="evenodd" d="M7.49113 156.613C6.21808 155.878 4.89306 154.573 3.94043 153.073L55.902 123.073C56.8546 124.573 58.1796 125.878 59.4527 126.613L7.49113 156.613Z" fill="#8BC5E4"/>
<path fill-rule="evenodd" clip-rule="evenodd" d="M3.9403 153.073C2.97035 151.573 2.35547 149.928 2.35547 148.158L54.317 118.158C54.317 119.928 54.9319 121.573 55.9018 123.073L3.9403 153.073Z" fill="#8BC5E4"/>
<path fill-rule="evenodd" clip-rule="evenodd" d="M23.0361 132.708C23.729 132.398 24.9241 132.358 25.9373 132.943L77.8988 102.943C76.8856 102.358 75.6905 102.398 74.9977 102.708L23.0361 132.708Z" fill="#8BC5E4"/>
<path fill-rule="evenodd" clip-rule="evenodd" d="M145.717 101.978C148.497 103.583 150.706 107.458 150.706 110.748L202.667 80.7482C202.667 77.4582 200.459 73.5831 197.679 71.9781L145.717 101.978Z" fill="#8BC5E4"/>
<path fill-rule="evenodd" clip-rule="evenodd" d="M150.706 196.288C150.706 197.872 150.197 199.003 149.36 199.574L201.322 169.574C202.158 169.003 202.667 167.872 202.667 166.288L150.706 196.288Z" fill="#8BC5E4"/>
<path fill-rule="evenodd" clip-rule="evenodd" d="M149.36 199.574C148.454 200.192 147.163 200.153 145.717 199.318L197.679 169.318C199.124 170.153 200.415 170.192 201.322 169.574L149.36 199.574Z" fill="#8BC5E4"/>
<path fill-rule="evenodd" clip-rule="evenodd" d="M27.5568 131.098C24.7769 129.493 22.5771 125.613 22.5771 122.313L74.5387 92.3131C74.5387 95.6131 76.7384 99.4931 79.5183 101.098L27.5568 131.098Z" fill="#8BC5E4"/>
<path fill-rule="evenodd" clip-rule="evenodd" d="M22.5771 36.7731C22.5771 35.1939 23.084 34.0663 23.9185 33.498L75.88 3.49805C75.0455 4.06625 74.5387 5.19387 74.5387 6.77307L22.5771 36.7731Z" fill="#8BC5E4"/>
<path fill-rule="evenodd" clip-rule="evenodd" d="M23.9185 33.498C24.8225 32.8825 26.1112 32.9235 27.5568 33.7581L79.5183 3.75806C78.0727 2.92346 76.784 2.88249 75.88 3.49804L23.9185 33.498Z" fill="#8BC5E4"/>
<path fill-rule="evenodd" clip-rule="evenodd" d="M27.5571 30.9781C25.6158 29.8573 23.8481 29.733 22.5347 30.4354L74.4962 0.435352C75.8097 -0.267049 77.5774 -0.14273 79.5186 0.97807L27.5571 30.9781Z" fill="#8BC5E4"/>
<path fill-rule="evenodd" clip-rule="evenodd" d="M22.5345 30.4354C21.1115 31.1964 20.2217 32.9275 20.2217 35.4131L72.1832 5.41314C72.1832 2.92754 73.0731 1.19636 74.496 0.435425L22.5345 30.4354Z" fill="#8BC5E4"/>
<path fill-rule="evenodd" clip-rule="evenodd" d="M20.2217 120.953C20.2217 123.703 21.3129 126.793 23.0016 129.358L74.9631 99.3581C73.2744 96.7931 72.1832 93.7031 72.1832 90.9531L20.2217 120.953Z" fill="#8BC5E4"/>
<path fill-rule="evenodd" clip-rule="evenodd" d="M23.0017 129.358C22.4215 129.383 21.9106 129.518 21.4775 129.708L73.4391 99.7081C73.8721 99.5181 74.383 99.3832 74.9633 99.3582L23.0017 129.358Z" fill="#8BC5E4"/>
<path fill-rule="evenodd" clip-rule="evenodd" d="M0 146.798C0 149.378 0.995929 152.103 2.41621 154.333L54.3777 124.333C52.9575 122.103 51.9615 119.378 51.9615 116.798L0 146.798Z" fill="#8BC5E4"/>
<path fill-rule="evenodd" clip-rule="evenodd" d="M2.41602 154.333C3.85362 156.573 5.68093 158.348 7.49092 159.393L59.4524 129.393C57.6425 128.348 55.8151 126.573 54.3775 124.333L2.41602 154.333Z" fill="#8BC5E4"/>
<path fill-rule="evenodd" clip-rule="evenodd" d="M165.853 250.823C167.924 252.019 169.829 252.157 171.181 251.411L223.143 221.411C221.791 222.157 219.886 222.019 217.814 220.823L165.853 250.823Z" fill="#8BC5E4"/>
<path fill-rule="evenodd" clip-rule="evenodd" d="M171.181 251.411C172.429 250.723 173.205 249.282 173.205 247.228L225.167 217.228C225.167 219.282 224.39 220.723 223.143 221.411L171.181 251.411Z" fill="#8BC5E4"/>
<path fill-rule="evenodd" clip-rule="evenodd" d="M152.897 206.483C152.083 205.283 151.199 203.983 150.255 202.848L202.217 172.848C203.161 173.983 204.044 175.283 204.858 176.483L152.897 206.483Z" fill="#8BC5E4"/>
<path fill-rule="evenodd" clip-rule="evenodd" d="M150.255 202.848C150.46 202.776 150.656 202.685 150.843 202.578L202.804 172.578C202.618 172.685 202.422 172.776 202.217 172.848L150.255 202.848Z" fill="#8BC5E4"/>
<path fill-rule="evenodd" clip-rule="evenodd" d="M150.843 202.578C152.21 201.792 153.062 200.087 153.062 197.658L205.023 167.658C205.023 170.087 204.171 171.792 202.804 172.578L150.843 202.578Z" fill="#8BC5E4"/>
<path fill-rule="evenodd" clip-rule="evenodd" d="M153.061 112.108C153.061 107.328 149.762 101.533 145.717 99.1981L197.679 69.1981C201.723 71.5331 205.023 77.3281 205.023 82.1081L153.061 112.108Z" fill="#8BC5E4"/>
<path fill-rule="evenodd" clip-rule="evenodd" d="M100.52 202.053C100.52 203.197 100.042 204.128 99.3105 204.6L151.272 174.6C152.003 174.128 152.481 173.197 152.481 172.053L100.52 202.053Z" fill="#8BC5E4"/>
<path fill-rule="evenodd" clip-rule="evenodd" d="M99.3105 204.599C98.6354 205.035 97.7441 205.081 96.813 204.543L148.775 174.543C149.706 175.081 150.597 175.035 151.272 174.599L99.3105 204.599Z" fill="#8BC5E4"/>
<path fill-rule="evenodd" clip-rule="evenodd" d="M76.0892 192.578C74.1146 191.438 72.5645 188.153 72.5645 186.023L124.526 156.023C124.526 158.153 126.076 161.438 128.051 162.578L76.0892 192.578Z" fill="#8BC5E4"/>
<path d="M25.9375 132.943L27.5569 133.878L145.717 202.098L147.467 203.108C148.186 203.523 150.013 205.718 151.425 207.813L170.849 240.728V245.868C170.849 248.348 168.624 249.643 165.853 248.043L7.49112 156.613C6.21806 155.878 4.89304 154.573 3.94042 153.073C2.97047 151.573 2.35559 149.928 2.35559 148.158V143.648L23.0363 132.708C23.7291 132.398 24.9242 132.358 25.9375 132.943ZM27.5569 33.7581L145.717 101.978C148.497 103.583 150.706 107.458 150.706 110.748V196.288C150.706 199.588 148.497 200.923 145.717 199.318L27.5569 131.098C24.777 129.493 22.5773 125.613 22.5773 122.313V36.7731C22.5773 33.4831 24.777 32.1531 27.5569 33.7581ZM27.5569 30.9781C23.5126 28.6431 20.2217 30.6331 20.2217 35.4131V120.953C20.2217 123.703 21.3129 126.793 23.0016 129.358C22.4214 129.383 21.9104 129.518 21.4774 129.708L21.4601 129.718L0 141.088V146.798C0 149.378 0.995929 152.103 2.41621 154.333C3.85381 156.573 5.68113 158.348 7.49112 159.393L165.853 250.823C169.836 253.123 173.205 251.508 173.205 247.228V240.888L152.94 206.558L152.897 206.483C152.083 205.283 151.199 203.983 150.255 202.848C151.961 202.243 153.061 200.418 153.061 197.658V112.108C153.061 107.328 149.762 101.533 145.717 99.1981L27.5569 30.9781ZM29.1591 42.5931L143.786 108.773V190.373L29.1591 124.193V42.5931ZM57.3222 174.983L63.3324 166.303L110.08 193.293L116.108 208.923L100.52 199.923V202.053C100.52 204.253 98.7529 205.663 96.813 204.543L76.089 192.578C74.1144 191.438 72.5643 188.153 72.5643 186.023V183.783L57.3222 174.983Z" fill="#8BC5E4"/>
<path fill-rule="evenodd" clip-rule="evenodd" d="M27.5569 33.7581L145.717 101.978C148.497 103.583 150.706 107.458 150.706 110.748V196.288C150.706 199.588 148.497 200.923 145.717 199.318L27.5569 131.098C24.777 129.493 22.5773 125.613 22.5773 122.313V36.7731C22.5773 33.4831 24.777 32.1531 27.5569 33.7581ZM143.786 108.773L29.1591 42.5931V124.193L143.786 190.373V108.773Z" fill="white"/>
<path fill-rule="evenodd" clip-rule="evenodd" d="M25.9375 132.943L27.5569 133.878L145.717 202.098L147.467 203.108C148.186 203.523 150.013 205.718 151.425 207.813L170.849 240.728V245.868C170.849 248.348 168.624 249.643 165.853 248.043L7.49112 156.613C6.21806 155.878 4.89304 154.573 3.94042 153.073C2.97047 151.573 2.35559 149.928 2.35559 148.158V143.648L23.0363 132.708C23.7291 132.398 24.9242 132.358 25.9375 132.943ZM63.3324 166.303L57.3222 174.983L72.5643 183.783V186.023C72.5643 188.153 74.1144 191.438 76.089 192.578L96.813 204.543C98.7529 205.663 100.52 204.253 100.52 202.053V199.923L116.108 208.923L110.08 193.293L63.3324 166.303Z" fill="white"/>
</svg>
