<svg width="274" height="349" viewBox="0 0 274 349" fill="none" xmlns="http://www.w3.org/2000/svg">
<path fill-rule="evenodd" clip-rule="evenodd" d="M91.3311 134.392L94.7952 135.852L146.757 105.852L143.293 104.392L91.3311 134.392Z" fill="#8BC5E4"/>
<path fill-rule="evenodd" clip-rule="evenodd" d="M98.1641 131.447L98.5451 128.127L150.507 98.1272L150.126 101.447L98.1641 131.447Z" fill="#8BC5E4"/>
<path fill-rule="evenodd" clip-rule="evenodd" d="M95.1413 121.492L91.6772 118.772L143.639 88.7722L147.103 91.4922L95.1413 121.492Z" fill="#8BC5E4"/>
<path fill-rule="evenodd" clip-rule="evenodd" d="M91.3311 134.392L143.293 104.392L91.3311 134.392Z" fill="#8BC5E4"/>
<path fill-rule="evenodd" clip-rule="evenodd" d="M87.5811 137.037V140.917L139.543 110.917V107.037L87.5811 137.037Z" fill="#8BC5E4"/>
<path fill-rule="evenodd" clip-rule="evenodd" d="M87.5812 140.917L68.9443 130.157L120.906 100.157L139.543 110.917L87.5812 140.917Z" fill="#8BC5E4"/>
<path fill-rule="evenodd" clip-rule="evenodd" d="M73.1618 109.502L69.5938 107.012L121.555 77.0122L125.123 79.5022L73.1618 109.502Z" fill="#8BC5E4"/>
<path fill-rule="evenodd" clip-rule="evenodd" d="M73.7505 129.052L87.5809 137.037L139.542 107.037L125.712 99.0521L73.7505 129.052Z" fill="#8BC5E4"/>
<path fill-rule="evenodd" clip-rule="evenodd" d="M87.5811 137.037L139.543 107.037L87.5811 137.037Z" fill="#8BC5E4"/>
<path fill-rule="evenodd" clip-rule="evenodd" d="M60.5007 125.282L57.0366 123.282L108.998 93.2822L112.462 95.2822L60.5007 125.282Z" fill="#8BC5E4"/>
<path fill-rule="evenodd" clip-rule="evenodd" d="M57.0366 123.282V97.5422L108.998 67.5422V93.2822L57.0366 123.282Z" fill="#8BC5E4"/>
<path fill-rule="evenodd" clip-rule="evenodd" d="M50.1167 98.4172V94.5072L102.078 64.5072V68.4172L50.1167 98.4172Z" fill="#8BC5E4"/>
<path fill-rule="evenodd" clip-rule="evenodd" d="M58.2661 90.9622L60.5005 92.2522L112.462 62.2522L110.228 60.9622L58.2661 90.9622Z" fill="#8BC5E4"/>
<path fill-rule="evenodd" clip-rule="evenodd" d="M60.5005 92.2522V125.282L112.462 95.2822V62.2522L60.5005 92.2522Z" fill="#8BC5E4"/>
<path fill-rule="evenodd" clip-rule="evenodd" d="M60.5005 125.282L112.462 95.2822L60.5005 125.282Z" fill="#8BC5E4"/>
<path fill-rule="evenodd" clip-rule="evenodd" d="M33.7056 114.552V110.502L85.6671 80.5022V84.5522L33.7056 114.552Z" fill="#8BC5E4"/>
<path fill-rule="evenodd" clip-rule="evenodd" d="M25.2964 95.8171L28.7778 97.0671L80.7393 67.0671L77.2579 65.8171L25.2964 95.8171Z" fill="#8BC5E4"/>
<path fill-rule="evenodd" clip-rule="evenodd" d="M33.7056 107.102V94.2322L85.6671 64.2322V77.1022L33.7056 107.102Z" fill="#8BC5E4"/>
<path fill-rule="evenodd" clip-rule="evenodd" d="M33.7056 75.8122V73.8822L85.6671 43.8822V45.8122L33.7056 75.8122Z" fill="#8BC5E4"/>
<path fill-rule="evenodd" clip-rule="evenodd" d="M33.7056 73.8822L35.7494 75.0622L87.7109 45.0622L85.6671 43.8822L33.7056 73.8822Z" fill="#8BC5E4"/>
<path fill-rule="evenodd" clip-rule="evenodd" d="M35.7495 75.0621V76.9921L87.711 46.9921V45.0621L35.7495 75.0621Z" fill="#8BC5E4"/>
<path fill-rule="evenodd" clip-rule="evenodd" d="M43.2666 89.4222L39.6899 87.9972L91.6515 57.9972L95.2281 59.4222L43.2666 89.4222Z" fill="#8BC5E4"/>
<path fill-rule="evenodd" clip-rule="evenodd" d="M35.7495 80.3922V92.0522L87.711 62.0522V50.3922L35.7495 80.3922Z" fill="#8BC5E4"/>
<path fill-rule="evenodd" clip-rule="evenodd" d="M35.7495 111.642V115.732L87.711 85.7322V81.6422L35.7495 111.642Z" fill="#8BC5E4"/>
<path fill-rule="evenodd" clip-rule="evenodd" d="M35.7494 115.732L33.7056 114.552L85.6671 84.5521L87.7109 85.7321L35.7494 115.732Z" fill="#8BC5E4"/>
<path fill-rule="evenodd" clip-rule="evenodd" d="M33.7056 114.552L85.6671 84.5521L33.7056 114.552Z" fill="#8BC5E4"/>
<path fill-rule="evenodd" clip-rule="evenodd" d="M33.7056 90.3522V79.1722L85.6671 49.1722V60.3522L33.7056 90.3522Z" fill="#8BC5E4"/>
<path fill-rule="evenodd" clip-rule="evenodd" d="M33.7056 79.1722L85.6671 49.1722L33.7056 79.1722Z" fill="#8BC5E4"/>
<path fill-rule="evenodd" clip-rule="evenodd" d="M35.7495 95.9822V108.282L87.711 78.2822V65.9822L35.7495 95.9822Z" fill="#8BC5E4"/>
<path fill-rule="evenodd" clip-rule="evenodd" d="M35.7495 108.282L87.711 78.2822L35.7495 108.282Z" fill="#8BC5E4"/>
<path fill-rule="evenodd" clip-rule="evenodd" d="M75.8379 209.257L97.3846 221.697L149.346 191.697L127.799 179.257L75.8379 209.257Z" fill="#8BC5E4"/>
<path fill-rule="evenodd" clip-rule="evenodd" d="M97.3848 221.697V246.507L149.346 216.507V191.697L97.3848 221.697Z" fill="#8BC5E4"/>
<path fill-rule="evenodd" clip-rule="evenodd" d="M97.3846 246.507L75.8379 234.067L127.799 204.067L149.346 216.507L97.3846 246.507Z" fill="#8BC5E4"/>
<path fill-rule="evenodd" clip-rule="evenodd" d="M75.8379 234.067V209.257L127.799 179.257V204.067L75.8379 234.067Z" fill="#8BC5E4"/>
<path fill-rule="evenodd" clip-rule="evenodd" d="M75.8379 209.257L127.799 179.257L75.8379 209.257Z" fill="#8BC5E4"/>
<path fill-rule="evenodd" clip-rule="evenodd" d="M47.7095 193.017L69.2648 205.462L121.226 175.462L99.671 163.017L47.7095 193.017Z" fill="#8BC5E4"/>
<path fill-rule="evenodd" clip-rule="evenodd" d="M69.2646 205.462V230.272L121.226 200.272V175.462L69.2646 205.462Z" fill="#8BC5E4"/>
<path fill-rule="evenodd" clip-rule="evenodd" d="M69.2648 230.272L47.7095 217.827L99.671 187.827L121.226 200.272L69.2648 230.272Z" fill="#8BC5E4"/>
<path fill-rule="evenodd" clip-rule="evenodd" d="M47.7095 217.827V193.017L99.671 163.017V187.827L47.7095 217.827Z" fill="#8BC5E4"/>
<path fill-rule="evenodd" clip-rule="evenodd" d="M47.7095 193.017L99.671 163.017L47.7095 193.017Z" fill="#8BC5E4"/>
<path fill-rule="evenodd" clip-rule="evenodd" d="M19.5894 176.782L41.1361 189.222L93.0976 159.222L71.5509 146.782L19.5894 176.782Z" fill="#8BC5E4"/>
<path fill-rule="evenodd" clip-rule="evenodd" d="M41.1362 189.222V214.032L93.0978 184.032V159.222L41.1362 189.222Z" fill="#8BC5E4"/>
<path fill-rule="evenodd" clip-rule="evenodd" d="M41.1361 214.032L19.5894 201.592L71.5509 171.592L93.0976 184.032L41.1361 214.032Z" fill="#8BC5E4"/>
<path fill-rule="evenodd" clip-rule="evenodd" d="M19.5894 201.592V176.782L71.5509 146.782V171.592L19.5894 201.592Z" fill="#8BC5E4"/>
<path fill-rule="evenodd" clip-rule="evenodd" d="M19.5894 176.782L71.5509 146.782L19.5894 176.782Z" fill="#8BC5E4"/>
<path fill-rule="evenodd" clip-rule="evenodd" d="M75.8379 176.847L97.3846 189.287L149.346 159.287L127.799 146.847L75.8379 176.847Z" fill="#8BC5E4"/>
<path fill-rule="evenodd" clip-rule="evenodd" d="M97.3848 189.287V214.097L149.346 184.097V159.287L97.3848 189.287Z" fill="#8BC5E4"/>
<path fill-rule="evenodd" clip-rule="evenodd" d="M97.3846 214.097L75.8379 201.657L127.799 171.657L149.346 184.097L97.3846 214.097Z" fill="#8BC5E4"/>
<path fill-rule="evenodd" clip-rule="evenodd" d="M75.8379 201.657V176.847L127.799 146.847V171.657L75.8379 201.657Z" fill="#8BC5E4"/>
<path fill-rule="evenodd" clip-rule="evenodd" d="M75.8379 176.847L127.799 146.847L75.8379 176.847Z" fill="#8BC5E4"/>
<path fill-rule="evenodd" clip-rule="evenodd" d="M47.7095 160.607L69.2648 173.052L121.226 143.052L99.671 130.607L47.7095 160.607Z" fill="#8BC5E4"/>
<path fill-rule="evenodd" clip-rule="evenodd" d="M69.2646 173.052V197.862L121.226 167.862V143.052L69.2646 173.052Z" fill="#8BC5E4"/>
<path fill-rule="evenodd" clip-rule="evenodd" d="M69.2648 197.862L47.7095 185.417L99.671 155.417L121.226 167.862L69.2648 197.862Z" fill="#8BC5E4"/>
<path fill-rule="evenodd" clip-rule="evenodd" d="M47.7095 185.417V160.607L99.671 130.607V155.417L47.7095 185.417Z" fill="#8BC5E4"/>
<path fill-rule="evenodd" clip-rule="evenodd" d="M47.7095 160.607L99.671 130.607L47.7095 160.607Z" fill="#8BC5E4"/>
<path fill-rule="evenodd" clip-rule="evenodd" d="M19.5894 144.372L41.1361 156.812L93.0976 126.812L71.5509 114.372L19.5894 144.372Z" fill="#8BC5E4"/>
<path fill-rule="evenodd" clip-rule="evenodd" d="M41.1362 156.812V181.622L93.0978 151.622V126.812L41.1362 156.812Z" fill="#8BC5E4"/>
<path fill-rule="evenodd" clip-rule="evenodd" d="M41.1361 181.622L19.5894 169.182L71.5509 139.182L93.0976 151.622L41.1361 181.622Z" fill="#8BC5E4"/>
<path fill-rule="evenodd" clip-rule="evenodd" d="M19.5894 169.182V144.372L71.5509 114.372V139.182L19.5894 169.182Z" fill="#8BC5E4"/>
<path fill-rule="evenodd" clip-rule="evenodd" d="M19.5894 144.372L71.5509 114.372L19.5894 144.372Z" fill="#8BC5E4"/>
<path fill-rule="evenodd" clip-rule="evenodd" d="M75.8379 144.427L97.3846 156.867L149.346 126.867L127.799 114.427L75.8379 144.427Z" fill="#8BC5E4"/>
<path fill-rule="evenodd" clip-rule="evenodd" d="M97.3848 156.867V181.687L149.346 151.687V126.867L97.3848 156.867Z" fill="#8BC5E4"/>
<path fill-rule="evenodd" clip-rule="evenodd" d="M97.3846 181.687L75.8379 169.247L127.799 139.247L149.346 151.687L97.3846 181.687Z" fill="#8BC5E4"/>
<path fill-rule="evenodd" clip-rule="evenodd" d="M75.8379 169.247V144.427L127.799 114.427V139.247L75.8379 169.247Z" fill="#8BC5E4"/>
<path fill-rule="evenodd" clip-rule="evenodd" d="M75.8379 144.427L127.799 114.427L75.8379 144.427Z" fill="#8BC5E4"/>
<path fill-rule="evenodd" clip-rule="evenodd" d="M47.7095 128.187L69.2648 140.632L121.226 110.632L99.671 98.1871L47.7095 128.187Z" fill="#8BC5E4"/>
<path fill-rule="evenodd" clip-rule="evenodd" d="M69.2646 140.632V165.452L121.226 135.452V110.632L69.2646 140.632Z" fill="#8BC5E4"/>
<path fill-rule="evenodd" clip-rule="evenodd" d="M69.2648 165.452L47.7095 153.007L99.671 123.007L121.226 135.452L69.2648 165.452Z" fill="#8BC5E4"/>
<path fill-rule="evenodd" clip-rule="evenodd" d="M47.7095 153.007V128.187L99.671 98.1871V123.007L47.7095 153.007Z" fill="#8BC5E4"/>
<path fill-rule="evenodd" clip-rule="evenodd" d="M47.7095 128.187L99.671 98.1871L47.7095 128.187Z" fill="#8BC5E4"/>
<path fill-rule="evenodd" clip-rule="evenodd" d="M19.5894 111.952L41.1361 124.392L93.0976 94.3921L71.5509 81.9521L19.5894 111.952Z" fill="#8BC5E4"/>
<path fill-rule="evenodd" clip-rule="evenodd" d="M41.1362 124.392V149.212L93.0978 119.212V94.3922L41.1362 124.392Z" fill="#8BC5E4"/>
<path fill-rule="evenodd" clip-rule="evenodd" d="M41.1361 149.212L19.5894 136.772L71.5509 106.772L93.0976 119.212L41.1361 149.212Z" fill="#8BC5E4"/>
<path fill-rule="evenodd" clip-rule="evenodd" d="M19.5894 136.772V111.952L71.5509 81.9521V106.772L19.5894 136.772Z" fill="#8BC5E4"/>
<path fill-rule="evenodd" clip-rule="evenodd" d="M19.5894 111.952L71.5509 81.9521L19.5894 111.952Z" fill="#8BC5E4"/>
<path fill-rule="evenodd" clip-rule="evenodd" d="M123.4 245.717L202.771 291.542L254.733 261.542L175.361 215.717L123.4 245.717Z" fill="#8BC5E4"/>
<path fill-rule="evenodd" clip-rule="evenodd" d="M202.771 291.542V307.612L254.733 277.612V261.542L202.771 291.542Z" fill="#8BC5E4"/>
<path fill-rule="evenodd" clip-rule="evenodd" d="M202.771 307.612L123.4 261.787L175.361 231.787L254.733 277.612L202.771 307.612Z" fill="#8BC5E4"/>
<path fill-rule="evenodd" clip-rule="evenodd" d="M123.4 261.787V245.717L175.361 215.717V231.787L123.4 261.787Z" fill="#8BC5E4"/>
<path fill-rule="evenodd" clip-rule="evenodd" d="M123.4 245.717L175.361 215.717L123.4 245.717Z" fill="#8BC5E4"/>
<path fill-rule="evenodd" clip-rule="evenodd" d="M130.042 133.412L196.207 171.612L248.168 141.612L182.004 103.412L130.042 133.412Z" fill="#8BC5E4"/>
<path fill-rule="evenodd" clip-rule="evenodd" d="M202.771 183.102V275.032L254.733 245.032V153.102L202.771 183.102Z" fill="#8BC5E4"/>
<path fill-rule="evenodd" clip-rule="evenodd" d="M196.207 278.942L130.042 240.742L182.004 210.742L248.168 248.942L196.207 278.942Z" fill="#8BC5E4"/>
<path fill-rule="evenodd" clip-rule="evenodd" d="M123.4 229.207V137.277L175.361 107.277V199.207L123.4 229.207Z" fill="#8BC5E4"/>
<path fill-rule="evenodd" clip-rule="evenodd" d="M130.042 133.412L182.004 103.412L130.042 133.412Z" fill="#8BC5E4"/>
<path fill-rule="evenodd" clip-rule="evenodd" d="M0 37.5822V213.142L51.9615 183.142V7.58215L0 37.5822Z" fill="#8BC5E4"/>
<path fill-rule="evenodd" clip-rule="evenodd" d="M10.4702 231.407L211.232 347.317L263.194 317.317L62.4317 201.407L10.4702 231.407Z" fill="#8BC5E4"/>
<path fill-rule="evenodd" clip-rule="evenodd" d="M221.703 341.142V165.582L273.664 135.582V311.142L221.703 341.142Z" fill="#8BC5E4"/>
<path fill-rule="evenodd" clip-rule="evenodd" d="M211.232 147.317L10.4702 31.4072L62.4317 1.40723L263.194 117.317L211.232 147.317Z" fill="#8BC5E4"/>
<path fill-rule="evenodd" clip-rule="evenodd" d="M10.4702 31.4072L62.4317 1.40723L10.4702 31.4072Z" fill="#8BC5E4"/>
<path fill-rule="evenodd" clip-rule="evenodd" d="M10.4702 36.9172L211.232 152.827L263.194 122.827L62.4317 6.91724L10.4702 36.9172Z" fill="#8BC5E4"/>
<path fill-rule="evenodd" clip-rule="evenodd" d="M216.965 162.847V338.407L268.927 308.407V132.847L216.965 162.847Z" fill="#8BC5E4"/>
<path fill-rule="evenodd" clip-rule="evenodd" d="M211.232 341.807L10.4702 225.897L62.4317 195.897L263.194 311.807L211.232 341.807Z" fill="#8BC5E4"/>
<path fill-rule="evenodd" clip-rule="evenodd" d="M4.72852 215.872V40.3121L56.69 10.3121V185.872L4.72852 215.872Z" fill="#8BC5E4"/>
<path fill-rule="evenodd" clip-rule="evenodd" d="M10.4702 36.9172L62.4317 6.91724L10.4702 36.9172Z" fill="#8BC5E4"/>
<path fill-rule="evenodd" clip-rule="evenodd" d="M94.7949 135.852C95.1933 138.376 95.8659 140.417 96.8128 141.977L148.774 111.977C147.827 110.417 147.155 108.376 146.756 105.852L94.7949 135.852Z" fill="#8BC5E4"/>
<path fill-rule="evenodd" clip-rule="evenodd" d="M96.813 141.977C97.7714 143.531 98.9376 144.704 100.312 145.497L152.273 115.497C150.899 114.704 149.733 113.531 148.775 111.977L96.813 141.977Z" fill="#8BC5E4"/>
<path fill-rule="evenodd" clip-rule="evenodd" d="M100.312 145.497C101.94 146.437 103.314 146.574 104.434 145.907L156.395 115.907C155.275 116.574 153.901 116.437 152.273 115.497L100.312 145.497Z" fill="#8BC5E4"/>
<path fill-rule="evenodd" clip-rule="evenodd" d="M104.434 145.907C105.56 145.237 106.123 143.936 106.123 142.002L158.084 112.002C158.084 113.936 157.521 115.237 156.396 115.907L104.434 145.907Z" fill="#8BC5E4"/>
<path fill-rule="evenodd" clip-rule="evenodd" d="M106.123 142.002C106.123 140.142 105.603 138.312 104.564 136.512L156.525 106.512C157.565 108.312 158.084 110.142 158.084 112.002L106.123 142.002Z" fill="#8BC5E4"/>
<path fill-rule="evenodd" clip-rule="evenodd" d="M104.564 136.512C103.525 134.706 102.203 133.339 100.598 132.412L152.559 102.412C154.164 103.339 155.486 104.706 156.526 106.512L104.564 136.512Z" fill="#8BC5E4"/>
<path fill-rule="evenodd" clip-rule="evenodd" d="M100.598 132.412C99.9452 132.035 99.134 131.714 98.1641 131.447L150.126 101.447C151.096 101.714 151.907 102.035 152.559 102.412L100.598 132.412Z" fill="#8BC5E4"/>
<path fill-rule="evenodd" clip-rule="evenodd" d="M98.5449 128.127C98.7759 128.287 98.9606 128.407 99.0992 128.487L151.061 98.4872C150.922 98.4072 150.737 98.2872 150.506 98.1272L98.5449 128.127Z" fill="#8BC5E4"/>
<path fill-rule="evenodd" clip-rule="evenodd" d="M99.0991 128.487C100.577 129.341 101.905 129.661 103.083 129.447L155.044 99.4472C153.867 99.6605 152.539 99.3405 151.061 98.4872L99.0991 128.487Z" fill="#8BC5E4"/>
<path fill-rule="evenodd" clip-rule="evenodd" d="M103.083 129.447C103.271 129.412 103.445 129.356 103.603 129.278L155.565 99.2781C155.406 99.3556 155.233 99.412 155.045 99.4472L103.083 129.447Z" fill="#8BC5E4"/>
<path fill-rule="evenodd" clip-rule="evenodd" d="M103.603 129.278C104.434 128.871 104.85 127.881 104.85 126.307L156.811 96.3071C156.811 97.8807 156.396 98.871 155.565 99.278L103.603 129.278Z" fill="#8BC5E4"/>
<path fill-rule="evenodd" clip-rule="evenodd" d="M104.85 126.307C104.85 124.827 104.422 123.354 103.568 121.887L155.529 91.8872C156.384 93.3539 156.811 94.8272 156.811 96.3072L104.85 126.307Z" fill="#8BC5E4"/>
<path fill-rule="evenodd" clip-rule="evenodd" d="M103.568 121.887C102.702 120.414 101.591 119.286 100.234 118.502L152.195 88.5022C153.552 89.2855 154.664 90.4139 155.53 91.8872L103.568 121.887Z" fill="#8BC5E4"/>
<path fill-rule="evenodd" clip-rule="evenodd" d="M100.234 118.502C98.8884 117.726 97.7654 117.574 96.8647 118.047L148.826 88.0472C149.727 87.5738 150.85 87.7255 152.195 88.5022L100.234 118.502Z" fill="#8BC5E4"/>
<path fill-rule="evenodd" clip-rule="evenodd" d="M96.8647 118.047L148.826 88.0472L96.8647 118.047Z" fill="#8BC5E4"/>
<path fill-rule="evenodd" clip-rule="evenodd" d="M96.865 118.047C95.9759 118.521 95.4014 119.669 95.1416 121.492L147.103 91.4922C147.363 89.6689 147.937 88.5206 148.827 88.0472L96.865 118.047Z" fill="#8BC5E4"/>
<path fill-rule="evenodd" clip-rule="evenodd" d="M91.6772 118.772C92.0481 116.604 92.8371 115.153 94.044 114.418L146.006 84.418C144.799 85.1531 144.01 86.6045 143.639 88.7722L91.6772 118.772Z" fill="#8BC5E4"/>
<path fill-rule="evenodd" clip-rule="evenodd" d="M94.0444 114.418C94.209 114.318 94.3814 114.231 94.5615 114.157L146.523 84.1572C146.343 84.2308 146.171 84.3177 146.006 84.418L94.0444 114.418Z" fill="#8BC5E4"/>
<path fill-rule="evenodd" clip-rule="evenodd" d="M94.5615 114.157C96.0626 113.531 97.9304 113.862 100.165 115.152L152.126 85.1522C149.892 83.8622 148.024 83.5305 146.523 84.1572L94.5615 114.157Z" fill="#8BC5E4"/>
<path fill-rule="evenodd" clip-rule="evenodd" d="M100.165 115.152C101.7 116.039 103.115 117.242 104.408 118.762L156.37 88.7622C155.076 87.2422 153.662 86.0389 152.126 85.1522L100.165 115.152Z" fill="#8BC5E4"/>
<path fill-rule="evenodd" clip-rule="evenodd" d="M104.408 118.762C105.707 120.279 106.695 121.896 107.37 123.612L159.332 93.6122C158.656 91.8955 157.669 90.2789 156.37 88.7622L104.408 118.762Z" fill="#8BC5E4"/>
<path fill-rule="evenodd" clip-rule="evenodd" d="M107.37 123.612C108.062 125.346 108.409 126.959 108.409 128.452L160.37 98.4522C160.37 96.9588 160.024 95.3455 159.331 93.6122L107.37 123.612Z" fill="#8BC5E4"/>
<path fill-rule="evenodd" clip-rule="evenodd" d="M108.409 128.452C108.409 129.879 108.083 130.987 107.431 131.777L159.392 101.777C160.045 100.987 160.371 99.8788 160.371 98.4521L108.409 128.452Z" fill="#8BC5E4"/>
<path fill-rule="evenodd" clip-rule="evenodd" d="M107.43 131.777C107.222 132.03 106.98 132.239 106.707 132.406L158.668 102.406C158.942 102.239 159.183 102.03 159.392 101.777L107.43 131.777Z" fill="#8BC5E4"/>
<path fill-rule="evenodd" clip-rule="evenodd" d="M106.706 132.406C106.125 132.758 105.396 132.916 104.521 132.877L156.482 102.877C157.358 102.916 158.086 102.758 158.668 102.406L106.706 132.406Z" fill="#8BC5E4"/>
<path fill-rule="evenodd" clip-rule="evenodd" d="M104.521 132.877C106.189 134.287 107.485 135.972 108.409 137.932L160.37 107.932C159.447 105.972 158.151 104.287 156.482 102.877L104.521 132.877Z" fill="#8BC5E4"/>
<path fill-rule="evenodd" clip-rule="evenodd" d="M108.409 137.932C109.333 139.865 109.795 141.895 109.795 144.022L161.756 114.022C161.756 111.895 161.294 109.865 160.371 107.932L108.409 137.932Z" fill="#8BC5E4"/>
<path fill-rule="evenodd" clip-rule="evenodd" d="M109.795 144.022C109.795 146.781 108.967 148.662 107.312 149.666L159.274 119.666C160.929 118.662 161.756 116.781 161.756 114.022L109.795 144.022Z" fill="#8BC5E4"/>
<path fill-rule="evenodd" clip-rule="evenodd" d="M107.313 149.666C107.244 149.708 107.173 149.748 107.102 149.787L159.063 119.787C159.135 119.748 159.205 119.708 159.274 119.666L107.313 149.666Z" fill="#8BC5E4"/>
<path fill-rule="evenodd" clip-rule="evenodd" d="M107.101 149.787C105.306 150.737 103.037 150.42 100.294 148.837L152.256 118.837C154.998 120.42 157.267 120.737 159.063 119.787L107.101 149.787Z" fill="#8BC5E4"/>
<path fill-rule="evenodd" clip-rule="evenodd" d="M100.295 148.837C97.8177 147.407 95.7623 145.36 94.1284 142.697L146.09 112.697C147.724 115.36 149.779 117.407 152.256 118.837L100.295 148.837Z" fill="#8BC5E4"/>
<path fill-rule="evenodd" clip-rule="evenodd" d="M94.1283 142.697C92.4944 140.034 91.562 137.266 91.3311 134.392L143.293 104.392C143.524 107.266 144.456 110.034 146.09 112.697L94.1283 142.697Z" fill="#8BC5E4"/>
<path fill-rule="evenodd" clip-rule="evenodd" d="M68.9445 130.157C68.9214 129.17 69.0542 128.31 69.3428 127.577L121.304 97.5771C121.016 98.3105 120.883 99.1705 120.906 100.157L68.9445 130.157Z" fill="#8BC5E4"/>
<path fill-rule="evenodd" clip-rule="evenodd" d="M69.3428 127.577C69.822 126.374 70.5783 125.351 71.6118 124.507L123.573 94.5072C122.54 95.3505 121.784 96.3739 121.304 97.5772L69.3428 127.577Z" fill="#8BC5E4"/>
<path fill-rule="evenodd" clip-rule="evenodd" d="M71.6118 124.507C71.9499 124.246 72.3347 123.988 72.7662 123.732L124.728 93.7324C124.296 93.9876 123.911 94.2459 123.573 94.5072L71.6118 124.507Z" fill="#8BC5E4"/>
<path fill-rule="evenodd" clip-rule="evenodd" d="M72.7661 123.732C73.6831 123.19 74.8109 122.662 76.1497 122.147L128.111 92.1472C126.772 92.6618 125.645 93.1902 124.728 93.7324L72.7661 123.732Z" fill="#8BC5E4"/>
<path fill-rule="evenodd" clip-rule="evenodd" d="M76.1494 122.147C77.8662 121.496 79.2716 120.858 80.3656 120.234L132.327 90.2335C131.233 90.8578 129.828 91.4957 128.111 92.1472L76.1494 122.147Z" fill="#8BC5E4"/>
<path fill-rule="evenodd" clip-rule="evenodd" d="M80.3657 120.234C81.2253 119.743 81.8926 119.261 82.3676 118.787L134.329 88.7872C133.854 89.261 133.187 89.7431 132.327 90.2336L80.3657 120.234Z" fill="#8BC5E4"/>
<path fill-rule="evenodd" clip-rule="evenodd" d="M82.3677 118.787C83.4473 117.69 83.9871 116.375 83.9871 114.842L135.949 84.8422C135.949 86.3755 135.409 87.6905 134.329 88.7872L82.3677 118.787Z" fill="#8BC5E4"/>
<path fill-rule="evenodd" clip-rule="evenodd" d="M83.9873 114.842C83.9873 113.249 83.4936 111.62 82.5063 109.957L134.468 79.9572C135.455 81.6205 135.949 83.2488 135.949 84.8422L83.9873 114.842Z" fill="#8BC5E4"/>
<path fill-rule="evenodd" clip-rule="evenodd" d="M82.5061 109.957C81.5246 108.284 80.2486 106.994 78.6782 106.087L130.64 76.0872C132.21 76.9938 133.486 78.2838 134.468 79.9572L82.5061 109.957Z" fill="#8BC5E4"/>
<path fill-rule="evenodd" clip-rule="evenodd" d="M78.6783 106.087C77.0097 105.124 75.6761 104.937 74.6772 105.527L126.639 75.5272C127.638 74.9372 128.971 75.1239 130.64 76.0872L78.6783 106.087Z" fill="#8BC5E4"/>
<path fill-rule="evenodd" clip-rule="evenodd" d="M74.6772 105.527C73.6783 106.111 73.1732 107.436 73.1616 109.502L125.123 79.5022C125.135 77.4356 125.64 76.1106 126.639 75.5272L74.6772 105.527Z" fill="#8BC5E4"/>
<path fill-rule="evenodd" clip-rule="evenodd" d="M69.5938 107.012C69.8168 104.289 70.6117 102.522 71.9782 101.712L123.94 71.7119C122.573 72.5223 121.778 74.289 121.555 77.0122L69.5938 107.012Z" fill="#8BC5E4"/>
<path fill-rule="evenodd" clip-rule="evenodd" d="M71.9785 101.712C72.0973 101.641 72.2205 101.578 72.348 101.522L124.31 71.5222C124.182 71.5782 124.059 71.6414 123.94 71.7119L71.9785 101.712Z" fill="#8BC5E4"/>
<path fill-rule="evenodd" clip-rule="evenodd" d="M72.3477 101.522C73.9354 100.819 76.0687 101.24 78.7476 102.787L130.709 72.7872C128.03 71.2405 125.897 70.8188 124.309 71.5222L72.3477 101.522Z" fill="#8BC5E4"/>
<path fill-rule="evenodd" clip-rule="evenodd" d="M78.7476 102.787C81.4553 104.351 83.5973 106.461 85.1735 109.117L137.135 79.1172C135.559 76.4606 133.417 74.3506 130.709 72.7872L78.7476 102.787Z" fill="#8BC5E4"/>
<path fill-rule="evenodd" clip-rule="evenodd" d="M85.1738 109.117C86.75 111.781 87.5381 114.406 87.5381 116.992L139.5 86.9922C139.5 84.4055 138.712 81.7805 137.135 79.1172L85.1738 109.117Z" fill="#8BC5E4"/>
<path fill-rule="evenodd" clip-rule="evenodd" d="M87.5377 116.992C87.5377 118.312 87.3096 119.474 86.8535 120.477L138.815 90.4772C139.271 89.4739 139.499 88.3122 139.499 86.9922L87.5377 116.992Z" fill="#8BC5E4"/>
<path fill-rule="evenodd" clip-rule="evenodd" d="M86.8538 120.477C86.3919 121.484 85.6211 122.379 84.5415 123.162L136.503 93.1622C137.583 92.3788 138.353 91.4838 138.815 90.4772L86.8538 120.477Z" fill="#8BC5E4"/>
<path fill-rule="evenodd" clip-rule="evenodd" d="M84.5415 123.162C84.2441 123.382 83.8907 123.612 83.4814 123.851L135.443 93.8509C135.852 93.612 136.206 93.3825 136.503 93.1622L84.5415 123.162Z" fill="#8BC5E4"/>
<path fill-rule="evenodd" clip-rule="evenodd" d="M83.4813 123.851C82.429 124.465 81.007 125.14 79.2153 125.877L131.177 95.8772C132.968 95.1404 134.39 94.4649 135.443 93.8508L83.4813 123.851Z" fill="#8BC5E4"/>
<path fill-rule="evenodd" clip-rule="evenodd" d="M79.2154 125.877C77.4695 126.572 76.2491 127.115 75.5542 127.509L127.516 97.5088C128.211 97.1155 129.431 96.5716 131.177 95.8772L79.2154 125.877Z" fill="#8BC5E4"/>
<path fill-rule="evenodd" clip-rule="evenodd" d="M75.5542 127.509C75.4219 127.584 75.3086 127.653 75.2144 127.717L127.176 97.7172C127.27 97.6532 127.383 97.5837 127.516 97.5088L75.5542 127.509Z" fill="#8BC5E4"/>
<path fill-rule="evenodd" clip-rule="evenodd" d="M75.2141 127.717C74.6252 128.09 74.1373 128.535 73.7505 129.052L125.712 99.0522C126.099 98.5355 126.587 98.0905 127.176 97.7172L75.2141 127.717Z" fill="#8BC5E4"/>
<path fill-rule="evenodd" clip-rule="evenodd" d="M57.0365 97.5422C56.2051 97.9889 55.1082 98.2822 53.7456 98.4222L105.707 68.4222C107.07 68.2822 108.167 67.9889 108.998 67.5422L57.0365 97.5422Z" fill="#8BC5E4"/>
<path fill-rule="evenodd" clip-rule="evenodd" d="M53.7453 98.4222C52.4001 98.5722 51.1906 98.5706 50.1167 98.4172L102.078 68.4172C103.152 68.5706 104.362 68.5722 105.707 68.4222L53.7453 98.4222Z" fill="#8BC5E4"/>
<path fill-rule="evenodd" clip-rule="evenodd" d="M50.1167 94.5071C52.0508 94.5638 53.7396 94.2521 55.183 93.5721L107.144 63.5721C105.701 64.2521 104.012 64.5638 102.078 64.5071L50.1167 94.5071Z" fill="#8BC5E4"/>
<path fill-rule="evenodd" clip-rule="evenodd" d="M55.1831 93.5722C55.4159 93.4645 55.6377 93.3517 55.8487 93.2339L107.81 63.2339C107.599 63.3517 107.377 63.4645 107.145 63.5722L55.1831 93.5722Z" fill="#8BC5E4"/>
<path fill-rule="evenodd" clip-rule="evenodd" d="M55.8486 93.2339C56.9559 92.6154 57.7618 91.8582 58.2661 90.9622L110.228 60.9622C109.723 61.8582 108.917 62.6154 107.81 63.2339L55.8486 93.2339Z" fill="#8BC5E4"/>
<path fill-rule="evenodd" clip-rule="evenodd" d="M33.7057 110.502C31.9794 109.252 30.5707 107.992 29.4795 106.722L81.441 76.7222C82.5322 77.9922 83.9409 79.2522 85.6672 80.5022L33.7057 110.502Z" fill="#8BC5E4"/>
<path fill-rule="evenodd" clip-rule="evenodd" d="M29.4796 106.722C28.4 105.439 27.4618 103.84 26.665 101.927L78.6266 71.9271C79.4233 73.8405 80.3615 75.4388 81.4411 76.7221L29.4796 106.722Z" fill="#8BC5E4"/>
<path fill-rule="evenodd" clip-rule="evenodd" d="M26.6647 101.927C25.8853 100.024 25.4292 97.9871 25.2964 95.8171L77.2579 65.8171C77.3907 67.9871 77.8468 70.0238 78.6262 71.9271L26.6647 101.927Z" fill="#8BC5E4"/>
<path fill-rule="evenodd" clip-rule="evenodd" d="M28.7778 97.0671C29.0492 99.3971 29.5226 101.264 30.1981 102.667L82.1596 72.6671C81.4841 71.2638 81.0107 69.3971 80.7394 67.0671L28.7778 97.0671Z" fill="#8BC5E4"/>
<path fill-rule="evenodd" clip-rule="evenodd" d="M30.1982 102.667C31.1797 104.674 32.3489 106.152 33.7056 107.102L85.6672 77.1022C84.3104 76.1522 83.1413 74.6739 82.1598 72.6672L30.1982 102.667Z" fill="#8BC5E4"/>
<path fill-rule="evenodd" clip-rule="evenodd" d="M33.7056 94.2322C32.2795 93.0956 30.8246 91.6156 29.3408 89.7922L81.3023 59.7922C82.7861 61.6156 84.2411 63.0956 85.6671 64.2322L33.7056 94.2322Z" fill="#8BC5E4"/>
<path fill-rule="evenodd" clip-rule="evenodd" d="M29.3408 89.7921C28.238 88.4288 27.3836 86.9355 26.7773 85.3121L78.7389 55.3121C79.3451 56.9355 80.1996 58.4288 81.3023 59.7921L29.3408 89.7921Z" fill="#8BC5E4"/>
<path fill-rule="evenodd" clip-rule="evenodd" d="M26.7774 85.3122C26.1885 83.7055 25.894 82.0955 25.894 80.4822L77.8556 50.4822C77.8556 52.0955 78.15 53.7055 78.7389 55.3122L26.7774 85.3122Z" fill="#8BC5E4"/>
<path fill-rule="evenodd" clip-rule="evenodd" d="M25.894 80.4821C25.894 77.8325 26.6319 76.0773 28.1077 75.2164L80.0692 45.2164C78.5935 46.0773 77.8556 47.8325 77.8556 50.4821L25.894 80.4821Z" fill="#8BC5E4"/>
<path fill-rule="evenodd" clip-rule="evenodd" d="M28.1079 75.2165C28.2362 75.1416 28.3701 75.0735 28.5096 75.0122L80.4712 45.0122C80.3317 45.0735 80.1978 45.1416 80.0694 45.2165L28.1079 75.2165Z" fill="#8BC5E4"/>
<path fill-rule="evenodd" clip-rule="evenodd" d="M28.5098 75.0122C29.6818 74.4889 31.4138 74.7555 33.7059 75.8122L85.6674 45.8122C83.3754 44.7555 81.6433 44.4889 80.4713 45.0122L28.5098 75.0122Z" fill="#8BC5E4"/>
<path fill-rule="evenodd" clip-rule="evenodd" d="M35.7495 76.9922C37.7645 78.3755 39.3608 79.9839 40.5386 81.8172L92.5002 51.8172C91.3224 49.9839 89.726 48.3755 87.711 46.9922L35.7495 76.9922Z" fill="#8BC5E4"/>
<path fill-rule="evenodd" clip-rule="evenodd" d="M40.5386 81.8171C42.0512 84.1571 42.9606 86.6921 43.2666 89.4221L95.2281 59.4221C94.9221 56.6921 94.0128 54.1571 92.5001 51.8171L40.5386 81.8171Z" fill="#8BC5E4"/>
<path fill-rule="evenodd" clip-rule="evenodd" d="M39.6898 87.9972C39.4877 86.2938 39.0576 84.8322 38.3994 83.6122L90.3609 53.6122C91.0191 54.8322 91.4492 56.2938 91.6513 57.9972L39.6898 87.9972Z" fill="#8BC5E4"/>
<path fill-rule="evenodd" clip-rule="evenodd" d="M38.3996 83.6122C37.7587 82.3889 36.8753 81.3155 35.7495 80.3922L87.711 50.3922C88.8369 51.3155 89.7202 52.3889 90.3611 53.6122L38.3996 83.6122Z" fill="#8BC5E4"/>
<path fill-rule="evenodd" clip-rule="evenodd" d="M35.7495 92.0521C37.4873 93.5621 38.6392 94.6238 39.205 95.2371L91.1665 65.2371C90.6007 64.6238 89.4489 63.5621 87.711 62.0521L35.7495 92.0521Z" fill="#8BC5E4"/>
<path fill-rule="evenodd" clip-rule="evenodd" d="M39.2051 95.2372C40.2847 96.4138 41.1623 97.5938 41.8378 98.7772L93.7993 68.7772C93.1238 67.5938 92.2462 66.4138 91.1666 65.2372L39.2051 95.2372Z" fill="#8BC5E4"/>
<path fill-rule="evenodd" clip-rule="evenodd" d="M41.8379 98.7772C42.5192 99.9639 43.0417 101.206 43.4054 102.502L95.3669 72.5022C95.0032 71.2056 94.4807 69.9639 93.7994 68.7772L41.8379 98.7772Z" fill="#8BC5E4"/>
<path fill-rule="evenodd" clip-rule="evenodd" d="M43.4053 102.502C43.7748 103.809 43.9595 105.099 43.9595 106.372L95.9211 76.3722C95.9211 75.0989 95.7363 73.8089 95.3668 72.5022L43.4053 102.502Z" fill="#8BC5E4"/>
<path fill-rule="evenodd" clip-rule="evenodd" d="M43.9596 106.372C43.9596 109.172 43.1975 111.066 41.6733 112.052L93.6349 82.0522C95.1591 81.0655 95.9212 79.1722 95.9212 76.3722L43.9596 106.372Z" fill="#8BC5E4"/>
<path fill-rule="evenodd" clip-rule="evenodd" d="M41.6733 112.052L93.6349 82.0521L41.6733 112.052Z" fill="#8BC5E4"/>
<path fill-rule="evenodd" clip-rule="evenodd" d="M41.6731 112.052C40.1489 113.039 38.1744 112.902 35.7495 111.642L87.711 81.6422C90.1359 82.9022 92.1104 83.0389 93.6347 82.0522L41.6731 112.052Z" fill="#8BC5E4"/>
<path fill-rule="evenodd" clip-rule="evenodd" d="M33.7059 79.1722C32.4683 78.6846 31.4677 78.6583 30.7041 79.0933L82.6656 49.0933C83.4292 48.6583 84.4298 48.6846 85.6674 49.1722L33.7059 79.1722Z" fill="#8BC5E4"/>
<path fill-rule="evenodd" clip-rule="evenodd" d="M30.7041 79.0933C30.6377 79.1311 30.5731 79.1724 30.5103 79.2172L82.4718 49.2172C82.5346 49.1724 82.5992 49.1311 82.6656 49.0933L30.7041 79.0933Z" fill="#8BC5E4"/>
<path fill-rule="evenodd" clip-rule="evenodd" d="M30.5102 79.2172C29.7423 79.7872 29.3584 80.7722 29.3584 82.1722L81.3199 52.1722C81.3199 50.7722 81.7039 49.7872 82.4717 49.2172L30.5102 79.2172Z" fill="#8BC5E4"/>
<path fill-rule="evenodd" clip-rule="evenodd" d="M29.3584 82.1722C29.3584 83.5456 29.6875 84.8856 30.3457 86.1922L82.3072 56.1922C81.649 54.8856 81.3199 53.5456 81.3199 52.1722L29.3584 82.1722Z" fill="#8BC5E4"/>
<path fill-rule="evenodd" clip-rule="evenodd" d="M30.3457 86.1921C31.0097 87.5021 32.1297 88.8888 33.7059 90.3521L85.6674 60.3521C84.0912 58.8888 82.9712 57.5021 82.3072 56.1921L30.3457 86.1921Z" fill="#8BC5E4"/>
<path fill-rule="evenodd" clip-rule="evenodd" d="M35.7495 108.282C36.9333 108.79 37.9338 108.817 38.751 108.364L90.7125 78.3642C89.8953 78.817 88.8948 78.7897 87.711 78.2822L35.7495 108.282Z" fill="#8BC5E4"/>
<path fill-rule="evenodd" clip-rule="evenodd" d="M38.751 108.364C38.8624 108.302 38.9704 108.232 39.0751 108.152L91.0366 78.1522C90.932 78.2318 90.8239 78.3025 90.7125 78.3642L38.751 108.364Z" fill="#8BC5E4"/>
<path fill-rule="evenodd" clip-rule="evenodd" d="M39.0752 108.152C39.9585 107.495 40.4002 106.307 40.4002 104.587L92.3617 74.5872C92.3617 76.3072 91.9201 77.4955 91.0367 78.1522L39.0752 108.152Z" fill="#8BC5E4"/>
<path fill-rule="evenodd" clip-rule="evenodd" d="M40.4 104.587C40.4 103.121 40.0854 101.762 39.4561 100.512L91.4176 70.5122C92.0469 71.7622 92.3615 73.1205 92.3615 74.5872L40.4 104.587Z" fill="#8BC5E4"/>
<path fill-rule="evenodd" clip-rule="evenodd" d="M39.4561 100.512C38.8441 99.2655 37.6086 97.7555 35.7495 95.9822L87.711 65.9822C89.5701 67.7555 90.8056 69.2655 91.4176 70.5122L39.4561 100.512Z" fill="#8BC5E4"/>
<path fill-rule="evenodd" clip-rule="evenodd" d="M196.207 171.612C199.87 173.727 202.771 178.842 202.771 183.102L254.733 153.102C254.733 148.842 251.831 143.727 248.168 141.612L196.207 171.612Z" fill="#8BC5E4"/>
<path fill-rule="evenodd" clip-rule="evenodd" d="M202.771 275.032C202.771 277.082 202.103 278.552 201.002 279.293L252.964 249.293C254.064 248.552 254.733 247.082 254.733 245.032L202.771 275.032Z" fill="#8BC5E4"/>
<path fill-rule="evenodd" clip-rule="evenodd" d="M201.002 279.293C199.81 280.095 198.111 280.042 196.207 278.942L248.168 248.942C250.073 250.042 251.772 250.095 252.964 249.293L201.002 279.293Z" fill="#8BC5E4"/>
<path fill-rule="evenodd" clip-rule="evenodd" d="M130.042 240.742C126.388 238.632 123.4 233.477 123.4 229.207L175.361 199.207C175.361 203.477 178.349 208.632 182.004 210.742L130.042 240.742Z" fill="#8BC5E4"/>
<path fill-rule="evenodd" clip-rule="evenodd" d="M123.4 137.277C123.4 135.232 124.088 133.774 125.208 133.043L177.17 103.043C176.05 103.774 175.361 105.232 175.361 107.277L123.4 137.277Z" fill="#8BC5E4"/>
<path fill-rule="evenodd" clip-rule="evenodd" d="M125.208 133.044C126.422 132.252 128.142 132.315 130.042 133.412L182.004 103.412C180.104 102.315 178.383 102.252 177.17 103.044L125.208 133.044Z" fill="#8BC5E4"/>
<path fill-rule="evenodd" clip-rule="evenodd" d="M10.4703 31.4072C7.70591 29.8112 5.183 29.6195 3.30664 30.5959L55.2682 0.59593C57.1445 -0.380532 59.6674 -0.18882 62.4318 1.40718L10.4703 31.4072Z" fill="#8BC5E4"/>
<path fill-rule="evenodd" clip-rule="evenodd" d="M3.30662 30.5959C1.2739 31.6538 0 34.0826 0 37.5822L51.9615 7.5822C51.9615 4.0826 53.2354 1.65378 55.2681 0.595947L3.30662 30.5959Z" fill="#8BC5E4"/>
<path fill-rule="evenodd" clip-rule="evenodd" d="M0 213.142C0 219.872 4.71118 228.082 10.4702 231.407L62.4318 201.407C56.6727 198.082 51.9615 189.872 51.9615 183.142L0 213.142Z" fill="#8BC5E4"/>
<path fill-rule="evenodd" clip-rule="evenodd" d="M211.232 347.317C213.993 348.911 216.515 349.103 218.393 348.127L270.354 318.127C268.477 319.103 265.954 318.911 263.194 317.317L211.232 347.317Z" fill="#8BC5E4"/>
<path fill-rule="evenodd" clip-rule="evenodd" d="M218.393 348.126C220.426 347.069 221.703 344.642 221.703 341.142L273.664 311.142C273.664 314.642 272.388 317.069 270.354 318.126L218.393 348.126Z" fill="#8BC5E4"/>
<path fill-rule="evenodd" clip-rule="evenodd" d="M221.703 165.582C221.703 158.852 216.983 150.637 211.232 147.317L263.194 117.317C268.944 120.637 273.664 128.852 273.664 135.582L221.703 165.582Z" fill="#8BC5E4"/>
<path fill-rule="evenodd" clip-rule="evenodd" d="M211.232 152.827C214.445 154.682 216.966 159.077 216.966 162.847L268.927 132.847C268.927 129.077 266.407 124.682 263.194 122.827L211.232 152.827Z" fill="#8BC5E4"/>
<path fill-rule="evenodd" clip-rule="evenodd" d="M216.965 338.407C216.965 340.217 216.384 341.5 215.425 342.14L267.387 312.14C268.346 311.5 268.927 310.217 268.927 308.407L216.965 338.407Z" fill="#8BC5E4"/>
<path fill-rule="evenodd" clip-rule="evenodd" d="M215.426 342.14C214.387 342.833 212.903 342.772 211.232 341.807L263.194 311.807C264.865 312.772 266.348 312.833 267.387 312.14L215.426 342.14Z" fill="#8BC5E4"/>
<path fill-rule="evenodd" clip-rule="evenodd" d="M10.4703 225.897C7.24865 224.037 4.72852 219.642 4.72852 215.872L56.69 185.872C56.69 189.642 59.2102 194.037 62.4318 195.897L10.4703 225.897Z" fill="#8BC5E4"/>
<path fill-rule="evenodd" clip-rule="evenodd" d="M4.72852 40.3121C4.72852 38.5025 5.30915 37.2194 6.2693 36.58L58.2308 6.57996C57.2707 7.2194 56.69 8.50254 56.69 10.3121L4.72852 40.3121Z" fill="#8BC5E4"/>
<path fill-rule="evenodd" clip-rule="evenodd" d="M6.26904 36.58C7.3092 35.8873 8.79476 35.95 10.47 36.9172L62.4315 6.91719C60.7563 5.94999 59.2707 5.88728 58.2306 6.58001L6.26904 36.58Z" fill="#8BC5E4"/>
<path d="M91.331 134.392L94.7951 135.852C95.1935 138.376 95.8661 140.417 96.813 141.977C97.7714 143.531 98.9376 144.704 100.312 145.497C101.94 146.437 103.314 146.574 104.434 145.907C105.56 145.237 106.123 143.936 106.123 142.002C106.123 140.142 105.603 138.312 104.564 136.512C103.525 134.706 102.203 133.339 100.598 132.412C99.9451 132.036 99.1339 131.714 98.164 131.447L98.545 128.127C98.776 128.287 98.9607 128.407 99.0993 128.487C100.577 129.341 101.905 129.661 103.083 129.447C104.261 129.227 104.85 128.181 104.85 126.307C104.85 124.827 104.422 123.354 103.568 121.887C102.702 120.414 101.591 119.286 100.234 118.502C98.8886 117.726 97.7656 117.574 96.8649 118.047C95.9758 118.521 95.4014 119.669 95.1415 121.492L91.6775 118.772C92.0989 116.309 93.0602 114.771 94.5613 114.157C96.0624 113.531 97.9302 113.862 100.165 115.152C101.7 116.039 103.115 117.242 104.408 118.762C105.707 120.279 106.694 121.896 107.37 123.612C108.063 125.346 108.409 126.959 108.409 128.452C108.409 129.879 108.083 130.987 107.43 131.777C106.778 132.567 105.808 132.934 104.521 132.877C106.189 134.287 107.485 135.972 108.409 137.932C109.333 139.866 109.795 141.896 109.795 144.022C109.795 146.896 108.897 148.817 107.101 149.787C105.306 150.737 103.037 150.421 100.294 148.837C97.8176 147.407 95.7622 145.361 94.1283 142.697C92.4944 140.034 91.562 137.266 91.331 134.392ZM87.5811 137.037V140.917L68.9443 130.157C68.9212 129.171 69.054 128.311 69.3427 127.577C69.8219 126.374 70.5782 125.351 71.6116 124.507C72.6682 123.691 74.1808 122.904 76.1496 122.147C79.2153 120.984 81.288 119.864 82.3677 118.787C83.4473 117.691 83.9871 116.376 83.9871 114.842C83.9871 113.249 83.4935 111.621 82.5062 109.957C81.5247 108.284 80.2488 106.994 78.6784 106.087C77.0099 105.124 75.6762 104.937 74.6774 105.527C73.6786 106.111 73.1734 107.436 73.1618 109.502L69.5938 107.012C69.8363 104.052 70.7543 102.222 72.3478 101.522C73.9355 100.819 76.0688 101.241 78.7477 102.787C81.4555 104.351 83.5974 106.461 85.1736 109.117C86.7498 111.781 87.5378 114.406 87.5378 116.992C87.5378 118.312 87.3098 119.474 86.8537 120.477C86.3918 121.484 85.621 122.379 84.5414 123.162C83.4791 123.949 81.7037 124.854 79.2153 125.877C77.1369 126.704 75.8032 127.317 75.2143 127.717C74.6254 128.091 74.1376 128.536 73.7507 129.052L87.5811 137.037ZM60.5005 125.282L57.0364 123.282V97.5422C56.2051 97.9888 55.1081 98.2822 53.7455 98.4222C52.4003 98.5722 51.1908 98.5705 50.1169 98.4172V94.5072C52.051 94.5638 53.7398 94.2522 55.1831 93.5722C56.6381 92.8988 57.6657 92.0288 58.2662 90.9622L60.5005 92.2522V125.282ZM33.7057 114.552V110.502C31.9794 109.252 30.5707 107.992 29.4795 106.722C28.3999 105.439 27.4617 103.841 26.6649 101.927C25.8855 100.024 25.4294 97.9872 25.2966 95.8172L28.778 97.0672C29.0494 99.3972 29.5228 101.264 30.1983 102.667C31.1798 104.674 32.3489 106.152 33.7057 107.102V94.2322C32.2797 93.0955 30.8247 91.6155 29.3409 89.7922C28.2382 88.4288 27.3837 86.9355 26.7775 85.3122C26.1886 83.7055 25.8942 82.0955 25.8942 80.4822C25.8942 77.6022 26.766 75.7788 28.5096 75.0122C29.6816 74.4888 31.4136 74.7555 33.7057 75.8122V73.8822L35.7495 75.0622V76.9922C37.7645 78.3755 39.3609 79.9838 40.5387 81.8172C42.0513 84.1572 42.9606 86.6922 43.2666 89.4222L39.6899 87.9972C39.4879 86.2938 39.0577 84.8322 38.3996 83.6122C37.7587 82.3888 36.8754 81.3155 35.7495 80.3922V92.0522C37.4874 93.5622 38.6392 94.6238 39.205 95.2372C40.2846 96.4138 41.1622 97.5938 41.8377 98.7772C42.519 99.9638 43.0415 101.206 43.4052 102.502C43.7747 103.809 43.9594 105.099 43.9594 106.372C43.9594 109.172 43.1973 111.066 41.6731 112.052C40.1489 113.039 38.1744 112.902 35.7495 111.642V115.732L33.7057 114.552ZM33.7057 79.1722C32.3605 78.6422 31.2953 78.6572 30.5101 79.2172C29.7422 79.7872 29.3583 80.7722 29.3583 82.1722C29.3583 83.5455 29.6874 84.8855 30.3455 86.1922C31.0095 87.5022 32.1295 88.8888 33.7057 90.3522V79.1722ZM35.7495 108.282C37.0948 108.859 38.2033 108.816 39.0751 108.152C39.9584 107.496 40.4001 106.307 40.4001 104.587C40.4001 103.121 40.0854 101.762 39.4561 100.512C38.8441 99.2655 37.6086 97.7555 35.7495 95.9822V108.282ZM75.8378 209.257L97.3846 221.697V246.507L75.8378 234.067V209.257ZM47.7093 193.017L69.2647 205.462V230.272L47.7093 217.827V193.017ZM19.5895 176.782L41.1362 189.222V214.032L19.5895 201.592V176.782ZM75.8378 176.847L97.3846 189.287V214.097L75.8378 201.657V176.847ZM47.7093 160.607L69.2647 173.052V197.862L47.7093 185.417V160.607ZM19.5895 144.372L41.1362 156.812V181.622L19.5895 169.182V144.372ZM75.8378 144.427L97.3846 156.867V181.687L75.8378 169.247V144.427ZM47.7093 128.187L69.2647 140.632V165.452L47.7093 153.007V128.187ZM19.5895 111.952L41.1362 124.392V149.212L19.5895 136.772V111.952ZM123.4 245.717L202.771 291.542V307.612L123.4 261.787V245.717ZM130.042 133.412L196.207 171.612C199.87 173.727 202.771 178.842 202.771 183.102V275.032C202.771 279.302 199.87 281.057 196.207 278.942L130.042 240.742C126.388 238.632 123.4 233.477 123.4 229.207V137.277C123.4 133.017 126.388 131.302 130.042 133.412ZM10.4702 31.4072C4.71118 28.0822 0 30.8522 0 37.5822V213.142C0 219.872 4.71118 228.082 10.4702 231.407L211.232 347.317C216.983 350.637 221.702 347.872 221.702 341.142V165.582C221.702 158.852 216.983 150.637 211.232 147.317L10.4702 31.4072ZM10.4702 36.9172L211.232 152.827C214.445 154.682 216.965 159.077 216.965 162.847V338.407C216.965 342.177 214.445 343.662 211.232 341.807L10.4702 225.897C7.24863 224.037 4.7285 219.642 4.7285 215.872V40.3122C4.7285 36.5422 7.24863 35.0572 10.4702 36.9172Z" fill="#8BC5E4"/>
<path fill-rule="evenodd" clip-rule="evenodd" d="M10.4702 36.9172L211.232 152.827C214.445 154.682 216.965 159.077 216.965 162.847V338.407C216.965 342.177 214.445 343.662 211.232 341.807L10.4702 225.897C7.24863 224.037 4.7285 219.642 4.7285 215.872V40.3122C4.7285 36.5422 7.24863 35.0572 10.4702 36.9172ZM94.7951 135.852L91.331 134.392C91.562 137.266 92.4944 140.034 94.1283 142.697C95.7622 145.361 97.8176 147.407 100.294 148.837C103.037 150.421 105.306 150.737 107.101 149.787C108.897 148.817 109.795 146.896 109.795 144.022C109.795 141.896 109.333 139.866 108.409 137.932C107.485 135.972 106.189 134.287 104.521 132.877C105.808 132.934 106.778 132.567 107.43 131.777C108.083 130.987 108.409 129.879 108.409 128.452C108.409 126.959 108.063 125.346 107.37 123.612C106.694 121.896 105.707 120.279 104.408 118.762C103.115 117.242 101.7 116.039 100.165 115.152C97.9302 113.862 96.0624 113.531 94.5613 114.157C93.0602 114.771 92.0989 116.309 91.6775 118.772L95.1415 121.492C95.4014 119.669 95.9758 118.521 96.8649 118.047C97.7656 117.574 98.8886 117.726 100.234 118.502C101.591 119.286 102.702 120.414 103.568 121.887C104.422 123.354 104.85 124.827 104.85 126.307C104.85 128.181 104.261 129.227 103.083 129.447C101.905 129.661 100.577 129.341 99.0993 128.487C98.9607 128.407 98.776 128.287 98.545 128.127L98.164 131.447C99.1339 131.714 99.9451 132.036 100.598 132.412C102.203 133.339 103.525 134.706 104.564 136.512C105.603 138.312 106.123 140.142 106.123 142.002C106.123 143.936 105.56 145.237 104.434 145.907C103.314 146.574 101.94 146.437 100.312 145.497C98.9376 144.704 97.7714 143.531 96.813 141.977C95.8661 140.417 95.1935 138.376 94.7951 135.852ZM87.5811 140.917V137.037L73.7507 129.052C74.1376 128.536 74.6254 128.091 75.2143 127.717C75.8032 127.317 77.1369 126.704 79.2153 125.877C81.7037 124.854 83.4791 123.949 84.5414 123.162C85.621 122.379 86.3918 121.484 86.8537 120.477C87.3098 119.474 87.5378 118.312 87.5378 116.992C87.5378 114.406 86.7498 111.781 85.1736 109.117C83.5974 106.461 81.4555 104.351 78.7477 102.787C76.0688 101.241 73.9355 100.819 72.3478 101.522C70.7543 102.222 69.8363 104.052 69.5938 107.012L73.1618 109.502C73.1734 107.436 73.6786 106.111 74.6774 105.527C75.6762 104.937 77.0099 105.124 78.6784 106.087C80.2488 106.994 81.5247 108.284 82.5062 109.957C83.4935 111.621 83.9871 113.249 83.9871 114.842C83.9871 116.376 83.4473 117.691 82.3677 118.787C81.288 119.864 79.2153 120.984 76.1496 122.147C74.1808 122.904 72.6682 123.691 71.6116 124.507C70.5782 125.351 69.8219 126.374 69.3427 127.577C69.054 128.311 68.9212 129.171 68.9443 130.157L87.5811 140.917ZM57.0364 123.282L60.5005 125.282V92.2522L58.2662 90.9622C57.6657 92.0288 56.6381 92.8988 55.1831 93.5722C53.7398 94.2522 52.051 94.5638 50.1169 94.5072V98.4172C51.1908 98.5705 52.4003 98.5722 53.7455 98.4222C55.1081 98.2822 56.2051 97.9888 57.0364 97.5422V123.282ZM33.7057 110.502V114.552L35.7495 115.732V111.642C38.1744 112.902 40.1489 113.039 41.6731 112.052C43.1973 111.066 43.9594 109.172 43.9594 106.372C43.9594 105.099 43.7747 103.809 43.4052 102.502C43.0415 101.206 42.519 99.9638 41.8377 98.7772C41.1622 97.5938 40.2846 96.4138 39.205 95.2372C38.6392 94.6238 37.4874 93.5622 35.7495 92.0522V80.3922C36.8754 81.3155 37.7587 82.3888 38.3996 83.6122C39.0577 84.8322 39.4879 86.2938 39.6899 87.9972L43.2666 89.4222C42.9606 86.6922 42.0513 84.1572 40.5387 81.8172C39.3609 79.9838 37.7645 78.3755 35.7495 76.9922V75.0622L33.7057 73.8822V75.8122C31.4136 74.7555 29.6816 74.4888 28.5096 75.0122C26.766 75.7788 25.8942 77.6022 25.8942 80.4822C25.8942 82.0955 26.1886 83.7055 26.7775 85.3122C27.3837 86.9355 28.2382 88.4288 29.3409 89.7922C30.8247 91.6155 32.2797 93.0955 33.7057 94.2322V107.102C32.3489 106.152 31.1798 104.674 30.1983 102.667C29.5228 101.264 29.0494 99.3972 28.778 97.0672L25.2966 95.8172C25.4294 97.9872 25.8855 100.024 26.6649 101.927C27.4617 103.841 28.3999 105.439 29.4795 106.722C30.5707 107.992 31.9794 109.252 33.7057 110.502ZM97.3846 221.697L75.8378 209.257V234.067L97.3846 246.507V221.697ZM69.2647 205.462L47.7093 193.017V217.827L69.2647 230.272V205.462ZM41.1362 189.222L19.5895 176.782V201.592L41.1362 214.032V189.222ZM97.3846 189.287L75.8378 176.847V201.657L97.3846 214.097V189.287ZM69.2647 173.052L47.7093 160.607V185.417L69.2647 197.862V173.052ZM41.1362 156.812L19.5895 144.372V169.182L41.1362 181.622V156.812ZM97.3846 156.867L75.8378 144.427V169.247L97.3846 181.687V156.867ZM69.2647 140.632L47.7093 128.187V153.007L69.2647 165.452V140.632ZM41.1362 124.392L19.5895 111.952V136.772L41.1362 149.212V124.392ZM202.771 291.542L123.4 245.717V261.787L202.771 307.612V291.542ZM196.207 171.612L130.042 133.412C126.388 131.302 123.4 133.017 123.4 137.277V229.207C123.4 233.477 126.388 238.632 130.042 240.742L196.207 278.942C199.87 281.057 202.771 279.302 202.771 275.032V183.102C202.771 178.842 199.87 173.727 196.207 171.612Z" fill="white"/>
<path d="M33.7057 79.1722C32.3605 78.6422 31.2953 78.6572 30.5101 79.2172C29.7422 79.7872 29.3583 80.7722 29.3583 82.1722C29.3583 83.5455 29.6874 84.8855 30.3455 86.1922C31.0095 87.5022 32.1295 88.8888 33.7057 90.3522V79.1722Z" fill="white"/>
<path d="M35.7495 108.282C37.0948 108.859 38.2033 108.816 39.0751 108.152C39.9584 107.496 40.4001 106.307 40.4001 104.587C40.4001 103.121 40.0854 101.762 39.4561 100.512C38.8441 99.2655 37.6086 97.7555 35.7495 95.9822V108.282Z" fill="white"/>
</svg>
