<svg width="274" height="349" viewBox="0 0 274 349" fill="none" xmlns="http://www.w3.org/2000/svg">
<path fill-rule="evenodd" clip-rule="evenodd" d="M143.293 156.93L146.757 154.39L94.7952 124.39L91.3311 126.93L143.293 156.93Z" fill="#8BC5E4"/>
<path fill-rule="evenodd" clip-rule="evenodd" d="M150.126 146.095L150.507 142.335L98.5451 112.335L98.1641 116.095L150.126 146.095Z" fill="#8BC5E4"/>
<path fill-rule="evenodd" clip-rule="evenodd" d="M147.103 139.63L143.639 140.91L91.6772 110.91L95.1413 109.63L147.103 139.63Z" fill="#8BC5E4"/>
<path fill-rule="evenodd" clip-rule="evenodd" d="M143.293 156.93L91.3311 126.93L143.293 156.93Z" fill="#8BC5E4"/>
<path fill-rule="evenodd" clip-rule="evenodd" d="M139.543 163.905V167.785L87.5811 137.785V133.905L139.543 163.905Z" fill="#8BC5E4"/>
<path fill-rule="evenodd" clip-rule="evenodd" d="M139.543 167.785L120.906 178.545L68.9443 148.545L87.5812 137.785L139.543 167.785Z" fill="#8BC5E4"/>
<path fill-rule="evenodd" clip-rule="evenodd" d="M125.123 153.02L121.555 154.65L69.5938 124.65L73.1618 123.02L125.123 153.02Z" fill="#8BC5E4"/>
<path fill-rule="evenodd" clip-rule="evenodd" d="M125.712 171.89L139.542 163.905L87.5809 133.905L73.7505 141.89L125.712 171.89Z" fill="#8BC5E4"/>
<path fill-rule="evenodd" clip-rule="evenodd" d="M139.543 163.905L87.5811 133.905L139.543 163.905Z" fill="#8BC5E4"/>
<path fill-rule="evenodd" clip-rule="evenodd" d="M112.462 183.42L108.998 185.42L57.0361 155.42L60.5002 153.42L112.462 183.42Z" fill="#8BC5E4"/>
<path fill-rule="evenodd" clip-rule="evenodd" d="M108.998 185.42V159.68L57.0361 129.68V155.42L108.998 185.42Z" fill="#8BC5E4"/>
<path fill-rule="evenodd" clip-rule="evenodd" d="M102.078 168.545V164.635L50.1167 134.635V138.545L102.078 168.545Z" fill="#8BC5E4"/>
<path fill-rule="evenodd" clip-rule="evenodd" d="M110.228 151.68L112.462 150.39L60.5005 120.39L58.2661 121.68L110.228 151.68Z" fill="#8BC5E4"/>
<path fill-rule="evenodd" clip-rule="evenodd" d="M112.462 150.39V183.42L60.5005 153.42V120.39L112.462 150.39Z" fill="#8BC5E4"/>
<path fill-rule="evenodd" clip-rule="evenodd" d="M112.462 183.42L60.5005 153.42L112.462 183.42Z" fill="#8BC5E4"/>
<path fill-rule="evenodd" clip-rule="evenodd" d="M85.6671 203.63V199.58L33.7056 169.58V173.63L85.6671 203.63Z" fill="#8BC5E4"/>
<path fill-rule="evenodd" clip-rule="evenodd" d="M77.2579 194.605L80.7393 191.835L28.7778 161.835L25.2964 164.605L77.2579 194.605Z" fill="#8BC5E4"/>
<path fill-rule="evenodd" clip-rule="evenodd" d="M85.6671 196.18V183.31L33.7056 153.31V166.18L85.6671 196.18Z" fill="#8BC5E4"/>
<path fill-rule="evenodd" clip-rule="evenodd" d="M85.6671 164.89V162.96L33.7056 132.96V134.89L85.6671 164.89Z" fill="#8BC5E4"/>
<path fill-rule="evenodd" clip-rule="evenodd" d="M85.6671 162.96L87.7109 161.78L35.7494 131.78L33.7056 132.96L85.6671 162.96Z" fill="#8BC5E4"/>
<path fill-rule="evenodd" clip-rule="evenodd" d="M87.711 161.78V163.71L35.7495 133.71V131.78L87.711 161.78Z" fill="#8BC5E4"/>
<path fill-rule="evenodd" clip-rule="evenodd" d="M95.2281 167.46L91.6515 170.165L39.6899 140.165L43.2666 137.46L95.2281 167.46Z" fill="#8BC5E4"/>
<path fill-rule="evenodd" clip-rule="evenodd" d="M87.711 167.11V178.77L35.7495 148.77V137.11L87.711 167.11Z" fill="#8BC5E4"/>
<path fill-rule="evenodd" clip-rule="evenodd" d="M87.711 198.36V202.45L35.7495 172.45V168.36L87.711 198.36Z" fill="#8BC5E4"/>
<path fill-rule="evenodd" clip-rule="evenodd" d="M87.7109 202.45L85.6671 203.63L33.7056 173.63L35.7494 172.45L87.7109 202.45Z" fill="#8BC5E4"/>
<path fill-rule="evenodd" clip-rule="evenodd" d="M85.6671 203.63L33.7056 173.63L85.6671 203.63Z" fill="#8BC5E4"/>
<path fill-rule="evenodd" clip-rule="evenodd" d="M85.6671 179.43V168.25L33.7056 138.25V149.43L85.6671 179.43Z" fill="#8BC5E4"/>
<path fill-rule="evenodd" clip-rule="evenodd" d="M85.6671 168.25L33.7056 138.25L85.6671 168.25Z" fill="#8BC5E4"/>
<path fill-rule="evenodd" clip-rule="evenodd" d="M87.711 182.7V195L35.7495 165V152.7L87.711 182.7Z" fill="#8BC5E4"/>
<path fill-rule="evenodd" clip-rule="evenodd" d="M87.711 195L35.7495 165L87.711 195Z" fill="#8BC5E4"/>
<path fill-rule="evenodd" clip-rule="evenodd" d="M127.799 249.685L149.346 237.245L97.3846 207.245L75.8379 219.685L127.799 249.685Z" fill="#8BC5E4"/>
<path fill-rule="evenodd" clip-rule="evenodd" d="M149.346 237.245V262.055L97.3843 232.055V207.245L149.346 237.245Z" fill="#8BC5E4"/>
<path fill-rule="evenodd" clip-rule="evenodd" d="M149.346 262.055L127.799 274.495L75.8379 244.495L97.3846 232.055L149.346 262.055Z" fill="#8BC5E4"/>
<path fill-rule="evenodd" clip-rule="evenodd" d="M127.799 274.495V249.685L75.8379 219.685V244.495L127.799 274.495Z" fill="#8BC5E4"/>
<path fill-rule="evenodd" clip-rule="evenodd" d="M127.799 249.685L75.8379 219.685L127.799 249.685Z" fill="#8BC5E4"/>
<path fill-rule="evenodd" clip-rule="evenodd" d="M99.671 265.925L121.226 253.48L69.2648 223.48L47.7095 235.925L99.671 265.925Z" fill="#8BC5E4"/>
<path fill-rule="evenodd" clip-rule="evenodd" d="M121.226 253.48V278.29L69.2646 248.29V223.48L121.226 253.48Z" fill="#8BC5E4"/>
<path fill-rule="evenodd" clip-rule="evenodd" d="M121.226 278.29L99.671 290.735L47.7095 260.735L69.2648 248.29L121.226 278.29Z" fill="#8BC5E4"/>
<path fill-rule="evenodd" clip-rule="evenodd" d="M99.671 290.735V265.925L47.7095 235.925V260.735L99.671 290.735Z" fill="#8BC5E4"/>
<path fill-rule="evenodd" clip-rule="evenodd" d="M99.671 265.925L47.7095 235.925L99.671 265.925Z" fill="#8BC5E4"/>
<path fill-rule="evenodd" clip-rule="evenodd" d="M71.5509 282.16L93.0976 269.72L41.1361 239.72L19.5894 252.16L71.5509 282.16Z" fill="#8BC5E4"/>
<path fill-rule="evenodd" clip-rule="evenodd" d="M93.0978 269.72V294.53L41.1362 264.53V239.72L93.0978 269.72Z" fill="#8BC5E4"/>
<path fill-rule="evenodd" clip-rule="evenodd" d="M93.0976 294.53L71.5509 306.97L19.5894 276.97L41.1361 264.53L93.0976 294.53Z" fill="#8BC5E4"/>
<path fill-rule="evenodd" clip-rule="evenodd" d="M71.5509 306.97V282.16L19.5894 252.16V276.97L71.5509 306.97Z" fill="#8BC5E4"/>
<path fill-rule="evenodd" clip-rule="evenodd" d="M71.5509 282.16L19.5894 252.16L71.5509 282.16Z" fill="#8BC5E4"/>
<path fill-rule="evenodd" clip-rule="evenodd" d="M127.799 217.275L149.346 204.835L97.3846 174.835L75.8379 187.275L127.799 217.275Z" fill="#8BC5E4"/>
<path fill-rule="evenodd" clip-rule="evenodd" d="M149.346 204.835V229.645L97.3843 199.645V174.835L149.346 204.835Z" fill="#8BC5E4"/>
<path fill-rule="evenodd" clip-rule="evenodd" d="M149.346 229.645L127.799 242.085L75.8379 212.085L97.3846 199.645L149.346 229.645Z" fill="#8BC5E4"/>
<path fill-rule="evenodd" clip-rule="evenodd" d="M127.799 242.085V217.275L75.8379 187.275V212.085L127.799 242.085Z" fill="#8BC5E4"/>
<path fill-rule="evenodd" clip-rule="evenodd" d="M127.799 217.275L75.8379 187.275L127.799 217.275Z" fill="#8BC5E4"/>
<path fill-rule="evenodd" clip-rule="evenodd" d="M99.671 233.515L121.226 221.07L69.2648 191.07L47.7095 203.515L99.671 233.515Z" fill="#8BC5E4"/>
<path fill-rule="evenodd" clip-rule="evenodd" d="M121.226 221.07V245.88L69.2646 215.88V191.07L121.226 221.07Z" fill="#8BC5E4"/>
<path fill-rule="evenodd" clip-rule="evenodd" d="M121.226 245.88L99.671 258.325L47.7095 228.325L69.2648 215.88L121.226 245.88Z" fill="#8BC5E4"/>
<path fill-rule="evenodd" clip-rule="evenodd" d="M99.671 258.325V233.515L47.7095 203.515V228.325L99.671 258.325Z" fill="#8BC5E4"/>
<path fill-rule="evenodd" clip-rule="evenodd" d="M99.671 233.515L47.7095 203.515L99.671 233.515Z" fill="#8BC5E4"/>
<path fill-rule="evenodd" clip-rule="evenodd" d="M71.5509 249.75L93.0976 237.31L41.1361 207.31L19.5894 219.75L71.5509 249.75Z" fill="#8BC5E4"/>
<path fill-rule="evenodd" clip-rule="evenodd" d="M93.0978 237.31V262.12L41.1362 232.12V207.31L93.0978 237.31Z" fill="#8BC5E4"/>
<path fill-rule="evenodd" clip-rule="evenodd" d="M93.0976 262.12L71.5509 274.56L19.5894 244.56L41.1361 232.12L93.0976 262.12Z" fill="#8BC5E4"/>
<path fill-rule="evenodd" clip-rule="evenodd" d="M71.5509 274.56V249.75L19.5894 219.75V244.56L71.5509 274.56Z" fill="#8BC5E4"/>
<path fill-rule="evenodd" clip-rule="evenodd" d="M71.5509 249.75L19.5894 219.75L71.5509 249.75Z" fill="#8BC5E4"/>
<path fill-rule="evenodd" clip-rule="evenodd" d="M127.799 184.855L149.346 172.415L97.3846 142.415L75.8379 154.855L127.799 184.855Z" fill="#8BC5E4"/>
<path fill-rule="evenodd" clip-rule="evenodd" d="M149.346 172.415V197.235L97.3843 167.235V142.415L149.346 172.415Z" fill="#8BC5E4"/>
<path fill-rule="evenodd" clip-rule="evenodd" d="M149.346 197.235L127.799 209.675L75.8379 179.675L97.3846 167.235L149.346 197.235Z" fill="#8BC5E4"/>
<path fill-rule="evenodd" clip-rule="evenodd" d="M127.799 209.675V184.855L75.8379 154.855V179.675L127.799 209.675Z" fill="#8BC5E4"/>
<path fill-rule="evenodd" clip-rule="evenodd" d="M127.799 184.855L75.8379 154.855L127.799 184.855Z" fill="#8BC5E4"/>
<path fill-rule="evenodd" clip-rule="evenodd" d="M99.671 201.095L121.226 188.65L69.2648 158.65L47.7095 171.095L99.671 201.095Z" fill="#8BC5E4"/>
<path fill-rule="evenodd" clip-rule="evenodd" d="M121.226 188.65V213.47L69.2646 183.47V158.65L121.226 188.65Z" fill="#8BC5E4"/>
<path fill-rule="evenodd" clip-rule="evenodd" d="M121.226 213.47L99.671 225.915L47.7095 195.915L69.2648 183.47L121.226 213.47Z" fill="#8BC5E4"/>
<path fill-rule="evenodd" clip-rule="evenodd" d="M99.671 225.915V201.095L47.7095 171.095V195.915L99.671 225.915Z" fill="#8BC5E4"/>
<path fill-rule="evenodd" clip-rule="evenodd" d="M99.671 201.095L47.7095 171.095L99.671 201.095Z" fill="#8BC5E4"/>
<path fill-rule="evenodd" clip-rule="evenodd" d="M71.5509 217.33L93.0976 204.89L41.1361 174.89L19.5894 187.33L71.5509 217.33Z" fill="#8BC5E4"/>
<path fill-rule="evenodd" clip-rule="evenodd" d="M93.0978 204.89V229.71L41.1362 199.71V174.89L93.0978 204.89Z" fill="#8BC5E4"/>
<path fill-rule="evenodd" clip-rule="evenodd" d="M93.0976 229.71L71.5509 242.15L19.5894 212.15L41.1361 199.71L93.0976 229.71Z" fill="#8BC5E4"/>
<path fill-rule="evenodd" clip-rule="evenodd" d="M71.5509 242.15V217.33L19.5894 187.33V212.15L71.5509 242.15Z" fill="#8BC5E4"/>
<path fill-rule="evenodd" clip-rule="evenodd" d="M71.5509 217.33L19.5894 187.33L71.5509 217.33Z" fill="#8BC5E4"/>
<path fill-rule="evenodd" clip-rule="evenodd" d="M175.361 231.225L254.733 185.4L202.771 155.4L123.4 201.225L175.361 231.225Z" fill="#8BC5E4"/>
<path fill-rule="evenodd" clip-rule="evenodd" d="M254.733 185.4V201.47L202.771 171.47V155.4L254.733 185.4Z" fill="#8BC5E4"/>
<path fill-rule="evenodd" clip-rule="evenodd" d="M254.733 201.47L175.361 247.295L123.4 217.295L202.771 171.47L254.733 201.47Z" fill="#8BC5E4"/>
<path fill-rule="evenodd" clip-rule="evenodd" d="M175.361 247.295V231.225L123.4 201.225V217.295L175.361 247.295Z" fill="#8BC5E4"/>
<path fill-rule="evenodd" clip-rule="evenodd" d="M175.361 231.225L123.4 201.225L175.361 231.225Z" fill="#8BC5E4"/>
<path fill-rule="evenodd" clip-rule="evenodd" d="M182.004 111.25L248.168 73.0498L196.207 43.0498L130.042 81.2498L182.004 111.25Z" fill="#8BC5E4"/>
<path fill-rule="evenodd" clip-rule="evenodd" d="M254.733 76.96V168.89L202.771 138.89V46.96L254.733 76.96Z" fill="#8BC5E4"/>
<path fill-rule="evenodd" clip-rule="evenodd" d="M248.168 180.38L182.004 218.58L130.042 188.58L196.207 150.38L248.168 180.38Z" fill="#8BC5E4"/>
<path fill-rule="evenodd" clip-rule="evenodd" d="M175.361 214.715V122.785L123.4 92.7849V184.715L175.361 214.715Z" fill="#8BC5E4"/>
<path fill-rule="evenodd" clip-rule="evenodd" d="M182.004 111.25L130.042 81.2499L182.004 111.25Z" fill="#8BC5E4"/>
<path fill-rule="evenodd" clip-rule="evenodd" d="M51.9615 165.58V341.14L0 311.14V135.58L51.9615 165.58Z" fill="#8BC5E4"/>
<path fill-rule="evenodd" clip-rule="evenodd" d="M62.4317 347.315L263.194 231.405L211.232 201.405L10.4702 317.315L62.4317 347.315Z" fill="#8BC5E4"/>
<path fill-rule="evenodd" clip-rule="evenodd" d="M273.664 213.14V37.5798L221.703 7.57983V183.14L273.664 213.14Z" fill="#8BC5E4"/>
<path fill-rule="evenodd" clip-rule="evenodd" d="M263.194 31.4048L62.4317 147.315L10.4702 117.315L211.232 1.40479L263.194 31.4048Z" fill="#8BC5E4"/>
<path fill-rule="evenodd" clip-rule="evenodd" d="M62.4317 147.315L10.4702 117.315L62.4317 147.315Z" fill="#8BC5E4"/>
<path fill-rule="evenodd" clip-rule="evenodd" d="M62.4317 152.825L263.194 36.9148L211.232 6.91479L10.4702 122.825L62.4317 152.825Z" fill="#8BC5E4"/>
<path fill-rule="evenodd" clip-rule="evenodd" d="M268.927 40.3149V215.875L216.965 185.875V10.3149L268.927 40.3149Z" fill="#8BC5E4"/>
<path fill-rule="evenodd" clip-rule="evenodd" d="M263.194 225.895L62.4317 341.805L10.4702 311.805L211.232 195.895L263.194 225.895Z" fill="#8BC5E4"/>
<path fill-rule="evenodd" clip-rule="evenodd" d="M56.69 338.41V162.85L4.72852 132.85V308.41L56.69 338.41Z" fill="#8BC5E4"/>
<path fill-rule="evenodd" clip-rule="evenodd" d="M62.4317 152.825L10.4702 122.825L62.4317 152.825Z" fill="#8BC5E4"/>
<path fill-rule="evenodd" clip-rule="evenodd" d="M146.756 154.39C147.123 156.288 147.722 157.511 148.552 158.058L96.5908 128.058C95.76 127.511 95.1614 126.288 94.7949 124.39L146.756 154.39Z" fill="#8BC5E4"/>
<path fill-rule="evenodd" clip-rule="evenodd" d="M148.552 158.057C148.625 158.105 148.699 158.147 148.774 158.185L96.8128 128.185C96.7371 128.147 96.6631 128.105 96.5908 128.057L148.552 158.057Z" fill="#8BC5E4"/>
<path fill-rule="evenodd" clip-rule="evenodd" d="M148.775 158.185C149.733 158.632 150.899 158.458 152.273 157.665L100.312 127.665C98.9376 128.458 97.7714 128.632 96.813 128.185L148.775 158.185Z" fill="#8BC5E4"/>
<path fill-rule="evenodd" clip-rule="evenodd" d="M152.273 157.665C153.901 156.725 155.275 155.275 156.395 153.315L104.434 123.315C103.314 125.275 101.94 126.725 100.312 127.665L152.273 157.665Z" fill="#8BC5E4"/>
<path fill-rule="evenodd" clip-rule="evenodd" d="M156.396 153.315C157.521 151.345 158.084 149.393 158.084 147.46L106.123 117.46C106.123 119.393 105.56 121.345 104.434 123.315L156.396 153.315Z" fill="#8BC5E4"/>
<path fill-rule="evenodd" clip-rule="evenodd" d="M158.084 147.46C158.084 145.6 157.565 144.37 156.525 143.77L104.564 113.77C105.603 114.37 106.123 115.6 106.123 117.46L158.084 147.46Z" fill="#8BC5E4"/>
<path fill-rule="evenodd" clip-rule="evenodd" d="M156.526 143.77C155.486 143.163 154.164 143.323 152.559 144.25L100.598 114.25C102.203 113.323 103.525 113.163 104.564 113.77L156.526 143.77Z" fill="#8BC5E4"/>
<path fill-rule="evenodd" clip-rule="evenodd" d="M152.559 144.25C151.907 144.627 151.096 145.242 150.126 146.095L98.1641 116.095C99.134 115.242 99.9452 114.627 100.598 114.25L152.559 144.25Z" fill="#8BC5E4"/>
<path fill-rule="evenodd" clip-rule="evenodd" d="M150.506 142.335C150.737 142.228 150.922 142.135 151.061 142.055L99.0992 112.055C98.9606 112.135 98.7759 112.228 98.5449 112.335L150.506 142.335Z" fill="#8BC5E4"/>
<path fill-rule="evenodd" clip-rule="evenodd" d="M151.061 142.055C152.539 141.202 153.867 139.988 155.044 138.415L103.083 108.415C101.905 109.988 100.577 111.202 99.0991 112.055L151.061 142.055Z" fill="#8BC5E4"/>
<path fill-rule="evenodd" clip-rule="evenodd" d="M155.045 138.415C156.222 136.835 156.811 135.108 156.811 133.235L104.85 103.235C104.85 105.108 104.261 106.835 103.083 108.415L155.045 138.415Z" fill="#8BC5E4"/>
<path fill-rule="evenodd" clip-rule="evenodd" d="M156.811 133.235C156.811 131.755 156.384 130.775 155.529 130.295L103.568 100.295C104.422 100.775 104.85 101.755 104.85 103.235L156.811 133.235Z" fill="#8BC5E4"/>
<path fill-rule="evenodd" clip-rule="evenodd" d="M155.53 130.295C154.664 129.822 153.552 129.977 152.195 130.76L100.234 100.76C101.591 99.9766 102.702 99.8216 103.568 100.295L155.53 130.295Z" fill="#8BC5E4"/>
<path fill-rule="evenodd" clip-rule="evenodd" d="M152.195 130.76C150.85 131.537 149.727 132.682 148.826 134.195L96.8647 104.195C97.7654 102.682 98.8884 101.537 100.234 100.76L152.195 130.76Z" fill="#8BC5E4"/>
<path fill-rule="evenodd" clip-rule="evenodd" d="M148.827 134.195C147.937 135.695 147.363 137.506 147.103 139.63L95.1416 109.63C95.4014 107.506 95.9759 105.695 96.865 104.195L148.827 134.195Z" fill="#8BC5E4"/>
<path fill-rule="evenodd" clip-rule="evenodd" d="M143.639 140.91C144.06 137.96 145.022 135.312 146.523 132.965L94.5611 102.965C93.06 105.312 92.0987 107.96 91.6772 110.91L143.639 140.91Z" fill="#8BC5E4"/>
<path fill-rule="evenodd" clip-rule="evenodd" d="M146.523 132.965C148.024 130.605 149.891 128.78 152.126 127.49L100.164 97.4899C97.9299 98.7799 96.0621 100.605 94.561 102.965L146.523 132.965Z" fill="#8BC5E4"/>
<path fill-rule="evenodd" clip-rule="evenodd" d="M152.126 127.49C153.662 126.603 155.076 126.173 156.37 126.2L104.408 96.1999C103.115 96.1732 101.7 96.6032 100.165 97.4899L152.126 127.49Z" fill="#8BC5E4"/>
<path fill-rule="evenodd" clip-rule="evenodd" d="M156.369 126.2C157.097 126.209 157.726 126.363 158.258 126.661L106.297 96.6606C105.765 96.3628 105.135 96.2092 104.408 96.1998L156.369 126.2Z" fill="#8BC5E4"/>
<path fill-rule="evenodd" clip-rule="evenodd" d="M158.258 126.661C158.676 126.895 159.034 127.218 159.331 127.63L107.37 97.6299C107.072 97.2177 106.715 96.8947 106.297 96.6606L158.258 126.661Z" fill="#8BC5E4"/>
<path fill-rule="evenodd" clip-rule="evenodd" d="M159.331 127.63C160.024 128.563 160.37 129.777 160.37 131.27L108.409 101.27C108.409 99.7766 108.062 98.5632 107.37 97.6299L159.331 127.63Z" fill="#8BC5E4"/>
<path fill-rule="evenodd" clip-rule="evenodd" d="M160.37 131.27C160.37 132.697 160.044 134.182 159.392 135.725L107.43 105.725C108.083 104.182 108.409 102.697 108.409 101.27L160.37 131.27Z" fill="#8BC5E4"/>
<path fill-rule="evenodd" clip-rule="evenodd" d="M159.392 135.725C158.739 137.268 157.77 138.755 156.482 140.185L104.521 110.185C105.808 108.755 106.778 107.268 107.43 105.725L159.392 135.725Z" fill="#8BC5E4"/>
<path fill-rule="evenodd" clip-rule="evenodd" d="M156.482 140.185C157.817 139.772 158.913 139.809 159.772 140.298L107.81 110.298C106.952 109.809 105.855 109.772 104.521 110.185L156.482 140.185Z" fill="#8BC5E4"/>
<path fill-rule="evenodd" clip-rule="evenodd" d="M159.772 140.298C159.986 140.421 160.186 140.571 160.371 140.75L108.409 110.75C108.224 110.571 108.025 110.421 107.81 110.298L159.772 140.298Z" fill="#8BC5E4"/>
<path fill-rule="evenodd" clip-rule="evenodd" d="M160.371 140.75C161.294 141.617 161.756 143.113 161.756 145.24L109.795 115.24C109.795 113.113 109.333 111.617 108.409 110.75L160.371 140.75Z" fill="#8BC5E4"/>
<path fill-rule="evenodd" clip-rule="evenodd" d="M161.756 145.24C161.756 148.113 160.858 151.072 159.063 154.115L107.101 124.115C108.897 121.072 109.794 118.113 109.794 115.24L161.756 145.24Z" fill="#8BC5E4"/>
<path fill-rule="evenodd" clip-rule="evenodd" d="M159.063 154.115C157.267 157.138 154.998 159.442 152.256 161.025L100.294 131.025C103.037 129.442 105.306 127.138 107.101 124.115L159.063 154.115Z" fill="#8BC5E4"/>
<path fill-rule="evenodd" clip-rule="evenodd" d="M152.256 161.025C149.779 162.455 147.724 162.782 146.09 162.005L94.1284 132.005C95.7623 132.782 97.8177 132.455 100.295 131.025L152.256 161.025Z" fill="#8BC5E4"/>
<path fill-rule="evenodd" clip-rule="evenodd" d="M146.09 162.005C146.024 161.974 145.96 161.941 145.897 161.907L93.9355 131.907C93.9987 131.941 94.0629 131.974 94.1282 132.005L146.09 162.005Z" fill="#8BC5E4"/>
<path fill-rule="evenodd" clip-rule="evenodd" d="M145.897 161.907C144.382 161.091 143.514 159.432 143.293 156.93L91.3311 126.93C91.5528 129.432 92.4209 131.091 93.9356 131.907L145.897 161.907Z" fill="#8BC5E4"/>
<path fill-rule="evenodd" clip-rule="evenodd" d="M120.905 178.545C120.882 177.585 121.015 176.572 121.304 175.505L69.3423 145.505C69.0537 146.572 68.9209 147.585 68.944 148.545L120.905 178.545Z" fill="#8BC5E4"/>
<path fill-rule="evenodd" clip-rule="evenodd" d="M121.304 175.505C121.784 173.748 122.54 171.852 123.573 169.815L71.6118 139.815C70.5783 141.852 69.822 143.748 69.3428 145.505L121.304 175.505Z" fill="#8BC5E4"/>
<path fill-rule="evenodd" clip-rule="evenodd" d="M123.573 169.815C124.629 167.778 126.142 165.245 128.111 162.215L76.1493 132.215C74.1805 135.245 72.6679 137.778 71.6113 139.815L123.573 169.815Z" fill="#8BC5E4"/>
<path fill-rule="evenodd" clip-rule="evenodd" d="M128.111 162.215C131.177 157.511 133.249 153.998 134.329 151.675L82.3675 121.675C81.2878 123.998 79.2151 127.511 76.1494 132.215L128.111 162.215Z" fill="#8BC5E4"/>
<path fill-rule="evenodd" clip-rule="evenodd" d="M134.329 151.675C135.409 149.332 135.949 147.393 135.949 145.86L83.9871 115.86C83.9871 117.393 83.4473 119.332 82.3677 121.675L134.329 151.675Z" fill="#8BC5E4"/>
<path fill-rule="evenodd" clip-rule="evenodd" d="M135.948 145.86C135.948 144.33 135.493 143.294 134.584 142.75L82.6221 112.75C83.5319 113.294 83.9869 114.33 83.9869 115.86L135.948 145.86Z" fill="#8BC5E4"/>
<path fill-rule="evenodd" clip-rule="evenodd" d="M134.584 142.75C134.546 142.728 134.507 142.706 134.468 142.685L82.5063 112.685C82.5458 112.706 82.5845 112.728 82.6225 112.75L134.584 142.75Z" fill="#8BC5E4"/>
<path fill-rule="evenodd" clip-rule="evenodd" d="M134.468 142.685C133.486 142.145 132.21 142.328 130.64 143.235L78.6782 113.235C80.2486 112.328 81.5246 112.145 82.5061 112.685L134.468 142.685Z" fill="#8BC5E4"/>
<path fill-rule="evenodd" clip-rule="evenodd" d="M130.64 143.235C128.971 144.198 127.638 145.552 126.639 147.295L74.6772 117.295C75.6761 115.552 77.0097 114.198 78.6783 113.235L130.64 143.235Z" fill="#8BC5E4"/>
<path fill-rule="evenodd" clip-rule="evenodd" d="M126.639 147.295C125.64 149.032 125.135 150.94 125.123 153.02L73.1616 123.02C73.1732 120.94 73.6783 119.032 74.6772 117.295L126.639 147.295Z" fill="#8BC5E4"/>
<path fill-rule="evenodd" clip-rule="evenodd" d="M121.555 154.65C121.798 151.41 122.716 148.52 124.309 145.98L72.3477 115.98C70.7542 118.52 69.8362 121.41 69.5938 124.65L121.555 154.65Z" fill="#8BC5E4"/>
<path fill-rule="evenodd" clip-rule="evenodd" d="M124.309 145.98C125.897 143.443 128.03 141.402 130.709 139.855L78.7476 109.855C76.0687 111.402 73.9354 113.443 72.3477 115.98L124.309 145.98Z" fill="#8BC5E4"/>
<path fill-rule="evenodd" clip-rule="evenodd" d="M130.709 139.855C133.417 138.292 135.559 137.928 137.135 138.765L85.1735 108.765C83.5973 107.928 81.4553 108.292 78.7476 109.855L130.709 139.855Z" fill="#8BC5E4"/>
<path fill-rule="evenodd" clip-rule="evenodd" d="M137.135 138.765L85.1733 108.765L137.135 138.765Z" fill="#8BC5E4"/>
<path fill-rule="evenodd" clip-rule="evenodd" d="M137.135 138.765C138.711 139.608 139.499 141.323 139.499 143.91L87.5376 113.91C87.5376 111.323 86.7495 109.608 85.1733 108.765L137.135 138.765Z" fill="#8BC5E4"/>
<path fill-rule="evenodd" clip-rule="evenodd" d="M139.499 143.91C139.499 145.23 139.271 146.655 138.815 148.185L86.8535 118.185C87.3096 116.655 87.5377 115.23 87.5377 113.91L139.499 143.91Z" fill="#8BC5E4"/>
<path fill-rule="evenodd" clip-rule="evenodd" d="M138.815 148.185C138.353 149.725 137.583 151.51 136.503 153.54L84.5415 123.54C85.6211 121.51 86.3919 119.725 86.8538 118.185L138.815 148.185Z" fill="#8BC5E4"/>
<path fill-rule="evenodd" clip-rule="evenodd" d="M136.503 153.54C135.441 155.553 133.665 158.508 131.177 162.405L79.2153 132.405C81.7037 128.508 83.4791 125.553 84.5414 123.54L136.503 153.54Z" fill="#8BC5E4"/>
<path fill-rule="evenodd" clip-rule="evenodd" d="M131.177 162.405C129.098 165.631 127.765 167.785 127.176 168.865L75.2144 138.865C75.8033 137.785 77.1369 135.631 79.2154 132.405L131.177 162.405Z" fill="#8BC5E4"/>
<path fill-rule="evenodd" clip-rule="evenodd" d="M127.176 168.865C126.587 169.918 126.099 170.926 125.712 171.89L73.7505 141.89C74.1373 140.926 74.6252 139.918 75.2141 138.865L127.176 168.865Z" fill="#8BC5E4"/>
<path fill-rule="evenodd" clip-rule="evenodd" d="M108.998 159.68C108.167 161.086 107.07 162.646 105.707 164.36L53.7456 134.36C55.1082 132.646 56.2051 131.086 57.0365 129.68L108.998 159.68Z" fill="#8BC5E4"/>
<path fill-rule="evenodd" clip-rule="evenodd" d="M105.707 164.36C104.362 166.063 103.152 167.458 102.078 168.545L50.1167 138.545C51.1906 137.458 52.4001 136.063 53.7453 134.36L105.707 164.36Z" fill="#8BC5E4"/>
<path fill-rule="evenodd" clip-rule="evenodd" d="M102.078 164.635C104.012 162.458 105.701 160.197 107.144 157.85L55.183 127.85C53.7396 130.197 52.0508 132.458 50.1167 134.635L102.078 164.635Z" fill="#8BC5E4"/>
<path fill-rule="evenodd" clip-rule="evenodd" d="M107.145 157.85C108.6 155.496 109.627 153.44 110.228 151.68L58.2662 121.68C57.6657 123.44 56.638 125.496 55.1831 127.85L107.145 157.85Z" fill="#8BC5E4"/>
<path fill-rule="evenodd" clip-rule="evenodd" d="M85.6672 199.58C83.9409 200.323 82.5322 200.69 81.441 200.68L29.4795 170.68C30.5707 170.69 31.9794 170.323 33.7057 169.58L85.6672 199.58Z" fill="#8BC5E4"/>
<path fill-rule="evenodd" clip-rule="evenodd" d="M81.4407 200.68C80.8793 200.661 80.3561 200.512 79.8712 200.235L27.9097 170.235C28.3946 170.512 28.9178 170.661 29.4792 170.68L81.4407 200.68Z" fill="#8BC5E4"/>
<path fill-rule="evenodd" clip-rule="evenodd" d="M79.8716 200.235C79.424 199.978 79.009 199.612 78.6266 199.135L26.665 169.135C27.0475 169.612 27.4625 169.978 27.9101 170.235L79.8716 200.235Z" fill="#8BC5E4"/>
<path fill-rule="evenodd" clip-rule="evenodd" d="M78.6262 199.135C77.8468 198.132 77.3907 196.622 77.2579 194.605L25.2964 164.605C25.4292 166.622 25.8853 168.132 26.6647 169.135L78.6262 199.135Z" fill="#8BC5E4"/>
<path fill-rule="evenodd" clip-rule="evenodd" d="M80.7394 191.835C81.0107 193.852 81.4841 195.172 82.1596 195.795L30.1981 165.795C29.5226 165.172 29.0492 163.852 28.7778 161.835L80.7394 191.835Z" fill="#8BC5E4"/>
<path fill-rule="evenodd" clip-rule="evenodd" d="M82.1598 195.795C82.3168 195.935 82.4786 196.055 82.6453 196.157L30.6838 166.157C30.5171 166.055 30.3553 165.935 30.1982 165.795L82.1598 195.795Z" fill="#8BC5E4"/>
<path fill-rule="evenodd" clip-rule="evenodd" d="M82.6451 196.157C83.52 196.69 84.5273 196.698 85.667 196.18L33.7055 166.18C32.5658 166.698 31.5585 166.69 30.6836 166.157L82.6451 196.157Z" fill="#8BC5E4"/>
<path fill-rule="evenodd" clip-rule="evenodd" d="M85.6671 183.31C84.2411 183.82 82.7861 184.02 81.3023 183.91L29.3408 153.91C30.8246 154.02 32.2795 153.82 33.7056 153.31L85.6671 183.31Z" fill="#8BC5E4"/>
<path fill-rule="evenodd" clip-rule="evenodd" d="M81.3022 183.91C80.7729 183.867 80.3008 183.727 79.8858 183.492L27.9243 153.492C28.3392 153.727 28.8113 153.867 29.3407 153.91L81.3022 183.91Z" fill="#8BC5E4"/>
<path fill-rule="evenodd" clip-rule="evenodd" d="M79.886 183.492C79.4365 183.237 79.0541 182.87 78.7389 182.39L26.7773 152.39C27.0926 152.87 27.4749 153.237 27.9244 153.492L79.886 183.492Z" fill="#8BC5E4"/>
<path fill-rule="evenodd" clip-rule="evenodd" d="M78.7389 182.39C78.15 181.463 77.8556 180.193 77.8556 178.58L25.894 148.58C25.894 150.193 26.1885 151.463 26.7774 152.39L78.7389 182.39Z" fill="#8BC5E4"/>
<path fill-rule="evenodd" clip-rule="evenodd" d="M77.8556 178.58C77.8556 175.7 78.7274 172.87 80.471 170.09L28.5094 140.09C26.7658 142.87 25.894 145.7 25.894 148.58L77.8556 178.58Z" fill="#8BC5E4"/>
<path fill-rule="evenodd" clip-rule="evenodd" d="M80.4708 170.09C81.6428 168.213 83.3749 166.48 85.667 164.89L33.7054 134.89C31.4133 136.48 29.6813 138.213 28.5093 140.09L80.4708 170.09Z" fill="#8BC5E4"/>
<path fill-rule="evenodd" clip-rule="evenodd" d="M87.711 163.71C89.726 162.766 91.3224 162.531 92.5002 163.005L40.5386 133.005C39.3608 132.531 37.7645 132.766 35.7495 133.71L87.711 163.71Z" fill="#8BC5E4"/>
<path fill-rule="evenodd" clip-rule="evenodd" d="M92.5001 163.005C92.6211 163.052 92.7383 163.106 92.8516 163.164L40.89 133.164C40.7767 133.106 40.6596 133.052 40.5386 133.005L92.5001 163.005Z" fill="#8BC5E4"/>
<path fill-rule="evenodd" clip-rule="evenodd" d="M92.8517 163.165C94.1545 163.842 94.9467 165.273 95.2282 167.46L43.2667 137.46C42.9851 135.274 42.193 133.842 40.8901 133.165L92.8517 163.165Z" fill="#8BC5E4"/>
<path fill-rule="evenodd" clip-rule="evenodd" d="M91.6513 170.165C91.4492 168.695 91.0191 167.73 90.3609 167.27L38.3994 137.27C39.0576 137.73 39.4877 138.695 39.6898 140.165L91.6513 170.165Z" fill="#8BC5E4"/>
<path fill-rule="evenodd" clip-rule="evenodd" d="M90.3612 167.27C90.3099 167.231 90.2571 167.195 90.2027 167.162L38.2412 137.162C38.2956 137.195 38.3484 137.231 38.3997 137.27L90.3612 167.27Z" fill="#8BC5E4"/>
<path fill-rule="evenodd" clip-rule="evenodd" d="M90.2026 167.162C89.5773 166.781 88.7468 166.763 87.711 167.11L35.7495 137.11C36.7853 136.763 37.6158 136.781 38.2411 137.162L90.2026 167.162Z" fill="#8BC5E4"/>
<path fill-rule="evenodd" clip-rule="evenodd" d="M87.711 178.77C89.4489 178.273 90.6007 178.005 91.1665 177.965L39.205 147.965C38.6392 148.005 37.4873 148.273 35.7495 148.77L87.711 178.77Z" fill="#8BC5E4"/>
<path fill-rule="evenodd" clip-rule="evenodd" d="M91.1666 177.965C92.2462 177.895 93.1238 178.061 93.7993 178.465L41.8378 148.465C41.1623 148.061 40.2847 147.895 39.2051 147.965L91.1666 177.965Z" fill="#8BC5E4"/>
<path fill-rule="evenodd" clip-rule="evenodd" d="M93.7989 178.465C94.4802 178.865 95.0027 179.503 95.3664 180.38L43.4049 150.38C43.0412 149.503 42.5187 148.865 41.8374 148.465L93.7989 178.465Z" fill="#8BC5E4"/>
<path fill-rule="evenodd" clip-rule="evenodd" d="M95.3668 180.38C95.7363 181.26 95.9211 182.337 95.9211 183.61L43.9595 153.61C43.9595 152.337 43.7748 151.26 43.4053 150.38L95.3668 180.38Z" fill="#8BC5E4"/>
<path fill-rule="evenodd" clip-rule="evenodd" d="M95.9207 183.61C95.9207 186.41 95.1586 189.183 93.6344 191.93L41.6729 161.93C43.1971 159.183 43.9592 156.41 43.9592 153.61L95.9207 183.61Z" fill="#8BC5E4"/>
<path fill-rule="evenodd" clip-rule="evenodd" d="M93.6347 191.93C92.1104 194.676 90.1359 196.82 87.711 198.36L35.7495 168.36C38.1744 166.82 40.1489 164.676 41.6731 161.93L93.6347 191.93Z" fill="#8BC5E4"/>
<path fill-rule="evenodd" clip-rule="evenodd" d="M85.6669 168.25C84.3217 169.273 83.2565 170.518 82.4713 171.985L30.5098 141.985C31.295 140.518 32.3602 139.273 33.7054 138.25L85.6669 168.25Z" fill="#8BC5E4"/>
<path fill-rule="evenodd" clip-rule="evenodd" d="M82.4717 171.985C81.7039 173.442 81.3199 174.87 81.3199 176.27L29.3584 146.27C29.3584 144.87 29.7423 143.442 30.5102 141.985L82.4717 171.985Z" fill="#8BC5E4"/>
<path fill-rule="evenodd" clip-rule="evenodd" d="M81.3199 176.27C81.3199 177.643 81.649 178.603 82.3072 179.15L30.3457 149.15C29.6875 148.603 29.3584 147.643 29.3584 146.27L81.3199 176.27Z" fill="#8BC5E4"/>
<path fill-rule="evenodd" clip-rule="evenodd" d="M82.3067 179.15C82.3599 179.193 82.4159 179.234 82.4748 179.272L30.5133 149.272C30.4544 149.234 30.3983 149.193 30.3452 149.15L82.3067 179.15Z" fill="#8BC5E4"/>
<path fill-rule="evenodd" clip-rule="evenodd" d="M82.4752 179.271C83.1532 179.705 84.2172 179.758 85.6673 179.43L33.7057 149.43C32.2557 149.758 31.1916 149.705 30.5137 149.271L82.4752 179.271Z" fill="#8BC5E4"/>
<path fill-rule="evenodd" clip-rule="evenodd" d="M87.711 195C89.0563 194.023 90.1648 192.7 91.0366 191.03L39.075 161.03C38.2033 162.7 37.0947 164.023 35.7495 165L87.711 195Z" fill="#8BC5E4"/>
<path fill-rule="evenodd" clip-rule="evenodd" d="M91.0367 191.03C91.9201 189.353 92.3617 187.655 92.3617 185.935L40.4002 155.935C40.4002 157.655 39.9585 159.353 39.0752 161.03L91.0367 191.03Z" fill="#8BC5E4"/>
<path fill-rule="evenodd" clip-rule="evenodd" d="M92.3615 185.935C92.3615 184.468 92.0469 183.473 91.4176 182.95L39.4561 152.95C40.0854 153.473 40.4 154.468 40.4 155.935L92.3615 185.935Z" fill="#8BC5E4"/>
<path fill-rule="evenodd" clip-rule="evenodd" d="M91.4177 182.95C91.3688 182.907 91.3158 182.866 91.2589 182.829L39.2974 152.829C39.3543 152.866 39.4073 152.907 39.4562 152.95L91.4177 182.95Z" fill="#8BC5E4"/>
<path fill-rule="evenodd" clip-rule="evenodd" d="M91.2588 182.829C90.604 182.399 89.4214 182.356 87.711 182.7L35.7495 152.7C37.4599 152.356 38.6424 152.399 39.2973 152.829L91.2588 182.829Z" fill="#8BC5E4"/>
<path fill-rule="evenodd" clip-rule="evenodd" d="M248.168 73.0498C249.926 72.0346 251.509 71.9133 252.68 72.5329L200.718 42.5329C199.548 41.9133 197.965 42.0346 196.207 43.0498L248.168 73.0498Z" fill="#8BC5E4"/>
<path fill-rule="evenodd" clip-rule="evenodd" d="M252.68 72.533C253.948 73.2041 254.732 74.7447 254.732 76.9599L202.771 46.9599C202.771 44.7447 201.986 43.2041 200.718 42.533L252.68 72.533Z" fill="#8BC5E4"/>
<path fill-rule="evenodd" clip-rule="evenodd" d="M254.733 168.89C254.733 173.16 251.831 178.265 248.168 180.38L196.207 150.38C199.87 148.265 202.771 143.16 202.771 138.89L254.733 168.89Z" fill="#8BC5E4"/>
<path fill-rule="evenodd" clip-rule="evenodd" d="M182.004 218.58C180.249 219.593 178.649 219.726 177.459 219.12L125.497 189.12C126.687 189.726 128.288 189.593 130.042 188.58L182.004 218.58Z" fill="#8BC5E4"/>
<path fill-rule="evenodd" clip-rule="evenodd" d="M177.459 219.12C176.169 218.462 175.361 216.935 175.361 214.715L123.4 184.715C123.4 186.935 124.208 188.462 125.497 189.12L177.459 219.12Z" fill="#8BC5E4"/>
<path fill-rule="evenodd" clip-rule="evenodd" d="M175.361 122.785C175.361 118.525 178.349 113.36 182.004 111.25L130.042 81.2499C126.388 83.3599 123.4 88.5249 123.4 92.7849L175.361 122.785Z" fill="#8BC5E4"/>
<path fill-rule="evenodd" clip-rule="evenodd" d="M62.4318 147.315C56.6727 150.64 51.9615 158.85 51.9615 165.58L0 135.58C0 128.85 4.71118 120.64 10.4702 117.315L62.4318 147.315Z" fill="#8BC5E4"/>
<path fill-rule="evenodd" clip-rule="evenodd" d="M51.9615 341.14C51.9615 344.37 53.047 346.688 54.8128 347.858L2.85124 317.858C1.08546 316.688 0 314.37 0 311.14L51.9615 341.14Z" fill="#8BC5E4"/>
<path fill-rule="evenodd" clip-rule="evenodd" d="M54.8126 347.858C56.7255 349.125 59.4369 349.044 62.4316 347.315L10.4701 317.315C7.47537 319.044 4.764 319.125 2.85107 317.858L54.8126 347.858Z" fill="#8BC5E4"/>
<path fill-rule="evenodd" clip-rule="evenodd" d="M263.193 231.405C268.944 228.085 273.664 219.87 273.664 213.14L221.702 183.14C221.702 189.87 216.982 198.085 211.232 201.405L263.193 231.405Z" fill="#8BC5E4"/>
<path fill-rule="evenodd" clip-rule="evenodd" d="M273.664 37.5799C273.664 34.3495 272.577 32.0326 270.81 30.8638L218.848 0.86377C220.615 2.03264 221.702 4.34951 221.702 7.57991L273.664 37.5799Z" fill="#8BC5E4"/>
<path fill-rule="evenodd" clip-rule="evenodd" d="M270.809 30.8639C268.895 29.5976 266.184 29.6786 263.193 31.405L211.232 1.40499C214.222 -0.321409 216.934 -0.402425 218.848 0.863855L270.809 30.8639Z" fill="#8BC5E4"/>
<path fill-rule="evenodd" clip-rule="evenodd" d="M263.193 36.9148C264.736 36.0244 266.118 35.9036 267.139 36.4356L215.178 6.43556C214.157 5.90356 212.774 6.02443 211.232 6.91483L263.193 36.9148Z" fill="#8BC5E4"/>
<path fill-rule="evenodd" clip-rule="evenodd" d="M267.139 36.4355C268.245 37.0119 268.927 38.3544 268.927 40.3148L216.965 10.3148C216.965 8.35441 216.284 7.01188 215.178 6.43555L267.139 36.4355Z" fill="#8BC5E4"/>
<path fill-rule="evenodd" clip-rule="evenodd" d="M268.927 215.875C268.927 219.645 266.406 224.04 263.193 225.895L211.232 195.895C214.445 194.04 216.965 189.645 216.965 185.875L268.927 215.875Z" fill="#8BC5E4"/>
<path fill-rule="evenodd" clip-rule="evenodd" d="M62.4317 341.805C60.8854 342.698 59.5006 342.82 58.4786 342.288L6.51709 312.288C7.53909 312.82 8.92385 312.698 10.4702 311.805L62.4317 341.805Z" fill="#8BC5E4"/>
<path fill-rule="evenodd" clip-rule="evenodd" d="M58.4787 342.288C57.3715 341.713 56.69 340.37 56.69 338.41L4.72852 308.41C4.72852 310.37 5.40996 311.713 6.51713 312.288L58.4787 342.288Z" fill="#8BC5E4"/>
<path fill-rule="evenodd" clip-rule="evenodd" d="M56.69 162.85C56.69 159.08 59.2102 154.685 62.4318 152.825L10.4703 122.825C7.24865 124.685 4.72852 129.08 4.72852 132.85L56.69 162.85Z" fill="#8BC5E4"/>
<path d="M143.292 156.93L146.757 154.39C147.155 156.453 147.828 157.718 148.774 158.185C149.733 158.632 150.899 158.458 152.273 157.665C153.901 156.725 155.275 155.275 156.395 153.315C157.521 151.345 158.084 149.393 158.084 147.46C158.084 145.6 157.565 144.37 156.525 143.77C155.486 143.163 154.164 143.323 152.559 144.25C151.907 144.627 151.095 145.242 150.125 146.095L150.506 142.335C150.737 142.228 150.922 142.135 151.061 142.055C152.539 141.202 153.867 139.988 155.044 138.415C156.222 136.835 156.811 135.108 156.811 133.235C156.811 131.755 156.384 130.775 155.529 130.295C154.663 129.822 153.552 129.977 152.195 130.76C150.85 131.537 149.727 132.682 148.826 134.195C147.937 135.695 147.363 137.507 147.103 139.63L143.639 140.91C144.06 137.96 145.022 135.312 146.523 132.965C148.024 130.605 149.892 128.78 152.126 127.49C153.662 126.603 155.076 126.173 156.369 126.2C157.668 126.217 158.656 126.693 159.331 127.63C160.024 128.563 160.37 129.777 160.37 131.27C160.37 132.697 160.044 134.182 159.392 135.725C158.739 137.268 157.77 138.755 156.482 140.185C158.151 139.668 159.447 139.857 160.37 140.75C161.294 141.617 161.756 143.113 161.756 145.24C161.756 148.113 160.858 151.072 159.063 154.115C157.267 157.138 154.998 159.442 152.256 161.025C149.779 162.455 147.724 162.782 146.09 162.005C144.456 161.228 143.523 159.537 143.292 156.93ZM139.543 163.905V167.785L120.906 178.545C120.883 177.585 121.015 176.572 121.304 175.505C121.783 173.748 122.54 171.852 123.573 169.815C124.63 167.778 126.142 165.245 128.111 162.215C131.177 157.512 133.249 153.998 134.329 151.675C135.409 149.332 135.949 147.393 135.949 145.86C135.949 144.267 135.455 143.208 134.468 142.685C133.486 142.145 132.21 142.328 130.64 143.235C128.971 144.198 127.638 145.552 126.639 147.295C125.64 149.032 125.135 150.94 125.123 153.02L121.555 154.65C121.798 151.41 122.716 148.52 124.309 145.98C125.897 143.443 128.03 141.402 130.709 139.855C133.417 138.292 135.559 137.928 137.135 138.765C138.711 139.608 139.499 141.323 139.499 143.91C139.499 145.23 139.271 146.655 138.815 148.185C138.353 149.725 137.582 151.51 136.503 153.54C135.441 155.553 133.665 158.508 131.177 162.405C129.098 165.632 127.765 167.785 127.176 168.865C126.587 169.918 126.099 170.927 125.712 171.89L139.543 163.905ZM112.462 183.42L108.998 185.42V159.68C108.166 161.087 107.07 162.647 105.707 164.36C104.362 166.063 103.152 167.458 102.078 168.545V164.635C104.012 162.458 105.701 160.197 107.145 157.85C108.599 155.497 109.627 153.44 110.228 151.68L112.462 150.39V183.42ZM85.6671 203.63V199.58C83.9409 200.323 82.5321 200.69 81.4409 200.68C80.3613 200.643 79.4231 200.128 78.6263 199.135C77.8469 198.132 77.3908 196.622 77.258 194.605L80.7395 191.835C81.0108 193.852 81.4842 195.172 82.1597 195.795C83.1412 196.668 84.3104 196.797 85.6671 196.18V183.31C84.2411 183.82 82.7862 184.02 81.3024 183.91C80.1996 183.82 79.3451 183.313 78.7389 182.39C78.15 181.463 77.8556 180.193 77.8556 178.58C77.8556 175.7 78.7274 172.87 80.471 170.09C81.643 168.213 83.3751 166.48 85.6671 164.89V162.96L87.711 161.78V163.71C89.7259 162.767 91.3223 162.532 92.5001 163.005C94.0127 163.598 94.9221 165.083 95.2281 167.46L91.6514 170.165C91.4493 168.695 91.0192 167.73 90.361 167.27C89.7201 166.787 88.8368 166.733 87.711 167.11V178.77C89.4488 178.273 90.6006 178.005 91.1664 177.965C92.246 177.895 93.1236 178.062 93.7991 178.465C94.4804 178.865 95.0029 179.503 95.3666 180.38C95.7361 181.26 95.9209 182.337 95.9209 183.61C95.9209 186.41 95.1588 189.183 93.6346 191.93C92.1104 194.677 90.1358 196.82 87.711 198.36V202.45L85.6671 203.63ZM85.6671 168.25C84.3219 169.273 83.2567 170.518 82.4715 171.985C81.7036 173.442 81.3197 174.87 81.3197 176.27C81.3197 177.643 81.6488 178.603 82.307 179.15C82.9709 179.693 84.091 179.787 85.6671 179.43V168.25ZM87.711 195C89.0562 194.023 90.1647 192.7 91.0365 191.03C91.9198 189.353 92.3615 187.655 92.3615 185.935C92.3615 184.468 92.0469 183.473 91.4175 182.95C90.8056 182.41 89.57 182.327 87.711 182.7V195ZM127.799 249.685L149.346 237.245V262.055L127.799 274.495V249.685ZM99.6708 265.925L121.226 253.48V278.29L99.6708 290.735V265.925ZM71.5509 282.16L93.0976 269.72V294.53L71.5509 306.97V282.16ZM127.799 217.275L149.346 204.835V229.645L127.799 242.085V217.275ZM99.6708 233.515L121.226 221.07V245.88L99.6708 258.325V233.515ZM71.5509 249.75L93.0976 237.31V262.12L71.5509 274.56V249.75ZM127.799 184.855L149.346 172.415V197.235L127.799 209.675V184.855ZM99.6708 201.095L121.226 188.65V213.47L99.6708 225.915V201.095ZM71.5509 217.33L93.0976 204.89V229.71L71.5509 242.15V217.33ZM175.361 231.225L254.733 185.4V201.47L175.361 247.295V231.225ZM182.004 111.25L248.168 73.0499C251.831 70.9349 254.733 72.6999 254.733 76.9599V168.89C254.733 173.16 251.831 178.265 248.168 180.38L182.004 218.58C178.349 220.69 175.361 218.985 175.361 214.715V122.785C175.361 118.525 178.349 113.36 182.004 111.25ZM62.4317 147.315C56.6726 150.64 51.9614 158.85 51.9614 165.58V341.14C51.9614 347.87 56.6726 350.64 62.4317 347.315L263.194 231.405C268.944 228.085 273.664 219.87 273.664 213.14V37.5799C273.664 30.8499 268.944 28.0849 263.194 31.4049L62.4317 147.315ZM62.4317 152.825L263.194 36.9149C266.407 35.0599 268.927 36.5449 268.927 40.3149V215.875C268.927 219.645 266.407 224.04 263.194 225.895L62.4317 341.805C59.2101 343.665 56.6899 342.18 56.6899 338.41V162.85C56.6899 159.08 59.2101 154.685 62.4317 152.825Z" fill="#8BC5E4"/>
<path fill-rule="evenodd" clip-rule="evenodd" d="M62.4317 152.825L263.194 36.9149C266.407 35.0599 268.927 36.5449 268.927 40.3149V215.875C268.927 219.645 266.407 224.04 263.194 225.895L62.4317 341.805C59.2101 343.665 56.6899 342.18 56.6899 338.41V162.85C56.6899 159.08 59.2101 154.685 62.4317 152.825ZM146.757 154.39L143.292 156.93C143.523 159.537 144.456 161.228 146.09 162.005C147.724 162.782 149.779 162.455 152.256 161.025C154.998 159.442 157.267 157.138 159.063 154.115C160.858 151.072 161.756 148.113 161.756 145.24C161.756 143.113 161.294 141.617 160.37 140.75C159.447 139.857 158.151 139.668 156.482 140.185C157.77 138.755 158.739 137.268 159.392 135.725C160.044 134.182 160.37 132.697 160.37 131.27C160.37 129.777 160.024 128.563 159.331 127.63C158.656 126.693 157.668 126.217 156.369 126.2C155.076 126.173 153.662 126.603 152.126 127.49C149.892 128.78 148.024 130.605 146.523 132.965C145.022 135.312 144.06 137.96 143.639 140.91L147.103 139.63C147.363 137.507 147.937 135.695 148.826 134.195C149.727 132.682 150.85 131.537 152.195 130.76C153.552 129.977 154.663 129.822 155.529 130.295C156.384 130.775 156.811 131.755 156.811 133.235C156.811 135.108 156.222 136.835 155.044 138.415C153.867 139.988 152.539 141.202 151.061 142.055C150.922 142.135 150.737 142.228 150.506 142.335L150.125 146.095C151.095 145.242 151.907 144.627 152.559 144.25C154.164 143.323 155.486 143.163 156.525 143.77C157.565 144.37 158.084 145.6 158.084 147.46C158.084 149.393 157.521 151.345 156.395 153.315C155.275 155.275 153.901 156.725 152.273 157.665C150.899 158.458 149.733 158.632 148.774 158.185C147.828 157.718 147.155 156.453 146.757 154.39ZM139.543 167.785V163.905L125.712 171.89C126.099 170.927 126.587 169.918 127.176 168.865C127.765 167.785 129.098 165.632 131.177 162.405C133.665 158.508 135.441 155.553 136.503 153.54C137.582 151.51 138.353 149.725 138.815 148.185C139.271 146.655 139.499 145.23 139.499 143.91C139.499 141.323 138.711 139.608 137.135 138.765C135.559 137.928 133.417 138.292 130.709 139.855C128.03 141.402 125.897 143.443 124.309 145.98C122.716 148.52 121.798 151.41 121.555 154.65L125.123 153.02C125.135 150.94 125.64 149.032 126.639 147.295C127.638 145.552 128.971 144.198 130.64 143.235C132.21 142.328 133.486 142.145 134.468 142.685C135.455 143.208 135.949 144.267 135.949 145.86C135.949 147.393 135.409 149.332 134.329 151.675C133.249 153.998 131.177 157.512 128.111 162.215C126.142 165.245 124.63 167.778 123.573 169.815C122.54 171.852 121.783 173.748 121.304 175.505C121.015 176.572 120.883 177.585 120.906 178.545L139.543 167.785ZM108.998 185.42L112.462 183.42V150.39L110.228 151.68C109.627 153.44 108.599 155.497 107.145 157.85C105.701 160.197 104.012 162.458 102.078 164.635V168.545C103.152 167.458 104.362 166.063 105.707 164.36C107.07 162.647 108.166 161.087 108.998 159.68V185.42ZM85.6671 199.58V203.63L87.711 202.45V198.36C90.1358 196.82 92.1104 194.677 93.6346 191.93C95.1588 189.183 95.9209 186.41 95.9209 183.61C95.9209 182.337 95.7361 181.26 95.3666 180.38C95.0029 179.503 94.4804 178.865 93.7991 178.465C93.1236 178.062 92.246 177.895 91.1664 177.965C90.6006 178.005 89.4488 178.273 87.711 178.77V167.11C88.8368 166.733 89.7201 166.787 90.361 167.27C91.0192 167.73 91.4493 168.695 91.6514 170.165L95.2281 167.46C94.9221 165.083 94.0127 163.598 92.5001 163.005C91.3223 162.532 89.7259 162.767 87.711 163.71V161.78L85.6671 162.96V164.89C83.3751 166.48 81.643 168.213 80.471 170.09C78.7274 172.87 77.8556 175.7 77.8556 178.58C77.8556 180.193 78.15 181.463 78.7389 182.39C79.3451 183.313 80.1996 183.82 81.3024 183.91C82.7862 184.02 84.2411 183.82 85.6671 183.31V196.18C84.3104 196.797 83.1412 196.668 82.1597 195.795C81.4842 195.172 81.0108 193.852 80.7395 191.835L77.258 194.605C77.3908 196.622 77.8469 198.132 78.6263 199.135C79.4231 200.128 80.3613 200.643 81.4409 200.68C82.5321 200.69 83.9409 200.323 85.6671 199.58ZM149.346 237.245L127.799 249.685V274.495L149.346 262.055V237.245ZM121.226 253.48L99.6708 265.925V290.735L121.226 278.29V253.48ZM93.0976 269.72L71.5509 282.16V306.97L93.0976 294.53V269.72ZM149.346 204.835L127.799 217.275V242.085L149.346 229.645V204.835ZM121.226 221.07L99.6708 233.515V258.325L121.226 245.88V221.07ZM93.0976 237.31L71.5509 249.75V274.56L93.0976 262.12V237.31ZM149.346 172.415L127.799 184.855V209.675L149.346 197.235V172.415ZM121.226 188.65L99.6708 201.095V225.915L121.226 213.47V188.65ZM93.0976 204.89L71.5509 217.33V242.15L93.0976 229.71V204.89ZM254.733 185.4L175.361 231.225V247.295L254.733 201.47V185.4ZM248.168 73.0499L182.004 111.25C178.349 113.36 175.361 118.525 175.361 122.785V214.715C175.361 218.985 178.349 220.69 182.004 218.58L248.168 180.38C251.831 178.265 254.733 173.16 254.733 168.89V76.9599C254.733 72.6999 251.831 70.9349 248.168 73.0499Z" fill="white"/>
<path d="M87.711 195C89.0562 194.023 90.1647 192.7 91.0365 191.03C91.9198 189.353 92.3615 187.655 92.3615 185.935C92.3615 184.468 92.0469 183.473 91.4175 182.95C90.8056 182.41 89.57 182.327 87.711 182.7V195Z" fill="white"/>
<path d="M85.6671 168.25C84.3219 169.273 83.2567 170.518 82.4715 171.985C81.7036 173.442 81.3197 174.87 81.3197 176.27C81.3197 177.643 81.6488 178.603 82.307 179.15C82.9709 179.693 84.091 179.787 85.6671 179.43V168.25Z" fill="white"/>
</svg>
