<svg width="227" height="263" viewBox="0 0 227 263" fill="none" xmlns="http://www.w3.org/2000/svg">
<path fill-rule="evenodd" clip-rule="evenodd" d="M71.3645 30L50.4673 42.655L102.429 12.655L123.326 0L71.3645 30Z" fill="#8BC5E4"/>
<path fill-rule="evenodd" clip-rule="evenodd" d="M50.4673 42.655L50.5366 51.185L102.498 21.185L102.429 12.655L50.4673 42.655Z" fill="#8BC5E4"/>
<path fill-rule="evenodd" clip-rule="evenodd" d="M50.5366 51.1851L39.1138 44.5901L91.0753 14.5901L102.498 21.1851L50.5366 51.1851Z" fill="#8BC5E4"/>
<path fill-rule="evenodd" clip-rule="evenodd" d="M39.1139 44.5901L26.9463 86.8051L78.9078 56.8051L91.0755 14.5901L39.1139 44.5901Z" fill="#8BC5E4"/>
<path fill-rule="evenodd" clip-rule="evenodd" d="M26.9459 86.8049L17.1685 81.1599L69.13 51.1599L78.9074 56.8049L26.9459 86.8049Z" fill="#8BC5E4"/>
<path fill-rule="evenodd" clip-rule="evenodd" d="M1 90.9951V150.205L52.9615 120.205V60.9951L1 90.9951Z" fill="#8BC5E4"/>
<path fill-rule="evenodd" clip-rule="evenodd" d="M17.1685 178.71L158.036 260.04L209.998 230.04L69.13 148.71L17.1685 178.71Z" fill="#8BC5E4"/>
<path fill-rule="evenodd" clip-rule="evenodd" d="M174.205 250.205V190.995L226.167 160.995V220.205L174.205 250.205Z" fill="#8BC5E4"/>
<path fill-rule="evenodd" clip-rule="evenodd" d="M158.036 162.49L148.293 156.865L200.255 126.865L209.998 132.49L158.036 162.49Z" fill="#8BC5E4"/>
<path fill-rule="evenodd" clip-rule="evenodd" d="M148.294 156.865L136.395 100.755L188.356 70.7549L200.255 126.865L148.294 156.865Z" fill="#8BC5E4"/>
<path fill-rule="evenodd" clip-rule="evenodd" d="M136.394 100.755L124.945 94.145L176.907 64.145L188.356 70.755L136.394 100.755Z" fill="#8BC5E4"/>
<path fill-rule="evenodd" clip-rule="evenodd" d="M124.945 94.1451V60.9351L176.907 30.9351V64.1451L124.945 94.1451Z" fill="#8BC5E4"/>
<path fill-rule="evenodd" clip-rule="evenodd" d="M124.946 60.935L71.3647 30L123.326 0L176.907 30.935L124.946 60.935Z" fill="#8BC5E4"/>
<path fill-rule="evenodd" clip-rule="evenodd" d="M71.3647 30L123.326 0L71.3647 30Z" fill="#8BC5E4"/>
<path fill-rule="evenodd" clip-rule="evenodd" d="M71.3472 32.8501L122.694 62.4951L174.655 32.4951L123.309 2.8501L71.3472 32.8501Z" fill="#8BC5E4"/>
<path fill-rule="evenodd" clip-rule="evenodd" d="M122.694 62.4951V141.885L174.655 111.885V32.4951L122.694 62.4951Z" fill="#8BC5E4"/>
<path fill-rule="evenodd" clip-rule="evenodd" d="M122.694 141.885L52.7622 101.51L104.724 71.51L174.655 111.885L122.694 141.885Z" fill="#8BC5E4"/>
<path fill-rule="evenodd" clip-rule="evenodd" d="M52.7622 101.51V44.3799L104.724 14.3799V71.5099L52.7622 101.51Z" fill="#8BC5E4"/>
<path fill-rule="evenodd" clip-rule="evenodd" d="M52.7622 44.3799L71.3471 55.1099L123.309 25.1099L104.724 14.3799L52.7622 44.3799Z" fill="#8BC5E4"/>
<path fill-rule="evenodd" clip-rule="evenodd" d="M71.3472 55.1101V32.8501L123.309 2.8501V25.1101L71.3472 55.1101Z" fill="#8BC5E4"/>
<path fill-rule="evenodd" clip-rule="evenodd" d="M71.3472 32.8501L123.309 2.8501L71.3472 32.8501Z" fill="#8BC5E4"/>
<path fill-rule="evenodd" clip-rule="evenodd" d="M65.1553 58.2649V62.4449L117.117 32.4449V28.2649L65.1553 58.2649Z" fill="#8BC5E4"/>
<path fill-rule="evenodd" clip-rule="evenodd" d="M65.1553 62.4451L108.673 87.5701L160.635 57.5701L117.117 32.4451L65.1553 62.4451Z" fill="#8BC5E4"/>
<path fill-rule="evenodd" clip-rule="evenodd" d="M108.673 87.5699V83.3899L160.634 53.3899V57.5699L108.673 87.5699Z" fill="#8BC5E4"/>
<path fill-rule="evenodd" clip-rule="evenodd" d="M108.673 83.3899L65.1553 58.2649L117.117 28.2649L160.635 53.3899L108.673 83.3899Z" fill="#8BC5E4"/>
<path fill-rule="evenodd" clip-rule="evenodd" d="M65.1553 58.2649L117.117 28.2649L65.1553 58.2649Z" fill="#8BC5E4"/>
<path fill-rule="evenodd" clip-rule="evenodd" d="M65.1553 74.2151V78.3951L117.117 48.3951V44.2151L65.1553 74.2151Z" fill="#8BC5E4"/>
<path fill-rule="evenodd" clip-rule="evenodd" d="M65.1553 78.395L108.673 103.52L160.635 73.52L117.117 48.395L65.1553 78.395Z" fill="#8BC5E4"/>
<path fill-rule="evenodd" clip-rule="evenodd" d="M108.673 103.52V99.3401L160.634 69.3401V73.5201L108.673 103.52Z" fill="#8BC5E4"/>
<path fill-rule="evenodd" clip-rule="evenodd" d="M108.673 99.3401L65.1553 74.2151L117.117 44.2151L160.635 69.3401L108.673 99.3401Z" fill="#8BC5E4"/>
<path fill-rule="evenodd" clip-rule="evenodd" d="M65.1553 74.2151L117.117 44.2151L65.1553 74.2151Z" fill="#8BC5E4"/>
<path fill-rule="evenodd" clip-rule="evenodd" d="M65.1553 90.165V94.355L117.117 64.355V60.165L65.1553 90.165Z" fill="#8BC5E4"/>
<path fill-rule="evenodd" clip-rule="evenodd" d="M65.1553 94.355L108.673 119.48L160.635 89.48L117.117 64.355L65.1553 94.355Z" fill="#8BC5E4"/>
<path fill-rule="evenodd" clip-rule="evenodd" d="M108.673 119.48V115.29L160.634 85.29V89.48L108.673 119.48Z" fill="#8BC5E4"/>
<path fill-rule="evenodd" clip-rule="evenodd" d="M108.673 115.29L65.1553 90.165L117.117 60.165L160.635 85.29L108.673 115.29Z" fill="#8BC5E4"/>
<path fill-rule="evenodd" clip-rule="evenodd" d="M65.1553 90.165L117.117 60.165L65.1553 90.165Z" fill="#8BC5E4"/>
<path fill-rule="evenodd" clip-rule="evenodd" d="M17.1685 84.79L158.036 166.12L209.998 136.12L69.13 54.79L17.1685 84.79Z" fill="#8BC5E4"/>
<path fill-rule="evenodd" clip-rule="evenodd" d="M171.139 189.225V248.435L223.101 218.435V159.225L171.139 189.225Z" fill="#8BC5E4"/>
<path fill-rule="evenodd" clip-rule="evenodd" d="M158.036 256.41L17.1685 175.08L69.13 145.08L209.998 226.41L158.036 256.41Z" fill="#8BC5E4"/>
<path fill-rule="evenodd" clip-rule="evenodd" d="M4.06592 151.975V92.7649L56.0274 62.7649V121.975L4.06592 151.975Z" fill="#8BC5E4"/>
<path fill-rule="evenodd" clip-rule="evenodd" d="M17.1685 84.79L69.13 54.79L17.1685 84.79Z" fill="#8BC5E4"/>
<path fill-rule="evenodd" clip-rule="evenodd" d="M149.8 176.805L201.762 146.805L149.8 176.805Z" fill="#8BC5E4"/>
<path fill-rule="evenodd" clip-rule="evenodd" d="M11.9639 124.915V129.105L63.9254 99.105V94.915L11.9639 124.915Z" fill="#8BC5E4"/>
<path fill-rule="evenodd" clip-rule="evenodd" d="M11.9639 129.105L164.306 217.06L216.268 187.06L63.9254 99.105L11.9639 129.105Z" fill="#8BC5E4"/>
<path fill-rule="evenodd" clip-rule="evenodd" d="M164.307 217.06V212.87L216.268 182.87V187.06L164.307 217.06Z" fill="#8BC5E4"/>
<path fill-rule="evenodd" clip-rule="evenodd" d="M164.306 212.87L11.9639 124.915L63.9254 94.915L216.268 182.87L164.306 212.87Z" fill="#8BC5E4"/>
<path fill-rule="evenodd" clip-rule="evenodd" d="M11.9639 124.915L63.9254 94.915L11.9639 124.915Z" fill="#8BC5E4"/>
<path fill-rule="evenodd" clip-rule="evenodd" d="M17.1685 81.1601C12.8827 78.6857 8.98598 78.4127 6.09229 79.9691L58.0538 49.9691C60.9475 48.4127 64.8442 48.6857 69.13 51.1601L17.1685 81.1601Z" fill="#8BC5E4"/>
<path fill-rule="evenodd" clip-rule="evenodd" d="M6.09252 79.969C2.95769 81.6551 1 85.4881 1 90.9949L52.9615 60.9949C52.9615 55.4881 54.9192 51.6551 58.054 49.969L6.09252 79.969Z" fill="#8BC5E4"/>
<path fill-rule="evenodd" clip-rule="evenodd" d="M1 150.205C1 160.795 8.23997 173.555 17.1687 178.71L69.1302 148.71C60.2015 143.555 52.9615 130.795 52.9615 120.205L1 150.205Z" fill="#8BC5E4"/>
<path fill-rule="evenodd" clip-rule="evenodd" d="M158.037 260.04C162.322 262.514 166.219 262.787 169.113 261.231L221.074 231.231C218.181 232.787 214.284 232.514 209.998 230.04L158.037 260.04Z" fill="#8BC5E4"/>
<path fill-rule="evenodd" clip-rule="evenodd" d="M169.113 261.231C172.248 259.545 174.205 255.712 174.205 250.205L226.167 220.205C226.167 225.712 224.209 229.545 221.074 231.231L169.113 261.231Z" fill="#8BC5E4"/>
<path fill-rule="evenodd" clip-rule="evenodd" d="M174.205 190.995C174.205 180.405 166.965 167.645 158.037 162.49L209.998 132.49C218.927 137.645 226.167 150.405 226.167 160.995L174.205 190.995Z" fill="#8BC5E4"/>
<path fill-rule="evenodd" clip-rule="evenodd" d="M158.037 166.12C165.32 170.325 171.14 180.585 171.14 189.225L223.101 159.225C223.101 150.585 217.281 140.325 209.998 136.12L158.037 166.12Z" fill="#8BC5E4"/>
<path fill-rule="evenodd" clip-rule="evenodd" d="M171.139 248.435C171.139 252.582 169.799 255.554 167.599 257.059L219.56 227.059C221.76 225.554 223.101 222.582 223.101 218.435L171.139 248.435Z" fill="#8BC5E4"/>
<path fill-rule="evenodd" clip-rule="evenodd" d="M167.599 257.059C165.215 258.689 161.824 258.597 158.037 256.41L209.998 226.41C213.785 228.597 217.177 228.689 219.56 227.059L167.599 257.059Z" fill="#8BC5E4"/>
<path fill-rule="evenodd" clip-rule="evenodd" d="M17.1689 175.08C9.88561 170.875 4.06592 160.615 4.06592 151.975L56.0274 121.975C56.0274 130.615 61.8471 140.875 69.1304 145.08L17.1689 175.08Z" fill="#8BC5E4"/>
<path fill-rule="evenodd" clip-rule="evenodd" d="M4.06592 92.7651C4.06592 88.6179 5.40677 85.6457 7.60674 84.1411L59.5683 54.1411C57.3683 55.6457 56.0274 58.6179 56.0274 62.7651L4.06592 92.7651Z" fill="#8BC5E4"/>
<path fill-rule="evenodd" clip-rule="evenodd" d="M7.60645 84.141C9.98974 82.511 13.3813 82.6034 17.1686 84.79L69.1301 54.79C65.3428 52.6034 61.9513 52.511 59.568 54.141L7.60645 84.141Z" fill="#8BC5E4"/>
<path fill-rule="evenodd" clip-rule="evenodd" d="M149.801 176.805C147.869 175.69 146.007 175.525 144.639 176.355L196.601 146.355C197.969 145.525 199.831 145.69 201.762 146.805L149.801 176.805Z" fill="#8BC5E4"/>
<path fill-rule="evenodd" clip-rule="evenodd" d="M144.639 176.355C143.271 177.185 142.5 178.94 142.5 181.24L194.462 151.24C194.462 148.94 195.232 147.185 196.601 146.355L144.639 176.355Z" fill="#8BC5E4"/>
<path fill-rule="evenodd" clip-rule="evenodd" d="M142.5 181.24C142.5 183.53 143.271 186.175 144.639 188.595L196.601 158.595C195.232 156.175 194.462 153.53 194.462 151.24L142.5 181.24Z" fill="#8BC5E4"/>
<path fill-rule="evenodd" clip-rule="evenodd" d="M144.639 188.595C146.007 191.005 147.861 192.985 149.801 194.105L201.762 164.105C199.822 162.985 197.969 161.005 196.601 158.595L144.639 188.595Z" fill="#8BC5E4"/>
<path fill-rule="evenodd" clip-rule="evenodd" d="M149.8 194.105C151.732 195.22 153.585 195.38 154.953 194.54L206.915 164.54C205.546 165.38 203.693 165.22 201.762 164.105L149.8 194.105Z" fill="#8BC5E4"/>
<path fill-rule="evenodd" clip-rule="evenodd" d="M154.953 194.54C156.321 193.71 157.092 191.955 157.092 189.665L209.054 159.665C209.054 161.955 208.283 163.71 206.915 164.54L154.953 194.54Z" fill="#8BC5E4"/>
<path fill-rule="evenodd" clip-rule="evenodd" d="M157.092 189.665C157.092 184.885 153.827 179.13 149.8 176.805L201.762 146.805C205.789 149.13 209.054 154.885 209.054 159.665L157.092 189.665Z" fill="#8BC5E4"/>
<path fill-rule="evenodd" clip-rule="evenodd" d="M17.1687 84.79L158.036 166.12C165.32 170.325 171.139 180.585 171.139 189.225V248.435C171.139 257.075 165.32 260.615 158.036 256.41L17.1687 175.08C9.88542 170.875 4.06573 160.615 4.06573 151.975V92.765C4.06573 84.125 9.88542 80.585 17.1687 84.79ZM144.639 176.355C146.007 175.525 147.869 175.69 149.8 176.805C153.828 179.13 157.092 184.885 157.092 189.665C157.092 191.955 156.322 193.71 154.953 194.54C153.585 195.38 151.732 195.22 149.8 194.105C147.861 192.985 146.007 191.005 144.639 188.595C143.271 186.175 142.5 183.53 142.5 181.24C142.5 178.94 143.271 177.185 144.639 176.355ZM11.9639 129.105V124.915L164.306 212.87V217.06L11.9639 129.105Z" fill="white"/>
<path fill-rule="evenodd" clip-rule="evenodd" d="M71.3472 32.85L122.694 62.495V141.885L52.7623 101.51V44.38L71.3472 55.11V32.85ZM65.1552 62.445V58.265L108.673 83.39V87.57L65.1552 62.445ZM65.1552 78.395V74.215L108.673 99.34V103.52L65.1552 78.395ZM65.1552 94.355V90.165L108.673 115.29V119.48L65.1552 94.355Z" fill="white"/>
<path fill-rule="evenodd" clip-rule="evenodd" d="M65.1552 62.445V58.265L108.673 83.39V87.57L65.1552 62.445ZM65.1552 78.395V74.215L108.673 99.34V103.52L65.1552 78.395ZM65.1552 94.355V90.165L108.673 115.29V119.48L65.1552 94.355ZM144.639 176.355C146.007 175.525 147.869 175.69 149.8 176.805C153.828 179.13 157.092 184.885 157.092 189.665C157.092 191.955 156.322 193.71 154.953 194.54C153.585 195.38 151.732 195.22 149.8 194.105C147.861 192.985 146.007 191.005 144.639 188.595C143.271 186.175 142.5 183.53 142.5 181.24C142.5 178.94 143.271 177.185 144.639 176.355ZM11.9639 129.105V124.915L164.306 212.87V217.06L11.9639 129.105Z" fill="#8BC5E4"/>
<path fill-rule="evenodd" clip-rule="evenodd" d="M71.3646 30L50.4674 42.655L50.5367 51.185L39.1138 44.59L26.9461 86.805L17.1687 81.16C8.23997 76.005 1 80.405 1 90.995V150.205C1 160.795 8.23997 173.555 17.1687 178.71L158.036 260.04C166.965 265.195 174.205 260.795 174.205 250.205V190.995C174.205 180.405 166.965 167.645 158.036 162.49L148.294 156.865L136.394 100.755L124.946 94.145V60.935L71.3646 30ZM122.694 62.495L71.3472 32.85V55.11L52.7623 44.38V101.51L122.694 141.885V62.495ZM158.036 166.12L17.1687 84.79C9.88542 80.585 4.06573 84.125 4.06573 92.765V151.975C4.06573 160.615 9.88542 170.875 17.1687 175.08L158.036 256.41C165.32 260.615 171.139 257.075 171.139 248.435V189.225C171.139 180.585 165.32 170.325 158.036 166.12Z" fill="white"/>
<path fill-rule="evenodd" clip-rule="evenodd" d="M17.1687 84.79L158.036 166.12C165.32 170.325 171.139 180.585 171.139 189.225V248.435C171.139 257.075 165.32 260.615 158.036 256.41L17.1687 175.08C9.88542 170.875 4.06573 160.615 4.06573 151.975V92.765C4.06573 84.125 9.88542 80.585 17.1687 84.79ZM144.639 176.355C146.007 175.525 147.869 175.69 149.8 176.805C153.828 179.13 157.092 184.885 157.092 189.665C157.092 191.955 156.322 193.71 154.953 194.54C153.585 195.38 151.732 195.22 149.8 194.105C147.861 192.985 146.007 191.005 144.639 188.595C143.271 186.175 142.5 183.53 142.5 181.24C142.5 178.94 143.271 177.185 144.639 176.355ZM11.9639 129.105V124.915L164.306 212.87V217.06L11.9639 129.105Z" stroke="#8BC5E4"/>
<path fill-rule="evenodd" clip-rule="evenodd" d="M71.3472 32.85L122.694 62.495V141.885L52.7623 101.51V44.38L71.3472 55.11V32.85ZM65.1552 62.445V58.265L108.673 83.39V87.57L65.1552 62.445ZM65.1552 78.395V74.215L108.673 99.34V103.52L65.1552 78.395ZM65.1552 94.355V90.165L108.673 115.29V119.48L65.1552 94.355Z" stroke="#8BC5E4"/>
<path fill-rule="evenodd" clip-rule="evenodd" d="M65.1552 62.445V58.265L108.673 83.39V87.57L65.1552 62.445ZM65.1552 78.395V74.215L108.673 99.34V103.52L65.1552 78.395ZM65.1552 94.355V90.165L108.673 115.29V119.48L65.1552 94.355ZM144.639 176.355C146.007 175.525 147.869 175.69 149.8 176.805C153.828 179.13 157.092 184.885 157.092 189.665C157.092 191.955 156.322 193.71 154.953 194.54C153.585 195.38 151.732 195.22 149.8 194.105C147.861 192.985 146.007 191.005 144.639 188.595C143.271 186.175 142.5 183.53 142.5 181.24C142.5 178.94 143.271 177.185 144.639 176.355ZM11.9639 129.105V124.915L164.306 212.87V217.06L11.9639 129.105Z" stroke="#8BC5E4"/>
<path fill-rule="evenodd" clip-rule="evenodd" d="M71.3646 30L50.4674 42.655L50.5367 51.185L39.1138 44.59L26.9461 86.805L17.1687 81.16C8.23997 76.005 1 80.405 1 90.995V150.205C1 160.795 8.23997 173.555 17.1687 178.71L158.036 260.04C166.965 265.195 174.205 260.795 174.205 250.205V190.995C174.205 180.405 166.965 167.645 158.036 162.49L148.294 156.865L136.394 100.755L124.946 94.145V60.935L71.3646 30ZM122.694 62.495L71.3472 32.85V55.11L52.7623 44.38V101.51L122.694 141.885V62.495ZM158.036 166.12L17.1687 84.79C9.88542 80.585 4.06573 84.125 4.06573 92.765V151.975C4.06573 160.615 9.88542 170.875 17.1687 175.08L158.036 256.41C165.32 260.615 171.139 257.075 171.139 248.435V189.225C171.139 180.585 165.32 170.325 158.036 166.12Z" stroke="#8BC5E4"/>
</svg>
