<svg width="226" height="273" viewBox="0 0 226 273" fill="none" xmlns="http://www.w3.org/2000/svg">
<path fill-rule="evenodd" clip-rule="evenodd" d="M0 35.6859V133.586L51.9615 103.586V5.68591L0 35.6859Z" fill="#8BC5E4"/>
<path fill-rule="evenodd" clip-rule="evenodd" d="M10.1152 149.366L163.09 237.686L215.051 207.686L62.0768 119.366L10.1152 149.366Z" fill="#8BC5E4"/>
<path fill-rule="evenodd" clip-rule="evenodd" d="M173.205 233.586V135.686L225.167 105.686V203.586L173.205 233.586Z" fill="#8BC5E4"/>
<path fill-rule="evenodd" clip-rule="evenodd" d="M163.09 119.906L10.1152 31.5859L62.0768 1.58594L215.051 89.9059L163.09 119.906Z" fill="#8BC5E4"/>
<path fill-rule="evenodd" clip-rule="evenodd" d="M10.1152 31.5859L62.0768 1.58594L10.1152 31.5859Z" fill="#8BC5E4"/>
<path fill-rule="evenodd" clip-rule="evenodd" d="M10.1152 34.616L163.09 122.936L215.051 92.936L62.0768 4.61597L10.1152 34.616Z" fill="#8BC5E4"/>
<path fill-rule="evenodd" clip-rule="evenodd" d="M170.122 133.906V231.806L222.084 201.806V103.906L170.122 133.906Z" fill="#8BC5E4"/>
<path fill-rule="evenodd" clip-rule="evenodd" d="M163.09 234.656L10.1152 146.336L62.0768 116.336L215.051 204.656L163.09 234.656Z" fill="#8BC5E4"/>
<path fill-rule="evenodd" clip-rule="evenodd" d="M3.08301 135.366V37.4659L55.0445 7.46594V105.366L3.08301 135.366Z" fill="#8BC5E4"/>
<path fill-rule="evenodd" clip-rule="evenodd" d="M10.1152 34.616L62.0768 4.61597L10.1152 34.616Z" fill="#8BC5E4"/>
<path fill-rule="evenodd" clip-rule="evenodd" d="M11.96 44.891V137.761L63.9215 107.761V14.891L11.96 44.891Z" fill="#8BC5E4"/>
<path fill-rule="evenodd" clip-rule="evenodd" d="M11.96 137.761L160.951 223.781L212.913 193.781L63.9215 107.761L11.96 137.761Z" fill="#8BC5E4"/>
<path fill-rule="evenodd" clip-rule="evenodd" d="M160.951 223.781V130.911L212.912 100.911V193.781L160.951 223.781Z" fill="#8BC5E4"/>
<path fill-rule="evenodd" clip-rule="evenodd" d="M160.951 130.911L11.96 44.891L63.9215 14.891L212.913 100.911L160.951 130.911Z" fill="#8BC5E4"/>
<path fill-rule="evenodd" clip-rule="evenodd" d="M11.96 44.891L63.9215 14.891L11.96 44.891Z" fill="#8BC5E4"/>
<path fill-rule="evenodd" clip-rule="evenodd" d="M101.697 129.701V139.931L153.659 109.931V99.7009L101.697 129.701Z" fill="#8BC5E4"/>
<path fill-rule="evenodd" clip-rule="evenodd" d="M101.697 139.931L110.972 145.286L162.934 115.286L153.659 109.931L101.697 139.931Z" fill="#8BC5E4"/>
<path fill-rule="evenodd" clip-rule="evenodd" d="M110.973 145.286V177.376L162.934 147.376V115.286L110.973 145.286Z" fill="#8BC5E4"/>
<path fill-rule="evenodd" clip-rule="evenodd" d="M110.972 177.376L61.938 149.066L113.9 119.066L162.934 147.376L110.972 177.376Z" fill="#8BC5E4"/>
<path fill-rule="evenodd" clip-rule="evenodd" d="M61.938 149.066V116.976L113.9 86.976V119.066L61.938 149.066Z" fill="#8BC5E4"/>
<path fill-rule="evenodd" clip-rule="evenodd" d="M61.938 116.976L71.0919 122.261L123.053 92.261L113.9 86.976L61.938 116.976Z" fill="#8BC5E4"/>
<path fill-rule="evenodd" clip-rule="evenodd" d="M71.0918 122.261V112.031L123.053 82.031V92.261L71.0918 122.261Z" fill="#8BC5E4"/>
<path fill-rule="evenodd" clip-rule="evenodd" d="M86.3945 105.406L138.356 75.406L86.3945 105.406Z" fill="#8BC5E4"/>
<path fill-rule="evenodd" clip-rule="evenodd" d="M74.3052 113.886V124.116L126.267 94.116V83.886L74.3052 113.886Z" fill="#8BC5E4"/>
<path fill-rule="evenodd" clip-rule="evenodd" d="M74.3052 124.116L98.4933 138.081L150.455 108.081L126.267 94.116L74.3052 124.116Z" fill="#8BC5E4"/>
<path fill-rule="evenodd" clip-rule="evenodd" d="M98.4932 138.081V127.851L150.455 97.851V108.081L98.4932 138.081Z" fill="#8BC5E4"/>
<path fill-rule="evenodd" clip-rule="evenodd" d="M86.3945 108.566L138.356 78.5659L86.3945 108.566Z" fill="#8BC5E4"/>
<path fill-rule="evenodd" clip-rule="evenodd" d="M84.7837 146.546V154.176L136.745 124.176V116.546L84.7837 146.546Z" fill="#8BC5E4"/>
<path fill-rule="evenodd" clip-rule="evenodd" d="M84.7837 154.176L87.6762 155.846L139.638 125.846L136.745 124.176L84.7837 154.176Z" fill="#8BC5E4"/>
<path fill-rule="evenodd" clip-rule="evenodd" d="M87.6763 155.846V148.226L139.638 118.226V125.846L87.6763 155.846Z" fill="#8BC5E4"/>
<path fill-rule="evenodd" clip-rule="evenodd" d="M86.23 141.291L138.192 111.291L86.23 141.291Z" fill="#8BC5E4"/>
<path fill-rule="evenodd" clip-rule="evenodd" d="M16.0649 166.951V186.011L68.0265 156.011V136.951L16.0649 166.951Z" fill="#8BC5E4"/>
<path fill-rule="evenodd" clip-rule="evenodd" d="M25.2358 200.316L148.289 271.361L200.251 241.361L77.1974 170.316L25.2358 200.316Z" fill="#8BC5E4"/>
<path fill-rule="evenodd" clip-rule="evenodd" d="M157.461 267.646V248.586L209.422 218.586V237.646L157.461 267.646Z" fill="#8BC5E4"/>
<path fill-rule="evenodd" clip-rule="evenodd" d="M148.289 234.281L25.2358 163.236L77.1974 133.236L200.251 204.281L148.289 234.281Z" fill="#8BC5E4"/>
<path fill-rule="evenodd" clip-rule="evenodd" d="M25.2358 163.236L77.1974 133.236L25.2358 163.236Z" fill="#8BC5E4"/>
<path fill-rule="evenodd" clip-rule="evenodd" d="M25.2358 166.266L148.289 237.311L200.251 207.311L77.1974 136.266L25.2358 166.266Z" fill="#8BC5E4"/>
<path fill-rule="evenodd" clip-rule="evenodd" d="M154.378 246.806V265.866L206.339 235.866V216.806L154.378 246.806Z" fill="#8BC5E4"/>
<path fill-rule="evenodd" clip-rule="evenodd" d="M148.289 268.331L25.2358 197.286L77.1974 167.286L200.251 238.331L148.289 268.331Z" fill="#8BC5E4"/>
<path fill-rule="evenodd" clip-rule="evenodd" d="M19.1479 187.791V168.731L71.1095 138.731V157.791L19.1479 187.791Z" fill="#8BC5E4"/>
<path fill-rule="evenodd" clip-rule="evenodd" d="M25.2358 166.266L77.1974 136.266L25.2358 166.266Z" fill="#8BC5E4"/>
<path fill-rule="evenodd" clip-rule="evenodd" d="M36.4683 183.401L88.4298 153.401L36.4683 183.401Z" fill="#8BC5E4"/>
<path fill-rule="evenodd" clip-rule="evenodd" d="M101.949 222.796V229.156L153.91 199.156V192.796L101.949 222.796Z" fill="#8BC5E4"/>
<path fill-rule="evenodd" clip-rule="evenodd" d="M101.949 229.156L144.28 253.596L196.242 223.596L153.91 199.156L101.949 229.156Z" fill="#8BC5E4"/>
<path fill-rule="evenodd" clip-rule="evenodd" d="M144.28 253.596V247.236L196.241 217.236V223.596L144.28 253.596Z" fill="#8BC5E4"/>
<path fill-rule="evenodd" clip-rule="evenodd" d="M144.28 247.236L101.949 222.796L153.91 192.796L196.242 217.236L144.28 247.236Z" fill="#8BC5E4"/>
<path fill-rule="evenodd" clip-rule="evenodd" d="M101.949 222.796L153.91 192.796L101.949 222.796Z" fill="#8BC5E4"/>
<path fill-rule="evenodd" clip-rule="evenodd" d="M10.115 31.5859C7.21483 29.9115 4.59569 29.6054 2.74951 30.4677L54.711 0.467738C56.5572 -0.394647 59.1764 -0.0884707 62.0765 1.58593L10.115 31.5859Z" fill="#8BC5E4"/>
<path fill-rule="evenodd" clip-rule="evenodd" d="M2.74971 30.4678C1.04555 31.2638 0 33.0556 0 35.686L51.9615 5.68596C51.9615 3.05556 53.0071 1.26382 54.7112 0.467773L2.74971 30.4678Z" fill="#8BC5E4"/>
<path fill-rule="evenodd" clip-rule="evenodd" d="M0 133.586C0 139.066 4.53797 146.146 10.1152 149.366L62.0767 119.366C56.4995 116.146 51.9615 109.066 51.9615 103.586L0 133.586Z" fill="#8BC5E4"/>
<path fill-rule="evenodd" clip-rule="evenodd" d="M163.09 237.686C165.99 239.36 168.609 239.667 170.455 238.804L222.417 208.804C220.571 209.667 217.952 209.36 215.051 207.686L163.09 237.686Z" fill="#8BC5E4"/>
<path fill-rule="evenodd" clip-rule="evenodd" d="M170.456 238.804C172.16 238.008 173.205 236.216 173.205 233.586L225.167 203.586C225.167 206.216 224.121 208.008 222.417 208.804L170.456 238.804Z" fill="#8BC5E4"/>
<path fill-rule="evenodd" clip-rule="evenodd" d="M173.205 135.686C173.205 130.206 168.667 123.126 163.09 119.906L215.051 89.906C220.629 93.126 225.167 100.206 225.167 105.686L173.205 135.686Z" fill="#8BC5E4"/>
<path fill-rule="evenodd" clip-rule="evenodd" d="M163.09 122.936C167.013 125.201 170.122 130.046 170.122 133.906L222.083 103.906C222.083 100.046 218.974 95.201 215.051 92.936L163.09 122.936Z" fill="#8BC5E4"/>
<path fill-rule="evenodd" clip-rule="evenodd" d="M170.122 231.806C170.122 233.5 169.52 234.693 168.512 235.306L220.473 205.306C221.482 204.693 222.083 203.5 222.083 201.806L170.122 231.806Z" fill="#8BC5E4"/>
<path fill-rule="evenodd" clip-rule="evenodd" d="M168.512 235.306C167.228 236.086 165.287 235.924 163.09 234.656L215.051 204.656C217.248 205.924 219.19 206.086 220.473 205.306L168.512 235.306Z" fill="#8BC5E4"/>
<path fill-rule="evenodd" clip-rule="evenodd" d="M10.1151 146.336C6.19204 144.071 3.08301 139.216 3.08301 135.366L55.0445 105.366C55.0445 109.216 58.1536 114.071 62.0767 116.336L10.1151 146.336Z" fill="#8BC5E4"/>
<path fill-rule="evenodd" clip-rule="evenodd" d="M3.08301 37.4659C3.08301 35.7675 3.68492 34.5735 4.69324 33.9617L56.6548 3.96167C55.6464 4.57347 55.0445 5.76754 55.0445 7.46594L3.08301 37.4659Z" fill="#8BC5E4"/>
<path fill-rule="evenodd" clip-rule="evenodd" d="M4.69336 33.9617C5.97668 33.1831 7.91832 33.3476 10.1153 34.616L62.0768 4.61601C59.8798 3.34761 57.9382 3.18308 56.6549 3.96173L4.69336 33.9617Z" fill="#8BC5E4"/>
<path fill-rule="evenodd" clip-rule="evenodd" d="M86.3945 105.406C93.7904 109.676 101.697 120.881 101.697 129.701L153.659 99.701C153.659 90.881 145.752 79.676 138.356 75.406L86.3945 105.406Z" fill="#8BC5E4"/>
<path fill-rule="evenodd" clip-rule="evenodd" d="M71.0918 112.031C71.0918 108.3 72.5572 105.705 74.8572 104.349L126.819 74.3494C124.519 75.7051 123.053 78.2998 123.053 82.031L71.0918 112.031Z" fill="#8BC5E4"/>
<path fill-rule="evenodd" clip-rule="evenodd" d="M74.8574 104.349C77.7847 102.624 82.0639 102.906 86.3947 105.406L138.356 75.406C134.025 72.9056 129.746 72.6239 126.819 74.3494L74.8574 104.349Z" fill="#8BC5E4"/>
<path fill-rule="evenodd" clip-rule="evenodd" d="M86.3945 108.566C83.218 106.732 79.8078 106.563 77.4219 107.922L129.383 77.9218C131.769 76.5632 135.179 76.732 138.356 78.566L86.3945 108.566Z" fill="#8BC5E4"/>
<path fill-rule="evenodd" clip-rule="evenodd" d="M77.4222 107.922C75.5476 108.989 74.3052 111 74.3052 113.886L126.267 83.886C126.267 80.9996 127.509 78.9892 129.384 77.9218L77.4222 107.922Z" fill="#8BC5E4"/>
<path fill-rule="evenodd" clip-rule="evenodd" d="M98.4929 127.851C98.4842 120.956 91.7206 111.641 86.3945 108.566L138.356 78.5659C143.682 81.6409 150.446 90.9559 150.454 97.8509L98.4929 127.851Z" fill="#8BC5E4"/>
<path fill-rule="evenodd" clip-rule="evenodd" d="M86.2302 141.291C85.289 140.748 84.4415 140.648 83.8447 140.926L135.806 110.926C136.403 110.648 137.251 110.748 138.192 111.291L86.2302 141.291Z" fill="#8BC5E4"/>
<path fill-rule="evenodd" clip-rule="evenodd" d="M83.8446 140.926C83.2938 141.183 82.9565 141.761 82.9565 142.611L134.918 112.611C134.918 111.761 135.255 111.183 135.806 110.926L83.8446 140.926Z" fill="#8BC5E4"/>
<path fill-rule="evenodd" clip-rule="evenodd" d="M82.9565 142.611C82.9652 143.846 83.6667 145.361 84.7839 146.546L136.745 116.546C135.628 115.361 134.927 113.846 134.918 112.611L82.9565 142.611Z" fill="#8BC5E4"/>
<path fill-rule="evenodd" clip-rule="evenodd" d="M87.6763 148.226C88.0785 148.26 88.4279 148.191 88.7104 148.032L140.672 118.032C140.389 118.191 140.04 118.26 139.638 118.226L87.6763 148.226Z" fill="#8BC5E4"/>
<path fill-rule="evenodd" clip-rule="evenodd" d="M88.7104 148.032C89.2127 147.748 89.5036 147.178 89.5036 146.391L141.465 116.391C141.465 117.178 141.174 117.748 140.672 118.032L88.7104 148.032Z" fill="#8BC5E4"/>
<path fill-rule="evenodd" clip-rule="evenodd" d="M89.5036 146.391C89.5036 144.621 88.04 142.336 86.23 141.291L138.192 111.291C140.001 112.336 141.465 114.621 141.465 116.391L89.5036 146.391Z" fill="#8BC5E4"/>
<path fill-rule="evenodd" clip-rule="evenodd" d="M25.236 163.236C22.6061 161.718 20.2314 161.439 18.5576 162.22L70.5191 132.22C72.1929 131.439 74.5676 131.718 77.1976 133.236L25.236 163.236Z" fill="#8BC5E4"/>
<path fill-rule="evenodd" clip-rule="evenodd" d="M18.5577 162.22C17.0127 162.941 16.0649 164.565 16.0649 166.951L68.0265 136.951C68.0265 134.565 68.9742 132.941 70.5193 132.22L18.5577 162.22Z" fill="#8BC5E4"/>
<path fill-rule="evenodd" clip-rule="evenodd" d="M16.0649 186.011C16.0649 190.981 20.1786 197.396 25.2362 200.316L77.1977 170.316C72.1401 167.396 68.0265 160.981 68.0265 156.011L16.0649 186.011Z" fill="#8BC5E4"/>
<path fill-rule="evenodd" clip-rule="evenodd" d="M148.29 271.361C150.915 272.877 153.29 273.155 154.965 272.375L206.926 242.375C205.251 243.155 202.877 242.877 200.251 241.361L148.29 271.361Z" fill="#8BC5E4"/>
<path fill-rule="evenodd" clip-rule="evenodd" d="M154.965 272.375C156.511 271.655 157.461 270.032 157.461 267.646L209.422 237.646C209.422 240.032 208.473 241.655 206.926 242.375L154.965 272.375Z" fill="#8BC5E4"/>
<path fill-rule="evenodd" clip-rule="evenodd" d="M157.461 248.586C157.461 243.616 153.338 237.196 148.29 234.281L200.251 204.281C205.3 207.196 209.422 213.616 209.422 218.586L157.461 248.586Z" fill="#8BC5E4"/>
<path fill-rule="evenodd" clip-rule="evenodd" d="M148.29 237.311C151.684 239.271 154.378 243.466 154.378 246.806L206.339 216.806C206.339 213.466 203.646 209.271 200.251 207.311L148.29 237.311Z" fill="#8BC5E4"/>
<path fill-rule="evenodd" clip-rule="evenodd" d="M154.378 265.866C154.378 267.336 153.856 268.369 152.983 268.898L204.944 238.898C205.818 238.369 206.339 237.336 206.339 235.866L154.378 265.866Z" fill="#8BC5E4"/>
<path fill-rule="evenodd" clip-rule="evenodd" d="M152.983 268.898C151.872 269.571 150.191 269.429 148.29 268.331L200.251 238.331C202.152 239.429 203.833 239.571 204.945 238.898L152.983 268.898Z" fill="#8BC5E4"/>
<path fill-rule="evenodd" clip-rule="evenodd" d="M25.2361 197.286C21.8326 195.321 19.1479 191.131 19.1479 187.791L71.1095 157.791C71.1095 161.131 73.7942 165.321 77.1976 167.286L25.2361 197.286Z" fill="#8BC5E4"/>
<path fill-rule="evenodd" clip-rule="evenodd" d="M19.1479 168.731C19.1479 167.261 19.6677 166.227 20.5397 165.698L72.5013 135.698C71.6292 136.227 71.1095 137.261 71.1095 138.731L19.1479 168.731Z" fill="#8BC5E4"/>
<path fill-rule="evenodd" clip-rule="evenodd" d="M20.5396 165.698C21.6494 165.023 23.33 165.166 25.2359 166.266L77.1974 136.266C75.2915 135.166 73.611 135.023 72.5011 135.698L20.5396 165.698Z" fill="#8BC5E4"/>
<path fill-rule="evenodd" clip-rule="evenodd" d="M36.4681 183.401C35.0766 182.598 33.8209 182.449 32.936 182.862L84.8976 152.862C85.7824 152.449 87.0381 152.598 88.4297 153.401L36.4681 183.401Z" fill="#8BC5E4"/>
<path fill-rule="evenodd" clip-rule="evenodd" d="M32.9363 182.862C32.1195 183.243 31.6187 184.104 31.6187 185.371L83.5802 155.371C83.5802 154.104 84.081 153.243 84.8978 152.862L32.9363 182.862Z" fill="#8BC5E4"/>
<path fill-rule="evenodd" clip-rule="evenodd" d="M31.6187 185.371C31.6187 186.631 32.1296 188.146 33.0389 189.561L85.0005 159.561C84.0911 158.146 83.5802 156.631 83.5802 155.371L31.6187 185.371Z" fill="#8BC5E4"/>
<path fill-rule="evenodd" clip-rule="evenodd" d="M33.0391 189.561C33.9484 190.976 35.1781 192.196 36.4685 192.941L88.43 162.941C87.1397 162.196 85.9099 160.976 85.0006 159.561L33.0391 189.561Z" fill="#8BC5E4"/>
<path fill-rule="evenodd" clip-rule="evenodd" d="M36.4683 192.941C37.7586 193.686 38.9884 193.886 39.8977 193.521L91.8592 163.521C90.9499 163.886 89.7202 163.686 88.4298 162.941L36.4683 192.941Z" fill="#8BC5E4"/>
<path fill-rule="evenodd" clip-rule="evenodd" d="M39.8979 193.521C39.9707 193.492 40.0409 193.459 40.1085 193.423L92.07 163.423C92.0024 163.459 91.9322 163.492 91.8595 163.521L39.8979 193.521Z" fill="#8BC5E4"/>
<path fill-rule="evenodd" clip-rule="evenodd" d="M40.1084 193.423C40.8857 193.006 41.3181 192.13 41.3181 190.971L93.2797 160.971C93.2797 162.13 92.8472 163.006 92.0699 163.423L40.1084 193.423Z" fill="#8BC5E4"/>
<path fill-rule="evenodd" clip-rule="evenodd" d="M41.3182 190.971C41.3182 189.701 40.8073 188.196 39.8979 186.781L91.8595 156.781C92.7688 158.196 93.2798 159.701 93.2798 160.971L41.3182 190.971Z" fill="#8BC5E4"/>
<path fill-rule="evenodd" clip-rule="evenodd" d="M39.8977 186.781C38.9884 185.356 37.7586 184.146 36.4683 183.401L88.4298 153.401C89.7202 154.146 90.9499 155.356 91.8592 156.781L39.8977 186.781Z" fill="#8BC5E4"/>
<path d="M10.1152 31.5859C4.53797 28.3659 0 30.2059 0 35.6859V133.586C0 139.066 4.53797 146.146 10.1152 149.366L163.09 237.686C168.667 240.906 173.205 239.066 173.205 233.586V135.686C173.205 130.206 168.667 123.126 163.09 119.906L10.1152 31.5859ZM10.1152 34.6159L163.09 122.936C167.013 125.201 170.122 130.046 170.122 133.906V231.806C170.122 235.656 167.013 236.921 163.09 234.656L10.1152 146.336C6.19208 144.071 3.08305 139.216 3.08305 135.366V37.4659C3.08305 33.6059 6.19208 32.3509 10.1152 34.6159ZM11.9598 44.8909V137.761L160.951 223.781V130.911L11.9598 44.8909ZM86.3947 105.406C93.7906 109.676 101.697 120.881 101.697 129.701V139.931L110.972 145.286V177.376L61.9381 149.066V116.976L71.092 122.261V112.031C71.092 103.551 78.6611 100.941 86.3947 105.406ZM86.3947 108.566C80.7222 105.291 74.305 107.326 74.305 113.886V124.116L98.4931 138.081V127.851C98.4844 120.956 91.7208 111.641 86.3947 108.566ZM86.2301 141.291C84.4202 140.246 82.9566 140.841 82.9566 142.611C82.9652 143.846 83.6667 145.361 84.7839 146.546V154.176L87.6764 155.846V148.226C88.7936 148.321 89.5037 147.621 89.5037 146.391C89.5037 144.621 88.0401 142.336 86.2301 141.291ZM25.236 163.236C20.1784 160.316 16.0648 161.981 16.0648 166.951V186.011C16.0648 190.981 20.1784 197.396 25.236 200.316L148.29 271.361C153.338 274.276 157.461 272.616 157.461 267.646V248.586C157.461 243.616 153.338 237.196 148.29 234.281L25.236 163.236ZM25.236 166.266L148.29 237.311C151.684 239.271 154.378 243.466 154.378 246.806V265.866C154.378 269.206 151.684 270.291 148.29 268.331L25.236 197.286C21.8325 195.321 19.1478 191.131 19.1478 187.791V168.731C19.1478 165.391 21.8325 164.301 25.236 166.266ZM36.4683 183.401C33.7923 181.856 31.6186 182.731 31.6186 185.371C31.6186 186.631 32.1295 188.146 33.0389 189.561C33.9482 190.976 35.178 192.196 36.4683 192.941C37.7587 193.686 38.9885 193.886 39.8978 193.521C40.8071 193.156 41.3181 192.231 41.3181 190.971C41.3181 189.701 40.8071 188.196 39.8978 186.781C38.9885 185.356 37.7587 184.146 36.4683 183.401ZM101.949 222.796V229.156L144.28 253.596V247.236L101.949 222.796Z" fill="#8BC5E4"/>
<path fill-rule="evenodd" clip-rule="evenodd" d="M10.1152 34.6159L163.09 122.936C167.013 125.201 170.122 130.046 170.122 133.906V231.806C170.122 235.656 167.013 236.921 163.09 234.656L10.1152 146.336C6.19208 144.071 3.08305 139.216 3.08305 135.366V37.4659C3.08305 33.6059 6.19208 32.3509 10.1152 34.6159ZM11.9598 137.761V44.8909L160.951 130.911V223.781L11.9598 137.761Z" fill="white"/>
<path fill-rule="evenodd" clip-rule="evenodd" d="M86.3947 105.406C93.7906 109.676 101.697 120.881 101.697 129.701V139.931L110.972 145.286V177.376L61.9381 149.066V116.976L71.092 122.261V112.031C71.092 103.551 78.6611 100.941 86.3947 105.406ZM74.305 113.886C74.305 107.326 80.7222 105.291 86.3947 108.566C91.7208 111.641 98.4844 120.956 98.4931 127.851V138.081L74.305 124.116V113.886ZM82.9566 142.611C82.9566 140.841 84.4202 140.246 86.2301 141.291C88.0401 142.336 89.5037 144.621 89.5037 146.391C89.5037 147.621 88.7936 148.321 87.6764 148.226V155.846L84.7839 154.176V146.546C83.6667 145.361 82.9652 143.846 82.9566 142.611Z" fill="white"/>
<path fill-rule="evenodd" clip-rule="evenodd" d="M25.236 166.266L148.29 237.311C151.684 239.271 154.378 243.466 154.378 246.806V265.866C154.378 269.206 151.684 270.291 148.29 268.331L25.236 197.286C21.8325 195.321 19.1478 191.131 19.1478 187.791V168.731C19.1478 165.391 21.8325 164.301 25.236 166.266ZM31.6186 185.371C31.6186 182.731 33.7923 181.856 36.4683 183.401C37.7587 184.146 38.9885 185.356 39.8978 186.781C40.8071 188.196 41.3181 189.701 41.3181 190.971C41.3181 192.231 40.8071 193.156 39.8978 193.521C38.9885 193.886 37.7587 193.686 36.4683 192.941C35.178 192.196 33.9482 190.976 33.0389 189.561C32.1295 188.146 31.6186 186.631 31.6186 185.371ZM101.949 229.156V222.796L144.28 247.236V253.596L101.949 229.156Z" fill="white"/>
</svg>
