<svg width="269" height="332" viewBox="0 0 269 332" fill="none" xmlns="http://www.w3.org/2000/svg">
<path fill-rule="evenodd" clip-rule="evenodd" d="M197.532 106.395L243.293 79.975L191.331 49.975L145.57 76.395L197.532 106.395Z" fill="#8BC5E4"/>
<path fill-rule="evenodd" clip-rule="evenodd" d="M243.293 79.975V83.145L191.331 53.145V49.975L243.293 79.975Z" fill="#8BC5E4"/>
<path fill-rule="evenodd" clip-rule="evenodd" d="M243.293 83.1449L197.532 109.565L145.57 79.5649L191.331 53.1449L243.293 83.1449Z" fill="#8BC5E4"/>
<path fill-rule="evenodd" clip-rule="evenodd" d="M197.532 109.565V106.395L145.57 76.3949V79.5649L197.532 109.565Z" fill="#8BC5E4"/>
<path fill-rule="evenodd" clip-rule="evenodd" d="M197.532 106.395L145.57 76.3949L197.532 106.395Z" fill="#8BC5E4"/>
<path fill-rule="evenodd" clip-rule="evenodd" d="M119.477 151.46L165.229 125.045L113.267 95.0449L67.5151 121.46L119.477 151.46Z" fill="#8BC5E4"/>
<path fill-rule="evenodd" clip-rule="evenodd" d="M165.229 125.045V128.215L113.268 98.2149V95.0449L165.229 125.045Z" fill="#8BC5E4"/>
<path fill-rule="evenodd" clip-rule="evenodd" d="M165.229 128.215L119.477 154.63L67.5151 124.63L113.267 98.215L165.229 128.215Z" fill="#8BC5E4"/>
<path fill-rule="evenodd" clip-rule="evenodd" d="M119.477 154.63V151.46L67.5151 121.46V124.63L119.477 154.63Z" fill="#8BC5E4"/>
<path fill-rule="evenodd" clip-rule="evenodd" d="M119.477 151.46L67.5151 121.46L119.477 151.46Z" fill="#8BC5E4"/>
<path fill-rule="evenodd" clip-rule="evenodd" d="M77.1368 290.985V188.105L25.1753 158.105V260.985L77.1368 290.985Z" fill="#8BC5E4"/>
<path fill-rule="evenodd" clip-rule="evenodd" d="M77.1368 188.105L25.1753 158.105L77.1368 188.105Z" fill="#8BC5E4"/>
<path fill-rule="evenodd" clip-rule="evenodd" d="M119.477 163.66L243.292 92.1749L191.331 62.1749L67.5151 133.66L119.477 163.66Z" fill="#8BC5E4"/>
<path fill-rule="evenodd" clip-rule="evenodd" d="M243.293 92.1749V195.055L191.331 165.055V62.1749L243.293 92.1749Z" fill="#8BC5E4"/>
<path fill-rule="evenodd" clip-rule="evenodd" d="M243.292 195.055L119.477 266.54L67.5151 236.54L191.331 165.055L243.292 195.055Z" fill="#8BC5E4"/>
<path fill-rule="evenodd" clip-rule="evenodd" d="M119.477 266.54V163.66L67.5151 133.66V236.54L119.477 266.54Z" fill="#8BC5E4"/>
<path fill-rule="evenodd" clip-rule="evenodd" d="M119.477 163.66L67.5151 133.66L119.477 163.66Z" fill="#8BC5E4"/>
<path fill-rule="evenodd" clip-rule="evenodd" d="M79.0162 119.65L159.591 73.13L107.63 43.13L27.0547 89.65L79.0162 119.65Z" fill="#8BC5E4"/>
<path fill-rule="evenodd" clip-rule="evenodd" d="M163.549 72.195L236.399 30.135L184.437 0.13501L111.587 42.195L163.549 72.195Z" fill="#8BC5E4"/>
<path fill-rule="evenodd" clip-rule="evenodd" d="M236.399 30.135V31.795L184.438 1.79501V0.13501L236.399 30.135Z" fill="#8BC5E4"/>
<path fill-rule="evenodd" clip-rule="evenodd" d="M236.399 31.795L248.03 30L196.068 0L184.438 1.795L236.399 31.795Z" fill="#8BC5E4"/>
<path fill-rule="evenodd" clip-rule="evenodd" d="M248.03 30L236.399 41.655L184.438 11.655L196.068 0L248.03 30Z" fill="#8BC5E4"/>
<path fill-rule="evenodd" clip-rule="evenodd" d="M236.399 41.6549V43.1449L184.438 13.1449V11.6549L236.399 41.6549Z" fill="#8BC5E4"/>
<path fill-rule="evenodd" clip-rule="evenodd" d="M236.399 43.1449L163.549 85.2049L111.587 55.2049L184.437 13.1449L236.399 43.1449Z" fill="#8BC5E4"/>
<path fill-rule="evenodd" clip-rule="evenodd" d="M159.591 89.1499L79.0162 135.67L27.0547 105.67L107.63 59.1499L159.591 89.1499Z" fill="#8BC5E4"/>
<path fill-rule="evenodd" clip-rule="evenodd" d="M79.0162 135.67L27.0547 105.67L79.0162 135.67Z" fill="#8BC5E4"/>
<path fill-rule="evenodd" clip-rule="evenodd" d="M51.9615 170.96V324.94L0 294.94V140.96L51.9615 170.96Z" fill="#8BC5E4"/>
<path fill-rule="evenodd" clip-rule="evenodd" d="M61.8341 329.54L258.595 215.94L206.634 185.94L9.87256 299.54L61.8341 329.54Z" fill="#8BC5E4"/>
<path fill-rule="evenodd" clip-rule="evenodd" d="M268.468 199.94V45.96L216.506 15.96V169.94L268.468 199.94Z" fill="#8BC5E4"/>
<path fill-rule="evenodd" clip-rule="evenodd" d="M258.595 41.37L61.8341 154.97L9.87256 124.97L206.634 11.37L258.595 41.37Z" fill="#8BC5E4"/>
<path fill-rule="evenodd" clip-rule="evenodd" d="M61.8341 154.97L9.87256 124.97L61.8341 154.97Z" fill="#8BC5E4"/>
<path fill-rule="evenodd" clip-rule="evenodd" d="M61.8341 158.96L258.595 45.36L206.634 15.36L9.87256 128.96L61.8341 158.96Z" fill="#8BC5E4"/>
<path fill-rule="evenodd" clip-rule="evenodd" d="M264.649 48.1649V202.145L212.687 172.145V18.1649L264.649 48.1649Z" fill="#8BC5E4"/>
<path fill-rule="evenodd" clip-rule="evenodd" d="M258.595 211.96L61.8341 325.56L9.87256 295.56L206.634 181.96L258.595 211.96Z" fill="#8BC5E4"/>
<path fill-rule="evenodd" clip-rule="evenodd" d="M55.7804 322.735V168.755L3.81885 138.755V292.735L55.7804 322.735Z" fill="#8BC5E4"/>
<path fill-rule="evenodd" clip-rule="evenodd" d="M61.8341 158.96L9.87256 128.96L61.8341 158.96Z" fill="#8BC5E4"/>
<path fill-rule="evenodd" clip-rule="evenodd" d="M77.1368 188.105C78.3964 187.378 79.6087 187.264 80.7567 187.703L28.7951 157.703C27.6472 157.264 26.4348 157.378 25.1753 158.105L77.1368 188.105Z" fill="#8BC5E4"/>
<path fill-rule="evenodd" clip-rule="evenodd" d="M80.7564 187.703C86.7833 190.008 91.0363 207.546 91.0363 231.52L39.0748 201.52C39.0748 177.546 34.8218 160.008 28.7949 157.703L80.7564 187.703Z" fill="#8BC5E4"/>
<path fill-rule="evenodd" clip-rule="evenodd" d="M91.0365 231.52C91.0365 257.08 85.9183 285.915 77.1368 290.985L25.1753 260.985C33.9568 255.915 39.075 227.08 39.075 201.52L91.0365 231.52Z" fill="#8BC5E4"/>
<path fill-rule="evenodd" clip-rule="evenodd" d="M79.0162 135.67C77.3659 136.623 75.7735 136.743 74.5636 136.106L22.6021 106.106C23.8119 106.743 25.4044 106.623 27.0547 105.67L79.0162 135.67Z" fill="#8BC5E4"/>
<path fill-rule="evenodd" clip-rule="evenodd" d="M74.5632 136.107C73.2525 135.417 72.3907 133.841 72.3907 131.475L20.4292 101.475C20.4292 103.841 21.291 105.417 22.6017 106.107L74.5632 136.107Z" fill="#8BC5E4"/>
<path fill-rule="evenodd" clip-rule="evenodd" d="M72.3907 131.475C72.3907 127.215 75.1966 121.855 79.0158 119.65L27.0543 89.6499C23.2351 91.8549 20.4292 97.2149 20.4292 101.475L72.3907 131.475Z" fill="#8BC5E4"/>
<path fill-rule="evenodd" clip-rule="evenodd" d="M159.591 73.13C161.323 72.1 162.519 72.13 163.549 72.195L111.588 42.195C110.557 42.13 109.362 42.1 107.63 43.13L159.591 73.13Z" fill="#8BC5E4"/>
<path fill-rule="evenodd" clip-rule="evenodd" d="M163.549 85.205C162.501 86.73 160.916 88.385 159.591 89.15L107.63 59.15C108.955 58.385 110.54 56.73 111.588 55.205L163.549 85.205Z" fill="#8BC5E4"/>
<path fill-rule="evenodd" clip-rule="evenodd" d="M61.8342 154.97C56.4042 158.105 51.9615 165.29 51.9615 170.96L0 140.96C0 135.29 4.44271 128.105 9.87269 124.97L61.8342 154.97Z" fill="#8BC5E4"/>
<path fill-rule="evenodd" clip-rule="evenodd" d="M51.9615 324.94C51.9615 327.435 52.8216 329.232 54.2475 330.195L2.28598 300.195C0.860108 299.232 0 297.435 0 294.94L51.9615 324.94Z" fill="#8BC5E4"/>
<path fill-rule="evenodd" clip-rule="evenodd" d="M54.2472 330.195C56.0619 331.42 58.7931 331.296 61.8339 329.54L9.87236 299.54C6.83157 301.296 4.10039 301.42 2.28564 300.195L54.2472 330.195Z" fill="#8BC5E4"/>
<path fill-rule="evenodd" clip-rule="evenodd" d="M258.595 215.94C264.025 212.805 268.468 205.61 268.468 199.94L216.506 169.94C216.506 175.61 212.064 182.805 206.634 185.94L258.595 215.94Z" fill="#8BC5E4"/>
<path fill-rule="evenodd" clip-rule="evenodd" d="M268.468 45.96C268.468 43.4652 267.608 41.6703 266.182 40.7094L214.22 10.7094C215.646 11.6703 216.506 13.4652 216.506 15.96L268.468 45.96Z" fill="#8BC5E4"/>
<path fill-rule="evenodd" clip-rule="evenodd" d="M266.182 40.7093C264.367 39.4863 261.636 39.6143 258.595 41.3699L206.634 11.3699C209.675 9.6143 212.406 9.48628 214.22 10.7093L266.182 40.7093Z" fill="#8BC5E4"/>
<path fill-rule="evenodd" clip-rule="evenodd" d="M258.595 45.36C260.356 44.3434 261.923 44.188 263.021 44.7694L211.059 14.7694C209.961 14.188 208.395 14.3434 206.634 15.36L258.595 45.36Z" fill="#8BC5E4"/>
<path fill-rule="evenodd" clip-rule="evenodd" d="M263.02 44.7694C264.034 45.3061 264.648 46.4706 264.648 48.165L212.687 18.165C212.687 16.4706 212.072 15.3061 211.059 14.7694L263.02 44.7694Z" fill="#8BC5E4"/>
<path fill-rule="evenodd" clip-rule="evenodd" d="M264.649 202.145C264.649 205.675 261.981 210.005 258.595 211.96L206.634 181.96C210.02 180.005 212.687 175.675 212.687 172.145L264.649 202.145Z" fill="#8BC5E4"/>
<path fill-rule="evenodd" clip-rule="evenodd" d="M61.8341 325.56C60.0733 326.577 58.5069 326.727 57.4088 326.14L5.44727 296.14C6.54536 296.727 8.1118 296.577 9.8726 295.56L61.8341 325.56Z" fill="#8BC5E4"/>
<path fill-rule="evenodd" clip-rule="evenodd" d="M57.4086 326.14C56.3949 325.598 55.7804 324.429 55.7804 322.735L3.81885 292.735C3.81885 294.429 4.43341 295.598 5.44703 296.14L57.4086 326.14Z" fill="#8BC5E4"/>
<path fill-rule="evenodd" clip-rule="evenodd" d="M55.7804 168.755C55.7804 165.225 58.4477 160.915 61.8339 158.96L9.87236 128.96C6.48621 130.915 3.81885 135.225 3.81885 138.755L55.7804 168.755Z" fill="#8BC5E4"/>
<path fill-rule="evenodd" clip-rule="evenodd" d="M61.8341 158.96L258.595 45.36C261.981 43.405 264.649 44.635 264.649 48.165V202.145C264.649 205.675 261.981 210.005 258.595 211.96L61.8341 325.56C58.448 327.515 55.7806 326.265 55.7806 322.735V168.755C55.7806 165.225 58.448 160.915 61.8341 158.96ZM243.292 79.975L197.532 106.395V109.565L243.292 83.145V79.975ZM165.229 125.045L119.477 151.46V154.63L165.229 128.215V125.045ZM91.0365 231.52C91.0365 202.98 85.009 183.56 77.1368 188.105V290.985C85.9183 285.915 91.0365 257.08 91.0365 231.52ZM243.292 92.175L119.477 163.66V266.54L243.292 195.055V92.175Z" fill="white"/>
<path fill-rule="evenodd" clip-rule="evenodd" d="M243.292 79.975L197.532 106.395V109.565L243.292 83.145V79.975ZM165.229 125.045L119.477 151.46V154.63L165.229 128.215V125.045ZM91.0365 231.52C91.0365 202.98 85.009 183.56 77.1368 188.105V290.985C85.9183 285.915 91.0365 257.08 91.0365 231.52ZM243.292 92.175L119.477 163.66V266.54L243.292 195.055V92.175ZM51.9614 170.96C51.9614 165.29 56.4041 158.105 61.8341 154.97L258.595 41.37C264.025 38.235 268.468 40.29 268.468 45.96V199.94C268.468 205.61 264.025 212.805 258.595 215.94L61.8341 329.54C56.4041 332.675 51.9614 330.61 51.9614 324.94V170.96ZM258.595 45.36L61.8341 158.96C58.448 160.915 55.7806 165.225 55.7806 168.755V322.735C55.7806 326.265 58.448 327.515 61.8341 325.56L258.595 211.96C261.981 210.005 264.649 205.675 264.649 202.145V48.165C264.649 44.635 261.981 43.405 258.595 45.36Z" fill="#8BC5E4"/>
<path d="M79.0161 135.67C75.5779 137.655 72.391 136.025 72.391 131.475C72.391 127.215 75.1969 121.855 79.0161 119.65L159.591 73.13C161.323 72.1 162.518 72.13 163.549 72.195L236.399 30.135V31.795L248.03 30L236.399 41.655V43.145L163.549 85.205C162.501 86.73 160.916 88.385 159.591 89.15L79.0161 135.67Z" fill="white"/>
</svg>
