<svg width="269" height="336" viewBox="0 0 269 336" fill="none" xmlns="http://www.w3.org/2000/svg">
<path fill-rule="evenodd" clip-rule="evenodd" d="M145.57 154.478L191.331 180.898L243.293 150.898L197.532 124.478L145.57 154.478Z" fill="#8BC5E4"/>
<path fill-rule="evenodd" clip-rule="evenodd" d="M191.331 180.898V184.068L243.293 154.068V150.898L191.331 180.898Z" fill="#8BC5E4"/>
<path fill-rule="evenodd" clip-rule="evenodd" d="M191.331 184.068L145.57 157.648L197.532 127.648L243.293 154.068L191.331 184.068Z" fill="#8BC5E4"/>
<path fill-rule="evenodd" clip-rule="evenodd" d="M145.57 157.648V154.478L197.532 124.478V127.648L145.57 157.648Z" fill="#8BC5E4"/>
<path fill-rule="evenodd" clip-rule="evenodd" d="M145.57 154.478L197.532 124.478L145.57 154.478Z" fill="#8BC5E4"/>
<path fill-rule="evenodd" clip-rule="evenodd" d="M67.5156 109.413L113.268 135.828L165.229 105.828L119.477 79.4133L67.5156 109.413Z" fill="#8BC5E4"/>
<path fill-rule="evenodd" clip-rule="evenodd" d="M113.268 135.828V138.998L165.229 108.998V105.828L113.268 135.828Z" fill="#8BC5E4"/>
<path fill-rule="evenodd" clip-rule="evenodd" d="M113.268 138.998L67.5156 112.583L119.477 82.5834L165.229 108.998L113.268 138.998Z" fill="#8BC5E4"/>
<path fill-rule="evenodd" clip-rule="evenodd" d="M67.5156 112.583V109.413L119.477 79.4133V82.5833L67.5156 112.583Z" fill="#8BC5E4"/>
<path fill-rule="evenodd" clip-rule="evenodd" d="M67.5156 109.413L119.477 79.4133L67.5156 109.413Z" fill="#8BC5E4"/>
<path fill-rule="evenodd" clip-rule="evenodd" d="M25.1753 200.048V97.1683L77.1368 67.1683V170.048L25.1753 200.048Z" fill="#8BC5E4"/>
<path fill-rule="evenodd" clip-rule="evenodd" d="M25.1753 97.1683L77.1368 67.1683L25.1753 97.1683Z" fill="#8BC5E4"/>
<path fill-rule="evenodd" clip-rule="evenodd" d="M67.5156 121.613L191.331 193.098L243.293 163.098L119.477 91.6134L67.5156 121.613Z" fill="#8BC5E4"/>
<path fill-rule="evenodd" clip-rule="evenodd" d="M191.331 193.098V295.978L243.293 265.978V163.098L191.331 193.098Z" fill="#8BC5E4"/>
<path fill-rule="evenodd" clip-rule="evenodd" d="M191.331 295.978L67.5156 224.493L119.477 194.493L243.293 265.978L191.331 295.978Z" fill="#8BC5E4"/>
<path fill-rule="evenodd" clip-rule="evenodd" d="M67.5156 224.493V121.613L119.477 91.6134V194.493L67.5156 224.493Z" fill="#8BC5E4"/>
<path fill-rule="evenodd" clip-rule="evenodd" d="M67.5156 121.613L119.477 91.6134L67.5156 121.613Z" fill="#8BC5E4"/>
<path fill-rule="evenodd" clip-rule="evenodd" d="M27.0547 30.8833L107.63 77.4033L159.591 47.4033L79.0162 0.883301L27.0547 30.8833Z" fill="#8BC5E4"/>
<path fill-rule="evenodd" clip-rule="evenodd" d="M111.587 81.0383L184.437 123.098L236.399 93.0983L163.549 51.0383L111.587 81.0383Z" fill="#8BC5E4"/>
<path fill-rule="evenodd" clip-rule="evenodd" d="M184.438 123.098V124.758L236.399 94.7584V93.0984L184.438 123.098Z" fill="#8BC5E4"/>
<path fill-rule="evenodd" clip-rule="evenodd" d="M184.438 124.758L196.068 136.393L248.03 106.393L236.399 94.7583L184.438 124.758Z" fill="#8BC5E4"/>
<path fill-rule="evenodd" clip-rule="evenodd" d="M196.068 136.393L184.438 134.618L236.399 104.618L248.03 106.393L196.068 136.393Z" fill="#8BC5E4"/>
<path fill-rule="evenodd" clip-rule="evenodd" d="M184.438 134.618V136.108L236.399 106.108V104.618L184.438 134.618Z" fill="#8BC5E4"/>
<path fill-rule="evenodd" clip-rule="evenodd" d="M184.437 136.108L111.587 94.0483L163.549 64.0483L236.399 106.108L184.437 136.108Z" fill="#8BC5E4"/>
<path fill-rule="evenodd" clip-rule="evenodd" d="M107.63 93.4233L27.0547 46.9033L79.0162 16.9033L159.591 63.4233L107.63 93.4233Z" fill="#8BC5E4"/>
<path fill-rule="evenodd" clip-rule="evenodd" d="M27.0547 46.9033L79.0162 16.9033L27.0547 46.9033Z" fill="#8BC5E4"/>
<path fill-rule="evenodd" clip-rule="evenodd" d="M0 50.9534V204.933L51.9615 174.933V20.9534L0 50.9534Z" fill="#8BC5E4"/>
<path fill-rule="evenodd" clip-rule="evenodd" d="M9.87305 220.933L206.634 334.533L258.596 304.533L61.8346 190.933L9.87305 220.933Z" fill="#8BC5E4"/>
<path fill-rule="evenodd" clip-rule="evenodd" d="M216.506 329.933V175.953L268.468 145.953V299.933L216.506 329.933Z" fill="#8BC5E4"/>
<path fill-rule="evenodd" clip-rule="evenodd" d="M206.634 159.963L9.87305 46.3634L61.8346 16.3634L258.596 129.963L206.634 159.963Z" fill="#8BC5E4"/>
<path fill-rule="evenodd" clip-rule="evenodd" d="M9.87305 46.3634L61.8346 16.3634L9.87305 46.3634Z" fill="#8BC5E4"/>
<path fill-rule="evenodd" clip-rule="evenodd" d="M9.87305 50.3534L206.634 163.953L258.596 133.953L61.8346 20.3534L9.87305 50.3534Z" fill="#8BC5E4"/>
<path fill-rule="evenodd" clip-rule="evenodd" d="M212.688 173.748V327.728L264.649 297.728V143.748L212.688 173.748Z" fill="#8BC5E4"/>
<path fill-rule="evenodd" clip-rule="evenodd" d="M206.634 330.553L9.87305 216.953L61.8346 186.953L258.596 300.553L206.634 330.553Z" fill="#8BC5E4"/>
<path fill-rule="evenodd" clip-rule="evenodd" d="M3.81934 207.138V53.1583L55.7809 23.1583V177.138L3.81934 207.138Z" fill="#8BC5E4"/>
<path fill-rule="evenodd" clip-rule="evenodd" d="M9.87305 50.3534L61.8346 20.3534L9.87305 50.3534Z" fill="#8BC5E4"/>
<path fill-rule="evenodd" clip-rule="evenodd" d="M25.1753 97.1683C33.0475 101.713 39.075 128.093 39.075 156.633L91.0365 126.633C91.0365 98.0933 85.009 71.7133 77.1368 67.1683L25.1753 97.1683Z" fill="#8BC5E4"/>
<path fill-rule="evenodd" clip-rule="evenodd" d="M39.0752 156.633C39.0752 177.081 35.7996 195.843 29.9932 199.934L81.9547 169.934C87.7611 165.843 91.0367 147.081 91.0367 126.633L39.0752 156.633Z" fill="#8BC5E4"/>
<path fill-rule="evenodd" clip-rule="evenodd" d="M29.993 199.934C28.5414 200.957 26.9316 201.062 25.1753 200.048L77.1368 170.048C78.8931 171.062 80.5029 170.957 81.9545 169.934L29.993 199.934Z" fill="#8BC5E4"/>
<path fill-rule="evenodd" clip-rule="evenodd" d="M27.0548 46.9034C23.6167 44.9184 20.4297 39.6083 20.4297 35.0583L72.3912 5.05835C72.3912 9.60835 75.5782 14.9184 79.0163 16.9033L27.0548 46.9034Z" fill="#8BC5E4"/>
<path fill-rule="evenodd" clip-rule="evenodd" d="M20.4297 35.0583C20.4297 32.8431 21.1884 31.2066 22.4538 30.4559L74.4153 0.455933C73.1499 1.20659 72.3912 2.84314 72.3912 5.05834L20.4297 35.0583Z" fill="#8BC5E4"/>
<path fill-rule="evenodd" clip-rule="evenodd" d="M22.4536 30.4559C23.6217 29.763 25.2214 29.8249 27.0546 30.8833L79.0161 0.883346C77.1829 -0.175053 75.5832 -0.236974 74.4151 0.455943L22.4536 30.4559Z" fill="#8BC5E4"/>
<path fill-rule="evenodd" clip-rule="evenodd" d="M107.63 77.4033C109.362 78.3733 110.557 79.7833 111.588 81.0383L163.549 51.0383C162.519 49.7833 161.323 48.3733 159.591 47.4033L107.63 77.4033Z" fill="#8BC5E4"/>
<path fill-rule="evenodd" clip-rule="evenodd" d="M111.588 94.0483C110.54 94.3633 108.955 94.1883 107.63 93.4233L159.591 63.4233C160.916 64.1883 162.501 64.3633 163.549 64.0483L111.588 94.0483Z" fill="#8BC5E4"/>
<path fill-rule="evenodd" clip-rule="evenodd" d="M9.87251 46.3633C7.04892 44.7331 4.49229 44.5063 2.68848 45.4614L54.65 15.4614C56.4538 14.5063 59.0104 14.7331 61.834 16.3633L9.87251 46.3633Z" fill="#8BC5E4"/>
<path fill-rule="evenodd" clip-rule="evenodd" d="M2.68866 45.4614C1.0236 46.3431 0 48.2318 0 50.9534L51.9615 20.9534C51.9615 18.2318 52.9851 16.3431 54.6502 15.4614L2.68866 45.4614Z" fill="#8BC5E4"/>
<path fill-rule="evenodd" clip-rule="evenodd" d="M0 204.933C0 210.603 4.44271 217.798 9.87269 220.933L61.8342 190.933C56.4042 187.798 51.9615 180.603 51.9615 174.933L0 204.933Z" fill="#8BC5E4"/>
<path fill-rule="evenodd" clip-rule="evenodd" d="M206.634 334.533C209.457 336.164 212.014 336.388 213.818 335.43L265.779 305.43C263.976 306.388 261.419 306.164 258.595 304.533L206.634 334.533Z" fill="#8BC5E4"/>
<path fill-rule="evenodd" clip-rule="evenodd" d="M213.817 335.43C215.482 334.546 216.506 332.655 216.506 329.933L268.468 299.933C268.468 302.655 267.444 304.546 265.779 305.43L213.817 335.43Z" fill="#8BC5E4"/>
<path fill-rule="evenodd" clip-rule="evenodd" d="M216.506 175.953C216.506 170.283 212.064 163.098 206.634 159.963L258.595 129.963C264.025 133.098 268.468 140.283 268.468 145.953L216.506 175.953Z" fill="#8BC5E4"/>
<path fill-rule="evenodd" clip-rule="evenodd" d="M206.634 163.953C210.02 165.908 212.687 170.218 212.687 173.748L264.649 143.748C264.649 140.218 261.981 135.908 258.595 133.953L206.634 163.953Z" fill="#8BC5E4"/>
<path fill-rule="evenodd" clip-rule="evenodd" d="M212.687 327.728C212.687 329.281 212.171 330.393 211.304 330.985L263.265 300.985C264.132 300.393 264.648 299.281 264.648 297.728L212.687 327.728Z" fill="#8BC5E4"/>
<path fill-rule="evenodd" clip-rule="evenodd" d="M211.304 330.985C210.201 331.738 208.53 331.648 206.634 330.553L258.595 300.553C260.492 301.648 262.162 301.738 263.266 300.985L211.304 330.985Z" fill="#8BC5E4"/>
<path fill-rule="evenodd" clip-rule="evenodd" d="M9.87285 216.953C6.48669 214.998 3.81934 210.668 3.81934 207.138L55.7809 177.138C55.7809 180.668 58.4482 184.998 61.8344 186.953L9.87285 216.953Z" fill="#8BC5E4"/>
<path fill-rule="evenodd" clip-rule="evenodd" d="M3.81934 53.1584C3.81934 51.6052 4.33574 50.4973 5.20255 49.91L57.1641 19.91C56.2973 20.4973 55.7809 21.6052 55.7809 23.1584L3.81934 53.1584Z" fill="#8BC5E4"/>
<path fill-rule="evenodd" clip-rule="evenodd" d="M5.20215 49.91C6.30537 49.1626 7.9762 49.2586 9.87245 50.3534L61.834 20.3534C59.9377 19.2586 58.2669 19.1626 57.1637 19.91L5.20215 49.91Z" fill="#8BC5E4"/>
<path fill-rule="evenodd" clip-rule="evenodd" d="M9.87269 50.3533L206.634 163.953C210.02 165.908 212.687 170.218 212.687 173.748V327.728C212.687 331.258 210.02 332.508 206.634 330.553L9.87269 216.953C6.48653 214.998 3.81917 210.668 3.81917 207.138V53.1583C3.81917 49.6283 6.48653 48.3983 9.87269 50.3533ZM191.331 180.898L145.57 154.478V157.648L191.331 184.068V180.898ZM113.267 135.828L67.5153 109.413V112.583L113.267 138.998V135.828ZM39.0751 156.633C39.0751 128.093 33.0475 101.713 25.1754 97.1684V200.048C33.9569 205.118 39.0751 182.193 39.0751 156.633ZM191.331 193.098L67.5153 121.613V224.493L191.331 295.978V193.098Z" fill="white"/>
<path fill-rule="evenodd" clip-rule="evenodd" d="M191.331 180.898L145.57 154.478V157.648L191.331 184.068V180.898ZM113.267 135.828L67.5153 109.413V112.583L113.267 138.998V135.828ZM39.0751 156.633C39.0751 128.093 33.0475 101.713 25.1754 97.1684V200.048C33.9569 205.118 39.0751 182.193 39.0751 156.633ZM191.331 193.098L67.5153 121.613V224.493L191.331 295.978V193.098ZM0 50.9533C0 45.2833 4.44271 43.2283 9.87269 46.3633L206.634 159.963C212.064 163.098 216.506 170.283 216.506 175.953V329.933C216.506 335.603 212.064 337.668 206.634 334.533L9.87269 220.933C4.44271 217.798 0 210.603 0 204.933V50.9533ZM206.634 163.953L9.87269 50.3533C6.48653 48.3983 3.81917 49.6283 3.81917 53.1583V207.138C3.81917 210.668 6.48653 214.998 9.87269 216.953L206.634 330.553C210.02 332.508 212.687 331.258 212.687 327.728V173.748C212.687 170.218 210.02 165.908 206.634 163.953Z" fill="#8BC5E4"/>
<path d="M27.0546 46.9033C23.6165 44.9183 20.4295 39.6083 20.4295 35.0583C20.4295 30.7983 23.2355 28.6783 27.0546 30.8833L107.63 77.4033C109.362 78.3733 110.557 79.7833 111.587 81.0383L184.437 123.098V124.758L196.068 136.393L184.437 134.618V136.108L111.587 94.0483C110.539 94.3633 108.955 94.1883 107.63 93.4233L27.0546 46.9033Z" fill="white"/>
</svg>
