<svg width="227" height="284" viewBox="0 0 227 284" fill="none" xmlns="http://www.w3.org/2000/svg">
<path fill-rule="evenodd" clip-rule="evenodd" d="M1 135.293V158.493L52.9615 128.493V105.293L1 135.293Z" fill="#8BC5E4"/>
<path fill-rule="evenodd" clip-rule="evenodd" d="M1 158.493L3.39889 159.878L55.3604 129.878L52.9615 128.493L1 158.493Z" fill="#8BC5E4"/>
<path fill-rule="evenodd" clip-rule="evenodd" d="M3.39893 159.878L60.8424 193.043L112.804 163.043L55.3605 129.878L3.39893 159.878Z" fill="#8BC5E4"/>
<path fill-rule="evenodd" clip-rule="evenodd" d="M60.8423 193.043V202.893L112.804 172.893V163.043L60.8423 193.043Z" fill="#8BC5E4"/>
<path fill-rule="evenodd" clip-rule="evenodd" d="M72.0576 221.748L106.906 241.868L158.868 211.868L124.019 191.748L72.0576 221.748Z" fill="#8BC5E4"/>
<path fill-rule="evenodd" clip-rule="evenodd" d="M106.906 241.868V250.178L158.868 220.178V211.868L106.906 241.868Z" fill="#8BC5E4"/>
<path fill-rule="evenodd" clip-rule="evenodd" d="M106.906 250.178L91.5864 241.333L143.548 211.333L158.868 220.178L106.906 250.178Z" fill="#8BC5E4"/>
<path fill-rule="evenodd" clip-rule="evenodd" d="M91.5864 251.943L143.461 281.893L195.423 251.893L143.548 221.943L91.5864 251.943Z" fill="#8BC5E4"/>
<path fill-rule="evenodd" clip-rule="evenodd" d="M143.461 271.283L128.141 262.438L180.103 232.438L195.423 241.283L143.461 271.283Z" fill="#8BC5E4"/>
<path fill-rule="evenodd" clip-rule="evenodd" d="M128.141 262.438V254.128L180.103 224.128V232.438L128.141 262.438Z" fill="#8BC5E4"/>
<path fill-rule="evenodd" clip-rule="evenodd" d="M128.141 254.128L162.99 274.248L214.952 244.248L180.103 224.128L128.141 254.128Z" fill="#8BC5E4"/>
<path fill-rule="evenodd" clip-rule="evenodd" d="M174.205 268.343V210.873L226.167 180.873V238.343L174.205 268.343Z" fill="#8BC5E4"/>
<path fill-rule="evenodd" clip-rule="evenodd" d="M162.99 192.008L114.077 163.768L166.039 133.768L214.952 162.008L162.99 192.008Z" fill="#8BC5E4"/>
<path fill-rule="evenodd" clip-rule="evenodd" d="M61.9595 34.8776L113.921 4.87756L61.9595 34.8776Z" fill="#8BC5E4"/>
<path fill-rule="evenodd" clip-rule="evenodd" d="M61.9595 41.2476L113.921 11.2476L61.9595 41.2476Z" fill="#8BC5E4"/>
<path fill-rule="evenodd" clip-rule="evenodd" d="M108.396 160.488L72.0576 139.508L124.019 109.508L160.358 130.488L108.396 160.488Z" fill="#8BC5E4"/>
<path fill-rule="evenodd" clip-rule="evenodd" d="M60.8423 145.423V187.733L112.804 157.733V115.423L60.8423 145.423Z" fill="#8BC5E4"/>
<path fill-rule="evenodd" clip-rule="evenodd" d="M60.8426 187.733L5.80664 155.958L57.7682 125.958L112.804 157.733L60.8426 187.733Z" fill="#8BC5E4"/>
<path fill-rule="evenodd" clip-rule="evenodd" d="M5.80664 155.958V138.068L57.7682 108.068V125.958L5.80664 155.958Z" fill="#8BC5E4"/>
<path fill-rule="evenodd" clip-rule="evenodd" d="M47.3843 98.9626L99.3458 68.9626L47.3843 98.9626Z" fill="#8BC5E4"/>
<path fill-rule="evenodd" clip-rule="evenodd" d="M72.0576 145.878L162.99 198.378L214.952 168.378L124.019 115.878L72.0576 145.878Z" fill="#8BC5E4"/>
<path fill-rule="evenodd" clip-rule="evenodd" d="M168.446 207.548V265.018L220.407 235.018V177.548L168.446 207.548Z" fill="#8BC5E4"/>
<path fill-rule="evenodd" clip-rule="evenodd" d="M162.99 267.888L72.0576 215.388L124.019 185.388L214.952 237.888L162.99 267.888Z" fill="#8BC5E4"/>
<path fill-rule="evenodd" clip-rule="evenodd" d="M66.6099 206.223V148.753L118.571 118.753V176.223L66.6099 206.223Z" fill="#8BC5E4"/>
<path fill-rule="evenodd" clip-rule="evenodd" d="M72.0576 145.878L124.019 115.878L72.0576 145.878Z" fill="#8BC5E4"/>
<path fill-rule="evenodd" clip-rule="evenodd" d="M74.4907 153.973V209.863L126.452 179.863V123.973L74.4907 153.973Z" fill="#8BC5E4"/>
<path fill-rule="evenodd" clip-rule="evenodd" d="M74.4907 209.863L160.565 259.558L212.527 229.558L126.452 179.863L74.4907 209.863Z" fill="#8BC5E4"/>
<path fill-rule="evenodd" clip-rule="evenodd" d="M160.565 259.558V203.668L212.527 173.668V229.558L160.565 259.558Z" fill="#8BC5E4"/>
<path fill-rule="evenodd" clip-rule="evenodd" d="M160.565 203.668L74.4907 153.973L126.452 123.973L212.527 173.668L160.565 203.668Z" fill="#8BC5E4"/>
<path fill-rule="evenodd" clip-rule="evenodd" d="M74.4907 153.973L126.452 123.973L74.4907 153.973Z" fill="#8BC5E4"/>
<path fill-rule="evenodd" clip-rule="evenodd" d="M61.9597 34.8776C52.8436 29.6144 44.5435 28.7553 38.3765 31.6041L90.338 1.6041C96.505 -1.24472 104.805 -0.385615 113.921 4.87758L61.9597 34.8776Z" fill="#8BC5E4"/>
<path fill-rule="evenodd" clip-rule="evenodd" d="M38.3762 31.6041C31.6952 34.6903 27.5176 42.1282 27.5176 53.0326L79.4791 23.0326C79.4791 12.1282 83.6568 4.69034 90.3377 1.60413L38.3762 31.6041Z" fill="#8BC5E4"/>
<path fill-rule="evenodd" clip-rule="evenodd" d="M27.5176 53.0326C27.5176 65.6926 33.1467 80.1826 41.7897 92.0926L93.7512 62.0926C85.1083 50.1826 79.4791 35.6926 79.4791 23.0326L27.5176 53.0326Z" fill="#8BC5E4"/>
<path fill-rule="evenodd" clip-rule="evenodd" d="M41.7896 92.0926C33.5533 90.5022 26.4114 91.4472 20.5068 94.3978L72.4684 64.3978C78.3729 61.4472 85.5149 60.5022 93.7511 62.0926L41.7896 92.0926Z" fill="#8BC5E4"/>
<path fill-rule="evenodd" clip-rule="evenodd" d="M20.507 94.3978C7.95982 100.668 1 115.994 1 135.293L52.9615 105.293C52.9615 85.9942 59.9213 70.6678 72.4686 64.3978L20.507 94.3978Z" fill="#8BC5E4"/>
<path fill-rule="evenodd" clip-rule="evenodd" d="M60.8423 202.893C60.8423 209.693 65.8912 218.188 72.0573 221.748L124.019 191.748C117.853 188.188 112.804 179.693 112.804 172.893L60.8423 202.893Z" fill="#8BC5E4"/>
<path fill-rule="evenodd" clip-rule="evenodd" d="M91.5861 241.333C90.3016 240.567 89.1269 240.427 88.2524 240.816L140.214 210.816C141.088 210.427 142.263 210.567 143.548 211.333L91.5861 241.333Z" fill="#8BC5E4"/>
<path fill-rule="evenodd" clip-rule="evenodd" d="M88.2525 240.816C87.3052 241.237 86.7104 242.278 86.7104 243.818L138.672 213.818C138.672 212.278 139.267 211.237 140.214 210.816L88.2525 240.816Z" fill="#8BC5E4"/>
<path fill-rule="evenodd" clip-rule="evenodd" d="M86.7104 243.818C86.7104 246.778 88.9102 250.438 91.5862 251.943L143.548 221.943C140.872 220.438 138.672 216.778 138.672 213.818L86.7104 243.818Z" fill="#8BC5E4"/>
<path fill-rule="evenodd" clip-rule="evenodd" d="M143.461 281.893C144.745 282.653 145.92 282.791 146.795 282.401L198.756 252.401C197.882 252.791 196.707 252.653 195.422 251.893L143.461 281.893Z" fill="#8BC5E4"/>
<path fill-rule="evenodd" clip-rule="evenodd" d="M146.795 282.401C147.742 281.978 148.337 280.937 148.337 279.398L200.299 249.398C200.299 250.937 199.704 251.978 198.756 252.401L146.795 282.401Z" fill="#8BC5E4"/>
<path fill-rule="evenodd" clip-rule="evenodd" d="M148.337 279.398C148.337 276.438 146.137 272.778 143.461 271.283L195.422 241.283C198.098 242.778 200.298 246.438 200.298 249.398L148.337 279.398Z" fill="#8BC5E4"/>
<path fill-rule="evenodd" clip-rule="evenodd" d="M162.99 274.248C165.95 275.956 168.652 276.231 170.662 275.302L222.624 245.302C220.614 246.231 217.911 245.956 214.952 244.248L162.99 274.248Z" fill="#8BC5E4"/>
<path fill-rule="evenodd" clip-rule="evenodd" d="M170.662 275.302C172.84 274.297 174.205 271.879 174.205 268.343L226.166 238.343C226.166 241.879 224.801 244.297 222.624 245.302L170.662 275.302Z" fill="#8BC5E4"/>
<path fill-rule="evenodd" clip-rule="evenodd" d="M174.205 210.873C174.205 204.063 169.156 195.568 162.99 192.008L214.952 162.008C221.118 165.568 226.167 174.063 226.167 180.873L174.205 210.873Z" fill="#8BC5E4"/>
<path fill-rule="evenodd" clip-rule="evenodd" d="M114.077 163.768C112.371 159.613 110.405 155.328 108.17 151.018L160.132 121.018C162.366 125.328 164.332 129.613 166.038 133.768L114.077 163.768Z" fill="#8BC5E4"/>
<path fill-rule="evenodd" clip-rule="evenodd" d="M108.171 151.018C101.762 138.668 93.0671 126.048 82.0513 115.388L134.013 85.3876C145.029 96.0476 153.724 108.668 160.132 121.018L108.171 151.018Z" fill="#8BC5E4"/>
<path fill-rule="evenodd" clip-rule="evenodd" d="M82.0513 115.388C83.4397 115.084 84.7509 114.624 85.9742 114.014L137.936 84.0135C136.712 84.6237 135.401 85.0836 134.013 85.3876L82.0513 115.388Z" fill="#8BC5E4"/>
<path fill-rule="evenodd" clip-rule="evenodd" d="M85.9741 114.014C92.3962 110.81 96.3926 103.466 96.3926 92.7976L148.354 62.7976C148.354 73.4656 144.358 80.8102 137.936 84.0135L85.9741 114.014Z" fill="#8BC5E4"/>
<path fill-rule="evenodd" clip-rule="evenodd" d="M96.3926 92.7976C96.3926 71.8276 80.9427 45.8376 61.9595 34.8776L113.921 4.87756C132.904 15.8376 148.354 41.8276 148.354 62.7976L96.3926 92.7976Z" fill="#8BC5E4"/>
<path fill-rule="evenodd" clip-rule="evenodd" d="M61.9595 41.2476C77.8251 50.4076 90.6336 71.9426 90.6336 89.4726L142.595 59.4726C142.595 41.9426 129.787 20.4076 113.921 11.2476L61.9595 41.2476Z" fill="#8BC5E4"/>
<path fill-rule="evenodd" clip-rule="evenodd" d="M90.6337 89.4727C90.6337 97.8871 87.6826 103.819 82.8589 106.7L134.82 76.6997C139.644 73.8189 142.595 67.8871 142.595 59.4727L90.6337 89.4727Z" fill="#8BC5E4"/>
<path fill-rule="evenodd" clip-rule="evenodd" d="M82.8588 106.7C77.633 109.821 70.2096 109.361 61.9595 104.598L113.921 74.5977C122.171 79.3609 129.595 79.8206 134.82 76.6997L82.8588 106.7Z" fill="#8BC5E4"/>
<path fill-rule="evenodd" clip-rule="evenodd" d="M61.9596 104.598C46.0854 95.4327 33.2769 73.8877 33.2769 56.3577L85.2384 26.3577C85.2384 43.8877 98.0469 65.4327 113.921 74.5977L61.9596 104.598Z" fill="#8BC5E4"/>
<path fill-rule="evenodd" clip-rule="evenodd" d="M33.2769 56.3576C33.2769 47.9432 36.2279 42.0136 41.0526 39.1357L93.0142 9.13574C88.1895 12.0136 85.2384 17.9432 85.2384 26.3576L33.2769 56.3576Z" fill="#8BC5E4"/>
<path fill-rule="evenodd" clip-rule="evenodd" d="M41.0527 39.1358C46.2795 36.0181 53.7051 36.4818 61.9597 41.2476L113.921 11.2476C105.667 6.48184 98.241 6.0181 93.0143 9.13582L41.0527 39.1358Z" fill="#8BC5E4"/>
<path fill-rule="evenodd" clip-rule="evenodd" d="M47.3843 98.9626C51.8097 103.818 56.7547 107.953 61.9595 110.958L113.921 80.9576C108.716 77.9526 103.771 73.8176 99.3458 68.9626L47.3843 98.9626Z" fill="#8BC5E4"/>
<path fill-rule="evenodd" clip-rule="evenodd" d="M61.9595 110.958C67.1383 113.948 72.0487 115.513 76.4654 115.783L128.427 85.7826C124.01 85.5126 119.1 83.9476 113.921 80.9576L61.9595 110.958Z" fill="#8BC5E4"/>
<path fill-rule="evenodd" clip-rule="evenodd" d="M76.4653 115.783C88.5377 126.263 97.7349 139.293 104.447 152.228L156.408 122.228C149.696 109.293 140.499 96.2626 128.427 85.7826L76.4653 115.783Z" fill="#8BC5E4"/>
<path fill-rule="evenodd" clip-rule="evenodd" d="M104.447 152.228C105.884 154.998 107.201 157.768 108.396 160.488L160.357 130.488C159.162 127.768 157.846 124.998 156.408 122.228L104.447 152.228Z" fill="#8BC5E4"/>
<path fill-rule="evenodd" clip-rule="evenodd" d="M72.0574 139.508C69.0977 137.799 66.3954 137.524 64.3853 138.454L116.347 108.454C118.357 107.524 121.059 107.799 124.019 109.508L72.0574 139.508Z" fill="#8BC5E4"/>
<path fill-rule="evenodd" clip-rule="evenodd" d="M64.3851 138.454C62.2075 139.461 60.8423 141.881 60.8423 145.423L112.804 115.423C112.804 111.881 114.169 109.461 116.347 108.454L64.3851 138.454Z" fill="#8BC5E4"/>
<path fill-rule="evenodd" clip-rule="evenodd" d="M5.80664 138.068C5.80664 121.382 11.3 107.882 21.3795 101.407L73.341 71.407C63.2615 77.8816 57.7682 91.3816 57.7682 108.068L5.80664 138.068Z" fill="#8BC5E4"/>
<path fill-rule="evenodd" clip-rule="evenodd" d="M21.3794 101.407C28.0991 97.0906 36.857 95.8966 47.3844 98.9626L99.3459 68.9626C88.8185 65.8966 80.0606 67.0906 73.3409 71.407L21.3794 101.407Z" fill="#8BC5E4"/>
<path fill-rule="evenodd" clip-rule="evenodd" d="M162.99 198.378C166.065 200.153 168.446 204.158 168.446 207.548L220.408 177.548C220.408 174.158 218.026 170.153 214.952 168.378L162.99 198.378Z" fill="#8BC5E4"/>
<path fill-rule="evenodd" clip-rule="evenodd" d="M168.446 265.018C168.446 266.645 167.897 267.78 166.987 268.324L218.948 238.324C219.859 237.78 220.408 236.645 220.408 235.018L168.446 265.018Z" fill="#8BC5E4"/>
<path fill-rule="evenodd" clip-rule="evenodd" d="M166.987 268.324C166 268.914 164.589 268.811 162.99 267.888L214.952 237.888C216.55 238.811 217.962 238.914 218.948 238.324L166.987 268.324Z" fill="#8BC5E4"/>
<path fill-rule="evenodd" clip-rule="evenodd" d="M72.0572 215.388C68.9914 213.618 66.6099 209.613 66.6099 206.223L118.571 176.223C118.571 179.613 120.953 183.618 124.019 185.388L72.0572 215.388Z" fill="#8BC5E4"/>
<path fill-rule="evenodd" clip-rule="evenodd" d="M66.6099 148.753C66.6099 147.125 67.1586 145.99 68.0683 145.445L120.03 115.445C119.12 115.99 118.571 117.125 118.571 118.753L66.6099 148.753Z" fill="#8BC5E4"/>
<path fill-rule="evenodd" clip-rule="evenodd" d="M68.0684 145.445C69.0539 144.855 70.4631 144.957 72.0572 145.878L124.019 115.878C122.425 114.957 121.015 114.855 120.03 115.445L68.0684 145.445Z" fill="#8BC5E4"/>
<path d="M61.9595 41.2476C77.8251 50.4076 90.6336 71.9426 90.6336 89.4726C90.6336 107.003 77.8251 113.758 61.9595 104.598C46.0853 95.4326 33.2768 73.8876 33.2768 56.3576C33.2768 38.8276 46.0853 32.0826 61.9595 41.2476Z" fill="white"/>
<path d="M47.3843 98.9626C51.8097 103.818 56.7547 107.953 61.9595 110.958C67.1384 113.948 72.0487 115.513 76.4655 115.783C88.5378 126.263 97.735 139.293 104.447 152.228C105.884 154.998 107.201 157.768 108.396 160.488L72.0574 139.508C65.8913 135.948 60.8424 138.613 60.8424 145.423V187.733L5.80644 155.958V138.068C5.80644 110.258 21.0658 91.2976 47.3843 98.9626Z" fill="white"/>
<path fill-rule="evenodd" clip-rule="evenodd" d="M72.0574 145.878L162.99 198.378C166.064 200.153 168.446 204.158 168.446 207.548V265.018C168.446 268.408 166.064 269.663 162.99 267.888L72.0574 215.388C68.9917 213.618 66.6101 209.613 66.6101 206.223V148.753C66.6101 145.363 68.9917 144.108 72.0574 145.878ZM74.4909 209.863V153.973L160.565 203.668V259.558L74.4909 209.863Z" fill="white"/>
<path fill-rule="evenodd" clip-rule="evenodd" d="M27.5177 53.0326C27.5177 32.0626 42.9676 23.9126 61.9595 34.8776C80.9428 45.8376 96.3927 71.8276 96.3927 92.7976C96.3927 105.498 90.7289 113.488 82.0513 115.388C93.0672 126.048 101.762 138.668 108.171 151.018C110.405 155.328 112.371 159.613 114.077 163.768L162.99 192.008C169.156 195.568 174.205 204.063 174.205 210.873V268.343C174.205 275.143 169.156 277.808 162.99 274.248L128.141 254.128V262.438L106.906 250.178V241.868L72.0574 221.748C65.8913 218.188 60.8424 209.693 60.8424 202.893V193.043L3.39889 159.878L1 158.493V135.293C1 106.913 16.0515 87.1226 41.7898 92.0926C33.1469 80.1826 27.5177 65.6926 27.5177 53.0326ZM90.6336 89.4726C90.6336 71.9426 77.8251 50.4076 61.9595 41.2476C46.0853 32.0826 33.2768 38.8276 33.2768 56.3576C33.2768 73.8876 46.0853 95.4326 61.9595 104.598C77.8251 113.758 90.6336 107.003 90.6336 89.4726ZM61.9595 110.958C56.7547 107.953 51.8097 103.818 47.3843 98.9626C21.0658 91.2976 5.80644 110.258 5.80644 138.068V155.958L60.8424 187.733V145.423C60.8424 138.613 65.8913 135.948 72.0574 139.508L108.396 160.488C107.201 157.768 105.884 154.998 104.447 152.228C97.735 139.293 88.5378 126.263 76.4655 115.783C72.0487 115.513 67.1384 113.948 61.9595 110.958ZM162.99 198.378L72.0574 145.878C68.9917 144.108 66.6101 145.363 66.6101 148.753V206.223C66.6101 209.613 68.9917 213.618 72.0574 215.388L162.99 267.888C166.064 269.663 168.446 268.408 168.446 265.018V207.548C168.446 204.158 166.064 200.153 162.99 198.378ZM74.4909 209.863V153.973L160.565 203.668V259.558L74.4909 209.863Z" fill="#8BC5E4"/>
<path d="M106.906 250.178L91.5863 241.333C88.9102 239.738 86.7105 240.858 86.7105 243.818C86.7105 246.778 88.9102 250.438 91.5863 251.943L143.461 281.893C146.137 283.478 148.337 282.358 148.337 279.398C148.337 276.438 146.137 272.778 143.461 271.283L128.141 262.438L106.906 250.178Z" fill="white"/>
<path d="M106.906 250.178V241.868L72.0574 221.748C65.8913 218.188 60.8424 209.693 60.8424 202.893V193.043L3.39889 159.878L1 158.493V135.293C1 106.913 16.0515 87.1226 41.7898 92.0926C33.1469 80.1826 27.5177 65.6926 27.5177 53.0326C27.5177 32.0626 42.9676 23.9126 61.9595 34.8776C80.9428 45.8376 96.3927 71.8276 96.3927 92.7976C96.3927 105.498 90.7289 113.488 82.0513 115.388C93.0672 126.048 101.762 138.668 108.171 151.018C110.405 155.328 112.371 159.613 114.077 163.768L162.99 192.008C169.156 195.568 174.205 204.063 174.205 210.873V268.343C174.205 275.143 169.156 277.808 162.99 274.248L128.141 254.128V262.438M106.906 250.178L91.5863 241.333C88.9102 239.738 86.7105 240.858 86.7105 243.818C86.7105 246.778 88.9102 250.438 91.5863 251.943L143.461 281.893C146.137 283.478 148.337 282.358 148.337 279.398C148.337 276.438 146.137 272.778 143.461 271.283L128.141 262.438M106.906 250.178L128.141 262.438M61.9595 41.2476C77.8251 50.4076 90.6336 71.9426 90.6336 89.4726C90.6336 107.003 77.8251 113.758 61.9595 104.598C46.0853 95.4326 33.2768 73.8876 33.2768 56.3576C33.2768 38.8276 46.0853 32.0826 61.9595 41.2476ZM47.3843 98.9626C51.8097 103.818 56.7547 107.953 61.9595 110.958C67.1384 113.948 72.0487 115.513 76.4655 115.783C88.5378 126.263 97.735 139.293 104.447 152.228C105.884 154.998 107.201 157.768 108.396 160.488L72.0574 139.508C65.8913 135.948 60.8424 138.613 60.8424 145.423V187.733L5.80644 155.958V138.068C5.80644 110.258 21.0658 91.2976 47.3843 98.9626ZM72.0574 145.878L162.99 198.378C166.064 200.153 168.446 204.158 168.446 207.548V265.018C168.446 268.408 166.064 269.663 162.99 267.888L72.0574 215.388C68.9917 213.618 66.6101 209.613 66.6101 206.223V148.753C66.6101 145.363 68.9917 144.108 72.0574 145.878ZM74.4909 153.973V209.863L160.565 259.558V203.668L74.4909 153.973Z" stroke="#8BC5E4"/>
</svg>
