<svg width="227" height="258" viewBox="0 0 227 258" fill="none" xmlns="http://www.w3.org/2000/svg">
<path fill-rule="evenodd" clip-rule="evenodd" d="M21.2651 52.859L152.858 128.834L204.819 98.834L73.2267 22.859L21.2651 52.859Z" fill="#8BC5E4"/>
<path fill-rule="evenodd" clip-rule="evenodd" d="M152.857 128.834V215.194L204.819 185.194V98.834L152.857 128.834Z" fill="#8BC5E4"/>
<path fill-rule="evenodd" clip-rule="evenodd" d="M152.858 215.194L21.2651 139.219L73.2267 109.219L204.819 185.194L152.858 215.194Z" fill="#8BC5E4"/>
<path fill-rule="evenodd" clip-rule="evenodd" d="M21.2651 139.219V52.859L73.2267 22.859V109.219L21.2651 139.219Z" fill="#8BC5E4"/>
<path fill-rule="evenodd" clip-rule="evenodd" d="M21.2651 52.859L73.2267 22.859L21.2651 52.859Z" fill="#8BC5E4"/>
<path fill-rule="evenodd" clip-rule="evenodd" d="M18.1646 40.489L157.023 120.659L208.985 90.659L70.1261 10.489L18.1646 40.489Z" fill="#8BC5E4"/>
<path fill-rule="evenodd" clip-rule="evenodd" d="M166.757 136.719V224.349L218.719 194.349V106.719L166.757 136.719Z" fill="#8BC5E4"/>
<path fill-rule="evenodd" clip-rule="evenodd" d="M157.023 229.189L18.1646 149.019L70.1261 119.019L208.985 199.189L157.023 229.189Z" fill="#8BC5E4"/>
<path fill-rule="evenodd" clip-rule="evenodd" d="M8.44775 132.949V45.319L60.4093 15.319V102.949L8.44775 132.949Z" fill="#8BC5E4"/>
<path fill-rule="evenodd" clip-rule="evenodd" d="M18.1646 40.489L70.1261 10.489L18.1646 40.489Z" fill="#8BC5E4"/>
<path fill-rule="evenodd" clip-rule="evenodd" d="M1 41.0189V128.649L52.9615 98.6489V11.0189L1 41.0189Z" fill="#8BC5E4"/>
<path fill-rule="evenodd" clip-rule="evenodd" d="M18.1646 157.019L72.1786 188.204L124.14 158.204L70.1261 127.019L18.1646 157.019Z" fill="#8BC5E4"/>
<path fill-rule="evenodd" clip-rule="evenodd" d="M72.1787 188.204V206.464L124.14 176.464V158.204L72.1787 188.204Z" fill="#8BC5E4"/>
<path fill-rule="evenodd" clip-rule="evenodd" d="M72.1787 206.464L46.3711 191.564L98.3326 161.564L124.14 176.464L72.1787 206.464Z" fill="#8BC5E4"/>
<path fill-rule="evenodd" clip-rule="evenodd" d="M46.3711 208.714L128.02 255.854L179.981 225.854L98.3326 178.714L46.3711 208.714Z" fill="#8BC5E4"/>
<path fill-rule="evenodd" clip-rule="evenodd" d="M128.02 238.704L105.754 225.849L157.716 195.849L179.981 208.704L128.02 238.704Z" fill="#8BC5E4"/>
<path fill-rule="evenodd" clip-rule="evenodd" d="M105.754 225.849V207.589L157.716 177.589V195.849L105.754 225.849Z" fill="#8BC5E4"/>
<path fill-rule="evenodd" clip-rule="evenodd" d="M105.754 207.589L157.023 237.189L208.985 207.189L157.716 177.589L105.754 207.589Z" fill="#8BC5E4"/>
<path fill-rule="evenodd" clip-rule="evenodd" d="M174.205 228.649V141.019L226.167 111.019V198.649L174.205 228.649Z" fill="#8BC5E4"/>
<path fill-rule="evenodd" clip-rule="evenodd" d="M157.023 112.649L18.1646 32.479L70.1261 2.479L208.985 82.649L157.023 112.649Z" fill="#8BC5E4"/>
<path fill-rule="evenodd" clip-rule="evenodd" d="M18.1646 32.479L70.1261 2.479L18.1646 32.479Z" fill="#8BC5E4"/>
<path fill-rule="evenodd" clip-rule="evenodd" d="M157.023 120.659C162.479 123.809 166.757 130.859 166.757 136.719L218.719 106.719C218.719 100.859 214.44 93.8089 208.984 90.6589L157.023 120.659Z" fill="#8BC5E4"/>
<path fill-rule="evenodd" clip-rule="evenodd" d="M166.757 224.349C166.757 226.927 165.929 228.784 164.537 229.786L216.498 199.786C217.891 198.784 218.719 196.927 218.719 194.349L166.757 224.349Z" fill="#8BC5E4"/>
<path fill-rule="evenodd" clip-rule="evenodd" d="M164.536 229.786C162.764 231.061 160.078 230.953 157.023 229.189L208.984 199.189C212.04 200.953 214.726 201.061 216.498 199.786L164.536 229.786Z" fill="#8BC5E4"/>
<path fill-rule="evenodd" clip-rule="evenodd" d="M18.1646 149.019C12.7173 145.874 8.44775 138.809 8.44775 132.949L60.4093 102.949C60.4093 108.809 64.6788 115.874 70.1261 119.019L18.1646 149.019Z" fill="#8BC5E4"/>
<path fill-rule="evenodd" clip-rule="evenodd" d="M8.44775 45.319C8.44775 42.7406 9.27433 40.8872 10.6641 39.8879L62.6256 9.88794C61.2359 10.8872 60.4093 12.7406 60.4093 15.319L8.44775 45.319Z" fill="#8BC5E4"/>
<path fill-rule="evenodd" clip-rule="evenodd" d="M10.6641 39.8879C12.4329 38.6161 15.114 38.7277 18.1645 40.4889L70.126 10.4889C67.0755 8.72774 64.3944 8.61608 62.6256 9.88789L10.6641 39.8879Z" fill="#8BC5E4"/>
<path fill-rule="evenodd" clip-rule="evenodd" d="M18.1646 32.479C13.256 29.645 8.81103 29.323 5.6748 31.0941L57.6363 1.09406C60.7726 -0.676965 65.2175 -0.354981 70.1262 2.47902L18.1646 32.479Z" fill="#8BC5E4"/>
<path fill-rule="evenodd" clip-rule="evenodd" d="M5.6748 31.094C2.77983 32.7288 1 36.147 1 41.019L52.9615 11.019C52.9615 6.14696 54.7414 2.72878 57.6363 1.09399L5.6748 31.094Z" fill="#8BC5E4"/>
<path fill-rule="evenodd" clip-rule="evenodd" d="M1 128.649C1 138.809 8.72495 151.569 18.1646 157.019L70.1261 127.019C60.6865 121.569 52.9615 108.809 52.9615 98.6489L1 128.649Z" fill="#8BC5E4"/>
<path fill-rule="evenodd" clip-rule="evenodd" d="M46.3711 191.564C44.0789 190.241 42.0139 190.087 40.5596 190.91L92.5211 160.91C93.9754 160.087 96.0405 160.241 98.3327 161.564L46.3711 191.564Z" fill="#8BC5E4"/>
<path fill-rule="evenodd" clip-rule="evenodd" d="M40.5595 190.91C39.2171 191.671 38.395 193.264 38.395 195.539L90.3565 165.539C90.3565 163.264 91.1786 161.671 92.5211 160.91L40.5595 190.91Z" fill="#8BC5E4"/>
<path fill-rule="evenodd" clip-rule="evenodd" d="M38.395 195.539C38.395 200.269 41.963 206.169 46.3711 208.714L98.3326 178.714C93.9246 176.169 90.3565 170.269 90.3565 165.539L38.395 195.539Z" fill="#8BC5E4"/>
<path fill-rule="evenodd" clip-rule="evenodd" d="M128.02 255.854C130.312 257.177 132.38 257.333 133.836 256.512L185.798 226.512C184.341 227.333 182.274 227.177 179.982 225.854L128.02 255.854Z" fill="#8BC5E4"/>
<path fill-rule="evenodd" clip-rule="evenodd" d="M133.836 256.512C135.18 255.754 136.005 254.164 136.005 251.894L187.966 221.894C187.966 224.164 187.142 225.754 185.797 226.512L133.836 256.512Z" fill="#8BC5E4"/>
<path fill-rule="evenodd" clip-rule="evenodd" d="M136.005 251.894C136.005 247.154 132.428 241.249 128.02 238.704L179.982 208.704C184.39 211.249 187.966 217.154 187.966 221.894L136.005 251.894Z" fill="#8BC5E4"/>
<path fill-rule="evenodd" clip-rule="evenodd" d="M157.023 237.189C161.941 240.028 166.39 240.353 169.528 238.581L221.49 208.581C218.351 210.353 213.902 210.028 208.984 207.189L157.023 237.189Z" fill="#8BC5E4"/>
<path fill-rule="evenodd" clip-rule="evenodd" d="M169.528 238.581C172.425 236.946 174.205 233.526 174.205 228.649L226.167 198.649C226.167 203.526 224.387 206.946 221.49 208.581L169.528 238.581Z" fill="#8BC5E4"/>
<path fill-rule="evenodd" clip-rule="evenodd" d="M174.205 141.019C174.205 130.869 166.48 118.109 157.023 112.649L208.984 82.6489C218.441 88.1089 226.166 100.869 226.166 111.019L174.205 141.019Z" fill="#8BC5E4"/>
<path fill-rule="evenodd" clip-rule="evenodd" d="M18.1646 40.489L157.023 120.659C162.479 123.809 166.757 130.859 166.757 136.719V224.349C166.757 230.209 162.479 232.339 157.023 229.189L18.1646 149.019C12.7173 145.874 8.44782 138.809 8.44782 132.949V45.319C8.44782 39.459 12.7173 37.344 18.1646 40.489ZM152.858 128.834L21.265 52.859V139.219L152.858 215.194V128.834Z" fill="white"/>
<path fill-rule="evenodd" clip-rule="evenodd" d="M152.858 128.834L21.265 52.859V139.219L152.858 215.194V128.834ZM157.023 120.659L18.1646 40.489C12.7173 37.344 8.44782 39.459 8.44782 45.319V132.949C8.44782 138.809 12.7173 145.874 18.1646 149.019L157.023 229.189C162.479 232.339 166.757 230.209 166.757 224.349V136.719C166.757 130.859 162.479 123.809 157.023 120.659ZM1 41.019C1 30.869 8.72495 27.029 18.1646 32.479L157.023 112.649C166.48 118.109 174.205 130.869 174.205 141.019V228.649C174.205 238.809 166.48 242.649 157.023 237.189L105.754 207.589L72.1786 188.204L18.1646 157.019C8.72495 151.569 1 138.809 1 128.649V41.019Z" fill="#8BC5E4"/>
<path d="M72.1786 188.204V206.464L46.3711 191.564C41.963 189.019 38.395 190.799 38.395 195.539C38.395 200.269 41.963 206.169 46.3711 208.714L128.02 255.854C132.428 258.399 136.005 256.624 136.005 251.894C136.005 247.154 132.428 241.249 128.02 238.704L105.754 225.849V207.589L72.1786 188.204Z" fill="white"/>
<path d="M72.1786 188.204L18.1646 157.019C8.72495 151.569 1 138.809 1 128.649V41.019C1 30.869 8.72495 27.029 18.1646 32.479L157.023 112.649C166.48 118.109 174.205 130.869 174.205 141.019V228.649C174.205 238.809 166.48 242.649 157.023 237.189L105.754 207.589M72.1786 188.204V206.464L46.3711 191.564C41.963 189.019 38.395 190.799 38.395 195.539C38.395 200.269 41.963 206.169 46.3711 208.714L128.02 255.854C132.428 258.399 136.005 256.624 136.005 251.894C136.005 247.154 132.428 241.249 128.02 238.704L105.754 225.849V207.589M72.1786 188.204L105.754 207.589M21.265 52.859L152.858 128.834V215.194L21.265 139.219V52.859ZM18.1646 40.489L157.023 120.659C162.479 123.809 166.757 130.859 166.757 136.719V224.349C166.757 230.209 162.479 232.339 157.023 229.189L18.1646 149.019C12.7173 145.874 8.44782 138.809 8.44782 132.949V45.319C8.44782 39.459 12.7173 37.344 18.1646 40.489Z" stroke="#8BC5E4"/>
</svg>
