<svg width="226" height="259" viewBox="0 0 226 259" fill="none" xmlns="http://www.w3.org/2000/svg">
<path fill-rule="evenodd" clip-rule="evenodd" d="M72.2652 129.89L203.858 53.915L151.896 23.915L20.3037 99.89L72.2652 129.89Z" fill="#8BC5E4"/>
<path fill-rule="evenodd" clip-rule="evenodd" d="M203.858 53.915V140.275L151.896 110.275V23.915L203.858 53.915Z" fill="#8BC5E4"/>
<path fill-rule="evenodd" clip-rule="evenodd" d="M203.858 140.275L72.2652 216.25L20.3037 186.25L151.896 110.275L203.858 140.275Z" fill="#8BC5E4"/>
<path fill-rule="evenodd" clip-rule="evenodd" d="M72.2652 216.25V129.89L20.3037 99.89V186.25L72.2652 216.25Z" fill="#8BC5E4"/>
<path fill-rule="evenodd" clip-rule="evenodd" d="M72.2652 129.89L20.3037 99.89L72.2652 129.89Z" fill="#8BC5E4"/>
<path fill-rule="evenodd" clip-rule="evenodd" d="M69.1646 121.1L208.023 40.9301L156.062 10.9301L17.2031 91.1001L69.1646 121.1Z" fill="#8BC5E4"/>
<path fill-rule="evenodd" clip-rule="evenodd" d="M217.757 45.75V133.38L165.796 103.38V15.75L217.757 45.75Z" fill="#8BC5E4"/>
<path fill-rule="evenodd" clip-rule="evenodd" d="M208.023 149.46L69.1646 229.63L17.2031 199.63L156.062 119.46L208.023 149.46Z" fill="#8BC5E4"/>
<path fill-rule="evenodd" clip-rule="evenodd" d="M59.4479 224.78V137.15L7.48633 107.15V194.78L59.4479 224.78Z" fill="#8BC5E4"/>
<path fill-rule="evenodd" clip-rule="evenodd" d="M69.1646 121.1L17.2031 91.1L69.1646 121.1Z" fill="#8BC5E4"/>
<path fill-rule="evenodd" clip-rule="evenodd" d="M52.0001 141.45V229.08L0.0385742 199.08V111.45L52.0001 141.45Z" fill="#8BC5E4"/>
<path fill-rule="evenodd" clip-rule="evenodd" d="M69.1646 237.63L123.179 206.445L71.2171 176.445L17.2031 207.63L69.1646 237.63Z" fill="#8BC5E4"/>
<path fill-rule="evenodd" clip-rule="evenodd" d="M123.179 206.445V224.705L71.2173 194.705V176.445L123.179 206.445Z" fill="#8BC5E4"/>
<path fill-rule="evenodd" clip-rule="evenodd" d="M123.179 224.705L97.3712 239.605L45.4097 209.605L71.2172 194.705L123.179 224.705Z" fill="#8BC5E4"/>
<path fill-rule="evenodd" clip-rule="evenodd" d="M97.3712 256.755L179.02 209.615L127.059 179.615L45.4097 226.755L97.3712 256.755Z" fill="#8BC5E4"/>
<path fill-rule="evenodd" clip-rule="evenodd" d="M179.02 192.465L156.754 205.32L104.793 175.32L127.058 162.465L179.02 192.465Z" fill="#8BC5E4"/>
<path fill-rule="evenodd" clip-rule="evenodd" d="M156.754 205.32V187.06L104.793 157.06V175.32L156.754 205.32Z" fill="#8BC5E4"/>
<path fill-rule="evenodd" clip-rule="evenodd" d="M156.754 187.06L208.023 157.46L156.062 127.46L104.793 157.06L156.754 187.06Z" fill="#8BC5E4"/>
<path fill-rule="evenodd" clip-rule="evenodd" d="M225.205 129.08V41.45L173.244 11.45V99.08L225.205 129.08Z" fill="#8BC5E4"/>
<path fill-rule="evenodd" clip-rule="evenodd" d="M208.023 32.92L69.1646 113.09L17.2031 83.09L156.062 2.92004L208.023 32.92Z" fill="#8BC5E4"/>
<path fill-rule="evenodd" clip-rule="evenodd" d="M69.1646 113.09L17.2031 83.09L69.1646 113.09Z" fill="#8BC5E4"/>
<path fill-rule="evenodd" clip-rule="evenodd" d="M208.023 40.93C210.86 39.292 213.379 39.0763 215.143 40.0706L163.181 10.0706C161.417 9.07631 158.899 9.29201 156.062 10.93L208.023 40.93Z" fill="#8BC5E4"/>
<path fill-rule="evenodd" clip-rule="evenodd" d="M215.143 40.0706C216.772 40.9884 217.757 42.9372 217.757 45.75L165.796 15.75C165.796 12.9372 164.81 10.9884 163.182 10.0706L215.143 40.0706Z" fill="#8BC5E4"/>
<path fill-rule="evenodd" clip-rule="evenodd" d="M217.757 133.38C217.757 139.24 213.479 146.31 208.023 149.46L156.062 119.46C161.517 116.31 165.796 109.24 165.796 103.38L217.757 133.38Z" fill="#8BC5E4"/>
<path fill-rule="evenodd" clip-rule="evenodd" d="M69.1649 229.63C66.3323 231.265 63.8182 231.473 62.0572 230.472L10.0957 200.472C11.8566 201.473 14.3707 201.265 17.2033 199.63L69.1649 229.63Z" fill="#8BC5E4"/>
<path fill-rule="evenodd" clip-rule="evenodd" d="M62.057 230.472C60.4315 229.547 59.4479 227.593 59.4479 224.78L7.48633 194.78C7.48633 197.593 8.47002 199.547 10.0955 200.472L62.057 230.472Z" fill="#8BC5E4"/>
<path fill-rule="evenodd" clip-rule="evenodd" d="M59.4479 137.15C59.4479 131.29 63.7174 124.245 69.1647 121.1L17.2031 91.1C11.7558 94.245 7.48633 101.29 7.48633 107.15L59.4479 137.15Z" fill="#8BC5E4"/>
<path fill-rule="evenodd" clip-rule="evenodd" d="M69.1647 113.09C59.725 118.54 52.0001 131.3 52.0001 141.45L0.0385742 111.45C0.0385742 101.3 7.76352 88.54 17.2032 83.09L69.1647 113.09Z" fill="#8BC5E4"/>
<path fill-rule="evenodd" clip-rule="evenodd" d="M52.0001 229.08C52.0001 233.55 53.4956 236.797 55.9748 238.568L4.01325 208.568C1.53412 206.797 0.0385742 203.55 0.0385742 199.08L52.0001 229.08Z" fill="#8BC5E4"/>
<path fill-rule="evenodd" clip-rule="evenodd" d="M55.9747 238.568C59.13 240.821 63.8784 240.682 69.1647 237.63L17.2031 207.63C11.9169 210.682 7.16843 210.821 4.01318 208.568L55.9747 238.568Z" fill="#8BC5E4"/>
<path fill-rule="evenodd" clip-rule="evenodd" d="M97.3712 239.605C92.9631 242.15 89.3951 248.05 89.3951 252.79L37.4336 222.79C37.4336 218.05 41.0016 212.15 45.4097 209.605L97.3712 239.605Z" fill="#8BC5E4"/>
<path fill-rule="evenodd" clip-rule="evenodd" d="M89.3951 252.79C89.3951 254.871 90.0859 256.381 91.235 257.203L39.2735 227.203C38.1244 226.381 37.4336 224.871 37.4336 222.79L89.3951 252.79Z" fill="#8BC5E4"/>
<path fill-rule="evenodd" clip-rule="evenodd" d="M91.235 257.203C92.6975 258.249 94.9026 258.18 97.3711 256.755L45.4096 226.755C42.9411 228.18 40.736 228.249 39.2734 227.203L91.235 257.203Z" fill="#8BC5E4"/>
<path fill-rule="evenodd" clip-rule="evenodd" d="M179.02 209.615C183.428 207.07 187.005 201.165 187.005 196.435L135.043 166.435C135.043 171.165 131.467 177.07 127.059 179.615L179.02 209.615Z" fill="#8BC5E4"/>
<path fill-rule="evenodd" clip-rule="evenodd" d="M187.005 196.435C187.005 194.349 186.312 192.838 185.161 192.016L133.2 162.016C134.351 162.838 135.043 164.349 135.043 166.435L187.005 196.435Z" fill="#8BC5E4"/>
<path fill-rule="evenodd" clip-rule="evenodd" d="M185.161 192.016C183.696 190.969 181.489 191.04 179.02 192.465L127.059 162.465C129.527 161.04 131.735 160.969 133.2 162.016L185.161 192.016Z" fill="#8BC5E4"/>
<path fill-rule="evenodd" clip-rule="evenodd" d="M208.023 157.46C217.48 152 225.205 139.24 225.205 129.08L173.243 99.08C173.243 109.24 165.519 122 156.062 127.46L208.023 157.46Z" fill="#8BC5E4"/>
<path fill-rule="evenodd" clip-rule="evenodd" d="M225.205 41.45C225.205 36.984 223.71 33.7396 221.229 31.9716L169.268 1.97156C171.748 3.73963 173.244 6.98401 173.244 11.45L225.205 41.45Z" fill="#8BC5E4"/>
<path fill-rule="evenodd" clip-rule="evenodd" d="M221.229 31.9716C218.072 29.7213 213.319 29.8624 208.023 32.92L156.062 2.92004C161.357 -0.137558 166.11 -0.278677 169.267 1.97159L221.229 31.9716Z" fill="#8BC5E4"/>
<path fill-rule="evenodd" clip-rule="evenodd" d="M69.1646 121.1L208.023 40.93C213.479 37.78 217.757 39.89 217.757 45.75V133.38C217.757 139.24 213.479 146.31 208.023 149.46L69.1646 229.63C63.7173 232.775 59.4478 230.64 59.4478 224.78V137.15C59.4478 131.29 63.7173 124.245 69.1646 121.1ZM203.858 53.915L72.265 129.89V216.25L203.858 140.275V53.915Z" fill="white"/>
<path fill-rule="evenodd" clip-rule="evenodd" d="M203.858 53.915L72.265 129.89V216.25L203.858 140.275V53.915ZM208.023 40.93L69.1646 121.1C63.7173 124.245 59.4478 131.29 59.4478 137.15V224.78C59.4478 230.64 63.7173 232.775 69.1646 229.63L208.023 149.46C213.479 146.31 217.757 139.24 217.757 133.38V45.75C217.757 39.89 213.479 37.78 208.023 40.93ZM52 141.45C52 131.3 59.7249 118.54 69.1646 113.09L208.023 32.92C217.48 27.46 225.205 31.3 225.205 41.45V129.08C225.205 139.24 217.48 152 208.023 157.46L156.754 187.06L123.179 206.445L69.1646 237.63C59.7249 243.08 52 239.24 52 229.08V141.45Z" fill="#8BC5E4"/>
<path d="M123.179 206.445V224.705L97.3711 239.605C92.963 242.15 89.395 248.05 89.395 252.79C89.395 257.52 92.963 259.3 97.3711 256.755L179.02 209.615C183.428 207.07 187.005 201.165 187.005 196.435C187.005 191.695 183.428 189.92 179.02 192.465L156.754 205.32V187.06L123.179 206.445Z" fill="white"/>
<path d="M123.179 206.445L69.1646 237.63C59.7249 243.08 52 239.24 52 229.08V141.45C52 131.3 59.7249 118.54 69.1646 113.09L208.023 32.92C217.48 27.46 225.205 31.3 225.205 41.45V129.08C225.205 139.24 217.48 152 208.023 157.46L156.754 187.06M123.179 206.445V224.705L97.3711 239.605C92.963 242.15 89.395 248.05 89.395 252.79C89.395 257.52 92.963 259.3 97.3711 256.755L179.02 209.615C183.428 207.07 187.005 201.165 187.005 196.435C187.005 191.695 183.428 189.92 179.02 192.465L156.754 205.32V187.06M123.179 206.445L156.754 187.06M72.265 129.89L203.858 53.915V140.275L72.265 216.25V129.89ZM69.1646 121.1L208.023 40.93C213.479 37.78 217.757 39.89 217.757 45.75V133.38C217.757 139.24 213.479 146.31 208.023 149.46L69.1646 229.63C63.7173 232.775 59.4478 230.64 59.4478 224.78V137.15C59.4478 131.29 63.7173 124.245 69.1646 121.1Z" stroke="#8BC5E4"/>
</svg>
