<svg width="274" height="349" viewBox="0 0 274 349" fill="none" xmlns="http://www.w3.org/2000/svg">
<path fill-rule="evenodd" clip-rule="evenodd" d="M131.073 232.168L106.79 275.478L54.828 245.478L79.1114 202.168L131.073 232.168Z" fill="#8BC5E4"/>
<path fill-rule="evenodd" clip-rule="evenodd" d="M106.79 275.478L117.069 281.133L65.1078 251.133L54.828 245.478L106.79 275.478Z" fill="#8BC5E4"/>
<path fill-rule="evenodd" clip-rule="evenodd" d="M117.069 281.133L141.812 236.988L89.8501 206.988L65.1078 251.133L117.069 281.133Z" fill="#8BC5E4"/>
<path fill-rule="evenodd" clip-rule="evenodd" d="M164.424 131.043L112.462 101.043L164.424 131.043Z" fill="#8BC5E4"/>
<path fill-rule="evenodd" clip-rule="evenodd" d="M95.6352 182.028L78.1934 206.578L26.2319 176.578L43.6736 152.028L95.6352 182.028Z" fill="#8BC5E4"/>
<path fill-rule="evenodd" clip-rule="evenodd" d="M78.1934 206.578L95.6352 210.988L43.6736 180.988L26.2319 176.578L78.1934 206.578Z" fill="#8BC5E4"/>
<path fill-rule="evenodd" clip-rule="evenodd" d="M95.6352 210.988V201.128L43.6736 171.128V180.988L95.6352 210.988Z" fill="#8BC5E4"/>
<path fill-rule="evenodd" clip-rule="evenodd" d="M95.6352 201.128L115.649 189.573L63.6875 159.573L43.6736 171.128L95.6352 201.128Z" fill="#8BC5E4"/>
<path fill-rule="evenodd" clip-rule="evenodd" d="M115.649 189.573V180.323L63.6875 150.323V159.573L115.649 189.573Z" fill="#8BC5E4"/>
<path fill-rule="evenodd" clip-rule="evenodd" d="M115.649 180.323L95.6352 191.878L43.6736 161.878L63.6875 150.323L115.649 180.323Z" fill="#8BC5E4"/>
<path fill-rule="evenodd" clip-rule="evenodd" d="M95.6352 191.878V182.028L43.6736 152.028V161.878L95.6352 191.878Z" fill="#8BC5E4"/>
<path fill-rule="evenodd" clip-rule="evenodd" d="M95.6352 182.028L43.6736 152.028L95.6352 182.028Z" fill="#8BC5E4"/>
<path fill-rule="evenodd" clip-rule="evenodd" d="M231.272 103.718V113.568L179.31 83.5675V73.7175L231.272 103.718Z" fill="#8BC5E4"/>
<path fill-rule="evenodd" clip-rule="evenodd" d="M231.272 113.568L211.258 125.123L159.297 95.1225L179.31 83.5675L231.272 113.568Z" fill="#8BC5E4"/>
<path fill-rule="evenodd" clip-rule="evenodd" d="M211.258 125.123V134.373L159.297 104.373V95.1226L211.258 125.123Z" fill="#8BC5E4"/>
<path fill-rule="evenodd" clip-rule="evenodd" d="M211.258 134.373L231.272 122.818L179.31 92.8175L159.297 104.373L211.258 134.373Z" fill="#8BC5E4"/>
<path fill-rule="evenodd" clip-rule="evenodd" d="M231.272 122.818V132.678L179.31 102.678V92.8175L231.272 122.818Z" fill="#8BC5E4"/>
<path fill-rule="evenodd" clip-rule="evenodd" d="M231.272 132.678L248.714 108.128L196.752 78.1276L179.31 102.678L231.272 132.678Z" fill="#8BC5E4"/>
<path fill-rule="evenodd" clip-rule="evenodd" d="M248.714 108.128L231.272 103.718L179.31 73.7175L196.752 78.1275L248.714 108.128Z" fill="#8BC5E4"/>
<path fill-rule="evenodd" clip-rule="evenodd" d="M231.272 103.718L179.31 73.7175L231.272 103.718Z" fill="#8BC5E4"/>
<path fill-rule="evenodd" clip-rule="evenodd" d="M164.424 142.503L112.462 112.503L164.424 142.503Z" fill="#8BC5E4"/>
<path fill-rule="evenodd" clip-rule="evenodd" d="M153.572 170.578V181.288L101.611 151.288V140.578L153.572 170.578Z" fill="#8BC5E4"/>
<path fill-rule="evenodd" clip-rule="evenodd" d="M153.572 181.288L146.012 185.653L94.0503 155.653L101.611 151.288L153.572 181.288Z" fill="#8BC5E4"/>
<path fill-rule="evenodd" clip-rule="evenodd" d="M146.012 185.653V215.073L94.0503 185.073V155.653L146.012 185.653Z" fill="#8BC5E4"/>
<path fill-rule="evenodd" clip-rule="evenodd" d="M146.012 215.072L182.844 193.807L130.882 163.807L94.0503 185.072L146.012 215.072Z" fill="#8BC5E4"/>
<path fill-rule="evenodd" clip-rule="evenodd" d="M182.844 193.808V164.388L130.882 134.388V163.808L182.844 193.808Z" fill="#8BC5E4"/>
<path fill-rule="evenodd" clip-rule="evenodd" d="M182.844 164.388L176.392 168.113L124.43 138.113L130.882 134.388L182.844 164.388Z" fill="#8BC5E4"/>
<path fill-rule="evenodd" clip-rule="evenodd" d="M176.392 168.113V157.403L124.43 127.403V138.113L176.392 168.113Z" fill="#8BC5E4"/>
<path fill-rule="evenodd" clip-rule="evenodd" d="M164.978 150.853L113.016 120.853L164.978 150.853Z" fill="#8BC5E4"/>
<path fill-rule="evenodd" clip-rule="evenodd" d="M173.863 158.863V169.573L121.902 139.573V128.863L173.863 158.863Z" fill="#8BC5E4"/>
<path fill-rule="evenodd" clip-rule="evenodd" d="M173.863 169.573L156.101 179.828L104.139 149.828L121.902 139.573L173.863 169.573Z" fill="#8BC5E4"/>
<path fill-rule="evenodd" clip-rule="evenodd" d="M156.101 179.828V169.118L104.139 139.118V149.828L156.101 179.828Z" fill="#8BC5E4"/>
<path fill-rule="evenodd" clip-rule="evenodd" d="M164.978 153.812L113.016 123.812L164.978 153.812Z" fill="#8BC5E4"/>
<path fill-rule="evenodd" clip-rule="evenodd" d="M165.437 189.388V196.298L113.475 166.298V159.388L165.437 189.388Z" fill="#8BC5E4"/>
<path fill-rule="evenodd" clip-rule="evenodd" d="M165.437 196.298L163.41 197.468L111.449 167.468L113.475 166.298L165.437 196.298Z" fill="#8BC5E4"/>
<path fill-rule="evenodd" clip-rule="evenodd" d="M163.41 197.467V190.557L111.449 160.557V167.467L163.41 197.467Z" fill="#8BC5E4"/>
<path fill-rule="evenodd" clip-rule="evenodd" d="M164.424 184.253L112.462 154.253L164.424 184.253Z" fill="#8BC5E4"/>
<path fill-rule="evenodd" clip-rule="evenodd" d="M98.5363 232.533V242.383L46.5748 212.383V202.533L98.5363 232.533Z" fill="#8BC5E4"/>
<path fill-rule="evenodd" clip-rule="evenodd" d="M98.5363 242.383L78.5225 253.938L26.561 223.938L46.5748 212.383L98.5363 242.383Z" fill="#8BC5E4"/>
<path fill-rule="evenodd" clip-rule="evenodd" d="M78.5225 253.938V263.197L26.561 233.198V223.938L78.5225 253.938Z" fill="#8BC5E4"/>
<path fill-rule="evenodd" clip-rule="evenodd" d="M78.5225 263.198L98.5363 251.643L46.5748 221.643L26.561 233.198L78.5225 263.198Z" fill="#8BC5E4"/>
<path fill-rule="evenodd" clip-rule="evenodd" d="M98.5363 251.643V261.493L46.5748 231.493V221.643L98.5363 251.643Z" fill="#8BC5E4"/>
<path fill-rule="evenodd" clip-rule="evenodd" d="M98.5363 261.493L115.978 236.943L64.0166 206.943L46.5748 231.493L98.5363 261.493Z" fill="#8BC5E4"/>
<path fill-rule="evenodd" clip-rule="evenodd" d="M115.978 236.943L98.5363 232.533L46.5748 202.533L64.0166 206.943L115.978 236.943Z" fill="#8BC5E4"/>
<path fill-rule="evenodd" clip-rule="evenodd" d="M98.5363 232.533L46.5748 202.533L98.5363 232.533Z" fill="#8BC5E4"/>
<path fill-rule="evenodd" clip-rule="evenodd" d="M225.158 159.427L207.707 183.982L155.746 153.982L173.196 129.427L225.158 159.427Z" fill="#8BC5E4"/>
<path fill-rule="evenodd" clip-rule="evenodd" d="M207.707 183.983L225.158 188.388L173.196 158.388L155.746 153.983L207.707 183.983Z" fill="#8BC5E4"/>
<path fill-rule="evenodd" clip-rule="evenodd" d="M225.158 188.388V178.538L173.196 148.538V158.388L225.158 188.388Z" fill="#8BC5E4"/>
<path fill-rule="evenodd" clip-rule="evenodd" d="M225.158 178.538L245.163 166.988L193.202 136.988L173.196 148.538L225.158 178.538Z" fill="#8BC5E4"/>
<path fill-rule="evenodd" clip-rule="evenodd" d="M245.163 166.988V157.728L193.202 127.728V136.988L245.163 166.988Z" fill="#8BC5E4"/>
<path fill-rule="evenodd" clip-rule="evenodd" d="M245.163 157.728L225.158 169.278L173.196 139.278L193.202 127.728L245.163 157.728Z" fill="#8BC5E4"/>
<path fill-rule="evenodd" clip-rule="evenodd" d="M225.158 169.277V159.427L173.196 129.427V139.277L225.158 169.277Z" fill="#8BC5E4"/>
<path fill-rule="evenodd" clip-rule="evenodd" d="M225.158 159.427L173.196 129.427L225.158 159.427Z" fill="#8BC5E4"/>
<path fill-rule="evenodd" clip-rule="evenodd" d="M51.9615 165.573V341.143L0 311.143V135.573L51.9615 165.573Z" fill="#8BC5E4"/>
<path fill-rule="evenodd" clip-rule="evenodd" d="M62.4231 347.323L263.194 231.408L211.232 201.408L10.4616 317.323L62.4231 347.323Z" fill="#8BC5E4"/>
<path fill-rule="evenodd" clip-rule="evenodd" d="M273.664 213.143V37.5725L221.703 7.57251V183.143L273.664 213.143Z" fill="#8BC5E4"/>
<path fill-rule="evenodd" clip-rule="evenodd" d="M263.194 31.4076L62.4231 147.323L10.4616 117.323L211.232 1.40759L263.194 31.4076Z" fill="#8BC5E4"/>
<path fill-rule="evenodd" clip-rule="evenodd" d="M62.4231 147.323L10.4616 117.323L62.4231 147.323Z" fill="#8BC5E4"/>
<path fill-rule="evenodd" clip-rule="evenodd" d="M62.4231 152.842L263.194 36.9275L211.232 6.92749L10.4616 122.842L62.4231 152.842Z" fill="#8BC5E4"/>
<path fill-rule="evenodd" clip-rule="evenodd" d="M268.935 40.3025V215.872L216.974 185.872V10.3025L268.935 40.3025Z" fill="#8BC5E4"/>
<path fill-rule="evenodd" clip-rule="evenodd" d="M263.194 225.888L62.4231 341.803L10.4616 311.803L211.232 195.888L263.194 225.888Z" fill="#8BC5E4"/>
<path fill-rule="evenodd" clip-rule="evenodd" d="M56.69 338.413V162.843L4.72849 132.843V308.413L56.69 338.413Z" fill="#8BC5E4"/>
<path fill-rule="evenodd" clip-rule="evenodd" d="M62.4231 152.843L10.4616 122.843L62.4231 152.843Z" fill="#8BC5E4"/>
<path fill-rule="evenodd" clip-rule="evenodd" d="M164.424 131.043C140.72 144.728 121.399 178.433 121.399 206.093L69.4379 176.093C69.4379 148.433 88.7589 114.728 112.462 101.043L164.424 131.043Z" fill="#8BC5E4"/>
<path fill-rule="evenodd" clip-rule="evenodd" d="M121.399 206.093C121.399 218.083 125.028 227.008 131.073 232.168L79.1114 202.168C73.0665 197.008 69.4379 188.083 69.4379 176.093L121.399 206.093Z" fill="#8BC5E4"/>
<path fill-rule="evenodd" clip-rule="evenodd" d="M141.812 236.988C148.393 237.958 156.144 236.233 164.424 231.453L112.462 201.453C104.183 206.233 96.4319 207.958 89.8501 206.988L141.812 236.988Z" fill="#8BC5E4"/>
<path fill-rule="evenodd" clip-rule="evenodd" d="M164.424 231.453C188.135 217.763 207.456 184.068 207.456 156.408L155.495 126.408C155.495 154.068 136.174 187.763 112.462 201.453L164.424 231.453Z" fill="#8BC5E4"/>
<path fill-rule="evenodd" clip-rule="evenodd" d="M207.456 156.408C207.456 141.997 202.211 132.001 193.834 127.668L141.873 97.6676C150.25 102.001 155.495 111.997 155.495 126.408L207.456 156.408Z" fill="#8BC5E4"/>
<path fill-rule="evenodd" clip-rule="evenodd" d="M193.837 127.669C186.137 123.684 175.788 124.484 164.432 131.038L112.471 101.038C123.827 94.4835 134.176 93.6835 141.876 97.6685L193.837 127.669Z" fill="#8BC5E4"/>
<path fill-rule="evenodd" clip-rule="evenodd" d="M164.424 142.502C173.238 137.413 181.229 136.764 187.162 139.83L135.201 109.83C129.268 106.765 121.277 107.414 112.462 112.503L164.424 142.502Z" fill="#8BC5E4"/>
<path fill-rule="evenodd" clip-rule="evenodd" d="M187.16 139.828C193.613 143.161 197.633 150.886 197.635 162.069L145.674 132.069C145.672 120.886 141.652 113.161 135.199 109.828L187.16 139.828Z" fill="#8BC5E4"/>
<path fill-rule="evenodd" clip-rule="evenodd" d="M197.636 162.078C197.636 183.538 182.827 209.368 164.424 219.993L112.462 189.993C130.865 179.368 145.674 153.538 145.674 132.078L197.636 162.078Z" fill="#8BC5E4"/>
<path fill-rule="evenodd" clip-rule="evenodd" d="M164.424 219.993C155.612 225.08 147.624 225.727 141.692 222.662L89.731 192.662C95.663 195.727 103.651 195.08 112.462 189.993L164.424 219.993Z" fill="#8BC5E4"/>
<path fill-rule="evenodd" clip-rule="evenodd" d="M141.694 222.664C135.242 219.331 131.222 211.608 131.22 200.431L79.259 170.431C79.261 181.608 83.281 189.331 89.733 192.664L141.694 222.664Z" fill="#8BC5E4"/>
<path fill-rule="evenodd" clip-rule="evenodd" d="M131.22 200.423C131.22 178.953 146.029 153.123 164.424 142.503L112.462 112.503C94.0677 123.123 79.2586 148.953 79.2586 170.423L131.22 200.423Z" fill="#8BC5E4"/>
<path fill-rule="evenodd" clip-rule="evenodd" d="M164.978 150.853C157.729 155.038 153.572 164.398 153.572 170.578L101.611 140.578C101.611 134.398 105.768 125.038 113.016 120.853L164.978 150.853Z" fill="#8BC5E4"/>
<path fill-rule="evenodd" clip-rule="evenodd" d="M176.392 157.403C176.392 153.905 175.211 151.471 173.327 150.24L121.366 120.24C123.25 121.471 124.431 123.906 124.43 127.403L176.392 157.403Z" fill="#8BC5E4"/>
<path fill-rule="evenodd" clip-rule="evenodd" d="M173.329 150.24C171.211 148.855 168.203 148.992 164.982 150.85L113.021 120.85C116.242 118.992 119.25 118.855 121.368 120.24L173.329 150.24Z" fill="#8BC5E4"/>
<path fill-rule="evenodd" clip-rule="evenodd" d="M164.978 153.813C167.475 152.371 169.81 152.244 171.458 153.295L119.497 123.295C117.849 122.244 115.514 122.371 113.016 123.813L164.978 153.813Z" fill="#8BC5E4"/>
<path fill-rule="evenodd" clip-rule="evenodd" d="M171.465 153.299C172.937 154.242 173.861 156.127 173.863 158.855L121.902 128.855C121.9 126.127 120.976 124.242 119.504 123.299L171.465 153.299Z" fill="#8BC5E4"/>
<path fill-rule="evenodd" clip-rule="evenodd" d="M156.101 169.118C156.101 164.448 159.097 157.208 164.978 153.812L113.016 123.812C107.136 127.207 104.139 134.448 104.139 139.118L156.101 169.118Z" fill="#8BC5E4"/>
<path fill-rule="evenodd" clip-rule="evenodd" d="M164.424 184.253C165.096 183.865 165.71 183.812 166.168 184.043L114.207 154.043C113.749 153.812 113.135 153.865 112.462 154.253L164.424 184.253Z" fill="#8BC5E4"/>
<path fill-rule="evenodd" clip-rule="evenodd" d="M166.165 184.041C166.668 184.292 166.984 184.883 166.986 185.743L115.025 155.743C115.023 154.883 114.707 154.292 114.204 154.041L166.165 184.041Z" fill="#8BC5E4"/>
<path fill-rule="evenodd" clip-rule="evenodd" d="M166.987 185.753C166.987 186.943 166.372 188.378 165.437 189.388L113.475 159.388C114.411 158.378 115.025 156.943 115.025 155.753L166.987 185.753Z" fill="#8BC5E4"/>
<path fill-rule="evenodd" clip-rule="evenodd" d="M163.41 190.558C163.132 190.579 162.883 190.529 162.671 190.418L110.71 160.418C110.922 160.529 111.171 160.579 111.449 160.558L163.41 190.558Z" fill="#8BC5E4"/>
<path fill-rule="evenodd" clip-rule="evenodd" d="M162.672 190.418C162.17 190.156 161.87 189.549 161.868 188.715L109.907 158.715C109.909 159.549 110.209 160.156 110.711 160.418L162.672 190.418Z" fill="#8BC5E4"/>
<path fill-rule="evenodd" clip-rule="evenodd" d="M161.869 188.708C161.869 187.058 163.012 185.068 164.424 184.253L112.462 154.253C111.05 155.068 109.907 157.058 109.907 158.708L161.869 188.708Z" fill="#8BC5E4"/>
<path fill-rule="evenodd" clip-rule="evenodd" d="M62.4231 147.323C56.6727 150.643 51.9615 158.853 51.9615 165.573L0 135.573C0 128.853 4.7112 120.643 10.4616 117.323L62.4231 147.323Z" fill="#8BC5E4"/>
<path fill-rule="evenodd" clip-rule="evenodd" d="M51.9615 341.143C51.9615 344.641 53.2375 347.071 55.2725 348.129L3.311 318.129C1.276 317.071 0 314.641 0 311.143L51.9615 341.143Z" fill="#8BC5E4"/>
<path fill-rule="evenodd" clip-rule="evenodd" d="M55.2815 348.134C57.1535 349.103 59.6645 348.913 62.4145 347.328L10.453 317.328C7.70298 318.913 5.19198 319.103 3.31998 318.134L55.2815 348.134Z" fill="#8BC5E4"/>
<path fill-rule="evenodd" clip-rule="evenodd" d="M263.194 231.408C268.953 228.083 273.664 219.863 273.664 213.143L221.702 183.143C221.702 189.863 216.991 198.083 211.232 201.408L263.194 231.408Z" fill="#8BC5E4"/>
<path fill-rule="evenodd" clip-rule="evenodd" d="M273.664 37.5725C273.664 34.0685 272.382 31.6375 270.339 30.5865L218.378 0.586548C220.421 1.63755 221.703 4.06855 221.702 7.57255L273.664 37.5725Z" fill="#8BC5E4"/>
<path fill-rule="evenodd" clip-rule="evenodd" d="M270.343 30.5875C268.47 29.6215 265.956 29.8155 263.202 31.4025L211.241 1.40249C213.995 -0.184512 216.509 -0.378512 218.382 0.587488L270.343 30.5875Z" fill="#8BC5E4"/>
<path fill-rule="evenodd" clip-rule="evenodd" d="M263.194 36.9275C264.735 36.0375 266.116 35.9115 267.137 36.4335L215.176 6.43354C214.155 5.91154 212.774 6.03754 211.232 6.92754L263.194 36.9275Z" fill="#8BC5E4"/>
<path fill-rule="evenodd" clip-rule="evenodd" d="M267.135 36.4326C268.248 37.0006 268.934 38.3386 268.935 40.2966L216.974 10.2966C216.973 8.33862 216.287 7.00062 215.174 6.43262L267.135 36.4326Z" fill="#8BC5E4"/>
<path fill-rule="evenodd" clip-rule="evenodd" d="M268.935 215.873C268.935 219.633 266.415 224.028 263.194 225.888L211.232 195.888C214.454 194.028 216.974 189.633 216.974 185.873L268.935 215.873Z" fill="#8BC5E4"/>
<path fill-rule="evenodd" clip-rule="evenodd" d="M62.4231 341.802C60.8795 342.693 59.4955 342.813 58.4745 342.281L6.513 312.281C7.534 312.813 8.918 312.693 10.4616 311.802L62.4231 341.802Z" fill="#8BC5E4"/>
<path fill-rule="evenodd" clip-rule="evenodd" d="M58.4755 342.282C57.3715 341.707 56.6915 340.37 56.6905 338.419L4.729 308.419C4.73 310.37 5.41 311.707 6.514 312.282L58.4755 342.282Z" fill="#8BC5E4"/>
<path fill-rule="evenodd" clip-rule="evenodd" d="M56.69 162.843C56.69 159.083 59.2101 154.698 62.4231 152.843L10.4616 122.843C7.24858 124.698 4.72849 129.083 4.72849 132.843L56.69 162.843Z" fill="#8BC5E4"/>
<path fill-rule="evenodd" clip-rule="evenodd" d="M62.4231 152.843L263.194 36.9275C266.415 35.0675 268.935 36.5425 268.935 40.3025V215.873C268.935 219.633 266.415 224.028 263.194 225.888L62.4231 341.803C59.2101 343.658 56.69 342.173 56.69 338.413V162.843C56.69 159.083 59.2101 154.698 62.4231 152.843ZM121.399 206.093C121.399 178.433 140.72 144.728 164.424 131.043C188.135 117.353 207.456 128.748 207.456 156.408C207.456 184.068 188.135 217.763 164.424 231.453C156.144 236.233 148.393 237.958 141.812 236.988L117.069 281.133L106.79 275.478L131.073 232.168C125.028 227.008 121.399 218.083 121.399 206.093ZM78.1934 206.578L95.6351 182.028V191.878L115.649 180.323V189.573L95.6351 201.128V210.988L78.1934 206.578ZM231.272 113.568V103.718L248.714 108.128L231.272 132.678V122.818L211.258 134.373V125.123L231.272 113.568ZM98.5363 242.383V232.533L115.978 236.943L98.5363 261.493V251.643L78.5225 263.198V253.938L98.5363 242.383ZM207.707 183.983L225.158 159.428V169.278L245.163 157.728V166.988L225.158 178.538V188.388L207.707 183.983Z" fill="white"/>
<path fill-rule="evenodd" clip-rule="evenodd" d="M164.424 142.503C182.827 131.878 197.636 140.608 197.636 162.078C197.636 183.538 182.827 209.368 164.424 219.993C146.029 230.613 131.22 221.883 131.22 200.423C131.22 178.953 146.029 153.123 164.424 142.503ZM153.572 170.578C153.572 164.398 157.729 155.038 164.978 150.853C171.066 147.338 176.392 149.973 176.392 157.403V168.113L182.844 164.388V193.808L146.012 215.073V185.653L153.572 181.288V170.578Z" fill="white"/>
<path d="M164.978 153.813C169.715 151.078 173.863 153.073 173.863 158.863V169.573L156.101 179.828V169.118C156.101 164.448 159.097 157.208 164.978 153.813Z" fill="white"/>
<path fill-rule="evenodd" clip-rule="evenodd" d="M121.399 206.093C121.399 178.433 140.72 144.728 164.424 131.043C188.135 117.353 207.456 128.748 207.456 156.408C207.456 184.068 188.135 217.763 164.424 231.453C156.144 236.233 148.393 237.958 141.812 236.988L117.069 281.133L106.79 275.478L131.073 232.168C125.028 227.008 121.399 218.083 121.399 206.093ZM78.1934 206.578L95.6351 182.028V191.878L115.649 180.323V189.573L95.6351 201.128V210.988L78.1934 206.578ZM231.272 113.568V103.718L248.714 108.128L231.272 132.678V122.818L211.258 134.373V125.123L231.272 113.568ZM197.636 162.078C197.636 140.608 182.827 131.878 164.424 142.503C146.029 153.123 131.22 178.953 131.22 200.423C131.22 221.883 146.029 230.613 164.424 219.993C182.827 209.368 197.636 183.538 197.636 162.078ZM98.5363 242.383V232.533L115.978 236.943L98.5363 261.493V251.643L78.5225 263.198V253.938L98.5363 242.383ZM207.707 183.983L225.158 159.428V169.278L245.163 157.728V166.988L225.158 178.538V188.388L207.707 183.983ZM51.9615 165.573C51.9615 158.853 56.6727 150.643 62.4231 147.323L263.194 31.4075C268.953 28.0825 273.664 30.8525 273.664 37.5725V213.143C273.664 219.863 268.953 228.083 263.194 231.408L62.4231 347.323C56.6727 350.643 51.9615 347.863 51.9615 341.143V165.573ZM263.194 36.9275L62.4231 152.843C59.2101 154.698 56.69 159.083 56.69 162.843V338.413C56.69 342.173 59.2101 343.658 62.4231 341.803L263.194 225.888C266.415 224.028 268.935 219.633 268.935 215.873V40.3025C268.935 36.5425 266.415 35.0675 263.194 36.9275Z" fill="#8BC5E4"/>
<path d="M164.424 184.253C165.835 183.438 166.987 184.103 166.987 185.753C166.987 186.943 166.372 188.378 165.437 189.388V196.298L163.41 197.468V190.558C162.475 190.628 161.869 189.898 161.869 188.708C161.869 187.058 163.012 185.068 164.424 184.253Z" fill="white"/>
</svg>
