<svg width="274" height="349" viewBox="0 0 274 349" fill="none" xmlns="http://www.w3.org/2000/svg">
<path fill-rule="evenodd" clip-rule="evenodd" d="M134.927 143.78L106.417 160.24L54.4556 130.24L82.9651 113.78L134.927 143.78Z" fill="#8BC5E4"/>
<path fill-rule="evenodd" clip-rule="evenodd" d="M106.417 160.24V169.77L54.4556 139.77V130.24L106.417 160.24Z" fill="#8BC5E4"/>
<path fill-rule="evenodd" clip-rule="evenodd" d="M106.417 169.77L132.606 154.65L80.6442 124.65L54.4556 139.77L106.417 169.77Z" fill="#8BC5E4"/>
<path fill-rule="evenodd" clip-rule="evenodd" d="M178.739 163.285L197.566 175.055L145.605 145.055L126.777 133.285L178.739 163.285Z" fill="#8BC5E4"/>
<path fill-rule="evenodd" clip-rule="evenodd" d="M197.566 175.055L205.257 161.905L153.295 131.905L145.605 145.055L197.566 175.055Z" fill="#8BC5E4"/>
<path fill-rule="evenodd" clip-rule="evenodd" d="M205.257 161.905L186.767 150.35L134.805 120.35L153.295 131.905L205.257 161.905Z" fill="#8BC5E4"/>
<path fill-rule="evenodd" clip-rule="evenodd" d="M190.959 139.71L219.849 123.03L167.888 93.03L138.997 109.71L190.959 139.71Z" fill="#8BC5E4"/>
<path fill-rule="evenodd" clip-rule="evenodd" d="M219.849 123.03V113.51L167.888 83.51V93.03L219.849 123.03Z" fill="#8BC5E4"/>
<path fill-rule="evenodd" clip-rule="evenodd" d="M219.849 113.51L193.141 128.93L141.179 98.93L167.888 83.51L219.849 113.51Z" fill="#8BC5E4"/>
<path fill-rule="evenodd" clip-rule="evenodd" d="M162.847 106.44L110.886 76.4399L162.847 106.44Z" fill="#8BC5E4"/>
<path fill-rule="evenodd" clip-rule="evenodd" d="M186.836 132.57L158.664 148.835L106.703 118.835L134.875 102.57L186.836 132.57Z" fill="#8BC5E4"/>
<path fill-rule="evenodd" clip-rule="evenodd" d="M158.664 148.835V144.285L106.703 114.285V118.835L158.664 148.835Z" fill="#8BC5E4"/>
<path fill-rule="evenodd" clip-rule="evenodd" d="M158.665 144.285L146.263 160.755L94.3015 130.755L106.703 114.285L158.665 144.285Z" fill="#8BC5E4"/>
<path fill-rule="evenodd" clip-rule="evenodd" d="M146.263 160.755L158.665 162.915L106.703 132.915L94.3015 130.755L146.263 160.755Z" fill="#8BC5E4"/>
<path fill-rule="evenodd" clip-rule="evenodd" d="M158.664 162.915V158.355L106.703 128.355V132.915L158.664 162.915Z" fill="#8BC5E4"/>
<path fill-rule="evenodd" clip-rule="evenodd" d="M158.664 158.355L184.022 143.715L132.06 113.715L106.703 128.355L158.664 158.355Z" fill="#8BC5E4"/>
<path fill-rule="evenodd" clip-rule="evenodd" d="M138.928 151L167.602 134.445L115.64 104.445L86.9661 121L138.928 151Z" fill="#8BC5E4"/>
<path fill-rule="evenodd" clip-rule="evenodd" d="M167.602 134.445V139.005L115.64 109.005V104.445L167.602 134.445Z" fill="#8BC5E4"/>
<path fill-rule="evenodd" clip-rule="evenodd" d="M167.602 139.005L179.995 122.53L128.033 92.53L115.64 109.005L167.602 139.005Z" fill="#8BC5E4"/>
<path fill-rule="evenodd" clip-rule="evenodd" d="M179.995 122.53L167.602 120.365L115.64 90.365L128.033 92.53L179.995 122.53Z" fill="#8BC5E4"/>
<path fill-rule="evenodd" clip-rule="evenodd" d="M167.602 120.365V124.915L115.64 94.915V90.365L167.602 120.365Z" fill="#8BC5E4"/>
<path fill-rule="evenodd" clip-rule="evenodd" d="M167.602 124.915L141.924 139.74L89.9626 109.74L115.64 94.915L167.602 124.915Z" fill="#8BC5E4"/>
<path fill-rule="evenodd" clip-rule="evenodd" d="M162.847 113.74L110.886 83.74L162.847 113.74Z" fill="#8BC5E4"/>
<path fill-rule="evenodd" clip-rule="evenodd" d="M61.9986 259.185V268.375L10.0371 238.375V229.185L61.9986 259.185Z" fill="#8BC5E4"/>
<path fill-rule="evenodd" clip-rule="evenodd" d="M61.9986 268.375L81.3716 257.19L29.4101 227.19L10.0371 238.375L61.9986 268.375Z" fill="#8BC5E4"/>
<path fill-rule="evenodd" clip-rule="evenodd" d="M81.3717 257.19V280.99L29.4102 250.99V227.19L81.3717 257.19Z" fill="#8BC5E4"/>
<path fill-rule="evenodd" clip-rule="evenodd" d="M81.3716 280.99L61.9986 292.175L10.0371 262.175L29.4101 250.99L81.3716 280.99Z" fill="#8BC5E4"/>
<path fill-rule="evenodd" clip-rule="evenodd" d="M61.9986 292.175V301.375L10.0371 271.375V262.175L61.9986 292.175Z" fill="#8BC5E4"/>
<path fill-rule="evenodd" clip-rule="evenodd" d="M61.9986 301.375L120.62 267.53L68.6584 237.53L10.0371 271.375L61.9986 301.375Z" fill="#8BC5E4"/>
<path fill-rule="evenodd" clip-rule="evenodd" d="M120.62 267.53V291.33L68.6584 261.33V237.53L120.62 267.53Z" fill="#8BC5E4"/>
<path fill-rule="evenodd" clip-rule="evenodd" d="M120.62 291.33L61.9986 325.175L10.0371 295.175L68.6584 261.33L120.62 291.33Z" fill="#8BC5E4"/>
<path fill-rule="evenodd" clip-rule="evenodd" d="M61.9986 325.175V334.365L10.0371 304.365V295.175L61.9986 325.175Z" fill="#8BC5E4"/>
<path fill-rule="evenodd" clip-rule="evenodd" d="M61.9986 334.365L264.268 217.585L212.306 187.585L10.0371 304.365L61.9986 334.365Z" fill="#8BC5E4"/>
<path fill-rule="evenodd" clip-rule="evenodd" d="M264.268 217.585V208.395L212.306 178.395V187.585L264.268 217.585Z" fill="#8BC5E4"/>
<path fill-rule="evenodd" clip-rule="evenodd" d="M264.267 208.395L206.98 241.47L155.018 211.47L212.306 178.395L264.267 208.395Z" fill="#8BC5E4"/>
<path fill-rule="evenodd" clip-rule="evenodd" d="M206.98 241.47V217.67L155.018 187.67V211.47L206.98 241.47Z" fill="#8BC5E4"/>
<path fill-rule="evenodd" clip-rule="evenodd" d="M206.98 217.67L264.267 184.595L212.306 154.595L155.018 187.67L206.98 217.67Z" fill="#8BC5E4"/>
<path fill-rule="evenodd" clip-rule="evenodd" d="M264.268 184.595V175.395L212.306 145.395V154.595L264.268 184.595Z" fill="#8BC5E4"/>
<path fill-rule="evenodd" clip-rule="evenodd" d="M264.268 175.395L246.22 185.815L194.258 155.815L212.306 145.395L264.268 175.395Z" fill="#8BC5E4"/>
<path fill-rule="evenodd" clip-rule="evenodd" d="M246.22 185.815V162.015L194.258 132.015V155.815L246.22 185.815Z" fill="#8BC5E4"/>
<path fill-rule="evenodd" clip-rule="evenodd" d="M246.22 162.015L264.268 151.595L212.306 121.595L194.258 132.015L246.22 162.015Z" fill="#8BC5E4"/>
<path fill-rule="evenodd" clip-rule="evenodd" d="M264.268 151.595V142.405L212.306 112.405V121.595L264.268 151.595Z" fill="#8BC5E4"/>
<path fill-rule="evenodd" clip-rule="evenodd" d="M264.268 142.405L61.9986 259.185L10.0371 229.185L212.306 112.405L264.268 142.405Z" fill="#8BC5E4"/>
<path fill-rule="evenodd" clip-rule="evenodd" d="M61.9986 259.185L10.0371 229.185L61.9986 259.185Z" fill="#8BC5E4"/>
<path fill-rule="evenodd" clip-rule="evenodd" d="M89.2437 252.645L159.859 211.875L107.898 181.875L37.2822 222.645L89.2437 252.645Z" fill="#8BC5E4"/>
<path fill-rule="evenodd" clip-rule="evenodd" d="M159.859 211.875V235.675L107.898 205.675V181.875L159.859 211.875Z" fill="#8BC5E4"/>
<path fill-rule="evenodd" clip-rule="evenodd" d="M159.859 235.675L89.2437 276.445L37.2822 246.445L107.898 205.675L159.859 235.675Z" fill="#8BC5E4"/>
<path fill-rule="evenodd" clip-rule="evenodd" d="M89.2437 276.445V252.645L37.2822 222.645V246.445L89.2437 276.445Z" fill="#8BC5E4"/>
<path fill-rule="evenodd" clip-rule="evenodd" d="M89.2437 252.645L37.2822 222.645L89.2437 252.645Z" fill="#8BC5E4"/>
<path fill-rule="evenodd" clip-rule="evenodd" d="M167.74 207.325L238.347 166.56L186.386 136.56L115.779 177.325L167.74 207.325Z" fill="#8BC5E4"/>
<path fill-rule="evenodd" clip-rule="evenodd" d="M238.347 166.56V190.36L186.386 160.36V136.56L238.347 166.56Z" fill="#8BC5E4"/>
<path fill-rule="evenodd" clip-rule="evenodd" d="M238.347 190.36L167.74 231.125L115.779 201.125L186.386 160.36L238.347 190.36Z" fill="#8BC5E4"/>
<path fill-rule="evenodd" clip-rule="evenodd" d="M167.74 231.125V207.325L115.779 177.325V201.125L167.74 231.125Z" fill="#8BC5E4"/>
<path fill-rule="evenodd" clip-rule="evenodd" d="M167.74 207.325L115.779 177.325L167.74 207.325Z" fill="#8BC5E4"/>
<path fill-rule="evenodd" clip-rule="evenodd" d="M128.501 262.98L199.099 222.22L147.138 192.22L76.5393 232.98L128.501 262.98Z" fill="#8BC5E4"/>
<path fill-rule="evenodd" clip-rule="evenodd" d="M199.099 222.22V246.02L147.138 216.02V192.22L199.099 222.22Z" fill="#8BC5E4"/>
<path fill-rule="evenodd" clip-rule="evenodd" d="M199.099 246.02L128.501 286.78L76.5393 256.78L147.138 216.02L199.099 246.02Z" fill="#8BC5E4"/>
<path fill-rule="evenodd" clip-rule="evenodd" d="M128.501 286.78V262.98L76.5393 232.98V256.78L128.501 286.78Z" fill="#8BC5E4"/>
<path fill-rule="evenodd" clip-rule="evenodd" d="M128.501 262.98L76.5393 232.98L128.501 262.98Z" fill="#8BC5E4"/>
<path fill-rule="evenodd" clip-rule="evenodd" d="M51.9615 165.58V341.14L0 311.14V135.58L51.9615 165.58Z" fill="#8BC5E4"/>
<path fill-rule="evenodd" clip-rule="evenodd" d="M62.4317 347.315L263.194 231.405L211.232 201.405L10.4702 317.315L62.4317 347.315Z" fill="#8BC5E4"/>
<path fill-rule="evenodd" clip-rule="evenodd" d="M273.664 213.14V37.58L221.702 7.57996V183.14L273.664 213.14Z" fill="#8BC5E4"/>
<path fill-rule="evenodd" clip-rule="evenodd" d="M263.194 31.405L62.4317 147.315L10.4702 117.315L211.232 1.40503L263.194 31.405Z" fill="#8BC5E4"/>
<path fill-rule="evenodd" clip-rule="evenodd" d="M62.4317 147.315L10.4702 117.315L62.4317 147.315Z" fill="#8BC5E4"/>
<path fill-rule="evenodd" clip-rule="evenodd" d="M62.4317 152.825L263.194 36.9149L211.232 6.91492L10.4702 122.825L62.4317 152.825Z" fill="#8BC5E4"/>
<path fill-rule="evenodd" clip-rule="evenodd" d="M268.927 40.3149V215.875L216.965 185.875V10.3149L268.927 40.3149Z" fill="#8BC5E4"/>
<path fill-rule="evenodd" clip-rule="evenodd" d="M263.194 225.895L62.4317 341.805L10.4702 311.805L211.232 195.895L263.194 225.895Z" fill="#8BC5E4"/>
<path fill-rule="evenodd" clip-rule="evenodd" d="M56.69 338.41V162.85L4.72852 132.85V308.41L56.69 338.41Z" fill="#8BC5E4"/>
<path fill-rule="evenodd" clip-rule="evenodd" d="M62.4317 152.825L10.4702 122.825L62.4317 152.825Z" fill="#8BC5E4"/>
<path fill-rule="evenodd" clip-rule="evenodd" d="M162.847 106.44C150.411 113.62 139.681 128.555 134.927 143.78L82.9651 113.78C87.7196 98.5549 98.4496 83.6199 110.886 76.4399L162.847 106.44Z" fill="#8BC5E4"/>
<path fill-rule="evenodd" clip-rule="evenodd" d="M132.606 154.65C132.415 156.35 132.32 158.035 132.32 159.695L80.3584 129.695C80.3584 128.035 80.4536 126.35 80.6442 124.65L132.606 154.65Z" fill="#8BC5E4"/>
<path fill-rule="evenodd" clip-rule="evenodd" d="M132.32 159.695C132.319 169.917 136.038 177.007 141.981 180.079L90.0199 150.079C84.0769 147.007 80.3579 139.917 80.3584 129.695L132.32 159.695Z" fill="#8BC5E4"/>
<path fill-rule="evenodd" clip-rule="evenodd" d="M141.978 180.078C147.441 182.904 154.782 182.335 162.841 177.684L110.88 147.684C102.821 152.335 95.4798 152.904 90.0168 150.078L141.978 180.078Z" fill="#8BC5E4"/>
<path fill-rule="evenodd" clip-rule="evenodd" d="M162.847 177.68C168.658 174.325 174.097 169.275 178.739 163.285L126.777 133.285C122.135 139.275 116.697 144.325 110.886 147.68L162.847 177.68Z" fill="#8BC5E4"/>
<path fill-rule="evenodd" clip-rule="evenodd" d="M186.767 150.35C188.464 146.88 189.876 143.305 190.959 139.71L138.997 109.71C137.914 113.305 136.503 116.88 134.805 120.35L186.767 150.35Z" fill="#8BC5E4"/>
<path fill-rule="evenodd" clip-rule="evenodd" d="M193.141 128.93C193.297 127.42 193.375 125.915 193.375 124.445L141.413 94.4449C141.413 95.9149 141.335 97.4199 141.179 98.9299L193.141 128.93Z" fill="#8BC5E4"/>
<path fill-rule="evenodd" clip-rule="evenodd" d="M193.375 124.445C193.375 114.213 189.654 107.119 183.711 104.045L131.749 74.045C137.692 77.119 141.413 84.213 141.413 94.445L193.375 124.445Z" fill="#8BC5E4"/>
<path fill-rule="evenodd" clip-rule="evenodd" d="M183.712 104.046C178.249 101.219 170.907 101.788 162.853 106.436L110.892 76.436C118.946 71.788 126.288 71.219 131.751 74.046L183.712 104.046Z" fill="#8BC5E4"/>
<path fill-rule="evenodd" clip-rule="evenodd" d="M162.847 113.74C169.285 110.023 175.125 109.551 179.463 111.793L127.502 81.793C123.164 79.551 117.324 80.023 110.886 83.74L162.847 113.74Z" fill="#8BC5E4"/>
<path fill-rule="evenodd" clip-rule="evenodd" d="M179.475 111.799C184.185 114.24 187.12 119.884 187.122 128.049L135.161 98.049C135.159 89.884 132.224 84.24 127.514 81.799L179.475 111.799Z" fill="#8BC5E4"/>
<path fill-rule="evenodd" clip-rule="evenodd" d="M187.122 128.055C187.122 129.535 187.027 131.05 186.836 132.57L134.875 102.57C135.065 101.05 135.161 99.5349 135.161 98.0549L187.122 128.055Z" fill="#8BC5E4"/>
<path fill-rule="evenodd" clip-rule="evenodd" d="M184.022 143.715C179.882 154.735 171.966 165.125 162.847 170.39L110.886 140.39C120.005 135.125 127.92 124.735 132.06 113.715L184.022 143.715Z" fill="#8BC5E4"/>
<path fill-rule="evenodd" clip-rule="evenodd" d="M162.847 170.39C156.405 174.109 150.564 174.581 146.228 172.34L94.2668 142.34C98.6028 144.581 104.444 144.109 110.886 140.39L162.847 170.39Z" fill="#8BC5E4"/>
<path fill-rule="evenodd" clip-rule="evenodd" d="M146.229 172.341C141.512 169.904 138.574 164.258 138.572 156.091L86.6108 126.091C86.6128 134.258 89.5508 139.904 94.2678 142.341L146.229 172.341Z" fill="#8BC5E4"/>
<path fill-rule="evenodd" clip-rule="evenodd" d="M138.573 156.085C138.573 154.415 138.702 152.71 138.928 151L86.9661 121C86.741 122.71 86.6111 124.415 86.6111 126.085L138.573 156.085Z" fill="#8BC5E4"/>
<path fill-rule="evenodd" clip-rule="evenodd" d="M141.924 139.74C146.142 128.965 153.91 118.9 162.847 113.74L110.886 83.74C101.948 88.9 94.1801 98.965 89.9626 109.74L141.924 139.74Z" fill="#8BC5E4"/>
<path fill-rule="evenodd" clip-rule="evenodd" d="M62.4317 147.315C56.6727 150.64 51.9615 158.85 51.9615 165.58L0 135.58C0 128.85 4.7112 120.64 10.4702 117.315L62.4317 147.315Z" fill="#8BC5E4"/>
<path fill-rule="evenodd" clip-rule="evenodd" d="M51.9615 341.14C51.9615 344.643 53.2375 347.073 55.2745 348.129L3.313 318.129C1.276 317.073 0 314.643 0 311.14L51.9615 341.14Z" fill="#8BC5E4"/>
<path fill-rule="evenodd" clip-rule="evenodd" d="M55.2825 348.134C57.1555 349.101 59.6695 348.907 62.4235 347.32L10.462 317.32C7.70805 318.907 5.19404 319.101 3.32104 318.134L55.2825 348.134Z" fill="#8BC5E4"/>
<path fill-rule="evenodd" clip-rule="evenodd" d="M263.194 231.405C268.944 228.085 273.664 219.87 273.664 213.14L221.702 183.14C221.702 189.87 216.983 198.085 211.232 201.405L263.194 231.405Z" fill="#8BC5E4"/>
<path fill-rule="evenodd" clip-rule="evenodd" d="M273.664 37.58C273.664 34.077 272.385 31.648 270.348 30.593L218.387 0.593018C220.424 1.64802 221.703 4.07702 221.702 7.58002L273.664 37.58Z" fill="#8BC5E4"/>
<path fill-rule="evenodd" clip-rule="evenodd" d="M270.339 30.588C268.465 29.622 265.952 29.815 263.202 31.4L211.241 1.39997C213.991 -0.185031 216.504 -0.378031 218.378 0.587969L270.339 30.588Z" fill="#8BC5E4"/>
<path fill-rule="evenodd" clip-rule="evenodd" d="M263.194 36.915C264.737 36.024 266.121 35.903 267.142 36.437L215.181 6.43704C214.16 5.90304 212.776 6.02404 211.232 6.91504L263.194 36.915Z" fill="#8BC5E4"/>
<path fill-rule="evenodd" clip-rule="evenodd" d="M267.141 36.437C268.245 37.013 268.925 38.353 268.926 40.309L216.965 10.309C216.964 8.35301 216.284 7.01301 215.18 6.43701L267.141 36.437Z" fill="#8BC5E4"/>
<path fill-rule="evenodd" clip-rule="evenodd" d="M268.927 215.875C268.927 219.645 266.407 224.04 263.194 225.895L211.232 195.895C214.445 194.04 216.965 189.645 216.965 185.875L268.927 215.875Z" fill="#8BC5E4"/>
<path fill-rule="evenodd" clip-rule="evenodd" d="M62.4316 341.805C60.8834 342.699 59.4974 342.82 58.4754 342.287L6.51392 312.287C7.53592 312.82 8.92192 312.699 10.4701 311.805L62.4316 341.805Z" fill="#8BC5E4"/>
<path fill-rule="evenodd" clip-rule="evenodd" d="M58.4775 342.288C57.3715 341.712 56.6915 340.372 56.6905 338.416L4.729 308.416C4.73 310.372 5.41 311.712 6.516 312.288L58.4775 342.288Z" fill="#8BC5E4"/>
<path fill-rule="evenodd" clip-rule="evenodd" d="M56.69 162.85C56.69 159.08 59.2101 154.685 62.4317 152.825L10.4702 122.825C7.24862 124.685 4.72852 129.08 4.72852 132.85L56.69 162.85Z" fill="#8BC5E4"/>
<path d="M162.847 106.44C150.411 113.62 139.681 128.555 134.927 143.78L106.417 160.24V169.77L132.606 154.65C132.415 156.35 132.32 158.035 132.32 159.695C132.32 179.315 146.02 187.395 162.847 177.68C168.658 174.325 174.097 169.275 178.739 163.285L197.566 175.055L205.257 161.905L186.767 150.35C188.464 146.88 189.876 143.305 190.958 139.71L219.849 123.03V113.51L193.141 128.93C193.297 127.42 193.375 125.915 193.375 124.445C193.375 104.805 179.666 96.73 162.847 106.44ZM162.847 113.74C176.288 105.98 187.122 112.365 187.122 128.055C187.122 129.535 187.027 131.05 186.836 132.57L158.664 148.835V144.285L146.263 160.755L158.664 162.915V158.355L184.022 143.715C179.882 154.735 171.967 165.125 162.847 170.39C149.398 178.155 138.573 171.765 138.573 156.085C138.573 154.415 138.703 152.71 138.928 151L167.602 134.445V139.005L179.995 122.53L167.602 120.365V124.915L141.924 139.74C146.142 128.965 153.91 118.9 162.847 113.74ZM61.9987 259.185V268.375L81.3716 257.19V280.99L61.9987 292.175V301.375L120.62 267.53V291.33L61.9987 325.175V334.365L264.268 217.585V208.395L206.98 241.47V217.67L264.268 184.595V175.395L246.22 185.815V162.015L264.268 151.595V142.405L61.9987 259.185ZM89.2438 252.645L159.86 211.875V235.675L89.2438 276.445V252.645ZM167.74 207.325L238.347 166.56V190.36L167.74 231.125V207.325ZM128.501 262.98L199.099 222.22V246.02L128.501 286.78V262.98ZM62.4317 147.315C56.6726 150.64 51.9614 158.85 51.9614 165.58V341.14C51.9614 347.87 56.6726 350.64 62.4317 347.315L263.194 231.405C268.944 228.085 273.664 219.87 273.664 213.14V37.58C273.664 30.85 268.944 28.085 263.194 31.405L62.4317 147.315ZM62.4317 152.825L263.194 36.915C266.407 35.06 268.927 36.545 268.927 40.315V215.875C268.927 219.645 266.407 224.04 263.194 225.895L62.4317 341.805C59.2101 343.665 56.6899 342.18 56.6899 338.41V162.85C56.6899 159.08 59.2101 154.685 62.4317 152.825Z" fill="#8BC5E4"/>
<path fill-rule="evenodd" clip-rule="evenodd" d="M62.4317 152.825L263.194 36.915C266.407 35.06 268.927 36.545 268.927 40.315V215.875C268.927 219.645 266.407 224.04 263.194 225.895L62.4317 341.805C59.2101 343.665 56.6899 342.18 56.6899 338.41V162.85C56.6899 159.08 59.2101 154.685 62.4317 152.825ZM134.927 143.78C139.681 128.555 150.411 113.62 162.847 106.44C179.666 96.73 193.375 104.805 193.375 124.445C193.375 125.915 193.297 127.42 193.141 128.93L219.849 113.51V123.03L190.958 139.71C189.876 143.305 188.464 146.88 186.767 150.35L205.257 161.905L197.566 175.055L178.739 163.285C174.097 169.275 168.658 174.325 162.847 177.68C146.02 187.395 132.32 179.315 132.32 159.695C132.32 158.035 132.415 156.35 132.606 154.65L106.417 169.77V160.24L134.927 143.78ZM61.9987 268.375V259.185L264.268 142.405V151.595L246.22 162.015V185.815L264.268 175.395V184.595L206.98 217.67V241.47L264.268 208.395V217.585L61.9987 334.365V325.175L120.62 291.33V267.53L61.9987 301.375V292.175L81.3716 280.99V257.19L61.9987 268.375Z" fill="white"/>
<path d="M162.847 113.74C176.288 105.98 187.122 112.365 187.122 128.055C187.122 129.535 187.027 131.05 186.836 132.57L158.664 148.835V144.285L146.263 160.755L158.664 162.915V158.355L184.022 143.715C179.882 154.735 171.967 165.125 162.847 170.39C149.398 178.155 138.573 171.765 138.573 156.085C138.573 154.415 138.703 152.71 138.928 151L167.602 134.445V139.005L179.995 122.53L167.602 120.365V124.915L141.924 139.74C146.142 128.965 153.91 118.9 162.847 113.74Z" fill="white"/>
<path d="M167.74 207.325L238.347 166.56V190.36L167.74 231.125V207.325Z" fill="white"/>
<path d="M89.2438 252.645L159.86 211.875V235.675L89.2438 276.445V252.645Z" fill="white"/>
<path d="M128.501 262.98L199.099 222.22V246.02L128.501 286.78V262.98Z" fill="white"/>
</svg>
