<svg width="274" height="349" viewBox="0 0 274 349" fill="none" xmlns="http://www.w3.org/2000/svg">
<path fill-rule="evenodd" clip-rule="evenodd" d="M119.979 184.333L77.3014 208.973L25.3399 178.973L68.0176 154.333L119.979 184.333Z" fill="#8BC5E4"/>
<path fill-rule="evenodd" clip-rule="evenodd" d="M77.3014 208.973V223.203L25.3399 193.203V178.973L77.3014 208.973Z" fill="#8BC5E4"/>
<path fill-rule="evenodd" clip-rule="evenodd" d="M77.3014 223.203L116.775 200.413L64.8133 170.413L25.3399 193.203L77.3014 223.203Z" fill="#8BC5E4"/>
<path fill-rule="evenodd" clip-rule="evenodd" d="M189.763 210.583L218.394 227.883L166.433 197.883L137.802 180.583L189.763 210.583Z" fill="#8BC5E4"/>
<path fill-rule="evenodd" clip-rule="evenodd" d="M218.394 227.883L229.834 208.088L177.873 178.088L166.433 197.883L218.394 227.883Z" fill="#8BC5E4"/>
<path fill-rule="evenodd" clip-rule="evenodd" d="M229.834 208.087L201.377 190.907L149.415 160.907L177.873 178.087L229.834 208.087Z" fill="#8BC5E4"/>
<path fill-rule="evenodd" clip-rule="evenodd" d="M206.816 176.728L249.294 152.203L197.333 122.203L154.854 146.728L206.816 176.728Z" fill="#8BC5E4"/>
<path fill-rule="evenodd" clip-rule="evenodd" d="M249.294 152.203V137.983L197.333 107.983V122.203L249.294 152.203Z" fill="#8BC5E4"/>
<path fill-rule="evenodd" clip-rule="evenodd" d="M249.294 137.983L210.184 160.563L158.223 130.563L197.332 107.983L249.294 137.983Z" fill="#8BC5E4"/>
<path fill-rule="evenodd" clip-rule="evenodd" d="M163.514 125.198L111.553 95.1975L163.514 125.198Z" fill="#8BC5E4"/>
<path fill-rule="evenodd" clip-rule="evenodd" d="M200.26 166.292L156.491 191.562L104.529 161.562L148.298 136.292L200.26 166.292Z" fill="#8BC5E4"/>
<path fill-rule="evenodd" clip-rule="evenodd" d="M156.491 191.563V184.203L104.529 154.203V161.563L156.491 191.563Z" fill="#8BC5E4"/>
<path fill-rule="evenodd" clip-rule="evenodd" d="M156.491 184.203L137.083 209.458L85.1216 179.458L104.529 154.203L156.491 184.203Z" fill="#8BC5E4"/>
<path fill-rule="evenodd" clip-rule="evenodd" d="M137.083 209.458L156.491 212.293L104.529 182.293L85.1216 179.458L137.083 209.458Z" fill="#8BC5E4"/>
<path fill-rule="evenodd" clip-rule="evenodd" d="M156.491 212.292V205.782L104.529 175.782V182.292L156.491 212.292Z" fill="#8BC5E4"/>
<path fill-rule="evenodd" clip-rule="evenodd" d="M156.491 205.783L195.904 183.028L143.942 153.028L104.529 175.783L156.491 205.783Z" fill="#8BC5E4"/>
<path fill-rule="evenodd" clip-rule="evenodd" d="M126.682 194.693L170.105 169.623L118.143 139.623L74.7206 164.693L126.682 194.693Z" fill="#8BC5E4"/>
<path fill-rule="evenodd" clip-rule="evenodd" d="M170.105 169.623V176.133L118.143 146.133V139.623L170.105 169.623Z" fill="#8BC5E4"/>
<path fill-rule="evenodd" clip-rule="evenodd" d="M170.105 176.133L189.504 150.893L137.542 120.893L118.143 146.133L170.105 176.133Z" fill="#8BC5E4"/>
<path fill-rule="evenodd" clip-rule="evenodd" d="M189.504 150.892L170.105 148.042L118.143 118.042L137.542 120.892L189.504 150.892Z" fill="#8BC5E4"/>
<path fill-rule="evenodd" clip-rule="evenodd" d="M170.105 148.042V155.392L118.143 125.392V118.042L170.105 148.042Z" fill="#8BC5E4"/>
<path fill-rule="evenodd" clip-rule="evenodd" d="M170.105 155.393L130.822 178.073L78.8602 148.073L118.143 125.393L170.105 155.393Z" fill="#8BC5E4"/>
<path fill-rule="evenodd" clip-rule="evenodd" d="M163.514 136.657L111.553 106.657L163.514 136.657Z" fill="#8BC5E4"/>
<path fill-rule="evenodd" clip-rule="evenodd" d="M51.9615 165.573V341.143L0 311.143V135.573L51.9615 165.573Z" fill="#8BC5E4"/>
<path fill-rule="evenodd" clip-rule="evenodd" d="M62.4231 347.322L263.194 231.407L211.232 201.407L10.4616 317.322L62.4231 347.322Z" fill="#8BC5E4"/>
<path fill-rule="evenodd" clip-rule="evenodd" d="M273.664 213.143V37.5725L221.703 7.57251V183.143L273.664 213.143Z" fill="#8BC5E4"/>
<path fill-rule="evenodd" clip-rule="evenodd" d="M263.194 31.4075L62.4231 147.322L10.4616 117.322L211.232 1.40747L263.194 31.4075Z" fill="#8BC5E4"/>
<path fill-rule="evenodd" clip-rule="evenodd" d="M62.4231 147.323L10.4616 117.323L62.4231 147.323Z" fill="#8BC5E4"/>
<path fill-rule="evenodd" clip-rule="evenodd" d="M62.4231 152.842L263.194 36.9275L211.232 6.92749L10.4616 122.842L62.4231 152.842Z" fill="#8BC5E4"/>
<path fill-rule="evenodd" clip-rule="evenodd" d="M268.935 40.3025V215.872L216.974 185.872V10.3025L268.935 40.3025Z" fill="#8BC5E4"/>
<path fill-rule="evenodd" clip-rule="evenodd" d="M263.194 225.887L62.4231 341.802L10.4616 311.802L211.232 195.887L263.194 225.887Z" fill="#8BC5E4"/>
<path fill-rule="evenodd" clip-rule="evenodd" d="M56.69 338.413V162.843L4.72849 132.843V308.413L56.69 338.413Z" fill="#8BC5E4"/>
<path fill-rule="evenodd" clip-rule="evenodd" d="M62.4231 152.843L10.4616 122.843L62.4231 152.843Z" fill="#8BC5E4"/>
<path fill-rule="evenodd" clip-rule="evenodd" d="M163.514 125.198C143.916 136.513 127.063 160.313 119.979 184.333L68.0176 154.333C75.1017 130.313 91.9546 106.513 111.553 95.1975L163.514 125.198Z" fill="#8BC5E4"/>
<path fill-rule="evenodd" clip-rule="evenodd" d="M116.775 200.413C116.541 202.748 116.42 205.058 116.42 207.338L64.4582 177.338C64.4582 175.058 64.5795 172.748 64.8133 170.413L116.775 200.413Z" fill="#8BC5E4"/>
<path fill-rule="evenodd" clip-rule="evenodd" d="M116.42 207.338C116.419 223.114 122.157 234.054 131.325 238.796L79.364 208.796C70.196 204.054 64.458 193.114 64.4582 177.338L116.42 207.338Z" fill="#8BC5E4"/>
<path fill-rule="evenodd" clip-rule="evenodd" d="M131.323 238.795C139.751 243.155 151.077 242.276 163.509 235.101L111.548 205.101C99.116 212.276 87.79 213.155 79.362 208.795L131.323 238.795Z" fill="#8BC5E4"/>
<path fill-rule="evenodd" clip-rule="evenodd" d="M163.514 235.098C173.222 229.493 182.255 220.828 189.763 210.583L137.802 180.583C130.293 190.828 121.261 199.493 111.553 205.098L163.514 235.098Z" fill="#8BC5E4"/>
<path fill-rule="evenodd" clip-rule="evenodd" d="M201.377 190.908C203.542 186.258 205.369 181.503 206.815 176.728L154.854 146.728C153.408 151.503 151.58 156.258 149.415 160.908L201.377 190.908Z" fill="#8BC5E4"/>
<path fill-rule="evenodd" clip-rule="evenodd" d="M210.184 160.563C210.461 157.993 210.609 155.448 210.609 152.958L158.647 122.958C158.647 125.448 158.5 127.993 158.223 130.563L210.184 160.563Z" fill="#8BC5E4"/>
<path fill-rule="evenodd" clip-rule="evenodd" d="M210.609 152.958C210.609 137.182 204.871 126.242 195.704 121.5L143.742 91.4995C152.909 96.2415 158.647 107.182 158.647 122.958L210.609 152.958Z" fill="#8BC5E4"/>
<path fill-rule="evenodd" clip-rule="evenodd" d="M195.704 121.5C187.276 117.14 175.95 118.019 163.518 125.194L111.557 95.1945C123.989 88.0195 135.315 87.1405 143.743 91.5005L195.704 121.5Z" fill="#8BC5E4"/>
<path fill-rule="evenodd" clip-rule="evenodd" d="M163.514 136.657C173.403 130.947 182.371 130.223 189.031 133.665L137.07 103.665C130.41 100.223 121.442 100.947 111.553 106.657L163.514 136.657Z" fill="#8BC5E4"/>
<path fill-rule="evenodd" clip-rule="evenodd" d="M189.029 133.665C196.272 137.407 200.786 146.077 200.788 158.619L148.826 128.619C148.824 116.077 144.31 107.407 137.067 103.665L189.029 133.665Z" fill="#8BC5E4"/>
<path fill-rule="evenodd" clip-rule="evenodd" d="M200.788 158.627C200.788 161.137 200.597 163.707 200.26 166.292L148.298 136.292C148.636 133.707 148.826 131.137 148.826 128.627L200.788 158.627Z" fill="#8BC5E4"/>
<path fill-rule="evenodd" clip-rule="evenodd" d="M195.904 183.028C189.495 199.828 177.414 215.603 163.514 223.628L111.553 193.628C125.452 185.603 137.533 169.828 143.942 153.028L195.904 183.028Z" fill="#8BC5E4"/>
<path fill-rule="evenodd" clip-rule="evenodd" d="M163.514 223.627C153.628 229.334 144.663 230.059 138.004 226.619L86.043 196.619C92.702 200.059 101.667 199.334 111.553 193.627L163.514 223.627Z" fill="#8BC5E4"/>
<path fill-rule="evenodd" clip-rule="evenodd" d="M138.007 226.621C130.765 222.881 126.251 214.214 126.249 201.672L74.288 171.672C74.29 184.214 78.804 192.881 86.046 196.621L138.007 226.621Z" fill="#8BC5E4"/>
<path fill-rule="evenodd" clip-rule="evenodd" d="M126.249 201.663C126.249 199.373 126.396 197.048 126.682 194.693L74.7206 164.693C74.4349 167.048 74.2876 169.373 74.2876 171.663L126.249 201.663Z" fill="#8BC5E4"/>
<path fill-rule="evenodd" clip-rule="evenodd" d="M130.822 178.072C137.144 160.972 149.389 144.812 163.514 136.657L111.553 106.657C97.4278 114.812 85.1822 130.972 78.8602 148.072L130.822 178.072Z" fill="#8BC5E4"/>
<path fill-rule="evenodd" clip-rule="evenodd" d="M62.4231 147.323C56.6727 150.643 51.9615 158.853 51.9615 165.573L0 135.573C0 128.853 4.7112 120.643 10.4616 117.323L62.4231 147.323Z" fill="#8BC5E4"/>
<path fill-rule="evenodd" clip-rule="evenodd" d="M51.9615 341.143C51.9615 344.641 53.2375 347.071 55.2725 348.129L3.311 318.129C1.276 317.071 0 314.641 0 311.143L51.9615 341.143Z" fill="#8BC5E4"/>
<path fill-rule="evenodd" clip-rule="evenodd" d="M55.2815 348.134C57.1535 349.103 59.6645 348.913 62.4145 347.328L10.453 317.328C7.70298 318.913 5.19198 319.103 3.31998 318.134L55.2815 348.134Z" fill="#8BC5E4"/>
<path fill-rule="evenodd" clip-rule="evenodd" d="M263.194 231.408C268.953 228.083 273.664 219.863 273.664 213.143L221.702 183.143C221.702 189.863 216.991 198.083 211.232 201.408L263.194 231.408Z" fill="#8BC5E4"/>
<path fill-rule="evenodd" clip-rule="evenodd" d="M273.664 37.5727C273.664 34.0687 272.382 31.6377 270.339 30.5867L218.378 0.58667C220.421 1.63767 221.703 4.06867 221.702 7.57267L273.664 37.5727Z" fill="#8BC5E4"/>
<path fill-rule="evenodd" clip-rule="evenodd" d="M270.343 30.5875C268.47 29.6215 265.956 29.8155 263.202 31.4025L211.241 1.40249C213.995 -0.184512 216.509 -0.378512 218.382 0.587488L270.343 30.5875Z" fill="#8BC5E4"/>
<path fill-rule="evenodd" clip-rule="evenodd" d="M263.194 36.9274C264.735 36.0374 266.116 35.9114 267.137 36.4334L215.176 6.43342C214.155 5.91142 212.774 6.03742 211.232 6.92742L263.194 36.9274Z" fill="#8BC5E4"/>
<path fill-rule="evenodd" clip-rule="evenodd" d="M267.135 36.4326C268.248 37.0006 268.934 38.3386 268.935 40.2966L216.974 10.2966C216.973 8.33862 216.287 7.00062 215.174 6.43262L267.135 36.4326Z" fill="#8BC5E4"/>
<path fill-rule="evenodd" clip-rule="evenodd" d="M268.935 215.873C268.935 219.633 266.415 224.028 263.194 225.888L211.232 195.888C214.454 194.028 216.974 189.633 216.974 185.873L268.935 215.873Z" fill="#8BC5E4"/>
<path fill-rule="evenodd" clip-rule="evenodd" d="M62.4231 341.802C60.8795 342.693 59.4955 342.813 58.4745 342.281L6.513 312.281C7.534 312.813 8.918 312.693 10.4616 311.802L62.4231 341.802Z" fill="#8BC5E4"/>
<path fill-rule="evenodd" clip-rule="evenodd" d="M58.4755 342.281C57.3715 341.706 56.6915 340.369 56.6905 338.418L4.729 308.418C4.73 310.369 5.41 311.706 6.514 312.281L58.4755 342.281Z" fill="#8BC5E4"/>
<path fill-rule="evenodd" clip-rule="evenodd" d="M56.69 162.843C56.69 159.083 59.2101 154.698 62.4231 152.843L10.4616 122.843C7.24858 124.698 4.72849 129.083 4.72849 132.843L56.69 162.843Z" fill="#8BC5E4"/>
<path d="M163.514 125.198C143.916 136.513 127.063 160.313 119.979 184.333L77.3014 208.973V223.203L116.775 200.413C116.541 202.748 116.42 205.058 116.42 207.338C116.42 237.618 137.559 250.083 163.514 235.098C173.222 229.493 182.255 220.828 189.763 210.583L218.394 227.883L229.834 208.088L201.377 190.908C203.542 186.258 205.369 181.503 206.815 176.728L249.294 152.203V137.983L210.184 160.563C210.461 157.993 210.609 155.448 210.609 152.958C210.609 122.678 189.469 110.213 163.514 125.198ZM163.514 136.658C184.16 124.738 200.788 134.548 200.788 158.628C200.788 161.138 200.597 163.708 200.26 166.293L156.491 191.563V184.203L137.083 209.458L156.491 212.293V205.783L195.904 183.028C189.495 199.828 177.414 215.603 163.514 223.628C142.877 235.543 126.249 225.743 126.249 201.663C126.249 199.373 126.396 197.048 126.682 194.693L170.105 169.623V176.133L189.504 150.893L170.105 148.043V155.393L130.822 178.073C137.144 160.973 149.389 144.813 163.514 136.658ZM62.4231 147.323C56.6727 150.643 51.9615 158.853 51.9615 165.573V341.143C51.9615 347.863 56.6727 350.643 62.4231 347.323L263.194 231.408C268.953 228.083 273.664 219.863 273.664 213.143V37.5725C273.664 30.8525 268.953 28.0825 263.194 31.4075L62.4231 147.323ZM62.4231 152.843L263.194 36.9275C266.415 35.0675 268.935 36.5425 268.935 40.3025V215.873C268.935 219.633 266.415 224.028 263.194 225.888L62.4231 341.803C59.2101 343.658 56.69 342.173 56.69 338.413V162.843C56.69 159.083 59.2101 154.698 62.4231 152.843Z" fill="#8BC5E4"/>
<path fill-rule="evenodd" clip-rule="evenodd" d="M62.4231 152.843L263.194 36.9275C266.415 35.0675 268.935 36.5425 268.935 40.3025V215.873C268.935 219.633 266.415 224.028 263.194 225.888L62.4231 341.803C59.2101 343.658 56.69 342.173 56.69 338.413V162.843C56.69 159.083 59.2101 154.698 62.4231 152.843ZM119.979 184.333C127.063 160.313 143.916 136.513 163.514 125.198C189.469 110.213 210.609 122.678 210.609 152.958C210.609 155.448 210.461 157.993 210.184 160.563L249.294 137.983V152.203L206.815 176.728C205.369 181.503 203.542 186.258 201.377 190.908L229.834 208.088L218.394 227.883L189.763 210.583C182.255 220.828 173.222 229.493 163.514 235.098C137.559 250.083 116.42 237.618 116.42 207.338C116.42 205.058 116.541 202.748 116.775 200.413L77.3014 223.203V208.973L119.979 184.333Z" fill="white"/>
<path d="M163.514 136.658C184.16 124.738 200.788 134.548 200.788 158.628C200.788 161.138 200.597 163.708 200.26 166.293L156.491 191.563V184.203L137.083 209.458L156.491 212.293V205.783L195.904 183.028C189.495 199.828 177.414 215.603 163.514 223.628C142.877 235.543 126.249 225.743 126.249 201.663C126.249 199.373 126.396 197.048 126.682 194.693L170.105 169.623V176.133L189.504 150.893L170.105 148.043V155.393L130.822 178.073C137.144 160.973 149.389 144.813 163.514 136.658Z" fill="white"/>
</svg>
