<svg width="226" height="321" viewBox="0 0 226 321" fill="none" xmlns="http://www.w3.org/2000/svg">
<path fill-rule="evenodd" clip-rule="evenodd" d="M120.412 119.282L68.4506 89.2822L120.412 119.282Z" fill="#8BC5E4"/>
<path fill-rule="evenodd" clip-rule="evenodd" d="M129.159 135.462L77.1975 105.462L129.159 135.462Z" fill="#8BC5E4"/>
<path fill-rule="evenodd" clip-rule="evenodd" d="M125.903 199.412L125.92 199.422L73.9585 169.422L73.9412 169.412L125.903 199.412Z" fill="#8BC5E4"/>
<path fill-rule="evenodd" clip-rule="evenodd" d="M113.882 191.862L114.012 191.927L62.0507 161.927L61.9208 161.862L113.882 191.862Z" fill="#8BC5E4"/>
<path fill-rule="evenodd" clip-rule="evenodd" d="M132.684 143.557L80.7222 113.557L132.684 143.557Z" fill="#8BC5E4"/>
<path fill-rule="evenodd" clip-rule="evenodd" d="M134.961 152.212L82.9998 122.212L134.961 152.212Z" fill="#8BC5E4"/>
<path fill-rule="evenodd" clip-rule="evenodd" d="M134.537 157.537L82.5755 127.537L134.537 157.537Z" fill="#8BC5E4"/>
<path fill-rule="evenodd" clip-rule="evenodd" d="M133.056 162.022L81.0946 132.022L133.056 162.022Z" fill="#8BC5E4"/>
<path fill-rule="evenodd" clip-rule="evenodd" d="M150.966 153.402L99.004 123.402L150.966 153.402Z" fill="#8BC5E4"/>
<path fill-rule="evenodd" clip-rule="evenodd" d="M130.042 175.622L130.129 175.642L78.1674 145.642L78.0808 145.622L130.042 175.622Z" fill="#8BC5E4"/>
<path fill-rule="evenodd" clip-rule="evenodd" d="M133.004 167.072L81.0426 137.072L133.004 167.072Z" fill="#8BC5E4"/>
<path fill-rule="evenodd" clip-rule="evenodd" d="M175.128 146.402L123.166 116.402L175.128 146.402Z" fill="#8BC5E4"/>
<path fill-rule="evenodd" clip-rule="evenodd" d="M62.5876 124.687L214.54 36.9573L162.579 6.95728L10.6261 94.6873L62.5876 124.687Z" fill="#8BC5E4"/>
<path fill-rule="evenodd" clip-rule="evenodd" d="M220.369 40.3022V215.862L168.407 185.862V10.3022L220.369 40.3022Z" fill="#8BC5E4"/>
<path fill-rule="evenodd" clip-rule="evenodd" d="M214.54 225.937L62.5876 313.667L10.6261 283.667L162.579 195.937L214.54 225.937Z" fill="#8BC5E4"/>
<path fill-rule="evenodd" clip-rule="evenodd" d="M56.7593 310.322V134.762L4.79779 104.762V280.322L56.7593 310.322Z" fill="#8BC5E4"/>
<path fill-rule="evenodd" clip-rule="evenodd" d="M62.5876 124.687L10.6261 94.6873L62.5876 124.687Z" fill="#8BC5E4"/>
<path fill-rule="evenodd" clip-rule="evenodd" d="M51.9615 137.532V313.092L0 283.092V107.532L51.9615 137.532Z" fill="#8BC5E4"/>
<path fill-rule="evenodd" clip-rule="evenodd" d="M62.5876 319.177L214.54 231.447L162.579 201.447L10.6261 289.177L62.5876 319.177Z" fill="#8BC5E4"/>
<path fill-rule="evenodd" clip-rule="evenodd" d="M225.167 213.092V37.5322L173.205 7.53223V183.092L225.167 213.092Z" fill="#8BC5E4"/>
<path fill-rule="evenodd" clip-rule="evenodd" d="M214.54 31.4473L62.5876 119.177L10.6261 89.1773L162.579 1.44727L214.54 31.4473Z" fill="#8BC5E4"/>
<path fill-rule="evenodd" clip-rule="evenodd" d="M62.5876 119.177L10.6261 89.1772L62.5876 119.177Z" fill="#8BC5E4"/>
<path fill-rule="evenodd" clip-rule="evenodd" d="M120.412 119.282C115.086 122.097 109.994 126.517 105.56 132.287L53.5983 102.287C58.0323 96.5172 63.1246 92.0972 68.4506 89.2822L120.412 119.282Z" fill="#8BC5E4"/>
<path fill-rule="evenodd" clip-rule="evenodd" d="M105.56 132.287C105.516 132.342 105.482 132.392 105.439 132.447L53.477 102.447C53.5203 102.392 53.555 102.342 53.5983 102.287L105.56 132.287Z" fill="#8BC5E4"/>
<path fill-rule="evenodd" clip-rule="evenodd" d="M105.439 132.447C96.9775 144.392 91.5995 154.357 88.3779 166.527L36.4163 136.527C39.638 124.357 45.016 114.392 53.477 102.447L105.439 132.447Z" fill="#8BC5E4"/>
<path fill-rule="evenodd" clip-rule="evenodd" d="M88.3779 166.527C85.6585 176.647 86.8623 186.042 90.1965 194.417L38.235 164.417C34.9008 156.042 33.697 146.647 36.4163 136.527L88.3779 166.527Z" fill="#8BC5E4"/>
<path fill-rule="evenodd" clip-rule="evenodd" d="M90.1965 194.417C93.5307 202.782 99.0646 210.187 105.525 216.137L53.5636 186.137C47.1031 180.187 41.5692 172.782 38.235 164.417L90.1965 194.417Z" fill="#8BC5E4"/>
<path fill-rule="evenodd" clip-rule="evenodd" d="M105.525 216.137C105.533 216.141 105.54 216.146 105.553 216.153L53.592 186.153C53.579 186.146 53.571 186.141 53.5636 186.137L105.525 216.137Z" fill="#8BC5E4"/>
<path fill-rule="evenodd" clip-rule="evenodd" d="M105.553 216.153C105.555 216.155 105.557 216.156 105.559 216.157L53.598 186.157C53.596 186.156 53.594 186.155 53.592 186.153L105.553 216.153Z" fill="#8BC5E4"/>
<path fill-rule="evenodd" clip-rule="evenodd" d="M105.56 216.157C109.902 219.888 114.385 223.215 119.086 225.866L67.125 195.866C62.424 193.215 57.941 189.888 53.5983 186.157L105.56 216.157Z" fill="#8BC5E4"/>
<path fill-rule="evenodd" clip-rule="evenodd" d="M119.084 225.865C129.204 231.573 140.331 234.149 153.227 230.884L101.266 200.884C88.37 204.149 77.243 201.573 67.123 195.865L119.084 225.865Z" fill="#8BC5E4"/>
<path fill-rule="evenodd" clip-rule="evenodd" d="M153.234 230.882C154.023 230.707 154.871 229.987 155.469 228.982L103.507 198.982C102.91 199.987 102.061 200.707 101.273 200.882L153.234 230.882Z" fill="#8BC5E4"/>
<path fill-rule="evenodd" clip-rule="evenodd" d="M155.469 228.982C156.066 227.987 156.3 226.882 156.092 226.082L104.131 196.082C104.339 196.882 104.105 197.987 103.507 198.982L155.469 228.982Z" fill="#8BC5E4"/>
<path fill-rule="evenodd" clip-rule="evenodd" d="M156.092 226.082C155.991 225.699 155.793 225.418 155.525 225.255L103.564 195.255C103.832 195.418 104.03 195.699 104.131 196.082L156.092 226.082Z" fill="#8BC5E4"/>
<path fill-rule="evenodd" clip-rule="evenodd" d="M155.528 225.257C155.244 225.083 154.881 225.043 154.473 225.159L102.512 195.159C102.92 195.043 103.283 195.083 103.567 195.257L155.528 225.257Z" fill="#8BC5E4"/>
<path fill-rule="evenodd" clip-rule="evenodd" d="M154.464 225.162C142.444 228.199 131.829 225.739 121.99 220.139L70.029 190.139C79.868 195.739 90.483 198.199 102.503 195.162L154.464 225.162Z" fill="#8BC5E4"/>
<path fill-rule="evenodd" clip-rule="evenodd" d="M121.983 220.135C117.555 217.614 113.285 214.458 109.115 210.881L57.154 180.881C61.324 184.458 65.594 187.614 70.022 190.135L121.983 220.135Z" fill="#8BC5E4"/>
<path fill-rule="evenodd" clip-rule="evenodd" d="M109.11 210.877C103.897 206.077 99.4197 200.242 96.2327 193.912L44.2712 163.912C47.4582 170.242 51.9355 176.077 57.149 180.877L109.11 210.877Z" fill="#8BC5E4"/>
<path fill-rule="evenodd" clip-rule="evenodd" d="M96.2327 193.912C97.0554 193.887 98.0254 193.187 98.7182 192.097L46.7567 162.097C46.0639 163.187 45.0939 163.887 44.2712 163.912L96.2327 193.912Z" fill="#8BC5E4"/>
<path fill-rule="evenodd" clip-rule="evenodd" d="M98.7182 192.097C99.4024 191.012 99.6622 189.772 99.385 188.942L47.4235 158.942C47.7007 159.772 47.4408 161.012 46.7567 162.097L98.7182 192.097Z" fill="#8BC5E4"/>
<path fill-rule="evenodd" clip-rule="evenodd" d="M99.385 188.942C97.3932 182.762 95.5312 176.347 101.36 162.652L49.3981 132.652C43.5697 146.347 45.4317 152.762 47.4235 158.942L99.385 188.942Z" fill="#8BC5E4"/>
<path fill-rule="evenodd" clip-rule="evenodd" d="M101.36 162.652C105.395 153.232 111.345 145.047 119.191 137.437L67.2295 107.437C59.3833 115.047 53.4337 123.232 49.3981 132.652L101.36 162.652Z" fill="#8BC5E4"/>
<path fill-rule="evenodd" clip-rule="evenodd" d="M119.191 137.437C124.084 133.192 132.251 130.857 138.547 130.372L86.5852 100.372C80.2892 100.857 72.1226 103.192 67.2295 107.437L119.191 137.437Z" fill="#8BC5E4"/>
<path fill-rule="evenodd" clip-rule="evenodd" d="M138.547 130.372C139.3 130.347 140.175 129.752 140.85 128.802L88.8888 98.8022C88.2133 99.7522 87.3386 100.347 86.5852 100.372L138.547 130.372Z" fill="#8BC5E4"/>
<path fill-rule="evenodd" clip-rule="evenodd" d="M140.85 128.802C141.517 127.857 141.872 126.722 141.768 125.842L89.8068 95.8423C89.9107 96.7223 89.5557 97.8573 88.8888 98.8023L140.85 128.802Z" fill="#8BC5E4"/>
<path fill-rule="evenodd" clip-rule="evenodd" d="M141.768 125.842C141.708 125.289 141.473 124.888 141.119 124.687L89.158 94.6873C89.512 94.8883 89.747 95.2893 89.8068 95.8423L141.768 125.842Z" fill="#8BC5E4"/>
<path fill-rule="evenodd" clip-rule="evenodd" d="M141.123 124.69C140.912 124.569 140.658 124.519 140.374 124.551L88.413 94.5512C88.697 94.5192 88.951 94.5692 89.162 94.6902L141.123 124.69Z" fill="#8BC5E4"/>
<path fill-rule="evenodd" clip-rule="evenodd" d="M140.365 124.552C133.584 125.067 124.993 126.977 118.005 133.082L66.0431 103.082C73.0319 96.9772 81.6229 95.0672 88.4039 94.5522L140.365 124.552Z" fill="#8BC5E4"/>
<path fill-rule="evenodd" clip-rule="evenodd" d="M118.005 133.082C117.944 133.137 117.892 133.177 117.84 133.227L65.8785 103.227C65.9305 103.177 65.9825 103.137 66.0431 103.082L118.005 133.082Z" fill="#8BC5E4"/>
<path fill-rule="evenodd" clip-rule="evenodd" d="M117.84 133.227C109.232 141.557 102.243 151.082 97.5577 161.987L45.5962 131.987C50.2814 121.082 57.2702 111.557 65.8785 103.227L117.84 133.227Z" fill="#8BC5E4"/>
<path fill-rule="evenodd" clip-rule="evenodd" d="M97.5577 161.987C97.5577 161.997 97.5577 161.997 97.5577 162.007L45.5962 132.007C45.5962 131.997 45.5962 131.997 45.5962 131.987L97.5577 161.987Z" fill="#8BC5E4"/>
<path fill-rule="evenodd" clip-rule="evenodd" d="M97.5577 162.007C92.5694 173.717 92.5002 181.697 93.6433 187.617L41.6818 157.617C40.5386 151.697 40.6079 143.717 45.5962 132.007L97.5577 162.007Z" fill="#8BC5E4"/>
<path fill-rule="evenodd" clip-rule="evenodd" d="M93.6433 187.617C91.2877 180.527 90.7075 173.052 92.6474 165.862L40.6858 135.862C38.746 143.052 39.3262 150.527 41.6818 157.617L93.6433 187.617Z" fill="#8BC5E4"/>
<path fill-rule="evenodd" clip-rule="evenodd" d="M92.6474 165.862C92.6474 165.852 92.6474 165.842 92.656 165.837L40.6945 135.837C40.6859 135.842 40.6858 135.852 40.6858 135.862L92.6474 165.862Z" fill="#8BC5E4"/>
<path fill-rule="evenodd" clip-rule="evenodd" d="M92.656 165.837C95.5399 154.872 99.9826 146.607 108.028 135.252L56.0665 105.252C48.0211 116.607 43.5784 124.872 40.6945 135.837L92.656 165.837Z" fill="#8BC5E4"/>
<path fill-rule="evenodd" clip-rule="evenodd" d="M108.028 135.252C115.329 125.767 124.716 120.527 134.294 121.767L82.333 91.7673C72.7548 90.5273 63.3671 95.7673 56.0665 105.252L108.028 135.252Z" fill="#8BC5E4"/>
<path fill-rule="evenodd" clip-rule="evenodd" d="M134.294 121.767C134.329 121.777 134.364 121.777 134.398 121.787L82.4369 91.7872C82.4023 91.7772 82.3677 91.7772 82.333 91.7672L134.294 121.767Z" fill="#8BC5E4"/>
<path fill-rule="evenodd" clip-rule="evenodd" d="M134.398 121.787C144.579 122.269 154.1 125.872 162.249 130.62L110.288 100.62C102.139 95.8722 92.618 92.2692 82.4369 91.7872L134.398 121.787Z" fill="#8BC5E4"/>
<path fill-rule="evenodd" clip-rule="evenodd" d="M162.243 130.617C164.409 131.878 166.477 133.221 168.435 134.607L116.474 104.607C114.516 103.221 112.448 101.878 110.282 100.617L162.243 130.617Z" fill="#8BC5E4"/>
<path fill-rule="evenodd" clip-rule="evenodd" d="M168.442 134.612C169.077 135.088 169.693 135.576 170.291 136.076L118.33 106.076C117.732 105.576 117.116 105.088 116.48 104.612L168.442 134.612Z" fill="#8BC5E4"/>
<path fill-rule="evenodd" clip-rule="evenodd" d="M170.29 136.075C177.541 142.134 182.109 149.917 185.309 158.275L133.348 128.275C130.148 119.917 125.58 112.134 118.329 106.075L170.29 136.075Z" fill="#8BC5E4"/>
<path fill-rule="evenodd" clip-rule="evenodd" d="M185.312 158.282C185.207 158.129 185.078 158.011 184.93 157.929L132.968 127.929C133.116 128.011 133.245 128.129 133.351 128.282L185.312 158.282Z" fill="#8BC5E4"/>
<path fill-rule="evenodd" clip-rule="evenodd" d="M184.927 157.927C184.881 157.902 184.833 157.88 184.784 157.862L132.822 127.862C132.871 127.88 132.919 127.902 132.965 127.927L184.927 157.927Z" fill="#8BC5E4"/>
<path fill-rule="evenodd" clip-rule="evenodd" d="M184.785 157.863C184.459 157.74 184.059 157.769 183.623 157.958L131.662 127.958C132.098 127.769 132.498 127.74 132.824 127.863L184.785 157.863Z" fill="#8BC5E4"/>
<path fill-rule="evenodd" clip-rule="evenodd" d="M183.615 157.962C182.904 158.262 182.194 158.962 181.701 159.847L129.739 129.847C130.233 128.962 130.943 128.262 131.653 127.962L183.615 157.962Z" fill="#8BC5E4"/>
<path fill-rule="evenodd" clip-rule="evenodd" d="M181.701 159.847C176.851 168.307 171.101 175.387 165.134 182.772L113.172 152.772C119.139 145.387 124.889 138.307 129.739 129.847L181.701 159.847Z" fill="#8BC5E4"/>
<path fill-rule="evenodd" clip-rule="evenodd" d="M165.134 182.772C164.796 183.187 164.519 183.667 164.328 184.157L112.367 154.157C112.557 153.667 112.834 153.187 113.172 152.772L165.134 182.772Z" fill="#8BC5E4"/>
<path fill-rule="evenodd" clip-rule="evenodd" d="M164.328 184.157C164.683 182.642 165.203 180.792 165.506 179.417L113.545 149.417C113.242 150.792 112.722 152.642 112.367 154.157L164.328 184.157Z" fill="#8BC5E4"/>
<path fill-rule="evenodd" clip-rule="evenodd" d="M165.506 179.417C171.066 172.947 175.344 166.517 179.449 159.967L127.488 129.967C123.383 136.517 119.104 142.947 113.545 149.417L165.506 179.417Z" fill="#8BC5E4"/>
<path fill-rule="evenodd" clip-rule="evenodd" d="M179.449 159.967C180.099 158.992 180.41 157.842 180.263 156.987L128.302 126.987C128.449 127.842 128.137 128.992 127.488 129.967L179.449 159.967Z" fill="#8BC5E4"/>
<path fill-rule="evenodd" clip-rule="evenodd" d="M180.263 156.987C180.177 156.516 179.955 156.175 179.638 155.994L127.676 125.994C127.993 126.175 128.215 126.516 128.302 126.987L180.263 156.987Z" fill="#8BC5E4"/>
<path fill-rule="evenodd" clip-rule="evenodd" d="M179.644 155.998C179.593 155.968 179.539 155.942 179.483 155.921L127.522 125.921C127.578 125.942 127.632 125.968 127.683 125.998L179.644 155.998Z" fill="#8BC5E4"/>
<path fill-rule="evenodd" clip-rule="evenodd" d="M179.488 155.923C179.266 155.838 179.007 155.821 178.722 155.88L126.761 125.88C127.046 125.821 127.305 125.838 127.527 125.923L179.488 155.923Z" fill="#8BC5E4"/>
<path fill-rule="evenodd" clip-rule="evenodd" d="M178.713 155.882C177.916 156.042 177.05 156.782 176.453 157.797L124.491 127.797C125.089 126.782 125.955 126.042 126.751 125.882L178.713 155.882Z" fill="#8BC5E4"/>
<path fill-rule="evenodd" clip-rule="evenodd" d="M176.453 157.797C172.2 164.572 168.13 170.712 162.648 176.917L110.687 146.917C116.169 140.712 120.239 134.572 124.491 127.797L176.453 157.797Z" fill="#8BC5E4"/>
<path fill-rule="evenodd" clip-rule="evenodd" d="M162.648 176.917C162.059 177.587 161.618 178.452 161.453 179.267L109.492 149.267C109.656 148.452 110.098 147.587 110.687 146.917L162.648 176.917Z" fill="#8BC5E4"/>
<path fill-rule="evenodd" clip-rule="evenodd" d="M161.453 179.267C159.227 189.782 154.854 205.877 150.281 219.317L98.3198 189.317C102.893 175.877 107.266 159.782 109.492 149.267L161.453 179.267Z" fill="#8BC5E4"/>
<path fill-rule="evenodd" clip-rule="evenodd" d="M150.281 219.317C149.892 220.392 149.926 221.392 150.385 221.927L98.4238 191.927C97.9648 191.392 97.9301 190.392 98.3198 189.317L150.281 219.317Z" fill="#8BC5E4"/>
<path fill-rule="evenodd" clip-rule="evenodd" d="M150.385 221.927C150.467 222.024 150.559 222.103 150.661 222.164L98.699 192.164C98.597 192.103 98.505 192.024 98.4238 191.927L150.385 221.927Z" fill="#8BC5E4"/>
<path fill-rule="evenodd" clip-rule="evenodd" d="M150.659 222.164C151.123 222.443 151.786 222.352 152.467 221.895L100.506 191.895C99.825 192.352 99.162 192.443 98.698 192.164L150.659 222.164Z" fill="#8BC5E4"/>
<path fill-rule="evenodd" clip-rule="evenodd" d="M152.472 221.892C153.295 221.337 154.023 220.317 154.36 219.252L102.399 189.252C102.061 190.317 101.334 191.337 100.511 191.892L152.472 221.892Z" fill="#8BC5E4"/>
<path fill-rule="evenodd" clip-rule="evenodd" d="M154.36 219.252C155.166 216.877 155.841 214.327 156.621 211.857L104.659 181.857C103.88 184.327 103.204 186.877 102.399 189.252L154.36 219.252Z" fill="#8BC5E4"/>
<path fill-rule="evenodd" clip-rule="evenodd" d="M156.621 211.857C155.928 214.227 155.304 216.547 154.56 218.957L102.598 188.957C103.343 186.547 103.966 184.227 104.659 181.857L156.621 211.857Z" fill="#8BC5E4"/>
<path fill-rule="evenodd" clip-rule="evenodd" d="M154.559 218.957C154.213 220.017 154.308 220.962 154.793 221.442L102.832 191.442C102.347 190.962 102.252 190.017 102.598 188.957L154.559 218.957Z" fill="#8BC5E4"/>
<path fill-rule="evenodd" clip-rule="evenodd" d="M154.793 221.442C154.861 221.51 154.936 221.566 155.016 221.612L103.055 191.612C102.975 191.566 102.9 191.51 102.832 191.442L154.793 221.442Z" fill="#8BC5E4"/>
<path fill-rule="evenodd" clip-rule="evenodd" d="M155.014 221.611C155.068 221.642 155.125 221.668 155.184 221.69L103.222 191.69C103.163 191.668 103.106 191.642 103.052 191.611L155.014 221.611Z" fill="#8BC5E4"/>
<path fill-rule="evenodd" clip-rule="evenodd" d="M155.182 221.69C155.654 221.863 156.271 221.722 156.893 221.28L104.932 191.28C104.31 191.722 103.693 191.863 103.221 191.69L155.182 221.69Z" fill="#8BC5E4"/>
<path fill-rule="evenodd" clip-rule="evenodd" d="M156.898 221.277C157.712 220.687 158.413 219.672 158.716 218.617L106.755 188.617C106.452 189.672 105.75 190.687 104.936 191.277L156.898 221.277Z" fill="#8BC5E4"/>
<path fill-rule="evenodd" clip-rule="evenodd" d="M158.716 218.617C162.284 207.057 165.246 196.007 168.121 185.057L116.16 155.057C113.285 166.007 110.323 177.057 106.755 188.617L158.716 218.617Z" fill="#8BC5E4"/>
<path fill-rule="evenodd" clip-rule="evenodd" d="M168.121 185.057C173.837 177.987 179.752 170.672 184.931 161.652L132.969 131.652C127.791 140.672 121.876 147.987 116.16 155.057L168.121 185.057Z" fill="#8BC5E4"/>
<path fill-rule="evenodd" clip-rule="evenodd" d="M184.931 161.652C185.459 160.747 185.693 159.752 185.572 158.982L133.61 128.982C133.732 129.752 133.498 130.747 132.969 131.652L184.931 161.652Z" fill="#8BC5E4"/>
<path fill-rule="evenodd" clip-rule="evenodd" d="M185.572 158.982C186.057 160.292 186.611 161.552 187.035 162.877L135.074 132.877C134.65 131.552 134.095 130.292 133.61 128.982L185.572 158.982Z" fill="#8BC5E4"/>
<path fill-rule="evenodd" clip-rule="evenodd" d="M187.035 162.877C187.149 163.24 187.351 163.492 187.612 163.634L135.651 133.634C135.39 133.492 135.188 133.24 135.074 132.877L187.035 162.877Z" fill="#8BC5E4"/>
<path fill-rule="evenodd" clip-rule="evenodd" d="M187.612 163.634C188.185 163.947 189.041 163.727 189.861 162.968L137.899 132.968C137.079 133.727 136.223 133.947 135.65 133.634L187.612 163.634Z" fill="#8BC5E4"/>
<path fill-rule="evenodd" clip-rule="evenodd" d="M189.867 162.962C191.062 161.852 191.738 160.002 191.366 158.837L139.404 128.837C139.776 130.002 139.101 131.852 137.906 132.962L189.867 162.962Z" fill="#8BC5E4"/>
<path fill-rule="evenodd" clip-rule="evenodd" d="M191.366 158.837C187.806 147.582 182.082 136.857 171.854 129.222L119.892 99.2223C130.12 106.857 135.845 117.582 139.404 128.837L191.366 158.837Z" fill="#8BC5E4"/>
<path fill-rule="evenodd" clip-rule="evenodd" d="M171.854 129.222C171.851 129.221 171.849 129.219 171.847 129.218L119.886 99.2183C119.888 99.2193 119.89 99.2213 119.892 99.2223L171.854 129.222Z" fill="#8BC5E4"/>
<path fill-rule="evenodd" clip-rule="evenodd" d="M171.844 129.216C171.842 129.214 171.84 129.211 171.838 129.209L119.877 99.2092C119.879 99.2112 119.881 99.2142 119.883 99.2162L171.844 129.216Z" fill="#8BC5E4"/>
<path fill-rule="evenodd" clip-rule="evenodd" d="M171.837 129.202C169.814 127.765 167.676 126.373 165.433 125.064L113.472 95.0642C115.715 96.3732 117.853 97.7652 119.875 99.2022L171.837 129.202Z" fill="#8BC5E4"/>
<path fill-rule="evenodd" clip-rule="evenodd" d="M165.436 125.065C157.098 120.198 147.311 116.487 136.625 115.957L84.664 85.9573C95.349 86.4873 105.136 90.1983 113.474 95.0653L165.436 125.065Z" fill="#8BC5E4"/>
<path fill-rule="evenodd" clip-rule="evenodd" d="M136.615 115.957C131.272 115.272 125.729 116.472 120.412 119.282L68.4506 89.2823C73.768 86.4723 79.3106 85.2723 84.654 85.9573L136.615 115.957Z" fill="#8BC5E4"/>
<path fill-rule="evenodd" clip-rule="evenodd" d="M129.159 135.462C123.088 138.727 117.883 143.192 113.64 149.412L61.6783 119.412C65.9218 113.192 71.1266 108.727 77.1975 105.462L129.159 135.462Z" fill="#8BC5E4"/>
<path fill-rule="evenodd" clip-rule="evenodd" d="M113.64 149.412C109.388 155.637 106.201 163.327 103.473 173.052L51.5112 143.052C54.2391 133.327 57.4261 125.637 61.6783 119.412L113.64 149.412Z" fill="#8BC5E4"/>
<path fill-rule="evenodd" clip-rule="evenodd" d="M103.473 173.052C99.5063 187.022 100.537 196.577 104.694 204.177L52.7323 174.177C48.5753 166.577 47.5448 157.022 51.5112 143.052L103.473 173.052Z" fill="#8BC5E4"/>
<path fill-rule="evenodd" clip-rule="evenodd" d="M104.694 204.177C104.698 204.179 104.701 204.181 104.701 204.181L52.74 174.181C52.739 174.181 52.737 174.179 52.7323 174.177L104.694 204.177Z" fill="#8BC5E4"/>
<path fill-rule="evenodd" clip-rule="evenodd" d="M104.694 204.177C104.698 204.179 104.701 204.181 104.701 204.181L52.74 174.181C52.739 174.181 52.737 174.179 52.7323 174.177L104.694 204.177Z" fill="#8BC5E4"/>
<path fill-rule="evenodd" clip-rule="evenodd" d="M104.702 204.182C106.367 207.148 108.923 209.079 111.563 210.588L59.602 180.588C56.962 179.079 54.406 177.148 52.7409 174.182L104.702 204.182Z" fill="#8BC5E4"/>
<path fill-rule="evenodd" clip-rule="evenodd" d="M111.57 210.591C112.455 211.097 113.35 211.555 114.223 211.989L62.262 181.989C61.389 181.555 60.494 181.097 59.609 180.591L111.57 210.591Z" fill="#8BC5E4"/>
<path fill-rule="evenodd" clip-rule="evenodd" d="M114.229 211.992C115.949 212.842 117.595 213.649 118.917 214.402L66.956 184.402C65.634 183.649 63.988 182.842 62.2672 181.992L114.229 211.992Z" fill="#8BC5E4"/>
<path fill-rule="evenodd" clip-rule="evenodd" d="M118.926 214.407C120.27 215.173 121.279 215.883 121.689 216.525L69.728 186.525C69.318 185.883 68.309 185.173 66.965 184.407L118.926 214.407Z" fill="#8BC5E4"/>
<path fill-rule="evenodd" clip-rule="evenodd" d="M121.694 216.532C121.808 216.715 121.951 216.85 122.118 216.94L70.156 186.94C69.989 186.85 69.846 186.715 69.7323 186.532L121.694 216.532Z" fill="#8BC5E4"/>
<path fill-rule="evenodd" clip-rule="evenodd" d="M122.115 216.939C122.798 217.309 123.861 216.909 124.753 215.86L72.792 185.86C71.9 186.909 70.837 187.309 70.154 186.939L122.115 216.939Z" fill="#8BC5E4"/>
<path fill-rule="evenodd" clip-rule="evenodd" d="M124.76 215.852C125.859 214.537 126.284 212.712 125.704 211.777L73.742 181.777C74.3223 182.712 73.8979 184.537 72.7981 185.852L124.76 215.852Z" fill="#8BC5E4"/>
<path fill-rule="evenodd" clip-rule="evenodd" d="M125.704 211.777C124.921 210.536 123.766 209.641 122.407 208.864L70.446 178.864C71.805 179.641 72.96 180.536 73.742 181.777L125.704 211.777Z" fill="#8BC5E4"/>
<path fill-rule="evenodd" clip-rule="evenodd" d="M122.409 208.865C120.893 207.998 119.123 207.279 117.334 206.394L65.373 176.394C67.162 177.279 68.932 177.998 70.448 178.865L122.409 208.865Z" fill="#8BC5E4"/>
<path fill-rule="evenodd" clip-rule="evenodd" d="M117.329 206.392C116.54 206.002 115.75 205.59 114.98 205.149L63.019 175.149C63.789 175.59 64.579 176.002 65.3676 176.392L117.329 206.392Z" fill="#8BC5E4"/>
<path fill-rule="evenodd" clip-rule="evenodd" d="M114.981 205.15C112.44 203.696 110.122 201.927 108.792 199.557L56.831 169.557C58.161 171.927 60.479 173.696 63.02 175.15L114.981 205.15Z" fill="#8BC5E4"/>
<path fill-rule="evenodd" clip-rule="evenodd" d="M108.79 199.552C104.988 192.617 104.131 185.052 107.699 172.512L55.7374 142.512C52.1693 155.052 53.0267 162.617 56.8286 169.552L108.79 199.552Z" fill="#8BC5E4"/>
<path fill-rule="evenodd" clip-rule="evenodd" d="M107.699 172.512C107.699 172.502 107.708 172.487 107.708 172.487L55.746 142.487C55.746 142.487 55.7374 142.502 55.7374 142.512L107.699 172.512Z" fill="#8BC5E4"/>
<path fill-rule="evenodd" clip-rule="evenodd" d="M107.708 172.487C110.262 163.362 113.094 156.797 116.411 151.942L64.4496 121.942C61.1327 126.797 58.3008 133.362 55.746 142.487L107.708 172.487Z" fill="#8BC5E4"/>
<path fill-rule="evenodd" clip-rule="evenodd" d="M116.411 151.942C119.719 147.082 123.642 143.637 129.038 140.742L77.0762 110.742C71.6809 113.637 67.7578 117.082 64.4496 121.942L116.411 151.942Z" fill="#8BC5E4"/>
<path fill-rule="evenodd" clip-rule="evenodd" d="M129.038 140.742C129.064 140.727 129.09 140.712 129.107 140.702L77.1455 110.702C77.1282 110.712 77.1022 110.727 77.0762 110.742L129.038 140.742Z" fill="#8BC5E4"/>
<path fill-rule="evenodd" clip-rule="evenodd" d="M129.107 140.702C137.057 136.132 142.054 135.947 146.514 136.532L94.5526 106.532C90.0926 105.947 85.0956 106.132 77.1455 110.702L129.107 140.702Z" fill="#8BC5E4"/>
<path fill-rule="evenodd" clip-rule="evenodd" d="M146.514 136.532C150.966 137.122 154.845 138.732 160.223 137.057L108.262 107.057C102.884 108.732 99.004 107.122 94.5526 106.532L146.514 136.532Z" fill="#8BC5E4"/>
<path fill-rule="evenodd" clip-rule="evenodd" d="M160.223 137.057C161.444 136.682 162.665 135.107 162.951 133.542L110.99 103.542C110.704 105.107 109.483 106.682 108.262 107.057L160.223 137.057Z" fill="#8BC5E4"/>
<path fill-rule="evenodd" clip-rule="evenodd" d="M162.951 133.542C163.138 132.515 162.875 131.744 162.328 131.443L110.367 101.443C110.914 101.744 111.177 102.515 110.99 103.542L162.951 133.542Z" fill="#8BC5E4"/>
<path fill-rule="evenodd" clip-rule="evenodd" d="M162.331 131.445C162.046 131.287 161.684 131.256 161.269 131.385L109.308 101.385C109.723 101.256 110.085 101.287 110.37 101.445L162.331 131.445Z" fill="#8BC5E4"/>
<path fill-rule="evenodd" clip-rule="evenodd" d="M161.263 131.387C157.218 132.642 153.685 131.362 148.887 130.732L96.9255 100.732C101.723 101.362 105.257 102.642 109.301 101.387L161.263 131.387Z" fill="#8BC5E4"/>
<path fill-rule="evenodd" clip-rule="evenodd" d="M148.887 130.732C144.098 130.097 138.01 130.382 129.159 135.462L77.1975 105.462C86.0483 100.382 92.1364 100.097 96.9255 100.732L148.887 130.732Z" fill="#8BC5E4"/>
<path fill-rule="evenodd" clip-rule="evenodd" d="M132.684 143.557C128.804 145.727 125.322 148.647 122.369 152.042L70.4078 122.042C73.361 118.647 76.8424 115.727 80.7222 113.557L132.684 143.557Z" fill="#8BC5E4"/>
<path fill-rule="evenodd" clip-rule="evenodd" d="M122.369 152.042C122.343 152.077 122.309 152.117 122.283 152.142L70.3212 122.142C70.3472 122.117 70.3819 122.077 70.4078 122.042L122.369 152.042Z" fill="#8BC5E4"/>
<path fill-rule="evenodd" clip-rule="evenodd" d="M122.283 152.142C116.706 158.942 112.09 167.127 109.492 176.847L57.53 146.847C60.1281 137.127 64.744 128.942 70.3212 122.142L122.283 152.142Z" fill="#8BC5E4"/>
<path fill-rule="evenodd" clip-rule="evenodd" d="M109.492 176.847C109.492 176.867 109.483 176.892 109.474 176.917L57.5127 146.917C57.5214 146.892 57.53 146.867 57.53 146.847L109.492 176.847Z" fill="#8BC5E4"/>
<path fill-rule="evenodd" clip-rule="evenodd" d="M109.474 176.917C108.21 181.977 107.378 186.207 107.413 189.727L55.4516 159.727C55.4169 156.207 56.2483 151.977 57.5127 146.917L109.474 176.917Z" fill="#8BC5E4"/>
<path fill-rule="evenodd" clip-rule="evenodd" d="M107.413 189.727C107.452 192.917 108.325 195.469 110.132 196.984L58.171 166.984C56.363 165.469 55.491 162.917 55.4516 159.727L107.413 189.727Z" fill="#8BC5E4"/>
<path fill-rule="evenodd" clip-rule="evenodd" d="M110.139 196.99C110.313 197.136 110.497 197.272 110.689 197.398L58.727 167.398C58.535 167.272 58.352 167.136 58.177 166.99L110.139 196.99Z" fill="#8BC5E4"/>
<path fill-rule="evenodd" clip-rule="evenodd" d="M110.695 197.402C110.712 197.417 110.732 197.431 110.752 197.443L58.791 167.443C58.771 167.431 58.751 167.417 58.7338 167.402L110.695 197.402Z" fill="#8BC5E4"/>
<path fill-rule="evenodd" clip-rule="evenodd" d="M110.764 197.449C110.778 197.456 110.794 197.463 110.809 197.469L58.847 167.469C58.832 167.463 58.816 167.456 58.802 167.449L110.764 197.449Z" fill="#8BC5E4"/>
<path fill-rule="evenodd" clip-rule="evenodd" d="M110.817 197.472C114.698 199.318 117.79 202.144 121.34 204.207L69.379 174.207C65.829 172.144 62.737 169.318 58.8551 167.472L110.817 197.472Z" fill="#8BC5E4"/>
<path fill-rule="evenodd" clip-rule="evenodd" d="M121.335 204.204C121.823 204.489 122.321 204.758 122.83 205.009L70.869 175.009C70.36 174.758 69.862 174.489 69.374 174.204L121.335 204.204Z" fill="#8BC5E4"/>
<path fill-rule="evenodd" clip-rule="evenodd" d="M122.837 205.012C122.837 205.017 122.839 205.021 122.842 205.023L70.881 175.023C70.878 175.021 70.876 175.017 70.8755 175.012L122.837 205.012Z" fill="#8BC5E4"/>
<path fill-rule="evenodd" clip-rule="evenodd" d="M122.837 205.012C122.837 205.02 122.841 205.024 122.847 205.024L70.886 175.024C70.88 175.024 70.876 175.02 70.8755 175.012L122.837 205.012Z" fill="#8BC5E4"/>
<path fill-rule="evenodd" clip-rule="evenodd" d="M122.854 205.022C123.315 205.239 123.75 205.466 124.159 205.702L72.198 175.702C71.789 175.466 71.354 175.239 70.8928 175.022L122.854 205.022Z" fill="#8BC5E4"/>
<path fill-rule="evenodd" clip-rule="evenodd" d="M124.159 205.702C130.103 209.127 130.76 214.491 129.766 220.303L77.805 190.303C78.799 184.491 78.142 179.127 72.198 175.702L124.159 205.702Z" fill="#8BC5E4"/>
<path fill-rule="evenodd" clip-rule="evenodd" d="M129.765 220.312C129.586 221.351 129.866 222.117 130.435 222.397L78.474 192.397C77.905 192.117 77.625 191.351 77.8037 190.312L129.765 220.312Z" fill="#8BC5E4"/>
<path fill-rule="evenodd" clip-rule="evenodd" d="M130.432 222.395C130.718 222.538 131.078 222.556 131.49 222.424L79.529 192.424C79.117 192.556 78.757 192.538 78.471 192.395L130.432 222.395Z" fill="#8BC5E4"/>
<path fill-rule="evenodd" clip-rule="evenodd" d="M131.497 222.422C132.718 222.027 133.931 220.437 134.199 218.872L82.2377 188.872C81.9693 190.437 80.7568 192.027 79.5357 192.422L131.497 222.422Z" fill="#8BC5E4"/>
<path fill-rule="evenodd" clip-rule="evenodd" d="M134.199 218.872C135.453 211.507 134.139 204.289 127.521 200.278L75.56 170.278C82.178 174.289 83.492 181.507 82.2377 188.872L134.199 218.872Z" fill="#8BC5E4"/>
<path fill-rule="evenodd" clip-rule="evenodd" d="M127.526 200.281C127.018 199.973 126.479 199.684 125.908 199.415L73.947 169.415C74.518 169.684 75.057 169.973 75.565 170.281L127.526 200.281Z" fill="#8BC5E4"/>
<path fill-rule="evenodd" clip-rule="evenodd" d="M125.92 199.422C122.698 197.835 119.709 195.103 115.892 192.916L63.931 162.916C67.748 165.103 70.736 167.835 73.9585 169.422L125.92 199.422Z" fill="#8BC5E4"/>
<path fill-rule="evenodd" clip-rule="evenodd" d="M115.898 192.919C115.254 192.549 114.586 192.195 113.889 191.865L61.928 161.865C62.625 162.195 63.293 162.549 63.937 162.919L115.898 192.919Z" fill="#8BC5E4"/>
<path fill-rule="evenodd" clip-rule="evenodd" d="M114.012 191.927C113.884 191.845 113.763 191.759 113.648 191.669L61.687 161.669C61.802 161.759 61.923 161.845 62.0507 161.927L114.012 191.927Z" fill="#8BC5E4"/>
<path fill-rule="evenodd" clip-rule="evenodd" d="M113.649 191.669C112.434 190.716 111.976 189.331 111.951 187.054L59.99 157.054C60.015 159.331 60.473 160.716 61.688 161.669L113.649 191.669Z" fill="#8BC5E4"/>
<path fill-rule="evenodd" clip-rule="evenodd" d="M111.951 187.047C111.925 184.552 112.566 180.902 113.761 176.142L61.7995 146.142C60.6044 150.902 59.9636 154.552 59.9896 157.047L111.951 187.047Z" fill="#8BC5E4"/>
<path fill-rule="evenodd" clip-rule="evenodd" d="M113.761 176.142C115.995 167.792 119.659 161.337 124.439 155.497L72.4776 125.497C67.6972 131.337 64.0339 137.792 61.7995 146.142L113.761 176.142Z" fill="#8BC5E4"/>
<path fill-rule="evenodd" clip-rule="evenodd" d="M124.439 155.497C128.943 150.327 135.472 146.107 143.552 145.422L91.5908 115.422C83.5108 116.107 76.981 120.327 72.4776 125.497L124.439 155.497Z" fill="#8BC5E4"/>
<path fill-rule="evenodd" clip-rule="evenodd" d="M143.552 145.422C144.69 145.341 145.611 145.674 146.559 146.224L94.598 116.224C93.65 115.674 92.729 115.341 91.5908 115.422L143.552 145.422Z" fill="#8BC5E4"/>
<path fill-rule="evenodd" clip-rule="evenodd" d="M146.553 146.221C146.889 146.415 147.227 146.637 147.58 146.877L95.619 116.877C95.266 116.637 94.928 116.415 94.592 116.221L146.553 146.221Z" fill="#8BC5E4"/>
<path fill-rule="evenodd" clip-rule="evenodd" d="M147.588 146.882C148.126 147.253 148.693 147.664 149.33 148.033L97.369 118.033C96.732 117.664 96.165 117.253 95.6265 116.882L147.588 146.882Z" fill="#8BC5E4"/>
<path fill-rule="evenodd" clip-rule="evenodd" d="M149.327 148.032C150.287 148.591 151.405 149.056 152.82 149.147L100.859 119.147C99.444 119.056 98.326 118.591 97.366 118.032L149.327 148.032Z" fill="#8BC5E4"/>
<path fill-rule="evenodd" clip-rule="evenodd" d="M152.827 149.147C152.845 149.157 152.871 149.152 152.897 149.157L100.935 119.157C100.909 119.152 100.883 119.157 100.866 119.147L152.827 149.147Z" fill="#8BC5E4"/>
<path fill-rule="evenodd" clip-rule="evenodd" d="M152.897 149.157C154.915 149.182 157.123 148.027 159.201 146.777L107.24 116.777C105.161 118.027 102.953 119.182 100.935 119.157L152.897 149.157Z" fill="#8BC5E4"/>
<path fill-rule="evenodd" clip-rule="evenodd" d="M159.201 146.777C161.288 145.532 163.263 144.082 164.536 143.197L112.575 113.197C111.302 114.082 109.327 115.532 107.24 116.777L159.201 146.777Z" fill="#8BC5E4"/>
<path fill-rule="evenodd" clip-rule="evenodd" d="M164.536 143.197C165.783 142.327 166.684 140.527 166.554 139.162L114.592 109.162C114.722 110.527 113.822 112.327 112.575 113.197L164.536 143.197Z" fill="#8BC5E4"/>
<path fill-rule="evenodd" clip-rule="evenodd" d="M166.554 139.162C166.501 138.601 166.278 138.204 165.946 137.994L113.984 107.994C114.316 108.204 114.539 108.601 114.593 109.162L166.554 139.162Z" fill="#8BC5E4"/>
<path fill-rule="evenodd" clip-rule="evenodd" d="M165.947 137.996C165.48 137.698 164.796 137.771 164.067 138.277L112.106 108.277C112.835 107.771 113.519 107.698 113.986 107.996L165.947 137.996Z" fill="#8BC5E4"/>
<path fill-rule="evenodd" clip-rule="evenodd" d="M164.06 138.282C162.674 139.262 160.856 140.582 159.115 141.617L107.153 111.617C108.894 110.582 110.713 109.262 112.098 108.282L164.06 138.282Z" fill="#8BC5E4"/>
<path fill-rule="evenodd" clip-rule="evenodd" d="M159.115 141.617C157.383 142.657 155.772 143.307 154.993 143.307L103.031 113.307C103.81 113.307 105.421 112.657 107.153 111.617L159.115 141.617Z" fill="#8BC5E4"/>
<path fill-rule="evenodd" clip-rule="evenodd" d="M154.992 143.307C154.062 143.236 153.258 142.894 152.451 142.42L100.49 112.42C101.297 112.894 102.101 113.236 103.031 113.307L154.992 143.307Z" fill="#8BC5E4"/>
<path fill-rule="evenodd" clip-rule="evenodd" d="M152.455 142.423C151.964 142.135 151.471 141.798 150.947 141.443L98.986 111.443C99.51 111.798 100.003 112.135 100.494 112.423L152.455 142.423Z" fill="#8BC5E4"/>
<path fill-rule="evenodd" clip-rule="evenodd" d="M150.939 141.437C150.558 141.179 150.159 140.912 149.729 140.663L97.7679 110.663C98.1979 110.912 98.5969 111.179 98.9779 111.437L150.939 141.437Z" fill="#8BC5E4"/>
<path fill-rule="evenodd" clip-rule="evenodd" d="M149.721 140.659C148.57 139.995 147.202 139.464 145.386 139.596L93.425 109.596C95.241 109.464 96.609 109.995 97.76 110.659L149.721 140.659Z" fill="#8BC5E4"/>
<path fill-rule="evenodd" clip-rule="evenodd" d="M145.38 139.597C145.371 139.592 145.362 139.597 145.354 139.602L93.3922 109.602C93.4008 109.597 93.4095 109.592 93.4181 109.597L145.38 139.597Z" fill="#8BC5E4"/>
<path fill-rule="evenodd" clip-rule="evenodd" d="M145.354 139.602C140.824 139.987 136.563 141.387 132.684 143.557L80.7222 113.557C84.602 111.387 88.8628 109.987 93.3922 109.602L145.354 139.602Z" fill="#8BC5E4"/>
<path fill-rule="evenodd" clip-rule="evenodd" d="M134.961 152.212C130.614 154.332 126.578 158.362 122.898 163.977L70.9361 133.977C74.6167 128.362 78.6524 124.332 82.9998 122.212L134.961 152.212Z" fill="#8BC5E4"/>
<path fill-rule="evenodd" clip-rule="evenodd" d="M122.898 163.977C122.88 164.007 122.863 164.027 122.846 164.057L70.8842 134.057C70.9015 134.027 70.9188 134.007 70.9361 133.977L122.898 163.977Z" fill="#8BC5E4"/>
<path fill-rule="evenodd" clip-rule="evenodd" d="M122.846 164.057C119.624 169.177 117.442 173.967 116.783 178.327L64.822 148.327C65.4802 143.967 67.6625 139.177 70.8842 134.057L122.846 164.057Z" fill="#8BC5E4"/>
<path fill-rule="evenodd" clip-rule="evenodd" d="M116.783 178.327C116.125 182.677 117.121 186.262 119.468 188.937L67.5067 158.937C65.1597 156.262 64.1638 152.677 64.822 148.327L116.783 178.327Z" fill="#8BC5E4"/>
<path fill-rule="evenodd" clip-rule="evenodd" d="M119.468 188.937C119.485 188.957 119.503 188.967 119.511 188.982L67.55 158.982C67.5413 158.967 67.524 158.957 67.5067 158.937L119.468 188.937Z" fill="#8BC5E4"/>
<path fill-rule="evenodd" clip-rule="evenodd" d="M119.511 188.982C124.25 193.794 127.257 193.759 132.007 196.464L80.046 166.464C75.296 163.759 72.289 163.794 67.55 158.982L119.511 188.982Z" fill="#8BC5E4"/>
<path fill-rule="evenodd" clip-rule="evenodd" d="M132 196.46C132.354 196.661 132.718 196.877 133.092 197.112L81.13 167.112C80.756 166.877 80.392 166.661 80.039 166.46L132 196.46Z" fill="#8BC5E4"/>
<path fill-rule="evenodd" clip-rule="evenodd" d="M133.099 197.117C133.438 197.366 133.773 197.615 134.103 197.866L82.142 167.866C81.812 167.615 81.477 167.366 81.1379 167.117L133.099 197.117Z" fill="#8BC5E4"/>
<path fill-rule="evenodd" clip-rule="evenodd" d="M134.102 197.866C138.043 200.861 141.221 204.037 142.182 209.393L90.221 179.393C89.26 174.037 86.082 170.861 82.141 167.866L134.102 197.866Z" fill="#8BC5E4"/>
<path fill-rule="evenodd" clip-rule="evenodd" d="M142.184 209.402C141.534 214.047 140.764 218.442 139.759 222.212L87.7976 192.212C88.8022 188.442 89.573 184.047 90.2225 179.402L142.184 209.402Z" fill="#8BC5E4"/>
<path fill-rule="evenodd" clip-rule="evenodd" d="M139.759 222.212C139.456 223.277 139.595 224.197 140.114 224.627L88.1527 194.627C87.6331 194.197 87.4945 193.277 87.7976 192.212L139.759 222.212Z" fill="#8BC5E4"/>
<path fill-rule="evenodd" clip-rule="evenodd" d="M140.114 224.627C140.163 224.667 140.215 224.702 140.27 224.732L88.309 194.732C88.254 194.702 88.202 194.667 88.1527 194.627L140.114 224.627Z" fill="#8BC5E4"/>
<path fill-rule="evenodd" clip-rule="evenodd" d="M140.27 224.732C140.796 225.022 141.546 224.862 142.283 224.276L90.322 194.276C89.585 194.862 88.835 195.022 88.309 194.732L140.27 224.732Z" fill="#8BC5E4"/>
<path fill-rule="evenodd" clip-rule="evenodd" d="M142.288 224.272C143.093 223.637 143.76 222.582 144.02 221.532L92.0585 191.532C91.7987 192.582 91.1318 193.637 90.3264 194.272L142.288 224.272Z" fill="#8BC5E4"/>
<path fill-rule="evenodd" clip-rule="evenodd" d="M144.02 221.532C145.016 217.787 145.804 213.672 146.471 209.347L94.5093 179.347C93.8425 183.672 93.0544 187.787 92.0585 191.532L144.02 221.532Z" fill="#8BC5E4"/>
<path fill-rule="evenodd" clip-rule="evenodd" d="M146.471 209.347C146.852 208.567 147.025 207.757 146.938 207.097L94.977 177.097C95.0636 177.757 94.8904 178.567 94.5093 179.347L146.471 209.347Z" fill="#8BC5E4"/>
<path fill-rule="evenodd" clip-rule="evenodd" d="M146.938 207.097C146.912 206.902 146.835 206.777 146.8 206.597L94.8384 176.597C94.8731 176.777 94.951 176.902 94.977 177.097L146.938 207.097Z" fill="#8BC5E4"/>
<path fill-rule="evenodd" clip-rule="evenodd" d="M146.8 206.597C148.194 196.242 148.757 184.597 148.393 171.687L96.4319 141.687C96.7956 154.597 96.2327 166.242 94.8384 176.597L146.8 206.597Z" fill="#8BC5E4"/>
<path fill-rule="evenodd" clip-rule="evenodd" d="M148.393 171.687C148.385 171.652 148.385 171.602 148.385 171.562L96.4232 141.562C96.4232 141.602 96.4232 141.652 96.4319 141.687L148.393 171.687Z" fill="#8BC5E4"/>
<path fill-rule="evenodd" clip-rule="evenodd" d="M148.385 171.562C148.116 167.977 148.012 162.987 146.999 158.742L95.0376 128.742C96.0509 132.987 96.1548 137.977 96.4232 141.562L148.385 171.562Z" fill="#8BC5E4"/>
<path fill-rule="evenodd" clip-rule="evenodd" d="M146.999 158.742C146.281 155.697 145.045 152.935 142.835 151.586L90.874 121.586C93.084 122.935 94.32 125.697 95.0376 128.742L146.999 158.742Z" fill="#8BC5E4"/>
<path fill-rule="evenodd" clip-rule="evenodd" d="M142.839 151.588C141.958 151.049 140.923 150.735 139.704 150.717L87.743 120.717C88.962 120.735 89.997 121.049 90.878 121.588L142.839 151.588Z" fill="#8BC5E4"/>
<path fill-rule="evenodd" clip-rule="evenodd" d="M139.698 150.717C139.612 150.717 139.508 150.727 139.413 150.742L87.4512 120.742C87.5465 120.727 87.6504 120.717 87.737 120.717L139.698 150.717Z" fill="#8BC5E4"/>
<path fill-rule="evenodd" clip-rule="evenodd" d="M139.413 150.742C137.897 151.007 136.408 151.507 134.961 152.212L82.9998 122.212C84.4461 121.507 85.9357 121.007 87.4512 120.742L139.413 150.742Z" fill="#8BC5E4"/>
<path fill-rule="evenodd" clip-rule="evenodd" d="M134.537 157.537C135.533 157.092 136.59 156.802 137.741 156.587L85.7798 126.587C84.628 126.802 83.5714 127.092 82.5755 127.537L134.537 157.537Z" fill="#8BC5E4"/>
<path fill-rule="evenodd" clip-rule="evenodd" d="M137.741 156.587C138.454 156.613 139.076 156.802 139.622 157.136L87.661 127.136C87.115 126.802 86.493 126.613 85.7798 126.587L137.741 156.587Z" fill="#8BC5E4"/>
<path fill-rule="evenodd" clip-rule="evenodd" d="M139.621 157.136C141.071 158.022 141.979 159.926 142.589 162.492L90.628 132.492C90.018 129.926 89.11 128.022 87.66 127.136L139.621 157.136Z" fill="#8BC5E4"/>
<path fill-rule="evenodd" clip-rule="evenodd" d="M142.591 162.497C143.44 166.067 143.587 170.722 143.855 174.527L91.8939 144.527C91.6255 140.722 91.4782 136.067 90.6295 132.497L142.591 162.497Z" fill="#8BC5E4"/>
<path fill-rule="evenodd" clip-rule="evenodd" d="M143.855 174.527C144.089 182.952 143.881 190.782 143.362 198.042L91.4003 168.042C91.9199 160.782 92.1278 152.952 91.8939 144.527L143.855 174.527Z" fill="#8BC5E4"/>
<path fill-rule="evenodd" clip-rule="evenodd" d="M143.362 198.042C141.573 195.669 139.361 193.827 137.087 192.129L85.126 162.129C87.4 163.827 89.612 165.669 91.4003 168.042L143.362 198.042Z" fill="#8BC5E4"/>
<path fill-rule="evenodd" clip-rule="evenodd" d="M137.08 192.123C136.881 191.975 136.683 191.828 136.484 191.682L84.523 161.682C84.722 161.828 84.92 161.975 85.119 162.123L137.08 192.123Z" fill="#8BC5E4"/>
<path fill-rule="evenodd" clip-rule="evenodd" d="M136.477 191.677C136.473 191.675 136.47 191.673 136.467 191.671L84.506 161.671C84.509 161.673 84.512 161.675 84.5154 161.677L136.477 191.677Z" fill="#8BC5E4"/>
<path fill-rule="evenodd" clip-rule="evenodd" d="M136.463 191.668C136.449 191.659 136.438 191.65 136.425 191.643L84.464 161.643C84.477 161.65 84.488 161.659 84.502 161.668L136.463 191.668Z" fill="#8BC5E4"/>
<path fill-rule="evenodd" clip-rule="evenodd" d="M136.477 191.677C136.454 191.664 136.438 191.647 136.417 191.64L84.456 161.64C84.477 161.647 84.493 161.664 84.5154 161.677L136.477 191.677Z" fill="#8BC5E4"/>
<path fill-rule="evenodd" clip-rule="evenodd" d="M136.408 191.637C136.047 191.41 135.698 191.199 135.36 191.002L83.399 161.002C83.737 161.199 84.086 161.41 84.4461 161.637L136.408 191.637Z" fill="#8BC5E4"/>
<path fill-rule="evenodd" clip-rule="evenodd" d="M135.361 191.002C130.295 188.055 127.638 188.313 123.242 183.849L71.281 153.849C75.677 158.313 78.334 158.055 83.4 161.002L135.361 191.002Z" fill="#8BC5E4"/>
<path fill-rule="evenodd" clip-rule="evenodd" d="M123.235 183.842C121.339 181.677 120.836 179.387 121.235 176.727L69.2733 146.727C68.875 149.387 69.3773 151.677 71.2739 153.842L123.235 183.842Z" fill="#8BC5E4"/>
<path fill-rule="evenodd" clip-rule="evenodd" d="M121.235 176.727C121.633 174.057 123.071 170.647 125.816 166.282L73.8546 136.282C71.1093 140.647 69.6717 144.057 69.2733 146.727L121.235 176.727Z" fill="#8BC5E4"/>
<path fill-rule="evenodd" clip-rule="evenodd" d="M125.816 166.282C128.89 161.597 131.411 158.942 134.537 157.537L82.5755 127.537C79.4491 128.942 76.929 131.597 73.8546 136.282L125.816 166.282Z" fill="#8BC5E4"/>
<path fill-rule="evenodd" clip-rule="evenodd" d="M133.056 162.022C131.567 162.872 129.982 164.247 128.466 166.172L76.5047 136.172C78.0202 134.247 79.605 132.872 81.0946 132.022L133.056 162.022Z" fill="#8BC5E4"/>
<path fill-rule="evenodd" clip-rule="evenodd" d="M128.466 166.172C128.362 166.302 128.267 166.437 128.172 166.582L76.2102 136.582C76.3055 136.437 76.4007 136.302 76.5047 136.172L128.466 166.172Z" fill="#8BC5E4"/>
<path fill-rule="evenodd" clip-rule="evenodd" d="M128.172 166.582C126.388 169.352 125.045 172.347 124.664 175.137L72.7028 145.137C73.0839 142.347 74.4262 139.352 76.2102 136.582L128.172 166.582Z" fill="#8BC5E4"/>
<path fill-rule="evenodd" clip-rule="evenodd" d="M124.664 175.137C124.316 177.7 124.985 179.926 126.59 180.988L74.629 150.988C73.024 149.926 72.355 147.7 72.7028 145.137L124.664 175.137Z" fill="#8BC5E4"/>
<path fill-rule="evenodd" clip-rule="evenodd" d="M126.595 180.992C126.747 181.091 126.906 181.181 127.074 181.259L75.113 151.259C74.945 151.181 74.786 151.091 74.634 150.992L126.595 180.992Z" fill="#8BC5E4"/>
<path fill-rule="evenodd" clip-rule="evenodd" d="M127.08 181.262C127.095 181.28 127.117 181.286 127.14 181.297L75.179 151.297C75.156 151.286 75.134 151.28 75.119 151.262L127.08 181.262Z" fill="#8BC5E4"/>
<path fill-rule="evenodd" clip-rule="evenodd" d="M127.135 181.294C127.138 181.296 127.141 181.297 127.144 181.299L75.183 151.299C75.18 151.297 75.177 151.296 75.174 151.294L127.135 181.294Z" fill="#8BC5E4"/>
<path fill-rule="evenodd" clip-rule="evenodd" d="M127.15 181.302C128.537 181.82 129.716 182.371 130.761 182.958L78.8 152.958C77.755 152.371 76.576 151.82 75.1883 151.302L127.15 181.302Z" fill="#8BC5E4"/>
<path fill-rule="evenodd" clip-rule="evenodd" d="M130.76 182.957C133.927 184.736 135.86 186.854 138.619 189.462L86.658 159.462C83.899 156.854 81.966 154.736 78.799 152.957L130.76 182.957Z" fill="#8BC5E4"/>
<path fill-rule="evenodd" clip-rule="evenodd" d="M138.625 189.467C138.677 189.518 138.733 189.563 138.793 189.601L86.832 159.601C86.772 159.563 86.716 159.518 86.6631 159.467L138.625 189.467Z" fill="#8BC5E4"/>
<path fill-rule="evenodd" clip-rule="evenodd" d="M138.793 189.601C139.368 189.969 140.247 189.74 141.07 188.987L89.109 158.987C88.286 159.74 87.407 159.969 86.832 159.601L138.793 189.601Z" fill="#8BC5E4"/>
<path fill-rule="evenodd" clip-rule="evenodd" d="M141.075 188.982C141.976 188.162 142.626 186.867 142.695 185.737L90.7335 155.737C90.6642 156.867 90.0147 158.162 89.114 158.982L141.075 188.982Z" fill="#8BC5E4"/>
<path fill-rule="evenodd" clip-rule="evenodd" d="M142.695 185.737C143.145 178.667 143.916 169.862 141.69 165.397L89.7289 135.397C91.9546 139.862 91.1838 148.667 90.7335 155.737L142.695 185.737Z" fill="#8BC5E4"/>
<path fill-rule="evenodd" clip-rule="evenodd" d="M141.69 165.397C141.682 165.392 141.682 165.382 141.682 165.382L89.7202 135.382C89.7202 135.382 89.7202 135.392 89.7289 135.397L141.69 165.397Z" fill="#8BC5E4"/>
<path fill-rule="evenodd" clip-rule="evenodd" d="M141.682 165.382C140.898 163.881 139.925 162.433 138.523 161.631L86.562 131.631C87.964 132.433 88.937 133.881 89.7202 135.382L141.682 165.382Z" fill="#8BC5E4"/>
<path fill-rule="evenodd" clip-rule="evenodd" d="M138.516 161.627C138.077 161.376 137.595 161.189 137.063 161.083L85.102 131.083C85.634 131.189 86.116 131.376 86.555 131.627L138.516 161.627Z" fill="#8BC5E4"/>
<path fill-rule="evenodd" clip-rule="evenodd" d="M137.057 161.082C135.931 160.862 134.546 161.172 133.056 162.022L81.0946 132.022C82.5842 131.172 83.9698 130.862 85.0956 131.082L137.057 161.082Z" fill="#8BC5E4"/>
<path fill-rule="evenodd" clip-rule="evenodd" d="M150.966 153.402C149.961 154.042 149.104 155.347 148.87 156.612L96.9082 126.612C97.142 125.347 97.9994 124.042 99.004 123.402L150.966 153.402Z" fill="#8BC5E4"/>
<path fill-rule="evenodd" clip-rule="evenodd" d="M148.87 156.612C148.695 157.579 148.92 158.345 149.435 158.673L97.474 128.673C96.959 128.345 96.734 127.579 96.9082 126.612L148.87 156.612Z" fill="#8BC5E4"/>
<path fill-rule="evenodd" clip-rule="evenodd" d="M149.432 158.671C149.583 158.767 149.758 158.826 149.955 158.842L97.9939 128.842C97.7969 128.826 97.6219 128.767 97.4709 128.671L149.432 158.671Z" fill="#8BC5E4"/>
<path fill-rule="evenodd" clip-rule="evenodd" d="M149.961 158.842C157.036 159.547 165.939 152.067 172.261 146.347L120.3 116.347C113.978 122.067 105.075 129.547 97.9994 128.842L149.961 158.842Z" fill="#8BC5E4"/>
<path fill-rule="evenodd" clip-rule="evenodd" d="M172.261 146.347C173.465 145.262 174.166 143.407 173.82 142.227L121.858 112.227C122.205 113.407 121.503 115.262 120.3 116.347L172.261 146.347Z" fill="#8BC5E4"/>
<path fill-rule="evenodd" clip-rule="evenodd" d="M173.82 142.227C173.714 141.864 173.524 141.605 173.277 141.451L121.316 111.451C121.563 111.605 121.753 111.864 121.858 112.227L173.82 142.227Z" fill="#8BC5E4"/>
<path fill-rule="evenodd" clip-rule="evenodd" d="M173.278 141.452C172.716 141.1 171.856 141.294 171.021 142.051L119.06 112.051C119.895 111.294 120.755 111.1 121.317 111.452L173.278 141.452Z" fill="#8BC5E4"/>
<path fill-rule="evenodd" clip-rule="evenodd" d="M171.014 142.057C165.004 147.497 157.201 153.522 152.265 153.022L100.303 123.022C105.239 123.522 113.042 117.497 119.052 112.057L171.014 142.057Z" fill="#8BC5E4"/>
<path fill-rule="evenodd" clip-rule="evenodd" d="M152.265 153.022C151.875 152.977 151.425 153.107 150.966 153.402L99.004 123.402C99.463 123.107 99.9133 122.977 100.303 123.022L152.265 153.022Z" fill="#8BC5E4"/>
<path fill-rule="evenodd" clip-rule="evenodd" d="M133.004 167.072C133.55 166.757 134.009 166.762 134.52 166.877L82.5582 136.877C82.0472 136.762 81.5882 136.757 81.0426 137.072L133.004 167.072Z" fill="#8BC5E4"/>
<path fill-rule="evenodd" clip-rule="evenodd" d="M134.52 166.877C134.734 166.916 134.954 167 135.174 167.123L83.213 137.123C82.993 137 82.773 136.916 82.5582 136.877L134.52 166.877Z" fill="#8BC5E4"/>
<path fill-rule="evenodd" clip-rule="evenodd" d="M135.186 167.13C136.026 167.602 136.878 168.636 137.548 169.912L85.587 139.912C84.917 138.636 84.065 137.602 83.225 137.13L135.186 167.13Z" fill="#8BC5E4"/>
<path fill-rule="evenodd" clip-rule="evenodd" d="M137.551 169.917C138.382 171.577 138.477 175.982 138.399 180.717L86.438 150.717C86.5159 145.982 86.4207 141.577 85.5893 139.917L137.551 169.917Z" fill="#8BC5E4"/>
<path fill-rule="evenodd" clip-rule="evenodd" d="M138.399 180.717C137.081 179.565 135.691 178.458 133.97 177.457L82.009 147.457C83.73 148.458 85.12 149.565 86.438 150.717L138.399 180.717Z" fill="#8BC5E4"/>
<path fill-rule="evenodd" clip-rule="evenodd" d="M133.956 177.448C132.821 176.789 131.543 176.175 130.047 175.624L78.086 145.624C79.582 146.175 80.86 146.789 81.995 147.448L133.956 177.448Z" fill="#8BC5E4"/>
<path fill-rule="evenodd" clip-rule="evenodd" d="M130.129 175.642C130.026 175.596 129.932 175.547 129.847 175.496L77.886 145.496C77.971 145.547 78.065 145.596 78.1674 145.642L130.129 175.642Z" fill="#8BC5E4"/>
<path fill-rule="evenodd" clip-rule="evenodd" d="M129.848 175.497C129.782 175.457 129.721 175.416 129.665 175.374L77.704 145.374C77.76 145.416 77.821 145.457 77.887 145.497L129.848 175.497Z" fill="#8BC5E4"/>
<path fill-rule="evenodd" clip-rule="evenodd" d="M129.666 175.375C129.081 174.932 129.019 174.318 129.132 173.443L77.171 143.443C77.058 144.318 77.12 144.932 77.705 145.375L129.666 175.375Z" fill="#8BC5E4"/>
<path fill-rule="evenodd" clip-rule="evenodd" d="M129.133 173.437C129.28 172.402 129.921 170.812 130.969 169.127L79.0075 139.127C77.9596 140.812 77.3187 142.402 77.1715 143.437L129.133 173.437Z" fill="#8BC5E4"/>
<path fill-rule="evenodd" clip-rule="evenodd" d="M130.969 169.127C131.818 168.067 132.484 167.382 133.004 167.072L81.0426 137.072C80.523 137.382 79.8562 138.067 79.0075 139.127L130.969 169.127Z" fill="#8BC5E4"/>
<path fill-rule="evenodd" clip-rule="evenodd" d="M175.128 146.402C174.617 146.677 174.114 147.157 173.707 147.742L121.746 117.742C122.153 117.157 122.655 116.677 123.166 116.402L175.128 146.402Z" fill="#8BC5E4"/>
<path fill-rule="evenodd" clip-rule="evenodd" d="M173.707 147.742C170.39 152.467 166.493 157.777 162.865 161.962L110.903 131.962C114.532 127.777 118.429 122.467 121.746 117.742L173.707 147.742Z" fill="#8BC5E4"/>
<path fill-rule="evenodd" clip-rule="evenodd" d="M162.865 161.962C159.236 166.157 155.902 169.012 154.083 169.532L102.122 139.532C103.94 139.012 107.275 136.157 110.903 131.962L162.865 161.962Z" fill="#8BC5E4"/>
<path fill-rule="evenodd" clip-rule="evenodd" d="M154.083 169.532C153.304 169.762 152.472 170.512 151.909 171.497L99.948 141.497C100.511 140.512 101.342 139.762 102.122 139.532L154.083 169.532Z" fill="#8BC5E4"/>
<path fill-rule="evenodd" clip-rule="evenodd" d="M151.91 171.497C151.347 172.482 151.13 173.567 151.347 174.332L99.3851 144.332C99.1685 143.567 99.3851 142.482 99.948 141.497L151.91 171.497Z" fill="#8BC5E4"/>
<path fill-rule="evenodd" clip-rule="evenodd" d="M151.347 174.332C154.464 185.382 149.762 204.617 146.384 217.687L94.4227 187.687C97.8002 174.617 102.503 155.382 99.3851 144.332L151.347 174.332Z" fill="#8BC5E4"/>
<path fill-rule="evenodd" clip-rule="evenodd" d="M146.384 217.687C146.085 218.858 146.342 219.773 146.969 220.096L95.008 190.096C94.381 189.773 94.124 188.858 94.4227 187.687L146.384 217.687Z" fill="#8BC5E4"/>
<path fill-rule="evenodd" clip-rule="evenodd" d="M146.967 220.094C147.193 220.211 147.467 220.251 147.781 220.198L95.819 190.198C95.505 190.251 95.231 190.211 95.005 190.094L146.967 220.094Z" fill="#8BC5E4"/>
<path fill-rule="evenodd" clip-rule="evenodd" d="M147.787 220.197C148.974 219.982 150.264 218.517 150.68 216.917L98.7182 186.917C98.3025 188.517 97.0121 189.982 95.8257 190.197L147.787 220.197Z" fill="#8BC5E4"/>
<path fill-rule="evenodd" clip-rule="evenodd" d="M150.68 216.917C153.797 204.807 158.5 186.582 156.309 173.577L104.347 143.577C106.538 156.582 101.836 174.807 98.7182 186.917L150.68 216.917Z" fill="#8BC5E4"/>
<path fill-rule="evenodd" clip-rule="evenodd" d="M156.309 173.577C159.115 171.737 162.007 168.787 164.891 165.452L112.93 135.452C110.046 138.787 107.153 141.737 104.347 143.577L156.309 173.577Z" fill="#8BC5E4"/>
<path fill-rule="evenodd" clip-rule="evenodd" d="M164.891 165.452C168.944 160.792 172.988 155.247 176.392 150.392L124.43 120.392C121.027 125.247 116.983 130.792 112.93 135.452L164.891 165.452Z" fill="#8BC5E4"/>
<path fill-rule="evenodd" clip-rule="evenodd" d="M176.392 150.392C177.189 149.282 177.526 147.917 177.241 147.012L125.279 117.012C125.565 117.917 125.227 119.282 124.43 120.392L176.392 150.392Z" fill="#8BC5E4"/>
<path fill-rule="evenodd" clip-rule="evenodd" d="M177.241 147.012C177.131 146.674 176.941 146.428 176.698 146.281L124.737 116.281C124.98 116.428 125.169 116.674 125.279 117.012L177.241 147.012Z" fill="#8BC5E4"/>
<path fill-rule="evenodd" clip-rule="evenodd" d="M176.699 146.282C176.294 146.036 175.737 146.064 175.133 146.399L123.172 116.399C123.776 116.064 124.333 116.036 124.738 116.282L176.699 146.282Z" fill="#8BC5E4"/>
<path fill-rule="evenodd" clip-rule="evenodd" d="M214.54 36.9573C216.253 35.9683 217.77 35.8983 218.826 36.5963L166.865 6.59628C165.809 5.89828 164.292 5.96828 162.579 6.95728L214.54 36.9573Z" fill="#8BC5E4"/>
<path fill-rule="evenodd" clip-rule="evenodd" d="M218.826 36.5952C219.788 37.2302 220.368 38.5022 220.369 40.2962L168.407 10.2962C168.406 8.50221 167.826 7.23021 166.864 6.59521L218.826 36.5952Z" fill="#8BC5E4"/>
<path fill-rule="evenodd" clip-rule="evenodd" d="M220.369 215.862C220.369 219.632 217.814 224.047 214.54 225.937L162.579 195.937C165.852 194.047 168.407 189.632 168.407 185.862L220.369 215.862Z" fill="#8BC5E4"/>
<path fill-rule="evenodd" clip-rule="evenodd" d="M62.5876 313.667C60.8745 314.656 59.3575 314.726 58.3015 314.028L6.34 284.028C7.396 284.726 8.913 284.656 10.6261 283.667L62.5876 313.667Z" fill="#8BC5E4"/>
<path fill-rule="evenodd" clip-rule="evenodd" d="M58.3025 314.029C57.3405 313.394 56.7605 312.122 56.7595 310.328L4.79797 280.328C4.79897 282.122 5.37897 283.394 6.34097 284.029L58.3025 314.029Z" fill="#8BC5E4"/>
<path fill-rule="evenodd" clip-rule="evenodd" d="M56.7593 134.762C56.7593 130.992 59.3141 126.577 62.5876 124.687L10.6261 94.6873C7.35249 96.5773 4.79779 100.992 4.79779 104.762L56.7593 134.762Z" fill="#8BC5E4"/>
<path fill-rule="evenodd" clip-rule="evenodd" d="M62.5876 119.177C56.742 122.552 51.9615 130.802 51.9615 137.532L0 107.532C0 100.802 4.7804 92.5522 10.6261 89.1772L62.5876 119.177Z" fill="#8BC5E4"/>
<path fill-rule="evenodd" clip-rule="evenodd" d="M51.9615 313.092C51.9615 316.299 53.0475 318.598 54.8165 319.761L2.855 289.761C1.086 288.598 0 286.299 0 283.092L51.9615 313.092Z" fill="#8BC5E4"/>
<path fill-rule="evenodd" clip-rule="evenodd" d="M54.8245 319.766C56.7665 321.036 59.5275 320.941 62.5795 319.182L10.618 289.182C7.56598 290.941 4.80498 291.036 2.86298 289.766L54.8245 319.766Z" fill="#8BC5E4"/>
<path fill-rule="evenodd" clip-rule="evenodd" d="M214.54 231.447C220.386 228.072 225.167 219.822 225.167 213.092L173.205 183.092C173.205 189.822 168.425 198.072 162.579 201.447L214.54 231.447Z" fill="#8BC5E4"/>
<path fill-rule="evenodd" clip-rule="evenodd" d="M225.167 37.5323C225.166 34.3253 224.08 32.0263 222.311 30.8633L170.35 0.863281C172.119 2.02628 173.205 4.32528 173.205 7.53228L225.167 37.5323Z" fill="#8BC5E4"/>
<path fill-rule="evenodd" clip-rule="evenodd" d="M222.304 30.8582C220.363 29.5882 217.602 29.6832 214.55 31.4422L162.588 1.4422C165.64 -0.316802 168.401 -0.411802 170.342 0.858198L222.304 30.8582Z" fill="#8BC5E4"/>
<path d="M120.412 119.282C115.086 122.097 109.994 126.517 105.56 132.287C105.516 132.342 105.482 132.392 105.439 132.447C96.9775 144.392 91.5995 154.357 88.3779 166.527C85.6585 176.647 86.8623 186.042 90.1965 194.417C93.5307 202.782 99.0646 210.187 105.525 216.137C105.534 216.142 105.542 216.147 105.56 216.157C119.252 227.922 134.346 235.667 153.234 230.882C154.023 230.707 154.871 229.987 155.469 228.982C156.066 227.987 156.3 226.882 156.092 226.082C155.885 225.292 155.261 224.932 154.464 225.162C137.031 229.567 122.551 222.407 109.111 210.877C103.897 206.077 99.4197 200.242 96.2327 193.912C97.0554 193.887 98.0254 193.187 98.7182 192.097C99.4024 191.012 99.6622 189.772 99.385 188.942C97.3932 182.762 95.5312 176.347 101.36 162.652C105.395 153.232 111.345 145.047 119.191 137.437C124.084 133.192 132.251 130.857 138.547 130.372C139.3 130.347 140.175 129.752 140.85 128.802C141.517 127.857 141.872 126.722 141.768 125.842C141.673 124.957 141.127 124.462 140.365 124.552C133.584 125.067 124.993 126.977 118.005 133.082C117.944 133.137 117.892 133.177 117.84 133.227C109.232 141.557 102.243 151.082 97.5577 161.987C97.5577 161.997 97.5577 161.997 97.5577 162.007C92.5694 173.717 92.5001 181.697 93.6433 187.617C91.2877 180.527 90.7075 173.052 92.6474 165.862C92.6474 165.852 92.6474 165.842 92.656 165.837C95.5399 154.872 99.9826 146.607 108.028 135.252C115.329 125.767 124.716 120.527 134.295 121.767C134.329 121.777 134.364 121.777 134.398 121.787C147.285 122.397 159.115 128.007 168.442 134.612C176.782 140.857 181.848 149.232 185.312 158.282C184.957 157.767 184.333 157.647 183.615 157.962C182.905 158.262 182.194 158.962 181.701 159.847C176.922 168.184 171.269 175.18 165.395 182.448C165.308 182.556 165.221 182.664 165.134 182.772C164.796 183.187 164.519 183.667 164.328 184.157C164.683 182.642 165.203 180.792 165.506 179.417C171.066 172.947 175.344 166.517 179.449 159.967C180.099 158.992 180.41 157.842 180.263 156.987C180.107 156.137 179.51 155.712 178.713 155.882C177.916 156.042 177.05 156.782 176.453 157.797C172.2 164.572 168.13 170.712 162.648 176.917C162.059 177.587 161.618 178.452 161.453 179.267C159.227 189.782 154.854 205.877 150.281 219.317C149.892 220.392 149.926 221.392 150.385 221.927C150.836 222.467 151.641 222.452 152.472 221.892C153.295 221.337 154.023 220.317 154.36 219.252C155.166 216.877 155.841 214.327 156.621 211.857C155.928 214.227 155.304 216.547 154.56 218.957C154.213 220.017 154.308 220.962 154.793 221.442C155.278 221.922 156.084 221.857 156.898 221.277C157.712 220.687 158.413 219.672 158.716 218.617C162.284 207.057 165.246 196.007 168.121 185.057C168.124 185.054 168.128 185.05 168.131 185.046C173.843 177.98 179.755 170.668 184.931 161.652C185.459 160.747 185.693 159.752 185.572 158.982C186.057 160.292 186.611 161.552 187.035 162.877C187.399 164.037 188.672 164.072 189.867 162.962C191.062 161.852 191.738 160.002 191.366 158.837C187.806 147.582 182.082 136.857 171.854 129.222C171.845 129.217 171.837 129.212 171.837 129.202C162.293 122.422 150.177 116.627 136.615 115.957C131.272 115.272 125.73 116.472 120.412 119.282ZM129.159 135.462C123.088 138.727 117.883 143.192 113.64 149.412C109.388 155.637 106.201 163.327 103.473 173.052C99.5063 187.022 100.537 196.577 104.694 204.177C104.702 204.182 104.702 204.182 104.702 204.182C106.928 208.147 110.747 210.262 114.229 211.992C114.324 212.039 114.419 212.086 114.513 212.133C117.882 213.796 120.91 215.292 121.694 216.532C122.274 217.467 123.651 217.162 124.76 215.852C125.859 214.537 126.284 212.712 125.704 211.777C124.049 209.152 120.724 208.072 117.329 206.392C113.934 204.712 110.522 202.642 108.79 199.552C104.988 192.617 104.131 185.052 107.699 172.512C107.699 172.502 107.708 172.487 107.708 172.487C110.262 163.362 113.094 156.797 116.411 151.942C119.719 147.082 123.642 143.637 129.038 140.742C129.064 140.727 129.09 140.712 129.107 140.702C137.057 136.132 142.054 135.947 146.514 136.532C150.966 137.122 154.845 138.732 160.223 137.057C161.444 136.682 162.666 135.107 162.951 133.542C163.237 131.977 162.475 131.007 161.263 131.387C157.218 132.642 153.685 131.362 148.887 130.732C144.098 130.097 138.01 130.382 129.159 135.462ZM132.684 143.557C128.804 145.727 125.323 148.647 122.369 152.042C122.343 152.077 122.309 152.117 122.283 152.142C116.706 158.942 112.09 167.127 109.492 176.847C109.492 176.867 109.483 176.892 109.474 176.917C108.21 181.977 107.378 186.207 107.413 189.727C107.456 193.232 108.504 195.967 110.695 197.402C110.73 197.432 110.773 197.457 110.817 197.472C115.233 199.572 118.628 202.942 122.837 205.012C122.837 205.022 122.846 205.027 122.854 205.022C130.008 208.392 130.83 214.097 129.765 220.312C129.497 221.877 130.267 222.822 131.497 222.422C132.718 222.027 133.931 220.437 134.199 218.872C135.55 210.942 133.922 203.182 125.903 199.412L125.92 199.422C122.182 197.582 118.759 194.2 113.994 191.916C113.957 191.898 113.92 191.88 113.882 191.862L114.012 191.927C114.006 191.923 114 191.92 113.994 191.916C112.518 190.956 111.977 189.532 111.951 187.047C111.925 184.552 112.566 180.902 113.761 176.142C115.995 167.792 119.659 161.337 124.439 155.497C128.942 150.327 135.472 146.107 143.552 145.422C145.094 145.312 146.237 145.962 147.588 146.882C148.939 147.812 150.472 148.997 152.827 149.147C152.845 149.157 152.871 149.152 152.897 149.157C154.915 149.182 157.123 148.027 159.201 146.777C161.289 145.532 163.263 144.082 164.536 143.197C165.783 142.327 166.684 140.527 166.554 139.162C166.424 137.807 165.307 137.412 164.06 138.282C162.674 139.262 160.856 140.582 159.115 141.617C157.383 142.657 155.772 143.307 154.993 143.307C153.529 143.195 152.38 142.415 151.036 141.503C151.004 141.481 150.972 141.459 150.94 141.437C149.537 140.487 147.882 139.412 145.38 139.597C145.371 139.592 145.362 139.597 145.354 139.602C140.824 139.987 136.564 141.387 132.684 143.557ZM134.961 152.212C130.614 154.332 126.578 158.362 122.898 163.977C122.88 164.007 122.863 164.027 122.846 164.057C119.624 169.177 117.442 173.967 116.783 178.327C116.125 182.677 117.121 186.262 119.468 188.937C119.485 188.957 119.503 188.967 119.511 188.982C124.604 194.152 127.695 193.727 133.099 197.117C137.499 200.347 141.145 203.592 142.184 209.402C141.534 214.047 140.764 218.442 139.759 222.212C139.456 223.277 139.595 224.197 140.114 224.627C140.642 225.052 141.474 224.922 142.288 224.272C143.093 223.637 143.76 222.582 144.02 221.532C145.016 217.787 145.804 213.672 146.471 209.347C146.852 208.567 147.025 207.757 146.938 207.097C146.913 206.902 146.835 206.777 146.8 206.597C148.194 196.242 148.757 184.597 148.393 171.687C148.385 171.652 148.385 171.602 148.385 171.562C148.116 167.977 148.012 162.987 146.999 158.742C145.995 154.482 143.977 150.777 139.699 150.717C139.612 150.717 139.508 150.727 139.413 150.742C137.897 151.007 136.408 151.507 134.961 152.212ZM134.537 157.537C135.533 157.092 136.589 156.802 137.741 156.587C140.348 156.682 141.751 158.962 142.591 162.497C143.44 166.067 143.587 170.722 143.855 174.527C144.089 182.952 143.881 190.782 143.362 198.042C141.413 195.457 138.962 193.502 136.477 191.677C136.451 191.662 136.434 191.642 136.408 191.637C130.64 187.997 127.929 188.612 123.235 183.842C121.339 181.677 120.836 179.387 121.235 176.727C121.633 174.057 123.071 170.647 125.816 166.282C128.891 161.597 131.411 158.942 134.537 157.537ZM133.056 162.022C131.567 162.872 129.982 164.247 128.466 166.172C128.362 166.302 128.267 166.437 128.172 166.582C126.388 169.352 125.045 172.347 124.664 175.137C124.283 177.947 125.123 180.352 127.081 181.262C127.098 181.282 127.124 181.287 127.15 181.302C132.744 183.392 134.953 185.997 138.625 189.467C139.188 190.012 140.166 189.817 141.076 188.982C141.976 188.162 142.626 186.867 142.695 185.737C143.145 178.667 143.916 169.862 141.69 165.397C141.682 165.392 141.682 165.382 141.682 165.382C140.651 163.407 139.291 161.522 137.057 161.082C135.931 160.862 134.546 161.172 133.056 162.022ZM150.966 153.402C149.961 154.042 149.104 155.347 148.87 156.612C148.645 157.862 149.086 158.777 149.961 158.842C157.036 159.547 165.939 152.067 172.261 146.347C173.465 145.262 174.166 143.407 173.82 142.227C173.474 141.037 172.218 140.962 171.014 142.057C165.004 147.497 157.201 153.522 152.265 153.022C151.875 152.977 151.424 153.107 150.966 153.402ZM133.004 167.072C133.55 166.757 134.009 166.762 134.52 166.877C135.559 167.067 136.702 168.297 137.551 169.917C138.382 171.577 138.477 175.982 138.399 180.717C136.208 178.802 133.818 177.012 130.042 175.622L130.129 175.642C129.116 175.187 128.994 174.507 129.133 173.437C129.28 172.402 129.921 170.812 130.969 169.127C131.818 168.067 132.485 167.382 133.004 167.072ZM175.128 146.402C174.617 146.677 174.114 147.157 173.707 147.742C170.39 152.467 166.493 157.777 162.865 161.962C159.236 166.157 155.902 169.012 154.083 169.532C153.304 169.762 152.472 170.512 151.909 171.497C151.347 172.482 151.13 173.567 151.347 174.332C154.464 185.382 149.762 204.617 146.384 217.687C145.977 219.282 146.601 220.402 147.787 220.197C148.974 219.982 150.264 218.517 150.68 216.917C150.686 216.894 150.692 216.871 150.697 216.848C153.815 204.738 158.496 186.558 156.309 173.577C159.115 171.737 162.007 168.787 164.891 165.452C168.944 160.792 172.989 155.247 176.392 150.392C177.189 149.282 177.527 147.917 177.241 147.012C176.946 146.112 176.098 145.862 175.128 146.402ZM62.5876 124.687L214.54 36.9573C217.814 35.0673 220.369 36.5323 220.369 40.3023V215.862C220.369 219.632 217.814 224.047 214.54 225.937L62.5876 313.667C59.314 315.557 56.7593 314.092 56.7593 310.322V134.762C56.7593 130.992 59.314 126.577 62.5876 124.687ZM62.5876 119.177C56.7419 122.552 51.9615 130.802 51.9615 137.532V313.092C51.9615 319.822 56.7419 322.552 62.5876 319.177L214.54 231.447C220.386 228.072 225.167 219.822 225.167 213.092V37.5323C225.167 30.8023 220.386 28.0723 214.54 31.4473L62.5876 119.177Z" fill="#8BC5E4"/>
<path fill-rule="evenodd" clip-rule="evenodd" d="M62.5876 124.687L214.54 36.9573C217.814 35.0673 220.369 36.5323 220.369 40.3023V215.862C220.369 219.632 217.814 224.047 214.54 225.937L62.5876 313.667C59.314 315.557 56.7593 314.092 56.7593 310.322V134.762C56.7593 130.992 59.314 126.577 62.5876 124.687ZM105.56 132.287C109.994 126.517 115.086 122.097 120.412 119.282C125.73 116.472 131.272 115.272 136.615 115.957C150.177 116.627 162.293 122.422 171.837 129.202C171.837 129.212 171.845 129.217 171.854 129.222C182.082 136.857 187.806 147.582 191.366 158.837C191.738 160.002 191.062 161.852 189.867 162.962C188.672 164.072 187.399 164.037 187.035 162.877C186.611 161.552 186.057 160.292 185.572 158.982C185.693 159.752 185.459 160.747 184.931 161.652C179.755 170.668 173.843 177.98 168.131 185.046L168.121 185.057C165.246 196.007 162.284 207.057 158.716 218.617C158.413 219.672 157.712 220.687 156.898 221.277C156.084 221.857 155.278 221.922 154.793 221.442C154.308 220.962 154.213 220.017 154.56 218.957C155.304 216.547 155.928 214.227 156.621 211.857C155.841 214.327 155.166 216.877 154.36 219.252C154.023 220.317 153.295 221.337 152.472 221.892C151.641 222.452 150.836 222.467 150.385 221.927C149.926 221.392 149.892 220.392 150.281 219.317C154.854 205.877 159.227 189.782 161.453 179.267C161.618 178.452 162.059 177.587 162.648 176.917C168.13 170.712 172.2 164.572 176.453 157.797C177.05 156.782 177.916 156.042 178.713 155.882C179.51 155.712 180.107 156.137 180.263 156.987C180.41 157.842 180.099 158.992 179.449 159.967C175.344 166.517 171.066 172.947 165.506 179.417C165.203 180.792 164.683 182.642 164.328 184.157C164.519 183.667 164.796 183.187 165.134 182.772L165.395 182.448C171.269 175.18 176.922 168.184 181.701 159.847C182.194 158.962 182.905 158.262 183.615 157.962C184.333 157.647 184.957 157.767 185.312 158.282C181.848 149.232 176.782 140.857 168.442 134.612C159.115 128.007 147.285 122.397 134.398 121.787C134.364 121.777 134.329 121.777 134.295 121.767C124.716 120.527 115.329 125.767 108.028 135.252C99.9826 146.607 95.5399 154.872 92.656 165.837C92.6474 165.842 92.6474 165.852 92.6474 165.862C90.7075 173.052 91.2877 180.527 93.6433 187.617C92.5001 181.697 92.5694 173.717 97.5577 162.007V161.987C102.243 151.082 109.232 141.557 117.84 133.227C117.892 133.177 117.944 133.137 118.005 133.082C124.993 126.977 133.584 125.067 140.365 124.552C141.127 124.462 141.673 124.957 141.768 125.842C141.872 126.722 141.517 127.857 140.85 128.802C140.175 129.752 139.3 130.347 138.547 130.372C132.251 130.857 124.084 133.192 119.191 137.437C111.345 145.047 105.395 153.232 101.36 162.652C95.5312 176.347 97.3932 182.762 99.385 188.942C99.6622 189.772 99.4024 191.012 98.7182 192.097C98.0254 193.187 97.0554 193.887 96.2327 193.912C99.4197 200.242 103.897 206.077 109.111 210.877C122.551 222.407 137.031 229.567 154.464 225.162C155.261 224.932 155.885 225.292 156.092 226.082C156.3 226.882 156.066 227.987 155.469 228.982C154.871 229.987 154.023 230.707 153.234 230.882C134.346 235.667 119.252 227.922 105.56 216.157L105.525 216.137C99.0646 210.187 93.5307 202.782 90.1965 194.417C86.8623 186.042 85.6585 176.647 88.3779 166.527C91.5995 154.357 96.9775 144.392 105.439 132.447C105.482 132.392 105.516 132.342 105.56 132.287ZM113.64 149.412C117.883 143.192 123.088 138.727 129.159 135.462C138.01 130.382 144.098 130.097 148.887 130.732C153.685 131.362 157.218 132.642 161.263 131.387C162.475 131.007 163.237 131.977 162.951 133.542C162.666 135.107 161.444 136.682 160.223 137.057C154.845 138.732 150.966 137.122 146.514 136.532C142.054 135.947 137.057 136.132 129.107 140.702L129.038 140.742C123.642 143.637 119.719 147.082 116.411 151.942C113.094 156.797 110.262 163.362 107.708 172.487C107.708 172.487 107.699 172.502 107.699 172.512C104.131 185.052 104.988 192.617 108.79 199.552C110.522 202.642 113.934 204.712 117.329 206.392C120.724 208.072 124.049 209.152 125.704 211.777C126.284 212.712 125.859 214.537 124.76 215.852C123.651 217.162 122.274 217.467 121.694 216.532C120.91 215.292 117.882 213.796 114.513 212.133L114.229 211.992C110.747 210.262 106.928 208.147 104.702 204.182L104.694 204.177C100.537 196.577 99.5063 187.022 103.473 173.052C106.201 163.327 109.388 155.637 113.64 149.412ZM122.369 152.042C125.323 148.647 128.804 145.727 132.684 143.557C136.564 141.387 140.824 139.987 145.354 139.602C145.362 139.597 145.371 139.592 145.38 139.597C147.882 139.412 149.537 140.487 150.94 141.437L151.036 141.503C152.38 142.415 153.529 143.195 154.993 143.307C155.772 143.307 157.383 142.657 159.115 141.617C160.856 140.582 162.674 139.262 164.06 138.282C165.307 137.412 166.424 137.807 166.554 139.162C166.684 140.527 165.783 142.327 164.536 143.197C163.263 144.082 161.289 145.532 159.201 146.777C157.123 148.027 154.915 149.182 152.897 149.157C152.871 149.152 152.845 149.157 152.827 149.147C150.472 148.997 148.939 147.812 147.588 146.882C146.237 145.962 145.094 145.312 143.552 145.422C135.472 146.107 128.942 150.327 124.439 155.497C119.659 161.337 115.995 167.792 113.761 176.142C112.566 180.902 111.925 184.552 111.951 187.047C111.977 189.532 112.518 190.956 113.994 191.916C118.759 194.2 122.182 197.582 125.92 199.422L125.903 199.412C133.922 203.182 135.55 210.942 134.199 218.872C133.931 220.437 132.718 222.027 131.497 222.422C130.267 222.822 129.497 221.877 129.765 220.312C130.83 214.097 130.008 208.392 122.854 205.022C122.846 205.027 122.837 205.022 122.837 205.012C118.628 202.942 115.233 199.572 110.817 197.472C110.773 197.457 110.73 197.432 110.695 197.402C108.504 195.967 107.456 193.232 107.413 189.727C107.378 186.207 108.21 181.977 109.474 176.917C109.483 176.892 109.492 176.867 109.492 176.847C112.09 167.127 116.706 158.942 122.283 152.142C122.309 152.117 122.343 152.077 122.369 152.042ZM122.898 163.977C126.578 158.362 130.614 154.332 134.961 152.212C136.408 151.507 137.897 151.007 139.413 150.742C139.508 150.727 139.612 150.717 139.699 150.717C143.977 150.777 145.995 154.482 146.999 158.742C148.012 162.987 148.116 167.977 148.385 171.562C148.385 171.602 148.385 171.652 148.393 171.687C148.757 184.597 148.194 196.242 146.8 206.597C146.835 206.777 146.913 206.902 146.938 207.097C147.025 207.757 146.852 208.567 146.471 209.347C145.804 213.672 145.016 217.787 144.02 221.532C143.76 222.582 143.093 223.637 142.288 224.272C141.474 224.922 140.642 225.052 140.114 224.627C139.595 224.197 139.456 223.277 139.759 222.212C140.764 218.442 141.534 214.047 142.184 209.402C141.145 203.592 137.499 200.347 133.099 197.117C127.695 193.727 124.604 194.152 119.511 188.982C119.503 188.967 119.485 188.957 119.468 188.937C117.121 186.262 116.125 182.677 116.783 178.327C117.442 173.967 119.624 169.177 122.846 164.057C122.863 164.027 122.88 164.007 122.898 163.977ZM148.87 156.612C149.104 155.347 149.961 154.042 150.966 153.402C151.424 153.107 151.875 152.977 152.265 153.022C157.201 153.522 165.004 147.497 171.014 142.057C172.218 140.962 173.474 141.037 173.82 142.227C174.166 143.407 173.465 145.262 172.261 146.347C165.939 152.067 157.036 159.547 149.961 158.842C149.086 158.777 148.645 157.862 148.87 156.612ZM173.707 147.742C174.114 147.157 174.617 146.677 175.128 146.402C176.098 145.862 176.946 146.112 177.241 147.012C177.527 147.917 177.189 149.282 176.392 150.392C172.989 155.247 168.944 160.792 164.891 165.452C162.007 168.787 159.115 171.737 156.309 173.577C158.496 186.558 153.815 204.738 150.697 216.848L150.68 216.917C150.264 218.517 148.974 219.982 147.787 220.197C146.601 220.402 145.977 219.282 146.384 217.687C149.762 204.617 154.464 185.382 151.347 174.332C151.13 173.567 151.347 172.482 151.909 171.497C152.472 170.512 153.304 169.762 154.083 169.532C155.902 169.012 159.236 166.157 162.865 161.962C166.493 157.777 170.39 152.467 173.707 147.742Z" fill="white"/>
</svg>
