<svg width="226" height="165" viewBox="0 0 226 165" fill="none" xmlns="http://www.w3.org/2000/svg">
<path fill-rule="evenodd" clip-rule="evenodd" d="M77.7559 121.659L93.0759 130.504L145.037 100.504L129.717 91.6589L77.7559 121.659Z" fill="#8BC5E4"/>
<path fill-rule="evenodd" clip-rule="evenodd" d="M93.0757 130.504L105.945 125.284L157.906 95.2839L145.037 100.504L93.0757 130.504Z" fill="#8BC5E4"/>
<path fill-rule="evenodd" clip-rule="evenodd" d="M105.945 125.284L115.948 140.879L167.909 110.879L157.907 95.2839L105.945 125.284Z" fill="#8BC5E4"/>
<path fill-rule="evenodd" clip-rule="evenodd" d="M115.948 140.879L125.638 136.654L177.6 106.654L167.909 110.879L115.948 140.879Z" fill="#8BC5E4"/>
<path fill-rule="evenodd" clip-rule="evenodd" d="M125.638 136.654L135.087 151.929L187.048 121.929L177.6 106.654L125.638 136.654Z" fill="#8BC5E4"/>
<path fill-rule="evenodd" clip-rule="evenodd" d="M135.087 151.929L145.167 147.929L197.129 117.929L187.048 121.929L135.087 151.929Z" fill="#8BC5E4"/>
<path fill-rule="evenodd" clip-rule="evenodd" d="M145.167 147.929L155.196 163.539L207.157 133.539L197.129 117.929L145.167 147.929Z" fill="#8BC5E4"/>
<path fill-rule="evenodd" clip-rule="evenodd" d="M155.196 163.539L171.971 156.704L223.932 126.704L207.157 133.539L155.196 163.539Z" fill="#8BC5E4"/>
<path fill-rule="evenodd" clip-rule="evenodd" d="M171.971 150.104L157.742 128.089L209.704 98.0889L223.932 120.104L171.971 150.104Z" fill="#8BC5E4"/>
<path fill-rule="evenodd" clip-rule="evenodd" d="M157.742 128.089L77.9116 81.999L129.873 51.999L209.703 98.089L157.742 128.089Z" fill="#8BC5E4"/>
<path fill-rule="evenodd" clip-rule="evenodd" d="M41.5212 35.719L93.4828 5.71899L41.5212 35.719Z" fill="#8BC5E4"/>
<path fill-rule="evenodd" clip-rule="evenodd" d="M23.7332 59.0291L75.6947 29.0291L23.7332 59.0291Z" fill="#8BC5E4"/>
<path fill-rule="evenodd" clip-rule="evenodd" d="M41.5214 35.7189C31.7711 30.0899 22.3841 28.5719 15.0491 31.3619L67.0106 1.36194C74.3456 -1.42806 83.7326 0.0899348 93.483 5.71894L41.5214 35.7189Z" fill="#8BC5E4"/>
<path fill-rule="evenodd" clip-rule="evenodd" d="M15.0541 31.3599C14.3041 31.6459 13.5751 31.9759 12.8701 32.3509L64.8316 2.35086C65.5366 1.97586 66.2656 1.64586 67.0156 1.35986L15.0541 31.3599Z" fill="#8BC5E4"/>
<path fill-rule="evenodd" clip-rule="evenodd" d="M12.8644 32.354C12.1779 32.72 11.5199 33.127 10.8879 33.572L62.8494 3.572C63.4814 3.127 64.1394 2.72 64.826 2.354L12.8644 32.354Z" fill="#8BC5E4"/>
<path fill-rule="evenodd" clip-rule="evenodd" d="M10.889 33.572C4.535 38.055 1.002 46.467 1 57.315L52.9615 27.315C52.9635 16.467 56.4965 8.05502 62.8505 3.57202L10.889 33.572Z" fill="#8BC5E4"/>
<path fill-rule="evenodd" clip-rule="evenodd" d="M1 57.324C1 69.254 5.2695 83.169 12.8645 95.994L64.8261 65.994C57.231 53.169 52.9615 39.254 52.9615 27.324L1 57.324Z" fill="#8BC5E4"/>
<path fill-rule="evenodd" clip-rule="evenodd" d="M12.8645 95.9939C20.4683 108.824 30.774 119.514 41.5213 125.719L93.4829 95.7189C82.7355 89.5139 72.4298 78.8239 64.8261 65.9939L12.8645 95.9939Z" fill="#8BC5E4"/>
<path fill-rule="evenodd" clip-rule="evenodd" d="M41.5212 125.719C52.8339 132.236 63.4279 133.105 70.9559 128.582L122.917 98.582C115.389 103.105 104.795 102.236 93.4828 95.719L41.5212 125.719Z" fill="#8BC5E4"/>
<path fill-rule="evenodd" clip-rule="evenodd" d="M70.9651 128.576C73.6551 126.958 75.9521 124.651 77.7511 121.667L129.713 91.667C127.914 94.651 125.617 96.958 122.927 98.576L70.9651 128.576Z" fill="#8BC5E4"/>
<path fill-rule="evenodd" clip-rule="evenodd" d="M171.971 156.704C172.163 156.61 172.339 156.51 172.498 156.404L224.46 126.404C224.301 126.51 224.125 126.61 223.932 126.704L171.971 156.704Z" fill="#8BC5E4"/>
<path fill-rule="evenodd" clip-rule="evenodd" d="M172.497 156.404C174.107 155.328 174.005 153.565 171.974 150.11L223.936 120.11C225.967 123.565 226.069 125.328 224.459 126.404L172.497 156.404Z" fill="#8BC5E4"/>
<path fill-rule="evenodd" clip-rule="evenodd" d="M77.9116 81.999C71.122 62.629 56.9971 44.664 41.5212 35.719L93.4828 5.71899C108.959 14.664 123.084 32.629 129.873 51.999L77.9116 81.999Z" fill="#8BC5E4"/>
<path fill-rule="evenodd" clip-rule="evenodd" d="M23.7332 59.0291C29.4143 62.3091 34.0215 70.0891 34.0215 76.3991L85.9831 46.3991C85.9831 40.0891 81.3758 32.3091 75.6947 29.0291L23.7332 59.0291Z" fill="#8BC5E4"/>
<path fill-rule="evenodd" clip-rule="evenodd" d="M34.0214 76.3989C34.0219 79.4679 32.9319 81.6239 31.1589 82.6509L83.1204 52.6509C84.8934 51.6239 85.9834 49.4679 85.983 46.3989L34.0214 76.3989Z" fill="#8BC5E4"/>
<path fill-rule="evenodd" clip-rule="evenodd" d="M31.162 82.65C29.291 83.736 26.658 83.565 23.741 81.884L75.7025 51.884C78.6195 53.565 81.2525 53.736 83.1235 52.65L31.162 82.65Z" fill="#8BC5E4"/>
<path fill-rule="evenodd" clip-rule="evenodd" d="M23.7332 81.879C18.052 78.599 13.4448 70.829 13.4448 64.519L65.4063 34.519C65.4063 40.829 70.0136 48.599 75.6947 51.879L23.7332 81.879Z" fill="#8BC5E4"/>
<path fill-rule="evenodd" clip-rule="evenodd" d="M13.4448 64.519C13.445 61.45 14.534 59.292 16.307 58.262L68.2685 28.262C66.4955 29.292 65.4065 31.45 65.4063 34.519L13.4448 64.519Z" fill="#8BC5E4"/>
<path fill-rule="evenodd" clip-rule="evenodd" d="M16.3049 58.2629C18.1759 57.1739 20.8089 57.3429 23.7249 59.0239L75.6864 29.0239C72.7704 27.3429 70.1374 27.1739 68.2664 28.2629L16.3049 58.2629Z" fill="#8BC5E4"/>
<path d="M41.5213 35.7189C30.774 29.5139 20.4683 28.3039 12.8645 32.3539C5.2695 36.4089 1 45.3939 1 57.3239C1 69.2539 5.2695 83.1689 12.8645 95.9939C20.4683 108.824 30.774 119.514 41.5213 125.719C56.8846 134.569 70.9229 133.004 77.7558 121.659L93.0758 130.504L105.945 125.284L115.948 140.879L125.638 136.654L135.087 151.929L145.167 147.929L155.196 163.539L171.971 156.704C174.11 155.659 174.205 153.904 171.971 150.104L157.742 128.089L77.9117 81.9989C71.1221 62.6289 56.9972 44.6639 41.5213 35.7189ZM23.7332 59.0289C29.4143 62.3089 34.0215 70.0889 34.0215 76.3989C34.0215 82.7089 29.4143 85.1589 23.7332 81.8789C18.052 78.5989 13.4448 70.8289 13.4448 64.5189C13.4448 58.2089 18.052 55.7489 23.7332 59.0289Z" fill="white" stroke="#8BC5E4"/>
</svg>
