<svg width="226" height="169" viewBox="0 0 226 169" fill="none" xmlns="http://www.w3.org/2000/svg">
<path fill-rule="evenodd" clip-rule="evenodd" d="M128.717 115.93L144.037 107.085L92.0756 77.0852L76.7556 85.9302L128.717 115.93Z" fill="#8BC5E4"/>
<path fill-rule="evenodd" clip-rule="evenodd" d="M144.037 107.085L156.906 87.0051L104.945 57.0051L92.0757 77.0851L144.037 107.085Z" fill="#8BC5E4"/>
<path fill-rule="evenodd" clip-rule="evenodd" d="M156.906 87.0051L166.909 91.0501L114.947 61.0501L104.945 57.0051L156.906 87.0051Z" fill="#8BC5E4"/>
<path fill-rule="evenodd" clip-rule="evenodd" d="M166.909 91.05L176.6 75.635L124.638 45.635L114.948 61.05L166.909 91.05Z" fill="#8BC5E4"/>
<path fill-rule="evenodd" clip-rule="evenodd" d="M176.6 75.635L186.048 80L134.087 50L124.638 45.635L176.6 75.635Z" fill="#8BC5E4"/>
<path fill-rule="evenodd" clip-rule="evenodd" d="M186.048 80.0001L196.129 64.3601L144.167 34.3601L134.087 50.0001L186.048 80.0001Z" fill="#8BC5E4"/>
<path fill-rule="evenodd" clip-rule="evenodd" d="M196.129 64.3601L206.157 68.3901L154.196 38.3901L144.167 34.3601L196.129 64.3601Z" fill="#8BC5E4"/>
<path fill-rule="evenodd" clip-rule="evenodd" d="M206.157 68.3901L222.932 42.1851L170.971 12.1851L154.196 38.3901L206.157 68.3901Z" fill="#8BC5E4"/>
<path fill-rule="evenodd" clip-rule="evenodd" d="M222.932 35.585L208.703 30L156.742 0L170.971 5.585L222.932 35.585Z" fill="#8BC5E4"/>
<path fill-rule="evenodd" clip-rule="evenodd" d="M208.703 30L128.873 76.09L76.9116 46.09L156.742 0L208.703 30Z" fill="#8BC5E4"/>
<path fill-rule="evenodd" clip-rule="evenodd" d="M92.4827 71.8301L40.5212 41.8301L92.4827 71.8301Z" fill="#8BC5E4"/>
<path fill-rule="evenodd" clip-rule="evenodd" d="M74.6945 115.68L22.7329 85.6802L74.6945 115.68Z" fill="#8BC5E4"/>
<path fill-rule="evenodd" clip-rule="evenodd" d="M92.4828 71.8301C81.7355 78.0351 71.4298 88.7251 63.826 101.555L11.8645 71.5551C19.4682 58.7251 29.7739 48.0351 40.5213 41.8301L92.4828 71.8301Z" fill="#8BC5E4"/>
<path fill-rule="evenodd" clip-rule="evenodd" d="M63.826 101.555C56.231 114.38 51.9615 128.295 51.9615 140.225L0 110.225C0 98.2952 4.2695 84.3802 11.8645 71.5552L63.826 101.555Z" fill="#8BC5E4"/>
<path fill-rule="evenodd" clip-rule="evenodd" d="M51.9615 140.225C51.9615 151.077 55.4945 159.493 61.8495 163.977L9.888 133.977C3.533 129.493 0 121.077 0 110.225L51.9615 140.225Z" fill="#8BC5E4"/>
<path fill-rule="evenodd" clip-rule="evenodd" d="M61.8555 163.981C62.4835 164.423 63.1385 164.828 63.8205 165.192L11.859 135.192C11.177 134.828 10.522 134.423 9.89404 133.981L61.8555 163.981Z" fill="#8BC5E4"/>
<path fill-rule="evenodd" clip-rule="evenodd" d="M63.826 165.195C64.5315 165.571 65.2605 165.901 66.0105 166.187L14.049 136.187C13.299 135.901 12.57 135.571 11.8645 135.195L63.826 165.195Z" fill="#8BC5E4"/>
<path fill-rule="evenodd" clip-rule="evenodd" d="M66.0093 166.186C73.3424 168.977 82.7273 167.461 92.4743 161.835L40.5129 131.835C30.7659 137.461 21.3809 138.977 14.0479 136.186L66.0093 166.186Z" fill="#8BC5E4"/>
<path fill-rule="evenodd" clip-rule="evenodd" d="M92.4827 161.83C107.846 152.94 121.884 135.165 128.717 115.93L76.7557 85.9302C69.9228 105.165 55.8845 122.94 40.5212 131.83L92.4827 161.83Z" fill="#8BC5E4"/>
<path fill-rule="evenodd" clip-rule="evenodd" d="M222.932 42.1851C224.888 38.9721 225.136 37.1381 223.457 35.9141L171.495 5.91406C173.174 7.13806 172.926 8.97206 170.971 12.1851L222.932 42.1851Z" fill="#8BC5E4"/>
<path fill-rule="evenodd" clip-rule="evenodd" d="M223.451 35.9111C223.297 35.7981 223.126 35.6911 222.939 35.5891L170.977 5.58911C171.164 5.69111 171.335 5.79811 171.489 5.91111L223.451 35.9111Z" fill="#8BC5E4"/>
<path fill-rule="evenodd" clip-rule="evenodd" d="M128.873 76.09C127.089 73.061 124.799 70.714 122.112 69.061L70.1509 39.061C72.8379 40.714 75.1279 43.061 76.9116 46.09L128.873 76.09Z" fill="#8BC5E4"/>
<path fill-rule="evenodd" clip-rule="evenodd" d="M122.113 69.061C114.571 64.421 103.897 65.249 92.4884 71.827L40.5269 41.827C51.9359 35.249 62.6099 34.421 70.1519 39.061L122.113 69.061Z" fill="#8BC5E4"/>
<path fill-rule="evenodd" clip-rule="evenodd" d="M74.6945 115.68C77.6123 113.995 80.2473 113.825 82.1203 114.913L30.1588 84.913C28.2858 83.825 25.6508 83.995 22.7329 85.68L74.6945 115.68Z" fill="#8BC5E4"/>
<path fill-rule="evenodd" clip-rule="evenodd" d="M82.1175 114.912C83.8905 115.94 84.9815 118.096 84.9835 121.161L33.022 91.1611C33.02 88.0961 31.929 85.9401 30.156 84.9121L82.1175 114.912Z" fill="#8BC5E4"/>
<path fill-rule="evenodd" clip-rule="evenodd" d="M84.9828 121.17C84.9828 127.48 80.3756 135.25 74.6945 138.53L22.7329 108.53C28.4141 105.25 33.0213 97.4802 33.0213 91.1702L84.9828 121.17Z" fill="#8BC5E4"/>
<path fill-rule="evenodd" clip-rule="evenodd" d="M74.6946 138.53C71.7764 140.215 69.1414 140.388 67.2684 139.302L15.3069 109.302C17.1799 110.388 19.8149 110.215 22.733 108.53L74.6946 138.53Z" fill="#8BC5E4"/>
<path fill-rule="evenodd" clip-rule="evenodd" d="M67.2713 139.304C65.4983 138.277 64.4083 136.124 64.4063 133.059L12.4448 103.059C12.4468 106.124 13.5368 108.277 15.3098 109.304L67.2713 139.304Z" fill="#8BC5E4"/>
<path fill-rule="evenodd" clip-rule="evenodd" d="M64.4063 133.05C64.4063 126.74 69.0135 118.96 74.6947 115.68L22.7331 85.6802C17.052 88.9602 12.4448 96.7402 12.4448 103.05L64.4063 133.05Z" fill="#8BC5E4"/>
<path fill-rule="evenodd" clip-rule="evenodd" d="M92.4828 71.83C81.7354 78.035 71.4297 88.725 63.826 101.555C56.2309 114.38 51.9614 128.295 51.9614 140.225C51.9614 152.155 56.2309 161.14 63.826 165.195C71.4297 169.245 81.7354 168.035 92.4828 161.83C107.846 152.94 121.884 135.165 128.717 115.93L144.037 107.085L156.906 87.005L166.909 91.05L176.6 75.635L186.048 80L196.129 64.36L206.157 68.39L222.932 42.185C225.071 38.67 225.167 36.805 222.932 35.585L208.703 30L128.873 76.09C122.083 64.56 107.959 62.905 92.4828 71.83ZM84.983 121.17C84.983 114.86 80.3757 112.4 74.6946 115.68C69.0135 118.96 64.4062 126.74 64.4062 133.05C64.4062 139.36 69.0135 141.81 74.6946 138.53C80.3757 135.25 84.983 127.48 84.983 121.17Z" fill="white" stroke="#8BC5E4"/>
</svg>
