<svg width="225" height="248" viewBox="0 0 225 248" fill="none" xmlns="http://www.w3.org/2000/svg">
<path fill-rule="evenodd" clip-rule="evenodd" d="M135.472 97.7573V121.087L83.51 91.0873V67.7573L135.472 97.7573Z" fill="#8BC5E4"/>
<path fill-rule="evenodd" clip-rule="evenodd" d="M127.807 144.882L112.08 171.882L60.1187 141.882L75.8458 114.882L127.807 144.882Z" fill="#8BC5E4"/>
<path fill-rule="evenodd" clip-rule="evenodd" d="M116.125 173.767L131.471 147.437L79.509 117.437L64.1631 143.767L116.125 173.767Z" fill="#8BC5E4"/>
<path fill-rule="evenodd" clip-rule="evenodd" d="M145.015 139.657L160.413 148.297L108.452 118.297L93.0537 109.657L145.015 139.657Z" fill="#8BC5E4"/>
<path fill-rule="evenodd" clip-rule="evenodd" d="M164.561 141.792L148.713 132.892L96.7515 102.892L112.6 111.792L164.561 141.792Z" fill="#8BC5E4"/>
<path fill-rule="evenodd" clip-rule="evenodd" d="M140.98 117.887V94.5673L89.0181 64.5673V87.8873L140.98 117.887Z" fill="#8BC5E4"/>
<path fill-rule="evenodd" clip-rule="evenodd" d="M138.2 69.7023L86.238 39.7023L138.2 69.7023Z" fill="#8BC5E4"/>
<path fill-rule="evenodd" clip-rule="evenodd" d="M131.176 39.8573L131.167 39.8723L79.2058 9.8723L79.2145 9.8573L131.176 39.8573Z" fill="#8BC5E4"/>
<path fill-rule="evenodd" clip-rule="evenodd" d="M131.167 39.8823L53.3031 236.647L1.34155 206.647L79.2059 9.88232L131.167 39.8823Z" fill="#8BC5E4"/>
<path fill-rule="evenodd" clip-rule="evenodd" d="M53.303 236.647L53.2944 236.672L1.33276 206.672L1.34146 206.647L53.303 236.647Z" fill="#8BC5E4"/>
<path fill-rule="evenodd" clip-rule="evenodd" d="M59.0621 246.412L216.774 155.357L164.812 125.357L7.10059 216.412L59.0621 246.412Z" fill="#8BC5E4"/>
<path fill-rule="evenodd" clip-rule="evenodd" d="M222.949 139.212V139.202L170.987 109.202V109.212L222.949 139.212Z" fill="#8BC5E4"/>
<path fill-rule="evenodd" clip-rule="evenodd" d="M222.949 139.202V139.192L170.987 109.192V109.202L222.949 139.202Z" fill="#8BC5E4"/>
<path fill-rule="evenodd" clip-rule="evenodd" d="M222.949 139.192L144.729 32.0323L92.7678 2.03235L170.987 109.192L222.949 139.192Z" fill="#8BC5E4"/>
<path fill-rule="evenodd" clip-rule="evenodd" d="M137.983 30.8773L86.0215 0.877319L137.983 30.8773Z" fill="#8BC5E4"/>
<path fill-rule="evenodd" clip-rule="evenodd" d="M142.001 35.3873L142.01 35.3823L90.0485 5.38232L90.0398 5.38732L142.001 35.3873Z" fill="#8BC5E4"/>
<path fill-rule="evenodd" clip-rule="evenodd" d="M142.01 35.3823L220.221 142.547L168.259 112.547L90.0486 5.38232L142.01 35.3823Z" fill="#8BC5E4"/>
<path fill-rule="evenodd" clip-rule="evenodd" d="M220.221 142.547V142.557L168.259 112.557V112.547L220.221 142.547Z" fill="#8BC5E4"/>
<path fill-rule="evenodd" clip-rule="evenodd" d="M216.774 151.797L59.0621 242.852L7.10059 212.852L164.812 121.797L216.774 151.797Z" fill="#8BC5E4"/>
<path fill-rule="evenodd" clip-rule="evenodd" d="M56.0484 236.802L133.895 40.0673L81.9339 10.0673L4.08691 206.802L56.0484 236.802Z" fill="#8BC5E4"/>
<path fill-rule="evenodd" clip-rule="evenodd" d="M133.895 40.0672L133.904 40.0522L81.9425 10.0522L81.9338 10.0672L133.895 40.0672Z" fill="#8BC5E4"/>
<path fill-rule="evenodd" clip-rule="evenodd" d="M137.957 34.4423L85.9956 4.44226L137.957 34.4423Z" fill="#8BC5E4"/>
<path fill-rule="evenodd" clip-rule="evenodd" d="M138.199 69.7023C131.644 73.4873 126.317 82.5823 126.317 89.9923L74.356 59.9923C74.356 52.5823 79.682 43.4873 86.2379 39.7023L138.199 69.7023Z" fill="#8BC5E4"/>
<path fill-rule="evenodd" clip-rule="evenodd" d="M126.317 89.9923C126.322 93.6705 127.65 96.2975 129.844 97.4845L77.8828 67.4845C75.6888 66.2975 74.3608 63.6705 74.356 59.9923L126.317 89.9923Z" fill="#8BC5E4"/>
<path fill-rule="evenodd" clip-rule="evenodd" d="M129.841 97.4835C131.353 98.3025 133.277 98.4375 135.463 97.7595L83.5019 67.7595C81.3159 68.4375 79.3919 68.3025 77.8799 67.4835L129.841 97.4835Z" fill="#8BC5E4"/>
<path fill-rule="evenodd" clip-rule="evenodd" d="M135.472 121.087C130.145 125.622 126.396 133.177 126.396 139.367L74.4341 109.367C74.4341 103.177 78.184 95.6223 83.5101 91.0873L135.472 121.087Z" fill="#8BC5E4"/>
<path fill-rule="evenodd" clip-rule="evenodd" d="M126.396 139.367C126.396 141.577 126.881 143.467 127.807 144.882L75.8458 114.882C74.9191 113.467 74.4341 111.577 74.4341 109.367L126.396 139.367Z" fill="#8BC5E4"/>
<path fill-rule="evenodd" clip-rule="evenodd" d="M112.08 171.882C110.305 171.777 108.304 172.332 106.269 173.507L54.3076 143.507C56.3428 142.332 58.3433 141.777 60.1186 141.882L112.08 171.882Z" fill="#8BC5E4"/>
<path fill-rule="evenodd" clip-rule="evenodd" d="M106.269 173.507C103.117 175.327 100.094 178.492 97.8599 182.292L45.8984 152.292C48.1327 148.492 51.1552 145.327 54.3075 143.507L106.269 173.507Z" fill="#8BC5E4"/>
<path fill-rule="evenodd" clip-rule="evenodd" d="M97.8601 182.292C95.6344 186.097 94.3787 190.242 94.3787 193.802L42.4172 163.802C42.4172 160.242 43.6729 156.097 45.8986 152.292L97.8601 182.292Z" fill="#8BC5E4"/>
<path fill-rule="evenodd" clip-rule="evenodd" d="M94.3787 193.802C94.3785 197.377 95.6185 199.91 97.6385 201.149L45.677 171.149C43.657 169.91 42.417 167.377 42.4172 163.802L94.3787 193.802Z" fill="#8BC5E4"/>
<path fill-rule="evenodd" clip-rule="evenodd" d="M97.6363 201.148C99.8033 202.478 102.868 202.319 106.264 200.36L54.3028 170.36C50.9068 172.319 47.8418 172.478 45.6748 171.148L97.6363 201.148Z" fill="#8BC5E4"/>
<path fill-rule="evenodd" clip-rule="evenodd" d="M106.269 200.357C112.825 196.572 118.151 187.487 118.151 180.077L66.1895 150.077C66.1895 157.487 60.8634 166.572 54.3076 170.357L106.269 200.357Z" fill="#8BC5E4"/>
<path fill-rule="evenodd" clip-rule="evenodd" d="M118.151 180.077C118.142 177.422 117.441 175.217 116.125 173.767L64.1631 143.767C65.4794 145.217 66.1809 147.422 66.1896 150.077L118.151 180.077Z" fill="#8BC5E4"/>
<path fill-rule="evenodd" clip-rule="evenodd" d="M131.47 147.437C133.462 147.857 135.844 147.332 138.277 145.927L86.3158 115.927C83.8823 117.332 81.5007 117.857 79.5088 117.437L131.47 147.437Z" fill="#8BC5E4"/>
<path fill-rule="evenodd" clip-rule="evenodd" d="M138.277 145.927C140.685 144.537 143.032 142.342 145.015 139.657L93.0536 109.657C91.0704 112.342 88.7235 114.537 86.3159 115.927L138.277 145.927Z" fill="#8BC5E4"/>
<path fill-rule="evenodd" clip-rule="evenodd" d="M160.413 148.297C158.984 151.392 158.222 154.542 158.213 157.327L106.252 127.327C106.261 124.542 107.023 121.392 108.452 118.297L160.413 148.297Z" fill="#8BC5E4"/>
<path fill-rule="evenodd" clip-rule="evenodd" d="M158.213 157.327C158.214 160.906 159.451 163.443 161.47 164.685L109.508 134.685C107.489 133.443 106.252 130.906 106.252 127.327L158.213 157.327Z" fill="#8BC5E4"/>
<path fill-rule="evenodd" clip-rule="evenodd" d="M161.467 164.685C163.631 166.018 166.694 165.86 170.09 163.901L118.129 133.901C114.733 135.86 111.67 136.018 109.506 134.685L161.467 164.685Z" fill="#8BC5E4"/>
<path fill-rule="evenodd" clip-rule="evenodd" d="M170.095 163.897C176.66 160.107 181.977 151.027 181.977 143.607L130.016 113.607C130.016 121.027 124.698 130.107 118.134 133.897L170.095 163.897Z" fill="#8BC5E4"/>
<path fill-rule="evenodd" clip-rule="evenodd" d="M181.977 143.607C181.977 140.033 180.739 137.496 178.721 136.253L126.76 106.253C128.778 107.496 130.016 110.033 130.015 113.607L181.977 143.607Z" fill="#8BC5E4"/>
<path fill-rule="evenodd" clip-rule="evenodd" d="M178.723 136.254C176.559 134.921 173.496 135.075 170.1 137.035L118.139 107.035C121.535 105.075 124.598 104.921 126.762 106.254L178.723 136.254Z" fill="#8BC5E4"/>
<path fill-rule="evenodd" clip-rule="evenodd" d="M170.095 137.037C168.164 138.162 166.267 139.787 164.561 141.792L112.6 111.792C114.306 109.787 116.202 108.162 118.134 107.037L170.095 137.037Z" fill="#8BC5E4"/>
<path fill-rule="evenodd" clip-rule="evenodd" d="M148.713 132.892C149.657 130.377 150.151 127.892 150.151 125.652L98.1891 95.6523C98.1891 97.8923 97.6955 100.377 96.7515 102.892L148.713 132.892Z" fill="#8BC5E4"/>
<path fill-rule="evenodd" clip-rule="evenodd" d="M150.151 125.652C150.15 121.966 148.819 119.335 146.619 118.15L94.658 88.1495C96.858 89.3345 98.189 91.9655 98.1892 95.6523L150.151 125.652Z" fill="#8BC5E4"/>
<path fill-rule="evenodd" clip-rule="evenodd" d="M146.622 118.151C145.106 117.333 143.177 117.202 140.987 117.885L89.0259 87.8845C91.2159 87.2015 93.1449 87.3325 94.6609 88.1505L146.622 118.151Z" fill="#8BC5E4"/>
<path fill-rule="evenodd" clip-rule="evenodd" d="M140.98 94.5673C146.314 90.0373 150.082 82.4723 150.082 76.2723L98.12 46.2723C98.12 52.4723 94.3528 60.0373 89.0181 64.5673L140.98 94.5673Z" fill="#8BC5E4"/>
<path fill-rule="evenodd" clip-rule="evenodd" d="M150.081 76.2723C150.081 73.0325 149.048 70.5045 147.178 69.1565L95.2168 39.1565C97.0868 40.5045 98.1198 43.0325 98.1197 46.2723L150.081 76.2723Z" fill="#8BC5E4"/>
<path fill-rule="evenodd" clip-rule="evenodd" d="M147.184 69.1605C147 69.0265 146.807 68.9055 146.607 68.7955L94.645 38.7955C94.845 38.9055 95.038 39.0265 95.222 39.1605L147.184 69.1605Z" fill="#8BC5E4"/>
<path fill-rule="evenodd" clip-rule="evenodd" d="M146.6 68.7922C146.391 68.6764 146.175 68.5744 145.953 68.4865L93.9919 38.4865C94.2139 38.5745 94.4299 38.6765 94.6384 38.7923L146.6 68.7922Z" fill="#8BC5E4"/>
<path fill-rule="evenodd" clip-rule="evenodd" d="M145.953 68.4865C143.807 67.6315 141.059 68.0515 138.204 69.6995L86.2429 39.6995C89.0979 38.0515 91.8459 37.6315 93.9919 38.4865L145.953 68.4865Z" fill="#8BC5E4"/>
<path fill-rule="evenodd" clip-rule="evenodd" d="M137.983 30.8773C135.341 32.3723 132.795 35.7023 131.176 39.8573L79.2144 9.85732C80.8339 5.70232 83.38 2.37232 86.0214 0.877319L137.983 30.8773Z" fill="#8BC5E4"/>
<path fill-rule="evenodd" clip-rule="evenodd" d="M131.167 39.8723C131.167 39.8723 131.167 39.8723 131.167 39.8823L79.2058 9.88231C79.2058 9.87231 79.2058 9.87231 79.2058 9.87231L131.167 39.8723Z" fill="#8BC5E4"/>
<path fill-rule="evenodd" clip-rule="evenodd" d="M53.2945 236.672C51.675 240.917 51.5711 244.297 52.7662 246.087L0.804726 216.087C-0.390474 214.297 -0.286474 210.917 1.33293 206.672L53.2945 236.672Z" fill="#8BC5E4"/>
<path fill-rule="evenodd" clip-rule="evenodd" d="M52.7662 246.087C53.0365 246.495 53.3705 246.814 53.7555 247.046L1.79399 217.046C1.40899 216.814 1.07499 216.495 0.804688 216.087L52.7662 246.087Z" fill="#8BC5E4"/>
<path fill-rule="evenodd" clip-rule="evenodd" d="M53.7545 247.046C55.0675 247.838 56.9805 247.613 59.0545 246.417L7.09297 216.417C5.01897 217.613 3.10597 217.838 1.79297 217.046L53.7545 247.046Z" fill="#8BC5E4"/>
<path fill-rule="evenodd" clip-rule="evenodd" d="M216.774 155.357C219 154.072 221.416 151.667 222.949 148.562L170.987 118.562C169.454 121.667 167.038 124.072 164.812 125.357L216.774 155.357Z" fill="#8BC5E4"/>
<path fill-rule="evenodd" clip-rule="evenodd" d="M222.949 148.562C224.499 145.447 224.776 141.807 222.949 139.212L170.987 109.212C172.815 111.807 172.538 115.447 170.987 118.562L222.949 148.562Z" fill="#8BC5E4"/>
<path fill-rule="evenodd" clip-rule="evenodd" d="M144.729 32.0323C144.416 31.5995 144.069 31.2345 143.693 30.9395L91.7319 0.939453C92.1079 1.23445 92.4549 1.59945 92.7678 2.03225L144.729 32.0323Z" fill="#8BC5E4"/>
<path fill-rule="evenodd" clip-rule="evenodd" d="M143.678 30.9285C143.517 30.8025 143.351 30.6895 143.18 30.5895L91.2188 0.589478C91.3898 0.689478 91.5558 0.802478 91.7167 0.928478L143.678 30.9285Z" fill="#8BC5E4"/>
<path fill-rule="evenodd" clip-rule="evenodd" d="M143.182 30.5905C141.711 29.7265 139.887 29.8025 137.99 30.8725L86.0288 0.872468C87.9258 -0.197532 89.7498 -0.273532 91.2208 0.590468L143.182 30.5905Z" fill="#8BC5E4"/>
<path fill-rule="evenodd" clip-rule="evenodd" d="M137.957 34.4423C138.935 33.8925 139.984 33.7715 140.937 34.3575L88.975 4.35745C88.022 3.77145 86.973 3.89245 85.9956 4.44225L137.957 34.4423Z" fill="#8BC5E4"/>
<path fill-rule="evenodd" clip-rule="evenodd" d="M140.95 34.3665C141.048 34.4275 141.146 34.4975 141.243 34.5745L89.2818 4.57446C89.1848 4.49746 89.0868 4.42746 88.9888 4.36646L140.95 34.3665Z" fill="#8BC5E4"/>
<path fill-rule="evenodd" clip-rule="evenodd" d="M141.24 34.5715C141.503 34.7815 141.756 35.0495 141.997 35.3825L90.0358 5.38253C89.7948 5.04953 89.5418 4.78153 89.2788 4.57153L141.24 34.5715Z" fill="#8BC5E4"/>
<path fill-rule="evenodd" clip-rule="evenodd" d="M220.221 142.557C221.606 144.537 221.26 146.217 220.481 147.797L168.519 117.797C169.299 116.217 169.645 114.537 168.259 112.557L220.221 142.557Z" fill="#8BC5E4"/>
<path fill-rule="evenodd" clip-rule="evenodd" d="M220.481 147.797C219.693 149.382 218.09 151.037 216.774 151.797L164.812 121.797C166.129 121.037 167.731 119.382 168.519 117.797L220.481 147.797Z" fill="#8BC5E4"/>
<path fill-rule="evenodd" clip-rule="evenodd" d="M59.0621 242.852C57.7764 243.594 56.7774 243.71 56.0994 243.335L4.13794 213.335C4.81594 213.71 5.81494 213.594 7.10064 212.852L59.0621 242.852Z" fill="#8BC5E4"/>
<path fill-rule="evenodd" clip-rule="evenodd" d="M56.1035 243.337C55.8775 243.213 55.6865 243.034 55.5325 242.807L3.57104 212.807C3.72504 213.034 3.91604 213.213 4.14204 213.337L56.1035 243.337Z" fill="#8BC5E4"/>
<path fill-rule="evenodd" clip-rule="evenodd" d="M55.5288 242.802C54.9226 241.882 54.8187 240.042 56.0484 236.802L4.08692 206.802C2.85712 210.042 2.96112 211.882 3.56732 212.802L55.5288 242.802Z" fill="#8BC5E4"/>
<path fill-rule="evenodd" clip-rule="evenodd" d="M133.904 40.0523C135.116 36.9423 136.589 35.2223 137.957 34.4423L85.9954 4.44226C84.6271 5.22226 83.1548 6.94226 81.9424 10.0523L133.904 40.0523Z" fill="#8BC5E4"/>
<path d="M138.2 69.7023C131.644 73.4873 126.318 82.5823 126.318 89.9923C126.326 96.2073 130.111 99.4223 135.472 97.7573V121.087C130.145 125.622 126.396 133.177 126.396 139.367C126.396 141.577 126.881 143.467 127.807 144.882L112.08 171.882C110.305 171.777 108.304 172.332 106.269 173.507C103.117 175.327 100.094 178.492 97.8601 182.292C95.6344 186.097 94.3786 190.242 94.3786 193.802C94.3786 201.212 99.7047 204.147 106.269 200.357C112.825 196.572 118.151 187.487 118.151 180.077C118.142 177.422 117.441 175.217 116.125 173.767L131.47 147.437C133.462 147.857 135.844 147.332 138.277 145.927C140.685 144.537 143.032 142.342 145.015 139.657L160.413 148.297C158.984 151.392 158.222 154.542 158.213 157.327C158.213 164.747 163.531 167.687 170.095 163.897C176.66 160.107 181.977 151.027 181.977 143.607C181.977 136.197 176.66 133.247 170.095 137.037C168.164 138.162 166.267 139.787 164.561 141.792L148.713 132.892C149.657 130.377 150.151 127.892 150.151 125.652C150.151 119.422 146.349 116.207 140.979 117.887V94.5673C146.314 90.0373 150.081 82.4723 150.081 76.2723C150.081 72.7123 148.834 70.0123 146.6 68.7923C144.374 67.5573 141.352 67.8823 138.2 69.7023ZM137.983 30.8773C135.342 32.3723 132.796 35.7023 131.176 39.8573L131.167 39.8723C131.167 39.8723 131.167 39.8723 131.167 39.8823L53.303 236.647L53.2944 236.672C51.6749 240.917 51.571 244.297 52.7661 246.087C53.9612 247.887 56.3774 247.962 59.0621 246.412L216.774 155.357C219 154.072 221.416 151.667 222.949 148.562C224.499 145.447 224.776 141.807 222.949 139.212V139.202V139.192L144.729 32.0323C143.127 29.8173 140.624 29.3823 137.983 30.8773ZM137.957 34.4423C139.317 33.6773 140.815 33.7423 142.001 35.3873L142.01 35.3823L220.221 142.547V142.557C221.606 144.537 221.26 146.217 220.481 147.797C219.692 149.382 218.09 151.037 216.774 151.797L59.0621 242.852C57.3474 243.842 56.1436 243.717 55.5287 242.802C54.9225 241.882 54.8186 240.042 56.0483 236.802L133.895 40.0673L133.904 40.0523C135.116 36.9423 136.589 35.2223 137.957 34.4423Z" fill="#8BC5E4"/>
<path fill-rule="evenodd" clip-rule="evenodd" d="M137.957 34.4423C139.317 33.6773 140.815 33.7423 142.001 35.3873L142.01 35.3823L220.221 142.547V142.557C221.606 144.537 221.26 146.217 220.481 147.797C219.692 149.382 218.09 151.037 216.774 151.797L59.0621 242.852C57.3474 243.842 56.1436 243.717 55.5287 242.802C54.9225 241.882 54.8186 240.042 56.0483 236.802L133.895 40.0673L133.904 40.0523C135.116 36.9423 136.589 35.2223 137.957 34.4423ZM126.318 89.9923C126.318 82.5823 131.644 73.4873 138.2 69.7023C141.352 67.8823 144.374 67.5573 146.6 68.7923C148.834 70.0123 150.081 72.7123 150.081 76.2723C150.081 82.4723 146.314 90.0373 140.979 94.5673V117.887C146.349 116.207 150.151 119.422 150.151 125.652C150.151 127.892 149.657 130.377 148.713 132.892L164.561 141.792C166.267 139.787 168.164 138.162 170.095 137.037C176.66 133.247 181.977 136.197 181.977 143.607C181.977 151.027 176.66 160.107 170.095 163.897C163.531 167.687 158.213 164.747 158.213 157.327C158.222 154.542 158.984 151.392 160.413 148.297L145.015 139.657C143.032 142.342 140.685 144.537 138.277 145.927C135.844 147.332 133.462 147.857 131.47 147.437L116.125 173.767C117.441 175.217 118.142 177.422 118.151 180.077C118.151 187.487 112.825 196.572 106.269 200.357C99.7047 204.147 94.3786 201.212 94.3786 193.802C94.3786 190.242 95.6344 186.097 97.8601 182.292C100.094 178.492 103.117 175.327 106.269 173.507C108.304 172.332 110.305 171.777 112.08 171.882L127.807 144.882C126.881 143.467 126.396 141.577 126.396 139.367C126.396 133.177 130.145 125.622 135.472 121.087V97.7573C130.111 99.4223 126.326 96.2073 126.318 89.9923Z" fill="white"/>
</svg>
