<svg width="274" height="349" viewBox="0 0 274 349" fill="none" xmlns="http://www.w3.org/2000/svg">
<path fill-rule="evenodd" clip-rule="evenodd" d="M69.2734 76.5693V255.209L121.235 225.209V46.5693L69.2734 76.5693Z" fill="#8BC5E4"/>
<path fill-rule="evenodd" clip-rule="evenodd" d="M69.2734 255.209L73.2831 257.524L125.245 227.524L121.235 225.209L69.2734 255.209Z" fill="#8BC5E4"/>
<path fill-rule="evenodd" clip-rule="evenodd" d="M73.2831 257.524V247.374L125.245 217.374V227.524L73.2831 257.524Z" fill="#8BC5E4"/>
<path fill-rule="evenodd" clip-rule="evenodd" d="M73.2831 247.374L210.574 326.639L262.536 296.639L125.245 217.374L73.2831 247.374Z" fill="#8BC5E4"/>
<path fill-rule="evenodd" clip-rule="evenodd" d="M210.574 326.639V321.949L262.536 291.949V296.639L210.574 326.639Z" fill="#8BC5E4"/>
<path fill-rule="evenodd" clip-rule="evenodd" d="M210.574 321.949L171.715 299.514L223.677 269.514L262.536 291.949L210.574 321.949Z" fill="#8BC5E4"/>
<path fill-rule="evenodd" clip-rule="evenodd" d="M171.715 299.514V281.844L223.677 251.844V269.514L171.715 299.514Z" fill="#8BC5E4"/>
<path fill-rule="evenodd" clip-rule="evenodd" d="M171.715 281.844L210.574 304.279L262.536 274.279L223.677 251.844L171.715 281.844Z" fill="#8BC5E4"/>
<path fill-rule="evenodd" clip-rule="evenodd" d="M210.574 304.279V299.589L262.536 269.589V274.279L210.574 304.279Z" fill="#8BC5E4"/>
<path fill-rule="evenodd" clip-rule="evenodd" d="M210.574 299.589L198.372 292.544L250.333 262.544L262.536 269.589L210.574 299.589Z" fill="#8BC5E4"/>
<path fill-rule="evenodd" clip-rule="evenodd" d="M198.372 292.544V274.884L250.333 244.884V262.544L198.372 292.544Z" fill="#8BC5E4"/>
<path fill-rule="evenodd" clip-rule="evenodd" d="M198.372 274.884L210.574 281.929L262.536 251.929L250.333 244.884L198.372 274.884Z" fill="#8BC5E4"/>
<path fill-rule="evenodd" clip-rule="evenodd" d="M210.574 281.929V277.239L262.536 247.239V251.929L210.574 281.929Z" fill="#8BC5E4"/>
<path fill-rule="evenodd" clip-rule="evenodd" d="M210.574 277.239L73.2831 197.974L125.245 167.974L262.536 247.239L210.574 277.239Z" fill="#8BC5E4"/>
<path fill-rule="evenodd" clip-rule="evenodd" d="M73.2831 197.974V78.8844L125.245 48.8844V167.974L73.2831 197.974Z" fill="#8BC5E4"/>
<path fill-rule="evenodd" clip-rule="evenodd" d="M73.2831 78.8843L69.2734 76.5693L121.235 46.5693L125.245 48.8843L73.2831 78.8843Z" fill="#8BC5E4"/>
<path fill-rule="evenodd" clip-rule="evenodd" d="M69.2734 76.5693L121.235 46.5693L69.2734 76.5693Z" fill="#8BC5E4"/>
<path fill-rule="evenodd" clip-rule="evenodd" d="M121.001 178.344L102.979 188.839L154.941 158.839L172.963 148.344L121.001 178.344Z" fill="#8BC5E4"/>
<path fill-rule="evenodd" clip-rule="evenodd" d="M102.979 188.839L110.531 202.069L162.492 172.069L154.941 158.839L102.979 188.839Z" fill="#8BC5E4"/>
<path fill-rule="evenodd" clip-rule="evenodd" d="M110.531 202.069L128.57 191.564L180.532 161.564L162.492 172.069L110.531 202.069Z" fill="#8BC5E4"/>
<path fill-rule="evenodd" clip-rule="evenodd" d="M147.562 133.469L199.524 103.469L147.562 133.469Z" fill="#8BC5E4"/>
<path fill-rule="evenodd" clip-rule="evenodd" d="M147.562 142.849L199.524 112.849L147.562 142.849Z" fill="#8BC5E4"/>
<path fill-rule="evenodd" clip-rule="evenodd" d="M14.6705 74.1843L27.0893 101.694L79.0508 71.6943L66.632 44.1843L14.6705 74.1843Z" fill="#8BC5E4"/>
<path fill-rule="evenodd" clip-rule="evenodd" d="M27.0893 101.694L14.1249 115.819L66.0864 85.8193L79.0508 71.6943L27.0893 101.694Z" fill="#8BC5E4"/>
<path fill-rule="evenodd" clip-rule="evenodd" d="M14.1249 115.819L25.262 122.249L77.2235 92.2493L66.0864 85.8193L14.1249 115.819Z" fill="#8BC5E4"/>
<path fill-rule="evenodd" clip-rule="evenodd" d="M25.262 122.249L32.6405 113.509L84.602 83.5094L77.2235 92.2494L25.262 122.249Z" fill="#8BC5E4"/>
<path fill-rule="evenodd" clip-rule="evenodd" d="M32.6405 113.509L39.9584 130.734L91.9199 100.734L84.602 83.5094L32.6405 113.509Z" fill="#8BC5E4"/>
<path fill-rule="evenodd" clip-rule="evenodd" d="M39.9584 130.734L51.6324 137.474L103.594 107.474L91.9199 100.734L39.9584 130.734Z" fill="#8BC5E4"/>
<path fill-rule="evenodd" clip-rule="evenodd" d="M51.6324 137.474L38.3303 107.714L90.2918 77.7144L103.594 107.474L51.6324 137.474Z" fill="#8BC5E4"/>
<path fill-rule="evenodd" clip-rule="evenodd" d="M38.3303 107.714L50.5239 94.8844L102.485 64.8844L90.2918 77.7144L38.3303 107.714Z" fill="#8BC5E4"/>
<path fill-rule="evenodd" clip-rule="evenodd" d="M50.5239 94.8843L39.3435 88.4293L91.3051 58.4293L102.485 64.8843L50.5239 94.8843Z" fill="#8BC5E4"/>
<path fill-rule="evenodd" clip-rule="evenodd" d="M39.3435 88.4293L32.6405 96.0893L84.602 66.0893L91.3051 58.4293L39.3435 88.4293Z" fill="#8BC5E4"/>
<path fill-rule="evenodd" clip-rule="evenodd" d="M32.6405 96.0894L26.2839 80.8894L78.2454 50.8894L84.602 66.0894L32.6405 96.0894Z" fill="#8BC5E4"/>
<path fill-rule="evenodd" clip-rule="evenodd" d="M26.2839 80.8893L14.6705 74.1843L66.632 44.1843L78.2454 50.8893L26.2839 80.8893Z" fill="#8BC5E4"/>
<path fill-rule="evenodd" clip-rule="evenodd" d="M14.6705 74.1843L66.632 44.1843L14.6705 74.1843Z" fill="#8BC5E4"/>
<path fill-rule="evenodd" clip-rule="evenodd" d="M48.6013 170.824L21.3042 188.644L73.2657 158.644L100.563 140.824L48.6013 170.824Z" fill="#8BC5E4"/>
<path fill-rule="evenodd" clip-rule="evenodd" d="M21.3042 188.644L21.2349 174.144L73.1965 144.144L73.2657 158.644L21.3042 188.644Z" fill="#8BC5E4"/>
<path fill-rule="evenodd" clip-rule="evenodd" d="M12.3062 169.049L12.4361 196.544L64.3976 166.544L64.2677 139.049L12.3062 169.049Z" fill="#8BC5E4"/>
<path fill-rule="evenodd" clip-rule="evenodd" d="M20.1351 204.549L55.0792 181.734L107.041 151.734L72.0966 174.549L20.1351 204.549Z" fill="#8BC5E4"/>
<path fill-rule="evenodd" clip-rule="evenodd" d="M52.0741 171.149L104.036 141.149L52.0741 171.149Z" fill="#8BC5E4"/>
<path fill-rule="evenodd" clip-rule="evenodd" d="M73.2831 202.664L87.6504 210.959L139.612 180.959L125.245 172.664L73.2831 202.664Z" fill="#8BC5E4"/>
<path fill-rule="evenodd" clip-rule="evenodd" d="M87.6504 210.959V228.619L139.612 198.619V180.959L87.6504 210.959Z" fill="#8BC5E4"/>
<path fill-rule="evenodd" clip-rule="evenodd" d="M87.6504 228.619L73.2831 220.324L125.245 190.324L139.612 198.619L87.6504 228.619Z" fill="#8BC5E4"/>
<path fill-rule="evenodd" clip-rule="evenodd" d="M73.2831 220.324V202.664L125.245 172.664V190.324L73.2831 220.324Z" fill="#8BC5E4"/>
<path fill-rule="evenodd" clip-rule="evenodd" d="M73.2831 202.664L125.245 172.664L73.2831 202.664Z" fill="#8BC5E4"/>
<path fill-rule="evenodd" clip-rule="evenodd" d="M91.6688 213.279L141.197 241.874L193.158 211.874L143.63 183.279L91.6688 213.279Z" fill="#8BC5E4"/>
<path fill-rule="evenodd" clip-rule="evenodd" d="M141.197 241.874V259.534L193.158 229.534V211.874L141.197 241.874Z" fill="#8BC5E4"/>
<path fill-rule="evenodd" clip-rule="evenodd" d="M141.197 259.534L91.6688 230.939L143.63 200.939L193.158 229.534L141.197 259.534Z" fill="#8BC5E4"/>
<path fill-rule="evenodd" clip-rule="evenodd" d="M91.6688 230.939V213.279L143.63 183.279V200.939L91.6688 230.939Z" fill="#8BC5E4"/>
<path fill-rule="evenodd" clip-rule="evenodd" d="M91.6688 213.279L143.63 183.279L91.6688 213.279Z" fill="#8BC5E4"/>
<path fill-rule="evenodd" clip-rule="evenodd" d="M145.215 244.194L194.353 272.564L246.315 242.564L197.177 214.194L145.215 244.194Z" fill="#8BC5E4"/>
<path fill-rule="evenodd" clip-rule="evenodd" d="M194.353 272.564V290.224L246.315 260.224V242.564L194.353 272.564Z" fill="#8BC5E4"/>
<path fill-rule="evenodd" clip-rule="evenodd" d="M194.353 290.224L145.215 261.854L197.177 231.854L246.315 260.224L194.353 290.224Z" fill="#8BC5E4"/>
<path fill-rule="evenodd" clip-rule="evenodd" d="M145.215 261.854V244.194L197.177 214.194V231.854L145.215 261.854Z" fill="#8BC5E4"/>
<path fill-rule="evenodd" clip-rule="evenodd" d="M145.215 244.194L197.177 214.194L145.215 244.194Z" fill="#8BC5E4"/>
<path fill-rule="evenodd" clip-rule="evenodd" d="M73.2831 225.014L114.696 248.924L166.658 218.924L125.245 195.014L73.2831 225.014Z" fill="#8BC5E4"/>
<path fill-rule="evenodd" clip-rule="evenodd" d="M114.696 248.924V266.594L166.658 236.594V218.924L114.696 248.924Z" fill="#8BC5E4"/>
<path fill-rule="evenodd" clip-rule="evenodd" d="M114.696 266.594L73.2831 242.684L125.245 212.684L166.658 236.594L114.696 266.594Z" fill="#8BC5E4"/>
<path fill-rule="evenodd" clip-rule="evenodd" d="M73.2831 242.684V225.014L125.245 195.014V212.684L73.2831 242.684Z" fill="#8BC5E4"/>
<path fill-rule="evenodd" clip-rule="evenodd" d="M73.2831 225.014L125.245 195.014L73.2831 225.014Z" fill="#8BC5E4"/>
<path fill-rule="evenodd" clip-rule="evenodd" d="M118.715 251.244L167.697 279.524L219.659 249.524L170.676 221.244L118.715 251.244Z" fill="#8BC5E4"/>
<path fill-rule="evenodd" clip-rule="evenodd" d="M167.697 279.524V297.194L219.659 267.194V249.524L167.697 279.524Z" fill="#8BC5E4"/>
<path fill-rule="evenodd" clip-rule="evenodd" d="M167.697 297.194L118.715 268.914L170.676 238.914L219.659 267.194L167.697 297.194Z" fill="#8BC5E4"/>
<path fill-rule="evenodd" clip-rule="evenodd" d="M118.715 268.914V251.244L170.676 221.244V238.914L118.715 268.914Z" fill="#8BC5E4"/>
<path fill-rule="evenodd" clip-rule="evenodd" d="M118.715 251.244L170.676 221.244L118.715 251.244Z" fill="#8BC5E4"/>
<path fill-rule="evenodd" clip-rule="evenodd" d="M0 37.5743V213.144L51.9615 183.144V7.57434L0 37.5743Z" fill="#8BC5E4"/>
<path fill-rule="evenodd" clip-rule="evenodd" d="M10.4615 231.404L211.232 347.319L263.194 317.319L62.423 201.404L10.4615 231.404Z" fill="#8BC5E4"/>
<path fill-rule="evenodd" clip-rule="evenodd" d="M221.703 341.144V165.574L273.664 135.574V311.144L221.703 341.144Z" fill="#8BC5E4"/>
<path fill-rule="evenodd" clip-rule="evenodd" d="M211.232 147.319L10.4615 31.4044L62.423 1.40442L263.194 117.319L211.232 147.319Z" fill="#8BC5E4"/>
<path fill-rule="evenodd" clip-rule="evenodd" d="M10.4615 31.4044L62.423 1.40442L10.4615 31.4044Z" fill="#8BC5E4"/>
<path fill-rule="evenodd" clip-rule="evenodd" d="M10.4615 36.9243L211.232 152.839L263.194 122.839L62.423 6.92432L10.4615 36.9243Z" fill="#8BC5E4"/>
<path fill-rule="evenodd" clip-rule="evenodd" d="M216.974 162.844V338.414L268.935 308.414V132.844L216.974 162.844Z" fill="#8BC5E4"/>
<path fill-rule="evenodd" clip-rule="evenodd" d="M211.232 341.799L10.4615 225.884L62.423 195.884L263.194 311.799L211.232 341.799Z" fill="#8BC5E4"/>
<path fill-rule="evenodd" clip-rule="evenodd" d="M4.72852 215.874V40.3043L56.69 10.3043V185.874L4.72852 215.874Z" fill="#8BC5E4"/>
<path fill-rule="evenodd" clip-rule="evenodd" d="M10.4615 36.9243L62.423 6.92432L10.4615 36.9243Z" fill="#8BC5E4"/>
<path fill-rule="evenodd" clip-rule="evenodd" d="M147.562 133.469C138.946 128.495 131.093 127.886 125.249 130.91L177.211 100.91C183.055 97.8864 190.908 98.4954 199.524 103.469L147.562 133.469Z" fill="#8BC5E4"/>
<path fill-rule="evenodd" clip-rule="evenodd" d="M125.251 130.909C118.895 134.196 114.915 141.778 114.913 152.711L166.874 122.711C166.876 111.778 170.856 104.196 177.212 100.909L125.251 130.909Z" fill="#8BC5E4"/>
<path fill-rule="evenodd" clip-rule="evenodd" d="M114.913 152.719C114.913 160.949 117.173 169.894 121.001 178.344L172.963 148.344C169.135 139.894 166.874 130.949 166.874 122.719L114.913 152.719Z" fill="#8BC5E4"/>
<path fill-rule="evenodd" clip-rule="evenodd" d="M128.57 191.564C133.931 199.149 140.487 205.574 147.562 209.659L199.524 179.659C192.448 175.574 185.892 169.149 180.532 161.564L128.57 191.564Z" fill="#8BC5E4"/>
<path fill-rule="evenodd" clip-rule="evenodd" d="M147.562 209.659C156.178 214.633 164.031 215.242 169.875 212.219L221.837 182.219C215.993 185.242 208.14 184.633 199.524 179.659L147.562 209.659Z" fill="#8BC5E4"/>
<path fill-rule="evenodd" clip-rule="evenodd" d="M169.873 212.22C176.229 208.934 180.209 201.354 180.211 190.427L232.173 160.427C232.171 171.354 228.191 178.934 221.835 182.22L169.873 212.22Z" fill="#8BC5E4"/>
<path fill-rule="evenodd" clip-rule="evenodd" d="M180.211 190.419C180.211 169.429 165.549 143.854 147.562 133.469L199.524 103.469C217.511 113.854 232.173 139.429 232.173 160.419L180.211 190.419Z" fill="#8BC5E4"/>
<path fill-rule="evenodd" clip-rule="evenodd" d="M147.562 142.849C161.202 150.724 172.175 169.859 172.175 185.779L224.136 155.779C224.136 139.859 213.164 120.724 199.524 112.849L147.562 142.849Z" fill="#8BC5E4"/>
<path fill-rule="evenodd" clip-rule="evenodd" d="M172.175 185.779C172.175 194.068 169.196 199.793 164.414 202.263L216.376 172.263C221.158 169.793 224.137 164.068 224.136 155.779L172.175 185.779Z" fill="#8BC5E4"/>
<path fill-rule="evenodd" clip-rule="evenodd" d="M164.416 202.262C160.02 204.532 154.1 204.052 147.567 200.282L199.529 170.282C206.062 174.052 211.982 174.532 216.378 172.262L164.416 202.262Z" fill="#8BC5E4"/>
<path fill-rule="evenodd" clip-rule="evenodd" d="M147.562 200.279C133.922 192.404 122.95 173.269 122.95 157.359L174.911 127.359C174.911 143.269 185.884 162.404 199.524 170.279L147.562 200.279Z" fill="#8BC5E4"/>
<path fill-rule="evenodd" clip-rule="evenodd" d="M122.95 157.359C122.95 149.065 125.928 143.337 130.71 140.866L182.671 110.866C177.889 113.337 174.911 119.065 174.911 127.359L122.95 157.359Z" fill="#8BC5E4"/>
<path fill-rule="evenodd" clip-rule="evenodd" d="M130.708 140.867C135.104 138.596 141.024 139.076 147.557 142.846L199.519 112.846C192.986 109.076 187.066 108.596 182.67 110.867L130.708 140.867Z" fill="#8BC5E4"/>
<path fill-rule="evenodd" clip-rule="evenodd" d="M52.0742 171.149C50.8891 170.41 49.7321 170.239 48.8621 170.671L100.824 140.671C101.694 140.239 102.851 140.41 104.036 141.149L52.0742 171.149Z" fill="#8BC5E4"/>
<path fill-rule="evenodd" clip-rule="evenodd" d="M48.8561 170.673C48.7701 170.716 48.6871 170.765 48.6071 170.82L100.569 140.82C100.649 140.765 100.732 140.716 100.818 140.673L48.8561 170.673Z" fill="#8BC5E4"/>
<path fill-rule="evenodd" clip-rule="evenodd" d="M21.2349 174.144C21.2263 171.259 19.2171 167.779 16.7489 166.374L68.7105 136.374C71.1786 137.779 73.1878 141.259 73.1965 144.144L21.2349 174.144Z" fill="#8BC5E4"/>
<path fill-rule="evenodd" clip-rule="evenodd" d="M16.7489 166.374C15.563 165.699 14.487 165.623 13.691 166.047L65.6525 136.047C66.4485 135.623 67.5245 135.699 68.7105 136.374L16.7489 166.374Z" fill="#8BC5E4"/>
<path fill-rule="evenodd" clip-rule="evenodd" d="M13.694 166.046C12.833 166.502 12.299 167.543 12.306 169.041L64.2675 139.041C64.2605 137.543 64.7945 136.502 65.6555 136.046L13.694 166.046Z" fill="#8BC5E4"/>
<path fill-rule="evenodd" clip-rule="evenodd" d="M12.4362 196.544C12.4449 198.679 13.5621 201.234 15.2595 202.994L67.221 172.994C65.5236 171.234 64.4064 168.679 64.3977 166.544L12.4362 196.544Z" fill="#8BC5E4"/>
<path fill-rule="evenodd" clip-rule="evenodd" d="M15.2594 202.994C16.777 204.571 18.497 205.239 19.735 204.757L71.6965 174.757C70.4585 175.239 68.7385 174.571 67.2209 172.994L15.2594 202.994Z" fill="#8BC5E4"/>
<path fill-rule="evenodd" clip-rule="evenodd" d="M19.744 204.754C19.878 204.701 20.006 204.634 20.128 204.554L72.0895 174.554C71.9675 174.634 71.8395 174.701 71.7055 174.754L19.744 204.754Z" fill="#8BC5E4"/>
<path fill-rule="evenodd" clip-rule="evenodd" d="M55.0792 181.734C56.309 180.974 56.6814 179.009 56.0318 176.724L107.993 146.724C108.643 149.009 108.271 150.974 107.041 151.734L55.0792 181.734Z" fill="#8BC5E4"/>
<path fill-rule="evenodd" clip-rule="evenodd" d="M56.0318 176.724C55.3823 174.439 53.8408 172.259 52.0741 171.149L104.036 141.149C105.802 142.259 107.344 144.439 107.993 146.724L56.0318 176.724Z" fill="#8BC5E4"/>
<path fill-rule="evenodd" clip-rule="evenodd" d="M10.4616 31.4044C7.70403 29.8124 5.18604 29.6204 3.31104 30.5934L55.2725 0.593367C57.1475 -0.379633 59.6655 -0.187633 62.4231 1.40437L10.4616 31.4044Z" fill="#8BC5E4"/>
<path fill-rule="evenodd" clip-rule="evenodd" d="M3.314 30.5913C1.28 31.6453 0.003 34.0703 0 37.5643L51.9615 7.56431C51.9645 4.07031 53.2415 1.64531 55.2755 0.591309L3.314 30.5913Z" fill="#8BC5E4"/>
<path fill-rule="evenodd" clip-rule="evenodd" d="M0 213.144C0 219.864 4.7112 228.084 10.4616 231.404L62.4231 201.404C56.6727 198.084 51.9615 189.864 51.9615 183.144L0 213.144Z" fill="#8BC5E4"/>
<path fill-rule="evenodd" clip-rule="evenodd" d="M211.232 347.319C213.988 348.91 216.504 349.103 218.378 348.136L270.34 318.136C268.465 319.103 265.949 318.91 263.194 317.319L211.232 347.319Z" fill="#8BC5E4"/>
<path fill-rule="evenodd" clip-rule="evenodd" d="M218.387 348.131C220.423 347.075 221.7 344.648 221.702 341.154L273.663 311.154C273.661 314.648 272.384 317.075 270.348 318.131L218.387 348.131Z" fill="#8BC5E4"/>
<path fill-rule="evenodd" clip-rule="evenodd" d="M221.702 165.574C221.702 158.854 216.991 150.644 211.232 147.319L263.194 117.319C268.953 120.644 273.664 128.854 273.664 135.574L221.702 165.574Z" fill="#8BC5E4"/>
<path fill-rule="evenodd" clip-rule="evenodd" d="M211.232 152.839C214.454 154.699 216.974 159.084 216.974 162.844L268.936 132.844C268.936 129.084 266.415 124.699 263.194 122.839L211.232 152.839Z" fill="#8BC5E4"/>
<path fill-rule="evenodd" clip-rule="evenodd" d="M216.974 338.414C216.974 340.375 216.289 341.717 215.176 342.289L267.138 312.289C268.251 311.717 268.936 310.375 268.936 308.414L216.974 338.414Z" fill="#8BC5E4"/>
<path fill-rule="evenodd" clip-rule="evenodd" d="M215.177 342.288C214.157 342.813 212.777 342.69 211.237 341.802L263.199 311.802C264.739 312.69 266.119 312.813 267.139 312.288L215.177 342.288Z" fill="#8BC5E4"/>
<path fill-rule="evenodd" clip-rule="evenodd" d="M10.4616 225.884C7.24862 224.029 4.72852 219.634 4.72852 215.874L56.69 185.874C56.69 189.634 59.2102 194.029 62.4231 195.884L10.4616 225.884Z" fill="#8BC5E4"/>
<path fill-rule="evenodd" clip-rule="evenodd" d="M4.72852 40.3043C4.72802 38.3513 5.40902 37.0143 6.51302 36.4403L58.4745 6.44031C57.3705 7.01431 56.6895 8.35131 56.69 10.3043L4.72852 40.3043Z" fill="#8BC5E4"/>
<path fill-rule="evenodd" clip-rule="evenodd" d="M6.52405 36.4354C7.54305 35.9114 8.92005 36.0354 10.457 36.9214L62.4185 6.92139C60.8815 6.03539 59.5045 5.91139 58.4855 6.43539L6.52405 36.4354Z" fill="#8BC5E4"/>
<path d="M69.2734 76.5693V255.209L73.2831 257.524V247.374L210.574 326.639V321.949L171.716 299.514V281.844L210.574 304.279V299.589L198.372 292.544V274.884L210.574 281.929V277.239L73.2831 197.974V78.8843L69.2734 76.5693ZM147.562 133.469C129.575 123.084 114.913 131.729 114.913 152.719C114.913 160.949 117.173 169.894 121.001 178.344L102.979 188.839L110.531 202.069L128.57 191.564C133.931 199.149 140.487 205.574 147.562 209.659C165.549 220.044 180.211 211.399 180.211 190.419C180.211 169.429 165.549 143.854 147.562 133.469ZM147.562 142.849C161.202 150.724 172.175 169.859 172.175 185.779C172.175 201.689 161.202 208.154 147.562 200.279C133.922 192.404 122.95 173.269 122.95 157.359C122.95 141.439 133.922 134.974 147.562 142.849ZM14.6705 74.1843L27.0893 101.694L14.1249 115.819L25.262 122.249L32.6405 113.509L39.9584 130.734L51.6324 137.474L38.3303 107.714L50.5239 94.8843L39.3435 88.4293L32.6405 96.0893L26.2839 80.8893L14.6705 74.1843ZM52.0741 171.149C50.7664 170.334 49.4934 170.209 48.6013 170.824L21.3042 188.644L21.2349 174.144C21.2263 171.259 19.2171 167.779 16.7489 166.374C14.2808 164.969 12.2889 166.159 12.3062 169.049L12.4361 196.544C12.4448 198.679 13.562 201.234 15.2594 202.994C16.9481 204.749 18.888 205.379 20.1351 204.549L55.0792 181.734C56.309 180.974 56.6814 179.009 56.0318 176.724C55.3823 174.439 53.8408 172.259 52.0741 171.149ZM73.2831 202.664L87.6504 210.959V228.619L73.2831 220.324V202.664ZM91.6688 213.279L141.197 241.874V259.534L91.6688 230.939V213.279ZM145.215 244.194L194.353 272.564V290.224L145.215 261.854V244.194ZM73.2831 225.014L114.696 248.924V266.594L73.2831 242.684V225.014ZM118.715 251.244L167.697 279.524V297.194L118.715 268.914V251.244ZM10.4616 31.4043C4.71118 28.0843 0 30.8544 0 37.5743V213.144C0 219.864 4.71118 228.084 10.4616 231.404L211.232 347.319C216.991 350.644 221.702 347.864 221.702 341.144V165.574C221.702 158.854 216.991 150.644 211.232 147.319L10.4616 31.4043ZM10.4616 36.9243L211.232 152.839C214.454 154.699 216.974 159.084 216.974 162.844V338.414C216.974 342.174 214.454 343.659 211.232 341.799L10.4616 225.884C7.24863 224.029 4.7285 219.634 4.7285 215.874V40.3043C4.7285 36.5443 7.24863 35.0693 10.4616 36.9243Z" fill="#8BC5E4"/>
<path fill-rule="evenodd" clip-rule="evenodd" d="M10.4616 36.9243L211.232 152.839C214.454 154.699 216.974 159.084 216.974 162.844V338.414C216.974 342.174 214.454 343.659 211.232 341.799L10.4616 225.884C7.24863 224.029 4.7285 219.634 4.7285 215.874V40.3043C4.7285 36.5443 7.24863 35.0693 10.4616 36.9243ZM69.2734 255.209V76.5693L73.2831 78.8843V197.974L210.574 277.239V281.929L198.372 274.884V292.544L210.574 299.589V304.279L171.716 281.844V299.514L210.574 321.949V326.639L73.2831 247.374V257.524L69.2734 255.209ZM114.913 152.719C114.913 131.729 129.575 123.084 147.562 133.469C165.549 143.854 180.211 169.429 180.211 190.419C180.211 211.399 165.549 220.044 147.562 209.659C140.487 205.574 133.931 199.149 128.57 191.564L110.531 202.069L102.979 188.839L121.001 178.344C117.173 169.894 114.913 160.949 114.913 152.719ZM27.0893 101.694L14.6705 74.1843L26.2839 80.8893L32.6405 96.0893L39.3435 88.4293L50.5239 94.8843L38.3303 107.714L51.6324 137.474L39.9584 130.734L32.6405 113.509L25.262 122.249L14.1249 115.819L27.0893 101.694ZM48.6013 170.824C49.4934 170.209 50.7664 170.334 52.0741 171.149C53.8408 172.259 55.3823 174.439 56.0318 176.724C56.6814 179.009 56.309 180.974 55.0792 181.734L20.1351 204.549C18.888 205.379 16.9481 204.749 15.2594 202.994C13.562 201.234 12.4448 198.679 12.4361 196.544L12.3062 169.049C12.2889 166.159 14.2808 164.969 16.7489 166.374C19.2171 167.779 21.2263 171.259 21.2349 174.144L21.3042 188.644L48.6013 170.824Z" fill="white"/>
<path d="M147.562 142.849C161.202 150.724 172.175 169.859 172.175 185.779C172.175 201.689 161.202 208.154 147.562 200.279C133.922 192.404 122.95 173.269 122.95 157.359C122.95 141.439 133.922 134.974 147.562 142.849Z" fill="white"/>
<path d="M145.215 244.194L194.353 272.564V290.224L145.215 261.854V244.194Z" fill="white"/>
<path d="M91.6688 213.279L141.197 241.874V259.534L91.6688 230.939V213.279Z" fill="white"/>
<path d="M118.715 251.244L167.697 279.524V297.194L118.715 268.914V251.244Z" fill="white"/>
<path d="M73.2831 225.014L114.696 248.924V266.594L73.2831 242.684V225.014Z" fill="white"/>
<path d="M73.2831 202.664L87.6504 210.959V228.619L73.2831 220.324V202.664Z" fill="white"/>
</svg>
