<svg width="226" height="252" viewBox="0 0 226 252" fill="none" xmlns="http://www.w3.org/2000/svg">
<path fill-rule="evenodd" clip-rule="evenodd" d="M88.1267 130.218V136.948L140.088 106.948V100.218L88.1267 130.218Z" fill="#8BC5E4"/>
<path fill-rule="evenodd" clip-rule="evenodd" d="M88.1266 136.948L86.0049 135.723L137.966 105.723L140.088 106.948L88.1266 136.948Z" fill="#8BC5E4"/>
<path fill-rule="evenodd" clip-rule="evenodd" d="M86.0049 135.723V128.993L137.966 98.9928V105.723L86.0049 135.723Z" fill="#8BC5E4"/>
<path fill-rule="evenodd" clip-rule="evenodd" d="M87.0703 124.238L139.032 94.2378L87.0703 124.238Z" fill="#8BC5E4"/>
<path fill-rule="evenodd" clip-rule="evenodd" d="M75.959 99.7228V108.753L127.92 78.7528V69.7228L75.959 99.7228Z" fill="#8BC5E4"/>
<path fill-rule="evenodd" clip-rule="evenodd" d="M75.959 108.753L69.23 104.868L121.191 74.8678L127.92 78.7528L75.959 108.753Z" fill="#8BC5E4"/>
<path fill-rule="evenodd" clip-rule="evenodd" d="M69.23 104.868V133.158L121.191 103.158V74.8678L69.23 104.868Z" fill="#8BC5E4"/>
<path fill-rule="evenodd" clip-rule="evenodd" d="M69.23 133.158L105.239 153.948L157.201 123.948L121.191 103.158L69.23 133.158Z" fill="#8BC5E4"/>
<path fill-rule="evenodd" clip-rule="evenodd" d="M105.24 153.948V125.658L157.201 95.6577V123.948L105.24 153.948Z" fill="#8BC5E4"/>
<path fill-rule="evenodd" clip-rule="evenodd" d="M105.239 125.658L98.4238 121.723L150.385 91.7228L157.201 95.6578L105.239 125.658Z" fill="#8BC5E4"/>
<path fill-rule="evenodd" clip-rule="evenodd" d="M98.4238 121.723V112.693L150.385 82.6927V91.7227L98.4238 121.723Z" fill="#8BC5E4"/>
<path fill-rule="evenodd" clip-rule="evenodd" d="M87.1914 92.5878L139.153 62.5878L87.1914 92.5878Z" fill="#8BC5E4"/>
<path fill-rule="evenodd" clip-rule="evenodd" d="M96.0681 111.333V120.363L148.03 90.3628V81.3328L96.0681 111.333Z" fill="#8BC5E4"/>
<path fill-rule="evenodd" clip-rule="evenodd" d="M96.0682 120.363L78.3147 110.113L130.276 80.1128L148.03 90.3628L96.0682 120.363Z" fill="#8BC5E4"/>
<path fill-rule="evenodd" clip-rule="evenodd" d="M78.3147 110.113V101.083L130.276 71.0828V80.1128L78.3147 110.113Z" fill="#8BC5E4"/>
<path fill-rule="evenodd" clip-rule="evenodd" d="M87.1914 95.3678L139.153 65.3678L87.1914 95.3678Z" fill="#8BC5E4"/>
<path fill-rule="evenodd" clip-rule="evenodd" d="M25.9375 132.943L27.5569 133.878L79.5185 103.878L77.899 102.943L25.9375 132.943Z" fill="#8BC5E4"/>
<path fill-rule="evenodd" clip-rule="evenodd" d="M27.5569 133.878L145.717 202.098L197.679 172.098L79.5185 103.878L27.5569 133.878Z" fill="#8BC5E4"/>
<path fill-rule="evenodd" clip-rule="evenodd" d="M145.717 202.098L147.467 203.108L199.428 173.108L197.679 172.098L145.717 202.098Z" fill="#8BC5E4"/>
<path fill-rule="evenodd" clip-rule="evenodd" d="M151.425 207.813L170.85 240.728L222.811 210.728L203.386 177.813L151.425 207.813Z" fill="#8BC5E4"/>
<path fill-rule="evenodd" clip-rule="evenodd" d="M170.85 240.728V245.868L222.811 215.868V210.728L170.85 240.728Z" fill="#8BC5E4"/>
<path fill-rule="evenodd" clip-rule="evenodd" d="M165.853 248.043L7.49121 156.613L59.4527 126.613L217.814 218.043L165.853 248.043Z" fill="#8BC5E4"/>
<path fill-rule="evenodd" clip-rule="evenodd" d="M2.35571 148.158V143.648L54.3172 113.648V118.158L2.35571 148.158Z" fill="#8BC5E4"/>
<path fill-rule="evenodd" clip-rule="evenodd" d="M2.35571 143.648L23.0364 132.708L74.9979 102.708L54.3172 113.648L2.35571 143.648Z" fill="#8BC5E4"/>
<path fill-rule="evenodd" clip-rule="evenodd" d="M25.9375 132.943L77.899 102.943L25.9375 132.943Z" fill="#8BC5E4"/>
<path fill-rule="evenodd" clip-rule="evenodd" d="M27.5569 33.7577L145.717 101.978L197.679 71.9777L79.5185 3.75769L27.5569 33.7577Z" fill="#8BC5E4"/>
<path fill-rule="evenodd" clip-rule="evenodd" d="M150.706 110.748V196.288L202.667 166.288V80.7478L150.706 110.748Z" fill="#8BC5E4"/>
<path fill-rule="evenodd" clip-rule="evenodd" d="M145.717 199.318L27.5569 131.098L79.5185 101.098L197.679 169.318L145.717 199.318Z" fill="#8BC5E4"/>
<path fill-rule="evenodd" clip-rule="evenodd" d="M22.5774 122.313V36.7727L74.5389 6.77271V92.3127L22.5774 122.313Z" fill="#8BC5E4"/>
<path fill-rule="evenodd" clip-rule="evenodd" d="M27.5569 33.7577L79.5185 3.75769L27.5569 33.7577Z" fill="#8BC5E4"/>
<path fill-rule="evenodd" clip-rule="evenodd" d="M20.2217 35.4127V120.953L72.1832 90.9527V5.41272L20.2217 35.4127Z" fill="#8BC5E4"/>
<path fill-rule="evenodd" clip-rule="evenodd" d="M21.4775 129.708L21.4602 129.718L73.4217 99.7178L73.4391 99.7078L21.4775 129.708Z" fill="#8BC5E4"/>
<path fill-rule="evenodd" clip-rule="evenodd" d="M21.4601 129.718L0 141.088L51.9615 111.088L73.4216 99.7178L21.4601 129.718Z" fill="#8BC5E4"/>
<path fill-rule="evenodd" clip-rule="evenodd" d="M0 141.088V146.798L51.9615 116.798V111.088L0 141.088Z" fill="#8BC5E4"/>
<path fill-rule="evenodd" clip-rule="evenodd" d="M7.49121 159.393L165.853 250.823L217.814 220.823L59.4527 129.393L7.49121 159.393Z" fill="#8BC5E4"/>
<path fill-rule="evenodd" clip-rule="evenodd" d="M173.205 247.228V240.888L225.167 210.888V217.228L173.205 247.228Z" fill="#8BC5E4"/>
<path fill-rule="evenodd" clip-rule="evenodd" d="M173.205 240.888L152.94 206.558L204.902 176.558L225.167 210.888L173.205 240.888Z" fill="#8BC5E4"/>
<path fill-rule="evenodd" clip-rule="evenodd" d="M152.94 206.558L152.897 206.483L204.858 176.483L204.902 176.558L152.94 206.558Z" fill="#8BC5E4"/>
<path fill-rule="evenodd" clip-rule="evenodd" d="M153.061 197.658V112.108L205.023 82.1078V167.658L153.061 197.658Z" fill="#8BC5E4"/>
<path fill-rule="evenodd" clip-rule="evenodd" d="M145.717 99.1978L27.5569 30.9778L79.5185 0.977783L197.679 69.1978L145.717 99.1978Z" fill="#8BC5E4"/>
<path fill-rule="evenodd" clip-rule="evenodd" d="M27.5569 30.9778L79.5185 0.977783L27.5569 30.9778Z" fill="#8BC5E4"/>
<path fill-rule="evenodd" clip-rule="evenodd" d="M29.1592 42.5928L143.786 108.773L195.748 78.7728L81.1207 12.5928L29.1592 42.5928Z" fill="#8BC5E4"/>
<path fill-rule="evenodd" clip-rule="evenodd" d="M143.786 108.773V190.373L195.748 160.373V78.7727L143.786 108.773Z" fill="#8BC5E4"/>
<path fill-rule="evenodd" clip-rule="evenodd" d="M143.786 190.373L29.1592 124.193L81.1207 94.1927L195.748 160.373L143.786 190.373Z" fill="#8BC5E4"/>
<path fill-rule="evenodd" clip-rule="evenodd" d="M29.1592 124.193V42.5928L81.1207 12.5928V94.1928L29.1592 124.193Z" fill="#8BC5E4"/>
<path fill-rule="evenodd" clip-rule="evenodd" d="M29.1592 42.5928L81.1207 12.5928L29.1592 42.5928Z" fill="#8BC5E4"/>
<path fill-rule="evenodd" clip-rule="evenodd" d="M57.3223 174.983L63.3325 166.303L115.294 136.303L109.284 144.983L57.3223 174.983Z" fill="#8BC5E4"/>
<path fill-rule="evenodd" clip-rule="evenodd" d="M63.3325 166.303L110.081 193.293L162.042 163.293L115.294 136.303L63.3325 166.303Z" fill="#8BC5E4"/>
<path fill-rule="evenodd" clip-rule="evenodd" d="M110.081 193.293L116.108 208.923L168.07 178.923L162.042 163.293L110.081 193.293Z" fill="#8BC5E4"/>
<path fill-rule="evenodd" clip-rule="evenodd" d="M116.108 208.923L100.52 199.923L152.481 169.923L168.07 178.923L116.108 208.923Z" fill="#8BC5E4"/>
<path fill-rule="evenodd" clip-rule="evenodd" d="M100.52 199.923V202.053L152.481 172.053V169.923L100.52 199.923Z" fill="#8BC5E4"/>
<path fill-rule="evenodd" clip-rule="evenodd" d="M96.8131 204.543L76.0891 192.578L128.051 162.578L148.775 174.543L96.8131 204.543Z" fill="#8BC5E4"/>
<path fill-rule="evenodd" clip-rule="evenodd" d="M72.5642 186.023V183.783L124.526 153.783V156.023L72.5642 186.023Z" fill="#8BC5E4"/>
<path fill-rule="evenodd" clip-rule="evenodd" d="M72.5644 183.783L57.3223 174.983L109.284 144.983L124.526 153.783L72.5644 183.783Z" fill="#8BC5E4"/>
<path fill-rule="evenodd" clip-rule="evenodd" d="M57.3223 174.983L109.284 144.983L57.3223 174.983Z" fill="#8BC5E4"/>
<path fill-rule="evenodd" clip-rule="evenodd" d="M87.0703 124.238C88.3953 125.003 89.4692 126.893 89.4692 128.453L141.431 98.4528C141.431 96.8928 140.357 95.0028 139.032 94.2378L87.0703 124.238Z" fill="#8BC5E4"/>
<path fill-rule="evenodd" clip-rule="evenodd" d="M89.4692 128.453C89.4691 129.204 89.2181 129.766 88.7881 130.038L140.75 100.038C141.18 99.7658 141.431 99.2038 141.431 98.4528L89.4692 128.453Z" fill="#8BC5E4"/>
<path fill-rule="evenodd" clip-rule="evenodd" d="M88.793 130.035C88.606 130.154 88.385 130.218 88.136 130.218L140.097 100.218C140.346 100.218 140.567 100.154 140.754 100.035L88.793 130.035Z" fill="#8BC5E4"/>
<path fill-rule="evenodd" clip-rule="evenodd" d="M86.0051 128.993C85.191 128.053 84.6714 126.763 84.6714 125.683L136.633 95.6827C136.633 96.7627 137.152 98.0527 137.967 98.9927L86.0051 128.993Z" fill="#8BC5E4"/>
<path fill-rule="evenodd" clip-rule="evenodd" d="M84.6714 125.683C84.6711 124.879 84.9571 124.316 85.4151 124.065L137.377 94.0647C136.919 94.3157 136.633 94.8787 136.633 95.6827L84.6714 125.683Z" fill="#8BC5E4"/>
<path fill-rule="evenodd" clip-rule="evenodd" d="M85.4231 124.061C85.8511 123.831 86.4271 123.87 87.0621 124.234L139.024 94.2337C138.389 93.8697 137.813 93.8307 137.385 94.0607L85.4231 124.061Z" fill="#8BC5E4"/>
<path fill-rule="evenodd" clip-rule="evenodd" d="M87.1914 92.5878C84.363 90.9548 81.571 90.8598 79.479 92.0968L131.441 62.0968C133.533 60.8598 136.325 60.9548 139.153 62.5878L87.1914 92.5878Z" fill="#8BC5E4"/>
<path fill-rule="evenodd" clip-rule="evenodd" d="M79.468 92.1028C77.357 93.3558 75.961 95.9648 75.959 99.7178L127.92 69.7178C127.922 65.9648 129.318 63.3558 131.429 62.1028L79.468 92.1028Z" fill="#8BC5E4"/>
<path fill-rule="evenodd" clip-rule="evenodd" d="M98.4238 112.693C98.4238 104.923 92.6128 95.7178 87.1914 92.5878L139.153 62.5878C144.574 65.7178 150.385 74.9228 150.385 82.6928L98.4238 112.693Z" fill="#8BC5E4"/>
<path fill-rule="evenodd" clip-rule="evenodd" d="M87.1914 95.3678C91.1059 97.6278 96.0682 105.263 96.0682 111.333L148.03 81.3328C148.03 75.2628 143.067 67.6278 139.153 65.3678L87.1914 95.3678Z" fill="#8BC5E4"/>
<path fill-rule="evenodd" clip-rule="evenodd" d="M78.3147 101.083C78.315 98.2098 79.477 96.1858 81.158 95.1718L133.119 65.1718C131.438 66.1858 130.276 68.2098 130.276 71.0828L78.3147 101.083Z" fill="#8BC5E4"/>
<path fill-rule="evenodd" clip-rule="evenodd" d="M81.166 95.1668C82.864 94.1468 85.091 94.1568 87.185 95.3638L139.147 65.3638C137.053 64.1568 134.826 64.1468 133.128 65.1668L81.166 95.1668Z" fill="#8BC5E4"/>
<path fill-rule="evenodd" clip-rule="evenodd" d="M147.467 203.108C148.186 203.523 150.013 205.718 151.424 207.813L203.386 177.813C201.974 175.718 200.147 173.523 199.428 173.108L147.467 203.108Z" fill="#8BC5E4"/>
<path fill-rule="evenodd" clip-rule="evenodd" d="M170.849 245.868C170.849 247.05 170.344 247.963 169.515 248.421L221.476 218.421C222.305 217.963 222.81 217.05 222.811 215.868L170.849 245.868Z" fill="#8BC5E4"/>
<path fill-rule="evenodd" clip-rule="evenodd" d="M169.517 248.42C168.608 248.924 167.309 248.881 165.861 248.048L217.823 218.048C219.271 218.881 220.57 218.924 221.479 218.42L169.517 248.42Z" fill="#8BC5E4"/>
<path fill-rule="evenodd" clip-rule="evenodd" d="M7.49113 156.613C6.21813 155.878 4.89303 154.573 3.94043 153.073L55.9019 123.073C56.8546 124.573 58.1796 125.878 59.4526 126.613L7.49113 156.613Z" fill="#8BC5E4"/>
<path fill-rule="evenodd" clip-rule="evenodd" d="M3.94051 153.073C2.97061 151.573 2.35571 149.928 2.35571 148.158L54.3172 118.158C54.3172 119.928 54.9321 121.573 55.902 123.073L3.94051 153.073Z" fill="#8BC5E4"/>
<path fill-rule="evenodd" clip-rule="evenodd" d="M23.0364 132.708C23.7292 132.398 24.9243 132.358 25.9376 132.943L77.8991 102.943C76.8858 102.358 75.6907 102.398 74.9979 102.708L23.0364 132.708Z" fill="#8BC5E4"/>
<path fill-rule="evenodd" clip-rule="evenodd" d="M145.717 101.978C148.497 103.583 150.706 107.458 150.706 110.748L202.667 80.7478C202.667 77.4578 200.459 73.5828 197.679 71.9778L145.717 101.978Z" fill="#8BC5E4"/>
<path fill-rule="evenodd" clip-rule="evenodd" d="M150.706 196.288C150.706 197.99 150.119 199.169 149.169 199.692L201.13 169.692C202.08 169.169 202.667 167.99 202.667 166.288L150.706 196.288Z" fill="#8BC5E4"/>
<path fill-rule="evenodd" clip-rule="evenodd" d="M149.161 199.696C148.271 200.181 147.065 200.093 145.726 199.323L197.688 169.323C199.027 170.093 200.233 170.181 201.123 169.696L149.161 199.696Z" fill="#8BC5E4"/>
<path fill-rule="evenodd" clip-rule="evenodd" d="M27.557 131.098C24.7771 129.493 22.5774 125.613 22.5774 122.313L74.5389 92.3127C74.5389 95.6127 76.7386 99.4927 79.5186 101.098L27.557 131.098Z" fill="#8BC5E4"/>
<path fill-rule="evenodd" clip-rule="evenodd" d="M22.5774 36.7728C22.5771 35.0698 23.1671 33.8918 24.1211 33.3748L76.0826 3.37476C75.1286 3.89176 74.5386 5.06976 74.5389 6.77276L22.5774 36.7728Z" fill="#8BC5E4"/>
<path fill-rule="evenodd" clip-rule="evenodd" d="M24.1179 33.3758C25.0059 32.8928 26.2099 32.9828 27.5489 33.7528L79.5104 3.75278C78.1714 2.98278 76.9674 2.89278 76.0794 3.37578L24.1179 33.3758Z" fill="#8BC5E4"/>
<path fill-rule="evenodd" clip-rule="evenodd" d="M27.5568 30.9778C25.6059 29.8518 23.8299 29.7318 22.5149 30.4458L74.4764 0.445781C75.7914 -0.268219 77.5674 -0.148219 79.5184 0.977781L27.5568 30.9778Z" fill="#8BC5E4"/>
<path fill-rule="evenodd" clip-rule="evenodd" d="M22.5169 30.4447C21.1059 31.2097 20.2239 32.9347 20.2219 35.4057L72.1834 5.4057C72.1854 2.9347 73.0674 1.2097 74.4784 0.444702L22.5169 30.4447Z" fill="#8BC5E4"/>
<path fill-rule="evenodd" clip-rule="evenodd" d="M20.2217 120.953C20.2217 123.703 21.3129 126.793 23.0016 129.358L74.9632 99.3578C73.2744 96.7928 72.1832 93.7028 72.1832 90.9528L20.2217 120.953Z" fill="#8BC5E4"/>
<path fill-rule="evenodd" clip-rule="evenodd" d="M23.0017 129.358C22.4761 129.381 22.0071 129.494 21.6011 129.656L73.5626 99.6558C73.9686 99.4938 74.4376 99.3808 74.9633 99.3578L23.0017 129.358Z" fill="#8BC5E4"/>
<path fill-rule="evenodd" clip-rule="evenodd" d="M21.5849 129.663C21.5509 129.677 21.5169 129.691 21.4829 129.706L73.4444 99.7057C73.4784 99.6907 73.5124 99.6767 73.5464 99.6627L21.5849 129.663Z" fill="#8BC5E4"/>
<path fill-rule="evenodd" clip-rule="evenodd" d="M0 146.798C0 149.378 0.9959 152.103 2.4162 154.333L54.3777 124.333C52.9575 122.103 51.9615 119.378 51.9615 116.798L0 146.798Z" fill="#8BC5E4"/>
<path fill-rule="evenodd" clip-rule="evenodd" d="M2.41626 154.333C3.85386 156.573 5.68116 158.348 7.49116 159.393L59.4527 129.393C57.6428 128.348 55.8154 126.573 54.3778 124.333L2.41626 154.333Z" fill="#8BC5E4"/>
<path fill-rule="evenodd" clip-rule="evenodd" d="M165.853 250.823C168.047 252.09 170.054 252.169 171.415 251.269L223.377 221.269C222.016 222.169 220.009 222.09 217.814 220.823L165.853 250.823Z" fill="#8BC5E4"/>
<path fill-rule="evenodd" clip-rule="evenodd" d="M171.413 251.271C172.523 250.538 173.204 249.155 173.205 247.234L225.167 217.234C225.166 219.155 224.485 220.538 223.375 221.271L171.413 251.271Z" fill="#8BC5E4"/>
<path fill-rule="evenodd" clip-rule="evenodd" d="M152.897 206.483C152.083 205.283 151.199 203.983 150.255 202.848L202.217 172.848C203.161 173.983 204.044 175.283 204.858 176.483L152.897 206.483Z" fill="#8BC5E4"/>
<path fill-rule="evenodd" clip-rule="evenodd" d="M150.255 202.848C150.495 202.763 150.723 202.654 150.938 202.521L202.899 172.521C202.684 172.654 202.456 172.763 202.217 172.848L150.255 202.848Z" fill="#8BC5E4"/>
<path fill-rule="evenodd" clip-rule="evenodd" d="M150.931 202.525C151.077 202.436 151.216 202.336 151.349 202.225L203.31 172.225C203.177 172.336 203.038 172.436 202.892 172.525L150.931 202.525Z" fill="#8BC5E4"/>
<path fill-rule="evenodd" clip-rule="evenodd" d="M151.348 202.226C152.415 201.339 153.059 199.776 153.061 197.666L205.022 167.666C205.02 169.776 204.376 171.339 203.309 172.226L151.348 202.226Z" fill="#8BC5E4"/>
<path fill-rule="evenodd" clip-rule="evenodd" d="M153.061 112.108C153.061 107.328 149.762 101.533 145.717 99.1978L197.679 69.1978C201.723 71.5328 205.023 77.3278 205.023 82.1078L153.061 112.108Z" fill="#8BC5E4"/>
<path fill-rule="evenodd" clip-rule="evenodd" d="M100.519 202.053C100.52 203.273 99.9759 204.251 99.1609 204.688L151.122 174.688C151.937 174.251 152.481 173.273 152.481 172.053L100.519 202.053Z" fill="#8BC5E4"/>
<path fill-rule="evenodd" clip-rule="evenodd" d="M99.1461 204.696C98.4951 205.038 97.6741 205.038 96.8191 204.546L148.781 174.546C149.636 175.038 150.457 175.038 151.108 174.696L99.1461 204.696Z" fill="#8BC5E4"/>
<path fill-rule="evenodd" clip-rule="evenodd" d="M76.0889 192.578C74.1144 191.438 72.5642 188.153 72.5642 186.023L124.526 156.023C124.526 158.153 126.076 161.438 128.05 162.578L76.0889 192.578Z" fill="#8BC5E4"/>
<path d="M87.0702 124.238C88.3952 125.003 89.4691 126.893 89.4691 128.453C89.4691 129.533 88.9495 130.223 88.1267 130.218V136.948L86.005 135.723V128.993C85.1909 128.053 84.6713 126.763 84.6713 125.683C84.6713 124.123 85.7452 123.473 87.0702 124.238ZM87.1914 92.5877C81.5016 89.3027 75.9591 92.2427 75.9591 99.7227V108.753L69.2301 104.868V133.158L105.239 153.948V125.658L98.4238 121.723V112.693C98.4238 104.923 92.6128 95.7177 87.1914 92.5877ZM87.1914 95.3677C91.1059 97.6277 96.0682 105.263 96.0682 111.333V120.363L78.3147 110.113V101.083C78.3147 95.3027 83.0172 92.9577 87.1914 95.3677ZM25.9375 132.943L27.5569 133.878L145.717 202.098L147.467 203.108C148.186 203.523 150.013 205.718 151.425 207.813L170.849 240.728V245.868C170.849 248.348 168.624 249.643 165.853 248.043L7.49112 156.613C6.21806 155.878 4.89304 154.573 3.94042 153.073C2.97047 151.573 2.35559 149.928 2.35559 148.158V143.648L23.0363 132.708C23.7291 132.398 24.9242 132.358 25.9375 132.943ZM27.5569 33.7577L145.717 101.978C148.497 103.583 150.706 107.458 150.706 110.748V196.288C150.706 199.588 148.497 200.923 145.717 199.318L27.5569 131.098C24.777 129.493 22.5773 125.613 22.5773 122.313V36.7727C22.5773 33.4827 24.777 32.1527 27.5569 33.7577ZM27.5569 30.9777C23.5126 28.6427 20.2217 30.6327 20.2217 35.4127V120.953C20.2217 123.703 21.3129 126.793 23.0016 129.358C22.4214 129.383 21.9104 129.518 21.4774 129.708L21.4601 129.718L0 141.088V146.798C0 149.378 0.995929 152.103 2.41621 154.333C3.85381 156.573 5.68113 158.348 7.49112 159.393L165.853 250.823C169.836 253.123 173.205 251.508 173.205 247.228V240.888L152.94 206.558L152.897 206.483C152.083 205.283 151.199 203.983 150.255 202.848C151.961 202.243 153.061 200.418 153.061 197.658V112.108C153.061 107.328 149.762 101.533 145.717 99.1977L27.5569 30.9777ZM29.1591 42.5927L143.786 108.773V190.373L29.1591 124.193V42.5927ZM57.3222 174.983L63.3324 166.303L110.08 193.293L116.108 208.923L100.52 199.923V202.053C100.52 204.253 98.7529 205.663 96.813 204.543L76.089 192.578C74.1144 191.438 72.5643 188.153 72.5643 186.023V183.783L57.3222 174.983Z" fill="#8BC5E4"/>
<path fill-rule="evenodd" clip-rule="evenodd" d="M27.5569 33.7577L145.717 101.978C148.497 103.583 150.706 107.458 150.706 110.748V196.288C150.706 199.588 148.497 200.923 145.717 199.318L27.5569 131.098C24.777 129.493 22.5773 125.613 22.5773 122.313V36.7727C22.5773 33.4827 24.777 32.1527 27.5569 33.7577ZM143.786 108.773L29.1591 42.5927V124.193L143.786 190.373V108.773Z" fill="white"/>
<path fill-rule="evenodd" clip-rule="evenodd" d="M87.1914 92.5877C81.5016 89.3027 75.9591 92.2427 75.9591 99.7227V108.753L69.2301 104.868V133.158L105.239 153.948V125.658L98.4238 121.723V112.693C98.4238 104.923 92.6128 95.7177 87.1914 92.5877ZM89.4691 128.453C89.4691 126.893 88.3952 125.003 87.0702 124.238C85.7452 123.473 84.6713 124.123 84.6713 125.683C84.6713 126.763 85.1909 128.053 86.005 128.993V135.723L88.1267 136.948V130.218C88.9495 130.223 89.4691 129.533 89.4691 128.453ZM96.0682 111.333C96.0682 105.263 91.1059 97.6277 87.1914 95.3677C83.0172 92.9577 78.3147 95.3027 78.3147 101.083V110.113L96.0682 120.363V111.333Z" fill="white"/>
<path fill-rule="evenodd" clip-rule="evenodd" d="M25.9375 132.943L27.5569 133.878L145.717 202.098L147.467 203.108C148.186 203.523 150.013 205.718 151.425 207.813L170.849 240.728V245.868C170.849 248.348 168.624 249.643 165.853 248.043L7.49112 156.613C6.21806 155.878 4.89304 154.573 3.94042 153.073C2.97047 151.573 2.35559 149.928 2.35559 148.158V143.648L23.0363 132.708C23.7291 132.398 24.9242 132.358 25.9375 132.943ZM63.3324 166.303L57.3222 174.983L72.5643 183.783V186.023C72.5643 188.153 74.1144 191.438 76.089 192.578L96.813 204.543C98.7529 205.663 100.52 204.253 100.52 202.053V199.923L116.108 208.923L110.08 193.293L63.3324 166.303Z" fill="white"/>
</svg>
