<svg width="226" height="252" viewBox="0 0 226 252" fill="none" xmlns="http://www.w3.org/2000/svg">
<path fill-rule="evenodd" clip-rule="evenodd" d="M140.088 128.499V135.229L88.1267 105.229V98.4989L140.088 128.499Z" fill="#8BC5E4"/>
<path fill-rule="evenodd" clip-rule="evenodd" d="M140.088 135.229L137.966 136.454L86.0049 106.454L88.1266 105.229L140.088 135.229Z" fill="#8BC5E4"/>
<path fill-rule="evenodd" clip-rule="evenodd" d="M137.966 136.454V129.724L86.0049 99.7239V106.454L137.966 136.454Z" fill="#8BC5E4"/>
<path fill-rule="evenodd" clip-rule="evenodd" d="M139.032 123.739L87.0701 93.7389L139.032 123.739Z" fill="#8BC5E4"/>
<path fill-rule="evenodd" clip-rule="evenodd" d="M127.92 112.054V121.084L75.959 91.0838V82.0538L127.92 112.054Z" fill="#8BC5E4"/>
<path fill-rule="evenodd" clip-rule="evenodd" d="M127.921 121.084L121.192 124.969L69.23 94.9689L75.9591 91.0839L127.921 121.084Z" fill="#8BC5E4"/>
<path fill-rule="evenodd" clip-rule="evenodd" d="M121.192 124.969V153.259L69.23 123.259V94.9689L121.192 124.969Z" fill="#8BC5E4"/>
<path fill-rule="evenodd" clip-rule="evenodd" d="M121.192 153.259L157.201 132.469L105.239 102.469L69.23 123.259L121.192 153.259Z" fill="#8BC5E4"/>
<path fill-rule="evenodd" clip-rule="evenodd" d="M157.201 132.469V104.179L105.239 74.1788V102.469L157.201 132.469Z" fill="#8BC5E4"/>
<path fill-rule="evenodd" clip-rule="evenodd" d="M157.201 104.179L150.385 108.114L98.4238 78.1138L105.239 74.1788L157.201 104.179Z" fill="#8BC5E4"/>
<path fill-rule="evenodd" clip-rule="evenodd" d="M150.385 108.114V99.0839L98.4238 69.0839V78.1139L150.385 108.114Z" fill="#8BC5E4"/>
<path fill-rule="evenodd" clip-rule="evenodd" d="M139.153 91.9489L87.1914 61.9489L139.153 91.9489Z" fill="#8BC5E4"/>
<path fill-rule="evenodd" clip-rule="evenodd" d="M148.03 100.444V109.474L96.0681 79.4738V70.4438L148.03 100.444Z" fill="#8BC5E4"/>
<path fill-rule="evenodd" clip-rule="evenodd" d="M148.03 109.474L130.276 119.724L78.3147 89.7239L96.0682 79.4739L148.03 109.474Z" fill="#8BC5E4"/>
<path fill-rule="evenodd" clip-rule="evenodd" d="M130.276 119.724V110.694L78.3147 80.6938V89.7238L130.276 119.724Z" fill="#8BC5E4"/>
<path fill-rule="evenodd" clip-rule="evenodd" d="M139.153 94.7289L87.1914 64.7289L139.153 94.7289Z" fill="#8BC5E4"/>
<path fill-rule="evenodd" clip-rule="evenodd" d="M77.8989 203.034L79.5183 202.099L27.5568 172.099L25.9373 173.034L77.8989 203.034Z" fill="#8BC5E4"/>
<path fill-rule="evenodd" clip-rule="evenodd" d="M79.5184 202.099L197.679 133.879L145.717 103.879L27.5569 172.099L79.5184 202.099Z" fill="#8BC5E4"/>
<path fill-rule="evenodd" clip-rule="evenodd" d="M197.679 133.879L199.428 132.869L147.467 102.869L145.717 103.879L197.679 133.879Z" fill="#8BC5E4"/>
<path fill-rule="evenodd" clip-rule="evenodd" d="M203.386 133.004L222.811 143.489L170.849 113.489L151.424 103.004L203.386 133.004Z" fill="#8BC5E4"/>
<path fill-rule="evenodd" clip-rule="evenodd" d="M222.811 143.489V148.629L170.849 118.629V113.489L222.811 143.489Z" fill="#8BC5E4"/>
<path fill-rule="evenodd" clip-rule="evenodd" d="M217.814 156.574L59.4525 248.004L7.49097 218.004L165.852 126.574L217.814 156.574Z" fill="#8BC5E4"/>
<path fill-rule="evenodd" clip-rule="evenodd" d="M54.317 245.479V240.969L2.35547 210.969V215.479L54.317 245.479Z" fill="#8BC5E4"/>
<path fill-rule="evenodd" clip-rule="evenodd" d="M54.317 240.969L74.9977 206.149L23.0362 176.149L2.35547 210.969L54.317 240.969Z" fill="#8BC5E4"/>
<path fill-rule="evenodd" clip-rule="evenodd" d="M77.8989 203.034L25.9373 173.034L77.8989 203.034Z" fill="#8BC5E4"/>
<path fill-rule="evenodd" clip-rule="evenodd" d="M79.5184 101.979L197.679 33.7589L145.717 3.75891L27.5569 71.9789L79.5184 101.979Z" fill="#8BC5E4"/>
<path fill-rule="evenodd" clip-rule="evenodd" d="M202.667 36.7689V122.309L150.706 92.3089V6.76892L202.667 36.7689Z" fill="#8BC5E4"/>
<path fill-rule="evenodd" clip-rule="evenodd" d="M197.679 131.099L79.5184 199.319L27.5569 169.319L145.717 101.099L197.679 131.099Z" fill="#8BC5E4"/>
<path fill-rule="evenodd" clip-rule="evenodd" d="M74.5386 196.284V110.744L22.5771 80.7439V166.284L74.5386 196.284Z" fill="#8BC5E4"/>
<path fill-rule="evenodd" clip-rule="evenodd" d="M79.5184 101.979L27.5569 71.9789L79.5184 101.979Z" fill="#8BC5E4"/>
<path fill-rule="evenodd" clip-rule="evenodd" d="M72.1832 112.104V197.644L20.2217 167.644V82.1039L72.1832 112.104Z" fill="#8BC5E4"/>
<path fill-rule="evenodd" clip-rule="evenodd" d="M73.4388 204.949L73.4215 204.979L21.46 174.979L21.4773 174.949L73.4388 204.949Z" fill="#8BC5E4"/>
<path fill-rule="evenodd" clip-rule="evenodd" d="M73.4216 204.979L51.9615 241.129L0 211.129L21.4601 174.979L73.4216 204.979Z" fill="#8BC5E4"/>
<path fill-rule="evenodd" clip-rule="evenodd" d="M51.9615 241.129V246.839L0 216.839V211.129L51.9615 241.129Z" fill="#8BC5E4"/>
<path fill-rule="evenodd" clip-rule="evenodd" d="M59.4525 250.784L217.814 159.354L165.852 129.354L7.49097 220.784L59.4525 250.784Z" fill="#8BC5E4"/>
<path fill-rule="evenodd" clip-rule="evenodd" d="M225.167 147.269V140.929L173.205 110.929V117.269L225.167 147.269Z" fill="#8BC5E4"/>
<path fill-rule="evenodd" clip-rule="evenodd" d="M225.166 140.929L204.901 129.999L152.94 99.9989L173.205 110.929L225.166 140.929Z" fill="#8BC5E4"/>
<path fill-rule="evenodd" clip-rule="evenodd" d="M204.902 129.999L204.858 129.974L152.897 99.9739L152.94 99.9989L204.902 129.999Z" fill="#8BC5E4"/>
<path fill-rule="evenodd" clip-rule="evenodd" d="M205.023 120.959V35.4089L153.061 5.40894V90.9589L205.023 120.959Z" fill="#8BC5E4"/>
<path fill-rule="evenodd" clip-rule="evenodd" d="M197.679 30.9789L79.5184 99.1989L27.5569 69.1989L145.717 0.978882L197.679 30.9789Z" fill="#8BC5E4"/>
<path fill-rule="evenodd" clip-rule="evenodd" d="M79.5184 99.1989L27.5569 69.1989L79.5184 99.1989Z" fill="#8BC5E4"/>
<path fill-rule="evenodd" clip-rule="evenodd" d="M81.1205 108.964L195.748 42.7839L143.786 12.7839L29.1589 78.9639L81.1205 108.964Z" fill="#8BC5E4"/>
<path fill-rule="evenodd" clip-rule="evenodd" d="M195.748 42.7839V124.384L143.786 94.3839V12.7839L195.748 42.7839Z" fill="#8BC5E4"/>
<path fill-rule="evenodd" clip-rule="evenodd" d="M195.748 124.384L81.1205 190.564L29.1589 160.564L143.786 94.3839L195.748 124.384Z" fill="#8BC5E4"/>
<path fill-rule="evenodd" clip-rule="evenodd" d="M81.1205 190.564V108.964L29.1589 78.9639V160.564L81.1205 190.564Z" fill="#8BC5E4"/>
<path fill-rule="evenodd" clip-rule="evenodd" d="M81.1205 108.964L29.1589 78.9639L81.1205 108.964Z" fill="#8BC5E4"/>
<path fill-rule="evenodd" clip-rule="evenodd" d="M109.284 208.834L115.294 193.214L63.3322 163.214L57.322 178.834L109.284 208.834Z" fill="#8BC5E4"/>
<path fill-rule="evenodd" clip-rule="evenodd" d="M115.294 193.214L162.042 166.224L110.08 136.224L63.3323 163.214L115.294 193.214Z" fill="#8BC5E4"/>
<path fill-rule="evenodd" clip-rule="evenodd" d="M162.042 166.224L168.069 174.894L116.108 144.894L110.08 136.224L162.042 166.224Z" fill="#8BC5E4"/>
<path fill-rule="evenodd" clip-rule="evenodd" d="M168.07 174.894L152.481 183.894L100.52 153.894L116.108 144.894L168.07 174.894Z" fill="#8BC5E4"/>
<path fill-rule="evenodd" clip-rule="evenodd" d="M152.481 183.894V186.024L100.52 156.024V153.894L152.481 183.894Z" fill="#8BC5E4"/>
<path fill-rule="evenodd" clip-rule="evenodd" d="M148.774 192.794L128.05 204.759L76.0889 174.759L96.8129 162.794L148.774 192.794Z" fill="#8BC5E4"/>
<path fill-rule="evenodd" clip-rule="evenodd" d="M124.526 202.274V200.034L72.5642 170.034V172.274L124.526 202.274Z" fill="#8BC5E4"/>
<path fill-rule="evenodd" clip-rule="evenodd" d="M124.526 200.034L109.284 208.834L57.322 178.834L72.564 170.034L124.526 200.034Z" fill="#8BC5E4"/>
<path fill-rule="evenodd" clip-rule="evenodd" d="M109.284 208.834L57.322 178.834L109.284 208.834Z" fill="#8BC5E4"/>
<path fill-rule="evenodd" clip-rule="evenodd" d="M139.032 123.739C139.673 123.368 140.256 123.33 140.686 123.566L88.7249 93.5659C88.2949 93.3299 87.7119 93.3679 87.0701 93.7389L139.032 123.739Z" fill="#8BC5E4"/>
<path fill-rule="evenodd" clip-rule="evenodd" d="M140.684 123.564C141.142 123.814 141.428 124.374 141.43 125.175L89.4689 95.1748C89.4669 94.3738 89.1809 93.8138 88.7229 93.5638L140.684 123.564Z" fill="#8BC5E4"/>
<path fill-rule="evenodd" clip-rule="evenodd" d="M141.431 125.184C141.431 126.264 140.911 127.554 140.088 128.499L88.1267 98.4988C88.9494 97.5538 89.4691 96.2638 89.4691 95.1838L141.431 125.184Z" fill="#8BC5E4"/>
<path fill-rule="evenodd" clip-rule="evenodd" d="M137.966 129.724C137.75 129.724 137.554 129.675 137.384 129.584L85.4229 99.5839C85.5929 99.6749 85.7889 99.7239 86.0049 99.7239L137.966 129.724Z" fill="#8BC5E4"/>
<path fill-rule="evenodd" clip-rule="evenodd" d="M137.385 129.584C136.914 129.332 136.633 128.751 136.632 127.96L84.6709 97.9598C84.6719 98.7508 84.9529 99.3318 85.4239 99.5838L137.385 129.584Z" fill="#8BC5E4"/>
<path fill-rule="evenodd" clip-rule="evenodd" d="M136.633 127.954C136.633 126.394 137.707 124.504 139.032 123.739L87.07 93.7389C85.745 94.5039 84.6711 96.3939 84.6711 97.9539L136.633 127.954Z" fill="#8BC5E4"/>
<path fill-rule="evenodd" clip-rule="evenodd" d="M139.153 91.9489C133.463 95.2339 127.92 104.574 127.92 112.054L75.959 82.0539C75.959 74.5739 81.5015 65.2339 87.1913 61.9489L139.153 91.9489Z" fill="#8BC5E4"/>
<path fill-rule="evenodd" clip-rule="evenodd" d="M150.385 99.0839C150.386 95.2449 148.967 92.6929 146.877 91.4719L94.915 61.4719C97.005 62.6929 98.424 65.2449 98.4238 69.0839L150.385 99.0839Z" fill="#8BC5E4"/>
<path fill-rule="evenodd" clip-rule="evenodd" d="M146.879 91.4739C144.742 90.2229 141.901 90.3639 139.16 91.9439L87.199 61.9439C89.94 60.3639 92.781 60.2229 94.918 61.4739L146.879 91.4739Z" fill="#8BC5E4"/>
<path fill-rule="evenodd" clip-rule="evenodd" d="M139.153 94.7288C141.164 93.5678 143.451 93.5058 145.201 94.5428L93.239 64.5428C91.489 63.5058 89.202 63.5678 87.1914 64.7288L139.153 94.7288Z" fill="#8BC5E4"/>
<path fill-rule="evenodd" clip-rule="evenodd" d="M145.197 94.5419C146.852 95.5219 148.027 97.4859 148.029 100.435L96.0678 70.4349C96.0658 67.4859 94.8908 65.5219 93.2358 64.5419L145.197 94.5419Z" fill="#8BC5E4"/>
<path fill-rule="evenodd" clip-rule="evenodd" d="M130.276 110.694C130.276 104.914 134.979 97.1389 139.153 94.7289L87.1914 64.7289C83.0172 67.1389 78.3147 74.9139 78.3147 80.6939L130.276 110.694Z" fill="#8BC5E4"/>
<path fill-rule="evenodd" clip-rule="evenodd" d="M199.428 132.869C200.147 132.454 201.974 132.539 203.386 133.004L151.424 103.004C150.013 102.539 148.186 102.454 147.467 102.869L199.428 132.869Z" fill="#8BC5E4"/>
<path fill-rule="evenodd" clip-rule="evenodd" d="M222.811 148.629C222.811 151.109 220.585 154.974 217.814 156.574L165.853 126.574C168.624 124.974 170.85 121.109 170.85 118.629L222.811 148.629Z" fill="#8BC5E4"/>
<path fill-rule="evenodd" clip-rule="evenodd" d="M59.4526 248.004C58.1796 248.739 56.8545 248.964 55.9019 248.564L3.94043 218.564C4.89303 218.964 6.21803 218.739 7.49113 218.004L59.4526 248.004Z" fill="#8BC5E4"/>
<path fill-rule="evenodd" clip-rule="evenodd" d="M55.9019 248.564C55.8105 248.528 55.7235 248.488 55.6385 248.442L3.677 218.442C3.762 218.488 3.849 218.528 3.9404 218.564L55.9019 248.564Z" fill="#8BC5E4"/>
<path fill-rule="evenodd" clip-rule="evenodd" d="M55.6385 248.442C54.8225 248.002 54.3185 247.085 54.3175 245.484L2.35596 215.484C2.35696 217.085 2.86096 218.002 3.67696 218.442L55.6385 248.442Z" fill="#8BC5E4"/>
<path fill-rule="evenodd" clip-rule="evenodd" d="M74.9976 206.149C75.6904 205.039 76.8855 203.619 77.8988 203.034L25.9372 173.034C24.924 173.619 23.7289 175.039 23.0361 176.149L74.9976 206.149Z" fill="#8BC5E4"/>
<path fill-rule="evenodd" clip-rule="evenodd" d="M197.679 33.7589C199.02 32.9849 200.228 32.8919 201.119 33.3729L149.158 3.37286C148.267 2.89186 147.059 2.98486 145.717 3.75886L197.679 33.7589Z" fill="#8BC5E4"/>
<path fill-rule="evenodd" clip-rule="evenodd" d="M201.128 33.3779C202.078 33.8949 202.665 35.0659 202.668 36.7589L150.706 6.75893C150.703 5.06593 150.116 3.89493 149.166 3.37793L201.128 33.3779Z" fill="#8BC5E4"/>
<path fill-rule="evenodd" clip-rule="evenodd" d="M202.667 122.309C202.667 125.609 200.459 129.494 197.679 131.099L145.717 101.099C148.497 99.4938 150.706 95.6088 150.706 92.3088L202.667 122.309Z" fill="#8BC5E4"/>
<path fill-rule="evenodd" clip-rule="evenodd" d="M79.5183 199.319C78.1714 200.096 76.9614 200.183 76.0714 199.69L24.1099 169.69C24.9999 170.183 26.2099 170.096 27.5568 169.319L79.5183 199.319Z" fill="#8BC5E4"/>
<path fill-rule="evenodd" clip-rule="evenodd" d="M76.0744 199.692C75.1264 199.169 74.5414 197.992 74.5384 196.294L22.5769 166.294C22.5799 167.992 23.1649 169.169 24.1129 169.692L76.0744 199.692Z" fill="#8BC5E4"/>
<path fill-rule="evenodd" clip-rule="evenodd" d="M74.5386 110.744C74.5386 107.454 76.7383 103.584 79.5182 101.979L27.5567 71.9789C24.7768 73.5839 22.5771 77.4539 22.5771 80.7439L74.5386 110.744Z" fill="#8BC5E4"/>
<path fill-rule="evenodd" clip-rule="evenodd" d="M79.5184 99.1989C75.4741 101.534 72.1832 107.324 72.1832 112.104L20.2217 82.1039C20.2217 77.3239 23.5126 71.5339 27.5569 69.1989L79.5184 99.1989Z" fill="#8BC5E4"/>
<path fill-rule="evenodd" clip-rule="evenodd" d="M72.1832 197.644C72.1835 200.136 73.0795 201.873 74.5045 202.634L22.543 172.634C21.118 171.873 20.222 170.136 20.2217 167.644L72.1832 197.644Z" fill="#8BC5E4"/>
<path fill-rule="evenodd" clip-rule="evenodd" d="M74.5003 202.632C74.6473 202.711 74.8003 202.779 74.9583 202.837L22.9968 172.837C22.8388 172.779 22.6858 172.711 22.5388 172.632L74.5003 202.632Z" fill="#8BC5E4"/>
<path fill-rule="evenodd" clip-rule="evenodd" d="M74.963 202.839C74.3828 203.534 73.8718 204.259 73.4388 204.949L21.4773 174.949C21.9103 174.259 22.4213 173.534 23.0015 172.839L74.963 202.839Z" fill="#8BC5E4"/>
<path fill-rule="evenodd" clip-rule="evenodd" d="M51.9615 246.839C51.9615 249.167 52.7725 250.677 53.9745 251.383L2.013 221.383C0.811 220.677 0 219.167 0 216.839L51.9615 246.839Z" fill="#8BC5E4"/>
<path fill-rule="evenodd" clip-rule="evenodd" d="M53.9674 251.379C54.0964 251.456 54.2314 251.523 54.3694 251.581L2.40786 221.581C2.26986 221.523 2.13486 221.456 2.00586 221.379L53.9674 251.379Z" fill="#8BC5E4"/>
<path fill-rule="evenodd" clip-rule="evenodd" d="M54.3775 251.584C55.8151 252.164 57.6424 251.829 59.4524 250.784L7.49092 220.784C5.68092 221.829 3.85362 222.164 2.41602 221.584L54.3775 251.584Z" fill="#8BC5E4"/>
<path fill-rule="evenodd" clip-rule="evenodd" d="M217.814 159.354C221.798 157.054 225.167 151.549 225.167 147.269L173.205 117.269C173.205 121.549 169.836 127.054 165.853 129.354L217.814 159.354Z" fill="#8BC5E4"/>
<path fill-rule="evenodd" clip-rule="evenodd" d="M204.858 129.974C204.044 129.714 203.161 129.434 202.217 129.389L150.255 99.3889C151.199 99.4339 152.083 99.7139 152.897 99.9739L204.858 129.974Z" fill="#8BC5E4"/>
<path fill-rule="evenodd" clip-rule="evenodd" d="M202.217 129.389C203.923 126.814 205.023 123.719 205.023 120.959L153.061 90.9589C153.061 93.7189 151.961 96.8139 150.255 99.3889L202.217 129.389Z" fill="#8BC5E4"/>
<path fill-rule="evenodd" clip-rule="evenodd" d="M205.023 35.4088C205.022 32.9348 204.138 31.2098 202.725 30.4448L150.764 0.444824C152.177 1.20982 153.061 2.93482 153.061 5.40882L205.023 35.4088Z" fill="#8BC5E4"/>
<path fill-rule="evenodd" clip-rule="evenodd" d="M202.727 30.4459C201.41 29.7319 199.634 29.8519 197.684 30.9759L145.723 0.975919C147.673 -0.148081 149.449 -0.268081 150.766 0.445919L202.727 30.4459Z" fill="#8BC5E4"/>
<path fill-rule="evenodd" clip-rule="evenodd" d="M152.481 186.024C152.481 188.224 150.714 191.674 148.774 192.794L96.813 162.794C98.7529 161.674 100.519 158.224 100.519 156.024L152.481 186.024Z" fill="#8BC5E4"/>
<path fill-rule="evenodd" clip-rule="evenodd" d="M128.05 204.759C127.178 205.262 126.39 205.252 125.78 204.9L73.8188 174.9C74.4288 175.252 75.2168 175.262 76.0888 174.759L128.05 204.759Z" fill="#8BC5E4"/>
<path fill-rule="evenodd" clip-rule="evenodd" d="M125.782 204.901C125.011 204.458 124.527 203.468 124.525 202.28L72.564 172.28C72.566 173.468 73.05 174.458 73.821 174.901L125.782 204.901Z" fill="#8BC5E4"/>
<path fill-rule="evenodd" clip-rule="evenodd" d="M79.5184 101.979L197.679 33.7589C200.459 32.1539 202.667 33.4789 202.667 36.7689V122.309C202.667 125.609 200.459 129.494 197.679 131.099L79.5184 199.319C76.7384 200.924 74.5387 199.584 74.5387 196.284V110.744C74.5387 107.454 76.7384 103.584 79.5184 101.979ZM195.748 42.7839L81.1205 108.964V190.564L195.748 124.384V42.7839Z" fill="white"/>
<path fill-rule="evenodd" clip-rule="evenodd" d="M141.431 125.184C141.431 123.624 140.357 122.974 139.032 123.739C137.707 124.504 136.633 126.394 136.633 127.954C136.633 129.034 137.152 129.724 137.966 129.724V136.454L140.088 135.229V128.499C140.911 127.554 141.431 126.264 141.431 125.184ZM127.921 112.054C127.921 104.574 133.463 95.2339 139.153 91.9489C144.574 88.8189 150.385 91.3139 150.385 99.0839V108.114L157.201 104.179V132.469L121.191 153.259V124.969L127.921 121.084V112.054ZM79.5184 202.099L77.8989 203.034C76.8856 203.619 75.6905 205.039 74.9977 206.149L54.317 240.969V245.479C54.317 247.249 54.9319 248.184 55.9018 248.564C56.8545 248.964 58.1795 248.739 59.4525 248.004L217.814 156.574C220.585 154.974 222.811 151.109 222.811 148.629V143.489L203.386 133.004C201.974 132.539 200.147 132.454 199.428 132.869L197.679 133.879L79.5184 202.099ZM197.679 33.7589L79.5184 101.979C76.7384 103.584 74.5387 107.454 74.5387 110.744V196.284C74.5387 199.584 76.7384 200.924 79.5184 199.319L197.679 131.099C200.459 129.494 202.667 125.609 202.667 122.309V36.7689C202.667 33.4789 200.459 32.1539 197.679 33.7589ZM72.1831 112.104C72.1831 107.324 75.474 101.534 79.5184 99.1989L197.679 30.9789C201.723 28.6439 205.023 30.6289 205.023 35.4089V120.959C205.023 123.719 203.923 126.814 202.217 129.389C203.161 129.434 204.044 129.714 204.858 129.974L204.902 129.999L225.167 140.929V147.269C225.167 151.549 221.798 157.054 217.814 159.354L59.4525 250.784C57.6426 251.829 55.8152 252.164 54.3776 251.584C52.9574 250.994 51.9614 249.419 51.9614 246.839V241.129L73.4215 204.979L73.4389 204.949C73.8719 204.259 74.3828 203.534 74.9631 202.839C73.2743 202.224 72.1831 200.394 72.1831 197.644V112.104ZM195.748 42.7839L81.1205 108.964V190.564L195.748 124.384V42.7839ZM115.294 193.214L109.284 208.834L124.526 200.034V202.274C124.526 204.404 126.076 205.899 128.05 204.759L148.774 192.794C150.714 191.674 152.481 188.224 152.481 186.024V183.894L168.069 174.894L162.042 166.224L115.294 193.214Z" fill="#8BC5E4"/>
<path d="M139.153 94.7289C143.067 92.4689 148.03 94.3739 148.03 100.444V109.474L130.276 119.724V110.694C130.276 104.914 134.979 97.1389 139.153 94.7289Z" fill="#8BC5E4"/>
<path fill-rule="evenodd" clip-rule="evenodd" d="M139.153 91.9489C133.463 95.2339 127.921 104.574 127.921 112.054V121.084L121.191 124.969V153.259L157.201 132.469V104.179L150.385 108.114V99.0839C150.385 91.3139 144.574 88.8189 139.153 91.9489ZM141.431 125.184C141.431 123.624 140.357 122.974 139.032 123.739C137.707 124.504 136.633 126.394 136.633 127.954C136.633 129.034 137.152 129.724 137.966 129.724V136.454L140.088 135.229V128.499C140.911 127.554 141.431 126.264 141.431 125.184ZM148.03 100.444C148.03 94.3739 143.067 92.4689 139.153 94.7289C134.979 97.1389 130.276 104.914 130.276 110.694V119.724L148.03 109.474V100.444Z" fill="white"/>
<path fill-rule="evenodd" clip-rule="evenodd" d="M77.8989 203.034L79.5184 202.099L197.679 133.879L199.428 132.869C200.147 132.454 201.974 132.539 203.386 133.004L222.811 143.489V148.629C222.811 151.109 220.585 154.974 217.814 156.574L59.4525 248.004C58.1795 248.739 56.8545 248.964 55.9018 248.564C54.9319 248.184 54.317 247.249 54.317 245.479V240.969L74.9977 206.149C75.6905 205.039 76.8856 203.619 77.8989 203.034ZM115.294 193.214L109.284 208.834L124.526 200.034V202.274C124.526 204.404 126.076 205.899 128.05 204.759L148.774 192.794C150.714 191.674 152.481 188.224 152.481 186.024V183.894L168.069 174.894L162.042 166.224L115.294 193.214Z" fill="white"/>
</svg>
