<svg width="226" height="321" viewBox="0 0 226 321" fill="none" xmlns="http://www.w3.org/2000/svg">
<path fill-rule="evenodd" clip-rule="evenodd" d="M10.6262 36.9578L162.579 124.688L214.541 94.6878L62.5878 6.95776L10.6262 36.9578Z" fill="#8BC5E4"/>
<path fill-rule="evenodd" clip-rule="evenodd" d="M168.407 134.763V310.323L220.369 280.323V104.763L168.407 134.763Z" fill="#8BC5E4"/>
<path fill-rule="evenodd" clip-rule="evenodd" d="M162.579 313.668L10.6262 225.938L62.5878 195.938L214.541 283.668L162.579 313.668Z" fill="#8BC5E4"/>
<path fill-rule="evenodd" clip-rule="evenodd" d="M4.79785 215.863V40.3027L56.7593 10.3027V185.863L4.79785 215.863Z" fill="#8BC5E4"/>
<path fill-rule="evenodd" clip-rule="evenodd" d="M10.6262 36.9578L62.5878 6.95776L10.6262 36.9578Z" fill="#8BC5E4"/>
<path fill-rule="evenodd" clip-rule="evenodd" d="M0 37.5327V213.093L51.9615 183.093V7.53271L0 37.5327Z" fill="#8BC5E4"/>
<path fill-rule="evenodd" clip-rule="evenodd" d="M10.6262 231.448L162.579 319.178L214.541 289.178L62.5878 201.448L10.6262 231.448Z" fill="#8BC5E4"/>
<path fill-rule="evenodd" clip-rule="evenodd" d="M173.205 313.093V137.533L225.167 107.533V283.093L173.205 313.093Z" fill="#8BC5E4"/>
<path fill-rule="evenodd" clip-rule="evenodd" d="M162.579 119.178L10.6262 31.4478L62.5878 1.44775L214.541 89.1778L162.579 119.178Z" fill="#8BC5E4"/>
<path fill-rule="evenodd" clip-rule="evenodd" d="M10.6262 31.4478L62.5878 1.44775L10.6262 31.4478Z" fill="#8BC5E4"/>
<path fill-rule="evenodd" clip-rule="evenodd" d="M13.0684 76.8577V156.718L65.0299 126.718V46.8577L13.0684 76.8577Z" fill="#8BC5E4"/>
<path fill-rule="evenodd" clip-rule="evenodd" d="M27.6956 181.973L73.6989 208.533L125.66 178.533L79.6571 151.973L27.6956 181.973Z" fill="#8BC5E4"/>
<path fill-rule="evenodd" clip-rule="evenodd" d="M73.6987 208.533V225.173L125.66 195.173V178.533L73.6987 208.533Z" fill="#8BC5E4"/>
<path fill-rule="evenodd" clip-rule="evenodd" d="M73.6989 225.173L51.7278 212.488L103.689 182.488L125.66 195.173L73.6989 225.173Z" fill="#8BC5E4"/>
<path fill-rule="evenodd" clip-rule="evenodd" d="M51.7278 228.118L121.287 268.278L173.248 238.278L103.689 198.118L51.7278 228.118Z" fill="#8BC5E4"/>
<path fill-rule="evenodd" clip-rule="evenodd" d="M121.287 252.648L102.321 241.698L154.282 211.698L173.248 222.648L121.287 252.648Z" fill="#8BC5E4"/>
<path fill-rule="evenodd" clip-rule="evenodd" d="M102.321 241.698V225.058L154.282 195.058V211.698L102.321 241.698Z" fill="#8BC5E4"/>
<path fill-rule="evenodd" clip-rule="evenodd" d="M102.321 225.058L146.012 250.283L197.973 220.283L154.282 195.058L102.321 225.058Z" fill="#8BC5E4"/>
<path fill-rule="evenodd" clip-rule="evenodd" d="M160.639 241.918V162.058L212.601 132.058V211.918L160.639 241.918Z" fill="#8BC5E4"/>
<path fill-rule="evenodd" clip-rule="evenodd" d="M146.012 136.793L27.6956 68.4827L79.6571 38.4827L197.973 106.793L146.012 136.793Z" fill="#8BC5E4"/>
<path fill-rule="evenodd" clip-rule="evenodd" d="M27.6956 68.4827L79.6571 38.4827L27.6956 68.4827Z" fill="#8BC5E4"/>
<path fill-rule="evenodd" clip-rule="evenodd" d="M27.6956 75.7827L146.012 144.093L197.973 114.093L79.6571 45.7827L27.6956 75.7827Z" fill="#8BC5E4"/>
<path fill-rule="evenodd" clip-rule="evenodd" d="M154.291 158.393V238.253L206.253 208.253V128.393L154.291 158.393Z" fill="#8BC5E4"/>
<path fill-rule="evenodd" clip-rule="evenodd" d="M146.012 242.993L27.6956 174.683L79.6571 144.683L197.973 212.993L146.012 242.993Z" fill="#8BC5E4"/>
<path fill-rule="evenodd" clip-rule="evenodd" d="M19.4163 160.383V80.5227L71.3778 50.5227V130.383L19.4163 160.383Z" fill="#8BC5E4"/>
<path fill-rule="evenodd" clip-rule="evenodd" d="M27.6956 75.7827L79.6571 45.7827L27.6956 75.7827Z" fill="#8BC5E4"/>
<path fill-rule="evenodd" clip-rule="evenodd" d="M60.414 159.183L41.2056 170.923L93.1671 140.923L112.376 129.183L60.414 159.183Z" fill="#8BC5E4"/>
<path fill-rule="evenodd" clip-rule="evenodd" d="M41.2056 170.923L49.3462 184.663L101.308 154.663L93.1671 140.923L41.2056 170.923Z" fill="#8BC5E4"/>
<path fill-rule="evenodd" clip-rule="evenodd" d="M49.3462 184.663L68.9271 172.698L120.889 142.698L101.308 154.663L49.3462 184.663Z" fill="#8BC5E4"/>
<path fill-rule="evenodd" clip-rule="evenodd" d="M86.8103 110.633L138.772 80.6327L86.8103 110.633Z" fill="#8BC5E4"/>
<path fill-rule="evenodd" clip-rule="evenodd" d="M86.8103 119.563L138.772 89.5627L86.8103 119.563Z" fill="#8BC5E4"/>
<path fill-rule="evenodd" clip-rule="evenodd" d="M77.2842 129.063V138.333L129.246 108.333V99.0627L77.2842 129.063Z" fill="#8BC5E4"/>
<path fill-rule="evenodd" clip-rule="evenodd" d="M77.284 138.333L70.6416 134.498L122.603 104.498L129.246 108.333L77.284 138.333Z" fill="#8BC5E4"/>
<path fill-rule="evenodd" clip-rule="evenodd" d="M70.6416 134.498V159.968L122.603 129.968V104.498L70.6416 134.498Z" fill="#8BC5E4"/>
<path fill-rule="evenodd" clip-rule="evenodd" d="M70.6416 159.968L102.996 178.648L154.958 148.648L122.603 129.968L70.6416 159.968Z" fill="#8BC5E4"/>
<path fill-rule="evenodd" clip-rule="evenodd" d="M102.996 178.648V153.178L154.958 123.178V148.648L102.996 178.648Z" fill="#8BC5E4"/>
<path fill-rule="evenodd" clip-rule="evenodd" d="M102.996 153.178L97.3325 149.908L149.294 119.908L154.958 123.178L102.996 153.178Z" fill="#8BC5E4"/>
<path fill-rule="evenodd" clip-rule="evenodd" d="M97.3325 149.908V140.638L149.294 110.638V119.908L97.3325 149.908Z" fill="#8BC5E4"/>
<path fill-rule="evenodd" clip-rule="evenodd" d="M87.304 123.488L139.265 93.4877L87.304 123.488Z" fill="#8BC5E4"/>
<path fill-rule="evenodd" clip-rule="evenodd" d="M95.1157 139.358V148.628L147.077 118.628V109.358L95.1157 139.358Z" fill="#8BC5E4"/>
<path fill-rule="evenodd" clip-rule="evenodd" d="M95.1156 148.628L79.5098 139.618L131.471 109.618L147.077 118.628L95.1156 148.628Z" fill="#8BC5E4"/>
<path fill-rule="evenodd" clip-rule="evenodd" d="M79.5098 139.618V130.348L131.471 100.348V109.618L79.5098 139.618Z" fill="#8BC5E4"/>
<path fill-rule="evenodd" clip-rule="evenodd" d="M87.304 126.038L139.265 96.0377L87.304 126.038Z" fill="#8BC5E4"/>
<path fill-rule="evenodd" clip-rule="evenodd" d="M87.7112 157.293V163.273L139.673 133.273V127.293L87.7112 157.293Z" fill="#8BC5E4"/>
<path fill-rule="evenodd" clip-rule="evenodd" d="M87.7112 163.273L85.9358 162.248L137.897 132.248L139.673 133.273L87.7112 163.273Z" fill="#8BC5E4"/>
<path fill-rule="evenodd" clip-rule="evenodd" d="M85.9358 162.248V156.268L137.897 126.268V132.248L85.9358 162.248Z" fill="#8BC5E4"/>
<path fill-rule="evenodd" clip-rule="evenodd" d="M86.8276 151.833L138.789 121.833L86.8276 151.833Z" fill="#8BC5E4"/>
<path fill-rule="evenodd" clip-rule="evenodd" d="M162.579 124.688C165.852 126.578 168.407 130.993 168.407 134.763L220.369 104.763C220.369 100.993 217.814 96.5777 214.54 94.6877L162.579 124.688Z" fill="#8BC5E4"/>
<path fill-rule="evenodd" clip-rule="evenodd" d="M168.407 310.323C168.407 312.12 167.827 313.393 166.865 314.029L218.826 284.029C219.788 283.393 220.368 282.12 220.369 280.323L168.407 310.323Z" fill="#8BC5E4"/>
<path fill-rule="evenodd" clip-rule="evenodd" d="M166.867 314.028C165.811 314.727 164.296 314.658 162.584 313.671L214.545 283.671C216.257 284.658 217.772 284.727 218.828 284.028L166.867 314.028Z" fill="#8BC5E4"/>
<path fill-rule="evenodd" clip-rule="evenodd" d="M10.6262 225.938C7.35265 224.048 4.79785 219.633 4.79785 215.863L56.7593 185.863C56.7593 189.633 59.3142 194.048 62.5878 195.938L10.6262 225.938Z" fill="#8BC5E4"/>
<path fill-rule="evenodd" clip-rule="evenodd" d="M4.79785 40.3027C4.79805 38.5057 5.37805 37.2327 6.34005 36.5967L58.3016 6.59668C57.3396 7.23268 56.7595 8.50568 56.7593 10.3027L4.79785 40.3027Z" fill="#8BC5E4"/>
<path fill-rule="evenodd" clip-rule="evenodd" d="M6.33789 36.5977C7.39389 35.8987 8.90889 35.9677 10.6209 36.9547L62.5824 6.95467C60.8704 5.96767 59.3554 5.89867 58.2994 6.59767L6.33789 36.5977Z" fill="#8BC5E4"/>
<path fill-rule="evenodd" clip-rule="evenodd" d="M10.6261 31.4477C7.56598 29.6807 4.79798 29.5867 2.85498 30.8637L54.8165 0.86371C56.7595 -0.41329 59.5275 -0.31929 62.5877 1.44771L10.6261 31.4477Z" fill="#8BC5E4"/>
<path fill-rule="evenodd" clip-rule="evenodd" d="M2.858 30.8617C1.089 32.0227 0.002 34.3187 0 37.5227L51.9615 7.52269C51.9635 4.31869 53.0505 2.02269 54.8195 0.861694L2.858 30.8617Z" fill="#8BC5E4"/>
<path fill-rule="evenodd" clip-rule="evenodd" d="M0 213.093C0 219.823 4.7805 228.073 10.6261 231.448L62.5877 201.448C56.742 198.073 51.9615 189.823 51.9615 183.093L0 213.093Z" fill="#8BC5E4"/>
<path fill-rule="evenodd" clip-rule="evenodd" d="M162.579 319.178C165.639 320.945 168.407 321.039 170.35 319.762L222.311 289.762C220.368 291.039 217.6 290.945 214.54 289.178L162.579 319.178Z" fill="#8BC5E4"/>
<path fill-rule="evenodd" clip-rule="evenodd" d="M170.347 319.764C172.116 318.603 173.203 316.307 173.205 313.103L225.166 283.103C225.164 286.307 224.077 288.603 222.308 289.764L170.347 319.764Z" fill="#8BC5E4"/>
<path fill-rule="evenodd" clip-rule="evenodd" d="M173.205 137.533C173.205 130.803 168.425 122.553 162.579 119.178L214.54 89.1777C220.386 92.5527 225.167 100.803 225.167 107.533L173.205 137.533Z" fill="#8BC5E4"/>
<path fill-rule="evenodd" clip-rule="evenodd" d="M27.6955 68.4827C23.488 66.0537 19.684 65.9237 17.011 67.6727L68.9725 37.6727C71.6455 35.9237 75.4495 36.0537 79.657 38.4827L27.6955 68.4827Z" fill="#8BC5E4"/>
<path fill-rule="evenodd" clip-rule="evenodd" d="M17.0131 67.6718C14.5691 69.2688 13.0701 72.4358 13.0681 76.8508L65.0296 46.8508C65.0316 42.4358 66.5306 39.2688 68.9746 37.6718L17.0131 67.6718Z" fill="#8BC5E4"/>
<path fill-rule="evenodd" clip-rule="evenodd" d="M13.0684 156.718C13.0684 165.968 19.6416 177.323 27.6956 181.973L79.6571 151.973C71.6031 147.323 65.0299 135.968 65.0299 126.718L13.0684 156.718Z" fill="#8BC5E4"/>
<path fill-rule="evenodd" clip-rule="evenodd" d="M51.7278 212.488C49.9311 211.451 48.2381 211.286 46.9871 211.962L98.9486 181.962C100.2 181.286 101.893 181.451 103.689 182.488L51.7278 212.488Z" fill="#8BC5E4"/>
<path fill-rule="evenodd" clip-rule="evenodd" d="M46.991 211.96C46.548 212.199 46.16 212.544 45.842 212.993L97.8035 182.993C98.1215 182.544 98.5095 182.199 98.9525 181.96L46.991 211.96Z" fill="#8BC5E4"/>
<path fill-rule="evenodd" clip-rule="evenodd" d="M45.8387 212.998C44.6263 214.718 44.6263 217.698 45.8387 220.808L97.8002 190.808C96.5878 187.698 96.5878 184.718 97.8002 182.998L45.8387 212.998Z" fill="#8BC5E4"/>
<path fill-rule="evenodd" clip-rule="evenodd" d="M45.8386 220.808C47.0511 223.928 49.2941 226.713 51.7276 228.118L103.689 198.118C101.256 196.713 99.0126 193.928 97.8001 190.808L45.8386 220.808Z" fill="#8BC5E4"/>
<path fill-rule="evenodd" clip-rule="evenodd" d="M121.287 268.278C123.083 269.315 124.776 269.48 126.027 268.804L177.988 238.804C176.737 239.48 175.044 239.315 173.248 238.278L121.287 268.278Z" fill="#8BC5E4"/>
<path fill-rule="evenodd" clip-rule="evenodd" d="M126.023 268.806C126.467 268.567 126.855 268.222 127.172 267.773L179.133 237.773C178.816 238.222 178.428 238.567 177.984 238.806L126.023 268.806Z" fill="#8BC5E4"/>
<path fill-rule="evenodd" clip-rule="evenodd" d="M127.176 267.768C128.388 266.058 128.388 263.078 127.176 259.958L179.137 229.958C180.35 233.078 180.35 236.058 179.137 237.768L127.176 267.768Z" fill="#8BC5E4"/>
<path fill-rule="evenodd" clip-rule="evenodd" d="M127.176 259.958C125.963 256.838 123.72 254.053 121.287 252.648L173.248 222.648C175.682 224.053 177.925 226.838 179.137 229.958L127.176 259.958Z" fill="#8BC5E4"/>
<path fill-rule="evenodd" clip-rule="evenodd" d="M146.012 250.283C150.215 252.71 154.019 252.842 156.694 251.096L208.656 221.096C205.981 222.842 202.177 222.71 197.973 220.283L146.012 250.283Z" fill="#8BC5E4"/>
<path fill-rule="evenodd" clip-rule="evenodd" d="M156.692 251.098C159.136 249.503 160.638 246.34 160.639 241.925L212.6 211.925C212.599 216.34 211.097 219.503 208.653 221.098L156.692 251.098Z" fill="#8BC5E4"/>
<path fill-rule="evenodd" clip-rule="evenodd" d="M160.639 162.058C160.639 152.808 154.057 141.438 146.012 136.793L197.973 106.793C206.019 111.438 212.601 122.808 212.601 132.058L160.639 162.058Z" fill="#8BC5E4"/>
<path fill-rule="evenodd" clip-rule="evenodd" d="M146.012 144.093C150.654 146.773 154.291 153.063 154.291 158.393L206.253 128.393C206.253 123.063 202.615 116.773 197.973 114.093L146.012 144.093Z" fill="#8BC5E4"/>
<path fill-rule="evenodd" clip-rule="evenodd" d="M154.291 238.253C154.291 240.798 153.465 242.602 152.098 243.504L204.059 213.504C205.426 212.602 206.252 210.798 206.252 208.253L154.291 238.253Z" fill="#8BC5E4"/>
<path fill-rule="evenodd" clip-rule="evenodd" d="M152.1 243.503C150.599 244.494 148.447 244.397 146.019 242.997L197.981 212.997C200.409 214.397 202.561 214.494 204.062 213.503L152.1 243.503Z" fill="#8BC5E4"/>
<path fill-rule="evenodd" clip-rule="evenodd" d="M27.6955 174.683C23.0536 172.003 19.4163 165.723 19.4163 160.383L71.3778 130.383C71.3778 135.723 75.0151 142.003 79.657 144.683L27.6955 174.683Z" fill="#8BC5E4"/>
<path fill-rule="evenodd" clip-rule="evenodd" d="M19.4163 80.5228C19.416 77.9828 20.242 76.1788 21.61 75.2758L73.5715 45.2758C72.2035 46.1788 71.3775 47.9828 71.3778 50.5228L19.4163 80.5228Z" fill="#8BC5E4"/>
<path fill-rule="evenodd" clip-rule="evenodd" d="M21.624 75.2657C23.124 74.2857 25.27 74.3847 27.689 75.7787L79.6505 45.7787C77.2315 44.3847 75.0855 44.2857 73.5855 45.2657L21.624 75.2657Z" fill="#8BC5E4"/>
<path fill-rule="evenodd" clip-rule="evenodd" d="M86.8105 110.633C77.0101 104.975 68.1551 104.658 61.9331 108.72L113.895 78.7197C120.117 74.6577 128.972 74.9747 138.772 80.6327L86.8105 110.633Z" fill="#8BC5E4"/>
<path fill-rule="evenodd" clip-rule="evenodd" d="M61.9351 108.718C56.2481 112.429 52.7601 119.797 52.7581 130.085L104.72 100.085C104.722 89.7968 108.21 82.4288 113.897 78.7178L61.9351 108.718Z" fill="#8BC5E4"/>
<path fill-rule="evenodd" clip-rule="evenodd" d="M52.7583 130.093C52.7583 139.433 55.6335 149.693 60.4139 159.183L112.375 129.183C107.595 119.693 104.72 109.433 104.72 100.093L52.7583 130.093Z" fill="#8BC5E4"/>
<path fill-rule="evenodd" clip-rule="evenodd" d="M68.927 172.698C74.1318 179.413 80.2632 185.103 86.8104 188.883L138.772 158.883C132.225 155.103 126.093 149.413 120.889 142.698L68.927 172.698Z" fill="#8BC5E4"/>
<path fill-rule="evenodd" clip-rule="evenodd" d="M86.8103 188.883C96.6109 194.541 105.463 194.856 111.683 190.792L163.644 160.792C157.424 164.856 148.572 164.541 138.772 158.883L86.8103 188.883Z" fill="#8BC5E4"/>
<path fill-rule="evenodd" clip-rule="evenodd" d="M111.681 190.793C117.366 187.08 120.852 179.709 120.854 169.416L172.815 139.416C172.813 149.709 169.327 157.08 163.642 160.793L111.681 190.793Z" fill="#8BC5E4"/>
<path fill-rule="evenodd" clip-rule="evenodd" d="M120.854 169.408C120.854 147.858 105.568 121.463 86.8103 110.633L138.772 80.6327C157.53 91.4627 172.815 117.858 172.815 139.408L120.854 169.408Z" fill="#8BC5E4"/>
<path fill-rule="evenodd" clip-rule="evenodd" d="M86.8103 119.563C101.36 127.963 113.077 148.198 113.077 164.918L165.038 134.918C165.038 118.198 153.321 97.9627 138.772 89.5627L86.8103 119.563Z" fill="#8BC5E4"/>
<path fill-rule="evenodd" clip-rule="evenodd" d="M113.077 164.918C113.077 172.907 110.405 178.61 106.028 181.474L157.99 151.474C162.367 148.61 165.039 142.907 165.039 134.918L113.077 164.918Z" fill="#8BC5E4"/>
<path fill-rule="evenodd" clip-rule="evenodd" d="M106.03 181.473C101.243 184.606 94.4159 184.342 86.8159 179.956L138.777 149.956C146.377 154.342 153.204 154.606 157.991 151.473L106.03 181.473Z" fill="#8BC5E4"/>
<path fill-rule="evenodd" clip-rule="evenodd" d="M86.8103 179.953C72.2524 171.548 60.5437 151.318 60.5437 134.588L112.505 104.588C112.505 121.318 124.214 141.548 138.772 149.953L86.8103 179.953Z" fill="#8BC5E4"/>
<path fill-rule="evenodd" clip-rule="evenodd" d="M60.5437 134.588C60.5439 126.604 63.2139 120.902 67.5889 118.039L119.55 88.0387C115.175 90.9017 112.505 96.6037 112.505 104.588L60.5437 134.588Z" fill="#8BC5E4"/>
<path fill-rule="evenodd" clip-rule="evenodd" d="M67.5879 118.04C72.3739 114.907 79.2009 115.171 86.8049 119.56L138.766 89.5597C131.162 85.1707 124.335 84.9067 119.549 88.0397L67.5879 118.04Z" fill="#8BC5E4"/>
<path fill-rule="evenodd" clip-rule="evenodd" d="M87.3041 123.488C84.1961 121.694 81.7341 121.705 80.0291 122.81L131.991 92.8098C133.696 91.7048 136.158 91.6938 139.266 93.4878L87.3041 123.488Z" fill="#8BC5E4"/>
<path fill-rule="evenodd" clip-rule="evenodd" d="M80.0309 122.808C78.2439 123.964 77.2859 126.319 77.2839 129.055L129.245 99.0547C129.247 96.3187 130.205 93.9637 131.992 92.8077L80.0309 122.808Z" fill="#8BC5E4"/>
<path fill-rule="evenodd" clip-rule="evenodd" d="M97.3326 140.638C97.3326 134.208 92.6561 126.578 87.304 123.488L139.265 93.4877C144.618 96.5777 149.294 104.208 149.294 110.638L97.3326 140.638Z" fill="#8BC5E4"/>
<path fill-rule="evenodd" clip-rule="evenodd" d="M87.304 126.038C91.4696 128.443 95.1156 134.348 95.1156 139.358L147.077 109.358C147.077 104.348 143.431 98.4427 139.265 96.0377L87.304 126.038Z" fill="#8BC5E4"/>
<path fill-rule="evenodd" clip-rule="evenodd" d="M79.5098 130.348C79.51 128.249 80.22 126.363 81.627 125.454L133.588 95.4537C132.181 96.3627 131.471 98.2487 131.471 100.348L79.5098 130.348Z" fill="#8BC5E4"/>
<path fill-rule="evenodd" clip-rule="evenodd" d="M81.625 125.455C82.925 124.613 84.819 124.606 87.296 126.034L139.257 96.0337C136.78 94.6057 134.886 94.6127 133.586 95.4547L81.625 125.455Z" fill="#8BC5E4"/>
<path fill-rule="evenodd" clip-rule="evenodd" d="M86.8276 151.833C88.066 152.548 89.0619 154.273 89.0619 155.703L141.024 125.703C141.024 124.273 140.028 122.548 138.789 121.833L86.8276 151.833Z" fill="#8BC5E4"/>
<path fill-rule="evenodd" clip-rule="evenodd" d="M89.062 155.703C89.062 156.379 88.835 156.88 88.446 157.127L140.408 127.127C140.797 126.88 141.024 126.379 141.024 125.703L89.062 155.703Z" fill="#8BC5E4"/>
<path fill-rule="evenodd" clip-rule="evenodd" d="M88.4499 157.124C88.2479 157.254 88.0019 157.314 87.7209 157.294L139.682 127.294C139.963 127.314 140.209 127.254 140.411 127.124L88.4499 157.124Z" fill="#8BC5E4"/>
<path fill-rule="evenodd" clip-rule="evenodd" d="M85.9356 156.268C85.1129 155.383 84.5759 154.143 84.5759 153.113L136.538 123.113C136.538 124.143 137.074 125.383 137.897 126.268L85.9356 156.268Z" fill="#8BC5E4"/>
<path fill-rule="evenodd" clip-rule="evenodd" d="M84.5759 153.113C84.5759 152.432 84.8039 151.945 85.1779 151.701L137.139 121.701C136.765 121.945 136.537 122.432 136.538 123.113L84.5759 153.113Z" fill="#8BC5E4"/>
<path fill-rule="evenodd" clip-rule="evenodd" d="M85.176 151.702C85.585 151.434 86.169 151.455 86.82 151.829L138.782 121.829C138.131 121.455 137.547 121.434 137.138 121.702L85.176 151.702Z" fill="#8BC5E4"/>
<path d="M10.6261 36.9578L162.579 124.688C165.853 126.578 168.407 130.993 168.407 134.763V310.323C168.407 314.093 165.853 315.558 162.579 313.668L10.6261 225.938C7.35256 224.048 4.79778 219.633 4.79778 215.863V40.3028C4.79778 36.5328 7.35256 35.0678 10.6261 36.9578ZM10.6261 31.4478C4.78046 28.0728 0 30.8028 0 37.5328V213.093C0 219.823 4.78046 228.073 10.6261 231.448L162.579 319.178C168.425 322.553 173.205 319.823 173.205 313.093V137.533C173.205 130.803 168.425 122.553 162.579 119.178L10.6261 31.4478ZM27.6955 68.4828C19.6415 63.8328 13.0683 67.6078 13.0683 76.8578V156.718C13.0683 165.968 19.6415 177.323 27.6955 181.973L73.6988 208.533V225.173L51.7277 212.488C49.2942 211.083 47.0512 211.278 45.8387 212.998C44.6263 214.718 44.6263 217.698 45.8387 220.808C47.0512 223.928 49.2942 226.713 51.7277 228.118L121.287 268.278C123.72 269.683 125.963 269.488 127.176 267.768C128.388 266.058 128.388 263.078 127.176 259.958C125.963 256.838 123.72 254.053 121.287 252.648L102.321 241.698V225.058L146.012 250.283C154.057 254.928 160.639 251.168 160.639 241.918V162.058C160.639 152.808 154.057 141.438 146.012 136.793L27.6955 68.4828ZM27.6955 75.7828L146.012 144.093C150.654 146.773 154.291 153.063 154.291 158.393V238.253C154.291 243.593 150.654 245.673 146.012 242.993L27.6955 174.683C23.0536 172.003 19.4163 165.723 19.4163 160.383V80.5228C19.4163 75.1928 23.0536 73.1028 27.6955 75.7828ZM86.8104 110.633C68.0523 99.8028 52.7583 108.543 52.7583 130.093C52.7583 139.433 55.6335 149.693 60.4139 159.183L41.2055 170.923L49.3461 184.663L68.927 172.698C74.1318 179.413 80.2632 185.103 86.8104 188.883C105.568 199.713 120.854 190.968 120.854 169.408C120.854 147.858 105.568 121.463 86.8104 110.633ZM86.8104 119.563C101.36 127.963 113.077 148.198 113.077 164.918C113.077 181.648 101.36 188.353 86.8104 179.953C72.2525 171.548 60.5438 151.318 60.5438 134.588C60.5438 117.868 72.2525 111.158 86.8104 119.563ZM87.304 123.488C80.9387 119.813 77.2841 123.713 77.2841 129.063V138.333L70.6417 134.498V159.968L102.996 178.648V153.178L97.3326 149.908V140.638C97.3326 134.208 92.6561 126.578 87.304 123.488ZM87.304 126.038C91.4696 128.443 95.1156 134.348 95.1156 139.358V148.628L79.5098 139.618V130.348C79.5098 126.308 82.1425 123.058 87.304 126.038ZM86.8277 151.833C88.0661 152.548 89.062 154.273 89.062 155.703C89.062 156.733 88.5338 157.358 87.7111 157.293V163.273L85.9357 162.248V156.268C85.113 155.383 84.576 154.143 84.576 153.113C84.576 151.683 85.5806 151.113 86.8277 151.833Z" fill="#8BC5E4"/>
<path fill-rule="evenodd" clip-rule="evenodd" d="M10.6261 36.9578L162.579 124.688C165.853 126.578 168.407 130.993 168.407 134.763V310.323C168.407 314.093 165.853 315.558 162.579 313.668L10.6261 225.938C7.35256 224.048 4.79778 219.633 4.79778 215.863V40.3028C4.79778 36.5328 7.35256 35.0678 10.6261 36.9578ZM13.0683 76.8578C13.0683 67.6078 19.6415 63.8328 27.6955 68.4828L146.012 136.793C154.057 141.438 160.639 152.808 160.639 162.058V241.918C160.639 251.168 154.057 254.928 146.012 250.283L102.321 225.058V241.698L121.287 252.648C123.72 254.053 125.963 256.838 127.176 259.958C128.388 263.078 128.388 266.058 127.176 267.768C125.963 269.488 123.72 269.683 121.287 268.278L51.7277 228.118C49.2942 226.713 47.0512 223.928 45.8387 220.808C44.6263 217.698 44.6263 214.718 45.8387 212.998C47.0512 211.278 49.2942 211.083 51.7277 212.488L73.6988 225.173V208.533L27.6955 181.973C19.6415 177.323 13.0683 165.968 13.0683 156.718V76.8578Z" fill="white"/>
<path fill-rule="evenodd" clip-rule="evenodd" d="M27.6955 75.7828L146.012 144.093C150.654 146.773 154.291 153.063 154.291 158.393V238.253C154.291 243.593 150.654 245.673 146.012 242.993L27.6955 174.683C23.0536 172.003 19.4163 165.723 19.4163 160.383V80.5228C19.4163 75.1928 23.0536 73.1028 27.6955 75.7828ZM52.7583 130.093C52.7583 108.543 68.0523 99.8028 86.8104 110.633C105.568 121.463 120.854 147.858 120.854 169.408C120.854 190.968 105.568 199.713 86.8104 188.883C80.2632 185.103 74.1318 179.413 68.927 172.698L49.3461 184.663L41.2055 170.923L60.4139 159.183C55.6335 149.693 52.7583 139.433 52.7583 130.093Z" fill="white"/>
<path fill-rule="evenodd" clip-rule="evenodd" d="M86.8104 119.563C101.36 127.963 113.077 148.198 113.077 164.918C113.077 181.648 101.36 188.353 86.8104 179.953C72.2525 171.548 60.5438 151.318 60.5438 134.588C60.5438 117.868 72.2525 111.158 86.8104 119.563ZM77.2841 129.063C77.2841 123.713 80.9387 119.813 87.304 123.488C92.6561 126.578 97.3326 134.208 97.3326 140.638V149.908L102.996 153.178V178.648L70.6417 159.968V134.498L77.2841 138.333V129.063Z" fill="white"/>
<path d="M87.304 126.038C91.4696 128.443 95.1156 134.348 95.1156 139.358V148.628L79.5098 139.618V130.348C79.5098 126.308 82.1425 123.058 87.304 126.038Z" fill="white"/>
<path d="M86.8277 151.833C88.0661 152.548 89.062 154.273 89.062 155.703C89.062 156.733 88.5338 157.358 87.7111 157.293V163.273L85.9357 162.248V156.268C85.113 155.383 84.576 154.143 84.576 153.113C84.576 151.683 85.5806 151.113 86.8277 151.833Z" fill="white"/>
</svg>
