<svg width="274" height="349" viewBox="0 0 274 349" fill="none" xmlns="http://www.w3.org/2000/svg">
<path fill-rule="evenodd" clip-rule="evenodd" d="M192.145 166.839L29.4102 72.9941L81.3717 42.9941L244.107 136.839L192.145 166.839Z" fill="#8BC5E4"/>
<path fill-rule="evenodd" clip-rule="evenodd" d="M29.3669 130.719L192.509 224.769L244.47 194.769L81.3284 100.719L29.3669 130.719Z" fill="#8BC5E4"/>
<path fill-rule="evenodd" clip-rule="evenodd" d="M192.145 166.839L244.107 136.839L192.145 166.839Z" fill="#8BC5E4"/>
<path fill-rule="evenodd" clip-rule="evenodd" d="M192.145 171.009L244.107 141.009L192.145 171.009Z" fill="#8BC5E4"/>
<path fill-rule="evenodd" clip-rule="evenodd" d="M187.209 217.549L29.3669 126.549L81.3284 96.5493L239.17 187.549L187.209 217.549Z" fill="#8BC5E4"/>
<path fill-rule="evenodd" clip-rule="evenodd" d="M29.4102 77.1643L187.174 168.149L239.136 138.149L81.3717 47.1643L29.4102 77.1643Z" fill="#8BC5E4"/>
<path fill-rule="evenodd" clip-rule="evenodd" d="M187.174 168.149L239.136 138.149L187.174 168.149Z" fill="#8BC5E4"/>
<path fill-rule="evenodd" clip-rule="evenodd" d="M141.093 146.034V159.704L193.054 129.704V116.034L141.093 146.034Z" fill="#8BC5E4"/>
<path fill-rule="evenodd" clip-rule="evenodd" d="M141.093 159.704L54.7935 109.879L106.755 79.8792L193.054 129.704L141.093 159.704Z" fill="#8BC5E4"/>
<path fill-rule="evenodd" clip-rule="evenodd" d="M54.7935 109.879V123.059L106.755 93.0592V79.8792L54.7935 109.879Z" fill="#8BC5E4"/>
<path fill-rule="evenodd" clip-rule="evenodd" d="M54.7935 123.059L141.093 172.884L193.054 142.884L106.755 93.0593L54.7935 123.059Z" fill="#8BC5E4"/>
<path fill-rule="evenodd" clip-rule="evenodd" d="M141.093 172.884V186.564L193.054 156.564V142.884L141.093 172.884Z" fill="#8BC5E4"/>
<path fill-rule="evenodd" clip-rule="evenodd" d="M141.093 186.564L166.251 180.819L218.212 150.819L193.054 156.564L141.093 186.564Z" fill="#8BC5E4"/>
<path fill-rule="evenodd" clip-rule="evenodd" d="M166.251 180.819L141.093 146.034L193.054 116.034L218.212 150.819L166.251 180.819Z" fill="#8BC5E4"/>
<path fill-rule="evenodd" clip-rule="evenodd" d="M141.093 146.034L193.054 116.034L141.093 146.034Z" fill="#8BC5E4"/>
<path fill-rule="evenodd" clip-rule="evenodd" d="M192.145 248.629L29.4102 154.794L81.3717 124.794L244.107 218.629L192.145 248.629Z" fill="#8BC5E4"/>
<path fill-rule="evenodd" clip-rule="evenodd" d="M29.3669 212.509L192.509 306.559L244.47 276.559L81.3284 182.509L29.3669 212.509Z" fill="#8BC5E4"/>
<path fill-rule="evenodd" clip-rule="evenodd" d="M192.145 248.629L244.107 218.629L192.145 248.629Z" fill="#8BC5E4"/>
<path fill-rule="evenodd" clip-rule="evenodd" d="M192.145 252.799L244.107 222.799L192.145 252.799Z" fill="#8BC5E4"/>
<path fill-rule="evenodd" clip-rule="evenodd" d="M187.209 299.339L29.3669 208.339L81.3284 178.339L239.17 269.339L187.209 299.339Z" fill="#8BC5E4"/>
<path fill-rule="evenodd" clip-rule="evenodd" d="M29.4102 158.954L187.174 249.929L239.136 219.929L81.3717 128.954L29.4102 158.954Z" fill="#8BC5E4"/>
<path fill-rule="evenodd" clip-rule="evenodd" d="M187.174 249.929L239.136 219.929L187.174 249.929Z" fill="#8BC5E4"/>
<path fill-rule="evenodd" clip-rule="evenodd" d="M73.8979 189.029L48.7399 194.764L100.701 164.764L125.859 159.029L73.8979 189.029Z" fill="#8BC5E4"/>
<path fill-rule="evenodd" clip-rule="evenodd" d="M48.7399 194.764L73.8979 229.559L125.859 199.559L100.701 164.764L48.7399 194.764Z" fill="#8BC5E4"/>
<path fill-rule="evenodd" clip-rule="evenodd" d="M73.8979 229.559V215.879L125.86 185.879V199.559L73.8979 229.559Z" fill="#8BC5E4"/>
<path fill-rule="evenodd" clip-rule="evenodd" d="M73.8979 215.879L160.197 265.704L212.159 235.704L125.86 185.879L73.8979 215.879Z" fill="#8BC5E4"/>
<path fill-rule="evenodd" clip-rule="evenodd" d="M160.197 265.704V252.524L212.159 222.524V235.704L160.197 265.704Z" fill="#8BC5E4"/>
<path fill-rule="evenodd" clip-rule="evenodd" d="M160.197 252.524L73.8979 202.699L125.86 172.699L212.159 222.524L160.197 252.524Z" fill="#8BC5E4"/>
<path fill-rule="evenodd" clip-rule="evenodd" d="M73.8979 202.699V189.029L125.86 159.029V172.699L73.8979 202.699Z" fill="#8BC5E4"/>
<path fill-rule="evenodd" clip-rule="evenodd" d="M73.8979 189.029L125.86 159.029L73.8979 189.029Z" fill="#8BC5E4"/>
<path fill-rule="evenodd" clip-rule="evenodd" d="M0 37.5742V213.144L51.9615 183.144V7.57422L0 37.5742Z" fill="#8BC5E4"/>
<path fill-rule="evenodd" clip-rule="evenodd" d="M10.4617 231.404L211.232 347.319L263.194 317.319L62.4232 201.404L10.4617 231.404Z" fill="#8BC5E4"/>
<path fill-rule="evenodd" clip-rule="evenodd" d="M221.703 341.144V165.574L273.664 135.574V311.144L221.703 341.144Z" fill="#8BC5E4"/>
<path fill-rule="evenodd" clip-rule="evenodd" d="M211.232 147.319L10.4617 31.4043L62.4232 1.4043L263.194 117.319L211.232 147.319Z" fill="#8BC5E4"/>
<path fill-rule="evenodd" clip-rule="evenodd" d="M10.4617 31.4043L62.4232 1.4043L10.4617 31.4043Z" fill="#8BC5E4"/>
<path fill-rule="evenodd" clip-rule="evenodd" d="M10.4617 36.9243L211.232 152.839L263.194 122.839L62.4232 6.92432L10.4617 36.9243Z" fill="#8BC5E4"/>
<path fill-rule="evenodd" clip-rule="evenodd" d="M216.974 162.844V338.414L268.935 308.414V132.844L216.974 162.844Z" fill="#8BC5E4"/>
<path fill-rule="evenodd" clip-rule="evenodd" d="M211.232 341.799L10.4617 225.884L62.4232 195.884L263.194 311.799L211.232 341.799Z" fill="#8BC5E4"/>
<path fill-rule="evenodd" clip-rule="evenodd" d="M4.72852 215.874V40.3042L56.69 10.3042V185.874L4.72852 215.874Z" fill="#8BC5E4"/>
<path fill-rule="evenodd" clip-rule="evenodd" d="M10.4617 36.9243L62.4232 6.92432L10.4617 36.9243Z" fill="#8BC5E4"/>
<path fill-rule="evenodd" clip-rule="evenodd" d="M29.4103 72.9942C27.6521 71.9882 26.1181 72.1122 24.8931 72.8552L76.8546 42.8552C78.0796 42.1122 79.6136 41.9882 81.3718 42.9942L29.4103 72.9942Z" fill="#8BC5E4"/>
<path fill-rule="evenodd" clip-rule="evenodd" d="M24.9009 72.8513C24.7199 72.9603 24.5449 73.0833 24.3779 73.2183L76.3394 43.2183C76.5064 43.0833 76.6814 42.9603 76.8624 42.8513L24.9009 72.8513Z" fill="#8BC5E4"/>
<path fill-rule="evenodd" clip-rule="evenodd" d="M24.3701 73.2244C23.071 74.2744 22.0664 76.0344 21.2437 78.2294L73.2052 48.2294C74.028 46.0344 75.0325 44.2744 76.3316 43.2244L24.3701 73.2244Z" fill="#8BC5E4"/>
<path fill-rule="evenodd" clip-rule="evenodd" d="M21.2436 78.2292C19.6068 82.6143 18.7148 88.7792 18.7148 94.9792L70.6763 64.9792C70.6763 58.7792 71.5683 52.6142 73.2051 48.2292L21.2436 78.2292Z" fill="#8BC5E4"/>
<path fill-rule="evenodd" clip-rule="evenodd" d="M18.7148 94.9792C18.7148 101.999 19.6848 109.609 21.3648 116.059L73.3264 86.0592C71.6463 79.6092 70.6763 71.9992 70.6763 64.9792L18.7148 94.9792Z" fill="#8BC5E4"/>
<path fill-rule="evenodd" clip-rule="evenodd" d="M21.3647 116.059C22.2048 119.284 23.2094 122.214 24.4738 124.744L76.4353 94.7443C75.1709 92.2143 74.1663 89.2843 73.3263 86.0593L21.3647 116.059Z" fill="#8BC5E4"/>
<path fill-rule="evenodd" clip-rule="evenodd" d="M24.4739 124.744C25.7383 127.274 27.401 129.584 29.3669 130.719L81.3284 100.719C79.3626 99.5841 77.6998 97.2741 76.4354 94.7441L24.4739 124.744Z" fill="#8BC5E4"/>
<path fill-rule="evenodd" clip-rule="evenodd" d="M192.509 224.769C194.036 225.651 195.374 225.552 196.453 224.91L248.414 194.91C247.335 195.552 245.997 195.651 244.47 194.769L192.509 224.769Z" fill="#8BC5E4"/>
<path fill-rule="evenodd" clip-rule="evenodd" d="M196.446 224.914C196.67 224.781 196.882 224.625 197.083 224.45L249.045 194.45C248.844 194.625 248.632 194.781 248.408 194.914L196.446 224.914Z" fill="#8BC5E4"/>
<path fill-rule="evenodd" clip-rule="evenodd" d="M197.09 224.444C198.25 223.424 199.16 221.729 199.913 219.544L251.875 189.544C251.121 191.729 250.212 193.424 249.052 194.444L197.09 224.444Z" fill="#8BC5E4"/>
<path fill-rule="evenodd" clip-rule="evenodd" d="M199.913 219.544C201.42 215.164 202.269 208.744 202.269 201.334L254.23 171.334C254.23 178.744 253.382 185.164 251.875 189.544L199.913 219.544Z" fill="#8BC5E4"/>
<path fill-rule="evenodd" clip-rule="evenodd" d="M202.269 201.334C202.269 195.314 201.593 188.154 200.13 181.829L252.091 151.829C253.555 158.154 254.23 165.314 254.23 171.334L202.269 201.334Z" fill="#8BC5E4"/>
<path fill-rule="evenodd" clip-rule="evenodd" d="M200.13 181.829C199.394 178.664 198.484 175.709 197.237 173.099L249.199 143.099C250.446 145.709 251.355 148.664 252.091 151.829L200.13 181.829Z" fill="#8BC5E4"/>
<path fill-rule="evenodd" clip-rule="evenodd" d="M197.237 173.099C195.981 170.494 194.223 168.039 192.145 166.839L244.107 136.839C246.185 138.039 247.943 140.494 249.199 143.099L197.237 173.099Z" fill="#8BC5E4"/>
<path fill-rule="evenodd" clip-rule="evenodd" d="M192.145 171.009C192.872 171.429 193.565 172.259 194.405 174.014L246.367 144.014C245.527 142.259 244.834 141.429 244.107 141.009L192.145 171.009Z" fill="#8BC5E4"/>
<path fill-rule="evenodd" clip-rule="evenodd" d="M194.405 174.014C195.245 175.769 196.059 178.269 196.709 181.094L248.67 151.094C248.021 148.269 247.207 145.769 246.367 144.014L194.405 174.014Z" fill="#8BC5E4"/>
<path fill-rule="evenodd" clip-rule="evenodd" d="M196.709 181.094C198.017 186.729 198.692 193.629 198.692 199.269L250.654 169.269C250.654 163.629 249.978 156.729 248.67 151.094L196.709 181.094Z" fill="#8BC5E4"/>
<path fill-rule="evenodd" clip-rule="evenodd" d="M198.692 199.269C198.692 206.299 197.861 212.399 196.527 216.259L248.489 186.259C249.822 182.399 250.654 176.299 250.654 169.269L198.692 199.269Z" fill="#8BC5E4"/>
<path fill-rule="evenodd" clip-rule="evenodd" d="M196.527 216.259C195.86 218.194 195.064 219.564 194.302 220.234L246.263 190.234C247.025 189.564 247.822 188.194 248.489 186.259L196.527 216.259Z" fill="#8BC5E4"/>
<path fill-rule="evenodd" clip-rule="evenodd" d="M194.302 220.234C194.147 220.37 193.999 220.477 193.859 220.558L245.821 190.558C245.961 190.477 246.109 190.37 246.263 190.234L194.302 220.234Z" fill="#8BC5E4"/>
<path fill-rule="evenodd" clip-rule="evenodd" d="M193.861 220.557C193.312 220.875 192.873 220.807 192.514 220.602L244.476 190.602C244.835 190.807 245.274 190.875 245.823 190.557L193.861 220.557Z" fill="#8BC5E4"/>
<path fill-rule="evenodd" clip-rule="evenodd" d="M192.509 220.599C192.093 220.359 191.452 219.669 190.638 218.059L242.6 188.059C243.414 189.669 244.055 190.359 244.47 190.599L192.509 220.599Z" fill="#8BC5E4"/>
<path fill-rule="evenodd" clip-rule="evenodd" d="M190.638 218.059C189.824 216.449 188.958 214.099 188.222 211.364L240.183 181.364C240.92 184.099 241.786 186.449 242.6 188.059L190.638 218.059Z" fill="#8BC5E4"/>
<path fill-rule="evenodd" clip-rule="evenodd" d="M188.222 211.364C186.767 205.904 185.788 198.889 185.788 192.229L237.75 162.229C237.75 168.889 238.729 175.904 240.183 181.364L188.222 211.364Z" fill="#8BC5E4"/>
<path fill-rule="evenodd" clip-rule="evenodd" d="M185.788 192.229C185.788 186.199 186.724 180.149 188.144 176.059L240.105 146.059C238.685 150.149 237.75 156.199 237.75 162.229L185.788 192.229Z" fill="#8BC5E4"/>
<path fill-rule="evenodd" clip-rule="evenodd" d="M188.144 176.059C188.863 174.024 189.694 172.464 190.5 171.649L242.461 141.649C241.656 142.464 240.824 144.024 240.106 146.059L188.144 176.059Z" fill="#8BC5E4"/>
<path fill-rule="evenodd" clip-rule="evenodd" d="M190.5 171.649C190.73 171.412 190.946 171.248 191.142 171.137L243.104 141.137C242.908 141.248 242.692 141.412 242.461 141.649L190.5 171.649Z" fill="#8BC5E4"/>
<path fill-rule="evenodd" clip-rule="evenodd" d="M191.137 171.139C191.616 170.867 191.976 170.915 192.14 171.006L244.101 141.006C243.937 140.915 243.577 140.867 243.098 141.139L191.137 171.139Z" fill="#8BC5E4"/>
<path fill-rule="evenodd" clip-rule="evenodd" d="M187.174 168.149C186.247 169.304 185.442 170.829 184.758 172.774L236.719 142.774C237.404 140.829 238.209 139.304 239.136 138.149L187.174 168.149Z" fill="#8BC5E4"/>
<path fill-rule="evenodd" clip-rule="evenodd" d="M184.758 172.774C183.19 177.309 182.212 183.644 182.212 190.164L234.173 160.164C234.173 153.644 235.152 147.309 236.719 142.774L184.758 172.774Z" fill="#8BC5E4"/>
<path fill-rule="evenodd" clip-rule="evenodd" d="M182.212 190.164C182.212 197.294 183.216 204.694 184.87 210.879L236.832 180.879C235.178 174.694 234.173 167.294 234.173 160.164L182.212 190.164Z" fill="#8BC5E4"/>
<path fill-rule="evenodd" clip-rule="evenodd" d="M184.87 210.879C185.529 213.329 186.325 215.529 187.209 217.549L239.17 187.549C238.287 185.529 237.49 183.329 236.832 180.879L184.87 210.879Z" fill="#8BC5E4"/>
<path fill-rule="evenodd" clip-rule="evenodd" d="M29.367 126.549C28.8128 126.229 28.1026 125.429 27.2366 123.699L79.1981 93.6992C80.0641 95.4292 80.7743 96.2292 81.3285 96.5492L29.367 126.549Z" fill="#8BC5E4"/>
<path fill-rule="evenodd" clip-rule="evenodd" d="M27.2365 123.699C26.3705 121.959 25.4785 119.464 24.725 116.599L76.6865 86.5994C77.44 89.4644 78.332 91.9594 79.198 93.6994L27.2365 123.699Z" fill="#8BC5E4"/>
<path fill-rule="evenodd" clip-rule="evenodd" d="M24.725 116.599C23.2355 110.859 22.2915 103.614 22.2915 97.0442L74.253 67.0442C74.253 73.6142 75.197 80.8592 76.6865 86.5992L24.725 116.599Z" fill="#8BC5E4"/>
<path fill-rule="evenodd" clip-rule="evenodd" d="M22.2915 97.0442C22.2915 91.3142 23.1489 85.4592 24.6124 81.5842L76.574 51.5842C75.1104 55.4592 74.253 61.3142 74.253 67.0442L22.2915 97.0442Z" fill="#8BC5E4"/>
<path fill-rule="evenodd" clip-rule="evenodd" d="M24.6124 81.5841C25.3399 79.6441 26.2232 78.2041 27.1066 77.4941L79.0681 47.4941C78.1848 48.2041 77.3014 49.6441 76.574 51.5841L24.6124 81.5841Z" fill="#8BC5E4"/>
<path fill-rule="evenodd" clip-rule="evenodd" d="M27.1067 77.4943C27.2451 77.3813 27.3791 77.2863 27.5101 77.2083L79.4716 47.2083C79.3406 47.2863 79.2066 47.3813 79.0682 47.4943L27.1067 77.4943Z" fill="#8BC5E4"/>
<path fill-rule="evenodd" clip-rule="evenodd" d="M27.509 77.2094C28.214 76.7844 28.827 76.8304 29.402 77.1594L81.3635 47.1594C80.7885 46.8304 80.1755 46.7844 79.4705 47.2094L27.509 77.2094Z" fill="#8BC5E4"/>
<path fill-rule="evenodd" clip-rule="evenodd" d="M29.4103 154.794C27.6521 153.779 26.1181 153.91 24.8931 154.648L76.8546 124.648C78.0796 123.91 79.6136 123.779 81.3718 124.794L29.4103 154.794Z" fill="#8BC5E4"/>
<path fill-rule="evenodd" clip-rule="evenodd" d="M24.9009 154.644C24.7199 154.753 24.5449 154.875 24.3779 155.008L76.3394 125.008C76.5064 124.875 76.6814 124.753 76.8624 124.644L24.9009 154.644Z" fill="#8BC5E4"/>
<path fill-rule="evenodd" clip-rule="evenodd" d="M24.3701 155.014C23.071 156.064 22.0664 157.824 21.2437 160.009L73.2052 130.009C74.028 127.824 75.0325 126.064 76.3316 125.014L24.3701 155.014Z" fill="#8BC5E4"/>
<path fill-rule="evenodd" clip-rule="evenodd" d="M21.2436 160.009C19.6068 164.404 18.7148 170.569 18.7148 176.769L70.6763 146.769C70.6763 140.569 71.5683 134.404 73.2051 130.009L21.2436 160.009Z" fill="#8BC5E4"/>
<path fill-rule="evenodd" clip-rule="evenodd" d="M18.7148 176.769C18.7148 183.789 19.6848 191.399 21.3648 197.849L73.3264 167.849C71.6463 161.399 70.6763 153.789 70.6763 146.769L18.7148 176.769Z" fill="#8BC5E4"/>
<path fill-rule="evenodd" clip-rule="evenodd" d="M21.3647 197.849C22.2048 201.074 23.2094 204.004 24.4738 206.534L76.4353 176.534C75.1709 174.004 74.1663 171.074 73.3263 167.849L21.3647 197.849Z" fill="#8BC5E4"/>
<path fill-rule="evenodd" clip-rule="evenodd" d="M24.4739 206.534C25.7383 209.064 27.401 211.374 29.3669 212.509L81.3284 182.509C79.3626 181.374 77.6998 179.064 76.4354 176.534L24.4739 206.534Z" fill="#8BC5E4"/>
<path fill-rule="evenodd" clip-rule="evenodd" d="M192.509 306.559C194.036 307.441 195.374 307.342 196.453 306.7L248.414 276.7C247.335 277.342 245.997 277.441 244.47 276.559L192.509 306.559Z" fill="#8BC5E4"/>
<path fill-rule="evenodd" clip-rule="evenodd" d="M196.446 306.704C196.67 306.571 196.882 306.415 197.083 306.24L249.045 276.24C248.844 276.415 248.632 276.571 248.408 276.704L196.446 306.704Z" fill="#8BC5E4"/>
<path fill-rule="evenodd" clip-rule="evenodd" d="M197.09 306.234C198.25 305.214 199.16 303.519 199.913 301.334L251.875 271.334C251.121 273.519 250.212 275.214 249.052 276.234L197.09 306.234Z" fill="#8BC5E4"/>
<path fill-rule="evenodd" clip-rule="evenodd" d="M199.913 301.334C201.42 296.954 202.269 290.534 202.269 283.124L254.23 253.124C254.23 260.534 253.382 266.954 251.875 271.334L199.913 301.334Z" fill="#8BC5E4"/>
<path fill-rule="evenodd" clip-rule="evenodd" d="M202.269 283.124C202.269 277.104 201.593 269.944 200.13 263.619L252.091 233.619C253.555 239.944 254.23 247.104 254.23 253.124L202.269 283.124Z" fill="#8BC5E4"/>
<path fill-rule="evenodd" clip-rule="evenodd" d="M200.13 263.619C199.394 260.454 198.484 257.499 197.237 254.899L249.199 224.899C250.446 227.499 251.355 230.454 252.091 233.619L200.13 263.619Z" fill="#8BC5E4"/>
<path fill-rule="evenodd" clip-rule="evenodd" d="M197.237 254.899C195.981 252.284 194.223 249.829 192.145 248.629L244.107 218.629C246.185 219.829 247.943 222.284 249.199 224.899L197.237 254.899Z" fill="#8BC5E4"/>
<path fill-rule="evenodd" clip-rule="evenodd" d="M192.145 252.799C192.872 253.219 193.565 254.049 194.405 255.804L246.367 225.804C245.527 224.049 244.834 223.219 244.107 222.799L192.145 252.799Z" fill="#8BC5E4"/>
<path fill-rule="evenodd" clip-rule="evenodd" d="M194.405 255.804C195.245 257.559 196.059 260.059 196.709 262.874L248.67 232.874C248.021 230.059 247.207 227.559 246.367 225.804L194.405 255.804Z" fill="#8BC5E4"/>
<path fill-rule="evenodd" clip-rule="evenodd" d="M196.709 262.874C198.017 268.519 198.692 275.419 198.692 281.059L250.654 251.059C250.654 245.419 249.978 238.519 248.67 232.874L196.709 262.874Z" fill="#8BC5E4"/>
<path fill-rule="evenodd" clip-rule="evenodd" d="M198.692 281.059C198.692 288.079 197.861 294.189 196.527 298.049L248.489 268.049C249.822 264.189 250.654 258.079 250.654 251.059L198.692 281.059Z" fill="#8BC5E4"/>
<path fill-rule="evenodd" clip-rule="evenodd" d="M196.527 298.049C195.86 299.984 195.064 301.354 194.302 302.024L246.263 272.024C247.025 271.354 247.822 269.984 248.489 268.049L196.527 298.049Z" fill="#8BC5E4"/>
<path fill-rule="evenodd" clip-rule="evenodd" d="M194.302 302.024C194.147 302.158 193.999 302.263 193.859 302.344L245.821 272.344C245.961 272.263 246.109 272.158 246.263 272.024L194.302 302.024Z" fill="#8BC5E4"/>
<path fill-rule="evenodd" clip-rule="evenodd" d="M193.861 302.343C193.312 302.659 192.873 302.597 192.514 302.392L244.476 272.392C244.835 272.597 245.274 272.659 245.823 272.343L193.861 302.343Z" fill="#8BC5E4"/>
<path fill-rule="evenodd" clip-rule="evenodd" d="M192.509 302.389C192.093 302.149 191.452 301.459 190.638 299.849L242.6 269.849C243.414 271.459 244.055 272.149 244.47 272.389L192.509 302.389Z" fill="#8BC5E4"/>
<path fill-rule="evenodd" clip-rule="evenodd" d="M190.638 299.849C189.824 298.239 188.958 295.889 188.222 293.154L240.183 263.154C240.92 265.889 241.786 268.239 242.6 269.849L190.638 299.849Z" fill="#8BC5E4"/>
<path fill-rule="evenodd" clip-rule="evenodd" d="M188.222 293.154C186.767 287.694 185.788 280.679 185.788 274.019L237.75 244.019C237.75 250.679 238.729 257.694 240.183 263.154L188.222 293.154Z" fill="#8BC5E4"/>
<path fill-rule="evenodd" clip-rule="evenodd" d="M185.788 274.019C185.788 267.989 186.724 261.939 188.144 257.849L240.105 227.849C238.685 231.939 237.75 237.989 237.75 244.019L185.788 274.019Z" fill="#8BC5E4"/>
<path fill-rule="evenodd" clip-rule="evenodd" d="M188.144 257.849C188.863 255.814 189.694 254.254 190.5 253.439L242.461 223.439C241.656 224.254 240.824 225.814 240.106 227.849L188.144 257.849Z" fill="#8BC5E4"/>
<path fill-rule="evenodd" clip-rule="evenodd" d="M190.5 253.439C190.73 253.202 190.946 253.038 191.142 252.927L243.104 222.927C242.908 223.038 242.692 223.202 242.461 223.439L190.5 253.439Z" fill="#8BC5E4"/>
<path fill-rule="evenodd" clip-rule="evenodd" d="M191.137 252.929C191.616 252.657 191.976 252.705 192.14 252.796L244.101 222.796C243.937 222.705 243.577 222.657 243.098 222.929L191.137 252.929Z" fill="#8BC5E4"/>
<path fill-rule="evenodd" clip-rule="evenodd" d="M187.174 249.929C186.247 251.084 185.442 252.619 184.758 254.564L236.719 224.564C237.404 222.619 238.209 221.084 239.136 219.929L187.174 249.929Z" fill="#8BC5E4"/>
<path fill-rule="evenodd" clip-rule="evenodd" d="M184.758 254.564C183.19 259.099 182.212 265.434 182.212 271.954L234.173 241.954C234.173 235.434 235.152 229.099 236.719 224.564L184.758 254.564Z" fill="#8BC5E4"/>
<path fill-rule="evenodd" clip-rule="evenodd" d="M182.212 271.954C182.212 279.084 183.216 286.494 184.87 292.669L236.832 262.669C235.178 256.494 234.173 249.084 234.173 241.954L182.212 271.954Z" fill="#8BC5E4"/>
<path fill-rule="evenodd" clip-rule="evenodd" d="M184.87 292.669C185.529 295.129 186.325 297.319 187.209 299.339L239.17 269.339C238.287 267.319 237.49 265.129 236.832 262.669L184.87 292.669Z" fill="#8BC5E4"/>
<path fill-rule="evenodd" clip-rule="evenodd" d="M29.367 208.339C28.8128 208.019 28.1026 207.219 27.2366 205.489L79.1981 175.489C80.0641 177.219 80.7743 178.019 81.3285 178.339L29.367 208.339Z" fill="#8BC5E4"/>
<path fill-rule="evenodd" clip-rule="evenodd" d="M27.2365 205.489C26.3705 203.749 25.4785 201.264 24.725 198.389L76.6865 168.389C77.44 171.264 78.332 173.749 79.198 175.489L27.2365 205.489Z" fill="#8BC5E4"/>
<path fill-rule="evenodd" clip-rule="evenodd" d="M24.725 198.389C23.2355 192.649 22.2915 185.404 22.2915 178.834L74.253 148.834C74.253 155.404 75.197 162.649 76.6865 168.389L24.725 198.389Z" fill="#8BC5E4"/>
<path fill-rule="evenodd" clip-rule="evenodd" d="M22.2915 178.834C22.2915 173.104 23.1489 167.249 24.6124 163.374L76.574 133.374C75.1104 137.249 74.253 143.104 74.253 148.834L22.2915 178.834Z" fill="#8BC5E4"/>
<path fill-rule="evenodd" clip-rule="evenodd" d="M24.6124 163.374C25.3399 161.434 26.2232 159.994 27.1066 159.284L79.0681 129.284C78.1848 129.994 77.3014 131.434 76.574 133.374L24.6124 163.374Z" fill="#8BC5E4"/>
<path fill-rule="evenodd" clip-rule="evenodd" d="M27.1067 159.284C27.2451 159.171 27.3791 159.076 27.5101 158.998L79.4716 128.998C79.3406 129.076 79.2066 129.171 79.0682 129.284L27.1067 159.284Z" fill="#8BC5E4"/>
<path fill-rule="evenodd" clip-rule="evenodd" d="M27.509 158.999C28.214 158.574 28.827 158.62 29.402 158.949L81.3635 128.949C80.7885 128.62 80.1755 128.574 79.4705 128.999L27.509 158.999Z" fill="#8BC5E4"/>
<path fill-rule="evenodd" clip-rule="evenodd" d="M10.4616 31.4044C7.70403 29.8124 5.18604 29.6204 3.31104 30.5934L55.2725 0.593367C57.1475 -0.379633 59.6655 -0.187633 62.4231 1.40437L10.4616 31.4044Z" fill="#8BC5E4"/>
<path fill-rule="evenodd" clip-rule="evenodd" d="M3.314 30.5913C1.28 31.6453 0.003 34.0703 0 37.5643L51.9615 7.56431C51.9645 4.07031 53.2415 1.64531 55.2755 0.591309L3.314 30.5913Z" fill="#8BC5E4"/>
<path fill-rule="evenodd" clip-rule="evenodd" d="M0 213.144C0 219.864 4.7112 228.084 10.4616 231.404L62.4231 201.404C56.6727 198.084 51.9615 189.864 51.9615 183.144L0 213.144Z" fill="#8BC5E4"/>
<path fill-rule="evenodd" clip-rule="evenodd" d="M211.232 347.319C213.988 348.91 216.504 349.103 218.378 348.136L270.34 318.136C268.465 319.103 265.949 318.91 263.194 317.319L211.232 347.319Z" fill="#8BC5E4"/>
<path fill-rule="evenodd" clip-rule="evenodd" d="M218.387 348.131C220.423 347.075 221.7 344.648 221.702 341.154L273.663 311.154C273.661 314.648 272.384 317.075 270.348 318.131L218.387 348.131Z" fill="#8BC5E4"/>
<path fill-rule="evenodd" clip-rule="evenodd" d="M221.702 165.574C221.702 158.854 216.991 150.644 211.232 147.319L263.194 117.319C268.953 120.644 273.664 128.854 273.664 135.574L221.702 165.574Z" fill="#8BC5E4"/>
<path fill-rule="evenodd" clip-rule="evenodd" d="M211.232 152.839C214.454 154.699 216.974 159.084 216.974 162.844L268.936 132.844C268.936 129.084 266.415 124.699 263.194 122.839L211.232 152.839Z" fill="#8BC5E4"/>
<path fill-rule="evenodd" clip-rule="evenodd" d="M216.974 338.414C216.974 340.375 216.289 341.717 215.176 342.289L267.138 312.289C268.251 311.717 268.936 310.375 268.936 308.414L216.974 338.414Z" fill="#8BC5E4"/>
<path fill-rule="evenodd" clip-rule="evenodd" d="M215.177 342.288C214.157 342.813 212.777 342.69 211.237 341.802L263.199 311.802C264.739 312.69 266.119 312.813 267.139 312.288L215.177 342.288Z" fill="#8BC5E4"/>
<path fill-rule="evenodd" clip-rule="evenodd" d="M10.4616 225.884C7.24862 224.029 4.72852 219.634 4.72852 215.874L56.69 185.874C56.69 189.634 59.2102 194.029 62.4231 195.884L10.4616 225.884Z" fill="#8BC5E4"/>
<path fill-rule="evenodd" clip-rule="evenodd" d="M4.72852 40.3042C4.72802 38.3512 5.40902 37.0142 6.51302 36.4402L58.4745 6.44019C57.3705 7.01419 56.6895 8.35119 56.69 10.3042L4.72852 40.3042Z" fill="#8BC5E4"/>
<path fill-rule="evenodd" clip-rule="evenodd" d="M6.52393 36.4351C7.54293 35.9111 8.91993 36.0351 10.4569 36.9211L62.4184 6.92115C60.8814 6.03515 59.5044 5.91115 58.4854 6.43515L6.52393 36.4351Z" fill="#8BC5E4"/>
<path d="M192.145 166.839L29.4102 72.9942C27.3924 71.8392 25.669 72.1742 24.37 73.2242C23.0709 74.2742 22.0663 76.0342 21.2436 78.2292C19.6068 82.6142 18.7148 88.7792 18.7148 94.9792C18.7148 101.999 19.6848 109.609 21.3648 116.059C22.2049 119.284 23.2095 122.214 24.4739 124.744C25.7383 127.274 27.401 129.584 29.3669 130.719L192.509 224.769C194.353 225.834 195.921 225.469 197.09 224.444C198.251 223.424 199.16 221.729 199.913 219.544C201.42 215.164 202.269 208.744 202.269 201.334C202.269 195.314 201.593 188.154 200.13 181.829C199.394 178.664 198.484 175.709 197.237 173.099C195.982 170.494 194.224 168.039 192.145 166.839ZM192.145 171.009C192.873 171.429 193.565 172.259 194.405 174.014C195.245 175.769 196.059 178.269 196.709 181.094C198.017 186.729 198.692 193.629 198.692 199.269C198.692 206.299 197.861 212.399 196.527 216.259C195.86 218.194 195.064 219.564 194.301 220.234C193.539 220.904 192.959 220.859 192.509 220.599C192.093 220.359 191.452 219.669 190.638 218.059C189.824 216.449 188.958 214.099 188.222 211.364C186.767 205.904 185.788 198.889 185.788 192.229C185.788 186.199 186.724 180.149 188.144 176.059C188.863 174.024 189.694 172.464 190.5 171.649C191.296 170.829 191.92 170.879 192.145 171.009ZM187.174 168.149C186.247 169.304 185.442 170.829 184.758 172.774C183.19 177.309 182.212 183.644 182.212 190.164C182.212 197.294 183.216 204.694 184.87 210.879C185.529 213.329 186.325 215.529 187.209 217.549L29.3669 126.549C28.8127 126.229 28.1025 125.429 27.2365 123.699C26.3705 121.959 25.4785 119.464 24.725 116.599C23.2355 110.859 22.2915 103.614 22.2915 97.0442C22.2915 91.3142 23.1489 85.4592 24.6124 81.5842C25.3399 79.6442 26.2232 78.2042 27.1066 77.4942C27.9899 76.7742 28.7261 76.7692 29.4102 77.1642L187.174 168.149ZM141.093 146.034V159.704L54.7934 109.879V123.059L141.093 172.884V186.564L166.251 180.819L141.093 146.034ZM192.145 248.629L29.4102 154.794C27.3924 153.629 25.669 153.974 24.37 155.014C23.0709 156.064 22.0663 157.824 21.2436 160.009C19.6068 164.404 18.7148 170.569 18.7148 176.769C18.7148 183.789 19.6848 191.399 21.3648 197.849C22.2049 201.074 23.2095 204.004 24.4739 206.534C25.7383 209.064 27.401 211.374 29.3669 212.509L192.509 306.559C194.353 307.624 195.921 307.259 197.09 306.234C198.251 305.214 199.16 303.519 199.913 301.334C201.42 296.954 202.269 290.534 202.269 283.124C202.269 277.104 201.593 269.944 200.13 263.619C199.394 260.454 198.484 257.499 197.237 254.899C195.982 252.284 194.224 249.829 192.145 248.629ZM192.145 252.799C192.873 253.219 193.565 254.049 194.405 255.804C195.245 257.559 196.059 260.059 196.709 262.874C198.017 268.519 198.692 275.419 198.692 281.059C198.692 288.079 197.861 294.189 196.527 298.049C195.86 299.984 195.064 301.354 194.301 302.024C193.539 302.684 192.959 302.649 192.509 302.389C192.093 302.149 191.452 301.459 190.638 299.849C189.824 298.239 188.958 295.889 188.222 293.154C186.767 287.694 185.788 280.679 185.788 274.019C185.788 267.989 186.724 261.939 188.144 257.849C188.863 255.814 189.694 254.254 190.5 253.439C191.296 252.619 191.92 252.669 192.145 252.799ZM187.174 249.929C186.247 251.084 185.442 252.619 184.758 254.564C183.19 259.099 182.212 265.434 182.212 271.954C182.212 279.084 183.216 286.494 184.87 292.669C185.529 295.129 186.325 297.319 187.209 299.339L29.3669 208.339C28.8127 208.019 28.1025 207.219 27.2365 205.489C26.3705 203.749 25.4785 201.264 24.725 198.389C23.2355 192.649 22.2915 185.404 22.2915 178.834C22.2915 173.104 23.1489 167.249 24.6124 163.374C25.3399 161.434 26.2232 159.994 27.1066 159.284C27.9899 158.564 28.7261 158.559 29.4102 158.954L187.174 249.929ZM73.8979 189.029L48.7399 194.764L73.8979 229.559V215.879L160.197 265.704V252.524L73.8979 202.699V189.029ZM10.4616 31.4042C4.71118 28.0842 0 30.8542 0 37.5742V213.144C0 219.864 4.71118 228.084 10.4616 231.404L211.232 347.319C216.991 350.644 221.702 347.864 221.702 341.144V165.574C221.702 158.854 216.991 150.644 211.232 147.319L10.4616 31.4042ZM10.4616 36.9242L211.232 152.839C214.454 154.699 216.974 159.084 216.974 162.844V338.414C216.974 342.174 214.454 343.659 211.232 341.799L10.4616 225.884C7.24863 224.029 4.7285 219.634 4.7285 215.874V40.3042C4.7285 36.5442 7.24863 35.0692 10.4616 36.9242Z" fill="#8BC5E4"/>
<path fill-rule="evenodd" clip-rule="evenodd" d="M10.4616 36.9242L211.232 152.839C214.454 154.699 216.974 159.084 216.974 162.844V338.414C216.974 342.174 214.454 343.659 211.232 341.799L10.4616 225.884C7.24863 224.029 4.7285 219.634 4.7285 215.874V40.3042C4.7285 36.5442 7.24863 35.0692 10.4616 36.9242ZM29.4102 72.9942L192.145 166.839C194.224 168.039 195.982 170.494 197.237 173.099C198.484 175.709 199.394 178.664 200.13 181.829C201.593 188.154 202.269 195.314 202.269 201.334C202.269 208.744 201.42 215.164 199.913 219.544C199.16 221.729 198.251 223.424 197.09 224.444C195.921 225.469 194.353 225.834 192.509 224.769L29.3669 130.719C27.401 129.584 25.7383 127.274 24.4739 124.744C23.2095 122.214 22.2049 119.284 21.3648 116.059C19.6848 109.609 18.7148 101.999 18.7148 94.9792C18.7148 88.7792 19.6068 82.6142 21.2436 78.2292C22.0663 76.0342 23.0709 74.2742 24.37 73.2242C25.669 72.1742 27.3924 71.8392 29.4102 72.9942ZM29.4102 154.794L192.145 248.629C194.224 249.829 195.982 252.284 197.237 254.899C198.484 257.499 199.394 260.454 200.13 263.619C201.593 269.944 202.269 277.104 202.269 283.124C202.269 290.534 201.42 296.954 199.913 301.334C199.16 303.519 198.251 305.214 197.09 306.234C195.921 307.259 194.353 307.624 192.509 306.559L29.3669 212.509C27.401 211.374 25.7383 209.064 24.4739 206.534C23.2095 204.004 22.2049 201.074 21.3648 197.849C19.6848 191.399 18.7148 183.789 18.7148 176.769C18.7148 170.569 19.6068 164.404 21.2436 160.009C22.0663 157.824 23.0709 156.064 24.37 155.014C25.669 153.974 27.3924 153.629 29.4102 154.794Z" fill="white"/>
<path fill-rule="evenodd" clip-rule="evenodd" d="M187.174 168.149C186.247 169.304 185.442 170.829 184.758 172.774C183.19 177.309 182.212 183.644 182.212 190.164C182.212 197.294 183.216 204.694 184.87 210.879C185.529 213.329 186.325 215.529 187.209 217.549L29.3669 126.549C28.8127 126.229 28.1025 125.429 27.2365 123.699C26.3705 121.959 25.4785 119.464 24.725 116.599C23.2355 110.859 22.2915 103.614 22.2915 97.0442C22.2915 91.3142 23.1489 85.4592 24.6124 81.5842C25.3399 79.6442 26.2232 78.2042 27.1066 77.4942C27.9899 76.7742 28.7261 76.7692 29.4102 77.1642L187.174 168.149ZM141.093 159.704V146.034L166.251 180.819L141.093 186.564V172.884L54.7934 123.059V109.879L141.093 159.704Z" fill="white"/>
<path d="M192.145 171.009C192.873 171.429 193.565 172.259 194.405 174.014C195.245 175.769 196.059 178.269 196.709 181.094C198.017 186.729 198.692 193.629 198.692 199.269C198.692 206.299 197.861 212.399 196.527 216.259C195.86 218.194 195.064 219.564 194.301 220.234C193.539 220.904 192.959 220.859 192.509 220.599C192.093 220.359 191.452 219.669 190.638 218.059C189.824 216.449 188.958 214.099 188.222 211.364C186.767 205.904 185.788 198.889 185.788 192.229C185.788 186.199 186.724 180.149 188.144 176.059C188.863 174.024 189.694 172.464 190.5 171.649C191.296 170.829 191.92 170.879 192.145 171.009Z" fill="white"/>
<path d="M192.145 252.799C192.873 253.219 193.565 254.049 194.405 255.804C195.245 257.559 196.059 260.059 196.709 262.874C198.017 268.519 198.692 275.419 198.692 281.059C198.692 288.079 197.861 294.189 196.527 298.049C195.86 299.984 195.064 301.354 194.301 302.024C193.539 302.684 192.959 302.649 192.509 302.389C192.093 302.149 191.452 301.459 190.638 299.849C189.824 298.239 188.958 295.889 188.222 293.154C186.767 287.694 185.788 280.679 185.788 274.019C185.788 267.989 186.724 261.939 188.144 257.849C188.863 255.814 189.694 254.254 190.5 253.439C191.296 252.619 191.92 252.669 192.145 252.799Z" fill="white"/>
<path fill-rule="evenodd" clip-rule="evenodd" d="M187.174 249.929C186.247 251.084 185.442 252.619 184.758 254.564C183.19 259.099 182.212 265.434 182.212 271.954C182.212 279.084 183.216 286.494 184.87 292.669C185.529 295.129 186.325 297.319 187.209 299.339L29.3669 208.339C28.8127 208.019 28.1025 207.219 27.2365 205.489C26.3705 203.749 25.4785 201.264 24.725 198.389C23.2355 192.649 22.2915 185.404 22.2915 178.834C22.2915 173.104 23.1489 167.249 24.6124 163.374C25.3399 161.434 26.2232 159.994 27.1066 159.284C27.9899 158.564 28.7261 158.559 29.4102 158.954L187.174 249.929ZM48.7399 194.764L73.8979 189.029V202.699L160.197 252.524V265.704L73.8979 215.879V229.559L48.7399 194.764Z" fill="white"/>
</svg>
