<svg width="274" height="349" viewBox="0 0 274 349" fill="none" xmlns="http://www.w3.org/2000/svg">
<path fill-rule="evenodd" clip-rule="evenodd" d="M45.6396 91.4319L49.2943 104.842L101.256 74.8419L97.6012 61.4319L45.6396 91.4319Z" fill="#8BC5E4"/>
<path fill-rule="evenodd" clip-rule="evenodd" d="M49.2944 104.842L37.4385 97.9969L89.4 67.9969L101.256 74.8419L49.2944 104.842Z" fill="#8BC5E4"/>
<path fill-rule="evenodd" clip-rule="evenodd" d="M37.4385 97.9969L41.275 88.2419L93.2365 58.2419L89.4 67.9969L37.4385 97.9969Z" fill="#8BC5E4"/>
<path fill-rule="evenodd" clip-rule="evenodd" d="M43.1543 81.5469L95.1159 51.5469L43.1543 81.5469Z" fill="#8BC5E4"/>
<path fill-rule="evenodd" clip-rule="evenodd" d="M40.7729 75.8819L27.3408 108.927L79.3023 78.9269L92.7344 45.8819L40.7729 75.8819Z" fill="#8BC5E4"/>
<path fill-rule="evenodd" clip-rule="evenodd" d="M27.3408 108.927L32.2598 111.767L84.2214 81.7669L79.3023 78.9269L27.3408 108.927Z" fill="#8BC5E4"/>
<path fill-rule="evenodd" clip-rule="evenodd" d="M32.2598 111.767L36.0963 101.622L88.0579 71.6219L84.2214 81.7669L32.2598 111.767Z" fill="#8BC5E4"/>
<path fill-rule="evenodd" clip-rule="evenodd" d="M36.0957 101.622L50.7229 110.067L102.684 80.0669L88.0573 71.6219L36.0957 101.622Z" fill="#8BC5E4"/>
<path fill-rule="evenodd" clip-rule="evenodd" d="M50.7227 110.067L54.793 124.777L106.755 94.7769L102.684 80.0669L50.7227 110.067Z" fill="#8BC5E4"/>
<path fill-rule="evenodd" clip-rule="evenodd" d="M54.793 124.777L60.0671 127.822L112.029 97.8219L106.755 94.7769L54.793 124.777Z" fill="#8BC5E4"/>
<path fill-rule="evenodd" clip-rule="evenodd" d="M60.0674 127.822L45.752 78.7569L97.7135 48.7569L112.029 97.8219L60.0674 127.822Z" fill="#8BC5E4"/>
<path fill-rule="evenodd" clip-rule="evenodd" d="M45.7521 78.7569L40.7725 75.8819L92.734 45.8819L97.7136 48.7569L45.7521 78.7569Z" fill="#8BC5E4"/>
<path fill-rule="evenodd" clip-rule="evenodd" d="M40.7725 75.8819L92.734 45.8819L40.7725 75.8819Z" fill="#8BC5E4"/>
<path fill-rule="evenodd" clip-rule="evenodd" d="M42.2883 130.477L39.6816 162.732L91.6431 132.732L94.2498 100.477L42.2883 130.477Z" fill="#8BC5E4"/>
<path fill-rule="evenodd" clip-rule="evenodd" d="M39.6816 162.732L46.8176 163.012L98.7792 133.012L91.6431 132.732L39.6816 162.732Z" fill="#8BC5E4"/>
<path fill-rule="evenodd" clip-rule="evenodd" d="M46.8174 163.012L66.1818 223.122L118.143 193.122L98.779 133.012L46.8174 163.012Z" fill="#8BC5E4"/>
<path fill-rule="evenodd" clip-rule="evenodd" d="M66.1816 223.122L153.07 273.507L205.031 243.507L118.143 193.122L66.1816 223.122Z" fill="#8BC5E4"/>
<path fill-rule="evenodd" clip-rule="evenodd" d="M153.07 273.507L153.096 257.882L205.058 227.882L205.032 243.507L153.07 273.507Z" fill="#8BC5E4"/>
<path fill-rule="evenodd" clip-rule="evenodd" d="M153.096 257.882L74.7637 212.467L126.725 182.467L205.057 227.882L153.096 257.882Z" fill="#8BC5E4"/>
<path fill-rule="evenodd" clip-rule="evenodd" d="M74.7644 212.467L58.9854 163.477L110.947 133.477L126.726 182.467L74.7644 212.467Z" fill="#8BC5E4"/>
<path fill-rule="evenodd" clip-rule="evenodd" d="M58.9854 163.477L65.9915 163.752L117.953 133.752L110.947 133.477L58.9854 163.477Z" fill="#8BC5E4"/>
<path fill-rule="evenodd" clip-rule="evenodd" d="M65.9912 163.752L42.2881 130.477L94.2496 100.477L117.953 133.752L65.9912 163.752Z" fill="#8BC5E4"/>
<path fill-rule="evenodd" clip-rule="evenodd" d="M42.2881 130.477L94.2496 100.477L42.2881 130.477Z" fill="#8BC5E4"/>
<path fill-rule="evenodd" clip-rule="evenodd" d="M172.261 262.417L179.613 266.662L231.575 236.662L224.222 232.417L172.261 262.417Z" fill="#8BC5E4"/>
<path fill-rule="evenodd" clip-rule="evenodd" d="M179.726 297.897L172.261 293.587L224.222 263.587L231.687 267.897L179.726 297.897Z" fill="#8BC5E4"/>
<path fill-rule="evenodd" clip-rule="evenodd" d="M172.261 293.587V262.417L224.222 232.417V263.587L172.261 293.587Z" fill="#8BC5E4"/>
<path fill-rule="evenodd" clip-rule="evenodd" d="M172.261 262.417L224.222 232.417L172.261 262.417Z" fill="#8BC5E4"/>
<path fill-rule="evenodd" clip-rule="evenodd" d="M167.637 254.927V295.737L219.598 265.737V224.927L167.637 254.927Z" fill="#8BC5E4"/>
<path fill-rule="evenodd" clip-rule="evenodd" d="M167.637 295.737L180.255 303.022L232.216 273.022L219.598 265.737L167.637 295.737Z" fill="#8BC5E4"/>
<path fill-rule="evenodd" clip-rule="evenodd" d="M179.683 261.882L167.637 254.927L219.598 224.927L231.645 231.882L179.683 261.882Z" fill="#8BC5E4"/>
<path fill-rule="evenodd" clip-rule="evenodd" d="M167.637 254.927L219.598 224.927L167.637 254.927Z" fill="#8BC5E4"/>
<path fill-rule="evenodd" clip-rule="evenodd" d="M0 37.5819V213.142L51.9615 183.142V7.58188L0 37.5819Z" fill="#8BC5E4"/>
<path fill-rule="evenodd" clip-rule="evenodd" d="M10.4697 231.407L211.232 347.317L263.193 317.317L62.4313 201.407L10.4697 231.407Z" fill="#8BC5E4"/>
<path fill-rule="evenodd" clip-rule="evenodd" d="M221.702 341.142V165.582L273.664 135.582V311.142L221.702 341.142Z" fill="#8BC5E4"/>
<path fill-rule="evenodd" clip-rule="evenodd" d="M211.232 147.317L10.4697 31.4069L62.4313 1.40689L263.193 117.317L211.232 147.317Z" fill="#8BC5E4"/>
<path fill-rule="evenodd" clip-rule="evenodd" d="M10.4697 31.4069L62.4313 1.40689L10.4697 31.4069Z" fill="#8BC5E4"/>
<path fill-rule="evenodd" clip-rule="evenodd" d="M10.4697 36.9169L211.232 152.827L263.193 122.827L62.4313 6.91687L10.4697 36.9169Z" fill="#8BC5E4"/>
<path fill-rule="evenodd" clip-rule="evenodd" d="M216.965 162.847V338.407L268.926 308.407V132.847L216.965 162.847Z" fill="#8BC5E4"/>
<path fill-rule="evenodd" clip-rule="evenodd" d="M211.232 341.807L10.4697 225.897L62.4313 195.897L263.193 311.807L211.232 341.807Z" fill="#8BC5E4"/>
<path fill-rule="evenodd" clip-rule="evenodd" d="M4.72852 215.872V40.3119L56.69 10.3119V185.872L4.72852 215.872Z" fill="#8BC5E4"/>
<path fill-rule="evenodd" clip-rule="evenodd" d="M10.4697 36.9169L62.4313 6.91687L10.4697 36.9169Z" fill="#8BC5E4"/>
<path fill-rule="evenodd" clip-rule="evenodd" d="M10.4697 36.9169L211.232 152.827L263.193 122.827L62.4313 6.91687L10.4697 36.9169Z" fill="#8BC5E4"/>
<path fill-rule="evenodd" clip-rule="evenodd" d="M216.965 162.847V338.407L268.926 308.407V132.847L216.965 162.847Z" fill="#8BC5E4"/>
<path fill-rule="evenodd" clip-rule="evenodd" d="M211.232 341.807L10.4697 225.897L62.4313 195.897L263.193 311.807L211.232 341.807Z" fill="#8BC5E4"/>
<path fill-rule="evenodd" clip-rule="evenodd" d="M4.72852 215.872V40.3119L56.69 10.3119V185.872L4.72852 215.872Z" fill="#8BC5E4"/>
<path fill-rule="evenodd" clip-rule="evenodd" d="M10.4697 36.9169L62.4313 6.91687L10.4697 36.9169Z" fill="#8BC5E4"/>
<path fill-rule="evenodd" clip-rule="evenodd" d="M27.3408 108.927L40.7729 75.8819L92.7344 45.8819L79.3023 78.9269L27.3408 108.927Z" fill="#8BC5E4"/>
<path fill-rule="evenodd" clip-rule="evenodd" d="M40.7725 75.8819L45.7521 78.7569L97.7136 48.7569L92.734 45.8819L40.7725 75.8819Z" fill="#8BC5E4"/>
<path fill-rule="evenodd" clip-rule="evenodd" d="M45.752 78.7569L60.0674 127.822L112.029 97.8219L97.7135 48.7569L45.752 78.7569Z" fill="#8BC5E4"/>
<path fill-rule="evenodd" clip-rule="evenodd" d="M60.0671 127.822L54.793 124.777L106.755 94.7769L112.029 97.8219L60.0671 127.822Z" fill="#8BC5E4"/>
<path fill-rule="evenodd" clip-rule="evenodd" d="M54.793 124.777L50.7227 110.067L102.684 80.0669L106.755 94.7769L54.793 124.777Z" fill="#8BC5E4"/>
<path fill-rule="evenodd" clip-rule="evenodd" d="M50.7229 110.067L36.0957 101.622L88.0573 71.6219L102.684 80.0669L50.7229 110.067Z" fill="#8BC5E4"/>
<path fill-rule="evenodd" clip-rule="evenodd" d="M36.0963 101.622L32.2598 111.767L84.2214 81.7669L88.0579 71.6219L36.0963 101.622Z" fill="#8BC5E4"/>
<path fill-rule="evenodd" clip-rule="evenodd" d="M32.2598 111.767L27.3408 108.927L79.3023 78.9269L84.2214 81.7669L32.2598 111.767Z" fill="#8BC5E4"/>
<path fill-rule="evenodd" clip-rule="evenodd" d="M27.3408 108.927L79.3023 78.9269L27.3408 108.927Z" fill="#8BC5E4"/>
<path fill-rule="evenodd" clip-rule="evenodd" d="M39.6816 162.732L42.2883 130.477L94.2498 100.477L91.6431 132.732L39.6816 162.732Z" fill="#8BC5E4"/>
<path fill-rule="evenodd" clip-rule="evenodd" d="M42.2881 130.477L65.9912 163.752L117.953 133.752L94.2496 100.477L42.2881 130.477Z" fill="#8BC5E4"/>
<path fill-rule="evenodd" clip-rule="evenodd" d="M65.9915 163.752L58.9854 163.477L110.947 133.477L117.953 133.752L65.9915 163.752Z" fill="#8BC5E4"/>
<path fill-rule="evenodd" clip-rule="evenodd" d="M58.9854 163.477L74.7644 212.467L126.726 182.467L110.947 133.477L58.9854 163.477Z" fill="#8BC5E4"/>
<path fill-rule="evenodd" clip-rule="evenodd" d="M74.7637 212.467L153.096 257.882L205.057 227.882L126.725 182.467L74.7637 212.467Z" fill="#8BC5E4"/>
<path fill-rule="evenodd" clip-rule="evenodd" d="M153.096 257.882L153.07 273.507L205.032 243.507L205.058 227.882L153.096 257.882Z" fill="#8BC5E4"/>
<path fill-rule="evenodd" clip-rule="evenodd" d="M153.07 273.507L66.1816 223.122L118.143 193.122L205.031 243.507L153.07 273.507Z" fill="#8BC5E4"/>
<path fill-rule="evenodd" clip-rule="evenodd" d="M66.1818 223.122L46.8174 163.012L98.779 133.012L118.143 193.122L66.1818 223.122Z" fill="#8BC5E4"/>
<path fill-rule="evenodd" clip-rule="evenodd" d="M46.8176 163.012L39.6816 162.732L91.6431 132.732L98.7792 133.012L46.8176 163.012Z" fill="#8BC5E4"/>
<path fill-rule="evenodd" clip-rule="evenodd" d="M39.6816 162.732L91.6431 132.732L39.6816 162.732Z" fill="#8BC5E4"/>
<path fill-rule="evenodd" clip-rule="evenodd" d="M167.637 295.737V254.927L219.598 224.927V265.737L167.637 295.737Z" fill="#8BC5E4"/>
<path fill-rule="evenodd" clip-rule="evenodd" d="M167.637 254.927L179.683 261.882L231.645 231.882L219.598 224.927L167.637 254.927Z" fill="#8BC5E4"/>
<path fill-rule="evenodd" clip-rule="evenodd" d="M180.255 303.022L167.637 295.737L219.598 265.737L232.216 273.022L180.255 303.022Z" fill="#8BC5E4"/>
<path fill-rule="evenodd" clip-rule="evenodd" d="M167.637 295.737L219.598 265.737L167.637 295.737Z" fill="#8BC5E4"/>
<path fill-rule="evenodd" clip-rule="evenodd" d="M172.261 262.417L179.613 266.662L231.575 236.662L224.222 232.417L172.261 262.417Z" fill="#8BC5E4"/>
<path fill-rule="evenodd" clip-rule="evenodd" d="M179.726 297.897L172.261 293.587L224.222 263.587L231.687 267.897L179.726 297.897Z" fill="#8BC5E4"/>
<path fill-rule="evenodd" clip-rule="evenodd" d="M172.261 293.587V262.417L224.222 232.417V263.587L172.261 293.587Z" fill="#8BC5E4"/>
<path fill-rule="evenodd" clip-rule="evenodd" d="M172.261 262.417L224.222 232.417L172.261 262.417Z" fill="#8BC5E4"/>
<path fill-rule="evenodd" clip-rule="evenodd" d="M45.6396 91.4319L49.2943 104.842L101.256 74.8419L97.6012 61.4319L45.6396 91.4319Z" fill="#8BC5E4"/>
<path fill-rule="evenodd" clip-rule="evenodd" d="M49.2944 104.842L37.4385 97.9969L89.4 67.9969L101.256 74.8419L49.2944 104.842Z" fill="#8BC5E4"/>
<path fill-rule="evenodd" clip-rule="evenodd" d="M37.4385 97.9969L41.275 88.2419L93.2365 58.2419L89.4 67.9969L37.4385 97.9969Z" fill="#8BC5E4"/>
<path fill-rule="evenodd" clip-rule="evenodd" d="M43.1543 81.5469L95.1159 51.5469L43.1543 81.5469Z" fill="#8BC5E4"/>
<path fill-rule="evenodd" clip-rule="evenodd" d="M43.1543 81.5469C43.6999 84.0619 44.5313 87.3619 45.6398 91.4319L97.6014 61.4319C96.4929 57.3619 95.6615 54.0619 95.1159 51.5469L43.1543 81.5469Z" fill="#8BC5E4"/>
<path fill-rule="evenodd" clip-rule="evenodd" d="M41.2744 88.2419C42.0798 86.1369 42.712 83.9019 43.1536 81.5469L95.1152 51.5469C94.6735 53.9019 94.0413 56.1369 93.2359 58.2419L41.2744 88.2419Z" fill="#8BC5E4"/>
<path fill-rule="evenodd" clip-rule="evenodd" d="M179.613 266.662C182.359 268.247 184.35 269.677 185.597 270.947L237.559 240.947C236.312 239.677 234.32 238.247 231.575 236.662L179.613 266.662Z" fill="#8BC5E4"/>
<path fill-rule="evenodd" clip-rule="evenodd" d="M185.598 270.947C187.312 272.727 188.767 275.107 189.954 278.092L241.915 248.092C240.729 245.107 239.274 242.727 237.559 240.947L185.598 270.947Z" fill="#8BC5E4"/>
<path fill-rule="evenodd" clip-rule="evenodd" d="M189.954 278.092C191.167 281.072 191.773 284.702 191.773 288.962L243.734 258.962C243.734 254.702 243.128 251.072 241.916 248.092L189.954 278.092Z" fill="#8BC5E4"/>
<path fill-rule="evenodd" clip-rule="evenodd" d="M191.773 288.962C191.773 292.042 191.461 294.492 190.838 296.302L242.799 266.302C243.423 264.492 243.735 262.042 243.735 258.962L191.773 288.962Z" fill="#8BC5E4"/>
<path fill-rule="evenodd" clip-rule="evenodd" d="M190.837 296.302C190.296 297.938 189.541 299.097 188.592 299.784L240.553 269.784C241.502 269.097 242.257 267.938 242.799 266.302L190.837 296.302Z" fill="#8BC5E4"/>
<path fill-rule="evenodd" clip-rule="evenodd" d="M188.598 299.78C188.5 299.851 188.4 299.917 188.298 299.978L240.259 269.978C240.361 269.917 240.461 269.851 240.559 269.78L188.598 299.78Z" fill="#8BC5E4"/>
<path fill-rule="evenodd" clip-rule="evenodd" d="M188.292 299.982C188.218 300.024 188.143 300.063 188.065 300.099L240.027 270.099C240.105 270.063 240.18 270.024 240.253 269.982L188.292 299.982Z" fill="#8BC5E4"/>
<path fill-rule="evenodd" clip-rule="evenodd" d="M188.065 300.099C187.315 300.448 186.344 300.512 185.147 300.274L237.109 270.274C238.306 270.512 239.277 270.448 240.027 270.099L188.065 300.099Z" fill="#8BC5E4"/>
<path fill-rule="evenodd" clip-rule="evenodd" d="M185.139 300.272C183.84 300.022 182.03 299.227 179.727 297.897L231.688 267.897C233.992 269.227 235.802 270.022 237.101 270.272L185.139 300.272Z" fill="#8BC5E4"/>
<path fill-rule="evenodd" clip-rule="evenodd" d="M180.255 303.022C182.368 304.242 184.239 305.082 185.858 305.557L237.82 275.557C236.2 275.082 234.33 274.242 232.216 273.022L180.255 303.022Z" fill="#8BC5E4"/>
<path fill-rule="evenodd" clip-rule="evenodd" d="M185.857 305.557C187.503 306.037 188.88 306.152 190.023 305.932L241.985 275.932C240.841 276.152 239.464 276.037 237.819 275.557L185.857 305.557Z" fill="#8BC5E4"/>
<path fill-rule="evenodd" clip-rule="evenodd" d="M190.023 305.932C190.608 305.814 191.166 305.6 191.7 305.29L243.662 275.29C243.128 275.6 242.57 275.814 241.985 275.932L190.023 305.932Z" fill="#8BC5E4"/>
<path fill-rule="evenodd" clip-rule="evenodd" d="M191.697 305.292C192.23 304.983 192.738 304.581 193.222 304.088L245.184 274.088C244.7 274.581 244.192 274.983 243.659 275.292L191.697 305.292Z" fill="#8BC5E4"/>
<path fill-rule="evenodd" clip-rule="evenodd" d="M193.228 304.082C194.197 303.062 194.994 301.532 195.609 299.497L247.571 269.497C246.956 271.532 246.159 273.062 245.189 274.082L193.228 304.082Z" fill="#8BC5E4"/>
<path fill-rule="evenodd" clip-rule="evenodd" d="M195.609 299.497C196.233 297.467 196.536 294.892 196.536 291.792L248.497 261.792C248.497 264.892 248.194 267.467 247.571 269.497L195.609 299.497Z" fill="#8BC5E4"/>
<path fill-rule="evenodd" clip-rule="evenodd" d="M196.536 291.792C196.536 288.162 196.086 284.672 195.168 281.322L247.129 251.322C248.047 254.672 248.498 258.162 248.498 261.792L196.536 291.792Z" fill="#8BC5E4"/>
<path fill-rule="evenodd" clip-rule="evenodd" d="M195.167 281.322C194.249 277.962 192.872 274.827 191.036 271.957L242.998 241.957C244.834 244.827 246.211 247.962 247.129 251.322L195.167 281.322Z" fill="#8BC5E4"/>
<path fill-rule="evenodd" clip-rule="evenodd" d="M191.037 271.957C189.617 269.727 187.911 267.762 185.91 266.077L237.872 236.077C239.872 237.762 241.578 239.727 242.999 241.957L191.037 271.957Z" fill="#8BC5E4"/>
<path fill-rule="evenodd" clip-rule="evenodd" d="M185.909 266.077C184.472 264.847 182.402 263.452 179.683 261.882L231.644 231.882C234.364 233.452 236.433 234.847 237.871 236.077L185.909 266.077Z" fill="#8BC5E4"/>
<path fill-rule="evenodd" clip-rule="evenodd" d="M10.4707 31.4069C7.70948 29.8129 5.18848 29.6199 3.31348 30.5929L55.275 0.592884C57.15 -0.380116 59.671 -0.187116 62.4323 1.40688L10.4707 31.4069Z" fill="#8BC5E4"/>
<path fill-rule="evenodd" clip-rule="evenodd" d="M3.315 30.5909C1.28 31.6459 0.003 34.0729 0 37.5719L51.9615 7.57188C51.9645 4.07288 53.2415 1.64588 55.2765 0.590881L3.315 30.5909Z" fill="#8BC5E4"/>
<path fill-rule="evenodd" clip-rule="evenodd" d="M0 213.142C0 219.872 4.7112 228.082 10.4702 231.407L62.4318 201.407C56.6727 198.082 51.9615 189.872 51.9615 183.142L0 213.142Z" fill="#8BC5E4"/>
<path fill-rule="evenodd" clip-rule="evenodd" d="M211.232 347.317C213.99 348.909 216.51 349.102 218.387 348.129L270.349 318.129C268.472 319.102 265.952 318.909 263.194 317.317L211.232 347.317Z" fill="#8BC5E4"/>
<path fill-rule="evenodd" clip-rule="evenodd" d="M218.384 348.131C220.421 347.077 221.7 344.651 221.702 341.152L273.663 311.152C273.661 314.651 272.382 317.077 270.345 318.131L218.384 348.131Z" fill="#8BC5E4"/>
<path fill-rule="evenodd" clip-rule="evenodd" d="M221.703 165.582C221.703 158.852 216.983 150.637 211.232 147.317L263.194 117.317C268.944 120.637 273.664 128.852 273.664 135.582L221.703 165.582Z" fill="#8BC5E4"/>
<path fill-rule="evenodd" clip-rule="evenodd" d="M211.232 152.827C214.445 154.682 216.965 159.077 216.965 162.847L268.927 132.847C268.927 129.077 266.407 124.682 263.194 122.827L211.232 152.827Z" fill="#8BC5E4"/>
<path fill-rule="evenodd" clip-rule="evenodd" d="M216.965 338.407C216.965 340.366 216.285 341.708 215.181 342.285L267.142 312.285C268.246 311.708 268.926 310.366 268.927 308.407L216.965 338.407Z" fill="#8BC5E4"/>
<path fill-rule="evenodd" clip-rule="evenodd" d="M215.183 342.284C214.162 342.818 212.78 342.699 211.237 341.81L263.199 311.81C264.742 312.699 266.124 312.818 267.145 312.284L215.183 342.284Z" fill="#8BC5E4"/>
<path fill-rule="evenodd" clip-rule="evenodd" d="M10.4702 225.897C7.24862 224.037 4.72852 219.642 4.72852 215.872L56.69 185.872C56.69 189.642 59.2102 194.037 62.4318 195.897L10.4702 225.897Z" fill="#8BC5E4"/>
<path fill-rule="evenodd" clip-rule="evenodd" d="M4.72852 40.3119C4.72802 38.3529 5.40902 37.0109 6.51402 36.4349L58.4755 6.43488C57.3705 7.01088 56.6895 8.35288 56.69 10.3119L4.72852 40.3119Z" fill="#8BC5E4"/>
<path fill-rule="evenodd" clip-rule="evenodd" d="M6.51172 36.4359C7.53372 35.9019 8.91872 36.0219 10.4657 36.9139L62.4272 6.91388C60.8802 6.02188 59.4952 5.90188 58.4732 6.43588L6.51172 36.4359Z" fill="#8BC5E4"/>
<path fill-rule="evenodd" clip-rule="evenodd" d="M211.232 152.827C214.445 154.682 216.965 159.077 216.965 162.847L268.927 132.847C268.927 129.077 266.407 124.682 263.194 122.827L211.232 152.827Z" fill="#8BC5E4"/>
<path fill-rule="evenodd" clip-rule="evenodd" d="M216.965 338.407C216.965 340.366 216.285 341.708 215.181 342.285L267.142 312.285C268.246 311.708 268.926 310.366 268.927 308.407L216.965 338.407Z" fill="#8BC5E4"/>
<path fill-rule="evenodd" clip-rule="evenodd" d="M215.183 342.284C214.162 342.818 212.78 342.699 211.237 341.81L263.199 311.81C264.742 312.699 266.124 312.818 267.145 312.284L215.183 342.284Z" fill="#8BC5E4"/>
<path fill-rule="evenodd" clip-rule="evenodd" d="M10.4702 225.897C7.24862 224.037 4.72852 219.642 4.72852 215.872L56.69 185.872C56.69 189.642 59.2102 194.037 62.4318 195.897L10.4702 225.897Z" fill="#8BC5E4"/>
<path fill-rule="evenodd" clip-rule="evenodd" d="M4.72852 40.3119C4.72802 38.3529 5.40902 37.0109 6.51402 36.4349L58.4755 6.43488C57.3705 7.01088 56.6895 8.35288 56.69 10.3119L4.72852 40.3119Z" fill="#8BC5E4"/>
<path fill-rule="evenodd" clip-rule="evenodd" d="M6.51172 36.4359C7.53372 35.9019 8.91872 36.0219 10.4657 36.9139L62.4272 6.91388C60.8802 6.02188 59.4952 5.90188 58.4732 6.43588L6.51172 36.4359Z" fill="#8BC5E4"/>
<path fill-rule="evenodd" clip-rule="evenodd" d="M179.683 261.882C182.402 263.452 184.472 264.847 185.909 266.077L237.871 236.077C236.433 234.847 234.364 233.452 231.644 231.882L179.683 261.882Z" fill="#8BC5E4"/>
<path fill-rule="evenodd" clip-rule="evenodd" d="M185.91 266.077C187.911 267.762 189.617 269.727 191.037 271.957L242.999 241.957C241.578 239.727 239.872 237.762 237.872 236.077L185.91 266.077Z" fill="#8BC5E4"/>
<path fill-rule="evenodd" clip-rule="evenodd" d="M191.036 271.957C192.872 274.827 194.249 277.962 195.167 281.322L247.129 251.322C246.211 247.962 244.834 244.827 242.998 241.957L191.036 271.957Z" fill="#8BC5E4"/>
<path fill-rule="evenodd" clip-rule="evenodd" d="M195.168 281.322C196.086 284.672 196.536 288.162 196.536 291.792L248.498 261.792C248.498 258.162 248.047 254.672 247.129 251.322L195.168 281.322Z" fill="#8BC5E4"/>
<path fill-rule="evenodd" clip-rule="evenodd" d="M196.536 291.792C196.536 294.892 196.233 297.467 195.609 299.497L247.571 269.497C248.194 267.467 248.497 264.892 248.497 261.792L196.536 291.792Z" fill="#8BC5E4"/>
<path fill-rule="evenodd" clip-rule="evenodd" d="M195.609 299.497C194.994 301.532 194.197 303.062 193.228 304.082L245.189 274.082C246.159 273.062 246.956 271.532 247.571 269.497L195.609 299.497Z" fill="#8BC5E4"/>
<path fill-rule="evenodd" clip-rule="evenodd" d="M193.228 304.082C192.743 304.577 192.234 304.981 191.7 305.29L243.662 275.29C244.196 274.981 244.705 274.577 245.189 274.082L193.228 304.082Z" fill="#8BC5E4"/>
<path fill-rule="evenodd" clip-rule="evenodd" d="M191.704 305.289C191.171 305.598 190.613 305.813 190.03 305.931L241.992 275.931C242.575 275.813 243.133 275.598 243.666 275.289L191.704 305.289Z" fill="#8BC5E4"/>
<path fill-rule="evenodd" clip-rule="evenodd" d="M190.023 305.932C188.88 306.152 187.503 306.037 185.857 305.557L237.819 275.557C239.464 276.037 240.841 276.152 241.985 275.932L190.023 305.932Z" fill="#8BC5E4"/>
<path fill-rule="evenodd" clip-rule="evenodd" d="M185.858 305.557C184.239 305.082 182.368 304.242 180.255 303.022L232.216 273.022C234.33 274.242 236.2 275.082 237.82 275.557L185.858 305.557Z" fill="#8BC5E4"/>
<path fill-rule="evenodd" clip-rule="evenodd" d="M179.613 266.662C182.359 268.247 184.35 269.677 185.597 270.947L237.559 240.947C236.312 239.677 234.32 238.247 231.575 236.662L179.613 266.662Z" fill="#8BC5E4"/>
<path fill-rule="evenodd" clip-rule="evenodd" d="M185.598 270.947C187.312 272.727 188.767 275.107 189.954 278.092L241.915 248.092C240.729 245.107 239.274 242.727 237.559 240.947L185.598 270.947Z" fill="#8BC5E4"/>
<path fill-rule="evenodd" clip-rule="evenodd" d="M189.954 278.092C191.167 281.072 191.773 284.702 191.773 288.962L243.734 258.962C243.734 254.702 243.128 251.072 241.916 248.092L189.954 278.092Z" fill="#8BC5E4"/>
<path fill-rule="evenodd" clip-rule="evenodd" d="M191.773 288.962C191.773 292.042 191.461 294.492 190.838 296.302L242.799 266.302C243.423 264.492 243.735 262.042 243.735 258.962L191.773 288.962Z" fill="#8BC5E4"/>
<path fill-rule="evenodd" clip-rule="evenodd" d="M190.837 296.302C190.296 297.938 189.541 299.097 188.592 299.784L240.553 269.784C241.502 269.097 242.257 267.938 242.799 266.302L190.837 296.302Z" fill="#8BC5E4"/>
<path fill-rule="evenodd" clip-rule="evenodd" d="M188.598 299.78C188.5 299.851 188.4 299.917 188.298 299.978L240.259 269.978C240.361 269.917 240.461 269.851 240.559 269.78L188.598 299.78Z" fill="#8BC5E4"/>
<path fill-rule="evenodd" clip-rule="evenodd" d="M188.292 299.982C188.218 300.024 188.143 300.063 188.065 300.099L240.027 270.099C240.105 270.063 240.18 270.024 240.253 269.982L188.292 299.982Z" fill="#8BC5E4"/>
<path fill-rule="evenodd" clip-rule="evenodd" d="M188.065 300.099C187.315 300.448 186.344 300.512 185.147 300.274L237.109 270.274C238.306 270.512 239.277 270.448 240.027 270.099L188.065 300.099Z" fill="#8BC5E4"/>
<path fill-rule="evenodd" clip-rule="evenodd" d="M185.139 300.272C183.84 300.022 182.03 299.227 179.727 297.897L231.688 267.897C233.992 269.227 235.802 270.022 237.101 270.272L185.139 300.272Z" fill="#8BC5E4"/>
<path fill-rule="evenodd" clip-rule="evenodd" d="M43.1543 81.5469C43.6999 84.0619 44.5313 87.3619 45.6398 91.4319L97.6014 61.4319C96.4929 57.3619 95.6615 54.0619 95.1159 51.5469L43.1543 81.5469Z" fill="#8BC5E4"/>
<path fill-rule="evenodd" clip-rule="evenodd" d="M41.2744 88.2419C42.0798 86.1369 42.712 83.9019 43.1536 81.5469L95.1152 51.5469C94.6735 53.9019 94.0413 56.1369 93.2359 58.2419L41.2744 88.2419Z" fill="#8BC5E4"/>
<path fill-rule="evenodd" clip-rule="evenodd" d="M10.4702 36.9169L211.232 152.827C214.445 154.682 216.965 159.077 216.965 162.847V338.407C216.965 342.177 214.445 343.662 211.232 341.807L10.4702 225.897C7.24863 224.037 4.7285 219.642 4.7285 215.872V40.3119C4.7285 36.5419 7.24863 35.0569 10.4702 36.9169ZM39.6813 162.732L42.288 130.477L65.9911 163.752L58.985 163.477L74.764 212.467L153.096 257.882L153.07 273.507L66.1817 223.122L46.8173 163.012L39.6813 162.732ZM40.7725 75.8819L27.3404 108.927L32.2594 111.767L36.0959 101.622L50.7231 110.067L54.7934 124.777L60.0675 127.822L45.7521 78.7569L40.7725 75.8819ZM45.6395 91.4319C44.531 87.3619 43.6996 84.0619 43.154 81.5469C42.7124 83.9019 42.0802 86.1369 41.2748 88.2419L37.4383 97.9969L49.2942 104.842L45.6395 91.4319ZM167.637 295.737V254.927L179.683 261.882C182.402 263.452 184.472 264.847 185.91 266.077C187.91 267.762 189.616 269.727 191.037 271.957C192.873 274.827 194.249 277.962 195.167 281.322C196.085 284.672 196.536 288.162 196.536 291.792C196.536 294.892 196.233 297.467 195.609 299.497C194.994 301.532 194.198 303.062 193.228 304.082C192.258 305.072 191.192 305.697 190.023 305.932C188.88 306.152 187.503 306.037 185.858 305.557C184.238 305.082 182.368 304.242 180.255 303.022L167.637 295.737ZM172.261 262.417L179.614 266.662C182.359 268.247 184.351 269.677 185.598 270.947C187.313 272.727 188.768 275.107 189.954 278.092C191.166 281.072 191.773 284.702 191.773 288.962C191.773 292.042 191.461 294.492 190.837 296.302C190.24 298.107 189.382 299.332 188.291 299.982C187.512 300.432 186.464 300.537 185.139 300.272C183.84 300.022 182.03 299.227 179.726 297.897L172.261 293.587V262.417Z" fill="white"/>
</svg>
