<svg width="274" height="349" viewBox="0 0 274 349" fill="none" xmlns="http://www.w3.org/2000/svg">
<path fill-rule="evenodd" clip-rule="evenodd" d="M97.6011 166.73L101.256 175.92L49.2942 145.92L45.6396 136.73L97.6011 166.73Z" fill="#8BC5E4"/>
<path fill-rule="evenodd" clip-rule="evenodd" d="M101.256 175.92L89.4 182.765L37.4385 152.765L49.2943 145.92L101.256 175.92Z" fill="#8BC5E4"/>
<path fill-rule="evenodd" clip-rule="evenodd" d="M89.4 182.765L93.2365 168.58L41.2749 138.58L37.4385 152.765L89.4 182.765Z" fill="#8BC5E4"/>
<path fill-rule="evenodd" clip-rule="evenodd" d="M95.1158 159.715L43.1543 129.715L95.1158 159.715Z" fill="#8BC5E4"/>
<path fill-rule="evenodd" clip-rule="evenodd" d="M92.7344 156.8L79.3023 205.355L27.3408 175.355L40.7729 126.8L92.7344 156.8Z" fill="#8BC5E4"/>
<path fill-rule="evenodd" clip-rule="evenodd" d="M79.3023 205.355L84.2213 202.515L32.2598 172.515L27.3408 175.355L79.3023 205.355Z" fill="#8BC5E4"/>
<path fill-rule="evenodd" clip-rule="evenodd" d="M84.2213 202.515L88.0578 187.94L36.0963 157.94L32.2598 172.515L84.2213 202.515Z" fill="#8BC5E4"/>
<path fill-rule="evenodd" clip-rule="evenodd" d="M88.0582 187.94L102.685 179.495L50.7239 149.495L36.0967 157.94L88.0582 187.94Z" fill="#8BC5E4"/>
<path fill-rule="evenodd" clip-rule="evenodd" d="M102.685 179.495L106.755 189.505L54.7939 159.505L50.7236 149.495L102.685 179.495Z" fill="#8BC5E4"/>
<path fill-rule="evenodd" clip-rule="evenodd" d="M106.755 189.505L112.03 186.46L60.068 156.46L54.7939 159.505L106.755 189.505Z" fill="#8BC5E4"/>
<path fill-rule="evenodd" clip-rule="evenodd" d="M112.03 186.46L97.7144 153.925L45.7529 123.925L60.0683 156.46L112.03 186.46Z" fill="#8BC5E4"/>
<path fill-rule="evenodd" clip-rule="evenodd" d="M97.7136 153.925L92.734 156.8L40.7725 126.8L45.7521 123.925L97.7136 153.925Z" fill="#8BC5E4"/>
<path fill-rule="evenodd" clip-rule="evenodd" d="M92.734 156.8L40.7725 126.8L92.734 156.8Z" fill="#8BC5E4"/>
<path fill-rule="evenodd" clip-rule="evenodd" d="M94.2498 209.645L91.6431 244.91L39.6816 214.91L42.2883 179.645L94.2498 209.645Z" fill="#8BC5E4"/>
<path fill-rule="evenodd" clip-rule="evenodd" d="M91.6431 244.91L98.7791 236.95L46.8176 206.95L39.6816 214.91L91.6431 244.91Z" fill="#8BC5E4"/>
<path fill-rule="evenodd" clip-rule="evenodd" d="M98.7789 236.95L118.143 274.7L66.1817 244.7L46.8174 206.95L98.7789 236.95Z" fill="#8BC5E4"/>
<path fill-rule="evenodd" clip-rule="evenodd" d="M118.143 274.7L205.032 224.755L153.07 194.755L66.1816 244.7L118.143 274.7Z" fill="#8BC5E4"/>
<path fill-rule="evenodd" clip-rule="evenodd" d="M205.032 224.755L205.058 209.1L153.096 179.1L153.07 194.755L205.032 224.755Z" fill="#8BC5E4"/>
<path fill-rule="evenodd" clip-rule="evenodd" d="M205.058 209.1L126.726 254.135L74.7646 224.135L153.097 179.1L205.058 209.1Z" fill="#8BC5E4"/>
<path fill-rule="evenodd" clip-rule="evenodd" d="M126.726 254.135L110.947 223.365L58.9854 193.365L74.7644 224.135L126.726 254.135Z" fill="#8BC5E4"/>
<path fill-rule="evenodd" clip-rule="evenodd" d="M110.947 223.365L117.953 215.55L65.9915 185.55L58.9854 193.365L110.947 223.365Z" fill="#8BC5E4"/>
<path fill-rule="evenodd" clip-rule="evenodd" d="M117.953 215.55L94.2496 209.645L42.2881 179.645L65.9912 185.55L117.953 215.55Z" fill="#8BC5E4"/>
<path fill-rule="evenodd" clip-rule="evenodd" d="M94.2496 209.645L42.2881 179.645L94.2496 209.645Z" fill="#8BC5E4"/>
<path fill-rule="evenodd" clip-rule="evenodd" d="M224.223 191.505L231.576 187.26L179.614 157.26L172.262 161.505L224.223 191.505Z" fill="#8BC5E4"/>
<path fill-rule="evenodd" clip-rule="evenodd" d="M231.688 218.365L224.223 222.675L172.262 192.675L179.727 188.365L231.688 218.365Z" fill="#8BC5E4"/>
<path fill-rule="evenodd" clip-rule="evenodd" d="M224.223 222.675V191.505L172.262 161.505V192.675L224.223 222.675Z" fill="#8BC5E4"/>
<path fill-rule="evenodd" clip-rule="evenodd" d="M224.223 191.505L172.262 161.505L224.223 191.505Z" fill="#8BC5E4"/>
<path fill-rule="evenodd" clip-rule="evenodd" d="M219.598 189.355V230.165L167.637 200.165V159.355L219.598 189.355Z" fill="#8BC5E4"/>
<path fill-rule="evenodd" clip-rule="evenodd" d="M219.598 230.165L232.216 222.88L180.255 192.88L167.637 200.165L219.598 230.165Z" fill="#8BC5E4"/>
<path fill-rule="evenodd" clip-rule="evenodd" d="M231.645 182.4L219.598 189.355L167.637 159.355L179.683 152.4L231.645 182.4Z" fill="#8BC5E4"/>
<path fill-rule="evenodd" clip-rule="evenodd" d="M219.598 189.355L167.637 159.355L219.598 189.355Z" fill="#8BC5E4"/>
<path fill-rule="evenodd" clip-rule="evenodd" d="M51.9615 165.58V341.14L0 311.14V135.58L51.9615 165.58Z" fill="#8BC5E4"/>
<path fill-rule="evenodd" clip-rule="evenodd" d="M62.4322 347.315L263.194 231.405L211.233 201.405L10.4707 317.315L62.4322 347.315Z" fill="#8BC5E4"/>
<path fill-rule="evenodd" clip-rule="evenodd" d="M273.665 213.14V37.58L221.703 7.57999V183.14L273.665 213.14Z" fill="#8BC5E4"/>
<path fill-rule="evenodd" clip-rule="evenodd" d="M263.194 31.405L62.4322 147.315L10.4707 117.315L211.233 1.40497L263.194 31.405Z" fill="#8BC5E4"/>
<path fill-rule="evenodd" clip-rule="evenodd" d="M62.4322 147.315L10.4707 117.315L62.4322 147.315Z" fill="#8BC5E4"/>
<path fill-rule="evenodd" clip-rule="evenodd" d="M62.4322 152.825L263.194 36.915L211.233 6.91498L10.4707 122.825L62.4322 152.825Z" fill="#8BC5E4"/>
<path fill-rule="evenodd" clip-rule="evenodd" d="M268.927 40.315V215.875L216.966 185.875V10.315L268.927 40.315Z" fill="#8BC5E4"/>
<path fill-rule="evenodd" clip-rule="evenodd" d="M263.194 225.895L62.4322 341.805L10.4707 311.805L211.233 195.895L263.194 225.895Z" fill="#8BC5E4"/>
<path fill-rule="evenodd" clip-rule="evenodd" d="M56.69 338.41V162.85L4.72852 132.85V308.41L56.69 338.41Z" fill="#8BC5E4"/>
<path fill-rule="evenodd" clip-rule="evenodd" d="M62.4322 152.825L10.4707 122.825L62.4322 152.825Z" fill="#8BC5E4"/>
<path fill-rule="evenodd" clip-rule="evenodd" d="M62.4322 152.825L263.194 36.915L211.233 6.91498L10.4707 122.825L62.4322 152.825Z" fill="#8BC5E4"/>
<path fill-rule="evenodd" clip-rule="evenodd" d="M268.927 40.315V215.875L216.966 185.875V10.315L268.927 40.315Z" fill="#8BC5E4"/>
<path fill-rule="evenodd" clip-rule="evenodd" d="M263.194 225.895L62.4322 341.805L10.4707 311.805L211.233 195.895L263.194 225.895Z" fill="#8BC5E4"/>
<path fill-rule="evenodd" clip-rule="evenodd" d="M56.69 338.41V162.85L4.72852 132.85V308.41L56.69 338.41Z" fill="#8BC5E4"/>
<path fill-rule="evenodd" clip-rule="evenodd" d="M62.4322 152.825L10.4707 122.825L62.4322 152.825Z" fill="#8BC5E4"/>
<path fill-rule="evenodd" clip-rule="evenodd" d="M79.3023 205.355L92.7344 156.8L40.7729 126.8L27.3408 175.355L79.3023 205.355Z" fill="#8BC5E4"/>
<path fill-rule="evenodd" clip-rule="evenodd" d="M92.734 156.8L97.7136 153.925L45.7521 123.925L40.7725 126.8L92.734 156.8Z" fill="#8BC5E4"/>
<path fill-rule="evenodd" clip-rule="evenodd" d="M97.7144 153.925L112.03 186.46L60.0683 156.46L45.7529 123.925L97.7144 153.925Z" fill="#8BC5E4"/>
<path fill-rule="evenodd" clip-rule="evenodd" d="M112.03 186.46L106.755 189.505L54.7939 159.505L60.068 156.46L112.03 186.46Z" fill="#8BC5E4"/>
<path fill-rule="evenodd" clip-rule="evenodd" d="M106.755 189.505L102.685 179.495L50.7236 149.495L54.7939 159.505L106.755 189.505Z" fill="#8BC5E4"/>
<path fill-rule="evenodd" clip-rule="evenodd" d="M102.685 179.495L88.0582 187.94L36.0967 157.94L50.7239 149.495L102.685 179.495Z" fill="#8BC5E4"/>
<path fill-rule="evenodd" clip-rule="evenodd" d="M88.0578 187.94L84.2213 202.515L32.2598 172.515L36.0963 157.94L88.0578 187.94Z" fill="#8BC5E4"/>
<path fill-rule="evenodd" clip-rule="evenodd" d="M84.2213 202.515L79.3023 205.355L27.3408 175.355L32.2598 172.515L84.2213 202.515Z" fill="#8BC5E4"/>
<path fill-rule="evenodd" clip-rule="evenodd" d="M79.3023 205.355L27.3408 175.355L79.3023 205.355Z" fill="#8BC5E4"/>
<path fill-rule="evenodd" clip-rule="evenodd" d="M91.6431 244.91L94.2498 209.645L42.2883 179.645L39.6816 214.91L91.6431 244.91Z" fill="#8BC5E4"/>
<path fill-rule="evenodd" clip-rule="evenodd" d="M94.2496 209.645L117.953 215.55L65.9912 185.55L42.2881 179.645L94.2496 209.645Z" fill="#8BC5E4"/>
<path fill-rule="evenodd" clip-rule="evenodd" d="M117.953 215.55L110.947 223.365L58.9854 193.365L65.9915 185.55L117.953 215.55Z" fill="#8BC5E4"/>
<path fill-rule="evenodd" clip-rule="evenodd" d="M110.947 223.365L126.726 254.135L74.7644 224.135L58.9854 193.365L110.947 223.365Z" fill="#8BC5E4"/>
<path fill-rule="evenodd" clip-rule="evenodd" d="M126.726 254.135L205.058 209.1L153.097 179.1L74.7646 224.135L126.726 254.135Z" fill="#8BC5E4"/>
<path fill-rule="evenodd" clip-rule="evenodd" d="M205.058 209.1L205.032 224.755L153.07 194.755L153.096 179.1L205.058 209.1Z" fill="#8BC5E4"/>
<path fill-rule="evenodd" clip-rule="evenodd" d="M205.032 224.755L118.143 274.7L66.1816 244.7L153.07 194.755L205.032 224.755Z" fill="#8BC5E4"/>
<path fill-rule="evenodd" clip-rule="evenodd" d="M118.143 274.7L98.7789 236.95L46.8174 206.95L66.1817 244.7L118.143 274.7Z" fill="#8BC5E4"/>
<path fill-rule="evenodd" clip-rule="evenodd" d="M98.7791 236.95L91.6431 244.91L39.6816 214.91L46.8176 206.95L98.7791 236.95Z" fill="#8BC5E4"/>
<path fill-rule="evenodd" clip-rule="evenodd" d="M91.6431 244.91L39.6816 214.91L91.6431 244.91Z" fill="#8BC5E4"/>
<path fill-rule="evenodd" clip-rule="evenodd" d="M219.598 230.165V189.355L167.637 159.355V200.165L219.598 230.165Z" fill="#8BC5E4"/>
<path fill-rule="evenodd" clip-rule="evenodd" d="M219.598 189.355L231.645 182.4L179.683 152.4L167.637 159.355L219.598 189.355Z" fill="#8BC5E4"/>
<path fill-rule="evenodd" clip-rule="evenodd" d="M232.216 222.88L219.598 230.165L167.637 200.165L180.255 192.88L232.216 222.88Z" fill="#8BC5E4"/>
<path fill-rule="evenodd" clip-rule="evenodd" d="M219.598 230.165L167.637 200.165L219.598 230.165Z" fill="#8BC5E4"/>
<path fill-rule="evenodd" clip-rule="evenodd" d="M224.223 191.505L231.576 187.26L179.614 157.26L172.262 161.505L224.223 191.505Z" fill="#8BC5E4"/>
<path fill-rule="evenodd" clip-rule="evenodd" d="M231.688 218.365L224.223 222.675L172.262 192.675L179.727 188.365L231.688 218.365Z" fill="#8BC5E4"/>
<path fill-rule="evenodd" clip-rule="evenodd" d="M224.223 222.675V191.505L172.262 161.505V192.675L224.223 222.675Z" fill="#8BC5E4"/>
<path fill-rule="evenodd" clip-rule="evenodd" d="M224.223 191.505L172.262 161.505L224.223 191.505Z" fill="#8BC5E4"/>
<path fill-rule="evenodd" clip-rule="evenodd" d="M97.6011 166.73L101.256 175.92L49.2942 145.92L45.6396 136.73L97.6011 166.73Z" fill="#8BC5E4"/>
<path fill-rule="evenodd" clip-rule="evenodd" d="M101.256 175.92L89.4 182.765L37.4385 152.765L49.2943 145.92L101.256 175.92Z" fill="#8BC5E4"/>
<path fill-rule="evenodd" clip-rule="evenodd" d="M89.4 182.765L93.2365 168.58L41.2749 138.58L37.4385 152.765L89.4 182.765Z" fill="#8BC5E4"/>
<path fill-rule="evenodd" clip-rule="evenodd" d="M95.1158 159.715L43.1543 129.715L95.1158 159.715Z" fill="#8BC5E4"/>
<path fill-rule="evenodd" clip-rule="evenodd" d="M95.1158 159.715C95.6614 161.6 96.4928 163.94 97.6013 166.73L45.6398 136.73C44.5313 133.94 43.6999 131.6 43.1543 129.715L95.1158 159.715Z" fill="#8BC5E4"/>
<path fill-rule="evenodd" clip-rule="evenodd" d="M93.237 168.58C94.0424 165.545 94.6746 162.58 95.1162 159.715L43.1547 129.715C42.7131 132.58 42.0809 135.545 41.2754 138.58L93.237 168.58Z" fill="#8BC5E4"/>
<path fill-rule="evenodd" clip-rule="evenodd" d="M231.576 187.26C234.321 185.675 236.313 184.805 237.56 184.635L185.599 154.635C184.351 154.805 182.36 155.675 179.614 157.26L231.576 187.26Z" fill="#8BC5E4"/>
<path fill-rule="evenodd" clip-rule="evenodd" d="M237.56 184.635C238.491 184.526 239.345 184.683 240.122 185.108L188.161 155.108C187.384 154.683 186.53 154.526 185.599 154.635L237.56 184.635Z" fill="#8BC5E4"/>
<path fill-rule="evenodd" clip-rule="evenodd" d="M240.12 185.106C240.773 185.463 241.371 186.009 241.913 186.745L189.951 156.745C189.409 156.009 188.811 155.463 188.158 155.106L240.12 185.106Z" fill="#8BC5E4"/>
<path fill-rule="evenodd" clip-rule="evenodd" d="M241.916 186.75C243.128 188.33 243.734 191.26 243.734 195.52L191.773 165.52C191.773 161.26 191.167 158.33 189.954 156.75L241.916 186.75Z" fill="#8BC5E4"/>
<path fill-rule="evenodd" clip-rule="evenodd" d="M243.735 195.52C243.735 198.6 243.423 201.41 242.799 203.94L190.838 173.94C191.461 171.41 191.773 168.6 191.773 165.52L243.735 195.52Z" fill="#8BC5E4"/>
<path fill-rule="evenodd" clip-rule="evenodd" d="M242.8 203.94C242.202 206.435 241.345 208.65 240.253 210.56L188.292 180.56C189.383 178.65 190.241 176.435 190.838 173.94L242.8 203.94Z" fill="#8BC5E4"/>
<path fill-rule="evenodd" clip-rule="evenodd" d="M240.253 210.56C239.474 211.91 238.426 213.225 237.101 214.49L185.14 184.49C186.465 183.225 187.513 181.91 188.292 180.56L240.253 210.56Z" fill="#8BC5E4"/>
<path fill-rule="evenodd" clip-rule="evenodd" d="M237.101 214.49C235.802 215.74 233.992 217.035 231.688 218.365L179.727 188.365C182.03 187.035 183.84 185.74 185.139 184.49L237.101 214.49Z" fill="#8BC5E4"/>
<path fill-rule="evenodd" clip-rule="evenodd" d="M232.216 222.88C234.329 221.66 236.2 220.34 237.82 218.945L185.858 188.945C184.239 190.34 182.368 191.66 180.255 192.88L232.216 222.88Z" fill="#8BC5E4"/>
<path fill-rule="evenodd" clip-rule="evenodd" d="M237.82 218.945C239.465 217.525 240.842 216.05 241.986 214.51L190.024 184.51C188.881 186.05 187.504 187.525 185.858 188.945L237.82 218.945Z" fill="#8BC5E4"/>
<path fill-rule="evenodd" clip-rule="evenodd" d="M241.985 214.51C243.154 212.925 244.219 211.07 245.189 208.96L193.228 178.96C192.258 181.07 191.193 182.925 190.023 184.51L241.985 214.51Z" fill="#8BC5E4"/>
<path fill-rule="evenodd" clip-rule="evenodd" d="M245.189 208.96C246.159 206.82 246.956 204.37 247.571 201.625L195.609 171.625C194.994 174.37 194.197 176.82 193.228 178.96L245.189 208.96Z" fill="#8BC5E4"/>
<path fill-rule="evenodd" clip-rule="evenodd" d="M247.571 201.625C248.194 198.875 248.498 195.95 248.498 192.85L196.536 162.85C196.536 165.95 196.233 168.875 195.609 171.625L247.571 201.625Z" fill="#8BC5E4"/>
<path fill-rule="evenodd" clip-rule="evenodd" d="M248.498 192.85C248.498 189.22 248.047 186.25 247.129 183.96L195.168 153.96C196.086 156.25 196.536 159.22 196.536 162.85L248.498 192.85Z" fill="#8BC5E4"/>
<path fill-rule="evenodd" clip-rule="evenodd" d="M247.13 183.96C246.33 181.956 245.182 180.526 243.686 179.695L191.725 149.695C193.221 150.526 194.369 151.956 195.168 153.96L247.13 183.96Z" fill="#8BC5E4"/>
<path fill-rule="evenodd" clip-rule="evenodd" d="M243.689 179.697C243.468 179.574 243.239 179.464 243.003 179.367L191.042 149.367C191.278 149.464 191.507 149.574 191.728 149.697L243.689 179.697Z" fill="#8BC5E4"/>
<path fill-rule="evenodd" clip-rule="evenodd" d="M242.999 179.365C241.578 178.775 239.872 178.78 237.872 179.405L185.91 149.405C187.911 148.78 189.617 148.775 191.037 149.365L242.999 179.365Z" fill="#8BC5E4"/>
<path fill-rule="evenodd" clip-rule="evenodd" d="M237.872 179.405C236.434 179.835 234.364 180.83 231.645 182.4L179.684 152.4C182.403 150.83 184.473 149.835 185.91 149.405L237.872 179.405Z" fill="#8BC5E4"/>
<path fill-rule="evenodd" clip-rule="evenodd" d="M62.4317 147.315C56.6727 150.64 51.9615 158.85 51.9615 165.58L0 135.58C0 128.85 4.7112 120.64 10.4702 117.315L62.4317 147.315Z" fill="#8BC5E4"/>
<path fill-rule="evenodd" clip-rule="evenodd" d="M51.9615 341.14C51.9615 344.643 53.2375 347.073 55.2745 348.129L3.313 318.129C1.276 317.073 0 314.643 0 311.14L51.9615 341.14Z" fill="#8BC5E4"/>
<path fill-rule="evenodd" clip-rule="evenodd" d="M55.2828 348.134C57.1558 349.101 59.6698 348.907 62.4238 347.32L10.4623 317.32C7.70829 318.907 5.19429 319.101 3.32129 318.134L55.2828 348.134Z" fill="#8BC5E4"/>
<path fill-rule="evenodd" clip-rule="evenodd" d="M263.194 231.405C268.944 228.085 273.664 219.87 273.664 213.14L221.703 183.14C221.703 189.87 216.983 198.085 211.232 201.405L263.194 231.405Z" fill="#8BC5E4"/>
<path fill-rule="evenodd" clip-rule="evenodd" d="M273.665 37.58C273.665 34.077 272.386 31.648 270.349 30.593L218.388 0.592987C220.425 1.64799 221.704 4.07699 221.703 7.57999L273.665 37.58Z" fill="#8BC5E4"/>
<path fill-rule="evenodd" clip-rule="evenodd" d="M270.34 30.588C268.466 29.622 265.953 29.815 263.203 31.4L211.241 1.39997C213.991 -0.185031 216.504 -0.378031 218.378 0.587969L270.34 30.588Z" fill="#8BC5E4"/>
<path fill-rule="evenodd" clip-rule="evenodd" d="M263.194 36.915C264.738 36.024 266.122 35.903 267.143 36.437L215.181 6.43697C214.16 5.90297 212.776 6.02397 211.232 6.91497L263.194 36.915Z" fill="#8BC5E4"/>
<path fill-rule="evenodd" clip-rule="evenodd" d="M267.142 36.437C268.246 37.013 268.926 38.353 268.927 40.309L216.966 10.309C216.965 8.35298 216.285 7.01298 215.181 6.43698L267.142 36.437Z" fill="#8BC5E4"/>
<path fill-rule="evenodd" clip-rule="evenodd" d="M268.927 215.875C268.927 219.645 266.407 224.04 263.194 225.895L211.232 195.895C214.445 194.04 216.966 189.645 216.966 185.875L268.927 215.875Z" fill="#8BC5E4"/>
<path fill-rule="evenodd" clip-rule="evenodd" d="M62.4324 341.805C60.8842 342.699 59.4981 342.82 58.4761 342.287L6.51465 312.287C7.53665 312.82 8.92265 312.699 10.4708 311.805L62.4324 341.805Z" fill="#8BC5E4"/>
<path fill-rule="evenodd" clip-rule="evenodd" d="M58.478 342.288C57.372 341.712 56.692 340.372 56.691 338.416L4.72949 308.416C4.73049 310.372 5.41049 311.712 6.51649 312.288L58.478 342.288Z" fill="#8BC5E4"/>
<path fill-rule="evenodd" clip-rule="evenodd" d="M56.69 162.85C56.69 159.08 59.2101 154.685 62.4317 152.825L10.4702 122.825C7.24862 124.685 4.72852 129.08 4.72852 132.85L56.69 162.85Z" fill="#8BC5E4"/>
<path fill-rule="evenodd" clip-rule="evenodd" d="M263.194 36.915C264.738 36.024 266.122 35.903 267.143 36.437L215.181 6.43697C214.16 5.90297 212.776 6.02397 211.232 6.91497L263.194 36.915Z" fill="#8BC5E4"/>
<path fill-rule="evenodd" clip-rule="evenodd" d="M267.142 36.437C268.246 37.013 268.926 38.353 268.927 40.309L216.966 10.309C216.965 8.35298 216.285 7.01298 215.181 6.43698L267.142 36.437Z" fill="#8BC5E4"/>
<path fill-rule="evenodd" clip-rule="evenodd" d="M268.927 215.875C268.927 219.645 266.407 224.04 263.194 225.895L211.232 195.895C214.445 194.04 216.966 189.645 216.966 185.875L268.927 215.875Z" fill="#8BC5E4"/>
<path fill-rule="evenodd" clip-rule="evenodd" d="M62.4324 341.805C60.8842 342.699 59.4981 342.82 58.4761 342.287L6.51465 312.287C7.53665 312.82 8.92265 312.699 10.4708 311.805L62.4324 341.805Z" fill="#8BC5E4"/>
<path fill-rule="evenodd" clip-rule="evenodd" d="M58.478 342.288C57.372 341.712 56.692 340.372 56.691 338.416L4.72949 308.416C4.73049 310.372 5.41049 311.712 6.51649 312.288L58.478 342.288Z" fill="#8BC5E4"/>
<path fill-rule="evenodd" clip-rule="evenodd" d="M56.69 162.85C56.69 159.08 59.2101 154.685 62.4317 152.825L10.4702 122.825C7.24862 124.685 4.72852 129.08 4.72852 132.85L56.69 162.85Z" fill="#8BC5E4"/>
<path fill-rule="evenodd" clip-rule="evenodd" d="M231.645 182.4C234.364 180.83 236.434 179.835 237.872 179.405L185.91 149.405C184.473 149.835 182.403 150.83 179.684 152.4L231.645 182.4Z" fill="#8BC5E4"/>
<path fill-rule="evenodd" clip-rule="evenodd" d="M237.872 179.405C239.872 178.78 241.578 178.775 242.999 179.365L191.037 149.365C189.617 148.775 187.911 148.78 185.91 149.405L237.872 179.405Z" fill="#8BC5E4"/>
<path fill-rule="evenodd" clip-rule="evenodd" d="M242.999 179.365C243.235 179.462 243.464 179.572 243.686 179.695L191.725 149.695C191.503 149.572 191.274 149.462 191.037 149.365L242.999 179.365Z" fill="#8BC5E4"/>
<path fill-rule="evenodd" clip-rule="evenodd" d="M243.685 179.694C245.18 180.524 246.327 181.953 247.127 183.953L195.166 153.953C194.366 151.953 193.219 150.524 191.724 149.694L243.685 179.694Z" fill="#8BC5E4"/>
<path fill-rule="evenodd" clip-rule="evenodd" d="M247.129 183.96C248.047 186.25 248.498 189.22 248.498 192.85L196.536 162.85C196.536 159.22 196.086 156.25 195.168 153.96L247.129 183.96Z" fill="#8BC5E4"/>
<path fill-rule="evenodd" clip-rule="evenodd" d="M248.498 192.85C248.498 195.95 248.194 198.875 247.571 201.625L195.609 171.625C196.233 168.875 196.536 165.95 196.536 162.85L248.498 192.85Z" fill="#8BC5E4"/>
<path fill-rule="evenodd" clip-rule="evenodd" d="M247.571 201.625C246.956 204.37 246.159 206.82 245.189 208.96L193.228 178.96C194.197 176.82 194.994 174.37 195.609 171.625L247.571 201.625Z" fill="#8BC5E4"/>
<path fill-rule="evenodd" clip-rule="evenodd" d="M245.189 208.96C244.219 211.07 243.154 212.925 241.985 214.51L190.023 184.51C191.193 182.925 192.258 181.07 193.228 178.96L245.189 208.96Z" fill="#8BC5E4"/>
<path fill-rule="evenodd" clip-rule="evenodd" d="M241.986 214.51C240.842 216.05 239.465 217.525 237.82 218.945L185.858 188.945C187.504 187.525 188.881 186.05 190.024 184.51L241.986 214.51Z" fill="#8BC5E4"/>
<path fill-rule="evenodd" clip-rule="evenodd" d="M237.82 218.945C236.2 220.34 234.329 221.66 232.216 222.88L180.255 192.88C182.368 191.66 184.239 190.34 185.858 188.945L237.82 218.945Z" fill="#8BC5E4"/>
<path fill-rule="evenodd" clip-rule="evenodd" d="M231.576 187.26C234.321 185.675 236.313 184.805 237.56 184.635L185.599 154.635C184.351 154.805 182.36 155.675 179.614 157.26L231.576 187.26Z" fill="#8BC5E4"/>
<path fill-rule="evenodd" clip-rule="evenodd" d="M237.56 184.635C238.491 184.526 239.345 184.683 240.122 185.108L188.161 155.108C187.384 154.683 186.53 154.526 185.599 154.635L237.56 184.635Z" fill="#8BC5E4"/>
<path fill-rule="evenodd" clip-rule="evenodd" d="M240.12 185.106C240.773 185.463 241.371 186.009 241.913 186.745L189.951 156.745C189.409 156.009 188.811 155.463 188.158 155.106L240.12 185.106Z" fill="#8BC5E4"/>
<path fill-rule="evenodd" clip-rule="evenodd" d="M241.916 186.75C243.128 188.33 243.734 191.26 243.734 195.52L191.773 165.52C191.773 161.26 191.167 158.33 189.954 156.75L241.916 186.75Z" fill="#8BC5E4"/>
<path fill-rule="evenodd" clip-rule="evenodd" d="M243.735 195.52C243.735 198.6 243.423 201.41 242.799 203.94L190.838 173.94C191.461 171.41 191.773 168.6 191.773 165.52L243.735 195.52Z" fill="#8BC5E4"/>
<path fill-rule="evenodd" clip-rule="evenodd" d="M242.8 203.94C242.202 206.435 241.345 208.65 240.253 210.56L188.292 180.56C189.383 178.65 190.241 176.435 190.838 173.94L242.8 203.94Z" fill="#8BC5E4"/>
<path fill-rule="evenodd" clip-rule="evenodd" d="M240.253 210.56C239.474 211.91 238.426 213.225 237.101 214.49L185.14 184.49C186.465 183.225 187.513 181.91 188.292 180.56L240.253 210.56Z" fill="#8BC5E4"/>
<path fill-rule="evenodd" clip-rule="evenodd" d="M237.101 214.49C235.802 215.74 233.992 217.035 231.688 218.365L179.727 188.365C182.03 187.035 183.84 185.74 185.139 184.49L237.101 214.49Z" fill="#8BC5E4"/>
<path fill-rule="evenodd" clip-rule="evenodd" d="M95.1158 159.715C95.6614 161.6 96.4928 163.94 97.6013 166.73L45.6398 136.73C44.5313 133.94 43.6999 131.6 43.1543 129.715L95.1158 159.715Z" fill="#8BC5E4"/>
<path fill-rule="evenodd" clip-rule="evenodd" d="M93.237 168.58C94.0424 165.545 94.6746 162.58 95.1162 159.715L43.1547 129.715C42.7131 132.58 42.0809 135.545 41.2754 138.58L93.237 168.58Z" fill="#8BC5E4"/>
<path fill-rule="evenodd" clip-rule="evenodd" d="M94.2499 209.645L91.6432 244.91L98.7792 236.95L118.144 274.7L205.032 224.755L205.058 209.1L126.726 254.135L110.947 223.365L117.953 215.55L94.2499 209.645ZM62.4322 152.825L263.194 36.915C266.407 35.06 268.927 36.545 268.927 40.315V215.875C268.927 219.645 266.407 224.04 263.194 225.895L62.4322 341.805C59.2105 343.665 56.6904 342.18 56.6904 338.41V162.85C56.6904 159.08 59.2105 154.685 62.4322 152.825ZM92.7344 156.8L79.3023 205.355L84.2214 202.515L88.0579 187.94L102.685 179.495L106.755 189.505L112.029 186.46L97.714 153.925L92.7344 156.8ZM97.6015 166.73C96.4929 163.94 95.6616 161.6 95.116 159.715C94.6743 162.58 94.0421 165.545 93.2367 168.58L89.4002 182.765L101.256 175.92L97.6015 166.73ZM219.598 230.165V189.355L231.645 182.4C234.364 180.83 236.434 179.835 237.872 179.405C239.872 178.78 241.578 178.775 242.998 179.365C244.834 180.115 246.211 181.66 247.129 183.96C248.047 186.25 248.498 189.22 248.498 192.85C248.498 195.95 248.195 198.875 247.571 201.625C246.956 204.37 246.159 206.82 245.189 208.96C244.22 211.07 243.154 212.925 241.985 214.51C240.842 216.05 239.465 217.525 237.82 218.945C236.2 220.34 234.33 221.66 232.216 222.88L219.598 230.165ZM224.223 191.505L231.576 187.26C234.321 185.675 236.313 184.805 237.56 184.635C239.275 184.435 240.729 185.135 241.916 186.75C243.128 188.33 243.735 191.26 243.735 195.52C243.735 198.6 243.423 201.41 242.799 203.94C242.202 206.435 241.344 208.65 240.253 210.56C239.474 211.91 238.426 213.225 237.101 214.49C235.802 215.74 233.992 217.035 231.688 218.365L224.223 222.675V191.505Z" fill="white"/>
</svg>
