<svg width="274" height="349" viewBox="0 0 274 349" fill="none" xmlns="http://www.w3.org/2000/svg">
<path fill-rule="evenodd" clip-rule="evenodd" d="M93.2281 275.935L96.8827 285.115L44.9212 255.115L41.2666 245.935L93.2281 275.935Z" fill="#8BC5E4"/>
<path fill-rule="evenodd" clip-rule="evenodd" d="M96.8828 285.115L85.027 291.96L33.0654 261.96L44.9213 255.115L96.8828 285.115Z" fill="#8BC5E4"/>
<path fill-rule="evenodd" clip-rule="evenodd" d="M85.027 291.96L88.8721 277.78L36.9106 247.78L33.0654 261.96L85.027 291.96Z" fill="#8BC5E4"/>
<path fill-rule="evenodd" clip-rule="evenodd" d="M90.7593 268.9L38.7979 238.9L90.7593 268.9Z" fill="#8BC5E4"/>
<path fill-rule="evenodd" clip-rule="evenodd" d="M88.3692 265.99L74.9372 314.545L22.9756 284.545L36.4077 235.99L88.3692 265.99Z" fill="#8BC5E4"/>
<path fill-rule="evenodd" clip-rule="evenodd" d="M74.9372 314.545L79.8475 311.71L27.886 281.71L22.9756 284.545L74.9372 314.545Z" fill="#8BC5E4"/>
<path fill-rule="evenodd" clip-rule="evenodd" d="M79.8482 311.71L83.6934 297.13L31.7318 267.13L27.8867 281.71L79.8482 311.71Z" fill="#8BC5E4"/>
<path fill-rule="evenodd" clip-rule="evenodd" d="M83.693 297.13L98.3115 288.69L46.35 258.69L31.7314 267.13L83.693 297.13Z" fill="#8BC5E4"/>
<path fill-rule="evenodd" clip-rule="evenodd" d="M98.3121 288.69L102.4 298.69L50.4382 268.69L46.3506 258.69L98.3121 288.69Z" fill="#8BC5E4"/>
<path fill-rule="evenodd" clip-rule="evenodd" d="M102.399 298.69L107.665 295.65L55.7029 265.65L50.4375 268.69L102.399 298.69Z" fill="#8BC5E4"/>
<path fill-rule="evenodd" clip-rule="evenodd" d="M107.665 295.65L93.358 263.11L41.3965 233.11L55.7032 265.65L107.665 295.65Z" fill="#8BC5E4"/>
<path fill-rule="evenodd" clip-rule="evenodd" d="M93.358 263.11L88.3697 265.99L36.4082 235.99L41.3965 233.11L93.358 263.11Z" fill="#8BC5E4"/>
<path fill-rule="evenodd" clip-rule="evenodd" d="M88.3697 265.99L36.4082 235.99L88.3697 265.99Z" fill="#8BC5E4"/>
<path fill-rule="evenodd" clip-rule="evenodd" d="M230.407 131.335L233.014 163.58L181.052 133.58L178.445 101.335L230.407 131.335Z" fill="#8BC5E4"/>
<path fill-rule="evenodd" clip-rule="evenodd" d="M233.014 163.58L225.878 163.86L173.916 133.86L181.052 133.58L233.014 163.58Z" fill="#8BC5E4"/>
<path fill-rule="evenodd" clip-rule="evenodd" d="M225.877 163.86L206.504 223.975L154.543 193.975L173.916 133.86L225.877 163.86Z" fill="#8BC5E4"/>
<path fill-rule="evenodd" clip-rule="evenodd" d="M206.504 223.975L119.616 274.37L67.6543 244.37L154.543 193.975L206.504 223.975Z" fill="#8BC5E4"/>
<path fill-rule="evenodd" clip-rule="evenodd" d="M119.615 274.37L119.589 258.755L67.6279 228.755L67.6539 244.37L119.615 274.37Z" fill="#8BC5E4"/>
<path fill-rule="evenodd" clip-rule="evenodd" d="M119.589 258.755L197.921 213.33L145.96 183.33L67.6279 228.755L119.589 258.755Z" fill="#8BC5E4"/>
<path fill-rule="evenodd" clip-rule="evenodd" d="M197.921 213.33L213.709 164.335L161.748 134.335L145.96 183.33L197.921 213.33Z" fill="#8BC5E4"/>
<path fill-rule="evenodd" clip-rule="evenodd" d="M213.71 164.335L206.695 164.605L154.733 134.605L161.748 134.335L213.71 164.335Z" fill="#8BC5E4"/>
<path fill-rule="evenodd" clip-rule="evenodd" d="M206.695 164.605L230.407 131.335L178.445 101.335L154.733 134.605L206.695 164.605Z" fill="#8BC5E4"/>
<path fill-rule="evenodd" clip-rule="evenodd" d="M230.407 131.335L178.445 101.335L230.407 131.335Z" fill="#8BC5E4"/>
<path fill-rule="evenodd" clip-rule="evenodd" d="M227.315 83.61L234.659 79.37L182.697 49.37L175.354 53.61L227.315 83.61Z" fill="#8BC5E4"/>
<path fill-rule="evenodd" clip-rule="evenodd" d="M234.772 110.465L227.315 114.77L175.354 84.77L182.81 80.465L234.772 110.465Z" fill="#8BC5E4"/>
<path fill-rule="evenodd" clip-rule="evenodd" d="M227.315 114.77V83.61L175.354 53.61V84.77L227.315 114.77Z" fill="#8BC5E4"/>
<path fill-rule="evenodd" clip-rule="evenodd" d="M227.315 83.61L175.354 53.61L227.315 83.61Z" fill="#8BC5E4"/>
<path fill-rule="evenodd" clip-rule="evenodd" d="M222.681 81.465V122.265L170.72 92.265V51.465L222.681 81.465Z" fill="#8BC5E4"/>
<path fill-rule="evenodd" clip-rule="evenodd" d="M222.681 122.265L235.299 114.98L183.338 84.98L170.72 92.265L222.681 122.265Z" fill="#8BC5E4"/>
<path fill-rule="evenodd" clip-rule="evenodd" d="M234.728 74.51L222.681 81.465L170.72 51.465L182.766 44.51L234.728 74.51Z" fill="#8BC5E4"/>
<path fill-rule="evenodd" clip-rule="evenodd" d="M222.681 81.465L170.72 51.465L222.681 81.465Z" fill="#8BC5E4"/>
<path fill-rule="evenodd" clip-rule="evenodd" d="M51.9615 165.58V341.14L0 311.14V135.58L51.9615 165.58Z" fill="#8BC5E4"/>
<path fill-rule="evenodd" clip-rule="evenodd" d="M62.4322 347.315L263.194 231.405L211.233 201.405L10.4707 317.315L62.4322 347.315Z" fill="#8BC5E4"/>
<path fill-rule="evenodd" clip-rule="evenodd" d="M273.665 213.14V37.58L221.703 7.57997V183.14L273.665 213.14Z" fill="#8BC5E4"/>
<path fill-rule="evenodd" clip-rule="evenodd" d="M263.194 31.405L62.4322 147.315L10.4707 117.315L211.233 1.40497L263.194 31.405Z" fill="#8BC5E4"/>
<path fill-rule="evenodd" clip-rule="evenodd" d="M62.4322 147.315L10.4707 117.315L62.4322 147.315Z" fill="#8BC5E4"/>
<path fill-rule="evenodd" clip-rule="evenodd" d="M62.4322 152.825L263.194 36.915L211.233 6.91496L10.4707 122.825L62.4322 152.825Z" fill="#8BC5E4"/>
<path fill-rule="evenodd" clip-rule="evenodd" d="M268.927 40.315V215.875L216.966 185.875V10.315L268.927 40.315Z" fill="#8BC5E4"/>
<path fill-rule="evenodd" clip-rule="evenodd" d="M263.194 225.895L62.4322 341.805L10.4707 311.805L211.233 195.895L263.194 225.895Z" fill="#8BC5E4"/>
<path fill-rule="evenodd" clip-rule="evenodd" d="M56.69 338.41V162.85L4.72852 132.85V308.41L56.69 338.41Z" fill="#8BC5E4"/>
<path fill-rule="evenodd" clip-rule="evenodd" d="M62.4322 152.825L10.4707 122.825L62.4322 152.825Z" fill="#8BC5E4"/>
<path fill-rule="evenodd" clip-rule="evenodd" d="M90.7593 268.9C91.2963 270.79 92.119 273.145 93.2276 275.935L41.2661 245.935C40.1576 243.145 39.3348 240.79 38.7979 238.9L90.7593 268.9Z" fill="#8BC5E4"/>
<path fill-rule="evenodd" clip-rule="evenodd" d="M88.8717 277.78C89.6771 274.735 90.3093 271.78 90.7596 268.9L38.7981 238.9C38.3478 241.78 37.7156 244.735 36.9102 247.78L88.8717 277.78Z" fill="#8BC5E4"/>
<path fill-rule="evenodd" clip-rule="evenodd" d="M234.659 79.37C237.404 77.785 239.396 76.915 240.643 76.745L188.681 46.745C187.434 46.915 185.443 47.785 182.697 49.37L234.659 79.37Z" fill="#8BC5E4"/>
<path fill-rule="evenodd" clip-rule="evenodd" d="M240.643 76.745C241.653 76.619 242.567 76.809 243.392 77.312L191.431 47.312C190.606 46.809 189.692 46.619 188.682 46.745L240.643 76.745Z" fill="#8BC5E4"/>
<path fill-rule="evenodd" clip-rule="evenodd" d="M243.39 77.31C243.972 77.665 244.51 78.175 245.004 78.84L193.043 48.84C192.549 48.175 192.011 47.665 191.429 47.31L243.39 77.31Z" fill="#8BC5E4"/>
<path fill-rule="evenodd" clip-rule="evenodd" d="M245.007 78.845C246.211 80.43 246.817 83.35 246.817 87.63L194.856 57.63C194.856 53.35 194.25 50.43 193.046 48.845L245.007 78.845Z" fill="#8BC5E4"/>
<path fill-rule="evenodd" clip-rule="evenodd" d="M246.818 87.63C246.818 90.7 246.506 93.51 245.891 96.035L193.93 66.035C194.545 63.51 194.856 60.7 194.856 57.63L246.818 87.63Z" fill="#8BC5E4"/>
<path fill-rule="evenodd" clip-rule="evenodd" d="M245.891 96.035C245.285 98.535 244.436 100.735 243.336 102.65L191.375 72.65C192.475 70.735 193.323 68.535 193.93 66.035L245.891 96.035Z" fill="#8BC5E4"/>
<path fill-rule="evenodd" clip-rule="evenodd" d="M243.337 102.65C242.557 104.01 241.509 105.325 240.193 106.585L188.231 76.585C189.548 75.325 190.596 74.01 191.375 72.65L243.337 102.65Z" fill="#8BC5E4"/>
<path fill-rule="evenodd" clip-rule="evenodd" d="M240.192 106.585C238.885 107.84 237.083 109.13 234.771 110.465L182.81 80.465C185.122 79.13 186.923 77.84 188.231 76.585L240.192 106.585Z" fill="#8BC5E4"/>
<path fill-rule="evenodd" clip-rule="evenodd" d="M235.299 114.98C237.412 113.76 239.283 112.45 240.911 111.04L188.95 81.04C187.322 82.45 185.451 83.76 183.338 84.98L235.299 114.98Z" fill="#8BC5E4"/>
<path fill-rule="evenodd" clip-rule="evenodd" d="M240.912 111.04C242.54 109.64 243.934 108.155 245.077 106.615L193.116 76.615C191.973 78.155 190.578 79.64 188.95 81.04L240.912 111.04Z" fill="#8BC5E4"/>
<path fill-rule="evenodd" clip-rule="evenodd" d="M245.077 106.615C246.237 105.025 247.302 103.18 248.281 101.045L196.32 71.045C195.341 73.18 194.276 75.025 193.115 76.615L245.077 106.615Z" fill="#8BC5E4"/>
<path fill-rule="evenodd" clip-rule="evenodd" d="M248.281 101.045C249.242 98.92 250.039 96.48 250.662 93.72L198.701 63.72C198.077 66.48 197.281 68.92 196.319 71.045L248.281 101.045Z" fill="#8BC5E4"/>
<path fill-rule="evenodd" clip-rule="evenodd" d="M250.663 93.72C251.278 90.975 251.589 88.055 251.589 84.955L199.628 54.955C199.628 58.055 199.316 60.975 198.701 63.72L250.663 93.72Z" fill="#8BC5E4"/>
<path fill-rule="evenodd" clip-rule="evenodd" d="M251.589 84.955C251.589 81.315 251.13 78.35 250.204 76.075L198.242 46.075C199.169 48.35 199.628 51.315 199.628 54.955L251.589 84.955Z" fill="#8BC5E4"/>
<path fill-rule="evenodd" clip-rule="evenodd" d="M250.204 76.075C249.419 74.045 248.273 72.627 246.772 71.789L194.811 41.789C196.312 42.627 197.458 44.045 198.242 46.075L250.204 76.075Z" fill="#8BC5E4"/>
<path fill-rule="evenodd" clip-rule="evenodd" d="M246.776 71.791C246.554 71.667 246.323 71.556 246.086 71.457L194.125 41.457C194.362 41.556 194.592 41.667 194.814 41.791L246.776 71.791Z" fill="#8BC5E4"/>
<path fill-rule="evenodd" clip-rule="evenodd" d="M246.082 71.455C244.67 70.87 242.955 70.89 240.955 71.505L188.993 41.505C190.994 40.89 192.708 40.87 194.12 41.455L246.082 71.455Z" fill="#8BC5E4"/>
<path fill-rule="evenodd" clip-rule="evenodd" d="M240.955 71.505C239.526 71.94 237.447 72.94 234.728 74.51L182.767 44.51C185.486 42.94 187.564 41.94 188.993 41.505L240.955 71.505Z" fill="#8BC5E4"/>
<path fill-rule="evenodd" clip-rule="evenodd" d="M62.4317 147.315C56.6727 150.64 51.9615 158.85 51.9615 165.58L0 135.58C0 128.85 4.7112 120.64 10.4702 117.315L62.4317 147.315Z" fill="#8BC5E4"/>
<path fill-rule="evenodd" clip-rule="evenodd" d="M51.9615 341.14C51.9615 344.643 53.2375 347.073 55.2745 348.129L3.313 318.129C1.276 317.073 0 314.643 0 311.14L51.9615 341.14Z" fill="#8BC5E4"/>
<path fill-rule="evenodd" clip-rule="evenodd" d="M55.2828 348.134C57.1558 349.101 59.6698 348.907 62.4238 347.32L10.4623 317.32C7.70829 318.907 5.19429 319.101 3.32129 318.134L55.2828 348.134Z" fill="#8BC5E4"/>
<path fill-rule="evenodd" clip-rule="evenodd" d="M263.194 231.405C268.944 228.085 273.664 219.87 273.664 213.14L221.703 183.14C221.703 189.87 216.983 198.085 211.232 201.405L263.194 231.405Z" fill="#8BC5E4"/>
<path fill-rule="evenodd" clip-rule="evenodd" d="M273.665 37.58C273.665 34.077 272.386 31.648 270.349 30.593L218.388 0.592972C220.425 1.64797 221.704 4.07697 221.703 7.57997L273.665 37.58Z" fill="#8BC5E4"/>
<path fill-rule="evenodd" clip-rule="evenodd" d="M270.34 30.588C268.466 29.622 265.953 29.815 263.203 31.4L211.241 1.39997C213.991 -0.185031 216.504 -0.378031 218.378 0.587969L270.34 30.588Z" fill="#8BC5E4"/>
<path fill-rule="evenodd" clip-rule="evenodd" d="M263.194 36.915C264.738 36.024 266.122 35.903 267.143 36.437L215.181 6.43697C214.16 5.90297 212.776 6.02397 211.232 6.91497L263.194 36.915Z" fill="#8BC5E4"/>
<path fill-rule="evenodd" clip-rule="evenodd" d="M267.142 36.437C268.246 37.013 268.926 38.353 268.927 40.309L216.966 10.309C216.965 8.35297 216.285 7.01297 215.181 6.43697L267.142 36.437Z" fill="#8BC5E4"/>
<path fill-rule="evenodd" clip-rule="evenodd" d="M268.927 215.875C268.927 219.645 266.407 224.04 263.194 225.895L211.232 195.895C214.445 194.04 216.966 189.645 216.966 185.875L268.927 215.875Z" fill="#8BC5E4"/>
<path fill-rule="evenodd" clip-rule="evenodd" d="M62.4324 341.805C60.8842 342.699 59.4981 342.82 58.4761 342.287L6.51465 312.287C7.53665 312.82 8.92265 312.699 10.4708 311.805L62.4324 341.805Z" fill="#8BC5E4"/>
<path fill-rule="evenodd" clip-rule="evenodd" d="M58.478 342.288C57.372 341.712 56.692 340.372 56.691 338.416L4.72949 308.416C4.73049 310.372 5.41049 311.712 6.51649 312.288L58.478 342.288Z" fill="#8BC5E4"/>
<path fill-rule="evenodd" clip-rule="evenodd" d="M56.69 162.85C56.69 159.08 59.2101 154.685 62.4317 152.825L10.4702 122.825C7.24862 124.685 4.72852 129.08 4.72852 132.85L56.69 162.85Z" fill="#8BC5E4"/>
<path d="M90.7599 268.9C91.2968 270.79 92.1195 273.145 93.228 275.935L96.8827 285.115L85.0268 291.96L88.8719 277.78C89.6773 274.735 90.3095 271.78 90.7599 268.9ZM88.3696 265.99L74.9376 314.545L79.8479 311.71L83.6931 297.13L98.3116 288.69L102.399 298.69L107.665 295.65L93.3579 263.11L88.3696 265.99ZM230.406 131.335L233.013 163.58L225.877 163.86L206.504 223.975L119.616 274.37L119.59 258.755L197.922 213.33L213.709 164.335L206.695 164.605L230.406 131.335ZM227.315 83.61L234.659 79.37C237.404 77.785 239.396 76.915 240.643 76.745C242.366 76.53 243.813 77.235 245.008 78.845C246.211 80.43 246.818 83.35 246.818 87.63C246.818 90.7 246.506 93.51 245.891 96.035C245.285 98.535 244.436 100.735 243.336 102.65C242.557 104.01 241.509 105.325 240.193 106.585C238.885 107.84 237.083 109.13 234.771 110.465L227.315 114.77V83.61ZM222.682 81.465V122.265L235.299 114.98C237.413 113.76 239.283 112.45 240.911 111.04C242.539 109.64 243.934 108.155 245.077 106.615C246.237 105.025 247.303 103.18 248.281 101.045C249.243 98.92 250.039 96.48 250.663 93.72C251.278 90.975 251.589 88.055 251.589 84.955C251.589 81.315 251.13 78.35 250.204 76.075C249.303 73.745 247.926 72.22 246.081 71.455C244.67 70.87 242.955 70.89 240.955 71.505C239.526 71.94 237.447 72.94 234.728 74.51L222.682 81.465ZM62.4322 147.315C56.6731 150.64 51.9619 158.85 51.9619 165.58V341.14C51.9619 347.87 56.6731 350.64 62.4322 347.315L263.194 231.405C268.945 228.085 273.664 219.87 273.664 213.14V37.58C273.664 30.85 268.945 28.085 263.194 31.405L62.4322 147.315ZM62.4322 152.825L263.194 36.915C266.407 35.06 268.927 36.545 268.927 40.315V215.875C268.927 219.645 266.407 224.04 263.194 225.895L62.4322 341.805C59.2105 343.665 56.6904 342.18 56.6904 338.41V162.85C56.6904 159.08 59.2105 154.685 62.4322 152.825Z" fill="#8BC5E4"/>
<path fill-rule="evenodd" clip-rule="evenodd" d="M62.4322 152.825L263.194 36.915C266.407 35.06 268.927 36.545 268.927 40.315V215.875C268.927 219.645 266.407 224.04 263.194 225.895L62.4322 341.805C59.2105 343.665 56.6904 342.18 56.6904 338.41V162.85C56.6904 159.08 59.2105 154.685 62.4322 152.825ZM74.9376 314.545L88.3696 265.99L93.3579 263.11L107.665 295.65L102.399 298.69L98.3116 288.69L83.6931 297.13L79.8479 311.71L74.9376 314.545ZM233.013 163.58L230.406 131.335L206.695 164.605L213.709 164.335L197.922 213.33L119.59 258.755L119.616 274.37L206.504 223.975L225.877 163.86L233.013 163.58ZM222.682 122.265V81.465L234.728 74.51C237.447 72.94 239.526 71.94 240.955 71.505C242.955 70.89 244.67 70.87 246.081 71.455C247.926 72.22 249.303 73.745 250.204 76.075C251.13 78.35 251.589 81.315 251.589 84.955C251.589 88.055 251.278 90.975 250.663 93.72C250.039 96.48 249.243 98.92 248.281 101.045C247.303 103.18 246.237 105.025 245.077 106.615C243.934 108.155 242.539 109.64 240.911 111.04C239.283 112.45 237.413 113.76 235.299 114.98L222.682 122.265Z" fill="white"/>
<path d="M227.315 83.61L234.659 79.37C237.404 77.785 239.396 76.915 240.643 76.745C242.366 76.53 243.813 77.235 245.008 78.845C246.211 80.43 246.818 83.35 246.818 87.63C246.818 90.7 246.506 93.51 245.891 96.035C245.285 98.535 244.436 100.735 243.336 102.65C242.557 104.01 241.509 105.325 240.193 106.585C238.885 107.84 237.083 109.13 234.771 110.465L227.315 114.77V83.61Z" fill="white"/>
<path d="M90.7599 268.9C91.2968 270.79 92.1195 273.145 93.228 275.935L96.8827 285.115L85.0268 291.96L88.8719 277.78C89.6773 274.735 90.3095 271.78 90.7599 268.9Z" fill="white"/>
</svg>
