<svg width="274" height="349" viewBox="0 0 274 349" fill="none" xmlns="http://www.w3.org/2000/svg">
<path fill-rule="evenodd" clip-rule="evenodd" d="M41.2656 195.587L44.9202 208.987L96.8818 178.987L93.2271 165.587L41.2656 195.587Z" fill="#8BC5E4"/>
<path fill-rule="evenodd" clip-rule="evenodd" d="M44.9203 208.987L33.0645 202.142L85.026 172.142L96.8819 178.987L44.9203 208.987Z" fill="#8BC5E4"/>
<path fill-rule="evenodd" clip-rule="evenodd" d="M33.0645 202.142L36.9096 192.402L88.8711 162.402L85.026 172.142L33.0645 202.142Z" fill="#8BC5E4"/>
<path fill-rule="evenodd" clip-rule="evenodd" d="M38.7979 185.702L90.7595 155.702L38.7979 185.702Z" fill="#8BC5E4"/>
<path fill-rule="evenodd" clip-rule="evenodd" d="M36.4076 180.032L22.9756 213.077L74.9371 183.077L88.3691 150.032L36.4076 180.032Z" fill="#8BC5E4"/>
<path fill-rule="evenodd" clip-rule="evenodd" d="M22.9756 213.077L27.8859 215.912L79.8474 185.912L74.9371 183.077L22.9756 213.077Z" fill="#8BC5E4"/>
<path fill-rule="evenodd" clip-rule="evenodd" d="M27.8857 215.912L31.7309 205.772L83.6924 175.772L79.8472 185.912L27.8857 215.912Z" fill="#8BC5E4"/>
<path fill-rule="evenodd" clip-rule="evenodd" d="M31.7314 205.772L46.3499 214.212L98.3114 184.212L83.6929 175.772L31.7314 205.772Z" fill="#8BC5E4"/>
<path fill-rule="evenodd" clip-rule="evenodd" d="M46.3496 214.212L50.4372 228.932L102.399 198.932L98.3111 184.212L46.3496 214.212Z" fill="#8BC5E4"/>
<path fill-rule="evenodd" clip-rule="evenodd" d="M50.4375 228.932L55.703 231.972L107.665 201.972L102.399 198.932L50.4375 228.932Z" fill="#8BC5E4"/>
<path fill-rule="evenodd" clip-rule="evenodd" d="M55.7033 231.972L41.3965 182.912L93.358 152.912L107.665 201.972L55.7033 231.972Z" fill="#8BC5E4"/>
<path fill-rule="evenodd" clip-rule="evenodd" d="M41.3955 182.912L36.4072 180.032L88.3687 150.032L93.357 152.912L41.3955 182.912Z" fill="#8BC5E4"/>
<path fill-rule="evenodd" clip-rule="evenodd" d="M36.4072 180.032L88.3687 150.032L36.4072 180.032Z" fill="#8BC5E4"/>
<path fill-rule="evenodd" clip-rule="evenodd" d="M178.444 209.387L181.051 244.642L233.013 214.642L230.406 179.387L178.444 209.387Z" fill="#8BC5E4"/>
<path fill-rule="evenodd" clip-rule="evenodd" d="M181.051 244.642L173.915 236.682L225.877 206.682L233.013 214.642L181.051 244.642Z" fill="#8BC5E4"/>
<path fill-rule="evenodd" clip-rule="evenodd" d="M173.915 236.682L154.542 274.427L206.504 244.427L225.877 206.682L173.915 236.682Z" fill="#8BC5E4"/>
<path fill-rule="evenodd" clip-rule="evenodd" d="M154.543 274.427L67.6543 224.492L119.616 194.492L206.504 244.427L154.543 274.427Z" fill="#8BC5E4"/>
<path fill-rule="evenodd" clip-rule="evenodd" d="M67.6539 224.492L67.6279 208.847L119.589 178.847L119.615 194.492L67.6539 224.492Z" fill="#8BC5E4"/>
<path fill-rule="evenodd" clip-rule="evenodd" d="M67.6279 208.847L145.96 253.872L197.921 223.872L119.589 178.847L67.6279 208.847Z" fill="#8BC5E4"/>
<path fill-rule="evenodd" clip-rule="evenodd" d="M145.96 253.872L161.748 223.107L213.709 193.107L197.921 223.872L145.96 253.872Z" fill="#8BC5E4"/>
<path fill-rule="evenodd" clip-rule="evenodd" d="M161.747 223.107L154.732 215.277L206.694 185.277L213.709 193.107L161.747 223.107Z" fill="#8BC5E4"/>
<path fill-rule="evenodd" clip-rule="evenodd" d="M154.732 215.277L178.444 209.387L230.406 179.387L206.694 185.277L154.732 215.277Z" fill="#8BC5E4"/>
<path fill-rule="evenodd" clip-rule="evenodd" d="M178.444 209.387L230.406 179.387L178.444 209.387Z" fill="#8BC5E4"/>
<path fill-rule="evenodd" clip-rule="evenodd" d="M175.353 158.092L182.696 162.332L234.658 132.332L227.314 128.092L175.353 158.092Z" fill="#8BC5E4"/>
<path fill-rule="evenodd" clip-rule="evenodd" d="M182.809 193.557L175.353 189.252L227.314 159.252L234.771 163.557L182.809 193.557Z" fill="#8BC5E4"/>
<path fill-rule="evenodd" clip-rule="evenodd" d="M175.353 189.252V158.092L227.314 128.092V159.252L175.353 189.252Z" fill="#8BC5E4"/>
<path fill-rule="evenodd" clip-rule="evenodd" d="M175.353 158.092L227.314 128.092L175.353 158.092Z" fill="#8BC5E4"/>
<path fill-rule="evenodd" clip-rule="evenodd" d="M170.72 150.597V191.397L222.681 161.397V120.597L170.72 150.597Z" fill="#8BC5E4"/>
<path fill-rule="evenodd" clip-rule="evenodd" d="M170.72 191.397L183.338 198.682L235.299 168.682L222.681 161.397L170.72 191.397Z" fill="#8BC5E4"/>
<path fill-rule="evenodd" clip-rule="evenodd" d="M182.766 157.552L170.72 150.597L222.681 120.597L234.728 127.552L182.766 157.552Z" fill="#8BC5E4"/>
<path fill-rule="evenodd" clip-rule="evenodd" d="M170.72 150.597L222.681 120.597L170.72 150.597Z" fill="#8BC5E4"/>
<path fill-rule="evenodd" clip-rule="evenodd" d="M0 37.5819V213.142L51.9615 183.142V7.58189L0 37.5819Z" fill="#8BC5E4"/>
<path fill-rule="evenodd" clip-rule="evenodd" d="M10.4697 231.407L211.232 347.317L263.193 317.317L62.4313 201.407L10.4697 231.407Z" fill="#8BC5E4"/>
<path fill-rule="evenodd" clip-rule="evenodd" d="M221.702 341.142V165.582L273.664 135.582V311.142L221.702 341.142Z" fill="#8BC5E4"/>
<path fill-rule="evenodd" clip-rule="evenodd" d="M211.232 147.317L10.4697 31.4069L62.4313 1.40688L263.193 117.317L211.232 147.317Z" fill="#8BC5E4"/>
<path fill-rule="evenodd" clip-rule="evenodd" d="M10.4697 31.4069L62.4313 1.40688L10.4697 31.4069Z" fill="#8BC5E4"/>
<path fill-rule="evenodd" clip-rule="evenodd" d="M10.4697 36.9169L211.232 152.827L263.193 122.827L62.4313 6.91689L10.4697 36.9169Z" fill="#8BC5E4"/>
<path fill-rule="evenodd" clip-rule="evenodd" d="M216.965 162.847V338.407L268.926 308.407V132.847L216.965 162.847Z" fill="#8BC5E4"/>
<path fill-rule="evenodd" clip-rule="evenodd" d="M211.232 341.807L10.4697 225.897L62.4313 195.897L263.193 311.807L211.232 341.807Z" fill="#8BC5E4"/>
<path fill-rule="evenodd" clip-rule="evenodd" d="M4.72852 215.872V40.3119L56.69 10.3119V185.872L4.72852 215.872Z" fill="#8BC5E4"/>
<path fill-rule="evenodd" clip-rule="evenodd" d="M10.4697 36.9169L62.4313 6.91689L10.4697 36.9169Z" fill="#8BC5E4"/>
<path fill-rule="evenodd" clip-rule="evenodd" d="M38.7979 185.702C39.3349 188.212 40.1576 191.517 41.2661 195.587L93.2276 165.587C92.119 161.517 91.2964 158.212 90.7595 155.702L38.7979 185.702Z" fill="#8BC5E4"/>
<path fill-rule="evenodd" clip-rule="evenodd" d="M36.9102 192.402C37.7156 190.287 38.3478 188.062 38.7981 185.702L90.7597 155.702C90.3093 158.062 89.6771 160.287 88.8717 162.402L36.9102 192.402Z" fill="#8BC5E4"/>
<path fill-rule="evenodd" clip-rule="evenodd" d="M182.696 162.332C185.442 163.917 187.433 165.347 188.681 166.617L240.642 136.617C239.395 135.347 237.403 133.917 234.658 132.332L182.696 162.332Z" fill="#8BC5E4"/>
<path fill-rule="evenodd" clip-rule="evenodd" d="M188.681 166.617C190.404 168.392 191.85 170.767 193.045 173.757L245.007 143.757C243.812 140.767 242.366 138.392 240.642 136.617L188.681 166.617Z" fill="#8BC5E4"/>
<path fill-rule="evenodd" clip-rule="evenodd" d="M193.046 173.757C194.25 176.732 194.856 180.352 194.856 184.632L246.817 154.632C246.817 150.352 246.211 146.732 245.007 143.757L193.046 173.757Z" fill="#8BC5E4"/>
<path fill-rule="evenodd" clip-rule="evenodd" d="M194.855 184.632C194.855 187.702 194.544 190.152 193.929 191.967L245.89 161.967C246.505 160.152 246.817 157.702 246.817 154.632L194.855 184.632Z" fill="#8BC5E4"/>
<path fill-rule="evenodd" clip-rule="evenodd" d="M193.929 191.967C193.38 193.598 192.631 194.753 191.677 195.435L243.638 165.435C244.592 164.753 245.341 163.598 245.89 161.967L193.929 191.967Z" fill="#8BC5E4"/>
<path fill-rule="evenodd" clip-rule="evenodd" d="M191.683 195.431C191.584 195.502 191.484 195.567 191.381 195.628L243.342 165.628C243.445 165.567 243.545 165.502 243.644 165.431L191.683 195.431Z" fill="#8BC5E4"/>
<path fill-rule="evenodd" clip-rule="evenodd" d="M191.375 195.632C191.301 195.675 191.226 195.715 191.148 195.752L243.11 165.752C243.188 165.715 243.263 165.675 243.336 165.632L191.375 195.632Z" fill="#8BC5E4"/>
<path fill-rule="evenodd" clip-rule="evenodd" d="M191.148 195.752C190.398 196.108 189.428 196.173 188.238 195.939L240.2 165.939C241.39 166.173 242.36 166.108 243.11 165.752L191.148 195.752Z" fill="#8BC5E4"/>
<path fill-rule="evenodd" clip-rule="evenodd" d="M188.231 195.937C186.923 195.682 185.122 194.892 182.81 193.557L234.771 163.557C237.083 164.892 238.885 165.682 240.192 165.937L188.231 195.937Z" fill="#8BC5E4"/>
<path fill-rule="evenodd" clip-rule="evenodd" d="M183.338 198.682C185.451 199.902 187.322 200.752 188.95 201.222L240.911 171.222C239.283 170.752 237.412 169.902 235.299 168.682L183.338 198.682Z" fill="#8BC5E4"/>
<path fill-rule="evenodd" clip-rule="evenodd" d="M188.949 201.222C190.577 201.702 191.972 201.827 193.115 201.607L245.076 171.607C243.933 171.827 242.539 171.702 240.911 171.222L188.949 201.222Z" fill="#8BC5E4"/>
<path fill-rule="evenodd" clip-rule="evenodd" d="M193.115 201.607C193.695 201.482 194.252 201.266 194.785 200.955L246.747 170.955C246.214 171.266 245.657 171.482 245.077 171.607L193.115 201.607Z" fill="#8BC5E4"/>
<path fill-rule="evenodd" clip-rule="evenodd" d="M194.795 200.949C195.323 200.641 195.829 200.24 196.314 199.743L248.275 169.743C247.79 170.24 247.284 170.641 246.756 170.949L194.795 200.949Z" fill="#8BC5E4"/>
<path fill-rule="evenodd" clip-rule="evenodd" d="M196.319 199.737C197.281 198.722 198.077 197.202 198.701 195.162L250.662 165.162C250.039 167.202 249.242 168.722 248.281 169.737L196.319 199.737Z" fill="#8BC5E4"/>
<path fill-rule="evenodd" clip-rule="evenodd" d="M198.701 195.162C199.316 193.127 199.628 190.567 199.628 187.467L251.589 157.467C251.589 160.567 251.278 163.127 250.663 165.162L198.701 195.162Z" fill="#8BC5E4"/>
<path fill-rule="evenodd" clip-rule="evenodd" d="M199.628 187.467C199.628 183.827 199.169 180.332 198.242 176.987L250.204 146.987C251.13 150.332 251.589 153.827 251.589 157.467L199.628 187.467Z" fill="#8BC5E4"/>
<path fill-rule="evenodd" clip-rule="evenodd" d="M198.241 176.987C197.341 173.617 195.964 170.502 194.119 167.607L246.081 137.607C247.925 140.502 249.302 143.617 250.203 146.987L198.241 176.987Z" fill="#8BC5E4"/>
<path fill-rule="evenodd" clip-rule="evenodd" d="M194.12 167.607C192.708 165.392 190.994 163.432 188.993 161.737L240.955 131.737C242.955 133.432 244.67 135.392 246.082 137.607L194.12 167.607Z" fill="#8BC5E4"/>
<path fill-rule="evenodd" clip-rule="evenodd" d="M188.992 161.737C187.563 160.522 185.485 159.122 182.766 157.552L234.727 127.552C237.446 129.122 239.525 130.522 240.954 131.737L188.992 161.737Z" fill="#8BC5E4"/>
<path fill-rule="evenodd" clip-rule="evenodd" d="M10.4707 31.4069C7.70948 29.8129 5.18848 29.6199 3.31348 30.5929L55.275 0.592884C57.15 -0.380116 59.671 -0.187116 62.4323 1.40688L10.4707 31.4069Z" fill="#8BC5E4"/>
<path fill-rule="evenodd" clip-rule="evenodd" d="M3.315 30.5909C1.28 31.6459 0.003 34.0729 0 37.5719L51.9615 7.57189C51.9645 4.07289 53.2415 1.64589 55.2765 0.590889L3.315 30.5909Z" fill="#8BC5E4"/>
<path fill-rule="evenodd" clip-rule="evenodd" d="M0 213.142C0 219.872 4.7112 228.082 10.4702 231.407L62.4318 201.407C56.6727 198.082 51.9615 189.872 51.9615 183.142L0 213.142Z" fill="#8BC5E4"/>
<path fill-rule="evenodd" clip-rule="evenodd" d="M211.232 347.317C213.99 348.909 216.51 349.102 218.387 348.129L270.349 318.129C268.472 319.102 265.952 318.909 263.194 317.317L211.232 347.317Z" fill="#8BC5E4"/>
<path fill-rule="evenodd" clip-rule="evenodd" d="M218.384 348.131C220.421 347.077 221.7 344.651 221.702 341.152L273.663 311.152C273.661 314.651 272.382 317.077 270.345 318.131L218.384 348.131Z" fill="#8BC5E4"/>
<path fill-rule="evenodd" clip-rule="evenodd" d="M221.703 165.582C221.703 158.852 216.983 150.637 211.232 147.317L263.194 117.317C268.944 120.637 273.664 128.852 273.664 135.582L221.703 165.582Z" fill="#8BC5E4"/>
<path fill-rule="evenodd" clip-rule="evenodd" d="M211.232 152.827C214.445 154.682 216.965 159.077 216.965 162.847L268.927 132.847C268.927 129.077 266.407 124.682 263.194 122.827L211.232 152.827Z" fill="#8BC5E4"/>
<path fill-rule="evenodd" clip-rule="evenodd" d="M216.965 338.407C216.965 340.366 216.285 341.708 215.181 342.285L267.142 312.285C268.246 311.708 268.926 310.366 268.927 308.407L216.965 338.407Z" fill="#8BC5E4"/>
<path fill-rule="evenodd" clip-rule="evenodd" d="M215.183 342.284C214.162 342.818 212.78 342.699 211.237 341.81L263.199 311.81C264.742 312.699 266.124 312.818 267.145 312.284L215.183 342.284Z" fill="#8BC5E4"/>
<path fill-rule="evenodd" clip-rule="evenodd" d="M10.4702 225.897C7.24862 224.037 4.72852 219.642 4.72852 215.872L56.69 185.872C56.69 189.642 59.2102 194.037 62.4318 195.897L10.4702 225.897Z" fill="#8BC5E4"/>
<path fill-rule="evenodd" clip-rule="evenodd" d="M4.72852 40.3119C4.72802 38.3529 5.40902 37.0109 6.51402 36.4349L58.4755 6.43488C57.3705 7.01088 56.6895 8.35288 56.69 10.3119L4.72852 40.3119Z" fill="#8BC5E4"/>
<path fill-rule="evenodd" clip-rule="evenodd" d="M6.51172 36.4359C7.53372 35.9019 8.91872 36.0219 10.4657 36.9139L62.4272 6.91388C60.8802 6.02188 59.4952 5.90188 58.4732 6.43588L6.51172 36.4359Z" fill="#8BC5E4"/>
<path d="M38.7979 185.702C39.3349 188.212 40.1576 191.517 41.2661 195.587L44.9207 208.987L33.0648 202.142L36.91 192.402C37.7154 190.287 38.3476 188.062 38.7979 185.702ZM36.4077 180.032L22.9757 213.077L27.886 215.912L31.7312 205.772L46.3497 214.212L50.4373 228.932L55.7028 231.972L41.396 182.912L36.4077 180.032ZM178.445 209.387L181.051 244.642L173.915 236.682L154.542 274.427L67.6539 224.492L67.6279 208.847L145.96 253.872L161.748 223.107L154.733 215.277L178.445 209.387ZM175.353 158.092L182.697 162.332C185.442 163.917 187.434 165.347 188.681 166.617C190.404 168.392 191.851 170.767 193.046 173.757C194.25 176.732 194.856 180.352 194.856 184.632C194.856 187.702 194.544 190.152 193.929 191.967C193.323 193.767 192.474 194.987 191.374 195.632C190.595 196.092 189.547 196.197 188.231 195.937C186.923 195.682 185.122 194.892 182.809 193.557L175.353 189.252V158.092ZM170.72 150.597V191.397L183.338 198.682C185.451 199.902 187.321 200.752 188.949 201.222C190.578 201.702 191.972 201.827 193.115 201.607C194.275 201.357 195.341 200.742 196.319 199.737C197.281 198.722 198.077 197.202 198.701 195.162C199.316 193.127 199.628 190.567 199.628 187.467C199.628 183.827 199.169 180.332 198.242 176.987C197.341 173.617 195.964 170.502 194.12 167.607C192.708 165.392 190.993 163.432 188.993 161.737C187.564 160.522 185.485 159.122 182.766 157.552L170.72 150.597ZM10.4702 31.4069C4.71118 28.0819 0 30.8519 0 37.5819V213.142C0 219.872 4.71118 228.082 10.4702 231.407L211.232 347.317C216.983 350.637 221.702 347.872 221.702 341.142V165.582C221.702 158.852 216.983 150.637 211.232 147.317L10.4702 31.4069ZM10.4702 36.9169L211.232 152.827C214.445 154.682 216.965 159.077 216.965 162.847V338.407C216.965 342.177 214.445 343.662 211.232 341.807L10.4702 225.897C7.24863 224.037 4.7285 219.642 4.7285 215.872V40.3119C4.7285 36.5419 7.24863 35.0569 10.4702 36.9169Z" fill="#8BC5E4"/>
<path fill-rule="evenodd" clip-rule="evenodd" d="M10.4702 36.9169L211.232 152.827C214.445 154.682 216.965 159.077 216.965 162.847V338.407C216.965 342.177 214.445 343.662 211.232 341.807L10.4702 225.897C7.24863 224.037 4.7285 219.642 4.7285 215.872V40.3119C4.7285 36.5419 7.24863 35.0569 10.4702 36.9169ZM22.9757 213.077L36.4077 180.032L41.396 182.912L55.7028 231.972L50.4373 228.932L46.3497 214.212L31.7312 205.772L27.886 215.912L22.9757 213.077ZM181.051 244.642L178.445 209.387L154.733 215.277L161.748 223.107L145.96 253.872L67.6279 208.847L67.6539 224.492L154.542 274.427L173.915 236.682L181.051 244.642ZM170.72 191.397V150.597L182.766 157.552C185.485 159.122 187.564 160.522 188.993 161.737C190.993 163.432 192.708 165.392 194.12 167.607C195.964 170.502 197.341 173.617 198.242 176.987C199.169 180.332 199.628 183.827 199.628 187.467C199.628 190.567 199.316 193.127 198.701 195.162C198.077 197.202 197.281 198.722 196.319 199.737C195.341 200.742 194.275 201.357 193.115 201.607C191.972 201.827 190.578 201.702 188.949 201.222C187.321 200.752 185.451 199.902 183.338 198.682L170.72 191.397Z" fill="white"/>
<path d="M38.7979 185.702C39.3349 188.212 40.1576 191.517 41.2661 195.587L44.9207 208.987L33.0648 202.142L36.91 192.402C37.7154 190.287 38.3476 188.062 38.7979 185.702Z" fill="white"/>
<path d="M175.353 158.092L182.697 162.332C185.442 163.917 187.434 165.347 188.681 166.617C190.404 168.392 191.851 170.767 193.046 173.757C194.25 176.732 194.856 180.352 194.856 184.632C194.856 187.702 194.544 190.152 193.929 191.967C193.323 193.767 192.474 194.987 191.374 195.632C190.595 196.092 189.547 196.197 188.231 195.937C186.923 195.682 185.122 194.892 182.809 193.557L175.353 189.252V158.092Z" fill="white"/>
</svg>
