<svg width="366" height="367" viewBox="0 0 366 367" fill="none" xmlns="http://www.w3.org/2000/svg">
<path fill-rule="evenodd" clip-rule="evenodd" d="M107.366 190.212V242.612L55.4043 212.612V160.212L107.366 190.212Z" fill="#8BC5E4" stroke="#8BC5E4"/>
<path fill-rule="evenodd" clip-rule="evenodd" d="M107.366 242.612L90.8072 252.172L38.8457 222.172L55.4041 212.612L107.366 242.612Z" fill="#8BC5E4" stroke="#8BC5E4"/>
<path fill-rule="evenodd" clip-rule="evenodd" d="M90.8068 252.172L52.9615 247.602L1 217.602L38.8453 222.172L90.8068 252.172Z" fill="#8BC5E4" stroke="#8BC5E4"/>
<path fill-rule="evenodd" clip-rule="evenodd" d="M52.9615 247.602V361.122L1 331.122V217.602L52.9615 247.602Z" fill="#8BC5E4" stroke="#8BC5E4"/>
<path fill-rule="evenodd" clip-rule="evenodd" d="M52.9615 361.122L91.6555 312.362L39.694 282.362L1 331.122L52.9615 361.122Z" fill="#8BC5E4" stroke="#8BC5E4"/>
<path fill-rule="evenodd" clip-rule="evenodd" d="M91.6558 312.362L107.366 303.292L55.404 273.292L39.6943 282.362L91.6558 312.362Z" fill="#8BC5E4" stroke="#8BC5E4"/>
<path fill-rule="evenodd" clip-rule="evenodd" d="M107.366 303.292V355.692L55.4043 325.692V273.292L107.366 303.292Z" fill="#8BC5E4" stroke="#8BC5E4"/>
<path fill-rule="evenodd" clip-rule="evenodd" d="M122.418 364.262L349.68 233.052L297.718 203.052L70.4561 334.262L122.418 364.262Z" fill="#8BC5E4" stroke="#8BC5E4"/>
<path fill-rule="evenodd" clip-rule="evenodd" d="M364.731 207.102V41.6221L312.77 11.6221V177.102L364.731 207.102Z" fill="#8BC5E4" stroke="#8BC5E4"/>
<path fill-rule="evenodd" clip-rule="evenodd" d="M349.68 33.052L122.418 164.262L70.4561 134.262L297.718 3.052L349.68 33.052Z" fill="#8BC5E4" stroke="#8BC5E4"/>
<path fill-rule="evenodd" clip-rule="evenodd" d="M122.418 164.262V164.262L70.4561 134.262V134.262L122.418 164.262Z" fill="#8BC5E4"/>
<path d="M122.418 164.262V164.262ZM122.418 164.262L70.4561 134.262M70.4561 134.262V134.262Z" stroke="#8BC5E4"/>
<path fill-rule="evenodd" clip-rule="evenodd" d="M122.418 172.152L349.68 40.942L297.718 10.942L70.4561 142.152L122.418 172.152Z" fill="#8BC5E4" stroke="#8BC5E4"/>
<path fill-rule="evenodd" clip-rule="evenodd" d="M357.846 45.597V211.077L305.885 181.077V15.597L357.846 45.597Z" fill="#8BC5E4" stroke="#8BC5E4"/>
<path fill-rule="evenodd" clip-rule="evenodd" d="M349.68 225.162L122.418 356.372L70.4561 326.372L297.718 195.162L349.68 225.162Z" fill="#8BC5E4" stroke="#8BC5E4"/>
<path fill-rule="evenodd" clip-rule="evenodd" d="M114.242 351.722V186.242L62.2803 156.242V321.722L114.242 351.722Z" fill="#8BC5E4" stroke="#8BC5E4"/>
<path fill-rule="evenodd" clip-rule="evenodd" d="M122.418 172.152V172.152L70.4561 142.152V142.152L122.418 172.152Z" fill="#8BC5E4"/>
<path d="M122.418 172.152V172.152ZM122.418 172.152L70.4561 142.152M70.4561 142.152V142.152Z" stroke="#8BC5E4"/>
<path fill-rule="evenodd" clip-rule="evenodd" d="M122.418 172.152L349.68 40.942L297.718 10.942L70.4561 142.152L122.418 172.152Z" fill="#8BC5E4" stroke="#8BC5E4"/>
<path fill-rule="evenodd" clip-rule="evenodd" d="M357.846 45.597V211.077L305.885 181.077V15.597L357.846 45.597Z" fill="#8BC5E4" stroke="#8BC5E4"/>
<path fill-rule="evenodd" clip-rule="evenodd" d="M349.68 225.162L122.418 356.372L70.4561 326.372L297.718 195.162L349.68 225.162Z" fill="#8BC5E4" stroke="#8BC5E4"/>
<path fill-rule="evenodd" clip-rule="evenodd" d="M114.242 351.722V186.242L62.2803 156.242V321.722L114.242 351.722Z" fill="#8BC5E4" stroke="#8BC5E4"/>
<path fill-rule="evenodd" clip-rule="evenodd" d="M122.418 172.152V172.152L70.4561 142.152V142.152L122.418 172.152Z" fill="#8BC5E4"/>
<path d="M122.418 172.152V172.152ZM122.418 172.152L70.4561 142.152M70.4561 142.152V142.152Z" stroke="#8BC5E4"/>
<path fill-rule="evenodd" clip-rule="evenodd" d="M122.417 164.262C114.138 169.042 107.366 180.722 107.366 190.212L55.4043 160.212C55.4043 150.722 62.1766 139.042 70.4558 134.262L122.417 164.262Z" fill="#8BC5E4" stroke="#8BC5E4"/>
<path fill-rule="evenodd" clip-rule="evenodd" d="M107.366 355.692C107.366 360.233 108.916 363.485 111.441 365.118L59.4796 335.118C56.9546 333.485 55.4046 330.233 55.4043 325.692L107.366 355.692Z" fill="#8BC5E4" stroke="#8BC5E4"/>
<path fill-rule="evenodd" clip-rule="evenodd" d="M111.439 365.117C114.189 366.897 118.095 366.756 122.411 364.266L70.4495 334.266C66.1335 336.756 62.2275 336.897 59.4775 335.117L111.439 365.117Z" fill="#8BC5E4" stroke="#8BC5E4"/>
<path fill-rule="evenodd" clip-rule="evenodd" d="M349.679 233.052C357.958 228.272 364.731 216.592 364.731 207.102L312.769 177.102C312.769 186.592 305.997 198.272 297.718 203.052L349.679 233.052Z" fill="#8BC5E4" stroke="#8BC5E4"/>
<path fill-rule="evenodd" clip-rule="evenodd" d="M364.731 41.622C364.731 37.081 363.18 33.829 360.656 32.196L308.694 2.19604C311.218 3.82904 312.769 7.08104 312.769 11.622L364.731 41.622Z" fill="#8BC5E4" stroke="#8BC5E4"/>
<path fill-rule="evenodd" clip-rule="evenodd" d="M360.658 32.197C357.908 30.417 354.002 30.559 349.686 33.049L297.725 3.04903C302.041 0.559027 305.947 0.417028 308.697 2.19703L360.658 32.197Z" fill="#8BC5E4" stroke="#8BC5E4"/>
<path fill-rule="evenodd" clip-rule="evenodd" d="M349.679 40.942C352.069 39.563 354.187 39.457 355.667 40.418L303.705 10.418C302.225 9.45702 300.107 9.56302 297.718 10.942L349.679 40.942Z" fill="#8BC5E4" stroke="#8BC5E4"/>
<path fill-rule="evenodd" clip-rule="evenodd" d="M355.682 40.428C357.03 41.312 357.845 43.085 357.846 45.589L305.885 15.589C305.884 13.085 305.069 11.312 303.721 10.428L355.682 40.428Z" fill="#8BC5E4" stroke="#8BC5E4"/>
<path fill-rule="evenodd" clip-rule="evenodd" d="M357.846 211.077C357.846 216.337 354.261 222.517 349.679 225.162L297.718 195.162C302.299 192.517 305.884 186.337 305.884 181.077L357.846 211.077Z" fill="#8BC5E4" stroke="#8BC5E4"/>
<path fill-rule="evenodd" clip-rule="evenodd" d="M122.418 356.372C120.028 357.751 117.908 357.858 116.425 356.898L64.4639 326.898C65.9469 327.858 68.0669 327.751 70.4561 326.372L122.418 356.372Z" fill="#8BC5E4" stroke="#8BC5E4"/>
<path fill-rule="evenodd" clip-rule="evenodd" d="M116.427 356.9C115.067 356.02 114.243 354.244 114.242 351.73L62.2803 321.73C62.2813 324.244 63.1053 326.02 64.4653 326.9L116.427 356.9Z" fill="#8BC5E4" stroke="#8BC5E4"/>
<path fill-rule="evenodd" clip-rule="evenodd" d="M114.242 186.242C114.242 180.982 117.836 174.797 122.417 172.152L70.4556 142.152C65.8743 144.797 62.2803 150.982 62.2803 156.242L114.242 186.242Z" fill="#8BC5E4" stroke="#8BC5E4"/>
<path fill-rule="evenodd" clip-rule="evenodd" d="M349.679 40.942C352.069 39.563 354.187 39.457 355.667 40.418L303.705 10.418C302.225 9.45702 300.107 9.56302 297.718 10.942L349.679 40.942Z" fill="#8BC5E4" stroke="#8BC5E4"/>
<path fill-rule="evenodd" clip-rule="evenodd" d="M355.682 40.428C357.03 41.312 357.845 43.085 357.846 45.589L305.885 15.589C305.884 13.085 305.069 11.312 303.721 10.428L355.682 40.428Z" fill="#8BC5E4" stroke="#8BC5E4"/>
<path fill-rule="evenodd" clip-rule="evenodd" d="M357.846 211.077C357.846 216.337 354.261 222.517 349.679 225.162L297.718 195.162C302.299 192.517 305.884 186.337 305.884 181.077L357.846 211.077Z" fill="#8BC5E4" stroke="#8BC5E4"/>
<path fill-rule="evenodd" clip-rule="evenodd" d="M122.418 356.372C120.028 357.751 117.908 357.858 116.425 356.898L64.4639 326.898C65.9469 327.858 68.0669 327.751 70.4561 326.372L122.418 356.372Z" fill="#8BC5E4" stroke="#8BC5E4"/>
<path fill-rule="evenodd" clip-rule="evenodd" d="M116.427 356.9C115.067 356.02 114.243 354.244 114.242 351.73L62.2803 321.73C62.2813 324.244 63.1053 326.02 64.4653 326.9L116.427 356.9Z" fill="#8BC5E4" stroke="#8BC5E4"/>
<path fill-rule="evenodd" clip-rule="evenodd" d="M114.242 186.242C114.242 180.982 117.836 174.797 122.417 172.152L70.4556 142.152C65.8743 144.797 62.2803 150.982 62.2803 156.242L114.242 186.242Z" fill="#8BC5E4" stroke="#8BC5E4"/>
<path fill-rule="evenodd" clip-rule="evenodd" d="M349.68 40.9421L122.417 172.152C117.836 174.797 114.242 180.982 114.242 186.242V351.722C114.242 356.982 117.836 359.017 122.417 356.372L349.68 225.162C354.261 222.517 357.846 216.337 357.846 211.077V45.5971C357.846 40.3371 354.261 38.2971 349.68 40.9421Z" fill="white"/>
<path fill-rule="evenodd" clip-rule="evenodd" d="M107.366 190.212C107.366 180.722 114.138 169.042 122.417 164.262L349.68 33.0521C357.959 28.2721 364.731 32.1321 364.731 41.6221V207.102C364.731 216.592 357.959 228.272 349.68 233.052L122.417 364.262C114.138 369.042 107.366 365.182 107.366 355.692V303.292V242.612V190.212ZM122.417 172.152L349.68 40.9421C354.261 38.2971 357.846 40.3371 357.846 45.5971V211.077C357.846 216.337 354.261 222.517 349.68 225.162L122.417 356.372C117.836 359.017 114.242 356.982 114.242 351.722V186.242C114.242 180.982 117.836 174.797 122.417 172.152Z" fill="#8BC5E4"/>
<path d="M107.366 242.612L90.8072 252.172L52.9619 247.602V361.122L91.6559 312.362L107.366 303.292V242.612Z" fill="white"/>
<path d="M107.366 242.612V190.212C107.366 180.722 114.138 169.042 122.417 164.262L349.68 33.0521C357.959 28.2721 364.731 32.1321 364.731 41.6221V207.102C364.731 216.592 357.959 228.272 349.68 233.052L122.417 364.262C114.138 369.042 107.366 365.182 107.366 355.692V303.292M107.366 242.612L90.8072 252.172L52.9619 247.602V361.122L91.6559 312.362L107.366 303.292M107.366 242.612V303.292M122.417 172.152L349.68 40.9421C354.261 38.2971 357.846 40.3371 357.846 45.5971V211.077C357.846 216.337 354.261 222.517 349.68 225.162L122.417 356.372C117.836 359.017 114.242 356.982 114.242 351.722V186.242C114.242 180.982 117.836 174.797 122.417 172.152Z" stroke="#8BC5E4"/>
</svg>
