<svg width="226" height="254" viewBox="0 0 226 254" fill="none" xmlns="http://www.w3.org/2000/svg">
<path fill-rule="evenodd" clip-rule="evenodd" d="M83.6494 56.8652V85.8352L135.611 55.8352V26.8652L83.6494 56.8652Z" fill="#8BC5E4"/>
<path fill-rule="evenodd" clip-rule="evenodd" d="M83.6494 85.8352L89.7982 89.3852L141.76 59.3852L135.611 55.8352L83.6494 85.8352Z" fill="#8BC5E4"/>
<path fill-rule="evenodd" clip-rule="evenodd" d="M89.7979 89.3852V60.4152L141.759 30.4152V59.3852L89.7979 89.3852Z" fill="#8BC5E4"/>
<path fill-rule="evenodd" clip-rule="evenodd" d="M89.7982 60.4152L83.6494 56.8652L135.611 26.8652L141.76 30.4152L89.7982 60.4152Z" fill="#8BC5E4"/>
<path fill-rule="evenodd" clip-rule="evenodd" d="M83.6494 56.8652L135.611 26.8652L83.6494 56.8652Z" fill="#8BC5E4"/>
<path fill-rule="evenodd" clip-rule="evenodd" d="M49.277 72.1602L46.9648 73.4152L98.9263 43.4152L101.239 42.1602L49.277 72.1602Z" fill="#8BC5E4"/>
<path fill-rule="evenodd" clip-rule="evenodd" d="M46.9648 73.4152L70.1396 121.915L122.101 91.9152L98.9263 43.4152L46.9648 73.4152Z" fill="#8BC5E4"/>
<path fill-rule="evenodd" clip-rule="evenodd" d="M104.572 150.655L157.287 147.22L209.249 117.22L156.534 120.655L104.572 150.655Z" fill="#8BC5E4"/>
<path fill-rule="evenodd" clip-rule="evenodd" d="M157.287 147.22L155.581 142.835L207.543 112.835L209.249 117.22L157.287 147.22Z" fill="#8BC5E4"/>
<path fill-rule="evenodd" clip-rule="evenodd" d="M155.581 142.835L97.2109 128.545L149.172 98.5452L207.543 112.835L155.581 142.835Z" fill="#8BC5E4"/>
<path fill-rule="evenodd" clip-rule="evenodd" d="M77.9679 116.145L49.2764 72.1602L101.238 42.1602L129.929 86.1452L77.9679 116.145Z" fill="#8BC5E4"/>
<path fill-rule="evenodd" clip-rule="evenodd" d="M49.2764 72.1602L101.238 42.1602L49.2764 72.1602Z" fill="#8BC5E4"/>
<path fill-rule="evenodd" clip-rule="evenodd" d="M86.7236 125.64L138.685 95.6402L86.7236 125.64Z" fill="#8BC5E4"/>
<path fill-rule="evenodd" clip-rule="evenodd" d="M16.9658 95.3552V102.465L68.9274 72.4652V65.3552L16.9658 95.3552Z" fill="#8BC5E4"/>
<path fill-rule="evenodd" clip-rule="evenodd" d="M16.9658 102.465L42.0546 116.95L94.0161 86.9502L68.9274 72.4652L16.9658 102.465Z" fill="#8BC5E4"/>
<path fill-rule="evenodd" clip-rule="evenodd" d="M42.0537 116.95V109.84L94.0152 79.8402V86.9502L42.0537 116.95Z" fill="#8BC5E4"/>
<path fill-rule="evenodd" clip-rule="evenodd" d="M42.0546 109.84L16.9658 95.3552L68.9274 65.3552L94.0161 79.8402L42.0546 109.84Z" fill="#8BC5E4"/>
<path fill-rule="evenodd" clip-rule="evenodd" d="M16.9658 95.3552L68.9274 65.3552L16.9658 95.3552Z" fill="#8BC5E4"/>
<path fill-rule="evenodd" clip-rule="evenodd" d="M131.394 161.42V168.53L183.355 138.53V131.42L131.394 161.42Z" fill="#8BC5E4"/>
<path fill-rule="evenodd" clip-rule="evenodd" d="M131.394 168.53L156.482 183.015L208.444 153.015L183.355 138.53L131.394 168.53Z" fill="#8BC5E4"/>
<path fill-rule="evenodd" clip-rule="evenodd" d="M156.482 183.015V175.905L208.444 145.905V153.015L156.482 183.015Z" fill="#8BC5E4"/>
<path fill-rule="evenodd" clip-rule="evenodd" d="M156.482 175.905L131.394 161.42L183.355 131.42L208.444 145.905L156.482 175.905Z" fill="#8BC5E4"/>
<path fill-rule="evenodd" clip-rule="evenodd" d="M131.394 161.42L183.355 131.42L131.394 161.42Z" fill="#8BC5E4"/>
<path fill-rule="evenodd" clip-rule="evenodd" d="M83.6494 188.995V217.965L135.611 187.965V158.995L83.6494 188.995Z" fill="#8BC5E4"/>
<path fill-rule="evenodd" clip-rule="evenodd" d="M83.6494 217.965L89.7982 221.515L141.76 191.515L135.611 187.965L83.6494 217.965Z" fill="#8BC5E4"/>
<path fill-rule="evenodd" clip-rule="evenodd" d="M89.7979 221.515V192.545L141.759 162.545V191.515L89.7979 221.515Z" fill="#8BC5E4"/>
<path fill-rule="evenodd" clip-rule="evenodd" d="M89.7982 192.545L83.6494 188.995L135.611 158.995L141.76 162.545L89.7982 192.545Z" fill="#8BC5E4"/>
<path fill-rule="evenodd" clip-rule="evenodd" d="M83.6494 188.995L135.611 158.995L83.6494 188.995Z" fill="#8BC5E4"/>
<path fill-rule="evenodd" clip-rule="evenodd" d="M86.6025 44.3602L138.564 14.3602L86.6025 44.3602Z" fill="#8BC5E4"/>
<path fill-rule="evenodd" clip-rule="evenodd" d="M86.6025 41.8203L138.564 11.8203L86.6025 41.8203Z" fill="#8BC5E4"/>
<path fill-rule="evenodd" clip-rule="evenodd" d="M86.6025 44.3602L138.564 14.3602L86.6025 44.3602Z" fill="#8BC5E4"/>
<path fill-rule="evenodd" clip-rule="evenodd" d="M83.6494 85.8352V56.8652L135.611 26.8652V55.8352L83.6494 85.8352Z" fill="#8BC5E4"/>
<path fill-rule="evenodd" clip-rule="evenodd" d="M83.6494 56.8652L89.7982 60.4152L141.76 30.4152L135.611 26.8652L83.6494 56.8652Z" fill="#8BC5E4"/>
<path fill-rule="evenodd" clip-rule="evenodd" d="M89.7979 60.4152V89.3852L141.759 59.3852V30.4152L89.7979 60.4152Z" fill="#8BC5E4"/>
<path fill-rule="evenodd" clip-rule="evenodd" d="M89.7982 89.3852L83.6494 85.8352L135.611 55.8352L141.76 59.3852L89.7982 89.3852Z" fill="#8BC5E4"/>
<path fill-rule="evenodd" clip-rule="evenodd" d="M83.6494 85.8352L135.611 55.8352L83.6494 85.8352Z" fill="#8BC5E4"/>
<path fill-rule="evenodd" clip-rule="evenodd" d="M46.9648 73.4152L49.277 72.1602L101.239 42.1602L98.9263 43.4152L46.9648 73.4152Z" fill="#8BC5E4"/>
<path fill-rule="evenodd" clip-rule="evenodd" d="M49.2764 72.1602L77.9679 116.145L129.929 86.1452L101.238 42.1602L49.2764 72.1602Z" fill="#8BC5E4"/>
<path fill-rule="evenodd" clip-rule="evenodd" d="M97.2109 128.545L155.581 142.835L207.543 112.835L149.172 98.5452L97.2109 128.545Z" fill="#8BC5E4"/>
<path fill-rule="evenodd" clip-rule="evenodd" d="M155.581 142.835L157.287 147.22L209.249 117.22L207.543 112.835L155.581 142.835Z" fill="#8BC5E4"/>
<path fill-rule="evenodd" clip-rule="evenodd" d="M157.287 147.22L104.572 150.655L156.534 120.655L209.249 117.22L157.287 147.22Z" fill="#8BC5E4"/>
<path fill-rule="evenodd" clip-rule="evenodd" d="M70.1396 121.915L46.9648 73.4152L98.9263 43.4152L122.101 91.9152L70.1396 121.915Z" fill="#8BC5E4"/>
<path fill-rule="evenodd" clip-rule="evenodd" d="M46.9648 73.4152L98.9263 43.4152L46.9648 73.4152Z" fill="#8BC5E4"/>
<path fill-rule="evenodd" clip-rule="evenodd" d="M16.9658 102.465V95.3552L68.9274 65.3552V72.4652L16.9658 102.465Z" fill="#8BC5E4"/>
<path fill-rule="evenodd" clip-rule="evenodd" d="M16.9658 95.3552L42.0546 109.84L94.0161 79.8402L68.9274 65.3552L16.9658 95.3552Z" fill="#8BC5E4"/>
<path fill-rule="evenodd" clip-rule="evenodd" d="M42.0537 109.84V116.95L94.0152 86.9502V79.8402L42.0537 109.84Z" fill="#8BC5E4"/>
<path fill-rule="evenodd" clip-rule="evenodd" d="M42.0546 116.95L16.9658 102.465L68.9274 72.4652L94.0161 86.9502L42.0546 116.95Z" fill="#8BC5E4"/>
<path fill-rule="evenodd" clip-rule="evenodd" d="M16.9658 102.465L68.9274 72.4652L16.9658 102.465Z" fill="#8BC5E4"/>
<path fill-rule="evenodd" clip-rule="evenodd" d="M131.394 168.53V161.42L183.355 131.42V138.53L131.394 168.53Z" fill="#8BC5E4"/>
<path fill-rule="evenodd" clip-rule="evenodd" d="M131.394 161.42L156.482 175.905L208.444 145.905L183.355 131.42L131.394 161.42Z" fill="#8BC5E4"/>
<path fill-rule="evenodd" clip-rule="evenodd" d="M156.482 175.905V183.015L208.444 153.015V145.905L156.482 175.905Z" fill="#8BC5E4"/>
<path fill-rule="evenodd" clip-rule="evenodd" d="M156.482 183.015L131.394 168.53L183.355 138.53L208.444 153.015L156.482 183.015Z" fill="#8BC5E4"/>
<path fill-rule="evenodd" clip-rule="evenodd" d="M131.394 168.53L183.355 138.53L131.394 168.53Z" fill="#8BC5E4"/>
<path fill-rule="evenodd" clip-rule="evenodd" d="M83.6494 217.965V188.995L135.611 158.995V187.965L83.6494 217.965Z" fill="#8BC5E4"/>
<path fill-rule="evenodd" clip-rule="evenodd" d="M83.6494 188.995L89.7982 192.545L141.76 162.545L135.611 158.995L83.6494 188.995Z" fill="#8BC5E4"/>
<path fill-rule="evenodd" clip-rule="evenodd" d="M89.7979 192.545V221.515L141.759 191.515V162.545L89.7979 192.545Z" fill="#8BC5E4"/>
<path fill-rule="evenodd" clip-rule="evenodd" d="M89.7982 221.515L83.6494 217.965L135.611 187.965L141.76 191.515L89.7982 221.515Z" fill="#8BC5E4"/>
<path fill-rule="evenodd" clip-rule="evenodd" d="M83.6494 217.965L135.611 187.965L83.6494 217.965Z" fill="#8BC5E4"/>
<path fill-rule="evenodd" clip-rule="evenodd" d="M86.7236 125.64L138.685 95.6402L86.7236 125.64Z" fill="#8BC5E4"/>
<path fill-rule="evenodd" clip-rule="evenodd" d="M70.1398 121.915C69.3084 123.815 68.8408 126.145 68.8408 128.865L120.802 98.8652C120.802 96.1452 121.27 93.8152 122.101 91.9152L70.1398 121.915Z" fill="#8BC5E4"/>
<path fill-rule="evenodd" clip-rule="evenodd" d="M68.8408 128.865C68.8408 140.225 76.8861 154.16 86.7242 159.84L138.686 129.84C128.848 124.16 120.802 110.225 120.802 98.8652L68.8408 128.865Z" fill="#8BC5E4"/>
<path fill-rule="evenodd" clip-rule="evenodd" d="M86.7236 159.84C91.6128 162.663 96.0598 162.936 99.2948 161.102L151.256 131.102C148.021 132.936 143.574 132.663 138.685 129.84L86.7236 159.84Z" fill="#8BC5E4"/>
<path fill-rule="evenodd" clip-rule="evenodd" d="M99.293 161.103C102.344 159.374 104.318 155.771 104.572 150.663L156.533 120.663C156.279 125.771 154.305 129.374 151.254 131.103L99.293 161.103Z" fill="#8BC5E4"/>
<path fill-rule="evenodd" clip-rule="evenodd" d="M97.2112 128.545C94.2667 124.365 90.638 120.8 86.7236 118.54L138.685 88.5402C142.6 90.8002 146.228 94.3652 149.173 98.5452L97.2112 128.545Z" fill="#8BC5E4"/>
<path fill-rule="evenodd" clip-rule="evenodd" d="M86.7242 118.54C83.5459 116.705 80.5668 115.955 77.9688 116.145L129.93 86.1452C132.528 85.9552 135.507 86.7052 138.686 88.5402L86.7242 118.54Z" fill="#8BC5E4"/>
<path fill-rule="evenodd" clip-rule="evenodd" d="M86.7236 125.64C93.2361 129.4 98.4496 138.44 98.4496 145.96L150.411 115.96C150.411 108.44 145.198 99.4002 138.685 95.6402L86.7236 125.64Z" fill="#8BC5E4"/>
<path fill-rule="evenodd" clip-rule="evenodd" d="M98.4501 145.96C98.4503 149.544 97.2663 152.103 95.3213 153.394L147.283 123.394C149.228 122.103 150.412 119.544 150.412 115.96L98.4501 145.96Z" fill="#8BC5E4"/>
<path fill-rule="evenodd" clip-rule="evenodd" d="M95.3225 153.393C93.1875 154.811 90.1365 154.699 86.7285 152.733L138.69 122.733C142.098 124.699 145.149 124.811 147.284 123.393L95.3225 153.393Z" fill="#8BC5E4"/>
<path fill-rule="evenodd" clip-rule="evenodd" d="M86.724 152.73C80.2115 148.97 74.998 139.94 74.998 132.42L126.96 102.42C126.96 109.94 132.173 118.97 138.686 122.73L86.724 152.73Z" fill="#8BC5E4"/>
<path fill-rule="evenodd" clip-rule="evenodd" d="M74.998 132.42C74.9982 128.484 76.4262 125.78 78.7222 124.637L130.684 94.6372C128.388 95.7802 126.96 98.4842 126.96 102.42L74.998 132.42Z" fill="#8BC5E4"/>
<path fill-rule="evenodd" clip-rule="evenodd" d="M78.7197 124.638C80.8087 123.596 83.6167 123.847 86.7187 125.637L138.68 95.6372C135.578 93.8472 132.77 93.5962 130.681 94.6382L78.7197 124.638Z" fill="#8BC5E4"/>
<path fill-rule="evenodd" clip-rule="evenodd" d="M86.6025 44.3602C133.229 71.2802 171.005 136.71 171.005 190.55L222.967 160.55C222.967 106.71 185.191 41.2802 138.564 14.3602L86.6025 44.3602Z" fill="#8BC5E4"/>
<path fill-rule="evenodd" clip-rule="evenodd" d="M171.005 190.55C171.005 216.195 162.435 234.573 148.419 243.879L200.38 213.879C214.396 204.573 222.966 186.195 222.967 160.55L171.005 190.55Z" fill="#8BC5E4"/>
<path fill-rule="evenodd" clip-rule="evenodd" d="M148.422 243.878C133.015 254.11 111.027 253.378 86.6113 239.285L138.573 209.285C162.989 223.378 184.977 224.11 200.384 213.878L148.422 243.878Z" fill="#8BC5E4"/>
<path fill-rule="evenodd" clip-rule="evenodd" d="M86.602 239.28C39.9752 212.36 2.19922 146.93 2.19922 93.0902L54.1607 63.0902C54.1607 116.93 91.9368 182.36 138.564 209.28L86.602 239.28Z" fill="#8BC5E4"/>
<path fill-rule="evenodd" clip-rule="evenodd" d="M2.19922 93.0902C2.19952 64.8952 12.5585 45.4842 29.1245 37.2552L81.086 7.25525C64.52 15.4842 54.161 34.8952 54.1607 63.0902L2.19922 93.0902Z" fill="#8BC5E4"/>
<path fill-rule="evenodd" clip-rule="evenodd" d="M29.1221 37.2572C44.1881 29.7722 64.3871 31.5362 86.5941 44.3552L138.556 14.3552C116.349 1.53624 96.1496 -0.227758 81.0836 7.25724L29.1221 37.2572Z" fill="#8BC5E4"/>
<path fill-rule="evenodd" clip-rule="evenodd" d="M86.6021 41.8202C61.5636 27.3642 38.9986 26.6202 23.1846 37.1202L75.1461 7.12024C90.9601 -3.37976 113.525 -2.63576 138.564 11.8202L86.6021 41.8202Z" fill="#8BC5E4"/>
<path fill-rule="evenodd" clip-rule="evenodd" d="M23.188 37.1182C8.804 46.6662 0.002 65.5162 0 91.8102L51.9615 61.8102C51.9635 35.5162 60.7655 16.6662 75.1495 7.11823L23.188 37.1182Z" fill="#8BC5E4"/>
<path fill-rule="evenodd" clip-rule="evenodd" d="M0 91.8203C0 147.03 38.7893 214.215 86.6025 241.82L138.564 211.82C90.7508 184.215 51.9615 117.03 51.9615 61.8203L0 91.8203Z" fill="#8BC5E4"/>
<path fill-rule="evenodd" clip-rule="evenodd" d="M86.6025 241.82C111.641 256.276 134.206 257.02 150.02 246.52L201.982 216.52C186.168 227.02 163.603 226.276 138.564 211.82L86.6025 241.82Z" fill="#8BC5E4"/>
<path fill-rule="evenodd" clip-rule="evenodd" d="M150.017 246.522C164.401 236.974 173.203 218.124 173.205 191.83L225.166 161.83C225.164 188.124 216.362 206.974 201.978 216.522L150.017 246.522Z" fill="#8BC5E4"/>
<path fill-rule="evenodd" clip-rule="evenodd" d="M173.205 191.82C173.205 136.61 134.416 69.4253 86.6025 41.8203L138.564 11.8203C186.377 39.4253 225.167 106.61 225.167 161.82L173.205 191.82Z" fill="#8BC5E4"/>
<path fill-rule="evenodd" clip-rule="evenodd" d="M86.6025 44.3602C133.229 71.2802 171.005 136.71 171.005 190.55L222.967 160.55C222.967 106.71 185.191 41.2802 138.564 14.3602L86.6025 44.3602Z" fill="#8BC5E4"/>
<path fill-rule="evenodd" clip-rule="evenodd" d="M171.005 190.55C171.005 216.195 162.435 234.573 148.419 243.879L200.38 213.879C214.396 204.573 222.966 186.195 222.967 160.55L171.005 190.55Z" fill="#8BC5E4"/>
<path fill-rule="evenodd" clip-rule="evenodd" d="M148.422 243.878C133.015 254.11 111.027 253.378 86.6113 239.285L138.573 209.285C162.989 223.378 184.977 224.11 200.384 213.878L148.422 243.878Z" fill="#8BC5E4"/>
<path fill-rule="evenodd" clip-rule="evenodd" d="M86.602 239.28C39.9752 212.36 2.19922 146.93 2.19922 93.0902L54.1607 63.0902C54.1607 116.93 91.9368 182.36 138.564 209.28L86.602 239.28Z" fill="#8BC5E4"/>
<path fill-rule="evenodd" clip-rule="evenodd" d="M2.19922 93.0902C2.19952 64.8952 12.5585 45.4842 29.1245 37.2552L81.086 7.25525C64.52 15.4842 54.161 34.8952 54.1607 63.0902L2.19922 93.0902Z" fill="#8BC5E4"/>
<path fill-rule="evenodd" clip-rule="evenodd" d="M29.1221 37.2572C44.1881 29.7722 64.3871 31.5362 86.5941 44.3552L138.556 14.3552C116.349 1.53624 96.1496 -0.227758 81.0836 7.25724L29.1221 37.2572Z" fill="#8BC5E4"/>
<path fill-rule="evenodd" clip-rule="evenodd" d="M77.9688 116.145C80.5668 115.955 83.5459 116.705 86.7242 118.54L138.686 88.5402C135.507 86.7052 132.528 85.9552 129.93 86.1452L77.9688 116.145Z" fill="#8BC5E4"/>
<path fill-rule="evenodd" clip-rule="evenodd" d="M86.7236 118.54C90.638 120.8 94.2667 124.365 97.2112 128.545L149.173 98.5452C146.228 94.3652 142.6 90.8002 138.685 88.5402L86.7236 118.54Z" fill="#8BC5E4"/>
<path fill-rule="evenodd" clip-rule="evenodd" d="M104.573 150.655C104.32 155.766 102.346 159.371 99.2949 161.102L151.256 131.102C154.307 129.371 156.281 125.766 156.534 120.655L104.573 150.655Z" fill="#8BC5E4"/>
<path fill-rule="evenodd" clip-rule="evenodd" d="M99.2974 161.1C96.0634 162.936 91.6194 162.664 86.7314 159.844L138.693 129.844C143.581 132.664 148.025 132.936 151.259 131.1L99.2974 161.1Z" fill="#8BC5E4"/>
<path fill-rule="evenodd" clip-rule="evenodd" d="M86.7242 159.84C76.8861 154.16 68.8408 140.225 68.8408 128.865L120.802 98.8652C120.802 110.225 128.848 124.16 138.686 129.84L86.7242 159.84Z" fill="#8BC5E4"/>
<path fill-rule="evenodd" clip-rule="evenodd" d="M68.8408 128.865C68.8408 126.145 69.3084 123.815 70.1398 121.915L122.101 91.9152C121.27 93.8152 120.802 96.1452 120.802 98.8652L68.8408 128.865Z" fill="#8BC5E4"/>
<path fill-rule="evenodd" clip-rule="evenodd" d="M86.7236 125.64C93.2361 129.4 98.4496 138.44 98.4496 145.96L150.411 115.96C150.411 108.44 145.198 99.4002 138.685 95.6402L86.7236 125.64Z" fill="#8BC5E4"/>
<path fill-rule="evenodd" clip-rule="evenodd" d="M98.4501 145.96C98.4503 149.544 97.2663 152.103 95.3213 153.394L147.283 123.394C149.228 122.103 150.412 119.544 150.412 115.96L98.4501 145.96Z" fill="#8BC5E4"/>
<path fill-rule="evenodd" clip-rule="evenodd" d="M95.3225 153.393C93.1875 154.811 90.1365 154.699 86.7285 152.733L138.69 122.733C142.098 124.699 145.149 124.811 147.284 123.393L95.3225 153.393Z" fill="#8BC5E4"/>
<path fill-rule="evenodd" clip-rule="evenodd" d="M86.724 152.73C80.2115 148.97 74.998 139.94 74.998 132.42L126.96 102.42C126.96 109.94 132.173 118.97 138.686 122.73L86.724 152.73Z" fill="#8BC5E4"/>
<path fill-rule="evenodd" clip-rule="evenodd" d="M74.998 132.42C74.9982 128.484 76.4262 125.78 78.7222 124.637L130.684 94.6372C128.388 95.7802 126.96 98.4842 126.96 102.42L74.998 132.42Z" fill="#8BC5E4"/>
<path fill-rule="evenodd" clip-rule="evenodd" d="M78.7197 124.638C80.8087 123.596 83.6167 123.847 86.7187 125.637L138.68 95.6372C135.578 93.8472 132.77 93.5962 130.681 94.6382L78.7197 124.638Z" fill="#8BC5E4"/>
<path fill-rule="evenodd" clip-rule="evenodd" d="M49.2768 72.1602L46.9646 73.4152L70.1394 121.915C69.308 123.815 68.8404 126.145 68.8404 128.865C68.8404 140.225 76.8857 154.16 86.7238 159.84C96.2241 165.325 104.053 161.185 104.573 150.655L157.288 147.22L155.581 142.835L97.2113 128.545C94.2669 124.365 90.6382 120.8 86.7238 118.54C83.5455 116.705 80.5663 115.955 77.9683 116.145L49.2768 72.1602ZM86.7238 125.64C93.2363 129.4 98.4498 138.44 98.4498 145.96C98.4498 153.48 93.2363 156.49 86.7238 152.73C80.2113 148.97 74.9978 139.94 74.9978 132.42C74.9978 124.9 80.2113 121.88 86.7238 125.64ZM83.6494 85.8352V56.8652L89.7982 60.4152V89.3852L83.6494 85.8352ZM16.9654 95.3552V102.465L42.0542 116.95V109.84L16.9654 95.3552ZM83.6494 217.965V188.995L89.7982 192.545V221.515L83.6494 217.965ZM131.393 161.42V168.53L156.482 183.015V175.905L131.393 161.42ZM86.6025 44.3602C133.229 71.2802 171.005 136.71 171.005 190.55C171.005 244.39 133.229 266.2 86.6025 239.28C39.9757 212.36 2.1997 146.93 2.1997 93.0902C2.1997 39.2502 39.9757 17.4402 86.6025 44.3602Z" fill="white"/>
</svg>
