<svg width="226" height="254" viewBox="0 0 226 254" fill="none" xmlns="http://www.w3.org/2000/svg">
<path fill-rule="evenodd" clip-rule="evenodd" d="M135.611 60.2756V89.2456L83.6494 59.2456V30.2756L135.611 60.2756Z" fill="#8BC5E4"/>
<path fill-rule="evenodd" clip-rule="evenodd" d="M135.611 89.2456L141.76 85.6956L89.7982 55.6956L83.6494 59.2456L135.611 89.2456Z" fill="#8BC5E4"/>
<path fill-rule="evenodd" clip-rule="evenodd" d="M141.76 85.6956V56.7256L89.7988 26.7256V55.6956L141.76 85.6956Z" fill="#8BC5E4"/>
<path fill-rule="evenodd" clip-rule="evenodd" d="M141.76 56.7256L135.611 60.2756L83.6494 30.2756L89.7982 26.7256L141.76 56.7256Z" fill="#8BC5E4"/>
<path fill-rule="evenodd" clip-rule="evenodd" d="M135.611 60.2756L83.6494 30.2756L135.611 60.2756Z" fill="#8BC5E4"/>
<path fill-rule="evenodd" clip-rule="evenodd" d="M101.239 115.261L98.9264 119.186L46.9648 89.1856L49.2771 85.2606L101.239 115.261Z" fill="#8BC5E4"/>
<path fill-rule="evenodd" clip-rule="evenodd" d="M98.9264 119.186L122.101 140.926L70.1397 110.926L46.9648 89.1855L98.9264 119.186Z" fill="#8BC5E4"/>
<path fill-rule="evenodd" clip-rule="evenodd" d="M156.535 129.906L209.25 65.6006L157.288 35.6006L104.573 99.9056L156.535 129.906Z" fill="#8BC5E4"/>
<path fill-rule="evenodd" clip-rule="evenodd" d="M209.25 65.6005L207.544 63.1855L155.582 33.1855L157.288 35.6005L209.25 65.6005Z" fill="#8BC5E4"/>
<path fill-rule="evenodd" clip-rule="evenodd" d="M207.544 63.1855L149.174 116.296L97.2119 86.2955L155.582 33.1855L207.544 63.1855Z" fill="#8BC5E4"/>
<path fill-rule="evenodd" clip-rule="evenodd" d="M129.93 126.116L101.239 115.261L49.2773 85.2606L77.9687 96.1156L129.93 126.116Z" fill="#8BC5E4"/>
<path fill-rule="evenodd" clip-rule="evenodd" d="M101.239 115.261L49.2773 85.2606L101.239 115.261Z" fill="#8BC5E4"/>
<path fill-rule="evenodd" clip-rule="evenodd" d="M138.686 125.501L86.7246 95.5005L138.686 125.501Z" fill="#8BC5E4"/>
<path fill-rule="evenodd" clip-rule="evenodd" d="M68.9273 175.766V182.876L16.9658 152.876V145.766L68.9273 175.766Z" fill="#8BC5E4"/>
<path fill-rule="evenodd" clip-rule="evenodd" d="M68.9273 182.876L94.0161 168.391L42.0546 138.391L16.9658 152.876L68.9273 182.876Z" fill="#8BC5E4"/>
<path fill-rule="evenodd" clip-rule="evenodd" d="M94.0162 168.391V161.281L42.0547 131.281V138.391L94.0162 168.391Z" fill="#8BC5E4"/>
<path fill-rule="evenodd" clip-rule="evenodd" d="M94.0161 161.281L68.9273 175.766L16.9658 145.766L42.0546 131.281L94.0161 161.281Z" fill="#8BC5E4"/>
<path fill-rule="evenodd" clip-rule="evenodd" d="M68.9273 175.766L16.9658 145.766L68.9273 175.766Z" fill="#8BC5E4"/>
<path fill-rule="evenodd" clip-rule="evenodd" d="M183.355 109.701V116.811L131.394 86.8106V79.7006L183.355 109.701Z" fill="#8BC5E4"/>
<path fill-rule="evenodd" clip-rule="evenodd" d="M183.355 116.811L208.444 102.326L156.482 72.3256L131.394 86.8106L183.355 116.811Z" fill="#8BC5E4"/>
<path fill-rule="evenodd" clip-rule="evenodd" d="M208.444 102.326V95.2155L156.482 65.2155V72.3255L208.444 102.326Z" fill="#8BC5E4"/>
<path fill-rule="evenodd" clip-rule="evenodd" d="M208.444 95.2155L183.355 109.701L131.394 79.7005L156.482 65.2155L208.444 95.2155Z" fill="#8BC5E4"/>
<path fill-rule="evenodd" clip-rule="evenodd" d="M183.355 109.701L131.394 79.7006L183.355 109.701Z" fill="#8BC5E4"/>
<path fill-rule="evenodd" clip-rule="evenodd" d="M135.611 192.406V221.376L83.6494 191.376V162.406L135.611 192.406Z" fill="#8BC5E4"/>
<path fill-rule="evenodd" clip-rule="evenodd" d="M135.611 221.376L141.76 217.826L89.7982 187.826L83.6494 191.376L135.611 221.376Z" fill="#8BC5E4"/>
<path fill-rule="evenodd" clip-rule="evenodd" d="M141.76 217.826V188.856L89.7988 158.856V187.826L141.76 217.826Z" fill="#8BC5E4"/>
<path fill-rule="evenodd" clip-rule="evenodd" d="M141.76 188.856L135.611 192.406L83.6494 162.406L89.7982 158.856L141.76 188.856Z" fill="#8BC5E4"/>
<path fill-rule="evenodd" clip-rule="evenodd" d="M135.611 192.406L83.6494 162.406L135.611 192.406Z" fill="#8BC5E4"/>
<path fill-rule="evenodd" clip-rule="evenodd" d="M138.564 44.3606L86.6025 14.3606L138.564 44.3606Z" fill="#8BC5E4"/>
<path fill-rule="evenodd" clip-rule="evenodd" d="M138.564 41.8206L86.6025 11.8206L138.564 41.8206Z" fill="#8BC5E4"/>
<path fill-rule="evenodd" clip-rule="evenodd" d="M138.564 44.3606L86.6025 14.3606L138.564 44.3606Z" fill="#8BC5E4"/>
<path fill-rule="evenodd" clip-rule="evenodd" d="M135.611 89.2456V60.2756L83.6494 30.2756V59.2456L135.611 89.2456Z" fill="#8BC5E4"/>
<path fill-rule="evenodd" clip-rule="evenodd" d="M135.611 60.2756L141.76 56.7256L89.7982 26.7256L83.6494 30.2756L135.611 60.2756Z" fill="#8BC5E4"/>
<path fill-rule="evenodd" clip-rule="evenodd" d="M141.76 56.7256V85.6956L89.7988 55.6956V26.7256L141.76 56.7256Z" fill="#8BC5E4"/>
<path fill-rule="evenodd" clip-rule="evenodd" d="M141.76 85.6956L135.611 89.2456L83.6494 59.2456L89.7982 55.6956L141.76 85.6956Z" fill="#8BC5E4"/>
<path fill-rule="evenodd" clip-rule="evenodd" d="M135.611 89.2455L83.6494 59.2455L135.611 89.2455Z" fill="#8BC5E4"/>
<path fill-rule="evenodd" clip-rule="evenodd" d="M98.9264 119.186L101.239 115.261L49.2771 85.2606L46.9648 89.1856L98.9264 119.186Z" fill="#8BC5E4"/>
<path fill-rule="evenodd" clip-rule="evenodd" d="M101.239 115.261L129.93 126.116L77.9687 96.1156L49.2773 85.2606L101.239 115.261Z" fill="#8BC5E4"/>
<path fill-rule="evenodd" clip-rule="evenodd" d="M149.174 116.296L207.544 63.1855L155.582 33.1855L97.2119 86.2955L149.174 116.296Z" fill="#8BC5E4"/>
<path fill-rule="evenodd" clip-rule="evenodd" d="M207.544 63.1855L209.25 65.6005L157.288 35.6005L155.582 33.1855L207.544 63.1855Z" fill="#8BC5E4"/>
<path fill-rule="evenodd" clip-rule="evenodd" d="M209.25 65.6006L156.535 129.906L104.573 99.9056L157.288 35.6006L209.25 65.6006Z" fill="#8BC5E4"/>
<path fill-rule="evenodd" clip-rule="evenodd" d="M122.101 140.926L98.9264 119.186L46.9648 89.1855L70.1397 110.926L122.101 140.926Z" fill="#8BC5E4"/>
<path fill-rule="evenodd" clip-rule="evenodd" d="M98.9264 119.186L46.9648 89.1855L98.9264 119.186Z" fill="#8BC5E4"/>
<path fill-rule="evenodd" clip-rule="evenodd" d="M68.9273 182.876V175.766L16.9658 145.766V152.876L68.9273 182.876Z" fill="#8BC5E4"/>
<path fill-rule="evenodd" clip-rule="evenodd" d="M68.9273 175.766L94.0161 161.281L42.0546 131.281L16.9658 145.766L68.9273 175.766Z" fill="#8BC5E4"/>
<path fill-rule="evenodd" clip-rule="evenodd" d="M94.0162 161.281V168.391L42.0547 138.391V131.281L94.0162 161.281Z" fill="#8BC5E4"/>
<path fill-rule="evenodd" clip-rule="evenodd" d="M94.0161 168.391L68.9273 182.876L16.9658 152.876L42.0546 138.391L94.0161 168.391Z" fill="#8BC5E4"/>
<path fill-rule="evenodd" clip-rule="evenodd" d="M68.9273 182.876L16.9658 152.876L68.9273 182.876Z" fill="#8BC5E4"/>
<path fill-rule="evenodd" clip-rule="evenodd" d="M183.355 116.811V109.701L131.394 79.7006V86.8106L183.355 116.811Z" fill="#8BC5E4"/>
<path fill-rule="evenodd" clip-rule="evenodd" d="M183.355 109.701L208.444 95.2155L156.482 65.2155L131.394 79.7005L183.355 109.701Z" fill="#8BC5E4"/>
<path fill-rule="evenodd" clip-rule="evenodd" d="M208.444 95.2155V102.326L156.482 72.3255V65.2155L208.444 95.2155Z" fill="#8BC5E4"/>
<path fill-rule="evenodd" clip-rule="evenodd" d="M208.444 102.326L183.355 116.811L131.394 86.8106L156.482 72.3256L208.444 102.326Z" fill="#8BC5E4"/>
<path fill-rule="evenodd" clip-rule="evenodd" d="M183.355 116.811L131.394 86.8105L183.355 116.811Z" fill="#8BC5E4"/>
<path fill-rule="evenodd" clip-rule="evenodd" d="M135.611 221.376V192.406L83.6494 162.406V191.376L135.611 221.376Z" fill="#8BC5E4"/>
<path fill-rule="evenodd" clip-rule="evenodd" d="M135.611 192.406L141.76 188.856L89.7982 158.856L83.6494 162.406L135.611 192.406Z" fill="#8BC5E4"/>
<path fill-rule="evenodd" clip-rule="evenodd" d="M141.76 188.856V217.826L89.7988 187.826V158.856L141.76 188.856Z" fill="#8BC5E4"/>
<path fill-rule="evenodd" clip-rule="evenodd" d="M141.76 217.826L135.611 221.376L83.6494 191.376L89.7982 187.826L141.76 217.826Z" fill="#8BC5E4"/>
<path fill-rule="evenodd" clip-rule="evenodd" d="M135.611 221.376L83.6494 191.376L135.611 221.376Z" fill="#8BC5E4"/>
<path fill-rule="evenodd" clip-rule="evenodd" d="M138.686 125.501L86.7246 95.5005L138.686 125.501Z" fill="#8BC5E4"/>
<path fill-rule="evenodd" clip-rule="evenodd" d="M122.101 140.926C121.27 143.786 120.802 146.656 120.802 149.376L68.8408 119.376C68.8408 116.656 69.3085 113.786 70.1399 110.926L122.101 140.926Z" fill="#8BC5E4"/>
<path fill-rule="evenodd" clip-rule="evenodd" d="M120.802 149.376C120.802 154.79 122.63 158.678 125.607 160.651L73.6455 130.651C70.6685 128.678 68.8405 124.79 68.8408 119.376L120.802 149.376Z" fill="#8BC5E4"/>
<path fill-rule="evenodd" clip-rule="evenodd" d="M125.605 160.65C128.874 162.817 133.531 162.675 138.679 159.705L86.7176 129.705C81.5696 132.675 76.9126 132.817 73.6436 130.65L125.605 160.65Z" fill="#8BC5E4"/>
<path fill-rule="evenodd" clip-rule="evenodd" d="M138.686 159.701C148.186 154.216 156.015 141.036 156.535 129.906L104.573 99.9055C104.054 111.036 96.2249 124.216 86.7246 129.701L138.686 159.701Z" fill="#8BC5E4"/>
<path fill-rule="evenodd" clip-rule="evenodd" d="M149.174 116.296C146.229 115.516 142.601 116.141 138.686 118.401L86.7246 88.4006C90.639 86.1406 94.2676 85.5156 97.2121 86.2956L149.174 116.296Z" fill="#8BC5E4"/>
<path fill-rule="evenodd" clip-rule="evenodd" d="M138.686 118.401C135.508 120.236 132.528 122.926 129.93 126.116L77.9688 96.1155C80.5668 92.9255 83.5459 90.2355 86.7243 88.4005L138.686 118.401Z" fill="#8BC5E4"/>
<path fill-rule="evenodd" clip-rule="evenodd" d="M138.686 125.501C141.789 123.709 144.598 123.457 146.688 124.498L94.7268 94.4976C92.6368 93.4566 89.8278 93.7086 86.7246 95.5006L138.686 125.501Z" fill="#8BC5E4"/>
<path fill-rule="evenodd" clip-rule="evenodd" d="M146.686 124.497C148.982 125.64 150.41 128.341 150.412 132.275L98.4506 102.275C98.4486 98.3406 97.0206 95.6396 94.7246 94.4966L146.686 124.497Z" fill="#8BC5E4"/>
<path fill-rule="evenodd" clip-rule="evenodd" d="M150.412 132.281C150.412 139.801 145.199 148.831 138.686 152.591L86.7246 122.591C93.2371 118.831 98.4505 109.801 98.4505 102.281L150.412 132.281Z" fill="#8BC5E4"/>
<path fill-rule="evenodd" clip-rule="evenodd" d="M138.685 152.591C135.276 154.559 132.223 154.672 130.087 153.255L78.126 123.255C80.262 124.672 83.315 124.559 86.7238 122.591L138.685 152.591Z" fill="#8BC5E4"/>
<path fill-rule="evenodd" clip-rule="evenodd" d="M130.09 153.256C128.145 151.966 126.961 149.408 126.96 145.827L74.998 115.827C74.999 119.408 76.183 121.966 78.128 123.256L130.09 153.256Z" fill="#8BC5E4"/>
<path fill-rule="evenodd" clip-rule="evenodd" d="M126.96 145.821C126.96 138.301 132.173 129.261 138.686 125.501L86.724 95.5005C80.2114 99.2605 74.998 108.301 74.998 115.821L126.96 145.821Z" fill="#8BC5E4"/>
<path fill-rule="evenodd" clip-rule="evenodd" d="M138.564 44.3606C162.982 30.2626 184.972 29.5296 200.381 39.7616L148.419 9.76156C133.01 -0.470441 111.02 0.26256 86.6025 14.3606L138.564 44.3606Z" fill="#8BC5E4"/>
<path fill-rule="evenodd" clip-rule="evenodd" d="M200.378 39.7596C214.393 49.0636 222.964 67.4386 222.966 93.0806L171.005 63.0806C171.003 37.4386 162.432 19.0636 148.417 9.75955L200.378 39.7596Z" fill="#8BC5E4"/>
<path fill-rule="evenodd" clip-rule="evenodd" d="M222.967 93.0905C222.967 146.931 185.191 212.361 138.564 239.281L86.6025 209.281C133.229 182.361 171.005 116.931 171.005 63.0905L222.967 93.0905Z" fill="#8BC5E4"/>
<path fill-rule="evenodd" clip-rule="evenodd" d="M138.564 239.281C116.355 252.103 96.1535 253.87 81.0865 246.386L29.125 216.386C44.192 223.87 64.393 222.103 86.6025 209.281L138.564 239.281Z" fill="#8BC5E4"/>
<path fill-rule="evenodd" clip-rule="evenodd" d="M81.0897 246.387C64.5247 238.16 54.1637 218.752 54.1617 190.561L2.2002 160.561C2.2022 188.752 12.5632 208.16 29.1282 216.387L81.0897 246.387Z" fill="#8BC5E4"/>
<path fill-rule="evenodd" clip-rule="evenodd" d="M54.1617 190.551C54.1617 136.711 91.9377 71.2806 138.564 44.3606L86.603 14.3606C39.9762 41.2806 2.2002 106.711 2.2002 160.551L54.1617 190.551Z" fill="#8BC5E4"/>
<path fill-rule="evenodd" clip-rule="evenodd" d="M138.564 41.8206C90.7508 69.4256 51.9615 136.611 51.9615 191.821L0 161.821C0 106.611 38.7893 39.4256 86.6025 11.8206L138.564 41.8206Z" fill="#8BC5E4"/>
<path fill-rule="evenodd" clip-rule="evenodd" d="M51.9615 191.821C51.9615 220.733 62.5995 240.647 79.5995 249.093L27.638 219.093C10.638 210.647 0 190.733 0 161.821L51.9615 191.821Z" fill="#8BC5E4"/>
<path fill-rule="evenodd" clip-rule="evenodd" d="M79.5972 249.091C95.0592 256.774 115.784 254.971 138.556 241.826L86.5947 211.826C63.8227 224.971 43.0977 226.774 27.6357 219.091L79.5972 249.091Z" fill="#8BC5E4"/>
<path fill-rule="evenodd" clip-rule="evenodd" d="M138.564 241.821C186.377 214.216 225.167 147.031 225.167 91.8206L173.205 61.8206C173.205 117.031 134.416 184.216 86.6025 211.821L138.564 241.821Z" fill="#8BC5E4"/>
<path fill-rule="evenodd" clip-rule="evenodd" d="M225.167 91.8206C225.167 62.9086 214.529 42.9946 197.529 34.5486L145.567 4.54855C162.567 12.9946 173.205 32.9086 173.205 61.8206L225.167 91.8206Z" fill="#8BC5E4"/>
<path fill-rule="evenodd" clip-rule="evenodd" d="M197.532 34.5506C182.071 26.8676 161.346 28.6706 138.573 41.8156L86.6113 11.8156C109.384 -1.32945 130.109 -3.13245 145.57 4.55055L197.532 34.5506Z" fill="#8BC5E4"/>
<path fill-rule="evenodd" clip-rule="evenodd" d="M138.564 44.3606C162.982 30.2626 184.972 29.5296 200.381 39.7616L148.419 9.76156C133.01 -0.470441 111.02 0.26256 86.6025 14.3606L138.564 44.3606Z" fill="#8BC5E4"/>
<path fill-rule="evenodd" clip-rule="evenodd" d="M200.378 39.7596C214.393 49.0636 222.964 67.4386 222.966 93.0806L171.005 63.0806C171.003 37.4386 162.432 19.0636 148.417 9.75955L200.378 39.7596Z" fill="#8BC5E4"/>
<path fill-rule="evenodd" clip-rule="evenodd" d="M222.967 93.0905C222.967 146.931 185.191 212.361 138.564 239.281L86.6025 209.281C133.229 182.361 171.005 116.931 171.005 63.0905L222.967 93.0905Z" fill="#8BC5E4"/>
<path fill-rule="evenodd" clip-rule="evenodd" d="M138.564 239.281C116.355 252.103 96.1535 253.87 81.0865 246.386L29.125 216.386C44.192 223.87 64.393 222.103 86.6025 209.281L138.564 239.281Z" fill="#8BC5E4"/>
<path fill-rule="evenodd" clip-rule="evenodd" d="M81.0897 246.387C64.5247 238.16 54.1637 218.752 54.1617 190.561L2.2002 160.561C2.2022 188.752 12.5632 208.16 29.1282 216.387L81.0897 246.387Z" fill="#8BC5E4"/>
<path fill-rule="evenodd" clip-rule="evenodd" d="M54.1617 190.551C54.1617 136.711 91.9377 71.2806 138.564 44.3606L86.603 14.3606C39.9762 41.2806 2.2002 106.711 2.2002 160.551L54.1617 190.551Z" fill="#8BC5E4"/>
<path fill-rule="evenodd" clip-rule="evenodd" d="M129.93 126.116C132.528 122.926 135.508 120.236 138.686 118.401L86.7243 88.4005C83.5459 90.2355 80.5668 92.9255 77.9688 96.1155L129.93 126.116Z" fill="#8BC5E4"/>
<path fill-rule="evenodd" clip-rule="evenodd" d="M138.686 118.401C142.601 116.141 146.229 115.516 149.174 116.296L97.2121 86.2956C94.2676 85.5156 90.639 86.1406 86.7246 88.4006L138.686 118.401Z" fill="#8BC5E4"/>
<path fill-rule="evenodd" clip-rule="evenodd" d="M156.535 129.906C156.015 141.036 148.186 154.216 138.686 159.701L86.7246 129.701C96.2249 124.216 104.054 111.036 104.573 99.9055L156.535 129.906Z" fill="#8BC5E4"/>
<path fill-rule="evenodd" clip-rule="evenodd" d="M138.686 159.701C133.536 162.674 128.878 162.818 125.607 160.651L73.6455 130.651C76.9165 132.818 81.5745 132.674 86.7243 129.701L138.686 159.701Z" fill="#8BC5E4"/>
<path fill-rule="evenodd" clip-rule="evenodd" d="M125.609 160.653C122.632 158.681 120.804 154.795 120.802 149.384L68.8408 119.384C68.8428 124.795 70.6708 128.681 73.6478 130.653L125.609 160.653Z" fill="#8BC5E4"/>
<path fill-rule="evenodd" clip-rule="evenodd" d="M120.802 149.376C120.802 146.656 121.27 143.786 122.101 140.926L70.1399 110.926C69.3085 113.786 68.8408 116.656 68.8408 119.376L120.802 149.376Z" fill="#8BC5E4"/>
<path fill-rule="evenodd" clip-rule="evenodd" d="M138.686 125.501C141.789 123.709 144.598 123.457 146.688 124.498L94.7268 94.4976C92.6368 93.4566 89.8278 93.7086 86.7246 95.5006L138.686 125.501Z" fill="#8BC5E4"/>
<path fill-rule="evenodd" clip-rule="evenodd" d="M146.686 124.497C148.982 125.64 150.41 128.341 150.412 132.275L98.4506 102.275C98.4486 98.3406 97.0206 95.6396 94.7246 94.4966L146.686 124.497Z" fill="#8BC5E4"/>
<path fill-rule="evenodd" clip-rule="evenodd" d="M150.412 132.281C150.412 139.801 145.199 148.831 138.686 152.591L86.7246 122.591C93.2371 118.831 98.4505 109.801 98.4505 102.281L150.412 132.281Z" fill="#8BC5E4"/>
<path fill-rule="evenodd" clip-rule="evenodd" d="M138.685 152.591C135.276 154.559 132.223 154.672 130.087 153.255L78.126 123.255C80.262 124.672 83.315 124.559 86.7238 122.591L138.685 152.591Z" fill="#8BC5E4"/>
<path fill-rule="evenodd" clip-rule="evenodd" d="M130.09 153.256C128.145 151.966 126.961 149.408 126.96 145.827L74.998 115.827C74.999 119.408 76.183 121.966 78.128 123.256L130.09 153.256Z" fill="#8BC5E4"/>
<path fill-rule="evenodd" clip-rule="evenodd" d="M126.96 145.821C126.96 138.301 132.173 129.261 138.686 125.501L86.724 95.5005C80.2114 99.2605 74.998 108.301 74.998 115.821L126.96 145.821Z" fill="#8BC5E4"/>
<path fill-rule="evenodd" clip-rule="evenodd" d="M101.239 115.261L98.9265 119.186L122.101 140.926C121.27 143.786 120.802 146.656 120.802 149.376C120.802 160.736 128.848 165.381 138.686 159.701C148.186 154.216 156.015 141.036 156.534 129.906L209.249 65.6005L207.543 63.1856L149.173 116.296C146.229 115.516 142.6 116.141 138.686 118.401C135.507 120.236 132.528 122.926 129.93 126.116L101.239 115.261ZM138.686 125.501C145.198 121.741 150.412 124.761 150.412 132.281C150.412 139.801 145.198 148.831 138.686 152.591C132.173 156.351 126.96 153.341 126.96 145.821C126.96 138.301 132.173 129.261 138.686 125.501ZM135.611 89.2456V60.2755L141.76 56.7255V85.6955L135.611 89.2456ZM222.967 93.0905C222.967 39.2505 185.191 17.4405 138.564 44.3605C91.9376 71.2805 54.1616 136.711 54.1616 190.551C54.1616 244.391 91.9376 266.201 138.564 239.281C185.191 212.361 222.967 146.931 222.967 93.0905ZM68.9274 182.876V175.766L94.0161 161.281V168.391L68.9274 182.876ZM135.611 192.406V221.376L141.76 217.826V188.856L135.611 192.406ZM183.355 116.811V109.701L208.444 95.2155V102.326L183.355 116.811Z" fill="white"/>
</svg>
