<svg width="274" height="349" viewBox="0 0 274 349" fill="none" xmlns="http://www.w3.org/2000/svg">
<path fill-rule="evenodd" clip-rule="evenodd" d="M10.4702 36.9172L211.232 152.827L263.194 122.827L62.4318 6.91724L10.4702 36.9172Z" fill="#8BC5E4"/>
<path fill-rule="evenodd" clip-rule="evenodd" d="M216.965 162.847V338.407L268.927 308.407V132.847L216.965 162.847Z" fill="#8BC5E4"/>
<path fill-rule="evenodd" clip-rule="evenodd" d="M211.232 341.807L10.4702 225.897L62.4318 195.897L263.194 311.807L211.232 341.807Z" fill="#8BC5E4"/>
<path fill-rule="evenodd" clip-rule="evenodd" d="M4.72852 215.872V40.3123L56.69 10.3123V185.872L4.72852 215.872Z" fill="#8BC5E4"/>
<path fill-rule="evenodd" clip-rule="evenodd" d="M10.4702 36.9172L62.4318 6.91724L10.4702 36.9172Z" fill="#8BC5E4"/>
<path fill-rule="evenodd" clip-rule="evenodd" d="M157.816 270.637L179.025 265.282L230.986 235.282L209.777 240.637L157.816 270.637Z" fill="#8BC5E4"/>
<path fill-rule="evenodd" clip-rule="evenodd" d="M179.025 265.282V277.252L230.986 247.252V235.282L179.025 265.282Z" fill="#8BC5E4"/>
<path fill-rule="evenodd" clip-rule="evenodd" d="M179.025 277.252L203.343 291.292L255.304 261.292L230.986 247.252L179.025 277.252Z" fill="#8BC5E4"/>
<path fill-rule="evenodd" clip-rule="evenodd" d="M203.343 291.292V302.542L255.304 272.542V261.292L203.343 291.292Z" fill="#8BC5E4"/>
<path fill-rule="evenodd" clip-rule="evenodd" d="M203.343 302.542L179.025 288.502L230.986 258.502L255.304 272.542L203.343 302.542Z" fill="#8BC5E4"/>
<path fill-rule="evenodd" clip-rule="evenodd" d="M179.025 288.502V300.472L230.986 270.472V258.502L179.025 288.502Z" fill="#8BC5E4"/>
<path fill-rule="evenodd" clip-rule="evenodd" d="M179.025 300.472L157.816 270.637L209.777 240.637L230.986 270.472L179.025 300.472Z" fill="#8BC5E4"/>
<path fill-rule="evenodd" clip-rule="evenodd" d="M157.816 270.637L209.777 240.637L157.816 270.637Z" fill="#8BC5E4"/>
<path fill-rule="evenodd" clip-rule="evenodd" d="M181.761 238.612V226.642L233.723 196.642V208.612L181.761 238.612Z" fill="#8BC5E4"/>
<path fill-rule="evenodd" clip-rule="evenodd" d="M181.761 226.642L202.97 256.487L254.932 226.487L233.723 196.642L181.761 226.642Z" fill="#8BC5E4"/>
<path fill-rule="evenodd" clip-rule="evenodd" d="M202.97 256.487L181.761 261.832L233.723 231.832L254.932 226.487L202.97 256.487Z" fill="#8BC5E4"/>
<path fill-rule="evenodd" clip-rule="evenodd" d="M181.761 261.832V249.862L233.723 219.862V231.832L181.761 261.832Z" fill="#8BC5E4"/>
<path fill-rule="evenodd" clip-rule="evenodd" d="M181.761 249.862L157.443 235.822L209.405 205.822L233.723 219.862L181.761 249.862Z" fill="#8BC5E4"/>
<path fill-rule="evenodd" clip-rule="evenodd" d="M157.443 235.822V224.572L209.405 194.572V205.822L157.443 235.822Z" fill="#8BC5E4"/>
<path fill-rule="evenodd" clip-rule="evenodd" d="M157.443 224.572L181.761 238.612L233.723 208.612L209.405 194.572L157.443 224.572Z" fill="#8BC5E4"/>
<path fill-rule="evenodd" clip-rule="evenodd" d="M181.761 238.612L233.723 208.612L181.761 238.612Z" fill="#8BC5E4"/>
<path fill-rule="evenodd" clip-rule="evenodd" d="M42.2969 198.762V186.792L94.2584 156.792V168.762L42.2969 198.762Z" fill="#8BC5E4"/>
<path fill-rule="evenodd" clip-rule="evenodd" d="M42.2969 186.792L63.5058 216.637L115.467 186.637L94.2584 156.792L42.2969 186.792Z" fill="#8BC5E4"/>
<path fill-rule="evenodd" clip-rule="evenodd" d="M63.5058 216.637L42.2969 221.992L94.2584 191.992L115.467 186.637L63.5058 216.637Z" fill="#8BC5E4"/>
<path fill-rule="evenodd" clip-rule="evenodd" d="M42.2969 221.992V210.022L94.2584 180.022V191.992L42.2969 221.992Z" fill="#8BC5E4"/>
<path fill-rule="evenodd" clip-rule="evenodd" d="M42.2965 210.022L17.9785 195.982L69.94 165.982L94.258 180.022L42.2965 210.022Z" fill="#8BC5E4"/>
<path fill-rule="evenodd" clip-rule="evenodd" d="M17.9785 195.982V184.722L69.94 154.722V165.982L17.9785 195.982Z" fill="#8BC5E4"/>
<path fill-rule="evenodd" clip-rule="evenodd" d="M17.9785 184.722L42.2965 198.762L94.258 168.762L69.94 154.722L17.9785 184.722Z" fill="#8BC5E4"/>
<path fill-rule="evenodd" clip-rule="evenodd" d="M42.2969 198.762L94.2584 168.762L42.2969 198.762Z" fill="#8BC5E4"/>
<path fill-rule="evenodd" clip-rule="evenodd" d="M18.5327 150.332L39.733 144.982L91.6946 114.982L70.4943 120.332L18.5327 150.332Z" fill="#8BC5E4"/>
<path fill-rule="evenodd" clip-rule="evenodd" d="M39.7334 144.982V156.962L91.695 126.962V114.982L39.7334 144.982Z" fill="#8BC5E4"/>
<path fill-rule="evenodd" clip-rule="evenodd" d="M39.7334 156.962L64.0601 171.007L116.022 141.007L91.695 126.962L39.7334 156.962Z" fill="#8BC5E4"/>
<path fill-rule="evenodd" clip-rule="evenodd" d="M64.0601 171.007V182.247L116.022 152.247V141.007L64.0601 171.007Z" fill="#8BC5E4"/>
<path fill-rule="evenodd" clip-rule="evenodd" d="M64.0601 182.247L39.7334 168.202L91.695 138.202L116.022 152.247L64.0601 182.247Z" fill="#8BC5E4"/>
<path fill-rule="evenodd" clip-rule="evenodd" d="M39.7334 168.202V180.182L91.695 150.182V138.202L39.7334 168.202Z" fill="#8BC5E4"/>
<path fill-rule="evenodd" clip-rule="evenodd" d="M39.733 180.182L18.5327 150.332L70.4943 120.332L91.6946 150.182L39.733 180.182Z" fill="#8BC5E4"/>
<path fill-rule="evenodd" clip-rule="evenodd" d="M18.5327 150.332L70.4943 120.332L18.5327 150.332Z" fill="#8BC5E4"/>
<path fill-rule="evenodd" clip-rule="evenodd" d="M82.584 138.872L142.729 173.597L194.691 143.597L134.545 108.872L82.584 138.872Z" fill="#8BC5E4"/>
<path fill-rule="evenodd" clip-rule="evenodd" d="M149.017 184.577V282.547L200.979 252.547V154.577L149.017 184.577Z" fill="#8BC5E4"/>
<path fill-rule="evenodd" clip-rule="evenodd" d="M142.729 286.257L82.584 251.532L134.545 221.532L194.691 256.257L142.729 286.257Z" fill="#8BC5E4"/>
<path fill-rule="evenodd" clip-rule="evenodd" d="M76.2881 240.557V142.587L128.25 112.587V210.557L76.2881 240.557Z" fill="#8BC5E4"/>
<path fill-rule="evenodd" clip-rule="evenodd" d="M76.2881 142.587L128.25 112.587L76.2881 142.587Z" fill="#8BC5E4"/>
<path fill-rule="evenodd" clip-rule="evenodd" d="M63.7743 139.142L45.0508 128.332L97.0124 98.3323L115.736 109.142L63.7743 139.142Z" fill="#8BC5E4"/>
<path fill-rule="evenodd" clip-rule="evenodd" d="M34.8057 110.457V105.777L86.7672 75.7773V80.4573L34.8057 110.457Z" fill="#8BC5E4"/>
<path fill-rule="evenodd" clip-rule="evenodd" d="M34.8057 105.777L74.028 128.532L125.989 98.5323L86.7672 75.7773L34.8057 105.777Z" fill="#8BC5E4"/>
<path fill-rule="evenodd" clip-rule="evenodd" d="M74.0278 128.532V133.102L125.989 103.102V98.5323L74.0278 128.532Z" fill="#8BC5E4"/>
<path fill-rule="evenodd" clip-rule="evenodd" d="M74.0278 133.102L125.989 103.102L74.0278 133.102Z" fill="#8BC5E4"/>
<path fill-rule="evenodd" clip-rule="evenodd" d="M190.976 171.762V193.662L242.938 163.662V141.762L190.976 171.762Z" fill="#8BC5E4"/>
<path fill-rule="evenodd" clip-rule="evenodd" d="M190.976 193.662L34.8057 103.437L86.7672 73.4373L242.937 163.662L190.976 193.662Z" fill="#8BC5E4"/>
<path fill-rule="evenodd" clip-rule="evenodd" d="M34.8057 103.437V81.5973L86.7672 51.5973V73.4373L34.8057 103.437Z" fill="#8BC5E4"/>
<path fill-rule="evenodd" clip-rule="evenodd" d="M45.0508 75.5522L180.731 153.887L232.693 123.887L97.0124 45.5522L45.0508 75.5522Z" fill="#8BC5E4"/>
<path fill-rule="evenodd" clip-rule="evenodd" d="M190.976 171.762L242.938 141.762L190.976 171.762Z" fill="#8BC5E4"/>
<path fill-rule="evenodd" clip-rule="evenodd" d="M180.731 206.667L161.254 195.422L213.216 165.422L232.692 176.667L180.731 206.667Z" fill="#8BC5E4"/>
<path fill-rule="evenodd" clip-rule="evenodd" d="M151.009 177.547V172.757L202.97 142.757V147.547L151.009 177.547Z" fill="#8BC5E4"/>
<path fill-rule="evenodd" clip-rule="evenodd" d="M151.009 172.757L190.976 196.002L242.937 166.002L202.97 142.757L151.009 172.757Z" fill="#8BC5E4"/>
<path fill-rule="evenodd" clip-rule="evenodd" d="M190.976 196.002V200.622L242.938 170.622V166.002L190.976 196.002Z" fill="#8BC5E4"/>
<path fill-rule="evenodd" clip-rule="evenodd" d="M190.976 200.622L242.938 170.622L190.976 200.622Z" fill="#8BC5E4"/>
<path fill-rule="evenodd" clip-rule="evenodd" d="M211.232 152.827L10.4702 36.9172L62.4318 6.91724L263.194 122.827L211.232 152.827Z" fill="#8BC5E4"/>
<path fill-rule="evenodd" clip-rule="evenodd" d="M4.72852 40.3123V215.872L56.69 185.872V10.3123L4.72852 40.3123Z" fill="#8BC5E4"/>
<path fill-rule="evenodd" clip-rule="evenodd" d="M10.4702 225.897L211.232 341.807L263.194 311.807L62.4318 195.897L10.4702 225.897Z" fill="#8BC5E4"/>
<path fill-rule="evenodd" clip-rule="evenodd" d="M216.965 338.407V162.847L268.927 132.847V308.407L216.965 338.407Z" fill="#8BC5E4"/>
<path fill-rule="evenodd" clip-rule="evenodd" d="M211.232 152.827L263.194 122.827L211.232 152.827Z" fill="#8BC5E4"/>
<path fill-rule="evenodd" clip-rule="evenodd" d="M10.4702 31.4072L211.232 147.317L263.194 117.317L62.4318 1.40723L10.4702 31.4072Z" fill="#8BC5E4"/>
<path fill-rule="evenodd" clip-rule="evenodd" d="M221.703 165.582V341.142L273.664 311.142V135.582L221.703 165.582Z" fill="#8BC5E4"/>
<path fill-rule="evenodd" clip-rule="evenodd" d="M211.232 347.317L10.4702 231.407L62.4318 201.407L263.194 317.317L211.232 347.317Z" fill="#8BC5E4"/>
<path fill-rule="evenodd" clip-rule="evenodd" d="M0 213.142V37.5823L51.9615 7.58228V183.142L0 213.142Z" fill="#8BC5E4"/>
<path fill-rule="evenodd" clip-rule="evenodd" d="M0 37.5823L51.9615 7.58228L0 37.5823Z" fill="#8BC5E4"/>
<path fill-rule="evenodd" clip-rule="evenodd" d="M157.816 270.637L179.025 265.282L230.986 235.282L209.777 240.637L157.816 270.637Z" fill="#8BC5E4"/>
<path fill-rule="evenodd" clip-rule="evenodd" d="M179.025 265.282V277.252L230.986 247.252V235.282L179.025 265.282Z" fill="#8BC5E4"/>
<path fill-rule="evenodd" clip-rule="evenodd" d="M179.025 277.252L203.343 291.292L255.304 261.292L230.986 247.252L179.025 277.252Z" fill="#8BC5E4"/>
<path fill-rule="evenodd" clip-rule="evenodd" d="M203.343 291.292V302.542L255.304 272.542V261.292L203.343 291.292Z" fill="#8BC5E4"/>
<path fill-rule="evenodd" clip-rule="evenodd" d="M203.343 302.542L179.025 288.502L230.986 258.502L255.304 272.542L203.343 302.542Z" fill="#8BC5E4"/>
<path fill-rule="evenodd" clip-rule="evenodd" d="M179.025 288.502V300.472L230.986 270.472V258.502L179.025 288.502Z" fill="#8BC5E4"/>
<path fill-rule="evenodd" clip-rule="evenodd" d="M179.025 300.472L157.816 270.637L209.777 240.637L230.986 270.472L179.025 300.472Z" fill="#8BC5E4"/>
<path fill-rule="evenodd" clip-rule="evenodd" d="M157.816 270.637L209.777 240.637L157.816 270.637Z" fill="#8BC5E4"/>
<path fill-rule="evenodd" clip-rule="evenodd" d="M181.761 238.612V226.642L233.723 196.642V208.612L181.761 238.612Z" fill="#8BC5E4"/>
<path fill-rule="evenodd" clip-rule="evenodd" d="M181.761 226.642L202.97 256.487L254.932 226.487L233.723 196.642L181.761 226.642Z" fill="#8BC5E4"/>
<path fill-rule="evenodd" clip-rule="evenodd" d="M202.97 256.487L181.761 261.832L233.723 231.832L254.932 226.487L202.97 256.487Z" fill="#8BC5E4"/>
<path fill-rule="evenodd" clip-rule="evenodd" d="M181.761 261.832V249.862L233.723 219.862V231.832L181.761 261.832Z" fill="#8BC5E4"/>
<path fill-rule="evenodd" clip-rule="evenodd" d="M181.761 249.862L157.443 235.822L209.405 205.822L233.723 219.862L181.761 249.862Z" fill="#8BC5E4"/>
<path fill-rule="evenodd" clip-rule="evenodd" d="M157.443 235.822V224.572L209.405 194.572V205.822L157.443 235.822Z" fill="#8BC5E4"/>
<path fill-rule="evenodd" clip-rule="evenodd" d="M157.443 224.572L181.761 238.612L233.723 208.612L209.405 194.572L157.443 224.572Z" fill="#8BC5E4"/>
<path fill-rule="evenodd" clip-rule="evenodd" d="M181.761 238.612L233.723 208.612L181.761 238.612Z" fill="#8BC5E4"/>
<path fill-rule="evenodd" clip-rule="evenodd" d="M42.2969 198.762V186.792L94.2584 156.792V168.762L42.2969 198.762Z" fill="#8BC5E4"/>
<path fill-rule="evenodd" clip-rule="evenodd" d="M42.2969 186.792L63.5058 216.637L115.467 186.637L94.2584 156.792L42.2969 186.792Z" fill="#8BC5E4"/>
<path fill-rule="evenodd" clip-rule="evenodd" d="M63.5058 216.637L42.2969 221.992L94.2584 191.992L115.467 186.637L63.5058 216.637Z" fill="#8BC5E4"/>
<path fill-rule="evenodd" clip-rule="evenodd" d="M42.2969 221.992V210.022L94.2584 180.022V191.992L42.2969 221.992Z" fill="#8BC5E4"/>
<path fill-rule="evenodd" clip-rule="evenodd" d="M42.2965 210.022L17.9785 195.982L69.94 165.982L94.258 180.022L42.2965 210.022Z" fill="#8BC5E4"/>
<path fill-rule="evenodd" clip-rule="evenodd" d="M17.9785 195.982V184.722L69.94 154.722V165.982L17.9785 195.982Z" fill="#8BC5E4"/>
<path fill-rule="evenodd" clip-rule="evenodd" d="M17.9785 184.722L42.2965 198.762L94.258 168.762L69.94 154.722L17.9785 184.722Z" fill="#8BC5E4"/>
<path fill-rule="evenodd" clip-rule="evenodd" d="M42.2969 198.762L94.2584 168.762L42.2969 198.762Z" fill="#8BC5E4"/>
<path fill-rule="evenodd" clip-rule="evenodd" d="M18.5327 150.332L39.733 144.982L91.6946 114.982L70.4943 120.332L18.5327 150.332Z" fill="#8BC5E4"/>
<path fill-rule="evenodd" clip-rule="evenodd" d="M39.7334 144.982V156.962L91.695 126.962V114.982L39.7334 144.982Z" fill="#8BC5E4"/>
<path fill-rule="evenodd" clip-rule="evenodd" d="M39.7334 156.962L64.0601 171.007L116.022 141.007L91.695 126.962L39.7334 156.962Z" fill="#8BC5E4"/>
<path fill-rule="evenodd" clip-rule="evenodd" d="M64.0601 171.007V182.247L116.022 152.247V141.007L64.0601 171.007Z" fill="#8BC5E4"/>
<path fill-rule="evenodd" clip-rule="evenodd" d="M64.0601 182.247L39.7334 168.202L91.695 138.202L116.022 152.247L64.0601 182.247Z" fill="#8BC5E4"/>
<path fill-rule="evenodd" clip-rule="evenodd" d="M39.7334 168.202V180.182L91.695 150.182V138.202L39.7334 168.202Z" fill="#8BC5E4"/>
<path fill-rule="evenodd" clip-rule="evenodd" d="M39.733 180.182L18.5327 150.332L70.4943 120.332L91.6946 150.182L39.733 180.182Z" fill="#8BC5E4"/>
<path fill-rule="evenodd" clip-rule="evenodd" d="M18.5327 150.332L70.4943 120.332L18.5327 150.332Z" fill="#8BC5E4"/>
<path fill-rule="evenodd" clip-rule="evenodd" d="M82.584 138.872L142.729 173.597L194.691 143.597L134.545 108.872L82.584 138.872Z" fill="#8BC5E4"/>
<path fill-rule="evenodd" clip-rule="evenodd" d="M149.017 184.577V282.547L200.979 252.547V154.577L149.017 184.577Z" fill="#8BC5E4"/>
<path fill-rule="evenodd" clip-rule="evenodd" d="M142.729 286.257L82.584 251.532L134.545 221.532L194.691 256.257L142.729 286.257Z" fill="#8BC5E4"/>
<path fill-rule="evenodd" clip-rule="evenodd" d="M76.2881 240.557V142.587L128.25 112.587V210.557L76.2881 240.557Z" fill="#8BC5E4"/>
<path fill-rule="evenodd" clip-rule="evenodd" d="M76.2881 142.587L128.25 112.587L76.2881 142.587Z" fill="#8BC5E4"/>
<path fill-rule="evenodd" clip-rule="evenodd" d="M63.7743 139.142L45.0508 128.332L97.0124 98.3323L115.736 109.142L63.7743 139.142Z" fill="#8BC5E4"/>
<path fill-rule="evenodd" clip-rule="evenodd" d="M34.8057 110.457V105.777L86.7672 75.7773V80.4573L34.8057 110.457Z" fill="#8BC5E4"/>
<path fill-rule="evenodd" clip-rule="evenodd" d="M34.8057 105.777L74.028 128.532L125.989 98.5323L86.7672 75.7773L34.8057 105.777Z" fill="#8BC5E4"/>
<path fill-rule="evenodd" clip-rule="evenodd" d="M74.0278 128.532V133.102L125.989 103.102V98.5323L74.0278 128.532Z" fill="#8BC5E4"/>
<path fill-rule="evenodd" clip-rule="evenodd" d="M74.0278 133.102L125.989 103.102L74.0278 133.102Z" fill="#8BC5E4"/>
<path fill-rule="evenodd" clip-rule="evenodd" d="M180.731 206.667L161.254 195.422L213.216 165.422L232.692 176.667L180.731 206.667Z" fill="#8BC5E4"/>
<path fill-rule="evenodd" clip-rule="evenodd" d="M151.009 177.547V172.757L202.97 142.757V147.547L151.009 177.547Z" fill="#8BC5E4"/>
<path fill-rule="evenodd" clip-rule="evenodd" d="M151.009 172.757L190.976 196.002L242.937 166.002L202.97 142.757L151.009 172.757Z" fill="#8BC5E4"/>
<path fill-rule="evenodd" clip-rule="evenodd" d="M190.976 196.002V200.622L242.938 170.622V166.002L190.976 196.002Z" fill="#8BC5E4"/>
<path fill-rule="evenodd" clip-rule="evenodd" d="M190.976 200.622L242.938 170.622L190.976 200.622Z" fill="#8BC5E4"/>
<path fill-rule="evenodd" clip-rule="evenodd" d="M190.976 193.662V171.762L242.938 141.762V163.662L190.976 193.662Z" fill="#8BC5E4"/>
<path fill-rule="evenodd" clip-rule="evenodd" d="M180.731 153.887L45.0508 75.5522L97.0124 45.5522L232.693 123.887L180.731 153.887Z" fill="#8BC5E4"/>
<path fill-rule="evenodd" clip-rule="evenodd" d="M34.8057 81.5973V103.437L86.7672 73.4373V51.5973L34.8057 81.5973Z" fill="#8BC5E4"/>
<path fill-rule="evenodd" clip-rule="evenodd" d="M34.8057 103.437L190.976 193.662L242.937 163.662L86.7672 73.4373L34.8057 103.437Z" fill="#8BC5E4"/>
<path fill-rule="evenodd" clip-rule="evenodd" d="M190.976 193.662L242.938 163.662L190.976 193.662Z" fill="#8BC5E4"/>
<path fill-rule="evenodd" clip-rule="evenodd" d="M37.4814 112.002V110.362L89.4429 80.3623V82.0023L37.4814 112.002Z" fill="#8BC5E4"/>
<path fill-rule="evenodd" clip-rule="evenodd" d="M37.4814 110.362L71.343 129.962L123.305 99.9623L89.4429 80.3623L37.4814 110.362Z" fill="#8BC5E4"/>
<path fill-rule="evenodd" clip-rule="evenodd" d="M71.3433 129.962V131.552L123.305 101.552V99.9623L71.3433 129.962Z" fill="#8BC5E4"/>
<path fill-rule="evenodd" clip-rule="evenodd" d="M63.7743 136.012L45.0508 125.202L97.0124 95.2023L115.736 106.012L63.7743 136.012Z" fill="#8BC5E4"/>
<path fill-rule="evenodd" clip-rule="evenodd" d="M45.0508 125.202L97.0124 95.2023L45.0508 125.202Z" fill="#8BC5E4"/>
<path fill-rule="evenodd" clip-rule="evenodd" d="M37.4814 101.982V83.1423L89.4429 53.1423V71.9823L37.4814 101.982Z" fill="#8BC5E4"/>
<path fill-rule="evenodd" clip-rule="evenodd" d="M45.0508 78.6823L180.731 157.017L232.693 127.017L97.0124 48.6823L45.0508 78.6823Z" fill="#8BC5E4"/>
<path fill-rule="evenodd" clip-rule="evenodd" d="M188.291 170.212V189.092L240.253 159.092V140.212L188.291 170.212Z" fill="#8BC5E4"/>
<path fill-rule="evenodd" clip-rule="evenodd" d="M188.291 189.092L37.4814 101.982L89.4429 71.9823L240.253 159.092L188.291 189.092Z" fill="#8BC5E4"/>
<path fill-rule="evenodd" clip-rule="evenodd" d="M37.4814 101.982L89.4429 71.9823L37.4814 101.982Z" fill="#8BC5E4"/>
<path fill-rule="evenodd" clip-rule="evenodd" d="M153.685 179.092V178.042L205.647 148.042V149.092L153.685 179.092Z" fill="#8BC5E4"/>
<path fill-rule="evenodd" clip-rule="evenodd" d="M153.685 178.042L188.291 197.932L240.253 167.932L205.647 148.042L153.685 178.042Z" fill="#8BC5E4"/>
<path fill-rule="evenodd" clip-rule="evenodd" d="M188.291 197.932V199.072L240.253 169.072V167.932L188.291 197.932Z" fill="#8BC5E4"/>
<path fill-rule="evenodd" clip-rule="evenodd" d="M180.731 203.537L161.254 192.292L213.216 162.292L232.692 173.537L180.731 203.537Z" fill="#8BC5E4"/>
<path fill-rule="evenodd" clip-rule="evenodd" d="M161.254 192.292L213.216 162.292L161.254 192.292Z" fill="#8BC5E4"/>
<path fill-rule="evenodd" clip-rule="evenodd" d="M83.5454 148.707V177.157L135.507 147.157V118.707L83.5454 148.707Z" fill="#8BC5E4"/>
<path fill-rule="evenodd" clip-rule="evenodd" d="M83.5454 177.157L142.175 211.007L194.137 181.007L135.507 147.157L83.5454 177.157Z" fill="#8BC5E4"/>
<path fill-rule="evenodd" clip-rule="evenodd" d="M142.175 211.007V182.557L194.137 152.557V181.007L142.175 211.007Z" fill="#8BC5E4"/>
<path fill-rule="evenodd" clip-rule="evenodd" d="M142.175 182.557L83.5454 148.707L135.507 118.707L194.137 152.557L142.175 182.557Z" fill="#8BC5E4"/>
<path fill-rule="evenodd" clip-rule="evenodd" d="M83.5454 148.707L135.507 118.707L83.5454 148.707Z" fill="#8BC5E4"/>
<path fill-rule="evenodd" clip-rule="evenodd" d="M83.5454 184.287V242.417L135.507 212.417V154.287L83.5454 184.287Z" fill="#8BC5E4"/>
<path fill-rule="evenodd" clip-rule="evenodd" d="M83.5454 242.417L142.089 276.217L194.05 246.217L135.507 212.417L83.5454 242.417Z" fill="#8BC5E4"/>
<path fill-rule="evenodd" clip-rule="evenodd" d="M142.089 276.217V218.087L194.05 188.087V246.217L142.089 276.217Z" fill="#8BC5E4"/>
<path fill-rule="evenodd" clip-rule="evenodd" d="M142.089 218.087L83.5454 184.287L135.507 154.287L194.05 188.087L142.089 218.087Z" fill="#8BC5E4"/>
<path fill-rule="evenodd" clip-rule="evenodd" d="M83.5454 184.287L135.507 154.287L83.5454 184.287Z" fill="#8BC5E4"/>
<path fill-rule="evenodd" clip-rule="evenodd" d="M82.584 142.002L142.729 176.727L194.691 146.727L134.545 112.002L82.584 142.002Z" fill="#8BC5E4"/>
<path fill-rule="evenodd" clip-rule="evenodd" d="M146.341 183.032V281.002L198.302 251.002V153.032L146.341 183.032Z" fill="#8BC5E4"/>
<path fill-rule="evenodd" clip-rule="evenodd" d="M142.729 283.127L82.584 248.402L134.545 218.402L194.691 253.127L142.729 283.127Z" fill="#8BC5E4"/>
<path fill-rule="evenodd" clip-rule="evenodd" d="M78.9644 242.102V144.132L130.926 114.132V212.102L78.9644 242.102Z" fill="#8BC5E4"/>
<path fill-rule="evenodd" clip-rule="evenodd" d="M82.584 142.002L134.545 112.002L82.584 142.002Z" fill="#8BC5E4"/>
<path fill-rule="evenodd" clip-rule="evenodd" d="M211.232 152.827C214.445 154.682 216.965 159.077 216.965 162.847L268.927 132.847C268.927 129.077 266.407 124.682 263.194 122.827L211.232 152.827Z" fill="#8BC5E4"/>
<path fill-rule="evenodd" clip-rule="evenodd" d="M216.965 338.407C216.965 340.366 216.285 341.708 215.181 342.285L267.143 312.285C268.247 311.708 268.927 310.366 268.927 308.407L216.965 338.407Z" fill="#8BC5E4"/>
<path fill-rule="evenodd" clip-rule="evenodd" d="M215.183 342.284C214.162 342.818 212.78 342.699 211.237 341.81L263.198 311.81C264.741 312.699 266.123 312.818 267.144 312.284L215.183 342.284Z" fill="#8BC5E4"/>
<path fill-rule="evenodd" clip-rule="evenodd" d="M10.4702 225.897C7.24862 224.037 4.72852 219.642 4.72852 215.872L56.69 185.872C56.69 189.642 59.2102 194.037 62.4318 195.897L10.4702 225.897Z" fill="#8BC5E4"/>
<path fill-rule="evenodd" clip-rule="evenodd" d="M4.72852 40.3123C4.72802 38.3533 5.40902 37.0113 6.51402 36.4353L58.4755 6.4353C57.3705 7.0113 56.6895 8.3533 56.69 10.3123L4.72852 40.3123Z" fill="#8BC5E4"/>
<path fill-rule="evenodd" clip-rule="evenodd" d="M6.51221 36.4362C7.53421 35.9022 8.91921 36.0222 10.4662 36.9142L62.4277 6.91422C60.8807 6.02222 59.4957 5.90222 58.4737 6.43622L6.51221 36.4362Z" fill="#8BC5E4"/>
<path fill-rule="evenodd" clip-rule="evenodd" d="M76.2881 142.587C76.2879 140.483 77.0529 139.023 78.2729 138.385L130.234 108.385C129.014 109.023 128.249 110.483 128.25 112.587L76.2881 142.587Z" fill="#8BC5E4"/>
<path fill-rule="evenodd" clip-rule="evenodd" d="M78.2852 138.379C79.4112 137.798 80.9222 137.914 82.5792 138.869L134.541 108.869C132.884 107.914 131.373 107.798 130.247 108.379L78.2852 138.379Z" fill="#8BC5E4"/>
<path fill-rule="evenodd" clip-rule="evenodd" d="M142.729 173.597C146.185 175.592 149.017 180.527 149.017 184.577L200.978 154.577C200.978 150.527 198.146 145.592 194.691 143.597L142.729 173.597Z" fill="#8BC5E4"/>
<path fill-rule="evenodd" clip-rule="evenodd" d="M149.017 282.547C149.017 284.649 148.247 286.11 147.02 286.744L198.982 256.744C200.209 256.11 200.979 254.649 200.979 252.547L149.017 282.547Z" fill="#8BC5E4"/>
<path fill-rule="evenodd" clip-rule="evenodd" d="M147.022 286.743C145.897 287.325 144.387 287.212 142.735 286.26L194.696 256.26C196.348 257.212 197.858 257.325 198.983 256.743L147.022 286.743Z" fill="#8BC5E4"/>
<path fill-rule="evenodd" clip-rule="evenodd" d="M82.5841 251.532C79.12 249.532 76.2881 244.587 76.2881 240.557L128.25 210.557C128.25 214.587 131.081 219.532 134.546 221.532L82.5841 251.532Z" fill="#8BC5E4"/>
<path fill-rule="evenodd" clip-rule="evenodd" d="M74.0277 133.102C74.0278 136.539 72.7768 138.921 70.7778 139.952L122.739 109.952C124.738 108.921 125.989 106.539 125.989 103.102L74.0277 133.102Z" fill="#8BC5E4"/>
<path fill-rule="evenodd" clip-rule="evenodd" d="M70.7812 139.95C68.9492 140.897 66.4872 140.706 63.7822 139.147L115.744 109.147C118.449 110.706 120.911 110.897 122.743 109.95L70.7812 139.95Z" fill="#8BC5E4"/>
<path fill-rule="evenodd" clip-rule="evenodd" d="M45.0507 128.332C39.3956 125.067 34.8057 117.047 34.8057 110.457L86.7672 80.4573C86.7672 87.0473 91.3571 95.0673 97.0123 98.3323L45.0507 128.332Z" fill="#8BC5E4"/>
<path fill-rule="evenodd" clip-rule="evenodd" d="M34.8057 81.5973C34.8061 78.1553 36.0541 75.7713 38.0501 74.7413L90.0116 44.7413C88.0156 45.7713 86.7676 48.1553 86.7672 51.5973L34.8057 81.5973Z" fill="#8BC5E4"/>
<path fill-rule="evenodd" clip-rule="evenodd" d="M38.0479 74.7423C39.8779 73.7963 42.3379 73.9883 45.0419 75.5473L97.0034 45.5473C94.2994 43.9883 91.8394 43.7963 90.0093 44.7423L38.0479 74.7423Z" fill="#8BC5E4"/>
<path fill-rule="evenodd" clip-rule="evenodd" d="M180.731 153.887C186.386 157.152 190.976 165.162 190.976 171.762L242.938 141.762C242.938 135.162 238.348 127.152 232.693 123.887L180.731 153.887Z" fill="#8BC5E4"/>
<path fill-rule="evenodd" clip-rule="evenodd" d="M190.976 200.622C190.976 204.059 189.728 206.443 187.731 207.475L239.692 177.475C241.689 176.443 242.937 174.059 242.937 170.622L190.976 200.622Z" fill="#8BC5E4"/>
<path fill-rule="evenodd" clip-rule="evenodd" d="M187.734 207.473C185.903 208.42 183.443 208.231 180.739 206.672L232.7 176.672C235.404 178.231 237.864 178.42 239.695 177.473L187.734 207.473Z" fill="#8BC5E4"/>
<path fill-rule="evenodd" clip-rule="evenodd" d="M161.254 195.422C155.599 192.157 151.009 184.137 151.009 177.547L202.97 147.547C202.97 154.137 207.56 162.157 213.215 165.422L161.254 195.422Z" fill="#8BC5E4"/>
<path fill-rule="evenodd" clip-rule="evenodd" d="M10.4704 36.9172C8.92216 36.0232 7.53616 35.9022 6.51416 36.4352L58.4757 6.43522C59.4977 5.90222 60.8837 6.02322 62.432 6.91722L10.4704 36.9172Z" fill="#8BC5E4"/>
<path fill-rule="evenodd" clip-rule="evenodd" d="M6.516 36.4343C5.41 37.0103 4.73 38.3503 4.729 40.3063L56.6905 10.3063C56.6915 8.35033 57.3715 7.01033 58.4775 6.43433L6.516 36.4343Z" fill="#8BC5E4"/>
<path fill-rule="evenodd" clip-rule="evenodd" d="M4.72852 215.872C4.72852 219.642 7.24862 224.037 10.4702 225.897L62.4318 195.897C59.2102 194.037 56.69 189.642 56.69 185.872L4.72852 215.872Z" fill="#8BC5E4"/>
<path fill-rule="evenodd" clip-rule="evenodd" d="M211.232 341.807C212.776 342.698 214.16 342.819 215.181 342.285L267.143 312.285C266.122 312.819 264.738 312.698 263.194 311.807L211.232 341.807Z" fill="#8BC5E4"/>
<path fill-rule="evenodd" clip-rule="evenodd" d="M215.18 342.285C216.284 341.709 216.964 340.369 216.965 338.413L268.927 308.413C268.926 310.369 268.246 311.709 267.142 312.285L215.18 342.285Z" fill="#8BC5E4"/>
<path fill-rule="evenodd" clip-rule="evenodd" d="M216.965 162.847C216.965 159.077 214.445 154.682 211.232 152.827L263.194 122.827C266.407 124.682 268.927 129.077 268.927 132.847L216.965 162.847Z" fill="#8BC5E4"/>
<path fill-rule="evenodd" clip-rule="evenodd" d="M0 37.5823C0 34.0793 1.276 31.6493 3.313 30.5933L55.2745 0.593262C53.2375 1.64926 51.9615 4.07926 51.9615 7.58226L0 37.5823Z" fill="#8BC5E4"/>
<path fill-rule="evenodd" clip-rule="evenodd" d="M3.3208 30.5883C5.1938 29.6213 7.7078 29.8153 10.4618 31.4023L62.4233 1.40227C59.6693 -0.184727 57.1553 -0.378727 55.2823 0.588273L3.3208 30.5883Z" fill="#8BC5E4"/>
<path fill-rule="evenodd" clip-rule="evenodd" d="M211.232 147.317C216.983 150.637 221.703 158.852 221.703 165.582L273.664 135.582C273.664 128.852 268.944 120.637 263.194 117.317L211.232 147.317Z" fill="#8BC5E4"/>
<path fill-rule="evenodd" clip-rule="evenodd" d="M221.703 341.142C221.703 344.645 220.424 347.074 218.387 348.129L270.349 318.129C272.386 317.074 273.665 314.645 273.664 311.142L221.703 341.142Z" fill="#8BC5E4"/>
<path fill-rule="evenodd" clip-rule="evenodd" d="M218.378 348.134C216.504 349.1 213.991 348.907 211.241 347.322L263.203 317.322C265.953 318.907 268.466 319.1 270.34 318.134L218.378 348.134Z" fill="#8BC5E4"/>
<path fill-rule="evenodd" clip-rule="evenodd" d="M10.4702 231.407C4.7112 228.082 0 219.872 0 213.142L51.9615 183.142C51.9615 189.872 56.6727 198.082 62.4318 201.407L10.4702 231.407Z" fill="#8BC5E4"/>
<path fill-rule="evenodd" clip-rule="evenodd" d="M76.2881 142.587C76.2879 140.483 77.0529 139.023 78.2729 138.385L130.234 108.385C129.014 109.023 128.249 110.483 128.25 112.587L76.2881 142.587Z" fill="#8BC5E4"/>
<path fill-rule="evenodd" clip-rule="evenodd" d="M78.2852 138.379C79.4112 137.798 80.9222 137.914 82.5792 138.869L134.541 108.869C132.884 107.914 131.373 107.798 130.247 108.379L78.2852 138.379Z" fill="#8BC5E4"/>
<path fill-rule="evenodd" clip-rule="evenodd" d="M142.729 173.597C146.185 175.592 149.017 180.527 149.017 184.577L200.978 154.577C200.978 150.527 198.146 145.592 194.691 143.597L142.729 173.597Z" fill="#8BC5E4"/>
<path fill-rule="evenodd" clip-rule="evenodd" d="M149.017 282.547C149.017 284.649 148.247 286.11 147.02 286.744L198.982 256.744C200.209 256.11 200.979 254.649 200.979 252.547L149.017 282.547Z" fill="#8BC5E4"/>
<path fill-rule="evenodd" clip-rule="evenodd" d="M147.022 286.743C145.897 287.325 144.387 287.212 142.735 286.26L194.696 256.26C196.348 257.212 197.858 257.325 198.983 256.743L147.022 286.743Z" fill="#8BC5E4"/>
<path fill-rule="evenodd" clip-rule="evenodd" d="M82.5841 251.532C79.12 249.532 76.2881 244.587 76.2881 240.557L128.25 210.557C128.25 214.587 131.081 219.532 134.546 221.532L82.5841 251.532Z" fill="#8BC5E4"/>
<path fill-rule="evenodd" clip-rule="evenodd" d="M74.0277 133.102C74.0278 136.539 72.7768 138.921 70.7778 139.952L122.739 109.952C124.738 108.921 125.989 106.539 125.989 103.102L74.0277 133.102Z" fill="#8BC5E4"/>
<path fill-rule="evenodd" clip-rule="evenodd" d="M70.7812 139.95C68.9492 140.897 66.4872 140.706 63.7822 139.147L115.744 109.147C118.449 110.706 120.911 110.897 122.743 109.95L70.7812 139.95Z" fill="#8BC5E4"/>
<path fill-rule="evenodd" clip-rule="evenodd" d="M45.0507 128.332C39.3956 125.067 34.8057 117.047 34.8057 110.457L86.7672 80.4573C86.7672 87.0473 91.3571 95.0673 97.0123 98.3323L45.0507 128.332Z" fill="#8BC5E4"/>
<path fill-rule="evenodd" clip-rule="evenodd" d="M190.976 200.622C190.976 204.059 189.728 206.443 187.731 207.475L239.692 177.475C241.689 176.443 242.937 174.059 242.937 170.622L190.976 200.622Z" fill="#8BC5E4"/>
<path fill-rule="evenodd" clip-rule="evenodd" d="M187.734 207.473C185.903 208.42 183.443 208.231 180.739 206.672L232.7 176.672C235.404 178.231 237.864 178.42 239.695 177.473L187.734 207.473Z" fill="#8BC5E4"/>
<path fill-rule="evenodd" clip-rule="evenodd" d="M161.254 195.422C155.599 192.157 151.009 184.137 151.009 177.547L202.97 147.547C202.97 154.137 207.56 162.157 213.215 165.422L161.254 195.422Z" fill="#8BC5E4"/>
<path fill-rule="evenodd" clip-rule="evenodd" d="M190.976 171.762C190.976 165.162 186.386 157.152 180.731 153.887L232.693 123.887C238.348 127.152 242.938 135.162 242.938 141.762L190.976 171.762Z" fill="#8BC5E4"/>
<path fill-rule="evenodd" clip-rule="evenodd" d="M45.0504 75.5523C42.3448 73.9903 39.8818 73.7953 38.0498 74.7413L90.0113 44.7413C91.8433 43.7953 94.3063 43.9903 97.012 45.5523L45.0504 75.5523Z" fill="#8BC5E4"/>
<path fill-rule="evenodd" clip-rule="evenodd" d="M38.0422 74.7452C36.0522 75.7772 34.8082 78.1552 34.8062 81.5872L86.7677 51.5872C86.7696 48.1552 88.0136 45.7772 90.0037 44.7452L38.0422 74.7452Z" fill="#8BC5E4"/>
<path fill-rule="evenodd" clip-rule="evenodd" d="M45.0504 125.202C40.8329 122.767 37.4814 116.922 37.4814 112.002L89.4429 82.0023C89.4429 86.9223 92.7944 92.7673 97.012 95.2023L45.0504 125.202Z" fill="#8BC5E4"/>
<path fill-rule="evenodd" clip-rule="evenodd" d="M71.3431 131.552C71.3429 134.118 70.4319 135.883 68.9609 136.639L120.922 106.639C122.393 105.883 123.304 104.118 123.305 101.552L71.3431 131.552Z" fill="#8BC5E4"/>
<path fill-rule="evenodd" clip-rule="evenodd" d="M68.9628 136.638C67.6148 137.332 65.7968 137.178 63.7798 136.016L115.741 106.016C117.758 107.178 119.576 107.332 120.924 106.638L68.9628 136.638Z" fill="#8BC5E4"/>
<path fill-rule="evenodd" clip-rule="evenodd" d="M37.4814 83.1423C37.4818 80.5763 38.3928 78.8113 39.8628 78.0553L91.8243 48.0553C90.3543 48.8113 89.4433 50.5763 89.4429 53.1423L37.4814 83.1423Z" fill="#8BC5E4"/>
<path fill-rule="evenodd" clip-rule="evenodd" d="M39.8608 78.0563C41.2088 77.3623 43.0278 77.5163 45.0438 78.6783L97.0053 48.6783C94.9893 47.5163 93.1703 47.3623 91.8223 48.0563L39.8608 78.0563Z" fill="#8BC5E4"/>
<path fill-rule="evenodd" clip-rule="evenodd" d="M180.731 157.017C184.949 159.452 188.291 165.292 188.291 170.212L240.253 140.212C240.253 135.292 236.91 129.452 232.693 127.017L180.731 157.017Z" fill="#8BC5E4"/>
<path fill-rule="evenodd" clip-rule="evenodd" d="M161.254 192.292C157.037 189.857 153.685 184.012 153.685 179.092L205.647 149.092C205.647 154.012 208.998 159.857 213.216 162.292L161.254 192.292Z" fill="#8BC5E4"/>
<path fill-rule="evenodd" clip-rule="evenodd" d="M188.291 199.072C188.291 201.638 187.382 203.404 185.914 204.161L237.876 174.161C239.344 173.404 240.253 171.638 240.253 169.072L188.291 199.072Z" fill="#8BC5E4"/>
<path fill-rule="evenodd" clip-rule="evenodd" d="M185.916 204.16C184.57 204.856 182.754 204.703 180.737 203.541L232.698 173.541C234.715 174.703 236.531 174.856 237.877 174.16L185.916 204.16Z" fill="#8BC5E4"/>
<path fill-rule="evenodd" clip-rule="evenodd" d="M142.729 176.727C144.747 177.892 146.341 180.662 146.341 183.032L198.302 153.032C198.302 150.662 196.709 147.892 194.691 146.727L142.729 176.727Z" fill="#8BC5E4"/>
<path fill-rule="evenodd" clip-rule="evenodd" d="M146.341 281.002C146.341 282.228 145.911 283.068 145.215 283.429L197.176 253.429C197.872 253.068 198.302 252.228 198.302 251.002L146.341 281.002Z" fill="#8BC5E4"/>
<path fill-rule="evenodd" clip-rule="evenodd" d="M145.201 283.436C144.56 283.761 143.696 283.683 142.736 283.13L194.697 253.13C195.657 253.683 196.521 253.761 197.162 253.436L145.201 283.436Z" fill="#8BC5E4"/>
<path fill-rule="evenodd" clip-rule="evenodd" d="M82.5844 248.402C80.5579 247.232 78.9644 244.462 78.9644 242.102L130.926 212.102C130.926 214.462 132.519 217.232 134.546 218.402L82.5844 248.402Z" fill="#8BC5E4"/>
<path fill-rule="evenodd" clip-rule="evenodd" d="M78.9644 144.132C78.9642 142.901 79.3942 142.058 80.0922 141.697L132.054 111.697C131.356 112.058 130.926 112.901 130.926 114.132L78.9644 144.132Z" fill="#8BC5E4"/>
<path fill-rule="evenodd" clip-rule="evenodd" d="M80.106 141.69C80.748 141.364 81.614 141.444 82.578 141.999L134.539 111.999C133.575 111.444 132.709 111.364 132.067 111.69L80.106 141.69Z" fill="#8BC5E4"/>
<path fill-rule="evenodd" clip-rule="evenodd" d="M39.7332 144.982L18.5329 150.332L39.7332 180.182V168.202L64.0599 182.247V171.007L39.7332 156.962V144.982ZM83.5455 177.157V148.707L142.175 182.557V211.007L83.5455 177.157ZM83.5455 242.417V184.287L142.089 218.087V276.217L83.5455 242.417ZM42.2967 198.762V186.792L63.5056 216.637L42.2967 221.992V210.022L17.9787 195.982V184.722L42.2967 198.762ZM10.4702 36.9172L211.232 152.827C214.445 154.682 216.965 159.077 216.965 162.847V338.407C216.965 342.177 214.445 343.662 211.232 341.807L10.4702 225.897C7.24863 224.037 4.7285 219.642 4.7285 215.872V40.3122C4.7285 36.5422 7.24863 35.0572 10.4702 36.9172ZM190.976 171.762V193.662L34.8056 103.437V81.5972C34.8056 74.9972 39.3955 72.2872 45.0506 75.5522L180.731 153.887C186.386 157.152 190.976 165.162 190.976 171.762ZM180.731 206.667C186.386 209.932 190.976 207.212 190.976 200.622V196.002L151.009 172.757V177.547C151.009 184.137 155.599 192.157 161.254 195.422L180.731 206.667ZM74.0279 133.102C74.0279 139.692 69.4293 142.407 63.7741 139.142L45.0506 128.332C39.3955 125.067 34.8056 117.047 34.8056 110.457V105.777L74.0279 128.532V133.102ZM82.5842 138.872C79.1201 136.872 76.2882 138.537 76.2882 142.587V240.557C76.2882 244.587 79.1201 249.532 82.5842 251.532L142.73 286.257C146.185 288.252 149.017 286.577 149.017 282.547V184.577C149.017 180.527 146.185 175.592 142.73 173.597L82.5842 138.872ZM181.761 238.612V226.642L202.97 256.487L181.761 261.832V249.862L157.443 235.822V224.572L181.761 238.612ZM179.025 265.282L157.816 270.637L179.025 300.472V288.502L203.343 302.542V291.292L179.025 277.252V265.282Z" fill="white"/>
</svg>
