<svg width="274" height="349" viewBox="0 0 274 349" fill="none" xmlns="http://www.w3.org/2000/svg">
<path fill-rule="evenodd" clip-rule="evenodd" d="M140.894 213.787L145.752 218.032L197.713 188.032L192.855 183.787L140.894 213.787Z" fill="#8BC5E4"/>
<path fill-rule="evenodd" clip-rule="evenodd" d="M145.129 200.142L140.34 198.687L192.301 168.687L197.091 170.142L145.129 200.142Z" fill="#8BC5E4"/>
<path fill-rule="evenodd" clip-rule="evenodd" d="M140.894 213.787L192.855 183.787L140.894 213.787Z" fill="#8BC5E4"/>
<path fill-rule="evenodd" clip-rule="evenodd" d="M103.775 192.357L108.642 196.607L160.604 166.607L155.737 162.357L103.775 192.357Z" fill="#8BC5E4"/>
<path fill-rule="evenodd" clip-rule="evenodd" d="M108.02 178.717L103.23 177.262L155.192 147.262L159.981 148.717L108.02 178.717Z" fill="#8BC5E4"/>
<path fill-rule="evenodd" clip-rule="evenodd" d="M103.775 192.357L155.737 162.357L103.775 192.357Z" fill="#8BC5E4"/>
<path fill-rule="evenodd" clip-rule="evenodd" d="M126.033 140.357L115.771 134.432L167.732 104.432L177.994 110.357L126.033 140.357Z" fill="#8BC5E4"/>
<path fill-rule="evenodd" clip-rule="evenodd" d="M115.771 134.432V162.802L167.732 132.802V104.432L115.771 134.432Z" fill="#8BC5E4"/>
<path fill-rule="evenodd" clip-rule="evenodd" d="M115.771 162.802L106.132 157.237L158.093 127.237L167.732 132.802L115.771 162.802Z" fill="#8BC5E4"/>
<path fill-rule="evenodd" clip-rule="evenodd" d="M106.132 157.237V128.867L158.093 98.8669V127.237L106.132 157.237Z" fill="#8BC5E4"/>
<path fill-rule="evenodd" clip-rule="evenodd" d="M106.132 128.867L95.8691 122.942L147.831 92.9419L158.093 98.8669L106.132 128.867Z" fill="#8BC5E4"/>
<path fill-rule="evenodd" clip-rule="evenodd" d="M95.8691 122.942L110.947 106.907L162.908 76.907L147.831 92.942L95.8691 122.942Z" fill="#8BC5E4"/>
<path fill-rule="evenodd" clip-rule="evenodd" d="M110.946 106.907L126.032 140.357L177.994 110.357L162.908 76.907L110.946 106.907Z" fill="#8BC5E4"/>
<path fill-rule="evenodd" clip-rule="evenodd" d="M126.032 140.357L177.994 110.357L126.032 140.357Z" fill="#8BC5E4"/>
<path fill-rule="evenodd" clip-rule="evenodd" d="M126.033 257.247L115.771 251.322L167.732 221.322L177.994 227.247L126.033 257.247Z" fill="#8BC5E4"/>
<path fill-rule="evenodd" clip-rule="evenodd" d="M115.771 251.322V222.952L167.732 192.952V221.322L115.771 251.322Z" fill="#8BC5E4"/>
<path fill-rule="evenodd" clip-rule="evenodd" d="M115.771 222.952L106.132 217.387L158.093 187.387L167.732 192.952L115.771 222.952Z" fill="#8BC5E4"/>
<path fill-rule="evenodd" clip-rule="evenodd" d="M106.132 217.387V245.757L158.093 215.757V187.387L106.132 217.387Z" fill="#8BC5E4"/>
<path fill-rule="evenodd" clip-rule="evenodd" d="M106.132 245.757L95.8691 239.832L147.831 209.832L158.093 215.757L106.132 245.757Z" fill="#8BC5E4"/>
<path fill-rule="evenodd" clip-rule="evenodd" d="M95.8691 239.832L110.947 273.287L162.908 243.287L147.831 209.832L95.8691 239.832Z" fill="#8BC5E4"/>
<path fill-rule="evenodd" clip-rule="evenodd" d="M110.946 273.287L126.032 257.247L177.994 227.247L162.908 243.287L110.946 273.287Z" fill="#8BC5E4"/>
<path fill-rule="evenodd" clip-rule="evenodd" d="M126.032 257.247L177.994 227.247L126.032 257.247Z" fill="#8BC5E4"/>
<path fill-rule="evenodd" clip-rule="evenodd" d="M179.622 212.147L158.422 217.507L210.383 187.507L231.584 182.147L179.622 212.147Z" fill="#8BC5E4"/>
<path fill-rule="evenodd" clip-rule="evenodd" d="M158.422 217.507L179.622 247.347L231.584 217.347L210.383 187.507L158.422 217.507Z" fill="#8BC5E4"/>
<path fill-rule="evenodd" clip-rule="evenodd" d="M179.622 247.347V235.367L231.584 205.367V217.347L179.622 247.347Z" fill="#8BC5E4"/>
<path fill-rule="evenodd" clip-rule="evenodd" d="M179.622 235.367L203.94 249.407L255.902 219.407L231.584 205.367L179.622 235.367Z" fill="#8BC5E4"/>
<path fill-rule="evenodd" clip-rule="evenodd" d="M203.94 249.407V238.157L255.902 208.157V219.407L203.94 249.407Z" fill="#8BC5E4"/>
<path fill-rule="evenodd" clip-rule="evenodd" d="M203.94 238.157L179.622 224.117L231.584 194.117L255.902 208.157L203.94 238.157Z" fill="#8BC5E4"/>
<path fill-rule="evenodd" clip-rule="evenodd" d="M179.622 224.117V212.147L231.584 182.147V194.117L179.622 224.117Z" fill="#8BC5E4"/>
<path fill-rule="evenodd" clip-rule="evenodd" d="M179.622 212.147L231.584 182.147L179.622 212.147Z" fill="#8BC5E4"/>
<path fill-rule="evenodd" clip-rule="evenodd" d="M42.2705 132.847V144.817L94.232 114.817V102.847L42.2705 132.847Z" fill="#8BC5E4"/>
<path fill-rule="evenodd" clip-rule="evenodd" d="M42.2711 144.817L17.9531 130.777L69.9146 100.777L94.2326 114.817L42.2711 144.817Z" fill="#8BC5E4"/>
<path fill-rule="evenodd" clip-rule="evenodd" d="M17.9531 130.777V142.027L69.9146 112.027V100.777L17.9531 130.777Z" fill="#8BC5E4"/>
<path fill-rule="evenodd" clip-rule="evenodd" d="M17.9531 142.027L42.2711 156.067L94.2326 126.067L69.9146 112.027L17.9531 142.027Z" fill="#8BC5E4"/>
<path fill-rule="evenodd" clip-rule="evenodd" d="M42.2705 156.067V168.047L94.232 138.047V126.067L42.2705 156.067Z" fill="#8BC5E4"/>
<path fill-rule="evenodd" clip-rule="evenodd" d="M42.2705 168.047L63.4795 162.692L115.441 132.692L94.232 138.047L42.2705 168.047Z" fill="#8BC5E4"/>
<path fill-rule="evenodd" clip-rule="evenodd" d="M63.4795 162.692L42.2705 132.847L94.232 102.847L115.441 132.692L63.4795 162.692Z" fill="#8BC5E4"/>
<path fill-rule="evenodd" clip-rule="evenodd" d="M42.2705 132.847L94.232 102.847L42.2705 132.847Z" fill="#8BC5E4"/>
<path fill-rule="evenodd" clip-rule="evenodd" d="M0 37.5819V213.142L51.9615 183.142V7.58191L0 37.5819Z" fill="#8BC5E4"/>
<path fill-rule="evenodd" clip-rule="evenodd" d="M10.4697 231.407L211.232 347.317L263.193 317.317L62.4313 201.407L10.4697 231.407Z" fill="#8BC5E4"/>
<path fill-rule="evenodd" clip-rule="evenodd" d="M221.702 341.142V165.582L273.664 135.582V311.142L221.702 341.142Z" fill="#8BC5E4"/>
<path fill-rule="evenodd" clip-rule="evenodd" d="M211.232 147.317L10.4697 31.407L62.4313 1.40698L263.193 117.317L211.232 147.317Z" fill="#8BC5E4"/>
<path fill-rule="evenodd" clip-rule="evenodd" d="M10.4697 31.407L62.4313 1.40698L10.4697 31.407Z" fill="#8BC5E4"/>
<path fill-rule="evenodd" clip-rule="evenodd" d="M10.4697 36.917L211.232 152.827L263.193 122.827L62.4313 6.91699L10.4697 36.917Z" fill="#8BC5E4"/>
<path fill-rule="evenodd" clip-rule="evenodd" d="M216.965 162.847V338.407L268.926 308.407V132.847L216.965 162.847Z" fill="#8BC5E4"/>
<path fill-rule="evenodd" clip-rule="evenodd" d="M211.232 341.807L10.4697 225.897L62.4313 195.897L263.193 311.807L211.232 341.807Z" fill="#8BC5E4"/>
<path fill-rule="evenodd" clip-rule="evenodd" d="M4.72852 215.872V40.3119L56.69 10.3119V185.872L4.72852 215.872Z" fill="#8BC5E4"/>
<path fill-rule="evenodd" clip-rule="evenodd" d="M10.4697 36.917L62.4313 6.91699L10.4697 36.917Z" fill="#8BC5E4"/>
<path fill-rule="evenodd" clip-rule="evenodd" d="M10.4697 36.917L211.232 152.827L263.193 122.827L62.4313 6.91699L10.4697 36.917Z" fill="#8BC5E4"/>
<path fill-rule="evenodd" clip-rule="evenodd" d="M216.965 162.847V338.407L268.926 308.407V132.847L216.965 162.847Z" fill="#8BC5E4"/>
<path fill-rule="evenodd" clip-rule="evenodd" d="M211.232 341.807L10.4697 225.897L62.4313 195.897L263.193 311.807L211.232 341.807Z" fill="#8BC5E4"/>
<path fill-rule="evenodd" clip-rule="evenodd" d="M4.72852 215.872V40.3119L56.69 10.3119V185.872L4.72852 215.872Z" fill="#8BC5E4"/>
<path fill-rule="evenodd" clip-rule="evenodd" d="M10.4697 36.917L62.4313 6.91699L10.4697 36.917Z" fill="#8BC5E4"/>
<path fill-rule="evenodd" clip-rule="evenodd" d="M145.752 218.032L140.894 213.787L192.855 183.787L197.713 188.032L145.752 218.032Z" fill="#8BC5E4"/>
<path fill-rule="evenodd" clip-rule="evenodd" d="M140.34 198.687L145.129 200.142L197.091 170.142L192.301 168.687L140.34 198.687Z" fill="#8BC5E4"/>
<path fill-rule="evenodd" clip-rule="evenodd" d="M145.752 218.032L197.713 188.032L145.752 218.032Z" fill="#8BC5E4"/>
<path fill-rule="evenodd" clip-rule="evenodd" d="M108.642 196.607L103.775 192.357L155.737 162.357L160.604 166.607L108.642 196.607Z" fill="#8BC5E4"/>
<path fill-rule="evenodd" clip-rule="evenodd" d="M103.23 177.262L108.02 178.717L159.981 148.717L155.192 147.262L103.23 177.262Z" fill="#8BC5E4"/>
<path fill-rule="evenodd" clip-rule="evenodd" d="M108.643 196.607L160.604 166.607L108.643 196.607Z" fill="#8BC5E4"/>
<path fill-rule="evenodd" clip-rule="evenodd" d="M115.771 134.432L126.033 140.357L177.994 110.357L167.732 104.432L115.771 134.432Z" fill="#8BC5E4"/>
<path fill-rule="evenodd" clip-rule="evenodd" d="M126.032 140.357L110.946 106.907L162.908 76.907L177.994 110.357L126.032 140.357Z" fill="#8BC5E4"/>
<path fill-rule="evenodd" clip-rule="evenodd" d="M110.947 106.907L95.8691 122.942L147.831 92.942L162.908 76.907L110.947 106.907Z" fill="#8BC5E4"/>
<path fill-rule="evenodd" clip-rule="evenodd" d="M95.8691 122.942L106.132 128.867L158.093 98.8669L147.831 92.9419L95.8691 122.942Z" fill="#8BC5E4"/>
<path fill-rule="evenodd" clip-rule="evenodd" d="M106.132 128.867V157.237L158.093 127.237V98.8669L106.132 128.867Z" fill="#8BC5E4"/>
<path fill-rule="evenodd" clip-rule="evenodd" d="M106.132 157.237L115.771 162.802L167.732 132.802L158.093 127.237L106.132 157.237Z" fill="#8BC5E4"/>
<path fill-rule="evenodd" clip-rule="evenodd" d="M115.771 162.802V134.432L167.732 104.432V132.802L115.771 162.802Z" fill="#8BC5E4"/>
<path fill-rule="evenodd" clip-rule="evenodd" d="M115.771 134.432L167.732 104.432L115.771 134.432Z" fill="#8BC5E4"/>
<path fill-rule="evenodd" clip-rule="evenodd" d="M115.771 251.322L126.033 257.247L177.994 227.247L167.732 221.322L115.771 251.322Z" fill="#8BC5E4"/>
<path fill-rule="evenodd" clip-rule="evenodd" d="M126.032 257.247L110.946 273.287L162.908 243.287L177.994 227.247L126.032 257.247Z" fill="#8BC5E4"/>
<path fill-rule="evenodd" clip-rule="evenodd" d="M110.947 273.287L95.8691 239.832L147.831 209.832L162.908 243.287L110.947 273.287Z" fill="#8BC5E4"/>
<path fill-rule="evenodd" clip-rule="evenodd" d="M95.8691 239.832L106.132 245.757L158.093 215.757L147.831 209.832L95.8691 239.832Z" fill="#8BC5E4"/>
<path fill-rule="evenodd" clip-rule="evenodd" d="M106.132 245.757V217.387L158.093 187.387V215.757L106.132 245.757Z" fill="#8BC5E4"/>
<path fill-rule="evenodd" clip-rule="evenodd" d="M106.132 217.387L115.771 222.952L167.732 192.952L158.093 187.387L106.132 217.387Z" fill="#8BC5E4"/>
<path fill-rule="evenodd" clip-rule="evenodd" d="M115.771 222.952V251.322L167.732 221.322V192.952L115.771 222.952Z" fill="#8BC5E4"/>
<path fill-rule="evenodd" clip-rule="evenodd" d="M115.771 251.322L167.732 221.322L115.771 251.322Z" fill="#8BC5E4"/>
<path fill-rule="evenodd" clip-rule="evenodd" d="M158.422 217.507L179.622 212.147L231.584 182.147L210.383 187.507L158.422 217.507Z" fill="#8BC5E4"/>
<path fill-rule="evenodd" clip-rule="evenodd" d="M179.622 212.147V224.117L231.584 194.117V182.147L179.622 212.147Z" fill="#8BC5E4"/>
<path fill-rule="evenodd" clip-rule="evenodd" d="M179.622 224.117L203.94 238.157L255.902 208.157L231.584 194.117L179.622 224.117Z" fill="#8BC5E4"/>
<path fill-rule="evenodd" clip-rule="evenodd" d="M203.94 238.157V249.407L255.902 219.407V208.157L203.94 238.157Z" fill="#8BC5E4"/>
<path fill-rule="evenodd" clip-rule="evenodd" d="M203.94 249.407L179.622 235.367L231.584 205.367L255.902 219.407L203.94 249.407Z" fill="#8BC5E4"/>
<path fill-rule="evenodd" clip-rule="evenodd" d="M179.622 235.367V247.347L231.584 217.347V205.367L179.622 235.367Z" fill="#8BC5E4"/>
<path fill-rule="evenodd" clip-rule="evenodd" d="M179.622 247.347L158.422 217.507L210.383 187.507L231.584 217.347L179.622 247.347Z" fill="#8BC5E4"/>
<path fill-rule="evenodd" clip-rule="evenodd" d="M158.422 217.507L210.383 187.507L158.422 217.507Z" fill="#8BC5E4"/>
<path fill-rule="evenodd" clip-rule="evenodd" d="M42.2705 144.817V132.847L94.232 102.847V114.817L42.2705 144.817Z" fill="#8BC5E4"/>
<path fill-rule="evenodd" clip-rule="evenodd" d="M42.2705 132.847L63.4795 162.692L115.441 132.692L94.232 102.847L42.2705 132.847Z" fill="#8BC5E4"/>
<path fill-rule="evenodd" clip-rule="evenodd" d="M63.4795 162.692L42.2705 168.047L94.232 138.047L115.441 132.692L63.4795 162.692Z" fill="#8BC5E4"/>
<path fill-rule="evenodd" clip-rule="evenodd" d="M42.2705 168.047V156.067L94.232 126.067V138.047L42.2705 168.047Z" fill="#8BC5E4"/>
<path fill-rule="evenodd" clip-rule="evenodd" d="M42.2711 156.067L17.9531 142.027L69.9146 112.027L94.2326 126.067L42.2711 156.067Z" fill="#8BC5E4"/>
<path fill-rule="evenodd" clip-rule="evenodd" d="M17.9531 142.027V130.777L69.9146 100.777V112.027L17.9531 142.027Z" fill="#8BC5E4"/>
<path fill-rule="evenodd" clip-rule="evenodd" d="M17.9531 130.777L42.2711 144.817L94.2326 114.817L69.9146 100.777L17.9531 130.777Z" fill="#8BC5E4"/>
<path fill-rule="evenodd" clip-rule="evenodd" d="M42.2705 144.817L94.232 114.817L42.2705 144.817Z" fill="#8BC5E4"/>
<path fill-rule="evenodd" clip-rule="evenodd" d="M145.752 218.032C144.877 221.54 143.393 223.882 141.302 225.056L193.263 195.056C195.354 193.882 196.838 191.54 197.713 188.032L145.752 218.032Z" fill="#8BC5E4"/>
<path fill-rule="evenodd" clip-rule="evenodd" d="M141.308 225.052C140.972 225.241 140.62 225.4 140.252 225.529L192.213 195.529C192.581 195.4 192.933 195.241 193.269 195.052L141.308 225.052Z" fill="#8BC5E4"/>
<path fill-rule="evenodd" clip-rule="evenodd" d="M140.244 225.532C137.6 226.445 134.364 225.797 130.536 223.587L182.498 193.587C186.326 195.797 189.562 196.445 192.206 195.532L140.244 225.532Z" fill="#8BC5E4"/>
<path fill-rule="evenodd" clip-rule="evenodd" d="M130.536 223.587C126.575 221.3 123.348 218.5 120.854 215.187L172.815 185.187C175.309 188.5 178.537 191.3 182.497 193.587L130.536 223.587Z" fill="#8BC5E4"/>
<path fill-rule="evenodd" clip-rule="evenodd" d="M120.854 215.187C118.383 211.867 116.495 208.047 115.19 203.727L167.152 173.727C168.457 178.047 170.345 181.867 172.816 185.187L120.854 215.187Z" fill="#8BC5E4"/>
<path fill-rule="evenodd" clip-rule="evenodd" d="M115.19 203.727C113.902 199.41 113.259 195.205 113.259 191.112L165.22 161.112C165.22 165.205 165.864 169.41 167.152 173.727L115.19 203.727Z" fill="#8BC5E4"/>
<path fill-rule="evenodd" clip-rule="evenodd" d="M113.259 191.112C113.259 186.645 113.986 183.172 115.441 180.692L167.403 150.692C165.948 153.172 165.22 156.645 165.22 161.112L113.259 191.112Z" fill="#8BC5E4"/>
<path fill-rule="evenodd" clip-rule="evenodd" d="M115.441 180.692C116.252 179.314 117.25 178.293 118.436 177.628L170.398 147.628C169.212 148.293 168.214 149.314 167.403 150.692L115.441 180.692Z" fill="#8BC5E4"/>
<path fill-rule="evenodd" clip-rule="evenodd" d="M118.433 177.63C119.392 177.092 120.473 176.788 121.677 176.717L173.638 146.717C172.434 146.788 171.353 147.092 170.394 147.63L118.433 177.63Z" fill="#8BC5E4"/>
<path fill-rule="evenodd" clip-rule="evenodd" d="M121.686 176.717C124.393 176.54 127.37 177.389 130.614 179.262L182.576 149.262C179.331 147.389 176.355 146.54 173.647 146.717L121.686 176.717Z" fill="#8BC5E4"/>
<path fill-rule="evenodd" clip-rule="evenodd" d="M130.614 179.262C134.292 181.385 137.384 184.267 139.889 187.907L191.851 157.907C189.345 154.267 186.253 151.385 182.576 149.262L130.614 179.262Z" fill="#8BC5E4"/>
<path fill-rule="evenodd" clip-rule="evenodd" d="M139.889 187.907C142.4 191.537 144.147 195.615 145.128 200.142L197.09 170.142C196.108 165.615 194.362 161.537 191.85 157.907L139.889 187.907Z" fill="#8BC5E4"/>
<path fill-rule="evenodd" clip-rule="evenodd" d="M140.339 198.687C139.491 195.077 138.252 192.092 136.624 189.732L188.586 159.732C190.214 162.092 191.452 165.077 192.301 168.687L140.339 198.687Z" fill="#8BC5E4"/>
<path fill-rule="evenodd" clip-rule="evenodd" d="M136.624 189.732C135.007 187.372 132.969 185.482 130.51 184.062L182.471 154.062C184.931 155.482 186.969 157.372 188.585 159.732L136.624 189.732Z" fill="#8BC5E4"/>
<path fill-rule="evenodd" clip-rule="evenodd" d="M130.51 184.062C127.686 182.432 125.322 181.86 123.417 182.347L175.378 152.347C177.284 151.86 179.648 152.432 182.471 154.062L130.51 184.062Z" fill="#8BC5E4"/>
<path fill-rule="evenodd" clip-rule="evenodd" d="M123.417 182.347C122.938 182.47 122.494 182.649 122.087 182.884L174.048 152.884C174.455 152.649 174.899 152.47 175.379 152.347L123.417 182.347Z" fill="#8BC5E4"/>
<path fill-rule="evenodd" clip-rule="evenodd" d="M122.088 182.883C120.891 183.573 120.004 184.747 119.427 186.405L171.388 156.405C171.965 154.747 172.852 153.573 174.049 152.883L122.088 182.883Z" fill="#8BC5E4"/>
<path fill-rule="evenodd" clip-rule="evenodd" d="M119.425 186.412C118.657 188.629 118.273 191.15 118.273 193.977L170.235 163.977C170.235 161.15 170.619 158.629 171.387 156.412L119.425 186.412Z" fill="#8BC5E4"/>
<path fill-rule="evenodd" clip-rule="evenodd" d="M118.273 193.977C118.273 197.624 118.724 201.074 119.624 204.327L171.586 174.327C170.685 171.074 170.235 167.624 170.235 163.977L118.273 193.977Z" fill="#8BC5E4"/>
<path fill-rule="evenodd" clip-rule="evenodd" d="M119.624 204.327C120.542 207.564 121.962 210.41 123.885 212.867L175.846 182.867C173.924 180.41 172.504 177.564 171.586 174.327L119.624 204.327Z" fill="#8BC5E4"/>
<path fill-rule="evenodd" clip-rule="evenodd" d="M123.885 212.867C125.813 215.334 127.894 217.212 130.129 218.502L182.09 188.502C179.856 187.212 177.775 185.334 175.846 182.867L123.885 212.867Z" fill="#8BC5E4"/>
<path fill-rule="evenodd" clip-rule="evenodd" d="M130.129 218.502C132.86 220.079 135.169 220.492 137.057 219.742L189.019 189.742C187.131 190.492 184.821 190.079 182.09 188.502L130.129 218.502Z" fill="#8BC5E4"/>
<path fill-rule="evenodd" clip-rule="evenodd" d="M137.058 219.742C137.242 219.669 137.42 219.585 137.593 219.489L189.555 189.489C189.382 189.585 189.204 189.669 189.019 189.742L137.058 219.742Z" fill="#8BC5E4"/>
<path fill-rule="evenodd" clip-rule="evenodd" d="M137.592 219.489C139.187 218.6 140.287 216.703 140.892 213.796L192.853 183.796C192.248 186.703 191.148 188.6 189.553 189.489L137.592 219.489Z" fill="#8BC5E4"/>
<path fill-rule="evenodd" clip-rule="evenodd" d="M108.643 196.607C107.763 200.113 106.274 202.451 104.178 203.622L156.139 173.622C158.235 172.451 159.724 170.113 160.604 166.607L108.643 196.607Z" fill="#8BC5E4"/>
<path fill-rule="evenodd" clip-rule="evenodd" d="M104.184 203.619C103.846 203.807 103.494 203.966 103.125 204.094L155.086 174.094C155.455 173.966 155.807 173.807 156.146 173.619L104.184 203.619Z" fill="#8BC5E4"/>
<path fill-rule="evenodd" clip-rule="evenodd" d="M103.117 204.097C100.479 205.014 97.2458 204.367 93.418 202.157L145.379 172.157C149.207 174.367 152.44 175.014 155.079 174.097L103.117 204.097Z" fill="#8BC5E4"/>
<path fill-rule="evenodd" clip-rule="evenodd" d="M93.4185 202.157C89.4521 199.867 86.2247 197.067 83.7363 193.757L135.698 163.757C138.186 167.067 141.414 169.867 145.38 172.157L93.4185 202.157Z" fill="#8BC5E4"/>
<path fill-rule="evenodd" clip-rule="evenodd" d="M83.736 193.757C81.2592 190.434 79.3683 186.612 78.0635 182.292L130.025 152.292C131.33 156.612 133.221 160.434 135.697 163.757L83.736 193.757Z" fill="#8BC5E4"/>
<path fill-rule="evenodd" clip-rule="evenodd" d="M78.063 182.292C76.7755 177.975 76.1318 173.77 76.1318 169.677L128.093 139.677C128.093 143.77 128.737 147.975 130.025 152.292L78.063 182.292Z" fill="#8BC5E4"/>
<path fill-rule="evenodd" clip-rule="evenodd" d="M76.1318 169.677C76.1318 165.21 76.8593 161.737 78.3142 159.257L130.276 129.257C128.821 131.737 128.093 135.21 128.093 139.677L76.1318 169.677Z" fill="#8BC5E4"/>
<path fill-rule="evenodd" clip-rule="evenodd" d="M78.3145 159.257C79.1318 157.883 80.1338 156.863 81.3208 156.2L133.282 126.2C132.095 126.863 131.093 127.883 130.276 129.257L78.3145 159.257Z" fill="#8BC5E4"/>
<path fill-rule="evenodd" clip-rule="evenodd" d="M81.3184 156.202C82.2774 155.665 83.3584 155.36 84.5604 155.287L136.522 125.287C135.32 125.36 134.239 125.665 133.28 126.202L81.3184 156.202Z" fill="#8BC5E4"/>
<path fill-rule="evenodd" clip-rule="evenodd" d="M84.5674 155.287C87.2694 155.107 90.2427 155.954 93.4874 157.827L145.449 127.827C142.204 125.954 139.231 125.107 136.529 125.287L84.5674 155.287Z" fill="#8BC5E4"/>
<path fill-rule="evenodd" clip-rule="evenodd" d="M93.4873 157.827C97.1708 159.954 100.265 162.837 102.771 166.477L154.733 136.477C152.227 132.837 149.132 129.954 145.449 127.827L93.4873 157.827Z" fill="#8BC5E4"/>
<path fill-rule="evenodd" clip-rule="evenodd" d="M102.771 166.477C105.277 170.104 107.027 174.184 108.02 178.717L159.981 148.717C158.988 144.184 157.239 140.104 154.733 136.477L102.771 166.477Z" fill="#8BC5E4"/>
<path fill-rule="evenodd" clip-rule="evenodd" d="M103.23 177.262C102.37 173.645 101.131 170.66 99.5146 168.307L151.476 138.307C153.093 140.66 154.331 143.645 155.191 147.262L103.23 177.262Z" fill="#8BC5E4"/>
<path fill-rule="evenodd" clip-rule="evenodd" d="M99.5154 168.307C97.893 165.944 95.8521 164.052 93.3926 162.632L145.354 132.632C147.814 134.052 149.855 135.944 151.477 138.307L99.5154 168.307Z" fill="#8BC5E4"/>
<path fill-rule="evenodd" clip-rule="evenodd" d="M93.3924 162.632C90.5634 160.999 88.1962 160.425 86.291 160.912L138.253 130.912C140.158 130.425 142.525 130.999 145.354 132.632L93.3924 162.632Z" fill="#8BC5E4"/>
<path fill-rule="evenodd" clip-rule="evenodd" d="M86.2907 160.912C85.8109 161.035 85.3679 161.214 84.9609 161.449L136.922 131.449C137.329 131.214 137.772 131.035 138.252 130.912L86.2907 160.912Z" fill="#8BC5E4"/>
<path fill-rule="evenodd" clip-rule="evenodd" d="M84.9616 161.448C83.7666 162.139 82.8826 163.314 82.3086 164.975L134.27 134.975C134.844 133.314 135.728 132.139 136.923 131.448L84.9616 161.448Z" fill="#8BC5E4"/>
<path fill-rule="evenodd" clip-rule="evenodd" d="M82.3072 164.982C81.5393 167.199 81.1553 169.72 81.1553 172.547L133.117 142.547C133.117 139.72 133.501 137.199 134.269 134.982L82.3072 164.982Z" fill="#8BC5E4"/>
<path fill-rule="evenodd" clip-rule="evenodd" d="M81.1553 172.547C81.1553 176.194 81.6057 179.644 82.5063 182.897L134.468 152.897C133.567 149.644 133.117 146.194 133.117 142.547L81.1553 172.547Z" fill="#8BC5E4"/>
<path fill-rule="evenodd" clip-rule="evenodd" d="M82.5059 182.897C83.4297 186.137 84.8529 188.985 86.7754 191.442L138.737 161.442C136.814 158.985 135.391 156.137 134.467 152.897L82.5059 182.897Z" fill="#8BC5E4"/>
<path fill-rule="evenodd" clip-rule="evenodd" d="M86.7754 191.442C88.698 193.905 90.7794 195.784 93.0195 197.077L144.981 167.077C142.741 165.784 140.659 163.905 138.737 161.442L86.7754 191.442Z" fill="#8BC5E4"/>
<path fill-rule="evenodd" clip-rule="evenodd" d="M93.0195 197.077C95.7388 198.647 98.0453 199.059 99.939 198.312L151.901 168.312C150.007 169.059 147.7 168.647 144.981 167.077L93.0195 197.077Z" fill="#8BC5E4"/>
<path fill-rule="evenodd" clip-rule="evenodd" d="M99.9395 198.312C100.124 198.239 100.302 198.155 100.475 198.059L152.437 168.059C152.264 168.155 152.086 168.239 151.901 168.312L99.9395 198.312Z" fill="#8BC5E4"/>
<path fill-rule="evenodd" clip-rule="evenodd" d="M100.474 198.059C102.069 197.17 103.169 195.273 103.774 192.366L155.735 162.366C155.13 165.273 154.03 167.17 152.435 168.059L100.474 198.059Z" fill="#8BC5E4"/>
<path fill-rule="evenodd" clip-rule="evenodd" d="M10.4707 31.4069C7.70948 29.8129 5.18848 29.6199 3.31348 30.5929L55.275 0.592884C57.15 -0.380116 59.671 -0.187116 62.4323 1.40688L10.4707 31.4069Z" fill="#8BC5E4"/>
<path fill-rule="evenodd" clip-rule="evenodd" d="M3.315 30.5909C1.28 31.6459 0.003 34.0729 0 37.5719L51.9615 7.57194C51.9645 4.07294 53.2415 1.64594 55.2765 0.590942L3.315 30.5909Z" fill="#8BC5E4"/>
<path fill-rule="evenodd" clip-rule="evenodd" d="M0 213.142C0 219.872 4.7112 228.082 10.4702 231.407L62.4318 201.407C56.6727 198.082 51.9615 189.872 51.9615 183.142L0 213.142Z" fill="#8BC5E4"/>
<path fill-rule="evenodd" clip-rule="evenodd" d="M211.232 347.317C213.99 348.909 216.51 349.102 218.387 348.129L270.349 318.129C268.472 319.102 265.952 318.909 263.194 317.317L211.232 347.317Z" fill="#8BC5E4"/>
<path fill-rule="evenodd" clip-rule="evenodd" d="M218.384 348.131C220.421 347.077 221.7 344.651 221.702 341.152L273.663 311.152C273.661 314.651 272.382 317.077 270.345 318.131L218.384 348.131Z" fill="#8BC5E4"/>
<path fill-rule="evenodd" clip-rule="evenodd" d="M221.703 165.582C221.703 158.852 216.983 150.637 211.232 147.317L263.194 117.317C268.944 120.637 273.664 128.852 273.664 135.582L221.703 165.582Z" fill="#8BC5E4"/>
<path fill-rule="evenodd" clip-rule="evenodd" d="M211.232 152.827C214.445 154.682 216.965 159.077 216.965 162.847L268.927 132.847C268.927 129.077 266.407 124.682 263.194 122.827L211.232 152.827Z" fill="#8BC5E4"/>
<path fill-rule="evenodd" clip-rule="evenodd" d="M216.965 338.407C216.965 340.366 216.285 341.708 215.181 342.285L267.142 312.285C268.246 311.708 268.926 310.366 268.927 308.407L216.965 338.407Z" fill="#8BC5E4"/>
<path fill-rule="evenodd" clip-rule="evenodd" d="M215.183 342.284C214.162 342.818 212.78 342.699 211.237 341.81L263.199 311.81C264.742 312.699 266.124 312.818 267.145 312.284L215.183 342.284Z" fill="#8BC5E4"/>
<path fill-rule="evenodd" clip-rule="evenodd" d="M10.4702 225.897C7.24862 224.037 4.72852 219.642 4.72852 215.872L56.69 185.872C56.69 189.642 59.2102 194.037 62.4318 195.897L10.4702 225.897Z" fill="#8BC5E4"/>
<path fill-rule="evenodd" clip-rule="evenodd" d="M4.72852 40.3119C4.72802 38.3529 5.40902 37.0109 6.51402 36.4349L58.4755 6.43494C57.3705 7.01094 56.6895 8.35294 56.69 10.3119L4.72852 40.3119Z" fill="#8BC5E4"/>
<path fill-rule="evenodd" clip-rule="evenodd" d="M6.51172 36.436C7.53372 35.902 8.91872 36.022 10.4657 36.914L62.4272 6.91398C60.8802 6.02197 59.4952 5.90198 58.4732 6.43598L6.51172 36.436Z" fill="#8BC5E4"/>
<path fill-rule="evenodd" clip-rule="evenodd" d="M211.232 152.827C214.445 154.682 216.965 159.077 216.965 162.847L268.927 132.847C268.927 129.077 266.407 124.682 263.194 122.827L211.232 152.827Z" fill="#8BC5E4"/>
<path fill-rule="evenodd" clip-rule="evenodd" d="M216.965 338.407C216.965 340.366 216.285 341.708 215.181 342.285L267.142 312.285C268.246 311.708 268.926 310.366 268.927 308.407L216.965 338.407Z" fill="#8BC5E4"/>
<path fill-rule="evenodd" clip-rule="evenodd" d="M215.183 342.284C214.162 342.818 212.78 342.699 211.237 341.81L263.199 311.81C264.742 312.699 266.124 312.818 267.145 312.284L215.183 342.284Z" fill="#8BC5E4"/>
<path fill-rule="evenodd" clip-rule="evenodd" d="M10.4702 225.897C7.24862 224.037 4.72852 219.642 4.72852 215.872L56.69 185.872C56.69 189.642 59.2102 194.037 62.4318 195.897L10.4702 225.897Z" fill="#8BC5E4"/>
<path fill-rule="evenodd" clip-rule="evenodd" d="M4.72852 40.3119C4.72802 38.3529 5.40902 37.0109 6.51402 36.4349L58.4755 6.43494C57.3705 7.01094 56.6895 8.35294 56.69 10.3119L4.72852 40.3119Z" fill="#8BC5E4"/>
<path fill-rule="evenodd" clip-rule="evenodd" d="M6.51172 36.436C7.53372 35.902 8.91872 36.022 10.4657 36.914L62.4272 6.91398C60.8802 6.02197 59.4952 5.90198 58.4732 6.43598L6.51172 36.436Z" fill="#8BC5E4"/>
<path fill-rule="evenodd" clip-rule="evenodd" d="M140.893 213.787C140.289 216.699 139.189 218.599 137.593 219.489L189.554 189.489C191.15 188.599 192.25 186.699 192.855 183.787L140.893 213.787Z" fill="#8BC5E4"/>
<path fill-rule="evenodd" clip-rule="evenodd" d="M137.598 219.486C137.425 219.583 137.247 219.667 137.063 219.74L189.025 189.74C189.209 189.667 189.387 189.583 189.56 189.486L137.598 219.486Z" fill="#8BC5E4"/>
<path fill-rule="evenodd" clip-rule="evenodd" d="M137.057 219.742C135.169 220.492 132.86 220.079 130.129 218.502L182.09 188.502C184.821 190.079 187.131 190.492 189.019 189.742L137.057 219.742Z" fill="#8BC5E4"/>
<path fill-rule="evenodd" clip-rule="evenodd" d="M130.129 218.502C127.894 217.212 125.813 215.334 123.885 212.867L175.846 182.867C177.775 185.334 179.856 187.212 182.09 188.502L130.129 218.502Z" fill="#8BC5E4"/>
<path fill-rule="evenodd" clip-rule="evenodd" d="M123.885 212.867C121.962 210.41 120.542 207.564 119.624 204.327L171.586 174.327C172.504 177.564 173.924 180.41 175.846 182.867L123.885 212.867Z" fill="#8BC5E4"/>
<path fill-rule="evenodd" clip-rule="evenodd" d="M119.624 204.327C118.724 201.074 118.273 197.624 118.273 193.977L170.235 163.977C170.235 167.624 170.685 171.074 171.586 174.327L119.624 204.327Z" fill="#8BC5E4"/>
<path fill-rule="evenodd" clip-rule="evenodd" d="M118.273 193.977C118.273 191.15 118.657 188.629 119.425 186.412L171.387 156.412C170.619 158.629 170.235 161.15 170.235 163.977L118.273 193.977Z" fill="#8BC5E4"/>
<path fill-rule="evenodd" clip-rule="evenodd" d="M119.425 186.412C120.002 184.751 120.889 183.575 122.087 182.884L174.048 152.884C172.85 153.575 171.963 154.751 171.386 156.412L119.425 186.412Z" fill="#8BC5E4"/>
<path fill-rule="evenodd" clip-rule="evenodd" d="M122.102 182.875C122.504 182.645 122.941 182.469 123.412 182.348L175.373 152.348C174.902 152.469 174.465 152.645 174.063 152.875L122.102 182.875Z" fill="#8BC5E4"/>
<path fill-rule="evenodd" clip-rule="evenodd" d="M123.417 182.347C125.322 181.86 127.686 182.432 130.51 184.062L182.471 154.062C179.648 152.432 177.284 151.86 175.378 152.347L123.417 182.347Z" fill="#8BC5E4"/>
<path fill-rule="evenodd" clip-rule="evenodd" d="M130.51 184.062C132.969 185.482 135.007 187.372 136.624 189.732L188.585 159.732C186.969 157.372 184.931 155.482 182.471 154.062L130.51 184.062Z" fill="#8BC5E4"/>
<path fill-rule="evenodd" clip-rule="evenodd" d="M136.624 189.732C138.252 192.092 139.491 195.077 140.339 198.687L192.301 168.687C191.452 165.077 190.214 162.092 188.586 159.732L136.624 189.732Z" fill="#8BC5E4"/>
<path fill-rule="evenodd" clip-rule="evenodd" d="M145.128 200.142C144.147 195.615 142.4 191.537 139.889 187.907L191.85 157.907C194.362 161.537 196.108 165.615 197.09 170.142L145.128 200.142Z" fill="#8BC5E4"/>
<path fill-rule="evenodd" clip-rule="evenodd" d="M139.889 187.907C137.384 184.267 134.292 181.385 130.614 179.262L182.576 149.262C186.253 151.385 189.345 154.267 191.851 157.907L139.889 187.907Z" fill="#8BC5E4"/>
<path fill-rule="evenodd" clip-rule="evenodd" d="M130.614 179.262C127.37 177.389 124.393 176.54 121.686 176.717L173.647 146.717C176.355 146.54 179.331 147.389 182.576 149.262L130.614 179.262Z" fill="#8BC5E4"/>
<path fill-rule="evenodd" clip-rule="evenodd" d="M121.685 176.717C120.479 176.787 119.396 177.091 118.436 177.628L170.397 147.628C171.357 147.091 172.44 146.787 173.646 146.717L121.685 176.717Z" fill="#8BC5E4"/>
<path fill-rule="evenodd" clip-rule="evenodd" d="M118.427 177.634C117.247 178.297 116.253 179.314 115.445 180.685L167.407 150.685C168.215 149.314 169.209 148.297 170.389 147.634L118.427 177.634Z" fill="#8BC5E4"/>
<path fill-rule="evenodd" clip-rule="evenodd" d="M115.441 180.692C113.986 183.172 113.259 186.645 113.259 191.112L165.22 161.112C165.22 156.645 165.948 153.172 167.403 150.692L115.441 180.692Z" fill="#8BC5E4"/>
<path fill-rule="evenodd" clip-rule="evenodd" d="M113.259 191.112C113.259 195.205 113.902 199.41 115.19 203.727L167.152 173.727C165.864 169.41 165.22 165.205 165.22 161.112L113.259 191.112Z" fill="#8BC5E4"/>
<path fill-rule="evenodd" clip-rule="evenodd" d="M115.19 203.727C116.495 208.047 118.383 211.867 120.854 215.187L172.816 185.187C170.345 181.867 168.457 178.047 167.152 173.727L115.19 203.727Z" fill="#8BC5E4"/>
<path fill-rule="evenodd" clip-rule="evenodd" d="M120.854 215.187C123.348 218.5 126.575 221.3 130.536 223.587L182.497 193.587C178.537 191.3 175.309 188.5 172.815 185.187L120.854 215.187Z" fill="#8BC5E4"/>
<path fill-rule="evenodd" clip-rule="evenodd" d="M130.536 223.587C134.364 225.797 137.6 226.445 140.244 225.532L192.206 195.532C189.562 196.445 186.326 195.797 182.498 193.587L130.536 223.587Z" fill="#8BC5E4"/>
<path fill-rule="evenodd" clip-rule="evenodd" d="M140.244 225.532C140.612 225.403 140.965 225.245 141.302 225.056L193.263 195.056C192.926 195.245 192.573 195.403 192.206 195.532L140.244 225.532Z" fill="#8BC5E4"/>
<path fill-rule="evenodd" clip-rule="evenodd" d="M141.301 225.056C143.392 223.883 144.875 221.544 145.751 218.038L197.712 188.038C196.836 191.544 195.353 193.883 193.262 195.056L141.301 225.056Z" fill="#8BC5E4"/>
<path fill-rule="evenodd" clip-rule="evenodd" d="M103.775 192.357C103.172 195.269 102.071 197.169 100.475 198.059L152.436 168.059C154.032 167.169 155.133 165.269 155.737 162.357L103.775 192.357Z" fill="#8BC5E4"/>
<path fill-rule="evenodd" clip-rule="evenodd" d="M100.48 198.056C100.307 198.153 100.129 198.237 99.9453 198.31L151.907 168.31C152.091 168.237 152.269 168.153 152.442 168.056L100.48 198.056Z" fill="#8BC5E4"/>
<path fill-rule="evenodd" clip-rule="evenodd" d="M99.939 198.312C98.0453 199.059 95.7388 198.647 93.0195 197.077L144.981 167.077C147.7 168.647 150.007 169.059 151.901 168.312L99.939 198.312Z" fill="#8BC5E4"/>
<path fill-rule="evenodd" clip-rule="evenodd" d="M93.0195 197.077C90.7794 195.784 88.698 193.905 86.7754 191.442L138.737 161.442C140.659 163.905 142.741 165.784 144.981 167.077L93.0195 197.077Z" fill="#8BC5E4"/>
<path fill-rule="evenodd" clip-rule="evenodd" d="M86.7754 191.442C84.8529 188.985 83.4297 186.137 82.5059 182.897L134.467 152.897C135.391 156.137 136.814 158.985 138.737 161.442L86.7754 191.442Z" fill="#8BC5E4"/>
<path fill-rule="evenodd" clip-rule="evenodd" d="M82.5063 182.897C81.6057 179.644 81.1553 176.194 81.1553 172.547L133.117 142.547C133.117 146.194 133.567 149.644 134.468 152.897L82.5063 182.897Z" fill="#8BC5E4"/>
<path fill-rule="evenodd" clip-rule="evenodd" d="M81.1553 172.547C81.1553 169.72 81.5393 167.199 82.3072 164.982L134.269 134.982C133.501 137.199 133.117 139.72 133.117 142.547L81.1553 172.547Z" fill="#8BC5E4"/>
<path fill-rule="evenodd" clip-rule="evenodd" d="M82.3066 164.982C82.8795 163.318 83.7645 162.141 84.9605 161.449L136.922 131.449C135.726 132.141 134.841 133.318 134.268 134.982L82.3066 164.982Z" fill="#8BC5E4"/>
<path fill-rule="evenodd" clip-rule="evenodd" d="M84.9756 161.44C85.3766 161.21 85.8136 161.034 86.2846 160.913L138.246 130.913C137.775 131.034 137.338 131.21 136.937 131.44L84.9756 161.44Z" fill="#8BC5E4"/>
<path fill-rule="evenodd" clip-rule="evenodd" d="M86.291 160.912C88.1962 160.425 90.5634 160.999 93.3924 162.632L145.354 132.632C142.525 130.999 140.158 130.425 138.253 130.912L86.291 160.912Z" fill="#8BC5E4"/>
<path fill-rule="evenodd" clip-rule="evenodd" d="M93.3926 162.632C95.8521 164.052 97.893 165.944 99.5154 168.307L151.477 138.307C149.855 135.944 147.814 134.052 145.354 132.632L93.3926 162.632Z" fill="#8BC5E4"/>
<path fill-rule="evenodd" clip-rule="evenodd" d="M99.5146 168.307C101.131 170.66 102.37 173.645 103.23 177.262L155.191 147.262C154.331 143.645 153.093 140.66 151.476 138.307L99.5146 168.307Z" fill="#8BC5E4"/>
<path fill-rule="evenodd" clip-rule="evenodd" d="M108.02 178.717C107.027 174.184 105.277 170.104 102.771 166.477L154.733 136.477C157.239 140.104 158.988 144.184 159.981 148.717L108.02 178.717Z" fill="#8BC5E4"/>
<path fill-rule="evenodd" clip-rule="evenodd" d="M102.771 166.477C100.265 162.837 97.1708 159.954 93.4873 157.827L145.449 127.827C149.132 129.954 152.227 132.837 154.733 136.477L102.771 166.477Z" fill="#8BC5E4"/>
<path fill-rule="evenodd" clip-rule="evenodd" d="M93.4874 157.827C90.2427 155.954 87.2694 155.107 84.5674 155.287L136.529 125.287C139.231 125.107 142.204 125.954 145.449 127.827L93.4874 157.827Z" fill="#8BC5E4"/>
<path fill-rule="evenodd" clip-rule="evenodd" d="M84.5677 155.287C83.3643 155.359 82.2823 155.663 81.3213 156.2L133.283 126.2C134.244 125.663 135.326 125.359 136.529 125.287L84.5677 155.287Z" fill="#8BC5E4"/>
<path fill-rule="evenodd" clip-rule="evenodd" d="M81.3123 156.205C80.1313 156.868 79.1333 157.883 78.3193 159.25L130.281 129.25C131.095 127.883 132.093 126.868 133.274 126.205L81.3123 156.205Z" fill="#8BC5E4"/>
<path fill-rule="evenodd" clip-rule="evenodd" d="M78.3142 159.257C76.8593 161.737 76.1318 165.21 76.1318 169.677L128.093 139.677C128.093 135.21 128.821 131.737 130.276 129.257L78.3142 159.257Z" fill="#8BC5E4"/>
<path fill-rule="evenodd" clip-rule="evenodd" d="M76.1318 169.677C76.1318 173.77 76.7755 177.975 78.063 182.292L130.025 152.292C128.737 147.975 128.093 143.77 128.093 139.677L76.1318 169.677Z" fill="#8BC5E4"/>
<path fill-rule="evenodd" clip-rule="evenodd" d="M78.0635 182.292C79.3683 186.612 81.2592 190.434 83.736 193.757L135.697 163.757C133.221 160.434 131.33 156.612 130.025 152.292L78.0635 182.292Z" fill="#8BC5E4"/>
<path fill-rule="evenodd" clip-rule="evenodd" d="M83.7363 193.757C86.2247 197.067 89.4521 199.867 93.4185 202.157L145.38 172.157C141.414 169.867 138.186 167.067 135.698 163.757L83.7363 193.757Z" fill="#8BC5E4"/>
<path fill-rule="evenodd" clip-rule="evenodd" d="M93.418 202.157C97.2458 204.367 100.479 205.014 103.117 204.097L155.079 174.097C152.44 175.014 149.207 174.367 145.379 172.157L93.418 202.157Z" fill="#8BC5E4"/>
<path fill-rule="evenodd" clip-rule="evenodd" d="M103.117 204.097C103.487 203.969 103.84 203.811 104.178 203.622L156.139 173.622C155.801 173.811 155.448 173.969 155.079 174.097L103.117 204.097Z" fill="#8BC5E4"/>
<path fill-rule="evenodd" clip-rule="evenodd" d="M104.177 203.622C106.273 202.452 107.761 200.115 108.641 196.613L160.602 166.613C159.722 170.115 158.234 172.452 156.138 173.622L104.177 203.622Z" fill="#8BC5E4"/>
<path fill-rule="evenodd" clip-rule="evenodd" d="M115.77 134.432L126.033 140.357L110.947 106.907L95.869 122.942L106.131 128.867V157.237L115.77 162.802V134.432ZM211.232 152.827L10.4702 36.9169C7.24863 35.0569 4.7285 36.5419 4.7285 40.3119V215.872C4.7285 219.642 7.24863 224.037 10.4702 225.897L211.232 341.807C214.445 343.662 216.965 342.177 216.965 338.407V162.847C216.965 159.077 214.445 154.682 211.232 152.827ZM42.2707 144.817V132.847L63.4797 162.692L42.2707 168.047V156.067L17.9527 142.027V130.777L42.2707 144.817ZM179.622 212.147L158.422 217.507L179.622 247.347V235.367L203.94 249.407V238.157L179.622 224.117V212.147ZM115.77 251.322L126.033 257.247L110.947 273.287L95.869 239.832L106.131 245.757V217.387L115.77 222.952V251.322ZM140.894 213.787L145.752 218.032C144.736 222.105 142.9 224.605 140.244 225.532C137.6 226.445 134.364 225.797 130.536 223.587C126.575 221.3 123.348 218.5 120.854 215.187C118.383 211.867 116.495 208.047 115.19 203.727C113.903 199.41 113.259 195.205 113.259 191.112C113.259 186.645 113.986 183.172 115.441 180.692C116.908 178.199 118.989 176.874 121.685 176.717C124.393 176.54 127.369 177.389 130.614 179.262C134.292 181.385 137.383 184.267 139.889 187.907C142.401 191.537 144.147 195.615 145.129 200.142L140.339 198.687C139.491 195.077 138.252 192.092 136.624 189.732C135.008 187.372 132.97 185.482 130.51 184.062C127.687 182.432 125.323 181.86 123.417 182.347C121.529 182.83 120.199 184.185 119.425 186.412C118.657 188.629 118.273 191.15 118.273 193.977C118.273 197.624 118.723 201.074 119.624 204.327C120.542 207.564 121.962 210.41 123.885 212.867C125.813 215.334 127.895 217.212 130.129 218.502C132.86 220.079 135.169 220.492 137.057 219.742C138.945 218.999 140.224 217.014 140.894 213.787ZM108.643 196.607L103.776 192.357C103.106 195.584 101.827 197.569 99.9393 198.312C98.0456 199.059 95.7391 198.647 93.0198 197.077C90.7797 195.784 88.6983 193.905 86.7757 191.442C84.8532 188.985 83.43 186.137 82.5062 182.897C81.6056 179.644 81.1552 176.194 81.1552 172.547C81.1552 169.72 81.5392 167.199 82.3071 164.982C83.0749 162.752 84.4028 161.395 86.2908 160.912C88.196 160.425 90.5632 160.999 93.3922 162.632C95.8517 164.052 97.8926 165.944 99.515 168.307C101.132 170.66 102.37 173.645 103.23 177.262L108.019 178.717C107.026 174.184 105.277 170.104 102.771 166.477C100.266 162.837 97.1709 159.954 93.4874 157.827C90.2427 155.954 87.2694 155.107 84.5674 155.287C81.8769 155.447 79.7927 156.77 78.3147 159.257C76.8597 161.737 76.1323 165.21 76.1323 169.677C76.1323 173.77 76.776 177.975 78.0635 182.292C79.3683 186.612 81.2592 190.434 83.736 193.757C86.2244 197.067 89.4518 199.867 93.4182 202.157C97.246 204.367 100.479 205.014 103.118 204.097C105.779 203.174 107.621 200.677 108.643 196.607Z" fill="white"/>
</svg>
