<svg width="274" height="349" viewBox="0 0 274 349" fill="none" xmlns="http://www.w3.org/2000/svg">
<path fill-rule="evenodd" clip-rule="evenodd" d="M193.747 213.82L198.19 211.255L146.228 181.255L141.786 183.82L193.747 213.82Z" fill="#8BC5E4"/>
<path fill-rule="evenodd" clip-rule="evenodd" d="M198.19 211.255V240.765L146.229 210.765V181.255L198.19 211.255Z" fill="#8BC5E4"/>
<path fill-rule="evenodd" clip-rule="evenodd" d="M198.19 240.765L193.747 243.33L141.786 213.33L146.228 210.765L198.19 240.765Z" fill="#8BC5E4"/>
<path fill-rule="evenodd" clip-rule="evenodd" d="M193.747 243.33V213.82L141.786 183.82V213.33L193.747 243.33Z" fill="#8BC5E4"/>
<path fill-rule="evenodd" clip-rule="evenodd" d="M193.747 213.82L141.786 183.82L193.747 213.82Z" fill="#8BC5E4"/>
<path fill-rule="evenodd" clip-rule="evenodd" d="M179.917 221.805L184.351 219.245L132.389 189.245L127.955 191.805L179.917 221.805Z" fill="#8BC5E4"/>
<path fill-rule="evenodd" clip-rule="evenodd" d="M184.351 219.245V248.755L132.389 218.755V189.245L184.351 219.245Z" fill="#8BC5E4"/>
<path fill-rule="evenodd" clip-rule="evenodd" d="M184.351 248.755L179.917 251.315L127.955 221.315L132.389 218.755L184.351 248.755Z" fill="#8BC5E4"/>
<path fill-rule="evenodd" clip-rule="evenodd" d="M179.917 251.315V221.805L127.955 191.805V221.315L179.917 251.315Z" fill="#8BC5E4"/>
<path fill-rule="evenodd" clip-rule="evenodd" d="M179.917 221.805L127.955 191.805L179.917 221.805Z" fill="#8BC5E4"/>
<path fill-rule="evenodd" clip-rule="evenodd" d="M218.022 196.775L247.752 179.61L195.791 149.61L166.06 166.775L218.022 196.775Z" fill="#8BC5E4"/>
<path fill-rule="evenodd" clip-rule="evenodd" d="M247.753 179.61V215.18L195.791 185.18V149.61L247.753 179.61Z" fill="#8BC5E4"/>
<path fill-rule="evenodd" clip-rule="evenodd" d="M247.752 215.18L218.022 232.345L166.06 202.345L195.791 185.18L247.752 215.18Z" fill="#8BC5E4"/>
<path fill-rule="evenodd" clip-rule="evenodd" d="M218.022 232.345V196.775L166.06 166.775V202.345L218.022 232.345Z" fill="#8BC5E4"/>
<path fill-rule="evenodd" clip-rule="evenodd" d="M218.022 196.775L166.06 166.775L218.022 196.775Z" fill="#8BC5E4"/>
<path fill-rule="evenodd" clip-rule="evenodd" d="M125.366 248.56L157.383 249.575L105.421 219.575L73.4043 218.56L125.366 248.56Z" fill="#8BC5E4"/>
<path fill-rule="evenodd" clip-rule="evenodd" d="M157.383 249.575L125.366 287.55L73.4043 257.55L105.421 219.575L157.383 249.575Z" fill="#8BC5E4"/>
<path fill-rule="evenodd" clip-rule="evenodd" d="M125.366 287.55V248.56L73.4043 218.56V257.55L125.366 287.55Z" fill="#8BC5E4"/>
<path fill-rule="evenodd" clip-rule="evenodd" d="M125.366 248.56L73.4043 218.56L125.366 248.56Z" fill="#8BC5E4"/>
<path fill-rule="evenodd" clip-rule="evenodd" d="M106.495 278.955L54.5337 248.955L106.495 278.955Z" fill="#8BC5E4"/>
<path fill-rule="evenodd" clip-rule="evenodd" d="M231.489 124.9L210.288 154.73L158.327 124.73L179.527 94.9L231.489 124.9Z" fill="#8BC5E4"/>
<path fill-rule="evenodd" clip-rule="evenodd" d="M210.288 154.73L231.489 160.1L179.527 130.1L158.327 124.73L210.288 154.73Z" fill="#8BC5E4"/>
<path fill-rule="evenodd" clip-rule="evenodd" d="M231.488 160.1V148.12L179.527 118.12V130.1L231.488 160.1Z" fill="#8BC5E4"/>
<path fill-rule="evenodd" clip-rule="evenodd" d="M231.488 148.12L255.806 134.08L203.845 104.08L179.527 118.12L231.488 148.12Z" fill="#8BC5E4"/>
<path fill-rule="evenodd" clip-rule="evenodd" d="M255.806 134.08V122.82L203.845 92.8199V104.08L255.806 134.08Z" fill="#8BC5E4"/>
<path fill-rule="evenodd" clip-rule="evenodd" d="M255.806 122.82L231.488 136.86L179.527 106.86L203.845 92.8199L255.806 122.82Z" fill="#8BC5E4"/>
<path fill-rule="evenodd" clip-rule="evenodd" d="M231.488 136.86V124.9L179.527 94.9V106.86L231.488 136.86Z" fill="#8BC5E4"/>
<path fill-rule="evenodd" clip-rule="evenodd" d="M231.488 124.9L179.527 94.9L231.488 124.9Z" fill="#8BC5E4"/>
<path fill-rule="evenodd" clip-rule="evenodd" d="M234.606 71.65V83.63L182.645 53.63V41.65L234.606 71.65Z" fill="#8BC5E4"/>
<path fill-rule="evenodd" clip-rule="evenodd" d="M234.606 83.63L210.288 97.67L158.327 67.67L182.645 53.63L234.606 83.63Z" fill="#8BC5E4"/>
<path fill-rule="evenodd" clip-rule="evenodd" d="M210.288 97.67V108.91L158.327 78.91V67.67L210.288 97.67Z" fill="#8BC5E4"/>
<path fill-rule="evenodd" clip-rule="evenodd" d="M210.288 108.91L234.606 94.87L182.645 64.87L158.327 78.91L210.288 108.91Z" fill="#8BC5E4"/>
<path fill-rule="evenodd" clip-rule="evenodd" d="M234.606 94.87V106.85L182.645 76.85V64.87L234.606 94.87Z" fill="#8BC5E4"/>
<path fill-rule="evenodd" clip-rule="evenodd" d="M234.606 106.85L255.806 77.02L203.845 47.02L182.645 76.85L234.606 106.85Z" fill="#8BC5E4"/>
<path fill-rule="evenodd" clip-rule="evenodd" d="M255.806 77.02L234.606 71.65L182.645 41.65L203.845 47.02L255.806 77.02Z" fill="#8BC5E4"/>
<path fill-rule="evenodd" clip-rule="evenodd" d="M234.606 71.65L182.645 41.65L234.606 71.65Z" fill="#8BC5E4"/>
<path fill-rule="evenodd" clip-rule="evenodd" d="M95.3233 203.215V215.185L43.3618 185.185V173.215L95.3233 203.215Z" fill="#8BC5E4"/>
<path fill-rule="evenodd" clip-rule="evenodd" d="M95.3234 215.185L71.0054 229.225L19.0439 199.225L43.3619 185.185L95.3234 215.185Z" fill="#8BC5E4"/>
<path fill-rule="evenodd" clip-rule="evenodd" d="M71.0054 229.225V240.475L19.0439 210.475V199.225L71.0054 229.225Z" fill="#8BC5E4"/>
<path fill-rule="evenodd" clip-rule="evenodd" d="M71.0054 240.475L95.3234 226.435L43.3619 196.435L19.0439 210.475L71.0054 240.475Z" fill="#8BC5E4"/>
<path fill-rule="evenodd" clip-rule="evenodd" d="M95.3233 226.435V238.405L43.3618 208.405V196.435L95.3233 226.435Z" fill="#8BC5E4"/>
<path fill-rule="evenodd" clip-rule="evenodd" d="M95.3233 238.405L116.524 208.575L64.5621 178.575L43.3618 208.405L95.3233 238.405Z" fill="#8BC5E4"/>
<path fill-rule="evenodd" clip-rule="evenodd" d="M116.524 208.575L95.3233 203.215L43.3618 173.215L64.5621 178.575L116.524 208.575Z" fill="#8BC5E4"/>
<path fill-rule="evenodd" clip-rule="evenodd" d="M95.3233 203.215L43.3618 173.215L95.3233 203.215Z" fill="#8BC5E4"/>
<path fill-rule="evenodd" clip-rule="evenodd" d="M92.2057 153.865L71.0054 183.715L19.0439 153.715L40.2442 123.865L92.2057 153.865Z" fill="#8BC5E4"/>
<path fill-rule="evenodd" clip-rule="evenodd" d="M71.0054 183.715L92.2057 189.065L40.2442 159.065L19.0439 153.715L71.0054 183.715Z" fill="#8BC5E4"/>
<path fill-rule="evenodd" clip-rule="evenodd" d="M92.2056 189.065V177.085L40.2441 147.085V159.065L92.2056 189.065Z" fill="#8BC5E4"/>
<path fill-rule="evenodd" clip-rule="evenodd" d="M92.2056 177.085L116.524 163.045L64.5621 133.045L40.2441 147.085L92.2056 177.085Z" fill="#8BC5E4"/>
<path fill-rule="evenodd" clip-rule="evenodd" d="M116.524 163.045V151.805L64.562 121.805V133.045L116.524 163.045Z" fill="#8BC5E4"/>
<path fill-rule="evenodd" clip-rule="evenodd" d="M116.524 151.805L92.2056 165.845L40.2441 135.845L64.5621 121.805L116.524 151.805Z" fill="#8BC5E4"/>
<path fill-rule="evenodd" clip-rule="evenodd" d="M92.2056 165.845V153.865L40.2441 123.865V135.845L92.2056 165.845Z" fill="#8BC5E4"/>
<path fill-rule="evenodd" clip-rule="evenodd" d="M92.2056 153.865L40.2441 123.865L92.2056 153.865Z" fill="#8BC5E4"/>
<path fill-rule="evenodd" clip-rule="evenodd" d="M168.65 182.53V199.89L116.688 169.89V152.53L168.65 182.53Z" fill="#8BC5E4"/>
<path fill-rule="evenodd" clip-rule="evenodd" d="M168.65 199.89L202.425 180.39L150.463 150.39L116.688 169.89L168.65 199.89Z" fill="#8BC5E4"/>
<path fill-rule="evenodd" clip-rule="evenodd" d="M202.424 180.39V163.03L150.463 133.03V150.39L202.424 180.39Z" fill="#8BC5E4"/>
<path fill-rule="evenodd" clip-rule="evenodd" d="M185.546 111.525L133.584 81.525L185.546 111.525Z" fill="#8BC5E4"/>
<path fill-rule="evenodd" clip-rule="evenodd" d="M124.543 207.995V225.355L72.5815 195.355V177.995L124.543 207.995Z" fill="#8BC5E4"/>
<path fill-rule="evenodd" clip-rule="evenodd" d="M124.543 225.355L158.318 205.855L106.357 175.855L72.5815 195.355L124.543 225.355Z" fill="#8BC5E4"/>
<path fill-rule="evenodd" clip-rule="evenodd" d="M158.318 205.855V188.495L106.356 158.495V175.855L158.318 205.855Z" fill="#8BC5E4"/>
<path fill-rule="evenodd" clip-rule="evenodd" d="M141.431 136.995L89.4692 106.995L141.431 136.995Z" fill="#8BC5E4"/>
<path fill-rule="evenodd" clip-rule="evenodd" d="M51.9615 165.58V341.14L0 311.14V135.58L51.9615 165.58Z" fill="#8BC5E4"/>
<path fill-rule="evenodd" clip-rule="evenodd" d="M62.4317 347.315L263.194 231.405L211.232 201.405L10.4702 317.315L62.4317 347.315Z" fill="#8BC5E4"/>
<path fill-rule="evenodd" clip-rule="evenodd" d="M273.664 213.14V37.58L221.703 7.57996V183.14L273.664 213.14Z" fill="#8BC5E4"/>
<path fill-rule="evenodd" clip-rule="evenodd" d="M263.194 31.405L62.4317 147.315L10.4702 117.315L211.232 1.40503L263.194 31.405Z" fill="#8BC5E4"/>
<path fill-rule="evenodd" clip-rule="evenodd" d="M62.4317 147.315L10.4702 117.315L62.4317 147.315Z" fill="#8BC5E4"/>
<path fill-rule="evenodd" clip-rule="evenodd" d="M62.4317 152.825L263.194 36.915L211.232 6.91504L10.4702 122.825L62.4317 152.825Z" fill="#8BC5E4"/>
<path fill-rule="evenodd" clip-rule="evenodd" d="M268.927 40.3149V215.875L216.965 185.875V10.3149L268.927 40.3149Z" fill="#8BC5E4"/>
<path fill-rule="evenodd" clip-rule="evenodd" d="M263.194 225.895L62.4317 341.805L10.4702 311.805L211.232 195.895L263.194 225.895Z" fill="#8BC5E4"/>
<path fill-rule="evenodd" clip-rule="evenodd" d="M56.69 338.41V162.85L4.72852 132.85V308.41L56.69 338.41Z" fill="#8BC5E4"/>
<path fill-rule="evenodd" clip-rule="evenodd" d="M62.4317 152.825L10.4702 122.825L62.4317 152.825Z" fill="#8BC5E4"/>
<path fill-rule="evenodd" clip-rule="evenodd" d="M62.4317 152.825L263.194 36.915L211.232 6.91504L10.4702 122.825L62.4317 152.825Z" fill="#8BC5E4"/>
<path fill-rule="evenodd" clip-rule="evenodd" d="M268.927 40.3149V215.875L216.965 185.875V10.3149L268.927 40.3149Z" fill="#8BC5E4"/>
<path fill-rule="evenodd" clip-rule="evenodd" d="M263.194 225.895L62.4317 341.805L10.4702 311.805L211.232 195.895L263.194 225.895Z" fill="#8BC5E4"/>
<path fill-rule="evenodd" clip-rule="evenodd" d="M56.69 338.41V162.85L4.72852 132.85V308.41L56.69 338.41Z" fill="#8BC5E4"/>
<path fill-rule="evenodd" clip-rule="evenodd" d="M62.4317 152.825L10.4702 122.825L62.4317 152.825Z" fill="#8BC5E4"/>
<path fill-rule="evenodd" clip-rule="evenodd" d="M198.19 211.255L193.747 213.82L141.786 183.82L146.228 181.255L198.19 211.255Z" fill="#8BC5E4"/>
<path fill-rule="evenodd" clip-rule="evenodd" d="M193.747 213.82V243.33L141.786 213.33V183.82L193.747 213.82Z" fill="#8BC5E4"/>
<path fill-rule="evenodd" clip-rule="evenodd" d="M193.747 243.33L198.19 240.765L146.228 210.765L141.786 213.33L193.747 243.33Z" fill="#8BC5E4"/>
<path fill-rule="evenodd" clip-rule="evenodd" d="M198.19 240.765V211.255L146.229 181.255V210.765L198.19 240.765Z" fill="#8BC5E4"/>
<path fill-rule="evenodd" clip-rule="evenodd" d="M198.19 211.255L146.229 181.255L198.19 211.255Z" fill="#8BC5E4"/>
<path fill-rule="evenodd" clip-rule="evenodd" d="M184.351 219.245L179.917 221.805L127.955 191.805L132.389 189.245L184.351 219.245Z" fill="#8BC5E4"/>
<path fill-rule="evenodd" clip-rule="evenodd" d="M179.917 221.805V251.315L127.955 221.315V191.805L179.917 221.805Z" fill="#8BC5E4"/>
<path fill-rule="evenodd" clip-rule="evenodd" d="M179.917 251.315L184.351 248.755L132.389 218.755L127.955 221.315L179.917 251.315Z" fill="#8BC5E4"/>
<path fill-rule="evenodd" clip-rule="evenodd" d="M184.351 248.755V219.245L132.389 189.245V218.755L184.351 248.755Z" fill="#8BC5E4"/>
<path fill-rule="evenodd" clip-rule="evenodd" d="M184.351 219.245L132.389 189.245L184.351 219.245Z" fill="#8BC5E4"/>
<path fill-rule="evenodd" clip-rule="evenodd" d="M247.752 179.61L218.022 196.775L166.06 166.775L195.791 149.61L247.752 179.61Z" fill="#8BC5E4"/>
<path fill-rule="evenodd" clip-rule="evenodd" d="M218.022 196.775V232.345L166.06 202.345V166.775L218.022 196.775Z" fill="#8BC5E4"/>
<path fill-rule="evenodd" clip-rule="evenodd" d="M218.022 232.345L247.752 215.18L195.791 185.18L166.06 202.345L218.022 232.345Z" fill="#8BC5E4"/>
<path fill-rule="evenodd" clip-rule="evenodd" d="M247.753 215.18V179.61L195.791 149.61V185.18L247.753 215.18Z" fill="#8BC5E4"/>
<path fill-rule="evenodd" clip-rule="evenodd" d="M247.753 179.61L195.791 149.61L247.753 179.61Z" fill="#8BC5E4"/>
<path fill-rule="evenodd" clip-rule="evenodd" d="M157.383 249.575L125.366 248.56L73.4043 218.56L105.421 219.575L157.383 249.575Z" fill="#8BC5E4"/>
<path fill-rule="evenodd" clip-rule="evenodd" d="M125.366 248.56V287.55L73.4043 257.55V218.56L125.366 248.56Z" fill="#8BC5E4"/>
<path fill-rule="evenodd" clip-rule="evenodd" d="M125.366 287.55L157.383 249.575L105.421 219.575L73.4043 257.55L125.366 287.55Z" fill="#8BC5E4"/>
<path fill-rule="evenodd" clip-rule="evenodd" d="M157.383 249.575L105.421 219.575L157.383 249.575Z" fill="#8BC5E4"/>
<path fill-rule="evenodd" clip-rule="evenodd" d="M91.4005 305.27L39.439 275.27L91.4005 305.27Z" fill="#8BC5E4"/>
<path fill-rule="evenodd" clip-rule="evenodd" d="M210.288 154.73L231.489 124.9L179.527 94.9L158.327 124.73L210.288 154.73Z" fill="#8BC5E4"/>
<path fill-rule="evenodd" clip-rule="evenodd" d="M231.488 124.9V136.86L179.527 106.86V94.9L231.488 124.9Z" fill="#8BC5E4"/>
<path fill-rule="evenodd" clip-rule="evenodd" d="M231.488 136.86L255.806 122.82L203.845 92.8199L179.527 106.86L231.488 136.86Z" fill="#8BC5E4"/>
<path fill-rule="evenodd" clip-rule="evenodd" d="M255.806 122.82V134.08L203.845 104.08V92.8199L255.806 122.82Z" fill="#8BC5E4"/>
<path fill-rule="evenodd" clip-rule="evenodd" d="M255.806 134.08L231.488 148.12L179.527 118.12L203.845 104.08L255.806 134.08Z" fill="#8BC5E4"/>
<path fill-rule="evenodd" clip-rule="evenodd" d="M231.488 148.12V160.1L179.527 130.1V118.12L231.488 148.12Z" fill="#8BC5E4"/>
<path fill-rule="evenodd" clip-rule="evenodd" d="M231.489 160.1L210.288 154.73L158.327 124.73L179.527 130.1L231.489 160.1Z" fill="#8BC5E4"/>
<path fill-rule="evenodd" clip-rule="evenodd" d="M210.288 154.73L158.327 124.73L210.288 154.73Z" fill="#8BC5E4"/>
<path fill-rule="evenodd" clip-rule="evenodd" d="M234.606 83.63V71.65L182.645 41.65V53.63L234.606 83.63Z" fill="#8BC5E4"/>
<path fill-rule="evenodd" clip-rule="evenodd" d="M234.606 71.65L255.806 77.02L203.845 47.02L182.645 41.65L234.606 71.65Z" fill="#8BC5E4"/>
<path fill-rule="evenodd" clip-rule="evenodd" d="M255.806 77.02L234.606 106.85L182.645 76.85L203.845 47.02L255.806 77.02Z" fill="#8BC5E4"/>
<path fill-rule="evenodd" clip-rule="evenodd" d="M234.606 106.85V94.87L182.645 64.87V76.85L234.606 106.85Z" fill="#8BC5E4"/>
<path fill-rule="evenodd" clip-rule="evenodd" d="M234.606 94.87L210.288 108.91L158.327 78.91L182.645 64.87L234.606 94.87Z" fill="#8BC5E4"/>
<path fill-rule="evenodd" clip-rule="evenodd" d="M210.288 108.91V97.67L158.327 67.67V78.91L210.288 108.91Z" fill="#8BC5E4"/>
<path fill-rule="evenodd" clip-rule="evenodd" d="M210.288 97.67L234.606 83.63L182.645 53.63L158.327 67.67L210.288 97.67Z" fill="#8BC5E4"/>
<path fill-rule="evenodd" clip-rule="evenodd" d="M234.606 83.63L182.645 53.63L234.606 83.63Z" fill="#8BC5E4"/>
<path fill-rule="evenodd" clip-rule="evenodd" d="M95.3233 215.185V203.215L43.3618 173.215V185.185L95.3233 215.185Z" fill="#8BC5E4"/>
<path fill-rule="evenodd" clip-rule="evenodd" d="M95.3233 203.215L116.524 208.575L64.5621 178.575L43.3618 173.215L95.3233 203.215Z" fill="#8BC5E4"/>
<path fill-rule="evenodd" clip-rule="evenodd" d="M116.524 208.575L95.3233 238.405L43.3618 208.405L64.5621 178.575L116.524 208.575Z" fill="#8BC5E4"/>
<path fill-rule="evenodd" clip-rule="evenodd" d="M95.3233 238.405V226.435L43.3618 196.435V208.405L95.3233 238.405Z" fill="#8BC5E4"/>
<path fill-rule="evenodd" clip-rule="evenodd" d="M95.3234 226.435L71.0054 240.475L19.0439 210.475L43.3619 196.435L95.3234 226.435Z" fill="#8BC5E4"/>
<path fill-rule="evenodd" clip-rule="evenodd" d="M71.0054 240.475V229.225L19.0439 199.225V210.475L71.0054 240.475Z" fill="#8BC5E4"/>
<path fill-rule="evenodd" clip-rule="evenodd" d="M71.0054 229.225L95.3234 215.185L43.3619 185.185L19.0439 199.225L71.0054 229.225Z" fill="#8BC5E4"/>
<path fill-rule="evenodd" clip-rule="evenodd" d="M95.3233 215.185L43.3618 185.185L95.3233 215.185Z" fill="#8BC5E4"/>
<path fill-rule="evenodd" clip-rule="evenodd" d="M71.0054 183.715L92.2057 153.865L40.2442 123.865L19.0439 153.715L71.0054 183.715Z" fill="#8BC5E4"/>
<path fill-rule="evenodd" clip-rule="evenodd" d="M92.2056 153.865V165.845L40.2441 135.845V123.865L92.2056 153.865Z" fill="#8BC5E4"/>
<path fill-rule="evenodd" clip-rule="evenodd" d="M92.2056 165.845L116.524 151.805L64.5621 121.805L40.2441 135.845L92.2056 165.845Z" fill="#8BC5E4"/>
<path fill-rule="evenodd" clip-rule="evenodd" d="M116.524 151.805V163.045L64.562 133.045V121.805L116.524 151.805Z" fill="#8BC5E4"/>
<path fill-rule="evenodd" clip-rule="evenodd" d="M116.524 163.045L92.2056 177.085L40.2441 147.085L64.5621 133.045L116.524 163.045Z" fill="#8BC5E4"/>
<path fill-rule="evenodd" clip-rule="evenodd" d="M92.2056 177.085V189.065L40.2441 159.065V147.085L92.2056 177.085Z" fill="#8BC5E4"/>
<path fill-rule="evenodd" clip-rule="evenodd" d="M92.2057 189.065L71.0054 183.715L19.0439 153.715L40.2442 159.065L92.2057 189.065Z" fill="#8BC5E4"/>
<path fill-rule="evenodd" clip-rule="evenodd" d="M71.0054 183.715L19.0439 153.715L71.0054 183.715Z" fill="#8BC5E4"/>
<path fill-rule="evenodd" clip-rule="evenodd" d="M202.424 163.03V180.39L150.463 150.39V133.03L202.424 163.03Z" fill="#8BC5E4"/>
<path fill-rule="evenodd" clip-rule="evenodd" d="M202.425 180.39L168.65 199.89L116.688 169.89L150.463 150.39L202.425 180.39Z" fill="#8BC5E4"/>
<path fill-rule="evenodd" clip-rule="evenodd" d="M168.65 199.89V182.53L116.688 152.53V169.89L168.65 199.89Z" fill="#8BC5E4"/>
<path fill-rule="evenodd" clip-rule="evenodd" d="M174.712 123.01L122.75 93.01L174.712 123.01Z" fill="#8BC5E4"/>
<path fill-rule="evenodd" clip-rule="evenodd" d="M158.318 188.495V205.855L106.356 175.855V158.495L158.318 188.495Z" fill="#8BC5E4"/>
<path fill-rule="evenodd" clip-rule="evenodd" d="M158.318 205.855L124.543 225.355L72.5815 195.355L106.357 175.855L158.318 205.855Z" fill="#8BC5E4"/>
<path fill-rule="evenodd" clip-rule="evenodd" d="M124.543 225.355V207.995L72.5815 177.995V195.355L124.543 225.355Z" fill="#8BC5E4"/>
<path fill-rule="evenodd" clip-rule="evenodd" d="M130.605 148.475L78.6436 118.475L130.605 148.475Z" fill="#8BC5E4"/>
<path fill-rule="evenodd" clip-rule="evenodd" d="M106.495 278.955C106.495 288.675 99.7317 300.46 91.4005 305.27L39.439 275.27C47.7701 270.46 54.5338 258.675 54.5338 248.955L106.495 278.955Z" fill="#8BC5E4"/>
<path fill-rule="evenodd" clip-rule="evenodd" d="M91.4002 305.27C87.4134 307.572 83.7884 307.861 81.0904 306.471L29.1289 276.471C31.8269 277.861 35.4519 277.572 39.4387 275.27L91.4002 305.27Z" fill="#8BC5E4"/>
<path fill-rule="evenodd" clip-rule="evenodd" d="M81.0765 306.464C78.1465 304.946 76.3165 301.444 76.3145 296.387L24.353 266.387C24.355 271.444 26.185 274.946 29.115 276.464L81.0765 306.464Z" fill="#8BC5E4"/>
<path fill-rule="evenodd" clip-rule="evenodd" d="M76.314 296.38C76.314 286.66 83.069 274.87 91.4002 270.06L39.4387 240.06C31.1075 244.87 24.3525 256.66 24.3525 266.38L76.314 296.38Z" fill="#8BC5E4"/>
<path fill-rule="evenodd" clip-rule="evenodd" d="M91.4005 270.06C95.0347 267.962 98.5397 267.464 101.274 268.638L49.3122 238.638C46.5782 237.464 43.0732 237.962 39.439 240.06L91.4005 270.06Z" fill="#8BC5E4"/>
<path fill-rule="evenodd" clip-rule="evenodd" d="M101.283 268.642C101.553 268.758 101.816 268.891 102.07 269.04L50.1088 239.04C49.8548 238.891 49.5918 238.758 49.3218 238.642L101.283 268.642Z" fill="#8BC5E4"/>
<path fill-rule="evenodd" clip-rule="evenodd" d="M102.078 269.045C102.337 269.199 102.586 269.369 102.824 269.555L50.8628 239.555C50.6248 239.369 50.3758 239.199 50.1167 239.045L102.078 269.045Z" fill="#8BC5E4"/>
<path fill-rule="evenodd" clip-rule="evenodd" d="M102.824 269.554C105.179 271.387 106.493 274.71 106.495 278.948L54.5338 248.948C54.5318 244.71 53.2178 241.387 50.8628 239.554L102.824 269.554Z" fill="#8BC5E4"/>
<path fill-rule="evenodd" clip-rule="evenodd" d="M185.546 111.525C181.484 113.87 177.587 118 174.712 123.01L122.75 93.01C125.626 88 129.523 83.87 133.584 81.525L185.546 111.525Z" fill="#8BC5E4"/>
<path fill-rule="evenodd" clip-rule="evenodd" d="M174.712 123.01C171.845 128.015 170.226 133.5 170.234 138.235L118.273 108.235C118.264 103.5 119.884 98.015 122.75 93.01L174.712 123.01Z" fill="#8BC5E4"/>
<path fill-rule="evenodd" clip-rule="evenodd" d="M170.234 138.235C170.241 143.039 171.904 146.62 174.77 148.274L122.809 118.274C119.943 116.62 118.28 113.039 118.273 108.235L170.234 138.235Z" fill="#8BC5E4"/>
<path fill-rule="evenodd" clip-rule="evenodd" d="M174.769 148.273C175.1 148.464 175.447 148.629 175.809 148.768L123.847 118.768C123.485 118.629 123.138 118.464 122.807 118.273L174.769 148.273Z" fill="#8BC5E4"/>
<path fill-rule="evenodd" clip-rule="evenodd" d="M175.803 148.766C176.329 148.968 176.887 149.114 177.476 149.199L125.515 119.199C124.926 119.114 124.368 118.968 123.842 118.766L175.803 148.766Z" fill="#8BC5E4"/>
<path fill-rule="evenodd" clip-rule="evenodd" d="M177.483 149.2C171.836 160.27 168.65 172.37 168.65 182.53L116.688 152.53C116.688 142.37 119.875 130.27 125.521 119.2L177.483 149.2Z" fill="#8BC5E4"/>
<path fill-rule="evenodd" clip-rule="evenodd" d="M202.425 163.03C202.425 152.76 198.432 145.205 193.141 140.47L141.179 110.47C146.471 115.205 150.463 122.76 150.463 133.03L202.425 163.03Z" fill="#8BC5E4"/>
<path fill-rule="evenodd" clip-rule="evenodd" d="M193.141 140.47C197.895 134.555 200.831 126.96 200.84 120.565L148.878 90.5649C148.869 96.9599 145.934 104.555 141.179 110.47L193.141 140.47Z" fill="#8BC5E4"/>
<path fill-rule="evenodd" clip-rule="evenodd" d="M200.84 120.565C200.848 116.256 199.52 112.874 197.123 111.024L145.161 81.024C147.558 82.874 148.886 86.256 148.879 90.565L200.84 120.565Z" fill="#8BC5E4"/>
<path fill-rule="evenodd" clip-rule="evenodd" d="M197.13 111.029C196.888 110.842 196.635 110.67 196.372 110.515L144.41 80.515C144.673 80.67 144.926 80.842 145.168 81.029L197.13 111.029Z" fill="#8BC5E4"/>
<path fill-rule="evenodd" clip-rule="evenodd" d="M196.363 110.51C196.099 110.354 195.827 110.216 195.547 110.095L143.586 80.095C143.866 80.216 144.138 80.354 144.401 80.51L196.363 110.51Z" fill="#8BC5E4"/>
<path fill-rule="evenodd" clip-rule="evenodd" d="M195.548 110.096C192.781 108.9 189.23 109.4 185.551 111.522L133.59 81.522C137.269 79.4 140.82 78.9 143.587 80.096L195.548 110.096Z" fill="#8BC5E4"/>
<path fill-rule="evenodd" clip-rule="evenodd" d="M141.43 136.995C137.369 139.34 133.48 143.465 130.605 148.475L78.6436 118.475C81.5188 113.465 85.4073 109.34 89.469 106.995L141.43 136.995Z" fill="#8BC5E4"/>
<path fill-rule="evenodd" clip-rule="evenodd" d="M130.605 148.475C127.739 153.48 126.128 158.96 126.128 163.7L74.1665 133.7C74.1665 128.96 75.7773 123.48 78.6438 118.475L130.605 148.475Z" fill="#8BC5E4"/>
<path fill-rule="evenodd" clip-rule="evenodd" d="M126.128 163.7C126.135 168.504 127.804 172.082 130.671 173.735L78.7091 143.735C75.8421 142.082 74.1731 138.504 74.1665 133.7L126.128 163.7Z" fill="#8BC5E4"/>
<path fill-rule="evenodd" clip-rule="evenodd" d="M130.67 173.734C131.001 173.925 131.348 174.09 131.71 174.229L79.748 144.229C79.386 144.09 79.039 143.925 78.708 143.734L130.67 173.734Z" fill="#8BC5E4"/>
<path fill-rule="evenodd" clip-rule="evenodd" d="M131.705 174.227C132.232 174.428 132.79 174.574 133.379 174.659L81.4172 144.659C80.8282 144.574 80.2702 144.428 79.7432 144.227L131.705 174.227Z" fill="#8BC5E4"/>
<path fill-rule="evenodd" clip-rule="evenodd" d="M133.385 174.66C127.739 185.73 124.543 197.835 124.543 207.995L72.5815 177.995C72.5815 167.835 75.7771 155.73 81.4236 144.66L133.385 174.66Z" fill="#8BC5E4"/>
<path fill-rule="evenodd" clip-rule="evenodd" d="M158.318 188.495C158.318 178.225 154.335 170.665 149.043 165.93L97.0815 135.93C102.373 140.665 106.357 148.225 106.357 158.495L158.318 188.495Z" fill="#8BC5E4"/>
<path fill-rule="evenodd" clip-rule="evenodd" d="M149.043 165.93C153.798 160.005 156.725 152.425 156.733 146.03L104.772 116.03C104.763 122.425 101.836 130.005 97.0815 135.93L149.043 165.93Z" fill="#8BC5E4"/>
<path fill-rule="evenodd" clip-rule="evenodd" d="M156.733 146.03C156.733 141.725 155.404 138.344 153.013 136.49L101.052 106.49C103.443 108.344 104.772 111.725 104.771 116.03L156.733 146.03Z" fill="#8BC5E4"/>
<path fill-rule="evenodd" clip-rule="evenodd" d="M153.02 136.495C152.779 136.308 152.527 136.136 152.264 135.98L100.303 105.98C100.566 106.136 100.818 106.308 101.059 106.495L153.02 136.495Z" fill="#8BC5E4"/>
<path fill-rule="evenodd" clip-rule="evenodd" d="M152.256 135.975C151.992 135.819 151.72 135.681 151.441 135.56L99.48 105.56C99.759 105.681 100.031 105.819 100.294 105.975L152.256 135.975Z" fill="#8BC5E4"/>
<path fill-rule="evenodd" clip-rule="evenodd" d="M151.442 135.561C148.675 134.365 145.124 134.865 141.437 136.992L89.4751 106.992C93.1621 104.865 96.7131 104.365 99.4801 105.561L151.442 135.561Z" fill="#8BC5E4"/>
<path fill-rule="evenodd" clip-rule="evenodd" d="M62.4317 147.315C56.6727 150.64 51.9615 158.85 51.9615 165.58L0 135.58C0 128.85 4.7112 120.64 10.4702 117.315L62.4317 147.315Z" fill="#8BC5E4"/>
<path fill-rule="evenodd" clip-rule="evenodd" d="M51.9615 341.14C51.9615 344.643 53.2375 347.073 55.2745 348.129L3.313 318.129C1.276 317.073 0 314.643 0 311.14L51.9615 341.14Z" fill="#8BC5E4"/>
<path fill-rule="evenodd" clip-rule="evenodd" d="M55.2823 348.134C57.1553 349.101 59.6693 348.907 62.4233 347.32L10.4618 317.32C7.7078 318.907 5.1938 319.101 3.3208 318.134L55.2823 348.134Z" fill="#8BC5E4"/>
<path fill-rule="evenodd" clip-rule="evenodd" d="M263.194 231.405C268.944 228.085 273.664 219.87 273.664 213.14L221.702 183.14C221.702 189.87 216.982 198.085 211.232 201.405L263.194 231.405Z" fill="#8BC5E4"/>
<path fill-rule="evenodd" clip-rule="evenodd" d="M273.664 37.58C273.664 34.077 272.385 31.648 270.348 30.593L218.387 0.593018C220.424 1.64802 221.703 4.07702 221.702 7.58002L273.664 37.58Z" fill="#8BC5E4"/>
<path fill-rule="evenodd" clip-rule="evenodd" d="M270.339 30.588C268.465 29.622 265.952 29.815 263.202 31.4L211.241 1.39997C213.991 -0.185031 216.504 -0.378031 218.378 0.587969L270.339 30.588Z" fill="#8BC5E4"/>
<path fill-rule="evenodd" clip-rule="evenodd" d="M263.194 36.915C264.737 36.024 266.121 35.903 267.142 36.437L215.181 6.43704C214.16 5.90304 212.776 6.02404 211.232 6.91504L263.194 36.915Z" fill="#8BC5E4"/>
<path fill-rule="evenodd" clip-rule="evenodd" d="M267.142 36.437C268.246 37.013 268.926 38.353 268.927 40.309L216.965 10.309C216.964 8.35301 216.284 7.01301 215.18 6.43701L267.142 36.437Z" fill="#8BC5E4"/>
<path fill-rule="evenodd" clip-rule="evenodd" d="M268.927 215.875C268.927 219.645 266.406 224.04 263.194 225.895L211.232 195.895C214.445 194.04 216.965 189.645 216.965 185.875L268.927 215.875Z" fill="#8BC5E4"/>
<path fill-rule="evenodd" clip-rule="evenodd" d="M62.4319 341.805C60.8837 342.699 59.4977 342.82 58.4757 342.287L6.51416 312.287C7.53616 312.82 8.92216 312.699 10.4704 311.805L62.4319 341.805Z" fill="#8BC5E4"/>
<path fill-rule="evenodd" clip-rule="evenodd" d="M58.4775 342.288C57.3715 341.712 56.6915 340.372 56.6905 338.416L4.729 308.416C4.73 310.372 5.41 311.712 6.516 312.288L58.4775 342.288Z" fill="#8BC5E4"/>
<path fill-rule="evenodd" clip-rule="evenodd" d="M56.69 162.85C56.69 159.08 59.2101 154.685 62.4317 152.825L10.4702 122.825C7.24862 124.685 4.72852 129.08 4.72852 132.85L56.69 162.85Z" fill="#8BC5E4"/>
<path fill-rule="evenodd" clip-rule="evenodd" d="M263.194 36.915C264.737 36.024 266.121 35.903 267.142 36.437L215.181 6.43704C214.16 5.90304 212.776 6.02404 211.232 6.91504L263.194 36.915Z" fill="#8BC5E4"/>
<path fill-rule="evenodd" clip-rule="evenodd" d="M267.142 36.437C268.246 37.013 268.926 38.353 268.927 40.309L216.965 10.309C216.964 8.35301 216.284 7.01301 215.18 6.43701L267.142 36.437Z" fill="#8BC5E4"/>
<path fill-rule="evenodd" clip-rule="evenodd" d="M268.927 215.875C268.927 219.645 266.406 224.04 263.194 225.895L211.232 195.895C214.445 194.04 216.965 189.645 216.965 185.875L268.927 215.875Z" fill="#8BC5E4"/>
<path fill-rule="evenodd" clip-rule="evenodd" d="M62.4319 341.805C60.8837 342.699 59.4977 342.82 58.4757 342.287L6.51416 312.287C7.53616 312.82 8.92216 312.699 10.4704 311.805L62.4319 341.805Z" fill="#8BC5E4"/>
<path fill-rule="evenodd" clip-rule="evenodd" d="M58.4775 342.288C57.3715 341.712 56.6915 340.372 56.6905 338.416L4.729 308.416C4.73 310.372 5.41 311.712 6.516 312.288L58.4775 342.288Z" fill="#8BC5E4"/>
<path fill-rule="evenodd" clip-rule="evenodd" d="M56.69 162.85C56.69 159.08 59.2101 154.685 62.4317 152.825L10.4702 122.825C7.24862 124.685 4.72852 129.08 4.72852 132.85L56.69 162.85Z" fill="#8BC5E4"/>
<path fill-rule="evenodd" clip-rule="evenodd" d="M91.4005 305.27C99.7317 300.46 106.495 288.675 106.495 278.955L54.5338 248.955C54.5338 258.675 47.7701 270.46 39.439 275.27L91.4005 305.27Z" fill="#8BC5E4"/>
<path fill-rule="evenodd" clip-rule="evenodd" d="M106.495 278.955C106.495 274.714 105.18 271.388 102.824 269.555L50.8628 239.555C53.2188 241.388 54.5338 244.714 54.5334 248.955L106.495 278.955Z" fill="#8BC5E4"/>
<path fill-rule="evenodd" clip-rule="evenodd" d="M102.832 269.56C102.594 269.375 102.345 269.204 102.086 269.05L50.125 239.05C50.384 239.204 50.632 239.375 50.87 239.56L102.832 269.56Z" fill="#8BC5E4"/>
<path fill-rule="evenodd" clip-rule="evenodd" d="M102.078 269.045C101.819 268.892 101.55 268.756 101.274 268.638L49.312 238.638C49.588 238.756 49.857 238.892 50.1169 239.045L102.078 269.045Z" fill="#8BC5E4"/>
<path fill-rule="evenodd" clip-rule="evenodd" d="M101.273 268.638C98.5403 267.465 95.0383 267.962 91.4063 270.057L39.4448 240.057C43.0768 237.962 46.5788 237.465 49.3118 238.638L101.273 268.638Z" fill="#8BC5E4"/>
<path fill-rule="evenodd" clip-rule="evenodd" d="M91.4002 270.06C83.069 274.87 76.314 286.66 76.314 296.38L24.3525 266.38C24.3525 256.66 31.1075 244.87 39.4387 240.06L91.4002 270.06Z" fill="#8BC5E4"/>
<path fill-rule="evenodd" clip-rule="evenodd" d="M76.314 296.38C76.3144 301.449 78.1514 304.957 81.0904 306.471L29.1289 276.471C26.1899 274.957 24.3529 271.449 24.3525 266.38L76.314 296.38Z" fill="#8BC5E4"/>
<path fill-rule="evenodd" clip-rule="evenodd" d="M81.0885 306.47C83.7845 307.86 87.4085 307.573 91.3945 305.274L39.433 275.274C35.447 277.573 31.823 277.86 29.127 276.47L81.0885 306.47Z" fill="#8BC5E4"/>
<path fill-rule="evenodd" clip-rule="evenodd" d="M174.712 123.01C177.587 118 181.484 113.87 185.546 111.525L133.584 81.525C129.523 83.87 125.626 88 122.75 93.01L174.712 123.01Z" fill="#8BC5E4"/>
<path fill-rule="evenodd" clip-rule="evenodd" d="M185.546 111.525C189.227 109.4 192.78 108.9 195.548 110.095L143.586 80.0949C140.818 78.8999 137.265 79.3999 133.584 81.5249L185.546 111.525Z" fill="#8BC5E4"/>
<path fill-rule="evenodd" clip-rule="evenodd" d="M195.557 110.1C195.831 110.218 196.097 110.353 196.354 110.505L144.393 80.505C144.136 80.353 143.87 80.218 143.596 80.1L195.557 110.1Z" fill="#8BC5E4"/>
<path fill-rule="evenodd" clip-rule="evenodd" d="M196.362 110.51C196.626 110.665 196.879 110.837 197.122 111.024L145.161 81.024C144.918 80.837 144.665 80.665 144.401 80.51L196.362 110.51Z" fill="#8BC5E4"/>
<path fill-rule="evenodd" clip-rule="evenodd" d="M197.122 111.023C199.519 112.873 200.847 116.251 200.84 120.558L148.878 90.5579C148.885 86.2509 147.557 82.8729 145.16 81.0229L197.122 111.023Z" fill="#8BC5E4"/>
<path fill-rule="evenodd" clip-rule="evenodd" d="M200.84 120.565C200.831 126.96 197.895 134.555 193.141 140.47L141.179 110.47C145.934 104.555 148.869 96.9599 148.878 90.5649L200.84 120.565Z" fill="#8BC5E4"/>
<path fill-rule="evenodd" clip-rule="evenodd" d="M193.141 140.47C198.432 145.205 202.425 152.76 202.425 163.03L150.463 133.03C150.463 122.76 146.471 115.205 141.179 110.47L193.141 140.47Z" fill="#8BC5E4"/>
<path fill-rule="evenodd" clip-rule="evenodd" d="M168.65 182.53C168.65 172.37 171.836 160.27 177.483 149.2L125.521 119.2C119.875 130.27 116.688 142.37 116.688 152.53L168.65 182.53Z" fill="#8BC5E4"/>
<path fill-rule="evenodd" clip-rule="evenodd" d="M177.483 149.2C176.894 149.115 176.335 148.97 175.809 148.768L123.847 118.768C124.373 118.97 124.932 119.115 125.522 119.2L177.483 149.2Z" fill="#8BC5E4"/>
<path fill-rule="evenodd" clip-rule="evenodd" d="M175.807 148.768C175.446 148.629 175.1 148.465 174.771 148.274L122.809 118.274C123.138 118.465 123.484 118.629 123.845 118.768L175.807 148.768Z" fill="#8BC5E4"/>
<path fill-rule="evenodd" clip-rule="evenodd" d="M174.771 148.275C171.907 146.622 170.243 143.044 170.234 138.244L118.273 108.244C118.282 113.044 119.946 116.622 122.81 118.275L174.771 148.275Z" fill="#8BC5E4"/>
<path fill-rule="evenodd" clip-rule="evenodd" d="M170.234 138.235C170.226 133.5 171.845 128.015 174.712 123.01L122.75 93.01C119.884 98.015 118.264 103.5 118.273 108.235L170.234 138.235Z" fill="#8BC5E4"/>
<path fill-rule="evenodd" clip-rule="evenodd" d="M130.605 148.475C133.48 143.465 137.369 139.34 141.43 136.995L89.469 106.995C85.4073 109.34 81.5188 113.465 78.6436 118.475L130.605 148.475Z" fill="#8BC5E4"/>
<path fill-rule="evenodd" clip-rule="evenodd" d="M141.431 136.995C145.12 134.865 148.673 134.365 151.442 135.56L99.4801 105.56C96.7111 104.365 93.1581 104.865 89.4692 106.995L141.431 136.995Z" fill="#8BC5E4"/>
<path fill-rule="evenodd" clip-rule="evenodd" d="M151.45 135.565C151.724 135.683 151.99 135.818 152.247 135.97L100.286 105.97C100.029 105.818 99.7628 105.683 99.4888 105.565L151.45 135.565Z" fill="#8BC5E4"/>
<path fill-rule="evenodd" clip-rule="evenodd" d="M152.256 135.975C152.52 136.131 152.772 136.302 153.014 136.49L101.052 106.49C100.81 106.302 100.558 106.131 100.294 105.975L152.256 135.975Z" fill="#8BC5E4"/>
<path fill-rule="evenodd" clip-rule="evenodd" d="M153.013 136.49C155.403 138.342 156.731 141.721 156.733 146.023L104.772 116.023C104.77 111.721 103.442 108.342 101.052 106.49L153.013 136.49Z" fill="#8BC5E4"/>
<path fill-rule="evenodd" clip-rule="evenodd" d="M156.733 146.03C156.725 152.425 153.798 160.005 149.043 165.93L97.0815 135.93C101.836 130.005 104.763 122.425 104.772 116.03L156.733 146.03Z" fill="#8BC5E4"/>
<path fill-rule="evenodd" clip-rule="evenodd" d="M149.043 165.93C154.335 170.665 158.318 178.225 158.318 188.495L106.357 158.495C106.357 148.225 102.373 140.665 97.0815 135.93L149.043 165.93Z" fill="#8BC5E4"/>
<path fill-rule="evenodd" clip-rule="evenodd" d="M124.543 207.995C124.543 197.835 127.739 185.73 133.385 174.66L81.4236 144.66C75.7771 155.73 72.5815 167.835 72.5815 177.995L124.543 207.995Z" fill="#8BC5E4"/>
<path fill-rule="evenodd" clip-rule="evenodd" d="M133.385 174.66C132.796 174.575 132.237 174.43 131.71 174.229L79.748 144.229C80.275 144.43 80.834 144.575 81.4237 144.66L133.385 174.66Z" fill="#8BC5E4"/>
<path fill-rule="evenodd" clip-rule="evenodd" d="M131.707 174.228C131.346 174.09 131 173.925 130.67 173.735L78.709 143.735C79.039 143.925 79.385 144.09 79.746 144.228L131.707 174.228Z" fill="#8BC5E4"/>
<path fill-rule="evenodd" clip-rule="evenodd" d="M130.673 173.735C127.806 172.084 126.137 168.509 126.128 163.709L74.166 133.709C74.175 138.509 75.844 142.084 78.711 143.735L130.673 173.735Z" fill="#8BC5E4"/>
<path fill-rule="evenodd" clip-rule="evenodd" d="M126.128 163.7C126.128 158.96 127.739 153.48 130.605 148.475L78.6438 118.475C75.7773 123.48 74.1665 128.96 74.1665 133.7L126.128 163.7Z" fill="#8BC5E4"/>
<path fill-rule="evenodd" clip-rule="evenodd" d="M62.4317 152.825L263.194 36.915C266.407 35.06 268.927 36.545 268.927 40.315V215.875C268.927 219.645 266.407 224.04 263.194 225.895L62.4317 341.805C59.2101 343.665 56.6899 342.18 56.6899 338.41V162.85C56.6899 159.08 59.2101 154.685 62.4317 152.825ZM198.19 211.255L193.747 213.82V243.33L198.19 240.765V211.255ZM184.351 219.245L179.917 221.805V251.315L184.351 248.755V219.245ZM247.752 179.61L218.022 196.775V232.345L247.752 215.18V179.61ZM157.383 249.575L125.366 248.56V287.55L157.383 249.575ZM91.4002 305.27C99.7314 300.46 106.495 288.675 106.495 278.955C106.495 274.285 104.902 270.725 102.078 269.045C99.2464 267.38 95.4013 267.75 91.4002 270.06C83.0691 274.87 76.3141 286.66 76.3141 296.38C76.3141 306.1 83.0691 310.08 91.4002 305.27ZM210.288 154.73L231.488 124.9V136.86L255.806 122.82V134.08L231.488 148.12V160.1L210.288 154.73ZM234.606 83.63V71.65L255.806 77.02L234.606 106.85V94.87L210.288 108.91V97.67L234.606 83.63ZM95.3233 215.185V203.215L116.524 208.575L95.3233 238.405V226.435L71.0053 240.475V229.225L95.3233 215.185ZM71.0053 183.715L92.2056 153.865V165.845L116.524 151.805V163.045L92.2056 177.085V189.065L71.0053 183.715ZM174.712 123.01C177.587 118 181.484 113.87 185.546 111.525C189.599 109.185 193.496 108.815 196.363 110.51C199.238 112.2 200.849 115.82 200.84 120.565C200.831 126.96 197.895 134.555 193.141 140.47C198.432 145.205 202.425 152.76 202.425 163.03V180.39L168.65 199.89V182.53C168.65 172.37 171.837 160.27 177.483 149.2C172.98 148.55 170.243 144.4 170.235 138.235C170.226 133.5 171.845 128.015 174.712 123.01ZM130.605 148.475C133.48 143.465 137.369 139.34 141.431 136.995C145.492 134.65 149.389 134.28 152.256 135.975C155.122 137.67 156.733 141.29 156.733 146.03C156.725 152.425 153.797 160.005 149.043 165.93C154.334 170.665 158.318 178.225 158.318 188.495V205.855L124.543 225.355V207.995C124.543 197.835 127.739 185.73 133.385 174.66C128.882 174.01 126.136 169.865 126.128 163.7C126.128 158.96 127.739 153.48 130.605 148.475Z" fill="white"/>
</svg>
