<svg width="274" height="349" viewBox="0 0 274 349" fill="none" xmlns="http://www.w3.org/2000/svg">
<path fill-rule="evenodd" clip-rule="evenodd" d="M192.856 179.095L197.714 177.73L145.753 147.73L140.895 149.095L192.856 179.095Z" fill="#8BC5E4"/>
<path fill-rule="evenodd" clip-rule="evenodd" d="M197.09 160.56L192.301 164.635L140.34 134.635L145.129 130.56L197.09 160.56Z" fill="#8BC5E4"/>
<path fill-rule="evenodd" clip-rule="evenodd" d="M192.856 179.095L140.895 149.095L192.856 179.095Z" fill="#8BC5E4"/>
<path fill-rule="evenodd" clip-rule="evenodd" d="M155.738 200.525L160.605 199.155L108.643 169.155L103.776 170.525L155.738 200.525Z" fill="#8BC5E4"/>
<path fill-rule="evenodd" clip-rule="evenodd" d="M159.981 181.985L155.192 186.06L103.23 156.06L108.02 151.985L159.981 181.985Z" fill="#8BC5E4"/>
<path fill-rule="evenodd" clip-rule="evenodd" d="M155.738 200.525L103.776 170.525L155.738 200.525Z" fill="#8BC5E4"/>
<path fill-rule="evenodd" clip-rule="evenodd" d="M177.995 122.825L167.732 128.75L115.771 98.75L126.033 92.825L177.995 122.825Z" fill="#8BC5E4"/>
<path fill-rule="evenodd" clip-rule="evenodd" d="M167.732 128.75V157.12L115.771 127.12V98.75L167.732 128.75Z" fill="#8BC5E4"/>
<path fill-rule="evenodd" clip-rule="evenodd" d="M167.732 157.12L158.093 162.685L106.132 132.685L115.771 127.12L167.732 157.12Z" fill="#8BC5E4"/>
<path fill-rule="evenodd" clip-rule="evenodd" d="M158.093 162.685V134.315L106.132 104.315V132.685L158.093 162.685Z" fill="#8BC5E4"/>
<path fill-rule="evenodd" clip-rule="evenodd" d="M158.093 134.315L147.831 140.24L95.8691 110.24L106.132 104.315L158.093 134.315Z" fill="#8BC5E4"/>
<path fill-rule="evenodd" clip-rule="evenodd" d="M147.831 140.24L162.908 106.795L110.947 76.795L95.8691 110.24L147.831 140.24Z" fill="#8BC5E4"/>
<path fill-rule="evenodd" clip-rule="evenodd" d="M162.909 106.795L177.995 122.825L126.033 92.825L110.947 76.795L162.909 106.795Z" fill="#8BC5E4"/>
<path fill-rule="evenodd" clip-rule="evenodd" d="M177.995 122.825L126.033 92.825L177.995 122.825Z" fill="#8BC5E4"/>
<path fill-rule="evenodd" clip-rule="evenodd" d="M177.995 239.715L167.732 245.64L115.771 215.64L126.033 209.715L177.995 239.715Z" fill="#8BC5E4"/>
<path fill-rule="evenodd" clip-rule="evenodd" d="M167.732 245.64V217.27L115.771 187.27V215.64L167.732 245.64Z" fill="#8BC5E4"/>
<path fill-rule="evenodd" clip-rule="evenodd" d="M167.732 217.27L158.093 222.835L106.132 192.835L115.771 187.27L167.732 217.27Z" fill="#8BC5E4"/>
<path fill-rule="evenodd" clip-rule="evenodd" d="M158.093 222.835V251.205L106.132 221.205V192.835L158.093 222.835Z" fill="#8BC5E4"/>
<path fill-rule="evenodd" clip-rule="evenodd" d="M158.093 251.205L147.831 257.13L95.8691 227.13L106.132 221.205L158.093 251.205Z" fill="#8BC5E4"/>
<path fill-rule="evenodd" clip-rule="evenodd" d="M147.831 257.13L162.908 273.175L110.947 243.175L95.8691 227.13L147.831 257.13Z" fill="#8BC5E4"/>
<path fill-rule="evenodd" clip-rule="evenodd" d="M162.909 273.175L177.995 239.715L126.033 209.715L110.947 243.175L162.909 273.175Z" fill="#8BC5E4"/>
<path fill-rule="evenodd" clip-rule="evenodd" d="M177.995 239.715L126.033 209.715L177.995 239.715Z" fill="#8BC5E4"/>
<path fill-rule="evenodd" clip-rule="evenodd" d="M231.585 132.735L210.384 162.575L158.423 132.575L179.623 102.735L231.585 132.735Z" fill="#8BC5E4"/>
<path fill-rule="evenodd" clip-rule="evenodd" d="M210.384 162.575L231.585 167.935L179.623 137.935L158.423 132.575L210.384 162.575Z" fill="#8BC5E4"/>
<path fill-rule="evenodd" clip-rule="evenodd" d="M231.585 167.935V155.955L179.623 125.955V137.935L231.585 167.935Z" fill="#8BC5E4"/>
<path fill-rule="evenodd" clip-rule="evenodd" d="M231.585 155.955L255.903 141.915L203.941 111.915L179.623 125.955L231.585 155.955Z" fill="#8BC5E4"/>
<path fill-rule="evenodd" clip-rule="evenodd" d="M255.902 141.915V130.665L203.94 100.665V111.915L255.902 141.915Z" fill="#8BC5E4"/>
<path fill-rule="evenodd" clip-rule="evenodd" d="M255.903 130.665L231.585 144.705L179.623 114.705L203.941 100.665L255.903 130.665Z" fill="#8BC5E4"/>
<path fill-rule="evenodd" clip-rule="evenodd" d="M231.585 144.705V132.735L179.623 102.735V114.705L231.585 144.705Z" fill="#8BC5E4"/>
<path fill-rule="evenodd" clip-rule="evenodd" d="M231.585 132.735L179.623 102.735L231.585 132.735Z" fill="#8BC5E4"/>
<path fill-rule="evenodd" clip-rule="evenodd" d="M94.233 212.035V224.005L42.2715 194.005V182.035L94.233 212.035Z" fill="#8BC5E4"/>
<path fill-rule="evenodd" clip-rule="evenodd" d="M94.2326 224.005L69.9146 238.045L17.9531 208.045L42.2711 194.005L94.2326 224.005Z" fill="#8BC5E4"/>
<path fill-rule="evenodd" clip-rule="evenodd" d="M69.9146 238.045V249.295L17.9531 219.295V208.045L69.9146 238.045Z" fill="#8BC5E4"/>
<path fill-rule="evenodd" clip-rule="evenodd" d="M69.9146 249.295L94.2326 235.255L42.2711 205.255L17.9531 219.295L69.9146 249.295Z" fill="#8BC5E4"/>
<path fill-rule="evenodd" clip-rule="evenodd" d="M94.233 235.255V247.235L42.2715 217.235V205.255L94.233 235.255Z" fill="#8BC5E4"/>
<path fill-rule="evenodd" clip-rule="evenodd" d="M94.233 247.235L115.442 217.39L63.4804 187.39L42.2715 217.235L94.233 247.235Z" fill="#8BC5E4"/>
<path fill-rule="evenodd" clip-rule="evenodd" d="M115.442 217.39L94.233 212.035L42.2715 182.035L63.4804 187.39L115.442 217.39Z" fill="#8BC5E4"/>
<path fill-rule="evenodd" clip-rule="evenodd" d="M94.233 212.035L42.2715 182.035L94.233 212.035Z" fill="#8BC5E4"/>
<path fill-rule="evenodd" clip-rule="evenodd" d="M51.9615 165.58V341.14L0 311.14V135.58L51.9615 165.58Z" fill="#8BC5E4"/>
<path fill-rule="evenodd" clip-rule="evenodd" d="M62.4322 347.315L263.194 231.405L211.233 201.405L10.4707 317.315L62.4322 347.315Z" fill="#8BC5E4"/>
<path fill-rule="evenodd" clip-rule="evenodd" d="M273.665 213.14V37.58L221.703 7.57996V183.14L273.665 213.14Z" fill="#8BC5E4"/>
<path fill-rule="evenodd" clip-rule="evenodd" d="M263.194 31.405L62.4322 147.315L10.4707 117.315L211.233 1.40497L263.194 31.405Z" fill="#8BC5E4"/>
<path fill-rule="evenodd" clip-rule="evenodd" d="M62.4322 147.315L10.4707 117.315L62.4322 147.315Z" fill="#8BC5E4"/>
<path fill-rule="evenodd" clip-rule="evenodd" d="M62.4322 152.825L263.194 36.915L211.233 6.91498L10.4707 122.825L62.4322 152.825Z" fill="#8BC5E4"/>
<path fill-rule="evenodd" clip-rule="evenodd" d="M268.927 40.315V215.875L216.966 185.875V10.315L268.927 40.315Z" fill="#8BC5E4"/>
<path fill-rule="evenodd" clip-rule="evenodd" d="M263.194 225.895L62.4322 341.805L10.4707 311.805L211.233 195.895L263.194 225.895Z" fill="#8BC5E4"/>
<path fill-rule="evenodd" clip-rule="evenodd" d="M56.69 338.41V162.85L4.72852 132.85V308.41L56.69 338.41Z" fill="#8BC5E4"/>
<path fill-rule="evenodd" clip-rule="evenodd" d="M62.4322 152.825L10.4707 122.825L62.4322 152.825Z" fill="#8BC5E4"/>
<path fill-rule="evenodd" clip-rule="evenodd" d="M62.4322 152.825L263.194 36.915L211.233 6.91498L10.4707 122.825L62.4322 152.825Z" fill="#8BC5E4"/>
<path fill-rule="evenodd" clip-rule="evenodd" d="M268.927 40.315V215.875L216.966 185.875V10.315L268.927 40.315Z" fill="#8BC5E4"/>
<path fill-rule="evenodd" clip-rule="evenodd" d="M263.194 225.895L62.4322 341.805L10.4707 311.805L211.233 195.895L263.194 225.895Z" fill="#8BC5E4"/>
<path fill-rule="evenodd" clip-rule="evenodd" d="M56.69 338.41V162.85L4.72852 132.85V308.41L56.69 338.41Z" fill="#8BC5E4"/>
<path fill-rule="evenodd" clip-rule="evenodd" d="M62.4322 152.825L10.4707 122.825L62.4322 152.825Z" fill="#8BC5E4"/>
<path fill-rule="evenodd" clip-rule="evenodd" d="M197.714 177.73L192.856 179.095L140.895 149.095L145.753 147.73L197.714 177.73Z" fill="#8BC5E4"/>
<path fill-rule="evenodd" clip-rule="evenodd" d="M192.301 164.635L197.09 160.56L145.129 130.56L140.34 134.635L192.301 164.635Z" fill="#8BC5E4"/>
<path fill-rule="evenodd" clip-rule="evenodd" d="M197.714 177.73L145.753 147.73L197.714 177.73Z" fill="#8BC5E4"/>
<path fill-rule="evenodd" clip-rule="evenodd" d="M160.605 199.155L155.738 200.525L103.776 170.525L108.643 169.155L160.605 199.155Z" fill="#8BC5E4"/>
<path fill-rule="evenodd" clip-rule="evenodd" d="M155.192 186.06L159.981 181.985L108.02 151.985L103.23 156.06L155.192 186.06Z" fill="#8BC5E4"/>
<path fill-rule="evenodd" clip-rule="evenodd" d="M160.605 199.155L108.644 169.155L160.605 199.155Z" fill="#8BC5E4"/>
<path fill-rule="evenodd" clip-rule="evenodd" d="M167.732 128.75L177.995 122.825L126.033 92.825L115.771 98.75L167.732 128.75Z" fill="#8BC5E4"/>
<path fill-rule="evenodd" clip-rule="evenodd" d="M177.995 122.825L162.909 106.795L110.947 76.795L126.033 92.825L177.995 122.825Z" fill="#8BC5E4"/>
<path fill-rule="evenodd" clip-rule="evenodd" d="M162.908 106.795L147.831 140.24L95.8691 110.24L110.947 76.795L162.908 106.795Z" fill="#8BC5E4"/>
<path fill-rule="evenodd" clip-rule="evenodd" d="M147.831 140.24L158.093 134.315L106.132 104.315L95.8691 110.24L147.831 140.24Z" fill="#8BC5E4"/>
<path fill-rule="evenodd" clip-rule="evenodd" d="M158.093 134.315V162.685L106.132 132.685V104.315L158.093 134.315Z" fill="#8BC5E4"/>
<path fill-rule="evenodd" clip-rule="evenodd" d="M158.093 162.685L167.732 157.12L115.771 127.12L106.132 132.685L158.093 162.685Z" fill="#8BC5E4"/>
<path fill-rule="evenodd" clip-rule="evenodd" d="M167.732 157.12V128.75L115.771 98.75V127.12L167.732 157.12Z" fill="#8BC5E4"/>
<path fill-rule="evenodd" clip-rule="evenodd" d="M167.732 128.75L115.771 98.75L167.732 128.75Z" fill="#8BC5E4"/>
<path fill-rule="evenodd" clip-rule="evenodd" d="M167.732 245.64L177.995 239.715L126.033 209.715L115.771 215.64L167.732 245.64Z" fill="#8BC5E4"/>
<path fill-rule="evenodd" clip-rule="evenodd" d="M177.995 239.715L162.909 273.175L110.947 243.175L126.033 209.715L177.995 239.715Z" fill="#8BC5E4"/>
<path fill-rule="evenodd" clip-rule="evenodd" d="M162.908 273.175L147.831 257.13L95.8691 227.13L110.947 243.175L162.908 273.175Z" fill="#8BC5E4"/>
<path fill-rule="evenodd" clip-rule="evenodd" d="M147.831 257.13L158.093 251.205L106.132 221.205L95.8691 227.13L147.831 257.13Z" fill="#8BC5E4"/>
<path fill-rule="evenodd" clip-rule="evenodd" d="M158.093 251.205V222.835L106.132 192.835V221.205L158.093 251.205Z" fill="#8BC5E4"/>
<path fill-rule="evenodd" clip-rule="evenodd" d="M158.093 222.835L167.732 217.27L115.771 187.27L106.132 192.835L158.093 222.835Z" fill="#8BC5E4"/>
<path fill-rule="evenodd" clip-rule="evenodd" d="M167.732 217.27V245.64L115.771 215.64V187.27L167.732 217.27Z" fill="#8BC5E4"/>
<path fill-rule="evenodd" clip-rule="evenodd" d="M167.732 245.64L115.771 215.64L167.732 245.64Z" fill="#8BC5E4"/>
<path fill-rule="evenodd" clip-rule="evenodd" d="M210.384 162.575L231.585 132.735L179.623 102.735L158.423 132.575L210.384 162.575Z" fill="#8BC5E4"/>
<path fill-rule="evenodd" clip-rule="evenodd" d="M231.585 132.735V144.705L179.623 114.705V102.735L231.585 132.735Z" fill="#8BC5E4"/>
<path fill-rule="evenodd" clip-rule="evenodd" d="M231.585 144.705L255.903 130.665L203.941 100.665L179.623 114.705L231.585 144.705Z" fill="#8BC5E4"/>
<path fill-rule="evenodd" clip-rule="evenodd" d="M255.902 130.665V141.915L203.94 111.915V100.665L255.902 130.665Z" fill="#8BC5E4"/>
<path fill-rule="evenodd" clip-rule="evenodd" d="M255.903 141.915L231.585 155.955L179.623 125.955L203.941 111.915L255.903 141.915Z" fill="#8BC5E4"/>
<path fill-rule="evenodd" clip-rule="evenodd" d="M231.585 155.955V167.935L179.623 137.935V125.955L231.585 155.955Z" fill="#8BC5E4"/>
<path fill-rule="evenodd" clip-rule="evenodd" d="M231.585 167.935L210.384 162.575L158.423 132.575L179.623 137.935L231.585 167.935Z" fill="#8BC5E4"/>
<path fill-rule="evenodd" clip-rule="evenodd" d="M210.384 162.575L158.423 132.575L210.384 162.575Z" fill="#8BC5E4"/>
<path fill-rule="evenodd" clip-rule="evenodd" d="M94.233 224.005V212.035L42.2715 182.035V194.005L94.233 224.005Z" fill="#8BC5E4"/>
<path fill-rule="evenodd" clip-rule="evenodd" d="M94.233 212.035L115.442 217.39L63.4804 187.39L42.2715 182.035L94.233 212.035Z" fill="#8BC5E4"/>
<path fill-rule="evenodd" clip-rule="evenodd" d="M115.442 217.39L94.233 247.235L42.2715 217.235L63.4804 187.39L115.442 217.39Z" fill="#8BC5E4"/>
<path fill-rule="evenodd" clip-rule="evenodd" d="M94.233 247.235V235.255L42.2715 205.255V217.235L94.233 247.235Z" fill="#8BC5E4"/>
<path fill-rule="evenodd" clip-rule="evenodd" d="M94.2326 235.255L69.9146 249.295L17.9531 219.295L42.2711 205.255L94.2326 235.255Z" fill="#8BC5E4"/>
<path fill-rule="evenodd" clip-rule="evenodd" d="M69.9146 249.295V238.045L17.9531 208.045V219.295L69.9146 249.295Z" fill="#8BC5E4"/>
<path fill-rule="evenodd" clip-rule="evenodd" d="M69.9146 238.045L94.2326 224.005L42.2711 194.005L17.9531 208.045L69.9146 238.045Z" fill="#8BC5E4"/>
<path fill-rule="evenodd" clip-rule="evenodd" d="M94.233 224.005L42.2715 194.005L94.233 224.005Z" fill="#8BC5E4"/>
<path fill-rule="evenodd" clip-rule="evenodd" d="M197.714 177.73C196.697 182.977 194.862 187.597 192.206 191.59L140.244 161.59C142.9 157.597 144.736 152.977 145.752 147.73L197.714 177.73Z" fill="#8BC5E4"/>
<path fill-rule="evenodd" clip-rule="evenodd" d="M192.206 191.59C189.562 195.557 186.325 198.645 182.498 200.855L130.536 170.855C134.364 168.645 137.6 165.557 140.244 161.59L192.206 191.59Z" fill="#8BC5E4"/>
<path fill-rule="evenodd" clip-rule="evenodd" d="M182.498 200.855C178.538 203.142 175.31 204.068 172.816 203.635L120.854 173.635C123.349 174.068 126.576 173.142 130.537 170.855L182.498 200.855Z" fill="#8BC5E4"/>
<path fill-rule="evenodd" clip-rule="evenodd" d="M172.816 203.635C172.082 203.496 171.4 203.255 170.769 202.909L118.808 172.909C119.439 173.255 120.121 173.496 120.854 173.635L172.816 203.635Z" fill="#8BC5E4"/>
<path fill-rule="evenodd" clip-rule="evenodd" d="M170.771 202.91C169.278 202.094 168.074 200.698 167.156 198.723L115.194 168.723C116.112 170.698 117.316 172.094 118.809 172.91L170.771 202.91Z" fill="#8BC5E4"/>
<path fill-rule="evenodd" clip-rule="evenodd" d="M167.151 198.715C165.864 195.885 165.22 192.423 165.22 188.33L113.259 158.33C113.259 162.423 113.902 165.885 115.19 168.715L167.151 198.715Z" fill="#8BC5E4"/>
<path fill-rule="evenodd" clip-rule="evenodd" d="M165.22 188.33C165.22 183.863 165.948 179.55 167.403 175.39L115.441 145.39C113.986 149.55 113.259 153.863 113.259 158.33L165.22 188.33Z" fill="#8BC5E4"/>
<path fill-rule="evenodd" clip-rule="evenodd" d="M167.403 175.39C168.869 171.203 170.951 167.475 173.647 164.205L121.685 134.205C118.989 137.475 116.908 141.203 115.441 145.39L167.403 175.39Z" fill="#8BC5E4"/>
<path fill-rule="evenodd" clip-rule="evenodd" d="M173.647 164.205C176.355 160.902 179.331 158.313 182.576 156.44L130.614 126.44C127.37 128.313 124.393 130.902 121.686 134.205L173.647 164.205Z" fill="#8BC5E4"/>
<path fill-rule="evenodd" clip-rule="evenodd" d="M182.576 156.44C186.254 154.317 189.345 153.628 191.851 154.375L139.889 124.375C137.384 123.628 134.292 124.317 130.614 126.44L182.576 156.44Z" fill="#8BC5E4"/>
<path fill-rule="evenodd" clip-rule="evenodd" d="M191.851 154.375C192.405 154.536 192.922 154.762 193.402 155.053L141.441 125.053C140.961 124.762 140.444 124.536 139.89 124.375L191.851 154.375Z" fill="#8BC5E4"/>
<path fill-rule="evenodd" clip-rule="evenodd" d="M193.401 155.053C195.094 156.079 196.324 157.913 197.089 160.555L145.127 130.555C144.362 127.913 143.132 126.079 141.439 125.053L193.401 155.053Z" fill="#8BC5E4"/>
<path fill-rule="evenodd" clip-rule="evenodd" d="M192.301 164.635C191.698 162.765 190.898 161.439 189.9 160.656L137.938 130.656C138.936 131.439 139.736 132.765 140.34 134.635L192.301 164.635Z" fill="#8BC5E4"/>
<path fill-rule="evenodd" clip-rule="evenodd" d="M189.903 160.657C189.771 160.553 189.635 160.459 189.496 160.374L137.534 130.374C137.673 130.459 137.809 130.553 137.941 130.657L189.903 160.657Z" fill="#8BC5E4"/>
<path fill-rule="evenodd" clip-rule="evenodd" d="M189.485 160.368C189.203 160.197 188.907 160.065 188.596 159.973L136.635 129.973C136.946 130.065 137.242 130.197 137.524 130.368L189.485 160.368Z" fill="#8BC5E4"/>
<path fill-rule="evenodd" clip-rule="evenodd" d="M188.586 159.97C186.97 159.477 184.932 159.94 182.472 161.36L130.511 131.36C132.97 129.94 135.008 129.477 136.625 129.97L188.586 159.97Z" fill="#8BC5E4"/>
<path fill-rule="evenodd" clip-rule="evenodd" d="M182.472 161.36C179.649 162.99 177.285 165.148 175.379 167.835L123.418 137.835C125.323 135.148 127.687 132.99 130.511 131.36L182.472 161.36Z" fill="#8BC5E4"/>
<path fill-rule="evenodd" clip-rule="evenodd" d="M175.38 167.835C173.492 170.498 172.161 173.39 171.387 176.51L119.426 146.51C120.199 143.39 121.53 140.498 123.418 137.835L175.38 167.835Z" fill="#8BC5E4"/>
<path fill-rule="evenodd" clip-rule="evenodd" d="M171.387 176.51C170.619 179.613 170.235 182.578 170.235 185.405L118.273 155.405C118.273 152.578 118.657 149.613 119.425 146.51L171.387 176.51Z" fill="#8BC5E4"/>
<path fill-rule="evenodd" clip-rule="evenodd" d="M170.235 185.405C170.235 189.052 170.685 191.982 171.586 194.195L119.624 164.195C118.724 161.982 118.273 159.052 118.273 155.405L170.235 185.405Z" fill="#8BC5E4"/>
<path fill-rule="evenodd" clip-rule="evenodd" d="M171.586 194.195C172.191 195.632 173.016 196.646 174.06 197.238L122.099 167.238C121.055 166.646 120.23 165.632 119.624 164.195L171.586 194.195Z" fill="#8BC5E4"/>
<path fill-rule="evenodd" clip-rule="evenodd" d="M174.058 197.236C174.594 197.54 175.189 197.733 175.841 197.814L123.88 167.814C123.228 167.733 122.633 167.54 122.097 167.236L174.058 197.236Z" fill="#8BC5E4"/>
<path fill-rule="evenodd" clip-rule="evenodd" d="M175.847 197.815C177.776 198.055 179.857 197.53 182.091 196.24L130.13 166.24C127.895 167.53 125.814 168.055 123.886 167.815L175.847 197.815Z" fill="#8BC5E4"/>
<path fill-rule="evenodd" clip-rule="evenodd" d="M182.091 196.24C184.821 194.663 187.131 192.41 189.019 189.48L137.057 159.48C135.169 162.41 132.86 164.663 130.129 166.24L182.091 196.24Z" fill="#8BC5E4"/>
<path fill-rule="evenodd" clip-rule="evenodd" d="M189.019 189.48C190.907 186.557 192.186 183.095 192.856 179.095L140.894 149.095C140.224 153.095 138.946 156.557 137.058 159.48L189.019 189.48Z" fill="#8BC5E4"/>
<path fill-rule="evenodd" clip-rule="evenodd" d="M160.605 199.155C159.583 204.405 157.741 209.028 155.08 213.025L103.118 183.025C105.78 179.028 107.622 174.405 108.643 169.155L160.605 199.155Z" fill="#8BC5E4"/>
<path fill-rule="evenodd" clip-rule="evenodd" d="M155.08 213.025C152.442 216.988 149.208 220.075 145.381 222.285L93.4189 192.285C97.2468 190.075 100.48 186.988 103.118 183.025L155.08 213.025Z" fill="#8BC5E4"/>
<path fill-rule="evenodd" clip-rule="evenodd" d="M145.38 222.285C141.414 224.575 138.186 225.502 135.698 225.065L83.7363 195.065C86.2247 195.502 89.452 194.575 93.4184 192.285L145.38 222.285Z" fill="#8BC5E4"/>
<path fill-rule="evenodd" clip-rule="evenodd" d="M135.698 225.065C134.856 224.908 134.082 224.614 133.376 224.186L81.4141 194.186C82.1201 194.614 82.8941 194.908 83.7361 195.065L135.698 225.065Z" fill="#8BC5E4"/>
<path fill-rule="evenodd" clip-rule="evenodd" d="M133.378 224.187C132.007 223.355 130.891 222.012 130.029 220.158L78.0674 190.158C78.9294 192.012 80.0454 193.355 81.4164 194.187L133.378 224.187Z" fill="#8BC5E4"/>
<path fill-rule="evenodd" clip-rule="evenodd" d="M130.026 220.15C128.738 217.32 128.094 213.858 128.094 209.765L76.1328 179.765C76.1328 183.858 76.7765 187.32 78.064 190.15L130.026 220.15Z" fill="#8BC5E4"/>
<path fill-rule="evenodd" clip-rule="evenodd" d="M128.094 209.765C128.094 205.298 128.822 200.985 130.277 196.825L78.3152 166.825C76.8602 170.985 76.1328 175.298 76.1328 179.765L128.094 209.765Z" fill="#8BC5E4"/>
<path fill-rule="evenodd" clip-rule="evenodd" d="M130.277 196.825C131.755 192.632 133.839 188.902 136.53 185.635L84.5681 155.635C81.8776 158.902 79.7934 162.632 78.3154 166.825L130.277 196.825Z" fill="#8BC5E4"/>
<path fill-rule="evenodd" clip-rule="evenodd" d="M136.529 185.635C139.231 182.335 142.204 179.748 145.449 177.875L93.4874 147.875C90.2427 149.748 87.2694 152.335 84.5674 155.635L136.529 185.635Z" fill="#8BC5E4"/>
<path fill-rule="evenodd" clip-rule="evenodd" d="M145.45 177.875C149.133 175.748 152.228 175.058 154.734 175.805L102.772 145.805C100.266 145.058 97.1718 145.748 93.4883 147.875L145.45 177.875Z" fill="#8BC5E4"/>
<path fill-rule="evenodd" clip-rule="evenodd" d="M154.733 175.805C155.286 175.967 155.802 176.193 156.282 176.484L104.32 146.484C103.84 146.193 103.324 145.967 102.771 145.805L154.733 175.805Z" fill="#8BC5E4"/>
<path fill-rule="evenodd" clip-rule="evenodd" d="M156.281 176.484C157.973 177.511 159.206 179.343 159.98 181.98L108.018 151.98C107.244 149.343 106.011 147.511 104.319 146.484L156.281 176.484Z" fill="#8BC5E4"/>
<path fill-rule="evenodd" clip-rule="evenodd" d="M155.192 186.06C154.581 184.195 153.778 182.87 152.784 182.085L100.822 152.085C101.816 152.87 102.619 154.195 103.23 156.06L155.192 186.06Z" fill="#8BC5E4"/>
<path fill-rule="evenodd" clip-rule="evenodd" d="M152.785 182.086C152.654 181.982 152.519 181.887 152.38 181.802L100.419 151.802C100.558 151.887 100.693 151.982 100.824 152.086L152.785 182.086Z" fill="#8BC5E4"/>
<path fill-rule="evenodd" clip-rule="evenodd" d="M152.37 181.796C152.089 181.625 151.795 181.492 151.486 181.398L99.5244 151.398C99.8334 151.492 100.127 151.625 100.408 151.796L152.37 181.796Z" fill="#8BC5E4"/>
<path fill-rule="evenodd" clip-rule="evenodd" d="M151.477 181.395C149.854 180.905 147.814 181.37 145.354 182.79L93.3926 152.79C95.8521 151.37 97.893 150.905 99.5154 151.395L151.477 181.395Z" fill="#8BC5E4"/>
<path fill-rule="evenodd" clip-rule="evenodd" d="M145.354 182.79C142.525 184.423 140.158 186.583 138.253 189.27L86.291 159.27C88.1963 156.583 90.5634 154.423 93.3925 152.79L145.354 182.79Z" fill="#8BC5E4"/>
<path fill-rule="evenodd" clip-rule="evenodd" d="M138.253 189.27C136.365 191.933 135.037 194.823 134.269 197.94L82.3076 167.94C83.0755 164.823 84.4034 161.933 86.2913 159.27L138.253 189.27Z" fill="#8BC5E4"/>
<path fill-rule="evenodd" clip-rule="evenodd" d="M134.269 197.94C133.501 201.043 133.117 204.008 133.117 206.835L81.1553 176.835C81.1553 174.008 81.5393 171.043 82.3071 167.94L134.269 197.94Z" fill="#8BC5E4"/>
<path fill-rule="evenodd" clip-rule="evenodd" d="M133.117 206.835C133.117 210.482 133.567 213.412 134.468 215.625L82.5063 185.625C81.6056 183.412 81.1553 180.482 81.1553 176.835L133.117 206.835Z" fill="#8BC5E4"/>
<path fill-rule="evenodd" clip-rule="evenodd" d="M134.468 215.625C135.078 217.06 135.906 218.072 136.951 218.663L84.9896 188.663C83.9446 188.072 83.1166 187.06 82.5068 185.625L134.468 215.625Z" fill="#8BC5E4"/>
<path fill-rule="evenodd" clip-rule="evenodd" d="M136.957 218.667C137.491 218.968 138.083 219.159 138.732 219.239L86.7701 189.239C86.1211 189.159 85.5291 188.968 84.9951 188.667L136.957 218.667Z" fill="#8BC5E4"/>
<path fill-rule="evenodd" clip-rule="evenodd" d="M138.738 219.24C140.66 219.483 142.742 218.958 144.982 217.665L93.0205 187.665C90.7803 188.958 88.699 189.483 86.7764 189.24L138.738 219.24Z" fill="#8BC5E4"/>
<path fill-rule="evenodd" clip-rule="evenodd" d="M144.982 217.665C147.701 216.095 150.008 213.843 151.902 210.91L99.94 180.91C98.0463 183.843 95.7398 186.095 93.0205 187.665L144.982 217.665Z" fill="#8BC5E4"/>
<path fill-rule="evenodd" clip-rule="evenodd" d="M151.901 210.91C153.789 207.987 155.068 204.525 155.737 200.525L103.776 170.525C103.106 174.525 101.827 177.987 99.9395 180.91L151.901 210.91Z" fill="#8BC5E4"/>
<path fill-rule="evenodd" clip-rule="evenodd" d="M62.4317 147.315C56.6727 150.64 51.9615 158.85 51.9615 165.58L0 135.58C0 128.85 4.7112 120.64 10.4702 117.315L62.4317 147.315Z" fill="#8BC5E4"/>
<path fill-rule="evenodd" clip-rule="evenodd" d="M51.9615 341.14C51.9615 344.643 53.2375 347.073 55.2745 348.129L3.313 318.129C1.276 317.073 0 314.643 0 311.14L51.9615 341.14Z" fill="#8BC5E4"/>
<path fill-rule="evenodd" clip-rule="evenodd" d="M55.2828 348.134C57.1558 349.101 59.6698 348.907 62.4238 347.32L10.4623 317.32C7.70829 318.907 5.19429 319.101 3.32129 318.134L55.2828 348.134Z" fill="#8BC5E4"/>
<path fill-rule="evenodd" clip-rule="evenodd" d="M263.194 231.405C268.944 228.085 273.664 219.87 273.664 213.14L221.703 183.14C221.703 189.87 216.983 198.085 211.232 201.405L263.194 231.405Z" fill="#8BC5E4"/>
<path fill-rule="evenodd" clip-rule="evenodd" d="M273.665 37.58C273.665 34.077 272.386 31.648 270.349 30.593L218.388 0.593018C220.425 1.64802 221.704 4.07702 221.703 7.58002L273.665 37.58Z" fill="#8BC5E4"/>
<path fill-rule="evenodd" clip-rule="evenodd" d="M270.34 30.588C268.466 29.622 265.953 29.815 263.203 31.4L211.241 1.39997C213.991 -0.185031 216.504 -0.378031 218.378 0.587969L270.34 30.588Z" fill="#8BC5E4"/>
<path fill-rule="evenodd" clip-rule="evenodd" d="M263.194 36.915C264.738 36.024 266.122 35.903 267.143 36.437L215.181 6.43697C214.16 5.90297 212.776 6.02397 211.232 6.91497L263.194 36.915Z" fill="#8BC5E4"/>
<path fill-rule="evenodd" clip-rule="evenodd" d="M267.142 36.437C268.246 37.013 268.926 38.353 268.927 40.309L216.966 10.309C216.965 8.35301 216.285 7.01301 215.181 6.43701L267.142 36.437Z" fill="#8BC5E4"/>
<path fill-rule="evenodd" clip-rule="evenodd" d="M268.927 215.875C268.927 219.645 266.407 224.04 263.194 225.895L211.232 195.895C214.445 194.04 216.966 189.645 216.966 185.875L268.927 215.875Z" fill="#8BC5E4"/>
<path fill-rule="evenodd" clip-rule="evenodd" d="M62.4324 341.805C60.8842 342.699 59.4981 342.82 58.4761 342.287L6.51465 312.287C7.53665 312.82 8.92265 312.699 10.4708 311.805L62.4324 341.805Z" fill="#8BC5E4"/>
<path fill-rule="evenodd" clip-rule="evenodd" d="M58.478 342.288C57.372 341.712 56.692 340.372 56.691 338.416L4.72949 308.416C4.73049 310.372 5.41049 311.712 6.51649 312.288L58.478 342.288Z" fill="#8BC5E4"/>
<path fill-rule="evenodd" clip-rule="evenodd" d="M56.69 162.85C56.69 159.08 59.2101 154.685 62.4317 152.825L10.4702 122.825C7.24862 124.685 4.72852 129.08 4.72852 132.85L56.69 162.85Z" fill="#8BC5E4"/>
<path fill-rule="evenodd" clip-rule="evenodd" d="M263.194 36.915C264.738 36.024 266.122 35.903 267.143 36.437L215.181 6.43697C214.16 5.90297 212.776 6.02397 211.232 6.91497L263.194 36.915Z" fill="#8BC5E4"/>
<path fill-rule="evenodd" clip-rule="evenodd" d="M267.142 36.437C268.246 37.013 268.926 38.353 268.927 40.309L216.966 10.309C216.965 8.35301 216.285 7.01301 215.181 6.43701L267.142 36.437Z" fill="#8BC5E4"/>
<path fill-rule="evenodd" clip-rule="evenodd" d="M268.927 215.875C268.927 219.645 266.407 224.04 263.194 225.895L211.232 195.895C214.445 194.04 216.966 189.645 216.966 185.875L268.927 215.875Z" fill="#8BC5E4"/>
<path fill-rule="evenodd" clip-rule="evenodd" d="M62.4324 341.805C60.8842 342.699 59.4981 342.82 58.4761 342.287L6.51465 312.287C7.53665 312.82 8.92265 312.699 10.4708 311.805L62.4324 341.805Z" fill="#8BC5E4"/>
<path fill-rule="evenodd" clip-rule="evenodd" d="M58.478 342.288C57.372 341.712 56.692 340.372 56.691 338.416L4.72949 308.416C4.73049 310.372 5.41049 311.712 6.51649 312.288L58.478 342.288Z" fill="#8BC5E4"/>
<path fill-rule="evenodd" clip-rule="evenodd" d="M56.69 162.85C56.69 159.08 59.2101 154.685 62.4317 152.825L10.4702 122.825C7.24862 124.685 4.72852 129.08 4.72852 132.85L56.69 162.85Z" fill="#8BC5E4"/>
<path fill-rule="evenodd" clip-rule="evenodd" d="M192.856 179.095C192.186 183.095 190.907 186.557 189.019 189.48L137.058 159.48C138.946 156.557 140.224 153.095 140.894 149.095L192.856 179.095Z" fill="#8BC5E4"/>
<path fill-rule="evenodd" clip-rule="evenodd" d="M189.019 189.48C187.131 192.41 184.821 194.663 182.091 196.24L130.129 166.24C132.86 164.663 135.169 162.41 137.057 159.48L189.019 189.48Z" fill="#8BC5E4"/>
<path fill-rule="evenodd" clip-rule="evenodd" d="M182.091 196.24C179.857 197.53 177.776 198.055 175.847 197.815L123.886 167.815C125.814 168.055 127.895 167.53 130.13 166.24L182.091 196.24Z" fill="#8BC5E4"/>
<path fill-rule="evenodd" clip-rule="evenodd" d="M175.847 197.815C175.194 197.735 174.598 197.542 174.061 197.238L122.1 167.238C122.637 167.542 123.233 167.735 123.886 167.815L175.847 197.815Z" fill="#8BC5E4"/>
<path fill-rule="evenodd" clip-rule="evenodd" d="M174.061 197.239C173.018 196.648 172.194 195.636 171.588 194.201L119.627 164.201C120.233 165.636 121.057 166.648 122.1 167.239L174.061 197.239Z" fill="#8BC5E4"/>
<path fill-rule="evenodd" clip-rule="evenodd" d="M171.586 194.195C170.685 191.982 170.235 189.052 170.235 185.405L118.273 155.405C118.273 159.052 118.724 161.982 119.624 164.195L171.586 194.195Z" fill="#8BC5E4"/>
<path fill-rule="evenodd" clip-rule="evenodd" d="M170.235 185.405C170.235 182.578 170.619 179.613 171.387 176.51L119.425 146.51C118.657 149.613 118.273 152.578 118.273 155.405L170.235 185.405Z" fill="#8BC5E4"/>
<path fill-rule="evenodd" clip-rule="evenodd" d="M171.387 176.51C172.161 173.39 173.492 170.498 175.38 167.835L123.418 137.835C121.53 140.498 120.199 143.39 119.426 146.51L171.387 176.51Z" fill="#8BC5E4"/>
<path fill-rule="evenodd" clip-rule="evenodd" d="M175.379 167.835C177.285 165.148 179.649 162.99 182.472 161.36L130.511 131.36C127.687 132.99 125.323 135.148 123.418 137.835L175.379 167.835Z" fill="#8BC5E4"/>
<path fill-rule="evenodd" clip-rule="evenodd" d="M182.472 161.36C184.932 159.94 186.97 159.477 188.586 159.97L136.625 129.97C135.008 129.477 132.97 129.94 130.511 131.36L182.472 161.36Z" fill="#8BC5E4"/>
<path fill-rule="evenodd" clip-rule="evenodd" d="M188.586 159.97C188.903 160.064 189.206 160.199 189.495 160.374L137.534 130.374C137.245 130.199 136.942 130.064 136.624 129.97L188.586 159.97Z" fill="#8BC5E4"/>
<path fill-rule="evenodd" clip-rule="evenodd" d="M189.495 160.374C190.681 161.097 191.616 162.515 192.299 164.627L140.337 134.627C139.654 132.515 138.719 131.097 137.533 130.374L189.495 160.374Z" fill="#8BC5E4"/>
<path fill-rule="evenodd" clip-rule="evenodd" d="M197.09 160.56C196.326 157.916 195.096 156.08 193.402 155.053L141.44 125.053C143.134 126.08 144.364 127.916 145.129 130.56L197.09 160.56Z" fill="#8BC5E4"/>
<path fill-rule="evenodd" clip-rule="evenodd" d="M193.394 155.048C192.919 154.761 192.407 154.537 191.858 154.377L139.896 124.377C140.445 124.537 140.957 124.761 141.432 125.048L193.394 155.048Z" fill="#8BC5E4"/>
<path fill-rule="evenodd" clip-rule="evenodd" d="M191.851 154.375C189.345 153.628 186.254 154.317 182.576 156.44L130.614 126.44C134.292 124.317 137.384 123.628 139.889 124.375L191.851 154.375Z" fill="#8BC5E4"/>
<path fill-rule="evenodd" clip-rule="evenodd" d="M182.576 156.44C179.331 158.313 176.355 160.902 173.647 164.205L121.686 134.205C124.393 130.902 127.37 128.313 130.614 126.44L182.576 156.44Z" fill="#8BC5E4"/>
<path fill-rule="evenodd" clip-rule="evenodd" d="M173.647 164.205C170.951 167.475 168.869 171.203 167.403 175.39L115.441 145.39C116.908 141.203 118.989 137.475 121.685 134.205L173.647 164.205Z" fill="#8BC5E4"/>
<path fill-rule="evenodd" clip-rule="evenodd" d="M167.403 175.39C165.948 179.55 165.22 183.863 165.22 188.33L113.259 158.33C113.259 153.863 113.986 149.55 115.441 145.39L167.403 175.39Z" fill="#8BC5E4"/>
<path fill-rule="evenodd" clip-rule="evenodd" d="M165.22 188.33C165.22 192.423 165.864 195.885 167.151 198.715L115.19 168.715C113.902 165.885 113.259 162.423 113.259 158.33L165.22 188.33Z" fill="#8BC5E4"/>
<path fill-rule="evenodd" clip-rule="evenodd" d="M167.152 198.715C168.069 200.693 169.275 202.091 170.769 202.909L118.807 172.909C117.313 172.091 116.107 170.693 115.19 168.715L167.152 198.715Z" fill="#8BC5E4"/>
<path fill-rule="evenodd" clip-rule="evenodd" d="M170.765 202.907C171.395 203.252 172.076 203.495 172.809 203.634L120.848 173.634C120.115 173.495 119.434 173.252 118.804 172.907L170.765 202.907Z" fill="#8BC5E4"/>
<path fill-rule="evenodd" clip-rule="evenodd" d="M172.816 203.635C175.31 204.068 178.538 203.142 182.498 200.855L130.537 170.855C126.576 173.142 123.349 174.068 120.854 173.635L172.816 203.635Z" fill="#8BC5E4"/>
<path fill-rule="evenodd" clip-rule="evenodd" d="M182.498 200.855C186.325 198.645 189.562 195.557 192.206 191.59L140.244 161.59C137.6 165.557 134.364 168.645 130.536 170.855L182.498 200.855Z" fill="#8BC5E4"/>
<path fill-rule="evenodd" clip-rule="evenodd" d="M192.206 191.59C194.862 187.597 196.697 182.977 197.714 177.73L145.752 147.73C144.736 152.977 142.9 157.597 140.244 161.59L192.206 191.59Z" fill="#8BC5E4"/>
<path fill-rule="evenodd" clip-rule="evenodd" d="M155.737 200.525C155.068 204.525 153.789 207.987 151.901 210.91L99.9395 180.91C101.827 177.987 103.106 174.525 103.776 170.525L155.737 200.525Z" fill="#8BC5E4"/>
<path fill-rule="evenodd" clip-rule="evenodd" d="M151.902 210.91C150.008 213.843 147.701 216.095 144.982 217.665L93.0205 187.665C95.7398 186.095 98.0463 183.843 99.94 180.91L151.902 210.91Z" fill="#8BC5E4"/>
<path fill-rule="evenodd" clip-rule="evenodd" d="M144.982 217.665C142.742 218.958 140.66 219.483 138.738 219.24L86.7764 189.24C88.699 189.483 90.7803 188.958 93.0205 187.665L144.982 217.665Z" fill="#8BC5E4"/>
<path fill-rule="evenodd" clip-rule="evenodd" d="M138.737 219.24C138.084 219.16 137.489 218.967 136.951 218.663L84.9893 188.663C85.5273 188.967 86.1223 189.16 86.776 189.24L138.737 219.24Z" fill="#8BC5E4"/>
<path fill-rule="evenodd" clip-rule="evenodd" d="M136.952 218.664C135.908 218.075 135.081 217.064 134.471 215.631L82.5098 185.631C83.1198 187.064 83.9468 188.075 84.9908 188.664L136.952 218.664Z" fill="#8BC5E4"/>
<path fill-rule="evenodd" clip-rule="evenodd" d="M134.468 215.625C133.567 213.412 133.117 210.482 133.117 206.835L81.1553 176.835C81.1553 180.482 81.6056 183.412 82.5063 185.625L134.468 215.625Z" fill="#8BC5E4"/>
<path fill-rule="evenodd" clip-rule="evenodd" d="M133.117 206.835C133.117 204.008 133.501 201.043 134.269 197.94L82.3071 167.94C81.5393 171.043 81.1553 174.008 81.1553 176.835L133.117 206.835Z" fill="#8BC5E4"/>
<path fill-rule="evenodd" clip-rule="evenodd" d="M134.269 197.94C135.037 194.823 136.365 191.933 138.253 189.27L86.2913 159.27C84.4034 161.933 83.0755 164.823 82.3076 167.94L134.269 197.94Z" fill="#8BC5E4"/>
<path fill-rule="evenodd" clip-rule="evenodd" d="M138.253 189.27C140.158 186.583 142.525 184.423 145.354 182.79L93.3925 152.79C90.5634 154.423 88.1963 156.583 86.291 159.27L138.253 189.27Z" fill="#8BC5E4"/>
<path fill-rule="evenodd" clip-rule="evenodd" d="M145.354 182.79C147.814 181.37 149.854 180.905 151.477 181.395L99.5154 151.395C97.893 150.905 95.8521 151.37 93.3926 152.79L145.354 182.79Z" fill="#8BC5E4"/>
<path fill-rule="evenodd" clip-rule="evenodd" d="M151.477 181.395C151.793 181.49 152.094 181.626 152.381 181.802L100.42 151.802C100.133 151.626 99.8316 151.49 99.5156 151.395L151.477 181.395Z" fill="#8BC5E4"/>
<path fill-rule="evenodd" clip-rule="evenodd" d="M152.379 181.802C153.56 182.528 154.497 183.945 155.189 186.052L103.228 156.052C102.536 153.945 101.599 152.528 100.418 151.802L152.379 181.802Z" fill="#8BC5E4"/>
<path fill-rule="evenodd" clip-rule="evenodd" d="M159.981 181.985C159.207 179.346 157.974 177.512 156.282 176.484L104.32 146.484C106.012 147.512 107.245 149.346 108.02 151.985L159.981 181.985Z" fill="#8BC5E4"/>
<path fill-rule="evenodd" clip-rule="evenodd" d="M156.274 176.48C155.799 176.192 155.288 175.968 154.741 175.807L102.779 145.807C103.326 145.968 103.837 146.192 104.312 146.48L156.274 176.48Z" fill="#8BC5E4"/>
<path fill-rule="evenodd" clip-rule="evenodd" d="M154.734 175.805C152.228 175.058 149.133 175.748 145.45 177.875L93.4883 147.875C97.1718 145.748 100.266 145.058 102.772 145.805L154.734 175.805Z" fill="#8BC5E4"/>
<path fill-rule="evenodd" clip-rule="evenodd" d="M145.449 177.875C142.204 179.748 139.231 182.335 136.529 185.635L84.5674 155.635C87.2694 152.335 90.2427 149.748 93.4874 147.875L145.449 177.875Z" fill="#8BC5E4"/>
<path fill-rule="evenodd" clip-rule="evenodd" d="M136.53 185.635C133.839 188.902 131.755 192.632 130.277 196.825L78.3154 166.825C79.7934 162.632 81.8776 158.902 84.5681 155.635L136.53 185.635Z" fill="#8BC5E4"/>
<path fill-rule="evenodd" clip-rule="evenodd" d="M130.277 196.825C128.822 200.985 128.094 205.298 128.094 209.765L76.1328 179.765C76.1328 175.298 76.8602 170.985 78.3152 166.825L130.277 196.825Z" fill="#8BC5E4"/>
<path fill-rule="evenodd" clip-rule="evenodd" d="M128.094 209.765C128.094 213.858 128.738 217.32 130.026 220.15L78.064 190.15C76.7765 187.32 76.1328 183.858 76.1328 179.765L128.094 209.765Z" fill="#8BC5E4"/>
<path fill-rule="evenodd" clip-rule="evenodd" d="M130.025 220.15C130.886 222.007 132.003 223.352 133.375 224.186L81.414 194.186C80.042 193.352 78.925 192.007 78.0635 190.15L130.025 220.15Z" fill="#8BC5E4"/>
<path fill-rule="evenodd" clip-rule="evenodd" d="M133.372 224.183C134.077 224.612 134.85 224.906 135.691 225.064L83.7292 195.064C82.8882 194.906 82.1152 194.612 81.4102 194.183L133.372 224.183Z" fill="#8BC5E4"/>
<path fill-rule="evenodd" clip-rule="evenodd" d="M135.698 225.065C138.186 225.502 141.414 224.575 145.38 222.285L93.4184 192.285C89.452 194.575 86.2247 195.502 83.7363 195.065L135.698 225.065Z" fill="#8BC5E4"/>
<path fill-rule="evenodd" clip-rule="evenodd" d="M145.381 222.285C149.208 220.075 152.442 216.988 155.08 213.025L103.118 183.025C100.48 186.988 97.2468 190.075 93.4189 192.285L145.381 222.285Z" fill="#8BC5E4"/>
<path fill-rule="evenodd" clip-rule="evenodd" d="M155.08 213.025C157.741 209.028 159.583 204.405 160.605 199.155L108.643 169.155C107.622 174.405 105.78 179.028 103.118 183.025L155.08 213.025Z" fill="#8BC5E4"/>
<path fill-rule="evenodd" clip-rule="evenodd" d="M263.194 36.915L62.4322 152.825C59.2105 154.685 56.6904 159.08 56.6904 162.85V338.41C56.6904 342.18 59.2105 343.665 62.4322 341.805L263.194 225.895C266.407 224.04 268.927 219.645 268.927 215.875V40.315C268.927 36.545 266.407 35.06 263.194 36.915ZM177.995 122.825L167.732 128.75V157.12L158.093 162.685V134.315L147.831 140.24L162.908 106.795L177.995 122.825ZM197.714 177.73L192.856 179.095C192.186 183.095 190.907 186.557 189.019 189.48C187.131 192.41 184.822 194.663 182.091 196.24C179.857 197.53 177.775 198.055 175.847 197.815C173.924 197.578 172.504 196.372 171.586 194.195C170.685 191.982 170.235 189.052 170.235 185.405C170.235 182.578 170.619 179.613 171.387 176.51C172.16 173.39 173.491 170.498 175.379 167.835C177.284 165.148 179.649 162.99 182.472 161.36C184.931 159.94 186.969 159.477 188.586 159.97C190.214 160.45 191.453 162.005 192.301 164.635L197.09 160.56C196.109 157.167 194.362 155.105 191.851 154.375C189.345 153.628 186.254 154.317 182.576 156.44C179.331 158.313 176.355 160.902 173.647 164.205C170.951 167.475 168.87 171.203 167.403 175.39C165.948 179.55 165.221 183.863 165.221 188.33C165.221 192.423 165.864 195.885 167.152 198.715C168.457 201.528 170.345 203.168 172.816 203.635C175.31 204.068 178.537 203.142 182.498 200.855C186.326 198.645 189.562 195.557 192.206 191.59C194.862 187.597 196.698 182.977 197.714 177.73ZM155.738 200.525L160.605 199.155C159.583 204.405 157.741 209.028 155.08 213.025C152.441 216.988 149.208 220.075 145.38 222.285C141.414 224.575 138.186 225.502 135.698 225.065C133.221 224.602 131.33 222.963 130.025 220.15C128.738 217.32 128.094 213.858 128.094 209.765C128.094 205.298 128.822 200.985 130.277 196.825C131.755 192.632 133.839 188.902 136.529 185.635C139.231 182.335 142.205 179.748 145.449 177.875C149.133 175.748 152.227 175.058 154.733 175.805C157.239 176.538 158.988 178.598 159.981 181.985L155.192 186.06C154.332 183.437 153.093 181.882 151.477 181.395C149.855 180.905 147.814 181.37 145.354 182.79C142.525 184.423 140.158 186.583 138.253 189.27C136.365 191.933 135.037 194.823 134.269 197.94C133.501 201.043 133.117 204.008 133.117 206.835C133.117 210.482 133.567 213.412 134.468 215.625C135.392 217.798 136.815 219.003 138.738 219.24C140.66 219.483 142.742 218.958 144.982 217.665C147.701 216.095 150.008 213.843 151.901 210.91C153.789 207.987 155.068 204.525 155.738 200.525ZM167.732 245.64L177.995 239.715L162.908 273.175L147.831 257.13L158.093 251.205V222.835L167.732 217.27V245.64ZM94.2326 212.035V224.005L69.9146 238.045V249.295L94.2326 235.255V247.235L115.442 217.39L94.2326 212.035ZM210.384 162.575L231.584 132.735V144.705L255.902 130.665V141.915L231.584 155.955V167.935L210.384 162.575Z" fill="white"/>
</svg>
