<svg width="274" height="349" viewBox="0 0 274 349" fill="none" xmlns="http://www.w3.org/2000/svg">
<path fill-rule="evenodd" clip-rule="evenodd" d="M196.726 177.812L191.798 179.198L139.837 149.197L144.765 147.812L196.726 177.812Z" fill="#8BC5E4"/>
<path fill-rule="evenodd" clip-rule="evenodd" d="M191.235 164.562L196.085 160.432L144.124 130.432L139.274 134.562L191.235 164.562Z" fill="#8BC5E4"/>
<path fill-rule="evenodd" clip-rule="evenodd" d="M181.389 156.268L129.427 126.268L181.389 156.268Z" fill="#8BC5E4"/>
<path fill-rule="evenodd" clip-rule="evenodd" d="M159.149 199.508L154.222 200.893L102.26 170.893L107.188 169.508L159.149 199.508Z" fill="#8BC5E4"/>
<path fill-rule="evenodd" clip-rule="evenodd" d="M153.668 186.252L158.517 182.122L106.556 152.122L101.706 156.252L153.668 186.252Z" fill="#8BC5E4"/>
<path fill-rule="evenodd" clip-rule="evenodd" d="M143.812 177.962L91.8506 147.962L143.812 177.962Z" fill="#8BC5E4"/>
<path fill-rule="evenodd" clip-rule="evenodd" d="M161.357 134.562L109.396 104.562L161.357 134.562Z" fill="#8BC5E4"/>
<path fill-rule="evenodd" clip-rule="evenodd" d="M62.4229 152.842L263.194 36.9275L211.232 6.92749L10.4614 122.842L62.4229 152.842Z" fill="#8BC5E4"/>
<path fill-rule="evenodd" clip-rule="evenodd" d="M268.936 40.3025V215.872L216.974 185.872V10.3025L268.936 40.3025Z" fill="#8BC5E4"/>
<path fill-rule="evenodd" clip-rule="evenodd" d="M263.194 225.888L62.4229 341.803L10.4614 311.803L211.232 195.888L263.194 225.888Z" fill="#8BC5E4"/>
<path fill-rule="evenodd" clip-rule="evenodd" d="M56.69 338.412V162.842L4.72852 132.842V308.412L56.69 338.412Z" fill="#8BC5E4"/>
<path fill-rule="evenodd" clip-rule="evenodd" d="M62.4229 152.842L10.4614 122.842L62.4229 152.842Z" fill="#8BC5E4"/>
<path fill-rule="evenodd" clip-rule="evenodd" d="M51.9615 165.573V341.143L0 311.143V135.573L51.9615 165.573Z" fill="#8BC5E4"/>
<path fill-rule="evenodd" clip-rule="evenodd" d="M62.4229 347.322L263.194 231.407L211.232 201.407L10.4614 317.322L62.4229 347.322Z" fill="#8BC5E4"/>
<path fill-rule="evenodd" clip-rule="evenodd" d="M273.664 213.143V37.5725L221.703 7.57251V183.143L273.664 213.143Z" fill="#8BC5E4"/>
<path fill-rule="evenodd" clip-rule="evenodd" d="M263.194 31.4075L62.4229 147.322L10.4614 117.322L211.232 1.40747L263.194 31.4075Z" fill="#8BC5E4"/>
<path fill-rule="evenodd" clip-rule="evenodd" d="M62.4229 147.323L10.4614 117.323L62.4229 147.323Z" fill="#8BC5E4"/>
<path fill-rule="evenodd" clip-rule="evenodd" d="M196.77 234.617L212.982 249.157L161.02 219.157L144.808 204.617L196.77 234.617Z" fill="#8BC5E4"/>
<path fill-rule="evenodd" clip-rule="evenodd" d="M212.982 249.157L229.194 215.897L177.232 185.897L161.02 219.157L212.982 249.157Z" fill="#8BC5E4"/>
<path fill-rule="evenodd" clip-rule="evenodd" d="M229.194 215.897L196.77 234.617L144.808 204.617L177.232 185.897L229.194 215.897Z" fill="#8BC5E4"/>
<path fill-rule="evenodd" clip-rule="evenodd" d="M196.77 234.617L144.808 204.617L196.77 234.617Z" fill="#8BC5E4"/>
<path fill-rule="evenodd" clip-rule="evenodd" d="M105.958 263.677L85.4678 294.427L33.5063 264.427L53.9965 233.677L105.958 263.677Z" fill="#8BC5E4"/>
<path fill-rule="evenodd" clip-rule="evenodd" d="M85.4678 294.427L105.958 301.507L53.9965 271.507L33.5063 264.427L85.4678 294.427Z" fill="#8BC5E4"/>
<path fill-rule="evenodd" clip-rule="evenodd" d="M105.958 301.507V263.677L53.9966 233.677V271.507L105.958 301.507Z" fill="#8BC5E4"/>
<path fill-rule="evenodd" clip-rule="evenodd" d="M105.958 263.677L53.9966 233.677L105.958 263.677Z" fill="#8BC5E4"/>
<path fill-rule="evenodd" clip-rule="evenodd" d="M161.366 126.167V126.227L109.405 96.2275V96.1675L161.366 126.167Z" fill="#8BC5E4"/>
<path fill-rule="evenodd" clip-rule="evenodd" d="M113.302 186.918V156.508L61.3403 126.508V156.918L113.302 186.918Z" fill="#8BC5E4"/>
<path fill-rule="evenodd" clip-rule="evenodd" d="M113.302 156.508L106.599 160.378L54.6372 130.378L61.3403 126.508L113.302 156.508Z" fill="#8BC5E4"/>
<path fill-rule="evenodd" clip-rule="evenodd" d="M106.599 160.378V215.618L54.6372 185.618V130.378L106.599 160.378Z" fill="#8BC5E4"/>
<path fill-rule="evenodd" clip-rule="evenodd" d="M134.866 261.997L108.426 277.262L56.4648 247.262L82.9046 231.997L134.866 261.997Z" fill="#8BC5E4"/>
<path fill-rule="evenodd" clip-rule="evenodd" d="M108.426 277.263V285.083L56.4648 255.083V247.263L108.426 277.263Z" fill="#8BC5E4"/>
<path fill-rule="evenodd" clip-rule="evenodd" d="M108.426 285.082L158.006 256.457L106.045 226.457L56.4648 255.082L108.426 285.082Z" fill="#8BC5E4"/>
<path fill-rule="evenodd" clip-rule="evenodd" d="M209.63 193.362V224.312L157.668 194.312V163.362L209.63 193.362Z" fill="#8BC5E4"/>
<path fill-rule="evenodd" clip-rule="evenodd" d="M209.63 224.313L216.333 220.443L164.371 190.443L157.668 194.313L209.63 224.313Z" fill="#8BC5E4"/>
<path fill-rule="evenodd" clip-rule="evenodd" d="M216.333 220.442V161.522L164.372 131.522V190.442L216.333 220.442Z" fill="#8BC5E4"/>
<path fill-rule="evenodd" clip-rule="evenodd" d="M187.572 118.857L215.363 102.812L163.402 72.8125L135.611 88.8575L187.572 118.857Z" fill="#8BC5E4"/>
<path fill-rule="evenodd" clip-rule="evenodd" d="M215.363 102.812V94.9925L163.401 64.9925V72.8125L215.363 102.812Z" fill="#8BC5E4"/>
<path fill-rule="evenodd" clip-rule="evenodd" d="M215.363 94.9925L161.366 126.167L109.405 96.1675L163.401 64.9925L215.363 94.9925Z" fill="#8BC5E4"/>
<path fill-rule="evenodd" clip-rule="evenodd" d="M161.366 126.167L109.405 96.1675L161.366 126.167Z" fill="#8BC5E4"/>
<path fill-rule="evenodd" clip-rule="evenodd" d="M217.831 78.5675V116.398L165.87 86.3975V48.5675L217.831 78.5675Z" fill="#8BC5E4"/>
<path fill-rule="evenodd" clip-rule="evenodd" d="M217.831 116.397L238.313 85.6525L186.351 55.6525L165.87 86.3975L217.831 116.397Z" fill="#8BC5E4"/>
<path fill-rule="evenodd" clip-rule="evenodd" d="M238.313 85.6525L217.831 78.5675L165.87 48.5675L186.351 55.6525L238.313 85.6525Z" fill="#8BC5E4"/>
<path fill-rule="evenodd" clip-rule="evenodd" d="M217.831 78.5675L165.87 48.5675L217.831 78.5675Z" fill="#8BC5E4"/>
<path fill-rule="evenodd" clip-rule="evenodd" d="M109.95 131.662L93.7385 164.932L41.7769 134.932L57.9889 101.662L109.95 131.662Z" fill="#8BC5E4"/>
<path fill-rule="evenodd" clip-rule="evenodd" d="M93.7385 164.932L126.162 146.212L74.2009 116.212L41.7769 134.932L93.7385 164.932Z" fill="#8BC5E4"/>
<path fill-rule="evenodd" clip-rule="evenodd" d="M126.162 146.212L109.95 131.662L57.9888 101.662L74.2008 116.212L126.162 146.212Z" fill="#8BC5E4"/>
<path fill-rule="evenodd" clip-rule="evenodd" d="M109.95 131.662L57.9888 101.662L109.95 131.662Z" fill="#8BC5E4"/>
<path fill-rule="evenodd" clip-rule="evenodd" d="M62.4229 152.842L263.194 36.9275L211.232 6.92749L10.4614 122.842L62.4229 152.842Z" fill="#8BC5E4"/>
<path fill-rule="evenodd" clip-rule="evenodd" d="M268.936 40.3025V215.872L216.974 185.872V10.3025L268.936 40.3025Z" fill="#8BC5E4"/>
<path fill-rule="evenodd" clip-rule="evenodd" d="M263.194 225.888L62.4229 341.803L10.4614 311.803L211.232 195.888L263.194 225.888Z" fill="#8BC5E4"/>
<path fill-rule="evenodd" clip-rule="evenodd" d="M56.69 338.412V162.842L4.72852 132.842V308.412L56.69 338.412Z" fill="#8BC5E4"/>
<path fill-rule="evenodd" clip-rule="evenodd" d="M62.4229 152.842L10.4614 122.842L62.4229 152.842Z" fill="#8BC5E4"/>
<path fill-rule="evenodd" clip-rule="evenodd" d="M212.982 249.157L196.77 234.617L144.808 204.617L161.02 219.157L212.982 249.157Z" fill="#8BC5E4"/>
<path fill-rule="evenodd" clip-rule="evenodd" d="M196.77 234.617L229.194 215.897L177.232 185.897L144.808 204.617L196.77 234.617Z" fill="#8BC5E4"/>
<path fill-rule="evenodd" clip-rule="evenodd" d="M229.194 215.897L212.982 249.157L161.02 219.157L177.232 185.897L229.194 215.897Z" fill="#8BC5E4"/>
<path fill-rule="evenodd" clip-rule="evenodd" d="M212.982 249.157L161.02 219.157L212.982 249.157Z" fill="#8BC5E4"/>
<path fill-rule="evenodd" clip-rule="evenodd" d="M85.4678 294.427L105.958 263.677L53.9965 233.677L33.5063 264.427L85.4678 294.427Z" fill="#8BC5E4"/>
<path fill-rule="evenodd" clip-rule="evenodd" d="M105.958 263.677V301.507L53.9966 271.507V233.677L105.958 263.677Z" fill="#8BC5E4"/>
<path fill-rule="evenodd" clip-rule="evenodd" d="M105.958 301.507L85.4678 294.427L33.5063 264.427L53.9965 271.507L105.958 301.507Z" fill="#8BC5E4"/>
<path fill-rule="evenodd" clip-rule="evenodd" d="M85.4678 294.427L33.5063 264.427L85.4678 294.427Z" fill="#8BC5E4"/>
<path fill-rule="evenodd" clip-rule="evenodd" d="M161.366 126.227V126.167L109.405 96.1675V96.2275L161.366 126.227Z" fill="#8BC5E4"/>
<path fill-rule="evenodd" clip-rule="evenodd" d="M161.366 126.167L215.363 94.9925L163.401 64.9925L109.405 96.1675L161.366 126.167Z" fill="#8BC5E4"/>
<path fill-rule="evenodd" clip-rule="evenodd" d="M215.363 94.9925V102.812L163.401 72.8125V64.9925L215.363 94.9925Z" fill="#8BC5E4"/>
<path fill-rule="evenodd" clip-rule="evenodd" d="M215.363 102.812L187.572 118.857L135.611 88.8575L163.402 72.8125L215.363 102.812Z" fill="#8BC5E4"/>
<path fill-rule="evenodd" clip-rule="evenodd" d="M216.333 161.522V220.442L164.372 190.442V131.522L216.333 161.522Z" fill="#8BC5E4"/>
<path fill-rule="evenodd" clip-rule="evenodd" d="M216.333 220.443L209.63 224.313L157.668 194.313L164.371 190.443L216.333 220.443Z" fill="#8BC5E4"/>
<path fill-rule="evenodd" clip-rule="evenodd" d="M209.63 224.312V193.362L157.668 163.362V194.312L209.63 224.312Z" fill="#8BC5E4"/>
<path fill-rule="evenodd" clip-rule="evenodd" d="M158.006 256.457L108.426 285.082L56.4648 255.082L106.045 226.457L158.006 256.457Z" fill="#8BC5E4"/>
<path fill-rule="evenodd" clip-rule="evenodd" d="M108.426 285.083V277.263L56.4648 247.263V255.083L108.426 285.083Z" fill="#8BC5E4"/>
<path fill-rule="evenodd" clip-rule="evenodd" d="M108.426 277.262L134.866 261.997L82.9046 231.997L56.4648 247.262L108.426 277.262Z" fill="#8BC5E4"/>
<path fill-rule="evenodd" clip-rule="evenodd" d="M106.599 215.618V160.378L54.6372 130.378V185.618L106.599 215.618Z" fill="#8BC5E4"/>
<path fill-rule="evenodd" clip-rule="evenodd" d="M106.599 160.378L113.302 156.508L61.3403 126.508L54.6372 130.378L106.599 160.378Z" fill="#8BC5E4"/>
<path fill-rule="evenodd" clip-rule="evenodd" d="M113.302 156.508V186.918L61.3403 156.918V126.508L113.302 156.508Z" fill="#8BC5E4"/>
<path fill-rule="evenodd" clip-rule="evenodd" d="M161.357 126.232L161.366 126.227L109.405 96.2275L109.396 96.2325L161.357 126.232Z" fill="#8BC5E4"/>
<path fill-rule="evenodd" clip-rule="evenodd" d="M161.366 126.227L109.405 96.2275L161.366 126.227Z" fill="#8BC5E4"/>
<path fill-rule="evenodd" clip-rule="evenodd" d="M217.831 116.398V78.5675L165.87 48.5675V86.3975L217.831 116.398Z" fill="#8BC5E4"/>
<path fill-rule="evenodd" clip-rule="evenodd" d="M217.831 78.5675L238.313 85.6525L186.351 55.6525L165.87 48.5675L217.831 78.5675Z" fill="#8BC5E4"/>
<path fill-rule="evenodd" clip-rule="evenodd" d="M238.313 85.6525L217.831 116.397L165.87 86.3975L186.351 55.6525L238.313 85.6525Z" fill="#8BC5E4"/>
<path fill-rule="evenodd" clip-rule="evenodd" d="M217.831 116.398L165.87 86.3975L217.831 116.398Z" fill="#8BC5E4"/>
<path fill-rule="evenodd" clip-rule="evenodd" d="M93.7385 164.932L109.95 131.662L57.9889 101.662L41.7769 134.932L93.7385 164.932Z" fill="#8BC5E4"/>
<path fill-rule="evenodd" clip-rule="evenodd" d="M109.95 131.662L126.162 146.212L74.2008 116.212L57.9888 101.662L109.95 131.662Z" fill="#8BC5E4"/>
<path fill-rule="evenodd" clip-rule="evenodd" d="M126.162 146.212L93.7385 164.932L41.7769 134.932L74.2009 116.212L126.162 146.212Z" fill="#8BC5E4"/>
<path fill-rule="evenodd" clip-rule="evenodd" d="M93.7385 164.932L41.7769 134.932L93.7385 164.932Z" fill="#8BC5E4"/>
<path fill-rule="evenodd" clip-rule="evenodd" d="M161.357 134.562L109.396 104.562L161.357 134.562Z" fill="#8BC5E4"/>
<path fill-rule="evenodd" clip-rule="evenodd" d="M196.085 160.432L191.235 164.562L139.274 134.562L144.124 130.432L196.085 160.432Z" fill="#8BC5E4"/>
<path fill-rule="evenodd" clip-rule="evenodd" d="M191.798 179.198L196.726 177.812L144.765 147.812L139.837 149.197L191.798 179.198Z" fill="#8BC5E4"/>
<path fill-rule="evenodd" clip-rule="evenodd" d="M172.348 164.128L120.386 134.128L172.348 164.128Z" fill="#8BC5E4"/>
<path fill-rule="evenodd" clip-rule="evenodd" d="M158.517 182.122L153.668 186.252L101.706 156.252L106.556 152.122L158.517 182.122Z" fill="#8BC5E4"/>
<path fill-rule="evenodd" clip-rule="evenodd" d="M154.222 200.893L159.149 199.508L107.188 169.508L102.26 170.893L154.222 200.893Z" fill="#8BC5E4"/>
<path fill-rule="evenodd" clip-rule="evenodd" d="M134.779 185.818L82.8179 155.818L134.779 185.818Z" fill="#8BC5E4"/>
<path fill-rule="evenodd" clip-rule="evenodd" d="M181.389 156.268C178.107 158.163 175.093 160.783 172.348 164.128L120.386 134.128C123.132 130.783 126.145 128.163 129.428 126.268L181.389 156.268Z" fill="#8BC5E4"/>
<path fill-rule="evenodd" clip-rule="evenodd" d="M172.347 164.128C169.628 167.438 167.524 171.213 166.025 175.448L114.064 145.448C115.562 141.213 117.667 137.438 120.386 134.128L172.347 164.128Z" fill="#8BC5E4"/>
<path fill-rule="evenodd" clip-rule="evenodd" d="M166.026 175.448C164.554 179.658 163.817 184.023 163.817 188.543L111.856 158.543C111.856 154.023 112.592 149.658 114.064 145.448L166.026 175.448Z" fill="#8BC5E4"/>
<path fill-rule="evenodd" clip-rule="evenodd" d="M163.817 188.542C163.817 192.692 164.467 196.197 165.775 199.052L113.813 169.052C112.505 166.197 111.856 162.692 111.856 158.542L163.817 188.542Z" fill="#8BC5E4"/>
<path fill-rule="evenodd" clip-rule="evenodd" d="M165.775 199.052C166.643 200.94 167.772 202.303 169.162 203.146L117.201 173.146C115.811 172.303 114.682 170.94 113.813 169.052L165.775 199.052Z" fill="#8BC5E4"/>
<path fill-rule="evenodd" clip-rule="evenodd" d="M169.158 203.144C169.873 203.579 170.656 203.876 171.508 204.036L119.547 174.036C118.695 173.876 117.912 173.579 117.197 173.144L169.158 203.144Z" fill="#8BC5E4"/>
<path fill-rule="evenodd" clip-rule="evenodd" d="M171.516 204.037C174.036 204.482 177.301 203.537 181.311 201.222L129.349 171.222C125.34 173.537 122.075 174.482 119.555 174.037L171.516 204.037Z" fill="#8BC5E4"/>
<path fill-rule="evenodd" clip-rule="evenodd" d="M181.311 201.222C185.191 198.982 188.465 195.862 191.141 191.847L139.179 161.847C136.503 165.862 133.229 168.982 129.35 171.222L181.311 201.222Z" fill="#8BC5E4"/>
<path fill-rule="evenodd" clip-rule="evenodd" d="M191.14 191.847C193.834 187.802 195.696 183.127 196.726 177.812L144.765 147.812C143.734 153.128 141.872 157.802 139.179 161.847L191.14 191.847Z" fill="#8BC5E4"/>
<path fill-rule="evenodd" clip-rule="evenodd" d="M191.799 179.198C191.123 183.248 189.824 186.748 187.91 189.713L135.949 159.713C137.863 156.748 139.162 153.248 139.837 149.198L191.799 179.198Z" fill="#8BC5E4"/>
<path fill-rule="evenodd" clip-rule="evenodd" d="M187.91 189.712C186.005 192.672 183.666 194.942 180.904 196.537L128.942 166.537C131.705 164.942 134.043 162.672 135.948 159.712L187.91 189.712Z" fill="#8BC5E4"/>
<path fill-rule="evenodd" clip-rule="evenodd" d="M180.904 196.537C178.644 197.842 176.531 198.382 174.582 198.147L122.621 168.147C124.569 168.382 126.682 167.842 128.943 166.537L180.904 196.537Z" fill="#8BC5E4"/>
<path fill-rule="evenodd" clip-rule="evenodd" d="M174.582 198.147C173.922 198.065 173.32 197.87 172.776 197.561L120.815 167.561C121.359 167.87 121.961 168.065 122.62 168.147L174.582 198.147Z" fill="#8BC5E4"/>
<path fill-rule="evenodd" clip-rule="evenodd" d="M172.779 197.562C171.722 196.963 170.884 195.936 170.272 194.483L118.31 164.483C118.922 165.936 119.76 166.963 120.817 167.562L172.779 197.562Z" fill="#8BC5E4"/>
<path fill-rule="evenodd" clip-rule="evenodd" d="M170.269 194.478C169.36 192.233 168.901 189.268 168.901 185.578L116.939 155.578C116.939 159.268 117.398 162.233 118.308 164.478L170.269 194.478Z" fill="#8BC5E4"/>
<path fill-rule="evenodd" clip-rule="evenodd" d="M168.901 185.577C168.901 182.717 169.291 179.712 170.061 176.587L118.1 146.587C117.329 149.712 116.939 152.717 116.939 155.577L168.901 185.577Z" fill="#8BC5E4"/>
<path fill-rule="evenodd" clip-rule="evenodd" d="M170.061 176.587C170.841 173.427 172.192 170.497 174.105 167.792L122.144 137.792C120.23 140.497 118.879 143.427 118.1 146.587L170.061 176.587Z" fill="#8BC5E4"/>
<path fill-rule="evenodd" clip-rule="evenodd" d="M174.106 167.792C176.037 165.077 178.427 162.897 181.285 161.247L129.323 131.247C126.466 132.897 124.075 135.077 122.144 137.792L174.106 167.792Z" fill="#8BC5E4"/>
<path fill-rule="evenodd" clip-rule="evenodd" d="M181.285 161.247C183.779 159.807 185.841 159.337 187.486 159.827L135.524 129.827C133.879 129.337 131.818 129.807 129.324 131.247L181.285 161.247Z" fill="#8BC5E4"/>
<path fill-rule="evenodd" clip-rule="evenodd" d="M187.486 159.828C187.806 159.925 188.111 160.063 188.402 160.243L136.44 130.243C136.149 130.063 135.844 129.925 135.524 129.828L187.486 159.828Z" fill="#8BC5E4"/>
<path fill-rule="evenodd" clip-rule="evenodd" d="M188.4 160.242C189.596 160.982 190.543 162.423 191.233 164.555L139.272 134.555C138.582 132.423 137.635 130.982 136.439 130.242L188.4 160.242Z" fill="#8BC5E4"/>
<path fill-rule="evenodd" clip-rule="evenodd" d="M196.086 160.432C195.31 157.755 194.066 155.895 192.353 154.852L140.391 124.852C142.104 125.895 143.348 127.755 144.124 130.432L196.086 160.432Z" fill="#8BC5E4"/>
<path fill-rule="evenodd" clip-rule="evenodd" d="M192.345 154.847C191.865 154.555 191.347 154.327 190.793 154.164L138.831 124.164C139.385 124.327 139.903 124.555 140.383 124.847L192.345 154.847Z" fill="#8BC5E4"/>
<path fill-rule="evenodd" clip-rule="evenodd" d="M190.785 154.163C188.248 153.418 185.113 154.118 181.389 156.268L129.427 126.268C133.151 124.118 136.286 123.418 138.824 124.163L190.785 154.163Z" fill="#8BC5E4"/>
<path fill-rule="evenodd" clip-rule="evenodd" d="M143.812 177.962C140.53 179.857 137.516 182.477 134.779 185.817L82.8179 155.817C85.5545 152.477 88.5683 149.857 91.8505 147.962L143.812 177.962Z" fill="#8BC5E4"/>
<path fill-rule="evenodd" clip-rule="evenodd" d="M134.78 185.818C132.052 189.133 129.938 192.913 128.458 197.138L76.4961 167.138C77.977 162.913 80.0901 159.133 82.8181 155.818L134.78 185.818Z" fill="#8BC5E4"/>
<path fill-rule="evenodd" clip-rule="evenodd" d="M128.457 197.138C126.985 201.348 126.24 205.718 126.24 210.238L74.2788 180.238C74.2788 175.718 75.0236 171.348 76.4958 167.138L128.457 197.138Z" fill="#8BC5E4"/>
<path fill-rule="evenodd" clip-rule="evenodd" d="M126.24 210.237C126.24 214.387 126.899 217.887 128.198 220.747L76.236 190.747C74.937 187.887 74.2788 184.387 74.2788 180.237L126.24 210.237Z" fill="#8BC5E4"/>
<path fill-rule="evenodd" clip-rule="evenodd" d="M128.198 220.747C129.073 222.632 130.201 223.996 131.588 224.84L79.6261 194.84C78.2391 193.996 77.1111 192.632 76.2363 190.747L128.198 220.747Z" fill="#8BC5E4"/>
<path fill-rule="evenodd" clip-rule="evenodd" d="M131.585 224.839C132.298 225.274 133.081 225.572 133.933 225.732L81.971 195.732C81.119 195.572 80.336 195.274 79.623 194.839L131.585 224.839Z" fill="#8BC5E4"/>
<path fill-rule="evenodd" clip-rule="evenodd" d="M133.94 225.732C136.46 226.177 139.725 225.232 143.734 222.917L91.7728 192.917C87.7631 195.232 84.4982 196.177 81.978 195.732L133.94 225.732Z" fill="#8BC5E4"/>
<path fill-rule="evenodd" clip-rule="evenodd" d="M143.734 222.917C147.614 220.677 150.887 217.557 153.563 213.542L101.602 183.542C98.9259 187.557 95.6523 190.677 91.7725 192.917L143.734 222.917Z" fill="#8BC5E4"/>
<path fill-rule="evenodd" clip-rule="evenodd" d="M153.564 213.543C156.257 209.498 158.119 204.823 159.149 199.508L107.188 169.508C106.157 174.823 104.295 179.498 101.602 183.543L153.564 213.543Z" fill="#8BC5E4"/>
<path fill-rule="evenodd" clip-rule="evenodd" d="M154.222 200.893C153.546 204.943 152.247 208.443 150.342 211.403L98.3804 181.403C100.286 178.443 101.585 174.943 102.26 170.893L154.222 200.893Z" fill="#8BC5E4"/>
<path fill-rule="evenodd" clip-rule="evenodd" d="M150.342 211.402C148.428 214.367 146.09 216.637 143.336 218.227L91.374 188.227C94.128 186.637 96.4662 184.367 98.3802 181.402L150.342 211.402Z" fill="#8BC5E4"/>
<path fill-rule="evenodd" clip-rule="evenodd" d="M143.336 218.227C141.067 219.537 138.953 220.077 137.005 219.842L85.0435 189.842C86.992 190.077 89.1051 189.537 91.3741 188.227L143.336 218.227Z" fill="#8BC5E4"/>
<path fill-rule="evenodd" clip-rule="evenodd" d="M137.005 219.842C136.345 219.76 135.744 219.565 135.201 219.255L83.2397 189.255C83.7827 189.565 84.3837 189.76 85.0434 189.842L137.005 219.842Z" fill="#8BC5E4"/>
<path fill-rule="evenodd" clip-rule="evenodd" d="M135.203 219.256C134.148 218.656 133.312 217.628 132.695 216.178L80.7339 186.178C81.3509 187.628 82.1869 188.656 83.2419 189.256L135.203 219.256Z" fill="#8BC5E4"/>
<path fill-rule="evenodd" clip-rule="evenodd" d="M132.692 216.172C131.783 213.927 131.324 210.962 131.324 207.272L79.3623 177.272C79.3623 180.962 79.8213 183.927 80.7307 186.172L132.692 216.172Z" fill="#8BC5E4"/>
<path fill-rule="evenodd" clip-rule="evenodd" d="M131.324 207.272C131.324 204.412 131.714 201.407 132.493 198.277L80.5315 168.277C79.7521 171.407 79.3623 174.412 79.3623 177.272L131.324 207.272Z" fill="#8BC5E4"/>
<path fill-rule="evenodd" clip-rule="evenodd" d="M132.493 198.277C133.264 195.122 134.615 192.192 136.529 189.487L84.5674 159.487C82.6534 162.192 81.3024 165.122 80.5317 168.277L132.493 198.277Z" fill="#8BC5E4"/>
<path fill-rule="evenodd" clip-rule="evenodd" d="M136.529 189.488C138.46 186.773 140.85 184.593 143.708 182.943L91.7467 152.943C88.8888 154.593 86.4986 156.773 84.5674 159.488L136.529 189.488Z" fill="#8BC5E4"/>
<path fill-rule="evenodd" clip-rule="evenodd" d="M143.708 182.942C146.202 181.502 148.263 181.032 149.909 181.522L97.9473 151.522C96.3019 151.032 94.2408 151.502 91.7466 152.942L143.708 182.942Z" fill="#8BC5E4"/>
<path fill-rule="evenodd" clip-rule="evenodd" d="M149.909 181.522C150.228 181.619 150.533 181.757 150.824 181.937L98.8629 151.937C98.5719 151.757 98.2669 151.619 97.9473 151.522L149.909 181.522Z" fill="#8BC5E4"/>
<path fill-rule="evenodd" clip-rule="evenodd" d="M150.823 181.936C152.019 182.676 152.968 184.116 153.664 186.244L101.703 156.244C101.007 154.116 100.058 152.676 98.8618 151.936L150.823 181.936Z" fill="#8BC5E4"/>
<path fill-rule="evenodd" clip-rule="evenodd" d="M158.517 182.122C157.734 179.449 156.488 177.59 154.776 176.547L102.815 146.547C104.527 147.59 105.773 149.449 106.556 152.122L158.517 182.122Z" fill="#8BC5E4"/>
<path fill-rule="evenodd" clip-rule="evenodd" d="M154.768 176.542C154.287 176.25 153.769 176.022 153.215 175.859L101.254 145.859C101.808 146.022 102.326 146.25 102.807 146.542L154.768 176.542Z" fill="#8BC5E4"/>
<path fill-rule="evenodd" clip-rule="evenodd" d="M153.208 175.858C150.671 175.113 147.536 175.813 143.812 177.963L91.8506 147.963C95.5745 145.813 98.7096 145.113 101.247 145.858L153.208 175.858Z" fill="#8BC5E4"/>
<path fill-rule="evenodd" clip-rule="evenodd" d="M161.357 134.562C174.043 127.238 185.562 126.317 194.121 130.741L142.16 100.741C133.601 96.3175 122.082 97.2385 109.396 104.562L161.357 134.562Z" fill="#8BC5E4"/>
<path fill-rule="evenodd" clip-rule="evenodd" d="M194.12 130.74C203.429 135.551 209.238 146.684 209.24 162.781L157.279 132.781C157.277 116.684 151.468 105.551 142.159 100.74L194.12 130.74Z" fill="#8BC5E4"/>
<path fill-rule="evenodd" clip-rule="evenodd" d="M209.24 162.787C209.24 193.697 187.841 231.012 161.357 246.302L109.396 216.302C135.879 201.012 157.278 163.697 157.278 132.787L209.24 162.787Z" fill="#8BC5E4"/>
<path fill-rule="evenodd" clip-rule="evenodd" d="M161.358 246.302C148.668 253.628 137.148 254.552 128.59 250.129L76.6289 220.129C85.1869 224.552 96.7069 223.628 109.396 216.302L161.358 246.302Z" fill="#8BC5E4"/>
<path fill-rule="evenodd" clip-rule="evenodd" d="M128.592 250.13C119.284 245.32 113.477 234.185 113.476 218.083L61.5142 188.083C61.5152 204.185 67.3222 215.32 76.6302 220.13L128.592 250.13Z" fill="#8BC5E4"/>
<path fill-rule="evenodd" clip-rule="evenodd" d="M113.475 218.077C113.475 187.177 134.866 149.857 161.358 134.562L109.396 104.562C82.9045 119.858 61.5137 157.177 61.5137 188.077L113.475 218.077Z" fill="#8BC5E4"/>
<path fill-rule="evenodd" clip-rule="evenodd" d="M263.194 36.9275C264.735 36.0375 266.116 35.9115 267.137 36.4335L215.176 6.43348C214.155 5.91148 212.774 6.03748 211.232 6.92748L263.194 36.9275Z" fill="#8BC5E4"/>
<path fill-rule="evenodd" clip-rule="evenodd" d="M267.135 36.4325C268.248 37.0005 268.934 38.3385 268.935 40.2965L216.974 10.2965C216.973 8.3385 216.287 7.0005 215.174 6.4325L267.135 36.4325Z" fill="#8BC5E4"/>
<path fill-rule="evenodd" clip-rule="evenodd" d="M268.935 215.872C268.935 219.632 266.415 224.027 263.194 225.887L211.232 195.887C214.454 194.027 216.974 189.632 216.974 185.872L268.935 215.872Z" fill="#8BC5E4"/>
<path fill-rule="evenodd" clip-rule="evenodd" d="M62.4228 341.802C60.8792 342.693 59.4952 342.813 58.4742 342.281L6.5127 312.281C7.5337 312.813 8.9177 312.693 10.4613 311.802L62.4228 341.802Z" fill="#8BC5E4"/>
<path fill-rule="evenodd" clip-rule="evenodd" d="M58.4755 342.282C57.3715 341.707 56.6915 340.37 56.6905 338.419L4.729 308.419C4.73 310.37 5.41 311.707 6.514 312.282L58.4755 342.282Z" fill="#8BC5E4"/>
<path fill-rule="evenodd" clip-rule="evenodd" d="M56.69 162.842C56.69 159.082 59.2101 154.697 62.4231 152.842L10.4616 122.842C7.24862 124.697 4.72852 129.082 4.72852 132.842L56.69 162.842Z" fill="#8BC5E4"/>
<path fill-rule="evenodd" clip-rule="evenodd" d="M62.4231 147.323C56.6727 150.643 51.9615 158.853 51.9615 165.573L0 135.573C0 128.853 4.7112 120.643 10.4616 117.323L62.4231 147.323Z" fill="#8BC5E4"/>
<path fill-rule="evenodd" clip-rule="evenodd" d="M51.9615 341.143C51.9615 344.641 53.2375 347.071 55.2725 348.129L3.311 318.129C1.276 317.071 0 314.641 0 311.143L51.9615 341.143Z" fill="#8BC5E4"/>
<path fill-rule="evenodd" clip-rule="evenodd" d="M55.2813 348.133C57.1533 349.102 59.6643 348.912 62.4143 347.327L10.4528 317.327C7.70282 318.912 5.19182 319.102 3.31982 318.133L55.2813 348.133Z" fill="#8BC5E4"/>
<path fill-rule="evenodd" clip-rule="evenodd" d="M263.194 231.408C268.953 228.083 273.664 219.863 273.664 213.143L221.702 183.143C221.702 189.863 216.991 198.083 211.232 201.408L263.194 231.408Z" fill="#8BC5E4"/>
<path fill-rule="evenodd" clip-rule="evenodd" d="M273.664 37.5725C273.664 34.0685 272.382 31.6375 270.339 30.5865L218.378 0.586487C220.421 1.63749 221.703 4.06849 221.702 7.57249L273.664 37.5725Z" fill="#8BC5E4"/>
<path fill-rule="evenodd" clip-rule="evenodd" d="M270.343 30.5875C268.47 29.6215 265.956 29.8155 263.202 31.4025L211.241 1.40249C213.995 -0.184512 216.509 -0.378512 218.382 0.587488L270.343 30.5875Z" fill="#8BC5E4"/>
<path fill-rule="evenodd" clip-rule="evenodd" d="M161.366 126.227C161.357 126.232 161.357 126.232 161.357 126.232L109.396 96.2325C109.396 96.2325 109.396 96.2325 109.405 96.2275L161.366 126.227Z" fill="#8BC5E4"/>
<path fill-rule="evenodd" clip-rule="evenodd" d="M161.358 126.232C140.72 138.147 122.716 161.842 113.302 186.917L61.3403 156.917C70.754 131.842 88.7586 108.147 109.396 96.2325L161.358 126.232Z" fill="#8BC5E4"/>
<path fill-rule="evenodd" clip-rule="evenodd" d="M106.599 215.617C106.417 217.842 106.322 220.037 106.322 222.207L54.3604 192.207C54.3604 190.037 54.4557 187.842 54.6375 185.617L106.599 215.617Z" fill="#8BC5E4"/>
<path fill-rule="evenodd" clip-rule="evenodd" d="M106.322 222.207C106.321 237.711 111.052 249.21 118.916 255.773L66.955 225.773C59.091 219.21 54.36 207.711 54.3604 192.207L106.322 222.207Z" fill="#8BC5E4"/>
<path fill-rule="evenodd" clip-rule="evenodd" d="M118.912 255.769C120.035 256.706 121.222 257.543 122.468 258.277L70.5067 228.277C69.2607 227.543 68.0737 226.706 66.9507 225.769L118.912 255.769Z" fill="#8BC5E4"/>
<path fill-rule="evenodd" clip-rule="evenodd" d="M122.464 258.276C126.124 260.431 130.295 261.695 134.859 261.998L82.8979 231.998C78.3339 231.695 74.1629 230.431 70.5029 228.276L122.464 258.276Z" fill="#8BC5E4"/>
<path fill-rule="evenodd" clip-rule="evenodd" d="M158.006 256.458C159.115 255.888 160.232 255.293 161.358 254.643L109.396 224.643C108.271 225.293 107.153 225.888 106.045 226.458L158.006 256.458Z" fill="#8BC5E4"/>
<path fill-rule="evenodd" clip-rule="evenodd" d="M161.357 254.642C182.142 242.642 200.268 218.667 209.63 193.362L157.668 163.362C148.306 188.667 130.181 212.642 109.396 224.642L161.357 254.642Z" fill="#8BC5E4"/>
<path fill-rule="evenodd" clip-rule="evenodd" d="M216.333 161.522C216.368 160.562 216.385 159.612 216.385 158.662L164.424 128.662C164.424 129.612 164.406 130.562 164.372 131.522L216.333 161.522Z" fill="#8BC5E4"/>
<path fill-rule="evenodd" clip-rule="evenodd" d="M216.385 158.663C216.386 143.07 211.598 131.526 203.649 124.982L151.687 94.9815C159.636 101.526 164.424 113.07 164.424 128.663L216.385 158.663Z" fill="#8BC5E4"/>
<path fill-rule="evenodd" clip-rule="evenodd" d="M203.656 124.988C202.521 124.053 201.321 123.22 200.062 122.492L148.1 92.4915C149.359 93.2195 150.559 94.0525 151.694 94.9875L203.656 124.988Z" fill="#8BC5E4"/>
<path fill-rule="evenodd" clip-rule="evenodd" d="M200.065 122.493C196.376 120.359 192.174 119.123 187.578 118.857L135.617 88.8575C140.213 89.1235 144.415 90.3595 148.104 92.4935L200.065 122.493Z" fill="#8BC5E4"/>
<path fill-rule="evenodd" clip-rule="evenodd" d="M263.194 36.9275C264.735 36.0375 266.116 35.9115 267.137 36.4335L215.176 6.43348C214.155 5.91148 212.774 6.03748 211.232 6.92748L263.194 36.9275Z" fill="#8BC5E4"/>
<path fill-rule="evenodd" clip-rule="evenodd" d="M267.135 36.4325C268.248 37.0005 268.934 38.3385 268.935 40.2965L216.974 10.2965C216.973 8.3385 216.287 7.0005 215.174 6.4325L267.135 36.4325Z" fill="#8BC5E4"/>
<path fill-rule="evenodd" clip-rule="evenodd" d="M268.935 215.872C268.935 219.632 266.415 224.027 263.194 225.887L211.232 195.887C214.454 194.027 216.974 189.632 216.974 185.872L268.935 215.872Z" fill="#8BC5E4"/>
<path fill-rule="evenodd" clip-rule="evenodd" d="M62.4228 341.802C60.8792 342.693 59.4952 342.813 58.4742 342.281L6.5127 312.281C7.5337 312.813 8.9177 312.693 10.4613 311.802L62.4228 341.802Z" fill="#8BC5E4"/>
<path fill-rule="evenodd" clip-rule="evenodd" d="M58.4755 342.282C57.3715 341.707 56.6915 340.37 56.6905 338.419L4.729 308.419C4.73 310.37 5.41 311.707 6.514 312.282L58.4755 342.282Z" fill="#8BC5E4"/>
<path fill-rule="evenodd" clip-rule="evenodd" d="M56.69 162.842C56.69 159.082 59.2101 154.697 62.4231 152.842L10.4616 122.842C7.24862 124.697 4.72852 129.082 4.72852 132.842L56.69 162.842Z" fill="#8BC5E4"/>
<path fill-rule="evenodd" clip-rule="evenodd" d="M187.572 118.857C192.169 119.122 196.371 120.357 200.061 122.491L148.1 92.4915C144.41 90.3575 140.208 89.1225 135.611 88.8575L187.572 118.857Z" fill="#8BC5E4"/>
<path fill-rule="evenodd" clip-rule="evenodd" d="M200.065 122.492C201.32 123.218 202.517 124.049 203.649 124.981L151.687 94.9815C150.555 94.0495 149.358 93.2185 148.103 92.4925L200.065 122.492Z" fill="#8BC5E4"/>
<path fill-rule="evenodd" clip-rule="evenodd" d="M203.647 124.98C211.596 131.522 216.384 143.063 216.386 158.653L164.424 128.653C164.422 113.063 159.634 101.522 151.685 94.9805L203.647 124.98Z" fill="#8BC5E4"/>
<path fill-rule="evenodd" clip-rule="evenodd" d="M216.385 158.662C216.385 159.612 216.368 160.562 216.333 161.522L164.372 131.522C164.406 130.562 164.424 129.612 164.424 128.662L216.385 158.662Z" fill="#8BC5E4"/>
<path fill-rule="evenodd" clip-rule="evenodd" d="M209.63 193.362C200.268 218.667 182.142 242.642 161.357 254.642L109.396 224.642C130.181 212.642 148.306 188.667 157.668 163.362L209.63 193.362Z" fill="#8BC5E4"/>
<path fill-rule="evenodd" clip-rule="evenodd" d="M161.358 254.643C160.232 255.293 159.115 255.888 158.006 256.458L106.045 226.458C107.153 225.888 108.271 225.293 109.396 224.643L161.358 254.643Z" fill="#8BC5E4"/>
<path fill-rule="evenodd" clip-rule="evenodd" d="M134.866 261.997C130.3 261.695 126.128 260.432 122.468 258.277L70.5068 228.277C74.1668 230.432 78.3388 231.695 82.9044 231.997L134.866 261.997Z" fill="#8BC5E4"/>
<path fill-rule="evenodd" clip-rule="evenodd" d="M122.471 258.279C121.226 257.546 120.04 256.71 118.917 255.773L66.9551 225.773C68.0781 226.71 69.2641 227.546 70.5091 228.279L122.471 258.279Z" fill="#8BC5E4"/>
<path fill-rule="evenodd" clip-rule="evenodd" d="M118.918 255.774C111.054 249.213 106.323 237.717 106.321 222.216L54.3599 192.216C54.3619 207.717 59.0929 219.213 66.9569 225.774L118.918 255.774Z" fill="#8BC5E4"/>
<path fill-rule="evenodd" clip-rule="evenodd" d="M106.322 222.207C106.322 220.037 106.417 217.842 106.599 215.617L54.6375 185.617C54.4557 187.842 54.3604 190.037 54.3604 192.207L106.322 222.207Z" fill="#8BC5E4"/>
<path fill-rule="evenodd" clip-rule="evenodd" d="M113.302 186.917C122.716 161.842 140.72 138.147 161.358 126.232L109.396 96.2325C88.7586 108.147 70.754 131.842 61.3403 156.917L113.302 186.917Z" fill="#8BC5E4"/>
<path fill-rule="evenodd" clip-rule="evenodd" d="M161.357 134.562C174.043 127.238 185.562 126.317 194.121 130.741L142.16 100.741C133.601 96.3175 122.082 97.2385 109.396 104.562L161.357 134.562Z" fill="#8BC5E4"/>
<path fill-rule="evenodd" clip-rule="evenodd" d="M194.12 130.74C203.429 135.551 209.238 146.684 209.24 162.781L157.279 132.781C157.277 116.684 151.468 105.551 142.159 100.74L194.12 130.74Z" fill="#8BC5E4"/>
<path fill-rule="evenodd" clip-rule="evenodd" d="M209.24 162.787C209.24 193.697 187.841 231.012 161.357 246.302L109.396 216.302C135.879 201.012 157.278 163.697 157.278 132.787L209.24 162.787Z" fill="#8BC5E4"/>
<path fill-rule="evenodd" clip-rule="evenodd" d="M161.358 246.302C148.668 253.628 137.148 254.552 128.59 250.129L76.6289 220.129C85.1869 224.552 96.7069 223.628 109.396 216.302L161.358 246.302Z" fill="#8BC5E4"/>
<path fill-rule="evenodd" clip-rule="evenodd" d="M128.592 250.13C119.284 245.32 113.477 234.185 113.476 218.083L61.5142 188.083C61.5152 204.185 67.3222 215.32 76.6302 220.13L128.592 250.13Z" fill="#8BC5E4"/>
<path fill-rule="evenodd" clip-rule="evenodd" d="M113.475 218.077C113.475 187.177 134.866 149.857 161.358 134.562L109.396 104.562C82.9045 119.858 61.5137 157.177 61.5137 188.077L113.475 218.077Z" fill="#8BC5E4"/>
<path fill-rule="evenodd" clip-rule="evenodd" d="M172.348 164.128C175.093 160.783 178.107 158.163 181.389 156.268L129.428 126.268C126.145 128.163 123.132 130.783 120.386 134.128L172.348 164.128Z" fill="#8BC5E4"/>
<path fill-rule="evenodd" clip-rule="evenodd" d="M181.389 156.268C185.113 154.118 188.248 153.418 190.785 154.163L138.824 124.163C136.286 123.418 133.151 124.118 129.427 126.268L181.389 156.268Z" fill="#8BC5E4"/>
<path fill-rule="evenodd" clip-rule="evenodd" d="M190.785 154.162C191.345 154.326 191.867 154.556 192.352 154.852L140.391 124.852C139.906 124.556 139.384 124.326 138.824 124.162L190.785 154.162Z" fill="#8BC5E4"/>
<path fill-rule="evenodd" clip-rule="evenodd" d="M192.353 154.852C194.064 155.894 195.308 157.752 196.084 160.427L144.122 130.427C143.346 127.752 142.102 125.894 140.391 124.852L192.353 154.852Z" fill="#8BC5E4"/>
<path fill-rule="evenodd" clip-rule="evenodd" d="M191.236 164.562C190.627 162.674 189.816 161.328 188.81 160.529L136.848 130.529C137.854 131.328 138.665 132.674 139.274 134.562L191.236 164.562Z" fill="#8BC5E4"/>
<path fill-rule="evenodd" clip-rule="evenodd" d="M188.811 160.531C188.678 160.425 188.541 160.329 188.401 160.242L136.44 130.242C136.58 130.329 136.717 130.425 136.85 130.531L188.811 160.531Z" fill="#8BC5E4"/>
<path fill-rule="evenodd" clip-rule="evenodd" d="M188.39 160.236C188.106 160.061 187.807 159.926 187.495 159.831L135.534 129.831C135.846 129.926 136.145 130.061 136.429 130.236L188.39 160.236Z" fill="#8BC5E4"/>
<path fill-rule="evenodd" clip-rule="evenodd" d="M187.486 159.827C185.841 159.337 183.779 159.807 181.285 161.247L129.324 131.247C131.818 129.807 133.879 129.337 135.524 129.827L187.486 159.827Z" fill="#8BC5E4"/>
<path fill-rule="evenodd" clip-rule="evenodd" d="M181.285 161.247C178.427 162.897 176.037 165.077 174.106 167.792L122.144 137.792C124.075 135.077 126.466 132.897 129.323 131.247L181.285 161.247Z" fill="#8BC5E4"/>
<path fill-rule="evenodd" clip-rule="evenodd" d="M174.105 167.792C172.192 170.497 170.841 173.427 170.061 176.587L118.1 146.587C118.879 143.427 120.23 140.497 122.144 137.792L174.105 167.792Z" fill="#8BC5E4"/>
<path fill-rule="evenodd" clip-rule="evenodd" d="M170.061 176.587C169.291 179.712 168.901 182.717 168.901 185.577L116.939 155.577C116.939 152.717 117.329 149.712 118.1 146.587L170.061 176.587Z" fill="#8BC5E4"/>
<path fill-rule="evenodd" clip-rule="evenodd" d="M168.901 185.578C168.901 189.268 169.36 192.233 170.269 194.478L118.308 164.478C117.398 162.233 116.939 159.268 116.939 155.578L168.901 185.578Z" fill="#8BC5E4"/>
<path fill-rule="evenodd" clip-rule="evenodd" d="M170.269 194.477C170.88 195.933 171.719 196.961 172.776 197.561L120.815 167.561C119.758 166.961 118.919 165.933 118.308 164.477L170.269 194.477Z" fill="#8BC5E4"/>
<path fill-rule="evenodd" clip-rule="evenodd" d="M172.774 197.56C173.317 197.869 173.919 198.064 174.577 198.146L122.615 168.146C121.957 168.064 121.355 167.869 120.812 167.56L172.774 197.56Z" fill="#8BC5E4"/>
<path fill-rule="evenodd" clip-rule="evenodd" d="M174.582 198.147C176.531 198.382 178.644 197.842 180.904 196.537L128.943 166.537C126.682 167.842 124.569 168.382 122.621 168.147L174.582 198.147Z" fill="#8BC5E4"/>
<path fill-rule="evenodd" clip-rule="evenodd" d="M180.904 196.537C183.666 194.942 186.005 192.672 187.91 189.712L135.948 159.712C134.043 162.672 131.705 164.942 128.942 166.537L180.904 196.537Z" fill="#8BC5E4"/>
<path fill-rule="evenodd" clip-rule="evenodd" d="M187.91 189.713C189.824 186.748 191.123 183.248 191.799 179.198L139.837 149.198C139.162 153.248 137.863 156.748 135.949 159.713L187.91 189.713Z" fill="#8BC5E4"/>
<path fill-rule="evenodd" clip-rule="evenodd" d="M196.726 177.812C195.696 183.127 193.834 187.802 191.14 191.847L139.179 161.847C141.872 157.802 143.734 153.128 144.765 147.812L196.726 177.812Z" fill="#8BC5E4"/>
<path fill-rule="evenodd" clip-rule="evenodd" d="M191.141 191.847C188.465 195.862 185.191 198.982 181.311 201.222L129.35 171.222C133.229 168.982 136.503 165.862 139.179 161.847L191.141 191.847Z" fill="#8BC5E4"/>
<path fill-rule="evenodd" clip-rule="evenodd" d="M181.311 201.222C177.301 203.537 174.036 204.482 171.516 204.037L119.555 174.037C122.075 174.482 125.34 173.537 129.349 171.222L181.311 201.222Z" fill="#8BC5E4"/>
<path fill-rule="evenodd" clip-rule="evenodd" d="M171.516 204.037C170.662 203.877 169.878 203.581 169.162 203.146L117.201 173.146C117.917 173.581 118.701 173.877 119.554 174.037L171.516 204.037Z" fill="#8BC5E4"/>
<path fill-rule="evenodd" clip-rule="evenodd" d="M169.164 203.147C167.776 202.305 166.647 200.945 165.778 199.06L113.817 169.06C114.686 170.945 115.815 172.305 117.203 173.147L169.164 203.147Z" fill="#8BC5E4"/>
<path fill-rule="evenodd" clip-rule="evenodd" d="M165.775 199.052C164.467 196.197 163.817 192.692 163.817 188.542L111.856 158.542C111.856 162.692 112.505 166.197 113.813 169.052L165.775 199.052Z" fill="#8BC5E4"/>
<path fill-rule="evenodd" clip-rule="evenodd" d="M163.817 188.543C163.817 184.023 164.554 179.658 166.026 175.448L114.064 145.448C112.592 149.658 111.856 154.023 111.856 158.543L163.817 188.543Z" fill="#8BC5E4"/>
<path fill-rule="evenodd" clip-rule="evenodd" d="M166.025 175.448C167.524 171.213 169.628 167.438 172.347 164.128L120.386 134.128C117.667 137.438 115.562 141.213 114.064 145.448L166.025 175.448Z" fill="#8BC5E4"/>
<path fill-rule="evenodd" clip-rule="evenodd" d="M134.779 185.817C137.516 182.477 140.53 179.857 143.812 177.962L91.8505 147.962C88.5683 149.857 85.5545 152.477 82.8179 155.817L134.779 185.817Z" fill="#8BC5E4"/>
<path fill-rule="evenodd" clip-rule="evenodd" d="M143.812 177.963C147.536 175.813 150.671 175.113 153.208 175.858L101.247 145.858C98.7096 145.113 95.5745 145.813 91.8506 147.963L143.812 177.963Z" fill="#8BC5E4"/>
<path fill-rule="evenodd" clip-rule="evenodd" d="M153.209 175.857C153.769 176.021 154.292 176.251 154.777 176.547L102.815 146.547C102.33 146.251 101.807 146.021 101.247 145.857L153.209 175.857Z" fill="#8BC5E4"/>
<path fill-rule="evenodd" clip-rule="evenodd" d="M154.775 176.547C156.486 177.59 157.732 179.447 158.515 182.118L106.554 152.118C105.771 149.447 104.525 147.59 102.814 146.547L154.775 176.547Z" fill="#8BC5E4"/>
<path fill-rule="evenodd" clip-rule="evenodd" d="M153.667 186.252C153.051 184.368 152.239 183.022 151.232 182.224L99.271 152.224C100.278 153.022 101.09 154.368 101.706 156.252L153.667 186.252Z" fill="#8BC5E4"/>
<path fill-rule="evenodd" clip-rule="evenodd" d="M151.235 182.226C151.101 182.12 150.964 182.024 150.824 181.938L98.8628 151.938C99.0028 152.024 99.1398 152.12 99.2738 152.227L151.235 182.226Z" fill="#8BC5E4"/>
<path fill-rule="evenodd" clip-rule="evenodd" d="M150.814 181.931C150.53 181.756 150.231 181.621 149.919 181.526L97.957 151.526C98.269 151.621 98.568 151.756 98.852 151.931L150.814 181.931Z" fill="#8BC5E4"/>
<path fill-rule="evenodd" clip-rule="evenodd" d="M149.909 181.522C148.263 181.032 146.202 181.502 143.708 182.942L91.7466 152.942C94.2408 151.502 96.3019 151.032 97.9473 151.522L149.909 181.522Z" fill="#8BC5E4"/>
<path fill-rule="evenodd" clip-rule="evenodd" d="M143.708 182.943C140.85 184.593 138.46 186.773 136.529 189.488L84.5674 159.488C86.4986 156.773 88.8888 154.593 91.7467 152.943L143.708 182.943Z" fill="#8BC5E4"/>
<path fill-rule="evenodd" clip-rule="evenodd" d="M136.529 189.487C134.615 192.192 133.264 195.122 132.493 198.277L80.5317 168.277C81.3024 165.122 82.6534 162.192 84.5674 159.487L136.529 189.487Z" fill="#8BC5E4"/>
<path fill-rule="evenodd" clip-rule="evenodd" d="M132.493 198.277C131.714 201.407 131.324 204.412 131.324 207.272L79.3623 177.272C79.3623 174.412 79.7521 171.407 80.5315 168.277L132.493 198.277Z" fill="#8BC5E4"/>
<path fill-rule="evenodd" clip-rule="evenodd" d="M131.324 207.272C131.324 210.962 131.783 213.927 132.692 216.172L80.7307 186.172C79.8213 183.927 79.3623 180.962 79.3623 177.272L131.324 207.272Z" fill="#8BC5E4"/>
<path fill-rule="evenodd" clip-rule="evenodd" d="M132.692 216.172C133.31 217.624 134.147 218.654 135.202 219.255L83.2401 189.255C82.1851 188.654 81.3481 187.624 80.731 186.172L132.692 216.172Z" fill="#8BC5E4"/>
<path fill-rule="evenodd" clip-rule="evenodd" d="M135.198 219.253C135.74 219.563 136.341 219.759 136.999 219.841L85.0378 189.841C84.3798 189.759 83.7788 189.563 83.2368 189.253L135.198 219.253Z" fill="#8BC5E4"/>
<path fill-rule="evenodd" clip-rule="evenodd" d="M137.005 219.842C138.953 220.077 141.067 219.537 143.336 218.227L91.3741 188.227C89.1051 189.537 86.992 190.077 85.0435 189.842L137.005 219.842Z" fill="#8BC5E4"/>
<path fill-rule="evenodd" clip-rule="evenodd" d="M143.336 218.227C146.09 216.637 148.428 214.367 150.342 211.402L98.3802 181.402C96.4662 184.367 94.128 186.637 91.374 188.227L143.336 218.227Z" fill="#8BC5E4"/>
<path fill-rule="evenodd" clip-rule="evenodd" d="M150.342 211.403C152.247 208.443 153.546 204.943 154.222 200.893L102.26 170.893C101.585 174.943 100.286 178.443 98.3804 181.403L150.342 211.403Z" fill="#8BC5E4"/>
<path fill-rule="evenodd" clip-rule="evenodd" d="M159.149 199.508C158.119 204.823 156.257 209.498 153.564 213.543L101.602 183.543C104.295 179.498 106.157 174.823 107.188 169.508L159.149 199.508Z" fill="#8BC5E4"/>
<path fill-rule="evenodd" clip-rule="evenodd" d="M153.563 213.542C150.887 217.557 147.614 220.677 143.734 222.917L91.7725 192.917C95.6523 190.677 98.9259 187.557 101.602 183.542L153.563 213.542Z" fill="#8BC5E4"/>
<path fill-rule="evenodd" clip-rule="evenodd" d="M143.734 222.917C139.725 225.232 136.46 226.177 133.94 225.732L81.978 195.732C84.4982 196.177 87.7631 195.232 91.7728 192.917L143.734 222.917Z" fill="#8BC5E4"/>
<path fill-rule="evenodd" clip-rule="evenodd" d="M133.939 225.733C133.085 225.573 132.302 225.276 131.587 224.841L79.626 194.841C80.341 195.276 81.124 195.573 81.9779 195.733L133.939 225.733Z" fill="#8BC5E4"/>
<path fill-rule="evenodd" clip-rule="evenodd" d="M131.59 224.841C130.203 223.998 129.076 222.636 128.201 220.755L76.2397 190.755C77.1147 192.636 78.2417 193.998 79.6287 194.841L131.59 224.841Z" fill="#8BC5E4"/>
<path fill-rule="evenodd" clip-rule="evenodd" d="M128.198 220.747C126.899 217.887 126.24 214.387 126.24 210.237L74.2788 180.237C74.2788 184.387 74.937 187.887 76.236 190.747L128.198 220.747Z" fill="#8BC5E4"/>
<path fill-rule="evenodd" clip-rule="evenodd" d="M126.24 210.238C126.24 205.718 126.985 201.348 128.457 197.138L76.4958 167.138C75.0236 171.348 74.2788 175.718 74.2788 180.238L126.24 210.238Z" fill="#8BC5E4"/>
<path fill-rule="evenodd" clip-rule="evenodd" d="M128.458 197.138C129.938 192.913 132.052 189.133 134.78 185.818L82.8181 155.818C80.0901 159.133 77.977 162.913 76.4961 167.138L128.458 197.138Z" fill="#8BC5E4"/>
<path fill-rule="evenodd" clip-rule="evenodd" d="M62.423 152.842L263.194 36.9275C266.415 35.0675 268.935 36.5425 268.935 40.3025V215.872C268.935 219.632 266.415 224.027 263.194 225.887L62.423 341.802C59.2101 343.658 56.6899 342.172 56.6899 338.412V162.842C56.6899 159.082 59.2101 154.697 62.423 152.842ZM93.7385 164.932L109.95 131.662L126.162 146.212L93.7385 164.932ZM161.366 126.167V126.227L161.358 126.232C140.72 138.147 122.716 161.842 113.302 186.917V156.507L106.599 160.377V215.617C106.417 217.842 106.322 220.037 106.322 222.207C106.322 246.427 117.866 260.872 134.866 261.997L108.426 277.262V285.082L158.006 256.457C159.115 255.887 160.232 255.292 161.358 254.642C182.142 242.642 200.268 218.667 209.63 193.362V224.312L216.333 220.442V161.522C216.368 160.562 216.385 159.612 216.385 158.662C216.385 134.322 204.72 119.847 187.572 118.857L215.363 102.812V94.9925L161.366 126.167ZM209.24 162.787C209.24 131.887 187.841 119.272 161.358 134.562C134.866 149.857 113.475 187.177 113.475 218.077C113.475 248.987 134.866 261.597 161.358 246.302C187.841 231.012 209.24 193.697 209.24 162.787ZM217.831 116.397V78.5675L238.313 85.6525L217.831 116.397ZM196.77 234.617L212.982 249.157L229.194 215.897L196.77 234.617ZM85.4679 294.427L105.958 263.677V301.507L85.4679 294.427ZM143.812 177.962C140.53 179.857 137.516 182.477 134.779 185.817C132.051 189.132 129.938 192.912 128.457 197.137C126.985 201.347 126.24 205.717 126.24 210.237C126.24 214.387 126.899 217.887 128.198 220.747C129.523 223.602 131.428 225.262 133.939 225.732C136.46 226.177 139.724 225.232 143.734 222.917C147.614 220.677 150.888 217.557 153.564 213.542C156.257 209.497 158.119 204.822 159.149 199.507L154.222 200.892C153.546 204.942 152.247 208.442 150.342 211.402C148.428 214.367 146.09 216.637 143.336 218.227C141.067 219.537 138.954 220.077 137.005 219.842C135.065 219.602 133.628 218.372 132.692 216.172C131.783 213.927 131.324 210.962 131.324 207.272C131.324 204.412 131.714 201.407 132.493 198.277C133.264 195.122 134.615 192.192 136.529 189.487C138.46 186.772 140.85 184.592 143.708 182.942C146.202 181.502 148.263 181.032 149.909 181.522C151.546 182.017 152.801 183.602 153.667 186.252L158.517 182.122C157.513 178.692 155.746 176.602 153.208 175.857C150.671 175.112 147.536 175.812 143.812 177.962ZM172.348 164.127C175.093 160.782 178.107 158.162 181.389 156.267C185.113 154.117 188.248 153.417 190.785 154.162C193.323 154.907 195.089 156.997 196.085 160.432L191.236 164.562C190.378 161.907 189.123 160.322 187.486 159.827C185.84 159.337 183.779 159.807 181.285 161.247C178.427 162.897 176.037 165.077 174.106 167.792C172.192 170.497 170.841 173.427 170.061 176.587C169.291 179.712 168.901 182.717 168.901 185.577C168.901 189.267 169.36 192.232 170.269 194.477C171.196 196.682 172.642 197.907 174.582 198.147C176.531 198.382 178.644 197.842 180.904 196.537C183.667 194.942 186.005 192.672 187.91 189.712C189.824 186.747 191.123 183.247 191.799 179.197L196.726 177.812C195.696 183.127 193.834 187.802 191.14 191.847C188.464 195.862 185.191 198.982 181.311 201.222C177.301 203.537 174.036 204.482 171.516 204.037C169.005 203.567 167.091 201.912 165.774 199.052C164.467 196.197 163.817 192.692 163.817 188.542C163.817 184.022 164.553 179.657 166.026 175.447C167.524 171.212 169.628 167.437 172.348 164.127Z" fill="white"/>
</svg>
