<svg width="274" height="349" viewBox="0 0 274 349" fill="none" xmlns="http://www.w3.org/2000/svg">
<path fill-rule="evenodd" clip-rule="evenodd" d="M111.042 105.404L163.003 75.4044L111.042 105.404Z" fill="#8BC5E4"/>
<path fill-rule="evenodd" clip-rule="evenodd" d="M37.6113 88.4594V193.119L89.5728 163.119V58.4594L37.6113 88.4594Z" fill="#8BC5E4"/>
<path fill-rule="evenodd" clip-rule="evenodd" d="M37.6113 193.119L184.048 277.664L236.009 247.664L89.5728 163.119L37.6113 193.119Z" fill="#8BC5E4"/>
<path fill-rule="evenodd" clip-rule="evenodd" d="M184.048 277.664V173.004L236.009 143.004V247.664L184.048 277.664Z" fill="#8BC5E4"/>
<path fill-rule="evenodd" clip-rule="evenodd" d="M184.048 173.004L37.6113 88.4594L89.5728 58.4594L236.009 143.004L184.048 173.004Z" fill="#8BC5E4"/>
<path fill-rule="evenodd" clip-rule="evenodd" d="M37.6113 88.4594L89.5728 58.4594L37.6113 88.4594Z" fill="#8BC5E4"/>
<path fill-rule="evenodd" clip-rule="evenodd" d="M100.771 248.344L103.533 250.509L155.495 220.509L152.732 218.344L100.771 248.344Z" fill="#8BC5E4"/>
<path fill-rule="evenodd" clip-rule="evenodd" d="M106.262 255.814L105.95 258.474L157.911 228.474L158.223 225.814L106.262 255.814Z" fill="#8BC5E4"/>
<path fill-rule="evenodd" clip-rule="evenodd" d="M103.265 262.004L100.494 260.834L152.455 230.834L155.226 232.004L103.265 262.004Z" fill="#8BC5E4"/>
<path fill-rule="evenodd" clip-rule="evenodd" d="M107.552 245.429L159.513 215.429L107.552 245.429Z" fill="#8BC5E4"/>
<path fill-rule="evenodd" clip-rule="evenodd" d="M118.187 259.179L121.036 261.174L172.997 231.174L170.148 229.179L118.187 259.179Z" fill="#8BC5E4"/>
<path fill-rule="evenodd" clip-rule="evenodd" d="M117.667 277.699L132.571 286.304L184.533 256.304L169.628 247.699L117.667 277.699Z" fill="#8BC5E4"/>
<path fill-rule="evenodd" clip-rule="evenodd" d="M132.571 286.304V283.194L184.533 253.194V256.304L132.571 286.304Z" fill="#8BC5E4"/>
<path fill-rule="evenodd" clip-rule="evenodd" d="M132.571 283.194L121.512 276.809L173.474 246.809L184.533 253.194L132.571 283.194Z" fill="#8BC5E4"/>
<path fill-rule="evenodd" clip-rule="evenodd" d="M125.513 255.799L177.475 225.799L125.513 255.799Z" fill="#8BC5E4"/>
<path fill-rule="evenodd" clip-rule="evenodd" d="M135.854 268.599L138.625 270.769L190.586 240.769L187.815 238.599L135.854 268.599Z" fill="#8BC5E4"/>
<path fill-rule="evenodd" clip-rule="evenodd" d="M141.344 276.069L141.041 278.734L193.003 248.734L193.306 246.069L141.344 276.069Z" fill="#8BC5E4"/>
<path fill-rule="evenodd" clip-rule="evenodd" d="M138.347 282.259L135.576 281.089L187.538 251.089L190.309 252.259L138.347 282.259Z" fill="#8BC5E4"/>
<path fill-rule="evenodd" clip-rule="evenodd" d="M142.634 265.684L194.596 235.684L142.634 265.684Z" fill="#8BC5E4"/>
<path fill-rule="evenodd" clip-rule="evenodd" d="M70.1826 223.964V250.284L122.144 220.284V193.964L70.1826 223.964Z" fill="#8BC5E4"/>
<path fill-rule="evenodd" clip-rule="evenodd" d="M70.1826 250.284L73.1617 252.004L125.123 222.004L122.144 220.284L70.1826 250.284Z" fill="#8BC5E4"/>
<path fill-rule="evenodd" clip-rule="evenodd" d="M73.1616 252.004V239.604L125.123 209.604V222.004L73.1616 252.004Z" fill="#8BC5E4"/>
<path fill-rule="evenodd" clip-rule="evenodd" d="M73.1616 239.604L84.8876 246.374L136.849 216.374L125.123 209.604L73.1616 239.604Z" fill="#8BC5E4"/>
<path fill-rule="evenodd" clip-rule="evenodd" d="M84.8877 246.374V258.774L136.849 228.774V216.374L84.8877 246.374Z" fill="#8BC5E4"/>
<path fill-rule="evenodd" clip-rule="evenodd" d="M84.8877 258.774L87.8755 260.499L139.837 230.499L136.849 228.774L84.8877 258.774Z" fill="#8BC5E4"/>
<path fill-rule="evenodd" clip-rule="evenodd" d="M87.8755 260.499V234.179L139.837 204.179V230.499L87.8755 260.499Z" fill="#8BC5E4"/>
<path fill-rule="evenodd" clip-rule="evenodd" d="M87.8755 234.179L84.8877 232.454L136.849 202.454L139.837 204.179L87.8755 234.179Z" fill="#8BC5E4"/>
<path fill-rule="evenodd" clip-rule="evenodd" d="M84.8877 232.454V243.264L136.849 213.264V202.454L84.8877 232.454Z" fill="#8BC5E4"/>
<path fill-rule="evenodd" clip-rule="evenodd" d="M84.8876 243.264L73.1616 236.494L125.123 206.494L136.849 213.264L84.8876 243.264Z" fill="#8BC5E4"/>
<path fill-rule="evenodd" clip-rule="evenodd" d="M73.1616 236.494V225.684L125.123 195.684V206.494L73.1616 236.494Z" fill="#8BC5E4"/>
<path fill-rule="evenodd" clip-rule="evenodd" d="M73.1617 225.684L70.1826 223.964L122.144 193.964L125.123 195.684L73.1617 225.684Z" fill="#8BC5E4"/>
<path fill-rule="evenodd" clip-rule="evenodd" d="M70.1826 223.964L122.144 193.964L70.1826 223.964Z" fill="#8BC5E4"/>
<path fill-rule="evenodd" clip-rule="evenodd" d="M93.2881 259.944V263.624L145.25 233.624V229.944L93.2881 259.944Z" fill="#8BC5E4"/>
<path fill-rule="evenodd" clip-rule="evenodd" d="M93.2881 263.624L96.4404 265.444L148.402 235.444L145.25 233.624L93.2881 263.624Z" fill="#8BC5E4"/>
<path fill-rule="evenodd" clip-rule="evenodd" d="M96.4404 265.444V261.764L148.402 231.764V235.444L96.4404 265.444Z" fill="#8BC5E4"/>
<path fill-rule="evenodd" clip-rule="evenodd" d="M96.4404 261.764L93.2881 259.944L145.25 229.944L148.402 231.764L96.4404 261.764Z" fill="#8BC5E4"/>
<path fill-rule="evenodd" clip-rule="evenodd" d="M93.2881 259.944L145.25 229.944L93.2881 259.944Z" fill="#8BC5E4"/>
<path fill-rule="evenodd" clip-rule="evenodd" d="M0 37.5744V213.144L51.9615 183.144V7.57436L0 37.5744Z" fill="#8BC5E4"/>
<path fill-rule="evenodd" clip-rule="evenodd" d="M10.4614 231.404L211.232 347.319L263.194 317.319L62.4229 201.404L10.4614 231.404Z" fill="#8BC5E4"/>
<path fill-rule="evenodd" clip-rule="evenodd" d="M221.703 341.144V165.574L273.664 135.574V311.144L221.703 341.144Z" fill="#8BC5E4"/>
<path fill-rule="evenodd" clip-rule="evenodd" d="M211.232 147.319L10.4614 31.4044L62.4229 1.40437L263.194 117.319L211.232 147.319Z" fill="#8BC5E4"/>
<path fill-rule="evenodd" clip-rule="evenodd" d="M10.4614 31.4044L62.4229 1.40437L10.4614 31.4044Z" fill="#8BC5E4"/>
<path fill-rule="evenodd" clip-rule="evenodd" d="M10.4614 36.9244L211.232 152.839L263.194 122.839L62.4229 6.92436L10.4614 36.9244Z" fill="#8BC5E4"/>
<path fill-rule="evenodd" clip-rule="evenodd" d="M216.974 162.844V338.414L268.936 308.414V132.844L216.974 162.844Z" fill="#8BC5E4"/>
<path fill-rule="evenodd" clip-rule="evenodd" d="M211.232 341.799L10.4614 225.884L62.4229 195.884L263.194 311.799L211.232 341.799Z" fill="#8BC5E4"/>
<path fill-rule="evenodd" clip-rule="evenodd" d="M4.72852 215.874V40.3044L56.69 10.3044V185.874L4.72852 215.874Z" fill="#8BC5E4"/>
<path fill-rule="evenodd" clip-rule="evenodd" d="M10.4614 36.9244L62.4229 6.92436L10.4614 36.9244Z" fill="#8BC5E4"/>
<path fill-rule="evenodd" clip-rule="evenodd" d="M10.4614 36.9244L211.232 152.839L263.194 122.839L62.4229 6.92436L10.4614 36.9244Z" fill="#8BC5E4"/>
<path fill-rule="evenodd" clip-rule="evenodd" d="M216.974 162.844V338.414L268.936 308.414V132.844L216.974 162.844Z" fill="#8BC5E4"/>
<path fill-rule="evenodd" clip-rule="evenodd" d="M211.232 341.799L10.4614 225.884L62.4229 195.884L263.194 311.799L211.232 341.799Z" fill="#8BC5E4"/>
<path fill-rule="evenodd" clip-rule="evenodd" d="M4.72852 215.874V40.3044L56.69 10.3044V185.874L4.72852 215.874Z" fill="#8BC5E4"/>
<path fill-rule="evenodd" clip-rule="evenodd" d="M10.4614 36.9244L62.4229 6.92436L10.4614 36.9244Z" fill="#8BC5E4"/>
<path fill-rule="evenodd" clip-rule="evenodd" d="M103.499 109.859L155.46 79.8594L103.499 109.859Z" fill="#8BC5E4"/>
<path fill-rule="evenodd" clip-rule="evenodd" d="M37.6113 193.119V88.4594L89.5728 58.4594V163.119L37.6113 193.119Z" fill="#8BC5E4"/>
<path fill-rule="evenodd" clip-rule="evenodd" d="M37.6113 88.4594L184.048 173.004L236.009 143.004L89.5728 58.4594L37.6113 88.4594Z" fill="#8BC5E4"/>
<path fill-rule="evenodd" clip-rule="evenodd" d="M184.048 173.004V277.664L236.009 247.664V143.004L184.048 173.004Z" fill="#8BC5E4"/>
<path fill-rule="evenodd" clip-rule="evenodd" d="M184.048 277.664L37.6113 193.119L89.5728 163.119L236.009 247.664L184.048 277.664Z" fill="#8BC5E4"/>
<path fill-rule="evenodd" clip-rule="evenodd" d="M37.6113 193.119L89.5728 163.119L37.6113 193.119Z" fill="#8BC5E4"/>
<path fill-rule="evenodd" clip-rule="evenodd" d="M100.494 260.834L103.265 262.004L155.226 232.004L152.455 230.834L100.494 260.834Z" fill="#8BC5E4"/>
<path fill-rule="evenodd" clip-rule="evenodd" d="M105.95 258.474L106.262 255.814L158.223 225.814L157.911 228.474L105.95 258.474Z" fill="#8BC5E4"/>
<path fill-rule="evenodd" clip-rule="evenodd" d="M103.533 250.509L100.771 248.344L152.732 218.344L155.495 220.509L103.533 250.509Z" fill="#8BC5E4"/>
<path fill-rule="evenodd" clip-rule="evenodd" d="M103.074 244.644L155.036 214.644L103.074 244.644Z" fill="#8BC5E4"/>
<path fill-rule="evenodd" clip-rule="evenodd" d="M121.512 276.809L132.571 283.194L184.533 253.194L173.474 246.809L121.512 276.809Z" fill="#8BC5E4"/>
<path fill-rule="evenodd" clip-rule="evenodd" d="M132.571 283.194V286.304L184.533 256.304V253.194L132.571 283.194Z" fill="#8BC5E4"/>
<path fill-rule="evenodd" clip-rule="evenodd" d="M132.571 286.304L117.667 277.699L169.628 247.699L184.533 256.304L132.571 286.304Z" fill="#8BC5E4"/>
<path fill-rule="evenodd" clip-rule="evenodd" d="M121.036 261.174L118.187 259.179L170.148 229.179L172.997 231.174L121.036 261.174Z" fill="#8BC5E4"/>
<path fill-rule="evenodd" clip-rule="evenodd" d="M120.386 254.799L172.348 224.799L120.386 254.799Z" fill="#8BC5E4"/>
<path fill-rule="evenodd" clip-rule="evenodd" d="M135.576 281.089L138.347 282.259L190.309 252.259L187.538 251.089L135.576 281.089Z" fill="#8BC5E4"/>
<path fill-rule="evenodd" clip-rule="evenodd" d="M141.041 278.734L141.344 276.069L193.306 246.069L193.003 248.734L141.041 278.734Z" fill="#8BC5E4"/>
<path fill-rule="evenodd" clip-rule="evenodd" d="M138.625 270.769L135.854 268.599L187.815 238.599L190.586 240.769L138.625 270.769Z" fill="#8BC5E4"/>
<path fill-rule="evenodd" clip-rule="evenodd" d="M138.157 264.899L190.119 234.899L138.157 264.899Z" fill="#8BC5E4"/>
<path fill-rule="evenodd" clip-rule="evenodd" d="M70.1826 250.284V223.964L122.144 193.964V220.284L70.1826 250.284Z" fill="#8BC5E4"/>
<path fill-rule="evenodd" clip-rule="evenodd" d="M70.1826 223.964L73.1617 225.684L125.123 195.684L122.144 193.964L70.1826 223.964Z" fill="#8BC5E4"/>
<path fill-rule="evenodd" clip-rule="evenodd" d="M73.1616 225.684V236.494L125.123 206.494V195.684L73.1616 225.684Z" fill="#8BC5E4"/>
<path fill-rule="evenodd" clip-rule="evenodd" d="M73.1616 236.494L84.8876 243.264L136.849 213.264L125.123 206.494L73.1616 236.494Z" fill="#8BC5E4"/>
<path fill-rule="evenodd" clip-rule="evenodd" d="M84.8877 243.264V232.454L136.849 202.454V213.264L84.8877 243.264Z" fill="#8BC5E4"/>
<path fill-rule="evenodd" clip-rule="evenodd" d="M84.8877 232.454L87.8755 234.179L139.837 204.179L136.849 202.454L84.8877 232.454Z" fill="#8BC5E4"/>
<path fill-rule="evenodd" clip-rule="evenodd" d="M87.8755 234.179V260.499L139.837 230.499V204.179L87.8755 234.179Z" fill="#8BC5E4"/>
<path fill-rule="evenodd" clip-rule="evenodd" d="M87.8755 260.499L84.8877 258.774L136.849 228.774L139.837 230.499L87.8755 260.499Z" fill="#8BC5E4"/>
<path fill-rule="evenodd" clip-rule="evenodd" d="M84.8877 258.774V246.374L136.849 216.374V228.774L84.8877 258.774Z" fill="#8BC5E4"/>
<path fill-rule="evenodd" clip-rule="evenodd" d="M84.8876 246.374L73.1616 239.604L125.123 209.604L136.849 216.374L84.8876 246.374Z" fill="#8BC5E4"/>
<path fill-rule="evenodd" clip-rule="evenodd" d="M73.1616 239.604V252.004L125.123 222.004V209.604L73.1616 239.604Z" fill="#8BC5E4"/>
<path fill-rule="evenodd" clip-rule="evenodd" d="M73.1617 252.004L70.1826 250.284L122.144 220.284L125.123 222.004L73.1617 252.004Z" fill="#8BC5E4"/>
<path fill-rule="evenodd" clip-rule="evenodd" d="M70.1826 250.284L122.144 220.284L70.1826 250.284Z" fill="#8BC5E4"/>
<path fill-rule="evenodd" clip-rule="evenodd" d="M93.2881 263.624V259.944L145.25 229.944V233.624L93.2881 263.624Z" fill="#8BC5E4"/>
<path fill-rule="evenodd" clip-rule="evenodd" d="M93.2881 259.944L96.4404 261.764L148.402 231.764L145.25 229.944L93.2881 259.944Z" fill="#8BC5E4"/>
<path fill-rule="evenodd" clip-rule="evenodd" d="M96.4404 261.764V265.444L148.402 235.444V231.764L96.4404 261.764Z" fill="#8BC5E4"/>
<path fill-rule="evenodd" clip-rule="evenodd" d="M96.4404 265.444L93.2881 263.624L145.25 233.624L148.402 235.444L96.4404 265.444Z" fill="#8BC5E4"/>
<path fill-rule="evenodd" clip-rule="evenodd" d="M93.2881 263.624L145.25 233.624L93.2881 263.624Z" fill="#8BC5E4"/>
<path fill-rule="evenodd" clip-rule="evenodd" d="M111.042 105.404C109.04 104.248 107.221 104.108 105.87 104.813L157.832 74.8134C159.183 74.1084 161.002 74.2484 163.003 75.4044L111.042 105.404Z" fill="#8BC5E4"/>
<path fill-rule="evenodd" clip-rule="evenodd" d="M105.872 104.812C104.413 105.574 103.501 107.324 103.499 109.852L155.461 79.8524C155.463 77.3244 156.375 75.5744 157.834 74.8124L105.872 104.812Z" fill="#8BC5E4"/>
<path fill-rule="evenodd" clip-rule="evenodd" d="M103.499 109.859C103.499 114.719 106.876 120.609 111.042 123.014L163.003 93.0144C158.838 90.6094 155.46 84.7194 155.46 79.8594L103.499 109.859Z" fill="#8BC5E4"/>
<path fill-rule="evenodd" clip-rule="evenodd" d="M111.042 123.014C113.039 124.167 114.854 124.313 116.204 123.619L168.166 93.6194C166.816 94.3134 165.001 94.1674 163.003 93.0144L111.042 123.014Z" fill="#8BC5E4"/>
<path fill-rule="evenodd" clip-rule="evenodd" d="M116.202 123.62C117.673 122.865 118.592 121.113 118.594 118.581L170.556 88.5814C170.554 91.1134 169.635 92.8654 168.164 93.6204L116.202 123.62Z" fill="#8BC5E4"/>
<path fill-rule="evenodd" clip-rule="evenodd" d="M118.593 118.574C118.593 116.234 117.797 113.534 116.376 111.064L168.338 81.0644C169.758 83.5344 170.555 86.2344 170.555 88.5744L118.593 118.574Z" fill="#8BC5E4"/>
<path fill-rule="evenodd" clip-rule="evenodd" d="M116.377 111.064C114.965 108.599 113.042 106.559 111.042 105.404L163.003 75.4044C165.004 76.5594 166.927 78.5994 168.338 81.0644L116.377 111.064Z" fill="#8BC5E4"/>
<path fill-rule="evenodd" clip-rule="evenodd" d="M107.552 245.429C105.768 244.399 104.278 244.139 103.074 244.644L155.036 214.644C156.24 214.139 157.729 214.399 159.513 215.429L107.552 245.429Z" fill="#8BC5E4"/>
<path fill-rule="evenodd" clip-rule="evenodd" d="M103.074 244.644C102.962 244.69 102.854 244.742 102.749 244.801L154.711 214.801C154.816 214.742 154.924 214.69 155.036 214.644L103.074 244.644Z" fill="#8BC5E4"/>
<path fill-rule="evenodd" clip-rule="evenodd" d="M102.75 244.801C101.739 245.372 101.078 246.552 100.772 248.338L152.733 218.338C153.039 216.552 153.7 215.372 154.711 214.801L102.75 244.801Z" fill="#8BC5E4"/>
<path fill-rule="evenodd" clip-rule="evenodd" d="M103.533 250.509C103.72 249.197 104.117 248.33 104.71 247.891L156.671 217.891C156.078 218.33 155.681 219.197 155.495 220.509L103.533 250.509Z" fill="#8BC5E4"/>
<path fill-rule="evenodd" clip-rule="evenodd" d="M104.703 247.896C104.77 247.846 104.839 247.802 104.911 247.763L156.873 217.763C156.801 217.802 156.732 217.846 156.665 217.896L104.703 247.896Z" fill="#8BC5E4"/>
<path fill-rule="evenodd" clip-rule="evenodd" d="M104.919 247.759C104.986 247.724 105.055 247.693 105.126 247.667L157.087 217.667C157.016 217.693 156.947 217.724 156.88 217.759L104.919 247.759Z" fill="#8BC5E4"/>
<path fill-rule="evenodd" clip-rule="evenodd" d="M105.125 247.667C105.806 247.412 106.636 247.562 107.615 248.125L159.576 218.125C158.597 217.562 157.767 217.412 157.086 217.667L105.125 247.667Z" fill="#8BC5E4"/>
<path fill-rule="evenodd" clip-rule="evenodd" d="M107.621 248.129C108.704 248.754 109.587 249.654 110.28 250.834L162.241 220.834C161.548 219.654 160.665 218.754 159.583 218.129L107.621 248.129Z" fill="#8BC5E4"/>
<path fill-rule="evenodd" clip-rule="evenodd" d="M110.28 250.834C110.964 252.009 111.31 253.189 111.31 254.369L163.272 224.369C163.272 223.189 162.925 222.009 162.241 220.834L110.28 250.834Z" fill="#8BC5E4"/>
<path fill-rule="evenodd" clip-rule="evenodd" d="M111.31 254.369C111.31 255.588 110.996 256.361 110.372 256.702L162.334 226.702C162.958 226.361 163.272 225.588 163.272 224.369L111.31 254.369Z" fill="#8BC5E4"/>
<path fill-rule="evenodd" clip-rule="evenodd" d="M110.357 256.71C110.218 256.783 110.064 256.836 109.895 256.868L161.857 226.868C162.026 226.836 162.18 226.783 162.319 226.71L110.357 256.71Z" fill="#8BC5E4"/>
<path fill-rule="evenodd" clip-rule="evenodd" d="M109.89 256.869C108.946 257.044 107.89 256.794 106.703 256.109L158.665 226.109C159.851 226.794 160.908 227.044 161.852 226.869L109.89 256.869Z" fill="#8BC5E4"/>
<path fill-rule="evenodd" clip-rule="evenodd" d="M106.703 256.109C106.599 256.049 106.443 255.949 106.261 255.814L158.223 225.814C158.405 225.949 158.561 226.049 158.664 226.109L106.703 256.109Z" fill="#8BC5E4"/>
<path fill-rule="evenodd" clip-rule="evenodd" d="M105.95 258.474C106.729 258.684 107.387 258.944 107.907 259.244L159.869 229.244C159.349 228.944 158.691 228.684 157.911 228.474L105.95 258.474Z" fill="#8BC5E4"/>
<path fill-rule="evenodd" clip-rule="evenodd" d="M107.907 259.244C109.188 259.984 110.245 261.084 111.076 262.534L163.038 232.534C162.207 231.084 161.15 229.984 159.868 229.244L107.907 259.244Z" fill="#8BC5E4"/>
<path fill-rule="evenodd" clip-rule="evenodd" d="M111.076 262.534C111.908 263.964 112.323 265.424 112.323 266.914L164.285 236.914C164.285 235.424 163.869 233.964 163.038 232.534L111.076 262.534Z" fill="#8BC5E4"/>
<path fill-rule="evenodd" clip-rule="evenodd" d="M112.323 266.914C112.323 268.328 111.954 269.314 111.214 269.881L163.175 239.881C163.915 239.314 164.284 238.328 164.285 236.914L112.323 266.914Z" fill="#8BC5E4"/>
<path fill-rule="evenodd" clip-rule="evenodd" d="M111.209 269.886C111.136 269.941 111.059 269.993 110.978 270.041L162.94 240.041C163.021 239.993 163.098 239.941 163.171 239.886L111.209 269.886Z" fill="#8BC5E4"/>
<path fill-rule="evenodd" clip-rule="evenodd" d="M110.973 270.044C110.892 270.092 110.811 270.135 110.727 270.173L162.689 240.173C162.773 240.135 162.854 240.092 162.934 240.044L110.973 270.044Z" fill="#8BC5E4"/>
<path fill-rule="evenodd" clip-rule="evenodd" d="M110.727 270.172C109.883 270.554 108.869 270.407 107.689 269.728L159.65 239.728C160.83 240.407 161.844 240.554 162.688 240.172L110.727 270.172Z" fill="#8BC5E4"/>
<path fill-rule="evenodd" clip-rule="evenodd" d="M107.681 269.724C106.581 269.089 105.646 268.149 104.875 266.904L156.837 236.904C157.608 238.149 158.543 239.089 159.643 239.724L107.681 269.724Z" fill="#8BC5E4"/>
<path fill-rule="evenodd" clip-rule="evenodd" d="M104.876 266.904C104.122 265.659 103.577 264.014 103.265 262.004L155.227 232.004C155.538 234.014 156.084 235.659 156.837 236.904L104.876 266.904Z" fill="#8BC5E4"/>
<path fill-rule="evenodd" clip-rule="evenodd" d="M100.494 260.834C100.676 263.129 101.42 265.349 102.719 267.469L154.681 237.469C153.382 235.349 152.637 233.129 152.455 230.834L100.494 260.834Z" fill="#8BC5E4"/>
<path fill-rule="evenodd" clip-rule="evenodd" d="M102.719 267.469C104.036 269.609 105.681 271.249 107.664 272.394L159.626 242.394C157.643 241.249 155.997 239.609 154.681 237.469L102.719 267.469Z" fill="#8BC5E4"/>
<path fill-rule="evenodd" clip-rule="evenodd" d="M107.664 272.394C109.65 273.54 111.33 273.853 112.697 273.336L164.658 243.336C163.291 243.853 161.611 243.54 159.626 242.394L107.664 272.394Z" fill="#8BC5E4"/>
<path fill-rule="evenodd" clip-rule="evenodd" d="M112.689 273.339C112.83 273.286 112.968 273.224 113.103 273.153L165.064 243.153C164.929 243.224 164.791 243.286 164.65 243.339L112.689 273.339Z" fill="#8BC5E4"/>
<path fill-rule="evenodd" clip-rule="evenodd" d="M113.112 273.149C113.24 273.079 113.363 273.004 113.48 272.922L165.442 242.922C165.325 243.004 165.202 243.079 165.073 243.149L113.112 273.149Z" fill="#8BC5E4"/>
<path fill-rule="evenodd" clip-rule="evenodd" d="M113.479 272.922C114.662 272.093 115.258 270.636 115.259 268.546L167.221 238.546C167.22 240.636 166.624 242.093 165.441 242.922L113.479 272.922Z" fill="#8BC5E4"/>
<path fill-rule="evenodd" clip-rule="evenodd" d="M115.259 268.539C115.259 266.839 114.896 265.219 114.16 263.664L166.121 233.664C166.857 235.219 167.221 236.839 167.221 238.539L115.259 268.539Z" fill="#8BC5E4"/>
<path fill-rule="evenodd" clip-rule="evenodd" d="M114.159 263.664C113.415 262.094 112.384 260.749 111.05 259.629L163.012 229.629C164.345 230.749 165.376 232.094 166.121 233.664L114.159 263.664Z" fill="#8BC5E4"/>
<path fill-rule="evenodd" clip-rule="evenodd" d="M111.05 259.629C111.721 259.649 112.284 259.528 112.74 259.267L164.701 229.267C164.245 229.528 163.682 229.649 163.012 229.629L111.05 259.629Z" fill="#8BC5E4"/>
<path fill-rule="evenodd" clip-rule="evenodd" d="M112.735 259.27C112.974 259.134 113.184 258.959 113.365 258.746L165.326 228.746C165.145 228.959 164.935 229.134 164.696 229.27L112.735 259.27Z" fill="#8BC5E4"/>
<path fill-rule="evenodd" clip-rule="evenodd" d="M113.372 258.739C113.891 258.109 114.16 257.224 114.16 256.084L166.121 226.084C166.121 227.224 165.853 228.109 165.333 228.739L113.372 258.739Z" fill="#8BC5E4"/>
<path fill-rule="evenodd" clip-rule="evenodd" d="M114.16 256.084C114.16 254.894 113.874 253.599 113.328 252.214L165.29 222.214C165.835 223.599 166.121 224.894 166.121 226.084L114.16 256.084Z" fill="#8BC5E4"/>
<path fill-rule="evenodd" clip-rule="evenodd" d="M113.328 252.214C112.782 250.839 111.994 249.544 110.955 248.334L162.917 218.334C163.956 219.544 164.744 220.839 165.289 222.214L113.328 252.214Z" fill="#8BC5E4"/>
<path fill-rule="evenodd" clip-rule="evenodd" d="M110.955 248.334C109.916 247.114 108.782 246.139 107.552 245.429L159.513 215.429C160.743 216.139 161.878 217.114 162.917 218.334L110.955 248.334Z" fill="#8BC5E4"/>
<path fill-rule="evenodd" clip-rule="evenodd" d="M125.513 255.799C123.365 254.559 121.659 254.224 120.386 254.799L172.348 224.799C173.621 224.224 175.327 224.559 177.475 225.799L125.513 255.799Z" fill="#8BC5E4"/>
<path fill-rule="evenodd" clip-rule="evenodd" d="M120.386 254.799C120.257 254.855 120.133 254.921 120.015 254.996L171.977 224.996C172.095 224.921 172.219 224.855 172.348 224.799L120.386 254.799Z" fill="#8BC5E4"/>
<path fill-rule="evenodd" clip-rule="evenodd" d="M120.015 254.996C118.972 255.66 118.367 257.06 118.187 259.172L170.149 229.172C170.329 227.06 170.934 225.66 171.977 224.996L120.015 254.996Z" fill="#8BC5E4"/>
<path fill-rule="evenodd" clip-rule="evenodd" d="M121.036 261.174C121.043 259.687 121.373 258.684 122.017 258.155L173.978 228.155C173.334 228.684 173.004 229.687 172.997 231.174L121.036 261.174Z" fill="#8BC5E4"/>
<path fill-rule="evenodd" clip-rule="evenodd" d="M122.013 258.159C122.086 258.099 122.162 258.045 122.243 257.997L174.205 227.997C174.124 228.045 174.048 228.099 173.975 228.159L122.013 258.159Z" fill="#8BC5E4"/>
<path fill-rule="evenodd" clip-rule="evenodd" d="M122.248 257.994C122.327 257.948 122.408 257.907 122.492 257.873L174.453 227.873C174.369 227.907 174.288 227.948 174.21 227.994L122.248 257.994Z" fill="#8BC5E4"/>
<path fill-rule="evenodd" clip-rule="evenodd" d="M122.491 257.873C123.262 257.556 124.245 257.748 125.445 258.439L177.407 228.439C176.207 227.748 175.224 227.556 174.453 227.873L122.491 257.873Z" fill="#8BC5E4"/>
<path fill-rule="evenodd" clip-rule="evenodd" d="M125.453 258.444C126.708 259.169 127.73 260.199 128.51 261.539L180.471 231.539C179.692 230.199 178.67 229.169 177.414 228.444L125.453 258.444Z" fill="#8BC5E4"/>
<path fill-rule="evenodd" clip-rule="evenodd" d="M128.509 261.539C129.297 262.864 129.696 264.174 129.696 265.454L181.657 235.454C181.657 234.174 181.259 232.864 180.471 231.539L128.509 261.539Z" fill="#8BC5E4"/>
<path fill-rule="evenodd" clip-rule="evenodd" d="M129.696 265.454C129.696 266.674 129.263 267.724 128.406 268.599L180.367 238.599C181.225 237.724 181.658 236.674 181.658 235.454L129.696 265.454Z" fill="#8BC5E4"/>
<path fill-rule="evenodd" clip-rule="evenodd" d="M128.406 268.599C128.013 268.993 127.459 269.393 126.742 269.798L178.704 239.798C179.421 239.393 179.975 238.993 180.367 238.599L128.406 268.599Z" fill="#8BC5E4"/>
<path fill-rule="evenodd" clip-rule="evenodd" d="M126.744 269.797C125.88 270.286 124.78 270.785 123.442 271.296L175.403 241.296C176.741 240.785 177.841 240.286 178.705 239.797L126.744 269.797Z" fill="#8BC5E4"/>
<path fill-rule="evenodd" clip-rule="evenodd" d="M123.435 271.299C122.443 271.676 121.596 272.066 120.895 272.468L172.857 242.468C173.558 242.066 174.405 241.676 175.396 241.299L123.435 271.299Z" fill="#8BC5E4"/>
<path fill-rule="evenodd" clip-rule="evenodd" d="M120.899 272.466C120.486 272.703 120.123 272.944 119.811 273.19L171.773 243.19C172.085 242.944 172.448 242.703 172.861 242.466L120.899 272.466Z" fill="#8BC5E4"/>
<path fill-rule="evenodd" clip-rule="evenodd" d="M119.806 273.194C118.975 273.864 118.368 274.674 117.987 275.644L169.949 245.644C170.33 244.674 170.936 243.864 171.768 243.194L119.806 273.194Z" fill="#8BC5E4"/>
<path fill-rule="evenodd" clip-rule="evenodd" d="M117.987 275.644C117.753 276.229 117.641 276.904 117.667 277.699L169.628 247.699C169.602 246.904 169.715 246.229 169.949 245.644L117.987 275.644Z" fill="#8BC5E4"/>
<path fill-rule="evenodd" clip-rule="evenodd" d="M121.512 276.809C121.791 276.436 122.144 276.105 122.571 275.816L174.533 245.816C174.106 246.105 173.753 246.436 173.474 246.809L121.512 276.809Z" fill="#8BC5E4"/>
<path fill-rule="evenodd" clip-rule="evenodd" d="M122.577 275.813C122.61 275.791 122.643 275.769 122.676 275.748L174.638 245.748C174.605 245.769 174.572 245.791 174.539 245.813L122.577 275.813Z" fill="#8BC5E4"/>
<path fill-rule="evenodd" clip-rule="evenodd" d="M122.681 275.744C122.747 275.7 122.825 275.653 122.914 275.602L174.875 245.602C174.786 245.653 174.708 245.7 174.643 245.744L122.681 275.744Z" fill="#8BC5E4"/>
<path fill-rule="evenodd" clip-rule="evenodd" d="M122.929 275.594C123.477 275.284 124.46 274.841 125.881 274.276L177.843 244.276C176.422 244.841 175.439 245.284 174.891 245.594L122.929 275.594Z" fill="#8BC5E4"/>
<path fill-rule="evenodd" clip-rule="evenodd" d="M125.886 274.274C127.249 273.714 128.346 273.194 129.178 272.72L181.14 242.72C180.308 243.194 179.211 243.714 177.847 244.274L125.886 274.274Z" fill="#8BC5E4"/>
<path fill-rule="evenodd" clip-rule="evenodd" d="M129.178 272.72C129.555 272.505 129.878 272.299 130.146 272.104L182.108 242.104C181.84 242.299 181.517 242.505 181.14 242.72L129.178 272.72Z" fill="#8BC5E4"/>
<path fill-rule="evenodd" clip-rule="evenodd" d="M130.146 272.104C130.207 272.059 130.266 272.014 130.324 271.969L182.286 241.969C182.228 242.014 182.169 242.059 182.108 242.104L130.146 272.104Z" fill="#8BC5E4"/>
<path fill-rule="evenodd" clip-rule="evenodd" d="M130.323 271.969C131.087 271.369 131.642 270.701 131.989 269.964L183.951 239.964C183.604 240.701 183.049 241.369 182.285 241.969L130.323 271.969Z" fill="#8BC5E4"/>
<path fill-rule="evenodd" clip-rule="evenodd" d="M131.991 269.959C132.355 269.149 132.545 268.219 132.545 267.169L184.507 237.169C184.507 238.219 184.316 239.149 183.952 239.959L131.991 269.959Z" fill="#8BC5E4"/>
<path fill-rule="evenodd" clip-rule="evenodd" d="M132.545 267.169C132.545 265.099 131.913 262.994 130.648 260.874L182.61 230.874C183.874 232.994 184.507 235.099 184.507 237.169L132.545 267.169Z" fill="#8BC5E4"/>
<path fill-rule="evenodd" clip-rule="evenodd" d="M130.649 260.874C129.393 258.739 127.678 257.049 125.513 255.799L177.475 225.799C179.64 227.049 181.354 228.739 182.61 230.874L130.649 260.874Z" fill="#8BC5E4"/>
<path fill-rule="evenodd" clip-rule="evenodd" d="M142.635 265.684C140.851 264.654 139.361 264.394 138.157 264.899L190.119 234.899C191.323 234.394 192.812 234.654 194.596 235.684L142.635 265.684Z" fill="#8BC5E4"/>
<path fill-rule="evenodd" clip-rule="evenodd" d="M138.157 264.899C138.045 264.945 137.937 264.997 137.832 265.056L189.794 235.056C189.899 234.997 190.007 234.945 190.119 234.899L138.157 264.899Z" fill="#8BC5E4"/>
<path fill-rule="evenodd" clip-rule="evenodd" d="M137.832 265.056C136.822 265.627 136.161 266.807 135.854 268.593L187.816 238.593C188.123 236.807 188.784 235.627 189.794 235.056L137.832 265.056Z" fill="#8BC5E4"/>
<path fill-rule="evenodd" clip-rule="evenodd" d="M138.625 270.769C138.804 269.453 139.199 268.585 139.799 268.15L191.76 238.15C191.16 238.585 190.765 239.453 190.586 240.769L138.625 270.769Z" fill="#8BC5E4"/>
<path fill-rule="evenodd" clip-rule="evenodd" d="M139.792 268.155C139.86 268.105 139.929 268.061 140.002 268.023L191.963 238.023C191.89 238.061 191.821 238.105 191.753 238.155L139.792 268.155Z" fill="#8BC5E4"/>
<path fill-rule="evenodd" clip-rule="evenodd" d="M140.01 268.019C140.077 267.983 140.145 267.952 140.215 267.925L192.176 237.925C192.106 237.952 192.038 237.983 191.972 238.019L140.01 268.019Z" fill="#8BC5E4"/>
<path fill-rule="evenodd" clip-rule="evenodd" d="M140.215 267.926C140.889 267.667 141.718 267.817 142.689 268.375L194.65 238.375C193.679 237.817 192.85 237.667 192.176 237.926L140.215 267.926Z" fill="#8BC5E4"/>
<path fill-rule="evenodd" clip-rule="evenodd" d="M142.695 268.379C143.786 269.009 144.678 269.914 145.362 271.089L197.324 241.089C196.64 239.914 195.748 239.009 194.656 238.379L142.695 268.379Z" fill="#8BC5E4"/>
<path fill-rule="evenodd" clip-rule="evenodd" d="M145.362 271.089C146.046 272.264 146.393 273.444 146.393 274.624L198.354 244.624C198.354 243.444 198.008 242.264 197.324 241.089L145.362 271.089Z" fill="#8BC5E4"/>
<path fill-rule="evenodd" clip-rule="evenodd" d="M146.393 274.624C146.393 275.843 146.078 276.616 145.454 276.957L197.416 246.957C198.04 246.616 198.355 245.843 198.355 244.624L146.393 274.624Z" fill="#8BC5E4"/>
<path fill-rule="evenodd" clip-rule="evenodd" d="M145.44 276.965C145.301 277.038 145.147 277.091 144.978 277.123L196.94 247.123C197.109 247.091 197.263 247.038 197.402 246.965L145.44 276.965Z" fill="#8BC5E4"/>
<path fill-rule="evenodd" clip-rule="evenodd" d="M144.973 277.124C144.037 277.304 142.972 277.049 141.794 276.369L193.756 246.369C194.934 247.049 195.999 247.304 196.934 247.124L144.973 277.124Z" fill="#8BC5E4"/>
<path fill-rule="evenodd" clip-rule="evenodd" d="M141.794 276.369C141.673 276.299 141.534 276.209 141.344 276.069L193.305 246.069C193.496 246.209 193.634 246.299 193.756 246.369L141.794 276.369Z" fill="#8BC5E4"/>
<path fill-rule="evenodd" clip-rule="evenodd" d="M141.041 278.734C141.82 278.944 142.47 279.199 142.99 279.499L194.951 249.499C194.432 249.199 193.782 248.944 193.003 248.734L141.041 278.734Z" fill="#8BC5E4"/>
<path fill-rule="evenodd" clip-rule="evenodd" d="M142.989 279.499C144.271 280.239 145.327 281.339 146.159 282.789L198.12 252.789C197.289 251.339 196.232 250.239 194.951 249.499L142.989 279.499Z" fill="#8BC5E4"/>
<path fill-rule="evenodd" clip-rule="evenodd" d="M146.159 282.789C146.991 284.219 147.406 285.679 147.406 287.169L199.368 257.169C199.368 255.679 198.952 254.219 198.121 252.789L146.159 282.789Z" fill="#8BC5E4"/>
<path fill-rule="evenodd" clip-rule="evenodd" d="M147.406 287.169C147.406 288.583 147.036 289.569 146.297 290.136L198.258 260.136C198.997 259.569 199.367 258.583 199.368 257.169L147.406 287.169Z" fill="#8BC5E4"/>
<path fill-rule="evenodd" clip-rule="evenodd" d="M146.291 290.141C146.218 290.196 146.141 290.248 146.06 290.296L198.022 260.296C198.103 260.248 198.18 260.196 198.253 260.141L146.291 290.141Z" fill="#8BC5E4"/>
<path fill-rule="evenodd" clip-rule="evenodd" d="M146.055 290.299C145.975 290.347 145.893 290.39 145.81 290.428L197.772 260.428C197.855 260.39 197.937 260.347 198.017 260.299L146.055 290.299Z" fill="#8BC5E4"/>
<path fill-rule="evenodd" clip-rule="evenodd" d="M145.799 290.432C144.957 290.808 143.946 290.659 142.763 289.978L194.725 259.978C195.908 260.659 196.919 260.808 197.761 260.432L145.799 290.432Z" fill="#8BC5E4"/>
<path fill-rule="evenodd" clip-rule="evenodd" d="M142.756 289.974C141.664 289.344 140.729 288.404 139.958 287.159L191.92 257.159C192.691 258.404 193.626 259.344 194.717 259.974L142.756 289.974Z" fill="#8BC5E4"/>
<path fill-rule="evenodd" clip-rule="evenodd" d="M139.958 287.159C139.196 285.909 138.659 284.269 138.348 282.259L190.309 252.259C190.621 254.269 191.158 255.909 191.92 257.159L139.958 287.159Z" fill="#8BC5E4"/>
<path fill-rule="evenodd" clip-rule="evenodd" d="M135.576 281.089C135.758 283.384 136.503 285.604 137.802 287.724L189.763 257.724C188.464 255.604 187.72 253.384 187.538 251.089L135.576 281.089Z" fill="#8BC5E4"/>
<path fill-rule="evenodd" clip-rule="evenodd" d="M137.802 287.724C139.118 289.864 140.764 291.504 142.747 292.649L194.708 262.649C192.725 261.504 191.08 259.864 189.763 257.724L137.802 287.724Z" fill="#8BC5E4"/>
<path fill-rule="evenodd" clip-rule="evenodd" d="M142.747 292.649C144.733 293.795 146.412 294.108 147.78 293.591L199.742 263.591C198.374 264.108 196.695 263.795 194.709 262.649L142.747 292.649Z" fill="#8BC5E4"/>
<path fill-rule="evenodd" clip-rule="evenodd" d="M147.772 293.594C147.913 293.541 148.051 293.479 148.186 293.408L200.147 263.408C200.012 263.479 199.874 263.541 199.733 263.594L147.772 293.594Z" fill="#8BC5E4"/>
<path fill-rule="evenodd" clip-rule="evenodd" d="M148.194 293.404C148.323 293.335 148.447 293.259 148.564 293.178L200.526 263.178C200.409 263.259 200.285 263.335 200.156 263.404L148.194 293.404Z" fill="#8BC5E4"/>
<path fill-rule="evenodd" clip-rule="evenodd" d="M148.564 293.178C149.753 292.353 150.349 290.896 150.351 288.806L202.312 258.806C202.31 260.896 201.714 262.353 200.525 263.178L148.564 293.178Z" fill="#8BC5E4"/>
<path fill-rule="evenodd" clip-rule="evenodd" d="M150.351 288.799C150.351 287.099 149.978 285.474 149.242 283.919L201.204 253.919C201.94 255.474 202.312 257.099 202.312 258.799L150.351 288.799Z" fill="#8BC5E4"/>
<path fill-rule="evenodd" clip-rule="evenodd" d="M149.242 283.919C148.498 282.349 147.467 281.004 146.133 279.884L198.095 249.884C199.429 251.004 200.459 252.349 201.204 253.919L149.242 283.919Z" fill="#8BC5E4"/>
<path fill-rule="evenodd" clip-rule="evenodd" d="M146.133 279.884C146.804 279.904 147.37 279.786 147.827 279.524L199.789 249.524C199.332 249.786 198.766 249.904 198.095 249.884L146.133 279.884Z" fill="#8BC5E4"/>
<path fill-rule="evenodd" clip-rule="evenodd" d="M147.821 279.527C148.06 279.391 148.269 279.216 148.448 279.001L200.409 249.001C200.23 249.216 200.021 249.391 199.782 249.527L147.821 279.527Z" fill="#8BC5E4"/>
<path fill-rule="evenodd" clip-rule="evenodd" d="M148.454 278.994C148.974 278.364 149.242 277.479 149.242 276.339L201.204 246.339C201.204 247.479 200.935 248.364 200.416 248.994L148.454 278.994Z" fill="#8BC5E4"/>
<path fill-rule="evenodd" clip-rule="evenodd" d="M149.242 276.339C149.242 275.149 148.965 273.859 148.411 272.469L200.372 242.469C200.926 243.859 201.204 245.149 201.204 246.339L149.242 276.339Z" fill="#8BC5E4"/>
<path fill-rule="evenodd" clip-rule="evenodd" d="M148.411 272.469C147.865 271.094 147.077 269.799 146.038 268.589L198 238.589C199.039 239.799 199.827 241.094 200.372 242.469L148.411 272.469Z" fill="#8BC5E4"/>
<path fill-rule="evenodd" clip-rule="evenodd" d="M146.038 268.589C144.998 267.369 143.864 266.394 142.634 265.684L194.596 235.684C195.826 236.394 196.96 237.369 197.999 238.589L146.038 268.589Z" fill="#8BC5E4"/>
<path fill-rule="evenodd" clip-rule="evenodd" d="M10.4616 31.4044C7.70403 29.8124 5.18604 29.6204 3.31104 30.5934L55.2725 0.593367C57.1475 -0.379633 59.6655 -0.187633 62.4231 1.40437L10.4616 31.4044Z" fill="#8BC5E4"/>
<path fill-rule="evenodd" clip-rule="evenodd" d="M3.314 30.5914C1.28 31.6454 0.003 34.0704 0 37.5644L51.9615 7.56437C51.9645 4.07037 53.2415 1.64537 55.2755 0.59137L3.314 30.5914Z" fill="#8BC5E4"/>
<path fill-rule="evenodd" clip-rule="evenodd" d="M0 213.144C0 219.864 4.7112 228.084 10.4616 231.404L62.4231 201.404C56.6727 198.084 51.9615 189.864 51.9615 183.144L0 213.144Z" fill="#8BC5E4"/>
<path fill-rule="evenodd" clip-rule="evenodd" d="M211.232 347.319C213.988 348.91 216.504 349.103 218.378 348.136L270.34 318.136C268.466 319.103 265.95 318.91 263.194 317.319L211.232 347.319Z" fill="#8BC5E4"/>
<path fill-rule="evenodd" clip-rule="evenodd" d="M218.387 348.131C220.423 347.075 221.7 344.648 221.702 341.154L273.664 311.154C273.662 314.648 272.385 317.075 270.349 318.131L218.387 348.131Z" fill="#8BC5E4"/>
<path fill-rule="evenodd" clip-rule="evenodd" d="M221.703 165.574C221.703 158.854 216.991 150.644 211.232 147.319L263.194 117.319C268.953 120.644 273.664 128.854 273.664 135.574L221.703 165.574Z" fill="#8BC5E4"/>
<path fill-rule="evenodd" clip-rule="evenodd" d="M211.232 152.839C214.454 154.699 216.974 159.084 216.974 162.844L268.936 132.844C268.936 129.084 266.416 124.699 263.194 122.839L211.232 152.839Z" fill="#8BC5E4"/>
<path fill-rule="evenodd" clip-rule="evenodd" d="M216.974 338.414C216.974 340.375 216.289 341.717 215.176 342.289L267.137 312.289C268.25 311.717 268.935 310.375 268.935 308.414L216.974 338.414Z" fill="#8BC5E4"/>
<path fill-rule="evenodd" clip-rule="evenodd" d="M215.177 342.288C214.157 342.813 212.777 342.69 211.237 341.802L263.198 311.802C264.738 312.69 266.118 312.813 267.138 312.288L215.177 342.288Z" fill="#8BC5E4"/>
<path fill-rule="evenodd" clip-rule="evenodd" d="M10.4616 225.884C7.24862 224.029 4.72852 219.634 4.72852 215.874L56.69 185.874C56.69 189.634 59.2102 194.029 62.4231 195.884L10.4616 225.884Z" fill="#8BC5E4"/>
<path fill-rule="evenodd" clip-rule="evenodd" d="M4.72852 40.3044C4.72802 38.3514 5.40902 37.0144 6.51302 36.4404L58.4745 6.44037C57.3705 7.01437 56.6895 8.35137 56.69 10.3044L4.72852 40.3044Z" fill="#8BC5E4"/>
<path fill-rule="evenodd" clip-rule="evenodd" d="M6.52393 36.4354C7.54293 35.9114 8.91993 36.0354 10.4569 36.9214L62.4184 6.92136C60.8814 6.03536 59.5044 5.91136 58.4854 6.43536L6.52393 36.4354Z" fill="#8BC5E4"/>
<path fill-rule="evenodd" clip-rule="evenodd" d="M211.232 152.839C214.454 154.699 216.974 159.084 216.974 162.844L268.936 132.844C268.936 129.084 266.416 124.699 263.194 122.839L211.232 152.839Z" fill="#8BC5E4"/>
<path fill-rule="evenodd" clip-rule="evenodd" d="M216.974 338.414C216.974 340.375 216.289 341.717 215.176 342.289L267.137 312.289C268.25 311.717 268.935 310.375 268.935 308.414L216.974 338.414Z" fill="#8BC5E4"/>
<path fill-rule="evenodd" clip-rule="evenodd" d="M215.177 342.288C214.157 342.813 212.777 342.69 211.237 341.802L263.198 311.802C264.738 312.69 266.118 312.813 267.138 312.288L215.177 342.288Z" fill="#8BC5E4"/>
<path fill-rule="evenodd" clip-rule="evenodd" d="M10.4616 225.884C7.24862 224.029 4.72852 219.634 4.72852 215.874L56.69 185.874C56.69 189.634 59.2102 194.029 62.4231 195.884L10.4616 225.884Z" fill="#8BC5E4"/>
<path fill-rule="evenodd" clip-rule="evenodd" d="M4.72852 40.3044C4.72802 38.3514 5.40902 37.0144 6.51302 36.4404L58.4745 6.44037C57.3705 7.01437 56.6895 8.35137 56.69 10.3044L4.72852 40.3044Z" fill="#8BC5E4"/>
<path fill-rule="evenodd" clip-rule="evenodd" d="M6.52393 36.4354C7.54293 35.9114 8.91993 36.0354 10.4569 36.9214L62.4184 6.92136C60.8814 6.03536 59.5044 5.91136 58.4854 6.43536L6.52393 36.4354Z" fill="#8BC5E4"/>
<path fill-rule="evenodd" clip-rule="evenodd" d="M103.499 109.859C103.499 107.329 104.41 105.576 105.87 104.813L157.831 74.8134C156.371 75.5764 155.46 77.3294 155.46 79.8594L103.499 109.859Z" fill="#8BC5E4"/>
<path fill-rule="evenodd" clip-rule="evenodd" d="M105.885 104.806C107.233 104.109 109.044 104.252 111.036 105.4L162.997 75.4004C161.005 74.2524 159.194 74.1094 157.846 74.8064L105.885 104.806Z" fill="#8BC5E4"/>
<path fill-rule="evenodd" clip-rule="evenodd" d="M111.042 105.404C113.042 106.559 114.965 108.599 116.377 111.064L168.338 81.0644C166.927 78.5994 165.004 76.5594 163.003 75.4044L111.042 105.404Z" fill="#8BC5E4"/>
<path fill-rule="evenodd" clip-rule="evenodd" d="M116.376 111.064C117.797 113.534 118.593 116.234 118.593 118.574L170.555 88.5744C170.555 86.2344 169.758 83.5344 168.338 81.0644L116.376 111.064Z" fill="#8BC5E4"/>
<path fill-rule="evenodd" clip-rule="evenodd" d="M118.594 118.574C118.594 121.108 117.675 122.862 116.204 123.619L168.166 93.6194C169.637 92.8624 170.556 91.1084 170.555 88.5744L118.594 118.574Z" fill="#8BC5E4"/>
<path fill-rule="evenodd" clip-rule="evenodd" d="M116.206 123.618C114.858 124.313 113.044 124.168 111.048 123.018L163.009 93.0184C165.005 94.1684 166.819 94.3134 168.167 93.6184L116.206 123.618Z" fill="#8BC5E4"/>
<path fill-rule="evenodd" clip-rule="evenodd" d="M111.042 123.014C106.876 120.609 103.499 114.719 103.499 109.859L155.46 79.8594C155.46 84.7194 158.838 90.6094 163.003 93.0144L111.042 123.014Z" fill="#8BC5E4"/>
<path fill-rule="evenodd" clip-rule="evenodd" d="M103.074 244.644C104.278 244.139 105.768 244.399 107.552 245.429L159.513 215.429C157.729 214.399 156.24 214.139 155.036 214.644L103.074 244.644Z" fill="#8BC5E4"/>
<path fill-rule="evenodd" clip-rule="evenodd" d="M107.552 245.429C108.782 246.139 109.916 247.114 110.955 248.334L162.917 218.334C161.878 217.114 160.743 216.139 159.513 215.429L107.552 245.429Z" fill="#8BC5E4"/>
<path fill-rule="evenodd" clip-rule="evenodd" d="M110.955 248.334C111.994 249.544 112.782 250.839 113.328 252.214L165.289 222.214C164.744 220.839 163.956 219.544 162.917 218.334L110.955 248.334Z" fill="#8BC5E4"/>
<path fill-rule="evenodd" clip-rule="evenodd" d="M113.328 252.214C113.874 253.599 114.16 254.894 114.16 256.084L166.121 226.084C166.121 224.894 165.835 223.599 165.29 222.214L113.328 252.214Z" fill="#8BC5E4"/>
<path fill-rule="evenodd" clip-rule="evenodd" d="M114.16 256.084C114.16 257.224 113.891 258.109 113.372 258.739L165.333 228.739C165.853 228.109 166.121 227.224 166.121 226.084L114.16 256.084Z" fill="#8BC5E4"/>
<path fill-rule="evenodd" clip-rule="evenodd" d="M113.372 258.739C113.19 258.954 112.98 259.13 112.74 259.267L164.702 229.267C164.942 229.13 165.152 228.954 165.333 228.739L113.372 258.739Z" fill="#8BC5E4"/>
<path fill-rule="evenodd" clip-rule="evenodd" d="M112.742 259.266C112.286 259.528 111.725 259.648 111.056 259.629L163.018 229.629C163.687 229.648 164.248 229.528 164.704 229.266L112.742 259.266Z" fill="#8BC5E4"/>
<path fill-rule="evenodd" clip-rule="evenodd" d="M111.05 259.629C112.384 260.749 113.415 262.094 114.159 263.664L166.121 233.664C165.376 232.094 164.345 230.749 163.012 229.629L111.05 259.629Z" fill="#8BC5E4"/>
<path fill-rule="evenodd" clip-rule="evenodd" d="M114.16 263.664C114.896 265.219 115.259 266.839 115.259 268.539L167.221 238.539C167.221 236.839 166.857 235.219 166.121 233.664L114.16 263.664Z" fill="#8BC5E4"/>
<path fill-rule="evenodd" clip-rule="evenodd" d="M115.259 268.539C115.259 270.632 114.664 272.092 113.48 272.922L165.441 242.922C166.625 242.092 167.22 240.632 167.221 238.539L115.259 268.539Z" fill="#8BC5E4"/>
<path fill-rule="evenodd" clip-rule="evenodd" d="M113.471 272.927C113.359 273.005 113.242 273.077 113.12 273.144L165.082 243.144C165.204 243.077 165.321 243.005 165.433 242.927L113.471 272.927Z" fill="#8BC5E4"/>
<path fill-rule="evenodd" clip-rule="evenodd" d="M113.111 273.149C112.977 273.22 112.839 273.283 112.697 273.336L164.658 243.336C164.8 243.283 164.938 243.22 165.073 243.149L113.111 273.149Z" fill="#8BC5E4"/>
<path fill-rule="evenodd" clip-rule="evenodd" d="M112.698 273.336C111.331 273.852 109.654 273.541 107.671 272.398L159.632 242.398C161.615 243.541 163.292 243.852 164.659 243.336L112.698 273.336Z" fill="#8BC5E4"/>
<path fill-rule="evenodd" clip-rule="evenodd" d="M107.664 272.394C105.681 271.249 104.036 269.609 102.719 267.469L154.681 237.469C155.997 239.609 157.643 241.249 159.626 242.394L107.664 272.394Z" fill="#8BC5E4"/>
<path fill-rule="evenodd" clip-rule="evenodd" d="M102.719 267.469C101.42 265.349 100.676 263.129 100.494 260.834L152.455 230.834C152.637 233.129 153.382 235.349 154.681 237.469L102.719 267.469Z" fill="#8BC5E4"/>
<path fill-rule="evenodd" clip-rule="evenodd" d="M103.265 262.004C103.577 264.014 104.122 265.659 104.876 266.904L156.837 236.904C156.084 235.659 155.538 234.014 155.227 232.004L103.265 262.004Z" fill="#8BC5E4"/>
<path fill-rule="evenodd" clip-rule="evenodd" d="M104.875 266.904C105.646 268.149 106.581 269.089 107.681 269.724L159.643 239.724C158.543 239.089 157.608 238.149 156.837 236.904L104.875 266.904Z" fill="#8BC5E4"/>
<path fill-rule="evenodd" clip-rule="evenodd" d="M107.682 269.724C108.864 270.407 109.881 270.555 110.727 270.173L162.689 240.173C161.843 240.555 160.826 240.407 159.643 239.724L107.682 269.724Z" fill="#8BC5E4"/>
<path fill-rule="evenodd" clip-rule="evenodd" d="M110.733 270.17C110.812 270.134 110.89 270.093 110.967 270.047L162.928 240.047C162.851 240.093 162.773 240.134 162.694 240.17L110.733 270.17Z" fill="#8BC5E4"/>
<path fill-rule="evenodd" clip-rule="evenodd" d="M110.973 270.044C111.057 269.994 111.137 269.94 111.214 269.881L163.176 239.881C163.099 239.94 163.019 239.994 162.934 240.044L110.973 270.044Z" fill="#8BC5E4"/>
<path fill-rule="evenodd" clip-rule="evenodd" d="M111.213 269.882C111.952 269.316 112.322 268.332 112.323 266.923L164.284 236.923C164.283 238.332 163.913 239.316 163.174 239.882L111.213 269.882Z" fill="#8BC5E4"/>
<path fill-rule="evenodd" clip-rule="evenodd" d="M112.323 266.914C112.323 265.424 111.908 263.964 111.076 262.534L163.038 232.534C163.869 233.964 164.285 235.424 164.285 236.914L112.323 266.914Z" fill="#8BC5E4"/>
<path fill-rule="evenodd" clip-rule="evenodd" d="M111.076 262.534C110.245 261.084 109.188 259.984 107.907 259.244L159.868 229.244C161.15 229.984 162.207 231.084 163.038 232.534L111.076 262.534Z" fill="#8BC5E4"/>
<path fill-rule="evenodd" clip-rule="evenodd" d="M107.907 259.244C107.387 258.944 106.729 258.684 105.95 258.474L157.911 228.474C158.691 228.684 159.349 228.944 159.869 229.244L107.907 259.244Z" fill="#8BC5E4"/>
<path fill-rule="evenodd" clip-rule="evenodd" d="M106.261 255.814C106.443 255.949 106.599 256.049 106.703 256.109L158.664 226.109C158.561 226.049 158.405 225.949 158.223 225.814L106.261 255.814Z" fill="#8BC5E4"/>
<path fill-rule="evenodd" clip-rule="evenodd" d="M106.703 256.109C107.89 256.794 108.946 257.044 109.89 256.869L161.852 226.869C160.908 227.044 159.851 226.794 158.665 226.109L106.703 256.109Z" fill="#8BC5E4"/>
<path fill-rule="evenodd" clip-rule="evenodd" d="M109.89 256.869C110.067 256.836 110.228 256.781 110.372 256.702L162.334 226.702C162.19 226.781 162.029 226.836 161.852 226.869L109.89 256.869Z" fill="#8BC5E4"/>
<path fill-rule="evenodd" clip-rule="evenodd" d="M110.371 256.702C110.994 256.362 111.308 255.592 111.31 254.378L163.272 224.378C163.27 225.592 162.956 226.362 162.333 226.702L110.371 256.702Z" fill="#8BC5E4"/>
<path fill-rule="evenodd" clip-rule="evenodd" d="M111.31 254.369C111.31 253.189 110.964 252.009 110.28 250.834L162.241 220.834C162.925 222.009 163.272 223.189 163.272 224.369L111.31 254.369Z" fill="#8BC5E4"/>
<path fill-rule="evenodd" clip-rule="evenodd" d="M110.28 250.834C109.587 249.654 108.704 248.754 107.621 248.129L159.583 218.129C160.665 218.754 161.548 219.654 162.241 220.834L110.28 250.834Z" fill="#8BC5E4"/>
<path fill-rule="evenodd" clip-rule="evenodd" d="M107.621 248.129C106.64 247.563 105.808 247.411 105.126 247.667L157.087 217.667C157.769 217.411 158.601 217.563 159.582 218.129L107.621 248.129Z" fill="#8BC5E4"/>
<path fill-rule="evenodd" clip-rule="evenodd" d="M105.134 247.664C105.063 247.69 104.994 247.72 104.927 247.755L156.888 217.755C156.955 217.72 157.024 217.69 157.095 217.664L105.134 247.664Z" fill="#8BC5E4"/>
<path fill-rule="evenodd" clip-rule="evenodd" d="M104.919 247.759C104.847 247.798 104.777 247.842 104.71 247.891L156.671 217.891C156.738 217.842 156.808 217.798 156.88 217.759L104.919 247.759Z" fill="#8BC5E4"/>
<path fill-rule="evenodd" clip-rule="evenodd" d="M104.71 247.891C104.118 248.328 103.722 249.193 103.535 250.5L155.497 220.5C155.684 219.193 156.08 218.328 156.672 217.891L104.71 247.891Z" fill="#8BC5E4"/>
<path fill-rule="evenodd" clip-rule="evenodd" d="M100.771 248.344C101.077 246.554 101.739 245.372 102.749 244.801L154.71 214.801C153.7 215.372 153.038 216.554 152.732 218.344L100.771 248.344Z" fill="#8BC5E4"/>
<path fill-rule="evenodd" clip-rule="evenodd" d="M102.743 244.805C102.847 244.746 102.955 244.693 103.067 244.647L155.029 214.647C154.917 214.693 154.809 214.746 154.705 214.805L102.743 244.805Z" fill="#8BC5E4"/>
<path fill-rule="evenodd" clip-rule="evenodd" d="M120.386 254.799C121.659 254.224 123.365 254.559 125.513 255.799L177.475 225.799C175.327 224.559 173.621 224.224 172.348 224.799L120.386 254.799Z" fill="#8BC5E4"/>
<path fill-rule="evenodd" clip-rule="evenodd" d="M125.513 255.799C127.678 257.049 129.393 258.739 130.649 260.874L182.61 230.874C181.354 228.739 179.64 227.049 177.475 225.799L125.513 255.799Z" fill="#8BC5E4"/>
<path fill-rule="evenodd" clip-rule="evenodd" d="M130.648 260.874C131.913 262.994 132.545 265.099 132.545 267.169L184.507 237.169C184.507 235.099 183.874 232.994 182.61 230.874L130.648 260.874Z" fill="#8BC5E4"/>
<path fill-rule="evenodd" clip-rule="evenodd" d="M132.545 267.169C132.545 268.219 132.355 269.149 131.991 269.959L183.952 239.959C184.316 239.149 184.507 238.219 184.507 237.169L132.545 267.169Z" fill="#8BC5E4"/>
<path fill-rule="evenodd" clip-rule="evenodd" d="M131.991 269.959C131.645 270.698 131.089 271.368 130.324 271.969L182.286 241.969C183.051 241.368 183.607 240.698 183.953 239.959L131.991 269.959Z" fill="#8BC5E4"/>
<path fill-rule="evenodd" clip-rule="evenodd" d="M130.328 271.965C130.27 272.01 130.211 272.055 130.151 272.1L182.112 242.1C182.172 242.055 182.231 242.01 182.289 241.965L130.328 271.965Z" fill="#8BC5E4"/>
<path fill-rule="evenodd" clip-rule="evenodd" d="M130.147 272.104C129.878 272.299 129.555 272.505 129.178 272.72L181.14 242.72C181.517 242.505 181.84 242.299 182.108 242.104L130.147 272.104Z" fill="#8BC5E4"/>
<path fill-rule="evenodd" clip-rule="evenodd" d="M129.178 272.72C128.346 273.194 127.249 273.714 125.885 274.274L177.846 244.274C179.21 243.714 180.307 243.194 181.139 242.72L129.178 272.72Z" fill="#8BC5E4"/>
<path fill-rule="evenodd" clip-rule="evenodd" d="M125.886 274.274C124.449 274.845 123.46 275.291 122.914 275.602L174.876 245.602C175.422 245.291 176.411 244.845 177.847 244.274L125.886 274.274Z" fill="#8BC5E4"/>
<path fill-rule="evenodd" clip-rule="evenodd" d="M122.921 275.598C122.831 275.649 122.753 275.696 122.687 275.74L174.649 245.74C174.715 245.696 174.793 245.649 174.883 245.598L122.921 275.598Z" fill="#8BC5E4"/>
<path fill-rule="evenodd" clip-rule="evenodd" d="M122.681 275.744C122.644 275.768 122.607 275.792 122.571 275.816L174.532 245.816C174.568 245.792 174.605 245.768 174.643 245.744L122.681 275.744Z" fill="#8BC5E4"/>
<path fill-rule="evenodd" clip-rule="evenodd" d="M122.572 275.816C122.147 276.103 121.794 276.432 121.516 276.804L173.478 246.804C173.756 246.432 174.109 246.103 174.534 245.816L122.572 275.816Z" fill="#8BC5E4"/>
<path fill-rule="evenodd" clip-rule="evenodd" d="M117.667 277.699C117.641 276.904 117.753 276.229 117.987 275.644L169.949 245.644C169.715 246.229 169.602 246.904 169.628 247.699L117.667 277.699Z" fill="#8BC5E4"/>
<path fill-rule="evenodd" clip-rule="evenodd" d="M117.987 275.644C118.368 274.674 118.975 273.864 119.806 273.194L171.768 243.194C170.936 243.864 170.33 244.674 169.949 245.644L117.987 275.644Z" fill="#8BC5E4"/>
<path fill-rule="evenodd" clip-rule="evenodd" d="M119.806 273.194C120.118 272.947 120.481 272.705 120.895 272.468L172.857 242.468C172.443 242.705 172.08 242.947 171.768 243.194L119.806 273.194Z" fill="#8BC5E4"/>
<path fill-rule="evenodd" clip-rule="evenodd" d="M120.905 272.462C121.602 272.063 122.443 271.677 123.425 271.303L175.386 241.303C174.404 241.677 173.563 242.063 172.866 242.462L120.905 272.462Z" fill="#8BC5E4"/>
<path fill-rule="evenodd" clip-rule="evenodd" d="M123.435 271.299C124.775 270.788 125.877 270.288 126.742 269.798L178.703 239.798C177.838 240.288 176.736 240.788 175.396 241.299L123.435 271.299Z" fill="#8BC5E4"/>
<path fill-rule="evenodd" clip-rule="evenodd" d="M126.756 269.791C127.463 269.39 128.011 268.994 128.401 268.604L180.362 238.604C179.972 238.994 179.424 239.39 178.717 239.791L126.756 269.791Z" fill="#8BC5E4"/>
<path fill-rule="evenodd" clip-rule="evenodd" d="M128.406 268.599C129.263 267.724 129.696 266.674 129.696 265.454L181.658 235.454C181.658 236.674 181.225 237.724 180.367 238.599L128.406 268.599Z" fill="#8BC5E4"/>
<path fill-rule="evenodd" clip-rule="evenodd" d="M129.696 265.454C129.696 264.174 129.297 262.864 128.509 261.539L180.471 231.539C181.259 232.864 181.657 234.174 181.657 235.454L129.696 265.454Z" fill="#8BC5E4"/>
<path fill-rule="evenodd" clip-rule="evenodd" d="M128.51 261.539C127.73 260.199 126.708 259.169 125.453 258.444L177.414 228.444C178.67 229.169 179.692 230.199 180.471 231.539L128.51 261.539Z" fill="#8BC5E4"/>
<path fill-rule="evenodd" clip-rule="evenodd" d="M125.453 258.444C124.249 257.749 123.264 257.555 122.492 257.873L174.454 227.873C175.226 227.555 176.211 227.749 177.414 228.444L125.453 258.444Z" fill="#8BC5E4"/>
<path fill-rule="evenodd" clip-rule="evenodd" d="M122.486 257.875C122.406 257.908 122.328 257.947 122.253 257.991L174.214 227.991C174.289 227.947 174.367 227.908 174.447 227.875L122.486 257.875Z" fill="#8BC5E4"/>
<path fill-rule="evenodd" clip-rule="evenodd" d="M122.248 257.994C122.167 258.042 122.09 258.096 122.017 258.155L173.979 228.155C174.052 228.096 174.129 228.042 174.21 227.994L122.248 257.994Z" fill="#8BC5E4"/>
<path fill-rule="evenodd" clip-rule="evenodd" d="M122.018 258.155C121.374 258.683 121.045 259.682 121.036 261.164L172.998 231.164C173.007 229.682 173.336 228.683 173.98 228.155L122.018 258.155Z" fill="#8BC5E4"/>
<path fill-rule="evenodd" clip-rule="evenodd" d="M118.187 259.179C118.365 257.063 118.971 255.662 120.015 254.996L171.977 224.996C170.933 225.662 170.327 227.063 170.148 229.179L118.187 259.179Z" fill="#8BC5E4"/>
<path fill-rule="evenodd" clip-rule="evenodd" d="M120.023 254.992C120.136 254.92 120.255 254.856 120.379 254.802L172.34 224.802C172.216 224.856 172.097 224.92 171.984 224.992L120.023 254.992Z" fill="#8BC5E4"/>
<path fill-rule="evenodd" clip-rule="evenodd" d="M138.157 264.899C139.361 264.394 140.851 264.654 142.635 265.684L194.596 235.684C192.812 234.654 191.323 234.394 190.119 234.899L138.157 264.899Z" fill="#8BC5E4"/>
<path fill-rule="evenodd" clip-rule="evenodd" d="M142.634 265.684C143.864 266.394 144.998 267.369 146.038 268.589L197.999 238.589C196.96 237.369 195.826 236.394 194.596 235.684L142.634 265.684Z" fill="#8BC5E4"/>
<path fill-rule="evenodd" clip-rule="evenodd" d="M146.038 268.589C147.077 269.799 147.865 271.094 148.411 272.469L200.372 242.469C199.827 241.094 199.039 239.799 198 238.589L146.038 268.589Z" fill="#8BC5E4"/>
<path fill-rule="evenodd" clip-rule="evenodd" d="M148.411 272.469C148.965 273.859 149.242 275.149 149.242 276.339L201.204 246.339C201.204 245.149 200.926 243.859 200.372 242.469L148.411 272.469Z" fill="#8BC5E4"/>
<path fill-rule="evenodd" clip-rule="evenodd" d="M149.242 276.339C149.242 277.479 148.974 278.364 148.454 278.994L200.416 248.994C200.935 248.364 201.204 247.479 201.204 246.339L149.242 276.339Z" fill="#8BC5E4"/>
<path fill-rule="evenodd" clip-rule="evenodd" d="M148.454 278.994C148.275 279.211 148.066 279.387 147.827 279.524L199.789 249.524C200.028 249.387 200.237 249.211 200.416 248.994L148.454 278.994Z" fill="#8BC5E4"/>
<path fill-rule="evenodd" clip-rule="evenodd" d="M147.828 279.523C147.372 279.785 146.808 279.903 146.139 279.884L198.101 249.884C198.77 249.903 199.334 249.785 199.79 249.523L147.828 279.523Z" fill="#8BC5E4"/>
<path fill-rule="evenodd" clip-rule="evenodd" d="M146.133 279.884C147.467 281.004 148.498 282.349 149.242 283.919L201.204 253.919C200.459 252.349 199.429 251.004 198.095 249.884L146.133 279.884Z" fill="#8BC5E4"/>
<path fill-rule="evenodd" clip-rule="evenodd" d="M149.242 283.919C149.978 285.474 150.351 287.099 150.351 288.799L202.312 258.799C202.312 257.099 201.94 255.474 201.204 253.919L149.242 283.919Z" fill="#8BC5E4"/>
<path fill-rule="evenodd" clip-rule="evenodd" d="M150.351 288.799C150.351 290.892 149.755 292.352 148.564 293.178L200.525 263.178C201.716 262.352 202.312 260.892 202.312 258.799L150.351 288.799Z" fill="#8BC5E4"/>
<path fill-rule="evenodd" clip-rule="evenodd" d="M148.556 293.183C148.444 293.261 148.326 293.333 148.203 293.399L200.165 263.399C200.288 263.333 200.406 263.261 200.518 263.183L148.556 293.183Z" fill="#8BC5E4"/>
<path fill-rule="evenodd" clip-rule="evenodd" d="M148.194 293.404C148.059 293.475 147.921 293.538 147.78 293.591L199.741 263.591C199.882 263.538 200.02 263.475 200.156 263.404L148.194 293.404Z" fill="#8BC5E4"/>
<path fill-rule="evenodd" clip-rule="evenodd" d="M147.78 293.591C146.414 294.107 144.737 293.796 142.753 292.653L194.714 262.653C196.698 263.796 198.375 264.107 199.741 263.591L147.78 293.591Z" fill="#8BC5E4"/>
<path fill-rule="evenodd" clip-rule="evenodd" d="M142.747 292.649C140.764 291.504 139.118 289.864 137.802 287.724L189.763 257.724C191.08 259.864 192.725 261.504 194.708 262.649L142.747 292.649Z" fill="#8BC5E4"/>
<path fill-rule="evenodd" clip-rule="evenodd" d="M137.802 287.724C136.503 285.604 135.758 283.384 135.576 281.089L187.538 251.089C187.72 253.384 188.464 255.604 189.763 257.724L137.802 287.724Z" fill="#8BC5E4"/>
<path fill-rule="evenodd" clip-rule="evenodd" d="M138.348 282.259C138.659 284.269 139.196 285.909 139.958 287.159L191.92 257.159C191.158 255.909 190.621 254.269 190.309 252.259L138.348 282.259Z" fill="#8BC5E4"/>
<path fill-rule="evenodd" clip-rule="evenodd" d="M139.958 287.159C140.729 288.404 141.664 289.344 142.756 289.974L194.717 259.974C193.626 259.344 192.691 258.404 191.92 257.159L139.958 287.159Z" fill="#8BC5E4"/>
<path fill-rule="evenodd" clip-rule="evenodd" d="M142.755 289.974C143.946 290.661 144.964 290.81 145.81 290.428L197.771 260.428C196.925 260.81 195.907 260.661 194.717 259.974L142.755 289.974Z" fill="#8BC5E4"/>
<path fill-rule="evenodd" clip-rule="evenodd" d="M145.816 290.425C145.895 290.389 145.973 290.348 146.05 290.302L198.011 260.302C197.934 260.348 197.856 260.389 197.777 260.425L145.816 290.425Z" fill="#8BC5E4"/>
<path fill-rule="evenodd" clip-rule="evenodd" d="M146.055 290.299C146.14 290.249 146.22 290.195 146.297 290.136L198.258 260.136C198.181 260.195 198.101 260.249 198.017 260.299L146.055 290.299Z" fill="#8BC5E4"/>
<path fill-rule="evenodd" clip-rule="evenodd" d="M146.296 290.137C147.034 289.571 147.404 288.587 147.406 287.178L199.367 257.178C199.365 258.587 198.995 259.571 198.257 260.137L146.296 290.137Z" fill="#8BC5E4"/>
<path fill-rule="evenodd" clip-rule="evenodd" d="M147.406 287.169C147.406 285.679 146.991 284.219 146.159 282.789L198.121 252.789C198.952 254.219 199.368 255.679 199.368 257.169L147.406 287.169Z" fill="#8BC5E4"/>
<path fill-rule="evenodd" clip-rule="evenodd" d="M146.159 282.789C145.327 281.339 144.271 280.239 142.989 279.499L194.951 249.499C196.232 250.239 197.289 251.339 198.12 252.789L146.159 282.789Z" fill="#8BC5E4"/>
<path fill-rule="evenodd" clip-rule="evenodd" d="M142.99 279.499C142.47 279.199 141.82 278.944 141.041 278.734L193.003 248.734C193.782 248.944 194.432 249.199 194.951 249.499L142.99 279.499Z" fill="#8BC5E4"/>
<path fill-rule="evenodd" clip-rule="evenodd" d="M141.344 276.069C141.534 276.209 141.673 276.299 141.794 276.369L193.756 246.369C193.634 246.299 193.496 246.209 193.305 246.069L141.344 276.069Z" fill="#8BC5E4"/>
<path fill-rule="evenodd" clip-rule="evenodd" d="M141.794 276.369C142.972 277.049 144.037 277.304 144.973 277.124L196.934 247.124C195.999 247.304 194.934 247.049 193.756 246.369L141.794 276.369Z" fill="#8BC5E4"/>
<path fill-rule="evenodd" clip-rule="evenodd" d="M144.973 277.124C145.15 277.091 145.31 277.036 145.454 276.957L197.416 246.957C197.272 247.036 197.112 247.091 196.934 247.124L144.973 277.124Z" fill="#8BC5E4"/>
<path fill-rule="evenodd" clip-rule="evenodd" d="M145.453 276.957C146.077 276.617 146.391 275.847 146.393 274.633L198.355 244.633C198.353 245.847 198.039 246.617 197.415 246.957L145.453 276.957Z" fill="#8BC5E4"/>
<path fill-rule="evenodd" clip-rule="evenodd" d="M146.393 274.624C146.393 273.444 146.046 272.264 145.362 271.089L197.324 241.089C198.008 242.264 198.354 243.444 198.354 244.624L146.393 274.624Z" fill="#8BC5E4"/>
<path fill-rule="evenodd" clip-rule="evenodd" d="M145.362 271.089C144.678 269.914 143.786 269.009 142.695 268.379L194.656 238.379C195.748 239.009 196.64 239.914 197.324 241.089L145.362 271.089Z" fill="#8BC5E4"/>
<path fill-rule="evenodd" clip-rule="evenodd" d="M142.695 268.379C141.722 267.817 140.891 267.666 140.215 267.925L192.176 237.925C192.852 237.666 193.683 237.817 194.656 238.379L142.695 268.379Z" fill="#8BC5E4"/>
<path fill-rule="evenodd" clip-rule="evenodd" d="M140.223 267.923C140.154 267.949 140.085 267.98 140.019 268.015L191.981 238.015C192.047 237.98 192.116 237.949 192.185 237.923L140.223 267.923Z" fill="#8BC5E4"/>
<path fill-rule="evenodd" clip-rule="evenodd" d="M140.01 268.019C139.937 268.057 139.867 268.101 139.799 268.15L191.76 238.15C191.828 238.101 191.898 238.057 191.972 238.019L140.01 268.019Z" fill="#8BC5E4"/>
<path fill-rule="evenodd" clip-rule="evenodd" d="M139.8 268.149C139.201 268.583 138.806 269.448 138.626 270.76L190.587 240.76C190.767 239.448 191.162 238.583 191.761 238.149L139.8 268.149Z" fill="#8BC5E4"/>
<path fill-rule="evenodd" clip-rule="evenodd" d="M135.854 268.599C136.159 266.809 136.821 265.627 137.832 265.056L189.794 235.056C188.783 235.627 188.121 236.809 187.815 238.599L135.854 268.599Z" fill="#8BC5E4"/>
<path fill-rule="evenodd" clip-rule="evenodd" d="M137.826 265.06C137.93 265.001 138.038 264.948 138.15 264.902L190.112 234.902C190 234.948 189.892 235.001 189.788 235.06L137.826 265.06Z" fill="#8BC5E4"/>
<path fill-rule="evenodd" clip-rule="evenodd" d="M111.042 105.404C106.876 102.999 103.499 104.989 103.499 109.859C103.499 114.719 106.876 120.609 111.042 123.014C115.216 125.424 118.594 123.434 118.594 118.574C118.594 116.234 117.797 113.534 116.376 111.064C114.965 108.599 113.042 106.559 111.042 105.404ZM10.4616 36.9244L211.232 152.839C214.454 154.699 216.974 159.084 216.974 162.844V338.414C216.974 342.174 214.454 343.659 211.232 341.799L10.4616 225.884C7.24863 224.029 4.7285 219.634 4.7285 215.874V40.3044C4.7285 36.5444 7.24863 35.0694 10.4616 36.9244ZM70.1827 223.964V250.284L73.1618 252.004V239.604L84.8878 246.374V258.774L87.8756 260.499V234.179L84.8878 232.454V243.264L73.1618 236.494V225.684L70.1827 223.964ZM103.074 244.644C104.278 244.139 105.768 244.399 107.552 245.429C108.781 246.139 109.916 247.114 110.955 248.334C111.994 249.544 112.782 250.839 113.328 252.214C113.874 253.599 114.159 254.894 114.159 256.084C114.159 257.224 113.891 258.109 113.371 258.739C112.843 259.364 112.072 259.659 111.05 259.629C112.384 260.749 113.415 262.094 114.159 263.664C114.896 265.219 115.259 266.839 115.259 268.539C115.259 270.839 114.541 272.374 113.112 273.149C111.674 273.909 109.855 273.659 107.664 272.394C105.681 271.249 104.036 269.609 102.719 267.469C101.42 265.349 100.675 263.129 100.494 260.834L103.265 262.004C103.577 264.014 104.122 265.659 104.876 266.904C105.646 268.149 106.582 269.089 107.682 269.724C108.981 270.474 110.08 270.579 110.972 270.044C111.873 269.514 112.323 268.474 112.323 266.914C112.323 265.424 111.908 263.964 111.076 262.534C110.245 261.084 109.188 259.984 107.907 259.244C107.387 258.944 106.729 258.684 105.95 258.474L106.261 255.814C106.443 255.949 106.599 256.049 106.703 256.109C107.889 256.794 108.946 257.044 109.89 256.869C110.834 256.694 111.31 255.869 111.31 254.369C111.31 253.189 110.964 252.009 110.28 250.834C109.587 249.654 108.704 248.754 107.621 248.129C106.538 247.504 105.638 247.384 104.919 247.759C104.209 248.139 103.741 249.049 103.533 250.509L100.771 248.344C101.108 246.369 101.879 245.134 103.074 244.644ZM93.2883 259.944V263.624L96.4406 265.444V261.764L93.2883 259.944ZM120.386 254.799C121.659 254.224 123.365 254.559 125.513 255.799C127.678 257.049 129.393 258.739 130.649 260.874C131.913 262.994 132.545 265.099 132.545 267.169C132.545 268.219 132.355 269.149 131.991 269.959C131.619 270.754 131.004 271.469 130.146 272.104C129.289 272.729 127.869 273.459 125.885 274.274C124.214 274.939 123.149 275.434 122.681 275.744C122.205 276.049 121.815 276.404 121.512 276.809L132.571 283.194V286.304L117.667 277.699C117.641 276.904 117.753 276.229 117.987 275.644C118.368 274.674 118.975 273.864 119.806 273.194C120.646 272.529 121.858 271.899 123.435 271.299C125.885 270.364 127.54 269.469 128.406 268.599C129.263 267.724 129.696 266.674 129.696 265.454C129.696 264.174 129.298 262.864 128.51 261.539C127.73 260.199 126.708 259.169 125.452 258.444C124.119 257.674 123.054 257.519 122.248 257.994C121.451 258.464 121.044 259.519 121.036 261.174L118.186 259.179C118.386 256.824 119.113 255.354 120.386 254.799ZM142.634 265.684C140.85 264.654 139.361 264.394 138.157 264.899C136.962 265.389 136.191 266.624 135.853 268.599L138.625 270.769C138.824 269.304 139.292 268.394 140.01 268.019C140.72 267.639 141.621 267.759 142.695 268.379C143.786 269.009 144.678 269.914 145.362 271.089C146.047 272.264 146.393 273.444 146.393 274.624C146.393 276.124 145.917 276.949 144.973 277.124C144.037 277.304 142.972 277.049 141.794 276.369C141.673 276.299 141.535 276.209 141.344 276.069L141.041 278.734C141.82 278.944 142.47 279.199 142.989 279.499C144.271 280.239 145.328 281.339 146.159 282.789C146.991 284.219 147.406 285.679 147.406 287.169C147.406 288.729 146.956 289.769 146.055 290.299C145.163 290.834 144.063 290.729 142.756 289.974C141.664 289.344 140.729 288.404 139.958 287.159C139.196 285.909 138.659 284.269 138.348 282.259L135.576 281.089C135.758 283.384 136.503 285.604 137.802 287.724C139.118 289.864 140.764 291.504 142.747 292.649C144.938 293.914 146.757 294.164 148.194 293.404C149.632 292.634 150.351 291.099 150.351 288.799C150.351 287.099 149.978 285.474 149.242 283.919C148.497 282.349 147.467 281.004 146.133 279.884C147.155 279.914 147.934 279.624 148.454 278.994C148.974 278.364 149.242 277.479 149.242 276.339C149.242 275.149 148.965 273.859 148.411 272.469C147.865 271.094 147.077 269.799 146.038 268.589C144.999 267.369 143.864 266.394 142.634 265.684ZM37.6115 193.119V88.4594L184.048 173.004V277.664L37.6115 193.119Z" fill="white"/>
<path d="M37.6115 88.4594V193.119L184.048 277.664V173.004L37.6115 88.4594Z" fill="#8BC5E4"/>
</svg>
