<svg width="274" height="349" viewBox="0 0 274 349" fill="none" xmlns="http://www.w3.org/2000/svg">
<path fill-rule="evenodd" clip-rule="evenodd" d="M163.003 105.182L111.042 75.1825L163.003 105.182Z" fill="#8BC5E4"/>
<path fill-rule="evenodd" clip-rule="evenodd" d="M89.5728 173.027V277.688L37.6113 247.688V143.027L89.5728 173.027Z" fill="#8BC5E4"/>
<path fill-rule="evenodd" clip-rule="evenodd" d="M89.5728 277.687L236.009 193.142L184.048 163.142L37.6113 247.687L89.5728 277.687Z" fill="#8BC5E4"/>
<path fill-rule="evenodd" clip-rule="evenodd" d="M236.009 193.142V88.4825L184.048 58.4825V163.142L236.009 193.142Z" fill="#8BC5E4"/>
<path fill-rule="evenodd" clip-rule="evenodd" d="M236.009 88.4825L89.5728 173.027L37.6113 143.027L184.048 58.4825L236.009 88.4825Z" fill="#8BC5E4"/>
<path fill-rule="evenodd" clip-rule="evenodd" d="M89.5728 173.027L37.6113 143.027L89.5728 173.027Z" fill="#8BC5E4"/>
<path fill-rule="evenodd" clip-rule="evenodd" d="M152.732 259.982L155.495 258.957L103.533 228.957L100.771 229.982L152.732 259.982Z" fill="#8BC5E4"/>
<path fill-rule="evenodd" clip-rule="evenodd" d="M158.223 261.112L157.911 264.132L105.949 234.132L106.261 231.112L158.223 261.112Z" fill="#8BC5E4"/>
<path fill-rule="evenodd" clip-rule="evenodd" d="M155.226 270.762L152.455 272.792L100.494 242.792L103.265 240.762L155.226 270.762Z" fill="#8BC5E4"/>
<path fill-rule="evenodd" clip-rule="evenodd" d="M159.513 249.237L107.552 219.237L159.513 249.237Z" fill="#8BC5E4"/>
<path fill-rule="evenodd" clip-rule="evenodd" d="M170.148 250.707L172.997 249.412L121.036 219.412L118.187 220.707L170.148 250.707Z" fill="#8BC5E4"/>
<path fill-rule="evenodd" clip-rule="evenodd" d="M169.628 269.827L184.532 261.222L132.571 231.222L117.667 239.827L169.628 269.827Z" fill="#8BC5E4"/>
<path fill-rule="evenodd" clip-rule="evenodd" d="M184.532 261.222V258.112L132.571 228.112V231.222L184.532 261.222Z" fill="#8BC5E4"/>
<path fill-rule="evenodd" clip-rule="evenodd" d="M184.532 258.112L173.473 264.497L121.512 234.497L132.571 228.112L184.532 258.112Z" fill="#8BC5E4"/>
<path fill-rule="evenodd" clip-rule="evenodd" d="M177.474 238.867L125.513 208.867L177.474 238.867Z" fill="#8BC5E4"/>
<path fill-rule="evenodd" clip-rule="evenodd" d="M187.815 239.727L190.586 238.697L138.625 208.697L135.854 209.727L187.815 239.727Z" fill="#8BC5E4"/>
<path fill-rule="evenodd" clip-rule="evenodd" d="M193.306 240.857L193.003 243.872L141.041 213.872L141.344 210.857L193.306 240.857Z" fill="#8BC5E4"/>
<path fill-rule="evenodd" clip-rule="evenodd" d="M190.309 250.507L187.538 252.537L135.576 222.537L138.347 220.507L190.309 250.507Z" fill="#8BC5E4"/>
<path fill-rule="evenodd" clip-rule="evenodd" d="M194.596 228.982L142.634 198.982L194.596 228.982Z" fill="#8BC5E4"/>
<path fill-rule="evenodd" clip-rule="evenodd" d="M122.144 270.922V297.242L70.1826 267.242V240.922L122.144 270.922Z" fill="#8BC5E4"/>
<path fill-rule="evenodd" clip-rule="evenodd" d="M122.144 297.242L125.123 295.522L73.1617 265.522L70.1826 267.242L122.144 297.242Z" fill="#8BC5E4"/>
<path fill-rule="evenodd" clip-rule="evenodd" d="M125.123 295.522V283.122L73.1616 253.122V265.522L125.123 295.522Z" fill="#8BC5E4"/>
<path fill-rule="evenodd" clip-rule="evenodd" d="M125.123 283.122L136.849 276.352L84.8876 246.352L73.1616 253.122L125.123 283.122Z" fill="#8BC5E4"/>
<path fill-rule="evenodd" clip-rule="evenodd" d="M136.849 276.352V288.752L84.8877 258.752V246.352L136.849 276.352Z" fill="#8BC5E4"/>
<path fill-rule="evenodd" clip-rule="evenodd" d="M136.849 288.752L139.837 287.027L87.8755 257.027L84.8877 258.752L136.849 288.752Z" fill="#8BC5E4"/>
<path fill-rule="evenodd" clip-rule="evenodd" d="M139.837 287.027V260.707L87.8755 230.707V257.027L139.837 287.027Z" fill="#8BC5E4"/>
<path fill-rule="evenodd" clip-rule="evenodd" d="M139.837 260.707L136.849 262.432L84.8877 232.432L87.8755 230.707L139.837 260.707Z" fill="#8BC5E4"/>
<path fill-rule="evenodd" clip-rule="evenodd" d="M136.849 262.432V273.242L84.8877 243.242V232.432L136.849 262.432Z" fill="#8BC5E4"/>
<path fill-rule="evenodd" clip-rule="evenodd" d="M136.849 273.242L125.123 280.012L73.1616 250.012L84.8876 243.242L136.849 273.242Z" fill="#8BC5E4"/>
<path fill-rule="evenodd" clip-rule="evenodd" d="M125.123 280.012V269.202L73.1616 239.202V250.012L125.123 280.012Z" fill="#8BC5E4"/>
<path fill-rule="evenodd" clip-rule="evenodd" d="M125.123 269.202L122.144 270.922L70.1826 240.922L73.1617 239.202L125.123 269.202Z" fill="#8BC5E4"/>
<path fill-rule="evenodd" clip-rule="evenodd" d="M122.144 270.922L70.1826 240.922L122.144 270.922Z" fill="#8BC5E4"/>
<path fill-rule="evenodd" clip-rule="evenodd" d="M145.25 280.222V283.902L93.2881 253.902V250.222L145.25 280.222Z" fill="#8BC5E4"/>
<path fill-rule="evenodd" clip-rule="evenodd" d="M145.25 283.902L148.402 282.082L96.4405 252.082L93.2881 253.902L145.25 283.902Z" fill="#8BC5E4"/>
<path fill-rule="evenodd" clip-rule="evenodd" d="M148.402 282.082V278.402L96.4404 248.402V252.082L148.402 282.082Z" fill="#8BC5E4"/>
<path fill-rule="evenodd" clip-rule="evenodd" d="M148.402 278.402L145.25 280.222L93.2881 250.222L96.4405 248.402L148.402 278.402Z" fill="#8BC5E4"/>
<path fill-rule="evenodd" clip-rule="evenodd" d="M145.25 280.222L93.2881 250.222L145.25 280.222Z" fill="#8BC5E4"/>
<path fill-rule="evenodd" clip-rule="evenodd" d="M51.9615 165.572V341.142L0 311.142V135.572L51.9615 165.572Z" fill="#8BC5E4"/>
<path fill-rule="evenodd" clip-rule="evenodd" d="M62.4229 347.322L263.194 231.407L211.232 201.407L10.4614 317.322L62.4229 347.322Z" fill="#8BC5E4"/>
<path fill-rule="evenodd" clip-rule="evenodd" d="M273.664 213.143V37.5725L221.703 7.57249V183.143L273.664 213.143Z" fill="#8BC5E4"/>
<path fill-rule="evenodd" clip-rule="evenodd" d="M263.194 31.4075L62.4229 147.322L10.4614 117.322L211.232 1.40749L263.194 31.4075Z" fill="#8BC5E4"/>
<path fill-rule="evenodd" clip-rule="evenodd" d="M62.4229 147.322L10.4614 117.322L62.4229 147.322Z" fill="#8BC5E4"/>
<path fill-rule="evenodd" clip-rule="evenodd" d="M62.4229 152.842L263.194 36.9275L211.232 6.92749L10.4614 122.842L62.4229 152.842Z" fill="#8BC5E4"/>
<path fill-rule="evenodd" clip-rule="evenodd" d="M268.936 40.3025V215.872L216.974 185.872V10.3025L268.936 40.3025Z" fill="#8BC5E4"/>
<path fill-rule="evenodd" clip-rule="evenodd" d="M263.194 225.887L62.4229 341.802L10.4614 311.802L211.232 195.887L263.194 225.887Z" fill="#8BC5E4"/>
<path fill-rule="evenodd" clip-rule="evenodd" d="M56.69 338.412V162.842L4.72852 132.842V308.412L56.69 338.412Z" fill="#8BC5E4"/>
<path fill-rule="evenodd" clip-rule="evenodd" d="M62.4229 152.842L10.4614 122.842L62.4229 152.842Z" fill="#8BC5E4"/>
<path fill-rule="evenodd" clip-rule="evenodd" d="M62.4229 152.842L263.194 36.9275L211.232 6.92749L10.4614 122.842L62.4229 152.842Z" fill="#8BC5E4"/>
<path fill-rule="evenodd" clip-rule="evenodd" d="M268.936 40.3025V215.872L216.974 185.872V10.3025L268.936 40.3025Z" fill="#8BC5E4"/>
<path fill-rule="evenodd" clip-rule="evenodd" d="M263.194 225.887L62.4229 341.802L10.4614 311.802L211.232 195.887L263.194 225.887Z" fill="#8BC5E4"/>
<path fill-rule="evenodd" clip-rule="evenodd" d="M56.69 338.412V162.842L4.72852 132.842V308.412L56.69 338.412Z" fill="#8BC5E4"/>
<path fill-rule="evenodd" clip-rule="evenodd" d="M62.4229 152.842L10.4614 122.842L62.4229 152.842Z" fill="#8BC5E4"/>
<path fill-rule="evenodd" clip-rule="evenodd" d="M155.46 118.347L103.499 88.3475L155.46 118.347Z" fill="#8BC5E4"/>
<path fill-rule="evenodd" clip-rule="evenodd" d="M89.5728 277.688V173.027L37.6113 143.027V247.688L89.5728 277.688Z" fill="#8BC5E4"/>
<path fill-rule="evenodd" clip-rule="evenodd" d="M89.5728 173.027L236.009 88.4825L184.048 58.4825L37.6113 143.027L89.5728 173.027Z" fill="#8BC5E4"/>
<path fill-rule="evenodd" clip-rule="evenodd" d="M236.009 88.4825V193.142L184.048 163.142V58.4825L236.009 88.4825Z" fill="#8BC5E4"/>
<path fill-rule="evenodd" clip-rule="evenodd" d="M236.009 193.142L89.5728 277.687L37.6113 247.687L184.048 163.142L236.009 193.142Z" fill="#8BC5E4"/>
<path fill-rule="evenodd" clip-rule="evenodd" d="M89.5728 277.687L37.6113 247.687L89.5728 277.687Z" fill="#8BC5E4"/>
<path fill-rule="evenodd" clip-rule="evenodd" d="M152.455 272.792L155.226 270.762L103.265 240.762L100.494 242.792L152.455 272.792Z" fill="#8BC5E4"/>
<path fill-rule="evenodd" clip-rule="evenodd" d="M157.911 264.132L158.223 261.112L106.261 231.112L105.949 234.132L157.911 264.132Z" fill="#8BC5E4"/>
<path fill-rule="evenodd" clip-rule="evenodd" d="M155.495 258.957L152.732 259.982L100.771 229.982L103.533 228.957L155.495 258.957Z" fill="#8BC5E4"/>
<path fill-rule="evenodd" clip-rule="evenodd" d="M155.036 253.622L103.074 223.622L155.036 253.622Z" fill="#8BC5E4"/>
<path fill-rule="evenodd" clip-rule="evenodd" d="M173.473 264.497L184.532 258.112L132.571 228.112L121.512 234.497L173.473 264.497Z" fill="#8BC5E4"/>
<path fill-rule="evenodd" clip-rule="evenodd" d="M184.532 258.112V261.222L132.571 231.222V228.112L184.532 258.112Z" fill="#8BC5E4"/>
<path fill-rule="evenodd" clip-rule="evenodd" d="M184.532 261.222L169.628 269.827L117.667 239.827L132.571 231.222L184.532 261.222Z" fill="#8BC5E4"/>
<path fill-rule="evenodd" clip-rule="evenodd" d="M172.997 249.412L170.148 250.707L118.187 220.707L121.036 219.412L172.997 249.412Z" fill="#8BC5E4"/>
<path fill-rule="evenodd" clip-rule="evenodd" d="M172.348 243.787L120.386 213.787L172.348 243.787Z" fill="#8BC5E4"/>
<path fill-rule="evenodd" clip-rule="evenodd" d="M187.538 252.537L190.309 250.507L138.347 220.507L135.576 222.537L187.538 252.537Z" fill="#8BC5E4"/>
<path fill-rule="evenodd" clip-rule="evenodd" d="M193.003 243.872L193.306 240.857L141.344 210.857L141.041 213.872L193.003 243.872Z" fill="#8BC5E4"/>
<path fill-rule="evenodd" clip-rule="evenodd" d="M190.586 238.697L187.815 239.727L135.854 209.727L138.625 208.697L190.586 238.697Z" fill="#8BC5E4"/>
<path fill-rule="evenodd" clip-rule="evenodd" d="M190.118 233.367L138.157 203.367L190.118 233.367Z" fill="#8BC5E4"/>
<path fill-rule="evenodd" clip-rule="evenodd" d="M122.144 297.242V270.922L70.1826 240.922V267.242L122.144 297.242Z" fill="#8BC5E4"/>
<path fill-rule="evenodd" clip-rule="evenodd" d="M122.144 270.922L125.123 269.202L73.1617 239.202L70.1826 240.922L122.144 270.922Z" fill="#8BC5E4"/>
<path fill-rule="evenodd" clip-rule="evenodd" d="M125.123 269.202V280.012L73.1616 250.012V239.202L125.123 269.202Z" fill="#8BC5E4"/>
<path fill-rule="evenodd" clip-rule="evenodd" d="M125.123 280.012L136.849 273.242L84.8876 243.242L73.1616 250.012L125.123 280.012Z" fill="#8BC5E4"/>
<path fill-rule="evenodd" clip-rule="evenodd" d="M136.849 273.242V262.432L84.8877 232.432V243.242L136.849 273.242Z" fill="#8BC5E4"/>
<path fill-rule="evenodd" clip-rule="evenodd" d="M136.849 262.432L139.837 260.707L87.8755 230.707L84.8877 232.432L136.849 262.432Z" fill="#8BC5E4"/>
<path fill-rule="evenodd" clip-rule="evenodd" d="M139.837 260.707V287.027L87.8755 257.027V230.707L139.837 260.707Z" fill="#8BC5E4"/>
<path fill-rule="evenodd" clip-rule="evenodd" d="M139.837 287.027L136.849 288.752L84.8877 258.752L87.8755 257.027L139.837 287.027Z" fill="#8BC5E4"/>
<path fill-rule="evenodd" clip-rule="evenodd" d="M136.849 288.752V276.352L84.8877 246.352V258.752L136.849 288.752Z" fill="#8BC5E4"/>
<path fill-rule="evenodd" clip-rule="evenodd" d="M136.849 276.352L125.123 283.122L73.1616 253.122L84.8876 246.352L136.849 276.352Z" fill="#8BC5E4"/>
<path fill-rule="evenodd" clip-rule="evenodd" d="M125.123 283.122V295.522L73.1616 265.522V253.122L125.123 283.122Z" fill="#8BC5E4"/>
<path fill-rule="evenodd" clip-rule="evenodd" d="M125.123 295.522L122.144 297.242L70.1826 267.242L73.1617 265.522L125.123 295.522Z" fill="#8BC5E4"/>
<path fill-rule="evenodd" clip-rule="evenodd" d="M122.144 297.242L70.1826 267.242L122.144 297.242Z" fill="#8BC5E4"/>
<path fill-rule="evenodd" clip-rule="evenodd" d="M145.25 283.902V280.222L93.2881 250.222V253.902L145.25 283.902Z" fill="#8BC5E4"/>
<path fill-rule="evenodd" clip-rule="evenodd" d="M145.25 280.222L148.402 278.402L96.4405 248.402L93.2881 250.222L145.25 280.222Z" fill="#8BC5E4"/>
<path fill-rule="evenodd" clip-rule="evenodd" d="M148.402 278.402V282.082L96.4404 252.082V248.402L148.402 278.402Z" fill="#8BC5E4"/>
<path fill-rule="evenodd" clip-rule="evenodd" d="M148.402 282.082L145.25 283.902L93.2881 253.902L96.4405 252.082L148.402 282.082Z" fill="#8BC5E4"/>
<path fill-rule="evenodd" clip-rule="evenodd" d="M145.25 283.902L93.2881 253.902L145.25 283.902Z" fill="#8BC5E4"/>
<path fill-rule="evenodd" clip-rule="evenodd" d="M163.003 105.182C158.838 107.587 155.46 113.477 155.46 118.347L103.499 88.3475C103.499 83.4775 106.876 77.5875 111.042 75.1825L163.003 105.182Z" fill="#8BC5E4"/>
<path fill-rule="evenodd" clip-rule="evenodd" d="M155.46 118.347C155.46 120.881 156.378 122.635 157.848 123.393L105.887 93.3935C104.417 92.6355 103.499 90.8815 103.499 88.3475L155.46 118.347Z" fill="#8BC5E4"/>
<path fill-rule="evenodd" clip-rule="evenodd" d="M157.846 123.392C159.194 124.087 161.005 123.944 162.997 122.796L111.036 92.7965C109.044 93.9445 107.233 94.0875 105.885 93.3925L157.846 123.392Z" fill="#8BC5E4"/>
<path fill-rule="evenodd" clip-rule="evenodd" d="M163.003 122.792C167.177 120.382 170.555 114.492 170.555 109.632L118.593 79.6325C118.593 84.4925 115.216 90.3825 111.042 92.7925L163.003 122.792Z" fill="#8BC5E4"/>
<path fill-rule="evenodd" clip-rule="evenodd" d="M170.555 109.632C170.555 107.511 169.9 105.851 168.72 104.94L116.759 74.9405C117.939 75.8515 118.594 77.5115 118.593 79.6325L170.555 109.632Z" fill="#8BC5E4"/>
<path fill-rule="evenodd" clip-rule="evenodd" d="M168.712 104.934C168.595 104.844 168.473 104.762 168.346 104.687L116.385 74.6875C116.512 74.7625 116.634 74.8445 116.751 74.9345L168.712 104.934Z" fill="#8BC5E4"/>
<path fill-rule="evenodd" clip-rule="evenodd" d="M168.338 104.682C168.211 104.607 168.08 104.54 167.945 104.481L115.984 74.4815C116.119 74.5405 116.25 74.6075 116.376 74.6825L168.338 104.682Z" fill="#8BC5E4"/>
<path fill-rule="evenodd" clip-rule="evenodd" d="M167.945 104.482C166.581 103.888 164.827 104.13 163.009 105.179L111.048 75.1795C112.866 74.1305 114.62 73.8885 115.984 74.4825L167.945 104.482Z" fill="#8BC5E4"/>
<path fill-rule="evenodd" clip-rule="evenodd" d="M159.513 249.237C157.729 250.267 156.24 251.727 155.036 253.622L103.074 223.622C104.278 221.727 105.768 220.267 107.552 219.237L159.513 249.237Z" fill="#8BC5E4"/>
<path fill-rule="evenodd" clip-rule="evenodd" d="M155.036 253.622C153.841 255.492 153.07 257.617 152.732 259.982L100.771 229.982C101.108 227.617 101.879 225.492 103.074 223.622L155.036 253.622Z" fill="#8BC5E4"/>
<path fill-rule="evenodd" clip-rule="evenodd" d="M155.495 258.957C155.703 257.257 156.17 255.807 156.88 254.607L104.919 224.607C104.209 225.807 103.741 227.257 103.533 228.957L155.495 258.957Z" fill="#8BC5E4"/>
<path fill-rule="evenodd" clip-rule="evenodd" d="M156.88 254.607C157.599 253.402 158.5 252.482 159.582 251.857L107.621 221.857C106.538 222.482 105.638 223.402 104.919 224.607L156.88 254.607Z" fill="#8BC5E4"/>
<path fill-rule="evenodd" clip-rule="evenodd" d="M159.582 251.857C160.563 251.291 161.38 251.139 162.041 251.398L110.08 221.398C109.419 221.139 108.602 221.291 107.621 221.857L159.582 251.857Z" fill="#8BC5E4"/>
<path fill-rule="evenodd" clip-rule="evenodd" d="M162.033 251.396C162.102 251.422 162.168 251.453 162.233 251.488L110.272 221.488C110.207 221.453 110.141 221.422 110.072 221.396L162.033 251.396Z" fill="#8BC5E4"/>
<path fill-rule="evenodd" clip-rule="evenodd" d="M162.241 251.492C162.305 251.528 162.366 251.568 162.424 251.611L110.463 221.611C110.405 221.568 110.344 221.528 110.279 221.492L162.241 251.492Z" fill="#8BC5E4"/>
<path fill-rule="evenodd" clip-rule="evenodd" d="M162.424 251.61C162.985 252.025 163.27 252.764 163.271 253.83L111.31 223.83C111.309 222.764 111.024 222.025 110.463 221.61L162.424 251.61Z" fill="#8BC5E4"/>
<path fill-rule="evenodd" clip-rule="evenodd" d="M163.271 253.837C163.271 255.337 162.795 256.712 161.851 257.977L109.89 227.977C110.834 226.712 111.31 225.337 111.31 223.837L163.271 253.837Z" fill="#8BC5E4"/>
<path fill-rule="evenodd" clip-rule="evenodd" d="M161.852 257.977C160.908 259.242 159.851 260.212 158.665 260.897L106.703 230.897C107.89 230.212 108.946 229.242 109.89 227.977L161.852 257.977Z" fill="#8BC5E4"/>
<path fill-rule="evenodd" clip-rule="evenodd" d="M158.664 260.897C158.561 260.957 158.405 261.037 158.223 261.112L106.261 231.112C106.443 231.037 106.599 230.957 106.703 230.897L158.664 260.897Z" fill="#8BC5E4"/>
<path fill-rule="evenodd" clip-rule="evenodd" d="M157.911 264.132C158.69 263.442 159.348 262.942 159.868 262.642L107.906 232.642C107.387 232.942 106.729 233.442 105.949 234.132L157.911 264.132Z" fill="#8BC5E4"/>
<path fill-rule="evenodd" clip-rule="evenodd" d="M159.868 262.642C161.03 261.971 162.007 261.81 162.799 262.15L110.837 232.15C110.045 231.81 109.068 231.971 107.907 232.642L159.868 262.642Z" fill="#8BC5E4"/>
<path fill-rule="evenodd" clip-rule="evenodd" d="M162.794 262.148C162.876 262.183 162.956 262.223 163.034 262.269L111.072 232.269C110.994 232.223 110.914 232.183 110.832 232.148L162.794 262.148Z" fill="#8BC5E4"/>
<path fill-rule="evenodd" clip-rule="evenodd" d="M163.038 262.272C163.115 262.316 163.19 262.365 163.26 262.418L111.299 232.418C111.229 232.365 111.154 232.316 111.076 232.272L163.038 262.272Z" fill="#8BC5E4"/>
<path fill-rule="evenodd" clip-rule="evenodd" d="M163.26 262.417C163.941 262.929 164.283 263.857 164.284 265.203L112.323 235.203C112.322 233.857 111.98 232.929 111.299 232.417L163.26 262.417Z" fill="#8BC5E4"/>
<path fill-rule="evenodd" clip-rule="evenodd" d="M164.285 265.212C164.285 266.772 163.835 268.332 162.934 269.902L110.973 239.902C111.873 238.332 112.324 236.772 112.324 235.212L164.285 265.212Z" fill="#8BC5E4"/>
<path fill-rule="evenodd" clip-rule="evenodd" d="M162.934 269.902C162.042 271.467 160.942 272.632 159.643 273.382L107.682 243.382C108.981 242.632 110.081 241.467 110.973 239.902L162.934 269.902Z" fill="#8BC5E4"/>
<path fill-rule="evenodd" clip-rule="evenodd" d="M159.643 273.382C158.543 274.017 157.608 274.157 156.837 273.802L104.875 243.802C105.646 244.157 106.581 244.017 107.681 243.382L159.643 273.382Z" fill="#8BC5E4"/>
<path fill-rule="evenodd" clip-rule="evenodd" d="M156.837 273.802C156.754 273.761 156.674 273.712 156.597 273.656L104.636 243.656C104.713 243.712 104.793 243.761 104.875 243.802L156.837 273.802Z" fill="#8BC5E4"/>
<path fill-rule="evenodd" clip-rule="evenodd" d="M156.598 273.656C155.97 273.199 155.507 272.236 155.229 270.772L103.267 240.772C103.545 242.236 104.008 243.199 104.636 243.656L156.598 273.656Z" fill="#8BC5E4"/>
<path fill-rule="evenodd" clip-rule="evenodd" d="M152.455 272.792C152.621 274.69 153.253 275.987 154.345 276.672L102.383 246.672C101.291 245.987 100.659 244.69 100.494 242.792L152.455 272.792Z" fill="#8BC5E4"/>
<path fill-rule="evenodd" clip-rule="evenodd" d="M154.337 276.668C154.445 276.735 154.557 276.797 154.673 276.853L102.712 246.853C102.596 246.797 102.484 246.735 102.376 246.668L154.337 276.668Z" fill="#8BC5E4"/>
<path fill-rule="evenodd" clip-rule="evenodd" d="M154.681 276.857C155.997 277.477 157.643 277.217 159.626 276.072L107.664 246.072C105.681 247.217 104.036 247.477 102.719 246.857L154.681 276.857Z" fill="#8BC5E4"/>
<path fill-rule="evenodd" clip-rule="evenodd" d="M159.626 276.072C161.817 274.807 163.635 272.957 165.073 270.537L113.111 240.537C111.674 242.957 109.855 244.807 107.664 246.072L159.626 276.072Z" fill="#8BC5E4"/>
<path fill-rule="evenodd" clip-rule="evenodd" d="M165.073 270.537C166.502 268.112 167.221 265.747 167.221 263.447L115.259 233.447C115.259 235.747 114.54 238.112 113.111 240.537L165.073 270.537Z" fill="#8BC5E4"/>
<path fill-rule="evenodd" clip-rule="evenodd" d="M167.221 263.447C167.221 261.747 166.857 260.547 166.121 259.842L114.16 229.842C114.896 230.547 115.259 231.747 115.259 233.447L167.221 263.447Z" fill="#8BC5E4"/>
<path fill-rule="evenodd" clip-rule="evenodd" d="M166.121 259.842C165.99 259.717 165.85 259.61 165.701 259.519L113.74 229.519C113.889 229.61 114.029 229.717 114.159 229.842L166.121 259.842Z" fill="#8BC5E4"/>
<path fill-rule="evenodd" clip-rule="evenodd" d="M165.703 259.52C165.007 259.096 164.116 259.051 163.02 259.395L111.058 229.395C112.154 229.051 113.045 229.096 113.741 229.52L165.703 259.52Z" fill="#8BC5E4"/>
<path fill-rule="evenodd" clip-rule="evenodd" d="M163.012 259.397C164.034 258.247 164.804 257.062 165.333 255.827L113.371 225.827C112.843 227.062 112.072 228.247 111.05 229.397L163.012 259.397Z" fill="#8BC5E4"/>
<path fill-rule="evenodd" clip-rule="evenodd" d="M165.333 255.827C165.852 254.597 166.121 253.402 166.121 252.262L114.159 222.262C114.159 223.402 113.891 224.597 113.371 225.827L165.333 255.827Z" fill="#8BC5E4"/>
<path fill-rule="evenodd" clip-rule="evenodd" d="M166.121 252.262C166.121 251.072 165.835 250.107 165.29 249.352L113.328 219.352C113.874 220.107 114.16 221.072 114.16 222.262L166.121 252.262Z" fill="#8BC5E4"/>
<path fill-rule="evenodd" clip-rule="evenodd" d="M165.29 249.352C165.063 249.044 164.796 248.797 164.486 248.613L112.525 218.613C112.835 218.797 113.102 219.044 113.328 219.352L165.29 249.352Z" fill="#8BC5E4"/>
<path fill-rule="evenodd" clip-rule="evenodd" d="M164.488 248.614C164.051 248.354 163.529 248.219 162.922 248.212L110.961 218.212C111.568 218.219 112.09 218.354 112.527 218.614L164.488 248.614Z" fill="#8BC5E4"/>
<path fill-rule="evenodd" clip-rule="evenodd" d="M162.917 248.212C161.877 248.192 160.743 248.527 159.513 249.237L107.552 219.237C108.781 218.527 109.916 218.192 110.955 218.212L162.917 248.212Z" fill="#8BC5E4"/>
<path fill-rule="evenodd" clip-rule="evenodd" d="M177.475 238.867C175.327 240.107 173.621 241.742 172.348 243.787L120.386 213.787C121.659 211.742 123.365 210.107 125.513 208.867L177.475 238.867Z" fill="#8BC5E4"/>
<path fill-rule="evenodd" clip-rule="evenodd" d="M172.348 243.787C171.075 245.812 170.347 248.122 170.148 250.707L118.187 220.707C118.386 218.122 119.113 215.812 120.386 213.787L172.348 243.787Z" fill="#8BC5E4"/>
<path fill-rule="evenodd" clip-rule="evenodd" d="M172.997 249.412C173.006 247.747 173.413 246.222 174.21 244.832L122.248 214.832C121.451 216.222 121.044 217.747 121.036 219.412L172.997 249.412Z" fill="#8BC5E4"/>
<path fill-rule="evenodd" clip-rule="evenodd" d="M174.21 244.832C175.015 243.427 176.08 242.352 177.414 241.582L125.452 211.582C124.119 212.352 123.053 213.427 122.248 214.832L174.21 244.832Z" fill="#8BC5E4"/>
<path fill-rule="evenodd" clip-rule="evenodd" d="M177.414 241.582C178.551 240.925 179.497 240.74 180.245 241.039L128.284 211.039C127.536 210.74 126.59 210.925 125.452 211.582L177.414 241.582Z" fill="#8BC5E4"/>
<path fill-rule="evenodd" clip-rule="evenodd" d="M180.241 241.037C180.318 241.067 180.393 241.103 180.466 241.144L128.505 211.144C128.432 211.103 128.357 211.067 128.28 211.037L180.241 241.037Z" fill="#8BC5E4"/>
<path fill-rule="evenodd" clip-rule="evenodd" d="M180.471 241.147C180.538 241.183 180.603 241.222 180.665 241.264L128.704 211.264C128.642 211.222 128.577 211.183 128.509 211.147L180.471 241.147Z" fill="#8BC5E4"/>
<path fill-rule="evenodd" clip-rule="evenodd" d="M180.681 241.275C181.328 241.724 181.655 242.529 181.657 243.685L129.696 213.685C129.694 212.529 129.367 211.724 128.72 211.275L180.681 241.275Z" fill="#8BC5E4"/>
<path fill-rule="evenodd" clip-rule="evenodd" d="M181.658 243.692C181.658 244.912 181.225 246.462 180.367 248.327L128.406 218.327C129.263 216.462 129.696 214.912 129.696 213.692L181.658 243.692Z" fill="#8BC5E4"/>
<path fill-rule="evenodd" clip-rule="evenodd" d="M180.367 248.327C179.501 250.197 177.847 253.002 175.396 256.767L123.435 226.767C125.885 223.002 127.539 220.197 128.406 218.327L180.367 248.327Z" fill="#8BC5E4"/>
<path fill-rule="evenodd" clip-rule="evenodd" d="M175.396 256.767C173.82 259.187 172.607 261.217 171.767 262.852L119.806 232.852C120.646 231.217 121.858 229.187 123.434 226.767L175.396 256.767Z" fill="#8BC5E4"/>
<path fill-rule="evenodd" clip-rule="evenodd" d="M171.768 262.852C170.936 264.482 170.33 265.992 169.949 267.402L117.987 237.402C118.368 235.992 118.975 234.482 119.806 232.852L171.768 262.852Z" fill="#8BC5E4"/>
<path fill-rule="evenodd" clip-rule="evenodd" d="M169.949 267.402C169.715 268.257 169.602 269.062 169.628 269.827L117.667 239.827C117.641 239.062 117.753 238.257 117.987 237.402L169.949 267.402Z" fill="#8BC5E4"/>
<path fill-rule="evenodd" clip-rule="evenodd" d="M173.473 264.497C173.776 263.742 174.166 262.937 174.642 262.082L122.681 232.082C122.205 232.937 121.815 233.742 121.512 234.497L173.473 264.497Z" fill="#8BC5E4"/>
<path fill-rule="evenodd" clip-rule="evenodd" d="M174.643 262.082C175.11 261.232 176.176 259.507 177.847 256.912L125.885 226.912C124.214 229.507 123.149 231.232 122.681 232.082L174.643 262.082Z" fill="#8BC5E4"/>
<path fill-rule="evenodd" clip-rule="evenodd" d="M177.847 256.912C179.83 253.807 181.25 251.437 182.108 249.822L130.146 219.822C129.289 221.437 127.868 223.807 125.885 226.912L177.847 256.912Z" fill="#8BC5E4"/>
<path fill-rule="evenodd" clip-rule="evenodd" d="M182.107 249.822C182.965 248.197 183.58 246.772 183.952 245.547L131.991 215.547C131.618 216.772 131.003 218.197 130.146 219.822L182.107 249.822Z" fill="#8BC5E4"/>
<path fill-rule="evenodd" clip-rule="evenodd" d="M183.952 245.547C184.316 244.317 184.507 243.167 184.507 242.117L132.545 212.117C132.545 213.167 132.354 214.317 131.991 215.547L183.952 245.547Z" fill="#8BC5E4"/>
<path fill-rule="evenodd" clip-rule="evenodd" d="M184.507 242.117C184.507 240.233 183.983 238.925 182.936 238.207L130.974 208.207C132.021 208.925 132.545 210.233 132.545 212.117L184.507 242.117Z" fill="#8BC5E4"/>
<path fill-rule="evenodd" clip-rule="evenodd" d="M182.941 238.211C182.838 238.141 182.73 238.075 182.617 238.016L130.656 208.016C130.769 208.075 130.877 208.141 130.98 208.211L182.941 238.211Z" fill="#8BC5E4"/>
<path fill-rule="evenodd" clip-rule="evenodd" d="M182.61 238.012C181.354 237.327 179.639 237.617 177.474 238.867L125.513 208.867C127.678 207.617 129.392 207.327 130.648 208.012L182.61 238.012Z" fill="#8BC5E4"/>
<path fill-rule="evenodd" clip-rule="evenodd" d="M194.596 228.982C192.812 230.012 191.322 231.472 190.118 233.367L138.157 203.367C139.361 201.472 140.85 200.012 142.634 198.982L194.596 228.982Z" fill="#8BC5E4"/>
<path fill-rule="evenodd" clip-rule="evenodd" d="M190.119 233.367C188.924 235.237 188.153 237.362 187.815 239.727L135.854 209.727C136.191 207.362 136.962 205.237 138.157 203.367L190.119 233.367Z" fill="#8BC5E4"/>
<path fill-rule="evenodd" clip-rule="evenodd" d="M190.586 238.697C190.785 237.002 191.253 235.552 191.972 234.347L140.01 204.347C139.291 205.552 138.824 207.002 138.625 208.697L190.586 238.697Z" fill="#8BC5E4"/>
<path fill-rule="evenodd" clip-rule="evenodd" d="M191.972 234.347C192.682 233.147 193.583 232.227 194.656 231.607L142.695 201.607C141.621 202.227 140.72 203.147 140.01 204.347L191.972 234.347Z" fill="#8BC5E4"/>
<path fill-rule="evenodd" clip-rule="evenodd" d="M194.656 231.607C195.645 231.036 196.47 230.88 197.125 231.142L145.164 201.142C144.509 200.88 143.684 201.036 142.695 201.607L194.656 231.607Z" fill="#8BC5E4"/>
<path fill-rule="evenodd" clip-rule="evenodd" d="M197.117 231.139C197.185 231.166 197.251 231.197 197.315 231.233L145.354 201.233C145.29 201.197 145.224 201.166 145.156 201.139L197.117 231.139Z" fill="#8BC5E4"/>
<path fill-rule="evenodd" clip-rule="evenodd" d="M197.324 231.237C197.389 231.273 197.45 231.313 197.508 231.356L145.546 201.356C145.488 201.313 145.427 201.273 145.362 201.237L197.324 231.237Z" fill="#8BC5E4"/>
<path fill-rule="evenodd" clip-rule="evenodd" d="M197.507 231.355C198.068 231.77 198.353 232.509 198.354 233.575L146.393 203.575C146.392 202.509 146.107 201.77 145.546 201.355L197.507 231.355Z" fill="#8BC5E4"/>
<path fill-rule="evenodd" clip-rule="evenodd" d="M198.354 233.582C198.354 235.082 197.878 236.457 196.934 237.722L144.973 207.722C145.917 206.457 146.393 205.082 146.393 203.582L198.354 233.582Z" fill="#8BC5E4"/>
<path fill-rule="evenodd" clip-rule="evenodd" d="M196.934 237.722C195.999 238.982 194.934 239.957 193.756 240.637L141.794 210.637C142.972 209.957 144.037 208.982 144.973 207.722L196.934 237.722Z" fill="#8BC5E4"/>
<path fill-rule="evenodd" clip-rule="evenodd" d="M193.756 240.637C193.634 240.707 193.496 240.777 193.305 240.857L141.344 210.857C141.534 210.777 141.673 210.707 141.794 210.637L193.756 240.637Z" fill="#8BC5E4"/>
<path fill-rule="evenodd" clip-rule="evenodd" d="M193.003 243.872C193.782 243.182 194.431 242.687 194.951 242.387L142.99 212.387C142.47 212.687 141.82 213.182 141.041 213.872L193.003 243.872Z" fill="#8BC5E4"/>
<path fill-rule="evenodd" clip-rule="evenodd" d="M194.951 242.387C196.112 241.716 197.089 241.555 197.88 241.895L145.919 211.895C145.128 211.555 144.151 211.716 142.989 212.387L194.951 242.387Z" fill="#8BC5E4"/>
<path fill-rule="evenodd" clip-rule="evenodd" d="M197.877 241.893C197.958 241.928 198.038 241.968 198.116 242.014L146.154 212.014C146.076 211.968 145.996 211.928 145.915 211.893L197.877 241.893Z" fill="#8BC5E4"/>
<path fill-rule="evenodd" clip-rule="evenodd" d="M198.121 242.017C198.199 242.061 198.273 242.11 198.344 242.163L146.382 212.163C146.311 212.11 146.237 212.061 146.159 212.017L198.121 242.017Z" fill="#8BC5E4"/>
<path fill-rule="evenodd" clip-rule="evenodd" d="M198.343 242.162C199.024 242.674 199.366 243.602 199.367 244.948L147.406 214.948C147.405 213.602 147.063 212.674 146.382 212.162L198.343 242.162Z" fill="#8BC5E4"/>
<path fill-rule="evenodd" clip-rule="evenodd" d="M199.368 244.957C199.368 246.517 198.917 248.077 198.017 249.647L146.055 219.647C146.956 218.077 147.406 216.517 147.406 214.957L199.368 244.957Z" fill="#8BC5E4"/>
<path fill-rule="evenodd" clip-rule="evenodd" d="M198.016 249.647C197.124 251.212 196.025 252.377 194.717 253.132L142.755 223.132C144.063 222.377 145.163 221.212 146.055 219.647L198.016 249.647Z" fill="#8BC5E4"/>
<path fill-rule="evenodd" clip-rule="evenodd" d="M194.717 253.132C193.626 253.762 192.69 253.902 191.92 253.547L139.958 223.547C140.729 223.902 141.664 223.762 142.755 223.132L194.717 253.132Z" fill="#8BC5E4"/>
<path fill-rule="evenodd" clip-rule="evenodd" d="M191.92 253.547C191.836 253.507 191.755 253.458 191.677 253.402L139.716 223.402C139.794 223.458 139.875 223.507 139.958 223.547L191.92 253.547Z" fill="#8BC5E4"/>
<path fill-rule="evenodd" clip-rule="evenodd" d="M191.679 253.403C191.045 252.948 190.589 251.981 190.311 250.517L138.349 220.517C138.627 221.981 139.083 222.948 139.717 223.403L191.679 253.403Z" fill="#8BC5E4"/>
<path fill-rule="evenodd" clip-rule="evenodd" d="M187.538 252.537C187.703 254.435 188.335 255.732 189.426 256.417L137.465 226.417C136.374 225.732 135.742 224.435 135.576 222.537L187.538 252.537Z" fill="#8BC5E4"/>
<path fill-rule="evenodd" clip-rule="evenodd" d="M189.42 256.413C189.527 256.48 189.639 256.542 189.755 256.598L137.794 226.598C137.678 226.542 137.566 226.48 137.459 226.413L189.42 256.413Z" fill="#8BC5E4"/>
<path fill-rule="evenodd" clip-rule="evenodd" d="M189.763 256.602C191.08 257.222 192.725 256.962 194.708 255.817L142.747 225.817C140.764 226.962 139.118 227.222 137.802 226.602L189.763 256.602Z" fill="#8BC5E4"/>
<path fill-rule="evenodd" clip-rule="evenodd" d="M194.708 255.817C196.899 254.552 198.718 252.702 200.155 250.282L148.194 220.282C146.756 222.702 144.938 224.552 142.747 225.817L194.708 255.817Z" fill="#8BC5E4"/>
<path fill-rule="evenodd" clip-rule="evenodd" d="M200.156 250.282C201.594 247.852 202.312 245.487 202.312 243.187L150.351 213.187C150.351 215.487 149.632 217.852 148.194 220.282L200.156 250.282Z" fill="#8BC5E4"/>
<path fill-rule="evenodd" clip-rule="evenodd" d="M202.312 243.187C202.312 241.487 201.94 240.292 201.204 239.587L149.242 209.587C149.978 210.292 150.351 211.487 150.351 213.187L202.312 243.187Z" fill="#8BC5E4"/>
<path fill-rule="evenodd" clip-rule="evenodd" d="M201.203 239.587C201.072 239.462 200.932 239.355 200.784 239.264L148.823 209.264C148.971 209.355 149.111 209.462 149.242 209.587L201.203 239.587Z" fill="#8BC5E4"/>
<path fill-rule="evenodd" clip-rule="evenodd" d="M200.786 239.265C200.09 238.841 199.199 238.796 198.103 239.14L146.141 209.14C147.237 208.796 148.128 208.841 148.824 209.265L200.786 239.265Z" fill="#8BC5E4"/>
<path fill-rule="evenodd" clip-rule="evenodd" d="M198.094 239.142C199.116 237.992 199.896 236.802 200.415 235.572L148.454 205.572C147.934 206.802 147.155 207.992 146.133 209.142L198.094 239.142Z" fill="#8BC5E4"/>
<path fill-rule="evenodd" clip-rule="evenodd" d="M200.416 235.572C200.935 234.342 201.204 233.147 201.204 232.007L149.242 202.007C149.242 203.147 148.974 204.342 148.454 205.572L200.416 235.572Z" fill="#8BC5E4"/>
<path fill-rule="evenodd" clip-rule="evenodd" d="M201.204 232.007C201.204 230.817 200.926 229.847 200.372 229.097L148.411 199.097C148.965 199.847 149.242 200.817 149.242 202.007L201.204 232.007Z" fill="#8BC5E4"/>
<path fill-rule="evenodd" clip-rule="evenodd" d="M200.372 229.097C200.146 228.789 199.878 228.542 199.569 228.358L147.608 198.358C147.917 198.542 148.185 198.789 148.411 199.097L200.372 229.097Z" fill="#8BC5E4"/>
<path fill-rule="evenodd" clip-rule="evenodd" d="M199.57 228.359C199.133 228.099 198.612 227.964 198.005 227.957L146.044 197.957C146.651 197.964 147.172 198.099 147.609 198.359L199.57 228.359Z" fill="#8BC5E4"/>
<path fill-rule="evenodd" clip-rule="evenodd" d="M197.999 227.957C196.96 227.937 195.825 228.272 194.596 228.982L142.634 198.982C143.864 198.272 144.998 197.937 146.038 197.957L197.999 227.957Z" fill="#8BC5E4"/>
<path fill-rule="evenodd" clip-rule="evenodd" d="M62.4231 147.322C56.6727 150.642 51.9615 158.852 51.9615 165.572L0 135.572C0 128.852 4.7112 120.642 10.4616 117.322L62.4231 147.322Z" fill="#8BC5E4"/>
<path fill-rule="evenodd" clip-rule="evenodd" d="M51.9615 341.142C51.9615 344.64 53.2375 347.07 55.2725 348.128L3.311 318.128C1.276 317.07 0 314.64 0 311.142L51.9615 341.142Z" fill="#8BC5E4"/>
<path fill-rule="evenodd" clip-rule="evenodd" d="M55.2813 348.133C57.1533 349.102 59.6643 348.912 62.4143 347.327L10.4528 317.327C7.70282 318.912 5.19182 319.102 3.31982 318.133L55.2813 348.133Z" fill="#8BC5E4"/>
<path fill-rule="evenodd" clip-rule="evenodd" d="M263.194 231.407C268.953 228.082 273.664 219.862 273.664 213.142L221.702 183.142C221.702 189.862 216.991 198.082 211.232 201.407L263.194 231.407Z" fill="#8BC5E4"/>
<path fill-rule="evenodd" clip-rule="evenodd" d="M273.664 37.5725C273.664 34.0685 272.382 31.6375 270.339 30.5865L218.378 0.586487C220.421 1.63749 221.703 4.06849 221.702 7.57249L273.664 37.5725Z" fill="#8BC5E4"/>
<path fill-rule="evenodd" clip-rule="evenodd" d="M270.343 30.5875C268.47 29.6215 265.956 29.8155 263.202 31.4025L211.241 1.40249C213.995 -0.184512 216.509 -0.378512 218.382 0.587488L270.343 30.5875Z" fill="#8BC5E4"/>
<path fill-rule="evenodd" clip-rule="evenodd" d="M263.194 36.9275C264.735 36.0375 266.116 35.9115 267.137 36.4335L215.176 6.43348C214.155 5.91148 212.774 6.03748 211.232 6.92748L263.194 36.9275Z" fill="#8BC5E4"/>
<path fill-rule="evenodd" clip-rule="evenodd" d="M267.135 36.4325C268.248 37.0005 268.934 38.3385 268.935 40.2965L216.974 10.2965C216.973 8.3385 216.287 7.0005 215.174 6.4325L267.135 36.4325Z" fill="#8BC5E4"/>
<path fill-rule="evenodd" clip-rule="evenodd" d="M268.935 215.872C268.935 219.632 266.415 224.027 263.194 225.887L211.232 195.887C214.454 194.027 216.974 189.632 216.974 185.872L268.935 215.872Z" fill="#8BC5E4"/>
<path fill-rule="evenodd" clip-rule="evenodd" d="M62.4228 341.802C60.8792 342.693 59.4952 342.813 58.4742 342.281L6.5127 312.281C7.5337 312.813 8.9177 312.693 10.4613 311.802L62.4228 341.802Z" fill="#8BC5E4"/>
<path fill-rule="evenodd" clip-rule="evenodd" d="M58.4755 342.281C57.3715 341.706 56.6915 340.369 56.6905 338.418L4.729 308.418C4.73 310.369 5.41 311.706 6.514 312.281L58.4755 342.281Z" fill="#8BC5E4"/>
<path fill-rule="evenodd" clip-rule="evenodd" d="M56.69 162.842C56.69 159.082 59.2101 154.697 62.4231 152.842L10.4616 122.842C7.24862 124.697 4.72852 129.082 4.72852 132.842L56.69 162.842Z" fill="#8BC5E4"/>
<path fill-rule="evenodd" clip-rule="evenodd" d="M263.194 36.9275C264.735 36.0375 266.116 35.9115 267.137 36.4335L215.176 6.43348C214.155 5.91148 212.774 6.03748 211.232 6.92748L263.194 36.9275Z" fill="#8BC5E4"/>
<path fill-rule="evenodd" clip-rule="evenodd" d="M267.135 36.4325C268.248 37.0005 268.934 38.3385 268.935 40.2965L216.974 10.2965C216.973 8.3385 216.287 7.0005 215.174 6.4325L267.135 36.4325Z" fill="#8BC5E4"/>
<path fill-rule="evenodd" clip-rule="evenodd" d="M268.935 215.872C268.935 219.632 266.415 224.027 263.194 225.887L211.232 195.887C214.454 194.027 216.974 189.632 216.974 185.872L268.935 215.872Z" fill="#8BC5E4"/>
<path fill-rule="evenodd" clip-rule="evenodd" d="M62.4228 341.802C60.8792 342.693 59.4952 342.813 58.4742 342.281L6.5127 312.281C7.5337 312.813 8.9177 312.693 10.4613 311.802L62.4228 341.802Z" fill="#8BC5E4"/>
<path fill-rule="evenodd" clip-rule="evenodd" d="M58.4755 342.281C57.3715 341.706 56.6915 340.369 56.6905 338.418L4.729 308.418C4.73 310.369 5.41 311.706 6.514 312.281L58.4755 342.281Z" fill="#8BC5E4"/>
<path fill-rule="evenodd" clip-rule="evenodd" d="M56.69 162.842C56.69 159.082 59.2101 154.697 62.4231 152.842L10.4616 122.842C7.24862 124.697 4.72852 129.082 4.72852 132.842L56.69 162.842Z" fill="#8BC5E4"/>
<path fill-rule="evenodd" clip-rule="evenodd" d="M155.46 118.347C155.46 113.477 158.838 107.587 163.003 105.182L111.042 75.1825C106.876 77.5875 103.499 83.4775 103.499 88.3475L155.46 118.347Z" fill="#8BC5E4"/>
<path fill-rule="evenodd" clip-rule="evenodd" d="M163.003 105.182C164.824 104.131 166.58 103.887 167.945 104.481L115.984 74.4815C114.619 73.8875 112.863 74.1315 111.042 75.1825L163.003 105.182Z" fill="#8BC5E4"/>
<path fill-rule="evenodd" clip-rule="evenodd" d="M167.938 104.478C168.072 104.536 168.203 104.603 168.33 104.677L116.368 74.6775C116.241 74.6035 116.11 74.5365 115.976 74.4785L167.938 104.478Z" fill="#8BC5E4"/>
<path fill-rule="evenodd" clip-rule="evenodd" d="M168.338 104.682C168.471 104.76 168.598 104.846 168.72 104.94L116.759 74.9405C116.637 74.8465 116.51 74.7605 116.376 74.6825L168.338 104.682Z" fill="#8BC5E4"/>
<path fill-rule="evenodd" clip-rule="evenodd" d="M168.72 104.94C169.898 105.849 170.553 107.508 170.555 109.625L118.594 79.6255C118.592 77.5085 117.937 75.8495 116.759 74.9405L168.72 104.94Z" fill="#8BC5E4"/>
<path fill-rule="evenodd" clip-rule="evenodd" d="M170.555 109.632C170.555 114.492 167.177 120.382 163.003 122.792L111.042 92.7925C115.216 90.3825 118.593 84.4925 118.593 79.6325L170.555 109.632Z" fill="#8BC5E4"/>
<path fill-rule="evenodd" clip-rule="evenodd" d="M163.003 122.792C161.009 123.943 159.197 124.087 157.848 123.393L105.887 93.3935C107.236 94.0875 109.048 93.9435 111.042 92.7925L163.003 122.792Z" fill="#8BC5E4"/>
<path fill-rule="evenodd" clip-rule="evenodd" d="M157.851 123.394C156.381 122.638 155.463 120.886 155.461 118.354L103.499 88.3545C103.501 90.8865 104.419 92.6385 105.889 93.3945L157.851 123.394Z" fill="#8BC5E4"/>
<path fill-rule="evenodd" clip-rule="evenodd" d="M155.036 253.622C156.24 251.727 157.729 250.267 159.513 249.237L107.552 219.237C105.768 220.267 104.278 221.727 103.074 223.622L155.036 253.622Z" fill="#8BC5E4"/>
<path fill-rule="evenodd" clip-rule="evenodd" d="M159.513 249.237C160.743 248.527 161.877 248.192 162.917 248.212L110.955 218.212C109.916 218.192 108.781 218.527 107.552 219.237L159.513 249.237Z" fill="#8BC5E4"/>
<path fill-rule="evenodd" clip-rule="evenodd" d="M162.917 248.212C163.525 248.218 164.048 248.352 164.486 248.613L112.525 218.613C112.087 218.352 111.564 218.218 110.955 218.212L162.917 248.212Z" fill="#8BC5E4"/>
<path fill-rule="evenodd" clip-rule="evenodd" d="M164.483 248.611C164.793 248.794 165.06 249.04 165.286 249.348L113.325 219.348C113.099 219.04 112.832 218.794 112.522 218.611L164.483 248.611Z" fill="#8BC5E4"/>
<path fill-rule="evenodd" clip-rule="evenodd" d="M165.29 249.352C165.835 250.107 166.121 251.072 166.121 252.262L114.16 222.262C114.16 221.072 113.874 220.107 113.328 219.352L165.29 249.352Z" fill="#8BC5E4"/>
<path fill-rule="evenodd" clip-rule="evenodd" d="M166.121 252.262C166.121 253.402 165.852 254.597 165.333 255.827L113.371 225.827C113.891 224.597 114.159 223.402 114.159 222.262L166.121 252.262Z" fill="#8BC5E4"/>
<path fill-rule="evenodd" clip-rule="evenodd" d="M165.333 255.827C164.804 257.062 164.034 258.247 163.012 259.397L111.05 229.397C112.072 228.247 112.843 227.062 113.371 225.827L165.333 255.827Z" fill="#8BC5E4"/>
<path fill-rule="evenodd" clip-rule="evenodd" d="M163.012 259.397C164.111 259.051 165.004 259.095 165.701 259.519L113.74 229.519C113.043 229.095 112.15 229.051 111.05 229.397L163.012 259.397Z" fill="#8BC5E4"/>
<path fill-rule="evenodd" clip-rule="evenodd" d="M165.708 259.523C165.853 259.611 165.989 259.716 166.117 259.838L114.155 229.838C114.027 229.716 113.891 229.611 113.746 229.523L165.708 259.523Z" fill="#8BC5E4"/>
<path fill-rule="evenodd" clip-rule="evenodd" d="M166.121 259.842C166.857 260.547 167.221 261.747 167.221 263.447L115.259 233.447C115.259 231.747 114.896 230.547 114.16 229.842L166.121 259.842Z" fill="#8BC5E4"/>
<path fill-rule="evenodd" clip-rule="evenodd" d="M167.221 263.447C167.221 265.747 166.502 268.112 165.073 270.537L113.111 240.537C114.54 238.112 115.259 235.747 115.259 233.447L167.221 263.447Z" fill="#8BC5E4"/>
<path fill-rule="evenodd" clip-rule="evenodd" d="M165.073 270.537C163.635 272.957 161.817 274.807 159.626 276.072L107.664 246.072C109.855 244.807 111.674 242.957 113.111 240.537L165.073 270.537Z" fill="#8BC5E4"/>
<path fill-rule="evenodd" clip-rule="evenodd" d="M159.626 276.072C157.643 277.217 155.997 277.477 154.681 276.857L102.719 246.857C104.036 247.477 105.681 247.217 107.664 246.072L159.626 276.072Z" fill="#8BC5E4"/>
<path fill-rule="evenodd" clip-rule="evenodd" d="M154.681 276.857C154.564 276.801 154.451 276.74 154.344 276.672L102.383 246.672C102.49 246.74 102.603 246.801 102.719 246.857L154.681 276.857Z" fill="#8BC5E4"/>
<path fill-rule="evenodd" clip-rule="evenodd" d="M154.345 276.672C153.255 275.988 152.623 274.693 152.456 272.798L100.494 242.798C100.661 244.693 101.293 245.988 102.383 246.672L154.345 276.672Z" fill="#8BC5E4"/>
<path fill-rule="evenodd" clip-rule="evenodd" d="M155.226 270.762C155.504 272.232 155.967 273.197 156.597 273.656L104.636 243.656C104.006 243.197 103.543 242.232 103.265 240.762L155.226 270.762Z" fill="#8BC5E4"/>
<path fill-rule="evenodd" clip-rule="evenodd" d="M156.59 273.651C156.667 273.708 156.746 273.757 156.828 273.798L104.867 243.798C104.785 243.757 104.706 243.708 104.629 243.651L156.59 273.651Z" fill="#8BC5E4"/>
<path fill-rule="evenodd" clip-rule="evenodd" d="M156.837 273.802C157.608 274.157 158.543 274.017 159.643 273.382L107.681 243.382C106.581 244.017 105.646 244.157 104.875 243.802L156.837 273.802Z" fill="#8BC5E4"/>
<path fill-rule="evenodd" clip-rule="evenodd" d="M159.643 273.382C160.942 272.632 162.042 271.467 162.934 269.902L110.973 239.902C110.081 241.467 108.981 242.632 107.682 243.382L159.643 273.382Z" fill="#8BC5E4"/>
<path fill-rule="evenodd" clip-rule="evenodd" d="M162.934 269.902C163.835 268.332 164.285 266.772 164.285 265.212L112.324 235.212C112.324 236.772 111.873 238.332 110.973 239.902L162.934 269.902Z" fill="#8BC5E4"/>
<path fill-rule="evenodd" clip-rule="evenodd" d="M164.285 265.212C164.284 263.862 163.943 262.93 163.26 262.418L111.299 232.418C111.982 232.93 112.323 233.862 112.323 235.212L164.285 265.212Z" fill="#8BC5E4"/>
<path fill-rule="evenodd" clip-rule="evenodd" d="M163.265 262.421C163.195 262.368 163.121 262.319 163.043 262.275L111.081 232.275C111.159 232.319 111.233 232.368 111.303 232.421L163.265 262.421Z" fill="#8BC5E4"/>
<path fill-rule="evenodd" clip-rule="evenodd" d="M163.038 262.272C162.959 262.226 162.88 262.185 162.798 262.15L110.837 232.15C110.919 232.185 110.998 232.226 111.076 232.272L163.038 262.272Z" fill="#8BC5E4"/>
<path fill-rule="evenodd" clip-rule="evenodd" d="M162.799 262.151C162.009 261.811 161.035 261.971 159.876 262.638L107.914 232.638C109.073 231.971 110.047 231.811 110.837 232.151L162.799 262.151Z" fill="#8BC5E4"/>
<path fill-rule="evenodd" clip-rule="evenodd" d="M159.868 262.642C159.348 262.942 158.69 263.442 157.911 264.132L105.949 234.132C106.729 233.442 107.387 232.942 107.906 232.642L159.868 262.642Z" fill="#8BC5E4"/>
<path fill-rule="evenodd" clip-rule="evenodd" d="M158.223 261.112C158.405 261.037 158.561 260.957 158.664 260.897L106.703 230.897C106.599 230.957 106.443 231.037 106.261 231.112L158.223 261.112Z" fill="#8BC5E4"/>
<path fill-rule="evenodd" clip-rule="evenodd" d="M158.665 260.897C159.851 260.212 160.908 259.242 161.852 257.977L109.89 227.977C108.946 229.242 107.89 230.212 106.703 230.897L158.665 260.897Z" fill="#8BC5E4"/>
<path fill-rule="evenodd" clip-rule="evenodd" d="M161.851 257.977C162.795 256.712 163.271 255.337 163.271 253.837L111.31 223.837C111.31 225.337 110.834 226.712 109.89 227.977L161.851 257.977Z" fill="#8BC5E4"/>
<path fill-rule="evenodd" clip-rule="evenodd" d="M163.272 253.837C163.271 252.768 162.987 252.027 162.424 251.611L110.463 221.611C111.026 222.027 111.31 222.768 111.31 223.837L163.272 253.837Z" fill="#8BC5E4"/>
<path fill-rule="evenodd" clip-rule="evenodd" d="M162.418 251.605C162.364 251.566 162.308 251.53 162.25 251.497L110.288 221.497C110.346 221.53 110.402 221.566 110.456 221.605L162.418 251.605Z" fill="#8BC5E4"/>
<path fill-rule="evenodd" clip-rule="evenodd" d="M162.241 251.492C162.177 251.456 162.11 251.425 162.042 251.398L110.08 221.398C110.148 221.425 110.215 221.456 110.28 221.492L162.241 251.492Z" fill="#8BC5E4"/>
<path fill-rule="evenodd" clip-rule="evenodd" d="M162.041 251.399C161.382 251.14 160.567 251.29 159.588 251.853L107.627 221.853C108.606 221.29 109.421 221.14 110.08 221.399L162.041 251.399Z" fill="#8BC5E4"/>
<path fill-rule="evenodd" clip-rule="evenodd" d="M159.582 251.857C158.5 252.482 157.599 253.402 156.88 254.607L104.919 224.607C105.638 223.402 106.538 222.482 107.621 221.857L159.582 251.857Z" fill="#8BC5E4"/>
<path fill-rule="evenodd" clip-rule="evenodd" d="M156.88 254.607C156.17 255.807 155.703 257.257 155.495 258.957L103.533 228.957C103.741 227.257 104.209 225.807 104.919 224.607L156.88 254.607Z" fill="#8BC5E4"/>
<path fill-rule="evenodd" clip-rule="evenodd" d="M152.732 259.982C153.07 257.617 153.841 255.492 155.036 253.622L103.074 223.622C101.879 225.492 101.108 227.617 100.771 229.982L152.732 259.982Z" fill="#8BC5E4"/>
<path fill-rule="evenodd" clip-rule="evenodd" d="M172.348 243.787C173.621 241.742 175.327 240.107 177.475 238.867L125.513 208.867C123.365 210.107 121.659 211.742 120.386 213.787L172.348 243.787Z" fill="#8BC5E4"/>
<path fill-rule="evenodd" clip-rule="evenodd" d="M177.474 238.867C179.639 237.617 181.354 237.327 182.61 238.012L130.648 208.012C129.392 207.327 127.678 207.617 125.513 208.867L177.474 238.867Z" fill="#8BC5E4"/>
<path fill-rule="evenodd" clip-rule="evenodd" d="M182.61 238.012C182.723 238.071 182.832 238.136 182.935 238.207L130.974 208.207C130.871 208.136 130.762 208.071 130.648 208.012L182.61 238.012Z" fill="#8BC5E4"/>
<path fill-rule="evenodd" clip-rule="evenodd" d="M182.936 238.207C183.982 238.923 184.506 240.23 184.507 242.111L132.545 212.111C132.544 210.23 132.02 208.923 130.974 208.207L182.936 238.207Z" fill="#8BC5E4"/>
<path fill-rule="evenodd" clip-rule="evenodd" d="M184.507 242.117C184.507 243.167 184.316 244.317 183.952 245.547L131.991 215.547C132.354 214.317 132.545 213.167 132.545 212.117L184.507 242.117Z" fill="#8BC5E4"/>
<path fill-rule="evenodd" clip-rule="evenodd" d="M183.952 245.547C183.58 246.772 182.965 248.197 182.107 249.822L130.146 219.822C131.003 218.197 131.618 216.772 131.991 215.547L183.952 245.547Z" fill="#8BC5E4"/>
<path fill-rule="evenodd" clip-rule="evenodd" d="M182.108 249.822C181.25 251.437 179.83 253.807 177.847 256.912L125.885 226.912C127.868 223.807 129.289 221.437 130.146 219.822L182.108 249.822Z" fill="#8BC5E4"/>
<path fill-rule="evenodd" clip-rule="evenodd" d="M177.847 256.912C176.176 259.507 175.11 261.232 174.643 262.082L122.681 232.082C123.149 231.232 124.214 229.507 125.885 226.912L177.847 256.912Z" fill="#8BC5E4"/>
<path fill-rule="evenodd" clip-rule="evenodd" d="M174.642 262.082C174.166 262.937 173.776 263.742 173.473 264.497L121.512 234.497C121.815 233.742 122.205 232.937 122.681 232.082L174.642 262.082Z" fill="#8BC5E4"/>
<path fill-rule="evenodd" clip-rule="evenodd" d="M169.628 269.827C169.602 269.062 169.715 268.257 169.949 267.402L117.987 237.402C117.753 238.257 117.641 239.062 117.667 239.827L169.628 269.827Z" fill="#8BC5E4"/>
<path fill-rule="evenodd" clip-rule="evenodd" d="M169.949 267.402C170.33 265.992 170.936 264.482 171.768 262.852L119.806 232.852C118.975 234.482 118.368 235.992 117.987 237.402L169.949 267.402Z" fill="#8BC5E4"/>
<path fill-rule="evenodd" clip-rule="evenodd" d="M171.767 262.852C172.607 261.217 173.82 259.187 175.396 256.767L123.434 226.767C121.858 229.187 120.646 231.217 119.806 232.852L171.767 262.852Z" fill="#8BC5E4"/>
<path fill-rule="evenodd" clip-rule="evenodd" d="M175.396 256.767C177.847 253.002 179.501 250.197 180.367 248.327L128.406 218.327C127.539 220.197 125.885 223.002 123.435 226.767L175.396 256.767Z" fill="#8BC5E4"/>
<path fill-rule="evenodd" clip-rule="evenodd" d="M180.367 248.327C181.225 246.462 181.658 244.912 181.658 243.692L129.696 213.692C129.696 214.912 129.263 216.462 128.406 218.327L180.367 248.327Z" fill="#8BC5E4"/>
<path fill-rule="evenodd" clip-rule="evenodd" d="M181.658 243.692C181.658 242.522 181.325 241.711 180.666 241.264L128.704 211.264C129.363 211.711 129.696 212.522 129.696 213.692L181.658 243.692Z" fill="#8BC5E4"/>
<path fill-rule="evenodd" clip-rule="evenodd" d="M180.67 241.266C180.608 241.224 180.543 241.185 180.476 241.149L128.514 211.149C128.581 211.185 128.646 211.224 128.708 211.266L180.67 241.266Z" fill="#8BC5E4"/>
<path fill-rule="evenodd" clip-rule="evenodd" d="M180.471 241.147C180.397 241.106 180.322 241.07 180.245 241.039L128.284 211.039C128.361 211.07 128.436 211.106 128.509 211.147L180.471 241.147Z" fill="#8BC5E4"/>
<path fill-rule="evenodd" clip-rule="evenodd" d="M180.245 241.039C179.5 240.741 178.556 240.924 177.421 241.578L125.46 211.578C126.595 210.924 127.539 210.741 128.284 211.039L180.245 241.039Z" fill="#8BC5E4"/>
<path fill-rule="evenodd" clip-rule="evenodd" d="M177.414 241.582C176.08 242.352 175.015 243.427 174.21 244.832L122.248 214.832C123.053 213.427 124.119 212.352 125.452 211.582L177.414 241.582Z" fill="#8BC5E4"/>
<path fill-rule="evenodd" clip-rule="evenodd" d="M174.21 244.832C173.413 246.222 173.006 247.747 172.997 249.412L121.036 219.412C121.044 217.747 121.451 216.222 122.248 214.832L174.21 244.832Z" fill="#8BC5E4"/>
<path fill-rule="evenodd" clip-rule="evenodd" d="M170.148 250.707C170.347 248.122 171.075 245.812 172.348 243.787L120.386 213.787C119.113 215.812 118.386 218.122 118.187 220.707L170.148 250.707Z" fill="#8BC5E4"/>
<path fill-rule="evenodd" clip-rule="evenodd" d="M190.118 233.367C191.322 231.472 192.812 230.012 194.596 228.982L142.634 198.982C140.85 200.012 139.361 201.472 138.157 203.367L190.118 233.367Z" fill="#8BC5E4"/>
<path fill-rule="evenodd" clip-rule="evenodd" d="M194.596 228.982C195.825 228.272 196.96 227.937 197.999 227.957L146.038 197.957C144.998 197.937 143.864 198.272 142.634 198.982L194.596 228.982Z" fill="#8BC5E4"/>
<path fill-rule="evenodd" clip-rule="evenodd" d="M197.999 227.957C198.608 227.963 199.13 228.097 199.569 228.358L147.608 198.358C147.169 198.097 146.647 197.963 146.038 197.957L197.999 227.957Z" fill="#8BC5E4"/>
<path fill-rule="evenodd" clip-rule="evenodd" d="M199.566 228.356C199.876 228.539 200.143 228.785 200.369 229.093L148.408 199.093C148.182 198.785 147.915 198.539 147.605 198.356L199.566 228.356Z" fill="#8BC5E4"/>
<path fill-rule="evenodd" clip-rule="evenodd" d="M200.372 229.097C200.926 229.847 201.204 230.817 201.204 232.007L149.242 202.007C149.242 200.817 148.965 199.847 148.411 199.097L200.372 229.097Z" fill="#8BC5E4"/>
<path fill-rule="evenodd" clip-rule="evenodd" d="M201.204 232.007C201.204 233.147 200.935 234.342 200.416 235.572L148.454 205.572C148.974 204.342 149.242 203.147 149.242 202.007L201.204 232.007Z" fill="#8BC5E4"/>
<path fill-rule="evenodd" clip-rule="evenodd" d="M200.415 235.572C199.896 236.802 199.116 237.992 198.094 239.142L146.133 209.142C147.155 207.992 147.934 206.802 148.454 205.572L200.415 235.572Z" fill="#8BC5E4"/>
<path fill-rule="evenodd" clip-rule="evenodd" d="M198.094 239.142C199.193 238.796 200.087 238.84 200.784 239.264L148.823 209.264C148.126 208.84 147.232 208.796 146.133 209.142L198.094 239.142Z" fill="#8BC5E4"/>
<path fill-rule="evenodd" clip-rule="evenodd" d="M200.791 239.268C200.936 239.356 201.072 239.461 201.2 239.583L149.238 209.583C149.11 209.461 148.974 209.356 148.829 209.268L200.791 239.268Z" fill="#8BC5E4"/>
<path fill-rule="evenodd" clip-rule="evenodd" d="M201.204 239.587C201.94 240.292 202.312 241.487 202.312 243.187L150.351 213.187C150.351 211.487 149.978 210.292 149.242 209.587L201.204 239.587Z" fill="#8BC5E4"/>
<path fill-rule="evenodd" clip-rule="evenodd" d="M202.312 243.187C202.312 245.487 201.594 247.852 200.156 250.282L148.194 220.282C149.632 217.852 150.351 215.487 150.351 213.187L202.312 243.187Z" fill="#8BC5E4"/>
<path fill-rule="evenodd" clip-rule="evenodd" d="M200.155 250.282C198.718 252.702 196.899 254.552 194.708 255.817L142.747 225.817C144.938 224.552 146.756 222.702 148.194 220.282L200.155 250.282Z" fill="#8BC5E4"/>
<path fill-rule="evenodd" clip-rule="evenodd" d="M194.708 255.817C192.725 256.962 191.08 257.222 189.763 256.602L137.802 226.602C139.118 227.222 140.764 226.962 142.747 225.817L194.708 255.817Z" fill="#8BC5E4"/>
<path fill-rule="evenodd" clip-rule="evenodd" d="M189.763 256.602C189.646 256.546 189.534 256.485 189.426 256.417L137.465 226.417C137.573 226.485 137.685 226.546 137.802 226.602L189.763 256.602Z" fill="#8BC5E4"/>
<path fill-rule="evenodd" clip-rule="evenodd" d="M189.428 256.417C188.337 255.733 187.706 254.438 187.539 252.543L135.577 222.543C135.744 224.438 136.375 225.733 137.466 226.417L189.428 256.417Z" fill="#8BC5E4"/>
<path fill-rule="evenodd" clip-rule="evenodd" d="M190.309 250.507C190.587 251.977 191.044 252.946 191.678 253.402L139.716 223.402C139.082 222.946 138.625 221.977 138.348 220.507L190.309 250.507Z" fill="#8BC5E4"/>
<path fill-rule="evenodd" clip-rule="evenodd" d="M191.67 253.397C191.747 253.453 191.827 253.502 191.91 253.543L139.949 223.543C139.866 223.502 139.786 223.453 139.709 223.397L191.67 253.397Z" fill="#8BC5E4"/>
<path fill-rule="evenodd" clip-rule="evenodd" d="M191.92 253.547C192.69 253.902 193.626 253.762 194.717 253.132L142.755 223.132C141.664 223.762 140.729 223.902 139.958 223.547L191.92 253.547Z" fill="#8BC5E4"/>
<path fill-rule="evenodd" clip-rule="evenodd" d="M194.717 253.132C196.025 252.377 197.124 251.212 198.016 249.647L146.055 219.647C145.163 221.212 144.063 222.377 142.755 223.132L194.717 253.132Z" fill="#8BC5E4"/>
<path fill-rule="evenodd" clip-rule="evenodd" d="M198.017 249.647C198.917 248.077 199.368 246.517 199.368 244.957L147.406 214.957C147.406 216.517 146.956 218.077 146.055 219.647L198.017 249.647Z" fill="#8BC5E4"/>
<path fill-rule="evenodd" clip-rule="evenodd" d="M199.368 244.957C199.367 243.607 199.026 242.675 198.343 242.163L146.382 212.163C147.065 212.675 147.406 213.607 147.406 214.957L199.368 244.957Z" fill="#8BC5E4"/>
<path fill-rule="evenodd" clip-rule="evenodd" d="M198.348 242.166C198.278 242.113 198.204 242.064 198.126 242.02L146.164 212.02C146.242 212.064 146.316 212.113 146.386 212.166L198.348 242.166Z" fill="#8BC5E4"/>
<path fill-rule="evenodd" clip-rule="evenodd" d="M198.121 242.017C198.042 241.971 197.962 241.93 197.88 241.895L145.919 211.895C146.001 211.93 146.081 211.971 146.159 212.017L198.121 242.017Z" fill="#8BC5E4"/>
<path fill-rule="evenodd" clip-rule="evenodd" d="M197.882 241.896C197.091 241.556 196.117 241.716 194.959 242.383L142.997 212.383C144.155 211.716 145.129 211.556 145.92 211.896L197.882 241.896Z" fill="#8BC5E4"/>
<path fill-rule="evenodd" clip-rule="evenodd" d="M194.951 242.387C194.431 242.687 193.782 243.182 193.003 243.872L141.041 213.872C141.82 213.182 142.47 212.687 142.99 212.387L194.951 242.387Z" fill="#8BC5E4"/>
<path fill-rule="evenodd" clip-rule="evenodd" d="M193.305 240.857C193.496 240.777 193.634 240.707 193.756 240.637L141.794 210.637C141.673 210.707 141.534 210.777 141.344 210.857L193.305 240.857Z" fill="#8BC5E4"/>
<path fill-rule="evenodd" clip-rule="evenodd" d="M193.756 240.637C194.934 239.957 195.999 238.982 196.934 237.722L144.973 207.722C144.037 208.982 142.972 209.957 141.794 210.637L193.756 240.637Z" fill="#8BC5E4"/>
<path fill-rule="evenodd" clip-rule="evenodd" d="M196.934 237.722C197.878 236.457 198.354 235.082 198.354 233.582L146.393 203.582C146.393 205.082 145.917 206.457 144.973 207.722L196.934 237.722Z" fill="#8BC5E4"/>
<path fill-rule="evenodd" clip-rule="evenodd" d="M198.354 233.582C198.354 232.513 198.069 231.772 197.507 231.356L145.546 201.356C146.108 201.772 146.393 202.513 146.393 203.582L198.354 233.582Z" fill="#8BC5E4"/>
<path fill-rule="evenodd" clip-rule="evenodd" d="M197.5 231.35C197.446 231.311 197.39 231.275 197.332 231.242L145.37 201.242C145.428 201.275 145.484 201.311 145.538 201.35L197.5 231.35Z" fill="#8BC5E4"/>
<path fill-rule="evenodd" clip-rule="evenodd" d="M197.324 231.237C197.26 231.201 197.194 231.169 197.126 231.142L145.164 201.142C145.232 201.169 145.298 201.201 145.362 201.237L197.324 231.237Z" fill="#8BC5E4"/>
<path fill-rule="evenodd" clip-rule="evenodd" d="M197.126 231.142C196.472 230.881 195.649 231.036 194.662 231.603L142.701 201.603C143.688 201.036 144.511 200.881 145.165 201.142L197.126 231.142Z" fill="#8BC5E4"/>
<path fill-rule="evenodd" clip-rule="evenodd" d="M194.656 231.607C193.583 232.227 192.682 233.147 191.972 234.347L140.01 204.347C140.72 203.147 141.621 202.227 142.695 201.607L194.656 231.607Z" fill="#8BC5E4"/>
<path fill-rule="evenodd" clip-rule="evenodd" d="M191.972 234.347C191.253 235.552 190.785 237.002 190.586 238.697L138.625 208.697C138.824 207.002 139.291 205.552 140.01 204.347L191.972 234.347Z" fill="#8BC5E4"/>
<path fill-rule="evenodd" clip-rule="evenodd" d="M187.815 239.727C188.153 237.362 188.924 235.237 190.119 233.367L138.157 203.367C136.962 205.237 136.191 207.362 135.854 209.727L187.815 239.727Z" fill="#8BC5E4"/>
<path fill-rule="evenodd" clip-rule="evenodd" d="M62.423 152.842L263.194 36.9275C266.415 35.0675 268.935 36.5425 268.935 40.3025V215.872C268.935 219.632 266.415 224.027 263.194 225.887L62.423 341.802C59.2101 343.658 56.6899 342.172 56.6899 338.412V162.842C56.6899 159.082 59.2101 154.697 62.423 152.842ZM155.46 118.347C155.46 113.477 158.838 107.587 163.003 105.182C165.004 104.027 166.926 103.847 168.338 104.682C169.758 105.512 170.555 107.292 170.555 109.632C170.555 114.492 167.177 120.382 163.003 122.792C158.838 125.197 155.46 123.207 155.46 118.347ZM89.5729 173.027V277.687L236.009 193.142V88.4825L89.5729 173.027ZM122.144 297.242V270.922L125.123 269.202V280.012L136.849 273.242V262.432L139.837 260.707V287.027L136.849 288.752V276.352L125.123 283.122V295.522L122.144 297.242ZM145.25 280.222V283.902L148.402 282.082V278.402L145.25 280.222ZM155.036 253.622C156.24 251.727 157.729 250.267 159.513 249.237C160.743 248.527 161.877 248.192 162.917 248.212C163.956 248.222 164.744 248.607 165.29 249.352C165.835 250.107 166.121 251.072 166.121 252.262C166.121 253.402 165.852 254.597 165.333 255.827C164.805 257.062 164.034 258.247 163.012 259.397C164.346 258.977 165.376 259.132 166.121 259.842C166.857 260.547 167.221 261.747 167.221 263.447C167.221 265.747 166.502 268.112 165.073 270.537C163.635 272.957 161.817 274.807 159.626 276.072C157.643 277.217 155.997 277.477 154.681 276.857C153.382 276.237 152.637 274.877 152.455 272.792L155.226 270.762C155.538 272.412 156.084 273.427 156.837 273.802C157.608 274.157 158.543 274.017 159.643 273.382C160.942 272.632 162.042 271.467 162.934 269.902C163.835 268.332 164.285 266.772 164.285 265.212C164.285 263.722 163.869 262.742 163.038 262.272C162.206 261.782 161.15 261.902 159.868 262.642C159.349 262.942 158.69 263.442 157.911 264.132L158.223 261.112C158.405 261.037 158.56 260.957 158.664 260.897C159.851 260.212 160.907 259.242 161.851 257.977C162.795 256.712 163.272 255.337 163.272 253.837C163.272 252.657 162.925 251.877 162.241 251.492C161.548 251.112 160.665 251.232 159.582 251.857C158.5 252.482 157.599 253.402 156.88 254.607C156.17 255.807 155.703 257.257 155.495 258.957L152.732 259.982C153.07 257.617 153.841 255.492 155.036 253.622ZM177.474 238.867C175.327 240.107 173.621 241.742 172.348 243.787C171.075 245.812 170.347 248.122 170.148 250.707L172.997 249.412C173.006 247.747 173.413 246.222 174.21 244.832C175.015 243.427 176.08 242.352 177.414 241.582C178.67 240.857 179.692 240.707 180.471 241.147C181.259 241.562 181.657 242.412 181.657 243.692C181.657 244.912 181.224 246.462 180.367 248.327C179.501 250.197 177.847 253.002 175.396 256.767C173.82 259.187 172.607 261.217 171.767 262.852C170.936 264.482 170.33 265.992 169.949 267.402C169.715 268.257 169.602 269.062 169.628 269.827L184.533 261.222V258.112L173.473 264.497C173.777 263.742 174.166 262.937 174.643 262.082C175.11 261.232 176.175 259.507 177.847 256.912C179.83 253.807 181.25 251.437 182.108 249.822C182.965 248.197 183.58 246.772 183.952 245.547C184.316 244.317 184.507 243.167 184.507 242.117C184.507 240.047 183.874 238.672 182.61 238.012C181.354 237.327 179.64 237.617 177.474 238.867ZM190.118 233.367C191.322 231.472 192.812 230.012 194.596 228.982C195.826 228.272 196.96 227.937 197.999 227.957C199.039 227.967 199.827 228.352 200.372 229.097C200.926 229.847 201.204 230.817 201.204 232.007C201.204 233.147 200.935 234.342 200.415 235.572C199.896 236.802 199.116 237.992 198.095 239.142C199.428 238.722 200.459 238.877 201.204 239.587C201.94 240.292 202.312 241.487 202.312 243.187C202.312 245.487 201.593 247.852 200.156 250.282C198.718 252.702 196.899 254.552 194.708 255.817C192.725 256.962 191.08 257.222 189.763 256.602C188.464 255.982 187.72 254.622 187.538 252.537L190.309 250.507C190.621 252.157 191.158 253.177 191.92 253.547C192.691 253.902 193.626 253.762 194.717 253.132C196.025 252.377 197.125 251.212 198.017 249.647C198.917 248.077 199.368 246.517 199.368 244.957C199.368 243.467 198.952 242.487 198.121 242.017C197.289 241.527 196.233 241.647 194.951 242.387C194.431 242.687 193.782 243.182 193.002 243.872L193.305 240.857C193.496 240.777 193.635 240.707 193.756 240.637C194.934 239.957 195.999 238.982 196.934 237.722C197.878 236.457 198.354 235.082 198.354 233.582C198.354 232.402 198.008 231.622 197.324 231.237C196.64 230.852 195.748 230.977 194.656 231.607C193.583 232.227 192.682 233.147 191.972 234.347C191.253 235.552 190.785 237.002 190.586 238.697L187.815 239.727C188.153 237.362 188.923 235.237 190.118 233.367Z" fill="white"/>
<path d="M89.5729 173.027V277.687L236.009 193.142V88.4825L89.5729 173.027Z" fill="#8BC5E4"/>
</svg>
