<svg width="260" height="328" viewBox="0 0 260 328" fill="none" xmlns="http://www.w3.org/2000/svg">
<path fill-rule="evenodd" clip-rule="evenodd" d="M207.846 149.59L0 30L51.9615 0L259.808 119.59L207.846 149.59Z" fill="#8BC5E4"/>
<path fill-rule="evenodd" clip-rule="evenodd" d="M0 30V189.92L51.9615 159.92V0L0 30Z" fill="#8BC5E4"/>
<path fill-rule="evenodd" clip-rule="evenodd" d="M0 189.92L82.8267 237.74L134.788 207.74L51.9615 159.92L0 189.92Z" fill="#8BC5E4"/>
<path fill-rule="evenodd" clip-rule="evenodd" d="M82.8267 237.74V262.39L134.788 232.39V207.74L82.8267 237.74Z" fill="#8BC5E4"/>
<path fill-rule="evenodd" clip-rule="evenodd" d="M82.8267 262.39L38.5381 236.82L90.4997 206.82L134.788 232.39L82.8267 262.39Z" fill="#8BC5E4"/>
<path fill-rule="evenodd" clip-rule="evenodd" d="M38.5381 236.82V251.84L90.4997 221.84V206.82L38.5381 236.82Z" fill="#8BC5E4"/>
<path fill-rule="evenodd" clip-rule="evenodd" d="M38.5381 251.84L169.49 327.445L221.451 297.445L90.4997 221.84L38.5381 251.84Z" fill="#8BC5E4"/>
<path fill-rule="evenodd" clip-rule="evenodd" d="M169.49 327.445V312.425L221.451 282.425V297.445L169.49 327.445Z" fill="#8BC5E4"/>
<path fill-rule="evenodd" clip-rule="evenodd" d="M169.49 312.425L125.625 287.1L177.587 257.1L221.451 282.425L169.49 312.425Z" fill="#8BC5E4"/>
<path fill-rule="evenodd" clip-rule="evenodd" d="M125.625 287.1V262.45L177.587 232.45V257.1L125.625 287.1Z" fill="#8BC5E4"/>
<path fill-rule="evenodd" clip-rule="evenodd" d="M125.625 262.45L207.846 309.92L259.807 279.92L177.587 232.45L125.625 262.45Z" fill="#8BC5E4"/>
<path fill-rule="evenodd" clip-rule="evenodd" d="M207.846 309.92V149.59L259.808 119.59V279.92L207.846 309.92Z" fill="#8BC5E4"/>
<path fill-rule="evenodd" clip-rule="evenodd" d="M207.846 149.59L259.808 119.59L207.846 149.59Z" fill="#8BC5E4"/>
<path fill-rule="evenodd" clip-rule="evenodd" d="M205.976 150.72V306.64L257.937 276.64V120.72L205.976 150.72Z" fill="#8BC5E4"/>
<path fill-rule="evenodd" clip-rule="evenodd" d="M205.975 306.64L123.755 259.17L175.716 229.17L257.937 276.64L205.975 306.64Z" fill="#8BC5E4"/>
<path fill-rule="evenodd" clip-rule="evenodd" d="M123.755 259.17V288.23L175.716 258.23V229.17L123.755 259.17Z" fill="#8BC5E4"/>
<path fill-rule="evenodd" clip-rule="evenodd" d="M123.755 288.23L167.61 313.55L219.572 283.55L175.716 258.23L123.755 288.23Z" fill="#8BC5E4"/>
<path fill-rule="evenodd" clip-rule="evenodd" d="M167.61 313.55V324.15L219.572 294.15V283.55L167.61 313.55Z" fill="#8BC5E4"/>
<path fill-rule="evenodd" clip-rule="evenodd" d="M167.611 324.15L40.4087 250.71L92.3703 220.71L219.572 294.15L167.611 324.15Z" fill="#8BC5E4"/>
<path fill-rule="evenodd" clip-rule="evenodd" d="M40.4087 250.71V240.11L92.3703 210.11V220.71L40.4087 250.71Z" fill="#8BC5E4"/>
<path fill-rule="evenodd" clip-rule="evenodd" d="M40.4087 240.11L84.7059 265.685L136.667 235.685L92.3703 210.11L40.4087 240.11Z" fill="#8BC5E4"/>
<path fill-rule="evenodd" clip-rule="evenodd" d="M84.7061 265.685V236.625L136.668 206.625V235.685L84.7061 265.685Z" fill="#8BC5E4"/>
<path fill-rule="evenodd" clip-rule="evenodd" d="M84.7059 236.625L1.87061 188.8L53.8321 158.8L136.668 206.625L84.7059 236.625Z" fill="#8BC5E4"/>
<path fill-rule="evenodd" clip-rule="evenodd" d="M1.87061 188.8V33.28L53.8321 3.28V158.8L1.87061 188.8Z" fill="#8BC5E4"/>
<path fill-rule="evenodd" clip-rule="evenodd" d="M1.87061 33.28L205.976 150.72L257.937 120.72L53.8321 3.28L1.87061 33.28Z" fill="#8BC5E4"/>
<path fill-rule="evenodd" clip-rule="evenodd" d="M205.976 150.72L257.937 120.72L205.976 150.72Z" fill="#8BC5E4"/>
<path fill-rule="evenodd" clip-rule="evenodd" d="M20.9316 53.515V190.675L72.8932 160.675V23.515L20.9316 53.515Z" fill="#8BC5E4"/>
<path fill-rule="evenodd" clip-rule="evenodd" d="M20.9316 190.675L186.923 286.51L238.884 256.51L72.8932 160.675L20.9316 190.675Z" fill="#8BC5E4"/>
<path fill-rule="evenodd" clip-rule="evenodd" d="M186.923 286.51V149.35L238.884 119.35V256.51L186.923 286.51Z" fill="#8BC5E4"/>
<path fill-rule="evenodd" clip-rule="evenodd" d="M186.923 149.35L20.9316 53.515L72.8932 23.515L238.884 119.35L186.923 149.35Z" fill="#8BC5E4"/>
<path fill-rule="evenodd" clip-rule="evenodd" d="M20.9316 53.515L72.8932 23.515L20.9316 53.515Z" fill="#8BC5E4"/>
<path d="M207.846 149.59L0 30V189.92L82.8267 237.74V262.39L38.5381 236.82V251.84L169.49 327.445V312.425L125.626 287.1V262.45L207.846 309.92V149.59ZM205.975 150.72V306.64L123.755 259.17V288.23L167.611 313.55V324.15L40.4087 250.71V240.11L84.7059 265.685V236.625L1.87062 188.8V33.28L205.975 150.72ZM20.9318 53.515V190.675L186.923 286.51V149.35L20.9318 53.515Z" fill="#8BC5E4"/>
<path fill-rule="evenodd" clip-rule="evenodd" d="M205.975 150.72V306.64L123.755 259.17V288.23L167.611 313.55V324.15L40.4087 250.71V240.11L84.7059 265.685V236.625L1.87062 188.8V33.28L205.975 150.72ZM20.9318 190.675V53.515L186.923 149.35V286.51L20.9318 190.675Z" fill="white"/>
</svg>
