<svg width="451" height="450" viewBox="0 0 451 450" fill="none" xmlns="http://www.w3.org/2000/svg">
<path fill-rule="evenodd" clip-rule="evenodd" d="M357.071 356.853L324.015 337.768L375.976 307.768L409.032 326.853L357.071 356.853Z" fill="#8BC5E4"/>
<path fill-rule="evenodd" clip-rule="evenodd" d="M324.015 337.768L375.976 307.768L324.015 337.768Z" fill="#8BC5E4"/>
<path fill-rule="evenodd" clip-rule="evenodd" d="M355.85 303.098L407.811 273.098L355.85 303.098Z" fill="#8BC5E4"/>
<path fill-rule="evenodd" clip-rule="evenodd" d="M313.25 331.553L280.194 312.468L332.155 282.468L365.212 301.553L313.25 331.553Z" fill="#8BC5E4"/>
<path fill-rule="evenodd" clip-rule="evenodd" d="M280.194 312.468L332.155 282.468L280.194 312.468Z" fill="#8BC5E4"/>
<path fill-rule="evenodd" clip-rule="evenodd" d="M312.038 277.803L363.999 247.803L312.038 277.803Z" fill="#8BC5E4"/>
<path fill-rule="evenodd" clip-rule="evenodd" d="M262.085 232.163V300.623L314.047 270.623V202.163L262.085 232.163Z" fill="#8BC5E4"/>
<path fill-rule="evenodd" clip-rule="evenodd" d="M271.854 316.123L306.434 336.088L358.396 306.088L323.816 286.123L271.854 316.123Z" fill="#8BC5E4"/>
<path fill-rule="evenodd" clip-rule="evenodd" d="M306.435 336.088V345.018L358.396 315.018V306.088L306.435 336.088Z" fill="#8BC5E4"/>
<path fill-rule="evenodd" clip-rule="evenodd" d="M306.434 345.018L293.522 337.563L345.483 307.563L358.396 315.018L306.434 345.018Z" fill="#8BC5E4"/>
<path fill-rule="evenodd" clip-rule="evenodd" d="M293.522 349.543L340.036 376.398L391.998 346.398L345.483 319.543L293.522 349.543Z" fill="#8BC5E4"/>
<path fill-rule="evenodd" clip-rule="evenodd" d="M340.036 364.418L327.124 356.963L379.086 326.963L391.998 334.418L340.036 364.418Z" fill="#8BC5E4"/>
<path fill-rule="evenodd" clip-rule="evenodd" d="M327.124 356.963V348.033L379.086 318.033V326.963L327.124 356.963Z" fill="#8BC5E4"/>
<path fill-rule="evenodd" clip-rule="evenodd" d="M327.124 348.033L361.696 367.993L413.657 337.993L379.086 318.033L327.124 348.033Z" fill="#8BC5E4"/>
<path fill-rule="evenodd" clip-rule="evenodd" d="M371.473 363.778V295.318L423.434 265.318V333.778L371.473 363.778Z" fill="#8BC5E4"/>
<path fill-rule="evenodd" clip-rule="evenodd" d="M361.696 279.813L271.854 227.943L323.816 197.943L413.657 249.813L361.696 279.813Z" fill="#8BC5E4"/>
<path fill-rule="evenodd" clip-rule="evenodd" d="M271.854 227.943L323.816 197.943L271.854 227.943Z" fill="#8BC5E4"/>
<path fill-rule="evenodd" clip-rule="evenodd" d="M239.993 289.258L206.919 270.163L258.881 240.163L291.955 259.258L239.993 289.258Z" fill="#8BC5E4"/>
<path fill-rule="evenodd" clip-rule="evenodd" d="M206.919 270.163L258.881 240.163L206.919 270.163Z" fill="#8BC5E4"/>
<path fill-rule="evenodd" clip-rule="evenodd" d="M238.772 235.503L290.733 205.503L238.772 235.503Z" fill="#8BC5E4"/>
<path fill-rule="evenodd" clip-rule="evenodd" d="M196.172 263.958L163.116 244.873L215.077 214.873L248.133 233.958L196.172 263.958Z" fill="#8BC5E4"/>
<path fill-rule="evenodd" clip-rule="evenodd" d="M163.116 244.873L215.077 214.873L163.116 244.873Z" fill="#8BC5E4"/>
<path fill-rule="evenodd" clip-rule="evenodd" d="M194.951 210.203L246.913 180.203L194.951 210.203Z" fill="#8BC5E4"/>
<path fill-rule="evenodd" clip-rule="evenodd" d="M144.99 164.558V233.018L196.952 203.018V134.558L144.99 164.558Z" fill="#8BC5E4"/>
<path fill-rule="evenodd" clip-rule="evenodd" d="M154.768 248.523L189.348 268.488L241.309 238.488L206.729 218.523L154.768 248.523Z" fill="#8BC5E4"/>
<path fill-rule="evenodd" clip-rule="evenodd" d="M189.348 268.488V277.418L241.309 247.418V238.488L189.348 268.488Z" fill="#8BC5E4"/>
<path fill-rule="evenodd" clip-rule="evenodd" d="M189.348 277.418L176.427 269.958L228.388 239.958L241.309 247.418L189.348 277.418Z" fill="#8BC5E4"/>
<path fill-rule="evenodd" clip-rule="evenodd" d="M176.427 281.938L222.958 308.803L274.92 278.803L228.388 251.938L176.427 281.938Z" fill="#8BC5E4"/>
<path fill-rule="evenodd" clip-rule="evenodd" d="M222.958 296.823L210.037 289.363L261.999 259.363L274.92 266.823L222.958 296.823Z" fill="#8BC5E4"/>
<path fill-rule="evenodd" clip-rule="evenodd" d="M210.037 289.363V280.433L261.999 250.433V259.363L210.037 289.363Z" fill="#8BC5E4"/>
<path fill-rule="evenodd" clip-rule="evenodd" d="M210.037 280.433L244.618 300.398L296.579 270.398L261.999 250.433L210.037 280.433Z" fill="#8BC5E4"/>
<path fill-rule="evenodd" clip-rule="evenodd" d="M254.395 296.183V227.723L306.357 197.723V266.183L254.395 296.183Z" fill="#8BC5E4"/>
<path fill-rule="evenodd" clip-rule="evenodd" d="M244.618 212.218L154.768 160.343L206.729 130.343L296.579 182.218L244.618 212.218Z" fill="#8BC5E4"/>
<path fill-rule="evenodd" clip-rule="evenodd" d="M154.768 160.343L206.729 130.343L154.768 160.343Z" fill="#8BC5E4"/>
<path fill-rule="evenodd" clip-rule="evenodd" d="M122.915 221.663L89.8413 202.568L141.803 172.568L174.876 191.663L122.915 221.663Z" fill="#8BC5E4"/>
<path fill-rule="evenodd" clip-rule="evenodd" d="M89.8413 202.568L141.803 172.568L89.8413 202.568Z" fill="#8BC5E4"/>
<path fill-rule="evenodd" clip-rule="evenodd" d="M121.694 167.908L173.655 137.908L121.694 167.908Z" fill="#8BC5E4"/>
<path fill-rule="evenodd" clip-rule="evenodd" d="M79.094 196.363L46.0205 177.268L97.982 147.268L131.056 166.363L79.094 196.363Z" fill="#8BC5E4"/>
<path fill-rule="evenodd" clip-rule="evenodd" d="M46.0205 177.268L97.982 147.268L46.0205 177.268Z" fill="#8BC5E4"/>
<path fill-rule="evenodd" clip-rule="evenodd" d="M77.873 142.608L129.835 112.608L77.873 142.608Z" fill="#8BC5E4"/>
<path fill-rule="evenodd" clip-rule="evenodd" d="M27.9121 96.963V165.423L79.8736 135.423V66.963L27.9121 96.963Z" fill="#8BC5E4"/>
<path fill-rule="evenodd" clip-rule="evenodd" d="M37.6895 180.928L72.2699 200.893L124.231 170.893L89.6511 150.928L37.6895 180.928Z" fill="#8BC5E4"/>
<path fill-rule="evenodd" clip-rule="evenodd" d="M72.27 200.893V209.823L124.232 179.823V170.893L72.27 200.893Z" fill="#8BC5E4"/>
<path fill-rule="evenodd" clip-rule="evenodd" d="M72.2697 209.823L59.3486 202.363L111.31 172.363L124.231 179.823L72.2697 209.823Z" fill="#8BC5E4"/>
<path fill-rule="evenodd" clip-rule="evenodd" d="M59.3486 214.343L105.872 241.203L157.833 211.203L111.31 184.343L59.3486 214.343Z" fill="#8BC5E4"/>
<path fill-rule="evenodd" clip-rule="evenodd" d="M105.872 229.223L92.9507 221.763L144.912 191.763L157.833 199.223L105.872 229.223Z" fill="#8BC5E4"/>
<path fill-rule="evenodd" clip-rule="evenodd" d="M92.9507 221.763V212.833L144.912 182.833V191.763L92.9507 221.763Z" fill="#8BC5E4"/>
<path fill-rule="evenodd" clip-rule="evenodd" d="M92.9507 212.833L127.531 232.798L179.493 202.798L144.912 182.833L92.9507 212.833Z" fill="#8BC5E4"/>
<path fill-rule="evenodd" clip-rule="evenodd" d="M137.308 228.583V160.123L189.27 130.123V198.583L137.308 228.583Z" fill="#8BC5E4"/>
<path fill-rule="evenodd" clip-rule="evenodd" d="M127.531 144.618L37.6895 92.748L89.6511 62.748L179.492 114.618L127.531 144.618Z" fill="#8BC5E4"/>
<path fill-rule="evenodd" clip-rule="evenodd" d="M37.6895 92.748L89.6511 62.748L37.6895 92.748Z" fill="#8BC5E4"/>
<path fill-rule="evenodd" clip-rule="evenodd" d="M0 37.078V212.638L51.9615 182.638V7.07803L0 37.078Z" fill="#8BC5E4"/>
<path fill-rule="evenodd" clip-rule="evenodd" d="M12.1157 231.853L386.256 447.863L438.218 417.863L64.0772 201.853L12.1157 231.853Z" fill="#8BC5E4"/>
<path fill-rule="evenodd" clip-rule="evenodd" d="M398.372 442.638V267.078L450.333 237.078V412.638L398.372 442.638Z" fill="#8BC5E4"/>
<path fill-rule="evenodd" clip-rule="evenodd" d="M386.256 247.863L12.1157 31.853L64.0772 1.85303L438.218 217.863L386.256 247.863Z" fill="#8BC5E4"/>
<path fill-rule="evenodd" clip-rule="evenodd" d="M12.1157 31.853L64.0772 1.85303L12.1157 31.853Z" fill="#8BC5E4"/>
<path fill-rule="evenodd" clip-rule="evenodd" d="M12.1157 37.363L386.256 253.373L438.218 223.373L64.0772 7.36304L12.1157 37.363Z" fill="#8BC5E4"/>
<path fill-rule="evenodd" clip-rule="evenodd" d="M392.907 263.923V439.483L444.869 409.483V233.923L392.907 263.923Z" fill="#8BC5E4"/>
<path fill-rule="evenodd" clip-rule="evenodd" d="M386.256 442.353L12.1157 226.343L64.0772 196.343L438.218 412.353L386.256 442.353Z" fill="#8BC5E4"/>
<path fill-rule="evenodd" clip-rule="evenodd" d="M5.46484 215.793V40.233L57.4263 10.233V185.793L5.46484 215.793Z" fill="#8BC5E4"/>
<path fill-rule="evenodd" clip-rule="evenodd" d="M12.1157 37.363L64.0772 7.36304L12.1157 37.363Z" fill="#8BC5E4"/>
<path fill-rule="evenodd" clip-rule="evenodd" d="M324.015 337.768C324.015 321.037 327.526 313.461 331.784 310.913L383.745 280.913C379.487 283.461 375.976 291.037 375.976 307.768L324.015 337.768Z" fill="#8BC5E4"/>
<path fill-rule="evenodd" clip-rule="evenodd" d="M331.791 310.909C334.624 309.217 337.787 309.751 340.464 311.295L392.426 281.295C389.749 279.751 386.586 279.217 383.753 280.909L331.791 310.909Z" fill="#8BC5E4"/>
<path fill-rule="evenodd" clip-rule="evenodd" d="M340.469 311.298C347.129 315.143 357.071 328.473 357.071 356.853L409.033 326.853C409.033 298.473 399.091 285.143 392.431 281.298L340.469 311.298Z" fill="#8BC5E4"/>
<path fill-rule="evenodd" clip-rule="evenodd" d="M355.85 303.098C355.858 306.841 354.513 309.661 352.092 311.061L404.053 281.061C406.474 279.661 407.819 276.841 407.811 273.098L355.85 303.098Z" fill="#8BC5E4"/>
<path fill-rule="evenodd" clip-rule="evenodd" d="M352.1 311.057C351.872 311.188 351.636 311.308 351.39 311.414L403.352 281.414C403.598 281.308 403.834 281.188 404.062 281.057L352.1 311.057Z" fill="#8BC5E4"/>
<path fill-rule="evenodd" clip-rule="evenodd" d="M351.381 311.418C348.515 312.653 344.626 312.038 340.573 309.698L392.535 279.698C396.588 282.038 400.476 282.653 403.343 281.418L351.381 311.418Z" fill="#8BC5E4"/>
<path fill-rule="evenodd" clip-rule="evenodd" d="M340.573 309.698C336.52 307.358 332.632 303.493 329.765 298.938L381.727 268.938C384.593 273.493 388.482 277.358 392.535 279.698L340.573 309.698Z" fill="#8BC5E4"/>
<path fill-rule="evenodd" clip-rule="evenodd" d="M329.765 298.938C326.89 294.388 325.288 289.543 325.288 285.453L377.249 255.453C377.249 259.543 378.851 264.388 381.726 268.938L329.765 298.938Z" fill="#8BC5E4"/>
<path fill-rule="evenodd" clip-rule="evenodd" d="M325.288 285.453C325.288 281.714 326.634 278.895 329.054 277.503L381.015 247.503C378.595 248.895 377.249 251.714 377.249 255.453L325.288 285.453Z" fill="#8BC5E4"/>
<path fill-rule="evenodd" clip-rule="evenodd" d="M329.047 277.507C329.274 277.376 329.511 277.257 329.757 277.152L381.718 247.152C381.472 247.257 381.235 247.376 381.008 247.507L329.047 277.507Z" fill="#8BC5E4"/>
<path fill-rule="evenodd" clip-rule="evenodd" d="M329.765 277.148C332.632 275.913 336.52 276.528 340.573 278.878L392.535 248.878C388.482 246.528 384.593 245.913 381.727 247.148L329.765 277.148Z" fill="#8BC5E4"/>
<path fill-rule="evenodd" clip-rule="evenodd" d="M340.573 278.878C349.017 283.753 355.85 294.588 355.85 303.098L407.811 273.098C407.811 264.588 400.978 253.753 392.535 248.878L340.573 278.878Z" fill="#8BC5E4"/>
<path fill-rule="evenodd" clip-rule="evenodd" d="M280.194 312.468C280.194 295.737 283.706 288.161 287.963 285.613L339.924 255.613C335.667 258.161 332.155 265.737 332.155 282.468L280.194 312.468Z" fill="#8BC5E4"/>
<path fill-rule="evenodd" clip-rule="evenodd" d="M287.97 285.609C290.803 283.917 293.966 284.451 296.643 285.995L348.605 255.995C345.928 254.451 342.765 253.917 339.932 255.609L287.97 285.609Z" fill="#8BC5E4"/>
<path fill-rule="evenodd" clip-rule="evenodd" d="M296.648 285.998C303.308 289.843 313.25 303.173 313.25 331.553L365.212 301.553C365.212 273.173 355.27 259.843 348.61 255.998L296.648 285.998Z" fill="#8BC5E4"/>
<path fill-rule="evenodd" clip-rule="evenodd" d="M312.038 277.803C312.038 281.542 310.692 284.361 308.271 285.761L360.232 255.761C362.653 254.361 363.999 251.542 363.999 247.803L312.038 277.803Z" fill="#8BC5E4"/>
<path fill-rule="evenodd" clip-rule="evenodd" d="M308.279 285.757C308.051 285.888 307.815 286.008 307.569 286.114L359.53 256.114C359.776 256.008 360.012 255.888 360.24 255.757L308.279 285.757Z" fill="#8BC5E4"/>
<path fill-rule="evenodd" clip-rule="evenodd" d="M307.56 286.118C304.694 287.353 300.805 286.738 296.752 284.398L348.714 254.398C352.767 256.738 356.655 257.353 359.522 256.118L307.56 286.118Z" fill="#8BC5E4"/>
<path fill-rule="evenodd" clip-rule="evenodd" d="M296.752 284.398C292.699 282.058 288.811 278.193 285.944 273.638L337.906 243.638C340.772 248.193 344.661 252.058 348.714 254.398L296.752 284.398Z" fill="#8BC5E4"/>
<path fill-rule="evenodd" clip-rule="evenodd" d="M285.944 273.638C283.078 269.093 281.467 264.243 281.467 260.153L333.428 230.153C333.428 234.243 335.039 239.093 337.906 243.638L285.944 273.638Z" fill="#8BC5E4"/>
<path fill-rule="evenodd" clip-rule="evenodd" d="M281.467 260.153C281.467 256.414 282.813 253.595 285.233 252.203L337.194 222.203C334.774 223.595 333.428 226.414 333.428 230.153L281.467 260.153Z" fill="#8BC5E4"/>
<path fill-rule="evenodd" clip-rule="evenodd" d="M285.226 252.207C285.454 252.076 285.69 251.957 285.936 251.852L337.898 221.852C337.652 221.957 337.416 222.076 337.188 222.207L285.226 252.207Z" fill="#8BC5E4"/>
<path fill-rule="evenodd" clip-rule="evenodd" d="M285.944 251.848C288.811 250.613 292.699 251.228 296.752 253.578L348.714 223.578C344.661 221.228 340.772 220.613 337.906 221.848L285.944 251.848Z" fill="#8BC5E4"/>
<path fill-rule="evenodd" clip-rule="evenodd" d="M296.752 253.578C300.805 255.918 304.694 259.783 307.56 264.328L359.522 234.328C356.655 229.783 352.767 225.918 348.714 223.578L296.752 253.578Z" fill="#8BC5E4"/>
<path fill-rule="evenodd" clip-rule="evenodd" d="M307.561 264.328C310.427 268.873 312.038 273.723 312.038 277.803L363.999 247.803C363.999 243.723 362.389 238.873 359.522 234.328L307.561 264.328Z" fill="#8BC5E4"/>
<path fill-rule="evenodd" clip-rule="evenodd" d="M271.854 227.943C268.953 226.268 266.359 226.031 264.575 227.009L316.537 197.009C318.321 196.031 320.915 196.268 323.816 197.943L271.854 227.943Z" fill="#8BC5E4"/>
<path fill-rule="evenodd" clip-rule="evenodd" d="M264.577 227.007C263.027 227.855 262.087 229.62 262.085 232.155L314.046 202.155C314.048 199.62 314.988 197.855 316.538 197.007L264.577 227.007Z" fill="#8BC5E4"/>
<path fill-rule="evenodd" clip-rule="evenodd" d="M262.085 300.623C262.085 306.083 266.433 312.993 271.854 316.123L323.816 286.123C318.394 282.993 314.047 276.083 314.047 270.623L262.085 300.623Z" fill="#8BC5E4"/>
<path fill-rule="evenodd" clip-rule="evenodd" d="M293.522 337.563C291.798 336.568 290.177 336.384 289.058 337.013L341.02 307.013C342.139 306.384 343.76 306.568 345.484 307.563L293.522 337.563Z" fill="#8BC5E4"/>
<path fill-rule="evenodd" clip-rule="evenodd" d="M289.065 337.009C288.807 337.154 288.575 337.341 288.375 337.571L340.336 307.571C340.536 307.341 340.769 307.154 341.027 307.009L289.065 337.009Z" fill="#8BC5E4"/>
<path fill-rule="evenodd" clip-rule="evenodd" d="M288.369 337.578C287.313 338.828 287.313 341.108 288.369 343.578L340.331 313.578C339.274 311.108 339.274 308.828 340.331 307.578L288.369 337.578Z" fill="#8BC5E4"/>
<path fill-rule="evenodd" clip-rule="evenodd" d="M288.369 343.578C289.434 346.043 291.4 348.318 293.522 349.543L345.484 319.543C343.362 318.318 341.396 316.043 340.331 313.578L288.369 343.578Z" fill="#8BC5E4"/>
<path fill-rule="evenodd" clip-rule="evenodd" d="M340.036 376.398C341.76 377.393 343.381 377.577 344.5 376.948L396.461 346.948C395.342 347.577 393.721 347.393 391.998 346.398L340.036 376.398Z" fill="#8BC5E4"/>
<path fill-rule="evenodd" clip-rule="evenodd" d="M344.493 376.952C344.751 376.807 344.983 376.62 345.183 376.39L397.145 346.39C396.945 346.62 396.713 346.807 396.455 346.952L344.493 376.952Z" fill="#8BC5E4"/>
<path fill-rule="evenodd" clip-rule="evenodd" d="M345.189 376.383C346.245 375.133 346.245 372.853 345.189 370.383L397.15 340.383C398.207 342.853 398.207 345.133 397.15 346.383L345.189 376.383Z" fill="#8BC5E4"/>
<path fill-rule="evenodd" clip-rule="evenodd" d="M345.189 370.383C344.124 367.918 342.158 365.643 340.036 364.418L391.998 334.418C394.119 335.643 396.085 337.918 397.151 340.383L345.189 370.383Z" fill="#8BC5E4"/>
<path fill-rule="evenodd" clip-rule="evenodd" d="M361.695 367.993C364.592 369.665 367.189 369.904 368.977 368.928L420.938 338.928C419.15 339.904 416.553 339.665 413.657 337.993L361.695 367.993Z" fill="#8BC5E4"/>
<path fill-rule="evenodd" clip-rule="evenodd" d="M368.974 368.93C370.527 368.083 371.471 366.321 371.473 363.786L423.435 333.786C423.433 336.321 422.489 338.083 420.936 338.93L368.974 368.93Z" fill="#8BC5E4"/>
<path fill-rule="evenodd" clip-rule="evenodd" d="M371.473 295.318C371.473 289.858 367.108 282.938 361.695 279.813L413.657 249.813C419.07 252.938 423.434 259.858 423.434 265.318L371.473 295.318Z" fill="#8BC5E4"/>
<path fill-rule="evenodd" clip-rule="evenodd" d="M206.919 270.163C206.919 253.419 210.44 245.845 214.706 243.306L266.668 213.306C262.402 215.845 258.881 223.419 258.881 240.163L206.919 270.163Z" fill="#8BC5E4"/>
<path fill-rule="evenodd" clip-rule="evenodd" d="M214.703 243.308C217.539 241.618 220.706 242.154 223.386 243.7L275.348 213.7C272.668 212.154 269.501 211.618 266.665 213.308L214.703 243.308Z" fill="#8BC5E4"/>
<path fill-rule="evenodd" clip-rule="evenodd" d="M223.391 243.703C230.051 247.548 239.993 260.878 239.993 289.258L291.954 259.258C291.954 230.878 282.012 217.548 275.353 213.703L223.391 243.703Z" fill="#8BC5E4"/>
<path fill-rule="evenodd" clip-rule="evenodd" d="M238.772 235.503C238.772 239.242 237.433 242.065 235.007 243.462L286.968 213.462C289.394 212.065 290.733 209.242 290.733 205.503L238.772 235.503Z" fill="#8BC5E4"/>
<path fill-rule="evenodd" clip-rule="evenodd" d="M235.015 243.458C234.787 243.589 234.55 243.708 234.303 243.814L286.265 213.814C286.512 213.708 286.749 213.589 286.977 213.458L235.015 243.458Z" fill="#8BC5E4"/>
<path fill-rule="evenodd" clip-rule="evenodd" d="M234.294 243.818C231.428 245.063 227.539 244.438 223.486 242.098L275.448 212.098C279.501 214.438 283.389 215.063 286.256 213.818L234.294 243.818Z" fill="#8BC5E4"/>
<path fill-rule="evenodd" clip-rule="evenodd" d="M223.487 242.098C219.434 239.758 215.545 235.883 212.679 231.338L264.64 201.338C267.507 205.883 271.395 209.758 275.448 212.098L223.487 242.098Z" fill="#8BC5E4"/>
<path fill-rule="evenodd" clip-rule="evenodd" d="M212.678 231.338C209.812 226.793 208.201 221.943 208.201 217.853L260.163 187.853C260.163 191.943 261.773 196.793 264.64 201.338L212.678 231.338Z" fill="#8BC5E4"/>
<path fill-rule="evenodd" clip-rule="evenodd" d="M208.201 217.853C208.201 214.124 209.547 211.305 211.968 209.905L263.929 179.905C261.508 181.305 260.162 184.124 260.163 187.853L208.201 217.853Z" fill="#8BC5E4"/>
<path fill-rule="evenodd" clip-rule="evenodd" d="M211.96 209.909C212.188 209.778 212.424 209.658 212.67 209.552L264.631 179.552C264.385 179.658 264.149 179.778 263.921 179.909L211.96 209.909Z" fill="#8BC5E4"/>
<path fill-rule="evenodd" clip-rule="evenodd" d="M212.679 209.548C215.545 208.313 219.434 208.938 223.487 211.278L275.448 181.278C271.395 178.938 267.507 178.313 264.64 179.548L212.679 209.548Z" fill="#8BC5E4"/>
<path fill-rule="evenodd" clip-rule="evenodd" d="M223.486 211.278C227.539 213.608 231.428 217.483 234.294 222.028L286.256 192.028C283.389 187.483 279.501 183.608 275.448 181.278L223.486 211.278Z" fill="#8BC5E4"/>
<path fill-rule="evenodd" clip-rule="evenodd" d="M234.294 222.028C237.161 226.563 238.772 231.413 238.772 235.503L290.733 205.503C290.733 201.413 289.123 196.563 286.256 192.028L234.294 222.028Z" fill="#8BC5E4"/>
<path fill-rule="evenodd" clip-rule="evenodd" d="M163.116 244.873C163.116 228.142 166.624 220.564 170.881 218.016L222.842 188.016C218.585 190.564 215.077 198.142 215.077 214.873L163.116 244.873Z" fill="#8BC5E4"/>
<path fill-rule="evenodd" clip-rule="evenodd" d="M170.888 218.011C173.721 216.319 176.885 216.854 179.565 218.4L231.527 188.4C228.847 186.854 225.683 186.319 222.85 188.011L170.888 218.011Z" fill="#8BC5E4"/>
<path fill-rule="evenodd" clip-rule="evenodd" d="M179.57 218.403C186.23 222.248 196.172 235.578 196.172 263.958L248.134 233.958C248.134 205.578 238.192 192.248 231.532 188.403L179.57 218.403Z" fill="#8BC5E4"/>
<path fill-rule="evenodd" clip-rule="evenodd" d="M194.951 210.203C194.959 213.946 193.614 216.766 191.193 218.166L243.154 188.166C245.575 186.766 246.92 183.946 246.912 180.203L194.951 210.203Z" fill="#8BC5E4"/>
<path fill-rule="evenodd" clip-rule="evenodd" d="M191.201 218.162C190.973 218.293 190.737 218.413 190.491 218.519L242.453 188.519C242.699 188.413 242.935 188.293 243.163 188.162L191.201 218.162Z" fill="#8BC5E4"/>
<path fill-rule="evenodd" clip-rule="evenodd" d="M190.482 218.523C187.616 219.758 183.727 219.143 179.674 216.803L231.636 186.803C235.689 189.143 239.577 189.758 242.444 188.523L190.482 218.523Z" fill="#8BC5E4"/>
<path fill-rule="evenodd" clip-rule="evenodd" d="M179.674 216.803C175.621 214.463 171.724 210.593 168.857 206.038L220.819 176.038C223.686 180.593 227.583 184.463 231.636 186.803L179.674 216.803Z" fill="#8BC5E4"/>
<path fill-rule="evenodd" clip-rule="evenodd" d="M168.857 206.038C165.991 201.493 164.38 196.643 164.389 192.558L216.35 162.558C216.342 166.643 217.952 171.493 220.819 176.038L168.857 206.038Z" fill="#8BC5E4"/>
<path fill-rule="evenodd" clip-rule="evenodd" d="M164.389 192.558C164.389 188.819 165.735 186 168.155 184.608L220.116 154.608C217.696 156 216.35 158.819 216.35 162.558L164.389 192.558Z" fill="#8BC5E4"/>
<path fill-rule="evenodd" clip-rule="evenodd" d="M168.148 184.612C168.376 184.481 168.612 184.362 168.858 184.257L220.819 154.257C220.573 154.362 220.337 154.481 220.109 154.612L168.148 184.612Z" fill="#8BC5E4"/>
<path fill-rule="evenodd" clip-rule="evenodd" d="M168.866 184.253C171.733 183.018 175.621 183.633 179.674 185.983L231.636 155.983C227.583 153.633 223.694 153.018 220.828 154.253L168.866 184.253Z" fill="#8BC5E4"/>
<path fill-rule="evenodd" clip-rule="evenodd" d="M179.674 185.983C188.109 190.853 194.951 201.693 194.951 210.203L246.913 180.203C246.913 171.693 240.071 160.853 231.636 155.983L179.674 185.983Z" fill="#8BC5E4"/>
<path fill-rule="evenodd" clip-rule="evenodd" d="M154.767 160.343C151.871 158.671 149.274 158.432 147.486 159.408L199.447 129.408C201.235 128.432 203.832 128.671 206.729 130.343L154.767 160.343Z" fill="#8BC5E4"/>
<path fill-rule="evenodd" clip-rule="evenodd" d="M147.489 159.406C145.936 160.253 144.992 162.015 144.99 164.55L196.952 134.55C196.954 132.015 197.898 130.253 199.451 129.406L147.489 159.406Z" fill="#8BC5E4"/>
<path fill-rule="evenodd" clip-rule="evenodd" d="M144.99 233.018C144.99 238.478 149.355 245.398 154.768 248.523L206.729 218.523C201.317 215.398 196.952 208.478 196.952 203.018L144.99 233.018Z" fill="#8BC5E4"/>
<path fill-rule="evenodd" clip-rule="evenodd" d="M176.426 269.958C174.703 268.963 173.082 268.779 171.968 269.411L223.929 239.411C225.043 238.779 226.664 238.963 228.388 239.958L176.426 269.958Z" fill="#8BC5E4"/>
<path fill-rule="evenodd" clip-rule="evenodd" d="M171.975 269.407C171.718 269.552 171.487 269.74 171.289 269.971L223.251 239.971C223.449 239.74 223.68 239.552 223.937 239.407L171.975 269.407Z" fill="#8BC5E4"/>
<path fill-rule="evenodd" clip-rule="evenodd" d="M171.282 269.978C170.217 271.223 170.217 273.503 171.282 275.978L223.244 245.978C222.179 243.503 222.179 241.223 223.244 239.978L171.282 269.978Z" fill="#8BC5E4"/>
<path fill-rule="evenodd" clip-rule="evenodd" d="M171.283 275.978C172.339 278.438 174.305 280.713 176.427 281.938L228.388 251.938C226.267 250.713 224.301 248.438 223.244 245.978L171.283 275.978Z" fill="#8BC5E4"/>
<path fill-rule="evenodd" clip-rule="evenodd" d="M222.958 308.803C224.682 309.798 226.303 309.982 227.417 309.35L279.379 279.35C278.265 279.982 276.644 279.798 274.92 278.803L222.958 308.803Z" fill="#8BC5E4"/>
<path fill-rule="evenodd" clip-rule="evenodd" d="M227.41 309.354C227.667 309.209 227.898 309.021 228.096 308.79L280.058 278.79C279.86 279.021 279.629 279.209 279.372 279.354L227.41 309.354Z" fill="#8BC5E4"/>
<path fill-rule="evenodd" clip-rule="evenodd" d="M228.103 308.783C229.168 307.538 229.168 305.258 228.103 302.783L280.064 272.783C281.129 275.258 281.129 277.538 280.064 278.783L228.103 308.783Z" fill="#8BC5E4"/>
<path fill-rule="evenodd" clip-rule="evenodd" d="M228.103 302.783C227.046 300.323 225.08 298.048 222.958 296.823L274.92 266.823C277.042 268.048 279.008 270.323 280.064 272.783L228.103 302.783Z" fill="#8BC5E4"/>
<path fill-rule="evenodd" clip-rule="evenodd" d="M244.618 300.398C247.514 302.07 250.111 302.309 251.899 301.333L303.861 271.333C302.073 272.309 299.476 272.07 296.579 270.398L244.618 300.398Z" fill="#8BC5E4"/>
<path fill-rule="evenodd" clip-rule="evenodd" d="M251.896 301.335C253.449 300.488 254.393 298.726 254.395 296.191L306.356 266.191C306.354 268.726 305.41 270.488 303.857 271.335L251.896 301.335Z" fill="#8BC5E4"/>
<path fill-rule="evenodd" clip-rule="evenodd" d="M254.395 227.723C254.395 222.263 250.03 215.343 244.618 212.218L296.579 182.218C301.992 185.343 306.357 192.263 306.357 197.723L254.395 227.723Z" fill="#8BC5E4"/>
<path fill-rule="evenodd" clip-rule="evenodd" d="M89.8413 202.568C89.8408 185.824 93.3618 178.25 97.6278 175.711L149.589 145.711C145.323 148.25 141.802 155.824 141.803 172.568L89.8413 202.568Z" fill="#8BC5E4"/>
<path fill-rule="evenodd" clip-rule="evenodd" d="M97.625 175.713C100.461 174.023 103.628 174.559 106.308 176.105L158.27 146.105C155.59 144.559 152.422 144.023 149.586 145.713L97.625 175.713Z" fill="#8BC5E4"/>
<path fill-rule="evenodd" clip-rule="evenodd" d="M106.313 176.108C112.956 179.943 122.915 193.283 122.915 221.663L174.877 191.663C174.877 163.283 164.917 149.943 158.275 146.108L106.313 176.108Z" fill="#8BC5E4"/>
<path fill-rule="evenodd" clip-rule="evenodd" d="M121.694 167.908C121.694 171.647 120.348 174.466 117.928 175.866L169.89 145.866C172.31 144.466 173.656 141.647 173.656 137.908L121.694 167.908Z" fill="#8BC5E4"/>
<path fill-rule="evenodd" clip-rule="evenodd" d="M117.935 175.862C117.707 175.993 117.471 176.113 117.225 176.219L169.187 146.219C169.433 146.113 169.669 145.993 169.897 145.862L117.935 175.862Z" fill="#8BC5E4"/>
<path fill-rule="evenodd" clip-rule="evenodd" d="M117.217 176.223C114.35 177.468 110.462 176.843 106.4 174.498L158.361 144.498C162.423 146.843 166.312 147.468 169.178 146.223L117.217 176.223Z" fill="#8BC5E4"/>
<path fill-rule="evenodd" clip-rule="evenodd" d="M106.4 174.498C102.347 172.158 98.4583 168.283 95.5918 163.738L147.553 133.738C150.42 138.283 154.308 142.158 158.361 144.498L106.4 174.498Z" fill="#8BC5E4"/>
<path fill-rule="evenodd" clip-rule="evenodd" d="M95.5917 163.738C92.7338 159.198 91.123 154.348 91.123 150.258L143.085 120.258C143.085 124.348 144.695 129.198 147.553 133.738L95.5917 163.738Z" fill="#8BC5E4"/>
<path fill-rule="evenodd" clip-rule="evenodd" d="M91.123 150.258C91.1228 146.302 92.6018 143.55 95.0308 142.226L146.992 112.226C144.563 113.55 143.084 116.302 143.085 120.258L91.123 150.258Z" fill="#8BC5E4"/>
<path fill-rule="evenodd" clip-rule="evenodd" d="M95.0288 142.227C97.8248 140.703 101.881 141.07 106.394 143.674L158.355 113.674C153.842 111.07 149.786 110.703 146.99 112.227L95.0288 142.227Z" fill="#8BC5E4"/>
<path fill-rule="evenodd" clip-rule="evenodd" d="M106.4 143.678C110.453 146.008 114.341 149.883 117.217 154.433L169.178 124.433C166.303 119.883 162.414 116.008 158.361 113.678L106.4 143.678Z" fill="#8BC5E4"/>
<path fill-rule="evenodd" clip-rule="evenodd" d="M117.216 154.433C120.083 158.968 121.694 163.818 121.694 167.908L173.655 137.908C173.655 133.818 172.044 128.968 169.178 124.433L117.216 154.433Z" fill="#8BC5E4"/>
<path fill-rule="evenodd" clip-rule="evenodd" d="M46.0205 177.268C46.0209 160.524 49.5409 152.95 53.8069 150.411L105.768 120.411C101.502 122.95 97.9824 130.524 97.982 147.268L46.0205 177.268Z" fill="#8BC5E4"/>
<path fill-rule="evenodd" clip-rule="evenodd" d="M53.8042 150.413C56.6402 148.723 59.8072 149.259 62.4872 150.805L114.449 120.805C111.769 119.259 108.602 118.723 105.766 120.413L53.8042 150.413Z" fill="#8BC5E4"/>
<path fill-rule="evenodd" clip-rule="evenodd" d="M62.4922 150.808C69.1433 154.648 79.0939 167.983 79.0939 196.363L131.055 166.363C131.055 137.983 121.105 124.648 114.454 120.808L62.4922 150.808Z" fill="#8BC5E4"/>
<path fill-rule="evenodd" clip-rule="evenodd" d="M77.8728 142.608C77.8728 146.347 76.5268 149.166 74.1128 150.57L126.074 120.57C128.488 119.166 129.834 116.347 129.834 112.608L77.8728 142.608Z" fill="#8BC5E4"/>
<path fill-rule="evenodd" clip-rule="evenodd" d="M74.1201 150.566C73.8941 150.698 73.6581 150.817 73.4131 150.924L125.375 120.924C125.62 120.817 125.856 120.698 126.082 120.566L74.1201 150.566Z" fill="#8BC5E4"/>
<path fill-rule="evenodd" clip-rule="evenodd" d="M73.4042 150.928C70.5377 152.163 66.6492 151.548 62.5962 149.208L114.558 119.208C118.611 121.548 122.499 122.163 125.366 120.928L73.4042 150.928Z" fill="#8BC5E4"/>
<path fill-rule="evenodd" clip-rule="evenodd" d="M62.5964 149.208C58.5348 146.863 54.6463 142.998 51.7798 138.443L103.741 108.443C106.608 112.998 110.496 116.863 114.558 119.208L62.5964 149.208Z" fill="#8BC5E4"/>
<path fill-rule="evenodd" clip-rule="evenodd" d="M51.7796 138.443C48.913 133.898 47.3022 129.048 47.3022 124.958L99.2637 94.958C99.2637 99.048 100.875 103.898 103.741 108.443L51.7796 138.443Z" fill="#8BC5E4"/>
<path fill-rule="evenodd" clip-rule="evenodd" d="M47.3022 124.958C47.3019 121.219 48.6479 118.4 51.0689 117.008L103.03 87.008C100.609 88.4 99.2634 91.219 99.2637 94.958L47.3022 124.958Z" fill="#8BC5E4"/>
<path fill-rule="evenodd" clip-rule="evenodd" d="M51.061 117.012C51.289 116.881 51.525 116.762 51.771 116.657L103.733 86.657C103.487 86.762 103.251 86.881 103.023 87.012L51.061 117.012Z" fill="#8BC5E4"/>
<path fill-rule="evenodd" clip-rule="evenodd" d="M51.7798 116.653C54.6463 115.418 58.5348 116.033 62.5964 118.388L114.558 88.388C110.496 86.033 106.608 85.418 103.741 86.653L51.7798 116.653Z" fill="#8BC5E4"/>
<path fill-rule="evenodd" clip-rule="evenodd" d="M62.5962 118.388C66.6492 120.728 70.529 124.588 73.3956 129.133L125.357 99.133C122.49 94.588 118.611 90.728 114.558 88.388L62.5962 118.388Z" fill="#8BC5E4"/>
<path fill-rule="evenodd" clip-rule="evenodd" d="M73.3955 129.133C76.262 133.678 77.8728 138.528 77.8728 142.608L129.834 112.608C129.834 108.528 128.224 103.678 125.357 99.133L73.3955 129.133Z" fill="#8BC5E4"/>
<path fill-rule="evenodd" clip-rule="evenodd" d="M37.6896 92.748C34.7932 91.076 32.1962 90.837 30.4082 91.813L82.3697 61.813C84.1577 60.837 86.7547 61.076 89.6512 62.748L37.6896 92.748Z" fill="#8BC5E4"/>
<path fill-rule="evenodd" clip-rule="evenodd" d="M30.4111 91.811C28.8581 92.658 27.9141 94.42 27.9121 96.955L79.8736 66.955C79.8756 64.42 80.8196 62.658 82.3726 61.811L30.4111 91.811Z" fill="#8BC5E4"/>
<path fill-rule="evenodd" clip-rule="evenodd" d="M27.9121 165.423C27.9121 170.883 32.2769 177.803 37.6895 180.928L89.6511 150.928C84.2384 147.803 79.8736 140.883 79.8736 135.423L27.9121 165.423Z" fill="#8BC5E4"/>
<path fill-rule="evenodd" clip-rule="evenodd" d="M59.3485 202.363C57.6248 201.368 56.0038 201.184 54.8848 201.813L106.846 171.813C107.965 171.184 109.586 171.368 111.31 172.363L59.3485 202.363Z" fill="#8BC5E4"/>
<path fill-rule="evenodd" clip-rule="evenodd" d="M54.8921 201.809C54.6341 201.954 54.4021 202.141 54.2021 202.371L106.164 172.371C106.364 172.141 106.596 171.954 106.854 171.809L54.8921 201.809Z" fill="#8BC5E4"/>
<path fill-rule="evenodd" clip-rule="evenodd" d="M54.1958 202.378C53.1392 203.628 53.1392 205.908 54.1958 208.378L106.157 178.378C105.101 175.908 105.101 173.628 106.157 172.378L54.1958 202.378Z" fill="#8BC5E4"/>
<path fill-rule="evenodd" clip-rule="evenodd" d="M54.1958 208.378C55.261 210.843 57.2269 213.118 59.3486 214.343L111.31 184.343C109.188 183.118 107.222 180.843 106.157 178.378L54.1958 208.378Z" fill="#8BC5E4"/>
<path fill-rule="evenodd" clip-rule="evenodd" d="M105.872 241.203C107.603 242.202 109.219 242.383 110.336 241.753L162.297 211.753C161.18 212.383 159.564 212.202 157.833 211.203L105.872 241.203Z" fill="#8BC5E4"/>
<path fill-rule="evenodd" clip-rule="evenodd" d="M110.329 241.757C110.587 241.613 110.818 241.425 111.018 241.195L162.98 211.195C162.78 211.425 162.549 211.613 162.291 211.757L110.329 241.757Z" fill="#8BC5E4"/>
<path fill-rule="evenodd" clip-rule="evenodd" d="M111.024 241.188C112.081 239.938 112.081 237.658 111.024 235.188L162.986 205.188C164.042 207.658 164.042 209.938 162.986 211.188L111.024 241.188Z" fill="#8BC5E4"/>
<path fill-rule="evenodd" clip-rule="evenodd" d="M111.024 235.188C109.959 232.723 108.002 230.453 105.872 229.223L157.833 199.223C159.964 200.453 161.921 202.723 162.986 205.188L111.024 235.188Z" fill="#8BC5E4"/>
<path fill-rule="evenodd" clip-rule="evenodd" d="M127.531 232.798C130.432 234.473 133.028 234.712 134.815 233.735L186.776 203.735C184.989 204.712 182.393 204.473 179.492 202.798L127.531 232.798Z" fill="#8BC5E4"/>
<path fill-rule="evenodd" clip-rule="evenodd" d="M134.813 233.736C136.364 232.889 137.306 231.126 137.308 228.591L189.269 198.591C189.267 201.126 188.325 202.889 186.774 203.736L134.813 233.736Z" fill="#8BC5E4"/>
<path fill-rule="evenodd" clip-rule="evenodd" d="M137.308 160.123C137.308 154.663 132.952 147.748 127.531 144.618L179.492 114.618C184.914 117.748 189.27 124.663 189.27 130.123L137.308 160.123Z" fill="#8BC5E4"/>
<path fill-rule="evenodd" clip-rule="evenodd" d="M12.1156 31.853C8.54693 29.793 5.32793 29.506 3.10693 30.717L55.0684 0.71702C57.2894 -0.49398 60.5084 -0.20698 64.0771 1.85302L12.1156 31.853Z" fill="#8BC5E4"/>
<path fill-rule="evenodd" clip-rule="evenodd" d="M3.11 30.715C1.18 31.765 0.002 33.943 0 37.068L51.9615 7.06803C51.9635 3.94303 53.1415 1.76503 55.0715 0.715027L3.11 30.715Z" fill="#8BC5E4"/>
<path fill-rule="evenodd" clip-rule="evenodd" d="M0 212.638C0 219.368 5.4473 228.003 12.1157 231.853L64.0772 201.853C57.4088 198.003 51.9615 189.368 51.9615 182.638L0 212.638Z" fill="#8BC5E4"/>
<path fill-rule="evenodd" clip-rule="evenodd" d="M386.256 447.863C389.825 449.923 393.044 450.21 395.265 448.999L447.226 418.999C445.005 420.21 441.786 419.923 438.217 417.863L386.256 447.863Z" fill="#8BC5E4"/>
<path fill-rule="evenodd" clip-rule="evenodd" d="M395.262 449.001C397.191 447.951 398.369 445.773 398.372 442.648L450.334 412.648C450.331 415.773 449.153 417.951 447.224 419.001L395.262 449.001Z" fill="#8BC5E4"/>
<path fill-rule="evenodd" clip-rule="evenodd" d="M398.372 267.078C398.372 260.348 392.924 251.713 386.256 247.863L438.217 217.863C444.886 221.713 450.333 230.348 450.333 237.078L398.372 267.078Z" fill="#8BC5E4"/>
<path fill-rule="evenodd" clip-rule="evenodd" d="M386.256 253.373C389.988 255.528 392.907 260.153 392.907 263.923L444.868 233.923C444.868 230.153 441.95 225.528 438.217 223.373L386.256 253.373Z" fill="#8BC5E4"/>
<path fill-rule="evenodd" clip-rule="evenodd" d="M392.907 439.483C392.907 441.235 392.276 442.444 391.227 443.02L443.189 413.02C444.238 412.444 444.869 411.235 444.869 409.483L392.907 439.483Z" fill="#8BC5E4"/>
<path fill-rule="evenodd" clip-rule="evenodd" d="M391.234 443.016C391.126 443.076 391.013 443.129 390.896 443.175L442.857 413.175C442.974 413.129 443.087 413.076 443.195 413.016L391.234 443.016Z" fill="#8BC5E4"/>
<path fill-rule="evenodd" clip-rule="evenodd" d="M390.898 443.174C389.71 443.644 388.082 443.406 386.261 442.356L438.222 412.356C440.043 413.406 441.671 413.644 442.859 413.174L390.898 443.174Z" fill="#8BC5E4"/>
<path fill-rule="evenodd" clip-rule="evenodd" d="M12.1159 226.343C8.38334 224.188 5.46484 219.563 5.46484 215.793L57.4263 185.793C57.4263 189.563 60.3448 194.188 64.0774 196.343L12.1159 226.343Z" fill="#8BC5E4"/>
<path fill-rule="evenodd" clip-rule="evenodd" d="M5.46484 40.233C5.46524 38.481 6.09524 37.272 7.14524 36.696L59.1067 6.69604C58.0567 7.27204 57.4267 8.48104 57.4263 10.233L5.46484 40.233Z" fill="#8BC5E4"/>
<path fill-rule="evenodd" clip-rule="evenodd" d="M7.13818 36.7C7.24618 36.64 7.35818 36.587 7.47518 36.541L59.4367 6.54105C59.3197 6.58705 59.2077 6.64005 59.0997 6.70005L7.13818 36.7Z" fill="#8BC5E4"/>
<path fill-rule="evenodd" clip-rule="evenodd" d="M7.47314 36.542C8.66214 36.072 10.2891 36.31 12.1101 37.36L64.0716 7.36004C62.2506 6.31004 60.6236 6.07204 59.4346 6.54204L7.47314 36.542Z" fill="#8BC5E4"/>
<path d="M324.015 337.768C324.015 309.888 333.766 307.428 340.469 311.298C347.129 315.143 357.071 328.473 357.071 356.853L324.015 337.768ZM355.85 303.098C355.858 307.193 354.248 310.183 351.381 311.418C348.515 312.653 344.626 312.038 340.573 309.698C336.52 307.358 332.632 303.493 329.765 298.938C326.89 294.388 325.288 289.543 325.288 285.453C325.288 281.363 326.899 278.373 329.765 277.148C332.632 275.913 336.52 276.528 340.573 278.878C349.017 283.753 355.85 294.588 355.85 303.098ZM280.194 312.468C280.194 284.588 289.945 282.128 296.648 285.998C303.308 289.843 313.25 303.173 313.25 331.553L280.194 312.468ZM312.038 277.803C312.038 281.893 310.427 284.883 307.56 286.118C304.694 287.353 300.805 286.738 296.752 284.398C292.699 282.058 288.811 278.193 285.944 273.638C283.078 269.093 281.467 264.243 281.467 260.153C281.467 256.063 283.078 253.073 285.944 251.848C288.811 250.613 292.699 251.228 296.752 253.578C300.805 255.918 304.694 259.783 307.56 264.328C310.427 268.873 312.038 273.723 312.038 277.803ZM271.854 227.943C266.433 224.813 262.085 226.703 262.085 232.163V300.623C262.085 306.083 266.433 312.993 271.854 316.123L306.434 336.088V345.018L293.522 337.563C291.4 336.338 289.434 336.343 288.369 337.578C287.313 338.828 287.313 341.108 288.369 343.578C289.434 346.043 291.4 348.318 293.522 349.543L340.036 376.398C342.158 377.623 344.124 377.618 345.189 376.383C346.246 375.133 346.246 372.853 345.189 370.383C344.124 367.918 342.158 365.643 340.036 364.418L327.124 356.963V348.033L361.695 367.993C367.108 371.118 371.473 369.238 371.473 363.778V295.318C371.473 289.858 367.108 282.938 361.695 279.813L271.854 227.943ZM206.919 270.163C206.919 242.283 216.68 239.828 223.391 243.703C230.051 247.548 239.993 260.878 239.993 289.258L206.919 270.163ZM238.772 235.503C238.772 239.593 237.17 242.588 234.295 243.818C231.428 245.063 227.54 244.438 223.487 242.098C219.434 239.758 215.545 235.883 212.679 231.338C209.812 226.793 208.201 221.943 208.201 217.853C208.201 213.773 209.812 210.783 212.679 209.548C215.545 208.313 219.434 208.938 223.487 211.278C227.54 213.608 231.428 217.483 234.295 222.028C237.161 226.563 238.772 231.413 238.772 235.503ZM163.116 244.873C163.116 216.993 172.859 214.528 179.57 218.403C186.23 222.248 196.172 235.578 196.172 263.958L163.116 244.873ZM194.951 210.203C194.96 214.298 193.349 217.288 190.482 218.523C187.616 219.758 183.727 219.143 179.674 216.803C175.621 214.463 171.724 210.593 168.858 206.038C165.991 201.493 164.38 196.643 164.389 192.558C164.389 188.468 166 185.478 168.866 184.253C171.733 183.018 175.621 183.633 179.674 185.983C188.109 190.853 194.951 201.693 194.951 210.203ZM154.767 160.343C149.355 157.218 144.99 159.098 144.99 164.558V233.018C144.99 238.478 149.355 245.398 154.767 248.523L189.348 268.488V277.418L176.427 269.958C174.305 268.733 172.339 268.738 171.283 269.978C170.217 271.223 170.217 273.503 171.283 275.978C172.339 278.438 174.305 280.713 176.427 281.938L222.958 308.803C225.08 310.028 227.046 310.023 228.102 308.783C229.168 307.538 229.168 305.258 228.102 302.783C227.046 300.323 225.08 298.048 222.958 296.823L210.037 289.363V280.433L244.618 300.398C250.03 303.523 254.395 301.643 254.395 296.183V227.723C254.395 222.263 250.03 215.343 244.618 212.218L154.767 160.343ZM89.8415 202.568C89.8415 174.688 99.6016 172.233 106.313 176.108C112.956 179.943 122.915 193.283 122.915 221.663L89.8415 202.568ZM121.694 167.908C121.694 171.998 120.083 174.988 117.217 176.223C114.35 177.468 110.462 176.843 106.4 174.498C102.347 172.158 98.4584 168.283 95.5919 163.738C92.734 159.198 91.1232 154.348 91.1232 150.258C91.1232 141.748 97.9648 138.808 106.4 143.678C110.453 146.008 114.341 149.883 117.217 154.433C120.083 158.968 121.694 163.818 121.694 167.908ZM46.0206 177.268C46.0206 149.388 55.7807 146.933 62.4924 150.808C69.1435 154.648 79.0941 167.983 79.0941 196.363L46.0206 177.268ZM77.873 142.608C77.873 146.698 76.2622 149.688 73.4043 150.928C70.5378 152.163 66.6493 151.548 62.5963 149.208C58.5347 146.863 54.6462 142.998 51.7797 138.443C48.9131 133.898 47.3023 129.048 47.3023 124.958C47.3023 120.868 48.9131 117.878 51.7797 116.653C54.6462 115.418 58.5347 116.033 62.5963 118.388C66.6493 120.728 70.5291 124.588 73.3957 129.133C76.2622 133.678 77.873 138.528 77.873 142.608ZM37.6894 92.748C32.2768 89.623 27.912 91.503 27.912 96.963V165.423C27.912 170.883 32.2768 177.803 37.6894 180.928L72.2698 200.893V209.823L59.3487 202.363C57.227 201.138 55.2611 201.143 54.1959 202.378C53.1393 203.628 53.1393 205.908 54.1959 208.378C55.2611 210.843 57.227 213.118 59.3487 214.343L105.872 241.203C108.002 242.433 109.959 242.423 111.024 241.188C112.081 239.938 112.081 237.658 111.024 235.188C109.959 232.723 108.002 230.453 105.872 229.223L92.9505 221.763V212.833L127.531 232.798C132.952 235.928 137.308 234.043 137.308 228.583V160.123C137.308 154.663 132.952 147.748 127.531 144.618L37.6894 92.748ZM12.1157 31.853C5.4473 28.003 0 30.348 0 37.078V212.638C0 219.368 5.4473 228.003 12.1157 231.853L386.256 447.863C392.924 451.713 398.372 449.368 398.372 442.638V267.078C398.372 260.348 392.924 251.713 386.256 247.863L12.1157 31.853ZM12.1157 37.363L386.256 253.373C389.989 255.528 392.907 260.153 392.907 263.923V439.483C392.907 443.253 389.989 444.508 386.256 442.353L12.1157 226.343C8.38313 224.188 5.46462 219.563 5.46462 215.793V40.233C5.46462 36.463 8.38313 35.208 12.1157 37.363Z" fill="#8BC5E4"/>
<path fill-rule="evenodd" clip-rule="evenodd" d="M12.1157 37.363L386.256 253.373C389.989 255.528 392.907 260.153 392.907 263.923V439.483C392.907 443.253 389.989 444.508 386.256 442.353L12.1157 226.343C8.38313 224.188 5.46462 219.563 5.46462 215.793V40.233C5.46462 36.463 8.38313 35.208 12.1157 37.363ZM262.085 232.163C262.085 226.703 266.433 224.813 271.854 227.943L361.695 279.813C367.108 282.938 371.473 289.858 371.473 295.318V363.778C371.473 369.238 367.108 371.118 361.695 367.993L327.124 348.033V356.963L340.036 364.418C342.158 365.643 344.124 367.918 345.189 370.383C346.246 372.853 346.246 375.133 345.189 376.383C344.124 377.618 342.158 377.623 340.036 376.398L293.522 349.543C291.4 348.318 289.434 346.043 288.369 343.578C287.313 341.108 287.313 338.828 288.369 337.578C289.434 336.343 291.4 336.338 293.522 337.563L306.434 345.018V336.088L271.854 316.123C266.433 312.993 262.085 306.083 262.085 300.623V232.163ZM144.99 164.558C144.99 159.098 149.355 157.218 154.767 160.343L244.618 212.218C250.03 215.343 254.395 222.263 254.395 227.723V296.183C254.395 301.643 250.03 303.523 244.618 300.398L210.037 280.433V289.363L222.958 296.823C225.08 298.048 227.046 300.323 228.102 302.783C229.168 305.258 229.168 307.538 228.102 308.783C227.046 310.023 225.08 310.028 222.958 308.803L176.427 281.938C174.305 280.713 172.339 278.438 171.283 275.978C170.217 273.503 170.217 271.223 171.283 269.978C172.339 268.738 174.305 268.733 176.427 269.958L189.348 277.418V268.488L154.767 248.523C149.355 245.398 144.99 238.478 144.99 233.018V164.558ZM27.912 96.963C27.912 91.503 32.2768 89.623 37.6894 92.748L127.531 144.618C132.952 147.748 137.308 154.663 137.308 160.123V228.583C137.308 234.043 132.952 235.928 127.531 232.798L92.9505 212.833V221.763L105.872 229.223C108.002 230.453 109.959 232.723 111.024 235.188C112.081 237.658 112.081 239.938 111.024 241.188C109.959 242.423 108.002 242.433 105.872 241.203L59.3487 214.343C57.227 213.118 55.2611 210.843 54.1959 208.378C53.1393 205.908 53.1393 203.628 54.1959 202.378C55.2611 201.143 57.227 201.138 59.3487 202.363L72.2698 209.823V200.893L37.6894 180.928C32.2768 177.803 27.912 170.883 27.912 165.423V96.963Z" fill="white"/>
<path d="M206.919 270.163C206.919 242.283 216.68 239.828 223.391 243.703C230.051 247.548 239.993 260.878 239.993 289.258L206.919 270.163Z" fill="white"/>
<path d="M238.772 235.503C238.772 239.593 237.17 242.588 234.295 243.818C231.428 245.063 227.54 244.438 223.487 242.098C219.434 239.758 215.545 235.883 212.679 231.338C209.812 226.793 208.201 221.943 208.201 217.853C208.201 213.773 209.812 210.783 212.679 209.548C215.545 208.313 219.434 208.938 223.487 211.278C227.54 213.608 231.428 217.483 234.295 222.028C237.161 226.563 238.772 231.413 238.772 235.503Z" fill="white"/>
<path d="M163.116 244.873C163.116 216.993 172.859 214.528 179.57 218.403C186.23 222.248 196.172 235.578 196.172 263.958L163.116 244.873Z" fill="white"/>
<path d="M194.951 210.203C194.96 214.298 193.349 217.288 190.482 218.523C187.616 219.758 183.727 219.143 179.674 216.803C175.621 214.463 171.724 210.593 168.858 206.038C165.991 201.493 164.38 196.643 164.389 192.558C164.389 188.468 166 185.478 168.866 184.253C171.733 183.018 175.621 183.633 179.674 185.983C188.109 190.853 194.951 201.693 194.951 210.203Z" fill="white"/>
<path d="M89.8415 202.568C89.8415 174.688 99.6016 172.233 106.313 176.108C112.956 179.943 122.915 193.283 122.915 221.663L89.8415 202.568Z" fill="white"/>
<path d="M121.694 167.908C121.694 171.998 120.083 174.988 117.217 176.223C114.35 177.468 110.462 176.843 106.4 174.498C102.347 172.158 98.4584 168.283 95.5919 163.738C92.734 159.198 91.1232 154.348 91.1232 150.258C91.1232 141.748 97.9648 138.808 106.4 143.678C110.453 146.008 114.341 149.883 117.217 154.433C120.083 158.968 121.694 163.818 121.694 167.908Z" fill="white"/>
<path d="M46.0206 177.268C46.0206 149.388 55.7807 146.933 62.4924 150.808C69.1435 154.648 79.0941 167.983 79.0941 196.363L46.0206 177.268Z" fill="white"/>
<path d="M77.873 142.608C77.873 146.698 76.2622 149.688 73.4043 150.928C70.5378 152.163 66.6493 151.548 62.5963 149.208C58.5347 146.863 54.6462 142.998 51.7797 138.443C48.9131 133.898 47.3023 129.048 47.3023 124.958C47.3023 120.868 48.9131 117.878 51.7797 116.653C54.6462 115.418 58.5347 116.033 62.5963 118.388C66.6493 120.728 70.5291 124.588 73.3957 129.133C76.2622 133.678 77.873 138.528 77.873 142.608Z" fill="white"/>
<path d="M312.038 277.803C312.038 281.893 310.427 284.883 307.56 286.118C304.694 287.353 300.805 286.738 296.752 284.398C292.699 282.058 288.811 278.193 285.944 273.638C283.078 269.093 281.467 264.243 281.467 260.153C281.467 256.063 283.078 253.073 285.944 251.848C288.811 250.613 292.699 251.228 296.752 253.578C300.805 255.918 304.694 259.783 307.56 264.328C310.427 268.873 312.038 273.723 312.038 277.803Z" fill="white"/>
<path d="M355.85 303.098C355.858 307.193 354.248 310.183 351.381 311.418C348.515 312.653 344.626 312.038 340.573 309.698C336.52 307.358 332.632 303.493 329.765 298.938C326.89 294.388 325.288 289.543 325.288 285.453C325.288 281.363 326.899 278.373 329.765 277.148C332.632 275.913 336.52 276.528 340.573 278.878C349.017 283.753 355.85 294.588 355.85 303.098Z" fill="white"/>
<path d="M324.015 337.768C324.015 309.888 333.766 307.428 340.469 311.298C347.129 315.143 357.071 328.473 357.071 356.853L324.015 337.768Z" fill="white"/>
<path d="M280.194 312.468C280.194 284.588 289.945 282.128 296.648 285.998C303.308 289.843 313.25 303.173 313.25 331.553L280.194 312.468Z" fill="white"/>
</svg>
