<svg width="274" height="349" viewBox="0 0 274 349" fill="none" xmlns="http://www.w3.org/2000/svg">
<path fill-rule="evenodd" clip-rule="evenodd" d="M88.0146 105.059L133.213 131.154L185.174 101.154L139.976 75.0594L88.0146 105.059Z" fill="#8BC5E4"/>
<path fill-rule="evenodd" clip-rule="evenodd" d="M133.212 131.154V277.514L185.173 247.514V101.154L133.212 131.154Z" fill="#8BC5E4"/>
<path fill-rule="evenodd" clip-rule="evenodd" d="M133.213 277.514L88.0146 251.419L139.976 221.419L185.174 247.514L133.213 277.514Z" fill="#8BC5E4"/>
<path fill-rule="evenodd" clip-rule="evenodd" d="M88.0146 251.419V105.059L139.976 75.0594V221.419L88.0146 251.419Z" fill="#8BC5E4"/>
<path fill-rule="evenodd" clip-rule="evenodd" d="M88.0146 105.059L139.976 75.0594L88.0146 105.059Z" fill="#8BC5E4"/>
<path fill-rule="evenodd" clip-rule="evenodd" d="M98.8398 111.309V128.329L150.801 98.3294V81.3094L98.8398 111.309Z" fill="#8BC5E4"/>
<path fill-rule="evenodd" clip-rule="evenodd" d="M98.8399 128.329L88.0146 122.079L139.976 92.0793L150.801 98.3293L98.8399 128.329Z" fill="#8BC5E4"/>
<path fill-rule="evenodd" clip-rule="evenodd" d="M88.0146 122.079V126.239L139.976 96.2393V92.0793L88.0146 122.079Z" fill="#8BC5E4"/>
<path fill-rule="evenodd" clip-rule="evenodd" d="M88.0146 126.239L113.614 141.019L165.576 111.019L139.976 96.2394L88.0146 126.239Z" fill="#8BC5E4"/>
<path fill-rule="evenodd" clip-rule="evenodd" d="M113.614 141.019V163.559L165.576 133.559V111.019L113.614 141.019Z" fill="#8BC5E4"/>
<path fill-rule="evenodd" clip-rule="evenodd" d="M113.614 163.559L88.0146 148.779L139.976 118.779L165.576 133.559L113.614 163.559Z" fill="#8BC5E4"/>
<path fill-rule="evenodd" clip-rule="evenodd" d="M88.0146 148.779V152.949L139.976 122.949V118.779L88.0146 148.779Z" fill="#8BC5E4"/>
<path fill-rule="evenodd" clip-rule="evenodd" d="M88.0146 152.949L95.2892 157.149L147.251 127.149L139.976 122.949L88.0146 152.949Z" fill="#8BC5E4"/>
<path fill-rule="evenodd" clip-rule="evenodd" d="M95.2891 157.149V180.339L147.251 150.339V127.149L95.2891 157.149Z" fill="#8BC5E4"/>
<path fill-rule="evenodd" clip-rule="evenodd" d="M95.2892 180.339L88.0146 176.139L139.976 146.139L147.251 150.339L95.2892 180.339Z" fill="#8BC5E4"/>
<path fill-rule="evenodd" clip-rule="evenodd" d="M88.0146 176.139V180.309L139.976 150.309V146.139L88.0146 176.139Z" fill="#8BC5E4"/>
<path fill-rule="evenodd" clip-rule="evenodd" d="M88.0146 180.309L108.271 192.004L160.232 162.004L139.976 150.309L88.0146 180.309Z" fill="#8BC5E4"/>
<path fill-rule="evenodd" clip-rule="evenodd" d="M108.271 192.004V214.874L160.232 184.874V162.004L108.271 192.004Z" fill="#8BC5E4"/>
<path fill-rule="evenodd" clip-rule="evenodd" d="M108.271 214.874L88.0146 203.179L139.976 173.179L160.232 184.874L108.271 214.874Z" fill="#8BC5E4"/>
<path fill-rule="evenodd" clip-rule="evenodd" d="M88.0146 203.179V207.349L139.976 177.349V173.179L88.0146 203.179Z" fill="#8BC5E4"/>
<path fill-rule="evenodd" clip-rule="evenodd" d="M88.0146 207.349L118.646 225.034L170.607 195.034L139.976 177.349L88.0146 207.349Z" fill="#8BC5E4"/>
<path fill-rule="evenodd" clip-rule="evenodd" d="M118.646 225.034V248.224L170.607 218.224V195.034L118.646 225.034Z" fill="#8BC5E4"/>
<path fill-rule="evenodd" clip-rule="evenodd" d="M118.646 248.224L88.0146 230.539L139.976 200.539L170.607 218.224L118.646 248.224Z" fill="#8BC5E4"/>
<path fill-rule="evenodd" clip-rule="evenodd" d="M88.0146 230.539V234.709L139.976 204.709V200.539L88.0146 230.539Z" fill="#8BC5E4"/>
<path fill-rule="evenodd" clip-rule="evenodd" d="M88.0146 234.709L97.4456 240.154L149.407 210.154L139.976 204.709L88.0146 234.709Z" fill="#8BC5E4"/>
<path fill-rule="evenodd" clip-rule="evenodd" d="M97.4453 240.154V256.864L149.407 226.864V210.154L97.4453 240.154Z" fill="#8BC5E4"/>
<path fill-rule="evenodd" clip-rule="evenodd" d="M97.4453 256.864L101.013 258.924L152.975 228.924L149.407 226.864L97.4453 256.864Z" fill="#8BC5E4"/>
<path fill-rule="evenodd" clip-rule="evenodd" d="M101.014 258.924V242.214L152.975 212.214V228.924L101.014 258.924Z" fill="#8BC5E4"/>
<path fill-rule="evenodd" clip-rule="evenodd" d="M101.014 242.214L133.212 260.804L185.174 230.804L152.975 212.214L101.014 242.214Z" fill="#8BC5E4"/>
<path fill-rule="evenodd" clip-rule="evenodd" d="M133.212 260.804V256.634L185.174 226.634V230.804L133.212 260.804Z" fill="#8BC5E4"/>
<path fill-rule="evenodd" clip-rule="evenodd" d="M133.212 256.634L122.223 250.289L174.184 220.289L185.174 226.634L133.212 256.634Z" fill="#8BC5E4"/>
<path fill-rule="evenodd" clip-rule="evenodd" d="M122.223 250.289V227.099L174.184 197.099V220.289L122.223 250.289Z" fill="#8BC5E4"/>
<path fill-rule="evenodd" clip-rule="evenodd" d="M122.223 227.099L133.212 233.444L185.174 203.444L174.184 197.099L122.223 227.099Z" fill="#8BC5E4"/>
<path fill-rule="evenodd" clip-rule="evenodd" d="M133.212 233.444V229.274L185.174 199.274V203.444L133.212 233.444Z" fill="#8BC5E4"/>
<path fill-rule="evenodd" clip-rule="evenodd" d="M133.212 229.274L111.839 216.934L163.8 186.934L185.174 199.274L133.212 229.274Z" fill="#8BC5E4"/>
<path fill-rule="evenodd" clip-rule="evenodd" d="M111.839 216.934V194.064L163.8 164.064V186.934L111.839 216.934Z" fill="#8BC5E4"/>
<path fill-rule="evenodd" clip-rule="evenodd" d="M111.839 194.064L133.212 206.404L185.174 176.404L163.8 164.064L111.839 194.064Z" fill="#8BC5E4"/>
<path fill-rule="evenodd" clip-rule="evenodd" d="M133.212 206.404V202.234L185.174 172.234V176.404L133.212 206.404Z" fill="#8BC5E4"/>
<path fill-rule="evenodd" clip-rule="evenodd" d="M133.212 202.234L98.8564 182.399L150.818 152.399L185.173 172.234L133.212 202.234Z" fill="#8BC5E4"/>
<path fill-rule="evenodd" clip-rule="evenodd" d="M98.8564 182.399V159.209L150.818 129.209V152.399L98.8564 182.399Z" fill="#8BC5E4"/>
<path fill-rule="evenodd" clip-rule="evenodd" d="M98.8564 159.209L133.212 179.044L185.173 149.044L150.818 129.209L98.8564 159.209Z" fill="#8BC5E4"/>
<path fill-rule="evenodd" clip-rule="evenodd" d="M133.212 179.044V174.874L185.174 144.874V149.044L133.212 179.044Z" fill="#8BC5E4"/>
<path fill-rule="evenodd" clip-rule="evenodd" d="M133.212 174.874L117.182 165.619L169.143 135.619L185.173 144.874L133.212 174.874Z" fill="#8BC5E4"/>
<path fill-rule="evenodd" clip-rule="evenodd" d="M117.182 165.619V143.079L169.143 113.079V135.619L117.182 165.619Z" fill="#8BC5E4"/>
<path fill-rule="evenodd" clip-rule="evenodd" d="M117.182 143.079L133.212 152.334L185.173 122.334L169.143 113.079L117.182 143.079Z" fill="#8BC5E4"/>
<path fill-rule="evenodd" clip-rule="evenodd" d="M133.212 152.334V148.174L185.174 118.174V122.334L133.212 152.334Z" fill="#8BC5E4"/>
<path fill-rule="evenodd" clip-rule="evenodd" d="M133.212 148.174L102.407 130.389L154.369 100.389L185.173 118.174L133.212 148.174Z" fill="#8BC5E4"/>
<path fill-rule="evenodd" clip-rule="evenodd" d="M102.407 130.389V113.369L154.369 83.3694V100.389L102.407 130.389Z" fill="#8BC5E4"/>
<path fill-rule="evenodd" clip-rule="evenodd" d="M102.408 113.369L98.8398 111.309L150.801 81.3094L154.369 83.3694L102.408 113.369Z" fill="#8BC5E4"/>
<path fill-rule="evenodd" clip-rule="evenodd" d="M98.8398 111.309L150.801 81.3094L98.8398 111.309Z" fill="#8BC5E4"/>
<path fill-rule="evenodd" clip-rule="evenodd" d="M15.1982 199.369V214.959L67.1598 184.959V169.369L15.1982 199.369Z" fill="#8BC5E4"/>
<path fill-rule="evenodd" clip-rule="evenodd" d="M15.1982 214.959L45.5351 232.474L97.4966 202.474L67.1598 184.959L15.1982 214.959Z" fill="#8BC5E4"/>
<path fill-rule="evenodd" clip-rule="evenodd" d="M45.5352 232.474V216.884L97.4967 186.884V202.474L45.5352 232.474Z" fill="#8BC5E4"/>
<path fill-rule="evenodd" clip-rule="evenodd" d="M30.3633 153.104L82.3248 123.104L30.3633 153.104Z" fill="#8BC5E4"/>
<path fill-rule="evenodd" clip-rule="evenodd" d="M176.453 292.469V308.059L228.415 278.059V262.469L176.453 292.469Z" fill="#8BC5E4"/>
<path fill-rule="evenodd" clip-rule="evenodd" d="M176.453 308.059L206.79 325.574L258.752 295.574L228.415 278.059L176.453 308.059Z" fill="#8BC5E4"/>
<path fill-rule="evenodd" clip-rule="evenodd" d="M206.789 325.574V309.984L258.751 279.984V295.574L206.789 325.574Z" fill="#8BC5E4"/>
<path fill-rule="evenodd" clip-rule="evenodd" d="M191.617 246.204L243.579 216.204L191.617 246.204Z" fill="#8BC5E4"/>
<path fill-rule="evenodd" clip-rule="evenodd" d="M43.9941 117.354L65.2031 147.199L117.165 117.199L95.9556 87.3544L43.9941 117.354Z" fill="#8BC5E4"/>
<path fill-rule="evenodd" clip-rule="evenodd" d="M65.2031 147.199L43.9941 152.554L95.9556 122.554L117.165 117.199L65.2031 147.199Z" fill="#8BC5E4"/>
<path fill-rule="evenodd" clip-rule="evenodd" d="M43.9941 152.554V140.584L95.9556 110.584V122.554L43.9941 152.554Z" fill="#8BC5E4"/>
<path fill-rule="evenodd" clip-rule="evenodd" d="M43.9938 140.584L19.6758 126.544L71.6373 96.5444L95.9553 110.584L43.9938 140.584Z" fill="#8BC5E4"/>
<path fill-rule="evenodd" clip-rule="evenodd" d="M19.6758 126.544V115.294L71.6373 85.2944V96.5444L19.6758 126.544Z" fill="#8BC5E4"/>
<path fill-rule="evenodd" clip-rule="evenodd" d="M19.6758 115.294L43.9938 129.334L95.9553 99.3344L71.6373 85.2944L19.6758 115.294Z" fill="#8BC5E4"/>
<path fill-rule="evenodd" clip-rule="evenodd" d="M43.9941 129.334V117.354L95.9556 87.3544V99.3344L43.9941 129.334Z" fill="#8BC5E4"/>
<path fill-rule="evenodd" clip-rule="evenodd" d="M43.9941 117.354L95.9556 87.3544L43.9941 117.354Z" fill="#8BC5E4"/>
<path fill-rule="evenodd" clip-rule="evenodd" d="M40.876 68.4744V80.4544L92.8375 50.4544V38.4744L40.876 68.4744Z" fill="#8BC5E4"/>
<path fill-rule="evenodd" clip-rule="evenodd" d="M40.876 80.4544L65.2027 94.4994L117.164 64.4994L92.8375 50.4544L40.876 80.4544Z" fill="#8BC5E4"/>
<path fill-rule="evenodd" clip-rule="evenodd" d="M65.2031 94.4994V105.749L117.165 75.7494V64.4994L65.2031 94.4994Z" fill="#8BC5E4"/>
<path fill-rule="evenodd" clip-rule="evenodd" d="M65.2027 105.749L40.876 91.7044L92.8375 61.7044L117.164 75.7494L65.2027 105.749Z" fill="#8BC5E4"/>
<path fill-rule="evenodd" clip-rule="evenodd" d="M40.876 91.7044V103.674L92.8375 73.6744V61.7044L40.876 91.7044Z" fill="#8BC5E4"/>
<path fill-rule="evenodd" clip-rule="evenodd" d="M40.8761 103.674L19.6758 73.8344L71.6373 43.8344L92.8376 73.6744L40.8761 103.674Z" fill="#8BC5E4"/>
<path fill-rule="evenodd" clip-rule="evenodd" d="M19.6758 73.8344L40.8761 68.4744L92.8376 38.4744L71.6373 43.8344L19.6758 73.8344Z" fill="#8BC5E4"/>
<path fill-rule="evenodd" clip-rule="evenodd" d="M40.876 68.4744L92.8375 38.4744L40.876 68.4744Z" fill="#8BC5E4"/>
<path fill-rule="evenodd" clip-rule="evenodd" d="M58.439 190.824L45.5352 194.084L97.4967 164.084L110.4 160.824L58.439 190.824Z" fill="#8BC5E4"/>
<path fill-rule="evenodd" clip-rule="evenodd" d="M45.5352 194.084L58.439 212.244L110.4 182.244L97.4967 164.084L45.5352 194.084Z" fill="#8BC5E4"/>
<path fill-rule="evenodd" clip-rule="evenodd" d="M58.4395 212.244V204.954L110.401 174.954V182.244L58.4395 212.244Z" fill="#8BC5E4"/>
<path fill-rule="evenodd" clip-rule="evenodd" d="M58.4395 204.954L73.8114 213.829L125.773 183.829L110.401 174.954L58.4395 204.954Z" fill="#8BC5E4"/>
<path fill-rule="evenodd" clip-rule="evenodd" d="M73.8115 213.829V221.119L125.773 191.119V183.829L73.8115 213.829Z" fill="#8BC5E4"/>
<path fill-rule="evenodd" clip-rule="evenodd" d="M73.8115 221.119L86.7067 217.854L138.668 187.854L125.773 191.119L73.8115 221.119Z" fill="#8BC5E4"/>
<path fill-rule="evenodd" clip-rule="evenodd" d="M86.7067 217.854L73.8115 199.699L125.773 169.699L138.668 187.854L86.7067 217.854Z" fill="#8BC5E4"/>
<path fill-rule="evenodd" clip-rule="evenodd" d="M73.8115 199.699V206.989L125.773 176.989V169.699L73.8115 199.699Z" fill="#8BC5E4"/>
<path fill-rule="evenodd" clip-rule="evenodd" d="M73.8114 206.989L58.4395 198.114L110.401 168.114L125.773 176.989L73.8114 206.989Z" fill="#8BC5E4"/>
<path fill-rule="evenodd" clip-rule="evenodd" d="M58.4395 198.114V190.824L110.401 160.824V168.114L58.4395 198.114Z" fill="#8BC5E4"/>
<path fill-rule="evenodd" clip-rule="evenodd" d="M58.4395 190.824L110.401 160.824L58.4395 190.824Z" fill="#8BC5E4"/>
<path fill-rule="evenodd" clip-rule="evenodd" d="M147.918 242.484L135.022 245.749L186.984 215.749L199.879 212.484L147.918 242.484Z" fill="#8BC5E4"/>
<path fill-rule="evenodd" clip-rule="evenodd" d="M135.022 245.749L147.918 263.904L199.879 233.904L186.984 215.749L135.022 245.749Z" fill="#8BC5E4"/>
<path fill-rule="evenodd" clip-rule="evenodd" d="M147.917 263.904V256.614L199.879 226.614V233.904L147.917 263.904Z" fill="#8BC5E4"/>
<path fill-rule="evenodd" clip-rule="evenodd" d="M147.917 256.614L163.289 265.489L215.25 235.489L199.879 226.614L147.917 256.614Z" fill="#8BC5E4"/>
<path fill-rule="evenodd" clip-rule="evenodd" d="M163.289 265.489V272.779L215.251 242.779V235.489L163.289 265.489Z" fill="#8BC5E4"/>
<path fill-rule="evenodd" clip-rule="evenodd" d="M163.289 272.779L176.193 269.519L228.154 239.519L215.251 242.779L163.289 272.779Z" fill="#8BC5E4"/>
<path fill-rule="evenodd" clip-rule="evenodd" d="M176.193 269.519L163.289 251.359L215.251 221.359L228.154 239.519L176.193 269.519Z" fill="#8BC5E4"/>
<path fill-rule="evenodd" clip-rule="evenodd" d="M163.289 251.359V258.649L215.251 228.649V221.359L163.289 251.359Z" fill="#8BC5E4"/>
<path fill-rule="evenodd" clip-rule="evenodd" d="M163.289 258.649L147.917 249.774L199.879 219.774L215.25 228.649L163.289 258.649Z" fill="#8BC5E4"/>
<path fill-rule="evenodd" clip-rule="evenodd" d="M147.917 249.774V242.484L199.879 212.484V219.774L147.917 249.774Z" fill="#8BC5E4"/>
<path fill-rule="evenodd" clip-rule="evenodd" d="M147.917 242.484L199.879 212.484L147.917 242.484Z" fill="#8BC5E4"/>
<path fill-rule="evenodd" clip-rule="evenodd" d="M180.567 196.154L159.366 201.514L211.328 171.514L232.528 166.154L180.567 196.154Z" fill="#8BC5E4"/>
<path fill-rule="evenodd" clip-rule="evenodd" d="M159.366 201.514L180.567 231.354L232.528 201.354L211.328 171.514L159.366 201.514Z" fill="#8BC5E4"/>
<path fill-rule="evenodd" clip-rule="evenodd" d="M180.566 231.354V219.374L232.528 189.374V201.354L180.566 231.354Z" fill="#8BC5E4"/>
<path fill-rule="evenodd" clip-rule="evenodd" d="M180.566 219.374L204.893 233.419L256.855 203.419L232.528 189.374L180.566 219.374Z" fill="#8BC5E4"/>
<path fill-rule="evenodd" clip-rule="evenodd" d="M204.893 233.419V222.169L256.854 192.169V203.419L204.893 233.419Z" fill="#8BC5E4"/>
<path fill-rule="evenodd" clip-rule="evenodd" d="M204.893 222.169L180.566 208.124L232.528 178.124L256.855 192.169L204.893 222.169Z" fill="#8BC5E4"/>
<path fill-rule="evenodd" clip-rule="evenodd" d="M180.566 208.124V196.154L232.528 166.154V178.124L180.566 208.124Z" fill="#8BC5E4"/>
<path fill-rule="evenodd" clip-rule="evenodd" d="M180.566 196.154L232.528 166.154L180.566 196.154Z" fill="#8BC5E4"/>
<path fill-rule="evenodd" clip-rule="evenodd" d="M183.684 150.874V162.844L235.645 132.844V120.874L183.684 150.874Z" fill="#8BC5E4"/>
<path fill-rule="evenodd" clip-rule="evenodd" d="M183.684 162.844L159.366 148.804L211.328 118.804L235.646 132.844L183.684 162.844Z" fill="#8BC5E4"/>
<path fill-rule="evenodd" clip-rule="evenodd" d="M159.366 148.804V160.054L211.328 130.054V118.804L159.366 148.804Z" fill="#8BC5E4"/>
<path fill-rule="evenodd" clip-rule="evenodd" d="M159.366 160.054L183.684 174.094L235.646 144.094L211.328 130.054L159.366 160.054Z" fill="#8BC5E4"/>
<path fill-rule="evenodd" clip-rule="evenodd" d="M183.684 174.094V186.074L235.645 156.074V144.094L183.684 174.094Z" fill="#8BC5E4"/>
<path fill-rule="evenodd" clip-rule="evenodd" d="M183.684 186.074L204.892 180.719L256.854 150.719L235.645 156.074L183.684 186.074Z" fill="#8BC5E4"/>
<path fill-rule="evenodd" clip-rule="evenodd" d="M204.892 180.719L183.684 150.874L235.645 120.874L256.854 150.719L204.892 180.719Z" fill="#8BC5E4"/>
<path fill-rule="evenodd" clip-rule="evenodd" d="M183.684 150.874L235.645 120.874L183.684 150.874Z" fill="#8BC5E4"/>
<path fill-rule="evenodd" clip-rule="evenodd" d="M0 37.5744V213.144L51.9615 183.144V7.57437L0 37.5744Z" fill="#8BC5E4"/>
<path fill-rule="evenodd" clip-rule="evenodd" d="M10.4619 231.404L211.233 347.319L263.194 317.319L62.4234 201.404L10.4619 231.404Z" fill="#8BC5E4"/>
<path fill-rule="evenodd" clip-rule="evenodd" d="M221.702 341.144V165.574L273.664 135.574V311.144L221.702 341.144Z" fill="#8BC5E4"/>
<path fill-rule="evenodd" clip-rule="evenodd" d="M211.233 147.319L10.4619 31.4044L62.4234 1.40436L263.194 117.319L211.233 147.319Z" fill="#8BC5E4"/>
<path fill-rule="evenodd" clip-rule="evenodd" d="M10.4619 31.4044L62.4234 1.40436L10.4619 31.4044Z" fill="#8BC5E4"/>
<path fill-rule="evenodd" clip-rule="evenodd" d="M10.4619 36.9244L211.233 152.839L263.194 122.839L62.4234 6.92438L10.4619 36.9244Z" fill="#8BC5E4"/>
<path fill-rule="evenodd" clip-rule="evenodd" d="M216.974 162.844V338.414L268.935 308.414V132.844L216.974 162.844Z" fill="#8BC5E4"/>
<path fill-rule="evenodd" clip-rule="evenodd" d="M211.233 341.799L10.4619 225.884L62.4234 195.884L263.194 311.799L211.233 341.799Z" fill="#8BC5E4"/>
<path fill-rule="evenodd" clip-rule="evenodd" d="M4.72852 215.874V40.3044L56.69 10.3044V185.874L4.72852 215.874Z" fill="#8BC5E4"/>
<path fill-rule="evenodd" clip-rule="evenodd" d="M10.4619 36.9244L62.4234 6.92438L10.4619 36.9244Z" fill="#8BC5E4"/>
<path fill-rule="evenodd" clip-rule="evenodd" d="M10.4619 36.9244L211.233 152.839L263.194 122.839L62.4234 6.92438L10.4619 36.9244Z" fill="#8BC5E4"/>
<path fill-rule="evenodd" clip-rule="evenodd" d="M216.974 162.844V338.414L268.935 308.414V132.844L216.974 162.844Z" fill="#8BC5E4"/>
<path fill-rule="evenodd" clip-rule="evenodd" d="M211.233 341.799L10.4619 225.884L62.4234 195.884L263.194 311.799L211.233 341.799Z" fill="#8BC5E4"/>
<path fill-rule="evenodd" clip-rule="evenodd" d="M4.72852 215.874V40.3044L56.69 10.3044V185.874L4.72852 215.874Z" fill="#8BC5E4"/>
<path fill-rule="evenodd" clip-rule="evenodd" d="M10.4619 36.9244L62.4234 6.92438L10.4619 36.9244Z" fill="#8BC5E4"/>
<path fill-rule="evenodd" clip-rule="evenodd" d="M98.8398 128.329V111.309L150.801 81.3094V98.3294L98.8398 128.329Z" fill="#8BC5E4"/>
<path fill-rule="evenodd" clip-rule="evenodd" d="M98.8398 111.309L102.408 113.369L154.369 83.3694L150.801 81.3094L98.8398 111.309Z" fill="#8BC5E4"/>
<path fill-rule="evenodd" clip-rule="evenodd" d="M102.407 113.369V130.389L154.369 100.389V83.3694L102.407 113.369Z" fill="#8BC5E4"/>
<path fill-rule="evenodd" clip-rule="evenodd" d="M102.407 130.389L133.212 148.174L185.173 118.174L154.369 100.389L102.407 130.389Z" fill="#8BC5E4"/>
<path fill-rule="evenodd" clip-rule="evenodd" d="M133.212 148.174V152.334L185.174 122.334V118.174L133.212 148.174Z" fill="#8BC5E4"/>
<path fill-rule="evenodd" clip-rule="evenodd" d="M133.212 152.334L117.182 143.079L169.143 113.079L185.173 122.334L133.212 152.334Z" fill="#8BC5E4"/>
<path fill-rule="evenodd" clip-rule="evenodd" d="M117.182 143.079V165.619L169.143 135.619V113.079L117.182 143.079Z" fill="#8BC5E4"/>
<path fill-rule="evenodd" clip-rule="evenodd" d="M117.182 165.619L133.212 174.874L185.173 144.874L169.143 135.619L117.182 165.619Z" fill="#8BC5E4"/>
<path fill-rule="evenodd" clip-rule="evenodd" d="M133.212 174.874V179.044L185.174 149.044V144.874L133.212 174.874Z" fill="#8BC5E4"/>
<path fill-rule="evenodd" clip-rule="evenodd" d="M133.212 179.044L98.8564 159.209L150.818 129.209L185.173 149.044L133.212 179.044Z" fill="#8BC5E4"/>
<path fill-rule="evenodd" clip-rule="evenodd" d="M98.8564 159.209V182.399L150.818 152.399V129.209L98.8564 159.209Z" fill="#8BC5E4"/>
<path fill-rule="evenodd" clip-rule="evenodd" d="M98.8564 182.399L133.212 202.234L185.173 172.234L150.818 152.399L98.8564 182.399Z" fill="#8BC5E4"/>
<path fill-rule="evenodd" clip-rule="evenodd" d="M133.212 202.234V206.404L185.174 176.404V172.234L133.212 202.234Z" fill="#8BC5E4"/>
<path fill-rule="evenodd" clip-rule="evenodd" d="M133.212 206.404L111.839 194.064L163.8 164.064L185.174 176.404L133.212 206.404Z" fill="#8BC5E4"/>
<path fill-rule="evenodd" clip-rule="evenodd" d="M111.839 194.064V216.934L163.8 186.934V164.064L111.839 194.064Z" fill="#8BC5E4"/>
<path fill-rule="evenodd" clip-rule="evenodd" d="M111.839 216.934L133.212 229.274L185.174 199.274L163.8 186.934L111.839 216.934Z" fill="#8BC5E4"/>
<path fill-rule="evenodd" clip-rule="evenodd" d="M133.212 229.274V233.444L185.174 203.444V199.274L133.212 229.274Z" fill="#8BC5E4"/>
<path fill-rule="evenodd" clip-rule="evenodd" d="M133.212 233.444L122.223 227.099L174.184 197.099L185.174 203.444L133.212 233.444Z" fill="#8BC5E4"/>
<path fill-rule="evenodd" clip-rule="evenodd" d="M122.223 227.099V250.289L174.184 220.289V197.099L122.223 227.099Z" fill="#8BC5E4"/>
<path fill-rule="evenodd" clip-rule="evenodd" d="M122.223 250.289L133.212 256.634L185.174 226.634L174.184 220.289L122.223 250.289Z" fill="#8BC5E4"/>
<path fill-rule="evenodd" clip-rule="evenodd" d="M133.212 256.634V260.804L185.174 230.804V226.634L133.212 256.634Z" fill="#8BC5E4"/>
<path fill-rule="evenodd" clip-rule="evenodd" d="M133.212 260.804L101.014 242.214L152.975 212.214L185.174 230.804L133.212 260.804Z" fill="#8BC5E4"/>
<path fill-rule="evenodd" clip-rule="evenodd" d="M101.014 242.214V258.924L152.975 228.924V212.214L101.014 242.214Z" fill="#8BC5E4"/>
<path fill-rule="evenodd" clip-rule="evenodd" d="M101.013 258.924L97.4453 256.864L149.407 226.864L152.975 228.924L101.013 258.924Z" fill="#8BC5E4"/>
<path fill-rule="evenodd" clip-rule="evenodd" d="M97.4453 256.864V240.154L149.407 210.154V226.864L97.4453 256.864Z" fill="#8BC5E4"/>
<path fill-rule="evenodd" clip-rule="evenodd" d="M97.4456 240.154L88.0146 234.709L139.976 204.709L149.407 210.154L97.4456 240.154Z" fill="#8BC5E4"/>
<path fill-rule="evenodd" clip-rule="evenodd" d="M88.0146 234.709V230.539L139.976 200.539V204.709L88.0146 234.709Z" fill="#8BC5E4"/>
<path fill-rule="evenodd" clip-rule="evenodd" d="M88.0146 230.539L118.646 248.224L170.607 218.224L139.976 200.539L88.0146 230.539Z" fill="#8BC5E4"/>
<path fill-rule="evenodd" clip-rule="evenodd" d="M118.646 248.224V225.034L170.607 195.034V218.224L118.646 248.224Z" fill="#8BC5E4"/>
<path fill-rule="evenodd" clip-rule="evenodd" d="M118.646 225.034L88.0146 207.349L139.976 177.349L170.607 195.034L118.646 225.034Z" fill="#8BC5E4"/>
<path fill-rule="evenodd" clip-rule="evenodd" d="M88.0146 207.349V203.179L139.976 173.179V177.349L88.0146 207.349Z" fill="#8BC5E4"/>
<path fill-rule="evenodd" clip-rule="evenodd" d="M88.0146 203.179L108.271 214.874L160.232 184.874L139.976 173.179L88.0146 203.179Z" fill="#8BC5E4"/>
<path fill-rule="evenodd" clip-rule="evenodd" d="M108.271 214.874V192.004L160.232 162.004V184.874L108.271 214.874Z" fill="#8BC5E4"/>
<path fill-rule="evenodd" clip-rule="evenodd" d="M108.271 192.004L88.0146 180.309L139.976 150.309L160.232 162.004L108.271 192.004Z" fill="#8BC5E4"/>
<path fill-rule="evenodd" clip-rule="evenodd" d="M88.0146 180.309V176.139L139.976 146.139V150.309L88.0146 180.309Z" fill="#8BC5E4"/>
<path fill-rule="evenodd" clip-rule="evenodd" d="M88.0146 176.139L95.2892 180.339L147.251 150.339L139.976 146.139L88.0146 176.139Z" fill="#8BC5E4"/>
<path fill-rule="evenodd" clip-rule="evenodd" d="M95.2891 180.339V157.149L147.251 127.149V150.339L95.2891 180.339Z" fill="#8BC5E4"/>
<path fill-rule="evenodd" clip-rule="evenodd" d="M95.2892 157.149L88.0146 152.949L139.976 122.949L147.251 127.149L95.2892 157.149Z" fill="#8BC5E4"/>
<path fill-rule="evenodd" clip-rule="evenodd" d="M88.0146 152.949V148.779L139.976 118.779V122.949L88.0146 152.949Z" fill="#8BC5E4"/>
<path fill-rule="evenodd" clip-rule="evenodd" d="M88.0146 148.779L113.614 163.559L165.576 133.559L139.976 118.779L88.0146 148.779Z" fill="#8BC5E4"/>
<path fill-rule="evenodd" clip-rule="evenodd" d="M113.614 163.559V141.019L165.576 111.019V133.559L113.614 163.559Z" fill="#8BC5E4"/>
<path fill-rule="evenodd" clip-rule="evenodd" d="M113.614 141.019L88.0146 126.239L139.976 96.2394L165.576 111.019L113.614 141.019Z" fill="#8BC5E4"/>
<path fill-rule="evenodd" clip-rule="evenodd" d="M88.0146 126.239V122.079L139.976 92.0793V96.2393L88.0146 126.239Z" fill="#8BC5E4"/>
<path fill-rule="evenodd" clip-rule="evenodd" d="M88.0146 122.079L98.8399 128.329L150.801 98.3293L139.976 92.0793L88.0146 122.079Z" fill="#8BC5E4"/>
<path fill-rule="evenodd" clip-rule="evenodd" d="M98.8398 128.329L150.801 98.3293L98.8398 128.329Z" fill="#8BC5E4"/>
<path fill-rule="evenodd" clip-rule="evenodd" d="M45.5352 216.884V232.474L97.4967 202.474V186.884L45.5352 216.884Z" fill="#8BC5E4"/>
<path fill-rule="evenodd" clip-rule="evenodd" d="M45.5351 232.474L15.1982 214.959L67.1598 184.959L97.4966 202.474L45.5351 232.474Z" fill="#8BC5E4"/>
<path fill-rule="evenodd" clip-rule="evenodd" d="M15.1982 214.959V199.369L67.1598 169.369V184.959L15.1982 214.959Z" fill="#8BC5E4"/>
<path fill-rule="evenodd" clip-rule="evenodd" d="M16.6191 161.209L68.5807 131.209L16.6191 161.209Z" fill="#8BC5E4"/>
<path fill-rule="evenodd" clip-rule="evenodd" d="M206.789 309.984V325.574L258.751 295.574V279.984L206.789 309.984Z" fill="#8BC5E4"/>
<path fill-rule="evenodd" clip-rule="evenodd" d="M206.79 325.574L176.453 308.059L228.415 278.059L258.752 295.574L206.79 325.574Z" fill="#8BC5E4"/>
<path fill-rule="evenodd" clip-rule="evenodd" d="M176.453 308.059V292.469L228.415 262.469V278.059L176.453 308.059Z" fill="#8BC5E4"/>
<path fill-rule="evenodd" clip-rule="evenodd" d="M177.873 254.309L229.835 224.309L177.873 254.309Z" fill="#8BC5E4"/>
<path fill-rule="evenodd" clip-rule="evenodd" d="M65.2031 147.199L43.9941 117.354L95.9556 87.3544L117.165 117.199L65.2031 147.199Z" fill="#8BC5E4"/>
<path fill-rule="evenodd" clip-rule="evenodd" d="M43.9941 117.354V129.334L95.9556 99.3344V87.3544L43.9941 117.354Z" fill="#8BC5E4"/>
<path fill-rule="evenodd" clip-rule="evenodd" d="M43.9938 129.334L19.6758 115.294L71.6373 85.2944L95.9553 99.3344L43.9938 129.334Z" fill="#8BC5E4"/>
<path fill-rule="evenodd" clip-rule="evenodd" d="M19.6758 115.294V126.544L71.6373 96.5444V85.2944L19.6758 115.294Z" fill="#8BC5E4"/>
<path fill-rule="evenodd" clip-rule="evenodd" d="M19.6758 126.544L43.9938 140.584L95.9553 110.584L71.6373 96.5444L19.6758 126.544Z" fill="#8BC5E4"/>
<path fill-rule="evenodd" clip-rule="evenodd" d="M43.9941 140.584V152.554L95.9556 122.554V110.584L43.9941 140.584Z" fill="#8BC5E4"/>
<path fill-rule="evenodd" clip-rule="evenodd" d="M43.9941 152.554L65.2031 147.199L117.165 117.199L95.9556 122.554L43.9941 152.554Z" fill="#8BC5E4"/>
<path fill-rule="evenodd" clip-rule="evenodd" d="M65.2031 147.199L117.165 117.199L65.2031 147.199Z" fill="#8BC5E4"/>
<path fill-rule="evenodd" clip-rule="evenodd" d="M40.876 80.4544V68.4744L92.8375 38.4744V50.4544L40.876 80.4544Z" fill="#8BC5E4"/>
<path fill-rule="evenodd" clip-rule="evenodd" d="M40.8761 68.4744L19.6758 73.8344L71.6373 43.8344L92.8376 38.4744L40.8761 68.4744Z" fill="#8BC5E4"/>
<path fill-rule="evenodd" clip-rule="evenodd" d="M19.6758 73.8344L40.8761 103.674L92.8376 73.6744L71.6373 43.8344L19.6758 73.8344Z" fill="#8BC5E4"/>
<path fill-rule="evenodd" clip-rule="evenodd" d="M40.876 103.674V91.7044L92.8375 61.7044V73.6744L40.876 103.674Z" fill="#8BC5E4"/>
<path fill-rule="evenodd" clip-rule="evenodd" d="M40.876 91.7044L65.2027 105.749L117.164 75.7494L92.8375 61.7044L40.876 91.7044Z" fill="#8BC5E4"/>
<path fill-rule="evenodd" clip-rule="evenodd" d="M65.2031 105.749V94.4994L117.165 64.4994V75.7494L65.2031 105.749Z" fill="#8BC5E4"/>
<path fill-rule="evenodd" clip-rule="evenodd" d="M65.2027 94.4994L40.876 80.4544L92.8375 50.4544L117.164 64.4994L65.2027 94.4994Z" fill="#8BC5E4"/>
<path fill-rule="evenodd" clip-rule="evenodd" d="M40.876 80.4544L92.8375 50.4544L40.876 80.4544Z" fill="#8BC5E4"/>
<path fill-rule="evenodd" clip-rule="evenodd" d="M45.5352 194.084L58.439 190.824L110.4 160.824L97.4967 164.084L45.5352 194.084Z" fill="#8BC5E4"/>
<path fill-rule="evenodd" clip-rule="evenodd" d="M58.4395 190.824V198.114L110.401 168.114V160.824L58.4395 190.824Z" fill="#8BC5E4"/>
<path fill-rule="evenodd" clip-rule="evenodd" d="M58.4395 198.114L73.8114 206.989L125.773 176.989L110.401 168.114L58.4395 198.114Z" fill="#8BC5E4"/>
<path fill-rule="evenodd" clip-rule="evenodd" d="M73.8115 206.989V199.699L125.773 169.699V176.989L73.8115 206.989Z" fill="#8BC5E4"/>
<path fill-rule="evenodd" clip-rule="evenodd" d="M73.8115 199.699L86.7067 217.854L138.668 187.854L125.773 169.699L73.8115 199.699Z" fill="#8BC5E4"/>
<path fill-rule="evenodd" clip-rule="evenodd" d="M86.7067 217.854L73.8115 221.119L125.773 191.119L138.668 187.854L86.7067 217.854Z" fill="#8BC5E4"/>
<path fill-rule="evenodd" clip-rule="evenodd" d="M73.8115 221.119V213.829L125.773 183.829V191.119L73.8115 221.119Z" fill="#8BC5E4"/>
<path fill-rule="evenodd" clip-rule="evenodd" d="M73.8114 213.829L58.4395 204.954L110.401 174.954L125.773 183.829L73.8114 213.829Z" fill="#8BC5E4"/>
<path fill-rule="evenodd" clip-rule="evenodd" d="M58.4395 204.954V212.244L110.401 182.244V174.954L58.4395 204.954Z" fill="#8BC5E4"/>
<path fill-rule="evenodd" clip-rule="evenodd" d="M58.439 212.244L45.5352 194.084L97.4967 164.084L110.4 182.244L58.439 212.244Z" fill="#8BC5E4"/>
<path fill-rule="evenodd" clip-rule="evenodd" d="M45.5352 194.084L97.4967 164.084L45.5352 194.084Z" fill="#8BC5E4"/>
<path fill-rule="evenodd" clip-rule="evenodd" d="M135.022 245.749L147.918 242.484L199.879 212.484L186.984 215.749L135.022 245.749Z" fill="#8BC5E4"/>
<path fill-rule="evenodd" clip-rule="evenodd" d="M147.917 242.484V249.774L199.879 219.774V212.484L147.917 242.484Z" fill="#8BC5E4"/>
<path fill-rule="evenodd" clip-rule="evenodd" d="M147.917 249.774L163.289 258.649L215.25 228.649L199.879 219.774L147.917 249.774Z" fill="#8BC5E4"/>
<path fill-rule="evenodd" clip-rule="evenodd" d="M163.289 258.649V251.359L215.251 221.359V228.649L163.289 258.649Z" fill="#8BC5E4"/>
<path fill-rule="evenodd" clip-rule="evenodd" d="M163.289 251.359L176.193 269.519L228.154 239.519L215.251 221.359L163.289 251.359Z" fill="#8BC5E4"/>
<path fill-rule="evenodd" clip-rule="evenodd" d="M176.193 269.519L163.289 272.779L215.251 242.779L228.154 239.519L176.193 269.519Z" fill="#8BC5E4"/>
<path fill-rule="evenodd" clip-rule="evenodd" d="M163.289 272.779V265.489L215.251 235.489V242.779L163.289 272.779Z" fill="#8BC5E4"/>
<path fill-rule="evenodd" clip-rule="evenodd" d="M163.289 265.489L147.917 256.614L199.879 226.614L215.25 235.489L163.289 265.489Z" fill="#8BC5E4"/>
<path fill-rule="evenodd" clip-rule="evenodd" d="M147.917 256.614V263.904L199.879 233.904V226.614L147.917 256.614Z" fill="#8BC5E4"/>
<path fill-rule="evenodd" clip-rule="evenodd" d="M147.918 263.904L135.022 245.749L186.984 215.749L199.879 233.904L147.918 263.904Z" fill="#8BC5E4"/>
<path fill-rule="evenodd" clip-rule="evenodd" d="M135.022 245.749L186.984 215.749L135.022 245.749Z" fill="#8BC5E4"/>
<path fill-rule="evenodd" clip-rule="evenodd" d="M159.366 201.514L180.567 196.154L232.528 166.154L211.328 171.514L159.366 201.514Z" fill="#8BC5E4"/>
<path fill-rule="evenodd" clip-rule="evenodd" d="M180.566 196.154V208.124L232.528 178.124V166.154L180.566 196.154Z" fill="#8BC5E4"/>
<path fill-rule="evenodd" clip-rule="evenodd" d="M180.566 208.124L204.893 222.169L256.855 192.169L232.528 178.124L180.566 208.124Z" fill="#8BC5E4"/>
<path fill-rule="evenodd" clip-rule="evenodd" d="M204.893 222.169V233.419L256.854 203.419V192.169L204.893 222.169Z" fill="#8BC5E4"/>
<path fill-rule="evenodd" clip-rule="evenodd" d="M204.893 233.419L180.566 219.374L232.528 189.374L256.855 203.419L204.893 233.419Z" fill="#8BC5E4"/>
<path fill-rule="evenodd" clip-rule="evenodd" d="M180.566 219.374V231.354L232.528 201.354V189.374L180.566 219.374Z" fill="#8BC5E4"/>
<path fill-rule="evenodd" clip-rule="evenodd" d="M180.567 231.354L159.366 201.514L211.328 171.514L232.528 201.354L180.567 231.354Z" fill="#8BC5E4"/>
<path fill-rule="evenodd" clip-rule="evenodd" d="M159.366 201.514L211.328 171.514L159.366 201.514Z" fill="#8BC5E4"/>
<path fill-rule="evenodd" clip-rule="evenodd" d="M183.684 162.844V150.874L235.645 120.874V132.844L183.684 162.844Z" fill="#8BC5E4"/>
<path fill-rule="evenodd" clip-rule="evenodd" d="M183.684 150.874L204.892 180.719L256.854 150.719L235.645 120.874L183.684 150.874Z" fill="#8BC5E4"/>
<path fill-rule="evenodd" clip-rule="evenodd" d="M204.892 180.719L183.684 186.074L235.645 156.074L256.854 150.719L204.892 180.719Z" fill="#8BC5E4"/>
<path fill-rule="evenodd" clip-rule="evenodd" d="M183.684 186.074V174.094L235.645 144.094V156.074L183.684 186.074Z" fill="#8BC5E4"/>
<path fill-rule="evenodd" clip-rule="evenodd" d="M183.684 174.094L159.366 160.054L211.328 130.054L235.646 144.094L183.684 174.094Z" fill="#8BC5E4"/>
<path fill-rule="evenodd" clip-rule="evenodd" d="M159.366 160.054V148.804L211.328 118.804V130.054L159.366 160.054Z" fill="#8BC5E4"/>
<path fill-rule="evenodd" clip-rule="evenodd" d="M159.366 148.804L183.684 162.844L235.646 132.844L211.328 118.804L159.366 148.804Z" fill="#8BC5E4"/>
<path fill-rule="evenodd" clip-rule="evenodd" d="M183.684 162.844L235.645 132.844L183.684 162.844Z" fill="#8BC5E4"/>
<path fill-rule="evenodd" clip-rule="evenodd" d="M30.3629 153.104C26.725 151.004 23.416 150.744 20.957 152.019L72.9185 122.019C75.3775 120.744 78.6865 121.004 82.3244 123.104L30.3629 153.104Z" fill="#8BC5E4"/>
<path fill-rule="evenodd" clip-rule="evenodd" d="M20.9591 152.018C18.2891 153.402 16.6211 156.593 16.6191 161.203L68.5806 131.203C68.5826 126.593 70.2506 123.402 72.9206 122.018L20.9591 152.018Z" fill="#8BC5E4"/>
<path fill-rule="evenodd" clip-rule="evenodd" d="M16.6191 161.209C16.6191 166.759 19.0873 173.334 23.1316 178.589L75.0932 148.589C71.0488 143.334 68.5807 136.759 68.5807 131.209L16.6191 161.209Z" fill="#8BC5E4"/>
<path fill-rule="evenodd" clip-rule="evenodd" d="M23.131 178.589C18.0561 182.669 15.1982 190.249 15.1982 199.369L67.1598 169.369C67.1598 160.249 70.0177 152.669 75.0926 148.589L23.131 178.589Z" fill="#8BC5E4"/>
<path fill-rule="evenodd" clip-rule="evenodd" d="M45.5352 216.884C45.5352 207.654 41.9499 196.724 37.2041 186.994L89.1656 156.994C93.9114 166.724 97.4967 177.654 97.4967 186.884L45.5352 216.884Z" fill="#8BC5E4"/>
<path fill-rule="evenodd" clip-rule="evenodd" d="M37.2041 186.994C38.3296 186.89 39.3416 186.55 40.2216 186.002L92.1831 156.002C91.3031 156.55 90.2911 156.89 89.1656 156.994L37.2041 186.994Z" fill="#8BC5E4"/>
<path fill-rule="evenodd" clip-rule="evenodd" d="M40.2207 186.003C42.6777 184.472 44.1067 181.312 44.1147 177.092L96.0762 147.092C96.0682 151.312 94.6392 154.472 92.1822 156.003L40.2207 186.003Z" fill="#8BC5E4"/>
<path fill-rule="evenodd" clip-rule="evenodd" d="M44.1157 177.084C44.1157 168.224 37.9583 157.489 30.3633 153.104L82.3248 123.104C89.9198 127.489 96.0773 138.224 96.0773 147.084L44.1157 177.084Z" fill="#8BC5E4"/>
<path fill-rule="evenodd" clip-rule="evenodd" d="M191.617 246.204C187.979 244.104 184.67 243.844 182.211 245.119L234.172 215.119C236.631 213.844 239.94 214.104 243.578 216.204L191.617 246.204Z" fill="#8BC5E4"/>
<path fill-rule="evenodd" clip-rule="evenodd" d="M182.213 245.118C179.543 246.502 177.875 249.693 177.873 254.303L229.835 224.303C229.837 219.693 231.505 216.502 234.175 215.118L182.213 245.118Z" fill="#8BC5E4"/>
<path fill-rule="evenodd" clip-rule="evenodd" d="M177.873 254.309C177.882 259.864 180.341 266.434 184.386 271.689L236.347 241.689C232.303 236.434 229.843 229.864 229.835 224.309L177.873 254.309Z" fill="#8BC5E4"/>
<path fill-rule="evenodd" clip-rule="evenodd" d="M184.386 271.689C179.32 275.774 176.453 283.349 176.453 292.469L228.415 262.469C228.415 253.349 231.281 245.774 236.347 241.689L184.386 271.689Z" fill="#8BC5E4"/>
<path fill-rule="evenodd" clip-rule="evenodd" d="M206.789 309.984C206.789 300.754 203.204 289.824 198.458 280.094L250.42 250.094C255.165 259.824 258.751 270.754 258.751 279.984L206.789 309.984Z" fill="#8BC5E4"/>
<path fill-rule="evenodd" clip-rule="evenodd" d="M198.458 280.094C199.584 279.99 200.596 279.65 201.476 279.102L253.437 249.102C252.557 249.65 251.545 249.99 250.42 250.094L198.458 280.094Z" fill="#8BC5E4"/>
<path fill-rule="evenodd" clip-rule="evenodd" d="M201.475 279.103C203.932 277.572 205.361 274.412 205.369 270.192L257.33 240.192C257.322 244.412 255.893 247.572 253.436 249.103L201.475 279.103Z" fill="#8BC5E4"/>
<path fill-rule="evenodd" clip-rule="evenodd" d="M205.37 270.184C205.37 261.324 199.212 250.589 191.617 246.204L243.579 216.204C251.174 220.589 257.331 231.324 257.331 240.184L205.37 270.184Z" fill="#8BC5E4"/>
<path fill-rule="evenodd" clip-rule="evenodd" d="M10.4611 31.4044C7.70355 29.8124 5.18555 29.6204 3.31055 30.5934L55.272 0.593367C57.147 -0.379633 59.665 -0.187633 62.4226 1.40437L10.4611 31.4044Z" fill="#8BC5E4"/>
<path fill-rule="evenodd" clip-rule="evenodd" d="M3.314 30.5914C1.28 31.6454 0.003 34.0704 0 37.5644L51.9615 7.56437C51.9645 4.07037 53.2415 1.64537 55.2755 0.59137L3.314 30.5914Z" fill="#8BC5E4"/>
<path fill-rule="evenodd" clip-rule="evenodd" d="M0 213.144C0 219.864 4.7112 228.084 10.4616 231.404L62.4231 201.404C56.6727 198.084 51.9615 189.864 51.9615 183.144L0 213.144Z" fill="#8BC5E4"/>
<path fill-rule="evenodd" clip-rule="evenodd" d="M211.232 347.319C213.988 348.91 216.504 349.103 218.378 348.136L270.34 318.136C268.466 319.103 265.95 318.91 263.194 317.319L211.232 347.319Z" fill="#8BC5E4"/>
<path fill-rule="evenodd" clip-rule="evenodd" d="M218.387 348.131C220.423 347.075 221.7 344.648 221.702 341.154L273.663 311.154C273.661 314.648 272.384 317.075 270.348 318.131L218.387 348.131Z" fill="#8BC5E4"/>
<path fill-rule="evenodd" clip-rule="evenodd" d="M221.703 165.574C221.703 158.854 216.991 150.644 211.232 147.319L263.194 117.319C268.953 120.644 273.664 128.854 273.664 135.574L221.703 165.574Z" fill="#8BC5E4"/>
<path fill-rule="evenodd" clip-rule="evenodd" d="M211.232 152.839C214.454 154.699 216.974 159.084 216.974 162.844L268.936 132.844C268.936 129.084 266.416 124.699 263.194 122.839L211.232 152.839Z" fill="#8BC5E4"/>
<path fill-rule="evenodd" clip-rule="evenodd" d="M216.974 338.414C216.974 340.375 216.289 341.717 215.176 342.289L267.137 312.289C268.25 311.717 268.935 310.375 268.935 308.414L216.974 338.414Z" fill="#8BC5E4"/>
<path fill-rule="evenodd" clip-rule="evenodd" d="M215.177 342.288C214.157 342.813 212.777 342.69 211.237 341.802L263.199 311.802C264.739 312.69 266.119 312.813 267.139 312.288L215.177 342.288Z" fill="#8BC5E4"/>
<path fill-rule="evenodd" clip-rule="evenodd" d="M10.4616 225.884C7.24862 224.029 4.72852 219.634 4.72852 215.874L56.69 185.874C56.69 189.634 59.2102 194.029 62.4231 195.884L10.4616 225.884Z" fill="#8BC5E4"/>
<path fill-rule="evenodd" clip-rule="evenodd" d="M4.72852 40.3044C4.72802 38.3514 5.40902 37.0144 6.51302 36.4404L58.4745 6.44037C57.3705 7.01437 56.6895 8.35137 56.69 10.3044L4.72852 40.3044Z" fill="#8BC5E4"/>
<path fill-rule="evenodd" clip-rule="evenodd" d="M6.52441 36.4354C7.54341 35.9114 8.92041 36.0354 10.4574 36.9214L62.4189 6.92136C60.8819 6.03536 59.5049 5.91136 58.4859 6.43536L6.52441 36.4354Z" fill="#8BC5E4"/>
<path fill-rule="evenodd" clip-rule="evenodd" d="M211.232 152.839C214.454 154.699 216.974 159.084 216.974 162.844L268.936 132.844C268.936 129.084 266.416 124.699 263.194 122.839L211.232 152.839Z" fill="#8BC5E4"/>
<path fill-rule="evenodd" clip-rule="evenodd" d="M216.974 338.414C216.974 340.375 216.289 341.717 215.176 342.289L267.137 312.289C268.25 311.717 268.935 310.375 268.935 308.414L216.974 338.414Z" fill="#8BC5E4"/>
<path fill-rule="evenodd" clip-rule="evenodd" d="M215.177 342.288C214.157 342.813 212.777 342.69 211.237 341.802L263.199 311.802C264.739 312.69 266.119 312.813 267.139 312.288L215.177 342.288Z" fill="#8BC5E4"/>
<path fill-rule="evenodd" clip-rule="evenodd" d="M10.4616 225.884C7.24862 224.029 4.72852 219.634 4.72852 215.874L56.69 185.874C56.69 189.634 59.2102 194.029 62.4231 195.884L10.4616 225.884Z" fill="#8BC5E4"/>
<path fill-rule="evenodd" clip-rule="evenodd" d="M4.72852 40.3044C4.72802 38.3514 5.40902 37.0144 6.51302 36.4404L58.4745 6.44037C57.3705 7.01437 56.6895 8.35137 56.69 10.3044L4.72852 40.3044Z" fill="#8BC5E4"/>
<path fill-rule="evenodd" clip-rule="evenodd" d="M6.52441 36.4354C7.54341 35.9114 8.92041 36.0354 10.4574 36.9214L62.4189 6.92136C60.8819 6.03536 59.5049 5.91136 58.4859 6.43536L6.52441 36.4354Z" fill="#8BC5E4"/>
<path fill-rule="evenodd" clip-rule="evenodd" d="M16.6191 161.209C16.6191 156.597 18.2871 153.404 20.9571 152.019L72.9186 122.019C70.2486 123.404 68.5806 126.597 68.5807 131.209L16.6191 161.209Z" fill="#8BC5E4"/>
<path fill-rule="evenodd" clip-rule="evenodd" d="M20.9697 152.013C23.4257 150.746 26.7277 151.007 30.3567 153.101L82.3182 123.101C78.6892 121.007 75.3872 120.746 72.9312 122.013L20.9697 152.013Z" fill="#8BC5E4"/>
<path fill-rule="evenodd" clip-rule="evenodd" d="M30.3633 153.104C37.9583 157.489 44.1157 168.224 44.1157 177.084L96.0773 147.084C96.0773 138.224 89.9198 127.489 82.3248 123.104L30.3633 153.104Z" fill="#8BC5E4"/>
<path fill-rule="evenodd" clip-rule="evenodd" d="M44.115 177.084C44.1087 181.307 42.6797 184.47 40.2217 186.002L92.1832 156.002C94.6412 154.47 96.0702 151.307 96.0766 147.084L44.115 177.084Z" fill="#8BC5E4"/>
<path fill-rule="evenodd" clip-rule="evenodd" d="M40.2259 185.999C39.3469 186.548 38.3359 186.888 37.2109 186.993L89.1724 156.993C90.2974 156.888 91.3084 156.548 92.1874 155.999L40.2259 185.999Z" fill="#8BC5E4"/>
<path fill-rule="evenodd" clip-rule="evenodd" d="M37.2041 186.994C41.9499 196.724 45.5352 207.654 45.5352 216.884L97.4967 186.884C97.4967 177.654 93.9114 166.724 89.1656 156.994L37.2041 186.994Z" fill="#8BC5E4"/>
<path fill-rule="evenodd" clip-rule="evenodd" d="M15.1982 199.369C15.1982 190.249 18.0561 182.669 23.131 178.589L75.0926 148.589C70.0177 152.669 67.1598 160.249 67.1598 169.369L15.1982 199.369Z" fill="#8BC5E4"/>
<path fill-rule="evenodd" clip-rule="evenodd" d="M23.1316 178.589C19.0873 173.334 16.6191 166.759 16.6191 161.209L68.5807 131.209C68.5807 136.759 71.0488 143.334 75.0932 148.589L23.1316 178.589Z" fill="#8BC5E4"/>
<path fill-rule="evenodd" clip-rule="evenodd" d="M177.873 254.309C177.873 249.697 179.541 246.504 182.211 245.119L234.173 215.119C231.503 216.504 229.835 219.697 229.835 224.309L177.873 254.309Z" fill="#8BC5E4"/>
<path fill-rule="evenodd" clip-rule="evenodd" d="M182.224 245.113C184.68 243.846 187.982 244.107 191.611 246.201L243.572 216.201C239.943 214.107 236.641 213.846 234.185 215.113L182.224 245.113Z" fill="#8BC5E4"/>
<path fill-rule="evenodd" clip-rule="evenodd" d="M191.617 246.204C199.212 250.589 205.37 261.324 205.37 270.184L257.331 240.184C257.331 231.324 251.174 220.589 243.579 216.204L191.617 246.204Z" fill="#8BC5E4"/>
<path fill-rule="evenodd" clip-rule="evenodd" d="M205.369 270.184C205.363 274.407 203.934 277.57 201.476 279.102L253.437 249.102C255.895 247.57 257.324 244.407 257.33 240.184L205.369 270.184Z" fill="#8BC5E4"/>
<path fill-rule="evenodd" clip-rule="evenodd" d="M201.48 279.099C200.601 279.648 199.59 279.988 198.465 280.093L250.426 250.093C251.551 249.988 252.562 249.648 253.441 249.099L201.48 279.099Z" fill="#8BC5E4"/>
<path fill-rule="evenodd" clip-rule="evenodd" d="M198.458 280.094C203.204 289.824 206.789 300.754 206.789 309.984L258.751 279.984C258.751 270.754 255.165 259.824 250.42 250.094L198.458 280.094Z" fill="#8BC5E4"/>
<path fill-rule="evenodd" clip-rule="evenodd" d="M176.453 292.469C176.453 283.349 179.32 275.774 184.386 271.689L236.347 241.689C231.281 245.774 228.415 253.349 228.415 262.469L176.453 292.469Z" fill="#8BC5E4"/>
<path fill-rule="evenodd" clip-rule="evenodd" d="M184.386 271.689C180.341 266.434 177.882 259.864 177.873 254.309L229.835 224.309C229.843 229.864 232.303 236.434 236.347 241.689L184.386 271.689Z" fill="#8BC5E4"/>
<path fill-rule="evenodd" clip-rule="evenodd" d="M40.8764 80.4544L65.2031 94.4994V105.749L40.8764 91.7044V103.674L19.6761 73.8344L40.8764 68.4744V80.4544ZM10.4616 36.9244L211.232 152.839C214.454 154.699 216.974 159.084 216.974 162.844V338.414C216.974 342.174 214.454 343.659 211.232 341.799L10.4616 225.884C7.24863 224.029 4.7285 219.634 4.7285 215.874V40.3044C4.7285 36.5444 7.24863 35.0694 10.4616 36.9244ZM183.684 150.874V162.844L159.366 148.804V160.054L183.684 174.094V186.074L204.893 180.719L183.684 150.874ZM159.366 201.514L180.566 196.154V208.124L204.893 222.169V233.419L180.566 219.374V231.354L159.366 201.514ZM147.917 242.484L135.022 245.749L147.917 263.904V256.614L163.289 265.489V272.779L176.193 269.519L163.289 251.359V258.649L147.917 249.774V242.484ZM177.873 254.309C177.873 245.449 184.03 241.824 191.617 246.204C199.212 250.589 205.369 261.324 205.369 270.184C205.361 275.919 202.728 279.699 198.458 280.094C203.204 289.824 206.79 300.754 206.79 309.984V325.574L176.453 308.059V292.469C176.453 283.349 179.319 275.774 184.385 271.689C180.341 266.434 177.882 259.864 177.873 254.309ZM30.3629 153.104C22.7765 148.724 16.619 152.349 16.619 161.209C16.619 166.759 19.0872 173.334 23.1315 178.589C18.0566 182.669 15.1987 190.249 15.1987 199.369V214.959L45.5356 232.474V216.884C45.5356 207.654 41.9503 196.724 37.2044 186.994C41.474 186.599 44.1067 182.819 44.1153 177.084C44.1153 168.224 37.9579 157.489 30.3629 153.104ZM65.2031 147.199L43.9941 117.354V129.334L19.6761 115.294V126.544L43.9941 140.584V152.554L65.2031 147.199ZM58.4394 190.824L45.5356 194.084L58.4394 212.244V204.954L73.8113 213.829V221.119L86.7065 217.854L73.8113 199.699V206.989L58.4394 198.114V190.824ZM88.0142 203.179V180.309L108.27 192.004V214.874L88.0142 203.179ZM133.212 131.154L102.408 113.369V130.389L133.212 148.174V152.334L117.182 143.079V165.619L133.212 174.874V179.044L98.8568 159.209V182.399L133.212 202.234V206.404L111.839 194.064V216.934L133.212 229.274V233.444L122.222 227.099V250.289L133.212 256.634V260.804L101.013 242.214V258.924L133.212 277.514V131.154ZM88.0142 176.139V152.949L95.2888 157.149V180.339L88.0142 176.139ZM88.0142 126.239V148.779L113.614 163.559V141.019L88.0142 126.239ZM88.0142 105.059L98.8395 111.309V128.329L88.0142 122.079L88.0142 105.059ZM88.0142 207.349V230.539L118.645 248.224V225.034L88.0142 207.349ZM97.4452 256.864L88.0142 251.419L88.0142 234.709L97.4452 240.154V256.864Z" fill="white"/>
</svg>
