<svg width="253" height="306" viewBox="0 0 253 306" fill="none" xmlns="http://www.w3.org/2000/svg">
<path fill-rule="evenodd" clip-rule="evenodd" d="M58.4346 35.7318V119.542L110.396 89.5418V5.73181L58.4346 35.7318Z" fill="#8BC5E4"/>
<path fill-rule="evenodd" clip-rule="evenodd" d="M66.835 133.802L167.952 192.182L219.914 162.182L118.797 103.802L66.835 133.802Z" fill="#8BC5E4"/>
<path fill-rule="evenodd" clip-rule="evenodd" d="M176.344 187.617V103.807L228.305 73.8068V157.617L176.344 187.617Z" fill="#8BC5E4"/>
<path fill-rule="evenodd" clip-rule="evenodd" d="M167.952 89.5518L66.835 31.1718L118.797 1.17175L219.914 59.5518L167.952 89.5518Z" fill="#8BC5E4"/>
<path fill-rule="evenodd" clip-rule="evenodd" d="M66.835 31.1718L118.797 1.17175L66.835 31.1718Z" fill="#8BC5E4"/>
<path fill-rule="evenodd" clip-rule="evenodd" d="M66.835 34.8318L167.952 93.2118L219.914 63.2118L118.797 4.83179L66.835 34.8318Z" fill="#8BC5E4"/>
<path fill-rule="evenodd" clip-rule="evenodd" d="M173.079 101.922V185.732L225.041 155.732V71.9218L173.079 101.922Z" fill="#8BC5E4"/>
<path fill-rule="evenodd" clip-rule="evenodd" d="M167.952 188.522L66.835 130.142L118.797 100.142L219.914 158.522L167.952 188.522Z" fill="#8BC5E4"/>
<path fill-rule="evenodd" clip-rule="evenodd" d="M61.708 121.432V37.6218L113.67 7.62183V91.4318L61.708 121.432Z" fill="#8BC5E4"/>
<path fill-rule="evenodd" clip-rule="evenodd" d="M66.835 34.8318L118.797 4.83179L66.835 34.8318Z" fill="#8BC5E4"/>
<path fill-rule="evenodd" clip-rule="evenodd" d="M117.116 68.9117L169.078 38.9117L117.116 68.9117Z" fill="#8BC5E4"/>
<path fill-rule="evenodd" clip-rule="evenodd" d="M72.1787 65.1368V116.067L124.14 86.0668V35.1368L72.1787 65.1368Z" fill="#8BC5E4"/>
<path fill-rule="evenodd" clip-rule="evenodd" d="M79.1758 127.947L155.611 172.077L207.573 142.077L131.137 97.9468L79.1758 127.947Z" fill="#8BC5E4"/>
<path fill-rule="evenodd" clip-rule="evenodd" d="M162.609 168.277V117.347L214.571 87.3468V138.277L162.609 168.277Z" fill="#8BC5E4"/>
<path fill-rule="evenodd" clip-rule="evenodd" d="M155.611 105.477L79.1758 61.3468L131.137 31.3468L207.573 75.4768L155.611 105.477Z" fill="#8BC5E4"/>
<path fill-rule="evenodd" clip-rule="evenodd" d="M79.1758 61.3468L131.137 31.3468L79.1758 61.3468Z" fill="#8BC5E4"/>
<path fill-rule="evenodd" clip-rule="evenodd" d="M16.1123 46.3969V120.057L68.0739 90.0569V16.3969L16.1123 46.3969Z" fill="#8BC5E4"/>
<path fill-rule="evenodd" clip-rule="evenodd" d="M10.916 131.737L4.94043 164.147L56.9019 134.147L62.8775 101.737L10.916 131.737Z" fill="#8BC5E4"/>
<path fill-rule="evenodd" clip-rule="evenodd" d="M15.1768 189.437L185.515 287.782L237.477 257.782L67.1384 159.437L15.1768 189.437Z" fill="#8BC5E4"/>
<path fill-rule="evenodd" clip-rule="evenodd" d="M197.354 274.847V274.837L249.315 244.837V244.847L197.354 274.847Z" fill="#8BC5E4"/>
<path fill-rule="evenodd" clip-rule="evenodd" d="M197.354 274.837L192.694 240.397L244.656 210.397L249.315 244.837L197.354 274.837Z" fill="#8BC5E4"/>
<path fill-rule="evenodd" clip-rule="evenodd" d="M192.695 240.397L192.687 240.372L244.648 210.372L244.657 210.397L192.695 240.397Z" fill="#8BC5E4"/>
<path fill-rule="evenodd" clip-rule="evenodd" d="M162.687 192.472L54.1045 129.782L106.066 99.7819L214.648 162.472L162.687 192.472Z" fill="#8BC5E4"/>
<path fill-rule="evenodd" clip-rule="evenodd" d="M54.1045 129.782V68.3318L106.066 38.3318V99.7818L54.1045 129.782Z" fill="#8BC5E4"/>
<path fill-rule="evenodd" clip-rule="evenodd" d="M35.1045 36.0718L87.066 6.07178L35.1045 36.0718Z" fill="#8BC5E4"/>
<path fill-rule="evenodd" clip-rule="evenodd" d="M54.1045 133.442L162.687 196.132L214.648 166.132L106.066 103.442L54.1045 133.442Z" fill="#8BC5E4"/>
<path fill-rule="evenodd" clip-rule="evenodd" d="M189.465 239.112L194.133 273.577L246.094 243.577L241.426 209.112L189.465 239.112Z" fill="#8BC5E4"/>
<path fill-rule="evenodd" clip-rule="evenodd" d="M185.515 284.112L15.1768 185.767L67.1384 155.767L237.477 254.112L185.515 284.112Z" fill="#8BC5E4"/>
<path fill-rule="evenodd" clip-rule="evenodd" d="M8.15332 166.692L14.1202 134.297L66.0817 104.297L60.1148 136.692L8.15332 166.692Z" fill="#8BC5E4"/>
<path fill-rule="evenodd" clip-rule="evenodd" d="M16.1123 127.917V142.407L68.0739 112.407V97.9167L16.1123 127.917Z" fill="#8BC5E4"/>
<path fill-rule="evenodd" clip-rule="evenodd" d="M54.1045 164.342V133.442L106.066 103.442V134.342L54.1045 164.342Z" fill="#8BC5E4"/>
<path fill-rule="evenodd" clip-rule="evenodd" d="M54.1045 133.442L106.066 103.442L54.1045 133.442Z" fill="#8BC5E4"/>
<path fill-rule="evenodd" clip-rule="evenodd" d="M83.4023 169.917L153.776 210.547L205.737 180.547L135.364 139.917L83.4023 169.917Z" fill="#8BC5E4"/>
<path fill-rule="evenodd" clip-rule="evenodd" d="M153.776 202.697L83.4023 162.067L135.364 132.067L205.737 172.697L153.776 202.697Z" fill="#8BC5E4"/>
<path fill-rule="evenodd" clip-rule="evenodd" d="M83.4023 162.067L135.364 132.067L83.4023 162.067Z" fill="#8BC5E4"/>
<path fill-rule="evenodd" clip-rule="evenodd" d="M93.2314 192.282L100.359 196.397L152.32 166.397L145.193 162.282L93.2314 192.282Z" fill="#8BC5E4"/>
<path fill-rule="evenodd" clip-rule="evenodd" d="M100.359 188.547L93.2314 184.432L145.193 154.432L152.32 158.547L100.359 188.547Z" fill="#8BC5E4"/>
<path fill-rule="evenodd" clip-rule="evenodd" d="M93.2314 184.432L145.193 154.432L93.2314 184.432Z" fill="#8BC5E4"/>
<path fill-rule="evenodd" clip-rule="evenodd" d="M114.579 204.607L121.707 208.722L173.668 178.722L166.541 174.607L114.579 204.607Z" fill="#8BC5E4"/>
<path fill-rule="evenodd" clip-rule="evenodd" d="M121.707 200.872L114.579 196.757L166.541 166.757L173.668 170.872L121.707 200.872Z" fill="#8BC5E4"/>
<path fill-rule="evenodd" clip-rule="evenodd" d="M114.579 196.757L166.541 166.757L114.579 196.757Z" fill="#8BC5E4"/>
<path fill-rule="evenodd" clip-rule="evenodd" d="M135.849 216.887L142.976 221.002L194.938 191.002L187.81 186.887L135.849 216.887Z" fill="#8BC5E4"/>
<path fill-rule="evenodd" clip-rule="evenodd" d="M142.976 213.152L135.849 209.037L187.81 179.037L194.938 183.152L142.976 213.152Z" fill="#8BC5E4"/>
<path fill-rule="evenodd" clip-rule="evenodd" d="M135.849 209.037L187.81 179.037L135.849 209.037Z" fill="#8BC5E4"/>
<path fill-rule="evenodd" clip-rule="evenodd" d="M90.8672 205.707L97.9859 209.817L149.947 179.817L142.829 175.707L90.8672 205.707Z" fill="#8BC5E4"/>
<path fill-rule="evenodd" clip-rule="evenodd" d="M97.9859 201.967L90.8672 197.857L142.829 167.857L149.947 171.967L97.9859 201.967Z" fill="#8BC5E4"/>
<path fill-rule="evenodd" clip-rule="evenodd" d="M90.8672 197.857L142.829 167.857L90.8672 197.857Z" fill="#8BC5E4"/>
<path fill-rule="evenodd" clip-rule="evenodd" d="M114.579 219.397L121.707 223.512L173.668 193.512L166.541 189.397L114.579 219.397Z" fill="#8BC5E4"/>
<path fill-rule="evenodd" clip-rule="evenodd" d="M121.707 215.662L114.579 211.547L166.541 181.547L173.668 185.662L121.707 215.662Z" fill="#8BC5E4"/>
<path fill-rule="evenodd" clip-rule="evenodd" d="M114.579 211.547L166.541 181.547L114.579 211.547Z" fill="#8BC5E4"/>
<path fill-rule="evenodd" clip-rule="evenodd" d="M138.481 233.197L145.609 237.312L197.57 207.312L190.443 203.197L138.481 233.197Z" fill="#8BC5E4"/>
<path fill-rule="evenodd" clip-rule="evenodd" d="M145.609 229.462L138.481 225.347L190.443 195.347L197.57 199.462L145.609 229.462Z" fill="#8BC5E4"/>
<path fill-rule="evenodd" clip-rule="evenodd" d="M138.481 225.347L190.443 195.347L138.481 225.347Z" fill="#8BC5E4"/>
<path fill-rule="evenodd" clip-rule="evenodd" d="M88.2344 218.947L95.3618 223.062L147.323 193.062L140.196 188.947L88.2344 218.947Z" fill="#8BC5E4"/>
<path fill-rule="evenodd" clip-rule="evenodd" d="M95.3618 215.212L88.2344 211.097L140.196 181.097L147.323 185.212L95.3618 215.212Z" fill="#8BC5E4"/>
<path fill-rule="evenodd" clip-rule="evenodd" d="M88.2344 211.097L140.196 181.097L88.2344 211.097Z" fill="#8BC5E4"/>
<path fill-rule="evenodd" clip-rule="evenodd" d="M114.622 234.182L121.749 238.297L173.711 208.297L166.584 204.182L114.622 234.182Z" fill="#8BC5E4"/>
<path fill-rule="evenodd" clip-rule="evenodd" d="M121.749 230.447L114.622 226.332L166.584 196.332L173.711 200.447L121.749 230.447Z" fill="#8BC5E4"/>
<path fill-rule="evenodd" clip-rule="evenodd" d="M114.622 226.332L166.584 196.332L114.622 226.332Z" fill="#8BC5E4"/>
<path fill-rule="evenodd" clip-rule="evenodd" d="M141.062 249.447L148.19 253.562L200.151 223.562L193.024 219.447L141.062 249.447Z" fill="#8BC5E4"/>
<path fill-rule="evenodd" clip-rule="evenodd" d="M148.19 245.712L141.062 241.597L193.024 211.597L200.151 215.712L148.19 245.712Z" fill="#8BC5E4"/>
<path fill-rule="evenodd" clip-rule="evenodd" d="M141.062 241.597L193.024 211.597L141.062 241.597Z" fill="#8BC5E4"/>
<path fill-rule="evenodd" clip-rule="evenodd" d="M1 177.032V185.442L52.9615 155.442V147.032L1 177.032Z" fill="#8BC5E4"/>
<path fill-rule="evenodd" clip-rule="evenodd" d="M11.7217 199.302L195.241 305.307L247.203 275.307L63.6832 169.302L11.7217 199.302Z" fill="#8BC5E4"/>
<path fill-rule="evenodd" clip-rule="evenodd" d="M200.186 300.872L200.134 292.712L252.095 262.712L252.147 270.872L200.186 300.872Z" fill="#8BC5E4"/>
<path fill-rule="evenodd" clip-rule="evenodd" d="M191.638 295.467L13.7129 193.302L65.6744 163.302L243.599 265.467L191.638 295.467Z" fill="#8BC5E4"/>
<path fill-rule="evenodd" clip-rule="evenodd" d="M1 177.032L52.9615 147.032L1 177.032Z" fill="#8BC5E4"/>
<path fill-rule="evenodd" clip-rule="evenodd" d="M54.1045 133.442L162.687 196.132L214.648 166.132L106.066 103.442L54.1045 133.442Z" fill="#8BC5E4"/>
<path fill-rule="evenodd" clip-rule="evenodd" d="M162.687 196.132L162.695 196.137L214.657 166.137L214.648 166.132L162.687 196.132Z" fill="#8BC5E4"/>
<path fill-rule="evenodd" clip-rule="evenodd" d="M189.465 239.092V239.112L241.426 209.112V209.092L189.465 239.092Z" fill="#8BC5E4"/>
<path fill-rule="evenodd" clip-rule="evenodd" d="M189.465 239.112L194.133 273.577L246.094 243.577L241.426 209.112L189.465 239.112Z" fill="#8BC5E4"/>
<path fill-rule="evenodd" clip-rule="evenodd" d="M194.132 273.577V273.597L246.093 243.597V243.577L194.132 273.577Z" fill="#8BC5E4"/>
<path fill-rule="evenodd" clip-rule="evenodd" d="M185.515 284.112L15.1768 185.767L67.1384 155.767L237.477 254.112L185.515 284.112Z" fill="#8BC5E4"/>
<path fill-rule="evenodd" clip-rule="evenodd" d="M8.15332 166.692L14.1202 134.297L66.0817 104.297L60.1148 136.692L8.15332 166.692Z" fill="#8BC5E4"/>
<path fill-rule="evenodd" clip-rule="evenodd" d="M16.1123 127.917V142.407L68.0739 112.407V97.9167L16.1123 127.917Z" fill="#8BC5E4"/>
<path fill-rule="evenodd" clip-rule="evenodd" d="M54.1045 164.342V133.442L106.066 103.442V134.342L54.1045 164.342Z" fill="#8BC5E4"/>
<path fill-rule="evenodd" clip-rule="evenodd" d="M54.1045 133.442L106.066 103.442L54.1045 133.442Z" fill="#8BC5E4"/>
<path fill-rule="evenodd" clip-rule="evenodd" d="M83.4023 162.067L153.776 202.697L205.737 172.697L135.364 132.067L83.4023 162.067Z" fill="#8BC5E4"/>
<path fill-rule="evenodd" clip-rule="evenodd" d="M153.776 210.547L83.4023 169.917L135.364 139.917L205.737 180.547L153.776 210.547Z" fill="#8BC5E4"/>
<path fill-rule="evenodd" clip-rule="evenodd" d="M79.8945 163.962L131.856 133.962L79.8945 163.962Z" fill="#8BC5E4"/>
<path fill-rule="evenodd" clip-rule="evenodd" d="M93.2314 184.432L100.359 188.547L152.32 158.547L145.193 154.432L93.2314 184.432Z" fill="#8BC5E4"/>
<path fill-rule="evenodd" clip-rule="evenodd" d="M100.359 196.397L93.2314 192.282L145.193 162.282L152.32 166.397L100.359 196.397Z" fill="#8BC5E4"/>
<path fill-rule="evenodd" clip-rule="evenodd" d="M89.7334 186.342L141.695 156.342L89.7334 186.342Z" fill="#8BC5E4"/>
<path fill-rule="evenodd" clip-rule="evenodd" d="M114.579 196.757L121.707 200.872L173.668 170.872L166.541 166.757L114.579 196.757Z" fill="#8BC5E4"/>
<path fill-rule="evenodd" clip-rule="evenodd" d="M121.707 208.722L114.579 204.607L166.541 174.607L173.668 178.722L121.707 208.722Z" fill="#8BC5E4"/>
<path fill-rule="evenodd" clip-rule="evenodd" d="M111.072 198.662L163.034 168.662L111.072 198.662Z" fill="#8BC5E4"/>
<path fill-rule="evenodd" clip-rule="evenodd" d="M135.849 209.037L142.976 213.152L194.938 183.152L187.81 179.037L135.849 209.037Z" fill="#8BC5E4"/>
<path fill-rule="evenodd" clip-rule="evenodd" d="M142.976 221.002L135.849 216.887L187.81 186.887L194.938 191.002L142.976 221.002Z" fill="#8BC5E4"/>
<path fill-rule="evenodd" clip-rule="evenodd" d="M132.351 210.947L184.312 180.947L132.351 210.947Z" fill="#8BC5E4"/>
<path fill-rule="evenodd" clip-rule="evenodd" d="M90.8672 197.857L97.9859 201.967L149.947 171.967L142.829 167.857L90.8672 197.857Z" fill="#8BC5E4"/>
<path fill-rule="evenodd" clip-rule="evenodd" d="M97.9859 209.817L90.8672 205.707L142.829 175.707L149.947 179.817L97.9859 209.817Z" fill="#8BC5E4"/>
<path fill-rule="evenodd" clip-rule="evenodd" d="M87.3604 199.752L139.322 169.752L87.3604 199.752Z" fill="#8BC5E4"/>
<path fill-rule="evenodd" clip-rule="evenodd" d="M114.579 211.547L121.707 215.662L173.668 185.662L166.541 181.547L114.579 211.547Z" fill="#8BC5E4"/>
<path fill-rule="evenodd" clip-rule="evenodd" d="M121.707 223.512L114.579 219.397L166.541 189.397L173.668 193.512L121.707 223.512Z" fill="#8BC5E4"/>
<path fill-rule="evenodd" clip-rule="evenodd" d="M111.08 213.447L163.042 183.447L111.08 213.447Z" fill="#8BC5E4"/>
<path fill-rule="evenodd" clip-rule="evenodd" d="M138.481 225.347L145.609 229.462L197.57 199.462L190.443 195.347L138.481 225.347Z" fill="#8BC5E4"/>
<path fill-rule="evenodd" clip-rule="evenodd" d="M145.609 237.312L138.481 233.197L190.443 203.197L197.57 207.312L145.609 237.312Z" fill="#8BC5E4"/>
<path fill-rule="evenodd" clip-rule="evenodd" d="M134.982 227.247L186.944 197.247L134.982 227.247Z" fill="#8BC5E4"/>
<path fill-rule="evenodd" clip-rule="evenodd" d="M88.2344 211.097L95.3618 215.212L147.323 185.212L140.196 181.097L88.2344 211.097Z" fill="#8BC5E4"/>
<path fill-rule="evenodd" clip-rule="evenodd" d="M95.3618 223.062L88.2344 218.947L140.196 188.947L147.323 193.062L95.3618 223.062Z" fill="#8BC5E4"/>
<path fill-rule="evenodd" clip-rule="evenodd" d="M84.7275 213.002L136.689 183.002L84.7275 213.002Z" fill="#8BC5E4"/>
<path fill-rule="evenodd" clip-rule="evenodd" d="M114.622 226.332L121.749 230.447L173.711 200.447L166.584 196.332L114.622 226.332Z" fill="#8BC5E4"/>
<path fill-rule="evenodd" clip-rule="evenodd" d="M121.749 238.297L114.622 234.182L166.584 204.182L173.711 208.297L121.749 238.297Z" fill="#8BC5E4"/>
<path fill-rule="evenodd" clip-rule="evenodd" d="M111.124 228.242L163.086 198.242L111.124 228.242Z" fill="#8BC5E4"/>
<path fill-rule="evenodd" clip-rule="evenodd" d="M141.062 241.597L148.19 245.712L200.151 215.712L193.024 211.597L141.062 241.597Z" fill="#8BC5E4"/>
<path fill-rule="evenodd" clip-rule="evenodd" d="M148.19 253.562L141.062 249.447L193.024 219.447L200.151 223.562L148.19 253.562Z" fill="#8BC5E4"/>
<path fill-rule="evenodd" clip-rule="evenodd" d="M137.563 243.507L189.525 213.507L137.563 243.507Z" fill="#8BC5E4"/>
<path fill-rule="evenodd" clip-rule="evenodd" d="M66.835 34.8318L167.952 93.2118L219.914 63.2118L118.797 4.83179L66.835 34.8318Z" fill="#8BC5E4"/>
<path fill-rule="evenodd" clip-rule="evenodd" d="M173.079 101.922V185.732L225.041 155.732V71.9218L173.079 101.922Z" fill="#8BC5E4"/>
<path fill-rule="evenodd" clip-rule="evenodd" d="M167.952 188.522L66.835 130.142L118.797 100.142L219.914 158.522L167.952 188.522Z" fill="#8BC5E4"/>
<path fill-rule="evenodd" clip-rule="evenodd" d="M61.708 121.432V37.6218L113.67 7.62183V91.4318L61.708 121.432Z" fill="#8BC5E4"/>
<path fill-rule="evenodd" clip-rule="evenodd" d="M66.835 34.8318L118.797 4.83179L66.835 34.8318Z" fill="#8BC5E4"/>
<path fill-rule="evenodd" clip-rule="evenodd" d="M112.432 71.4568L164.393 41.4568L112.432 71.4568Z" fill="#8BC5E4"/>
<path fill-rule="evenodd" clip-rule="evenodd" d="M79.1758 61.3468L155.611 105.477L207.573 75.4768L131.137 31.3468L79.1758 61.3468Z" fill="#8BC5E4"/>
<path fill-rule="evenodd" clip-rule="evenodd" d="M162.609 117.347V168.277L214.571 138.277V87.3468L162.609 117.347Z" fill="#8BC5E4"/>
<path fill-rule="evenodd" clip-rule="evenodd" d="M155.611 172.077L79.1758 127.947L131.137 97.9468L207.573 142.077L155.611 172.077Z" fill="#8BC5E4"/>
<path fill-rule="evenodd" clip-rule="evenodd" d="M72.1787 116.067V65.1368L124.14 35.1368V86.0668L72.1787 116.067Z" fill="#8BC5E4"/>
<path fill-rule="evenodd" clip-rule="evenodd" d="M72.1787 65.1368L124.14 35.1368L72.1787 65.1368Z" fill="#8BC5E4"/>
<path fill-rule="evenodd" clip-rule="evenodd" d="M66.835 31.1718C64.4508 29.7948 62.2918 29.6728 60.7598 30.5888L112.721 0.588796C114.253 -0.327204 116.412 -0.205204 118.797 1.1718L66.835 31.1718Z" fill="#8BC5E4"/>
<path fill-rule="evenodd" clip-rule="evenodd" d="M60.7616 30.5868C59.3226 31.4448 58.4356 33.2178 58.4346 35.7238L110.396 5.72379C110.397 3.21779 111.284 1.44479 112.723 0.586792L60.7616 30.5868Z" fill="#8BC5E4"/>
<path fill-rule="evenodd" clip-rule="evenodd" d="M58.4346 119.542C58.4346 124.722 62.2105 131.132 66.835 133.802L118.797 103.802C114.172 101.132 110.396 94.7217 110.396 89.5417L58.4346 119.542Z" fill="#8BC5E4"/>
<path fill-rule="evenodd" clip-rule="evenodd" d="M167.952 192.182C170.337 193.559 172.494 193.679 174.023 192.763L225.984 162.763C224.455 163.679 222.298 163.559 219.914 162.182L167.952 192.182Z" fill="#8BC5E4"/>
<path fill-rule="evenodd" clip-rule="evenodd" d="M174.021 192.764C175.458 191.905 176.342 190.131 176.344 187.625L228.305 157.625C228.303 160.131 227.419 161.905 225.982 162.764L174.021 192.764Z" fill="#8BC5E4"/>
<path fill-rule="evenodd" clip-rule="evenodd" d="M176.344 103.807C176.344 98.6268 172.577 92.2218 167.952 89.5518L219.914 59.5518C224.538 62.2218 228.305 68.6268 228.305 73.8068L176.344 103.807Z" fill="#8BC5E4"/>
<path fill-rule="evenodd" clip-rule="evenodd" d="M167.952 93.2118C170.827 94.8718 173.079 98.7018 173.079 101.922L225.041 71.9218C225.041 68.7018 222.789 64.8718 219.914 63.2118L167.952 93.2118Z" fill="#8BC5E4"/>
<path fill-rule="evenodd" clip-rule="evenodd" d="M173.079 185.732C173.079 187.287 172.551 188.379 171.679 188.904L223.64 158.904C224.512 158.379 225.04 157.287 225.041 155.732L173.079 185.732Z" fill="#8BC5E4"/>
<path fill-rule="evenodd" clip-rule="evenodd" d="M171.682 188.903C170.756 189.462 169.441 189.379 167.961 188.527L219.922 158.527C221.402 159.379 222.717 159.462 223.643 158.903L171.682 188.903Z" fill="#8BC5E4"/>
<path fill-rule="evenodd" clip-rule="evenodd" d="M66.8348 130.142C63.9596 128.482 61.708 124.642 61.708 121.432L113.67 91.4318C113.67 94.6418 115.921 98.4818 118.796 100.142L66.8348 130.142Z" fill="#8BC5E4"/>
<path fill-rule="evenodd" clip-rule="evenodd" d="M61.708 37.6218C61.7076 36.0618 62.2366 34.9698 63.1076 34.4458L115.069 4.4458C114.198 4.9698 113.669 6.0618 113.67 7.6218L61.708 37.6218Z" fill="#8BC5E4"/>
<path fill-rule="evenodd" clip-rule="evenodd" d="M63.1064 34.4468C64.0324 33.8888 65.3474 33.9748 66.8274 34.8268L118.789 4.82676C117.309 3.97476 115.994 3.88876 115.068 4.44676L63.1064 34.4468Z" fill="#8BC5E4"/>
<path fill-rule="evenodd" clip-rule="evenodd" d="M117.116 68.9119C115.782 68.1409 114.578 68.0709 113.725 68.5809L165.686 38.5809C166.539 38.0709 167.743 38.1409 169.078 38.9119L117.116 68.9119Z" fill="#8BC5E4"/>
<path fill-rule="evenodd" clip-rule="evenodd" d="M113.727 68.5798C112.926 69.0578 112.433 70.0468 112.431 71.4488L164.392 41.4488C164.394 40.0468 164.887 39.0578 165.688 38.5798L113.727 68.5798Z" fill="#8BC5E4"/>
<path fill-rule="evenodd" clip-rule="evenodd" d="M112.432 71.4568C112.432 74.3568 114.527 77.9168 117.117 79.4118L169.078 49.4118C166.489 47.9168 164.393 44.3568 164.393 41.4568L112.432 71.4568Z" fill="#8BC5E4"/>
<path fill-rule="evenodd" clip-rule="evenodd" d="M117.116 79.4117C118.447 80.1797 119.651 80.2507 120.506 79.7407L172.467 49.7407C171.612 50.2507 170.408 50.1797 169.078 49.4117L117.116 79.4117Z" fill="#8BC5E4"/>
<path fill-rule="evenodd" clip-rule="evenodd" d="M120.503 79.7428C121.306 79.2648 121.8 78.2768 121.802 76.8748L173.763 46.8748C173.761 48.2768 173.267 49.2648 172.464 49.7428L120.503 79.7428Z" fill="#8BC5E4"/>
<path fill-rule="evenodd" clip-rule="evenodd" d="M121.801 76.8667C121.801 73.9667 119.697 70.4017 117.116 68.9117L169.078 38.9117C171.659 40.4017 173.763 43.9667 173.763 46.8667L121.801 76.8667Z" fill="#8BC5E4"/>
<path fill-rule="evenodd" clip-rule="evenodd" d="M79.1765 61.3468C77.1804 60.1948 75.3824 60.0838 74.1084 60.8428L126.07 30.8428C127.344 30.0838 129.142 30.1948 131.138 31.3468L79.1765 61.3468Z" fill="#8BC5E4"/>
<path fill-rule="evenodd" clip-rule="evenodd" d="M74.1107 60.8418C72.9137 61.5528 72.1797 63.0308 72.1787 65.1308L124.14 35.1308C124.141 33.0308 124.875 31.5528 126.072 30.8418L74.1107 60.8418Z" fill="#8BC5E4"/>
<path fill-rule="evenodd" clip-rule="evenodd" d="M72.1787 116.067C72.1787 120.417 75.3051 125.712 79.1762 127.947L131.138 97.9468C127.267 95.7118 124.14 90.4168 124.14 86.0668L72.1787 116.067Z" fill="#8BC5E4"/>
<path fill-rule="evenodd" clip-rule="evenodd" d="M155.611 172.077C157.608 173.229 159.406 173.34 160.679 172.58L212.64 142.58C211.367 143.34 209.569 143.229 207.573 142.077L155.611 172.077Z" fill="#8BC5E4"/>
<path fill-rule="evenodd" clip-rule="evenodd" d="M160.677 172.581C161.874 171.868 162.608 170.388 162.609 168.283L214.57 138.283C214.569 140.388 213.835 141.868 212.638 142.581L160.677 172.581Z" fill="#8BC5E4"/>
<path fill-rule="evenodd" clip-rule="evenodd" d="M162.609 117.347C162.609 113.007 159.482 107.712 155.611 105.477L207.573 75.4768C211.444 77.7118 214.57 83.0068 214.57 87.3468L162.609 117.347Z" fill="#8BC5E4"/>
<path fill-rule="evenodd" clip-rule="evenodd" d="M35.1038 36.0718C29.6827 32.9418 24.8027 32.6478 21.3467 34.7148L73.3082 4.71481C76.7642 2.64781 81.6442 2.94181 87.0653 6.07181L35.1038 36.0718Z" fill="#8BC5E4"/>
<path fill-rule="evenodd" clip-rule="evenodd" d="M21.3503 34.7128C18.1043 36.6528 16.1143 40.6758 16.1123 46.3878L68.0738 16.3878C68.0758 10.6758 70.0658 6.65277 73.3118 4.71277L21.3503 34.7128Z" fill="#8BC5E4"/>
<path fill-rule="evenodd" clip-rule="evenodd" d="M16.1122 120.057C13.8692 122.502 12.1112 126.297 10.9248 131.692L62.8863 101.692C64.0727 96.2968 65.8308 92.5018 68.0738 90.0568L16.1122 120.057Z" fill="#8BC5E4"/>
<path fill-rule="evenodd" clip-rule="evenodd" d="M10.9247 131.692C10.9247 131.712 10.916 131.727 10.916 131.737L62.8775 101.737C62.8775 101.727 62.8862 101.712 62.8862 101.692L10.9247 131.692Z" fill="#8BC5E4"/>
<path fill-rule="evenodd" clip-rule="evenodd" d="M4.94 164.147C4.1433 168.227 3.8402 172.632 5.2345 177.247L57.196 147.247C55.8017 142.632 56.1048 138.227 56.9015 134.147L4.94 164.147Z" fill="#8BC5E4"/>
<path fill-rule="evenodd" clip-rule="evenodd" d="M5.23535 177.247C6.62095 181.847 10.0245 186.462 15.1773 189.437L67.1389 159.437C61.986 156.462 58.5825 151.847 57.1968 147.247L5.23535 177.247Z" fill="#8BC5E4"/>
<path fill-rule="evenodd" clip-rule="evenodd" d="M185.516 287.782C188.46 289.482 190.798 290.572 192.73 290.967L244.691 260.967C242.76 260.572 240.422 259.482 237.477 257.782L185.516 287.782Z" fill="#8BC5E4"/>
<path fill-rule="evenodd" clip-rule="evenodd" d="M192.729 290.967C194.072 291.242 195.227 291.137 196.108 290.624L248.07 260.624C247.189 261.137 246.034 261.242 244.691 260.967L192.729 290.967Z" fill="#8BC5E4"/>
<path fill-rule="evenodd" clip-rule="evenodd" d="M196.118 290.618C196.498 290.395 196.827 290.096 197.098 289.719L249.06 259.719C248.789 260.096 248.46 260.395 248.08 260.618L196.118 290.618Z" fill="#8BC5E4"/>
<path fill-rule="evenodd" clip-rule="evenodd" d="M197.103 289.712C198.904 287.182 198.393 282.167 197.354 274.847L249.315 244.847C250.354 252.167 250.865 257.182 249.064 259.712L197.103 289.712Z" fill="#8BC5E4"/>
<path fill-rule="evenodd" clip-rule="evenodd" d="M192.686 240.372C191.274 229.297 188.044 219.692 182.943 211.617L234.905 181.617C240.006 189.692 243.236 199.297 244.648 210.372L192.686 240.372Z" fill="#8BC5E4"/>
<path fill-rule="evenodd" clip-rule="evenodd" d="M182.943 211.617C177.833 203.537 170.957 197.197 162.687 192.472L214.648 162.472C222.919 167.197 229.795 173.537 234.904 181.617L182.943 211.617Z" fill="#8BC5E4"/>
<path fill-rule="evenodd" clip-rule="evenodd" d="M54.1051 68.3318C54.1051 56.5318 45.6354 42.1518 35.1045 36.0718L87.066 6.07178C97.5969 12.1518 106.067 26.5318 106.067 38.3318L54.1051 68.3318Z" fill="#8BC5E4"/>
<path fill-rule="evenodd" clip-rule="evenodd" d="M162.687 196.132C162.687 196.132 162.687 196.132 162.695 196.137L214.657 166.137C214.648 166.132 214.648 166.132 214.648 166.132L162.687 196.132Z" fill="#8BC5E4"/>
<path fill-rule="evenodd" clip-rule="evenodd" d="M162.695 196.137C170.412 200.542 176.353 206.122 180.761 213.087L232.722 183.087C228.314 176.122 222.373 170.542 214.657 166.137L162.695 196.137Z" fill="#8BC5E4"/>
<path fill-rule="evenodd" clip-rule="evenodd" d="M180.761 213.087C185.16 220.047 188.122 228.597 189.464 239.092L241.426 209.092C240.083 198.597 237.122 190.047 232.722 183.087L180.761 213.087Z" fill="#8BC5E4"/>
<path fill-rule="evenodd" clip-rule="evenodd" d="M189.465 239.092C189.465 239.102 189.465 239.102 189.465 239.112L241.426 209.112C241.426 209.102 241.426 209.102 241.426 209.092L189.465 239.092Z" fill="#8BC5E4"/>
<path fill-rule="evenodd" clip-rule="evenodd" d="M194.132 273.577C194.132 273.587 194.132 273.587 194.132 273.597L246.093 243.597C246.093 243.587 246.093 243.587 246.093 243.577L194.132 273.577Z" fill="#8BC5E4"/>
<path fill-rule="evenodd" clip-rule="evenodd" d="M194.132 273.597C195.145 280.762 195.223 284.897 194.253 286.257L246.215 256.257C247.185 254.897 247.107 250.762 246.093 243.597L194.132 273.597Z" fill="#8BC5E4"/>
<path fill-rule="evenodd" clip-rule="evenodd" d="M194.253 286.257C194.091 286.485 193.905 286.665 193.678 286.791L245.639 256.791C245.866 256.665 246.052 256.485 246.215 256.257L194.253 286.257Z" fill="#8BC5E4"/>
<path fill-rule="evenodd" clip-rule="evenodd" d="M193.679 286.791C193.615 286.827 193.548 286.858 193.478 286.885L245.439 256.885C245.509 256.858 245.576 256.827 245.64 256.791L193.679 286.791Z" fill="#8BC5E4"/>
<path fill-rule="evenodd" clip-rule="evenodd" d="M193.48 286.884C193.054 287.048 192.494 287.058 191.707 286.894L243.669 256.894C244.456 257.058 245.016 257.048 245.442 256.884L193.48 286.884Z" fill="#8BC5E4"/>
<path fill-rule="evenodd" clip-rule="evenodd" d="M191.699 286.892C190.322 286.617 188.278 285.707 185.516 284.112L237.477 254.112C240.24 255.707 242.284 256.617 243.661 256.892L191.699 286.892Z" fill="#8BC5E4"/>
<path fill-rule="evenodd" clip-rule="evenodd" d="M15.1763 185.767C10.8895 183.292 9.20944 180.752 8.25684 177.602L60.2183 147.602C61.1709 150.752 62.851 153.292 67.1379 155.767L15.1763 185.767Z" fill="#8BC5E4"/>
<path fill-rule="evenodd" clip-rule="evenodd" d="M8.25695 177.602C7.30435 174.442 7.40825 170.492 8.14435 166.707L60.1059 136.707C59.3698 140.492 59.2659 144.442 60.2184 147.602L8.25695 177.602Z" fill="#8BC5E4"/>
<path fill-rule="evenodd" clip-rule="evenodd" d="M8.14453 166.707C8.15323 166.702 8.15323 166.692 8.15323 166.692L60.1147 136.692C60.1147 136.692 60.1147 136.702 60.106 136.707L8.14453 166.707Z" fill="#8BC5E4"/>
<path fill-rule="evenodd" clip-rule="evenodd" d="M14.1201 134.297C14.6743 131.777 15.3498 129.667 16.1119 127.917L68.0735 97.9167C67.3114 99.6667 66.6359 101.777 66.0816 104.297L14.1201 134.297Z" fill="#8BC5E4"/>
<path fill-rule="evenodd" clip-rule="evenodd" d="M16.1123 142.407C16.1123 154.207 24.5907 168.592 35.1043 174.662L87.0658 144.662C76.5523 138.592 68.0739 124.207 68.0739 112.407L16.1123 142.407Z" fill="#8BC5E4"/>
<path fill-rule="evenodd" clip-rule="evenodd" d="M35.1045 174.662C40.5344 177.797 45.4164 178.093 48.8714 176.026L100.833 146.026C97.3779 148.093 92.4959 147.797 87.066 144.662L35.1045 174.662Z" fill="#8BC5E4"/>
<path fill-rule="evenodd" clip-rule="evenodd" d="M48.8691 176.027C52.1151 174.087 54.1031 170.063 54.1051 164.351L106.067 134.351C106.065 140.063 104.077 144.087 100.831 146.027L48.8691 176.027Z" fill="#8BC5E4"/>
<path fill-rule="evenodd" clip-rule="evenodd" d="M83.4026 162.067C82.4023 161.49 81.5013 161.437 80.8623 161.818L132.824 131.818C133.463 131.437 134.364 131.49 135.364 132.067L83.4026 162.067Z" fill="#8BC5E4"/>
<path fill-rule="evenodd" clip-rule="evenodd" d="M80.8635 161.817C80.2645 162.173 79.8955 162.912 79.8945 163.956L131.856 133.956C131.857 132.912 132.226 132.173 132.825 131.817L80.8635 161.817Z" fill="#8BC5E4"/>
<path fill-rule="evenodd" clip-rule="evenodd" d="M79.8945 163.962C79.8945 166.132 81.462 168.797 83.4019 169.917L135.363 139.917C133.424 138.797 131.856 136.132 131.856 133.962L79.8945 163.962Z" fill="#8BC5E4"/>
<path fill-rule="evenodd" clip-rule="evenodd" d="M153.775 210.547C154.776 211.124 155.677 211.177 156.315 210.795L208.276 180.795C207.638 181.177 206.737 181.124 205.737 180.547L153.775 210.547Z" fill="#8BC5E4"/>
<path fill-rule="evenodd" clip-rule="evenodd" d="M156.314 210.796C156.913 210.438 157.282 209.697 157.283 208.648L209.245 178.648C209.244 179.697 208.875 180.438 208.276 180.796L156.314 210.796Z" fill="#8BC5E4"/>
<path fill-rule="evenodd" clip-rule="evenodd" d="M157.283 208.642C157.283 206.482 155.715 203.817 153.775 202.697L205.737 172.697C207.677 173.817 209.244 176.482 209.244 178.642L157.283 208.642Z" fill="#8BC5E4"/>
<path fill-rule="evenodd" clip-rule="evenodd" d="M93.2319 184.432C92.2362 183.857 91.3372 183.806 90.6992 184.189L142.661 154.189C143.299 153.806 144.198 153.857 145.193 154.432L93.2319 184.432Z" fill="#8BC5E4"/>
<path fill-rule="evenodd" clip-rule="evenodd" d="M90.7014 184.187C90.1034 184.546 89.7344 185.287 89.7334 186.336L141.695 156.336C141.696 155.287 142.065 154.546 142.663 154.187L90.7014 184.187Z" fill="#8BC5E4"/>
<path fill-rule="evenodd" clip-rule="evenodd" d="M89.7334 186.342C89.7334 188.502 91.3009 191.167 93.2321 192.282L145.194 162.282C143.262 161.167 141.695 158.502 141.695 156.342L89.7334 186.342Z" fill="#8BC5E4"/>
<path fill-rule="evenodd" clip-rule="evenodd" d="M100.359 196.397C101.355 196.972 102.254 197.023 102.891 196.642L154.853 166.642C154.216 167.023 153.317 166.972 152.321 166.397L100.359 196.397Z" fill="#8BC5E4"/>
<path fill-rule="evenodd" clip-rule="evenodd" d="M102.889 196.643C103.488 196.286 103.857 195.547 103.858 194.503L155.819 164.503C155.818 165.547 155.449 166.286 154.85 166.643L102.889 196.643Z" fill="#8BC5E4"/>
<path fill-rule="evenodd" clip-rule="evenodd" d="M103.858 194.497C103.858 192.327 102.291 189.662 100.359 188.547L152.321 158.547C154.252 159.662 155.82 162.327 155.82 164.497L103.858 194.497Z" fill="#8BC5E4"/>
<path fill-rule="evenodd" clip-rule="evenodd" d="M114.579 196.757C113.583 196.182 112.682 196.13 112.042 196.511L164.003 166.511C164.643 166.13 165.544 166.182 166.541 166.757L114.579 196.757Z" fill="#8BC5E4"/>
<path fill-rule="evenodd" clip-rule="evenodd" d="M112.044 196.51C111.444 196.867 111.073 197.607 111.072 198.656L163.034 168.656C163.035 167.607 163.406 166.867 164.006 166.51L112.044 196.51Z" fill="#8BC5E4"/>
<path fill-rule="evenodd" clip-rule="evenodd" d="M111.072 198.662C111.072 200.822 112.648 203.492 114.58 204.607L166.541 174.607C164.61 173.492 163.034 170.822 163.034 168.662L111.072 198.662Z" fill="#8BC5E4"/>
<path fill-rule="evenodd" clip-rule="evenodd" d="M121.707 208.722C122.702 209.297 123.602 209.348 124.239 208.967L176.201 178.967C175.564 179.348 174.664 179.297 173.669 178.722L121.707 208.722Z" fill="#8BC5E4"/>
<path fill-rule="evenodd" clip-rule="evenodd" d="M124.237 208.968C124.835 208.611 125.204 207.872 125.205 206.828L177.167 176.828C177.166 177.872 176.797 178.611 176.199 178.968L124.237 208.968Z" fill="#8BC5E4"/>
<path fill-rule="evenodd" clip-rule="evenodd" d="M125.206 206.822C125.206 204.652 123.638 201.987 121.707 200.872L173.669 170.872C175.6 171.987 177.167 174.652 177.167 176.822L125.206 206.822Z" fill="#8BC5E4"/>
<path fill-rule="evenodd" clip-rule="evenodd" d="M135.849 209.037C134.853 208.462 133.954 208.411 133.317 208.794L185.279 178.794C185.916 178.411 186.815 178.462 187.811 179.037L135.849 209.037Z" fill="#8BC5E4"/>
<path fill-rule="evenodd" clip-rule="evenodd" d="M133.318 208.792C132.72 209.151 132.351 209.892 132.35 210.941L184.311 180.941C184.312 179.892 184.681 179.151 185.279 178.792L133.318 208.792Z" fill="#8BC5E4"/>
<path fill-rule="evenodd" clip-rule="evenodd" d="M132.351 210.947C132.351 213.107 133.918 215.772 135.849 216.887L187.811 186.887C185.88 185.772 184.312 183.107 184.312 180.947L132.351 210.947Z" fill="#8BC5E4"/>
<path fill-rule="evenodd" clip-rule="evenodd" d="M142.977 221.002C143.972 221.577 144.871 221.628 145.508 221.247L197.47 191.247C196.833 191.628 195.934 191.577 194.938 191.002L142.977 221.002Z" fill="#8BC5E4"/>
<path fill-rule="evenodd" clip-rule="evenodd" d="M145.507 221.248C146.105 220.891 146.474 220.152 146.475 219.108L198.436 189.108C198.435 190.152 198.066 190.891 197.468 191.248L145.507 221.248Z" fill="#8BC5E4"/>
<path fill-rule="evenodd" clip-rule="evenodd" d="M146.475 219.102C146.475 216.932 144.908 214.267 142.977 213.152L194.938 183.152C196.869 184.267 198.437 186.932 198.437 189.102L146.475 219.102Z" fill="#8BC5E4"/>
<path fill-rule="evenodd" clip-rule="evenodd" d="M90.8676 197.857C89.8671 197.279 88.9661 197.227 88.3281 197.608L140.29 167.608C140.928 167.227 141.829 167.279 142.829 167.857L90.8676 197.857Z" fill="#8BC5E4"/>
<path fill-rule="evenodd" clip-rule="evenodd" d="M88.3294 197.607C87.7304 197.963 87.3614 198.702 87.3604 199.746L139.322 169.746C139.323 168.702 139.692 167.963 140.291 167.607L88.3294 197.607Z" fill="#8BC5E4"/>
<path fill-rule="evenodd" clip-rule="evenodd" d="M87.3604 199.752C87.3604 201.922 88.9279 204.587 90.8678 205.707L142.829 175.707C140.889 174.587 139.322 171.922 139.322 169.752L87.3604 199.752Z" fill="#8BC5E4"/>
<path fill-rule="evenodd" clip-rule="evenodd" d="M97.9863 209.817C98.9861 210.395 99.8881 210.447 100.526 210.065L152.488 180.065C151.85 180.447 150.948 180.395 149.948 179.817L97.9863 209.817Z" fill="#8BC5E4"/>
<path fill-rule="evenodd" clip-rule="evenodd" d="M100.524 210.066C101.124 209.708 101.493 208.967 101.494 207.918L153.456 177.918C153.455 178.967 153.086 179.708 152.486 180.066L100.524 210.066Z" fill="#8BC5E4"/>
<path fill-rule="evenodd" clip-rule="evenodd" d="M101.494 207.912C101.494 205.752 99.9262 203.087 97.9863 201.967L149.948 171.967C151.888 173.087 153.455 175.752 153.455 177.912L101.494 207.912Z" fill="#8BC5E4"/>
<path fill-rule="evenodd" clip-rule="evenodd" d="M114.579 211.547C113.583 210.972 112.684 210.921 112.047 211.302L164.008 181.302C164.645 180.921 165.544 180.972 166.541 181.547L114.579 211.547Z" fill="#8BC5E4"/>
<path fill-rule="evenodd" clip-rule="evenodd" d="M112.049 211.301C111.45 211.658 111.082 212.397 111.08 213.441L163.042 183.441C163.044 182.397 163.412 181.658 164.011 181.301L112.049 211.301Z" fill="#8BC5E4"/>
<path fill-rule="evenodd" clip-rule="evenodd" d="M111.08 213.447C111.08 215.617 112.648 218.282 114.579 219.397L166.54 189.397C164.609 188.282 163.042 185.617 163.042 183.447L111.08 213.447Z" fill="#8BC5E4"/>
<path fill-rule="evenodd" clip-rule="evenodd" d="M121.707 223.512C122.702 224.087 123.602 224.138 124.239 223.755L176.201 193.755C175.564 194.138 174.664 194.087 173.669 193.512L121.707 223.512Z" fill="#8BC5E4"/>
<path fill-rule="evenodd" clip-rule="evenodd" d="M124.237 223.757C124.835 223.398 125.204 222.657 125.205 221.608L177.167 191.608C177.166 192.657 176.797 193.398 176.199 193.757L124.237 223.757Z" fill="#8BC5E4"/>
<path fill-rule="evenodd" clip-rule="evenodd" d="M125.206 221.602C125.206 219.442 123.638 216.777 121.707 215.662L173.669 185.662C175.6 186.777 177.167 189.442 177.167 191.602L125.206 221.602Z" fill="#8BC5E4"/>
<path fill-rule="evenodd" clip-rule="evenodd" d="M138.482 225.347C137.486 224.772 136.587 224.721 135.949 225.102L187.911 195.102C188.549 194.721 189.448 194.772 190.443 195.347L138.482 225.347Z" fill="#8BC5E4"/>
<path fill-rule="evenodd" clip-rule="evenodd" d="M135.951 225.101C135.353 225.458 134.984 226.197 134.983 227.241L186.945 197.241C186.946 196.197 187.315 195.458 187.913 195.101L135.951 225.101Z" fill="#8BC5E4"/>
<path fill-rule="evenodd" clip-rule="evenodd" d="M134.982 227.247C134.982 229.417 136.55 232.082 138.481 233.197L190.443 203.197C188.511 202.082 186.944 199.417 186.944 197.247L134.982 227.247Z" fill="#8BC5E4"/>
<path fill-rule="evenodd" clip-rule="evenodd" d="M145.609 237.312C146.605 237.887 147.504 237.938 148.141 237.555L200.103 207.555C199.466 207.938 198.567 207.887 197.571 207.312L145.609 237.312Z" fill="#8BC5E4"/>
<path fill-rule="evenodd" clip-rule="evenodd" d="M148.139 237.557C148.738 237.198 149.107 236.457 149.108 235.408L201.069 205.408C201.068 206.457 200.699 207.198 200.1 207.557L148.139 237.557Z" fill="#8BC5E4"/>
<path fill-rule="evenodd" clip-rule="evenodd" d="M149.108 235.402C149.108 233.242 147.541 230.577 145.609 229.462L197.571 199.462C199.502 200.577 201.07 203.242 201.07 205.402L149.108 235.402Z" fill="#8BC5E4"/>
<path fill-rule="evenodd" clip-rule="evenodd" d="M88.235 211.097C87.2343 210.52 86.3333 210.467 85.6953 210.849L137.657 180.849C138.295 180.467 139.196 180.52 140.197 181.097L88.235 211.097Z" fill="#8BC5E4"/>
<path fill-rule="evenodd" clip-rule="evenodd" d="M85.6966 210.848C85.0966 211.206 84.7276 211.947 84.7266 212.996L136.688 182.996C136.689 181.947 137.058 181.206 137.658 180.848L85.6966 210.848Z" fill="#8BC5E4"/>
<path fill-rule="evenodd" clip-rule="evenodd" d="M84.7275 213.002C84.7275 215.162 86.295 217.827 88.2349 218.947L140.197 188.947C138.257 187.827 136.689 185.162 136.689 183.002L84.7275 213.002Z" fill="#8BC5E4"/>
<path fill-rule="evenodd" clip-rule="evenodd" d="M95.3623 223.062C96.3582 223.637 97.2572 223.688 97.8942 223.307L149.856 193.307C149.219 193.688 148.32 193.637 147.324 193.062L95.3623 223.062Z" fill="#8BC5E4"/>
<path fill-rule="evenodd" clip-rule="evenodd" d="M97.8916 223.308C98.4906 222.951 98.8596 222.212 98.8606 221.168L150.822 191.168C150.821 192.212 150.452 192.951 149.853 193.308L97.8916 223.308Z" fill="#8BC5E4"/>
<path fill-rule="evenodd" clip-rule="evenodd" d="M98.8611 221.162C98.8611 218.992 97.2936 216.327 95.3623 215.212L147.324 185.212C149.255 186.327 150.823 188.992 150.823 191.162L98.8611 221.162Z" fill="#8BC5E4"/>
<path fill-rule="evenodd" clip-rule="evenodd" d="M114.622 226.332C113.627 225.757 112.728 225.706 112.09 226.089L164.051 196.089C164.689 195.706 165.588 195.757 166.584 196.332L114.622 226.332Z" fill="#8BC5E4"/>
<path fill-rule="evenodd" clip-rule="evenodd" d="M112.092 226.087C111.494 226.446 111.125 227.187 111.124 228.236L163.086 198.236C163.087 197.187 163.456 196.446 164.054 196.087L112.092 226.087Z" fill="#8BC5E4"/>
<path fill-rule="evenodd" clip-rule="evenodd" d="M111.124 228.242C111.124 230.402 112.692 233.067 114.623 234.182L166.584 204.182C164.653 203.067 163.086 200.402 163.086 198.242L111.124 228.242Z" fill="#8BC5E4"/>
<path fill-rule="evenodd" clip-rule="evenodd" d="M121.75 238.297C122.746 238.872 123.647 238.924 124.287 238.544L176.249 208.544C175.609 208.924 174.708 208.872 173.711 208.297L121.75 238.297Z" fill="#8BC5E4"/>
<path fill-rule="evenodd" clip-rule="evenodd" d="M124.285 238.545C124.885 238.19 125.256 237.452 125.257 236.408L177.219 206.408C177.218 207.452 176.847 208.19 176.247 208.545L124.285 238.545Z" fill="#8BC5E4"/>
<path fill-rule="evenodd" clip-rule="evenodd" d="M125.257 236.402C125.257 234.232 123.681 231.562 121.75 230.447L173.711 200.447C175.643 201.562 177.219 204.232 177.219 206.402L125.257 236.402Z" fill="#8BC5E4"/>
<path fill-rule="evenodd" clip-rule="evenodd" d="M141.063 241.597C140.066 241.022 139.167 240.971 138.53 241.354L190.492 211.354C191.129 210.971 192.028 211.022 193.024 211.597L141.063 241.597Z" fill="#8BC5E4"/>
<path fill-rule="evenodd" clip-rule="evenodd" d="M138.532 241.352C137.934 241.711 137.565 242.452 137.564 243.501L189.526 213.501C189.527 212.452 189.896 211.711 190.494 211.352L138.532 241.352Z" fill="#8BC5E4"/>
<path fill-rule="evenodd" clip-rule="evenodd" d="M137.563 243.507C137.563 245.667 139.131 248.332 141.062 249.447L193.024 219.447C191.093 218.332 189.525 215.667 189.525 213.507L137.563 243.507Z" fill="#8BC5E4"/>
<path fill-rule="evenodd" clip-rule="evenodd" d="M148.189 253.562C149.185 254.137 150.085 254.188 150.722 253.807L202.683 223.807C202.046 224.188 201.146 224.137 200.151 223.562L148.189 253.562Z" fill="#8BC5E4"/>
<path fill-rule="evenodd" clip-rule="evenodd" d="M150.72 253.808C151.318 253.451 151.687 252.712 151.688 251.668L203.649 221.668C203.648 222.712 203.279 223.451 202.681 223.808L150.72 253.808Z" fill="#8BC5E4"/>
<path fill-rule="evenodd" clip-rule="evenodd" d="M151.688 251.662C151.688 249.492 150.121 246.827 148.189 245.712L200.151 215.712C202.082 216.827 203.65 219.492 203.65 221.662L151.688 251.662Z" fill="#8BC5E4"/>
<path fill-rule="evenodd" clip-rule="evenodd" d="M1 185.442C1 190.292 4.6633 195.227 11.7214 199.302L63.6829 169.302C56.6248 165.227 52.9615 160.292 52.9615 155.442L1 185.442Z" fill="#8BC5E4"/>
<path fill-rule="evenodd" clip-rule="evenodd" d="M195.241 305.307C196.436 305.638 197.502 305.538 198.336 305.042L250.298 275.042C249.464 275.538 248.398 275.638 247.203 275.307L195.241 305.307Z" fill="#8BC5E4"/>
<path fill-rule="evenodd" clip-rule="evenodd" d="M198.335 305.043C199.478 304.365 200.185 302.945 200.186 300.877L252.147 270.877C252.146 272.945 251.439 274.365 250.296 275.043L198.335 305.043Z" fill="#8BC5E4"/>
<path fill-rule="evenodd" clip-rule="evenodd" d="M200.134 292.712C199.824 293.602 199.035 294.386 198.025 294.969L249.987 264.969C250.997 264.386 251.786 263.602 252.096 262.712L200.134 292.712Z" fill="#8BC5E4"/>
<path fill-rule="evenodd" clip-rule="evenodd" d="M198.028 294.967C196.103 296.08 193.375 296.464 191.646 295.471L243.607 265.471C245.336 266.464 248.064 266.08 249.989 264.967L198.028 294.967Z" fill="#8BC5E4"/>
<path fill-rule="evenodd" clip-rule="evenodd" d="M13.7133 193.302C7.4172 189.667 3.2257 183.247 1 177.032L52.9615 147.032C55.1872 153.247 59.3788 159.667 65.6748 163.302L13.7133 193.302Z" fill="#8BC5E4"/>
<path fill-rule="evenodd" clip-rule="evenodd" d="M162.695 196.137C170.412 200.542 176.353 206.122 180.761 213.087L232.722 183.087C228.314 176.122 222.373 170.542 214.657 166.137L162.695 196.137Z" fill="#8BC5E4"/>
<path fill-rule="evenodd" clip-rule="evenodd" d="M180.761 213.087C185.16 220.047 188.122 228.597 189.464 239.092L241.426 209.092C240.083 198.597 237.122 190.047 232.722 183.087L180.761 213.087Z" fill="#8BC5E4"/>
<path fill-rule="evenodd" clip-rule="evenodd" d="M194.132 273.597C195.145 280.762 195.223 284.897 194.253 286.257L246.215 256.257C247.185 254.897 247.107 250.762 246.093 243.597L194.132 273.597Z" fill="#8BC5E4"/>
<path fill-rule="evenodd" clip-rule="evenodd" d="M194.253 286.257C194.091 286.485 193.905 286.665 193.678 286.791L245.639 256.791C245.866 256.665 246.052 256.485 246.215 256.257L194.253 286.257Z" fill="#8BC5E4"/>
<path fill-rule="evenodd" clip-rule="evenodd" d="M193.679 286.791C193.615 286.827 193.548 286.858 193.478 286.885L245.439 256.885C245.509 256.858 245.576 256.827 245.64 256.791L193.679 286.791Z" fill="#8BC5E4"/>
<path fill-rule="evenodd" clip-rule="evenodd" d="M193.48 286.884C193.054 287.048 192.494 287.058 191.707 286.894L243.669 256.894C244.456 257.058 245.016 257.048 245.442 256.884L193.48 286.884Z" fill="#8BC5E4"/>
<path fill-rule="evenodd" clip-rule="evenodd" d="M191.699 286.892C190.322 286.617 188.278 285.707 185.516 284.112L237.477 254.112C240.24 255.707 242.284 256.617 243.661 256.892L191.699 286.892Z" fill="#8BC5E4"/>
<path fill-rule="evenodd" clip-rule="evenodd" d="M15.1763 185.767C10.8895 183.292 9.20944 180.752 8.25684 177.602L60.2183 147.602C61.1709 150.752 62.851 153.292 67.1379 155.767L15.1763 185.767Z" fill="#8BC5E4"/>
<path fill-rule="evenodd" clip-rule="evenodd" d="M8.25695 177.602C7.30435 174.442 7.40825 170.492 8.14435 166.707L60.1059 136.707C59.3698 140.492 59.2659 144.442 60.2184 147.602L8.25695 177.602Z" fill="#8BC5E4"/>
<path fill-rule="evenodd" clip-rule="evenodd" d="M8.14453 166.707C8.15323 166.702 8.15323 166.692 8.15323 166.692L60.1147 136.692C60.1147 136.692 60.1147 136.702 60.106 136.707L8.14453 166.707Z" fill="#8BC5E4"/>
<path fill-rule="evenodd" clip-rule="evenodd" d="M14.1201 134.297C14.6743 131.777 15.3498 129.667 16.1119 127.917L68.0735 97.9167C67.3114 99.6667 66.6359 101.777 66.0816 104.297L14.1201 134.297Z" fill="#8BC5E4"/>
<path fill-rule="evenodd" clip-rule="evenodd" d="M16.1123 142.407C16.1123 154.207 24.5907 168.592 35.1043 174.662L87.0658 144.662C76.5523 138.592 68.0739 124.207 68.0739 112.407L16.1123 142.407Z" fill="#8BC5E4"/>
<path fill-rule="evenodd" clip-rule="evenodd" d="M35.1045 174.662C40.5344 177.797 45.4164 178.093 48.8714 176.026L100.833 146.026C97.3779 148.093 92.4959 147.797 87.066 144.662L35.1045 174.662Z" fill="#8BC5E4"/>
<path fill-rule="evenodd" clip-rule="evenodd" d="M48.8691 176.027C52.1151 174.087 54.1031 170.063 54.1051 164.351L106.067 134.351C106.065 140.063 104.077 144.087 100.831 146.027L48.8691 176.027Z" fill="#8BC5E4"/>
<path fill-rule="evenodd" clip-rule="evenodd" d="M79.8945 163.962C79.8946 162.916 80.2626 162.176 80.8616 161.818L132.823 131.818C132.224 132.176 131.856 132.916 131.856 133.962L79.8945 163.962Z" fill="#8BC5E4"/>
<path fill-rule="evenodd" clip-rule="evenodd" d="M80.8613 161.819C81.4983 161.438 82.3983 161.489 83.3973 162.064L135.359 132.064C134.36 131.489 133.46 131.438 132.823 131.819L80.8613 161.819Z" fill="#8BC5E4"/>
<path fill-rule="evenodd" clip-rule="evenodd" d="M153.775 202.697C155.715 203.817 157.283 206.482 157.283 208.642L209.244 178.642C209.244 176.482 207.677 173.817 205.737 172.697L153.775 202.697Z" fill="#8BC5E4"/>
<path fill-rule="evenodd" clip-rule="evenodd" d="M157.283 208.642C157.283 209.693 156.915 210.436 156.315 210.795L208.277 180.795C208.877 180.436 209.245 179.693 209.245 178.642L157.283 208.642Z" fill="#8BC5E4"/>
<path fill-rule="evenodd" clip-rule="evenodd" d="M156.317 210.794C155.68 211.176 154.78 211.125 153.781 210.55L205.743 180.55C206.742 181.125 207.642 181.176 208.279 180.794L156.317 210.794Z" fill="#8BC5E4"/>
<path fill-rule="evenodd" clip-rule="evenodd" d="M83.4019 169.917C81.462 168.797 79.8945 166.132 79.8945 163.962L131.856 133.962C131.856 136.132 133.424 138.797 135.363 139.917L83.4019 169.917Z" fill="#8BC5E4"/>
<path fill-rule="evenodd" clip-rule="evenodd" d="M89.7334 186.342C89.7334 185.291 90.1014 184.548 90.6994 184.189L142.661 154.189C142.063 154.548 141.695 155.291 141.695 156.342L89.7334 186.342Z" fill="#8BC5E4"/>
<path fill-rule="evenodd" clip-rule="evenodd" d="M90.6982 184.19C91.3342 183.807 92.2312 183.857 93.2262 184.429L145.188 154.429C144.193 153.857 143.296 153.807 142.66 154.19L90.6982 184.19Z" fill="#8BC5E4"/>
<path fill-rule="evenodd" clip-rule="evenodd" d="M100.359 188.547C102.291 189.662 103.858 192.327 103.858 194.497L155.82 164.497C155.82 162.327 154.252 159.662 152.321 158.547L100.359 188.547Z" fill="#8BC5E4"/>
<path fill-rule="evenodd" clip-rule="evenodd" d="M103.857 194.497C103.858 195.543 103.49 196.283 102.891 196.642L154.852 166.642C155.451 166.283 155.819 165.543 155.819 164.497L103.857 194.497Z" fill="#8BC5E4"/>
<path fill-rule="evenodd" clip-rule="evenodd" d="M102.893 196.64C102.257 197.022 101.359 196.972 100.365 196.4L152.327 166.4C153.321 166.972 154.219 167.022 154.855 166.64L102.893 196.64Z" fill="#8BC5E4"/>
<path fill-rule="evenodd" clip-rule="evenodd" d="M93.2321 192.282C91.3009 191.167 89.7334 188.502 89.7334 186.342L141.695 156.342C141.695 158.502 143.262 161.167 145.194 162.282L93.2321 192.282Z" fill="#8BC5E4"/>
<path fill-rule="evenodd" clip-rule="evenodd" d="M111.072 198.662C111.072 197.611 111.442 196.87 112.042 196.511L164.004 166.511C163.404 166.87 163.034 167.611 163.034 168.662L111.072 198.662Z" fill="#8BC5E4"/>
<path fill-rule="evenodd" clip-rule="evenodd" d="M112.041 196.512C112.679 196.13 113.579 196.182 114.574 196.754L166.536 166.754C165.541 166.182 164.641 166.13 164.003 166.512L112.041 196.512Z" fill="#8BC5E4"/>
<path fill-rule="evenodd" clip-rule="evenodd" d="M121.707 200.872C123.638 201.987 125.206 204.652 125.206 206.822L177.167 176.822C177.167 174.652 175.6 171.987 173.669 170.872L121.707 200.872Z" fill="#8BC5E4"/>
<path fill-rule="evenodd" clip-rule="evenodd" d="M125.206 206.822C125.205 207.868 124.838 208.608 124.239 208.967L176.201 178.967C176.8 178.608 177.167 177.868 177.167 176.822L125.206 206.822Z" fill="#8BC5E4"/>
<path fill-rule="evenodd" clip-rule="evenodd" d="M124.24 208.965C123.604 209.347 122.707 209.297 121.712 208.725L173.673 178.725C174.668 179.297 175.565 179.347 176.201 178.965L124.24 208.965Z" fill="#8BC5E4"/>
<path fill-rule="evenodd" clip-rule="evenodd" d="M114.58 204.607C112.648 203.492 111.072 200.822 111.072 198.662L163.034 168.662C163.034 170.822 164.61 173.492 166.541 174.607L114.58 204.607Z" fill="#8BC5E4"/>
<path fill-rule="evenodd" clip-rule="evenodd" d="M132.351 210.947C132.35 209.896 132.718 209.153 133.317 208.794L185.279 178.794C184.68 179.153 184.312 179.896 184.312 180.947L132.351 210.947Z" fill="#8BC5E4"/>
<path fill-rule="evenodd" clip-rule="evenodd" d="M133.315 208.795C133.951 208.412 134.849 208.462 135.843 209.034L187.805 179.034C186.811 178.462 185.913 178.412 185.277 178.795L133.315 208.795Z" fill="#8BC5E4"/>
<path fill-rule="evenodd" clip-rule="evenodd" d="M142.977 213.152C144.908 214.267 146.475 216.932 146.475 219.102L198.437 189.102C198.437 186.932 196.869 184.267 194.938 183.152L142.977 213.152Z" fill="#8BC5E4"/>
<path fill-rule="evenodd" clip-rule="evenodd" d="M146.475 219.102C146.475 220.148 146.107 220.888 145.508 221.247L197.469 191.247C198.068 190.888 198.436 190.148 198.436 189.102L146.475 219.102Z" fill="#8BC5E4"/>
<path fill-rule="evenodd" clip-rule="evenodd" d="M145.51 221.245C144.874 221.627 143.977 221.577 142.982 221.005L194.944 191.005C195.939 191.577 196.836 191.627 197.472 191.245L145.51 221.245Z" fill="#8BC5E4"/>
<path fill-rule="evenodd" clip-rule="evenodd" d="M135.849 216.887C133.918 215.772 132.351 213.107 132.351 210.947L184.312 180.947C184.312 183.107 185.88 185.772 187.811 186.887L135.849 216.887Z" fill="#8BC5E4"/>
<path fill-rule="evenodd" clip-rule="evenodd" d="M87.3604 199.752C87.3603 198.706 87.7283 197.966 88.3283 197.608L140.29 167.608C139.69 167.966 139.322 168.706 139.322 169.752L87.3604 199.752Z" fill="#8BC5E4"/>
<path fill-rule="evenodd" clip-rule="evenodd" d="M88.3262 197.609C88.9632 197.228 89.8632 197.279 90.8622 197.854L142.824 167.854C141.825 167.279 140.925 167.228 140.288 167.609L88.3262 197.609Z" fill="#8BC5E4"/>
<path fill-rule="evenodd" clip-rule="evenodd" d="M97.9863 201.967C99.9262 203.087 101.494 205.752 101.494 207.912L153.455 177.912C153.455 175.752 151.888 173.087 149.948 171.967L97.9863 201.967Z" fill="#8BC5E4"/>
<path fill-rule="evenodd" clip-rule="evenodd" d="M101.494 207.912C101.494 208.963 101.126 209.706 100.526 210.065L152.488 180.065C153.088 179.706 153.456 178.963 153.455 177.912L101.494 207.912Z" fill="#8BC5E4"/>
<path fill-rule="evenodd" clip-rule="evenodd" d="M100.528 210.064C99.8912 210.446 98.9912 210.395 97.9922 209.82L149.954 179.82C150.953 180.395 151.853 180.446 152.49 180.064L100.528 210.064Z" fill="#8BC5E4"/>
<path fill-rule="evenodd" clip-rule="evenodd" d="M90.8678 205.707C88.9279 204.587 87.3604 201.922 87.3604 199.752L139.322 169.752C139.322 171.922 140.889 174.587 142.829 175.707L90.8678 205.707Z" fill="#8BC5E4"/>
<path fill-rule="evenodd" clip-rule="evenodd" d="M111.08 213.447C111.08 212.401 111.448 211.661 112.047 211.302L164.008 181.302C163.409 181.661 163.041 182.401 163.042 183.447L111.08 213.447Z" fill="#8BC5E4"/>
<path fill-rule="evenodd" clip-rule="evenodd" d="M112.045 211.304C112.681 210.922 113.579 210.972 114.574 211.544L166.535 181.544C165.54 180.972 164.642 180.922 164.006 181.304L112.045 211.304Z" fill="#8BC5E4"/>
<path fill-rule="evenodd" clip-rule="evenodd" d="M121.707 215.662C123.638 216.777 125.206 219.442 125.206 221.602L177.167 191.602C177.167 189.442 175.6 186.777 173.669 185.662L121.707 215.662Z" fill="#8BC5E4"/>
<path fill-rule="evenodd" clip-rule="evenodd" d="M125.206 221.602C125.205 222.653 124.838 223.396 124.239 223.755L176.201 193.755C176.8 193.396 177.167 192.653 177.167 191.602L125.206 221.602Z" fill="#8BC5E4"/>
<path fill-rule="evenodd" clip-rule="evenodd" d="M124.24 223.754C123.604 224.137 122.707 224.087 121.712 223.515L173.673 193.515C174.668 194.087 175.565 194.137 176.201 193.754L124.24 223.754Z" fill="#8BC5E4"/>
<path fill-rule="evenodd" clip-rule="evenodd" d="M114.579 219.397C112.648 218.282 111.08 215.617 111.08 213.447L163.042 183.447C163.042 185.617 164.609 188.282 166.54 189.397L114.579 219.397Z" fill="#8BC5E4"/>
<path fill-rule="evenodd" clip-rule="evenodd" d="M134.982 227.247C134.983 226.201 135.351 225.461 135.949 225.102L187.91 195.102C187.312 195.461 186.944 196.201 186.944 197.247L134.982 227.247Z" fill="#8BC5E4"/>
<path fill-rule="evenodd" clip-rule="evenodd" d="M135.948 225.104C136.584 224.722 137.481 224.772 138.476 225.344L190.438 195.344C189.443 194.772 188.546 194.722 187.91 195.104L135.948 225.104Z" fill="#8BC5E4"/>
<path fill-rule="evenodd" clip-rule="evenodd" d="M145.609 229.462C147.541 230.577 149.108 233.242 149.108 235.402L201.07 205.402C201.07 203.242 199.502 200.577 197.571 199.462L145.609 229.462Z" fill="#8BC5E4"/>
<path fill-rule="evenodd" clip-rule="evenodd" d="M149.107 235.402C149.108 236.453 148.74 237.196 148.141 237.555L200.102 207.555C200.701 207.196 201.069 206.453 201.069 205.402L149.107 235.402Z" fill="#8BC5E4"/>
<path fill-rule="evenodd" clip-rule="evenodd" d="M148.143 237.554C147.507 237.937 146.609 237.887 145.615 237.315L197.577 207.315C198.571 207.887 199.469 207.937 200.105 207.554L148.143 237.554Z" fill="#8BC5E4"/>
<path fill-rule="evenodd" clip-rule="evenodd" d="M138.481 233.197C136.55 232.082 134.982 229.417 134.982 227.247L186.944 197.247C186.944 199.417 188.511 202.082 190.443 203.197L138.481 233.197Z" fill="#8BC5E4"/>
<path fill-rule="evenodd" clip-rule="evenodd" d="M84.7275 213.002C84.7272 211.951 85.0952 211.208 85.6952 210.849L137.657 180.849C137.057 181.208 136.689 181.951 136.689 183.002L84.7275 213.002Z" fill="#8BC5E4"/>
<path fill-rule="evenodd" clip-rule="evenodd" d="M85.6934 210.85C86.3304 210.468 87.2304 210.519 88.2294 211.094L140.191 181.094C139.192 180.519 138.292 180.468 137.655 180.85L85.6934 210.85Z" fill="#8BC5E4"/>
<path fill-rule="evenodd" clip-rule="evenodd" d="M95.3623 215.212C97.2936 216.327 98.8611 218.992 98.8611 221.162L150.823 191.162C150.823 188.992 149.255 186.327 147.324 185.212L95.3623 215.212Z" fill="#8BC5E4"/>
<path fill-rule="evenodd" clip-rule="evenodd" d="M98.8605 221.162C98.8606 222.208 98.4926 222.948 97.8936 223.307L149.855 193.307C150.454 192.948 150.822 192.208 150.822 191.162L98.8605 221.162Z" fill="#8BC5E4"/>
<path fill-rule="evenodd" clip-rule="evenodd" d="M97.8962 223.305C97.2602 223.687 96.3622 223.637 95.3682 223.065L147.33 193.065C148.324 193.637 149.222 193.687 149.858 193.305L97.8962 223.305Z" fill="#8BC5E4"/>
<path fill-rule="evenodd" clip-rule="evenodd" d="M88.2349 218.947C86.295 217.827 84.7275 215.162 84.7275 213.002L136.689 183.002C136.689 185.162 138.257 187.827 140.197 188.947L88.2349 218.947Z" fill="#8BC5E4"/>
<path fill-rule="evenodd" clip-rule="evenodd" d="M111.124 228.242C111.124 227.191 111.492 226.448 112.09 226.089L164.052 196.089C163.454 196.448 163.086 197.191 163.086 198.242L111.124 228.242Z" fill="#8BC5E4"/>
<path fill-rule="evenodd" clip-rule="evenodd" d="M112.089 226.09C112.725 225.707 113.622 225.757 114.617 226.329L166.578 196.329C165.583 195.757 164.686 195.707 164.05 196.09L112.089 226.09Z" fill="#8BC5E4"/>
<path fill-rule="evenodd" clip-rule="evenodd" d="M121.75 230.447C123.681 231.562 125.257 234.232 125.257 236.402L177.219 206.402C177.219 204.232 175.643 201.562 173.711 200.447L121.75 230.447Z" fill="#8BC5E4"/>
<path fill-rule="evenodd" clip-rule="evenodd" d="M125.257 236.402C125.257 237.448 124.888 238.187 124.287 238.544L176.249 208.544C176.85 208.187 177.219 207.448 177.219 206.402L125.257 236.402Z" fill="#8BC5E4"/>
<path fill-rule="evenodd" clip-rule="evenodd" d="M124.288 238.543C123.65 238.924 122.75 238.872 121.756 238.3L173.717 208.3C174.711 208.872 175.611 208.924 176.249 208.543L124.288 238.543Z" fill="#8BC5E4"/>
<path fill-rule="evenodd" clip-rule="evenodd" d="M114.623 234.182C112.692 233.067 111.124 230.402 111.124 228.242L163.086 198.242C163.086 200.402 164.653 203.067 166.584 204.182L114.623 234.182Z" fill="#8BC5E4"/>
<path fill-rule="evenodd" clip-rule="evenodd" d="M137.563 243.507C137.564 242.456 137.931 241.713 138.53 241.354L190.491 211.354C189.892 211.713 189.525 212.456 189.525 213.507L137.563 243.507Z" fill="#8BC5E4"/>
<path fill-rule="evenodd" clip-rule="evenodd" d="M138.529 241.355C139.165 240.972 140.062 241.022 141.057 241.594L193.019 211.594C192.024 211.022 191.127 210.972 190.491 211.355L138.529 241.355Z" fill="#8BC5E4"/>
<path fill-rule="evenodd" clip-rule="evenodd" d="M148.189 245.712C150.121 246.827 151.688 249.492 151.688 251.662L203.65 221.662C203.65 219.492 202.082 216.827 200.151 215.712L148.189 245.712Z" fill="#8BC5E4"/>
<path fill-rule="evenodd" clip-rule="evenodd" d="M151.688 251.662C151.688 252.708 151.321 253.448 150.722 253.807L202.683 223.807C203.282 223.448 203.649 222.708 203.65 221.662L151.688 251.662Z" fill="#8BC5E4"/>
<path fill-rule="evenodd" clip-rule="evenodd" d="M150.723 253.805C150.087 254.187 149.19 254.137 148.195 253.565L200.157 223.565C201.152 224.137 202.049 224.187 202.685 223.805L150.723 253.805Z" fill="#8BC5E4"/>
<path fill-rule="evenodd" clip-rule="evenodd" d="M141.062 249.447C139.131 248.332 137.563 245.667 137.563 243.507L189.525 213.507C189.525 215.667 191.093 218.332 193.024 219.447L141.062 249.447Z" fill="#8BC5E4"/>
<path fill-rule="evenodd" clip-rule="evenodd" d="M167.952 93.2118C170.827 94.8718 173.079 98.7018 173.079 101.922L225.041 71.9218C225.041 68.7018 222.789 64.8718 219.914 63.2118L167.952 93.2118Z" fill="#8BC5E4"/>
<path fill-rule="evenodd" clip-rule="evenodd" d="M173.079 185.732C173.079 187.287 172.551 188.379 171.679 188.904L223.64 158.904C224.512 158.379 225.04 157.287 225.041 155.732L173.079 185.732Z" fill="#8BC5E4"/>
<path fill-rule="evenodd" clip-rule="evenodd" d="M171.682 188.903C170.756 189.462 169.441 189.379 167.961 188.527L219.922 158.527C221.402 159.379 222.717 159.462 223.643 158.903L171.682 188.903Z" fill="#8BC5E4"/>
<path fill-rule="evenodd" clip-rule="evenodd" d="M66.8348 130.142C63.9596 128.482 61.708 124.642 61.708 121.432L113.67 91.4318C113.67 94.6418 115.921 98.4818 118.796 100.142L66.8348 130.142Z" fill="#8BC5E4"/>
<path fill-rule="evenodd" clip-rule="evenodd" d="M61.708 37.6218C61.7076 36.0618 62.2366 34.9698 63.1076 34.4458L115.069 4.4458C114.198 4.9698 113.669 6.0618 113.67 7.6218L61.708 37.6218Z" fill="#8BC5E4"/>
<path fill-rule="evenodd" clip-rule="evenodd" d="M63.1064 34.4468C64.0324 33.8888 65.3474 33.9748 66.8274 34.8268L118.789 4.82676C117.309 3.97476 115.994 3.88876 115.068 4.44676L63.1064 34.4468Z" fill="#8BC5E4"/>
<path fill-rule="evenodd" clip-rule="evenodd" d="M112.432 71.4568C112.431 70.0518 112.923 69.0608 113.725 68.5808L165.687 38.5808C164.885 39.0608 164.393 40.0518 164.393 41.4568L112.432 71.4568Z" fill="#8BC5E4"/>
<path fill-rule="evenodd" clip-rule="evenodd" d="M113.722 68.5828C114.574 68.0718 115.776 68.1398 117.109 68.9078L169.07 38.9078C167.737 38.1398 166.535 38.0718 165.683 38.5828L113.722 68.5828Z" fill="#8BC5E4"/>
<path fill-rule="evenodd" clip-rule="evenodd" d="M117.116 68.9117C119.697 70.4017 121.801 73.9667 121.801 76.8667L173.763 46.8667C173.763 43.9667 171.659 40.4017 169.078 38.9117L117.116 68.9117Z" fill="#8BC5E4"/>
<path fill-rule="evenodd" clip-rule="evenodd" d="M121.802 76.8668C121.802 78.2718 121.308 79.2618 120.506 79.7408L172.467 49.7408C173.269 49.2618 173.763 48.2718 173.763 46.8668L121.802 76.8668Z" fill="#8BC5E4"/>
<path fill-rule="evenodd" clip-rule="evenodd" d="M120.508 79.7398C119.655 80.2498 118.453 80.1808 117.124 79.4158L169.086 49.4158C170.415 50.1808 171.617 50.2498 172.47 49.7398L120.508 79.7398Z" fill="#8BC5E4"/>
<path fill-rule="evenodd" clip-rule="evenodd" d="M117.117 79.4118C114.527 77.9168 112.432 74.3568 112.432 71.4568L164.393 41.4568C164.393 44.3568 166.489 47.9168 169.078 49.4118L117.117 79.4118Z" fill="#8BC5E4"/>
<path fill-rule="evenodd" clip-rule="evenodd" d="M72.1787 65.1368C72.1791 63.0348 72.9121 61.5558 74.1081 60.8428L126.07 30.8428C124.874 31.5558 124.141 33.0348 124.14 35.1368L72.1787 65.1368Z" fill="#8BC5E4"/>
<path fill-rule="evenodd" clip-rule="evenodd" d="M74.1074 60.8438C75.3794 60.0848 77.1764 60.1938 79.1704 61.3438L131.132 31.3438C129.138 30.1938 127.341 30.0848 126.069 30.8438L74.1074 60.8438Z" fill="#8BC5E4"/>
<path fill-rule="evenodd" clip-rule="evenodd" d="M155.611 105.477C159.482 107.712 162.609 113.007 162.609 117.347L214.57 87.3468C214.57 83.0068 211.444 77.7118 207.573 75.4768L155.611 105.477Z" fill="#8BC5E4"/>
<path fill-rule="evenodd" clip-rule="evenodd" d="M162.609 168.277C162.609 170.384 161.875 171.866 160.679 172.58L212.64 142.58C213.836 141.866 214.57 140.384 214.57 138.277L162.609 168.277Z" fill="#8BC5E4"/>
<path fill-rule="evenodd" clip-rule="evenodd" d="M160.681 172.579C159.409 173.339 157.612 173.23 155.617 172.08L207.579 142.08C209.574 143.23 211.371 143.339 212.643 142.579L160.681 172.579Z" fill="#8BC5E4"/>
<path fill-rule="evenodd" clip-rule="evenodd" d="M79.1762 127.947C75.3051 125.712 72.1787 120.417 72.1787 116.067L124.14 86.0668C124.14 90.4168 127.267 95.7118 131.138 97.9468L79.1762 127.947Z" fill="#8BC5E4"/>
<path d="M79.1761 61.3468C75.305 59.1118 72.1786 60.7968 72.1786 65.1368V116.067C72.1786 120.417 75.305 125.712 79.1761 127.947L155.612 172.077C159.483 174.312 162.609 172.627 162.609 168.277V117.347C162.609 113.007 159.483 107.712 155.612 105.477L79.1761 61.3468Z" fill="#8BC5E4"/>
<path fill-rule="evenodd" clip-rule="evenodd" d="M117.117 68.9118C114.527 67.4168 112.431 68.5568 112.431 71.4568C112.431 74.3568 114.527 77.9168 117.117 79.4118C119.697 80.9018 121.802 79.7668 121.802 76.8668C121.802 73.9668 119.697 70.4018 117.117 68.9118ZM35.1041 36.0718C24.5905 30.0018 16.1121 34.5968 16.1121 46.3968V120.057C13.8691 122.502 12.1111 126.297 10.9247 131.692C10.9247 131.703 10.9217 131.713 10.9192 131.722C10.9175 131.728 10.916 131.733 10.916 131.737L4.94042 164.147C4.14367 168.227 3.84056 172.632 5.23486 177.247C6.6205 181.847 10.024 186.462 15.1768 189.437L185.515 287.782C188.46 289.482 190.798 290.572 192.729 290.967C194.661 291.362 196.202 290.972 197.103 289.712C198.904 287.182 198.393 282.167 197.354 274.847V274.837L192.695 240.397L192.686 240.372C191.274 229.297 188.044 219.692 182.943 211.617C177.834 203.537 170.957 197.197 162.687 192.472L54.1047 129.782V68.3318C54.1047 56.5318 45.6349 42.1518 35.1041 36.0718ZM72.1786 65.1368C72.1786 60.7968 75.305 59.1118 79.1761 61.3468L155.612 105.477C159.483 107.712 162.609 113.007 162.609 117.347V168.277C162.609 172.627 159.483 174.312 155.612 172.077L79.1761 127.947C75.305 125.712 72.1786 120.417 72.1786 116.067V65.1368ZM83.4023 162.067C81.4624 160.947 79.8949 161.802 79.8949 163.962C79.8949 166.132 81.4624 168.797 83.4023 169.917L153.776 210.547C155.715 211.667 157.283 210.812 157.283 208.642C157.283 206.482 155.715 203.817 153.776 202.697L83.4023 162.067ZM66.8353 34.8318L167.952 93.2118C170.828 94.8718 173.079 98.7018 173.079 101.922V185.732C173.079 188.942 170.828 190.182 167.952 188.522L66.8353 130.142C63.96 128.482 61.7084 124.642 61.7084 121.432V37.6218C61.7084 34.4018 63.96 33.1718 66.8353 34.8318ZM135.849 209.037C133.918 207.922 132.35 208.777 132.35 210.947C132.35 213.107 133.918 215.772 135.849 216.887L142.976 221.002C144.907 222.117 146.475 221.262 146.475 219.102C146.475 216.932 144.907 214.267 142.976 213.152L135.849 209.037ZM93.2317 184.432C91.3005 183.317 89.733 184.172 89.733 186.342C89.733 188.502 91.3005 191.167 93.2317 192.282L100.359 196.397C102.29 197.512 103.858 196.657 103.858 194.497C103.858 192.327 102.29 189.662 100.359 188.547L93.2317 184.432ZM111.072 198.662C111.072 196.492 112.648 195.642 114.579 196.757L121.707 200.872C123.638 201.987 125.205 204.652 125.205 206.822C125.205 208.982 123.638 209.837 121.707 208.722L114.579 204.607C112.648 203.492 111.072 200.822 111.072 198.662ZM114.579 211.547C112.648 210.432 111.08 211.287 111.08 213.447C111.08 215.617 112.648 218.282 114.579 219.397L121.707 223.512C123.638 224.627 125.205 223.772 125.205 221.602C125.205 219.442 123.638 216.777 121.707 215.662L114.579 211.547ZM111.124 228.242C111.124 226.072 112.691 225.217 114.623 226.332L121.75 230.447C123.681 231.562 125.257 234.232 125.257 236.402C125.257 238.562 123.681 239.412 121.75 238.297L114.623 234.182C112.691 233.067 111.124 230.402 111.124 228.242ZM88.2347 211.097C86.2948 209.977 84.7273 210.832 84.7273 213.002C84.7273 215.162 86.2948 217.827 88.2347 218.947L95.3621 223.062C97.2934 224.177 98.8609 223.322 98.8609 221.162C98.8609 218.992 97.2934 216.327 95.3621 215.212L88.2347 211.097ZM87.3601 199.752C87.3601 197.592 88.9276 196.737 90.8675 197.857L97.9862 201.967C99.9261 203.087 101.494 205.752 101.494 207.912C101.494 210.082 99.9261 210.937 97.9862 209.817L90.8675 205.707C88.9276 204.587 87.3601 201.922 87.3601 199.752ZM138.482 225.347C136.55 224.232 134.983 225.087 134.983 227.247C134.983 229.417 136.55 232.082 138.482 233.197L145.609 237.312C147.54 238.427 149.108 237.572 149.108 235.402C149.108 233.242 147.54 230.577 145.609 229.462L138.482 225.347ZM137.564 243.507C137.564 241.337 139.131 240.482 141.062 241.597L148.19 245.712C150.121 246.827 151.688 249.492 151.688 251.662C151.688 253.822 150.121 254.677 148.19 253.562L141.062 249.447C139.131 248.332 137.564 245.667 137.564 243.507Z" fill="white"/>
<path d="M162.687 196.132L54.1047 133.442V164.342C54.1047 176.142 45.6349 180.742 35.1041 174.662C24.5905 168.592 16.1121 154.207 16.1121 142.407V127.917C15.35 129.667 14.6745 131.777 14.1203 134.297L8.15337 166.692C8.15337 166.692 8.15337 166.702 8.14471 166.707C7.40859 170.492 7.30466 174.442 8.25729 177.602C9.20992 180.752 10.89 183.292 15.1768 185.767L185.515 284.112C188.278 285.707 190.322 286.617 191.699 286.892C193.084 287.182 193.769 286.937 194.254 286.257C195.224 284.897 195.146 280.762 194.132 273.597M162.687 196.132C162.687 196.132 162.687 196.132 162.696 196.137M162.687 196.132L162.696 196.137M162.696 196.137C170.412 200.542 176.353 206.122 180.761 213.087C185.16 220.047 188.122 228.597 189.464 239.092M189.464 239.092C189.464 239.102 189.464 239.102 189.464 239.112M189.464 239.092V239.112M189.464 239.112L194.132 273.577M194.132 273.577C194.132 273.587 194.132 273.587 194.132 273.597M194.132 273.577V273.597M66.8353 31.1718C62.2107 28.5018 58.4348 30.5518 58.4348 35.7318V119.542C58.4348 124.722 62.2107 131.132 66.8353 133.802L167.952 192.182C172.577 194.852 176.344 192.797 176.344 187.617V103.807C176.344 98.6268 172.577 92.2218 167.952 89.5518L66.8353 31.1718ZM66.8353 34.8318L167.952 93.2118C170.828 94.8718 173.079 98.7018 173.079 101.922V185.732C173.079 188.942 170.828 190.182 167.952 188.522L66.8353 130.142C63.96 128.482 61.7084 124.642 61.7084 121.432V37.6218C61.7084 34.4018 63.96 33.1718 66.8353 34.8318ZM117.117 68.9118C114.527 67.4168 112.431 68.5568 112.431 71.4568C112.431 74.3568 114.527 77.9168 117.117 79.4118C119.697 80.9018 121.802 79.7668 121.802 76.8668C121.802 73.9668 119.697 70.4018 117.117 68.9118ZM79.1761 61.3468C75.305 59.1118 72.1786 60.7968 72.1786 65.1368V116.067C72.1786 120.417 75.305 125.712 79.1761 127.947L155.612 172.077C159.483 174.312 162.609 172.627 162.609 168.277V117.347C162.609 113.007 159.483 107.712 155.612 105.477L79.1761 61.3468ZM35.1041 36.0718C24.5905 30.0018 16.1121 34.5968 16.1121 46.3968V120.057C13.8691 122.502 12.1111 126.297 10.9247 131.692C10.9247 131.703 10.9217 131.713 10.9192 131.722C10.9175 131.728 10.916 131.733 10.916 131.737L4.94042 164.147C4.14367 168.227 3.84056 172.632 5.23486 177.247C6.6205 181.847 10.024 186.462 15.1768 189.437L185.515 287.782C188.46 289.482 190.798 290.572 192.729 290.967C194.661 291.362 196.202 290.972 197.103 289.712C198.904 287.182 198.393 282.167 197.354 274.847V274.837L192.695 240.397L192.686 240.372C191.274 229.297 188.044 219.692 182.943 211.617C177.834 203.537 170.957 197.197 162.687 192.472L54.1047 129.782V68.3318C54.1047 56.5318 45.6349 42.1518 35.1041 36.0718ZM83.4023 162.067C81.4624 160.947 79.8949 161.802 79.8949 163.962C79.8949 166.132 81.4624 168.797 83.4023 169.917L153.776 210.547C155.715 211.667 157.283 210.812 157.283 208.642C157.283 206.482 155.715 203.817 153.776 202.697L83.4023 162.067ZM93.2317 184.432C91.3005 183.317 89.733 184.172 89.733 186.342C89.733 188.502 91.3005 191.167 93.2317 192.282L100.359 196.397C102.29 197.512 103.858 196.657 103.858 194.497C103.858 192.327 102.29 189.662 100.359 188.547L93.2317 184.432ZM114.579 196.757C112.648 195.642 111.072 196.492 111.072 198.662C111.072 200.822 112.648 203.492 114.579 204.607L121.707 208.722C123.638 209.837 125.205 208.982 125.205 206.822C125.205 204.652 123.638 201.987 121.707 200.872L114.579 196.757ZM135.849 209.037C133.918 207.922 132.35 208.777 132.35 210.947C132.35 213.107 133.918 215.772 135.849 216.887L142.976 221.002C144.907 222.117 146.475 221.262 146.475 219.102C146.475 216.932 144.907 214.267 142.976 213.152L135.849 209.037ZM90.8675 197.857C88.9276 196.737 87.3601 197.592 87.3601 199.752C87.3601 201.922 88.9276 204.587 90.8675 205.707L97.9862 209.817C99.9261 210.937 101.494 210.082 101.494 207.912C101.494 205.752 99.9261 203.087 97.9862 201.967L90.8675 197.857ZM114.579 211.547C112.648 210.432 111.08 211.287 111.08 213.447C111.08 215.617 112.648 218.282 114.579 219.397L121.707 223.512C123.638 224.627 125.205 223.772 125.205 221.602C125.205 219.442 123.638 216.777 121.707 215.662L114.579 211.547ZM138.482 225.347C136.55 224.232 134.983 225.087 134.983 227.247C134.983 229.417 136.55 232.082 138.482 233.197L145.609 237.312C147.54 238.427 149.108 237.572 149.108 235.402C149.108 233.242 147.54 230.577 145.609 229.462L138.482 225.347ZM88.2347 211.097C86.2948 209.977 84.7273 210.832 84.7273 213.002C84.7273 215.162 86.2948 217.827 88.2347 218.947L95.3621 223.062C97.2934 224.177 98.8609 223.322 98.8609 221.162C98.8609 218.992 97.2934 216.327 95.3621 215.212L88.2347 211.097ZM114.623 226.332C112.691 225.217 111.124 226.072 111.124 228.242C111.124 230.402 112.691 233.067 114.623 234.182L121.75 238.297C123.681 239.412 125.257 238.562 125.257 236.402C125.257 234.232 123.681 231.562 121.75 230.447L114.623 226.332ZM141.062 241.597C139.131 240.482 137.564 241.337 137.564 243.507C137.564 245.667 139.131 248.332 141.062 249.447L148.19 253.562C150.121 254.677 151.688 253.822 151.688 251.662C151.688 249.492 150.121 246.827 148.19 245.712L141.062 241.597ZM1 177.032V185.442C1 190.292 4.66329 195.227 11.7214 199.302L195.241 305.307C198.073 306.092 200.186 304.452 200.186 300.872L200.134 292.712C199.233 295.302 194.271 296.987 191.638 295.467L13.7133 193.302C7.41725 189.667 3.22569 183.247 1 177.032Z" stroke="#8BC5E4"/>
</svg>
