<svg width="226" height="249" viewBox="0 0 226 249" fill="none" xmlns="http://www.w3.org/2000/svg">
<path fill-rule="evenodd" clip-rule="evenodd" d="M57.3223 172.214L63.3325 164.064L115.294 134.064L109.284 142.214L57.3223 172.214Z" fill="#8BC5E4"/>
<path fill-rule="evenodd" clip-rule="evenodd" d="M63.3325 164.064L110.081 191.054L162.042 161.054L115.294 134.064L63.3325 164.064Z" fill="#8BC5E4"/>
<path fill-rule="evenodd" clip-rule="evenodd" d="M110.081 191.054L116.108 206.154L168.07 176.154L162.042 161.054L110.081 191.054Z" fill="#8BC5E4"/>
<path fill-rule="evenodd" clip-rule="evenodd" d="M116.108 206.154L100.52 197.154L152.481 167.154L168.07 176.154L116.108 206.154Z" fill="#8BC5E4"/>
<path fill-rule="evenodd" clip-rule="evenodd" d="M100.52 197.154V199.194L152.481 169.194V167.154L100.52 197.154Z" fill="#8BC5E4"/>
<path fill-rule="evenodd" clip-rule="evenodd" d="M96.8129 201.494L76.0889 189.529L128.05 159.529L148.774 171.494L96.8129 201.494Z" fill="#8BC5E4"/>
<path fill-rule="evenodd" clip-rule="evenodd" d="M72.5645 183.164V181.014L124.526 151.014V153.164L72.5645 183.164Z" fill="#8BC5E4"/>
<path fill-rule="evenodd" clip-rule="evenodd" d="M72.5644 181.014L57.3223 172.214L109.284 142.214L124.526 151.014L72.5644 181.014Z" fill="#8BC5E4"/>
<path fill-rule="evenodd" clip-rule="evenodd" d="M57.3223 172.214L109.284 142.214L57.3223 172.214Z" fill="#8BC5E4"/>
<path fill-rule="evenodd" clip-rule="evenodd" d="M99.0562 107.659L151.018 77.6586L99.0562 107.659Z" fill="#8BC5E4"/>
<path fill-rule="evenodd" clip-rule="evenodd" d="M72.772 140.454L100.528 156.479L152.49 126.479L124.733 110.454L72.772 140.454Z" fill="#8BC5E4"/>
<path fill-rule="evenodd" clip-rule="evenodd" d="M72.772 140.454L124.733 110.454L72.772 140.454Z" fill="#8BC5E4"/>
<path fill-rule="evenodd" clip-rule="evenodd" d="M29.1592 44.8436L143.786 111.024L195.748 81.0236L81.1207 14.8436L29.1592 44.8436Z" fill="#8BC5E4"/>
<path fill-rule="evenodd" clip-rule="evenodd" d="M143.786 111.024V189.104L195.748 159.104V81.0236L143.786 111.024Z" fill="#8BC5E4"/>
<path fill-rule="evenodd" clip-rule="evenodd" d="M143.786 189.104L29.1592 122.924L81.1207 92.9236L195.748 159.104L143.786 189.104Z" fill="#8BC5E4"/>
<path fill-rule="evenodd" clip-rule="evenodd" d="M29.1592 122.924V44.8436L81.1207 14.8436V92.9236L29.1592 122.924Z" fill="#8BC5E4"/>
<path fill-rule="evenodd" clip-rule="evenodd" d="M29.1592 44.8436L81.1207 14.8436L29.1592 44.8436Z" fill="#8BC5E4"/>
<path fill-rule="evenodd" clip-rule="evenodd" d="M77.3276 41.0336L95.7913 51.6936L147.753 21.6936L129.289 11.0336L77.3276 41.0336Z" fill="#8BC5E4"/>
<path fill-rule="evenodd" clip-rule="evenodd" d="M95.791 51.6936V48.0136L147.753 18.0136V21.6936L95.791 51.6936Z" fill="#8BC5E4"/>
<path fill-rule="evenodd" clip-rule="evenodd" d="M95.7913 48.0136L77.3276 37.3536L129.289 7.35361L147.753 18.0136L95.7913 48.0136Z" fill="#8BC5E4"/>
<path fill-rule="evenodd" clip-rule="evenodd" d="M77.3276 37.3536V41.0336L129.289 11.0336V7.35361L77.3276 37.3536Z" fill="#8BC5E4"/>
<path fill-rule="evenodd" clip-rule="evenodd" d="M77.3276 41.0336L129.289 11.0336L77.3276 41.0336Z" fill="#8BC5E4"/>
<path fill-rule="evenodd" clip-rule="evenodd" d="M99.6016 53.8236L151.563 23.8236L99.6016 53.8236Z" fill="#8BC5E4"/>
<path fill-rule="evenodd" clip-rule="evenodd" d="M67.2642 53.1836L71.2999 40.9336L123.261 10.9336L119.226 23.1836L67.2642 53.1836Z" fill="#8BC5E4"/>
<path fill-rule="evenodd" clip-rule="evenodd" d="M71.2998 40.9336L72.5122 41.6336L124.474 11.6336L123.261 10.9336L71.2998 40.9336Z" fill="#8BC5E4"/>
<path fill-rule="evenodd" clip-rule="evenodd" d="M100.857 57.9986L101.897 58.5986L153.858 28.5986L152.819 27.9986L100.857 57.9986Z" fill="#8BC5E4"/>
<path fill-rule="evenodd" clip-rule="evenodd" d="M101.896 58.5986L106.183 75.6536L158.145 45.6536L153.858 28.5986L101.896 58.5986Z" fill="#8BC5E4"/>
<path fill-rule="evenodd" clip-rule="evenodd" d="M106.183 75.6536L67.2642 53.1836L119.226 23.1836L158.145 45.6536L106.183 75.6536Z" fill="#8BC5E4"/>
<path fill-rule="evenodd" clip-rule="evenodd" d="M67.2642 53.1836L119.226 23.1836L67.2642 53.1836Z" fill="#8BC5E4"/>
<path fill-rule="evenodd" clip-rule="evenodd" d="M20.2217 37.7436V119.604L72.1832 89.6036V7.74361L20.2217 37.7436Z" fill="#8BC5E4"/>
<path fill-rule="evenodd" clip-rule="evenodd" d="M21.4773 128.009L21.46 128.019L73.4215 98.0186L73.4389 98.0086L21.4773 128.009Z" fill="#8BC5E4"/>
<path fill-rule="evenodd" clip-rule="evenodd" d="M21.4601 128.019L0 138.349L51.9615 108.349L73.4216 98.0186L21.4601 128.019Z" fill="#8BC5E4"/>
<path fill-rule="evenodd" clip-rule="evenodd" d="M0 138.349V143.829L51.9615 113.829V108.349L0 138.349Z" fill="#8BC5E4"/>
<path fill-rule="evenodd" clip-rule="evenodd" d="M7.49121 156.064L165.853 247.494L217.814 217.494L59.4527 126.064L7.49121 156.064Z" fill="#8BC5E4"/>
<path fill-rule="evenodd" clip-rule="evenodd" d="M173.205 244.229V238.169L225.167 208.169V214.229L173.205 244.229Z" fill="#8BC5E4"/>
<path fill-rule="evenodd" clip-rule="evenodd" d="M173.205 238.169L152.94 204.819L204.901 174.819L225.166 208.169L173.205 238.169Z" fill="#8BC5E4"/>
<path fill-rule="evenodd" clip-rule="evenodd" d="M152.94 204.819L152.897 204.744L204.858 174.744L204.902 174.819L152.94 204.819Z" fill="#8BC5E4"/>
<path fill-rule="evenodd" clip-rule="evenodd" d="M153.062 196.299V114.439L205.023 84.4386V166.299L153.062 196.299Z" fill="#8BC5E4"/>
<path fill-rule="evenodd" clip-rule="evenodd" d="M145.718 101.909L27.5571 33.6886L79.5187 3.68861L197.679 71.9086L145.718 101.909Z" fill="#8BC5E4"/>
<path fill-rule="evenodd" clip-rule="evenodd" d="M27.5571 33.6886L79.5187 3.68861L27.5571 33.6886Z" fill="#8BC5E4"/>
<path fill-rule="evenodd" clip-rule="evenodd" d="M27.5571 36.3486L145.718 104.569L197.679 74.5686L79.5187 6.34861L27.5571 36.3486Z" fill="#8BC5E4"/>
<path fill-rule="evenodd" clip-rule="evenodd" d="M150.706 113.079V194.939L202.667 164.939V83.0786L150.706 113.079Z" fill="#8BC5E4"/>
<path fill-rule="evenodd" clip-rule="evenodd" d="M145.718 197.699L27.5571 129.479L79.5187 99.4786L197.679 167.699L145.718 197.699Z" fill="#8BC5E4"/>
<path fill-rule="evenodd" clip-rule="evenodd" d="M22.5771 120.964V39.1036L74.5386 9.10361V90.9636L22.5771 120.964Z" fill="#8BC5E4"/>
<path fill-rule="evenodd" clip-rule="evenodd" d="M27.5571 36.3486L79.5187 6.34861L27.5571 36.3486Z" fill="#8BC5E4"/>
<path fill-rule="evenodd" clip-rule="evenodd" d="M25.9375 131.204L27.5569 132.139L79.5185 102.139L77.899 101.204L25.9375 131.204Z" fill="#8BC5E4"/>
<path fill-rule="evenodd" clip-rule="evenodd" d="M27.5571 132.139L145.718 200.359L197.679 170.359L79.5187 102.139L27.5571 132.139Z" fill="#8BC5E4"/>
<path fill-rule="evenodd" clip-rule="evenodd" d="M145.717 200.359L147.467 201.369L199.428 171.369L197.679 170.359L145.717 200.359Z" fill="#8BC5E4"/>
<path fill-rule="evenodd" clip-rule="evenodd" d="M151.424 205.984L170.849 237.959L222.811 207.959L203.386 175.984L151.424 205.984Z" fill="#8BC5E4"/>
<path fill-rule="evenodd" clip-rule="evenodd" d="M170.85 237.959V242.869L222.811 212.869V207.959L170.85 237.959Z" fill="#8BC5E4"/>
<path fill-rule="evenodd" clip-rule="evenodd" d="M165.853 244.834L7.49121 153.404L59.4527 123.404L217.814 214.834L165.853 244.834Z" fill="#8BC5E4"/>
<path fill-rule="evenodd" clip-rule="evenodd" d="M2.35547 145.189V140.869L54.317 110.869V115.189L2.35547 145.189Z" fill="#8BC5E4"/>
<path fill-rule="evenodd" clip-rule="evenodd" d="M2.35547 140.869L23.0362 130.909L74.9977 100.909L54.317 110.869L2.35547 140.869Z" fill="#8BC5E4"/>
<path fill-rule="evenodd" clip-rule="evenodd" d="M25.9375 131.204L77.899 101.204L25.9375 131.204Z" fill="#8BC5E4"/>
<path fill-rule="evenodd" clip-rule="evenodd" d="M100.519 199.194C100.52 200.298 100.036 201.184 99.2959 201.616L151.257 171.616C151.997 171.184 152.481 170.298 152.481 169.194L100.519 199.194Z" fill="#8BC5E4"/>
<path fill-rule="evenodd" clip-rule="evenodd" d="M99.2978 201.615C98.6258 202.008 97.7418 202.028 96.8188 201.497L148.78 171.497C149.703 172.028 150.587 172.008 151.259 171.615L99.2978 201.615Z" fill="#8BC5E4"/>
<path fill-rule="evenodd" clip-rule="evenodd" d="M76.0892 189.529C74.1147 188.389 72.5645 185.194 72.5645 183.164L124.526 153.164C124.526 155.194 126.076 158.389 128.051 159.529L76.0892 189.529Z" fill="#8BC5E4"/>
<path fill-rule="evenodd" clip-rule="evenodd" d="M99.0562 107.659C99.0475 99.9236 93.4963 90.4486 86.646 86.4936L138.608 56.4936C145.458 60.4486 151.009 69.9236 151.018 77.6586L99.0562 107.659Z" fill="#8BC5E4"/>
<path fill-rule="evenodd" clip-rule="evenodd" d="M86.6457 86.4936C83.1049 84.4546 79.9089 84.2886 77.6499 85.6756L129.611 55.6756C131.87 54.2886 135.066 54.4546 138.607 56.4936L86.6457 86.4936Z" fill="#8BC5E4"/>
<path fill-rule="evenodd" clip-rule="evenodd" d="M77.6519 85.6746C75.5469 86.9666 74.2539 89.6056 74.2529 93.3326L126.214 63.3326C126.215 59.6056 127.508 56.9666 129.613 55.6746L77.6519 85.6746Z" fill="#8BC5E4"/>
<path fill-rule="evenodd" clip-rule="evenodd" d="M74.2529 93.3386C74.2529 101.079 79.8041 110.554 86.6457 114.504L138.607 84.5036C131.766 80.5536 126.214 71.0786 126.214 63.3386L74.2529 93.3386Z" fill="#8BC5E4"/>
<path fill-rule="evenodd" clip-rule="evenodd" d="M86.646 114.504C90.1962 116.554 93.3962 116.721 95.6572 115.333L147.619 85.3326C145.358 86.7206 142.158 86.5536 138.608 84.5036L86.646 114.504Z" fill="#8BC5E4"/>
<path fill-rule="evenodd" clip-rule="evenodd" d="M95.6548 115.334C97.7618 114.041 99.0548 111.397 99.0558 107.665L151.017 77.6646C151.016 81.3966 149.723 84.0406 147.616 85.3336L95.6548 115.334Z" fill="#8BC5E4"/>
<path fill-rule="evenodd" clip-rule="evenodd" d="M100.528 156.479C100.528 140.899 96.4408 121.239 86.646 115.584L138.608 85.5836C148.402 91.2386 152.49 110.899 152.49 126.479L100.528 156.479Z" fill="#8BC5E4"/>
<path fill-rule="evenodd" clip-rule="evenodd" d="M86.6457 115.584C84.1179 114.125 81.9409 114.018 80.1089 114.982L132.07 84.9816C133.902 84.0176 136.079 84.1246 138.607 85.5836L86.6457 115.584Z" fill="#8BC5E4"/>
<path fill-rule="evenodd" clip-rule="evenodd" d="M80.11 114.982C75.195 117.569 72.773 127.869 72.772 140.448L124.733 110.448C124.734 97.8686 127.156 87.5686 132.071 84.9816L80.11 114.982Z" fill="#8BC5E4"/>
<path fill-rule="evenodd" clip-rule="evenodd" d="M99.6018 53.8236C99.6022 57.4196 98.4212 60.2046 96.3062 61.6476L148.268 31.6476C150.383 30.2046 151.564 27.4196 151.563 23.8236L99.6018 53.8236Z" fill="#8BC5E4"/>
<path fill-rule="evenodd" clip-rule="evenodd" d="M96.299 61.6526C96.149 61.7546 95.993 61.8506 95.833 61.9396L147.795 31.9396C147.955 31.8506 148.111 31.7546 148.261 31.6526L96.299 61.6526Z" fill="#8BC5E4"/>
<path fill-rule="evenodd" clip-rule="evenodd" d="M95.8259 61.9436C95.6032 62.0666 95.3732 62.1756 95.1372 62.2696L147.099 32.2696C147.335 32.1756 147.565 32.0666 147.787 31.9436L95.8259 61.9436Z" fill="#8BC5E4"/>
<path fill-rule="evenodd" clip-rule="evenodd" d="M95.1371 62.2696C92.7991 63.2026 89.8081 62.7376 86.7031 60.9466L138.665 30.9466C141.77 32.7376 144.761 33.2026 147.099 32.2696L95.1371 62.2696Z" fill="#8BC5E4"/>
<path fill-rule="evenodd" clip-rule="evenodd" d="M86.6977 60.9436C83.2769 58.9686 79.986 55.5386 77.5698 51.4036L129.531 21.4036C131.948 25.5386 135.238 28.9686 138.659 30.9436L86.6977 60.9436Z" fill="#8BC5E4"/>
<path fill-rule="evenodd" clip-rule="evenodd" d="M77.5697 51.4036C75.1448 47.2736 73.7852 42.7786 73.7852 38.9186L125.747 8.91861C125.747 12.7786 127.106 17.2736 129.531 21.4036L77.5697 51.4036Z" fill="#8BC5E4"/>
<path fill-rule="evenodd" clip-rule="evenodd" d="M73.7852 38.9186C73.7848 35.3136 74.9648 32.5276 77.0878 31.0886L129.049 1.08861C126.926 2.52761 125.746 5.31361 125.747 8.91861L73.7852 38.9186Z" fill="#8BC5E4"/>
<path fill-rule="evenodd" clip-rule="evenodd" d="M77.0952 31.0836C77.2462 30.9816 77.4022 30.8856 77.5632 30.7976L129.525 0.797607C129.364 0.885607 129.208 0.981607 129.057 1.08361L77.0952 31.0836Z" fill="#8BC5E4"/>
<path fill-rule="evenodd" clip-rule="evenodd" d="M77.5698 30.7936C77.7959 30.6686 78.0309 30.5586 78.2719 30.4626L130.233 0.462608C129.992 0.558608 129.757 0.668608 129.531 0.793608L77.5698 30.7936Z" fill="#8BC5E4"/>
<path fill-rule="evenodd" clip-rule="evenodd" d="M78.272 30.4626C80.603 29.5406 83.595 30.0036 86.693 31.7906L138.654 1.79061C135.556 0.00360894 132.564 -0.459391 130.233 0.462609L78.272 30.4626Z" fill="#8BC5E4"/>
<path fill-rule="evenodd" clip-rule="evenodd" d="M86.6978 31.7936C90.1186 33.7686 93.4008 37.2036 95.8257 41.3336L147.787 11.3336C145.362 7.20361 142.08 3.76861 138.659 1.79361L86.6978 31.7936Z" fill="#8BC5E4"/>
<path fill-rule="evenodd" clip-rule="evenodd" d="M95.8257 41.3336C98.2419 45.4586 99.6016 49.9536 99.6016 53.8236L151.563 23.8236C151.563 19.9536 150.203 15.4586 147.787 11.3336L95.8257 41.3336Z" fill="#8BC5E4"/>
<path fill-rule="evenodd" clip-rule="evenodd" d="M72.5122 41.6336C73.9412 51.2786 79.8215 59.3936 86.5505 63.2786L138.512 33.2786C131.783 29.3936 125.903 21.2786 124.474 11.6336L72.5122 41.6336Z" fill="#8BC5E4"/>
<path fill-rule="evenodd" clip-rule="evenodd" d="M86.5508 63.2786C90.6262 65.6316 94.2502 66.0726 96.8842 64.5386L148.846 34.5386C146.212 36.0726 142.588 35.6316 138.512 33.2786L86.5508 63.2786Z" fill="#8BC5E4"/>
<path fill-rule="evenodd" clip-rule="evenodd" d="M96.873 64.5446C97.09 64.4186 97.301 64.2796 97.504 64.1266L149.466 34.1266C149.263 34.2796 149.052 34.4186 148.835 34.5446L96.873 64.5446Z" fill="#8BC5E4"/>
<path fill-rule="evenodd" clip-rule="evenodd" d="M97.502 64.1276C99.104 62.9256 100.271 60.8906 100.856 58.0046L152.817 28.0046C152.232 30.8906 151.065 32.9256 149.463 34.1276L97.502 64.1276Z" fill="#8BC5E4"/>
<path fill-rule="evenodd" clip-rule="evenodd" d="M27.5568 33.6886C25.4639 32.4796 23.5719 32.3846 22.2339 33.2076L74.1954 3.20761C75.5334 2.38461 77.4254 2.47961 79.5184 3.68861L27.5568 33.6886Z" fill="#8BC5E4"/>
<path fill-rule="evenodd" clip-rule="evenodd" d="M22.2372 33.2056C20.9902 33.9716 20.2232 35.5346 20.2222 37.7366L72.1837 7.73661C72.1847 5.53461 72.9517 3.97161 74.1987 3.20561L22.2372 33.2056Z" fill="#8BC5E4"/>
<path fill-rule="evenodd" clip-rule="evenodd" d="M20.2217 119.604C20.2217 122.234 21.3129 125.214 23.0016 127.709L74.9632 97.7086C73.2744 95.2136 72.1832 92.2336 72.1832 89.6036L20.2217 119.604Z" fill="#8BC5E4"/>
<path fill-rule="evenodd" clip-rule="evenodd" d="M23.0017 127.709C22.4581 127.714 21.9751 127.824 21.5601 127.978L73.5216 97.9776C73.9366 97.8236 74.4196 97.7136 74.9633 97.7086L23.0017 127.709Z" fill="#8BC5E4"/>
<path fill-rule="evenodd" clip-rule="evenodd" d="M21.5649 127.976C21.5369 127.986 21.5099 127.996 21.4829 128.007L73.4444 98.0066C73.4714 97.9956 73.4984 97.9856 73.5264 97.9756L21.5649 127.976Z" fill="#8BC5E4"/>
<path fill-rule="evenodd" clip-rule="evenodd" d="M0 143.829C0 146.289 0.9959 148.924 2.4162 151.094L54.3777 121.094C52.9575 118.924 51.9615 116.289 51.9615 113.829L0 143.829Z" fill="#8BC5E4"/>
<path fill-rule="evenodd" clip-rule="evenodd" d="M2.41602 151.094C3.85362 153.274 5.68092 155.019 7.49092 156.064L59.4524 126.064C57.6425 125.019 55.8151 123.274 54.3775 121.094L2.41602 151.094Z" fill="#8BC5E4"/>
<path fill-rule="evenodd" clip-rule="evenodd" d="M165.853 247.494C167.813 248.626 169.625 248.846 170.96 248.289L222.922 218.289C221.587 218.846 219.775 218.626 217.814 217.494L165.853 247.494Z" fill="#8BC5E4"/>
<path fill-rule="evenodd" clip-rule="evenodd" d="M170.964 248.287C171.09 248.234 171.211 248.174 171.328 248.108L223.289 218.108C223.172 218.174 223.051 218.234 222.925 218.287L170.964 248.287Z" fill="#8BC5E4"/>
<path fill-rule="evenodd" clip-rule="evenodd" d="M171.325 248.109C172.487 247.451 173.204 246.123 173.205 244.235L225.167 214.235C225.166 216.123 224.449 217.451 223.287 218.109L171.325 248.109Z" fill="#8BC5E4"/>
<path fill-rule="evenodd" clip-rule="evenodd" d="M152.897 204.744C152.083 203.574 151.199 202.314 150.255 201.199L202.217 171.199C203.161 172.314 204.044 173.574 204.858 174.744L152.897 204.744Z" fill="#8BC5E4"/>
<path fill-rule="evenodd" clip-rule="evenodd" d="M150.255 201.199C150.489 201.124 150.711 201.028 150.92 200.91L202.881 170.91C202.672 171.028 202.45 171.124 202.217 171.199L150.255 201.199Z" fill="#8BC5E4"/>
<path fill-rule="evenodd" clip-rule="evenodd" d="M150.919 200.911C152.24 200.169 153.059 198.582 153.061 196.307L205.022 166.307C205.02 168.582 204.201 170.169 202.88 170.911L150.919 200.911Z" fill="#8BC5E4"/>
<path fill-rule="evenodd" clip-rule="evenodd" d="M153.061 114.439C153.061 109.869 149.762 104.244 145.717 101.909L197.679 71.9086C201.723 74.2436 205.023 79.8686 205.023 84.4386L153.061 114.439Z" fill="#8BC5E4"/>
<path fill-rule="evenodd" clip-rule="evenodd" d="M145.717 104.569C148.497 106.174 150.706 109.929 150.706 113.079L202.667 83.0786C202.667 79.9286 200.459 76.1736 197.679 74.5686L145.717 104.569Z" fill="#8BC5E4"/>
<path fill-rule="evenodd" clip-rule="evenodd" d="M150.706 194.939C150.706 196.527 150.141 197.626 149.222 198.116L201.184 168.116C202.103 167.626 202.668 166.527 202.667 164.939L150.706 194.939Z" fill="#8BC5E4"/>
<path fill-rule="evenodd" clip-rule="evenodd" d="M149.215 198.12C148.32 198.593 147.092 198.491 145.726 197.704L197.688 167.704C199.054 168.491 200.282 168.593 201.177 168.12L149.215 198.12Z" fill="#8BC5E4"/>
<path fill-rule="evenodd" clip-rule="evenodd" d="M27.5567 129.479C24.7768 127.874 22.5771 124.104 22.5771 120.964L74.5386 90.9636C74.5386 94.1036 76.7383 97.8736 79.5183 99.4786L27.5567 129.479Z" fill="#8BC5E4"/>
<path fill-rule="evenodd" clip-rule="evenodd" d="M22.5771 39.1036C22.5768 37.5166 23.1358 36.4216 24.0458 35.9316L76.0073 5.93161C75.0973 6.42161 74.5383 7.51661 74.5386 9.10361L22.5771 39.1036Z" fill="#8BC5E4"/>
<path fill-rule="evenodd" clip-rule="evenodd" d="M24.0542 35.9266C24.9472 35.4506 26.1772 35.5536 27.5492 36.3436L79.5107 6.34361C78.1387 5.55361 76.9087 5.45061 76.0157 5.92661L24.0542 35.9266Z" fill="#8BC5E4"/>
<path fill-rule="evenodd" clip-rule="evenodd" d="M147.467 201.369C148.186 201.784 150.013 203.939 151.424 205.984L203.386 175.984C201.974 173.939 200.147 171.784 199.428 171.369L147.467 201.369Z" fill="#8BC5E4"/>
<path fill-rule="evenodd" clip-rule="evenodd" d="M170.85 242.869C170.849 243.975 170.369 244.823 169.575 245.254L221.537 215.254C222.331 214.823 222.811 213.975 222.811 212.869L170.85 242.869Z" fill="#8BC5E4"/>
<path fill-rule="evenodd" clip-rule="evenodd" d="M169.578 245.253C168.666 245.748 167.342 245.692 165.861 244.839L217.822 214.839C219.303 215.692 220.627 215.748 221.539 215.253L169.578 245.253Z" fill="#8BC5E4"/>
<path fill-rule="evenodd" clip-rule="evenodd" d="M7.49113 153.404C6.21813 152.669 4.89303 151.384 3.94043 149.934L55.9019 119.934C56.8546 121.384 58.1796 122.669 59.4526 123.404L7.49113 153.404Z" fill="#8BC5E4"/>
<path fill-rule="evenodd" clip-rule="evenodd" d="M3.94027 149.934C2.97037 148.464 2.35547 146.879 2.35547 145.189L54.317 115.189C54.317 116.879 54.9319 118.464 55.9018 119.934L3.94027 149.934Z" fill="#8BC5E4"/>
<path fill-rule="evenodd" clip-rule="evenodd" d="M23.0361 130.909C23.7289 130.629 24.924 130.619 25.9373 131.204L77.8988 101.204C76.8855 100.619 75.6904 100.629 74.9976 100.909L23.0361 130.909Z" fill="#8BC5E4"/>
<path fill-rule="evenodd" clip-rule="evenodd" d="M25.9375 131.204L27.5569 132.139L145.717 200.359L147.467 201.369C148.186 201.784 150.013 203.939 151.425 205.984L170.849 237.959V242.869C170.849 245.249 168.624 246.434 165.853 244.834L7.49112 153.404C6.21806 152.669 4.89304 151.384 3.94042 149.934C2.97047 148.464 2.35559 146.879 2.35559 145.189V140.869L23.0363 130.909C23.7291 130.629 24.9242 130.619 25.9375 131.204ZM63.3324 164.064L57.3222 172.214L72.5643 181.014V183.164C72.5643 185.194 74.1144 188.389 76.089 189.529L96.813 201.494C98.7529 202.614 100.52 201.304 100.52 199.194V197.154L116.108 206.154L110.08 191.054L63.3324 164.064Z" fill="white"/>
<path d="M99.056 107.659C99.0473 99.9236 93.4961 90.4486 86.6458 86.4936C79.8042 82.5536 74.253 85.6086 74.253 93.3386C74.253 101.079 79.8042 110.554 86.6458 114.504C93.5048 118.464 99.056 115.399 99.056 107.659Z" fill="white"/>
<path d="M72.7721 140.454L100.528 156.479C100.528 140.899 96.4406 121.239 86.6458 115.584C77.3361 110.209 72.7721 123.184 72.7721 140.454Z" fill="white"/>
<path fill-rule="evenodd" clip-rule="evenodd" d="M27.5569 36.3486L145.717 104.569C148.497 106.174 150.706 109.929 150.706 113.079V194.939C150.706 198.079 148.497 199.304 145.717 197.699L27.5569 129.479C24.777 127.874 22.5773 124.104 22.5773 120.964V39.1036C22.5773 35.9536 24.777 34.7436 27.5569 36.3486ZM143.786 111.024L29.1591 44.8436V122.924L143.786 189.104V111.024Z" fill="white"/>
<path fill-rule="evenodd" clip-rule="evenodd" d="M99.6016 53.8236C99.6016 57.6836 98.2419 60.6086 95.8257 61.9436C93.4008 63.2836 90.1186 62.9186 86.6978 60.9436C83.277 58.9686 79.9861 55.5386 77.5699 51.4036C75.145 47.2736 73.7854 42.7786 73.7854 38.9186C73.7854 35.0486 75.145 32.1236 77.5699 30.7936C79.9861 29.4586 83.277 29.8186 86.6978 31.7936C90.1186 33.7686 93.4008 37.2036 95.8257 41.3336C98.2419 45.4586 99.6016 49.9536 99.6016 53.8236ZM95.7911 51.6936L77.3274 41.0336V37.3536L95.7911 48.0136V51.6936Z" fill="white"/>
<path fill-rule="evenodd" clip-rule="evenodd" d="M57.3222 172.214L63.3324 164.064L110.08 191.054L116.108 206.154L100.52 197.154V199.194C100.52 201.304 98.7529 202.614 96.813 201.494L76.089 189.529C74.1144 188.389 72.5643 185.194 72.5643 183.164V181.014L57.3222 172.214ZM99.056 107.659C99.0473 99.9236 93.4961 90.4486 86.6458 86.4936C79.8042 82.5536 74.253 85.6086 74.253 93.3386C74.253 101.079 79.8042 110.554 86.6458 114.504C93.5048 118.464 99.056 115.399 99.056 107.659ZM72.7721 140.454L100.528 156.479C100.528 140.899 96.4406 121.239 86.6458 115.584C77.3361 110.209 72.7721 123.184 72.7721 140.454ZM29.1591 44.8436L143.786 111.024V189.104L29.1591 122.924V44.8436ZM27.5569 33.6886C23.5126 31.3536 20.2217 33.1736 20.2217 37.7436V119.604C20.2217 122.234 21.3129 125.214 23.0016 127.709C22.4214 127.714 21.9104 127.839 21.4774 128.009L21.4601 128.019L0 138.349V143.829C0 146.289 0.995929 148.924 2.41621 151.094C3.85381 153.274 5.68113 155.019 7.49112 156.064L165.853 247.494C169.836 249.794 173.205 248.329 173.205 244.229V238.169L152.94 204.819L152.897 204.744C152.083 203.574 151.199 202.314 150.255 201.199C151.961 200.654 153.061 198.939 153.061 196.299V114.439C153.061 109.869 149.762 104.244 145.717 101.909L27.5569 33.6886ZM27.5569 36.3486L145.717 104.569C148.497 106.174 150.706 109.929 150.706 113.079V194.939C150.706 198.079 148.497 199.304 145.717 197.699L27.5569 129.479C24.777 127.874 22.5773 124.104 22.5773 120.964V39.1036C22.5773 35.9536 24.777 34.7436 27.5569 36.3486ZM25.9375 131.204L27.5569 132.139L145.717 200.359L147.467 201.369C148.186 201.784 150.013 203.939 151.425 205.984L170.849 237.959V242.869C170.849 245.249 168.624 246.434 165.853 244.834L7.49112 153.404C6.21806 152.669 4.89304 151.384 3.94042 149.934C2.97047 148.464 2.35559 146.879 2.35559 145.189V140.869L23.0363 130.909C23.7291 130.629 24.9242 130.619 25.9375 131.204Z" fill="#8BC5E4"/>
<path d="M67.2642 53.1836L71.2999 40.9336L72.5123 41.6336C73.9412 51.2786 79.8216 59.3936 86.5506 63.2786C93.6 67.3486 99.2985 65.6986 100.857 57.9986L101.897 58.5986L106.183 75.6536L67.2642 53.1836Z" fill="white"/>
</svg>
