<svg width="274" height="349" viewBox="0 0 274 349" fill="none" xmlns="http://www.w3.org/2000/svg">
<path fill-rule="evenodd" clip-rule="evenodd" d="M125.765 253.392L117.485 248.612L169.447 218.612L177.726 223.392L125.765 253.392Z" fill="#8BC5E4"/>
<path fill-rule="evenodd" clip-rule="evenodd" d="M117.485 248.612V275.972L169.447 245.972V218.612L117.485 248.612Z" fill="#8BC5E4"/>
<path fill-rule="evenodd" clip-rule="evenodd" d="M117.485 275.972L112.021 272.817L163.982 242.817L169.447 245.972L117.485 275.972Z" fill="#8BC5E4"/>
<path fill-rule="evenodd" clip-rule="evenodd" d="M112.021 272.817V245.457L163.982 215.457V242.817L112.021 272.817Z" fill="#8BC5E4"/>
<path fill-rule="evenodd" clip-rule="evenodd" d="M112.02 245.457L103.724 240.667L155.685 210.667L163.982 215.457L112.02 245.457Z" fill="#8BC5E4"/>
<path fill-rule="evenodd" clip-rule="evenodd" d="M103.724 240.667L114.358 224.987L166.32 194.987L155.685 210.667L103.724 240.667Z" fill="#8BC5E4"/>
<path fill-rule="evenodd" clip-rule="evenodd" d="M114.358 224.987L125.764 253.392L177.725 223.392L166.32 194.987L114.358 224.987Z" fill="#8BC5E4"/>
<path fill-rule="evenodd" clip-rule="evenodd" d="M125.765 253.392L177.726 223.392L125.765 253.392Z" fill="#8BC5E4"/>
<path fill-rule="evenodd" clip-rule="evenodd" d="M125.765 143.552L117.485 138.772L169.447 108.772L177.726 113.552L125.765 143.552Z" fill="#8BC5E4"/>
<path fill-rule="evenodd" clip-rule="evenodd" d="M117.485 138.772V111.412L169.447 81.4119V108.772L117.485 138.772Z" fill="#8BC5E4"/>
<path fill-rule="evenodd" clip-rule="evenodd" d="M117.485 111.412L112.021 108.257L163.982 78.2569L169.447 81.4119L117.485 111.412Z" fill="#8BC5E4"/>
<path fill-rule="evenodd" clip-rule="evenodd" d="M112.021 108.257V135.617L163.982 105.617V78.2569L112.021 108.257Z" fill="#8BC5E4"/>
<path fill-rule="evenodd" clip-rule="evenodd" d="M112.02 135.617L103.724 130.827L155.685 100.827L163.982 105.617L112.02 135.617Z" fill="#8BC5E4"/>
<path fill-rule="evenodd" clip-rule="evenodd" d="M103.724 130.827L114.358 158.797L166.32 128.797L155.685 100.827L103.724 130.827Z" fill="#8BC5E4"/>
<path fill-rule="evenodd" clip-rule="evenodd" d="M114.358 158.797L125.764 143.552L177.725 113.552L166.32 128.797L114.358 158.797Z" fill="#8BC5E4"/>
<path fill-rule="evenodd" clip-rule="evenodd" d="M125.765 143.552L177.726 113.552L125.765 143.552Z" fill="#8BC5E4"/>
<path fill-rule="evenodd" clip-rule="evenodd" d="M44.6267 203.307L40.0801 192.602L92.0416 162.602L96.5882 173.307L44.6267 203.307Z" fill="#8BC5E4"/>
<path fill-rule="evenodd" clip-rule="evenodd" d="M40.0801 192.602L67.5677 187.412L119.529 157.412L92.0416 162.602L40.0801 192.602Z" fill="#8BC5E4"/>
<path fill-rule="evenodd" clip-rule="evenodd" d="M67.5676 187.412L64.5625 180.347L116.524 150.347L119.529 157.412L67.5676 187.412Z" fill="#8BC5E4"/>
<path fill-rule="evenodd" clip-rule="evenodd" d="M64.562 180.347L37.083 185.552L89.0445 155.552L116.524 150.347L64.562 180.347Z" fill="#8BC5E4"/>
<path fill-rule="evenodd" clip-rule="evenodd" d="M37.0827 185.552L32.5361 174.837L84.4976 144.837L89.0442 155.552L37.0827 185.552Z" fill="#8BC5E4"/>
<path fill-rule="evenodd" clip-rule="evenodd" d="M32.5368 174.837L22.7334 191.527L74.6949 161.527L84.4983 144.837L32.5368 174.837Z" fill="#8BC5E4"/>
<path fill-rule="evenodd" clip-rule="evenodd" d="M22.7334 191.527L44.6265 203.307L96.588 173.307L74.6949 161.527L22.7334 191.527Z" fill="#8BC5E4"/>
<path fill-rule="evenodd" clip-rule="evenodd" d="M44.626 203.307L96.5875 173.307L44.626 203.307Z" fill="#8BC5E4"/>
<path fill-rule="evenodd" clip-rule="evenodd" d="M44.6267 99.9569L40.0801 105.412L92.0416 75.4119L96.5882 69.9569L44.6267 99.9569Z" fill="#8BC5E4"/>
<path fill-rule="evenodd" clip-rule="evenodd" d="M40.0801 105.412L67.5677 142.342L119.529 112.342L92.0416 75.4119L40.0801 105.412Z" fill="#8BC5E4"/>
<path fill-rule="evenodd" clip-rule="evenodd" d="M67.5676 142.342L64.5625 145.937L116.524 115.937L119.529 112.342L67.5676 142.342Z" fill="#8BC5E4"/>
<path fill-rule="evenodd" clip-rule="evenodd" d="M64.562 145.937L37.083 109.002L89.0445 79.0019L116.524 115.937L64.562 145.937Z" fill="#8BC5E4"/>
<path fill-rule="evenodd" clip-rule="evenodd" d="M37.0827 109.002L32.5361 114.467L84.4976 84.4669L89.0442 79.0019L37.0827 109.002Z" fill="#8BC5E4"/>
<path fill-rule="evenodd" clip-rule="evenodd" d="M32.5368 114.467L22.7334 86.4669L74.6949 56.4669L84.4983 84.4669L32.5368 114.467Z" fill="#8BC5E4"/>
<path fill-rule="evenodd" clip-rule="evenodd" d="M22.7334 86.4669L44.6265 99.9569L96.588 69.9569L74.6949 56.4669L22.7334 86.4669Z" fill="#8BC5E4"/>
<path fill-rule="evenodd" clip-rule="evenodd" d="M44.626 99.9569L96.5875 69.9569L44.626 99.9569Z" fill="#8BC5E4"/>
<path fill-rule="evenodd" clip-rule="evenodd" d="M31.2725 131.057V140.737L83.234 110.737V101.057L31.2725 131.057Z" fill="#8BC5E4"/>
<path fill-rule="evenodd" clip-rule="evenodd" d="M31.2725 140.737L64.1555 159.722L116.117 129.722L83.234 110.737L31.2725 140.737Z" fill="#8BC5E4"/>
<path fill-rule="evenodd" clip-rule="evenodd" d="M64.1553 159.722V166.092L116.117 136.092V129.722L64.1553 159.722Z" fill="#8BC5E4"/>
<path fill-rule="evenodd" clip-rule="evenodd" d="M64.1555 166.092L31.2725 147.107L83.234 117.107L116.117 136.092L64.1555 166.092Z" fill="#8BC5E4"/>
<path fill-rule="evenodd" clip-rule="evenodd" d="M31.2725 147.107V156.777L83.234 126.777V117.107L31.2725 147.107Z" fill="#8BC5E4"/>
<path fill-rule="evenodd" clip-rule="evenodd" d="M31.2726 156.777L12.5664 133.577L64.528 103.577L83.2341 126.777L31.2726 156.777Z" fill="#8BC5E4"/>
<path fill-rule="evenodd" clip-rule="evenodd" d="M12.5664 133.577L31.2726 131.057L83.2341 101.057L64.528 103.577L12.5664 133.577Z" fill="#8BC5E4"/>
<path fill-rule="evenodd" clip-rule="evenodd" d="M31.2725 131.057L83.234 101.057L31.2725 131.057Z" fill="#8BC5E4"/>
<path fill-rule="evenodd" clip-rule="evenodd" d="M177.708 280.142L182.255 274.687L234.216 244.687L229.67 250.142L177.708 280.142Z" fill="#8BC5E4"/>
<path fill-rule="evenodd" clip-rule="evenodd" d="M182.255 274.687L154.768 237.757L206.729 207.757L234.217 244.687L182.255 274.687Z" fill="#8BC5E4"/>
<path fill-rule="evenodd" clip-rule="evenodd" d="M154.768 237.757L157.773 234.162L209.734 204.162L206.729 207.757L154.768 237.757Z" fill="#8BC5E4"/>
<path fill-rule="evenodd" clip-rule="evenodd" d="M157.772 234.162L185.26 271.102L237.222 241.102L209.734 204.162L157.772 234.162Z" fill="#8BC5E4"/>
<path fill-rule="evenodd" clip-rule="evenodd" d="M185.26 271.102L189.806 265.637L241.768 235.637L237.221 241.102L185.26 271.102Z" fill="#8BC5E4"/>
<path fill-rule="evenodd" clip-rule="evenodd" d="M189.807 265.637L199.61 293.647L251.572 263.647L241.768 235.637L189.807 265.637Z" fill="#8BC5E4"/>
<path fill-rule="evenodd" clip-rule="evenodd" d="M199.61 293.647L177.708 280.142L229.67 250.142L251.571 263.647L199.61 293.647Z" fill="#8BC5E4"/>
<path fill-rule="evenodd" clip-rule="evenodd" d="M177.708 280.142L229.67 250.142L177.708 280.142Z" fill="#8BC5E4"/>
<path fill-rule="evenodd" clip-rule="evenodd" d="M177.708 176.792L182.255 187.497L234.216 157.497L229.67 146.792L177.708 176.792Z" fill="#8BC5E4"/>
<path fill-rule="evenodd" clip-rule="evenodd" d="M182.255 187.497L154.768 192.687L206.729 162.687L234.217 157.497L182.255 187.497Z" fill="#8BC5E4"/>
<path fill-rule="evenodd" clip-rule="evenodd" d="M154.768 192.687L157.773 199.752L209.734 169.752L206.729 162.687L154.768 192.687Z" fill="#8BC5E4"/>
<path fill-rule="evenodd" clip-rule="evenodd" d="M157.772 199.752L185.26 194.552L237.222 164.552L209.734 169.752L157.772 199.752Z" fill="#8BC5E4"/>
<path fill-rule="evenodd" clip-rule="evenodd" d="M185.26 194.552L189.806 205.267L241.768 175.267L237.221 164.552L185.26 194.552Z" fill="#8BC5E4"/>
<path fill-rule="evenodd" clip-rule="evenodd" d="M189.807 205.267L199.61 188.587L251.572 158.587L241.768 175.267L189.807 205.267Z" fill="#8BC5E4"/>
<path fill-rule="evenodd" clip-rule="evenodd" d="M199.61 188.587L177.708 176.792L229.67 146.792L251.571 158.587L199.61 188.587Z" fill="#8BC5E4"/>
<path fill-rule="evenodd" clip-rule="evenodd" d="M177.708 176.792L229.67 146.792L177.708 176.792Z" fill="#8BC5E4"/>
<path fill-rule="evenodd" clip-rule="evenodd" d="M191.062 223.312V232.992L243.024 202.992V193.312L191.062 223.312Z" fill="#8BC5E4"/>
<path fill-rule="evenodd" clip-rule="evenodd" d="M191.063 232.992L158.18 214.007L210.141 184.007L243.024 202.992L191.063 232.992Z" fill="#8BC5E4"/>
<path fill-rule="evenodd" clip-rule="evenodd" d="M158.18 214.007V220.377L210.141 190.377V184.007L158.18 214.007Z" fill="#8BC5E4"/>
<path fill-rule="evenodd" clip-rule="evenodd" d="M158.18 220.377L191.063 239.362L243.024 209.362L210.141 190.377L158.18 220.377Z" fill="#8BC5E4"/>
<path fill-rule="evenodd" clip-rule="evenodd" d="M191.062 239.362V249.032L243.024 219.032V209.362L191.062 239.362Z" fill="#8BC5E4"/>
<path fill-rule="evenodd" clip-rule="evenodd" d="M191.062 249.032L209.769 247.432L261.73 217.432L243.024 219.032L191.062 249.032Z" fill="#8BC5E4"/>
<path fill-rule="evenodd" clip-rule="evenodd" d="M209.769 247.432L191.062 223.312L243.024 193.312L261.73 217.432L209.769 247.432Z" fill="#8BC5E4"/>
<path fill-rule="evenodd" clip-rule="evenodd" d="M191.062 223.312L243.024 193.312L191.062 223.312Z" fill="#8BC5E4"/>
<path fill-rule="evenodd" clip-rule="evenodd" d="M87.0791 155.447V167.587L139.041 137.587V125.447L87.0791 155.447Z" fill="#8BC5E4"/>
<path fill-rule="evenodd" clip-rule="evenodd" d="M87.0786 167.587L82.7051 165.062L134.667 135.062L139.04 137.587L87.0786 167.587Z" fill="#8BC5E4"/>
<path fill-rule="evenodd" clip-rule="evenodd" d="M82.7056 165.062L71.9756 149.767L123.937 119.767L134.667 135.062L82.7056 165.062Z" fill="#8BC5E4"/>
<path fill-rule="evenodd" clip-rule="evenodd" d="M71.9756 149.767L72.0449 185.117L124.006 155.117L123.937 119.767L71.9756 149.767Z" fill="#8BC5E4"/>
<path fill-rule="evenodd" clip-rule="evenodd" d="M72.0449 185.117L82.8875 183.977L134.849 153.977L124.006 155.117L72.0449 185.117Z" fill="#8BC5E4"/>
<path fill-rule="evenodd" clip-rule="evenodd" d="M82.8877 183.977L87.0793 186.397L139.041 156.397L134.849 153.977L82.8877 183.977Z" fill="#8BC5E4"/>
<path fill-rule="evenodd" clip-rule="evenodd" d="M87.0791 186.397V196.837L139.041 166.837V156.397L87.0791 186.397Z" fill="#8BC5E4"/>
<path fill-rule="evenodd" clip-rule="evenodd" d="M95.1504 210.917L142.184 238.072L194.146 208.072L147.112 180.917L95.1504 210.917Z" fill="#8BC5E4"/>
<path fill-rule="evenodd" clip-rule="evenodd" d="M150.256 233.312V191.922L202.217 161.922V203.312L150.256 233.312Z" fill="#8BC5E4"/>
<path fill-rule="evenodd" clip-rule="evenodd" d="M142.184 177.842L95.1504 150.687L147.112 120.687L194.146 147.842L142.184 177.842Z" fill="#8BC5E4"/>
<path fill-rule="evenodd" clip-rule="evenodd" d="M95.1504 150.687L147.112 120.687L95.1504 150.687Z" fill="#8BC5E4"/>
<path fill-rule="evenodd" clip-rule="evenodd" d="M95.1504 157.987L142.184 185.142L194.146 155.142L147.112 127.987L95.1504 157.987Z" fill="#8BC5E4"/>
<path fill-rule="evenodd" clip-rule="evenodd" d="M144.003 188.312V229.702L195.964 199.702V158.312L144.003 188.312Z" fill="#8BC5E4"/>
<path fill-rule="evenodd" clip-rule="evenodd" d="M142.184 230.772L95.1504 203.617L147.112 173.617L194.146 200.772L142.184 230.772Z" fill="#8BC5E4"/>
<path fill-rule="evenodd" clip-rule="evenodd" d="M93.332 200.447V159.057L145.294 129.057V170.447L93.332 200.447Z" fill="#8BC5E4"/>
<path fill-rule="evenodd" clip-rule="evenodd" d="M95.1504 157.987L147.112 127.987L95.1504 157.987Z" fill="#8BC5E4"/>
<path fill-rule="evenodd" clip-rule="evenodd" d="M0 37.5819V213.142L51.9615 183.142V7.58191L0 37.5819Z" fill="#8BC5E4"/>
<path fill-rule="evenodd" clip-rule="evenodd" d="M10.4697 231.407L211.232 347.317L263.193 317.317L62.4313 201.407L10.4697 231.407Z" fill="#8BC5E4"/>
<path fill-rule="evenodd" clip-rule="evenodd" d="M221.702 341.142V165.582L273.664 135.582V311.142L221.702 341.142Z" fill="#8BC5E4"/>
<path fill-rule="evenodd" clip-rule="evenodd" d="M211.232 147.317L10.4697 31.4069L62.4313 1.40686L263.193 117.317L211.232 147.317Z" fill="#8BC5E4"/>
<path fill-rule="evenodd" clip-rule="evenodd" d="M10.4697 31.4069L62.4313 1.40686L10.4697 31.4069Z" fill="#8BC5E4"/>
<path fill-rule="evenodd" clip-rule="evenodd" d="M10.4697 36.9169L211.232 152.827L263.193 122.827L62.4313 6.91687L10.4697 36.9169Z" fill="#8BC5E4"/>
<path fill-rule="evenodd" clip-rule="evenodd" d="M216.965 162.847V338.407L268.926 308.407V132.847L216.965 162.847Z" fill="#8BC5E4"/>
<path fill-rule="evenodd" clip-rule="evenodd" d="M211.232 341.807L10.4697 225.897L62.4313 195.897L263.193 311.807L211.232 341.807Z" fill="#8BC5E4"/>
<path fill-rule="evenodd" clip-rule="evenodd" d="M4.72852 215.872V40.3119L56.69 10.3119V185.872L4.72852 215.872Z" fill="#8BC5E4"/>
<path fill-rule="evenodd" clip-rule="evenodd" d="M10.4697 36.9169L62.4313 6.91687L10.4697 36.9169Z" fill="#8BC5E4"/>
<path fill-rule="evenodd" clip-rule="evenodd" d="M10.4697 36.9169L211.232 152.827L263.193 122.827L62.4313 6.91687L10.4697 36.9169Z" fill="#8BC5E4"/>
<path fill-rule="evenodd" clip-rule="evenodd" d="M216.965 162.847V338.407L268.926 308.407V132.847L216.965 162.847Z" fill="#8BC5E4"/>
<path fill-rule="evenodd" clip-rule="evenodd" d="M211.232 341.807L10.4697 225.897L62.4313 195.897L263.193 311.807L211.232 341.807Z" fill="#8BC5E4"/>
<path fill-rule="evenodd" clip-rule="evenodd" d="M4.72852 215.872V40.3119L56.69 10.3119V185.872L4.72852 215.872Z" fill="#8BC5E4"/>
<path fill-rule="evenodd" clip-rule="evenodd" d="M10.4697 36.9169L62.4313 6.91687L10.4697 36.9169Z" fill="#8BC5E4"/>
<path fill-rule="evenodd" clip-rule="evenodd" d="M117.485 248.612L125.765 253.392L177.726 223.392L169.447 218.612L117.485 248.612Z" fill="#8BC5E4"/>
<path fill-rule="evenodd" clip-rule="evenodd" d="M125.764 253.392L114.358 224.987L166.32 194.987L177.725 223.392L125.764 253.392Z" fill="#8BC5E4"/>
<path fill-rule="evenodd" clip-rule="evenodd" d="M114.358 224.987L103.724 240.667L155.685 210.667L166.32 194.987L114.358 224.987Z" fill="#8BC5E4"/>
<path fill-rule="evenodd" clip-rule="evenodd" d="M103.724 240.667L112.02 245.457L163.982 215.457L155.685 210.667L103.724 240.667Z" fill="#8BC5E4"/>
<path fill-rule="evenodd" clip-rule="evenodd" d="M112.021 245.457V272.817L163.982 242.817V215.457L112.021 245.457Z" fill="#8BC5E4"/>
<path fill-rule="evenodd" clip-rule="evenodd" d="M112.021 272.817L117.485 275.972L169.447 245.972L163.982 242.817L112.021 272.817Z" fill="#8BC5E4"/>
<path fill-rule="evenodd" clip-rule="evenodd" d="M117.485 275.972V248.612L169.447 218.612V245.972L117.485 275.972Z" fill="#8BC5E4"/>
<path fill-rule="evenodd" clip-rule="evenodd" d="M117.485 248.612L169.447 218.612L117.485 248.612Z" fill="#8BC5E4"/>
<path fill-rule="evenodd" clip-rule="evenodd" d="M117.485 138.772L125.765 143.552L177.726 113.552L169.447 108.772L117.485 138.772Z" fill="#8BC5E4"/>
<path fill-rule="evenodd" clip-rule="evenodd" d="M125.764 143.552L114.358 158.797L166.32 128.797L177.725 113.552L125.764 143.552Z" fill="#8BC5E4"/>
<path fill-rule="evenodd" clip-rule="evenodd" d="M114.358 158.797L103.724 130.827L155.685 100.827L166.32 128.797L114.358 158.797Z" fill="#8BC5E4"/>
<path fill-rule="evenodd" clip-rule="evenodd" d="M103.724 130.827L112.02 135.617L163.982 105.617L155.685 100.827L103.724 130.827Z" fill="#8BC5E4"/>
<path fill-rule="evenodd" clip-rule="evenodd" d="M112.021 135.617V108.257L163.982 78.2569V105.617L112.021 135.617Z" fill="#8BC5E4"/>
<path fill-rule="evenodd" clip-rule="evenodd" d="M112.021 108.257L117.485 111.412L169.447 81.4119L163.982 78.2569L112.021 108.257Z" fill="#8BC5E4"/>
<path fill-rule="evenodd" clip-rule="evenodd" d="M117.485 111.412V138.772L169.447 108.772V81.4119L117.485 111.412Z" fill="#8BC5E4"/>
<path fill-rule="evenodd" clip-rule="evenodd" d="M117.485 138.772L169.447 108.772L117.485 138.772Z" fill="#8BC5E4"/>
<path fill-rule="evenodd" clip-rule="evenodd" d="M40.0801 192.602L44.6267 203.307L96.5882 173.307L92.0416 162.602L40.0801 192.602Z" fill="#8BC5E4"/>
<path fill-rule="evenodd" clip-rule="evenodd" d="M44.6265 203.307L22.7334 191.527L74.6949 161.527L96.588 173.307L44.6265 203.307Z" fill="#8BC5E4"/>
<path fill-rule="evenodd" clip-rule="evenodd" d="M22.7334 191.527L32.5368 174.837L84.4983 144.837L74.6949 161.527L22.7334 191.527Z" fill="#8BC5E4"/>
<path fill-rule="evenodd" clip-rule="evenodd" d="M32.5361 174.837L37.0827 185.552L89.0442 155.552L84.4976 144.837L32.5361 174.837Z" fill="#8BC5E4"/>
<path fill-rule="evenodd" clip-rule="evenodd" d="M37.083 185.552L64.562 180.347L116.524 150.347L89.0445 155.552L37.083 185.552Z" fill="#8BC5E4"/>
<path fill-rule="evenodd" clip-rule="evenodd" d="M64.5625 180.347L67.5676 187.412L119.529 157.412L116.524 150.347L64.5625 180.347Z" fill="#8BC5E4"/>
<path fill-rule="evenodd" clip-rule="evenodd" d="M67.5677 187.412L40.0801 192.602L92.0416 162.602L119.529 157.412L67.5677 187.412Z" fill="#8BC5E4"/>
<path fill-rule="evenodd" clip-rule="evenodd" d="M40.0801 192.602L92.0416 162.602L40.0801 192.602Z" fill="#8BC5E4"/>
<path fill-rule="evenodd" clip-rule="evenodd" d="M40.0801 105.412L44.6267 99.9569L96.5882 69.9569L92.0416 75.4119L40.0801 105.412Z" fill="#8BC5E4"/>
<path fill-rule="evenodd" clip-rule="evenodd" d="M44.6265 99.9569L22.7334 86.4669L74.6949 56.4669L96.588 69.9569L44.6265 99.9569Z" fill="#8BC5E4"/>
<path fill-rule="evenodd" clip-rule="evenodd" d="M22.7334 86.4669L32.5368 114.467L84.4983 84.4669L74.6949 56.4669L22.7334 86.4669Z" fill="#8BC5E4"/>
<path fill-rule="evenodd" clip-rule="evenodd" d="M32.5361 114.467L37.0827 109.002L89.0442 79.0019L84.4976 84.4669L32.5361 114.467Z" fill="#8BC5E4"/>
<path fill-rule="evenodd" clip-rule="evenodd" d="M37.083 109.002L64.562 145.937L116.524 115.937L89.0445 79.0019L37.083 109.002Z" fill="#8BC5E4"/>
<path fill-rule="evenodd" clip-rule="evenodd" d="M64.5625 145.937L67.5676 142.342L119.529 112.342L116.524 115.937L64.5625 145.937Z" fill="#8BC5E4"/>
<path fill-rule="evenodd" clip-rule="evenodd" d="M67.5677 142.342L40.0801 105.412L92.0416 75.4119L119.529 112.342L67.5677 142.342Z" fill="#8BC5E4"/>
<path fill-rule="evenodd" clip-rule="evenodd" d="M40.0801 105.412L92.0416 75.4119L40.0801 105.412Z" fill="#8BC5E4"/>
<path fill-rule="evenodd" clip-rule="evenodd" d="M31.2725 140.737V131.057L83.234 101.057V110.737L31.2725 140.737Z" fill="#8BC5E4"/>
<path fill-rule="evenodd" clip-rule="evenodd" d="M31.2726 131.057L12.5664 133.577L64.528 103.577L83.2341 101.057L31.2726 131.057Z" fill="#8BC5E4"/>
<path fill-rule="evenodd" clip-rule="evenodd" d="M12.5664 133.577L31.2726 156.777L83.2341 126.777L64.528 103.577L12.5664 133.577Z" fill="#8BC5E4"/>
<path fill-rule="evenodd" clip-rule="evenodd" d="M31.2725 156.777V147.107L83.234 117.107V126.777L31.2725 156.777Z" fill="#8BC5E4"/>
<path fill-rule="evenodd" clip-rule="evenodd" d="M31.2725 147.107L64.1555 166.092L116.117 136.092L83.234 117.107L31.2725 147.107Z" fill="#8BC5E4"/>
<path fill-rule="evenodd" clip-rule="evenodd" d="M64.1553 166.092V159.722L116.117 129.722V136.092L64.1553 166.092Z" fill="#8BC5E4"/>
<path fill-rule="evenodd" clip-rule="evenodd" d="M64.1555 159.722L31.2725 140.737L83.234 110.737L116.117 129.722L64.1555 159.722Z" fill="#8BC5E4"/>
<path fill-rule="evenodd" clip-rule="evenodd" d="M31.2725 140.737L83.234 110.737L31.2725 140.737Z" fill="#8BC5E4"/>
<path fill-rule="evenodd" clip-rule="evenodd" d="M182.255 274.687L177.708 280.142L229.67 250.142L234.216 244.687L182.255 274.687Z" fill="#8BC5E4"/>
<path fill-rule="evenodd" clip-rule="evenodd" d="M177.708 280.142L199.61 293.647L251.571 263.647L229.67 250.142L177.708 280.142Z" fill="#8BC5E4"/>
<path fill-rule="evenodd" clip-rule="evenodd" d="M199.61 293.647L189.807 265.637L241.768 235.637L251.572 263.647L199.61 293.647Z" fill="#8BC5E4"/>
<path fill-rule="evenodd" clip-rule="evenodd" d="M189.806 265.637L185.26 271.102L237.221 241.102L241.768 235.637L189.806 265.637Z" fill="#8BC5E4"/>
<path fill-rule="evenodd" clip-rule="evenodd" d="M185.26 271.102L157.772 234.162L209.734 204.162L237.222 241.102L185.26 271.102Z" fill="#8BC5E4"/>
<path fill-rule="evenodd" clip-rule="evenodd" d="M157.773 234.162L154.768 237.757L206.729 207.757L209.734 204.162L157.773 234.162Z" fill="#8BC5E4"/>
<path fill-rule="evenodd" clip-rule="evenodd" d="M154.768 237.757L182.255 274.687L234.217 244.687L206.729 207.757L154.768 237.757Z" fill="#8BC5E4"/>
<path fill-rule="evenodd" clip-rule="evenodd" d="M182.255 274.687L234.216 244.687L182.255 274.687Z" fill="#8BC5E4"/>
<path fill-rule="evenodd" clip-rule="evenodd" d="M182.255 187.497L177.708 176.792L229.67 146.792L234.216 157.497L182.255 187.497Z" fill="#8BC5E4"/>
<path fill-rule="evenodd" clip-rule="evenodd" d="M177.708 176.792L199.61 188.587L251.571 158.587L229.67 146.792L177.708 176.792Z" fill="#8BC5E4"/>
<path fill-rule="evenodd" clip-rule="evenodd" d="M199.61 188.587L189.807 205.267L241.768 175.267L251.572 158.587L199.61 188.587Z" fill="#8BC5E4"/>
<path fill-rule="evenodd" clip-rule="evenodd" d="M189.806 205.267L185.26 194.552L237.221 164.552L241.768 175.267L189.806 205.267Z" fill="#8BC5E4"/>
<path fill-rule="evenodd" clip-rule="evenodd" d="M185.26 194.552L157.772 199.752L209.734 169.752L237.222 164.552L185.26 194.552Z" fill="#8BC5E4"/>
<path fill-rule="evenodd" clip-rule="evenodd" d="M157.773 199.752L154.768 192.687L206.729 162.687L209.734 169.752L157.773 199.752Z" fill="#8BC5E4"/>
<path fill-rule="evenodd" clip-rule="evenodd" d="M154.768 192.687L182.255 187.497L234.217 157.497L206.729 162.687L154.768 192.687Z" fill="#8BC5E4"/>
<path fill-rule="evenodd" clip-rule="evenodd" d="M182.255 187.497L234.216 157.497L182.255 187.497Z" fill="#8BC5E4"/>
<path fill-rule="evenodd" clip-rule="evenodd" d="M191.062 232.992V223.312L243.024 193.312V202.992L191.062 232.992Z" fill="#8BC5E4"/>
<path fill-rule="evenodd" clip-rule="evenodd" d="M191.062 223.312L209.769 247.432L261.73 217.432L243.024 193.312L191.062 223.312Z" fill="#8BC5E4"/>
<path fill-rule="evenodd" clip-rule="evenodd" d="M209.769 247.432L191.062 249.032L243.024 219.032L261.73 217.432L209.769 247.432Z" fill="#8BC5E4"/>
<path fill-rule="evenodd" clip-rule="evenodd" d="M191.062 249.032V239.362L243.024 209.362V219.032L191.062 249.032Z" fill="#8BC5E4"/>
<path fill-rule="evenodd" clip-rule="evenodd" d="M191.063 239.362L158.18 220.377L210.141 190.377L243.024 209.362L191.063 239.362Z" fill="#8BC5E4"/>
<path fill-rule="evenodd" clip-rule="evenodd" d="M158.18 220.377V214.007L210.141 184.007V190.377L158.18 220.377Z" fill="#8BC5E4"/>
<path fill-rule="evenodd" clip-rule="evenodd" d="M158.18 214.007L191.063 232.992L243.024 202.992L210.141 184.007L158.18 214.007Z" fill="#8BC5E4"/>
<path fill-rule="evenodd" clip-rule="evenodd" d="M191.062 232.992L243.024 202.992L191.062 232.992Z" fill="#8BC5E4"/>
<path fill-rule="evenodd" clip-rule="evenodd" d="M95.1504 150.687L142.184 177.842L194.146 147.842L147.112 120.687L95.1504 150.687Z" fill="#8BC5E4"/>
<path fill-rule="evenodd" clip-rule="evenodd" d="M150.256 191.922V233.312L202.217 203.312V161.922L150.256 191.922Z" fill="#8BC5E4"/>
<path fill-rule="evenodd" clip-rule="evenodd" d="M142.184 238.072L95.1504 210.917L147.112 180.917L194.146 208.072L142.184 238.072Z" fill="#8BC5E4"/>
<path fill-rule="evenodd" clip-rule="evenodd" d="M87.0791 196.837V186.397L139.041 156.397V166.837L87.0791 196.837Z" fill="#8BC5E4"/>
<path fill-rule="evenodd" clip-rule="evenodd" d="M87.0793 186.397L82.8877 183.977L134.849 153.977L139.041 156.397L87.0793 186.397Z" fill="#8BC5E4"/>
<path fill-rule="evenodd" clip-rule="evenodd" d="M82.8875 183.977L72.0449 185.117L124.006 155.117L134.849 153.977L82.8875 183.977Z" fill="#8BC5E4"/>
<path fill-rule="evenodd" clip-rule="evenodd" d="M72.0449 185.117L71.9756 149.767L123.937 119.767L124.006 155.117L72.0449 185.117Z" fill="#8BC5E4"/>
<path fill-rule="evenodd" clip-rule="evenodd" d="M71.9756 149.767L82.7056 165.062L134.667 135.062L123.937 119.767L71.9756 149.767Z" fill="#8BC5E4"/>
<path fill-rule="evenodd" clip-rule="evenodd" d="M82.7051 165.062L87.0786 167.587L139.04 137.587L134.667 135.062L82.7051 165.062Z" fill="#8BC5E4"/>
<path fill-rule="evenodd" clip-rule="evenodd" d="M87.0791 167.587V155.447L139.041 125.447V137.587L87.0791 167.587Z" fill="#8BC5E4"/>
<path fill-rule="evenodd" clip-rule="evenodd" d="M87.0791 155.447L139.041 125.447L87.0791 155.447Z" fill="#8BC5E4"/>
<path fill-rule="evenodd" clip-rule="evenodd" d="M95.1504 157.987L142.184 185.142L194.146 155.142L147.112 127.987L95.1504 157.987Z" fill="#8BC5E4"/>
<path fill-rule="evenodd" clip-rule="evenodd" d="M144.003 188.312V229.702L195.964 199.702V158.312L144.003 188.312Z" fill="#8BC5E4"/>
<path fill-rule="evenodd" clip-rule="evenodd" d="M142.184 230.772L95.1504 203.617L147.112 173.617L194.146 200.772L142.184 230.772Z" fill="#8BC5E4"/>
<path fill-rule="evenodd" clip-rule="evenodd" d="M93.332 200.447V159.057L145.294 129.057V170.447L93.332 200.447Z" fill="#8BC5E4"/>
<path fill-rule="evenodd" clip-rule="evenodd" d="M95.1504 157.987L147.112 127.987L95.1504 157.987Z" fill="#8BC5E4"/>
<path fill-rule="evenodd" clip-rule="evenodd" d="M95.1506 150.687C93.0374 149.467 91.0984 149.325 89.6504 150.073L141.612 120.073C143.06 119.325 144.999 119.467 147.112 120.687L95.1506 150.687Z" fill="#8BC5E4"/>
<path fill-rule="evenodd" clip-rule="evenodd" d="M89.6521 150.072C88.0751 150.886 87.0811 152.756 87.0791 155.439L139.041 125.439C139.043 122.756 140.037 120.886 141.614 120.072L89.6521 150.072Z" fill="#8BC5E4"/>
<path fill-rule="evenodd" clip-rule="evenodd" d="M87.0791 196.837C87.0791 201.987 90.7337 208.367 95.1504 210.917L147.112 180.917C142.695 178.367 139.041 171.987 139.041 166.837L87.0791 196.837Z" fill="#8BC5E4"/>
<path fill-rule="evenodd" clip-rule="evenodd" d="M142.184 238.072C144.298 239.292 146.236 239.434 147.684 238.686L199.645 208.686C198.197 209.434 196.259 209.292 194.145 208.072L142.184 238.072Z" fill="#8BC5E4"/>
<path fill-rule="evenodd" clip-rule="evenodd" d="M147.682 238.687C149.259 237.873 150.253 236.003 150.255 233.32L202.216 203.32C202.214 206.003 201.22 207.873 199.643 208.687L147.682 238.687Z" fill="#8BC5E4"/>
<path fill-rule="evenodd" clip-rule="evenodd" d="M150.255 191.922C150.255 186.772 146.6 180.392 142.184 177.842L194.145 147.842C198.562 150.392 202.216 156.772 202.216 161.922L150.255 191.922Z" fill="#8BC5E4"/>
<path fill-rule="evenodd" clip-rule="evenodd" d="M142.184 185.142C143.249 185.757 144.002 187.082 144.002 188.312L195.964 158.312C195.964 157.082 195.21 155.757 194.145 155.142L142.184 185.142Z" fill="#8BC5E4"/>
<path fill-rule="evenodd" clip-rule="evenodd" d="M144.003 229.702C144.003 230.346 143.796 230.777 143.447 230.954L195.409 200.954C195.758 200.777 195.965 200.346 195.964 199.702L144.003 229.702Z" fill="#8BC5E4"/>
<path fill-rule="evenodd" clip-rule="evenodd" d="M143.449 230.953C143.132 231.115 142.696 231.066 142.19 230.776L194.152 200.776C194.658 201.066 195.094 201.115 195.411 200.953L143.449 230.953Z" fill="#8BC5E4"/>
<path fill-rule="evenodd" clip-rule="evenodd" d="M95.1506 203.617C94.0854 203.002 93.332 201.677 93.332 200.447L145.294 170.447C145.294 171.677 146.047 173.002 147.112 173.617L95.1506 203.617Z" fill="#8BC5E4"/>
<path fill-rule="evenodd" clip-rule="evenodd" d="M93.332 159.057C93.3324 158.413 93.5384 157.982 93.8884 157.805L145.85 127.805C145.5 127.982 145.294 128.413 145.294 129.057L93.332 159.057Z" fill="#8BC5E4"/>
<path fill-rule="evenodd" clip-rule="evenodd" d="M93.8857 157.806C94.2027 157.644 94.6377 157.693 95.1437 157.983L147.105 127.983C146.599 127.693 146.164 127.644 145.847 127.806L93.8857 157.806Z" fill="#8BC5E4"/>
<path fill-rule="evenodd" clip-rule="evenodd" d="M10.4707 31.4069C7.70948 29.8129 5.18848 29.6199 3.31348 30.5929L55.275 0.592884C57.15 -0.380116 59.671 -0.187116 62.4323 1.40688L10.4707 31.4069Z" fill="#8BC5E4"/>
<path fill-rule="evenodd" clip-rule="evenodd" d="M3.315 30.5909C1.28 31.6459 0.003 34.0729 0 37.5719L51.9615 7.57188C51.9645 4.07288 53.2415 1.64588 55.2765 0.590881L3.315 30.5909Z" fill="#8BC5E4"/>
<path fill-rule="evenodd" clip-rule="evenodd" d="M0 213.142C0 219.872 4.7112 228.082 10.4702 231.407L62.4318 201.407C56.6727 198.082 51.9615 189.872 51.9615 183.142L0 213.142Z" fill="#8BC5E4"/>
<path fill-rule="evenodd" clip-rule="evenodd" d="M211.232 347.317C213.99 348.909 216.51 349.102 218.387 348.129L270.349 318.129C268.472 319.102 265.952 318.909 263.194 317.317L211.232 347.317Z" fill="#8BC5E4"/>
<path fill-rule="evenodd" clip-rule="evenodd" d="M218.384 348.131C220.421 347.077 221.7 344.651 221.702 341.152L273.663 311.152C273.661 314.651 272.382 317.077 270.345 318.131L218.384 348.131Z" fill="#8BC5E4"/>
<path fill-rule="evenodd" clip-rule="evenodd" d="M221.703 165.582C221.703 158.852 216.983 150.637 211.232 147.317L263.194 117.317C268.944 120.637 273.664 128.852 273.664 135.582L221.703 165.582Z" fill="#8BC5E4"/>
<path fill-rule="evenodd" clip-rule="evenodd" d="M211.232 152.827C214.445 154.682 216.965 159.077 216.965 162.847L268.927 132.847C268.927 129.077 266.407 124.682 263.194 122.827L211.232 152.827Z" fill="#8BC5E4"/>
<path fill-rule="evenodd" clip-rule="evenodd" d="M216.965 338.407C216.965 340.366 216.285 341.708 215.181 342.285L267.142 312.285C268.246 311.708 268.926 310.366 268.927 308.407L216.965 338.407Z" fill="#8BC5E4"/>
<path fill-rule="evenodd" clip-rule="evenodd" d="M215.183 342.284C214.162 342.818 212.78 342.699 211.237 341.81L263.199 311.81C264.742 312.699 266.124 312.818 267.145 312.284L215.183 342.284Z" fill="#8BC5E4"/>
<path fill-rule="evenodd" clip-rule="evenodd" d="M10.4702 225.897C7.24862 224.037 4.72852 219.642 4.72852 215.872L56.69 185.872C56.69 189.642 59.2102 194.037 62.4318 195.897L10.4702 225.897Z" fill="#8BC5E4"/>
<path fill-rule="evenodd" clip-rule="evenodd" d="M4.72852 40.3119C4.72802 38.3529 5.40902 37.0109 6.51402 36.4349L58.4755 6.43488C57.3705 7.01088 56.6895 8.35288 56.69 10.3119L4.72852 40.3119Z" fill="#8BC5E4"/>
<path fill-rule="evenodd" clip-rule="evenodd" d="M6.51172 36.4359C7.53372 35.9019 8.91872 36.0219 10.4657 36.9139L62.4272 6.91385C60.8802 6.02185 59.4952 5.90185 58.4732 6.43585L6.51172 36.4359Z" fill="#8BC5E4"/>
<path fill-rule="evenodd" clip-rule="evenodd" d="M211.232 152.827C214.445 154.682 216.965 159.077 216.965 162.847L268.927 132.847C268.927 129.077 266.407 124.682 263.194 122.827L211.232 152.827Z" fill="#8BC5E4"/>
<path fill-rule="evenodd" clip-rule="evenodd" d="M216.965 338.407C216.965 340.366 216.285 341.708 215.181 342.285L267.142 312.285C268.246 311.708 268.926 310.366 268.927 308.407L216.965 338.407Z" fill="#8BC5E4"/>
<path fill-rule="evenodd" clip-rule="evenodd" d="M215.183 342.284C214.162 342.818 212.78 342.699 211.237 341.81L263.199 311.81C264.742 312.699 266.124 312.818 267.145 312.284L215.183 342.284Z" fill="#8BC5E4"/>
<path fill-rule="evenodd" clip-rule="evenodd" d="M10.4702 225.897C7.24862 224.037 4.72852 219.642 4.72852 215.872L56.69 185.872C56.69 189.642 59.2102 194.037 62.4318 195.897L10.4702 225.897Z" fill="#8BC5E4"/>
<path fill-rule="evenodd" clip-rule="evenodd" d="M4.72852 40.3119C4.72802 38.3529 5.40902 37.0109 6.51402 36.4349L58.4755 6.43488C57.3705 7.01088 56.6895 8.35288 56.69 10.3119L4.72852 40.3119Z" fill="#8BC5E4"/>
<path fill-rule="evenodd" clip-rule="evenodd" d="M6.51172 36.4359C7.53372 35.9019 8.91872 36.0219 10.4657 36.9139L62.4272 6.91385C60.8802 6.02185 59.4952 5.90185 58.4732 6.43585L6.51172 36.4359Z" fill="#8BC5E4"/>
<path fill-rule="evenodd" clip-rule="evenodd" d="M87.0791 155.447C87.0792 152.761 88.0732 150.889 89.6502 150.073L141.612 120.073C140.035 120.889 139.041 122.761 139.041 125.447L87.0791 155.447Z" fill="#8BC5E4"/>
<path fill-rule="evenodd" clip-rule="evenodd" d="M89.6484 150.075C91.0944 149.326 93.0324 149.466 95.1444 150.683L147.106 120.683C144.994 119.466 143.056 119.326 141.61 120.075L89.6484 150.075Z" fill="#8BC5E4"/>
<path fill-rule="evenodd" clip-rule="evenodd" d="M142.184 177.842C146.6 180.392 150.255 186.772 150.255 191.922L202.216 161.922C202.216 156.772 198.562 150.392 194.145 147.842L142.184 177.842Z" fill="#8BC5E4"/>
<path fill-rule="evenodd" clip-rule="evenodd" d="M150.255 233.312C150.255 235.998 149.262 237.87 147.684 238.686L199.645 208.686C201.223 207.87 202.216 205.998 202.216 203.312L150.255 233.312Z" fill="#8BC5E4"/>
<path fill-rule="evenodd" clip-rule="evenodd" d="M147.686 238.684C146.24 239.433 144.303 239.293 142.191 238.076L194.153 208.076C196.265 209.293 198.202 209.433 199.648 208.684L147.686 238.684Z" fill="#8BC5E4"/>
<path fill-rule="evenodd" clip-rule="evenodd" d="M95.1504 210.917C90.7337 208.367 87.0791 201.987 87.0791 196.837L139.041 166.837C139.041 171.987 142.695 178.367 147.112 180.917L95.1504 210.917Z" fill="#8BC5E4"/>
<path fill-rule="evenodd" clip-rule="evenodd" d="M142.184 185.142C143.249 185.757 144.002 187.082 144.002 188.312L195.964 158.312C195.964 157.082 195.21 155.757 194.145 155.142L142.184 185.142Z" fill="#8BC5E4"/>
<path fill-rule="evenodd" clip-rule="evenodd" d="M144.003 229.702C144.003 230.346 143.796 230.777 143.447 230.954L195.409 200.954C195.758 200.777 195.965 200.346 195.964 199.702L144.003 229.702Z" fill="#8BC5E4"/>
<path fill-rule="evenodd" clip-rule="evenodd" d="M143.449 230.953C143.132 231.115 142.696 231.066 142.19 230.776L194.152 200.776C194.658 201.066 195.094 201.115 195.411 200.953L143.449 230.953Z" fill="#8BC5E4"/>
<path fill-rule="evenodd" clip-rule="evenodd" d="M95.1506 203.617C94.0854 203.002 93.332 201.677 93.332 200.447L145.294 170.447C145.294 171.677 146.047 173.002 147.112 173.617L95.1506 203.617Z" fill="#8BC5E4"/>
<path fill-rule="evenodd" clip-rule="evenodd" d="M93.332 159.057C93.3324 158.413 93.5384 157.982 93.8884 157.805L145.85 127.805C145.5 127.982 145.294 128.413 145.294 129.057L93.332 159.057Z" fill="#8BC5E4"/>
<path fill-rule="evenodd" clip-rule="evenodd" d="M93.8857 157.806C94.2027 157.644 94.6377 157.693 95.1437 157.983L147.105 127.983C146.599 127.693 146.164 127.644 145.847 127.806L93.8857 157.806Z" fill="#8BC5E4"/>
<path fill-rule="evenodd" clip-rule="evenodd" d="M44.6263 99.9569L40.0797 105.412L67.5673 142.342L64.5622 145.937L37.0832 109.002L32.5366 114.467L22.7332 86.4669L44.6263 99.9569ZM31.2722 140.737V131.057L12.566 133.577L31.2722 156.777V147.107L64.1552 166.092V159.722L31.2722 140.737ZM44.6263 203.307L40.0797 192.602L67.5673 187.412L64.5622 180.347L37.0832 185.552L32.5366 174.837L22.7332 191.527L44.6263 203.307ZM87.0789 155.447C87.0789 150.297 90.7335 148.137 95.1502 150.687L142.184 177.842C146.601 180.392 150.255 186.772 150.255 191.922V233.312C150.255 238.462 146.601 240.622 142.184 238.072L95.1502 210.917C90.7335 208.367 87.0789 201.987 87.0789 196.837V186.397L82.8873 183.977L72.0447 185.117L71.9754 149.767L82.7054 165.062L87.0789 167.587V155.447ZM95.1502 157.987L142.184 185.142C143.249 185.757 144.003 187.082 144.003 188.312V229.702C144.003 230.932 143.249 231.387 142.184 230.772L95.1502 203.617C94.085 203.002 93.3316 201.677 93.3316 200.447V159.057C93.3316 157.827 94.085 157.372 95.1502 157.987ZM125.764 143.552L117.485 138.772V111.412L112.02 108.257V135.617L103.724 130.827L114.359 158.797L125.764 143.552ZM117.485 248.612L125.764 253.392L114.359 224.987L103.724 240.667L112.02 245.457V272.817L117.485 275.972V248.612ZM177.708 280.142L182.255 274.687L154.767 237.757L157.773 234.162L185.26 271.102L189.807 265.637L199.61 293.647L177.708 280.142ZM191.063 232.992V223.312L209.769 247.432L191.063 249.032V239.362L158.18 220.377V214.007L191.063 232.992ZM177.708 176.792L182.255 187.497L154.767 192.687L157.773 199.752L185.26 194.552L189.807 205.267L199.61 188.587L177.708 176.792ZM10.4702 36.9169L211.232 152.827C214.445 154.682 216.965 159.077 216.965 162.847V338.407C216.965 342.177 214.445 343.662 211.232 341.807L10.4702 225.897C7.24863 224.037 4.7285 219.642 4.7285 215.872V40.3119C4.7285 36.5419 7.24863 35.0569 10.4702 36.9169Z" fill="white"/>
</svg>
