<svg width="274" height="349" viewBox="0 0 274 349" fill="none" xmlns="http://www.w3.org/2000/svg">
<path fill-rule="evenodd" clip-rule="evenodd" d="M177.726 236.17L169.447 240.95L117.485 210.95L125.765 206.17L177.726 236.17Z" fill="#8BC5E4"/>
<path fill-rule="evenodd" clip-rule="evenodd" d="M169.447 240.95V268.31L117.485 238.31V210.95L169.447 240.95Z" fill="#8BC5E4"/>
<path fill-rule="evenodd" clip-rule="evenodd" d="M169.447 268.31L163.982 271.465L112.021 241.465L117.485 238.31L169.447 268.31Z" fill="#8BC5E4"/>
<path fill-rule="evenodd" clip-rule="evenodd" d="M163.982 271.465V244.105L112.021 214.105V241.465L163.982 271.465Z" fill="#8BC5E4"/>
<path fill-rule="evenodd" clip-rule="evenodd" d="M163.982 244.105L155.685 248.895L103.724 218.895L112.02 214.105L163.982 244.105Z" fill="#8BC5E4"/>
<path fill-rule="evenodd" clip-rule="evenodd" d="M155.685 248.895L166.32 220.935L114.358 190.935L103.724 218.895L155.685 248.895Z" fill="#8BC5E4"/>
<path fill-rule="evenodd" clip-rule="evenodd" d="M166.32 220.935L177.725 236.17L125.764 206.17L114.358 190.935L166.32 220.935Z" fill="#8BC5E4"/>
<path fill-rule="evenodd" clip-rule="evenodd" d="M177.726 236.17L125.765 206.17L177.726 236.17Z" fill="#8BC5E4"/>
<path fill-rule="evenodd" clip-rule="evenodd" d="M177.726 126.33L169.447 131.11L117.485 101.11L125.765 96.33L177.726 126.33Z" fill="#8BC5E4"/>
<path fill-rule="evenodd" clip-rule="evenodd" d="M169.447 131.11V103.75L117.485 73.75V101.11L169.447 131.11Z" fill="#8BC5E4"/>
<path fill-rule="evenodd" clip-rule="evenodd" d="M169.447 103.75L163.982 106.905L112.021 76.905L117.485 73.75L169.447 103.75Z" fill="#8BC5E4"/>
<path fill-rule="evenodd" clip-rule="evenodd" d="M163.982 106.905V134.265L112.021 104.265V76.905L163.982 106.905Z" fill="#8BC5E4"/>
<path fill-rule="evenodd" clip-rule="evenodd" d="M163.982 134.265L155.685 139.055L103.724 109.055L112.02 104.265L163.982 134.265Z" fill="#8BC5E4"/>
<path fill-rule="evenodd" clip-rule="evenodd" d="M155.685 139.055L166.32 154.745L114.358 124.745L103.724 109.055L155.685 139.055Z" fill="#8BC5E4"/>
<path fill-rule="evenodd" clip-rule="evenodd" d="M166.32 154.745L177.725 126.33L125.764 96.33L114.358 124.745L166.32 154.745Z" fill="#8BC5E4"/>
<path fill-rule="evenodd" clip-rule="evenodd" d="M177.726 126.33L125.765 96.33L177.726 126.33Z" fill="#8BC5E4"/>
<path fill-rule="evenodd" clip-rule="evenodd" d="M96.5883 279.775L92.0417 274.32L40.0801 244.32L44.6268 249.775L96.5883 279.775Z" fill="#8BC5E4"/>
<path fill-rule="evenodd" clip-rule="evenodd" d="M92.0417 274.32L119.529 237.39L67.5678 207.39L40.0801 244.32L92.0417 274.32Z" fill="#8BC5E4"/>
<path fill-rule="evenodd" clip-rule="evenodd" d="M119.529 237.39L116.524 233.795L64.5625 203.795L67.5676 207.39L119.529 237.39Z" fill="#8BC5E4"/>
<path fill-rule="evenodd" clip-rule="evenodd" d="M116.524 233.795L89.0445 270.73L37.083 240.73L64.562 203.795L116.524 233.795Z" fill="#8BC5E4"/>
<path fill-rule="evenodd" clip-rule="evenodd" d="M89.0443 270.73L84.4977 265.265L32.5361 235.265L37.0828 240.73L89.0443 270.73Z" fill="#8BC5E4"/>
<path fill-rule="evenodd" clip-rule="evenodd" d="M84.4984 265.265L74.695 293.275L22.7334 263.275L32.5368 235.265L84.4984 265.265Z" fill="#8BC5E4"/>
<path fill-rule="evenodd" clip-rule="evenodd" d="M74.695 293.275L96.5881 279.775L44.6266 249.775L22.7334 263.275L74.695 293.275Z" fill="#8BC5E4"/>
<path fill-rule="evenodd" clip-rule="evenodd" d="M96.5875 279.775L44.626 249.775L96.5875 279.775Z" fill="#8BC5E4"/>
<path fill-rule="evenodd" clip-rule="evenodd" d="M96.5883 176.425L92.0417 187.13L40.0801 157.13L44.6268 146.425L96.5883 176.425Z" fill="#8BC5E4"/>
<path fill-rule="evenodd" clip-rule="evenodd" d="M92.0417 187.13L119.529 192.32L67.5678 162.32L40.0801 157.13L92.0417 187.13Z" fill="#8BC5E4"/>
<path fill-rule="evenodd" clip-rule="evenodd" d="M119.529 192.32L116.524 199.385L64.5625 169.385L67.5676 162.32L119.529 192.32Z" fill="#8BC5E4"/>
<path fill-rule="evenodd" clip-rule="evenodd" d="M116.524 199.385L89.0445 194.18L37.083 164.18L64.562 169.385L116.524 199.385Z" fill="#8BC5E4"/>
<path fill-rule="evenodd" clip-rule="evenodd" d="M89.0443 194.18L84.4977 204.895L32.5361 174.895L37.0828 164.18L89.0443 194.18Z" fill="#8BC5E4"/>
<path fill-rule="evenodd" clip-rule="evenodd" d="M84.4984 204.895L74.695 188.215L22.7334 158.215L32.5368 174.895L84.4984 204.895Z" fill="#8BC5E4"/>
<path fill-rule="evenodd" clip-rule="evenodd" d="M74.695 188.215L96.5881 176.425L44.6266 146.425L22.7334 158.215L74.695 188.215Z" fill="#8BC5E4"/>
<path fill-rule="evenodd" clip-rule="evenodd" d="M96.5875 176.425L44.626 146.425L96.5875 176.425Z" fill="#8BC5E4"/>
<path fill-rule="evenodd" clip-rule="evenodd" d="M83.234 222.945V232.625L31.2725 202.625V192.945L83.234 222.945Z" fill="#8BC5E4"/>
<path fill-rule="evenodd" clip-rule="evenodd" d="M83.234 232.625L116.117 213.64L64.1554 183.64L31.2725 202.625L83.234 232.625Z" fill="#8BC5E4"/>
<path fill-rule="evenodd" clip-rule="evenodd" d="M116.117 213.64V220.01L64.1553 190.01V183.64L116.117 213.64Z" fill="#8BC5E4"/>
<path fill-rule="evenodd" clip-rule="evenodd" d="M116.117 220.01L83.234 238.995L31.2725 208.995L64.1554 190.01L116.117 220.01Z" fill="#8BC5E4"/>
<path fill-rule="evenodd" clip-rule="evenodd" d="M83.234 238.995V248.665L31.2725 218.665V208.995L83.234 238.995Z" fill="#8BC5E4"/>
<path fill-rule="evenodd" clip-rule="evenodd" d="M83.2341 248.665L64.5279 247.065L12.5664 217.065L31.2726 218.665L83.2341 248.665Z" fill="#8BC5E4"/>
<path fill-rule="evenodd" clip-rule="evenodd" d="M64.5279 247.065L83.2341 222.945L31.2726 192.945L12.5664 217.065L64.5279 247.065Z" fill="#8BC5E4"/>
<path fill-rule="evenodd" clip-rule="evenodd" d="M83.234 222.945L31.2725 192.945L83.234 222.945Z" fill="#8BC5E4"/>
<path fill-rule="evenodd" clip-rule="evenodd" d="M229.67 202.94L234.216 192.235L182.255 162.235L177.708 172.94L229.67 202.94Z" fill="#8BC5E4"/>
<path fill-rule="evenodd" clip-rule="evenodd" d="M234.217 192.235L206.729 187.045L154.768 157.045L182.255 162.235L234.217 192.235Z" fill="#8BC5E4"/>
<path fill-rule="evenodd" clip-rule="evenodd" d="M206.729 187.045L209.734 179.98L157.773 149.98L154.768 157.045L206.729 187.045Z" fill="#8BC5E4"/>
<path fill-rule="evenodd" clip-rule="evenodd" d="M209.734 179.98L237.222 185.18L185.26 155.18L157.772 149.98L209.734 179.98Z" fill="#8BC5E4"/>
<path fill-rule="evenodd" clip-rule="evenodd" d="M237.221 185.18L241.768 174.465L189.806 144.465L185.26 155.18L237.221 185.18Z" fill="#8BC5E4"/>
<path fill-rule="evenodd" clip-rule="evenodd" d="M241.768 174.465L251.572 191.155L199.61 161.155L189.807 144.465L241.768 174.465Z" fill="#8BC5E4"/>
<path fill-rule="evenodd" clip-rule="evenodd" d="M251.571 191.155L229.67 202.94L177.708 172.94L199.61 161.155L251.571 191.155Z" fill="#8BC5E4"/>
<path fill-rule="evenodd" clip-rule="evenodd" d="M229.67 202.94L177.708 172.94L229.67 202.94Z" fill="#8BC5E4"/>
<path fill-rule="evenodd" clip-rule="evenodd" d="M229.67 99.59L234.216 105.045L182.255 75.045L177.708 69.59L229.67 99.59Z" fill="#8BC5E4"/>
<path fill-rule="evenodd" clip-rule="evenodd" d="M234.217 105.045L206.729 141.975L154.768 111.975L182.255 75.045L234.217 105.045Z" fill="#8BC5E4"/>
<path fill-rule="evenodd" clip-rule="evenodd" d="M206.729 141.975L209.734 145.57L157.773 115.57L154.768 111.975L206.729 141.975Z" fill="#8BC5E4"/>
<path fill-rule="evenodd" clip-rule="evenodd" d="M209.734 145.57L237.222 108.63L185.26 78.6299L157.772 115.57L209.734 145.57Z" fill="#8BC5E4"/>
<path fill-rule="evenodd" clip-rule="evenodd" d="M237.221 108.63L241.768 114.095L189.806 84.0949L185.26 78.6299L237.221 108.63Z" fill="#8BC5E4"/>
<path fill-rule="evenodd" clip-rule="evenodd" d="M241.768 114.095L251.572 86.095L199.61 56.095L189.807 84.095L241.768 114.095Z" fill="#8BC5E4"/>
<path fill-rule="evenodd" clip-rule="evenodd" d="M251.571 86.095L229.67 99.59L177.708 69.59L199.61 56.095L251.571 86.095Z" fill="#8BC5E4"/>
<path fill-rule="evenodd" clip-rule="evenodd" d="M229.67 99.59L177.708 69.59L229.67 99.59Z" fill="#8BC5E4"/>
<path fill-rule="evenodd" clip-rule="evenodd" d="M243.024 130.69V140.37L191.062 110.37V100.69L243.024 130.69Z" fill="#8BC5E4"/>
<path fill-rule="evenodd" clip-rule="evenodd" d="M243.024 140.37L210.141 159.355L158.18 129.355L191.063 110.37L243.024 140.37Z" fill="#8BC5E4"/>
<path fill-rule="evenodd" clip-rule="evenodd" d="M210.141 159.355V165.725L158.18 135.725V129.355L210.141 159.355Z" fill="#8BC5E4"/>
<path fill-rule="evenodd" clip-rule="evenodd" d="M210.141 165.725L243.024 146.74L191.063 116.74L158.18 135.725L210.141 165.725Z" fill="#8BC5E4"/>
<path fill-rule="evenodd" clip-rule="evenodd" d="M243.024 146.74V156.41L191.062 126.41V116.74L243.024 146.74Z" fill="#8BC5E4"/>
<path fill-rule="evenodd" clip-rule="evenodd" d="M243.024 156.41L261.73 133.21L209.769 103.21L191.062 126.41L243.024 156.41Z" fill="#8BC5E4"/>
<path fill-rule="evenodd" clip-rule="evenodd" d="M261.73 133.21L243.024 130.69L191.062 100.69L209.769 103.21L261.73 133.21Z" fill="#8BC5E4"/>
<path fill-rule="evenodd" clip-rule="evenodd" d="M243.024 130.69L191.062 100.69L243.024 130.69Z" fill="#8BC5E4"/>
<path fill-rule="evenodd" clip-rule="evenodd" d="M139.041 182.895V195.035L87.0791 165.035V152.895L139.041 182.895Z" fill="#8BC5E4"/>
<path fill-rule="evenodd" clip-rule="evenodd" d="M139.04 195.035L134.667 197.56L82.7051 167.56L87.0785 165.035L139.04 195.035Z" fill="#8BC5E4"/>
<path fill-rule="evenodd" clip-rule="evenodd" d="M134.667 197.56L123.937 194.655L71.9756 164.655L82.7057 167.56L134.667 197.56Z" fill="#8BC5E4"/>
<path fill-rule="evenodd" clip-rule="evenodd" d="M123.937 194.655L124.006 229.925L72.0449 199.925L71.9756 164.655L123.937 194.655Z" fill="#8BC5E4"/>
<path fill-rule="evenodd" clip-rule="evenodd" d="M124.007 229.925L134.849 216.265L82.8876 186.265L72.0449 199.925L124.007 229.925Z" fill="#8BC5E4"/>
<path fill-rule="evenodd" clip-rule="evenodd" d="M134.849 216.265L139.041 213.845L87.0792 183.845L82.8877 186.265L134.849 216.265Z" fill="#8BC5E4"/>
<path fill-rule="evenodd" clip-rule="evenodd" d="M139.041 213.845V224.285L87.0791 194.285V183.845L139.041 213.845Z" fill="#8BC5E4"/>
<path fill-rule="evenodd" clip-rule="evenodd" d="M147.112 229.045L194.146 201.89L142.184 171.89L95.1504 199.045L147.112 229.045Z" fill="#8BC5E4"/>
<path fill-rule="evenodd" clip-rule="evenodd" d="M202.217 187.81V146.42L150.256 116.42V157.81L202.217 187.81Z" fill="#8BC5E4"/>
<path fill-rule="evenodd" clip-rule="evenodd" d="M194.146 141.66L147.112 168.815L95.1504 138.815L142.184 111.66L194.146 141.66Z" fill="#8BC5E4"/>
<path fill-rule="evenodd" clip-rule="evenodd" d="M147.112 168.815L95.1504 138.815L147.112 168.815Z" fill="#8BC5E4"/>
<path fill-rule="evenodd" clip-rule="evenodd" d="M147.112 176.115L194.146 148.96L142.184 118.96L95.1504 146.115L147.112 176.115Z" fill="#8BC5E4"/>
<path fill-rule="evenodd" clip-rule="evenodd" d="M195.964 150.03V191.42L144.003 161.42V120.03L195.964 150.03Z" fill="#8BC5E4"/>
<path fill-rule="evenodd" clip-rule="evenodd" d="M194.146 194.59L147.112 221.745L95.1504 191.745L142.184 164.59L194.146 194.59Z" fill="#8BC5E4"/>
<path fill-rule="evenodd" clip-rule="evenodd" d="M145.293 220.675V179.285L93.3311 149.285V190.675L145.293 220.675Z" fill="#8BC5E4"/>
<path fill-rule="evenodd" clip-rule="evenodd" d="M147.112 176.115L95.1504 146.115L147.112 176.115Z" fill="#8BC5E4"/>
<path fill-rule="evenodd" clip-rule="evenodd" d="M51.9615 165.58V341.14L0 311.14V135.58L51.9615 165.58Z" fill="#8BC5E4"/>
<path fill-rule="evenodd" clip-rule="evenodd" d="M62.4312 347.315L263.193 231.405L211.232 201.405L10.4697 317.315L62.4312 347.315Z" fill="#8BC5E4"/>
<path fill-rule="evenodd" clip-rule="evenodd" d="M273.664 213.14V37.58L221.702 7.57996V183.14L273.664 213.14Z" fill="#8BC5E4"/>
<path fill-rule="evenodd" clip-rule="evenodd" d="M263.193 31.405L62.4312 147.315L10.4697 117.315L211.232 1.40497L263.193 31.405Z" fill="#8BC5E4"/>
<path fill-rule="evenodd" clip-rule="evenodd" d="M62.4312 147.315L10.4697 117.315L62.4312 147.315Z" fill="#8BC5E4"/>
<path fill-rule="evenodd" clip-rule="evenodd" d="M62.4312 152.825L263.193 36.915L211.232 6.91498L10.4697 122.825L62.4312 152.825Z" fill="#8BC5E4"/>
<path fill-rule="evenodd" clip-rule="evenodd" d="M268.926 40.3149V215.875L216.965 185.875V10.3149L268.926 40.3149Z" fill="#8BC5E4"/>
<path fill-rule="evenodd" clip-rule="evenodd" d="M263.193 225.895L62.4312 341.805L10.4697 311.805L211.232 195.895L263.193 225.895Z" fill="#8BC5E4"/>
<path fill-rule="evenodd" clip-rule="evenodd" d="M56.69 338.41V162.85L4.72852 132.85V308.41L56.69 338.41Z" fill="#8BC5E4"/>
<path fill-rule="evenodd" clip-rule="evenodd" d="M62.4312 152.825L10.4697 122.825L62.4312 152.825Z" fill="#8BC5E4"/>
<path fill-rule="evenodd" clip-rule="evenodd" d="M62.4312 152.825L263.193 36.915L211.232 6.91498L10.4697 122.825L62.4312 152.825Z" fill="#8BC5E4"/>
<path fill-rule="evenodd" clip-rule="evenodd" d="M268.926 40.3149V215.875L216.965 185.875V10.3149L268.926 40.3149Z" fill="#8BC5E4"/>
<path fill-rule="evenodd" clip-rule="evenodd" d="M263.193 225.895L62.4312 341.805L10.4697 311.805L211.232 195.895L263.193 225.895Z" fill="#8BC5E4"/>
<path fill-rule="evenodd" clip-rule="evenodd" d="M56.69 338.41V162.85L4.72852 132.85V308.41L56.69 338.41Z" fill="#8BC5E4"/>
<path fill-rule="evenodd" clip-rule="evenodd" d="M62.4312 152.825L10.4697 122.825L62.4312 152.825Z" fill="#8BC5E4"/>
<path fill-rule="evenodd" clip-rule="evenodd" d="M169.447 240.95L177.726 236.17L125.765 206.17L117.485 210.95L169.447 240.95Z" fill="#8BC5E4"/>
<path fill-rule="evenodd" clip-rule="evenodd" d="M177.725 236.17L166.32 220.935L114.358 190.935L125.764 206.17L177.725 236.17Z" fill="#8BC5E4"/>
<path fill-rule="evenodd" clip-rule="evenodd" d="M166.32 220.935L155.685 248.895L103.724 218.895L114.358 190.935L166.32 220.935Z" fill="#8BC5E4"/>
<path fill-rule="evenodd" clip-rule="evenodd" d="M155.685 248.895L163.982 244.105L112.02 214.105L103.724 218.895L155.685 248.895Z" fill="#8BC5E4"/>
<path fill-rule="evenodd" clip-rule="evenodd" d="M163.982 244.105V271.465L112.021 241.465V214.105L163.982 244.105Z" fill="#8BC5E4"/>
<path fill-rule="evenodd" clip-rule="evenodd" d="M163.982 271.465L169.447 268.31L117.485 238.31L112.021 241.465L163.982 271.465Z" fill="#8BC5E4"/>
<path fill-rule="evenodd" clip-rule="evenodd" d="M169.447 268.31V240.95L117.485 210.95V238.31L169.447 268.31Z" fill="#8BC5E4"/>
<path fill-rule="evenodd" clip-rule="evenodd" d="M169.447 240.95L117.485 210.95L169.447 240.95Z" fill="#8BC5E4"/>
<path fill-rule="evenodd" clip-rule="evenodd" d="M169.447 131.11L177.726 126.33L125.765 96.33L117.485 101.11L169.447 131.11Z" fill="#8BC5E4"/>
<path fill-rule="evenodd" clip-rule="evenodd" d="M177.725 126.33L166.32 154.745L114.358 124.745L125.764 96.33L177.725 126.33Z" fill="#8BC5E4"/>
<path fill-rule="evenodd" clip-rule="evenodd" d="M166.32 154.745L155.685 139.055L103.724 109.055L114.358 124.745L166.32 154.745Z" fill="#8BC5E4"/>
<path fill-rule="evenodd" clip-rule="evenodd" d="M155.685 139.055L163.982 134.265L112.02 104.265L103.724 109.055L155.685 139.055Z" fill="#8BC5E4"/>
<path fill-rule="evenodd" clip-rule="evenodd" d="M163.982 134.265V106.905L112.021 76.905V104.265L163.982 134.265Z" fill="#8BC5E4"/>
<path fill-rule="evenodd" clip-rule="evenodd" d="M163.982 106.905L169.447 103.75L117.485 73.75L112.021 76.905L163.982 106.905Z" fill="#8BC5E4"/>
<path fill-rule="evenodd" clip-rule="evenodd" d="M169.447 103.75V131.11L117.485 101.11V73.75L169.447 103.75Z" fill="#8BC5E4"/>
<path fill-rule="evenodd" clip-rule="evenodd" d="M169.447 131.11L117.485 101.11L169.447 131.11Z" fill="#8BC5E4"/>
<path fill-rule="evenodd" clip-rule="evenodd" d="M92.0417 274.32L96.5883 279.775L44.6268 249.775L40.0801 244.32L92.0417 274.32Z" fill="#8BC5E4"/>
<path fill-rule="evenodd" clip-rule="evenodd" d="M96.5881 279.775L74.695 293.275L22.7334 263.275L44.6266 249.775L96.5881 279.775Z" fill="#8BC5E4"/>
<path fill-rule="evenodd" clip-rule="evenodd" d="M74.695 293.275L84.4984 265.265L32.5368 235.265L22.7334 263.275L74.695 293.275Z" fill="#8BC5E4"/>
<path fill-rule="evenodd" clip-rule="evenodd" d="M84.4977 265.265L89.0443 270.73L37.0828 240.73L32.5361 235.265L84.4977 265.265Z" fill="#8BC5E4"/>
<path fill-rule="evenodd" clip-rule="evenodd" d="M89.0445 270.73L116.524 233.795L64.562 203.795L37.083 240.73L89.0445 270.73Z" fill="#8BC5E4"/>
<path fill-rule="evenodd" clip-rule="evenodd" d="M116.524 233.795L119.529 237.39L67.5676 207.39L64.5625 203.795L116.524 233.795Z" fill="#8BC5E4"/>
<path fill-rule="evenodd" clip-rule="evenodd" d="M119.529 237.39L92.0417 274.32L40.0801 244.32L67.5678 207.39L119.529 237.39Z" fill="#8BC5E4"/>
<path fill-rule="evenodd" clip-rule="evenodd" d="M92.0417 274.32L40.0801 244.32L92.0417 274.32Z" fill="#8BC5E4"/>
<path fill-rule="evenodd" clip-rule="evenodd" d="M92.0417 187.13L96.5883 176.425L44.6268 146.425L40.0801 157.13L92.0417 187.13Z" fill="#8BC5E4"/>
<path fill-rule="evenodd" clip-rule="evenodd" d="M96.5881 176.425L74.695 188.215L22.7334 158.215L44.6266 146.425L96.5881 176.425Z" fill="#8BC5E4"/>
<path fill-rule="evenodd" clip-rule="evenodd" d="M74.695 188.215L84.4984 204.895L32.5368 174.895L22.7334 158.215L74.695 188.215Z" fill="#8BC5E4"/>
<path fill-rule="evenodd" clip-rule="evenodd" d="M84.4977 204.895L89.0443 194.18L37.0828 164.18L32.5361 174.895L84.4977 204.895Z" fill="#8BC5E4"/>
<path fill-rule="evenodd" clip-rule="evenodd" d="M89.0445 194.18L116.524 199.385L64.562 169.385L37.083 164.18L89.0445 194.18Z" fill="#8BC5E4"/>
<path fill-rule="evenodd" clip-rule="evenodd" d="M116.524 199.385L119.529 192.32L67.5676 162.32L64.5625 169.385L116.524 199.385Z" fill="#8BC5E4"/>
<path fill-rule="evenodd" clip-rule="evenodd" d="M119.529 192.32L92.0417 187.13L40.0801 157.13L67.5678 162.32L119.529 192.32Z" fill="#8BC5E4"/>
<path fill-rule="evenodd" clip-rule="evenodd" d="M92.0417 187.13L40.0801 157.13L92.0417 187.13Z" fill="#8BC5E4"/>
<path fill-rule="evenodd" clip-rule="evenodd" d="M83.234 232.625V222.945L31.2725 192.945V202.625L83.234 232.625Z" fill="#8BC5E4"/>
<path fill-rule="evenodd" clip-rule="evenodd" d="M83.2341 222.945L64.5279 247.065L12.5664 217.065L31.2726 192.945L83.2341 222.945Z" fill="#8BC5E4"/>
<path fill-rule="evenodd" clip-rule="evenodd" d="M64.5279 247.065L83.2341 248.665L31.2726 218.665L12.5664 217.065L64.5279 247.065Z" fill="#8BC5E4"/>
<path fill-rule="evenodd" clip-rule="evenodd" d="M83.234 248.665V238.995L31.2725 208.995V218.665L83.234 248.665Z" fill="#8BC5E4"/>
<path fill-rule="evenodd" clip-rule="evenodd" d="M83.234 238.995L116.117 220.01L64.1554 190.01L31.2725 208.995L83.234 238.995Z" fill="#8BC5E4"/>
<path fill-rule="evenodd" clip-rule="evenodd" d="M116.117 220.01V213.64L64.1553 183.64V190.01L116.117 220.01Z" fill="#8BC5E4"/>
<path fill-rule="evenodd" clip-rule="evenodd" d="M116.117 213.64L83.234 232.625L31.2725 202.625L64.1554 183.64L116.117 213.64Z" fill="#8BC5E4"/>
<path fill-rule="evenodd" clip-rule="evenodd" d="M83.234 232.625L31.2725 202.625L83.234 232.625Z" fill="#8BC5E4"/>
<path fill-rule="evenodd" clip-rule="evenodd" d="M234.216 192.235L229.67 202.94L177.708 172.94L182.255 162.235L234.216 192.235Z" fill="#8BC5E4"/>
<path fill-rule="evenodd" clip-rule="evenodd" d="M229.67 202.94L251.571 191.155L199.61 161.155L177.708 172.94L229.67 202.94Z" fill="#8BC5E4"/>
<path fill-rule="evenodd" clip-rule="evenodd" d="M251.572 191.155L241.768 174.465L189.807 144.465L199.61 161.155L251.572 191.155Z" fill="#8BC5E4"/>
<path fill-rule="evenodd" clip-rule="evenodd" d="M241.768 174.465L237.221 185.18L185.26 155.18L189.806 144.465L241.768 174.465Z" fill="#8BC5E4"/>
<path fill-rule="evenodd" clip-rule="evenodd" d="M237.222 185.18L209.734 179.98L157.772 149.98L185.26 155.18L237.222 185.18Z" fill="#8BC5E4"/>
<path fill-rule="evenodd" clip-rule="evenodd" d="M209.734 179.98L206.729 187.045L154.768 157.045L157.773 149.98L209.734 179.98Z" fill="#8BC5E4"/>
<path fill-rule="evenodd" clip-rule="evenodd" d="M206.729 187.045L234.217 192.235L182.255 162.235L154.768 157.045L206.729 187.045Z" fill="#8BC5E4"/>
<path fill-rule="evenodd" clip-rule="evenodd" d="M234.216 192.235L182.255 162.235L234.216 192.235Z" fill="#8BC5E4"/>
<path fill-rule="evenodd" clip-rule="evenodd" d="M234.216 105.045L229.67 99.59L177.708 69.59L182.255 75.045L234.216 105.045Z" fill="#8BC5E4"/>
<path fill-rule="evenodd" clip-rule="evenodd" d="M229.67 99.59L251.571 86.095L199.61 56.095L177.708 69.59L229.67 99.59Z" fill="#8BC5E4"/>
<path fill-rule="evenodd" clip-rule="evenodd" d="M251.572 86.095L241.768 114.095L189.807 84.095L199.61 56.095L251.572 86.095Z" fill="#8BC5E4"/>
<path fill-rule="evenodd" clip-rule="evenodd" d="M241.768 114.095L237.221 108.63L185.26 78.6299L189.806 84.0949L241.768 114.095Z" fill="#8BC5E4"/>
<path fill-rule="evenodd" clip-rule="evenodd" d="M237.222 108.63L209.734 145.57L157.772 115.57L185.26 78.6299L237.222 108.63Z" fill="#8BC5E4"/>
<path fill-rule="evenodd" clip-rule="evenodd" d="M209.734 145.57L206.729 141.975L154.768 111.975L157.773 115.57L209.734 145.57Z" fill="#8BC5E4"/>
<path fill-rule="evenodd" clip-rule="evenodd" d="M206.729 141.975L234.217 105.045L182.255 75.045L154.768 111.975L206.729 141.975Z" fill="#8BC5E4"/>
<path fill-rule="evenodd" clip-rule="evenodd" d="M234.216 105.045L182.255 75.045L234.216 105.045Z" fill="#8BC5E4"/>
<path fill-rule="evenodd" clip-rule="evenodd" d="M243.024 140.37V130.69L191.062 100.69V110.37L243.024 140.37Z" fill="#8BC5E4"/>
<path fill-rule="evenodd" clip-rule="evenodd" d="M243.024 130.69L261.73 133.21L209.769 103.21L191.062 100.69L243.024 130.69Z" fill="#8BC5E4"/>
<path fill-rule="evenodd" clip-rule="evenodd" d="M261.73 133.21L243.024 156.41L191.062 126.41L209.769 103.21L261.73 133.21Z" fill="#8BC5E4"/>
<path fill-rule="evenodd" clip-rule="evenodd" d="M243.024 156.41V146.74L191.062 116.74V126.41L243.024 156.41Z" fill="#8BC5E4"/>
<path fill-rule="evenodd" clip-rule="evenodd" d="M243.024 146.74L210.141 165.725L158.18 135.725L191.063 116.74L243.024 146.74Z" fill="#8BC5E4"/>
<path fill-rule="evenodd" clip-rule="evenodd" d="M210.141 165.725V159.355L158.18 129.355V135.725L210.141 165.725Z" fill="#8BC5E4"/>
<path fill-rule="evenodd" clip-rule="evenodd" d="M210.141 159.355L243.024 140.37L191.063 110.37L158.18 129.355L210.141 159.355Z" fill="#8BC5E4"/>
<path fill-rule="evenodd" clip-rule="evenodd" d="M243.024 140.37L191.062 110.37L243.024 140.37Z" fill="#8BC5E4"/>
<path fill-rule="evenodd" clip-rule="evenodd" d="M147.112 168.815L194.146 141.66L142.184 111.66L95.1504 138.815L147.112 168.815Z" fill="#8BC5E4"/>
<path fill-rule="evenodd" clip-rule="evenodd" d="M202.217 146.42V187.81L150.256 157.81V116.42L202.217 146.42Z" fill="#8BC5E4"/>
<path fill-rule="evenodd" clip-rule="evenodd" d="M194.146 201.89L147.112 229.045L95.1504 199.045L142.184 171.89L194.146 201.89Z" fill="#8BC5E4"/>
<path fill-rule="evenodd" clip-rule="evenodd" d="M139.041 224.285V213.845L87.0791 183.845V194.285L139.041 224.285Z" fill="#8BC5E4"/>
<path fill-rule="evenodd" clip-rule="evenodd" d="M139.041 213.845L134.849 216.265L82.8877 186.265L87.0792 183.845L139.041 213.845Z" fill="#8BC5E4"/>
<path fill-rule="evenodd" clip-rule="evenodd" d="M134.849 216.265L124.007 229.925L72.0449 199.925L82.8876 186.265L134.849 216.265Z" fill="#8BC5E4"/>
<path fill-rule="evenodd" clip-rule="evenodd" d="M124.006 229.925L123.937 194.655L71.9756 164.655L72.0449 199.925L124.006 229.925Z" fill="#8BC5E4"/>
<path fill-rule="evenodd" clip-rule="evenodd" d="M123.937 194.655L134.667 197.56L82.7057 167.56L71.9756 164.655L123.937 194.655Z" fill="#8BC5E4"/>
<path fill-rule="evenodd" clip-rule="evenodd" d="M134.667 197.56L139.04 195.035L87.0785 165.035L82.7051 167.56L134.667 197.56Z" fill="#8BC5E4"/>
<path fill-rule="evenodd" clip-rule="evenodd" d="M139.041 195.035V182.895L87.0791 152.895V165.035L139.041 195.035Z" fill="#8BC5E4"/>
<path fill-rule="evenodd" clip-rule="evenodd" d="M139.041 182.895L87.0791 152.895L139.041 182.895Z" fill="#8BC5E4"/>
<path fill-rule="evenodd" clip-rule="evenodd" d="M147.112 176.115L194.146 148.96L142.184 118.96L95.1504 146.115L147.112 176.115Z" fill="#8BC5E4"/>
<path fill-rule="evenodd" clip-rule="evenodd" d="M195.964 150.03V191.42L144.003 161.42V120.03L195.964 150.03Z" fill="#8BC5E4"/>
<path fill-rule="evenodd" clip-rule="evenodd" d="M194.146 194.59L147.112 221.745L95.1504 191.745L142.184 164.59L194.146 194.59Z" fill="#8BC5E4"/>
<path fill-rule="evenodd" clip-rule="evenodd" d="M145.293 220.675V179.285L93.3311 149.285V190.675L145.293 220.675Z" fill="#8BC5E4"/>
<path fill-rule="evenodd" clip-rule="evenodd" d="M147.112 176.115L95.1504 146.115L147.112 176.115Z" fill="#8BC5E4"/>
<path fill-rule="evenodd" clip-rule="evenodd" d="M147.112 168.815C142.695 171.365 139.041 177.745 139.041 182.895L87.0791 152.895C87.0791 147.745 90.7338 141.365 95.1505 138.815L147.112 168.815Z" fill="#8BC5E4"/>
<path fill-rule="evenodd" clip-rule="evenodd" d="M139.041 224.285C139.041 226.971 140.035 228.843 141.612 229.659L89.6503 199.659C88.0733 198.843 87.0793 196.971 87.0791 194.285L139.041 224.285Z" fill="#8BC5E4"/>
<path fill-rule="evenodd" clip-rule="evenodd" d="M141.61 229.657C143.056 230.406 144.994 230.266 147.106 229.049L95.1444 199.049C93.0324 200.266 91.0944 200.406 89.6484 199.657L141.61 229.657Z" fill="#8BC5E4"/>
<path fill-rule="evenodd" clip-rule="evenodd" d="M194.145 201.89C198.562 199.34 202.216 192.96 202.216 187.81L150.255 157.81C150.255 162.96 146.6 169.34 142.184 171.89L194.145 201.89Z" fill="#8BC5E4"/>
<path fill-rule="evenodd" clip-rule="evenodd" d="M202.216 146.42C202.216 143.734 201.223 141.862 199.645 141.046L147.684 111.046C149.262 111.862 150.255 113.734 150.255 116.42L202.216 146.42Z" fill="#8BC5E4"/>
<path fill-rule="evenodd" clip-rule="evenodd" d="M199.648 141.048C198.202 140.299 196.265 140.439 194.153 141.656L142.191 111.656C144.303 110.439 146.24 110.299 147.686 111.048L199.648 141.048Z" fill="#8BC5E4"/>
<path fill-rule="evenodd" clip-rule="evenodd" d="M194.145 148.96C194.653 148.667 195.09 148.617 195.408 148.778L143.447 118.778C143.129 118.617 142.692 118.667 142.184 118.96L194.145 148.96Z" fill="#8BC5E4"/>
<path fill-rule="evenodd" clip-rule="evenodd" d="M195.407 148.777C195.756 148.952 195.963 149.382 195.965 150.023L144.003 120.023C144.001 119.382 143.794 118.952 143.445 118.777L195.407 148.777Z" fill="#8BC5E4"/>
<path fill-rule="evenodd" clip-rule="evenodd" d="M195.964 191.42C195.964 192.65 195.21 193.975 194.145 194.59L142.184 164.59C143.249 163.975 144.002 162.65 144.002 161.42L195.964 191.42Z" fill="#8BC5E4"/>
<path fill-rule="evenodd" clip-rule="evenodd" d="M147.111 221.745C146.604 222.038 146.167 222.088 145.849 221.927L93.8877 191.927C94.2057 192.088 94.6427 192.038 95.1499 191.745L147.111 221.745Z" fill="#8BC5E4"/>
<path fill-rule="evenodd" clip-rule="evenodd" d="M145.851 221.928C145.502 221.753 145.295 221.323 145.294 220.682L93.332 190.682C93.333 191.323 93.54 191.753 93.889 191.928L145.851 221.928Z" fill="#8BC5E4"/>
<path fill-rule="evenodd" clip-rule="evenodd" d="M145.293 179.285C145.293 178.055 146.046 176.73 147.111 176.115L95.1498 146.115C94.0846 146.73 93.3311 148.055 93.3311 149.285L145.293 179.285Z" fill="#8BC5E4"/>
<path fill-rule="evenodd" clip-rule="evenodd" d="M62.4317 147.315C56.6727 150.64 51.9615 158.85 51.9615 165.58L0 135.58C0 128.85 4.7112 120.64 10.4702 117.315L62.4317 147.315Z" fill="#8BC5E4"/>
<path fill-rule="evenodd" clip-rule="evenodd" d="M51.9615 341.14C51.9615 344.643 53.2375 347.073 55.2745 348.129L3.313 318.129C1.276 317.073 0 314.643 0 311.14L51.9615 341.14Z" fill="#8BC5E4"/>
<path fill-rule="evenodd" clip-rule="evenodd" d="M55.2828 348.134C57.1558 349.101 59.6698 348.907 62.4238 347.32L10.4623 317.32C7.70829 318.907 5.19429 319.101 3.32129 318.134L55.2828 348.134Z" fill="#8BC5E4"/>
<path fill-rule="evenodd" clip-rule="evenodd" d="M263.194 231.405C268.944 228.085 273.664 219.87 273.664 213.14L221.703 183.14C221.703 189.87 216.983 198.085 211.232 201.405L263.194 231.405Z" fill="#8BC5E4"/>
<path fill-rule="evenodd" clip-rule="evenodd" d="M273.664 37.58C273.664 34.077 272.385 31.648 270.348 30.593L218.387 0.592957C220.424 1.64796 221.703 4.07696 221.702 7.57996L273.664 37.58Z" fill="#8BC5E4"/>
<path fill-rule="evenodd" clip-rule="evenodd" d="M270.34 30.588C268.466 29.622 265.953 29.815 263.203 31.4L211.241 1.39997C213.991 -0.185031 216.504 -0.378031 218.378 0.587969L270.34 30.588Z" fill="#8BC5E4"/>
<path fill-rule="evenodd" clip-rule="evenodd" d="M263.194 36.915C264.738 36.024 266.122 35.903 267.143 36.437L215.181 6.43697C214.16 5.90297 212.776 6.02397 211.232 6.91497L263.194 36.915Z" fill="#8BC5E4"/>
<path fill-rule="evenodd" clip-rule="evenodd" d="M267.141 36.437C268.245 37.013 268.925 38.353 268.926 40.309L216.965 10.309C216.964 8.35295 216.284 7.01295 215.18 6.43695L267.141 36.437Z" fill="#8BC5E4"/>
<path fill-rule="evenodd" clip-rule="evenodd" d="M268.927 215.875C268.927 219.645 266.407 224.04 263.194 225.895L211.232 195.895C214.445 194.04 216.966 189.645 216.966 185.875L268.927 215.875Z" fill="#8BC5E4"/>
<path fill-rule="evenodd" clip-rule="evenodd" d="M62.4314 341.805C60.8832 342.699 59.4972 342.82 58.4752 342.287L6.51367 312.287C7.53567 312.82 8.92167 312.699 10.4699 311.805L62.4314 341.805Z" fill="#8BC5E4"/>
<path fill-rule="evenodd" clip-rule="evenodd" d="M58.477 342.288C57.371 341.712 56.691 340.372 56.69 338.416L4.72852 308.416C4.72952 310.372 5.40952 311.712 6.51552 312.288L58.477 342.288Z" fill="#8BC5E4"/>
<path fill-rule="evenodd" clip-rule="evenodd" d="M56.69 162.85C56.69 159.08 59.2101 154.685 62.4317 152.825L10.4702 122.825C7.24862 124.685 4.72852 129.08 4.72852 132.85L56.69 162.85Z" fill="#8BC5E4"/>
<path fill-rule="evenodd" clip-rule="evenodd" d="M263.194 36.915C264.738 36.024 266.122 35.903 267.143 36.437L215.181 6.43697C214.16 5.90297 212.776 6.02397 211.232 6.91497L263.194 36.915Z" fill="#8BC5E4"/>
<path fill-rule="evenodd" clip-rule="evenodd" d="M267.141 36.437C268.245 37.013 268.925 38.353 268.926 40.309L216.965 10.309C216.964 8.35295 216.284 7.01295 215.18 6.43695L267.141 36.437Z" fill="#8BC5E4"/>
<path fill-rule="evenodd" clip-rule="evenodd" d="M268.927 215.875C268.927 219.645 266.407 224.04 263.194 225.895L211.232 195.895C214.445 194.04 216.966 189.645 216.966 185.875L268.927 215.875Z" fill="#8BC5E4"/>
<path fill-rule="evenodd" clip-rule="evenodd" d="M62.4314 341.805C60.8832 342.699 59.4972 342.82 58.4752 342.287L6.51367 312.287C7.53567 312.82 8.92167 312.699 10.4699 311.805L62.4314 341.805Z" fill="#8BC5E4"/>
<path fill-rule="evenodd" clip-rule="evenodd" d="M58.477 342.288C57.371 341.712 56.691 340.372 56.69 338.416L4.72852 308.416C4.72952 310.372 5.40952 311.712 6.51552 312.288L58.477 342.288Z" fill="#8BC5E4"/>
<path fill-rule="evenodd" clip-rule="evenodd" d="M56.69 162.85C56.69 159.08 59.2101 154.685 62.4317 152.825L10.4702 122.825C7.24862 124.685 4.72852 129.08 4.72852 132.85L56.69 162.85Z" fill="#8BC5E4"/>
<path fill-rule="evenodd" clip-rule="evenodd" d="M139.041 182.895C139.041 177.745 142.695 171.365 147.112 168.815L95.1505 138.815C90.7338 141.365 87.0791 147.745 87.0791 152.895L139.041 182.895Z" fill="#8BC5E4"/>
<path fill-rule="evenodd" clip-rule="evenodd" d="M194.145 141.66C196.259 140.44 198.197 140.298 199.645 141.046L147.684 111.046C146.236 110.298 144.298 110.44 142.184 111.66L194.145 141.66Z" fill="#8BC5E4"/>
<path fill-rule="evenodd" clip-rule="evenodd" d="M199.643 141.045C201.22 141.859 202.214 143.729 202.216 146.412L150.255 116.412C150.253 113.729 149.259 111.859 147.682 111.045L199.643 141.045Z" fill="#8BC5E4"/>
<path fill-rule="evenodd" clip-rule="evenodd" d="M202.216 187.81C202.216 192.96 198.562 199.34 194.145 201.89L142.184 171.89C146.6 169.34 150.255 162.96 150.255 157.81L202.216 187.81Z" fill="#8BC5E4"/>
<path fill-rule="evenodd" clip-rule="evenodd" d="M147.112 229.045C144.999 230.265 143.06 230.407 141.612 229.659L89.6504 199.659C91.0984 200.407 93.0374 200.265 95.1506 199.045L147.112 229.045Z" fill="#8BC5E4"/>
<path fill-rule="evenodd" clip-rule="evenodd" d="M141.614 229.66C140.037 228.846 139.043 226.976 139.041 224.293L87.0791 194.293C87.0811 196.976 88.0751 198.846 89.6521 199.66L141.614 229.66Z" fill="#8BC5E4"/>
<path fill-rule="evenodd" clip-rule="evenodd" d="M194.145 148.96C194.653 148.667 195.09 148.617 195.408 148.778L143.447 118.778C143.129 118.617 142.692 118.667 142.184 118.96L194.145 148.96Z" fill="#8BC5E4"/>
<path fill-rule="evenodd" clip-rule="evenodd" d="M195.407 148.777C195.756 148.952 195.963 149.382 195.965 150.023L144.003 120.023C144.001 119.382 143.794 118.952 143.445 118.777L195.407 148.777Z" fill="#8BC5E4"/>
<path fill-rule="evenodd" clip-rule="evenodd" d="M195.964 191.42C195.964 192.65 195.21 193.975 194.145 194.59L142.184 164.59C143.249 163.975 144.002 162.65 144.002 161.42L195.964 191.42Z" fill="#8BC5E4"/>
<path fill-rule="evenodd" clip-rule="evenodd" d="M147.111 221.745C146.604 222.038 146.167 222.088 145.849 221.927L93.8877 191.927C94.2057 192.088 94.6427 192.038 95.1499 191.745L147.111 221.745Z" fill="#8BC5E4"/>
<path fill-rule="evenodd" clip-rule="evenodd" d="M145.851 221.928C145.502 221.753 145.295 221.323 145.294 220.682L93.332 190.682C93.333 191.323 93.54 191.753 93.889 191.928L145.851 221.928Z" fill="#8BC5E4"/>
<path fill-rule="evenodd" clip-rule="evenodd" d="M145.293 179.285C145.293 178.055 146.046 176.73 147.111 176.115L95.1498 146.115C94.0846 146.73 93.3311 148.055 93.3311 149.285L145.293 179.285Z" fill="#8BC5E4"/>
<path fill-rule="evenodd" clip-rule="evenodd" d="M177.726 126.33L169.447 131.11V103.75L163.982 106.905V134.265L155.686 139.055L166.321 154.745L177.726 126.33ZM62.4322 152.825L263.194 36.915C266.407 35.06 268.927 36.545 268.927 40.315V215.875C268.927 219.645 266.407 224.04 263.194 225.895L62.4322 341.805C59.2105 343.665 56.6904 342.18 56.6904 338.41V162.85C56.6904 159.08 59.2105 154.685 62.4322 152.825ZM229.67 99.59L234.217 105.045L206.729 141.975L209.734 145.57L237.222 108.63L241.769 114.095L251.572 86.095L229.67 99.59ZM243.024 140.37V130.69L261.731 133.21L243.024 156.41V146.74L210.141 165.725V159.355L243.024 140.37ZM229.67 202.94L234.217 192.235L206.729 187.045L209.734 179.98L237.222 185.18L241.769 174.465L251.572 191.155L229.67 202.94ZM139.041 182.895C139.041 177.745 142.695 171.365 147.112 168.815L194.146 141.66C198.563 139.11 202.217 141.27 202.217 146.42V187.81C202.217 192.96 198.563 199.34 194.146 201.89L147.112 229.045C142.695 231.595 139.041 229.435 139.041 224.285V213.845L134.849 216.265L124.007 229.925L123.937 194.655L134.667 197.56L139.041 195.035V182.895ZM147.112 176.115L194.146 148.96C195.211 148.345 195.965 148.8 195.965 150.03V191.42C195.965 192.65 195.211 193.975 194.146 194.59L147.112 221.745C146.047 222.36 145.293 221.905 145.293 220.675V179.285C145.293 178.055 146.047 176.73 147.112 176.115ZM177.726 236.17L169.447 240.95V268.31L163.982 271.465V244.105L155.686 248.895L166.321 220.935L177.726 236.17ZM92.0416 274.32L96.5882 279.775L74.6951 293.275L84.4985 265.265L89.0451 270.73L116.524 233.795L119.529 237.39L92.0416 274.32ZM83.2341 222.945V232.625L116.117 213.64V220.01L83.2341 238.995V248.665L64.5279 247.065L83.2341 222.945ZM92.0416 187.13L96.5882 176.425L74.6951 188.215L84.4985 204.895L89.0451 194.18L116.524 199.385L119.529 192.32L92.0416 187.13Z" fill="white"/>
</svg>
