<svg width="226" height="321" viewBox="0 0 226 321" fill="none" xmlns="http://www.w3.org/2000/svg">
<path fill-rule="evenodd" clip-rule="evenodd" d="M129.774 158.568V172.608L77.8125 142.608V128.568L129.774 158.568Z" fill="#8BC5E4"/>
<path fill-rule="evenodd" clip-rule="evenodd" d="M129.774 172.608L138.763 167.418L86.8018 137.418L77.8125 142.608L129.774 172.608Z" fill="#8BC5E4"/>
<path fill-rule="evenodd" clip-rule="evenodd" d="M138.763 167.418L106.27 227.478L54.3081 197.478L86.8014 137.418L138.763 167.418Z" fill="#8BC5E4"/>
<path fill-rule="evenodd" clip-rule="evenodd" d="M80.4279 253.678V267.728L28.4663 237.728V223.678L80.4279 253.678Z" fill="#8BC5E4"/>
<path fill-rule="evenodd" clip-rule="evenodd" d="M80.4279 267.728L108.184 251.703L56.2224 221.703L28.4663 237.728L80.4279 267.728Z" fill="#8BC5E4"/>
<path fill-rule="evenodd" clip-rule="evenodd" d="M108.184 251.703V237.653L56.2222 207.653V221.703L108.184 251.703Z" fill="#8BC5E4"/>
<path fill-rule="evenodd" clip-rule="evenodd" d="M107.803 232.903L170.711 203.363L118.749 173.363L55.8413 202.903L107.803 232.903Z" fill="#8BC5E4"/>
<path fill-rule="evenodd" clip-rule="evenodd" d="M169.368 214.398V228.438L117.407 198.438V184.398L169.368 214.398Z" fill="#8BC5E4"/>
<path fill-rule="evenodd" clip-rule="evenodd" d="M169.368 228.438L197.124 212.413L145.163 182.413L117.407 198.438L169.368 228.438Z" fill="#8BC5E4"/>
<path fill-rule="evenodd" clip-rule="evenodd" d="M197.125 212.413V198.373L145.163 168.373V182.413L197.125 212.413Z" fill="#8BC5E4"/>
<path fill-rule="evenodd" clip-rule="evenodd" d="M172.503 197.068L145.206 163.698L93.2446 133.698L120.542 167.068L172.503 197.068Z" fill="#8BC5E4"/>
<path fill-rule="evenodd" clip-rule="evenodd" d="M145.206 163.698L157.53 156.583L105.568 126.583L93.2446 133.698L145.206 163.698Z" fill="#8BC5E4"/>
<path fill-rule="evenodd" clip-rule="evenodd" d="M157.53 156.583V142.543L105.568 112.543V126.583L157.53 156.583Z" fill="#8BC5E4"/>
<path fill-rule="evenodd" clip-rule="evenodd" d="M143.656 100.963L91.6948 70.9628L143.656 100.963Z" fill="#8BC5E4"/>
<path fill-rule="evenodd" clip-rule="evenodd" d="M141.82 165.653L142.513 165.253L90.5517 135.253L89.8589 135.653L141.82 165.653Z" fill="#8BC5E4"/>
<path fill-rule="evenodd" clip-rule="evenodd" d="M142.513 165.253L171.317 200.463L119.356 170.463L90.5518 135.253L142.513 165.253Z" fill="#8BC5E4"/>
<path fill-rule="evenodd" clip-rule="evenodd" d="M171.317 200.463L107.3 230.523L55.3389 200.523L119.355 170.463L171.317 200.463Z" fill="#8BC5E4"/>
<path fill-rule="evenodd" clip-rule="evenodd" d="M107.101 229.828L141.82 165.653L89.8587 135.653L55.1396 199.828L107.101 229.828Z" fill="#8BC5E4"/>
<path fill-rule="evenodd" clip-rule="evenodd" d="M141.82 165.653L89.8589 135.653L141.82 165.653Z" fill="#8BC5E4"/>
<path fill-rule="evenodd" clip-rule="evenodd" d="M62.5875 124.698L214.54 36.9678L162.579 6.96777L10.626 94.6978L62.5875 124.698Z" fill="#8BC5E4"/>
<path fill-rule="evenodd" clip-rule="evenodd" d="M220.369 40.2927V215.863L168.407 185.863V10.2927L220.369 40.2927Z" fill="#8BC5E4"/>
<path fill-rule="evenodd" clip-rule="evenodd" d="M214.54 225.928L62.5875 313.658L10.626 283.658L162.579 195.928L214.54 225.928Z" fill="#8BC5E4"/>
<path fill-rule="evenodd" clip-rule="evenodd" d="M56.7593 310.323V134.753L4.79785 104.753V280.323L56.7593 310.323Z" fill="#8BC5E4"/>
<path fill-rule="evenodd" clip-rule="evenodd" d="M62.5875 124.698L10.626 94.6978L62.5875 124.698Z" fill="#8BC5E4"/>
<path fill-rule="evenodd" clip-rule="evenodd" d="M51.9615 137.523V313.093L0 283.093V107.523L51.9615 137.523Z" fill="#8BC5E4"/>
<path fill-rule="evenodd" clip-rule="evenodd" d="M62.5875 319.178L214.54 231.448L162.579 201.448L10.626 289.178L62.5875 319.178Z" fill="#8BC5E4"/>
<path fill-rule="evenodd" clip-rule="evenodd" d="M225.167 213.093V37.5228L173.205 7.52277V183.093L225.167 213.093Z" fill="#8BC5E4"/>
<path fill-rule="evenodd" clip-rule="evenodd" d="M214.54 31.4478L62.5875 119.178L10.626 89.1778L162.579 1.44775L214.54 31.4478Z" fill="#8BC5E4"/>
<path fill-rule="evenodd" clip-rule="evenodd" d="M62.5875 119.178L10.626 89.1777L62.5875 119.178Z" fill="#8BC5E4"/>
<path fill-rule="evenodd" clip-rule="evenodd" d="M62.5875 124.698L214.54 36.9678L162.579 6.96777L10.626 94.6978L62.5875 124.698Z" fill="#8BC5E4"/>
<path fill-rule="evenodd" clip-rule="evenodd" d="M220.369 40.2927V215.863L168.407 185.863V10.2927L220.369 40.2927Z" fill="#8BC5E4"/>
<path fill-rule="evenodd" clip-rule="evenodd" d="M214.54 225.928L62.5875 313.658L10.626 283.658L162.579 195.928L214.54 225.928Z" fill="#8BC5E4"/>
<path fill-rule="evenodd" clip-rule="evenodd" d="M56.7593 310.323V134.753L4.79785 104.753V280.323L56.7593 310.323Z" fill="#8BC5E4"/>
<path fill-rule="evenodd" clip-rule="evenodd" d="M62.5875 124.698L10.626 94.6978L62.5875 124.698Z" fill="#8BC5E4"/>
<path fill-rule="evenodd" clip-rule="evenodd" d="M157.53 142.543V156.583L105.568 126.583V112.543L157.53 142.543Z" fill="#8BC5E4"/>
<path fill-rule="evenodd" clip-rule="evenodd" d="M157.53 156.583L145.206 163.698L93.2446 133.698L105.568 126.583L157.53 156.583Z" fill="#8BC5E4"/>
<path fill-rule="evenodd" clip-rule="evenodd" d="M145.206 163.698L172.503 197.068L120.542 167.068L93.2446 133.698L145.206 163.698Z" fill="#8BC5E4"/>
<path fill-rule="evenodd" clip-rule="evenodd" d="M197.125 198.373V212.413L145.163 182.413V168.373L197.125 198.373Z" fill="#8BC5E4"/>
<path fill-rule="evenodd" clip-rule="evenodd" d="M197.124 212.413L169.368 228.438L117.407 198.438L145.163 182.413L197.124 212.413Z" fill="#8BC5E4"/>
<path fill-rule="evenodd" clip-rule="evenodd" d="M169.368 228.438V214.398L117.407 184.398V198.438L169.368 228.438Z" fill="#8BC5E4"/>
<path fill-rule="evenodd" clip-rule="evenodd" d="M170.711 203.363L107.803 232.903L55.8413 202.903L118.749 173.363L170.711 203.363Z" fill="#8BC5E4"/>
<path fill-rule="evenodd" clip-rule="evenodd" d="M108.184 237.653V251.703L56.2222 221.703V207.653L108.184 237.653Z" fill="#8BC5E4"/>
<path fill-rule="evenodd" clip-rule="evenodd" d="M108.184 251.703L80.4279 267.728L28.4663 237.728L56.2224 221.703L108.184 251.703Z" fill="#8BC5E4"/>
<path fill-rule="evenodd" clip-rule="evenodd" d="M80.4279 267.728V253.678L28.4663 223.678V237.728L80.4279 267.728Z" fill="#8BC5E4"/>
<path fill-rule="evenodd" clip-rule="evenodd" d="M106.27 227.478L138.763 167.418L86.8014 137.418L54.3081 197.478L106.27 227.478Z" fill="#8BC5E4"/>
<path fill-rule="evenodd" clip-rule="evenodd" d="M138.763 167.418L129.774 172.608L77.8125 142.608L86.8018 137.418L138.763 167.418Z" fill="#8BC5E4"/>
<path fill-rule="evenodd" clip-rule="evenodd" d="M129.774 172.608V158.568L77.8125 128.568V142.608L129.774 172.608Z" fill="#8BC5E4"/>
<path fill-rule="evenodd" clip-rule="evenodd" d="M131.073 122.688L79.1113 92.6877L131.073 122.688Z" fill="#8BC5E4"/>
<path fill-rule="evenodd" clip-rule="evenodd" d="M141.82 165.653L142.513 165.253L90.5517 135.253L89.8589 135.653L141.82 165.653Z" fill="#8BC5E4"/>
<path fill-rule="evenodd" clip-rule="evenodd" d="M142.513 165.253L171.317 200.463L119.356 170.463L90.5518 135.253L142.513 165.253Z" fill="#8BC5E4"/>
<path fill-rule="evenodd" clip-rule="evenodd" d="M171.317 200.463L107.3 230.523L55.3389 200.523L119.355 170.463L171.317 200.463Z" fill="#8BC5E4"/>
<path fill-rule="evenodd" clip-rule="evenodd" d="M107.101 229.828L141.82 165.653L89.8587 135.653L55.1396 199.828L107.101 229.828Z" fill="#8BC5E4"/>
<path fill-rule="evenodd" clip-rule="evenodd" d="M141.82 165.653L89.8589 135.653L141.82 165.653Z" fill="#8BC5E4"/>
<path fill-rule="evenodd" clip-rule="evenodd" d="M143.656 100.963C136.711 104.973 131.073 114.698 131.073 122.688L79.1113 92.6878C79.1113 84.6978 84.7491 74.9728 91.6946 70.9628L143.656 100.963Z" fill="#8BC5E4"/>
<path fill-rule="evenodd" clip-rule="evenodd" d="M131.073 122.688C131.079 126.59 132.455 129.483 134.824 130.795L82.8629 100.795C80.4939 99.4827 79.1179 96.5897 79.1113 92.6877L131.073 122.688Z" fill="#8BC5E4"/>
<path fill-rule="evenodd" clip-rule="evenodd" d="M134.821 130.793C135.483 131.161 136.224 131.404 137.034 131.512L85.0729 101.512C84.2629 101.404 83.5219 101.161 82.8599 100.793L134.821 130.793Z" fill="#8BC5E4"/>
<path fill-rule="evenodd" clip-rule="evenodd" d="M137.04 131.513C132.398 140.503 129.774 150.338 129.774 158.568L77.8125 128.568C77.8125 120.338 80.4365 110.503 85.0784 101.513L137.04 131.513Z" fill="#8BC5E4"/>
<path fill-rule="evenodd" clip-rule="evenodd" d="M106.27 227.478C104.901 224.148 102.884 221.473 100.563 219.453L48.6011 189.453C50.9221 191.473 52.9399 194.148 54.3082 197.478L106.27 227.478Z" fill="#8BC5E4"/>
<path fill-rule="evenodd" clip-rule="evenodd" d="M100.563 219.453C104.468 214.618 106.885 208.453 106.885 203.273L54.9231 173.273C54.9231 178.453 52.5069 184.618 48.6011 189.453L100.563 219.453Z" fill="#8BC5E4"/>
<path fill-rule="evenodd" clip-rule="evenodd" d="M106.885 203.273C106.884 199.462 105.601 196.737 103.503 195.366L51.542 165.366C53.64 166.737 54.923 169.462 54.9233 173.273L106.885 203.273Z" fill="#8BC5E4"/>
<path fill-rule="evenodd" clip-rule="evenodd" d="M103.505 195.367C101.211 193.867 97.9425 193.988 94.3155 196.08L42.354 166.08C45.981 163.988 49.249 163.867 51.543 165.367L103.505 195.367Z" fill="#8BC5E4"/>
<path fill-rule="evenodd" clip-rule="evenodd" d="M94.3101 196.083C87.3646 200.093 81.7355 209.813 81.7355 217.793L29.7739 187.793C29.7739 179.813 35.4031 170.093 42.3486 166.083L94.3101 196.083Z" fill="#8BC5E4"/>
<path fill-rule="evenodd" clip-rule="evenodd" d="M81.7355 217.793C81.7355 221.699 83.1155 224.595 85.4815 225.912L33.52 195.912C31.154 194.595 29.774 191.699 29.7739 187.793L81.7355 217.793Z" fill="#8BC5E4"/>
<path fill-rule="evenodd" clip-rule="evenodd" d="M85.4796 225.91C85.7526 226.062 86.0386 226.193 86.3376 226.302L34.3761 196.302C34.0771 196.193 33.7911 196.062 33.5181 195.91L85.4796 225.91Z" fill="#8BC5E4"/>
<path fill-rule="evenodd" clip-rule="evenodd" d="M86.3326 226.3C86.7596 226.457 87.2126 226.568 87.6886 226.632L35.7271 196.632C35.2511 196.568 34.7981 196.457 34.3711 196.3L86.3326 226.3Z" fill="#8BC5E4"/>
<path fill-rule="evenodd" clip-rule="evenodd" d="M87.6938 226.633C83.0519 235.623 80.4279 245.458 80.4279 253.678L28.4663 223.678C28.4663 215.458 31.0904 205.623 35.7323 196.633L87.6938 226.633Z" fill="#8BC5E4"/>
<path fill-rule="evenodd" clip-rule="evenodd" d="M108.184 237.653C108.184 235.983 108.054 234.398 107.803 232.903L55.8413 202.903C56.0924 204.398 56.2223 205.983 56.2223 207.653L108.184 237.653Z" fill="#8BC5E4"/>
<path fill-rule="evenodd" clip-rule="evenodd" d="M170.711 203.363C169.836 207.198 169.368 210.938 169.368 214.398L117.407 184.398C117.407 180.938 117.874 177.198 118.749 173.363L170.711 203.363Z" fill="#8BC5E4"/>
<path fill-rule="evenodd" clip-rule="evenodd" d="M197.125 198.373C197.125 190.053 193.851 183.953 189.504 180.163L137.542 150.163C141.889 153.953 145.163 160.053 145.163 168.373L197.125 198.373Z" fill="#8BC5E4"/>
<path fill-rule="evenodd" clip-rule="evenodd" d="M189.504 180.163C193.409 175.338 195.817 169.168 195.825 163.993L143.864 133.993C143.855 139.168 141.448 145.338 137.542 150.163L189.504 180.163Z" fill="#8BC5E4"/>
<path fill-rule="evenodd" clip-rule="evenodd" d="M195.826 163.993C195.825 160.177 194.541 157.45 192.444 156.078L140.483 126.078C142.58 127.45 143.864 130.177 143.864 133.993L195.826 163.993Z" fill="#8BC5E4"/>
<path fill-rule="evenodd" clip-rule="evenodd" d="M192.445 156.079C190.151 154.577 186.883 154.698 183.256 156.79L131.295 126.79C134.922 124.698 138.19 124.577 140.484 126.079L192.445 156.079Z" fill="#8BC5E4"/>
<path fill-rule="evenodd" clip-rule="evenodd" d="M183.251 156.793C176.305 160.803 170.668 170.528 170.668 178.518L118.706 148.518C118.706 140.528 124.344 130.803 131.289 126.793L183.251 156.793Z" fill="#8BC5E4"/>
<path fill-rule="evenodd" clip-rule="evenodd" d="M170.668 178.518C170.674 182.42 172.05 185.313 174.419 186.625L122.458 156.625C120.089 155.313 118.713 152.42 118.706 148.518L170.668 178.518Z" fill="#8BC5E4"/>
<path fill-rule="evenodd" clip-rule="evenodd" d="M174.416 186.623C175.079 186.991 175.82 187.234 176.63 187.342L124.668 157.342C123.858 157.234 123.117 156.991 122.454 156.623L174.416 186.623Z" fill="#8BC5E4"/>
<path fill-rule="evenodd" clip-rule="evenodd" d="M176.634 187.343C174.998 190.518 173.612 193.798 172.503 197.068L120.542 167.068C121.65 163.798 123.036 160.518 124.673 157.343L176.634 187.343Z" fill="#8BC5E4"/>
<path fill-rule="evenodd" clip-rule="evenodd" d="M157.53 142.543C157.53 134.223 154.256 128.123 149.909 124.333L97.9473 94.3328C102.295 98.1228 105.568 104.223 105.568 112.543L157.53 142.543Z" fill="#8BC5E4"/>
<path fill-rule="evenodd" clip-rule="evenodd" d="M149.909 124.333C153.815 119.508 156.222 113.338 156.231 108.163L104.269 78.1627C104.261 83.3377 101.853 89.5077 97.9473 94.3327L149.909 124.333Z" fill="#8BC5E4"/>
<path fill-rule="evenodd" clip-rule="evenodd" d="M156.231 108.163C156.23 104.347 154.947 101.62 152.849 100.248L100.888 70.2477C102.986 71.6197 104.269 74.3467 104.269 78.1627L156.231 108.163Z" fill="#8BC5E4"/>
<path fill-rule="evenodd" clip-rule="evenodd" d="M152.85 100.249C150.556 98.7467 147.288 98.8677 143.661 100.96L91.6997 70.9597C95.3267 68.8677 98.5947 68.7467 100.889 70.2487L152.85 100.249Z" fill="#8BC5E4"/>
<path fill-rule="evenodd" clip-rule="evenodd" d="M107.3 230.523C107.24 230.288 107.17 230.058 107.101 229.828L55.1396 199.828C55.2089 200.058 55.2782 200.288 55.3388 200.523L107.3 230.523Z" fill="#8BC5E4"/>
<path fill-rule="evenodd" clip-rule="evenodd" d="M214.54 36.9677C216.253 35.9787 217.77 35.9057 218.826 36.5997L166.865 6.59972C165.809 5.90572 164.292 5.97872 162.579 6.96772L214.54 36.9677Z" fill="#8BC5E4"/>
<path fill-rule="evenodd" clip-rule="evenodd" d="M218.825 36.5997C219.787 37.2307 220.367 38.4977 220.368 40.2867L168.407 10.2867C168.406 8.49773 167.826 7.23073 166.864 6.59973L218.825 36.5997Z" fill="#8BC5E4"/>
<path fill-rule="evenodd" clip-rule="evenodd" d="M220.369 215.863C220.369 219.623 217.814 224.038 214.54 225.928L162.579 195.928C165.852 194.038 168.407 189.623 168.407 185.863L220.369 215.863Z" fill="#8BC5E4"/>
<path fill-rule="evenodd" clip-rule="evenodd" d="M62.5874 313.658C60.8743 314.647 59.3573 314.717 58.3013 314.02L6.33984 284.02C7.39584 284.717 8.91284 284.647 10.6259 283.658L62.5874 313.658Z" fill="#8BC5E4"/>
<path fill-rule="evenodd" clip-rule="evenodd" d="M58.3024 314.021C57.3404 313.387 56.7603 312.118 56.7593 310.329L4.79785 280.329C4.79885 282.118 5.37885 283.387 6.34085 284.021L58.3024 314.021Z" fill="#8BC5E4"/>
<path fill-rule="evenodd" clip-rule="evenodd" d="M56.7593 134.753C56.7593 130.993 59.3142 126.588 62.5877 124.698L10.6262 94.6978C7.35255 96.5878 4.79785 100.993 4.79785 104.753L56.7593 134.753Z" fill="#8BC5E4"/>
<path fill-rule="evenodd" clip-rule="evenodd" d="M62.5876 119.178C56.742 122.553 51.9615 130.803 51.9615 137.523L0 107.523C0 100.803 4.7804 92.5527 10.6261 89.1777L62.5876 119.178Z" fill="#8BC5E4"/>
<path fill-rule="evenodd" clip-rule="evenodd" d="M51.9615 313.093C51.9615 316.302 53.0515 318.604 54.8275 319.765L2.866 289.765C1.09 288.604 0 286.302 0 283.093L51.9615 313.093Z" fill="#8BC5E4"/>
<path fill-rule="evenodd" clip-rule="evenodd" d="M54.8243 319.763C56.7663 321.034 59.5273 320.942 62.5793 319.183L10.6178 289.183C7.56579 290.942 4.80479 291.034 2.86279 289.763L54.8243 319.763Z" fill="#8BC5E4"/>
<path fill-rule="evenodd" clip-rule="evenodd" d="M214.54 231.448C220.386 228.073 225.166 219.813 225.166 213.093L173.205 183.093C173.205 189.813 168.424 198.073 162.579 201.448L214.54 231.448Z" fill="#8BC5E4"/>
<path fill-rule="evenodd" clip-rule="evenodd" d="M225.166 37.5227C225.166 34.3137 224.076 32.0147 222.3 30.8557L170.339 0.855713C172.115 2.01471 173.205 4.31371 173.205 7.52271L225.166 37.5227Z" fill="#8BC5E4"/>
<path fill-rule="evenodd" clip-rule="evenodd" d="M222.292 30.8498C220.351 29.5888 217.595 29.6868 214.549 31.4428L162.588 1.44277C165.634 -0.313231 168.39 -0.411231 170.331 0.849769L222.292 30.8498Z" fill="#8BC5E4"/>
<path fill-rule="evenodd" clip-rule="evenodd" d="M214.54 36.9677C216.253 35.9787 217.77 35.9057 218.826 36.5997L166.865 6.59972C165.809 5.90572 164.292 5.97872 162.579 6.96772L214.54 36.9677Z" fill="#8BC5E4"/>
<path fill-rule="evenodd" clip-rule="evenodd" d="M218.825 36.5997C219.787 37.2307 220.367 38.4977 220.368 40.2867L168.407 10.2867C168.406 8.49773 167.826 7.23073 166.864 6.59973L218.825 36.5997Z" fill="#8BC5E4"/>
<path fill-rule="evenodd" clip-rule="evenodd" d="M220.369 215.863C220.369 219.623 217.814 224.038 214.54 225.928L162.579 195.928C165.852 194.038 168.407 189.623 168.407 185.863L220.369 215.863Z" fill="#8BC5E4"/>
<path fill-rule="evenodd" clip-rule="evenodd" d="M62.5874 313.658C60.8743 314.647 59.3573 314.717 58.3013 314.02L6.33984 284.02C7.39584 284.717 8.91284 284.647 10.6259 283.658L62.5874 313.658Z" fill="#8BC5E4"/>
<path fill-rule="evenodd" clip-rule="evenodd" d="M58.3024 314.021C57.3404 313.387 56.7603 312.118 56.7593 310.329L4.79785 280.329C4.79885 282.118 5.37885 283.387 6.34085 284.021L58.3024 314.021Z" fill="#8BC5E4"/>
<path fill-rule="evenodd" clip-rule="evenodd" d="M56.7593 134.753C56.7593 130.993 59.3142 126.588 62.5877 124.698L10.6262 94.6978C7.35255 96.5878 4.79785 100.993 4.79785 104.753L56.7593 134.753Z" fill="#8BC5E4"/>
<path fill-rule="evenodd" clip-rule="evenodd" d="M131.073 122.688C131.073 114.698 136.711 104.973 143.656 100.963L91.6946 70.9628C84.7491 74.9728 79.1113 84.6978 79.1113 92.6878L131.073 122.688Z" fill="#8BC5E4"/>
<path fill-rule="evenodd" clip-rule="evenodd" d="M143.656 100.963C147.286 98.8677 150.555 98.7457 152.85 100.248L100.888 70.2477C98.5931 68.7457 95.3241 68.8677 91.6948 70.9627L143.656 100.963Z" fill="#8BC5E4"/>
<path fill-rule="evenodd" clip-rule="evenodd" d="M152.848 100.246C154.945 101.617 156.229 104.343 156.23 108.157L104.269 78.1567C104.268 74.3427 102.984 71.6167 100.887 70.2457L152.848 100.246Z" fill="#8BC5E4"/>
<path fill-rule="evenodd" clip-rule="evenodd" d="M156.231 108.163C156.222 113.338 153.815 119.508 149.909 124.333L97.9473 94.3327C101.853 89.5077 104.261 83.3377 104.269 78.1627L156.231 108.163Z" fill="#8BC5E4"/>
<path fill-rule="evenodd" clip-rule="evenodd" d="M149.909 124.333C154.256 128.123 157.53 134.223 157.53 142.543L105.568 112.543C105.568 104.223 102.295 98.1228 97.9473 94.3328L149.909 124.333Z" fill="#8BC5E4"/>
<path fill-rule="evenodd" clip-rule="evenodd" d="M172.503 197.068C173.612 193.798 174.998 190.518 176.634 187.343L124.673 157.343C123.036 160.518 121.65 163.798 120.542 167.068L172.503 197.068Z" fill="#8BC5E4"/>
<path fill-rule="evenodd" clip-rule="evenodd" d="M176.635 187.343C175.824 187.236 175.083 186.992 174.42 186.625L122.458 156.625C123.121 156.992 123.862 157.236 124.673 157.343L176.635 187.343Z" fill="#8BC5E4"/>
<path fill-rule="evenodd" clip-rule="evenodd" d="M174.421 186.625C172.052 185.314 170.677 182.424 170.668 178.525L118.706 148.525C118.715 152.424 120.09 155.314 122.459 156.625L174.421 186.625Z" fill="#8BC5E4"/>
<path fill-rule="evenodd" clip-rule="evenodd" d="M170.668 178.518C170.668 170.528 176.305 160.803 183.251 156.793L131.289 126.793C124.344 130.803 118.706 140.528 118.706 148.518L170.668 178.518Z" fill="#8BC5E4"/>
<path fill-rule="evenodd" clip-rule="evenodd" d="M183.251 156.793C186.88 154.698 190.15 154.576 192.445 156.078L140.483 126.078C138.188 124.576 134.918 124.698 131.29 126.793L183.251 156.793Z" fill="#8BC5E4"/>
<path fill-rule="evenodd" clip-rule="evenodd" d="M192.456 156.085C194.546 157.458 195.825 160.181 195.826 163.987L143.864 133.987C143.863 130.181 142.584 127.458 140.494 126.085L192.456 156.085Z" fill="#8BC5E4"/>
<path fill-rule="evenodd" clip-rule="evenodd" d="M195.825 163.993C195.817 169.168 193.409 175.338 189.504 180.163L137.542 150.163C141.448 145.338 143.855 139.168 143.864 133.993L195.825 163.993Z" fill="#8BC5E4"/>
<path fill-rule="evenodd" clip-rule="evenodd" d="M189.504 180.163C193.851 183.953 197.125 190.053 197.125 198.373L145.163 168.373C145.163 160.053 141.889 153.953 137.542 150.163L189.504 180.163Z" fill="#8BC5E4"/>
<path fill-rule="evenodd" clip-rule="evenodd" d="M169.368 214.398C169.368 210.938 169.836 207.198 170.711 203.363L118.749 173.363C117.874 177.198 117.407 180.938 117.407 184.398L169.368 214.398Z" fill="#8BC5E4"/>
<path fill-rule="evenodd" clip-rule="evenodd" d="M107.803 232.903C108.054 234.398 108.184 235.983 108.184 237.653L56.2223 207.653C56.2223 205.983 56.0924 204.398 55.8413 202.903L107.803 232.903Z" fill="#8BC5E4"/>
<path fill-rule="evenodd" clip-rule="evenodd" d="M80.4279 253.678C80.4279 245.458 83.0519 235.623 87.6938 226.633L35.7323 196.633C31.0904 205.623 28.4663 215.458 28.4663 223.678L80.4279 253.678Z" fill="#8BC5E4"/>
<path fill-rule="evenodd" clip-rule="evenodd" d="M87.6937 226.633C87.2175 226.569 86.7645 226.458 86.3375 226.302L34.376 196.302C34.803 196.458 35.256 196.569 35.7322 196.633L87.6937 226.633Z" fill="#8BC5E4"/>
<path fill-rule="evenodd" clip-rule="evenodd" d="M86.3275 226.299C86.0325 226.191 85.7505 226.062 85.4815 225.912L33.52 195.912C33.789 196.062 34.071 196.191 34.366 196.299L86.3275 226.299Z" fill="#8BC5E4"/>
<path fill-rule="evenodd" clip-rule="evenodd" d="M85.4824 225.912C83.1164 224.597 81.7374 221.703 81.7354 217.8L29.7739 187.8C29.7759 191.703 31.1549 194.597 33.5209 195.912L85.4824 225.912Z" fill="#8BC5E4"/>
<path fill-rule="evenodd" clip-rule="evenodd" d="M81.7355 217.793C81.7355 209.813 87.3646 200.093 94.3101 196.083L42.3486 166.083C35.4031 170.093 29.7739 179.813 29.7739 187.793L81.7355 217.793Z" fill="#8BC5E4"/>
<path fill-rule="evenodd" clip-rule="evenodd" d="M94.3101 196.083C97.9385 193.988 101.209 193.866 103.504 195.366L51.542 165.366C49.247 163.866 45.977 163.988 42.3486 166.083L94.3101 196.083Z" fill="#8BC5E4"/>
<path fill-rule="evenodd" clip-rule="evenodd" d="M103.502 195.365C105.6 196.735 106.884 199.458 106.885 203.267L54.923 173.267C54.922 169.458 53.638 166.735 51.54 165.365L103.502 195.365Z" fill="#8BC5E4"/>
<path fill-rule="evenodd" clip-rule="evenodd" d="M106.885 203.273C106.885 208.453 104.468 214.618 100.563 219.453L48.6011 189.453C52.5069 184.618 54.9231 178.453 54.9231 173.273L106.885 203.273Z" fill="#8BC5E4"/>
<path fill-rule="evenodd" clip-rule="evenodd" d="M100.563 219.453C102.884 221.473 104.901 224.148 106.27 227.478L54.3082 197.478C52.9399 194.148 50.9221 191.473 48.6011 189.453L100.563 219.453Z" fill="#8BC5E4"/>
<path fill-rule="evenodd" clip-rule="evenodd" d="M129.774 158.568C129.774 150.338 132.398 140.503 137.04 131.513L85.0784 101.513C80.4365 110.503 77.8125 120.338 77.8125 128.568L129.774 158.568Z" fill="#8BC5E4"/>
<path fill-rule="evenodd" clip-rule="evenodd" d="M137.04 131.513C136.229 131.406 135.487 131.162 134.824 130.795L82.8628 100.795C83.5258 101.162 84.2678 101.406 85.0781 101.513L137.04 131.513Z" fill="#8BC5E4"/>
<path fill-rule="evenodd" clip-rule="evenodd" d="M134.825 130.795C132.457 129.484 131.081 126.594 131.072 122.695L79.1108 92.6948C79.1198 96.5938 80.4958 99.4838 82.8638 100.795L134.825 130.795Z" fill="#8BC5E4"/>
<path fill-rule="evenodd" clip-rule="evenodd" d="M107.3 230.523C107.24 230.288 107.17 230.058 107.101 229.828L55.1396 199.828C55.2089 200.058 55.2782 200.288 55.3388 200.523L107.3 230.523Z" fill="#8BC5E4"/>
<path fill-rule="evenodd" clip-rule="evenodd" d="M143.656 100.963C136.711 104.973 131.073 114.698 131.073 122.688C131.082 127.683 133.333 131.023 137.04 131.513C132.398 140.503 129.774 150.338 129.774 158.568V172.608L138.763 167.418L106.27 227.478C104.902 224.148 102.884 221.473 100.563 219.453C104.469 214.618 106.885 208.453 106.885 203.273C106.885 195.293 101.256 192.073 94.3101 196.083C87.3645 200.093 81.7354 209.813 81.7354 217.793C81.7354 222.793 83.9957 226.138 87.6936 226.633C83.0517 235.623 80.4277 245.458 80.4277 253.678V267.728L108.184 251.703V237.653C108.184 235.983 108.054 234.398 107.803 232.903L170.711 203.363C169.836 207.198 169.368 210.938 169.368 214.398V228.438L197.125 212.413V198.373C197.125 190.053 193.851 183.953 189.504 180.163C193.409 175.338 195.817 169.168 195.826 163.993C195.826 156.003 190.196 152.783 183.251 156.793C176.305 160.803 170.668 170.528 170.668 178.518C170.676 183.513 172.928 186.853 176.634 187.343C174.998 190.518 173.612 193.798 172.504 197.068L145.206 163.698L157.53 156.583V142.543C157.53 134.223 154.256 128.123 149.909 124.333C153.815 119.508 156.222 113.338 156.231 108.163C156.231 100.173 150.602 96.9528 143.656 100.963ZM141.82 165.653L142.513 165.253L171.317 200.463L107.3 230.523C107.24 230.288 107.171 230.058 107.101 229.828L141.82 165.653ZM62.5876 124.698L214.54 36.9678C217.814 35.0778 220.369 36.5328 220.369 40.2928V215.863C220.369 219.623 217.814 224.038 214.54 225.928L62.5876 313.658C59.314 315.548 56.7592 314.083 56.7592 310.323V134.753C56.7592 130.993 59.314 126.588 62.5876 124.698Z" fill="white"/>
</svg>
