<svg width="274" height="349" viewBox="0 0 274 349" fill="none" xmlns="http://www.w3.org/2000/svg">
<path fill-rule="evenodd" clip-rule="evenodd" d="M62.4229 152.842L263.194 36.9275L211.232 6.92749L10.4614 122.842L62.4229 152.842Z" fill="#8BC5E4"/>
<path fill-rule="evenodd" clip-rule="evenodd" d="M268.936 40.3025V215.872L216.974 185.872V10.3025L268.936 40.3025Z" fill="#8BC5E4"/>
<path fill-rule="evenodd" clip-rule="evenodd" d="M263.194 225.887L62.4229 341.802L10.4614 311.802L211.232 195.887L263.194 225.887Z" fill="#8BC5E4"/>
<path fill-rule="evenodd" clip-rule="evenodd" d="M56.69 338.412V162.842L4.72852 132.842V308.412L56.69 338.412Z" fill="#8BC5E4"/>
<path fill-rule="evenodd" clip-rule="evenodd" d="M62.4229 152.842L10.4614 122.842L62.4229 152.842Z" fill="#8BC5E4"/>
<path fill-rule="evenodd" clip-rule="evenodd" d="M51.9615 165.572V341.142L0 311.142V135.572L51.9615 165.572Z" fill="#8BC5E4"/>
<path fill-rule="evenodd" clip-rule="evenodd" d="M62.4229 347.322L263.194 231.407L211.232 201.407L10.4614 317.322L62.4229 347.322Z" fill="#8BC5E4"/>
<path fill-rule="evenodd" clip-rule="evenodd" d="M273.664 213.143V37.5725L221.703 7.57249V183.143L273.664 213.143Z" fill="#8BC5E4"/>
<path fill-rule="evenodd" clip-rule="evenodd" d="M263.194 31.4075L62.4229 147.322L10.4614 117.322L211.232 1.40749L263.194 31.4075Z" fill="#8BC5E4"/>
<path fill-rule="evenodd" clip-rule="evenodd" d="M62.4229 147.322L10.4614 117.322L62.4229 147.322Z" fill="#8BC5E4"/>
<path fill-rule="evenodd" clip-rule="evenodd" d="M167.957 219.132L168.312 221.877L116.351 191.877L115.996 189.132L167.957 219.132Z" fill="#8BC5E4"/>
<path fill-rule="evenodd" clip-rule="evenodd" d="M168.312 221.877L135.845 240.622L83.8833 210.622L116.351 191.877L168.312 221.877Z" fill="#8BC5E4"/>
<path fill-rule="evenodd" clip-rule="evenodd" d="M122.474 260.222L122.456 260.282L70.4946 230.282L70.512 230.222L122.474 260.222Z" fill="#8BC5E4"/>
<path fill-rule="evenodd" clip-rule="evenodd" d="M122.456 260.282L118.62 279.127L66.6582 249.127L70.4946 230.282L122.456 260.282Z" fill="#8BC5E4"/>
<path fill-rule="evenodd" clip-rule="evenodd" d="M118.62 279.127L118.611 279.172L66.6494 249.172L66.6581 249.127L118.62 279.127Z" fill="#8BC5E4"/>
<path fill-rule="evenodd" clip-rule="evenodd" d="M127.609 287.757L197.038 247.672L145.077 217.672L75.6475 257.757L127.609 287.757Z" fill="#8BC5E4"/>
<path fill-rule="evenodd" clip-rule="evenodd" d="M207.24 227.832V227.822L155.278 197.822V197.832L207.24 227.832Z" fill="#8BC5E4"/>
<path fill-rule="evenodd" clip-rule="evenodd" d="M207.24 227.822L202.771 213.212L150.81 183.212L155.278 197.822L207.24 227.822Z" fill="#8BC5E4"/>
<path fill-rule="evenodd" clip-rule="evenodd" d="M189.634 209.567L178.938 215.742L126.977 185.742L137.672 179.567L189.634 209.567Z" fill="#8BC5E4"/>
<path fill-rule="evenodd" clip-rule="evenodd" d="M178.938 215.742V211.992L126.977 181.992V185.742L178.938 215.742Z" fill="#8BC5E4"/>
<path fill-rule="evenodd" clip-rule="evenodd" d="M173.136 208.832L121.174 178.832L173.136 208.832Z" fill="#8BC5E4"/>
<path fill-rule="evenodd" clip-rule="evenodd" d="M144.973 164.672V209.072L93.0112 179.072V134.672L144.973 164.672Z" fill="#8BC5E4"/>
<path fill-rule="evenodd" clip-rule="evenodd" d="M144.973 209.072L182.307 187.517L130.346 157.517L93.0112 179.072L144.973 209.072Z" fill="#8BC5E4"/>
<path fill-rule="evenodd" clip-rule="evenodd" d="M182.307 187.517V143.117L130.346 113.117V157.517L182.307 187.517Z" fill="#8BC5E4"/>
<path fill-rule="evenodd" clip-rule="evenodd" d="M182.307 143.117L144.973 164.672L93.0112 134.672L130.346 113.117L182.307 143.117Z" fill="#8BC5E4"/>
<path fill-rule="evenodd" clip-rule="evenodd" d="M144.973 164.672L93.0112 134.672L144.973 164.672Z" fill="#8BC5E4"/>
<path fill-rule="evenodd" clip-rule="evenodd" d="M75.6559 186.272L83.528 199.297L31.5665 169.297L23.6943 156.272L75.6559 186.272Z" fill="#8BC5E4"/>
<path fill-rule="evenodd" clip-rule="evenodd" d="M83.5279 199.297L86.8448 191.322L34.8833 161.322L31.5664 169.297L83.5279 199.297Z" fill="#8BC5E4"/>
<path fill-rule="evenodd" clip-rule="evenodd" d="M86.8448 191.322L101.091 193.717L49.1294 163.717L34.8833 161.322L86.8448 191.322Z" fill="#8BC5E4"/>
<path fill-rule="evenodd" clip-rule="evenodd" d="M101.091 193.717V209.697L49.1294 179.697V163.717L101.091 193.717Z" fill="#8BC5E4"/>
<path fill-rule="evenodd" clip-rule="evenodd" d="M101.091 209.697L82.6793 220.327L30.7178 190.327L49.1295 179.697L101.091 209.697Z" fill="#8BC5E4"/>
<path fill-rule="evenodd" clip-rule="evenodd" d="M82.6793 220.327V213.137L30.7178 183.137V190.327L82.6793 220.327Z" fill="#8BC5E4"/>
<path fill-rule="evenodd" clip-rule="evenodd" d="M82.6794 213.137L67.9483 231.502L15.9868 201.502L30.7179 183.137L82.6794 213.137Z" fill="#8BC5E4"/>
<path fill-rule="evenodd" clip-rule="evenodd" d="M67.9483 231.502L82.6794 232.267L30.7179 202.267L15.9868 201.502L67.9483 231.502Z" fill="#8BC5E4"/>
<path fill-rule="evenodd" clip-rule="evenodd" d="M82.6793 232.267V225.077L30.7178 195.077V202.267L82.6793 232.267Z" fill="#8BC5E4"/>
<path fill-rule="evenodd" clip-rule="evenodd" d="M82.6793 225.077L101.091 214.447L49.1295 184.447L30.7178 195.077L82.6793 225.077Z" fill="#8BC5E4"/>
<path fill-rule="evenodd" clip-rule="evenodd" d="M101.091 214.447V230.427L49.1294 200.427V184.447L101.091 214.447Z" fill="#8BC5E4"/>
<path fill-rule="evenodd" clip-rule="evenodd" d="M101.091 230.427L86.8448 249.272L34.8833 219.272L49.1294 200.427L101.091 230.427Z" fill="#8BC5E4"/>
<path fill-rule="evenodd" clip-rule="evenodd" d="M86.8448 249.272L83.5279 245.137L31.5664 215.137L34.8833 219.272L86.8448 249.272Z" fill="#8BC5E4"/>
<path fill-rule="evenodd" clip-rule="evenodd" d="M83.528 245.137L75.6559 267.242L23.6943 237.242L31.5665 215.137L83.528 245.137Z" fill="#8BC5E4"/>
<path fill-rule="evenodd" clip-rule="evenodd" d="M75.6559 267.242L92.3528 256.152L40.3913 226.152L23.6943 237.242L75.6559 267.242Z" fill="#8BC5E4"/>
<path fill-rule="evenodd" clip-rule="evenodd" d="M92.3531 256.152L89.0362 252.007L37.0747 222.007L40.3916 226.152L92.3531 256.152Z" fill="#8BC5E4"/>
<path fill-rule="evenodd" clip-rule="evenodd" d="M89.0362 252.007L103.049 233.467L51.087 203.467L37.0747 222.007L89.0362 252.007Z" fill="#8BC5E4"/>
<path fill-rule="evenodd" clip-rule="evenodd" d="M103.048 233.467L138.426 213.042L86.464 183.042L51.0869 203.467L103.048 233.467Z" fill="#8BC5E4"/>
<path fill-rule="evenodd" clip-rule="evenodd" d="M138.425 213.042V168.652L86.4639 138.652V183.042L138.425 213.042Z" fill="#8BC5E4"/>
<path fill-rule="evenodd" clip-rule="evenodd" d="M138.426 168.652L103.932 188.567L51.9702 158.567L86.4639 138.652L138.426 168.652Z" fill="#8BC5E4"/>
<path fill-rule="evenodd" clip-rule="evenodd" d="M103.932 188.567L89.0362 186.057L37.0747 156.057L51.9704 158.567L103.932 188.567Z" fill="#8BC5E4"/>
<path fill-rule="evenodd" clip-rule="evenodd" d="M89.0362 186.057L92.3531 178.082L40.3916 148.082L37.0747 156.057L89.0362 186.057Z" fill="#8BC5E4"/>
<path fill-rule="evenodd" clip-rule="evenodd" d="M92.3528 178.082L75.6559 186.272L23.6943 156.272L40.3913 148.082L92.3528 178.082Z" fill="#8BC5E4"/>
<path fill-rule="evenodd" clip-rule="evenodd" d="M75.6559 186.272L23.6943 156.272L75.6559 186.272Z" fill="#8BC5E4"/>
<path fill-rule="evenodd" clip-rule="evenodd" d="M251.624 84.3875L234.927 95.4875L182.965 65.4875L199.662 54.3875L251.624 84.3875Z" fill="#8BC5E4"/>
<path fill-rule="evenodd" clip-rule="evenodd" d="M234.927 95.4875L238.244 99.6225L186.282 69.6225L182.965 65.4875L234.927 95.4875Z" fill="#8BC5E4"/>
<path fill-rule="evenodd" clip-rule="evenodd" d="M238.243 99.6225L223.348 119.332L171.386 89.3325L186.282 69.6225L238.243 99.6225Z" fill="#8BC5E4"/>
<path fill-rule="evenodd" clip-rule="evenodd" d="M223.348 119.332L188.854 139.247L136.893 109.247L171.386 89.3325L223.348 119.332Z" fill="#8BC5E4"/>
<path fill-rule="evenodd" clip-rule="evenodd" d="M188.854 139.247V183.647L136.893 153.647V109.247L188.854 139.247Z" fill="#8BC5E4"/>
<path fill-rule="evenodd" clip-rule="evenodd" d="M188.854 183.647L224.231 163.222L172.27 133.222L136.893 153.647L188.854 183.647Z" fill="#8BC5E4"/>
<path fill-rule="evenodd" clip-rule="evenodd" d="M224.231 163.222L238.243 165.582L186.282 135.582L172.27 133.222L224.231 163.222Z" fill="#8BC5E4"/>
<path fill-rule="evenodd" clip-rule="evenodd" d="M238.244 165.582L234.927 173.557L182.965 143.557L186.282 135.582L238.244 165.582Z" fill="#8BC5E4"/>
<path fill-rule="evenodd" clip-rule="evenodd" d="M234.927 173.557L251.624 165.367L199.662 135.367L182.965 143.557L234.927 173.557Z" fill="#8BC5E4"/>
<path fill-rule="evenodd" clip-rule="evenodd" d="M251.624 165.367L243.752 152.342L191.79 122.342L199.662 135.367L251.624 165.367Z" fill="#8BC5E4"/>
<path fill-rule="evenodd" clip-rule="evenodd" d="M243.752 152.342L240.435 160.317L188.473 130.317L191.79 122.342L243.752 152.342Z" fill="#8BC5E4"/>
<path fill-rule="evenodd" clip-rule="evenodd" d="M240.435 160.317L226.189 157.922L174.227 127.922L188.473 130.317L240.435 160.317Z" fill="#8BC5E4"/>
<path fill-rule="evenodd" clip-rule="evenodd" d="M226.189 157.922V141.932L174.227 111.932V127.922L226.189 157.922Z" fill="#8BC5E4"/>
<path fill-rule="evenodd" clip-rule="evenodd" d="M226.189 141.932L244.6 131.302L192.639 101.302L174.227 111.932L226.189 141.932Z" fill="#8BC5E4"/>
<path fill-rule="evenodd" clip-rule="evenodd" d="M244.6 131.302V138.492L192.639 108.492V101.302L244.6 131.302Z" fill="#8BC5E4"/>
<path fill-rule="evenodd" clip-rule="evenodd" d="M244.6 138.492L259.34 120.722L207.378 90.7225L192.639 108.492L244.6 138.492Z" fill="#8BC5E4"/>
<path fill-rule="evenodd" clip-rule="evenodd" d="M259.34 120.722L244.6 119.372L192.639 89.3725L207.378 90.7225L259.34 120.722Z" fill="#8BC5E4"/>
<path fill-rule="evenodd" clip-rule="evenodd" d="M244.6 119.372V126.562L192.639 96.5625V89.3725L244.6 119.372Z" fill="#8BC5E4"/>
<path fill-rule="evenodd" clip-rule="evenodd" d="M244.6 126.562L226.189 137.192L174.227 107.192L192.639 96.5625L244.6 126.562Z" fill="#8BC5E4"/>
<path fill-rule="evenodd" clip-rule="evenodd" d="M226.189 137.192V121.202L174.227 91.2025V107.192L226.189 137.192Z" fill="#8BC5E4"/>
<path fill-rule="evenodd" clip-rule="evenodd" d="M226.189 121.202L240.435 102.357L188.473 72.3575L174.227 91.2025L226.189 121.202Z" fill="#8BC5E4"/>
<path fill-rule="evenodd" clip-rule="evenodd" d="M240.435 102.357L243.752 106.502L191.79 76.5025L188.473 72.3575L240.435 102.357Z" fill="#8BC5E4"/>
<path fill-rule="evenodd" clip-rule="evenodd" d="M243.752 106.502L251.624 84.3875L199.662 54.3875L191.79 76.5025L243.752 106.502Z" fill="#8BC5E4"/>
<path fill-rule="evenodd" clip-rule="evenodd" d="M251.624 84.3875L199.662 54.3875L251.624 84.3875Z" fill="#8BC5E4"/>
<path fill-rule="evenodd" clip-rule="evenodd" d="M161.609 113.277V135.517L109.647 105.517V83.2775L161.609 113.277Z" fill="#8BC5E4"/>
<path fill-rule="evenodd" clip-rule="evenodd" d="M161.609 135.517L155.443 139.077L103.481 109.077L109.648 105.517L161.609 135.517Z" fill="#8BC5E4"/>
<path fill-rule="evenodd" clip-rule="evenodd" d="M155.443 139.077L163.895 151.387L111.934 121.387L103.481 109.077L155.443 139.077Z" fill="#8BC5E4"/>
<path fill-rule="evenodd" clip-rule="evenodd" d="M163.895 151.387L171.836 129.612L119.875 99.6125L111.934 121.387L163.895 151.387Z" fill="#8BC5E4"/>
<path fill-rule="evenodd" clip-rule="evenodd" d="M171.837 129.612L165.67 133.172L113.709 103.172L119.875 99.6125L171.837 129.612Z" fill="#8BC5E4"/>
<path fill-rule="evenodd" clip-rule="evenodd" d="M165.67 133.172V110.932L113.709 80.9325V103.172L165.67 133.172Z" fill="#8BC5E4"/>
<path fill-rule="evenodd" clip-rule="evenodd" d="M165.671 110.932L161.609 113.277L109.647 83.2775L113.709 80.9325L165.671 110.932Z" fill="#8BC5E4"/>
<path fill-rule="evenodd" clip-rule="evenodd" d="M161.609 113.277L109.647 83.2775L161.609 113.277Z" fill="#8BC5E4"/>
<path fill-rule="evenodd" clip-rule="evenodd" d="M62.4229 152.842L263.194 36.9275L211.232 6.92749L10.4614 122.842L62.4229 152.842Z" fill="#8BC5E4"/>
<path fill-rule="evenodd" clip-rule="evenodd" d="M268.936 40.3025V215.872L216.974 185.872V10.3025L268.936 40.3025Z" fill="#8BC5E4"/>
<path fill-rule="evenodd" clip-rule="evenodd" d="M263.194 225.887L62.4229 341.802L10.4614 311.802L211.232 195.887L263.194 225.887Z" fill="#8BC5E4"/>
<path fill-rule="evenodd" clip-rule="evenodd" d="M56.69 338.412V162.842L4.72852 132.842V308.412L56.69 338.412Z" fill="#8BC5E4"/>
<path fill-rule="evenodd" clip-rule="evenodd" d="M62.4229 152.842L10.4614 122.842L62.4229 152.842Z" fill="#8BC5E4"/>
<path fill-rule="evenodd" clip-rule="evenodd" d="M178.938 211.992V215.742L126.977 185.742V181.992L178.938 211.992Z" fill="#8BC5E4"/>
<path fill-rule="evenodd" clip-rule="evenodd" d="M178.938 215.742L189.634 209.567L137.672 179.567L126.977 185.742L178.938 215.742Z" fill="#8BC5E4"/>
<path fill-rule="evenodd" clip-rule="evenodd" d="M202.771 213.212L207.24 227.822L155.278 197.822L150.81 183.212L202.771 213.212Z" fill="#8BC5E4"/>
<path fill-rule="evenodd" clip-rule="evenodd" d="M207.24 227.822V227.832L155.278 197.832V197.822L207.24 227.822Z" fill="#8BC5E4"/>
<path fill-rule="evenodd" clip-rule="evenodd" d="M197.038 247.672L127.609 287.757L75.6475 257.757L145.077 217.672L197.038 247.672Z" fill="#8BC5E4"/>
<path fill-rule="evenodd" clip-rule="evenodd" d="M118.611 279.172L118.62 279.127L66.6581 249.127L66.6494 249.172L118.611 279.172Z" fill="#8BC5E4"/>
<path fill-rule="evenodd" clip-rule="evenodd" d="M118.62 279.127L122.456 260.282L70.4946 230.282L66.6582 249.127L118.62 279.127Z" fill="#8BC5E4"/>
<path fill-rule="evenodd" clip-rule="evenodd" d="M122.456 260.282L122.474 260.222L70.512 230.222L70.4946 230.282L122.456 260.282Z" fill="#8BC5E4"/>
<path fill-rule="evenodd" clip-rule="evenodd" d="M135.845 240.622L168.312 221.877L116.351 191.877L83.8833 210.622L135.845 240.622Z" fill="#8BC5E4"/>
<path fill-rule="evenodd" clip-rule="evenodd" d="M168.312 221.877L167.957 219.132L115.996 189.132L116.351 191.877L168.312 221.877Z" fill="#8BC5E4"/>
<path fill-rule="evenodd" clip-rule="evenodd" d="M168.996 212.282L117.035 182.282L168.996 212.282Z" fill="#8BC5E4"/>
<path fill-rule="evenodd" clip-rule="evenodd" d="M144.973 164.672L182.307 143.117L130.346 113.117L93.0112 134.672L144.973 164.672Z" fill="#8BC5E4"/>
<path fill-rule="evenodd" clip-rule="evenodd" d="M182.307 143.117V187.517L130.346 157.517V113.117L182.307 143.117Z" fill="#8BC5E4"/>
<path fill-rule="evenodd" clip-rule="evenodd" d="M182.307 187.517L144.973 209.072L93.0112 179.072L130.346 157.517L182.307 187.517Z" fill="#8BC5E4"/>
<path fill-rule="evenodd" clip-rule="evenodd" d="M144.973 209.072V164.672L93.0112 134.672V179.072L144.973 209.072Z" fill="#8BC5E4"/>
<path fill-rule="evenodd" clip-rule="evenodd" d="M144.973 164.672L93.0112 134.672L144.973 164.672Z" fill="#8BC5E4"/>
<path fill-rule="evenodd" clip-rule="evenodd" d="M83.528 199.297L75.6559 186.272L23.6943 156.272L31.5665 169.297L83.528 199.297Z" fill="#8BC5E4"/>
<path fill-rule="evenodd" clip-rule="evenodd" d="M75.6559 186.272L92.3528 178.082L40.3913 148.082L23.6943 156.272L75.6559 186.272Z" fill="#8BC5E4"/>
<path fill-rule="evenodd" clip-rule="evenodd" d="M92.3531 178.082L89.0362 186.057L37.0747 156.057L40.3916 148.082L92.3531 178.082Z" fill="#8BC5E4"/>
<path fill-rule="evenodd" clip-rule="evenodd" d="M89.0362 186.057L103.932 188.567L51.9704 158.567L37.0747 156.057L89.0362 186.057Z" fill="#8BC5E4"/>
<path fill-rule="evenodd" clip-rule="evenodd" d="M103.932 188.567L138.426 168.652L86.4639 138.652L51.9702 158.567L103.932 188.567Z" fill="#8BC5E4"/>
<path fill-rule="evenodd" clip-rule="evenodd" d="M138.425 168.652V213.042L86.4639 183.042V138.652L138.425 168.652Z" fill="#8BC5E4"/>
<path fill-rule="evenodd" clip-rule="evenodd" d="M138.426 213.042L103.048 233.467L51.0869 203.467L86.464 183.042L138.426 213.042Z" fill="#8BC5E4"/>
<path fill-rule="evenodd" clip-rule="evenodd" d="M103.049 233.467L89.0362 252.007L37.0747 222.007L51.087 203.467L103.049 233.467Z" fill="#8BC5E4"/>
<path fill-rule="evenodd" clip-rule="evenodd" d="M89.0362 252.007L92.3531 256.152L40.3916 226.152L37.0747 222.007L89.0362 252.007Z" fill="#8BC5E4"/>
<path fill-rule="evenodd" clip-rule="evenodd" d="M92.3528 256.152L75.6559 267.242L23.6943 237.242L40.3913 226.152L92.3528 256.152Z" fill="#8BC5E4"/>
<path fill-rule="evenodd" clip-rule="evenodd" d="M75.6559 267.242L83.528 245.137L31.5665 215.137L23.6943 237.242L75.6559 267.242Z" fill="#8BC5E4"/>
<path fill-rule="evenodd" clip-rule="evenodd" d="M83.5279 245.137L86.8448 249.272L34.8833 219.272L31.5664 215.137L83.5279 245.137Z" fill="#8BC5E4"/>
<path fill-rule="evenodd" clip-rule="evenodd" d="M86.8448 249.272L101.091 230.427L49.1294 200.427L34.8833 219.272L86.8448 249.272Z" fill="#8BC5E4"/>
<path fill-rule="evenodd" clip-rule="evenodd" d="M101.091 230.427V214.447L49.1294 184.447V200.427L101.091 230.427Z" fill="#8BC5E4"/>
<path fill-rule="evenodd" clip-rule="evenodd" d="M101.091 214.447L82.6793 225.077L30.7178 195.077L49.1295 184.447L101.091 214.447Z" fill="#8BC5E4"/>
<path fill-rule="evenodd" clip-rule="evenodd" d="M82.6793 225.077V232.267L30.7178 202.267V195.077L82.6793 225.077Z" fill="#8BC5E4"/>
<path fill-rule="evenodd" clip-rule="evenodd" d="M82.6794 232.267L67.9483 231.502L15.9868 201.502L30.7179 202.267L82.6794 232.267Z" fill="#8BC5E4"/>
<path fill-rule="evenodd" clip-rule="evenodd" d="M67.9483 231.502L82.6794 213.137L30.7179 183.137L15.9868 201.502L67.9483 231.502Z" fill="#8BC5E4"/>
<path fill-rule="evenodd" clip-rule="evenodd" d="M82.6793 213.137V220.327L30.7178 190.327V183.137L82.6793 213.137Z" fill="#8BC5E4"/>
<path fill-rule="evenodd" clip-rule="evenodd" d="M82.6793 220.327L101.091 209.697L49.1295 179.697L30.7178 190.327L82.6793 220.327Z" fill="#8BC5E4"/>
<path fill-rule="evenodd" clip-rule="evenodd" d="M101.091 209.697V193.717L49.1294 163.717V179.697L101.091 209.697Z" fill="#8BC5E4"/>
<path fill-rule="evenodd" clip-rule="evenodd" d="M101.091 193.717L86.8448 191.322L34.8833 161.322L49.1294 163.717L101.091 193.717Z" fill="#8BC5E4"/>
<path fill-rule="evenodd" clip-rule="evenodd" d="M86.8448 191.322L83.5279 199.297L31.5664 169.297L34.8833 161.322L86.8448 191.322Z" fill="#8BC5E4"/>
<path fill-rule="evenodd" clip-rule="evenodd" d="M83.5279 199.297L31.5664 169.297L83.5279 199.297Z" fill="#8BC5E4"/>
<path fill-rule="evenodd" clip-rule="evenodd" d="M234.927 95.4875L251.624 84.3875L199.662 54.3875L182.965 65.4875L234.927 95.4875Z" fill="#8BC5E4"/>
<path fill-rule="evenodd" clip-rule="evenodd" d="M251.624 84.3875L243.752 106.502L191.79 76.5025L199.662 54.3875L251.624 84.3875Z" fill="#8BC5E4"/>
<path fill-rule="evenodd" clip-rule="evenodd" d="M243.752 106.502L240.435 102.357L188.473 72.3575L191.79 76.5025L243.752 106.502Z" fill="#8BC5E4"/>
<path fill-rule="evenodd" clip-rule="evenodd" d="M240.435 102.357L226.189 121.202L174.227 91.2025L188.473 72.3575L240.435 102.357Z" fill="#8BC5E4"/>
<path fill-rule="evenodd" clip-rule="evenodd" d="M226.189 121.202V137.192L174.227 107.192V91.2025L226.189 121.202Z" fill="#8BC5E4"/>
<path fill-rule="evenodd" clip-rule="evenodd" d="M226.189 137.192L244.6 126.562L192.639 96.5625L174.227 107.192L226.189 137.192Z" fill="#8BC5E4"/>
<path fill-rule="evenodd" clip-rule="evenodd" d="M244.6 126.562V119.372L192.639 89.3725V96.5625L244.6 126.562Z" fill="#8BC5E4"/>
<path fill-rule="evenodd" clip-rule="evenodd" d="M244.6 119.372L259.34 120.722L207.378 90.7225L192.639 89.3725L244.6 119.372Z" fill="#8BC5E4"/>
<path fill-rule="evenodd" clip-rule="evenodd" d="M259.34 120.722L244.6 138.492L192.639 108.492L207.378 90.7225L259.34 120.722Z" fill="#8BC5E4"/>
<path fill-rule="evenodd" clip-rule="evenodd" d="M244.6 138.492V131.302L192.639 101.302V108.492L244.6 138.492Z" fill="#8BC5E4"/>
<path fill-rule="evenodd" clip-rule="evenodd" d="M244.6 131.302L226.189 141.932L174.227 111.932L192.639 101.302L244.6 131.302Z" fill="#8BC5E4"/>
<path fill-rule="evenodd" clip-rule="evenodd" d="M226.189 141.932V157.922L174.227 127.922V111.932L226.189 141.932Z" fill="#8BC5E4"/>
<path fill-rule="evenodd" clip-rule="evenodd" d="M226.189 157.922L240.435 160.317L188.473 130.317L174.227 127.922L226.189 157.922Z" fill="#8BC5E4"/>
<path fill-rule="evenodd" clip-rule="evenodd" d="M240.435 160.317L243.752 152.342L191.79 122.342L188.473 130.317L240.435 160.317Z" fill="#8BC5E4"/>
<path fill-rule="evenodd" clip-rule="evenodd" d="M243.752 152.342L251.624 165.367L199.662 135.367L191.79 122.342L243.752 152.342Z" fill="#8BC5E4"/>
<path fill-rule="evenodd" clip-rule="evenodd" d="M251.624 165.367L234.927 173.557L182.965 143.557L199.662 135.367L251.624 165.367Z" fill="#8BC5E4"/>
<path fill-rule="evenodd" clip-rule="evenodd" d="M234.927 173.557L238.244 165.582L186.282 135.582L182.965 143.557L234.927 173.557Z" fill="#8BC5E4"/>
<path fill-rule="evenodd" clip-rule="evenodd" d="M238.243 165.582L224.231 163.222L172.27 133.222L186.282 135.582L238.243 165.582Z" fill="#8BC5E4"/>
<path fill-rule="evenodd" clip-rule="evenodd" d="M224.231 163.222L188.854 183.647L136.893 153.647L172.27 133.222L224.231 163.222Z" fill="#8BC5E4"/>
<path fill-rule="evenodd" clip-rule="evenodd" d="M188.854 183.647V139.247L136.893 109.247V153.647L188.854 183.647Z" fill="#8BC5E4"/>
<path fill-rule="evenodd" clip-rule="evenodd" d="M188.854 139.247L223.348 119.332L171.386 89.3325L136.893 109.247L188.854 139.247Z" fill="#8BC5E4"/>
<path fill-rule="evenodd" clip-rule="evenodd" d="M223.348 119.332L238.243 99.6225L186.282 69.6225L171.386 89.3325L223.348 119.332Z" fill="#8BC5E4"/>
<path fill-rule="evenodd" clip-rule="evenodd" d="M238.244 99.6225L234.927 95.4875L182.965 65.4875L186.282 69.6225L238.244 99.6225Z" fill="#8BC5E4"/>
<path fill-rule="evenodd" clip-rule="evenodd" d="M234.927 95.4875L182.965 65.4875L234.927 95.4875Z" fill="#8BC5E4"/>
<path fill-rule="evenodd" clip-rule="evenodd" d="M161.609 135.517V113.277L109.647 83.2775V105.517L161.609 135.517Z" fill="#8BC5E4"/>
<path fill-rule="evenodd" clip-rule="evenodd" d="M161.609 113.277L165.671 110.932L113.709 80.9325L109.647 83.2775L161.609 113.277Z" fill="#8BC5E4"/>
<path fill-rule="evenodd" clip-rule="evenodd" d="M165.67 110.932V133.172L113.709 103.172V80.9325L165.67 110.932Z" fill="#8BC5E4"/>
<path fill-rule="evenodd" clip-rule="evenodd" d="M165.67 133.172L171.837 129.612L119.875 99.6125L113.709 103.172L165.67 133.172Z" fill="#8BC5E4"/>
<path fill-rule="evenodd" clip-rule="evenodd" d="M171.836 129.612L163.895 151.387L111.934 121.387L119.875 99.6125L171.836 129.612Z" fill="#8BC5E4"/>
<path fill-rule="evenodd" clip-rule="evenodd" d="M163.895 151.387L155.443 139.077L103.481 109.077L111.934 121.387L163.895 151.387Z" fill="#8BC5E4"/>
<path fill-rule="evenodd" clip-rule="evenodd" d="M155.443 139.077L161.609 135.517L109.648 105.517L103.481 109.077L155.443 139.077Z" fill="#8BC5E4"/>
<path fill-rule="evenodd" clip-rule="evenodd" d="M161.609 135.517L109.647 105.517L161.609 135.517Z" fill="#8BC5E4"/>
<path fill-rule="evenodd" clip-rule="evenodd" d="M135.845 243.752L168.685 224.792L116.723 194.792L83.8833 213.752L135.845 243.752Z" fill="#8BC5E4"/>
<path fill-rule="evenodd" clip-rule="evenodd" d="M168.684 224.792L170.061 235.477L118.1 205.477L116.723 194.792L168.684 224.792Z" fill="#8BC5E4"/>
<path fill-rule="evenodd" clip-rule="evenodd" d="M178.956 230.822L178.947 218.867L126.985 188.867L126.994 200.822L178.956 230.822Z" fill="#8BC5E4"/>
<path fill-rule="evenodd" clip-rule="evenodd" d="M178.947 218.867L189.634 212.697L137.672 182.697L126.985 188.867L178.947 218.867Z" fill="#8BC5E4"/>
<path fill-rule="evenodd" clip-rule="evenodd" d="M200.199 215.577L204.668 230.207L152.706 200.207L148.237 185.577L200.199 215.577Z" fill="#8BC5E4"/>
<path fill-rule="evenodd" clip-rule="evenodd" d="M197.038 244.542L127.609 284.627L75.6475 254.627L145.077 214.542L197.038 244.542Z" fill="#8BC5E4"/>
<path fill-rule="evenodd" clip-rule="evenodd" d="M121.226 278.322L125.011 259.767L73.0491 229.767L69.2646 248.322L121.226 278.322Z" fill="#8BC5E4"/>
<path fill-rule="evenodd" clip-rule="evenodd" d="M135.845 243.752L83.8833 213.752L135.845 243.752Z" fill="#8BC5E4"/>
<path fill-rule="evenodd" clip-rule="evenodd" d="M173.136 211.952L121.174 181.952L173.136 211.952Z" fill="#8BC5E4"/>
<path fill-rule="evenodd" clip-rule="evenodd" d="M104.668 192.312L134.849 174.887L82.8871 144.887L52.7061 162.312L104.668 192.312Z" fill="#8BC5E4"/>
<path fill-rule="evenodd" clip-rule="evenodd" d="M134.849 174.887V210.947L82.8872 180.947V144.887L134.849 174.887Z" fill="#8BC5E4"/>
<path fill-rule="evenodd" clip-rule="evenodd" d="M134.849 210.947L104.668 228.372L52.7061 198.372L82.8871 180.947L134.849 210.947Z" fill="#8BC5E4"/>
<path fill-rule="evenodd" clip-rule="evenodd" d="M104.668 228.372V192.312L52.7061 162.312V198.372L104.668 228.372Z" fill="#8BC5E4"/>
<path fill-rule="evenodd" clip-rule="evenodd" d="M104.668 192.312L52.7061 162.312L104.668 192.312Z" fill="#8BC5E4"/>
<path fill-rule="evenodd" clip-rule="evenodd" d="M148.549 166.777L178.73 149.352L126.769 119.352L96.5879 136.777L148.549 166.777Z" fill="#8BC5E4"/>
<path fill-rule="evenodd" clip-rule="evenodd" d="M178.73 149.352V185.412L126.769 155.412V119.352L178.73 149.352Z" fill="#8BC5E4"/>
<path fill-rule="evenodd" clip-rule="evenodd" d="M178.73 185.412L148.549 202.837L96.5879 172.837L126.769 155.412L178.73 185.412Z" fill="#8BC5E4"/>
<path fill-rule="evenodd" clip-rule="evenodd" d="M148.549 202.837V166.777L96.5879 136.777V172.837L148.549 202.837Z" fill="#8BC5E4"/>
<path fill-rule="evenodd" clip-rule="evenodd" d="M148.549 166.777L96.5879 136.777L148.549 166.777Z" fill="#8BC5E4"/>
<path fill-rule="evenodd" clip-rule="evenodd" d="M192.431 141.352L222.612 123.927L170.65 93.9275L140.469 111.352L192.431 141.352Z" fill="#8BC5E4"/>
<path fill-rule="evenodd" clip-rule="evenodd" d="M222.612 123.927V159.987L170.65 129.987V93.9275L222.612 123.927Z" fill="#8BC5E4"/>
<path fill-rule="evenodd" clip-rule="evenodd" d="M222.612 159.987L192.431 177.412L140.469 147.412L170.65 129.987L222.612 159.987Z" fill="#8BC5E4"/>
<path fill-rule="evenodd" clip-rule="evenodd" d="M192.431 177.412V141.352L140.469 111.352V147.412L192.431 177.412Z" fill="#8BC5E4"/>
<path fill-rule="evenodd" clip-rule="evenodd" d="M192.431 141.352L140.469 111.352L192.431 141.352Z" fill="#8BC5E4"/>
<path fill-rule="evenodd" clip-rule="evenodd" d="M263.194 36.9275C264.736 36.0375 266.117 35.9115 267.138 36.4335L215.176 6.43348C214.155 5.91148 212.774 6.03748 211.232 6.92748L263.194 36.9275Z" fill="#8BC5E4"/>
<path fill-rule="evenodd" clip-rule="evenodd" d="M267.135 36.4325C268.248 37.0005 268.934 38.3385 268.935 40.2965L216.974 10.2965C216.973 8.3385 216.287 7.0005 215.174 6.4325L267.135 36.4325Z" fill="#8BC5E4"/>
<path fill-rule="evenodd" clip-rule="evenodd" d="M268.936 215.872C268.936 219.632 266.416 224.027 263.194 225.887L211.232 195.887C214.454 194.027 216.974 189.632 216.974 185.872L268.936 215.872Z" fill="#8BC5E4"/>
<path fill-rule="evenodd" clip-rule="evenodd" d="M62.4233 341.802C60.8797 342.693 59.4957 342.813 58.4747 342.281L6.51318 312.281C7.53418 312.813 8.91818 312.693 10.4618 311.802L62.4233 341.802Z" fill="#8BC5E4"/>
<path fill-rule="evenodd" clip-rule="evenodd" d="M58.4755 342.281C57.3715 341.706 56.6915 340.369 56.6905 338.418L4.729 308.418C4.73 310.369 5.41 311.706 6.514 312.281L58.4755 342.281Z" fill="#8BC5E4"/>
<path fill-rule="evenodd" clip-rule="evenodd" d="M56.69 162.842C56.69 159.082 59.2101 154.697 62.4231 152.842L10.4616 122.842C7.24862 124.697 4.72852 129.082 4.72852 132.842L56.69 162.842Z" fill="#8BC5E4"/>
<path fill-rule="evenodd" clip-rule="evenodd" d="M62.4231 147.322C56.6727 150.642 51.9615 158.852 51.9615 165.572L0 135.572C0 128.852 4.7112 120.642 10.4616 117.322L62.4231 147.322Z" fill="#8BC5E4"/>
<path fill-rule="evenodd" clip-rule="evenodd" d="M51.9615 341.142C51.9615 344.64 53.2375 347.07 55.2725 348.128L3.311 318.128C1.276 317.07 0 314.64 0 311.142L51.9615 341.142Z" fill="#8BC5E4"/>
<path fill-rule="evenodd" clip-rule="evenodd" d="M55.2813 348.133C57.1533 349.102 59.6643 348.912 62.4143 347.327L10.4528 317.327C7.70282 318.912 5.19182 319.102 3.31982 318.133L55.2813 348.133Z" fill="#8BC5E4"/>
<path fill-rule="evenodd" clip-rule="evenodd" d="M263.194 231.407C268.953 228.082 273.664 219.862 273.664 213.142L221.703 183.142C221.703 189.862 216.992 198.082 211.232 201.407L263.194 231.407Z" fill="#8BC5E4"/>
<path fill-rule="evenodd" clip-rule="evenodd" d="M273.664 37.5725C273.664 34.0685 272.382 31.6375 270.339 30.5865L218.378 0.586487C220.421 1.63749 221.703 4.06849 221.702 7.57249L273.664 37.5725Z" fill="#8BC5E4"/>
<path fill-rule="evenodd" clip-rule="evenodd" d="M270.344 30.5875C268.471 29.6215 265.957 29.8155 263.203 31.4025L211.241 1.40249C213.995 -0.184512 216.509 -0.378512 218.382 0.587488L270.344 30.5875Z" fill="#8BC5E4"/>
<path fill-rule="evenodd" clip-rule="evenodd" d="M173.136 208.832C171.577 209.732 170.139 210.922 168.996 212.282L117.035 182.282C118.178 180.922 119.615 179.732 121.174 178.832L173.136 208.832Z" fill="#8BC5E4"/>
<path fill-rule="evenodd" clip-rule="evenodd" d="M168.996 212.282C167.845 213.657 166.814 215.432 166.814 217.082L114.853 187.082C114.853 185.432 115.883 183.657 117.035 182.282L168.996 212.282Z" fill="#8BC5E4"/>
<path fill-rule="evenodd" clip-rule="evenodd" d="M166.814 217.082C166.814 218.097 167.205 218.714 167.775 219.04L115.813 189.04C115.243 188.714 114.852 188.097 114.853 187.082L166.814 217.082Z" fill="#8BC5E4"/>
<path fill-rule="evenodd" clip-rule="evenodd" d="M167.782 219.045C167.836 219.075 167.892 219.103 167.949 219.129L115.988 189.129C115.931 189.103 115.875 189.075 115.821 189.045L167.782 219.045Z" fill="#8BC5E4"/>
<path fill-rule="evenodd" clip-rule="evenodd" d="M135.845 240.622C132.511 242.547 129.54 245.932 127.245 249.537L75.2837 219.537C77.5786 215.932 80.5491 212.547 83.8833 210.622L135.845 240.622Z" fill="#8BC5E4"/>
<path fill-rule="evenodd" clip-rule="evenodd" d="M127.245 249.537C124.95 253.142 123.279 256.987 122.473 260.222L70.5117 230.222C71.3171 226.987 72.9885 223.142 75.2835 219.537L127.245 249.537Z" fill="#8BC5E4"/>
<path fill-rule="evenodd" clip-rule="evenodd" d="M118.611 279.172C117.961 283.057 119.2 285.752 120.992 287.237L69.0308 257.237C67.2381 255.752 65.9997 253.057 66.6492 249.172L118.611 279.172Z" fill="#8BC5E4"/>
<path fill-rule="evenodd" clip-rule="evenodd" d="M120.992 287.237C121.287 287.48 121.598 287.695 121.922 287.879L69.9609 257.879C69.6369 257.695 69.3259 257.48 69.0308 257.237L120.992 287.237Z" fill="#8BC5E4"/>
<path fill-rule="evenodd" clip-rule="evenodd" d="M121.921 287.878C123.571 288.814 125.561 288.935 127.601 287.761L75.64 257.761C73.6 258.935 71.61 258.814 69.96 257.878L121.921 287.878Z" fill="#8BC5E4"/>
<path fill-rule="evenodd" clip-rule="evenodd" d="M197.038 247.672C199.957 245.987 202.832 242.607 204.867 238.892L152.905 208.892C150.87 212.607 147.995 215.987 145.077 217.672L197.038 247.672Z" fill="#8BC5E4"/>
<path fill-rule="evenodd" clip-rule="evenodd" d="M204.867 238.892C206.911 235.172 208.149 230.897 207.24 227.832L155.278 197.832C156.188 200.897 154.949 205.172 152.905 208.892L204.867 238.892Z" fill="#8BC5E4"/>
<path fill-rule="evenodd" clip-rule="evenodd" d="M202.771 213.212C202.136 211.027 200.93 209.564 199.411 208.718L147.449 178.718C148.968 179.564 150.174 181.027 150.81 183.212L202.771 213.212Z" fill="#8BC5E4"/>
<path fill-rule="evenodd" clip-rule="evenodd" d="M199.413 208.719C196.673 207.192 192.913 207.677 189.642 209.563L137.68 179.563C140.951 177.677 144.711 177.192 147.451 178.719L199.413 208.719Z" fill="#8BC5E4"/>
<path fill-rule="evenodd" clip-rule="evenodd" d="M178.938 211.992C179.267 211.262 179.466 210.507 179.466 209.777L127.505 179.777C127.505 180.507 127.306 181.262 126.977 181.992L178.938 211.992Z" fill="#8BC5E4"/>
<path fill-rule="evenodd" clip-rule="evenodd" d="M179.466 209.777C179.467 208.913 179.185 208.341 178.75 207.986L126.788 177.986C127.223 178.341 127.505 178.913 127.505 179.777L179.466 209.777Z" fill="#8BC5E4"/>
<path fill-rule="evenodd" clip-rule="evenodd" d="M178.74 207.979C178.668 207.921 178.592 207.869 178.513 207.822L126.552 177.822C126.631 177.869 126.707 177.921 126.779 177.979L178.74 207.979Z" fill="#8BC5E4"/>
<path fill-rule="evenodd" clip-rule="evenodd" d="M178.506 207.817C178.153 207.612 177.731 207.515 177.291 207.497L125.329 177.497C125.769 177.515 126.191 177.612 126.544 177.817L178.506 207.817Z" fill="#8BC5E4"/>
<path fill-rule="evenodd" clip-rule="evenodd" d="M177.284 207.497C176.132 207.462 174.703 207.927 173.136 208.832L121.174 178.832C122.742 177.927 124.171 177.462 125.323 177.497L177.284 207.497Z" fill="#8BC5E4"/>
<path fill-rule="evenodd" clip-rule="evenodd" d="M263.194 36.9275C264.736 36.0375 266.117 35.9115 267.138 36.4335L215.176 6.43348C214.155 5.91148 212.774 6.03748 211.232 6.92748L263.194 36.9275Z" fill="#8BC5E4"/>
<path fill-rule="evenodd" clip-rule="evenodd" d="M267.135 36.4325C268.248 37.0005 268.934 38.3385 268.935 40.2965L216.974 10.2965C216.973 8.3385 216.287 7.0005 215.174 6.4325L267.135 36.4325Z" fill="#8BC5E4"/>
<path fill-rule="evenodd" clip-rule="evenodd" d="M268.936 215.872C268.936 219.632 266.416 224.027 263.194 225.887L211.232 195.887C214.454 194.027 216.974 189.632 216.974 185.872L268.936 215.872Z" fill="#8BC5E4"/>
<path fill-rule="evenodd" clip-rule="evenodd" d="M62.4233 341.802C60.8797 342.693 59.4957 342.813 58.4747 342.281L6.51318 312.281C7.53418 312.813 8.91818 312.693 10.4618 311.802L62.4233 341.802Z" fill="#8BC5E4"/>
<path fill-rule="evenodd" clip-rule="evenodd" d="M58.4755 342.281C57.3715 341.706 56.6915 340.369 56.6905 338.418L4.729 308.418C4.73 310.369 5.41 311.706 6.514 312.281L58.4755 342.281Z" fill="#8BC5E4"/>
<path fill-rule="evenodd" clip-rule="evenodd" d="M56.69 162.842C56.69 159.082 59.2101 154.697 62.4231 152.842L10.4616 122.842C7.24862 124.697 4.72852 129.082 4.72852 132.842L56.69 162.842Z" fill="#8BC5E4"/>
<path fill-rule="evenodd" clip-rule="evenodd" d="M168.996 212.282C170.139 210.922 171.577 209.732 173.136 208.832L121.174 178.832C119.615 179.732 118.178 180.922 117.035 182.282L168.996 212.282Z" fill="#8BC5E4"/>
<path fill-rule="evenodd" clip-rule="evenodd" d="M173.136 208.832C174.703 207.927 176.132 207.462 177.284 207.497L125.323 177.497C124.171 177.462 122.742 177.927 121.174 178.832L173.136 208.832Z" fill="#8BC5E4"/>
<path fill-rule="evenodd" clip-rule="evenodd" d="M177.284 207.497C177.729 207.514 178.156 207.613 178.513 207.822L126.552 177.822C126.195 177.613 125.768 177.514 125.322 177.497L177.284 207.497Z" fill="#8BC5E4"/>
<path fill-rule="evenodd" clip-rule="evenodd" d="M178.515 207.823C178.597 207.871 178.676 207.925 178.75 207.986L126.788 177.986C126.714 177.925 126.635 177.871 126.553 177.823L178.515 207.823Z" fill="#8BC5E4"/>
<path fill-rule="evenodd" clip-rule="evenodd" d="M178.748 207.984C179.182 208.338 179.465 208.908 179.467 209.767L127.505 179.767C127.503 178.908 127.22 178.338 126.786 177.984L178.748 207.984Z" fill="#8BC5E4"/>
<path fill-rule="evenodd" clip-rule="evenodd" d="M179.466 209.777C179.466 210.507 179.267 211.262 178.938 211.992L126.977 181.992C127.306 181.262 127.505 180.507 127.505 179.777L179.466 209.777Z" fill="#8BC5E4"/>
<path fill-rule="evenodd" clip-rule="evenodd" d="M189.633 209.567C192.905 207.678 196.668 207.191 199.41 208.718L147.449 178.718C144.707 177.191 140.944 177.678 137.672 179.567L189.633 209.567Z" fill="#8BC5E4"/>
<path fill-rule="evenodd" clip-rule="evenodd" d="M199.406 208.716C200.925 209.56 202.131 211.021 202.768 213.203L150.807 183.203C150.17 181.021 148.964 179.56 147.445 178.716L199.406 208.716Z" fill="#8BC5E4"/>
<path fill-rule="evenodd" clip-rule="evenodd" d="M207.24 227.832C208.149 230.897 206.911 235.172 204.867 238.892L152.905 208.892C154.949 205.172 156.188 200.897 155.278 197.832L207.24 227.832Z" fill="#8BC5E4"/>
<path fill-rule="evenodd" clip-rule="evenodd" d="M204.867 238.892C202.832 242.607 199.957 245.987 197.038 247.672L145.077 217.672C147.995 215.987 150.87 212.607 152.905 208.892L204.867 238.892Z" fill="#8BC5E4"/>
<path fill-rule="evenodd" clip-rule="evenodd" d="M127.609 287.757C125.777 288.815 123.984 288.826 122.442 288.141L70.481 258.141C72.023 258.826 73.816 258.815 75.6473 257.757L127.609 287.757Z" fill="#8BC5E4"/>
<path fill-rule="evenodd" clip-rule="evenodd" d="M122.436 288.138C122.261 288.061 122.09 287.974 121.922 287.879L69.9609 257.879C70.1289 257.974 70.2999 258.061 70.4749 258.138L122.436 288.138Z" fill="#8BC5E4"/>
<path fill-rule="evenodd" clip-rule="evenodd" d="M121.928 287.881C121.604 287.698 121.293 287.483 120.998 287.241L69.0361 257.241C69.3311 257.483 69.6421 257.698 69.9661 257.881L121.928 287.881Z" fill="#8BC5E4"/>
<path fill-rule="evenodd" clip-rule="evenodd" d="M120.992 287.237C119.2 285.752 117.961 283.057 118.611 279.172L66.6492 249.172C65.9997 253.057 67.2381 255.752 69.0308 257.237L120.992 287.237Z" fill="#8BC5E4"/>
<path fill-rule="evenodd" clip-rule="evenodd" d="M122.473 260.222C123.279 256.987 124.95 253.142 127.245 249.537L75.2835 219.537C72.9885 223.142 71.3171 226.987 70.5117 230.222L122.473 260.222Z" fill="#8BC5E4"/>
<path fill-rule="evenodd" clip-rule="evenodd" d="M127.245 249.537C129.54 245.932 132.511 242.547 135.845 240.622L83.8833 210.622C80.5491 212.547 77.5786 215.932 75.2837 219.537L127.245 249.537Z" fill="#8BC5E4"/>
<path fill-rule="evenodd" clip-rule="evenodd" d="M167.957 219.132C167.894 219.104 167.833 219.074 167.774 219.04L115.813 189.04C115.872 189.074 115.933 189.104 115.995 189.132L167.957 219.132Z" fill="#8BC5E4"/>
<path fill-rule="evenodd" clip-rule="evenodd" d="M167.776 219.04C167.207 218.715 166.816 218.099 166.814 217.089L114.852 187.089C114.854 188.099 115.245 188.715 115.814 189.04L167.776 219.04Z" fill="#8BC5E4"/>
<path fill-rule="evenodd" clip-rule="evenodd" d="M166.814 217.082C166.814 215.432 167.845 213.657 168.996 212.282L117.035 182.282C115.883 183.657 114.853 185.432 114.853 187.082L166.814 217.082Z" fill="#8BC5E4"/>
<path fill-rule="evenodd" clip-rule="evenodd" d="M170.061 235.477C170.192 236.524 170.628 237.285 171.304 237.681L119.343 207.681C118.667 207.285 118.231 206.524 118.1 205.477L170.061 235.477Z" fill="#8BC5E4"/>
<path fill-rule="evenodd" clip-rule="evenodd" d="M171.302 237.68C172.183 238.198 173.471 238.096 175.024 237.202L123.063 207.202C121.51 208.096 120.222 208.198 119.341 207.68L171.302 237.68Z" fill="#8BC5E4"/>
<path fill-rule="evenodd" clip-rule="evenodd" d="M175.032 237.197C177.57 235.732 178.956 232.992 178.956 230.822L126.994 200.822C126.994 202.992 125.608 205.732 123.071 207.197L175.032 237.197Z" fill="#8BC5E4"/>
<path fill-rule="evenodd" clip-rule="evenodd" d="M189.633 212.697C192.214 211.207 195.568 210.901 197.867 212.36L145.906 182.36C143.607 180.901 140.253 181.207 137.672 182.697L189.633 212.697Z" fill="#8BC5E4"/>
<path fill-rule="evenodd" clip-rule="evenodd" d="M197.864 212.358C198.928 213.032 199.766 214.084 200.197 215.57L148.236 185.57C147.805 184.084 146.967 183.032 145.903 182.358L197.864 212.358Z" fill="#8BC5E4"/>
<path fill-rule="evenodd" clip-rule="evenodd" d="M204.668 230.207C205.248 232.182 204.477 235.027 202.91 237.892L150.948 207.892C152.516 205.027 153.287 202.182 152.706 200.207L204.668 230.207Z" fill="#8BC5E4"/>
<path fill-rule="evenodd" clip-rule="evenodd" d="M202.91 237.892C201.342 240.747 199.013 243.402 197.038 244.542L145.077 214.542C147.051 213.402 149.381 210.747 150.948 207.892L202.91 237.892Z" fill="#8BC5E4"/>
<path fill-rule="evenodd" clip-rule="evenodd" d="M127.609 284.627C126.722 285.139 125.302 285.208 124.05 284.658L72.0889 254.658C73.3409 255.208 74.7609 255.139 75.6472 254.627L127.609 284.627Z" fill="#8BC5E4"/>
<path fill-rule="evenodd" clip-rule="evenodd" d="M124.046 284.657C123.929 284.605 123.812 284.548 123.698 284.485L71.7368 254.485C71.8508 254.548 71.9678 254.605 72.0848 254.657L124.046 284.657Z" fill="#8BC5E4"/>
<path fill-rule="evenodd" clip-rule="evenodd" d="M123.703 284.486C123.479 284.363 123.262 284.218 123.058 284.05L71.0962 254.05C71.3002 254.218 71.5172 254.363 71.7412 254.486L123.703 284.486Z" fill="#8BC5E4"/>
<path fill-rule="evenodd" clip-rule="evenodd" d="M123.054 284.047C121.642 282.882 120.819 280.827 121.226 278.322L69.2648 248.322C68.8577 250.827 69.6805 252.882 71.0921 254.047L123.054 284.047Z" fill="#8BC5E4"/>
<path fill-rule="evenodd" clip-rule="evenodd" d="M125.011 259.767C125.634 257.267 127.063 253.922 128.977 250.917L77.0157 220.917C75.1018 223.922 73.6728 227.267 73.0493 229.767L125.011 259.767Z" fill="#8BC5E4"/>
<path fill-rule="evenodd" clip-rule="evenodd" d="M128.977 250.917C130.9 247.897 133.273 245.237 135.845 243.752L83.8832 213.752C81.3111 215.237 78.9382 217.897 77.0156 220.917L128.977 250.917Z" fill="#8BC5E4"/>
<path fill-rule="evenodd" clip-rule="evenodd" d="M173.136 211.952C174.331 211.262 175.388 210.972 176.046 210.992L124.084 180.992C123.426 180.972 122.37 181.262 121.174 181.952L173.136 211.952Z" fill="#8BC5E4"/>
<path fill-rule="evenodd" clip-rule="evenodd" d="M176.045 210.992C176.329 210.999 176.507 211.057 176.618 211.123L124.657 181.123C124.546 181.057 124.368 180.999 124.084 180.992L176.045 210.992Z" fill="#8BC5E4"/>
<path fill-rule="evenodd" clip-rule="evenodd" d="M176.62 211.124C176.745 211.199 176.783 211.284 176.79 211.314L124.828 181.314C124.821 181.284 124.783 181.199 124.658 181.124L176.62 211.124Z" fill="#8BC5E4"/>
<path fill-rule="evenodd" clip-rule="evenodd" d="M176.79 211.322C176.79 211.352 176.695 211.737 176.045 212.512L124.084 182.512C124.733 181.737 124.829 181.352 124.829 181.322L176.79 211.322Z" fill="#8BC5E4"/>
<path fill-rule="evenodd" clip-rule="evenodd" d="M176.046 212.512C175.388 213.292 174.331 214.212 173.136 214.902L121.174 184.902C122.37 184.212 123.426 183.292 124.084 182.512L176.046 212.512Z" fill="#8BC5E4"/>
<path fill-rule="evenodd" clip-rule="evenodd" d="M173.136 214.902C171.949 215.587 170.884 215.892 170.234 215.867L118.273 185.867C118.922 185.892 119.988 185.587 121.174 184.902L173.136 214.902Z" fill="#8BC5E4"/>
<path fill-rule="evenodd" clip-rule="evenodd" d="M170.234 215.867C169.946 215.858 169.768 215.8 169.658 215.734L117.697 185.734C117.807 185.8 117.985 185.858 118.273 185.867L170.234 215.867Z" fill="#8BC5E4"/>
<path fill-rule="evenodd" clip-rule="evenodd" d="M169.667 215.74C169.534 215.663 169.497 215.576 169.49 215.545L117.529 185.545C117.536 185.576 117.573 185.663 117.706 185.74L169.667 215.74Z" fill="#8BC5E4"/>
<path fill-rule="evenodd" clip-rule="evenodd" d="M169.49 215.537C169.49 215.507 169.576 215.117 170.235 214.347L118.273 184.347C117.615 185.117 117.528 185.507 117.528 185.537L169.49 215.537Z" fill="#8BC5E4"/>
<path fill-rule="evenodd" clip-rule="evenodd" d="M170.234 214.347C170.884 213.572 171.949 212.637 173.136 211.952L121.174 181.952C119.988 182.637 118.922 183.572 118.273 184.347L170.234 214.347Z" fill="#8BC5E4"/>
<path fill-rule="evenodd" clip-rule="evenodd" d="M62.423 152.842L263.194 36.9275C266.415 35.0675 268.935 36.5425 268.935 40.3025V215.872C268.935 219.632 266.415 224.027 263.194 225.887L62.423 341.802C59.2101 343.658 56.6899 342.172 56.6899 338.412V162.842C56.6899 159.082 59.2101 154.697 62.423 152.842ZM83.5281 199.297L75.6559 186.272L92.3529 178.082L89.036 186.057L103.932 188.567L138.425 168.652V213.042L103.048 233.467L89.036 252.007L92.3529 256.152L75.6559 267.242L83.5281 245.137L86.8449 249.272L101.091 230.427V214.447L82.6793 225.077V232.267L67.9483 231.502L82.6793 213.137V220.327L101.091 209.697V193.717L86.8449 191.322L83.5281 199.297ZM104.668 192.312L134.849 174.887V210.947L104.668 228.372V192.312ZM161.609 113.277V135.517L155.443 139.077L163.895 151.387L171.837 129.612L165.671 133.172V110.932L161.609 113.277ZM144.973 209.072V164.672L182.307 143.117V187.517L144.973 209.072ZM148.549 166.777L178.73 149.352V185.412L148.549 202.837V166.777ZM251.624 84.3875L234.927 95.4875L238.243 99.6225L223.348 119.332L188.854 139.247V183.647L224.231 163.222L238.243 165.582L234.927 173.557L251.624 165.367L243.751 152.342L240.435 160.317L226.188 157.922V141.932L244.6 131.302V138.492L259.34 120.722L244.6 119.372V126.562L226.188 137.192V121.202L240.435 102.357L243.751 106.502L251.624 84.3875ZM222.612 123.927L192.431 141.352V177.412L222.612 159.987V123.927ZM168.996 212.282C170.139 210.922 171.577 209.732 173.136 208.832C174.703 207.927 176.132 207.462 177.284 207.497C178.436 207.542 179.466 208.127 179.466 209.777C179.466 210.507 179.267 211.262 178.938 211.992V215.742L189.633 209.567C194.717 206.632 200.987 207.082 202.771 213.212L207.24 227.822V227.832C208.149 230.897 206.911 235.172 204.867 238.892C202.832 242.607 199.957 245.987 197.038 247.672L127.609 287.757C125.167 289.167 122.794 288.717 120.992 287.237C119.2 285.752 117.961 283.057 118.611 279.172L118.619 279.127L122.456 260.282L122.473 260.222C123.279 256.987 124.95 253.142 127.245 249.537C129.54 245.932 132.51 242.547 135.845 240.622L168.312 221.877L167.957 219.132C167.29 218.837 166.814 218.202 166.814 217.082C166.814 215.432 167.844 213.657 168.996 212.282ZM135.845 243.752L168.684 224.792L170.061 235.477C170.364 237.892 172.287 238.782 175.032 237.197C177.57 235.732 178.955 232.992 178.955 230.822L178.947 218.867L189.633 212.697C193.409 210.518 198.839 210.872 200.199 215.577L204.668 230.207C205.248 232.182 204.477 235.027 202.91 237.892C201.342 240.747 199.013 243.402 197.038 244.542L127.609 284.627C126.474 285.282 124.465 285.212 123.053 284.047C121.642 282.882 120.819 280.827 121.226 278.322L125.011 259.767C125.634 257.267 127.063 253.923 128.977 250.917C130.9 247.897 133.273 245.237 135.845 243.752ZM173.136 211.952C174.331 211.262 175.387 210.972 176.046 210.992C176.695 211.007 176.79 211.292 176.79 211.322C176.79 211.352 176.695 211.737 176.046 212.512C175.387 213.292 174.331 214.212 173.136 214.902C171.949 215.587 170.884 215.892 170.235 215.867C169.576 215.847 169.49 215.567 169.49 215.537C169.49 215.507 169.576 215.117 170.235 214.347C170.884 213.572 171.949 212.637 173.136 211.952Z" fill="white"/>
</svg>
