<svg width="274" height="349" viewBox="0 0 274 349" fill="none" xmlns="http://www.w3.org/2000/svg">
<path fill-rule="evenodd" clip-rule="evenodd" d="M225.963 118.94L225.66 116.075L173.699 86.075L174.002 88.94L225.963 118.94Z" fill="#8BC5E4"/>
<path fill-rule="evenodd" clip-rule="evenodd" d="M230.726 108.88L224.525 93.36L172.564 63.36L178.765 78.88L230.726 108.88Z" fill="#8BC5E4"/>
<path fill-rule="evenodd" clip-rule="evenodd" d="M224.525 93.36L227.505 91.64L175.543 61.64L172.564 63.36L224.525 93.36Z" fill="#8BC5E4"/>
<path fill-rule="evenodd" clip-rule="evenodd" d="M227.505 91.64L230.9 100.72L178.938 70.72L175.543 61.64L227.505 91.64Z" fill="#8BC5E4"/>
<path fill-rule="evenodd" clip-rule="evenodd" d="M233.238 99.45L236.728 86.315L184.766 56.315L181.276 69.45L233.238 99.45Z" fill="#8BC5E4"/>
<path fill-rule="evenodd" clip-rule="evenodd" d="M236.728 86.315L239.499 84.715L187.538 54.715L184.767 56.315L236.728 86.315Z" fill="#8BC5E4"/>
<path fill-rule="evenodd" clip-rule="evenodd" d="M239.499 84.715L233.281 107.695L181.32 77.695L187.538 54.715L239.499 84.715Z" fill="#8BC5E4"/>
<path fill-rule="evenodd" clip-rule="evenodd" d="M225.963 118.94L174.002 88.94L225.963 118.94Z" fill="#8BC5E4"/>
<path fill-rule="evenodd" clip-rule="evenodd" d="M215.536 117.62V98.55L163.575 68.55V87.62L215.536 117.62Z" fill="#8BC5E4"/>
<path fill-rule="evenodd" clip-rule="evenodd" d="M215.536 98.55L218.03 97.11L166.069 67.11L163.575 68.55L215.536 98.55Z" fill="#8BC5E4"/>
<path fill-rule="evenodd" clip-rule="evenodd" d="M218.03 97.11V100L166.069 70V67.11L218.03 97.11Z" fill="#8BC5E4"/>
<path fill-rule="evenodd" clip-rule="evenodd" d="M224.405 94.04L223.461 97.585L171.499 67.585L172.443 64.04L224.405 94.04Z" fill="#8BC5E4"/>
<path fill-rule="evenodd" clip-rule="evenodd" d="M218.308 106.04V116.02L166.346 86.02V76.04L218.308 106.04Z" fill="#8BC5E4"/>
<path fill-rule="evenodd" clip-rule="evenodd" d="M218.308 116.02L215.536 117.62L163.575 87.62L166.346 86.02L218.308 116.02Z" fill="#8BC5E4"/>
<path fill-rule="evenodd" clip-rule="evenodd" d="M215.536 117.62L163.575 87.62L215.536 117.62Z" fill="#8BC5E4"/>
<path fill-rule="evenodd" clip-rule="evenodd" d="M200.268 113.245L197.566 114.365L145.604 84.365L148.306 83.245L200.268 113.245Z" fill="#8BC5E4"/>
<path fill-rule="evenodd" clip-rule="evenodd" d="M211.258 107.79V112.1L159.296 82.1V77.79L211.258 107.79Z" fill="#8BC5E4"/>
<path fill-rule="evenodd" clip-rule="evenodd" d="M212.133 119.585L209.24 121.255L157.279 91.255L160.171 89.585L212.133 119.585Z" fill="#8BC5E4"/>
<path fill-rule="evenodd" clip-rule="evenodd" d="M208.686 119.215L156.725 89.215L208.686 119.215Z" fill="#8BC5E4"/>
<path fill-rule="evenodd" clip-rule="evenodd" d="M208.452 113.32V112.14L156.491 82.14V83.32L208.452 113.32Z" fill="#8BC5E4"/>
<path fill-rule="evenodd" clip-rule="evenodd" d="M208.452 112.14L156.491 82.14L208.452 112.14Z" fill="#8BC5E4"/>
<path fill-rule="evenodd" clip-rule="evenodd" d="M191.08 131.74V129.33L139.118 99.33V101.74L191.08 131.74Z" fill="#8BC5E4"/>
<path fill-rule="evenodd" clip-rule="evenodd" d="M190.898 114.975V105.525L138.937 75.525V84.975L190.898 114.975Z" fill="#8BC5E4"/>
<path fill-rule="evenodd" clip-rule="evenodd" d="M190.898 105.525L193.652 103.935L141.691 73.935L138.937 75.525L190.898 105.525Z" fill="#8BC5E4"/>
<path fill-rule="evenodd" clip-rule="evenodd" d="M193.652 103.935V130.255L141.69 100.255V73.935L193.652 103.935Z" fill="#8BC5E4"/>
<path fill-rule="evenodd" clip-rule="evenodd" d="M193.652 130.255L191.08 131.74L139.118 101.74L141.69 100.255L193.652 130.255Z" fill="#8BC5E4"/>
<path fill-rule="evenodd" clip-rule="evenodd" d="M191.08 131.74L139.118 101.74L191.08 131.74Z" fill="#8BC5E4"/>
<path fill-rule="evenodd" clip-rule="evenodd" d="M182.324 127.275L130.363 97.275L182.324 127.275Z" fill="#8BC5E4"/>
<path fill-rule="evenodd" clip-rule="evenodd" d="M162.943 147.985V128.915L110.981 98.915V117.985L162.943 147.985Z" fill="#8BC5E4"/>
<path fill-rule="evenodd" clip-rule="evenodd" d="M162.943 128.915L165.437 127.475L113.475 97.475L110.981 98.915L162.943 128.915Z" fill="#8BC5E4"/>
<path fill-rule="evenodd" clip-rule="evenodd" d="M165.437 127.475V130.195L113.475 100.195V97.475L165.437 127.475Z" fill="#8BC5E4"/>
<path fill-rule="evenodd" clip-rule="evenodd" d="M176.219 128.59V140.32L124.257 110.32V98.59L176.219 128.59Z" fill="#8BC5E4"/>
<path fill-rule="evenodd" clip-rule="evenodd" d="M176.219 140.32L173.447 141.92L121.486 111.92L124.257 110.32L176.219 140.32Z" fill="#8BC5E4"/>
<path fill-rule="evenodd" clip-rule="evenodd" d="M173.447 141.92V130.32L121.486 100.32V111.92L173.447 141.92Z" fill="#8BC5E4"/>
<path fill-rule="evenodd" clip-rule="evenodd" d="M165.714 135.975V146.385L113.752 116.385V105.975L165.714 135.975Z" fill="#8BC5E4"/>
<path fill-rule="evenodd" clip-rule="evenodd" d="M165.714 146.385L162.943 147.985L110.981 117.985L113.752 116.385L165.714 146.385Z" fill="#8BC5E4"/>
<path fill-rule="evenodd" clip-rule="evenodd" d="M162.943 147.985L110.981 117.985L162.943 147.985Z" fill="#8BC5E4"/>
<path fill-rule="evenodd" clip-rule="evenodd" d="M144.375 149.165L92.4136 119.165L144.375 149.165Z" fill="#8BC5E4"/>
<path fill-rule="evenodd" clip-rule="evenodd" d="M147.215 147.525L95.2539 117.525L147.215 147.525Z" fill="#8BC5E4"/>
<path fill-rule="evenodd" clip-rule="evenodd" d="M140.305 154.075L143.033 152.9L91.0713 122.9L88.3433 124.075L140.305 154.075Z" fill="#8BC5E4"/>
<path fill-rule="evenodd" clip-rule="evenodd" d="M142.773 146.16L140.071 148.2L88.1094 118.2L90.8114 116.16L142.773 146.16Z" fill="#8BC5E4"/>
<path fill-rule="evenodd" clip-rule="evenodd" d="M140.305 154.075L88.3433 124.075L140.305 154.075Z" fill="#8BC5E4"/>
<path fill-rule="evenodd" clip-rule="evenodd" d="M123.287 164.74L126.145 163.5L74.1836 133.5L71.3257 134.74L123.287 164.74Z" fill="#8BC5E4"/>
<path fill-rule="evenodd" clip-rule="evenodd" d="M126.232 160.47L114.047 167.505L62.0854 137.505L74.2704 130.47L126.232 160.47Z" fill="#8BC5E4"/>
<path fill-rule="evenodd" clip-rule="evenodd" d="M123.287 164.74L71.3257 134.74L123.287 164.74Z" fill="#8BC5E4"/>
<path fill-rule="evenodd" clip-rule="evenodd" d="M114.194 164.76L123.313 159.495L71.3516 129.495L62.2324 134.76L114.194 164.76Z" fill="#8BC5E4"/>
<path fill-rule="evenodd" clip-rule="evenodd" d="M114.194 164.76L62.2324 134.76L114.194 164.76Z" fill="#8BC5E4"/>
<path fill-rule="evenodd" clip-rule="evenodd" d="M90.3868 181.415L93.2014 179.51L41.2399 149.51L38.4253 151.415L90.3868 181.415Z" fill="#8BC5E4"/>
<path fill-rule="evenodd" clip-rule="evenodd" d="M107.673 160.985L104.806 162.89L52.8447 132.89L55.7113 130.985L107.673 160.985Z" fill="#8BC5E4"/>
<path fill-rule="evenodd" clip-rule="evenodd" d="M90.3868 181.415L38.4253 151.415L90.3868 181.415Z" fill="#8BC5E4"/>
<path fill-rule="evenodd" clip-rule="evenodd" d="M237.412 178.16L216.212 208L164.25 178L185.451 148.16L237.412 178.16Z" fill="#8BC5E4"/>
<path fill-rule="evenodd" clip-rule="evenodd" d="M216.212 208L237.412 213.36L185.451 183.36L164.25 178L216.212 208Z" fill="#8BC5E4"/>
<path fill-rule="evenodd" clip-rule="evenodd" d="M237.412 213.36V201.39L185.451 171.39V183.36L237.412 213.36Z" fill="#8BC5E4"/>
<path fill-rule="evenodd" clip-rule="evenodd" d="M237.412 201.39L261.739 187.345L209.777 157.345L185.451 171.39L237.412 201.39Z" fill="#8BC5E4"/>
<path fill-rule="evenodd" clip-rule="evenodd" d="M261.739 187.345V176.085L209.777 146.085V157.345L261.739 187.345Z" fill="#8BC5E4"/>
<path fill-rule="evenodd" clip-rule="evenodd" d="M261.739 176.085L237.412 190.13L185.451 160.13L209.777 146.085L261.739 176.085Z" fill="#8BC5E4"/>
<path fill-rule="evenodd" clip-rule="evenodd" d="M237.412 190.13V178.16L185.451 148.16V160.13L237.412 190.13Z" fill="#8BC5E4"/>
<path fill-rule="evenodd" clip-rule="evenodd" d="M237.412 178.16L185.451 148.16L237.412 178.16Z" fill="#8BC5E4"/>
<path fill-rule="evenodd" clip-rule="evenodd" d="M88.4122 264.185V276.155L36.4507 246.155V234.185L88.4122 264.185Z" fill="#8BC5E4"/>
<path fill-rule="evenodd" clip-rule="evenodd" d="M88.4123 276.155L64.0943 290.195L12.1328 260.195L36.4508 246.155L88.4123 276.155Z" fill="#8BC5E4"/>
<path fill-rule="evenodd" clip-rule="evenodd" d="M64.0943 290.195V301.455L12.1328 271.455V260.195L64.0943 290.195Z" fill="#8BC5E4"/>
<path fill-rule="evenodd" clip-rule="evenodd" d="M64.0943 301.455L88.4123 287.415L36.4508 257.415L12.1328 271.455L64.0943 301.455Z" fill="#8BC5E4"/>
<path fill-rule="evenodd" clip-rule="evenodd" d="M88.4122 287.415V299.385L36.4507 269.385V257.415L88.4122 287.415Z" fill="#8BC5E4"/>
<path fill-rule="evenodd" clip-rule="evenodd" d="M88.4122 299.385L109.612 269.545L57.651 239.545L36.4507 269.385L88.4122 299.385Z" fill="#8BC5E4"/>
<path fill-rule="evenodd" clip-rule="evenodd" d="M109.612 269.545L88.4122 264.185L36.4507 234.185L57.651 239.545L109.612 269.545Z" fill="#8BC5E4"/>
<path fill-rule="evenodd" clip-rule="evenodd" d="M88.4122 264.185L36.4507 234.185L88.4122 264.185Z" fill="#8BC5E4"/>
<path fill-rule="evenodd" clip-rule="evenodd" d="M171.274 235.335V252.685L119.312 222.685V205.335L171.274 235.335Z" fill="#8BC5E4"/>
<path fill-rule="evenodd" clip-rule="evenodd" d="M171.274 252.685L205.04 233.19L153.078 203.19L119.312 222.685L171.274 252.685Z" fill="#8BC5E4"/>
<path fill-rule="evenodd" clip-rule="evenodd" d="M205.04 233.19V215.84L153.079 185.84V203.19L205.04 233.19Z" fill="#8BC5E4"/>
<path fill-rule="evenodd" clip-rule="evenodd" d="M188.161 164.335L136.2 134.335L188.161 164.335Z" fill="#8BC5E4"/>
<path fill-rule="evenodd" clip-rule="evenodd" d="M120.819 264.465V281.815L68.8574 251.815V234.465L120.819 264.465Z" fill="#8BC5E4"/>
<path fill-rule="evenodd" clip-rule="evenodd" d="M120.819 281.815L154.585 262.32L102.624 232.32L68.8574 251.815L120.819 281.815Z" fill="#8BC5E4"/>
<path fill-rule="evenodd" clip-rule="evenodd" d="M154.586 262.32V244.97L102.624 214.97V232.32L154.586 262.32Z" fill="#8BC5E4"/>
<path fill-rule="evenodd" clip-rule="evenodd" d="M137.698 193.47L85.7363 163.47L137.698 193.47Z" fill="#8BC5E4"/>
<path fill-rule="evenodd" clip-rule="evenodd" d="M240.53 129.07V141.05L188.568 111.05V99.07L240.53 129.07Z" fill="#8BC5E4"/>
<path fill-rule="evenodd" clip-rule="evenodd" d="M240.53 141.05L216.212 155.09L164.25 125.09L188.568 111.05L240.53 141.05Z" fill="#8BC5E4"/>
<path fill-rule="evenodd" clip-rule="evenodd" d="M216.212 155.09V166.33L164.25 136.33V125.09L216.212 155.09Z" fill="#8BC5E4"/>
<path fill-rule="evenodd" clip-rule="evenodd" d="M216.212 166.33L240.53 152.29L188.568 122.29L164.25 136.33L216.212 166.33Z" fill="#8BC5E4"/>
<path fill-rule="evenodd" clip-rule="evenodd" d="M240.53 152.29V164.27L188.568 134.27V122.29L240.53 152.29Z" fill="#8BC5E4"/>
<path fill-rule="evenodd" clip-rule="evenodd" d="M240.53 164.27L261.739 134.425L209.777 104.425L188.568 134.27L240.53 164.27Z" fill="#8BC5E4"/>
<path fill-rule="evenodd" clip-rule="evenodd" d="M261.739 134.425L240.53 129.07L188.568 99.07L209.777 104.425L261.739 134.425Z" fill="#8BC5E4"/>
<path fill-rule="evenodd" clip-rule="evenodd" d="M240.53 129.07L188.568 99.07L240.53 129.07Z" fill="#8BC5E4"/>
<path fill-rule="evenodd" clip-rule="evenodd" d="M85.2946 218.695L64.0943 248.535L12.1328 218.535L33.3331 188.695L85.2946 218.695Z" fill="#8BC5E4"/>
<path fill-rule="evenodd" clip-rule="evenodd" d="M64.0943 248.535L85.2946 253.895L33.3331 223.895L12.1328 218.535L64.0943 248.535Z" fill="#8BC5E4"/>
<path fill-rule="evenodd" clip-rule="evenodd" d="M85.2945 253.895V241.915L33.333 211.915V223.895L85.2945 253.895Z" fill="#8BC5E4"/>
<path fill-rule="evenodd" clip-rule="evenodd" d="M85.2945 241.915L109.613 227.875L57.651 197.875L33.333 211.915L85.2945 241.915Z" fill="#8BC5E4"/>
<path fill-rule="evenodd" clip-rule="evenodd" d="M109.613 227.875V216.635L57.6514 186.635V197.875L109.613 227.875Z" fill="#8BC5E4"/>
<path fill-rule="evenodd" clip-rule="evenodd" d="M109.613 216.635L85.2945 230.675L33.333 200.675L57.651 186.635L109.613 216.635Z" fill="#8BC5E4"/>
<path fill-rule="evenodd" clip-rule="evenodd" d="M85.2945 230.675V218.695L33.333 188.695V200.675L85.2945 230.675Z" fill="#8BC5E4"/>
<path fill-rule="evenodd" clip-rule="evenodd" d="M85.2945 218.695L33.333 188.695L85.2945 218.695Z" fill="#8BC5E4"/>
<path fill-rule="evenodd" clip-rule="evenodd" d="M51.9615 165.58V341.14L0 311.14V135.58L51.9615 165.58Z" fill="#8BC5E4"/>
<path fill-rule="evenodd" clip-rule="evenodd" d="M62.4317 347.315L263.194 231.405L211.232 201.405L10.4702 317.315L62.4317 347.315Z" fill="#8BC5E4"/>
<path fill-rule="evenodd" clip-rule="evenodd" d="M273.664 213.14V37.58L221.703 7.57996V183.14L273.664 213.14Z" fill="#8BC5E4"/>
<path fill-rule="evenodd" clip-rule="evenodd" d="M263.194 31.405L62.4317 147.315L10.4702 117.315L211.232 1.40497L263.194 31.405Z" fill="#8BC5E4"/>
<path fill-rule="evenodd" clip-rule="evenodd" d="M62.4317 147.315L10.4702 117.315L62.4317 147.315Z" fill="#8BC5E4"/>
<path fill-rule="evenodd" clip-rule="evenodd" d="M62.4317 152.825L263.194 36.915L211.232 6.91498L10.4702 122.825L62.4317 152.825Z" fill="#8BC5E4"/>
<path fill-rule="evenodd" clip-rule="evenodd" d="M268.927 40.315V215.875L216.965 185.875V10.315L268.927 40.315Z" fill="#8BC5E4"/>
<path fill-rule="evenodd" clip-rule="evenodd" d="M263.194 225.895L62.4317 341.805L10.4702 311.805L211.232 195.895L263.194 225.895Z" fill="#8BC5E4"/>
<path fill-rule="evenodd" clip-rule="evenodd" d="M56.69 338.41V162.85L4.72852 132.85V308.41L56.69 338.41Z" fill="#8BC5E4"/>
<path fill-rule="evenodd" clip-rule="evenodd" d="M62.4317 152.825L10.4702 122.825L62.4317 152.825Z" fill="#8BC5E4"/>
<path fill-rule="evenodd" clip-rule="evenodd" d="M225.66 116.075C226.266 115.925 226.792 115.722 227.236 115.465L175.275 85.465C174.83 85.7217 174.305 85.925 173.699 86.075L225.66 116.075Z" fill="#8BC5E4"/>
<path fill-rule="evenodd" clip-rule="evenodd" d="M227.236 115.465C227.86 115.105 228.356 114.695 228.726 114.235L176.764 84.235C176.395 84.695 175.898 85.105 175.275 85.465L227.236 115.465Z" fill="#8BC5E4"/>
<path fill-rule="evenodd" clip-rule="evenodd" d="M228.726 114.235C229.095 113.788 229.395 113.282 229.626 112.715L177.665 82.715C177.434 83.2817 177.134 83.7883 176.764 84.235L228.726 114.235Z" fill="#8BC5E4"/>
<path fill-rule="evenodd" clip-rule="evenodd" d="M229.627 112.715C229.806 112.285 230.088 111.318 230.475 109.815L178.514 79.815C178.127 81.3183 177.844 82.285 177.665 82.715L229.627 112.715Z" fill="#8BC5E4"/>
<path fill-rule="evenodd" clip-rule="evenodd" d="M230.475 109.815C230.527 109.605 230.611 109.293 230.726 108.88L178.765 78.88C178.649 79.2933 178.566 79.605 178.514 79.815L230.475 109.815Z" fill="#8BC5E4"/>
<path fill-rule="evenodd" clip-rule="evenodd" d="M230.9 100.72C231.344 101.863 231.742 103.107 232.095 104.45L180.133 74.45C179.781 73.1067 179.383 71.8633 178.938 70.72L230.9 100.72Z" fill="#8BC5E4"/>
<path fill-rule="evenodd" clip-rule="evenodd" d="M232.095 104.45C232.407 102.783 232.788 101.117 233.238 99.45L181.276 69.45C180.826 71.1167 180.445 72.7833 180.133 74.45L232.095 104.45Z" fill="#8BC5E4"/>
<path fill-rule="evenodd" clip-rule="evenodd" d="M233.281 107.695C232.611 110.175 232.092 111.918 231.722 112.925L179.761 82.925C180.13 81.9183 180.65 80.175 181.32 77.695L233.281 107.695Z" fill="#8BC5E4"/>
<path fill-rule="evenodd" clip-rule="evenodd" d="M231.722 112.925C231.232 114.268 230.666 115.372 230.025 116.235L178.063 86.235C178.704 85.3717 179.27 84.2683 179.761 82.925L231.722 112.925Z" fill="#8BC5E4"/>
<path fill-rule="evenodd" clip-rule="evenodd" d="M230.025 116.235C229.39 117.102 228.631 117.79 227.747 118.3L175.786 88.3C176.669 87.79 177.428 87.1017 178.063 86.235L230.025 116.235Z" fill="#8BC5E4"/>
<path fill-rule="evenodd" clip-rule="evenodd" d="M227.747 118.3C227.216 118.607 226.622 118.82 225.963 118.94L174.002 88.94C174.66 88.82 175.255 88.6067 175.786 88.3L227.747 118.3Z" fill="#8BC5E4"/>
<path fill-rule="evenodd" clip-rule="evenodd" d="M218.03 100C218.66 98.2833 219.243 97.0567 219.78 96.32L167.818 66.32C167.281 67.0567 166.698 68.2833 166.069 70L218.03 100Z" fill="#8BC5E4"/>
<path fill-rule="evenodd" clip-rule="evenodd" d="M219.78 96.32C220.323 95.5733 220.917 95.0133 221.564 94.64L169.602 64.64C168.956 65.0133 168.361 65.5733 167.818 66.32L219.78 96.32Z" fill="#8BC5E4"/>
<path fill-rule="evenodd" clip-rule="evenodd" d="M221.564 94.64C222.499 94.1 223.446 93.9 224.405 94.04L172.443 64.04C171.485 63.9 170.538 64.1 169.603 64.64L221.564 94.64Z" fill="#8BC5E4"/>
<path fill-rule="evenodd" clip-rule="evenodd" d="M223.461 97.585C222.785 97.5017 222.107 97.6567 221.425 98.05L169.464 68.05C170.145 67.6567 170.824 67.5017 171.499 67.585L223.461 97.585Z" fill="#8BC5E4"/>
<path fill-rule="evenodd" clip-rule="evenodd" d="M221.425 98.05C220.825 98.3967 220.282 98.93 219.797 99.65L167.835 69.65C168.32 68.93 168.863 68.3967 169.464 68.05L221.425 98.05Z" fill="#8BC5E4"/>
<path fill-rule="evenodd" clip-rule="evenodd" d="M219.797 99.65C219.318 100.347 218.975 101.128 218.767 101.995L166.805 71.995C167.013 71.1283 167.357 70.3467 167.836 69.65L219.797 99.65Z" fill="#8BC5E4"/>
<path fill-rule="evenodd" clip-rule="evenodd" d="M218.767 101.995C218.461 103.325 218.308 104.673 218.308 106.04L166.346 76.04C166.346 74.6733 166.499 73.325 166.805 71.995L218.767 101.995Z" fill="#8BC5E4"/>
<path fill-rule="evenodd" clip-rule="evenodd" d="M208.686 119.215C207.664 120.832 206.677 122.122 205.724 123.085L153.763 93.085C154.715 92.1217 155.703 90.8317 156.724 89.215L208.686 119.215Z" fill="#8BC5E4"/>
<path fill-rule="evenodd" clip-rule="evenodd" d="M205.724 123.085C204.777 124.052 203.761 124.848 202.676 125.475L150.714 95.475C151.8 94.8483 152.816 94.0517 153.763 93.085L205.724 123.085Z" fill="#8BC5E4"/>
<path fill-rule="evenodd" clip-rule="evenodd" d="M202.676 125.475C200.874 126.515 199.492 126.807 198.527 126.35L146.566 96.35C147.53 96.8067 148.913 96.515 150.714 95.475L202.676 125.475Z" fill="#8BC5E4"/>
<path fill-rule="evenodd" clip-rule="evenodd" d="M198.528 126.35C198.438 126.305 198.352 126.256 198.27 126.201L146.308 96.201C146.39 96.256 146.476 96.305 146.566 96.35L198.528 126.35Z" fill="#8BC5E4"/>
<path fill-rule="evenodd" clip-rule="evenodd" d="M198.27 126.201C197.48 125.676 197.084 124.693 197.082 123.254L145.12 93.254C145.122 94.693 145.518 95.676 146.308 96.201L198.27 126.201Z" fill="#8BC5E4"/>
<path fill-rule="evenodd" clip-rule="evenodd" d="M197.081 123.245C197.081 122.312 197.263 121.357 197.627 120.38L145.665 90.38C145.301 91.3567 145.12 92.3117 145.12 93.245L197.081 123.245Z" fill="#8BC5E4"/>
<path fill-rule="evenodd" clip-rule="evenodd" d="M197.627 120.38C197.997 119.393 198.473 118.498 199.056 117.695L147.095 87.695C146.511 88.4983 146.035 89.3933 145.666 90.38L197.627 120.38Z" fill="#8BC5E4"/>
<path fill-rule="evenodd" clip-rule="evenodd" d="M199.056 117.695C199.65 116.885 200.317 116.143 201.056 115.47L149.095 85.47C148.356 86.1433 147.689 86.885 147.094 87.695L199.056 117.695Z" fill="#8BC5E4"/>
<path fill-rule="evenodd" clip-rule="evenodd" d="M201.056 115.47C201.599 114.99 202.419 114.357 203.516 113.57L151.554 83.57C150.457 84.3567 149.637 84.99 149.095 85.47L201.056 115.47Z" fill="#8BC5E4"/>
<path fill-rule="evenodd" clip-rule="evenodd" d="M203.516 113.57C205.756 111.97 207.401 110.65 208.452 109.61L156.491 79.61C155.44 80.65 153.794 81.97 151.554 83.57L203.516 113.57Z" fill="#8BC5E4"/>
<path fill-rule="evenodd" clip-rule="evenodd" d="M208.452 109.61C208.464 109.157 208.47 108.873 208.47 108.76L156.508 78.76C156.508 78.8733 156.502 79.1567 156.491 79.61L208.452 109.61Z" fill="#8BC5E4"/>
<path fill-rule="evenodd" clip-rule="evenodd" d="M208.47 108.76C208.47 107.564 208.257 106.811 207.83 106.502L155.868 76.502C156.295 76.811 156.508 77.564 156.508 78.76L208.47 108.76Z" fill="#8BC5E4"/>
<path fill-rule="evenodd" clip-rule="evenodd" d="M207.823 106.498C207.783 106.469 207.74 106.444 207.696 106.423L155.735 76.423C155.779 76.444 155.822 76.469 155.862 76.498L207.823 106.498Z" fill="#8BC5E4"/>
<path fill-rule="evenodd" clip-rule="evenodd" d="M207.69 106.42C206.98 106.103 205.927 106.348 204.529 107.155L152.568 77.155C153.965 76.3483 155.019 76.1033 155.729 76.42L207.69 106.42Z" fill="#8BC5E4"/>
<path fill-rule="evenodd" clip-rule="evenodd" d="M204.529 107.155C203.23 107.905 202.266 108.728 201.636 109.625L149.675 79.625C150.304 78.7283 151.268 77.905 152.567 77.155L204.529 107.155Z" fill="#8BC5E4"/>
<path fill-rule="evenodd" clip-rule="evenodd" d="M201.637 109.625C201.025 110.505 200.568 111.712 200.268 113.245L148.307 83.245C148.607 81.7117 149.063 80.505 149.675 79.625L201.637 109.625Z" fill="#8BC5E4"/>
<path fill-rule="evenodd" clip-rule="evenodd" d="M197.566 114.365C197.808 112.878 198.213 111.558 198.778 110.405L146.817 80.405C146.251 81.5583 145.847 82.8783 145.604 84.365L197.566 114.365Z" fill="#8BC5E4"/>
<path fill-rule="evenodd" clip-rule="evenodd" d="M198.779 110.405C199.339 109.235 200.156 108.123 201.23 107.07L149.268 77.07C148.194 78.1233 147.377 79.235 146.817 80.405L198.779 110.405Z" fill="#8BC5E4"/>
<path fill-rule="evenodd" clip-rule="evenodd" d="M201.23 107.07C202.292 105.997 203.527 105.053 204.936 104.24L152.975 74.24C151.566 75.0533 150.33 75.9967 149.268 77.07L201.23 107.07Z" fill="#8BC5E4"/>
<path fill-rule="evenodd" clip-rule="evenodd" d="M204.936 104.24C206.328 103.437 207.459 102.973 208.331 102.85L156.369 72.85C155.498 72.9733 154.366 73.4367 152.975 74.24L204.936 104.24Z" fill="#8BC5E4"/>
<path fill-rule="evenodd" clip-rule="evenodd" d="M208.331 102.85C209.074 102.751 209.651 102.819 210.063 103.056L158.101 73.056C157.689 72.819 157.112 72.751 156.37 72.85L208.331 102.85Z" fill="#8BC5E4"/>
<path fill-rule="evenodd" clip-rule="evenodd" d="M210.068 103.06C210.136 103.099 210.198 103.143 210.257 103.191L158.296 73.191C158.237 73.143 158.175 73.099 158.107 73.06L210.068 103.06Z" fill="#8BC5E4"/>
<path fill-rule="evenodd" clip-rule="evenodd" d="M210.262 103.195C210.672 103.532 210.958 104.097 211.12 104.89L159.158 74.89C158.996 74.0967 158.711 73.5317 158.301 73.195L210.262 103.195Z" fill="#8BC5E4"/>
<path fill-rule="evenodd" clip-rule="evenodd" d="M211.12 104.89C211.212 105.383 211.258 106.35 211.258 107.79L159.297 77.79C159.297 76.35 159.251 75.3833 159.158 74.89L211.12 104.89Z" fill="#8BC5E4"/>
<path fill-rule="evenodd" clip-rule="evenodd" d="M211.258 112.1C211.258 115.107 211.316 116.977 211.431 117.71L159.47 87.71C159.354 86.9767 159.296 85.1067 159.296 82.1L211.258 112.1Z" fill="#8BC5E4"/>
<path fill-rule="evenodd" clip-rule="evenodd" d="M211.431 117.71C211.547 118.437 211.781 119.062 212.133 119.585L160.171 89.585C159.819 89.0617 159.585 88.4367 159.47 87.71L211.431 117.71Z" fill="#8BC5E4"/>
<path fill-rule="evenodd" clip-rule="evenodd" d="M209.24 121.255C208.958 120.745 208.773 120.065 208.686 119.215L156.725 89.215C156.811 90.065 156.996 90.745 157.279 91.255L209.24 121.255Z" fill="#8BC5E4"/>
<path fill-rule="evenodd" clip-rule="evenodd" d="M208.452 112.14C207.448 113.2 205.941 114.477 203.932 115.97L151.97 85.97C153.979 84.4767 155.486 83.2 156.491 82.14L208.452 112.14Z" fill="#8BC5E4"/>
<path fill-rule="evenodd" clip-rule="evenodd" d="M203.931 115.97C202.794 116.813 201.989 117.495 201.515 118.015L149.554 88.015C150.027 87.495 150.833 86.8133 151.97 85.97L203.931 115.97Z" fill="#8BC5E4"/>
<path fill-rule="evenodd" clip-rule="evenodd" d="M201.515 118.015C201.042 118.522 200.678 119.082 200.424 119.695L148.462 89.695C148.716 89.0817 149.08 88.5217 149.554 88.015L201.515 118.015Z" fill="#8BC5E4"/>
<path fill-rule="evenodd" clip-rule="evenodd" d="M200.424 119.695C200.17 120.302 200.043 120.885 200.043 121.445L148.082 91.445C148.082 90.885 148.209 90.3017 148.463 89.695L200.424 119.695Z" fill="#8BC5E4"/>
<path fill-rule="evenodd" clip-rule="evenodd" d="M200.043 121.445C200.043 122.257 200.286 122.8 200.773 123.074L148.812 93.074C148.325 92.8 148.082 92.257 148.082 91.445L200.043 121.445Z" fill="#8BC5E4"/>
<path fill-rule="evenodd" clip-rule="evenodd" d="M200.769 123.071C200.801 123.089 200.835 123.106 200.869 123.122L148.907 93.122C148.873 93.106 148.839 93.089 148.807 93.071L200.769 123.071Z" fill="#8BC5E4"/>
<path fill-rule="evenodd" clip-rule="evenodd" d="M200.875 123.125C201.44 123.365 202.26 123.175 203.334 122.555L151.373 92.555C150.299 93.175 149.479 93.365 148.913 93.125L200.875 123.125Z" fill="#8BC5E4"/>
<path fill-rule="evenodd" clip-rule="evenodd" d="M203.334 122.555C204.402 121.938 205.349 121.125 206.175 120.115L154.213 90.115C153.387 91.125 152.441 91.9383 151.373 92.555L203.334 122.555Z" fill="#8BC5E4"/>
<path fill-rule="evenodd" clip-rule="evenodd" d="M206.174 120.115C207.012 119.078 207.624 117.975 208.01 116.805L156.049 86.805C155.662 87.975 155.05 89.0783 154.213 90.115L206.174 120.115Z" fill="#8BC5E4"/>
<path fill-rule="evenodd" clip-rule="evenodd" d="M208.01 116.805C208.305 115.908 208.452 114.747 208.452 113.32L156.491 83.32C156.491 84.7467 156.343 85.9083 156.049 86.805L208.01 116.805Z" fill="#8BC5E4"/>
<path fill-rule="evenodd" clip-rule="evenodd" d="M191.08 129.33C190.046 131.82 188.525 133.645 186.516 134.805L134.554 104.805C136.563 103.645 138.085 101.82 139.118 99.33L191.08 129.33Z" fill="#8BC5E4"/>
<path fill-rule="evenodd" clip-rule="evenodd" d="M186.516 134.805C185.211 135.558 184.01 135.835 182.913 135.635L130.952 105.635C132.049 105.835 133.249 105.558 134.554 104.805L186.516 134.805Z" fill="#8BC5E4"/>
<path fill-rule="evenodd" clip-rule="evenodd" d="M182.913 135.635C182.548 135.563 182.21 135.439 181.9 135.261L129.939 105.261C130.249 105.439 130.587 105.563 130.952 105.635L182.913 135.635Z" fill="#8BC5E4"/>
<path fill-rule="evenodd" clip-rule="evenodd" d="M181.902 135.263C181.289 134.913 180.781 134.358 180.379 133.597L128.418 103.597C128.82 104.358 129.328 104.913 129.941 105.263L181.902 135.263Z" fill="#8BC5E4"/>
<path fill-rule="evenodd" clip-rule="evenodd" d="M180.375 133.59C179.781 132.427 179.483 130.868 179.483 128.915L127.522 98.915C127.522 100.868 127.819 102.427 128.414 103.59L180.375 133.59Z" fill="#8BC5E4"/>
<path fill-rule="evenodd" clip-rule="evenodd" d="M179.483 128.915C179.483 127.015 179.755 125.135 180.298 123.275L128.336 93.275C127.793 95.135 127.522 97.015 127.522 98.915L179.483 128.915Z" fill="#8BC5E4"/>
<path fill-rule="evenodd" clip-rule="evenodd" d="M180.298 123.275C180.841 121.408 181.658 119.747 182.749 118.29L130.787 88.29C129.696 89.7467 128.879 91.4083 128.336 93.275L180.298 123.275Z" fill="#8BC5E4"/>
<path fill-rule="evenodd" clip-rule="evenodd" d="M182.749 118.29C183.828 116.84 185.044 115.725 186.395 114.945L134.433 84.945C133.082 85.725 131.867 86.84 130.787 88.29L182.749 118.29Z" fill="#8BC5E4"/>
<path fill-rule="evenodd" clip-rule="evenodd" d="M186.395 114.945C187.376 114.378 188.254 114.118 189.027 114.165L137.066 84.165C136.292 84.1183 135.415 84.3783 134.433 84.945L186.395 114.945Z" fill="#8BC5E4"/>
<path fill-rule="evenodd" clip-rule="evenodd" d="M189.027 114.165C189.526 114.189 189.963 114.311 190.34 114.531L138.378 84.531C138.001 84.311 137.564 84.189 137.066 84.165L189.027 114.165Z" fill="#8BC5E4"/>
<path fill-rule="evenodd" clip-rule="evenodd" d="M190.348 114.536C190.546 114.653 190.727 114.797 190.892 114.969L138.931 84.969C138.766 84.797 138.585 84.653 138.387 84.536L190.348 114.536Z" fill="#8BC5E4"/>
<path fill-rule="evenodd" clip-rule="evenodd" d="M182.324 127.275C182.324 129.715 182.766 131.287 183.649 131.99L131.688 101.99C130.804 101.287 130.363 99.715 130.363 97.275L182.324 127.275Z" fill="#8BC5E4"/>
<path fill-rule="evenodd" clip-rule="evenodd" d="M183.649 131.99C183.76 132.077 183.873 132.153 183.989 132.218L132.028 102.218C131.912 102.153 131.799 102.077 131.688 101.99L183.649 131.99Z" fill="#8BC5E4"/>
<path fill-rule="evenodd" clip-rule="evenodd" d="M183.989 132.217C184.798 132.672 185.725 132.599 186.768 131.999L134.807 101.999C133.764 102.599 132.837 102.672 132.028 102.217L183.989 132.217Z" fill="#8BC5E4"/>
<path fill-rule="evenodd" clip-rule="evenodd" d="M186.776 131.995C187.982 131.298 189.01 130.132 189.859 128.495L137.897 98.495C137.048 100.132 136.021 101.298 134.814 101.995L186.776 131.995Z" fill="#8BC5E4"/>
<path fill-rule="evenodd" clip-rule="evenodd" d="M189.858 128.495C190.707 126.845 191.132 124.837 191.132 122.47L139.17 92.47C139.17 94.8367 138.746 96.845 137.897 98.495L189.858 128.495Z" fill="#8BC5E4"/>
<path fill-rule="evenodd" clip-rule="evenodd" d="M191.132 122.47C191.132 119.857 190.702 118.185 189.841 117.455L137.88 87.455C138.74 88.185 139.17 89.8567 139.17 92.47L191.132 122.47Z" fill="#8BC5E4"/>
<path fill-rule="evenodd" clip-rule="evenodd" d="M189.841 117.455C189.733 117.366 189.621 117.288 189.507 117.221L137.546 87.221C137.66 87.288 137.772 87.366 137.88 87.455L189.841 117.455Z" fill="#8BC5E4"/>
<path fill-rule="evenodd" clip-rule="evenodd" d="M189.508 117.222C188.708 116.756 187.756 116.841 186.653 117.476L134.692 87.476C135.795 86.841 136.747 86.756 137.547 87.222L189.508 117.222Z" fill="#8BC5E4"/>
<path fill-rule="evenodd" clip-rule="evenodd" d="M186.646 117.48C185.422 118.187 184.394 119.367 183.563 121.02L131.601 91.02C132.432 89.3667 133.46 88.1867 134.684 87.48L186.646 117.48Z" fill="#8BC5E4"/>
<path fill-rule="evenodd" clip-rule="evenodd" d="M183.563 121.02C182.737 122.663 182.324 124.748 182.324 127.275L130.363 97.275C130.363 94.7483 130.776 92.6633 131.601 91.02L183.563 121.02Z" fill="#8BC5E4"/>
<path fill-rule="evenodd" clip-rule="evenodd" d="M165.437 130.195C166.632 127.405 168.364 125.355 170.633 124.045L118.671 94.045C116.402 95.355 114.67 97.405 113.475 100.195L165.437 130.195Z" fill="#8BC5E4"/>
<path fill-rule="evenodd" clip-rule="evenodd" d="M170.633 124.045C171.62 123.475 172.524 123.16 173.344 123.1L121.382 93.1C120.562 93.16 119.659 93.475 118.671 94.045L170.633 124.045Z" fill="#8BC5E4"/>
<path fill-rule="evenodd" clip-rule="evenodd" d="M173.343 123.1C173.954 123.051 174.451 123.136 174.834 123.355L122.873 93.355C122.49 93.136 121.993 93.051 121.382 93.1L173.343 123.1Z" fill="#8BC5E4"/>
<path fill-rule="evenodd" clip-rule="evenodd" d="M174.83 123.353C174.968 123.431 175.092 123.527 175.201 123.64L123.239 93.64C123.13 93.527 123.006 93.431 122.868 93.353L174.83 123.353Z" fill="#8BC5E4"/>
<path fill-rule="evenodd" clip-rule="evenodd" d="M175.206 123.645C175.616 124.082 175.901 124.717 176.063 125.55L124.102 95.55C123.94 94.7167 123.654 94.0817 123.244 93.645L175.206 123.645Z" fill="#8BC5E4"/>
<path fill-rule="evenodd" clip-rule="evenodd" d="M176.063 125.55C176.167 126.083 176.219 127.097 176.219 128.59L124.257 98.59C124.257 97.0967 124.205 96.0833 124.102 95.55L176.063 125.55Z" fill="#8BC5E4"/>
<path fill-rule="evenodd" clip-rule="evenodd" d="M173.447 130.32C173.447 129.007 173.341 128.088 173.127 127.565L121.166 97.565C121.379 98.0883 121.486 99.0067 121.486 100.32L173.447 130.32Z" fill="#8BC5E4"/>
<path fill-rule="evenodd" clip-rule="evenodd" d="M173.127 127.565C172.993 127.23 172.793 126.987 172.526 126.838L120.565 96.838C120.832 96.987 121.032 97.23 121.166 97.565L173.127 127.565Z" fill="#8BC5E4"/>
<path fill-rule="evenodd" clip-rule="evenodd" d="M172.531 126.84C172.371 126.75 172.189 126.694 171.982 126.671L120.02 96.671C120.227 96.694 120.409 96.75 120.569 96.84L172.531 126.84Z" fill="#8BC5E4"/>
<path fill-rule="evenodd" clip-rule="evenodd" d="M171.975 126.67C171.433 126.583 170.792 126.753 170.053 127.18L118.091 97.18C118.83 96.7533 119.471 96.5833 120.014 96.67L171.975 126.67Z" fill="#8BC5E4"/>
<path fill-rule="evenodd" clip-rule="evenodd" d="M170.053 127.18C168.875 127.86 167.853 128.89 166.987 130.27L115.025 100.27C115.891 98.89 116.913 97.86 118.091 97.18L170.053 127.18Z" fill="#8BC5E4"/>
<path fill-rule="evenodd" clip-rule="evenodd" d="M166.987 130.27C166.138 131.627 165.714 133.528 165.714 135.975L113.752 105.975C113.752 103.528 114.177 101.627 115.026 100.27L166.987 130.27Z" fill="#8BC5E4"/>
<path fill-rule="evenodd" clip-rule="evenodd" d="M144.375 149.165C144.375 145.638 145.212 142.542 146.887 139.875L94.9251 109.875C93.2508 112.542 92.4136 115.638 92.4136 119.165L144.375 149.165Z" fill="#8BC5E4"/>
<path fill-rule="evenodd" clip-rule="evenodd" d="M146.886 139.875C148.295 137.648 150.013 135.95 152.039 134.78L100.078 104.78C98.0512 105.95 96.3336 107.648 94.9248 109.875L146.886 139.875Z" fill="#8BC5E4"/>
<path fill-rule="evenodd" clip-rule="evenodd" d="M152.039 134.78C154.122 133.578 155.852 133.322 157.231 134.012L105.27 104.012C103.891 103.322 102.161 103.578 100.078 104.78L152.039 134.78Z" fill="#8BC5E4"/>
<path fill-rule="evenodd" clip-rule="evenodd" d="M157.241 134.017C157.339 134.066 157.435 134.121 157.53 134.18L105.569 104.18C105.474 104.121 105.378 104.066 105.28 104.017L157.241 134.017Z" fill="#8BC5E4"/>
<path fill-rule="evenodd" clip-rule="evenodd" d="M157.539 134.185C158.965 135.075 159.678 137.033 159.678 140.06L107.716 110.06C107.716 107.033 107.003 105.075 105.577 104.185L157.539 134.185Z" fill="#8BC5E4"/>
<path fill-rule="evenodd" clip-rule="evenodd" d="M159.678 140.06C159.678 142.513 159.36 144.633 158.725 146.42L106.764 116.42C107.399 114.633 107.716 112.513 107.716 110.06L159.678 140.06Z" fill="#8BC5E4"/>
<path fill-rule="evenodd" clip-rule="evenodd" d="M158.725 146.42C158.102 148.173 157.184 149.79 155.971 151.27L104.01 121.27C105.222 119.79 106.14 118.173 106.764 116.42L158.725 146.42Z" fill="#8BC5E4"/>
<path fill-rule="evenodd" clip-rule="evenodd" d="M155.971 151.27C154.77 152.743 153.459 153.89 152.039 154.71L100.078 124.71C101.498 123.89 102.808 122.743 104.009 121.27L155.971 151.27Z" fill="#8BC5E4"/>
<path fill-rule="evenodd" clip-rule="evenodd" d="M152.039 154.71C149.903 155.943 148.151 156.214 146.783 155.523L94.8218 125.523C96.1898 126.214 97.9418 125.943 100.078 124.71L152.039 154.71Z" fill="#8BC5E4"/>
<path fill-rule="evenodd" clip-rule="evenodd" d="M146.791 155.527C146.687 155.475 146.586 155.418 146.487 155.355L94.5259 125.355C94.6249 125.418 94.7259 125.475 94.8299 125.527L146.791 155.527Z" fill="#8BC5E4"/>
<path fill-rule="evenodd" clip-rule="evenodd" d="M146.48 155.35C145.077 154.447 144.375 152.385 144.375 149.165L92.4136 119.165C92.4136 122.385 93.1151 124.447 94.5181 125.35L146.48 155.35Z" fill="#8BC5E4"/>
<path fill-rule="evenodd" clip-rule="evenodd" d="M147.215 147.525C147.215 149.972 147.672 151.542 148.584 152.235L96.6222 122.235C95.71 121.542 95.2539 119.972 95.2539 117.525L147.215 147.525Z" fill="#8BC5E4"/>
<path fill-rule="evenodd" clip-rule="evenodd" d="M148.584 152.235C148.663 152.293 148.743 152.346 148.825 152.394L96.8632 122.394C96.7812 122.346 96.7012 122.293 96.6226 122.235L148.584 152.235Z" fill="#8BC5E4"/>
<path fill-rule="evenodd" clip-rule="evenodd" d="M148.823 152.394C149.693 152.898 150.762 152.785 152.031 152.055L100.07 122.055C98.8008 122.785 97.7318 122.898 96.8618 122.394L148.823 152.394Z" fill="#8BC5E4"/>
<path fill-rule="evenodd" clip-rule="evenodd" d="M152.039 152.05C153.407 151.26 154.551 149.99 155.469 148.24L103.507 118.24C102.589 119.99 101.446 121.26 100.078 122.05L152.039 152.05Z" fill="#8BC5E4"/>
<path fill-rule="evenodd" clip-rule="evenodd" d="M155.469 148.24C156.375 146.497 156.829 144.375 156.829 141.875L104.867 111.875C104.867 114.375 104.414 116.497 103.507 118.24L155.469 148.24Z" fill="#8BC5E4"/>
<path fill-rule="evenodd" clip-rule="evenodd" d="M156.828 141.875C156.828 139.515 156.369 137.993 155.451 137.31L103.49 107.31C104.408 107.993 104.867 109.515 104.867 111.875L156.828 141.875Z" fill="#8BC5E4"/>
<path fill-rule="evenodd" clip-rule="evenodd" d="M155.451 137.31C155.374 137.251 155.293 137.197 155.211 137.149L103.25 107.149C103.332 107.197 103.412 107.251 103.49 107.31L155.451 137.31Z" fill="#8BC5E4"/>
<path fill-rule="evenodd" clip-rule="evenodd" d="M155.211 137.15C154.344 136.639 153.289 136.74 152.047 137.455L100.086 107.455C101.328 106.74 102.383 106.639 103.25 107.15L155.211 137.15Z" fill="#8BC5E4"/>
<path fill-rule="evenodd" clip-rule="evenodd" d="M152.04 137.46C150.648 138.263 149.496 139.532 148.584 141.265L96.6226 111.265C97.5348 109.532 98.6867 108.263 100.078 107.46L152.04 137.46Z" fill="#8BC5E4"/>
<path fill-rule="evenodd" clip-rule="evenodd" d="M148.584 141.265C147.672 143.005 147.215 145.092 147.215 147.525L95.2539 117.525C95.2539 115.092 95.71 113.005 96.6222 111.265L148.584 141.265Z" fill="#8BC5E4"/>
<path fill-rule="evenodd" clip-rule="evenodd" d="M143.033 152.9C142.733 155.273 141.968 157.435 140.738 159.385L88.7764 129.385C90.0062 127.435 90.7712 125.273 91.0714 122.9L143.033 152.9Z" fill="#8BC5E4"/>
<path fill-rule="evenodd" clip-rule="evenodd" d="M140.738 159.385C139.514 161.325 138.013 162.808 136.234 163.835L84.2729 133.835C86.0511 132.808 87.5523 131.325 88.7762 129.385L140.738 159.385Z" fill="#8BC5E4"/>
<path fill-rule="evenodd" clip-rule="evenodd" d="M136.234 163.835C134.152 165.037 132.449 165.286 131.125 164.581L79.1631 134.581C80.4871 135.286 82.1901 135.037 84.273 133.835L136.234 163.835Z" fill="#8BC5E4"/>
<path fill-rule="evenodd" clip-rule="evenodd" d="M131.132 164.585C131.032 164.532 130.934 164.474 130.838 164.41L78.877 134.41C78.973 134.474 79.071 134.532 79.171 134.585L131.132 164.585Z" fill="#8BC5E4"/>
<path fill-rule="evenodd" clip-rule="evenodd" d="M130.83 164.405C129.479 163.472 128.804 161.415 128.804 158.235L76.8423 128.235C76.8423 131.415 77.5178 133.472 78.8688 134.405L130.83 164.405Z" fill="#8BC5E4"/>
<path fill-rule="evenodd" clip-rule="evenodd" d="M128.804 158.235C128.804 156.175 129.095 154.207 129.678 152.33L77.717 122.33C77.1339 124.207 76.8423 126.175 76.8423 128.235L128.804 158.235Z" fill="#8BC5E4"/>
<path fill-rule="evenodd" clip-rule="evenodd" d="M129.678 152.33C130.261 150.44 131.148 148.772 132.337 147.325L80.3755 117.325C79.1861 118.772 78.2999 120.44 77.7168 122.33L129.678 152.33Z" fill="#8BC5E4"/>
<path fill-rule="evenodd" clip-rule="evenodd" d="M132.337 147.325C133.532 145.855 134.834 144.713 136.243 143.9L84.2813 113.9C82.8725 114.713 81.5706 115.855 80.3755 117.325L132.337 147.325Z" fill="#8BC5E4"/>
<path fill-rule="evenodd" clip-rule="evenodd" d="M136.243 143.9C138.016 142.877 139.468 142.565 140.599 142.965L88.6378 112.965C87.5062 112.565 86.0541 112.877 84.2817 113.9L136.243 143.9Z" fill="#8BC5E4"/>
<path fill-rule="evenodd" clip-rule="evenodd" d="M140.599 142.965C140.753 143.019 140.899 143.086 141.038 143.165L89.077 113.165C88.938 113.086 88.792 113.019 88.6377 112.965L140.599 142.965Z" fill="#8BC5E4"/>
<path fill-rule="evenodd" clip-rule="evenodd" d="M141.049 143.172C141.919 143.673 142.493 144.668 142.771 146.155L90.8099 116.155C90.5319 114.668 89.9579 113.673 89.0879 113.172L141.049 143.172Z" fill="#8BC5E4"/>
<path fill-rule="evenodd" clip-rule="evenodd" d="M140.071 148.2C139.84 147.179 139.446 146.51 138.889 146.192L86.9277 116.192C87.4847 116.51 87.8787 117.179 88.1091 118.2L140.071 148.2Z" fill="#8BC5E4"/>
<path fill-rule="evenodd" clip-rule="evenodd" d="M138.895 146.196C138.838 146.163 138.779 146.134 138.718 146.108L86.7568 116.108C86.8178 116.134 86.8768 116.163 86.9338 116.196L138.895 146.196Z" fill="#8BC5E4"/>
<path fill-rule="evenodd" clip-rule="evenodd" d="M138.711 146.105C138.059 145.835 137.271 145.967 136.347 146.5L84.3853 116.5C85.3091 115.967 86.0971 115.835 86.7495 116.105L138.711 146.105Z" fill="#8BC5E4"/>
<path fill-rule="evenodd" clip-rule="evenodd" d="M136.347 146.5C134.956 147.303 133.824 148.543 132.952 150.22L80.9907 120.22C81.8625 118.543 82.9941 117.303 84.3855 116.5L136.347 146.5Z" fill="#8BC5E4"/>
<path fill-rule="evenodd" clip-rule="evenodd" d="M132.952 150.22C132.081 151.883 131.645 153.975 131.645 156.495L79.6831 126.495C79.6831 123.975 80.119 121.883 80.9908 120.22L132.952 150.22Z" fill="#8BC5E4"/>
<path fill-rule="evenodd" clip-rule="evenodd" d="M131.645 156.495C131.645 159.062 132.063 160.683 132.9 161.36L80.9388 131.36C80.1017 130.683 79.6831 129.062 79.6831 126.495L131.645 156.495Z" fill="#8BC5E4"/>
<path fill-rule="evenodd" clip-rule="evenodd" d="M132.9 161.36C132.993 161.433 133.088 161.498 133.187 161.554L81.2258 131.554C81.1268 131.498 81.0318 131.433 80.9385 131.36L132.9 161.36Z" fill="#8BC5E4"/>
<path fill-rule="evenodd" clip-rule="evenodd" d="M133.195 161.559C133.235 161.581 133.275 161.602 133.316 161.621L81.3549 131.621C81.3139 131.602 81.2739 131.581 81.2339 131.559L133.195 161.559Z" fill="#8BC5E4"/>
<path fill-rule="evenodd" clip-rule="evenodd" d="M133.316 161.621C134.097 161.995 135.055 161.854 136.192 161.2L84.23 131.2C83.093 131.854 82.135 131.995 81.354 131.621L133.316 161.621Z" fill="#8BC5E4"/>
<path fill-rule="evenodd" clip-rule="evenodd" d="M136.2 161.195C137.291 160.565 138.197 159.652 138.919 158.455L86.9576 128.455C86.2359 129.652 85.3295 130.565 84.2383 131.195L136.2 161.195Z" fill="#8BC5E4"/>
<path fill-rule="evenodd" clip-rule="evenodd" d="M138.919 158.455C139.647 157.262 140.108 155.802 140.305 154.075L88.3431 124.075C88.1468 125.802 87.685 127.262 86.9575 128.455L138.919 158.455Z" fill="#8BC5E4"/>
<path fill-rule="evenodd" clip-rule="evenodd" d="M126.145 163.5C125.701 165.71 124.869 167.703 123.651 169.48L71.6895 139.48C72.9077 137.703 73.7391 135.71 74.1836 133.5L126.145 163.5Z" fill="#8BC5E4"/>
<path fill-rule="evenodd" clip-rule="evenodd" d="M123.651 169.48C122.427 171.267 120.865 172.708 118.966 173.805L67.0044 143.805C68.9038 142.708 70.4656 141.267 71.6896 139.48L123.651 169.48Z" fill="#8BC5E4"/>
<path fill-rule="evenodd" clip-rule="evenodd" d="M118.966 173.805C116.753 175.083 114.963 175.382 113.596 174.702L61.6348 144.702C63.0018 145.382 64.7918 145.083 67.0042 143.805L118.966 173.805Z" fill="#8BC5E4"/>
<path fill-rule="evenodd" clip-rule="evenodd" d="M113.587 174.697C113.484 174.646 113.383 174.588 113.284 174.525L61.3228 144.525C61.4218 144.588 61.5228 144.646 61.6258 144.697L113.587 174.697Z" fill="#8BC5E4"/>
<path fill-rule="evenodd" clip-rule="evenodd" d="M113.276 174.52C111.879 173.607 111.18 171.6 111.18 168.5L59.2188 138.5C59.2188 141.6 59.9173 143.607 61.3145 144.52L113.276 174.52Z" fill="#8BC5E4"/>
<path fill-rule="evenodd" clip-rule="evenodd" d="M111.18 168.5C111.18 165.293 111.888 162.395 113.302 159.805L61.3405 129.805C59.9259 132.395 59.2188 135.293 59.2188 138.5L111.18 168.5Z" fill="#8BC5E4"/>
<path fill-rule="evenodd" clip-rule="evenodd" d="M113.302 159.805C114.722 157.212 116.561 155.263 118.818 153.96L66.8568 123.96C64.5994 125.263 62.7605 127.212 61.3403 129.805L113.302 159.805Z" fill="#8BC5E4"/>
<path fill-rule="evenodd" clip-rule="evenodd" d="M118.819 153.96C120.847 152.789 122.529 152.569 123.865 153.302L71.9038 123.302C70.5678 122.569 68.8858 122.789 66.8569 123.96L118.819 153.96Z" fill="#8BC5E4"/>
<path fill-rule="evenodd" clip-rule="evenodd" d="M123.874 153.307C123.969 153.359 124.062 153.417 124.154 153.479L72.1921 123.479C72.1001 123.417 72.0071 123.359 71.9121 123.307L123.874 153.307Z" fill="#8BC5E4"/>
<path fill-rule="evenodd" clip-rule="evenodd" d="M124.162 153.485C125.553 154.415 126.249 156.453 126.249 159.6L74.2873 129.6C74.2873 126.453 73.5916 124.415 72.2002 123.485L124.162 153.485Z" fill="#8BC5E4"/>
<path fill-rule="evenodd" clip-rule="evenodd" d="M126.249 159.6C126.249 159.787 126.243 160.077 126.232 160.47L74.27 130.47C74.2816 130.077 74.2873 129.787 74.2873 129.6L126.249 159.6Z" fill="#8BC5E4"/>
<path fill-rule="evenodd" clip-rule="evenodd" d="M114.047 167.505C114.138 169.383 114.574 170.644 115.357 171.289L63.3951 141.289C62.6121 140.644 62.1761 139.383 62.0854 137.505L114.047 167.505Z" fill="#8BC5E4"/>
<path fill-rule="evenodd" clip-rule="evenodd" d="M115.352 171.286C115.418 171.341 115.487 171.391 115.558 171.437L63.5961 141.437C63.5251 141.391 63.4561 141.341 63.3901 141.286L115.352 171.286Z" fill="#8BC5E4"/>
<path fill-rule="evenodd" clip-rule="evenodd" d="M115.562 171.44C115.644 171.493 115.728 171.54 115.813 171.581L63.8517 141.581C63.7667 141.54 63.6827 141.493 63.6006 141.44L115.562 171.44Z" fill="#8BC5E4"/>
<path fill-rule="evenodd" clip-rule="evenodd" d="M115.814 171.581C116.679 172.002 117.734 171.854 118.976 171.14L67.0141 141.14C65.7721 141.854 64.7171 142.002 63.8521 141.581L115.814 171.581Z" fill="#8BC5E4"/>
<path fill-rule="evenodd" clip-rule="evenodd" d="M118.983 171.135C119.993 170.552 120.859 169.742 121.581 168.705L69.6196 138.705C68.8979 139.742 68.0318 140.552 67.0215 141.135L118.983 171.135Z" fill="#8BC5E4"/>
<path fill-rule="evenodd" clip-rule="evenodd" d="M121.581 168.705C122.297 167.665 122.866 166.343 123.287 164.74L71.3256 134.74C70.9042 136.343 70.3355 137.665 69.6196 138.705L121.581 168.705Z" fill="#8BC5E4"/>
<path fill-rule="evenodd" clip-rule="evenodd" d="M123.313 159.495C123.198 157.962 122.851 156.958 122.274 156.485L70.3125 126.485C70.8898 126.958 71.2362 127.962 71.3517 129.495L123.313 159.495Z" fill="#8BC5E4"/>
<path fill-rule="evenodd" clip-rule="evenodd" d="M122.274 156.485C122.177 156.405 122.077 156.335 121.974 156.273L70.0127 126.273C70.1157 126.335 70.2157 126.405 70.3123 126.485L122.274 156.485Z" fill="#8BC5E4"/>
<path fill-rule="evenodd" clip-rule="evenodd" d="M121.976 156.273C121.141 155.774 120.1 155.883 118.853 156.6L66.8911 126.6C68.1381 125.883 69.1791 125.774 70.0141 126.273L121.976 156.273Z" fill="#8BC5E4"/>
<path fill-rule="evenodd" clip-rule="evenodd" d="M118.845 156.605C117.569 157.342 116.495 158.458 115.623 159.955L63.6616 129.955C64.5334 128.458 65.6073 127.342 66.8832 126.605L118.845 156.605Z" fill="#8BC5E4"/>
<path fill-rule="evenodd" clip-rule="evenodd" d="M115.623 159.955C114.763 161.445 114.286 163.047 114.194 164.76L62.2324 134.76C62.3247 133.047 62.8011 131.445 63.6613 129.955L115.623 159.955Z" fill="#8BC5E4"/>
<path fill-rule="evenodd" clip-rule="evenodd" d="M93.2017 179.51C93.3403 180.743 93.6521 181.647 94.137 182.22L42.1755 152.22C41.6905 151.647 41.3788 150.743 41.2402 149.51L93.2017 179.51Z" fill="#8BC5E4"/>
<path fill-rule="evenodd" clip-rule="evenodd" d="M94.1368 182.22C94.2804 182.384 94.4494 182.521 94.6414 182.63L42.6799 152.63C42.4879 152.521 42.3189 152.384 42.1753 152.22L94.1368 182.22Z" fill="#8BC5E4"/>
<path fill-rule="evenodd" clip-rule="evenodd" d="M94.6402 182.63C95.0942 182.888 95.6842 182.994 96.4082 182.945L44.4467 152.945C43.7227 152.994 43.1327 152.888 42.6787 152.63L94.6402 182.63Z" fill="#8BC5E4"/>
<path fill-rule="evenodd" clip-rule="evenodd" d="M96.4146 182.945C97.4365 182.868 98.5883 182.46 99.87 181.72L47.9085 151.72C46.6268 152.46 45.475 152.868 44.4531 152.945L96.4146 182.945Z" fill="#8BC5E4"/>
<path fill-rule="evenodd" clip-rule="evenodd" d="M99.8697 181.72C101.007 181.063 102.012 180.287 102.884 179.39L50.922 149.39C50.0502 150.287 49.0456 151.063 47.9082 151.72L99.8697 181.72Z" fill="#8BC5E4"/>
<path fill-rule="evenodd" clip-rule="evenodd" d="M102.884 179.39C103.756 178.487 104.402 177.573 104.824 176.65L52.8623 146.65C52.4408 147.573 51.7942 148.487 50.9224 149.39L102.884 179.39Z" fill="#8BC5E4"/>
<path fill-rule="evenodd" clip-rule="evenodd" d="M104.824 176.65C105.251 175.71 105.465 174.833 105.465 174.02L53.5031 144.02C53.5031 144.833 53.2895 145.71 52.8623 146.65L104.824 176.65Z" fill="#8BC5E4"/>
<path fill-rule="evenodd" clip-rule="evenodd" d="M105.465 174.02C105.465 173.193 105.26 172.595 104.85 172.225L52.8882 142.225C53.2982 142.595 53.5031 143.193 53.5031 144.02L105.465 174.02Z" fill="#8BC5E4"/>
<path fill-rule="evenodd" clip-rule="evenodd" d="M104.85 172.225C104.779 172.159 104.7 172.101 104.614 172.05L52.6528 142.05C52.7388 142.101 52.8178 142.159 52.8879 142.225L104.85 172.225Z" fill="#8BC5E4"/>
<path fill-rule="evenodd" clip-rule="evenodd" d="M104.615 172.05C104.201 171.805 103.605 171.733 102.828 171.834L50.8667 141.834C51.6437 141.733 52.2397 141.805 52.6537 142.05L104.615 172.05Z" fill="#8BC5E4"/>
<path fill-rule="evenodd" clip-rule="evenodd" d="M102.823 171.835C102.217 171.905 100.877 172.252 98.8048 172.875L46.8433 142.875C48.916 142.252 50.2554 141.905 50.8616 141.835L102.823 171.835Z" fill="#8BC5E4"/>
<path fill-rule="evenodd" clip-rule="evenodd" d="M98.8046 172.875C96.7319 173.485 95.2828 173.772 94.4572 173.735L42.4956 143.735C43.3213 143.772 44.7704 143.485 46.8431 142.875L98.8046 172.875Z" fill="#8BC5E4"/>
<path fill-rule="evenodd" clip-rule="evenodd" d="M94.4574 173.735C93.7745 173.712 93.1995 173.564 92.7335 173.293L40.772 143.293C41.238 143.564 41.813 143.712 42.4958 143.735L94.4574 173.735Z" fill="#8BC5E4"/>
<path fill-rule="evenodd" clip-rule="evenodd" d="M92.7386 173.296C92.4696 173.14 92.2356 172.942 92.0386 172.703L40.0771 142.703C40.2741 142.942 40.5081 143.14 40.7771 143.296L92.7386 173.296Z" fill="#8BC5E4"/>
<path fill-rule="evenodd" clip-rule="evenodd" d="M92.0325 172.695C91.5129 172.008 91.2531 171.062 91.2531 169.855L39.2915 139.855C39.2915 141.062 39.5514 142.008 40.071 142.695L92.0325 172.695Z" fill="#8BC5E4"/>
<path fill-rule="evenodd" clip-rule="evenodd" d="M91.2531 169.855C91.2531 168.528 91.5764 167.105 92.223 165.585L40.2615 135.585C39.6149 137.105 39.2915 138.528 39.2915 139.855L91.2531 169.855Z" fill="#8BC5E4"/>
<path fill-rule="evenodd" clip-rule="evenodd" d="M92.2227 165.585C92.8694 164.052 93.8133 162.627 95.0546 161.31L43.0931 131.31C41.8518 132.627 40.9078 134.052 40.2612 135.585L92.2227 165.585Z" fill="#8BC5E4"/>
<path fill-rule="evenodd" clip-rule="evenodd" d="M95.0548 161.31C96.2904 159.99 97.6673 158.892 99.1858 158.015L47.2242 128.015C45.7058 128.892 44.3288 129.99 43.0933 131.31L95.0548 161.31Z" fill="#8BC5E4"/>
<path fill-rule="evenodd" clip-rule="evenodd" d="M99.1857 158.015C100.86 157.048 102.335 156.517 103.611 156.42L51.6495 126.42C50.3736 126.517 48.8985 127.048 47.2241 128.015L99.1857 158.015Z" fill="#8BC5E4"/>
<path fill-rule="evenodd" clip-rule="evenodd" d="M103.611 156.42C104.462 156.34 105.181 156.471 105.767 156.812L53.8057 126.812C53.2197 126.471 52.5007 126.34 51.6494 126.42L103.611 156.42Z" fill="#8BC5E4"/>
<path fill-rule="evenodd" clip-rule="evenodd" d="M105.763 156.809C106.06 156.981 106.322 157.206 106.551 157.485L54.5898 127.485C54.3608 127.206 54.0988 126.981 53.8018 126.809L105.763 156.809Z" fill="#8BC5E4"/>
<path fill-rule="evenodd" clip-rule="evenodd" d="M106.556 157.49C107.249 158.31 107.621 159.475 107.673 160.985L55.7114 130.985C55.6594 129.475 55.287 128.31 54.5942 127.49L106.556 157.49Z" fill="#8BC5E4"/>
<path fill-rule="evenodd" clip-rule="evenodd" d="M104.806 162.89C104.665 161.473 104.226 160.557 103.488 160.142L51.5269 130.142C52.2649 130.557 52.7039 131.473 52.8447 132.89L104.806 162.89Z" fill="#8BC5E4"/>
<path fill-rule="evenodd" clip-rule="evenodd" d="M103.484 160.139C103.407 160.097 103.327 160.059 103.244 160.027L51.2827 130.027C51.3657 130.059 51.4457 130.097 51.5227 130.139L103.484 160.139Z" fill="#8BC5E4"/>
<path fill-rule="evenodd" clip-rule="evenodd" d="M103.239 160.025C102.355 159.688 101.048 160.02 99.3156 161.02L47.354 131.02C49.0861 130.02 50.3938 129.688 51.2771 130.025L103.239 160.025Z" fill="#8BC5E4"/>
<path fill-rule="evenodd" clip-rule="evenodd" d="M99.3158 161.02C97.5087 162.063 96.1894 163.215 95.358 164.475L43.3965 134.475C44.2279 133.215 45.5471 132.063 47.3542 131.02L99.3158 161.02Z" fill="#8BC5E4"/>
<path fill-rule="evenodd" clip-rule="evenodd" d="M95.3579 164.475C94.5439 165.705 94.1368 166.867 94.1368 167.96L42.1753 137.96C42.1753 136.867 42.5823 135.705 43.3964 134.475L95.3579 164.475Z" fill="#8BC5E4"/>
<path fill-rule="evenodd" clip-rule="evenodd" d="M94.1368 167.96C94.1364 168.848 94.3934 169.438 94.9054 169.73L42.9439 139.73C42.4319 139.438 42.1749 138.848 42.1753 137.96L94.1368 167.96Z" fill="#8BC5E4"/>
<path fill-rule="evenodd" clip-rule="evenodd" d="M94.8995 169.727C94.9335 169.747 94.9685 169.765 95.0045 169.782L43.043 139.782C43.007 139.765 42.972 139.747 42.938 139.727L94.8995 169.727Z" fill="#8BC5E4"/>
<path fill-rule="evenodd" clip-rule="evenodd" d="M95.0113 169.785C95.5829 170.068 97.0782 169.835 99.4973 169.085L47.5358 139.085C45.1167 139.835 43.6214 140.068 43.0498 139.785L95.0113 169.785Z" fill="#8BC5E4"/>
<path fill-rule="evenodd" clip-rule="evenodd" d="M99.4976 169.085C101.928 168.315 103.597 167.908 104.503 167.865L52.5417 137.865C51.6353 137.908 49.9668 138.315 47.5361 139.085L99.4976 169.085Z" fill="#8BC5E4"/>
<path fill-rule="evenodd" clip-rule="evenodd" d="M104.503 167.865C105.404 167.831 106.142 167.98 106.719 168.313L54.7578 138.313C54.1808 137.98 53.4428 137.831 52.5415 137.865L104.503 167.865Z" fill="#8BC5E4"/>
<path fill-rule="evenodd" clip-rule="evenodd" d="M106.715 168.311C106.977 168.461 107.205 168.65 107.4 168.876L55.4389 138.876C55.2439 138.65 55.0159 138.461 54.7539 138.311L106.715 168.311Z" fill="#8BC5E4"/>
<path fill-rule="evenodd" clip-rule="evenodd" d="M107.404 168.88C108.034 169.59 108.348 170.655 108.348 172.075L56.3869 142.075C56.3869 140.655 56.0722 139.59 55.4429 138.88L107.404 168.88Z" fill="#8BC5E4"/>
<path fill-rule="evenodd" clip-rule="evenodd" d="M108.349 172.075C108.349 173.468 108.005 174.987 107.318 176.63L55.3564 146.63C56.0435 144.987 56.387 143.468 56.387 142.075L108.349 172.075Z" fill="#8BC5E4"/>
<path fill-rule="evenodd" clip-rule="evenodd" d="M107.318 176.63C106.625 178.263 105.635 179.802 104.347 181.245L52.3857 151.245C53.6731 149.802 54.6633 148.263 55.3561 146.63L107.318 176.63Z" fill="#8BC5E4"/>
<path fill-rule="evenodd" clip-rule="evenodd" d="M104.347 181.245C103.065 182.665 101.619 183.84 100.008 184.77L48.0469 154.77C49.6577 153.84 51.1039 152.665 52.3857 151.245L104.347 181.245Z" fill="#8BC5E4"/>
<path fill-rule="evenodd" clip-rule="evenodd" d="M100.009 184.77C97.9647 185.95 96.2499 186.593 94.8643 186.7L42.9028 156.7C44.2884 156.593 46.0031 155.95 48.047 154.77L100.009 184.77Z" fill="#8BC5E4"/>
<path fill-rule="evenodd" clip-rule="evenodd" d="M94.8644 186.7C93.9775 186.758 93.2115 186.602 92.5665 186.232L40.605 156.232C41.25 156.602 42.016 156.758 42.9029 156.7L94.8644 186.7Z" fill="#8BC5E4"/>
<path fill-rule="evenodd" clip-rule="evenodd" d="M92.5584 186.227C92.2144 186.028 91.9054 185.767 91.6304 185.445L39.6689 155.445C39.9439 155.767 40.2529 156.028 40.5969 156.227L92.5584 186.227Z" fill="#8BC5E4"/>
<path fill-rule="evenodd" clip-rule="evenodd" d="M91.6253 185.44C90.8458 184.49 90.433 183.148 90.3868 181.415L38.4253 151.415C38.4715 153.148 38.8843 154.49 39.6637 155.44L91.6253 185.44Z" fill="#8BC5E4"/>
<path fill-rule="evenodd" clip-rule="evenodd" d="M188.161 164.335C179.709 169.215 172.859 181.17 172.859 191.03L120.897 161.03C120.897 151.17 127.747 139.215 136.2 134.335L188.161 164.335Z" fill="#8BC5E4"/>
<path fill-rule="evenodd" clip-rule="evenodd" d="M172.859 191.03C172.865 195.834 174.534 199.412 177.397 201.067L125.436 171.067C122.573 169.412 120.904 165.834 120.897 161.03L172.859 191.03Z" fill="#8BC5E4"/>
<path fill-rule="evenodd" clip-rule="evenodd" d="M177.394 201.065C178.204 201.534 179.11 201.849 180.101 201.994L128.139 171.994C127.148 171.849 126.242 171.534 125.432 171.065L177.394 201.065Z" fill="#8BC5E4"/>
<path fill-rule="evenodd" clip-rule="evenodd" d="M180.107 201.995C174.469 213.06 171.274 225.175 171.274 235.335L119.312 205.335C119.312 195.175 122.508 183.06 128.146 171.995L180.107 201.995Z" fill="#8BC5E4"/>
<path fill-rule="evenodd" clip-rule="evenodd" d="M205.04 215.84C205.04 205.56 201.056 198 195.774 193.27L143.812 163.27C149.095 168 153.078 175.56 153.078 185.84L205.04 215.84Z" fill="#8BC5E4"/>
<path fill-rule="evenodd" clip-rule="evenodd" d="M195.774 193.27C200.519 187.35 203.455 179.755 203.464 173.36L151.502 143.36C151.494 149.755 148.558 157.35 143.812 163.27L195.774 193.27Z" fill="#8BC5E4"/>
<path fill-rule="evenodd" clip-rule="evenodd" d="M203.464 173.36C203.463 168.459 201.771 164.995 199.03 163.349L147.069 133.349C149.81 134.995 151.502 138.459 151.502 143.36L203.464 173.36Z" fill="#8BC5E4"/>
<path fill-rule="evenodd" clip-rule="evenodd" d="M199.033 163.35C196.262 161.684 192.418 161.88 188.168 164.331L136.206 134.331C140.456 131.88 144.3 131.684 147.071 133.35L199.033 163.35Z" fill="#8BC5E4"/>
<path fill-rule="evenodd" clip-rule="evenodd" d="M137.698 193.47C133.637 195.815 129.748 199.94 126.882 204.945L74.9199 174.945C77.7865 169.94 81.6749 165.815 85.7366 163.47L137.698 193.47Z" fill="#8BC5E4"/>
<path fill-rule="evenodd" clip-rule="evenodd" d="M126.881 204.945C124.006 209.955 122.395 215.425 122.395 220.165L70.4336 190.165C70.4336 185.425 72.0444 179.955 74.9196 174.945L126.881 204.945Z" fill="#8BC5E4"/>
<path fill-rule="evenodd" clip-rule="evenodd" d="M122.395 220.165C122.402 224.969 124.07 228.547 126.938 230.2L74.9768 200.2C72.1088 198.547 70.4408 194.969 70.4336 190.165L122.395 220.165Z" fill="#8BC5E4"/>
<path fill-rule="evenodd" clip-rule="evenodd" d="M126.935 230.197C127.746 230.666 128.654 230.98 129.647 231.124L77.6851 201.124C76.6921 200.98 75.7841 200.666 74.9731 200.197L126.935 230.197Z" fill="#8BC5E4"/>
<path fill-rule="evenodd" clip-rule="evenodd" d="M129.652 231.125C124.006 242.195 120.819 254.305 120.819 264.465L68.8574 234.465C68.8574 224.305 72.0443 212.195 77.6908 201.125L129.652 231.125Z" fill="#8BC5E4"/>
<path fill-rule="evenodd" clip-rule="evenodd" d="M154.585 244.97C154.585 234.69 150.593 227.135 145.31 222.405L93.3486 192.405C98.6313 197.135 102.624 204.69 102.624 214.97L154.585 244.97Z" fill="#8BC5E4"/>
<path fill-rule="evenodd" clip-rule="evenodd" d="M145.31 222.405C150.056 216.485 152.992 208.89 153 202.495L101.039 172.495C101.03 178.89 98.0944 186.485 93.3486 192.405L145.31 222.405Z" fill="#8BC5E4"/>
<path fill-rule="evenodd" clip-rule="evenodd" d="M153.001 202.495C153.001 198.079 151.602 194.644 149.086 192.828L97.125 162.828C99.641 164.644 101.039 168.079 101.039 172.495L153.001 202.495Z" fill="#8BC5E4"/>
<path fill-rule="evenodd" clip-rule="evenodd" d="M149.095 192.834C148.91 192.7 148.72 192.576 148.524 192.46L96.562 162.46C96.758 162.576 96.948 162.7 97.133 162.834L149.095 192.834Z" fill="#8BC5E4"/>
<path fill-rule="evenodd" clip-rule="evenodd" d="M148.514 192.455C148.251 192.299 147.979 192.161 147.7 192.04L95.7388 162.04C96.0178 162.161 96.2898 162.299 96.5529 162.455L148.514 192.455Z" fill="#8BC5E4"/>
<path fill-rule="evenodd" clip-rule="evenodd" d="M147.7 192.04C144.934 190.844 141.39 191.34 137.703 193.467L85.7417 163.467C89.4287 161.34 92.9727 160.844 95.7387 162.04L147.7 192.04Z" fill="#8BC5E4"/>
<path fill-rule="evenodd" clip-rule="evenodd" d="M62.4317 147.315C56.6727 150.64 51.9615 158.85 51.9615 165.58L0 135.58C0 128.85 4.7112 120.64 10.4702 117.315L62.4317 147.315Z" fill="#8BC5E4"/>
<path fill-rule="evenodd" clip-rule="evenodd" d="M51.9615 341.14C51.9615 344.485 53.1255 346.852 55.0035 347.978L3.042 317.978C1.164 316.852 0 314.485 0 311.14L51.9615 341.14Z" fill="#8BC5E4"/>
<path fill-rule="evenodd" clip-rule="evenodd" d="M55.0015 347.977C56.8995 349.117 59.5295 348.988 62.4235 347.32L10.462 317.32C7.56804 318.988 4.93804 319.117 3.04004 317.977L55.0015 347.977Z" fill="#8BC5E4"/>
<path fill-rule="evenodd" clip-rule="evenodd" d="M263.194 231.405C268.944 228.085 273.664 219.87 273.664 213.14L221.702 183.14C221.702 189.87 216.982 198.085 211.232 201.405L263.194 231.405Z" fill="#8BC5E4"/>
<path fill-rule="evenodd" clip-rule="evenodd" d="M273.664 37.58C273.664 34.241 272.502 31.878 270.629 30.75L218.668 0.75C220.541 1.878 221.703 4.241 221.702 7.58L273.664 37.58Z" fill="#8BC5E4"/>
<path fill-rule="evenodd" clip-rule="evenodd" d="M270.621 30.745C268.721 29.606 266.092 29.734 263.202 31.4L211.241 1.39996C214.131 -0.266041 216.76 -0.394041 218.66 0.744959L270.621 30.745Z" fill="#8BC5E4"/>
<path fill-rule="evenodd" clip-rule="evenodd" d="M263.194 36.915C264.812 35.98 266.255 35.894 267.289 36.52L215.328 6.52C214.294 5.894 212.851 5.98 211.232 6.915L263.194 36.915Z" fill="#8BC5E4"/>
<path fill-rule="evenodd" clip-rule="evenodd" d="M267.287 36.519C268.305 37.135 268.925 38.441 268.926 40.309L216.965 10.309C216.964 8.44098 216.344 7.13498 215.326 6.51898L267.287 36.519Z" fill="#8BC5E4"/>
<path fill-rule="evenodd" clip-rule="evenodd" d="M268.927 215.875C268.927 219.645 266.406 224.04 263.194 225.895L211.232 195.895C214.445 194.04 216.965 189.645 216.965 185.875L268.927 215.875Z" fill="#8BC5E4"/>
<path fill-rule="evenodd" clip-rule="evenodd" d="M62.4314 341.805C60.8082 342.742 59.3632 342.83 58.3282 342.204L6.3667 312.204C7.4017 312.83 8.8467 312.742 10.4699 311.805L62.4314 341.805Z" fill="#8BC5E4"/>
<path fill-rule="evenodd" clip-rule="evenodd" d="M58.3305 342.205C57.3115 341.59 56.6915 340.284 56.6905 338.416L4.729 308.416C4.73 310.284 5.35 311.59 6.369 312.205L58.3305 342.205Z" fill="#8BC5E4"/>
<path fill-rule="evenodd" clip-rule="evenodd" d="M56.69 162.85C56.69 159.08 59.2101 154.685 62.4317 152.825L10.4702 122.825C7.24862 124.685 4.72852 129.08 4.72852 132.85L56.69 162.85Z" fill="#8BC5E4"/>
<path fill-rule="evenodd" clip-rule="evenodd" d="M62.4317 152.825L263.194 36.915C266.407 35.06 268.927 36.545 268.927 40.315V215.875C268.927 219.645 266.407 224.04 263.194 225.895L62.4317 341.805C59.2101 343.665 56.6899 342.18 56.6899 338.41V162.85C56.6899 159.08 59.2101 154.685 62.4317 152.825ZM225.66 116.075L225.963 118.94C226.621 118.82 227.216 118.607 227.747 118.3C228.631 117.79 229.39 117.102 230.025 116.235C230.666 115.372 231.232 114.268 231.722 112.925C232.092 111.918 232.611 110.175 233.281 107.695L239.499 84.715L236.728 86.315L233.238 99.45C232.788 101.117 232.406 102.783 232.095 104.45C231.743 103.107 231.344 101.863 230.9 100.72L227.505 91.64L224.526 93.36L230.726 108.88C230.611 109.293 230.527 109.605 230.475 109.815C230.088 111.318 229.806 112.285 229.627 112.715C229.396 113.282 229.095 113.788 228.726 114.235C228.356 114.695 227.86 115.105 227.236 115.465C226.792 115.722 226.266 115.925 225.66 116.075ZM215.536 98.55V117.62L218.308 116.02V106.04C218.308 104.673 218.461 103.325 218.767 101.995C218.974 101.128 219.318 100.347 219.797 99.65C220.282 98.93 220.825 98.3967 221.425 98.05C222.107 97.6567 222.785 97.5017 223.46 97.585L224.404 94.04C223.446 93.9 222.499 94.1 221.564 94.64C220.917 95.0133 220.323 95.5733 219.78 96.32C219.243 97.0567 218.66 98.2833 218.03 100V97.11L215.536 98.55ZM205.724 123.085C206.677 122.122 207.664 120.832 208.686 119.215C208.773 120.065 208.957 120.745 209.24 121.255L212.133 119.585C211.781 119.062 211.547 118.437 211.431 117.71C211.316 116.977 211.258 115.107 211.258 112.1V107.79C211.258 106.35 211.212 105.383 211.12 104.89C210.958 104.097 210.672 103.532 210.262 103.195C209.847 102.848 209.203 102.733 208.331 102.85C207.459 102.973 206.328 103.437 204.936 104.24C203.527 105.053 202.292 105.997 201.23 107.07C200.156 108.123 199.339 109.235 198.779 110.405C198.213 111.558 197.809 112.878 197.566 114.365L200.268 113.245C200.568 111.712 201.025 110.505 201.637 109.625C202.266 108.728 203.23 107.905 204.529 107.155C205.926 106.348 206.98 106.103 207.69 106.42C208.21 106.66 208.47 107.44 208.47 108.76C208.47 108.873 208.464 109.157 208.452 109.61C207.401 110.65 205.756 111.97 203.516 113.57C202.419 114.357 201.599 114.99 201.056 115.47C200.317 116.143 199.651 116.885 199.056 117.695C198.473 118.498 197.996 119.393 197.627 120.38C197.263 121.357 197.081 122.312 197.081 123.245C197.081 124.838 197.563 125.873 198.528 126.35C199.492 126.807 200.874 126.515 202.676 125.475C203.761 124.848 204.777 124.052 205.724 123.085ZM191.08 129.33V131.74L193.652 130.255V103.935L190.898 105.525V114.975C190.419 114.472 189.795 114.202 189.027 114.165C188.254 114.118 187.376 114.378 186.395 114.945C185.044 115.725 183.828 116.84 182.749 118.29C181.657 119.747 180.84 121.408 180.298 123.275C179.755 125.135 179.484 127.015 179.484 128.915C179.484 130.868 179.781 132.427 180.376 133.59C180.982 134.74 181.828 135.422 182.913 135.635C184.01 135.835 185.211 135.558 186.516 134.805C188.525 133.645 190.046 131.82 191.08 129.33ZM162.943 128.915V147.985L165.714 146.385V135.975C165.714 133.528 166.138 131.627 166.987 130.27C167.853 128.89 168.875 127.86 170.053 127.18C170.792 126.753 171.433 126.583 171.975 126.67C172.529 126.73 172.913 127.028 173.127 127.565C173.341 128.088 173.447 129.007 173.447 130.32V141.92L176.219 140.32V128.59C176.219 127.097 176.167 126.083 176.063 125.55C175.901 124.717 175.615 124.082 175.205 123.645C174.796 123.215 174.175 123.033 173.344 123.1C172.524 123.16 171.62 123.475 170.633 124.045C168.364 125.355 166.632 127.405 165.437 130.195V127.475L162.943 128.915ZM146.886 139.875C145.212 142.542 144.375 145.638 144.375 149.165C144.375 152.385 145.076 154.447 146.479 155.35C147.888 156.25 149.741 156.037 152.039 154.71C153.46 153.89 154.77 152.743 155.971 151.27C157.184 149.79 158.102 148.173 158.725 146.42C159.36 144.633 159.678 142.513 159.678 140.06C159.678 137.033 158.965 135.075 157.539 134.185C156.113 133.288 154.279 133.487 152.039 134.78C150.013 135.95 148.295 137.648 146.886 139.875ZM143.033 152.9L140.305 154.075C140.108 155.802 139.646 157.262 138.919 158.455C138.197 159.652 137.291 160.565 136.2 161.195C134.849 161.975 133.749 162.03 132.9 161.36C132.063 160.683 131.644 159.062 131.644 156.495C131.644 153.975 132.08 151.883 132.952 150.22C133.824 148.543 134.956 147.303 136.347 146.5C137.271 145.967 138.059 145.835 138.711 146.105C139.364 146.375 139.817 147.073 140.071 148.2L142.773 146.16C142.45 144.427 141.725 143.362 140.599 142.965C139.468 142.565 138.015 142.877 136.243 143.9C134.834 144.713 133.532 145.855 132.337 147.325C131.148 148.772 130.262 150.44 129.679 152.33C129.095 154.207 128.804 156.175 128.804 158.235C128.804 161.415 129.479 163.472 130.83 164.405C132.193 165.318 133.994 165.128 136.234 163.835C138.013 162.808 139.514 161.325 140.738 159.385C141.967 157.435 142.732 155.273 143.033 152.9ZM126.145 163.5L123.287 164.74C122.866 166.343 122.297 167.665 121.581 168.705C120.86 169.742 119.993 170.552 118.983 171.135C117.615 171.925 116.475 172.027 115.562 171.44C114.65 170.853 114.145 169.542 114.047 167.505L126.232 160.47C126.243 160.077 126.249 159.787 126.249 159.6C126.249 156.453 125.553 154.415 124.162 153.485C122.782 152.542 121.001 152.7 118.819 153.96C116.561 155.263 114.722 157.212 113.302 159.805C111.887 162.395 111.18 165.293 111.18 168.5C111.18 171.6 111.879 173.607 113.276 174.52C114.679 175.423 116.576 175.185 118.966 173.805C120.865 172.708 122.427 171.267 123.651 169.48C124.869 167.703 125.701 165.71 126.145 163.5ZM93.2016 179.51L90.387 181.415C90.4332 183.148 90.846 184.49 91.6254 185.44C92.4164 186.37 93.496 186.79 94.8643 186.7C96.25 186.593 97.9647 185.95 100.009 184.77C101.619 183.84 103.066 182.665 104.347 181.245C105.635 179.802 106.625 178.263 107.318 176.63C108.005 174.987 108.348 173.468 108.348 172.075C108.348 170.655 108.034 169.59 107.404 168.88C106.781 168.153 105.814 167.815 104.503 167.865C103.597 167.908 101.928 168.315 99.4976 169.085C97.0785 169.835 95.5831 170.068 95.0115 169.785C94.4284 169.515 94.1369 168.907 94.1369 167.96C94.1369 166.867 94.5439 165.705 95.358 164.475C96.1893 163.215 97.5086 162.063 99.3157 161.02C101.048 160.02 102.355 159.688 103.239 160.025C104.128 160.365 104.65 161.32 104.806 162.89L107.673 160.985C107.621 159.475 107.248 158.31 106.556 157.49C105.874 156.657 104.893 156.3 103.611 156.42C102.335 156.517 100.86 157.048 99.1858 158.015C97.6674 158.892 96.2904 159.99 95.0548 161.31C93.8135 162.627 92.8696 164.052 92.2229 165.585C91.5763 167.105 91.253 168.528 91.253 169.855C91.253 171.062 91.5128 172.008 92.0324 172.695C92.5694 173.352 93.3776 173.698 94.4573 173.735C95.2829 173.772 96.7321 173.485 98.8047 172.875C100.877 172.252 102.217 171.905 102.823 171.835C103.764 171.712 104.44 171.842 104.85 172.225C105.26 172.595 105.464 173.193 105.464 174.02C105.464 174.833 105.251 175.71 104.824 176.65C104.402 177.573 103.756 178.487 102.884 179.39C102.012 180.287 101.007 181.063 99.8699 181.72C98.5882 182.46 97.4364 182.868 96.4145 182.945C95.3811 183.015 94.6218 182.773 94.1369 182.22C93.6519 181.647 93.3401 180.743 93.2016 179.51ZM216.212 208L237.412 178.16V190.13L261.739 176.085V187.345L237.412 201.39V213.36L216.212 208ZM88.4124 276.155V264.185L109.613 269.545L88.4124 299.385V287.415L64.0944 301.455V290.195L88.4124 276.155ZM172.859 191.03C172.859 181.17 179.709 169.215 188.161 164.335C196.614 159.455 203.464 163.5 203.464 173.36C203.455 179.755 200.519 187.35 195.774 193.27C201.056 198 205.04 205.56 205.04 215.84V233.19L171.274 252.685V235.335C171.274 225.175 174.469 213.06 180.107 201.995C175.613 201.34 172.867 197.195 172.859 191.03ZM126.881 204.945C129.748 199.94 133.636 195.815 137.698 193.47C141.76 191.125 145.648 190.76 148.515 192.455C151.39 194.145 153.001 197.755 153.001 202.495C152.992 208.89 150.056 216.485 145.31 222.405C150.593 227.135 154.585 234.69 154.585 244.97V262.32L120.819 281.815V264.465C120.819 254.305 124.006 242.195 129.653 231.125C125.149 230.475 122.404 226.33 122.395 220.165C122.395 215.425 124.006 209.955 126.881 204.945ZM240.53 141.05V129.07L261.739 134.425L240.53 164.27V152.29L216.212 166.33V155.09L240.53 141.05ZM64.0944 248.535L85.2947 218.695V230.675L109.613 216.635V227.875L85.2947 241.915V253.895L64.0944 248.535Z" fill="white"/>
<path d="M182.324 127.275C182.324 129.715 182.766 131.287 183.649 131.99C184.538 132.683 185.58 132.685 186.776 131.995C187.982 131.298 189.01 130.132 189.859 128.495C190.707 126.845 191.132 124.837 191.132 122.47C191.132 119.857 190.702 118.185 189.841 117.455C188.975 116.742 187.91 116.75 186.646 117.48C185.422 118.187 184.394 119.367 183.563 121.02C182.737 122.663 182.324 124.748 182.324 127.275Z" fill="white"/>
<path d="M208.452 112.14C207.448 113.2 205.941 114.477 203.932 115.97C202.794 116.813 201.989 117.495 201.515 118.015C201.042 118.522 200.678 119.082 200.424 119.695C200.17 120.302 200.043 120.885 200.043 121.445C200.043 122.312 200.32 122.872 200.874 123.125C201.44 123.365 202.26 123.175 203.334 122.555C204.402 121.938 205.349 121.125 206.175 120.115C207.012 119.078 207.624 117.975 208.011 116.805C208.305 115.908 208.452 114.747 208.452 113.32V112.14Z" fill="white"/>
<path d="M147.216 147.525C147.216 149.972 147.672 151.542 148.584 152.235C149.496 152.915 150.648 152.853 152.039 152.05C153.408 151.26 154.551 149.99 155.469 148.24C156.375 146.497 156.828 144.375 156.828 141.875C156.828 139.515 156.369 137.993 155.451 137.31C154.539 136.623 153.402 136.673 152.039 137.46C150.648 138.263 149.496 139.532 148.584 141.265C147.672 143.005 147.216 145.092 147.216 147.525Z" fill="white"/>
<path fill-rule="evenodd" clip-rule="evenodd" d="M225.66 116.075L225.963 118.94C226.621 118.82 227.216 118.607 227.747 118.3C228.631 117.79 229.39 117.102 230.025 116.235C230.666 115.372 231.232 114.268 231.722 112.925C232.092 111.918 232.611 110.175 233.281 107.695L239.499 84.715L236.728 86.315L233.238 99.45C232.788 101.117 232.406 102.783 232.095 104.45C231.743 103.107 231.344 101.863 230.9 100.72L227.505 91.64L224.526 93.36L230.726 108.88C230.611 109.293 230.527 109.605 230.475 109.815C230.088 111.318 229.806 112.285 229.627 112.715C229.396 113.282 229.095 113.788 228.726 114.235C228.356 114.695 227.86 115.105 227.236 115.465C226.792 115.722 226.266 115.925 225.66 116.075ZM215.536 98.55V117.62L218.308 116.02V106.04C218.308 104.673 218.461 103.325 218.767 101.995C218.974 101.128 219.318 100.347 219.797 99.65C220.282 98.93 220.825 98.3967 221.425 98.05C222.107 97.6567 222.785 97.5017 223.46 97.585L224.404 94.04C223.446 93.9 222.499 94.1 221.564 94.64C220.917 95.0133 220.323 95.5733 219.78 96.32C219.243 97.0567 218.66 98.2833 218.03 100V97.11L215.536 98.55ZM205.724 123.085C206.677 122.122 207.664 120.832 208.686 119.215C208.773 120.065 208.957 120.745 209.24 121.255L212.133 119.585C211.781 119.062 211.547 118.437 211.431 117.71C211.316 116.977 211.258 115.107 211.258 112.1V107.79C211.258 106.35 211.212 105.383 211.12 104.89C210.958 104.097 210.672 103.532 210.262 103.195C209.847 102.848 209.203 102.733 208.331 102.85C207.459 102.973 206.328 103.437 204.936 104.24C203.527 105.053 202.292 105.997 201.23 107.07C200.156 108.123 199.339 109.235 198.779 110.405C198.213 111.558 197.809 112.878 197.566 114.365L200.268 113.245C200.568 111.712 201.025 110.505 201.637 109.625C202.266 108.728 203.23 107.905 204.529 107.155C205.926 106.348 206.98 106.103 207.69 106.42C208.21 106.66 208.47 107.44 208.47 108.76C208.47 108.873 208.464 109.157 208.452 109.61C207.401 110.65 205.756 111.97 203.516 113.57C202.419 114.357 201.599 114.99 201.056 115.47C200.317 116.143 199.651 116.885 199.056 117.695C198.473 118.498 197.996 119.393 197.627 120.38C197.263 121.357 197.081 122.312 197.081 123.245C197.081 124.838 197.563 125.873 198.528 126.35C199.492 126.807 200.874 126.515 202.676 125.475C203.761 124.848 204.777 124.052 205.724 123.085ZM203.932 115.97C205.941 114.477 207.448 113.2 208.452 112.14V113.32C208.452 114.747 208.305 115.908 208.011 116.805C207.624 117.975 207.012 119.078 206.175 120.115C205.349 121.125 204.402 121.938 203.334 122.555C202.26 123.175 201.44 123.365 200.874 123.125C200.32 122.872 200.043 122.312 200.043 121.445C200.043 120.885 200.17 120.302 200.424 119.695C200.678 119.082 201.042 118.522 201.515 118.015C201.989 117.495 202.794 116.813 203.932 115.97ZM191.08 129.33V131.74L193.652 130.255V103.935L190.898 105.525V114.975C190.419 114.472 189.795 114.202 189.027 114.165C188.254 114.118 187.376 114.378 186.395 114.945C185.044 115.725 183.828 116.84 182.749 118.29C181.657 119.747 180.84 121.408 180.298 123.275C179.755 125.135 179.484 127.015 179.484 128.915C179.484 130.868 179.781 132.427 180.376 133.59C180.982 134.74 181.828 135.422 182.913 135.635C184.01 135.835 185.211 135.558 186.516 134.805C188.525 133.645 190.046 131.82 191.08 129.33ZM183.649 131.99C182.766 131.287 182.324 129.715 182.324 127.275C182.324 124.748 182.737 122.663 183.563 121.02C184.394 119.367 185.422 118.187 186.646 117.48C187.91 116.75 188.975 116.742 189.841 117.455C190.702 118.185 191.132 119.857 191.132 122.47C191.132 124.837 190.707 126.845 189.859 128.495C189.01 130.132 187.982 131.298 186.776 131.995C185.58 132.685 184.538 132.683 183.649 131.99ZM162.943 128.915V147.985L165.714 146.385V135.975C165.714 133.528 166.138 131.627 166.987 130.27C167.853 128.89 168.875 127.86 170.053 127.18C170.792 126.753 171.433 126.583 171.975 126.67C172.529 126.73 172.913 127.028 173.127 127.565C173.341 128.088 173.447 129.007 173.447 130.32V141.92L176.219 140.32V128.59C176.219 127.097 176.167 126.083 176.063 125.55C175.901 124.717 175.615 124.082 175.205 123.645C174.796 123.215 174.175 123.033 173.344 123.1C172.524 123.16 171.62 123.475 170.633 124.045C168.364 125.355 166.632 127.405 165.437 130.195V127.475L162.943 128.915ZM146.886 139.875C145.212 142.542 144.375 145.638 144.375 149.165C144.375 152.385 145.076 154.447 146.479 155.35C147.888 156.25 149.741 156.037 152.039 154.71C153.46 153.89 154.77 152.743 155.971 151.27C157.184 149.79 158.102 148.173 158.725 146.42C159.36 144.633 159.678 142.513 159.678 140.06C159.678 137.033 158.965 135.075 157.539 134.185C156.113 133.288 154.279 133.487 152.039 134.78C150.013 135.95 148.295 137.648 146.886 139.875ZM148.584 152.235C147.672 151.542 147.216 149.972 147.216 147.525C147.216 145.092 147.672 143.005 148.584 141.265C149.496 139.532 150.648 138.263 152.039 137.46C153.402 136.673 154.539 136.623 155.451 137.31C156.369 137.993 156.828 139.515 156.828 141.875C156.828 144.375 156.375 146.497 155.469 148.24C154.551 149.99 153.408 151.26 152.039 152.05C150.648 152.853 149.496 152.915 148.584 152.235ZM143.033 152.9L140.305 154.075C140.108 155.802 139.646 157.262 138.919 158.455C138.197 159.652 137.291 160.565 136.2 161.195C134.849 161.975 133.749 162.03 132.9 161.36C132.063 160.683 131.644 159.062 131.644 156.495C131.644 153.975 132.08 151.883 132.952 150.22C133.824 148.543 134.956 147.303 136.347 146.5C137.271 145.967 138.059 145.835 138.711 146.105C139.364 146.375 139.817 147.073 140.071 148.2L142.773 146.16C142.45 144.427 141.725 143.362 140.599 142.965C139.468 142.565 138.015 142.877 136.243 143.9C134.834 144.713 133.532 145.855 132.337 147.325C131.148 148.772 130.262 150.44 129.679 152.33C129.095 154.207 128.804 156.175 128.804 158.235C128.804 161.415 129.479 163.472 130.83 164.405C132.193 165.318 133.994 165.128 136.234 163.835C138.013 162.808 139.514 161.325 140.738 159.385C141.967 157.435 142.732 155.273 143.033 152.9ZM93.2016 179.51L90.387 181.415C90.4332 183.148 90.846 184.49 91.6254 185.44C92.4164 186.37 93.496 186.79 94.8643 186.7C96.25 186.593 97.9647 185.95 100.009 184.77C101.619 183.84 103.066 182.665 104.347 181.245C105.635 179.802 106.625 178.263 107.318 176.63C108.005 174.987 108.348 173.468 108.348 172.075C108.348 170.655 108.034 169.59 107.404 168.88C106.781 168.153 105.814 167.815 104.503 167.865C103.597 167.908 101.928 168.315 99.4976 169.085C97.0785 169.835 95.5831 170.068 95.0115 169.785C94.4284 169.515 94.1369 168.907 94.1369 167.96C94.1369 166.867 94.5439 165.705 95.358 164.475C96.1893 163.215 97.5086 162.063 99.3157 161.02C101.048 160.02 102.355 159.688 103.239 160.025C104.128 160.365 104.65 161.32 104.806 162.89L107.673 160.985C107.621 159.475 107.248 158.31 106.556 157.49C105.874 156.657 104.893 156.3 103.611 156.42C102.335 156.517 100.86 157.048 99.1858 158.015C97.6674 158.892 96.2904 159.99 95.0548 161.31C93.8135 162.627 92.8696 164.052 92.2229 165.585C91.5763 167.105 91.253 168.528 91.253 169.855C91.253 171.062 91.5128 172.008 92.0324 172.695C92.5694 173.352 93.3776 173.698 94.4573 173.735C95.2829 173.772 96.7321 173.485 98.8047 172.875C100.877 172.252 102.217 171.905 102.823 171.835C103.764 171.712 104.44 171.842 104.85 172.225C105.26 172.595 105.464 173.193 105.464 174.02C105.464 174.833 105.251 175.71 104.824 176.65C104.402 177.573 103.756 178.487 102.884 179.39C102.012 180.287 101.007 181.063 99.8699 181.72C98.5882 182.46 97.4364 182.868 96.4145 182.945C95.3811 183.015 94.6218 182.773 94.1369 182.22C93.6519 181.647 93.3401 180.743 93.2016 179.51ZM216.212 208L237.412 178.16V190.13L261.739 176.085V187.345L237.412 201.39V213.36L216.212 208ZM88.4124 276.155V264.185L109.613 269.545L88.4124 299.385V287.415L64.0944 301.455V290.195L88.4124 276.155ZM172.859 191.03C172.859 181.17 179.709 169.215 188.161 164.335C196.614 159.455 203.464 163.5 203.464 173.36C203.455 179.755 200.519 187.35 195.774 193.27C201.056 198 205.04 205.56 205.04 215.84V233.19L171.274 252.685V235.335C171.274 225.175 174.469 213.06 180.107 201.995C175.613 201.34 172.867 197.195 172.859 191.03ZM126.881 204.945C129.748 199.94 133.636 195.815 137.698 193.47C141.76 191.125 145.648 190.76 148.515 192.455C151.39 194.145 153.001 197.755 153.001 202.495C152.992 208.89 150.056 216.485 145.31 222.405C150.593 227.135 154.585 234.69 154.585 244.97V262.32L120.819 281.815V264.465C120.819 254.305 124.006 242.195 129.653 231.125C125.149 230.475 122.404 226.33 122.395 220.165C122.395 215.425 124.006 209.955 126.881 204.945ZM240.53 141.05V129.07L261.739 134.425L240.53 164.27V152.29L216.212 166.33V155.09L240.53 141.05ZM64.0944 248.535L85.2947 218.695V230.675L109.613 216.635V227.875L85.2947 241.915V253.895L64.0944 248.535ZM51.9614 165.58C51.9614 158.85 56.6726 150.64 62.4317 147.315L263.194 31.405C268.944 28.085 273.664 30.85 273.664 37.58V213.14C273.664 219.87 268.944 228.085 263.194 231.405L62.4317 347.315C56.6726 350.64 51.9614 347.87 51.9614 341.14V165.58ZM263.194 36.915L62.4317 152.825C59.2101 154.685 56.6899 159.08 56.6899 162.85V338.41C56.6899 342.18 59.2101 343.665 62.4317 341.805L263.194 225.895C266.407 224.04 268.927 219.645 268.927 215.875V40.315C268.927 36.545 266.407 35.06 263.194 36.915Z" fill="#8BC5E4"/>
<path d="M114.194 164.76L123.313 159.495C123.198 157.962 122.851 156.958 122.274 156.485C121.391 155.755 120.248 155.795 118.845 156.605C117.569 157.342 116.495 158.458 115.623 159.955C114.763 161.445 114.286 163.047 114.194 164.76Z" fill="white"/>
</svg>
