<svg width="274" height="349" viewBox="0 0 274 349" fill="none" xmlns="http://www.w3.org/2000/svg">
<path fill-rule="evenodd" clip-rule="evenodd" d="M10.4619 36.9244L211.233 152.839L263.194 122.839L62.4234 6.92438L10.4619 36.9244Z" fill="#8BC5E4"/>
<path fill-rule="evenodd" clip-rule="evenodd" d="M216.974 162.844V338.414L268.935 308.414V132.844L216.974 162.844Z" fill="#8BC5E4"/>
<path fill-rule="evenodd" clip-rule="evenodd" d="M211.233 341.799L10.4619 225.884L62.4234 195.884L263.194 311.799L211.233 341.799Z" fill="#8BC5E4"/>
<path fill-rule="evenodd" clip-rule="evenodd" d="M4.72852 215.874V40.3044L56.69 10.3044V185.874L4.72852 215.874Z" fill="#8BC5E4"/>
<path fill-rule="evenodd" clip-rule="evenodd" d="M10.4619 36.9244L62.4234 6.92438L10.4619 36.9244Z" fill="#8BC5E4"/>
<path fill-rule="evenodd" clip-rule="evenodd" d="M0 37.5743V213.144L51.9615 183.144V7.57434L0 37.5743Z" fill="#8BC5E4"/>
<path fill-rule="evenodd" clip-rule="evenodd" d="M10.4619 231.404L211.233 347.319L263.194 317.319L62.4234 201.404L10.4619 231.404Z" fill="#8BC5E4"/>
<path fill-rule="evenodd" clip-rule="evenodd" d="M221.702 341.144V165.574L273.664 135.574V311.144L221.702 341.144Z" fill="#8BC5E4"/>
<path fill-rule="evenodd" clip-rule="evenodd" d="M211.233 147.319L10.4619 31.4044L62.4234 1.40436L263.194 117.319L211.233 147.319Z" fill="#8BC5E4"/>
<path fill-rule="evenodd" clip-rule="evenodd" d="M10.4619 31.4044L62.4234 1.40436L10.4619 31.4044Z" fill="#8BC5E4"/>
<path fill-rule="evenodd" clip-rule="evenodd" d="M30.0947 176.559L36.0443 179.994L88.0058 149.994L82.0562 146.559L30.0947 176.559Z" fill="#8BC5E4"/>
<path fill-rule="evenodd" clip-rule="evenodd" d="M61.8857 194.914L156.698 249.654L208.66 219.654L113.847 164.914L61.8857 194.914Z" fill="#8BC5E4"/>
<path fill-rule="evenodd" clip-rule="evenodd" d="M182.541 264.574L191.721 269.874L243.682 239.874L234.503 234.574L182.541 264.574Z" fill="#8BC5E4"/>
<path fill-rule="evenodd" clip-rule="evenodd" d="M189.919 192.654L30.3105 100.504L82.272 70.5044L241.881 162.654L189.919 192.654Z" fill="#8BC5E4"/>
<path fill-rule="evenodd" clip-rule="evenodd" d="M30.3105 100.504L82.272 70.5044L30.3105 100.504Z" fill="#8BC5E4"/>
<path fill-rule="evenodd" clip-rule="evenodd" d="M10.4619 36.9244L211.233 152.839L263.194 122.839L62.4234 6.92438L10.4619 36.9244Z" fill="#8BC5E4"/>
<path fill-rule="evenodd" clip-rule="evenodd" d="M216.974 162.844V338.414L268.935 308.414V132.844L216.974 162.844Z" fill="#8BC5E4"/>
<path fill-rule="evenodd" clip-rule="evenodd" d="M211.233 341.799L10.4619 225.884L62.4234 195.884L263.194 311.799L211.233 341.799Z" fill="#8BC5E4"/>
<path fill-rule="evenodd" clip-rule="evenodd" d="M4.72852 215.874V40.3044L56.69 10.3044V185.874L4.72852 215.874Z" fill="#8BC5E4"/>
<path fill-rule="evenodd" clip-rule="evenodd" d="M10.4619 36.9244L62.4234 6.92438L10.4619 36.9244Z" fill="#8BC5E4"/>
<path fill-rule="evenodd" clip-rule="evenodd" d="M30.3105 100.504L189.919 192.654L241.881 162.654L82.272 70.5044L30.3105 100.504Z" fill="#8BC5E4"/>
<path fill-rule="evenodd" clip-rule="evenodd" d="M191.721 269.874L182.541 264.574L234.503 234.574L243.682 239.874L191.721 269.874Z" fill="#8BC5E4"/>
<path fill-rule="evenodd" clip-rule="evenodd" d="M156.698 249.654L61.8857 194.914L113.847 164.914L208.66 219.654L156.698 249.654Z" fill="#8BC5E4"/>
<path fill-rule="evenodd" clip-rule="evenodd" d="M36.0443 179.994L30.0947 176.559L82.0562 146.559L88.0058 149.994L36.0443 179.994Z" fill="#8BC5E4"/>
<path fill-rule="evenodd" clip-rule="evenodd" d="M27.7822 100.844L79.7437 70.8444L27.7822 100.844Z" fill="#8BC5E4"/>
<path fill-rule="evenodd" clip-rule="evenodd" d="M159.375 251.199L179.856 263.024L231.818 233.024L211.336 221.199L159.375 251.199Z" fill="#8BC5E4"/>
<path fill-rule="evenodd" clip-rule="evenodd" d="M159.375 251.199L211.336 221.199L159.375 251.199Z" fill="#8BC5E4"/>
<path fill-rule="evenodd" clip-rule="evenodd" d="M38.7197 181.539L59.2012 193.364L111.163 163.364L90.6812 151.539L38.7197 181.539Z" fill="#8BC5E4"/>
<path fill-rule="evenodd" clip-rule="evenodd" d="M38.7197 181.539L90.6812 151.539L38.7197 181.539Z" fill="#8BC5E4"/>
<path fill-rule="evenodd" clip-rule="evenodd" d="M27.2627 148.234L194.137 244.579L246.099 214.579L79.2242 118.234L27.2627 148.234Z" fill="#8BC5E4"/>
<path fill-rule="evenodd" clip-rule="evenodd" d="M190.517 265.009L31.0645 172.949L83.0261 142.949L242.479 235.009L190.517 265.009Z" fill="#8BC5E4"/>
<path fill-rule="evenodd" clip-rule="evenodd" d="M27.2627 148.234L79.2242 118.234L27.2627 148.234Z" fill="#8BC5E4"/>
<path fill-rule="evenodd" clip-rule="evenodd" d="M176.487 219.959L228.449 189.959L176.487 219.959Z" fill="#8BC5E4"/>
<path fill-rule="evenodd" clip-rule="evenodd" d="M164.181 212.854L216.142 182.854L164.181 212.854Z" fill="#8BC5E4"/>
<path fill-rule="evenodd" clip-rule="evenodd" d="M151.641 205.614L203.602 175.614L151.641 205.614Z" fill="#8BC5E4"/>
<path fill-rule="evenodd" clip-rule="evenodd" d="M41.8984 138.644L93.8599 108.644L41.8984 138.644Z" fill="#8BC5E4"/>
<path fill-rule="evenodd" clip-rule="evenodd" d="M50.126 155.784L56.7597 159.614L108.721 129.614L102.087 125.784L50.126 155.784Z" fill="#8BC5E4"/>
<path fill-rule="evenodd" clip-rule="evenodd" d="M56.7598 159.614V161.484L108.721 131.484V129.614L56.7598 159.614Z" fill="#8BC5E4"/>
<path fill-rule="evenodd" clip-rule="evenodd" d="M56.7595 161.484L47.8135 156.319L99.775 126.319L108.721 131.484L56.7595 161.484Z" fill="#8BC5E4"/>
<path fill-rule="evenodd" clip-rule="evenodd" d="M49.8399 146.399L48.1338 145.214L100.095 115.214L101.801 116.399L49.8399 146.399Z" fill="#8BC5E4"/>
<path fill-rule="evenodd" clip-rule="evenodd" d="M52.5244 143.179L104.486 113.179L52.5244 143.179Z" fill="#8BC5E4"/>
<path fill-rule="evenodd" clip-rule="evenodd" d="M41.916 137.054L93.8776 107.054L41.916 137.054Z" fill="#8BC5E4"/>
<path fill-rule="evenodd" clip-rule="evenodd" d="M30.7266 104.914L189.919 196.824L241.881 166.824L82.6881 74.9144L30.7266 104.914Z" fill="#8BC5E4"/>
<path fill-rule="evenodd" clip-rule="evenodd" d="M194.042 220.824L27.332 124.574L79.2935 94.5743L246.003 190.824L194.042 220.824Z" fill="#8BC5E4"/>
<path fill-rule="evenodd" clip-rule="evenodd" d="M30.7266 104.914L82.6881 74.9144L30.7266 104.914Z" fill="#8BC5E4"/>
<path fill-rule="evenodd" clip-rule="evenodd" d="M211.232 152.839C214.454 154.699 216.974 159.084 216.974 162.844L268.936 132.844C268.936 129.084 266.416 124.699 263.194 122.839L211.232 152.839Z" fill="#8BC5E4"/>
<path fill-rule="evenodd" clip-rule="evenodd" d="M216.974 338.414C216.974 340.375 216.289 341.717 215.176 342.289L267.137 312.289C268.25 311.717 268.935 310.375 268.935 308.414L216.974 338.414Z" fill="#8BC5E4"/>
<path fill-rule="evenodd" clip-rule="evenodd" d="M215.177 342.288C214.157 342.813 212.777 342.69 211.237 341.802L263.199 311.802C264.739 312.69 266.119 312.813 267.139 312.288L215.177 342.288Z" fill="#8BC5E4"/>
<path fill-rule="evenodd" clip-rule="evenodd" d="M10.4616 225.884C7.24862 224.029 4.72852 219.634 4.72852 215.874L56.69 185.874C56.69 189.634 59.2102 194.029 62.4231 195.884L10.4616 225.884Z" fill="#8BC5E4"/>
<path fill-rule="evenodd" clip-rule="evenodd" d="M4.72852 40.3044C4.72802 38.3514 5.40902 37.0144 6.51302 36.4404L58.4745 6.44037C57.3705 7.01437 56.6895 8.35137 56.69 10.3044L4.72852 40.3044Z" fill="#8BC5E4"/>
<path fill-rule="evenodd" clip-rule="evenodd" d="M6.52441 36.4354C7.54341 35.9114 8.92041 36.0354 10.4574 36.9214L62.4189 6.92139C60.8819 6.03539 59.5049 5.91139 58.4859 6.43539L6.52441 36.4354Z" fill="#8BC5E4"/>
<path fill-rule="evenodd" clip-rule="evenodd" d="M10.4611 31.4044C7.70355 29.8124 5.18555 29.6204 3.31055 30.5934L55.272 0.593367C57.147 -0.379633 59.665 -0.187633 62.4226 1.40437L10.4611 31.4044Z" fill="#8BC5E4"/>
<path fill-rule="evenodd" clip-rule="evenodd" d="M3.314 30.5914C1.28 31.6454 0.003 34.0704 0 37.5644L51.9615 7.56437C51.9645 4.07037 53.2415 1.64537 55.2755 0.59137L3.314 30.5914Z" fill="#8BC5E4"/>
<path fill-rule="evenodd" clip-rule="evenodd" d="M0 213.144C0 219.864 4.7112 228.084 10.4616 231.404L62.4231 201.404C56.6727 198.084 51.9615 189.864 51.9615 183.144L0 213.144Z" fill="#8BC5E4"/>
<path fill-rule="evenodd" clip-rule="evenodd" d="M211.232 347.319C213.988 348.91 216.504 349.103 218.378 348.136L270.34 318.136C268.466 319.103 265.95 318.91 263.194 317.319L211.232 347.319Z" fill="#8BC5E4"/>
<path fill-rule="evenodd" clip-rule="evenodd" d="M218.387 348.131C220.423 347.075 221.7 344.648 221.702 341.154L273.663 311.154C273.661 314.648 272.384 317.075 270.348 318.131L218.387 348.131Z" fill="#8BC5E4"/>
<path fill-rule="evenodd" clip-rule="evenodd" d="M221.703 165.574C221.703 158.854 216.991 150.644 211.232 147.319L263.194 117.319C268.953 120.644 273.664 128.854 273.664 135.574L221.703 165.574Z" fill="#8BC5E4"/>
<path fill-rule="evenodd" clip-rule="evenodd" d="M30.3106 100.504C29.4827 100.026 28.8567 100.088 28.3857 100.346L80.3472 70.3464C80.8182 70.0884 81.4442 70.0264 82.2721 70.5044L30.3106 100.504Z" fill="#8BC5E4"/>
<path fill-rule="evenodd" clip-rule="evenodd" d="M28.3911 100.343C28.1531 100.472 27.9541 100.652 27.7881 100.837L79.7496 70.8374C79.9156 70.6524 80.1146 70.4724 80.3526 70.3434L28.3911 100.343Z" fill="#8BC5E4"/>
<path fill-rule="evenodd" clip-rule="evenodd" d="M27.782 100.844C27.2884 101.409 26.9246 102.179 26.5869 103.154L78.5484 73.1544C78.8862 72.1794 79.2499 71.4094 79.7435 70.8444L27.782 100.844Z" fill="#8BC5E4"/>
<path fill-rule="evenodd" clip-rule="evenodd" d="M26.587 103.154C25.9028 105.099 25.3486 107.859 24.8809 111.149L76.8424 81.1494C77.3101 77.8594 77.8643 75.0994 78.5485 73.1544L26.587 103.154Z" fill="#8BC5E4"/>
<path fill-rule="evenodd" clip-rule="evenodd" d="M24.8807 111.149C23.9367 117.714 23.3652 126.364 23.3652 134.234L75.3267 104.234C75.3267 96.3644 75.8983 87.7144 76.8422 81.1494L24.8807 111.149Z" fill="#8BC5E4"/>
<path fill-rule="evenodd" clip-rule="evenodd" d="M23.3652 134.234C23.3652 141.544 23.7376 149.809 24.5516 157.149L76.5131 127.149C75.6991 119.809 75.3267 111.544 75.3267 104.234L23.3652 134.234Z" fill="#8BC5E4"/>
<path fill-rule="evenodd" clip-rule="evenodd" d="M24.5518 157.149C24.9675 160.829 25.4871 164.259 26.1453 167.279L78.1068 137.279C77.4487 134.259 76.929 130.829 76.5133 127.149L24.5518 157.149Z" fill="#8BC5E4"/>
<path fill-rule="evenodd" clip-rule="evenodd" d="M26.1455 167.279C26.8123 170.294 27.5571 172.864 28.7869 175.134L80.7484 145.134C79.5187 142.864 78.7739 140.294 78.107 137.279L26.1455 167.279Z" fill="#8BC5E4"/>
<path fill-rule="evenodd" clip-rule="evenodd" d="M28.7871 175.134C29.1248 175.749 29.6011 176.274 30.0948 176.559L82.0563 146.559C81.5627 146.274 81.0864 145.749 80.7486 145.134L28.7871 175.134Z" fill="#8BC5E4"/>
<path fill-rule="evenodd" clip-rule="evenodd" d="M36.0439 179.994C36.0352 180.079 36.0352 180.169 36.0352 180.269L87.9967 150.269C87.9967 150.169 87.9967 150.079 88.0054 149.994L36.0439 179.994Z" fill="#8BC5E4"/>
<path fill-rule="evenodd" clip-rule="evenodd" d="M36.0352 180.269C36.0352 183.689 37.5941 187.639 39.9497 191.109L91.9112 161.109C89.5556 157.639 87.9967 153.689 87.9967 150.269L36.0352 180.269Z" fill="#8BC5E4"/>
<path fill-rule="evenodd" clip-rule="evenodd" d="M39.9502 191.109C42.3144 194.584 45.4841 197.664 48.9655 199.674L100.927 169.674C97.4456 167.664 94.2759 164.584 91.9117 161.109L39.9502 191.109Z" fill="#8BC5E4"/>
<path fill-rule="evenodd" clip-rule="evenodd" d="M48.9648 199.674C52.4375 201.679 55.6159 202.264 57.9714 201.514L109.933 171.514C107.577 172.264 104.399 171.679 100.926 169.674L48.9648 199.674Z" fill="#8BC5E4"/>
<path fill-rule="evenodd" clip-rule="evenodd" d="M57.9717 201.514C58.387 201.383 58.778 201.209 59.14 200.992L111.101 170.992C110.739 171.209 110.348 171.383 109.933 171.514L57.9717 201.514Z" fill="#8BC5E4"/>
<path fill-rule="evenodd" clip-rule="evenodd" d="M59.1387 200.992C60.8337 199.976 61.8927 198.023 61.8947 195.209L113.856 165.209C113.854 168.023 112.795 169.976 111.1 170.992L59.1387 200.992Z" fill="#8BC5E4"/>
<path fill-rule="evenodd" clip-rule="evenodd" d="M61.8943 195.199C61.8943 195.099 61.8857 195.004 61.8857 194.914L113.847 164.914C113.847 165.004 113.856 165.099 113.856 165.199L61.8943 195.199Z" fill="#8BC5E4"/>
<path fill-rule="evenodd" clip-rule="evenodd" d="M156.699 249.654C156.699 249.744 156.69 249.829 156.69 249.929L208.652 219.929C208.652 219.829 208.661 219.744 208.661 219.654L156.699 249.654Z" fill="#8BC5E4"/>
<path fill-rule="evenodd" clip-rule="evenodd" d="M156.69 249.929C156.69 253.349 158.249 257.299 160.605 260.769L212.566 230.769C210.211 227.299 208.652 223.349 208.652 219.929L156.69 249.929Z" fill="#8BC5E4"/>
<path fill-rule="evenodd" clip-rule="evenodd" d="M160.604 260.769C162.969 264.244 166.138 267.324 169.62 269.334L221.581 239.334C218.1 237.324 214.93 234.244 212.566 230.769L160.604 260.769Z" fill="#8BC5E4"/>
<path fill-rule="evenodd" clip-rule="evenodd" d="M169.62 269.334C173.093 271.339 176.271 271.924 178.627 271.174L230.588 241.174C228.233 241.924 225.054 241.339 221.582 239.334L169.62 269.334Z" fill="#8BC5E4"/>
<path fill-rule="evenodd" clip-rule="evenodd" d="M178.626 271.174C179.042 271.043 179.433 270.869 179.794 270.652L231.755 240.652C231.394 240.869 231.003 241.043 230.587 241.174L178.626 271.174Z" fill="#8BC5E4"/>
<path fill-rule="evenodd" clip-rule="evenodd" d="M179.793 270.652C181.488 269.636 182.547 267.683 182.549 264.869L234.51 234.869C234.508 237.683 233.449 239.636 231.754 240.652L179.793 270.652Z" fill="#8BC5E4"/>
<path fill-rule="evenodd" clip-rule="evenodd" d="M182.55 264.859C182.55 264.759 182.541 264.664 182.541 264.574L234.503 234.574C234.503 234.664 234.511 234.759 234.511 234.859L182.55 264.859Z" fill="#8BC5E4"/>
<path fill-rule="evenodd" clip-rule="evenodd" d="M191.721 269.874C192.185 270.142 192.621 270.184 192.947 270.01L244.909 240.01C244.583 240.184 244.146 240.142 243.682 239.874L191.721 269.874Z" fill="#8BC5E4"/>
<path fill-rule="evenodd" clip-rule="evenodd" d="M192.943 270.012C193.061 269.951 193.165 269.861 193.25 269.744L245.212 239.744C245.127 239.861 245.023 239.951 244.905 240.012L192.943 270.012Z" fill="#8BC5E4"/>
<path fill-rule="evenodd" clip-rule="evenodd" d="M193.254 269.739C195.107 267.179 196.181 262.469 196.917 256.524L248.879 226.524C248.143 232.469 247.069 237.179 245.215 239.739L193.254 269.739Z" fill="#8BC5E4"/>
<path fill-rule="evenodd" clip-rule="evenodd" d="M196.917 256.524C197.644 250.564 197.965 243.369 197.965 235.899L249.926 205.899C249.926 213.369 249.606 220.564 248.878 226.524L196.917 256.524Z" fill="#8BC5E4"/>
<path fill-rule="evenodd" clip-rule="evenodd" d="M197.964 235.899C197.964 226.439 197.445 216.939 196.371 209.329L248.333 179.329C249.406 186.939 249.926 196.439 249.926 205.899L197.964 235.899Z" fill="#8BC5E4"/>
<path fill-rule="evenodd" clip-rule="evenodd" d="M196.371 209.329C195.834 205.519 195.176 202.209 194.275 199.439L246.237 169.439C247.138 172.209 247.796 175.519 248.333 179.329L196.371 209.329Z" fill="#8BC5E4"/>
<path fill-rule="evenodd" clip-rule="evenodd" d="M194.275 199.439C193.825 198.059 193.323 196.799 192.639 195.624L244.6 165.624C245.284 166.799 245.787 168.059 246.237 169.439L194.275 199.439Z" fill="#8BC5E4"/>
<path fill-rule="evenodd" clip-rule="evenodd" d="M192.638 195.624C191.954 194.439 190.993 193.274 189.919 192.654L241.88 162.654C242.954 163.274 243.916 164.439 244.6 165.624L192.638 195.624Z" fill="#8BC5E4"/>
<path fill-rule="evenodd" clip-rule="evenodd" d="M211.232 152.839C214.454 154.699 216.974 159.084 216.974 162.844L268.936 132.844C268.936 129.084 266.416 124.699 263.194 122.839L211.232 152.839Z" fill="#8BC5E4"/>
<path fill-rule="evenodd" clip-rule="evenodd" d="M216.974 338.414C216.974 340.375 216.289 341.717 215.176 342.289L267.137 312.289C268.25 311.717 268.935 310.375 268.935 308.414L216.974 338.414Z" fill="#8BC5E4"/>
<path fill-rule="evenodd" clip-rule="evenodd" d="M215.177 342.288C214.157 342.813 212.777 342.69 211.237 341.802L263.199 311.802C264.739 312.69 266.119 312.813 267.139 312.288L215.177 342.288Z" fill="#8BC5E4"/>
<path fill-rule="evenodd" clip-rule="evenodd" d="M10.4616 225.884C7.24862 224.029 4.72852 219.634 4.72852 215.874L56.69 185.874C56.69 189.634 59.2102 194.029 62.4231 195.884L10.4616 225.884Z" fill="#8BC5E4"/>
<path fill-rule="evenodd" clip-rule="evenodd" d="M4.72852 40.3044C4.72802 38.3514 5.40902 37.0144 6.51302 36.4404L58.4745 6.44037C57.3705 7.01437 56.6895 8.35137 56.69 10.3044L4.72852 40.3044Z" fill="#8BC5E4"/>
<path fill-rule="evenodd" clip-rule="evenodd" d="M6.52441 36.4354C7.54341 35.9114 8.92041 36.0354 10.4574 36.9214L62.4189 6.92139C60.8819 6.03539 59.5049 5.91139 58.4859 6.43539L6.52441 36.4354Z" fill="#8BC5E4"/>
<path fill-rule="evenodd" clip-rule="evenodd" d="M27.7822 100.844C27.9481 100.658 28.1471 100.477 28.3861 100.346L80.3476 70.3464C80.1086 70.4774 79.9096 70.6584 79.7437 70.8444L27.7822 100.844Z" fill="#8BC5E4"/>
<path fill-rule="evenodd" clip-rule="evenodd" d="M28.3838 100.347C28.8548 100.089 29.4788 100.026 30.3038 100.5L82.2653 70.5004C81.4403 70.0264 80.8163 70.0894 80.3453 70.3474L28.3838 100.347Z" fill="#8BC5E4"/>
<path fill-rule="evenodd" clip-rule="evenodd" d="M189.919 192.654C190.993 193.274 191.954 194.439 192.638 195.624L244.6 165.624C243.916 164.439 242.954 163.274 241.88 162.654L189.919 192.654Z" fill="#8BC5E4"/>
<path fill-rule="evenodd" clip-rule="evenodd" d="M192.639 195.624C193.323 196.799 193.825 198.059 194.275 199.439L246.237 169.439C245.787 168.059 245.284 166.799 244.6 165.624L192.639 195.624Z" fill="#8BC5E4"/>
<path fill-rule="evenodd" clip-rule="evenodd" d="M194.275 199.439C195.176 202.209 195.834 205.519 196.371 209.329L248.333 179.329C247.796 175.519 247.138 172.209 246.237 169.439L194.275 199.439Z" fill="#8BC5E4"/>
<path fill-rule="evenodd" clip-rule="evenodd" d="M196.371 209.329C197.445 216.939 197.964 226.439 197.964 235.899L249.926 205.899C249.926 196.439 249.406 186.939 248.333 179.329L196.371 209.329Z" fill="#8BC5E4"/>
<path fill-rule="evenodd" clip-rule="evenodd" d="M197.965 235.899C197.965 243.369 197.644 250.564 196.917 256.524L248.878 226.524C249.606 220.564 249.926 213.369 249.926 205.899L197.965 235.899Z" fill="#8BC5E4"/>
<path fill-rule="evenodd" clip-rule="evenodd" d="M196.917 256.524C196.181 262.469 195.107 267.179 193.254 269.739L245.215 239.739C247.069 237.179 248.143 232.469 248.879 226.524L196.917 256.524Z" fill="#8BC5E4"/>
<path fill-rule="evenodd" clip-rule="evenodd" d="M193.254 269.739C193.168 269.857 193.065 269.948 192.947 270.01L244.909 240.01C245.027 239.948 245.13 239.857 245.215 239.739L193.254 269.739Z" fill="#8BC5E4"/>
<path fill-rule="evenodd" clip-rule="evenodd" d="M192.948 270.01C192.624 270.183 192.19 270.143 191.728 269.878L243.689 239.878C244.151 240.143 244.585 240.183 244.909 240.01L192.948 270.01Z" fill="#8BC5E4"/>
<path fill-rule="evenodd" clip-rule="evenodd" d="M182.541 264.574C182.541 264.664 182.55 264.759 182.55 264.859L234.511 234.859C234.511 234.759 234.503 234.664 234.503 234.574L182.541 264.574Z" fill="#8BC5E4"/>
<path fill-rule="evenodd" clip-rule="evenodd" d="M182.55 264.859C182.549 267.371 181.709 269.197 180.326 270.285L232.288 240.285C233.671 239.197 234.511 237.371 234.511 234.859L182.55 264.859Z" fill="#8BC5E4"/>
<path fill-rule="evenodd" clip-rule="evenodd" d="M180.327 270.284C180.158 270.418 179.98 270.541 179.794 270.652L231.755 240.652C231.941 240.541 232.119 240.418 232.288 240.284L180.327 270.284Z" fill="#8BC5E4"/>
<path fill-rule="evenodd" clip-rule="evenodd" d="M179.799 270.649C179.438 270.866 179.048 271.041 178.633 271.172L230.594 241.172C231.009 241.041 231.399 240.866 231.76 240.649L179.799 270.649Z" fill="#8BC5E4"/>
<path fill-rule="evenodd" clip-rule="evenodd" d="M178.627 271.174C176.271 271.924 173.093 271.339 169.62 269.334L221.582 239.334C225.054 241.339 228.233 241.924 230.588 241.174L178.627 271.174Z" fill="#8BC5E4"/>
<path fill-rule="evenodd" clip-rule="evenodd" d="M169.62 269.334C166.138 267.324 162.969 264.244 160.604 260.769L212.566 230.769C214.93 234.244 218.1 237.324 221.581 239.334L169.62 269.334Z" fill="#8BC5E4"/>
<path fill-rule="evenodd" clip-rule="evenodd" d="M160.605 260.769C158.249 257.299 156.69 253.349 156.69 249.929L208.652 219.929C208.652 223.349 210.211 227.299 212.566 230.769L160.605 260.769Z" fill="#8BC5E4"/>
<path fill-rule="evenodd" clip-rule="evenodd" d="M156.69 249.929C156.69 249.829 156.699 249.744 156.699 249.654L208.661 219.654C208.661 219.744 208.652 219.829 208.652 219.929L156.69 249.929Z" fill="#8BC5E4"/>
<path fill-rule="evenodd" clip-rule="evenodd" d="M61.8857 194.914C61.8857 195.004 61.8943 195.099 61.8943 195.199L113.856 165.199C113.856 165.099 113.847 165.004 113.847 164.914L61.8857 194.914Z" fill="#8BC5E4"/>
<path fill-rule="evenodd" clip-rule="evenodd" d="M61.8947 195.199C61.8949 197.711 61.0539 199.537 59.6709 200.625L111.632 170.625C113.015 169.537 113.856 167.711 113.856 165.199L61.8947 195.199Z" fill="#8BC5E4"/>
<path fill-rule="evenodd" clip-rule="evenodd" d="M59.6726 200.624C59.5026 200.758 59.3246 200.881 59.1396 200.992L111.101 170.992C111.286 170.881 111.464 170.758 111.634 170.624L59.6726 200.624Z" fill="#8BC5E4"/>
<path fill-rule="evenodd" clip-rule="evenodd" d="M59.1445 200.989C58.7835 201.206 58.3935 201.381 57.9785 201.512L109.94 171.512C110.355 171.381 110.745 171.206 111.106 170.989L59.1445 200.989Z" fill="#8BC5E4"/>
<path fill-rule="evenodd" clip-rule="evenodd" d="M57.9714 201.514C55.6159 202.264 52.4375 201.679 48.9648 199.674L100.926 169.674C104.399 171.679 107.577 172.264 109.933 171.514L57.9714 201.514Z" fill="#8BC5E4"/>
<path fill-rule="evenodd" clip-rule="evenodd" d="M48.9655 199.674C45.4841 197.664 42.3144 194.584 39.9502 191.109L91.9117 161.109C94.2759 164.584 97.4456 167.664 100.927 169.674L48.9655 199.674Z" fill="#8BC5E4"/>
<path fill-rule="evenodd" clip-rule="evenodd" d="M39.9497 191.109C37.5941 187.639 36.0352 183.689 36.0352 180.269L87.9967 150.269C87.9967 153.689 89.5556 157.639 91.9112 161.109L39.9497 191.109Z" fill="#8BC5E4"/>
<path fill-rule="evenodd" clip-rule="evenodd" d="M36.0352 180.269C36.0352 180.169 36.0352 180.079 36.0439 179.994L88.0054 149.994C87.9967 150.079 87.9967 150.169 87.9967 150.269L36.0352 180.269Z" fill="#8BC5E4"/>
<path fill-rule="evenodd" clip-rule="evenodd" d="M30.0948 176.559C29.6011 176.274 29.1248 175.749 28.7871 175.134L80.7486 145.134C81.0864 145.749 81.5627 146.274 82.0563 146.559L30.0948 176.559Z" fill="#8BC5E4"/>
<path fill-rule="evenodd" clip-rule="evenodd" d="M28.7869 175.134C27.5571 172.864 26.8123 170.294 26.1455 167.279L78.107 137.279C78.7739 140.294 79.5187 142.864 80.7484 145.134L28.7869 175.134Z" fill="#8BC5E4"/>
<path fill-rule="evenodd" clip-rule="evenodd" d="M26.1453 167.279C25.4871 164.259 24.9675 160.829 24.5518 157.149L76.5133 127.149C76.929 130.829 77.4487 134.259 78.1068 137.279L26.1453 167.279Z" fill="#8BC5E4"/>
<path fill-rule="evenodd" clip-rule="evenodd" d="M24.5516 157.149C23.7376 149.809 23.3652 141.544 23.3652 134.234L75.3267 104.234C75.3267 111.544 75.6991 119.809 76.5131 127.149L24.5516 157.149Z" fill="#8BC5E4"/>
<path fill-rule="evenodd" clip-rule="evenodd" d="M23.3652 134.234C23.3652 126.364 23.9367 117.714 24.8807 111.149L76.8422 81.1494C75.8983 87.7144 75.3267 96.3644 75.3267 104.234L23.3652 134.234Z" fill="#8BC5E4"/>
<path fill-rule="evenodd" clip-rule="evenodd" d="M24.8809 111.149C25.3486 107.859 25.9028 105.099 26.587 103.154L78.5485 73.1544C77.8643 75.0994 77.3101 77.8594 76.8424 81.1494L24.8809 111.149Z" fill="#8BC5E4"/>
<path fill-rule="evenodd" clip-rule="evenodd" d="M26.5869 103.154C26.9246 102.179 27.2884 101.409 27.782 100.844L79.7435 70.8444C79.2499 71.4094 78.8862 72.1794 78.5484 73.1544L26.5869 103.154Z" fill="#8BC5E4"/>
<path fill-rule="evenodd" clip-rule="evenodd" d="M179.856 263.024C179.865 263.119 179.865 263.219 179.865 263.309L231.827 233.309C231.827 233.219 231.827 233.119 231.818 233.024L179.856 263.024Z" fill="#8BC5E4"/>
<path fill-rule="evenodd" clip-rule="evenodd" d="M179.865 263.309C179.865 265.24 179.145 266.636 177.836 267.387L229.797 237.387C231.106 236.636 231.826 235.24 231.826 233.309L179.865 263.309Z" fill="#8BC5E4"/>
<path fill-rule="evenodd" clip-rule="evenodd" d="M177.838 267.386C177.709 267.461 177.574 267.528 177.434 267.59L229.395 237.59C229.535 237.528 229.67 237.461 229.799 237.386L177.838 267.386Z" fill="#8BC5E4"/>
<path fill-rule="evenodd" clip-rule="evenodd" d="M177.419 267.596C177.285 267.654 177.147 267.706 177.004 267.752L228.965 237.752C229.108 237.706 229.246 237.654 229.38 237.596L177.419 267.596Z" fill="#8BC5E4"/>
<path fill-rule="evenodd" clip-rule="evenodd" d="M176.999 267.754C175.163 268.334 172.539 267.889 169.62 266.204L221.582 236.204C224.5 237.889 227.124 238.334 228.96 237.754L176.999 267.754Z" fill="#8BC5E4"/>
<path fill-rule="evenodd" clip-rule="evenodd" d="M169.62 266.204C166.693 264.514 164.077 261.934 162.241 259.234L214.203 229.234C216.039 231.934 218.654 234.514 221.581 236.204L169.62 266.204Z" fill="#8BC5E4"/>
<path fill-rule="evenodd" clip-rule="evenodd" d="M162.241 259.234C160.405 256.524 159.366 253.784 159.366 251.474L211.328 221.474C211.328 223.784 212.367 226.524 214.203 229.234L162.241 259.234Z" fill="#8BC5E4"/>
<path fill-rule="evenodd" clip-rule="evenodd" d="M159.366 251.474C159.366 251.384 159.375 251.289 159.375 251.199L211.336 221.199C211.336 221.289 211.328 221.384 211.328 221.474L159.366 251.474Z" fill="#8BC5E4"/>
<path fill-rule="evenodd" clip-rule="evenodd" d="M59.2012 193.364C59.2099 193.459 59.2185 193.564 59.2185 193.654L111.18 163.654C111.18 163.564 111.171 163.459 111.163 163.364L59.2012 193.364Z" fill="#8BC5E4"/>
<path fill-rule="evenodd" clip-rule="evenodd" d="M59.2184 193.654C59.2186 195.585 58.4926 196.978 57.1816 197.728L109.143 167.728C110.454 166.978 111.18 165.585 111.18 163.654L59.2184 193.654Z" fill="#8BC5E4"/>
<path fill-rule="evenodd" clip-rule="evenodd" d="M57.1856 197.725C56.9286 197.873 56.6496 197.995 56.3486 198.092L108.31 168.092C108.611 167.995 108.89 167.873 109.147 167.725L57.1856 197.725Z" fill="#8BC5E4"/>
<path fill-rule="evenodd" clip-rule="evenodd" d="M56.3433 198.094C54.5073 198.674 51.8833 198.229 48.9648 196.544L100.926 166.544C103.845 168.229 106.469 168.674 108.305 168.094L56.3433 198.094Z" fill="#8BC5E4"/>
<path fill-rule="evenodd" clip-rule="evenodd" d="M48.9655 196.544C46.0383 194.854 43.4229 192.274 41.5869 189.574L93.5485 159.574C95.3844 162.274 97.9998 164.854 100.927 166.544L48.9655 196.544Z" fill="#8BC5E4"/>
<path fill-rule="evenodd" clip-rule="evenodd" d="M41.5861 189.574C39.7502 186.864 38.7109 184.124 38.7109 181.814L90.6725 151.814C90.6725 154.124 91.7117 156.864 93.5477 159.574L41.5861 189.574Z" fill="#8BC5E4"/>
<path fill-rule="evenodd" clip-rule="evenodd" d="M38.7109 181.814C38.7109 181.724 38.7196 181.629 38.7196 181.539L90.6811 151.539C90.6811 151.629 90.6725 151.724 90.6725 151.814L38.7109 181.814Z" fill="#8BC5E4"/>
<path fill-rule="evenodd" clip-rule="evenodd" d="M194.137 244.579C193.973 247.934 193.721 251.099 193.375 253.929L245.336 223.929C245.683 221.099 245.934 217.934 246.099 214.579L194.137 244.579Z" fill="#8BC5E4"/>
<path fill-rule="evenodd" clip-rule="evenodd" d="M193.375 253.929C192.734 259.109 191.703 262.924 190.517 265.009L242.478 235.009C243.665 232.924 244.695 229.109 245.336 223.929L193.375 253.929Z" fill="#8BC5E4"/>
<path fill-rule="evenodd" clip-rule="evenodd" d="M31.0647 172.949C30.5884 171.834 30.0515 170.234 29.5752 168.079L81.5367 138.079C82.013 140.234 82.5499 141.834 83.0263 142.949L31.0647 172.949Z" fill="#8BC5E4"/>
<path fill-rule="evenodd" clip-rule="evenodd" d="M29.5747 168.079C28.9858 165.409 28.4834 162.139 28.0938 158.624L80.0552 128.624C80.445 132.139 80.9473 135.409 81.5362 138.079L29.5747 168.079Z" fill="#8BC5E4"/>
<path fill-rule="evenodd" clip-rule="evenodd" d="M28.0941 158.624C27.7303 155.324 27.4532 151.794 27.2627 148.234L79.2242 118.234C79.4147 121.794 79.6919 125.324 80.0556 128.624L28.0941 158.624Z" fill="#8BC5E4"/>
<path fill-rule="evenodd" clip-rule="evenodd" d="M176.487 219.959C177.986 220.824 179.189 222.929 179.189 224.669L231.151 194.669C231.151 192.929 229.947 190.824 228.449 189.959L176.487 219.959Z" fill="#8BC5E4"/>
<path fill-rule="evenodd" clip-rule="evenodd" d="M179.189 224.669C179.189 225.58 178.859 226.21 178.33 226.479L230.292 196.479C230.821 196.21 231.151 195.58 231.151 194.669L179.189 224.669Z" fill="#8BC5E4"/>
<path fill-rule="evenodd" clip-rule="evenodd" d="M178.332 226.479C177.851 226.724 177.205 226.672 176.492 226.262L228.454 196.262C229.167 196.672 229.813 196.724 230.294 196.479L178.332 226.479Z" fill="#8BC5E4"/>
<path fill-rule="evenodd" clip-rule="evenodd" d="M176.487 226.259C174.998 225.399 173.794 223.294 173.794 221.554L225.755 191.554C225.755 193.294 226.959 195.399 228.449 196.259L176.487 226.259Z" fill="#8BC5E4"/>
<path fill-rule="evenodd" clip-rule="evenodd" d="M173.794 221.554C173.794 220.65 174.121 220.024 174.643 219.751L226.604 189.751C226.082 190.024 225.755 190.65 225.755 191.554L173.794 221.554Z" fill="#8BC5E4"/>
<path fill-rule="evenodd" clip-rule="evenodd" d="M174.652 219.747C175.132 219.5 175.775 219.55 176.479 219.954L228.441 189.954C227.737 189.55 227.094 189.5 226.614 189.747L174.652 219.747Z" fill="#8BC5E4"/>
<path fill-rule="evenodd" clip-rule="evenodd" d="M164.181 212.854C165.679 213.719 166.883 215.824 166.883 217.564L218.844 187.564C218.844 185.824 217.64 183.719 216.142 182.854L164.181 212.854Z" fill="#8BC5E4"/>
<path fill-rule="evenodd" clip-rule="evenodd" d="M166.884 217.564C166.883 218.475 166.553 219.105 166.024 219.374L217.986 189.374C218.515 189.105 218.845 188.475 218.845 187.564L166.884 217.564Z" fill="#8BC5E4"/>
<path fill-rule="evenodd" clip-rule="evenodd" d="M166.026 219.374C165.545 219.619 164.898 219.567 164.185 219.157L216.146 189.157C216.859 189.567 217.506 189.619 217.987 189.374L166.026 219.374Z" fill="#8BC5E4"/>
<path fill-rule="evenodd" clip-rule="evenodd" d="M164.181 219.154C162.692 218.294 161.479 216.184 161.479 214.444L213.441 184.444C213.441 186.184 214.653 188.294 216.143 189.154L164.181 219.154Z" fill="#8BC5E4"/>
<path fill-rule="evenodd" clip-rule="evenodd" d="M161.479 214.444C161.479 213.533 161.811 212.905 162.342 212.636L214.304 182.636C213.773 182.905 213.441 183.533 213.441 184.444L161.479 214.444Z" fill="#8BC5E4"/>
<path fill-rule="evenodd" clip-rule="evenodd" d="M162.338 212.637C162.82 212.392 163.464 212.443 164.172 212.849L216.133 182.849C215.425 182.443 214.781 182.392 214.299 182.637L162.338 212.637Z" fill="#8BC5E4"/>
<path fill-rule="evenodd" clip-rule="evenodd" d="M151.641 205.614C153.13 206.474 154.334 208.579 154.334 210.319L206.295 180.319C206.295 178.579 205.092 176.474 203.602 175.614L151.641 205.614Z" fill="#8BC5E4"/>
<path fill-rule="evenodd" clip-rule="evenodd" d="M154.335 210.319C154.334 211.223 154.009 211.85 153.488 212.124L205.45 182.124C205.971 181.85 206.296 181.223 206.296 180.319L154.335 210.319Z" fill="#8BC5E4"/>
<path fill-rule="evenodd" clip-rule="evenodd" d="M153.479 212.128C153 212.375 152.358 212.325 151.65 211.919L203.612 181.919C204.32 182.325 204.962 182.375 205.441 182.128L153.479 212.128Z" fill="#8BC5E4"/>
<path fill-rule="evenodd" clip-rule="evenodd" d="M151.642 211.914C150.152 211.054 148.939 208.944 148.939 207.204L200.901 177.204C200.901 178.944 202.113 181.054 203.603 181.914L151.642 211.914Z" fill="#8BC5E4"/>
<path fill-rule="evenodd" clip-rule="evenodd" d="M148.939 207.204C148.939 206.293 149.271 205.665 149.801 205.396L201.763 175.396C201.233 175.665 200.901 176.293 200.901 177.204L148.939 207.204Z" fill="#8BC5E4"/>
<path fill-rule="evenodd" clip-rule="evenodd" d="M149.798 205.397C150.28 205.152 150.924 205.203 151.632 205.609L203.593 175.609C202.885 175.203 202.241 175.152 201.759 175.397L149.798 205.397Z" fill="#8BC5E4"/>
<path fill-rule="evenodd" clip-rule="evenodd" d="M41.8986 138.644C41.3683 138.338 40.9103 138.257 40.5283 138.401L92.4898 108.401C92.8718 108.257 93.3298 108.338 93.8601 108.644L41.8986 138.644Z" fill="#8BC5E4"/>
<path fill-rule="evenodd" clip-rule="evenodd" d="M40.5266 138.401C40.4796 138.418 40.4346 138.44 40.3896 138.464L92.3511 108.464C92.3961 108.44 92.4411 108.418 92.4881 108.401L40.5266 138.401Z" fill="#8BC5E4"/>
<path fill-rule="evenodd" clip-rule="evenodd" d="M40.3822 138.468C40.2732 138.529 40.1712 138.611 40.0762 138.713L92.0377 108.713C92.1327 108.611 92.2347 108.529 92.3437 108.468L40.3822 138.468Z" fill="#8BC5E4"/>
<path fill-rule="evenodd" clip-rule="evenodd" d="M40.0713 138.719C39.4997 139.359 39.2139 140.974 39.2139 143.564L91.1755 113.564C91.1755 110.974 91.4612 109.359 92.0328 108.719L40.0713 138.719Z" fill="#8BC5E4"/>
<path fill-rule="evenodd" clip-rule="evenodd" d="M39.2139 143.564C39.2139 146.154 39.4737 148.034 39.9847 149.189L91.9462 119.189C91.4353 118.034 91.1755 116.154 91.1755 113.564L39.2139 143.564Z" fill="#8BC5E4"/>
<path fill-rule="evenodd" clip-rule="evenodd" d="M39.9844 149.189C40.5127 150.344 41.1535 151.144 41.9156 151.584L93.8772 121.584C93.1151 121.144 92.4742 120.344 91.9459 119.189L39.9844 149.189Z" fill="#8BC5E4"/>
<path fill-rule="evenodd" clip-rule="evenodd" d="M41.916 151.584C42.4934 151.917 43.0014 151.964 43.4394 151.723L95.4009 121.723C94.9629 121.964 94.4549 121.917 93.8776 121.584L41.916 151.584Z" fill="#8BC5E4"/>
<path fill-rule="evenodd" clip-rule="evenodd" d="M43.4482 151.718C43.5832 151.643 43.7112 151.541 43.8322 151.411L95.7937 121.411C95.6727 121.541 95.5447 121.643 95.4097 121.718L43.4482 151.718Z" fill="#8BC5E4"/>
<path fill-rule="evenodd" clip-rule="evenodd" d="M43.8379 151.404C44.3575 150.834 44.6173 149.264 44.6173 146.684L96.5789 116.684C96.5789 119.264 96.319 120.834 95.7994 121.404L43.8379 151.404Z" fill="#8BC5E4"/>
<path fill-rule="evenodd" clip-rule="evenodd" d="M44.6173 146.684C44.6173 144.084 44.3575 142.204 43.8379 141.054L95.7994 111.054C96.319 112.204 96.5789 114.084 96.5789 116.684L44.6173 146.684Z" fill="#8BC5E4"/>
<path fill-rule="evenodd" clip-rule="evenodd" d="M43.8383 141.054C43.3187 139.894 42.6692 139.089 41.8984 138.644L93.8599 108.644C94.6307 109.089 95.2802 109.894 95.7998 111.054L43.8383 141.054Z" fill="#8BC5E4"/>
<path fill-rule="evenodd" clip-rule="evenodd" d="M52.5244 143.179C53.8235 143.929 54.854 144.944 55.6075 146.219L107.569 116.219C106.816 114.944 105.785 113.929 104.486 113.179L52.5244 143.179Z" fill="#8BC5E4"/>
<path fill-rule="evenodd" clip-rule="evenodd" d="M55.6074 146.219C56.3608 147.494 56.7419 148.754 56.7419 149.994L108.703 119.994C108.703 118.754 108.322 117.494 107.569 116.219L55.6074 146.219Z" fill="#8BC5E4"/>
<path fill-rule="evenodd" clip-rule="evenodd" d="M56.7422 149.994C56.7422 150.624 56.6383 151.194 56.4131 151.674L108.375 121.674C108.6 121.194 108.704 120.624 108.704 119.994L56.7422 149.994Z" fill="#8BC5E4"/>
<path fill-rule="evenodd" clip-rule="evenodd" d="M56.413 151.674C56.2041 152.12 55.8741 152.523 55.4121 152.883L107.374 122.883C107.836 122.523 108.166 122.12 108.375 121.674L56.413 151.674Z" fill="#8BC5E4"/>
<path fill-rule="evenodd" clip-rule="evenodd" d="M55.4166 152.879C55.3816 152.906 55.3456 152.933 55.3096 152.96L107.271 122.96C107.307 122.933 107.343 122.906 107.378 122.879L55.4166 152.879Z" fill="#8BC5E4"/>
<path fill-rule="evenodd" clip-rule="evenodd" d="M55.3046 152.964C55.1692 153.064 55.0082 153.167 54.8242 153.275L106.786 123.275C106.97 123.167 107.131 123.064 107.266 122.964L55.3046 152.964Z" fill="#8BC5E4"/>
<path fill-rule="evenodd" clip-rule="evenodd" d="M54.8248 153.275C54.3168 153.572 53.6248 153.901 52.7568 154.256L104.718 124.256C105.586 123.901 106.278 123.572 106.786 123.275L54.8248 153.275Z" fill="#8BC5E4"/>
<path fill-rule="evenodd" clip-rule="evenodd" d="M52.7494 154.259C51.8858 154.603 51.2918 154.873 50.9658 155.062L102.927 125.062C103.253 124.873 103.847 124.603 104.711 124.259L52.7494 154.259Z" fill="#8BC5E4"/>
<path fill-rule="evenodd" clip-rule="evenodd" d="M50.973 155.058C50.92 155.089 50.873 155.118 50.834 155.145L102.795 125.145C102.834 125.118 102.881 125.089 102.934 125.058L50.973 155.058Z" fill="#8BC5E4"/>
<path fill-rule="evenodd" clip-rule="evenodd" d="M50.8267 155.149C50.8047 155.163 50.7827 155.177 50.7607 155.191L102.722 125.191C102.744 125.177 102.766 125.163 102.788 125.149L50.8267 155.149Z" fill="#8BC5E4"/>
<path fill-rule="evenodd" clip-rule="evenodd" d="M50.7609 155.19C50.5069 155.356 50.2969 155.555 50.1299 155.778L102.091 125.778C102.258 125.555 102.468 125.356 102.722 125.19L50.7609 155.19Z" fill="#8BC5E4"/>
<path fill-rule="evenodd" clip-rule="evenodd" d="M47.8133 156.319C47.8046 155.844 47.8652 155.429 48.0124 155.084L99.974 125.084C99.8267 125.429 99.7661 125.844 99.7748 126.319L47.8133 156.319Z" fill="#8BC5E4"/>
<path fill-rule="evenodd" clip-rule="evenodd" d="M48.0127 155.084C48.2379 154.504 48.6016 154.014 49.0953 153.609L101.057 123.609C100.563 124.014 100.199 124.504 99.9743 125.084L48.0127 155.084Z" fill="#8BC5E4"/>
<path fill-rule="evenodd" clip-rule="evenodd" d="M49.0947 153.609C49.2867 153.461 49.5087 153.315 49.7607 153.171L101.722 123.171C101.47 123.315 101.248 123.461 101.056 123.609L49.0947 153.609Z" fill="#8BC5E4"/>
<path fill-rule="evenodd" clip-rule="evenodd" d="M49.7598 153.172C50.1798 152.934 50.6838 152.702 51.2718 152.481L103.233 122.481C102.645 122.702 102.141 122.934 101.721 123.172L49.7598 153.172Z" fill="#8BC5E4"/>
<path fill-rule="evenodd" clip-rule="evenodd" d="M51.2773 152.479C52.1459 152.149 52.8479 151.827 53.3849 151.512L105.346 121.512C104.809 121.827 104.107 122.149 103.239 122.479L51.2773 152.479Z" fill="#8BC5E4"/>
<path fill-rule="evenodd" clip-rule="evenodd" d="M53.3896 151.509C53.7576 151.293 54.0466 151.08 54.2586 150.87L106.22 120.87C106.008 121.08 105.719 121.293 105.351 121.509L53.3896 151.509Z" fill="#8BC5E4"/>
<path fill-rule="evenodd" clip-rule="evenodd" d="M54.2656 150.864C54.7765 150.329 55.0363 149.699 55.0363 148.969L106.998 118.969C106.998 119.699 106.738 120.329 106.227 120.864L54.2656 150.864Z" fill="#8BC5E4"/>
<path fill-rule="evenodd" clip-rule="evenodd" d="M55.0363 148.969C55.0363 148.199 54.7938 147.409 54.3262 146.619L106.288 116.619C106.755 117.409 106.998 118.199 106.998 118.969L55.0363 148.969Z" fill="#8BC5E4"/>
<path fill-rule="evenodd" clip-rule="evenodd" d="M54.3262 146.619C53.8585 145.819 53.2436 145.194 52.4902 144.759L104.452 114.759C105.205 115.194 105.82 115.819 106.288 116.619L54.3262 146.619Z" fill="#8BC5E4"/>
<path fill-rule="evenodd" clip-rule="evenodd" d="M52.4899 144.759C51.7601 144.338 51.1651 144.224 50.7061 144.419L102.668 114.419C103.127 114.224 103.722 114.338 104.451 114.759L52.4899 144.759Z" fill="#8BC5E4"/>
<path fill-rule="evenodd" clip-rule="evenodd" d="M50.7112 144.417C50.6642 144.437 50.6182 144.46 50.5732 144.486L102.535 114.486C102.58 114.46 102.626 114.437 102.673 114.417L50.7112 144.417Z" fill="#8BC5E4"/>
<path fill-rule="evenodd" clip-rule="evenodd" d="M50.5669 144.489C50.5187 144.518 50.4727 144.55 50.4287 144.587L102.39 114.587C102.434 114.55 102.48 114.518 102.528 114.489L50.5669 144.489Z" fill="#8BC5E4"/>
<path fill-rule="evenodd" clip-rule="evenodd" d="M50.4288 144.586C50.0438 144.905 49.8408 145.507 49.8398 146.393L101.801 116.393C101.802 115.507 102.005 114.905 102.39 114.586L50.4288 144.586Z" fill="#8BC5E4"/>
<path fill-rule="evenodd" clip-rule="evenodd" d="M48.1338 145.214C48.2351 143.934 48.6021 143.097 49.2281 142.694L101.19 112.694C100.564 113.097 100.197 113.934 100.095 115.214L48.1338 145.214Z" fill="#8BC5E4"/>
<path fill-rule="evenodd" clip-rule="evenodd" d="M49.2373 142.688C49.3023 142.647 49.3703 142.61 49.4413 142.578L101.403 112.578C101.332 112.61 101.264 112.647 101.199 112.688L49.2373 142.688Z" fill="#8BC5E4"/>
<path fill-rule="evenodd" clip-rule="evenodd" d="M49.4502 142.574C50.2124 142.234 51.2343 142.434 52.5246 143.179L104.486 113.179C103.196 112.434 102.174 112.234 101.412 112.574L49.4502 142.574Z" fill="#8BC5E4"/>
<path fill-rule="evenodd" clip-rule="evenodd" d="M41.916 137.054C42.6435 137.474 43.2844 138.014 43.8299 138.669L95.7915 108.669C95.2459 108.014 94.605 107.474 93.8776 107.054L41.916 137.054Z" fill="#8BC5E4"/>
<path fill-rule="evenodd" clip-rule="evenodd" d="M43.8291 138.669C44.3747 139.324 44.8251 140.074 45.1888 140.934L97.1503 110.934C96.7866 110.074 96.3363 109.324 95.7907 108.669L43.8291 138.669Z" fill="#8BC5E4"/>
<path fill-rule="evenodd" clip-rule="evenodd" d="M45.1895 140.934C45.5446 141.779 45.8217 142.719 46.0209 143.764L97.9824 113.764C97.7832 112.719 97.5061 111.779 97.151 110.934L45.1895 140.934Z" fill="#8BC5E4"/>
<path fill-rule="evenodd" clip-rule="evenodd" d="M46.0205 143.764C46.2283 144.804 46.3323 146.104 46.3323 147.674L98.2938 117.674C98.2938 116.104 98.1899 114.804 97.982 113.764L46.0205 143.764Z" fill="#8BC5E4"/>
<path fill-rule="evenodd" clip-rule="evenodd" d="M46.3326 147.674C46.3326 149.524 46.168 150.929 45.8389 151.879L97.8004 121.879C98.1295 120.929 98.2941 119.524 98.2941 117.674L46.3326 147.674Z" fill="#8BC5E4"/>
<path fill-rule="evenodd" clip-rule="evenodd" d="M45.8384 151.879C45.5557 152.687 45.1577 153.244 44.6387 153.546L96.6002 123.546C97.1192 123.244 97.5172 122.687 97.7999 121.879L45.8384 151.879Z" fill="#8BC5E4"/>
<path fill-rule="evenodd" clip-rule="evenodd" d="M44.6308 153.551C44.5508 153.597 44.4688 153.637 44.3828 153.671L96.3443 123.671C96.4303 123.637 96.5123 123.597 96.5923 123.551L44.6308 153.551Z" fill="#8BC5E4"/>
<path fill-rule="evenodd" clip-rule="evenodd" d="M44.3755 153.674C43.726 153.919 42.9033 153.754 41.916 153.184L93.8776 123.184C94.8648 123.754 95.6875 123.919 96.3371 123.674L44.3755 153.674Z" fill="#8BC5E4"/>
<path fill-rule="evenodd" clip-rule="evenodd" d="M41.9152 153.184C40.6075 152.429 39.5856 151.289 38.8408 149.769L90.8024 119.769C91.5471 121.289 92.5691 122.429 93.8768 123.184L41.9152 153.184Z" fill="#8BC5E4"/>
<path fill-rule="evenodd" clip-rule="evenodd" d="M38.8414 149.769C37.9494 147.934 37.5078 145.539 37.5078 142.579L89.4693 112.579C89.4693 115.539 89.911 117.934 90.803 119.769L38.8414 149.769Z" fill="#8BC5E4"/>
<path fill-rule="evenodd" clip-rule="evenodd" d="M37.5078 142.579C37.5078 140.709 37.6636 139.299 37.9927 138.349L89.9543 108.349C89.6252 109.299 89.4693 110.709 89.4693 112.579L37.5078 142.579Z" fill="#8BC5E4"/>
<path fill-rule="evenodd" clip-rule="evenodd" d="M37.9922 138.349C38.2747 137.533 38.6797 136.978 39.1997 136.689L91.1612 106.689C90.6412 106.978 90.2362 107.533 89.9538 108.349L37.9922 138.349Z" fill="#8BC5E4"/>
<path fill-rule="evenodd" clip-rule="evenodd" d="M39.208 136.685C39.288 136.641 39.371 136.603 39.457 136.572L91.4185 106.572C91.3325 106.603 91.2495 106.641 91.1695 106.685L39.208 136.685Z" fill="#8BC5E4"/>
<path fill-rule="evenodd" clip-rule="evenodd" d="M39.4648 136.569C40.1143 136.324 40.9284 136.484 41.9156 137.054L93.8772 107.054C92.8899 106.484 92.0758 106.324 91.4263 106.569L39.4648 136.569Z" fill="#8BC5E4"/>
<path fill-rule="evenodd" clip-rule="evenodd" d="M189.919 196.824C189.936 196.834 189.98 196.879 190.135 197.149L242.097 167.149C241.941 166.879 241.898 166.834 241.88 166.824L189.919 196.824Z" fill="#8BC5E4"/>
<path fill-rule="evenodd" clip-rule="evenodd" d="M190.136 197.149C190.361 197.539 190.699 198.304 191.036 199.329L242.998 169.329C242.66 168.304 242.322 167.539 242.097 167.149L190.136 197.149Z" fill="#8BC5E4"/>
<path fill-rule="evenodd" clip-rule="evenodd" d="M191.036 199.329C191.703 201.384 192.344 204.444 192.855 208.029L244.816 178.029C244.305 174.444 243.665 171.384 242.998 169.329L191.036 199.329Z" fill="#8BC5E4"/>
<path fill-rule="evenodd" clip-rule="evenodd" d="M192.855 208.029C193.384 211.804 193.782 216.174 194.042 220.824L246.003 190.824C245.744 186.174 245.345 181.804 244.817 178.029L192.855 208.029Z" fill="#8BC5E4"/>
<path fill-rule="evenodd" clip-rule="evenodd" d="M27.332 124.574C27.5831 120.699 27.9555 116.984 28.4058 113.814L80.3674 83.8144C79.917 86.9844 79.5446 90.6994 79.2935 94.5744L27.332 124.574Z" fill="#8BC5E4"/>
<path fill-rule="evenodd" clip-rule="evenodd" d="M28.4053 113.814C28.8643 110.659 29.4099 108.054 29.9728 106.449L81.9344 76.4493C81.3714 78.0543 80.8259 80.6593 80.3669 83.8143L28.4053 113.814Z" fill="#8BC5E4"/>
<path fill-rule="evenodd" clip-rule="evenodd" d="M29.9727 106.449C30.2499 105.659 30.5443 105.119 30.7262 104.914L82.6877 74.9144C82.5058 75.1194 82.2114 75.6594 81.9343 76.4494L29.9727 106.449Z" fill="#8BC5E4"/>
<path fill-rule="evenodd" clip-rule="evenodd" d="M10.4616 36.9243L211.232 152.839C214.454 154.699 216.974 159.084 216.974 162.844V338.414C216.974 342.174 214.454 343.659 211.232 341.799L10.4616 225.884C7.24863 224.029 4.7285 219.634 4.7285 215.874V40.3043C4.7285 36.5443 7.24863 35.0693 10.4616 36.9243ZM27.7821 100.844C28.2757 100.289 29.0638 99.7843 30.3109 100.504L189.919 192.654C190.993 193.274 191.955 194.439 192.639 195.624C193.323 196.799 193.825 198.059 194.275 199.439C195.176 202.209 195.834 205.519 196.371 209.329C197.445 216.939 197.965 226.439 197.965 235.899C197.965 243.369 197.644 250.564 196.917 256.524C196.181 262.469 195.107 267.179 193.254 269.739C192.933 270.184 192.353 270.239 191.721 269.874L182.541 264.574C182.541 264.664 182.549 264.759 182.549 264.859C182.549 268.279 180.991 270.429 178.626 271.174C176.271 271.924 173.092 271.339 169.62 269.334C166.138 267.324 162.969 264.244 160.604 260.769C158.249 257.299 156.69 253.349 156.69 249.929V249.927C156.69 249.877 156.692 249.83 156.694 249.785C156.697 249.742 156.699 249.699 156.699 249.656V249.654L61.8862 194.914C61.8862 194.942 61.887 194.97 61.8881 194.998L61.8882 195L61.8905 195.053L61.8912 195.068C61.8931 195.111 61.8948 195.154 61.8948 195.199C61.8948 198.619 60.336 200.769 57.9717 201.514C55.6162 202.264 52.4378 201.679 48.9651 199.674C45.4837 197.664 42.314 194.584 39.9498 191.109C37.5942 187.639 36.0353 183.689 36.0353 180.269C36.0353 180.169 36.0353 180.079 36.044 179.994L30.0944 176.559C29.6007 176.274 29.1244 175.749 28.7867 175.134C27.5569 172.864 26.8121 170.294 26.1453 167.279C25.4871 164.259 24.9675 160.829 24.5518 157.149C23.7378 149.809 23.3654 141.544 23.3654 134.234C23.3654 126.364 23.9369 117.714 24.8809 111.149C25.3486 107.859 25.9028 105.099 26.587 103.154C26.9247 102.179 27.2885 101.409 27.7821 100.844Z" fill="white"/>
<path d="M27.2625 148.234L194.137 244.579C193.972 247.934 193.721 251.099 193.375 253.929C192.734 259.109 191.703 262.924 190.517 265.009L31.0643 172.949C30.588 171.834 30.0511 170.234 29.5748 168.079C28.9859 165.409 28.4836 162.139 28.0939 158.624C27.7301 155.324 27.453 151.794 27.2625 148.234Z" fill="white"/>
<path d="M30.7266 104.914L189.919 196.824C189.937 196.834 189.98 196.879 190.136 197.149C190.361 197.539 190.699 198.304 191.037 199.329C191.703 201.384 192.344 204.444 192.855 208.029C193.383 211.804 193.782 216.174 194.042 220.824L27.3318 124.574C27.5829 120.699 27.9553 116.984 28.4056 113.814C28.8646 110.659 29.4102 108.054 29.9731 106.449C30.2503 105.659 30.5447 105.119 30.7266 104.914Z" fill="white"/>
<path d="M159.375 251.199L179.856 263.024C179.865 263.119 179.865 263.219 179.865 263.309C179.865 265.619 178.834 267.164 176.998 267.754C175.162 268.334 172.538 267.889 169.62 266.204C166.693 264.514 164.077 261.934 162.241 259.234C160.405 256.524 159.366 253.784 159.366 251.474C159.366 251.384 159.375 251.289 159.375 251.199Z" fill="white"/>
<path d="M38.72 181.539L59.2015 193.364C59.2102 193.459 59.2188 193.564 59.2188 193.654C59.2188 195.964 58.1796 197.504 56.3436 198.094C54.5076 198.674 51.8836 198.229 48.9651 196.544C46.0379 194.854 43.4225 192.274 41.5865 189.574C39.7506 186.864 38.7113 184.124 38.7113 181.814C38.7113 181.769 38.7135 181.723 38.7157 181.677C38.7178 181.631 38.72 181.584 38.72 181.539Z" fill="white"/>
<path d="M151.641 205.614C153.131 206.474 154.334 208.579 154.334 210.319C154.334 212.059 153.131 212.774 151.641 211.914C150.151 211.054 148.939 208.944 148.939 207.204C148.939 205.464 150.151 204.754 151.641 205.614Z" fill="white"/>
<path d="M164.181 212.854C165.679 213.719 166.883 215.824 166.883 217.564C166.883 219.304 165.679 220.019 164.181 219.154C162.692 218.294 161.479 216.184 161.479 214.444C161.479 212.704 162.692 211.994 164.181 212.854Z" fill="white"/>
<path d="M176.487 219.959C177.986 220.824 179.189 222.929 179.189 224.669C179.189 226.409 177.986 227.124 176.487 226.259C174.998 225.399 173.794 223.294 173.794 221.554C173.794 219.814 175.006 219.104 176.487 219.959Z" fill="white"/>
<path d="M52.5244 143.179C53.8235 143.929 54.854 144.944 55.6075 146.219C56.3609 147.494 56.742 148.754 56.742 149.994C56.742 150.624 56.6381 151.194 56.4129 151.674C56.1877 152.154 55.824 152.584 55.3044 152.964C54.7934 153.339 53.9361 153.774 52.7496 154.259C51.745 154.659 51.1042 154.959 50.827 155.149C50.5412 155.324 50.3074 155.539 50.1256 155.784L56.7593 159.614V161.484L47.8133 156.319C47.8046 155.844 47.8652 155.429 48.0124 155.084C48.2376 154.504 48.6013 154.014 49.095 153.609C49.6059 153.214 50.3334 152.834 51.2774 152.479C52.7496 151.919 53.7455 151.384 54.2652 150.864C54.7761 150.329 55.0359 149.699 55.0359 148.969C55.0359 148.199 54.7934 147.409 54.3258 146.619C53.8581 145.819 53.2432 145.194 52.4898 144.759C51.6844 144.294 51.0435 144.204 50.5672 144.489C50.0909 144.774 49.8398 145.409 49.8398 146.399L48.1337 145.214C48.2463 143.789 48.6879 142.914 49.4501 142.574C50.2122 142.234 51.2341 142.434 52.5244 143.179Z" fill="white"/>
<path fill-rule="evenodd" clip-rule="evenodd" d="M41.9156 137.054C42.6431 137.474 43.284 138.014 43.8295 138.669C44.3751 139.324 44.8255 140.074 45.1892 140.934C45.5443 141.779 45.8214 142.719 46.0206 143.764C46.2284 144.804 46.3324 146.104 46.3324 147.674C46.3324 149.524 46.1678 150.929 45.8387 151.879C45.5096 152.819 45.0247 153.419 44.3751 153.674C43.7256 153.919 42.9029 153.754 41.9156 153.184C40.6079 152.429 39.586 151.289 38.8412 149.769C37.9492 147.934 37.5076 145.539 37.5076 142.579C37.5076 140.709 37.6634 139.299 37.9925 138.349C38.3216 137.399 38.8153 136.804 39.4648 136.569C40.1143 136.324 40.9284 136.484 41.9156 137.054ZM40.071 138.719C40.5213 138.229 41.1362 138.204 41.8983 138.644C42.6691 139.089 43.3186 139.894 43.8382 141.054C44.3578 142.204 44.6176 144.084 44.6176 146.684C44.6176 149.264 44.3578 150.834 43.8382 151.404C43.3186 151.964 42.6777 152.024 41.9156 151.584C41.1535 151.144 40.5127 150.344 39.9844 149.189C39.4734 148.034 39.2136 146.154 39.2136 143.564C39.2136 140.974 39.4994 139.359 40.071 138.719Z" fill="white"/>
</svg>
