<svg width="274" height="349" viewBox="0 0 274 349" fill="none" xmlns="http://www.w3.org/2000/svg">
<path fill-rule="evenodd" clip-rule="evenodd" d="M162.961 174.955V123.195L110.999 93.195V144.955L162.961 174.955Z" fill="#8BC5E4"/>
<path fill-rule="evenodd" clip-rule="evenodd" d="M162.961 123.195L215.736 92.725L163.775 62.725L110.999 93.195L162.961 123.195Z" fill="#8BC5E4"/>
<path fill-rule="evenodd" clip-rule="evenodd" d="M215.736 92.725V144.485L163.774 114.485V62.725L215.736 92.725Z" fill="#8BC5E4"/>
<path fill-rule="evenodd" clip-rule="evenodd" d="M215.736 144.485L162.961 174.955L110.999 144.955L163.775 114.485L215.736 144.485Z" fill="#8BC5E4"/>
<path fill-rule="evenodd" clip-rule="evenodd" d="M162.961 174.955V255.885L110.999 225.885V144.955L162.961 174.955Z" fill="#8BC5E4"/>
<path fill-rule="evenodd" clip-rule="evenodd" d="M162.96 255.885L110.332 256.84L58.3701 226.84L110.999 225.885L162.96 255.885Z" fill="#8BC5E4"/>
<path fill-rule="evenodd" clip-rule="evenodd" d="M110.332 256.84V205.34L58.3701 175.34V226.84L110.332 256.84Z" fill="#8BC5E4"/>
<path fill-rule="evenodd" clip-rule="evenodd" d="M110.332 205.34L162.96 174.955L110.999 144.955L58.3701 175.34L110.332 205.34Z" fill="#8BC5E4"/>
<path fill-rule="evenodd" clip-rule="evenodd" d="M162.961 174.955L110.999 144.955L162.961 174.955Z" fill="#8BC5E4"/>
<path fill-rule="evenodd" clip-rule="evenodd" d="M62.4322 152.825L263.194 36.915L211.233 6.91498L10.4707 122.825L62.4322 152.825Z" fill="#8BC5E4"/>
<path fill-rule="evenodd" clip-rule="evenodd" d="M268.927 40.315V215.875L216.966 185.875V10.315L268.927 40.315Z" fill="#8BC5E4"/>
<path fill-rule="evenodd" clip-rule="evenodd" d="M263.194 225.895L62.4322 341.805L10.4707 311.805L211.233 195.895L263.194 225.895Z" fill="#8BC5E4"/>
<path fill-rule="evenodd" clip-rule="evenodd" d="M56.69 338.41V162.85L4.72852 132.85V308.41L56.69 338.41Z" fill="#8BC5E4"/>
<path fill-rule="evenodd" clip-rule="evenodd" d="M62.4322 152.825L10.4707 122.825L62.4322 152.825Z" fill="#8BC5E4"/>
<path fill-rule="evenodd" clip-rule="evenodd" d="M51.9615 165.58V341.14L0 311.14V135.58L51.9615 165.58Z" fill="#8BC5E4"/>
<path fill-rule="evenodd" clip-rule="evenodd" d="M62.4322 347.315L263.194 231.405L211.233 201.405L10.4707 317.315L62.4322 347.315Z" fill="#8BC5E4"/>
<path fill-rule="evenodd" clip-rule="evenodd" d="M273.665 213.14V37.58L221.703 7.57999V183.14L273.665 213.14Z" fill="#8BC5E4"/>
<path fill-rule="evenodd" clip-rule="evenodd" d="M263.194 31.405L62.4322 147.315L10.4707 117.315L211.233 1.40497L263.194 31.405Z" fill="#8BC5E4"/>
<path fill-rule="evenodd" clip-rule="evenodd" d="M62.4322 147.315L10.4707 117.315L62.4322 147.315Z" fill="#8BC5E4"/>
<path fill-rule="evenodd" clip-rule="evenodd" d="M104.971 150.415V263.875L53.0098 233.875V120.415L104.971 150.415Z" fill="#8BC5E4"/>
<path fill-rule="evenodd" clip-rule="evenodd" d="M104.971 263.875L162.96 262.815L110.999 232.815L53.0098 233.875L104.971 263.875Z" fill="#8BC5E4"/>
<path fill-rule="evenodd" clip-rule="evenodd" d="M162.961 262.815L221.097 196.83L169.135 166.83L110.999 232.815L162.961 262.815Z" fill="#8BC5E4"/>
<path fill-rule="evenodd" clip-rule="evenodd" d="M221.096 196.83V83.37L169.135 53.37V166.83L221.096 196.83Z" fill="#8BC5E4"/>
<path fill-rule="evenodd" clip-rule="evenodd" d="M221.097 83.37L104.971 150.415L53.0098 120.415L169.135 53.37L221.097 83.37Z" fill="#8BC5E4"/>
<path fill-rule="evenodd" clip-rule="evenodd" d="M104.971 150.415L53.0098 120.415L104.971 150.415Z" fill="#8BC5E4"/>
<path fill-rule="evenodd" clip-rule="evenodd" d="M62.4322 152.825L263.194 36.915L211.233 6.91498L10.4707 122.825L62.4322 152.825Z" fill="#8BC5E4"/>
<path fill-rule="evenodd" clip-rule="evenodd" d="M268.927 40.315V215.875L216.966 185.875V10.315L268.927 40.315Z" fill="#8BC5E4"/>
<path fill-rule="evenodd" clip-rule="evenodd" d="M263.194 225.895L62.4322 341.805L10.4707 311.805L211.233 195.895L263.194 225.895Z" fill="#8BC5E4"/>
<path fill-rule="evenodd" clip-rule="evenodd" d="M56.69 338.41V162.85L4.72852 132.85V308.41L56.69 338.41Z" fill="#8BC5E4"/>
<path fill-rule="evenodd" clip-rule="evenodd" d="M62.4322 152.825L10.4707 122.825L62.4322 152.825Z" fill="#8BC5E4"/>
<path fill-rule="evenodd" clip-rule="evenodd" d="M104.971 263.875V150.415L53.0098 120.415V233.875L104.971 263.875Z" fill="#8BC5E4"/>
<path fill-rule="evenodd" clip-rule="evenodd" d="M104.971 150.415L221.097 83.37L169.135 53.37L53.0098 120.415L104.971 150.415Z" fill="#8BC5E4"/>
<path fill-rule="evenodd" clip-rule="evenodd" d="M221.096 83.37V196.83L169.135 166.83V53.37L221.096 83.37Z" fill="#8BC5E4"/>
<path fill-rule="evenodd" clip-rule="evenodd" d="M221.097 196.83L162.961 262.815L110.999 232.815L169.135 166.83L221.097 196.83Z" fill="#8BC5E4"/>
<path fill-rule="evenodd" clip-rule="evenodd" d="M162.96 262.815L104.971 263.875L53.0098 233.875L110.999 232.815L162.96 262.815Z" fill="#8BC5E4"/>
<path fill-rule="evenodd" clip-rule="evenodd" d="M104.971 263.875L53.0098 233.875L104.971 263.875Z" fill="#8BC5E4"/>
<path fill-rule="evenodd" clip-rule="evenodd" d="M162.961 255.885V174.955L110.999 144.955V225.885L162.961 255.885Z" fill="#8BC5E4"/>
<path fill-rule="evenodd" clip-rule="evenodd" d="M162.96 174.955L110.332 205.34L58.3701 175.34L110.999 144.955L162.96 174.955Z" fill="#8BC5E4"/>
<path fill-rule="evenodd" clip-rule="evenodd" d="M110.332 205.34V256.84L58.3701 226.84V175.34L110.332 205.34Z" fill="#8BC5E4"/>
<path fill-rule="evenodd" clip-rule="evenodd" d="M110.332 256.84L162.96 255.885L110.999 225.885L58.3701 226.84L110.332 256.84Z" fill="#8BC5E4"/>
<path fill-rule="evenodd" clip-rule="evenodd" d="M162.961 255.885L110.999 225.885L162.961 255.885Z" fill="#8BC5E4"/>
<path fill-rule="evenodd" clip-rule="evenodd" d="M162.961 123.195V174.955L110.999 144.955V93.195L162.961 123.195Z" fill="#8BC5E4"/>
<path fill-rule="evenodd" clip-rule="evenodd" d="M162.961 174.955L215.736 144.485L163.775 114.485L110.999 144.955L162.961 174.955Z" fill="#8BC5E4"/>
<path fill-rule="evenodd" clip-rule="evenodd" d="M215.736 144.485V92.725L163.774 62.725V114.485L215.736 144.485Z" fill="#8BC5E4"/>
<path fill-rule="evenodd" clip-rule="evenodd" d="M215.736 92.725L162.961 123.195L110.999 93.195L163.775 62.725L215.736 92.725Z" fill="#8BC5E4"/>
<path fill-rule="evenodd" clip-rule="evenodd" d="M162.961 123.195L110.999 93.195L162.961 123.195Z" fill="#8BC5E4"/>
<path fill-rule="evenodd" clip-rule="evenodd" d="M263.194 36.915C264.738 36.024 266.122 35.903 267.143 36.437L215.181 6.43697C214.16 5.90297 212.776 6.02397 211.232 6.91497L263.194 36.915Z" fill="#8BC5E4"/>
<path fill-rule="evenodd" clip-rule="evenodd" d="M267.142 36.437C268.246 37.013 268.926 38.353 268.927 40.309L216.966 10.309C216.965 8.35298 216.285 7.01298 215.181 6.43698L267.142 36.437Z" fill="#8BC5E4"/>
<path fill-rule="evenodd" clip-rule="evenodd" d="M268.927 215.875C268.927 219.645 266.407 224.04 263.194 225.895L211.232 195.895C214.445 194.04 216.966 189.645 216.966 185.875L268.927 215.875Z" fill="#8BC5E4"/>
<path fill-rule="evenodd" clip-rule="evenodd" d="M62.4324 341.805C60.8842 342.699 59.4981 342.82 58.4761 342.287L6.51465 312.287C7.53665 312.82 8.92265 312.699 10.4708 311.805L62.4324 341.805Z" fill="#8BC5E4"/>
<path fill-rule="evenodd" clip-rule="evenodd" d="M58.478 342.288C57.372 341.712 56.692 340.372 56.691 338.416L4.72949 308.416C4.73049 310.372 5.41049 311.712 6.51649 312.288L58.478 342.288Z" fill="#8BC5E4"/>
<path fill-rule="evenodd" clip-rule="evenodd" d="M56.69 162.85C56.69 159.08 59.2101 154.685 62.4317 152.825L10.4702 122.825C7.24862 124.685 4.72852 129.08 4.72852 132.85L56.69 162.85Z" fill="#8BC5E4"/>
<path fill-rule="evenodd" clip-rule="evenodd" d="M62.4317 147.315C56.6727 150.64 51.9615 158.85 51.9615 165.58L0 135.58C0 128.85 4.7112 120.64 10.4702 117.315L62.4317 147.315Z" fill="#8BC5E4"/>
<path fill-rule="evenodd" clip-rule="evenodd" d="M51.9615 341.14C51.9615 344.643 53.2375 347.073 55.2745 348.129L3.313 318.129C1.276 317.073 0 314.643 0 311.14L51.9615 341.14Z" fill="#8BC5E4"/>
<path fill-rule="evenodd" clip-rule="evenodd" d="M55.2828 348.134C57.1558 349.101 59.6698 348.907 62.4238 347.32L10.4623 317.32C7.70829 318.907 5.19429 319.101 3.32129 318.134L55.2828 348.134Z" fill="#8BC5E4"/>
<path fill-rule="evenodd" clip-rule="evenodd" d="M263.194 231.405C268.944 228.085 273.664 219.87 273.664 213.14L221.703 183.14C221.703 189.87 216.983 198.085 211.232 201.405L263.194 231.405Z" fill="#8BC5E4"/>
<path fill-rule="evenodd" clip-rule="evenodd" d="M273.665 37.58C273.665 34.077 272.386 31.648 270.349 30.593L218.388 0.592987C220.425 1.64799 221.704 4.07699 221.703 7.57999L273.665 37.58Z" fill="#8BC5E4"/>
<path fill-rule="evenodd" clip-rule="evenodd" d="M270.34 30.588C268.466 29.622 265.953 29.815 263.203 31.4L211.241 1.39997C213.991 -0.185031 216.504 -0.378031 218.378 0.587969L270.34 30.588Z" fill="#8BC5E4"/>
<path fill-rule="evenodd" clip-rule="evenodd" d="M263.194 36.915C264.738 36.024 266.122 35.903 267.143 36.437L215.181 6.43697C214.16 5.90297 212.776 6.02397 211.232 6.91497L263.194 36.915Z" fill="#8BC5E4"/>
<path fill-rule="evenodd" clip-rule="evenodd" d="M267.142 36.437C268.246 37.013 268.926 38.353 268.927 40.309L216.966 10.309C216.965 8.35298 216.285 7.01298 215.181 6.43698L267.142 36.437Z" fill="#8BC5E4"/>
<path fill-rule="evenodd" clip-rule="evenodd" d="M268.927 215.875C268.927 219.645 266.407 224.04 263.194 225.895L211.232 195.895C214.445 194.04 216.966 189.645 216.966 185.875L268.927 215.875Z" fill="#8BC5E4"/>
<path fill-rule="evenodd" clip-rule="evenodd" d="M62.4324 341.805C60.8842 342.699 59.4981 342.82 58.4761 342.287L6.51465 312.287C7.53665 312.82 8.92265 312.699 10.4708 311.805L62.4324 341.805Z" fill="#8BC5E4"/>
<path fill-rule="evenodd" clip-rule="evenodd" d="M58.478 342.288C57.372 341.712 56.692 340.372 56.691 338.416L4.72949 308.416C4.73049 310.372 5.41049 311.712 6.51649 312.288L58.478 342.288Z" fill="#8BC5E4"/>
<path fill-rule="evenodd" clip-rule="evenodd" d="M56.69 162.85C56.69 159.08 59.2101 154.685 62.4317 152.825L10.4702 122.825C7.24862 124.685 4.72852 129.08 4.72852 132.85L56.69 162.85Z" fill="#8BC5E4"/>
<path fill-rule="evenodd" clip-rule="evenodd" d="M62.4322 152.825L263.194 36.915C266.407 35.06 268.927 36.545 268.927 40.315V215.875C268.927 219.645 266.407 224.04 263.194 225.895L62.4322 341.805C59.2105 343.665 56.6904 342.18 56.6904 338.41V162.85C56.6904 159.08 59.2105 154.685 62.4322 152.825ZM104.971 263.875V150.415L221.097 83.37V196.83L162.96 262.815L104.971 263.875ZM162.96 123.195V174.955L110.332 205.34V256.84L162.96 255.885V174.955L215.736 144.485V92.725L162.96 123.195Z" fill="white"/>
</svg>
