<svg width="274" height="349" viewBox="0 0 274 349" fill="none" xmlns="http://www.w3.org/2000/svg">
<path fill-rule="evenodd" clip-rule="evenodd" d="M10.4619 36.9244L211.233 152.839L263.194 122.839L62.4234 6.92438L10.4619 36.9244Z" fill="#8BC5E4"/>
<path fill-rule="evenodd" clip-rule="evenodd" d="M216.974 162.844V338.414L268.935 308.414V132.844L216.974 162.844Z" fill="#8BC5E4"/>
<path fill-rule="evenodd" clip-rule="evenodd" d="M211.233 341.799L10.4619 225.884L62.4234 195.884L263.194 311.799L211.233 341.799Z" fill="#8BC5E4"/>
<path fill-rule="evenodd" clip-rule="evenodd" d="M4.72852 215.874V40.3044L56.69 10.3044V185.874L4.72852 215.874Z" fill="#8BC5E4"/>
<path fill-rule="evenodd" clip-rule="evenodd" d="M10.4619 36.9244L62.4234 6.92438L10.4619 36.9244Z" fill="#8BC5E4"/>
<path fill-rule="evenodd" clip-rule="evenodd" d="M0 37.5744V213.144L51.9615 183.144V7.57437L0 37.5744Z" fill="#8BC5E4"/>
<path fill-rule="evenodd" clip-rule="evenodd" d="M10.4619 231.404L211.233 347.319L263.194 317.319L62.4234 201.404L10.4619 231.404Z" fill="#8BC5E4"/>
<path fill-rule="evenodd" clip-rule="evenodd" d="M221.702 341.144V165.574L273.664 135.574V311.144L221.702 341.144Z" fill="#8BC5E4"/>
<path fill-rule="evenodd" clip-rule="evenodd" d="M211.233 147.319L10.4619 31.4044L62.4234 1.40436L263.194 117.319L211.233 147.319Z" fill="#8BC5E4"/>
<path fill-rule="evenodd" clip-rule="evenodd" d="M10.4619 31.4044L62.4234 1.40436L10.4619 31.4044Z" fill="#8BC5E4"/>
<path fill-rule="evenodd" clip-rule="evenodd" d="M19.46 95.5594V158.629L71.4215 128.629V65.5594L19.46 95.5594Z" fill="#8BC5E4"/>
<path fill-rule="evenodd" clip-rule="evenodd" d="M27.2451 172.204L54.7673 188.094L106.729 158.094L79.2066 142.204L27.2451 172.204Z" fill="#8BC5E4"/>
<path fill-rule="evenodd" clip-rule="evenodd" d="M54.7676 188.094V196.324L106.729 166.324V158.094L54.7676 188.094Z" fill="#8BC5E4"/>
<path fill-rule="evenodd" clip-rule="evenodd" d="M54.767 196.324L44.4873 190.389L96.4488 160.389L106.729 166.324L54.767 196.324Z" fill="#8BC5E4"/>
<path fill-rule="evenodd" clip-rule="evenodd" d="M44.4873 201.439L81.5272 222.824L133.489 192.824L96.4488 171.439L44.4873 201.439Z" fill="#8BC5E4"/>
<path fill-rule="evenodd" clip-rule="evenodd" d="M81.5276 211.774L71.2393 205.834L123.201 175.834L133.489 181.774L81.5276 211.774Z" fill="#8BC5E4"/>
<path fill-rule="evenodd" clip-rule="evenodd" d="M71.2393 205.834V197.604L123.201 167.604V175.834L71.2393 205.834Z" fill="#8BC5E4"/>
<path fill-rule="evenodd" clip-rule="evenodd" d="M71.2393 197.604L98.7702 213.499L150.732 183.499L123.201 167.604L71.2393 197.604Z" fill="#8BC5E4"/>
<path fill-rule="evenodd" clip-rule="evenodd" d="M106.556 208.914V145.844L158.517 115.844V178.914L106.556 208.914Z" fill="#8BC5E4"/>
<path fill-rule="evenodd" clip-rule="evenodd" d="M98.7701 132.259L27.2451 90.9644L79.2066 60.9644L150.732 102.259L98.7701 132.259Z" fill="#8BC5E4"/>
<path fill-rule="evenodd" clip-rule="evenodd" d="M27.2451 90.9644L79.2066 60.9644L27.2451 90.9644Z" fill="#8BC5E4"/>
<path fill-rule="evenodd" clip-rule="evenodd" d="M116.368 151.509V214.579L168.33 184.579V121.509L116.368 151.509Z" fill="#8BC5E4"/>
<path fill-rule="evenodd" clip-rule="evenodd" d="M124.153 228.154L151.676 244.044L203.637 214.044L176.115 198.154L124.153 228.154Z" fill="#8BC5E4"/>
<path fill-rule="evenodd" clip-rule="evenodd" d="M151.676 244.044V252.274L203.637 222.274V214.044L151.676 244.044Z" fill="#8BC5E4"/>
<path fill-rule="evenodd" clip-rule="evenodd" d="M151.676 252.274L141.396 246.339L193.358 216.339L203.638 222.274L151.676 252.274Z" fill="#8BC5E4"/>
<path fill-rule="evenodd" clip-rule="evenodd" d="M141.396 257.389L178.436 278.774L230.398 248.774L193.358 227.389L141.396 257.389Z" fill="#8BC5E4"/>
<path fill-rule="evenodd" clip-rule="evenodd" d="M178.436 267.724L168.156 261.789L220.118 231.789L230.397 237.724L178.436 267.724Z" fill="#8BC5E4"/>
<path fill-rule="evenodd" clip-rule="evenodd" d="M168.156 261.789V253.559L220.118 223.559V231.789L168.156 261.789Z" fill="#8BC5E4"/>
<path fill-rule="evenodd" clip-rule="evenodd" d="M168.156 253.559L195.678 269.449L247.64 239.449L220.118 223.559L168.156 253.559Z" fill="#8BC5E4"/>
<path fill-rule="evenodd" clip-rule="evenodd" d="M203.464 264.864V201.794L255.425 171.794V234.864L203.464 264.864Z" fill="#8BC5E4"/>
<path fill-rule="evenodd" clip-rule="evenodd" d="M195.678 188.209L124.153 146.914L176.115 116.914L247.64 158.209L195.678 188.209Z" fill="#8BC5E4"/>
<path fill-rule="evenodd" clip-rule="evenodd" d="M124.153 146.914L176.115 116.914L124.153 146.914Z" fill="#8BC5E4"/>
<path fill-rule="evenodd" clip-rule="evenodd" d="M10.4619 36.9244L211.233 152.839L263.194 122.839L62.4234 6.92438L10.4619 36.9244Z" fill="#8BC5E4"/>
<path fill-rule="evenodd" clip-rule="evenodd" d="M216.974 162.844V338.414L268.935 308.414V132.844L216.974 162.844Z" fill="#8BC5E4"/>
<path fill-rule="evenodd" clip-rule="evenodd" d="M211.233 341.799L10.4619 225.884L62.4234 195.884L263.194 311.799L211.233 341.799Z" fill="#8BC5E4"/>
<path fill-rule="evenodd" clip-rule="evenodd" d="M4.72852 215.874V40.3044L56.69 10.3044V185.874L4.72852 215.874Z" fill="#8BC5E4"/>
<path fill-rule="evenodd" clip-rule="evenodd" d="M10.4619 36.9244L62.4234 6.92438L10.4619 36.9244Z" fill="#8BC5E4"/>
<path fill-rule="evenodd" clip-rule="evenodd" d="M27.2451 90.9644L98.7701 132.259L150.732 102.259L79.2066 60.9644L27.2451 90.9644Z" fill="#8BC5E4"/>
<path fill-rule="evenodd" clip-rule="evenodd" d="M106.556 145.844V208.914L158.517 178.914V115.844L106.556 145.844Z" fill="#8BC5E4"/>
<path fill-rule="evenodd" clip-rule="evenodd" d="M98.7702 213.499L71.2393 197.604L123.201 167.604L150.732 183.499L98.7702 213.499Z" fill="#8BC5E4"/>
<path fill-rule="evenodd" clip-rule="evenodd" d="M71.2393 197.604V205.834L123.201 175.834V167.604L71.2393 197.604Z" fill="#8BC5E4"/>
<path fill-rule="evenodd" clip-rule="evenodd" d="M71.2393 205.834L81.5276 211.774L133.489 181.774L123.201 175.834L71.2393 205.834Z" fill="#8BC5E4"/>
<path fill-rule="evenodd" clip-rule="evenodd" d="M81.5272 222.824L44.4873 201.439L96.4488 171.439L133.489 192.824L81.5272 222.824Z" fill="#8BC5E4"/>
<path fill-rule="evenodd" clip-rule="evenodd" d="M44.4873 190.389L54.767 196.324L106.729 166.324L96.4488 160.389L44.4873 190.389Z" fill="#8BC5E4"/>
<path fill-rule="evenodd" clip-rule="evenodd" d="M54.7676 196.324V188.094L106.729 158.094V166.324L54.7676 196.324Z" fill="#8BC5E4"/>
<path fill-rule="evenodd" clip-rule="evenodd" d="M54.7673 188.094L27.2451 172.204L79.2066 142.204L106.729 158.094L54.7673 188.094Z" fill="#8BC5E4"/>
<path fill-rule="evenodd" clip-rule="evenodd" d="M19.46 158.629V95.5594L71.4215 65.5594V128.629L19.46 158.629Z" fill="#8BC5E4"/>
<path fill-rule="evenodd" clip-rule="evenodd" d="M19.46 95.5594L71.4215 65.5594L19.46 95.5594Z" fill="#8BC5E4"/>
<path fill-rule="evenodd" clip-rule="evenodd" d="M124.153 146.914L195.678 188.209L247.64 158.209L176.115 116.914L124.153 146.914Z" fill="#8BC5E4"/>
<path fill-rule="evenodd" clip-rule="evenodd" d="M203.464 201.794V264.864L255.425 234.864V171.794L203.464 201.794Z" fill="#8BC5E4"/>
<path fill-rule="evenodd" clip-rule="evenodd" d="M195.678 269.449L168.156 253.559L220.118 223.559L247.64 239.449L195.678 269.449Z" fill="#8BC5E4"/>
<path fill-rule="evenodd" clip-rule="evenodd" d="M168.156 253.559V261.789L220.118 231.789V223.559L168.156 253.559Z" fill="#8BC5E4"/>
<path fill-rule="evenodd" clip-rule="evenodd" d="M168.156 261.789L178.436 267.724L230.397 237.724L220.118 231.789L168.156 261.789Z" fill="#8BC5E4"/>
<path fill-rule="evenodd" clip-rule="evenodd" d="M178.436 278.774L141.396 257.389L193.358 227.389L230.398 248.774L178.436 278.774Z" fill="#8BC5E4"/>
<path fill-rule="evenodd" clip-rule="evenodd" d="M141.396 246.339L151.676 252.274L203.638 222.274L193.358 216.339L141.396 246.339Z" fill="#8BC5E4"/>
<path fill-rule="evenodd" clip-rule="evenodd" d="M151.676 252.274V244.044L203.637 214.044V222.274L151.676 252.274Z" fill="#8BC5E4"/>
<path fill-rule="evenodd" clip-rule="evenodd" d="M151.676 244.044L124.153 228.154L176.115 198.154L203.637 214.044L151.676 244.044Z" fill="#8BC5E4"/>
<path fill-rule="evenodd" clip-rule="evenodd" d="M116.368 214.579V151.509L168.33 121.509V184.579L116.368 214.579Z" fill="#8BC5E4"/>
<path fill-rule="evenodd" clip-rule="evenodd" d="M116.368 151.509L168.33 121.509L116.368 151.509Z" fill="#8BC5E4"/>
<path fill-rule="evenodd" clip-rule="evenodd" d="M95.0899 203.584L68.7627 188.384L120.724 158.384L147.051 173.584L95.0899 203.584Z" fill="#8BC5E4"/>
<path fill-rule="evenodd" clip-rule="evenodd" d="M68.7627 188.384L120.724 158.384L68.7627 188.384Z" fill="#8BC5E4"/>
<path fill-rule="evenodd" clip-rule="evenodd" d="M94.1191 154.144L146.081 124.144L94.1191 154.144Z" fill="#8BC5E4"/>
<path fill-rule="evenodd" clip-rule="evenodd" d="M60.2061 183.444L33.8789 168.244L85.8404 138.244L112.168 153.444L60.2061 183.444Z" fill="#8BC5E4"/>
<path fill-rule="evenodd" clip-rule="evenodd" d="M33.8789 168.244L85.8404 138.244L33.8789 168.244Z" fill="#8BC5E4"/>
<path fill-rule="evenodd" clip-rule="evenodd" d="M59.2363 134.004L111.198 104.004L59.2363 134.004Z" fill="#8BC5E4"/>
<path fill-rule="evenodd" clip-rule="evenodd" d="M126.89 162.534L130.458 164.594L182.419 134.594L178.851 132.534L126.89 162.534Z" fill="#8BC5E4"/>
<path fill-rule="evenodd" clip-rule="evenodd" d="M130.458 164.594V217.584L182.42 187.584V134.594L130.458 164.594Z" fill="#8BC5E4"/>
<path fill-rule="evenodd" clip-rule="evenodd" d="M130.458 217.584L138.841 222.424L190.803 192.424L182.42 187.584L130.458 217.584Z" fill="#8BC5E4"/>
<path fill-rule="evenodd" clip-rule="evenodd" d="M138.841 222.424V204.494L190.802 174.494V192.424L138.841 222.424Z" fill="#8BC5E4"/>
<path fill-rule="evenodd" clip-rule="evenodd" d="M138.841 204.494L148.618 210.139L200.58 180.139L190.802 174.494L138.841 204.494Z" fill="#8BC5E4"/>
<path fill-rule="evenodd" clip-rule="evenodd" d="M148.618 210.139V228.069L200.58 198.069V180.139L148.618 210.139Z" fill="#8BC5E4"/>
<path fill-rule="evenodd" clip-rule="evenodd" d="M148.618 228.069L155.564 232.079L207.525 202.079L200.58 198.069L148.618 228.069Z" fill="#8BC5E4"/>
<path fill-rule="evenodd" clip-rule="evenodd" d="M155.564 232.079V195.659L207.526 165.659V202.079L155.564 232.079Z" fill="#8BC5E4"/>
<path fill-rule="evenodd" clip-rule="evenodd" d="M155.564 195.659L165.351 201.309L217.312 171.309L207.526 165.659L155.564 195.659Z" fill="#8BC5E4"/>
<path fill-rule="evenodd" clip-rule="evenodd" d="M165.351 201.309V237.729L217.312 207.729V171.309L165.351 201.309Z" fill="#8BC5E4"/>
<path fill-rule="evenodd" clip-rule="evenodd" d="M165.351 237.729L172.184 241.674L224.145 211.674L217.312 207.729L165.351 237.729Z" fill="#8BC5E4"/>
<path fill-rule="evenodd" clip-rule="evenodd" d="M172.184 241.674V196.974L224.145 166.974V211.674L172.184 241.674Z" fill="#8BC5E4"/>
<path fill-rule="evenodd" clip-rule="evenodd" d="M172.184 196.974L181.97 202.624L233.931 172.624L224.145 166.974L172.184 196.974Z" fill="#8BC5E4"/>
<path fill-rule="evenodd" clip-rule="evenodd" d="M181.97 202.624V247.324L233.931 217.324V172.624L181.97 202.624Z" fill="#8BC5E4"/>
<path fill-rule="evenodd" clip-rule="evenodd" d="M181.97 247.324L191.409 252.774L243.371 222.774L233.931 217.324L181.97 247.324Z" fill="#8BC5E4"/>
<path fill-rule="evenodd" clip-rule="evenodd" d="M191.409 252.774V256.944L243.371 226.944V222.774L191.409 252.774Z" fill="#8BC5E4"/>
<path fill-rule="evenodd" clip-rule="evenodd" d="M191.409 256.944L126.89 219.694L178.851 189.694L243.37 226.944L191.409 256.944Z" fill="#8BC5E4"/>
<path fill-rule="evenodd" clip-rule="evenodd" d="M126.89 219.694V162.534L178.851 132.534V189.694L126.89 219.694Z" fill="#8BC5E4"/>
<path fill-rule="evenodd" clip-rule="evenodd" d="M126.89 162.534L178.851 132.534L126.89 162.534Z" fill="#8BC5E4"/>
<path fill-rule="evenodd" clip-rule="evenodd" d="M211.232 152.839C214.454 154.699 216.974 159.084 216.974 162.844L268.936 132.844C268.936 129.084 266.416 124.699 263.194 122.839L211.232 152.839Z" fill="#8BC5E4"/>
<path fill-rule="evenodd" clip-rule="evenodd" d="M216.974 338.414C216.974 340.375 216.289 341.717 215.176 342.289L267.137 312.289C268.25 311.717 268.935 310.375 268.935 308.414L216.974 338.414Z" fill="#8BC5E4"/>
<path fill-rule="evenodd" clip-rule="evenodd" d="M215.177 342.288C214.157 342.813 212.777 342.69 211.237 341.802L263.199 311.802C264.739 312.69 266.119 312.813 267.139 312.288L215.177 342.288Z" fill="#8BC5E4"/>
<path fill-rule="evenodd" clip-rule="evenodd" d="M10.4616 225.884C7.24862 224.029 4.72852 219.634 4.72852 215.874L56.69 185.874C56.69 189.634 59.2102 194.029 62.4231 195.884L10.4616 225.884Z" fill="#8BC5E4"/>
<path fill-rule="evenodd" clip-rule="evenodd" d="M4.72852 40.3044C4.72802 38.3514 5.40902 37.0144 6.51302 36.4404L58.4745 6.44037C57.3705 7.01437 56.6895 8.35137 56.69 10.3044L4.72852 40.3044Z" fill="#8BC5E4"/>
<path fill-rule="evenodd" clip-rule="evenodd" d="M6.52441 36.4354C7.54341 35.9114 8.92041 36.0354 10.4574 36.9214L62.4189 6.92136C60.8819 6.03536 59.5049 5.91136 58.4859 6.43536L6.52441 36.4354Z" fill="#8BC5E4"/>
<path fill-rule="evenodd" clip-rule="evenodd" d="M10.4611 31.4044C7.70355 29.8124 5.18555 29.6204 3.31055 30.5934L55.272 0.593367C57.147 -0.379633 59.665 -0.187633 62.4226 1.40437L10.4611 31.4044Z" fill="#8BC5E4"/>
<path fill-rule="evenodd" clip-rule="evenodd" d="M3.314 30.5914C1.28 31.6454 0.003 34.0704 0 37.5644L51.9615 7.56437C51.9645 4.07037 53.2415 1.64537 55.2755 0.59137L3.314 30.5914Z" fill="#8BC5E4"/>
<path fill-rule="evenodd" clip-rule="evenodd" d="M0 213.144C0 219.864 4.7112 228.084 10.4616 231.404L62.4231 201.404C56.6727 198.084 51.9615 189.864 51.9615 183.144L0 213.144Z" fill="#8BC5E4"/>
<path fill-rule="evenodd" clip-rule="evenodd" d="M211.232 347.319C213.988 348.91 216.504 349.103 218.378 348.136L270.34 318.136C268.466 319.103 265.95 318.91 263.194 317.319L211.232 347.319Z" fill="#8BC5E4"/>
<path fill-rule="evenodd" clip-rule="evenodd" d="M218.387 348.131C220.423 347.075 221.7 344.648 221.702 341.154L273.663 311.154C273.661 314.648 272.384 317.075 270.348 318.131L218.387 348.131Z" fill="#8BC5E4"/>
<path fill-rule="evenodd" clip-rule="evenodd" d="M221.703 165.574C221.703 158.854 216.991 150.644 211.232 147.319L263.194 117.319C268.953 120.644 273.664 128.854 273.664 135.574L221.703 165.574Z" fill="#8BC5E4"/>
<path fill-rule="evenodd" clip-rule="evenodd" d="M27.2451 90.9644C25.1809 89.7724 23.3099 89.6194 21.9189 90.3364L73.8804 60.3364C75.2714 59.6194 77.1424 59.7724 79.2066 60.9644L27.2451 90.9644Z" fill="#8BC5E4"/>
<path fill-rule="evenodd" clip-rule="evenodd" d="M21.904 90.3444C20.399 91.1284 19.462 92.9364 19.46 95.5524L71.4215 65.5524C71.4235 62.9364 72.3605 61.1284 73.8655 60.3444L21.904 90.3444Z" fill="#8BC5E4"/>
<path fill-rule="evenodd" clip-rule="evenodd" d="M19.46 158.629C19.46 163.659 22.9328 169.714 27.2456 172.204L79.2071 142.204C74.8943 139.714 71.4215 133.659 71.4215 128.629L19.46 158.629Z" fill="#8BC5E4"/>
<path fill-rule="evenodd" clip-rule="evenodd" d="M44.4878 190.389C43.2221 189.629 42.0171 189.492 41.1211 189.966L93.0826 159.966C93.9786 159.492 95.1836 159.629 96.4493 160.389L44.4878 190.389Z" fill="#8BC5E4"/>
<path fill-rule="evenodd" clip-rule="evenodd" d="M41.1258 189.963C40.8088 190.13 40.5298 190.373 40.3008 190.692L92.2623 160.692C92.4913 160.373 92.7703 160.13 93.0873 159.963L41.1258 189.963Z" fill="#8BC5E4"/>
<path fill-rule="evenodd" clip-rule="evenodd" d="M40.2961 190.699C39.43 191.919 39.43 194.069 40.2961 196.289L92.2576 166.289C91.3916 164.069 91.3916 161.919 92.2576 160.699L40.2961 190.699Z" fill="#8BC5E4"/>
<path fill-rule="evenodd" clip-rule="evenodd" d="M40.2959 196.289C41.1705 198.524 42.7727 200.489 44.4874 201.439L96.4489 171.439C94.7342 170.489 93.1321 168.524 92.2574 166.289L40.2959 196.289Z" fill="#8BC5E4"/>
<path fill-rule="evenodd" clip-rule="evenodd" d="M81.5273 222.824C82.7937 223.584 83.9977 223.721 84.8937 223.247L136.855 193.247C135.959 193.721 134.755 193.584 133.489 192.824L81.5273 222.824Z" fill="#8BC5E4"/>
<path fill-rule="evenodd" clip-rule="evenodd" d="M84.8887 223.25C85.2057 223.083 85.4847 222.84 85.7137 222.521L137.675 192.521C137.446 192.84 137.167 193.083 136.85 193.25L84.8887 223.25Z" fill="#8BC5E4"/>
<path fill-rule="evenodd" clip-rule="evenodd" d="M85.7188 222.514C86.5847 221.294 86.5847 219.144 85.7188 216.924L137.68 186.924C138.546 189.144 138.546 191.294 137.68 192.514L85.7188 222.514Z" fill="#8BC5E4"/>
<path fill-rule="evenodd" clip-rule="evenodd" d="M85.7189 216.924C84.8442 214.689 83.2421 212.724 81.5273 211.774L133.489 181.774C135.204 182.724 136.806 184.689 137.68 186.924L85.7189 216.924Z" fill="#8BC5E4"/>
<path fill-rule="evenodd" clip-rule="evenodd" d="M98.7705 213.499C100.834 214.691 102.705 214.844 104.096 214.128L156.058 184.128C154.667 184.844 152.796 184.691 150.732 183.499L98.7705 213.499Z" fill="#8BC5E4"/>
<path fill-rule="evenodd" clip-rule="evenodd" d="M104.094 214.129C105.609 213.351 106.554 211.541 106.556 208.921L158.517 178.921C158.515 181.541 157.57 183.351 156.055 184.129L104.094 214.129Z" fill="#8BC5E4"/>
<path fill-rule="evenodd" clip-rule="evenodd" d="M106.556 145.844C106.556 140.804 103.083 134.749 98.7705 132.259L150.732 102.259C155.045 104.749 158.518 110.804 158.518 115.844L106.556 145.844Z" fill="#8BC5E4"/>
<path fill-rule="evenodd" clip-rule="evenodd" d="M124.154 146.914C122.09 145.722 120.218 145.569 118.828 146.286L170.79 116.286C172.18 115.569 174.052 115.722 176.115 116.914L124.154 146.914Z" fill="#8BC5E4"/>
<path fill-rule="evenodd" clip-rule="evenodd" d="M118.813 146.294C117.307 147.078 116.37 148.886 116.368 151.502L168.33 121.502C168.332 118.886 169.269 117.078 170.775 116.294L118.813 146.294Z" fill="#8BC5E4"/>
<path fill-rule="evenodd" clip-rule="evenodd" d="M116.368 214.579C116.368 219.609 119.841 225.664 124.154 228.154L176.115 198.154C171.802 195.664 168.33 189.609 168.33 184.579L116.368 214.579Z" fill="#8BC5E4"/>
<path fill-rule="evenodd" clip-rule="evenodd" d="M141.396 246.339C140.13 245.579 138.925 245.442 138.03 245.916L189.992 215.916C190.887 215.442 192.092 215.579 193.358 216.339L141.396 246.339Z" fill="#8BC5E4"/>
<path fill-rule="evenodd" clip-rule="evenodd" d="M138.035 245.913C137.718 246.08 137.439 246.323 137.21 246.642L189.171 216.642C189.4 216.323 189.679 216.08 189.996 215.913L138.035 245.913Z" fill="#8BC5E4"/>
<path fill-rule="evenodd" clip-rule="evenodd" d="M137.204 246.649C136.338 247.869 136.338 250.019 137.204 252.239L189.166 222.239C188.3 220.019 188.3 217.869 189.166 216.649L137.204 246.649Z" fill="#8BC5E4"/>
<path fill-rule="evenodd" clip-rule="evenodd" d="M137.204 252.239C138.079 254.474 139.681 256.439 141.396 257.389L193.357 227.389C191.643 226.439 190.04 224.474 189.166 222.239L137.204 252.239Z" fill="#8BC5E4"/>
<path fill-rule="evenodd" clip-rule="evenodd" d="M178.436 278.774C179.702 279.534 180.906 279.671 181.802 279.197L233.763 249.197C232.867 249.671 231.663 249.534 230.397 248.774L178.436 278.774Z" fill="#8BC5E4"/>
<path fill-rule="evenodd" clip-rule="evenodd" d="M181.797 279.2C182.114 279.033 182.393 278.79 182.622 278.471L234.583 248.471C234.354 248.79 234.075 249.033 233.758 249.2L181.797 279.2Z" fill="#8BC5E4"/>
<path fill-rule="evenodd" clip-rule="evenodd" d="M182.627 278.464C183.493 277.244 183.493 275.094 182.627 272.874L234.589 242.874C235.455 245.094 235.455 247.244 234.589 248.464L182.627 278.464Z" fill="#8BC5E4"/>
<path fill-rule="evenodd" clip-rule="evenodd" d="M182.627 272.874C181.752 270.639 180.15 268.674 178.436 267.724L230.397 237.724C232.112 238.674 233.714 240.639 234.589 242.874L182.627 272.874Z" fill="#8BC5E4"/>
<path fill-rule="evenodd" clip-rule="evenodd" d="M195.679 269.449C197.742 270.641 199.614 270.794 201.004 270.078L252.966 240.078C251.576 240.794 249.704 240.641 247.64 239.449L195.679 269.449Z" fill="#8BC5E4"/>
<path fill-rule="evenodd" clip-rule="evenodd" d="M201.002 270.079C202.517 269.301 203.462 267.491 203.464 264.871L255.425 234.871C255.423 237.491 254.478 239.301 252.963 240.079L201.002 270.079Z" fill="#8BC5E4"/>
<path fill-rule="evenodd" clip-rule="evenodd" d="M203.464 201.794C203.464 196.754 199.992 190.699 195.679 188.209L247.64 158.209C251.953 160.699 255.426 166.754 255.426 171.794L203.464 201.794Z" fill="#8BC5E4"/>
<path fill-rule="evenodd" clip-rule="evenodd" d="M211.232 152.839C214.454 154.699 216.974 159.084 216.974 162.844L268.936 132.844C268.936 129.084 266.416 124.699 263.194 122.839L211.232 152.839Z" fill="#8BC5E4"/>
<path fill-rule="evenodd" clip-rule="evenodd" d="M216.974 338.414C216.974 340.375 216.289 341.717 215.176 342.289L267.137 312.289C268.25 311.717 268.935 310.375 268.935 308.414L216.974 338.414Z" fill="#8BC5E4"/>
<path fill-rule="evenodd" clip-rule="evenodd" d="M215.177 342.288C214.157 342.813 212.777 342.69 211.237 341.802L263.199 311.802C264.739 312.69 266.119 312.813 267.139 312.288L215.177 342.288Z" fill="#8BC5E4"/>
<path fill-rule="evenodd" clip-rule="evenodd" d="M10.4616 225.884C7.24862 224.029 4.72852 219.634 4.72852 215.874L56.69 185.874C56.69 189.634 59.2102 194.029 62.4231 195.884L10.4616 225.884Z" fill="#8BC5E4"/>
<path fill-rule="evenodd" clip-rule="evenodd" d="M4.72852 40.3044C4.72802 38.3514 5.40902 37.0144 6.51302 36.4404L58.4745 6.44037C57.3705 7.01437 56.6895 8.35137 56.69 10.3044L4.72852 40.3044Z" fill="#8BC5E4"/>
<path fill-rule="evenodd" clip-rule="evenodd" d="M6.52441 36.4354C7.54341 35.9114 8.92041 36.0354 10.4574 36.9214L62.4189 6.92136C60.8819 6.03536 59.5049 5.91136 58.4859 6.43536L6.52441 36.4354Z" fill="#8BC5E4"/>
<path fill-rule="evenodd" clip-rule="evenodd" d="M19.46 95.5594C19.4604 92.9314 20.4044 91.1174 21.9194 90.3364L73.8809 60.3364C72.3659 61.1174 71.4219 62.9314 71.4215 65.5594L19.46 95.5594Z" fill="#8BC5E4"/>
<path fill-rule="evenodd" clip-rule="evenodd" d="M21.917 90.3374C23.307 89.6204 25.177 89.7714 27.239 90.9604L79.2005 60.9604C77.1385 59.7714 75.2685 59.6204 73.8785 60.3374L21.917 90.3374Z" fill="#8BC5E4"/>
<path fill-rule="evenodd" clip-rule="evenodd" d="M98.7705 132.259C103.083 134.749 106.556 140.804 106.556 145.844L158.518 115.844C158.518 110.804 155.045 104.749 150.732 102.259L98.7705 132.259Z" fill="#8BC5E4"/>
<path fill-rule="evenodd" clip-rule="evenodd" d="M106.556 208.914C106.556 211.537 105.611 213.348 104.096 214.128L156.057 184.128C157.572 183.348 158.517 181.537 158.517 178.914L106.556 208.914Z" fill="#8BC5E4"/>
<path fill-rule="evenodd" clip-rule="evenodd" d="M104.098 214.127C102.709 214.843 100.839 214.692 98.7773 213.503L150.739 183.503C152.801 184.692 154.671 184.843 156.06 184.127L104.098 214.127Z" fill="#8BC5E4"/>
<path fill-rule="evenodd" clip-rule="evenodd" d="M81.5273 211.774C83.2421 212.724 84.8442 214.689 85.7189 216.924L137.68 186.924C136.806 184.689 135.204 182.724 133.489 181.774L81.5273 211.774Z" fill="#8BC5E4"/>
<path fill-rule="evenodd" clip-rule="evenodd" d="M85.7188 216.924C86.5847 219.144 86.5847 221.294 85.7188 222.514L137.68 192.514C138.546 191.294 138.546 189.144 137.68 186.924L85.7188 216.924Z" fill="#8BC5E4"/>
<path fill-rule="evenodd" clip-rule="evenodd" d="M85.7188 222.514C85.4896 222.835 85.2116 223.079 84.8936 223.247L136.855 193.247C137.173 193.079 137.451 192.835 137.68 192.514L85.7188 222.514Z" fill="#8BC5E4"/>
<path fill-rule="evenodd" clip-rule="evenodd" d="M84.8952 223.247C84.0002 223.72 82.7972 223.585 81.5332 222.827L133.495 192.827C134.759 193.585 135.962 193.72 136.857 193.247L84.8952 223.247Z" fill="#8BC5E4"/>
<path fill-rule="evenodd" clip-rule="evenodd" d="M44.4874 201.439C42.7727 200.489 41.1705 198.524 40.2959 196.289L92.2574 166.289C93.1321 168.524 94.7342 170.489 96.4489 171.439L44.4874 201.439Z" fill="#8BC5E4"/>
<path fill-rule="evenodd" clip-rule="evenodd" d="M40.2961 196.289C39.43 194.069 39.43 191.919 40.2961 190.699L92.2576 160.699C91.3916 161.919 91.3916 164.069 92.2576 166.289L40.2961 196.289Z" fill="#8BC5E4"/>
<path fill-rule="evenodd" clip-rule="evenodd" d="M40.2959 190.699C40.5247 190.378 40.8037 190.134 41.1207 189.966L93.0822 159.966C92.7652 160.134 92.4862 160.378 92.2574 160.699L40.2959 190.699Z" fill="#8BC5E4"/>
<path fill-rule="evenodd" clip-rule="evenodd" d="M41.1201 189.966C42.0151 189.493 43.2181 189.628 44.4831 190.386L96.4446 160.386C95.1796 159.628 93.9766 159.493 93.0816 159.966L41.1201 189.966Z" fill="#8BC5E4"/>
<path fill-rule="evenodd" clip-rule="evenodd" d="M27.2456 172.204C22.9328 169.714 19.46 163.659 19.46 158.629L71.4215 128.629C71.4215 133.659 74.8943 139.714 79.2071 142.204L27.2456 172.204Z" fill="#8BC5E4"/>
<path fill-rule="evenodd" clip-rule="evenodd" d="M116.368 151.509C116.368 148.881 117.312 147.067 118.828 146.286L170.79 116.286C169.274 117.067 168.33 118.881 168.33 121.509L116.368 151.509Z" fill="#8BC5E4"/>
<path fill-rule="evenodd" clip-rule="evenodd" d="M118.825 146.287C120.215 145.57 122.085 145.721 124.147 146.91L176.109 116.91C174.047 115.721 172.177 115.57 170.787 116.287L118.825 146.287Z" fill="#8BC5E4"/>
<path fill-rule="evenodd" clip-rule="evenodd" d="M195.679 188.209C199.992 190.699 203.464 196.754 203.464 201.794L255.426 171.794C255.426 166.754 251.953 160.699 247.64 158.209L195.679 188.209Z" fill="#8BC5E4"/>
<path fill-rule="evenodd" clip-rule="evenodd" d="M203.464 264.864C203.464 267.487 202.52 269.298 201.004 270.078L252.965 240.078C254.481 239.298 255.425 237.487 255.425 234.864L203.464 264.864Z" fill="#8BC5E4"/>
<path fill-rule="evenodd" clip-rule="evenodd" d="M201.007 270.077C199.617 270.793 197.747 270.642 195.685 269.453L247.646 239.453C249.708 240.642 251.578 240.793 252.968 240.077L201.007 270.077Z" fill="#8BC5E4"/>
<path fill-rule="evenodd" clip-rule="evenodd" d="M178.436 267.724C180.15 268.674 181.752 270.639 182.627 272.874L234.589 242.874C233.714 240.639 232.112 238.674 230.397 237.724L178.436 267.724Z" fill="#8BC5E4"/>
<path fill-rule="evenodd" clip-rule="evenodd" d="M182.627 272.874C183.493 275.094 183.493 277.244 182.627 278.464L234.589 248.464C235.455 247.244 235.455 245.094 234.589 242.874L182.627 272.874Z" fill="#8BC5E4"/>
<path fill-rule="evenodd" clip-rule="evenodd" d="M182.627 278.464C182.399 278.785 182.12 279.029 181.802 279.197L233.763 249.197C234.081 249.029 234.36 248.785 234.589 248.464L182.627 278.464Z" fill="#8BC5E4"/>
<path fill-rule="evenodd" clip-rule="evenodd" d="M181.803 279.197C180.909 279.67 179.706 279.535 178.441 278.777L230.403 248.777C231.668 249.535 232.871 249.67 233.765 249.197L181.803 279.197Z" fill="#8BC5E4"/>
<path fill-rule="evenodd" clip-rule="evenodd" d="M141.396 257.389C139.681 256.439 138.079 254.474 137.204 252.239L189.166 222.239C190.04 224.474 191.643 226.439 193.357 227.389L141.396 257.389Z" fill="#8BC5E4"/>
<path fill-rule="evenodd" clip-rule="evenodd" d="M137.204 252.239C136.338 250.019 136.338 247.869 137.204 246.649L189.166 216.649C188.3 217.869 188.3 220.019 189.166 222.239L137.204 252.239Z" fill="#8BC5E4"/>
<path fill-rule="evenodd" clip-rule="evenodd" d="M137.204 246.649C137.433 246.328 137.712 246.084 138.03 245.916L189.991 215.916C189.673 216.084 189.394 216.328 189.166 216.649L137.204 246.649Z" fill="#8BC5E4"/>
<path fill-rule="evenodd" clip-rule="evenodd" d="M138.029 245.916C138.923 245.443 140.126 245.578 141.391 246.336L193.353 216.336C192.088 215.578 190.885 215.443 189.991 215.916L138.029 245.916Z" fill="#8BC5E4"/>
<path fill-rule="evenodd" clip-rule="evenodd" d="M124.154 228.154C119.841 225.664 116.368 219.609 116.368 214.579L168.33 184.579C168.33 189.609 171.802 195.664 176.115 198.154L124.154 228.154Z" fill="#8BC5E4"/>
<path fill-rule="evenodd" clip-rule="evenodd" d="M68.7627 188.384C68.7623 172.278 71.8163 165.1 75.4113 162.746L127.373 132.746C123.778 135.1 120.724 142.278 120.724 158.384L68.7627 188.384Z" fill="#8BC5E4"/>
<path fill-rule="evenodd" clip-rule="evenodd" d="M75.4219 162.739C77.5549 161.348 79.8779 161.654 81.8659 162.799L133.827 132.799C131.839 131.654 129.516 131.348 127.383 132.739L75.4219 162.739Z" fill="#8BC5E4"/>
<path fill-rule="evenodd" clip-rule="evenodd" d="M81.874 162.804C87.1741 165.864 95.0896 177.424 95.0896 203.584L147.051 173.584C147.051 147.424 139.136 135.864 133.836 132.804L81.874 162.804Z" fill="#8BC5E4"/>
<path fill-rule="evenodd" clip-rule="evenodd" d="M94.1198 154.144C94.1202 157.559 93.0623 160.248 91.1562 161.717L143.118 131.717C145.024 130.248 146.082 127.559 146.081 124.144L94.1198 154.144Z" fill="#8BC5E4"/>
<path fill-rule="evenodd" clip-rule="evenodd" d="M91.1606 161.712C90.9686 161.861 90.7666 161.997 90.5576 162.12L142.519 132.12C142.728 131.997 142.93 131.861 143.122 131.712L91.1606 161.712Z" fill="#8BC5E4"/>
<path fill-rule="evenodd" clip-rule="evenodd" d="M90.5519 162.124C90.3433 162.247 90.1273 162.357 89.9043 162.453L141.866 132.453C142.089 132.357 142.305 132.247 142.513 132.124L90.5519 162.124Z" fill="#8BC5E4"/>
<path fill-rule="evenodd" clip-rule="evenodd" d="M89.905 162.453C87.707 163.403 84.889 163.013 81.957 161.322L133.919 131.322C136.851 133.013 139.669 133.403 141.867 132.453L89.905 162.453Z" fill="#8BC5E4"/>
<path fill-rule="evenodd" clip-rule="evenodd" d="M81.9519 161.319C75.2315 157.439 69.7842 147.934 69.7842 140.094L121.746 110.094C121.746 117.934 127.193 127.439 133.913 131.319L81.9519 161.319Z" fill="#8BC5E4"/>
<path fill-rule="evenodd" clip-rule="evenodd" d="M69.7842 140.094C69.7839 136.67 70.8419 133.989 72.7419 132.517L124.703 102.517C122.803 103.989 121.745 106.67 121.746 110.094L69.7842 140.094Z" fill="#8BC5E4"/>
<path fill-rule="evenodd" clip-rule="evenodd" d="M72.7363 132.522C72.9283 132.373 73.1283 132.237 73.3373 132.113L125.299 102.113C125.09 102.237 124.89 102.373 124.698 102.522L72.7363 132.522Z" fill="#8BC5E4"/>
<path fill-rule="evenodd" clip-rule="evenodd" d="M73.3438 132.109C73.554 131.986 73.77 131.877 73.993 131.781L125.955 101.781C125.732 101.877 125.516 101.986 125.305 102.109L73.3438 132.109Z" fill="#8BC5E4"/>
<path fill-rule="evenodd" clip-rule="evenodd" d="M73.9932 131.781C76.1972 130.835 79.0152 131.225 81.9472 132.916L133.909 102.916C130.977 101.225 128.159 100.835 125.955 101.781L73.9932 131.781Z" fill="#8BC5E4"/>
<path fill-rule="evenodd" clip-rule="evenodd" d="M81.9521 132.919C85.1823 134.784 88.2741 138.069 90.5604 142.049L142.522 112.049C140.236 108.069 137.144 104.784 133.914 102.919L81.9521 132.919Z" fill="#8BC5E4"/>
<path fill-rule="evenodd" clip-rule="evenodd" d="M90.5605 142.049C92.8381 146.024 94.1198 150.374 94.1198 154.144L146.081 124.144C146.081 120.374 144.8 116.024 142.522 112.049L90.5605 142.049Z" fill="#8BC5E4"/>
<path fill-rule="evenodd" clip-rule="evenodd" d="M33.8789 168.244C33.879 152.138 36.932 144.96 40.525 142.605L92.4865 112.605C88.8935 114.96 85.8405 122.138 85.8404 138.244L33.8789 168.244Z" fill="#8BC5E4"/>
<path fill-rule="evenodd" clip-rule="evenodd" d="M40.5195 142.608C42.6565 141.205 44.9835 141.508 46.9735 142.654L98.935 112.654C96.945 111.508 94.618 111.205 92.481 112.608L40.5195 142.608Z" fill="#8BC5E4"/>
<path fill-rule="evenodd" clip-rule="evenodd" d="M46.9814 142.659C52.2815 145.719 60.2056 157.284 60.2056 183.444L112.167 153.444C112.167 127.284 104.243 115.719 98.9429 112.659L46.9814 142.659Z" fill="#8BC5E4"/>
<path fill-rule="evenodd" clip-rule="evenodd" d="M59.2366 134.004C59.2365 137.428 58.1795 140.11 56.2725 141.577L108.234 111.577C110.141 110.11 111.198 107.428 111.198 104.004L59.2366 134.004Z" fill="#8BC5E4"/>
<path fill-rule="evenodd" clip-rule="evenodd" d="M56.2778 141.572C56.0858 141.721 55.8838 141.857 55.6748 141.98L107.636 111.98C107.845 111.857 108.047 111.721 108.239 111.572L56.2778 141.572Z" fill="#8BC5E4"/>
<path fill-rule="evenodd" clip-rule="evenodd" d="M55.6686 141.984C55.4595 142.107 55.2435 142.217 55.0215 142.313L106.983 112.313C107.205 112.217 107.421 112.107 107.63 111.984L55.6686 141.984Z" fill="#8BC5E4"/>
<path fill-rule="evenodd" clip-rule="evenodd" d="M55.0212 142.313C52.8222 143.262 49.9972 142.869 47.0732 141.182L99.0347 111.182C101.959 112.869 104.784 113.262 106.983 112.313L55.0212 142.313Z" fill="#8BC5E4"/>
<path fill-rule="evenodd" clip-rule="evenodd" d="M47.0681 141.179C40.3477 137.299 34.9004 127.794 34.9004 119.954L86.8619 89.9543C86.8619 97.7943 92.3092 107.299 99.0296 111.179L47.0681 141.179Z" fill="#8BC5E4"/>
<path fill-rule="evenodd" clip-rule="evenodd" d="M34.9004 119.954C34.8926 116.526 35.9486 113.844 37.8556 112.376L89.8171 82.3764C87.9101 83.8444 86.8541 86.5264 86.8619 89.9544L34.9004 119.954Z" fill="#8BC5E4"/>
<path fill-rule="evenodd" clip-rule="evenodd" d="M37.8496 112.381C38.0416 112.232 38.2436 112.096 38.4526 111.973L90.4141 81.9734C90.2051 82.0964 90.0031 82.2324 89.8111 82.3814L37.8496 112.381Z" fill="#8BC5E4"/>
<path fill-rule="evenodd" clip-rule="evenodd" d="M38.46 111.969C38.6688 111.846 38.8848 111.736 39.1078 111.64L91.0693 81.6404C90.8463 81.7364 90.6303 81.8464 90.4215 81.9694L38.46 111.969Z" fill="#8BC5E4"/>
<path fill-rule="evenodd" clip-rule="evenodd" d="M39.1074 111.64C41.3074 110.691 44.1314 111.085 47.0644 112.776L99.0259 82.7764C96.0929 81.0854 93.2689 80.6914 91.0689 81.6404L39.1074 111.64Z" fill="#8BC5E4"/>
<path fill-rule="evenodd" clip-rule="evenodd" d="M47.0684 112.779C50.29 114.639 53.3904 117.929 55.668 121.904L107.629 91.9044C105.352 87.9294 102.251 84.6394 99.0299 82.7794L47.0684 112.779Z" fill="#8BC5E4"/>
<path fill-rule="evenodd" clip-rule="evenodd" d="M55.668 121.904C57.9543 125.884 59.236 130.234 59.236 134.004L111.198 104.004C111.198 100.234 109.916 95.8844 107.629 91.9044L55.668 121.904Z" fill="#8BC5E4"/>
<path fill-rule="evenodd" clip-rule="evenodd" d="M211.232 152.839L10.4616 36.9244C7.24863 35.0694 4.7285 36.5444 4.7285 40.3044V215.874C4.7285 219.634 7.24863 224.029 10.4616 225.884L211.232 341.799C214.454 343.659 216.974 342.174 216.974 338.414V162.844C216.974 159.084 214.454 154.699 211.232 152.839ZM27.2452 90.9644C22.9324 88.4744 19.4596 90.5194 19.4596 95.5594V158.629C19.4596 163.659 22.9324 169.714 27.2452 172.204L54.7674 188.094V196.324L44.4877 190.389C42.773 189.359 41.1708 189.474 40.2962 190.699C39.4301 191.919 39.4301 194.069 40.2962 196.289C41.1708 198.524 42.773 200.489 44.4877 201.439L81.5276 222.824C83.2424 223.854 84.8445 223.739 85.7192 222.514C86.5852 221.294 86.5852 219.144 85.7192 216.924C84.8445 214.689 83.2424 212.724 81.5276 211.774L71.2393 205.834V197.604L98.7702 213.499C103.083 215.989 106.556 213.944 106.556 208.914V145.844C106.556 140.804 103.083 134.749 98.7702 132.259L27.2452 90.9644ZM81.874 162.804C76.5307 159.719 68.7624 162.694 68.7624 188.384L95.0896 203.584C95.0896 177.424 87.1741 165.864 81.874 162.804ZM90.5516 162.124C92.8379 160.784 94.1196 157.904 94.1196 154.144C94.1196 150.374 92.8379 146.024 90.5603 142.049C88.274 138.069 85.1823 134.784 81.952 132.919C78.7217 131.054 75.63 130.769 73.3437 132.109C71.066 133.454 69.7843 136.324 69.7843 140.094C69.7843 147.934 75.2316 157.439 81.952 161.319C85.1823 163.184 88.274 163.469 90.5516 162.124ZM46.9819 142.659C41.6472 139.579 33.8789 142.554 33.8789 168.244L60.2061 183.444C60.2061 157.284 52.282 145.719 46.9819 142.659ZM55.6681 141.984C57.9544 140.644 59.2361 137.774 59.2361 134.004C59.2361 130.234 57.9544 125.884 55.6681 121.904C53.3905 117.929 50.2901 114.639 47.0685 112.779C43.8382 110.914 40.7378 110.624 38.4602 111.969C36.1739 113.309 34.8922 116.179 34.9008 119.954C34.9008 127.794 40.3481 137.299 47.0685 141.179C50.2901 143.039 53.3905 143.329 55.6681 141.984ZM116.368 151.509C116.368 146.469 119.841 144.424 124.153 146.914L195.678 188.209C199.991 190.699 203.464 196.754 203.464 201.794V264.864C203.464 269.894 199.991 271.939 195.678 269.449L168.156 253.559V261.789L178.436 267.724C180.151 268.674 181.753 270.639 182.627 272.874C183.493 275.094 183.493 277.244 182.627 278.464C181.753 279.689 180.151 279.804 178.436 278.774L141.396 257.389C139.681 256.439 138.079 254.474 137.204 252.239C136.338 250.019 136.338 247.869 137.204 246.649C138.079 245.424 139.681 245.309 141.396 246.339L151.676 252.274V244.044L124.153 228.154C119.841 225.664 116.368 219.609 116.368 214.579V151.509ZM126.89 162.534L130.458 164.594V217.584L138.841 222.424V204.494L148.619 210.139V228.069L155.564 232.079V195.659L165.35 201.309V237.729L172.183 241.674V196.974L181.969 202.624V247.324L191.409 252.774V256.944L126.89 219.694V162.534Z" fill="white"/>
</svg>
