<svg width="274" height="349" viewBox="0 0 274 349" fill="none" xmlns="http://www.w3.org/2000/svg">
<path fill-rule="evenodd" clip-rule="evenodd" d="M164.398 148.025L177.301 151.285L125.34 121.285L112.436 118.025L164.398 148.025Z" fill="#8BC5E4"/>
<path fill-rule="evenodd" clip-rule="evenodd" d="M177.301 151.285L164.398 169.435L112.436 139.435L125.34 121.285L177.301 151.285Z" fill="#8BC5E4"/>
<path fill-rule="evenodd" clip-rule="evenodd" d="M164.398 169.435V162.155L112.436 132.155V139.435L164.398 169.435Z" fill="#8BC5E4"/>
<path fill-rule="evenodd" clip-rule="evenodd" d="M164.397 162.155L149.606 170.695L97.644 140.695L112.436 132.155L164.397 162.155Z" fill="#8BC5E4"/>
<path fill-rule="evenodd" clip-rule="evenodd" d="M149.606 170.695V163.845L97.644 133.845V140.695L149.606 170.695Z" fill="#8BC5E4"/>
<path fill-rule="evenodd" clip-rule="evenodd" d="M149.606 163.845L164.397 155.305L112.436 125.305L97.644 133.845L149.606 163.845Z" fill="#8BC5E4"/>
<path fill-rule="evenodd" clip-rule="evenodd" d="M164.398 155.305V148.025L112.436 118.025V125.305L164.398 155.305Z" fill="#8BC5E4"/>
<path fill-rule="evenodd" clip-rule="evenodd" d="M164.398 148.025L112.436 118.025L164.398 148.025Z" fill="#8BC5E4"/>
<path fill-rule="evenodd" clip-rule="evenodd" d="M162.986 211.33L150.091 229.475L98.1294 199.475L111.024 181.33L162.986 211.33Z" fill="#8BC5E4"/>
<path fill-rule="evenodd" clip-rule="evenodd" d="M150.091 229.475L162.986 232.74L111.024 202.74L98.1294 199.475L150.091 229.475Z" fill="#8BC5E4"/>
<path fill-rule="evenodd" clip-rule="evenodd" d="M162.986 232.74V225.45L111.024 195.45V202.74L162.986 232.74Z" fill="#8BC5E4"/>
<path fill-rule="evenodd" clip-rule="evenodd" d="M162.986 225.45L177.786 216.905L125.825 186.905L111.024 195.45L162.986 225.45Z" fill="#8BC5E4"/>
<path fill-rule="evenodd" clip-rule="evenodd" d="M177.786 216.905V210.075L125.825 180.075V186.905L177.786 216.905Z" fill="#8BC5E4"/>
<path fill-rule="evenodd" clip-rule="evenodd" d="M177.786 210.075L162.986 218.62L111.024 188.62L125.825 180.075L177.786 210.075Z" fill="#8BC5E4"/>
<path fill-rule="evenodd" clip-rule="evenodd" d="M162.986 218.62V211.33L111.024 181.33V188.62L162.986 218.62Z" fill="#8BC5E4"/>
<path fill-rule="evenodd" clip-rule="evenodd" d="M162.986 211.33L111.024 181.33L162.986 211.33Z" fill="#8BC5E4"/>
<path fill-rule="evenodd" clip-rule="evenodd" d="M181.224 238.27V253.85L129.263 223.85V208.27L181.224 238.27Z" fill="#8BC5E4"/>
<path fill-rule="evenodd" clip-rule="evenodd" d="M181.224 253.85L211.57 236.33L159.608 206.33L129.263 223.85L181.224 253.85Z" fill="#8BC5E4"/>
<path fill-rule="evenodd" clip-rule="evenodd" d="M211.57 236.33V220.75L159.608 190.75V206.33L211.57 236.33Z" fill="#8BC5E4"/>
<path fill-rule="evenodd" clip-rule="evenodd" d="M196.397 174.48L144.436 144.48L196.397 174.48Z" fill="#8BC5E4"/>
<path fill-rule="evenodd" clip-rule="evenodd" d="M116.515 275.63V291.21L64.5532 261.21V245.63L116.515 275.63Z" fill="#8BC5E4"/>
<path fill-rule="evenodd" clip-rule="evenodd" d="M116.515 291.21L146.86 273.69L94.8987 243.69L64.5532 261.21L116.515 291.21Z" fill="#8BC5E4"/>
<path fill-rule="evenodd" clip-rule="evenodd" d="M146.861 273.69V258.11L94.8989 228.11V243.69L146.861 273.69Z" fill="#8BC5E4"/>
<path fill-rule="evenodd" clip-rule="evenodd" d="M131.688 211.84L79.7261 181.84L131.688 211.84Z" fill="#8BC5E4"/>
<path fill-rule="evenodd" clip-rule="evenodd" d="M181.224 160.01V175.59L129.263 145.59V130.01L181.224 160.01Z" fill="#8BC5E4"/>
<path fill-rule="evenodd" clip-rule="evenodd" d="M181.224 175.59L211.57 158.07L159.608 128.07L129.263 145.59L181.224 175.59Z" fill="#8BC5E4"/>
<path fill-rule="evenodd" clip-rule="evenodd" d="M211.57 158.07V142.49L159.608 112.49V128.07L211.57 158.07Z" fill="#8BC5E4"/>
<path fill-rule="evenodd" clip-rule="evenodd" d="M196.397 96.21L144.436 66.21L196.397 96.21Z" fill="#8BC5E4"/>
<path fill-rule="evenodd" clip-rule="evenodd" d="M116.515 197.37V212.95L64.5532 182.95V167.37L116.515 197.37Z" fill="#8BC5E4"/>
<path fill-rule="evenodd" clip-rule="evenodd" d="M116.515 212.95L146.86 195.43L94.8987 165.43L64.5532 182.95L116.515 212.95Z" fill="#8BC5E4"/>
<path fill-rule="evenodd" clip-rule="evenodd" d="M146.861 195.43V179.85L94.8989 149.85V165.43L146.861 195.43Z" fill="#8BC5E4"/>
<path fill-rule="evenodd" clip-rule="evenodd" d="M131.688 133.57L79.7261 103.57L131.688 133.57Z" fill="#8BC5E4"/>
<path fill-rule="evenodd" clip-rule="evenodd" d="M88.8453 235.705V247.685L36.8838 217.685V205.705L88.8453 235.705Z" fill="#8BC5E4"/>
<path fill-rule="evenodd" clip-rule="evenodd" d="M88.8453 247.685L64.5187 261.73L12.5571 231.73L36.8838 217.685L88.8453 247.685Z" fill="#8BC5E4"/>
<path fill-rule="evenodd" clip-rule="evenodd" d="M64.5187 261.73V272.98L12.5571 242.98V231.73L64.5187 261.73Z" fill="#8BC5E4"/>
<path fill-rule="evenodd" clip-rule="evenodd" d="M64.5187 272.98L88.8453 258.935L36.8838 228.935L12.5571 242.98L64.5187 272.98Z" fill="#8BC5E4"/>
<path fill-rule="evenodd" clip-rule="evenodd" d="M88.8453 258.935V270.915L36.8838 240.915V228.935L88.8453 258.935Z" fill="#8BC5E4"/>
<path fill-rule="evenodd" clip-rule="evenodd" d="M88.8453 270.915L110.046 241.075L58.0841 211.075L36.8838 240.915L88.8453 270.915Z" fill="#8BC5E4"/>
<path fill-rule="evenodd" clip-rule="evenodd" d="M110.046 241.075L88.8453 235.705L36.8838 205.705L58.0841 211.075L110.046 241.075Z" fill="#8BC5E4"/>
<path fill-rule="evenodd" clip-rule="evenodd" d="M88.8453 235.705L36.8838 205.705L88.8453 235.705Z" fill="#8BC5E4"/>
<path fill-rule="evenodd" clip-rule="evenodd" d="M85.7276 190.225L64.5187 220.07L12.5571 190.07L33.7661 160.225L85.7276 190.225Z" fill="#8BC5E4"/>
<path fill-rule="evenodd" clip-rule="evenodd" d="M64.5187 220.07L85.7276 225.415L33.7661 195.415L12.5571 190.07L64.5187 220.07Z" fill="#8BC5E4"/>
<path fill-rule="evenodd" clip-rule="evenodd" d="M85.7276 225.415V213.445L33.7661 183.445V195.415L85.7276 225.415Z" fill="#8BC5E4"/>
<path fill-rule="evenodd" clip-rule="evenodd" d="M85.7276 213.445L110.046 199.405L58.0841 169.405L33.7661 183.445L85.7276 213.445Z" fill="#8BC5E4"/>
<path fill-rule="evenodd" clip-rule="evenodd" d="M110.045 199.405V188.155L58.084 158.155V169.405L110.045 199.405Z" fill="#8BC5E4"/>
<path fill-rule="evenodd" clip-rule="evenodd" d="M110.046 188.155L85.7276 202.195L33.7661 172.195L58.0841 158.155L110.046 188.155Z" fill="#8BC5E4"/>
<path fill-rule="evenodd" clip-rule="evenodd" d="M85.7276 202.195V190.225L33.7661 160.225V172.195L85.7276 202.195Z" fill="#8BC5E4"/>
<path fill-rule="evenodd" clip-rule="evenodd" d="M85.7276 190.225L33.7661 160.225L85.7276 190.225Z" fill="#8BC5E4"/>
<path fill-rule="evenodd" clip-rule="evenodd" d="M240.452 100.895V112.865L188.49 82.865V70.895L240.452 100.895Z" fill="#8BC5E4"/>
<path fill-rule="evenodd" clip-rule="evenodd" d="M240.452 112.865L216.125 126.91L164.164 96.91L188.49 82.865L240.452 112.865Z" fill="#8BC5E4"/>
<path fill-rule="evenodd" clip-rule="evenodd" d="M216.125 126.91V138.16L164.164 108.16V96.91L216.125 126.91Z" fill="#8BC5E4"/>
<path fill-rule="evenodd" clip-rule="evenodd" d="M216.125 138.16L240.452 124.115L188.49 94.115L164.164 108.16L216.125 138.16Z" fill="#8BC5E4"/>
<path fill-rule="evenodd" clip-rule="evenodd" d="M240.452 124.115V136.085L188.49 106.085V94.115L240.452 124.115Z" fill="#8BC5E4"/>
<path fill-rule="evenodd" clip-rule="evenodd" d="M240.452 136.085L261.661 106.25L209.699 76.25L188.49 106.085L240.452 136.085Z" fill="#8BC5E4"/>
<path fill-rule="evenodd" clip-rule="evenodd" d="M261.661 106.25L240.452 100.895L188.49 70.895L209.699 76.25L261.661 106.25Z" fill="#8BC5E4"/>
<path fill-rule="evenodd" clip-rule="evenodd" d="M240.452 100.895L188.49 70.895L240.452 100.895Z" fill="#8BC5E4"/>
<path fill-rule="evenodd" clip-rule="evenodd" d="M237.334 149.975L216.125 179.83L164.164 149.83L185.373 119.975L237.334 149.975Z" fill="#8BC5E4"/>
<path fill-rule="evenodd" clip-rule="evenodd" d="M216.125 179.83L237.334 185.185L185.373 155.185L164.164 149.83L216.125 179.83Z" fill="#8BC5E4"/>
<path fill-rule="evenodd" clip-rule="evenodd" d="M237.334 185.185V173.205L185.373 143.205V155.185L237.334 185.185Z" fill="#8BC5E4"/>
<path fill-rule="evenodd" clip-rule="evenodd" d="M237.334 173.205L261.661 159.16L209.699 129.16L185.373 143.205L237.334 173.205Z" fill="#8BC5E4"/>
<path fill-rule="evenodd" clip-rule="evenodd" d="M261.661 159.16V147.91L209.699 117.91V129.16L261.661 159.16Z" fill="#8BC5E4"/>
<path fill-rule="evenodd" clip-rule="evenodd" d="M261.661 147.91L237.334 161.955L185.373 131.955L209.699 117.91L261.661 147.91Z" fill="#8BC5E4"/>
<path fill-rule="evenodd" clip-rule="evenodd" d="M237.334 161.955V149.975L185.373 119.975V131.955L237.334 161.955Z" fill="#8BC5E4"/>
<path fill-rule="evenodd" clip-rule="evenodd" d="M237.334 149.975L185.373 119.975L237.334 149.975Z" fill="#8BC5E4"/>
<path fill-rule="evenodd" clip-rule="evenodd" d="M51.9615 165.58V341.14L0 311.14V135.58L51.9615 165.58Z" fill="#8BC5E4"/>
<path fill-rule="evenodd" clip-rule="evenodd" d="M62.4317 347.315L263.194 231.405L211.232 201.405L10.4702 317.315L62.4317 347.315Z" fill="#8BC5E4"/>
<path fill-rule="evenodd" clip-rule="evenodd" d="M273.664 213.14V37.58L221.703 7.57999V183.14L273.664 213.14Z" fill="#8BC5E4"/>
<path fill-rule="evenodd" clip-rule="evenodd" d="M263.194 31.405L62.4317 147.315L10.4702 117.315L211.232 1.40497L263.194 31.405Z" fill="#8BC5E4"/>
<path fill-rule="evenodd" clip-rule="evenodd" d="M62.4317 147.315L10.4702 117.315L62.4317 147.315Z" fill="#8BC5E4"/>
<path fill-rule="evenodd" clip-rule="evenodd" d="M62.4317 152.825L263.194 36.915L211.232 6.91498L10.4702 122.825L62.4317 152.825Z" fill="#8BC5E4"/>
<path fill-rule="evenodd" clip-rule="evenodd" d="M268.927 40.315V215.875L216.965 185.875V10.315L268.927 40.315Z" fill="#8BC5E4"/>
<path fill-rule="evenodd" clip-rule="evenodd" d="M263.194 225.895L62.4317 341.805L10.4702 311.805L211.232 195.895L263.194 225.895Z" fill="#8BC5E4"/>
<path fill-rule="evenodd" clip-rule="evenodd" d="M56.69 338.41V162.85L4.72852 132.85V308.41L56.69 338.41Z" fill="#8BC5E4"/>
<path fill-rule="evenodd" clip-rule="evenodd" d="M62.4317 152.825L10.4702 122.825L62.4317 152.825Z" fill="#8BC5E4"/>
<path fill-rule="evenodd" clip-rule="evenodd" d="M62.4317 152.825L263.194 36.915L211.232 6.91498L10.4702 122.825L62.4317 152.825Z" fill="#8BC5E4"/>
<path fill-rule="evenodd" clip-rule="evenodd" d="M268.927 40.315V215.875L216.965 185.875V10.315L268.927 40.315Z" fill="#8BC5E4"/>
<path fill-rule="evenodd" clip-rule="evenodd" d="M263.194 225.895L62.4317 341.805L10.4702 311.805L211.232 195.895L263.194 225.895Z" fill="#8BC5E4"/>
<path fill-rule="evenodd" clip-rule="evenodd" d="M56.69 338.41V162.85L4.72852 132.85V308.41L56.69 338.41Z" fill="#8BC5E4"/>
<path fill-rule="evenodd" clip-rule="evenodd" d="M62.4317 152.825L10.4702 122.825L62.4317 152.825Z" fill="#8BC5E4"/>
<path fill-rule="evenodd" clip-rule="evenodd" d="M177.301 151.285L164.398 148.025L112.436 118.025L125.34 121.285L177.301 151.285Z" fill="#8BC5E4"/>
<path fill-rule="evenodd" clip-rule="evenodd" d="M164.398 148.025V155.305L112.436 125.305V118.025L164.398 148.025Z" fill="#8BC5E4"/>
<path fill-rule="evenodd" clip-rule="evenodd" d="M164.397 155.305L149.606 163.845L97.644 133.845L112.436 125.305L164.397 155.305Z" fill="#8BC5E4"/>
<path fill-rule="evenodd" clip-rule="evenodd" d="M149.606 163.845V170.695L97.644 140.695V133.845L149.606 163.845Z" fill="#8BC5E4"/>
<path fill-rule="evenodd" clip-rule="evenodd" d="M149.606 170.695L164.397 162.155L112.436 132.155L97.644 140.695L149.606 170.695Z" fill="#8BC5E4"/>
<path fill-rule="evenodd" clip-rule="evenodd" d="M164.398 162.155V169.435L112.436 139.435V132.155L164.398 162.155Z" fill="#8BC5E4"/>
<path fill-rule="evenodd" clip-rule="evenodd" d="M164.398 169.435L177.301 151.285L125.34 121.285L112.436 139.435L164.398 169.435Z" fill="#8BC5E4"/>
<path fill-rule="evenodd" clip-rule="evenodd" d="M177.301 151.285L125.34 121.285L177.301 151.285Z" fill="#8BC5E4"/>
<path fill-rule="evenodd" clip-rule="evenodd" d="M150.091 229.475L162.986 211.33L111.024 181.33L98.1294 199.475L150.091 229.475Z" fill="#8BC5E4"/>
<path fill-rule="evenodd" clip-rule="evenodd" d="M162.986 211.33V218.62L111.024 188.62V181.33L162.986 211.33Z" fill="#8BC5E4"/>
<path fill-rule="evenodd" clip-rule="evenodd" d="M162.986 218.62L177.786 210.075L125.825 180.075L111.024 188.62L162.986 218.62Z" fill="#8BC5E4"/>
<path fill-rule="evenodd" clip-rule="evenodd" d="M177.786 210.075V216.905L125.825 186.905V180.075L177.786 210.075Z" fill="#8BC5E4"/>
<path fill-rule="evenodd" clip-rule="evenodd" d="M177.786 216.905L162.986 225.45L111.024 195.45L125.825 186.905L177.786 216.905Z" fill="#8BC5E4"/>
<path fill-rule="evenodd" clip-rule="evenodd" d="M162.986 225.45V232.74L111.024 202.74V195.45L162.986 225.45Z" fill="#8BC5E4"/>
<path fill-rule="evenodd" clip-rule="evenodd" d="M162.986 232.74L150.091 229.475L98.1294 199.475L111.024 202.74L162.986 232.74Z" fill="#8BC5E4"/>
<path fill-rule="evenodd" clip-rule="evenodd" d="M150.091 229.475L98.1294 199.475L150.091 229.475Z" fill="#8BC5E4"/>
<path fill-rule="evenodd" clip-rule="evenodd" d="M211.57 220.75V236.33L159.608 206.33V190.75L211.57 220.75Z" fill="#8BC5E4"/>
<path fill-rule="evenodd" clip-rule="evenodd" d="M211.57 236.33L181.224 253.85L129.263 223.85L159.608 206.33L211.57 236.33Z" fill="#8BC5E4"/>
<path fill-rule="evenodd" clip-rule="evenodd" d="M181.224 253.85V238.27L129.263 208.27V223.85L181.224 253.85Z" fill="#8BC5E4"/>
<path fill-rule="evenodd" clip-rule="evenodd" d="M182.645 198.46L130.683 168.46L182.645 198.46Z" fill="#8BC5E4"/>
<path fill-rule="evenodd" clip-rule="evenodd" d="M146.861 258.11V273.69L94.8989 243.69V228.11L146.861 258.11Z" fill="#8BC5E4"/>
<path fill-rule="evenodd" clip-rule="evenodd" d="M146.86 273.69L116.515 291.21L64.5532 261.21L94.8987 243.69L146.86 273.69Z" fill="#8BC5E4"/>
<path fill-rule="evenodd" clip-rule="evenodd" d="M116.515 291.21V275.63L64.5532 245.63V261.21L116.515 291.21Z" fill="#8BC5E4"/>
<path fill-rule="evenodd" clip-rule="evenodd" d="M117.935 235.82L65.9736 205.82L117.935 235.82Z" fill="#8BC5E4"/>
<path fill-rule="evenodd" clip-rule="evenodd" d="M211.57 142.49V158.07L159.608 128.07V112.49L211.57 142.49Z" fill="#8BC5E4"/>
<path fill-rule="evenodd" clip-rule="evenodd" d="M211.57 158.07L181.224 175.59L129.263 145.59L159.608 128.07L211.57 158.07Z" fill="#8BC5E4"/>
<path fill-rule="evenodd" clip-rule="evenodd" d="M181.224 175.59V160.01L129.263 130.01V145.59L181.224 175.59Z" fill="#8BC5E4"/>
<path fill-rule="evenodd" clip-rule="evenodd" d="M182.645 120.19L130.683 90.19L182.645 120.19Z" fill="#8BC5E4"/>
<path fill-rule="evenodd" clip-rule="evenodd" d="M146.861 179.85V195.43L94.8989 165.43V149.85L146.861 179.85Z" fill="#8BC5E4"/>
<path fill-rule="evenodd" clip-rule="evenodd" d="M146.86 195.43L116.515 212.95L64.5532 182.95L94.8987 165.43L146.86 195.43Z" fill="#8BC5E4"/>
<path fill-rule="evenodd" clip-rule="evenodd" d="M116.515 212.95V197.37L64.5532 167.37V182.95L116.515 212.95Z" fill="#8BC5E4"/>
<path fill-rule="evenodd" clip-rule="evenodd" d="M117.935 157.55L65.9736 127.55L117.935 157.55Z" fill="#8BC5E4"/>
<path fill-rule="evenodd" clip-rule="evenodd" d="M88.8453 247.685V235.705L36.8838 205.705V217.685L88.8453 247.685Z" fill="#8BC5E4"/>
<path fill-rule="evenodd" clip-rule="evenodd" d="M88.8453 235.705L110.046 241.075L58.0841 211.075L36.8838 205.705L88.8453 235.705Z" fill="#8BC5E4"/>
<path fill-rule="evenodd" clip-rule="evenodd" d="M110.046 241.075L88.8453 270.915L36.8838 240.915L58.0841 211.075L110.046 241.075Z" fill="#8BC5E4"/>
<path fill-rule="evenodd" clip-rule="evenodd" d="M88.8453 270.915V258.935L36.8838 228.935V240.915L88.8453 270.915Z" fill="#8BC5E4"/>
<path fill-rule="evenodd" clip-rule="evenodd" d="M88.8453 258.935L64.5187 272.98L12.5571 242.98L36.8838 228.935L88.8453 258.935Z" fill="#8BC5E4"/>
<path fill-rule="evenodd" clip-rule="evenodd" d="M64.5187 272.98V261.73L12.5571 231.73V242.98L64.5187 272.98Z" fill="#8BC5E4"/>
<path fill-rule="evenodd" clip-rule="evenodd" d="M64.5187 261.73L88.8453 247.685L36.8838 217.685L12.5571 231.73L64.5187 261.73Z" fill="#8BC5E4"/>
<path fill-rule="evenodd" clip-rule="evenodd" d="M88.8453 247.685L36.8838 217.685L88.8453 247.685Z" fill="#8BC5E4"/>
<path fill-rule="evenodd" clip-rule="evenodd" d="M64.5187 220.07L85.7276 190.225L33.7661 160.225L12.5571 190.07L64.5187 220.07Z" fill="#8BC5E4"/>
<path fill-rule="evenodd" clip-rule="evenodd" d="M85.7276 190.225V202.195L33.7661 172.195V160.225L85.7276 190.225Z" fill="#8BC5E4"/>
<path fill-rule="evenodd" clip-rule="evenodd" d="M85.7276 202.195L110.046 188.155L58.0841 158.155L33.7661 172.195L85.7276 202.195Z" fill="#8BC5E4"/>
<path fill-rule="evenodd" clip-rule="evenodd" d="M110.045 188.155V199.405L58.084 169.405V158.155L110.045 188.155Z" fill="#8BC5E4"/>
<path fill-rule="evenodd" clip-rule="evenodd" d="M110.046 199.405L85.7276 213.445L33.7661 183.445L58.0841 169.405L110.046 199.405Z" fill="#8BC5E4"/>
<path fill-rule="evenodd" clip-rule="evenodd" d="M85.7276 213.445V225.415L33.7661 195.415V183.445L85.7276 213.445Z" fill="#8BC5E4"/>
<path fill-rule="evenodd" clip-rule="evenodd" d="M85.7276 225.415L64.5187 220.07L12.5571 190.07L33.7661 195.415L85.7276 225.415Z" fill="#8BC5E4"/>
<path fill-rule="evenodd" clip-rule="evenodd" d="M64.5187 220.07L12.5571 190.07L64.5187 220.07Z" fill="#8BC5E4"/>
<path fill-rule="evenodd" clip-rule="evenodd" d="M240.452 112.865V100.895L188.49 70.895V82.865L240.452 112.865Z" fill="#8BC5E4"/>
<path fill-rule="evenodd" clip-rule="evenodd" d="M240.452 100.895L261.661 106.25L209.699 76.25L188.49 70.895L240.452 100.895Z" fill="#8BC5E4"/>
<path fill-rule="evenodd" clip-rule="evenodd" d="M261.661 106.25L240.452 136.085L188.49 106.085L209.699 76.25L261.661 106.25Z" fill="#8BC5E4"/>
<path fill-rule="evenodd" clip-rule="evenodd" d="M240.452 136.085V124.115L188.49 94.115V106.085L240.452 136.085Z" fill="#8BC5E4"/>
<path fill-rule="evenodd" clip-rule="evenodd" d="M240.452 124.115L216.125 138.16L164.164 108.16L188.49 94.115L240.452 124.115Z" fill="#8BC5E4"/>
<path fill-rule="evenodd" clip-rule="evenodd" d="M216.125 138.16V126.91L164.164 96.91V108.16L216.125 138.16Z" fill="#8BC5E4"/>
<path fill-rule="evenodd" clip-rule="evenodd" d="M216.125 126.91L240.452 112.865L188.49 82.865L164.164 96.91L216.125 126.91Z" fill="#8BC5E4"/>
<path fill-rule="evenodd" clip-rule="evenodd" d="M240.452 112.865L188.49 82.865L240.452 112.865Z" fill="#8BC5E4"/>
<path fill-rule="evenodd" clip-rule="evenodd" d="M216.125 179.83L237.334 149.975L185.373 119.975L164.164 149.83L216.125 179.83Z" fill="#8BC5E4"/>
<path fill-rule="evenodd" clip-rule="evenodd" d="M237.334 149.975V161.955L185.373 131.955V119.975L237.334 149.975Z" fill="#8BC5E4"/>
<path fill-rule="evenodd" clip-rule="evenodd" d="M237.334 161.955L261.661 147.91L209.699 117.91L185.373 131.955L237.334 161.955Z" fill="#8BC5E4"/>
<path fill-rule="evenodd" clip-rule="evenodd" d="M261.661 147.91V159.16L209.699 129.16V117.91L261.661 147.91Z" fill="#8BC5E4"/>
<path fill-rule="evenodd" clip-rule="evenodd" d="M261.661 159.16L237.334 173.205L185.373 143.205L209.699 129.16L261.661 159.16Z" fill="#8BC5E4"/>
<path fill-rule="evenodd" clip-rule="evenodd" d="M237.334 173.205V185.185L185.373 155.185V143.205L237.334 173.205Z" fill="#8BC5E4"/>
<path fill-rule="evenodd" clip-rule="evenodd" d="M237.334 185.185L216.125 179.83L164.164 149.83L185.373 155.185L237.334 185.185Z" fill="#8BC5E4"/>
<path fill-rule="evenodd" clip-rule="evenodd" d="M216.125 179.83L164.164 149.83L216.125 179.83Z" fill="#8BC5E4"/>
<path fill-rule="evenodd" clip-rule="evenodd" d="M196.397 174.48C188.802 178.865 182.645 189.6 182.645 198.46L130.683 168.46C130.683 159.6 136.841 148.865 144.436 144.48L196.397 174.48Z" fill="#8BC5E4"/>
<path fill-rule="evenodd" clip-rule="evenodd" d="M182.645 198.46C182.651 202.781 184.151 205.997 186.727 207.483L134.766 177.483C132.19 175.997 130.69 172.781 130.683 168.46L182.645 198.46Z" fill="#8BC5E4"/>
<path fill-rule="evenodd" clip-rule="evenodd" d="M186.727 207.482C187.025 207.654 187.337 207.802 187.662 207.927L135.7 177.927C135.375 177.802 135.063 177.654 134.765 177.482L186.727 207.482Z" fill="#8BC5E4"/>
<path fill-rule="evenodd" clip-rule="evenodd" d="M187.656 207.925C188.129 208.106 188.63 208.237 189.159 208.314L137.198 178.314C136.669 178.237 136.168 178.106 135.695 177.925L187.656 207.925Z" fill="#8BC5E4"/>
<path fill-rule="evenodd" clip-rule="evenodd" d="M189.166 208.315C184.091 218.245 181.224 229.14 181.224 238.27L129.263 208.27C129.263 199.14 132.129 188.245 137.204 178.315L189.166 208.315Z" fill="#8BC5E4"/>
<path fill-rule="evenodd" clip-rule="evenodd" d="M211.57 220.75C211.57 211.51 207.993 204.725 203.239 200.46L151.277 170.46C156.032 174.725 159.609 181.51 159.609 190.75L211.57 220.75Z" fill="#8BC5E4"/>
<path fill-rule="evenodd" clip-rule="evenodd" d="M203.239 200.46C207.508 195.145 210.141 188.325 210.15 182.58L158.188 152.58C158.18 158.325 155.547 165.145 151.277 170.46L203.239 200.46Z" fill="#8BC5E4"/>
<path fill-rule="evenodd" clip-rule="evenodd" d="M210.149 182.58C210.149 178.711 208.956 175.679 206.804 174.017L154.843 144.017C156.995 145.679 158.188 148.711 158.188 152.58L210.149 182.58Z" fill="#8BC5E4"/>
<path fill-rule="evenodd" clip-rule="evenodd" d="M206.811 174.021C206.593 173.853 206.366 173.699 206.13 173.559L154.169 143.559C154.405 143.699 154.632 143.853 154.85 144.021L206.811 174.021Z" fill="#8BC5E4"/>
<path fill-rule="evenodd" clip-rule="evenodd" d="M206.122 173.555C205.885 173.415 205.641 173.292 205.389 173.183L153.428 143.183C153.68 143.292 153.924 143.415 154.161 143.555L206.122 173.555Z" fill="#8BC5E4"/>
<path fill-rule="evenodd" clip-rule="evenodd" d="M205.389 173.184C202.9 172.113 199.711 172.568 196.402 174.477L144.441 144.477C147.75 142.568 150.939 142.113 153.428 143.184L205.389 173.184Z" fill="#8BC5E4"/>
<path fill-rule="evenodd" clip-rule="evenodd" d="M131.688 211.84C124.093 216.225 117.935 226.96 117.935 235.82L65.9736 205.82C65.9736 196.96 72.131 186.225 79.7261 181.84L131.688 211.84Z" fill="#8BC5E4"/>
<path fill-rule="evenodd" clip-rule="evenodd" d="M117.935 235.82C117.942 240.141 119.442 243.357 122.018 244.843L70.0568 214.843C67.4808 213.357 65.9808 210.141 65.9736 205.82L117.935 235.82Z" fill="#8BC5E4"/>
<path fill-rule="evenodd" clip-rule="evenodd" d="M122.018 244.842C122.315 245.014 122.627 245.162 122.952 245.287L70.9902 215.287C70.6652 215.162 70.3532 215.014 70.0562 214.842L122.018 244.842Z" fill="#8BC5E4"/>
<path fill-rule="evenodd" clip-rule="evenodd" d="M122.946 245.285C123.419 245.466 123.921 245.597 124.45 245.674L72.4889 215.674C71.9599 215.597 71.4579 215.466 70.9849 215.285L122.946 245.285Z" fill="#8BC5E4"/>
<path fill-rule="evenodd" clip-rule="evenodd" d="M124.456 245.675C119.39 255.6 116.515 266.5 116.515 275.63L64.5532 245.63C64.5532 236.5 67.4284 225.6 72.4947 215.675L124.456 245.675Z" fill="#8BC5E4"/>
<path fill-rule="evenodd" clip-rule="evenodd" d="M146.861 258.11C146.861 248.87 143.284 242.085 138.529 237.82L86.5679 207.82C91.3224 212.085 94.899 218.87 94.899 228.11L146.861 258.11Z" fill="#8BC5E4"/>
<path fill-rule="evenodd" clip-rule="evenodd" d="M138.529 237.82C142.799 232.505 145.432 225.685 145.44 219.94L93.4788 189.94C93.4701 195.685 90.8374 202.505 86.5679 207.82L138.529 237.82Z" fill="#8BC5E4"/>
<path fill-rule="evenodd" clip-rule="evenodd" d="M145.44 219.94C145.44 216.071 144.247 213.039 142.095 211.377L90.1338 181.377C92.2858 183.039 93.4788 186.071 93.4786 189.94L145.44 219.94Z" fill="#8BC5E4"/>
<path fill-rule="evenodd" clip-rule="evenodd" d="M142.101 211.381C141.883 211.213 141.656 211.059 141.42 210.919L89.459 180.919C89.695 181.059 89.922 181.213 90.14 181.381L142.101 211.381Z" fill="#8BC5E4"/>
<path fill-rule="evenodd" clip-rule="evenodd" d="M141.413 210.915C141.176 210.775 140.931 210.652 140.679 210.543L88.7178 180.543C88.9698 180.652 89.2148 180.775 89.4515 180.915L141.413 210.915Z" fill="#8BC5E4"/>
<path fill-rule="evenodd" clip-rule="evenodd" d="M140.68 210.544C138.19 209.473 135.002 209.928 131.693 211.837L79.7319 181.837C83.0409 179.928 86.2289 179.473 88.7189 180.544L140.68 210.544Z" fill="#8BC5E4"/>
<path fill-rule="evenodd" clip-rule="evenodd" d="M196.397 96.21C188.802 100.595 182.645 111.34 182.645 120.19L130.683 90.19C130.683 81.34 136.841 70.595 144.436 66.21L196.397 96.21Z" fill="#8BC5E4"/>
<path fill-rule="evenodd" clip-rule="evenodd" d="M182.645 120.19C182.651 124.519 184.151 127.737 186.727 129.223L134.766 99.223C132.19 97.737 130.69 94.519 130.683 90.19L182.645 120.19Z" fill="#8BC5E4"/>
<path fill-rule="evenodd" clip-rule="evenodd" d="M186.727 129.222C187.025 129.394 187.337 129.542 187.662 129.667L135.7 99.667C135.375 99.542 135.063 99.394 134.765 99.222L186.727 129.222Z" fill="#8BC5E4"/>
<path fill-rule="evenodd" clip-rule="evenodd" d="M187.656 129.665C188.129 129.846 188.63 129.977 189.159 130.054L137.198 100.054C136.669 99.977 136.168 99.846 135.695 99.665L187.656 129.665Z" fill="#8BC5E4"/>
<path fill-rule="evenodd" clip-rule="evenodd" d="M189.166 130.055C184.091 139.985 181.224 150.88 181.224 160.01L129.263 130.01C129.263 120.88 132.129 109.985 137.204 100.055L189.166 130.055Z" fill="#8BC5E4"/>
<path fill-rule="evenodd" clip-rule="evenodd" d="M211.57 142.49C211.57 133.25 207.993 126.455 203.239 122.2L151.277 92.2C156.032 96.455 159.609 103.25 159.609 112.49L211.57 142.49Z" fill="#8BC5E4"/>
<path fill-rule="evenodd" clip-rule="evenodd" d="M203.239 122.2C207.508 116.875 210.141 110.065 210.15 104.31L158.188 74.31C158.18 80.065 155.547 86.875 151.277 92.2L203.239 122.2Z" fill="#8BC5E4"/>
<path fill-rule="evenodd" clip-rule="evenodd" d="M210.149 104.31C210.149 100.45 208.956 97.419 206.804 95.757L154.843 65.757C156.995 67.419 158.188 70.45 158.188 74.31L210.149 104.31Z" fill="#8BC5E4"/>
<path fill-rule="evenodd" clip-rule="evenodd" d="M206.811 95.761C206.593 95.593 206.366 95.439 206.13 95.299L154.169 65.299C154.405 65.439 154.632 65.593 154.85 65.761L206.811 95.761Z" fill="#8BC5E4"/>
<path fill-rule="evenodd" clip-rule="evenodd" d="M206.122 95.295C205.885 95.155 205.641 95.032 205.389 94.923L153.428 64.923C153.68 65.032 153.924 65.155 154.161 65.295L206.122 95.295Z" fill="#8BC5E4"/>
<path fill-rule="evenodd" clip-rule="evenodd" d="M205.389 94.923C202.9 93.851 199.711 94.298 196.402 96.207L144.441 66.207C147.75 64.298 150.939 63.851 153.428 64.923L205.389 94.923Z" fill="#8BC5E4"/>
<path fill-rule="evenodd" clip-rule="evenodd" d="M131.688 133.57C124.093 137.955 117.935 148.7 117.935 157.55L65.9736 127.55C65.9736 118.7 72.131 107.955 79.7261 103.57L131.688 133.57Z" fill="#8BC5E4"/>
<path fill-rule="evenodd" clip-rule="evenodd" d="M117.935 157.55C117.942 161.879 119.442 165.097 122.018 166.583L70.0568 136.583C67.4808 135.097 65.9808 131.879 65.9736 127.55L117.935 157.55Z" fill="#8BC5E4"/>
<path fill-rule="evenodd" clip-rule="evenodd" d="M122.018 166.582C122.315 166.754 122.627 166.902 122.952 167.027L70.9902 137.027C70.6652 136.902 70.3532 136.754 70.0562 136.582L122.018 166.582Z" fill="#8BC5E4"/>
<path fill-rule="evenodd" clip-rule="evenodd" d="M122.946 167.025C123.419 167.206 123.921 167.337 124.45 167.414L72.4889 137.414C71.9599 137.337 71.4579 137.206 70.9849 137.025L122.946 167.025Z" fill="#8BC5E4"/>
<path fill-rule="evenodd" clip-rule="evenodd" d="M124.456 167.415C119.39 177.34 116.515 188.24 116.515 197.37L64.5532 167.37C64.5532 158.24 67.4284 147.34 72.4947 137.415L124.456 167.415Z" fill="#8BC5E4"/>
<path fill-rule="evenodd" clip-rule="evenodd" d="M146.861 179.85C146.861 170.61 143.284 163.815 138.529 159.56L86.5679 129.56C91.3224 133.815 94.899 140.61 94.899 149.85L146.861 179.85Z" fill="#8BC5E4"/>
<path fill-rule="evenodd" clip-rule="evenodd" d="M138.529 159.56C142.799 154.235 145.432 147.425 145.44 141.67L93.4788 111.67C93.4701 117.425 90.8374 124.235 86.5679 129.56L138.529 159.56Z" fill="#8BC5E4"/>
<path fill-rule="evenodd" clip-rule="evenodd" d="M145.44 141.67C145.44 137.81 144.247 134.779 142.095 133.117L90.1338 103.117C92.2858 104.779 93.4788 107.81 93.4786 111.67L145.44 141.67Z" fill="#8BC5E4"/>
<path fill-rule="evenodd" clip-rule="evenodd" d="M142.101 133.121C141.883 132.953 141.656 132.799 141.42 132.659L89.459 102.659C89.695 102.799 89.922 102.953 90.14 103.121L142.101 133.121Z" fill="#8BC5E4"/>
<path fill-rule="evenodd" clip-rule="evenodd" d="M141.413 132.655C141.176 132.515 140.931 132.392 140.679 132.283L88.7178 102.283C88.9698 102.392 89.2148 102.515 89.4515 102.655L141.413 132.655Z" fill="#8BC5E4"/>
<path fill-rule="evenodd" clip-rule="evenodd" d="M140.68 132.283C138.19 131.211 135.002 131.658 131.693 133.567L79.7319 103.567C83.0409 101.658 86.2289 101.211 88.7189 102.283L140.68 132.283Z" fill="#8BC5E4"/>
<path fill-rule="evenodd" clip-rule="evenodd" d="M62.4317 147.315C56.6727 150.64 51.9615 158.85 51.9615 165.58L0 135.58C0 128.85 4.7112 120.64 10.4702 117.315L62.4317 147.315Z" fill="#8BC5E4"/>
<path fill-rule="evenodd" clip-rule="evenodd" d="M51.9615 341.14C51.9615 344.643 53.2375 347.073 55.2745 348.129L3.313 318.129C1.276 317.073 0 314.643 0 311.14L51.9615 341.14Z" fill="#8BC5E4"/>
<path fill-rule="evenodd" clip-rule="evenodd" d="M55.2823 348.134C57.1553 349.101 59.6693 348.907 62.4233 347.32L10.4618 317.32C7.7078 318.907 5.1938 319.101 3.3208 318.134L55.2823 348.134Z" fill="#8BC5E4"/>
<path fill-rule="evenodd" clip-rule="evenodd" d="M263.194 231.405C268.944 228.085 273.664 219.87 273.664 213.14L221.702 183.14C221.702 189.87 216.982 198.085 211.232 201.405L263.194 231.405Z" fill="#8BC5E4"/>
<path fill-rule="evenodd" clip-rule="evenodd" d="M273.664 37.58C273.664 34.077 272.385 31.648 270.348 30.593L218.387 0.592987C220.424 1.64799 221.703 4.07699 221.702 7.57999L273.664 37.58Z" fill="#8BC5E4"/>
<path fill-rule="evenodd" clip-rule="evenodd" d="M270.339 30.588C268.465 29.622 265.952 29.815 263.202 31.4L211.241 1.39997C213.991 -0.185031 216.504 -0.378031 218.378 0.587969L270.339 30.588Z" fill="#8BC5E4"/>
<path fill-rule="evenodd" clip-rule="evenodd" d="M263.194 36.915C264.737 36.024 266.121 35.903 267.142 36.437L215.181 6.43697C214.16 5.90297 212.776 6.02397 211.232 6.91497L263.194 36.915Z" fill="#8BC5E4"/>
<path fill-rule="evenodd" clip-rule="evenodd" d="M267.142 36.437C268.246 37.013 268.926 38.353 268.927 40.309L216.965 10.309C216.964 8.35298 216.284 7.01298 215.18 6.43698L267.142 36.437Z" fill="#8BC5E4"/>
<path fill-rule="evenodd" clip-rule="evenodd" d="M268.927 215.875C268.927 219.645 266.406 224.04 263.194 225.895L211.232 195.895C214.445 194.04 216.965 189.645 216.965 185.875L268.927 215.875Z" fill="#8BC5E4"/>
<path fill-rule="evenodd" clip-rule="evenodd" d="M62.4319 341.805C60.8837 342.699 59.4977 342.82 58.4757 342.287L6.51416 312.287C7.53616 312.82 8.92216 312.699 10.4704 311.805L62.4319 341.805Z" fill="#8BC5E4"/>
<path fill-rule="evenodd" clip-rule="evenodd" d="M58.4775 342.288C57.3715 341.712 56.6915 340.372 56.6905 338.416L4.729 308.416C4.73 310.372 5.41 311.712 6.516 312.288L58.4775 342.288Z" fill="#8BC5E4"/>
<path fill-rule="evenodd" clip-rule="evenodd" d="M56.69 162.85C56.69 159.08 59.2101 154.685 62.4317 152.825L10.4702 122.825C7.24862 124.685 4.72852 129.08 4.72852 132.85L56.69 162.85Z" fill="#8BC5E4"/>
<path fill-rule="evenodd" clip-rule="evenodd" d="M263.194 36.915C264.737 36.024 266.121 35.903 267.142 36.437L215.181 6.43697C214.16 5.90297 212.776 6.02397 211.232 6.91497L263.194 36.915Z" fill="#8BC5E4"/>
<path fill-rule="evenodd" clip-rule="evenodd" d="M267.142 36.437C268.246 37.013 268.926 38.353 268.927 40.309L216.965 10.309C216.964 8.35298 216.284 7.01298 215.18 6.43698L267.142 36.437Z" fill="#8BC5E4"/>
<path fill-rule="evenodd" clip-rule="evenodd" d="M268.927 215.875C268.927 219.645 266.406 224.04 263.194 225.895L211.232 195.895C214.445 194.04 216.965 189.645 216.965 185.875L268.927 215.875Z" fill="#8BC5E4"/>
<path fill-rule="evenodd" clip-rule="evenodd" d="M62.4319 341.805C60.8837 342.699 59.4977 342.82 58.4757 342.287L6.51416 312.287C7.53616 312.82 8.92216 312.699 10.4704 311.805L62.4319 341.805Z" fill="#8BC5E4"/>
<path fill-rule="evenodd" clip-rule="evenodd" d="M58.4775 342.288C57.3715 341.712 56.6915 340.372 56.6905 338.416L4.729 308.416C4.73 310.372 5.41 311.712 6.516 312.288L58.4775 342.288Z" fill="#8BC5E4"/>
<path fill-rule="evenodd" clip-rule="evenodd" d="M56.69 162.85C56.69 159.08 59.2101 154.685 62.4317 152.825L10.4702 122.825C7.24862 124.685 4.72852 129.08 4.72852 132.85L56.69 162.85Z" fill="#8BC5E4"/>
<path fill-rule="evenodd" clip-rule="evenodd" d="M182.645 198.46C182.645 189.6 188.802 178.865 196.397 174.48L144.436 144.48C136.841 148.865 130.683 159.6 130.683 168.46L182.645 198.46Z" fill="#8BC5E4"/>
<path fill-rule="evenodd" clip-rule="evenodd" d="M196.397 174.48C199.708 172.568 202.898 172.112 205.389 173.183L153.428 143.183C150.937 142.112 147.747 142.568 144.436 144.48L196.397 174.48Z" fill="#8BC5E4"/>
<path fill-rule="evenodd" clip-rule="evenodd" d="M205.399 173.188C205.645 173.294 205.884 173.415 206.116 173.551L154.154 143.551C153.922 143.415 153.683 143.294 153.437 143.188L205.399 173.188Z" fill="#8BC5E4"/>
<path fill-rule="evenodd" clip-rule="evenodd" d="M206.123 173.555C206.359 173.695 206.586 173.849 206.804 174.017L154.843 144.017C154.625 143.849 154.398 143.695 154.161 143.555L206.123 173.555Z" fill="#8BC5E4"/>
<path fill-rule="evenodd" clip-rule="evenodd" d="M206.804 174.016C208.955 175.678 210.148 178.708 210.149 182.574L158.188 152.574C158.187 148.708 156.994 145.678 154.843 144.016L206.804 174.016Z" fill="#8BC5E4"/>
<path fill-rule="evenodd" clip-rule="evenodd" d="M210.15 182.58C210.141 188.325 207.508 195.145 203.239 200.46L151.277 170.46C155.547 165.145 158.18 158.325 158.188 152.58L210.15 182.58Z" fill="#8BC5E4"/>
<path fill-rule="evenodd" clip-rule="evenodd" d="M203.239 200.46C207.993 204.725 211.57 211.51 211.57 220.75L159.609 190.75C159.609 181.51 156.032 174.725 151.277 170.46L203.239 200.46Z" fill="#8BC5E4"/>
<path fill-rule="evenodd" clip-rule="evenodd" d="M181.224 238.27C181.224 229.14 184.091 218.245 189.166 208.315L137.204 178.315C132.129 188.245 129.263 199.14 129.263 208.27L181.224 238.27Z" fill="#8BC5E4"/>
<path fill-rule="evenodd" clip-rule="evenodd" d="M189.166 208.315C188.636 208.238 188.134 208.108 187.661 207.927L135.7 177.927C136.173 178.108 136.675 178.238 137.204 178.315L189.166 208.315Z" fill="#8BC5E4"/>
<path fill-rule="evenodd" clip-rule="evenodd" d="M187.66 207.926C187.335 207.802 187.025 207.654 186.728 207.483L134.766 177.483C135.063 177.654 135.373 177.802 135.698 177.926L187.66 207.926Z" fill="#8BC5E4"/>
<path fill-rule="evenodd" clip-rule="evenodd" d="M186.729 207.484C184.154 205.999 182.654 202.786 182.645 198.468L130.683 168.468C130.692 172.786 132.192 175.999 134.767 177.484L186.729 207.484Z" fill="#8BC5E4"/>
<path fill-rule="evenodd" clip-rule="evenodd" d="M117.935 235.82C117.935 226.96 124.093 216.225 131.688 211.84L79.7261 181.84C72.131 186.225 65.9736 196.96 65.9736 205.82L117.935 235.82Z" fill="#8BC5E4"/>
<path fill-rule="evenodd" clip-rule="evenodd" d="M131.688 211.84C134.999 209.928 138.188 209.472 140.679 210.543L88.7178 180.543C86.2268 179.472 83.0378 179.928 79.7261 181.84L131.688 211.84Z" fill="#8BC5E4"/>
<path fill-rule="evenodd" clip-rule="evenodd" d="M140.689 210.548C140.935 210.654 141.174 210.775 141.406 210.911L89.4441 180.911C89.2121 180.775 88.9731 180.654 88.7271 180.548L140.689 210.548Z" fill="#8BC5E4"/>
<path fill-rule="evenodd" clip-rule="evenodd" d="M141.413 210.915C141.65 211.055 141.877 211.209 142.095 211.377L90.134 181.377C89.916 181.209 89.689 181.055 89.4517 180.915L141.413 210.915Z" fill="#8BC5E4"/>
<path fill-rule="evenodd" clip-rule="evenodd" d="M142.094 211.376C144.245 213.038 145.438 216.068 145.44 219.934L93.4788 189.934C93.4768 186.068 92.2838 183.038 90.1328 181.376L142.094 211.376Z" fill="#8BC5E4"/>
<path fill-rule="evenodd" clip-rule="evenodd" d="M145.44 219.94C145.432 225.685 142.799 232.505 138.529 237.82L86.5679 207.82C90.8374 202.505 93.4701 195.685 93.4788 189.94L145.44 219.94Z" fill="#8BC5E4"/>
<path fill-rule="evenodd" clip-rule="evenodd" d="M138.529 237.82C143.284 242.085 146.861 248.87 146.861 258.11L94.899 228.11C94.899 218.87 91.3224 212.085 86.5679 207.82L138.529 237.82Z" fill="#8BC5E4"/>
<path fill-rule="evenodd" clip-rule="evenodd" d="M116.515 275.63C116.515 266.5 119.39 255.6 124.456 245.675L72.4947 215.675C67.4284 225.6 64.5532 236.5 64.5532 245.63L116.515 275.63Z" fill="#8BC5E4"/>
<path fill-rule="evenodd" clip-rule="evenodd" d="M124.456 245.675C123.927 245.598 123.424 245.468 122.951 245.287L70.9897 215.287C71.4627 215.468 71.9657 215.598 72.4947 215.675L124.456 245.675Z" fill="#8BC5E4"/>
<path fill-rule="evenodd" clip-rule="evenodd" d="M122.95 245.286C122.626 245.162 122.316 245.014 122.019 244.843L70.0571 214.843C70.3541 215.014 70.6641 215.162 70.9881 215.286L122.95 245.286Z" fill="#8BC5E4"/>
<path fill-rule="evenodd" clip-rule="evenodd" d="M122.02 244.844C119.445 243.359 117.945 240.146 117.936 235.828L65.9741 205.828C65.9831 210.146 67.4831 213.359 70.0581 214.844L122.02 244.844Z" fill="#8BC5E4"/>
<path fill-rule="evenodd" clip-rule="evenodd" d="M182.645 120.19C182.645 111.34 188.802 100.595 196.397 96.21L144.436 66.21C136.841 70.595 130.683 81.34 130.683 90.19L182.645 120.19Z" fill="#8BC5E4"/>
<path fill-rule="evenodd" clip-rule="evenodd" d="M196.397 96.21C199.708 94.298 202.898 93.851 205.389 94.923L153.428 64.923C150.937 63.851 147.747 64.298 144.436 66.21L196.397 96.21Z" fill="#8BC5E4"/>
<path fill-rule="evenodd" clip-rule="evenodd" d="M205.399 94.927C205.645 95.034 205.884 95.155 206.116 95.291L154.154 65.291C153.922 65.155 153.683 65.034 153.437 64.927L205.399 94.927Z" fill="#8BC5E4"/>
<path fill-rule="evenodd" clip-rule="evenodd" d="M206.123 95.295C206.359 95.435 206.586 95.589 206.804 95.757L154.843 65.757C154.625 65.589 154.398 65.435 154.161 65.295L206.123 95.295Z" fill="#8BC5E4"/>
<path fill-rule="evenodd" clip-rule="evenodd" d="M206.804 95.756C208.955 97.418 210.148 100.447 210.149 104.304L158.188 74.304C158.187 70.447 156.994 67.418 154.843 65.756L206.804 95.756Z" fill="#8BC5E4"/>
<path fill-rule="evenodd" clip-rule="evenodd" d="M210.15 104.31C210.141 110.065 207.508 116.875 203.239 122.2L151.277 92.2C155.547 86.875 158.18 80.065 158.188 74.31L210.15 104.31Z" fill="#8BC5E4"/>
<path fill-rule="evenodd" clip-rule="evenodd" d="M203.239 122.2C207.993 126.455 211.57 133.25 211.57 142.49L159.609 112.49C159.609 103.25 156.032 96.455 151.277 92.2L203.239 122.2Z" fill="#8BC5E4"/>
<path fill-rule="evenodd" clip-rule="evenodd" d="M181.224 160.01C181.224 150.88 184.091 139.985 189.166 130.055L137.204 100.055C132.129 109.985 129.263 120.88 129.263 130.01L181.224 160.01Z" fill="#8BC5E4"/>
<path fill-rule="evenodd" clip-rule="evenodd" d="M189.166 130.055C188.636 129.978 188.134 129.848 187.661 129.667L135.7 99.667C136.173 99.848 136.675 99.978 137.204 100.055L189.166 130.055Z" fill="#8BC5E4"/>
<path fill-rule="evenodd" clip-rule="evenodd" d="M187.66 129.666C187.335 129.542 187.025 129.394 186.728 129.223L134.766 99.223C135.063 99.394 135.373 99.542 135.698 99.666L187.66 129.666Z" fill="#8BC5E4"/>
<path fill-rule="evenodd" clip-rule="evenodd" d="M186.729 129.223C184.154 127.738 182.654 124.524 182.645 120.198L130.683 90.198C130.692 94.524 132.192 97.738 134.767 99.223L186.729 129.223Z" fill="#8BC5E4"/>
<path fill-rule="evenodd" clip-rule="evenodd" d="M117.935 157.55C117.935 148.7 124.093 137.955 131.688 133.57L79.7261 103.57C72.131 107.955 65.9736 118.7 65.9736 127.55L117.935 157.55Z" fill="#8BC5E4"/>
<path fill-rule="evenodd" clip-rule="evenodd" d="M131.688 133.57C134.999 131.658 138.188 131.211 140.679 132.283L88.7178 102.283C86.2268 101.211 83.0378 101.658 79.7261 103.57L131.688 133.57Z" fill="#8BC5E4"/>
<path fill-rule="evenodd" clip-rule="evenodd" d="M140.689 132.287C140.935 132.394 141.174 132.515 141.406 132.651L89.4441 102.651C89.2121 102.515 88.9731 102.394 88.7271 102.287L140.689 132.287Z" fill="#8BC5E4"/>
<path fill-rule="evenodd" clip-rule="evenodd" d="M141.413 132.655C141.65 132.795 141.877 132.949 142.095 133.117L90.134 103.117C89.916 102.949 89.689 102.795 89.4517 102.655L141.413 132.655Z" fill="#8BC5E4"/>
<path fill-rule="evenodd" clip-rule="evenodd" d="M142.094 133.116C144.245 134.778 145.438 137.807 145.44 141.664L93.4788 111.664C93.4768 107.807 92.2838 104.778 90.1328 103.116L142.094 133.116Z" fill="#8BC5E4"/>
<path fill-rule="evenodd" clip-rule="evenodd" d="M145.44 141.67C145.432 147.425 142.799 154.235 138.529 159.56L86.5679 129.56C90.8374 124.235 93.4701 117.425 93.4788 111.67L145.44 141.67Z" fill="#8BC5E4"/>
<path fill-rule="evenodd" clip-rule="evenodd" d="M138.529 159.56C143.284 163.815 146.861 170.61 146.861 179.85L94.899 149.85C94.899 140.61 91.3224 133.815 86.5679 129.56L138.529 159.56Z" fill="#8BC5E4"/>
<path fill-rule="evenodd" clip-rule="evenodd" d="M116.515 197.37C116.515 188.24 119.39 177.34 124.456 167.415L72.4947 137.415C67.4284 147.34 64.5532 158.24 64.5532 167.37L116.515 197.37Z" fill="#8BC5E4"/>
<path fill-rule="evenodd" clip-rule="evenodd" d="M124.456 167.415C123.927 167.338 123.424 167.208 122.951 167.027L70.9897 137.027C71.4627 137.208 71.9657 137.338 72.4947 137.415L124.456 167.415Z" fill="#8BC5E4"/>
<path fill-rule="evenodd" clip-rule="evenodd" d="M122.95 167.026C122.626 166.902 122.316 166.754 122.019 166.583L70.0571 136.583C70.3541 136.754 70.6641 136.902 70.9881 137.026L122.95 167.026Z" fill="#8BC5E4"/>
<path fill-rule="evenodd" clip-rule="evenodd" d="M122.02 166.583C119.445 165.098 117.945 161.884 117.936 157.558L65.9741 127.558C65.9831 131.884 67.4831 135.098 70.0581 136.583L122.02 166.583Z" fill="#8BC5E4"/>
<path fill-rule="evenodd" clip-rule="evenodd" d="M117.935 157.55C117.935 148.7 124.093 137.955 131.688 133.57C135.334 131.465 138.832 131.135 141.413 132.655C143.994 134.175 145.44 137.42 145.44 141.67C145.432 147.425 142.799 154.235 138.529 159.56C143.284 163.815 146.86 170.61 146.86 179.85V195.43L116.515 212.95V197.37C116.515 188.24 119.39 177.34 124.456 167.415C120.412 166.83 117.944 163.105 117.935 157.55ZM263.194 36.915L62.4317 152.825C59.2101 154.685 56.6899 159.08 56.6899 162.85V338.41C56.6899 342.18 59.2101 343.665 62.4317 341.805L263.194 225.895C266.407 224.04 268.927 219.645 268.927 215.875V40.315C268.927 36.545 266.407 35.06 263.194 36.915ZM182.645 120.19C182.645 111.34 188.802 100.595 196.397 96.21C200.043 94.105 203.542 93.775 206.123 95.295C208.703 96.815 210.15 100.06 210.15 104.31C210.141 110.065 207.508 116.875 203.239 122.2C207.993 126.455 211.57 133.25 211.57 142.49V158.07L181.224 175.59V160.01C181.224 150.88 184.091 139.985 189.166 130.055C185.121 129.47 182.653 125.745 182.645 120.19ZM164.398 148.025L177.301 151.285L164.398 169.435V162.155L149.606 170.695V163.845L164.398 155.305V148.025ZM240.452 112.865V100.895L261.661 106.25L240.452 136.085V124.115L216.125 138.16V126.91L240.452 112.865ZM237.334 149.975L216.125 179.83L237.334 185.185V173.205L261.661 159.16V147.91L237.334 161.955V149.975ZM182.645 198.46C182.645 189.6 188.802 178.865 196.397 174.48C200.043 172.375 203.542 172.035 206.123 173.555C208.703 175.075 210.15 178.32 210.15 182.58C210.141 188.325 207.508 195.145 203.239 200.46C207.993 204.725 211.57 211.51 211.57 220.75V236.33L181.224 253.85V238.27C181.224 229.14 184.091 218.245 189.166 208.315C185.121 207.73 182.653 204.005 182.645 198.46ZM162.986 211.33L150.091 229.475L162.986 232.74V225.45L177.786 216.905V210.075L162.986 218.62V211.33ZM117.935 235.82C117.935 226.96 124.093 216.225 131.688 211.84C135.334 209.735 138.832 209.395 141.413 210.915C143.994 212.435 145.44 215.68 145.44 219.94C145.432 225.685 142.799 232.505 138.529 237.82C143.284 242.085 146.86 248.87 146.86 258.11V273.69L116.515 291.21V275.63C116.515 266.5 119.39 255.6 124.456 245.675C120.412 245.09 117.944 241.365 117.935 235.82ZM88.8454 235.705V247.685L64.5188 261.73V272.98L88.8454 258.935V270.915L110.046 241.075L88.8454 235.705ZM64.5188 220.07L85.7278 190.225V202.195L110.046 188.155V199.405L85.7278 213.445V225.415L64.5188 220.07Z" fill="white"/>
</svg>
