<svg width="226" height="321" viewBox="0 0 226 321" fill="none" xmlns="http://www.w3.org/2000/svg">
<path fill-rule="evenodd" clip-rule="evenodd" d="M85.6846 127.323L137.646 97.3227L85.6846 127.323Z" fill="#8BC5E4"/>
<path fill-rule="evenodd" clip-rule="evenodd" d="M71.8457 148.003V175.613L123.807 145.613V118.003L71.8457 148.003Z" fill="#8BC5E4"/>
<path fill-rule="evenodd" clip-rule="evenodd" d="M100.034 191.888V164.278L151.996 134.278V161.888L100.034 191.888Z" fill="#8BC5E4"/>
<path fill-rule="evenodd" clip-rule="evenodd" d="M100.035 164.278L92.7861 160.093L144.748 130.093L151.996 134.278L100.035 164.278Z" fill="#8BC5E4"/>
<path fill-rule="evenodd" clip-rule="evenodd" d="M92.7861 160.093V187.703L144.748 157.703V130.093L92.7861 160.093Z" fill="#8BC5E4"/>
<path fill-rule="evenodd" clip-rule="evenodd" d="M79.0938 179.798V152.188L131.055 122.188V149.798L79.0938 179.798Z" fill="#8BC5E4"/>
<path fill-rule="evenodd" clip-rule="evenodd" d="M79.0943 152.188L71.8457 148.003L123.807 118.003L131.056 122.188L79.0943 152.188Z" fill="#8BC5E4"/>
<path fill-rule="evenodd" clip-rule="evenodd" d="M71.8457 148.003L123.807 118.003L71.8457 148.003Z" fill="#8BC5E4"/>
<path fill-rule="evenodd" clip-rule="evenodd" d="M0 37.5327V213.093L51.9615 183.093V7.53271L0 37.5327Z" fill="#8BC5E4"/>
<path fill-rule="evenodd" clip-rule="evenodd" d="M10.626 231.448L162.579 319.178L214.54 289.178L62.5876 201.448L10.626 231.448Z" fill="#8BC5E4"/>
<path fill-rule="evenodd" clip-rule="evenodd" d="M173.205 313.093V137.533L225.167 107.533V283.093L173.205 313.093Z" fill="#8BC5E4"/>
<path fill-rule="evenodd" clip-rule="evenodd" d="M162.579 119.178L10.626 31.4477L62.5876 1.44771L214.54 89.1777L162.579 119.178Z" fill="#8BC5E4"/>
<path fill-rule="evenodd" clip-rule="evenodd" d="M10.626 31.4477L62.5876 1.44771L10.626 31.4477Z" fill="#8BC5E4"/>
<path fill-rule="evenodd" clip-rule="evenodd" d="M10.626 36.9577L162.579 124.688L214.54 94.6877L62.5876 6.95771L10.626 36.9577Z" fill="#8BC5E4"/>
<path fill-rule="evenodd" clip-rule="evenodd" d="M168.407 134.763V310.323L220.369 280.323V104.763L168.407 134.763Z" fill="#8BC5E4"/>
<path fill-rule="evenodd" clip-rule="evenodd" d="M162.579 313.668L10.626 225.938L62.5876 195.938L214.54 283.668L162.579 313.668Z" fill="#8BC5E4"/>
<path fill-rule="evenodd" clip-rule="evenodd" d="M4.79785 215.863V40.3027L56.7593 10.3027V185.863L4.79785 215.863Z" fill="#8BC5E4"/>
<path fill-rule="evenodd" clip-rule="evenodd" d="M10.626 36.9577L62.5876 6.95771L10.626 36.9577Z" fill="#8BC5E4"/>
<path fill-rule="evenodd" clip-rule="evenodd" d="M41.3007 73.9977L27.3057 86.2377L79.2672 56.2377L93.2622 43.9977L41.3007 73.9977Z" fill="#8BC5E4"/>
<path fill-rule="evenodd" clip-rule="evenodd" d="M27.3057 86.2377L55.3043 102.403L107.266 72.4027L79.2672 56.2377L27.3057 86.2377Z" fill="#8BC5E4"/>
<path fill-rule="evenodd" clip-rule="evenodd" d="M55.3044 102.403L41.3008 73.9977L93.2623 43.9977L107.266 72.4027L55.3044 102.403Z" fill="#8BC5E4"/>
<path fill-rule="evenodd" clip-rule="evenodd" d="M41.3008 73.9977L93.2623 43.9977L41.3008 73.9977Z" fill="#8BC5E4"/>
<path fill-rule="evenodd" clip-rule="evenodd" d="M134.434 135.568V167.738L186.395 137.738V105.568L134.434 135.568Z" fill="#8BC5E4"/>
<path fill-rule="evenodd" clip-rule="evenodd" d="M134.434 167.738L152.118 161.868L204.079 131.868L186.395 137.738L134.434 167.738Z" fill="#8BC5E4"/>
<path fill-rule="evenodd" clip-rule="evenodd" d="M152.118 161.868L134.434 135.568L186.395 105.568L204.079 131.868L152.118 161.868Z" fill="#8BC5E4"/>
<path fill-rule="evenodd" clip-rule="evenodd" d="M134.434 135.568L186.395 105.568L134.434 135.568Z" fill="#8BC5E4"/>
<path fill-rule="evenodd" clip-rule="evenodd" d="M85.6934 120.188V120.238L137.655 90.2377V90.1877L85.6934 120.188Z" fill="#8BC5E4"/>
<path fill-rule="evenodd" clip-rule="evenodd" d="M44.1934 124.298V98.4377L96.1549 68.4377V94.2977L44.1934 124.298Z" fill="#8BC5E4"/>
<path fill-rule="evenodd" clip-rule="evenodd" d="M44.1933 98.4377L38.4082 95.0977L90.3697 65.0977L96.1548 68.4377L44.1933 98.4377Z" fill="#8BC5E4"/>
<path fill-rule="evenodd" clip-rule="evenodd" d="M38.4082 95.0977V142.068L90.3697 112.068V65.0977L38.4082 95.0977Z" fill="#8BC5E4"/>
<path fill-rule="evenodd" clip-rule="evenodd" d="M62.8128 209.478L39.9844 196.298L91.9459 166.298L114.774 179.478L62.8128 209.478Z" fill="#8BC5E4"/>
<path fill-rule="evenodd" clip-rule="evenodd" d="M39.9844 196.298V202.948L91.9459 172.948V166.298L39.9844 196.298Z" fill="#8BC5E4"/>
<path fill-rule="evenodd" clip-rule="evenodd" d="M39.9844 202.948L82.792 227.663L134.754 197.663L91.9459 172.948L39.9844 202.948Z" fill="#8BC5E4"/>
<path fill-rule="evenodd" clip-rule="evenodd" d="M127.349 225.078V251.398L179.31 221.398V195.078L127.349 225.078Z" fill="#8BC5E4"/>
<path fill-rule="evenodd" clip-rule="evenodd" d="M127.349 251.398L133.142 254.743L185.104 224.743L179.31 221.398L127.349 251.398Z" fill="#8BC5E4"/>
<path fill-rule="evenodd" clip-rule="evenodd" d="M133.143 254.743V204.633L185.104 174.633V224.743L133.143 254.743Z" fill="#8BC5E4"/>
<path fill-rule="evenodd" clip-rule="evenodd" d="M108.313 139.898L132.302 153.748L184.264 123.748L160.275 109.898L108.313 139.898Z" fill="#8BC5E4"/>
<path fill-rule="evenodd" clip-rule="evenodd" d="M132.303 153.748V147.098L184.264 117.098V123.748L132.303 153.748Z" fill="#8BC5E4"/>
<path fill-rule="evenodd" clip-rule="evenodd" d="M132.303 147.098L85.6934 120.188L137.655 90.1877L184.264 117.098L132.303 147.098Z" fill="#8BC5E4"/>
<path fill-rule="evenodd" clip-rule="evenodd" d="M85.6934 120.188L137.655 90.1877L85.6934 120.188Z" fill="#8BC5E4"/>
<path fill-rule="evenodd" clip-rule="evenodd" d="M37.8542 182.298L20.1699 188.178L72.1315 158.178L89.8157 152.298L37.8542 182.298Z" fill="#8BC5E4"/>
<path fill-rule="evenodd" clip-rule="evenodd" d="M20.1699 188.178L37.8542 214.468L89.8157 184.468L72.1315 158.178L20.1699 188.178Z" fill="#8BC5E4"/>
<path fill-rule="evenodd" clip-rule="evenodd" d="M37.8535 214.468V182.298L89.815 152.298V184.468L37.8535 214.468Z" fill="#8BC5E4"/>
<path fill-rule="evenodd" clip-rule="evenodd" d="M37.8535 182.298L89.815 152.298L37.8535 182.298Z" fill="#8BC5E4"/>
<path fill-rule="evenodd" clip-rule="evenodd" d="M116.255 247.443L130.25 275.843L182.211 245.843L168.216 217.443L116.255 247.443Z" fill="#8BC5E4"/>
<path fill-rule="evenodd" clip-rule="evenodd" d="M130.25 275.843L144.236 263.598L196.198 233.598L182.211 245.843L130.25 275.843Z" fill="#8BC5E4"/>
<path fill-rule="evenodd" clip-rule="evenodd" d="M144.236 263.598L116.255 247.443L168.216 217.443L196.198 233.598L144.236 263.598Z" fill="#8BC5E4"/>
<path fill-rule="evenodd" clip-rule="evenodd" d="M116.255 247.443L168.216 217.443L116.255 247.443Z" fill="#8BC5E4"/>
<path fill-rule="evenodd" clip-rule="evenodd" d="M10.626 36.9577L162.579 124.688L214.54 94.6877L62.5876 6.95771L10.626 36.9577Z" fill="#8BC5E4"/>
<path fill-rule="evenodd" clip-rule="evenodd" d="M168.407 134.763V310.323L220.369 280.323V104.763L168.407 134.763Z" fill="#8BC5E4"/>
<path fill-rule="evenodd" clip-rule="evenodd" d="M162.579 313.668L10.626 225.938L62.5876 195.938L214.54 283.668L162.579 313.668Z" fill="#8BC5E4"/>
<path fill-rule="evenodd" clip-rule="evenodd" d="M4.79785 215.863V40.3027L56.7593 10.3027V185.863L4.79785 215.863Z" fill="#8BC5E4"/>
<path fill-rule="evenodd" clip-rule="evenodd" d="M10.626 36.9577L62.5876 6.95771L10.626 36.9577Z" fill="#8BC5E4"/>
<path fill-rule="evenodd" clip-rule="evenodd" d="M27.3057 86.2377L41.3007 73.9977L93.2622 43.9977L79.2672 56.2377L27.3057 86.2377Z" fill="#8BC5E4"/>
<path fill-rule="evenodd" clip-rule="evenodd" d="M41.3008 73.9977L55.3044 102.403L107.266 72.4027L93.2623 43.9977L41.3008 73.9977Z" fill="#8BC5E4"/>
<path fill-rule="evenodd" clip-rule="evenodd" d="M55.3043 102.403L27.3057 86.2377L79.2672 56.2377L107.266 72.4027L55.3043 102.403Z" fill="#8BC5E4"/>
<path fill-rule="evenodd" clip-rule="evenodd" d="M27.3057 86.2377L79.2672 56.2377L27.3057 86.2377Z" fill="#8BC5E4"/>
<path fill-rule="evenodd" clip-rule="evenodd" d="M134.434 167.738V135.568L186.395 105.568V137.738L134.434 167.738Z" fill="#8BC5E4"/>
<path fill-rule="evenodd" clip-rule="evenodd" d="M134.434 135.568L152.118 161.868L204.079 131.868L186.395 105.568L134.434 135.568Z" fill="#8BC5E4"/>
<path fill-rule="evenodd" clip-rule="evenodd" d="M152.118 161.868L134.434 167.738L186.395 137.738L204.079 131.868L152.118 161.868Z" fill="#8BC5E4"/>
<path fill-rule="evenodd" clip-rule="evenodd" d="M134.434 167.738L186.395 137.738L134.434 167.738Z" fill="#8BC5E4"/>
<path fill-rule="evenodd" clip-rule="evenodd" d="M85.6934 120.238V120.188L137.655 90.1877V90.2377L85.6934 120.238Z" fill="#8BC5E4"/>
<path fill-rule="evenodd" clip-rule="evenodd" d="M85.6934 120.188L132.303 147.098L184.264 117.098L137.655 90.1877L85.6934 120.188Z" fill="#8BC5E4"/>
<path fill-rule="evenodd" clip-rule="evenodd" d="M132.303 147.098V153.748L184.264 123.748V117.098L132.303 147.098Z" fill="#8BC5E4"/>
<path fill-rule="evenodd" clip-rule="evenodd" d="M132.302 153.748L108.313 139.898L160.275 109.898L184.264 123.748L132.302 153.748Z" fill="#8BC5E4"/>
<path fill-rule="evenodd" clip-rule="evenodd" d="M133.143 204.633V254.743L185.104 224.743V174.633L133.143 204.633Z" fill="#8BC5E4"/>
<path fill-rule="evenodd" clip-rule="evenodd" d="M133.142 254.743L127.349 251.398L179.31 221.398L185.104 224.743L133.142 254.743Z" fill="#8BC5E4"/>
<path fill-rule="evenodd" clip-rule="evenodd" d="M127.349 251.398V225.078L179.31 195.078V221.398L127.349 251.398Z" fill="#8BC5E4"/>
<path fill-rule="evenodd" clip-rule="evenodd" d="M82.792 227.663L39.9844 202.948L91.9459 172.948L134.754 197.663L82.792 227.663Z" fill="#8BC5E4"/>
<path fill-rule="evenodd" clip-rule="evenodd" d="M39.9844 202.948V196.298L91.9459 166.298V172.948L39.9844 202.948Z" fill="#8BC5E4"/>
<path fill-rule="evenodd" clip-rule="evenodd" d="M39.9844 196.298L62.8128 209.478L114.774 179.478L91.9459 166.298L39.9844 196.298Z" fill="#8BC5E4"/>
<path fill-rule="evenodd" clip-rule="evenodd" d="M38.4082 142.068V95.0977L90.3697 65.0977V112.068L38.4082 142.068Z" fill="#8BC5E4"/>
<path fill-rule="evenodd" clip-rule="evenodd" d="M38.4082 95.0977L44.1933 98.4377L96.1548 68.4377L90.3697 65.0977L38.4082 95.0977Z" fill="#8BC5E4"/>
<path fill-rule="evenodd" clip-rule="evenodd" d="M44.1934 98.4377V124.298L96.1549 94.2977V68.4377L44.1934 98.4377Z" fill="#8BC5E4"/>
<path fill-rule="evenodd" clip-rule="evenodd" d="M85.6846 120.233L85.6932 120.238L137.655 90.2377L137.646 90.2327L85.6846 120.233Z" fill="#8BC5E4"/>
<path fill-rule="evenodd" clip-rule="evenodd" d="M85.6934 120.238L137.655 90.2377L85.6934 120.238Z" fill="#8BC5E4"/>
<path fill-rule="evenodd" clip-rule="evenodd" d="M20.1699 188.178L37.8542 182.298L89.8157 152.298L72.1315 158.178L20.1699 188.178Z" fill="#8BC5E4"/>
<path fill-rule="evenodd" clip-rule="evenodd" d="M37.8535 182.298V214.468L89.815 184.468V152.298L37.8535 182.298Z" fill="#8BC5E4"/>
<path fill-rule="evenodd" clip-rule="evenodd" d="M37.8542 214.468L20.1699 188.178L72.1315 158.178L89.8157 184.468L37.8542 214.468Z" fill="#8BC5E4"/>
<path fill-rule="evenodd" clip-rule="evenodd" d="M20.1699 188.178L72.1315 158.178L20.1699 188.178Z" fill="#8BC5E4"/>
<path fill-rule="evenodd" clip-rule="evenodd" d="M130.25 275.843L116.255 247.443L168.216 217.443L182.211 245.843L130.25 275.843Z" fill="#8BC5E4"/>
<path fill-rule="evenodd" clip-rule="evenodd" d="M116.255 247.443L144.236 263.598L196.198 233.598L168.216 217.443L116.255 247.443Z" fill="#8BC5E4"/>
<path fill-rule="evenodd" clip-rule="evenodd" d="M144.236 263.598L130.25 275.843L182.211 245.843L196.198 233.598L144.236 263.598Z" fill="#8BC5E4"/>
<path fill-rule="evenodd" clip-rule="evenodd" d="M130.25 275.843L182.211 245.843L130.25 275.843Z" fill="#8BC5E4"/>
<path fill-rule="evenodd" clip-rule="evenodd" d="M85.6846 127.323L137.646 97.3227L85.6846 127.323Z" fill="#8BC5E4"/>
<path fill-rule="evenodd" clip-rule="evenodd" d="M71.8457 175.613V148.003L123.807 118.003V145.613L71.8457 175.613Z" fill="#8BC5E4"/>
<path fill-rule="evenodd" clip-rule="evenodd" d="M71.8457 148.003L79.0943 152.188L131.056 122.188L123.807 118.003L71.8457 148.003Z" fill="#8BC5E4"/>
<path fill-rule="evenodd" clip-rule="evenodd" d="M79.0938 152.188V179.798L131.055 149.798V122.188L79.0938 152.188Z" fill="#8BC5E4"/>
<path fill-rule="evenodd" clip-rule="evenodd" d="M92.7861 187.703V160.093L144.748 130.093V157.703L92.7861 187.703Z" fill="#8BC5E4"/>
<path fill-rule="evenodd" clip-rule="evenodd" d="M92.7861 160.093L100.035 164.278L151.996 134.278L144.748 130.093L92.7861 160.093Z" fill="#8BC5E4"/>
<path fill-rule="evenodd" clip-rule="evenodd" d="M100.034 164.278V191.888L151.996 161.888V134.278L100.034 164.278Z" fill="#8BC5E4"/>
<path fill-rule="evenodd" clip-rule="evenodd" d="M71.8457 175.613L123.807 145.613L71.8457 175.613Z" fill="#8BC5E4"/>
<path fill-rule="evenodd" clip-rule="evenodd" d="M85.6846 127.323C108.548 140.523 127.02 172.418 127.02 198.698L178.981 168.698C178.981 142.418 160.509 110.523 137.646 97.3227L85.6846 127.323Z" fill="#8BC5E4"/>
<path fill-rule="evenodd" clip-rule="evenodd" d="M127.02 198.698C127.02 211.243 122.807 220.206 115.916 224.711L167.878 194.711C174.769 190.206 178.982 181.243 178.982 168.698L127.02 198.698Z" fill="#8BC5E4"/>
<path fill-rule="evenodd" clip-rule="evenodd" d="M115.918 224.709C108.38 229.638 97.6364 229.23 85.6934 222.338L137.655 192.338C149.598 199.23 160.342 199.638 167.88 194.709L115.918 224.709Z" fill="#8BC5E4"/>
<path fill-rule="evenodd" clip-rule="evenodd" d="M85.6849 222.333C62.8131 209.128 44.3408 177.233 44.3408 150.963L96.3023 120.963C96.3023 147.233 114.775 179.128 137.646 192.333L85.6849 222.333Z" fill="#8BC5E4"/>
<path fill-rule="evenodd" clip-rule="evenodd" d="M44.3408 150.963C44.3413 138.413 48.5533 129.447 55.4453 124.942L107.407 94.9417C100.515 99.4467 96.3028 108.413 96.3023 120.963L44.3408 150.963Z" fill="#8BC5E4"/>
<path fill-rule="evenodd" clip-rule="evenodd" d="M55.4434 124.944C62.9824 120.014 73.7284 120.423 85.6764 127.318L137.638 97.3177C125.69 90.4227 114.944 90.0137 107.405 94.9437L55.4434 124.944Z" fill="#8BC5E4"/>
<path fill-rule="evenodd" clip-rule="evenodd" d="M71.8457 175.613C71.8457 180.543 73.5084 185.743 76.1845 189.988L128.146 159.988C125.47 155.743 123.807 150.543 123.807 145.613L71.8457 175.613Z" fill="#8BC5E4"/>
<path fill-rule="evenodd" clip-rule="evenodd" d="M76.1846 189.988C78.8519 194.238 82.29 197.393 85.6762 199.348L137.638 169.348C134.252 167.393 130.813 164.238 128.146 159.988L76.1846 189.988Z" fill="#8BC5E4"/>
<path fill-rule="evenodd" clip-rule="evenodd" d="M85.6758 199.348C89.2352 201.403 92.7599 202.158 95.4965 201.038L147.458 171.038C144.721 172.158 141.197 171.403 137.637 169.348L85.6758 199.348Z" fill="#8BC5E4"/>
<path fill-rule="evenodd" clip-rule="evenodd" d="M95.4971 201.038C95.7645 200.929 96.0225 200.8 96.2715 200.651L148.233 170.651C147.984 170.8 147.726 170.929 147.459 171.038L95.4971 201.038Z" fill="#8BC5E4"/>
<path fill-rule="evenodd" clip-rule="evenodd" d="M96.2695 200.652C98.5665 199.282 100.033 196.268 100.035 191.895L151.996 161.895C151.994 166.268 150.528 169.282 148.231 170.652L96.2695 200.652Z" fill="#8BC5E4"/>
<path fill-rule="evenodd" clip-rule="evenodd" d="M92.7859 187.703C92.7859 190.075 92.1569 191.22 91.1309 191.794L143.092 161.794C144.118 161.22 144.747 160.075 144.747 157.703L92.7859 187.703Z" fill="#8BC5E4"/>
<path fill-rule="evenodd" clip-rule="evenodd" d="M91.1374 191.791C91.0214 191.856 90.9004 191.914 90.7754 191.965L142.737 161.965C142.862 161.914 142.983 161.856 143.099 161.791L91.1374 191.791Z" fill="#8BC5E4"/>
<path fill-rule="evenodd" clip-rule="evenodd" d="M90.768 191.968C89.5296 192.473 87.685 192.168 85.6758 191.008L137.637 161.008C139.646 162.168 141.491 162.473 142.729 161.968L90.768 191.968Z" fill="#8BC5E4"/>
<path fill-rule="evenodd" clip-rule="evenodd" d="M85.6761 191.008C83.7535 189.898 82.0821 188.273 80.9736 186.503L132.935 156.503C134.044 158.273 135.715 159.898 137.638 161.008L85.6761 191.008Z" fill="#8BC5E4"/>
<path fill-rule="evenodd" clip-rule="evenodd" d="M80.973 186.503C79.8645 184.753 79.0938 182.748 79.0938 179.798L131.055 149.798C131.055 152.748 131.826 154.753 132.935 156.503L80.973 186.503Z" fill="#8BC5E4"/>
<path fill-rule="evenodd" clip-rule="evenodd" d="M10.6266 31.4477C7.56647 29.6807 4.79847 29.5867 2.85547 30.8637L54.817 0.86371C56.76 -0.41329 59.528 -0.31929 62.5882 1.44771L10.6266 31.4477Z" fill="#8BC5E4"/>
<path fill-rule="evenodd" clip-rule="evenodd" d="M2.858 30.8617C1.089 32.0227 0.002 34.3187 0 37.5227L51.9615 7.52271C51.9635 4.31871 53.0505 2.02271 54.8195 0.86171L2.858 30.8617Z" fill="#8BC5E4"/>
<path fill-rule="evenodd" clip-rule="evenodd" d="M0 213.093C0 219.823 4.7805 228.073 10.6261 231.448L62.5877 201.448C56.742 198.073 51.9615 189.823 51.9615 183.093L0 213.093Z" fill="#8BC5E4"/>
<path fill-rule="evenodd" clip-rule="evenodd" d="M162.579 319.178C165.639 320.945 168.407 321.039 170.35 319.762L222.312 289.762C220.369 291.039 217.601 290.945 214.541 289.178L162.579 319.178Z" fill="#8BC5E4"/>
<path fill-rule="evenodd" clip-rule="evenodd" d="M170.347 319.764C172.116 318.603 173.203 316.307 173.205 313.103L225.166 283.103C225.164 286.307 224.077 288.603 222.308 289.764L170.347 319.764Z" fill="#8BC5E4"/>
<path fill-rule="evenodd" clip-rule="evenodd" d="M173.205 137.533C173.205 130.803 168.425 122.553 162.579 119.178L214.541 89.1777C220.386 92.5527 225.167 100.803 225.167 107.533L173.205 137.533Z" fill="#8BC5E4"/>
<path fill-rule="evenodd" clip-rule="evenodd" d="M162.579 124.688C165.853 126.578 168.408 130.993 168.408 134.763L220.369 104.763C220.369 100.993 217.814 96.5777 214.541 94.6877L162.579 124.688Z" fill="#8BC5E4"/>
<path fill-rule="evenodd" clip-rule="evenodd" d="M168.408 310.323C168.407 312.12 167.827 313.393 166.865 314.029L218.827 284.029C219.789 283.393 220.369 282.12 220.369 280.323L168.408 310.323Z" fill="#8BC5E4"/>
<path fill-rule="evenodd" clip-rule="evenodd" d="M166.867 314.028C165.811 314.727 164.296 314.658 162.584 313.671L214.545 283.671C216.257 284.658 217.772 284.727 218.828 284.028L166.867 314.028Z" fill="#8BC5E4"/>
<path fill-rule="evenodd" clip-rule="evenodd" d="M10.6262 225.938C7.35265 224.048 4.79785 219.633 4.79785 215.863L56.7593 185.863C56.7593 189.633 59.3142 194.048 62.5878 195.938L10.6262 225.938Z" fill="#8BC5E4"/>
<path fill-rule="evenodd" clip-rule="evenodd" d="M4.79785 40.3027C4.79805 38.5057 5.37805 37.2327 6.34005 36.5967L58.3016 6.59671C57.3396 7.23271 56.7595 8.50571 56.7593 10.3027L4.79785 40.3027Z" fill="#8BC5E4"/>
<path fill-rule="evenodd" clip-rule="evenodd" d="M6.33789 36.5977C7.39389 35.8987 8.90889 35.9677 10.6209 36.9547L62.5824 6.95471C60.8704 5.96771 59.3554 5.89871 58.2994 6.59771L6.33789 36.5977Z" fill="#8BC5E4"/>
<path fill-rule="evenodd" clip-rule="evenodd" d="M85.6932 120.238C85.6846 120.233 85.6846 120.233 85.6846 120.233L137.646 90.2327C137.646 90.2327 137.646 90.2327 137.655 90.2377L85.6932 120.238Z" fill="#8BC5E4"/>
<path fill-rule="evenodd" clip-rule="evenodd" d="M85.6843 120.233C74.2717 113.644 63.7907 112.235 55.5938 115.231L107.555 85.2307C115.752 82.2347 126.233 83.6437 137.646 90.2327L85.6843 120.233Z" fill="#8BC5E4"/>
<path fill-rule="evenodd" clip-rule="evenodd" d="M55.6014 115.229C54.4304 115.656 53.3064 116.174 52.2324 116.779L104.194 86.7787C105.268 86.1737 106.392 85.6557 107.563 85.2287L55.6014 115.229Z" fill="#8BC5E4"/>
<path fill-rule="evenodd" clip-rule="evenodd" d="M52.2353 116.777C49.0893 118.55 46.3763 121.074 44.1963 124.294L96.1578 94.2937C98.3378 91.0737 101.051 88.5497 104.197 86.7767L52.2353 116.777Z" fill="#8BC5E4"/>
<path fill-rule="evenodd" clip-rule="evenodd" d="M38.4086 142.068C38.2527 143.778 38.1748 145.553 38.1748 147.403L90.1363 117.403C90.1363 115.553 90.2143 113.778 90.3701 112.068L38.4086 142.068Z" fill="#8BC5E4"/>
<path fill-rule="evenodd" clip-rule="evenodd" d="M38.1748 147.403C38.1748 167.993 48.1341 191.703 62.8132 209.478L114.775 179.478C100.096 161.703 90.1363 137.993 90.1363 117.403L38.1748 147.403Z" fill="#8BC5E4"/>
<path fill-rule="evenodd" clip-rule="evenodd" d="M82.792 227.663C83.7447 228.273 84.7146 228.873 85.6846 229.433L137.646 199.433C136.676 198.873 135.706 198.273 134.754 197.663L82.792 227.663Z" fill="#8BC5E4"/>
<path fill-rule="evenodd" clip-rule="evenodd" d="M85.6846 229.433C98.827 237.021 110.734 237.726 119.34 232.749L171.301 202.749C162.695 207.726 150.788 207.021 137.646 199.433L85.6846 229.433Z" fill="#8BC5E4"/>
<path fill-rule="evenodd" clip-rule="evenodd" d="M119.34 232.749C120.413 232.128 121.434 231.42 122.4 230.625L174.361 200.625C173.395 201.42 172.374 202.128 171.301 202.749L119.34 232.749Z" fill="#8BC5E4"/>
<path fill-rule="evenodd" clip-rule="evenodd" d="M122.397 230.628C124.262 229.094 125.922 227.24 127.346 225.082L179.308 195.082C177.884 197.24 176.224 199.094 174.359 200.628L122.397 230.628Z" fill="#8BC5E4"/>
<path fill-rule="evenodd" clip-rule="evenodd" d="M133.143 204.633C133.168 203.848 133.186 203.058 133.186 202.258L185.147 172.258C185.147 173.058 185.13 173.848 185.104 174.633L133.143 204.633Z" fill="#8BC5E4"/>
<path fill-rule="evenodd" clip-rule="evenodd" d="M133.186 202.258C133.186 181.558 123.114 157.703 108.313 139.898L160.275 109.898C175.075 127.703 185.147 151.558 185.147 172.258L133.186 202.258Z" fill="#8BC5E4"/>
<path fill-rule="evenodd" clip-rule="evenodd" d="M162.579 124.688C165.853 126.578 168.408 130.993 168.408 134.763L220.369 104.763C220.369 100.993 217.814 96.5777 214.541 94.6877L162.579 124.688Z" fill="#8BC5E4"/>
<path fill-rule="evenodd" clip-rule="evenodd" d="M168.408 310.323C168.407 312.12 167.827 313.393 166.865 314.029L218.827 284.029C219.789 283.393 220.369 282.12 220.369 280.323L168.408 310.323Z" fill="#8BC5E4"/>
<path fill-rule="evenodd" clip-rule="evenodd" d="M166.867 314.028C165.811 314.727 164.296 314.658 162.584 313.671L214.545 283.671C216.257 284.658 217.772 284.727 218.828 284.028L166.867 314.028Z" fill="#8BC5E4"/>
<path fill-rule="evenodd" clip-rule="evenodd" d="M10.6262 225.938C7.35265 224.048 4.79785 219.633 4.79785 215.863L56.7593 185.863C56.7593 189.633 59.3142 194.048 62.5878 195.938L10.6262 225.938Z" fill="#8BC5E4"/>
<path fill-rule="evenodd" clip-rule="evenodd" d="M4.79785 40.3027C4.79805 38.5057 5.37805 37.2327 6.34005 36.5967L58.3016 6.59671C57.3396 7.23271 56.7595 8.50571 56.7593 10.3027L4.79785 40.3027Z" fill="#8BC5E4"/>
<path fill-rule="evenodd" clip-rule="evenodd" d="M6.33789 36.5977C7.39389 35.8987 8.90889 35.9677 10.6209 36.9547L62.5824 6.95471C60.8704 5.96771 59.3554 5.89871 58.2994 6.59771L6.33789 36.5977Z" fill="#8BC5E4"/>
<path fill-rule="evenodd" clip-rule="evenodd" d="M108.313 139.898C123.114 157.703 133.186 181.558 133.186 202.258L185.147 172.258C185.147 151.558 175.075 127.703 160.275 109.898L108.313 139.898Z" fill="#8BC5E4"/>
<path fill-rule="evenodd" clip-rule="evenodd" d="M133.186 202.258C133.186 203.058 133.168 203.848 133.143 204.633L185.104 174.633C185.13 173.848 185.147 173.058 185.147 172.258L133.186 202.258Z" fill="#8BC5E4"/>
<path fill-rule="evenodd" clip-rule="evenodd" d="M127.349 225.078C125.925 227.236 124.266 229.091 122.4 230.625L174.362 200.625C176.228 199.091 177.887 197.236 179.311 195.078L127.349 225.078Z" fill="#8BC5E4"/>
<path fill-rule="evenodd" clip-rule="evenodd" d="M122.405 230.621C121.438 231.418 120.415 232.128 119.34 232.749L171.301 202.749C172.376 202.128 173.399 201.418 174.366 200.621L122.405 230.621Z" fill="#8BC5E4"/>
<path fill-rule="evenodd" clip-rule="evenodd" d="M119.341 232.749C110.736 237.726 98.8314 237.021 85.6914 229.437L137.653 199.437C150.793 207.021 162.698 207.726 171.303 202.749L119.341 232.749Z" fill="#8BC5E4"/>
<path fill-rule="evenodd" clip-rule="evenodd" d="M85.6846 229.433C84.7146 228.873 83.7447 228.273 82.792 227.663L134.754 197.663C135.706 198.273 136.676 198.873 137.646 199.433L85.6846 229.433Z" fill="#8BC5E4"/>
<path fill-rule="evenodd" clip-rule="evenodd" d="M62.8132 209.478C48.1341 191.703 38.1748 167.993 38.1748 147.403L90.1363 117.403C90.1363 137.993 100.096 161.703 114.775 179.478L62.8132 209.478Z" fill="#8BC5E4"/>
<path fill-rule="evenodd" clip-rule="evenodd" d="M38.1748 147.403C38.1748 145.553 38.2527 143.778 38.4086 142.068L90.3701 112.068C90.2143 113.778 90.1363 115.553 90.1363 117.403L38.1748 147.403Z" fill="#8BC5E4"/>
<path fill-rule="evenodd" clip-rule="evenodd" d="M44.1934 124.298C46.3731 121.077 49.0861 118.552 52.2321 116.779L104.194 86.7787C101.048 88.5517 98.3346 91.0767 96.1549 94.2977L44.1934 124.298Z" fill="#8BC5E4"/>
<path fill-rule="evenodd" clip-rule="evenodd" d="M52.2344 116.777C53.3054 116.174 54.4274 115.658 55.5944 115.231L107.556 85.2307C106.389 85.6577 105.267 86.1737 104.196 86.7767L52.2344 116.777Z" fill="#8BC5E4"/>
<path fill-rule="evenodd" clip-rule="evenodd" d="M55.5918 115.232C63.7878 112.235 74.2678 113.643 85.6778 120.229L137.639 90.2287C126.229 83.6427 115.749 82.2347 107.553 85.2317L55.5918 115.232Z" fill="#8BC5E4"/>
<path fill-rule="evenodd" clip-rule="evenodd" d="M85.6846 127.323C108.548 140.523 127.02 172.418 127.02 198.698L178.981 168.698C178.981 142.418 160.509 110.523 137.646 97.3227L85.6846 127.323Z" fill="#8BC5E4"/>
<path fill-rule="evenodd" clip-rule="evenodd" d="M127.02 198.698C127.02 211.243 122.807 220.206 115.916 224.711L167.878 194.711C174.769 190.206 178.982 181.243 178.982 168.698L127.02 198.698Z" fill="#8BC5E4"/>
<path fill-rule="evenodd" clip-rule="evenodd" d="M115.918 224.709C108.38 229.638 97.6364 229.23 85.6934 222.338L137.655 192.338C149.598 199.23 160.342 199.638 167.88 194.709L115.918 224.709Z" fill="#8BC5E4"/>
<path fill-rule="evenodd" clip-rule="evenodd" d="M85.6849 222.333C62.8131 209.128 44.3408 177.233 44.3408 150.963L96.3023 120.963C96.3023 147.233 114.775 179.128 137.646 192.333L85.6849 222.333Z" fill="#8BC5E4"/>
<path fill-rule="evenodd" clip-rule="evenodd" d="M44.3408 150.963C44.3413 138.413 48.5533 129.447 55.4453 124.942L107.407 94.9417C100.515 99.4467 96.3028 108.413 96.3023 120.963L44.3408 150.963Z" fill="#8BC5E4"/>
<path fill-rule="evenodd" clip-rule="evenodd" d="M55.4434 124.944C62.9824 120.014 73.7284 120.423 85.6764 127.318L137.638 97.3177C125.69 90.4227 114.944 90.0137 107.405 94.9437L55.4434 124.944Z" fill="#8BC5E4"/>
<path fill-rule="evenodd" clip-rule="evenodd" d="M79.0938 179.798C79.0938 182.748 79.8645 184.753 80.973 186.503L132.935 156.503C131.826 154.753 131.055 152.748 131.055 149.798L79.0938 179.798Z" fill="#8BC5E4"/>
<path fill-rule="evenodd" clip-rule="evenodd" d="M80.9736 186.503C82.0821 188.273 83.7535 189.898 85.6761 191.008L137.638 161.008C135.715 159.898 134.044 158.273 132.935 156.503L80.9736 186.503Z" fill="#8BC5E4"/>
<path fill-rule="evenodd" clip-rule="evenodd" d="M85.6758 191.008C87.685 192.168 89.5296 192.473 90.768 191.968L142.729 161.968C141.491 162.473 139.646 162.168 137.637 161.008L85.6758 191.008Z" fill="#8BC5E4"/>
<path fill-rule="evenodd" clip-rule="evenodd" d="M90.7686 191.968C90.8945 191.917 91.0155 191.859 91.1315 191.794L143.093 161.794C142.977 161.859 142.856 161.917 142.73 161.968L90.7686 191.968Z" fill="#8BC5E4"/>
<path fill-rule="evenodd" clip-rule="evenodd" d="M91.1299 191.794C92.1549 191.22 92.7839 190.077 92.7859 187.711L144.747 157.711C144.745 160.077 144.116 161.22 143.091 161.794L91.1299 191.794Z" fill="#8BC5E4"/>
<path fill-rule="evenodd" clip-rule="evenodd" d="M100.035 191.888C100.035 196.264 98.5685 199.281 96.2715 200.651L148.233 170.651C150.53 169.281 151.997 166.264 151.997 161.888L100.035 191.888Z" fill="#8BC5E4"/>
<path fill-rule="evenodd" clip-rule="evenodd" d="M96.2779 200.648C96.0299 200.796 95.7719 200.925 95.5049 201.035L147.466 171.035C147.733 170.925 147.991 170.796 148.239 170.648L96.2779 200.648Z" fill="#8BC5E4"/>
<path fill-rule="evenodd" clip-rule="evenodd" d="M95.4965 201.038C92.7599 202.158 89.2352 201.403 85.6758 199.348L137.637 169.348C141.197 171.403 144.721 172.158 147.458 171.038L95.4965 201.038Z" fill="#8BC5E4"/>
<path fill-rule="evenodd" clip-rule="evenodd" d="M85.6762 199.348C82.29 197.393 78.8519 194.238 76.1846 189.988L128.146 159.988C130.813 164.238 134.252 167.393 137.638 169.348L85.6762 199.348Z" fill="#8BC5E4"/>
<path fill-rule="evenodd" clip-rule="evenodd" d="M76.1845 189.988C73.5084 185.743 71.8457 180.543 71.8457 175.613L123.807 145.613C123.807 150.543 125.47 155.743 128.146 159.988L76.1845 189.988Z" fill="#8BC5E4"/>
<path fill-rule="evenodd" clip-rule="evenodd" d="M27.3058 86.2377L41.3008 73.9977L55.3044 102.403L27.3058 86.2377ZM85.6932 120.188V120.238L85.6846 120.233C67.8704 109.948 52.3253 112.283 44.1933 124.298V98.4377L38.4082 95.0977V142.068C38.2523 143.778 38.1744 145.553 38.1744 147.403C38.1744 167.993 48.1337 191.703 62.8128 209.478L39.9844 196.298V202.948L82.792 227.663C83.7447 228.273 84.7146 228.873 85.6846 229.433C103.629 239.793 119.269 237.323 127.349 225.078V251.398L133.143 254.743V204.633C133.169 203.848 133.186 203.058 133.186 202.258C133.186 181.558 123.114 157.703 108.314 139.898L132.303 153.748V147.098L85.6932 120.188ZM127.02 198.698C127.02 172.418 108.548 140.523 85.6846 127.323C62.8128 114.118 44.3405 124.683 44.3405 150.963C44.3405 177.233 62.8128 209.128 85.6846 222.333C108.548 235.533 127.02 224.968 127.02 198.698ZM10.6261 36.9577L162.579 124.688C165.853 126.578 168.407 130.993 168.407 134.763V310.323C168.407 314.093 165.853 315.558 162.579 313.668L10.6261 225.938C7.35256 224.048 4.79778 219.633 4.79778 215.863V40.3027C4.79778 36.5327 7.35256 35.0677 10.6261 36.9577ZM37.854 182.298L20.1697 188.178L37.854 214.468V182.298ZM71.8455 175.613V148.003L79.0941 152.188V179.798C79.0941 182.748 79.8649 184.753 80.9734 186.503C82.0819 188.273 83.7533 189.898 85.6759 191.008C87.6851 192.168 89.5297 192.473 90.7681 191.968C92.0065 191.463 92.786 190.343 92.786 187.703V160.093L100.035 164.278V191.888C100.035 196.738 98.2333 199.918 95.4966 201.038C92.76 202.158 89.2353 201.403 85.6759 199.348C82.2897 197.393 78.8516 194.238 76.1843 189.988C73.5082 185.743 71.8455 180.543 71.8455 175.613ZM116.255 247.443L130.25 275.843L144.237 263.598L116.255 247.443ZM134.433 167.738V135.568L152.117 161.868L134.433 167.738Z" fill="white"/>
</svg>
