<svg width="274" height="349" viewBox="0 0 274 349" fill="none" xmlns="http://www.w3.org/2000/svg">
<path fill-rule="evenodd" clip-rule="evenodd" d="M62.4703 152.825L263.232 36.915L211.271 6.91498L10.5088 122.825L62.4703 152.825Z" fill="#8BC5E4"/>
<path fill-rule="evenodd" clip-rule="evenodd" d="M268.965 40.315V215.875L217.004 185.875V10.315L268.965 40.315Z" fill="#8BC5E4"/>
<path fill-rule="evenodd" clip-rule="evenodd" d="M263.232 225.895L62.4703 341.805L10.5088 311.805L211.271 195.895L263.232 225.895Z" fill="#8BC5E4"/>
<path fill-rule="evenodd" clip-rule="evenodd" d="M56.7286 338.41V162.85L4.76709 132.85V308.41L56.7286 338.41Z" fill="#8BC5E4"/>
<path fill-rule="evenodd" clip-rule="evenodd" d="M62.4703 152.825L10.5088 122.825L62.4703 152.825Z" fill="#8BC5E4"/>
<path fill-rule="evenodd" clip-rule="evenodd" d="M52.0001 165.58V341.14L0.0385742 311.14V135.58L52.0001 165.58Z" fill="#8BC5E4"/>
<path fill-rule="evenodd" clip-rule="evenodd" d="M62.4703 347.315L263.232 231.405L211.271 201.405L10.5088 317.315L62.4703 347.315Z" fill="#8BC5E4"/>
<path fill-rule="evenodd" clip-rule="evenodd" d="M273.703 213.14V37.58L221.741 7.57996V183.14L273.703 213.14Z" fill="#8BC5E4"/>
<path fill-rule="evenodd" clip-rule="evenodd" d="M263.232 31.405L62.4703 147.315L10.5088 117.315L211.271 1.40497L263.232 31.405Z" fill="#8BC5E4"/>
<path fill-rule="evenodd" clip-rule="evenodd" d="M62.4703 147.315L10.5088 117.315L62.4703 147.315Z" fill="#8BC5E4"/>
<path fill-rule="evenodd" clip-rule="evenodd" d="M170.394 115.185L118.433 85.185L170.394 115.185Z" fill="#8BC5E4"/>
<path fill-rule="evenodd" clip-rule="evenodd" d="M100.082 180.91L225.621 108.43L173.659 78.43L48.1201 150.91L100.082 180.91Z" fill="#8BC5E4"/>
<path fill-rule="evenodd" clip-rule="evenodd" d="M238.628 116.12V200.18L186.667 170.18V86.12L238.628 116.12Z" fill="#8BC5E4"/>
<path fill-rule="evenodd" clip-rule="evenodd" d="M225.621 222.88L100.082 295.36L48.1201 265.36L173.659 192.88L225.621 222.88Z" fill="#8BC5E4"/>
<path fill-rule="evenodd" clip-rule="evenodd" d="M87.0656 287.685V203.625L35.104 173.625V257.685L87.0656 287.685Z" fill="#8BC5E4"/>
<path fill-rule="evenodd" clip-rule="evenodd" d="M100.082 180.91L48.1201 150.91L100.082 180.91Z" fill="#8BC5E4"/>
<path fill-rule="evenodd" clip-rule="evenodd" d="M62.4703 152.825L263.232 36.915L211.271 6.91498L10.5088 122.825L62.4703 152.825Z" fill="#8BC5E4"/>
<path fill-rule="evenodd" clip-rule="evenodd" d="M268.965 40.315V215.875L217.004 185.875V10.315L268.965 40.315Z" fill="#8BC5E4"/>
<path fill-rule="evenodd" clip-rule="evenodd" d="M263.232 225.895L62.4703 341.805L10.5088 311.805L211.271 195.895L263.232 225.895Z" fill="#8BC5E4"/>
<path fill-rule="evenodd" clip-rule="evenodd" d="M56.7286 338.41V162.85L4.76709 132.85V308.41L56.7286 338.41Z" fill="#8BC5E4"/>
<path fill-rule="evenodd" clip-rule="evenodd" d="M62.4703 152.825L10.5088 122.825L62.4703 152.825Z" fill="#8BC5E4"/>
<path fill-rule="evenodd" clip-rule="evenodd" d="M162.842 128.355L110.881 98.355L162.842 128.355Z" fill="#8BC5E4"/>
<path fill-rule="evenodd" clip-rule="evenodd" d="M225.621 108.43L100.082 180.91L48.1201 150.91L173.659 78.43L225.621 108.43Z" fill="#8BC5E4"/>
<path fill-rule="evenodd" clip-rule="evenodd" d="M87.0656 203.625V287.685L35.104 257.685V173.625L87.0656 203.625Z" fill="#8BC5E4"/>
<path fill-rule="evenodd" clip-rule="evenodd" d="M100.082 295.36L225.621 222.88L173.659 192.88L48.1201 265.36L100.082 295.36Z" fill="#8BC5E4"/>
<path fill-rule="evenodd" clip-rule="evenodd" d="M238.628 200.18V116.12L186.667 86.12V170.18L238.628 200.18Z" fill="#8BC5E4"/>
<path fill-rule="evenodd" clip-rule="evenodd" d="M225.621 108.43L173.659 78.43L225.621 108.43Z" fill="#8BC5E4"/>
<path fill-rule="evenodd" clip-rule="evenodd" d="M163.12 166.665L111.158 136.665L163.12 166.665Z" fill="#8BC5E4"/>
<path fill-rule="evenodd" clip-rule="evenodd" d="M135.329 236.51L116.086 270.74L64.1245 240.74L83.3675 206.51L135.329 236.51Z" fill="#8BC5E4"/>
<path fill-rule="evenodd" clip-rule="evenodd" d="M116.086 270.74L126.34 276.44L74.3782 246.44L64.1245 240.74L116.086 270.74Z" fill="#8BC5E4"/>
<path fill-rule="evenodd" clip-rule="evenodd" d="M126.339 276.44L146.119 241.26L94.1579 211.26L74.3779 246.44L126.339 276.44Z" fill="#8BC5E4"/>
<path fill-rule="evenodd" clip-rule="evenodd" d="M163.12 155.205L111.158 125.205L163.12 155.205Z" fill="#8BC5E4"/>
<path fill-rule="evenodd" clip-rule="evenodd" d="M263.232 36.915C264.776 36.024 266.16 35.903 267.181 36.437L215.219 6.43697C214.198 5.90297 212.814 6.02397 211.271 6.91497L263.232 36.915Z" fill="#8BC5E4"/>
<path fill-rule="evenodd" clip-rule="evenodd" d="M267.18 36.437C268.284 37.013 268.964 38.353 268.965 40.309L217.004 10.309C217.003 8.35301 216.323 7.01301 215.219 6.43701L267.18 36.437Z" fill="#8BC5E4"/>
<path fill-rule="evenodd" clip-rule="evenodd" d="M268.965 215.875C268.965 219.645 266.445 224.04 263.232 225.895L211.271 195.895C214.484 194.04 217.004 189.645 217.004 185.875L268.965 215.875Z" fill="#8BC5E4"/>
<path fill-rule="evenodd" clip-rule="evenodd" d="M62.4704 341.805C60.9222 342.699 59.5362 342.82 58.5142 342.287L6.55273 312.287C7.57473 312.82 8.96073 312.699 10.5089 311.805L62.4704 341.805Z" fill="#8BC5E4"/>
<path fill-rule="evenodd" clip-rule="evenodd" d="M58.5161 342.288C57.4101 341.712 56.7301 340.372 56.7291 338.416L4.76758 308.416C4.76858 310.372 5.44858 311.712 6.55458 312.288L58.5161 342.288Z" fill="#8BC5E4"/>
<path fill-rule="evenodd" clip-rule="evenodd" d="M56.7286 162.85C56.7286 159.08 59.2487 154.685 62.4703 152.825L10.5088 122.825C7.28719 124.685 4.76709 129.08 4.76709 132.85L56.7286 162.85Z" fill="#8BC5E4"/>
<path fill-rule="evenodd" clip-rule="evenodd" d="M62.4703 147.315C56.7113 150.64 52.0001 158.85 52.0001 165.58L0.0385742 135.58C0.0385742 128.85 4.74977 120.64 10.5088 117.315L62.4703 147.315Z" fill="#8BC5E4"/>
<path fill-rule="evenodd" clip-rule="evenodd" d="M52.0001 341.14C52.0001 344.643 53.2761 347.073 55.3131 348.129L3.35157 318.129C1.31457 317.073 0.0385742 314.643 0.0385742 311.14L52.0001 341.14Z" fill="#8BC5E4"/>
<path fill-rule="evenodd" clip-rule="evenodd" d="M55.3209 348.134C57.1939 349.101 59.7079 348.907 62.4619 347.32L10.5004 317.32C7.74638 318.907 5.23238 319.101 3.35938 318.134L55.3209 348.134Z" fill="#8BC5E4"/>
<path fill-rule="evenodd" clip-rule="evenodd" d="M263.232 231.405C268.983 228.085 273.702 219.87 273.702 213.14L221.741 183.14C221.741 189.87 217.021 198.085 211.271 201.405L263.232 231.405Z" fill="#8BC5E4"/>
<path fill-rule="evenodd" clip-rule="evenodd" d="M273.702 37.58C273.703 34.077 272.424 31.648 270.387 30.593L218.425 0.593018C220.462 1.64802 221.741 4.07702 221.741 7.58002L273.702 37.58Z" fill="#8BC5E4"/>
<path fill-rule="evenodd" clip-rule="evenodd" d="M270.378 30.588C268.504 29.622 265.991 29.815 263.241 31.4L211.279 1.39997C214.029 -0.185031 216.542 -0.378031 218.416 0.587969L270.378 30.588Z" fill="#8BC5E4"/>
<path fill-rule="evenodd" clip-rule="evenodd" d="M170.394 115.185C170.394 120.055 167.017 125.945 162.842 128.355L110.881 98.355C115.055 95.945 118.433 90.055 118.433 85.185L170.394 115.185Z" fill="#8BC5E4"/>
<path fill-rule="evenodd" clip-rule="evenodd" d="M162.843 128.355C160.841 129.511 159.022 129.651 157.671 128.946L105.709 98.946C107.06 99.651 108.879 99.511 110.881 98.355L162.843 128.355Z" fill="#8BC5E4"/>
<path fill-rule="evenodd" clip-rule="evenodd" d="M157.673 128.947C156.214 128.185 155.302 126.435 155.3 123.907L103.338 93.907C103.34 96.435 104.252 98.185 105.711 98.947L157.673 128.947Z" fill="#8BC5E4"/>
<path fill-rule="evenodd" clip-rule="evenodd" d="M155.299 123.9C155.299 119.04 158.677 113.15 162.842 110.745L110.881 80.745C106.715 83.15 103.338 89.04 103.338 93.9L155.299 123.9Z" fill="#8BC5E4"/>
<path fill-rule="evenodd" clip-rule="evenodd" d="M162.842 110.745C164.84 109.592 166.655 109.446 168.005 110.14L116.043 80.14C114.693 79.446 112.878 79.592 110.881 80.745L162.842 110.745Z" fill="#8BC5E4"/>
<path fill-rule="evenodd" clip-rule="evenodd" d="M168.003 110.139C169.474 110.894 170.392 112.646 170.394 115.178L118.433 85.178C118.431 82.646 117.513 80.894 116.042 80.139L168.003 110.139Z" fill="#8BC5E4"/>
<path fill-rule="evenodd" clip-rule="evenodd" d="M225.621 108.43C229.076 106.435 232.208 106.186 234.533 107.394L182.571 77.394C180.246 76.186 177.114 76.435 173.659 78.43L225.621 108.43Z" fill="#8BC5E4"/>
<path fill-rule="evenodd" clip-rule="evenodd" d="M234.531 107.393C237.055 108.704 238.627 111.733 238.628 116.114L186.666 86.114C186.665 81.733 185.093 78.704 182.569 77.393L234.531 107.393Z" fill="#8BC5E4"/>
<path fill-rule="evenodd" clip-rule="evenodd" d="M238.628 200.18C238.628 208.59 232.826 218.72 225.621 222.88L173.659 192.88C180.865 188.72 186.667 178.59 186.667 170.18L238.628 200.18Z" fill="#8BC5E4"/>
<path fill-rule="evenodd" clip-rule="evenodd" d="M100.082 295.36C96.6299 297.353 93.5009 297.607 91.1759 296.408L39.2144 266.408C41.5394 267.607 44.6684 267.353 48.1201 265.36L100.082 295.36Z" fill="#8BC5E4"/>
<path fill-rule="evenodd" clip-rule="evenodd" d="M91.178 296.409C88.645 295.104 87.067 292.075 87.065 287.691L35.1035 257.691C35.1055 262.075 36.6835 265.104 39.2165 266.409L91.178 296.409Z" fill="#8BC5E4"/>
<path fill-rule="evenodd" clip-rule="evenodd" d="M87.0656 203.625C87.0656 195.205 92.8679 185.075 100.082 180.91L48.1204 150.91C40.9064 155.075 35.104 165.205 35.104 173.625L87.0656 203.625Z" fill="#8BC5E4"/>
<path fill-rule="evenodd" clip-rule="evenodd" d="M263.232 36.915C264.776 36.024 266.16 35.903 267.181 36.437L215.219 6.43697C214.198 5.90297 212.814 6.02397 211.271 6.91497L263.232 36.915Z" fill="#8BC5E4"/>
<path fill-rule="evenodd" clip-rule="evenodd" d="M267.18 36.437C268.284 37.013 268.964 38.353 268.965 40.309L217.004 10.309C217.003 8.35301 216.323 7.01301 215.219 6.43701L267.18 36.437Z" fill="#8BC5E4"/>
<path fill-rule="evenodd" clip-rule="evenodd" d="M268.965 215.875C268.965 219.645 266.445 224.04 263.232 225.895L211.271 195.895C214.484 194.04 217.004 189.645 217.004 185.875L268.965 215.875Z" fill="#8BC5E4"/>
<path fill-rule="evenodd" clip-rule="evenodd" d="M62.4704 341.805C60.9222 342.699 59.5362 342.82 58.5142 342.287L6.55273 312.287C7.57473 312.82 8.96073 312.699 10.5089 311.805L62.4704 341.805Z" fill="#8BC5E4"/>
<path fill-rule="evenodd" clip-rule="evenodd" d="M58.5161 342.288C57.4101 341.712 56.7301 340.372 56.7291 338.416L4.76758 308.416C4.76858 310.372 5.44858 311.712 6.55458 312.288L58.5161 342.288Z" fill="#8BC5E4"/>
<path fill-rule="evenodd" clip-rule="evenodd" d="M56.7286 162.85C56.7286 159.08 59.2487 154.685 62.4703 152.825L10.5088 122.825C7.28719 124.685 4.76709 129.08 4.76709 132.85L56.7286 162.85Z" fill="#8BC5E4"/>
<path fill-rule="evenodd" clip-rule="evenodd" d="M162.842 128.355C167.017 125.945 170.394 120.055 170.394 115.185L118.433 85.185C118.433 90.055 115.055 95.945 110.881 98.355L162.842 128.355Z" fill="#8BC5E4"/>
<path fill-rule="evenodd" clip-rule="evenodd" d="M170.394 115.185C170.394 112.651 169.476 110.897 168.005 110.14L116.043 80.14C117.514 80.897 118.432 82.651 118.433 85.185L170.394 115.185Z" fill="#8BC5E4"/>
<path fill-rule="evenodd" clip-rule="evenodd" d="M168.007 110.141C166.658 109.446 164.845 109.591 162.849 110.741L110.888 80.741C112.884 79.591 114.697 79.446 116.046 80.141L168.007 110.141Z" fill="#8BC5E4"/>
<path fill-rule="evenodd" clip-rule="evenodd" d="M162.842 110.745C158.677 113.15 155.299 119.04 155.299 123.9L103.338 93.9C103.338 89.04 106.715 83.15 110.881 80.745L162.842 110.745Z" fill="#8BC5E4"/>
<path fill-rule="evenodd" clip-rule="evenodd" d="M155.299 123.9C155.3 126.43 156.211 128.183 157.671 128.946L105.709 98.946C104.249 98.183 103.338 96.43 103.338 93.9L155.299 123.9Z" fill="#8BC5E4"/>
<path fill-rule="evenodd" clip-rule="evenodd" d="M157.686 128.953C159.033 129.65 160.844 129.507 162.836 128.359L110.875 98.359C108.883 99.507 107.072 99.65 105.725 98.953L157.686 128.953Z" fill="#8BC5E4"/>
<path fill-rule="evenodd" clip-rule="evenodd" d="M100.082 180.91C92.8679 185.075 87.0656 195.205 87.0656 203.625L35.104 173.625C35.104 165.205 40.9064 155.075 48.1204 150.91L100.082 180.91Z" fill="#8BC5E4"/>
<path fill-rule="evenodd" clip-rule="evenodd" d="M87.0656 287.685C87.0652 292.071 88.6432 295.102 91.1762 296.408L39.2147 266.408C36.6817 265.102 35.1037 262.071 35.104 257.685L87.0656 287.685Z" fill="#8BC5E4"/>
<path fill-rule="evenodd" clip-rule="evenodd" d="M91.1739 296.407C93.4979 297.606 96.6249 297.354 100.076 295.363L48.1144 265.363C44.6634 267.354 41.5364 267.606 39.2124 266.407L91.1739 296.407Z" fill="#8BC5E4"/>
<path fill-rule="evenodd" clip-rule="evenodd" d="M225.621 222.88C232.826 218.72 238.628 208.59 238.628 200.18L186.667 170.18C186.667 178.59 180.865 188.72 173.659 192.88L225.621 222.88Z" fill="#8BC5E4"/>
<path fill-rule="evenodd" clip-rule="evenodd" d="M238.628 116.12C238.628 111.737 237.056 108.707 234.533 107.394L182.571 77.394C185.094 78.707 186.666 81.737 186.667 86.12L238.628 116.12Z" fill="#8BC5E4"/>
<path fill-rule="evenodd" clip-rule="evenodd" d="M234.534 107.395C232.211 106.186 229.08 106.435 225.626 108.427L173.665 78.427C177.119 76.435 180.25 76.186 182.573 77.395L234.534 107.395Z" fill="#8BC5E4"/>
<path fill-rule="evenodd" clip-rule="evenodd" d="M163.12 166.665C169.778 162.821 175.808 162.327 180.284 164.639L128.323 134.639C123.847 132.327 117.817 132.821 111.158 136.665L163.12 166.665Z" fill="#8BC5E4"/>
<path fill-rule="evenodd" clip-rule="evenodd" d="M180.282 164.638C185.151 167.152 188.181 172.985 188.182 181.439L136.22 151.439C136.219 142.985 133.189 137.152 128.32 134.638L180.282 164.638Z" fill="#8BC5E4"/>
<path fill-rule="evenodd" clip-rule="evenodd" d="M188.183 181.445C188.183 197.655 177.019 217.13 163.12 225.155L111.158 195.155C125.058 187.13 136.221 167.655 136.221 151.445L188.183 181.445Z" fill="#8BC5E4"/>
<path fill-rule="evenodd" clip-rule="evenodd" d="M163.12 225.155C156.458 229.001 150.427 229.493 145.952 227.18L93.9907 197.18C98.4657 199.493 104.497 199.001 111.158 195.155L163.12 225.155Z" fill="#8BC5E4"/>
<path fill-rule="evenodd" clip-rule="evenodd" d="M145.954 227.181C141.087 224.667 138.059 218.834 138.057 210.391L86.0957 180.391C86.0977 188.834 89.1257 194.667 93.9927 197.181L145.954 227.181Z" fill="#8BC5E4"/>
<path fill-rule="evenodd" clip-rule="evenodd" d="M138.057 210.385C138.057 194.155 149.211 174.695 163.12 166.665L111.158 136.665C97.2496 144.695 86.0952 164.155 86.0952 180.385L138.057 210.385Z" fill="#8BC5E4"/>
<path fill-rule="evenodd" clip-rule="evenodd" d="M163.12 155.205C143.903 166.3 128.228 193.64 128.228 216.06L76.2661 186.06C76.2661 163.64 91.9412 136.3 111.158 125.205L163.12 155.205Z" fill="#8BC5E4"/>
<path fill-rule="evenodd" clip-rule="evenodd" d="M128.228 216.06C128.228 225.26 130.869 232.255 135.329 236.51L83.3675 206.51C78.9075 202.255 76.2661 195.26 76.2661 186.06L128.228 216.06Z" fill="#8BC5E4"/>
<path fill-rule="evenodd" clip-rule="evenodd" d="M146.12 241.26C151.16 241.64 156.954 240.185 163.12 236.625L111.158 206.625C104.992 210.185 99.1985 211.64 94.1582 211.26L146.12 241.26Z" fill="#8BC5E4"/>
<path fill-rule="evenodd" clip-rule="evenodd" d="M163.12 236.625C182.328 225.535 198.012 198.18 198.012 175.77L146.05 145.77C146.05 168.18 130.367 195.535 111.158 206.625L163.12 236.625Z" fill="#8BC5E4"/>
<path fill-rule="evenodd" clip-rule="evenodd" d="M198.012 175.77C198.012 164.089 193.755 155.987 186.96 152.474L134.999 122.474C141.794 125.987 146.051 134.089 146.05 145.77L198.012 175.77Z" fill="#8BC5E4"/>
<path fill-rule="evenodd" clip-rule="evenodd" d="M186.963 152.476C180.717 149.245 172.326 149.892 163.127 155.201L111.166 125.201C120.365 119.892 128.756 119.245 135.002 122.476L186.963 152.476Z" fill="#8BC5E4"/>
<path fill-rule="evenodd" clip-rule="evenodd" d="M263.232 36.915L62.4702 152.825C59.2486 154.685 56.7285 159.08 56.7285 162.85V338.41C56.7285 342.18 59.2486 343.665 62.4702 341.805L263.232 225.895C266.445 224.04 268.965 219.645 268.965 215.875V40.315C268.965 36.545 266.445 35.06 263.232 36.915ZM52 165.58C52 158.85 56.7112 150.64 62.4702 147.315L263.232 31.405C268.983 28.085 273.702 30.85 273.702 37.58V213.14C273.702 219.87 268.983 228.085 263.232 231.405L62.4702 347.315C56.7112 350.64 52 347.87 52 341.14V165.58ZM162.843 128.355C167.017 125.945 170.394 120.055 170.394 115.185C170.394 110.325 167.017 108.335 162.843 110.745C158.677 113.15 155.3 119.04 155.3 123.9C155.3 128.77 158.677 130.76 162.843 128.355ZM225.621 108.43L100.082 180.91C92.8677 185.075 87.0654 195.205 87.0654 203.625V287.685C87.0654 296.095 92.8677 299.525 100.082 295.36L225.621 222.88C232.826 218.72 238.628 208.59 238.628 200.18V116.12C238.628 107.7 232.826 104.27 225.621 108.43ZM188.182 181.445C188.182 165.215 177.019 158.64 163.12 166.665C149.211 174.695 138.057 194.155 138.057 210.385C138.057 226.595 149.211 233.185 163.12 225.155C177.019 217.13 188.182 197.655 188.182 181.445ZM128.228 216.06C128.228 193.64 143.903 166.3 163.12 155.205C182.328 144.115 198.012 153.35 198.012 175.77C198.012 198.18 182.328 225.535 163.12 236.625C156.954 240.185 151.16 241.64 146.12 241.26L126.34 276.44L116.086 270.74L135.329 236.51C130.869 232.255 128.228 225.26 128.228 216.06Z" fill="#8BC5E4"/>
<path fill-rule="evenodd" clip-rule="evenodd" d="M62.4702 152.825L263.232 36.915C266.445 35.06 268.965 36.545 268.965 40.315V215.875C268.965 219.645 266.445 224.04 263.232 225.895L62.4702 341.805C59.2486 343.665 56.7285 342.18 56.7285 338.41V162.85C56.7285 159.08 59.2486 154.685 62.4702 152.825ZM162.843 128.355C167.017 125.945 170.394 120.055 170.394 115.185C170.394 110.325 167.017 108.335 162.843 110.745C158.677 113.15 155.3 119.04 155.3 123.9C155.3 128.77 158.677 130.76 162.843 128.355ZM225.621 108.43L100.082 180.91C92.8677 185.075 87.0654 195.205 87.0654 203.625V287.685C87.0654 296.095 92.8677 299.525 100.082 295.36L225.621 222.88C232.826 218.72 238.628 208.59 238.628 200.18V116.12C238.628 107.7 232.826 104.27 225.621 108.43Z" fill="white"/>
<path fill-rule="evenodd" clip-rule="evenodd" d="M163.12 155.205C143.903 166.3 128.228 193.64 128.228 216.06C128.228 225.26 130.869 232.255 135.329 236.51L116.086 270.74L126.34 276.44L146.12 241.26C151.16 241.64 156.954 240.185 163.12 236.625C182.328 225.535 198.012 198.18 198.012 175.77C198.012 153.35 182.328 144.115 163.12 155.205ZM188.182 181.445C188.182 165.215 177.019 158.64 163.12 166.665C149.211 174.695 138.057 194.155 138.057 210.385C138.057 226.595 149.211 233.185 163.12 225.155C177.019 217.13 188.182 197.655 188.182 181.445Z" fill="white"/>
</svg>
