<svg width="226" height="321" viewBox="0 0 226 321" fill="none" xmlns="http://www.w3.org/2000/svg">
<path fill-rule="evenodd" clip-rule="evenodd" d="M55.668 98.3527V137.703L107.629 107.703V68.3527L55.668 98.3527Z" fill="#8BC5E4"/>
<path fill-rule="evenodd" clip-rule="evenodd" d="M55.668 137.703L103.897 165.548L155.858 135.548L107.629 107.703L55.668 137.703Z" fill="#8BC5E4"/>
<path fill-rule="evenodd" clip-rule="evenodd" d="M103.897 165.548V151.078L155.858 121.078V135.548L103.897 165.548Z" fill="#8BC5E4"/>
<path fill-rule="evenodd" clip-rule="evenodd" d="M103.897 151.078L118.004 167.733L169.966 137.733L155.858 121.078L103.897 151.078Z" fill="#8BC5E4"/>
<path fill-rule="evenodd" clip-rule="evenodd" d="M118.004 167.733V140.313L169.966 110.313V137.733L118.004 167.733Z" fill="#8BC5E4"/>
<path fill-rule="evenodd" clip-rule="evenodd" d="M118.004 140.313L103.897 140.668L155.858 110.668L169.966 110.313L118.004 140.313Z" fill="#8BC5E4"/>
<path fill-rule="evenodd" clip-rule="evenodd" d="M103.897 140.668V126.198L155.858 96.1977V110.668L103.897 140.668Z" fill="#8BC5E4"/>
<path fill-rule="evenodd" clip-rule="evenodd" d="M103.897 126.198L55.668 98.3527L107.629 68.3527L155.858 96.1977L103.897 126.198Z" fill="#8BC5E4"/>
<path fill-rule="evenodd" clip-rule="evenodd" d="M55.668 98.3527L107.629 68.3527L55.668 98.3527Z" fill="#8BC5E4"/>
<path fill-rule="evenodd" clip-rule="evenodd" d="M27.072 83.9127L9.42236 91.3327L61.3839 61.3327L79.0335 53.9127L27.072 83.9127Z" fill="#8BC5E4"/>
<path fill-rule="evenodd" clip-rule="evenodd" d="M9.42236 91.3327L27.072 119.123L79.0335 89.1227L61.3839 61.3327L9.42236 91.3327Z" fill="#8BC5E4"/>
<path fill-rule="evenodd" clip-rule="evenodd" d="M27.0718 119.123V107.143L79.0333 77.1427V89.1227L27.0718 119.123Z" fill="#8BC5E4"/>
<path fill-rule="evenodd" clip-rule="evenodd" d="M27.0718 107.143L46.999 118.648L98.9605 88.6477L79.0333 77.1427L27.0718 107.143Z" fill="#8BC5E4"/>
<path fill-rule="evenodd" clip-rule="evenodd" d="M46.999 118.648V107.398L98.9605 77.3977V88.6477L46.999 118.648Z" fill="#8BC5E4"/>
<path fill-rule="evenodd" clip-rule="evenodd" d="M46.999 107.398L27.0718 95.8927L79.0333 65.8927L98.9605 77.3977L46.999 107.398Z" fill="#8BC5E4"/>
<path fill-rule="evenodd" clip-rule="evenodd" d="M27.0718 95.8927V83.9127L79.0333 53.9127V65.8927L27.0718 95.8927Z" fill="#8BC5E4"/>
<path fill-rule="evenodd" clip-rule="evenodd" d="M27.0718 83.9127L79.0333 53.9127L27.0718 83.9127Z" fill="#8BC5E4"/>
<path fill-rule="evenodd" clip-rule="evenodd" d="M145.804 152.463V164.443L197.766 134.443V122.463L145.804 152.463Z" fill="#8BC5E4"/>
<path fill-rule="evenodd" clip-rule="evenodd" d="M145.804 164.443L125.885 152.943L177.847 122.943L197.765 134.443L145.804 164.443Z" fill="#8BC5E4"/>
<path fill-rule="evenodd" clip-rule="evenodd" d="M125.885 152.943V164.193L177.847 134.193V122.943L125.885 152.943Z" fill="#8BC5E4"/>
<path fill-rule="evenodd" clip-rule="evenodd" d="M125.885 164.193L145.804 175.693L197.765 145.693L177.847 134.193L125.885 164.193Z" fill="#8BC5E4"/>
<path fill-rule="evenodd" clip-rule="evenodd" d="M145.804 175.693V187.673L197.766 157.673V145.693L145.804 175.693Z" fill="#8BC5E4"/>
<path fill-rule="evenodd" clip-rule="evenodd" d="M145.804 187.673L163.462 180.268L215.424 150.268L197.766 157.673L145.804 187.673Z" fill="#8BC5E4"/>
<path fill-rule="evenodd" clip-rule="evenodd" d="M163.462 180.268L145.804 152.463L197.766 122.463L215.424 150.268L163.462 180.268Z" fill="#8BC5E4"/>
<path fill-rule="evenodd" clip-rule="evenodd" d="M145.804 152.463L197.766 122.463L145.804 152.463Z" fill="#8BC5E4"/>
<path fill-rule="evenodd" clip-rule="evenodd" d="M57.9458 206.598V218.298L109.907 188.298V176.598L57.9458 206.598Z" fill="#8BC5E4"/>
<path fill-rule="evenodd" clip-rule="evenodd" d="M57.9458 218.298L81.0773 231.653L133.039 201.653L109.907 188.298L57.9458 218.298Z" fill="#8BC5E4"/>
<path fill-rule="evenodd" clip-rule="evenodd" d="M81.0771 231.653V219.953L133.039 189.953V201.653L81.0771 231.653Z" fill="#8BC5E4"/>
<path fill-rule="evenodd" clip-rule="evenodd" d="M69.5073 171.953L121.469 141.953L69.5073 171.953Z" fill="#8BC5E4"/>
<path fill-rule="evenodd" clip-rule="evenodd" d="M91.79 226.138V237.838L143.752 207.838V196.138L91.79 226.138Z" fill="#8BC5E4"/>
<path fill-rule="evenodd" clip-rule="evenodd" d="M91.79 237.838L114.922 251.193L166.883 221.193L143.752 207.838L91.79 237.838Z" fill="#8BC5E4"/>
<path fill-rule="evenodd" clip-rule="evenodd" d="M114.921 251.193V239.493L166.883 209.493V221.193L114.921 251.193Z" fill="#8BC5E4"/>
<path fill-rule="evenodd" clip-rule="evenodd" d="M103.36 191.498L155.321 161.498L103.36 191.498Z" fill="#8BC5E4"/>
<path fill-rule="evenodd" clip-rule="evenodd" d="M29.0117 164.273V176.253L80.9732 146.253V134.273L29.0117 164.273Z" fill="#8BC5E4"/>
<path fill-rule="evenodd" clip-rule="evenodd" d="M29.0119 176.253L9.09326 164.753L61.0548 134.753L80.9734 146.253L29.0119 176.253Z" fill="#8BC5E4"/>
<path fill-rule="evenodd" clip-rule="evenodd" d="M9.09326 164.753V176.003L61.0548 146.003V134.753L9.09326 164.753Z" fill="#8BC5E4"/>
<path fill-rule="evenodd" clip-rule="evenodd" d="M9.09326 176.003L29.0119 187.503L80.9734 157.503L61.0548 146.003L9.09326 176.003Z" fill="#8BC5E4"/>
<path fill-rule="evenodd" clip-rule="evenodd" d="M29.0117 187.503V199.473L80.9732 169.473V157.503L29.0117 187.503Z" fill="#8BC5E4"/>
<path fill-rule="evenodd" clip-rule="evenodd" d="M29.0117 199.473L46.6699 192.068L98.6314 162.068L80.9732 169.473L29.0117 199.473Z" fill="#8BC5E4"/>
<path fill-rule="evenodd" clip-rule="evenodd" d="M46.6699 192.068L29.0117 164.273L80.9732 134.273L98.6314 162.068L46.6699 192.068Z" fill="#8BC5E4"/>
<path fill-rule="evenodd" clip-rule="evenodd" d="M29.0117 164.273L80.9732 134.273L29.0117 164.273Z" fill="#8BC5E4"/>
<path fill-rule="evenodd" clip-rule="evenodd" d="M144.522 230.963L126.864 238.368L178.826 208.368L196.484 200.963L144.522 230.963Z" fill="#8BC5E4"/>
<path fill-rule="evenodd" clip-rule="evenodd" d="M126.864 238.368L144.522 266.163L196.484 236.163L178.826 208.368L126.864 238.368Z" fill="#8BC5E4"/>
<path fill-rule="evenodd" clip-rule="evenodd" d="M144.522 266.163V254.193L196.484 224.193V236.163L144.522 266.163Z" fill="#8BC5E4"/>
<path fill-rule="evenodd" clip-rule="evenodd" d="M144.522 254.193L164.441 265.693L216.403 235.693L196.484 224.193L144.522 254.193Z" fill="#8BC5E4"/>
<path fill-rule="evenodd" clip-rule="evenodd" d="M164.441 265.693V254.443L216.402 224.443V235.693L164.441 265.693Z" fill="#8BC5E4"/>
<path fill-rule="evenodd" clip-rule="evenodd" d="M164.441 254.443L144.522 242.943L196.484 212.943L216.403 224.443L164.441 254.443Z" fill="#8BC5E4"/>
<path fill-rule="evenodd" clip-rule="evenodd" d="M144.522 242.943V230.963L196.484 200.963V212.943L144.522 242.943Z" fill="#8BC5E4"/>
<path fill-rule="evenodd" clip-rule="evenodd" d="M144.522 230.963L196.484 200.963L144.522 230.963Z" fill="#8BC5E4"/>
<path fill-rule="evenodd" clip-rule="evenodd" d="M10.626 36.9677L162.579 124.698L214.54 94.6977L62.5876 6.96771L10.626 36.9677Z" fill="#8BC5E4"/>
<path fill-rule="evenodd" clip-rule="evenodd" d="M168.407 134.753V310.323L220.369 280.323V104.753L168.407 134.753Z" fill="#8BC5E4"/>
<path fill-rule="evenodd" clip-rule="evenodd" d="M162.579 313.658L10.626 225.928L62.5876 195.928L214.54 283.658L162.579 313.658Z" fill="#8BC5E4"/>
<path fill-rule="evenodd" clip-rule="evenodd" d="M4.79785 215.863V40.2927L56.7593 10.2927V185.863L4.79785 215.863Z" fill="#8BC5E4"/>
<path fill-rule="evenodd" clip-rule="evenodd" d="M10.626 36.9677L62.5876 6.96771L10.626 36.9677Z" fill="#8BC5E4"/>
<path fill-rule="evenodd" clip-rule="evenodd" d="M0 37.5227V213.093L51.9615 183.093V7.52271L0 37.5227Z" fill="#8BC5E4"/>
<path fill-rule="evenodd" clip-rule="evenodd" d="M10.626 231.448L162.579 319.178L214.54 289.178L62.5876 201.448L10.626 231.448Z" fill="#8BC5E4"/>
<path fill-rule="evenodd" clip-rule="evenodd" d="M173.205 313.093V137.523L225.167 107.523V283.093L173.205 313.093Z" fill="#8BC5E4"/>
<path fill-rule="evenodd" clip-rule="evenodd" d="M162.579 119.178L10.626 31.4477L62.5876 1.44769L214.54 89.1777L162.579 119.178Z" fill="#8BC5E4"/>
<path fill-rule="evenodd" clip-rule="evenodd" d="M10.626 31.4477L62.5876 1.44769L10.626 31.4477Z" fill="#8BC5E4"/>
<path fill-rule="evenodd" clip-rule="evenodd" d="M69.507 171.953C66.8968 170.446 64.5088 170.165 62.6738 170.92L114.635 140.92C116.47 140.165 118.858 140.446 121.469 141.953L69.507 171.953Z" fill="#8BC5E4"/>
<path fill-rule="evenodd" clip-rule="evenodd" d="M62.6721 170.921C62.4821 170.999 62.2991 171.089 62.1211 171.189L114.083 141.189C114.261 141.089 114.444 140.999 114.634 140.921L62.6721 170.921Z" fill="#8BC5E4"/>
<path fill-rule="evenodd" clip-rule="evenodd" d="M62.1118 171.194C60.2088 172.273 59.0308 174.605 59.0278 177.933L110.989 147.933C110.992 144.605 112.17 142.273 114.073 141.194L62.1118 171.194Z" fill="#8BC5E4"/>
<path fill-rule="evenodd" clip-rule="evenodd" d="M59.0283 177.943C59.0283 182.113 60.9076 187.068 63.9906 191.038L115.952 161.038C112.869 157.068 110.99 152.113 110.99 147.943L59.0283 177.943Z" fill="#8BC5E4"/>
<path fill-rule="evenodd" clip-rule="evenodd" d="M63.9906 191.038C60.1281 194.068 57.9458 199.738 57.9458 206.598L109.907 176.598C109.907 169.738 112.09 164.068 115.952 161.038L63.9906 191.038Z" fill="#8BC5E4"/>
<path fill-rule="evenodd" clip-rule="evenodd" d="M81.0773 219.953C81.0773 213.023 78.3407 204.783 74.7207 197.443L126.682 167.443C130.302 174.783 133.039 183.023 133.039 189.953L81.0773 219.953Z" fill="#8BC5E4"/>
<path fill-rule="evenodd" clip-rule="evenodd" d="M74.7207 197.443C75.571 197.374 76.336 197.13 77.004 196.73L128.966 166.73C128.298 167.13 127.533 167.374 126.682 167.443L74.7207 197.443Z" fill="#8BC5E4"/>
<path fill-rule="evenodd" clip-rule="evenodd" d="M77.0029 196.73C78.8849 195.603 79.9849 193.236 79.9859 190.049L131.947 160.049C131.946 163.236 130.846 165.603 128.964 166.73L77.0029 196.73Z" fill="#8BC5E4"/>
<path fill-rule="evenodd" clip-rule="evenodd" d="M79.9862 190.043C79.9862 183.393 75.2924 175.293 69.5073 171.953L121.469 141.953C127.254 145.293 131.948 153.393 131.948 160.043L79.9862 190.043Z" fill="#8BC5E4"/>
<path fill-rule="evenodd" clip-rule="evenodd" d="M103.36 191.498C100.75 189.991 98.3619 189.71 96.5269 190.465L148.488 160.465C150.323 159.71 152.711 159.991 155.322 161.498L103.36 191.498Z" fill="#8BC5E4"/>
<path fill-rule="evenodd" clip-rule="evenodd" d="M96.5251 190.466C96.3351 190.544 96.1521 190.634 95.9741 190.734L147.936 160.734C148.114 160.634 148.297 160.544 148.487 160.466L96.5251 190.466Z" fill="#8BC5E4"/>
<path fill-rule="evenodd" clip-rule="evenodd" d="M95.9649 190.739C94.0619 191.818 92.8839 194.15 92.8809 197.478L144.842 167.478C144.845 164.15 146.023 161.818 147.926 160.739L95.9649 190.739Z" fill="#8BC5E4"/>
<path fill-rule="evenodd" clip-rule="evenodd" d="M92.8813 197.488C92.8813 201.658 94.7606 206.613 97.8437 210.583L149.805 180.583C146.722 176.613 144.843 171.658 144.843 167.488L92.8813 197.488Z" fill="#8BC5E4"/>
<path fill-rule="evenodd" clip-rule="evenodd" d="M97.8436 210.583C93.9811 213.613 91.79 219.278 91.79 226.138L143.752 196.138C143.752 189.278 145.943 183.613 149.805 180.583L97.8436 210.583Z" fill="#8BC5E4"/>
<path fill-rule="evenodd" clip-rule="evenodd" d="M114.922 239.493C114.922 232.563 112.194 224.328 108.574 216.988L160.535 186.988C164.155 194.328 166.883 202.563 166.883 209.493L114.922 239.493Z" fill="#8BC5E4"/>
<path fill-rule="evenodd" clip-rule="evenodd" d="M108.574 216.988C109.426 216.917 110.193 216.672 110.86 216.271L162.822 186.271C162.155 186.672 161.388 186.917 160.535 186.988L108.574 216.988Z" fill="#8BC5E4"/>
<path fill-rule="evenodd" clip-rule="evenodd" d="M110.859 216.272C112.742 215.141 113.838 212.774 113.839 209.594L165.8 179.594C165.799 182.774 164.703 185.141 162.82 186.272L110.859 216.272Z" fill="#8BC5E4"/>
<path fill-rule="evenodd" clip-rule="evenodd" d="M113.839 209.588C113.839 202.938 109.145 194.838 103.36 191.498L155.321 161.498C161.106 164.838 165.8 172.938 165.8 179.588L113.839 209.588Z" fill="#8BC5E4"/>
<path fill-rule="evenodd" clip-rule="evenodd" d="M162.579 124.698C165.853 126.588 168.408 130.993 168.408 134.753L220.369 104.753C220.369 100.993 217.814 96.5877 214.541 94.6977L162.579 124.698Z" fill="#8BC5E4"/>
<path fill-rule="evenodd" clip-rule="evenodd" d="M168.407 310.323C168.407 312.203 167.769 313.509 166.721 314.109L218.683 284.109C219.731 283.509 220.369 282.203 220.369 280.323L168.407 310.323Z" fill="#8BC5E4"/>
<path fill-rule="evenodd" clip-rule="evenodd" d="M166.71 314.115C166.611 314.172 166.508 314.222 166.402 314.265L218.363 284.265C218.469 284.222 218.572 284.172 218.671 284.115L166.71 314.115Z" fill="#8BC5E4"/>
<path fill-rule="evenodd" clip-rule="evenodd" d="M166.391 314.269C165.378 314.679 164.053 314.508 162.584 313.661L214.545 283.661C216.014 284.508 217.339 284.679 218.352 284.269L166.391 314.269Z" fill="#8BC5E4"/>
<path fill-rule="evenodd" clip-rule="evenodd" d="M10.6262 225.928C7.35265 224.038 4.79785 219.623 4.79785 215.863L56.7593 185.863C56.7593 189.623 59.3142 194.038 62.5878 195.928L10.6262 225.928Z" fill="#8BC5E4"/>
<path fill-rule="evenodd" clip-rule="evenodd" d="M4.79785 40.2927C4.79805 38.4057 5.44105 37.0987 6.49705 36.5047L58.4586 6.5047C57.4026 7.0987 56.7595 8.4057 56.7593 10.2927L4.79785 40.2927Z" fill="#8BC5E4"/>
<path fill-rule="evenodd" clip-rule="evenodd" d="M6.49316 36.5067C6.59616 36.4487 6.70416 36.3967 6.81616 36.3517L58.7777 6.35168C58.6657 6.39668 58.5577 6.44868 58.4547 6.50668L6.49316 36.5067Z" fill="#8BC5E4"/>
<path fill-rule="evenodd" clip-rule="evenodd" d="M6.81396 36.3517C7.82696 35.9447 9.15196 36.1177 10.621 36.9647L62.5825 6.96466C61.1135 6.11766 59.7885 5.94466 58.7755 6.35166L6.81396 36.3517Z" fill="#8BC5E4"/>
<path fill-rule="evenodd" clip-rule="evenodd" d="M10.6262 31.4477C7.98905 29.9247 5.56805 29.6447 3.70605 30.4137L55.6676 0.413705C57.5296 -0.355295 59.9506 -0.075295 62.5878 1.44771L10.6262 31.4477Z" fill="#8BC5E4"/>
<path fill-rule="evenodd" clip-rule="evenodd" d="M3.70404 30.4147C3.51104 30.4937 3.32404 30.5847 3.14404 30.6867L55.1055 0.686673C55.2855 0.584673 55.4725 0.493673 55.6655 0.414673L3.70404 30.4147Z" fill="#8BC5E4"/>
<path fill-rule="evenodd" clip-rule="evenodd" d="M3.135 30.6917C1.203 31.7877 0.003 34.1497 0 37.5127L51.9615 7.51271C51.9645 4.14971 53.1645 1.78771 55.0965 0.691711L3.135 30.6917Z" fill="#8BC5E4"/>
<path fill-rule="evenodd" clip-rule="evenodd" d="M0 213.093C0 219.813 4.7805 228.073 10.6261 231.448L62.5877 201.448C56.742 198.073 51.9615 189.813 51.9615 183.093L0 213.093Z" fill="#8BC5E4"/>
<path fill-rule="evenodd" clip-rule="evenodd" d="M162.579 319.178C165.216 320.701 167.637 320.979 169.499 320.208L221.461 290.208C219.599 290.979 217.178 290.701 214.541 289.178L162.579 319.178Z" fill="#8BC5E4"/>
<path fill-rule="evenodd" clip-rule="evenodd" d="M169.513 320.203C169.706 320.122 169.893 320.031 170.073 319.928L222.035 289.928C221.855 290.031 221.668 290.122 221.475 290.203L169.513 320.203Z" fill="#8BC5E4"/>
<path fill-rule="evenodd" clip-rule="evenodd" d="M170.07 319.929C172.002 318.831 173.202 316.466 173.205 313.103L225.166 283.103C225.163 286.466 223.963 288.831 222.031 289.929L170.07 319.929Z" fill="#8BC5E4"/>
<path fill-rule="evenodd" clip-rule="evenodd" d="M173.205 137.523C173.205 130.803 168.425 122.553 162.579 119.178L214.541 89.1777C220.386 92.5527 225.167 100.803 225.167 107.523L173.205 137.523Z" fill="#8BC5E4"/>
<path d="M55.6681 98.3527V137.703L103.897 165.548V151.078L118.005 167.733V140.313L103.897 140.668V126.198L55.6681 98.3527ZM27.072 83.9127L9.42236 91.3327L27.072 119.123V107.143L46.9992 118.648V107.398L27.072 95.8927V83.9127ZM145.804 152.463V164.443L125.885 152.943V164.193L145.804 175.693V187.673L163.462 180.268L145.804 152.463ZM69.5072 171.953C63.7222 168.613 59.0283 171.293 59.0283 177.943C59.0283 182.113 60.9076 187.068 63.9906 191.038C60.1281 194.068 57.9458 199.738 57.9458 206.598V218.298L81.0773 231.653V219.953C81.0773 213.023 78.3407 204.783 74.7207 197.443C77.9683 197.178 79.9861 194.363 79.9861 190.043C79.9861 183.393 75.2923 175.293 69.5072 171.953ZM103.36 191.498C97.5751 188.158 92.8812 190.838 92.8812 197.488C92.8812 201.658 94.7605 206.613 97.8436 210.583C93.9811 213.613 91.79 219.278 91.79 226.138V237.838L114.922 251.193V239.493C114.922 232.563 112.194 224.328 108.574 216.988C111.83 216.718 113.839 213.898 113.839 209.588C113.839 202.938 109.145 194.838 103.36 191.498ZM29.0119 164.273V176.253L9.09327 164.753V176.003L29.0119 187.503V199.473L46.6701 192.068L29.0119 164.273ZM144.522 230.963L126.864 238.368L144.522 266.163V254.193L164.441 265.693V254.443L144.522 242.943V230.963ZM10.6261 36.9677L162.579 124.698C165.853 126.588 168.407 130.993 168.407 134.753V310.323C168.407 314.083 165.853 315.548 162.579 313.658L10.6261 225.928C7.35256 224.038 4.79778 219.623 4.79778 215.863V40.2927C4.79778 36.5327 7.35256 35.0777 10.6261 36.9677ZM10.6261 31.4477C4.78046 28.0727 0 30.8027 0 37.5227V213.093C0 219.813 4.78046 228.073 10.6261 231.448L162.579 319.178C168.425 322.553 173.205 319.813 173.205 313.093V137.523C173.205 130.803 168.425 122.553 162.579 119.178L10.6261 31.4477Z" fill="#8BC5E4"/>
<path fill-rule="evenodd" clip-rule="evenodd" d="M10.6261 36.9677L162.579 124.698C165.853 126.588 168.407 130.993 168.407 134.753V310.323C168.407 314.083 165.853 315.548 162.579 313.658L10.6261 225.928C7.35256 224.038 4.79778 219.623 4.79778 215.863V40.2927C4.79778 36.5327 7.35256 35.0777 10.6261 36.9677ZM55.6681 137.703V98.3527L103.897 126.198V140.668L118.005 140.313V167.733L103.897 151.078V165.548L55.6681 137.703ZM9.42236 91.3327L27.072 83.9127V95.8927L46.9992 107.398V118.648L27.072 107.143V119.123L9.42236 91.3327ZM145.804 164.443V152.463L163.462 180.268L145.804 187.673V175.693L125.885 164.193V152.943L145.804 164.443ZM59.0283 177.943C59.0283 171.293 63.7222 168.613 69.5072 171.953C75.2923 175.293 79.9861 183.393 79.9861 190.043C79.9861 194.363 77.9683 197.178 74.7207 197.443C78.3407 204.783 81.0773 213.023 81.0773 219.953V231.653L57.9458 218.298V206.598C57.9458 199.738 60.1281 194.068 63.9906 191.038C60.9076 187.068 59.0283 182.113 59.0283 177.943ZM92.8812 197.488C92.8812 190.838 97.5751 188.158 103.36 191.498C109.145 194.838 113.839 202.938 113.839 209.588C113.839 213.898 111.83 216.718 108.574 216.988C112.194 224.328 114.922 232.563 114.922 239.493V251.193L91.79 237.838V226.138C91.79 219.278 93.9811 213.613 97.8436 210.583C94.7605 206.613 92.8812 201.658 92.8812 197.488ZM29.0119 176.253V164.273L46.6701 192.068L29.0119 199.473V187.503L9.09327 176.003V164.753L29.0119 176.253ZM126.864 238.368L144.522 230.963V242.943L164.441 254.443V265.693L144.522 254.193V266.163L126.864 238.368Z" fill="white"/>
</svg>
