<svg width="274" height="354" viewBox="0 0 274 354" fill="none" xmlns="http://www.w3.org/2000/svg">
<path d="M89.547 99.5023L89.4951 99.4723L141.457 69.4723L141.509 69.5023L89.547 99.5023Z" fill="#8BC5E4"/>
<path d="M89.4951 99.4723L89.3132 99.3873L141.275 69.3873L141.457 69.4723L89.4951 99.4723Z" fill="#8BC5E4"/>
<path d="M41.7598 205.752L36.4771 208.882L88.4385 178.882L93.7214 175.752L41.7598 205.752Z" fill="#8BC5E4"/>
<path d="M36.4771 208.882L46.5923 226.502L98.5537 196.502L88.4385 178.882L36.4771 208.882Z" fill="#8BC5E4"/>
<path d="M46.5923 226.502L57.2617 220.182L109.223 190.182L98.5538 196.502L46.5923 226.502Z" fill="#8BC5E4"/>
<path d="M172.512 282.492L172.573 282.527L224.534 252.527L224.474 252.492L172.512 282.492Z" fill="#8BC5E4"/>
<path d="M172.573 282.527L172.677 282.577L224.638 252.577L224.534 252.527L172.573 282.527Z" fill="#8BC5E4"/>
<path d="M172.677 282.577H172.694L224.656 252.577H224.638L172.677 282.577Z" fill="#8BC5E4"/>
<path d="M169.542 183.277L169.455 183.167L221.417 153.167L221.503 153.277L169.542 183.277Z" fill="#8BC5E4"/>
<path d="M169.455 183.167L169.412 183.112L221.373 153.112L221.417 153.167L169.455 183.167Z" fill="#8BC5E4"/>
<path d="M93.219 101.472V101.482L145.18 71.4823V71.4723L93.219 101.472Z" fill="#8BC5E4"/>
<path d="M93.219 101.482L145.18 71.4823L93.219 101.482Z" fill="#8BC5E4"/>
<path d="M90.8894 107.537L91.0366 108.282L142.998 78.2824L142.851 77.5374L90.8894 107.537Z" fill="#8BC5E4"/>
<path d="M91.0365 108.282L90.8806 107.532L142.842 77.5323L142.998 78.2823L91.0365 108.282Z" fill="#8BC5E4"/>
<path d="M90.8894 107.537L142.851 77.5374L90.8894 107.537Z" fill="#8BC5E4"/>
<path d="M138.694 167.887L139.967 171.382L191.929 141.382L190.656 137.887L138.694 167.887Z" fill="#8BC5E4"/>
<path d="M139.967 171.382L142.574 172.167L194.535 142.167L191.929 141.382L139.967 171.382Z" fill="#8BC5E4"/>
<path d="M142.574 172.167L142.556 172.157L194.518 142.157L194.535 142.167L142.574 172.167Z" fill="#8BC5E4"/>
<path d="M179.501 217.517L180.073 219.587L232.034 189.587L231.462 187.517L179.501 217.517Z" fill="#8BC5E4"/>
<path d="M180.073 219.587L181.554 221.092L233.515 191.092L232.034 189.587L180.073 219.587Z" fill="#8BC5E4"/>
<path d="M181.554 221.092L181.562 221.097L233.524 191.097L233.515 191.092L181.554 221.092Z" fill="#8BC5E4"/>
<path d="M202.849 261.387V261.397L254.811 231.397V231.387L202.849 261.387Z" fill="#8BC5E4"/>
<path d="M134.814 250.137L132.996 248.867L184.957 218.867L186.776 220.137L134.814 250.137Z" fill="#8BC5E4"/>
<path d="M132.996 248.867L131.792 249.792L183.753 219.792L184.957 218.867L132.996 248.867Z" fill="#8BC5E4"/>
<path d="M131.792 249.792V249.802L183.753 219.802V219.792L131.792 249.792Z" fill="#8BC5E4"/>
<path d="M62.2671 217.212L72.6594 211.062L124.621 181.062L114.229 187.212L62.2671 217.212Z" fill="#8BC5E4"/>
<path d="M62.0248 193.752L48.0125 202.052L99.9741 172.052L113.986 163.752L62.0248 193.752Z" fill="#8BC5E4"/>
<path d="M38.7373 139.447V139.437L90.6988 109.437V109.447L38.7373 139.447Z" fill="#8BC5E4"/>
<path d="M38.7373 139.437L40.7292 139.767L92.6907 109.767L90.6988 109.437L38.7373 139.437Z" fill="#8BC5E4"/>
<path d="M40.7292 139.767L41.0496 137.492L93.0111 107.492L92.6907 109.767L40.7292 139.767Z" fill="#8BC5E4"/>
<path d="M41.0496 137.492V137.482L93.0111 107.482V107.492L41.0496 137.492Z" fill="#8BC5E4"/>
<path d="M93.2795 109.807L145.241 79.8073L93.2795 109.807Z" fill="#8BC5E4"/>
<path d="M95.1589 143.522L147.12 113.522L95.1589 143.522Z" fill="#8BC5E4"/>
<path d="M75.7859 148.807V151.667L127.747 121.667V118.807L75.7859 148.807Z" fill="#8BC5E4"/>
<path d="M75.7859 151.667V192.927L127.747 162.927V121.667L75.7859 151.667Z" fill="#8BC5E4"/>
<path d="M75.7859 192.927L114.055 215.022L166.017 185.022L127.747 162.927L75.7859 192.927Z" fill="#8BC5E4"/>
<path d="M114.055 215.022V170.902L166.017 140.902V185.022L114.055 215.022Z" fill="#8BC5E4"/>
<path d="M114.055 170.902L75.7859 148.807L127.747 118.807L166.017 140.902L114.055 170.902Z" fill="#8BC5E4"/>
<path d="M75.7859 148.807L127.747 118.807L75.7859 148.807Z" fill="#8BC5E4"/>
<path d="M184.87 216.667L184.905 216.707L236.867 186.707L236.832 186.667L184.87 216.667Z" fill="#8BC5E4"/>
<path d="M184.905 216.707L184.922 216.757L236.884 186.757L236.867 186.707L184.905 216.707Z" fill="#8BC5E4"/>
<path d="M184.87 216.667L236.832 186.667L184.87 216.667Z" fill="#8BC5E4"/>
<path d="M80.6963 157.372L109.137 173.792L161.098 143.792L132.658 127.372L80.6963 157.372Z" fill="#8BC5E4"/>
<path d="M109.136 173.792V206.452L161.098 176.452V143.792L109.136 173.792Z" fill="#8BC5E4"/>
<path d="M109.137 206.452L80.6963 190.032L132.658 160.032L161.098 176.452L109.137 206.452Z" fill="#8BC5E4"/>
<path d="M80.6963 190.032V157.372L132.658 127.372V160.032L80.6963 190.032Z" fill="#8BC5E4"/>
<path d="M80.6963 157.372L132.658 127.372L80.6963 157.372Z" fill="#8BC5E4"/>
<path d="M35.1001 131.167V131.157L87.0616 101.157V101.167L35.1001 131.167Z" fill="#8BC5E4"/>
<path d="M35.1001 131.157L35.1434 131.112L87.1049 101.112L87.0616 101.157L35.1001 131.157Z" fill="#8BC5E4"/>
<path d="M35.1433 131.112L35.1693 131.127L87.1308 101.127L87.1048 101.112L35.1433 131.112Z" fill="#8BC5E4"/>
<path d="M35.1692 131.127L87.1307 101.127L35.1692 131.127Z" fill="#8BC5E4"/>
<path d="M10.4702 36.9174L211.232 152.827L263.194 122.827L62.4318 6.91736L10.4702 36.9174Z" fill="#8BC5E4"/>
<path d="M216.974 162.842V338.422L268.936 308.422V132.842L216.974 162.842Z" fill="#8BC5E4"/>
<path d="M211.232 341.797L10.4702 225.887L62.4318 195.887L263.194 311.797L211.232 341.797Z" fill="#8BC5E4"/>
<path d="M4.72852 215.882V40.3022L56.69 10.3022V185.882L4.72852 215.882Z" fill="#8BC5E4"/>
<path d="M10.4702 36.9174L62.4318 6.91736L10.4702 36.9174Z" fill="#8BC5E4"/>
<path d="M0 37.5723V213.152L51.9615 183.152V7.57227L0 37.5723Z" fill="#8BC5E4"/>
<path d="M10.4702 231.407L211.232 347.317L263.194 317.317L62.4318 201.407L10.4702 231.407Z" fill="#8BC5E4"/>
<path d="M221.702 341.152V165.572L273.664 135.572V311.152L221.702 341.152Z" fill="#8BC5E4"/>
<path d="M211.232 147.317L10.4702 31.4073L62.4318 1.40735L263.194 117.317L211.232 147.317Z" fill="#8BC5E4"/>
<path d="M10.4702 31.4073L62.4318 1.40735L10.4702 31.4073Z" fill="#8BC5E4"/>
<path d="M10.4702 36.9174L211.232 152.827L263.194 122.827L62.4318 6.91736L10.4702 36.9174Z" fill="#8BC5E4"/>
<path d="M216.974 162.842V338.422L268.936 308.422V132.842L216.974 162.842Z" fill="#8BC5E4"/>
<path d="M211.232 341.797L10.4702 225.887L62.4318 195.887L263.194 311.797L211.232 341.797Z" fill="#8BC5E4"/>
<path d="M4.72852 215.882V40.3022L56.69 10.3022V185.882L4.72852 215.882Z" fill="#8BC5E4"/>
<path d="M10.4702 36.9174L62.4318 6.91736L10.4702 36.9174Z" fill="#8BC5E4"/>
<path d="M93.219 101.482V101.472L145.18 71.4723V71.4823L93.219 101.482Z" fill="#8BC5E4"/>
<path d="M169.412 183.112L169.455 183.167L221.417 153.167L221.373 153.112L169.412 183.112Z" fill="#8BC5E4"/>
<path d="M169.455 183.167L169.542 183.277L221.503 153.277L221.417 153.167L169.455 183.167Z" fill="#8BC5E4"/>
<path d="M172.694 282.577H172.677L224.638 252.577H224.656L172.694 282.577Z" fill="#8BC5E4"/>
<path d="M172.677 282.577L172.573 282.527L224.534 252.527L224.638 252.577L172.677 282.577Z" fill="#8BC5E4"/>
<path d="M172.573 282.527L172.512 282.492L224.474 252.492L224.534 252.527L172.573 282.527Z" fill="#8BC5E4"/>
<path d="M136.221 259.47L135.827 259.192L187.789 229.192L188.182 229.47L136.221 259.47Z" fill="#8BC5E4"/>
<path d="M57.2617 220.182L46.5923 226.502L98.5538 196.502L109.223 190.182L57.2617 220.182Z" fill="#8BC5E4"/>
<path d="M46.5923 226.502L36.4771 208.882L88.4385 178.882L98.5537 196.502L46.5923 226.502Z" fill="#8BC5E4"/>
<path d="M36.4771 208.882L41.7598 205.752L93.7214 175.752L88.4385 178.882L36.4771 208.882Z" fill="#8BC5E4"/>
<path d="M89.3132 99.3873L89.4951 99.4723L141.457 69.4723L141.275 69.3873L89.3132 99.3873Z" fill="#8BC5E4"/>
<path d="M89.4951 99.4723L89.547 99.5023L141.509 69.5023L141.457 69.4723L89.4951 99.4723Z" fill="#8BC5E4"/>
<path d="M89.5469 99.5023L141.508 69.5023L89.5469 99.5023Z" fill="#8BC5E4"/>
<path d="M138.694 167.887L139.967 171.382L191.929 141.382L190.656 137.887L138.694 167.887Z" fill="#8BC5E4"/>
<path d="M139.967 171.382L142.574 172.167L194.535 142.167L191.929 141.382L139.967 171.382Z" fill="#8BC5E4"/>
<path d="M142.574 172.167L142.556 172.157L194.518 142.157L194.535 142.167L142.574 172.167Z" fill="#8BC5E4"/>
<path d="M179.501 217.517L180.073 219.587L232.034 189.587L231.462 187.517L179.501 217.517Z" fill="#8BC5E4"/>
<path d="M180.073 219.587L181.554 221.092L233.515 191.092L232.034 189.587L180.073 219.587Z" fill="#8BC5E4"/>
<path d="M181.554 221.092L181.562 221.097L233.524 191.097L233.515 191.092L181.554 221.092Z" fill="#8BC5E4"/>
<path d="M202.849 261.387V261.397L254.811 231.397V231.387L202.849 261.387Z" fill="#8BC5E4"/>
<path d="M134.814 250.137L132.996 248.867L184.957 218.867L186.776 220.137L134.814 250.137Z" fill="#8BC5E4"/>
<path d="M132.996 248.867L131.792 249.792L183.753 219.792L184.957 218.867L132.996 248.867Z" fill="#8BC5E4"/>
<path d="M131.792 249.792V249.802L183.753 219.802V219.792L131.792 249.792Z" fill="#8BC5E4"/>
<path d="M62.2671 217.212L72.6594 211.062L124.621 181.062L114.229 187.212L62.2671 217.212Z" fill="#8BC5E4"/>
<path d="M62.0248 193.752L48.0125 202.052L99.9741 172.052L113.986 163.752L62.0248 193.752Z" fill="#8BC5E4"/>
<path d="M38.7373 139.447V139.437L90.6988 109.437V109.447L38.7373 139.447Z" fill="#8BC5E4"/>
<path d="M38.7373 139.437L40.7292 139.767L92.6907 109.767L90.6988 109.437L38.7373 139.437Z" fill="#8BC5E4"/>
<path d="M40.7292 139.767L41.0496 137.492L93.0111 107.492L92.6907 109.767L40.7292 139.767Z" fill="#8BC5E4"/>
<path d="M41.0496 137.492V137.482L93.0111 107.482V107.492L41.0496 137.492Z" fill="#8BC5E4"/>
<path d="M93.2795 109.807L145.241 79.8073L93.2795 109.807Z" fill="#8BC5E4"/>
<path d="M95.1589 143.522L147.12 113.522L95.1589 143.522Z" fill="#8BC5E4"/>
<path d="M75.7859 151.667V148.807L127.747 118.807V121.667L75.7859 151.667Z" fill="#8BC5E4"/>
<path d="M75.7859 148.807L114.055 170.902L166.017 140.902L127.747 118.807L75.7859 148.807Z" fill="#8BC5E4"/>
<path d="M114.055 170.902V215.022L166.017 185.022V140.902L114.055 170.902Z" fill="#8BC5E4"/>
<path d="M114.055 215.022L75.7859 192.927L127.747 162.927L166.017 185.022L114.055 215.022Z" fill="#8BC5E4"/>
<path d="M75.7859 192.927V151.667L127.747 121.667V162.927L75.7859 192.927Z" fill="#8BC5E4"/>
<path d="M75.7859 151.667L127.747 121.667L75.7859 151.667Z" fill="#8BC5E4"/>
<path d="M80.6963 157.372L109.137 173.792L161.098 143.792L132.658 127.372L80.6963 157.372Z" fill="#8BC5E4"/>
<path d="M109.136 173.792V206.452L161.098 176.452V143.792L109.136 173.792Z" fill="#8BC5E4"/>
<path d="M109.137 206.452L80.6963 190.032L132.658 160.032L161.098 176.452L109.137 206.452Z" fill="#8BC5E4"/>
<path d="M80.6963 190.032V157.372L132.658 127.372V160.032L80.6963 190.032Z" fill="#8BC5E4"/>
<path d="M80.6963 157.372L132.658 127.372L80.6963 157.372Z" fill="#8BC5E4"/>
<path d="M93.2189 101.482C92.0151 100.787 90.7853 100.127 89.5469 99.5023L141.508 69.5023C142.747 70.1273 143.977 70.7873 145.18 71.4823L93.2189 101.482Z" fill="#8BC5E4"/>
<path d="M89.3131 99.3873C75.3149 92.8153 62.7369 92.8453 53.0659 98.5303L105.027 68.5303C114.698 62.8453 127.276 62.8153 141.275 69.3873L89.3131 99.3873Z" fill="#8BC5E4"/>
<path d="M53.0679 98.5293C43.7119 104.026 37.0759 114.815 34.5029 130.036L86.4644 100.036C89.0374 84.8153 95.6734 74.0263 105.029 68.5293L53.0679 98.5293Z" fill="#8BC5E4"/>
<path d="M34.5025 130.042C29.363 129.486 24.693 130.151 20.939 132.34L72.9005 102.34C76.6545 100.151 81.3245 99.4863 86.464 100.042L34.5025 130.042Z" fill="#8BC5E4"/>
<path d="M20.9321 132.344C20.3331 132.694 19.7571 133.083 19.2061 133.512L71.1676 103.512C71.7186 103.083 72.2946 102.694 72.8936 102.344L20.9321 132.344Z" fill="#8BC5E4"/>
<path d="M19.1998 133.517C14.7657 136.967 12.0291 143.087 12.0291 151.877L63.9906 121.877C63.9906 113.087 66.7272 106.967 71.1613 103.517L19.1998 133.517Z" fill="#8BC5E4"/>
<path d="M12.0291 151.877C12.0291 162.287 15.2507 173.957 22.4041 184.977L74.3656 154.977C67.2122 143.957 63.9906 132.287 63.9906 121.877L12.0291 151.877Z" fill="#8BC5E4"/>
<path d="M22.4041 184.977C27.2019 192.367 33.6191 199.332 41.7597 205.752L93.7213 175.752C85.5806 169.332 79.1634 162.367 74.3656 154.977L22.4041 184.977Z" fill="#8BC5E4"/>
<path d="M57.2617 220.182C68.1217 237.172 81.8482 250.347 93.6607 257.167L145.622 227.167C133.81 220.347 120.083 207.172 109.223 190.182L57.2617 220.182Z" fill="#8BC5E4"/>
<path d="M93.6606 257.167C109.584 266.36 123.694 266.167 133.555 260.617L185.517 230.617C175.656 236.167 161.546 236.36 145.622 227.167L93.6606 257.167Z" fill="#8BC5E4"/>
<path d="M133.563 260.612C134.342 260.173 135.095 259.701 135.82 259.197L187.781 229.197C187.056 229.701 186.303 230.173 185.524 230.612L133.563 260.612Z" fill="#8BC5E4"/>
<path d="M135.827 259.192C135.959 259.285 136.09 259.377 136.221 259.47L188.182 229.47C188.051 229.377 187.92 229.285 187.789 229.192L135.827 259.192Z" fill="#8BC5E4"/>
<path d="M136.221 259.47C149.075 268.531 160.442 276.543 172.512 282.492L224.474 252.492C212.403 246.543 201.037 238.531 188.182 229.47L136.221 259.47Z" fill="#8BC5E4"/>
<path d="M172.694 282.577C184.229 288.163 193.043 289.32 199.214 286.847L251.175 256.847C245.004 259.32 236.19 258.163 224.656 252.577L172.694 282.577Z" fill="#8BC5E4"/>
<path d="M199.21 286.848C199.761 286.627 200.292 286.377 200.801 286.099L252.762 256.099C252.253 256.377 251.722 256.627 251.171 256.848L199.21 286.848Z" fill="#8BC5E4"/>
<path d="M200.805 286.097C201.224 285.868 201.627 285.619 202.015 285.352L253.976 255.352C253.588 255.619 253.185 255.868 252.767 256.097L200.805 286.097Z" fill="#8BC5E4"/>
<path d="M202.015 285.352C207.385 281.654 209.871 274.4 209.873 265.459L261.834 235.459C261.832 244.4 259.346 251.654 253.976 255.352L202.015 285.352Z" fill="#8BC5E4"/>
<path d="M209.872 265.452C209.89 257.272 207.067 248.142 202.451 239.417L254.412 209.417C259.028 218.142 261.851 227.272 261.834 235.452L209.872 265.452Z" fill="#8BC5E4"/>
<path d="M202.451 239.417C198.138 231.267 192.257 223.392 185.442 216.247L237.403 186.247C244.219 193.392 250.099 201.267 254.412 209.417L202.451 239.417Z" fill="#8BC5E4"/>
<path d="M185.442 216.247C182.463 206.037 177.674 193.942 169.542 183.277L221.503 153.277C229.635 163.942 234.424 176.037 237.403 186.247L185.442 216.247Z" fill="#8BC5E4"/>
<path d="M169.412 183.112C160.483 171.727 151.554 166.822 143.5 164.022L195.462 134.022C203.516 136.822 212.445 141.727 221.373 153.112L169.412 183.112Z" fill="#8BC5E4"/>
<path d="M143.5 164.022C135.195 143.287 118.117 116.367 94.4661 102.202L146.428 72.2023C170.079 86.3673 187.157 113.287 195.462 134.022L143.5 164.022Z" fill="#8BC5E4"/>
<path d="M94.4661 102.202C94.0504 101.962 93.6347 101.712 93.219 101.472L145.18 71.4723C145.596 71.7123 146.012 71.9623 146.428 72.2023L94.4661 102.202Z" fill="#8BC5E4"/>
<path d="M90.8806 107.532C90.8806 107.532 90.8806 107.532 90.8893 107.537L142.851 77.5373C142.842 77.5323 142.842 77.5323 142.842 77.5323L90.8806 107.532Z" fill="#8BC5E4"/>
<path d="M93.2795 109.807C93.6432 110.017 94.007 110.237 94.3794 110.452L146.341 80.4523C145.969 80.2373 145.605 80.0173 145.241 79.8073L93.2795 109.807Z" fill="#8BC5E4"/>
<path d="M94.3794 110.452C116.472 123.727 132.051 149.762 138.694 167.887L190.655 137.887C184.013 119.762 168.433 93.7273 146.341 80.4523L94.3794 110.452Z" fill="#8BC5E4"/>
<path d="M142.556 172.157C150.619 174.632 157.937 178.117 165.861 188.232L217.823 158.232C209.899 148.117 202.581 144.632 194.518 142.157L142.556 172.157Z" fill="#8BC5E4"/>
<path d="M165.861 188.232C172.642 197.137 176.895 208.052 179.501 217.517L231.463 187.517C228.856 178.052 224.604 167.137 217.823 158.232L165.861 188.232Z" fill="#8BC5E4"/>
<path d="M181.562 221.097C188.135 227.752 193.557 235.012 197.229 241.952L249.19 211.952C245.518 205.012 240.097 197.752 233.524 191.097L181.562 221.097Z" fill="#8BC5E4"/>
<path d="M197.229 241.952C200.901 248.892 202.858 255.412 202.849 261.387L254.811 231.387C254.819 225.412 252.862 218.892 249.19 211.952L197.229 241.952Z" fill="#8BC5E4"/>
<path d="M202.849 261.397C202.849 268.587 201.011 273.917 196.893 276.723L248.855 246.723C252.973 243.917 254.811 238.587 254.811 231.397L202.849 261.397Z" fill="#8BC5E4"/>
<path d="M196.899 276.719C196.601 276.922 196.292 277.112 195.971 277.288L247.932 247.288C248.253 247.112 248.562 246.922 248.86 246.719L196.899 276.719Z" fill="#8BC5E4"/>
<path d="M195.964 277.292C195.536 277.526 195.084 277.736 194.608 277.92L246.569 247.92C247.045 247.736 247.497 247.526 247.926 247.292L195.964 277.292Z" fill="#8BC5E4"/>
<path d="M194.609 277.92C189.793 279.787 182.541 279.026 172.157 273.996L224.118 243.996C234.502 249.026 241.754 249.787 246.57 247.92L194.609 277.92Z" fill="#8BC5E4"/>
<path d="M172.149 273.992C160.171 268.107 148.679 259.902 134.814 250.137L186.776 220.137C200.641 229.902 212.133 238.107 224.11 243.992L172.149 273.992Z" fill="#8BC5E4"/>
<path d="M131.792 249.802C130.949 250.46 130.056 251.067 129.116 251.617L181.077 221.617C182.017 221.067 182.91 220.46 183.753 219.802L131.792 249.802Z" fill="#8BC5E4"/>
<path d="M129.116 251.616C120.429 256.699 107.707 256.975 93.666 248.87L145.628 218.87C159.669 226.975 172.391 226.699 181.078 221.616L129.116 251.616Z" fill="#8BC5E4"/>
<path d="M93.6605 248.867C83.8398 243.197 71.7241 231.662 62.2671 217.212L114.229 187.212C123.686 201.662 135.801 213.197 145.622 218.867L93.6605 248.867Z" fill="#8BC5E4"/>
<path d="M72.6594 211.062C79.1806 219.637 86.8969 226.882 95.1588 231.652L147.12 201.652C138.858 196.882 131.142 189.637 124.621 181.062L72.6594 211.062Z" fill="#8BC5E4"/>
<path d="M95.1589 231.652C106.584 238.248 116.971 238.913 124.586 234.667L176.548 204.667C168.933 208.913 158.546 208.248 147.12 201.652L95.1589 231.652Z" fill="#8BC5E4"/>
<path d="M124.594 234.662C132.482 230.259 137.392 220.582 137.395 206.767L189.356 176.767C189.353 190.582 184.443 200.259 176.555 204.662L124.594 234.662Z" fill="#8BC5E4"/>
<path d="M137.395 206.757C137.395 179.607 118.429 146.537 95.1589 133.102L147.12 103.102C170.391 116.537 189.356 149.607 189.356 176.757L137.395 206.757Z" fill="#8BC5E4"/>
<path d="M95.1588 133.102C83.7399 126.509 73.3569 125.841 65.7429 130.079L117.704 100.079C125.318 95.8413 135.701 96.5093 147.12 103.102L95.1588 133.102Z" fill="#8BC5E4"/>
<path d="M65.7351 130.084C57.8401 134.484 52.9251 144.16 52.9231 157.977L104.885 127.977C104.887 114.16 109.802 104.484 117.697 100.084L65.7351 130.084Z" fill="#8BC5E4"/>
<path d="M52.9229 157.987C52.9229 169.497 56.3264 182.062 62.0248 193.752L113.986 163.752C108.288 152.062 104.884 139.497 104.884 127.987L52.9229 157.987Z" fill="#8BC5E4"/>
<path d="M48.0123 202.052C38.183 195.207 31.324 188.007 26.8467 181.112L78.8082 151.112C83.2856 158.007 90.1445 165.207 99.9739 172.052L48.0123 202.052Z" fill="#8BC5E4"/>
<path d="M26.8467 181.112C21.3561 172.662 19.0525 164.422 19.0525 155.932L71.014 125.932C71.014 134.422 73.3176 142.662 78.8082 151.112L26.8467 181.112Z" fill="#8BC5E4"/>
<path d="M19.0525 155.932C19.0525 149.132 21.0443 144.712 24.4998 142.027L76.4613 112.027C73.0058 114.712 71.014 119.132 71.014 125.932L19.0525 155.932Z" fill="#8BC5E4"/>
<path d="M24.5 142.027C24.9311 141.691 25.3861 141.383 25.8631 141.105L77.8246 111.105C77.3476 111.383 76.8926 111.691 76.4615 112.027L24.5 142.027Z" fill="#8BC5E4"/>
<path d="M25.8621 141.105C29.2021 139.155 33.6471 138.612 38.7291 139.446L90.6906 109.446C85.6086 108.612 81.1636 109.155 77.8236 111.105L25.8621 141.105Z" fill="#8BC5E4"/>
<path d="M41.0496 137.482C43.118 122.587 49.247 112.237 58.015 107.153L109.976 77.1533C101.208 82.2373 95.0795 92.5873 93.0111 107.482L41.0496 137.482Z" fill="#8BC5E4"/>
<path d="M58.0249 107.148C66.5779 102.194 77.6429 102.25 89.9019 107.988L141.863 77.9883C129.604 72.2503 118.539 72.1943 109.986 77.1483L58.0249 107.148Z" fill="#8BC5E4"/>
<path d="M89.9109 107.992C91.054 108.572 92.1712 109.167 93.2797 109.807L145.241 79.8073C144.133 79.1673 143.015 78.5723 141.872 77.9923L89.9109 107.992Z" fill="#8BC5E4"/>
<path d="M95.1589 143.522C113.605 154.172 128.458 180.077 128.458 201.597L180.419 171.597C180.419 150.077 165.567 124.172 147.12 113.522L95.1589 143.522Z" fill="#8BC5E4"/>
<path d="M128.457 201.597C128.458 212.557 124.605 220.208 118.388 223.672L170.349 193.672C176.566 190.208 180.419 182.557 180.419 171.597L128.457 201.597Z" fill="#8BC5E4"/>
<path d="M118.391 223.67C112.401 227.008 104.216 226.459 95.166 221.236L147.128 191.236C156.178 196.459 164.363 197.008 170.353 193.67L118.391 223.67Z" fill="#8BC5E4"/>
<path d="M95.1588 221.232C76.7124 210.582 61.8601 184.667 61.8601 163.147L113.822 133.147C113.822 154.667 128.674 180.582 147.12 191.232L95.1588 221.232Z" fill="#8BC5E4"/>
<path d="M61.8601 163.147C61.8599 152.187 65.7119 144.538 71.9299 141.077L123.891 111.077C117.673 114.538 113.821 122.187 113.822 133.147L61.8601 163.147Z" fill="#8BC5E4"/>
<path d="M71.927 141.079C77.917 137.743 86.102 138.295 95.152 143.518L147.114 113.518C138.063 108.295 129.879 107.743 123.889 111.079L71.927 141.079Z" fill="#8BC5E4"/>
<path d="M184.922 216.757C184.914 216.742 184.896 216.722 184.888 216.717L236.849 186.717C236.858 186.722 236.875 186.742 236.884 186.757L184.922 216.757Z" fill="#8BC5E4"/>
<path d="M184.888 216.717C184.879 216.692 184.879 216.682 184.87 216.667L236.832 186.667C236.841 186.682 236.841 186.692 236.849 186.717L184.888 216.717Z" fill="#8BC5E4"/>
<path d="M35.1693 131.127C35.1693 131.137 35.1606 131.152 35.1606 131.172L87.1222 101.172C87.1222 101.152 87.1308 101.137 87.1308 101.127L35.1693 131.127Z" fill="#8BC5E4"/>
<path d="M35.1607 131.172C35.1434 131.172 35.1174 131.167 35.1001 131.167L87.0616 101.167C87.079 101.167 87.1049 101.172 87.1223 101.172L35.1607 131.172Z" fill="#8BC5E4"/>
<path d="M211.232 152.827C214.454 154.687 216.974 159.082 216.974 162.842L268.936 132.842C268.936 129.082 266.416 124.687 263.194 122.827L211.232 152.827Z" fill="#8BC5E4"/>
<path d="M216.974 338.422C216.974 340.29 216.349 341.596 215.323 342.206L267.284 312.206C268.31 311.596 268.935 310.29 268.935 308.422L216.974 338.422Z" fill="#8BC5E4"/>
<path d="M215.325 342.205C214.292 342.821 212.853 342.732 211.237 341.8L263.199 311.8C264.815 312.732 266.254 312.821 267.287 312.205L215.325 342.205Z" fill="#8BC5E4"/>
<path d="M10.4702 225.887C7.24862 224.027 4.72852 219.632 4.72852 215.882L56.69 185.882C56.69 189.632 59.2102 194.027 62.4318 195.887L10.4702 225.887Z" fill="#8BC5E4"/>
<path d="M4.72852 40.3024C4.72802 38.3934 5.37802 37.0704 6.44002 36.4744L58.4015 6.47437C57.3395 7.07037 56.6895 8.39337 56.69 10.3024L4.72852 40.3024Z" fill="#8BC5E4"/>
<path d="M6.44995 36.4683C7.47795 35.8973 8.88695 36.0043 10.466 36.9143L62.4275 6.91429C60.8485 6.00429 59.4394 5.89729 58.4114 6.46829L6.44995 36.4683Z" fill="#8BC5E4"/>
<path d="M10.4702 31.4072C7.57898 29.7382 4.95298 29.6052 3.05298 30.7362L55.0145 0.736245C56.9145 -0.394755 59.5405 -0.261755 62.4318 1.40725L10.4702 31.4072Z" fill="#8BC5E4"/>
<path d="M3.045 30.7413C1.167 31.8643 0.002 34.2253 0 37.5623L51.9615 7.56233C51.9635 4.22533 53.1285 1.86433 55.0065 0.741333L3.045 30.7413Z" fill="#8BC5E4"/>
<path d="M0 213.152C0 219.862 4.7112 228.082 10.4702 231.407L62.4318 201.407C56.6727 198.082 51.9615 189.862 51.9615 183.152L0 213.152Z" fill="#8BC5E4"/>
<path d="M211.232 347.317C214.123 348.986 216.75 349.117 218.649 347.984L270.611 317.984C268.712 319.117 266.085 318.986 263.194 317.317L211.232 347.317Z" fill="#8BC5E4"/>
<path d="M218.658 347.979C220.536 346.855 221.7 344.494 221.702 341.162L273.663 311.162C273.661 314.494 272.497 316.855 270.619 317.979L218.658 347.979Z" fill="#8BC5E4"/>
<path d="M221.703 165.572C221.703 158.852 216.991 150.642 211.232 147.317L263.194 117.317C268.953 120.642 273.664 128.852 273.664 135.572L221.703 165.572Z" fill="#8BC5E4"/>
<path d="M211.232 152.827C214.454 154.687 216.974 159.082 216.974 162.842L268.936 132.842C268.936 129.082 266.416 124.687 263.194 122.827L211.232 152.827Z" fill="#8BC5E4"/>
<path d="M216.974 338.422C216.974 340.29 216.349 341.596 215.323 342.206L267.284 312.206C268.31 311.596 268.935 310.29 268.935 308.422L216.974 338.422Z" fill="#8BC5E4"/>
<path d="M215.325 342.205C214.292 342.821 212.853 342.732 211.237 341.8L263.199 311.8C264.815 312.732 266.254 312.821 267.287 312.205L215.325 342.205Z" fill="#8BC5E4"/>
<path d="M10.4702 225.887C7.24862 224.027 4.72852 219.632 4.72852 215.882L56.69 185.882C56.69 189.632 59.2102 194.027 62.4318 195.887L10.4702 225.887Z" fill="#8BC5E4"/>
<path d="M4.72852 40.3024C4.72802 38.3934 5.37802 37.0704 6.44002 36.4744L58.4015 6.47437C57.3395 7.07037 56.6895 8.39337 56.69 10.3024L4.72852 40.3024Z" fill="#8BC5E4"/>
<path d="M6.44995 36.4683C7.47795 35.8973 8.88695 36.0043 10.466 36.9143L62.4275 6.91429C60.8485 6.00429 59.4394 5.89729 58.4114 6.46829L6.44995 36.4683Z" fill="#8BC5E4"/>
<path d="M89.5469 99.5023C90.7853 100.127 92.0151 100.787 93.2189 101.482L145.18 71.4823C143.977 70.7873 142.747 70.1273 141.508 69.5023L89.5469 99.5023Z" fill="#8BC5E4"/>
<path d="M93.219 101.472C93.6347 101.712 94.0504 101.962 94.4661 102.202L146.428 72.2023C146.012 71.9623 145.596 71.7123 145.18 71.4723L93.219 101.472Z" fill="#8BC5E4"/>
<path d="M94.4661 102.202C118.117 116.367 135.195 143.287 143.5 164.022L195.462 134.022C187.157 113.287 170.079 86.3673 146.428 72.2023L94.4661 102.202Z" fill="#8BC5E4"/>
<path d="M143.5 164.022C151.554 166.822 160.483 171.727 169.412 183.112L221.373 153.112C212.445 141.727 203.516 136.822 195.462 134.022L143.5 164.022Z" fill="#8BC5E4"/>
<path d="M169.542 183.277C177.674 193.942 182.463 206.037 185.442 216.247L237.403 186.247C234.424 176.037 229.635 163.942 221.503 153.277L169.542 183.277Z" fill="#8BC5E4"/>
<path d="M185.442 216.247C192.257 223.392 198.138 231.267 202.451 239.417L254.412 209.417C250.099 201.267 244.219 193.392 237.403 186.247L185.442 216.247Z" fill="#8BC5E4"/>
<path d="M202.451 239.417C207.067 248.142 209.89 257.272 209.872 265.452L261.834 235.452C261.851 227.272 259.028 218.142 254.412 209.417L202.451 239.417Z" fill="#8BC5E4"/>
<path d="M209.872 265.452C209.873 274.396 207.387 281.652 202.015 285.352L253.976 255.352C259.348 251.652 261.834 244.396 261.834 235.452L209.872 265.452Z" fill="#8BC5E4"/>
<path d="M202.019 285.349C201.631 285.617 201.228 285.865 200.81 286.095L252.772 256.095C253.19 255.865 253.593 255.617 253.981 255.349L202.019 285.349Z" fill="#8BC5E4"/>
<path d="M200.805 286.097C200.296 286.375 199.766 286.626 199.214 286.847L251.176 256.847C251.728 256.626 252.258 256.375 252.767 256.097L200.805 286.097Z" fill="#8BC5E4"/>
<path d="M199.214 286.847C193.044 289.32 184.231 288.163 172.699 282.579L224.66 252.579C236.192 258.163 245.005 259.32 251.175 256.847L199.214 286.847Z" fill="#8BC5E4"/>
<path d="M172.512 282.492C160.442 276.543 149.075 268.531 136.221 259.47L188.182 229.47C201.037 238.531 212.403 246.543 224.474 252.492L172.512 282.492Z" fill="#8BC5E4"/>
<path d="M135.827 259.192C135.098 259.7 134.34 260.175 133.555 260.617L185.516 230.617C186.301 230.175 187.059 229.7 187.789 229.192L135.827 259.192Z" fill="#8BC5E4"/>
<path d="M133.555 260.617C123.696 266.166 109.588 266.361 93.667 257.171L145.628 227.171C161.549 236.361 175.657 236.166 185.516 230.617L133.555 260.617Z" fill="#8BC5E4"/>
<path d="M93.6607 257.167C81.8482 250.347 68.1217 237.172 57.2617 220.182L109.223 190.182C120.083 207.172 133.81 220.347 145.622 227.167L93.6607 257.167Z" fill="#8BC5E4"/>
<path d="M41.7597 205.752C33.6191 199.332 27.2019 192.367 22.4041 184.977L74.3656 154.977C79.1634 162.367 85.5806 169.332 93.7213 175.752L41.7597 205.752Z" fill="#8BC5E4"/>
<path d="M22.4041 184.977C15.2507 173.957 12.0291 162.287 12.0291 151.877L63.9906 121.877C63.9906 132.287 67.2122 143.957 74.3656 154.977L22.4041 184.977Z" fill="#8BC5E4"/>
<path d="M12.0291 151.877C12.0291 143.087 14.7657 136.967 19.1998 133.517L71.1613 103.517C66.7272 106.967 63.9906 113.087 63.9906 121.877L12.0291 151.877Z" fill="#8BC5E4"/>
<path d="M19.1997 133.517C19.7549 133.084 20.3349 132.692 20.9389 132.34L72.9004 102.34C72.2964 102.692 71.7164 103.084 71.1612 103.517L19.1997 133.517Z" fill="#8BC5E4"/>
<path d="M20.938 132.341C24.69 130.153 29.357 129.487 34.494 130.041L86.4555 100.041C81.3185 99.4872 76.6515 100.153 72.8995 102.341L20.938 132.341Z" fill="#8BC5E4"/>
<path d="M34.5024 130.042C37.0739 114.819 43.7099 104.029 53.0659 98.5303L105.027 68.5303C95.6714 74.0293 89.0354 84.8193 86.4639 100.042L34.5024 130.042Z" fill="#8BC5E4"/>
<path d="M53.064 98.5314C62.735 92.8464 75.311 92.8154 89.308 99.3854L141.269 69.3854C127.272 62.8154 114.696 62.8464 105.025 68.5314L53.064 98.5314Z" fill="#8BC5E4"/>
<path d="M93.2795 109.807C93.6432 110.017 94.007 110.237 94.3794 110.452L146.341 80.4523C145.969 80.2373 145.605 80.0173 145.241 79.8073L93.2795 109.807Z" fill="#8BC5E4"/>
<path d="M94.3794 110.452C116.472 123.727 132.051 149.762 138.694 167.887L190.655 137.887C184.013 119.762 168.433 93.7273 146.341 80.4523L94.3794 110.452Z" fill="#8BC5E4"/>
<path d="M142.556 172.157C150.619 174.632 157.937 178.117 165.861 188.232L217.823 158.232C209.899 148.117 202.581 144.632 194.518 142.157L142.556 172.157Z" fill="#8BC5E4"/>
<path d="M165.861 188.232C172.642 197.137 176.895 208.052 179.501 217.517L231.463 187.517C228.856 178.052 224.604 167.137 217.823 158.232L165.861 188.232Z" fill="#8BC5E4"/>
<path d="M181.562 221.097C188.135 227.752 193.557 235.012 197.229 241.952L249.19 211.952C245.518 205.012 240.097 197.752 233.524 191.097L181.562 221.097Z" fill="#8BC5E4"/>
<path d="M197.229 241.952C200.901 248.892 202.858 255.412 202.849 261.387L254.811 231.387C254.819 225.412 252.862 218.892 249.19 211.952L197.229 241.952Z" fill="#8BC5E4"/>
<path d="M202.849 261.397C202.849 268.587 201.011 273.917 196.893 276.723L248.855 246.723C252.973 243.917 254.811 238.587 254.811 231.397L202.849 261.397Z" fill="#8BC5E4"/>
<path d="M196.899 276.719C196.601 276.922 196.292 277.112 195.971 277.288L247.932 247.288C248.253 247.112 248.562 246.922 248.86 246.719L196.899 276.719Z" fill="#8BC5E4"/>
<path d="M195.964 277.292C195.536 277.526 195.084 277.736 194.608 277.92L246.569 247.92C247.045 247.736 247.497 247.526 247.926 247.292L195.964 277.292Z" fill="#8BC5E4"/>
<path d="M194.609 277.92C189.793 279.787 182.541 279.026 172.157 273.996L224.118 243.996C234.502 249.026 241.754 249.787 246.57 247.92L194.609 277.92Z" fill="#8BC5E4"/>
<path d="M172.149 273.992C160.171 268.107 148.679 259.902 134.814 250.137L186.776 220.137C200.641 229.902 212.133 238.107 224.11 243.992L172.149 273.992Z" fill="#8BC5E4"/>
<path d="M131.792 249.802C130.949 250.46 130.056 251.067 129.116 251.617L181.077 221.617C182.017 221.067 182.91 220.46 183.753 219.802L131.792 249.802Z" fill="#8BC5E4"/>
<path d="M129.116 251.616C120.429 256.699 107.707 256.975 93.666 248.87L145.628 218.87C159.669 226.975 172.391 226.699 181.078 221.616L129.116 251.616Z" fill="#8BC5E4"/>
<path d="M93.6605 248.867C83.8398 243.197 71.7241 231.662 62.2671 217.212L114.229 187.212C123.686 201.662 135.801 213.197 145.622 218.867L93.6605 248.867Z" fill="#8BC5E4"/>
<path d="M72.6594 211.062C79.1806 219.637 86.8969 226.882 95.1588 231.652L147.12 201.652C138.858 196.882 131.142 189.637 124.621 181.062L72.6594 211.062Z" fill="#8BC5E4"/>
<path d="M95.1589 231.652C106.584 238.248 116.971 238.913 124.586 234.667L176.548 204.667C168.933 208.913 158.546 208.248 147.12 201.652L95.1589 231.652Z" fill="#8BC5E4"/>
<path d="M124.594 234.662C132.482 230.259 137.392 220.582 137.395 206.767L189.356 176.767C189.353 190.582 184.443 200.259 176.555 204.662L124.594 234.662Z" fill="#8BC5E4"/>
<path d="M137.395 206.757C137.395 179.607 118.429 146.537 95.1589 133.102L147.12 103.102C170.391 116.537 189.356 149.607 189.356 176.757L137.395 206.757Z" fill="#8BC5E4"/>
<path d="M95.1588 133.102C83.7399 126.509 73.3569 125.841 65.7429 130.079L117.704 100.079C125.318 95.8413 135.701 96.5093 147.12 103.102L95.1588 133.102Z" fill="#8BC5E4"/>
<path d="M65.7351 130.084C57.8401 134.484 52.9251 144.16 52.9231 157.977L104.885 127.977C104.887 114.16 109.802 104.484 117.697 100.084L65.7351 130.084Z" fill="#8BC5E4"/>
<path d="M52.9229 157.987C52.9229 169.497 56.3264 182.062 62.0248 193.752L113.986 163.752C108.288 152.062 104.884 139.497 104.884 127.987L52.9229 157.987Z" fill="#8BC5E4"/>
<path d="M48.0123 202.052C38.183 195.207 31.324 188.007 26.8467 181.112L78.8082 151.112C83.2856 158.007 90.1445 165.207 99.9739 172.052L48.0123 202.052Z" fill="#8BC5E4"/>
<path d="M26.8467 181.112C21.3561 172.662 19.0525 164.422 19.0525 155.932L71.014 125.932C71.014 134.422 73.3176 142.662 78.8082 151.112L26.8467 181.112Z" fill="#8BC5E4"/>
<path d="M19.0525 155.932C19.0525 149.132 21.0443 144.712 24.4998 142.027L76.4613 112.027C73.0058 114.712 71.014 119.132 71.014 125.932L19.0525 155.932Z" fill="#8BC5E4"/>
<path d="M24.5 142.027C24.9311 141.691 25.3861 141.383 25.8631 141.105L77.8246 111.105C77.3476 111.383 76.8926 111.691 76.4615 112.027L24.5 142.027Z" fill="#8BC5E4"/>
<path d="M25.8621 141.105C29.2021 139.155 33.6471 138.612 38.7291 139.446L90.6906 109.446C85.6086 108.612 81.1636 109.155 77.8236 111.105L25.8621 141.105Z" fill="#8BC5E4"/>
<path d="M41.0496 137.482C43.118 122.587 49.247 112.237 58.015 107.153L109.976 77.1533C101.208 82.2373 95.0795 92.5873 93.0111 107.482L41.0496 137.482Z" fill="#8BC5E4"/>
<path d="M58.0249 107.148C66.5779 102.194 77.6429 102.25 89.9019 107.988L141.863 77.9883C129.604 72.2503 118.539 72.1943 109.986 77.1483L58.0249 107.148Z" fill="#8BC5E4"/>
<path d="M89.9109 107.992C91.054 108.572 92.1712 109.167 93.2797 109.807L145.241 79.8073C144.133 79.1673 143.015 78.5723 141.872 77.9923L89.9109 107.992Z" fill="#8BC5E4"/>
<path d="M95.1589 143.522C113.605 154.172 128.458 180.077 128.458 201.597L180.419 171.597C180.419 150.077 165.567 124.172 147.12 113.522L95.1589 143.522Z" fill="#8BC5E4"/>
<path d="M128.457 201.597C128.458 212.557 124.605 220.208 118.388 223.672L170.349 193.672C176.566 190.208 180.419 182.557 180.419 171.597L128.457 201.597Z" fill="#8BC5E4"/>
<path d="M118.391 223.67C112.401 227.008 104.216 226.459 95.166 221.236L147.128 191.236C156.178 196.459 164.363 197.008 170.353 193.67L118.391 223.67Z" fill="#8BC5E4"/>
<path d="M95.1588 221.232C76.7124 210.582 61.8601 184.667 61.8601 163.147L113.822 133.147C113.822 154.667 128.674 180.582 147.12 191.232L95.1588 221.232Z" fill="#8BC5E4"/>
<path d="M61.8601 163.147C61.8599 152.187 65.7119 144.538 71.9299 141.077L123.891 111.077C117.673 114.538 113.821 122.187 113.822 133.147L61.8601 163.147Z" fill="#8BC5E4"/>
<path d="M71.927 141.079C77.917 137.743 86.102 138.295 95.152 143.518L147.114 113.518C138.063 108.295 129.879 107.743 123.889 111.079L71.927 141.079Z" fill="#8BC5E4"/>
<path d="M93.219 101.482C92.0152 100.787 90.7854 100.127 89.547 99.5023L89.4951 99.4723L89.3132 99.3873C61.7736 86.4573 39.7332 99.0823 34.5025 130.042C28.5355 129.397 23.2008 130.397 19.1998 133.517C14.7657 136.967 12.0291 143.087 12.0291 151.877C12.0291 162.287 15.2507 173.957 22.4041 184.977C27.2019 192.367 33.6191 199.332 41.7597 205.752L36.477 208.882L46.5922 226.502L57.2616 220.182C68.1216 237.172 81.8481 250.347 93.6606 257.167C110.851 267.092 125.929 266.077 135.827 259.192C135.959 259.285 136.09 259.377 136.221 259.47C149.075 268.531 160.442 276.543 172.512 282.492L172.573 282.527L172.677 282.577L172.694 282.577C185.26 288.662 194.596 289.492 200.805 286.097C207.015 282.692 209.873 275.042 209.873 265.452C209.89 257.272 207.067 248.142 202.451 239.417C198.138 231.267 192.258 223.392 185.442 216.247C182.463 206.037 177.674 193.942 169.542 183.277L169.455 183.167L169.412 183.112C160.483 171.727 151.554 166.822 143.5 164.022C135.195 143.287 118.117 116.367 94.4661 102.202C94.0504 101.962 93.6347 101.712 93.219 101.472V101.482ZM90.8894 107.537L91.0366 108.282L90.8807 107.532C90.8807 107.532 90.8807 107.532 90.8894 107.537ZM93.2796 109.807C93.6433 110.017 94.0071 110.237 94.3794 110.452C116.472 123.727 132.052 149.762 138.694 167.887L139.967 171.382L142.574 172.167L142.556 172.157C150.619 174.632 157.937 178.117 165.861 188.232C172.642 197.137 176.894 208.052 179.501 217.517L180.073 219.587L181.554 221.092L181.562 221.097C188.135 227.752 193.557 235.012 197.229 241.952C200.901 248.892 202.858 255.412 202.849 261.387V261.397C202.849 269.107 200.736 274.677 195.964 277.292C191.192 279.897 183.563 279.522 172.149 273.992C160.171 268.107 148.679 259.902 134.814 250.137L132.996 248.867L131.792 249.792V249.802C123.166 256.542 109.223 257.852 93.6606 248.867C83.8399 243.197 71.7242 231.662 62.2672 217.212L72.6595 211.062C79.1807 219.637 86.897 226.882 95.1589 231.652C118.429 245.087 137.395 233.917 137.395 206.757C137.395 179.607 118.429 146.537 95.1589 133.102C71.8888 119.667 52.9228 130.837 52.9228 157.987C52.9228 169.497 56.3263 182.062 62.0247 193.752L48.0124 202.052C38.1831 195.207 31.3241 188.007 26.8468 181.112C21.3562 172.662 19.0526 164.422 19.0526 155.932C19.0526 149.132 21.0444 144.712 24.4999 142.027C27.9466 139.337 32.9263 138.492 38.7373 139.447V139.437L40.7292 139.767L41.0496 137.492V137.482C45.1372 108.052 65.0731 96.3623 89.9108 107.992C91.0539 108.572 92.1711 109.167 93.2796 109.807ZM95.1589 143.522C113.605 154.172 128.458 180.077 128.458 201.597C128.458 223.117 113.605 231.882 95.1589 221.232C76.7125 210.582 61.8602 184.667 61.8602 163.147C61.8602 141.627 76.7125 132.872 95.1589 143.522ZM75.7859 148.807V151.667V192.927L114.056 215.022V170.902L75.7859 148.807ZM184.87 216.667L184.905 216.707L184.922 216.757C184.914 216.742 184.896 216.722 184.888 216.717C184.879 216.692 184.879 216.682 184.87 216.667ZM80.6962 157.372L109.137 173.792V206.452L80.6962 190.032V157.372ZM35.1693 131.127C35.1693 131.137 35.1606 131.152 35.1606 131.172C35.1433 131.172 35.1173 131.167 35.1 131.167V131.157L35.1433 131.112L35.1693 131.127ZM10.4702 36.9173L211.232 152.827C214.454 154.687 216.974 159.082 216.974 162.842V338.422C216.974 342.172 214.454 343.657 211.232 341.797L10.4702 225.887C7.24863 224.027 4.7285 219.632 4.7285 215.882V40.3023C4.7285 36.5423 7.24863 35.0573 10.4702 36.9173ZM10.4702 31.4073C4.71118 28.0823 0 30.8523 0 37.5723V213.152C0 219.862 4.71118 228.082 10.4702 231.407L211.232 347.317C216.991 350.642 221.702 347.862 221.702 341.152V165.572C221.702 158.852 216.991 150.642 211.232 147.317L10.4702 31.4073Z" fill="#8BC5E4"/>
<path fill-rule="evenodd" clip-rule="evenodd" d="M10.4702 36.9173L211.232 152.827C214.454 154.687 216.974 159.082 216.974 162.842V338.422C216.974 342.172 214.454 343.657 211.232 341.797L10.4702 225.887C7.24863 224.027 4.7285 219.632 4.7285 215.882V40.3023C4.7285 36.5423 7.24863 35.0573 10.4702 36.9173ZM89.547 99.5023C90.7854 100.127 92.0152 100.787 93.219 101.482V101.472C93.6347 101.712 94.0504 101.962 94.4661 102.202C118.117 116.367 135.195 143.287 143.5 164.022C151.554 166.822 160.483 171.727 169.412 183.112L169.455 183.167L169.542 183.277C177.674 193.942 182.463 206.037 185.442 216.247C192.258 223.392 198.138 231.267 202.451 239.417C207.067 248.142 209.89 257.272 209.873 265.452C209.873 275.042 207.015 282.692 200.805 286.097C194.596 289.492 185.26 288.662 172.694 282.577L172.677 282.577L172.573 282.527L172.512 282.492C160.442 276.543 149.075 268.531 136.221 259.47L135.827 259.192C125.929 266.077 110.851 267.092 93.6606 257.167C81.8481 250.347 68.1216 237.172 57.2616 220.182L46.5922 226.502L36.477 208.882L41.7597 205.752C33.6191 199.332 27.2019 192.367 22.4041 184.977C15.2507 173.957 12.0291 162.287 12.0291 151.877C12.0291 143.087 14.7657 136.967 19.1998 133.517C23.2008 130.397 28.5355 129.397 34.5025 130.042C39.7332 99.0823 61.7736 86.4573 89.3132 99.3873L89.4951 99.4723L89.547 99.5023Z" fill="white"/>
<path d="M93.2796 109.807C93.6433 110.017 94.0071 110.237 94.3794 110.452C116.472 123.727 132.052 149.762 138.694 167.887L139.967 171.382L142.574 172.167L142.556 172.157C150.619 174.632 157.937 178.117 165.861 188.232C172.642 197.137 176.894 208.052 179.501 217.517L180.073 219.587L181.554 221.092L181.562 221.097C188.135 227.752 193.557 235.012 197.229 241.952C200.901 248.892 202.858 255.412 202.849 261.387V261.397C202.849 269.107 200.736 274.677 195.964 277.292C191.192 279.897 183.563 279.522 172.149 273.992C160.171 268.107 148.679 259.902 134.814 250.137L132.996 248.867L131.792 249.792V249.802C123.166 256.542 109.223 257.852 93.6606 248.867C83.8399 243.197 71.7242 231.662 62.2672 217.212L72.6595 211.062C79.1807 219.637 86.897 226.882 95.1589 231.652C118.429 245.087 137.395 233.917 137.395 206.757C137.395 179.607 118.429 146.537 95.1589 133.102C71.8888 119.667 52.9228 130.837 52.9228 157.987C52.9228 169.497 56.3263 182.062 62.0247 193.752L48.0124 202.052C38.1831 195.207 31.3241 188.007 26.8468 181.112C21.3562 172.662 19.0526 164.422 19.0526 155.932C19.0526 149.132 21.0444 144.712 24.4999 142.027C27.9466 139.337 32.9263 138.492 38.7373 139.447V139.437L40.7292 139.767L41.0496 137.492V137.482C45.1372 108.052 65.0731 96.3623 89.9108 107.992C91.0539 108.572 92.1711 109.167 93.2796 109.807Z" fill="white"/>
<path fill-rule="evenodd" clip-rule="evenodd" d="M95.1589 143.522C113.605 154.172 128.458 180.077 128.458 201.597C128.458 223.117 113.605 231.882 95.1589 221.232C76.7125 210.582 61.8602 184.667 61.8602 163.147C61.8602 141.627 76.7125 132.872 95.1589 143.522ZM75.7859 151.667V148.807L114.056 170.902V215.022L75.7859 192.927V151.667Z" fill="white"/>
<path d="M80.6962 157.372L109.137 173.792V206.452L80.6962 190.032V157.372Z" fill="white"/>
</svg>
