<svg width="226" height="326" viewBox="0 0 226 326" fill="none" xmlns="http://www.w3.org/2000/svg">
<path d="M59.3141 182.407L33.3766 197.322L85.3381 167.322L111.276 152.407L59.3141 182.407Z" fill="#8BC5E4"/>
<path d="M33.3766 197.322L43.6477 215.022L95.6092 185.022L85.3381 167.322L33.3766 197.322Z" fill="#8BC5E4"/>
<path d="M43.6477 215.022L70.1134 199.812L122.075 169.812L95.6092 185.022L43.6477 215.022Z" fill="#8BC5E4"/>
<path d="M92.9506 122.047L144.912 92.0474L92.9506 122.047Z" fill="#8BC5E4"/>
<path d="M92.9506 132.477L144.912 102.477L92.9506 132.477Z" fill="#8BC5E4"/>
<path d="M73.2831 137.582V140.452L125.245 110.452V107.582L73.2831 137.582Z" fill="#8BC5E4"/>
<path d="M73.2831 140.452V181.702L125.245 151.702V110.452L73.2831 140.452Z" fill="#8BC5E4"/>
<path d="M73.2831 181.702L112.133 204.132L164.094 174.132L125.245 151.702L73.2831 181.702Z" fill="#8BC5E4"/>
<path d="M112.133 204.132V160.012L164.095 130.012V174.132L112.133 204.132Z" fill="#8BC5E4"/>
<path d="M112.133 160.012L73.2831 137.582L125.245 107.582L164.094 130.012L112.133 160.012Z" fill="#8BC5E4"/>
<path d="M73.2831 137.582L125.245 107.582L73.2831 137.582Z" fill="#8BC5E4"/>
<path d="M78.2714 146.192L107.145 162.862L159.106 132.862L130.233 116.192L78.2714 146.192Z" fill="#8BC5E4"/>
<path d="M107.145 162.862V195.522L159.106 165.522V132.862L107.145 162.862Z" fill="#8BC5E4"/>
<path d="M107.145 195.522L78.2714 178.852L130.233 148.852L159.106 165.522L107.145 195.522Z" fill="#8BC5E4"/>
<path d="M78.2714 178.852V146.192L130.233 116.192V148.852L78.2714 178.852Z" fill="#8BC5E4"/>
<path d="M78.2714 146.192L130.233 116.192L78.2714 146.192Z" fill="#8BC5E4"/>
<path d="M0 37.5224V213.092L51.9615 183.092V7.5224L0 37.5224Z" fill="#8BC5E4"/>
<path d="M10.6261 231.447L162.579 319.177L214.54 289.177L62.5877 201.447L10.6261 231.447Z" fill="#8BC5E4"/>
<path d="M173.205 313.092V137.522L225.167 107.522V283.092L173.205 313.092Z" fill="#8BC5E4"/>
<path d="M162.579 119.177L10.6261 31.4474L62.5877 1.44739L214.54 89.1774L162.579 119.177Z" fill="#8BC5E4"/>
<path d="M10.6261 31.4474L62.5877 1.44739L10.6261 31.4474Z" fill="#8BC5E4"/>
<path d="M10.6261 36.9674L162.579 124.697L214.54 94.6974L62.5877 6.96741L10.6261 36.9674Z" fill="#8BC5E4"/>
<path d="M168.407 134.752V310.322L220.369 280.322V104.752L168.407 134.752Z" fill="#8BC5E4"/>
<path d="M162.579 313.657L10.6261 225.927L62.5877 195.927L214.54 283.657L162.579 313.657Z" fill="#8BC5E4"/>
<path d="M4.79785 215.862V40.2924L56.7593 10.2924V185.862L4.79785 215.862Z" fill="#8BC5E4"/>
<path d="M10.6261 36.9674L62.5877 6.96741L10.6261 36.9674Z" fill="#8BC5E4"/>
<path d="M10.6261 36.9674L162.579 124.697L214.54 94.6974L62.5877 6.96741L10.6261 36.9674Z" fill="#8BC5E4"/>
<path d="M168.407 134.752V310.322L220.369 280.322V104.752L168.407 134.752Z" fill="#8BC5E4"/>
<path d="M162.579 313.657L10.6261 225.927L62.5877 195.927L214.54 283.657L162.579 313.657Z" fill="#8BC5E4"/>
<path d="M4.79785 215.862V40.2924L56.7593 10.2924V185.862L4.79785 215.862Z" fill="#8BC5E4"/>
<path d="M10.6261 36.9674L62.5877 6.96741L10.6261 36.9674Z" fill="#8BC5E4"/>
<path d="M70.1134 199.812L43.6477 215.022L95.6092 185.022L122.075 169.812L70.1134 199.812Z" fill="#8BC5E4"/>
<path d="M43.6477 215.022L33.3766 197.322L85.3381 167.322L95.6092 185.022L43.6477 215.022Z" fill="#8BC5E4"/>
<path d="M33.3766 197.322L59.3141 182.407L111.276 152.407L85.3381 167.322L33.3766 197.322Z" fill="#8BC5E4"/>
<path d="M50.0823 146.577L102.044 116.577L50.0823 146.577Z" fill="#8BC5E4"/>
<path d="M92.9506 132.477L144.912 102.477L92.9506 132.477Z" fill="#8BC5E4"/>
<path d="M73.2831 140.452V137.582L125.245 107.582V110.452L73.2831 140.452Z" fill="#8BC5E4"/>
<path d="M73.2831 137.582L112.133 160.012L164.094 130.012L125.245 107.582L73.2831 137.582Z" fill="#8BC5E4"/>
<path d="M112.133 160.012V204.132L164.095 174.132V130.012L112.133 160.012Z" fill="#8BC5E4"/>
<path d="M112.133 204.132L73.2831 181.702L125.245 151.702L164.094 174.132L112.133 204.132Z" fill="#8BC5E4"/>
<path d="M73.2831 181.702V140.452L125.245 110.452V151.702L73.2831 181.702Z" fill="#8BC5E4"/>
<path d="M73.2831 140.452L125.245 110.452L73.2831 140.452Z" fill="#8BC5E4"/>
<path d="M78.2714 146.192L107.145 162.862L159.106 132.862L130.233 116.192L78.2714 146.192Z" fill="#8BC5E4"/>
<path d="M107.145 162.862V195.522L159.106 165.522V132.862L107.145 162.862Z" fill="#8BC5E4"/>
<path d="M107.145 195.522L78.2714 178.852L130.233 148.852L159.106 165.522L107.145 195.522Z" fill="#8BC5E4"/>
<path d="M78.2714 178.852V146.192L130.233 116.192V148.852L78.2714 178.852Z" fill="#8BC5E4"/>
<path d="M78.2714 146.192L130.233 116.192L78.2714 146.192Z" fill="#8BC5E4"/>
<path d="M92.9505 122.047C81.167 115.244 70.473 114.575 62.714 118.983L114.675 88.9834C122.434 84.5754 133.128 85.2444 144.912 92.0474L92.9505 122.047Z" fill="#8BC5E4"/>
<path d="M62.717 118.982C54.92 123.409 50.085 132.962 50.082 146.567L102.044 116.567C102.047 102.962 106.882 93.4094 114.679 88.9824L62.717 118.982Z" fill="#8BC5E4"/>
<path d="M50.0823 146.577C50.0823 158.077 53.5377 170.672 59.3141 182.407L111.276 152.407C105.499 140.672 102.044 128.077 102.044 116.577L50.0823 146.577Z" fill="#8BC5E4"/>
<path d="M70.1134 199.812C76.7298 208.442 84.5674 215.757 92.9505 220.597L144.912 190.597C136.529 185.757 128.691 178.442 122.075 169.812L70.1134 199.812Z" fill="#8BC5E4"/>
<path d="M92.9506 220.597C104.733 227.4 115.424 228.074 123.183 223.677L175.145 193.677C167.386 198.074 156.695 197.4 144.912 190.597L92.9506 220.597Z" fill="#8BC5E4"/>
<path d="M123.192 223.672C130.99 219.247 135.825 209.697 135.827 196.092L187.789 166.092C187.787 179.697 182.952 189.247 175.154 193.672L123.192 223.672Z" fill="#8BC5E4"/>
<path d="M135.827 196.082C135.827 168.932 116.584 135.692 92.9506 122.047L144.912 92.0474C168.546 105.692 187.789 138.932 187.789 166.082L135.827 196.082Z" fill="#8BC5E4"/>
<path d="M92.9506 132.477C111.674 143.287 126.76 169.327 126.76 190.847L178.722 160.847C178.722 139.327 163.636 113.287 144.912 102.477L92.9506 132.477Z" fill="#8BC5E4"/>
<path d="M126.76 190.847C126.76 201.639 122.966 209.186 116.823 212.666L168.784 182.666C174.927 179.186 178.722 171.639 178.722 160.847L126.76 190.847Z" fill="#8BC5E4"/>
<path d="M116.825 212.665C110.719 216.126 102.29 215.567 92.957 210.181L144.919 180.181C154.252 185.567 162.681 186.126 168.787 182.665L116.825 212.665Z" fill="#8BC5E4"/>
<path d="M92.9505 210.177C74.227 199.367 59.1495 173.332 59.1495 151.812L111.111 121.812C111.111 143.332 126.189 169.367 144.912 180.177L92.9505 210.177Z" fill="#8BC5E4"/>
<path d="M59.1495 151.812C59.15 141.02 62.941 133.472 69.082 129.99L121.044 99.9904C114.903 103.472 111.112 111.02 111.111 121.812L59.1495 151.812Z" fill="#8BC5E4"/>
<path d="M69.08 129.992C75.185 126.53 83.611 127.087 92.944 132.473L144.905 102.473C135.572 97.0874 127.146 96.5304 121.041 99.9924L69.08 129.992Z" fill="#8BC5E4"/>
<path d="M10.6261 31.4474C7.71504 29.7664 5.06804 29.6004 3.14404 30.6864L55.1055 0.686397C57.0295 -0.399603 59.6765 -0.233603 62.5877 1.4474L10.6261 31.4474Z" fill="#8BC5E4"/>
<path d="M3.135 30.6914C1.203 31.7874 0.003 34.1494 0 37.5124L51.9615 7.51241C51.9645 4.14941 53.1645 1.78741 55.0965 0.691406L3.135 30.6914Z" fill="#8BC5E4"/>
<path d="M0 213.092C0 219.812 4.7805 228.072 10.6261 231.447L62.5877 201.447C56.742 198.072 51.9615 189.812 51.9615 183.092L0 213.092Z" fill="#8BC5E4"/>
<path d="M162.579 319.177C165.496 320.861 168.148 321.023 170.073 319.927L222.034 289.927C220.109 291.023 217.457 290.861 214.54 289.177L162.579 319.177Z" fill="#8BC5E4"/>
<path d="M170.07 319.928C172.002 318.83 173.202 316.465 173.205 313.102L225.166 283.102C225.163 286.465 223.963 288.83 222.031 289.928L170.07 319.928Z" fill="#8BC5E4"/>
<path d="M173.205 137.522C173.205 130.802 168.425 122.552 162.579 119.177L214.54 89.1774C220.386 92.5524 225.167 100.802 225.167 107.522L173.205 137.522Z" fill="#8BC5E4"/>
<path d="M162.579 124.697C165.852 126.587 168.407 130.992 168.407 134.752L220.369 104.752C220.369 100.992 217.814 96.5874 214.54 94.6974L162.579 124.697Z" fill="#8BC5E4"/>
<path d="M168.407 310.322C168.407 312.202 167.769 313.508 166.721 314.108L218.682 284.108C219.73 283.508 220.368 282.202 220.369 280.322L168.407 310.322Z" fill="#8BC5E4"/>
<path d="M166.71 314.115C165.664 314.707 164.213 314.599 162.584 313.66L214.545 283.66C216.174 284.599 217.625 284.707 218.671 284.115L166.71 314.115Z" fill="#8BC5E4"/>
<path d="M10.6262 225.927C7.35265 224.037 4.79785 219.622 4.79785 215.862L56.7593 185.862C56.7593 189.622 59.3142 194.037 62.5878 195.927L10.6262 225.927Z" fill="#8BC5E4"/>
<path d="M4.79785 40.2924C4.79805 38.4054 5.44105 37.0984 6.49705 36.5044L58.4586 6.50439C57.4026 7.09839 56.7595 8.40539 56.7593 10.2924L4.79785 40.2924Z" fill="#8BC5E4"/>
<path d="M6.495 36.5054C7.541 35.9144 8.992 36.0254 10.621 36.9644L62.5825 6.96437C60.9535 6.02537 59.5025 5.91437 58.4565 6.50537L6.495 36.5054Z" fill="#8BC5E4"/>
<path d="M162.579 124.697C165.852 126.587 168.407 130.992 168.407 134.752L220.369 104.752C220.369 100.992 217.814 96.5874 214.54 94.6974L162.579 124.697Z" fill="#8BC5E4"/>
<path d="M168.407 310.322C168.407 312.202 167.769 313.508 166.721 314.108L218.682 284.108C219.73 283.508 220.368 282.202 220.369 280.322L168.407 310.322Z" fill="#8BC5E4"/>
<path d="M166.71 314.115C165.664 314.707 164.213 314.599 162.584 313.66L214.545 283.66C216.174 284.599 217.625 284.707 218.671 284.115L166.71 314.115Z" fill="#8BC5E4"/>
<path d="M10.6262 225.927C7.35265 224.037 4.79785 219.622 4.79785 215.862L56.7593 185.862C56.7593 189.622 59.3142 194.037 62.5878 195.927L10.6262 225.927Z" fill="#8BC5E4"/>
<path d="M4.79785 40.2924C4.79805 38.4054 5.44105 37.0984 6.49705 36.5044L58.4586 6.50439C57.4026 7.09839 56.7595 8.40539 56.7593 10.2924L4.79785 40.2924Z" fill="#8BC5E4"/>
<path d="M6.495 36.5054C7.541 35.9144 8.992 36.0254 10.621 36.9644L62.5825 6.96437C60.9535 6.02537 59.5025 5.91437 58.4565 6.50537L6.495 36.5054Z" fill="#8BC5E4"/>
<path d="M50.0823 146.577C50.082 132.969 54.917 123.413 62.714 118.983L114.675 88.9834C106.878 93.4134 102.043 102.969 102.044 116.577L50.0823 146.577Z" fill="#8BC5E4"/>
<path d="M62.722 118.978C70.479 114.577 81.166 115.246 92.942 122.042L144.904 92.0424C133.128 85.2464 122.441 84.5774 114.684 88.9784L62.722 118.978Z" fill="#8BC5E4"/>
<path d="M92.9506 122.047C116.584 135.692 135.827 168.932 135.827 196.082L187.789 166.082C187.789 138.932 168.546 105.692 144.912 92.0474L92.9506 122.047Z" fill="#8BC5E4"/>
<path d="M135.827 196.082C135.827 209.697 130.988 219.253 123.183 223.677L175.144 193.677C182.949 189.253 187.788 179.697 187.789 166.082L135.827 196.082Z" fill="#8BC5E4"/>
<path d="M123.186 223.675C115.428 228.073 104.739 227.401 92.959 220.602L144.92 190.602C156.7 197.401 167.389 198.073 175.147 193.675L123.186 223.675Z" fill="#8BC5E4"/>
<path d="M92.9505 220.597C84.5674 215.757 76.7298 208.442 70.1134 199.812L122.075 169.812C128.691 178.442 136.529 185.757 144.912 190.597L92.9505 220.597Z" fill="#8BC5E4"/>
<path d="M59.3141 182.407C53.5377 170.672 50.0823 158.077 50.0823 146.577L102.044 116.577C102.044 128.077 105.499 140.672 111.276 152.407L59.3141 182.407Z" fill="#8BC5E4"/>
<path d="M92.9506 132.477C111.674 143.287 126.76 169.327 126.76 190.847L178.722 160.847C178.722 139.327 163.636 113.287 144.912 102.477L92.9506 132.477Z" fill="#8BC5E4"/>
<path d="M126.76 190.847C126.76 201.639 122.966 209.186 116.823 212.666L168.784 182.666C174.927 179.186 178.722 171.639 178.722 160.847L126.76 190.847Z" fill="#8BC5E4"/>
<path d="M116.825 212.665C110.719 216.126 102.29 215.567 92.957 210.181L144.919 180.181C154.252 185.567 162.681 186.126 168.787 182.665L116.825 212.665Z" fill="#8BC5E4"/>
<path d="M92.9505 210.177C74.227 199.367 59.1495 173.332 59.1495 151.812L111.111 121.812C111.111 143.332 126.189 169.367 144.912 180.177L92.9505 210.177Z" fill="#8BC5E4"/>
<path d="M59.1495 151.812C59.15 141.02 62.941 133.472 69.082 129.99L121.044 99.9904C114.903 103.472 111.112 111.02 111.111 121.812L59.1495 151.812Z" fill="#8BC5E4"/>
<path d="M69.08 129.992C75.185 126.53 83.611 127.087 92.944 132.473L144.905 102.473C135.572 97.0874 127.146 96.5304 121.041 99.9924L69.08 129.992Z" fill="#8BC5E4"/>
<path d="M92.9505 122.047C69.3253 108.407 50.0822 119.427 50.0822 146.577C50.0822 158.077 53.5377 170.672 59.3141 182.407L33.3766 197.322L43.6477 215.022L70.1134 199.812C76.7298 208.442 84.5674 215.757 92.9505 220.597C116.584 234.242 135.827 223.232 135.827 196.082C135.827 168.932 116.584 135.692 92.9505 122.047ZM92.9505 132.477C111.674 143.287 126.76 169.327 126.76 190.847C126.76 212.367 111.674 220.987 92.9505 210.177C74.227 199.367 59.1495 173.332 59.1495 151.812C59.1495 130.292 74.227 121.667 92.9505 132.477ZM73.2831 137.582V140.452V181.702L112.133 204.132V160.012L73.2831 137.582ZM78.2714 146.192L107.145 162.862V195.522L78.2714 178.852V146.192ZM10.6261 31.4474C4.78046 28.0724 0 30.8024 0 37.5224V213.092C0 219.812 4.78046 228.072 10.6261 231.447L162.579 319.177C168.425 322.552 173.205 319.812 173.205 313.092V137.522C173.205 130.802 168.425 122.552 162.579 119.177L10.6261 31.4474ZM10.6261 36.9674L162.579 124.697C165.853 126.587 168.407 130.992 168.407 134.752V310.322C168.407 314.082 165.853 315.547 162.579 313.657L10.6261 225.927C7.35256 224.037 4.79778 219.622 4.79778 215.862V40.2924C4.79778 36.5324 7.35256 35.0774 10.6261 36.9674Z" fill="#8BC5E4"/>
<path fill-rule="evenodd" clip-rule="evenodd" d="M10.6261 36.9674L162.579 124.697C165.853 126.587 168.407 130.992 168.407 134.752V310.322C168.407 314.082 165.853 315.547 162.579 313.657L10.6261 225.927C7.35256 224.037 4.79778 219.622 4.79778 215.862V40.2924C4.79778 36.5324 7.35256 35.0774 10.6261 36.9674ZM50.0822 146.577C50.0822 119.427 69.3253 108.407 92.9505 122.047C116.584 135.692 135.827 168.932 135.827 196.082C135.827 223.232 116.584 234.242 92.9505 220.597C84.5674 215.757 76.7298 208.442 70.1134 199.812L43.6477 215.022L33.3766 197.322L59.3141 182.407C53.5377 170.672 50.0822 158.077 50.0822 146.577Z" fill="white"/>
<path fill-rule="evenodd" clip-rule="evenodd" d="M92.9505 132.477C111.674 143.287 126.76 169.327 126.76 190.847C126.76 212.367 111.674 220.987 92.9505 210.177C74.227 199.367 59.1495 173.332 59.1495 151.812C59.1495 130.292 74.227 121.667 92.9505 132.477ZM73.2831 140.452V137.582L112.133 160.012V204.132L73.2831 181.702V140.452Z" fill="white"/>
<path d="M78.2714 146.192L107.145 162.862V195.522L78.2714 178.852V146.192Z" fill="white"/>
</svg>
