<svg width="274" height="349" viewBox="0 0 274 349" fill="none" xmlns="http://www.w3.org/2000/svg">
<path fill-rule="evenodd" clip-rule="evenodd" d="M135.524 192.195L112.341 236.74L60.3792 206.74L83.5626 162.195L135.524 192.195Z" fill="#8BC5E4"/>
<path fill-rule="evenodd" clip-rule="evenodd" d="M112.341 236.74L95.15 246.655L43.1885 216.655L60.3791 206.74L112.341 236.74Z" fill="#8BC5E4"/>
<path fill-rule="evenodd" clip-rule="evenodd" d="M95.1847 274.255L120.403 259.725L68.4418 229.725L43.2231 244.255L95.1847 274.255Z" fill="#8BC5E4"/>
<path fill-rule="evenodd" clip-rule="evenodd" d="M120.403 259.725L150.965 242.08L99.0039 212.08L68.4419 229.725L120.403 259.725Z" fill="#8BC5E4"/>
<path fill-rule="evenodd" clip-rule="evenodd" d="M150.965 242.08V237.39L99.0039 207.39V212.08L150.965 242.08Z" fill="#8BC5E4"/>
<path fill-rule="evenodd" clip-rule="evenodd" d="M150.965 237.39L126.621 251.445L74.6599 221.445L99.0039 207.39L150.965 237.39Z" fill="#8BC5E4"/>
<path fill-rule="evenodd" clip-rule="evenodd" d="M126.621 251.445L130.034 244.885L78.0721 214.885L74.6599 221.445L126.621 251.445Z" fill="#8BC5E4"/>
<path fill-rule="evenodd" clip-rule="evenodd" d="M130.034 244.885L146.194 235.555L94.2321 205.555L78.072 214.885L130.034 244.885Z" fill="#8BC5E4"/>
<path fill-rule="evenodd" clip-rule="evenodd" d="M146.194 235.555V230.865L94.2322 200.865V205.555L146.194 235.555Z" fill="#8BC5E4"/>
<path fill-rule="evenodd" clip-rule="evenodd" d="M146.194 230.865L133.515 238.185L81.5535 208.185L94.2321 200.865L146.194 230.865Z" fill="#8BC5E4"/>
<path fill-rule="evenodd" clip-rule="evenodd" d="M133.515 238.185L147.865 210.62L95.9035 180.62L81.5535 208.185L133.515 238.185Z" fill="#8BC5E4"/>
<path fill-rule="evenodd" clip-rule="evenodd" d="M177.76 193.36L192.102 204.36L140.14 174.36L125.799 163.36L177.76 193.36Z" fill="#8BC5E4"/>
<path fill-rule="evenodd" clip-rule="evenodd" d="M192.102 204.36L188.655 206.35L136.693 176.35L140.14 174.36L192.102 204.36Z" fill="#8BC5E4"/>
<path fill-rule="evenodd" clip-rule="evenodd" d="M188.655 206.35V211.04L136.693 181.04V176.35L188.655 206.35Z" fill="#8BC5E4"/>
<path fill-rule="evenodd" clip-rule="evenodd" d="M188.655 211.04L195.592 207.035L143.63 177.035L136.693 181.04L188.655 211.04Z" fill="#8BC5E4"/>
<path fill-rule="evenodd" clip-rule="evenodd" d="M195.592 207.035L198.995 209.66L147.034 179.66L143.63 177.035L195.592 207.035Z" fill="#8BC5E4"/>
<path fill-rule="evenodd" clip-rule="evenodd" d="M198.995 209.66L193.427 212.875L141.465 182.875L147.034 179.66L198.995 209.66Z" fill="#8BC5E4"/>
<path fill-rule="evenodd" clip-rule="evenodd" d="M193.427 212.875V217.565L141.465 187.565V182.875L193.427 212.875Z" fill="#8BC5E4"/>
<path fill-rule="evenodd" clip-rule="evenodd" d="M193.427 217.565L204.053 211.43L152.091 181.43L141.465 187.565L193.427 217.565Z" fill="#8BC5E4"/>
<path fill-rule="evenodd" clip-rule="evenodd" d="M204.053 211.43L230.432 196.17L178.47 166.17L152.091 181.43L204.053 211.43Z" fill="#8BC5E4"/>
<path fill-rule="evenodd" clip-rule="evenodd" d="M230.467 168.53L213.276 178.465L161.314 148.465L178.505 138.53L230.467 168.53Z" fill="#8BC5E4"/>
<path fill-rule="evenodd" clip-rule="evenodd" d="M213.276 178.465L190.101 160.685L138.14 130.685L161.314 148.465L213.276 178.465Z" fill="#8BC5E4"/>
<path fill-rule="evenodd" clip-rule="evenodd" d="M162.804 143.485L110.843 113.485L162.804 143.485Z" fill="#8BC5E4"/>
<path fill-rule="evenodd" clip-rule="evenodd" d="M174.946 147.415V149.475L122.984 119.475V117.415L174.946 147.415Z" fill="#8BC5E4"/>
<path fill-rule="evenodd" clip-rule="evenodd" d="M177.466 146.3V154.86L125.504 124.86V116.3L177.466 146.3Z" fill="#8BC5E4"/>
<path fill-rule="evenodd" clip-rule="evenodd" d="M177.466 154.86L179.414 153.735L127.453 123.735L125.504 124.86L177.466 154.86Z" fill="#8BC5E4"/>
<path fill-rule="evenodd" clip-rule="evenodd" d="M179.414 153.735V146.685L127.453 116.685V123.735L179.414 153.735Z" fill="#8BC5E4"/>
<path fill-rule="evenodd" clip-rule="evenodd" d="M162.804 148.175L110.843 118.175L162.804 148.175Z" fill="#8BC5E4"/>
<path fill-rule="evenodd" clip-rule="evenodd" d="M168.832 147.845L116.87 117.845L168.832 147.845Z" fill="#8BC5E4"/>
<path fill-rule="evenodd" clip-rule="evenodd" d="M156.993 157.78V159.84L105.031 129.84V127.78L156.993 157.78Z" fill="#8BC5E4"/>
<path fill-rule="evenodd" clip-rule="evenodd" d="M159.513 156.665V165.225L107.552 135.225V126.665L159.513 156.665Z" fill="#8BC5E4"/>
<path fill-rule="evenodd" clip-rule="evenodd" d="M159.513 165.225L161.453 164.105L109.492 134.105L107.552 135.225L159.513 165.225Z" fill="#8BC5E4"/>
<path fill-rule="evenodd" clip-rule="evenodd" d="M161.453 164.105V152.215L109.491 122.215V134.105L161.453 164.105Z" fill="#8BC5E4"/>
<path fill-rule="evenodd" clip-rule="evenodd" d="M161.453 152.215L159.877 153.125L107.915 123.125L109.491 122.215L161.453 152.215Z" fill="#8BC5E4"/>
<path fill-rule="evenodd" clip-rule="evenodd" d="M159.877 153.125L107.915 123.125L159.877 153.125Z" fill="#8BC5E4"/>
<path fill-rule="evenodd" clip-rule="evenodd" d="M150.506 160.305L98.5449 130.305L150.506 160.305Z" fill="#8BC5E4"/>
<path fill-rule="evenodd" clip-rule="evenodd" d="M168.832 149.725L116.87 119.725L168.832 149.725Z" fill="#8BC5E4"/>
<path fill-rule="evenodd" clip-rule="evenodd" d="M157.097 172.64L105.135 142.64L157.097 172.64Z" fill="#8BC5E4"/>
<path fill-rule="evenodd" clip-rule="evenodd" d="M166.58 167.165L114.618 137.165L166.58 167.165Z" fill="#8BC5E4"/>
<path fill-rule="evenodd" clip-rule="evenodd" d="M146.107 182.085V184.145L94.1455 154.145V152.085L146.107 182.085Z" fill="#8BC5E4"/>
<path fill-rule="evenodd" clip-rule="evenodd" d="M148.61 180.98V189.54L96.6484 159.54V150.98L148.61 180.98Z" fill="#8BC5E4"/>
<path fill-rule="evenodd" clip-rule="evenodd" d="M148.61 189.54L150.559 188.415L98.597 158.415L96.6484 159.54L148.61 189.54Z" fill="#8BC5E4"/>
<path fill-rule="evenodd" clip-rule="evenodd" d="M150.558 188.415V176.525L98.5969 146.525V158.415L150.558 188.415Z" fill="#8BC5E4"/>
<path fill-rule="evenodd" clip-rule="evenodd" d="M150.558 176.525L148.982 177.435L97.0208 147.435L98.5969 146.525L150.558 176.525Z" fill="#8BC5E4"/>
<path fill-rule="evenodd" clip-rule="evenodd" d="M148.982 177.435L97.0208 147.435L148.982 177.435Z" fill="#8BC5E4"/>
<path fill-rule="evenodd" clip-rule="evenodd" d="M172.4 166.905V168.965L120.438 138.965V136.905L172.4 166.905Z" fill="#8BC5E4"/>
<path fill-rule="evenodd" clip-rule="evenodd" d="M174.92 165.79V174.35L122.958 144.35V135.79L174.92 165.79Z" fill="#8BC5E4"/>
<path fill-rule="evenodd" clip-rule="evenodd" d="M174.92 174.35L176.859 173.23L124.898 143.23L122.958 144.35L174.92 174.35Z" fill="#8BC5E4"/>
<path fill-rule="evenodd" clip-rule="evenodd" d="M176.859 173.23V161.34L124.898 131.34V143.23L176.859 173.23Z" fill="#8BC5E4"/>
<path fill-rule="evenodd" clip-rule="evenodd" d="M176.859 161.34L175.283 162.25L123.322 132.25L124.898 131.34L176.859 161.34Z" fill="#8BC5E4"/>
<path fill-rule="evenodd" clip-rule="evenodd" d="M175.283 162.25L123.322 132.25L175.283 162.25Z" fill="#8BC5E4"/>
<path fill-rule="evenodd" clip-rule="evenodd" d="M140.694 183.99L88.7329 153.99L140.694 183.99Z" fill="#8BC5E4"/>
<path fill-rule="evenodd" clip-rule="evenodd" d="M157.097 174.52L105.135 144.52L157.097 174.52Z" fill="#8BC5E4"/>
<path fill-rule="evenodd" clip-rule="evenodd" d="M166.58 169.045L114.618 139.045L166.58 169.045Z" fill="#8BC5E4"/>
<path fill-rule="evenodd" clip-rule="evenodd" d="M183.459 159.3L131.497 129.3L183.459 159.3Z" fill="#8BC5E4"/>
<path fill-rule="evenodd" clip-rule="evenodd" d="M168.243 184.105L116.281 154.105L168.243 184.105Z" fill="#8BC5E4"/>
<path fill-rule="evenodd" clip-rule="evenodd" d="M157.114 193.63V195.69L105.153 165.69V163.63L157.114 193.63Z" fill="#8BC5E4"/>
<path fill-rule="evenodd" clip-rule="evenodd" d="M159.634 192.515V201.075L107.673 171.075V162.515L159.634 192.515Z" fill="#8BC5E4"/>
<path fill-rule="evenodd" clip-rule="evenodd" d="M159.634 201.075L161.574 199.955L109.613 169.955L107.673 171.075L159.634 201.075Z" fill="#8BC5E4"/>
<path fill-rule="evenodd" clip-rule="evenodd" d="M161.574 199.955V188.055L109.613 158.055V169.955L161.574 199.955Z" fill="#8BC5E4"/>
<path fill-rule="evenodd" clip-rule="evenodd" d="M161.574 188.055L160.007 188.96L108.045 158.96L109.613 158.055L161.574 188.055Z" fill="#8BC5E4"/>
<path fill-rule="evenodd" clip-rule="evenodd" d="M160.007 188.96L108.045 158.96L160.007 188.96Z" fill="#8BC5E4"/>
<path fill-rule="evenodd" clip-rule="evenodd" d="M150.108 196.465L98.1465 166.465L150.108 196.465Z" fill="#8BC5E4"/>
<path fill-rule="evenodd" clip-rule="evenodd" d="M168.243 185.995L116.281 155.995L168.243 185.995Z" fill="#8BC5E4"/>
<path fill-rule="evenodd" clip-rule="evenodd" d="M178.306 180.185L126.344 150.185L178.306 180.185Z" fill="#8BC5E4"/>
<path fill-rule="evenodd" clip-rule="evenodd" d="M95.0116 249.905L43.05 219.905L95.0116 249.905Z" fill="#8BC5E4"/>
<path fill-rule="evenodd" clip-rule="evenodd" d="M153.044 226.91V231.6L101.083 201.6V196.91L153.044 226.91Z" fill="#8BC5E4"/>
<path fill-rule="evenodd" clip-rule="evenodd" d="M153.044 231.6L163.679 225.46L111.717 195.46L101.083 201.6L153.044 231.6Z" fill="#8BC5E4"/>
<path fill-rule="evenodd" clip-rule="evenodd" d="M163.679 225.46V220.77L111.717 190.77V195.46L163.679 225.46Z" fill="#8BC5E4"/>
<path fill-rule="evenodd" clip-rule="evenodd" d="M163.679 220.77L153.044 226.91L101.083 196.91L111.717 190.77L163.679 220.77Z" fill="#8BC5E4"/>
<path fill-rule="evenodd" clip-rule="evenodd" d="M153.044 226.91L101.083 196.91L153.044 226.91Z" fill="#8BC5E4"/>
<path fill-rule="evenodd" clip-rule="evenodd" d="M170.772 216.675V221.365L118.81 191.365V186.675L170.772 216.675Z" fill="#8BC5E4"/>
<path fill-rule="evenodd" clip-rule="evenodd" d="M170.772 221.365L181.398 215.23L129.436 185.23L118.81 191.365L170.772 221.365Z" fill="#8BC5E4"/>
<path fill-rule="evenodd" clip-rule="evenodd" d="M181.398 215.23V210.54L129.436 180.54V185.23L181.398 215.23Z" fill="#8BC5E4"/>
<path fill-rule="evenodd" clip-rule="evenodd" d="M181.398 210.54L170.772 216.675L118.81 186.675L129.436 180.54L181.398 210.54Z" fill="#8BC5E4"/>
<path fill-rule="evenodd" clip-rule="evenodd" d="M170.772 216.675L118.81 186.675L170.772 216.675Z" fill="#8BC5E4"/>
<path fill-rule="evenodd" clip-rule="evenodd" d="M157.824 233.43V238.12L105.863 208.12V203.43L157.824 233.43Z" fill="#8BC5E4"/>
<path fill-rule="evenodd" clip-rule="evenodd" d="M157.824 238.12L168.45 231.985L116.489 201.985L105.863 208.12L157.824 238.12Z" fill="#8BC5E4"/>
<path fill-rule="evenodd" clip-rule="evenodd" d="M168.451 231.985V227.295L116.489 197.295V201.985L168.451 231.985Z" fill="#8BC5E4"/>
<path fill-rule="evenodd" clip-rule="evenodd" d="M168.45 227.295L157.824 233.43L105.863 203.43L116.489 197.295L168.45 227.295Z" fill="#8BC5E4"/>
<path fill-rule="evenodd" clip-rule="evenodd" d="M157.824 233.43L105.863 203.43L157.824 233.43Z" fill="#8BC5E4"/>
<path fill-rule="evenodd" clip-rule="evenodd" d="M175.535 223.205V227.895L123.573 197.895V193.205L175.535 223.205Z" fill="#8BC5E4"/>
<path fill-rule="evenodd" clip-rule="evenodd" d="M175.535 227.895L186.17 221.755L134.208 191.755L123.573 197.895L175.535 227.895Z" fill="#8BC5E4"/>
<path fill-rule="evenodd" clip-rule="evenodd" d="M186.17 221.755V217.065L134.208 187.065V191.755L186.17 221.755Z" fill="#8BC5E4"/>
<path fill-rule="evenodd" clip-rule="evenodd" d="M186.17 217.065L175.535 223.205L123.573 193.205L134.208 187.065L186.17 217.065Z" fill="#8BC5E4"/>
<path fill-rule="evenodd" clip-rule="evenodd" d="M175.535 223.205L123.573 193.205L175.535 223.205Z" fill="#8BC5E4"/>
<path fill-rule="evenodd" clip-rule="evenodd" d="M51.9615 165.58V341.14L0 311.14V135.58L51.9615 165.58Z" fill="#8BC5E4"/>
<path fill-rule="evenodd" clip-rule="evenodd" d="M62.4317 347.315L263.194 231.405L211.232 201.405L10.4702 317.315L62.4317 347.315Z" fill="#8BC5E4"/>
<path fill-rule="evenodd" clip-rule="evenodd" d="M273.664 213.14V37.5798L221.702 7.57983V183.14L273.664 213.14Z" fill="#8BC5E4"/>
<path fill-rule="evenodd" clip-rule="evenodd" d="M263.194 31.4048L62.4317 147.315L10.4702 117.315L211.232 1.40479L263.194 31.4048Z" fill="#8BC5E4"/>
<path fill-rule="evenodd" clip-rule="evenodd" d="M62.4317 147.315L10.4702 117.315L62.4317 147.315Z" fill="#8BC5E4"/>
<path fill-rule="evenodd" clip-rule="evenodd" d="M62.4317 152.825L263.194 36.9148L211.232 6.91479L10.4702 122.825L62.4317 152.825Z" fill="#8BC5E4"/>
<path fill-rule="evenodd" clip-rule="evenodd" d="M268.927 40.3149V215.875L216.965 185.875V10.3149L268.927 40.3149Z" fill="#8BC5E4"/>
<path fill-rule="evenodd" clip-rule="evenodd" d="M263.194 225.895L62.4317 341.805L10.4702 311.805L211.232 195.895L263.194 225.895Z" fill="#8BC5E4"/>
<path fill-rule="evenodd" clip-rule="evenodd" d="M56.69 338.41V162.85L4.72852 132.85V308.41L56.69 338.41Z" fill="#8BC5E4"/>
<path fill-rule="evenodd" clip-rule="evenodd" d="M62.4317 152.825L10.4702 122.825L62.4317 152.825Z" fill="#8BC5E4"/>
<path fill-rule="evenodd" clip-rule="evenodd" d="M162.804 143.485C147.753 152.175 135.507 173.535 135.507 191.115L83.5454 161.115C83.5454 143.535 95.791 122.175 110.843 113.485L162.804 143.485Z" fill="#8BC5E4"/>
<path fill-rule="evenodd" clip-rule="evenodd" d="M135.507 191.115C135.507 191.475 135.507 191.845 135.524 192.195L83.5627 162.195C83.5454 161.845 83.5454 161.475 83.5454 161.115L135.507 191.115Z" fill="#8BC5E4"/>
<path fill-rule="evenodd" clip-rule="evenodd" d="M95.1501 246.655C92.3528 248.27 90.8373 256.435 90.8373 262.675L38.8757 232.675C38.8757 226.435 40.3913 218.27 43.1885 216.655L95.1501 246.655Z" fill="#8BC5E4"/>
<path fill-rule="evenodd" clip-rule="evenodd" d="M90.8373 262.675C90.6925 268.724 91.8482 273.093 93.4986 274.214L41.5371 244.214C39.8867 243.093 38.731 238.724 38.8758 232.675L90.8373 262.675Z" fill="#8BC5E4"/>
<path fill-rule="evenodd" clip-rule="evenodd" d="M93.4986 274.214C94.0198 274.568 94.5903 274.598 95.1847 274.255L43.2232 244.255C42.6288 244.598 42.0583 244.568 41.5371 244.214L93.4986 274.214Z" fill="#8BC5E4"/>
<path fill-rule="evenodd" clip-rule="evenodd" d="M147.865 210.62C152.161 211.43 157.296 210.385 162.804 207.205L110.843 177.205C105.335 180.385 100.199 181.43 95.9036 180.62L147.865 210.62Z" fill="#8BC5E4"/>
<path fill-rule="evenodd" clip-rule="evenodd" d="M162.804 207.205C168.329 204.015 173.465 199.13 177.76 193.36L125.799 163.36C121.503 169.13 116.368 174.015 110.843 177.205L162.804 207.205Z" fill="#8BC5E4"/>
<path fill-rule="evenodd" clip-rule="evenodd" d="M230.432 196.17C232.909 194.74 234.979 187.315 234.779 179.57L182.818 149.57C183.017 157.315 180.947 164.74 178.47 166.17L230.432 196.17Z" fill="#8BC5E4"/>
<path fill-rule="evenodd" clip-rule="evenodd" d="M234.779 179.57C234.779 174.827 233.909 169.981 232.259 168.639L180.298 138.639C181.947 139.981 182.818 144.827 182.818 149.57L234.779 179.57Z" fill="#8BC5E4"/>
<path fill-rule="evenodd" clip-rule="evenodd" d="M232.259 168.639C231.738 168.215 231.14 168.141 230.466 168.53L178.505 138.53C179.178 138.141 179.777 138.215 180.298 138.639L232.259 168.639Z" fill="#8BC5E4"/>
<path fill-rule="evenodd" clip-rule="evenodd" d="M190.101 160.685C190.11 160.32 190.118 159.945 190.118 159.585L138.157 129.585C138.157 129.945 138.148 130.32 138.14 130.685L190.101 160.685Z" fill="#8BC5E4"/>
<path fill-rule="evenodd" clip-rule="evenodd" d="M190.119 159.585C190.119 151.151 187.297 145.1 182.696 142.049L130.735 112.049C135.336 115.1 138.157 121.151 138.157 129.585L190.119 159.585Z" fill="#8BC5E4"/>
<path fill-rule="evenodd" clip-rule="evenodd" d="M182.696 142.049C177.712 138.744 170.64 138.961 162.804 143.485L110.843 113.485C118.678 108.961 125.751 108.744 130.735 112.049L182.696 142.049Z" fill="#8BC5E4"/>
<path fill-rule="evenodd" clip-rule="evenodd" d="M162.804 148.175C167.948 145.205 172.685 144.41 176.539 145.465L124.578 115.465C120.724 114.41 115.987 115.205 110.843 118.175L162.804 148.175Z" fill="#8BC5E4"/>
<path fill-rule="evenodd" clip-rule="evenodd" d="M176.539 145.465C175.968 146.295 175.439 146.94 174.946 147.415L122.984 117.415C123.478 116.94 124.006 116.295 124.578 115.465L176.539 145.465Z" fill="#8BC5E4"/>
<path fill-rule="evenodd" clip-rule="evenodd" d="M174.946 149.475C175.916 148.545 176.756 147.48 177.466 146.3L125.504 116.3C124.794 117.48 123.954 118.545 122.984 119.475L174.946 149.475Z" fill="#8BC5E4"/>
<path fill-rule="evenodd" clip-rule="evenodd" d="M179.414 146.685C182.627 148.65 184.888 152.275 185.728 157.29L133.766 127.29C132.926 122.275 130.666 118.65 127.453 116.685L179.414 146.685Z" fill="#8BC5E4"/>
<path fill-rule="evenodd" clip-rule="evenodd" d="M185.728 157.29C185.662 157.234 185.594 157.185 185.522 157.144L133.561 127.144C133.632 127.185 133.701 127.234 133.766 127.29L185.728 157.29Z" fill="#8BC5E4"/>
<path fill-rule="evenodd" clip-rule="evenodd" d="M185.522 157.144C184.998 156.841 184.312 156.927 183.459 157.42L131.497 127.42C132.351 126.927 133.037 126.841 133.561 127.144L185.522 157.144Z" fill="#8BC5E4"/>
<path fill-rule="evenodd" clip-rule="evenodd" d="M183.459 157.42C182.48 157.985 181.709 158.84 181.155 159.96L129.194 129.96C129.748 128.84 130.519 127.985 131.497 127.42L183.459 157.42Z" fill="#8BC5E4"/>
<path fill-rule="evenodd" clip-rule="evenodd" d="M181.155 159.96C180.497 161.32 180.168 163.12 180.168 165.35L128.206 135.35C128.206 133.12 128.535 131.32 129.194 129.96L181.155 159.96Z" fill="#8BC5E4"/>
<path fill-rule="evenodd" clip-rule="evenodd" d="M180.168 165.35C180.168 167.62 180.471 169.025 181.068 169.57L129.107 139.57C128.509 139.025 128.206 137.62 128.206 135.35L180.168 165.35Z" fill="#8BC5E4"/>
<path fill-rule="evenodd" clip-rule="evenodd" d="M181.068 169.57C181.141 169.635 181.217 169.691 181.295 169.74L129.333 139.74C129.255 139.691 129.18 139.635 129.107 139.57L181.068 169.57Z" fill="#8BC5E4"/>
<path fill-rule="evenodd" clip-rule="evenodd" d="M181.295 169.74C181.869 170.095 182.59 170.011 183.459 169.51L131.497 139.51C130.628 140.011 129.907 140.095 129.333 139.74L181.295 169.74Z" fill="#8BC5E4"/>
<path fill-rule="evenodd" clip-rule="evenodd" d="M183.459 169.51C184.42 168.955 185.165 168.145 185.71 167.07L133.749 137.07C133.203 138.145 132.458 138.955 131.497 139.51L183.459 169.51Z" fill="#8BC5E4"/>
<path fill-rule="evenodd" clip-rule="evenodd" d="M185.71 167.07C185.061 171.605 183.597 176.28 181.519 180.74L129.557 150.74C131.636 146.28 133.099 141.605 133.749 137.07L185.71 167.07Z" fill="#8BC5E4"/>
<path fill-rule="evenodd" clip-rule="evenodd" d="M181.519 180.74C181.389 179.465 181.086 178.62 180.609 178.195L128.648 148.195C129.124 148.62 129.427 149.465 129.557 150.74L181.519 180.74Z" fill="#8BC5E4"/>
<path fill-rule="evenodd" clip-rule="evenodd" d="M180.61 178.195C180.543 178.136 180.474 178.085 180.401 178.041L128.439 148.041C128.512 148.085 128.581 148.136 128.648 148.195L180.61 178.195Z" fill="#8BC5E4"/>
<path fill-rule="evenodd" clip-rule="evenodd" d="M180.401 178.041C179.869 177.718 179.175 177.793 178.306 178.295L126.344 148.295C127.213 147.793 127.907 147.718 128.439 148.041L180.401 178.041Z" fill="#8BC5E4"/>
<path fill-rule="evenodd" clip-rule="evenodd" d="M178.306 178.295C177.327 178.86 176.556 179.715 176.011 180.84L124.049 150.84C124.595 149.715 125.366 148.86 126.344 148.295L178.306 178.295Z" fill="#8BC5E4"/>
<path fill-rule="evenodd" clip-rule="evenodd" d="M176.011 180.84C175.344 182.205 175.006 184 175.006 186.23L123.045 156.23C123.045 154 123.383 152.205 124.05 150.84L176.011 180.84Z" fill="#8BC5E4"/>
<path fill-rule="evenodd" clip-rule="evenodd" d="M175.006 186.23C175.006 188.4 175.284 189.77 175.829 190.365L123.868 160.365C123.322 159.77 123.045 158.4 123.045 156.23L175.006 186.23Z" fill="#8BC5E4"/>
<path fill-rule="evenodd" clip-rule="evenodd" d="M175.829 190.365C172.114 195.44 167.645 199.72 162.804 202.515L110.843 172.515C115.684 169.72 120.152 165.44 123.868 160.365L175.829 190.365Z" fill="#8BC5E4"/>
<path fill-rule="evenodd" clip-rule="evenodd" d="M162.804 202.515C158.664 204.905 154.767 205.895 151.399 205.64L99.437 175.64C102.806 175.895 106.703 174.905 110.843 172.515L162.804 202.515Z" fill="#8BC5E4"/>
<path fill-rule="evenodd" clip-rule="evenodd" d="M151.399 205.64C151.797 205.2 152.126 204.71 152.412 204.135L100.45 174.135C100.164 174.71 99.8354 175.2 99.437 175.64L151.399 205.64Z" fill="#8BC5E4"/>
<path fill-rule="evenodd" clip-rule="evenodd" d="M152.412 204.135C153.07 202.775 153.399 200.975 153.399 198.725L101.437 168.725C101.437 170.975 101.108 172.775 100.45 174.135L152.412 204.135Z" fill="#8BC5E4"/>
<path fill-rule="evenodd" clip-rule="evenodd" d="M153.399 198.725C153.399 196.485 153.07 195.065 152.412 194.475L100.45 164.475C101.108 165.065 101.437 166.485 101.437 168.725L153.399 198.725Z" fill="#8BC5E4"/>
<path fill-rule="evenodd" clip-rule="evenodd" d="M152.412 194.475C152.345 194.416 152.275 194.365 152.203 194.321L100.241 164.321C100.314 164.365 100.384 164.416 100.45 164.475L152.412 194.475Z" fill="#8BC5E4"/>
<path fill-rule="evenodd" clip-rule="evenodd" d="M152.203 194.321C151.669 193.999 150.969 194.078 150.108 194.575L98.1465 164.575C99.0077 164.078 99.7079 163.999 100.241 164.321L152.203 194.321Z" fill="#8BC5E4"/>
<path fill-rule="evenodd" clip-rule="evenodd" d="M150.108 194.575C149.121 195.145 148.367 195.99 147.813 197.12L95.8516 167.12C96.4058 165.99 97.1593 165.145 98.1465 164.575L150.108 194.575Z" fill="#8BC5E4"/>
<path fill-rule="evenodd" clip-rule="evenodd" d="M147.813 197.12C147.146 198.485 146.809 200.28 146.809 202.51L94.8472 172.51C94.8472 170.28 95.1849 168.485 95.8518 167.12L147.813 197.12Z" fill="#8BC5E4"/>
<path fill-rule="evenodd" clip-rule="evenodd" d="M146.809 202.51C146.809 203.22 146.843 203.85 146.904 204.385L94.9424 174.385C94.8818 173.85 94.8472 173.22 94.8472 172.51L146.809 202.51Z" fill="#8BC5E4"/>
<path fill-rule="evenodd" clip-rule="evenodd" d="M146.904 204.385C146.77 204.316 146.638 204.245 146.508 204.171L94.5464 174.171C94.6768 174.245 94.8087 174.316 94.9421 174.385L146.904 204.385Z" fill="#8BC5E4"/>
<path fill-rule="evenodd" clip-rule="evenodd" d="M146.508 204.171C143.378 202.397 141.103 199.098 140.097 194.485L88.1353 164.485C89.1412 169.098 91.4162 172.397 94.5465 174.171L146.508 204.171Z" fill="#8BC5E4"/>
<path fill-rule="evenodd" clip-rule="evenodd" d="M140.097 194.485C140.287 194.415 140.486 194.32 140.694 194.2L88.7328 164.2C88.525 164.32 88.3258 164.415 88.1353 164.485L140.097 194.485Z" fill="#8BC5E4"/>
<path fill-rule="evenodd" clip-rule="evenodd" d="M140.694 194.2C141.673 193.635 142.444 192.8 142.989 191.665L91.0279 161.665C90.4823 162.8 89.7115 163.635 88.7329 164.2L140.694 194.2Z" fill="#8BC5E4"/>
<path fill-rule="evenodd" clip-rule="evenodd" d="M142.989 191.665C143.656 190.3 143.985 188.5 143.985 186.26L92.0238 156.26C92.0238 158.5 91.6947 160.3 91.0278 161.665L142.989 191.665Z" fill="#8BC5E4"/>
<path fill-rule="evenodd" clip-rule="evenodd" d="M143.985 186.26C143.985 184.02 143.656 182.6 142.998 182.01L91.0366 152.01C91.6948 152.6 92.0239 154.02 92.0239 156.26L143.985 186.26Z" fill="#8BC5E4"/>
<path fill-rule="evenodd" clip-rule="evenodd" d="M142.998 182.01C142.932 181.95 142.862 181.898 142.789 181.853L90.8276 151.853C90.9004 151.898 90.97 151.95 91.0365 152.01L142.998 182.01Z" fill="#8BC5E4"/>
<path fill-rule="evenodd" clip-rule="evenodd" d="M142.789 181.853C142.256 181.526 141.556 181.613 140.694 182.11L88.7329 152.11C89.5941 151.613 90.2943 151.526 90.8277 151.853L142.789 181.853Z" fill="#8BC5E4"/>
<path fill-rule="evenodd" clip-rule="evenodd" d="M140.694 182.11C140.478 182.235 140.279 182.37 140.079 182.535L88.1179 152.535C88.3171 152.37 88.5163 152.235 88.7328 152.11L140.694 182.11Z" fill="#8BC5E4"/>
<path fill-rule="evenodd" clip-rule="evenodd" d="M140.079 182.535C141.162 176.23 143.76 169.71 147.371 163.905L95.4099 133.905C91.7985 139.71 89.2005 146.23 88.1179 152.535L140.079 182.535Z" fill="#8BC5E4"/>
<path fill-rule="evenodd" clip-rule="evenodd" d="M147.371 163.905C147.267 164.655 147.215 165.465 147.215 166.355L95.2539 136.355C95.2539 135.465 95.3059 134.655 95.4098 133.905L147.371 163.905Z" fill="#8BC5E4"/>
<path fill-rule="evenodd" clip-rule="evenodd" d="M147.215 166.355C147.215 168.625 147.519 170.03 148.116 170.575L96.1546 140.575C95.557 140.03 95.2539 138.625 95.2539 136.355L147.215 166.355Z" fill="#8BC5E4"/>
<path fill-rule="evenodd" clip-rule="evenodd" d="M148.116 170.575C148.189 170.64 148.265 170.696 148.343 170.745L96.3813 140.745C96.303 140.696 96.2275 140.64 96.1548 140.575L148.116 170.575Z" fill="#8BC5E4"/>
<path fill-rule="evenodd" clip-rule="evenodd" d="M148.343 170.745C148.917 171.1 149.638 171.016 150.507 170.515L98.5451 140.515C97.6763 141.016 96.9551 141.1 96.3813 140.745L148.343 170.745Z" fill="#8BC5E4"/>
<path fill-rule="evenodd" clip-rule="evenodd" d="M150.506 170.515C151.494 169.945 152.256 169.115 152.801 167.98L100.84 137.98C100.294 139.115 99.5322 139.945 98.5449 140.515L150.506 170.515Z" fill="#8BC5E4"/>
<path fill-rule="evenodd" clip-rule="evenodd" d="M152.801 167.98C153.477 166.61 153.806 164.81 153.806 162.57L101.844 132.57C101.844 134.81 101.515 136.61 100.84 137.98L152.801 167.98Z" fill="#8BC5E4"/>
<path fill-rule="evenodd" clip-rule="evenodd" d="M153.806 162.57C153.806 160.33 153.477 158.91 152.81 158.325L100.849 128.325C101.515 128.91 101.845 130.33 101.845 132.57L153.806 162.57Z" fill="#8BC5E4"/>
<path fill-rule="evenodd" clip-rule="evenodd" d="M152.81 158.325C152.744 158.265 152.675 158.213 152.603 158.168L100.642 128.168C100.714 128.213 100.783 128.265 100.848 128.325L152.81 158.325Z" fill="#8BC5E4"/>
<path fill-rule="evenodd" clip-rule="evenodd" d="M152.603 158.168C152.315 157.99 151.977 157.936 151.589 158L99.6274 128C100.015 127.936 100.354 127.99 100.642 128.168L152.603 158.168Z" fill="#8BC5E4"/>
<path fill-rule="evenodd" clip-rule="evenodd" d="M151.589 158C154.915 153.95 158.734 150.525 162.804 148.175L110.842 118.175C106.772 120.525 102.953 123.95 99.6274 128L151.589 158Z" fill="#8BC5E4"/>
<path fill-rule="evenodd" clip-rule="evenodd" d="M168.832 147.845C167.844 148.415 167.082 149.265 166.537 150.38L114.575 120.38C115.121 119.265 115.883 118.415 116.87 117.845L168.832 147.845Z" fill="#8BC5E4"/>
<path fill-rule="evenodd" clip-rule="evenodd" d="M166.536 150.38C165.861 151.75 165.532 153.55 165.532 155.78L113.57 125.78C113.57 123.55 113.899 121.75 114.575 120.38L166.536 150.38Z" fill="#8BC5E4"/>
<path fill-rule="evenodd" clip-rule="evenodd" d="M165.532 155.78C165.532 158.05 165.835 159.455 166.432 160L114.471 130C113.873 129.455 113.57 128.05 113.57 125.78L165.532 155.78Z" fill="#8BC5E4"/>
<path fill-rule="evenodd" clip-rule="evenodd" d="M166.433 160C166.505 160.065 166.581 160.121 166.659 160.17L114.698 130.17C114.619 130.121 114.544 130.065 114.471 130L166.433 160Z" fill="#8BC5E4"/>
<path fill-rule="evenodd" clip-rule="evenodd" d="M166.659 160.17C167.233 160.525 167.955 160.441 168.832 159.935L116.87 129.935C115.994 130.441 115.272 130.525 114.698 130.17L166.659 160.17Z" fill="#8BC5E4"/>
<path fill-rule="evenodd" clip-rule="evenodd" d="M168.832 159.935C169.81 159.37 170.581 158.535 171.127 157.4L119.165 127.4C118.619 128.535 117.849 129.37 116.87 129.935L168.832 159.935Z" fill="#8BC5E4"/>
<path fill-rule="evenodd" clip-rule="evenodd" d="M171.127 157.4C171.793 156.035 172.122 154.235 172.122 151.995L120.161 121.995C120.161 124.235 119.832 126.035 119.165 127.4L171.127 157.4Z" fill="#8BC5E4"/>
<path fill-rule="evenodd" clip-rule="evenodd" d="M172.123 151.995C172.123 149.755 171.794 148.335 171.135 147.745L119.174 117.745C119.832 118.335 120.161 119.755 120.161 121.995L172.123 151.995Z" fill="#8BC5E4"/>
<path fill-rule="evenodd" clip-rule="evenodd" d="M171.135 147.745C171.069 147.685 170.999 147.632 170.926 147.588L118.965 117.588C119.038 117.632 119.107 117.685 119.174 117.745L171.135 147.745Z" fill="#8BC5E4"/>
<path fill-rule="evenodd" clip-rule="evenodd" d="M170.926 147.588C170.393 147.261 169.693 147.348 168.832 147.845L116.87 117.845C117.731 117.348 118.432 117.261 118.965 117.588L170.926 147.588Z" fill="#8BC5E4"/>
<path fill-rule="evenodd" clip-rule="evenodd" d="M159.877 153.125C159.652 153.975 159.245 154.84 158.647 155.725L106.686 125.725C107.283 124.84 107.69 123.975 107.915 123.125L159.877 153.125Z" fill="#8BC5E4"/>
<path fill-rule="evenodd" clip-rule="evenodd" d="M158.647 155.725C158.058 156.605 157.504 157.295 156.993 157.78L105.031 127.78C105.542 127.295 106.097 126.605 106.686 125.725L158.647 155.725Z" fill="#8BC5E4"/>
<path fill-rule="evenodd" clip-rule="evenodd" d="M156.993 159.84C157.954 158.915 158.794 157.85 159.513 156.665L107.552 126.665C106.833 127.85 105.993 128.915 105.031 129.84L156.993 159.84Z" fill="#8BC5E4"/>
<path fill-rule="evenodd" clip-rule="evenodd" d="M150.506 160.305C150.74 160.17 150.948 160.14 151.13 160.215L99.1685 130.215C98.9866 130.14 98.7787 130.17 98.5449 130.305L150.506 160.305Z" fill="#8BC5E4"/>
<path fill-rule="evenodd" clip-rule="evenodd" d="M151.13 160.215C151.137 160.218 151.144 160.221 151.152 160.225L99.1902 130.225C99.183 130.221 99.1757 130.218 99.1685 130.215L151.13 160.215Z" fill="#8BC5E4"/>
<path fill-rule="evenodd" clip-rule="evenodd" d="M151.152 160.225C151.324 160.31 151.473 160.558 151.589 160.99L99.6275 130.99C99.5111 130.558 99.3628 130.31 99.1902 130.225L151.152 160.225Z" fill="#8BC5E4"/>
<path fill-rule="evenodd" clip-rule="evenodd" d="M151.589 160.99C151.702 161.445 151.771 162.355 151.771 163.745L99.8093 133.745C99.8093 132.355 99.74 131.445 99.6274 130.99L151.589 160.99Z" fill="#8BC5E4"/>
<path fill-rule="evenodd" clip-rule="evenodd" d="M151.771 163.745C151.771 165.135 151.693 166.16 151.563 166.825L99.6016 136.825C99.7315 136.16 99.8094 135.135 99.8094 133.745L151.771 163.745Z" fill="#8BC5E4"/>
<path fill-rule="evenodd" clip-rule="evenodd" d="M151.563 166.825C151.468 167.34 151.321 167.735 151.13 168.025L99.1685 138.025C99.359 137.735 99.5062 137.34 99.6015 136.825L151.563 166.825Z" fill="#8BC5E4"/>
<path fill-rule="evenodd" clip-rule="evenodd" d="M151.13 168.025C150.957 168.285 150.74 168.51 150.506 168.645L98.5449 138.645C98.7787 138.51 98.9953 138.285 99.1685 138.025L151.13 168.025Z" fill="#8BC5E4"/>
<path fill-rule="evenodd" clip-rule="evenodd" d="M150.506 168.645C150.264 168.785 150.065 168.8 149.874 168.75L97.9126 138.75C98.1031 138.8 98.3023 138.785 98.5448 138.645L150.506 168.645Z" fill="#8BC5E4"/>
<path fill-rule="evenodd" clip-rule="evenodd" d="M149.874 168.75C149.867 168.747 149.86 168.744 149.853 168.74L97.8911 138.74C97.8983 138.744 97.9055 138.747 97.9128 138.75L149.874 168.75Z" fill="#8BC5E4"/>
<path fill-rule="evenodd" clip-rule="evenodd" d="M149.853 168.74C149.681 168.654 149.54 168.402 149.424 167.97L97.4624 137.97C97.5788 138.402 97.7191 138.654 97.8911 138.74L149.853 168.74Z" fill="#8BC5E4"/>
<path fill-rule="evenodd" clip-rule="evenodd" d="M149.424 167.97C149.303 167.52 149.251 166.59 149.251 165.2L97.2891 135.2C97.2891 136.59 97.341 137.52 97.4623 137.97L149.424 167.97Z" fill="#8BC5E4"/>
<path fill-rule="evenodd" clip-rule="evenodd" d="M149.251 165.2C149.251 163.81 149.311 162.785 149.441 162.13L97.4796 132.13C97.3497 132.785 97.2891 133.81 97.2891 135.2L149.251 165.2Z" fill="#8BC5E4"/>
<path fill-rule="evenodd" clip-rule="evenodd" d="M149.441 162.13C149.554 161.615 149.692 161.225 149.874 160.94L97.9127 130.94C97.7309 131.225 97.5923 131.615 97.4797 132.13L149.441 162.13Z" fill="#8BC5E4"/>
<path fill-rule="evenodd" clip-rule="evenodd" d="M149.874 160.94C150.065 160.65 150.264 160.445 150.506 160.305L98.5448 130.305C98.3023 130.445 98.1031 130.65 97.9126 130.94L149.874 160.94Z" fill="#8BC5E4"/>
<path fill-rule="evenodd" clip-rule="evenodd" d="M168.832 149.725C169.065 149.59 169.273 149.56 169.455 149.635L117.494 119.635C117.312 119.56 117.104 119.59 116.87 119.725L168.832 149.725Z" fill="#8BC5E4"/>
<path fill-rule="evenodd" clip-rule="evenodd" d="M169.455 149.635C169.462 149.638 169.47 149.641 169.477 149.645L117.515 119.645C117.508 119.641 117.501 119.638 117.494 119.635L169.455 149.635Z" fill="#8BC5E4"/>
<path fill-rule="evenodd" clip-rule="evenodd" d="M169.477 149.645C169.649 149.731 169.789 149.983 169.914 150.41L117.952 120.41C117.828 119.983 117.687 119.731 117.515 119.645L169.477 149.645Z" fill="#8BC5E4"/>
<path fill-rule="evenodd" clip-rule="evenodd" d="M169.914 150.41C170.027 150.865 170.087 151.78 170.087 153.17L118.126 123.17C118.126 121.78 118.065 120.865 117.953 120.41L169.914 150.41Z" fill="#8BC5E4"/>
<path fill-rule="evenodd" clip-rule="evenodd" d="M170.087 153.17C170.087 154.56 170.018 155.58 169.879 156.25L117.918 126.25C118.057 125.58 118.126 124.56 118.126 123.17L170.087 153.17Z" fill="#8BC5E4"/>
<path fill-rule="evenodd" clip-rule="evenodd" d="M169.88 156.25C169.784 156.765 169.646 157.155 169.455 157.445L117.494 127.445C117.684 127.155 117.823 126.765 117.918 126.25L169.88 156.25Z" fill="#8BC5E4"/>
<path fill-rule="evenodd" clip-rule="evenodd" d="M169.455 157.445C169.273 157.71 169.065 157.93 168.832 158.065L116.87 128.065C117.104 127.93 117.312 127.71 117.494 127.445L169.455 157.445Z" fill="#8BC5E4"/>
<path fill-rule="evenodd" clip-rule="evenodd" d="M168.831 158.065C168.598 158.2 168.381 158.225 168.191 158.175L116.229 128.175C116.42 128.225 116.636 128.2 116.87 128.065L168.831 158.065Z" fill="#8BC5E4"/>
<path fill-rule="evenodd" clip-rule="evenodd" d="M168.191 158.175C168.184 158.172 168.177 158.168 168.17 158.165L116.208 128.165C116.215 128.168 116.222 128.172 116.229 128.175L168.191 158.175Z" fill="#8BC5E4"/>
<path fill-rule="evenodd" clip-rule="evenodd" d="M168.17 158.164C168.005 158.075 167.857 157.827 167.749 157.39L115.788 127.39C115.896 127.827 116.044 128.075 116.209 128.164L168.17 158.164Z" fill="#8BC5E4"/>
<path fill-rule="evenodd" clip-rule="evenodd" d="M167.749 157.39C167.628 156.94 167.567 156.015 167.567 154.625L115.605 124.625C115.605 126.015 115.666 126.94 115.787 127.39L167.749 157.39Z" fill="#8BC5E4"/>
<path fill-rule="evenodd" clip-rule="evenodd" d="M167.567 154.625C167.567 153.235 167.628 152.21 167.766 151.55L115.805 121.55C115.666 122.21 115.605 123.235 115.605 124.625L167.567 154.625Z" fill="#8BC5E4"/>
<path fill-rule="evenodd" clip-rule="evenodd" d="M167.766 151.55C167.87 151.04 168.017 150.645 168.191 150.365L116.229 120.365C116.056 120.645 115.909 121.04 115.805 121.55L167.766 151.55Z" fill="#8BC5E4"/>
<path fill-rule="evenodd" clip-rule="evenodd" d="M168.191 150.365C168.381 150.075 168.598 149.86 168.831 149.725L116.87 119.725C116.636 119.86 116.42 120.075 116.229 120.365L168.191 150.365Z" fill="#8BC5E4"/>
<path fill-rule="evenodd" clip-rule="evenodd" d="M157.097 172.64C156.118 173.205 155.347 174.06 154.802 175.175L102.84 145.175C103.386 144.06 104.157 143.205 105.135 142.64L157.097 172.64Z" fill="#8BC5E4"/>
<path fill-rule="evenodd" clip-rule="evenodd" d="M154.802 175.175C154.135 176.54 153.806 178.34 153.806 180.57L101.844 150.57C101.844 148.34 102.174 146.54 102.84 145.175L154.802 175.175Z" fill="#8BC5E4"/>
<path fill-rule="evenodd" clip-rule="evenodd" d="M153.806 180.57C153.806 182.84 154.109 184.245 154.707 184.79L102.745 154.79C102.148 154.245 101.844 152.84 101.844 150.57L153.806 180.57Z" fill="#8BC5E4"/>
<path fill-rule="evenodd" clip-rule="evenodd" d="M154.707 184.79C154.779 184.855 154.855 184.911 154.933 184.96L102.972 154.96C102.893 154.911 102.818 154.855 102.745 154.79L154.707 184.79Z" fill="#8BC5E4"/>
<path fill-rule="evenodd" clip-rule="evenodd" d="M154.933 184.96C155.507 185.315 156.228 185.232 157.097 184.73L105.135 154.73C104.267 155.232 103.545 155.315 102.972 154.96L154.933 184.96Z" fill="#8BC5E4"/>
<path fill-rule="evenodd" clip-rule="evenodd" d="M157.097 184.73C158.084 184.16 158.855 183.325 159.392 182.195L107.43 152.195C106.893 153.325 106.123 154.16 105.135 154.73L157.097 184.73Z" fill="#8BC5E4"/>
<path fill-rule="evenodd" clip-rule="evenodd" d="M159.392 182.195C160.067 180.825 160.396 179.025 160.396 176.785L108.435 146.785C108.435 149.025 108.106 150.825 107.43 152.195L159.392 182.195Z" fill="#8BC5E4"/>
<path fill-rule="evenodd" clip-rule="evenodd" d="M160.396 176.785C160.396 174.545 160.067 173.125 159.4 172.54L107.439 142.54C108.106 143.125 108.435 144.545 108.435 146.785L160.396 176.785Z" fill="#8BC5E4"/>
<path fill-rule="evenodd" clip-rule="evenodd" d="M159.401 172.54C159.335 172.479 159.266 172.426 159.194 172.381L107.233 142.381C107.305 142.426 107.374 142.479 107.439 142.54L159.401 172.54Z" fill="#8BC5E4"/>
<path fill-rule="evenodd" clip-rule="evenodd" d="M159.194 172.381C158.667 172.051 157.966 172.138 157.097 172.64L105.135 142.64C106.004 142.138 106.705 142.051 107.233 142.381L159.194 172.381Z" fill="#8BC5E4"/>
<path fill-rule="evenodd" clip-rule="evenodd" d="M166.58 167.165C165.592 167.735 164.83 168.585 164.285 169.7L112.323 139.7C112.869 138.585 113.631 137.735 114.618 137.165L166.58 167.165Z" fill="#8BC5E4"/>
<path fill-rule="evenodd" clip-rule="evenodd" d="M164.285 169.7C163.609 171.07 163.28 172.87 163.28 175.1L111.319 145.1C111.319 142.87 111.648 141.07 112.323 139.7L164.285 169.7Z" fill="#8BC5E4"/>
<path fill-rule="evenodd" clip-rule="evenodd" d="M163.28 175.1C163.28 177.37 163.583 178.775 164.181 179.32L112.22 149.32C111.622 148.775 111.319 147.37 111.319 145.1L163.28 175.1Z" fill="#8BC5E4"/>
<path fill-rule="evenodd" clip-rule="evenodd" d="M164.181 179.32C164.254 179.385 164.329 179.441 164.407 179.49L112.446 149.49C112.368 149.441 112.292 149.385 112.219 149.32L164.181 179.32Z" fill="#8BC5E4"/>
<path fill-rule="evenodd" clip-rule="evenodd" d="M164.407 179.49C164.981 179.845 165.703 179.761 166.58 179.255L114.618 149.255C113.742 149.761 113.02 149.845 112.446 149.49L164.407 179.49Z" fill="#8BC5E4"/>
<path fill-rule="evenodd" clip-rule="evenodd" d="M166.58 179.255C167.559 178.69 168.329 177.855 168.875 176.72L116.913 146.72C116.368 147.855 115.597 148.69 114.618 149.255L166.58 179.255Z" fill="#8BC5E4"/>
<path fill-rule="evenodd" clip-rule="evenodd" d="M168.875 176.72C169.542 175.355 169.871 173.555 169.871 171.315L117.909 141.315C117.909 143.555 117.58 145.355 116.913 146.72L168.875 176.72Z" fill="#8BC5E4"/>
<path fill-rule="evenodd" clip-rule="evenodd" d="M169.871 171.315C169.871 169.075 169.542 167.655 168.883 167.065L116.922 137.065C117.58 137.655 117.909 139.075 117.909 141.315L169.871 171.315Z" fill="#8BC5E4"/>
<path fill-rule="evenodd" clip-rule="evenodd" d="M168.884 167.065C168.817 167.005 168.747 166.953 168.675 166.908L116.713 136.908C116.786 136.953 116.855 137.005 116.922 137.065L168.884 167.065Z" fill="#8BC5E4"/>
<path fill-rule="evenodd" clip-rule="evenodd" d="M168.675 166.908C168.141 166.581 167.441 166.668 166.58 167.165L114.618 137.165C115.48 136.668 116.18 136.581 116.713 136.908L168.675 166.908Z" fill="#8BC5E4"/>
<path fill-rule="evenodd" clip-rule="evenodd" d="M148.982 177.435C148.766 178.28 148.359 179.145 147.753 180.035L95.791 150.035C96.3972 149.145 96.8043 148.28 97.0208 147.435L148.982 177.435Z" fill="#8BC5E4"/>
<path fill-rule="evenodd" clip-rule="evenodd" d="M147.752 180.035C147.155 180.92 146.609 181.605 146.107 182.085L94.1455 152.085C94.6478 151.605 95.1934 150.92 95.791 150.035L147.752 180.035Z" fill="#8BC5E4"/>
<path fill-rule="evenodd" clip-rule="evenodd" d="M146.107 184.145C147.068 183.22 147.908 182.155 148.61 180.98L96.6483 150.98C95.9468 152.155 95.1068 153.22 94.1455 154.145L146.107 184.145Z" fill="#8BC5E4"/>
<path fill-rule="evenodd" clip-rule="evenodd" d="M175.284 162.25C175.067 163.095 174.651 163.965 174.054 164.85L122.092 134.85C122.69 133.965 123.106 133.095 123.322 132.25L175.284 162.25Z" fill="#8BC5E4"/>
<path fill-rule="evenodd" clip-rule="evenodd" d="M174.054 164.85C173.465 165.73 172.91 166.42 172.4 166.905L120.438 136.905C120.949 136.42 121.503 135.73 122.092 134.85L174.054 164.85Z" fill="#8BC5E4"/>
<path fill-rule="evenodd" clip-rule="evenodd" d="M172.4 168.965C173.369 168.035 174.209 166.97 174.92 165.79L122.958 135.79C122.248 136.97 121.408 138.035 120.438 138.965L172.4 168.965Z" fill="#8BC5E4"/>
<path fill-rule="evenodd" clip-rule="evenodd" d="M140.694 183.99C140.92 183.86 141.136 183.825 141.318 183.9L89.3564 153.9C89.1746 153.825 88.9581 153.86 88.7329 153.99L140.694 183.99Z" fill="#8BC5E4"/>
<path fill-rule="evenodd" clip-rule="evenodd" d="M141.318 183.9C141.325 183.903 141.332 183.907 141.339 183.91L89.3771 153.91C89.3703 153.907 89.3634 153.903 89.3564 153.9L141.318 183.9Z" fill="#8BC5E4"/>
<path fill-rule="evenodd" clip-rule="evenodd" d="M141.339 183.91C141.504 184 141.652 184.248 141.768 184.68L89.8068 154.68C89.6904 154.248 89.5421 154 89.3772 153.91L141.339 183.91Z" fill="#8BC5E4"/>
<path fill-rule="evenodd" clip-rule="evenodd" d="M141.768 184.68C141.889 185.13 141.95 186.045 141.95 187.435L89.9885 157.435C89.9885 156.045 89.9279 155.13 89.8066 154.68L141.768 184.68Z" fill="#8BC5E4"/>
<path fill-rule="evenodd" clip-rule="evenodd" d="M141.95 187.435C141.95 188.835 141.889 189.84 141.751 190.51L89.7893 160.51C89.9279 159.84 89.9885 158.835 89.9885 157.435L141.95 187.435Z" fill="#8BC5E4"/>
<path fill-rule="evenodd" clip-rule="evenodd" d="M141.751 190.51C141.647 191.03 141.5 191.425 141.327 191.705L89.365 161.705C89.5382 161.425 89.6854 161.03 89.7893 160.51L141.751 190.51Z" fill="#8BC5E4"/>
<path fill-rule="evenodd" clip-rule="evenodd" d="M141.327 191.705C141.136 191.975 140.92 192.2 140.694 192.33L88.7329 162.33C88.9581 162.2 89.1746 161.975 89.3651 161.705L141.327 191.705Z" fill="#8BC5E4"/>
<path fill-rule="evenodd" clip-rule="evenodd" d="M140.694 192.33C140.461 192.465 140.244 192.49 140.054 192.44L88.092 162.44C88.2826 162.49 88.4991 162.465 88.7329 162.33L140.694 192.33Z" fill="#8BC5E4"/>
<path fill-rule="evenodd" clip-rule="evenodd" d="M140.054 192.44C140.048 192.438 140.042 192.435 140.037 192.432L88.0754 162.432C88.081 162.435 88.0865 162.438 88.092 162.44L140.054 192.44Z" fill="#8BC5E4"/>
<path fill-rule="evenodd" clip-rule="evenodd" d="M140.037 192.432C139.905 192.365 139.781 192.183 139.69 191.9L87.7283 161.9C87.8197 162.183 87.9431 162.365 88.0754 162.432L140.037 192.432Z" fill="#8BC5E4"/>
<path fill-rule="evenodd" clip-rule="evenodd" d="M139.69 191.9C139.586 190.9 139.525 189.875 139.525 188.795L87.5637 158.795C87.5637 159.875 87.6243 160.9 87.7283 161.9L139.69 191.9Z" fill="#8BC5E4"/>
<path fill-rule="evenodd" clip-rule="evenodd" d="M139.525 188.795C139.525 187.745 139.577 186.685 139.672 185.62L87.7109 155.62C87.6157 156.685 87.5637 157.745 87.5637 158.795L139.525 188.795Z" fill="#8BC5E4"/>
<path fill-rule="evenodd" clip-rule="evenodd" d="M139.672 185.62C139.768 185.215 139.906 184.865 140.054 184.63L88.092 154.63C87.9448 154.865 87.8062 155.215 87.7109 155.62L139.672 185.62Z" fill="#8BC5E4"/>
<path fill-rule="evenodd" clip-rule="evenodd" d="M140.054 184.63C140.244 184.34 140.461 184.125 140.694 183.99L88.7329 153.99C88.4991 154.125 88.2826 154.34 88.092 154.63L140.054 184.63Z" fill="#8BC5E4"/>
<path fill-rule="evenodd" clip-rule="evenodd" d="M157.097 174.52C157.331 174.385 157.547 174.35 157.729 174.425L105.767 144.425C105.586 144.35 105.369 144.385 105.135 144.52L157.097 174.52Z" fill="#8BC5E4"/>
<path fill-rule="evenodd" clip-rule="evenodd" d="M157.729 174.425C157.736 174.428 157.743 174.431 157.75 174.435L105.788 144.435C105.781 144.431 105.775 144.428 105.768 144.425L157.729 174.425Z" fill="#8BC5E4"/>
<path fill-rule="evenodd" clip-rule="evenodd" d="M157.75 174.435C157.915 174.525 158.063 174.773 158.179 175.205L106.218 145.205C106.102 144.773 105.953 144.525 105.788 144.435L157.75 174.435Z" fill="#8BC5E4"/>
<path fill-rule="evenodd" clip-rule="evenodd" d="M158.179 175.205C158.301 175.655 158.361 176.57 158.361 177.96L106.4 147.96C106.4 146.57 106.339 145.655 106.218 145.205L158.179 175.205Z" fill="#8BC5E4"/>
<path fill-rule="evenodd" clip-rule="evenodd" d="M158.361 177.96C158.361 179.36 158.292 180.37 158.162 181.035L106.201 151.035C106.331 150.37 106.4 149.36 106.4 147.96L158.361 177.96Z" fill="#8BC5E4"/>
<path fill-rule="evenodd" clip-rule="evenodd" d="M158.162 181.035C158.058 181.555 157.911 181.95 157.729 182.235L105.768 152.235C105.949 151.95 106.097 151.555 106.201 151.035L158.162 181.035Z" fill="#8BC5E4"/>
<path fill-rule="evenodd" clip-rule="evenodd" d="M157.729 182.235C157.547 182.5 157.331 182.725 157.097 182.86L105.135 152.86C105.369 152.725 105.586 152.5 105.767 152.235L157.729 182.235Z" fill="#8BC5E4"/>
<path fill-rule="evenodd" clip-rule="evenodd" d="M157.097 182.86C156.872 182.99 156.655 183.015 156.465 182.965L104.503 152.965C104.694 153.015 104.91 152.99 105.135 152.86L157.097 182.86Z" fill="#8BC5E4"/>
<path fill-rule="evenodd" clip-rule="evenodd" d="M156.465 182.965C156.458 182.962 156.451 182.958 156.444 182.954L104.482 152.954C104.489 152.958 104.496 152.962 104.503 152.965L156.465 182.965Z" fill="#8BC5E4"/>
<path fill-rule="evenodd" clip-rule="evenodd" d="M156.444 182.955C156.279 182.865 156.131 182.617 156.023 182.19L104.062 152.19C104.17 152.617 104.318 152.865 104.482 152.955L156.444 182.955Z" fill="#8BC5E4"/>
<path fill-rule="evenodd" clip-rule="evenodd" d="M156.023 182.19C155.902 181.73 155.841 180.815 155.841 179.415L103.88 149.415C103.88 150.815 103.94 151.73 104.062 152.19L156.023 182.19Z" fill="#8BC5E4"/>
<path fill-rule="evenodd" clip-rule="evenodd" d="M155.841 179.415C155.841 178.025 155.902 177 156.04 176.34L104.079 146.34C103.94 147 103.88 148.025 103.88 149.415L155.841 179.415Z" fill="#8BC5E4"/>
<path fill-rule="evenodd" clip-rule="evenodd" d="M156.04 176.34C156.144 175.83 156.292 175.435 156.465 175.155L104.503 145.155C104.33 145.435 104.183 145.83 104.079 146.34L156.04 176.34Z" fill="#8BC5E4"/>
<path fill-rule="evenodd" clip-rule="evenodd" d="M156.465 175.155C156.655 174.865 156.872 174.65 157.097 174.52L105.135 144.52C104.91 144.65 104.694 144.865 104.503 145.155L156.465 175.155Z" fill="#8BC5E4"/>
<path fill-rule="evenodd" clip-rule="evenodd" d="M166.58 169.045C166.814 168.91 167.022 168.88 167.203 168.955L115.242 138.955C115.06 138.88 114.852 138.91 114.618 139.045L166.58 169.045Z" fill="#8BC5E4"/>
<path fill-rule="evenodd" clip-rule="evenodd" d="M167.203 168.955C167.211 168.958 167.218 168.961 167.225 168.965L115.264 138.965C115.256 138.961 115.249 138.958 115.242 138.955L167.203 168.955Z" fill="#8BC5E4"/>
<path fill-rule="evenodd" clip-rule="evenodd" d="M167.225 168.965C167.397 169.051 167.538 169.303 167.663 169.73L115.701 139.73C115.576 139.303 115.436 139.051 115.264 138.965L167.225 168.965Z" fill="#8BC5E4"/>
<path fill-rule="evenodd" clip-rule="evenodd" d="M167.662 169.73C167.775 170.185 167.836 171.1 167.836 172.49L115.874 142.49C115.874 141.1 115.814 140.185 115.701 139.73L167.662 169.73Z" fill="#8BC5E4"/>
<path fill-rule="evenodd" clip-rule="evenodd" d="M167.836 172.49C167.836 173.89 167.775 174.895 167.645 175.56L115.684 145.56C115.813 144.895 115.874 143.89 115.874 142.49L167.836 172.49Z" fill="#8BC5E4"/>
<path fill-rule="evenodd" clip-rule="evenodd" d="M167.645 175.56C167.533 176.085 167.394 176.475 167.203 176.765L115.242 146.765C115.432 146.475 115.571 146.085 115.684 145.56L167.645 175.56Z" fill="#8BC5E4"/>
<path fill-rule="evenodd" clip-rule="evenodd" d="M167.203 176.765C167.022 177.03 166.814 177.25 166.58 177.385L114.618 147.385C114.852 147.25 115.06 147.03 115.242 146.765L167.203 176.765Z" fill="#8BC5E4"/>
<path fill-rule="evenodd" clip-rule="evenodd" d="M166.58 177.385C166.346 177.52 166.13 177.545 165.948 177.49L113.986 147.49C114.168 147.545 114.385 147.52 114.619 147.385L166.58 177.385Z" fill="#8BC5E4"/>
<path fill-rule="evenodd" clip-rule="evenodd" d="M165.948 177.49C165.94 177.487 165.933 177.484 165.926 177.48L113.964 147.48C113.972 147.484 113.979 147.487 113.986 147.49L165.948 177.49Z" fill="#8BC5E4"/>
<path fill-rule="evenodd" clip-rule="evenodd" d="M165.926 177.48C165.753 177.395 165.605 177.147 165.497 176.72L113.536 146.72C113.644 147.147 113.792 147.395 113.965 147.48L165.926 177.48Z" fill="#8BC5E4"/>
<path fill-rule="evenodd" clip-rule="evenodd" d="M165.497 176.72C165.385 176.255 165.316 175.345 165.316 173.945L113.354 143.945C113.354 145.345 113.423 146.255 113.536 146.72L165.497 176.72Z" fill="#8BC5E4"/>
<path fill-rule="evenodd" clip-rule="evenodd" d="M165.316 173.945C165.316 172.555 165.385 171.525 165.515 170.87L113.553 140.87C113.423 141.525 113.354 142.555 113.354 143.945L165.316 173.945Z" fill="#8BC5E4"/>
<path fill-rule="evenodd" clip-rule="evenodd" d="M165.515 170.87C165.619 170.36 165.766 169.965 165.948 169.68L113.986 139.68C113.804 139.965 113.657 140.36 113.553 140.87L165.515 170.87Z" fill="#8BC5E4"/>
<path fill-rule="evenodd" clip-rule="evenodd" d="M165.948 169.68C166.13 169.395 166.346 169.18 166.58 169.045L114.619 139.045C114.385 139.18 114.168 139.395 113.986 139.68L165.948 169.68Z" fill="#8BC5E4"/>
<path fill-rule="evenodd" clip-rule="evenodd" d="M183.459 159.3C183.692 159.165 183.9 159.135 184.082 159.21L132.121 129.21C131.939 129.135 131.731 129.165 131.497 129.3L183.459 159.3Z" fill="#8BC5E4"/>
<path fill-rule="evenodd" clip-rule="evenodd" d="M184.082 159.21C184.089 159.213 184.097 159.216 184.104 159.22L132.142 129.22C132.135 129.216 132.128 129.213 132.121 129.21L184.082 159.21Z" fill="#8BC5E4"/>
<path fill-rule="evenodd" clip-rule="evenodd" d="M184.104 159.22C184.277 159.305 184.425 159.553 184.541 159.985L132.58 129.985C132.463 129.553 132.315 129.305 132.143 129.22L184.104 159.22Z" fill="#8BC5E4"/>
<path fill-rule="evenodd" clip-rule="evenodd" d="M184.541 159.985C184.654 160.44 184.723 161.35 184.723 162.74L132.761 132.74C132.761 131.35 132.692 130.44 132.58 129.985L184.541 159.985Z" fill="#8BC5E4"/>
<path fill-rule="evenodd" clip-rule="evenodd" d="M184.723 162.74C184.723 164.14 184.645 165.155 184.515 165.82L132.554 135.82C132.684 135.155 132.762 134.14 132.762 132.74L184.723 162.74Z" fill="#8BC5E4"/>
<path fill-rule="evenodd" clip-rule="evenodd" d="M184.515 165.82C184.42 166.335 184.273 166.73 184.082 167.02L132.121 137.02C132.311 136.73 132.458 136.335 132.554 135.82L184.515 165.82Z" fill="#8BC5E4"/>
<path fill-rule="evenodd" clip-rule="evenodd" d="M184.082 167.02C183.909 167.28 183.692 167.505 183.459 167.64L131.497 137.64C131.731 137.505 131.947 137.28 132.121 137.02L184.082 167.02Z" fill="#8BC5E4"/>
<path fill-rule="evenodd" clip-rule="evenodd" d="M183.459 167.64C183.216 167.78 183.017 167.795 182.827 167.745L130.865 137.745C131.056 137.795 131.255 137.78 131.497 137.64L183.459 167.64Z" fill="#8BC5E4"/>
<path fill-rule="evenodd" clip-rule="evenodd" d="M182.826 167.745C182.819 167.742 182.812 167.739 182.805 167.735L130.843 137.735C130.85 137.739 130.858 137.742 130.865 137.745L182.826 167.745Z" fill="#8BC5E4"/>
<path fill-rule="evenodd" clip-rule="evenodd" d="M182.805 167.735C182.633 167.649 182.492 167.397 182.376 166.975L130.415 136.975C130.531 137.397 130.671 137.649 130.843 137.735L182.805 167.735Z" fill="#8BC5E4"/>
<path fill-rule="evenodd" clip-rule="evenodd" d="M182.376 166.975C182.255 166.515 182.203 165.595 182.203 164.195L130.241 134.195C130.241 135.595 130.293 136.515 130.415 136.975L182.376 166.975Z" fill="#8BC5E4"/>
<path fill-rule="evenodd" clip-rule="evenodd" d="M182.203 164.195C182.203 162.805 182.264 161.78 182.394 161.125L130.432 131.125C130.302 131.78 130.241 132.805 130.241 134.195L182.203 164.195Z" fill="#8BC5E4"/>
<path fill-rule="evenodd" clip-rule="evenodd" d="M182.394 161.125C182.506 160.61 182.645 160.22 182.827 159.935L130.865 129.935C130.683 130.22 130.545 130.61 130.432 131.125L182.394 161.125Z" fill="#8BC5E4"/>
<path fill-rule="evenodd" clip-rule="evenodd" d="M182.827 159.935C183.017 159.645 183.216 159.44 183.459 159.3L131.497 129.3C131.255 129.44 131.056 129.645 130.865 129.935L182.827 159.935Z" fill="#8BC5E4"/>
<path fill-rule="evenodd" clip-rule="evenodd" d="M168.243 184.105C167.255 184.675 166.485 185.53 165.93 186.66L113.969 156.66C114.523 155.53 115.294 154.675 116.281 154.105L168.243 184.105Z" fill="#8BC5E4"/>
<path fill-rule="evenodd" clip-rule="evenodd" d="M165.93 186.66C165.272 188.02 164.943 189.81 164.943 192.04L112.981 162.04C112.981 159.81 113.311 158.02 113.969 156.66L165.93 186.66Z" fill="#8BC5E4"/>
<path fill-rule="evenodd" clip-rule="evenodd" d="M164.943 192.04C164.943 194.32 165.237 195.72 165.844 196.27L113.882 166.27C113.276 165.72 112.981 164.32 112.981 162.04L164.943 192.04Z" fill="#8BC5E4"/>
<path fill-rule="evenodd" clip-rule="evenodd" d="M165.844 196.27C165.917 196.332 165.992 196.387 166.07 196.434L114.109 166.434C114.031 166.387 113.955 166.332 113.882 166.27L165.844 196.27Z" fill="#8BC5E4"/>
<path fill-rule="evenodd" clip-rule="evenodd" d="M166.07 196.434C166.644 196.779 167.366 196.711 168.243 196.205L116.281 166.205C115.405 166.711 114.683 166.779 114.109 166.434L166.07 196.434Z" fill="#8BC5E4"/>
<path fill-rule="evenodd" clip-rule="evenodd" d="M168.243 196.205C169.221 195.64 169.983 194.79 170.538 193.67L118.576 163.67C118.022 164.79 117.26 165.64 116.281 166.205L168.243 196.205Z" fill="#8BC5E4"/>
<path fill-rule="evenodd" clip-rule="evenodd" d="M170.538 193.67C171.196 192.31 171.534 190.505 171.534 188.255L119.572 158.255C119.572 160.505 119.234 162.31 118.576 163.67L170.538 193.67Z" fill="#8BC5E4"/>
<path fill-rule="evenodd" clip-rule="evenodd" d="M171.534 188.255C171.534 186.015 171.204 184.595 170.546 184.005L118.585 154.005C119.243 154.595 119.572 156.015 119.572 158.255L171.534 188.255Z" fill="#8BC5E4"/>
<path fill-rule="evenodd" clip-rule="evenodd" d="M170.546 184.005C170.48 183.946 170.41 183.895 170.338 183.851L118.376 153.851C118.449 153.895 118.518 153.946 118.585 154.005L170.546 184.005Z" fill="#8BC5E4"/>
<path fill-rule="evenodd" clip-rule="evenodd" d="M170.338 183.851C169.804 183.529 169.104 183.608 168.243 184.105L116.281 154.105C117.142 153.608 117.843 153.529 118.376 153.851L170.338 183.851Z" fill="#8BC5E4"/>
<path fill-rule="evenodd" clip-rule="evenodd" d="M160.007 188.96C159.782 189.81 159.366 190.69 158.777 191.57L106.815 161.57C107.404 160.69 107.82 159.81 108.045 158.96L160.007 188.96Z" fill="#8BC5E4"/>
<path fill-rule="evenodd" clip-rule="evenodd" d="M158.777 191.57C158.18 192.455 157.625 193.145 157.114 193.63L105.153 163.63C105.664 163.145 106.218 162.455 106.816 161.57L158.777 191.57Z" fill="#8BC5E4"/>
<path fill-rule="evenodd" clip-rule="evenodd" d="M157.114 195.69C158.084 194.76 158.924 193.705 159.634 192.515L107.673 162.515C106.963 163.705 106.123 164.76 105.153 165.69L157.114 195.69Z" fill="#8BC5E4"/>
<path fill-rule="evenodd" clip-rule="evenodd" d="M150.108 196.465C150.35 196.325 150.55 196.3 150.732 196.375L98.77 166.375C98.5882 166.3 98.389 166.325 98.1465 166.465L150.108 196.465Z" fill="#8BC5E4"/>
<path fill-rule="evenodd" clip-rule="evenodd" d="M150.732 196.375C150.754 196.381 150.777 196.39 150.798 196.402L98.8368 166.402C98.8151 166.39 98.7929 166.381 98.77 166.375L150.732 196.375Z" fill="#8BC5E4"/>
<path fill-rule="evenodd" clip-rule="evenodd" d="M150.798 196.402C150.957 196.491 151.084 196.745 151.191 197.15L99.2292 167.15C99.1225 166.745 98.9957 166.491 98.8369 166.402L150.798 196.402Z" fill="#8BC5E4"/>
<path fill-rule="evenodd" clip-rule="evenodd" d="M151.191 197.15C151.312 197.59 151.364 198.52 151.364 199.9L99.4022 169.9C99.4022 168.52 99.3502 167.59 99.229 167.15L151.191 197.15Z" fill="#8BC5E4"/>
<path fill-rule="evenodd" clip-rule="evenodd" d="M151.364 199.9C151.364 201.29 151.303 202.315 151.165 202.975L99.2031 172.975C99.3417 172.315 99.4023 171.29 99.4023 169.9L151.364 199.9Z" fill="#8BC5E4"/>
<path fill-rule="evenodd" clip-rule="evenodd" d="M151.165 202.975C151.069 203.48 150.931 203.88 150.74 204.16L98.7788 174.16C98.9693 173.88 99.1079 173.48 99.2032 172.975L151.165 202.975Z" fill="#8BC5E4"/>
<path fill-rule="evenodd" clip-rule="evenodd" d="M150.74 204.16C150.55 204.45 150.35 204.645 150.108 204.785L98.1465 174.785C98.389 174.645 98.5882 174.45 98.7787 174.16L150.74 204.16Z" fill="#8BC5E4"/>
<path fill-rule="evenodd" clip-rule="evenodd" d="M150.108 204.785C149.874 204.92 149.658 204.965 149.484 204.885L97.5229 174.885C97.6962 174.965 97.9127 174.92 98.1465 174.785L150.108 204.785Z" fill="#8BC5E4"/>
<path fill-rule="evenodd" clip-rule="evenodd" d="M149.485 204.885C149.47 204.88 149.456 204.875 149.442 204.868L97.48 174.868C97.4942 174.875 97.5086 174.88 97.5231 174.885L149.485 204.885Z" fill="#8BC5E4"/>
<path fill-rule="evenodd" clip-rule="evenodd" d="M149.441 204.868C149.278 204.787 149.137 204.534 149.025 204.12L97.064 174.12C97.1755 174.534 97.3164 174.787 97.4798 174.868L149.441 204.868Z" fill="#8BC5E4"/>
<path fill-rule="evenodd" clip-rule="evenodd" d="M149.026 204.12C148.913 203.665 148.844 202.745 148.844 201.355L96.8823 171.355C96.8823 172.745 96.9516 173.665 97.0642 174.12L149.026 204.12Z" fill="#8BC5E4"/>
<path fill-rule="evenodd" clip-rule="evenodd" d="M148.844 201.355C148.844 199.975 148.922 198.94 149.052 198.275L97.0902 168.275C96.9603 168.94 96.8823 169.975 96.8823 171.355L148.844 201.355Z" fill="#8BC5E4"/>
<path fill-rule="evenodd" clip-rule="evenodd" d="M149.051 198.275C149.147 197.77 149.294 197.365 149.484 197.095L97.5229 167.095C97.3323 167.365 97.1851 167.77 97.0898 168.275L149.051 198.275Z" fill="#8BC5E4"/>
<path fill-rule="evenodd" clip-rule="evenodd" d="M149.484 197.095C149.658 196.815 149.874 196.6 150.108 196.465L98.1465 166.465C97.9127 166.6 97.6962 166.815 97.5229 167.095L149.484 197.095Z" fill="#8BC5E4"/>
<path fill-rule="evenodd" clip-rule="evenodd" d="M168.243 185.995C168.468 185.865 168.676 185.835 168.858 185.91L116.896 155.91C116.714 155.835 116.506 155.865 116.281 155.995L168.243 185.995Z" fill="#8BC5E4"/>
<path fill-rule="evenodd" clip-rule="evenodd" d="M168.858 185.91C168.872 185.914 168.886 185.92 168.901 185.927L116.939 155.927C116.925 155.92 116.911 155.914 116.896 155.91L168.858 185.91Z" fill="#8BC5E4"/>
<path fill-rule="evenodd" clip-rule="evenodd" d="M168.901 185.927C169.064 186.008 169.205 186.262 169.317 186.685L117.355 156.685C117.244 156.262 117.103 156.008 116.939 155.927L168.901 185.927Z" fill="#8BC5E4"/>
<path fill-rule="evenodd" clip-rule="evenodd" d="M169.317 186.685C169.438 187.125 169.498 188.05 169.498 189.43L117.537 159.43C117.537 158.05 117.476 157.125 117.355 156.685L169.317 186.685Z" fill="#8BC5E4"/>
<path fill-rule="evenodd" clip-rule="evenodd" d="M169.498 189.43C169.498 190.82 169.429 191.85 169.291 192.51L117.329 162.51C117.468 161.85 117.537 160.82 117.537 159.43L169.498 189.43Z" fill="#8BC5E4"/>
<path fill-rule="evenodd" clip-rule="evenodd" d="M169.291 192.51C169.195 193.015 169.048 193.42 168.866 193.695L116.905 163.695C117.087 163.42 117.234 163.015 117.329 162.51L169.291 192.51Z" fill="#8BC5E4"/>
<path fill-rule="evenodd" clip-rule="evenodd" d="M168.866 193.695C168.676 193.985 168.468 194.185 168.243 194.315L116.281 164.315C116.506 164.185 116.714 163.985 116.905 163.695L168.866 193.695Z" fill="#8BC5E4"/>
<path fill-rule="evenodd" clip-rule="evenodd" d="M168.243 194.315C168 194.455 167.792 194.495 167.602 194.425L115.64 164.425C115.831 164.495 116.039 164.455 116.281 164.315L168.243 194.315Z" fill="#8BC5E4"/>
<path fill-rule="evenodd" clip-rule="evenodd" d="M167.602 194.425C167.588 194.42 167.574 194.414 167.561 194.407L115.599 164.407C115.613 164.414 115.626 164.42 115.64 164.425L167.602 194.425Z" fill="#8BC5E4"/>
<path fill-rule="evenodd" clip-rule="evenodd" d="M167.561 194.407C167.404 194.322 167.264 194.069 167.16 193.65L115.199 163.65C115.302 164.069 115.443 164.322 115.599 164.407L167.561 194.407Z" fill="#8BC5E4"/>
<path fill-rule="evenodd" clip-rule="evenodd" d="M167.16 193.65C167.03 193.205 166.978 192.275 166.978 190.885L115.017 160.885C115.017 162.275 115.069 163.205 115.198 163.65L167.16 193.65Z" fill="#8BC5E4"/>
<path fill-rule="evenodd" clip-rule="evenodd" d="M166.978 190.885C166.978 189.505 167.039 188.48 167.177 187.81L115.216 157.81C115.077 158.48 115.017 159.505 115.017 160.885L166.978 190.885Z" fill="#8BC5E4"/>
<path fill-rule="evenodd" clip-rule="evenodd" d="M167.177 187.81C167.273 187.305 167.42 186.9 167.602 186.635L115.64 156.635C115.458 156.9 115.311 157.305 115.216 157.81L167.177 187.81Z" fill="#8BC5E4"/>
<path fill-rule="evenodd" clip-rule="evenodd" d="M167.602 186.635C167.792 186.345 168 186.135 168.243 185.995L116.281 155.995C116.039 156.135 115.831 156.345 115.64 156.635L167.602 186.635Z" fill="#8BC5E4"/>
<path fill-rule="evenodd" clip-rule="evenodd" d="M178.306 180.185C178.54 180.05 178.756 180.015 178.929 180.095L126.968 150.095C126.795 150.015 126.578 150.05 126.344 150.185L178.306 180.185Z" fill="#8BC5E4"/>
<path fill-rule="evenodd" clip-rule="evenodd" d="M178.929 180.095C178.944 180.099 178.958 180.105 178.972 180.112L127.011 150.112C126.997 150.105 126.982 150.099 126.968 150.095L178.929 180.095Z" fill="#8BC5E4"/>
<path fill-rule="evenodd" clip-rule="evenodd" d="M178.972 180.112C179.135 180.193 179.269 180.451 179.388 180.87L127.427 150.87C127.307 150.451 127.173 150.193 127.011 150.112L178.972 180.112Z" fill="#8BC5E4"/>
<path fill-rule="evenodd" clip-rule="evenodd" d="M179.388 180.87C179.501 181.315 179.57 182.235 179.57 183.615L127.609 153.615C127.609 152.235 127.539 151.315 127.427 150.87L179.388 180.87Z" fill="#8BC5E4"/>
<path fill-rule="evenodd" clip-rule="evenodd" d="M179.57 183.615C179.57 183.965 179.553 184.285 179.553 184.575L127.591 154.575C127.591 154.285 127.609 153.965 127.609 153.615L179.57 183.615Z" fill="#8BC5E4"/>
<path fill-rule="evenodd" clip-rule="evenodd" d="M179.553 184.575C178.86 185.815 178.124 187.02 177.345 188.2L125.383 158.2C126.162 157.02 126.899 155.815 127.591 154.575L179.553 184.575Z" fill="#8BC5E4"/>
<path fill-rule="evenodd" clip-rule="evenodd" d="M177.344 188.2C177.31 188.09 177.258 187.98 177.223 187.84L125.262 157.84C125.296 157.98 125.348 158.09 125.383 158.2L177.344 188.2Z" fill="#8BC5E4"/>
<path fill-rule="evenodd" clip-rule="evenodd" d="M177.223 187.84C177.111 187.385 177.05 186.46 177.05 185.07L125.089 155.07C125.089 156.46 125.149 157.385 125.262 157.84L177.223 187.84Z" fill="#8BC5E4"/>
<path fill-rule="evenodd" clip-rule="evenodd" d="M177.05 185.07C177.05 183.69 177.111 182.665 177.241 182L125.279 152C125.149 152.665 125.089 153.69 125.089 155.07L177.05 185.07Z" fill="#8BC5E4"/>
<path fill-rule="evenodd" clip-rule="evenodd" d="M177.241 182C177.353 181.485 177.492 181.085 177.674 180.82L125.712 150.82C125.53 151.085 125.392 151.485 125.279 152L177.241 182Z" fill="#8BC5E4"/>
<path fill-rule="evenodd" clip-rule="evenodd" d="M177.674 180.82C177.864 180.53 178.072 180.32 178.306 180.185L126.344 150.185C126.111 150.32 125.903 150.53 125.712 150.82L177.674 180.82Z" fill="#8BC5E4"/>
<path fill-rule="evenodd" clip-rule="evenodd" d="M95.0116 249.905C95.1591 249.82 95.3035 249.807 95.4432 249.861L43.4817 219.861C43.3419 219.807 43.1976 219.82 43.05 219.905L95.0116 249.905Z" fill="#8BC5E4"/>
<path fill-rule="evenodd" clip-rule="evenodd" d="M95.4432 249.861C96.468 250.257 97.2459 254.241 97.2459 259.565L45.2844 229.565C45.2844 224.241 44.5064 220.257 43.4817 219.861L95.4432 249.861Z" fill="#8BC5E4"/>
<path fill-rule="evenodd" clip-rule="evenodd" d="M97.2459 259.565C97.2459 265.595 96.2413 271.075 95.0116 271.785L43.05 241.785C44.2798 241.075 45.2844 235.595 45.2844 229.565L97.2459 259.565Z" fill="#8BC5E4"/>
<path fill-rule="evenodd" clip-rule="evenodd" d="M95.0115 271.785C94.8629 271.871 94.7178 271.884 94.5775 271.83L42.616 241.83C42.7563 241.884 42.9014 241.871 43.05 241.785L95.0115 271.785Z" fill="#8BC5E4"/>
<path fill-rule="evenodd" clip-rule="evenodd" d="M94.5775 271.83C93.5484 271.437 92.7772 267.451 92.7772 262.145L40.8157 232.145C40.8157 237.451 41.5869 241.437 42.616 241.83L94.5775 271.83Z" fill="#8BC5E4"/>
<path fill-rule="evenodd" clip-rule="evenodd" d="M92.7772 262.145C92.7772 256.095 93.7731 250.62 95.0115 249.905L43.05 219.905C41.8116 220.62 40.8157 226.095 40.8157 232.145L92.7772 262.145Z" fill="#8BC5E4"/>
<path fill-rule="evenodd" clip-rule="evenodd" d="M62.4318 147.315C56.6727 150.64 51.9615 158.85 51.9615 165.58L0 135.58C0 128.85 4.71118 120.64 10.4702 117.315L62.4318 147.315Z" fill="#8BC5E4"/>
<path fill-rule="evenodd" clip-rule="evenodd" d="M51.9615 341.14C51.9615 344.37 53.047 346.688 54.8128 347.858L2.85124 317.858C1.08546 316.688 0 314.37 0 311.14L51.9615 341.14Z" fill="#8BC5E4"/>
<path fill-rule="evenodd" clip-rule="evenodd" d="M54.8126 347.858C56.7255 349.125 59.4369 349.044 62.4316 347.315L10.4701 317.315C7.47537 319.044 4.764 319.125 2.85107 317.858L54.8126 347.858Z" fill="#8BC5E4"/>
<path fill-rule="evenodd" clip-rule="evenodd" d="M263.194 231.405C268.944 228.085 273.664 219.87 273.664 213.14L221.702 183.14C221.702 189.87 216.983 198.085 211.232 201.405L263.194 231.405Z" fill="#8BC5E4"/>
<path fill-rule="evenodd" clip-rule="evenodd" d="M273.664 37.5799C273.664 34.3495 272.577 32.0326 270.81 30.8638L218.848 0.86377C220.615 2.03264 221.702 4.34951 221.702 7.57991L273.664 37.5799Z" fill="#8BC5E4"/>
<path fill-rule="evenodd" clip-rule="evenodd" d="M270.81 30.8639C268.895 29.5976 266.184 29.6786 263.194 31.405L211.232 1.40499C214.222 -0.321409 216.934 -0.402425 218.848 0.863855L270.81 30.8639Z" fill="#8BC5E4"/>
<path fill-rule="evenodd" clip-rule="evenodd" d="M263.194 36.9148C264.736 36.0244 266.119 35.9036 267.139 36.4356L215.178 6.43556C214.157 5.90356 212.774 6.02443 211.232 6.91483L263.194 36.9148Z" fill="#8BC5E4"/>
<path fill-rule="evenodd" clip-rule="evenodd" d="M267.139 36.4355C268.245 37.0119 268.927 38.3544 268.927 40.3148L216.965 10.3148C216.965 8.35441 216.284 7.01188 215.178 6.43555L267.139 36.4355Z" fill="#8BC5E4"/>
<path fill-rule="evenodd" clip-rule="evenodd" d="M268.927 215.875C268.927 219.645 266.407 224.04 263.194 225.895L211.232 195.895C214.445 194.04 216.965 189.645 216.965 185.875L268.927 215.875Z" fill="#8BC5E4"/>
<path fill-rule="evenodd" clip-rule="evenodd" d="M62.4317 341.805C60.8854 342.698 59.5006 342.82 58.4786 342.288L6.51709 312.288C7.53909 312.82 8.92385 312.698 10.4702 311.805L62.4317 341.805Z" fill="#8BC5E4"/>
<path fill-rule="evenodd" clip-rule="evenodd" d="M58.4787 342.288C57.3715 341.713 56.69 340.37 56.69 338.41L4.72852 308.41C4.72852 310.37 5.40996 311.713 6.51713 312.288L58.4787 342.288Z" fill="#8BC5E4"/>
<path fill-rule="evenodd" clip-rule="evenodd" d="M56.69 162.85C56.69 159.08 59.2102 154.685 62.4318 152.825L10.4703 122.825C7.24865 124.685 4.72852 129.08 4.72852 132.85L56.69 162.85Z" fill="#8BC5E4"/>
<path d="M162.804 143.485C147.752 152.175 135.507 173.535 135.507 191.115C135.507 191.475 135.507 191.845 135.524 192.195L112.341 236.74L95.1501 246.655C92.3529 248.27 90.8373 256.435 90.8373 262.675C90.6468 270.635 92.7079 275.685 95.1848 274.255L120.403 259.725L150.965 242.08V237.39L126.621 251.445L130.034 244.885L146.194 235.555V230.865L133.515 238.185L147.865 210.62C152.161 211.43 157.296 210.385 162.804 207.205C168.329 204.015 173.465 199.13 177.76 193.36L192.102 204.36L188.655 206.35V211.04L195.592 207.035L198.995 209.66L193.427 212.875V217.565L204.053 211.43L230.432 196.17C232.909 194.74 234.979 187.315 234.779 179.57C234.779 173.33 233.273 166.91 230.467 168.53L213.276 178.465L190.101 160.685C190.11 160.32 190.118 159.945 190.118 159.585C190.118 142.015 177.873 134.785 162.804 143.485ZM162.804 148.175C167.948 145.205 172.685 144.41 176.539 145.465C175.968 146.295 175.439 146.94 174.946 147.415V149.475C175.916 148.545 176.756 147.48 177.466 146.3V154.86L179.414 153.735V146.685C182.627 148.65 184.888 152.275 185.728 157.29C185.182 156.825 184.429 156.86 183.459 157.42C182.48 157.985 181.709 158.84 181.155 159.96C180.497 161.32 180.168 163.12 180.168 165.35C180.168 167.62 180.471 169.025 181.068 169.57C181.675 170.11 182.471 170.08 183.459 169.51C184.42 168.955 185.165 168.145 185.71 167.07C185.061 171.605 183.597 176.28 181.519 180.74C181.389 179.465 181.086 178.62 180.609 178.195C180.055 177.705 179.293 177.725 178.306 178.295C177.327 178.86 176.557 179.715 176.011 180.84C175.344 182.205 175.006 184 175.006 186.23C175.006 188.4 175.283 189.77 175.829 190.365C172.114 195.44 167.645 199.72 162.804 202.515C158.664 204.905 154.767 205.895 151.398 205.64C151.797 205.2 152.126 204.71 152.412 204.135C153.07 202.775 153.399 200.975 153.399 198.725C153.399 196.485 153.07 195.065 152.412 194.475C151.857 193.985 151.087 194.01 150.108 194.575C149.121 195.145 148.367 195.99 147.813 197.12C147.146 198.485 146.809 200.28 146.809 202.51C146.809 203.22 146.843 203.85 146.904 204.385C143.57 202.67 141.145 199.29 140.097 194.485C140.287 194.415 140.487 194.32 140.694 194.2C141.673 193.635 142.444 192.8 142.989 191.665C143.656 190.3 143.985 188.5 143.985 186.26C143.985 184.02 143.656 182.6 142.998 182.01C142.444 181.51 141.673 181.545 140.694 182.11C140.478 182.235 140.279 182.37 140.08 182.535C141.162 176.23 143.76 169.71 147.371 163.905C147.268 164.655 147.216 165.465 147.216 166.355C147.216 168.625 147.519 170.03 148.116 170.575C148.722 171.115 149.519 171.085 150.506 170.515C151.494 169.945 152.256 169.115 152.801 167.98C153.477 166.61 153.806 164.81 153.806 162.57C153.806 160.33 153.477 158.91 152.81 158.325C152.481 158.025 152.074 157.92 151.589 158C154.915 153.95 158.734 150.525 162.804 148.175ZM168.832 147.845C167.844 148.415 167.082 149.265 166.537 150.38C165.861 151.75 165.532 153.55 165.532 155.78C165.532 158.05 165.835 159.455 166.433 160C167.039 160.54 167.836 160.51 168.832 159.935C169.81 159.37 170.581 158.535 171.127 157.4C171.793 156.035 172.122 154.235 172.122 151.995C172.122 149.755 171.793 148.335 171.135 147.745C170.581 147.245 169.81 147.28 168.832 147.845ZM159.877 153.125C159.652 153.975 159.245 154.84 158.647 155.725C158.058 156.605 157.504 157.295 156.993 157.78V159.84C157.954 158.915 158.794 157.85 159.513 156.665V165.225L161.453 164.105V152.215L159.877 153.125ZM150.506 160.305C150.74 160.17 150.948 160.14 151.13 160.215C151.312 160.29 151.468 160.54 151.589 160.99C151.702 161.445 151.771 162.355 151.771 163.745C151.771 165.135 151.693 166.16 151.563 166.825C151.468 167.34 151.321 167.735 151.13 168.025C150.957 168.285 150.74 168.51 150.506 168.645C150.264 168.785 150.065 168.8 149.874 168.75C149.692 168.675 149.545 168.42 149.424 167.97C149.303 167.52 149.251 166.59 149.251 165.2C149.251 163.81 149.311 162.785 149.441 162.13C149.554 161.615 149.692 161.225 149.874 160.94C150.065 160.65 150.264 160.445 150.506 160.305ZM168.832 149.725C169.065 149.59 169.273 149.56 169.455 149.635C169.637 149.71 169.784 149.965 169.914 150.41C170.027 150.865 170.087 151.78 170.087 153.17C170.087 154.56 170.018 155.58 169.879 156.25C169.784 156.765 169.646 157.155 169.455 157.445C169.273 157.71 169.065 157.93 168.832 158.065C168.598 158.2 168.381 158.225 168.191 158.175C168.018 158.095 167.862 157.845 167.749 157.39C167.628 156.94 167.567 156.015 167.567 154.625C167.567 153.235 167.628 152.21 167.766 151.55C167.87 151.04 168.018 150.645 168.191 150.365C168.381 150.075 168.598 149.86 168.832 149.725ZM157.097 172.64C156.118 173.205 155.348 174.06 154.802 175.175C154.135 176.54 153.806 178.34 153.806 180.57C153.806 182.84 154.109 184.245 154.707 184.79C155.313 185.33 156.11 185.3 157.097 184.73C158.084 184.16 158.855 183.325 159.392 182.195C160.067 180.825 160.396 179.025 160.396 176.785C160.396 174.545 160.067 173.125 159.401 172.54C158.855 172.035 158.084 172.07 157.097 172.64ZM166.58 167.165C165.593 167.735 164.831 168.585 164.285 169.7C163.609 171.07 163.28 172.87 163.28 175.1C163.28 177.37 163.583 178.775 164.181 179.32C164.787 179.86 165.584 179.83 166.58 179.255C167.559 178.69 168.329 177.855 168.875 176.72C169.542 175.355 169.871 173.555 169.871 171.315C169.871 169.075 169.542 167.655 168.884 167.065C168.329 166.565 167.559 166.6 166.58 167.165ZM148.982 177.435C148.766 178.28 148.359 179.145 147.752 180.035C147.155 180.92 146.609 181.605 146.107 182.085V184.145C147.068 183.22 147.908 182.155 148.61 180.98V189.54L150.558 188.415V176.525L148.982 177.435ZM175.283 162.25C175.067 163.095 174.651 163.965 174.054 164.85C173.465 165.73 172.911 166.42 172.4 166.905V168.965C173.37 168.035 174.21 166.97 174.92 165.79V174.35L176.86 173.23V161.34L175.283 162.25ZM140.694 183.99C140.92 183.86 141.136 183.825 141.318 183.9C141.491 183.98 141.647 184.23 141.768 184.68C141.89 185.13 141.95 186.045 141.95 187.435C141.95 188.835 141.89 189.84 141.751 190.51C141.647 191.03 141.5 191.425 141.327 191.705C141.136 191.975 140.92 192.2 140.694 192.33C140.461 192.465 140.244 192.49 140.054 192.44C139.915 192.38 139.785 192.195 139.69 191.9C139.586 190.9 139.525 189.875 139.525 188.795C139.525 187.745 139.577 186.685 139.672 185.62C139.768 185.215 139.906 184.865 140.054 184.63C140.244 184.34 140.461 184.125 140.694 183.99ZM157.097 174.52C157.331 174.385 157.547 174.35 157.729 174.425C157.902 174.505 158.058 174.755 158.179 175.205C158.301 175.655 158.361 176.57 158.361 177.96C158.361 179.36 158.292 180.37 158.162 181.035C158.058 181.555 157.911 181.95 157.729 182.235C157.547 182.5 157.331 182.725 157.097 182.86C156.872 182.99 156.655 183.015 156.465 182.965C156.292 182.885 156.136 182.635 156.023 182.19C155.902 181.73 155.841 180.815 155.841 179.415C155.841 178.025 155.902 177 156.04 176.34C156.144 175.83 156.292 175.435 156.465 175.155C156.655 174.865 156.872 174.65 157.097 174.52ZM166.58 169.045C166.814 168.91 167.022 168.88 167.203 168.955C167.385 169.03 167.533 169.285 167.662 169.73C167.775 170.185 167.836 171.1 167.836 172.49C167.836 173.89 167.775 174.895 167.645 175.56C167.533 176.085 167.394 176.475 167.203 176.765C167.022 177.03 166.814 177.25 166.58 177.385C166.346 177.52 166.13 177.545 165.948 177.49C165.766 177.415 165.61 177.165 165.497 176.72C165.385 176.255 165.315 175.345 165.315 173.945C165.315 172.555 165.385 171.525 165.515 170.87C165.619 170.36 165.766 169.965 165.948 169.68C166.13 169.395 166.346 169.18 166.58 169.045ZM183.459 159.3C183.693 159.165 183.9 159.135 184.082 159.21C184.264 159.285 184.42 159.535 184.541 159.985C184.654 160.44 184.723 161.35 184.723 162.74C184.723 164.14 184.645 165.155 184.515 165.82C184.42 166.335 184.273 166.73 184.082 167.02C183.909 167.28 183.693 167.505 183.459 167.64C183.216 167.78 183.017 167.795 182.827 167.745C182.645 167.67 182.497 167.415 182.376 166.975C182.255 166.515 182.203 165.595 182.203 164.195C182.203 162.805 182.264 161.78 182.394 161.125C182.506 160.61 182.645 160.22 182.827 159.935C183.017 159.645 183.216 159.44 183.459 159.3ZM168.243 184.105C167.255 184.675 166.485 185.53 165.93 186.66C165.272 188.02 164.943 189.81 164.943 192.04C164.943 194.32 165.238 195.72 165.844 196.27C166.45 196.79 167.247 196.78 168.243 196.205C169.221 195.64 169.983 194.79 170.538 193.67C171.196 192.31 171.534 190.505 171.534 188.255C171.534 186.015 171.204 184.595 170.546 184.005C169.992 183.515 169.221 183.54 168.243 184.105ZM160.007 188.96C159.782 189.81 159.366 190.69 158.777 191.57C158.179 192.455 157.625 193.145 157.114 193.63V195.69C158.084 194.76 158.924 193.705 159.634 192.515V201.075L161.574 199.955V188.055L160.007 188.96ZM150.108 196.465C150.351 196.325 150.55 196.3 150.732 196.375C150.922 196.425 151.069 196.69 151.191 197.15C151.312 197.59 151.364 198.52 151.364 199.9C151.364 201.29 151.303 202.315 151.165 202.975C151.069 203.48 150.931 203.88 150.74 204.16C150.55 204.45 150.351 204.645 150.108 204.785C149.874 204.92 149.658 204.965 149.485 204.885C149.303 204.83 149.147 204.57 149.026 204.12C148.913 203.665 148.844 202.745 148.844 201.355C148.844 199.975 148.922 198.94 149.052 198.275C149.147 197.77 149.294 197.365 149.485 197.095C149.658 196.815 149.874 196.6 150.108 196.465ZM168.243 185.995C168.468 185.865 168.676 185.835 168.858 185.91C169.039 185.965 169.195 186.225 169.317 186.685C169.438 187.125 169.498 188.05 169.498 189.43C169.498 190.82 169.429 191.85 169.291 192.51C169.195 193.015 169.048 193.42 168.866 193.695C168.676 193.985 168.468 194.185 168.243 194.315C168 194.455 167.792 194.495 167.602 194.425C167.429 194.365 167.273 194.105 167.16 193.65C167.03 193.205 166.978 192.275 166.978 190.885C166.978 189.505 167.039 188.48 167.177 187.81C167.273 187.305 167.42 186.9 167.602 186.635C167.792 186.345 168 186.135 168.243 185.995ZM178.306 180.185C178.54 180.05 178.756 180.015 178.929 180.095C179.111 180.15 179.258 180.415 179.388 180.87C179.501 181.315 179.57 182.235 179.57 183.615C179.57 183.965 179.553 184.285 179.553 184.575C178.86 185.815 178.124 187.02 177.345 188.2C177.31 188.09 177.258 187.98 177.223 187.84C177.111 187.385 177.05 186.46 177.05 185.07C177.05 183.69 177.111 182.665 177.241 182C177.353 181.485 177.492 181.085 177.674 180.82C177.864 180.53 178.072 180.32 178.306 180.185ZM95.0115 249.905C96.2413 249.195 97.2459 253.515 97.2459 259.565C97.2459 265.595 96.2413 271.075 95.0115 271.785C93.7731 272.5 92.7772 268.175 92.7772 262.145C92.7772 256.095 93.7731 250.62 95.0115 249.905ZM153.044 226.91V231.6L163.679 225.46V220.77L153.044 226.91ZM170.771 216.675V221.365L181.398 215.23V210.54L170.771 216.675ZM157.824 233.43V238.12L168.451 231.985V227.295L157.824 233.43ZM175.535 223.205V227.895L186.169 221.755V217.065L175.535 223.205ZM62.4317 147.315C56.6726 150.64 51.9614 158.85 51.9614 165.58V341.14C51.9614 347.87 56.6726 350.64 62.4317 347.315L263.194 231.405C268.944 228.085 273.664 219.87 273.664 213.14V37.5797C273.664 30.8497 268.944 28.0847 263.194 31.4047L62.4317 147.315ZM62.4317 152.825L263.194 36.9147C266.407 35.0597 268.927 36.5447 268.927 40.3147V215.875C268.927 219.645 266.407 224.04 263.194 225.895L62.4317 341.805C59.2101 343.665 56.6899 342.18 56.6899 338.41V162.85C56.6899 159.08 59.2101 154.685 62.4317 152.825Z" fill="#8BC5E4"/>
<path fill-rule="evenodd" clip-rule="evenodd" d="M62.4317 152.825L263.194 36.9147C266.407 35.0597 268.927 36.5447 268.927 40.3147V215.875C268.927 219.645 266.407 224.04 263.194 225.895L62.4317 341.805C59.2101 343.665 56.6899 342.18 56.6899 338.41V162.85C56.6899 159.08 59.2101 154.685 62.4317 152.825ZM135.507 191.115C135.507 173.535 147.752 152.175 162.804 143.485C177.873 134.785 190.118 142.015 190.118 159.585C190.118 159.945 190.11 160.32 190.101 160.685L213.276 178.465L230.467 168.53C233.273 166.91 234.779 173.33 234.779 179.57C234.979 187.315 232.909 194.74 230.432 196.17L204.053 211.43L193.427 217.565V212.875L198.995 209.66L195.592 207.035L188.655 211.04V206.35L192.102 204.36L177.76 193.36C173.465 199.13 168.329 204.015 162.804 207.205C157.296 210.385 152.161 211.43 147.865 210.62L133.515 238.185L146.194 230.865V235.555L130.034 244.885L126.621 251.445L150.965 237.39V242.08L120.403 259.725L95.1848 274.255C92.7079 275.685 90.6468 270.635 90.8373 262.675C90.8373 256.435 92.3529 248.27 95.1501 246.655L112.341 236.74L135.524 192.195C135.507 191.845 135.507 191.475 135.507 191.115ZM153.044 231.6V226.91L163.679 220.77V225.46L153.044 231.6ZM170.771 221.365V216.675L181.398 210.54V215.23L170.771 221.365ZM157.824 238.12V233.43L168.451 227.295V231.985L157.824 238.12ZM175.535 227.895V223.205L186.169 217.065V221.755L175.535 227.895Z" fill="white"/>
<path fill-rule="evenodd" clip-rule="evenodd" d="M162.804 148.175C167.948 145.205 172.685 144.41 176.539 145.465C175.968 146.295 175.439 146.94 174.946 147.415V149.475C175.916 148.545 176.756 147.48 177.466 146.3V154.86L179.414 153.735V146.685C182.627 148.65 184.888 152.275 185.728 157.29C185.182 156.825 184.429 156.86 183.459 157.42C182.48 157.985 181.709 158.84 181.155 159.96C180.497 161.32 180.168 163.12 180.168 165.35C180.168 167.62 180.471 169.025 181.068 169.57C181.675 170.11 182.471 170.08 183.459 169.51C184.42 168.955 185.165 168.145 185.71 167.07C185.061 171.605 183.597 176.28 181.519 180.74C181.389 179.465 181.086 178.62 180.609 178.195C180.055 177.705 179.293 177.725 178.306 178.295C177.327 178.86 176.557 179.715 176.011 180.84C175.344 182.205 175.006 184 175.006 186.23C175.006 188.4 175.283 189.77 175.829 190.365C172.114 195.44 167.645 199.72 162.804 202.515C158.664 204.905 154.767 205.895 151.398 205.64C151.797 205.2 152.126 204.71 152.412 204.135C153.07 202.775 153.399 200.975 153.399 198.725C153.399 196.485 153.07 195.065 152.412 194.475C151.857 193.985 151.087 194.01 150.108 194.575C149.121 195.145 148.367 195.99 147.813 197.12C147.146 198.485 146.809 200.28 146.809 202.51C146.809 203.22 146.843 203.85 146.904 204.385C143.57 202.67 141.145 199.29 140.097 194.485C140.287 194.415 140.487 194.32 140.694 194.2C141.673 193.635 142.444 192.8 142.989 191.665C143.656 190.3 143.985 188.5 143.985 186.26C143.985 184.02 143.656 182.6 142.998 182.01C142.444 181.51 141.673 181.545 140.694 182.11C140.478 182.235 140.279 182.37 140.08 182.535C141.162 176.23 143.76 169.71 147.371 163.905C147.268 164.655 147.216 165.465 147.216 166.355C147.216 168.625 147.519 170.03 148.116 170.575C148.722 171.115 149.519 171.085 150.506 170.515C151.494 169.945 152.256 169.115 152.801 167.98C153.477 166.61 153.806 164.81 153.806 162.57C153.806 160.33 153.477 158.91 152.81 158.325C152.481 158.025 152.074 157.92 151.589 158C154.915 153.95 158.734 150.525 162.804 148.175ZM166.537 150.38C167.082 149.265 167.844 148.415 168.832 147.845C169.81 147.28 170.581 147.245 171.135 147.745C171.793 148.335 172.122 149.755 172.122 151.995C172.122 154.235 171.793 156.035 171.127 157.4C170.581 158.535 169.81 159.37 168.832 159.935C167.836 160.51 167.039 160.54 166.433 160C165.835 159.455 165.532 158.05 165.532 155.78C165.532 153.55 165.861 151.75 166.537 150.38ZM158.647 155.725C159.245 154.84 159.652 153.975 159.877 153.125L161.453 152.215V164.105L159.513 165.225V156.665C158.794 157.85 157.954 158.915 156.993 159.84V157.78C157.504 157.295 158.058 156.605 158.647 155.725ZM154.802 175.175C155.348 174.06 156.118 173.205 157.097 172.64C158.084 172.07 158.855 172.035 159.401 172.54C160.067 173.125 160.396 174.545 160.396 176.785C160.396 179.025 160.067 180.825 159.392 182.195C158.855 183.325 158.084 184.16 157.097 184.73C156.11 185.3 155.313 185.33 154.707 184.79C154.109 184.245 153.806 182.84 153.806 180.57C153.806 178.34 154.135 176.54 154.802 175.175ZM164.285 169.7C164.831 168.585 165.593 167.735 166.58 167.165C167.559 166.6 168.329 166.565 168.884 167.065C169.542 167.655 169.871 169.075 169.871 171.315C169.871 173.555 169.542 175.355 168.875 176.72C168.329 177.855 167.559 178.69 166.58 179.255C165.584 179.83 164.787 179.86 164.181 179.32C163.583 178.775 163.28 177.37 163.28 175.1C163.28 172.87 163.609 171.07 164.285 169.7ZM147.752 180.035C148.359 179.145 148.766 178.28 148.982 177.435L150.558 176.525V188.415L148.61 189.54V180.98C147.908 182.155 147.068 183.22 146.107 184.145V182.085C146.609 181.605 147.155 180.92 147.752 180.035ZM174.054 164.85C174.651 163.965 175.067 163.095 175.283 162.25L176.86 161.34V173.23L174.92 174.35V165.79C174.21 166.97 173.37 168.035 172.4 168.965V166.905C172.911 166.42 173.465 165.73 174.054 164.85ZM165.93 186.66C166.485 185.53 167.255 184.675 168.243 184.105C169.221 183.54 169.992 183.515 170.546 184.005C171.204 184.595 171.534 186.015 171.534 188.255C171.534 190.505 171.196 192.31 170.538 193.67C169.983 194.79 169.221 195.64 168.243 196.205C167.247 196.78 166.45 196.79 165.844 196.27C165.238 195.72 164.943 194.32 164.943 192.04C164.943 189.81 165.272 188.02 165.93 186.66ZM158.777 191.57C159.366 190.69 159.782 189.81 160.007 188.96L161.574 188.055V199.955L159.634 201.075V192.515C158.924 193.705 158.084 194.76 157.114 195.69V193.63C157.625 193.145 158.179 192.455 158.777 191.57Z" fill="white"/>
<path d="M150.506 160.305C150.74 160.17 150.948 160.14 151.13 160.215C151.312 160.29 151.468 160.54 151.589 160.99C151.702 161.445 151.771 162.355 151.771 163.745C151.771 165.135 151.693 166.16 151.563 166.825C151.468 167.34 151.321 167.735 151.13 168.025C150.957 168.285 150.74 168.51 150.506 168.645C150.264 168.785 150.065 168.8 149.874 168.75C149.692 168.675 149.545 168.42 149.424 167.97C149.303 167.52 149.251 166.59 149.251 165.2C149.251 163.81 149.311 162.785 149.441 162.13C149.554 161.615 149.692 161.225 149.874 160.94C150.065 160.65 150.264 160.445 150.506 160.305Z" fill="white"/>
<path d="M168.832 149.725C169.065 149.59 169.273 149.56 169.455 149.635C169.637 149.71 169.784 149.965 169.914 150.41C170.027 150.865 170.087 151.78 170.087 153.17C170.087 154.56 170.018 155.58 169.879 156.25C169.784 156.765 169.646 157.155 169.455 157.445C169.273 157.71 169.065 157.93 168.832 158.065C168.598 158.2 168.381 158.225 168.191 158.175C168.018 158.095 167.862 157.845 167.749 157.39C167.628 156.94 167.567 156.015 167.567 154.625C167.567 153.235 167.628 152.21 167.766 151.55C167.87 151.04 168.018 150.645 168.191 150.365C168.381 150.075 168.598 149.86 168.832 149.725Z" fill="white"/>
<path d="M183.459 159.3C183.693 159.165 183.9 159.135 184.082 159.21C184.264 159.285 184.42 159.535 184.541 159.985C184.654 160.44 184.723 161.35 184.723 162.74C184.723 164.14 184.645 165.155 184.515 165.82C184.42 166.335 184.273 166.73 184.082 167.02C183.909 167.28 183.693 167.505 183.459 167.64C183.216 167.78 183.017 167.795 182.827 167.745C182.645 167.67 182.497 167.415 182.376 166.975C182.255 166.515 182.203 165.595 182.203 164.195C182.203 162.805 182.264 161.78 182.394 161.125C182.506 160.61 182.645 160.22 182.827 159.935C183.017 159.645 183.216 159.44 183.459 159.3Z" fill="white"/>
<path d="M166.58 169.045C166.814 168.91 167.022 168.88 167.203 168.955C167.385 169.03 167.533 169.285 167.662 169.73C167.775 170.185 167.836 171.1 167.836 172.49C167.836 173.89 167.775 174.895 167.645 175.56C167.533 176.085 167.394 176.475 167.203 176.765C167.022 177.03 166.814 177.25 166.58 177.385C166.346 177.52 166.13 177.545 165.948 177.49C165.766 177.415 165.61 177.165 165.497 176.72C165.385 176.255 165.315 175.345 165.315 173.945C165.315 172.555 165.385 171.525 165.515 170.87C165.619 170.36 165.766 169.965 165.948 169.68C166.13 169.395 166.346 169.18 166.58 169.045Z" fill="white"/>
<path d="M157.097 174.52C157.331 174.385 157.547 174.35 157.729 174.425C157.902 174.505 158.058 174.755 158.179 175.205C158.301 175.655 158.361 176.57 158.361 177.96C158.361 179.36 158.292 180.37 158.162 181.035C158.058 181.555 157.911 181.95 157.729 182.235C157.547 182.5 157.331 182.725 157.097 182.86C156.872 182.99 156.655 183.015 156.465 182.965C156.292 182.885 156.136 182.635 156.023 182.19C155.902 181.73 155.841 180.815 155.841 179.415C155.841 178.025 155.902 177 156.04 176.34C156.144 175.83 156.292 175.435 156.465 175.155C156.655 174.865 156.872 174.65 157.097 174.52Z" fill="white"/>
<path d="M140.694 183.99C140.92 183.86 141.136 183.825 141.318 183.9C141.491 183.98 141.647 184.23 141.768 184.68C141.89 185.13 141.95 186.045 141.95 187.435C141.95 188.835 141.89 189.84 141.751 190.51C141.647 191.03 141.5 191.425 141.327 191.705C141.136 191.975 140.92 192.2 140.694 192.33C140.461 192.465 140.244 192.49 140.054 192.44C139.915 192.38 139.785 192.195 139.69 191.9C139.586 190.9 139.525 189.875 139.525 188.795C139.525 187.745 139.577 186.685 139.672 185.62C139.768 185.215 139.906 184.865 140.054 184.63C140.244 184.34 140.461 184.125 140.694 183.99Z" fill="white"/>
<path d="M178.306 180.185C178.54 180.05 178.756 180.015 178.929 180.095C179.111 180.15 179.258 180.415 179.388 180.87C179.501 181.315 179.57 182.235 179.57 183.615C179.57 183.965 179.553 184.285 179.553 184.575C178.86 185.815 178.124 187.02 177.345 188.2C177.31 188.09 177.258 187.98 177.223 187.84C177.111 187.385 177.05 186.46 177.05 185.07C177.05 183.69 177.111 182.665 177.241 182C177.353 181.485 177.492 181.085 177.674 180.82C177.864 180.53 178.072 180.32 178.306 180.185Z" fill="white"/>
<path d="M168.243 185.995C168.468 185.865 168.676 185.835 168.858 185.91C169.039 185.965 169.195 186.225 169.317 186.685C169.438 187.125 169.498 188.05 169.498 189.43C169.498 190.82 169.429 191.85 169.291 192.51C169.195 193.015 169.048 193.42 168.866 193.695C168.676 193.985 168.468 194.185 168.243 194.315C168 194.455 167.792 194.495 167.602 194.425C167.429 194.365 167.273 194.105 167.16 193.65C167.03 193.205 166.978 192.275 166.978 190.885C166.978 189.505 167.039 188.48 167.177 187.81C167.273 187.305 167.42 186.9 167.602 186.635C167.792 186.345 168 186.135 168.243 185.995Z" fill="white"/>
<path d="M150.108 196.465C150.351 196.325 150.55 196.3 150.732 196.375C150.922 196.425 151.069 196.69 151.191 197.15C151.312 197.59 151.364 198.52 151.364 199.9C151.364 201.29 151.303 202.315 151.165 202.975C151.069 203.48 150.931 203.88 150.74 204.16C150.55 204.45 150.351 204.645 150.108 204.785C149.874 204.92 149.658 204.965 149.485 204.885C149.303 204.83 149.147 204.57 149.026 204.12C148.913 203.665 148.844 202.745 148.844 201.355C148.844 199.975 148.922 198.94 149.052 198.275C149.147 197.77 149.294 197.365 149.485 197.095C149.658 196.815 149.874 196.6 150.108 196.465Z" fill="white"/>
<path d="M95.0115 249.905C96.2413 249.195 97.2459 253.515 97.2459 259.565C97.2459 265.595 96.2413 271.075 95.0115 271.785C93.7731 272.5 92.7772 268.175 92.7772 262.145C92.7772 256.095 93.7731 250.62 95.0115 249.905Z" fill="white"/>
</svg>
