<svg width="226" height="321" viewBox="0 0 226 321" fill="none" xmlns="http://www.w3.org/2000/svg">
<path fill-rule="evenodd" clip-rule="evenodd" d="M178.644 204.522L173.621 201.462L121.659 171.462L126.682 174.522L178.644 204.522Z" fill="#8BC5E4"/>
<path fill-rule="evenodd" clip-rule="evenodd" d="M109.786 243.777V223.677L57.8245 193.677V213.777L109.786 243.777Z" fill="#8BC5E4"/>
<path fill-rule="evenodd" clip-rule="evenodd" d="M109.786 223.678L116.229 219.958L64.2677 189.958L57.8245 193.678L109.786 223.678Z" fill="#8BC5E4"/>
<path fill-rule="evenodd" clip-rule="evenodd" d="M116.229 219.958V215.728L64.2676 185.728V189.958L116.229 219.958Z" fill="#8BC5E4"/>
<path fill-rule="evenodd" clip-rule="evenodd" d="M116.229 215.728L98.9432 225.708L46.9817 195.708L64.2676 185.728L116.229 215.728Z" fill="#8BC5E4"/>
<path fill-rule="evenodd" clip-rule="evenodd" d="M98.9432 225.708V229.938L46.9817 199.938V195.708L98.9432 225.708Z" fill="#8BC5E4"/>
<path fill-rule="evenodd" clip-rule="evenodd" d="M98.9432 229.937L105.395 226.212L53.4336 196.212L46.9817 199.937L98.9432 229.937Z" fill="#8BC5E4"/>
<path fill-rule="evenodd" clip-rule="evenodd" d="M105.395 226.212V242.712L53.4336 212.712V196.212L105.395 226.212Z" fill="#8BC5E4"/>
<path fill-rule="evenodd" clip-rule="evenodd" d="M86.308 218.292L89.4603 216.472L37.4988 186.472L34.3464 188.292L86.308 218.292Z" fill="#8BC5E4"/>
<path fill-rule="evenodd" clip-rule="evenodd" d="M89.4603 216.473V208.923L37.4988 178.923V186.473L89.4603 216.473Z" fill="#8BC5E4"/>
<path fill-rule="evenodd" clip-rule="evenodd" d="M89.4603 208.923L93.0197 202.688L41.0581 172.688L37.4988 178.923L89.4603 208.923Z" fill="#8BC5E4"/>
<path fill-rule="evenodd" clip-rule="evenodd" d="M93.0196 202.688L99.0039 210.962L47.0423 180.962L41.0581 172.688L93.0196 202.688Z" fill="#8BC5E4"/>
<path fill-rule="evenodd" clip-rule="evenodd" d="M99.004 210.963L104.685 207.683L52.7236 177.683L47.0425 180.963L99.004 210.963Z" fill="#8BC5E4"/>
<path fill-rule="evenodd" clip-rule="evenodd" d="M104.685 207.682L96.0509 197.407L44.0894 167.407L52.7236 177.682L104.685 207.682Z" fill="#8BC5E4"/>
<path fill-rule="evenodd" clip-rule="evenodd" d="M96.0509 197.407L104.235 182.942L52.2733 152.942L44.0894 167.407L96.0509 197.407Z" fill="#8BC5E4"/>
<path fill-rule="evenodd" clip-rule="evenodd" d="M104.235 182.942L98.3285 186.352L46.3669 156.352L52.2732 152.942L104.235 182.942Z" fill="#8BC5E4"/>
<path fill-rule="evenodd" clip-rule="evenodd" d="M98.3284 186.353L89.4603 202.573L37.4988 172.573L46.3669 156.353L98.3284 186.353Z" fill="#8BC5E4"/>
<path fill-rule="evenodd" clip-rule="evenodd" d="M89.4603 202.572V191.472L37.4988 161.472V172.572L89.4603 202.572Z" fill="#8BC5E4"/>
<path fill-rule="evenodd" clip-rule="evenodd" d="M89.4604 191.472L86.2474 193.327L34.2859 163.327L37.4988 161.472L89.4604 191.472Z" fill="#8BC5E4"/>
<path fill-rule="evenodd" clip-rule="evenodd" d="M90.3089 177.003L94.717 174.458L42.7555 144.458L38.3474 147.003L90.3089 177.003Z" fill="#8BC5E4"/>
<path fill-rule="evenodd" clip-rule="evenodd" d="M94.717 174.458L92.8377 170.143L40.8762 140.143L42.7555 144.458L94.717 174.458Z" fill="#8BC5E4"/>
<path fill-rule="evenodd" clip-rule="evenodd" d="M100.156 154.998V171.318L48.1943 141.318V124.998L100.156 154.998Z" fill="#8BC5E4"/>
<path fill-rule="evenodd" clip-rule="evenodd" d="M100.156 171.317L107.56 167.042L55.5988 137.042L48.1943 141.317L100.156 171.317Z" fill="#8BC5E4"/>
<path fill-rule="evenodd" clip-rule="evenodd" d="M187.113 172.873L192.31 176.563L140.348 146.563L135.152 142.873L187.113 172.873Z" fill="#8BC5E4"/>
<path fill-rule="evenodd" clip-rule="evenodd" d="M138.529 105.823L86.5679 75.8225L138.529 105.823Z" fill="#8BC5E4"/>
<path fill-rule="evenodd" clip-rule="evenodd" d="M126.691 154.158L129.427 149.198L77.4659 119.198L74.7292 124.158L126.691 154.158Z" fill="#8BC5E4"/>
<path fill-rule="evenodd" clip-rule="evenodd" d="M137.378 132.908L141.725 129.208L89.7635 99.2075L85.416 102.908L137.378 132.908Z" fill="#8BC5E4"/>
<path fill-rule="evenodd" clip-rule="evenodd" d="M133.013 126.917L81.0513 96.9175L133.013 126.917Z" fill="#8BC5E4"/>
<path fill-rule="evenodd" clip-rule="evenodd" d="M149.311 117.938V130.217L97.3499 100.217V87.9375L149.311 117.938Z" fill="#8BC5E4"/>
<path fill-rule="evenodd" clip-rule="evenodd" d="M149.311 130.218L153.702 127.683L101.741 97.6826L97.3499 100.218L149.311 130.218Z" fill="#8BC5E4"/>
<path fill-rule="evenodd" clip-rule="evenodd" d="M153.702 127.683V119.633L101.741 89.6326V97.6826L153.702 127.683Z" fill="#8BC5E4"/>
<path fill-rule="evenodd" clip-rule="evenodd" d="M153.702 119.632L155.677 118.492L103.715 88.4924L101.741 89.6324L153.702 119.632Z" fill="#8BC5E4"/>
<path fill-rule="evenodd" clip-rule="evenodd" d="M157.339 113.302L149.311 117.937L97.3499 87.9375L105.378 83.3025L157.339 113.302Z" fill="#8BC5E4"/>
<path fill-rule="evenodd" clip-rule="evenodd" d="M149.311 117.938L97.3499 87.9375L149.311 117.938Z" fill="#8BC5E4"/>
<path fill-rule="evenodd" clip-rule="evenodd" d="M104.546 147.942L107.075 146.482L55.1138 116.482L52.585 117.942L104.546 147.942Z" fill="#8BC5E4"/>
<path fill-rule="evenodd" clip-rule="evenodd" d="M107.43 152.058L104.546 153.723L52.585 123.723L55.4688 122.058L107.43 152.058Z" fill="#8BC5E4"/>
<path fill-rule="evenodd" clip-rule="evenodd" d="M104.546 153.722V147.942L52.585 117.942V123.722L104.546 153.722Z" fill="#8BC5E4"/>
<path fill-rule="evenodd" clip-rule="evenodd" d="M104.546 147.942L52.585 117.942L104.546 147.942Z" fill="#8BC5E4"/>
<path fill-rule="evenodd" clip-rule="evenodd" d="M104.546 157.883L108.097 155.833L56.1357 125.833L52.585 127.883L104.546 157.883Z" fill="#8BC5E4"/>
<path fill-rule="evenodd" clip-rule="evenodd" d="M108.617 162.222L104.546 164.572L52.585 134.572L56.6553 132.222L108.617 162.222Z" fill="#8BC5E4"/>
<path fill-rule="evenodd" clip-rule="evenodd" d="M104.546 164.573V157.883L52.585 127.883V134.573L104.546 164.573Z" fill="#8BC5E4"/>
<path fill-rule="evenodd" clip-rule="evenodd" d="M104.546 157.883L52.585 127.883L104.546 157.883Z" fill="#8BC5E4"/>
<path fill-rule="evenodd" clip-rule="evenodd" d="M166.147 190.367L188.698 203.537L136.737 173.537L114.185 160.367L166.147 190.367Z" fill="#8BC5E4"/>
<path fill-rule="evenodd" clip-rule="evenodd" d="M196.432 199.113L198.675 195.278L146.713 165.278L144.47 169.113L196.432 199.113Z" fill="#8BC5E4"/>
<path fill-rule="evenodd" clip-rule="evenodd" d="M198.718 186.352L176.106 173.147L124.145 143.147L146.756 156.352L198.718 186.352Z" fill="#8BC5E4"/>
<path fill-rule="evenodd" clip-rule="evenodd" d="M150.047 134.552L98.0859 104.552L150.047 134.552Z" fill="#8BC5E4"/>
<path fill-rule="evenodd" clip-rule="evenodd" d="M150.047 146.012L98.0859 116.012L150.047 146.012Z" fill="#8BC5E4"/>
<path fill-rule="evenodd" clip-rule="evenodd" d="M148.099 154.448L135.593 185.898L83.6318 155.898L96.1372 124.448L148.099 154.448Z" fill="#8BC5E4"/>
<path fill-rule="evenodd" clip-rule="evenodd" d="M137.542 188.713L162.562 174.268L110.6 144.268L85.5806 158.713L137.542 188.713Z" fill="#8BC5E4"/>
<path fill-rule="evenodd" clip-rule="evenodd" d="M164.51 169.203L151.996 152.198L100.035 122.198L112.549 139.203L164.51 169.203Z" fill="#8BC5E4"/>
<path fill-rule="evenodd" clip-rule="evenodd" d="M150.134 152.002L98.1724 122.002L150.134 152.002Z" fill="#8BC5E4"/>
<path fill-rule="evenodd" clip-rule="evenodd" d="M108.877 180.262V205.262L56.915 175.262V150.262L108.877 180.262Z" fill="#8BC5E4"/>
<path fill-rule="evenodd" clip-rule="evenodd" d="M108.877 205.263L112.964 202.903L61.0027 172.903L56.915 175.263L108.877 205.263Z" fill="#8BC5E4"/>
<path fill-rule="evenodd" clip-rule="evenodd" d="M112.964 202.902V183.222L61.0027 153.222V172.902L112.964 202.902Z" fill="#8BC5E4"/>
<path fill-rule="evenodd" clip-rule="evenodd" d="M112.964 183.222L116.307 196.572L64.3455 166.572L61.0027 153.222L112.964 183.222Z" fill="#8BC5E4"/>
<path fill-rule="evenodd" clip-rule="evenodd" d="M116.333 179.747L115.458 176.462L63.4968 146.462L64.3715 149.747L116.333 179.747Z" fill="#8BC5E4"/>
<path fill-rule="evenodd" clip-rule="evenodd" d="M115.458 176.462L108.877 180.262L56.915 150.262L63.4968 146.462L115.458 176.462Z" fill="#8BC5E4"/>
<path fill-rule="evenodd" clip-rule="evenodd" d="M108.877 180.262L56.915 150.262L108.877 180.262Z" fill="#8BC5E4"/>
<path fill-rule="evenodd" clip-rule="evenodd" d="M122.525 211.873V225.213L70.5635 195.213V181.873L122.525 211.873Z" fill="#8BC5E4"/>
<path fill-rule="evenodd" clip-rule="evenodd" d="M139.872 214.997V213.867L87.9102 183.867V184.997L139.872 214.997Z" fill="#8BC5E4"/>
<path fill-rule="evenodd" clip-rule="evenodd" d="M135.481 214.032V218.232L83.5195 188.232V184.032L135.481 214.032Z" fill="#8BC5E4"/>
<path fill-rule="evenodd" clip-rule="evenodd" d="M126.916 222.888V212.498L74.9543 182.498V192.888L126.916 222.888Z" fill="#8BC5E4"/>
<path fill-rule="evenodd" clip-rule="evenodd" d="M123.859 211.103L122.525 211.873L70.5635 181.873L71.8971 181.103L123.859 211.103Z" fill="#8BC5E4"/>
<path fill-rule="evenodd" clip-rule="evenodd" d="M122.525 211.873L70.5635 181.873L122.525 211.873Z" fill="#8BC5E4"/>
<path fill-rule="evenodd" clip-rule="evenodd" d="M157.556 204.468L155.858 211.348L103.897 181.348L105.594 174.468L157.556 204.468Z" fill="#8BC5E4"/>
<path fill-rule="evenodd" clip-rule="evenodd" d="M155.858 211.347L154.265 206.927L102.303 176.927L103.897 181.347L155.858 211.347Z" fill="#8BC5E4"/>
<path fill-rule="evenodd" clip-rule="evenodd" d="M149.666 209.522L153.364 219.287L101.403 189.287L97.7048 179.522L149.666 209.522Z" fill="#8BC5E4"/>
<path fill-rule="evenodd" clip-rule="evenodd" d="M153.364 219.288L158.05 216.583L106.088 186.583L101.403 189.288L153.364 219.288Z" fill="#8BC5E4"/>
<path fill-rule="evenodd" clip-rule="evenodd" d="M158.049 216.583L162.423 200.028L110.461 170.028L106.088 186.583L158.049 216.583Z" fill="#8BC5E4"/>
<path fill-rule="evenodd" clip-rule="evenodd" d="M162.423 200.028L110.461 170.028L162.423 200.028Z" fill="#8BC5E4"/>
<path fill-rule="evenodd" clip-rule="evenodd" d="M62.5875 124.698L214.54 36.9675L162.579 6.96753L10.626 94.6975L62.5875 124.698Z" fill="#8BC5E4"/>
<path fill-rule="evenodd" clip-rule="evenodd" d="M220.369 40.2925V215.862L168.407 185.862V10.2925L220.369 40.2925Z" fill="#8BC5E4"/>
<path fill-rule="evenodd" clip-rule="evenodd" d="M214.54 225.927L62.5875 313.657L10.626 283.657L162.579 195.927L214.54 225.927Z" fill="#8BC5E4"/>
<path fill-rule="evenodd" clip-rule="evenodd" d="M56.7591 310.322V134.752L4.79761 104.752V280.322L56.7591 310.322Z" fill="#8BC5E4"/>
<path fill-rule="evenodd" clip-rule="evenodd" d="M62.5875 124.698L10.626 94.6975L62.5875 124.698Z" fill="#8BC5E4"/>
<path fill-rule="evenodd" clip-rule="evenodd" d="M51.9615 137.522V313.092L0 283.092V107.522L51.9615 137.522Z" fill="#8BC5E4"/>
<path fill-rule="evenodd" clip-rule="evenodd" d="M62.5875 319.178L214.54 231.448L162.579 201.448L10.626 289.178L62.5875 319.178Z" fill="#8BC5E4"/>
<path fill-rule="evenodd" clip-rule="evenodd" d="M225.167 213.092V37.5225L173.205 7.52246V183.092L225.167 213.092Z" fill="#8BC5E4"/>
<path fill-rule="evenodd" clip-rule="evenodd" d="M214.54 31.4475L62.5875 119.178L10.626 89.1775L162.579 1.44751L214.54 31.4475Z" fill="#8BC5E4"/>
<path fill-rule="evenodd" clip-rule="evenodd" d="M62.5875 119.177L10.626 89.1775L62.5875 119.177Z" fill="#8BC5E4"/>
<path fill-rule="evenodd" clip-rule="evenodd" d="M138.529 105.823C105.101 125.123 77.9161 172.048 77.9161 210.478L25.9546 180.478C25.9546 142.048 53.1391 95.1225 86.5677 75.8225L138.529 105.823Z" fill="#8BC5E4"/>
<path fill-rule="evenodd" clip-rule="evenodd" d="M77.9161 210.478C77.9161 228.919 84.1794 242.09 94.3902 248.667L42.4287 218.667C32.2179 212.09 25.9546 198.919 25.9546 180.478L77.9161 210.478Z" fill="#8BC5E4"/>
<path fill-rule="evenodd" clip-rule="evenodd" d="M94.3902 248.667C105.452 255.792 121.146 255.179 138.529 245.143L86.5677 215.143C69.1849 225.179 53.4904 225.792 42.4287 218.667L94.3902 248.667Z" fill="#8BC5E4"/>
<path fill-rule="evenodd" clip-rule="evenodd" d="M138.529 245.142C153.901 236.267 167.948 221.557 178.644 204.522L126.682 174.522C115.987 191.557 101.94 206.267 86.5679 215.142L138.529 245.142Z" fill="#8BC5E4"/>
<path fill-rule="evenodd" clip-rule="evenodd" d="M173.621 201.462C164.25 216.272 151.979 229.037 138.529 236.802L86.5679 206.802C100.017 199.037 112.289 186.272 121.659 171.462L173.621 201.462Z" fill="#8BC5E4"/>
<path fill-rule="evenodd" clip-rule="evenodd" d="M138.529 236.802C127.938 242.917 118.083 245.077 109.786 243.777L57.8245 213.777C66.121 215.077 75.9764 212.917 86.5678 206.802L138.529 236.802Z" fill="#8BC5E4"/>
<path fill-rule="evenodd" clip-rule="evenodd" d="M105.395 242.713C103.861 242.201 102.396 241.556 101.006 240.78L49.0447 210.78C50.4345 211.556 51.8997 212.201 53.4336 212.713L105.395 242.713Z" fill="#8BC5E4"/>
<path fill-rule="evenodd" clip-rule="evenodd" d="M101.006 240.779C93.7097 236.704 88.4903 229.028 86.308 218.292L34.3464 188.292C36.5288 199.028 41.7482 206.704 49.0447 210.779L101.006 240.779Z" fill="#8BC5E4"/>
<path fill-rule="evenodd" clip-rule="evenodd" d="M86.2474 193.327C87.1134 187.927 88.4904 182.452 90.3091 177.002L38.3475 147.002C36.5289 152.452 35.1519 157.927 34.2859 163.327L86.2474 193.327Z" fill="#8BC5E4"/>
<path fill-rule="evenodd" clip-rule="evenodd" d="M92.8377 170.143C94.9162 164.983 97.3757 159.903 100.156 154.998L48.1941 124.998C45.4142 129.903 42.9547 134.983 40.8762 140.143L92.8377 170.143Z" fill="#8BC5E4"/>
<path fill-rule="evenodd" clip-rule="evenodd" d="M107.56 167.042C110.366 165.403 112.124 164.327 112.86 163.812L60.8987 133.812C60.1626 134.327 58.4046 135.402 55.5986 137.042L107.56 167.042Z" fill="#8BC5E4"/>
<path fill-rule="evenodd" clip-rule="evenodd" d="M112.86 163.812C114.03 162.987 115.008 162.032 115.796 160.938L63.8348 130.938C63.0467 132.033 62.0681 132.987 60.8989 133.812L112.86 163.812Z" fill="#8BC5E4"/>
<path fill-rule="evenodd" clip-rule="evenodd" d="M115.796 160.938C116.602 159.833 117.225 158.613 117.684 157.278L65.7227 127.278C65.2637 128.613 64.6401 129.833 63.8347 130.938L115.796 160.938Z" fill="#8BC5E4"/>
<path fill-rule="evenodd" clip-rule="evenodd" d="M117.684 157.278C118.152 155.928 118.377 154.688 118.377 153.548L66.4155 123.548C66.4155 124.688 66.1903 125.928 65.7227 127.278L117.684 157.278Z" fill="#8BC5E4"/>
<path fill-rule="evenodd" clip-rule="evenodd" d="M118.377 153.548C118.377 152.108 118.022 151.053 117.312 150.393L65.3501 120.393C66.0602 121.053 66.4153 122.108 66.4153 123.548L118.377 153.548Z" fill="#8BC5E4"/>
<path fill-rule="evenodd" clip-rule="evenodd" d="M117.312 150.393C117.198 150.287 117.076 150.194 116.947 150.114L64.9854 120.114C65.1149 120.194 65.2365 120.287 65.3501 120.393L117.312 150.393Z" fill="#8BC5E4"/>
<path fill-rule="evenodd" clip-rule="evenodd" d="M116.947 150.114C116.267 149.693 115.368 149.623 114.255 149.887L62.2932 119.887C63.4062 119.623 64.3054 119.693 64.9855 120.114L116.947 150.114Z" fill="#8BC5E4"/>
<path fill-rule="evenodd" clip-rule="evenodd" d="M114.255 149.888C115.199 148.863 115.935 147.698 116.48 146.403L64.5189 116.403C63.9733 117.698 63.2372 118.863 62.2932 119.888L114.255 149.888Z" fill="#8BC5E4"/>
<path fill-rule="evenodd" clip-rule="evenodd" d="M116.48 146.402C117.035 145.112 117.312 143.872 117.312 142.702L65.3502 112.702C65.3502 113.872 65.0731 115.112 64.5188 116.402L116.48 146.402Z" fill="#8BC5E4"/>
<path fill-rule="evenodd" clip-rule="evenodd" d="M117.312 142.702C117.312 141.622 117.087 140.782 116.645 140.167L64.6833 110.167C65.125 110.782 65.3502 111.622 65.3502 112.702L117.312 142.702Z" fill="#8BC5E4"/>
<path fill-rule="evenodd" clip-rule="evenodd" d="M116.645 140.167C116.393 139.826 116.108 139.556 115.787 139.363L63.8259 109.363C64.1463 109.556 64.4311 109.826 64.6833 110.167L116.645 140.167Z" fill="#8BC5E4"/>
<path fill-rule="evenodd" clip-rule="evenodd" d="M115.787 139.363C115.536 139.21 115.262 139.105 114.965 139.048L63.0032 109.048C63.3004 109.105 63.5741 109.21 63.8259 109.363L115.787 139.363Z" fill="#8BC5E4"/>
<path fill-rule="evenodd" clip-rule="evenodd" d="M114.965 139.048C114.307 138.898 113.545 138.998 112.696 139.328L60.7344 109.328C61.5831 108.998 62.3452 108.898 63.0034 109.048L114.965 139.048Z" fill="#8BC5E4"/>
<path fill-rule="evenodd" clip-rule="evenodd" d="M112.696 139.327C111.925 139.622 110.773 140.207 109.275 141.052L57.3135 111.052C58.8117 110.207 59.9635 109.622 60.7343 109.327L112.696 139.327Z" fill="#8BC5E4"/>
<path fill-rule="evenodd" clip-rule="evenodd" d="M109.275 141.053C117.675 129.883 127.721 120.393 138.529 114.153L86.5678 84.1526C75.7598 90.3926 65.7139 99.8826 57.3135 111.053L109.275 141.053Z" fill="#8BC5E4"/>
<path fill-rule="evenodd" clip-rule="evenodd" d="M138.529 114.152C152.696 105.973 165.558 104.863 175.104 109.671L123.142 79.6707C113.597 74.8628 100.735 75.9733 86.5679 84.1525L138.529 114.152Z" fill="#8BC5E4"/>
<path fill-rule="evenodd" clip-rule="evenodd" d="M175.104 109.671C185.445 114.879 191.894 127.034 191.894 144.672L139.932 114.672C139.932 97.034 133.483 84.8793 123.142 79.6707L175.104 109.671Z" fill="#8BC5E4"/>
<path fill-rule="evenodd" clip-rule="evenodd" d="M191.894 144.673C191.894 153.753 190.179 163.353 187.113 172.873L135.152 142.873C138.218 133.353 139.932 123.753 139.932 114.673L191.894 144.673Z" fill="#8BC5E4"/>
<path fill-rule="evenodd" clip-rule="evenodd" d="M192.31 176.563C196.674 164.423 199.143 152.068 199.143 140.488L147.181 110.488C147.181 122.068 144.713 134.423 140.348 146.563L192.31 176.563Z" fill="#8BC5E4"/>
<path fill-rule="evenodd" clip-rule="evenodd" d="M199.142 140.487C199.142 122.041 192.881 108.869 182.671 102.292L130.71 72.292C140.92 78.8686 147.181 92.0411 147.181 110.487L199.142 140.487Z" fill="#8BC5E4"/>
<path fill-rule="evenodd" clip-rule="evenodd" d="M182.672 102.292C171.611 95.1675 155.917 95.784 138.529 105.823L86.5679 75.8226C103.955 65.784 119.65 65.1675 130.71 72.2921L182.672 102.292Z" fill="#8BC5E4"/>
<path fill-rule="evenodd" clip-rule="evenodd" d="M133.013 126.917C129.964 128.677 127.505 131.247 125.643 134.632L73.6814 104.632C75.5434 101.247 78.0029 98.6775 81.0513 96.9175L133.013 126.917Z" fill="#8BC5E4"/>
<path fill-rule="evenodd" clip-rule="evenodd" d="M125.643 134.633C123.772 138.013 122.837 141.783 122.837 145.943L70.8755 115.943C70.8755 111.783 71.8108 108.013 73.6814 104.633L125.643 134.633Z" fill="#8BC5E4"/>
<path fill-rule="evenodd" clip-rule="evenodd" d="M122.837 145.942C122.837 149.882 123.764 152.447 125.626 153.642L73.6641 123.642C71.8021 122.447 70.8755 119.882 70.8755 115.942L122.837 145.942Z" fill="#8BC5E4"/>
<path fill-rule="evenodd" clip-rule="evenodd" d="M125.626 153.643C125.68 153.677 125.734 153.71 125.789 153.743L73.8275 123.743C73.7726 123.71 73.7181 123.677 73.6641 123.643L125.626 153.643Z" fill="#8BC5E4"/>
<path fill-rule="evenodd" clip-rule="evenodd" d="M125.789 153.743C126.078 153.912 126.378 154.053 126.691 154.158L74.7294 124.158C74.4166 124.053 74.116 123.912 73.8276 123.743L125.789 153.743Z" fill="#8BC5E4"/>
<path fill-rule="evenodd" clip-rule="evenodd" d="M129.427 149.197C129.344 149.165 129.264 149.127 129.186 149.083L77.2241 119.083C77.3023 119.127 77.3826 119.165 77.4658 119.197L129.427 149.197Z" fill="#8BC5E4"/>
<path fill-rule="evenodd" clip-rule="evenodd" d="M129.186 149.083C129.069 149.018 128.956 148.94 128.847 148.853L76.8857 118.853C76.9949 118.94 77.1071 119.018 77.2243 119.083L129.186 149.083Z" fill="#8BC5E4"/>
<path fill-rule="evenodd" clip-rule="evenodd" d="M128.847 148.852C127.851 148.087 127.358 146.122 127.358 142.962L75.396 112.962C75.396 116.122 75.8896 118.087 76.8856 118.852L128.847 148.852Z" fill="#8BC5E4"/>
<path fill-rule="evenodd" clip-rule="evenodd" d="M127.358 142.962C127.358 139.982 127.86 137.532 128.856 135.627L76.8942 105.627C75.8983 107.532 75.396 109.982 75.396 112.962L127.358 142.962Z" fill="#8BC5E4"/>
<path fill-rule="evenodd" clip-rule="evenodd" d="M128.856 135.628C129.869 133.713 131.177 132.288 132.796 131.353L80.8347 101.353C79.2152 102.288 77.9075 103.713 76.8943 105.628L128.856 135.628Z" fill="#8BC5E4"/>
<path fill-rule="evenodd" clip-rule="evenodd" d="M132.796 131.353C133.957 130.683 134.953 130.488 135.758 130.773L83.7965 100.773C82.9911 100.488 81.9952 100.683 80.8347 101.353L132.796 131.353Z" fill="#8BC5E4"/>
<path fill-rule="evenodd" clip-rule="evenodd" d="M135.758 130.772C135.89 130.816 136.014 130.872 136.131 130.939L84.1694 100.939C84.0523 100.872 83.928 100.816 83.7964 100.772L135.758 130.772Z" fill="#8BC5E4"/>
<path fill-rule="evenodd" clip-rule="evenodd" d="M136.131 130.938C136.745 131.289 137.159 131.95 137.377 132.907L85.4159 102.907C85.1977 101.95 84.7839 101.289 84.1694 100.938L136.131 130.938Z" fill="#8BC5E4"/>
<path fill-rule="evenodd" clip-rule="evenodd" d="M141.725 129.207C141.271 127.63 140.604 126.564 139.732 126.014L87.77 96.0142C88.6426 96.5639 89.3093 97.6297 89.7634 99.2075L141.725 129.207Z" fill="#8BC5E4"/>
<path fill-rule="evenodd" clip-rule="evenodd" d="M139.731 126.014C139.656 125.966 139.578 125.923 139.499 125.883L87.5376 95.8826C87.6166 95.9226 87.694 95.9665 87.7699 96.0143L139.731 126.014Z" fill="#8BC5E4"/>
<path fill-rule="evenodd" clip-rule="evenodd" d="M139.499 125.882C137.837 125.032 135.68 125.377 133.013 126.917L81.0513 96.9174C83.7186 95.3774 85.875 95.0324 87.5378 95.8824L139.499 125.882Z" fill="#8BC5E4"/>
<path fill-rule="evenodd" clip-rule="evenodd" d="M155.677 118.492C157.469 117.457 158.673 116.842 159.288 116.647L107.326 86.6475C106.712 86.8425 105.508 87.4575 103.715 88.4925L155.677 118.492Z" fill="#8BC5E4"/>
<path fill-rule="evenodd" clip-rule="evenodd" d="M159.288 116.647C160.102 116.377 160.786 116.372 161.314 116.647L109.353 86.6475C108.825 86.3725 108.14 86.3775 107.326 86.6475L159.288 116.647Z" fill="#8BC5E4"/>
<path fill-rule="evenodd" clip-rule="evenodd" d="M161.315 116.647C161.336 116.658 161.357 116.67 161.378 116.681L109.417 86.6813C109.396 86.6695 109.375 86.6583 109.353 86.6475L161.315 116.647Z" fill="#8BC5E4"/>
<path fill-rule="evenodd" clip-rule="evenodd" d="M161.378 116.681C161.884 116.964 162.279 117.522 162.562 118.358L110.6 88.3576C110.317 87.5224 109.923 86.9636 109.417 86.6814L161.378 116.681Z" fill="#8BC5E4"/>
<path fill-rule="evenodd" clip-rule="evenodd" d="M162.562 118.357C162.856 119.217 163.012 120.607 163.012 122.547L111.05 92.5474C111.05 90.6074 110.895 89.2174 110.6 88.3574L162.562 118.357Z" fill="#8BC5E4"/>
<path fill-rule="evenodd" clip-rule="evenodd" d="M163.012 122.548C163.012 123.488 162.969 124.363 162.899 125.163L110.938 95.1626C111.007 94.3626 111.05 93.4876 111.05 92.5476L163.012 122.548Z" fill="#8BC5E4"/>
<path fill-rule="evenodd" clip-rule="evenodd" d="M162.899 125.163C164.51 124.803 165.835 124.888 167.048 125.158L115.086 95.1575C113.874 94.8875 112.549 94.8025 110.938 95.1625L162.899 125.163Z" fill="#8BC5E4"/>
<path fill-rule="evenodd" clip-rule="evenodd" d="M167.047 125.157C167.385 123.602 167.55 121.927 167.55 120.147L115.588 90.1475C115.588 91.9275 115.424 93.6025 115.086 95.1575L167.047 125.157Z" fill="#8BC5E4"/>
<path fill-rule="evenodd" clip-rule="evenodd" d="M167.55 120.147C167.55 117.807 167.316 115.972 166.84 114.657L114.878 84.6575C115.354 85.9725 115.588 87.8075 115.588 90.1475L167.55 120.147Z" fill="#8BC5E4"/>
<path fill-rule="evenodd" clip-rule="evenodd" d="M166.84 114.658C166.363 113.323 165.671 112.373 164.761 111.798L112.8 81.7976C113.709 82.3726 114.402 83.3226 114.878 84.6576L166.84 114.658Z" fill="#8BC5E4"/>
<path fill-rule="evenodd" clip-rule="evenodd" d="M164.761 111.798C164.725 111.774 164.688 111.751 164.651 111.729L112.69 81.7295C112.727 81.7514 112.763 81.7741 112.8 81.7975L164.761 111.798Z" fill="#8BC5E4"/>
<path fill-rule="evenodd" clip-rule="evenodd" d="M164.651 111.729C163.764 111.203 162.71 111.094 161.479 111.382L109.518 81.3825C110.748 81.0945 111.803 81.2028 112.69 81.7295L164.651 111.729Z" fill="#8BC5E4"/>
<path fill-rule="evenodd" clip-rule="evenodd" d="M161.479 111.383C160.526 111.623 159.149 112.258 157.339 113.303L105.378 83.3026C107.188 82.2576 108.565 81.6226 109.518 81.3826L161.479 111.383Z" fill="#8BC5E4"/>
<path fill-rule="evenodd" clip-rule="evenodd" d="M107.075 146.482C109.136 145.292 110.392 144.597 110.825 144.397L58.8637 114.397C58.4306 114.597 57.1749 115.292 55.1138 116.482L107.075 146.482Z" fill="#8BC5E4"/>
<path fill-rule="evenodd" clip-rule="evenodd" d="M110.825 144.398C111.473 144.12 111.973 144.068 112.332 144.25L60.3704 114.25C60.0118 114.068 59.5116 114.12 58.8638 114.398L110.825 144.398Z" fill="#8BC5E4"/>
<path fill-rule="evenodd" clip-rule="evenodd" d="M112.332 144.25C112.381 144.275 112.427 144.304 112.471 144.337L60.5092 114.337C60.4655 114.304 60.4193 114.275 60.3704 114.25L112.332 144.25Z" fill="#8BC5E4"/>
<path fill-rule="evenodd" clip-rule="evenodd" d="M112.471 144.337C112.852 144.597 113.033 145.112 113.033 145.892L61.0719 115.892C61.0719 115.112 60.8901 114.597 60.509 114.337L112.471 144.337Z" fill="#8BC5E4"/>
<path fill-rule="evenodd" clip-rule="evenodd" d="M113.034 145.893C113.034 146.693 112.817 147.478 112.384 148.228L60.4226 118.228C60.8556 117.478 61.0721 116.693 61.0721 115.893L113.034 145.893Z" fill="#8BC5E4"/>
<path fill-rule="evenodd" clip-rule="evenodd" d="M112.384 148.228C111.96 148.963 111.371 149.593 110.617 150.138L58.6558 120.138C59.4092 119.593 59.9981 118.963 60.4224 118.228L112.384 148.228Z" fill="#8BC5E4"/>
<path fill-rule="evenodd" clip-rule="evenodd" d="M110.617 150.137C110.202 150.427 109.136 151.072 107.43 152.057L55.4688 122.057C57.1748 121.072 58.24 120.427 58.6557 120.137L110.617 150.137Z" fill="#8BC5E4"/>
<path fill-rule="evenodd" clip-rule="evenodd" d="M108.097 155.833C110.089 154.683 111.388 154.053 111.986 153.948L60.0242 123.948C59.4266 124.053 58.1276 124.683 56.1357 125.833L108.097 155.833Z" fill="#8BC5E4"/>
<path fill-rule="evenodd" clip-rule="evenodd" d="M111.986 153.947C112.416 153.872 112.779 153.908 113.065 154.061L61.1032 124.061C60.8173 123.908 60.4544 123.872 60.0242 123.947L111.986 153.947Z" fill="#8BC5E4"/>
<path fill-rule="evenodd" clip-rule="evenodd" d="M113.065 154.061C113.176 154.12 113.275 154.197 113.363 154.292L61.401 124.292C61.3137 124.197 61.2142 124.12 61.103 124.061L113.065 154.061Z" fill="#8BC5E4"/>
<path fill-rule="evenodd" clip-rule="evenodd" d="M113.363 154.292C113.683 154.637 113.839 155.177 113.839 155.927L61.8774 125.927C61.8774 125.177 61.7216 124.637 61.4011 124.292L113.363 154.292Z" fill="#8BC5E4"/>
<path fill-rule="evenodd" clip-rule="evenodd" d="M113.839 155.927C113.839 156.817 113.631 157.647 113.215 158.417L61.2539 128.417C61.6696 127.647 61.8774 126.817 61.8774 125.927L113.839 155.927Z" fill="#8BC5E4"/>
<path fill-rule="evenodd" clip-rule="evenodd" d="M113.215 158.417C112.808 159.182 112.28 159.817 111.63 160.322L59.6689 130.322C60.3185 129.817 60.8467 129.182 61.2538 128.417L113.215 158.417Z" fill="#8BC5E4"/>
<path fill-rule="evenodd" clip-rule="evenodd" d="M111.631 160.323C111.198 160.683 110.193 161.313 108.617 162.223L56.6553 132.223C58.2314 131.313 59.236 130.683 59.669 130.323L111.631 160.323Z" fill="#8BC5E4"/>
<path fill-rule="evenodd" clip-rule="evenodd" d="M150.048 134.552C133.195 144.282 119.425 168.052 119.425 187.422L67.4634 157.422C67.4634 138.052 81.2332 114.282 98.086 104.552L150.048 134.552Z" fill="#8BC5E4"/>
<path fill-rule="evenodd" clip-rule="evenodd" d="M119.425 187.423C119.425 196.725 122.597 203.378 127.761 206.705L75.7992 176.705C70.6359 173.378 67.4634 166.725 67.4634 157.423L119.425 187.423Z" fill="#8BC5E4"/>
<path fill-rule="evenodd" clip-rule="evenodd" d="M127.761 206.705C133.354 210.31 141.284 210.012 150.047 204.952L98.0859 174.952C89.3224 180.012 81.3926 180.31 75.7991 176.705L127.761 206.705Z" fill="#8BC5E4"/>
<path fill-rule="evenodd" clip-rule="evenodd" d="M150.047 204.952C155.945 201.547 161.462 196.422 166.147 190.367L114.185 160.367C109.5 166.422 103.984 171.547 98.0859 174.952L150.047 204.952Z" fill="#8BC5E4"/>
<path fill-rule="evenodd" clip-rule="evenodd" d="M188.698 203.538C190.829 204.778 194.284 202.803 196.432 199.113L144.47 169.113C142.323 172.803 138.867 174.778 136.737 173.538L188.698 203.538Z" fill="#8BC5E4"/>
<path fill-rule="evenodd" clip-rule="evenodd" d="M198.675 195.278C200.831 191.583 200.849 187.603 198.718 186.353L146.757 156.353C148.887 157.603 148.87 161.583 146.713 165.278L198.675 195.278Z" fill="#8BC5E4"/>
<path fill-rule="evenodd" clip-rule="evenodd" d="M176.106 173.148C178.999 166.108 180.679 158.818 180.679 152.058L128.717 122.058C128.717 128.818 127.037 136.108 124.145 143.148L176.106 173.148Z" fill="#8BC5E4"/>
<path fill-rule="evenodd" clip-rule="evenodd" d="M180.679 152.057C180.679 142.76 177.506 136.112 172.342 132.789L120.38 102.789C125.545 106.112 128.717 112.76 128.717 122.057L180.679 152.057Z" fill="#8BC5E4"/>
<path fill-rule="evenodd" clip-rule="evenodd" d="M172.342 132.789C166.747 129.188 158.815 129.49 150.047 134.552L98.0859 104.552C106.854 99.4902 114.786 99.1884 120.38 102.789L172.342 132.789Z" fill="#8BC5E4"/>
<path fill-rule="evenodd" clip-rule="evenodd" d="M150.047 146.013C155.551 142.835 160.53 142.393 164.22 144.25L112.259 114.25C108.569 112.393 103.59 112.835 98.0859 116.013L150.047 146.013Z" fill="#8BC5E4"/>
<path fill-rule="evenodd" clip-rule="evenodd" d="M164.22 144.25C168.218 146.261 170.702 150.969 170.702 157.817L118.741 127.817C118.741 120.969 116.256 116.261 112.259 114.25L164.22 144.25Z" fill="#8BC5E4"/>
<path fill-rule="evenodd" clip-rule="evenodd" d="M170.702 157.817C170.702 170.997 161.514 186.862 150.047 193.482L98.0859 163.482C109.552 156.862 118.741 140.997 118.741 127.817L170.702 157.817Z" fill="#8BC5E4"/>
<path fill-rule="evenodd" clip-rule="evenodd" d="M150.047 193.482C144.548 196.658 139.569 197.099 135.878 195.242L83.9165 165.242C87.6074 167.099 92.5862 166.658 98.0858 163.482L150.047 193.482Z" fill="#8BC5E4"/>
<path fill-rule="evenodd" clip-rule="evenodd" d="M135.878 195.242C131.88 193.23 129.393 188.521 129.393 181.667L77.4312 151.667C77.4312 158.521 79.9181 163.23 83.9165 165.242L135.878 195.242Z" fill="#8BC5E4"/>
<path fill-rule="evenodd" clip-rule="evenodd" d="M129.393 181.667C129.393 168.497 138.59 152.627 150.047 146.012L98.0859 116.012C86.6283 122.627 77.4312 138.497 77.4312 151.667L129.393 181.667Z" fill="#8BC5E4"/>
<path fill-rule="evenodd" clip-rule="evenodd" d="M150.134 152.002C149.303 152.442 148.523 153.382 148.099 154.447L96.1372 124.447C96.5616 123.382 97.341 122.442 98.1724 122.002L150.134 152.002Z" fill="#8BC5E4"/>
<path fill-rule="evenodd" clip-rule="evenodd" d="M135.593 185.897C135.053 187.253 135.23 188.361 135.837 188.811L83.8757 158.811C83.2682 158.361 83.0915 157.253 83.6319 155.897L135.593 185.897Z" fill="#8BC5E4"/>
<path fill-rule="evenodd" clip-rule="evenodd" d="M135.837 188.811C136.242 189.111 136.839 189.118 137.542 188.712L85.5805 158.712C84.8773 159.118 84.2808 159.111 83.8757 158.811L135.837 188.811Z" fill="#8BC5E4"/>
<path fill-rule="evenodd" clip-rule="evenodd" d="M162.562 174.267C164.311 173.257 165.402 170.427 164.51 169.202L112.549 139.202C113.441 140.427 112.349 143.257 110.6 144.267L162.562 174.267Z" fill="#8BC5E4"/>
<path fill-rule="evenodd" clip-rule="evenodd" d="M151.996 152.197C151.902 152.069 151.791 151.967 151.665 151.892L99.7034 121.892C99.8295 121.967 99.941 122.069 100.034 122.197L151.996 152.197Z" fill="#8BC5E4"/>
<path fill-rule="evenodd" clip-rule="evenodd" d="M151.665 151.892C151.265 151.655 150.72 151.687 150.134 152.003L98.1724 122.003C98.7581 121.687 99.3039 121.655 99.7032 121.892L151.665 151.892Z" fill="#8BC5E4"/>
<path fill-rule="evenodd" clip-rule="evenodd" d="M116.307 196.573C115.337 191.043 114.999 185.828 116.333 179.748L64.3715 149.748C63.0378 155.828 63.3756 161.043 64.3455 166.573L116.307 196.573Z" fill="#8BC5E4"/>
<path fill-rule="evenodd" clip-rule="evenodd" d="M122.525 225.212C122.525 228.012 122.672 230.037 122.958 231.312L70.9965 201.312C70.7107 200.037 70.5635 198.012 70.5635 195.212L122.525 225.212Z" fill="#8BC5E4"/>
<path fill-rule="evenodd" clip-rule="evenodd" d="M122.958 231.312C123.157 232.157 123.564 232.852 124.188 233.382L72.2263 203.382C71.6028 202.852 71.1958 202.157 70.9966 201.312L122.958 231.312Z" fill="#8BC5E4"/>
<path fill-rule="evenodd" clip-rule="evenodd" d="M124.188 233.383C124.288 233.464 124.393 233.539 124.505 233.606L72.5431 203.606C72.4319 203.539 72.3263 203.464 72.2266 203.383L124.188 233.383Z" fill="#8BC5E4"/>
<path fill-rule="evenodd" clip-rule="evenodd" d="M124.504 233.606C125.089 233.959 125.831 234.114 126.725 234.067L74.7639 204.067C73.8691 204.114 73.1271 203.959 72.543 203.606L124.504 233.606Z" fill="#8BC5E4"/>
<path fill-rule="evenodd" clip-rule="evenodd" d="M126.725 234.067C127.799 233.987 129.384 233.342 131.454 232.147L79.4924 202.147C77.4226 203.342 75.8378 203.987 74.7639 204.067L126.725 234.067Z" fill="#8BC5E4"/>
<path fill-rule="evenodd" clip-rule="evenodd" d="M131.454 232.148C133.177 231.153 134.572 230.098 135.646 228.978L83.684 198.978C82.6101 200.098 81.2158 201.153 79.4924 202.148L131.454 232.148Z" fill="#8BC5E4"/>
<path fill-rule="evenodd" clip-rule="evenodd" d="M135.646 228.978C136.711 227.853 137.56 226.683 138.192 225.468L86.2302 195.468C85.598 196.683 84.7493 197.853 83.6841 198.978L135.646 228.978Z" fill="#8BC5E4"/>
<path fill-rule="evenodd" clip-rule="evenodd" d="M138.192 225.467C138.841 224.232 139.274 222.942 139.517 221.562L87.555 191.562C87.3125 192.942 86.8795 194.232 86.23 195.467L138.192 225.467Z" fill="#8BC5E4"/>
<path fill-rule="evenodd" clip-rule="evenodd" d="M139.517 221.563C139.751 220.188 139.872 217.998 139.872 214.998L87.9102 184.998C87.9102 187.998 87.789 190.188 87.5552 191.563L139.517 221.563Z" fill="#8BC5E4"/>
<path fill-rule="evenodd" clip-rule="evenodd" d="M139.872 213.867C138.296 214.347 136.832 214.392 135.481 214.032L83.5195 184.032C84.8705 184.392 86.3341 184.347 87.9103 183.867L139.872 213.867Z" fill="#8BC5E4"/>
<path fill-rule="evenodd" clip-rule="evenodd" d="M135.481 218.232C135.481 220.212 135.412 221.662 135.29 222.582L83.3289 192.582C83.4501 191.662 83.5194 190.212 83.5194 188.232L135.481 218.232Z" fill="#8BC5E4"/>
<path fill-rule="evenodd" clip-rule="evenodd" d="M135.29 222.583C135.16 223.508 134.779 224.458 134.147 225.413L82.1855 195.413C82.8177 194.458 83.1988 193.508 83.3287 192.583L135.29 222.583Z" fill="#8BC5E4"/>
<path fill-rule="evenodd" clip-rule="evenodd" d="M134.147 225.413C133.515 226.358 132.571 227.193 131.324 227.913L79.3623 197.913C80.6094 197.193 81.5534 196.358 82.1855 195.413L134.147 225.413Z" fill="#8BC5E4"/>
<path fill-rule="evenodd" clip-rule="evenodd" d="M131.324 227.913C130.094 228.623 129.124 228.873 128.414 228.673L76.4526 198.673C77.1628 198.873 78.1327 198.623 79.3625 197.913L131.324 227.913Z" fill="#8BC5E4"/>
<path fill-rule="evenodd" clip-rule="evenodd" d="M128.414 228.673C128.302 228.637 128.196 228.592 128.097 228.538L76.1357 198.538C76.2347 198.592 76.3403 198.637 76.4525 198.673L128.414 228.673Z" fill="#8BC5E4"/>
<path fill-rule="evenodd" clip-rule="evenodd" d="M128.097 228.538C127.578 228.258 127.24 227.735 127.08 226.962L75.1189 196.962C75.2789 197.735 75.6162 198.258 76.1358 198.538L128.097 228.538Z" fill="#8BC5E4"/>
<path fill-rule="evenodd" clip-rule="evenodd" d="M127.08 226.962C126.968 226.397 126.916 225.027 126.916 222.887L74.9543 192.887C74.9543 195.027 75.0063 196.397 75.1189 196.962L127.08 226.962Z" fill="#8BC5E4"/>
<path fill-rule="evenodd" clip-rule="evenodd" d="M126.916 212.498C126.215 212.304 125.31 212.159 124.629 211.793L72.667 181.793C73.3487 182.159 74.2537 182.304 74.9545 182.498L126.916 212.498Z" fill="#8BC5E4"/>
<path fill-rule="evenodd" clip-rule="evenodd" d="M124.629 211.793C124.308 211.621 124.036 211.4 123.859 211.103L71.8975 181.103C72.0748 181.4 72.3462 181.621 72.667 181.793L124.629 211.793Z" fill="#8BC5E4"/>
<path fill-rule="evenodd" clip-rule="evenodd" d="M162.423 200.028C160.881 201.478 159.409 202.888 157.556 204.468L105.594 174.468C107.448 172.888 108.92 171.478 110.461 170.028L162.423 200.028Z" fill="#8BC5E4"/>
<path fill-rule="evenodd" clip-rule="evenodd" d="M154.265 206.927C152.758 207.887 151.251 208.827 149.666 209.522L97.7048 179.522C99.2897 178.827 100.797 177.887 102.303 176.927L154.265 206.927Z" fill="#8BC5E4"/>
<path fill-rule="evenodd" clip-rule="evenodd" d="M214.54 36.9674C216.112 36.0602 217.517 35.9237 218.554 36.4429L166.593 6.44287C165.556 5.92371 164.15 6.06022 162.579 6.96742L214.54 36.9674Z" fill="#8BC5E4"/>
<path fill-rule="evenodd" clip-rule="evenodd" d="M218.554 36.4429C219.678 37.0053 220.369 38.3372 220.369 40.2924L168.407 10.2924C168.407 8.33722 167.716 7.00529 166.593 6.44287L218.554 36.4429Z" fill="#8BC5E4"/>
<path fill-rule="evenodd" clip-rule="evenodd" d="M220.369 215.863C220.369 219.623 217.814 224.038 214.54 225.928L162.579 195.928C165.852 194.038 168.407 189.623 168.407 185.863L220.369 215.863Z" fill="#8BC5E4"/>
<path fill-rule="evenodd" clip-rule="evenodd" d="M62.5877 313.657C61.0163 314.565 59.6106 314.699 58.5736 314.177L6.61206 284.177C7.64911 284.699 9.05481 284.565 10.6261 283.657L62.5877 313.657Z" fill="#8BC5E4"/>
<path fill-rule="evenodd" clip-rule="evenodd" d="M58.5734 314.177C57.4499 313.612 56.7591 312.278 56.7591 310.323L4.79761 280.323C4.79761 282.278 5.48842 283.612 6.61189 284.177L58.5734 314.177Z" fill="#8BC5E4"/>
<path fill-rule="evenodd" clip-rule="evenodd" d="M56.7591 134.753C56.7591 130.993 59.3139 126.588 62.5875 124.698L10.626 94.6975C7.35238 96.5875 4.79761 100.993 4.79761 104.753L56.7591 134.753Z" fill="#8BC5E4"/>
<path fill-rule="evenodd" clip-rule="evenodd" d="M62.5877 119.177C56.742 122.552 51.9615 130.802 51.9615 137.522L0 107.522C0 100.802 4.78046 92.5525 10.6261 89.1775L62.5877 119.177Z" fill="#8BC5E4"/>
<path fill-rule="evenodd" clip-rule="evenodd" d="M51.9615 313.093C51.9615 316.318 53.0629 318.627 54.8549 319.782L2.89338 289.782C1.10142 288.627 0 286.318 0 283.093L51.9615 313.093Z" fill="#8BC5E4"/>
<path fill-rule="evenodd" clip-rule="evenodd" d="M54.8548 319.782C56.7961 321.034 59.5478 320.932 62.5876 319.177L10.6261 289.177C7.58632 290.932 4.8346 291.034 2.89331 289.782L54.8548 319.782Z" fill="#8BC5E4"/>
<path fill-rule="evenodd" clip-rule="evenodd" d="M214.54 231.448C220.386 228.073 225.167 219.813 225.167 213.093L173.205 183.093C173.205 189.813 168.425 198.073 162.579 201.448L214.54 231.448Z" fill="#8BC5E4"/>
<path fill-rule="evenodd" clip-rule="evenodd" d="M225.166 37.5224C225.166 34.2968 224.065 31.9905 222.273 30.8374L170.312 0.837402C172.103 1.99051 173.205 4.29681 173.205 7.52241L225.166 37.5224Z" fill="#8BC5E4"/>
<path fill-rule="evenodd" clip-rule="evenodd" d="M222.273 30.8376C220.332 29.5884 217.58 29.6926 214.54 31.4476L162.579 1.44756C165.619 -0.307439 168.37 -0.411647 170.312 0.83755L222.273 30.8376Z" fill="#8BC5E4"/>
<path d="M138.529 105.823C105.101 125.123 77.9162 172.048 77.9162 210.478C77.9162 248.898 105.101 264.443 138.529 245.143C153.901 236.268 167.948 221.558 178.644 204.523L173.621 201.463C164.25 216.273 151.979 229.038 138.529 236.803C127.938 242.918 118.082 245.078 109.786 243.778V223.678L116.229 219.958V215.728L98.9433 225.708V229.938L105.395 226.213V242.713C95.8083 239.518 88.9061 231.073 86.308 218.293L89.4603 216.473V208.923L93.0197 202.688L99.0039 210.963L104.685 207.683L96.0508 197.408L104.235 182.943L98.3284 186.353L89.4603 202.573V191.473L86.2474 193.328C87.1134 187.928 88.4904 182.453 90.309 177.003L94.7171 174.458L92.8378 170.143C94.9163 164.983 97.3758 159.903 100.156 154.998V171.318L107.56 167.043C110.366 165.403 112.124 164.328 112.86 163.813C114.029 162.988 115.008 162.033 115.796 160.938C116.602 159.833 117.225 158.613 117.684 157.278C118.152 155.928 118.377 154.688 118.377 153.548C118.377 152.108 118.022 151.053 117.312 150.393C116.602 149.733 115.58 149.573 114.255 149.888C115.199 148.863 115.935 147.698 116.48 146.403C117.035 145.113 117.312 143.873 117.312 142.703C117.312 141.623 117.087 140.783 116.645 140.168C116.195 139.558 115.64 139.178 114.965 139.048C114.307 138.898 113.544 138.998 112.696 139.328C111.925 139.623 110.773 140.208 109.275 141.053C117.675 129.883 127.721 120.393 138.529 114.153C168.043 97.1126 191.894 110.753 191.894 144.673C191.894 153.753 190.179 163.353 187.113 172.873L192.309 176.563C196.674 164.423 199.142 152.068 199.142 140.488C199.142 102.058 171.967 86.5176 138.529 105.823ZM133.013 126.918C129.964 128.678 127.505 131.248 125.643 134.633C123.772 138.013 122.837 141.783 122.837 145.943C122.837 149.883 123.764 152.448 125.626 153.643C125.963 153.858 126.318 154.033 126.691 154.158L129.427 149.198C129.22 149.118 129.029 148.998 128.847 148.853C127.851 148.088 127.358 146.123 127.358 142.963C127.358 139.983 127.86 137.533 128.856 135.628C129.869 133.713 131.177 132.288 132.796 131.353C133.957 130.683 134.953 130.488 135.758 130.773C136.581 131.048 137.118 131.768 137.378 132.908L141.725 129.208C141.231 127.493 140.487 126.383 139.499 125.883C137.837 125.033 135.68 125.378 133.013 126.918ZM149.311 117.938V130.218L153.702 127.683V119.633L155.677 118.493C157.469 117.458 158.673 116.843 159.288 116.648C160.102 116.378 160.786 116.373 161.314 116.648C161.851 116.918 162.267 117.488 162.562 118.358C162.856 119.218 163.012 120.608 163.012 122.548C163.012 123.488 162.969 124.363 162.899 125.163C164.51 124.803 165.835 124.888 167.048 125.158C167.385 123.603 167.55 121.928 167.55 120.148C167.55 117.808 167.316 115.973 166.84 114.658C166.363 113.323 165.671 112.373 164.761 111.798C163.852 111.213 162.761 111.083 161.479 111.383C160.526 111.623 159.149 112.258 157.339 113.303L149.311 117.938ZM104.546 147.943L107.075 146.483C109.136 145.293 110.392 144.598 110.825 144.398C111.561 144.083 112.107 144.058 112.471 144.338C112.852 144.598 113.034 145.113 113.034 145.893C113.034 146.693 112.817 147.478 112.384 148.228C111.96 148.963 111.371 149.593 110.617 150.138C110.202 150.428 109.136 151.073 107.43 152.058L104.546 153.723V147.943ZM104.546 157.883L108.097 155.833C110.089 154.683 111.388 154.053 111.986 153.948C112.583 153.843 113.051 153.953 113.363 154.293C113.683 154.638 113.839 155.178 113.839 155.928C113.839 156.818 113.631 157.648 113.215 158.418C112.808 159.183 112.28 159.818 111.631 160.323C111.198 160.683 110.193 161.313 108.617 162.223L104.546 164.573V157.883ZM150.047 134.553C133.195 144.283 119.425 168.053 119.425 187.423C119.425 206.803 133.195 214.683 150.047 204.953C155.945 201.548 161.462 196.423 166.147 190.368L188.698 203.538C190.829 204.778 194.284 202.803 196.432 199.113L198.675 195.278C200.831 191.583 200.849 187.603 198.718 186.353L176.106 173.148C178.999 166.108 180.679 158.818 180.679 152.058C180.679 132.688 166.909 124.818 150.047 134.553ZM150.047 146.013C161.514 139.393 170.702 144.648 170.702 157.818C170.702 170.998 161.514 186.863 150.047 193.483C138.59 200.098 129.393 194.848 129.393 181.668C129.393 168.498 138.59 152.628 150.047 146.013ZM150.134 152.003C149.303 152.443 148.523 153.383 148.099 154.448L135.593 185.898C134.693 188.158 135.784 189.728 137.542 188.713L162.562 174.268C164.311 173.258 165.402 170.428 164.51 169.203L151.996 152.198C151.606 151.663 150.905 151.588 150.134 152.003ZM108.877 180.263V205.263L112.964 202.903V183.223L116.307 196.573C115.337 191.043 114.999 185.828 116.333 179.748L115.458 176.463L108.877 180.263ZM122.525 211.873V225.213C122.525 228.013 122.672 230.038 122.958 231.313C123.157 232.158 123.564 232.853 124.188 233.383C124.811 233.893 125.66 234.123 126.725 234.068C127.799 233.988 129.384 233.343 131.454 232.148C133.177 231.153 134.572 230.098 135.645 228.978C136.711 227.853 137.559 226.683 138.192 225.468C138.841 224.233 139.274 222.943 139.517 221.563C139.75 220.188 139.872 217.998 139.872 214.998V213.868C138.296 214.348 136.832 214.393 135.481 214.033V218.233C135.481 220.213 135.412 221.663 135.29 222.583C135.16 223.508 134.779 224.458 134.147 225.413C133.515 226.358 132.571 227.193 131.324 227.913C130.094 228.623 129.124 228.873 128.414 228.673C127.713 228.448 127.271 227.883 127.08 226.963C126.968 226.398 126.916 225.028 126.916 222.888V212.498C125.885 212.213 124.413 212.033 123.859 211.103L122.525 211.873ZM162.423 200.028C160.881 201.478 159.409 202.888 157.556 204.468L155.858 211.348L154.265 206.928C152.758 207.888 151.251 208.828 149.666 209.523L153.364 219.288L158.05 216.583L162.423 200.028ZM62.5876 124.698L214.54 36.9676C217.814 35.0776 220.369 36.5326 220.369 40.2926V215.863C220.369 219.623 217.814 224.038 214.54 225.928L62.5876 313.658C59.314 315.548 56.7592 314.083 56.7592 310.323V134.753C56.7592 130.993 59.314 126.588 62.5876 124.698ZM62.5876 119.178C56.7419 122.553 51.9614 130.803 51.9614 137.523V313.093C51.9614 319.813 56.7419 322.553 62.5876 319.178L214.54 231.448C220.386 228.073 225.167 219.813 225.167 213.093V37.5226C225.167 30.8026 220.386 28.0726 214.54 31.4476L62.5876 119.178Z" fill="#8BC5E4"/>
<path fill-rule="evenodd" clip-rule="evenodd" d="M62.5876 124.698L214.54 36.9676C217.814 35.0776 220.369 36.5326 220.369 40.2926V215.863C220.369 219.623 217.814 224.038 214.54 225.928L62.5876 313.658C59.314 315.548 56.7592 314.083 56.7592 310.323V134.753C56.7592 130.993 59.314 126.588 62.5876 124.698ZM77.9162 210.478C77.9162 172.048 105.101 125.123 138.529 105.823C171.967 86.5176 199.142 102.058 199.142 140.488C199.142 152.068 196.674 164.423 192.309 176.563L187.113 172.873C190.179 163.353 191.894 153.753 191.894 144.673C191.894 110.753 168.043 97.1126 138.529 114.153C127.721 120.393 117.675 129.883 109.275 141.053C110.773 140.208 111.925 139.623 112.696 139.328C113.544 138.998 114.307 138.898 114.965 139.048C115.64 139.178 116.195 139.558 116.645 140.168C117.087 140.783 117.312 141.623 117.312 142.703C117.312 143.873 117.035 145.113 116.48 146.403C115.935 147.698 115.199 148.863 114.255 149.888C115.58 149.573 116.602 149.733 117.312 150.393C118.022 151.053 118.377 152.108 118.377 153.548C118.377 154.688 118.152 155.928 117.684 157.278C117.225 158.613 116.602 159.833 115.796 160.938C115.008 162.033 114.029 162.988 112.86 163.813C112.124 164.328 110.366 165.403 107.56 167.043L100.156 171.318V154.998C97.3758 159.903 94.9163 164.983 92.8378 170.143L94.7171 174.458L90.309 177.003C88.4904 182.453 87.1134 187.928 86.2474 193.328L89.4603 191.473V202.573L98.3284 186.353L104.235 182.943L96.0508 197.408L104.685 207.683L99.0039 210.963L93.0197 202.688L89.4603 208.923V216.473L86.308 218.293C88.9061 231.073 95.8083 239.518 105.395 242.713V226.213L98.9433 229.938V225.708L116.229 215.728V219.958L109.786 223.678V243.778C118.082 245.078 127.938 242.918 138.529 236.803C151.979 229.038 164.25 216.273 173.621 201.463L178.644 204.523C167.948 221.558 153.901 236.268 138.529 245.143C105.101 264.443 77.9162 248.898 77.9162 210.478ZM125.643 134.633C127.505 131.248 129.964 128.678 133.013 126.918C135.68 125.378 137.837 125.033 139.499 125.883C140.487 126.383 141.231 127.493 141.725 129.208L137.378 132.908C137.118 131.768 136.581 131.048 135.758 130.773C134.953 130.488 133.957 130.683 132.796 131.353C131.177 132.288 129.869 133.713 128.856 135.628C127.86 137.533 127.358 139.983 127.358 142.963C127.358 146.123 127.851 148.088 128.847 148.853C129.029 148.998 129.22 149.118 129.427 149.198L126.691 154.158C126.318 154.033 125.963 153.858 125.626 153.643C123.764 152.448 122.837 149.883 122.837 145.943C122.837 141.783 123.772 138.013 125.643 134.633ZM149.311 130.218V117.938L157.339 113.303C159.149 112.258 160.526 111.623 161.479 111.383C162.761 111.083 163.852 111.213 164.761 111.798C165.671 112.373 166.363 113.323 166.84 114.658C167.316 115.973 167.55 117.808 167.55 120.148C167.55 121.928 167.385 123.603 167.048 125.158C165.835 124.888 164.51 124.803 162.899 125.163C162.969 124.363 163.012 123.488 163.012 122.548C163.012 120.608 162.856 119.218 162.562 118.358C162.267 117.488 161.851 116.918 161.314 116.648C160.786 116.373 160.102 116.378 159.288 116.648C158.673 116.843 157.469 117.458 155.677 118.493L153.702 119.633V127.683L149.311 130.218ZM119.425 187.423C119.425 168.053 133.195 144.283 150.047 134.553C166.909 124.818 180.679 132.688 180.679 152.058C180.679 158.818 178.999 166.108 176.106 173.148L198.718 186.353C200.849 187.603 200.831 191.583 198.675 195.278L196.432 199.113C194.284 202.803 190.829 204.778 188.698 203.538L166.147 190.368C161.462 196.423 155.945 201.548 150.047 204.953C133.195 214.683 119.425 206.803 119.425 187.423ZM108.877 205.263V180.263L115.458 176.463L116.333 179.748C114.999 185.828 115.337 191.043 116.307 196.573L112.964 183.223V202.903L108.877 205.263ZM122.525 225.213V211.873L123.859 211.103C124.413 212.033 125.885 212.213 126.916 212.498V222.888C126.916 225.028 126.968 226.398 127.08 226.963C127.271 227.883 127.713 228.448 128.414 228.673C129.124 228.873 130.094 228.623 131.324 227.913C132.571 227.193 133.515 226.358 134.147 225.413C134.779 224.458 135.16 223.508 135.29 222.583C135.412 221.663 135.481 220.213 135.481 218.233V214.033C136.832 214.393 138.296 214.348 139.872 213.868V214.998C139.872 217.998 139.75 220.188 139.517 221.563C139.274 222.943 138.841 224.233 138.192 225.468C137.559 226.683 136.711 227.853 135.645 228.978C134.572 230.098 133.177 231.153 131.454 232.148C129.384 233.343 127.799 233.988 126.725 234.068C125.66 234.123 124.811 233.893 124.188 233.383C123.564 232.853 123.157 232.158 122.958 231.313C122.672 230.038 122.525 228.013 122.525 225.213ZM157.556 204.468C159.409 202.888 160.881 201.478 162.423 200.028L158.05 216.583L153.364 219.288L149.666 209.523C151.251 208.828 152.758 207.888 154.265 206.928L155.858 211.348L157.556 204.468Z" fill="white"/>
<path d="M104.546 147.943L107.075 146.483C109.136 145.293 110.392 144.598 110.825 144.398C111.561 144.083 112.107 144.058 112.471 144.338C112.852 144.598 113.034 145.113 113.034 145.893C113.034 146.693 112.817 147.478 112.384 148.228C111.96 148.963 111.371 149.593 110.617 150.138C110.202 150.428 109.136 151.073 107.43 152.058L104.546 153.723V147.943Z" fill="white"/>
<path d="M104.546 157.883L108.097 155.833C110.089 154.683 111.388 154.053 111.986 153.948C112.583 153.843 113.051 153.953 113.363 154.293C113.683 154.638 113.839 155.178 113.839 155.928C113.839 156.818 113.631 157.648 113.215 158.418C112.808 159.183 112.28 159.818 111.631 160.323C111.198 160.683 110.193 161.313 108.617 162.223L104.546 164.573V157.883Z" fill="white"/>
<path fill-rule="evenodd" clip-rule="evenodd" d="M150.047 146.013C161.514 139.393 170.702 144.648 170.702 157.818C170.702 170.998 161.514 186.863 150.047 193.483C138.59 200.098 129.393 194.848 129.393 181.668C129.393 168.498 138.59 152.628 150.047 146.013ZM148.099 154.448C148.523 153.383 149.303 152.443 150.134 152.003C150.905 151.588 151.606 151.663 151.996 152.198L164.51 169.203C165.402 170.428 164.311 173.258 162.562 174.268L137.542 188.713C135.784 189.728 134.693 188.158 135.593 185.898L148.099 154.448Z" fill="white"/>
</svg>
