<svg width="226" height="321" viewBox="0 0 226 321" fill="none" xmlns="http://www.w3.org/2000/svg">
<path fill-rule="evenodd" clip-rule="evenodd" d="M126.682 250.802L121.659 241.942L173.621 211.942L178.644 220.802L126.682 250.802Z" fill="#8BC5E4"/>
<path fill-rule="evenodd" clip-rule="evenodd" d="M57.8245 210.548V190.448L109.786 160.448V180.548L57.8245 210.548Z" fill="#8BC5E4"/>
<path fill-rule="evenodd" clip-rule="evenodd" d="M57.8245 190.448L64.2677 194.168L116.229 164.168L109.786 160.448L57.8245 190.448Z" fill="#8BC5E4"/>
<path fill-rule="evenodd" clip-rule="evenodd" d="M64.2678 194.168V189.938L116.229 159.938V164.168L64.2678 194.168Z" fill="#8BC5E4"/>
<path fill-rule="evenodd" clip-rule="evenodd" d="M64.2678 189.938L46.9819 179.958L98.9435 149.958L116.229 159.938L64.2678 189.938Z" fill="#8BC5E4"/>
<path fill-rule="evenodd" clip-rule="evenodd" d="M46.9819 179.958V184.188L98.9435 154.188V149.958L46.9819 179.958Z" fill="#8BC5E4"/>
<path fill-rule="evenodd" clip-rule="evenodd" d="M46.9819 184.188L53.4338 187.912L105.395 157.913L98.9435 154.188L46.9819 184.188Z" fill="#8BC5E4"/>
<path fill-rule="evenodd" clip-rule="evenodd" d="M53.4338 187.913V204.413L105.395 174.413V157.913L53.4338 187.913Z" fill="#8BC5E4"/>
<path fill-rule="evenodd" clip-rule="evenodd" d="M34.3467 157.952L37.499 159.772L89.4605 129.772L86.3082 127.952L34.3467 157.952Z" fill="#8BC5E4"/>
<path fill-rule="evenodd" clip-rule="evenodd" d="M37.4988 159.772V152.222L89.4603 122.222V129.772L37.4988 159.772Z" fill="#8BC5E4"/>
<path fill-rule="evenodd" clip-rule="evenodd" d="M37.4988 152.222L41.0581 150.097L93.0197 120.097L89.4603 122.222L37.4988 152.222Z" fill="#8BC5E4"/>
<path fill-rule="evenodd" clip-rule="evenodd" d="M41.0583 150.097L47.0426 165.282L99.0041 135.282L93.0199 120.097L41.0583 150.097Z" fill="#8BC5E4"/>
<path fill-rule="evenodd" clip-rule="evenodd" d="M47.0425 165.282L52.7236 168.562L104.685 138.562L99.004 135.282L47.0425 165.282Z" fill="#8BC5E4"/>
<path fill-rule="evenodd" clip-rule="evenodd" d="M52.7236 168.562L44.0894 148.317L96.0509 118.317L104.685 138.562L52.7236 168.562Z" fill="#8BC5E4"/>
<path fill-rule="evenodd" clip-rule="evenodd" d="M44.0894 148.317L52.2733 143.302L104.235 113.302L96.0509 118.317L44.0894 148.317Z" fill="#8BC5E4"/>
<path fill-rule="evenodd" clip-rule="evenodd" d="M52.2732 143.303L46.3669 139.893L98.3285 109.893L104.235 113.303L52.2732 143.303Z" fill="#8BC5E4"/>
<path fill-rule="evenodd" clip-rule="evenodd" d="M46.3669 139.893L37.4988 145.873L89.4603 115.873L98.3284 109.893L46.3669 139.893Z" fill="#8BC5E4"/>
<path fill-rule="evenodd" clip-rule="evenodd" d="M37.4988 145.872V134.772L89.4603 104.772V115.872L37.4988 145.872Z" fill="#8BC5E4"/>
<path fill-rule="evenodd" clip-rule="evenodd" d="M37.4988 134.772L34.2859 132.917L86.2474 102.917L89.4604 104.772L37.4988 134.772Z" fill="#8BC5E4"/>
<path fill-rule="evenodd" clip-rule="evenodd" d="M38.3477 121.282L42.7557 123.827L94.7173 93.8275L90.3092 91.2825L38.3477 121.282Z" fill="#8BC5E4"/>
<path fill-rule="evenodd" clip-rule="evenodd" d="M42.7557 123.828L40.8765 117.343L92.838 87.3425L94.7173 93.8275L42.7557 123.828Z" fill="#8BC5E4"/>
<path fill-rule="evenodd" clip-rule="evenodd" d="M48.1943 110.647V126.967L100.156 96.9675V80.6475L48.1943 110.647Z" fill="#8BC5E4"/>
<path fill-rule="evenodd" clip-rule="evenodd" d="M48.1943 126.968L55.5988 131.243L107.56 101.243L100.156 96.9675L48.1943 126.968Z" fill="#8BC5E4"/>
<path fill-rule="evenodd" clip-rule="evenodd" d="M135.152 228.933L140.348 238.623L192.31 208.623L187.113 198.933L135.152 228.933Z" fill="#8BC5E4"/>
<path fill-rule="evenodd" clip-rule="evenodd" d="M86.5679 105.782L138.529 75.7825L86.5679 105.782Z" fill="#8BC5E4"/>
<path fill-rule="evenodd" clip-rule="evenodd" d="M74.7292 140.447L77.4659 138.647L129.427 108.647L126.691 110.447L74.7292 140.447Z" fill="#8BC5E4"/>
<path fill-rule="evenodd" clip-rule="evenodd" d="M85.416 131.538L89.7635 132.858L141.725 102.858L137.378 101.538L85.416 131.538Z" fill="#8BC5E4"/>
<path fill-rule="evenodd" clip-rule="evenodd" d="M81.0513 120.508L133.013 90.5076L81.0513 120.508Z" fill="#8BC5E4"/>
<path fill-rule="evenodd" clip-rule="evenodd" d="M97.3499 130.347V142.627L149.311 112.627V100.347L97.3499 130.347Z" fill="#8BC5E4"/>
<path fill-rule="evenodd" clip-rule="evenodd" d="M97.3499 142.627L101.741 145.162L153.702 115.162L149.311 112.627L97.3499 142.627Z" fill="#8BC5E4"/>
<path fill-rule="evenodd" clip-rule="evenodd" d="M101.741 145.163V137.113L153.702 107.113V115.163L101.741 145.163Z" fill="#8BC5E4"/>
<path fill-rule="evenodd" clip-rule="evenodd" d="M101.741 137.113L103.715 138.253L155.677 108.253L153.702 107.113L101.741 137.113Z" fill="#8BC5E4"/>
<path fill-rule="evenodd" clip-rule="evenodd" d="M105.378 134.982L97.3499 130.347L149.311 100.347L157.339 104.982L105.378 134.982Z" fill="#8BC5E4"/>
<path fill-rule="evenodd" clip-rule="evenodd" d="M97.3499 130.347L149.311 100.347L97.3499 130.347Z" fill="#8BC5E4"/>
<path fill-rule="evenodd" clip-rule="evenodd" d="M52.585 108.663L55.1138 110.123L107.075 80.1226L104.546 78.6626L52.585 108.663Z" fill="#8BC5E4"/>
<path fill-rule="evenodd" clip-rule="evenodd" d="M55.4688 116.107L52.585 114.442L104.546 84.4424L107.43 86.1074L55.4688 116.107Z" fill="#8BC5E4"/>
<path fill-rule="evenodd" clip-rule="evenodd" d="M52.585 114.443V108.663L104.546 78.6626V84.4426L52.585 114.443Z" fill="#8BC5E4"/>
<path fill-rule="evenodd" clip-rule="evenodd" d="M52.585 108.663L104.546 78.6626L52.585 108.663Z" fill="#8BC5E4"/>
<path fill-rule="evenodd" clip-rule="evenodd" d="M52.585 118.603L56.1357 120.653L108.097 90.6525L104.546 88.6025L52.585 118.603Z" fill="#8BC5E4"/>
<path fill-rule="evenodd" clip-rule="evenodd" d="M56.6553 127.642L52.585 125.292L104.546 95.2925L108.617 97.6425L56.6553 127.642Z" fill="#8BC5E4"/>
<path fill-rule="evenodd" clip-rule="evenodd" d="M52.585 125.293V118.603L104.546 88.6025V95.2925L52.585 125.293Z" fill="#8BC5E4"/>
<path fill-rule="evenodd" clip-rule="evenodd" d="M52.585 118.603L104.546 88.6025L52.585 118.603Z" fill="#8BC5E4"/>
<path fill-rule="evenodd" clip-rule="evenodd" d="M114.186 222.218L136.737 261.428L188.698 231.428L166.147 192.218L114.186 222.218Z" fill="#8BC5E4"/>
<path fill-rule="evenodd" clip-rule="evenodd" d="M144.47 265.933L146.713 264.688L198.675 234.688L196.432 235.933L144.47 265.933Z" fill="#8BC5E4"/>
<path fill-rule="evenodd" clip-rule="evenodd" d="M146.757 255.813L124.145 216.498L176.106 186.498L198.718 225.813L146.757 255.813Z" fill="#8BC5E4"/>
<path fill-rule="evenodd" clip-rule="evenodd" d="M98.0859 147.812L150.047 117.812L98.0859 147.812Z" fill="#8BC5E4"/>
<path fill-rule="evenodd" clip-rule="evenodd" d="M98.0859 159.272L150.047 129.272L98.0859 159.272Z" fill="#8BC5E4"/>
<path fill-rule="evenodd" clip-rule="evenodd" d="M96.1375 165.458L83.6321 182.468L135.594 152.468L148.099 135.458L96.1375 165.458Z" fill="#8BC5E4"/>
<path fill-rule="evenodd" clip-rule="evenodd" d="M85.5806 187.532L110.6 201.977L162.562 171.977L137.542 157.532L85.5806 187.532Z" fill="#8BC5E4"/>
<path fill-rule="evenodd" clip-rule="evenodd" d="M112.549 199.163L100.035 167.708L151.996 137.708L164.51 169.163L112.549 199.163Z" fill="#8BC5E4"/>
<path fill-rule="evenodd" clip-rule="evenodd" d="M98.1726 165.363L150.134 135.363L98.1726 165.363Z" fill="#8BC5E4"/>
<path fill-rule="evenodd" clip-rule="evenodd" d="M56.9153 145.982V170.982L108.877 140.982V115.982L56.9153 145.982Z" fill="#8BC5E4"/>
<path fill-rule="evenodd" clip-rule="evenodd" d="M56.9153 170.982L61.0029 173.342L112.964 143.342L108.877 140.982L56.9153 170.982Z" fill="#8BC5E4"/>
<path fill-rule="evenodd" clip-rule="evenodd" d="M61.0029 173.343V153.663L112.964 123.663V143.343L61.0029 173.343Z" fill="#8BC5E4"/>
<path fill-rule="evenodd" clip-rule="evenodd" d="M61.0029 153.663L64.3458 170.873L116.307 140.873L112.964 123.663L61.0029 153.663Z" fill="#8BC5E4"/>
<path fill-rule="evenodd" clip-rule="evenodd" d="M64.3718 154.077L63.4971 149.782L115.459 119.782L116.333 124.077L64.3718 154.077Z" fill="#8BC5E4"/>
<path fill-rule="evenodd" clip-rule="evenodd" d="M63.4971 149.782L56.9153 145.982L108.877 115.982L115.459 119.782L63.4971 149.782Z" fill="#8BC5E4"/>
<path fill-rule="evenodd" clip-rule="evenodd" d="M56.9153 145.982L108.877 115.982L56.9153 145.982Z" fill="#8BC5E4"/>
<path fill-rule="evenodd" clip-rule="evenodd" d="M70.5637 193.353V206.693L122.525 176.693V163.353L70.5637 193.353Z" fill="#8BC5E4"/>
<path fill-rule="evenodd" clip-rule="evenodd" d="M87.9102 216.507V215.377L139.872 185.377V186.507L87.9102 216.507Z" fill="#8BC5E4"/>
<path fill-rule="evenodd" clip-rule="evenodd" d="M83.5195 210.472V214.672L135.481 184.672V180.472L83.5195 210.472Z" fill="#8BC5E4"/>
<path fill-rule="evenodd" clip-rule="evenodd" d="M74.9546 209.438V199.048L126.916 169.048V179.438L74.9546 209.438Z" fill="#8BC5E4"/>
<path fill-rule="evenodd" clip-rule="evenodd" d="M71.8974 194.123L70.5637 193.353L122.525 163.353L123.859 164.123L71.8974 194.123Z" fill="#8BC5E4"/>
<path fill-rule="evenodd" clip-rule="evenodd" d="M70.5637 193.353L122.525 163.353L70.5637 193.353Z" fill="#8BC5E4"/>
<path fill-rule="evenodd" clip-rule="evenodd" d="M105.594 226.397L103.897 231.317L155.858 201.317L157.556 196.397L105.594 226.397Z" fill="#8BC5E4"/>
<path fill-rule="evenodd" clip-rule="evenodd" d="M103.897 231.318L102.303 225.058L154.265 195.058L155.858 201.318L103.897 231.318Z" fill="#8BC5E4"/>
<path fill-rule="evenodd" clip-rule="evenodd" d="M97.7051 222.343L101.403 236.378L153.365 206.378L149.667 192.343L97.7051 222.343Z" fill="#8BC5E4"/>
<path fill-rule="evenodd" clip-rule="evenodd" d="M101.403 236.377L106.088 239.082L158.05 209.082L153.364 206.377L101.403 236.377Z" fill="#8BC5E4"/>
<path fill-rule="evenodd" clip-rule="evenodd" d="M106.088 239.083L110.462 227.578L162.423 197.578L158.05 209.083L106.088 239.083Z" fill="#8BC5E4"/>
<path fill-rule="evenodd" clip-rule="evenodd" d="M110.461 227.578L162.423 197.578L110.461 227.578Z" fill="#8BC5E4"/>
<path fill-rule="evenodd" clip-rule="evenodd" d="M10.6262 36.9675L162.579 124.698L214.541 94.6975L62.5877 6.96753L10.6262 36.9675Z" fill="#8BC5E4"/>
<path fill-rule="evenodd" clip-rule="evenodd" d="M168.407 134.752V310.322L220.369 280.322V104.752L168.407 134.752Z" fill="#8BC5E4"/>
<path fill-rule="evenodd" clip-rule="evenodd" d="M162.579 313.657L10.6262 225.927L62.5877 195.927L214.541 283.657L162.579 313.657Z" fill="#8BC5E4"/>
<path fill-rule="evenodd" clip-rule="evenodd" d="M4.79785 215.862V40.2925L56.7594 10.2925V185.862L4.79785 215.862Z" fill="#8BC5E4"/>
<path fill-rule="evenodd" clip-rule="evenodd" d="M10.6262 36.9675L62.5877 6.96753L10.6262 36.9675Z" fill="#8BC5E4"/>
<path fill-rule="evenodd" clip-rule="evenodd" d="M0 37.5225V213.092L51.9615 183.092V7.52246L0 37.5225Z" fill="#8BC5E4"/>
<path fill-rule="evenodd" clip-rule="evenodd" d="M10.6262 231.448L162.579 319.178L214.541 289.178L62.5877 201.448L10.6262 231.448Z" fill="#8BC5E4"/>
<path fill-rule="evenodd" clip-rule="evenodd" d="M173.205 313.092V137.522L225.167 107.522V283.092L173.205 313.092Z" fill="#8BC5E4"/>
<path fill-rule="evenodd" clip-rule="evenodd" d="M162.579 119.178L10.6262 31.4475L62.5877 1.44751L214.541 89.1775L162.579 119.178Z" fill="#8BC5E4"/>
<path fill-rule="evenodd" clip-rule="evenodd" d="M10.6262 31.4475L62.5877 1.44751L10.6262 31.4475Z" fill="#8BC5E4"/>
<path fill-rule="evenodd" clip-rule="evenodd" d="M86.5679 105.783C70.5222 96.5186 55.9151 95.2806 45.0625 100.748L97.024 70.7481C107.877 65.2806 122.484 66.5186 138.529 75.7826L86.5679 105.783Z" fill="#8BC5E4"/>
<path fill-rule="evenodd" clip-rule="evenodd" d="M45.0625 100.748C33.3055 106.671 25.9548 120.464 25.9548 140.448L77.9164 110.448C77.9164 90.464 85.2671 76.6712 97.0241 70.748L45.0625 100.748Z" fill="#8BC5E4"/>
<path fill-rule="evenodd" clip-rule="evenodd" d="M25.9548 140.448C25.9548 178.868 53.1394 225.803 86.568 245.103L138.529 215.103C105.101 195.803 77.9164 148.868 77.9164 110.448L25.9548 140.448Z" fill="#8BC5E4"/>
<path fill-rule="evenodd" clip-rule="evenodd" d="M86.5679 245.103C101.94 253.978 115.987 255.488 126.682 250.803L178.644 220.803C167.948 225.488 153.901 223.978 138.529 215.103L86.5679 245.103Z" fill="#8BC5E4"/>
<path fill-rule="evenodd" clip-rule="evenodd" d="M121.659 241.942C112.289 245.932 100.017 244.527 86.5679 236.762L138.529 206.762C151.979 214.527 164.25 215.932 173.621 211.942L121.659 241.942Z" fill="#8BC5E4"/>
<path fill-rule="evenodd" clip-rule="evenodd" d="M86.5678 236.763C75.9764 230.648 66.121 221.428 57.8245 210.548L109.786 180.548C118.083 191.428 127.938 200.648 138.529 206.763L86.5678 236.763Z" fill="#8BC5E4"/>
<path fill-rule="evenodd" clip-rule="evenodd" d="M53.4339 204.412C43.847 190.147 36.9448 173.732 34.3467 157.952L86.3082 127.952C88.9063 143.732 95.8085 160.147 105.395 174.412L53.4339 204.412Z" fill="#8BC5E4"/>
<path fill-rule="evenodd" clip-rule="evenodd" d="M34.2859 132.917C35.1519 128.517 36.5289 124.632 38.3475 121.282L90.3091 91.2825C88.4904 94.6325 87.1134 98.5175 86.2474 102.917L34.2859 132.917Z" fill="#8BC5E4"/>
<path fill-rule="evenodd" clip-rule="evenodd" d="M40.8765 117.342C42.9549 114.582 45.4144 112.342 48.1944 110.647L100.156 80.6475C97.376 82.3425 94.9165 84.5825 92.838 87.3425L40.8765 117.342Z" fill="#8BC5E4"/>
<path fill-rule="evenodd" clip-rule="evenodd" d="M55.5989 131.242C58.4048 132.842 60.1628 133.797 60.899 134.132L112.86 104.132C112.124 103.797 110.366 102.842 107.56 101.242L55.5989 131.242Z" fill="#8BC5E4"/>
<path fill-rule="evenodd" clip-rule="evenodd" d="M60.8989 134.133C62.0681 134.658 63.0467 134.833 63.8348 134.648L115.796 104.648C115.008 104.833 114.03 104.658 112.86 104.133L60.8989 134.133Z" fill="#8BC5E4"/>
<path fill-rule="evenodd" clip-rule="evenodd" d="M63.8347 134.648C64.0924 134.592 64.3316 134.502 64.5526 134.38L116.514 104.38C116.293 104.502 116.054 104.592 115.796 104.648L63.8347 134.648Z" fill="#8BC5E4"/>
<path fill-rule="evenodd" clip-rule="evenodd" d="M64.5527 134.38C65.0225 134.121 65.4107 133.715 65.7228 133.167L117.684 103.167C117.372 103.715 116.984 104.121 116.514 104.38L64.5527 134.38Z" fill="#8BC5E4"/>
<path fill-rule="evenodd" clip-rule="evenodd" d="M65.7227 133.168C66.1903 132.358 66.4155 131.378 66.4155 130.238L118.377 100.238C118.377 101.378 118.152 102.358 117.684 103.168L65.7227 133.168Z" fill="#8BC5E4"/>
<path fill-rule="evenodd" clip-rule="evenodd" d="M66.4156 130.238C66.4156 128.798 66.0605 127.333 65.3503 125.853L117.312 95.8525C118.022 97.3325 118.377 98.7975 118.377 100.238L66.4156 130.238Z" fill="#8BC5E4"/>
<path fill-rule="evenodd" clip-rule="evenodd" d="M65.3503 125.852C64.6401 124.372 63.6182 123.032 62.2932 121.817L114.255 91.8174C115.58 93.0324 116.602 94.3724 117.312 95.8524L65.3503 125.852Z" fill="#8BC5E4"/>
<path fill-rule="evenodd" clip-rule="evenodd" d="M62.2932 121.817C62.8596 121.856 63.3511 121.759 63.7716 121.531L115.733 91.5305C115.313 91.7586 114.821 91.8564 114.255 91.8174L62.2932 121.817Z" fill="#8BC5E4"/>
<path fill-rule="evenodd" clip-rule="evenodd" d="M63.7717 121.531C64.052 121.379 64.3008 121.169 64.519 120.903L116.481 90.9026C116.262 91.1686 116.014 91.3786 115.733 91.5307L63.7717 121.531Z" fill="#8BC5E4"/>
<path fill-rule="evenodd" clip-rule="evenodd" d="M64.5188 120.903C65.0731 120.253 65.3502 119.333 65.3502 118.163L117.312 88.1626C117.312 89.3326 117.035 90.2526 116.48 90.9026L64.5188 120.903Z" fill="#8BC5E4"/>
<path fill-rule="evenodd" clip-rule="evenodd" d="M65.3502 118.162C65.3502 117.082 65.125 115.982 64.6833 114.857L116.645 84.8574C117.087 85.9824 117.312 87.0824 117.312 88.1624L65.3502 118.162Z" fill="#8BC5E4"/>
<path fill-rule="evenodd" clip-rule="evenodd" d="M64.6835 114.858C64.2332 113.728 63.6789 112.708 63.0034 111.798L114.965 81.7976C115.64 82.7076 116.195 83.7276 116.645 84.8576L64.6835 114.858Z" fill="#8BC5E4"/>
<path fill-rule="evenodd" clip-rule="evenodd" d="M63.0034 111.798C62.3452 110.888 61.5831 110.108 60.7344 109.458L112.696 79.4575C113.545 80.1075 114.307 80.8875 114.965 81.7975L63.0034 111.798Z" fill="#8BC5E4"/>
<path fill-rule="evenodd" clip-rule="evenodd" d="M60.7343 109.457C59.9635 108.862 58.8117 108.117 57.3135 107.232L109.275 77.2324C110.773 78.1174 111.925 78.8624 112.696 79.4574L60.7343 109.457Z" fill="#8BC5E4"/>
<path fill-rule="evenodd" clip-rule="evenodd" d="M57.3135 107.232C65.7139 105.762 75.7598 107.872 86.5678 114.112L138.529 84.1125C127.721 77.8725 117.675 75.7625 109.275 77.2325L57.3135 107.232Z" fill="#8BC5E4"/>
<path fill-rule="evenodd" clip-rule="evenodd" d="M86.5679 114.113C116.082 131.153 139.932 172.333 139.932 206.253L191.894 176.253C191.894 142.333 168.044 101.153 138.529 84.1125L86.5679 114.113Z" fill="#8BC5E4"/>
<path fill-rule="evenodd" clip-rule="evenodd" d="M139.932 206.252C139.932 215.332 138.218 222.952 135.152 228.932L187.113 198.932C190.179 192.952 191.894 185.332 191.894 176.252L139.932 206.252Z" fill="#8BC5E4"/>
<path fill-rule="evenodd" clip-rule="evenodd" d="M140.348 238.622C144.713 231.522 147.181 222.018 147.181 210.438L199.143 180.438C199.143 192.017 196.674 201.522 192.31 208.622L140.348 238.622Z" fill="#8BC5E4"/>
<path fill-rule="evenodd" clip-rule="evenodd" d="M147.181 210.437C147.181 172.007 120.005 125.087 86.5679 105.782L138.529 75.7825C171.967 95.0875 199.143 142.007 199.143 180.437L147.181 210.437Z" fill="#8BC5E4"/>
<path fill-rule="evenodd" clip-rule="evenodd" d="M81.0514 120.508C78.2469 118.888 75.9408 118.53 74.1399 119.445L126.101 89.445C127.902 88.5303 130.208 88.8883 133.013 90.5075L81.0514 120.508Z" fill="#8BC5E4"/>
<path fill-rule="evenodd" clip-rule="evenodd" d="M74.1397 119.445C73.9831 119.525 73.8304 119.614 73.6814 119.713L125.643 89.7126C125.792 89.6138 125.945 89.5246 126.101 89.4451L74.1397 119.445Z" fill="#8BC5E4"/>
<path fill-rule="evenodd" clip-rule="evenodd" d="M73.6814 119.712C71.8108 120.932 70.8755 123.622 70.8755 127.782L122.837 97.7824C122.837 93.6224 123.772 90.9324 125.643 89.7124L73.6814 119.712Z" fill="#8BC5E4"/>
<path fill-rule="evenodd" clip-rule="evenodd" d="M70.8755 127.782C70.8755 131.722 71.8021 135.357 73.6641 138.702L125.626 108.702C123.764 105.357 122.837 101.722 122.837 97.7825L70.8755 127.782Z" fill="#8BC5E4"/>
<path fill-rule="evenodd" clip-rule="evenodd" d="M73.6641 138.702C74.0018 139.307 74.3569 139.892 74.7293 140.447L126.691 110.447C126.318 109.892 125.963 109.307 125.626 108.702L73.6641 138.702Z" fill="#8BC5E4"/>
<path fill-rule="evenodd" clip-rule="evenodd" d="M77.466 138.648C77.2581 138.328 77.0676 137.988 76.8857 137.633L128.847 107.633C129.029 107.988 129.22 108.328 129.428 108.648L77.466 138.648Z" fill="#8BC5E4"/>
<path fill-rule="evenodd" clip-rule="evenodd" d="M76.8858 137.632C75.8899 135.717 75.3962 133.182 75.3962 130.022L127.358 100.022C127.358 103.182 127.851 105.717 128.847 107.632L76.8858 137.632Z" fill="#8BC5E4"/>
<path fill-rule="evenodd" clip-rule="evenodd" d="M75.3962 130.022C75.3962 127.042 75.8985 125.172 76.8945 124.417L128.856 94.4175C127.86 95.1725 127.358 97.0425 127.358 100.022L75.3962 130.022Z" fill="#8BC5E4"/>
<path fill-rule="evenodd" clip-rule="evenodd" d="M76.8943 124.417C76.9348 124.388 76.9758 124.359 77.0173 124.332L128.979 94.332C128.937 94.3592 128.896 94.3876 128.856 94.4174L76.8943 124.417Z" fill="#8BC5E4"/>
<path fill-rule="evenodd" clip-rule="evenodd" d="M77.0173 124.332C78.0127 123.681 79.2801 123.795 80.8347 124.692L132.796 94.6925C131.242 93.7949 129.974 93.6806 128.979 94.332L77.0173 124.332Z" fill="#8BC5E4"/>
<path fill-rule="evenodd" clip-rule="evenodd" d="M80.8347 124.692C81.9952 125.362 82.9911 126.317 83.7965 127.532L135.758 97.5324C134.953 96.3174 133.957 95.3624 132.796 94.6924L80.8347 124.692Z" fill="#8BC5E4"/>
<path fill-rule="evenodd" clip-rule="evenodd" d="M83.7966 127.532C84.6194 128.757 85.1563 130.097 85.4161 131.537L137.378 101.537C137.118 100.097 136.581 98.7575 135.758 97.5325L83.7966 127.532Z" fill="#8BC5E4"/>
<path fill-rule="evenodd" clip-rule="evenodd" d="M89.7635 132.857C89.2699 130.572 88.5251 128.602 87.5378 126.962L139.499 96.9624C140.487 98.6024 141.231 100.572 141.725 102.857L89.7635 132.857Z" fill="#8BC5E4"/>
<path fill-rule="evenodd" clip-rule="evenodd" d="M87.5378 126.963C85.875 124.193 83.7186 122.048 81.0513 120.508L133.013 90.5076C135.68 92.0476 137.837 94.1926 139.499 96.9626L87.5378 126.963Z" fill="#8BC5E4"/>
<path fill-rule="evenodd" clip-rule="evenodd" d="M103.715 138.252C105.508 139.287 106.712 140.062 107.326 140.577L159.288 110.577C158.673 110.062 157.469 109.287 155.677 108.252L103.715 138.252Z" fill="#8BC5E4"/>
<path fill-rule="evenodd" clip-rule="evenodd" d="M107.326 140.577C108.14 141.247 108.825 142.032 109.353 142.917L161.314 112.917C160.786 112.032 160.102 111.247 159.288 110.577L107.326 140.577Z" fill="#8BC5E4"/>
<path fill-rule="evenodd" clip-rule="evenodd" d="M109.353 142.917C109.89 143.807 110.306 144.857 110.6 146.067L162.562 116.067C162.267 114.857 161.851 113.807 161.315 112.917L109.353 142.917Z" fill="#8BC5E4"/>
<path fill-rule="evenodd" clip-rule="evenodd" d="M110.6 146.067C110.895 147.267 111.05 148.837 111.05 150.777L163.012 120.777C163.012 118.837 162.856 117.267 162.562 116.067L110.6 146.067Z" fill="#8BC5E4"/>
<path fill-rule="evenodd" clip-rule="evenodd" d="M111.05 150.778C111.05 151.718 111.007 152.543 110.938 153.263L162.899 123.263C162.969 122.543 163.012 121.718 163.012 120.778L111.05 150.778Z" fill="#8BC5E4"/>
<path fill-rule="evenodd" clip-rule="evenodd" d="M110.938 153.262C112.549 154.762 113.874 156.377 115.086 158.047L167.048 128.047C165.835 126.377 164.51 124.762 162.899 123.262L110.938 153.262Z" fill="#8BC5E4"/>
<path fill-rule="evenodd" clip-rule="evenodd" d="M115.086 158.047C115.424 156.882 115.588 155.397 115.588 153.617L167.55 123.617C167.55 125.397 167.385 126.882 167.048 128.047L115.086 158.047Z" fill="#8BC5E4"/>
<path fill-rule="evenodd" clip-rule="evenodd" d="M115.588 153.618C115.588 151.278 115.354 149.173 114.878 147.308L166.84 117.308C167.316 119.173 167.55 121.278 167.55 123.618L115.588 153.618Z" fill="#8BC5E4"/>
<path fill-rule="evenodd" clip-rule="evenodd" d="M114.878 147.308C114.402 145.423 113.709 143.673 112.8 142.048L164.761 112.048C165.671 113.673 166.363 115.423 166.84 117.308L114.878 147.308Z" fill="#8BC5E4"/>
<path fill-rule="evenodd" clip-rule="evenodd" d="M112.8 142.048C111.89 140.413 110.799 139.023 109.518 137.843L161.479 107.843C162.761 109.023 163.852 110.413 164.761 112.048L112.8 142.048Z" fill="#8BC5E4"/>
<path fill-rule="evenodd" clip-rule="evenodd" d="M109.518 137.842C108.565 136.982 107.188 136.027 105.378 134.982L157.339 104.982C159.149 106.027 160.526 106.982 161.479 107.842L109.518 137.842Z" fill="#8BC5E4"/>
<path fill-rule="evenodd" clip-rule="evenodd" d="M55.1138 110.123C57.1749 111.313 58.4306 112.068 58.8637 112.368L110.825 82.3676C110.392 82.0676 109.136 81.3126 107.075 80.1226L55.1138 110.123Z" fill="#8BC5E4"/>
<path fill-rule="evenodd" clip-rule="evenodd" d="M58.8638 112.367C59.5999 112.902 60.1455 113.507 60.5092 114.207L112.471 84.2074C112.107 83.5074 111.561 82.9024 110.825 82.3674L58.8638 112.367Z" fill="#8BC5E4"/>
<path fill-rule="evenodd" clip-rule="evenodd" d="M60.5093 114.208C60.8903 114.908 61.0722 115.633 61.0722 116.413L113.034 86.4125C113.034 85.6325 112.852 84.9075 112.471 84.2075L60.5093 114.208Z" fill="#8BC5E4"/>
<path fill-rule="evenodd" clip-rule="evenodd" d="M61.0721 116.413C61.0721 117.213 60.8556 117.748 60.4226 117.998L112.384 87.9976C112.817 87.7476 113.034 87.2126 113.034 86.4126L61.0721 116.413Z" fill="#8BC5E4"/>
<path fill-rule="evenodd" clip-rule="evenodd" d="M60.4227 117.997C59.9983 118.242 59.4094 118.192 58.656 117.867L110.618 87.8674C111.371 88.1924 111.96 88.2424 112.384 87.9974L60.4227 117.997Z" fill="#8BC5E4"/>
<path fill-rule="evenodd" clip-rule="evenodd" d="M58.656 117.867C58.2403 117.677 57.1751 117.092 55.469 116.107L107.431 86.1074C109.137 87.0924 110.202 87.6774 110.617 87.8674L58.656 117.867Z" fill="#8BC5E4"/>
<path fill-rule="evenodd" clip-rule="evenodd" d="M56.1357 120.653C58.1276 121.803 59.4266 122.673 60.0242 123.258L111.986 93.2576C111.388 92.6726 110.089 91.8026 108.097 90.6526L56.1357 120.653Z" fill="#8BC5E4"/>
<path fill-rule="evenodd" clip-rule="evenodd" d="M60.0242 123.258C60.6217 123.843 61.0894 124.493 61.4012 125.193L113.363 95.1926C113.051 94.4926 112.583 93.8426 111.986 93.2576L60.0242 123.258Z" fill="#8BC5E4"/>
<path fill-rule="evenodd" clip-rule="evenodd" d="M61.4011 125.192C61.7216 125.907 61.8774 126.627 61.8774 127.377L113.839 97.3774C113.839 96.6274 113.683 95.9074 113.363 95.1924L61.4011 125.192Z" fill="#8BC5E4"/>
<path fill-rule="evenodd" clip-rule="evenodd" d="M61.8774 127.377C61.8774 128.267 61.6696 128.857 61.2539 129.147L113.215 99.1474C113.631 98.8574 113.839 98.2674 113.839 97.3774L61.8774 127.377Z" fill="#8BC5E4"/>
<path fill-rule="evenodd" clip-rule="evenodd" d="M61.2541 129.147C61.2215 129.171 61.1882 129.193 61.1541 129.213L113.116 99.2131C113.15 99.1929 113.183 99.1711 113.216 99.1475L61.2541 129.147Z" fill="#8BC5E4"/>
<path fill-rule="evenodd" clip-rule="evenodd" d="M61.154 129.213C60.7617 129.445 60.2667 129.448 59.6692 129.223L111.631 99.2225C112.228 99.4479 112.723 99.4448 113.116 99.2131L61.154 129.213Z" fill="#8BC5E4"/>
<path fill-rule="evenodd" clip-rule="evenodd" d="M59.669 129.223C59.236 129.083 58.2314 128.553 56.6553 127.643L108.617 97.6426C110.193 98.5526 111.198 99.0826 111.631 99.2226L59.669 129.223Z" fill="#8BC5E4"/>
<path fill-rule="evenodd" clip-rule="evenodd" d="M98.0861 147.813C89.9967 143.142 82.6177 142.527 77.1309 145.292L129.092 115.292C134.579 112.527 141.958 113.142 150.048 117.813L98.0861 147.813Z" fill="#8BC5E4"/>
<path fill-rule="evenodd" clip-rule="evenodd" d="M77.1308 145.292C71.1867 148.287 67.4634 155.25 67.4634 165.322L119.425 135.322C119.425 125.25 123.148 118.287 129.092 115.292L77.1308 145.292Z" fill="#8BC5E4"/>
<path fill-rule="evenodd" clip-rule="evenodd" d="M67.4634 165.323C67.4634 184.703 81.2332 208.483 98.086 218.213L150.048 188.213C133.195 178.483 119.425 154.703 119.425 135.323L67.4634 165.323Z" fill="#8BC5E4"/>
<path fill-rule="evenodd" clip-rule="evenodd" d="M98.0859 218.212C103.984 221.617 109.5 222.862 114.185 222.217L166.147 192.217C161.462 192.862 155.945 191.617 150.047 188.212L98.0859 218.212Z" fill="#8BC5E4"/>
<path fill-rule="evenodd" clip-rule="evenodd" d="M136.737 261.427C138.867 265.127 142.323 267.143 144.47 265.933L196.432 235.933C194.284 237.143 190.829 235.127 188.698 231.427L136.737 261.427Z" fill="#8BC5E4"/>
<path fill-rule="evenodd" clip-rule="evenodd" d="M146.713 264.687C148.87 263.482 148.887 259.522 146.757 255.812L198.718 225.812C200.849 229.523 200.831 233.482 198.675 234.687L146.713 264.687Z" fill="#8BC5E4"/>
<path fill-rule="evenodd" clip-rule="evenodd" d="M124.145 216.498C127.037 212.798 128.717 207.448 128.717 200.688L180.679 170.688C180.679 177.448 178.999 182.798 176.106 186.498L124.145 216.498Z" fill="#8BC5E4"/>
<path fill-rule="evenodd" clip-rule="evenodd" d="M128.717 200.688C128.717 181.317 114.947 157.548 98.0859 147.812L150.047 117.812C166.909 127.547 180.679 151.317 180.679 170.687L128.717 200.688Z" fill="#8BC5E4"/>
<path fill-rule="evenodd" clip-rule="evenodd" d="M98.0859 159.272C109.552 165.892 118.741 181.757 118.741 194.927L170.702 164.927C170.702 151.757 161.514 135.892 150.047 129.272L98.0859 159.272Z" fill="#8BC5E4"/>
<path fill-rule="evenodd" clip-rule="evenodd" d="M118.741 194.927C118.741 201.254 116.624 205.754 113.154 207.992L165.115 177.992C168.585 175.754 170.702 171.254 170.702 164.927L118.741 194.927Z" fill="#8BC5E4"/>
<path fill-rule="evenodd" clip-rule="evenodd" d="M113.154 207.992C109.395 210.416 104.048 210.185 98.0859 206.742L150.047 176.742C156.01 180.185 161.356 180.416 165.115 177.992L113.154 207.992Z" fill="#8BC5E4"/>
<path fill-rule="evenodd" clip-rule="evenodd" d="M98.0861 206.742C86.6286 200.127 77.4314 184.257 77.4314 171.077L129.393 141.077C129.393 154.257 138.59 170.127 150.048 176.742L98.0861 206.742Z" fill="#8BC5E4"/>
<path fill-rule="evenodd" clip-rule="evenodd" d="M77.4314 171.077C77.4314 164.756 79.5504 160.259 83.0213 158.023L134.983 128.023C131.512 130.259 129.393 134.756 129.393 141.077L77.4314 171.077Z" fill="#8BC5E4"/>
<path fill-rule="evenodd" clip-rule="evenodd" d="M83.0212 158.023C86.7814 155.601 92.1281 155.833 98.086 159.273L150.048 129.273C144.09 125.833 138.743 125.601 134.983 128.023L83.0212 158.023Z" fill="#8BC5E4"/>
<path fill-rule="evenodd" clip-rule="evenodd" d="M98.1727 165.362C97.5409 164.967 96.939 164.896 96.5002 165.136L148.462 135.136C148.901 134.896 149.502 134.967 150.134 135.362L98.1727 165.362Z" fill="#8BC5E4"/>
<path fill-rule="evenodd" clip-rule="evenodd" d="M96.5002 165.136C96.3616 165.212 96.2393 165.319 96.1375 165.457L148.099 135.457C148.201 135.319 148.323 135.212 148.462 135.136L96.5002 165.136Z" fill="#8BC5E4"/>
<path fill-rule="evenodd" clip-rule="evenodd" d="M83.6321 182.468C82.7315 183.688 83.8227 186.518 85.5807 187.533L137.542 157.533C135.784 156.518 134.693 153.688 135.594 152.468L83.6321 182.468Z" fill="#8BC5E4"/>
<path fill-rule="evenodd" clip-rule="evenodd" d="M110.6 201.978C111.23 202.341 111.774 202.37 112.172 202.154L164.133 172.154C163.736 172.37 163.191 172.341 162.562 171.978L110.6 201.978Z" fill="#8BC5E4"/>
<path fill-rule="evenodd" clip-rule="evenodd" d="M112.172 202.154C112.878 201.768 113.119 200.606 112.549 199.163L164.51 169.163C165.081 170.606 164.84 171.768 164.133 172.154L112.172 202.154Z" fill="#8BC5E4"/>
<path fill-rule="evenodd" clip-rule="evenodd" d="M100.035 167.708C99.6449 166.723 98.9434 165.838 98.1726 165.363L150.134 135.363C150.905 135.838 151.606 136.723 151.996 137.708L100.035 167.708Z" fill="#8BC5E4"/>
<path fill-rule="evenodd" clip-rule="evenodd" d="M64.3458 170.872C63.3758 164.222 63.0381 158.617 64.3717 154.077L116.333 124.077C115 128.617 115.337 134.222 116.307 140.872L64.3458 170.872Z" fill="#8BC5E4"/>
<path fill-rule="evenodd" clip-rule="evenodd" d="M70.5637 206.692C70.5637 209.492 70.7109 211.687 70.9967 213.292L122.958 183.292C122.672 181.687 122.525 179.492 122.525 176.692L70.5637 206.692Z" fill="#8BC5E4"/>
<path fill-rule="evenodd" clip-rule="evenodd" d="M70.9968 213.292C71.196 214.367 71.603 215.532 72.2266 216.782L124.188 186.782C123.565 185.532 123.158 184.367 122.958 183.292L70.9968 213.292Z" fill="#8BC5E4"/>
<path fill-rule="evenodd" clip-rule="evenodd" d="M72.2266 216.782C72.8501 218.012 73.6988 219.222 74.764 220.397L126.726 190.397C125.66 189.222 124.812 188.012 124.188 186.782L72.2266 216.782Z" fill="#8BC5E4"/>
<path fill-rule="evenodd" clip-rule="evenodd" d="M74.7639 220.397C75.8378 221.557 77.4226 222.742 79.4924 223.937L131.454 193.937C129.384 192.742 127.799 191.557 126.725 190.397L74.7639 220.397Z" fill="#8BC5E4"/>
<path fill-rule="evenodd" clip-rule="evenodd" d="M79.4924 223.938C81.2158 224.933 82.6101 225.487 83.684 225.607L135.646 195.607C134.572 195.487 133.177 194.933 131.454 193.938L79.4924 223.938Z" fill="#8BC5E4"/>
<path fill-rule="evenodd" clip-rule="evenodd" d="M83.6841 225.607C84.5789 225.696 85.3209 225.576 85.9101 225.248L137.872 195.248C137.282 195.576 136.54 195.696 135.646 195.607L83.6841 225.607Z" fill="#8BC5E4"/>
<path fill-rule="evenodd" clip-rule="evenodd" d="M85.9102 225.248C86.0224 225.185 86.1291 225.115 86.2302 225.038L138.192 195.038C138.091 195.115 137.984 195.185 137.872 195.248L85.9102 225.248Z" fill="#8BC5E4"/>
<path fill-rule="evenodd" clip-rule="evenodd" d="M86.2302 225.038C86.8797 224.553 87.3128 223.763 87.5552 222.663L139.517 192.663C139.274 193.763 138.841 194.553 138.192 195.038L86.2302 225.038Z" fill="#8BC5E4"/>
<path fill-rule="evenodd" clip-rule="evenodd" d="M87.5552 222.663C87.789 221.558 87.9102 219.508 87.9102 216.508L139.872 186.508C139.872 189.508 139.751 191.558 139.517 192.663L87.5552 222.663Z" fill="#8BC5E4"/>
<path fill-rule="evenodd" clip-rule="evenodd" d="M87.9103 215.377C86.3341 214.037 84.8705 212.392 83.5195 210.472L135.481 180.472C136.832 182.392 138.296 184.037 139.872 185.377L87.9103 215.377Z" fill="#8BC5E4"/>
<path fill-rule="evenodd" clip-rule="evenodd" d="M83.5194 214.673C83.5194 216.653 83.4501 218.023 83.3289 218.803L135.29 188.803C135.412 188.023 135.481 186.653 135.481 184.673L83.5194 214.673Z" fill="#8BC5E4"/>
<path fill-rule="evenodd" clip-rule="evenodd" d="M83.3289 218.802C83.225 219.422 82.9603 219.873 82.5349 220.143L134.496 190.143C134.922 189.873 135.186 189.422 135.29 188.802L83.3289 218.802Z" fill="#8BC5E4"/>
<path fill-rule="evenodd" clip-rule="evenodd" d="M82.535 220.144C82.4286 220.211 82.3122 220.268 82.1858 220.313L134.147 190.313C134.274 190.268 134.39 190.211 134.496 190.144L82.535 220.144Z" fill="#8BC5E4"/>
<path fill-rule="evenodd" clip-rule="evenodd" d="M82.1858 220.312C81.5536 220.527 80.6096 220.272 79.3625 219.552L131.324 189.552C132.571 190.272 133.515 190.527 134.147 190.312L82.1858 220.312Z" fill="#8BC5E4"/>
<path fill-rule="evenodd" clip-rule="evenodd" d="M79.3625 219.552C78.1327 218.842 77.1628 217.972 76.4526 216.952L128.414 186.952C129.124 187.972 130.094 188.842 131.324 189.552L79.3625 219.552Z" fill="#8BC5E4"/>
<path fill-rule="evenodd" clip-rule="evenodd" d="M76.4528 216.952C75.7513 215.917 75.3097 214.842 75.1191 213.702L127.081 183.702C127.271 184.842 127.713 185.917 128.414 186.952L76.4528 216.952Z" fill="#8BC5E4"/>
<path fill-rule="evenodd" clip-rule="evenodd" d="M75.1191 213.702C75.0065 213.007 74.9546 211.577 74.9546 209.438L126.916 179.438C126.916 181.578 126.968 183.007 127.081 183.702L75.1191 213.702Z" fill="#8BC5E4"/>
<path fill-rule="evenodd" clip-rule="evenodd" d="M74.9545 199.048C73.924 197.573 72.4517 195.693 71.8975 194.123L123.859 164.123C124.413 165.693 125.885 167.573 126.916 169.048L74.9545 199.048Z" fill="#8BC5E4"/>
<path fill-rule="evenodd" clip-rule="evenodd" d="M110.462 227.577C108.92 227.247 107.448 226.957 105.594 226.397L157.556 196.397C159.409 196.957 160.882 197.247 162.423 197.577L110.462 227.577Z" fill="#8BC5E4"/>
<path fill-rule="evenodd" clip-rule="evenodd" d="M102.304 225.058C100.797 224.278 99.2899 223.478 97.7051 222.343L149.667 192.343C151.251 193.478 152.758 194.278 154.265 195.058L102.304 225.058Z" fill="#8BC5E4"/>
<path fill-rule="evenodd" clip-rule="evenodd" d="M162.579 124.698C165.852 126.588 168.407 130.993 168.407 134.753L220.369 104.753C220.369 100.993 217.814 96.5875 214.54 94.6975L162.579 124.698Z" fill="#8BC5E4"/>
<path fill-rule="evenodd" clip-rule="evenodd" d="M168.407 310.323C168.407 312.127 167.819 313.403 166.844 314.033L218.806 284.033C219.78 283.403 220.369 282.127 220.369 280.323L168.407 310.323Z" fill="#8BC5E4"/>
<path fill-rule="evenodd" clip-rule="evenodd" d="M166.844 314.033C165.789 314.716 164.281 314.64 162.579 313.657L214.54 283.657C216.243 284.64 217.751 284.716 218.806 284.033L166.844 314.033Z" fill="#8BC5E4"/>
<path fill-rule="evenodd" clip-rule="evenodd" d="M10.6262 225.928C7.35263 224.038 4.79785 219.623 4.79785 215.863L56.7594 185.863C56.7594 189.623 59.3142 194.038 62.5877 195.928L10.6262 225.928Z" fill="#8BC5E4"/>
<path fill-rule="evenodd" clip-rule="evenodd" d="M4.79785 40.2926C4.79785 38.4878 5.38647 37.2141 6.36067 36.5864L58.3222 6.58643C57.348 7.21407 56.7594 8.48779 56.7594 10.2926L4.79785 40.2926Z" fill="#8BC5E4"/>
<path fill-rule="evenodd" clip-rule="evenodd" d="M6.3606 36.5863C7.41598 35.9063 8.92387 35.9846 10.6261 36.9674L62.5877 6.96742C60.8854 5.98462 59.3775 5.90631 58.3221 6.58625L6.3606 36.5863Z" fill="#8BC5E4"/>
<path fill-rule="evenodd" clip-rule="evenodd" d="M10.6261 31.4476C7.82016 29.8276 5.25967 29.6142 3.35547 30.5734L55.317 0.573435C57.2212 -0.385847 59.7817 -0.172439 62.5876 1.44756L10.6261 31.4476Z" fill="#8BC5E4"/>
<path fill-rule="evenodd" clip-rule="evenodd" d="M3.35552 30.5735C1.29264 31.6127 0 34.0282 0 37.5226L51.9615 7.52261C51.9615 4.02821 53.2542 1.61271 55.317 0.573486L3.35552 30.5735Z" fill="#8BC5E4"/>
<path fill-rule="evenodd" clip-rule="evenodd" d="M0 213.093C0 219.813 4.78046 228.073 10.6261 231.448L62.5877 201.448C56.742 198.073 51.9615 189.813 51.9615 183.093L0 213.093Z" fill="#8BC5E4"/>
<path fill-rule="evenodd" clip-rule="evenodd" d="M162.579 319.177C165.385 320.797 167.945 321.009 169.849 320.047L221.811 290.047C219.907 291.009 217.346 290.797 214.54 289.177L162.579 319.177Z" fill="#8BC5E4"/>
<path fill-rule="evenodd" clip-rule="evenodd" d="M169.85 320.047C171.912 319.005 173.205 316.587 173.205 313.093L225.167 283.093C225.167 286.587 223.874 289.005 221.811 290.047L169.85 320.047Z" fill="#8BC5E4"/>
<path fill-rule="evenodd" clip-rule="evenodd" d="M173.205 137.522C173.205 130.802 168.425 122.552 162.579 119.177L214.54 89.1775C220.386 92.5525 225.167 100.802 225.167 107.522L173.205 137.522Z" fill="#8BC5E4"/>
<path d="M86.5679 105.783C53.1393 86.4826 25.9548 102.018 25.9548 140.448C25.9548 178.868 53.1393 225.803 86.5679 245.103C101.94 253.978 115.987 255.488 126.682 250.803L121.659 241.943C112.289 245.933 100.017 244.528 86.5679 236.763C75.9764 230.648 66.121 221.428 57.8245 210.548V190.448L64.2677 194.168V189.938L46.9819 179.958V184.188L53.4338 187.913V204.413C43.8469 190.148 36.9446 173.733 34.3466 157.953L37.4989 159.773V152.223L41.0583 150.098L47.0425 165.283L52.7236 168.563L44.0894 148.318L52.2733 143.303L46.367 139.893L37.4989 145.873V134.773L34.2859 132.918C35.152 128.518 36.5289 124.633 38.3476 121.283L42.7557 123.828L40.8764 117.343C42.9549 114.583 45.4144 112.343 48.1943 110.648V126.968L55.5988 131.243C58.4048 132.843 60.1628 133.798 60.8989 134.133C62.068 134.658 63.0466 134.833 63.8347 134.648C64.6401 134.473 65.2637 133.973 65.7227 133.168C66.1903 132.358 66.4155 131.378 66.4155 130.238C66.4155 128.798 66.0604 127.333 65.3503 125.853C64.6401 124.373 63.6182 123.033 62.2932 121.818C63.2372 121.883 63.9733 121.568 64.5189 120.903C65.0731 120.253 65.3503 119.333 65.3503 118.163C65.3503 117.083 65.1251 115.983 64.6834 114.858C64.2331 113.728 63.6788 112.708 63.0033 111.798C62.3452 110.888 61.5831 110.108 60.7344 109.458C59.9636 108.863 58.8118 108.118 57.3136 107.233C65.714 105.763 75.7599 107.873 86.5679 114.113C116.082 131.153 139.932 172.333 139.932 206.253C139.932 215.333 138.218 222.953 135.152 228.933L140.348 238.623C144.713 231.523 147.181 222.018 147.181 210.438C147.181 172.008 120.005 125.088 86.5679 105.783ZM81.0513 120.508C78.0029 118.748 75.5434 118.478 73.6814 119.713C71.8108 120.933 70.8755 123.623 70.8755 127.783C70.8755 131.723 71.8022 135.358 73.6641 138.703C74.0019 139.308 74.3569 139.893 74.7293 140.448L77.466 138.648C77.2581 138.328 77.0676 137.988 76.8857 137.633C75.8898 135.718 75.3962 133.183 75.3962 130.023C75.3962 127.043 75.8985 125.173 76.8944 124.418C77.9076 123.673 79.2153 123.758 80.8348 124.693C81.9953 125.363 82.9912 126.318 83.7966 127.533C84.6193 128.758 85.1563 130.098 85.4161 131.538L89.7635 132.858C89.2699 130.573 88.5251 128.603 87.5378 126.963C85.8751 124.193 83.7187 122.048 81.0513 120.508ZM97.3499 130.348V142.628L101.741 145.163V137.113L103.715 138.253C105.508 139.288 106.712 140.063 107.327 140.578C108.141 141.248 108.825 142.033 109.353 142.918C109.89 143.808 110.306 144.858 110.6 146.068C110.895 147.268 111.05 148.838 111.05 150.778C111.05 151.718 111.007 152.543 110.938 153.263C112.549 154.763 113.874 156.378 115.086 158.048C115.424 156.883 115.588 155.398 115.588 153.618C115.588 151.278 115.355 149.173 114.878 147.308C114.402 145.423 113.709 143.673 112.8 142.048C111.89 140.413 110.799 139.023 109.518 137.843C108.565 136.983 107.188 136.028 105.378 134.983L97.3499 130.348ZM52.5851 108.663L55.1139 110.123C57.175 111.313 58.4307 112.068 58.8637 112.368C59.5999 112.903 60.1455 113.508 60.5092 114.208C60.8902 114.908 61.0721 115.633 61.0721 116.413C61.0721 117.213 60.8556 117.748 60.4226 117.998C59.9982 118.243 59.4093 118.193 58.6559 117.868C58.2402 117.678 57.175 117.093 55.4689 116.108L52.5851 114.443V108.663ZM52.5851 118.603L56.1358 120.653C58.1276 121.803 59.4267 122.673 60.0242 123.258C60.6218 123.843 61.0894 124.493 61.4012 125.193C61.7216 125.908 61.8775 126.628 61.8775 127.378C61.8775 128.268 61.6697 128.858 61.254 129.148C60.8469 129.443 60.3187 129.468 59.6692 129.223C59.2361 129.083 58.2315 128.553 56.6554 127.643L52.5851 125.293V118.603ZM98.086 147.813C81.2332 138.083 67.4634 145.953 67.4634 165.323C67.4634 184.703 81.2332 208.483 98.086 218.213C103.984 221.618 109.5 222.863 114.185 222.218L136.737 261.428C138.867 265.128 142.323 267.143 144.47 265.933L146.713 264.688C148.87 263.483 148.887 259.523 146.757 255.813L124.145 216.498C127.037 212.798 128.717 207.448 128.717 200.688C128.717 181.318 114.948 157.548 98.086 147.813ZM98.086 159.273C109.552 165.893 118.741 181.758 118.741 194.928C118.741 208.108 109.552 213.363 98.086 206.743C86.6285 200.128 77.4313 184.258 77.4313 171.078C77.4313 157.908 86.6285 152.658 98.086 159.273ZM98.1726 165.363C97.3413 164.843 96.5618 164.883 96.1375 165.458L83.6321 182.468C82.7314 183.688 83.8226 186.518 85.5806 187.533L110.6 201.978C112.349 202.988 113.441 201.418 112.549 199.163L100.035 167.708C99.6449 166.723 98.9434 165.838 98.1726 165.363ZM56.9152 145.983V170.983L61.0028 173.343V153.663L64.3457 170.873C63.3757 164.223 63.038 158.618 64.3717 154.078L63.497 149.783L56.9152 145.983ZM70.5638 193.353V206.693C70.5638 209.493 70.711 211.688 70.9968 213.293C71.196 214.368 71.603 215.533 72.2265 216.783C72.8501 218.013 73.6988 219.223 74.764 220.398C75.8378 221.558 77.4227 222.743 79.4925 223.938C81.2159 224.933 82.6102 225.488 83.684 225.608C84.7492 225.713 85.5979 225.523 86.2301 225.038C86.8797 224.553 87.3127 223.763 87.5552 222.663C87.789 221.558 87.9102 219.508 87.9102 216.508V215.378C86.3341 214.038 84.8705 212.393 83.5195 210.473V214.673C83.5195 216.653 83.4502 218.023 83.329 218.803C83.1991 219.578 82.818 220.088 82.1858 220.313C81.5536 220.528 80.6096 220.273 79.3626 219.553C78.1328 218.843 77.1629 217.973 76.4527 216.953C75.7512 215.918 75.3096 214.843 75.119 213.703C75.0065 213.008 74.9545 211.578 74.9545 209.438V199.048C73.9239 197.573 72.4517 195.693 71.8974 194.123L70.5638 193.353ZM110.462 227.578C108.92 227.248 107.448 226.958 105.594 226.398L103.897 231.318L102.304 225.058C100.797 224.278 99.2898 223.478 97.705 222.343L101.403 236.378L106.088 239.083L110.462 227.578ZM10.6261 36.9676L162.579 124.698C165.853 126.588 168.407 130.993 168.407 134.753V310.323C168.407 314.083 165.853 315.548 162.579 313.658L10.6261 225.928C7.35256 224.038 4.79778 219.623 4.79778 215.863V40.2926C4.79778 36.5326 7.35256 35.0776 10.6261 36.9676ZM10.6261 31.4476C4.78046 28.0726 0 30.8026 0 37.5226V213.093C0 219.813 4.78046 228.073 10.6261 231.448L162.579 319.178C168.425 322.553 173.205 319.813 173.205 313.093V137.523C173.205 130.803 168.425 122.553 162.579 119.178L10.6261 31.4476Z" fill="#8BC5E4"/>
<path fill-rule="evenodd" clip-rule="evenodd" d="M10.6261 36.9676L162.579 124.698C165.853 126.588 168.407 130.993 168.407 134.753V310.323C168.407 314.083 165.853 315.548 162.579 313.658L10.6261 225.928C7.35256 224.038 4.79778 219.623 4.79778 215.863V40.2926C4.79778 36.5326 7.35256 35.0776 10.6261 36.9676ZM25.9548 140.448C25.9548 102.018 53.1393 86.4826 86.5679 105.783C120.005 125.088 147.181 172.008 147.181 210.438C147.181 222.018 144.713 231.523 140.348 238.623L135.152 228.933C138.218 222.953 139.932 215.333 139.932 206.253C139.932 172.333 116.082 131.153 86.5679 114.113C75.7599 107.873 65.714 105.763 57.3136 107.233C58.8118 108.118 59.9636 108.863 60.7344 109.458C61.5831 110.108 62.3452 110.888 63.0033 111.798C63.6788 112.708 64.2331 113.728 64.6834 114.858C65.1251 115.983 65.3503 117.083 65.3503 118.163C65.3503 119.333 65.0731 120.253 64.5189 120.903C63.9733 121.568 63.2372 121.883 62.2932 121.818C63.6182 123.033 64.6401 124.373 65.3503 125.853C66.0604 127.333 66.4155 128.798 66.4155 130.238C66.4155 131.378 66.1903 132.358 65.7227 133.168C65.2637 133.973 64.6401 134.473 63.8347 134.648C63.0466 134.833 62.068 134.658 60.8989 134.133C60.1628 133.798 58.4048 132.843 55.5988 131.243L48.1943 126.968V110.648C45.4144 112.343 42.9549 114.583 40.8764 117.343L42.7557 123.828L38.3476 121.283C36.5289 124.633 35.152 128.518 34.2859 132.918L37.4989 134.773V145.873L46.367 139.893L52.2733 143.303L44.0894 148.318L52.7236 168.563L47.0425 165.283L41.0583 150.098L37.4989 152.223V159.773L34.3466 157.953C36.9446 173.733 43.8469 190.148 53.4338 204.413V187.913L46.9819 184.188V179.958L64.2677 189.938V194.168L57.8245 190.448V210.548C66.121 221.428 75.9764 230.648 86.5679 236.763C100.017 244.528 112.289 245.933 121.659 241.943L126.682 250.803C115.987 255.488 101.94 253.978 86.5679 245.103C53.1393 225.803 25.9548 178.868 25.9548 140.448ZM73.6814 119.713C75.5434 118.478 78.0029 118.748 81.0513 120.508C83.7187 122.048 85.8751 124.193 87.5378 126.963C88.5251 128.603 89.2699 130.573 89.7635 132.858L85.4161 131.538C85.1563 130.098 84.6193 128.758 83.7966 127.533C82.9912 126.318 81.9953 125.363 80.8348 124.693C79.2153 123.758 77.9076 123.673 76.8944 124.418C75.8985 125.173 75.3962 127.043 75.3962 130.023C75.3962 133.183 75.8898 135.718 76.8857 137.633C77.0676 137.988 77.2581 138.328 77.466 138.648L74.7293 140.448C74.3569 139.893 74.0019 139.308 73.6641 138.703C71.8022 135.358 70.8755 131.723 70.8755 127.783C70.8755 123.623 71.8108 120.933 73.6814 119.713ZM97.3499 142.628V130.348L105.378 134.983C107.188 136.028 108.565 136.983 109.518 137.843C110.799 139.023 111.89 140.413 112.8 142.048C113.709 143.673 114.402 145.423 114.878 147.308C115.355 149.173 115.588 151.278 115.588 153.618C115.588 155.398 115.424 156.883 115.086 158.048C113.874 156.378 112.549 154.763 110.938 153.263C111.007 152.543 111.05 151.718 111.05 150.778C111.05 148.838 110.895 147.268 110.6 146.068C110.306 144.858 109.89 143.808 109.353 142.918C108.825 142.033 108.141 141.248 107.327 140.578C106.712 140.063 105.508 139.288 103.715 138.253L101.741 137.113V145.163L97.3499 142.628ZM67.4634 165.323C67.4634 145.953 81.2332 138.083 98.086 147.813C114.948 157.548 128.717 181.318 128.717 200.688C128.717 207.448 127.037 212.798 124.145 216.498L146.757 255.813C148.887 259.523 148.87 263.483 146.713 264.688L144.47 265.933C142.323 267.143 138.867 265.128 136.737 261.428L114.185 222.218C109.5 222.863 103.984 221.618 98.086 218.213C81.2332 208.483 67.4634 184.703 67.4634 165.323ZM56.9152 170.983V145.983L63.497 149.783L64.3717 154.078C63.038 158.618 63.3757 164.223 64.3457 170.873L61.0028 153.663V173.343L56.9152 170.983ZM70.5638 206.693V193.353L71.8974 194.123C72.4517 195.693 73.9239 197.573 74.9545 199.048V209.438C74.9545 211.578 75.0065 213.008 75.119 213.703C75.3096 214.843 75.7512 215.918 76.4527 216.953C77.1629 217.973 78.1328 218.843 79.3626 219.553C80.6096 220.273 81.5536 220.528 82.1858 220.313C82.818 220.088 83.1991 219.578 83.329 218.803C83.4502 218.023 83.5195 216.653 83.5195 214.673V210.473C84.8705 212.393 86.3341 214.038 87.9102 215.378V216.508C87.9102 219.508 87.789 221.558 87.5552 222.663C87.3127 223.763 86.8797 224.553 86.2301 225.038C85.5979 225.523 84.7492 225.713 83.684 225.608C82.6102 225.488 81.2159 224.933 79.4925 223.938C77.4227 222.743 75.8378 221.558 74.764 220.398C73.6988 219.223 72.8501 218.013 72.2265 216.783C71.603 215.533 71.196 214.368 70.9968 213.293C70.711 211.688 70.5638 209.493 70.5638 206.693ZM105.594 226.398C107.448 226.958 108.92 227.248 110.462 227.578L106.088 239.083L101.403 236.378L97.705 222.343C99.2898 223.478 100.797 224.278 102.304 225.058L103.897 231.318L105.594 226.398Z" fill="white"/>
<path fill-rule="evenodd" clip-rule="evenodd" d="M98.086 159.273C109.552 165.893 118.741 181.758 118.741 194.928C118.741 208.108 109.552 213.363 98.086 206.743C86.6285 200.128 77.4313 184.258 77.4313 171.078C77.4313 157.908 86.6285 152.658 98.086 159.273ZM96.1375 165.458C96.5618 164.883 97.3413 164.843 98.1726 165.363C98.9434 165.838 99.6449 166.723 100.035 167.708L112.549 199.163C113.441 201.418 112.349 202.988 110.6 201.978L85.5806 187.533C83.8226 186.518 82.7314 183.688 83.6321 182.468L96.1375 165.458Z" fill="white"/>
<path d="M52.5851 108.663L55.1139 110.123C57.175 111.313 58.4307 112.068 58.8637 112.368C59.5999 112.903 60.1455 113.508 60.5092 114.208C60.8902 114.908 61.0721 115.633 61.0721 116.413C61.0721 117.213 60.8556 117.748 60.4226 117.998C59.9982 118.243 59.4093 118.193 58.6559 117.868C58.2402 117.678 57.175 117.093 55.4689 116.108L52.5851 114.443V108.663Z" fill="white"/>
<path d="M52.5851 118.603L56.1358 120.653C58.1276 121.803 59.4267 122.673 60.0242 123.258C60.6218 123.843 61.0894 124.493 61.4012 125.193C61.7216 125.908 61.8775 126.628 61.8775 127.378C61.8775 128.268 61.6697 128.858 61.254 129.148C60.8469 129.443 60.3187 129.468 59.6692 129.223C59.2361 129.083 58.2315 128.553 56.6554 127.643L52.5851 125.293V118.603Z" fill="white"/>
</svg>
