<svg width="226" height="321" viewBox="0 0 226 321" fill="none" xmlns="http://www.w3.org/2000/svg">
<path fill-rule="evenodd" clip-rule="evenodd" d="M149.407 189.602L152.481 187.827L100.52 157.827L97.4452 159.602L149.407 189.602Z" fill="#8BC5E4"/>
<path fill-rule="evenodd" clip-rule="evenodd" d="M152.481 187.827V189.927L100.52 159.927V157.827L152.481 187.827Z" fill="#8BC5E4"/>
<path fill-rule="evenodd" clip-rule="evenodd" d="M152.698 200.242V207.442L100.736 177.442V170.242L152.698 200.242Z" fill="#8BC5E4"/>
<path fill-rule="evenodd" clip-rule="evenodd" d="M152.698 207.442L149.407 209.342L97.4452 179.342L100.736 177.442L152.698 207.442Z" fill="#8BC5E4"/>
<path fill-rule="evenodd" clip-rule="evenodd" d="M149.407 209.342V189.602L97.4452 159.602V179.342L149.407 209.342Z" fill="#8BC5E4"/>
<path fill-rule="evenodd" clip-rule="evenodd" d="M149.407 189.602L97.4452 159.602L149.407 189.602Z" fill="#8BC5E4"/>
<path fill-rule="evenodd" clip-rule="evenodd" d="M152.672 194.627L100.71 164.627L152.672 194.627Z" fill="#8BC5E4"/>
<path fill-rule="evenodd" clip-rule="evenodd" d="M134.745 198.067L137.811 196.297L85.8492 166.297L82.7834 168.067L134.745 198.067Z" fill="#8BC5E4"/>
<path fill-rule="evenodd" clip-rule="evenodd" d="M137.811 196.297V198.397L85.8491 168.397V166.297L137.811 196.297Z" fill="#8BC5E4"/>
<path fill-rule="evenodd" clip-rule="evenodd" d="M138.036 208.707V215.907L86.0743 185.907V178.707L138.036 208.707Z" fill="#8BC5E4"/>
<path fill-rule="evenodd" clip-rule="evenodd" d="M138.036 215.907L134.745 217.807L82.7834 187.807L86.0743 185.907L138.036 215.907Z" fill="#8BC5E4"/>
<path fill-rule="evenodd" clip-rule="evenodd" d="M134.745 217.807V198.067L82.7834 168.067V187.807L134.745 217.807Z" fill="#8BC5E4"/>
<path fill-rule="evenodd" clip-rule="evenodd" d="M134.745 198.067L82.7834 168.067L134.745 198.067Z" fill="#8BC5E4"/>
<path fill-rule="evenodd" clip-rule="evenodd" d="M138.001 203.097L86.0397 173.097L138.001 203.097Z" fill="#8BC5E4"/>
<path fill-rule="evenodd" clip-rule="evenodd" d="M133.013 213.367L129.237 215.547L77.2755 185.547L81.0514 183.367L133.013 213.367Z" fill="#8BC5E4"/>
<path fill-rule="evenodd" clip-rule="evenodd" d="M129.237 215.547L127.73 211.937L75.7686 181.937L77.2754 185.547L129.237 215.547Z" fill="#8BC5E4"/>
<path fill-rule="evenodd" clip-rule="evenodd" d="M127.73 211.937L120.863 215.902L68.901 185.902L75.7686 181.937L127.73 211.937Z" fill="#8BC5E4"/>
<path fill-rule="evenodd" clip-rule="evenodd" d="M120.863 215.902L119.451 221.197L67.4894 191.197L68.901 185.902L120.863 215.902Z" fill="#8BC5E4"/>
<path fill-rule="evenodd" clip-rule="evenodd" d="M119.451 221.197L115.77 223.322L63.8087 193.322L67.4893 191.197L119.451 221.197Z" fill="#8BC5E4"/>
<path fill-rule="evenodd" clip-rule="evenodd" d="M115.77 223.322L122.465 199.717L70.5031 169.717L63.8087 193.322L115.77 223.322Z" fill="#8BC5E4"/>
<path fill-rule="evenodd" clip-rule="evenodd" d="M122.465 199.717L126.128 197.602L74.1665 167.602L70.5032 169.717L122.465 199.717Z" fill="#8BC5E4"/>
<path fill-rule="evenodd" clip-rule="evenodd" d="M126.128 197.602L133.013 213.367L81.0513 183.367L74.1664 167.602L126.128 197.602Z" fill="#8BC5E4"/>
<path fill-rule="evenodd" clip-rule="evenodd" d="M133.013 213.367L81.0514 183.367L133.013 213.367Z" fill="#8BC5E4"/>
<path fill-rule="evenodd" clip-rule="evenodd" d="M126.622 209.247L124.257 203.282L72.2958 173.282L74.66 179.247L126.622 209.247Z" fill="#8BC5E4"/>
<path fill-rule="evenodd" clip-rule="evenodd" d="M124.257 203.282L121.936 211.952L69.9749 181.952L72.2958 173.282L124.257 203.282Z" fill="#8BC5E4"/>
<path fill-rule="evenodd" clip-rule="evenodd" d="M121.936 211.952L126.622 209.247L74.66 179.247L69.9749 181.952L121.936 211.952Z" fill="#8BC5E4"/>
<path fill-rule="evenodd" clip-rule="evenodd" d="M126.622 209.247L74.66 179.247L126.622 209.247Z" fill="#8BC5E4"/>
<path fill-rule="evenodd" clip-rule="evenodd" d="M94.8472 172.822L79.5099 253.327L27.5483 223.327L42.8857 142.822L94.8472 172.822Z" fill="#8BC5E4"/>
<path fill-rule="evenodd" clip-rule="evenodd" d="M83.0345 256.462L181.406 199.667L129.445 169.667L31.073 226.462L83.0345 256.462Z" fill="#8BC5E4"/>
<path fill-rule="evenodd" clip-rule="evenodd" d="M184.94 194.457L200.407 113.877L148.445 83.8772L132.978 164.457L184.94 194.457Z" fill="#8BC5E4"/>
<path fill-rule="evenodd" clip-rule="evenodd" d="M196.891 110.737L98.3631 167.622L46.4016 137.622L144.929 80.7373L196.891 110.737Z" fill="#8BC5E4"/>
<path fill-rule="evenodd" clip-rule="evenodd" d="M98.3631 167.622L46.4016 137.622L98.3631 167.622Z" fill="#8BC5E4"/>
<path fill-rule="evenodd" clip-rule="evenodd" d="M139.092 154.427L87.1309 124.427L139.092 154.427Z" fill="#8BC5E4"/>
<path fill-rule="evenodd" clip-rule="evenodd" d="M139.352 159.417L87.3906 129.417L139.352 159.417Z" fill="#8BC5E4"/>
<path fill-rule="evenodd" clip-rule="evenodd" d="M139.352 165.667L87.3906 135.667L139.352 165.667Z" fill="#8BC5E4"/>
<path fill-rule="evenodd" clip-rule="evenodd" d="M84.8359 168.452L144.817 133.892L92.8553 103.892L32.8744 138.452L84.8359 168.452Z" fill="#8BC5E4"/>
<path fill-rule="evenodd" clip-rule="evenodd" d="M149.493 128.432L153.728 121.777L101.767 91.7773L97.5319 98.4323L149.493 128.432Z" fill="#8BC5E4"/>
<path fill-rule="evenodd" clip-rule="evenodd" d="M158.206 117.262L180.081 104.582L128.12 74.5823L106.244 87.2623L158.206 117.262Z" fill="#8BC5E4"/>
<path fill-rule="evenodd" clip-rule="evenodd" d="M184.282 107.667L184.247 115.957L132.285 85.9572L132.32 77.6672L184.282 107.667Z" fill="#8BC5E4"/>
<path fill-rule="evenodd" clip-rule="evenodd" d="M184.247 115.957L98.3631 165.542L46.4016 135.542L132.285 85.9573L184.247 115.957Z" fill="#8BC5E4"/>
<path fill-rule="evenodd" clip-rule="evenodd" d="M93.0891 173.347L78.6178 249.962L26.6562 219.962L41.1275 143.347L93.0891 173.347Z" fill="#8BC5E4"/>
<path fill-rule="evenodd" clip-rule="evenodd" d="M78.6178 249.962L78.6611 178.547L26.6996 148.547L26.6562 219.962L78.6178 249.962Z" fill="#8BC5E4"/>
<path fill-rule="evenodd" clip-rule="evenodd" d="M78.6611 178.547L26.6996 148.547L78.6611 178.547Z" fill="#8BC5E4"/>
<path fill-rule="evenodd" clip-rule="evenodd" d="M62.5876 124.687L214.54 36.9573L162.579 6.95728L10.6261 94.6873L62.5876 124.687Z" fill="#8BC5E4"/>
<path fill-rule="evenodd" clip-rule="evenodd" d="M220.369 40.3022V215.862L168.407 185.862V10.3022L220.369 40.3022Z" fill="#8BC5E4"/>
<path fill-rule="evenodd" clip-rule="evenodd" d="M214.54 225.937L62.5876 313.667L10.6261 283.667L162.579 195.937L214.54 225.937Z" fill="#8BC5E4"/>
<path fill-rule="evenodd" clip-rule="evenodd" d="M56.7594 310.322V134.762L4.79785 104.762V280.322L56.7594 310.322Z" fill="#8BC5E4"/>
<path fill-rule="evenodd" clip-rule="evenodd" d="M62.5876 124.687L10.6261 94.6873L62.5876 124.687Z" fill="#8BC5E4"/>
<path fill-rule="evenodd" clip-rule="evenodd" d="M51.9615 137.532V313.092L0 283.092V107.532L51.9615 137.532Z" fill="#8BC5E4"/>
<path fill-rule="evenodd" clip-rule="evenodd" d="M62.5876 319.177L214.54 231.447L162.579 201.447L10.6261 289.177L62.5876 319.177Z" fill="#8BC5E4"/>
<path fill-rule="evenodd" clip-rule="evenodd" d="M225.167 213.092V37.5322L173.205 7.53223V183.092L225.167 213.092Z" fill="#8BC5E4"/>
<path fill-rule="evenodd" clip-rule="evenodd" d="M214.54 31.4473L62.5876 119.177L10.6261 89.1773L162.579 1.44727L214.54 31.4473Z" fill="#8BC5E4"/>
<path fill-rule="evenodd" clip-rule="evenodd" d="M62.5876 119.177L10.6261 89.1772L62.5876 119.177Z" fill="#8BC5E4"/>
<path fill-rule="evenodd" clip-rule="evenodd" d="M152.481 189.927C152.88 188.984 153.416 188.091 154.092 187.247L102.13 157.247C101.455 158.091 100.918 158.984 100.52 159.927L152.481 189.927Z" fill="#8BC5E4"/>
<path fill-rule="evenodd" clip-rule="evenodd" d="M154.092 187.247C154.779 186.404 155.532 185.746 156.352 185.272L104.391 155.272C103.571 155.746 102.817 156.404 102.13 157.247L154.092 187.247Z" fill="#8BC5E4"/>
<path fill-rule="evenodd" clip-rule="evenodd" d="M156.352 185.272C157.68 184.505 158.825 184.395 159.786 184.94L107.825 154.94C106.863 154.395 105.719 154.505 104.391 155.272L156.352 185.272Z" fill="#8BC5E4"/>
<path fill-rule="evenodd" clip-rule="evenodd" d="M159.786 184.94C159.87 184.988 159.952 185.04 160.033 185.097L108.071 155.097C107.991 155.04 107.908 154.988 107.825 154.94L159.786 184.94Z" fill="#8BC5E4"/>
<path fill-rule="evenodd" clip-rule="evenodd" d="M160.033 185.097C161.043 185.814 161.548 187.339 161.548 189.672L109.587 159.672C109.587 157.339 109.082 155.814 108.071 155.097L160.033 185.097Z" fill="#8BC5E4"/>
<path fill-rule="evenodd" clip-rule="evenodd" d="M161.548 189.672C161.548 192.052 161.04 194.202 160.024 196.122L108.063 166.122C109.079 164.202 109.587 162.052 109.587 159.672L161.548 189.672Z" fill="#8BC5E4"/>
<path fill-rule="evenodd" clip-rule="evenodd" d="M160.024 196.122C159.008 198.022 157.778 199.389 156.335 200.222L104.373 170.222C105.817 169.389 107.047 168.022 108.063 166.122L160.024 196.122Z" fill="#8BC5E4"/>
<path fill-rule="evenodd" clip-rule="evenodd" d="M156.335 200.222C155.648 200.619 155.021 200.824 154.456 200.837L102.494 170.837C103.06 170.824 103.686 170.619 104.373 170.222L156.335 200.222Z" fill="#8BC5E4"/>
<path fill-rule="evenodd" clip-rule="evenodd" d="M154.456 200.837C153.99 200.843 153.502 200.704 152.992 200.42L101.03 170.42C101.541 170.704 102.029 170.843 102.494 170.837L154.456 200.837Z" fill="#8BC5E4"/>
<path fill-rule="evenodd" clip-rule="evenodd" d="M152.992 200.42C152.894 200.366 152.796 200.307 152.698 200.242L100.736 170.242C100.835 170.307 100.933 170.366 101.03 170.42L152.992 200.42Z" fill="#8BC5E4"/>
<path fill-rule="evenodd" clip-rule="evenodd" d="M152.672 194.627C152.672 196.234 152.946 197.266 153.494 197.722L101.533 167.722C100.984 167.266 100.71 166.234 100.71 164.627L152.672 194.627Z" fill="#8BC5E4"/>
<path fill-rule="evenodd" clip-rule="evenodd" d="M153.494 197.722C153.539 197.757 153.585 197.789 153.631 197.818L101.67 167.818C101.623 167.789 101.578 167.757 101.533 167.722L153.494 197.722Z" fill="#8BC5E4"/>
<path fill-rule="evenodd" clip-rule="evenodd" d="M153.631 197.818C154.164 198.154 154.797 198.11 155.53 197.687L103.568 167.687C102.835 168.11 102.202 168.154 101.67 167.818L153.631 197.818Z" fill="#8BC5E4"/>
<path fill-rule="evenodd" clip-rule="evenodd" d="M155.53 197.687C156.292 197.247 156.927 196.534 157.435 195.547L105.473 165.547C104.965 166.534 104.33 167.247 103.568 167.687L155.53 197.687Z" fill="#8BC5E4"/>
<path fill-rule="evenodd" clip-rule="evenodd" d="M157.435 195.547C157.943 194.541 158.197 193.234 158.197 191.627L106.235 161.627C106.235 163.234 105.981 164.541 105.473 165.547L157.435 195.547Z" fill="#8BC5E4"/>
<path fill-rule="evenodd" clip-rule="evenodd" d="M158.197 191.627C158.197 190.134 157.937 189.171 157.417 188.737L105.456 158.737C105.976 159.171 106.235 160.134 106.235 161.627L158.197 191.627Z" fill="#8BC5E4"/>
<path fill-rule="evenodd" clip-rule="evenodd" d="M157.418 188.737C157.375 188.704 157.332 188.673 157.288 188.645L105.326 158.645C105.37 158.673 105.413 158.704 105.456 158.737L157.418 188.737Z" fill="#8BC5E4"/>
<path fill-rule="evenodd" clip-rule="evenodd" d="M157.288 188.645C156.781 188.322 156.172 188.366 155.46 188.777L103.499 158.777C104.211 158.366 104.82 158.322 105.326 158.645L157.288 188.645Z" fill="#8BC5E4"/>
<path fill-rule="evenodd" clip-rule="evenodd" d="M155.46 188.777C154.658 189.241 153.991 189.986 153.46 191.012L101.498 161.012C102.029 159.986 102.696 159.241 103.499 158.777L155.46 188.777Z" fill="#8BC5E4"/>
<path fill-rule="evenodd" clip-rule="evenodd" d="M153.46 191.012C152.934 192.022 152.672 193.227 152.672 194.627L100.71 164.627C100.71 163.227 100.973 162.022 101.498 161.012L153.46 191.012Z" fill="#8BC5E4"/>
<path fill-rule="evenodd" clip-rule="evenodd" d="M137.811 198.397C138.209 197.454 138.749 196.559 139.43 195.712L87.4686 165.712C86.7873 166.559 86.2475 167.454 85.8491 168.397L137.811 198.397Z" fill="#8BC5E4"/>
<path fill-rule="evenodd" clip-rule="evenodd" d="M139.43 195.712C140.106 194.876 140.859 194.217 141.69 193.737L89.729 163.737C88.8976 164.217 88.1441 164.876 87.4686 165.712L139.43 195.712Z" fill="#8BC5E4"/>
<path fill-rule="evenodd" clip-rule="evenodd" d="M141.69 193.737C143.018 192.971 144.163 192.86 145.124 193.405L93.1628 163.405C92.2014 162.86 91.0568 162.971 89.7289 163.737L141.69 193.737Z" fill="#8BC5E4"/>
<path fill-rule="evenodd" clip-rule="evenodd" d="M145.124 193.405C145.208 193.452 145.29 193.505 145.371 193.562L93.4095 163.562C93.3287 163.505 93.2464 163.452 93.1628 163.405L145.124 193.405Z" fill="#8BC5E4"/>
<path fill-rule="evenodd" clip-rule="evenodd" d="M145.371 193.562C146.376 194.282 146.878 195.809 146.878 198.142L94.9164 168.142C94.9164 165.809 94.4141 164.282 93.4095 163.562L145.371 193.562Z" fill="#8BC5E4"/>
<path fill-rule="evenodd" clip-rule="evenodd" d="M146.878 198.142C146.878 200.522 146.37 202.672 145.354 204.592L93.3922 174.592C94.4083 172.672 94.9164 170.522 94.9164 168.142L146.878 198.142Z" fill="#8BC5E4"/>
<path fill-rule="evenodd" clip-rule="evenodd" d="M145.354 204.592C144.338 206.492 143.108 207.859 141.664 208.692L89.7029 178.692C91.1463 177.859 92.376 176.492 93.3921 174.592L145.354 204.592Z" fill="#8BC5E4"/>
<path fill-rule="evenodd" clip-rule="evenodd" d="M141.664 208.692C140.977 209.089 140.354 209.292 139.794 209.302L87.8323 179.302C88.3923 179.292 89.0158 179.089 89.7029 178.692L141.664 208.692Z" fill="#8BC5E4"/>
<path fill-rule="evenodd" clip-rule="evenodd" d="M139.794 209.302C139.328 209.308 138.84 209.169 138.33 208.885L86.3684 178.885C86.8788 179.169 87.3668 179.308 87.8324 179.302L139.794 209.302Z" fill="#8BC5E4"/>
<path fill-rule="evenodd" clip-rule="evenodd" d="M138.33 208.885C138.233 208.831 138.135 208.772 138.036 208.707L86.0743 178.707C86.1732 178.772 86.2712 178.831 86.3684 178.885L138.33 208.885Z" fill="#8BC5E4"/>
<path fill-rule="evenodd" clip-rule="evenodd" d="M138.001 203.097C138.001 204.704 138.278 205.734 138.833 206.187L86.8711 176.187C86.3168 175.734 86.0397 174.704 86.0397 173.097L138.001 203.097Z" fill="#8BC5E4"/>
<path fill-rule="evenodd" clip-rule="evenodd" d="M138.832 206.187C138.877 206.222 138.922 206.255 138.968 206.284L87.0063 176.284C86.9604 176.255 86.9153 176.222 86.871 176.187L138.832 206.187Z" fill="#8BC5E4"/>
<path fill-rule="evenodd" clip-rule="evenodd" d="M138.968 206.284C139.495 206.623 140.123 206.582 140.85 206.162L88.8889 176.162C88.1612 176.582 87.5337 176.623 87.0063 176.284L138.968 206.284Z" fill="#8BC5E4"/>
<path fill-rule="evenodd" clip-rule="evenodd" d="M140.85 206.162C141.618 205.719 142.256 205.004 142.764 204.017L90.8028 174.017C90.2948 175.004 89.6568 175.719 88.8889 176.162L140.85 206.162Z" fill="#8BC5E4"/>
<path fill-rule="evenodd" clip-rule="evenodd" d="M142.764 204.017C143.272 203.011 143.526 201.704 143.526 200.097L91.5648 170.097C91.5648 171.704 91.3108 173.011 90.8027 174.017L142.764 204.017Z" fill="#8BC5E4"/>
<path fill-rule="evenodd" clip-rule="evenodd" d="M143.526 200.097C143.526 198.604 143.264 197.642 142.738 197.212L90.7769 167.212C91.3022 167.642 91.5649 168.604 91.5649 170.097L143.526 200.097Z" fill="#8BC5E4"/>
<path fill-rule="evenodd" clip-rule="evenodd" d="M142.738 197.212C142.676 197.161 142.612 197.116 142.546 197.078L90.5842 167.078C90.6502 167.116 90.7144 167.161 90.7768 167.212L142.738 197.212Z" fill="#8BC5E4"/>
<path fill-rule="evenodd" clip-rule="evenodd" d="M142.546 197.078C142.062 196.794 141.479 196.849 140.798 197.242L88.8369 167.242C89.5177 166.849 90.1002 166.794 90.5843 167.078L142.546 197.078Z" fill="#8BC5E4"/>
<path fill-rule="evenodd" clip-rule="evenodd" d="M140.798 197.242C139.996 197.706 139.329 198.451 138.798 199.477L86.8364 169.477C87.3676 168.451 88.0344 167.706 88.8369 167.242L140.798 197.242Z" fill="#8BC5E4"/>
<path fill-rule="evenodd" clip-rule="evenodd" d="M138.798 199.477C138.267 200.491 138.001 201.697 138.001 203.097L86.0397 173.097C86.0397 171.697 86.3053 170.491 86.8364 169.477L138.798 199.477Z" fill="#8BC5E4"/>
<path fill-rule="evenodd" clip-rule="evenodd" d="M98.3632 167.622C96.7004 168.582 95.2455 170.742 94.8471 172.822L42.8856 142.822C43.284 140.742 44.7389 138.582 46.4017 137.622L98.3632 167.622Z" fill="#8BC5E4"/>
<path fill-rule="evenodd" clip-rule="evenodd" d="M79.5098 253.327C79.1946 254.976 79.599 256.188 80.4297 256.696L28.4681 226.696C27.6375 226.188 27.233 224.976 27.5483 223.327L79.5098 253.327Z" fill="#8BC5E4"/>
<path fill-rule="evenodd" clip-rule="evenodd" d="M80.4297 256.696C81.0823 257.096 81.9981 257.061 83.0345 256.462L31.073 226.462C30.0365 227.061 29.1208 227.096 28.4681 226.696L80.4297 256.696Z" fill="#8BC5E4"/>
<path fill-rule="evenodd" clip-rule="evenodd" d="M181.406 199.667C183.078 198.702 184.533 196.552 184.94 194.457L132.978 164.457C132.571 166.552 131.116 168.702 129.445 169.667L181.406 199.667Z" fill="#8BC5E4"/>
<path fill-rule="evenodd" clip-rule="evenodd" d="M200.407 113.877C200.722 112.228 200.32 111.015 199.492 110.505L147.531 80.5051C148.359 81.0147 148.761 82.228 148.445 83.8772L200.407 113.877Z" fill="#8BC5E4"/>
<path fill-rule="evenodd" clip-rule="evenodd" d="M199.492 110.505C198.841 110.105 197.927 110.139 196.891 110.737L144.929 80.7373C145.966 80.1389 146.88 80.1048 147.531 80.5052L199.492 110.505Z" fill="#8BC5E4"/>
<path fill-rule="evenodd" clip-rule="evenodd" d="M139.092 154.427C147.346 149.662 154.494 150.185 159.628 153.127L107.667 123.127C102.533 120.185 95.3844 119.662 87.1309 124.427L139.092 154.427Z" fill="#8BC5E4"/>
<path fill-rule="evenodd" clip-rule="evenodd" d="M159.628 153.127C161.249 154.056 162.67 155.226 163.861 156.547L111.899 126.547C110.708 125.226 109.288 124.056 107.667 123.127L159.628 153.127Z" fill="#8BC5E4"/>
<path fill-rule="evenodd" clip-rule="evenodd" d="M163.861 156.547C159.635 166.837 150.905 180.307 139.092 187.127L87.1309 157.127C98.9434 150.307 107.673 136.837 111.899 126.547L163.861 156.547Z" fill="#8BC5E4"/>
<path fill-rule="evenodd" clip-rule="evenodd" d="M139.092 187.127C130.733 191.953 123.715 191.304 118.593 188.431L66.631 158.431C71.7537 161.304 78.772 161.953 87.1308 157.127L139.092 187.127Z" fill="#8BC5E4"/>
<path fill-rule="evenodd" clip-rule="evenodd" d="M118.593 188.431C116.975 187.524 115.546 186.395 114.324 185.147L62.3625 155.147C63.5847 156.395 65.0133 157.524 66.631 158.431L118.593 188.431Z" fill="#8BC5E4"/>
<path fill-rule="evenodd" clip-rule="evenodd" d="M114.324 185.147C119.953 173.157 128.501 160.542 139.092 154.427L87.1309 124.427C76.5394 130.542 67.9917 143.157 62.3625 155.147L114.324 185.147Z" fill="#8BC5E4"/>
<path fill-rule="evenodd" clip-rule="evenodd" d="M139.352 159.417C133.974 162.522 129.566 170.127 129.566 176.307L77.6046 146.307C77.6046 140.127 82.0127 132.522 87.3907 129.417L139.352 159.417Z" fill="#8BC5E4"/>
<path fill-rule="evenodd" clip-rule="evenodd" d="M129.566 176.307C129.566 179.274 130.582 181.398 132.233 182.462L80.2712 152.462C78.6202 151.398 77.6046 149.274 77.6046 146.307L129.566 176.307Z" fill="#8BC5E4"/>
<path fill-rule="evenodd" clip-rule="evenodd" d="M132.233 182.462C134.021 183.614 136.556 183.522 139.352 181.907L87.3907 151.907C84.5941 153.522 82.0598 153.614 80.2712 152.462L132.233 182.462Z" fill="#8BC5E4"/>
<path fill-rule="evenodd" clip-rule="evenodd" d="M139.352 181.907C144.722 178.807 149.13 171.192 149.13 165.012L97.168 135.012C97.168 141.192 92.76 148.807 87.3906 151.907L139.352 181.907Z" fill="#8BC5E4"/>
<path fill-rule="evenodd" clip-rule="evenodd" d="M149.13 165.012C149.13 162.046 148.114 159.924 146.464 158.862L94.5024 128.862C96.1525 129.924 97.1681 132.046 97.1681 135.012L149.13 165.012Z" fill="#8BC5E4"/>
<path fill-rule="evenodd" clip-rule="evenodd" d="M146.464 158.862C144.676 157.712 142.144 157.805 139.352 159.417L87.3906 129.417C90.1827 127.805 92.7148 127.712 94.5024 128.862L146.464 158.862Z" fill="#8BC5E4"/>
<path fill-rule="evenodd" clip-rule="evenodd" d="M139.352 165.667C140.516 164.995 141.562 164.898 142.336 165.287L90.3741 135.287C89.6008 134.898 88.5546 134.995 87.3906 135.667L139.352 165.667Z" fill="#8BC5E4"/>
<path fill-rule="evenodd" clip-rule="evenodd" d="M142.336 165.287C143.173 165.709 143.691 166.701 143.691 168.152L91.7294 138.152C91.7294 136.701 91.2119 135.709 90.3741 135.287L142.336 165.287Z" fill="#8BC5E4"/>
<path fill-rule="evenodd" clip-rule="evenodd" d="M143.691 168.152C143.691 170.952 141.777 174.257 139.352 175.657L87.3906 145.657C89.8155 144.257 91.7294 140.952 91.7294 138.152L143.691 168.152Z" fill="#8BC5E4"/>
<path fill-rule="evenodd" clip-rule="evenodd" d="M139.352 175.657C138.18 176.334 137.131 176.433 136.358 176.042L84.3964 146.042C85.1699 146.433 86.2184 146.334 87.3907 145.657L139.352 175.657Z" fill="#8BC5E4"/>
<path fill-rule="evenodd" clip-rule="evenodd" d="M136.358 176.042C135.52 175.62 135.005 174.623 135.005 173.167L83.0432 143.167C83.0432 144.623 83.5584 145.62 84.3964 146.042L136.358 176.042Z" fill="#8BC5E4"/>
<path fill-rule="evenodd" clip-rule="evenodd" d="M135.005 173.167C135.005 170.377 136.91 167.077 139.352 165.667L87.3907 135.667C84.9485 137.077 83.0432 140.377 83.0432 143.167L135.005 173.167Z" fill="#8BC5E4"/>
<path fill-rule="evenodd" clip-rule="evenodd" d="M78.6611 178.547C78.6611 173.527 80.4451 170.987 84.8359 168.452L32.8743 138.452C28.4836 140.987 26.6996 143.527 26.6996 148.547L78.6611 178.547Z" fill="#8BC5E4"/>
<path fill-rule="evenodd" clip-rule="evenodd" d="M144.817 133.892C147.372 132.417 148.16 130.512 149.493 128.432L97.5318 98.4324C96.1981 100.512 95.41 102.417 92.8552 103.892L144.817 133.892Z" fill="#8BC5E4"/>
<path fill-rule="evenodd" clip-rule="evenodd" d="M153.728 121.777C155.175 119.412 155.737 118.687 158.206 117.262L106.244 87.2622C103.776 88.6872 103.213 89.4122 101.767 91.7772L153.728 121.777Z" fill="#8BC5E4"/>
<path fill-rule="evenodd" clip-rule="evenodd" d="M180.081 104.582C181.148 103.966 182.034 103.873 182.712 104.168L130.751 74.1677C130.072 73.8726 129.187 73.9662 128.12 74.5822L180.081 104.582Z" fill="#8BC5E4"/>
<path fill-rule="evenodd" clip-rule="evenodd" d="M182.712 104.168C183.73 104.61 184.282 105.927 184.282 107.667L132.32 77.6673C132.32 75.9273 131.768 74.6103 130.751 74.1677L182.712 104.168Z" fill="#8BC5E4"/>
<path fill-rule="evenodd" clip-rule="evenodd" d="M98.3632 165.542C95.8604 166.987 93.6866 170.202 93.0891 173.347L41.1276 143.347C41.7251 140.202 43.8988 136.987 46.4017 135.542L98.3632 165.542Z" fill="#8BC5E4"/>
<path fill-rule="evenodd" clip-rule="evenodd" d="M214.541 36.9572C216.112 36.05 217.518 35.9158 218.555 36.4385L166.593 6.4385C165.556 5.91584 164.15 6.05005 162.579 6.95725L214.541 36.9572Z" fill="#8BC5E4"/>
<path fill-rule="evenodd" clip-rule="evenodd" d="M218.555 36.4385C219.678 37.0047 220.369 38.3418 220.369 40.3022L168.407 10.3022C168.407 8.34182 167.716 7.00469 166.593 6.43848L218.555 36.4385Z" fill="#8BC5E4"/>
<path fill-rule="evenodd" clip-rule="evenodd" d="M220.369 215.862C220.369 219.632 217.814 224.047 214.541 225.937L162.579 195.937C165.853 194.047 168.407 189.632 168.407 185.862L220.369 215.862Z" fill="#8BC5E4"/>
<path fill-rule="evenodd" clip-rule="evenodd" d="M62.5877 313.667C61.0163 314.574 59.6106 314.709 58.5736 314.186L6.61206 284.186C7.64911 284.709 9.05481 284.574 10.6261 283.667L62.5877 313.667Z" fill="#8BC5E4"/>
<path fill-rule="evenodd" clip-rule="evenodd" d="M58.5737 314.186C57.4502 313.62 56.7594 312.283 56.7594 310.322L4.79785 280.322C4.79785 282.283 5.48866 283.62 6.61213 284.186L58.5737 314.186Z" fill="#8BC5E4"/>
<path fill-rule="evenodd" clip-rule="evenodd" d="M56.7594 134.762C56.7594 130.992 59.3142 126.577 62.5877 124.687L10.6262 94.6873C7.35263 96.5773 4.79785 100.992 4.79785 104.762L56.7594 134.762Z" fill="#8BC5E4"/>
<path fill-rule="evenodd" clip-rule="evenodd" d="M62.5877 119.177C56.742 122.552 51.9615 130.802 51.9615 137.532L0 107.532C0 100.802 4.78046 92.5522 10.6261 89.1772L62.5877 119.177Z" fill="#8BC5E4"/>
<path fill-rule="evenodd" clip-rule="evenodd" d="M51.9615 313.092C51.9615 316.323 53.0629 318.631 54.8549 319.786L2.89338 289.786C1.10142 288.631 0 286.323 0 283.092L51.9615 313.092Z" fill="#8BC5E4"/>
<path fill-rule="evenodd" clip-rule="evenodd" d="M54.855 319.786C56.7962 321.036 59.548 320.932 62.5877 319.177L10.6262 289.177C7.58644 290.932 4.83472 291.036 2.89343 289.786L54.855 319.786Z" fill="#8BC5E4"/>
<path fill-rule="evenodd" clip-rule="evenodd" d="M214.541 231.447C220.386 228.072 225.167 219.822 225.167 213.092L173.205 183.092C173.205 189.822 168.425 198.072 162.579 201.447L214.541 231.447Z" fill="#8BC5E4"/>
<path fill-rule="evenodd" clip-rule="evenodd" d="M225.167 37.5322C225.167 34.3018 224.065 31.993 222.273 30.8386L170.312 0.838623C172.104 1.99303 173.205 4.30183 173.205 7.53223L225.167 37.5322Z" fill="#8BC5E4"/>
<path fill-rule="evenodd" clip-rule="evenodd" d="M222.273 30.8387C220.332 29.5881 217.58 29.6923 214.541 31.4473L162.579 1.44731C165.619 -0.307685 168.37 -0.411894 170.312 0.83871L222.273 30.8387Z" fill="#8BC5E4"/>
<path d="M149.407 189.602L152.481 187.827V189.927C152.879 188.984 153.416 188.091 154.092 187.247C154.779 186.404 155.532 185.746 156.352 185.272C157.796 184.439 159.022 184.381 160.033 185.097C161.043 185.814 161.548 187.339 161.548 189.672C161.548 192.052 161.04 194.202 160.024 196.122C159.008 198.022 157.778 199.389 156.335 200.222C155.648 200.619 155.021 200.824 154.456 200.837C153.901 200.844 153.315 200.646 152.698 200.242V207.442L149.407 209.342V189.602ZM152.672 194.627C152.672 196.234 152.946 197.266 153.494 197.722C154.054 198.159 154.733 198.147 155.53 197.687C156.292 197.247 156.927 196.534 157.435 195.547C157.943 194.541 158.197 193.234 158.197 191.627C158.197 190.134 157.937 189.171 157.417 188.737C156.886 188.317 156.234 188.331 155.46 188.777C154.658 189.241 153.991 189.986 153.46 191.012C152.934 192.022 152.672 193.227 152.672 194.627ZM134.745 198.067L137.811 196.297V198.397C138.209 197.454 138.749 196.559 139.43 195.712C140.106 194.876 140.859 194.217 141.69 193.737C143.134 192.904 144.361 192.846 145.371 193.562C146.376 194.282 146.878 195.809 146.878 198.142C146.878 200.522 146.37 202.672 145.354 204.592C144.338 206.492 143.108 207.859 141.664 208.692C140.977 209.089 140.354 209.292 139.794 209.302C139.24 209.309 138.654 209.111 138.036 208.707V215.907L134.745 217.807V198.067ZM138.001 203.097C138.001 204.704 138.278 205.734 138.833 206.187C139.387 206.627 140.059 206.619 140.85 206.162C141.618 205.719 142.256 205.004 142.764 204.017C143.272 203.011 143.526 201.704 143.526 200.097C143.526 198.604 143.264 197.642 142.738 197.212C142.219 196.786 141.572 196.796 140.798 197.242C139.996 197.706 139.329 198.451 138.798 199.477C138.267 200.491 138.001 201.697 138.001 203.097ZM133.013 213.367L129.237 215.547L127.73 211.937L120.863 215.902L119.451 221.197L115.77 223.322L122.465 199.717L126.128 197.602L133.013 213.367ZM126.622 209.247L124.257 203.282L121.936 211.952L126.622 209.247ZM98.3632 167.622C96.7004 168.582 95.2455 170.742 94.8471 172.822L79.5098 253.327C78.9469 256.272 80.679 257.822 83.0345 256.462L181.406 199.667C183.078 198.702 184.533 196.552 184.94 194.457L200.407 113.877C200.97 110.932 199.246 109.377 196.891 110.737L98.3632 167.622ZM139.092 154.427C149.952 148.157 158.898 151.042 163.861 156.547C159.634 166.837 150.905 180.307 139.092 187.127C128.094 193.477 119.416 190.347 114.324 185.147C119.953 173.157 128.501 160.542 139.092 154.427ZM139.352 159.417C133.974 162.522 129.566 170.127 129.566 176.307C129.566 182.487 133.974 185.012 139.352 181.907C144.722 178.807 149.13 171.192 149.13 165.012C149.13 158.832 144.722 156.317 139.352 159.417ZM139.352 165.667C141.777 164.267 143.691 165.362 143.691 168.152C143.691 170.952 141.777 174.257 139.352 175.657C136.91 177.067 135.005 175.967 135.005 173.167C135.005 170.377 136.91 167.077 139.352 165.667ZM78.6611 178.547C78.6611 173.527 80.4451 170.987 84.8359 168.452L144.817 133.892C147.372 132.417 148.16 130.512 149.493 128.432L153.728 121.777C155.174 119.412 155.737 118.687 158.206 117.262L180.081 104.582C182.749 103.042 184.282 104.767 184.282 107.667L184.247 115.957L98.3632 165.542C95.8604 166.987 93.6867 170.202 93.0891 173.347L78.6178 249.962L78.6611 178.547ZM62.5877 124.687L214.54 36.9573C217.814 35.0673 220.369 36.5323 220.369 40.3023V215.862C220.369 219.632 217.814 224.047 214.54 225.937L62.5877 313.667C59.3141 315.557 56.7593 314.092 56.7593 310.322V134.762C56.7593 130.992 59.3141 126.577 62.5877 124.687ZM62.5877 119.177C56.742 122.552 51.9615 130.802 51.9615 137.532V313.092C51.9615 319.822 56.742 322.552 62.5877 319.177L214.54 231.447C220.386 228.072 225.167 219.822 225.167 213.092V37.5323C225.167 30.8023 220.386 28.0723 214.54 31.4473L62.5877 119.177Z" fill="#8BC5E4"/>
<path fill-rule="evenodd" clip-rule="evenodd" d="M62.5877 124.687L214.54 36.9573C217.814 35.0673 220.369 36.5323 220.369 40.3023V215.862C220.369 219.632 217.814 224.047 214.54 225.937L62.5877 313.667C59.3141 315.557 56.7593 314.092 56.7593 310.322V134.762C56.7593 130.992 59.3141 126.577 62.5877 124.687ZM94.8471 172.822C95.2455 170.742 96.7004 168.582 98.3632 167.622L196.891 110.737C199.246 109.377 200.97 110.932 200.407 113.877L184.94 194.457C184.533 196.552 183.078 198.702 181.406 199.667L83.0345 256.462C80.679 257.822 78.9469 256.272 79.5098 253.327L94.8471 172.822ZM84.8359 168.452C80.4451 170.987 78.6611 173.527 78.6611 178.547L78.6178 249.962L93.0891 173.347C93.6867 170.202 95.8604 166.987 98.3632 165.542L184.247 115.957L184.282 107.667C184.282 104.767 182.749 103.042 180.081 104.582L158.206 117.262C155.737 118.687 155.174 119.412 153.728 121.777L149.493 128.432C148.16 130.512 147.372 132.417 144.817 133.892L84.8359 168.452Z" fill="white"/>
<path fill-rule="evenodd" clip-rule="evenodd" d="M139.092 154.427C149.952 148.157 158.898 151.042 163.861 156.547C159.634 166.837 150.905 180.307 139.092 187.127C128.094 193.477 119.416 190.347 114.324 185.147C119.953 173.157 128.501 160.542 139.092 154.427ZM129.566 176.307C129.566 170.127 133.974 162.522 139.352 159.417C144.722 156.317 149.13 158.832 149.13 165.012C149.13 171.192 144.722 178.807 139.352 181.907C133.974 185.012 129.566 182.487 129.566 176.307Z" fill="white"/>
<path fill-rule="evenodd" clip-rule="evenodd" d="M133.013 213.367L129.237 215.547L127.73 211.937L120.863 215.902L119.451 221.197L115.77 223.322L122.465 199.717L126.128 197.602L133.013 213.367ZM124.257 203.282L126.622 209.247L121.936 211.952L124.257 203.282Z" fill="white"/>
<path fill-rule="evenodd" clip-rule="evenodd" d="M134.745 198.067L137.811 196.297V198.397C138.209 197.454 138.749 196.559 139.43 195.712C140.106 194.876 140.859 194.217 141.69 193.737C143.134 192.904 144.361 192.846 145.371 193.562C146.376 194.282 146.878 195.809 146.878 198.142C146.878 200.522 146.37 202.672 145.354 204.592C144.338 206.492 143.108 207.859 141.664 208.692C140.977 209.089 140.354 209.292 139.794 209.302C139.24 209.309 138.654 209.111 138.036 208.707V215.907L134.745 217.807V198.067ZM138.833 206.187C138.278 205.734 138.001 204.704 138.001 203.097C138.001 201.697 138.267 200.491 138.798 199.477C139.329 198.451 139.996 197.706 140.798 197.242C141.572 196.796 142.219 196.786 142.738 197.212C143.264 197.642 143.526 198.604 143.526 200.097C143.526 201.704 143.272 203.011 142.764 204.017C142.256 205.004 141.618 205.719 140.85 206.162C140.059 206.619 139.387 206.627 138.833 206.187Z" fill="white"/>
<path fill-rule="evenodd" clip-rule="evenodd" d="M149.407 189.602L152.481 187.827V189.927C152.879 188.984 153.416 188.091 154.092 187.247C154.779 186.404 155.532 185.746 156.352 185.272C157.796 184.439 159.022 184.381 160.033 185.097C161.043 185.814 161.548 187.339 161.548 189.672C161.548 192.052 161.04 194.202 160.024 196.122C159.008 198.022 157.778 199.389 156.335 200.222C155.648 200.619 155.021 200.824 154.456 200.837C153.901 200.844 153.315 200.646 152.698 200.242V207.442L149.407 209.342V189.602ZM153.494 197.722C152.946 197.266 152.672 196.234 152.672 194.627C152.672 193.227 152.934 192.022 153.46 191.012C153.991 189.986 154.658 189.241 155.46 188.777C156.234 188.331 156.886 188.317 157.417 188.737C157.937 189.171 158.197 190.134 158.197 191.627C158.197 193.234 157.943 194.541 157.435 195.547C156.927 196.534 156.292 197.247 155.53 197.687C154.733 198.147 154.054 198.159 153.494 197.722Z" fill="white"/>
<path d="M139.352 165.667C141.777 164.267 143.691 165.362 143.691 168.152C143.691 170.952 141.777 174.257 139.352 175.657C136.91 177.067 135.005 175.967 135.005 173.167C135.005 170.377 136.91 167.077 139.352 165.667Z" fill="white"/>
</svg>
