<svg width="226" height="321" viewBox="0 0 226 321" fill="none" xmlns="http://www.w3.org/2000/svg">
<path fill-rule="evenodd" clip-rule="evenodd" d="M86.4552 161.308L104.217 151.053L52.2558 121.053L34.4937 131.308L86.4552 161.308Z" fill="#8BC5E4"/>
<path fill-rule="evenodd" clip-rule="evenodd" d="M107.023 146.303L86.4552 158.178L34.4937 128.178L55.0618 116.303L107.023 146.303Z" fill="#8BC5E4"/>
<path fill-rule="evenodd" clip-rule="evenodd" d="M86.4552 158.178L34.4937 128.178L86.4552 158.178Z" fill="#8BC5E4"/>
<path fill-rule="evenodd" clip-rule="evenodd" d="M159.21 119.302L193.86 99.2974L141.898 69.2974L107.249 89.3024L159.21 119.302Z" fill="#8BC5E4"/>
<path fill-rule="evenodd" clip-rule="evenodd" d="M193.86 96.1675L156.395 117.797L104.434 87.7975L141.898 66.1675L193.86 96.1675Z" fill="#8BC5E4"/>
<path fill-rule="evenodd" clip-rule="evenodd" d="M156.395 117.797L104.434 87.7974L156.395 117.797Z" fill="#8BC5E4"/>
<path fill-rule="evenodd" clip-rule="evenodd" d="M86.4552 170.898L98.3024 164.058L46.3409 134.058L34.4937 140.898L86.4552 170.898Z" fill="#8BC5E4"/>
<path fill-rule="evenodd" clip-rule="evenodd" d="M99.8699 160.033L86.4552 167.778L34.4937 137.778L47.9084 130.033L99.8699 160.033Z" fill="#8BC5E4"/>
<path fill-rule="evenodd" clip-rule="evenodd" d="M86.4552 167.777L34.4937 137.777L86.4552 167.777Z" fill="#8BC5E4"/>
<path fill-rule="evenodd" clip-rule="evenodd" d="M165.116 125.483L193.86 108.888L141.898 78.8877L113.155 95.4827L165.116 125.483Z" fill="#8BC5E4"/>
<path fill-rule="evenodd" clip-rule="evenodd" d="M193.86 105.768L163.557 123.263L111.596 93.2626L141.898 75.7676L193.86 105.768Z" fill="#8BC5E4"/>
<path fill-rule="evenodd" clip-rule="evenodd" d="M163.557 123.263L111.596 93.2627L163.557 123.263Z" fill="#8BC5E4"/>
<path fill-rule="evenodd" clip-rule="evenodd" d="M131.757 142.172L131.852 144.687L79.8907 114.687L79.7954 112.172L131.757 142.172Z" fill="#8BC5E4"/>
<path fill-rule="evenodd" clip-rule="evenodd" d="M131.852 144.687L140.867 139.482L88.906 109.482L79.8906 114.687L131.852 144.687Z" fill="#8BC5E4"/>
<path fill-rule="evenodd" clip-rule="evenodd" d="M131.757 142.172L79.7954 112.172L131.757 142.172Z" fill="#8BC5E4"/>
<path fill-rule="evenodd" clip-rule="evenodd" d="M122.56 150.052L129.419 146.092L77.4573 116.092L70.5984 120.052L122.56 150.052Z" fill="#8BC5E4"/>
<path fill-rule="evenodd" clip-rule="evenodd" d="M129.419 146.092L130.155 143.167L78.1934 113.167L77.4573 116.092L129.419 146.092Z" fill="#8BC5E4"/>
<path fill-rule="evenodd" clip-rule="evenodd" d="M130.155 143.167L78.1934 113.167L130.155 143.167Z" fill="#8BC5E4"/>
<path fill-rule="evenodd" clip-rule="evenodd" d="M130.536 146.558L122.491 178.623L70.5291 148.623L78.5744 116.558L130.536 146.558Z" fill="#8BC5E4"/>
<path fill-rule="evenodd" clip-rule="evenodd" d="M122.49 178.622L119.529 165.522L67.5671 135.522L70.529 148.622L122.49 178.622Z" fill="#8BC5E4"/>
<path fill-rule="evenodd" clip-rule="evenodd" d="M119.529 165.522L114.108 184.532L62.146 154.532L67.5673 135.522L119.529 165.522Z" fill="#8BC5E4"/>
<path fill-rule="evenodd" clip-rule="evenodd" d="M115.865 186.927L118.844 176.467L66.8829 146.467L63.9038 156.927L115.865 186.927Z" fill="#8BC5E4"/>
<path fill-rule="evenodd" clip-rule="evenodd" d="M118.845 176.467L121.841 189.697L69.8795 159.697L66.8831 146.467L118.845 176.467Z" fill="#8BC5E4"/>
<path fill-rule="evenodd" clip-rule="evenodd" d="M122.161 189.732L128.449 164.672L76.4873 134.672L70.2 159.732L122.161 189.732Z" fill="#8BC5E4"/>
<path fill-rule="evenodd" clip-rule="evenodd" d="M128.449 164.672L129.038 180.032L77.0762 150.032L76.4873 134.672L128.449 164.672Z" fill="#8BC5E4"/>
<path fill-rule="evenodd" clip-rule="evenodd" d="M129.038 180.033L135.282 157.558L83.3202 127.558L77.0762 150.033L129.038 180.033Z" fill="#8BC5E4"/>
<path fill-rule="evenodd" clip-rule="evenodd" d="M135.282 157.558L141.708 178.148L89.7462 148.148L83.3203 127.558L135.282 157.558Z" fill="#8BC5E4"/>
<path fill-rule="evenodd" clip-rule="evenodd" d="M142.149 177.582L145.735 160.192L93.7731 130.192L90.1877 147.582L142.149 177.582Z" fill="#8BC5E4"/>
<path fill-rule="evenodd" clip-rule="evenodd" d="M145.735 160.192L148.922 157.842L96.9602 127.842L93.7732 130.192L145.735 160.192Z" fill="#8BC5E4"/>
<path fill-rule="evenodd" clip-rule="evenodd" d="M148.922 157.842L150.905 149.467L98.9434 119.467L96.9602 127.842L148.922 157.842Z" fill="#8BC5E4"/>
<path fill-rule="evenodd" clip-rule="evenodd" d="M149.484 145.038L146.843 156.223L94.8816 126.223L97.523 115.038L149.484 145.038Z" fill="#8BC5E4"/>
<path fill-rule="evenodd" clip-rule="evenodd" d="M146.843 156.223L143.578 158.628L91.6167 128.628L94.8816 126.223L146.843 156.223Z" fill="#8BC5E4"/>
<path fill-rule="evenodd" clip-rule="evenodd" d="M143.578 158.627L141.742 167.507L89.7808 137.507L91.6167 128.627L143.578 158.627Z" fill="#8BC5E4"/>
<path fill-rule="evenodd" clip-rule="evenodd" d="M141.742 167.508L135.576 147.728L83.6147 117.728L89.7808 137.508L141.742 167.508Z" fill="#8BC5E4"/>
<path fill-rule="evenodd" clip-rule="evenodd" d="M135.576 147.728L131.185 163.523L79.2239 133.523L83.6146 117.728L135.576 147.728Z" fill="#8BC5E4"/>
<path fill-rule="evenodd" clip-rule="evenodd" d="M131.186 163.523L130.536 146.558L78.5745 116.558L79.224 133.523L131.186 163.523Z" fill="#8BC5E4"/>
<path fill-rule="evenodd" clip-rule="evenodd" d="M130.536 146.558L78.5745 116.558L130.536 146.558Z" fill="#8BC5E4"/>
<path fill-rule="evenodd" clip-rule="evenodd" d="M86.4552 180.498L95.1501 175.478L43.1885 145.478L34.4937 150.498L86.4552 180.498Z" fill="#8BC5E4"/>
<path fill-rule="evenodd" clip-rule="evenodd" d="M95.9295 171.897L86.4552 177.367L34.4937 147.367L43.968 141.897L95.9295 171.897Z" fill="#8BC5E4"/>
<path fill-rule="evenodd" clip-rule="evenodd" d="M86.4552 177.368L34.4937 147.368L86.4552 177.368Z" fill="#8BC5E4"/>
<path fill-rule="evenodd" clip-rule="evenodd" d="M114.324 164.408L119.477 161.433L67.5152 131.433L62.3623 134.408L114.324 164.408Z" fill="#8BC5E4"/>
<path fill-rule="evenodd" clip-rule="evenodd" d="M119.477 161.432L119.875 160.042L67.9135 130.042L67.5151 131.432L119.477 161.432Z" fill="#8BC5E4"/>
<path fill-rule="evenodd" clip-rule="evenodd" d="M119.875 160.042L120.1 161.072L68.1387 131.072L67.9136 130.042L119.875 160.042Z" fill="#8BC5E4"/>
<path fill-rule="evenodd" clip-rule="evenodd" d="M120.1 161.072L126.613 157.312L74.6512 127.312L68.1387 131.072L120.1 161.072Z" fill="#8BC5E4"/>
<path fill-rule="evenodd" clip-rule="evenodd" d="M126.613 157.313L127.522 153.658L75.5607 123.658L74.6514 127.313L126.613 157.313Z" fill="#8BC5E4"/>
<path fill-rule="evenodd" clip-rule="evenodd" d="M127.522 153.658L115.995 160.313L64.0339 130.313L75.5607 123.658L127.522 153.658Z" fill="#8BC5E4"/>
<path fill-rule="evenodd" clip-rule="evenodd" d="M115.995 160.312L64.0339 130.312L115.995 160.312Z" fill="#8BC5E4"/>
<path fill-rule="evenodd" clip-rule="evenodd" d="M132.095 151.018L132.216 154.078L80.2545 124.078L80.1333 121.018L132.095 151.018Z" fill="#8BC5E4"/>
<path fill-rule="evenodd" clip-rule="evenodd" d="M132.216 154.077L132.658 153.822L80.6961 123.822L80.2544 124.077L132.216 154.077Z" fill="#8BC5E4"/>
<path fill-rule="evenodd" clip-rule="evenodd" d="M132.658 153.822L133.697 150.092L81.7353 120.092L80.696 123.822L132.658 153.822Z" fill="#8BC5E4"/>
<path fill-rule="evenodd" clip-rule="evenodd" d="M133.697 150.092L132.095 151.017L80.1333 121.017L81.7354 120.092L133.697 150.092Z" fill="#8BC5E4"/>
<path fill-rule="evenodd" clip-rule="evenodd" d="M132.095 151.018L80.1333 121.018L132.095 151.018Z" fill="#8BC5E4"/>
<path fill-rule="evenodd" clip-rule="evenodd" d="M137.334 147.993L138.166 150.643L86.2042 120.643L85.3728 117.993L137.334 147.993Z" fill="#8BC5E4"/>
<path fill-rule="evenodd" clip-rule="evenodd" d="M138.166 150.642L148.333 144.772L96.3712 114.772L86.2041 120.642L138.166 150.642Z" fill="#8BC5E4"/>
<path fill-rule="evenodd" clip-rule="evenodd" d="M148.333 144.772L148.618 143.587L96.6569 113.587L96.3711 114.772L148.333 144.772Z" fill="#8BC5E4"/>
<path fill-rule="evenodd" clip-rule="evenodd" d="M147.424 142.167L137.334 147.992L85.3728 117.992L95.462 112.167L147.424 142.167Z" fill="#8BC5E4"/>
<path fill-rule="evenodd" clip-rule="evenodd" d="M137.334 147.993L85.3728 117.993L137.334 147.993Z" fill="#8BC5E4"/>
<path fill-rule="evenodd" clip-rule="evenodd" d="M168.269 133.262L193.86 118.487L141.898 88.4873L116.307 103.262L168.269 133.262Z" fill="#8BC5E4"/>
<path fill-rule="evenodd" clip-rule="evenodd" d="M193.86 115.357L167.489 130.582L115.528 100.582L141.898 85.3574L193.86 115.357Z" fill="#8BC5E4"/>
<path fill-rule="evenodd" clip-rule="evenodd" d="M167.489 130.583L115.528 100.583L167.489 130.583Z" fill="#8BC5E4"/>
<path fill-rule="evenodd" clip-rule="evenodd" d="M86.4552 190.088L94.0762 185.688L42.1147 155.688L34.4937 160.087L86.4552 190.088Z" fill="#8BC5E4"/>
<path fill-rule="evenodd" clip-rule="evenodd" d="M94.2148 182.487L86.4552 186.967L34.4937 156.967L42.2532 152.487L94.2148 182.487Z" fill="#8BC5E4"/>
<path fill-rule="evenodd" clip-rule="evenodd" d="M86.4552 186.967L34.4937 156.967L86.4552 186.967Z" fill="#8BC5E4"/>
<path fill-rule="evenodd" clip-rule="evenodd" d="M112.22 175.212L116.195 172.917L64.2331 142.917L60.2581 145.212L112.22 175.212Z" fill="#8BC5E4"/>
<path fill-rule="evenodd" clip-rule="evenodd" d="M116.194 172.918L117.268 169.178L65.3068 139.178L64.2329 142.918L116.194 172.918Z" fill="#8BC5E4"/>
<path fill-rule="evenodd" clip-rule="evenodd" d="M117.268 169.178L112.479 171.943L60.5178 141.943L65.3069 139.178L117.268 169.178Z" fill="#8BC5E4"/>
<path fill-rule="evenodd" clip-rule="evenodd" d="M112.479 171.942L60.5178 141.942L112.479 171.942Z" fill="#8BC5E4"/>
<path fill-rule="evenodd" clip-rule="evenodd" d="M121.399 166.792L122.023 169.552L70.0613 139.552L69.4377 136.792L121.399 166.792Z" fill="#8BC5E4"/>
<path fill-rule="evenodd" clip-rule="evenodd" d="M122.023 169.552L123.798 168.527L71.8366 138.527L70.0613 139.552L122.023 169.552Z" fill="#8BC5E4"/>
<path fill-rule="evenodd" clip-rule="evenodd" d="M123.798 168.527L124.716 164.877L72.7547 134.877L71.8367 138.527L123.798 168.527Z" fill="#8BC5E4"/>
<path fill-rule="evenodd" clip-rule="evenodd" d="M124.716 164.877L121.399 166.792L69.4377 136.792L72.7546 134.877L124.716 164.877Z" fill="#8BC5E4"/>
<path fill-rule="evenodd" clip-rule="evenodd" d="M121.399 166.792L69.4377 136.792L121.399 166.792Z" fill="#8BC5E4"/>
<path fill-rule="evenodd" clip-rule="evenodd" d="M139.872 156.127L140.694 158.772L88.7329 128.772L87.9102 126.127L139.872 156.127Z" fill="#8BC5E4"/>
<path fill-rule="evenodd" clip-rule="evenodd" d="M140.694 158.773L143.197 157.328L91.2357 127.328L88.7329 128.773L140.694 158.773Z" fill="#8BC5E4"/>
<path fill-rule="evenodd" clip-rule="evenodd" d="M143.197 157.327L145.804 155.402L93.8423 125.402L91.2356 127.327L143.197 157.327Z" fill="#8BC5E4"/>
<path fill-rule="evenodd" clip-rule="evenodd" d="M145.804 155.402L146.549 152.272L94.5873 122.272L93.8425 125.402L145.804 155.402Z" fill="#8BC5E4"/>
<path fill-rule="evenodd" clip-rule="evenodd" d="M146.549 152.272L139.872 156.127L87.9102 126.127L94.5872 122.272L146.549 152.272Z" fill="#8BC5E4"/>
<path fill-rule="evenodd" clip-rule="evenodd" d="M139.872 156.127L87.9102 126.127L139.872 156.127Z" fill="#8BC5E4"/>
<path fill-rule="evenodd" clip-rule="evenodd" d="M169.342 142.233L193.86 128.078L141.898 98.0776L117.381 112.233L169.342 142.233Z" fill="#8BC5E4"/>
<path fill-rule="evenodd" clip-rule="evenodd" d="M193.86 124.958L169.204 139.193L117.242 109.193L141.898 94.9575L193.86 124.958Z" fill="#8BC5E4"/>
<path fill-rule="evenodd" clip-rule="evenodd" d="M169.204 139.192L117.242 109.192L169.204 139.192Z" fill="#8BC5E4"/>
<path fill-rule="evenodd" clip-rule="evenodd" d="M86.4552 199.687L94.8903 194.817L42.9287 164.817L34.4937 169.687L86.4552 199.687Z" fill="#8BC5E4"/>
<path fill-rule="evenodd" clip-rule="evenodd" d="M94.4139 191.962L86.4552 196.557L34.4937 166.557L42.4524 161.962L94.4139 191.962Z" fill="#8BC5E4"/>
<path fill-rule="evenodd" clip-rule="evenodd" d="M86.4552 196.558L34.4937 166.558L86.4552 196.558Z" fill="#8BC5E4"/>
<path fill-rule="evenodd" clip-rule="evenodd" d="M113.354 182.878L113.986 180.663L62.0245 150.663L61.3923 152.878L113.354 182.878Z" fill="#8BC5E4"/>
<path fill-rule="evenodd" clip-rule="evenodd" d="M113.986 180.663L112.86 181.313L60.8989 151.313L62.0248 150.663L113.986 180.663Z" fill="#8BC5E4"/>
<path fill-rule="evenodd" clip-rule="evenodd" d="M112.86 181.312L60.8989 151.312L112.86 181.312Z" fill="#8BC5E4"/>
<path fill-rule="evenodd" clip-rule="evenodd" d="M133.16 169.592L132.129 173.317L80.168 143.317L81.1985 139.592L133.16 169.592Z" fill="#8BC5E4"/>
<path fill-rule="evenodd" clip-rule="evenodd" d="M132.129 173.318L137.551 170.188L85.5893 140.188L80.168 143.318L132.129 173.318Z" fill="#8BC5E4"/>
<path fill-rule="evenodd" clip-rule="evenodd" d="M137.551 170.188L136.719 167.538L84.7578 137.538L85.5892 140.188L137.551 170.188Z" fill="#8BC5E4"/>
<path fill-rule="evenodd" clip-rule="evenodd" d="M136.719 167.538L133.16 169.593L81.1985 139.593L84.7579 137.538L136.719 167.538Z" fill="#8BC5E4"/>
<path fill-rule="evenodd" clip-rule="evenodd" d="M133.16 169.592L81.1985 139.592L133.16 169.592Z" fill="#8BC5E4"/>
<path fill-rule="evenodd" clip-rule="evenodd" d="M146.644 161.808L145.908 165.363L93.9463 135.363L94.6824 131.808L146.644 161.808Z" fill="#8BC5E4"/>
<path fill-rule="evenodd" clip-rule="evenodd" d="M145.908 165.362L149.632 163.212L97.6702 133.212L93.9463 135.362L145.908 165.362Z" fill="#8BC5E4"/>
<path fill-rule="evenodd" clip-rule="evenodd" d="M150.567 159.542L146.644 161.807L94.6824 131.807L98.6055 129.542L150.567 159.542Z" fill="#8BC5E4"/>
<path fill-rule="evenodd" clip-rule="evenodd" d="M146.644 161.808L94.6824 131.808L146.644 161.808Z" fill="#8BC5E4"/>
<path fill-rule="evenodd" clip-rule="evenodd" d="M168.537 152.298L193.86 137.678L141.898 107.678L116.576 122.298L168.537 152.298Z" fill="#8BC5E4"/>
<path fill-rule="evenodd" clip-rule="evenodd" d="M193.86 134.547L169.005 148.897L117.043 118.897L141.898 104.547L193.86 134.547Z" fill="#8BC5E4"/>
<path fill-rule="evenodd" clip-rule="evenodd" d="M169.005 148.897L117.043 118.897L169.005 148.897Z" fill="#8BC5E4"/>
<path fill-rule="evenodd" clip-rule="evenodd" d="M127.401 173.737L126.725 176.437L74.7639 146.437L75.4394 143.737L127.401 173.737Z" fill="#8BC5E4"/>
<path fill-rule="evenodd" clip-rule="evenodd" d="M126.725 176.438L127.488 175.998L75.526 145.998L74.7639 146.438L126.725 176.438Z" fill="#8BC5E4"/>
<path fill-rule="evenodd" clip-rule="evenodd" d="M127.488 175.997L127.401 173.737L75.4395 143.737L75.5261 145.997L127.488 175.997Z" fill="#8BC5E4"/>
<path fill-rule="evenodd" clip-rule="evenodd" d="M127.401 173.737L75.4395 143.737L127.401 173.737Z" fill="#8BC5E4"/>
<path fill-rule="evenodd" clip-rule="evenodd" d="M86.4552 209.278L97.7308 202.768L45.7693 172.768L34.4937 179.278L86.4552 209.278Z" fill="#8BC5E4"/>
<path fill-rule="evenodd" clip-rule="evenodd" d="M96.5617 200.322L86.4552 206.157L34.4937 176.157L44.6002 170.322L96.5617 200.322Z" fill="#8BC5E4"/>
<path fill-rule="evenodd" clip-rule="evenodd" d="M86.4552 206.158L34.4937 176.158L86.4552 206.158Z" fill="#8BC5E4"/>
<path fill-rule="evenodd" clip-rule="evenodd" d="M120.196 189.428L119.65 186.993L67.6885 156.993L68.2341 159.428L120.196 189.428Z" fill="#8BC5E4"/>
<path fill-rule="evenodd" clip-rule="evenodd" d="M119.65 186.993L117.476 188.248L65.5146 158.248L67.6884 156.993L119.65 186.993Z" fill="#8BC5E4"/>
<path fill-rule="evenodd" clip-rule="evenodd" d="M117.476 188.248L65.5146 158.248L117.476 188.248Z" fill="#8BC5E4"/>
<path fill-rule="evenodd" clip-rule="evenodd" d="M124.829 184.002L123.911 187.652L71.9492 157.652L72.8672 154.002L124.829 184.002Z" fill="#8BC5E4"/>
<path fill-rule="evenodd" clip-rule="evenodd" d="M123.911 187.652L127.851 185.377L75.8896 155.377L71.9492 157.652L123.911 187.652Z" fill="#8BC5E4"/>
<path fill-rule="evenodd" clip-rule="evenodd" d="M127.851 185.378L127.73 182.328L75.7686 152.328L75.8898 155.378L127.851 185.378Z" fill="#8BC5E4"/>
<path fill-rule="evenodd" clip-rule="evenodd" d="M127.73 182.328L124.829 184.003L72.8672 154.003L75.7684 152.328L127.73 182.328Z" fill="#8BC5E4"/>
<path fill-rule="evenodd" clip-rule="evenodd" d="M124.829 184.002L72.8672 154.002L124.829 184.002Z" fill="#8BC5E4"/>
<path fill-rule="evenodd" clip-rule="evenodd" d="M129.982 181.027L128.951 184.742L76.9895 154.742L78.0201 151.027L129.982 181.027Z" fill="#8BC5E4"/>
<path fill-rule="evenodd" clip-rule="evenodd" d="M128.951 184.743L140.088 178.312L88.1266 148.312L76.9895 154.743L128.951 184.743Z" fill="#8BC5E4"/>
<path fill-rule="evenodd" clip-rule="evenodd" d="M140.088 178.312L139.257 175.672L87.2952 145.672L88.1265 148.312L140.088 178.312Z" fill="#8BC5E4"/>
<path fill-rule="evenodd" clip-rule="evenodd" d="M139.257 175.672L129.982 181.027L78.02 151.027L87.2952 145.672L139.257 175.672Z" fill="#8BC5E4"/>
<path fill-rule="evenodd" clip-rule="evenodd" d="M129.982 181.027L78.02 151.027L129.982 181.027Z" fill="#8BC5E4"/>
<path fill-rule="evenodd" clip-rule="evenodd" d="M144.401 172.703L143.89 175.168L91.9285 145.168L92.4394 142.703L144.401 172.703Z" fill="#8BC5E4"/>
<path fill-rule="evenodd" clip-rule="evenodd" d="M145.943 171.812L144.401 172.702L92.4395 142.702L93.981 141.812L145.943 171.812Z" fill="#8BC5E4"/>
<path fill-rule="evenodd" clip-rule="evenodd" d="M144.401 172.703L92.4395 142.703L144.401 172.703Z" fill="#8BC5E4"/>
<path fill-rule="evenodd" clip-rule="evenodd" d="M165.688 163.533L193.86 147.268L141.898 117.268L113.726 133.533L165.688 163.533Z" fill="#8BC5E4"/>
<path fill-rule="evenodd" clip-rule="evenodd" d="M193.86 144.147L166.866 159.732L114.904 129.732L141.898 114.147L193.86 144.147Z" fill="#8BC5E4"/>
<path fill-rule="evenodd" clip-rule="evenodd" d="M166.866 159.732L114.904 129.732L166.866 159.732Z" fill="#8BC5E4"/>
<path fill-rule="evenodd" clip-rule="evenodd" d="M102.953 202.033L76.7904 247.218L24.8289 217.218L50.9915 172.033L102.953 202.033Z" fill="#8BC5E4"/>
<path fill-rule="evenodd" clip-rule="evenodd" d="M76.7904 256.067L79.8128 257.792L27.8513 227.792L24.8289 226.067L76.7904 256.067Z" fill="#8BC5E4"/>
<path fill-rule="evenodd" clip-rule="evenodd" d="M87.5118 253.347L113.692 208.132L61.7302 178.132L35.5503 223.347L87.5118 253.347Z" fill="#8BC5E4"/>
<path fill-rule="evenodd" clip-rule="evenodd" d="M131.714 125.527L79.7522 95.5273L131.714 125.527Z" fill="#8BC5E4"/>
<path fill-rule="evenodd" clip-rule="evenodd" d="M131.714 138.038L79.7522 108.038L131.714 138.038Z" fill="#8BC5E4"/>
<path fill-rule="evenodd" clip-rule="evenodd" d="M62.5875 124.697L214.54 36.9673L162.579 6.96729L10.626 94.6973L62.5875 124.697Z" fill="#8BC5E4"/>
<path fill-rule="evenodd" clip-rule="evenodd" d="M220.369 40.2925V215.862L168.407 185.862V10.2925L220.369 40.2925Z" fill="#8BC5E4"/>
<path fill-rule="evenodd" clip-rule="evenodd" d="M214.54 225.928L62.5875 313.658L10.626 283.658L162.579 195.928L214.54 225.928Z" fill="#8BC5E4"/>
<path fill-rule="evenodd" clip-rule="evenodd" d="M56.7591 310.322V134.752L4.79761 104.752V280.322L56.7591 310.322Z" fill="#8BC5E4"/>
<path fill-rule="evenodd" clip-rule="evenodd" d="M62.5875 124.697L10.626 94.6973L62.5875 124.697Z" fill="#8BC5E4"/>
<path fill-rule="evenodd" clip-rule="evenodd" d="M51.9615 137.522V313.092L0 283.092V107.522L51.9615 137.522Z" fill="#8BC5E4"/>
<path fill-rule="evenodd" clip-rule="evenodd" d="M62.5875 319.177L214.54 231.447L162.579 201.447L10.626 289.177L62.5875 319.177Z" fill="#8BC5E4"/>
<path fill-rule="evenodd" clip-rule="evenodd" d="M225.167 213.092V37.5225L173.205 7.52246V183.092L225.167 213.092Z" fill="#8BC5E4"/>
<path fill-rule="evenodd" clip-rule="evenodd" d="M214.54 31.4473L62.5875 119.177L10.626 89.1773L162.579 1.44727L214.54 31.4473Z" fill="#8BC5E4"/>
<path fill-rule="evenodd" clip-rule="evenodd" d="M62.5875 119.178L10.626 89.1777L62.5875 119.178Z" fill="#8BC5E4"/>
<path fill-rule="evenodd" clip-rule="evenodd" d="M86.4552 158.178C85.9703 158.458 85.5199 159.018 85.2774 159.638L33.3159 129.638C33.5584 129.018 34.0087 128.458 34.4937 128.178L86.4552 158.178Z" fill="#8BC5E4"/>
<path fill-rule="evenodd" clip-rule="evenodd" d="M85.2774 159.638C85.0349 160.268 85.0349 160.858 85.2774 161.208L33.3159 131.208C33.0734 130.858 33.0734 130.268 33.3159 129.638L85.2774 159.638Z" fill="#8BC5E4"/>
<path fill-rule="evenodd" clip-rule="evenodd" d="M85.2774 161.208C85.3356 161.289 85.4058 161.353 85.4856 161.4L33.524 131.4C33.4443 131.353 33.3741 131.289 33.3159 131.208L85.2774 161.208Z" fill="#8BC5E4"/>
<path fill-rule="evenodd" clip-rule="evenodd" d="M85.4855 161.4C85.738 161.548 86.0866 161.52 86.4551 161.308L34.4936 131.308C34.125 131.52 33.7765 131.548 33.5239 131.4L85.4855 161.4Z" fill="#8BC5E4"/>
<path fill-rule="evenodd" clip-rule="evenodd" d="M104.217 151.053C105.101 149.443 106.045 147.858 107.023 146.303L55.0618 116.303C54.0832 117.858 53.1392 119.443 52.2559 121.053L104.217 151.053Z" fill="#8BC5E4"/>
<path fill-rule="evenodd" clip-rule="evenodd" d="M156.395 117.797C157.067 118.083 157.714 118.406 158.34 118.767L106.379 88.7667C105.752 88.4056 105.105 88.083 104.434 87.7974L156.395 117.797Z" fill="#8BC5E4"/>
<path fill-rule="evenodd" clip-rule="evenodd" d="M158.34 118.767C158.635 118.937 158.925 119.116 159.21 119.303L107.249 89.3027C106.963 89.1155 106.673 88.937 106.379 88.7671L158.34 118.767Z" fill="#8BC5E4"/>
<path fill-rule="evenodd" clip-rule="evenodd" d="M193.86 99.2974C194.345 99.0174 194.795 98.4574 195.038 97.8374L143.076 67.8374C142.834 68.4574 142.383 69.0174 141.898 69.2974L193.86 99.2974Z" fill="#8BC5E4"/>
<path fill-rule="evenodd" clip-rule="evenodd" d="M195.037 97.8376C195.28 97.2076 195.28 96.6176 195.037 96.2676L143.076 66.2676C143.318 66.6176 143.318 67.2076 143.076 67.8376L195.037 97.8376Z" fill="#8BC5E4"/>
<path fill-rule="evenodd" clip-rule="evenodd" d="M195.038 96.2674C194.979 96.1858 194.909 96.1215 194.829 96.0747L142.868 66.0747C142.948 66.1215 143.018 66.1858 143.076 66.2674L195.038 96.2674Z" fill="#8BC5E4"/>
<path fill-rule="evenodd" clip-rule="evenodd" d="M194.829 96.0747C194.577 95.9266 194.228 95.9546 193.86 96.1674L141.898 66.1674C142.267 65.9546 142.615 65.9266 142.868 66.0747L194.829 96.0747Z" fill="#8BC5E4"/>
<path fill-rule="evenodd" clip-rule="evenodd" d="M86.4552 167.777C85.7104 168.207 85.0956 169.262 85.0956 170.122L33.134 140.122C33.134 139.262 33.7489 138.207 34.4937 137.777L86.4552 167.777Z" fill="#8BC5E4"/>
<path fill-rule="evenodd" clip-rule="evenodd" d="M85.0956 170.123C85.0956 170.535 85.2372 170.83 85.4669 170.976L33.5054 140.976C33.2757 140.83 33.134 140.535 33.134 140.123L85.0956 170.123Z" fill="#8BC5E4"/>
<path fill-rule="evenodd" clip-rule="evenodd" d="M85.4669 170.976C85.7157 171.135 86.0679 171.121 86.4552 170.897L34.4937 140.897C34.1064 141.121 33.7542 141.135 33.5054 140.976L85.4669 170.976Z" fill="#8BC5E4"/>
<path fill-rule="evenodd" clip-rule="evenodd" d="M98.3023 164.058C98.7873 162.708 99.3156 161.363 99.8699 160.033L47.9083 130.033C47.3541 131.363 46.8258 132.708 46.3408 134.058L98.3023 164.058Z" fill="#8BC5E4"/>
<path fill-rule="evenodd" clip-rule="evenodd" d="M163.557 123.263C164.112 123.953 164.631 124.693 165.116 125.483L113.155 95.4827C112.67 94.6927 112.15 93.9527 111.596 93.2627L163.557 123.263Z" fill="#8BC5E4"/>
<path fill-rule="evenodd" clip-rule="evenodd" d="M193.86 108.887C194.604 108.457 195.219 107.402 195.219 106.542L143.258 76.5425C143.258 77.4025 142.643 78.4575 141.898 78.8875L193.86 108.887Z" fill="#8BC5E4"/>
<path fill-rule="evenodd" clip-rule="evenodd" d="M195.219 106.543C195.219 106.13 195.078 105.836 194.848 105.689L142.886 75.689C143.116 75.8357 143.258 76.1298 143.258 76.5426L195.219 106.543Z" fill="#8BC5E4"/>
<path fill-rule="evenodd" clip-rule="evenodd" d="M194.848 105.689C194.599 105.53 194.247 105.544 193.86 105.767L141.898 75.7674C142.285 75.5438 142.638 75.5298 142.886 75.6888L194.848 105.689Z" fill="#8BC5E4"/>
<path fill-rule="evenodd" clip-rule="evenodd" d="M140.868 139.482C138.157 139.417 135.056 140.277 131.757 142.172L79.7954 112.172C83.095 110.277 86.1953 109.417 88.906 109.482L140.868 139.482Z" fill="#8BC5E4"/>
<path fill-rule="evenodd" clip-rule="evenodd" d="M130.155 143.167C127.418 144.997 124.846 147.352 122.56 150.052L70.5984 120.052C72.8847 117.352 75.4568 114.997 78.1934 113.167L130.155 143.167Z" fill="#8BC5E4"/>
<path fill-rule="evenodd" clip-rule="evenodd" d="M114.108 184.533C114.601 185.448 115.199 186.243 115.866 186.928L63.904 156.928C63.2372 156.243 62.6396 155.448 62.146 154.533L114.108 184.533Z" fill="#8BC5E4"/>
<path fill-rule="evenodd" clip-rule="evenodd" d="M121.841 189.697C121.945 189.717 122.057 189.722 122.161 189.732L70.1998 159.732C70.0959 159.722 69.9833 159.717 69.8794 159.697L121.841 189.697Z" fill="#8BC5E4"/>
<path fill-rule="evenodd" clip-rule="evenodd" d="M141.708 178.148C141.864 177.958 142.002 177.778 142.149 177.583L90.1878 147.583C90.0405 147.778 89.902 147.958 89.7461 148.148L141.708 178.148Z" fill="#8BC5E4"/>
<path fill-rule="evenodd" clip-rule="evenodd" d="M150.905 149.468C150.619 147.793 150.134 146.313 149.484 145.038L97.5229 115.038C98.1725 116.313 98.6574 117.793 98.9432 119.468L150.905 149.468Z" fill="#8BC5E4"/>
<path fill-rule="evenodd" clip-rule="evenodd" d="M86.4552 177.368C85.9703 177.648 85.5199 178.208 85.2774 178.828L33.3159 148.828C33.5584 148.208 34.0087 147.648 34.4937 147.368L86.4552 177.368Z" fill="#8BC5E4"/>
<path fill-rule="evenodd" clip-rule="evenodd" d="M85.2774 178.828C85.0349 179.458 85.0349 180.048 85.2774 180.398L33.3159 150.398C33.0734 150.048 33.0734 149.458 33.3159 148.828L85.2774 178.828Z" fill="#8BC5E4"/>
<path fill-rule="evenodd" clip-rule="evenodd" d="M85.2774 180.397C85.3356 180.479 85.4058 180.543 85.4856 180.59L33.524 150.59C33.4443 150.543 33.3741 150.479 33.3159 150.397L85.2774 180.397Z" fill="#8BC5E4"/>
<path fill-rule="evenodd" clip-rule="evenodd" d="M85.4855 180.59C85.738 180.738 86.0866 180.71 86.4551 180.498L34.4936 150.498C34.125 150.71 33.7765 150.738 33.5239 150.59L85.4855 180.59Z" fill="#8BC5E4"/>
<path fill-rule="evenodd" clip-rule="evenodd" d="M95.15 175.477C95.3838 174.282 95.635 173.097 95.9294 171.897L43.9679 141.897C43.6735 143.097 43.4223 144.282 43.1885 145.477L95.15 175.477Z" fill="#8BC5E4"/>
<path fill-rule="evenodd" clip-rule="evenodd" d="M115.995 160.312C115.372 161.653 114.809 163.027 114.324 164.407L62.3623 134.407C62.8473 133.027 63.4102 131.653 64.0337 130.312L115.995 160.312Z" fill="#8BC5E4"/>
<path fill-rule="evenodd" clip-rule="evenodd" d="M148.619 143.587C148.255 143.067 147.856 142.587 147.423 142.167L95.4619 112.167C95.8949 112.587 96.2933 113.067 96.657 113.587L148.619 143.587Z" fill="#8BC5E4"/>
<path fill-rule="evenodd" clip-rule="evenodd" d="M167.489 130.583C167.784 131.443 168.043 132.333 168.269 133.263L116.307 103.263C116.082 102.333 115.822 101.443 115.528 100.583L167.489 130.583Z" fill="#8BC5E4"/>
<path fill-rule="evenodd" clip-rule="evenodd" d="M193.86 118.487C194.345 118.207 194.795 117.647 195.038 117.027L143.076 87.0273C142.834 87.6473 142.383 88.2073 141.898 88.4873L193.86 118.487Z" fill="#8BC5E4"/>
<path fill-rule="evenodd" clip-rule="evenodd" d="M195.037 117.028C195.28 116.398 195.28 115.808 195.037 115.458L143.076 85.4575C143.318 85.8075 143.318 86.3975 143.076 87.0275L195.037 117.028Z" fill="#8BC5E4"/>
<path fill-rule="evenodd" clip-rule="evenodd" d="M195.038 115.457C194.979 115.376 194.909 115.311 194.829 115.265L142.868 85.2646C142.948 85.3114 143.018 85.3757 143.076 85.4573L195.038 115.457Z" fill="#8BC5E4"/>
<path fill-rule="evenodd" clip-rule="evenodd" d="M194.829 115.265C194.577 115.117 194.228 115.145 193.86 115.357L141.898 85.3573C142.267 85.1445 142.615 85.1166 142.868 85.2647L194.829 115.265Z" fill="#8BC5E4"/>
<path fill-rule="evenodd" clip-rule="evenodd" d="M86.4553 186.967C85.9617 187.222 85.4854 187.797 85.2342 188.432L33.2727 158.432C33.5239 157.797 34.0002 157.222 34.4938 156.967L86.4553 186.967Z" fill="#8BC5E4"/>
<path fill-rule="evenodd" clip-rule="evenodd" d="M85.234 188.433C84.9742 189.073 84.9742 189.693 85.234 190.033L33.2725 160.033C33.0127 159.693 33.0127 159.073 33.2725 158.433L85.234 188.433Z" fill="#8BC5E4"/>
<path fill-rule="evenodd" clip-rule="evenodd" d="M85.2342 190.033C85.2845 190.102 85.3437 190.158 85.4103 190.201L33.4488 160.201C33.3822 160.158 33.3229 160.102 33.2727 160.033L85.2342 190.033Z" fill="#8BC5E4"/>
<path fill-rule="evenodd" clip-rule="evenodd" d="M85.4103 190.201C85.6766 190.374 86.0604 190.339 86.4553 190.087L34.4938 160.087C34.0989 160.339 33.7151 160.374 33.4487 160.201L85.4103 190.201Z" fill="#8BC5E4"/>
<path fill-rule="evenodd" clip-rule="evenodd" d="M94.0763 185.687C94.0936 184.627 94.1369 183.562 94.2148 182.487L42.2533 152.487C42.1754 153.562 42.1321 154.627 42.1147 155.687L94.0763 185.687Z" fill="#8BC5E4"/>
<path fill-rule="evenodd" clip-rule="evenodd" d="M112.479 171.942C112.332 173.047 112.246 174.137 112.22 175.212L60.2581 145.212C60.284 144.137 60.3706 143.047 60.5179 141.942L112.479 171.942Z" fill="#8BC5E4"/>
<path fill-rule="evenodd" clip-rule="evenodd" d="M169.204 139.192C169.282 140.177 169.334 141.187 169.343 142.232L117.381 112.232C117.372 111.187 117.32 110.177 117.242 109.192L169.204 139.192Z" fill="#8BC5E4"/>
<path fill-rule="evenodd" clip-rule="evenodd" d="M193.86 128.077C194.353 127.822 194.83 127.247 195.081 126.612L143.119 96.6123C142.868 97.2473 142.392 97.8223 141.898 98.0773L193.86 128.077Z" fill="#8BC5E4"/>
<path fill-rule="evenodd" clip-rule="evenodd" d="M195.081 126.613C195.34 125.973 195.34 125.353 195.081 125.013L143.119 95.0127C143.379 95.3527 143.379 95.9727 143.119 96.6127L195.081 126.613Z" fill="#8BC5E4"/>
<path fill-rule="evenodd" clip-rule="evenodd" d="M195.081 125.013C195.03 124.944 194.971 124.887 194.905 124.844L142.943 94.8442C143.01 94.8875 143.069 94.9437 143.119 95.0127L195.081 125.013Z" fill="#8BC5E4"/>
<path fill-rule="evenodd" clip-rule="evenodd" d="M194.905 124.844C194.638 124.671 194.255 124.706 193.86 124.958L141.898 94.9577C142.293 94.7057 142.677 94.6713 142.943 94.8443L194.905 124.844Z" fill="#8BC5E4"/>
<path fill-rule="evenodd" clip-rule="evenodd" d="M86.4552 196.558C85.7104 196.988 85.0956 198.043 85.0956 198.913L33.134 168.913C33.134 168.043 33.7489 166.988 34.4937 166.558L86.4552 196.558Z" fill="#8BC5E4"/>
<path fill-rule="evenodd" clip-rule="evenodd" d="M85.0956 198.913C85.0956 199.325 85.2372 199.62 85.4669 199.766L33.5054 169.766C33.2757 169.62 33.134 169.325 33.134 168.913L85.0956 198.913Z" fill="#8BC5E4"/>
<path fill-rule="evenodd" clip-rule="evenodd" d="M85.4669 199.766C85.7157 199.925 86.0679 199.911 86.4552 199.688L34.4937 169.688C34.1064 169.911 33.7542 169.925 33.5054 169.766L85.4669 199.766Z" fill="#8BC5E4"/>
<path fill-rule="evenodd" clip-rule="evenodd" d="M94.8902 194.817C94.6997 193.897 94.5438 192.947 94.4139 191.962L42.4524 161.962C42.5823 162.947 42.7382 163.897 42.9287 164.817L94.8902 194.817Z" fill="#8BC5E4"/>
<path fill-rule="evenodd" clip-rule="evenodd" d="M112.86 181.312C112.999 181.862 113.164 182.387 113.354 182.877L61.3926 152.877C61.202 152.387 61.0375 151.863 60.8989 151.312L112.86 181.312Z" fill="#8BC5E4"/>
<path fill-rule="evenodd" clip-rule="evenodd" d="M149.632 163.212C150.004 161.997 150.316 160.767 150.567 159.542L98.6055 129.542C98.3543 130.767 98.0426 131.997 97.6702 133.212L149.632 163.212Z" fill="#8BC5E4"/>
<path fill-rule="evenodd" clip-rule="evenodd" d="M169.005 148.897C168.884 150.027 168.728 151.157 168.537 152.297L116.576 122.297C116.766 121.157 116.922 120.027 117.043 118.897L169.005 148.897Z" fill="#8BC5E4"/>
<path fill-rule="evenodd" clip-rule="evenodd" d="M193.86 137.678C194.604 137.248 195.219 136.193 195.219 135.333L143.258 105.333C143.258 106.193 142.643 107.248 141.898 107.678L193.86 137.678Z" fill="#8BC5E4"/>
<path fill-rule="evenodd" clip-rule="evenodd" d="M195.219 135.332C195.219 134.915 195.078 134.618 194.848 134.47L142.886 104.47C143.116 104.618 143.258 104.915 143.258 105.332L195.219 135.332Z" fill="#8BC5E4"/>
<path fill-rule="evenodd" clip-rule="evenodd" d="M194.848 134.47C194.599 134.31 194.247 134.324 193.86 134.547L141.898 104.547C142.285 104.324 142.638 104.31 142.886 104.47L194.848 134.47Z" fill="#8BC5E4"/>
<path fill-rule="evenodd" clip-rule="evenodd" d="M86.4553 206.158C85.9617 206.413 85.4854 206.988 85.2342 207.623L33.2727 177.623C33.5239 176.988 34.0002 176.413 34.4938 176.158L86.4553 206.158Z" fill="#8BC5E4"/>
<path fill-rule="evenodd" clip-rule="evenodd" d="M85.234 207.623C84.9742 208.263 84.9742 208.883 85.234 209.223L33.2725 179.223C33.0127 178.883 33.0127 178.263 33.2725 177.623L85.234 207.623Z" fill="#8BC5E4"/>
<path fill-rule="evenodd" clip-rule="evenodd" d="M85.2342 209.223C85.2845 209.292 85.3437 209.348 85.4103 209.391L33.4488 179.391C33.3822 179.348 33.3229 179.292 33.2727 179.223L85.2342 209.223Z" fill="#8BC5E4"/>
<path fill-rule="evenodd" clip-rule="evenodd" d="M85.4103 209.391C85.6766 209.564 86.0604 209.529 86.4553 209.277L34.4938 179.277C34.0989 179.529 33.7151 179.564 33.4487 179.391L85.4103 209.391Z" fill="#8BC5E4"/>
<path fill-rule="evenodd" clip-rule="evenodd" d="M97.7308 202.767C97.3064 201.992 96.9167 201.177 96.5616 200.322L44.6001 170.322C44.9552 171.177 45.3449 171.992 45.7692 172.767L97.7308 202.767Z" fill="#8BC5E4"/>
<path fill-rule="evenodd" clip-rule="evenodd" d="M117.476 188.248C117.576 188.311 117.677 188.373 117.779 188.433L65.8173 158.433C65.7153 158.373 65.6144 158.311 65.5146 158.248L117.476 188.248Z" fill="#8BC5E4"/>
<path fill-rule="evenodd" clip-rule="evenodd" d="M117.779 188.433C118.527 188.87 119.334 189.203 120.196 189.428L68.2341 159.428C67.3729 159.203 66.5654 158.87 65.8174 158.433L117.779 188.433Z" fill="#8BC5E4"/>
<path fill-rule="evenodd" clip-rule="evenodd" d="M143.89 175.167C144.617 174.077 145.31 172.958 145.942 171.812L93.9809 141.812C93.3487 142.957 92.6559 144.077 91.9285 145.167L143.89 175.167Z" fill="#8BC5E4"/>
<path fill-rule="evenodd" clip-rule="evenodd" d="M166.866 159.732C166.502 161.002 166.112 162.267 165.688 163.532L113.726 133.532C114.151 132.267 114.54 131.002 114.904 129.732L166.866 159.732Z" fill="#8BC5E4"/>
<path fill-rule="evenodd" clip-rule="evenodd" d="M193.86 147.268C194.353 147.013 194.83 146.438 195.081 145.803L143.119 115.803C142.868 116.438 142.392 117.013 141.898 117.268L193.86 147.268Z" fill="#8BC5E4"/>
<path fill-rule="evenodd" clip-rule="evenodd" d="M195.081 145.803C195.34 145.163 195.34 144.543 195.081 144.203L143.119 114.203C143.379 114.543 143.379 115.163 143.119 115.803L195.081 145.803Z" fill="#8BC5E4"/>
<path fill-rule="evenodd" clip-rule="evenodd" d="M195.081 144.203C195.03 144.134 194.971 144.077 194.905 144.034L142.943 114.034C143.01 114.077 143.069 114.134 143.119 114.203L195.081 144.203Z" fill="#8BC5E4"/>
<path fill-rule="evenodd" clip-rule="evenodd" d="M194.905 144.034C194.638 143.861 194.255 143.896 193.86 144.148L141.898 114.148C142.293 113.896 142.677 113.861 142.943 114.034L194.905 144.034Z" fill="#8BC5E4"/>
<path fill-rule="evenodd" clip-rule="evenodd" d="M131.714 125.527C112.99 136.337 97.6961 162.737 97.6961 184.257L45.7346 154.257C45.7346 132.737 61.0286 106.337 79.7521 95.5273L131.714 125.527Z" fill="#8BC5E4"/>
<path fill-rule="evenodd" clip-rule="evenodd" d="M97.6961 184.257C97.6961 191.897 99.6274 197.922 102.953 202.032L50.9914 172.032C47.6659 167.922 45.7346 161.897 45.7346 154.257L97.6961 184.257Z" fill="#8BC5E4"/>
<path fill-rule="evenodd" clip-rule="evenodd" d="M76.7903 247.217C74.6599 250.897 74.6599 254.847 76.7903 256.067L24.8288 226.067C22.6984 224.847 22.6984 220.897 24.8288 217.217L76.7903 247.217Z" fill="#8BC5E4"/>
<path fill-rule="evenodd" clip-rule="evenodd" d="M79.8128 257.793C81.9433 259.013 85.3814 257.018 87.5118 253.348L35.5503 223.348C33.4199 227.018 29.9817 229.013 27.8513 227.793L79.8128 257.793Z" fill="#8BC5E4"/>
<path fill-rule="evenodd" clip-rule="evenodd" d="M113.692 208.133C118.923 208.903 125.106 207.523 131.714 203.708L79.7522 173.708C73.1444 177.523 66.961 178.903 61.7302 178.133L113.692 208.133Z" fill="#8BC5E4"/>
<path fill-rule="evenodd" clip-rule="evenodd" d="M131.714 203.707C150.429 192.902 165.723 166.492 165.723 144.982L113.761 114.982C113.761 136.492 98.467 162.902 79.7522 173.707L131.714 203.707Z" fill="#8BC5E4"/>
<path fill-rule="evenodd" clip-rule="evenodd" d="M165.723 144.982C165.723 134.653 162.199 127.268 156.464 123.575L104.503 93.5752C110.237 97.2676 113.761 104.653 113.761 114.982L165.723 144.982Z" fill="#8BC5E4"/>
<path fill-rule="evenodd" clip-rule="evenodd" d="M156.464 123.575C150.252 119.575 141.445 119.909 131.714 125.527L79.7522 95.5273C89.4839 89.9087 98.2906 89.575 104.503 93.5752L156.464 123.575Z" fill="#8BC5E4"/>
<path fill-rule="evenodd" clip-rule="evenodd" d="M131.714 138.037C137.874 134.481 143.448 133.986 147.579 136.065L95.6178 106.065C91.4867 103.986 85.9128 104.481 79.7522 108.037L131.714 138.037Z" fill="#8BC5E4"/>
<path fill-rule="evenodd" clip-rule="evenodd" d="M147.579 136.065C152.055 138.318 154.837 143.592 154.837 151.267L102.875 121.267C102.875 113.592 100.093 108.318 95.6177 106.065L147.579 136.065Z" fill="#8BC5E4"/>
<path fill-rule="evenodd" clip-rule="evenodd" d="M154.837 151.268C154.837 166.018 144.548 183.788 131.714 191.198L79.7522 161.198C92.5867 153.788 102.875 136.018 102.875 121.268L154.837 151.268Z" fill="#8BC5E4"/>
<path fill-rule="evenodd" clip-rule="evenodd" d="M131.714 191.197C125.549 194.756 119.973 195.25 115.841 193.17L63.8792 163.17C68.0114 165.25 73.5874 164.756 79.7522 161.197L131.714 191.197Z" fill="#8BC5E4"/>
<path fill-rule="evenodd" clip-rule="evenodd" d="M115.841 193.17C111.364 190.917 108.582 185.643 108.582 177.973L56.6206 147.973C56.6206 155.643 59.4026 160.917 63.8791 163.17L115.841 193.17Z" fill="#8BC5E4"/>
<path fill-rule="evenodd" clip-rule="evenodd" d="M108.582 177.973C108.582 163.213 118.871 145.453 131.714 138.038L79.7521 108.038C66.909 115.453 56.6206 133.213 56.6206 147.973L108.582 177.973Z" fill="#8BC5E4"/>
<path fill-rule="evenodd" clip-rule="evenodd" d="M214.54 36.9677C216.112 36.0605 217.517 35.924 218.554 36.4431L166.593 6.44311C165.556 5.92395 164.15 6.06047 162.579 6.96767L214.54 36.9677Z" fill="#8BC5E4"/>
<path fill-rule="evenodd" clip-rule="evenodd" d="M218.554 36.4429C219.678 37.0053 220.369 38.3372 220.369 40.2924L168.407 10.2924C168.407 8.33722 167.716 7.00529 166.593 6.44287L218.554 36.4429Z" fill="#8BC5E4"/>
<path fill-rule="evenodd" clip-rule="evenodd" d="M220.369 215.862C220.369 219.622 217.814 224.037 214.54 225.927L162.579 195.927C165.852 194.037 168.407 189.622 168.407 185.862L220.369 215.862Z" fill="#8BC5E4"/>
<path fill-rule="evenodd" clip-rule="evenodd" d="M62.5877 313.658C61.0163 314.565 59.6106 314.699 58.5736 314.178L6.61206 284.178C7.64911 284.699 9.05481 284.565 10.6261 283.658L62.5877 313.658Z" fill="#8BC5E4"/>
<path fill-rule="evenodd" clip-rule="evenodd" d="M58.5734 314.177C57.4499 313.612 56.7591 312.277 56.7591 310.322L4.79761 280.322C4.79761 282.277 5.48842 283.612 6.61189 284.177L58.5734 314.177Z" fill="#8BC5E4"/>
<path fill-rule="evenodd" clip-rule="evenodd" d="M56.7591 134.752C56.7591 130.992 59.3139 126.587 62.5875 124.697L10.626 94.6973C7.35238 96.5873 4.79761 100.992 4.79761 104.752L56.7591 134.752Z" fill="#8BC5E4"/>
<path fill-rule="evenodd" clip-rule="evenodd" d="M62.5877 119.178C56.742 122.553 51.9615 130.803 51.9615 137.523L0 107.523C0 100.803 4.78046 92.5527 10.6261 89.1777L62.5877 119.178Z" fill="#8BC5E4"/>
<path fill-rule="evenodd" clip-rule="evenodd" d="M51.9615 313.092C51.9615 316.318 53.0629 318.626 54.8549 319.782L2.89338 289.782C1.10142 288.626 0 286.318 0 283.092L51.9615 313.092Z" fill="#8BC5E4"/>
<path fill-rule="evenodd" clip-rule="evenodd" d="M54.8548 319.782C56.7961 321.034 59.5478 320.933 62.5876 319.178L10.6261 289.178C7.58632 290.933 4.8346 291.034 2.89331 289.782L54.8548 319.782Z" fill="#8BC5E4"/>
<path fill-rule="evenodd" clip-rule="evenodd" d="M214.54 231.447C220.386 228.072 225.167 219.812 225.167 213.092L173.205 183.092C173.205 189.812 168.425 198.072 162.579 201.447L214.54 231.447Z" fill="#8BC5E4"/>
<path fill-rule="evenodd" clip-rule="evenodd" d="M225.166 37.5224C225.166 34.2968 224.065 31.9905 222.273 30.8374L170.312 0.837402C172.103 1.99051 173.205 4.29681 173.205 7.52241L225.166 37.5224Z" fill="#8BC5E4"/>
<path fill-rule="evenodd" clip-rule="evenodd" d="M222.273 30.8376C220.332 29.5884 217.58 29.6926 214.54 31.4476L162.579 1.44756C165.619 -0.307439 168.37 -0.411647 170.312 0.83755L222.273 30.8376Z" fill="#8BC5E4"/>
<path d="M86.4552 158.178C85.9702 158.458 85.5199 159.018 85.2774 159.638C85.0349 160.268 85.0349 160.858 85.2774 161.208C85.5199 161.548 85.9702 161.588 86.4552 161.308L104.217 151.053C105.101 149.443 106.045 147.858 107.023 146.303L86.4552 158.178ZM156.395 117.798C157.383 118.218 158.318 118.718 159.21 119.303L193.86 99.2976C194.345 99.0176 194.795 98.4576 195.037 97.8376C195.28 97.2076 195.28 96.6176 195.037 96.2676C194.795 95.9276 194.345 95.8876 193.86 96.1676L156.395 117.798ZM86.4552 167.778C85.7104 168.208 85.0956 169.263 85.0956 170.123C85.0956 170.983 85.7104 171.328 86.4552 170.898L98.3024 164.058C98.7874 162.708 99.3157 161.363 99.8699 160.033L86.4552 167.778ZM163.557 123.263C164.112 123.953 164.631 124.693 165.116 125.483L193.86 108.888C194.604 108.458 195.219 107.403 195.219 106.543C195.219 105.683 194.604 105.338 193.86 105.768L163.557 123.263ZM131.757 142.173L131.852 144.688L140.868 139.483C138.157 139.418 135.057 140.278 131.757 142.173ZM130.155 143.168C127.418 144.998 124.846 147.353 122.56 150.053L129.419 146.093L130.155 143.168ZM130.536 146.558L122.491 178.623L119.529 165.523L114.107 184.533C114.601 185.448 115.199 186.243 115.865 186.928L118.845 176.468L121.841 189.698C121.945 189.718 122.058 189.723 122.161 189.733L128.449 164.673L129.038 180.033L135.282 157.558L141.708 178.148C141.864 177.958 142.002 177.778 142.149 177.583L145.735 160.193L148.922 157.843L150.905 149.468C150.619 147.793 150.134 146.313 149.485 145.038L146.843 156.223L143.578 158.628L141.742 167.508L135.576 147.728L131.185 163.523L130.536 146.558ZM86.4552 177.368C85.9702 177.648 85.5199 178.208 85.2774 178.828C85.0349 179.458 85.0349 180.048 85.2774 180.398C85.5199 180.738 85.9702 180.778 86.4552 180.498L95.1501 175.478C95.3839 174.283 95.6351 173.098 95.9295 171.898L86.4552 177.368ZM115.995 160.313C115.372 161.653 114.809 163.028 114.324 164.408L119.477 161.433L119.875 160.043L120.1 161.073L126.613 157.313L127.522 153.658L115.995 160.313ZM132.095 151.018L132.216 154.078L132.658 153.823L133.697 150.093L132.095 151.018ZM137.334 147.993L138.166 150.643L148.333 144.773L148.619 143.588C148.255 143.068 147.856 142.588 147.423 142.168L137.334 147.993ZM167.489 130.583C167.784 131.443 168.043 132.333 168.269 133.263L193.86 118.488C194.345 118.208 194.795 117.648 195.037 117.028C195.28 116.398 195.28 115.808 195.037 115.458C194.795 115.118 194.345 115.078 193.86 115.358L167.489 130.583ZM86.4552 186.968C85.9616 187.223 85.4853 187.798 85.2341 188.433C84.9743 189.073 84.9743 189.693 85.2341 190.033C85.4853 190.378 85.9616 190.403 86.4552 190.088L94.0762 185.688C94.0936 184.628 94.1369 183.563 94.2148 182.488L86.4552 186.968ZM112.479 171.943C112.332 173.048 112.245 174.138 112.219 175.213L116.195 172.918L117.268 169.178L112.479 171.943ZM121.399 166.793L122.023 169.553L123.798 168.528L124.716 164.878L121.399 166.793ZM139.872 156.128L140.694 158.773L143.197 157.328L145.804 155.403L146.549 152.273L139.872 156.128ZM169.204 139.193C169.282 140.178 169.334 141.188 169.343 142.233L193.86 128.078C194.353 127.823 194.83 127.248 195.081 126.613C195.341 125.973 195.341 125.353 195.081 125.013C194.83 124.668 194.353 124.643 193.86 124.958L169.204 139.193ZM86.4552 196.558C85.7104 196.988 85.0956 198.043 85.0956 198.913C85.0956 199.773 85.7104 200.118 86.4552 199.688L94.8903 194.818C94.6998 193.898 94.5439 192.948 94.414 191.963L86.4552 196.558ZM112.86 181.313C112.999 181.863 113.163 182.388 113.354 182.878L113.986 180.663L112.86 181.313ZM133.16 169.593L132.129 173.318L137.551 170.188L136.719 167.538L133.16 169.593ZM146.644 161.808L145.908 165.363L149.632 163.213C150.004 161.998 150.316 160.768 150.567 159.543L146.644 161.808ZM169.005 148.898C168.884 150.028 168.728 151.158 168.537 152.298L193.86 137.678C194.604 137.248 195.219 136.193 195.219 135.333C195.219 134.463 194.604 134.118 193.86 134.548L169.005 148.898ZM127.401 173.738L126.725 176.438L127.488 175.998L127.401 173.738ZM86.4552 206.158C85.9616 206.413 85.4853 206.988 85.2341 207.623C84.9743 208.263 84.9743 208.883 85.2341 209.223C85.4853 209.568 85.9616 209.593 86.4552 209.278L97.7309 202.768C97.3065 201.993 96.9168 201.178 96.5617 200.323L86.4552 206.158ZM117.476 188.248C118.308 188.778 119.217 189.173 120.196 189.428L119.65 186.993L117.476 188.248ZM124.829 184.003L123.911 187.653L127.851 185.378L127.73 182.328L124.829 184.003ZM129.982 181.028L128.951 184.743L140.088 178.313L139.257 175.673L129.982 181.028ZM144.401 172.703L143.89 175.168C144.617 174.078 145.31 172.958 145.942 171.813L144.401 172.703ZM166.866 159.733C166.502 161.003 166.112 162.268 165.688 163.533L193.86 147.268C194.353 147.013 194.83 146.438 195.081 145.803C195.341 145.163 195.341 144.543 195.081 144.203C194.83 143.858 194.353 143.833 193.86 144.148L166.866 159.733ZM131.714 125.528C112.99 136.338 97.6962 162.738 97.6962 184.258C97.6962 191.898 99.6275 197.923 102.953 202.033L76.7904 247.218C74.66 250.898 74.66 254.848 76.7904 256.068L79.8128 257.793C81.9432 259.013 85.3813 257.018 87.5118 253.348L113.692 208.133C118.923 208.903 125.106 207.523 131.714 203.708C150.429 192.903 165.723 166.493 165.723 144.983C165.723 123.463 150.429 114.723 131.714 125.528ZM131.714 138.038C144.548 130.628 154.837 136.508 154.837 151.268C154.837 166.018 144.548 183.788 131.714 191.198C118.871 198.613 108.582 192.723 108.582 177.973C108.582 163.213 118.871 145.453 131.714 138.038ZM62.5876 124.698L214.54 36.9676C217.814 35.0776 220.369 36.5326 220.369 40.2926V215.863C220.369 219.623 217.814 224.038 214.54 225.928L62.5876 313.658C59.314 315.548 56.7592 314.083 56.7592 310.323V134.753C56.7592 130.993 59.314 126.588 62.5876 124.698ZM62.5876 119.178C56.7419 122.553 51.9614 130.803 51.9614 137.523V313.093C51.9614 319.813 56.7419 322.553 62.5876 319.178L214.54 231.448C220.386 228.073 225.167 219.813 225.167 213.093V37.5226C225.167 30.8026 220.386 28.0726 214.54 31.4476L62.5876 119.178Z" fill="#8BC5E4"/>
<path fill-rule="evenodd" clip-rule="evenodd" d="M62.5876 124.698L214.54 36.9676C217.814 35.0776 220.369 36.5326 220.369 40.2926V215.863C220.369 219.623 217.814 224.038 214.54 225.928L62.5876 313.658C59.314 315.548 56.7592 314.083 56.7592 310.323V134.753C56.7592 130.993 59.314 126.588 62.5876 124.698ZM85.2774 159.638C85.5199 159.018 85.9702 158.458 86.4552 158.178L107.023 146.303C106.045 147.858 105.101 149.443 104.217 151.053L86.4552 161.308C85.9702 161.588 85.5199 161.548 85.2774 161.208C85.0349 160.858 85.0349 160.268 85.2774 159.638ZM159.21 119.303C158.318 118.718 157.383 118.218 156.395 117.798L193.86 96.1676C194.345 95.8876 194.795 95.9276 195.037 96.2676C195.28 96.6176 195.28 97.2076 195.037 97.8376C194.795 98.4576 194.345 99.0176 193.86 99.2976L159.21 119.303ZM85.0956 170.123C85.0956 169.263 85.7104 168.208 86.4552 167.778L99.8699 160.033C99.3157 161.363 98.7874 162.708 98.3024 164.058L86.4552 170.898C85.7104 171.328 85.0956 170.983 85.0956 170.123ZM165.116 125.483C164.631 124.693 164.112 123.953 163.557 123.263L193.86 105.768C194.604 105.338 195.219 105.683 195.219 106.543C195.219 107.403 194.604 108.458 193.86 108.888L165.116 125.483ZM85.2774 178.828C85.5199 178.208 85.9702 177.648 86.4552 177.368L95.9295 171.898C95.6351 173.098 95.3839 174.283 95.1501 175.478L86.4552 180.498C85.9702 180.778 85.5199 180.738 85.2774 180.398C85.0349 180.048 85.0349 179.458 85.2774 178.828ZM168.269 133.263C168.043 132.333 167.784 131.443 167.489 130.583L193.86 115.358C194.345 115.078 194.795 115.118 195.037 115.458C195.28 115.808 195.28 116.398 195.037 117.028C194.795 117.648 194.345 118.208 193.86 118.488L168.269 133.263ZM85.2341 188.433C85.4853 187.798 85.9616 187.223 86.4552 186.968L94.2148 182.488C94.1369 183.563 94.0936 184.628 94.0762 185.688L86.4552 190.088C85.9616 190.403 85.4853 190.378 85.2341 190.033C84.9743 189.693 84.9743 189.073 85.2341 188.433ZM169.343 142.233C169.334 141.188 169.282 140.178 169.204 139.193L193.86 124.958C194.353 124.643 194.83 124.668 195.081 125.013C195.341 125.353 195.341 125.973 195.081 126.613C194.83 127.248 194.353 127.823 193.86 128.078L169.343 142.233ZM85.0956 198.913C85.0956 198.043 85.7104 196.988 86.4552 196.558L94.414 191.963C94.5439 192.948 94.6998 193.898 94.8903 194.818L86.4552 199.688C85.7104 200.118 85.0956 199.773 85.0956 198.913ZM168.537 152.298C168.728 151.158 168.884 150.028 169.005 148.898L193.86 134.548C194.604 134.118 195.219 134.463 195.219 135.333C195.219 136.193 194.604 137.248 193.86 137.678L168.537 152.298ZM85.2341 207.623C85.4853 206.988 85.9616 206.413 86.4552 206.158L96.5617 200.323C96.9168 201.178 97.3065 201.993 97.7309 202.768L86.4552 209.278C85.9616 209.593 85.4853 209.568 85.2341 209.223C84.9743 208.883 84.9743 208.263 85.2341 207.623ZM165.688 163.533C166.112 162.268 166.502 161.003 166.866 159.733L193.86 144.148C194.353 143.833 194.83 143.858 195.081 144.203C195.341 144.543 195.341 145.163 195.081 145.803C194.83 146.438 194.353 147.013 193.86 147.268L165.688 163.533ZM97.6962 184.258C97.6962 162.738 112.99 136.338 131.714 125.528C150.429 114.723 165.723 123.463 165.723 144.983C165.723 166.493 150.429 192.903 131.714 203.708C125.106 207.523 118.923 208.903 113.692 208.133L87.5118 253.348C85.3813 257.018 81.9432 259.013 79.8128 257.793L76.7904 256.068C74.66 254.848 74.66 250.898 76.7904 247.218L102.953 202.033C99.6275 197.923 97.6962 191.898 97.6962 184.258Z" fill="white"/>
<path fill-rule="evenodd" clip-rule="evenodd" d="M131.714 138.038C144.548 130.628 154.837 136.508 154.837 151.268C154.837 166.018 144.548 183.788 131.714 191.198C118.871 198.613 108.582 192.723 108.582 177.973C108.582 163.213 118.871 145.453 131.714 138.038ZM131.852 144.688L131.757 142.173C135.057 140.278 138.157 139.418 140.868 139.483L131.852 144.688ZM122.56 150.053C124.846 147.353 127.418 144.998 130.155 143.168L129.419 146.093L122.56 150.053ZM122.491 178.623L130.536 146.558L131.185 163.523L135.576 147.728L141.742 167.508L143.578 158.628L146.843 156.223L149.485 145.038C150.134 146.313 150.619 147.793 150.905 149.468L148.922 157.843L145.735 160.193L142.149 177.583C142.002 177.778 141.864 177.958 141.708 178.148L135.282 157.558L129.038 180.033L128.449 164.673L122.161 189.733C122.058 189.723 121.945 189.718 121.841 189.698L118.845 176.468L115.865 186.928C115.199 186.243 114.601 185.448 114.107 184.533L119.529 165.523L122.491 178.623ZM114.324 164.408C114.809 163.028 115.372 161.653 115.995 160.313L127.522 153.658L126.613 157.313L120.1 161.073L119.875 160.043L119.477 161.433L114.324 164.408ZM132.216 154.078L132.095 151.018L133.697 150.093L132.658 153.823L132.216 154.078ZM138.166 150.643L137.334 147.993L147.423 142.168C147.856 142.588 148.255 143.068 148.619 143.588L148.333 144.773L138.166 150.643ZM112.219 175.213C112.245 174.138 112.332 173.048 112.479 171.943L117.268 169.178L116.195 172.918L112.219 175.213ZM122.023 169.553L121.399 166.793L124.716 164.878L123.798 168.528L122.023 169.553ZM140.694 158.773L139.872 156.128L146.549 152.273L145.804 155.403L143.197 157.328L140.694 158.773ZM113.354 182.878C113.163 182.388 112.999 181.863 112.86 181.313L113.986 180.663L113.354 182.878ZM132.129 173.318L133.16 169.593L136.719 167.538L137.551 170.188L132.129 173.318ZM145.908 165.363L146.644 161.808L150.567 159.543C150.316 160.768 150.004 161.998 149.632 163.213L145.908 165.363ZM126.725 176.438L127.401 173.738L127.488 175.998L126.725 176.438ZM120.196 189.428C119.217 189.173 118.308 188.778 117.476 188.248L119.65 186.993L120.196 189.428ZM123.911 187.653L124.829 184.003L127.73 182.328L127.851 185.378L123.911 187.653ZM128.951 184.743L129.982 181.028L139.257 175.673L140.088 178.313L128.951 184.743ZM143.89 175.168L144.401 172.703L145.942 171.813C145.31 172.958 144.617 174.078 143.89 175.168Z" fill="white"/>
</svg>
