<svg width="274" height="349" viewBox="0 0 274 349" fill="none" xmlns="http://www.w3.org/2000/svg">
<path fill-rule="evenodd" clip-rule="evenodd" d="M163.324 159.237L167.688 157.867L115.727 127.867L111.362 129.237L163.324 159.237Z" fill="#8BC5E4"/>
<path fill-rule="evenodd" clip-rule="evenodd" d="M167.688 157.867L167.636 161.377L115.675 131.377L115.727 127.867L167.688 157.867Z" fill="#8BC5E4"/>
<path fill-rule="evenodd" clip-rule="evenodd" d="M167.636 161.377L176.08 158.712L124.119 128.712L115.675 131.377L167.636 161.377Z" fill="#8BC5E4"/>
<path fill-rule="evenodd" clip-rule="evenodd" d="M176.08 158.712L176.115 155.242L124.153 125.242L124.119 128.712L176.08 158.712Z" fill="#8BC5E4"/>
<path fill-rule="evenodd" clip-rule="evenodd" d="M176.115 155.242L183.008 153.092L131.047 123.092L124.153 125.242L176.115 155.242Z" fill="#8BC5E4"/>
<path fill-rule="evenodd" clip-rule="evenodd" d="M183.008 153.092V171.152L131.047 141.152V123.092L183.008 153.092Z" fill="#8BC5E4"/>
<path fill-rule="evenodd" clip-rule="evenodd" d="M143.31 194.782V176.082L91.3481 146.082V164.782L143.31 194.782Z" fill="#8BC5E4"/>
<path fill-rule="evenodd" clip-rule="evenodd" d="M143.31 176.082L150.195 170.287L98.233 140.287L91.3481 146.082L143.31 176.082Z" fill="#8BC5E4"/>
<path fill-rule="evenodd" clip-rule="evenodd" d="M150.195 170.287L150.238 173.632L98.2765 143.632L98.2332 140.287L150.195 170.287Z" fill="#8BC5E4"/>
<path fill-rule="evenodd" clip-rule="evenodd" d="M150.238 173.632L158.673 166.552L106.711 136.552L98.2764 143.632L150.238 173.632Z" fill="#8BC5E4"/>
<path fill-rule="evenodd" clip-rule="evenodd" d="M158.673 166.552L158.63 163.187L106.668 133.187L106.712 136.552L158.673 166.552Z" fill="#8BC5E4"/>
<path fill-rule="evenodd" clip-rule="evenodd" d="M158.63 163.187L163.324 159.237L111.362 129.237L106.668 133.187L158.63 163.187Z" fill="#8BC5E4"/>
<path fill-rule="evenodd" clip-rule="evenodd" d="M163.324 159.237L111.362 129.237L163.324 159.237Z" fill="#8BC5E4"/>
<path fill-rule="evenodd" clip-rule="evenodd" d="M177.674 168.112L155.772 206.927L103.81 176.927L125.712 138.112L177.674 168.112Z" fill="#8BC5E4"/>
<path fill-rule="evenodd" clip-rule="evenodd" d="M177.622 172.412L177.674 168.112L125.712 138.112L125.66 142.412L177.622 172.412Z" fill="#8BC5E4"/>
<path fill-rule="evenodd" clip-rule="evenodd" d="M177.674 168.112L125.712 138.112L177.674 168.112Z" fill="#8BC5E4"/>
<path fill-rule="evenodd" clip-rule="evenodd" d="M163.211 169.292L148.844 181.937L96.8821 151.937L111.249 139.292L163.211 169.292Z" fill="#8BC5E4"/>
<path fill-rule="evenodd" clip-rule="evenodd" d="M148.844 181.937V189.517L96.8821 159.517V151.937L148.844 181.937Z" fill="#8BC5E4"/>
<path fill-rule="evenodd" clip-rule="evenodd" d="M153.806 205.202L176.184 165.522L124.223 135.522L101.844 175.202L153.806 205.202Z" fill="#8BC5E4"/>
<path fill-rule="evenodd" clip-rule="evenodd" d="M176.184 165.522L163.211 169.292L111.25 139.292L124.223 135.522L176.184 165.522Z" fill="#8BC5E4"/>
<path fill-rule="evenodd" clip-rule="evenodd" d="M163.211 169.292L111.25 139.292L163.211 169.292Z" fill="#8BC5E4"/>
<path fill-rule="evenodd" clip-rule="evenodd" d="M114.021 175.832L139.291 182.912L87.3299 152.912L62.0593 145.832L114.021 175.832Z" fill="#8BC5E4"/>
<path fill-rule="evenodd" clip-rule="evenodd" d="M139.291 182.912V174.652L87.3298 144.652V152.912L139.291 182.912Z" fill="#8BC5E4"/>
<path fill-rule="evenodd" clip-rule="evenodd" d="M139.291 174.652L163.324 154.427L111.362 124.427L87.3298 144.652L139.291 174.652Z" fill="#8BC5E4"/>
<path fill-rule="evenodd" clip-rule="evenodd" d="M163.324 154.427L187.027 147.032L135.065 117.032L111.362 124.427L163.324 154.427Z" fill="#8BC5E4"/>
<path fill-rule="evenodd" clip-rule="evenodd" d="M187.027 147.032V155.702L135.065 125.702V117.032L187.027 147.032Z" fill="#8BC5E4"/>
<path fill-rule="evenodd" clip-rule="evenodd" d="M187.027 155.702L212.713 118.852L160.751 88.8523L135.065 125.702L187.027 155.702Z" fill="#8BC5E4"/>
<path fill-rule="evenodd" clip-rule="evenodd" d="M207.768 120.617L118.966 171.887L67.0044 141.887L155.807 90.6172L207.768 120.617Z" fill="#8BC5E4"/>
<path fill-rule="evenodd" clip-rule="evenodd" d="M118.966 171.887L67.0044 141.887L118.966 171.887Z" fill="#8BC5E4"/>
<path fill-rule="evenodd" clip-rule="evenodd" d="M105.473 195.417V247.677L53.5117 217.677V165.417L105.473 195.417Z" fill="#8BC5E4"/>
<path fill-rule="evenodd" clip-rule="evenodd" d="M106.46 253.047L140.019 204.902L88.0573 174.902L54.4988 223.047L106.46 253.047Z" fill="#8BC5E4"/>
<path fill-rule="evenodd" clip-rule="evenodd" d="M139.291 197.102V193.262L87.3298 163.262V167.102L139.291 197.102Z" fill="#8BC5E4"/>
<path fill-rule="evenodd" clip-rule="evenodd" d="M139.292 193.262L108.115 184.522L56.1531 154.522L87.33 163.262L139.292 193.262Z" fill="#8BC5E4"/>
<path fill-rule="evenodd" clip-rule="evenodd" d="M108.115 184.522L56.1531 154.522L108.115 184.522Z" fill="#8BC5E4"/>
<path fill-rule="evenodd" clip-rule="evenodd" d="M218.619 120.722L187.027 166.052L135.065 136.052L166.658 90.7224L218.619 120.722Z" fill="#8BC5E4"/>
<path fill-rule="evenodd" clip-rule="evenodd" d="M187.027 166.052V168.832L135.065 138.832V136.052L187.027 166.052Z" fill="#8BC5E4"/>
<path fill-rule="evenodd" clip-rule="evenodd" d="M186.265 177.822L220.265 187.342L168.303 157.342L134.303 147.822L186.265 177.822Z" fill="#8BC5E4"/>
<path fill-rule="evenodd" clip-rule="evenodd" d="M221.252 180.832V128.572L169.291 98.5723V150.832L221.252 180.832Z" fill="#8BC5E4"/>
<path fill-rule="evenodd" clip-rule="evenodd" d="M218.619 120.722L166.658 90.7224L218.619 120.722Z" fill="#8BC5E4"/>
<path fill-rule="evenodd" clip-rule="evenodd" d="M163.999 221.877L163.28 222.612L111.319 192.612L112.038 191.877L163.999 221.877Z" fill="#8BC5E4"/>
<path fill-rule="evenodd" clip-rule="evenodd" d="M163.28 222.612L162.553 222.712L110.591 192.712L111.319 192.612L163.28 222.612Z" fill="#8BC5E4"/>
<path fill-rule="evenodd" clip-rule="evenodd" d="M142.323 211.942L110.817 257.152L58.855 227.152L90.361 181.942L142.323 211.942Z" fill="#8BC5E4"/>
<path fill-rule="evenodd" clip-rule="evenodd" d="M118.966 255.627L207.768 204.357L155.807 174.357L67.0044 225.627L118.966 255.627Z" fill="#8BC5E4"/>
<path fill-rule="evenodd" clip-rule="evenodd" d="M215.917 196.472L183.97 187.527L132.008 157.527L163.956 166.472L215.917 196.472Z" fill="#8BC5E4"/>
<path fill-rule="evenodd" clip-rule="evenodd" d="M183.97 187.527L132.008 157.527L183.97 187.527Z" fill="#8BC5E4"/>
<path fill-rule="evenodd" clip-rule="evenodd" d="M51.9615 165.572V341.142L0 311.142V135.572L51.9615 165.572Z" fill="#8BC5E4"/>
<path fill-rule="evenodd" clip-rule="evenodd" d="M62.423 347.322L263.194 231.407L211.232 201.407L10.4614 317.322L62.423 347.322Z" fill="#8BC5E4"/>
<path fill-rule="evenodd" clip-rule="evenodd" d="M273.664 213.142V37.5723L221.702 7.57227V183.142L273.664 213.142Z" fill="#8BC5E4"/>
<path fill-rule="evenodd" clip-rule="evenodd" d="M263.194 31.4072L62.423 147.322L10.4614 117.322L211.232 1.40723L263.194 31.4072Z" fill="#8BC5E4"/>
<path fill-rule="evenodd" clip-rule="evenodd" d="M62.423 147.322L10.4614 117.322L62.423 147.322Z" fill="#8BC5E4"/>
<path fill-rule="evenodd" clip-rule="evenodd" d="M62.423 152.842L263.194 36.9272L211.232 6.92725L10.4614 122.842L62.423 152.842Z" fill="#8BC5E4"/>
<path fill-rule="evenodd" clip-rule="evenodd" d="M268.935 40.3022V215.872L216.974 185.872V10.3022L268.935 40.3022Z" fill="#8BC5E4"/>
<path fill-rule="evenodd" clip-rule="evenodd" d="M263.194 225.887L62.423 341.802L10.4614 311.802L211.232 195.887L263.194 225.887Z" fill="#8BC5E4"/>
<path fill-rule="evenodd" clip-rule="evenodd" d="M56.69 338.412V162.842L4.72852 132.842V308.412L56.69 338.412Z" fill="#8BC5E4"/>
<path fill-rule="evenodd" clip-rule="evenodd" d="M62.423 152.842L10.4614 122.842L62.423 152.842Z" fill="#8BC5E4"/>
<path fill-rule="evenodd" clip-rule="evenodd" d="M183.008 171.152C183.008 186.722 174.253 205.807 163.272 217.517L111.31 187.517C122.291 175.807 131.047 156.722 131.047 141.152L183.008 171.152Z" fill="#8BC5E4"/>
<path fill-rule="evenodd" clip-rule="evenodd" d="M163.272 217.517C159.298 217.901 155.823 217.175 152.935 215.541L100.973 185.541C103.861 187.175 107.336 187.901 111.31 187.517L163.272 217.517Z" fill="#8BC5E4"/>
<path fill-rule="evenodd" clip-rule="evenodd" d="M152.935 215.541C146.798 212.069 143.31 204.499 143.31 194.782L91.3481 164.782C91.3481 174.499 94.8361 182.069 100.973 185.541L152.935 215.541Z" fill="#8BC5E4"/>
<path fill-rule="evenodd" clip-rule="evenodd" d="M155.772 206.927C156.092 207.157 156.426 207.376 156.776 207.583L104.814 177.583C104.465 177.376 104.13 177.157 103.81 176.927L155.772 206.927Z" fill="#8BC5E4"/>
<path fill-rule="evenodd" clip-rule="evenodd" d="M156.776 207.583C158.611 208.671 160.864 209.436 163.635 209.717L111.674 179.717C108.902 179.436 106.65 178.671 104.814 177.583L156.776 207.583Z" fill="#8BC5E4"/>
<path fill-rule="evenodd" clip-rule="evenodd" d="M163.635 209.717C175.864 193.987 177.622 178.532 177.622 172.412L125.66 142.412C125.66 148.532 123.902 163.987 111.674 179.717L163.635 209.717Z" fill="#8BC5E4"/>
<path fill-rule="evenodd" clip-rule="evenodd" d="M148.844 189.517C148.844 193.617 149.458 200.592 153.806 205.202L101.844 175.202C97.497 170.592 96.8821 163.617 96.8821 159.517L148.844 189.517Z" fill="#8BC5E4"/>
<path fill-rule="evenodd" clip-rule="evenodd" d="M118.966 171.887C117.216 172.897 115.545 174.252 114.021 175.832L62.0593 145.832C63.5835 144.252 65.255 142.897 67.0043 141.887L118.966 171.887Z" fill="#8BC5E4"/>
<path fill-rule="evenodd" clip-rule="evenodd" d="M212.713 118.852C211.18 119.037 209.518 119.607 207.768 120.617L155.807 90.6173C157.556 89.6073 159.219 89.0373 160.752 88.8523L212.713 118.852Z" fill="#8BC5E4"/>
<path fill-rule="evenodd" clip-rule="evenodd" d="M108.115 184.522C106.452 188.092 105.473 191.897 105.473 195.417L53.5117 165.417C53.5117 161.897 54.4903 158.092 56.1531 154.522L108.115 184.522Z" fill="#8BC5E4"/>
<path fill-rule="evenodd" clip-rule="evenodd" d="M105.473 247.677C105.473 249.787 105.828 251.582 106.461 253.047L54.499 223.047C53.8668 221.582 53.5117 219.787 53.5117 217.677L105.473 247.677Z" fill="#8BC5E4"/>
<path fill-rule="evenodd" clip-rule="evenodd" d="M140.019 204.902C139.534 202.492 139.291 199.872 139.291 197.102L87.3298 167.102C87.3298 169.872 87.5723 172.492 88.0573 174.902L140.019 204.902Z" fill="#8BC5E4"/>
<path fill-rule="evenodd" clip-rule="evenodd" d="M187.027 168.832C187.027 171.752 186.758 174.767 186.265 177.822L134.303 147.822C134.797 144.767 135.065 141.752 135.065 138.832L187.027 168.832Z" fill="#8BC5E4"/>
<path fill-rule="evenodd" clip-rule="evenodd" d="M220.265 187.342C220.906 185.142 221.252 182.942 221.252 180.832L169.29 150.832C169.29 152.942 168.944 155.142 168.303 157.342L220.265 187.342Z" fill="#8BC5E4"/>
<path fill-rule="evenodd" clip-rule="evenodd" d="M221.252 128.572C221.252 125.052 220.273 122.377 218.619 120.722L166.658 90.7224C168.312 92.3774 169.29 95.0524 169.29 98.5724L221.252 128.572Z" fill="#8BC5E4"/>
<path fill-rule="evenodd" clip-rule="evenodd" d="M183.97 187.527C180.038 200.307 172.677 212.967 163.999 221.877L112.038 191.877C120.715 182.967 128.076 170.307 132.008 157.527L183.97 187.527Z" fill="#8BC5E4"/>
<path fill-rule="evenodd" clip-rule="evenodd" d="M162.553 222.712C158.022 223.303 154.042 222.626 150.713 220.907L98.752 190.907C102.08 192.626 106.06 193.303 110.591 192.712L162.553 222.712Z" fill="#8BC5E4"/>
<path fill-rule="evenodd" clip-rule="evenodd" d="M150.713 220.908C147.108 219.046 144.268 215.962 142.323 211.942L90.3611 181.942C92.3065 185.962 95.1465 189.046 98.752 190.908L150.713 220.908Z" fill="#8BC5E4"/>
<path fill-rule="evenodd" clip-rule="evenodd" d="M110.817 257.152C113.077 257.847 115.9 257.397 118.966 255.627L67.0043 225.627C63.9386 227.397 61.1153 227.847 58.855 227.152L110.817 257.152Z" fill="#8BC5E4"/>
<path fill-rule="evenodd" clip-rule="evenodd" d="M207.768 204.357C210.834 202.587 213.657 199.777 215.917 196.472L163.956 166.472C161.696 169.777 158.872 172.587 155.807 174.357L207.768 204.357Z" fill="#8BC5E4"/>
<path fill-rule="evenodd" clip-rule="evenodd" d="M62.4231 147.322C56.6727 150.642 51.9615 158.852 51.9615 165.572L0 135.572C0 128.852 4.71118 120.642 10.4616 117.322L62.4231 147.322Z" fill="#8BC5E4"/>
<path fill-rule="evenodd" clip-rule="evenodd" d="M51.9615 341.142C51.9615 344.368 53.047 346.686 54.8118 347.857L2.85028 317.857C1.08546 316.686 0 314.368 0 311.142L51.9615 341.142Z" fill="#8BC5E4"/>
<path fill-rule="evenodd" clip-rule="evenodd" d="M54.8116 347.857C56.7235 349.126 59.4327 349.049 62.4229 347.322L10.4614 317.322C7.47119 319.049 4.76199 319.126 2.8501 317.857L54.8116 347.857Z" fill="#8BC5E4"/>
<path fill-rule="evenodd" clip-rule="evenodd" d="M263.194 231.407C268.953 228.082 273.664 219.862 273.664 213.142L221.702 183.142C221.702 189.862 216.991 198.082 211.232 201.407L263.194 231.407Z" fill="#8BC5E4"/>
<path fill-rule="evenodd" clip-rule="evenodd" d="M273.664 37.5724C273.664 34.3468 272.578 32.0313 270.813 30.863L218.851 0.863037C220.617 2.03126 221.702 4.34678 221.702 7.57238L273.664 37.5724Z" fill="#8BC5E4"/>
<path fill-rule="evenodd" clip-rule="evenodd" d="M270.813 30.8631C268.9 29.5975 266.188 29.6784 263.194 31.4074L211.232 1.40742C214.227 -0.321584 216.938 -0.402495 218.851 0.863077L270.813 30.8631Z" fill="#8BC5E4"/>
<path fill-rule="evenodd" clip-rule="evenodd" d="M263.194 36.9272C264.74 36.0344 266.125 35.91 267.147 36.4378L215.185 6.43782C214.163 5.90998 212.779 6.03439 211.232 6.92719L263.194 36.9272Z" fill="#8BC5E4"/>
<path fill-rule="evenodd" clip-rule="evenodd" d="M267.147 36.438C268.254 37.0098 268.935 38.3472 268.935 40.3024L216.974 10.3024C216.974 8.34716 216.292 7.00982 215.185 6.43799L267.147 36.438Z" fill="#8BC5E4"/>
<path fill-rule="evenodd" clip-rule="evenodd" d="M268.935 215.872C268.935 219.632 266.415 224.027 263.194 225.887L211.232 195.887C214.454 194.027 216.974 189.632 216.974 185.872L268.935 215.872Z" fill="#8BC5E4"/>
<path fill-rule="evenodd" clip-rule="evenodd" d="M62.4231 341.802C60.8809 342.693 59.4983 342.814 58.4774 342.283L6.51587 312.283C7.53675 312.814 8.91934 312.693 10.4616 311.802L62.4231 341.802Z" fill="#8BC5E4"/>
<path fill-rule="evenodd" clip-rule="evenodd" d="M58.4774 342.283C57.3715 341.708 56.69 340.368 56.69 338.412L4.72852 308.412C4.72852 310.368 5.40996 311.708 6.51591 312.283L58.4774 342.283Z" fill="#8BC5E4"/>
<path fill-rule="evenodd" clip-rule="evenodd" d="M56.69 162.842C56.69 159.082 59.2102 154.697 62.4231 152.842L10.4616 122.842C7.24865 124.697 4.72852 129.082 4.72852 132.842L56.69 162.842Z" fill="#8BC5E4"/>
<path d="M163.324 159.237L167.688 157.867L167.636 161.377L176.08 158.712L176.115 155.242L183.008 153.092V171.152C183.008 186.722 174.253 205.807 163.272 217.517C150.853 218.717 143.31 209.072 143.31 194.782V176.082L150.195 170.287L150.238 173.632L158.673 166.552L158.63 163.187L163.324 159.237ZM177.674 168.112L155.772 206.927C157.772 208.362 160.336 209.382 163.635 209.717C175.864 193.987 177.622 178.532 177.622 172.412L177.674 168.112ZM163.211 169.292L148.844 181.937V189.517C148.844 193.617 149.459 200.592 153.806 205.202L176.184 165.522L163.211 169.292ZM118.966 171.887C117.216 172.897 115.545 174.252 114.021 175.832L139.291 182.912V174.652L163.324 154.427L187.027 147.032V155.702L212.713 118.852C211.18 119.037 209.517 119.607 207.768 120.617L118.966 171.887ZM108.115 184.522C106.452 188.092 105.473 191.897 105.473 195.417V247.677C105.473 249.787 105.828 251.582 106.46 253.047L140.019 204.902C139.534 202.492 139.291 199.872 139.291 197.102V193.262L108.115 184.522ZM218.619 120.722L187.027 166.052V168.832C187.027 171.752 186.758 174.767 186.265 177.822L220.265 187.342C220.906 185.142 221.252 182.942 221.252 180.832V128.572C221.252 125.052 220.273 122.377 218.619 120.722ZM183.97 187.527C180.038 200.307 172.677 212.967 163.999 221.877L163.28 222.612L162.553 222.712C153.113 223.942 146.064 219.672 142.323 211.942L110.817 257.152C113.077 257.847 115.9 257.397 118.966 255.627L207.768 204.357C210.834 202.587 213.657 199.777 215.917 196.472L183.97 187.527ZM62.423 147.322C56.6726 150.642 51.9614 158.852 51.9614 165.572V341.142C51.9614 347.862 56.6726 350.642 62.423 347.322L263.194 231.407C268.953 228.082 273.664 219.862 273.664 213.142V37.5724C273.664 30.8524 268.953 28.0824 263.194 31.4074L62.423 147.322ZM62.423 152.842L263.194 36.9274C266.415 35.0674 268.935 36.5424 268.935 40.3024V215.872C268.935 219.632 266.415 224.027 263.194 225.887L62.423 341.802C59.2101 343.657 56.6899 342.172 56.6899 338.412V162.842C56.6899 159.082 59.2101 154.697 62.423 152.842Z" fill="#8BC5E4"/>
<path fill-rule="evenodd" clip-rule="evenodd" d="M62.423 152.842L263.194 36.9274C266.415 35.0674 268.935 36.5424 268.935 40.3024V215.872C268.935 219.632 266.415 224.027 263.194 225.887L62.423 341.802C59.2101 343.657 56.6899 342.172 56.6899 338.412V162.842C56.6899 159.082 59.2101 154.697 62.423 152.842ZM167.688 157.867L163.324 159.237L158.63 163.187L158.673 166.552L150.238 173.632L150.195 170.287L143.31 176.082V194.782C143.31 209.072 150.853 218.717 163.272 217.517C174.253 205.807 183.008 186.722 183.008 171.152V153.092L176.115 155.242L176.08 158.712L167.636 161.377L167.688 157.867ZM114.021 175.832C115.545 174.252 117.216 172.897 118.966 171.887L207.768 120.617C209.517 119.607 211.18 119.037 212.713 118.852L187.027 155.702V147.032L163.324 154.427L139.291 174.652V182.912L114.021 175.832ZM105.473 195.417C105.473 191.897 106.452 188.092 108.115 184.522L139.291 193.262V197.102C139.291 199.872 139.534 202.492 140.019 204.902L106.46 253.047C105.828 251.582 105.473 249.787 105.473 247.677V195.417ZM187.027 166.052L218.619 120.722C220.273 122.377 221.252 125.052 221.252 128.572V180.832C221.252 182.942 220.906 185.142 220.265 187.342L186.265 177.822C186.758 174.767 187.027 171.752 187.027 168.832V166.052ZM163.999 221.877C172.677 212.967 180.038 200.307 183.97 187.527L215.917 196.472C213.657 199.777 210.834 202.587 207.768 204.357L118.966 255.627C115.9 257.397 113.077 257.847 110.817 257.152L142.323 211.942C146.064 219.672 153.113 223.942 162.553 222.712L163.28 222.612L163.999 221.877Z" fill="white"/>
<path d="M163.211 169.292L148.844 181.937V189.517C148.844 193.617 149.459 200.592 153.806 205.202L176.184 165.522L163.211 169.292Z" fill="white"/>
<path d="M177.674 168.112L155.772 206.927C157.772 208.362 160.336 209.382 163.635 209.717C175.864 193.987 177.622 178.532 177.622 172.412L177.674 168.112Z" fill="white"/>
</svg>
