<svg width="274" height="349" viewBox="0 0 274 349" fill="none" xmlns="http://www.w3.org/2000/svg">
<path fill-rule="evenodd" clip-rule="evenodd" d="M111.362 159.829L115.727 163.499L167.689 133.499L163.324 129.829L111.362 159.829Z" fill="#8BC5E4"/>
<path fill-rule="evenodd" clip-rule="evenodd" d="M115.727 163.499L115.675 166.949L167.637 136.949L167.689 133.499L115.727 163.499Z" fill="#8BC5E4"/>
<path fill-rule="evenodd" clip-rule="evenodd" d="M115.675 166.949L124.119 174.034L176.08 144.034L167.637 136.949L115.675 166.949Z" fill="#8BC5E4"/>
<path fill-rule="evenodd" clip-rule="evenodd" d="M124.119 174.034L124.153 170.604L176.115 140.604L176.08 144.034L124.119 174.034Z" fill="#8BC5E4"/>
<path fill-rule="evenodd" clip-rule="evenodd" d="M124.153 170.604L131.047 176.414L183.008 146.414L176.115 140.604L124.153 170.604Z" fill="#8BC5E4"/>
<path fill-rule="evenodd" clip-rule="evenodd" d="M131.047 176.414V194.474L183.008 164.474V146.414L131.047 176.414Z" fill="#8BC5E4"/>
<path fill-rule="evenodd" clip-rule="evenodd" d="M91.3484 172.264V153.564L143.31 123.564V142.264L91.3484 172.264Z" fill="#8BC5E4"/>
<path fill-rule="evenodd" clip-rule="evenodd" d="M91.3484 153.564L98.2333 155.719L150.195 125.719L143.31 123.564L91.3484 153.564Z" fill="#8BC5E4"/>
<path fill-rule="evenodd" clip-rule="evenodd" d="M98.2332 155.719L98.2765 159.114L150.238 129.114L150.195 125.719L98.2332 155.719Z" fill="#8BC5E4"/>
<path fill-rule="evenodd" clip-rule="evenodd" d="M98.2766 159.114L106.712 161.774L158.673 131.774L150.238 129.114L98.2766 159.114Z" fill="#8BC5E4"/>
<path fill-rule="evenodd" clip-rule="evenodd" d="M106.712 161.774L106.668 158.359L158.63 128.359L158.673 131.774L106.712 161.774Z" fill="#8BC5E4"/>
<path fill-rule="evenodd" clip-rule="evenodd" d="M106.668 158.359L111.362 159.829L163.324 129.829L158.63 128.359L106.668 158.359Z" fill="#8BC5E4"/>
<path fill-rule="evenodd" clip-rule="evenodd" d="M111.362 159.829L163.324 129.829L111.362 159.829Z" fill="#8BC5E4"/>
<path fill-rule="evenodd" clip-rule="evenodd" d="M125.712 185.274L103.811 198.799L155.772 168.799L177.674 155.274L125.712 185.274Z" fill="#8BC5E4"/>
<path fill-rule="evenodd" clip-rule="evenodd" d="M125.66 189.514L125.712 185.274L177.674 155.274L177.622 159.514L125.66 189.514Z" fill="#8BC5E4"/>
<path fill-rule="evenodd" clip-rule="evenodd" d="M125.712 185.274L177.674 155.274L125.712 185.274Z" fill="#8BC5E4"/>
<path fill-rule="evenodd" clip-rule="evenodd" d="M111.25 169.754L96.8823 165.809L148.844 135.809L163.211 139.754L111.25 169.754Z" fill="#8BC5E4"/>
<path fill-rule="evenodd" clip-rule="evenodd" d="M96.8823 165.809V173.389L148.844 143.389V135.809L96.8823 165.809Z" fill="#8BC5E4"/>
<path fill-rule="evenodd" clip-rule="evenodd" d="M101.844 194.804L124.223 180.964L176.184 150.964L153.806 164.804L101.844 194.804Z" fill="#8BC5E4"/>
<path fill-rule="evenodd" clip-rule="evenodd" d="M124.223 180.964L111.25 169.754L163.211 139.754L176.184 150.964L124.223 180.964Z" fill="#8BC5E4"/>
<path fill-rule="evenodd" clip-rule="evenodd" d="M111.25 169.754L163.211 139.754L111.25 169.754Z" fill="#8BC5E4"/>
<path fill-rule="evenodd" clip-rule="evenodd" d="M62.0593 119.494L87.3299 155.754L139.291 125.754L114.021 89.4941L62.0593 119.494Z" fill="#8BC5E4"/>
<path fill-rule="evenodd" clip-rule="evenodd" d="M87.3301 155.754V147.494L139.292 117.494V125.754L87.3301 155.754Z" fill="#8BC5E4"/>
<path fill-rule="evenodd" clip-rule="evenodd" d="M87.3301 147.494L111.362 155.019L163.324 125.019L139.292 117.494L87.3301 147.494Z" fill="#8BC5E4"/>
<path fill-rule="evenodd" clip-rule="evenodd" d="M111.362 155.019L135.065 174.994L187.027 144.994L163.324 125.019L111.362 155.019Z" fill="#8BC5E4"/>
<path fill-rule="evenodd" clip-rule="evenodd" d="M135.065 174.994V183.664L187.027 153.664V144.994L135.065 174.994Z" fill="#8BC5E4"/>
<path fill-rule="evenodd" clip-rule="evenodd" d="M135.065 183.664L160.752 176.474L212.713 146.474L187.027 153.664L135.065 183.664Z" fill="#8BC5E4"/>
<path fill-rule="evenodd" clip-rule="evenodd" d="M155.807 172.529L67.0044 121.259L118.966 91.2593L207.768 142.529L155.807 172.529Z" fill="#8BC5E4"/>
<path fill-rule="evenodd" clip-rule="evenodd" d="M67.0044 121.259L118.966 91.2593L67.0044 121.259Z" fill="#8BC5E4"/>
<path fill-rule="evenodd" clip-rule="evenodd" d="M53.5117 129.209V181.469L105.473 151.469V99.2092L53.5117 129.209Z" fill="#8BC5E4"/>
<path fill-rule="evenodd" clip-rule="evenodd" d="M54.499 187.979L88.0575 178.584L140.019 148.584L106.461 157.979L54.499 187.979Z" fill="#8BC5E4"/>
<path fill-rule="evenodd" clip-rule="evenodd" d="M87.3301 169.944V166.104L139.292 136.104V139.944L87.3301 169.944Z" fill="#8BC5E4"/>
<path fill-rule="evenodd" clip-rule="evenodd" d="M87.33 166.104L56.1531 121.364L108.115 91.3643L139.292 136.104L87.33 166.104Z" fill="#8BC5E4"/>
<path fill-rule="evenodd" clip-rule="evenodd" d="M56.1531 121.364L108.115 91.3643L56.1531 121.364Z" fill="#8BC5E4"/>
<path fill-rule="evenodd" clip-rule="evenodd" d="M166.658 185.164L135.065 194.014L187.027 164.014L218.62 155.164L166.658 185.164Z" fill="#8BC5E4"/>
<path fill-rule="evenodd" clip-rule="evenodd" d="M135.065 194.014V196.794L187.027 166.794V164.014L135.065 194.014Z" fill="#8BC5E4"/>
<path fill-rule="evenodd" clip-rule="evenodd" d="M134.303 204.904L168.303 253.684L220.265 223.684L186.265 174.904L134.303 204.904Z" fill="#8BC5E4"/>
<path fill-rule="evenodd" clip-rule="evenodd" d="M169.291 248.314V196.054L221.252 166.054V218.314L169.291 248.314Z" fill="#8BC5E4"/>
<path fill-rule="evenodd" clip-rule="evenodd" d="M166.658 185.164L218.619 155.164L166.658 185.164Z" fill="#8BC5E4"/>
<path fill-rule="evenodd" clip-rule="evenodd" d="M112.038 223.249L111.319 223.154L163.28 193.154L163.999 193.249L112.038 223.249Z" fill="#8BC5E4"/>
<path fill-rule="evenodd" clip-rule="evenodd" d="M111.319 223.154L110.592 222.414L162.553 192.414L163.281 193.154L111.319 223.154Z" fill="#8BC5E4"/>
<path fill-rule="evenodd" clip-rule="evenodd" d="M90.361 188.284L58.855 197.114L110.817 167.114L142.323 158.284L90.361 188.284Z" fill="#8BC5E4"/>
<path fill-rule="evenodd" clip-rule="evenodd" d="M67.0044 204.999L155.807 256.269L207.768 226.269L118.966 174.999L67.0044 204.999Z" fill="#8BC5E4"/>
<path fill-rule="evenodd" clip-rule="evenodd" d="M163.956 257.794L132.008 211.959L183.97 181.959L215.918 227.794L163.956 257.794Z" fill="#8BC5E4"/>
<path fill-rule="evenodd" clip-rule="evenodd" d="M132.008 211.959L183.97 181.959L132.008 211.959Z" fill="#8BC5E4"/>
<path fill-rule="evenodd" clip-rule="evenodd" d="M0 37.5742V213.144L51.9615 183.144V7.57422L0 37.5742Z" fill="#8BC5E4"/>
<path fill-rule="evenodd" clip-rule="evenodd" d="M10.4617 231.404L211.232 347.319L263.194 317.319L62.4232 201.404L10.4617 231.404Z" fill="#8BC5E4"/>
<path fill-rule="evenodd" clip-rule="evenodd" d="M221.702 341.144V165.574L273.664 135.574V311.144L221.702 341.144Z" fill="#8BC5E4"/>
<path fill-rule="evenodd" clip-rule="evenodd" d="M211.232 147.319L10.4617 31.4043L62.4232 1.4043L263.194 117.319L211.232 147.319Z" fill="#8BC5E4"/>
<path fill-rule="evenodd" clip-rule="evenodd" d="M10.4617 31.4043L62.4232 1.4043L10.4617 31.4043Z" fill="#8BC5E4"/>
<path fill-rule="evenodd" clip-rule="evenodd" d="M10.4617 36.9243L211.232 152.839L263.194 122.839L62.4232 6.92432L10.4617 36.9243Z" fill="#8BC5E4"/>
<path fill-rule="evenodd" clip-rule="evenodd" d="M216.974 162.844V338.414L268.936 308.414V132.844L216.974 162.844Z" fill="#8BC5E4"/>
<path fill-rule="evenodd" clip-rule="evenodd" d="M211.232 341.799L10.4617 225.884L62.4232 195.884L263.194 311.799L211.232 341.799Z" fill="#8BC5E4"/>
<path fill-rule="evenodd" clip-rule="evenodd" d="M4.72852 215.874V40.3042L56.69 10.3042V185.874L4.72852 215.874Z" fill="#8BC5E4"/>
<path fill-rule="evenodd" clip-rule="evenodd" d="M10.4617 36.9243L62.4232 6.92432L10.4617 36.9243Z" fill="#8BC5E4"/>
<path fill-rule="evenodd" clip-rule="evenodd" d="M131.047 194.474C131.047 204.439 127.461 211.703 122 215.387L173.962 185.387C179.422 181.703 183.009 174.439 183.009 164.474L131.047 194.474Z" fill="#8BC5E4"/>
<path fill-rule="evenodd" clip-rule="evenodd" d="M122 215.386C118.928 217.459 115.264 218.398 111.31 218.049L163.272 188.049C167.225 188.398 170.89 187.459 173.962 185.386L122 215.386Z" fill="#8BC5E4"/>
<path fill-rule="evenodd" clip-rule="evenodd" d="M111.31 218.049C98.8915 204.909 91.3484 186.554 91.3484 172.264L143.31 142.264C143.31 156.554 150.853 174.909 163.272 188.049L111.31 218.049Z" fill="#8BC5E4"/>
<path fill-rule="evenodd" clip-rule="evenodd" d="M103.811 198.799C105.811 202.544 108.374 206.524 111.674 210.669L163.636 180.669C160.336 176.524 157.773 172.544 155.772 168.799L103.811 198.799Z" fill="#8BC5E4"/>
<path fill-rule="evenodd" clip-rule="evenodd" d="M111.674 210.669C113.631 210.412 115.319 209.852 116.775 209.067L168.737 179.067C167.281 179.852 165.592 180.412 163.636 180.669L111.674 210.669Z" fill="#8BC5E4"/>
<path fill-rule="evenodd" clip-rule="evenodd" d="M116.775 209.067C124.42 204.95 125.66 194.655 125.66 189.514L177.622 159.514C177.622 164.655 176.381 174.95 168.737 179.067L116.775 209.067Z" fill="#8BC5E4"/>
<path fill-rule="evenodd" clip-rule="evenodd" d="M96.8823 173.389C96.8823 177.489 97.4972 185.174 101.845 194.804L153.806 164.804C149.459 155.174 148.844 147.489 148.844 143.389L96.8823 173.389Z" fill="#8BC5E4"/>
<path fill-rule="evenodd" clip-rule="evenodd" d="M67.0043 121.259C65.255 120.249 63.5835 119.674 62.0593 119.494L114.021 89.4941C115.545 89.6741 117.216 90.2491 118.966 91.2591L67.0043 121.259Z" fill="#8BC5E4"/>
<path fill-rule="evenodd" clip-rule="evenodd" d="M160.752 176.474C159.219 174.889 157.556 173.539 155.807 172.529L207.768 142.529C209.518 143.539 211.18 144.889 212.713 146.474L160.752 176.474Z" fill="#8BC5E4"/>
<path fill-rule="evenodd" clip-rule="evenodd" d="M56.1531 121.364C54.4903 123.014 53.5117 125.689 53.5117 129.209L105.473 99.2093C105.473 95.6893 106.452 93.0143 108.115 91.3643L56.1531 121.364Z" fill="#8BC5E4"/>
<path fill-rule="evenodd" clip-rule="evenodd" d="M53.5117 181.469C53.5117 183.579 53.8668 185.784 54.499 187.979L106.461 157.979C105.828 155.784 105.473 153.579 105.473 151.469L53.5117 181.469Z" fill="#8BC5E4"/>
<path fill-rule="evenodd" clip-rule="evenodd" d="M88.0575 178.584C87.5726 175.614 87.3301 172.714 87.3301 169.944L139.292 139.944C139.292 142.714 139.534 145.614 140.019 148.584L88.0575 178.584Z" fill="#8BC5E4"/>
<path fill-rule="evenodd" clip-rule="evenodd" d="M135.065 196.794C135.065 199.714 134.797 202.419 134.303 204.904L186.265 174.904C186.758 172.419 187.027 169.714 187.027 166.794L135.065 196.794Z" fill="#8BC5E4"/>
<path fill-rule="evenodd" clip-rule="evenodd" d="M168.303 253.684C168.944 252.224 169.291 250.424 169.291 248.314L221.252 218.314C221.252 220.424 220.906 222.224 220.265 223.684L168.303 253.684Z" fill="#8BC5E4"/>
<path fill-rule="evenodd" clip-rule="evenodd" d="M169.291 196.054C169.291 192.534 168.312 188.729 166.658 185.164L218.619 155.164C220.274 158.729 221.252 162.534 221.252 166.054L169.291 196.054Z" fill="#8BC5E4"/>
<path fill-rule="evenodd" clip-rule="evenodd" d="M132.008 211.959C130.121 215.914 127.444 218.93 124.21 220.873L176.171 190.873C179.405 188.93 182.082 185.914 183.97 181.959L132.008 211.959Z" fill="#8BC5E4"/>
<path fill-rule="evenodd" clip-rule="evenodd" d="M124.21 220.873C120.706 222.979 116.55 223.826 112.038 223.249L163.999 193.249C168.511 193.826 172.668 192.979 176.171 190.873L124.21 220.873Z" fill="#8BC5E4"/>
<path fill-rule="evenodd" clip-rule="evenodd" d="M110.591 222.414C101.152 212.744 94.1023 200.334 90.3611 188.284L142.323 158.284C146.064 170.334 153.113 182.744 162.553 192.414L110.591 222.414Z" fill="#8BC5E4"/>
<path fill-rule="evenodd" clip-rule="evenodd" d="M58.855 197.114C61.1153 200.419 63.9386 203.229 67.0043 204.999L118.966 174.999C115.9 173.229 113.077 170.419 110.817 167.114L58.855 197.114Z" fill="#8BC5E4"/>
<path fill-rule="evenodd" clip-rule="evenodd" d="M155.807 256.269C158.872 258.039 161.696 258.489 163.956 257.794L215.917 227.794C213.657 228.489 210.834 228.039 207.768 226.269L155.807 256.269Z" fill="#8BC5E4"/>
<path fill-rule="evenodd" clip-rule="evenodd" d="M10.4616 31.4042C7.70141 29.8106 5.18065 29.6202 3.30542 30.5962L55.2669 0.596169C57.1422 -0.379836 59.6629 -0.189372 62.4231 1.40423L10.4616 31.4042Z" fill="#8BC5E4"/>
<path fill-rule="evenodd" clip-rule="evenodd" d="M3.3054 30.5962C1.2739 31.6535 0 34.0798 0 37.5742L51.9615 7.57425C51.9615 4.07985 53.2354 1.65353 55.2669 0.596191L3.3054 30.5962Z" fill="#8BC5E4"/>
<path fill-rule="evenodd" clip-rule="evenodd" d="M0 213.144C0 219.864 4.71118 228.084 10.4616 231.404L62.4231 201.404C56.6727 198.084 51.9615 189.864 51.9615 183.144L0 213.144Z" fill="#8BC5E4"/>
<path fill-rule="evenodd" clip-rule="evenodd" d="M211.232 347.319C213.997 348.915 216.519 349.105 218.396 348.127L270.357 318.127C268.481 319.105 265.958 318.915 263.194 317.319L211.232 347.319Z" fill="#8BC5E4"/>
<path fill-rule="evenodd" clip-rule="evenodd" d="M218.396 348.127C220.429 347.068 221.703 344.639 221.703 341.144L273.664 311.144C273.664 314.639 272.39 317.068 270.358 318.127L218.396 348.127Z" fill="#8BC5E4"/>
<path fill-rule="evenodd" clip-rule="evenodd" d="M221.702 165.574C221.702 158.854 216.991 150.644 211.232 147.319L263.194 117.319C268.953 120.644 273.664 128.854 273.664 135.574L221.702 165.574Z" fill="#8BC5E4"/>
<path fill-rule="evenodd" clip-rule="evenodd" d="M211.232 152.839C214.454 154.699 216.974 159.084 216.974 162.844L268.935 132.844C268.935 129.084 266.415 124.699 263.194 122.839L211.232 152.839Z" fill="#8BC5E4"/>
<path fill-rule="evenodd" clip-rule="evenodd" d="M216.974 338.414C216.974 340.219 216.393 341.5 215.433 342.138L267.395 312.138C268.355 311.5 268.935 310.219 268.935 308.414L216.974 338.414Z" fill="#8BC5E4"/>
<path fill-rule="evenodd" clip-rule="evenodd" d="M215.433 342.138C214.393 342.829 212.907 342.767 211.232 341.799L263.194 311.799C264.869 312.767 266.354 312.829 267.395 312.138L215.433 342.138Z" fill="#8BC5E4"/>
<path fill-rule="evenodd" clip-rule="evenodd" d="M10.4616 225.884C7.24865 224.029 4.72852 219.634 4.72852 215.874L56.69 185.874C56.69 189.634 59.2102 194.029 62.4231 195.884L10.4616 225.884Z" fill="#8BC5E4"/>
<path fill-rule="evenodd" clip-rule="evenodd" d="M4.72852 40.3042C4.72852 38.4994 5.30915 37.221 6.26835 36.5847L58.2299 6.58472C57.2707 7.22102 56.69 8.49936 56.69 10.3042L4.72852 40.3042Z" fill="#8BC5E4"/>
<path fill-rule="evenodd" clip-rule="evenodd" d="M6.26831 36.5848C7.30743 35.8954 8.79083 35.9596 10.4616 36.9242L62.4231 6.92421C60.7524 5.95961 59.269 5.89544 58.2298 6.58477L6.26831 36.5848Z" fill="#8BC5E4"/>
<path d="M111.362 159.829L115.727 163.499L115.675 166.949L124.119 174.034L124.153 170.604L131.047 176.414V194.474C131.047 210.044 122.291 219.019 111.31 218.049C98.8914 204.909 91.3484 186.554 91.3484 172.264V153.564L98.2333 155.719L98.2766 159.114L106.712 161.774L106.668 158.359L111.362 159.829ZM125.712 185.274L103.81 198.799C105.811 202.544 108.374 206.524 111.674 210.669C123.902 209.059 125.66 195.634 125.66 189.514L125.712 185.274ZM111.25 169.754L96.8823 165.809V173.389C96.8823 177.489 97.4971 185.174 101.845 194.804L124.223 180.964L111.25 169.754ZM67.0044 121.259C65.255 120.249 63.5836 119.674 62.0594 119.494L87.33 155.754V147.494L111.362 155.019L135.065 174.994V183.664L160.752 176.474C159.219 174.889 157.556 173.539 155.807 172.529L67.0044 121.259ZM56.1531 121.364C54.4903 123.014 53.5117 125.689 53.5117 129.209V181.469C53.5117 183.579 53.8668 185.784 54.499 187.979L88.0575 178.584C87.5725 175.614 87.33 172.714 87.33 169.944V166.104L56.1531 121.364ZM166.658 185.164L135.065 194.014V196.794C135.065 199.714 134.797 202.419 134.303 204.904L168.303 253.684C168.944 252.224 169.291 250.424 169.291 248.314V196.054C169.291 192.534 168.312 188.729 166.658 185.164ZM132.008 211.959C128.076 220.199 120.715 224.359 112.038 223.249L111.319 223.154L110.591 222.414C101.152 212.744 94.1023 200.334 90.3611 188.284L58.8551 197.114C61.1154 200.419 63.9387 203.229 67.0044 204.999L155.807 256.269C158.872 258.039 161.696 258.489 163.956 257.794L132.008 211.959ZM10.4616 31.4042C4.71118 28.0842 0 30.8542 0 37.5742V213.144C0 219.864 4.71118 228.084 10.4616 231.404L211.232 347.319C216.991 350.644 221.702 347.864 221.702 341.144V165.574C221.702 158.854 216.991 150.644 211.232 147.319L10.4616 31.4042ZM10.4616 36.9242L211.232 152.839C214.454 154.699 216.974 159.084 216.974 162.844V338.414C216.974 342.174 214.454 343.659 211.232 341.799L10.4616 225.884C7.24863 224.029 4.7285 219.634 4.7285 215.874V40.3042C4.7285 36.5442 7.24863 35.0692 10.4616 36.9242Z" fill="#8BC5E4"/>
<path fill-rule="evenodd" clip-rule="evenodd" d="M10.4616 36.9242L211.232 152.839C214.454 154.699 216.974 159.084 216.974 162.844V338.414C216.974 342.174 214.454 343.659 211.232 341.799L10.4616 225.884C7.24863 224.029 4.7285 219.634 4.7285 215.874V40.3042C4.7285 36.5442 7.24863 35.0692 10.4616 36.9242ZM115.727 163.499L111.362 159.829L106.668 158.359L106.712 161.774L98.2766 159.114L98.2333 155.719L91.3484 153.564V172.264C91.3484 186.554 98.8914 204.909 111.31 218.049C122.291 219.019 131.047 210.044 131.047 194.474V176.414L124.153 170.604L124.119 174.034L115.675 166.949L115.727 163.499ZM62.0594 119.494C63.5836 119.674 65.255 120.249 67.0044 121.259L155.807 172.529C157.556 173.539 159.219 174.889 160.752 176.474L135.065 183.664V174.994L111.362 155.019L87.33 147.494V155.754L62.0594 119.494ZM53.5117 129.209C53.5117 125.689 54.4903 123.014 56.1531 121.364L87.33 166.104V169.944C87.33 172.714 87.5725 175.614 88.0575 178.584L54.499 187.979C53.8668 185.784 53.5117 183.579 53.5117 181.469V129.209ZM135.065 194.014L166.658 185.164C168.312 188.729 169.291 192.534 169.291 196.054V248.314C169.291 250.424 168.944 252.224 168.303 253.684L134.303 204.904C134.797 202.419 135.065 199.714 135.065 196.794V194.014ZM112.038 223.249C120.715 224.359 128.076 220.199 132.008 211.959L163.956 257.794C161.696 258.489 158.872 258.039 155.807 256.269L67.0044 204.999C63.9387 203.229 61.1154 200.419 58.8551 197.114L90.3611 188.284C94.1023 200.334 101.152 212.744 110.591 222.414L111.319 223.154L112.038 223.249Z" fill="white"/>
<path d="M111.25 169.754L96.8823 165.809V173.389C96.8823 177.489 97.4971 185.174 101.845 194.804L124.223 180.964L111.25 169.754Z" fill="white"/>
<path d="M125.712 185.274L103.81 198.799C105.811 202.544 108.374 206.524 111.674 210.669C123.902 209.059 125.66 195.634 125.66 189.514L125.712 185.274Z" fill="white"/>
</svg>
