<svg width="226" height="321" viewBox="0 0 226 321" fill="none" xmlns="http://www.w3.org/2000/svg">
<path fill-rule="evenodd" clip-rule="evenodd" d="M25.5564 74.4077V155.318L77.5179 125.318V44.4077L25.5564 74.4077Z" fill="#8BC5E4"/>
<path fill-rule="evenodd" clip-rule="evenodd" d="M25.5564 155.317L62.7782 176.807L114.74 146.807L77.5179 125.317L25.5564 155.317Z" fill="#8BC5E4"/>
<path fill-rule="evenodd" clip-rule="evenodd" d="M62.7781 176.808V210.248L114.74 180.248V146.808L62.7781 176.808Z" fill="#8BC5E4"/>
<path fill-rule="evenodd" clip-rule="evenodd" d="M62.7783 210.247L58.8206 207.962L110.782 177.962L114.74 180.247L62.7783 210.247Z" fill="#8BC5E4"/>
<path fill-rule="evenodd" clip-rule="evenodd" d="M54.4385 210.462V214.222L106.4 184.222V180.462L54.4385 210.462Z" fill="#8BC5E4"/>
<path fill-rule="evenodd" clip-rule="evenodd" d="M58.8206 221.782L145.484 271.817L197.445 241.817L110.782 191.782L58.8206 221.782Z" fill="#8BC5E4"/>
<path fill-rule="evenodd" clip-rule="evenodd" d="M149.857 269.313V265.553L201.818 235.553V239.313L149.857 269.313Z" fill="#8BC5E4"/>
<path fill-rule="evenodd" clip-rule="evenodd" d="M145.484 257.997L141.448 255.667L193.41 225.667L197.445 227.997L145.484 257.997Z" fill="#8BC5E4"/>
<path fill-rule="evenodd" clip-rule="evenodd" d="M141.448 255.668V191.888L193.41 161.888V225.668L141.448 255.668Z" fill="#8BC5E4"/>
<path fill-rule="evenodd" clip-rule="evenodd" d="M138.192 186.267L79.3452 152.292L131.307 122.292L190.153 156.267L138.192 186.267Z" fill="#8BC5E4"/>
<path fill-rule="evenodd" clip-rule="evenodd" d="M79.3452 152.292V105.462L131.307 75.4624V122.292L79.3452 152.292Z" fill="#8BC5E4"/>
<path fill-rule="evenodd" clip-rule="evenodd" d="M79.3452 105.463L25.5564 74.4077L77.5179 44.4077L131.307 75.4627L79.3452 105.463Z" fill="#8BC5E4"/>
<path fill-rule="evenodd" clip-rule="evenodd" d="M25.5564 74.4077L77.5179 44.4077L25.5564 74.4077Z" fill="#8BC5E4"/>
<path fill-rule="evenodd" clip-rule="evenodd" d="M63.2544 106.972L63.2717 117.442L115.233 87.4424L115.216 76.9724L63.2544 106.972Z" fill="#8BC5E4"/>
<path fill-rule="evenodd" clip-rule="evenodd" d="M76.7991 162.692L77.7084 181.307L129.67 151.307L128.761 132.692L76.7991 162.692Z" fill="#8BC5E4"/>
<path fill-rule="evenodd" clip-rule="evenodd" d="M26.1106 151.448L27.0113 135.458L78.9728 105.458L78.0721 121.448L26.1106 151.448Z" fill="#8BC5E4"/>
<path fill-rule="evenodd" clip-rule="evenodd" d="M54.0486 94.6575L106.01 64.6575L54.0486 94.6575Z" fill="#8BC5E4"/>
<path fill-rule="evenodd" clip-rule="evenodd" d="M79.3452 156.462L137.819 190.222L189.781 160.222L131.307 126.462L79.3452 156.462Z" fill="#8BC5E4"/>
<path fill-rule="evenodd" clip-rule="evenodd" d="M137.819 190.223V253.573L189.781 223.573V160.223L137.819 190.223Z" fill="#8BC5E4"/>
<path fill-rule="evenodd" clip-rule="evenodd" d="M137.819 253.573L66.4067 212.343L118.368 182.343L189.781 223.573L137.819 253.573Z" fill="#8BC5E4"/>
<path fill-rule="evenodd" clip-rule="evenodd" d="M66.4067 212.342V178.902L118.368 148.902V182.342L66.4067 212.342Z" fill="#8BC5E4"/>
<path fill-rule="evenodd" clip-rule="evenodd" d="M66.4067 178.902L79.3452 186.372L131.307 156.372L118.368 148.902L66.4067 178.902Z" fill="#8BC5E4"/>
<path fill-rule="evenodd" clip-rule="evenodd" d="M79.3452 186.372V156.462L131.307 126.462V156.372L79.3452 186.372Z" fill="#8BC5E4"/>
<path fill-rule="evenodd" clip-rule="evenodd" d="M79.3452 156.462L131.307 126.462L79.3452 156.462Z" fill="#8BC5E4"/>
<path fill-rule="evenodd" clip-rule="evenodd" d="M105.923 198.477L79.5356 193.792L131.497 163.792L157.885 168.477L105.923 198.477Z" fill="#8BC5E4"/>
<path fill-rule="evenodd" clip-rule="evenodd" d="M80.731 198.413L83.1731 198.853L135.135 168.853L132.692 168.413L80.731 198.413Z" fill="#8BC5E4"/>
<path fill-rule="evenodd" clip-rule="evenodd" d="M88.6204 206.788L91.7294 207.343L143.691 177.343L140.582 176.788L88.6204 206.788Z" fill="#8BC5E4"/>
<path fill-rule="evenodd" clip-rule="evenodd" d="M93.1323 200.623L107.162 203.113L159.123 173.113L145.094 170.623L93.1323 200.623Z" fill="#8BC5E4"/>
<path fill-rule="evenodd" clip-rule="evenodd" d="M116.775 189.792L168.736 159.792L116.775 189.792Z" fill="#8BC5E4"/>
<path fill-rule="evenodd" clip-rule="evenodd" d="M120.785 198.808L172.746 168.808L120.785 198.808Z" fill="#8BC5E4"/>
<path fill-rule="evenodd" clip-rule="evenodd" d="M123.876 249.252L141.586 259.477L193.548 229.477L175.838 219.252L123.876 249.252Z" fill="#8BC5E4"/>
<path fill-rule="evenodd" clip-rule="evenodd" d="M141.586 259.478V264.868L193.548 234.868V229.478L141.586 259.478Z" fill="#8BC5E4"/>
<path fill-rule="evenodd" clip-rule="evenodd" d="M141.586 264.868L123.876 254.643L175.838 224.643L193.548 234.868L141.586 264.868Z" fill="#8BC5E4"/>
<path fill-rule="evenodd" clip-rule="evenodd" d="M123.876 254.642V249.252L175.838 219.252V224.642L123.876 254.642Z" fill="#8BC5E4"/>
<path fill-rule="evenodd" clip-rule="evenodd" d="M123.876 249.252L175.838 219.252L123.876 249.252Z" fill="#8BC5E4"/>
<path fill-rule="evenodd" clip-rule="evenodd" d="M95.384 233.422L147.346 203.422L95.384 233.422Z" fill="#8BC5E4"/>
<path fill-rule="evenodd" clip-rule="evenodd" d="M101.836 237.147L153.797 207.147L101.836 237.147Z" fill="#8BC5E4"/>
<path fill-rule="evenodd" clip-rule="evenodd" d="M108.288 240.873L160.249 210.873L108.288 240.873Z" fill="#8BC5E4"/>
<path fill-rule="evenodd" clip-rule="evenodd" d="M10.6262 36.9673L162.579 124.697L214.541 94.6973L62.5877 6.96729L10.6262 36.9673Z" fill="#8BC5E4"/>
<path fill-rule="evenodd" clip-rule="evenodd" d="M168.407 134.752V310.322L220.369 280.322V104.752L168.407 134.752Z" fill="#8BC5E4"/>
<path fill-rule="evenodd" clip-rule="evenodd" d="M162.579 313.658L10.6262 225.928L62.5877 195.928L214.541 283.658L162.579 313.658Z" fill="#8BC5E4"/>
<path fill-rule="evenodd" clip-rule="evenodd" d="M4.79785 215.862V40.2925L56.7594 10.2925V185.862L4.79785 215.862Z" fill="#8BC5E4"/>
<path fill-rule="evenodd" clip-rule="evenodd" d="M10.6262 36.9673L62.5877 6.96729L10.6262 36.9673Z" fill="#8BC5E4"/>
<path fill-rule="evenodd" clip-rule="evenodd" d="M0 37.5225V213.092L51.9615 183.092V7.52246L0 37.5225Z" fill="#8BC5E4"/>
<path fill-rule="evenodd" clip-rule="evenodd" d="M10.6262 231.447L162.579 319.177L214.541 289.177L62.5877 201.447L10.6262 231.447Z" fill="#8BC5E4"/>
<path fill-rule="evenodd" clip-rule="evenodd" d="M173.205 313.092V137.522L225.167 107.522V283.092L173.205 313.092Z" fill="#8BC5E4"/>
<path fill-rule="evenodd" clip-rule="evenodd" d="M162.579 119.177L10.6262 31.4473L62.5877 1.44727L214.541 89.1773L162.579 119.177Z" fill="#8BC5E4"/>
<path fill-rule="evenodd" clip-rule="evenodd" d="M10.6262 31.4473L62.5877 1.44727L10.6262 31.4473Z" fill="#8BC5E4"/>
<path fill-rule="evenodd" clip-rule="evenodd" d="M58.8205 207.963C57.6565 207.291 56.6004 207.199 55.8167 207.593L107.778 177.593C108.562 177.199 109.618 177.291 110.782 177.963L58.8205 207.963Z" fill="#8BC5E4"/>
<path fill-rule="evenodd" clip-rule="evenodd" d="M55.8167 207.593C54.9677 208.02 54.4385 209.017 54.4385 210.463L106.4 180.463C106.4 179.017 106.929 178.02 107.778 177.593L55.8167 207.593Z" fill="#8BC5E4"/>
<path fill-rule="evenodd" clip-rule="evenodd" d="M54.4385 214.223C54.4385 217.013 56.3957 220.383 58.8206 221.783L110.782 191.783C108.357 190.383 106.4 187.013 106.4 184.223L54.4385 214.223Z" fill="#8BC5E4"/>
<path fill-rule="evenodd" clip-rule="evenodd" d="M145.484 271.817C146.648 272.489 147.702 272.582 148.483 272.188L200.445 242.188C199.663 242.582 198.609 242.489 197.445 241.817L145.484 271.817Z" fill="#8BC5E4"/>
<path fill-rule="evenodd" clip-rule="evenodd" d="M148.483 272.188C149.33 271.761 149.857 270.763 149.857 269.312L201.819 239.312C201.819 240.763 201.292 241.761 200.445 242.188L148.483 272.188Z" fill="#8BC5E4"/>
<path fill-rule="evenodd" clip-rule="evenodd" d="M149.857 265.553C149.857 262.773 147.909 259.398 145.484 257.998L197.445 227.998C199.87 229.398 201.819 232.773 201.819 235.553L149.857 265.553Z" fill="#8BC5E4"/>
<path fill-rule="evenodd" clip-rule="evenodd" d="M141.448 191.888C141.448 189.858 139.967 187.293 138.192 186.268L190.153 156.268C191.929 157.293 193.409 159.858 193.409 161.888L141.448 191.888Z" fill="#8BC5E4"/>
<path fill-rule="evenodd" clip-rule="evenodd" d="M54.0486 94.6575C56.1877 95.9125 58.6905 97.7575 59.5565 99.2175L111.518 69.2175C110.652 67.7575 108.149 65.9125 106.01 64.6575L54.0486 94.6575Z" fill="#8BC5E4"/>
<path fill-rule="evenodd" clip-rule="evenodd" d="M59.5566 99.2175C60.3967 100.473 61.3147 102.193 62.1547 103.078L114.116 73.0775C113.276 72.1925 112.358 70.4725 111.518 69.2175L59.5566 99.2175Z" fill="#8BC5E4"/>
<path fill-rule="evenodd" clip-rule="evenodd" d="M62.1545 103.077C63.3843 104.257 63.341 105.602 63.2544 106.972L115.216 76.9724C115.303 75.6024 115.346 74.2574 114.116 73.0774L62.1545 103.077Z" fill="#8BC5E4"/>
<path fill-rule="evenodd" clip-rule="evenodd" d="M63.2719 117.442C63.0682 122.104 61.8563 125.994 58.3118 128.079L110.273 98.0792C113.818 95.9938 115.03 92.1044 115.233 87.4424L63.2719 117.442Z" fill="#8BC5E4"/>
<path fill-rule="evenodd" clip-rule="evenodd" d="M58.3117 128.079C57.6365 128.476 56.8767 128.808 56.0232 129.067L107.985 99.0673C108.838 98.8081 109.598 98.4763 110.273 98.0791L58.3117 128.079Z" fill="#8BC5E4"/>
<path fill-rule="evenodd" clip-rule="evenodd" d="M56.0232 129.067C58.1536 132.777 62.7782 138.237 66.1644 140.672L118.126 110.672C114.74 108.237 110.115 102.777 107.985 99.0674L56.0232 129.067Z" fill="#8BC5E4"/>
<path fill-rule="evenodd" clip-rule="evenodd" d="M66.1643 140.673C70.4771 143.853 76.3401 152.908 76.7991 162.693L128.761 132.693C128.302 122.908 122.439 113.853 118.126 110.673L66.1643 140.673Z" fill="#8BC5E4"/>
<path fill-rule="evenodd" clip-rule="evenodd" d="M77.7086 181.307C70.0875 178.697 61.2281 174.982 52.386 169.877L104.348 139.877C113.19 144.982 122.049 148.697 129.67 151.307L77.7086 181.307Z" fill="#8BC5E4"/>
<path fill-rule="evenodd" clip-rule="evenodd" d="M52.3858 169.877C44.7215 165.452 35.1086 159.442 26.1106 151.447L78.0721 121.447C87.0701 129.442 96.683 135.452 104.347 139.877L52.3858 169.877Z" fill="#8BC5E4"/>
<path fill-rule="evenodd" clip-rule="evenodd" d="M27.0112 135.457C27.0247 130.343 28.3965 127.043 30.8585 125.402L82.82 95.4019C80.358 97.0434 78.9863 100.343 78.9728 105.457L27.0112 135.457Z" fill="#8BC5E4"/>
<path fill-rule="evenodd" clip-rule="evenodd" d="M30.8586 125.402C33.1313 123.887 36.3329 123.785 40.2529 124.973L92.2144 94.9729C88.2945 93.7849 85.0928 93.8871 82.8202 95.4023L30.8586 125.402Z" fill="#8BC5E4"/>
<path fill-rule="evenodd" clip-rule="evenodd" d="M40.2529 124.972C42.2825 125.422 44.5627 125.084 46.2413 124.138L98.2028 94.1382C96.5242 95.0845 94.2441 95.4218 92.2145 94.9724L40.2529 124.972Z" fill="#8BC5E4"/>
<path fill-rule="evenodd" clip-rule="evenodd" d="M46.2412 124.138C46.5609 123.958 46.8589 123.755 47.1291 123.532L99.0906 93.5322C98.8204 93.7554 98.5225 93.9578 98.2027 94.138L46.2412 124.138Z" fill="#8BC5E4"/>
<path fill-rule="evenodd" clip-rule="evenodd" d="M47.1292 123.532C43.8903 118.552 40.9285 111.322 40.9285 104.542L92.89 74.5425C92.89 81.3225 95.8518 88.5525 99.0907 93.5325L47.1292 123.532Z" fill="#8BC5E4"/>
<path fill-rule="evenodd" clip-rule="evenodd" d="M40.9283 104.543C40.4953 100.453 40.1229 95.3976 40.4606 92.9226L92.4222 62.9226C92.0844 65.3976 92.4568 70.4526 92.8898 74.5426L40.9283 104.543Z" fill="#8BC5E4"/>
<path fill-rule="evenodd" clip-rule="evenodd" d="M40.4607 92.9224C40.627 91.8472 41.2502 90.9713 42.0363 90.4634L93.9978 60.4634C93.2117 60.9713 92.5885 61.8472 92.4222 62.9224L40.4607 92.9224Z" fill="#8BC5E4"/>
<path fill-rule="evenodd" clip-rule="evenodd" d="M42.0364 90.4635C42.888 89.9132 43.9308 89.7947 44.7909 90.3225L96.7524 60.3225C95.8923 59.7947 94.8495 59.9132 93.9979 60.4635L42.0364 90.4635Z" fill="#8BC5E4"/>
<path fill-rule="evenodd" clip-rule="evenodd" d="M44.7908 90.3225C49.857 93.4675 49.6145 92.5275 51.5284 93.3725L103.49 63.3725C101.576 62.5275 101.819 63.4675 96.7523 60.3225L44.7908 90.3225Z" fill="#8BC5E4"/>
<path fill-rule="evenodd" clip-rule="evenodd" d="M51.5286 93.3726C52.1694 93.6226 53.0701 94.0826 54.0487 94.6576L106.01 64.6576C105.032 64.0826 104.131 63.6226 103.49 63.3726L51.5286 93.3726Z" fill="#8BC5E4"/>
<path fill-rule="evenodd" clip-rule="evenodd" d="M116.775 189.793C113.848 188.103 111.042 187.823 108.972 189.008L160.933 159.008C163.003 157.823 165.809 158.103 168.736 159.793L116.775 189.793Z" fill="#8BC5E4"/>
<path fill-rule="evenodd" clip-rule="evenodd" d="M108.972 189.008C106.902 190.183 105.742 192.743 105.742 196.103L157.703 166.103C157.703 162.743 158.864 160.183 160.934 159.008L108.972 189.008Z" fill="#8BC5E4"/>
<path fill-rule="evenodd" clip-rule="evenodd" d="M105.742 196.103C105.742 196.863 105.802 197.658 105.924 198.478L157.885 168.478C157.764 167.658 157.703 166.863 157.703 166.103L105.742 196.103Z" fill="#8BC5E4"/>
<path fill-rule="evenodd" clip-rule="evenodd" d="M79.5358 193.792C79.2577 193.728 79.0097 193.758 78.8081 193.867L130.77 163.867C130.971 163.758 131.219 163.728 131.497 163.792L79.5358 193.792Z" fill="#8BC5E4"/>
<path fill-rule="evenodd" clip-rule="evenodd" d="M78.808 193.867C78.5515 194.006 78.3701 194.275 78.2974 194.648L130.259 164.648C130.332 164.275 130.513 164.006 130.77 163.867L78.808 193.867Z" fill="#8BC5E4"/>
<path fill-rule="evenodd" clip-rule="evenodd" d="M78.2973 194.647C78.1674 195.322 78.4012 196.227 78.9035 197.007L130.865 167.007C130.363 166.227 130.129 165.322 130.259 164.647L78.2973 194.647Z" fill="#8BC5E4"/>
<path fill-rule="evenodd" clip-rule="evenodd" d="M78.9036 197.008C79.4145 197.793 80.1073 198.333 80.7309 198.413L132.692 168.413C132.069 168.333 131.376 167.793 130.865 167.008L78.9036 197.008Z" fill="#8BC5E4"/>
<path fill-rule="evenodd" clip-rule="evenodd" d="M83.1731 198.853C84.0911 202.103 85.0177 205.378 85.9097 208.943L137.871 178.943C136.979 175.378 136.053 172.103 135.135 168.853L83.1731 198.853Z" fill="#8BC5E4"/>
<path fill-rule="evenodd" clip-rule="evenodd" d="M85.9097 208.942C86.0915 209.777 86.6198 210.632 87.2607 211.162L139.222 181.162C138.581 180.632 138.053 179.777 137.871 178.942L85.9097 208.942Z" fill="#8BC5E4"/>
<path fill-rule="evenodd" clip-rule="evenodd" d="M87.2607 211.163C87.8583 211.655 88.4705 211.8 88.9018 211.571L140.863 181.571C140.432 181.8 139.82 181.655 139.222 181.163L87.2607 211.163Z" fill="#8BC5E4"/>
<path fill-rule="evenodd" clip-rule="evenodd" d="M88.9019 211.571C88.9394 211.551 88.9755 211.528 89.0101 211.502L140.972 181.502C140.937 181.528 140.901 181.551 140.863 181.571L88.9019 211.571Z" fill="#8BC5E4"/>
<path fill-rule="evenodd" clip-rule="evenodd" d="M89.01 211.502C89.443 211.172 89.5729 210.447 89.3478 209.607L141.309 179.607C141.534 180.447 141.405 181.172 140.972 181.502L89.01 211.502Z" fill="#8BC5E4"/>
<path fill-rule="evenodd" clip-rule="evenodd" d="M89.3478 209.608C89.1053 208.648 88.8628 207.708 88.6204 206.788L140.582 176.788C140.824 177.708 141.067 178.648 141.309 179.608L89.3478 209.608Z" fill="#8BC5E4"/>
<path fill-rule="evenodd" clip-rule="evenodd" d="M91.7295 207.343C91.9893 208.323 92.2491 209.333 92.5003 210.348L144.462 180.348C144.211 179.333 143.951 178.323 143.691 177.343L91.7295 207.343Z" fill="#8BC5E4"/>
<path fill-rule="evenodd" clip-rule="evenodd" d="M92.5002 210.348C92.6908 211.188 93.2104 212.038 93.8599 212.573L145.821 182.573C145.172 182.038 144.652 181.188 144.462 180.348L92.5002 210.348Z" fill="#8BC5E4"/>
<path fill-rule="evenodd" clip-rule="evenodd" d="M93.8599 212.572C94.4574 213.064 95.0696 213.21 95.501 212.981L147.462 182.981C147.031 183.21 146.419 183.064 145.821 182.572L93.8599 212.572Z" fill="#8BC5E4"/>
<path fill-rule="evenodd" clip-rule="evenodd" d="M95.501 212.981C95.5385 212.961 95.5746 212.938 95.6093 212.913L147.571 182.913C147.536 182.938 147.5 182.961 147.463 182.981L95.501 212.981Z" fill="#8BC5E4"/>
<path fill-rule="evenodd" clip-rule="evenodd" d="M95.6091 212.913C96.0421 212.583 96.172 211.858 95.9382 211.013L147.9 181.013C148.134 181.858 148.004 182.583 147.571 182.913L95.6091 212.913Z" fill="#8BC5E4"/>
<path fill-rule="evenodd" clip-rule="evenodd" d="M95.9382 211.013C95.0116 207.278 94.0503 203.893 93.1323 200.623L145.094 170.623C146.012 173.893 146.973 177.278 147.9 181.013L95.9382 211.013Z" fill="#8BC5E4"/>
<path fill-rule="evenodd" clip-rule="evenodd" d="M107.162 203.112C109.11 208.237 112.782 212.837 116.775 215.142L168.736 185.142C164.744 182.837 161.072 178.237 159.123 173.112L107.162 203.112Z" fill="#8BC5E4"/>
<path fill-rule="evenodd" clip-rule="evenodd" d="M116.775 215.143C119.693 216.828 122.499 217.118 124.569 215.933L176.531 185.933C174.461 187.118 171.655 186.828 168.736 185.143L116.775 215.143Z" fill="#8BC5E4"/>
<path fill-rule="evenodd" clip-rule="evenodd" d="M124.569 215.932C126.639 214.747 127.799 212.197 127.799 208.837L179.761 178.837C179.761 182.197 178.6 184.747 176.531 185.932L124.569 215.932Z" fill="#8BC5E4"/>
<path fill-rule="evenodd" clip-rule="evenodd" d="M127.799 208.837C127.799 201.837 122.863 193.307 116.775 189.792L168.736 159.792C174.825 163.307 179.761 171.837 179.761 178.837L127.799 208.837Z" fill="#8BC5E4"/>
<path fill-rule="evenodd" clip-rule="evenodd" d="M120.785 198.808C121.815 199.403 122.811 200.448 123.547 201.723L175.509 171.723C174.773 170.448 173.777 169.403 172.746 168.808L120.785 198.808Z" fill="#8BC5E4"/>
<path fill-rule="evenodd" clip-rule="evenodd" d="M123.547 201.723C124.275 202.983 124.69 204.363 124.682 205.548L176.643 175.548C176.652 174.363 176.236 172.983 175.509 171.723L123.547 201.723Z" fill="#8BC5E4"/>
<path fill-rule="evenodd" clip-rule="evenodd" d="M124.682 205.548C124.682 206.733 124.281 207.582 123.625 208.005L175.587 178.005C176.242 177.582 176.643 176.733 176.643 175.548L124.682 205.548Z" fill="#8BC5E4"/>
<path fill-rule="evenodd" clip-rule="evenodd" d="M123.625 208.005C122.915 208.464 121.906 208.425 120.785 207.777L172.746 177.777C173.868 178.425 174.876 178.464 175.587 178.005L123.625 208.005Z" fill="#8BC5E4"/>
<path fill-rule="evenodd" clip-rule="evenodd" d="M120.785 207.777C118.628 206.532 116.879 203.512 116.879 201.042L168.84 171.042C168.84 173.512 170.59 176.532 172.746 177.777L120.785 207.777Z" fill="#8BC5E4"/>
<path fill-rule="evenodd" clip-rule="evenodd" d="M116.879 201.042C116.879 199.852 117.295 198.952 118.022 198.532L169.984 168.532C169.256 168.952 168.84 169.852 168.84 171.042L116.879 201.042Z" fill="#8BC5E4"/>
<path fill-rule="evenodd" clip-rule="evenodd" d="M118.022 198.532C118.758 198.107 119.745 198.207 120.785 198.807L172.746 168.807C171.707 168.207 170.72 168.107 169.983 168.532L118.022 198.532Z" fill="#8BC5E4"/>
<path fill-rule="evenodd" clip-rule="evenodd" d="M95.384 233.422C96.5099 234.072 97.4192 235.647 97.4192 236.937L149.381 206.937C149.381 205.647 148.471 204.072 147.346 203.422L95.384 233.422Z" fill="#8BC5E4"/>
<path fill-rule="evenodd" clip-rule="evenodd" d="M97.4191 236.938C97.4191 237.557 97.2096 238 96.8672 238.221L148.829 208.221C149.171 208 149.381 207.557 149.381 206.938L97.4191 236.938Z" fill="#8BC5E4"/>
<path fill-rule="evenodd" clip-rule="evenodd" d="M96.8673 238.221C96.4964 238.461 95.9695 238.441 95.384 238.103L147.346 208.103C147.931 208.441 148.458 208.461 148.829 208.221L96.8673 238.221Z" fill="#8BC5E4"/>
<path fill-rule="evenodd" clip-rule="evenodd" d="M95.384 238.102C94.2582 237.452 93.3489 235.877 93.3489 234.587L145.31 204.587C145.31 205.877 146.22 207.452 147.346 208.102L95.384 238.102Z" fill="#8BC5E4"/>
<path fill-rule="evenodd" clip-rule="evenodd" d="M93.3489 234.587C93.3489 233.968 93.5584 233.525 93.9008 233.304L145.862 203.304C145.52 203.525 145.31 203.968 145.31 204.587L93.3489 234.587Z" fill="#8BC5E4"/>
<path fill-rule="evenodd" clip-rule="evenodd" d="M93.9009 233.304C94.2718 233.064 94.7987 233.085 95.3841 233.423L147.346 203.423C146.76 203.085 146.233 203.064 145.862 203.304L93.9009 233.304Z" fill="#8BC5E4"/>
<path fill-rule="evenodd" clip-rule="evenodd" d="M101.836 237.147C102.962 237.797 103.871 239.372 103.871 240.662L155.833 210.662C155.833 209.372 154.923 207.797 153.797 207.147L101.836 237.147Z" fill="#8BC5E4"/>
<path fill-rule="evenodd" clip-rule="evenodd" d="M103.871 240.663C103.871 241.282 103.661 241.725 103.319 241.946L155.281 211.946C155.623 211.725 155.833 211.282 155.833 210.663L103.871 240.663Z" fill="#8BC5E4"/>
<path fill-rule="evenodd" clip-rule="evenodd" d="M103.319 241.946C102.948 242.185 102.421 242.165 101.836 241.827L153.797 211.827C154.383 212.165 154.91 212.185 155.281 211.946L103.319 241.946Z" fill="#8BC5E4"/>
<path fill-rule="evenodd" clip-rule="evenodd" d="M101.836 241.827C100.71 241.177 99.8008 239.603 99.8008 238.312L151.762 208.312C151.762 209.602 152.672 211.177 153.797 211.827L101.836 241.827Z" fill="#8BC5E4"/>
<path fill-rule="evenodd" clip-rule="evenodd" d="M99.8008 238.313C99.8008 237.694 100.01 237.251 100.353 237.029L152.314 207.029C151.972 207.251 151.762 207.694 151.762 208.313L99.8008 238.313Z" fill="#8BC5E4"/>
<path fill-rule="evenodd" clip-rule="evenodd" d="M100.353 237.029C100.724 236.789 101.251 236.809 101.836 237.147L153.798 207.147C153.212 206.809 152.685 206.789 152.314 207.029L100.353 237.029Z" fill="#8BC5E4"/>
<path fill-rule="evenodd" clip-rule="evenodd" d="M108.288 240.873C109.414 241.523 110.323 243.098 110.323 244.388L162.285 214.388C162.285 213.098 161.375 211.523 160.249 210.873L108.288 240.873Z" fill="#8BC5E4"/>
<path fill-rule="evenodd" clip-rule="evenodd" d="M110.323 244.388C110.323 245.007 110.113 245.45 109.771 245.671L161.733 215.671C162.075 215.45 162.284 215.007 162.284 214.388L110.323 244.388Z" fill="#8BC5E4"/>
<path fill-rule="evenodd" clip-rule="evenodd" d="M109.771 245.671C109.4 245.911 108.873 245.891 108.288 245.553L160.249 215.553C160.835 215.891 161.362 215.911 161.733 215.671L109.771 245.671Z" fill="#8BC5E4"/>
<path fill-rule="evenodd" clip-rule="evenodd" d="M108.288 245.553C107.162 244.903 106.253 243.328 106.253 242.038L158.214 212.038C158.214 213.328 159.124 214.903 160.249 215.553L108.288 245.553Z" fill="#8BC5E4"/>
<path fill-rule="evenodd" clip-rule="evenodd" d="M106.253 242.037C106.253 241.418 106.462 240.975 106.805 240.754L158.766 210.754C158.424 210.975 158.214 211.418 158.214 212.037L106.253 242.037Z" fill="#8BC5E4"/>
<path fill-rule="evenodd" clip-rule="evenodd" d="M106.805 240.754C107.176 240.515 107.703 240.535 108.288 240.873L160.249 210.873C159.664 210.535 159.137 210.515 158.766 210.754L106.805 240.754Z" fill="#8BC5E4"/>
<path fill-rule="evenodd" clip-rule="evenodd" d="M162.579 124.697C165.852 126.587 168.407 130.992 168.407 134.752L220.369 104.752C220.369 100.992 217.814 96.5873 214.54 94.6973L162.579 124.697Z" fill="#8BC5E4"/>
<path fill-rule="evenodd" clip-rule="evenodd" d="M168.407 310.322C168.407 312.127 167.819 313.403 166.844 314.033L218.806 284.033C219.78 283.403 220.369 282.127 220.369 280.322L168.407 310.322Z" fill="#8BC5E4"/>
<path fill-rule="evenodd" clip-rule="evenodd" d="M166.844 314.033C165.789 314.716 164.281 314.64 162.579 313.657L214.54 283.657C216.243 284.64 217.751 284.716 218.806 284.033L166.844 314.033Z" fill="#8BC5E4"/>
<path fill-rule="evenodd" clip-rule="evenodd" d="M10.6262 225.927C7.35263 224.037 4.79785 219.622 4.79785 215.862L56.7594 185.862C56.7594 189.622 59.3142 194.037 62.5877 195.927L10.6262 225.927Z" fill="#8BC5E4"/>
<path fill-rule="evenodd" clip-rule="evenodd" d="M4.79785 40.2926C4.79785 38.4878 5.38647 37.2141 6.36067 36.5864L58.3222 6.58643C57.348 7.21407 56.7594 8.48779 56.7594 10.2926L4.79785 40.2926Z" fill="#8BC5E4"/>
<path fill-rule="evenodd" clip-rule="evenodd" d="M6.3606 36.5865C7.41598 35.9066 8.92387 35.9849 10.6261 36.9677L62.5877 6.96767C60.8854 5.98487 59.3775 5.90655 58.3221 6.5865L6.3606 36.5865Z" fill="#8BC5E4"/>
<path fill-rule="evenodd" clip-rule="evenodd" d="M10.6261 31.4476C7.82016 29.8276 5.25967 29.6142 3.35547 30.5734L55.317 0.573435C57.2212 -0.385847 59.7817 -0.172439 62.5876 1.44756L10.6261 31.4476Z" fill="#8BC5E4"/>
<path fill-rule="evenodd" clip-rule="evenodd" d="M3.35552 30.5732C1.29264 31.6125 0 34.028 0 37.5224L51.9615 7.52237C51.9615 4.02797 53.2542 1.61246 55.317 0.573242L3.35552 30.5732Z" fill="#8BC5E4"/>
<path fill-rule="evenodd" clip-rule="evenodd" d="M0 213.093C0 219.813 4.78046 228.073 10.6261 231.448L62.5877 201.448C56.742 198.073 51.9615 189.813 51.9615 183.093L0 213.093Z" fill="#8BC5E4"/>
<path fill-rule="evenodd" clip-rule="evenodd" d="M162.579 319.178C165.385 320.798 167.945 321.009 169.849 320.047L221.811 290.047C219.907 291.009 217.346 290.798 214.54 289.178L162.579 319.178Z" fill="#8BC5E4"/>
<path fill-rule="evenodd" clip-rule="evenodd" d="M169.85 320.047C171.912 319.005 173.205 316.587 173.205 313.093L225.167 283.093C225.167 286.587 223.874 289.005 221.811 290.047L169.85 320.047Z" fill="#8BC5E4"/>
<path fill-rule="evenodd" clip-rule="evenodd" d="M173.205 137.522C173.205 130.802 168.425 122.552 162.579 119.177L214.54 89.1775C220.386 92.5525 225.167 100.802 225.167 107.522L173.205 137.522Z" fill="#8BC5E4"/>
<path d="M25.5564 74.4076V155.318L62.7782 176.808V210.248L58.8204 207.963C56.3956 206.563 54.4384 207.683 54.4384 210.463V214.223C54.4384 217.013 56.3956 220.383 58.8204 221.783L145.484 271.818C147.908 273.218 149.857 272.103 149.857 269.313V265.553C149.857 262.773 147.908 259.398 145.484 257.998L141.448 255.668V191.888C141.448 189.858 139.967 187.293 138.192 186.268L79.3453 152.293V105.463L25.5564 74.4076ZM54.0486 94.6576C56.1877 95.9126 58.6905 97.7576 59.5566 99.2176C60.3966 100.473 61.3146 102.193 62.1546 103.078C63.3844 104.258 63.3411 105.603 63.2545 106.973L63.2718 117.443C63.0293 122.993 61.3579 127.448 56.0232 129.068C58.1536 132.778 62.7782 138.238 66.1643 140.673C70.4771 143.853 76.3401 152.908 76.7991 162.693L77.7085 181.308C70.0874 178.698 61.228 174.983 52.3859 169.878C44.7216 165.453 35.1087 159.443 26.1107 151.448L27.0113 135.458C27.0373 125.623 32.0862 122.498 40.2529 124.973C42.6691 125.508 45.4403 124.928 47.1291 123.533C43.8902 118.553 40.9284 111.323 40.9284 104.543C40.4953 100.453 40.123 95.3976 40.4607 92.9226C40.8071 90.6826 43.1367 89.3076 44.7908 90.3226C49.8571 93.4676 49.6146 92.5276 51.5285 93.3726C52.1694 93.6226 53.07 94.0826 54.0486 94.6576ZM79.3453 156.463L137.819 190.223V253.573L66.4068 212.343V178.903L79.3453 186.373V156.463ZM116.775 189.793C113.848 188.103 111.042 187.823 108.972 189.008C106.902 190.183 105.742 192.743 105.742 196.103C105.742 196.863 105.802 197.658 105.924 198.478L79.5358 193.793C78.9036 193.648 78.4273 193.983 78.2974 194.648C78.1675 195.323 78.4013 196.228 78.9036 197.008C79.4145 197.793 80.1074 198.333 80.7309 198.413L83.1731 198.853C83.1855 198.897 83.1979 198.941 83.2104 198.985C84.1161 202.191 85.0298 205.426 85.9097 208.943C86.0916 209.778 86.6199 210.633 87.2607 211.163C87.9102 211.698 88.5771 211.823 89.0101 211.503C89.4431 211.173 89.573 210.448 89.3478 209.608C89.1054 208.648 88.8629 207.708 88.6204 206.788L91.7294 207.343C91.9892 208.323 92.249 209.333 92.5002 210.348C92.6907 211.188 93.2103 212.038 93.8598 212.573C94.5094 213.108 95.1762 213.233 95.6092 212.913C96.0422 212.583 96.1721 211.858 95.9383 211.013C95.0116 207.278 94.0504 203.893 93.1324 200.623L107.162 203.113C109.111 208.238 112.782 212.838 116.775 215.143C119.693 216.828 122.499 217.118 124.569 215.933C126.639 214.748 127.799 212.198 127.799 208.838C127.799 201.838 122.863 193.308 116.775 189.793ZM120.785 198.808C121.815 199.403 122.811 200.448 123.547 201.723C124.275 202.983 124.69 204.363 124.682 205.548C124.682 208.018 122.941 209.023 120.785 207.778C118.628 206.533 116.879 203.513 116.879 201.043C116.879 199.853 117.294 198.953 118.022 198.533C118.758 198.108 119.745 198.208 120.785 198.808ZM123.876 249.253L141.587 259.478V264.868L123.876 254.643V249.253ZM95.384 233.423C96.5099 234.073 97.4192 235.648 97.4192 236.938C97.4192 238.228 96.5099 238.753 95.384 238.103C94.2582 237.453 93.3489 235.878 93.3489 234.588C93.3489 233.298 94.2582 232.773 95.384 233.423ZM101.836 237.148C102.962 237.798 103.871 239.373 103.871 240.663C103.871 241.953 102.962 242.478 101.836 241.828C100.71 241.178 99.8008 239.603 99.8008 238.313C99.8008 237.023 100.71 236.498 101.836 237.148ZM108.288 240.873C109.414 241.523 110.323 243.098 110.323 244.388C110.323 245.678 109.414 246.203 108.288 245.553C107.162 244.903 106.253 243.328 106.253 242.038C106.253 240.748 107.162 240.223 108.288 240.873ZM10.6261 36.9676L162.579 124.698C165.853 126.588 168.407 130.993 168.407 134.753V310.323C168.407 314.083 165.853 315.548 162.579 313.658L10.6261 225.928C7.35256 224.038 4.79778 219.623 4.79778 215.863V40.2926C4.79778 36.5326 7.35256 35.0776 10.6261 36.9676ZM10.6261 31.4476C4.78046 28.0726 0 30.8026 0 37.5226V213.093C0 219.813 4.78046 228.073 10.6261 231.448L162.579 319.178C168.425 322.553 173.205 319.813 173.205 313.093V137.523C173.205 130.803 168.425 122.553 162.579 119.178L10.6261 31.4476Z" fill="#8BC5E4"/>
<path fill-rule="evenodd" clip-rule="evenodd" d="M10.6261 36.9676L162.579 124.698C165.853 126.588 168.407 130.993 168.407 134.753V310.323C168.407 314.083 165.853 315.548 162.579 313.658L10.6261 225.928C7.35256 224.038 4.79778 219.623 4.79778 215.863V40.2926C4.79778 36.5326 7.35256 35.0776 10.6261 36.9676ZM25.5564 155.318V74.4076L79.3453 105.463V152.293L138.192 186.268C139.967 187.293 141.448 189.858 141.448 191.888V255.668L145.484 257.998C147.908 259.398 149.857 262.773 149.857 265.553V269.313C149.857 272.103 147.908 273.218 145.484 271.818L58.8204 221.783C56.3956 220.383 54.4384 217.013 54.4384 214.223V210.463C54.4384 207.683 56.3956 206.563 58.8204 207.963L62.7782 210.248V176.808L25.5564 155.318Z" fill="white"/>
<path d="M54.0486 94.6576C56.1877 95.9126 58.6905 97.7576 59.5566 99.2176C60.3966 100.473 61.3146 102.193 62.1546 103.078C63.3844 104.258 63.3411 105.603 63.2545 106.973L63.2718 117.443C63.0293 122.993 61.3579 127.448 56.0232 129.068C58.1536 132.778 62.7782 138.238 66.1643 140.673C70.4771 143.853 76.3401 152.908 76.7991 162.693L77.7085 181.308C70.0874 178.698 61.228 174.983 52.3859 169.878C44.7216 165.453 35.1087 159.443 26.1107 151.448L27.0113 135.458C27.0373 125.623 32.0862 122.498 40.2529 124.973C42.6691 125.508 45.4403 124.928 47.1291 123.533C43.8902 118.553 40.9284 111.323 40.9284 104.543C40.4953 100.453 40.123 95.3976 40.4607 92.9226C40.8071 90.6826 43.1367 89.3076 44.7908 90.3226C49.8571 93.4676 49.6146 92.5276 51.5285 93.3726C52.1694 93.6226 53.07 94.0826 54.0486 94.6576Z" fill="white"/>
<path fill-rule="evenodd" clip-rule="evenodd" d="M79.3453 156.463L137.819 190.223V253.573L66.4068 212.343V178.903L79.3453 186.373V156.463ZM108.972 189.008C111.042 187.823 113.848 188.103 116.775 189.793C122.863 193.308 127.799 201.838 127.799 208.838C127.799 212.198 126.639 214.748 124.569 215.933C122.499 217.118 119.693 216.828 116.775 215.143C112.782 212.838 109.111 208.238 107.162 203.113L93.1324 200.623C94.0504 203.893 95.0116 207.278 95.9383 211.013C96.1721 211.858 96.0422 212.583 95.6092 212.913C95.1762 213.233 94.5094 213.108 93.8598 212.573C93.2103 212.038 92.6907 211.188 92.5002 210.348C92.249 209.333 91.9892 208.323 91.7294 207.343L88.6204 206.788C88.8629 207.708 89.1054 208.648 89.3478 209.608C89.573 210.448 89.4431 211.173 89.0101 211.503C88.5771 211.823 87.9102 211.698 87.2607 211.163C86.6199 210.633 86.0916 209.778 85.9097 208.943C85.0298 205.426 84.1161 202.191 83.2104 198.985L83.1731 198.853L80.7309 198.413C80.1074 198.333 79.4145 197.793 78.9036 197.008C78.4013 196.228 78.1675 195.323 78.2974 194.648C78.4273 193.983 78.9036 193.648 79.5358 193.793L105.924 198.478C105.802 197.658 105.742 196.863 105.742 196.103C105.742 192.743 106.902 190.183 108.972 189.008Z" fill="white"/>
<path d="M120.785 198.808C121.815 199.403 122.811 200.448 123.547 201.723C124.275 202.983 124.69 204.363 124.682 205.548C124.682 208.018 122.941 209.023 120.785 207.778C118.628 206.533 116.879 203.513 116.879 201.043C116.879 199.853 117.294 198.953 118.022 198.533C118.758 198.108 119.745 198.208 120.785 198.808Z" fill="white"/>
<path d="M123.876 249.253L141.587 259.478V264.868L123.876 254.643V249.253Z" fill="white"/>
<path d="M108.288 240.873C109.414 241.523 110.323 243.098 110.323 244.388C110.323 245.678 109.414 246.203 108.288 245.553C107.162 244.903 106.253 243.328 106.253 242.038C106.253 240.748 107.162 240.223 108.288 240.873Z" fill="white"/>
<path d="M101.836 237.148C102.962 237.798 103.871 239.373 103.871 240.663C103.871 241.953 102.962 242.478 101.836 241.828C100.71 241.178 99.8008 239.603 99.8008 238.313C99.8008 237.023 100.71 236.498 101.836 237.148Z" fill="white"/>
<path d="M95.384 233.423C96.5099 234.073 97.4192 235.648 97.4192 236.938C97.4192 238.228 96.5099 238.753 95.384 238.103C94.2582 237.453 93.3489 235.878 93.3489 234.588C93.3489 233.298 94.2582 232.773 95.384 233.423Z" fill="white"/>
</svg>
