<svg width="274" height="349" viewBox="0 0 274 349" fill="none" xmlns="http://www.w3.org/2000/svg">
<path fill-rule="evenodd" clip-rule="evenodd" d="M162.406 268.097L166.71 261.922L218.671 231.922L214.367 238.097L162.406 268.097Z" fill="#8BC5E4"/>
<path fill-rule="evenodd" clip-rule="evenodd" d="M166.71 261.922L145.12 234.847L197.081 204.847L218.671 231.922L166.71 261.922Z" fill="#8BC5E4"/>
<path fill-rule="evenodd" clip-rule="evenodd" d="M145.12 234.847L149.718 228.242L201.68 198.242L197.081 204.847L145.12 234.847Z" fill="#8BC5E4"/>
<path fill-rule="evenodd" clip-rule="evenodd" d="M149.719 228.242L171.309 255.317L223.27 225.317L201.68 198.242L149.719 228.242Z" fill="#8BC5E4"/>
<path fill-rule="evenodd" clip-rule="evenodd" d="M171.308 255.317L175.63 249.142L227.591 219.142L223.27 225.317L171.308 255.317Z" fill="#8BC5E4"/>
<path fill-rule="evenodd" clip-rule="evenodd" d="M175.63 249.142L179.692 272.007L231.653 242.007L227.591 219.142L175.63 249.142Z" fill="#8BC5E4"/>
<path fill-rule="evenodd" clip-rule="evenodd" d="M179.692 272.008L162.406 268.098L214.367 238.098L231.653 242.008L179.692 272.008Z" fill="#8BC5E4"/>
<path fill-rule="evenodd" clip-rule="evenodd" d="M162.406 268.098L214.367 238.098L162.406 268.098Z" fill="#8BC5E4"/>
<path fill-rule="evenodd" clip-rule="evenodd" d="M162.388 170.147L166.693 181.292L218.654 151.292L214.35 140.147L162.388 170.147Z" fill="#8BC5E4"/>
<path fill-rule="evenodd" clip-rule="evenodd" d="M166.693 181.292L145.103 183.437L197.064 153.437L218.654 151.292L166.693 181.292Z" fill="#8BC5E4"/>
<path fill-rule="evenodd" clip-rule="evenodd" d="M145.103 183.438L149.692 195.347L201.654 165.347L197.064 153.438L145.103 183.438Z" fill="#8BC5E4"/>
<path fill-rule="evenodd" clip-rule="evenodd" d="M149.693 195.348L171.291 193.208L223.253 163.208L201.654 165.348L149.693 195.348Z" fill="#8BC5E4"/>
<path fill-rule="evenodd" clip-rule="evenodd" d="M171.291 193.208L175.604 204.368L227.565 174.368L223.253 163.208L171.291 193.208Z" fill="#8BC5E4"/>
<path fill-rule="evenodd" clip-rule="evenodd" d="M175.604 204.368L179.674 186.208L231.636 156.208L227.566 174.368L175.604 204.368Z" fill="#8BC5E4"/>
<path fill-rule="evenodd" clip-rule="evenodd" d="M179.674 186.207L162.388 170.147L214.35 140.147L231.636 156.207L179.674 186.207Z" fill="#8BC5E4"/>
<path fill-rule="evenodd" clip-rule="evenodd" d="M162.388 170.147L214.35 140.147L162.388 170.147Z" fill="#8BC5E4"/>
<path fill-rule="evenodd" clip-rule="evenodd" d="M176.253 211.752V221.772L228.215 191.772V181.752L176.253 211.752Z" fill="#8BC5E4"/>
<path fill-rule="evenodd" clip-rule="evenodd" d="M176.254 221.772L151.286 207.357L203.248 177.357L228.215 191.772L176.254 221.772Z" fill="#8BC5E4"/>
<path fill-rule="evenodd" clip-rule="evenodd" d="M151.286 207.357V218.057L203.248 188.057V177.357L151.286 207.357Z" fill="#8BC5E4"/>
<path fill-rule="evenodd" clip-rule="evenodd" d="M151.286 218.057L176.254 232.472L228.215 202.472L203.248 188.057L151.286 218.057Z" fill="#8BC5E4"/>
<path fill-rule="evenodd" clip-rule="evenodd" d="M176.253 232.472V242.492L228.215 212.492V202.472L176.253 232.472Z" fill="#8BC5E4"/>
<path fill-rule="evenodd" clip-rule="evenodd" d="M176.253 242.492L188.586 234.252L240.547 204.252L228.215 212.492L176.253 242.492Z" fill="#8BC5E4"/>
<path fill-rule="evenodd" clip-rule="evenodd" d="M188.586 234.252L176.253 211.752L228.215 181.752L240.547 204.252L188.586 234.252Z" fill="#8BC5E4"/>
<path fill-rule="evenodd" clip-rule="evenodd" d="M176.253 211.752L228.215 181.752L176.253 211.752Z" fill="#8BC5E4"/>
<path fill-rule="evenodd" clip-rule="evenodd" d="M58.0757 143.522V153.542L110.037 123.542V113.522L58.0757 143.522Z" fill="#8BC5E4"/>
<path fill-rule="evenodd" clip-rule="evenodd" d="M58.0757 153.542L33.1168 139.132L85.0783 109.132L110.037 123.542L58.0757 153.542Z" fill="#8BC5E4"/>
<path fill-rule="evenodd" clip-rule="evenodd" d="M33.1168 139.132V149.832L85.0783 119.832V109.132L33.1168 139.132Z" fill="#8BC5E4"/>
<path fill-rule="evenodd" clip-rule="evenodd" d="M33.1168 149.833L58.0757 164.243L110.037 134.243L85.0783 119.833L33.1168 149.833Z" fill="#8BC5E4"/>
<path fill-rule="evenodd" clip-rule="evenodd" d="M58.0757 164.242V174.262L110.037 144.262V134.242L58.0757 164.242Z" fill="#8BC5E4"/>
<path fill-rule="evenodd" clip-rule="evenodd" d="M58.0757 174.262L70.4165 166.027L122.378 136.027L110.037 144.262L58.0757 174.262Z" fill="#8BC5E4"/>
<path fill-rule="evenodd" clip-rule="evenodd" d="M70.4165 166.027L58.0757 143.522L110.037 113.522L122.378 136.027L70.4165 166.027Z" fill="#8BC5E4"/>
<path fill-rule="evenodd" clip-rule="evenodd" d="M58.0757 143.522L110.037 113.522L58.0757 143.522Z" fill="#8BC5E4"/>
<path fill-rule="evenodd" clip-rule="evenodd" d="M110.245 150.002L162.207 120.002L110.245 150.002Z" fill="#8BC5E4"/>
<path fill-rule="evenodd" clip-rule="evenodd" d="M110.245 158.342L162.207 128.342L110.245 158.342Z" fill="#8BC5E4"/>
<path fill-rule="evenodd" clip-rule="evenodd" d="M0 37.5825V213.143L51.9615 183.143V7.58252L0 37.5825Z" fill="#8BC5E4"/>
<path fill-rule="evenodd" clip-rule="evenodd" d="M10.4703 231.407L211.232 347.317L263.194 317.317L62.4318 201.407L10.4703 231.407Z" fill="#8BC5E4"/>
<path fill-rule="evenodd" clip-rule="evenodd" d="M221.703 341.143V165.583L273.664 135.583V311.143L221.703 341.143Z" fill="#8BC5E4"/>
<path fill-rule="evenodd" clip-rule="evenodd" d="M211.232 147.317L10.4703 31.4072L62.4318 1.40723L263.194 117.317L211.232 147.317Z" fill="#8BC5E4"/>
<path fill-rule="evenodd" clip-rule="evenodd" d="M10.4703 31.4072L62.4318 1.40723L10.4703 31.4072Z" fill="#8BC5E4"/>
<path fill-rule="evenodd" clip-rule="evenodd" d="M10.4703 36.9175L211.232 152.827L263.194 122.827L62.4318 6.91748L10.4703 36.9175Z" fill="#8BC5E4"/>
<path fill-rule="evenodd" clip-rule="evenodd" d="M216.965 162.847V338.407L268.927 308.407V132.847L216.965 162.847Z" fill="#8BC5E4"/>
<path fill-rule="evenodd" clip-rule="evenodd" d="M211.232 341.807L10.4703 225.897L62.4318 195.897L263.194 311.807L211.232 341.807Z" fill="#8BC5E4"/>
<path fill-rule="evenodd" clip-rule="evenodd" d="M4.72852 215.872V40.3125L56.69 10.3125V185.872L4.72852 215.872Z" fill="#8BC5E4"/>
<path fill-rule="evenodd" clip-rule="evenodd" d="M10.4703 36.9175L62.4318 6.91748L10.4703 36.9175Z" fill="#8BC5E4"/>
<path fill-rule="evenodd" clip-rule="evenodd" d="M110.245 150.002C101.403 144.898 93.3496 144.284 87.3647 147.405L139.326 117.405C145.311 114.284 153.365 114.898 162.207 120.002L110.245 150.002Z" fill="#8BC5E4"/>
<path fill-rule="evenodd" clip-rule="evenodd" d="M87.3647 147.405C80.881 150.785 76.8251 158.547 76.8251 169.727L128.787 139.727C128.787 128.547 132.843 120.785 139.326 117.405L87.3647 147.405Z" fill="#8BC5E4"/>
<path fill-rule="evenodd" clip-rule="evenodd" d="M76.8251 169.728C76.8251 191.218 91.8247 217.388 110.245 228.023L162.207 198.023C143.786 187.388 128.787 161.218 128.787 139.728L76.8251 169.728Z" fill="#8BC5E4"/>
<path fill-rule="evenodd" clip-rule="evenodd" d="M110.245 228.022C119.087 233.127 127.142 233.744 133.129 230.628L185.091 200.628C179.104 203.744 171.048 203.127 162.207 198.022L110.245 228.022Z" fill="#8BC5E4"/>
<path fill-rule="evenodd" clip-rule="evenodd" d="M133.129 230.628C139.615 227.253 143.674 219.497 143.674 208.322L195.635 178.322C195.635 189.497 191.577 197.253 185.091 200.628L133.129 230.628Z" fill="#8BC5E4"/>
<path fill-rule="evenodd" clip-rule="evenodd" d="M143.674 208.322C143.674 186.822 128.665 160.637 110.245 150.002L162.207 120.002C180.627 130.637 195.635 156.822 195.635 178.322L143.674 208.322Z" fill="#8BC5E4"/>
<path fill-rule="evenodd" clip-rule="evenodd" d="M110.245 158.342C124.812 166.752 136.529 187.207 136.529 204.197L188.49 174.197C188.49 157.207 176.773 136.752 162.207 128.342L110.245 158.342Z" fill="#8BC5E4"/>
<path fill-rule="evenodd" clip-rule="evenodd" d="M136.529 204.197C136.529 212.343 133.829 218.174 129.411 221.106L181.372 191.106C185.791 188.174 188.49 182.343 188.49 174.197L136.529 204.197Z" fill="#8BC5E4"/>
<path fill-rule="evenodd" clip-rule="evenodd" d="M129.411 221.106C124.624 224.282 117.82 224.055 110.245 219.682L162.207 189.682C169.781 194.055 176.585 194.282 181.372 191.106L129.411 221.106Z" fill="#8BC5E4"/>
<path fill-rule="evenodd" clip-rule="evenodd" d="M110.245 219.683C95.6872 211.278 83.9698 190.823 83.9698 173.853L135.931 143.853C135.931 160.823 147.649 181.278 162.207 189.683L110.245 219.683Z" fill="#8BC5E4"/>
<path fill-rule="evenodd" clip-rule="evenodd" d="M83.9698 173.852C83.9698 165.697 86.6695 159.861 91.0872 156.926L143.049 126.926C138.631 129.861 135.931 135.697 135.931 143.852L83.9698 173.852Z" fill="#8BC5E4"/>
<path fill-rule="evenodd" clip-rule="evenodd" d="M91.0872 156.926C95.8729 153.746 102.675 153.972 110.245 158.342L162.207 128.342C154.636 123.972 147.834 123.746 143.049 126.926L91.0872 156.926Z" fill="#8BC5E4"/>
<path fill-rule="evenodd" clip-rule="evenodd" d="M10.4703 31.4072C7.70591 29.8112 5.183 29.6195 3.30664 30.5959L55.2682 0.59593C57.1445 -0.380532 59.6674 -0.18882 62.4318 1.40718L10.4703 31.4072Z" fill="#8BC5E4"/>
<path fill-rule="evenodd" clip-rule="evenodd" d="M3.30662 30.5962C1.2739 31.654 0 34.0828 0 37.5824L51.9615 7.58244C51.9615 4.08284 53.2354 1.65403 55.2681 0.596191L3.30662 30.5962Z" fill="#8BC5E4"/>
<path fill-rule="evenodd" clip-rule="evenodd" d="M0 213.142C0 219.872 4.71118 228.082 10.4702 231.407L62.4318 201.407C56.6727 198.082 51.9615 189.872 51.9615 183.142L0 213.142Z" fill="#8BC5E4"/>
<path fill-rule="evenodd" clip-rule="evenodd" d="M211.232 347.317C213.992 348.911 216.515 349.103 218.392 348.127L270.354 318.127C268.477 319.103 265.954 318.911 263.194 317.317L211.232 347.317Z" fill="#8BC5E4"/>
<path fill-rule="evenodd" clip-rule="evenodd" d="M218.393 348.127C220.426 347.07 221.703 344.642 221.703 341.143L273.664 311.143C273.664 314.642 272.388 317.07 270.354 318.127L218.393 348.127Z" fill="#8BC5E4"/>
<path fill-rule="evenodd" clip-rule="evenodd" d="M221.702 165.582C221.702 158.852 216.983 150.637 211.232 147.317L263.194 117.317C268.944 120.637 273.664 128.852 273.664 135.582L221.702 165.582Z" fill="#8BC5E4"/>
<path fill-rule="evenodd" clip-rule="evenodd" d="M211.232 152.827C214.445 154.682 216.965 159.077 216.965 162.847L268.927 132.847C268.927 129.077 266.407 124.682 263.194 122.827L211.232 152.827Z" fill="#8BC5E4"/>
<path fill-rule="evenodd" clip-rule="evenodd" d="M216.965 338.407C216.965 340.217 216.385 341.5 215.426 342.14L267.387 312.14C268.346 311.5 268.927 310.217 268.927 308.407L216.965 338.407Z" fill="#8BC5E4"/>
<path fill-rule="evenodd" clip-rule="evenodd" d="M215.425 342.14C214.386 342.834 212.903 342.772 211.232 341.808L263.194 311.808C264.864 312.772 266.348 312.834 267.387 312.14L215.425 342.14Z" fill="#8BC5E4"/>
<path fill-rule="evenodd" clip-rule="evenodd" d="M10.4703 225.897C7.24865 224.037 4.72852 219.642 4.72852 215.872L56.69 185.872C56.69 189.642 59.2102 194.037 62.4318 195.897L10.4703 225.897Z" fill="#8BC5E4"/>
<path fill-rule="evenodd" clip-rule="evenodd" d="M4.72852 40.3123C4.72852 38.5027 5.30915 37.2195 6.2693 36.5801L58.2308 6.58008C57.2707 7.21952 56.69 8.50266 56.69 10.3123L4.72852 40.3123Z" fill="#8BC5E4"/>
<path fill-rule="evenodd" clip-rule="evenodd" d="M6.26929 36.5801C7.30945 35.8874 8.79501 35.9501 10.4702 36.9173L62.4318 6.91732C60.7565 5.95012 59.271 5.8874 58.2308 6.58014L6.26929 36.5801Z" fill="#8BC5E4"/>
<path d="M162.406 268.097L166.71 261.922L145.12 234.847L149.718 228.242L171.308 255.317L175.63 249.142L179.692 272.007L162.406 268.097ZM162.388 170.147L166.693 181.292L145.103 183.437L149.692 195.347L171.291 193.207L175.604 204.367L179.674 186.207L162.388 170.147ZM176.253 211.752V221.772L151.286 207.357V218.057L176.253 232.472V242.492L188.586 234.252L176.253 211.752ZM58.0757 143.522V153.542L33.1168 139.132V149.832L58.0757 164.242V174.262L70.4165 166.027L58.0757 143.522ZM110.245 150.002C91.8247 139.367 76.8251 148.227 76.8251 169.727C76.8251 191.217 91.8247 217.387 110.245 228.022C128.665 238.657 143.674 229.812 143.674 208.322C143.674 186.822 128.665 160.637 110.245 150.002ZM110.245 158.342C124.812 166.752 136.529 187.207 136.529 204.197C136.529 221.167 124.812 228.092 110.245 219.682C95.6871 211.277 83.9698 190.822 83.9698 173.852C83.9698 156.862 95.6871 149.937 110.245 158.342ZM10.4702 31.4072C4.71118 28.0822 0 30.8522 0 37.5822V213.142C0 219.872 4.71118 228.082 10.4702 231.407L211.232 347.317C216.983 350.637 221.702 347.872 221.702 341.142V165.582C221.702 158.852 216.983 150.637 211.232 147.317L10.4702 31.4072ZM10.4702 36.9172L211.232 152.827C214.445 154.682 216.965 159.077 216.965 162.847V338.407C216.965 342.177 214.445 343.662 211.232 341.807L10.4702 225.897C7.24863 224.037 4.7285 219.642 4.7285 215.872V40.3122C4.7285 36.5422 7.24863 35.0572 10.4702 36.9172Z" fill="#8BC5E4"/>
<path fill-rule="evenodd" clip-rule="evenodd" d="M10.4702 36.9172L211.232 152.827C214.445 154.682 216.965 159.077 216.965 162.847V338.407C216.965 342.177 214.445 343.662 211.232 341.807L10.4702 225.897C7.24863 224.037 4.7285 219.642 4.7285 215.872V40.3122C4.7285 36.5422 7.24863 35.0572 10.4702 36.9172ZM166.71 261.922L162.406 268.097L179.692 272.007L175.63 249.142L171.308 255.317L149.718 228.242L145.12 234.847L166.71 261.922ZM166.693 181.292L162.388 170.147L179.674 186.207L175.604 204.367L171.291 193.207L149.692 195.347L145.103 183.437L166.693 181.292ZM176.253 221.772V211.752L188.586 234.252L176.253 242.492V232.472L151.286 218.057V207.357L176.253 221.772ZM58.0757 153.542V143.522L70.4165 166.027L58.0757 174.262V164.242L33.1168 149.832V139.132L58.0757 153.542ZM76.8251 169.727C76.8251 148.227 91.8247 139.367 110.245 150.002C128.665 160.637 143.674 186.822 143.674 208.322C143.674 229.812 128.665 238.657 110.245 228.022C91.8247 217.387 76.8251 191.217 76.8251 169.727Z" fill="white"/>
<path d="M110.245 158.342C124.812 166.752 136.529 187.207 136.529 204.197C136.529 221.167 124.812 228.092 110.245 219.682C95.6871 211.277 83.9698 190.822 83.9698 173.852C83.9698 156.862 95.6871 149.937 110.245 158.342Z" fill="white"/>
</svg>
