<svg width="226" height="321" viewBox="0 0 226 321" fill="none" xmlns="http://www.w3.org/2000/svg">
<path fill-rule="evenodd" clip-rule="evenodd" d="M114.298 136.103L166.259 106.103L114.298 136.103Z" fill="#8BC5E4"/>
<path fill-rule="evenodd" clip-rule="evenodd" d="M47.3802 168.417L19.4336 184.142L71.3951 154.142L99.3418 138.417L47.3802 168.417Z" fill="#8BC5E4"/>
<path fill-rule="evenodd" clip-rule="evenodd" d="M19.3989 194.462L22.2048 199.342L74.1664 169.342L71.3605 164.462L19.3989 194.462Z" fill="#8BC5E4"/>
<path fill-rule="evenodd" clip-rule="evenodd" d="M31.2031 204.578L59.1844 188.833L111.146 158.833L83.1646 174.578L31.2031 204.578Z" fill="#8BC5E4"/>
<path fill-rule="evenodd" clip-rule="evenodd" d="M78.583 122.032L130.545 92.0325L78.583 122.032Z" fill="#8BC5E4"/>
<path fill-rule="evenodd" clip-rule="evenodd" d="M128.717 152.268L180.679 122.268L128.717 152.268Z" fill="#8BC5E4"/>
<path fill-rule="evenodd" clip-rule="evenodd" d="M140.487 169.502L192.448 139.502L140.487 169.502Z" fill="#8BC5E4"/>
<path fill-rule="evenodd" clip-rule="evenodd" d="M78.583 135.583L130.545 105.583L78.583 135.583Z" fill="#8BC5E4"/>
<path fill-rule="evenodd" clip-rule="evenodd" d="M79.6396 140.702V147.202L131.601 117.202V110.702L79.6396 140.702Z" fill="#8BC5E4"/>
<path fill-rule="evenodd" clip-rule="evenodd" d="M79.6399 147.202L64.4238 138.417L116.385 108.417L131.601 117.202L79.6399 147.202Z" fill="#8BC5E4"/>
<path fill-rule="evenodd" clip-rule="evenodd" d="M64.4238 138.417L64.4325 146.052L116.394 116.052L116.385 108.417L64.4238 138.417Z" fill="#8BC5E4"/>
<path fill-rule="evenodd" clip-rule="evenodd" d="M64.4409 153.137V158.037L116.402 128.037V123.137L64.4409 153.137Z" fill="#8BC5E4"/>
<path fill-rule="evenodd" clip-rule="evenodd" d="M64.4409 158.038L79.6397 166.813L131.601 136.813L116.402 128.038L64.4409 158.038Z" fill="#8BC5E4"/>
<path fill-rule="evenodd" clip-rule="evenodd" d="M79.6396 166.812V177.963L131.601 147.963V136.812L79.6396 166.812Z" fill="#8BC5E4"/>
<path fill-rule="evenodd" clip-rule="evenodd" d="M77.2841 179.773L62.8994 171.468L114.861 141.468L129.246 149.773L77.2841 179.773Z" fill="#8BC5E4"/>
<path fill-rule="evenodd" clip-rule="evenodd" d="M63.7656 173.008L77.3449 180.848L129.306 150.848L115.727 143.008L63.7656 173.008Z" fill="#8BC5E4"/>
<path fill-rule="evenodd" clip-rule="evenodd" d="M83.3638 184.323L88.1789 187.103L140.14 157.103L135.325 154.323L83.3638 184.323Z" fill="#8BC5E4"/>
<path fill-rule="evenodd" clip-rule="evenodd" d="M88.1787 187.103V191.383L140.14 161.383V157.103L88.1787 187.103Z" fill="#8BC5E4"/>
<path fill-rule="evenodd" clip-rule="evenodd" d="M89.0879 191.357V187.627L141.049 157.627V161.357L89.0879 191.357Z" fill="#8BC5E4"/>
<path fill-rule="evenodd" clip-rule="evenodd" d="M89.0879 187.627L93.4007 190.117L145.362 160.117L141.049 157.627L89.0879 187.627Z" fill="#8BC5E4"/>
<path fill-rule="evenodd" clip-rule="evenodd" d="M94.2667 189.577L89.0879 186.587L141.049 156.587L146.228 159.577L94.2667 189.577Z" fill="#8BC5E4"/>
<path fill-rule="evenodd" clip-rule="evenodd" d="M89.0879 186.587V174.667L141.049 144.667V156.587L89.0879 186.587Z" fill="#8BC5E4"/>
<path fill-rule="evenodd" clip-rule="evenodd" d="M91.1836 173.478L99.5494 178.308L151.511 148.308L143.145 143.478L91.1836 173.478Z" fill="#8BC5E4"/>
<path fill-rule="evenodd" clip-rule="evenodd" d="M99.6017 177.288L91.3052 172.498L143.267 142.498L151.563 147.288L99.6017 177.288Z" fill="#8BC5E4"/>
<path fill-rule="evenodd" clip-rule="evenodd" d="M85.1388 168.938L80.5488 166.288L132.51 136.288L137.1 138.938L85.1388 168.938Z" fill="#8BC5E4"/>
<path fill-rule="evenodd" clip-rule="evenodd" d="M80.5488 166.288V157.558L132.51 127.558V136.288L80.5488 166.288Z" fill="#8BC5E4"/>
<path fill-rule="evenodd" clip-rule="evenodd" d="M83.3896 156.637L97.6531 164.872L149.615 134.872L135.351 126.637L83.3896 156.637Z" fill="#8BC5E4"/>
<path fill-rule="evenodd" clip-rule="evenodd" d="M97.2026 163.562L83.5107 155.657L135.472 125.657L149.164 133.562L97.2026 163.562Z" fill="#8BC5E4"/>
<path fill-rule="evenodd" clip-rule="evenodd" d="M79.6396 156.913V165.763L131.601 135.763V126.913L79.6396 156.913Z" fill="#8BC5E4"/>
<path fill-rule="evenodd" clip-rule="evenodd" d="M79.6395 165.762L65.3501 157.512L117.312 127.512L131.601 135.762L79.6395 165.762Z" fill="#8BC5E4"/>
<path fill-rule="evenodd" clip-rule="evenodd" d="M65.3505 157.513L65.3418 153.538L117.303 123.538L117.312 127.513L65.3505 157.513Z" fill="#8BC5E4"/>
<path fill-rule="evenodd" clip-rule="evenodd" d="M65.3417 146.707L65.333 139.982L117.295 109.982L117.303 116.707L65.3417 146.707Z" fill="#8BC5E4"/>
<path fill-rule="evenodd" clip-rule="evenodd" d="M65.333 139.982L80.5491 148.767L132.511 118.767L117.295 109.982L65.333 139.982Z" fill="#8BC5E4"/>
<path fill-rule="evenodd" clip-rule="evenodd" d="M80.5488 148.768V141.298L132.51 111.298V118.768L80.5488 148.768Z" fill="#8BC5E4"/>
<path fill-rule="evenodd" clip-rule="evenodd" d="M79.6396 140.702L131.601 110.702L79.6396 140.702Z" fill="#8BC5E4"/>
<path fill-rule="evenodd" clip-rule="evenodd" d="M148.047 198.677L200.008 168.677L148.047 198.677Z" fill="#8BC5E4"/>
<path fill-rule="evenodd" clip-rule="evenodd" d="M80.5488 167.337L85.2687 170.062L137.23 140.062L132.51 137.337L80.5488 167.337Z" fill="#8BC5E4"/>
<path fill-rule="evenodd" clip-rule="evenodd" d="M88.1787 174.282V186.062L140.14 156.062V144.282L88.1787 174.282Z" fill="#8BC5E4"/>
<path fill-rule="evenodd" clip-rule="evenodd" d="M88.1789 186.063L83.4331 183.323L135.395 153.323L140.14 156.063L88.1789 186.063Z" fill="#8BC5E4"/>
<path fill-rule="evenodd" clip-rule="evenodd" d="M80.5488 178.407V167.337L132.51 137.337V148.407L80.5488 178.407Z" fill="#8BC5E4"/>
<path fill-rule="evenodd" clip-rule="evenodd" d="M80.5488 167.337L132.51 137.337L80.5488 167.337Z" fill="#8BC5E4"/>
<path fill-rule="evenodd" clip-rule="evenodd" d="M143.89 215.857L195.852 185.857L143.89 215.857Z" fill="#8BC5E4"/>
<path fill-rule="evenodd" clip-rule="evenodd" d="M10.626 36.9675L162.579 124.698L214.54 94.6975L62.5875 6.96753L10.626 36.9675Z" fill="#8BC5E4"/>
<path fill-rule="evenodd" clip-rule="evenodd" d="M168.407 134.752V310.322L220.369 280.322V104.752L168.407 134.752Z" fill="#8BC5E4"/>
<path fill-rule="evenodd" clip-rule="evenodd" d="M162.579 313.657L10.626 225.927L62.5875 195.927L214.54 283.657L162.579 313.657Z" fill="#8BC5E4"/>
<path fill-rule="evenodd" clip-rule="evenodd" d="M4.79785 215.862V40.2925L56.7594 10.2925V185.862L4.79785 215.862Z" fill="#8BC5E4"/>
<path fill-rule="evenodd" clip-rule="evenodd" d="M10.626 36.9675L62.5875 6.96753L10.626 36.9675Z" fill="#8BC5E4"/>
<path fill-rule="evenodd" clip-rule="evenodd" d="M0 37.5225V213.092L51.9615 183.092V7.52246L0 37.5225Z" fill="#8BC5E4"/>
<path fill-rule="evenodd" clip-rule="evenodd" d="M10.626 231.448L162.579 319.178L214.54 289.178L62.5875 201.448L10.626 231.448Z" fill="#8BC5E4"/>
<path fill-rule="evenodd" clip-rule="evenodd" d="M173.205 313.092V137.522L225.167 107.522V283.092L173.205 313.092Z" fill="#8BC5E4"/>
<path fill-rule="evenodd" clip-rule="evenodd" d="M162.579 119.178L10.626 31.4475L62.5875 1.44751L214.54 89.1775L162.579 119.178Z" fill="#8BC5E4"/>
<path fill-rule="evenodd" clip-rule="evenodd" d="M10.626 31.4475L62.5875 1.44751L10.626 31.4475Z" fill="#8BC5E4"/>
<path fill-rule="evenodd" clip-rule="evenodd" d="M114.298 136.103C107.448 132.148 101.013 130.543 95.4795 131.038L147.441 101.038C152.975 100.543 159.409 102.148 166.26 106.103L114.298 136.103Z" fill="#8BC5E4"/>
<path fill-rule="evenodd" clip-rule="evenodd" d="M95.4795 131.038C96.8132 132.498 98.1209 134.023 99.3853 135.603L151.347 105.603C150.082 104.023 148.775 102.498 147.441 101.038L95.4795 131.038Z" fill="#8BC5E4"/>
<path fill-rule="evenodd" clip-rule="evenodd" d="M99.3853 135.603C103.516 135.678 108.115 136.953 112.982 139.543L164.943 109.543C160.076 106.953 155.478 105.678 151.347 105.603L99.3853 135.603Z" fill="#8BC5E4"/>
<path fill-rule="evenodd" clip-rule="evenodd" d="M112.982 139.542C110.962 139.967 108.946 140.778 107.061 141.854L159.022 111.854C160.907 110.778 162.923 109.967 164.943 109.542L112.982 139.542Z" fill="#8BC5E4"/>
<path fill-rule="evenodd" clip-rule="evenodd" d="M107.061 141.854C106.327 142.273 105.614 142.731 104.928 143.223L156.889 113.223C157.575 112.731 158.289 112.273 159.022 111.854L107.061 141.854Z" fill="#8BC5E4"/>
<path fill-rule="evenodd" clip-rule="evenodd" d="M104.928 143.222C105.196 143.647 105.473 144.077 105.742 144.512L157.703 114.512C157.435 114.077 157.158 113.647 156.889 113.222L104.928 143.222Z" fill="#8BC5E4"/>
<path fill-rule="evenodd" clip-rule="evenodd" d="M105.742 144.512C106.306 144.11 106.89 143.731 107.488 143.379L159.449 113.379C158.852 113.731 158.268 114.11 157.703 114.512L105.742 144.512Z" fill="#8BC5E4"/>
<path fill-rule="evenodd" clip-rule="evenodd" d="M107.488 143.379C109.879 141.971 112.495 140.994 115.017 140.698L166.978 110.698C164.456 110.994 161.84 111.971 159.449 113.379L107.488 143.379Z" fill="#8BC5E4"/>
<path fill-rule="evenodd" clip-rule="evenodd" d="M115.017 140.698C119.485 143.388 123.746 146.938 127.626 151.078L179.587 121.078C175.708 116.938 171.447 113.388 166.978 110.698L115.017 140.698Z" fill="#8BC5E4"/>
<path fill-rule="evenodd" clip-rule="evenodd" d="M127.626 151.077C127.661 156.207 127.323 160.842 126.786 165.212L178.748 135.212C179.285 130.842 179.622 126.207 179.588 121.077L127.626 151.077Z" fill="#8BC5E4"/>
<path fill-rule="evenodd" clip-rule="evenodd" d="M126.786 165.212C120.758 158.672 114.644 153.532 108.747 149.617L160.708 119.617C166.606 123.532 172.72 128.672 178.747 135.212L126.786 165.212Z" fill="#8BC5E4"/>
<path fill-rule="evenodd" clip-rule="evenodd" d="M108.747 149.617C109.102 150.262 109.448 150.912 109.786 151.567L161.747 121.567C161.41 120.912 161.063 120.262 160.708 119.617L108.747 149.617Z" fill="#8BC5E4"/>
<path fill-rule="evenodd" clip-rule="evenodd" d="M109.786 151.567C115.311 155.367 121.001 160.242 126.604 166.367L178.566 136.367C172.963 130.242 167.273 125.367 161.748 121.567L109.786 151.567Z" fill="#8BC5E4"/>
<path fill-rule="evenodd" clip-rule="evenodd" d="M126.604 166.367C125.4 175.252 123.097 182.632 119.685 188.322L171.646 158.322C175.058 152.632 177.362 145.252 178.566 136.367L126.604 166.367Z" fill="#8BC5E4"/>
<path fill-rule="evenodd" clip-rule="evenodd" d="M119.685 188.323C119.667 189.283 119.624 190.228 119.555 191.158L171.516 161.158C171.585 160.228 171.629 159.283 171.646 158.323L119.685 188.323Z" fill="#8BC5E4"/>
<path fill-rule="evenodd" clip-rule="evenodd" d="M119.555 191.157C123.59 185.227 126.266 177.242 127.635 167.472L179.596 137.472C178.228 147.242 175.552 155.227 171.516 161.157L119.555 191.157Z" fill="#8BC5E4"/>
<path fill-rule="evenodd" clip-rule="evenodd" d="M127.635 167.472C130.735 170.962 133.801 174.902 136.806 179.267L188.767 149.267C185.762 144.902 182.697 140.962 179.596 137.472L127.635 167.472Z" fill="#8BC5E4"/>
<path fill-rule="evenodd" clip-rule="evenodd" d="M136.806 179.268C134.343 186.039 130.533 191.116 125.412 194.211L177.374 164.211C182.495 161.116 186.305 156.039 188.768 149.268L136.806 179.268Z" fill="#8BC5E4"/>
<path fill-rule="evenodd" clip-rule="evenodd" d="M125.412 194.211C123.421 195.415 121.231 196.319 118.845 196.907L170.806 166.907C173.192 166.319 175.382 165.415 177.374 164.211L125.412 194.211Z" fill="#8BC5E4"/>
<path fill-rule="evenodd" clip-rule="evenodd" d="M118.845 196.907C118.723 197.457 118.585 197.997 118.438 198.532L170.399 168.532C170.546 167.997 170.685 167.457 170.806 166.907L118.845 196.907Z" fill="#8BC5E4"/>
<path fill-rule="evenodd" clip-rule="evenodd" d="M118.438 198.533C121.001 198.008 123.352 197.135 125.489 195.937L177.451 165.937C175.313 167.135 172.962 168.008 170.399 168.533L118.438 198.533Z" fill="#8BC5E4"/>
<path fill-rule="evenodd" clip-rule="evenodd" d="M125.489 195.936C130.986 192.854 135.069 187.613 137.706 180.567L189.668 150.567C187.03 157.613 182.947 162.854 177.451 165.936L125.489 195.936Z" fill="#8BC5E4"/>
<path fill-rule="evenodd" clip-rule="evenodd" d="M137.707 180.567C141.032 185.537 144.262 191.092 147.345 197.302L199.307 167.302C196.224 161.092 192.994 155.537 189.668 150.567L137.707 180.567Z" fill="#8BC5E4"/>
<path fill-rule="evenodd" clip-rule="evenodd" d="M147.345 197.302C139.981 197.803 133.816 199.716 128.804 202.504L180.766 172.504C185.778 169.716 191.943 167.803 199.307 167.302L147.345 197.302Z" fill="#8BC5E4"/>
<path fill-rule="evenodd" clip-rule="evenodd" d="M128.805 202.504C126.855 203.588 125.081 204.805 123.478 206.123L175.44 176.123C177.042 174.805 178.817 173.588 180.766 172.504L128.805 202.504Z" fill="#8BC5E4"/>
<path fill-rule="evenodd" clip-rule="evenodd" d="M123.478 206.122C121.521 204.932 119.563 203.732 117.32 202.147L169.282 172.147C171.525 173.732 173.482 174.932 175.439 176.122L123.478 206.122Z" fill="#8BC5E4"/>
<path fill-rule="evenodd" clip-rule="evenodd" d="M117.321 202.147C117.199 202.477 117.069 202.812 116.939 203.137L168.901 173.137C169.031 172.812 169.161 172.477 169.282 172.147L117.321 202.147Z" fill="#8BC5E4"/>
<path fill-rule="evenodd" clip-rule="evenodd" d="M116.939 203.137C119.009 204.602 120.802 205.677 122.647 206.822L174.608 176.822C172.763 175.677 170.971 174.602 168.901 173.137L116.939 203.137Z" fill="#8BC5E4"/>
<path fill-rule="evenodd" clip-rule="evenodd" d="M122.647 206.823C118.697 210.283 115.805 214.293 114.047 218.378L166.008 188.378C167.766 184.293 170.659 180.283 174.608 176.823L122.647 206.823Z" fill="#8BC5E4"/>
<path fill-rule="evenodd" clip-rule="evenodd" d="M114.047 218.378C111.925 217.133 109.847 215.693 107.837 214.093L159.799 184.093C161.808 185.693 163.887 187.133 166.008 188.378L114.047 218.378Z" fill="#8BC5E4"/>
<path fill-rule="evenodd" clip-rule="evenodd" d="M107.837 214.093L159.799 184.093L107.837 214.093Z" fill="#8BC5E4"/>
<path fill-rule="evenodd" clip-rule="evenodd" d="M107.838 214.093C106.807 214.698 105.716 215.208 104.573 215.618L156.534 185.618C157.677 185.208 158.769 184.698 159.799 184.093L107.838 214.093Z" fill="#8BC5E4"/>
<path fill-rule="evenodd" clip-rule="evenodd" d="M104.573 215.617C107.682 218.362 110.938 220.752 114.298 222.692L166.26 192.692C162.9 190.752 159.643 188.362 156.534 185.617L104.573 215.617Z" fill="#8BC5E4"/>
<path fill-rule="evenodd" clip-rule="evenodd" d="M114.298 222.692C124.274 228.452 133.353 229.222 140.097 225.824L192.059 195.824C185.315 199.222 176.236 198.452 166.259 192.692L114.298 222.692Z" fill="#8BC5E4"/>
<path fill-rule="evenodd" clip-rule="evenodd" d="M140.098 225.824C147.404 222.143 151.97 213.57 151.97 201.153L203.932 171.153C203.932 183.57 199.365 192.143 192.059 195.824L140.098 225.824Z" fill="#8BC5E4"/>
<path fill-rule="evenodd" clip-rule="evenodd" d="M151.97 201.153C151.97 177.263 135.082 148.103 114.298 136.103L166.259 106.103C187.044 118.103 203.931 147.263 203.931 171.153L151.97 201.153Z" fill="#8BC5E4"/>
<path fill-rule="evenodd" clip-rule="evenodd" d="M78.583 122.032C68.8807 116.431 60.0305 115.694 53.4497 119.012L105.411 89.0117C111.992 85.6942 120.842 86.4309 130.545 92.0325L78.583 122.032Z" fill="#8BC5E4"/>
<path fill-rule="evenodd" clip-rule="evenodd" d="M53.4498 119.012C46.3207 122.606 41.855 130.958 41.855 143.037L93.8165 113.037C93.8165 100.958 98.2822 92.6057 105.411 89.0117L53.4498 119.012Z" fill="#8BC5E4"/>
<path fill-rule="evenodd" clip-rule="evenodd" d="M41.855 143.038C41.855 151.158 43.8815 159.938 47.3802 168.418L99.3417 138.418C95.843 129.938 93.8165 121.158 93.8165 113.038L41.855 143.038Z" fill="#8BC5E4"/>
<path fill-rule="evenodd" clip-rule="evenodd" d="M19.4334 184.143C16.9306 185.548 16.9133 190.158 19.3988 194.463L71.3603 164.463C68.8748 160.158 68.8921 155.548 71.3949 154.143L19.4334 184.143Z" fill="#8BC5E4"/>
<path fill-rule="evenodd" clip-rule="evenodd" d="M22.2051 199.343C24.6906 203.648 28.7003 205.983 31.2031 204.578L83.1646 174.578C80.6618 175.983 76.6521 173.648 74.1666 169.343L22.2051 199.343Z" fill="#8BC5E4"/>
<path fill-rule="evenodd" clip-rule="evenodd" d="M59.1841 188.833C64.8219 196.148 71.473 202.338 78.5831 206.443L130.545 176.443C123.435 172.338 116.783 166.148 111.146 158.833L59.1841 188.833Z" fill="#8BC5E4"/>
<path fill-rule="evenodd" clip-rule="evenodd" d="M78.583 206.442C88.2853 212.044 97.1335 212.78 103.712 209.462L155.674 179.462C149.095 182.78 140.247 182.044 130.545 176.442L78.583 206.442Z" fill="#8BC5E4"/>
<path fill-rule="evenodd" clip-rule="evenodd" d="M103.712 209.462C110.839 205.868 115.303 197.517 115.303 185.442L167.264 155.442C167.264 167.517 162.801 175.868 155.674 179.462L103.712 209.462Z" fill="#8BC5E4"/>
<path fill-rule="evenodd" clip-rule="evenodd" d="M115.302 185.442C115.302 162.212 98.796 133.702 78.583 122.032L130.545 92.0325C150.758 103.702 167.264 132.212 167.264 155.442L115.302 185.442Z" fill="#8BC5E4"/>
<path fill-rule="evenodd" clip-rule="evenodd" d="M128.717 152.268C132.848 156.863 136.529 162.138 139.551 167.713L191.513 137.713C188.49 132.138 184.81 126.863 180.679 122.268L128.717 152.268Z" fill="#8BC5E4"/>
<path fill-rule="evenodd" clip-rule="evenodd" d="M139.551 167.712C139.058 171.577 138.27 175.102 137.196 178.282L189.157 148.282C190.231 145.102 191.019 141.577 191.513 137.712L139.551 167.712Z" fill="#8BC5E4"/>
<path fill-rule="evenodd" clip-rule="evenodd" d="M137.196 178.282C134.13 173.852 130.995 169.872 127.817 166.327L179.778 136.327C182.957 139.872 186.092 143.852 189.157 148.282L137.196 178.282Z" fill="#8BC5E4"/>
<path fill-rule="evenodd" clip-rule="evenodd" d="M127.817 166.328C128.362 161.973 128.726 157.363 128.718 152.268L180.679 122.268C180.688 127.363 180.324 131.973 179.778 136.328L127.817 166.328Z" fill="#8BC5E4"/>
<path fill-rule="evenodd" clip-rule="evenodd" d="M140.487 169.502C145.077 178.492 147.952 188.192 148.307 197.197L200.269 167.197C199.913 158.192 197.038 148.492 192.448 139.502L140.487 169.502Z" fill="#8BC5E4"/>
<path fill-rule="evenodd" clip-rule="evenodd" d="M148.307 197.198C148.298 197.203 148.298 197.203 148.29 197.208L200.251 167.208C200.26 167.203 200.26 167.203 200.268 167.198L148.307 197.198Z" fill="#8BC5E4"/>
<path fill-rule="evenodd" clip-rule="evenodd" d="M148.289 197.208C145.042 190.653 141.63 184.803 138.096 179.583L190.058 149.583C193.591 154.803 197.003 160.653 200.251 167.208L148.289 197.208Z" fill="#8BC5E4"/>
<path fill-rule="evenodd" clip-rule="evenodd" d="M138.096 179.582C139.153 176.532 139.958 173.177 140.486 169.502L192.448 139.502C191.92 143.177 191.114 146.532 190.058 149.582L138.096 179.582Z" fill="#8BC5E4"/>
<path fill-rule="evenodd" clip-rule="evenodd" d="M78.583 135.583C92.4221 143.573 103.516 162.728 103.516 178.638L155.477 148.638C155.477 132.728 144.384 113.573 130.545 105.583L78.583 135.583Z" fill="#8BC5E4"/>
<path fill-rule="evenodd" clip-rule="evenodd" d="M103.516 178.637C103.516 186.269 100.96 191.7 96.7715 194.4L148.733 164.4C152.922 161.7 155.478 156.269 155.478 148.637L103.516 178.637Z" fill="#8BC5E4"/>
<path fill-rule="evenodd" clip-rule="evenodd" d="M96.7711 194.401C92.2333 197.326 85.7793 197.047 78.583 192.893L130.545 162.893C137.741 167.047 144.195 167.326 148.733 164.401L96.7711 194.401Z" fill="#8BC5E4"/>
<path fill-rule="evenodd" clip-rule="evenodd" d="M78.5833 192.892C64.7442 184.902 53.6504 165.747 53.6504 149.847L105.612 119.847C105.612 135.747 116.706 154.902 130.545 162.892L78.5833 192.892Z" fill="#8BC5E4"/>
<path fill-rule="evenodd" clip-rule="evenodd" d="M53.6504 149.847C53.6504 142.211 56.2064 136.778 60.3951 134.076L112.357 104.076C108.168 106.778 105.612 112.211 105.612 119.847L53.6504 149.847Z" fill="#8BC5E4"/>
<path fill-rule="evenodd" clip-rule="evenodd" d="M60.395 134.076C64.9328 131.149 71.3868 131.428 78.5831 135.583L130.545 105.583C123.348 101.428 116.894 101.149 112.357 104.076L60.395 134.076Z" fill="#8BC5E4"/>
<path fill-rule="evenodd" clip-rule="evenodd" d="M64.4322 146.052C63.63 145.613 62.9075 145.57 62.373 145.857L114.335 115.857C114.869 115.57 115.591 115.613 116.394 116.052L64.4322 146.052Z" fill="#8BC5E4"/>
<path fill-rule="evenodd" clip-rule="evenodd" d="M62.3733 145.857C61.7943 146.167 61.436 146.864 61.436 147.863L113.398 117.863C113.398 116.864 113.756 116.167 114.335 115.857L62.3733 145.857Z" fill="#8BC5E4"/>
<path fill-rule="evenodd" clip-rule="evenodd" d="M61.436 147.863C61.436 149.783 62.7697 152.123 64.4411 153.138L116.403 123.138C114.731 122.123 113.398 119.783 113.398 117.863L61.436 147.863Z" fill="#8BC5E4"/>
<path fill-rule="evenodd" clip-rule="evenodd" d="M79.6397 177.963C79.1201 177.807 78.6559 177.83 78.2793 178.008L130.241 148.008C130.617 147.83 131.082 147.807 131.601 147.963L79.6397 177.963Z" fill="#8BC5E4"/>
<path fill-rule="evenodd" clip-rule="evenodd" d="M78.2793 178.008C77.7144 178.275 77.3465 178.891 77.2842 179.773L129.246 149.773C129.308 148.891 129.676 148.275 130.241 148.008L78.2793 178.008Z" fill="#8BC5E4"/>
<path fill-rule="evenodd" clip-rule="evenodd" d="M62.8994 171.468C63.1765 171.978 63.471 172.498 63.7654 173.008L115.727 143.008C115.433 142.498 115.138 141.978 114.861 141.468L62.8994 171.468Z" fill="#8BC5E4"/>
<path fill-rule="evenodd" clip-rule="evenodd" d="M77.3447 180.847C77.6565 182.657 78.9036 184.537 80.3585 185.377L132.32 155.377C130.865 154.537 129.618 152.657 129.306 150.847L77.3447 180.847Z" fill="#8BC5E4"/>
<path fill-rule="evenodd" clip-rule="evenodd" d="M80.3584 185.377C81.1683 185.845 81.9185 185.914 82.475 185.629L134.437 155.629C133.88 155.914 133.13 155.845 132.32 155.377L80.3584 185.377Z" fill="#8BC5E4"/>
<path fill-rule="evenodd" clip-rule="evenodd" d="M82.4751 185.629C82.9124 185.405 83.2302 184.963 83.3636 184.323L135.325 154.323C135.192 154.963 134.874 155.405 134.437 155.629L82.4751 185.629Z" fill="#8BC5E4"/>
<path fill-rule="evenodd" clip-rule="evenodd" d="M88.1787 191.382C88.4818 191.387 88.7849 191.372 89.088 191.357L141.05 161.357C140.746 161.372 140.443 161.387 140.14 161.382L88.1787 191.382Z" fill="#8BC5E4"/>
<path fill-rule="evenodd" clip-rule="evenodd" d="M93.4009 190.117C93.6953 189.947 93.9898 189.767 94.2669 189.577L146.228 159.577C145.951 159.767 145.657 159.947 145.362 160.117L93.4009 190.117Z" fill="#8BC5E4"/>
<path fill-rule="evenodd" clip-rule="evenodd" d="M89.0879 174.667C89.5701 174.783 90.0044 174.741 90.3583 174.557L142.32 144.557C141.966 144.741 141.532 144.783 141.049 144.667L89.0879 174.667Z" fill="#8BC5E4"/>
<path fill-rule="evenodd" clip-rule="evenodd" d="M90.3584 174.558C90.7418 174.358 91.0307 173.992 91.1838 173.478L143.145 143.478C142.992 143.992 142.703 144.358 142.32 144.558L90.3584 174.558Z" fill="#8BC5E4"/>
<path fill-rule="evenodd" clip-rule="evenodd" d="M99.5498 178.308C99.5758 177.973 99.5931 177.633 99.6018 177.288L151.563 147.288C151.555 147.633 151.537 147.973 151.511 148.308L99.5498 178.308Z" fill="#8BC5E4"/>
<path fill-rule="evenodd" clip-rule="evenodd" d="M91.3052 172.498C91.2879 170.548 89.9109 168.193 88.2222 167.218L140.184 137.218C141.872 138.193 143.249 140.548 143.267 142.498L91.3052 172.498Z" fill="#8BC5E4"/>
<path fill-rule="evenodd" clip-rule="evenodd" d="M88.2218 167.218C87.4112 166.75 86.6744 166.684 86.1245 166.955L138.086 136.955C138.636 136.684 139.373 136.75 140.183 137.218L88.2218 167.218Z" fill="#8BC5E4"/>
<path fill-rule="evenodd" clip-rule="evenodd" d="M86.1249 166.954C85.5291 167.248 85.1527 167.936 85.1392 168.937L137.101 138.937C137.114 137.936 137.491 137.248 138.086 136.954L86.1249 166.954Z" fill="#8BC5E4"/>
<path fill-rule="evenodd" clip-rule="evenodd" d="M80.5488 157.558C81.2908 157.952 81.9785 158.009 82.5039 157.762L134.465 127.762C133.94 128.009 133.252 127.952 132.51 127.558L80.5488 157.558Z" fill="#8BC5E4"/>
<path fill-rule="evenodd" clip-rule="evenodd" d="M82.5039 157.762C82.9167 157.568 83.2293 157.187 83.3894 156.637L135.351 126.637C135.191 127.187 134.878 127.568 134.465 127.762L82.5039 157.762Z" fill="#8BC5E4"/>
<path fill-rule="evenodd" clip-rule="evenodd" d="M97.653 164.873C97.5144 164.433 97.3672 164.007 97.2026 163.562L149.164 133.562C149.329 134.007 149.476 134.433 149.614 134.873L97.653 164.873Z" fill="#8BC5E4"/>
<path fill-rule="evenodd" clip-rule="evenodd" d="M83.5108 155.657C83.4761 153.707 82.1078 151.367 80.4277 150.397L132.389 120.397C134.069 121.367 135.438 123.707 135.472 125.657L83.5108 155.657Z" fill="#8BC5E4"/>
<path fill-rule="evenodd" clip-rule="evenodd" d="M80.428 150.398C79.6091 149.925 78.864 149.861 78.3105 150.139L130.272 120.139C130.826 119.861 131.571 119.925 132.39 120.398L80.428 150.398Z" fill="#8BC5E4"/>
<path fill-rule="evenodd" clip-rule="evenodd" d="M78.3102 150.139C77.7106 150.441 77.3359 151.143 77.3359 152.163L129.297 122.163C129.297 121.143 129.672 120.441 130.272 120.139L78.3102 150.139Z" fill="#8BC5E4"/>
<path fill-rule="evenodd" clip-rule="evenodd" d="M77.3359 152.163C77.3446 153.778 78.2886 155.733 79.6396 156.913L131.601 126.913C130.25 125.733 129.306 123.778 129.297 122.163L77.3359 152.163Z" fill="#8BC5E4"/>
<path fill-rule="evenodd" clip-rule="evenodd" d="M65.3418 153.538C65.825 153.662 66.2533 153.63 66.6035 153.463L118.565 123.463C118.215 123.63 117.787 123.662 117.303 123.538L65.3418 153.538Z" fill="#8BC5E4"/>
<path fill-rule="evenodd" clip-rule="evenodd" d="M66.6035 153.463C67.2261 153.168 67.6021 152.447 67.6021 151.423L119.564 121.423C119.564 122.447 119.188 123.168 118.565 123.463L66.6035 153.463Z" fill="#8BC5E4"/>
<path fill-rule="evenodd" clip-rule="evenodd" d="M67.6021 151.423C67.6021 149.833 66.6755 147.898 65.3418 146.708L117.303 116.708C118.637 117.898 119.564 119.833 119.564 121.423L67.6021 151.423Z" fill="#8BC5E4"/>
<path fill-rule="evenodd" clip-rule="evenodd" d="M80.549 141.297C80.2459 141.092 79.9514 140.902 79.6396 140.702L131.601 110.702C131.913 110.902 132.207 111.092 132.511 111.297L80.549 141.297Z" fill="#8BC5E4"/>
<path fill-rule="evenodd" clip-rule="evenodd" d="M148.047 198.677C148.142 198.872 148.246 199.062 148.341 199.247L200.303 169.247C200.208 169.062 200.104 168.872 200.008 168.677L148.047 198.677Z" fill="#8BC5E4"/>
<path fill-rule="evenodd" clip-rule="evenodd" d="M148.341 199.248C148.315 205.593 146.973 210.818 144.609 214.753L196.57 184.753C198.935 180.818 200.277 175.593 200.303 169.248L148.341 199.248Z" fill="#8BC5E4"/>
<path fill-rule="evenodd" clip-rule="evenodd" d="M144.609 214.753C138.504 213.188 132.796 211.683 124.82 207.008L176.782 177.008C184.758 181.683 190.465 183.188 196.571 184.753L144.609 214.753Z" fill="#8BC5E4"/>
<path fill-rule="evenodd" clip-rule="evenodd" d="M124.82 207.008C125.946 206.116 127.155 205.273 128.448 204.49L180.41 174.49C179.117 175.273 177.908 176.116 176.782 177.008L124.82 207.008Z" fill="#8BC5E4"/>
<path fill-rule="evenodd" clip-rule="evenodd" d="M128.448 204.49C133.62 201.359 140.135 199.189 148.047 198.677L200.009 168.677C192.097 169.189 185.582 171.359 180.41 174.49L128.448 204.49Z" fill="#8BC5E4"/>
<path fill-rule="evenodd" clip-rule="evenodd" d="M85.269 170.062C85.6501 171.763 86.8279 173.472 88.1789 174.283L140.14 144.283C138.789 143.473 137.612 141.763 137.231 140.062L85.269 170.062Z" fill="#8BC5E4"/>
<path fill-rule="evenodd" clip-rule="evenodd" d="M83.4327 183.322C83.3028 181.487 82.0817 179.402 80.5488 178.407L132.51 148.407C134.043 149.402 135.264 151.487 135.394 153.322L83.4327 183.322Z" fill="#8BC5E4"/>
<path fill-rule="evenodd" clip-rule="evenodd" d="M143.89 215.857C142.52 217.831 140.865 219.429 138.971 220.624L190.932 190.624C192.827 189.429 194.482 187.831 195.851 185.857L143.89 215.857Z" fill="#8BC5E4"/>
<path fill-rule="evenodd" clip-rule="evenodd" d="M138.971 220.624C132.971 224.407 124.571 224.155 115.225 219.048L167.186 189.048C176.532 194.155 184.933 194.407 190.932 190.624L138.971 220.624Z" fill="#8BC5E4"/>
<path fill-rule="evenodd" clip-rule="evenodd" d="M115.225 219.048C117.026 215.048 119.97 211.088 123.989 207.708L175.95 177.708C171.932 181.088 168.987 185.048 167.186 189.048L115.225 219.048Z" fill="#8BC5E4"/>
<path fill-rule="evenodd" clip-rule="evenodd" d="M123.989 207.708C132.06 212.548 137.932 214.308 143.89 215.858L195.852 185.858C189.893 184.308 184.022 182.548 175.95 177.708L123.989 207.708Z" fill="#8BC5E4"/>
<path fill-rule="evenodd" clip-rule="evenodd" d="M162.579 124.698C165.853 126.588 168.407 130.993 168.407 134.753L220.369 104.753C220.369 100.993 217.814 96.5875 214.541 94.6975L162.579 124.698Z" fill="#8BC5E4"/>
<path fill-rule="evenodd" clip-rule="evenodd" d="M168.408 310.323C168.408 312.127 167.819 313.403 166.845 314.033L218.806 284.033C219.78 283.403 220.369 282.127 220.369 280.323L168.408 310.323Z" fill="#8BC5E4"/>
<path fill-rule="evenodd" clip-rule="evenodd" d="M166.845 314.033C165.789 314.716 164.281 314.64 162.579 313.657L214.541 283.657C216.243 284.64 217.751 284.716 218.806 284.033L166.845 314.033Z" fill="#8BC5E4"/>
<path fill-rule="evenodd" clip-rule="evenodd" d="M10.6262 225.928C7.35263 224.038 4.79785 219.623 4.79785 215.863L56.7594 185.863C56.7594 189.623 59.3142 194.038 62.5877 195.928L10.6262 225.928Z" fill="#8BC5E4"/>
<path fill-rule="evenodd" clip-rule="evenodd" d="M4.79785 40.2926C4.79785 38.4878 5.38647 37.2141 6.36067 36.5864L58.3222 6.58643C57.348 7.21407 56.7594 8.48779 56.7594 10.2926L4.79785 40.2926Z" fill="#8BC5E4"/>
<path fill-rule="evenodd" clip-rule="evenodd" d="M6.36084 36.5863C7.41622 35.9063 8.92412 35.9846 10.6264 36.9674L62.5879 6.96742C60.8856 5.98462 59.3777 5.90631 58.3224 6.58625L6.36084 36.5863Z" fill="#8BC5E4"/>
<path fill-rule="evenodd" clip-rule="evenodd" d="M10.6261 31.4476C7.82016 29.8276 5.25967 29.6142 3.35547 30.5734L55.317 0.573435C57.2212 -0.385847 59.7817 -0.172439 62.5876 1.44756L10.6261 31.4476Z" fill="#8BC5E4"/>
<path fill-rule="evenodd" clip-rule="evenodd" d="M3.35552 30.5735C1.29264 31.6127 0 34.0282 0 37.5226L51.9615 7.52261C51.9615 4.02821 53.2542 1.61271 55.317 0.573486L3.35552 30.5735Z" fill="#8BC5E4"/>
<path fill-rule="evenodd" clip-rule="evenodd" d="M0 213.093C0 219.813 4.78046 228.073 10.6261 231.448L62.5877 201.448C56.742 198.073 51.9615 189.813 51.9615 183.093L0 213.093Z" fill="#8BC5E4"/>
<path fill-rule="evenodd" clip-rule="evenodd" d="M162.579 319.177C165.385 320.797 167.946 321.009 169.85 320.047L221.811 290.047C219.907 291.009 217.347 290.797 214.541 289.177L162.579 319.177Z" fill="#8BC5E4"/>
<path fill-rule="evenodd" clip-rule="evenodd" d="M169.85 320.047C171.912 319.005 173.205 316.587 173.205 313.093L225.167 283.093C225.167 286.587 223.874 289.005 221.811 290.047L169.85 320.047Z" fill="#8BC5E4"/>
<path fill-rule="evenodd" clip-rule="evenodd" d="M173.205 137.522C173.205 130.802 168.425 122.552 162.579 119.177L214.541 89.1775C220.386 92.5525 225.167 100.802 225.167 107.522L173.205 137.522Z" fill="#8BC5E4"/>
<path d="M114.298 136.103C107.448 132.148 101.013 130.543 95.4793 131.038C96.813 132.498 98.1207 134.023 99.3851 135.603C103.516 135.678 108.115 136.953 112.982 139.543C110.176 140.133 107.378 141.468 104.928 143.223C105.196 143.648 105.473 144.078 105.742 144.513C108.565 142.503 111.864 141.068 115.017 140.698C119.486 143.388 123.746 146.938 127.626 151.078C127.661 156.208 127.323 160.843 126.786 165.213C120.759 158.673 114.644 153.533 108.747 149.618C109.102 150.263 109.448 150.913 109.786 151.568C115.311 155.368 121.001 160.243 126.604 166.368C125.4 175.253 123.097 182.633 119.685 188.323C119.667 189.283 119.624 190.228 119.555 191.158C123.59 185.228 126.267 177.243 127.635 167.473C130.735 170.963 133.801 174.903 136.806 179.268C133.385 188.673 127.366 194.808 118.845 196.908C118.723 197.458 118.585 197.998 118.438 198.533C127.592 196.658 134.043 190.353 137.707 180.568C141.032 185.538 144.263 191.093 147.346 197.303C137.118 197.998 129.202 201.418 123.478 206.123C121.521 204.933 119.563 203.733 117.32 202.148C117.199 202.478 117.069 202.813 116.939 203.138C119.009 204.603 120.802 205.678 122.647 206.823C118.697 210.283 115.805 214.293 114.047 218.378C111.925 217.133 109.847 215.693 107.837 214.093C106.807 214.698 105.716 215.208 104.573 215.618C107.682 218.363 110.938 220.753 114.298 222.693C135.083 234.693 151.97 225.033 151.97 201.153C151.97 177.263 135.083 148.103 114.298 136.103ZM78.5831 122.033C58.3701 110.363 41.855 119.808 41.855 143.038C41.855 151.158 43.8815 159.938 47.3802 168.418L19.4336 184.143C16.9308 185.548 16.9135 190.158 19.399 194.463L22.2049 199.343C24.6904 203.648 28.7001 205.983 31.2029 204.578L59.1842 188.833C64.822 196.148 71.4731 202.338 78.5831 206.443C98.7962 218.113 115.303 208.663 115.303 185.443C115.303 162.213 98.7962 133.703 78.5831 122.033ZM128.717 152.268C132.848 156.863 136.529 162.138 139.551 167.713C139.058 171.578 138.27 175.103 137.196 178.283C134.13 173.853 130.995 169.873 127.817 166.328C128.362 161.973 128.726 157.363 128.717 152.268ZM140.487 169.503C145.077 178.493 147.952 188.193 148.307 197.198C148.298 197.203 148.298 197.203 148.29 197.208C145.042 190.653 141.63 184.803 138.096 179.583C139.153 176.533 139.958 173.178 140.487 169.503ZM78.5831 135.583C92.4222 143.573 103.516 162.728 103.516 178.638C103.516 194.538 92.4222 200.883 78.5831 192.893C64.7441 184.903 53.6503 165.748 53.6503 149.848C53.6503 133.938 64.7441 127.593 78.5831 135.583ZM79.6397 140.703V147.203L64.4236 138.418L64.4323 146.053C62.7609 145.138 61.4358 145.943 61.4358 147.863C61.4358 149.783 62.7695 152.123 64.441 153.138V158.038L79.6397 166.813V177.963C78.3407 177.573 77.388 178.303 77.2841 179.773L62.8994 171.468C63.1765 171.978 63.471 172.498 63.7654 173.008L77.3447 180.848C77.6565 182.658 78.9036 184.538 80.3585 185.378C81.8048 186.213 83.0605 185.778 83.3636 184.323L88.1787 187.103V191.383C88.4818 191.388 88.7849 191.373 89.088 191.358V187.628L93.4008 190.118C93.6953 189.948 93.9897 189.768 94.2669 189.578L89.088 186.588V174.668C90.0926 174.908 90.8894 174.468 91.1838 173.478L99.5496 178.308C99.5756 177.973 99.5929 177.633 99.6016 177.288L91.3051 172.498C91.2877 170.548 89.9108 168.193 88.222 167.218C86.5333 166.243 85.1649 167.013 85.139 168.938L80.549 166.288V157.558C81.874 158.263 83.0259 157.888 83.3896 156.638L97.653 164.873C97.5145 164.433 97.3672 164.008 97.2027 163.563L83.5108 155.658C83.4762 153.708 82.1079 151.368 80.4278 150.398C78.7217 149.413 77.3361 150.203 77.3361 152.163C77.3447 153.778 78.2887 155.733 79.6397 156.913V165.763L65.3503 157.513L65.3416 153.538C66.684 153.883 67.6019 153.023 67.6019 151.423C67.6019 149.833 66.6753 147.898 65.3416 146.708L65.333 139.983L80.549 148.768V141.298C80.2459 141.093 79.9515 140.903 79.6397 140.703ZM148.047 198.678C148.142 198.873 148.246 199.063 148.341 199.248C148.316 205.593 146.973 210.818 144.609 214.753C138.503 213.188 132.796 211.683 124.82 207.008C130.449 202.548 138.157 199.318 148.047 198.678ZM80.549 167.338L85.2689 170.063C85.6499 171.763 86.8277 173.473 88.1787 174.283V186.063L83.4329 183.323C83.303 181.488 82.0819 179.403 80.549 178.408V167.338ZM143.89 215.858C138.183 224.083 127.522 225.768 115.225 219.048C117.026 215.048 119.97 211.088 123.989 207.708C132.06 212.548 137.932 214.308 143.89 215.858ZM10.6261 36.9676L162.579 124.698C165.853 126.588 168.407 130.993 168.407 134.753V310.323C168.407 314.083 165.853 315.548 162.579 313.658L10.6261 225.928C7.35256 224.038 4.79778 219.623 4.79778 215.863V40.2926C4.79778 36.5326 7.35256 35.0776 10.6261 36.9676ZM10.6261 31.4476C4.78046 28.0726 0 30.8026 0 37.5226V213.093C0 219.813 4.78046 228.073 10.6261 231.448L162.579 319.178C168.425 322.553 173.205 319.813 173.205 313.093V137.523C173.205 130.803 168.425 122.553 162.579 119.178L10.6261 31.4476Z" fill="#8BC5E4"/>
<path fill-rule="evenodd" clip-rule="evenodd" d="M10.6261 36.9676L162.579 124.698C165.853 126.588 168.407 130.993 168.407 134.753V310.323C168.407 314.083 165.853 315.548 162.579 313.658L10.6261 225.928C7.35256 224.038 4.79778 219.623 4.79778 215.863V40.2926C4.79778 36.5326 7.35256 35.0776 10.6261 36.9676ZM95.4793 131.038C101.013 130.543 107.448 132.148 114.298 136.103C135.083 148.103 151.97 177.263 151.97 201.153C151.97 225.033 135.083 234.693 114.298 222.693C110.938 220.753 107.682 218.363 104.573 215.618C105.716 215.208 106.807 214.698 107.837 214.093C109.847 215.693 111.925 217.133 114.047 218.378C115.805 214.293 118.697 210.283 122.647 206.823C120.802 205.678 119.009 204.603 116.939 203.138C117.069 202.813 117.199 202.478 117.32 202.148C119.563 203.733 121.521 204.933 123.478 206.123C129.202 201.418 137.118 197.998 147.346 197.303C144.263 191.093 141.032 185.538 137.707 180.568C134.043 190.353 127.592 196.658 118.438 198.533C118.585 197.998 118.723 197.458 118.845 196.908C127.366 194.808 133.385 188.673 136.806 179.268C133.801 174.903 130.735 170.963 127.635 167.473C126.267 177.243 123.59 185.228 119.555 191.158C119.624 190.228 119.667 189.283 119.685 188.323C123.097 182.633 125.4 175.253 126.604 166.368C121.001 160.243 115.311 155.368 109.786 151.568C109.448 150.913 109.102 150.263 108.747 149.618C114.644 153.533 120.759 158.673 126.786 165.213C127.323 160.843 127.661 156.208 127.626 151.078C123.746 146.938 119.486 143.388 115.017 140.698C111.864 141.068 108.565 142.503 105.742 144.513C105.473 144.078 105.196 143.648 104.928 143.223C107.378 141.468 110.176 140.133 112.982 139.543C108.115 136.953 103.516 135.678 99.3851 135.603C98.1207 134.023 96.813 132.498 95.4793 131.038ZM41.855 143.038C41.855 119.808 58.3701 110.363 78.5831 122.033C98.7962 133.703 115.303 162.213 115.303 185.443C115.303 208.663 98.7962 218.113 78.5831 206.443C71.4731 202.338 64.822 196.148 59.1842 188.833L31.2029 204.578C28.7001 205.983 24.6904 203.648 22.2049 199.343L19.399 194.463C16.9135 190.158 16.9308 185.548 19.4336 184.143L47.3802 168.418C43.8815 159.938 41.855 151.158 41.855 143.038Z" fill="white"/>
<path fill-rule="evenodd" clip-rule="evenodd" d="M78.5831 135.583C92.4222 143.573 103.516 162.728 103.516 178.638C103.516 194.538 92.4222 200.883 78.5831 192.893C64.7441 184.903 53.6503 165.748 53.6503 149.848C53.6503 133.938 64.7441 127.593 78.5831 135.583ZM79.6397 147.203V140.703C79.9515 140.903 80.2459 141.093 80.549 141.298V148.768L65.333 139.983L65.3416 146.708C66.6753 147.898 67.6019 149.833 67.6019 151.423C67.6019 153.023 66.684 153.883 65.3416 153.538L65.3503 157.513L79.6397 165.763V156.913C78.2887 155.733 77.3447 153.778 77.3361 152.163C77.3361 150.203 78.7217 149.413 80.4278 150.398C82.1079 151.368 83.4762 153.708 83.5108 155.658L97.2027 163.563C97.3672 164.008 97.5145 164.433 97.653 164.873L83.3896 156.638C83.0259 157.888 81.874 158.263 80.549 157.558V166.288L85.139 168.938C85.1649 167.013 86.5333 166.243 88.222 167.218C89.9108 168.193 91.2877 170.548 91.3051 172.498L99.6016 177.288C99.5929 177.633 99.5756 177.973 99.5496 178.308L91.1838 173.478C90.8894 174.468 90.0926 174.908 89.088 174.668V186.588L94.2669 189.578C93.9897 189.768 93.6953 189.948 93.4008 190.118L89.088 187.628V191.358C88.7849 191.373 88.4818 191.388 88.1787 191.383V187.103L83.3636 184.323C83.0605 185.778 81.8048 186.213 80.3585 185.378C78.9036 184.538 77.6565 182.658 77.3447 180.848L63.7654 173.008C63.471 172.498 63.1765 171.978 62.8994 171.468L77.2841 179.773C77.388 178.303 78.3407 177.573 79.6397 177.963V166.813L64.441 158.038V153.138C62.7695 152.123 61.4358 149.783 61.4358 147.863C61.4358 145.943 62.7609 145.138 64.4323 146.053L64.4236 138.418L79.6397 147.203Z" fill="white"/>
<path d="M80.549 167.338L85.2689 170.063C85.6499 171.763 86.8277 173.473 88.1787 174.283V186.063L83.4329 183.323C83.303 181.488 82.0819 179.403 80.549 178.408V167.338Z" fill="white"/>
<path d="M128.717 152.268C132.848 156.863 136.529 162.138 139.551 167.713C139.058 171.578 138.27 175.103 137.196 178.283C134.13 173.853 130.995 169.873 127.817 166.328C128.362 161.973 128.726 157.363 128.717 152.268Z" fill="white"/>
<path d="M140.487 169.503C145.077 178.493 147.952 188.193 148.307 197.198L148.29 197.208C145.042 190.653 141.63 184.803 138.096 179.583C139.153 176.533 139.958 173.178 140.487 169.503Z" fill="white"/>
<path d="M148.047 198.678C148.142 198.873 148.246 199.063 148.341 199.248C148.316 205.593 146.973 210.818 144.609 214.753C138.503 213.188 132.796 211.683 124.82 207.008C130.449 202.548 138.157 199.318 148.047 198.678Z" fill="white"/>
<path d="M143.89 215.858C138.183 224.083 127.522 225.768 115.225 219.048C117.026 215.048 119.97 211.088 123.989 207.708C132.06 212.548 137.932 214.308 143.89 215.858Z" fill="white"/>
</svg>
