<svg width="226" height="321" viewBox="0 0 226 321" fill="none" xmlns="http://www.w3.org/2000/svg">
<path fill-rule="evenodd" clip-rule="evenodd" d="M62.5875 124.688L214.54 36.9575L162.579 6.95752L10.626 94.6875L62.5875 124.688Z" fill="#8BC5E4"/>
<path fill-rule="evenodd" clip-rule="evenodd" d="M220.369 40.3027V215.863L168.407 185.863V10.3027L220.369 40.3027Z" fill="#8BC5E4"/>
<path fill-rule="evenodd" clip-rule="evenodd" d="M214.54 225.938L62.5875 313.667L10.626 283.667L162.579 195.938L214.54 225.938Z" fill="#8BC5E4"/>
<path fill-rule="evenodd" clip-rule="evenodd" d="M56.7594 310.323V134.763L4.79785 104.763V280.323L56.7594 310.323Z" fill="#8BC5E4"/>
<path fill-rule="evenodd" clip-rule="evenodd" d="M62.5875 124.688L10.626 94.6875L62.5875 124.688Z" fill="#8BC5E4"/>
<path fill-rule="evenodd" clip-rule="evenodd" d="M51.9615 137.533V313.093L0 283.093V107.533L51.9615 137.533Z" fill="#8BC5E4"/>
<path fill-rule="evenodd" clip-rule="evenodd" d="M62.5875 319.177L214.54 231.447L162.579 201.447L10.626 289.177L62.5875 319.177Z" fill="#8BC5E4"/>
<path fill-rule="evenodd" clip-rule="evenodd" d="M225.167 213.093V37.5327L173.205 7.53271V183.093L225.167 213.093Z" fill="#8BC5E4"/>
<path fill-rule="evenodd" clip-rule="evenodd" d="M214.54 31.4473L62.5875 119.177L10.626 89.1773L162.579 1.44727L214.54 31.4473Z" fill="#8BC5E4"/>
<path fill-rule="evenodd" clip-rule="evenodd" d="M62.5875 119.178L10.626 89.1777L62.5875 119.178Z" fill="#8BC5E4"/>
<path fill-rule="evenodd" clip-rule="evenodd" d="M136.823 175.958V177.508L84.8618 147.508V145.958L136.823 175.958Z" fill="#8BC5E4"/>
<path fill-rule="evenodd" clip-rule="evenodd" d="M136.113 178.777L134.554 179.677L82.5928 149.677L84.1516 148.777L136.113 178.777Z" fill="#8BC5E4"/>
<path fill-rule="evenodd" clip-rule="evenodd" d="M134.026 179.012V177.572L82.0645 147.572V149.012L134.026 179.012Z" fill="#8BC5E4"/>
<path fill-rule="evenodd" clip-rule="evenodd" d="M134.026 177.573L136.823 175.958L84.8617 145.958L82.0645 147.573L134.026 177.573Z" fill="#8BC5E4"/>
<path fill-rule="evenodd" clip-rule="evenodd" d="M136.823 175.958L84.8618 145.958L136.823 175.958Z" fill="#8BC5E4"/>
<path fill-rule="evenodd" clip-rule="evenodd" d="M132.043 178.718V180.268L80.0811 150.268V148.718L132.043 178.718Z" fill="#8BC5E4"/>
<path fill-rule="evenodd" clip-rule="evenodd" d="M131.315 181.548L129.756 182.448L77.7949 152.448L79.3538 151.548L131.315 181.548Z" fill="#8BC5E4"/>
<path fill-rule="evenodd" clip-rule="evenodd" d="M129.228 181.783V180.343L77.2666 150.343V151.783L129.228 181.783Z" fill="#8BC5E4"/>
<path fill-rule="evenodd" clip-rule="evenodd" d="M129.228 180.343L132.043 178.718L80.0812 148.718L77.2666 150.343L129.228 180.343Z" fill="#8BC5E4"/>
<path fill-rule="evenodd" clip-rule="evenodd" d="M132.043 178.718L80.0811 148.718L132.043 178.718Z" fill="#8BC5E4"/>
<path fill-rule="evenodd" clip-rule="evenodd" d="M135.862 184.172L135.827 181.752L83.8657 151.752L83.9004 154.172L135.862 184.172Z" fill="#8BC5E4"/>
<path fill-rule="evenodd" clip-rule="evenodd" d="M138.044 177.983L137.992 174.013L86.0308 144.013L86.0827 147.983L138.044 177.983Z" fill="#8BC5E4"/>
<path fill-rule="evenodd" clip-rule="evenodd" d="M128.016 179.803L128.007 183.598L76.0454 153.598L76.0541 149.803L128.016 179.803Z" fill="#8BC5E4"/>
<path fill-rule="evenodd" clip-rule="evenodd" d="M130.129 184.633L130.086 187.448L78.124 157.448L78.1673 154.633L130.129 184.633Z" fill="#8BC5E4"/>
<path fill-rule="evenodd" clip-rule="evenodd" d="M135.862 184.173L83.9004 154.173L135.862 184.173Z" fill="#8BC5E4"/>
<path fill-rule="evenodd" clip-rule="evenodd" d="M123.313 199.578V192.058L71.3516 162.058V169.578L123.313 199.578Z" fill="#8BC5E4"/>
<path fill-rule="evenodd" clip-rule="evenodd" d="M125.045 188.727L125.028 187.407L73.0664 157.407L73.0837 158.727L125.045 188.727Z" fill="#8BC5E4"/>
<path fill-rule="evenodd" clip-rule="evenodd" d="M127.081 176.172L128.614 169.817L76.652 139.817L75.1191 146.172L127.081 176.172Z" fill="#8BC5E4"/>
<path fill-rule="evenodd" clip-rule="evenodd" d="M129.566 168.218L136.113 164.468L84.1516 134.468L77.6045 138.218L129.566 168.218Z" fill="#8BC5E4"/>
<path fill-rule="evenodd" clip-rule="evenodd" d="M137.724 164.958L138.971 169.298L87.0093 139.298L85.7622 134.958L137.724 164.958Z" fill="#8BC5E4"/>
<path fill-rule="evenodd" clip-rule="evenodd" d="M140.859 178.468V179.488L88.8975 149.488V148.468L140.859 178.468Z" fill="#8BC5E4"/>
<path fill-rule="evenodd" clip-rule="evenodd" d="M142.617 180.873V188.113L90.6553 158.113V150.873L142.617 180.873Z" fill="#8BC5E4"/>
<path fill-rule="evenodd" clip-rule="evenodd" d="M140.131 192.468L133.333 196.363L81.3716 166.363L88.1699 162.468L140.131 192.468Z" fill="#8BC5E4"/>
<path fill-rule="evenodd" clip-rule="evenodd" d="M133.333 196.362V186.322L81.3716 156.322V166.362L133.333 196.362Z" fill="#8BC5E4"/>
<path fill-rule="evenodd" clip-rule="evenodd" d="M133.333 186.322L132.848 186.602L80.8867 156.602L81.3717 156.322L133.333 186.322Z" fill="#8BC5E4"/>
<path fill-rule="evenodd" clip-rule="evenodd" d="M132.848 186.603V196.623L80.8867 166.623V156.603L132.848 186.603Z" fill="#8BC5E4"/>
<path fill-rule="evenodd" clip-rule="evenodd" d="M132.848 196.623L125.66 200.783L73.6987 170.783L80.8867 166.623L132.848 196.623Z" fill="#8BC5E4"/>
<path fill-rule="evenodd" clip-rule="evenodd" d="M125.66 200.782L73.6987 170.782L125.66 200.782Z" fill="#8BC5E4"/>
<path fill-rule="evenodd" clip-rule="evenodd" d="M151.814 195.972L171.785 184.442L119.823 154.442L99.8525 165.972L151.814 195.972Z" fill="#8BC5E4"/>
<path fill-rule="evenodd" clip-rule="evenodd" d="M171.785 184.442V137.942L119.823 107.942V154.442L171.785 184.442Z" fill="#8BC5E4"/>
<path fill-rule="evenodd" clip-rule="evenodd" d="M171.785 137.942L141.188 155.607L89.2266 125.607L119.823 107.942L171.785 137.942Z" fill="#8BC5E4"/>
<path fill-rule="evenodd" clip-rule="evenodd" d="M141.188 155.607L151.814 195.972L99.8527 165.972L89.2266 125.607L141.188 155.607Z" fill="#8BC5E4"/>
<path fill-rule="evenodd" clip-rule="evenodd" d="M151.814 195.973L99.8525 165.973L151.814 195.973Z" fill="#8BC5E4"/>
<path fill-rule="evenodd" clip-rule="evenodd" d="M117.658 215.693L137.629 204.163L85.6673 174.163L65.6968 185.693L117.658 215.693Z" fill="#8BC5E4"/>
<path fill-rule="evenodd" clip-rule="evenodd" d="M137.629 204.163V157.663L85.667 127.663V174.163L137.629 204.163Z" fill="#8BC5E4"/>
<path fill-rule="evenodd" clip-rule="evenodd" d="M137.629 157.663L107.024 175.333L55.062 145.333L85.6673 127.663L137.629 157.663Z" fill="#8BC5E4"/>
<path fill-rule="evenodd" clip-rule="evenodd" d="M107.024 175.333L117.658 215.693L65.6968 185.693L55.062 145.333L107.024 175.333Z" fill="#8BC5E4"/>
<path fill-rule="evenodd" clip-rule="evenodd" d="M117.658 215.692L65.6968 185.692L117.658 215.692Z" fill="#8BC5E4"/>
<path fill-rule="evenodd" clip-rule="evenodd" d="M91.8158 242.333L91.7984 171.843L39.8369 141.843L39.8542 212.333L91.8158 242.333Z" fill="#8BC5E4"/>
<path fill-rule="evenodd" clip-rule="evenodd" d="M96.0333 164.367L167.965 122.817L116.004 92.8174L44.0718 134.367L96.0333 164.367Z" fill="#8BC5E4"/>
<path fill-rule="evenodd" clip-rule="evenodd" d="M173.785 116.438L176.964 111.453L125.002 81.4526L121.824 86.4376L173.785 116.438Z" fill="#8BC5E4"/>
<path fill-rule="evenodd" clip-rule="evenodd" d="M182.965 105.388L203.602 93.4526L151.641 63.4526L131.003 75.3876L182.965 105.388Z" fill="#8BC5E4"/>
<path fill-rule="evenodd" clip-rule="evenodd" d="M208.392 95.3276L208.452 174.233L156.491 144.233L156.43 65.3276L208.392 95.3276Z" fill="#8BC5E4"/>
<path fill-rule="evenodd" clip-rule="evenodd" d="M203.594 182.498L96.6915 244.228L44.73 214.228L151.632 152.498L203.594 182.498Z" fill="#8BC5E4"/>
<path fill-rule="evenodd" clip-rule="evenodd" d="M96.6915 244.228L44.73 214.228L96.6915 244.228Z" fill="#8BC5E4"/>
<path fill-rule="evenodd" clip-rule="evenodd" d="M155.564 177.848L173.681 167.388L121.72 137.388L103.603 147.848L155.564 177.848Z" fill="#8BC5E4"/>
<path fill-rule="evenodd" clip-rule="evenodd" d="M173.681 167.388V170.698L121.72 140.698V137.388L173.681 167.388Z" fill="#8BC5E4"/>
<path fill-rule="evenodd" clip-rule="evenodd" d="M173.681 170.697L155.564 181.157L103.603 151.157L121.72 140.697L173.681 170.697Z" fill="#8BC5E4"/>
<path fill-rule="evenodd" clip-rule="evenodd" d="M155.564 181.158V177.848L103.603 147.848V151.158L155.564 181.158Z" fill="#8BC5E4"/>
<path fill-rule="evenodd" clip-rule="evenodd" d="M155.564 177.848L103.603 147.848L155.564 177.848Z" fill="#8BC5E4"/>
<path fill-rule="evenodd" clip-rule="evenodd" d="M155.564 171.047L177.743 158.242L125.781 128.242L103.603 141.047L155.564 171.047Z" fill="#8BC5E4"/>
<path fill-rule="evenodd" clip-rule="evenodd" d="M177.743 158.242V161.552L125.781 131.552V128.242L177.743 158.242Z" fill="#8BC5E4"/>
<path fill-rule="evenodd" clip-rule="evenodd" d="M177.743 161.553L155.564 174.358L103.603 144.358L125.781 131.553L177.743 161.553Z" fill="#8BC5E4"/>
<path fill-rule="evenodd" clip-rule="evenodd" d="M155.564 174.358V171.048L103.603 141.048V144.358L155.564 174.358Z" fill="#8BC5E4"/>
<path fill-rule="evenodd" clip-rule="evenodd" d="M155.564 171.048L103.603 141.048L155.564 171.048Z" fill="#8BC5E4"/>
<path fill-rule="evenodd" clip-rule="evenodd" d="M155.564 164.248L173.681 153.788L121.72 123.788L103.603 134.248L155.564 164.248Z" fill="#8BC5E4"/>
<path fill-rule="evenodd" clip-rule="evenodd" d="M173.681 153.788V157.108L121.72 127.108V123.788L173.681 153.788Z" fill="#8BC5E4"/>
<path fill-rule="evenodd" clip-rule="evenodd" d="M173.681 157.107L155.564 167.567L103.603 137.567L121.72 127.107L173.681 157.107Z" fill="#8BC5E4"/>
<path fill-rule="evenodd" clip-rule="evenodd" d="M155.564 167.568V164.248L103.603 134.248V137.568L155.564 167.568Z" fill="#8BC5E4"/>
<path fill-rule="evenodd" clip-rule="evenodd" d="M155.564 164.248L103.603 134.248L155.564 164.248Z" fill="#8BC5E4"/>
<path fill-rule="evenodd" clip-rule="evenodd" d="M155.564 157.457L177.743 144.652L125.781 114.652L103.603 127.457L155.564 157.457Z" fill="#8BC5E4"/>
<path fill-rule="evenodd" clip-rule="evenodd" d="M177.743 144.652V147.962L125.781 117.962V114.652L177.743 144.652Z" fill="#8BC5E4"/>
<path fill-rule="evenodd" clip-rule="evenodd" d="M177.743 147.962L155.564 160.767L103.603 130.767L125.781 117.962L177.743 147.962Z" fill="#8BC5E4"/>
<path fill-rule="evenodd" clip-rule="evenodd" d="M155.564 160.768V157.458L103.603 127.458V130.768L155.564 160.768Z" fill="#8BC5E4"/>
<path fill-rule="evenodd" clip-rule="evenodd" d="M155.564 157.458L103.603 127.458L155.564 157.458Z" fill="#8BC5E4"/>
<path fill-rule="evenodd" clip-rule="evenodd" d="M214.54 36.9575C216.111 36.0503 217.517 35.9161 218.554 36.4387L166.593 6.43874C165.556 5.91608 164.15 6.05029 162.579 6.95749L214.54 36.9575Z" fill="#8BC5E4"/>
<path fill-rule="evenodd" clip-rule="evenodd" d="M218.554 36.439C219.678 37.0052 220.369 38.3423 220.369 40.3027L168.407 10.3027C168.407 8.34231 167.716 7.00518 166.593 6.43896L218.554 36.439Z" fill="#8BC5E4"/>
<path fill-rule="evenodd" clip-rule="evenodd" d="M220.368 215.862C220.368 219.632 217.814 224.047 214.54 225.937L162.579 195.937C165.852 194.047 168.407 189.632 168.407 185.862L220.368 215.862Z" fill="#8BC5E4"/>
<path fill-rule="evenodd" clip-rule="evenodd" d="M62.5874 313.667C61.0161 314.575 59.6104 314.709 58.5733 314.186L6.61182 284.186C7.64887 284.709 9.05457 284.575 10.6259 283.667L62.5874 313.667Z" fill="#8BC5E4"/>
<path fill-rule="evenodd" clip-rule="evenodd" d="M58.5737 314.186C57.4502 313.62 56.7594 312.283 56.7594 310.322L4.79785 280.322C4.79785 282.283 5.48866 283.62 6.61213 284.186L58.5737 314.186Z" fill="#8BC5E4"/>
<path fill-rule="evenodd" clip-rule="evenodd" d="M56.7594 134.763C56.7594 130.993 59.3142 126.577 62.5877 124.688L10.6262 94.6875C7.35263 96.5775 4.79785 100.993 4.79785 104.763L56.7594 134.763Z" fill="#8BC5E4"/>
<path fill-rule="evenodd" clip-rule="evenodd" d="M62.5877 119.178C56.742 122.553 51.9615 130.803 51.9615 137.533L0 107.533C0 100.803 4.78046 92.5527 10.6261 89.1777L62.5877 119.178Z" fill="#8BC5E4"/>
<path fill-rule="evenodd" clip-rule="evenodd" d="M51.9615 313.093C51.9615 316.323 53.0629 318.632 54.8549 319.786L2.89338 289.786C1.10142 288.632 0 286.323 0 283.093L51.9615 313.093Z" fill="#8BC5E4"/>
<path fill-rule="evenodd" clip-rule="evenodd" d="M54.8546 319.786C56.7959 321.037 59.5476 320.933 62.5873 319.178L10.6258 289.178C7.58607 290.933 4.83436 291.037 2.89307 289.786L54.8546 319.786Z" fill="#8BC5E4"/>
<path fill-rule="evenodd" clip-rule="evenodd" d="M214.54 231.448C220.386 228.073 225.166 219.823 225.166 213.093L173.205 183.093C173.205 189.823 168.424 198.073 162.579 201.448L214.54 231.448Z" fill="#8BC5E4"/>
<path fill-rule="evenodd" clip-rule="evenodd" d="M225.166 37.5325C225.166 34.3021 224.065 31.9933 222.273 30.8389L170.312 0.838867C172.103 1.99327 173.205 4.30207 173.205 7.53247L225.166 37.5325Z" fill="#8BC5E4"/>
<path fill-rule="evenodd" clip-rule="evenodd" d="M222.273 30.8387C220.332 29.5881 217.58 29.6923 214.54 31.4473L162.579 1.44731C165.618 -0.307685 168.37 -0.411894 170.311 0.83871L222.273 30.8387Z" fill="#8BC5E4"/>
<path fill-rule="evenodd" clip-rule="evenodd" d="M136.823 177.508C136.823 177.948 136.546 178.528 136.113 178.778L84.1514 148.778C84.5844 148.528 84.8615 147.948 84.8615 147.508L136.823 177.508Z" fill="#8BC5E4"/>
<path fill-rule="evenodd" clip-rule="evenodd" d="M134.554 179.678C134.429 179.75 134.33 179.765 134.254 179.734L82.292 149.734C82.369 149.765 82.4679 149.75 82.5927 149.678L134.554 179.678Z" fill="#8BC5E4"/>
<path fill-rule="evenodd" clip-rule="evenodd" d="M134.254 179.734C134.09 179.668 134.026 179.393 134.026 179.013L82.0645 149.013C82.0645 149.393 82.1285 149.668 82.2921 149.734L134.254 179.734Z" fill="#8BC5E4"/>
<path fill-rule="evenodd" clip-rule="evenodd" d="M132.043 180.268C132.043 180.708 131.757 181.293 131.316 181.548L79.354 151.548C79.7957 151.293 80.0815 150.708 80.0815 150.268L132.043 180.268Z" fill="#8BC5E4"/>
<path fill-rule="evenodd" clip-rule="evenodd" d="M129.756 182.447C129.632 182.519 129.533 182.534 129.456 182.503L77.4941 152.503C77.5711 152.534 77.6701 152.519 77.7948 152.447L129.756 182.447Z" fill="#8BC5E4"/>
<path fill-rule="evenodd" clip-rule="evenodd" d="M129.456 182.503C129.292 182.437 129.228 182.163 129.228 181.782L77.2666 151.782C77.2666 152.163 77.3307 152.437 77.4942 152.503L129.456 182.503Z" fill="#8BC5E4"/>
<path fill-rule="evenodd" clip-rule="evenodd" d="M135.827 181.753C135.827 180.743 136.087 180.103 137.031 179.558L85.0695 149.558C84.1255 150.103 83.8657 150.743 83.8657 151.753L135.827 181.753Z" fill="#8BC5E4"/>
<path fill-rule="evenodd" clip-rule="evenodd" d="M137.031 179.557C137.759 179.137 138.045 178.622 138.045 177.982L86.0831 147.982C86.0831 148.622 85.7973 149.137 85.0698 149.557L137.031 179.557Z" fill="#8BC5E4"/>
<path fill-rule="evenodd" clip-rule="evenodd" d="M137.992 174.013C134.658 176.098 131.341 178.033 128.016 179.803L76.0542 149.803C79.3797 148.033 82.6966 146.098 86.0308 144.013L137.992 174.013Z" fill="#8BC5E4"/>
<path fill-rule="evenodd" clip-rule="evenodd" d="M128.007 183.598C128.007 183.973 128.037 184.249 128.188 184.348L76.2263 154.348C76.0753 154.249 76.0454 153.973 76.0454 153.598L128.007 183.598Z" fill="#8BC5E4"/>
<path fill-rule="evenodd" clip-rule="evenodd" d="M128.188 184.348C128.307 184.425 128.5 184.393 128.813 184.212L76.8511 154.212C76.5386 154.393 76.3452 154.425 76.2266 154.348L128.188 184.348Z" fill="#8BC5E4"/>
<path fill-rule="evenodd" clip-rule="evenodd" d="M128.813 184.212C129.233 183.969 129.623 183.852 129.868 183.988L77.9061 153.988C77.6617 153.852 77.272 153.969 76.8511 154.212L128.813 184.212Z" fill="#8BC5E4"/>
<path fill-rule="evenodd" clip-rule="evenodd" d="M129.868 183.988C130.031 184.078 130.129 184.28 130.129 184.632L78.1676 154.632C78.1676 154.28 78.0692 154.078 77.9062 153.988L129.868 183.988Z" fill="#8BC5E4"/>
<path fill-rule="evenodd" clip-rule="evenodd" d="M130.086 187.448C130.83 187.758 134.364 185.788 135.862 184.173L83.9004 154.173C82.4022 155.788 78.8688 157.758 78.124 157.448L130.086 187.448Z" fill="#8BC5E4"/>
<path fill-rule="evenodd" clip-rule="evenodd" d="M125.66 200.782C125.028 201.147 124.462 201.211 124.045 201.022L72.083 171.022C72.5008 171.211 73.0668 171.147 73.6987 170.782L125.66 200.782Z" fill="#8BC5E4"/>
<path fill-rule="evenodd" clip-rule="evenodd" d="M124.044 201.022C123.592 200.817 123.313 200.316 123.313 199.577L71.3516 169.577C71.3516 170.316 71.6302 170.817 72.0828 171.022L124.044 201.022Z" fill="#8BC5E4"/>
<path fill-rule="evenodd" clip-rule="evenodd" d="M123.313 192.058C123.313 190.958 124.075 189.288 125.045 188.728L73.0836 158.728C72.1137 159.288 71.3516 160.958 71.3516 162.058L123.313 192.058Z" fill="#8BC5E4"/>
<path fill-rule="evenodd" clip-rule="evenodd" d="M125.028 187.407C125.028 186.637 125.392 186.197 126.526 185.542L74.5646 155.542C73.4301 156.197 73.0664 156.637 73.0664 157.407L125.028 187.407Z" fill="#8BC5E4"/>
<path fill-rule="evenodd" clip-rule="evenodd" d="M126.526 185.543C125.73 183.783 125.92 181.983 126.492 180.173L74.5302 150.173C73.9586 151.983 73.7681 153.783 74.5648 155.543L126.526 185.543Z" fill="#8BC5E4"/>
<path fill-rule="evenodd" clip-rule="evenodd" d="M126.492 180.173C124.818 181.088 123.023 181.898 122.491 181.63L70.5298 151.63C71.0615 151.898 72.8568 151.088 74.53 150.173L126.492 180.173Z" fill="#8BC5E4"/>
<path fill-rule="evenodd" clip-rule="evenodd" d="M122.491 181.63C122.39 181.579 122.335 181.489 122.335 181.353L70.373 151.353C70.373 151.489 70.4285 151.579 70.5297 151.63L122.491 181.63Z" fill="#8BC5E4"/>
<path fill-rule="evenodd" clip-rule="evenodd" d="M122.335 181.353C122.335 180.263 125.331 177.393 127.08 176.173L75.1189 146.173C73.3695 147.393 70.373 150.263 70.373 151.353L122.335 181.353Z" fill="#8BC5E4"/>
<path fill-rule="evenodd" clip-rule="evenodd" d="M128.613 169.818C128.813 168.963 129.116 168.478 129.566 168.218L77.6045 138.218C77.1541 138.478 76.851 138.963 76.6519 139.818L128.613 169.818Z" fill="#8BC5E4"/>
<path fill-rule="evenodd" clip-rule="evenodd" d="M136.113 164.468C136.617 164.176 136.999 164.109 137.273 164.25L85.3115 134.25C85.0379 134.109 84.6557 134.176 84.1514 134.468L136.113 164.468Z" fill="#8BC5E4"/>
<path fill-rule="evenodd" clip-rule="evenodd" d="M137.273 164.25C137.488 164.36 137.636 164.599 137.724 164.958L85.7622 134.958C85.6745 134.599 85.5265 134.36 85.3115 134.25L137.273 164.25Z" fill="#8BC5E4"/>
<path fill-rule="evenodd" clip-rule="evenodd" d="M138.971 169.297C140.523 168.889 142.546 168.408 143.293 168.733L91.3314 138.733C90.5842 138.408 88.5612 138.889 87.0093 139.297L138.971 169.297Z" fill="#8BC5E4"/>
<path fill-rule="evenodd" clip-rule="evenodd" d="M143.293 168.733C143.48 168.815 143.587 168.947 143.587 169.143L91.6254 139.143C91.6254 138.947 91.5183 138.815 91.3315 138.733L143.293 168.733Z" fill="#8BC5E4"/>
<path fill-rule="evenodd" clip-rule="evenodd" d="M143.587 169.143C143.587 170.033 141.136 171.518 139.421 172.608L87.46 142.608C89.1747 141.518 91.6255 140.033 91.6255 139.143L143.587 169.143Z" fill="#8BC5E4"/>
<path fill-rule="evenodd" clip-rule="evenodd" d="M139.421 172.607C140.244 174.002 139.915 176.182 139.43 178.142L87.4686 148.142C87.9536 146.182 88.2827 144.002 87.46 142.607L139.421 172.607Z" fill="#8BC5E4"/>
<path fill-rule="evenodd" clip-rule="evenodd" d="M139.43 178.142C139.966 177.817 140.331 177.74 140.558 177.833L88.596 147.833C88.3691 147.74 88.0042 147.817 87.4683 148.142L139.43 178.142Z" fill="#8BC5E4"/>
<path fill-rule="evenodd" clip-rule="evenodd" d="M140.558 177.833C140.767 177.919 140.859 178.151 140.859 178.467L88.8974 148.467C88.8974 148.151 88.8056 147.919 88.5962 147.833L140.558 177.833Z" fill="#8BC5E4"/>
<path fill-rule="evenodd" clip-rule="evenodd" d="M140.859 179.487C141.268 179.251 141.631 179.239 141.919 179.383L89.9578 149.383C89.6693 149.239 89.3062 149.251 88.8975 149.487L140.859 179.487Z" fill="#8BC5E4"/>
<path fill-rule="evenodd" clip-rule="evenodd" d="M141.919 179.383C142.352 179.6 142.617 180.171 142.617 180.873L90.6553 150.873C90.6553 150.171 90.3903 149.6 89.9575 149.383L141.919 179.383Z" fill="#8BC5E4"/>
<path fill-rule="evenodd" clip-rule="evenodd" d="M142.617 188.112C142.617 190.302 141.456 191.702 140.131 192.467L88.1699 162.467C89.4949 161.702 90.6554 160.302 90.6554 158.112L142.617 188.112Z" fill="#8BC5E4"/>
<path fill-rule="evenodd" clip-rule="evenodd" d="M96.6914 244.228C94.9892 245.21 93.7389 245.619 92.9308 245.285L40.9692 215.285C41.7773 215.619 43.0276 215.21 44.7299 214.228L96.6914 244.228Z" fill="#8BC5E4"/>
<path fill-rule="evenodd" clip-rule="evenodd" d="M92.9311 245.285C92.1852 244.977 91.816 244.037 91.816 242.333L39.8545 212.333C39.8545 214.037 40.2236 214.977 40.9696 215.285L92.9311 245.285Z" fill="#8BC5E4"/>
<path fill-rule="evenodd" clip-rule="evenodd" d="M91.7984 171.842C91.7984 169.192 92.9243 166.162 96.0333 164.367L44.0718 134.367C40.9627 136.162 39.8369 139.192 39.8369 141.842L91.7984 171.842Z" fill="#8BC5E4"/>
<path fill-rule="evenodd" clip-rule="evenodd" d="M167.965 122.818C170.901 121.123 172.114 119.292 173.785 116.438L121.824 86.4375C120.152 89.2925 118.94 91.1225 116.004 92.8175L167.965 122.818Z" fill="#8BC5E4"/>
<path fill-rule="evenodd" clip-rule="evenodd" d="M176.963 111.453C178.99 108.133 179.943 107.023 182.965 105.388L131.004 75.3877C127.981 77.0227 127.028 78.1327 125.002 81.4527L176.963 111.453Z" fill="#8BC5E4"/>
<path fill-rule="evenodd" clip-rule="evenodd" d="M203.603 93.4527C205.093 92.5921 206.329 92.4549 207.171 92.8743L155.21 62.8743C154.367 62.4549 153.132 62.5921 151.641 63.4527L203.603 93.4527Z" fill="#8BC5E4"/>
<path fill-rule="evenodd" clip-rule="evenodd" d="M207.171 92.874C207.949 93.2612 208.392 94.1227 208.392 95.3275L156.43 65.3275C156.43 64.1227 155.987 63.2612 155.209 62.874L207.171 92.874Z" fill="#8BC5E4"/>
<path fill-rule="evenodd" clip-rule="evenodd" d="M208.452 174.232C208.452 177.982 206.824 180.662 203.594 182.497L151.632 152.497C154.863 150.662 156.491 147.982 156.491 144.232L208.452 174.232Z" fill="#8BC5E4"/>
<path d="M62.5876 124.688L214.54 36.9576C217.814 35.0676 220.369 36.5326 220.369 40.3026V215.863C220.369 219.633 217.814 224.048 214.54 225.938L62.5876 313.668C59.314 315.558 56.7592 314.093 56.7592 310.323V134.763C56.7592 130.993 59.314 126.578 62.5876 124.688ZM62.5876 119.178C56.7419 122.553 51.9614 130.803 51.9614 137.533V313.093C51.9614 319.823 56.7419 322.553 62.5876 319.178L214.54 231.448C220.386 228.073 225.167 219.823 225.167 213.093V37.5326C225.167 30.8026 220.386 28.0726 214.54 31.4476L62.5876 119.178ZM136.823 175.958V177.508C136.823 177.948 136.546 178.528 136.113 178.778L134.554 179.678C134.165 179.903 134.026 179.573 134.026 179.013V177.573L136.823 175.958ZM132.043 178.718V180.268C132.043 180.708 131.757 181.293 131.315 181.548L129.756 182.448C129.367 182.673 129.228 182.343 129.228 181.783V180.343L132.043 178.718ZM135.862 184.173L135.827 181.753C135.827 180.743 136.087 180.103 137.031 179.558C137.28 179.414 137.477 179.259 137.629 179.092C137.921 178.771 138.044 178.404 138.044 177.983L137.992 174.013C137.871 174.088 137.75 174.164 137.629 174.239C134.417 176.238 131.22 178.097 128.016 179.803L128.007 183.598C128.007 184.268 128.102 184.623 128.813 184.213C129.514 183.808 130.129 183.753 130.129 184.633L130.086 187.448C130.83 187.758 134.364 185.788 135.862 184.173ZM125.66 200.783C124.344 201.543 123.313 200.998 123.313 199.578V192.058C123.313 190.958 124.075 189.288 125.045 188.728L125.028 187.408C125.028 186.638 125.392 186.198 126.526 185.543C125.729 183.783 125.92 181.983 126.492 180.173C124.5 181.263 122.335 182.203 122.335 181.353C122.335 180.263 125.331 177.393 127.08 176.173L128.613 169.818C128.813 168.963 129.116 168.478 129.566 168.218L136.113 164.468C136.895 164.016 137.383 164.104 137.629 164.668C137.666 164.753 137.698 164.85 137.724 164.958L138.971 169.298C140.911 168.788 143.587 168.163 143.587 169.143C143.587 170.033 141.136 171.518 139.421 172.608C140.244 174.003 139.915 176.183 139.43 178.143C140.461 177.518 140.859 177.808 140.859 178.468V179.488C141.881 178.898 142.617 179.703 142.617 180.873V188.113C142.617 190.303 141.456 191.703 140.131 192.468L137.629 193.902L133.333 196.363V186.323L132.848 186.603V196.623L125.66 200.783ZM151.814 195.973L171.785 184.443V171.793V168.483V164.993V161.683V158.203V154.883V151.403V148.093V137.943L141.188 155.608L151.814 195.973ZM117.658 215.693L137.629 204.163V193.902V179.092V174.239V164.668V157.663L107.023 175.333L117.658 215.693ZM96.6916 244.228C93.4181 246.118 91.8159 245.883 91.8159 242.333L91.7986 171.843C91.7986 169.193 92.9244 166.163 96.0335 164.368L167.966 122.818C170.901 121.123 172.114 119.293 173.785 116.438L176.964 111.453C178.99 108.133 179.943 107.023 182.965 105.388L203.602 93.4526C206.469 91.7976 208.392 92.8176 208.392 95.3276L208.452 174.233C208.452 177.983 206.824 180.663 203.594 182.498L96.6916 244.228ZM155.564 177.848L171.785 168.483L173.681 167.388V170.698L171.785 171.793L155.564 181.158V177.848ZM155.564 171.048L171.785 161.683L177.743 158.243V161.553L171.785 164.993L155.564 174.358V171.048ZM155.564 164.248L171.785 154.883L173.681 153.788V157.108L171.785 158.203L155.564 167.568V164.248ZM155.564 157.458L171.785 148.093L177.743 144.653V147.963L171.785 151.403L155.564 160.768V157.458Z" fill="#8BC5E4"/>
<path fill-rule="evenodd" clip-rule="evenodd" d="M62.5876 124.688L214.54 36.9576C217.814 35.0676 220.369 36.5326 220.369 40.3026V215.863C220.369 219.633 217.814 224.048 214.54 225.938L62.5876 313.668C59.314 315.558 56.7592 314.093 56.7592 310.323V134.763C56.7592 130.993 59.314 126.578 62.5876 124.688ZM91.8159 242.333C91.8159 245.883 93.4181 246.118 96.6916 244.228L203.594 182.498C206.824 180.663 208.452 177.983 208.452 174.233L208.392 95.3276C208.392 92.8176 206.469 91.7976 203.602 93.4526L182.965 105.388C179.943 107.023 178.99 108.133 176.964 111.453L173.785 116.438C172.114 119.293 170.901 121.123 167.966 122.818L96.0335 164.368C92.9244 166.163 91.7986 169.193 91.7986 171.843L91.8159 242.333Z" fill="white"/>
<path d="M151.814 195.973L171.785 184.443V171.793L155.564 181.158V177.848L171.785 168.483V164.993L155.564 174.358V171.048L171.785 161.683V158.203L155.564 167.568V164.248L171.785 154.883V151.403L155.564 160.768V157.458L171.785 148.093V137.943L141.188 155.608L151.814 195.973Z" fill="white"/>
<path d="M125.66 200.783C124.344 201.543 123.313 200.998 123.313 199.578V192.058C123.313 190.958 124.075 189.288 125.045 188.728L125.028 187.408C125.028 186.638 125.392 186.198 126.526 185.543C125.729 183.783 125.92 181.983 126.492 180.173C124.5 181.263 122.335 182.203 122.335 181.353C122.335 180.263 125.331 177.393 127.08 176.173L128.613 169.818C128.813 168.963 129.116 168.478 129.566 168.218L136.113 164.468C136.895 164.016 137.383 164.104 137.629 164.668V157.663L107.023 175.333L117.658 215.693L137.629 204.163V193.902L133.333 196.363V186.323L132.848 186.603V196.623L125.66 200.783Z" fill="white"/>
<path fill-rule="evenodd" clip-rule="evenodd" d="M135.862 184.173L135.827 181.753C135.827 180.743 136.087 180.103 137.031 179.558C137.28 179.414 137.477 179.259 137.629 179.092V174.239C134.417 176.238 131.22 178.097 128.016 179.803L128.007 183.598C128.007 184.268 128.102 184.623 128.813 184.213C129.514 183.808 130.129 183.753 130.129 184.633L130.086 187.448C130.83 187.758 134.364 185.788 135.862 184.173ZM136.823 177.508V175.958L134.026 177.573V179.013C134.026 179.573 134.165 179.903 134.554 179.678L136.113 178.778C136.546 178.528 136.823 177.948 136.823 177.508ZM132.043 180.268V178.718L129.228 180.343V181.783C129.228 182.343 129.367 182.673 129.756 182.448L131.315 181.548C131.757 181.293 132.043 180.708 132.043 180.268Z" fill="white"/>
</svg>
