<svg width="226" height="321" viewBox="0 0 226 321" fill="none" xmlns="http://www.w3.org/2000/svg">
<path fill-rule="evenodd" clip-rule="evenodd" d="M89.3738 102.282L87.0875 104.212L139.049 74.2125L141.335 72.2825L89.3738 102.282Z" fill="#8BC5E4"/>
<path fill-rule="evenodd" clip-rule="evenodd" d="M37.5335 94.0125L34.182 91.4475L86.1435 61.4475L89.495 64.0125L37.5335 94.0125Z" fill="#8BC5E4"/>
<path fill-rule="evenodd" clip-rule="evenodd" d="M34.182 91.4475L34.3812 95.4625L86.3427 65.4625L86.1435 61.4475L34.182 91.4475Z" fill="#8BC5E4"/>
<path fill-rule="evenodd" clip-rule="evenodd" d="M87.9968 251.748L89.1919 253.078L141.153 223.078L139.958 221.748L87.9968 251.748Z" fill="#8BC5E4"/>
<path fill-rule="evenodd" clip-rule="evenodd" d="M89.192 253.078L90.3784 253.073L142.34 223.073L141.153 223.078L89.192 253.078Z" fill="#8BC5E4"/>
<path fill-rule="evenodd" clip-rule="evenodd" d="M131.982 221.283L132.008 221.238L183.97 191.238L183.944 191.283L131.982 221.283Z" fill="#8BC5E4"/>
<path fill-rule="evenodd" clip-rule="evenodd" d="M132.008 221.237L132.026 221.177L183.987 191.177L183.97 191.237L132.008 221.237Z" fill="#8BC5E4"/>
<path fill-rule="evenodd" clip-rule="evenodd" d="M143.7 158.758L143.942 154.958L195.904 124.958L195.661 128.758L143.7 158.758Z" fill="#8BC5E4"/>
<path fill-rule="evenodd" clip-rule="evenodd" d="M143.942 154.957L140.547 153.627L192.509 123.627L195.904 124.957L143.942 154.957Z" fill="#8BC5E4"/>
<path fill-rule="evenodd" clip-rule="evenodd" d="M91.4436 106.907L89.3738 102.282L141.335 72.2825L143.405 76.9075L91.4436 106.907Z" fill="#8BC5E4"/>
<path fill-rule="evenodd" clip-rule="evenodd" d="M89.3738 102.282L141.335 72.2825L89.3738 102.282Z" fill="#8BC5E4"/>
<path fill-rule="evenodd" clip-rule="evenodd" d="M52.9835 178.333L52.9748 178.298L104.936 148.298L104.945 148.333L52.9835 178.333Z" fill="#8BC5E4"/>
<path fill-rule="evenodd" clip-rule="evenodd" d="M52.9748 178.297L52.9661 178.262L104.928 148.262L104.936 148.297L52.9748 178.297Z" fill="#8BC5E4"/>
<path fill-rule="evenodd" clip-rule="evenodd" d="M89.0621 112.022L141.024 82.0225L89.0621 112.022Z" fill="#8BC5E4"/>
<path fill-rule="evenodd" clip-rule="evenodd" d="M98.2246 136.172L79.7263 125.492L131.688 95.4924L150.186 106.172L98.2246 136.172Z" fill="#8BC5E4"/>
<path fill-rule="evenodd" clip-rule="evenodd" d="M77.3967 126.808L73.4909 140.413L125.452 110.413L129.358 96.8076L77.3967 126.808Z" fill="#8BC5E4"/>
<path fill-rule="evenodd" clip-rule="evenodd" d="M71.5077 161.737L70.6677 161.252L122.629 131.252L123.469 131.737L71.5077 161.737Z" fill="#8BC5E4"/>
<path fill-rule="evenodd" clip-rule="evenodd" d="M67.8271 163.613L67.8444 167.393L119.806 137.393L119.789 133.613L67.8271 163.613Z" fill="#8BC5E4"/>
<path fill-rule="evenodd" clip-rule="evenodd" d="M63.6009 170.363V192.883L115.562 162.883V140.363L63.6009 170.363Z" fill="#8BC5E4"/>
<path fill-rule="evenodd" clip-rule="evenodd" d="M68.7625 201.782L87.9622 212.867L139.924 182.867L120.724 171.782L68.7625 201.782Z" fill="#8BC5E4"/>
<path fill-rule="evenodd" clip-rule="evenodd" d="M87.9622 212.867V184.857L139.924 154.857V182.867L87.9622 212.867Z" fill="#8BC5E4"/>
<path fill-rule="evenodd" clip-rule="evenodd" d="M87.9622 184.857L89.9974 186.012L141.959 156.012L139.924 154.857L87.9622 184.857Z" fill="#8BC5E4"/>
<path fill-rule="evenodd" clip-rule="evenodd" d="M89.9974 186.012V214.042L141.959 184.042V156.012L89.9974 186.012Z" fill="#8BC5E4"/>
<path fill-rule="evenodd" clip-rule="evenodd" d="M89.9974 214.042L109.033 225.032L160.994 195.032L141.959 184.042L89.9974 214.042Z" fill="#8BC5E4"/>
<path fill-rule="evenodd" clip-rule="evenodd" d="M114.307 221.608V200.028L166.268 170.028V191.608L114.307 221.608Z" fill="#8BC5E4"/>
<path fill-rule="evenodd" clip-rule="evenodd" d="M110.245 191.922V188.012L162.207 158.012V161.922L110.245 191.922Z" fill="#8BC5E4"/>
<path fill-rule="evenodd" clip-rule="evenodd" d="M107.162 182.313L106.478 181.958L158.439 151.958L159.124 152.313L107.162 182.313Z" fill="#8BC5E4"/>
<path fill-rule="evenodd" clip-rule="evenodd" d="M104.14 157.487L100.788 141.192L152.75 111.192L156.101 127.487L104.14 157.487Z" fill="#8BC5E4"/>
<path fill-rule="evenodd" clip-rule="evenodd" d="M98.2246 136.173L150.186 106.173L98.2246 136.173Z" fill="#8BC5E4"/>
<path fill-rule="evenodd" clip-rule="evenodd" d="M101.152 178.853L99.3851 177.833L151.347 147.833L153.113 148.853L101.152 178.853Z" fill="#8BC5E4"/>
<path fill-rule="evenodd" clip-rule="evenodd" d="M96.3367 180.002V186.892L148.298 156.892V150.002L96.3367 180.002Z" fill="#8BC5E4"/>
<path fill-rule="evenodd" clip-rule="evenodd" d="M81.6056 178.387V171.327L133.567 141.327V148.387L81.6056 178.387Z" fill="#8BC5E4"/>
<path fill-rule="evenodd" clip-rule="evenodd" d="M78.7391 165.913L76.9897 164.903L128.951 134.903L130.701 135.913L78.7391 165.913Z" fill="#8BC5E4"/>
<path fill-rule="evenodd" clip-rule="evenodd" d="M75.6473 151.647L127.609 121.647L75.6473 151.647Z" fill="#8BC5E4"/>
<path fill-rule="evenodd" clip-rule="evenodd" d="M78.765 156.728V161.188L130.727 131.188V126.728L78.765 156.728Z" fill="#8BC5E4"/>
<path fill-rule="evenodd" clip-rule="evenodd" d="M80.8868 165.312L84.5674 167.438L136.529 137.438L132.848 135.312L80.8868 165.312Z" fill="#8BC5E4"/>
<path fill-rule="evenodd" clip-rule="evenodd" d="M86.7151 166.298V161.798L138.677 131.798V136.298L86.7151 166.298Z" fill="#8BC5E4"/>
<path fill-rule="evenodd" clip-rule="evenodd" d="M85.2689 159.473L79.6484 156.228L131.61 126.228L137.23 129.473L85.2689 159.473Z" fill="#8BC5E4"/>
<path fill-rule="evenodd" clip-rule="evenodd" d="M79.6484 156.228L131.61 126.228L79.6484 156.228Z" fill="#8BC5E4"/>
<path fill-rule="evenodd" clip-rule="evenodd" d="M91.764 164.712V169.212L143.726 139.212V134.712L91.764 164.712Z" fill="#8BC5E4"/>
<path fill-rule="evenodd" clip-rule="evenodd" d="M93.9031 172.827L97.5751 174.947L149.537 144.947L145.865 142.827L93.9031 172.827Z" fill="#8BC5E4"/>
<path fill-rule="evenodd" clip-rule="evenodd" d="M99.7055 173.277V168.817L151.667 138.817V143.277L99.7055 173.277Z" fill="#8BC5E4"/>
<path fill-rule="evenodd" clip-rule="evenodd" d="M98.8222 167.297L93.2017 164.052L145.163 134.052L150.784 137.297L98.8222 167.297Z" fill="#8BC5E4"/>
<path fill-rule="evenodd" clip-rule="evenodd" d="M93.2017 164.052L145.163 134.052L93.2017 164.052Z" fill="#8BC5E4"/>
<path fill-rule="evenodd" clip-rule="evenodd" d="M10.6262 36.9675L162.579 124.698L214.54 94.6975L62.5877 6.96753L10.6262 36.9675Z" fill="#8BC5E4"/>
<path fill-rule="evenodd" clip-rule="evenodd" d="M168.407 134.752V310.322L220.369 280.322V104.752L168.407 134.752Z" fill="#8BC5E4"/>
<path fill-rule="evenodd" clip-rule="evenodd" d="M162.579 313.657L10.6262 225.927L62.5877 195.927L214.54 283.657L162.579 313.657Z" fill="#8BC5E4"/>
<path fill-rule="evenodd" clip-rule="evenodd" d="M4.79779 215.862V40.2925L56.7593 10.2925V185.862L4.79779 215.862Z" fill="#8BC5E4"/>
<path fill-rule="evenodd" clip-rule="evenodd" d="M10.6262 36.9675L62.5877 6.96753L10.6262 36.9675Z" fill="#8BC5E4"/>
<path fill-rule="evenodd" clip-rule="evenodd" d="M0 37.5225V213.092L51.9615 183.092V7.52246L0 37.5225Z" fill="#8BC5E4"/>
<path fill-rule="evenodd" clip-rule="evenodd" d="M10.6262 231.448L162.579 319.178L214.54 289.178L62.5877 201.448L10.6262 231.448Z" fill="#8BC5E4"/>
<path fill-rule="evenodd" clip-rule="evenodd" d="M173.205 313.092V137.522L225.167 107.522V283.092L173.205 313.092Z" fill="#8BC5E4"/>
<path fill-rule="evenodd" clip-rule="evenodd" d="M162.579 119.178L10.6262 31.4475L62.5877 1.44751L214.54 89.1775L162.579 119.178Z" fill="#8BC5E4"/>
<path fill-rule="evenodd" clip-rule="evenodd" d="M10.6262 31.4475L62.5877 1.44751L10.6262 31.4475Z" fill="#8BC5E4"/>
<path fill-rule="evenodd" clip-rule="evenodd" d="M87.0875 104.212C86.0226 105.109 84.925 105.884 83.7974 106.544L135.759 76.5436C136.886 75.8836 137.984 75.1088 139.049 74.2124L87.0875 104.212Z" fill="#8BC5E4"/>
<path fill-rule="evenodd" clip-rule="evenodd" d="M83.7975 106.544C70.8307 114.133 53.9146 106.534 37.5336 94.0125L89.4951 64.0125C105.876 76.5337 122.792 84.133 135.759 76.5436L83.7975 106.544Z" fill="#8BC5E4"/>
<path fill-rule="evenodd" clip-rule="evenodd" d="M34.3812 95.4624C35.9574 127.092 38.746 146.812 47.9259 177.702L99.8874 147.702C90.7075 116.812 87.9189 97.0924 86.3428 65.4624L34.3812 95.4624Z" fill="#8BC5E4"/>
<path fill-rule="evenodd" clip-rule="evenodd" d="M47.9258 177.702C56.4995 208.152 71.9494 233.832 87.9968 251.747L139.958 221.747C123.911 203.832 108.461 178.152 99.8874 147.702L47.9258 177.702Z" fill="#8BC5E4"/>
<path fill-rule="evenodd" clip-rule="evenodd" d="M90.3784 253.072C98.1321 253.045 104.668 251.238 110.228 248.101L162.189 218.101C156.63 221.238 150.094 223.045 142.34 223.072L90.3784 253.072Z" fill="#8BC5E4"/>
<path fill-rule="evenodd" clip-rule="evenodd" d="M110.228 248.101C120.112 242.524 126.911 232.742 131.982 221.282L183.944 191.282C178.872 202.742 172.073 212.524 162.189 218.101L110.228 248.101Z" fill="#8BC5E4"/>
<path fill-rule="evenodd" clip-rule="evenodd" d="M132.026 221.178C138.278 204.558 141.898 187.288 143.7 158.758L195.661 128.758C193.86 157.288 190.24 174.558 183.987 191.178L132.026 221.178Z" fill="#8BC5E4"/>
<path fill-rule="evenodd" clip-rule="evenodd" d="M140.547 153.627C118.94 145.222 101.567 129.582 91.4436 106.907L143.405 76.9075C153.529 99.5825 170.901 115.222 192.509 123.627L140.547 153.627Z" fill="#8BC5E4"/>
<path fill-rule="evenodd" clip-rule="evenodd" d="M89.0621 112.022C100.156 134.177 117.788 149.997 137.958 158.762L189.919 128.762C169.75 119.997 152.117 104.177 141.024 82.0225L89.0621 112.022Z" fill="#8BC5E4"/>
<path fill-rule="evenodd" clip-rule="evenodd" d="M137.958 158.762C136.113 184.557 132.727 200.612 126.916 216.077L178.878 186.077C184.689 170.612 188.075 154.557 189.919 128.762L137.958 158.762Z" fill="#8BC5E4"/>
<path fill-rule="evenodd" clip-rule="evenodd" d="M126.916 216.077C122.122 226.877 115.891 235.869 106.956 241.091L158.918 211.091C167.852 205.869 174.083 196.877 178.878 186.077L126.916 216.077Z" fill="#8BC5E4"/>
<path fill-rule="evenodd" clip-rule="evenodd" d="M106.956 241.092C101.931 244.029 96.0498 245.774 89.088 245.978L141.05 215.978C148.011 215.774 153.892 214.029 158.918 211.092L106.956 241.092Z" fill="#8BC5E4"/>
<path fill-rule="evenodd" clip-rule="evenodd" d="M89.0881 245.978C74.7034 229.503 60.8383 206.238 52.9835 178.333L104.945 148.333C112.8 176.238 126.665 199.503 141.05 215.978L89.0881 245.978Z" fill="#8BC5E4"/>
<path fill-rule="evenodd" clip-rule="evenodd" d="M52.9661 178.262C44.3751 149.362 41.6645 130.987 40.071 102.117L92.0325 72.1174C93.626 100.987 96.3367 119.362 104.928 148.262L52.9661 178.262Z" fill="#8BC5E4"/>
<path fill-rule="evenodd" clip-rule="evenodd" d="M40.071 102.117C56.4659 113.887 73.9542 120.703 87.4024 113.055L139.364 83.0545C125.916 90.703 108.427 83.887 92.0325 72.1174L40.071 102.117Z" fill="#8BC5E4"/>
<path fill-rule="evenodd" clip-rule="evenodd" d="M87.4025 113.055C87.9628 112.736 88.5161 112.392 89.0621 112.022L141.024 82.0225C140.478 82.3921 139.924 82.7359 139.364 83.0545L87.4025 113.055Z" fill="#8BC5E4"/>
<path fill-rule="evenodd" clip-rule="evenodd" d="M79.7263 125.493C79.17 125.171 78.7293 125.145 78.3763 125.324L130.338 95.3236C130.691 95.1455 131.132 95.1714 131.688 95.4926L79.7263 125.493Z" fill="#8BC5E4"/>
<path fill-rule="evenodd" clip-rule="evenodd" d="M78.3763 125.323C77.927 125.55 77.6198 126.108 77.3967 126.808L129.358 96.8075C129.581 96.1075 129.889 95.5502 130.338 95.3235L78.3763 125.323Z" fill="#8BC5E4"/>
<path fill-rule="evenodd" clip-rule="evenodd" d="M73.4909 140.413C70.1481 138.713 66.5021 137.288 63.6442 136.958L115.606 106.958C118.464 107.288 122.11 108.713 125.452 110.413L73.4909 140.413Z" fill="#8BC5E4"/>
<path fill-rule="evenodd" clip-rule="evenodd" d="M63.6442 136.957C62.4664 136.835 61.1845 136.953 60.4847 137.293L112.446 107.293C113.146 106.953 114.428 106.835 115.606 106.957L63.6442 136.957Z" fill="#8BC5E4"/>
<path fill-rule="evenodd" clip-rule="evenodd" d="M60.4847 137.293C60.1554 137.453 59.955 137.661 59.955 137.917L111.916 107.917C111.916 107.661 112.117 107.453 112.446 107.293L60.4847 137.293Z" fill="#8BC5E4"/>
<path fill-rule="evenodd" clip-rule="evenodd" d="M59.955 137.917C59.955 138.867 60.9249 140.217 61.5658 140.827L113.527 110.827C112.886 110.217 111.916 108.867 111.916 107.917L59.955 137.917Z" fill="#8BC5E4"/>
<path fill-rule="evenodd" clip-rule="evenodd" d="M61.5657 140.827C64.2071 143.432 68.4073 146.617 71.5164 148.742L123.478 118.742C120.369 116.617 116.169 113.432 113.527 110.827L61.5657 140.827Z" fill="#8BC5E4"/>
<path fill-rule="evenodd" clip-rule="evenodd" d="M71.5164 148.742C70.4338 151.897 69.8536 155.402 71.5077 161.737L123.469 131.737C121.815 125.402 122.395 121.897 123.478 118.742L71.5164 148.742Z" fill="#8BC5E4"/>
<path fill-rule="evenodd" clip-rule="evenodd" d="M70.6677 161.252C70.1647 160.962 69.4901 160.893 68.9246 161.188L120.886 131.188C121.452 130.893 122.126 130.962 122.629 131.252L70.6677 161.252Z" fill="#8BC5E4"/>
<path fill-rule="evenodd" clip-rule="evenodd" d="M68.9245 161.188C68.3118 161.508 67.8271 162.255 67.8271 163.612L119.789 133.612C119.789 132.255 120.273 131.508 120.886 131.188L68.9245 161.188Z" fill="#8BC5E4"/>
<path fill-rule="evenodd" clip-rule="evenodd" d="M67.8444 167.392C66.8301 166.807 65.8118 166.754 65.0271 167.199L116.989 137.199C117.773 136.754 118.792 136.807 119.806 137.392L67.8444 167.392Z" fill="#8BC5E4"/>
<path fill-rule="evenodd" clip-rule="evenodd" d="M65.0271 167.199C64.177 167.682 63.6009 168.751 63.6009 170.363L115.562 140.363C115.562 138.751 116.138 137.682 116.989 137.199L65.0271 167.199Z" fill="#8BC5E4"/>
<path fill-rule="evenodd" clip-rule="evenodd" d="M63.6009 192.883C63.6009 196.233 66.5367 200.498 68.7624 201.783L120.724 171.783C118.498 170.498 115.562 166.233 115.562 162.883L63.6009 192.883Z" fill="#8BC5E4"/>
<path fill-rule="evenodd" clip-rule="evenodd" d="M109.033 225.032C110.246 225.733 111.51 225.772 112.496 225.238L164.458 195.238C163.472 195.772 162.208 195.733 160.994 195.032L109.033 225.032Z" fill="#8BC5E4"/>
<path fill-rule="evenodd" clip-rule="evenodd" d="M112.496 225.238C113.564 224.661 114.307 223.412 114.307 221.607L166.268 191.607C166.268 193.412 165.526 194.661 164.458 195.238L112.496 225.238Z" fill="#8BC5E4"/>
<path fill-rule="evenodd" clip-rule="evenodd" d="M114.307 200.028C114.307 197.838 112.956 193.488 110.245 191.923L162.207 161.923C164.917 163.488 166.268 167.838 166.268 170.028L114.307 200.028Z" fill="#8BC5E4"/>
<path fill-rule="evenodd" clip-rule="evenodd" d="M110.245 188.013C110.245 186.173 108.729 183.218 107.162 182.312L159.124 152.312C160.691 153.217 162.207 156.173 162.207 158.013L110.245 188.013Z" fill="#8BC5E4"/>
<path fill-rule="evenodd" clip-rule="evenodd" d="M106.478 181.957C107.829 179.077 107.881 174.587 106.573 168.962L158.535 138.962C159.842 144.587 159.79 149.077 158.439 151.957L106.478 181.957Z" fill="#8BC5E4"/>
<path fill-rule="evenodd" clip-rule="evenodd" d="M106.573 168.962C109.076 169.957 111.873 171.012 114.8 171.622L166.762 141.622C163.835 141.012 161.037 139.957 158.535 138.962L106.573 168.962Z" fill="#8BC5E4"/>
<path fill-rule="evenodd" clip-rule="evenodd" d="M114.8 171.622C115.72 171.853 116.484 171.846 116.915 171.614L168.877 141.614C168.446 141.846 167.682 141.853 166.762 141.622L114.8 171.622Z" fill="#8BC5E4"/>
<path fill-rule="evenodd" clip-rule="evenodd" d="M116.915 171.614C117.158 171.484 117.294 171.282 117.294 171.012L169.256 141.012C169.256 141.282 169.119 141.484 168.877 141.614L116.915 171.614Z" fill="#8BC5E4"/>
<path fill-rule="evenodd" clip-rule="evenodd" d="M117.295 171.012C117.295 170.362 115.987 168.577 114.575 166.952L166.537 136.952C167.948 138.577 169.256 140.362 169.256 141.012L117.295 171.012Z" fill="#8BC5E4"/>
<path fill-rule="evenodd" clip-rule="evenodd" d="M114.575 166.953C110.661 162.513 107.318 159.753 104.14 157.488L156.101 127.488C159.279 129.753 162.622 132.513 166.537 136.953L114.575 166.953Z" fill="#8BC5E4"/>
<path fill-rule="evenodd" clip-rule="evenodd" d="M100.788 141.193C100.381 138.868 99.6969 137.023 98.2246 136.173L150.186 106.173C151.658 107.023 152.343 108.868 152.75 111.193L100.788 141.193Z" fill="#8BC5E4"/>
<path fill-rule="evenodd" clip-rule="evenodd" d="M75.6473 151.647C80.3239 155.107 94.5354 163.512 102.312 167.042L154.274 137.042C146.497 133.512 132.285 125.107 127.609 121.647L75.6473 151.647Z" fill="#8BC5E4"/>
<path fill-rule="evenodd" clip-rule="evenodd" d="M102.312 167.042C103.126 170.532 102.849 173.652 102.849 176.662L154.811 146.662C154.811 143.652 155.088 140.532 154.274 137.042L102.312 167.042Z" fill="#8BC5E4"/>
<path fill-rule="evenodd" clip-rule="evenodd" d="M102.849 176.663C102.849 177.802 102.441 178.546 101.964 178.828L153.925 148.828C154.403 148.546 154.811 147.802 154.811 146.663L102.849 176.663Z" fill="#8BC5E4"/>
<path fill-rule="evenodd" clip-rule="evenodd" d="M101.964 178.827C101.695 178.986 101.404 178.998 101.152 178.852L153.113 148.852C153.366 148.998 153.657 148.986 153.925 148.827L101.964 178.827Z" fill="#8BC5E4"/>
<path fill-rule="evenodd" clip-rule="evenodd" d="M99.3851 177.833C98.5925 177.375 97.9072 177.337 97.3882 177.616L149.35 147.616C149.869 147.337 150.554 147.375 151.347 147.833L99.3851 177.833Z" fill="#8BC5E4"/>
<path fill-rule="evenodd" clip-rule="evenodd" d="M97.3883 177.616C96.7278 177.971 96.3367 178.838 96.3367 180.003L148.298 150.003C148.298 148.838 148.689 147.971 149.35 147.616L97.3883 177.616Z" fill="#8BC5E4"/>
<path fill-rule="evenodd" clip-rule="evenodd" d="M96.3367 186.892C91.8247 186.517 85.8231 183.132 81.6056 178.387L133.567 148.387C137.785 153.132 143.786 156.517 148.298 156.892L96.3367 186.892Z" fill="#8BC5E4"/>
<path fill-rule="evenodd" clip-rule="evenodd" d="M81.6056 171.328C81.6056 169.008 80.1506 166.728 78.739 165.913L130.701 135.913C132.112 136.728 133.567 139.008 133.567 141.328L81.6056 171.328Z" fill="#8BC5E4"/>
<path fill-rule="evenodd" clip-rule="evenodd" d="M76.9896 164.902C76.011 164.337 75.0497 162.342 75.0497 160.522L127.011 130.522C127.011 132.342 127.973 134.337 128.951 134.902L76.9896 164.902Z" fill="#8BC5E4"/>
<path fill-rule="evenodd" clip-rule="evenodd" d="M75.0498 160.522C75.0498 156.102 74.9545 153.107 75.6473 151.647L127.609 121.647C126.916 123.107 127.011 126.102 127.011 130.522L75.0498 160.522Z" fill="#8BC5E4"/>
<path fill-rule="evenodd" clip-rule="evenodd" d="M79.6484 156.228C79.3116 156.033 79.0946 155.979 78.96 156.053L130.922 126.053C131.056 125.979 131.273 126.033 131.61 126.228L79.6484 156.228Z" fill="#8BC5E4"/>
<path fill-rule="evenodd" clip-rule="evenodd" d="M78.96 156.053C78.8142 156.133 78.765 156.364 78.765 156.728L130.727 126.728C130.727 126.364 130.776 126.133 130.922 126.053L78.96 156.053Z" fill="#8BC5E4"/>
<path fill-rule="evenodd" clip-rule="evenodd" d="M78.765 161.188C78.765 162.788 79.8562 164.718 80.8868 165.313L132.848 135.313C131.818 134.718 130.727 132.788 130.727 131.188L78.765 161.188Z" fill="#8BC5E4"/>
<path fill-rule="evenodd" clip-rule="evenodd" d="M84.5674 167.438C85.1078 167.75 85.6669 167.818 86.0792 167.61L138.041 137.61C137.628 137.818 137.069 137.75 136.529 137.438L84.5674 167.438Z" fill="#8BC5E4"/>
<path fill-rule="evenodd" clip-rule="evenodd" d="M86.0792 167.61C86.4597 167.417 86.7151 166.989 86.7151 166.298L138.677 136.298C138.677 136.989 138.421 137.417 138.041 137.61L86.0792 167.61Z" fill="#8BC5E4"/>
<path fill-rule="evenodd" clip-rule="evenodd" d="M86.7151 161.797C86.7151 160.767 86.3168 160.077 85.2689 159.472L137.23 129.472C138.278 130.077 138.677 130.767 138.677 131.797L86.7151 161.797Z" fill="#8BC5E4"/>
<path fill-rule="evenodd" clip-rule="evenodd" d="M93.2017 164.053C92.7029 163.765 92.3517 163.668 92.1213 163.759L144.083 133.759C144.313 133.668 144.664 133.765 145.163 134.053L93.2017 164.053Z" fill="#8BC5E4"/>
<path fill-rule="evenodd" clip-rule="evenodd" d="M92.1213 163.759C91.8718 163.858 91.764 164.177 91.764 164.712L143.726 134.712C143.726 134.177 143.833 133.858 144.083 133.759L92.1213 163.759Z" fill="#8BC5E4"/>
<path fill-rule="evenodd" clip-rule="evenodd" d="M91.764 169.212C91.764 170.652 92.8726 172.232 93.9031 172.827L145.865 142.827C144.834 142.232 143.726 140.652 143.726 139.212L91.764 169.212Z" fill="#8BC5E4"/>
<path fill-rule="evenodd" clip-rule="evenodd" d="M97.5751 174.948C98.0323 175.212 98.4997 175.23 98.8797 175.031L150.841 145.031C150.461 145.23 149.994 145.212 149.537 144.948L97.5751 174.948Z" fill="#8BC5E4"/>
<path fill-rule="evenodd" clip-rule="evenodd" d="M98.8796 175.031C99.3633 174.778 99.7055 174.174 99.7055 173.278L151.667 143.278C151.667 144.174 151.325 144.778 150.841 145.031L98.8796 175.031Z" fill="#8BC5E4"/>
<path fill-rule="evenodd" clip-rule="evenodd" d="M99.7055 168.818C99.7055 168.118 99.5236 167.703 98.8221 167.298L150.784 137.298C151.485 137.703 151.667 138.118 151.667 138.818L99.7055 168.818Z" fill="#8BC5E4"/>
<path fill-rule="evenodd" clip-rule="evenodd" d="M162.579 124.698C165.853 126.588 168.407 130.993 168.407 134.753L220.369 104.753C220.369 100.993 217.814 96.5875 214.541 94.6975L162.579 124.698Z" fill="#8BC5E4"/>
<path fill-rule="evenodd" clip-rule="evenodd" d="M168.407 310.323C168.407 312.127 167.819 313.403 166.844 314.033L218.806 284.033C219.78 283.403 220.369 282.127 220.369 280.323L168.407 310.323Z" fill="#8BC5E4"/>
<path fill-rule="evenodd" clip-rule="evenodd" d="M166.845 314.033C165.789 314.716 164.281 314.64 162.579 313.657L214.541 283.657C216.243 284.64 217.751 284.716 218.806 284.033L166.845 314.033Z" fill="#8BC5E4"/>
<path fill-rule="evenodd" clip-rule="evenodd" d="M10.6261 225.928C7.35257 224.038 4.79779 219.623 4.79779 215.863L56.7593 185.863C56.7593 189.623 59.3141 194.038 62.5877 195.928L10.6261 225.928Z" fill="#8BC5E4"/>
<path fill-rule="evenodd" clip-rule="evenodd" d="M4.79779 40.2926C4.79779 38.4878 5.38641 37.2141 6.36061 36.5864L58.3221 6.58643C57.3479 7.21407 56.7593 8.48779 56.7593 10.2926L4.79779 40.2926Z" fill="#8BC5E4"/>
<path fill-rule="evenodd" clip-rule="evenodd" d="M6.3606 36.5863C7.41598 35.9063 8.92387 35.9846 10.6261 36.9674L62.5877 6.96742C60.8854 5.98462 59.3775 5.90631 58.3221 6.58625L6.3606 36.5863Z" fill="#8BC5E4"/>
<path fill-rule="evenodd" clip-rule="evenodd" d="M10.6261 31.4476C7.82022 29.8276 5.25973 29.6142 3.35553 30.5734L55.3171 0.573435C57.2213 -0.385847 59.7817 -0.172439 62.5877 1.44756L10.6261 31.4476Z" fill="#8BC5E4"/>
<path fill-rule="evenodd" clip-rule="evenodd" d="M3.35552 30.5735C1.29264 31.6127 0 34.0282 0 37.5226L51.9615 7.52261C51.9615 4.02821 53.2542 1.61271 55.317 0.573486L3.35552 30.5735Z" fill="#8BC5E4"/>
<path fill-rule="evenodd" clip-rule="evenodd" d="M0 213.093C0 219.813 4.78046 228.073 10.6261 231.448L62.5877 201.448C56.742 198.073 51.9615 189.813 51.9615 183.093L0 213.093Z" fill="#8BC5E4"/>
<path fill-rule="evenodd" clip-rule="evenodd" d="M162.579 319.177C165.385 320.797 167.945 321.009 169.85 320.047L221.811 290.047C219.907 291.009 217.346 290.797 214.541 289.177L162.579 319.177Z" fill="#8BC5E4"/>
<path fill-rule="evenodd" clip-rule="evenodd" d="M169.85 320.047C171.912 319.005 173.205 316.587 173.205 313.093L225.167 283.093C225.167 286.587 223.874 289.005 221.811 290.047L169.85 320.047Z" fill="#8BC5E4"/>
<path fill-rule="evenodd" clip-rule="evenodd" d="M173.205 137.522C173.205 130.802 168.425 122.552 162.579 119.177L214.541 89.1775C220.386 92.5525 225.167 100.802 225.167 107.522L173.205 137.522Z" fill="#8BC5E4"/>
<path d="M89.3738 102.283L87.0875 104.213C73.7767 115.418 55.339 107.623 37.5335 94.0126L34.182 91.4476L34.3812 95.4626C35.9574 127.093 38.746 146.813 47.9258 177.703C56.4995 208.153 71.9494 233.833 87.9968 251.748L89.192 253.078L90.3784 253.073C111.916 252.998 124.058 239.188 131.982 221.283L132.008 221.238L132.026 221.178C138.278 204.558 141.898 187.288 143.7 158.758L143.942 154.958L140.547 153.628C118.94 145.223 101.567 129.583 91.4436 106.908L89.3738 102.283ZM89.062 112.023C100.156 134.178 117.788 149.998 137.958 158.763C136.113 184.558 132.727 200.613 126.916 216.078C119.425 232.953 108.426 245.413 89.088 245.978C74.7034 229.503 60.8383 206.238 52.9834 178.333L52.9748 178.298L52.9661 178.263C44.3751 149.363 41.6645 130.988 40.071 102.118C57.149 114.378 75.4135 121.263 89.062 112.023ZM98.2246 136.173L79.7263 125.493C78.4619 124.763 77.7951 125.558 77.3967 126.808L73.4909 140.413C70.1481 138.713 66.5021 137.288 63.6442 136.958C61.9122 136.778 59.9549 137.118 59.9549 137.918C59.9549 138.868 60.9249 140.218 61.5657 140.828C64.2071 143.433 68.4073 146.618 71.5164 148.743C70.4338 151.898 69.8536 155.403 71.5077 161.738L70.6677 161.253C69.6198 160.648 67.8271 161.003 67.8271 163.613L67.8444 167.393C65.7313 166.173 63.6009 167.263 63.6009 170.363V192.883C63.6009 196.233 66.5367 200.498 68.7624 201.783L87.9622 212.868V184.858L89.9974 186.013V214.043L109.033 225.033C111.561 226.493 114.307 225.078 114.307 221.608V200.028C114.307 197.838 112.956 193.488 110.245 191.923V188.013C110.245 186.173 108.729 183.218 107.162 182.313L106.478 181.958C107.829 179.078 107.881 174.588 106.573 168.963C109.076 169.958 111.873 171.013 114.8 171.623C116.238 171.983 117.294 171.763 117.294 171.013C117.294 170.363 115.987 168.578 114.575 166.953C110.661 162.513 107.318 159.753 104.14 157.488L100.788 141.193C100.381 138.868 99.6968 137.023 98.2246 136.173ZM75.6473 151.648C80.3239 155.108 94.5353 163.513 102.312 167.043C103.126 170.533 102.849 173.653 102.849 176.663C102.849 178.443 101.853 179.258 101.152 178.853L99.3851 177.833C97.5837 176.793 96.3367 177.923 96.3367 180.003V186.893C91.8247 186.518 85.8231 183.133 81.6056 178.388V171.328C81.6056 169.008 80.1507 166.728 78.739 165.913L76.9897 164.903C76.0111 164.338 75.0498 162.343 75.0498 160.523C75.0498 156.103 74.9545 153.108 75.6473 151.648ZM79.6484 156.228C78.9469 155.823 78.765 156.028 78.765 156.728V161.188C78.765 162.788 79.8562 164.718 80.8868 165.313L84.5674 167.438C85.6066 168.038 86.7151 167.738 86.7151 166.298V161.798C86.7151 160.768 86.3167 160.078 85.2689 159.473L79.6484 156.228ZM93.2017 164.053C92.1624 163.453 91.7641 163.683 91.7641 164.713V169.213C91.7641 170.653 92.8726 172.233 93.9031 172.828L97.5751 174.948C98.6143 175.548 99.7055 174.878 99.7055 173.278V168.818C99.7055 168.118 99.5236 167.703 98.8222 167.298L93.2017 164.053ZM10.6261 36.9676L162.579 124.698C165.853 126.588 168.407 130.993 168.407 134.753V310.323C168.407 314.083 165.853 315.548 162.579 313.658L10.6261 225.928C7.35256 224.038 4.79778 219.623 4.79778 215.863V40.2926C4.79778 36.5326 7.35256 35.0776 10.6261 36.9676ZM10.6261 31.4476C4.78046 28.0726 0 30.8026 0 37.5226V213.093C0 219.813 4.78046 228.073 10.6261 231.448L162.579 319.178C168.425 322.553 173.205 319.813 173.205 313.093V137.523C173.205 130.803 168.425 122.553 162.579 119.178L10.6261 31.4476Z" fill="#8BC5E4"/>
<path fill-rule="evenodd" clip-rule="evenodd" d="M10.6261 36.9676L162.579 124.698C165.853 126.588 168.407 130.993 168.407 134.753V310.323C168.407 314.083 165.853 315.548 162.579 313.658L10.6261 225.928C7.35256 224.038 4.79778 219.623 4.79778 215.863V40.2926C4.79778 36.5326 7.35256 35.0776 10.6261 36.9676ZM87.0875 104.213L89.3738 102.283L91.4436 106.908C101.567 129.583 118.94 145.223 140.547 153.628L143.942 154.958L143.7 158.758C141.898 187.288 138.278 204.558 132.026 221.178L132.008 221.238L131.982 221.283C124.058 239.188 111.916 252.998 90.3784 253.073L89.192 253.078L87.9968 251.748C71.9494 233.833 56.4995 208.153 47.9258 177.703C38.746 146.813 35.9574 127.093 34.3812 95.4626L34.182 91.4476L37.5335 94.0126C55.339 107.623 73.7767 115.418 87.0875 104.213Z" fill="white"/>
<path fill-rule="evenodd" clip-rule="evenodd" d="M89.062 112.023C100.156 134.178 117.788 149.998 137.958 158.763C136.113 184.558 132.727 200.613 126.916 216.078C119.425 232.953 108.426 245.413 89.088 245.978C74.7034 229.503 60.8383 206.238 52.9834 178.333L52.9748 178.298L52.9661 178.263C44.3751 149.363 41.6645 130.988 40.071 102.118C57.149 114.378 75.4135 121.263 89.062 112.023ZM79.7263 125.493L98.2246 136.173C99.6968 137.023 100.381 138.868 100.788 141.193L104.14 157.488C107.318 159.753 110.661 162.513 114.575 166.953C115.987 168.578 117.294 170.363 117.294 171.013C117.294 171.763 116.238 171.983 114.8 171.623C111.873 171.013 109.076 169.958 106.573 168.963C107.881 174.588 107.829 179.078 106.478 181.958L107.162 182.313C108.729 183.218 110.245 186.173 110.245 188.013V191.923C112.956 193.488 114.307 197.838 114.307 200.028V221.608C114.307 225.078 111.561 226.493 109.033 225.033L89.9974 214.043V186.013L87.9622 184.858V212.868L68.7624 201.783C66.5367 200.498 63.6009 196.233 63.6009 192.883V170.363C63.6009 167.263 65.7313 166.173 67.8444 167.393L67.8271 163.613C67.8271 161.003 69.6198 160.648 70.6677 161.253L71.5077 161.738C69.8536 155.403 70.4338 151.898 71.5164 148.743C68.4073 146.618 64.2071 143.433 61.5657 140.828C60.9249 140.218 59.9549 138.868 59.9549 137.918C59.9549 137.118 61.9122 136.778 63.6442 136.958C66.5021 137.288 70.1481 138.713 73.4909 140.413L77.3967 126.808C77.7951 125.558 78.4619 124.763 79.7263 125.493Z" fill="white"/>
<path fill-rule="evenodd" clip-rule="evenodd" d="M75.6473 151.648C80.3239 155.108 94.5353 163.513 102.312 167.043C103.126 170.533 102.849 173.653 102.849 176.663C102.849 178.443 101.853 179.258 101.152 178.853L99.3851 177.833C97.5837 176.793 96.3367 177.923 96.3367 180.003V186.893C91.8247 186.518 85.8231 183.133 81.6056 178.388V171.328C81.6056 169.008 80.1507 166.728 78.739 165.913L76.9897 164.903C76.0111 164.338 75.0498 162.343 75.0498 160.523C75.0498 156.103 74.9545 153.108 75.6473 151.648ZM78.765 156.728C78.765 156.028 78.9469 155.823 79.6484 156.228L85.2689 159.473C86.3167 160.078 86.7151 160.768 86.7151 161.798V166.298C86.7151 167.738 85.6066 168.038 84.5674 167.438L80.8868 165.313C79.8562 164.718 78.765 162.788 78.765 161.188V156.728ZM91.7641 164.713C91.7641 163.683 92.1624 163.453 93.2017 164.053L98.8222 167.298C99.5236 167.703 99.7055 168.118 99.7055 168.818V173.278C99.7055 174.878 98.6143 175.548 97.5751 174.948L93.9031 172.828C92.8726 172.233 91.7641 170.653 91.7641 169.213V164.713Z" fill="white"/>
</svg>
