<svg width="226" height="321" viewBox="0 0 226 321" fill="none" xmlns="http://www.w3.org/2000/svg">
<path fill-rule="evenodd" clip-rule="evenodd" d="M136.823 225.027L130.718 241.762L78.7563 211.762L84.8618 195.027L136.823 225.027Z" fill="#8BC5E4"/>
<path fill-rule="evenodd" clip-rule="evenodd" d="M142.868 234.577L136.823 225.027L84.8618 195.027L90.9067 204.577L142.868 234.577Z" fill="#8BC5E4"/>
<path fill-rule="evenodd" clip-rule="evenodd" d="M136.823 225.027L84.8618 195.027L136.823 225.027Z" fill="#8BC5E4"/>
<path fill-rule="evenodd" clip-rule="evenodd" d="M111.475 239.662L105.361 256.402L53.3992 226.402L59.5133 209.662L111.475 239.662Z" fill="#8BC5E4"/>
<path fill-rule="evenodd" clip-rule="evenodd" d="M117.511 249.217L111.475 239.662L59.5133 209.662L65.5495 219.217L117.511 249.217Z" fill="#8BC5E4"/>
<path fill-rule="evenodd" clip-rule="evenodd" d="M111.475 239.662L59.5133 209.662L111.475 239.662Z" fill="#8BC5E4"/>
<path fill-rule="evenodd" clip-rule="evenodd" d="M162.181 210.387L156.067 227.127L104.105 197.127L110.219 180.387L162.181 210.387Z" fill="#8BC5E4"/>
<path fill-rule="evenodd" clip-rule="evenodd" d="M168.226 219.937L162.181 210.387L110.219 180.387L116.264 189.937L168.226 219.937Z" fill="#8BC5E4"/>
<path fill-rule="evenodd" clip-rule="evenodd" d="M162.181 210.387L110.219 180.387L162.181 210.387Z" fill="#8BC5E4"/>
<path fill-rule="evenodd" clip-rule="evenodd" d="M124.153 207.932L118.039 224.672L66.0778 194.672L72.1919 177.932L124.153 207.932Z" fill="#8BC5E4"/>
<path fill-rule="evenodd" clip-rule="evenodd" d="M130.19 217.487L124.153 207.932L72.1919 177.932L78.2281 187.487L130.19 217.487Z" fill="#8BC5E4"/>
<path fill-rule="evenodd" clip-rule="evenodd" d="M124.153 207.932L72.1919 177.932L124.153 207.932Z" fill="#8BC5E4"/>
<path fill-rule="evenodd" clip-rule="evenodd" d="M98.7962 222.572L92.6821 239.312L40.7206 209.312L46.8347 192.572L98.7962 222.572Z" fill="#8BC5E4"/>
<path fill-rule="evenodd" clip-rule="evenodd" d="M104.832 232.127L98.7962 222.572L46.8347 192.572L52.8709 202.127L104.832 232.127Z" fill="#8BC5E4"/>
<path fill-rule="evenodd" clip-rule="evenodd" d="M98.7962 222.572L46.8347 192.572L98.7962 222.572Z" fill="#8BC5E4"/>
<path fill-rule="evenodd" clip-rule="evenodd" d="M149.502 193.297L143.388 210.037L91.4263 180.037L97.5404 163.297L149.502 193.297Z" fill="#8BC5E4"/>
<path fill-rule="evenodd" clip-rule="evenodd" d="M155.547 202.847L149.502 193.297L97.5404 163.297L103.585 172.847L155.547 202.847Z" fill="#8BC5E4"/>
<path fill-rule="evenodd" clip-rule="evenodd" d="M149.502 193.297L97.5404 163.297L149.502 193.297Z" fill="#8BC5E4"/>
<path fill-rule="evenodd" clip-rule="evenodd" d="M174.859 178.657L168.736 195.402L116.775 165.402L122.898 148.657L174.859 178.657Z" fill="#8BC5E4"/>
<path fill-rule="evenodd" clip-rule="evenodd" d="M180.904 188.207L174.859 178.657L122.898 148.657L128.943 158.207L180.904 188.207Z" fill="#8BC5E4"/>
<path fill-rule="evenodd" clip-rule="evenodd" d="M174.859 178.657L122.898 148.657L174.859 178.657Z" fill="#8BC5E4"/>
<path fill-rule="evenodd" clip-rule="evenodd" d="M94.6826 220.817L178.038 172.662L126.076 142.662L42.7211 190.817L94.6826 220.817Z" fill="#8BC5E4"/>
<path fill-rule="evenodd" clip-rule="evenodd" d="M147.12 98.3423L95.1589 68.3423L147.12 98.3423Z" fill="#8BC5E4"/>
<path fill-rule="evenodd" clip-rule="evenodd" d="M139.742 130.292L159.704 123.917L107.742 93.9172L87.7804 100.292L139.742 130.292Z" fill="#8BC5E4"/>
<path fill-rule="evenodd" clip-rule="evenodd" d="M159.704 123.917V142.297L107.742 112.297V93.9172L159.704 123.917Z" fill="#8BC5E4"/>
<path fill-rule="evenodd" clip-rule="evenodd" d="M140.305 184.957L139.733 185.517L87.7717 155.517L88.3433 154.957L140.305 184.957Z" fill="#8BC5E4"/>
<path fill-rule="evenodd" clip-rule="evenodd" d="M139.733 185.517L139.17 185.612L87.2087 155.612L87.7717 155.517L139.733 185.517Z" fill="#8BC5E4"/>
<path fill-rule="evenodd" clip-rule="evenodd" d="M119.763 165.357V148.537L67.8011 118.537V135.357L119.763 165.357Z" fill="#8BC5E4"/>
<path fill-rule="evenodd" clip-rule="evenodd" d="M119.763 148.537V146.977L67.8011 116.977V118.537L119.763 148.537Z" fill="#8BC5E4"/>
<path fill-rule="evenodd" clip-rule="evenodd" d="M119.763 146.977L139.742 130.292L87.7804 100.292L67.8011 116.977L119.763 146.977Z" fill="#8BC5E4"/>
<path fill-rule="evenodd" clip-rule="evenodd" d="M139.742 130.292L87.7804 100.292L139.742 130.292Z" fill="#8BC5E4"/>
<path fill-rule="evenodd" clip-rule="evenodd" d="M139.742 134.302L135.853 137.547L83.892 107.547L87.7804 104.302L139.742 134.302Z" fill="#8BC5E4"/>
<path fill-rule="evenodd" clip-rule="evenodd" d="M135.853 137.547L135.879 139.732L83.9179 109.732L83.892 107.547L135.853 137.547Z" fill="#8BC5E4"/>
<path fill-rule="evenodd" clip-rule="evenodd" d="M135.879 139.732L129.324 145.207L77.3621 115.207L83.9179 109.732L135.879 139.732Z" fill="#8BC5E4"/>
<path fill-rule="evenodd" clip-rule="evenodd" d="M129.324 145.207L129.358 142.977L77.3967 112.977L77.3621 115.207L129.324 145.207Z" fill="#8BC5E4"/>
<path fill-rule="evenodd" clip-rule="evenodd" d="M129.358 142.977L123.166 148.142L71.2046 118.142L77.3967 112.977L129.358 142.977Z" fill="#8BC5E4"/>
<path fill-rule="evenodd" clip-rule="evenodd" d="M123.166 148.142V163.392L71.2046 133.392V118.142L123.166 148.142Z" fill="#8BC5E4"/>
<path fill-rule="evenodd" clip-rule="evenodd" d="M156.3 144.262V129.012L104.339 99.0122V114.262L156.3 144.262Z" fill="#8BC5E4"/>
<path fill-rule="evenodd" clip-rule="evenodd" d="M156.3 129.012L150.117 130.992L98.1554 100.992L104.339 99.0122L156.3 129.012Z" fill="#8BC5E4"/>
<path fill-rule="evenodd" clip-rule="evenodd" d="M150.117 130.992L150.152 133.182L98.19 103.182L98.1554 100.992L150.117 130.992Z" fill="#8BC5E4"/>
<path fill-rule="evenodd" clip-rule="evenodd" d="M150.151 133.182L143.596 135.277L91.6342 105.277L98.19 103.182L150.151 133.182Z" fill="#8BC5E4"/>
<path fill-rule="evenodd" clip-rule="evenodd" d="M143.596 135.277L143.613 133.067L91.6515 103.067L91.6342 105.277L143.596 135.277Z" fill="#8BC5E4"/>
<path fill-rule="evenodd" clip-rule="evenodd" d="M143.613 133.067L139.742 134.302L87.7804 104.302L91.6515 103.067L143.613 133.067Z" fill="#8BC5E4"/>
<path fill-rule="evenodd" clip-rule="evenodd" d="M139.742 134.302L87.7804 104.302L139.742 134.302Z" fill="#8BC5E4"/>
<path fill-rule="evenodd" clip-rule="evenodd" d="M139.664 142.047L150.022 139.507L98.0601 109.507L87.7024 112.047L139.664 142.047Z" fill="#8BC5E4"/>
<path fill-rule="evenodd" clip-rule="evenodd" d="M150.022 139.507L131.419 172.187L79.4579 142.187L98.0601 109.507L150.022 139.507Z" fill="#8BC5E4"/>
<path fill-rule="evenodd" clip-rule="evenodd" d="M127.644 158.697L127.514 152.552L75.5521 122.552L75.682 128.697L127.644 158.697Z" fill="#8BC5E4"/>
<path fill-rule="evenodd" clip-rule="evenodd" d="M127.514 152.552L139.664 142.047L87.7025 112.047L75.5521 122.552L127.514 152.552Z" fill="#8BC5E4"/>
<path fill-rule="evenodd" clip-rule="evenodd" d="M139.664 142.047L87.7024 112.047L139.664 142.047Z" fill="#8BC5E4"/>
<path fill-rule="evenodd" clip-rule="evenodd" d="M151.953 141.032L151.944 144.667L99.9827 114.667L99.9913 111.032L151.953 141.032Z" fill="#8BC5E4"/>
<path fill-rule="evenodd" clip-rule="evenodd" d="M133.255 173.877L151.953 141.032L99.9913 111.032L81.2938 143.877L133.255 173.877Z" fill="#8BC5E4"/>
<path fill-rule="evenodd" clip-rule="evenodd" d="M151.953 141.032L99.9913 111.032L151.953 141.032Z" fill="#8BC5E4"/>
<path fill-rule="evenodd" clip-rule="evenodd" d="M62.5876 124.687L214.54 36.9573L162.579 6.95728L10.6261 94.6873L62.5876 124.687Z" fill="#8BC5E4"/>
<path fill-rule="evenodd" clip-rule="evenodd" d="M220.369 40.3022V215.862L168.407 185.862V10.3022L220.369 40.3022Z" fill="#8BC5E4"/>
<path fill-rule="evenodd" clip-rule="evenodd" d="M214.54 225.937L62.5876 313.667L10.6261 283.667L162.579 195.937L214.54 225.937Z" fill="#8BC5E4"/>
<path fill-rule="evenodd" clip-rule="evenodd" d="M56.7594 310.322V134.762L4.79785 104.762V280.322L56.7594 310.322Z" fill="#8BC5E4"/>
<path fill-rule="evenodd" clip-rule="evenodd" d="M62.5876 124.687L10.6261 94.6873L62.5876 124.687Z" fill="#8BC5E4"/>
<path fill-rule="evenodd" clip-rule="evenodd" d="M51.9615 137.532V313.092L0 283.092V107.532L51.9615 137.532Z" fill="#8BC5E4"/>
<path fill-rule="evenodd" clip-rule="evenodd" d="M62.5876 319.177L214.54 231.447L162.579 201.447L10.6261 289.177L62.5876 319.177Z" fill="#8BC5E4"/>
<path fill-rule="evenodd" clip-rule="evenodd" d="M225.167 213.092V37.5322L173.205 7.53223V183.092L225.167 213.092Z" fill="#8BC5E4"/>
<path fill-rule="evenodd" clip-rule="evenodd" d="M214.54 31.4473L62.5876 119.177L10.6261 89.1773L162.579 1.44727L214.54 31.4473Z" fill="#8BC5E4"/>
<path fill-rule="evenodd" clip-rule="evenodd" d="M62.5876 119.177L10.6261 89.1772L62.5876 119.177Z" fill="#8BC5E4"/>
<path fill-rule="evenodd" clip-rule="evenodd" d="M130.718 241.762C130.042 243.422 129.687 245.087 129.679 246.582L77.7172 216.582C77.7258 215.087 78.0809 213.422 78.7564 211.762L130.718 241.762Z" fill="#8BC5E4"/>
<path fill-rule="evenodd" clip-rule="evenodd" d="M129.679 246.582C129.679 248.762 130.432 250.417 131.774 251.182L79.8129 221.182C78.4706 220.417 77.7172 218.762 77.7172 216.582L129.679 246.582Z" fill="#8BC5E4"/>
<path fill-rule="evenodd" clip-rule="evenodd" d="M131.774 251.182C133.108 251.952 134.927 251.772 136.823 250.677L84.8618 220.677C82.9652 221.772 81.1465 221.952 79.8129 221.182L131.774 251.182Z" fill="#8BC5E4"/>
<path fill-rule="evenodd" clip-rule="evenodd" d="M136.823 250.677C138.729 249.577 140.547 247.667 141.89 245.342L89.9281 215.342C88.5857 217.667 86.7671 219.577 84.8618 220.677L136.823 250.677Z" fill="#8BC5E4"/>
<path fill-rule="evenodd" clip-rule="evenodd" d="M141.89 245.342C143.232 243.027 143.985 240.502 143.985 238.322L92.0239 208.322C92.0239 210.502 91.2704 213.027 89.9281 215.342L141.89 245.342Z" fill="#8BC5E4"/>
<path fill-rule="evenodd" clip-rule="evenodd" d="M143.985 238.322C143.977 236.767 143.596 235.467 142.868 234.577L90.9067 204.577C91.6342 205.467 92.0153 206.767 92.0239 208.322L143.985 238.322Z" fill="#8BC5E4"/>
<path fill-rule="evenodd" clip-rule="evenodd" d="M105.361 256.402C104.685 258.062 104.33 259.727 104.321 261.222L52.3599 231.222C52.3685 229.727 52.7236 228.062 53.3991 226.402L105.361 256.402Z" fill="#8BC5E4"/>
<path fill-rule="evenodd" clip-rule="evenodd" d="M104.321 261.222C104.321 263.402 105.075 265.057 106.417 265.822L54.4556 235.822C53.1133 235.057 52.3599 233.402 52.3599 231.222L104.321 261.222Z" fill="#8BC5E4"/>
<path fill-rule="evenodd" clip-rule="evenodd" d="M106.417 265.822C107.76 266.597 109.578 266.407 111.483 265.307L59.5219 235.307C57.6167 236.407 55.798 236.597 54.4557 235.822L106.417 265.822Z" fill="#8BC5E4"/>
<path fill-rule="evenodd" clip-rule="evenodd" d="M111.483 265.307C113.38 264.212 115.199 262.292 116.532 259.982L64.5709 229.982C63.2372 232.292 61.4186 234.212 59.522 235.307L111.483 265.307Z" fill="#8BC5E4"/>
<path fill-rule="evenodd" clip-rule="evenodd" d="M116.532 259.982C117.875 257.667 118.628 255.142 118.628 252.962L66.6667 222.962C66.6667 225.142 65.9133 227.667 64.5709 229.982L116.532 259.982Z" fill="#8BC5E4"/>
<path fill-rule="evenodd" clip-rule="evenodd" d="M118.628 252.962C118.619 251.407 118.238 250.107 117.511 249.217L65.5494 219.217C66.2769 220.107 66.658 221.407 66.6666 222.962L118.628 252.962Z" fill="#8BC5E4"/>
<path fill-rule="evenodd" clip-rule="evenodd" d="M156.066 227.127C155.391 228.787 155.036 230.452 155.036 231.942L103.074 201.942C103.074 200.452 103.429 198.787 104.105 197.127L156.066 227.127Z" fill="#8BC5E4"/>
<path fill-rule="evenodd" clip-rule="evenodd" d="M155.036 231.942C155.036 234.122 155.789 235.777 157.132 236.542L105.17 206.542C103.828 205.777 103.074 204.122 103.074 201.942L155.036 231.942Z" fill="#8BC5E4"/>
<path fill-rule="evenodd" clip-rule="evenodd" d="M157.132 236.542C158.465 237.312 160.284 237.132 162.181 236.037L110.219 206.037C108.322 207.132 106.504 207.312 105.17 206.542L157.132 236.542Z" fill="#8BC5E4"/>
<path fill-rule="evenodd" clip-rule="evenodd" d="M162.181 236.037C164.077 234.942 165.896 233.022 167.238 230.707L115.277 200.707C113.934 203.022 112.116 204.942 110.219 206.037L162.181 236.037Z" fill="#8BC5E4"/>
<path fill-rule="evenodd" clip-rule="evenodd" d="M167.238 230.707C168.58 228.392 169.334 225.867 169.334 223.687L117.372 193.687C117.372 195.867 116.619 198.392 115.277 200.707L167.238 230.707Z" fill="#8BC5E4"/>
<path fill-rule="evenodd" clip-rule="evenodd" d="M169.334 223.687C169.334 222.127 168.944 220.832 168.225 219.937L116.264 189.937C116.983 190.832 117.372 192.127 117.372 193.687L169.334 223.687Z" fill="#8BC5E4"/>
<path fill-rule="evenodd" clip-rule="evenodd" d="M118.039 224.672C117.364 226.332 117.009 228.007 117 229.502L65.0386 199.502C65.0472 198.007 65.4023 196.332 66.0778 194.672L118.039 224.672Z" fill="#8BC5E4"/>
<path fill-rule="evenodd" clip-rule="evenodd" d="M117 229.502C117 231.677 117.738 233.229 118.943 234.003L66.9814 204.003C65.7768 203.229 65.0386 201.677 65.0386 199.502L117 229.502Z" fill="#8BC5E4"/>
<path fill-rule="evenodd" clip-rule="evenodd" d="M118.943 234.003C120.248 234.842 122.1 234.768 124.153 233.582L72.1919 203.582C70.1384 204.768 68.2862 204.842 66.9813 204.003L118.943 234.003Z" fill="#8BC5E4"/>
<path fill-rule="evenodd" clip-rule="evenodd" d="M124.153 233.582C126.05 232.487 127.869 230.577 129.211 228.262L77.2495 198.262C75.9071 200.577 74.0885 202.487 72.1919 203.582L124.153 233.582Z" fill="#8BC5E4"/>
<path fill-rule="evenodd" clip-rule="evenodd" d="M129.211 228.262C130.553 225.947 131.307 223.422 131.307 221.242L79.3453 191.242C79.3453 193.422 78.5919 195.947 77.2495 198.262L129.211 228.262Z" fill="#8BC5E4"/>
<path fill-rule="evenodd" clip-rule="evenodd" d="M131.307 221.242C131.307 219.682 130.917 218.377 130.19 217.487L78.2281 187.487C78.9556 188.377 79.3453 189.682 79.3453 191.242L131.307 221.242Z" fill="#8BC5E4"/>
<path fill-rule="evenodd" clip-rule="evenodd" d="M92.682 239.312C92.0065 240.972 91.6515 242.647 91.6428 244.142L39.6813 214.142C39.6899 212.647 40.045 210.972 40.7205 209.312L92.682 239.312Z" fill="#8BC5E4"/>
<path fill-rule="evenodd" clip-rule="evenodd" d="M91.6428 244.142C91.6428 246.322 92.4049 247.972 93.7386 248.742L41.7771 218.742C40.4434 217.972 39.6813 216.322 39.6813 214.142L91.6428 244.142Z" fill="#8BC5E4"/>
<path fill-rule="evenodd" clip-rule="evenodd" d="M93.7386 248.742C95.081 249.507 96.9083 249.312 98.8049 248.217L46.8433 218.217C44.9468 219.312 43.1194 219.507 41.7771 218.742L93.7386 248.742Z" fill="#8BC5E4"/>
<path fill-rule="evenodd" clip-rule="evenodd" d="M98.8049 248.217C102.745 245.942 105.95 240.412 105.95 235.882L53.9881 205.882C53.9881 210.412 50.7838 215.942 46.8434 218.217L98.8049 248.217Z" fill="#8BC5E4"/>
<path fill-rule="evenodd" clip-rule="evenodd" d="M105.95 235.882C105.95 234.322 105.56 233.017 104.832 232.127L52.8708 202.127C53.5983 203.017 53.988 204.322 53.988 205.882L105.95 235.882Z" fill="#8BC5E4"/>
<path fill-rule="evenodd" clip-rule="evenodd" d="M143.388 210.037C142.712 211.697 142.357 213.372 142.357 214.862L90.3958 184.862C90.3958 183.372 90.7508 181.697 91.4263 180.037L143.388 210.037Z" fill="#8BC5E4"/>
<path fill-rule="evenodd" clip-rule="evenodd" d="M142.357 214.862C142.357 217.037 143.096 218.589 144.299 219.364L92.3376 189.364C91.134 188.589 90.3958 187.037 90.3958 184.862L142.357 214.862Z" fill="#8BC5E4"/>
<path fill-rule="evenodd" clip-rule="evenodd" d="M144.299 219.364C145.603 220.203 147.453 220.13 149.502 218.947L97.5405 188.947C95.4915 190.13 93.6415 190.203 92.3376 189.364L144.299 219.364Z" fill="#8BC5E4"/>
<path fill-rule="evenodd" clip-rule="evenodd" d="M149.502 218.947C153.451 216.667 156.655 211.137 156.655 206.607L104.694 176.607C104.694 181.137 101.489 186.667 97.5404 188.947L149.502 218.947Z" fill="#8BC5E4"/>
<path fill-rule="evenodd" clip-rule="evenodd" d="M156.655 206.607C156.655 205.047 156.266 203.752 155.547 202.847L103.585 172.847C104.304 173.752 104.694 175.047 104.694 176.607L156.655 206.607Z" fill="#8BC5E4"/>
<path fill-rule="evenodd" clip-rule="evenodd" d="M168.736 195.402C168.07 197.057 167.714 198.732 167.714 200.222L115.753 170.222C115.753 168.732 116.108 167.057 116.775 165.402L168.736 195.402Z" fill="#8BC5E4"/>
<path fill-rule="evenodd" clip-rule="evenodd" d="M167.714 200.222C167.714 202.402 168.468 204.047 169.81 204.812L117.849 174.812C116.506 174.047 115.753 172.402 115.753 170.222L167.714 200.222Z" fill="#8BC5E4"/>
<path fill-rule="evenodd" clip-rule="evenodd" d="M169.81 204.812C171.153 205.587 172.963 205.402 174.859 204.307L122.898 174.307C121.001 175.402 119.191 175.587 117.849 174.812L169.81 204.812Z" fill="#8BC5E4"/>
<path fill-rule="evenodd" clip-rule="evenodd" d="M174.859 204.307C178.808 202.027 182.004 196.502 182.004 191.972L130.042 161.972C130.042 166.502 126.847 172.027 122.898 174.307L174.859 204.307Z" fill="#8BC5E4"/>
<path fill-rule="evenodd" clip-rule="evenodd" d="M182.004 191.972C182.013 190.407 181.623 189.112 180.904 188.207L128.943 158.207C129.661 159.112 130.051 160.407 130.042 161.972L182.004 191.972Z" fill="#8BC5E4"/>
<path fill-rule="evenodd" clip-rule="evenodd" d="M147.12 98.3423C144.851 99.7023 142.548 101.302 140.27 103.147L88.3086 73.1473C90.5862 71.3023 92.8899 69.7023 95.1589 68.3423L147.12 98.3423Z" fill="#8BC5E4"/>
<path fill-rule="evenodd" clip-rule="evenodd" d="M140.27 103.147C129.774 112.357 123.019 122.837 121.33 134.772L69.3687 104.772C71.0574 92.8372 77.8124 82.3572 88.3086 73.1472L140.27 103.147Z" fill="#8BC5E4"/>
<path fill-rule="evenodd" clip-rule="evenodd" d="M121.33 134.772C113.787 134.537 106.383 139.892 101.819 146.477L49.8571 116.477C54.421 109.892 61.8255 104.537 69.3686 104.772L121.33 134.772Z" fill="#8BC5E4"/>
<path fill-rule="evenodd" clip-rule="evenodd" d="M101.819 146.477C96.25 154.872 94.5526 162.292 95.3061 167.867L43.3445 137.867C42.5911 132.292 44.2885 124.872 49.857 116.477L101.819 146.477Z" fill="#8BC5E4"/>
<path fill-rule="evenodd" clip-rule="evenodd" d="M95.3062 167.867C81.9261 175.442 72.7549 190.967 72.7549 206.657L20.7933 176.657C20.7933 160.967 29.9645 145.442 43.3446 137.867L95.3062 167.867Z" fill="#8BC5E4"/>
<path fill-rule="evenodd" clip-rule="evenodd" d="M72.7549 206.657C72.7549 212.347 74.3817 219.136 78.7531 222.311L26.7916 192.311C22.4201 189.136 20.7933 182.347 20.7933 176.657L72.7549 206.657Z" fill="#8BC5E4"/>
<path fill-rule="evenodd" clip-rule="evenodd" d="M78.753 222.311C82.1877 224.806 87.3168 225.07 94.6826 220.817L42.721 190.817C35.3553 195.07 30.2262 194.806 26.7915 192.311L78.753 222.311Z" fill="#8BC5E4"/>
<path fill-rule="evenodd" clip-rule="evenodd" d="M178.038 172.662C193.228 163.892 199.913 153.242 200.71 141.392L148.749 111.392C147.952 123.242 141.266 133.892 126.076 142.662L178.038 172.662Z" fill="#8BC5E4"/>
<path fill-rule="evenodd" clip-rule="evenodd" d="M200.71 141.392C201.492 134.631 199.95 128.936 196.259 126.564L144.297 96.5642C147.988 98.936 149.53 104.631 148.748 111.392L200.71 141.392Z" fill="#8BC5E4"/>
<path fill-rule="evenodd" clip-rule="evenodd" d="M196.259 126.564C194.183 125.23 191.427 124.947 188.023 126.117L136.061 96.1172C139.466 94.9472 142.222 95.23 144.298 96.5642L196.259 126.564Z" fill="#8BC5E4"/>
<path fill-rule="evenodd" clip-rule="evenodd" d="M188.023 126.117C187.997 122.182 187.209 120.907 185.191 119.082L133.229 89.0823C135.247 90.9073 136.035 92.1823 136.061 96.1173L188.023 126.117Z" fill="#8BC5E4"/>
<path fill-rule="evenodd" clip-rule="evenodd" d="M185.191 119.082L133.229 89.0823L185.191 119.082Z" fill="#8BC5E4"/>
<path fill-rule="evenodd" clip-rule="evenodd" d="M185.191 119.082C183.086 117.747 180.54 118.357 177.864 120.052L125.903 90.0521C128.579 88.3571 131.125 87.7472 133.229 89.0822L185.191 119.082Z" fill="#8BC5E4"/>
<path fill-rule="evenodd" clip-rule="evenodd" d="M177.864 120.052C179.042 110.772 179.276 100.657 171.863 95.2473L119.901 65.2473C127.314 70.6573 127.081 80.7723 125.903 90.0523L177.864 120.052Z" fill="#8BC5E4"/>
<path fill-rule="evenodd" clip-rule="evenodd" d="M171.863 95.2472C171.642 95.0912 171.416 94.9433 171.183 94.8035L119.222 64.8035C119.454 64.9433 119.681 65.0912 119.901 65.2472L171.863 95.2472Z" fill="#8BC5E4"/>
<path fill-rule="evenodd" clip-rule="evenodd" d="M171.183 94.8035C165.603 91.4468 156.573 92.7311 147.12 98.3423L95.1589 68.3423C104.612 62.7311 113.642 61.4468 119.222 64.8035L171.183 94.8035Z" fill="#8BC5E4"/>
<path fill-rule="evenodd" clip-rule="evenodd" d="M159.704 142.297C159.704 155.157 151.676 173.812 140.305 184.957L88.3433 154.957C99.7142 143.812 107.742 125.157 107.742 112.297L159.704 142.297Z" fill="#8BC5E4"/>
<path fill-rule="evenodd" clip-rule="evenodd" d="M139.17 185.612C135.318 186.28 131.443 185.816 128.179 183.962L76.217 153.962C79.4811 155.816 83.3567 156.28 87.2088 155.612L139.17 185.612Z" fill="#8BC5E4"/>
<path fill-rule="evenodd" clip-rule="evenodd" d="M128.179 183.962C123.283 181.18 119.763 175.269 119.763 165.357L67.8011 135.357C67.8011 145.269 71.321 151.18 76.217 153.962L128.179 183.962Z" fill="#8BC5E4"/>
<path fill-rule="evenodd" clip-rule="evenodd" d="M123.166 163.392C123.166 172.038 126.159 177.174 130.334 179.651L78.3728 149.651C74.1976 147.174 71.2046 142.038 71.2046 133.392L123.166 163.392Z" fill="#8BC5E4"/>
<path fill-rule="evenodd" clip-rule="evenodd" d="M130.334 179.651C133.118 181.303 136.427 181.772 139.725 181.312L87.763 151.312C84.4652 151.772 81.1563 151.303 78.3728 149.651L130.334 179.651Z" fill="#8BC5E4"/>
<path fill-rule="evenodd" clip-rule="evenodd" d="M139.725 181.312C149.182 171.672 156.3 154.972 156.3 144.262L104.339 114.262C104.339 124.972 97.2201 141.672 87.7631 151.312L139.725 181.312Z" fill="#8BC5E4"/>
<path fill-rule="evenodd" clip-rule="evenodd" d="M131.419 172.187C129.185 169.567 127.644 165.297 127.644 158.697L75.682 128.697C75.682 135.297 77.2235 139.567 79.4579 142.187L131.419 172.187Z" fill="#8BC5E4"/>
<path fill-rule="evenodd" clip-rule="evenodd" d="M151.944 144.667C151.944 155.537 146.107 168.497 139.794 175.762L87.8323 145.762C94.1456 138.497 99.9826 125.537 99.9826 114.667L151.944 144.667Z" fill="#8BC5E4"/>
<path fill-rule="evenodd" clip-rule="evenodd" d="M139.794 175.762C137.946 175.83 136.013 175.48 134.245 174.505L82.2839 144.505C84.0513 145.48 85.9846 145.83 87.8323 145.762L139.794 175.762Z" fill="#8BC5E4"/>
<path fill-rule="evenodd" clip-rule="evenodd" d="M134.245 174.504C133.909 174.319 133.578 174.11 133.255 173.877L81.2938 143.877C81.6167 144.11 81.9473 144.319 82.2839 144.504L134.245 174.504Z" fill="#8BC5E4"/>
<path fill-rule="evenodd" clip-rule="evenodd" d="M214.541 36.9572C216.112 36.05 217.518 35.9158 218.555 36.4385L166.593 6.4385C165.556 5.91584 164.15 6.05005 162.579 6.95725L214.541 36.9572Z" fill="#8BC5E4"/>
<path fill-rule="evenodd" clip-rule="evenodd" d="M218.555 36.4385C219.678 37.0047 220.369 38.3418 220.369 40.3022L168.407 10.3022C168.407 8.34182 167.716 7.00469 166.593 6.43848L218.555 36.4385Z" fill="#8BC5E4"/>
<path fill-rule="evenodd" clip-rule="evenodd" d="M220.369 215.862C220.369 219.632 217.814 224.047 214.541 225.937L162.579 195.937C165.853 194.047 168.407 189.632 168.407 185.862L220.369 215.862Z" fill="#8BC5E4"/>
<path fill-rule="evenodd" clip-rule="evenodd" d="M62.5877 313.667C61.0163 314.574 59.6106 314.709 58.5736 314.186L6.61206 284.186C7.64911 284.709 9.05481 284.574 10.6261 283.667L62.5877 313.667Z" fill="#8BC5E4"/>
<path fill-rule="evenodd" clip-rule="evenodd" d="M58.5737 314.186C57.4502 313.62 56.7594 312.283 56.7594 310.322L4.79785 280.322C4.79785 282.283 5.48866 283.62 6.61213 284.186L58.5737 314.186Z" fill="#8BC5E4"/>
<path fill-rule="evenodd" clip-rule="evenodd" d="M56.7594 134.762C56.7594 130.992 59.3142 126.577 62.5877 124.687L10.6262 94.6873C7.35263 96.5773 4.79785 100.992 4.79785 104.762L56.7594 134.762Z" fill="#8BC5E4"/>
<path fill-rule="evenodd" clip-rule="evenodd" d="M62.5877 119.177C56.742 122.552 51.9615 130.802 51.9615 137.532L0 107.532C0 100.802 4.78046 92.5522 10.6261 89.1772L62.5877 119.177Z" fill="#8BC5E4"/>
<path fill-rule="evenodd" clip-rule="evenodd" d="M51.9615 313.092C51.9615 316.323 53.0629 318.631 54.8549 319.786L2.89338 289.786C1.10142 288.631 0 286.323 0 283.092L51.9615 313.092Z" fill="#8BC5E4"/>
<path fill-rule="evenodd" clip-rule="evenodd" d="M54.855 319.786C56.7962 321.036 59.548 320.932 62.5877 319.177L10.6262 289.177C7.58644 290.932 4.83472 291.036 2.89343 289.786L54.855 319.786Z" fill="#8BC5E4"/>
<path fill-rule="evenodd" clip-rule="evenodd" d="M214.541 231.447C220.386 228.072 225.167 219.822 225.167 213.092L173.205 183.092C173.205 189.822 168.425 198.072 162.579 201.447L214.541 231.447Z" fill="#8BC5E4"/>
<path fill-rule="evenodd" clip-rule="evenodd" d="M225.167 37.5322C225.167 34.3018 224.065 31.993 222.273 30.8386L170.312 0.838623C172.104 1.99303 173.205 4.30183 173.205 7.53223L225.167 37.5322Z" fill="#8BC5E4"/>
<path fill-rule="evenodd" clip-rule="evenodd" d="M222.273 30.8387C220.332 29.5881 217.58 29.6923 214.541 31.4473L162.579 1.44731C165.619 -0.307685 168.37 -0.411894 170.312 0.83871L222.273 30.8387Z" fill="#8BC5E4"/>
<path d="M136.823 225.027L130.718 241.762C130.042 243.422 129.687 245.087 129.679 246.582C129.679 248.762 130.432 250.417 131.774 251.182C133.108 251.952 134.927 251.772 136.823 250.677C138.729 249.577 140.547 247.667 141.89 245.342C143.232 243.027 143.985 240.502 143.985 238.322C143.977 236.767 143.596 235.467 142.868 234.577L136.823 225.027ZM111.475 239.662L105.361 256.402C104.685 258.062 104.33 259.727 104.321 261.222C104.321 263.402 105.075 265.057 106.417 265.822C107.76 266.597 109.578 266.407 111.483 265.307C113.38 264.212 115.199 262.292 116.532 259.982C117.875 257.667 118.628 255.142 118.628 252.962C118.62 251.407 118.238 250.107 117.511 249.217L111.475 239.662ZM162.181 210.387L156.066 227.127C155.391 228.787 155.036 230.452 155.036 231.942C155.036 234.122 155.789 235.777 157.132 236.542C158.465 237.312 160.284 237.132 162.181 236.037C164.077 234.942 165.896 233.022 167.238 230.707C168.581 228.392 169.334 225.867 169.334 223.687C169.334 222.127 168.944 220.832 168.225 219.937L162.181 210.387ZM124.153 207.932L118.039 224.672C117.364 226.332 117.009 228.007 117 229.502C117 234.032 120.204 235.862 124.153 233.582C126.05 232.487 127.869 230.577 129.211 228.262C130.553 225.947 131.307 223.422 131.307 221.242C131.307 219.682 130.917 218.377 130.19 217.487L124.153 207.932ZM98.7962 222.572L92.6821 239.312C92.0066 240.972 91.6515 242.647 91.6428 244.142C91.6428 246.322 92.4049 247.972 93.7386 248.742C95.081 249.507 96.9083 249.312 98.8049 248.217C102.745 245.942 105.95 240.412 105.95 235.882C105.95 234.322 105.56 233.017 104.832 232.127L98.7962 222.572ZM149.502 193.297L143.388 210.037C142.712 211.697 142.357 213.372 142.357 214.862C142.357 219.392 145.562 221.222 149.502 218.947C153.451 216.667 156.655 211.137 156.655 206.607C156.655 205.047 156.266 203.752 155.547 202.847L149.502 193.297ZM174.859 178.657L168.736 195.402C168.07 197.057 167.715 198.732 167.715 200.222C167.715 202.402 168.468 204.047 169.81 204.812C171.153 205.587 172.963 205.402 174.859 204.307C178.808 202.027 182.004 196.502 182.004 191.972C182.013 190.407 181.623 189.112 180.904 188.207L174.859 178.657ZM147.12 98.3423C144.851 99.7023 142.548 101.302 140.27 103.147C129.774 112.357 123.019 122.837 121.33 134.772C113.787 134.537 106.383 139.892 101.819 146.477C96.2501 154.872 94.5527 162.292 95.3061 167.867C81.926 175.442 72.7548 190.967 72.7548 206.657C72.7548 216.817 77.9423 230.482 94.6826 220.817L178.038 172.662C193.228 163.892 199.913 153.242 200.71 141.392C201.931 130.827 197.48 122.867 188.023 126.117C187.997 122.182 187.209 120.907 185.191 119.082C183.086 117.747 180.54 118.357 177.864 120.052C179.042 110.772 179.276 100.657 171.863 95.2473C166.355 91.3473 156.967 92.4973 147.12 98.3423ZM139.742 130.292L159.704 123.917V142.297C159.704 155.157 151.676 173.812 140.305 184.957L139.733 185.517L139.17 185.612C129.54 187.282 119.763 181.877 119.763 165.357V148.537V146.977L139.742 130.292ZM139.742 134.302L135.853 137.547L135.879 139.732L129.324 145.207L129.358 142.977L123.166 148.142V163.392C123.166 177.802 131.48 182.462 139.725 181.312C149.182 171.672 156.3 154.972 156.3 144.262V129.012L150.117 130.992L150.152 133.182L143.596 135.277L143.613 133.067L139.742 134.302ZM139.664 142.047L150.022 139.507L131.419 172.187C129.185 169.567 127.644 165.297 127.644 158.697L127.514 152.552L139.664 142.047ZM151.953 141.032L151.944 144.667C151.944 155.537 146.107 168.497 139.794 175.762C137.594 175.842 135.273 175.332 133.255 173.877L151.953 141.032ZM62.5877 124.687L214.54 36.9573C217.814 35.0673 220.369 36.5323 220.369 40.3023V215.862C220.369 219.632 217.814 224.047 214.54 225.937L62.5877 313.667C59.3141 315.557 56.7593 314.092 56.7593 310.322V134.762C56.7593 130.992 59.3141 126.577 62.5877 124.687ZM62.5877 119.177C56.742 122.552 51.9615 130.802 51.9615 137.532V313.092C51.9615 319.822 56.742 322.552 62.5877 319.177L214.54 231.447C220.386 228.072 225.167 219.822 225.167 213.092V37.5323C225.167 30.8023 220.386 28.0723 214.54 31.4473L62.5877 119.177Z" fill="#8BC5E4"/>
<path fill-rule="evenodd" clip-rule="evenodd" d="M62.5877 124.687L214.54 36.9573C217.814 35.0673 220.369 36.5323 220.369 40.3023V215.862C220.369 219.632 217.814 224.047 214.54 225.937L62.5877 313.667C59.3141 315.557 56.7593 314.092 56.7593 310.322V134.762C56.7593 130.992 59.3141 126.577 62.5877 124.687ZM130.718 241.762L136.823 225.027L142.868 234.577C143.596 235.467 143.977 236.767 143.985 238.322C143.985 240.502 143.232 243.027 141.89 245.342C140.547 247.667 138.729 249.577 136.823 250.677C134.927 251.772 133.108 251.952 131.774 251.182C130.432 250.417 129.679 248.762 129.679 246.582C129.687 245.087 130.042 243.422 130.718 241.762ZM105.361 256.402L111.475 239.662L117.511 249.217C118.238 250.107 118.62 251.407 118.628 252.962C118.628 255.142 117.875 257.667 116.532 259.982C115.199 262.292 113.38 264.212 111.483 265.307C109.578 266.407 107.76 266.597 106.417 265.822C105.075 265.057 104.321 263.402 104.321 261.222C104.33 259.727 104.685 258.062 105.361 256.402ZM156.066 227.127L162.181 210.387L168.225 219.937C168.944 220.832 169.334 222.127 169.334 223.687C169.334 225.867 168.581 228.392 167.238 230.707C165.896 233.022 164.077 234.942 162.181 236.037C160.284 237.132 158.465 237.312 157.132 236.542C155.789 235.777 155.036 234.122 155.036 231.942C155.036 230.452 155.391 228.787 156.066 227.127ZM118.039 224.672L124.153 207.932L130.19 217.487C130.917 218.377 131.307 219.682 131.307 221.242C131.307 223.422 130.553 225.947 129.211 228.262C127.869 230.577 126.05 232.487 124.153 233.582C120.204 235.862 117 234.032 117 229.502C117.009 228.007 117.364 226.332 118.039 224.672ZM92.6821 239.312L98.7962 222.572L104.832 232.127C105.56 233.017 105.95 234.322 105.95 235.882C105.95 240.412 102.745 245.942 98.8049 248.217C96.9083 249.312 95.081 249.507 93.7386 248.742C92.4049 247.972 91.6428 246.322 91.6428 244.142C91.6515 242.647 92.0066 240.972 92.6821 239.312ZM143.388 210.037L149.502 193.297L155.547 202.847C156.266 203.752 156.655 205.047 156.655 206.607C156.655 211.137 153.451 216.667 149.502 218.947C145.562 221.222 142.357 219.392 142.357 214.862C142.357 213.372 142.712 211.697 143.388 210.037ZM168.736 195.402L174.859 178.657L180.904 188.207C181.623 189.112 182.013 190.407 182.004 191.972C182.004 196.502 178.808 202.027 174.859 204.307C172.963 205.402 171.153 205.587 169.81 204.812C168.468 204.047 167.715 202.402 167.715 200.222C167.715 198.732 168.07 197.057 168.736 195.402ZM140.27 103.147C142.548 101.302 144.851 99.7023 147.12 98.3423C156.967 92.4973 166.355 91.3473 171.863 95.2473C179.276 100.657 179.042 110.772 177.864 120.052C180.54 118.357 183.086 117.747 185.191 119.082C187.209 120.907 187.997 122.182 188.023 126.117C197.48 122.867 201.931 130.827 200.71 141.392C199.913 153.242 193.228 163.892 178.038 172.662L94.6826 220.817C77.9423 230.482 72.7548 216.817 72.7548 206.657C72.7548 190.967 81.926 175.442 95.3061 167.867C94.5527 162.292 96.2501 154.872 101.819 146.477C106.383 139.892 113.787 134.537 121.33 134.772C123.019 122.837 129.774 112.357 140.27 103.147Z" fill="white"/>
<path fill-rule="evenodd" clip-rule="evenodd" d="M139.742 130.292L159.704 123.917V142.297C159.704 155.157 151.676 173.812 140.305 184.957L139.733 185.517L139.17 185.612C129.54 187.282 119.763 181.877 119.763 165.357V148.537V146.977L139.742 130.292ZM135.853 137.547L139.742 134.302L143.613 133.067L143.596 135.277L150.152 133.182L150.117 130.992L156.3 129.012V144.262C156.3 154.972 149.182 171.672 139.725 181.312C131.48 182.462 123.166 177.802 123.166 163.392V148.142L129.358 142.977L129.324 145.207L135.879 139.732L135.853 137.547Z" fill="white"/>
<path d="M151.953 141.032L151.944 144.667C151.944 155.537 146.107 168.497 139.794 175.762C137.594 175.842 135.273 175.332 133.255 173.877L151.953 141.032Z" fill="white"/>
<path d="M139.664 142.047L150.022 139.507L131.419 172.187C129.185 169.567 127.644 165.297 127.644 158.697L127.514 152.552L139.664 142.047Z" fill="white"/>
</svg>
