<svg width="226" height="321" viewBox="0 0 226 321" fill="none" xmlns="http://www.w3.org/2000/svg">
<path fill-rule="evenodd" clip-rule="evenodd" d="M84.8618 223.017L78.7563 232.702L130.718 202.702L136.823 193.017L84.8618 223.017Z" fill="#8BC5E4"/>
<path fill-rule="evenodd" clip-rule="evenodd" d="M90.9067 239.547L84.8618 223.017L136.823 193.017L142.868 209.547L90.9067 239.547Z" fill="#8BC5E4"/>
<path fill-rule="evenodd" clip-rule="evenodd" d="M84.8618 223.017L136.823 193.017L84.8618 223.017Z" fill="#8BC5E4"/>
<path fill-rule="evenodd" clip-rule="evenodd" d="M59.5133 208.382L53.3992 218.062L105.361 188.062L111.475 178.382L59.5133 208.382Z" fill="#8BC5E4"/>
<path fill-rule="evenodd" clip-rule="evenodd" d="M65.5495 224.907L59.5133 208.382L111.475 178.382L117.511 194.907L65.5495 224.907Z" fill="#8BC5E4"/>
<path fill-rule="evenodd" clip-rule="evenodd" d="M59.5133 208.382L111.475 178.382L59.5133 208.382Z" fill="#8BC5E4"/>
<path fill-rule="evenodd" clip-rule="evenodd" d="M110.219 237.657L104.105 247.337L156.066 217.337L162.181 207.657L110.219 237.657Z" fill="#8BC5E4"/>
<path fill-rule="evenodd" clip-rule="evenodd" d="M116.264 254.187L110.219 237.657L162.181 207.657L168.225 224.187L116.264 254.187Z" fill="#8BC5E4"/>
<path fill-rule="evenodd" clip-rule="evenodd" d="M110.219 237.657L162.181 207.657L110.219 237.657Z" fill="#8BC5E4"/>
<path fill-rule="evenodd" clip-rule="evenodd" d="M72.1919 191.292L66.0778 200.972L118.039 170.972L124.153 161.292L72.1919 191.292Z" fill="#8BC5E4"/>
<path fill-rule="evenodd" clip-rule="evenodd" d="M78.2281 207.817L72.1919 191.292L124.153 161.292L130.19 177.817L78.2281 207.817Z" fill="#8BC5E4"/>
<path fill-rule="evenodd" clip-rule="evenodd" d="M72.1919 191.292L124.153 161.292L72.1919 191.292Z" fill="#8BC5E4"/>
<path fill-rule="evenodd" clip-rule="evenodd" d="M46.8346 176.652L40.7205 186.332L92.682 156.332L98.7961 146.652L46.8346 176.652Z" fill="#8BC5E4"/>
<path fill-rule="evenodd" clip-rule="evenodd" d="M52.8709 193.177L46.8347 176.652L98.7962 146.652L104.832 163.177L52.8709 193.177Z" fill="#8BC5E4"/>
<path fill-rule="evenodd" clip-rule="evenodd" d="M46.8347 176.652L98.7962 146.652L46.8347 176.652Z" fill="#8BC5E4"/>
<path fill-rule="evenodd" clip-rule="evenodd" d="M97.5404 205.927L91.4263 215.607L143.388 185.607L149.502 175.927L97.5404 205.927Z" fill="#8BC5E4"/>
<path fill-rule="evenodd" clip-rule="evenodd" d="M103.585 222.457L97.5404 205.927L149.502 175.927L155.547 192.457L103.585 222.457Z" fill="#8BC5E4"/>
<path fill-rule="evenodd" clip-rule="evenodd" d="M97.5404 205.927L149.502 175.927L97.5404 205.927Z" fill="#8BC5E4"/>
<path fill-rule="evenodd" clip-rule="evenodd" d="M122.898 220.567L116.775 230.242L168.736 200.242L174.859 190.567L122.898 220.567Z" fill="#8BC5E4"/>
<path fill-rule="evenodd" clip-rule="evenodd" d="M128.943 237.097L122.898 220.567L174.859 190.567L180.904 207.097L128.943 237.097Z" fill="#8BC5E4"/>
<path fill-rule="evenodd" clip-rule="evenodd" d="M122.898 220.567L174.859 190.567L122.898 220.567Z" fill="#8BC5E4"/>
<path fill-rule="evenodd" clip-rule="evenodd" d="M42.7211 170.147L126.076 218.242L178.038 188.242L94.6826 140.147L42.7211 170.147Z" fill="#8BC5E4"/>
<path fill-rule="evenodd" clip-rule="evenodd" d="M95.1588 108.222L147.12 78.2222L95.1588 108.222Z" fill="#8BC5E4"/>
<path fill-rule="evenodd" clip-rule="evenodd" d="M87.7803 131.652L107.742 148.327L159.704 118.327L139.742 101.652L87.7803 131.652Z" fill="#8BC5E4"/>
<path fill-rule="evenodd" clip-rule="evenodd" d="M107.742 148.327V166.707L159.704 136.707V118.327L107.742 148.327Z" fill="#8BC5E4"/>
<path fill-rule="evenodd" clip-rule="evenodd" d="M88.3433 186.967L87.7717 186.867L139.733 156.867L140.305 156.967L88.3433 186.967Z" fill="#8BC5E4"/>
<path fill-rule="evenodd" clip-rule="evenodd" d="M87.7717 186.867L87.2087 186.312L139.17 156.312L139.733 156.867L87.7717 186.867Z" fill="#8BC5E4"/>
<path fill-rule="evenodd" clip-rule="evenodd" d="M67.8011 143.647V126.827L119.763 96.8271V113.647L67.8011 143.647Z" fill="#8BC5E4"/>
<path fill-rule="evenodd" clip-rule="evenodd" d="M67.8011 126.827V125.267L119.763 95.2673V96.8273L67.8011 126.827Z" fill="#8BC5E4"/>
<path fill-rule="evenodd" clip-rule="evenodd" d="M67.8011 125.267L87.7804 131.652L139.742 101.652L119.763 95.2673L67.8011 125.267Z" fill="#8BC5E4"/>
<path fill-rule="evenodd" clip-rule="evenodd" d="M87.7803 131.652L139.742 101.652L87.7803 131.652Z" fill="#8BC5E4"/>
<path fill-rule="evenodd" clip-rule="evenodd" d="M87.7803 135.662L83.8918 134.417L135.853 104.417L139.742 105.662L87.7803 135.662Z" fill="#8BC5E4"/>
<path fill-rule="evenodd" clip-rule="evenodd" d="M83.8918 134.417L83.9178 136.632L135.879 106.632L135.853 104.417L83.8918 134.417Z" fill="#8BC5E4"/>
<path fill-rule="evenodd" clip-rule="evenodd" d="M83.9179 136.632L77.3621 134.537L129.324 104.537L135.879 106.632L83.9179 136.632Z" fill="#8BC5E4"/>
<path fill-rule="evenodd" clip-rule="evenodd" d="M77.3621 134.537L77.3967 132.347L129.358 102.347L129.324 104.537L77.3621 134.537Z" fill="#8BC5E4"/>
<path fill-rule="evenodd" clip-rule="evenodd" d="M77.3967 132.347L71.2046 130.362L123.166 100.362L129.358 102.347L77.3967 132.347Z" fill="#8BC5E4"/>
<path fill-rule="evenodd" clip-rule="evenodd" d="M71.2046 130.362V145.612L123.166 115.612V100.362L71.2046 130.362Z" fill="#8BC5E4"/>
<path fill-rule="evenodd" clip-rule="evenodd" d="M104.339 164.742V149.492L156.3 119.492V134.742L104.339 164.742Z" fill="#8BC5E4"/>
<path fill-rule="evenodd" clip-rule="evenodd" d="M104.339 149.492L98.1553 144.332L150.117 114.332L156.3 119.492L104.339 149.492Z" fill="#8BC5E4"/>
<path fill-rule="evenodd" clip-rule="evenodd" d="M98.1553 144.332L98.1899 146.562L150.151 116.562L150.117 114.332L98.1553 144.332Z" fill="#8BC5E4"/>
<path fill-rule="evenodd" clip-rule="evenodd" d="M98.19 146.562L91.6342 141.087L143.596 111.087L150.151 116.562L98.19 146.562Z" fill="#8BC5E4"/>
<path fill-rule="evenodd" clip-rule="evenodd" d="M91.6342 141.087L91.6515 138.897L143.613 108.897L143.596 111.087L91.6342 141.087Z" fill="#8BC5E4"/>
<path fill-rule="evenodd" clip-rule="evenodd" d="M91.6514 138.897L87.7803 135.662L139.742 105.662L143.613 108.897L91.6514 138.897Z" fill="#8BC5E4"/>
<path fill-rule="evenodd" clip-rule="evenodd" d="M87.7803 135.662L139.742 105.662L87.7803 135.662Z" fill="#8BC5E4"/>
<path fill-rule="evenodd" clip-rule="evenodd" d="M87.7024 143.317L98.0601 152.737L150.022 122.737L139.664 113.317L87.7024 143.317Z" fill="#8BC5E4"/>
<path fill-rule="evenodd" clip-rule="evenodd" d="M98.0601 152.737L79.4579 163.937L131.419 133.937L150.022 122.737L98.0601 152.737Z" fill="#8BC5E4"/>
<path fill-rule="evenodd" clip-rule="evenodd" d="M75.6819 146.087L75.552 139.792L127.514 109.792L127.643 116.087L75.6819 146.087Z" fill="#8BC5E4"/>
<path fill-rule="evenodd" clip-rule="evenodd" d="M75.552 139.792L87.7023 143.317L139.664 113.317L127.514 109.792L75.552 139.792Z" fill="#8BC5E4"/>
<path fill-rule="evenodd" clip-rule="evenodd" d="M87.7024 143.317L139.664 113.317L87.7024 143.317Z" fill="#8BC5E4"/>
<path fill-rule="evenodd" clip-rule="evenodd" d="M99.9913 156.492L99.9827 160.117L151.944 130.117L151.953 126.492L99.9913 156.492Z" fill="#8BC5E4"/>
<path fill-rule="evenodd" clip-rule="evenodd" d="M81.2938 167.747L99.9913 156.492L151.953 126.492L133.255 137.747L81.2938 167.747Z" fill="#8BC5E4"/>
<path fill-rule="evenodd" clip-rule="evenodd" d="M99.9913 156.492L151.953 126.492L99.9913 156.492Z" fill="#8BC5E4"/>
<path fill-rule="evenodd" clip-rule="evenodd" d="M10.6261 36.9573L162.579 124.687L214.54 94.6873L62.5876 6.95728L10.6261 36.9573Z" fill="#8BC5E4"/>
<path fill-rule="evenodd" clip-rule="evenodd" d="M168.407 134.762V310.322L220.369 280.322V104.762L168.407 134.762Z" fill="#8BC5E4"/>
<path fill-rule="evenodd" clip-rule="evenodd" d="M162.579 313.667L10.6261 225.937L62.5876 195.937L214.54 283.667L162.579 313.667Z" fill="#8BC5E4"/>
<path fill-rule="evenodd" clip-rule="evenodd" d="M4.79773 215.862V40.3022L56.7593 10.3022V185.862L4.79773 215.862Z" fill="#8BC5E4"/>
<path fill-rule="evenodd" clip-rule="evenodd" d="M10.6261 36.9573L62.5876 6.95728L10.6261 36.9573Z" fill="#8BC5E4"/>
<path fill-rule="evenodd" clip-rule="evenodd" d="M0 37.5322V213.092L51.9615 183.092V7.53223L0 37.5322Z" fill="#8BC5E4"/>
<path fill-rule="evenodd" clip-rule="evenodd" d="M10.6261 231.447L162.579 319.177L214.54 289.177L62.5876 201.447L10.6261 231.447Z" fill="#8BC5E4"/>
<path fill-rule="evenodd" clip-rule="evenodd" d="M173.205 313.092V137.532L225.167 107.532V283.092L173.205 313.092Z" fill="#8BC5E4"/>
<path fill-rule="evenodd" clip-rule="evenodd" d="M162.579 119.177L10.6261 31.4473L62.5876 1.44727L214.54 89.1773L162.579 119.177Z" fill="#8BC5E4"/>
<path fill-rule="evenodd" clip-rule="evenodd" d="M10.6261 31.4473L62.5876 1.44727L10.6261 31.4473Z" fill="#8BC5E4"/>
<path fill-rule="evenodd" clip-rule="evenodd" d="M78.7564 232.702C78.0809 233.582 77.7258 234.837 77.7172 236.322L129.679 206.322C129.687 204.837 130.042 203.582 130.718 202.702L78.7564 232.702Z" fill="#8BC5E4"/>
<path fill-rule="evenodd" clip-rule="evenodd" d="M77.7172 236.322C77.7172 238.502 78.4706 241.027 79.8129 243.342L131.774 213.342C130.432 211.027 129.679 208.502 129.679 206.322L77.7172 236.322Z" fill="#8BC5E4"/>
<path fill-rule="evenodd" clip-rule="evenodd" d="M79.8129 243.342C81.1465 245.652 82.9652 247.572 84.8618 248.667L136.823 218.667C134.927 217.572 133.108 215.652 131.774 213.342L79.8129 243.342Z" fill="#8BC5E4"/>
<path fill-rule="evenodd" clip-rule="evenodd" d="M84.8618 248.667C86.7671 249.767 88.5857 249.957 89.9281 249.182L141.89 219.182C140.547 219.957 138.729 219.767 136.823 218.667L84.8618 248.667Z" fill="#8BC5E4"/>
<path fill-rule="evenodd" clip-rule="evenodd" d="M89.9281 249.182C91.2704 248.417 92.0239 246.762 92.0239 244.582L143.985 214.582C143.985 216.762 143.232 218.417 141.89 219.182L89.9281 249.182Z" fill="#8BC5E4"/>
<path fill-rule="evenodd" clip-rule="evenodd" d="M92.0239 244.582C92.0153 243.017 91.6342 241.277 90.9067 239.547L142.868 209.547C143.596 211.277 143.977 213.017 143.985 214.582L92.0239 244.582Z" fill="#8BC5E4"/>
<path fill-rule="evenodd" clip-rule="evenodd" d="M53.3991 218.062C52.7236 218.942 52.3685 220.197 52.3599 221.682L104.321 191.682C104.33 190.197 104.685 188.942 105.361 188.062L53.3991 218.062Z" fill="#8BC5E4"/>
<path fill-rule="evenodd" clip-rule="evenodd" d="M52.3599 221.682C52.3599 223.862 53.1133 226.387 54.4556 228.702L106.417 198.702C105.075 196.387 104.321 193.862 104.321 191.682L52.3599 221.682Z" fill="#8BC5E4"/>
<path fill-rule="evenodd" clip-rule="evenodd" d="M54.4557 228.702C55.798 231.027 57.6167 232.937 59.5219 234.037L111.483 204.037C109.578 202.937 107.76 201.027 106.417 198.702L54.4557 228.702Z" fill="#8BC5E4"/>
<path fill-rule="evenodd" clip-rule="evenodd" d="M59.522 234.037C61.4186 235.132 63.2372 235.312 64.5709 234.542L116.532 204.542C115.199 205.312 113.38 205.132 111.483 204.037L59.522 234.037Z" fill="#8BC5E4"/>
<path fill-rule="evenodd" clip-rule="evenodd" d="M64.5708 234.542C65.9131 233.777 66.6666 232.122 66.6666 229.942L118.628 199.942C118.628 202.122 117.875 203.777 116.532 204.542L64.5708 234.542Z" fill="#8BC5E4"/>
<path fill-rule="evenodd" clip-rule="evenodd" d="M66.6666 229.942C66.658 228.377 66.2769 226.637 65.5494 224.907L117.511 194.907C118.238 196.637 118.619 198.377 118.628 199.942L66.6666 229.942Z" fill="#8BC5E4"/>
<path fill-rule="evenodd" clip-rule="evenodd" d="M104.105 247.337C103.429 248.217 103.074 249.472 103.074 250.962L155.036 220.962C155.036 219.472 155.391 218.217 156.066 217.337L104.105 247.337Z" fill="#8BC5E4"/>
<path fill-rule="evenodd" clip-rule="evenodd" d="M103.074 250.962C103.074 253.142 103.828 255.667 105.17 257.982L157.132 227.982C155.789 225.667 155.036 223.142 155.036 220.962L103.074 250.962Z" fill="#8BC5E4"/>
<path fill-rule="evenodd" clip-rule="evenodd" d="M105.17 257.982C106.504 260.292 108.322 262.212 110.219 263.307L162.181 233.307C160.284 232.212 158.465 230.292 157.132 227.982L105.17 257.982Z" fill="#8BC5E4"/>
<path fill-rule="evenodd" clip-rule="evenodd" d="M110.219 263.307C112.116 264.402 113.934 264.582 115.277 263.817L167.238 233.817C165.896 234.582 164.077 234.402 162.181 233.307L110.219 263.307Z" fill="#8BC5E4"/>
<path fill-rule="evenodd" clip-rule="evenodd" d="M115.277 263.817C116.619 263.052 117.372 261.397 117.372 259.217L169.334 229.217C169.334 231.397 168.58 233.052 167.238 233.817L115.277 263.817Z" fill="#8BC5E4"/>
<path fill-rule="evenodd" clip-rule="evenodd" d="M117.372 259.217C117.372 257.657 116.983 255.912 116.264 254.187L168.225 224.187C168.944 225.912 169.334 227.657 169.334 229.217L117.372 259.217Z" fill="#8BC5E4"/>
<path fill-rule="evenodd" clip-rule="evenodd" d="M66.0777 200.972C65.4022 201.852 65.0471 203.117 65.0385 204.602L117 174.602C117.009 173.117 117.364 171.852 118.039 170.972L66.0777 200.972Z" fill="#8BC5E4"/>
<path fill-rule="evenodd" clip-rule="evenodd" d="M65.0385 204.602C65.0385 209.132 68.2427 214.662 72.1918 216.942L124.153 186.942C120.204 184.662 117 179.132 117 174.602L65.0385 204.602Z" fill="#8BC5E4"/>
<path fill-rule="evenodd" clip-rule="evenodd" d="M72.1919 216.942C74.0885 218.037 75.9071 218.227 77.2495 217.462L129.211 187.462C127.869 188.227 126.05 188.037 124.153 186.942L72.1919 216.942Z" fill="#8BC5E4"/>
<path fill-rule="evenodd" clip-rule="evenodd" d="M77.2495 217.462C78.5919 216.697 79.3453 215.042 79.3453 212.862L131.307 182.862C131.307 185.042 130.553 186.697 129.211 187.462L77.2495 217.462Z" fill="#8BC5E4"/>
<path fill-rule="evenodd" clip-rule="evenodd" d="M79.3452 212.862C79.3452 211.302 78.9555 209.547 78.228 207.817L130.19 177.817C130.917 179.547 131.307 181.302 131.307 182.862L79.3452 212.862Z" fill="#8BC5E4"/>
<path fill-rule="evenodd" clip-rule="evenodd" d="M40.7205 186.332C40.045 187.212 39.6899 188.477 39.6813 189.962L91.6428 159.962C91.6515 158.477 92.0065 157.212 92.682 156.332L40.7205 186.332Z" fill="#8BC5E4"/>
<path fill-rule="evenodd" clip-rule="evenodd" d="M39.6813 189.962C39.6813 192.142 40.4434 194.672 41.7771 196.982L93.7386 166.982C92.4049 164.672 91.6428 162.142 91.6428 159.962L39.6813 189.962Z" fill="#8BC5E4"/>
<path fill-rule="evenodd" clip-rule="evenodd" d="M41.7771 196.982C43.1194 199.297 44.9468 201.212 46.8433 202.307L98.8049 172.307C96.9083 171.212 95.081 169.297 93.7386 166.982L41.7771 196.982Z" fill="#8BC5E4"/>
<path fill-rule="evenodd" clip-rule="evenodd" d="M46.8433 202.307C48.7347 203.399 50.4565 203.546 51.7357 202.901L103.697 172.901C102.418 173.546 100.696 173.399 98.8048 172.307L46.8433 202.307Z" fill="#8BC5E4"/>
<path fill-rule="evenodd" clip-rule="evenodd" d="M51.7357 202.901C53.1216 202.203 53.988 200.578 53.988 198.222L105.95 168.222C105.95 170.578 105.083 172.203 103.697 172.901L51.7357 202.901Z" fill="#8BC5E4"/>
<path fill-rule="evenodd" clip-rule="evenodd" d="M53.988 198.222C53.988 196.662 53.5983 194.907 52.8708 193.177L104.832 163.177C105.56 164.907 105.95 166.662 105.95 168.222L53.988 198.222Z" fill="#8BC5E4"/>
<path fill-rule="evenodd" clip-rule="evenodd" d="M91.4263 215.607C90.7508 216.487 90.3958 217.752 90.3958 219.242L142.357 189.242C142.357 187.752 142.712 186.487 143.388 185.607L91.4263 215.607Z" fill="#8BC5E4"/>
<path fill-rule="evenodd" clip-rule="evenodd" d="M90.3958 219.242C90.3958 223.772 93.6 229.302 97.5405 231.577L149.502 201.577C145.562 199.302 142.357 193.772 142.357 189.242L90.3958 219.242Z" fill="#8BC5E4"/>
<path fill-rule="evenodd" clip-rule="evenodd" d="M97.5404 231.577C99.436 232.672 101.16 232.819 102.44 232.175L154.402 202.175C153.121 202.819 151.397 202.672 149.502 201.577L97.5404 231.577Z" fill="#8BC5E4"/>
<path fill-rule="evenodd" clip-rule="evenodd" d="M102.44 232.176C103.827 231.478 104.694 229.853 104.694 227.497L156.655 197.497C156.655 199.853 155.789 201.478 154.402 202.176L102.44 232.176Z" fill="#8BC5E4"/>
<path fill-rule="evenodd" clip-rule="evenodd" d="M104.694 227.497C104.694 225.937 104.304 224.192 103.585 222.457L155.547 192.457C156.266 194.192 156.655 195.937 156.655 197.497L104.694 227.497Z" fill="#8BC5E4"/>
<path fill-rule="evenodd" clip-rule="evenodd" d="M116.775 230.242C116.108 231.127 115.753 232.392 115.753 233.882L167.714 203.882C167.714 202.392 168.07 201.127 168.736 200.242L116.775 230.242Z" fill="#8BC5E4"/>
<path fill-rule="evenodd" clip-rule="evenodd" d="M115.753 233.882C115.753 236.062 116.506 238.577 117.849 240.892L169.81 210.892C168.468 208.577 167.714 206.062 167.714 203.882L115.753 233.882Z" fill="#8BC5E4"/>
<path fill-rule="evenodd" clip-rule="evenodd" d="M117.849 240.892C119.191 243.217 121.001 245.122 122.898 246.217L174.859 216.217C172.963 215.122 171.153 213.217 169.81 210.892L117.849 240.892Z" fill="#8BC5E4"/>
<path fill-rule="evenodd" clip-rule="evenodd" d="M122.898 246.217C124.793 247.312 126.515 247.458 127.794 246.813L179.755 216.813C178.477 217.458 176.755 217.312 174.859 216.217L122.898 246.217Z" fill="#8BC5E4"/>
<path fill-rule="evenodd" clip-rule="evenodd" d="M127.793 246.813C129.178 246.115 130.042 244.488 130.042 242.132L182.004 212.132C182.004 214.488 181.14 216.115 179.755 216.813L127.793 246.813Z" fill="#8BC5E4"/>
<path fill-rule="evenodd" clip-rule="evenodd" d="M130.042 242.132C130.051 240.577 129.661 238.832 128.943 237.097L180.904 207.097C181.623 208.832 182.013 210.577 182.004 212.132L130.042 242.132Z" fill="#8BC5E4"/>
<path fill-rule="evenodd" clip-rule="evenodd" d="M95.1589 108.222C92.8899 106.962 90.5862 105.902 88.3086 105.117L140.27 75.1172C142.548 75.9022 144.851 76.9622 147.12 78.2222L95.1589 108.222Z" fill="#8BC5E4"/>
<path fill-rule="evenodd" clip-rule="evenodd" d="M88.3086 105.117C82.8505 103.604 78.4041 103.602 75.1556 105.354L127.117 75.3535C130.366 73.6025 134.812 73.6042 140.27 75.1174L88.3086 105.117Z" fill="#8BC5E4"/>
<path fill-rule="evenodd" clip-rule="evenodd" d="M75.1557 105.354C72.1571 106.97 70.1793 110.08 69.3687 114.872L121.33 84.8724C122.141 80.0796 124.119 76.9698 127.117 75.3535L75.1557 105.354Z" fill="#8BC5E4"/>
<path fill-rule="evenodd" clip-rule="evenodd" d="M69.3686 114.872C61.8255 105.927 54.421 102.732 49.8571 104.047L101.819 74.0473C106.383 72.7323 113.787 75.9273 121.33 84.8723L69.3686 114.872Z" fill="#8BC5E4"/>
<path fill-rule="evenodd" clip-rule="evenodd" d="M49.8571 104.047C49.4116 104.205 48.9909 104.384 48.5942 104.585L100.556 74.5848C100.952 74.3841 101.373 74.2046 101.819 74.0474L49.8571 104.047Z" fill="#8BC5E4"/>
<path fill-rule="evenodd" clip-rule="evenodd" d="M48.5942 104.585C44.0326 106.892 42.6514 111.988 43.3445 117.917L95.3061 87.9173C94.6129 81.9879 95.9941 76.8922 100.556 74.5847L48.5942 104.585Z" fill="#8BC5E4"/>
<path fill-rule="evenodd" clip-rule="evenodd" d="M43.3445 117.917C36.9221 114.137 31.4694 113.309 27.5352 115.204L79.4967 85.2043C83.4309 83.3087 88.8836 84.1373 95.306 87.9173L43.3445 117.917Z" fill="#8BC5E4"/>
<path fill-rule="evenodd" clip-rule="evenodd" d="M27.5352 115.204C23.2731 117.258 20.7932 122.509 20.7932 130.667L72.7547 100.667C72.7547 92.5085 75.2346 87.2579 79.4967 85.2043L27.5352 115.204Z" fill="#8BC5E4"/>
<path fill-rule="evenodd" clip-rule="evenodd" d="M20.7932 130.667C20.7932 140.827 25.9807 160.482 42.721 170.147L94.6825 140.147C77.9422 130.482 72.7547 110.827 72.7547 100.667L20.7932 130.667Z" fill="#8BC5E4"/>
<path fill-rule="evenodd" clip-rule="evenodd" d="M126.076 218.242C134.582 223.153 140.422 224.395 144.054 222.618L196.015 192.618C192.383 194.395 186.544 193.153 178.037 188.242L126.076 218.242Z" fill="#8BC5E4"/>
<path fill-rule="evenodd" clip-rule="evenodd" d="M144.054 222.618C146.907 221.222 148.398 217.962 148.749 213.152L200.71 183.152C200.359 187.962 198.869 191.222 196.015 192.618L144.054 222.618Z" fill="#8BC5E4"/>
<path fill-rule="evenodd" clip-rule="evenodd" d="M148.749 213.152C149.97 203.997 145.518 190.897 136.061 183.227L188.023 153.227C197.48 160.897 201.931 173.997 200.71 183.152L148.749 213.152Z" fill="#8BC5E4"/>
<path fill-rule="evenodd" clip-rule="evenodd" d="M136.061 183.227C136.035 179.262 135.247 177.077 133.229 172.922L185.191 142.922C187.209 147.077 187.997 149.262 188.023 153.227L136.061 183.227Z" fill="#8BC5E4"/>
<path fill-rule="evenodd" clip-rule="evenodd" d="M133.229 172.922C131.125 169.157 128.579 166.827 125.903 165.432L177.864 135.432C180.54 136.827 183.086 139.157 185.191 142.922L133.229 172.922Z" fill="#8BC5E4"/>
<path fill-rule="evenodd" clip-rule="evenodd" d="M125.903 165.432C127.081 157.512 127.314 147.667 119.901 133.697L171.863 103.697C179.276 117.667 179.042 127.512 177.864 135.432L125.903 165.432Z" fill="#8BC5E4"/>
<path fill-rule="evenodd" clip-rule="evenodd" d="M119.901 133.697C114.393 123.437 105.006 113.747 95.1588 108.222L147.12 78.2222C156.967 83.7472 166.355 93.4372 171.863 103.697L119.901 133.697Z" fill="#8BC5E4"/>
<path fill-rule="evenodd" clip-rule="evenodd" d="M107.742 166.707C107.742 174.938 104.454 181.745 99.1056 185.059L151.067 155.059C156.416 151.745 159.704 144.938 159.704 136.707L107.742 166.707Z" fill="#8BC5E4"/>
<path fill-rule="evenodd" clip-rule="evenodd" d="M99.1056 185.059C96.0971 186.923 92.4368 187.682 88.3433 186.967L140.305 156.967C144.398 157.682 148.059 156.923 151.067 155.059L99.1056 185.059Z" fill="#8BC5E4"/>
<path fill-rule="evenodd" clip-rule="evenodd" d="M87.2088 186.312C77.5786 176.862 67.8011 160.167 67.8011 143.647L119.763 113.647C119.763 130.167 129.54 146.862 139.17 156.312L87.2088 186.312Z" fill="#8BC5E4"/>
<path fill-rule="evenodd" clip-rule="evenodd" d="M71.2046 145.612C71.2046 160.022 79.5184 174.282 87.763 182.652L139.725 152.652C131.48 144.282 123.166 130.022 123.166 115.612L71.2046 145.612Z" fill="#8BC5E4"/>
<path fill-rule="evenodd" clip-rule="evenodd" d="M87.7631 182.652C90.7893 183.062 93.5761 182.472 95.9668 181.13L147.928 151.13C145.538 152.472 142.751 153.062 139.725 152.652L87.7631 182.652Z" fill="#8BC5E4"/>
<path fill-rule="evenodd" clip-rule="evenodd" d="M95.9668 181.129C101.047 178.277 104.339 172.025 104.339 164.742L156.3 134.742C156.3 142.025 153.009 148.277 147.928 151.129L95.9668 181.129Z" fill="#8BC5E4"/>
<path fill-rule="evenodd" clip-rule="evenodd" d="M79.4579 163.937C77.2235 158.737 75.682 152.687 75.682 146.087L127.644 116.087C127.644 122.687 129.185 128.737 131.419 133.937L79.4579 163.937Z" fill="#8BC5E4"/>
<path fill-rule="evenodd" clip-rule="evenodd" d="M99.9826 160.117C99.9826 167.944 96.9567 173.359 92.9058 175.769L144.867 145.769C148.918 143.359 151.944 137.944 151.944 130.117L99.9826 160.117Z" fill="#8BC5E4"/>
<path fill-rule="evenodd" clip-rule="evenodd" d="M92.9058 175.77C91.3304 176.707 89.6 177.189 87.8323 177.182L139.794 147.182C141.562 147.189 143.292 146.707 144.867 145.77L92.9058 175.77Z" fill="#8BC5E4"/>
<path fill-rule="evenodd" clip-rule="evenodd" d="M87.8323 177.182C85.6326 174.722 83.3117 171.532 81.2938 167.747L133.255 137.747C135.273 141.532 137.594 144.722 139.794 147.182L87.8323 177.182Z" fill="#8BC5E4"/>
<path fill-rule="evenodd" clip-rule="evenodd" d="M162.579 124.687C165.853 126.577 168.407 130.992 168.407 134.762L220.369 104.762C220.369 100.992 217.814 96.5773 214.541 94.6873L162.579 124.687Z" fill="#8BC5E4"/>
<path fill-rule="evenodd" clip-rule="evenodd" d="M168.407 310.322C168.407 312.132 167.819 313.41 166.844 314.042L218.806 284.042C219.78 283.41 220.369 282.132 220.369 280.322L168.407 310.322Z" fill="#8BC5E4"/>
<path fill-rule="evenodd" clip-rule="evenodd" d="M166.845 314.042C165.789 314.726 164.281 314.65 162.579 313.667L214.541 283.667C216.243 284.65 217.751 284.726 218.806 284.042L166.845 314.042Z" fill="#8BC5E4"/>
<path fill-rule="evenodd" clip-rule="evenodd" d="M10.6261 225.937C7.3525 224.047 4.79773 219.632 4.79773 215.862L56.7593 185.862C56.7593 189.632 59.314 194.047 62.5876 195.937L10.6261 225.937Z" fill="#8BC5E4"/>
<path fill-rule="evenodd" clip-rule="evenodd" d="M4.79773 40.3022C4.79773 38.4926 5.38635 37.2141 6.36055 36.5828L58.3221 6.58276C57.3479 7.2141 56.7593 8.49263 56.7593 10.3022L4.79773 40.3022Z" fill="#8BC5E4"/>
<path fill-rule="evenodd" clip-rule="evenodd" d="M6.3606 36.5828C7.41598 35.8988 8.92387 35.9744 10.6261 36.9572L62.5877 6.95725C60.8854 5.97445 59.3775 5.89884 58.3221 6.58278L6.3606 36.5828Z" fill="#8BC5E4"/>
<path fill-rule="evenodd" clip-rule="evenodd" d="M10.6261 31.4473C7.82016 29.8273 5.25967 29.6139 3.35547 30.5743L55.317 0.574294C57.2212 -0.386094 59.7817 -0.172686 62.5876 1.44731L10.6261 31.4473Z" fill="#8BC5E4"/>
<path fill-rule="evenodd" clip-rule="evenodd" d="M3.35552 30.5742C1.29264 31.6146 0 34.0326 0 37.5322L51.9615 7.53224C51.9615 4.03264 53.2542 1.61464 55.317 0.574219L3.35552 30.5742Z" fill="#8BC5E4"/>
<path fill-rule="evenodd" clip-rule="evenodd" d="M0 213.092C0 219.822 4.78046 228.072 10.6261 231.447L62.5877 201.447C56.742 198.072 51.9615 189.822 51.9615 183.092L0 213.092Z" fill="#8BC5E4"/>
<path fill-rule="evenodd" clip-rule="evenodd" d="M162.579 319.177C165.385 320.797 167.945 321.011 169.85 320.05L221.811 290.05C219.907 291.011 217.346 290.797 214.541 289.177L162.579 319.177Z" fill="#8BC5E4"/>
<path fill-rule="evenodd" clip-rule="evenodd" d="M169.85 320.05C171.912 319.01 173.205 316.592 173.205 313.092L225.167 283.092C225.167 286.592 223.874 289.01 221.811 290.05L169.85 320.05Z" fill="#8BC5E4"/>
<path fill-rule="evenodd" clip-rule="evenodd" d="M173.205 137.532C173.205 130.802 168.425 122.552 162.579 119.177L214.541 89.1772C220.386 92.5522 225.167 100.802 225.167 107.532L173.205 137.532Z" fill="#8BC5E4"/>
<path d="M84.8618 223.017L78.7564 232.702C78.0809 233.582 77.7258 234.837 77.7171 236.322C77.7171 238.502 78.4706 241.027 79.8129 243.342C81.1466 245.652 82.9652 247.572 84.8618 248.667C86.7671 249.767 88.5857 249.957 89.9281 249.182C91.2704 248.417 92.0239 246.762 92.0239 244.582C92.0152 243.017 91.6341 241.277 90.9067 239.547L84.8618 223.017ZM59.5133 208.382L53.3991 218.062C52.7236 218.942 52.3686 220.197 52.3599 221.682C52.3599 223.862 53.1133 226.387 54.4557 228.702C55.798 231.027 57.6167 232.937 59.5219 234.037C61.4185 235.132 63.2372 235.312 64.5709 234.542C65.9132 233.777 66.6666 232.122 66.6666 229.942C66.658 228.377 66.2769 226.637 65.5495 224.907L59.5133 208.382ZM110.219 237.657L104.105 247.337C103.429 248.217 103.074 249.472 103.074 250.962C103.074 253.142 103.828 255.667 105.17 257.982C106.504 260.292 108.322 262.212 110.219 263.307C112.116 264.402 113.934 264.582 115.277 263.817C116.619 263.052 117.372 261.397 117.372 259.217C117.372 257.657 116.983 255.912 116.264 254.187L110.219 237.657ZM72.1919 191.292L66.0777 200.972C65.4022 201.852 65.0472 203.117 65.0385 204.602C65.0385 209.132 68.2428 214.662 72.1919 216.942C74.0885 218.037 75.9071 218.227 77.2495 217.462C78.5918 216.697 79.3453 215.042 79.3453 212.862C79.3453 211.302 78.9555 209.547 78.2281 207.817L72.1919 191.292ZM46.8347 176.652L40.7205 186.332C40.045 187.212 39.6899 188.477 39.6813 189.962C39.6813 192.142 40.4434 194.672 41.7771 196.982C43.1194 199.297 44.9467 201.212 46.8433 202.307C50.7837 204.582 53.988 202.752 53.988 198.222C53.988 196.662 53.5983 194.907 52.8708 193.177L46.8347 176.652ZM97.5404 205.927L91.4263 215.607C90.7508 216.487 90.3957 217.752 90.3957 219.242C90.3957 223.772 93.6 229.302 97.5404 231.577C101.49 233.857 104.694 232.027 104.694 227.497C104.694 225.937 104.304 224.192 103.585 222.457L97.5404 205.927ZM122.898 220.567L116.775 230.242C116.108 231.127 115.753 232.392 115.753 233.882C115.753 236.062 116.506 238.577 117.849 240.892C119.191 243.217 121.001 245.122 122.898 246.217C126.847 248.497 130.042 246.662 130.042 242.132C130.051 240.577 129.661 238.832 128.943 237.097L122.898 220.567ZM95.1589 108.222C92.8899 106.962 90.5863 105.902 88.3086 105.117C77.8124 102.207 71.0574 104.887 69.3686 114.872C61.8256 105.927 54.421 102.732 49.8571 104.047C44.2885 106.012 42.5911 111.472 43.3446 117.917C29.9645 110.042 20.7933 114.977 20.7933 130.667C20.7933 140.827 25.9808 160.482 42.721 170.147L126.076 218.242C141.266 227.012 147.952 224.082 148.749 213.152C149.97 203.997 145.518 190.897 136.061 183.227C136.035 179.262 135.247 177.077 133.229 172.922C131.125 169.157 128.579 166.827 125.903 165.432C127.081 157.512 127.314 147.667 119.901 133.697C114.393 123.437 105.006 113.747 95.1589 108.222ZM87.7803 131.652L107.742 148.327V166.707C107.742 179.567 99.7142 188.952 88.3433 186.967L87.7717 186.867L87.2088 186.312C77.5786 176.862 67.8011 160.167 67.8011 143.647V126.827V125.267L87.7803 131.652ZM87.7803 135.662L83.8919 134.417L83.9179 136.632L77.3621 134.537L77.3967 132.347L71.2046 130.362V145.612C71.2046 160.022 79.5184 174.282 87.763 182.652C97.22 183.932 104.339 175.452 104.339 164.742V149.492L98.1553 144.332L98.19 146.562L91.6341 141.087L91.6515 138.897L87.7803 135.662ZM87.7024 143.317L98.0601 152.737L79.4578 163.937C77.2235 158.737 75.682 152.687 75.682 146.087L75.5521 139.792L87.7024 143.317ZM99.9913 156.492L99.9826 160.117C99.9826 170.987 94.1456 177.207 87.8323 177.182C85.6326 174.722 83.3116 171.532 81.2938 167.747L99.9913 156.492ZM10.6261 36.9573L162.579 124.687C165.853 126.577 168.407 130.992 168.407 134.762V310.322C168.407 314.092 165.853 315.557 162.579 313.667L10.6261 225.937C7.35256 224.047 4.79778 219.632 4.79778 215.862V40.3023C4.79778 36.5323 7.35256 35.0673 10.6261 36.9573ZM10.6261 31.4473C4.78046 28.0723 0 30.8023 0 37.5323V213.092C0 219.822 4.78046 228.072 10.6261 231.447L162.579 319.177C168.425 322.552 173.205 319.822 173.205 313.092V137.532C173.205 130.802 168.425 122.552 162.579 119.177L10.6261 31.4473Z" fill="#8BC5E4"/>
<path fill-rule="evenodd" clip-rule="evenodd" d="M10.6261 36.9573L162.579 124.687C165.853 126.577 168.407 130.992 168.407 134.762V310.322C168.407 314.092 165.853 315.557 162.579 313.667L10.6261 225.937C7.35256 224.047 4.79778 219.632 4.79778 215.862V40.3023C4.79778 36.5323 7.35256 35.0673 10.6261 36.9573ZM78.7564 232.702L84.8618 223.017L90.9067 239.547C91.6341 241.277 92.0152 243.017 92.0239 244.582C92.0239 246.762 91.2704 248.417 89.9281 249.182C88.5857 249.957 86.7671 249.767 84.8618 248.667C82.9652 247.572 81.1466 245.652 79.8129 243.342C78.4706 241.027 77.7171 238.502 77.7171 236.322C77.7258 234.837 78.0809 233.582 78.7564 232.702ZM53.3991 218.062L59.5133 208.382L65.5495 224.907C66.2769 226.637 66.658 228.377 66.6666 229.942C66.6666 232.122 65.9132 233.777 64.5709 234.542C63.2372 235.312 61.4185 235.132 59.5219 234.037C57.6167 232.937 55.798 231.027 54.4557 228.702C53.1133 226.387 52.3599 223.862 52.3599 221.682C52.3686 220.197 52.7236 218.942 53.3991 218.062ZM104.105 247.337L110.219 237.657L116.264 254.187C116.983 255.912 117.372 257.657 117.372 259.217C117.372 261.397 116.619 263.052 115.277 263.817C113.934 264.582 112.116 264.402 110.219 263.307C108.322 262.212 106.504 260.292 105.17 257.982C103.828 255.667 103.074 253.142 103.074 250.962C103.074 249.472 103.429 248.217 104.105 247.337ZM66.0777 200.972L72.1919 191.292L78.2281 207.817C78.9555 209.547 79.3453 211.302 79.3453 212.862C79.3453 215.042 78.5918 216.697 77.2495 217.462C75.9071 218.227 74.0885 218.037 72.1919 216.942C68.2428 214.662 65.0385 209.132 65.0385 204.602C65.0472 203.117 65.4022 201.852 66.0777 200.972ZM40.7205 186.332L46.8347 176.652L52.8708 193.177C53.5983 194.907 53.988 196.662 53.988 198.222C53.988 202.752 50.7837 204.582 46.8433 202.307C44.9467 201.212 43.1194 199.297 41.7771 196.982C40.4434 194.672 39.6813 192.142 39.6813 189.962C39.6899 188.477 40.045 187.212 40.7205 186.332ZM91.4263 215.607L97.5404 205.927L103.585 222.457C104.304 224.192 104.694 225.937 104.694 227.497C104.694 232.027 101.49 233.857 97.5404 231.577C93.6 229.302 90.3957 223.772 90.3957 219.242C90.3957 217.752 90.7508 216.487 91.4263 215.607ZM116.775 230.242L122.898 220.567L128.943 237.097C129.661 238.832 130.051 240.577 130.042 242.132C130.042 246.662 126.847 248.497 122.898 246.217C121.001 245.122 119.191 243.217 117.849 240.892C116.506 238.577 115.753 236.062 115.753 233.882C115.753 232.392 116.108 231.127 116.775 230.242ZM88.3086 105.117C90.5863 105.902 92.8899 106.962 95.1589 108.222C105.006 113.747 114.393 123.437 119.901 133.697C127.314 147.667 127.081 157.512 125.903 165.432C128.579 166.827 131.125 169.157 133.229 172.922C135.247 177.077 136.035 179.262 136.061 183.227C145.518 190.897 149.97 203.997 148.749 213.152C147.952 224.082 141.266 227.012 126.076 218.242L42.721 170.147C25.9808 160.482 20.7933 140.827 20.7933 130.667C20.7933 114.977 29.9645 110.042 43.3446 117.917C42.5911 111.472 44.2885 106.012 49.8571 104.047C54.421 102.732 61.8256 105.927 69.3686 114.872C71.0574 104.887 77.8124 102.207 88.3086 105.117Z" fill="white"/>
<path fill-rule="evenodd" clip-rule="evenodd" d="M87.7803 131.652L107.742 148.327V166.707C107.742 179.567 99.7142 188.952 88.3433 186.967L87.7717 186.867L87.2088 186.312C77.5786 176.862 67.8011 160.167 67.8011 143.647V126.827V125.267L87.7803 131.652ZM83.8919 134.417L87.7803 135.662L91.6515 138.897L91.6341 141.087L98.19 146.562L98.1553 144.332L104.339 149.492V164.742C104.339 175.452 97.22 183.932 87.763 182.652C79.5184 174.282 71.2046 160.022 71.2046 145.612V130.362L77.3967 132.347L77.3621 134.537L83.9179 136.632L83.8919 134.417Z" fill="white"/>
<path d="M87.7024 143.317L98.0601 152.737L79.4578 163.937C77.2235 158.737 75.682 152.687 75.682 146.087L75.5521 139.792L87.7024 143.317Z" fill="white"/>
<path d="M99.9913 156.492L99.9826 160.117C99.9826 170.987 94.1456 177.207 87.8323 177.182C85.6326 174.722 83.3116 171.532 81.2938 167.747L99.9913 156.492Z" fill="white"/>
</svg>
