<svg width="226" height="321" viewBox="0 0 226 321" fill="none" xmlns="http://www.w3.org/2000/svg">
<path fill-rule="evenodd" clip-rule="evenodd" d="M86.9231 160.167L70.7544 155.522L122.716 125.522L138.885 130.167L86.9231 160.167Z" fill="#8BC5E4"/>
<path fill-rule="evenodd" clip-rule="evenodd" d="M70.7544 155.522V163.702L122.716 133.702V125.522L70.7544 155.522Z" fill="#8BC5E4"/>
<path fill-rule="evenodd" clip-rule="evenodd" d="M76.3315 186.922L101.516 172.602L153.477 142.602L128.293 156.922L76.3315 186.922Z" fill="#8BC5E4"/>
<path fill-rule="evenodd" clip-rule="evenodd" d="M101.515 172.602L86.9229 160.167L138.884 130.167L153.477 142.602L101.515 172.602Z" fill="#8BC5E4"/>
<path fill-rule="evenodd" clip-rule="evenodd" d="M86.9229 160.167L138.884 130.167L86.9229 160.167Z" fill="#8BC5E4"/>
<path fill-rule="evenodd" clip-rule="evenodd" d="M103.187 177.287L78.5571 191.297L130.519 161.297L155.148 147.287L103.187 177.287Z" fill="#8BC5E4"/>
<path fill-rule="evenodd" clip-rule="evenodd" d="M103.126 181.852L103.187 177.287L155.148 147.287L155.088 151.852L103.126 181.852Z" fill="#8BC5E4"/>
<path fill-rule="evenodd" clip-rule="evenodd" d="M103.187 177.287L155.149 147.287L103.187 177.287Z" fill="#8BC5E4"/>
<path fill-rule="evenodd" clip-rule="evenodd" d="M87.053 149.462L91.9547 153.542L143.916 123.542L139.015 119.462L87.053 149.462Z" fill="#8BC5E4"/>
<path fill-rule="evenodd" clip-rule="evenodd" d="M91.9545 153.542L91.9026 157.252L143.864 127.252L143.916 123.542L91.9545 153.542Z" fill="#8BC5E4"/>
<path fill-rule="evenodd" clip-rule="evenodd" d="M91.9026 157.252L101.394 165.122L153.356 135.122L143.864 127.252L91.9026 157.252Z" fill="#8BC5E4"/>
<path fill-rule="evenodd" clip-rule="evenodd" d="M101.394 165.122L101.446 161.422L153.408 131.422L153.356 135.122L101.394 165.122Z" fill="#8BC5E4"/>
<path fill-rule="evenodd" clip-rule="evenodd" d="M101.446 161.422L109.189 167.862L161.15 137.862L153.408 131.422L101.446 161.422Z" fill="#8BC5E4"/>
<path fill-rule="evenodd" clip-rule="evenodd" d="M109.188 167.862V187.352L161.15 157.352V137.862L109.188 167.862Z" fill="#8BC5E4"/>
<path fill-rule="evenodd" clip-rule="evenodd" d="M64.5276 162.337V142.167L116.489 112.167V132.337L64.5276 162.337Z" fill="#8BC5E4"/>
<path fill-rule="evenodd" clip-rule="evenodd" d="M64.5276 142.167L72.2785 144.672L124.24 114.672L116.489 112.167L64.5276 142.167Z" fill="#8BC5E4"/>
<path fill-rule="evenodd" clip-rule="evenodd" d="M72.2786 144.672L72.3219 148.337L124.283 118.337L124.24 114.672L72.2786 144.672Z" fill="#8BC5E4"/>
<path fill-rule="evenodd" clip-rule="evenodd" d="M72.3218 148.337L81.8221 151.432L133.784 121.432L124.283 118.337L72.3218 148.337Z" fill="#8BC5E4"/>
<path fill-rule="evenodd" clip-rule="evenodd" d="M81.822 151.432L81.7527 147.732L133.714 117.732L133.783 121.432L81.822 151.432Z" fill="#8BC5E4"/>
<path fill-rule="evenodd" clip-rule="evenodd" d="M81.7527 147.732L87.0528 149.462L139.014 119.462L133.714 117.732L81.7527 147.732Z" fill="#8BC5E4"/>
<path fill-rule="evenodd" clip-rule="evenodd" d="M87.053 149.462L139.015 119.462L87.053 149.462Z" fill="#8BC5E4"/>
<path fill-rule="evenodd" clip-rule="evenodd" d="M87.2261 99.1223L139.188 69.1223L87.2261 99.1223Z" fill="#8BC5E4"/>
<path fill-rule="evenodd" clip-rule="evenodd" d="M84.9832 104.617L136.945 74.6172L84.9832 104.617Z" fill="#8BC5E4"/>
<path fill-rule="evenodd" clip-rule="evenodd" d="M97.0034 113.147L148.965 83.1472L97.0034 113.147Z" fill="#8BC5E4"/>
<path fill-rule="evenodd" clip-rule="evenodd" d="M103.429 140.797V140.787L155.391 110.787V110.797L103.429 140.797Z" fill="#8BC5E4"/>
<path fill-rule="evenodd" clip-rule="evenodd" d="M108.894 124.752L160.856 94.7522L108.894 124.752Z" fill="#8BC5E4"/>
<path fill-rule="evenodd" clip-rule="evenodd" d="M121.477 137.877L173.439 107.877L121.477 137.877Z" fill="#8BC5E4"/>
<path fill-rule="evenodd" clip-rule="evenodd" d="M48.4629 98.6323L48.5755 98.9873L100.537 68.9873L100.424 68.6323L48.4629 98.6323Z" fill="#8BC5E4"/>
<path fill-rule="evenodd" clip-rule="evenodd" d="M59.6604 154.967V135.197L111.622 105.197V124.967L59.6604 154.967Z" fill="#8BC5E4"/>
<path fill-rule="evenodd" clip-rule="evenodd" d="M59.6604 135.197L86.6544 144.212L138.616 114.212L111.622 105.197L59.6604 135.197Z" fill="#8BC5E4"/>
<path fill-rule="evenodd" clip-rule="evenodd" d="M86.6545 144.212L103.473 157.532L155.434 127.532L138.616 114.212L86.6545 144.212Z" fill="#8BC5E4"/>
<path fill-rule="evenodd" clip-rule="evenodd" d="M140.062 244.277L138.841 243.752L190.803 213.752L192.024 214.277L140.062 244.277Z" fill="#8BC5E4"/>
<path fill-rule="evenodd" clip-rule="evenodd" d="M48.4629 98.6323L100.424 68.6323L48.4629 98.6323Z" fill="#8BC5E4"/>
<path fill-rule="evenodd" clip-rule="evenodd" d="M127.037 146.717L178.999 116.717L127.037 146.717Z" fill="#8BC5E4"/>
<path fill-rule="evenodd" clip-rule="evenodd" d="M10.6262 36.9573L162.579 124.687L214.541 94.6873L62.5877 6.95728L10.6262 36.9573Z" fill="#8BC5E4"/>
<path fill-rule="evenodd" clip-rule="evenodd" d="M168.407 134.762V310.322L220.369 280.322V104.762L168.407 134.762Z" fill="#8BC5E4"/>
<path fill-rule="evenodd" clip-rule="evenodd" d="M162.579 313.667L10.6262 225.937L62.5877 195.937L214.541 283.667L162.579 313.667Z" fill="#8BC5E4"/>
<path fill-rule="evenodd" clip-rule="evenodd" d="M4.79785 215.862V40.3022L56.7594 10.3022V185.862L4.79785 215.862Z" fill="#8BC5E4"/>
<path fill-rule="evenodd" clip-rule="evenodd" d="M10.6262 36.9573L62.5877 6.95728L10.6262 36.9573Z" fill="#8BC5E4"/>
<path fill-rule="evenodd" clip-rule="evenodd" d="M0 37.5322V213.092L51.9615 183.092V7.53223L0 37.5322Z" fill="#8BC5E4"/>
<path fill-rule="evenodd" clip-rule="evenodd" d="M10.6262 231.447L162.579 319.177L214.541 289.177L62.5877 201.447L10.6262 231.447Z" fill="#8BC5E4"/>
<path fill-rule="evenodd" clip-rule="evenodd" d="M173.205 313.092V137.532L225.167 107.532V283.092L173.205 313.092Z" fill="#8BC5E4"/>
<path fill-rule="evenodd" clip-rule="evenodd" d="M162.579 119.177L10.6262 31.4473L62.5877 1.44727L214.541 89.1773L162.579 119.177Z" fill="#8BC5E4"/>
<path fill-rule="evenodd" clip-rule="evenodd" d="M10.6262 31.4473L62.5877 1.44727L10.6262 31.4473Z" fill="#8BC5E4"/>
<path fill-rule="evenodd" clip-rule="evenodd" d="M70.7544 163.702C70.7544 168.122 71.4472 176.412 76.3316 186.922L128.293 156.922C123.409 146.412 122.716 138.122 122.716 133.702L70.7544 163.702Z" fill="#8BC5E4"/>
<path fill-rule="evenodd" clip-rule="evenodd" d="M78.5571 191.297C80.8001 195.382 83.684 199.737 87.3906 204.297L139.352 174.297C135.646 169.737 132.762 165.382 130.519 161.297L78.5571 191.297Z" fill="#8BC5E4"/>
<path fill-rule="evenodd" clip-rule="evenodd" d="M87.3906 204.297C89.5924 204.072 91.4925 203.514 93.131 202.707L145.092 172.707C143.454 173.514 141.554 174.072 139.352 174.297L87.3906 204.297Z" fill="#8BC5E4"/>
<path fill-rule="evenodd" clip-rule="evenodd" d="M93.1309 202.707C101.733 198.472 103.126 187.396 103.126 181.852L155.088 151.852C155.088 157.396 153.695 168.472 145.092 172.707L93.1309 202.707Z" fill="#8BC5E4"/>
<path fill-rule="evenodd" clip-rule="evenodd" d="M109.189 187.352C109.189 198.104 105.155 205.844 99.0095 209.669L150.971 179.669C157.117 175.844 161.15 168.104 161.15 157.352L109.189 187.352Z" fill="#8BC5E4"/>
<path fill-rule="evenodd" clip-rule="evenodd" d="M99.0094 209.669C95.5524 211.82 91.4269 212.733 86.9749 212.247L138.936 182.247C143.388 182.733 147.514 181.82 150.971 179.669L99.0094 209.669Z" fill="#8BC5E4"/>
<path fill-rule="evenodd" clip-rule="evenodd" d="M86.975 212.247C73.0233 197.752 64.5276 177.747 64.5276 162.337L116.489 132.337C116.489 147.747 124.985 167.752 138.936 182.247L86.975 212.247Z" fill="#8BC5E4"/>
<path fill-rule="evenodd" clip-rule="evenodd" d="M87.2261 99.1223C69.3721 88.8143 53.1304 87.4343 41.0667 93.512L93.0282 63.512C105.092 57.4343 121.334 58.8143 139.188 69.1223L87.2261 99.1223Z" fill="#8BC5E4"/>
<path fill-rule="evenodd" clip-rule="evenodd" d="M41.0667 93.512C27.9977 100.096 19.832 115.433 19.832 137.652L71.7936 107.652C71.7936 85.4327 79.9592 70.0961 93.0282 63.512L41.0667 93.512Z" fill="#8BC5E4"/>
<path fill-rule="evenodd" clip-rule="evenodd" d="M19.832 137.652C19.832 180.392 50.0303 232.537 87.2261 254.012L139.188 224.012C101.992 202.537 71.7936 150.392 71.7936 107.652L19.832 137.652Z" fill="#8BC5E4"/>
<path fill-rule="evenodd" clip-rule="evenodd" d="M87.2261 254.012C105.072 264.315 121.309 265.693 133.371 259.613L185.332 229.613C173.271 235.693 157.033 234.315 139.188 224.012L87.2261 254.012Z" fill="#8BC5E4"/>
<path fill-rule="evenodd" clip-rule="evenodd" d="M133.371 259.613C146.437 253.026 154.603 237.687 154.603 215.462L206.564 185.462C206.564 207.687 198.399 223.026 185.332 229.613L133.371 259.613Z" fill="#8BC5E4"/>
<path fill-rule="evenodd" clip-rule="evenodd" d="M154.603 215.462C154.603 172.732 124.405 120.587 87.2261 99.1223L139.188 69.1223C176.366 90.5873 206.564 142.732 206.564 185.462L154.603 215.462Z" fill="#8BC5E4"/>
<path fill-rule="evenodd" clip-rule="evenodd" d="M84.983 104.617C85.009 105.122 84.9137 105.367 84.8098 105.597L136.771 75.5972C136.875 75.3672 136.971 75.1222 136.945 74.6172L84.983 104.617Z" fill="#8BC5E4"/>
<path fill-rule="evenodd" clip-rule="evenodd" d="M84.8099 105.597C83.6667 104.547 83.0691 103.922 82.3503 103.247L134.312 73.2473C135.031 73.9223 135.628 74.5473 136.771 75.5973L84.8099 105.597Z" fill="#8BC5E4"/>
<path fill-rule="evenodd" clip-rule="evenodd" d="M82.3503 103.247C83.225 103.682 84.1084 104.142 84.9831 104.617L136.945 74.6173C136.07 74.1423 135.187 73.6823 134.312 73.2473L82.3503 103.247Z" fill="#8BC5E4"/>
<path fill-rule="evenodd" clip-rule="evenodd" d="M97.0034 113.147C97.6962 113.547 98.3025 113.967 98.4497 114.112L150.411 84.1122C150.264 83.9672 149.658 83.5472 148.965 83.1472L97.0034 113.147Z" fill="#8BC5E4"/>
<path fill-rule="evenodd" clip-rule="evenodd" d="M98.4497 114.112C98.8394 114.497 100.779 116.017 100.433 116.757L152.394 86.7573C152.741 86.0173 150.801 84.4973 150.411 84.1123L98.4497 114.112Z" fill="#8BC5E4"/>
<path fill-rule="evenodd" clip-rule="evenodd" d="M100.433 116.757C100.419 116.786 100.401 116.81 100.378 116.83L152.339 86.8296C152.362 86.8103 152.381 86.7863 152.394 86.7573L100.433 116.757Z" fill="#8BC5E4"/>
<path fill-rule="evenodd" clip-rule="evenodd" d="M100.378 116.83C99.8249 117.293 96.6284 115.056 95.7305 114.432L147.692 84.4324C148.59 85.0564 151.786 87.2932 152.339 86.8297L100.378 116.83Z" fill="#8BC5E4"/>
<path fill-rule="evenodd" clip-rule="evenodd" d="M95.7303 114.432C94.8037 113.807 94.5266 113.497 94.4573 112.457L146.419 82.4573C146.488 83.4973 146.765 83.8073 147.692 84.4323L95.7303 114.432Z" fill="#8BC5E4"/>
<path fill-rule="evenodd" clip-rule="evenodd" d="M94.4575 112.457C94.4506 112.354 94.4813 112.284 94.5427 112.242L146.504 82.2422C146.443 82.284 146.412 82.354 146.419 82.4572L94.4575 112.457Z" fill="#8BC5E4"/>
<path fill-rule="evenodd" clip-rule="evenodd" d="M94.5425 112.242C94.8644 112.023 96.0286 112.576 97.0034 113.147L148.965 83.1474C147.99 82.5762 146.826 82.0226 146.504 82.2424L94.5425 112.242Z" fill="#8BC5E4"/>
<path fill-rule="evenodd" clip-rule="evenodd" d="M108.894 124.752C109.102 124.872 109.301 125.007 109.5 125.172L161.462 95.1722C161.263 95.0072 161.063 94.8722 160.856 94.7522L108.894 124.752Z" fill="#8BC5E4"/>
<path fill-rule="evenodd" clip-rule="evenodd" d="M109.5 125.172C109.467 125.571 109.814 126.196 109.208 126.56L161.169 96.5601C161.776 96.1956 161.429 95.5714 161.462 95.1724L109.5 125.172Z" fill="#8BC5E4"/>
<path fill-rule="evenodd" clip-rule="evenodd" d="M109.208 126.56C109.016 126.675 108.729 126.764 108.305 126.812L160.267 96.8123C160.691 96.7643 160.978 96.6752 161.169 96.5601L109.208 126.56Z" fill="#8BC5E4"/>
<path fill-rule="evenodd" clip-rule="evenodd" d="M108.305 126.812C108.226 126.824 108.11 126.863 108.003 126.922L159.964 96.9218C160.072 96.8628 160.188 96.8243 160.267 96.8123L108.305 126.812Z" fill="#8BC5E4"/>
<path fill-rule="evenodd" clip-rule="evenodd" d="M108.003 126.922C107.662 127.109 107.405 127.502 108.669 127.912L160.63 97.9123C159.367 97.5019 159.624 97.1089 159.964 96.9219L108.003 126.922Z" fill="#8BC5E4"/>
<path fill-rule="evenodd" clip-rule="evenodd" d="M108.669 127.912C109.067 128.032 111.059 128.722 112.263 130.067L164.224 100.067C163.021 98.7224 161.029 98.0324 160.63 97.9124L108.669 127.912Z" fill="#8BC5E4"/>
<path fill-rule="evenodd" clip-rule="evenodd" d="M112.263 130.067C112.644 130.487 112.93 130.992 113.501 130.792L165.463 100.792C164.891 100.992 164.606 100.487 164.224 100.067L112.263 130.067Z" fill="#8BC5E4"/>
<path fill-rule="evenodd" clip-rule="evenodd" d="M113.501 130.792C113.511 130.789 113.52 130.786 113.528 130.781L165.49 100.781C165.481 100.786 165.472 100.789 165.463 100.792L113.501 130.792Z" fill="#8BC5E4"/>
<path fill-rule="evenodd" clip-rule="evenodd" d="M113.529 130.781C113.74 130.673 113.79 130.137 113.432 129.412L165.394 99.4124C165.751 100.137 165.702 100.673 165.49 100.781L113.529 130.781Z" fill="#8BC5E4"/>
<path fill-rule="evenodd" clip-rule="evenodd" d="M113.432 129.412C113.155 128.822 112.912 128.312 112.228 127.837L164.19 97.8372C164.874 98.3122 165.116 98.8222 165.394 99.4122L113.432 129.412Z" fill="#8BC5E4"/>
<path fill-rule="evenodd" clip-rule="evenodd" d="M112.228 127.837C111.795 127.537 111.683 126.742 111.674 126.717L163.636 96.7173C163.644 96.7423 163.757 97.5373 164.19 97.8373L112.228 127.837Z" fill="#8BC5E4"/>
<path fill-rule="evenodd" clip-rule="evenodd" d="M111.674 126.717C113.475 128.517 117.26 132.522 118.68 134.872L170.642 104.872C169.221 102.522 165.437 98.5173 163.636 96.7173L111.674 126.717Z" fill="#8BC5E4"/>
<path fill-rule="evenodd" clip-rule="evenodd" d="M118.68 134.872C118.842 135.139 118.889 135.267 118.853 135.3L170.815 105.3C170.851 105.267 170.804 105.139 170.642 104.872L118.68 134.872Z" fill="#8BC5E4"/>
<path fill-rule="evenodd" clip-rule="evenodd" d="M118.853 135.3C118.739 135.406 117.794 134.567 117.043 134.187L169.005 104.187C169.755 104.567 170.7 105.406 170.815 105.3L118.853 135.3Z" fill="#8BC5E4"/>
<path fill-rule="evenodd" clip-rule="evenodd" d="M117.043 134.187C114.359 132.837 114.714 131.792 113.969 132.002L165.931 102.002C166.675 101.792 166.32 102.837 169.005 104.187L117.043 134.187Z" fill="#8BC5E4"/>
<path fill-rule="evenodd" clip-rule="evenodd" d="M113.969 132.002C113.919 132.016 113.879 132.031 113.847 132.046L165.808 102.046C165.84 102.031 165.881 102.016 165.93 102.002L113.969 132.002Z" fill="#8BC5E4"/>
<path fill-rule="evenodd" clip-rule="evenodd" d="M113.847 132.046C113.479 132.229 114.196 132.561 113.718 133.067L165.679 103.067C166.157 102.561 165.441 102.229 165.808 102.046L113.847 132.046Z" fill="#8BC5E4"/>
<path fill-rule="evenodd" clip-rule="evenodd" d="M113.718 133.067L165.679 103.067L113.718 133.067Z" fill="#8BC5E4"/>
<path fill-rule="evenodd" clip-rule="evenodd" d="M113.718 133.067C113.479 133.297 112.998 132.499 112.727 132.607L164.688 102.607C164.959 102.499 165.44 103.297 165.679 103.067L113.718 133.067Z" fill="#8BC5E4"/>
<path fill-rule="evenodd" clip-rule="evenodd" d="M112.727 132.607C112.703 132.617 112.681 132.633 112.661 132.657L164.623 102.657C164.643 102.633 164.665 102.617 164.688 102.607L112.727 132.607Z" fill="#8BC5E4"/>
<path fill-rule="evenodd" clip-rule="evenodd" d="M112.661 132.657C111.96 133.522 113.016 136.272 111.986 137.787L163.947 107.787C164.978 106.272 163.921 103.522 164.623 102.657L112.661 132.657Z" fill="#8BC5E4"/>
<path fill-rule="evenodd" clip-rule="evenodd" d="M111.986 137.787C111.689 138.214 111.388 138.544 111.03 138.769L162.991 108.769C163.349 108.544 163.651 108.214 163.947 107.787L111.986 137.787Z" fill="#8BC5E4"/>
<path fill-rule="evenodd" clip-rule="evenodd" d="M111.03 138.769C110.394 139.169 109.58 139.236 108.305 138.922L160.267 108.922C161.541 109.236 162.355 109.169 162.991 108.769L111.03 138.769Z" fill="#8BC5E4"/>
<path fill-rule="evenodd" clip-rule="evenodd" d="M108.305 138.922C107.193 138.652 106.527 138.078 106.178 138.186L158.139 108.186C158.489 108.078 159.155 108.652 160.267 108.922L108.305 138.922Z" fill="#8BC5E4"/>
<path fill-rule="evenodd" clip-rule="evenodd" d="M106.178 138.186C105.945 138.258 105.852 138.632 105.863 139.602L157.824 109.602C157.814 108.632 157.906 108.258 158.139 108.186L106.178 138.186Z" fill="#8BC5E4"/>
<path fill-rule="evenodd" clip-rule="evenodd" d="M105.863 139.602C105.874 140.225 105.584 140.708 105.176 140.976L157.138 110.976C157.546 110.708 157.836 110.225 157.824 109.602L105.863 139.602Z" fill="#8BC5E4"/>
<path fill-rule="evenodd" clip-rule="evenodd" d="M105.176 140.976C104.657 141.317 103.948 141.31 103.429 140.797L155.391 110.797C155.91 111.31 156.619 111.317 157.138 110.976L105.176 140.976Z" fill="#8BC5E4"/>
<path fill-rule="evenodd" clip-rule="evenodd" d="M103.43 140.787C101.741 139.122 101.472 138.217 102.096 137.627L154.057 107.627C153.434 108.217 153.702 109.122 155.391 110.787L103.43 140.787Z" fill="#8BC5E4"/>
<path fill-rule="evenodd" clip-rule="evenodd" d="M102.096 137.627C102.643 137.111 101.439 135.879 101.654 135.611L153.615 105.611C153.4 105.879 154.605 107.111 154.057 107.627L102.096 137.627Z" fill="#8BC5E4"/>
<path fill-rule="evenodd" clip-rule="evenodd" d="M101.654 135.611C101.708 135.544 101.85 135.537 102.13 135.617L154.092 105.617C153.811 105.537 153.669 105.544 153.615 105.611L101.654 135.611Z" fill="#8BC5E4"/>
<path fill-rule="evenodd" clip-rule="evenodd" d="M102.13 135.617C102.633 135.759 103.06 135.767 103.281 135.676L155.242 105.676C155.022 105.767 154.594 105.759 154.092 105.617L102.13 135.617Z" fill="#8BC5E4"/>
<path fill-rule="evenodd" clip-rule="evenodd" d="M103.281 135.676C103.612 135.539 103.478 135.181 102.434 134.722L154.395 104.722C155.44 105.181 155.574 105.539 155.243 105.676L103.281 135.676Z" fill="#8BC5E4"/>
<path fill-rule="evenodd" clip-rule="evenodd" d="M102.434 134.722C101.386 134.257 101.013 134.472 99.2119 132.422L151.173 102.422C152.975 104.472 153.347 104.257 154.395 104.722L102.434 134.722Z" fill="#8BC5E4"/>
<path fill-rule="evenodd" clip-rule="evenodd" d="M99.2119 132.422C98.4412 131.537 98.1121 131.477 97.6531 130.682L149.615 100.682C150.074 101.477 150.403 101.537 151.173 102.422L99.2119 132.422Z" fill="#8BC5E4"/>
<path fill-rule="evenodd" clip-rule="evenodd" d="M97.6529 130.682C97.1853 129.862 97.1419 129.347 95.3926 128.457L147.354 98.4573C149.103 99.3473 149.147 99.8623 149.614 100.682L97.6529 130.682Z" fill="#8BC5E4"/>
<path fill-rule="evenodd" clip-rule="evenodd" d="M95.3926 128.457C93.8598 127.672 94.847 127.242 94.3621 126.252L146.324 96.2522C146.809 97.2422 145.821 97.6722 147.354 98.4572L95.3926 128.457Z" fill="#8BC5E4"/>
<path fill-rule="evenodd" clip-rule="evenodd" d="M94.3622 126.252C93.8772 125.272 93.5914 125.117 93.9898 124.197L145.951 94.1973C145.553 95.1173 145.839 95.2723 146.324 96.2523L94.3622 126.252Z" fill="#8BC5E4"/>
<path fill-rule="evenodd" clip-rule="evenodd" d="M93.9897 124.197C94.1727 123.784 94.4453 123.446 94.8337 123.202L146.795 93.2017C146.407 93.4465 146.134 93.7844 145.951 94.1972L93.9897 124.197Z" fill="#8BC5E4"/>
<path fill-rule="evenodd" clip-rule="evenodd" d="M94.8337 123.202C95.2544 122.937 95.8109 122.781 96.5359 122.757L148.497 92.7573C147.772 92.7807 147.216 92.9366 146.795 93.2018L94.8337 123.202Z" fill="#8BC5E4"/>
<path fill-rule="evenodd" clip-rule="evenodd" d="M96.5359 122.757C97.3153 122.727 98.3719 123.187 99.0127 122.947L150.974 92.9473C150.333 93.1873 149.277 92.7273 148.497 92.7573L96.5359 122.757Z" fill="#8BC5E4"/>
<path fill-rule="evenodd" clip-rule="evenodd" d="M99.0127 122.947C99.5583 122.752 100.19 122.777 100.996 123.252L152.957 93.2522C152.152 92.7772 151.52 92.7522 150.974 92.9472L99.0127 122.947Z" fill="#8BC5E4"/>
<path fill-rule="evenodd" clip-rule="evenodd" d="M100.996 123.252C101.671 123.652 102.321 124.047 103.308 124.117L155.27 94.1172C154.282 94.0472 153.633 93.6522 152.957 93.2522L100.996 123.252Z" fill="#8BC5E4"/>
<path fill-rule="evenodd" clip-rule="evenodd" d="M103.308 124.117C103.795 124.148 104.002 124.305 104.332 124.129L156.293 94.1287C155.964 94.3051 155.757 94.1476 155.27 94.1172L103.308 124.117Z" fill="#8BC5E4"/>
<path fill-rule="evenodd" clip-rule="evenodd" d="M104.332 124.129C104.436 124.073 104.553 123.984 104.694 123.847L156.655 93.8472C156.514 93.984 156.398 94.073 156.294 94.1287L104.332 124.129Z" fill="#8BC5E4"/>
<path fill-rule="evenodd" clip-rule="evenodd" d="M104.694 123.847C104.726 123.816 104.759 123.789 104.791 123.768L156.753 93.7678C156.72 93.7893 156.688 93.8156 156.655 93.8472L104.694 123.847Z" fill="#8BC5E4"/>
<path fill-rule="evenodd" clip-rule="evenodd" d="M104.791 123.768C105.165 123.521 105.548 123.92 106.313 124.352L158.275 94.3522C157.51 93.9198 157.126 93.5212 156.753 93.7678L104.791 123.768Z" fill="#8BC5E4"/>
<path fill-rule="evenodd" clip-rule="evenodd" d="M106.313 124.352C106.542 124.48 106.708 124.497 106.831 124.442L158.792 94.4417C158.67 94.4971 158.503 94.4803 158.275 94.3523L106.313 124.352Z" fill="#8BC5E4"/>
<path fill-rule="evenodd" clip-rule="evenodd" d="M106.831 124.442C107.015 124.359 107.101 124.113 107.153 123.837L159.115 93.8372C159.063 94.1132 158.977 94.3586 158.793 94.4416L106.831 124.442Z" fill="#8BC5E4"/>
<path fill-rule="evenodd" clip-rule="evenodd" d="M107.153 123.837C107.742 124.227 108.314 124.407 108.894 124.752L160.856 94.7522C160.275 94.4072 159.704 94.2272 159.115 93.8372L107.153 123.837Z" fill="#8BC5E4"/>
<path fill-rule="evenodd" clip-rule="evenodd" d="M121.477 137.877C122.343 139.067 123.201 140.272 124.032 141.482L175.994 111.482C175.162 110.272 174.305 109.067 173.439 107.877L121.477 137.877Z" fill="#8BC5E4"/>
<path fill-rule="evenodd" clip-rule="evenodd" d="M124.032 141.482C123.426 141.372 122.109 140.472 121.443 139.467L173.404 109.467C174.071 110.472 175.387 111.372 175.994 111.482L124.032 141.482Z" fill="#8BC5E4"/>
<path fill-rule="evenodd" clip-rule="evenodd" d="M121.443 139.467C120.947 138.715 120.975 138.171 121.319 137.95L173.281 107.95C172.937 108.171 172.909 108.715 173.404 109.467L121.443 139.467Z" fill="#8BC5E4"/>
<path fill-rule="evenodd" clip-rule="evenodd" d="M121.319 137.95C121.366 137.919 121.419 137.895 121.477 137.877L173.439 107.877C173.381 107.895 173.328 107.919 173.281 107.95L121.319 137.95Z" fill="#8BC5E4"/>
<path fill-rule="evenodd" clip-rule="evenodd" d="M48.5753 98.9873C48.532 99.2723 48.5233 99.5273 48.7138 99.7773L100.675 69.7773C100.485 69.5273 100.493 69.2723 100.537 68.9873L48.5753 98.9873Z" fill="#8BC5E4"/>
<path fill-rule="evenodd" clip-rule="evenodd" d="M48.714 99.7773C49.4068 100.707 48.6447 100.147 48.6794 101.337L100.641 71.3373C100.606 70.1473 101.368 70.7073 100.676 69.7773L48.714 99.7773Z" fill="#8BC5E4"/>
<path fill-rule="evenodd" clip-rule="evenodd" d="M48.6792 101.337C48.7398 102.832 48.099 102.872 48.3328 103.607L100.294 73.6072C100.061 72.8722 100.701 72.8322 100.641 71.3372L48.6792 101.337Z" fill="#8BC5E4"/>
<path fill-rule="evenodd" clip-rule="evenodd" d="M48.3328 103.607C48.7918 105.102 49.7271 103.632 50.212 104.802L102.174 74.8022C101.689 73.6322 100.753 75.1022 100.294 73.6072L48.3328 103.607Z" fill="#8BC5E4"/>
<path fill-rule="evenodd" clip-rule="evenodd" d="M50.2122 104.802C50.3715 105.182 50.5309 105.62 50.2645 105.777L102.226 75.7771C102.492 75.6198 102.333 75.1822 102.174 74.8022L50.2122 104.802Z" fill="#8BC5E4"/>
<path fill-rule="evenodd" clip-rule="evenodd" d="M50.2645 105.777C50.1979 105.816 50.1047 105.838 49.9783 105.837L101.94 75.8372C102.066 75.8382 102.159 75.8164 102.226 75.7771L50.2645 105.777Z" fill="#8BC5E4"/>
<path fill-rule="evenodd" clip-rule="evenodd" d="M49.9783 105.837C49.7739 105.835 49.6198 105.867 49.5037 105.927L101.465 75.9274C101.581 75.867 101.735 75.8352 101.94 75.8372L49.9783 105.837Z" fill="#8BC5E4"/>
<path fill-rule="evenodd" clip-rule="evenodd" d="M49.5038 105.927C49.0393 106.169 49.1834 106.866 49.1557 107.682L101.117 77.6824C101.145 76.8664 101.001 76.1688 101.465 75.9275L49.5038 105.927Z" fill="#8BC5E4"/>
<path fill-rule="evenodd" clip-rule="evenodd" d="M49.1557 107.682C49.1037 109.072 49.9264 109.347 49.8572 109.947L101.819 79.9474C101.888 79.3474 101.065 79.0724 101.117 77.6824L49.1557 107.682Z" fill="#8BC5E4"/>
<path fill-rule="evenodd" clip-rule="evenodd" d="M49.8571 109.947C49.846 110.05 49.801 110.113 49.7341 110.154L101.696 80.154C101.762 80.113 101.807 80.0497 101.819 79.9473L49.8571 109.947Z" fill="#8BC5E4"/>
<path fill-rule="evenodd" clip-rule="evenodd" d="M49.7341 110.154C49.5504 110.267 49.2015 110.211 48.9392 110.332L100.901 80.3325C101.163 80.2106 101.512 80.2668 101.696 80.1541L49.7341 110.154Z" fill="#8BC5E4"/>
<path fill-rule="evenodd" clip-rule="evenodd" d="M48.9391 110.333C48.7007 110.443 48.5337 110.701 48.6272 111.367L100.589 81.3673C100.495 80.7013 100.662 80.4433 100.901 80.3325L48.9391 110.333Z" fill="#8BC5E4"/>
<path fill-rule="evenodd" clip-rule="evenodd" d="M48.6274 111.367C48.8093 112.692 50.065 112.697 50.0564 115.202L102.018 85.2022C102.027 82.6972 100.771 82.6922 100.589 81.3672L48.6274 111.367Z" fill="#8BC5E4"/>
<path fill-rule="evenodd" clip-rule="evenodd" d="M50.0562 115.202C50.0562 115.502 50.0107 115.643 49.9355 115.702L101.897 85.7023C101.972 85.6426 102.018 85.5017 102.018 85.2021L50.0562 115.202Z" fill="#8BC5E4"/>
<path fill-rule="evenodd" clip-rule="evenodd" d="M49.9355 115.702C49.7743 115.83 49.4767 115.585 49.198 115.732L101.16 85.7316C101.438 85.5855 101.736 85.8303 101.897 85.7024L49.9355 115.702Z" fill="#8BC5E4"/>
<path fill-rule="evenodd" clip-rule="evenodd" d="M49.1982 115.732C49.1424 115.761 49.0874 115.806 49.0344 115.872L100.996 85.8724C101.049 85.8058 101.104 85.7609 101.16 85.7317L49.1982 115.732Z" fill="#8BC5E4"/>
<path fill-rule="evenodd" clip-rule="evenodd" d="M49.0343 115.872C48.021 117.127 47.207 118.647 46.644 118.932L98.6056 88.9323C99.1685 88.6473 99.9825 87.1273 100.996 85.8723L49.0343 115.872Z" fill="#8BC5E4"/>
<path fill-rule="evenodd" clip-rule="evenodd" d="M46.6442 118.932C46.2632 119.135 45.8452 119.26 45.4907 119.451L97.4522 89.4512C97.8067 89.2597 98.2247 89.1348 98.6057 88.9324L46.6442 118.932Z" fill="#8BC5E4"/>
<path fill-rule="evenodd" clip-rule="evenodd" d="M45.4907 119.451C45.0395 119.695 44.6911 120.046 44.6523 120.802L96.6139 90.8023C96.6527 90.0463 97.0011 89.6949 97.4522 89.4512L45.4907 119.451Z" fill="#8BC5E4"/>
<path fill-rule="evenodd" clip-rule="evenodd" d="M44.6522 120.802C44.64 121.022 44.5912 121.125 44.5142 121.176L96.4757 91.1755C96.5528 91.125 96.6016 91.022 96.6137 90.8022L44.6522 120.802Z" fill="#8BC5E4"/>
<path fill-rule="evenodd" clip-rule="evenodd" d="M44.5142 121.176C44.371 121.269 44.1302 121.182 43.8455 121.326L95.807 91.3256C96.0918 91.182 96.3325 91.2693 96.4757 91.1755L44.5142 121.176Z" fill="#8BC5E4"/>
<path fill-rule="evenodd" clip-rule="evenodd" d="M43.8456 121.326C43.736 121.381 43.62 121.47 43.5005 121.617L95.462 91.6173C95.5815 91.4703 95.6976 91.3809 95.8071 91.3257L43.8456 121.326Z" fill="#8BC5E4"/>
<path fill-rule="evenodd" clip-rule="evenodd" d="M43.5005 121.617C42.6604 122.652 42.6604 122.672 42.6864 125.767L94.6479 95.7672C94.6219 92.6722 94.6219 92.6522 95.462 91.6172L43.5005 121.617Z" fill="#8BC5E4"/>
<path fill-rule="evenodd" clip-rule="evenodd" d="M42.6865 125.767C42.6952 126.922 42.2708 131.017 44.0808 131.862L96.0423 101.862C94.2323 101.017 94.6567 96.9223 94.648 95.7673L42.6865 125.767Z" fill="#8BC5E4"/>
<path fill-rule="evenodd" clip-rule="evenodd" d="M44.0808 131.862C45.3885 132.477 44.9035 132.947 45.7263 133.942L97.6878 103.942C96.8651 102.947 97.35 102.477 96.0423 101.862L44.0808 131.862Z" fill="#8BC5E4"/>
<path fill-rule="evenodd" clip-rule="evenodd" d="M45.7261 133.942C46.9298 135.417 46.4622 137.147 46.4622 138.387L98.4237 108.387C98.4237 107.147 98.8914 105.417 97.6876 103.942L45.7261 133.942Z" fill="#8BC5E4"/>
<path fill-rule="evenodd" clip-rule="evenodd" d="M46.4623 138.387C46.4536 139.922 46.3843 139.472 46.6701 140.527L98.6316 110.527C98.3459 109.472 98.4151 109.922 98.4238 108.387L46.4623 138.387Z" fill="#8BC5E4"/>
<path fill-rule="evenodd" clip-rule="evenodd" d="M46.6702 140.527C47.1066 142.199 47.6898 142.664 47.1928 143.016L99.1543 113.016C99.6513 112.664 99.0682 112.199 98.6317 110.527L46.6702 140.527Z" fill="#8BC5E4"/>
<path fill-rule="evenodd" clip-rule="evenodd" d="M47.1928 143.016C47.0981 143.083 46.9642 143.146 46.7827 143.212L98.7442 113.212C98.9258 113.146 99.0596 113.083 99.1543 113.016L47.1928 143.016Z" fill="#8BC5E4"/>
<path fill-rule="evenodd" clip-rule="evenodd" d="M46.7827 143.212L98.7442 113.212L46.7827 143.212Z" fill="#8BC5E4"/>
<path fill-rule="evenodd" clip-rule="evenodd" d="M46.7828 143.212C45.5184 143.672 47.8047 145.612 48.6967 146.617L100.658 116.617C99.7662 115.612 97.4799 113.672 98.7443 113.212L46.7828 143.212Z" fill="#8BC5E4"/>
<path fill-rule="evenodd" clip-rule="evenodd" d="M48.6965 146.617C49.1642 147.137 49.2941 147.452 49.2248 148.422L101.186 118.422C101.256 117.452 101.126 117.137 100.658 116.617L48.6965 146.617Z" fill="#8BC5E4"/>
<path fill-rule="evenodd" clip-rule="evenodd" d="M49.2249 148.422C49.1383 149.482 49.5627 150.097 50.0476 150.937L102.009 120.937C101.524 120.097 101.1 119.482 101.186 118.422L49.2249 148.422Z" fill="#8BC5E4"/>
<path fill-rule="evenodd" clip-rule="evenodd" d="M50.0476 150.937C50.5672 151.837 51.5978 152.762 51.8922 152.762L103.854 122.762C103.559 122.762 102.529 121.837 102.009 120.937L50.0476 150.937Z" fill="#8BC5E4"/>
<path fill-rule="evenodd" clip-rule="evenodd" d="M51.8923 152.762C51.9041 152.763 51.914 152.761 51.9221 152.756L103.884 122.756C103.876 122.761 103.866 122.763 103.854 122.762L51.8923 152.762Z" fill="#8BC5E4"/>
<path fill-rule="evenodd" clip-rule="evenodd" d="M51.922 152.756C52.1158 152.648 51.2767 151.187 51.0522 150.827L103.014 120.827C103.238 121.187 104.077 122.648 103.884 122.756L51.922 152.756Z" fill="#8BC5E4"/>
<path fill-rule="evenodd" clip-rule="evenodd" d="M51.0523 150.827C50.2901 149.667 50.3767 149.387 50.3767 148.827L102.338 118.827C102.338 119.387 102.252 119.667 103.014 120.827L51.0523 150.827Z" fill="#8BC5E4"/>
<path fill-rule="evenodd" clip-rule="evenodd" d="M50.3768 148.827C50.3768 148.177 49.9524 148.022 49.8398 146.887L101.801 116.887C101.914 118.022 102.338 118.177 102.338 118.827L50.3768 148.827Z" fill="#8BC5E4"/>
<path fill-rule="evenodd" clip-rule="evenodd" d="M49.8398 146.887C49.7185 145.607 49.095 144.907 49.1643 143.997L101.126 113.997C101.057 114.907 101.68 115.607 101.801 116.887L49.8398 146.887Z" fill="#8BC5E4"/>
<path fill-rule="evenodd" clip-rule="evenodd" d="M49.1643 143.997C49.2942 142.162 49.1037 142.412 48.74 141.422L100.702 111.422C101.065 112.412 101.256 112.162 101.126 113.997L49.1643 143.997Z" fill="#8BC5E4"/>
<path fill-rule="evenodd" clip-rule="evenodd" d="M48.7399 141.422C48.3859 140.473 48.5669 139.968 48.892 139.74L100.854 109.74C100.528 109.968 100.347 110.473 100.701 111.422L48.7399 141.422Z" fill="#8BC5E4"/>
<path fill-rule="evenodd" clip-rule="evenodd" d="M48.8921 139.74C49.1476 139.561 49.492 139.554 49.7359 139.637L101.697 109.637C101.454 109.554 101.109 109.561 100.854 109.74L48.8921 139.74Z" fill="#8BC5E4"/>
<path fill-rule="evenodd" clip-rule="evenodd" d="M49.7358 139.637C50.9136 140.037 50.7664 141.542 50.7578 142.367L102.719 112.367C102.728 111.542 102.875 110.037 101.697 109.637L49.7358 139.637Z" fill="#8BC5E4"/>
<path fill-rule="evenodd" clip-rule="evenodd" d="M50.7579 142.367C50.7146 144.742 51.1043 144.337 52.0915 145.747L104.053 115.747C103.066 114.337 102.676 114.742 102.719 112.367L50.7579 142.367Z" fill="#8BC5E4"/>
<path fill-rule="evenodd" clip-rule="evenodd" d="M52.0913 145.747C53.0872 147.182 52.1606 147.557 52.7322 148.647L104.694 118.647C104.122 117.557 105.049 117.182 104.053 115.747L52.0913 145.747Z" fill="#8BC5E4"/>
<path fill-rule="evenodd" clip-rule="evenodd" d="M52.7322 148.647C53.6675 150.417 53.0613 150.357 53.1652 150.737L105.127 120.737C105.023 120.357 105.629 120.417 104.694 118.647L52.7322 148.647Z" fill="#8BC5E4"/>
<path fill-rule="evenodd" clip-rule="evenodd" d="M53.1653 150.737C53.5204 152.102 54.1526 151.847 54.4383 153.702L106.4 123.702C106.114 121.847 105.482 122.102 105.127 120.737L53.1653 150.737Z" fill="#8BC5E4"/>
<path fill-rule="evenodd" clip-rule="evenodd" d="M54.4385 153.702C54.7156 155.412 56.2398 155.412 56.6901 159.102L108.652 129.102C108.201 125.412 106.677 125.412 106.4 123.702L54.4385 153.702Z" fill="#8BC5E4"/>
<path fill-rule="evenodd" clip-rule="evenodd" d="M56.69 159.102C56.9672 161.422 54.525 159.942 56.5948 162.517L108.556 132.517C106.486 129.942 108.929 131.422 108.652 129.102L56.69 159.102Z" fill="#8BC5E4"/>
<path fill-rule="evenodd" clip-rule="evenodd" d="M56.5947 162.517C57.7725 163.977 57.3568 164.447 58.4913 164.972L110.453 134.972C109.318 134.447 109.734 133.977 108.556 132.517L56.5947 162.517Z" fill="#8BC5E4"/>
<path fill-rule="evenodd" clip-rule="evenodd" d="M58.4915 164.972C60.1282 165.737 60.414 166.242 60.8644 167.072L112.826 137.072C112.376 136.242 112.09 135.737 110.453 134.972L58.4915 164.972Z" fill="#8BC5E4"/>
<path fill-rule="evenodd" clip-rule="evenodd" d="M60.8642 167.072C60.206 163.162 59.8076 159.142 59.6604 154.967L111.622 124.967C111.769 129.142 112.168 133.162 112.826 137.072L60.8642 167.072Z" fill="#8BC5E4"/>
<path fill-rule="evenodd" clip-rule="evenodd" d="M103.473 157.532C103.558 157.43 103.637 157.354 103.717 157.3L155.678 127.3C155.599 127.354 155.519 127.43 155.434 127.532L103.473 157.532Z" fill="#8BC5E4"/>
<path fill-rule="evenodd" clip-rule="evenodd" d="M103.717 157.3C103.97 157.13 104.229 157.192 104.703 157.412L156.664 127.412C156.19 127.192 155.931 127.13 155.679 127.3L103.717 157.3Z" fill="#8BC5E4"/>
<path fill-rule="evenodd" clip-rule="evenodd" d="M104.702 157.412C105.187 157.622 105.291 157.872 105.733 157.617L157.694 127.617C157.253 127.872 157.149 127.622 156.664 127.412L104.702 157.412Z" fill="#8BC5E4"/>
<path fill-rule="evenodd" clip-rule="evenodd" d="M105.733 157.617C105.984 157.472 107.015 157.917 107.968 158.557L159.929 128.557C158.976 127.917 157.946 127.472 157.695 127.617L105.733 157.617Z" fill="#8BC5E4"/>
<path fill-rule="evenodd" clip-rule="evenodd" d="M107.967 158.557C108.355 158.815 108.594 158.964 108.727 158.922L160.689 128.922C160.555 128.964 160.317 128.815 159.929 128.557L107.967 158.557Z" fill="#8BC5E4"/>
<path fill-rule="evenodd" clip-rule="evenodd" d="M108.727 158.922C108.832 158.889 108.872 158.737 108.868 158.427L160.83 128.427C160.833 128.737 160.794 128.889 160.689 128.922L108.727 158.922Z" fill="#8BC5E4"/>
<path fill-rule="evenodd" clip-rule="evenodd" d="M108.868 158.427C108.858 157.513 108.98 157.09 109.209 156.905L161.17 126.905C160.942 127.09 160.819 127.513 160.83 128.427L108.868 158.427Z" fill="#8BC5E4"/>
<path fill-rule="evenodd" clip-rule="evenodd" d="M109.209 156.905C109.551 156.627 110.132 156.883 110.86 156.817L162.821 126.817C162.094 126.883 161.513 126.627 161.17 126.905L109.209 156.905Z" fill="#8BC5E4"/>
<path fill-rule="evenodd" clip-rule="evenodd" d="M110.86 156.817C113.458 156.547 114.584 157.207 115.381 157.597L167.342 127.597C166.545 127.207 165.419 126.547 162.821 126.817L110.86 156.817Z" fill="#8BC5E4"/>
<path fill-rule="evenodd" clip-rule="evenodd" d="M115.381 157.597C116.169 157.999 116.315 158.195 116.165 158.314L168.127 128.314C168.277 128.195 168.131 127.999 167.342 127.597L115.381 157.597Z" fill="#8BC5E4"/>
<path fill-rule="evenodd" clip-rule="evenodd" d="M116.165 158.314C115.965 158.473 115.239 158.496 114.812 158.688L166.774 128.688C167.201 128.496 167.926 128.473 168.126 128.314L116.165 158.314Z" fill="#8BC5E4"/>
<path fill-rule="evenodd" clip-rule="evenodd" d="M114.812 158.688C114.67 158.752 114.56 158.834 114.515 158.947L166.476 128.947C166.522 128.834 166.631 128.752 166.774 128.688L114.812 158.688Z" fill="#8BC5E4"/>
<path fill-rule="evenodd" clip-rule="evenodd" d="M114.514 158.947C114.255 159.547 115.069 160.007 115.614 159.992L167.576 129.992C167.03 130.007 166.216 129.547 166.476 128.947L114.514 158.947Z" fill="#8BC5E4"/>
<path fill-rule="evenodd" clip-rule="evenodd" d="M115.615 159.992C116.325 159.977 116.771 160.19 117.225 159.968L169.187 129.968C168.733 130.19 168.287 129.977 167.576 129.992L115.615 159.992Z" fill="#8BC5E4"/>
<path fill-rule="evenodd" clip-rule="evenodd" d="M117.225 159.968C117.369 159.898 117.513 159.785 117.667 159.607L169.628 129.607C169.475 129.785 169.33 129.898 169.187 129.968L117.225 159.968Z" fill="#8BC5E4"/>
<path fill-rule="evenodd" clip-rule="evenodd" d="M117.667 159.607C117.715 159.553 117.763 159.511 117.812 159.479L169.774 129.479C169.725 129.511 169.676 129.553 169.629 129.607L117.667 159.607Z" fill="#8BC5E4"/>
<path fill-rule="evenodd" clip-rule="evenodd" d="M117.812 159.479C118.379 159.115 119.079 160.141 120.681 160.587L172.642 130.587C171.041 130.141 170.341 129.115 169.774 129.479L117.812 159.479Z" fill="#8BC5E4"/>
<path fill-rule="evenodd" clip-rule="evenodd" d="M120.681 160.587C122.421 161.072 122.257 160.857 122.768 160.792L174.729 130.792C174.218 130.857 174.383 131.072 172.642 130.587L120.681 160.587Z" fill="#8BC5E4"/>
<path fill-rule="evenodd" clip-rule="evenodd" d="M122.768 160.792C122.797 160.787 122.823 160.781 122.847 160.772L174.809 130.772C174.785 130.781 174.758 130.787 174.729 130.792L122.768 160.792Z" fill="#8BC5E4"/>
<path fill-rule="evenodd" clip-rule="evenodd" d="M122.847 160.772C123.422 160.559 122.554 159.219 122.213 158.782L174.175 128.782C174.516 129.219 175.383 130.559 174.809 130.772L122.847 160.772Z" fill="#8BC5E4"/>
<path fill-rule="evenodd" clip-rule="evenodd" d="M122.214 158.782C121.92 158.414 121.598 158.362 121.372 158.466L173.334 128.466C173.559 128.362 173.881 128.414 174.175 128.782L122.214 158.782Z" fill="#8BC5E4"/>
<path fill-rule="evenodd" clip-rule="evenodd" d="M121.372 158.466C121.245 158.524 121.149 158.633 121.105 158.762L173.067 128.762C173.11 128.633 173.207 128.524 173.333 128.466L121.372 158.466Z" fill="#8BC5E4"/>
<path fill-rule="evenodd" clip-rule="evenodd" d="M121.105 158.762C120.943 159.255 120.763 159.517 120.586 159.642L172.548 129.642C172.724 129.517 172.904 129.255 173.067 128.762L121.105 158.762Z" fill="#8BC5E4"/>
<path fill-rule="evenodd" clip-rule="evenodd" d="M120.586 159.642C120.272 159.865 119.969 159.66 119.797 159.567L171.759 129.567C171.931 129.66 172.234 129.865 172.548 129.642L120.586 159.642Z" fill="#8BC5E4"/>
<path fill-rule="evenodd" clip-rule="evenodd" d="M119.797 159.567C118.524 158.902 117.901 157.342 117.615 156.667L169.577 126.667C169.862 127.342 170.486 128.902 171.759 129.567L119.797 159.567Z" fill="#8BC5E4"/>
<path fill-rule="evenodd" clip-rule="evenodd" d="M117.615 156.667C117.421 156.215 117.515 155.986 117.724 155.845L169.685 125.845C169.477 125.986 169.382 126.215 169.576 126.667L117.615 156.667Z" fill="#8BC5E4"/>
<path fill-rule="evenodd" clip-rule="evenodd" d="M117.724 155.845C117.974 155.676 118.388 155.634 118.666 155.489L170.628 125.489C170.35 125.634 169.935 125.676 169.685 125.845L117.724 155.845Z" fill="#8BC5E4"/>
<path fill-rule="evenodd" clip-rule="evenodd" d="M118.666 155.489C118.736 155.453 118.797 155.41 118.845 155.357L170.806 125.357C170.758 125.41 170.697 125.453 170.628 125.489L118.666 155.489Z" fill="#8BC5E4"/>
<path fill-rule="evenodd" clip-rule="evenodd" d="M118.845 155.357C119.702 154.442 118.845 154.007 118.204 153.847L170.165 123.847C170.806 124.007 171.664 124.442 170.806 125.357L118.845 155.357Z" fill="#8BC5E4"/>
<path fill-rule="evenodd" clip-rule="evenodd" d="M118.204 153.847C117 153.572 116.55 152.752 116.991 152.037L168.953 122.037C168.511 122.752 168.962 123.572 170.165 123.847L118.204 153.847Z" fill="#8BC5E4"/>
<path fill-rule="evenodd" clip-rule="evenodd" d="M116.991 152.037C117.094 151.867 117.202 151.742 117.314 151.652L169.276 121.652C169.164 121.742 169.056 121.867 168.953 122.037L116.991 152.037Z" fill="#8BC5E4"/>
<path fill-rule="evenodd" clip-rule="evenodd" d="M117.314 151.652C118.134 150.998 119.153 152.304 119.763 152.577L171.724 122.577C171.115 122.304 170.096 120.998 169.276 121.652L117.314 151.652Z" fill="#8BC5E4"/>
<path fill-rule="evenodd" clip-rule="evenodd" d="M119.763 152.577C121.036 153.132 119.945 153.202 120.715 154.497L172.677 124.497C171.906 123.202 172.997 123.132 171.724 122.577L119.763 152.577Z" fill="#8BC5E4"/>
<path fill-rule="evenodd" clip-rule="evenodd" d="M120.715 154.497C121.117 155.178 121.583 155.352 121.894 155.175L173.856 125.175C173.545 125.352 173.078 125.178 172.677 124.497L120.715 154.497Z" fill="#8BC5E4"/>
<path fill-rule="evenodd" clip-rule="evenodd" d="M121.894 155.175C121.993 155.119 122.075 155.028 122.136 154.907L174.097 124.907C174.037 125.028 173.954 125.119 173.856 125.175L121.894 155.175Z" fill="#8BC5E4"/>
<path fill-rule="evenodd" clip-rule="evenodd" d="M122.136 154.907C122.473 154.202 120.733 154.087 121.044 153.447L173.006 123.447C172.694 124.087 174.435 124.202 174.097 124.907L122.136 154.907Z" fill="#8BC5E4"/>
<path fill-rule="evenodd" clip-rule="evenodd" d="M121.044 153.447C121.074 153.389 121.108 153.343 121.147 153.309L173.108 123.309C173.069 123.343 173.035 123.389 173.006 123.447L121.044 153.447Z" fill="#8BC5E4"/>
<path fill-rule="evenodd" clip-rule="evenodd" d="M121.147 153.309C121.596 152.918 122.685 154.059 123.928 154.832L175.89 124.832C174.647 124.059 173.558 122.918 173.108 123.309L121.147 153.309Z" fill="#8BC5E4"/>
<path fill-rule="evenodd" clip-rule="evenodd" d="M123.928 154.832C124.933 155.462 124.898 155.562 125.314 155.382L177.275 125.382C176.86 125.562 176.894 125.462 175.89 124.832L123.928 154.832Z" fill="#8BC5E4"/>
<path fill-rule="evenodd" clip-rule="evenodd" d="M125.314 155.382C126.137 155.027 126.362 155.737 126.717 155.672L178.678 125.672C178.323 125.737 178.098 125.027 177.275 125.382L125.314 155.382Z" fill="#8BC5E4"/>
<path fill-rule="evenodd" clip-rule="evenodd" d="M126.717 155.672C127.817 155.477 128.18 155.517 128.769 156.807L180.731 126.807C180.142 125.517 179.778 125.477 178.678 125.672L126.717 155.672Z" fill="#8BC5E4"/>
<path fill-rule="evenodd" clip-rule="evenodd" d="M128.769 156.807C128.997 157.313 129.034 157.539 128.95 157.627L180.911 127.627C180.995 127.539 180.958 127.313 180.731 126.807L128.769 156.807Z" fill="#8BC5E4"/>
<path fill-rule="evenodd" clip-rule="evenodd" d="M128.949 157.626C128.8 157.782 128.268 157.5 127.747 157.577L179.709 127.577C180.23 127.5 180.761 127.782 180.911 127.626L128.949 157.626Z" fill="#8BC5E4"/>
<path fill-rule="evenodd" clip-rule="evenodd" d="M127.747 157.577C127.218 157.65 126.722 157.835 126.3 158.063L178.262 128.063C178.683 127.835 179.179 127.65 179.709 127.577L127.747 157.577Z" fill="#8BC5E4"/>
<path fill-rule="evenodd" clip-rule="evenodd" d="M126.3 158.063C125.764 158.353 125.349 158.714 125.141 159.002L177.102 129.002C177.311 128.714 177.726 128.353 178.262 128.063L126.3 158.063Z" fill="#8BC5E4"/>
<path fill-rule="evenodd" clip-rule="evenodd" d="M125.141 159.002C124.422 160.017 126.145 159.892 127.782 160.807L179.744 130.807C178.107 129.892 176.383 130.017 177.102 129.002L125.141 159.002Z" fill="#8BC5E4"/>
<path fill-rule="evenodd" clip-rule="evenodd" d="M127.782 160.807C129.142 161.562 129.419 161.532 130.224 162.657L182.186 132.657C181.38 131.532 181.103 131.562 179.744 130.807L127.782 160.807Z" fill="#8BC5E4"/>
<path fill-rule="evenodd" clip-rule="evenodd" d="M130.224 162.657C131.073 163.827 130.978 163.262 131.489 163.317L183.45 133.317C182.939 133.262 183.034 133.827 182.186 132.657L130.224 162.657Z" fill="#8BC5E4"/>
<path fill-rule="evenodd" clip-rule="evenodd" d="M131.489 163.317C131.572 163.324 131.635 163.315 131.68 163.292L183.642 133.292C183.597 133.315 183.534 133.324 183.45 133.317L131.489 163.317Z" fill="#8BC5E4"/>
<path fill-rule="evenodd" clip-rule="evenodd" d="M131.68 163.292C132.199 163.03 130.366 160.961 131.004 160.537L182.965 130.537C182.328 130.961 184.161 133.03 183.642 133.292L131.68 163.292Z" fill="#8BC5E4"/>
<path fill-rule="evenodd" clip-rule="evenodd" d="M131.004 160.537C131.437 160.237 131.74 160.232 130.96 159.682L182.922 129.682C183.701 130.232 183.398 130.237 182.965 130.537L131.004 160.537Z" fill="#8BC5E4"/>
<path fill-rule="evenodd" clip-rule="evenodd" d="M130.96 159.682C129.462 158.667 129.592 158.072 129.575 157.502L181.536 127.502C181.554 128.072 181.424 128.667 182.922 129.682L130.96 159.682Z" fill="#8BC5E4"/>
<path fill-rule="evenodd" clip-rule="evenodd" d="M129.575 157.502C129.565 157.119 129.61 156.947 129.681 156.882L181.642 126.882C181.571 126.947 181.527 127.119 181.536 127.502L129.575 157.502Z" fill="#8BC5E4"/>
<path fill-rule="evenodd" clip-rule="evenodd" d="M129.681 156.882C129.813 156.762 130.037 157.011 130.175 156.961L182.136 126.961C181.998 127.011 181.775 126.762 181.642 126.882L129.681 156.882Z" fill="#8BC5E4"/>
<path fill-rule="evenodd" clip-rule="evenodd" d="M130.174 156.961C130.227 156.942 130.267 156.878 130.285 156.732L182.246 126.732C182.229 126.878 182.189 126.942 182.136 126.961L130.174 156.961Z" fill="#8BC5E4"/>
<path fill-rule="evenodd" clip-rule="evenodd" d="M130.285 156.732C130.324 156.406 130.419 156.258 130.532 156.178L182.494 126.178C182.381 126.258 182.285 126.406 182.246 126.732L130.285 156.732Z" fill="#8BC5E4"/>
<path fill-rule="evenodd" clip-rule="evenodd" d="M130.532 156.179C130.646 156.099 130.776 156.089 130.886 156.039L182.847 126.039C182.738 126.089 182.607 126.099 182.494 126.179L130.532 156.179Z" fill="#8BC5E4"/>
<path fill-rule="evenodd" clip-rule="evenodd" d="M130.885 156.039C131.008 155.983 131.104 155.875 131.116 155.562L183.078 125.562C183.065 125.875 182.97 125.983 182.847 126.039L130.885 156.039Z" fill="#8BC5E4"/>
<path fill-rule="evenodd" clip-rule="evenodd" d="M131.116 155.562C131.168 154.342 131.021 154.717 130.943 153.662L182.905 123.662C182.983 124.717 183.13 124.342 183.078 125.562L131.116 155.562Z" fill="#8BC5E4"/>
<path fill-rule="evenodd" clip-rule="evenodd" d="M130.943 153.662C130.865 152.477 130.38 152.857 130.224 152.147L182.186 122.147C182.342 122.857 182.827 122.477 182.904 123.662L130.943 153.662Z" fill="#8BC5E4"/>
<path fill-rule="evenodd" clip-rule="evenodd" d="M130.224 152.147C130.112 151.572 130.198 151.372 130.224 151.257L182.186 121.257C182.16 121.372 182.073 121.572 182.186 122.147L130.224 152.147Z" fill="#8BC5E4"/>
<path fill-rule="evenodd" clip-rule="evenodd" d="M130.224 151.257C130.06 150.562 129.878 149.877 129.679 149.212L181.64 119.212C181.839 119.877 182.021 120.562 182.186 121.257L130.224 151.257Z" fill="#8BC5E4"/>
<path fill-rule="evenodd" clip-rule="evenodd" d="M129.679 149.212C141.673 169.107 149.164 191.862 149.164 212.322L201.126 182.322C201.126 161.862 193.635 139.107 181.64 119.212L129.679 149.212Z" fill="#8BC5E4"/>
<path fill-rule="evenodd" clip-rule="evenodd" d="M149.164 212.322C149.164 225.962 145.839 236.782 140.062 244.277L192.024 214.277C197.8 206.782 201.126 195.962 201.126 182.322L149.164 212.322Z" fill="#8BC5E4"/>
<path fill-rule="evenodd" clip-rule="evenodd" d="M138.841 243.752C137.889 243.232 136.676 242.382 135.308 241.032L187.269 211.032C188.638 212.382 189.85 213.232 190.803 213.752L138.841 243.752Z" fill="#8BC5E4"/>
<path fill-rule="evenodd" clip-rule="evenodd" d="M135.308 241.032C134.58 240.322 132.978 239.917 132.978 239.297L184.94 209.297C184.94 209.917 186.542 210.322 187.269 211.032L135.308 241.032Z" fill="#8BC5E4"/>
<path fill-rule="evenodd" clip-rule="evenodd" d="M132.978 239.297C132.978 238.747 132.623 238.842 132.216 238.207L184.178 208.207C184.585 208.842 184.94 208.747 184.94 209.297L132.978 239.297Z" fill="#8BC5E4"/>
<path fill-rule="evenodd" clip-rule="evenodd" d="M132.216 238.207C131.894 237.702 131.571 236.994 131.328 237.083L183.29 207.083C183.533 206.994 183.855 207.702 184.178 208.207L132.216 238.207Z" fill="#8BC5E4"/>
<path fill-rule="evenodd" clip-rule="evenodd" d="M131.329 237.083C131.252 237.111 131.183 237.219 131.125 237.437L183.087 207.437C183.145 207.219 183.213 207.111 183.29 207.083L131.329 237.083Z" fill="#8BC5E4"/>
<path fill-rule="evenodd" clip-rule="evenodd" d="M131.125 237.437C131.117 237.469 131.107 237.492 131.095 237.507L183.056 207.507C183.069 207.492 183.079 207.469 183.087 207.437L131.125 237.437Z" fill="#8BC5E4"/>
<path fill-rule="evenodd" clip-rule="evenodd" d="M131.095 237.507C130.95 237.685 130.484 236.841 129.782 236.132L181.744 206.132C182.445 206.841 182.912 207.685 183.056 207.507L131.095 237.507Z" fill="#8BC5E4"/>
<path fill-rule="evenodd" clip-rule="evenodd" d="M129.782 236.132C129.012 235.357 128.198 235.427 127.6 234.352L179.562 204.352C180.159 205.427 180.973 205.357 181.744 206.132L129.782 236.132Z" fill="#8BC5E4"/>
<path fill-rule="evenodd" clip-rule="evenodd" d="M127.6 234.352C126.977 233.222 127.323 233.192 126.717 232.802L178.678 202.802C179.285 203.192 178.938 203.222 179.562 204.352L127.6 234.352Z" fill="#8BC5E4"/>
<path fill-rule="evenodd" clip-rule="evenodd" d="M126.717 232.802C125.453 231.982 125.669 231.647 125.764 230.522L177.726 200.522C177.631 201.647 177.414 201.982 178.678 202.802L126.717 232.802Z" fill="#8BC5E4"/>
<path fill-rule="evenodd" clip-rule="evenodd" d="M125.764 230.522C125.885 229.162 125.158 228.952 125.097 228.047L177.059 198.047C177.12 198.952 177.847 199.162 177.726 200.522L125.764 230.522Z" fill="#8BC5E4"/>
<path fill-rule="evenodd" clip-rule="evenodd" d="M125.097 228.047C125.019 226.912 124.621 227.192 124.387 226.617L176.349 196.617C176.583 197.192 176.981 196.912 177.059 198.047L125.097 228.047Z" fill="#8BC5E4"/>
<path fill-rule="evenodd" clip-rule="evenodd" d="M124.387 226.617C124.336 226.495 124.343 226.432 124.386 226.405L176.347 196.405C176.305 196.432 176.298 196.495 176.349 196.617L124.387 226.617Z" fill="#8BC5E4"/>
<path fill-rule="evenodd" clip-rule="evenodd" d="M124.386 226.405C124.514 226.324 124.959 226.567 125.097 226.505L177.058 196.505C176.921 196.567 176.475 196.324 176.347 196.405L124.386 226.405Z" fill="#8BC5E4"/>
<path fill-rule="evenodd" clip-rule="evenodd" d="M125.097 226.505C125.2 226.458 125.129 226.239 124.621 225.582L176.583 195.582C177.091 196.239 177.161 196.458 177.058 196.505L125.097 226.505Z" fill="#8BC5E4"/>
<path fill-rule="evenodd" clip-rule="evenodd" d="M124.621 225.582C122.95 223.407 122.794 223.247 121.581 221.847L173.543 191.847C174.755 193.247 174.911 193.407 176.583 195.582L124.621 225.582Z" fill="#8BC5E4"/>
<path fill-rule="evenodd" clip-rule="evenodd" d="M121.581 221.847C119.113 218.972 118.368 221.002 116.905 217.547L168.866 187.547C170.33 191.002 171.075 188.972 173.543 191.847L121.581 221.847Z" fill="#8BC5E4"/>
<path fill-rule="evenodd" clip-rule="evenodd" d="M116.905 217.547C116.229 215.927 115.805 216.322 115.354 215.592L167.316 185.592C167.766 186.322 168.191 185.927 168.866 187.547L116.905 217.547Z" fill="#8BC5E4"/>
<path fill-rule="evenodd" clip-rule="evenodd" d="M115.355 215.592C114.688 214.497 114.437 214.052 113.96 212.867L165.922 182.867C166.398 184.052 166.649 184.497 167.316 185.592L115.355 215.592Z" fill="#8BC5E4"/>
<path fill-rule="evenodd" clip-rule="evenodd" d="M113.96 212.867C113.649 212.077 113.311 212.152 112.8 211.757L164.761 181.757C165.272 182.152 165.61 182.077 165.922 182.867L113.96 212.867Z" fill="#8BC5E4"/>
<path fill-rule="evenodd" clip-rule="evenodd" d="M112.8 211.757C111.969 211.097 112.427 210.872 112.28 210.217L164.242 180.217C164.389 180.872 163.93 181.097 164.761 181.757L112.8 211.757Z" fill="#8BC5E4"/>
<path fill-rule="evenodd" clip-rule="evenodd" d="M112.28 210.217C112.055 209.217 112.306 208.862 111.96 208.462L163.921 178.462C164.268 178.862 164.016 179.217 164.242 180.217L112.28 210.217Z" fill="#8BC5E4"/>
<path fill-rule="evenodd" clip-rule="evenodd" d="M111.96 208.462C111.891 208.382 111.851 208.367 111.819 208.383L163.781 178.383C163.812 178.367 163.853 178.382 163.921 178.462L111.96 208.462Z" fill="#8BC5E4"/>
<path fill-rule="evenodd" clip-rule="evenodd" d="M111.819 208.383C111.772 208.407 111.742 208.501 111.664 208.549L163.626 178.549C163.704 178.501 163.733 178.407 163.781 178.383L111.819 208.383Z" fill="#8BC5E4"/>
<path fill-rule="evenodd" clip-rule="evenodd" d="M111.664 208.549C111.577 208.603 111.43 208.6 111.128 208.382L163.09 178.382C163.391 178.6 163.539 178.603 163.626 178.549L111.664 208.549Z" fill="#8BC5E4"/>
<path fill-rule="evenodd" clip-rule="evenodd" d="M111.128 208.382C110.609 208.012 110.782 207.312 110.306 206.647L162.267 176.647C162.744 177.312 162.57 178.012 163.09 178.382L111.128 208.382Z" fill="#8BC5E4"/>
<path fill-rule="evenodd" clip-rule="evenodd" d="M110.306 206.647C108.629 210.219 106.34 212.908 103.527 214.75L155.488 184.75C158.302 182.908 160.591 180.219 162.267 176.647L110.306 206.647Z" fill="#8BC5E4"/>
<path fill-rule="evenodd" clip-rule="evenodd" d="M103.527 214.75C99.3065 217.514 93.9067 218.373 87.6245 217.452L139.586 187.452C145.868 188.373 151.268 187.514 155.488 184.75L103.527 214.75Z" fill="#8BC5E4"/>
<path fill-rule="evenodd" clip-rule="evenodd" d="M87.6244 217.452C87.0009 216.812 86.386 216.177 85.7798 215.537L137.741 185.537C138.348 186.177 138.962 186.812 139.586 187.452L87.6244 217.452Z" fill="#8BC5E4"/>
<path fill-rule="evenodd" clip-rule="evenodd" d="M85.7798 215.537C85.7884 215.552 85.7884 215.552 85.7884 215.562L137.75 185.562C137.75 185.552 137.75 185.552 137.741 185.537L85.7798 215.537Z" fill="#8BC5E4"/>
<path fill-rule="evenodd" clip-rule="evenodd" d="M85.7886 215.562C85.9878 216.657 85.4422 216.872 86.3342 217.697L138.296 187.697C137.404 186.872 137.949 186.657 137.75 185.562L85.7886 215.562Z" fill="#8BC5E4"/>
<path fill-rule="evenodd" clip-rule="evenodd" d="M86.334 217.697C87.8149 219.072 90.3437 226.032 90.5862 226.792L142.548 196.792C142.305 196.032 139.776 189.072 138.296 187.697L86.334 217.697Z" fill="#8BC5E4"/>
<path fill-rule="evenodd" clip-rule="evenodd" d="M90.5862 226.792C91.1491 228.717 91.8852 228.982 92.4568 231.342L144.418 201.342C143.847 198.982 143.111 198.717 142.548 196.792L90.5862 226.792Z" fill="#8BC5E4"/>
<path fill-rule="evenodd" clip-rule="evenodd" d="M92.4568 231.342C93.7645 233.617 93.0284 233.402 94.0589 234.917L146.02 204.917C144.99 203.402 145.726 203.617 144.418 201.342L92.4568 231.342Z" fill="#8BC5E4"/>
<path fill-rule="evenodd" clip-rule="evenodd" d="M94.0591 234.917C95.4967 237.037 96.1895 239.627 97.4799 240.382L149.441 210.382C148.151 209.627 147.458 207.037 146.021 204.917L94.0591 234.917Z" fill="#8BC5E4"/>
<path fill-rule="evenodd" clip-rule="evenodd" d="M97.4797 240.382C98.086 240.742 98.0167 241.312 99.4283 242.877L151.39 212.877C149.978 211.312 150.047 210.742 149.441 210.382L97.4797 240.382Z" fill="#8BC5E4"/>
<path fill-rule="evenodd" clip-rule="evenodd" d="M99.4285 242.877C100.407 243.962 101.767 245.797 102.139 246.722L154.101 216.722C153.728 215.797 152.369 213.962 151.39 212.877L99.4285 242.877Z" fill="#8BC5E4"/>
<path fill-rule="evenodd" clip-rule="evenodd" d="M102.139 246.722C102.451 247.472 102.156 247.262 102.512 248.867L154.473 218.867C154.118 217.262 154.412 217.472 154.101 216.722L102.139 246.722Z" fill="#8BC5E4"/>
<path fill-rule="evenodd" clip-rule="evenodd" d="M102.511 248.867C103.005 251.112 102.659 251.292 102.728 254.472L154.69 224.472C154.62 221.292 154.967 221.112 154.473 218.867L102.511 248.867Z" fill="#8BC5E4"/>
<path fill-rule="evenodd" clip-rule="evenodd" d="M102.728 254.472C97.7743 253.072 92.5781 250.852 87.2261 247.762L139.188 217.762C144.54 220.852 149.736 223.072 154.689 224.472L102.728 254.472Z" fill="#8BC5E4"/>
<path fill-rule="evenodd" clip-rule="evenodd" d="M87.226 247.762C52.9833 227.992 25.2705 180.152 25.2705 140.792L77.232 110.792C77.232 150.152 104.945 197.992 139.187 217.762L87.226 247.762Z" fill="#8BC5E4"/>
<path fill-rule="evenodd" clip-rule="evenodd" d="M25.2705 140.792C25.2705 121.909 31.6623 108.445 42.0846 101.727L94.0462 71.7273C83.6238 78.4448 77.232 91.909 77.232 110.792L25.2705 140.792Z" fill="#8BC5E4"/>
<path fill-rule="evenodd" clip-rule="evenodd" d="M42.0847 101.727C44.0699 100.448 46.2014 99.4131 48.4627 98.6323L100.424 68.6323C98.1629 69.4131 96.0315 70.4479 94.0462 71.7274L42.0847 101.727Z" fill="#8BC5E4"/>
<path fill-rule="evenodd" clip-rule="evenodd" d="M127.037 146.717C127.384 146.877 128.302 148.397 129.332 149.742L181.294 119.742C180.263 118.397 179.345 116.877 178.999 116.717L127.037 146.717Z" fill="#8BC5E4"/>
<path fill-rule="evenodd" clip-rule="evenodd" d="M129.332 149.742C129.341 149.747 129.341 149.747 129.341 149.747L181.302 119.747C181.302 119.747 181.302 119.747 181.294 119.742L129.332 149.742Z" fill="#8BC5E4"/>
<path fill-rule="evenodd" clip-rule="evenodd" d="M129.341 149.747C129.592 150.162 129.834 150.582 130.086 151.007L182.047 121.007C181.796 120.582 181.553 120.162 181.302 119.747L129.341 149.747Z" fill="#8BC5E4"/>
<path fill-rule="evenodd" clip-rule="evenodd" d="M130.086 151.007C130.008 150.952 129.93 150.897 129.791 150.807L181.753 120.807C181.891 120.897 181.969 120.952 182.047 121.007L130.086 151.007Z" fill="#8BC5E4"/>
<path fill-rule="evenodd" clip-rule="evenodd" d="M129.791 150.807C126.362 148.547 126.994 147.702 126.916 147.087L178.877 117.087C178.955 117.702 178.323 118.547 181.753 120.807L129.791 150.807Z" fill="#8BC5E4"/>
<path fill-rule="evenodd" clip-rule="evenodd" d="M126.916 147.087C126.892 146.87 126.905 146.751 126.951 146.715L178.912 116.715C178.866 116.751 178.854 116.87 178.877 117.087L126.916 147.087Z" fill="#8BC5E4"/>
<path fill-rule="evenodd" clip-rule="evenodd" d="M126.951 146.715C126.972 146.698 127.001 146.7 127.037 146.717L178.999 116.717C178.963 116.7 178.934 116.698 178.912 116.715L126.951 146.715Z" fill="#8BC5E4"/>
<path fill-rule="evenodd" clip-rule="evenodd" d="M162.579 124.687C165.852 126.577 168.407 130.992 168.407 134.762L220.369 104.762C220.369 100.992 217.814 96.5773 214.54 94.6873L162.579 124.687Z" fill="#8BC5E4"/>
<path fill-rule="evenodd" clip-rule="evenodd" d="M168.407 310.322C168.407 312.132 167.819 313.41 166.844 314.042L218.806 284.042C219.78 283.41 220.369 282.132 220.369 280.322L168.407 310.322Z" fill="#8BC5E4"/>
<path fill-rule="evenodd" clip-rule="evenodd" d="M166.844 314.042C165.789 314.726 164.281 314.65 162.579 313.667L214.54 283.667C216.243 284.65 217.751 284.726 218.806 284.042L166.844 314.042Z" fill="#8BC5E4"/>
<path fill-rule="evenodd" clip-rule="evenodd" d="M10.6262 225.937C7.35263 224.047 4.79785 219.632 4.79785 215.862L56.7594 185.862C56.7594 189.632 59.3142 194.047 62.5877 195.937L10.6262 225.937Z" fill="#8BC5E4"/>
<path fill-rule="evenodd" clip-rule="evenodd" d="M4.79785 40.3022C4.79785 38.4926 5.38647 37.2141 6.36067 36.5828L58.3222 6.58276C57.348 7.2141 56.7594 8.49263 56.7594 10.3022L4.79785 40.3022Z" fill="#8BC5E4"/>
<path fill-rule="evenodd" clip-rule="evenodd" d="M6.3606 36.5828C7.41598 35.8988 8.92387 35.9744 10.6261 36.9572L62.5877 6.95725C60.8854 5.97445 59.3775 5.89884 58.3221 6.58278L6.3606 36.5828Z" fill="#8BC5E4"/>
<path fill-rule="evenodd" clip-rule="evenodd" d="M10.6261 31.4473C7.82016 29.8273 5.25967 29.6139 3.35547 30.5743L55.317 0.574294C57.2212 -0.386094 59.7817 -0.172686 62.5876 1.44731L10.6261 31.4473Z" fill="#8BC5E4"/>
<path fill-rule="evenodd" clip-rule="evenodd" d="M3.35552 30.5742C1.29264 31.6146 0 34.0326 0 37.5322L51.9615 7.53224C51.9615 4.03264 53.2542 1.61464 55.317 0.574219L3.35552 30.5742Z" fill="#8BC5E4"/>
<path fill-rule="evenodd" clip-rule="evenodd" d="M0 213.092C0 219.822 4.78046 228.072 10.6261 231.447L62.5877 201.447C56.742 198.072 51.9615 189.822 51.9615 183.092L0 213.092Z" fill="#8BC5E4"/>
<path fill-rule="evenodd" clip-rule="evenodd" d="M162.579 319.177C165.385 320.797 167.945 321.011 169.849 320.05L221.811 290.05C219.907 291.011 217.346 290.797 214.54 289.177L162.579 319.177Z" fill="#8BC5E4"/>
<path fill-rule="evenodd" clip-rule="evenodd" d="M169.85 320.05C171.912 319.01 173.205 316.592 173.205 313.092L225.167 283.092C225.167 286.592 223.874 289.01 221.811 290.05L169.85 320.05Z" fill="#8BC5E4"/>
<path fill-rule="evenodd" clip-rule="evenodd" d="M173.205 137.532C173.205 130.802 168.425 122.552 162.579 119.177L214.54 89.1772C220.386 92.5522 225.167 100.802 225.167 107.532L173.205 137.532Z" fill="#8BC5E4"/>
<path d="M86.923 160.167L70.7543 155.522V163.702C70.7543 168.122 71.4471 176.412 76.3315 186.922L101.515 172.602L86.923 160.167ZM103.187 177.287L78.5572 191.297C80.8002 195.382 83.684 199.737 87.3906 204.297C101.152 202.892 103.126 188.452 103.126 181.852L103.187 177.287ZM87.0529 149.462L91.9546 153.542L91.9026 157.252L101.394 165.122L101.446 161.422L109.188 167.862V187.352C109.188 204.152 99.3418 213.597 86.9749 212.247C73.0233 197.752 64.5276 177.747 64.5276 162.337V142.167L72.2785 144.672L72.3218 148.337L81.8221 151.432L81.7528 147.732L87.0529 149.462ZM87.2261 99.1223C50.0303 77.6473 19.832 94.9223 19.832 137.652C19.832 180.392 50.0303 232.537 87.2261 254.012C124.405 275.477 154.603 258.202 154.603 215.462C154.603 172.732 124.405 120.587 87.2261 99.1223ZM84.9831 104.617C85.009 105.122 84.9138 105.367 84.8099 105.597C83.6667 104.547 83.0692 103.922 82.3503 103.247C83.225 103.682 84.1084 104.142 84.9831 104.617ZM97.0035 113.147C97.6963 113.547 98.3025 113.967 98.4498 114.112C98.8395 114.497 100.779 116.017 100.433 116.757C100.101 117.471 96.7755 115.159 95.7776 114.465C95.7612 114.454 95.7455 114.443 95.7304 114.432C94.8038 113.807 94.5267 113.497 94.4574 112.457C94.4141 111.812 95.843 112.467 97.0035 113.147ZM108.894 124.752C109.102 124.872 109.301 125.007 109.5 125.172C109.457 125.697 110.072 126.612 108.305 126.812C107.976 126.862 107.006 127.372 108.669 127.912C109.067 128.032 111.059 128.722 112.263 130.067C112.644 130.487 112.93 130.992 113.501 130.792C113.735 130.717 113.804 130.167 113.432 129.412C113.155 128.822 112.912 128.312 112.228 127.837C111.795 127.537 111.683 126.742 111.674 126.717C113.475 128.517 117.26 132.522 118.68 134.872C119.356 135.982 118.031 134.687 117.043 134.187C114.359 132.837 114.714 131.792 113.969 132.002C113.345 132.172 114.237 132.517 113.718 133.067C113.458 133.317 112.912 132.352 112.661 132.657C111.96 133.522 113.016 136.272 111.986 137.787C111.163 138.972 110.297 139.412 108.305 138.922C106.452 138.472 105.837 137.177 105.863 139.602C105.889 141.017 104.356 141.712 103.429 140.797V140.787C101.741 139.122 101.472 138.217 102.096 137.627C102.78 136.982 100.727 135.217 102.13 135.617C103.386 135.972 104.174 135.487 102.433 134.722C101.386 134.257 101.013 134.472 99.2119 132.422C98.4411 131.537 98.112 131.477 97.653 130.682C97.1854 129.862 97.1421 129.347 95.3927 128.457C93.8598 127.672 94.8471 127.242 94.3621 126.252C93.8772 125.272 93.5914 125.117 93.9897 124.197C94.3708 123.337 95.1415 122.802 96.5359 122.757C97.3153 122.727 98.3718 123.187 99.0127 122.947C99.5583 122.752 100.19 122.777 100.996 123.252C101.009 123.26 101.022 123.268 101.035 123.276C101.697 123.668 102.34 124.049 103.308 124.117C103.949 124.157 104.105 124.417 104.694 123.847C105.101 123.452 105.482 123.882 106.313 124.352C106.885 124.672 107.067 124.297 107.153 123.837C107.742 124.227 108.314 124.407 108.894 124.752ZM121.477 137.877C122.343 139.067 123.201 140.272 124.032 141.482C123.426 141.372 122.11 140.472 121.443 139.467C120.88 138.612 120.992 138.027 121.477 137.877ZM48.4628 98.6323L48.5754 98.9873C48.5321 99.2723 48.5234 99.5273 48.7139 99.7773C49.4067 100.707 48.6446 100.147 48.6793 101.337C48.7399 102.832 48.0991 102.872 48.3329 103.607C48.7919 105.102 49.7272 103.632 50.2122 104.802C50.4113 105.277 50.6105 105.842 49.9783 105.837C48.9564 105.827 49.1902 106.662 49.1556 107.682C49.1036 109.072 49.9264 109.347 49.8571 109.947C49.7878 110.587 48.3935 109.702 48.6273 111.367C48.8092 112.692 50.0649 112.697 50.0563 115.202C50.0563 116.272 49.476 115.317 49.0344 115.872C48.0211 117.127 47.207 118.647 46.6441 118.932C45.7781 119.392 44.7216 119.452 44.6523 120.802C44.609 121.587 44.098 120.882 43.5005 121.617C42.6604 122.652 42.6604 122.672 42.6864 125.767C42.6951 126.922 42.2707 131.017 44.0807 131.862C45.3884 132.477 44.9034 132.947 45.7261 133.942C46.9299 135.417 46.4623 137.147 46.4623 138.387C46.4536 139.922 46.3843 139.472 46.6701 140.527C47.1897 142.517 47.9172 142.797 46.7827 143.212C45.5183 143.672 47.8046 145.612 48.6966 146.617C49.1643 147.137 49.2942 147.452 49.2249 148.422C49.1383 149.482 49.5626 150.097 50.0476 150.937C50.5672 151.837 51.5978 152.762 51.8922 152.762C52.1867 152.772 51.286 151.202 51.0522 150.827C50.2901 149.667 50.3767 149.387 50.3767 148.827C50.3767 148.177 49.9523 148.022 49.8398 146.887C49.7185 145.607 49.095 144.907 49.1643 143.997C49.2942 142.162 49.1036 142.412 48.7399 141.422C48.1077 139.727 49.1816 139.447 49.7358 139.637C50.9136 140.037 50.7664 141.542 50.7577 142.367C50.7144 144.742 51.1042 144.337 52.0914 145.747C53.0874 147.182 52.1607 147.557 52.7323 148.647C53.6676 150.417 53.0614 150.357 53.1653 150.737C53.5204 152.102 54.1526 151.847 54.4384 153.702C54.7155 155.412 56.2397 155.412 56.69 159.102C56.9671 161.422 54.525 159.942 56.5948 162.517C57.7726 163.977 57.3569 164.447 58.4914 164.972C60.1281 165.737 60.4139 166.242 60.8643 167.072C60.2061 163.162 59.8077 159.142 59.6605 154.967V135.197L86.6545 144.212L103.473 157.532C103.828 157.107 104.079 157.122 104.702 157.412C105.187 157.622 105.291 157.872 105.733 157.617C105.984 157.472 107.015 157.917 107.967 158.557C108.66 159.017 108.877 159.132 108.868 158.427C108.842 156.142 109.647 156.927 110.86 156.817C113.458 156.547 114.584 157.207 115.381 157.597C117.572 158.712 114.8 158.242 114.515 158.947C114.255 159.547 115.069 160.007 115.614 159.992C116.55 159.972 117.026 160.347 117.667 159.607C118.264 158.932 118.94 160.102 120.681 160.587C122.421 161.072 122.257 160.857 122.768 160.792C123.495 160.672 122.569 159.237 122.214 158.782C121.755 158.207 121.226 158.402 121.105 158.762C120.655 160.132 120.066 159.712 119.797 159.567C118.524 158.902 117.901 157.342 117.615 156.667C117.13 155.537 118.446 155.797 118.845 155.357C119.702 154.442 118.845 154.007 118.204 153.847C117 153.572 116.55 152.752 116.991 152.037C117.849 150.622 119.07 152.267 119.763 152.577C121.036 153.132 119.945 153.202 120.715 154.497C121.244 155.392 121.884 155.412 122.136 154.907C122.473 154.202 120.733 154.087 121.044 153.447C121.408 152.717 122.577 153.992 123.928 154.832C124.933 155.462 124.898 155.562 125.314 155.382C126.137 155.027 126.362 155.737 126.717 155.672C127.817 155.477 128.18 155.517 128.769 156.807C129.402 158.212 128.561 157.457 127.747 157.577C126.544 157.742 125.513 158.487 125.141 159.002C124.422 160.017 126.145 159.892 127.782 160.807C129.142 161.562 129.419 161.532 130.224 162.657C131.073 163.827 130.978 163.262 131.489 163.317C132.537 163.402 130.311 160.997 131.004 160.537C131.437 160.237 131.74 160.232 130.96 159.682C129.462 158.667 129.592 158.072 129.575 157.502C129.54 156.132 130.198 157.462 130.285 156.732C130.406 155.712 131.082 156.432 131.116 155.562C131.168 154.342 131.021 154.717 130.943 153.662C130.865 152.477 130.38 152.857 130.224 152.147C130.112 151.572 130.198 151.372 130.224 151.257C130.06 150.562 129.878 149.877 129.679 149.212C141.673 169.107 149.164 191.862 149.164 212.322C149.164 225.962 145.839 236.782 140.062 244.277L138.841 243.752C137.889 243.232 136.676 242.382 135.308 241.032C134.58 240.322 132.978 239.917 132.978 239.297C132.978 238.747 132.623 238.842 132.216 238.207C131.792 237.542 131.367 236.527 131.125 237.437C131.03 237.832 130.545 236.902 129.783 236.132C129.012 235.357 128.198 235.427 127.6 234.352C126.977 233.222 127.323 233.192 126.717 232.802C125.452 231.982 125.669 231.647 125.764 230.522C125.885 229.162 125.158 228.952 125.097 228.047C125.019 226.912 124.621 227.192 124.387 226.617C124.067 225.852 126.033 227.407 124.621 225.582C122.95 223.407 122.794 223.247 121.581 221.847C119.113 218.972 118.368 221.002 116.905 217.547C116.229 215.927 115.805 216.322 115.355 215.592C114.688 214.497 114.437 214.052 113.96 212.867C113.649 212.077 113.311 212.152 112.8 211.757C111.968 211.097 112.427 210.872 112.28 210.217C112.055 209.217 112.306 208.862 111.96 208.462C111.674 208.127 111.882 208.927 111.128 208.382C110.609 208.012 110.782 207.312 110.306 206.647C106.114 215.577 98.0947 218.987 87.6245 217.452C87.0009 216.812 86.386 216.177 85.7798 215.537C85.7885 215.552 85.7885 215.552 85.7885 215.562C85.9877 216.657 85.4421 216.872 86.3341 217.697C87.815 219.072 90.3438 226.032 90.5863 226.792C91.1492 228.717 91.8853 228.982 92.4569 231.342C93.7646 233.617 93.0285 233.402 94.059 234.917C95.4966 237.037 96.1894 239.627 97.4798 240.382C98.086 240.742 98.0168 241.312 99.4284 242.877C100.407 243.962 101.767 245.797 102.139 246.722C102.451 247.472 102.156 247.262 102.511 248.867C103.005 251.112 102.659 251.292 102.728 254.472C97.7743 253.072 92.5781 250.852 87.2261 247.762C52.9834 227.992 25.2706 180.152 25.2706 140.792C25.2706 118.312 34.3292 103.512 48.4628 98.6323ZM127.037 146.717C127.384 146.877 128.302 148.397 129.332 149.742C129.341 149.747 129.341 149.747 129.341 149.747C129.592 150.162 129.835 150.582 130.086 151.007C130.008 150.952 129.93 150.897 129.791 150.807C126.362 148.547 126.994 147.702 126.916 147.087C126.881 146.767 126.925 146.662 127.037 146.717ZM10.6261 36.9573L162.579 124.687C165.853 126.577 168.407 130.992 168.407 134.762V310.322C168.407 314.092 165.853 315.557 162.579 313.667L10.6261 225.937C7.35256 224.047 4.79778 219.632 4.79778 215.862V40.3023C4.79778 36.5323 7.35256 35.0673 10.6261 36.9573ZM10.6261 31.4473C4.78046 28.0723 0 30.8023 0 37.5323V213.092C0 219.822 4.78046 228.072 10.6261 231.447L162.579 319.177C168.425 322.552 173.205 319.822 173.205 313.092V137.532C173.205 130.802 168.425 122.552 162.579 119.177L10.6261 31.4473Z" fill="#8BC5E4"/>
<path fill-rule="evenodd" clip-rule="evenodd" d="M48.4628 98.6323L48.5754 98.9873C48.5321 99.2723 48.5234 99.5273 48.7139 99.7773C49.4067 100.707 48.6446 100.147 48.6793 101.337C48.7399 102.832 48.0991 102.872 48.3329 103.607C48.7919 105.102 49.7272 103.632 50.2122 104.802C50.4113 105.277 50.6105 105.842 49.9783 105.837C48.9564 105.827 49.1902 106.662 49.1556 107.682C49.1036 109.072 49.9264 109.347 49.8571 109.947C49.7878 110.587 48.3935 109.702 48.6273 111.367C48.8092 112.692 50.0649 112.697 50.0563 115.202C50.0563 116.272 49.476 115.317 49.0344 115.872C48.0211 117.127 47.207 118.647 46.6441 118.932C45.7781 119.392 44.7216 119.452 44.6523 120.802C44.609 121.587 44.098 120.882 43.5005 121.617C42.6604 122.652 42.6604 122.672 42.6864 125.767C42.6951 126.922 42.2707 131.017 44.0807 131.862C45.3884 132.477 44.9034 132.947 45.7261 133.942C46.9299 135.417 46.4623 137.147 46.4623 138.387C46.4536 139.922 46.3843 139.472 46.6701 140.527C47.1897 142.517 47.9172 142.797 46.7827 143.212C45.5183 143.672 47.8046 145.612 48.6966 146.617C49.1643 147.137 49.2942 147.452 49.2249 148.422C49.1383 149.482 49.5626 150.097 50.0476 150.937C50.5672 151.837 51.5978 152.762 51.8922 152.762C52.1867 152.772 51.286 151.202 51.0522 150.827C50.2901 149.667 50.3767 149.387 50.3767 148.827C50.3767 148.177 49.9523 148.022 49.8398 146.887C49.7185 145.607 49.095 144.907 49.1643 143.997C49.2942 142.162 49.1036 142.412 48.7399 141.422C48.1077 139.727 49.1816 139.447 49.7358 139.637C50.9136 140.037 50.7664 141.542 50.7577 142.367C50.7144 144.742 51.1042 144.337 52.0914 145.747C53.0874 147.182 52.1607 147.557 52.7323 148.647C53.6676 150.417 53.0614 150.357 53.1653 150.737C53.5204 152.102 54.1526 151.847 54.4384 153.702C54.7155 155.412 56.2397 155.412 56.69 159.102C56.9671 161.422 54.525 159.942 56.5948 162.517C57.7726 163.977 57.3569 164.447 58.4914 164.972C60.1281 165.737 60.4139 166.242 60.8643 167.072C60.2061 163.162 59.8077 159.142 59.6605 154.967V135.197L86.6545 144.212L103.473 157.532C103.828 157.107 104.079 157.122 104.702 157.412C105.187 157.622 105.291 157.872 105.733 157.617C105.984 157.472 107.015 157.917 107.967 158.557C108.66 159.017 108.877 159.132 108.868 158.427C108.842 156.142 109.647 156.927 110.86 156.817C113.458 156.547 114.584 157.207 115.381 157.597C117.572 158.712 114.8 158.242 114.515 158.947C114.255 159.547 115.069 160.007 115.614 159.992C116.55 159.972 117.026 160.347 117.667 159.607C118.264 158.932 118.94 160.102 120.681 160.587C122.421 161.072 122.257 160.857 122.768 160.792C123.495 160.672 122.569 159.237 122.214 158.782C121.755 158.207 121.226 158.402 121.105 158.762C120.655 160.132 120.066 159.712 119.797 159.567C118.524 158.902 117.901 157.342 117.615 156.667C117.13 155.537 118.446 155.797 118.845 155.357C119.702 154.442 118.845 154.007 118.204 153.847C117 153.572 116.55 152.752 116.991 152.037C117.849 150.622 119.07 152.267 119.763 152.577C121.036 153.132 119.945 153.202 120.715 154.497C121.244 155.392 121.884 155.412 122.136 154.907C122.473 154.202 120.733 154.087 121.044 153.447C121.408 152.717 122.577 153.992 123.928 154.832C124.933 155.462 124.898 155.562 125.314 155.382C126.137 155.027 126.362 155.737 126.717 155.672C127.817 155.477 128.18 155.517 128.769 156.807C129.402 158.212 128.561 157.457 127.747 157.577C126.544 157.742 125.513 158.487 125.141 159.002C124.422 160.017 126.145 159.892 127.782 160.807C129.142 161.562 129.419 161.532 130.224 162.657C131.073 163.827 130.978 163.262 131.489 163.317C132.537 163.402 130.311 160.997 131.004 160.537C131.437 160.237 131.74 160.232 130.96 159.682C129.462 158.667 129.592 158.072 129.575 157.502C129.54 156.132 130.198 157.462 130.285 156.732C130.406 155.712 131.082 156.432 131.116 155.562C131.168 154.342 131.021 154.717 130.943 153.662C130.865 152.477 130.38 152.857 130.224 152.147C130.112 151.572 130.198 151.372 130.224 151.257C130.06 150.562 129.878 149.877 129.679 149.212C141.673 169.107 149.164 191.862 149.164 212.322C149.164 225.962 145.839 236.782 140.062 244.277L138.841 243.752C137.889 243.232 136.676 242.382 135.308 241.032C134.58 240.322 132.978 239.917 132.978 239.297C132.978 238.747 132.623 238.842 132.216 238.207C131.792 237.542 131.367 236.527 131.125 237.437C131.03 237.832 130.545 236.902 129.783 236.132C129.012 235.357 128.198 235.427 127.6 234.352C126.977 233.222 127.323 233.192 126.717 232.802C125.452 231.982 125.669 231.647 125.764 230.522C125.885 229.162 125.158 228.952 125.097 228.047C125.019 226.912 124.621 227.192 124.387 226.617C124.067 225.852 126.033 227.407 124.621 225.582C122.95 223.407 122.794 223.247 121.581 221.847C119.113 218.972 118.368 221.002 116.905 217.547C116.229 215.927 115.805 216.322 115.355 215.592C114.688 214.497 114.437 214.052 113.96 212.867C113.649 212.077 113.311 212.152 112.8 211.757C111.968 211.097 112.427 210.872 112.28 210.217C112.055 209.217 112.306 208.862 111.96 208.462C111.674 208.127 111.882 208.927 111.128 208.382C110.609 208.012 110.782 207.312 110.306 206.647C106.114 215.577 98.0947 218.987 87.6245 217.452C87.0009 216.812 86.386 216.177 85.7798 215.537C85.7885 215.552 85.7885 215.552 85.7885 215.562C85.9877 216.657 85.4421 216.872 86.3341 217.697C87.815 219.072 90.3438 226.032 90.5863 226.792C91.1492 228.717 91.8853 228.982 92.4569 231.342C93.7646 233.617 93.0285 233.402 94.059 234.917C95.4966 237.037 96.1894 239.627 97.4798 240.382C98.086 240.742 98.0168 241.312 99.4284 242.877C100.407 243.962 101.767 245.797 102.139 246.722C102.451 247.472 102.156 247.262 102.511 248.867C103.005 251.112 102.659 251.292 102.728 254.472C97.7743 253.072 92.5781 250.852 87.2261 247.762C52.9834 227.992 25.2706 180.152 25.2706 140.792C25.2706 118.312 34.3292 103.512 48.4628 98.6323ZM91.9546 153.542L87.0529 149.462L81.7528 147.732L81.8221 151.432L72.3218 148.337L72.2785 144.672L64.5276 142.167V162.337C64.5276 177.747 73.0233 197.752 86.9749 212.247C99.3418 213.597 109.188 204.152 109.188 187.352V167.862L101.446 161.422L101.394 165.122L91.9026 157.252L91.9546 153.542Z" fill="white"/>
<path d="M86.923 160.167L70.7543 155.522V163.702C70.7543 168.122 71.4471 176.412 76.3315 186.922L101.515 172.602L86.923 160.167Z" fill="white"/>
<path d="M103.187 177.287L78.5572 191.297C80.8002 195.382 83.684 199.737 87.3906 204.297C101.152 202.892 103.126 188.452 103.126 181.852L103.187 177.287Z" fill="white"/>
<path d="M108.894 124.752C109.102 124.872 109.301 125.007 109.5 125.172C109.457 125.697 110.072 126.612 108.305 126.812C107.976 126.862 107.006 127.372 108.669 127.912C109.067 128.032 111.059 128.722 112.263 130.067C112.644 130.487 112.93 130.992 113.501 130.792C113.735 130.717 113.804 130.167 113.432 129.412C113.155 128.822 112.912 128.312 112.228 127.837C111.795 127.537 111.683 126.742 111.674 126.717C113.475 128.517 117.26 132.522 118.68 134.872C119.356 135.982 118.031 134.687 117.043 134.187C114.359 132.837 114.714 131.792 113.969 132.002C113.345 132.172 114.237 132.517 113.718 133.067C113.458 133.317 112.912 132.352 112.661 132.657C111.96 133.522 113.016 136.272 111.986 137.787C111.163 138.972 110.297 139.412 108.305 138.922C106.452 138.472 105.837 137.177 105.863 139.602C105.889 141.017 104.356 141.712 103.429 140.797V140.787C101.741 139.122 101.472 138.217 102.096 137.627C102.78 136.982 100.727 135.217 102.13 135.617C103.386 135.972 104.174 135.487 102.433 134.722C101.386 134.257 101.013 134.472 99.2119 132.422C98.4411 131.537 98.112 131.477 97.653 130.682C97.1854 129.862 97.1421 129.347 95.3927 128.457C93.8598 127.672 94.8471 127.242 94.3621 126.252C93.8772 125.272 93.5914 125.117 93.9897 124.197C94.3708 123.337 95.1415 122.802 96.5359 122.757C97.3153 122.727 98.3718 123.187 99.0127 122.947C99.5583 122.752 100.19 122.777 100.996 123.252L101.035 123.276C101.697 123.668 102.34 124.049 103.308 124.117C103.949 124.157 104.105 124.417 104.694 123.847C105.101 123.452 105.482 123.882 106.313 124.352C106.885 124.672 107.067 124.297 107.153 123.837C107.742 124.227 108.314 124.407 108.894 124.752Z" fill="white"/>
<path d="M97.0035 113.147C97.6963 113.547 98.3025 113.967 98.4498 114.112C98.8395 114.497 100.779 116.017 100.433 116.757C100.101 117.471 96.7755 115.159 95.7776 114.465L95.7304 114.432C94.8038 113.807 94.5267 113.497 94.4574 112.457C94.4141 111.812 95.843 112.467 97.0035 113.147Z" fill="white"/>
<path fill-rule="evenodd" clip-rule="evenodd" d="M10.6261 36.9573L162.579 124.687C165.853 126.577 168.407 130.992 168.407 134.762V310.322C168.407 314.092 165.853 315.557 162.579 313.667L10.6261 225.937C7.35256 224.047 4.79778 219.632 4.79778 215.862V40.3023C4.79778 36.5323 7.35256 35.0673 10.6261 36.9573ZM19.832 137.652C19.832 94.9223 50.0303 77.6473 87.2261 99.1223C124.405 120.587 154.603 172.732 154.603 215.462C154.603 258.202 124.405 275.477 87.2261 254.012C50.0303 232.537 19.832 180.392 19.832 137.652Z" fill="white"/>
<path d="M121.477 137.877C122.343 139.067 123.201 140.272 124.032 141.482C123.426 141.372 122.11 140.472 121.443 139.467C120.88 138.612 120.992 138.027 121.477 137.877Z" fill="white"/>
<path d="M127.037 146.717C127.384 146.877 128.302 148.397 129.332 149.742L129.341 149.747C129.592 150.162 129.835 150.582 130.086 151.007C130.008 150.952 129.93 150.897 129.791 150.807C126.362 148.547 126.994 147.702 126.916 147.087C126.881 146.767 126.925 146.662 127.037 146.717Z" fill="white"/>
</svg>
