<svg width="274" height="349" viewBox="0 0 274 349" fill="none" xmlns="http://www.w3.org/2000/svg">
<path fill-rule="evenodd" clip-rule="evenodd" d="M10.4614 36.9243L211.232 152.839L263.194 122.839L62.423 6.92432L10.4614 36.9243Z" fill="#8BC5E4"/>
<path fill-rule="evenodd" clip-rule="evenodd" d="M216.974 162.844V338.414L268.936 308.414V132.844L216.974 162.844Z" fill="#8BC5E4"/>
<path fill-rule="evenodd" clip-rule="evenodd" d="M211.232 341.799L10.4614 225.884L62.423 195.884L263.194 311.799L211.232 341.799Z" fill="#8BC5E4"/>
<path fill-rule="evenodd" clip-rule="evenodd" d="M4.72852 215.874V40.3042L56.69 10.3042V185.874L4.72852 215.874Z" fill="#8BC5E4"/>
<path fill-rule="evenodd" clip-rule="evenodd" d="M10.4614 36.9243L62.423 6.92432L10.4614 36.9243Z" fill="#8BC5E4"/>
<path fill-rule="evenodd" clip-rule="evenodd" d="M0 37.5742V213.144L51.9615 183.144V7.57422L0 37.5742Z" fill="#8BC5E4"/>
<path fill-rule="evenodd" clip-rule="evenodd" d="M10.4614 231.404L211.232 347.319L263.194 317.319L62.423 201.404L10.4614 231.404Z" fill="#8BC5E4"/>
<path fill-rule="evenodd" clip-rule="evenodd" d="M221.702 341.144V165.574L273.664 135.574V311.144L221.702 341.144Z" fill="#8BC5E4"/>
<path fill-rule="evenodd" clip-rule="evenodd" d="M211.232 147.319L10.4614 31.4043L62.423 1.4043L263.194 117.319L211.232 147.319Z" fill="#8BC5E4"/>
<path fill-rule="evenodd" clip-rule="evenodd" d="M10.4614 31.4043L62.423 1.4043L10.4614 31.4043Z" fill="#8BC5E4"/>
<path fill-rule="evenodd" clip-rule="evenodd" d="M127.037 213.139L178.999 183.139L127.037 213.139Z" fill="#8BC5E4"/>
<path fill-rule="evenodd" clip-rule="evenodd" d="M116.931 207.304L168.892 177.304L116.931 207.304Z" fill="#8BC5E4"/>
<path fill-rule="evenodd" clip-rule="evenodd" d="M98.8567 196.869L150.818 166.869L98.8567 196.869Z" fill="#8BC5E4"/>
<path fill-rule="evenodd" clip-rule="evenodd" d="M104.841 201.544V203.604L156.803 173.604V171.544L104.841 201.544Z" fill="#8BC5E4"/>
<path fill-rule="evenodd" clip-rule="evenodd" d="M107.353 203.334V211.884L159.314 181.884V173.334L107.353 203.334Z" fill="#8BC5E4"/>
<path fill-rule="evenodd" clip-rule="evenodd" d="M107.353 211.884L109.292 213.004L161.254 183.004L159.314 181.884L107.353 211.884Z" fill="#8BC5E4"/>
<path fill-rule="evenodd" clip-rule="evenodd" d="M109.292 213.004V201.114L161.254 171.114V183.004L109.292 213.004Z" fill="#8BC5E4"/>
<path fill-rule="evenodd" clip-rule="evenodd" d="M109.292 201.114L107.716 200.204L159.678 170.204L161.254 171.114L109.292 201.114Z" fill="#8BC5E4"/>
<path fill-rule="evenodd" clip-rule="evenodd" d="M107.716 200.204L159.678 170.204L107.716 200.204Z" fill="#8BC5E4"/>
<path fill-rule="evenodd" clip-rule="evenodd" d="M116.931 205.424L168.892 175.424L116.931 205.424Z" fill="#8BC5E4"/>
<path fill-rule="evenodd" clip-rule="evenodd" d="M131.939 198.439L183.9 168.439L131.939 198.439Z" fill="#8BC5E4"/>
<path fill-rule="evenodd" clip-rule="evenodd" d="M114.922 188.614L166.883 158.614L114.922 188.614Z" fill="#8BC5E4"/>
<path fill-rule="evenodd" clip-rule="evenodd" d="M105.707 183.294L157.669 153.294L105.707 183.294Z" fill="#8BC5E4"/>
<path fill-rule="evenodd" clip-rule="evenodd" d="M88.9841 173.639L140.946 143.639L88.9841 173.639Z" fill="#8BC5E4"/>
<path fill-rule="evenodd" clip-rule="evenodd" d="M120.611 193.119V195.179L172.573 165.179V163.119L120.611 193.119Z" fill="#8BC5E4"/>
<path fill-rule="evenodd" clip-rule="evenodd" d="M123.123 194.909V203.469L175.085 173.469V164.909L123.123 194.909Z" fill="#8BC5E4"/>
<path fill-rule="evenodd" clip-rule="evenodd" d="M123.123 203.469L125.072 204.594L177.033 174.594L175.085 173.469L123.123 203.469Z" fill="#8BC5E4"/>
<path fill-rule="evenodd" clip-rule="evenodd" d="M125.071 204.594V192.694L177.033 162.694V174.594L125.071 204.594Z" fill="#8BC5E4"/>
<path fill-rule="evenodd" clip-rule="evenodd" d="M125.071 192.694L123.495 191.784L175.457 161.784L177.033 162.694L125.071 192.694Z" fill="#8BC5E4"/>
<path fill-rule="evenodd" clip-rule="evenodd" d="M123.495 191.784L175.457 161.784L123.495 191.784Z" fill="#8BC5E4"/>
<path fill-rule="evenodd" clip-rule="evenodd" d="M94.6133 178.109V180.169L146.575 150.169V148.109L94.6133 178.109Z" fill="#8BC5E4"/>
<path fill-rule="evenodd" clip-rule="evenodd" d="M97.1248 179.899V188.459L149.086 158.459V149.899L97.1248 179.899Z" fill="#8BC5E4"/>
<path fill-rule="evenodd" clip-rule="evenodd" d="M97.1248 188.459L99.0733 189.584L151.035 159.584L149.086 158.459L97.1248 188.459Z" fill="#8BC5E4"/>
<path fill-rule="evenodd" clip-rule="evenodd" d="M99.0732 189.584V177.684L151.035 147.684V159.584L99.0732 189.584Z" fill="#8BC5E4"/>
<path fill-rule="evenodd" clip-rule="evenodd" d="M99.0732 177.684L97.4971 176.774L149.459 146.774L151.035 147.684L99.0732 177.684Z" fill="#8BC5E4"/>
<path fill-rule="evenodd" clip-rule="evenodd" d="M97.4971 176.774L149.459 146.774L97.4971 176.774Z" fill="#8BC5E4"/>
<path fill-rule="evenodd" clip-rule="evenodd" d="M114.922 186.734L166.883 156.734L114.922 186.734Z" fill="#8BC5E4"/>
<path fill-rule="evenodd" clip-rule="evenodd" d="M105.707 181.414L157.669 151.414L105.707 181.414Z" fill="#8BC5E4"/>
<path fill-rule="evenodd" clip-rule="evenodd" d="M48.6965 134.479L100.658 104.479L48.6965 134.479Z" fill="#8BC5E4"/>
<path fill-rule="evenodd" clip-rule="evenodd" d="M117.173 172.214L169.135 142.214L117.173 172.214Z" fill="#8BC5E4"/>
<path fill-rule="evenodd" clip-rule="evenodd" d="M99.1426 161.804L151.104 131.804L99.1426 161.804Z" fill="#8BC5E4"/>
<path fill-rule="evenodd" clip-rule="evenodd" d="M105.534 166.714V168.774L157.495 138.774V136.714L105.534 166.714Z" fill="#8BC5E4"/>
<path fill-rule="evenodd" clip-rule="evenodd" d="M108.054 168.509V177.059L160.015 147.059V138.509L108.054 168.509Z" fill="#8BC5E4"/>
<path fill-rule="evenodd" clip-rule="evenodd" d="M108.054 177.059L109.994 178.179L161.955 148.179L160.015 147.059L108.054 177.059Z" fill="#8BC5E4"/>
<path fill-rule="evenodd" clip-rule="evenodd" d="M109.994 178.179V166.289L161.955 136.289V148.179L109.994 178.179Z" fill="#8BC5E4"/>
<path fill-rule="evenodd" clip-rule="evenodd" d="M109.994 166.289L108.418 165.379L160.379 135.379L161.955 136.289L109.994 166.289Z" fill="#8BC5E4"/>
<path fill-rule="evenodd" clip-rule="evenodd" d="M108.418 165.379L160.379 135.379L108.418 165.379Z" fill="#8BC5E4"/>
<path fill-rule="evenodd" clip-rule="evenodd" d="M117.173 170.334L169.135 140.334L117.173 170.334Z" fill="#8BC5E4"/>
<path fill-rule="evenodd" clip-rule="evenodd" d="M123.807 177.264V179.324L175.768 149.324V147.264L123.807 177.264Z" fill="#8BC5E4"/>
<path fill-rule="evenodd" clip-rule="evenodd" d="M126.318 179.054V187.604L178.28 157.604V149.054L126.318 179.054Z" fill="#8BC5E4"/>
<path fill-rule="evenodd" clip-rule="evenodd" d="M126.318 187.604L128.258 188.724L180.22 158.724L178.28 157.604L126.318 187.604Z" fill="#8BC5E4"/>
<path fill-rule="evenodd" clip-rule="evenodd" d="M128.258 188.724V181.784L180.22 151.784V158.724L128.258 188.724Z" fill="#8BC5E4"/>
<path fill-rule="evenodd" clip-rule="evenodd" d="M111.336 163.564L163.298 133.564L111.336 163.564Z" fill="#8BC5E4"/>
<path fill-rule="evenodd" clip-rule="evenodd" d="M95.5139 156.269L48.6965 129.239L100.658 99.2393L147.475 126.269L95.5139 156.269Z" fill="#8BC5E4"/>
<path fill-rule="evenodd" clip-rule="evenodd" d="M48.6965 180.069L95.5139 207.099L147.475 177.099L100.658 150.069L48.6965 180.069Z" fill="#8BC5E4"/>
<path fill-rule="evenodd" clip-rule="evenodd" d="M127.158 225.369L173.205 251.954L225.166 221.954L179.12 195.369L127.158 225.369Z" fill="#8BC5E4"/>
<path fill-rule="evenodd" clip-rule="evenodd" d="M173.205 201.124L127.158 174.539L179.12 144.539L225.166 171.124L173.205 201.124Z" fill="#8BC5E4"/>
<path fill-rule="evenodd" clip-rule="evenodd" d="M111.336 159.394L163.298 129.394L111.336 159.394Z" fill="#8BC5E4"/>
<path fill-rule="evenodd" clip-rule="evenodd" d="M211.232 152.839C214.454 154.699 216.974 159.084 216.974 162.844L268.936 132.844C268.936 129.084 266.416 124.699 263.194 122.839L211.232 152.839Z" fill="#8BC5E4"/>
<path fill-rule="evenodd" clip-rule="evenodd" d="M216.974 338.414C216.974 340.219 216.393 341.5 215.433 342.138L267.395 312.138C268.355 311.5 268.935 310.219 268.935 308.414L216.974 338.414Z" fill="#8BC5E4"/>
<path fill-rule="evenodd" clip-rule="evenodd" d="M215.433 342.138C214.393 342.829 212.908 342.767 211.232 341.799L263.194 311.799C264.869 312.767 266.355 312.829 267.395 312.138L215.433 342.138Z" fill="#8BC5E4"/>
<path fill-rule="evenodd" clip-rule="evenodd" d="M10.4616 225.884C7.24865 224.029 4.72852 219.634 4.72852 215.874L56.69 185.874C56.69 189.634 59.2102 194.029 62.4231 195.884L10.4616 225.884Z" fill="#8BC5E4"/>
<path fill-rule="evenodd" clip-rule="evenodd" d="M4.72852 40.3042C4.72852 38.4994 5.30915 37.221 6.26835 36.5847L58.2299 6.58472C57.2707 7.22102 56.69 8.49936 56.69 10.3042L4.72852 40.3042Z" fill="#8BC5E4"/>
<path fill-rule="evenodd" clip-rule="evenodd" d="M6.26855 36.5848C7.30768 35.8954 8.79108 35.9596 10.4618 36.9242L62.4233 6.92421C60.7526 5.95961 59.2692 5.89544 58.2301 6.58477L6.26855 36.5848Z" fill="#8BC5E4"/>
<path fill-rule="evenodd" clip-rule="evenodd" d="M10.4614 31.4042C7.70116 29.8106 5.18041 29.6202 3.30518 30.5962L55.2667 0.596169C57.1419 -0.379836 59.6627 -0.189372 62.4229 1.40423L10.4614 31.4042Z" fill="#8BC5E4"/>
<path fill-rule="evenodd" clip-rule="evenodd" d="M3.3054 30.5962C1.2739 31.6535 0 34.0798 0 37.5742L51.9615 7.57425C51.9615 4.07985 53.2354 1.65353 55.2669 0.596191L3.3054 30.5962Z" fill="#8BC5E4"/>
<path fill-rule="evenodd" clip-rule="evenodd" d="M0 213.144C0 219.864 4.71118 228.084 10.4616 231.404L62.4231 201.404C56.6727 198.084 51.9615 189.864 51.9615 183.144L0 213.144Z" fill="#8BC5E4"/>
<path fill-rule="evenodd" clip-rule="evenodd" d="M211.232 347.319C213.997 348.915 216.52 349.105 218.396 348.127L270.358 318.127C268.481 319.105 265.958 318.915 263.194 317.319L211.232 347.319Z" fill="#8BC5E4"/>
<path fill-rule="evenodd" clip-rule="evenodd" d="M218.396 348.127C220.429 347.068 221.703 344.639 221.703 341.144L273.664 311.144C273.664 314.639 272.39 317.068 270.358 318.127L218.396 348.127Z" fill="#8BC5E4"/>
<path fill-rule="evenodd" clip-rule="evenodd" d="M221.703 165.574C221.703 158.854 216.991 150.644 211.232 147.319L263.194 117.319C268.953 120.644 273.664 128.854 273.664 135.574L221.703 165.574Z" fill="#8BC5E4"/>
<path fill-rule="evenodd" clip-rule="evenodd" d="M127.037 213.139C127.271 213.274 127.479 213.484 127.661 213.769L179.622 183.769C179.44 183.484 179.232 183.274 178.999 183.139L127.037 213.139Z" fill="#8BC5E4"/>
<path fill-rule="evenodd" clip-rule="evenodd" d="M127.661 213.769C127.843 214.044 127.999 214.484 128.12 215.074L180.082 185.074C179.96 184.484 179.805 184.044 179.623 183.769L127.661 213.769Z" fill="#8BC5E4"/>
<path fill-rule="evenodd" clip-rule="evenodd" d="M128.12 215.074C128.241 215.664 128.302 216.649 128.302 218.039L180.264 188.039C180.264 186.649 180.203 185.664 180.082 185.074L128.12 215.074Z" fill="#8BC5E4"/>
<path fill-rule="evenodd" clip-rule="evenodd" d="M128.302 218.039C128.302 218.559 128.284 218.999 128.267 219.389L180.229 189.389C180.246 188.999 180.263 188.559 180.263 188.039L128.302 218.039Z" fill="#8BC5E4"/>
<path fill-rule="evenodd" clip-rule="evenodd" d="M128.267 219.389C128.111 219.489 127.953 219.585 127.793 219.677L179.754 189.677C179.914 189.585 180.072 189.489 180.228 189.389L128.267 219.389Z" fill="#8BC5E4"/>
<path fill-rule="evenodd" clip-rule="evenodd" d="M127.793 219.677C127.287 219.97 126.759 220.226 126.206 220.439L178.168 190.439C178.72 190.226 179.248 189.97 179.755 189.677L127.793 219.677Z" fill="#8BC5E4"/>
<path fill-rule="evenodd" clip-rule="evenodd" d="M126.206 220.439C126.111 220.194 126.033 219.909 125.955 219.554L177.917 189.554C177.995 189.909 178.072 190.194 178.168 190.439L126.206 220.439Z" fill="#8BC5E4"/>
<path fill-rule="evenodd" clip-rule="evenodd" d="M125.954 219.554C125.833 218.964 125.781 217.974 125.781 216.584L177.743 186.584C177.743 187.974 177.795 188.964 177.916 189.554L125.954 219.554Z" fill="#8BC5E4"/>
<path fill-rule="evenodd" clip-rule="evenodd" d="M125.781 216.584C125.781 215.194 125.842 214.239 125.98 213.739L177.942 183.739C177.803 184.239 177.743 185.194 177.743 186.584L125.781 216.584Z" fill="#8BC5E4"/>
<path fill-rule="evenodd" clip-rule="evenodd" d="M125.98 213.739C126.072 213.396 126.19 213.169 126.341 213.075L178.303 183.075C178.152 183.169 178.033 183.396 177.942 183.739L125.98 213.739Z" fill="#8BC5E4"/>
<path fill-rule="evenodd" clip-rule="evenodd" d="M126.342 213.075C126.362 213.062 126.384 213.052 126.405 213.044L178.367 183.044C178.345 183.052 178.324 183.062 178.303 183.075L126.342 213.075Z" fill="#8BC5E4"/>
<path fill-rule="evenodd" clip-rule="evenodd" d="M126.405 213.044C126.596 212.974 126.804 213.004 127.037 213.139L178.999 183.139C178.765 183.004 178.557 182.974 178.367 183.044L126.405 213.044Z" fill="#8BC5E4"/>
<path fill-rule="evenodd" clip-rule="evenodd" d="M116.931 207.304C117.173 207.444 117.372 207.649 117.554 207.934L169.516 177.934C169.334 177.649 169.135 177.444 168.892 177.304L116.931 207.304Z" fill="#8BC5E4"/>
<path fill-rule="evenodd" clip-rule="evenodd" d="M117.554 207.934C117.745 208.214 117.892 208.649 118.013 209.239L169.975 179.239C169.853 178.649 169.706 178.214 169.516 177.934L117.554 207.934Z" fill="#8BC5E4"/>
<path fill-rule="evenodd" clip-rule="evenodd" d="M118.013 209.239C118.134 209.829 118.195 210.814 118.195 212.204L170.157 182.204C170.157 180.814 170.096 179.829 169.975 179.239L118.013 209.239Z" fill="#8BC5E4"/>
<path fill-rule="evenodd" clip-rule="evenodd" d="M118.195 212.204C118.195 213.594 118.126 214.544 117.996 215.049L169.957 185.049C170.087 184.544 170.157 183.594 170.157 182.204L118.195 212.204Z" fill="#8BC5E4"/>
<path fill-rule="evenodd" clip-rule="evenodd" d="M117.996 215.049C117.905 215.393 117.78 215.616 117.627 215.715L169.588 185.715C169.741 185.616 169.866 185.393 169.958 185.049L117.996 215.049Z" fill="#8BC5E4"/>
<path fill-rule="evenodd" clip-rule="evenodd" d="M117.627 215.715C117.606 215.729 117.585 215.74 117.563 215.749L169.525 185.749C169.546 185.74 169.568 185.729 169.588 185.715L117.627 215.715Z" fill="#8BC5E4"/>
<path fill-rule="evenodd" clip-rule="evenodd" d="M117.563 215.749C117.381 215.814 117.173 215.774 116.931 215.634L168.892 185.634C169.135 185.774 169.343 185.814 169.524 185.749L117.563 215.749Z" fill="#8BC5E4"/>
<path fill-rule="evenodd" clip-rule="evenodd" d="M116.931 215.634C116.697 215.499 116.489 215.299 116.299 215.019L168.26 185.019C168.451 185.299 168.658 185.499 168.892 185.634L116.931 215.634Z" fill="#8BC5E4"/>
<path fill-rule="evenodd" clip-rule="evenodd" d="M116.299 215.019C116.125 214.739 115.978 214.314 115.857 213.724L167.818 183.724C167.94 184.314 168.087 184.739 168.26 185.019L116.299 215.019Z" fill="#8BC5E4"/>
<path fill-rule="evenodd" clip-rule="evenodd" d="M115.857 213.724C115.736 213.134 115.675 212.139 115.675 210.749L167.637 180.749C167.637 182.139 167.697 183.134 167.818 183.724L115.857 213.724Z" fill="#8BC5E4"/>
<path fill-rule="evenodd" clip-rule="evenodd" d="M115.675 210.749C115.675 209.359 115.744 208.409 115.874 207.904L167.836 177.904C167.706 178.409 167.637 179.359 167.637 180.749L115.675 210.749Z" fill="#8BC5E4"/>
<path fill-rule="evenodd" clip-rule="evenodd" d="M115.874 207.904C115.966 207.561 116.084 207.334 116.235 207.24L168.197 177.24C168.046 177.334 167.927 177.561 167.836 177.904L115.874 207.904Z" fill="#8BC5E4"/>
<path fill-rule="evenodd" clip-rule="evenodd" d="M116.235 207.24C116.255 207.227 116.277 207.217 116.298 207.209L168.26 177.209C168.238 177.217 168.217 177.227 168.196 177.24L116.235 207.24Z" fill="#8BC5E4"/>
<path fill-rule="evenodd" clip-rule="evenodd" d="M116.299 207.209C116.489 207.139 116.697 207.169 116.931 207.304L168.892 177.304C168.658 177.169 168.451 177.139 168.26 177.209L116.299 207.209Z" fill="#8BC5E4"/>
<path fill-rule="evenodd" clip-rule="evenodd" d="M98.8567 196.869C99.0905 197.004 99.2984 197.214 99.4802 197.499L151.442 167.499C151.26 167.214 151.052 167.004 150.818 166.869L98.8567 196.869Z" fill="#8BC5E4"/>
<path fill-rule="evenodd" clip-rule="evenodd" d="M99.4802 197.499C99.6621 197.774 99.8093 198.209 99.9306 198.799L151.892 168.799C151.771 168.209 151.624 167.774 151.442 167.499L99.4802 197.499Z" fill="#8BC5E4"/>
<path fill-rule="evenodd" clip-rule="evenodd" d="M99.9307 198.799C100.052 199.389 100.113 200.374 100.113 201.764L152.074 171.764C152.074 170.374 152.013 169.389 151.892 168.799L99.9307 198.799Z" fill="#8BC5E4"/>
<path fill-rule="evenodd" clip-rule="evenodd" d="M100.113 201.764C100.113 203.154 100.043 204.104 99.9133 204.609L151.875 174.609C152.005 174.104 152.074 173.154 152.074 171.764L100.113 201.764Z" fill="#8BC5E4"/>
<path fill-rule="evenodd" clip-rule="evenodd" d="M99.9133 204.609C99.8218 204.953 99.7035 205.18 99.5466 205.277L151.508 175.277C151.665 175.18 151.783 174.953 151.875 174.609L99.9133 204.609Z" fill="#8BC5E4"/>
<path fill-rule="evenodd" clip-rule="evenodd" d="M99.5466 205.277C99.5252 205.29 99.5031 205.301 99.4802 205.309L151.442 175.309C151.465 175.301 151.487 175.29 151.508 175.277L99.5466 205.277Z" fill="#8BC5E4"/>
<path fill-rule="evenodd" clip-rule="evenodd" d="M99.4802 205.309C99.2984 205.374 99.0905 205.334 98.8567 205.199L150.818 175.199C151.052 175.334 151.26 175.374 151.442 175.309L99.4802 205.309Z" fill="#8BC5E4"/>
<path fill-rule="evenodd" clip-rule="evenodd" d="M98.8568 205.199C98.6143 205.059 98.4065 204.859 98.2246 204.584L150.186 174.584C150.368 174.859 150.576 175.059 150.818 175.199L98.8568 205.199Z" fill="#8BC5E4"/>
<path fill-rule="evenodd" clip-rule="evenodd" d="M98.2245 204.584C98.0426 204.299 97.8954 203.874 97.7742 203.284L149.736 173.284C149.857 173.874 150.004 174.299 150.186 174.584L98.2245 204.584Z" fill="#8BC5E4"/>
<path fill-rule="evenodd" clip-rule="evenodd" d="M97.7741 203.284C97.6529 202.694 97.5923 201.699 97.5923 200.309L149.554 170.309C149.554 171.699 149.614 172.694 149.736 173.284L97.7741 203.284Z" fill="#8BC5E4"/>
<path fill-rule="evenodd" clip-rule="evenodd" d="M97.5923 200.309C97.5923 198.919 97.6616 197.969 97.7915 197.464L149.753 167.464C149.623 167.969 149.554 168.919 149.554 170.309L97.5923 200.309Z" fill="#8BC5E4"/>
<path fill-rule="evenodd" clip-rule="evenodd" d="M97.7915 197.464C97.8788 197.137 97.9905 196.915 98.137 196.817L150.099 166.817C149.952 166.915 149.84 167.137 149.753 167.464L97.7915 197.464Z" fill="#8BC5E4"/>
<path fill-rule="evenodd" clip-rule="evenodd" d="M98.137 196.817C98.1649 196.798 98.194 196.784 98.2245 196.774L150.186 166.774C150.156 166.784 150.126 166.798 150.098 166.817L98.137 196.817Z" fill="#8BC5E4"/>
<path fill-rule="evenodd" clip-rule="evenodd" d="M98.2246 196.774C98.4065 196.699 98.6143 196.729 98.8568 196.869L150.818 166.869C150.576 166.729 150.368 166.699 150.186 166.774L98.2246 196.774Z" fill="#8BC5E4"/>
<path fill-rule="evenodd" clip-rule="evenodd" d="M107.716 200.204C107.552 200.657 107.272 200.996 106.889 201.221L158.85 171.221C159.234 170.996 159.513 170.657 159.678 170.204L107.716 200.204Z" fill="#8BC5E4"/>
<path fill-rule="evenodd" clip-rule="evenodd" d="M106.889 201.221C106.768 201.292 106.636 201.351 106.495 201.399L158.457 171.399C158.598 171.351 158.729 171.292 158.85 171.221L106.889 201.221Z" fill="#8BC5E4"/>
<path fill-rule="evenodd" clip-rule="evenodd" d="M106.495 201.399C105.898 201.594 105.343 201.644 104.841 201.544L156.803 171.544C157.305 171.644 157.859 171.594 158.457 171.399L106.495 201.399Z" fill="#8BC5E4"/>
<path fill-rule="evenodd" clip-rule="evenodd" d="M104.841 203.604C105.802 203.789 106.642 203.694 107.353 203.334L159.314 173.334C158.604 173.694 157.764 173.789 156.803 173.604L104.841 203.604Z" fill="#8BC5E4"/>
<path fill-rule="evenodd" clip-rule="evenodd" d="M116.931 205.424C116.109 204.95 115.433 204.849 114.915 205.116L166.876 175.116C167.395 174.849 168.07 174.95 168.892 175.424L116.931 205.424Z" fill="#8BC5E4"/>
<path fill-rule="evenodd" clip-rule="evenodd" d="M114.915 205.116C114.816 205.167 114.723 205.232 114.636 205.309L166.597 175.309C166.685 175.232 166.778 175.167 166.876 175.116L114.915 205.116Z" fill="#8BC5E4"/>
<path fill-rule="evenodd" clip-rule="evenodd" d="M114.636 205.309C113.969 205.904 113.64 207.324 113.64 209.554L165.601 179.554C165.601 177.324 165.931 175.904 166.597 175.309L114.636 205.309Z" fill="#8BC5E4"/>
<path fill-rule="evenodd" clip-rule="evenodd" d="M113.64 209.554C113.64 211.824 113.943 213.579 114.541 214.814L166.502 184.814C165.905 183.579 165.601 181.824 165.601 179.554L113.64 209.554Z" fill="#8BC5E4"/>
<path fill-rule="evenodd" clip-rule="evenodd" d="M114.541 214.814C115.147 216.044 115.943 216.944 116.931 217.514L168.892 187.514C167.905 186.944 167.108 186.044 166.502 184.814L114.541 214.814Z" fill="#8BC5E4"/>
<path fill-rule="evenodd" clip-rule="evenodd" d="M116.931 217.514C117.76 217.993 118.43 218.098 118.952 217.829L170.914 187.829C170.392 188.098 169.721 187.993 168.892 187.514L116.931 217.514Z" fill="#8BC5E4"/>
<path fill-rule="evenodd" clip-rule="evenodd" d="M118.952 217.829C119.052 217.778 119.146 217.713 119.234 217.634L171.196 187.634C171.107 187.713 171.013 187.778 170.914 187.829L118.952 217.829Z" fill="#8BC5E4"/>
<path fill-rule="evenodd" clip-rule="evenodd" d="M119.234 217.634C119.901 217.039 120.23 215.619 120.23 213.379L172.192 183.379C172.192 185.619 171.863 187.039 171.196 187.634L119.234 217.634Z" fill="#8BC5E4"/>
<path fill-rule="evenodd" clip-rule="evenodd" d="M120.23 213.379C120.23 211.139 119.901 209.339 119.243 207.989L171.205 177.989C171.863 179.339 172.192 181.139 172.192 183.379L120.23 213.379Z" fill="#8BC5E4"/>
<path fill-rule="evenodd" clip-rule="evenodd" d="M119.243 207.989C118.689 206.849 117.918 205.994 116.931 205.424L168.892 175.424C169.879 175.994 170.65 176.849 171.204 177.989L119.243 207.989Z" fill="#8BC5E4"/>
<path fill-rule="evenodd" clip-rule="evenodd" d="M131.939 198.439C132.181 198.579 132.381 198.784 132.563 199.069L184.524 169.069C184.342 168.784 184.143 168.579 183.9 168.439L131.939 198.439Z" fill="#8BC5E4"/>
<path fill-rule="evenodd" clip-rule="evenodd" d="M132.562 199.069C132.753 199.349 132.9 199.784 133.021 200.374L184.983 170.374C184.862 169.784 184.715 169.349 184.524 169.069L132.562 199.069Z" fill="#8BC5E4"/>
<path fill-rule="evenodd" clip-rule="evenodd" d="M133.021 200.374C133.143 200.964 133.203 201.949 133.203 203.339L185.165 173.339C185.165 171.949 185.104 170.964 184.983 170.374L133.021 200.374Z" fill="#8BC5E4"/>
<path fill-rule="evenodd" clip-rule="evenodd" d="M133.203 203.339C133.203 204.729 133.134 205.679 133.004 206.184L184.965 176.184C185.095 175.679 185.165 174.729 185.165 173.339L133.203 203.339Z" fill="#8BC5E4"/>
<path fill-rule="evenodd" clip-rule="evenodd" d="M133.004 206.184C132.913 206.528 132.788 206.751 132.635 206.844L184.597 176.844C184.749 176.751 184.874 176.528 184.966 176.184L133.004 206.184Z" fill="#8BC5E4"/>
<path fill-rule="evenodd" clip-rule="evenodd" d="M132.635 206.844C132.614 206.856 132.593 206.866 132.571 206.874L184.533 176.874C184.555 176.866 184.576 176.856 184.597 176.844L132.635 206.844Z" fill="#8BC5E4"/>
<path fill-rule="evenodd" clip-rule="evenodd" d="M132.571 206.874C132.389 206.949 132.181 206.909 131.939 206.769L183.9 176.769C184.143 176.909 184.351 176.949 184.533 176.874L132.571 206.874Z" fill="#8BC5E4"/>
<path fill-rule="evenodd" clip-rule="evenodd" d="M131.939 206.769C131.705 206.634 131.497 206.434 131.307 206.144L183.268 176.144C183.459 176.434 183.667 176.634 183.9 176.769L131.939 206.769Z" fill="#8BC5E4"/>
<path fill-rule="evenodd" clip-rule="evenodd" d="M131.307 206.144C131.134 205.874 130.986 205.449 130.865 204.859L182.827 174.859C182.948 175.449 183.095 175.874 183.268 176.144L131.307 206.144Z" fill="#8BC5E4"/>
<path fill-rule="evenodd" clip-rule="evenodd" d="M130.865 204.859C130.744 204.269 130.683 203.274 130.683 201.884L182.645 171.884C182.645 173.274 182.705 174.269 182.826 174.859L130.865 204.859Z" fill="#8BC5E4"/>
<path fill-rule="evenodd" clip-rule="evenodd" d="M130.683 201.884C130.683 200.494 130.752 199.554 130.882 199.039L182.844 169.039C182.714 169.554 182.645 170.494 182.645 171.884L130.683 201.884Z" fill="#8BC5E4"/>
<path fill-rule="evenodd" clip-rule="evenodd" d="M130.882 199.039C130.974 198.696 131.092 198.469 131.243 198.375L183.205 168.375C183.054 168.469 182.935 168.696 182.844 169.039L130.882 199.039Z" fill="#8BC5E4"/>
<path fill-rule="evenodd" clip-rule="evenodd" d="M131.243 198.375C131.264 198.362 131.285 198.352 131.307 198.344L183.268 168.344C183.246 168.352 183.225 168.362 183.205 168.375L131.243 198.375Z" fill="#8BC5E4"/>
<path fill-rule="evenodd" clip-rule="evenodd" d="M131.307 198.344C131.497 198.274 131.705 198.304 131.939 198.439L183.9 168.439C183.667 168.304 183.459 168.274 183.268 168.344L131.307 198.344Z" fill="#8BC5E4"/>
<path fill-rule="evenodd" clip-rule="evenodd" d="M114.922 188.614C115.164 188.754 115.363 188.959 115.545 189.244L167.507 159.244C167.325 158.959 167.126 158.754 166.883 158.614L114.922 188.614Z" fill="#8BC5E4"/>
<path fill-rule="evenodd" clip-rule="evenodd" d="M115.545 189.244C115.736 189.524 115.883 189.959 116.004 190.549L167.966 160.549C167.844 159.959 167.697 159.524 167.507 159.244L115.545 189.244Z" fill="#8BC5E4"/>
<path fill-rule="evenodd" clip-rule="evenodd" d="M116.004 190.549C116.125 191.139 116.186 192.124 116.186 193.514L168.148 163.514C168.148 162.124 168.087 161.139 167.966 160.549L116.004 190.549Z" fill="#8BC5E4"/>
<path fill-rule="evenodd" clip-rule="evenodd" d="M116.186 193.514C116.186 194.904 116.117 195.854 115.987 196.359L167.948 166.359C168.078 165.854 168.148 164.904 168.148 163.514L116.186 193.514Z" fill="#8BC5E4"/>
<path fill-rule="evenodd" clip-rule="evenodd" d="M115.987 196.359C115.9 196.687 115.788 196.909 115.641 197.007L167.603 167.007C167.749 166.909 167.861 166.687 167.948 166.359L115.987 196.359Z" fill="#8BC5E4"/>
<path fill-rule="evenodd" clip-rule="evenodd" d="M115.641 197.007C115.613 197.026 115.584 197.04 115.554 197.049L167.515 167.049C167.546 167.04 167.575 167.026 167.603 167.007L115.641 197.007Z" fill="#8BC5E4"/>
<path fill-rule="evenodd" clip-rule="evenodd" d="M115.554 197.049C115.372 197.124 115.164 197.084 114.922 196.944L166.883 166.944C167.126 167.084 167.333 167.124 167.515 167.049L115.554 197.049Z" fill="#8BC5E4"/>
<path fill-rule="evenodd" clip-rule="evenodd" d="M114.922 196.944C114.688 196.809 114.48 196.609 114.289 196.319L166.251 166.319C166.441 166.609 166.649 166.809 166.883 166.944L114.922 196.944Z" fill="#8BC5E4"/>
<path fill-rule="evenodd" clip-rule="evenodd" d="M114.289 196.319C114.116 196.049 113.969 195.624 113.848 195.034L165.809 165.034C165.93 165.624 166.078 166.049 166.251 166.319L114.289 196.319Z" fill="#8BC5E4"/>
<path fill-rule="evenodd" clip-rule="evenodd" d="M113.848 195.034C113.726 194.444 113.666 193.449 113.666 192.059L165.627 162.059C165.627 163.449 165.688 164.444 165.809 165.034L113.848 195.034Z" fill="#8BC5E4"/>
<path fill-rule="evenodd" clip-rule="evenodd" d="M113.666 192.059C113.666 190.669 113.735 189.729 113.865 189.214L165.826 159.214C165.697 159.729 165.627 160.669 165.627 162.059L113.666 192.059Z" fill="#8BC5E4"/>
<path fill-rule="evenodd" clip-rule="evenodd" d="M113.865 189.214C113.956 188.871 114.075 188.644 114.226 188.55L166.187 158.55C166.036 158.644 165.918 158.871 165.827 159.214L113.865 189.214Z" fill="#8BC5E4"/>
<path fill-rule="evenodd" clip-rule="evenodd" d="M114.226 188.55C114.246 188.537 114.268 188.527 114.289 188.519L166.251 158.519C166.229 158.527 166.208 158.537 166.187 158.55L114.226 188.55Z" fill="#8BC5E4"/>
<path fill-rule="evenodd" clip-rule="evenodd" d="M114.289 188.519C114.48 188.449 114.688 188.479 114.922 188.614L166.883 158.614C166.649 158.479 166.441 158.449 166.251 158.519L114.289 188.519Z" fill="#8BC5E4"/>
<path fill-rule="evenodd" clip-rule="evenodd" d="M105.707 183.294C105.941 183.429 106.149 183.639 106.331 183.924L158.292 153.924C158.11 153.639 157.902 153.429 157.669 153.294L105.707 183.294Z" fill="#8BC5E4"/>
<path fill-rule="evenodd" clip-rule="evenodd" d="M106.331 183.924C106.512 184.199 106.668 184.639 106.79 185.229L158.751 155.229C158.63 154.639 158.474 154.199 158.292 153.924L106.331 183.924Z" fill="#8BC5E4"/>
<path fill-rule="evenodd" clip-rule="evenodd" d="M106.79 185.229C106.911 185.819 106.963 186.799 106.963 188.189L158.924 158.189C158.924 156.799 158.872 155.819 158.751 155.229L106.79 185.229Z" fill="#8BC5E4"/>
<path fill-rule="evenodd" clip-rule="evenodd" d="M106.963 188.189C106.963 189.579 106.902 190.534 106.764 191.034L158.725 161.034C158.864 160.534 158.924 159.579 158.924 158.189L106.963 188.189Z" fill="#8BC5E4"/>
<path fill-rule="evenodd" clip-rule="evenodd" d="M106.764 191.034C106.68 191.382 106.556 191.605 106.403 191.698L158.365 161.698C158.517 161.605 158.641 161.382 158.725 161.034L106.764 191.034Z" fill="#8BC5E4"/>
<path fill-rule="evenodd" clip-rule="evenodd" d="M106.403 191.698C106.383 191.711 106.361 191.721 106.339 191.729L158.301 161.729C158.323 161.721 158.344 161.711 158.365 161.698L106.403 191.698Z" fill="#8BC5E4"/>
<path fill-rule="evenodd" clip-rule="evenodd" d="M106.339 191.729C106.149 191.799 105.941 191.759 105.707 191.624L157.669 161.624C157.902 161.759 158.11 161.799 158.301 161.729L106.339 191.729Z" fill="#8BC5E4"/>
<path fill-rule="evenodd" clip-rule="evenodd" d="M105.707 191.624C105.473 191.489 105.265 191.289 105.075 190.999L157.036 160.999C157.227 161.289 157.435 161.489 157.669 161.624L105.707 191.624Z" fill="#8BC5E4"/>
<path fill-rule="evenodd" clip-rule="evenodd" d="M105.075 190.999C104.893 190.724 104.746 190.299 104.625 189.709L156.586 159.709C156.707 160.299 156.855 160.724 157.036 160.999L105.075 190.999Z" fill="#8BC5E4"/>
<path fill-rule="evenodd" clip-rule="evenodd" d="M104.625 189.709C104.503 189.119 104.451 188.129 104.451 186.739L156.413 156.739C156.413 158.129 156.465 159.119 156.586 159.709L104.625 189.709Z" fill="#8BC5E4"/>
<path fill-rule="evenodd" clip-rule="evenodd" d="M104.451 186.739C104.451 185.349 104.512 184.404 104.651 183.894L156.612 153.894C156.474 154.404 156.413 155.349 156.413 156.739L104.451 186.739Z" fill="#8BC5E4"/>
<path fill-rule="evenodd" clip-rule="evenodd" d="M104.65 183.894C104.734 183.547 104.858 183.323 105.011 183.23L156.972 153.23C156.82 153.323 156.696 153.547 156.612 153.894L104.65 183.894Z" fill="#8BC5E4"/>
<path fill-rule="evenodd" clip-rule="evenodd" d="M105.011 183.23C105.032 183.217 105.053 183.207 105.075 183.199L157.036 153.199C157.015 153.207 156.993 153.217 156.973 153.23L105.011 183.23Z" fill="#8BC5E4"/>
<path fill-rule="evenodd" clip-rule="evenodd" d="M105.075 183.199C105.265 183.129 105.473 183.159 105.707 183.294L157.669 153.294C157.435 153.159 157.227 153.129 157.036 153.199L105.075 183.199Z" fill="#8BC5E4"/>
<path fill-rule="evenodd" clip-rule="evenodd" d="M88.9841 173.639C89.218 173.774 89.4258 173.984 89.6077 174.269L141.569 144.269C141.387 143.984 141.179 143.774 140.946 143.639L88.9841 173.639Z" fill="#8BC5E4"/>
<path fill-rule="evenodd" clip-rule="evenodd" d="M89.6077 174.269C89.7895 174.544 89.9454 174.984 90.0667 175.574L142.028 145.574C141.907 144.984 141.751 144.544 141.569 144.269L89.6077 174.269Z" fill="#8BC5E4"/>
<path fill-rule="evenodd" clip-rule="evenodd" d="M90.0667 175.574C90.1879 176.164 90.2485 177.149 90.2485 178.539L142.21 148.539C142.21 147.149 142.149 146.164 142.028 145.574L90.0667 175.574Z" fill="#8BC5E4"/>
<path fill-rule="evenodd" clip-rule="evenodd" d="M90.2486 178.539C90.2486 179.929 90.1793 180.879 90.0408 181.379L142.002 151.379C142.141 150.879 142.21 149.929 142.21 148.539L90.2486 178.539Z" fill="#8BC5E4"/>
<path fill-rule="evenodd" clip-rule="evenodd" d="M90.0406 181.379C89.9568 181.727 89.8327 181.95 89.6802 182.043L141.642 152.043C141.794 151.95 141.918 151.727 142.002 151.379L90.0406 181.379Z" fill="#8BC5E4"/>
<path fill-rule="evenodd" clip-rule="evenodd" d="M89.6802 182.043C89.6594 182.056 89.638 182.066 89.6162 182.074L141.578 152.074C141.6 152.066 141.621 152.056 141.642 152.043L89.6802 182.043Z" fill="#8BC5E4"/>
<path fill-rule="evenodd" clip-rule="evenodd" d="M89.6163 182.074C89.4258 182.144 89.218 182.104 88.9841 181.969L140.946 151.969C141.179 152.104 141.387 152.144 141.578 152.074L89.6163 182.074Z" fill="#8BC5E4"/>
<path fill-rule="evenodd" clip-rule="evenodd" d="M88.984 181.969C88.7502 181.834 88.5423 181.634 88.3518 181.344L140.313 151.344C140.504 151.634 140.712 151.834 140.946 151.969L88.984 181.969Z" fill="#8BC5E4"/>
<path fill-rule="evenodd" clip-rule="evenodd" d="M88.3518 181.344C88.2912 181.249 88.2305 181.124 88.1699 180.979L140.131 150.979C140.192 151.124 140.253 151.249 140.313 151.344L88.3518 181.344Z" fill="#8BC5E4"/>
<path fill-rule="evenodd" clip-rule="evenodd" d="M88.17 180.979C88.0488 179.749 87.9795 178.529 87.9795 177.329L139.941 147.329C139.941 148.529 140.01 149.749 140.132 150.979L88.17 180.979Z" fill="#8BC5E4"/>
<path fill-rule="evenodd" clip-rule="evenodd" d="M87.9795 177.329C87.9795 176.039 88.0574 174.804 88.2047 173.649L140.166 143.649C140.019 144.804 139.941 146.039 139.941 147.329L87.9795 177.329Z" fill="#8BC5E4"/>
<path fill-rule="evenodd" clip-rule="evenodd" d="M88.2046 173.649C88.2462 173.617 88.2822 173.582 88.3215 173.559L140.283 143.559C140.244 143.582 140.208 143.617 140.166 143.649L88.2046 173.649Z" fill="#8BC5E4"/>
<path fill-rule="evenodd" clip-rule="evenodd" d="M88.3215 173.559C88.3314 173.553 88.3414 173.548 88.3518 173.544L140.313 143.544C140.303 143.548 140.293 143.553 140.283 143.559L88.3215 173.559Z" fill="#8BC5E4"/>
<path fill-rule="evenodd" clip-rule="evenodd" d="M88.3518 173.544C88.5423 173.474 88.7502 173.504 88.984 173.639L140.946 143.639C140.712 143.504 140.504 143.474 140.313 143.544L88.3518 173.544Z" fill="#8BC5E4"/>
<path fill-rule="evenodd" clip-rule="evenodd" d="M123.495 191.784C123.324 192.233 123.048 192.574 122.663 192.798L174.625 162.798C175.01 162.574 175.286 162.233 175.457 161.784L123.495 191.784Z" fill="#8BC5E4"/>
<path fill-rule="evenodd" clip-rule="evenodd" d="M122.663 192.798C122.541 192.868 122.409 192.927 122.266 192.974L174.227 162.974C174.371 162.927 174.503 162.868 174.625 162.798L122.663 192.798Z" fill="#8BC5E4"/>
<path fill-rule="evenodd" clip-rule="evenodd" d="M122.265 192.974C121.677 193.174 121.122 193.224 120.611 193.119L172.573 163.119C173.084 163.224 173.638 163.174 174.227 162.974L122.265 192.974Z" fill="#8BC5E4"/>
<path fill-rule="evenodd" clip-rule="evenodd" d="M120.611 195.179C121.581 195.369 122.413 195.279 123.123 194.909L175.084 164.909C174.374 165.279 173.543 165.369 172.573 165.179L120.611 195.179Z" fill="#8BC5E4"/>
<path fill-rule="evenodd" clip-rule="evenodd" d="M97.4971 176.774C97.326 177.223 97.0498 177.564 96.6648 177.788L148.626 147.788C149.011 147.564 149.288 147.223 149.459 146.774L97.4971 176.774Z" fill="#8BC5E4"/>
<path fill-rule="evenodd" clip-rule="evenodd" d="M96.6648 177.788C96.5432 177.858 96.4107 177.917 96.2673 177.964L148.229 147.964C148.372 147.917 148.505 147.858 148.626 147.788L96.6648 177.788Z" fill="#8BC5E4"/>
<path fill-rule="evenodd" clip-rule="evenodd" d="M96.2674 177.964C95.6698 178.159 95.1242 178.214 94.6133 178.109L146.575 148.109C147.086 148.214 147.631 148.159 148.229 147.964L96.2674 177.964Z" fill="#8BC5E4"/>
<path fill-rule="evenodd" clip-rule="evenodd" d="M94.6133 180.169C95.5832 180.359 96.4146 180.269 97.1248 179.899L149.086 149.899C148.376 150.269 147.545 150.359 146.575 150.169L94.6133 180.169Z" fill="#8BC5E4"/>
<path fill-rule="evenodd" clip-rule="evenodd" d="M114.922 186.734C114.1 186.26 113.424 186.159 112.906 186.426L164.867 156.426C165.386 156.159 166.061 156.26 166.883 156.734L114.922 186.734Z" fill="#8BC5E4"/>
<path fill-rule="evenodd" clip-rule="evenodd" d="M112.906 186.427C112.807 186.477 112.714 186.542 112.627 186.619L164.588 156.619C164.676 156.542 164.769 156.477 164.867 156.427L112.906 186.427Z" fill="#8BC5E4"/>
<path fill-rule="evenodd" clip-rule="evenodd" d="M112.627 186.619C111.96 187.214 111.631 188.634 111.631 190.864L163.592 160.864C163.592 158.634 163.921 157.214 164.588 156.619L112.627 186.619Z" fill="#8BC5E4"/>
<path fill-rule="evenodd" clip-rule="evenodd" d="M111.631 190.864C111.631 193.134 111.934 194.889 112.531 196.124L164.493 166.124C163.895 164.889 163.592 163.134 163.592 160.864L111.631 190.864Z" fill="#8BC5E4"/>
<path fill-rule="evenodd" clip-rule="evenodd" d="M112.531 196.124C113.137 197.354 113.934 198.264 114.921 198.834L166.883 168.834C165.896 168.264 165.099 167.354 164.493 166.124L112.531 196.124Z" fill="#8BC5E4"/>
<path fill-rule="evenodd" clip-rule="evenodd" d="M114.922 198.834C115.751 199.313 116.421 199.411 116.943 199.139L168.905 169.139C168.383 169.411 167.712 169.313 166.883 168.834L114.922 198.834Z" fill="#8BC5E4"/>
<path fill-rule="evenodd" clip-rule="evenodd" d="M116.943 199.14C117.043 199.088 117.137 199.023 117.225 198.944L169.187 168.944C169.098 169.023 169.004 169.088 168.905 169.14L116.943 199.14Z" fill="#8BC5E4"/>
<path fill-rule="evenodd" clip-rule="evenodd" d="M117.225 198.944C117.892 198.359 118.221 196.929 118.221 194.689L170.183 164.689C170.183 166.929 169.853 168.359 169.187 168.944L117.225 198.944Z" fill="#8BC5E4"/>
<path fill-rule="evenodd" clip-rule="evenodd" d="M118.221 194.689C118.221 192.449 117.892 190.649 117.234 189.299L169.195 159.299C169.854 160.649 170.183 162.449 170.183 164.689L118.221 194.689Z" fill="#8BC5E4"/>
<path fill-rule="evenodd" clip-rule="evenodd" d="M117.234 189.299C116.68 188.159 115.909 187.304 114.922 186.734L166.883 156.734C167.87 157.304 168.641 158.159 169.195 159.299L117.234 189.299Z" fill="#8BC5E4"/>
<path fill-rule="evenodd" clip-rule="evenodd" d="M105.707 181.414C104.878 180.935 104.207 180.838 103.686 181.103L155.647 151.103C156.169 150.838 156.839 150.935 157.669 151.414L105.707 181.414Z" fill="#8BC5E4"/>
<path fill-rule="evenodd" clip-rule="evenodd" d="M103.685 181.103C103.586 181.154 103.492 181.217 103.403 181.294L155.365 151.294C155.454 151.217 155.548 151.154 155.647 151.103L103.685 181.103Z" fill="#8BC5E4"/>
<path fill-rule="evenodd" clip-rule="evenodd" d="M103.403 181.294C102.745 181.894 102.407 183.309 102.407 185.539L154.369 155.539C154.369 153.309 154.707 151.894 155.365 151.294L103.403 181.294Z" fill="#8BC5E4"/>
<path fill-rule="evenodd" clip-rule="evenodd" d="M102.407 185.539C102.407 187.809 102.711 189.564 103.317 190.804L155.278 160.804C154.672 159.564 154.369 157.809 154.369 155.539L102.407 185.539Z" fill="#8BC5E4"/>
<path fill-rule="evenodd" clip-rule="evenodd" d="M103.317 190.804C103.923 192.034 104.72 192.944 105.707 193.514L157.669 163.514C156.681 162.944 155.885 162.034 155.278 160.804L103.317 190.804Z" fill="#8BC5E4"/>
<path fill-rule="evenodd" clip-rule="evenodd" d="M105.707 193.514C106.536 193.993 107.207 194.091 107.729 193.819L159.69 163.819C159.168 164.091 158.498 163.993 157.669 163.514L105.707 193.514Z" fill="#8BC5E4"/>
<path fill-rule="evenodd" clip-rule="evenodd" d="M107.729 193.819C107.828 193.768 107.922 193.703 108.011 193.624L159.972 163.624C159.883 163.703 159.789 163.768 159.69 163.819L107.729 193.819Z" fill="#8BC5E4"/>
<path fill-rule="evenodd" clip-rule="evenodd" d="M108.011 193.624C108.669 193.034 109.007 191.609 109.007 189.369L160.968 159.369C160.968 161.609 160.63 163.034 159.972 163.624L108.011 193.624Z" fill="#8BC5E4"/>
<path fill-rule="evenodd" clip-rule="evenodd" d="M109.007 189.369C109.007 187.129 108.678 185.329 108.011 183.974L159.972 153.974C160.639 155.329 160.968 157.129 160.968 159.369L109.007 189.369Z" fill="#8BC5E4"/>
<path fill-rule="evenodd" clip-rule="evenodd" d="M108.011 183.974C107.456 182.834 106.694 181.984 105.707 181.414L157.669 151.414C158.656 151.984 159.418 152.834 159.972 153.974L108.011 183.974Z" fill="#8BC5E4"/>
<path fill-rule="evenodd" clip-rule="evenodd" d="M48.6965 134.479C48.7572 134.554 48.9477 134.804 49.2854 135.529L101.247 105.529C100.909 104.804 100.719 104.554 100.658 104.479L48.6965 134.479Z" fill="#8BC5E4"/>
<path fill-rule="evenodd" clip-rule="evenodd" d="M49.2854 135.529C49.7877 136.609 50.3853 138.394 50.8875 140.564L102.849 110.564C102.347 108.394 101.749 106.609 101.247 105.529L49.2854 135.529Z" fill="#8BC5E4"/>
<path fill-rule="evenodd" clip-rule="evenodd" d="M50.8877 140.564C51.9009 144.919 52.5764 150.819 52.5764 156.889L104.538 126.889C104.538 120.819 103.862 114.919 102.849 110.564L50.8877 140.564Z" fill="#8BC5E4"/>
<path fill-rule="evenodd" clip-rule="evenodd" d="M52.5764 156.889C52.5764 162.969 51.9009 168.089 50.8877 171.264L102.849 141.264C103.862 138.089 104.538 132.969 104.538 126.889L52.5764 156.889Z" fill="#8BC5E4"/>
<path fill-rule="evenodd" clip-rule="evenodd" d="M50.8875 171.264C50.3853 172.864 49.7877 173.959 49.2854 174.459L101.247 144.459C101.749 143.959 102.347 142.864 102.849 141.264L50.8875 171.264Z" fill="#8BC5E4"/>
<path fill-rule="evenodd" clip-rule="evenodd" d="M49.2854 174.459C49.1503 174.593 49.0388 174.678 48.9497 174.733L100.911 144.733C101 144.678 101.112 144.593 101.247 144.459L49.2854 174.459Z" fill="#8BC5E4"/>
<path fill-rule="evenodd" clip-rule="evenodd" d="M48.9497 174.733C48.816 174.814 48.7329 174.826 48.6965 174.829L100.658 144.829C100.694 144.826 100.778 144.814 100.911 144.733L48.9497 174.733Z" fill="#8BC5E4"/>
<path fill-rule="evenodd" clip-rule="evenodd" d="M48.6966 174.829C48.6359 174.754 48.4454 174.504 48.1077 173.779L100.069 143.779C100.407 144.504 100.597 144.754 100.658 144.829L48.6966 174.829Z" fill="#8BC5E4"/>
<path fill-rule="evenodd" clip-rule="evenodd" d="M48.1078 173.779C47.6141 172.704 47.0079 170.914 46.5056 168.734L98.4671 138.734C98.9694 140.914 99.5757 142.704 100.069 143.779L48.1078 173.779Z" fill="#8BC5E4"/>
<path fill-rule="evenodd" clip-rule="evenodd" d="M46.5055 168.734C45.4923 164.389 44.8081 158.484 44.8081 152.404L96.7696 122.404C96.7696 128.484 97.4538 134.389 98.467 138.734L46.5055 168.734Z" fill="#8BC5E4"/>
<path fill-rule="evenodd" clip-rule="evenodd" d="M44.8081 152.404C44.8081 146.334 45.4923 141.219 46.5055 138.034L98.467 108.034C97.4538 111.219 96.7696 116.334 96.7696 122.404L44.8081 152.404Z" fill="#8BC5E4"/>
<path fill-rule="evenodd" clip-rule="evenodd" d="M46.5056 138.034C47.0079 136.444 47.6141 135.354 48.1078 134.849L100.069 104.849C99.5757 105.354 98.9694 106.444 98.4671 108.034L46.5056 138.034Z" fill="#8BC5E4"/>
<path fill-rule="evenodd" clip-rule="evenodd" d="M48.1077 134.849C48.2428 134.715 48.3543 134.63 48.4434 134.576L100.405 104.576C100.316 104.63 100.204 104.715 100.069 104.849L48.1077 134.849Z" fill="#8BC5E4"/>
<path fill-rule="evenodd" clip-rule="evenodd" d="M48.4434 134.576C48.577 134.494 48.6601 134.482 48.6965 134.479L100.658 104.479C100.622 104.482 100.539 104.494 100.405 104.576L48.4434 134.576Z" fill="#8BC5E4"/>
<path fill-rule="evenodd" clip-rule="evenodd" d="M117.173 172.214C117.407 172.349 117.615 172.559 117.797 172.844L169.758 142.844C169.577 142.559 169.369 142.349 169.135 142.214L117.173 172.214Z" fill="#8BC5E4"/>
<path fill-rule="evenodd" clip-rule="evenodd" d="M117.797 172.844C117.979 173.119 118.126 173.554 118.247 174.144L170.209 144.144C170.087 143.554 169.94 143.119 169.758 142.844L117.797 172.844Z" fill="#8BC5E4"/>
<path fill-rule="evenodd" clip-rule="evenodd" d="M118.247 174.144C118.368 174.734 118.429 175.719 118.429 177.109L170.39 147.109C170.39 145.719 170.33 144.734 170.209 144.144L118.247 174.144Z" fill="#8BC5E4"/>
<path fill-rule="evenodd" clip-rule="evenodd" d="M118.429 177.109C118.429 178.499 118.36 179.449 118.23 179.954L170.191 149.954C170.321 149.449 170.39 148.499 170.39 147.109L118.429 177.109Z" fill="#8BC5E4"/>
<path fill-rule="evenodd" clip-rule="evenodd" d="M118.23 179.954C118.138 180.298 118.02 180.525 117.863 180.622L169.825 150.622C169.981 150.525 170.1 150.298 170.191 149.954L118.23 179.954Z" fill="#8BC5E4"/>
<path fill-rule="evenodd" clip-rule="evenodd" d="M117.863 180.622C117.842 180.635 117.82 180.646 117.797 180.654L169.758 150.654C169.781 150.646 169.803 150.635 169.825 150.622L117.863 180.622Z" fill="#8BC5E4"/>
<path fill-rule="evenodd" clip-rule="evenodd" d="M117.797 180.654C117.615 180.719 117.407 180.689 117.173 180.554L169.135 150.554C169.369 150.689 169.577 150.719 169.758 150.654L117.797 180.654Z" fill="#8BC5E4"/>
<path fill-rule="evenodd" clip-rule="evenodd" d="M117.173 180.554C116.931 180.414 116.723 180.204 116.541 179.929L168.503 149.929C168.684 150.204 168.892 150.414 169.135 150.554L117.173 180.554Z" fill="#8BC5E4"/>
<path fill-rule="evenodd" clip-rule="evenodd" d="M116.541 179.929C116.359 179.644 116.212 179.219 116.091 178.629L168.052 148.629C168.174 149.219 168.321 149.644 168.503 149.929L116.541 179.929Z" fill="#8BC5E4"/>
<path fill-rule="evenodd" clip-rule="evenodd" d="M116.091 178.629C115.97 178.039 115.909 177.044 115.909 175.654L167.87 145.654C167.87 147.044 167.931 148.039 168.052 148.629L116.091 178.629Z" fill="#8BC5E4"/>
<path fill-rule="evenodd" clip-rule="evenodd" d="M115.909 175.654C115.909 174.264 115.978 173.314 116.108 172.809L168.07 142.809C167.94 143.314 167.87 144.264 167.87 145.654L115.909 175.654Z" fill="#8BC5E4"/>
<path fill-rule="evenodd" clip-rule="evenodd" d="M116.108 172.809C116.195 172.482 116.307 172.26 116.453 172.162L168.415 142.162C168.268 142.26 168.157 142.482 168.069 142.809L116.108 172.809Z" fill="#8BC5E4"/>
<path fill-rule="evenodd" clip-rule="evenodd" d="M116.454 172.162C116.482 172.143 116.511 172.129 116.541 172.119L168.503 142.119C168.472 142.129 168.443 142.143 168.415 142.162L116.454 172.162Z" fill="#8BC5E4"/>
<path fill-rule="evenodd" clip-rule="evenodd" d="M116.541 172.119C116.723 172.044 116.931 172.074 117.173 172.214L169.135 142.214C168.892 142.074 168.684 142.044 168.503 142.119L116.541 172.119Z" fill="#8BC5E4"/>
<path fill-rule="evenodd" clip-rule="evenodd" d="M99.1426 161.804C99.3764 161.939 99.5842 162.149 99.7661 162.434L151.728 132.434C151.546 132.149 151.338 131.939 151.104 131.804L99.1426 161.804Z" fill="#8BC5E4"/>
<path fill-rule="evenodd" clip-rule="evenodd" d="M99.7661 162.434C99.948 162.709 100.104 163.149 100.225 163.739L152.187 133.739C152.065 133.149 151.91 132.709 151.728 132.434L99.7661 162.434Z" fill="#8BC5E4"/>
<path fill-rule="evenodd" clip-rule="evenodd" d="M100.225 163.739C100.338 164.324 100.398 165.309 100.398 166.699L152.36 136.699C152.36 135.309 152.299 134.324 152.187 133.739L100.225 163.739Z" fill="#8BC5E4"/>
<path fill-rule="evenodd" clip-rule="evenodd" d="M100.398 166.699C100.398 168.089 100.329 169.039 100.199 169.544L152.161 139.544C152.291 139.039 152.36 138.089 152.36 136.699L100.398 166.699Z" fill="#8BC5E4"/>
<path fill-rule="evenodd" clip-rule="evenodd" d="M100.199 169.544C100.108 169.887 99.9894 170.114 99.8325 170.212L151.794 140.212C151.951 140.114 152.069 139.887 152.161 139.544L100.199 169.544Z" fill="#8BC5E4"/>
<path fill-rule="evenodd" clip-rule="evenodd" d="M99.8325 170.212C99.8111 170.225 99.789 170.236 99.7661 170.244L151.728 140.244C151.75 140.236 151.773 140.225 151.794 140.212L99.8325 170.212Z" fill="#8BC5E4"/>
<path fill-rule="evenodd" clip-rule="evenodd" d="M99.7661 170.244C99.5842 170.309 99.3764 170.279 99.1426 170.144L151.104 140.144C151.338 140.279 151.546 140.309 151.728 140.244L99.7661 170.244Z" fill="#8BC5E4"/>
<path fill-rule="evenodd" clip-rule="evenodd" d="M99.1427 170.144C98.9089 170.009 98.6924 169.794 98.5105 169.519L150.472 139.519C150.654 139.794 150.87 140.009 151.104 140.144L99.1427 170.144Z" fill="#8BC5E4"/>
<path fill-rule="evenodd" clip-rule="evenodd" d="M98.5104 169.519C98.3285 169.234 98.1813 168.809 98.0601 168.219L150.022 138.219C150.143 138.809 150.29 139.234 150.472 139.519L98.5104 169.519Z" fill="#8BC5E4"/>
<path fill-rule="evenodd" clip-rule="evenodd" d="M98.06 168.219C97.9388 167.629 97.8782 166.634 97.8782 165.244L149.84 135.244C149.84 136.634 149.9 137.629 150.022 138.219L98.06 168.219Z" fill="#8BC5E4"/>
<path fill-rule="evenodd" clip-rule="evenodd" d="M97.8782 165.244C97.8782 163.854 97.9475 162.904 98.0774 162.399L150.039 132.399C149.909 132.904 149.84 133.854 149.84 135.244L97.8782 165.244Z" fill="#8BC5E4"/>
<path fill-rule="evenodd" clip-rule="evenodd" d="M98.0774 162.399C98.1688 162.056 98.2938 161.833 98.4464 161.74L150.408 131.74C150.255 131.833 150.13 132.056 150.039 132.399L98.0774 162.399Z" fill="#8BC5E4"/>
<path fill-rule="evenodd" clip-rule="evenodd" d="M98.4465 161.74C98.4673 161.727 98.4887 161.717 98.5105 161.709L150.472 131.709C150.45 131.717 150.429 131.727 150.408 131.74L98.4465 161.74Z" fill="#8BC5E4"/>
<path fill-rule="evenodd" clip-rule="evenodd" d="M98.5105 161.709C98.6924 161.634 98.9089 161.669 99.1427 161.804L151.104 131.804C150.87 131.669 150.654 131.634 150.472 131.709L98.5105 161.709Z" fill="#8BC5E4"/>
<path fill-rule="evenodd" clip-rule="evenodd" d="M108.418 165.379C108.256 165.811 107.999 166.137 107.645 166.358L159.607 136.358C159.961 136.137 160.217 135.811 160.379 135.379L108.418 165.379Z" fill="#8BC5E4"/>
<path fill-rule="evenodd" clip-rule="evenodd" d="M107.645 166.358C107.508 166.444 107.355 166.515 107.188 166.569L159.15 136.569C159.317 136.515 159.469 136.444 159.607 136.358L107.645 166.358Z" fill="#8BC5E4"/>
<path fill-rule="evenodd" clip-rule="evenodd" d="M107.188 166.569C106.599 166.769 106.045 166.819 105.534 166.714L157.495 136.714C158.006 136.819 158.561 136.769 159.15 136.569L107.188 166.569Z" fill="#8BC5E4"/>
<path fill-rule="evenodd" clip-rule="evenodd" d="M105.534 168.774C106.504 168.964 107.344 168.869 108.054 168.509L160.016 138.509C159.305 138.869 158.465 138.964 157.495 138.774L105.534 168.774Z" fill="#8BC5E4"/>
<path fill-rule="evenodd" clip-rule="evenodd" d="M117.173 170.334C116.344 169.855 115.673 169.758 115.152 170.023L167.113 140.023C167.635 139.758 168.305 139.855 169.135 140.334L117.173 170.334Z" fill="#8BC5E4"/>
<path fill-rule="evenodd" clip-rule="evenodd" d="M115.152 170.023C115.052 170.074 114.958 170.138 114.87 170.214L166.831 140.214C166.92 140.138 167.014 140.074 167.113 140.023L115.152 170.023Z" fill="#8BC5E4"/>
<path fill-rule="evenodd" clip-rule="evenodd" d="M114.87 170.214C114.203 170.809 113.874 172.229 113.874 174.459L165.835 144.459C165.835 142.229 166.164 140.809 166.831 140.214L114.87 170.214Z" fill="#8BC5E4"/>
<path fill-rule="evenodd" clip-rule="evenodd" d="M113.874 174.459C113.874 176.729 114.177 178.484 114.783 179.724L166.745 149.724C166.138 148.484 165.835 146.729 165.835 144.459L113.874 174.459Z" fill="#8BC5E4"/>
<path fill-rule="evenodd" clip-rule="evenodd" d="M114.783 179.724C115.389 180.954 116.186 181.864 117.173 182.434L169.135 152.434C168.147 151.864 167.351 150.954 166.744 149.724L114.783 179.724Z" fill="#8BC5E4"/>
<path fill-rule="evenodd" clip-rule="evenodd" d="M117.173 182.434C117.995 182.909 118.671 183.01 119.189 182.742L171.151 152.742C170.632 153.01 169.957 152.909 169.135 152.434L117.173 182.434Z" fill="#8BC5E4"/>
<path fill-rule="evenodd" clip-rule="evenodd" d="M119.189 182.742C119.288 182.691 119.381 182.627 119.468 182.549L171.43 152.549C171.343 152.627 171.249 152.691 171.151 152.742L119.189 182.742Z" fill="#8BC5E4"/>
<path fill-rule="evenodd" clip-rule="evenodd" d="M119.468 182.549C120.135 181.944 120.464 180.524 120.464 178.284L172.426 148.284C172.426 150.524 172.097 151.944 171.43 152.549L119.468 182.549Z" fill="#8BC5E4"/>
<path fill-rule="evenodd" clip-rule="evenodd" d="M120.464 178.284C120.464 176.044 120.135 174.244 119.477 172.894L171.438 142.894C172.097 144.244 172.426 146.044 172.426 148.284L120.464 178.284Z" fill="#8BC5E4"/>
<path fill-rule="evenodd" clip-rule="evenodd" d="M119.477 172.894C118.923 171.754 118.152 170.899 117.173 170.334L169.135 140.334C170.113 140.899 170.884 141.754 171.438 142.894L119.477 172.894Z" fill="#8BC5E4"/>
<path fill-rule="evenodd" clip-rule="evenodd" d="M111.336 163.564C116.61 166.609 121.477 171.449 125.383 177.134L177.345 147.134C173.439 141.449 168.572 136.609 163.298 133.564L111.336 163.564Z" fill="#8BC5E4"/>
<path fill-rule="evenodd" clip-rule="evenodd" d="M125.383 177.134C124.82 177.319 124.292 177.354 123.807 177.264L175.768 147.264C176.253 147.354 176.781 147.319 177.344 147.134L125.383 177.134Z" fill="#8BC5E4"/>
<path fill-rule="evenodd" clip-rule="evenodd" d="M123.807 179.324C124.768 179.509 125.608 179.414 126.318 179.054L178.28 149.054C177.569 149.414 176.729 149.509 175.768 149.324L123.807 179.324Z" fill="#8BC5E4"/>
<path fill-rule="evenodd" clip-rule="evenodd" d="M128.258 181.784C131.359 187.364 133.524 193.454 134.338 199.314L186.299 169.314C185.485 163.454 183.32 157.364 180.22 151.784L128.258 181.784Z" fill="#8BC5E4"/>
<path fill-rule="evenodd" clip-rule="evenodd" d="M134.338 199.314C134.312 199.259 134.277 199.189 134.251 199.124L186.213 169.124C186.238 169.189 186.273 169.259 186.299 169.314L134.338 199.314Z" fill="#8BC5E4"/>
<path fill-rule="evenodd" clip-rule="evenodd" d="M134.251 199.124C133.697 197.984 132.926 197.129 131.939 196.559L183.9 166.559C184.888 167.129 185.659 167.984 186.213 169.124L134.251 199.124Z" fill="#8BC5E4"/>
<path fill-rule="evenodd" clip-rule="evenodd" d="M131.939 196.559C131.117 196.085 130.441 195.984 129.923 196.251L181.884 166.251C182.403 165.984 183.078 166.085 183.9 166.559L131.939 196.559Z" fill="#8BC5E4"/>
<path fill-rule="evenodd" clip-rule="evenodd" d="M129.923 196.251C129.824 196.302 129.731 196.367 129.644 196.444L181.606 166.444C181.693 166.367 181.786 166.302 181.885 166.251L129.923 196.251Z" fill="#8BC5E4"/>
<path fill-rule="evenodd" clip-rule="evenodd" d="M129.644 196.444C128.977 197.039 128.648 198.459 128.648 200.689L180.609 170.689C180.609 168.459 180.939 167.039 181.605 166.444L129.644 196.444Z" fill="#8BC5E4"/>
<path fill-rule="evenodd" clip-rule="evenodd" d="M128.648 200.689C128.648 202.959 128.951 204.714 129.549 205.949L181.51 175.949C180.913 174.714 180.609 172.959 180.609 170.689L128.648 200.689Z" fill="#8BC5E4"/>
<path fill-rule="evenodd" clip-rule="evenodd" d="M129.549 205.949C130.155 207.179 130.952 208.089 131.939 208.659L183.901 178.659C182.913 178.089 182.117 177.179 181.51 175.949L129.549 205.949Z" fill="#8BC5E4"/>
<path fill-rule="evenodd" clip-rule="evenodd" d="M131.939 208.659C132.768 209.138 133.439 209.236 133.961 208.964L185.922 178.964C185.4 179.236 184.73 179.138 183.9 178.659L131.939 208.659Z" fill="#8BC5E4"/>
<path fill-rule="evenodd" clip-rule="evenodd" d="M133.96 208.964C134.06 208.913 134.154 208.848 134.243 208.769L186.204 178.769C186.115 178.848 186.021 178.913 185.922 178.964L133.96 208.964Z" fill="#8BC5E4"/>
<path fill-rule="evenodd" clip-rule="evenodd" d="M134.243 208.769C134.286 208.734 134.338 208.684 134.373 208.624L186.334 178.624C186.299 178.684 186.248 178.734 186.204 178.769L134.243 208.769Z" fill="#8BC5E4"/>
<path fill-rule="evenodd" clip-rule="evenodd" d="M134.373 208.624C133.775 212.519 132.338 215.579 130.276 217.719L182.238 187.719C184.299 185.579 185.737 182.519 186.334 178.624L134.373 208.624Z" fill="#8BC5E4"/>
<path fill-rule="evenodd" clip-rule="evenodd" d="M130.276 217.719C130.164 216.164 129.852 214.854 129.341 213.819L181.302 183.819C181.813 184.854 182.125 186.164 182.238 187.719L130.276 217.719Z" fill="#8BC5E4"/>
<path fill-rule="evenodd" clip-rule="evenodd" d="M129.341 213.819C128.786 212.679 128.024 211.829 127.037 211.259L178.999 181.259C179.986 181.829 180.748 182.679 181.302 183.819L129.341 213.819Z" fill="#8BC5E4"/>
<path fill-rule="evenodd" clip-rule="evenodd" d="M127.038 211.259C126.216 210.785 125.54 210.684 125.017 210.948L176.978 180.948C177.502 180.684 178.177 180.785 178.999 181.259L127.038 211.259Z" fill="#8BC5E4"/>
<path fill-rule="evenodd" clip-rule="evenodd" d="M125.016 210.948C124.916 210.999 124.822 211.062 124.733 211.139L176.695 181.139C176.784 181.062 176.878 180.999 176.978 180.948L125.016 210.948Z" fill="#8BC5E4"/>
<path fill-rule="evenodd" clip-rule="evenodd" d="M124.734 211.139C124.076 211.739 123.738 213.154 123.738 215.384L175.699 185.384C175.699 183.154 176.037 181.739 176.695 181.139L124.734 211.139Z" fill="#8BC5E4"/>
<path fill-rule="evenodd" clip-rule="evenodd" d="M123.738 215.384C123.738 217.654 124.041 219.409 124.647 220.649L176.609 190.649C176.002 189.409 175.699 187.654 175.699 185.384L123.738 215.384Z" fill="#8BC5E4"/>
<path fill-rule="evenodd" clip-rule="evenodd" d="M124.647 220.649C124.69 220.734 124.734 220.809 124.777 220.884L176.738 190.884C176.695 190.809 176.652 190.734 176.608 190.649L124.647 220.649Z" fill="#8BC5E4"/>
<path fill-rule="evenodd" clip-rule="evenodd" d="M124.777 220.884C120.975 221.809 116.342 220.964 111.336 218.074L163.298 188.074C168.303 190.964 172.937 191.809 176.738 190.884L124.777 220.884Z" fill="#8BC5E4"/>
<path fill-rule="evenodd" clip-rule="evenodd" d="M111.336 218.074C106.963 215.549 102.875 211.789 99.3765 207.339L151.338 177.339C154.837 181.789 158.924 185.549 163.298 188.074L111.336 218.074Z" fill="#8BC5E4"/>
<path fill-rule="evenodd" clip-rule="evenodd" d="M99.3765 207.339C99.9654 207.583 100.46 207.6 100.865 207.392L152.826 177.392C152.422 177.6 151.927 177.583 151.338 177.339L99.3765 207.339Z" fill="#8BC5E4"/>
<path fill-rule="evenodd" clip-rule="evenodd" d="M100.865 207.392C100.966 207.34 101.062 207.274 101.152 207.194L153.113 177.194C153.023 177.274 152.928 177.34 152.827 177.392L100.865 207.392Z" fill="#8BC5E4"/>
<path fill-rule="evenodd" clip-rule="evenodd" d="M101.152 207.194C101.819 206.599 102.148 205.179 102.148 202.939L154.109 172.939C154.109 175.179 153.78 176.599 153.113 177.194L101.152 207.194Z" fill="#8BC5E4"/>
<path fill-rule="evenodd" clip-rule="evenodd" d="M102.148 202.939C102.148 200.699 101.819 198.899 101.16 197.549L153.122 167.549C153.78 168.899 154.109 170.699 154.109 172.939L102.148 202.939Z" fill="#8BC5E4"/>
<path fill-rule="evenodd" clip-rule="evenodd" d="M101.16 197.549C100.606 196.409 99.8353 195.554 98.8567 194.989L150.818 164.989C151.797 165.554 152.568 166.409 153.122 167.549L101.16 197.549Z" fill="#8BC5E4"/>
<path fill-rule="evenodd" clip-rule="evenodd" d="M98.8568 194.989C98.0275 194.51 97.357 194.413 96.8352 194.678L148.797 164.678C149.319 164.413 149.989 164.51 150.818 164.989L98.8568 194.989Z" fill="#8BC5E4"/>
<path fill-rule="evenodd" clip-rule="evenodd" d="M96.8353 194.678C96.7359 194.729 96.6419 194.793 96.5532 194.869L148.515 164.869C148.603 164.793 148.697 164.729 148.797 164.678L96.8353 194.678Z" fill="#8BC5E4"/>
<path fill-rule="evenodd" clip-rule="evenodd" d="M96.5531 194.869C95.8862 195.464 95.5571 196.884 95.5571 199.114L147.519 169.114C147.519 166.884 147.848 165.464 148.515 164.869L96.5531 194.869Z" fill="#8BC5E4"/>
<path fill-rule="evenodd" clip-rule="evenodd" d="M95.5571 199.114C95.5571 200.284 95.6351 201.309 95.7996 202.214L147.761 172.214C147.597 171.309 147.519 170.284 147.519 169.114L95.5571 199.114Z" fill="#8BC5E4"/>
<path fill-rule="evenodd" clip-rule="evenodd" d="M95.7998 202.214C92.1971 196.394 89.599 189.874 88.5251 183.554L140.487 153.554C141.561 159.874 144.159 166.394 147.761 172.214L95.7998 202.214Z" fill="#8BC5E4"/>
<path fill-rule="evenodd" clip-rule="evenodd" d="M88.5251 183.554C88.6724 183.659 88.8283 183.769 88.9841 183.859L140.946 153.859C140.79 153.769 140.634 153.659 140.487 153.554L88.5251 183.554Z" fill="#8BC5E4"/>
<path fill-rule="evenodd" clip-rule="evenodd" d="M88.9841 183.859C89.8134 184.338 90.4839 184.436 91.0057 184.165L142.967 154.165C142.445 154.436 141.775 154.338 140.946 153.859L88.9841 183.859Z" fill="#8BC5E4"/>
<path fill-rule="evenodd" clip-rule="evenodd" d="M91.0056 184.164C91.105 184.113 91.199 184.048 91.2877 183.969L143.249 153.969C143.161 154.048 143.067 154.113 142.967 154.164L91.0056 184.164Z" fill="#8BC5E4"/>
<path fill-rule="evenodd" clip-rule="evenodd" d="M91.2878 183.969C91.946 183.379 92.2838 181.954 92.2838 179.714L144.245 149.714C144.245 151.954 143.908 153.379 143.249 153.969L91.2878 183.969Z" fill="#8BC5E4"/>
<path fill-rule="evenodd" clip-rule="evenodd" d="M92.2837 179.714C92.2837 177.474 91.9546 175.674 91.2964 174.324L143.258 144.324C143.916 145.674 144.245 147.474 144.245 149.714L92.2837 179.714Z" fill="#8BC5E4"/>
<path fill-rule="evenodd" clip-rule="evenodd" d="M91.2964 174.324C90.7335 173.179 89.9714 172.329 88.9841 171.759L140.946 141.759C141.933 142.329 142.695 143.179 143.258 144.324L91.2964 174.324Z" fill="#8BC5E4"/>
<path fill-rule="evenodd" clip-rule="evenodd" d="M88.9841 171.759C88.8455 171.679 88.7069 171.609 88.5684 171.549L140.53 141.549C140.668 141.609 140.807 141.679 140.946 141.759L88.9841 171.759Z" fill="#8BC5E4"/>
<path fill-rule="evenodd" clip-rule="evenodd" d="M88.5684 171.549C89.5591 167.052 91.7637 163.799 94.7986 162.002L146.76 132.002C143.725 133.799 141.521 137.052 140.53 141.549L88.5684 171.549Z" fill="#8BC5E4"/>
<path fill-rule="evenodd" clip-rule="evenodd" d="M94.7986 162.002C95.2124 161.757 95.6417 161.54 96.0855 161.349L148.047 131.349C147.603 131.54 147.174 131.757 146.76 132.002L94.7986 162.002Z" fill="#8BC5E4"/>
<path fill-rule="evenodd" clip-rule="evenodd" d="M96.0855 161.349C95.921 162.054 95.843 162.949 95.843 164.049L147.805 134.049C147.805 132.949 147.882 132.054 148.047 131.349L96.0855 161.349Z" fill="#8BC5E4"/>
<path fill-rule="evenodd" clip-rule="evenodd" d="M95.843 164.049C95.843 166.319 96.1461 168.074 96.7523 169.314L148.714 139.314C148.108 138.074 147.805 136.319 147.805 134.049L95.843 164.049Z" fill="#8BC5E4"/>
<path fill-rule="evenodd" clip-rule="evenodd" d="M96.7524 169.314C97.3587 170.544 98.1554 171.454 99.1427 172.024L151.104 142.024C150.117 141.454 149.32 140.544 148.714 139.314L96.7524 169.314Z" fill="#8BC5E4"/>
<path fill-rule="evenodd" clip-rule="evenodd" d="M99.1426 172.024C99.9646 172.499 100.64 172.599 101.158 172.332L153.12 142.332C152.602 142.599 151.926 142.499 151.104 142.024L99.1426 172.024Z" fill="#8BC5E4"/>
<path fill-rule="evenodd" clip-rule="evenodd" d="M101.158 172.332C101.257 172.281 101.35 172.217 101.438 172.139L153.399 142.139C153.312 142.217 153.219 142.281 153.12 142.332L101.158 172.332Z" fill="#8BC5E4"/>
<path fill-rule="evenodd" clip-rule="evenodd" d="M101.438 172.139C102.104 171.534 102.433 170.114 102.433 167.874L154.395 137.874C154.395 140.114 154.066 141.534 153.399 142.139L101.438 172.139Z" fill="#8BC5E4"/>
<path fill-rule="evenodd" clip-rule="evenodd" d="M102.434 167.874C102.434 165.634 102.104 163.834 101.446 162.484L153.408 132.484C154.066 133.834 154.395 135.634 154.395 137.874L102.434 167.874Z" fill="#8BC5E4"/>
<path fill-rule="evenodd" clip-rule="evenodd" d="M101.446 162.484C101.039 161.649 100.511 160.964 99.8787 160.439L151.84 130.439C152.472 130.964 153.001 131.649 153.408 132.484L101.446 162.484Z" fill="#8BC5E4"/>
<path fill-rule="evenodd" clip-rule="evenodd" d="M99.8787 160.439C103.256 160.169 107.171 161.159 111.336 163.564L163.298 133.564C159.132 131.159 155.218 130.169 151.84 130.439L99.8787 160.439Z" fill="#8BC5E4"/>
<path fill-rule="evenodd" clip-rule="evenodd" d="M111.336 159.394C105.43 155.984 99.9566 155.054 95.5139 156.269L147.475 126.269C151.918 125.054 157.391 125.984 163.298 129.394L111.336 159.394Z" fill="#8BC5E4"/>
<path fill-rule="evenodd" clip-rule="evenodd" d="M48.6965 129.239C47.3933 128.487 46.3011 128.546 45.4329 128.998L97.3944 98.998C98.2626 98.5458 99.3548 98.4869 100.658 99.2393L48.6965 129.239Z" fill="#8BC5E4"/>
<path fill-rule="evenodd" clip-rule="evenodd" d="M45.4331 128.998C45.0954 129.174 44.7916 129.409 44.5225 129.679L96.484 99.6792C96.7531 99.409 97.0569 99.1736 97.3946 98.9978L45.4331 128.998Z" fill="#8BC5E4"/>
<path fill-rule="evenodd" clip-rule="evenodd" d="M44.5224 129.679C43.5611 130.644 42.8423 132.119 42.2361 134.019L94.1976 104.019C94.8038 102.119 95.5226 100.644 96.4839 99.6792L44.5224 129.679Z" fill="#8BC5E4"/>
<path fill-rule="evenodd" clip-rule="evenodd" d="M42.2361 134.019C41.0323 137.804 40.3481 143.319 40.3481 149.829L92.3097 119.829C92.3097 113.319 92.9938 107.804 94.1976 104.019L42.2361 134.019Z" fill="#8BC5E4"/>
<path fill-rule="evenodd" clip-rule="evenodd" d="M40.3481 149.829C40.3481 156.349 41.0323 162.644 42.2361 167.829L94.1976 137.829C92.9938 132.644 92.3097 126.349 92.3097 119.829L40.3481 149.829Z" fill="#8BC5E4"/>
<path fill-rule="evenodd" clip-rule="evenodd" d="M42.2361 167.829C42.8423 170.419 43.5611 172.734 44.5224 174.809L96.4839 144.809C95.5226 142.734 94.8038 140.419 94.1976 137.829L42.2361 167.829Z" fill="#8BC5E4"/>
<path fill-rule="evenodd" clip-rule="evenodd" d="M44.5225 174.809C45.4837 176.884 46.8867 179.024 48.6967 180.069L100.658 150.069C98.8482 149.024 97.4453 146.884 96.484 144.809L44.5225 174.809Z" fill="#8BC5E4"/>
<path fill-rule="evenodd" clip-rule="evenodd" d="M95.5139 207.099C99.9566 213.434 105.43 218.834 111.336 222.244L163.298 192.244C157.391 188.834 151.918 183.434 147.475 177.099L95.5139 207.099Z" fill="#8BC5E4"/>
<path fill-rule="evenodd" clip-rule="evenodd" d="M111.336 222.244C117.242 225.654 122.716 226.574 127.158 225.369L179.12 195.369C174.677 196.574 169.204 195.654 163.298 192.244L111.336 222.244Z" fill="#8BC5E4"/>
<path fill-rule="evenodd" clip-rule="evenodd" d="M173.205 251.954C174.508 252.707 175.605 252.65 176.476 252.2L228.437 222.2C227.566 222.65 226.47 222.707 225.167 221.954L173.205 251.954Z" fill="#8BC5E4"/>
<path fill-rule="evenodd" clip-rule="evenodd" d="M176.476 252.2C176.814 252.024 177.119 251.789 177.388 251.519L229.349 221.519C229.08 221.789 228.776 222.024 228.437 222.2L176.476 252.2Z" fill="#8BC5E4"/>
<path fill-rule="evenodd" clip-rule="evenodd" d="M177.388 251.519C178.349 250.554 179.068 249.069 179.665 247.174L231.627 217.174C231.029 219.069 230.311 220.554 229.349 221.519L177.388 251.519Z" fill="#8BC5E4"/>
<path fill-rule="evenodd" clip-rule="evenodd" d="M179.666 247.174C180.869 243.379 181.562 237.879 181.562 231.359L233.524 201.359C233.524 207.879 232.831 213.379 231.627 217.174L179.666 247.174Z" fill="#8BC5E4"/>
<path fill-rule="evenodd" clip-rule="evenodd" d="M181.562 231.359C181.562 224.849 180.869 218.539 179.666 213.364L231.627 183.364C232.831 188.539 233.524 194.849 233.524 201.359L181.562 231.359Z" fill="#8BC5E4"/>
<path fill-rule="evenodd" clip-rule="evenodd" d="M179.665 213.364C179.068 210.769 178.349 208.464 177.388 206.389L229.349 176.389C230.311 178.464 231.029 180.769 231.627 183.364L179.665 213.364Z" fill="#8BC5E4"/>
<path fill-rule="evenodd" clip-rule="evenodd" d="M177.388 206.389C176.427 204.314 175.015 202.169 173.205 201.124L225.167 171.124C226.977 172.169 228.388 174.314 229.35 176.389L177.388 206.389Z" fill="#8BC5E4"/>
<path fill-rule="evenodd" clip-rule="evenodd" d="M127.158 174.539C122.716 168.194 117.242 162.804 111.336 159.394L163.298 129.394C169.204 132.804 174.677 138.194 179.12 144.539L127.158 174.539Z" fill="#8BC5E4"/>
<path d="M10.4616 36.9242L211.232 152.839C214.454 154.699 216.974 159.084 216.974 162.844V338.414C216.974 342.174 214.454 343.659 211.232 341.799L10.4616 225.884C7.24863 224.029 4.7285 219.634 4.7285 215.874V40.3042C4.7285 36.5442 7.24863 35.0692 10.4616 36.9242ZM10.4616 31.4042C4.71118 28.0842 0 30.8542 0 37.5742V213.144C0 219.864 4.71118 228.084 10.4616 231.404L211.232 347.319C216.991 350.644 221.702 347.864 221.702 341.144V165.574C221.702 158.854 216.991 150.644 211.232 147.319L10.4616 31.4042ZM127.037 213.139C127.271 213.274 127.479 213.484 127.661 213.769C127.843 214.044 127.999 214.484 128.12 215.074C128.241 215.664 128.302 216.649 128.302 218.039C128.302 218.559 128.284 218.999 128.267 219.389C127.618 219.804 126.933 220.159 126.206 220.439C126.111 220.194 126.033 219.909 125.955 219.554C125.833 218.964 125.782 217.974 125.782 216.584C125.782 215.194 125.842 214.239 125.981 213.739C126.085 213.349 126.223 213.109 126.405 213.044C126.596 212.974 126.803 213.004 127.037 213.139ZM116.931 207.304C117.173 207.444 117.372 207.649 117.554 207.934C117.745 208.214 117.892 208.649 118.013 209.239C118.135 209.829 118.195 210.814 118.195 212.204C118.195 213.594 118.126 214.544 117.996 215.049C117.892 215.439 117.745 215.674 117.563 215.749C117.381 215.814 117.173 215.774 116.931 215.634C116.697 215.499 116.489 215.299 116.299 215.019C116.125 214.739 115.978 214.314 115.857 213.724C115.736 213.134 115.675 212.139 115.675 210.749C115.675 209.359 115.744 208.409 115.874 207.904C115.978 207.514 116.117 207.274 116.299 207.209C116.489 207.139 116.697 207.169 116.931 207.304ZM98.8568 196.869C99.0906 197.004 99.2985 197.214 99.4803 197.499C99.6622 197.774 99.8094 198.209 99.9307 198.799C100.052 199.389 100.113 200.374 100.113 201.764C100.113 203.154 100.043 204.104 99.9134 204.609C99.8094 204.999 99.6709 205.239 99.4803 205.309C99.2985 205.374 99.0906 205.334 98.8568 205.199C98.6143 205.059 98.4065 204.859 98.2246 204.584C98.0427 204.299 97.8955 203.874 97.7743 203.284C97.653 202.694 97.5924 201.699 97.5924 200.309C97.5924 198.919 97.6617 197.969 97.7916 197.464C97.8955 197.074 98.0341 196.834 98.2246 196.774C98.4065 196.699 98.6143 196.729 98.8568 196.869ZM107.716 200.204C107.5 200.799 107.084 201.199 106.495 201.399C105.898 201.594 105.343 201.644 104.841 201.544V203.604C105.802 203.789 106.642 203.694 107.353 203.334V211.884L109.292 213.004V201.114L107.716 200.204ZM116.931 205.424C115.952 204.859 115.181 204.824 114.636 205.309C113.969 205.904 113.64 207.324 113.64 209.554C113.64 211.824 113.943 213.579 114.541 214.814C115.147 216.044 115.943 216.944 116.931 217.514C117.918 218.084 118.68 218.124 119.234 217.634C119.901 217.039 120.23 215.619 120.23 213.379C120.23 211.139 119.901 209.339 119.243 207.989C118.689 206.849 117.918 205.994 116.931 205.424ZM131.939 198.439C132.181 198.579 132.381 198.784 132.563 199.069C132.753 199.349 132.9 199.784 133.022 200.374C133.143 200.964 133.203 201.949 133.203 203.339C133.203 204.729 133.134 205.679 133.004 206.184C132.9 206.574 132.753 206.809 132.571 206.874C132.389 206.949 132.181 206.909 131.939 206.769C131.705 206.634 131.497 206.434 131.307 206.144C131.134 205.874 130.986 205.449 130.865 204.859C130.744 204.269 130.683 203.274 130.683 201.884C130.683 200.494 130.753 199.554 130.882 199.039C130.986 198.649 131.125 198.409 131.307 198.344C131.497 198.274 131.705 198.304 131.939 198.439ZM114.922 188.614C115.164 188.754 115.363 188.959 115.545 189.244C115.736 189.524 115.883 189.959 116.004 190.549C116.125 191.139 116.186 192.124 116.186 193.514C116.186 194.904 116.117 195.854 115.987 196.359C115.883 196.749 115.744 196.989 115.554 197.049C115.372 197.124 115.164 197.084 114.922 196.944C114.688 196.809 114.48 196.609 114.289 196.319C114.116 196.049 113.969 195.624 113.848 195.034C113.726 194.444 113.666 193.449 113.666 192.059C113.666 190.669 113.735 189.729 113.865 189.214C113.969 188.824 114.108 188.584 114.289 188.519C114.48 188.449 114.688 188.479 114.922 188.614ZM105.707 183.294C105.941 183.429 106.149 183.639 106.331 183.924C106.512 184.199 106.668 184.639 106.79 185.229C106.911 185.819 106.963 186.799 106.963 188.189C106.963 189.579 106.902 190.534 106.764 191.034C106.668 191.429 106.521 191.664 106.339 191.729C106.149 191.799 105.941 191.759 105.707 191.624C105.473 191.489 105.265 191.289 105.075 190.999C104.893 190.724 104.746 190.299 104.625 189.709C104.503 189.119 104.451 188.129 104.451 186.739C104.451 185.349 104.512 184.404 104.651 183.894C104.746 183.499 104.893 183.264 105.075 183.199C105.265 183.129 105.473 183.159 105.707 183.294ZM88.9841 173.639C89.2179 173.774 89.4258 173.984 89.6077 174.269C89.7895 174.544 89.9454 174.984 90.0666 175.574C90.1879 176.164 90.2485 177.149 90.2485 178.539C90.2485 179.929 90.1792 180.879 90.0407 181.379C89.9454 181.774 89.7982 182.009 89.6163 182.074C89.4258 182.144 89.2179 182.104 88.9841 181.969C88.7503 181.834 88.5424 181.634 88.3519 181.344C88.2913 181.249 88.2307 181.124 88.17 180.979C88.0488 179.749 87.9795 178.529 87.9795 177.329C87.9795 176.039 88.0575 174.804 88.2047 173.649C88.2567 173.609 88.2999 173.564 88.3519 173.544C88.5424 173.474 88.7503 173.504 88.9841 173.639ZM123.495 191.784C123.27 192.374 122.863 192.779 122.265 192.974C121.677 193.174 121.122 193.224 120.611 193.119V195.179C121.581 195.369 122.413 195.279 123.123 194.909V203.469L125.071 204.594V192.694L123.495 191.784ZM97.4971 176.774C97.272 177.364 96.8649 177.769 96.2674 177.964C95.6698 178.159 95.1242 178.214 94.6133 178.109V180.169C95.5832 180.359 96.4146 180.269 97.1247 179.899V188.459L99.0733 189.584V177.684L97.4971 176.774ZM114.922 186.734C113.943 186.169 113.172 186.134 112.627 186.619C111.96 187.214 111.631 188.634 111.631 190.864C111.631 193.134 111.934 194.889 112.531 196.124C113.138 197.354 113.934 198.264 114.922 198.834C115.909 199.404 116.671 199.434 117.225 198.944C117.892 198.359 118.221 196.929 118.221 194.689C118.221 192.449 117.892 190.649 117.234 189.299C116.68 188.159 115.909 187.304 114.922 186.734ZM105.707 181.414C104.72 180.844 103.958 180.814 103.403 181.294C102.745 181.894 102.408 183.309 102.408 185.539C102.408 187.809 102.711 189.564 103.317 190.804C103.923 192.034 104.72 192.944 105.707 193.514C106.694 194.084 107.456 194.114 108.011 193.624C108.669 193.034 109.007 191.609 109.007 189.369C109.007 187.129 108.678 185.329 108.011 183.974C107.456 182.834 106.694 181.984 105.707 181.414ZM48.6966 134.479C48.7572 134.554 48.9478 134.804 49.2855 135.529C49.7878 136.609 50.3854 138.394 50.8876 140.564C51.9009 144.919 52.5764 150.819 52.5764 156.889C52.5764 162.969 51.9009 168.089 50.8876 171.264C50.3854 172.864 49.7878 173.959 49.2855 174.459C48.9478 174.794 48.7572 174.824 48.6966 174.829C48.636 174.754 48.4455 174.504 48.1077 173.779C47.6141 172.704 47.0079 170.914 46.5056 168.734C45.4923 164.389 44.8082 158.484 44.8082 152.404C44.8082 146.334 45.4923 141.219 46.5056 138.034C47.0079 136.444 47.6141 135.354 48.1077 134.849C48.4455 134.514 48.636 134.484 48.6966 134.479ZM117.173 172.214C117.407 172.349 117.615 172.559 117.797 172.844C117.979 173.119 118.126 173.554 118.247 174.144C118.368 174.734 118.429 175.719 118.429 177.109C118.429 178.499 118.36 179.449 118.23 179.954C118.126 180.344 117.987 180.584 117.797 180.654C117.615 180.719 117.407 180.689 117.173 180.554C116.931 180.414 116.723 180.204 116.541 179.929C116.359 179.644 116.212 179.219 116.091 178.629C115.969 178.039 115.909 177.044 115.909 175.654C115.909 174.264 115.978 173.314 116.108 172.809C116.212 172.419 116.351 172.179 116.541 172.119C116.723 172.044 116.931 172.074 117.173 172.214ZM99.1426 161.804C99.3764 161.939 99.5843 162.149 99.7661 162.434C99.948 162.709 100.104 163.149 100.225 163.739C100.338 164.324 100.398 165.309 100.398 166.699C100.398 168.089 100.329 169.039 100.199 169.544C100.095 169.934 99.9566 170.174 99.7661 170.244C99.5843 170.309 99.3764 170.279 99.1426 170.144C98.9088 170.009 98.6923 169.794 98.5104 169.519C98.3285 169.234 98.1813 168.809 98.0601 168.219C97.9388 167.629 97.8782 166.634 97.8782 165.244C97.8782 163.854 97.9475 162.904 98.0774 162.399C98.1813 162.009 98.3285 161.774 98.5104 161.709C98.6923 161.634 98.9088 161.669 99.1426 161.804ZM108.418 165.379C108.193 165.979 107.786 166.374 107.188 166.569C106.599 166.769 106.045 166.819 105.534 166.714V168.774C106.504 168.964 107.344 168.869 108.054 168.509V177.059L109.994 178.179V166.289L108.418 165.379ZM117.173 170.334C116.186 169.764 115.424 169.734 114.87 170.214C114.203 170.809 113.874 172.229 113.874 174.459C113.874 176.729 114.177 178.484 114.783 179.724C115.389 180.954 116.186 181.864 117.173 182.434C118.152 182.999 118.923 183.034 119.468 182.549C120.135 181.944 120.464 180.524 120.464 178.284C120.464 176.044 120.135 174.244 119.477 172.894C118.923 171.754 118.152 170.899 117.173 170.334ZM111.336 163.564C116.61 166.609 121.477 171.449 125.383 177.134C124.82 177.319 124.292 177.354 123.807 177.264V179.324C124.768 179.509 125.608 179.414 126.318 179.054V187.604L128.258 188.724V181.784C131.359 187.364 133.524 193.454 134.338 199.314C134.312 199.259 134.277 199.189 134.251 199.124C133.697 197.984 132.926 197.129 131.939 196.559C130.96 195.994 130.19 195.959 129.644 196.444C128.977 197.039 128.648 198.459 128.648 200.689C128.648 202.959 128.951 204.714 129.549 205.949C130.155 207.179 130.952 208.089 131.939 208.659C132.926 209.229 133.688 209.259 134.243 208.769C134.286 208.734 134.338 208.684 134.372 208.624C133.775 212.519 132.337 215.579 130.276 217.719C130.164 216.164 129.852 214.854 129.341 213.819C128.787 212.679 128.025 211.829 127.037 211.259C126.059 210.694 125.288 210.659 124.734 211.139C124.075 211.739 123.738 213.154 123.738 215.384C123.738 217.654 124.041 219.409 124.647 220.649C124.69 220.734 124.734 220.809 124.777 220.884C120.975 221.809 116.342 220.964 111.336 218.074C106.963 215.549 102.875 211.789 99.3764 207.339C100.113 207.644 100.701 207.594 101.152 207.194C101.819 206.599 102.148 205.179 102.148 202.939C102.148 200.699 101.819 198.899 101.16 197.549C100.606 196.409 99.8354 195.554 98.8568 194.989C97.8695 194.419 97.1074 194.389 96.5532 194.869C95.8863 195.464 95.5572 196.884 95.5572 199.114C95.5572 200.284 95.6352 201.309 95.7997 202.214C92.1971 196.394 89.599 189.874 88.5251 183.554C88.6723 183.659 88.8282 183.769 88.9841 183.859C89.9714 184.429 90.7335 184.459 91.2877 183.969C91.9459 183.379 92.2837 181.954 92.2837 179.714C92.2837 177.474 91.9546 175.674 91.2964 174.324C90.7335 173.179 89.9714 172.329 88.9841 171.759C88.8455 171.679 88.707 171.609 88.5684 171.549C89.6942 166.439 92.3876 162.934 96.0855 161.349C95.921 162.054 95.843 162.949 95.843 164.049C95.843 166.319 96.1461 168.074 96.7524 169.314C97.3586 170.544 98.1553 171.454 99.1426 172.024C100.121 172.589 100.892 172.624 101.438 172.139C102.104 171.534 102.433 170.114 102.433 167.874C102.433 165.634 102.104 163.834 101.446 162.484C101.039 161.649 100.511 160.964 99.8787 160.439C103.256 160.169 107.171 161.159 111.336 163.564ZM111.336 159.394C105.43 155.984 99.9566 155.054 95.5139 156.269L48.6966 129.239C46.8866 128.194 45.4837 128.714 44.5224 129.679C43.5611 130.644 42.8423 132.119 42.2361 134.019C41.0323 137.804 40.3481 143.319 40.3481 149.829C40.3481 156.349 41.0323 162.644 42.2361 167.829C42.8423 170.419 43.5611 172.734 44.5224 174.809C45.4837 176.884 46.8866 179.024 48.6966 180.069L95.5139 207.099C99.9566 213.434 105.43 218.834 111.336 222.244C117.243 225.654 122.716 226.574 127.159 225.369L173.205 251.954C175.015 252.999 176.427 252.484 177.388 251.519C178.349 250.554 179.068 249.069 179.666 247.174C180.869 243.379 181.562 237.879 181.562 231.359C181.562 224.849 180.869 218.539 179.666 213.364C179.068 210.769 178.349 208.464 177.388 206.389C176.427 204.314 175.015 202.169 173.205 201.124L127.159 174.539C122.716 168.194 117.243 162.804 111.336 159.394Z" fill="#8BC5E4"/>
<path fill-rule="evenodd" clip-rule="evenodd" d="M10.4616 36.9242L211.232 152.839C214.454 154.699 216.974 159.084 216.974 162.844V338.414C216.974 342.174 214.454 343.659 211.232 341.799L10.4616 225.884C7.24863 224.029 4.7285 219.634 4.7285 215.874V40.3042C4.7285 36.5442 7.24863 35.0692 10.4616 36.9242ZM95.5139 156.269C99.9566 155.054 105.43 155.984 111.336 159.394C117.243 162.804 122.716 168.194 127.159 174.539L173.205 201.124C175.015 202.169 176.427 204.314 177.388 206.389C178.349 208.464 179.068 210.769 179.666 213.364C180.869 218.539 181.562 224.849 181.562 231.359C181.562 237.879 180.869 243.379 179.666 247.174C179.068 249.069 178.349 250.554 177.388 251.519C176.427 252.484 175.015 252.999 173.205 251.954L127.159 225.369C122.716 226.574 117.243 225.654 111.336 222.244C105.43 218.834 99.9566 213.434 95.5139 207.099L48.6966 180.069C46.8866 179.024 45.4837 176.884 44.5224 174.809C43.5611 172.734 42.8423 170.419 42.2361 167.829C41.0323 162.644 40.3481 156.349 40.3481 149.829C40.3481 143.319 41.0323 137.804 42.2361 134.019C42.8423 132.119 43.5611 130.644 44.5224 129.679C45.4837 128.714 46.8866 128.194 48.6966 129.239L95.5139 156.269Z" fill="white"/>
<path fill-rule="evenodd" clip-rule="evenodd" d="M111.336 163.564C116.61 166.609 121.477 171.449 125.383 177.134C124.82 177.319 124.292 177.354 123.807 177.264V179.324C124.768 179.509 125.608 179.414 126.318 179.054V187.604L128.258 188.724V181.784C131.359 187.364 133.524 193.454 134.338 199.314C134.312 199.259 134.277 199.189 134.251 199.124C133.697 197.984 132.926 197.129 131.939 196.559C130.96 195.994 130.19 195.959 129.644 196.444C128.977 197.039 128.648 198.459 128.648 200.689C128.648 202.959 128.951 204.714 129.549 205.949C130.155 207.179 130.952 208.089 131.939 208.659C132.926 209.229 133.688 209.259 134.243 208.769C134.286 208.734 134.338 208.684 134.372 208.624C133.775 212.519 132.337 215.579 130.276 217.719C130.164 216.164 129.852 214.854 129.341 213.819C128.787 212.679 128.025 211.829 127.037 211.259C126.059 210.694 125.288 210.659 124.734 211.139C124.075 211.739 123.738 213.154 123.738 215.384C123.738 217.654 124.041 219.409 124.647 220.649C124.69 220.734 124.734 220.809 124.777 220.884C120.975 221.809 116.342 220.964 111.336 218.074C106.963 215.549 102.875 211.789 99.3764 207.339C100.113 207.644 100.701 207.594 101.152 207.194C101.819 206.599 102.148 205.179 102.148 202.939C102.148 200.699 101.819 198.899 101.16 197.549C100.606 196.409 99.8354 195.554 98.8568 194.989C97.8695 194.419 97.1074 194.389 96.5532 194.869C95.8863 195.464 95.5572 196.884 95.5572 199.114C95.5572 200.284 95.6352 201.309 95.7997 202.214C92.1971 196.394 89.599 189.874 88.5251 183.554C88.6723 183.659 88.8282 183.769 88.9841 183.859C89.9714 184.429 90.7335 184.459 91.2877 183.969C91.9459 183.379 92.2837 181.954 92.2837 179.714C92.2837 177.474 91.9546 175.674 91.2964 174.324C90.7335 173.179 89.9714 172.329 88.9841 171.759C88.8455 171.679 88.707 171.609 88.5684 171.549C89.6942 166.439 92.3876 162.934 96.0855 161.349C95.921 162.054 95.843 162.949 95.843 164.049C95.843 166.319 96.1461 168.074 96.7524 169.314C97.3586 170.544 98.1553 171.454 99.1426 172.024C100.121 172.589 100.892 172.624 101.438 172.139C102.104 171.534 102.433 170.114 102.433 167.874C102.433 165.634 102.104 163.834 101.446 162.484C101.039 161.649 100.511 160.964 99.8787 160.439C103.256 160.169 107.171 161.159 111.336 163.564ZM106.495 201.399C107.084 201.199 107.5 200.799 107.716 200.204L109.292 201.114V213.004L107.353 211.884V203.334C106.642 203.694 105.802 203.789 104.841 203.604V201.544C105.343 201.644 105.898 201.594 106.495 201.399ZM114.636 205.309C115.181 204.824 115.952 204.859 116.931 205.424C117.918 205.994 118.689 206.849 119.243 207.989C119.901 209.339 120.23 211.139 120.23 213.379C120.23 215.619 119.901 217.039 119.234 217.634C118.68 218.124 117.918 218.084 116.931 217.514C115.943 216.944 115.147 216.044 114.541 214.814C113.943 213.579 113.64 211.824 113.64 209.554C113.64 207.324 113.969 205.904 114.636 205.309ZM122.265 192.974C122.863 192.779 123.27 192.374 123.495 191.784L125.071 192.694V204.594L123.123 203.469V194.909C122.413 195.279 121.581 195.369 120.611 195.179V193.119C121.122 193.224 121.677 193.174 122.265 192.974ZM96.2674 177.964C96.8649 177.769 97.272 177.364 97.4971 176.774L99.0733 177.684V189.584L97.1247 188.459V179.899C96.4146 180.269 95.5832 180.359 94.6133 180.169V178.109C95.1242 178.214 95.6698 178.159 96.2674 177.964ZM112.627 186.619C113.172 186.134 113.943 186.169 114.922 186.734C115.909 187.304 116.68 188.159 117.234 189.299C117.892 190.649 118.221 192.449 118.221 194.689C118.221 196.929 117.892 198.359 117.225 198.944C116.671 199.434 115.909 199.404 114.922 198.834C113.934 198.264 113.138 197.354 112.531 196.124C111.934 194.889 111.631 193.134 111.631 190.864C111.631 188.634 111.96 187.214 112.627 186.619ZM103.403 181.294C103.958 180.814 104.72 180.844 105.707 181.414C106.694 181.984 107.456 182.834 108.011 183.974C108.678 185.329 109.007 187.129 109.007 189.369C109.007 191.609 108.669 193.034 108.011 193.624C107.456 194.114 106.694 194.084 105.707 193.514C104.72 192.944 103.923 192.034 103.317 190.804C102.711 189.564 102.408 187.809 102.408 185.539C102.408 183.309 102.745 181.894 103.403 181.294ZM107.188 166.569C107.786 166.374 108.193 165.979 108.418 165.379L109.994 166.289V178.179L108.054 177.059V168.509C107.344 168.869 106.504 168.964 105.534 168.774V166.714C106.045 166.819 106.599 166.769 107.188 166.569ZM114.87 170.214C115.424 169.734 116.186 169.764 117.173 170.334C118.152 170.899 118.923 171.754 119.477 172.894C120.135 174.244 120.464 176.044 120.464 178.284C120.464 180.524 120.135 181.944 119.468 182.549C118.923 183.034 118.152 182.999 117.173 182.434C116.186 181.864 115.389 180.954 114.783 179.724C114.177 178.484 113.874 176.729 113.874 174.459C113.874 172.229 114.203 170.809 114.87 170.214Z" fill="white"/>
<path d="M48.6966 134.479C48.7572 134.554 48.9478 134.804 49.2855 135.529C49.7878 136.609 50.3854 138.394 50.8876 140.564C51.9009 144.919 52.5764 150.819 52.5764 156.889C52.5764 162.969 51.9009 168.089 50.8876 171.264C50.3854 172.864 49.7878 173.959 49.2855 174.459C48.9478 174.794 48.7572 174.824 48.6966 174.829C48.636 174.754 48.4455 174.504 48.1077 173.779C47.6141 172.704 47.0079 170.914 46.5056 168.734C45.4923 164.389 44.8082 158.484 44.8082 152.404C44.8082 146.334 45.4923 141.219 46.5056 138.034C47.0079 136.444 47.6141 135.354 48.1077 134.849C48.4455 134.514 48.636 134.484 48.6966 134.479Z" fill="white"/>
<path d="M114.922 188.614C115.164 188.754 115.363 188.959 115.545 189.244C115.736 189.524 115.883 189.959 116.004 190.549C116.125 191.139 116.186 192.124 116.186 193.514C116.186 194.904 116.117 195.854 115.987 196.359C115.883 196.749 115.744 196.989 115.554 197.049C115.372 197.124 115.164 197.084 114.922 196.944C114.688 196.809 114.48 196.609 114.289 196.319C114.116 196.049 113.969 195.624 113.848 195.034C113.726 194.444 113.666 193.449 113.666 192.059C113.666 190.669 113.735 189.729 113.865 189.214C113.969 188.824 114.108 188.584 114.289 188.519C114.48 188.449 114.688 188.479 114.922 188.614Z" fill="white"/>
<path d="M117.173 172.214C117.407 172.349 117.615 172.559 117.797 172.844C117.979 173.119 118.126 173.554 118.247 174.144C118.368 174.734 118.429 175.719 118.429 177.109C118.429 178.499 118.36 179.449 118.23 179.954C118.126 180.344 117.987 180.584 117.797 180.654C117.615 180.719 117.407 180.689 117.173 180.554C116.931 180.414 116.723 180.204 116.541 179.929C116.359 179.644 116.212 179.219 116.091 178.629C115.969 178.039 115.909 177.044 115.909 175.654C115.909 174.264 115.978 173.314 116.108 172.809C116.212 172.419 116.351 172.179 116.541 172.119C116.723 172.044 116.931 172.074 117.173 172.214Z" fill="white"/>
<path d="M99.1426 161.804C99.3764 161.939 99.5843 162.149 99.7661 162.434C99.948 162.709 100.104 163.149 100.225 163.739C100.338 164.324 100.398 165.309 100.398 166.699C100.398 168.089 100.329 169.039 100.199 169.544C100.095 169.934 99.9566 170.174 99.7661 170.244C99.5843 170.309 99.3764 170.279 99.1426 170.144C98.9088 170.009 98.6923 169.794 98.5104 169.519C98.3285 169.234 98.1813 168.809 98.0601 168.219C97.9388 167.629 97.8782 166.634 97.8782 165.244C97.8782 163.854 97.9475 162.904 98.0774 162.399C98.1813 162.009 98.3285 161.774 98.5104 161.709C98.6923 161.634 98.9088 161.669 99.1426 161.804Z" fill="white"/>
<path d="M131.939 198.439C132.181 198.579 132.381 198.784 132.563 199.069C132.753 199.349 132.9 199.784 133.022 200.374C133.143 200.964 133.203 201.949 133.203 203.339C133.203 204.729 133.134 205.679 133.004 206.184C132.9 206.574 132.753 206.809 132.571 206.874C132.389 206.949 132.181 206.909 131.939 206.769C131.705 206.634 131.497 206.434 131.307 206.144C131.134 205.874 130.986 205.449 130.865 204.859C130.744 204.269 130.683 203.274 130.683 201.884C130.683 200.494 130.753 199.554 130.882 199.039C130.986 198.649 131.125 198.409 131.307 198.344C131.497 198.274 131.705 198.304 131.939 198.439Z" fill="white"/>
<path d="M127.037 213.139C127.271 213.274 127.479 213.484 127.661 213.769C127.843 214.044 127.999 214.484 128.12 215.074C128.241 215.664 128.302 216.649 128.302 218.039C128.302 218.559 128.284 218.999 128.267 219.389C127.618 219.804 126.933 220.159 126.206 220.439C126.111 220.194 126.033 219.909 125.955 219.554C125.833 218.964 125.782 217.974 125.782 216.584C125.782 215.194 125.842 214.239 125.981 213.739C126.085 213.349 126.223 213.109 126.405 213.044C126.596 212.974 126.803 213.004 127.037 213.139Z" fill="white"/>
<path d="M116.931 207.304C117.173 207.444 117.372 207.649 117.554 207.934C117.745 208.214 117.892 208.649 118.013 209.239C118.135 209.829 118.195 210.814 118.195 212.204C118.195 213.594 118.126 214.544 117.996 215.049C117.892 215.439 117.745 215.674 117.563 215.749C117.381 215.814 117.173 215.774 116.931 215.634C116.697 215.499 116.489 215.299 116.299 215.019C116.125 214.739 115.978 214.314 115.857 213.724C115.736 213.134 115.675 212.139 115.675 210.749C115.675 209.359 115.744 208.409 115.874 207.904C115.978 207.514 116.117 207.274 116.299 207.209C116.489 207.139 116.697 207.169 116.931 207.304Z" fill="white"/>
<path d="M98.8568 196.869C99.0906 197.004 99.2985 197.214 99.4803 197.499C99.6622 197.774 99.8094 198.209 99.9307 198.799C100.052 199.389 100.113 200.374 100.113 201.764C100.113 203.154 100.043 204.104 99.9134 204.609C99.8094 204.999 99.6709 205.239 99.4803 205.309C99.2985 205.374 99.0906 205.334 98.8568 205.199C98.6143 205.059 98.4065 204.859 98.2246 204.584C98.0427 204.299 97.8955 203.874 97.7743 203.284C97.653 202.694 97.5924 201.699 97.5924 200.309C97.5924 198.919 97.6617 197.969 97.7916 197.464C97.8955 197.074 98.0341 196.834 98.2246 196.774C98.4065 196.699 98.6143 196.729 98.8568 196.869Z" fill="white"/>
<path d="M105.707 183.294C105.941 183.429 106.149 183.639 106.331 183.924C106.512 184.199 106.668 184.639 106.79 185.229C106.911 185.819 106.963 186.799 106.963 188.189C106.963 189.579 106.902 190.534 106.764 191.034C106.668 191.429 106.521 191.664 106.339 191.729C106.149 191.799 105.941 191.759 105.707 191.624C105.473 191.489 105.265 191.289 105.075 190.999C104.893 190.724 104.746 190.299 104.625 189.709C104.503 189.119 104.451 188.129 104.451 186.739C104.451 185.349 104.512 184.404 104.651 183.894C104.746 183.499 104.893 183.264 105.075 183.199C105.265 183.129 105.473 183.159 105.707 183.294Z" fill="white"/>
<path d="M88.9841 173.639C89.2179 173.774 89.4258 173.984 89.6077 174.269C89.7895 174.544 89.9454 174.984 90.0666 175.574C90.1879 176.164 90.2485 177.149 90.2485 178.539C90.2485 179.929 90.1792 180.879 90.0407 181.379C89.9454 181.774 89.7982 182.009 89.6163 182.074C89.4258 182.144 89.2179 182.104 88.9841 181.969C88.7503 181.834 88.5424 181.634 88.3519 181.344C88.2913 181.249 88.2307 181.124 88.17 180.979C88.0488 179.749 87.9795 178.529 87.9795 177.329C87.9795 176.039 88.0575 174.804 88.2047 173.649C88.2567 173.609 88.2999 173.564 88.3519 173.544C88.5424 173.474 88.7503 173.504 88.9841 173.639Z" fill="white"/>
</svg>
