<svg width="274" height="349" viewBox="0 0 274 349" fill="none" xmlns="http://www.w3.org/2000/svg">
<path fill-rule="evenodd" clip-rule="evenodd" d="M95.2887 217.645L43.3271 187.645L95.2887 217.645Z" fill="#8BC5E4"/>
<path fill-rule="evenodd" clip-rule="evenodd" d="M110.15 209.065L58.1882 179.065L110.15 209.065Z" fill="#8BC5E4"/>
<path fill-rule="evenodd" clip-rule="evenodd" d="M139.465 192.14L87.5032 162.14L139.465 192.14Z" fill="#8BC5E4"/>
<path fill-rule="evenodd" clip-rule="evenodd" d="M168.788 175.21L116.827 145.21L168.788 175.21Z" fill="#8BC5E4"/>
<path fill-rule="evenodd" clip-rule="evenodd" d="M153.884 172.665L101.922 142.665L153.884 172.665Z" fill="#8BC5E4"/>
<path fill-rule="evenodd" clip-rule="evenodd" d="M124.569 189.59L72.6074 159.59L124.569 189.59Z" fill="#8BC5E4"/>
<path fill-rule="evenodd" clip-rule="evenodd" d="M95.2887 206.495L43.3271 176.495L95.2887 206.495Z" fill="#8BC5E4"/>
<path fill-rule="evenodd" clip-rule="evenodd" d="M95.2887 239.975L43.3271 209.975L95.2887 239.975Z" fill="#8BC5E4"/>
<path fill-rule="evenodd" clip-rule="evenodd" d="M110.15 231.395L58.1882 201.395L110.15 231.395Z" fill="#8BC5E4"/>
<path fill-rule="evenodd" clip-rule="evenodd" d="M139.465 214.47L87.5032 184.47L139.465 214.47Z" fill="#8BC5E4"/>
<path fill-rule="evenodd" clip-rule="evenodd" d="M168.788 197.54L116.827 167.54L168.788 197.54Z" fill="#8BC5E4"/>
<path fill-rule="evenodd" clip-rule="evenodd" d="M153.884 194.975L101.922 164.975L153.884 194.975Z" fill="#8BC5E4"/>
<path fill-rule="evenodd" clip-rule="evenodd" d="M124.569 211.9L72.6074 181.9L124.569 211.9Z" fill="#8BC5E4"/>
<path fill-rule="evenodd" clip-rule="evenodd" d="M95.2887 228.805L43.3271 198.805L95.2887 228.805Z" fill="#8BC5E4"/>
<path fill-rule="evenodd" clip-rule="evenodd" d="M95.2887 262.295L43.3271 232.295L95.2887 262.295Z" fill="#8BC5E4"/>
<path fill-rule="evenodd" clip-rule="evenodd" d="M110.15 253.715L58.1882 223.715L110.15 253.715Z" fill="#8BC5E4"/>
<path fill-rule="evenodd" clip-rule="evenodd" d="M139.465 236.79L87.5032 206.79L139.465 236.79Z" fill="#8BC5E4"/>
<path fill-rule="evenodd" clip-rule="evenodd" d="M168.788 219.86L116.827 189.86L168.788 219.86Z" fill="#8BC5E4"/>
<path fill-rule="evenodd" clip-rule="evenodd" d="M153.884 217.305L101.922 187.305L153.884 217.305Z" fill="#8BC5E4"/>
<path fill-rule="evenodd" clip-rule="evenodd" d="M124.569 234.23L72.6074 204.23L124.569 234.23Z" fill="#8BC5E4"/>
<path fill-rule="evenodd" clip-rule="evenodd" d="M95.2887 251.135L43.3271 221.135L95.2887 251.135Z" fill="#8BC5E4"/>
<path fill-rule="evenodd" clip-rule="evenodd" d="M176.245 113.715L124.283 83.7148L176.245 113.715Z" fill="#8BC5E4"/>
<path fill-rule="evenodd" clip-rule="evenodd" d="M174.729 120.87L122.768 90.8699L174.729 120.87Z" fill="#8BC5E4"/>
<path fill-rule="evenodd" clip-rule="evenodd" d="M184.472 116.425L132.51 86.4248L184.472 116.425Z" fill="#8BC5E4"/>
<path fill-rule="evenodd" clip-rule="evenodd" d="M194.119 114.755L142.158 84.7549L194.119 114.755Z" fill="#8BC5E4"/>
<path fill-rule="evenodd" clip-rule="evenodd" d="M204.252 113.795L152.291 83.7949L204.252 113.795Z" fill="#8BC5E4"/>
<path fill-rule="evenodd" clip-rule="evenodd" d="M208.825 115.725L156.863 85.7249L208.825 115.725Z" fill="#8BC5E4"/>
<path fill-rule="evenodd" clip-rule="evenodd" d="M51.9615 165.58V341.14L0 311.14V135.58L51.9615 165.58Z" fill="#8BC5E4"/>
<path fill-rule="evenodd" clip-rule="evenodd" d="M62.4317 347.315L263.194 231.405L211.232 201.405L10.4702 317.315L62.4317 347.315Z" fill="#8BC5E4"/>
<path fill-rule="evenodd" clip-rule="evenodd" d="M273.664 213.14V37.5798L221.702 7.57983V183.14L273.664 213.14Z" fill="#8BC5E4"/>
<path fill-rule="evenodd" clip-rule="evenodd" d="M263.194 31.4048L62.4317 147.315L10.4702 117.315L211.232 1.40479L263.194 31.4048Z" fill="#8BC5E4"/>
<path fill-rule="evenodd" clip-rule="evenodd" d="M62.4317 147.315L10.4702 117.315L62.4317 147.315Z" fill="#8BC5E4"/>
<path fill-rule="evenodd" clip-rule="evenodd" d="M62.4317 152.825L263.194 36.9148L211.232 6.91479L10.4702 122.825L62.4317 152.825Z" fill="#8BC5E4"/>
<path fill-rule="evenodd" clip-rule="evenodd" d="M268.927 40.3149V215.875L216.965 185.875V10.3149L268.927 40.3149Z" fill="#8BC5E4"/>
<path fill-rule="evenodd" clip-rule="evenodd" d="M263.194 225.895L62.4317 341.805L10.4702 311.805L211.232 195.895L263.194 225.895Z" fill="#8BC5E4"/>
<path fill-rule="evenodd" clip-rule="evenodd" d="M56.69 338.41V162.85L4.72852 132.85V308.41L56.69 338.41Z" fill="#8BC5E4"/>
<path fill-rule="evenodd" clip-rule="evenodd" d="M62.4317 152.825L10.4702 122.825L62.4317 152.825Z" fill="#8BC5E4"/>
<path fill-rule="evenodd" clip-rule="evenodd" d="M95.2887 217.645C98.8394 215.595 102.399 213.54 105.949 211.49L53.9879 181.49C50.4372 183.54 46.8779 185.595 43.3271 187.645L95.2887 217.645Z" fill="#8BC5E4"/>
<path fill-rule="evenodd" clip-rule="evenodd" d="M105.949 211.49C105.421 213.735 107.11 217.27 104.893 218.51L52.9314 188.51C55.1484 187.27 53.4597 183.735 53.9879 181.49L105.949 211.49Z" fill="#8BC5E4"/>
<path fill-rule="evenodd" clip-rule="evenodd" d="M104.893 218.51C101.697 220.355 98.493 222.205 95.2887 224.055L43.3271 194.055C46.5314 192.205 49.7357 190.355 52.9314 188.51L104.893 218.51Z" fill="#8BC5E4"/>
<path fill-rule="evenodd" clip-rule="evenodd" d="M95.2887 224.055C95.2887 221.915 95.2887 219.785 95.2887 217.645L43.3271 187.645C43.3271 189.785 43.3271 191.915 43.3271 194.055L95.2887 224.055Z" fill="#8BC5E4"/>
<path fill-rule="evenodd" clip-rule="evenodd" d="M110.15 209.065C118.723 204.115 127.288 199.17 135.871 194.215L83.9092 164.215C75.3269 169.17 66.7619 174.115 58.1882 179.065L110.15 209.065Z" fill="#8BC5E4"/>
<path fill-rule="evenodd" clip-rule="evenodd" d="M135.871 194.215C135.342 196.46 137.031 199.995 134.814 201.235L82.8525 171.235C85.0696 169.995 83.3808 166.46 83.9091 164.215L135.871 194.215Z" fill="#8BC5E4"/>
<path fill-rule="evenodd" clip-rule="evenodd" d="M134.814 201.235C126.596 205.98 118.368 210.73 110.15 215.475L58.1882 185.475C66.4068 180.73 74.6341 175.98 82.8526 171.235L134.814 201.235Z" fill="#8BC5E4"/>
<path fill-rule="evenodd" clip-rule="evenodd" d="M110.15 215.475C110.15 213.335 110.15 211.205 110.15 209.065L58.1882 179.065C58.1882 181.205 58.1882 183.335 58.1882 185.475L110.15 215.475Z" fill="#8BC5E4"/>
<path fill-rule="evenodd" clip-rule="evenodd" d="M139.465 192.14C148.03 187.195 156.612 182.24 165.186 177.29L113.224 147.29C104.65 152.24 96.0682 157.195 87.5032 162.14L139.465 192.14Z" fill="#8BC5E4"/>
<path fill-rule="evenodd" clip-rule="evenodd" d="M165.186 177.29C164.657 179.535 166.337 183.075 164.129 184.31L112.167 154.31C114.376 153.075 112.696 149.535 113.224 147.29L165.186 177.29Z" fill="#8BC5E4"/>
<path fill-rule="evenodd" clip-rule="evenodd" d="M164.129 184.31C155.911 189.055 147.683 193.805 139.465 198.55L87.5032 168.55C95.7218 163.805 103.949 159.055 112.168 154.31L164.129 184.31Z" fill="#8BC5E4"/>
<path fill-rule="evenodd" clip-rule="evenodd" d="M139.465 198.55C139.465 196.41 139.465 194.28 139.465 192.14L87.5032 162.14C87.5032 164.28 87.5032 166.41 87.5032 168.55L139.465 198.55Z" fill="#8BC5E4"/>
<path fill-rule="evenodd" clip-rule="evenodd" d="M168.788 175.21C172.356 173.15 175.933 171.085 179.501 169.025L127.539 139.025C123.971 141.085 120.395 143.15 116.827 145.21L168.788 175.21Z" fill="#8BC5E4"/>
<path fill-rule="evenodd" clip-rule="evenodd" d="M179.501 169.025C178.981 171.265 180.661 174.805 178.462 176.035L126.5 146.035C128.7 144.805 127.02 141.265 127.539 139.025L179.501 169.025Z" fill="#8BC5E4"/>
<path fill-rule="evenodd" clip-rule="evenodd" d="M178.462 176.035C175.231 177.9 172.01 179.76 168.788 181.62L116.827 151.62C120.048 149.76 123.27 147.9 126.5 146.035L178.462 176.035Z" fill="#8BC5E4"/>
<path fill-rule="evenodd" clip-rule="evenodd" d="M168.788 181.62C168.788 179.48 168.788 177.35 168.788 175.21L116.827 145.21C116.827 147.35 116.827 149.48 116.827 151.62L168.788 181.62Z" fill="#8BC5E4"/>
<path fill-rule="evenodd" clip-rule="evenodd" d="M153.884 172.665C162.423 167.735 170.962 162.805 179.501 157.875L127.539 127.875C119 132.805 110.461 137.735 101.922 142.665L153.884 172.665Z" fill="#8BC5E4"/>
<path fill-rule="evenodd" clip-rule="evenodd" d="M179.501 157.875C178.981 160.105 180.661 163.645 178.462 164.875L126.5 134.875C128.7 133.645 127.02 130.105 127.539 127.875L179.501 157.875Z" fill="#8BC5E4"/>
<path fill-rule="evenodd" clip-rule="evenodd" d="M178.462 164.875C170.269 169.605 162.076 174.335 153.884 179.065L101.922 149.065C110.115 144.335 118.308 139.605 126.5 134.875L178.462 164.875Z" fill="#8BC5E4"/>
<path fill-rule="evenodd" clip-rule="evenodd" d="M153.884 179.065C153.884 176.925 153.884 174.805 153.884 172.665L101.922 142.665C101.922 144.805 101.922 146.925 101.922 149.065L153.884 179.065Z" fill="#8BC5E4"/>
<path fill-rule="evenodd" clip-rule="evenodd" d="M124.569 189.59C133.134 184.645 141.708 179.695 150.281 174.745L98.3197 144.745C89.7461 149.695 81.1724 154.645 72.6074 159.59L124.569 189.59Z" fill="#8BC5E4"/>
<path fill-rule="evenodd" clip-rule="evenodd" d="M150.281 174.745C149.762 176.975 151.433 180.52 149.233 181.75L97.272 151.75C99.4717 150.52 97.8002 146.975 98.3199 144.745L150.281 174.745Z" fill="#8BC5E4"/>
<path fill-rule="evenodd" clip-rule="evenodd" d="M149.233 181.75C141.006 186.5 132.788 191.245 124.569 195.99L72.6074 165.99C80.826 161.245 89.0446 156.5 97.2718 151.75L149.233 181.75Z" fill="#8BC5E4"/>
<path fill-rule="evenodd" clip-rule="evenodd" d="M124.569 195.99C124.569 193.85 124.569 191.73 124.569 189.59L72.6074 159.59C72.6074 161.73 72.6074 163.85 72.6074 165.99L124.569 195.99Z" fill="#8BC5E4"/>
<path fill-rule="evenodd" clip-rule="evenodd" d="M95.2887 206.495C103.845 201.555 112.401 196.615 120.966 191.67L69.0048 161.67C60.4398 166.615 51.8835 171.555 43.3271 176.495L95.2887 206.495Z" fill="#8BC5E4"/>
<path fill-rule="evenodd" clip-rule="evenodd" d="M120.966 191.67C120.438 193.905 122.118 197.445 119.91 198.68L67.9482 168.68C70.1566 167.445 68.4765 163.905 69.0048 161.67L120.966 191.67Z" fill="#8BC5E4"/>
<path fill-rule="evenodd" clip-rule="evenodd" d="M119.91 198.68C111.7 203.42 103.499 208.155 95.2887 212.895L43.3271 182.895C51.5371 178.155 59.7383 173.42 67.9483 168.68L119.91 198.68Z" fill="#8BC5E4"/>
<path fill-rule="evenodd" clip-rule="evenodd" d="M95.2887 212.895C95.2887 210.755 95.2887 208.635 95.2887 206.495L43.3271 176.495C43.3271 178.635 43.3271 180.755 43.3271 182.895L95.2887 212.895Z" fill="#8BC5E4"/>
<path fill-rule="evenodd" clip-rule="evenodd" d="M95.2887 239.975C98.8394 237.925 102.399 235.87 105.949 233.82L53.9879 203.82C50.4372 205.87 46.8779 207.925 43.3271 209.975L95.2887 239.975Z" fill="#8BC5E4"/>
<path fill-rule="evenodd" clip-rule="evenodd" d="M105.949 233.82C105.421 236.045 107.11 239.59 104.893 240.84L52.9314 210.84C55.1484 209.59 53.4597 206.045 53.9879 203.82L105.949 233.82Z" fill="#8BC5E4"/>
<path fill-rule="evenodd" clip-rule="evenodd" d="M104.893 240.84C101.697 242.685 98.493 244.535 95.2887 246.385L43.3271 216.385C46.5314 214.535 49.7357 212.685 52.9314 210.84L104.893 240.84Z" fill="#8BC5E4"/>
<path fill-rule="evenodd" clip-rule="evenodd" d="M95.2887 246.385C95.2887 244.245 95.2887 242.105 95.2887 239.975L43.3271 209.975C43.3271 212.105 43.3271 214.245 43.3271 216.385L95.2887 246.385Z" fill="#8BC5E4"/>
<path fill-rule="evenodd" clip-rule="evenodd" d="M110.15 231.395C118.723 226.445 127.288 221.5 135.871 216.545L83.9092 186.545C75.3269 191.5 66.7619 196.445 58.1882 201.395L110.15 231.395Z" fill="#8BC5E4"/>
<path fill-rule="evenodd" clip-rule="evenodd" d="M135.871 216.545C135.342 218.77 137.031 222.315 134.814 223.565L82.8525 193.565C85.0696 192.315 83.3808 188.77 83.9091 186.545L135.871 216.545Z" fill="#8BC5E4"/>
<path fill-rule="evenodd" clip-rule="evenodd" d="M134.814 223.565C126.596 228.31 118.368 233.06 110.15 237.805L58.1882 207.805C66.4068 203.06 74.6341 198.31 82.8526 193.565L134.814 223.565Z" fill="#8BC5E4"/>
<path fill-rule="evenodd" clip-rule="evenodd" d="M110.15 237.805C110.15 235.665 110.15 233.525 110.15 231.395L58.1882 201.395C58.1882 203.525 58.1882 205.665 58.1882 207.805L110.15 237.805Z" fill="#8BC5E4"/>
<path fill-rule="evenodd" clip-rule="evenodd" d="M139.465 214.47C148.03 209.525 156.612 204.57 165.186 199.62L113.224 169.62C104.65 174.57 96.0682 179.525 87.5032 184.47L139.465 214.47Z" fill="#8BC5E4"/>
<path fill-rule="evenodd" clip-rule="evenodd" d="M165.186 199.62C164.657 201.845 166.337 205.395 164.129 206.64L112.167 176.64C114.376 175.395 112.696 171.845 113.224 169.62L165.186 199.62Z" fill="#8BC5E4"/>
<path fill-rule="evenodd" clip-rule="evenodd" d="M164.129 206.64C155.911 211.385 147.683 216.135 139.465 220.88L87.5032 190.88C95.7218 186.135 103.949 181.385 112.168 176.64L164.129 206.64Z" fill="#8BC5E4"/>
<path fill-rule="evenodd" clip-rule="evenodd" d="M139.465 220.88C139.465 218.74 139.465 216.6 139.465 214.47L87.5032 184.47C87.5032 186.6 87.5032 188.74 87.5032 190.88L139.465 220.88Z" fill="#8BC5E4"/>
<path fill-rule="evenodd" clip-rule="evenodd" d="M168.788 197.54C172.356 195.48 175.933 193.415 179.501 191.355L127.539 161.355C123.971 163.415 120.395 165.48 116.827 167.54L168.788 197.54Z" fill="#8BC5E4"/>
<path fill-rule="evenodd" clip-rule="evenodd" d="M179.501 191.355C178.981 193.575 180.661 197.125 178.462 198.365L126.5 168.365C128.7 167.125 127.02 163.575 127.539 161.355L179.501 191.355Z" fill="#8BC5E4"/>
<path fill-rule="evenodd" clip-rule="evenodd" d="M178.462 198.365C175.231 200.23 172.01 202.09 168.788 203.95L116.827 173.95C120.048 172.09 123.27 170.23 126.5 168.365L178.462 198.365Z" fill="#8BC5E4"/>
<path fill-rule="evenodd" clip-rule="evenodd" d="M168.788 203.95C168.788 201.81 168.788 199.67 168.788 197.54L116.827 167.54C116.827 169.67 116.827 171.81 116.827 173.95L168.788 203.95Z" fill="#8BC5E4"/>
<path fill-rule="evenodd" clip-rule="evenodd" d="M153.884 194.975C162.423 190.045 170.962 185.115 179.501 180.185L127.539 150.185C119 155.115 110.461 160.045 101.922 164.975L153.884 194.975Z" fill="#8BC5E4"/>
<path fill-rule="evenodd" clip-rule="evenodd" d="M179.501 180.185C178.981 182.425 180.661 185.955 178.462 187.195L126.5 157.195C128.7 155.955 127.02 152.425 127.539 150.185L179.501 180.185Z" fill="#8BC5E4"/>
<path fill-rule="evenodd" clip-rule="evenodd" d="M178.462 187.195C170.269 191.925 162.076 196.655 153.884 201.385L101.922 171.385C110.115 166.655 118.308 161.925 126.5 157.195L178.462 187.195Z" fill="#8BC5E4"/>
<path fill-rule="evenodd" clip-rule="evenodd" d="M153.884 201.385C153.884 199.255 153.884 197.115 153.884 194.975L101.922 164.975C101.922 167.115 101.922 169.255 101.922 171.385L153.884 201.385Z" fill="#8BC5E4"/>
<path fill-rule="evenodd" clip-rule="evenodd" d="M124.569 211.9C133.134 206.955 141.708 202.005 150.281 197.055L98.3197 167.055C89.7461 172.005 81.1724 176.955 72.6074 181.9L124.569 211.9Z" fill="#8BC5E4"/>
<path fill-rule="evenodd" clip-rule="evenodd" d="M150.281 197.055C149.762 199.295 151.433 202.83 149.233 204.07L97.272 174.07C99.4717 172.83 97.8002 169.295 98.3199 167.055L150.281 197.055Z" fill="#8BC5E4"/>
<path fill-rule="evenodd" clip-rule="evenodd" d="M149.233 204.07C141.006 208.82 132.788 213.565 124.569 218.31L72.6074 188.31C80.826 183.565 89.0446 178.82 97.2718 174.07L149.233 204.07Z" fill="#8BC5E4"/>
<path fill-rule="evenodd" clip-rule="evenodd" d="M124.569 218.31C124.569 216.18 124.569 214.04 124.569 211.9L72.6074 181.9C72.6074 184.04 72.6074 186.18 72.6074 188.31L124.569 218.31Z" fill="#8BC5E4"/>
<path fill-rule="evenodd" clip-rule="evenodd" d="M95.2887 228.805C103.845 223.865 112.401 218.925 120.966 213.98L69.0048 183.98C60.4398 188.925 51.8835 193.865 43.3271 198.805L95.2887 228.805Z" fill="#8BC5E4"/>
<path fill-rule="evenodd" clip-rule="evenodd" d="M120.966 213.98C120.438 216.225 122.118 219.755 119.91 221L67.9482 191C70.1566 189.755 68.4765 186.225 69.0048 183.98L120.966 213.98Z" fill="#8BC5E4"/>
<path fill-rule="evenodd" clip-rule="evenodd" d="M119.91 221C111.7 225.74 103.499 230.475 95.2887 235.215L43.3271 205.215C51.5371 200.475 59.7383 195.74 67.9483 191L119.91 221Z" fill="#8BC5E4"/>
<path fill-rule="evenodd" clip-rule="evenodd" d="M95.2887 235.215C95.2887 233.085 95.2887 230.945 95.2887 228.805L43.3271 198.805C43.3271 200.945 43.3271 203.085 43.3271 205.215L95.2887 235.215Z" fill="#8BC5E4"/>
<path fill-rule="evenodd" clip-rule="evenodd" d="M95.2887 262.295C98.8394 260.245 102.399 258.19 105.949 256.14L53.9879 226.14C50.4372 228.19 46.8779 230.245 43.3271 232.295L95.2887 262.295Z" fill="#8BC5E4"/>
<path fill-rule="evenodd" clip-rule="evenodd" d="M105.949 256.14C105.421 258.375 107.11 261.91 104.893 263.15L52.9314 233.15C55.1484 231.91 53.4597 228.375 53.9879 226.14L105.949 256.14Z" fill="#8BC5E4"/>
<path fill-rule="evenodd" clip-rule="evenodd" d="M104.893 263.15C101.697 264.995 98.493 266.845 95.2887 268.695L43.3271 238.695C46.5314 236.845 49.7357 234.995 52.9314 233.15L104.893 263.15Z" fill="#8BC5E4"/>
<path fill-rule="evenodd" clip-rule="evenodd" d="M95.2887 268.695C95.2887 266.555 95.2887 264.425 95.2887 262.295L43.3271 232.295C43.3271 234.425 43.3271 236.555 43.3271 238.695L95.2887 268.695Z" fill="#8BC5E4"/>
<path fill-rule="evenodd" clip-rule="evenodd" d="M110.15 253.715C118.723 248.765 127.288 243.82 135.871 238.865L83.9092 208.865C75.3269 213.82 66.7619 218.765 58.1882 223.715L110.15 253.715Z" fill="#8BC5E4"/>
<path fill-rule="evenodd" clip-rule="evenodd" d="M135.871 238.865C135.342 241.1 137.031 244.635 134.814 245.875L82.8525 215.875C85.0696 214.635 83.3808 211.1 83.9091 208.865L135.871 238.865Z" fill="#8BC5E4"/>
<path fill-rule="evenodd" clip-rule="evenodd" d="M134.814 245.875C126.596 250.62 118.368 255.37 110.15 260.115L58.1882 230.115C66.4068 225.37 74.6341 220.62 82.8526 215.875L134.814 245.875Z" fill="#8BC5E4"/>
<path fill-rule="evenodd" clip-rule="evenodd" d="M110.15 260.115C110.15 257.975 110.15 255.845 110.15 253.715L58.1882 223.715C58.1882 225.845 58.1882 227.975 58.1882 230.115L110.15 260.115Z" fill="#8BC5E4"/>
<path fill-rule="evenodd" clip-rule="evenodd" d="M139.465 236.79C148.03 231.845 156.612 226.89 165.186 221.94L113.224 191.94C104.65 196.89 96.0682 201.845 87.5032 206.79L139.465 236.79Z" fill="#8BC5E4"/>
<path fill-rule="evenodd" clip-rule="evenodd" d="M165.186 221.94C164.657 224.175 166.337 227.715 164.129 228.95L112.167 198.95C114.376 197.715 112.696 194.175 113.224 191.94L165.186 221.94Z" fill="#8BC5E4"/>
<path fill-rule="evenodd" clip-rule="evenodd" d="M164.129 228.95C155.911 233.695 147.683 238.445 139.465 243.19L87.5032 213.19C95.7218 208.445 103.949 203.695 112.168 198.95L164.129 228.95Z" fill="#8BC5E4"/>
<path fill-rule="evenodd" clip-rule="evenodd" d="M139.465 243.19C139.465 241.05 139.465 238.92 139.465 236.79L87.5032 206.79C87.5032 208.92 87.5032 211.05 87.5032 213.19L139.465 243.19Z" fill="#8BC5E4"/>
<path fill-rule="evenodd" clip-rule="evenodd" d="M168.788 219.86C172.356 217.8 175.933 215.735 179.501 213.675L127.539 183.675C123.971 185.735 120.395 187.8 116.827 189.86L168.788 219.86Z" fill="#8BC5E4"/>
<path fill-rule="evenodd" clip-rule="evenodd" d="M179.501 213.675C178.981 215.905 180.661 219.445 178.462 220.675L126.5 190.675C128.7 189.445 127.02 185.905 127.539 183.675L179.501 213.675Z" fill="#8BC5E4"/>
<path fill-rule="evenodd" clip-rule="evenodd" d="M178.462 220.675C175.231 222.54 172.01 224.4 168.788 226.26L116.827 196.26C120.048 194.4 123.27 192.54 126.5 190.675L178.462 220.675Z" fill="#8BC5E4"/>
<path fill-rule="evenodd" clip-rule="evenodd" d="M168.788 226.26C168.788 224.12 168.788 221.99 168.788 219.86L116.827 189.86C116.827 191.99 116.827 194.12 116.827 196.26L168.788 226.26Z" fill="#8BC5E4"/>
<path fill-rule="evenodd" clip-rule="evenodd" d="M153.884 217.305C162.423 212.375 170.962 207.445 179.501 202.515L127.539 172.515C119 177.445 110.461 182.375 101.922 187.305L153.884 217.305Z" fill="#8BC5E4"/>
<path fill-rule="evenodd" clip-rule="evenodd" d="M179.501 202.515C178.981 204.745 180.661 208.285 178.462 209.525L126.5 179.525C128.7 178.285 127.02 174.745 127.539 172.515L179.501 202.515Z" fill="#8BC5E4"/>
<path fill-rule="evenodd" clip-rule="evenodd" d="M178.462 209.525C170.269 214.255 162.076 218.985 153.884 223.715L101.922 193.715C110.115 188.985 118.308 184.255 126.5 179.525L178.462 209.525Z" fill="#8BC5E4"/>
<path fill-rule="evenodd" clip-rule="evenodd" d="M153.884 223.715C153.884 221.575 153.884 219.445 153.884 217.305L101.922 187.305C101.922 189.445 101.922 191.575 101.922 193.715L153.884 223.715Z" fill="#8BC5E4"/>
<path fill-rule="evenodd" clip-rule="evenodd" d="M124.569 234.23C133.134 229.285 141.708 224.335 150.281 219.385L98.3197 189.385C89.7461 194.335 81.1724 199.285 72.6074 204.23L124.569 234.23Z" fill="#8BC5E4"/>
<path fill-rule="evenodd" clip-rule="evenodd" d="M150.281 219.385C149.762 221.615 151.433 225.16 149.233 226.4L97.272 196.4C99.4717 195.16 97.8002 191.615 98.3199 189.385L150.281 219.385Z" fill="#8BC5E4"/>
<path fill-rule="evenodd" clip-rule="evenodd" d="M149.233 226.4C141.006 231.15 132.788 235.895 124.569 240.64L72.6074 210.64C80.826 205.895 89.0446 201.15 97.2718 196.4L149.233 226.4Z" fill="#8BC5E4"/>
<path fill-rule="evenodd" clip-rule="evenodd" d="M124.569 240.64C124.569 238.5 124.569 236.37 124.569 234.23L72.6074 204.23C72.6074 206.37 72.6074 208.5 72.6074 210.64L124.569 240.64Z" fill="#8BC5E4"/>
<path fill-rule="evenodd" clip-rule="evenodd" d="M95.2887 251.135C103.845 246.195 112.401 241.255 120.966 236.31L69.0048 206.31C60.4398 211.255 51.8835 216.195 43.3271 221.135L95.2887 251.135Z" fill="#8BC5E4"/>
<path fill-rule="evenodd" clip-rule="evenodd" d="M120.966 236.31C120.438 238.545 122.118 242.085 119.91 243.33L67.9482 213.33C70.1566 212.085 68.4765 208.545 69.0048 206.31L120.966 236.31Z" fill="#8BC5E4"/>
<path fill-rule="evenodd" clip-rule="evenodd" d="M119.91 243.33C111.7 248.07 103.499 252.805 95.2887 257.545L43.3271 227.545C51.5371 222.805 59.7383 218.07 67.9483 213.33L119.91 243.33Z" fill="#8BC5E4"/>
<path fill-rule="evenodd" clip-rule="evenodd" d="M95.2887 257.545C95.2887 255.405 95.2887 253.275 95.2887 251.135L43.3271 221.135C43.3271 223.275 43.3271 225.405 43.3271 227.545L95.2887 257.545Z" fill="#8BC5E4"/>
<path fill-rule="evenodd" clip-rule="evenodd" d="M176.245 113.715C153.901 126.245 132.459 155.915 124.656 184.81L72.6941 154.81C80.497 125.915 101.94 96.2448 124.283 83.7148L176.245 113.715Z" fill="#8BC5E4"/>
<path fill-rule="evenodd" clip-rule="evenodd" d="M124.656 184.81C126.769 182.98 130.371 183.02 131.073 179.465L79.1113 149.465C78.4099 153.02 74.8072 152.98 72.6941 154.81L124.656 184.81Z" fill="#8BC5E4"/>
<path fill-rule="evenodd" clip-rule="evenodd" d="M131.073 179.465C134.329 169.495 139.213 159.495 145.206 150.495L93.2449 120.495C87.252 129.495 82.3676 139.495 79.1113 149.465L131.073 179.465Z" fill="#8BC5E4"/>
<path fill-rule="evenodd" clip-rule="evenodd" d="M145.206 150.495C145.587 151.766 144.926 153.84 145.44 154.344L93.4787 124.344C92.964 123.84 93.6252 121.766 93.2449 120.495L145.206 150.495Z" fill="#8BC5E4"/>
<path fill-rule="evenodd" clip-rule="evenodd" d="M145.44 154.344C145.64 154.54 146.018 154.498 146.705 154.08L94.7431 124.08C94.0569 124.498 93.6789 124.54 93.4788 124.344L145.44 154.344Z" fill="#8BC5E4"/>
<path fill-rule="evenodd" clip-rule="evenodd" d="M146.705 154.08C144.799 158.14 146.384 160.425 145.873 163.43L93.9116 133.43C94.4226 130.425 92.8377 128.14 94.743 124.08L146.705 154.08Z" fill="#8BC5E4"/>
<path fill-rule="evenodd" clip-rule="evenodd" d="M145.873 163.43C145.459 166.03 140.131 174.105 141.214 174.883L89.2521 144.883C88.1693 144.105 93.497 136.03 93.9116 133.43L145.873 163.43Z" fill="#8BC5E4"/>
<path fill-rule="evenodd" clip-rule="evenodd" d="M141.214 174.883C141.42 175.031 141.859 174.914 142.608 174.445L90.6469 144.445C89.8972 144.914 89.4584 145.031 89.2522 144.883L141.214 174.883Z" fill="#8BC5E4"/>
<path fill-rule="evenodd" clip-rule="evenodd" d="M142.608 174.445C156.404 166.48 170.2 158.515 183.987 150.555L132.025 120.555C118.238 128.515 104.443 136.48 90.6467 144.445L142.608 174.445Z" fill="#8BC5E4"/>
<path fill-rule="evenodd" clip-rule="evenodd" d="M183.987 150.555C184.246 152.003 183.568 156.226 184.17 156.85L132.208 126.85C131.607 126.226 132.285 122.003 132.026 120.555L183.987 150.555Z" fill="#8BC5E4"/>
<path fill-rule="evenodd" clip-rule="evenodd" d="M184.17 156.85C184.453 157.143 185.019 156.64 186.1 154.675L134.139 124.675C133.058 126.64 132.491 127.143 132.208 126.85L184.17 156.85Z" fill="#8BC5E4"/>
<path fill-rule="evenodd" clip-rule="evenodd" d="M186.1 154.675C186.1 150.975 190.153 145.435 193.938 143.09L141.976 113.09C138.192 115.435 134.139 120.975 134.139 124.675L186.1 154.675Z" fill="#8BC5E4"/>
<path fill-rule="evenodd" clip-rule="evenodd" d="M193.938 143.09C194.793 139.047 198.26 136.13 199.373 136.288L147.411 106.288C146.298 106.13 142.832 109.047 141.976 113.09L193.938 143.09Z" fill="#8BC5E4"/>
<path fill-rule="evenodd" clip-rule="evenodd" d="M199.373 136.288C199.725 136.338 199.841 136.695 199.567 137.42L147.605 107.42C147.88 106.695 147.763 106.338 147.412 106.288L199.373 136.288Z" fill="#8BC5E4"/>
<path fill-rule="evenodd" clip-rule="evenodd" d="M199.567 137.42C200.53 135.696 205.483 131.303 205.28 130.787L153.319 100.787C153.522 101.303 148.568 105.696 147.605 107.42L199.567 137.42Z" fill="#8BC5E4"/>
<path fill-rule="evenodd" clip-rule="evenodd" d="M205.28 130.787C205.23 130.659 204.856 130.772 204.018 131.23L152.057 101.23C152.895 100.772 153.268 100.659 153.319 100.787L205.28 130.787Z" fill="#8BC5E4"/>
<path fill-rule="evenodd" clip-rule="evenodd" d="M204.018 131.23C203.397 133.089 202.511 133.542 201.93 133.217L149.969 103.217C150.549 103.542 151.435 103.089 152.057 101.23L204.018 131.23Z" fill="#8BC5E4"/>
<path fill-rule="evenodd" clip-rule="evenodd" d="M201.93 133.217C201.191 132.803 200.947 131.126 202.373 129.48L150.411 99.48C148.985 101.126 149.23 102.803 149.969 103.217L201.93 133.217Z" fill="#8BC5E4"/>
<path fill-rule="evenodd" clip-rule="evenodd" d="M202.373 129.48C201.508 130.033 201.037 130.193 200.843 130.116L148.881 100.116C149.076 100.193 149.547 100.033 150.411 99.48L202.373 129.48Z" fill="#8BC5E4"/>
<path fill-rule="evenodd" clip-rule="evenodd" d="M200.843 130.116C200.182 129.856 202.722 126.865 203.891 127.325L151.929 97.3251C150.761 96.8652 148.221 99.8556 148.881 100.116L200.843 130.116Z" fill="#8BC5E4"/>
<path fill-rule="evenodd" clip-rule="evenodd" d="M203.891 127.325C204.097 127.406 204.26 127.595 204.356 127.925L152.394 97.9249C152.299 97.5949 152.135 97.4063 151.929 97.3252L203.891 127.325Z" fill="#8BC5E4"/>
<path fill-rule="evenodd" clip-rule="evenodd" d="M204.356 127.925C203.152 126.35 208.322 123.885 210.228 122.395L158.266 92.3948C156.361 93.8848 151.191 96.3498 152.394 97.9248L204.356 127.925Z" fill="#8BC5E4"/>
<path fill-rule="evenodd" clip-rule="evenodd" d="M210.228 122.395C209.221 124.282 207.2 127.48 207.743 127.805L155.781 97.805C155.239 97.4797 157.259 94.2818 158.266 92.3948L210.228 122.395Z" fill="#8BC5E4"/>
<path fill-rule="evenodd" clip-rule="evenodd" d="M207.743 127.805C207.998 127.958 208.82 127.475 210.583 125.92L158.621 95.9199C156.859 97.4751 156.036 97.9582 155.781 97.8051L207.743 127.805Z" fill="#8BC5E4"/>
<path fill-rule="evenodd" clip-rule="evenodd" d="M210.583 125.92C215.216 124.485 209.5 123.325 211.596 120.335L159.634 90.335C157.539 93.325 163.254 94.485 158.621 95.92L210.583 125.92Z" fill="#8BC5E4"/>
<path fill-rule="evenodd" clip-rule="evenodd" d="M211.596 120.335C212.691 118.41 211.424 116.897 211.557 116.761L159.596 86.7615C159.462 86.8975 160.73 88.4104 159.634 90.3348L211.596 120.335Z" fill="#8BC5E4"/>
<path fill-rule="evenodd" clip-rule="evenodd" d="M211.557 116.762C211.589 116.73 211.698 116.774 211.933 116.907L159.971 86.9069C159.736 86.7739 159.627 86.7297 159.596 86.7617L211.557 116.762Z" fill="#8BC5E4"/>
<path fill-rule="evenodd" clip-rule="evenodd" d="M211.933 116.907C212.168 117.04 212.53 117.262 213.068 117.585L161.107 87.5848C160.569 87.2616 160.207 87.0398 159.971 86.9067L211.933 116.907Z" fill="#8BC5E4"/>
<path fill-rule="evenodd" clip-rule="evenodd" d="M213.068 117.585C228.163 127.43 230.449 156.56 218.507 184.875L166.545 154.875C178.488 126.56 176.201 97.43 161.106 87.585L213.068 117.585Z" fill="#8BC5E4"/>
<path fill-rule="evenodd" clip-rule="evenodd" d="M218.507 184.875C215.259 185.63 212.453 186.39 209.275 187.315L157.313 157.315C160.492 156.39 163.298 155.63 166.545 154.875L218.507 184.875Z" fill="#8BC5E4"/>
<path fill-rule="evenodd" clip-rule="evenodd" d="M209.275 187.315C209.036 187.276 208.83 187.205 208.65 187.107L156.689 157.107C156.868 157.205 157.074 157.276 157.313 157.315L209.275 187.315Z" fill="#8BC5E4"/>
<path fill-rule="evenodd" clip-rule="evenodd" d="M208.65 187.107C207.125 186.277 207.548 183.545 206.382 182.709L154.42 152.709C155.586 153.545 155.164 156.277 156.689 157.107L208.65 187.107Z" fill="#8BC5E4"/>
<path fill-rule="evenodd" clip-rule="evenodd" d="M206.382 182.709C205.971 182.414 205.362 182.355 204.399 182.7L152.438 152.7C153.4 152.355 154.009 152.414 154.421 152.709L206.382 182.709Z" fill="#8BC5E4"/>
<path fill-rule="evenodd" clip-rule="evenodd" d="M204.399 182.7C201.944 184.412 199.808 183.629 198.175 182.718L146.213 152.718C147.846 153.629 149.982 154.412 152.438 152.7L204.399 182.7Z" fill="#8BC5E4"/>
<path fill-rule="evenodd" clip-rule="evenodd" d="M198.175 182.718C197.665 182.434 197.203 182.136 196.797 181.899L144.835 151.899C145.242 152.136 145.703 152.434 146.213 152.718L198.175 182.718Z" fill="#8BC5E4"/>
<path fill-rule="evenodd" clip-rule="evenodd" d="M196.797 181.899C196.472 181.709 196.182 181.557 195.93 181.48L143.968 151.48C144.22 151.557 144.51 151.709 144.835 151.899L196.797 181.899Z" fill="#8BC5E4"/>
<path fill-rule="evenodd" clip-rule="evenodd" d="M195.929 181.48C193.79 181.045 190.707 185.395 187.962 183.69L136 153.69C138.746 155.395 141.829 151.045 143.968 151.48L195.929 181.48Z" fill="#8BC5E4"/>
<path fill-rule="evenodd" clip-rule="evenodd" d="M187.962 183.69C187.009 185.092 186.514 185.356 186.2 185.255L134.239 155.255C134.552 155.356 135.047 155.092 136.001 153.69L187.962 183.69Z" fill="#8BC5E4"/>
<path fill-rule="evenodd" clip-rule="evenodd" d="M186.2 185.255C185.925 185.166 185.789 184.798 185.606 184.667L133.644 154.667C133.828 154.798 133.964 155.166 134.238 155.255L186.2 185.255Z" fill="#8BC5E4"/>
<path fill-rule="evenodd" clip-rule="evenodd" d="M185.606 184.667C185.343 184.48 184.985 184.777 183.987 187.065L132.025 157.065C133.023 154.777 133.382 154.48 133.644 154.667L185.606 184.667Z" fill="#8BC5E4"/>
<path fill-rule="evenodd" clip-rule="evenodd" d="M183.987 187.065C183.987 198.725 183.987 210.385 183.987 222.055L132.025 192.055C132.025 180.385 132.025 168.725 132.025 157.065L183.987 187.065Z" fill="#8BC5E4"/>
<path fill-rule="evenodd" clip-rule="evenodd" d="M183.987 222.055C184.458 221.871 185.042 221.982 185.619 222.303L133.658 192.303C133.081 191.982 132.497 191.871 132.025 192.055L183.987 222.055Z" fill="#8BC5E4"/>
<path fill-rule="evenodd" clip-rule="evenodd" d="M185.619 222.303C187.926 223.591 190.11 228.258 184.429 230.97L132.467 200.97C138.148 198.258 135.965 193.591 133.658 192.303L185.619 222.303Z" fill="#8BC5E4"/>
<path fill-rule="evenodd" clip-rule="evenodd" d="M184.429 230.97C171.975 240.59 158.76 244.93 148.316 242.65L96.354 212.65C106.798 214.93 120.014 210.59 132.467 200.97L184.429 230.97Z" fill="#8BC5E4"/>
<path fill-rule="evenodd" clip-rule="evenodd" d="M148.315 242.65C145.432 244.315 142.539 245.985 139.647 247.655L87.6851 217.655C90.5776 215.985 93.4701 214.315 96.354 212.65L148.315 242.65Z" fill="#8BC5E4"/>
<path fill-rule="evenodd" clip-rule="evenodd" d="M139.647 247.655C157.391 256.37 185.988 242.46 206.036 215.345L154.075 185.345C134.026 212.46 105.43 226.37 87.6851 217.655L139.647 247.655Z" fill="#8BC5E4"/>
<path fill-rule="evenodd" clip-rule="evenodd" d="M206.036 215.345C225.452 190.085 235.55 155.295 230.12 132.56L178.159 102.56C183.589 125.295 173.491 160.085 154.074 185.345L206.036 215.345Z" fill="#8BC5E4"/>
<path fill-rule="evenodd" clip-rule="evenodd" d="M230.12 132.56C227.976 122.338 222.952 114.882 216.086 110.574L164.124 80.574C170.991 84.8824 176.014 92.338 178.158 102.56L230.12 132.56Z" fill="#8BC5E4"/>
<path fill-rule="evenodd" clip-rule="evenodd" d="M216.086 110.574C205.786 104.111 191.34 104.73 176.245 113.715L124.283 83.7148C139.378 74.7298 153.824 74.1112 164.124 80.5738L216.086 110.574Z" fill="#8BC5E4"/>
<path fill-rule="evenodd" clip-rule="evenodd" d="M174.729 120.87C173.241 121.335 173.048 121.839 173.313 122.004L121.352 92.0042C121.086 91.8391 121.279 91.3355 122.768 90.8699L174.729 120.87Z" fill="#8BC5E4"/>
<path fill-rule="evenodd" clip-rule="evenodd" d="M173.314 122.004C173.601 122.183 174.428 121.964 174.729 120.87L122.768 90.8699C122.466 91.9645 121.64 92.183 121.352 92.0042L173.314 122.004Z" fill="#8BC5E4"/>
<path fill-rule="evenodd" clip-rule="evenodd" d="M184.472 116.425C183.041 117.601 182.552 118.194 182.61 118.412L130.649 88.4125C130.59 88.1938 131.08 87.6008 132.51 86.4248L184.472 116.425Z" fill="#8BC5E4"/>
<path fill-rule="evenodd" clip-rule="evenodd" d="M182.61 118.413C182.786 119.069 187.896 116.356 187.327 115.908L135.365 85.9084C135.934 86.3558 130.825 89.0686 130.649 88.4126L182.61 118.413Z" fill="#8BC5E4"/>
<path fill-rule="evenodd" clip-rule="evenodd" d="M187.327 115.908C187.137 115.759 186.317 115.862 184.472 116.425L132.51 86.4248C134.355 85.8618 135.176 85.7592 135.365 85.9083L187.327 115.908Z" fill="#8BC5E4"/>
<path fill-rule="evenodd" clip-rule="evenodd" d="M194.119 114.755C194.195 114.746 194.259 114.747 194.312 114.757L142.351 84.7571C142.297 84.747 142.233 84.7459 142.158 84.7549L194.119 114.755Z" fill="#8BC5E4"/>
<path fill-rule="evenodd" clip-rule="evenodd" d="M194.312 114.757C195.224 114.929 193.179 117.715 193.382 117.983L141.421 87.983C141.217 87.7151 143.263 84.9293 142.351 84.7571L194.312 114.757Z" fill="#8BC5E4"/>
<path fill-rule="evenodd" clip-rule="evenodd" d="M193.382 117.983C193.466 118.093 193.931 117.777 195.141 116.675L143.18 86.6748C141.97 87.7766 141.505 88.0932 141.421 87.9829L193.382 117.983Z" fill="#8BC5E4"/>
<path fill-rule="evenodd" clip-rule="evenodd" d="M195.141 116.675C199.069 116.266 197.676 114.13 197.111 113.74L145.149 83.7397C145.714 84.1295 147.108 86.2656 143.18 86.675L195.141 116.675Z" fill="#8BC5E4"/>
<path fill-rule="evenodd" clip-rule="evenodd" d="M197.111 113.74C197.061 113.706 197.019 113.685 196.986 113.68L145.024 83.6799C145.057 83.6851 145.1 83.7058 145.149 83.7397L197.111 113.74Z" fill="#8BC5E4"/>
<path fill-rule="evenodd" clip-rule="evenodd" d="M196.986 113.68C198.319 113.29 200.472 113.365 201.352 113.765L149.39 83.7645C148.51 83.365 146.357 83.2899 145.024 83.6799L196.986 113.68Z" fill="#8BC5E4"/>
<path fill-rule="evenodd" clip-rule="evenodd" d="M201.352 113.764C202.164 114.133 201.893 114.779 198.891 115.59L146.93 85.5898C149.931 84.7786 150.203 84.1332 149.39 83.7644L201.352 113.764Z" fill="#8BC5E4"/>
<path fill-rule="evenodd" clip-rule="evenodd" d="M198.891 115.59C195.774 117.87 198.034 125.065 192.691 127.73L140.729 97.7298C146.072 95.0648 143.812 87.8698 146.93 85.5898L198.891 115.59Z" fill="#8BC5E4"/>
<path fill-rule="evenodd" clip-rule="evenodd" d="M192.691 127.73C192.315 129.345 189.894 133.579 188.982 133.166L137.021 103.166C137.933 103.579 140.354 99.345 140.729 97.73L192.691 127.73Z" fill="#8BC5E4"/>
<path fill-rule="evenodd" clip-rule="evenodd" d="M188.982 133.166C188.694 133.035 188.556 132.441 188.681 131.155L136.719 101.155C136.595 102.441 136.732 103.035 137.021 103.166L188.982 133.166Z" fill="#8BC5E4"/>
<path fill-rule="evenodd" clip-rule="evenodd" d="M188.681 131.155C188.426 130.192 189.331 129.11 189.256 128.938L137.295 98.9377C137.37 99.1102 136.465 100.192 136.719 101.155L188.681 131.155Z" fill="#8BC5E4"/>
<path fill-rule="evenodd" clip-rule="evenodd" d="M189.256 128.938C189.206 128.823 188.721 129.112 187.165 130.11L135.204 100.11C136.759 99.1118 137.245 98.8226 137.295 98.9375L189.256 128.938Z" fill="#8BC5E4"/>
<path fill-rule="evenodd" clip-rule="evenodd" d="M187.165 130.11C185.584 130.879 184.418 131.021 183.651 130.727L131.689 100.727C132.457 101.021 133.622 100.879 135.204 100.11L187.165 130.11Z" fill="#8BC5E4"/>
<path fill-rule="evenodd" clip-rule="evenodd" d="M183.651 130.727C181.22 129.798 182.775 124.506 187.711 120.965L135.75 90.9648C130.813 94.5064 129.258 99.7982 131.689 100.727L183.651 130.727Z" fill="#8BC5E4"/>
<path fill-rule="evenodd" clip-rule="evenodd" d="M187.711 120.965C190.214 119.59 191.868 116.015 194.12 114.755L142.158 84.7549C139.906 86.0149 138.252 89.5899 135.75 90.9649L187.711 120.965Z" fill="#8BC5E4"/>
<path fill-rule="evenodd" clip-rule="evenodd" d="M204.252 113.795C204.042 114.42 204.124 114.779 204.347 114.957L152.385 84.9575C152.162 84.7793 152.081 84.4199 152.29 83.7949L204.252 113.795Z" fill="#8BC5E4"/>
<path fill-rule="evenodd" clip-rule="evenodd" d="M204.347 114.957C204.971 115.456 206.705 114.534 206.268 114.043L154.307 84.043C154.743 84.5341 153.01 85.4562 152.385 84.9573L204.347 114.957Z" fill="#8BC5E4"/>
<path fill-rule="evenodd" clip-rule="evenodd" d="M206.268 114.043C206.081 113.833 205.495 113.701 204.252 113.795L152.291 83.7948C153.533 83.7012 154.119 83.8326 154.307 84.043L206.268 114.043Z" fill="#8BC5E4"/>
<path fill-rule="evenodd" clip-rule="evenodd" d="M208.825 115.725C208.755 116.409 208.937 116.799 209.227 116.989L157.266 86.9892C156.975 86.7989 156.794 86.4089 156.863 85.7249L208.825 115.725Z" fill="#8BC5E4"/>
<path fill-rule="evenodd" clip-rule="evenodd" d="M209.227 116.989C210.04 117.522 211.704 116.489 211.099 115.962L159.137 85.9619C159.742 86.4895 158.078 87.5221 157.266 86.9892L209.227 116.989Z" fill="#8BC5E4"/>
<path fill-rule="evenodd" clip-rule="evenodd" d="M211.098 115.962C210.839 115.736 210.163 115.603 208.825 115.725L156.863 85.7249C158.202 85.6025 158.878 85.7359 159.137 85.962L211.098 115.962Z" fill="#8BC5E4"/>
<path fill-rule="evenodd" clip-rule="evenodd" d="M62.4318 147.315C56.6727 150.64 51.9615 158.85 51.9615 165.58L0 135.58C0 128.85 4.71118 120.64 10.4702 117.315L62.4318 147.315Z" fill="#8BC5E4"/>
<path fill-rule="evenodd" clip-rule="evenodd" d="M51.9615 341.14C51.9615 344.37 53.047 346.688 54.8128 347.858L2.85124 317.858C1.08546 316.688 0 314.37 0 311.14L51.9615 341.14Z" fill="#8BC5E4"/>
<path fill-rule="evenodd" clip-rule="evenodd" d="M54.8126 347.858C56.7255 349.125 59.4369 349.044 62.4316 347.315L10.4701 317.315C7.47537 319.044 4.764 319.125 2.85107 317.858L54.8126 347.858Z" fill="#8BC5E4"/>
<path fill-rule="evenodd" clip-rule="evenodd" d="M263.194 231.405C268.944 228.085 273.664 219.87 273.664 213.14L221.702 183.14C221.702 189.87 216.983 198.085 211.232 201.405L263.194 231.405Z" fill="#8BC5E4"/>
<path fill-rule="evenodd" clip-rule="evenodd" d="M273.664 37.5799C273.664 34.3495 272.577 32.0326 270.81 30.8638L218.848 0.86377C220.615 2.03264 221.702 4.34951 221.702 7.57991L273.664 37.5799Z" fill="#8BC5E4"/>
<path fill-rule="evenodd" clip-rule="evenodd" d="M270.81 30.8639C268.895 29.5976 266.184 29.6786 263.194 31.405L211.232 1.40499C214.222 -0.321409 216.934 -0.402425 218.848 0.863855L270.81 30.8639Z" fill="#8BC5E4"/>
<path fill-rule="evenodd" clip-rule="evenodd" d="M263.194 36.9148C264.736 36.0244 266.119 35.9036 267.139 36.4356L215.178 6.43556C214.157 5.90356 212.774 6.02443 211.232 6.91483L263.194 36.9148Z" fill="#8BC5E4"/>
<path fill-rule="evenodd" clip-rule="evenodd" d="M267.139 36.4355C268.245 37.0119 268.927 38.3544 268.927 40.3148L216.965 10.3148C216.965 8.35441 216.284 7.01188 215.178 6.43555L267.139 36.4355Z" fill="#8BC5E4"/>
<path fill-rule="evenodd" clip-rule="evenodd" d="M268.927 215.875C268.927 219.645 266.407 224.04 263.194 225.895L211.232 195.895C214.445 194.04 216.965 189.645 216.965 185.875L268.927 215.875Z" fill="#8BC5E4"/>
<path fill-rule="evenodd" clip-rule="evenodd" d="M62.4317 341.805C60.8854 342.698 59.5006 342.82 58.4786 342.288L6.51709 312.288C7.53909 312.82 8.92385 312.698 10.4702 311.805L62.4317 341.805Z" fill="#8BC5E4"/>
<path fill-rule="evenodd" clip-rule="evenodd" d="M58.4787 342.288C57.3715 341.713 56.69 340.37 56.69 338.41L4.72852 308.41C4.72852 310.37 5.40996 311.713 6.51713 312.288L58.4787 342.288Z" fill="#8BC5E4"/>
<path fill-rule="evenodd" clip-rule="evenodd" d="M56.69 162.85C56.69 159.08 59.2102 154.685 62.4318 152.825L10.4703 122.825C7.24865 124.685 4.72852 129.08 4.72852 132.85L56.69 162.85Z" fill="#8BC5E4"/>
<path d="M95.2887 217.645C98.8394 215.595 102.399 213.54 105.949 211.49C105.421 213.735 107.11 217.27 104.893 218.51C101.697 220.355 98.493 222.205 95.2887 224.055C95.2887 221.915 95.2887 219.785 95.2887 217.645ZM110.15 209.065C118.723 204.115 127.288 199.17 135.871 194.215C135.342 196.46 137.031 199.995 134.814 201.235C126.595 205.98 118.368 210.73 110.15 215.475C110.15 213.335 110.15 211.205 110.15 209.065ZM139.465 192.14C148.03 187.195 156.612 182.24 165.186 177.29C164.657 179.535 166.337 183.075 164.129 184.31C155.91 189.055 147.683 193.805 139.465 198.55C139.465 196.41 139.465 194.28 139.465 192.14ZM168.788 175.21C172.356 173.15 175.933 171.085 179.501 169.025C178.981 171.265 180.661 174.805 178.462 176.035C175.231 177.9 172.01 179.76 168.788 181.62C168.788 179.48 168.788 177.35 168.788 175.21ZM153.884 172.665C162.423 167.735 170.962 162.805 179.501 157.875C178.981 160.105 180.661 163.645 178.462 164.875C170.269 169.605 162.077 174.335 153.884 179.065C153.884 176.925 153.884 174.805 153.884 172.665ZM124.569 189.59C133.134 184.645 141.708 179.695 150.281 174.745C149.762 176.975 151.433 180.52 149.233 181.75C141.006 186.5 132.788 191.245 124.569 195.99C124.569 193.85 124.569 191.73 124.569 189.59ZM95.2887 206.495C103.845 201.555 112.401 196.615 120.966 191.67C120.438 193.905 122.118 197.445 119.91 198.68C111.7 203.42 103.499 208.155 95.2887 212.895C95.2887 210.755 95.2887 208.635 95.2887 206.495ZM95.2887 239.975C98.8394 237.925 102.399 235.87 105.949 233.82C105.421 236.045 107.11 239.59 104.893 240.84C101.697 242.685 98.493 244.535 95.2887 246.385C95.2887 244.245 95.2887 242.105 95.2887 239.975ZM110.15 231.395C118.723 226.445 127.288 221.5 135.871 216.545C135.342 218.77 137.031 222.315 134.814 223.565C126.595 228.31 118.368 233.06 110.15 237.805C110.15 235.665 110.15 233.525 110.15 231.395ZM139.465 214.47C148.03 209.525 156.612 204.57 165.186 199.62C164.657 201.845 166.337 205.395 164.129 206.64C155.91 211.385 147.683 216.135 139.465 220.88C139.465 218.74 139.465 216.6 139.465 214.47ZM168.788 197.54C172.356 195.48 175.933 193.415 179.501 191.355C178.981 193.575 180.661 197.125 178.462 198.365C175.231 200.23 172.01 202.09 168.788 203.95C168.788 201.81 168.788 199.67 168.788 197.54ZM153.884 194.975C162.423 190.045 170.962 185.115 179.501 180.185C178.981 182.425 180.661 185.955 178.462 187.195C170.269 191.925 162.077 196.655 153.884 201.385C153.884 199.255 153.884 197.115 153.884 194.975ZM124.569 211.9C133.134 206.955 141.708 202.005 150.281 197.055C149.762 199.295 151.433 202.83 149.233 204.07C141.006 208.82 132.788 213.565 124.569 218.31C124.569 216.18 124.569 214.04 124.569 211.9ZM95.2887 228.805C103.845 223.865 112.401 218.925 120.966 213.98C120.438 216.225 122.118 219.755 119.91 221C111.7 225.74 103.499 230.475 95.2887 235.215C95.2887 233.085 95.2887 230.945 95.2887 228.805ZM95.2887 262.295C98.8394 260.245 102.399 258.19 105.949 256.14C105.421 258.375 107.11 261.91 104.893 263.15C101.697 264.995 98.493 266.845 95.2887 268.695C95.2887 266.555 95.2887 264.425 95.2887 262.295ZM110.15 253.715C118.723 248.765 127.288 243.82 135.871 238.865C135.342 241.1 137.031 244.635 134.814 245.875C126.595 250.62 118.368 255.37 110.15 260.115C110.15 257.975 110.15 255.845 110.15 253.715ZM139.465 236.79C148.03 231.845 156.612 226.89 165.186 221.94C164.657 224.175 166.337 227.715 164.129 228.95C155.91 233.695 147.683 238.445 139.465 243.19C139.465 241.05 139.465 238.92 139.465 236.79ZM168.788 219.86C172.356 217.8 175.933 215.735 179.501 213.675C178.981 215.905 180.661 219.445 178.462 220.675C175.231 222.54 172.01 224.4 168.788 226.26C168.788 224.12 168.788 221.99 168.788 219.86ZM153.884 217.305C162.423 212.375 170.962 207.445 179.501 202.515C178.981 204.745 180.661 208.285 178.462 209.525C170.269 214.255 162.077 218.985 153.884 223.715C153.884 221.575 153.884 219.445 153.884 217.305ZM124.569 234.23C133.134 229.285 141.708 224.335 150.281 219.385C149.762 221.615 151.433 225.16 149.233 226.4C141.006 231.15 132.788 235.895 124.569 240.64C124.569 238.5 124.569 236.37 124.569 234.23ZM95.2887 251.135C103.845 246.195 112.401 241.255 120.966 236.31C120.438 238.545 122.118 242.085 119.91 243.33C111.7 248.07 103.499 252.805 95.2887 257.545C95.2887 255.405 95.2887 253.275 95.2887 251.135ZM176.245 113.715C153.901 126.245 132.458 155.915 124.656 184.81C126.769 182.98 130.371 183.02 131.073 179.465C134.329 169.495 139.213 159.495 145.206 150.495C145.735 152.26 144.254 155.575 146.705 154.08C144.799 158.14 146.384 160.425 145.873 163.43C145.38 166.525 137.923 177.38 142.608 174.445C156.404 166.48 170.2 158.515 183.987 150.555C184.368 152.685 182.723 160.815 186.1 154.675C186.1 150.975 190.153 145.435 193.938 143.09C195.063 137.77 200.71 134.4 199.567 137.42C200.771 135.265 208.21 128.94 204.018 131.23C202.607 135.455 199.827 132.42 202.373 129.48C198.282 132.097 202.999 125.902 204.19 127.565C204.257 127.659 204.313 127.778 204.356 127.925C204.268 127.809 204.214 127.689 204.19 127.565C203.892 125.994 208.462 123.776 210.228 122.395C208.747 125.17 205.075 130.78 210.583 125.92C215.216 124.485 209.5 123.325 211.596 120.335C213.207 117.505 209.708 115.565 213.068 117.585C228.163 127.43 230.449 156.56 218.507 184.875C215.259 185.63 212.453 186.39 209.275 187.315C206.287 186.83 208.409 181.265 204.399 182.7C200.563 185.375 197.506 181.96 195.929 181.48C193.79 181.045 190.707 185.395 187.962 183.69C184.983 188.07 186.481 181.345 183.987 187.065C183.987 198.725 183.987 210.385 183.987 222.055C186.343 221.135 191.53 227.58 184.429 230.97C171.975 240.59 158.76 244.93 148.315 242.65C145.432 244.315 142.539 245.985 139.646 247.655C157.391 256.37 185.988 242.46 206.036 215.345C225.452 190.085 235.55 155.295 230.12 132.56C224.759 107.005 201.403 98.7398 176.245 113.715ZM174.729 120.87C171.629 121.84 174.149 122.975 174.729 120.87V120.87ZM184.472 116.425C177.319 122.305 193.695 113.61 184.472 116.425V116.425ZM194.119 114.755C195.999 114.53 190.82 120.61 195.141 116.675C199.411 116.23 197.393 113.745 196.986 113.68C199.549 112.93 205.144 113.9 198.891 115.59C195.774 117.87 198.034 125.065 192.691 127.73C192.197 129.855 188.161 136.515 188.681 131.155C188.257 129.55 191.054 127.615 187.165 130.11C180.575 133.315 181.216 125.625 187.711 120.965C190.214 119.59 191.868 116.015 194.119 114.755ZM204.252 113.795C203.204 116.92 209.431 113.405 204.252 113.795V113.795ZM208.825 115.725C208.478 119.145 214.402 115.215 208.825 115.725V115.725ZM62.4317 147.315C56.6726 150.64 51.9614 158.85 51.9614 165.58V341.14C51.9614 347.87 56.6726 350.64 62.4317 347.315L263.194 231.405C268.944 228.085 273.664 219.87 273.664 213.14V37.5797C273.664 30.8497 268.944 28.0847 263.194 31.4047L62.4317 147.315ZM62.4317 152.825L263.194 36.9147C266.407 35.0597 268.927 36.5447 268.927 40.3147V215.875C268.927 219.645 266.407 224.04 263.194 225.895L62.4317 341.805C59.2101 343.665 56.6899 342.18 56.6899 338.41V162.85C56.6899 159.08 59.2101 154.685 62.4317 152.825Z" fill="#8BC5E4"/>
<path fill-rule="evenodd" clip-rule="evenodd" d="M62.4317 152.825L263.194 36.9147C266.407 35.0597 268.927 36.5447 268.927 40.3147V215.875C268.927 219.645 266.407 224.04 263.194 225.895L62.4317 341.805C59.2101 343.665 56.6899 342.18 56.6899 338.41V162.85C56.6899 159.08 59.2101 154.685 62.4317 152.825ZM105.949 211.49L95.2887 217.645V224.055L104.893 218.51C107.11 217.27 105.421 213.735 105.949 211.49ZM135.871 194.215L110.15 209.065V215.475L134.814 201.235C137.031 199.995 135.342 196.46 135.871 194.215ZM165.186 177.29L139.465 192.14V198.55L164.129 184.31C166.337 183.075 164.657 179.535 165.186 177.29ZM179.501 169.025L168.788 175.21V181.62L178.462 176.035C180.661 174.805 178.981 171.265 179.501 169.025ZM179.501 157.875L153.884 172.665V179.065L178.462 164.875C180.661 163.645 178.981 160.105 179.501 157.875ZM150.281 174.745L124.569 189.59V195.99L149.233 181.75C151.433 180.52 149.762 176.975 150.281 174.745ZM120.966 191.67L95.2887 206.495V212.895L119.91 198.68C122.118 197.445 120.438 193.905 120.966 191.67ZM105.949 233.82L95.2887 239.975V246.385L104.893 240.84C107.11 239.59 105.421 236.045 105.949 233.82ZM135.871 216.545L110.15 231.395V237.805L134.814 223.565C137.031 222.315 135.342 218.77 135.871 216.545ZM165.186 199.62L139.465 214.47V220.88L164.129 206.64C166.337 205.395 164.657 201.845 165.186 199.62ZM179.501 191.355L168.788 197.54V203.95L178.462 198.365C180.661 197.125 178.981 193.575 179.501 191.355ZM179.501 180.185L153.884 194.975V201.385L178.462 187.195C180.661 185.955 178.981 182.425 179.501 180.185ZM150.281 197.055L124.569 211.9V218.31L149.233 204.07C151.433 202.83 149.762 199.295 150.281 197.055ZM120.966 213.98L95.2887 228.805V235.215L119.91 221C122.118 219.755 120.438 216.225 120.966 213.98ZM105.949 256.14L95.2887 262.295V268.695L104.893 263.15C107.11 261.91 105.421 258.375 105.949 256.14ZM135.871 238.865L110.15 253.715V260.115L134.814 245.875C137.031 244.635 135.342 241.1 135.871 238.865ZM165.186 221.94L139.465 236.79V243.19L164.129 228.95C166.337 227.715 164.657 224.175 165.186 221.94ZM179.501 213.675L168.788 219.86V226.26L178.462 220.675C180.661 219.445 178.981 215.905 179.501 213.675ZM179.501 202.515L153.884 217.305V223.715L178.462 209.525C180.661 208.285 178.981 204.745 179.501 202.515ZM150.281 219.385L124.569 234.23V240.64L149.233 226.4C151.433 225.16 149.762 221.615 150.281 219.385ZM120.966 236.31L95.2887 251.135V257.545L119.91 243.33C122.118 242.085 120.438 238.545 120.966 236.31ZM124.656 184.81C132.458 155.915 153.901 126.245 176.245 113.715C201.403 98.7398 224.759 107.005 230.12 132.56C235.55 155.295 225.452 190.085 206.036 215.345C185.988 242.46 157.391 256.37 139.646 247.655L148.315 242.65C158.76 244.93 171.975 240.59 184.429 230.97C191.53 227.58 186.343 221.135 183.987 222.055V187.065C186.481 181.345 184.983 188.07 187.962 183.69C190.707 185.395 193.79 181.045 195.929 181.48C197.506 181.96 200.563 185.375 204.399 182.7C208.409 181.265 206.287 186.83 209.275 187.315C212.453 186.39 215.259 185.63 218.507 184.875C230.449 156.56 228.163 127.43 213.068 117.585C209.708 115.565 213.207 117.505 211.596 120.335C209.5 123.325 215.216 124.485 210.583 125.92C205.075 130.78 208.747 125.17 210.228 122.395C208.462 123.776 203.892 125.994 204.19 127.565C204.257 127.659 204.313 127.778 204.356 127.925C204.268 127.809 204.214 127.689 204.19 127.565C202.999 125.902 198.282 132.097 202.373 129.48C199.827 132.42 202.607 135.455 204.018 131.23C208.21 128.94 200.771 135.265 199.567 137.42C200.71 134.4 195.063 137.77 193.938 143.09C190.153 145.435 186.1 150.975 186.1 154.675C182.723 160.815 184.368 152.685 183.987 150.555L142.608 174.445C137.923 177.38 145.38 166.525 145.873 163.43C146.384 160.425 144.799 158.14 146.705 154.08C144.254 155.575 145.735 152.26 145.206 150.495C139.213 159.495 134.329 169.495 131.073 179.465C130.371 183.02 126.769 182.98 124.656 184.81Z" fill="white"/>
<path d="M194.119 114.755C195.999 114.53 190.82 120.61 195.141 116.675C199.411 116.23 197.393 113.745 196.986 113.68C199.549 112.93 205.144 113.9 198.891 115.59C195.774 117.87 198.034 125.065 192.691 127.73C192.197 129.855 188.161 136.515 188.681 131.155C188.257 129.55 191.054 127.615 187.165 130.11C180.575 133.315 181.216 125.625 187.711 120.965C190.214 119.59 191.868 116.015 194.119 114.755Z" fill="white"/>
<path fill-rule="evenodd" clip-rule="evenodd" d="M176.245 113.715C153.901 126.245 132.458 155.915 124.656 184.81C126.769 182.98 130.371 183.02 131.073 179.465C134.329 169.495 139.213 159.495 145.206 150.495C145.735 152.26 144.254 155.575 146.705 154.08C144.799 158.14 146.384 160.425 145.873 163.43C145.38 166.525 137.923 177.38 142.608 174.445L183.987 150.555C184.368 152.685 182.723 160.815 186.1 154.675C186.1 150.975 190.153 145.435 193.938 143.09C195.063 137.77 200.71 134.4 199.567 137.42C200.771 135.265 208.21 128.94 204.018 131.23C202.607 135.455 199.827 132.42 202.373 129.48C198.282 132.097 202.999 125.902 204.19 127.565C203.892 125.994 208.462 123.776 210.228 122.395C208.747 125.17 205.075 130.78 210.583 125.92C215.216 124.485 209.5 123.325 211.596 120.335C213.207 117.505 209.708 115.565 213.068 117.585C228.163 127.43 230.449 156.56 218.507 184.875C215.259 185.63 212.453 186.39 209.275 187.315C206.287 186.83 208.409 181.265 204.399 182.7C200.563 185.375 197.506 181.96 195.929 181.48C193.79 181.045 190.707 185.395 187.962 183.69C184.983 188.07 186.481 181.345 183.987 187.065V222.055C186.343 221.135 191.53 227.58 184.429 230.97C171.975 240.59 158.76 244.93 148.315 242.65L139.646 247.655C157.391 256.37 185.988 242.46 206.036 215.345C225.452 190.085 235.55 155.295 230.12 132.56C224.759 107.005 201.403 98.7398 176.245 113.715ZM195.141 116.675C190.82 120.61 195.999 114.53 194.119 114.755C191.868 116.015 190.214 119.59 187.711 120.965C181.216 125.625 180.575 133.315 187.165 130.11C191.054 127.615 188.257 129.55 188.681 131.155C188.161 136.515 192.197 129.855 192.691 127.73C198.034 125.065 195.774 117.87 198.891 115.59C205.144 113.9 199.549 112.93 196.986 113.68C197.393 113.745 199.411 116.23 195.141 116.675Z" fill="#8BC5E4"/>
</svg>
