<svg width="274" height="349" viewBox="0 0 274 349" fill="none" xmlns="http://www.w3.org/2000/svg">
<path fill-rule="evenodd" clip-rule="evenodd" d="M126.128 171.432V208.932L74.1665 178.932V141.432L126.128 171.432Z" fill="#8BC5E4"/>
<path fill-rule="evenodd" clip-rule="evenodd" d="M98.19 222.462V203.832L46.2285 173.832V192.462L98.19 222.462Z" fill="#8BC5E4"/>
<path fill-rule="evenodd" clip-rule="evenodd" d="M98.19 203.832L123.21 189.387L71.248 159.387L46.2285 173.832L98.19 203.832Z" fill="#8BC5E4"/>
<path fill-rule="evenodd" clip-rule="evenodd" d="M123.21 189.387V180.947L71.248 150.947V159.387L123.21 189.387Z" fill="#8BC5E4"/>
<path fill-rule="evenodd" clip-rule="evenodd" d="M113.952 183.482L106.885 187.562L54.9233 157.562L61.9901 153.482L113.952 183.482Z" fill="#8BC5E4"/>
<path fill-rule="evenodd" clip-rule="evenodd" d="M95.1759 202.712V211.472L43.2144 181.472V172.712L95.1759 202.712Z" fill="#8BC5E4"/>
<path fill-rule="evenodd" clip-rule="evenodd" d="M230.423 132.987V126.017L178.462 96.0173V102.987L230.423 132.987Z" fill="#8BC5E4"/>
<path fill-rule="evenodd" clip-rule="evenodd" d="M224.941 122.772L185.173 145.732L133.212 115.732L172.98 92.7722L224.941 122.772Z" fill="#8BC5E4"/>
<path fill-rule="evenodd" clip-rule="evenodd" d="M185.173 145.732V149.902L133.212 119.902V115.732L185.173 145.732Z" fill="#8BC5E4"/>
<path fill-rule="evenodd" clip-rule="evenodd" d="M185.173 149.902L224.941 126.942L172.98 96.9424L133.212 119.902L185.173 149.902Z" fill="#8BC5E4"/>
<path fill-rule="evenodd" clip-rule="evenodd" d="M226.855 128.077V147.677L174.894 117.677V98.0774L226.855 128.077Z" fill="#8BC5E4"/>
<path fill-rule="evenodd" clip-rule="evenodd" d="M181.606 177.492V139.402L129.644 109.402V147.492L181.606 177.492Z" fill="#8BC5E4"/>
<path fill-rule="evenodd" clip-rule="evenodd" d="M179.163 137.952L128.57 167.162L76.6084 137.162L127.202 107.952L179.163 137.952Z" fill="#8BC5E4"/>
<path fill-rule="evenodd" clip-rule="evenodd" d="M128.57 167.162L76.6084 137.162L128.57 167.162Z" fill="#8BC5E4"/>
<path fill-rule="evenodd" clip-rule="evenodd" d="M149.276 159.857L158.448 154.562L106.486 124.562L97.3149 129.857L149.276 159.857Z" fill="#8BC5E4"/>
<path fill-rule="evenodd" clip-rule="evenodd" d="M158.448 155.392L149.276 160.687L97.3149 130.687L106.486 125.392L158.448 155.392Z" fill="#8BC5E4"/>
<path fill-rule="evenodd" clip-rule="evenodd" d="M149.233 159.882L97.272 129.882L149.233 159.882Z" fill="#8BC5E4"/>
<path fill-rule="evenodd" clip-rule="evenodd" d="M130.51 175.452L177.215 148.487L125.253 118.487L78.5483 145.452L130.51 175.452Z" fill="#8BC5E4"/>
<path fill-rule="evenodd" clip-rule="evenodd" d="M177.214 148.487V180.167L125.253 150.167V118.487L177.214 148.487Z" fill="#8BC5E4"/>
<path fill-rule="evenodd" clip-rule="evenodd" d="M130.51 206.612V175.452L78.5483 145.452V176.612L130.51 206.612Z" fill="#8BC5E4"/>
<path fill-rule="evenodd" clip-rule="evenodd" d="M130.51 175.452L78.5483 145.452L130.51 175.452Z" fill="#8BC5E4"/>
<path fill-rule="evenodd" clip-rule="evenodd" d="M105.256 194.982L116.671 188.392L64.7091 158.392L53.2949 164.982L105.256 194.982Z" fill="#8BC5E4"/>
<path fill-rule="evenodd" clip-rule="evenodd" d="M117.485 188.872V189.342L65.5234 159.342V158.872L117.485 188.872Z" fill="#8BC5E4"/>
<path fill-rule="evenodd" clip-rule="evenodd" d="M116.671 190.762L105.256 197.352L53.2949 167.352L64.7091 160.762L116.671 190.762Z" fill="#8BC5E4"/>
<path fill-rule="evenodd" clip-rule="evenodd" d="M104.442 196.872V196.402L52.481 166.402V166.872L104.442 196.872Z" fill="#8BC5E4"/>
<path fill-rule="evenodd" clip-rule="evenodd" d="M105.256 194.982L53.2949 164.982L105.256 194.982Z" fill="#8BC5E4"/>
<path fill-rule="evenodd" clip-rule="evenodd" d="M230.423 144.987V134.657L178.462 104.657V114.987L230.423 144.987Z" fill="#8BC5E4"/>
<path fill-rule="evenodd" clip-rule="evenodd" d="M230.423 134.657L178.462 104.657L230.423 134.657Z" fill="#8BC5E4"/>
<path fill-rule="evenodd" clip-rule="evenodd" d="M95.1759 212.902V223.682L43.2144 193.682V182.902L95.1759 212.902Z" fill="#8BC5E4"/>
<path fill-rule="evenodd" clip-rule="evenodd" d="M95.1759 212.902L43.2144 182.902L95.1759 212.902Z" fill="#8BC5E4"/>
<path fill-rule="evenodd" clip-rule="evenodd" d="M95.1759 230.222V255.222L43.2144 225.222V200.222L95.1759 230.222Z" fill="#8BC5E4"/>
<path fill-rule="evenodd" clip-rule="evenodd" d="M106.495 256.427L114.982 251.527L63.0207 221.527L54.5337 226.427L106.495 256.427Z" fill="#8BC5E4"/>
<path fill-rule="evenodd" clip-rule="evenodd" d="M123.21 243.927V235.487L71.248 205.487V213.927L123.21 243.927Z" fill="#8BC5E4"/>
<path fill-rule="evenodd" clip-rule="evenodd" d="M123.21 235.487L98.19 249.932L46.2285 219.932L71.248 205.487L123.21 235.487Z" fill="#8BC5E4"/>
<path fill-rule="evenodd" clip-rule="evenodd" d="M98.19 249.932V229.142L46.2285 199.142V219.932L98.19 249.932Z" fill="#8BC5E4"/>
<path fill-rule="evenodd" clip-rule="evenodd" d="M95.1759 230.222L43.2144 200.222L95.1759 230.222Z" fill="#8BC5E4"/>
<path fill-rule="evenodd" clip-rule="evenodd" d="M230.423 152.137L226.855 154.737L174.894 124.737L178.462 122.137L230.423 152.137Z" fill="#8BC5E4"/>
<path fill-rule="evenodd" clip-rule="evenodd" d="M226.855 154.737V157.557L174.894 127.557V124.737L226.855 154.737Z" fill="#8BC5E4"/>
<path fill-rule="evenodd" clip-rule="evenodd" d="M224.941 160.892L185.173 183.852L133.212 153.852L172.98 130.892L224.941 160.892Z" fill="#8BC5E4"/>
<path fill-rule="evenodd" clip-rule="evenodd" d="M185.173 183.852V188.022L133.212 158.022V153.852L185.173 183.852Z" fill="#8BC5E4"/>
<path fill-rule="evenodd" clip-rule="evenodd" d="M185.173 188.022L230.423 161.897L178.462 131.897L133.212 158.022L185.173 188.022Z" fill="#8BC5E4"/>
<path fill-rule="evenodd" clip-rule="evenodd" d="M230.423 161.897V152.137L178.462 122.137V131.897L230.423 161.897Z" fill="#8BC5E4"/>
<path fill-rule="evenodd" clip-rule="evenodd" d="M230.423 152.137L178.462 122.137L230.423 152.137Z" fill="#8BC5E4"/>
<path fill-rule="evenodd" clip-rule="evenodd" d="M126.128 215.752V250.742L74.1665 220.742V185.752L126.128 215.752Z" fill="#8BC5E4"/>
<path fill-rule="evenodd" clip-rule="evenodd" d="M128.57 252.182L179.163 222.972L127.202 192.972L76.6084 222.182L128.57 252.182Z" fill="#8BC5E4"/>
<path fill-rule="evenodd" clip-rule="evenodd" d="M181.606 218.712V184.562L129.644 154.562V188.712L181.606 218.712Z" fill="#8BC5E4"/>
<path fill-rule="evenodd" clip-rule="evenodd" d="M181.605 184.562L177.214 187.097L125.253 157.097L129.644 154.562L181.605 184.562Z" fill="#8BC5E4"/>
<path fill-rule="evenodd" clip-rule="evenodd" d="M177.214 187.097V209.087L125.253 179.087V157.097L177.214 187.097Z" fill="#8BC5E4"/>
<path fill-rule="evenodd" clip-rule="evenodd" d="M177.215 209.087L130.51 236.052L78.5483 206.052L125.253 179.087L177.215 209.087Z" fill="#8BC5E4"/>
<path fill-rule="evenodd" clip-rule="evenodd" d="M130.51 236.052V213.222L78.5483 183.222V206.052L130.51 236.052Z" fill="#8BC5E4"/>
<path fill-rule="evenodd" clip-rule="evenodd" d="M130.51 213.222L126.128 215.752L74.1665 185.752L78.5486 183.222L130.51 213.222Z" fill="#8BC5E4"/>
<path fill-rule="evenodd" clip-rule="evenodd" d="M126.128 215.752L74.1665 185.752L126.128 215.752Z" fill="#8BC5E4"/>
<path fill-rule="evenodd" clip-rule="evenodd" d="M185.191 190.722L185.122 208.222L133.16 178.222L133.229 160.722L185.191 190.722Z" fill="#8BC5E4"/>
<path fill-rule="evenodd" clip-rule="evenodd" d="M185.122 208.222L240.071 176.477L188.109 146.477L133.16 178.222L185.122 208.222Z" fill="#8BC5E4"/>
<path fill-rule="evenodd" clip-rule="evenodd" d="M240.071 176.477L230.666 164.547L178.704 134.547L188.109 146.477L240.071 176.477Z" fill="#8BC5E4"/>
<path fill-rule="evenodd" clip-rule="evenodd" d="M230.666 164.547L185.191 190.722L133.229 160.722L178.704 134.547L230.666 164.547Z" fill="#8BC5E4"/>
<path fill-rule="evenodd" clip-rule="evenodd" d="M185.191 190.722L133.229 160.722L185.191 190.722Z" fill="#8BC5E4"/>
<path fill-rule="evenodd" clip-rule="evenodd" d="M110.955 245.452L58.9937 215.452L110.955 245.452Z" fill="#8BC5E4"/>
<path fill-rule="evenodd" clip-rule="evenodd" d="M153.867 227.577L101.905 197.577L153.867 227.577Z" fill="#8BC5E4"/>
<path fill-rule="evenodd" clip-rule="evenodd" d="M51.9615 165.572V341.142L0 311.142V135.572L51.9615 165.572Z" fill="#8BC5E4"/>
<path fill-rule="evenodd" clip-rule="evenodd" d="M62.423 347.322L263.194 231.407L211.232 201.407L10.4614 317.322L62.423 347.322Z" fill="#8BC5E4"/>
<path fill-rule="evenodd" clip-rule="evenodd" d="M273.664 213.142V37.5723L221.703 7.57227V183.142L273.664 213.142Z" fill="#8BC5E4"/>
<path fill-rule="evenodd" clip-rule="evenodd" d="M263.194 31.4072L62.423 147.322L10.4614 117.322L211.232 1.40723L263.194 31.4072Z" fill="#8BC5E4"/>
<path fill-rule="evenodd" clip-rule="evenodd" d="M62.423 147.322L10.4614 117.322L62.423 147.322Z" fill="#8BC5E4"/>
<path fill-rule="evenodd" clip-rule="evenodd" d="M62.423 152.842L263.194 36.9272L211.232 6.92725L10.4614 122.842L62.423 152.842Z" fill="#8BC5E4"/>
<path fill-rule="evenodd" clip-rule="evenodd" d="M268.936 40.3022V215.872L216.974 185.872V10.3022L268.936 40.3022Z" fill="#8BC5E4"/>
<path fill-rule="evenodd" clip-rule="evenodd" d="M263.194 225.887L62.423 341.802L10.4614 311.802L211.232 195.887L263.194 225.887Z" fill="#8BC5E4"/>
<path fill-rule="evenodd" clip-rule="evenodd" d="M56.69 338.412V162.842L4.72852 132.842V308.412L56.69 338.412Z" fill="#8BC5E4"/>
<path fill-rule="evenodd" clip-rule="evenodd" d="M62.423 152.842L10.4614 122.842L62.423 152.842Z" fill="#8BC5E4"/>
<path fill-rule="evenodd" clip-rule="evenodd" d="M128.57 167.162C127.219 167.942 126.128 169.852 126.128 171.432L74.1665 141.432C74.1665 139.852 75.2577 137.942 76.6087 137.162L128.57 167.162Z" fill="#8BC5E4"/>
<path fill-rule="evenodd" clip-rule="evenodd" d="M126.128 208.932C115.892 214.302 105.941 219.227 98.19 222.462L46.2285 192.462C53.9794 189.227 63.9301 184.302 74.1665 178.932L126.128 208.932Z" fill="#8BC5E4"/>
<path fill-rule="evenodd" clip-rule="evenodd" d="M123.21 180.947C120.932 180.802 116.177 182.197 113.952 183.482L61.9902 153.482C64.2159 152.197 68.9704 150.802 71.248 150.947L123.21 180.947Z" fill="#8BC5E4"/>
<path fill-rule="evenodd" clip-rule="evenodd" d="M106.885 187.562C104.858 188.732 100.32 192.392 97.5924 196.367L45.6309 166.367C48.3588 162.392 52.8968 158.732 54.9233 157.562L106.885 187.562Z" fill="#8BC5E4"/>
<path fill-rule="evenodd" clip-rule="evenodd" d="M97.5921 196.367C96.2064 198.457 95.1759 200.132 95.1759 202.712L43.2144 172.712C43.2144 170.132 44.2449 168.457 45.6306 166.367L97.5921 196.367Z" fill="#8BC5E4"/>
<path fill-rule="evenodd" clip-rule="evenodd" d="M95.1759 211.472C86.7928 217.692 74.2008 227.142 74.2008 230.852L22.2393 200.852C22.2393 197.142 34.8313 187.692 43.2144 181.472L95.1759 211.472Z" fill="#8BC5E4"/>
<path fill-rule="evenodd" clip-rule="evenodd" d="M74.2008 230.852C74.2008 231.171 74.2724 231.443 74.4127 231.668L22.4511 201.668C22.3108 201.443 22.2393 201.171 22.2393 200.852L74.2008 230.852Z" fill="#8BC5E4"/>
<path fill-rule="evenodd" clip-rule="evenodd" d="M74.4127 231.668C77.7803 237.078 120.746 215.949 164.302 190.802L112.341 160.802C68.7843 185.949 25.8187 207.078 22.4512 201.668L74.4127 231.668Z" fill="#8BC5E4"/>
<path fill-rule="evenodd" clip-rule="evenodd" d="M164.302 190.802C199.281 170.607 250.472 136.852 250.472 129.112L198.51 99.1123C198.51 106.852 147.32 140.607 112.341 160.802L164.302 190.802Z" fill="#8BC5E4"/>
<path fill-rule="evenodd" clip-rule="evenodd" d="M250.472 129.112C250.472 128.703 250.305 128.397 249.997 128.182L198.036 98.1819C198.344 98.3973 198.51 98.7031 198.51 99.1123L250.472 129.112Z" fill="#8BC5E4"/>
<path fill-rule="evenodd" clip-rule="evenodd" d="M249.997 128.182C247.738 126.602 237.877 129.89 230.423 132.987L178.462 102.987C185.915 99.8897 195.776 96.6024 198.036 98.1818L249.997 128.182Z" fill="#8BC5E4"/>
<path fill-rule="evenodd" clip-rule="evenodd" d="M230.423 126.017C230.423 124.332 229.853 123.118 228.927 122.502L176.965 92.5017C177.891 93.1176 178.462 94.3324 178.462 96.0172L230.423 126.017Z" fill="#8BC5E4"/>
<path fill-rule="evenodd" clip-rule="evenodd" d="M228.927 122.502C227.924 121.835 226.504 121.87 224.942 122.772L172.98 92.7724C174.543 91.8702 175.962 91.8346 176.965 92.5019L228.927 122.502Z" fill="#8BC5E4"/>
<path fill-rule="evenodd" clip-rule="evenodd" d="M224.942 126.942C225.465 126.64 225.927 126.594 226.266 126.77L174.304 96.7705C173.966 96.5945 173.504 96.64 172.98 96.9424L224.942 126.942Z" fill="#8BC5E4"/>
<path fill-rule="evenodd" clip-rule="evenodd" d="M226.266 126.771C226.633 126.961 226.855 127.412 226.855 128.077L174.894 98.0774C174.894 97.4118 174.671 96.9612 174.304 96.7705L226.266 126.771Z" fill="#8BC5E4"/>
<path fill-rule="evenodd" clip-rule="evenodd" d="M226.855 147.677C214.471 156.797 196.666 168.257 181.606 177.492L129.644 147.492C144.704 138.257 162.51 126.797 174.894 117.677L226.855 147.677Z" fill="#8BC5E4"/>
<path fill-rule="evenodd" clip-rule="evenodd" d="M181.605 139.402C181.605 138.644 181.354 138.1 180.943 137.825L128.981 107.825C129.392 108.1 129.644 108.644 129.644 109.402L181.605 139.402Z" fill="#8BC5E4"/>
<path fill-rule="evenodd" clip-rule="evenodd" d="M180.943 137.825C180.498 137.528 179.866 137.547 179.163 137.952L127.202 107.952C127.904 107.547 128.536 107.528 128.982 107.825L180.943 137.825Z" fill="#8BC5E4"/>
<path fill-rule="evenodd" clip-rule="evenodd" d="M149.233 159.882C149.251 159.872 149.259 159.867 149.277 159.857L97.3153 129.857C97.298 129.867 97.2893 129.872 97.272 129.882L149.233 159.882Z" fill="#8BC5E4"/>
<path fill-rule="evenodd" clip-rule="evenodd" d="M158.448 154.562C158.548 154.498 158.629 154.483 158.689 154.501L106.727 124.501C106.667 124.483 106.587 124.498 106.486 124.562L158.448 154.562Z" fill="#8BC5E4"/>
<path fill-rule="evenodd" clip-rule="evenodd" d="M158.689 154.501C158.93 154.573 158.85 155.184 158.448 155.392L106.486 125.392C106.888 125.184 106.969 124.573 106.727 124.501L158.689 154.501Z" fill="#8BC5E4"/>
<path fill-rule="evenodd" clip-rule="evenodd" d="M149.277 160.687C149.165 160.757 149.077 160.764 149.016 160.731L97.0542 130.731C97.1157 130.764 97.203 130.757 97.3152 130.687L149.277 160.687Z" fill="#8BC5E4"/>
<path fill-rule="evenodd" clip-rule="evenodd" d="M149.016 160.731C148.821 160.626 148.884 160.114 149.233 159.882L97.2718 129.882C96.9229 130.114 96.8592 130.626 97.054 130.731L149.016 160.731Z" fill="#8BC5E4"/>
<path fill-rule="evenodd" clip-rule="evenodd" d="M177.215 180.167C172.451 183.057 168.078 185.642 164.389 187.772L112.427 157.772C116.117 155.642 120.49 153.057 125.253 150.167L177.215 180.167Z" fill="#8BC5E4"/>
<path fill-rule="evenodd" clip-rule="evenodd" d="M164.389 187.772C155.322 193.007 142.903 200.017 130.51 206.612L78.5483 176.612C90.9412 170.017 103.36 163.007 112.427 157.772L164.389 187.772Z" fill="#8BC5E4"/>
<path fill-rule="evenodd" clip-rule="evenodd" d="M116.671 188.392C116.887 188.267 117.083 188.253 117.229 188.33L65.2674 158.33C65.1218 158.253 64.9256 158.267 64.7095 158.392L116.671 188.392Z" fill="#8BC5E4"/>
<path fill-rule="evenodd" clip-rule="evenodd" d="M117.229 188.33C117.386 188.413 117.485 188.602 117.485 188.872L65.5232 158.872C65.5232 158.602 65.4248 158.413 65.2671 158.33L117.229 188.33Z" fill="#8BC5E4"/>
<path fill-rule="evenodd" clip-rule="evenodd" d="M117.485 189.342C117.485 189.872 117.121 190.502 116.671 190.762L64.7095 160.762C65.1598 160.502 65.5235 159.872 65.5235 159.342L117.485 189.342Z" fill="#8BC5E4"/>
<path fill-rule="evenodd" clip-rule="evenodd" d="M105.257 197.352C105.041 197.477 104.844 197.494 104.699 197.418L52.7373 167.418C52.8829 167.494 53.0791 167.477 53.2953 167.352L105.257 197.352Z" fill="#8BC5E4"/>
<path fill-rule="evenodd" clip-rule="evenodd" d="M104.699 197.418C104.541 197.337 104.442 197.148 104.442 196.872L52.481 166.872C52.481 167.148 52.5793 167.337 52.7371 167.418L104.699 197.418Z" fill="#8BC5E4"/>
<path fill-rule="evenodd" clip-rule="evenodd" d="M104.442 196.402C104.442 195.882 104.806 195.242 105.257 194.982L53.295 164.982C52.8447 165.242 52.481 165.882 52.481 166.402L104.442 196.402Z" fill="#8BC5E4"/>
<path fill-rule="evenodd" clip-rule="evenodd" d="M230.423 134.657C234.172 133.269 239.4 131.513 241.341 132.203L189.379 102.203C187.438 101.513 182.21 103.269 178.462 104.657L230.423 134.657Z" fill="#8BC5E4"/>
<path fill-rule="evenodd" clip-rule="evenodd" d="M241.341 132.203C241.826 132.375 242.106 132.7 242.106 133.222L190.145 103.222C190.145 102.7 189.865 102.375 189.379 102.203L241.341 132.203Z" fill="#8BC5E4"/>
<path fill-rule="evenodd" clip-rule="evenodd" d="M242.106 133.222C242.106 135.242 237.508 139.557 230.423 144.987L178.462 114.987C185.546 109.557 190.145 105.242 190.145 103.222L242.106 133.222Z" fill="#8BC5E4"/>
<path fill-rule="evenodd" clip-rule="evenodd" d="M95.1762 223.682C89.5949 225.856 85.5242 226.886 83.8917 226.188L31.9302 196.188C33.5626 196.886 37.6333 195.856 43.2147 193.682L95.1762 223.682Z" fill="#8BC5E4"/>
<path fill-rule="evenodd" clip-rule="evenodd" d="M83.8915 226.188C83.376 225.968 83.1036 225.575 83.1036 224.992L31.1421 194.992C31.1421 195.575 31.4145 195.968 31.93 196.188L83.8915 226.188Z" fill="#8BC5E4"/>
<path fill-rule="evenodd" clip-rule="evenodd" d="M83.1036 224.992C83.1036 223.102 90.2397 216.732 95.176 212.902L43.2145 182.902C38.2781 186.732 31.1421 193.102 31.1421 194.992L83.1036 224.992Z" fill="#8BC5E4"/>
<path fill-rule="evenodd" clip-rule="evenodd" d="M95.1759 255.222C95.1759 256.264 95.6243 256.971 96.3548 257.42L44.3933 227.42C43.6628 226.971 43.2144 226.264 43.2144 225.222L95.1759 255.222Z" fill="#8BC5E4"/>
<path fill-rule="evenodd" clip-rule="evenodd" d="M96.3551 257.42C98.6683 258.844 103.81 257.689 106.495 256.427L54.5336 226.427C51.8482 227.689 46.7068 228.844 44.3936 227.42L96.3551 257.42Z" fill="#8BC5E4"/>
<path fill-rule="evenodd" clip-rule="evenodd" d="M114.982 251.527C118.628 249.002 121.113 246.457 123.209 243.927L71.2477 213.927C69.152 216.457 66.6665 219.002 63.0205 221.527L114.982 251.527Z" fill="#8BC5E4"/>
<path fill-rule="evenodd" clip-rule="evenodd" d="M98.1896 229.142C97.211 229.707 96.0246 230.262 95.1759 230.222L43.2144 200.222C44.0631 200.262 45.2495 199.707 46.2281 199.142L98.1896 229.142Z" fill="#8BC5E4"/>
<path fill-rule="evenodd" clip-rule="evenodd" d="M226.855 157.557C226.855 158.827 226.033 160.262 224.942 160.892L172.98 130.892C174.071 130.262 174.894 128.827 174.894 127.557L226.855 157.557Z" fill="#8BC5E4"/>
<path fill-rule="evenodd" clip-rule="evenodd" d="M126.128 250.742C126.128 251.501 126.379 252.042 126.79 252.315L74.8288 222.315C74.4179 222.042 74.1665 221.501 74.1665 220.742L126.128 250.742Z" fill="#8BC5E4"/>
<path fill-rule="evenodd" clip-rule="evenodd" d="M126.79 252.315C127.235 252.61 127.868 252.588 128.57 252.182L76.6085 222.182C75.906 222.588 75.2737 222.61 74.8286 222.315L126.79 252.315Z" fill="#8BC5E4"/>
<path fill-rule="evenodd" clip-rule="evenodd" d="M179.163 222.972C180.514 222.192 181.605 220.292 181.605 218.712L129.644 188.712C129.644 190.292 128.553 192.192 127.202 192.972L179.163 222.972Z" fill="#8BC5E4"/>
<path fill-rule="evenodd" clip-rule="evenodd" d="M110.955 245.452C111.45 245.167 111.901 245.132 112.236 245.306L60.2741 215.306C59.9391 215.132 59.4883 215.167 58.9937 215.452L110.955 245.452Z" fill="#8BC5E4"/>
<path fill-rule="evenodd" clip-rule="evenodd" d="M112.235 245.306C112.598 245.495 112.826 245.928 112.826 246.552L60.864 216.552C60.864 215.928 60.6369 215.495 60.2739 215.306L112.235 245.306Z" fill="#8BC5E4"/>
<path fill-rule="evenodd" clip-rule="evenodd" d="M112.826 246.552C112.826 247.752 111.986 249.207 110.955 249.802L58.9937 219.802C60.0242 219.207 60.8643 217.752 60.8643 216.552L112.826 246.552Z" fill="#8BC5E4"/>
<path fill-rule="evenodd" clip-rule="evenodd" d="M110.955 249.802C110.465 250.085 110.016 250.121 109.682 249.949L57.7207 219.949C58.0546 220.121 58.5032 220.085 58.9938 219.802L110.955 249.802Z" fill="#8BC5E4"/>
<path fill-rule="evenodd" clip-rule="evenodd" d="M109.682 249.949C109.321 249.762 109.093 249.331 109.093 248.707L57.1318 218.707C57.1318 219.331 57.359 219.762 57.7207 219.949L109.682 249.949Z" fill="#8BC5E4"/>
<path fill-rule="evenodd" clip-rule="evenodd" d="M109.093 248.707C109.093 247.507 109.933 246.042 110.955 245.452L58.9938 215.452C57.9719 216.042 57.1318 217.507 57.1318 218.707L109.093 248.707Z" fill="#8BC5E4"/>
<path fill-rule="evenodd" clip-rule="evenodd" d="M153.867 227.577C154.569 227.172 155.208 227.121 155.682 227.367L103.721 197.367C103.246 197.121 102.608 197.172 101.905 197.577L153.867 227.577Z" fill="#8BC5E4"/>
<path fill-rule="evenodd" clip-rule="evenodd" d="M155.682 227.367C156.196 227.633 156.517 228.248 156.517 229.137L104.555 199.137C104.555 198.248 104.234 197.633 103.721 197.367L155.682 227.367Z" fill="#8BC5E4"/>
<path fill-rule="evenodd" clip-rule="evenodd" d="M156.517 229.137C156.517 230.837 155.33 232.912 153.867 233.757L101.905 203.757C103.369 202.912 104.555 200.837 104.555 199.137L156.517 229.137Z" fill="#8BC5E4"/>
<path fill-rule="evenodd" clip-rule="evenodd" d="M153.867 233.757C153.164 234.163 152.526 234.211 152.051 233.964L100.09 203.964C100.564 204.211 101.203 204.163 101.905 203.757L153.867 233.757Z" fill="#8BC5E4"/>
<path fill-rule="evenodd" clip-rule="evenodd" d="M152.051 233.964C151.537 233.696 151.216 233.081 151.216 232.197L99.2549 202.197C99.2549 203.081 99.5757 203.696 100.089 203.964L152.051 233.964Z" fill="#8BC5E4"/>
<path fill-rule="evenodd" clip-rule="evenodd" d="M151.216 232.197C151.216 230.487 152.403 228.422 153.866 227.577L101.905 197.577C100.441 198.422 99.2549 200.487 99.2549 202.197L151.216 232.197Z" fill="#8BC5E4"/>
<path fill-rule="evenodd" clip-rule="evenodd" d="M62.4231 147.322C56.6727 150.642 51.9615 158.852 51.9615 165.572L0 135.572C0 128.852 4.71118 120.642 10.4616 117.322L62.4231 147.322Z" fill="#8BC5E4"/>
<path fill-rule="evenodd" clip-rule="evenodd" d="M51.9615 341.142C51.9615 344.368 53.047 346.686 54.8118 347.857L2.85028 317.857C1.08546 316.686 0 314.368 0 311.142L51.9615 341.142Z" fill="#8BC5E4"/>
<path fill-rule="evenodd" clip-rule="evenodd" d="M54.8116 347.857C56.7235 349.126 59.4327 349.049 62.4229 347.322L10.4614 317.322C7.47119 319.049 4.76199 319.126 2.8501 317.857L54.8116 347.857Z" fill="#8BC5E4"/>
<path fill-rule="evenodd" clip-rule="evenodd" d="M263.193 231.407C268.953 228.082 273.664 219.862 273.664 213.142L221.702 183.142C221.702 189.862 216.991 198.082 211.232 201.407L263.193 231.407Z" fill="#8BC5E4"/>
<path fill-rule="evenodd" clip-rule="evenodd" d="M273.664 37.5724C273.664 34.3468 272.578 32.0313 270.813 30.863L218.851 0.863037C220.617 2.03126 221.702 4.34678 221.702 7.57238L273.664 37.5724Z" fill="#8BC5E4"/>
<path fill-rule="evenodd" clip-rule="evenodd" d="M270.812 30.8631C268.9 29.5975 266.188 29.6784 263.193 31.4074L211.232 1.40742C214.227 -0.321584 216.938 -0.402495 218.851 0.863077L270.812 30.8631Z" fill="#8BC5E4"/>
<path fill-rule="evenodd" clip-rule="evenodd" d="M263.193 36.9272C264.74 36.0344 266.125 35.91 267.147 36.4378L215.185 6.43782C214.163 5.90998 212.778 6.03439 211.232 6.92719L263.193 36.9272Z" fill="#8BC5E4"/>
<path fill-rule="evenodd" clip-rule="evenodd" d="M267.147 36.438C268.254 37.0098 268.935 38.3472 268.935 40.3024L216.974 10.3024C216.974 8.34716 216.292 7.00982 215.185 6.43799L267.147 36.438Z" fill="#8BC5E4"/>
<path fill-rule="evenodd" clip-rule="evenodd" d="M268.935 215.872C268.935 219.632 266.415 224.027 263.193 225.887L211.232 195.887C214.454 194.027 216.974 189.632 216.974 185.872L268.935 215.872Z" fill="#8BC5E4"/>
<path fill-rule="evenodd" clip-rule="evenodd" d="M62.4228 341.802C60.8806 342.693 59.498 342.814 58.4771 342.283L6.51562 312.283C7.53651 312.814 8.9191 312.693 10.4613 311.802L62.4228 341.802Z" fill="#8BC5E4"/>
<path fill-rule="evenodd" clip-rule="evenodd" d="M58.4774 342.283C57.3715 341.708 56.69 340.368 56.69 338.412L4.72852 308.412C4.72852 310.368 5.40996 311.708 6.51591 312.283L58.4774 342.283Z" fill="#8BC5E4"/>
<path fill-rule="evenodd" clip-rule="evenodd" d="M56.69 162.842C56.69 159.082 59.2102 154.697 62.4231 152.842L10.4616 122.842C7.24865 124.697 4.72852 129.082 4.72852 132.842L56.69 162.842Z" fill="#8BC5E4"/>
<path d="M128.57 167.162C127.219 167.942 126.128 169.852 126.128 171.432V208.932C115.891 214.302 105.941 219.227 98.1899 222.462V203.832L123.209 189.387V180.947C120.932 180.802 116.177 182.197 113.952 183.482L106.885 187.562C104.858 188.732 100.32 192.392 97.5923 196.367C96.2067 198.457 95.1761 200.132 95.1761 202.712V211.472C86.793 217.692 74.201 227.142 74.201 230.852C74.201 238.832 118.931 216.997 164.302 190.802C199.281 170.607 250.472 136.852 250.472 129.112C250.472 125.702 238.893 129.467 230.423 132.987V126.017C230.423 122.507 227.946 121.037 224.941 122.772L185.173 145.732V149.902L224.941 126.942C226.033 126.312 226.855 126.797 226.855 128.077V147.677C214.471 156.797 196.666 168.257 181.605 177.492V139.402C181.605 137.822 180.514 137.172 179.163 137.952L128.57 167.162ZM149.233 159.882C149.251 159.872 149.259 159.867 149.277 159.857L158.448 154.562C158.95 154.242 158.95 155.132 158.448 155.392L149.277 160.687C148.809 160.977 148.774 160.187 149.233 159.882ZM130.51 175.452L177.215 148.487V180.167C172.452 183.057 168.078 185.642 164.389 187.772C155.322 193.007 142.903 200.017 130.51 206.612V175.452ZM105.257 194.982L116.671 188.392C117.121 188.132 117.485 188.352 117.485 188.872V189.342C117.485 189.872 117.121 190.502 116.671 190.762L105.257 197.352C104.806 197.612 104.443 197.402 104.443 196.872V196.402C104.443 195.882 104.806 195.242 105.257 194.982ZM230.423 134.657C235.108 132.922 242.106 130.612 242.106 133.222C242.106 135.242 237.507 139.557 230.423 144.987V134.657ZM95.1761 212.902V223.682C87.8322 226.542 83.1037 227.422 83.1037 224.992C83.1037 223.102 90.2397 216.732 95.1761 212.902ZM95.1761 230.222V255.222C95.1761 259.562 102.962 258.087 106.495 256.427L114.982 251.527C118.628 249.002 121.114 246.457 123.209 243.927V235.487L98.1899 249.932V229.142C97.2113 229.707 96.0248 230.262 95.1761 230.222ZM230.423 152.137L226.855 154.737V157.557C226.855 158.827 226.033 160.262 224.941 160.892L185.173 183.852V188.022L230.423 161.897V152.137ZM126.128 215.752V250.742C126.128 252.322 127.219 252.962 128.57 252.182L179.163 222.972C180.514 222.192 181.605 220.292 181.605 218.712V184.562L177.215 187.097V209.087L130.51 236.052V213.222L126.128 215.752ZM185.191 190.722L185.121 208.222L240.071 176.477L230.666 164.547L185.191 190.722ZM110.955 245.452C111.986 244.857 112.826 245.352 112.826 246.552C112.826 247.752 111.986 249.207 110.955 249.802C109.933 250.392 109.093 249.907 109.093 248.707C109.093 247.507 109.933 246.042 110.955 245.452ZM153.867 227.577C155.33 226.732 156.517 227.427 156.517 229.137C156.517 230.837 155.33 232.912 153.867 233.757C152.403 234.602 151.217 233.897 151.217 232.197C151.217 230.487 152.403 228.422 153.867 227.577ZM62.423 147.322C56.6726 150.642 51.9614 158.852 51.9614 165.572V341.142C51.9614 347.862 56.6726 350.642 62.423 347.322L263.194 231.407C268.953 228.082 273.664 219.862 273.664 213.142V37.5724C273.664 30.8524 268.953 28.0824 263.194 31.4074L62.423 147.322ZM62.423 152.842L263.194 36.9274C266.415 35.0674 268.935 36.5424 268.935 40.3024V215.872C268.935 219.632 266.415 224.027 263.194 225.887L62.423 341.802C59.2101 343.657 56.6899 342.172 56.6899 338.412V162.842C56.6899 159.082 59.2101 154.697 62.423 152.842Z" fill="#8BC5E4"/>
<path fill-rule="evenodd" clip-rule="evenodd" d="M62.423 152.842L263.194 36.9274C266.415 35.0674 268.935 36.5424 268.935 40.3024V215.872C268.935 219.632 266.415 224.027 263.194 225.887L62.423 341.802C59.2101 343.657 56.6899 342.172 56.6899 338.412V162.842C56.6899 159.082 59.2101 154.697 62.423 152.842ZM126.128 171.432C126.128 169.852 127.219 167.942 128.57 167.162L179.163 137.952C180.514 137.172 181.605 137.822 181.605 139.402V177.492C196.666 168.257 214.471 156.797 226.855 147.677V128.077C226.855 126.797 226.033 126.312 224.941 126.942L185.173 149.902V145.732L224.941 122.772C227.946 121.037 230.423 122.507 230.423 126.017V132.987C238.893 129.467 250.472 125.702 250.472 129.112C250.472 136.852 199.281 170.607 164.302 190.802C118.931 216.997 74.201 238.832 74.201 230.852C74.201 227.142 86.793 217.692 95.1761 211.472V202.712C95.1761 200.132 96.2067 198.457 97.5923 196.367C100.32 192.392 104.858 188.732 106.885 187.562L113.952 183.482C116.177 182.197 120.932 180.802 123.209 180.947V189.387L98.1899 203.832V222.462C105.941 219.227 115.891 214.302 126.128 208.932V171.432ZM95.1761 255.222V230.222C96.0248 230.262 97.2113 229.707 98.1899 229.142V249.932L123.209 235.487V243.927C121.114 246.457 118.628 249.002 114.982 251.527L106.495 256.427C102.962 258.087 95.1761 259.562 95.1761 255.222ZM226.855 154.737L230.423 152.137V161.897L185.173 188.022V183.852L224.941 160.892C226.033 160.262 226.855 158.827 226.855 157.557V154.737ZM126.128 250.742V215.752L130.51 213.222V236.052L177.215 209.087V187.097L181.605 184.562V218.712C181.605 220.292 180.514 222.192 179.163 222.972L128.57 252.182C127.219 252.962 126.128 252.322 126.128 250.742ZM185.121 208.222L185.191 190.722L230.666 164.547L240.071 176.477L185.121 208.222Z" fill="white"/>
<path d="M130.51 175.452L177.215 148.487V180.167C172.452 183.057 168.078 185.642 164.389 187.772C155.322 193.007 142.903 200.017 130.51 206.612V175.452Z" fill="white"/>
<path d="M230.423 134.657C235.108 132.922 242.106 130.612 242.106 133.222C242.106 135.242 237.507 139.557 230.423 144.987V134.657Z" fill="white"/>
<path d="M95.1761 212.902V223.682C87.8322 226.542 83.1037 227.422 83.1037 224.992C83.1037 223.102 90.2397 216.732 95.1761 212.902Z" fill="white"/>
<path d="M153.867 227.577C155.33 226.732 156.517 227.427 156.517 229.137C156.517 230.837 155.33 232.912 153.867 233.757C152.403 234.602 151.217 233.897 151.217 232.197C151.217 230.487 152.403 228.422 153.867 227.577Z" fill="white"/>
<path d="M149.233 159.882L149.277 159.857L158.448 154.562C158.95 154.242 158.95 155.132 158.448 155.392L149.277 160.687C148.809 160.977 148.774 160.187 149.233 159.882Z" fill="white"/>
<path d="M105.257 194.982L116.671 188.392C117.121 188.132 117.485 188.352 117.485 188.872V189.342C117.485 189.872 117.121 190.502 116.671 190.762L105.257 197.352C104.806 197.612 104.443 197.402 104.443 196.872V196.402C104.443 195.882 104.806 195.242 105.257 194.982Z" fill="white"/>
<path d="M110.955 245.452C111.986 244.857 112.826 245.352 112.826 246.552C112.826 247.752 111.986 249.207 110.955 249.802C109.933 250.392 109.093 249.907 109.093 248.707C109.093 247.507 109.933 246.042 110.955 245.452Z" fill="white"/>
</svg>
