<svg width="226" height="321" viewBox="0 0 226 321" fill="none" xmlns="http://www.w3.org/2000/svg">
<path fill-rule="evenodd" clip-rule="evenodd" d="M93.2883 144.484L96.8564 146.544L148.818 116.544L145.25 114.484L93.2883 144.484Z" fill="#8BC5E4"/>
<path fill-rule="evenodd" clip-rule="evenodd" d="M96.8564 146.544V148.404L148.818 118.404V116.544L96.8564 146.544Z" fill="#8BC5E4"/>
<path fill-rule="evenodd" clip-rule="evenodd" d="M95.9728 148.944L94.0762 147.849L146.038 117.849L147.934 118.944L95.9728 148.944Z" fill="#8BC5E4"/>
<path fill-rule="evenodd" clip-rule="evenodd" d="M93.2883 146.344V144.484L145.25 114.484V116.344L93.2883 146.344Z" fill="#8BC5E4"/>
<path fill-rule="evenodd" clip-rule="evenodd" d="M93.2883 144.484L145.25 114.484L93.2883 144.484Z" fill="#8BC5E4"/>
<path fill-rule="evenodd" clip-rule="evenodd" d="M97.3936 121.214L149.355 91.2144L97.3936 121.214Z" fill="#8BC5E4"/>
<path fill-rule="evenodd" clip-rule="evenodd" d="M112.964 145.364L107.907 147.624L159.868 117.624L164.926 115.364L112.964 145.364Z" fill="#8BC5E4"/>
<path fill-rule="evenodd" clip-rule="evenodd" d="M107.907 147.624L104.512 145.084L156.473 115.084L159.868 117.624L107.907 147.624Z" fill="#8BC5E4"/>
<path fill-rule="evenodd" clip-rule="evenodd" d="M104.512 145.084L102.642 136.754L154.603 106.754L156.474 115.084L104.512 145.084Z" fill="#8BC5E4"/>
<path fill-rule="evenodd" clip-rule="evenodd" d="M101.68 135.309L93.4614 130.564L145.423 100.564L153.642 105.309L101.68 135.309Z" fill="#8BC5E4"/>
<path fill-rule="evenodd" clip-rule="evenodd" d="M92.1625 131.044L90.5171 137.004L142.479 107.004L144.124 101.044L92.1625 131.044Z" fill="#8BC5E4"/>
<path fill-rule="evenodd" clip-rule="evenodd" d="M89.5644 146.364L88.6724 146.429L140.634 116.429L141.526 116.364L89.5644 146.364Z" fill="#8BC5E4"/>
<path fill-rule="evenodd" clip-rule="evenodd" d="M88.6723 146.429L88.655 149.109L140.617 119.109L140.634 116.429L88.6723 146.429Z" fill="#8BC5E4"/>
<path fill-rule="evenodd" clip-rule="evenodd" d="M86.4985 150.594V157.204L138.46 127.204V120.594L86.4985 150.594Z" fill="#8BC5E4"/>
<path fill-rule="evenodd" clip-rule="evenodd" d="M86.4987 157.204L81.5017 159.439L133.463 129.439L138.46 127.204L86.4987 157.204Z" fill="#8BC5E4"/>
<path fill-rule="evenodd" clip-rule="evenodd" d="M97.3936 128.504L149.355 98.5042L97.3936 128.504Z" fill="#8BC5E4"/>
<path fill-rule="evenodd" clip-rule="evenodd" d="M85.6067 165.979L116.091 152.339L168.052 122.339L137.568 135.979L85.6067 165.979Z" fill="#8BC5E4"/>
<path fill-rule="evenodd" clip-rule="evenodd" d="M116.091 152.339L168.052 122.339L116.091 152.339Z" fill="#8BC5E4"/>
<path fill-rule="evenodd" clip-rule="evenodd" d="M103.594 148.634L103.62 149.549L155.581 119.549L155.555 118.634L103.594 148.634Z" fill="#8BC5E4"/>
<path fill-rule="evenodd" clip-rule="evenodd" d="M103.62 149.549L102.044 150.259L154.005 120.259L155.582 119.549L103.62 149.549Z" fill="#8BC5E4"/>
<path fill-rule="evenodd" clip-rule="evenodd" d="M102.044 150.259L102.035 149.534L153.997 119.534L154.005 120.259L102.044 150.259Z" fill="#8BC5E4"/>
<path fill-rule="evenodd" clip-rule="evenodd" d="M102.035 149.534L99.333 147.974L151.295 117.974L153.997 119.534L102.035 149.534Z" fill="#8BC5E4"/>
<path fill-rule="evenodd" clip-rule="evenodd" d="M99.333 147.974V149.834L151.295 119.834V117.974L99.333 147.974Z" fill="#8BC5E4"/>
<path fill-rule="evenodd" clip-rule="evenodd" d="M99.9567 151.184L94.6479 153.549L146.609 123.549L151.918 121.184L99.9567 151.184Z" fill="#8BC5E4"/>
<path fill-rule="evenodd" clip-rule="evenodd" d="M94.6479 153.549L94.6566 150.754L146.618 120.754L146.609 123.549L94.6479 153.549Z" fill="#8BC5E4"/>
<path fill-rule="evenodd" clip-rule="evenodd" d="M93.5133 148.734L92.4568 148.124L144.418 118.124L145.475 118.734L93.5133 148.734Z" fill="#8BC5E4"/>
<path fill-rule="evenodd" clip-rule="evenodd" d="M91.0366 145.554L91.0193 142.384L142.981 112.384L142.998 115.554L91.0366 145.554Z" fill="#8BC5E4"/>
<path fill-rule="evenodd" clip-rule="evenodd" d="M103.594 148.634L155.555 118.634L103.594 148.634Z" fill="#8BC5E4"/>
<path fill-rule="evenodd" clip-rule="evenodd" d="M107.222 159.819L97.9385 163.999L149.9 133.999L159.184 129.819L107.222 159.819Z" fill="#8BC5E4"/>
<path fill-rule="evenodd" clip-rule="evenodd" d="M97.9385 163.999V169.279L149.9 139.279V133.999L97.9385 163.999Z" fill="#8BC5E4"/>
<path fill-rule="evenodd" clip-rule="evenodd" d="M97.9385 169.279L105.698 173.759L157.66 143.759L149.9 139.279L97.9385 169.279Z" fill="#8BC5E4"/>
<path fill-rule="evenodd" clip-rule="evenodd" d="M108.643 172.179V163.599L160.604 133.599V142.179L108.643 172.179Z" fill="#8BC5E4"/>
<path fill-rule="evenodd" clip-rule="evenodd" d="M107.223 159.819L159.184 129.819L107.223 159.819Z" fill="#8BC5E4"/>
<path fill-rule="evenodd" clip-rule="evenodd" d="M96.8995 164.609L92.8984 166.369L144.86 136.369L148.861 134.609L96.8995 164.609Z" fill="#8BC5E4"/>
<path fill-rule="evenodd" clip-rule="evenodd" d="M92.8984 166.369L96.8995 168.679L148.861 138.679L144.86 136.369L92.8984 166.369Z" fill="#8BC5E4"/>
<path fill-rule="evenodd" clip-rule="evenodd" d="M96.8994 168.679V164.609L148.861 134.609V138.679L96.8994 168.679Z" fill="#8BC5E4"/>
<path fill-rule="evenodd" clip-rule="evenodd" d="M96.8994 164.609L148.861 134.609L96.8994 164.609Z" fill="#8BC5E4"/>
<path fill-rule="evenodd" clip-rule="evenodd" d="M116.576 195.059L168.537 165.059L116.576 195.059Z" fill="#8BC5E4"/>
<path fill-rule="evenodd" clip-rule="evenodd" d="M68.927 117.209L120.889 87.2092L68.927 117.209Z" fill="#8BC5E4"/>
<path fill-rule="evenodd" clip-rule="evenodd" d="M89.625 185.409L141.587 155.409L89.625 185.409Z" fill="#8BC5E4"/>
<path fill-rule="evenodd" clip-rule="evenodd" d="M65.4109 142.499L117.372 112.499L65.4109 142.499Z" fill="#8BC5E4"/>
<path fill-rule="evenodd" clip-rule="evenodd" d="M51.5459 160.514L103.507 130.514L51.5459 160.514Z" fill="#8BC5E4"/>
<path fill-rule="evenodd" clip-rule="evenodd" d="M66.5886 213.779L118.55 183.779L66.5886 213.779Z" fill="#8BC5E4"/>
<path fill-rule="evenodd" clip-rule="evenodd" d="M10.626 37.0093L162.579 124.739L214.54 94.7393L62.5875 7.00928L10.626 37.0093Z" fill="#8BC5E4"/>
<path fill-rule="evenodd" clip-rule="evenodd" d="M168.407 134.814V310.374L220.369 280.374V104.814L168.407 134.814Z" fill="#8BC5E4"/>
<path fill-rule="evenodd" clip-rule="evenodd" d="M162.579 313.719L10.626 225.989L62.5875 195.989L214.54 283.719L162.579 313.719Z" fill="#8BC5E4"/>
<path fill-rule="evenodd" clip-rule="evenodd" d="M4.79785 215.914V40.3542L56.7594 10.3542V185.914L4.79785 215.914Z" fill="#8BC5E4"/>
<path fill-rule="evenodd" clip-rule="evenodd" d="M10.626 37.0093L62.5875 7.00928L10.626 37.0093Z" fill="#8BC5E4"/>
<path fill-rule="evenodd" clip-rule="evenodd" d="M0 37.5842V213.144L51.9615 183.144V7.58423L0 37.5842Z" fill="#8BC5E4"/>
<path fill-rule="evenodd" clip-rule="evenodd" d="M10.626 231.499L162.579 319.229L214.54 289.229L62.5875 201.499L10.626 231.499Z" fill="#8BC5E4"/>
<path fill-rule="evenodd" clip-rule="evenodd" d="M173.205 313.144V137.584L225.167 107.584V283.144L173.205 313.144Z" fill="#8BC5E4"/>
<path fill-rule="evenodd" clip-rule="evenodd" d="M162.579 119.229L10.626 31.4993L62.5875 1.49927L214.54 89.2293L162.579 119.229Z" fill="#8BC5E4"/>
<path fill-rule="evenodd" clip-rule="evenodd" d="M10.626 31.4993L62.5875 1.49927L10.626 31.4993Z" fill="#8BC5E4"/>
<path fill-rule="evenodd" clip-rule="evenodd" d="M96.8566 148.404C96.8566 148.659 96.7488 148.849 96.5908 148.951L148.552 118.951C148.71 118.849 148.818 118.659 148.818 118.404L96.8566 148.404Z" fill="#8BC5E4"/>
<path fill-rule="evenodd" clip-rule="evenodd" d="M96.5902 148.951C96.419 149.061 96.1888 149.069 95.9727 148.944L147.934 118.944C148.15 119.069 148.381 119.061 148.552 118.951L96.5902 148.951Z" fill="#8BC5E4"/>
<path fill-rule="evenodd" clip-rule="evenodd" d="M94.0764 147.849C93.678 147.619 93.2883 146.984 93.2883 146.344L145.25 116.344C145.25 116.984 145.64 117.619 146.038 117.849L94.0764 147.849Z" fill="#8BC5E4"/>
<path fill-rule="evenodd" clip-rule="evenodd" d="M97.3933 121.214C90.1437 117.029 83.5385 116.473 78.6294 118.944L130.591 88.9445C135.5 86.4729 142.105 87.0285 149.355 91.2141L97.3933 121.214Z" fill="#8BC5E4"/>
<path fill-rule="evenodd" clip-rule="evenodd" d="M78.6292 118.945C73.311 121.622 69.9834 127.852 69.9834 136.869L121.945 106.869C121.945 97.8524 125.273 91.6221 130.591 88.9446L78.6292 118.945Z" fill="#8BC5E4"/>
<path fill-rule="evenodd" clip-rule="evenodd" d="M69.9834 136.869C69.9834 154.229 82.2896 175.474 97.3931 184.194L149.355 154.194C134.251 145.474 121.945 124.229 121.945 106.869L69.9834 136.869Z" fill="#8BC5E4"/>
<path fill-rule="evenodd" clip-rule="evenodd" d="M97.3936 184.194C104.639 188.378 111.24 188.931 116.146 186.455L168.107 156.455C163.202 158.931 156.601 158.378 149.355 154.194L97.3936 184.194Z" fill="#8BC5E4"/>
<path fill-rule="evenodd" clip-rule="evenodd" d="M116.146 186.455C121.46 183.773 124.785 177.536 124.785 168.509L176.747 138.509C176.747 147.536 173.422 153.773 168.107 156.455L116.146 186.455Z" fill="#8BC5E4"/>
<path fill-rule="evenodd" clip-rule="evenodd" d="M124.786 168.509C124.786 151.169 112.488 129.929 97.3936 121.214L149.355 91.2144C164.45 99.9294 176.747 121.169 176.747 138.509L124.786 168.509Z" fill="#8BC5E4"/>
<path fill-rule="evenodd" clip-rule="evenodd" d="M97.3936 128.504C103.577 132.074 109.12 138.314 112.965 145.364L164.926 115.364C161.081 108.314 155.539 102.074 149.355 98.5042L97.3936 128.504Z" fill="#8BC5E4"/>
<path fill-rule="evenodd" clip-rule="evenodd" d="M102.641 136.754C102.494 136.089 102.225 135.624 101.68 135.309L153.641 105.309C154.187 105.624 154.455 106.089 154.602 106.754L102.641 136.754Z" fill="#8BC5E4"/>
<path fill-rule="evenodd" clip-rule="evenodd" d="M93.4614 130.564C93.0686 130.337 92.7817 130.278 92.5642 130.403L144.526 100.403C144.743 100.278 145.03 100.337 145.423 100.564L93.4614 130.564Z" fill="#8BC5E4"/>
<path fill-rule="evenodd" clip-rule="evenodd" d="M92.5642 130.403C92.3933 130.501 92.2652 130.712 92.1624 131.044L144.124 101.044C144.227 100.712 144.355 100.501 144.526 100.403L92.5642 130.403Z" fill="#8BC5E4"/>
<path fill-rule="evenodd" clip-rule="evenodd" d="M90.5171 137.004C88.3 135.932 85.7228 135.126 84.7805 135.471L136.742 105.471C137.684 105.126 140.262 105.932 142.479 107.004L90.5171 137.004Z" fill="#8BC5E4"/>
<path fill-rule="evenodd" clip-rule="evenodd" d="M84.7805 135.471C84.545 135.557 84.4116 135.715 84.4116 135.959L136.373 105.959C136.373 105.715 136.507 105.557 136.742 105.471L84.7805 135.471Z" fill="#8BC5E4"/>
<path fill-rule="evenodd" clip-rule="evenodd" d="M84.4116 135.959C84.4116 137.079 87.7458 139.304 89.6078 140.629L141.569 110.629C139.707 109.304 136.373 107.079 136.373 105.959L84.4116 135.959Z" fill="#8BC5E4"/>
<path fill-rule="evenodd" clip-rule="evenodd" d="M89.6076 140.629C89.0447 142.154 88.8975 143.799 89.5643 146.364L141.526 116.364C140.859 113.799 141.006 112.154 141.569 110.629L89.6076 140.629Z" fill="#8BC5E4"/>
<path fill-rule="evenodd" clip-rule="evenodd" d="M88.6551 149.109C88.1597 148.823 87.6828 148.788 87.304 148.965L139.265 118.965C139.644 118.788 140.121 118.823 140.617 119.109L88.6551 149.109Z" fill="#8BC5E4"/>
<path fill-rule="evenodd" clip-rule="evenodd" d="M87.3038 148.965C86.8217 149.19 86.4985 149.76 86.4985 150.594L138.46 120.594C138.46 119.76 138.783 119.19 139.265 118.965L87.3038 148.965Z" fill="#8BC5E4"/>
<path fill-rule="evenodd" clip-rule="evenodd" d="M81.5017 159.439C78.2801 153.339 76.3315 146.644 76.3315 140.534L128.293 110.534C128.293 116.644 130.242 123.339 133.463 129.439L81.5017 159.439Z" fill="#8BC5E4"/>
<path fill-rule="evenodd" clip-rule="evenodd" d="M76.3315 140.534C76.3315 134.102 78.4965 129.522 82.0381 127.242L134 97.2417C130.458 99.5216 128.293 104.102 128.293 110.534L76.3315 140.534Z" fill="#8BC5E4"/>
<path fill-rule="evenodd" clip-rule="evenodd" d="M82.0381 127.241C85.8748 124.772 91.3273 125.002 97.3933 128.504L149.355 98.5041C143.289 95.0019 137.836 94.7716 134 97.2415L82.0381 127.241Z" fill="#8BC5E4"/>
<path fill-rule="evenodd" clip-rule="evenodd" d="M116.091 152.339C117.598 156.549 118.438 160.824 118.438 164.844L170.399 134.844C170.399 130.824 169.559 126.549 168.052 122.339L116.091 152.339Z" fill="#8BC5E4"/>
<path fill-rule="evenodd" clip-rule="evenodd" d="M118.438 164.844C118.438 171.286 116.275 175.87 112.736 178.152L164.698 148.152C168.236 145.87 170.399 141.286 170.399 134.844L118.438 164.844Z" fill="#8BC5E4"/>
<path fill-rule="evenodd" clip-rule="evenodd" d="M112.736 178.152C108.903 180.624 103.455 180.394 97.3936 176.894L149.355 146.894C155.417 150.394 160.865 150.624 164.698 148.152L112.736 178.152Z" fill="#8BC5E4"/>
<path fill-rule="evenodd" clip-rule="evenodd" d="M97.3933 176.894C93.0199 174.369 88.9755 170.524 85.6067 165.979L137.568 135.979C140.937 140.524 144.981 144.369 149.355 146.894L97.3933 176.894Z" fill="#8BC5E4"/>
<path fill-rule="evenodd" clip-rule="evenodd" d="M99.333 149.834C99.333 150.634 99.6361 150.949 99.9565 151.184L151.918 121.184C151.598 120.949 151.295 120.634 151.295 119.834L99.333 149.834Z" fill="#8BC5E4"/>
<path fill-rule="evenodd" clip-rule="evenodd" d="M94.6566 150.754C94.6912 149.964 94.2236 149.144 93.5134 148.734L145.475 118.734C146.185 119.144 146.653 119.964 146.618 120.754L94.6566 150.754Z" fill="#8BC5E4"/>
<path fill-rule="evenodd" clip-rule="evenodd" d="M92.4569 148.124C91.4956 147.569 91.0366 146.414 91.0366 145.554L142.998 115.554C142.998 116.414 143.457 117.569 144.418 118.124L92.4569 148.124Z" fill="#8BC5E4"/>
<path fill-rule="evenodd" clip-rule="evenodd" d="M91.0193 142.384C91.0823 142.219 91.2106 142.051 91.3675 141.953L143.329 111.953C143.172 112.051 143.044 112.219 142.981 112.384L91.0193 142.384Z" fill="#8BC5E4"/>
<path fill-rule="evenodd" clip-rule="evenodd" d="M91.3674 141.953C91.4907 141.876 91.6317 141.843 91.7727 141.889L143.734 111.889C143.593 111.843 143.452 111.876 143.329 111.953L91.3674 141.953Z" fill="#8BC5E4"/>
<path fill-rule="evenodd" clip-rule="evenodd" d="M91.7727 141.889C95.8084 144.789 99.7228 146.799 103.594 148.634L155.555 118.634C151.684 116.799 147.77 114.789 143.734 111.889L91.7727 141.889Z" fill="#8BC5E4"/>
<path fill-rule="evenodd" clip-rule="evenodd" d="M105.698 173.759C106.663 174.316 107.384 174.504 107.871 174.295L159.832 144.295C159.345 144.504 158.624 144.316 157.66 143.759L105.698 173.759Z" fill="#8BC5E4"/>
<path fill-rule="evenodd" clip-rule="evenodd" d="M107.871 174.295C108.399 174.068 108.652 173.375 108.643 172.179L160.605 142.179C160.614 143.375 160.36 144.068 159.833 144.295L107.871 174.295Z" fill="#8BC5E4"/>
<path fill-rule="evenodd" clip-rule="evenodd" d="M108.643 163.599C108.643 162.649 108.019 161.089 107.223 159.819L159.184 129.819C159.981 131.089 160.604 132.649 160.604 133.599L108.643 163.599Z" fill="#8BC5E4"/>
<path fill-rule="evenodd" clip-rule="evenodd" d="M116.576 195.059C120.966 205.594 124.448 216.894 126.769 228.834L178.73 198.834C176.409 186.894 172.928 175.594 168.537 165.059L116.576 195.059Z" fill="#8BC5E4"/>
<path fill-rule="evenodd" clip-rule="evenodd" d="M126.769 228.834C127.591 233.269 131.064 237.694 134.493 238.684L186.455 208.684C183.026 207.694 179.553 203.269 178.73 198.834L126.769 228.834Z" fill="#8BC5E4"/>
<path fill-rule="evenodd" clip-rule="evenodd" d="M134.494 238.684C135.591 239.001 136.548 238.927 137.313 238.533L189.275 208.533C188.51 208.927 187.553 209.001 186.455 208.684L134.494 238.684Z" fill="#8BC5E4"/>
<path fill-rule="evenodd" clip-rule="evenodd" d="M137.313 238.533C138.938 237.697 139.694 235.419 139.075 232.389L191.037 202.389C191.655 205.419 190.9 207.697 189.275 208.533L137.313 238.533Z" fill="#8BC5E4"/>
<path fill-rule="evenodd" clip-rule="evenodd" d="M139.075 232.389C136.182 217.459 131.341 202.824 125.4 189.544L177.362 159.544C183.303 172.824 188.144 187.459 191.036 202.389L139.075 232.389Z" fill="#8BC5E4"/>
<path fill-rule="evenodd" clip-rule="evenodd" d="M125.401 189.544C124.311 190.792 122.931 191.848 121.356 192.775L173.318 162.775C174.892 161.848 176.273 160.792 177.362 159.544L125.401 189.544Z" fill="#8BC5E4"/>
<path fill-rule="evenodd" clip-rule="evenodd" d="M121.356 192.775C119.903 193.63 118.284 194.375 116.576 195.059L168.537 165.059C170.246 164.375 171.864 163.63 173.318 162.775L121.356 192.775Z" fill="#8BC5E4"/>
<path fill-rule="evenodd" clip-rule="evenodd" d="M68.927 117.209C64.1032 113.624 59.0716 110.319 54.1526 107.609L106.114 77.6094C111.033 80.3194 116.065 83.6244 120.889 87.2094L68.927 117.209Z" fill="#8BC5E4"/>
<path fill-rule="evenodd" clip-rule="evenodd" d="M54.1527 107.609C48.7573 104.614 43.3187 102.164 37.9233 100.289L89.8849 70.2893C95.2802 72.1643 100.719 74.6143 106.114 77.6093L54.1527 107.609Z" fill="#8BC5E4"/>
<path fill-rule="evenodd" clip-rule="evenodd" d="M37.9231 100.289C36.6698 99.832 35.5713 99.8712 34.7114 100.314L86.673 70.3136C87.5329 69.8712 88.6313 69.832 89.8846 70.2892L37.9231 100.289Z" fill="#8BC5E4"/>
<path fill-rule="evenodd" clip-rule="evenodd" d="M34.7117 100.314C33.183 101.1 32.4081 103.161 32.8571 105.974L84.8186 75.9743C84.3696 73.1615 85.1445 71.1003 86.6732 70.3137L34.7117 100.314Z" fill="#8BC5E4"/>
<path fill-rule="evenodd" clip-rule="evenodd" d="M32.8569 105.974C33.5584 110.369 36.9532 114.909 40.4173 116.039L92.3789 86.0394C88.9148 84.9094 85.5199 80.3694 84.8185 75.9744L32.8569 105.974Z" fill="#8BC5E4"/>
<path fill-rule="evenodd" clip-rule="evenodd" d="M40.4175 116.039C48.5148 118.854 56.6208 123.024 64.4583 128.439L116.42 98.4393C108.582 93.0243 100.476 88.8543 92.379 86.0393L40.4175 116.039Z" fill="#8BC5E4"/>
<path fill-rule="evenodd" clip-rule="evenodd" d="M64.4583 128.439C65.1511 124.279 66.658 120.579 68.9269 117.209L120.888 87.2092C118.619 90.5792 117.113 94.2792 116.42 98.4392L64.4583 128.439Z" fill="#8BC5E4"/>
<path fill-rule="evenodd" clip-rule="evenodd" d="M89.625 185.409C96.1462 196.584 101.334 209.749 104.59 224.829L156.551 194.829C153.295 179.749 148.108 166.584 141.587 155.409L89.625 185.409Z" fill="#8BC5E4"/>
<path fill-rule="evenodd" clip-rule="evenodd" d="M104.59 224.829C105.516 229.294 109.05 233.634 112.453 234.499L164.415 204.499C161.011 203.634 157.478 199.294 156.551 194.829L104.59 224.829Z" fill="#8BC5E4"/>
<path fill-rule="evenodd" clip-rule="evenodd" d="M112.453 234.499C113.409 234.737 114.25 234.676 114.944 234.367L166.905 204.367C166.211 204.676 165.37 204.737 164.415 204.499L112.453 234.499Z" fill="#8BC5E4"/>
<path fill-rule="evenodd" clip-rule="evenodd" d="M114.944 234.367C116.729 233.572 117.539 231.133 116.81 227.904L168.771 197.904C169.501 201.133 168.69 203.572 166.906 204.367L114.944 234.367Z" fill="#8BC5E4"/>
<path fill-rule="evenodd" clip-rule="evenodd" d="M116.809 227.904C114.237 216.009 110.427 204.839 105.689 194.574L157.651 164.574C162.388 174.839 166.199 186.009 168.771 197.904L116.809 227.904Z" fill="#8BC5E4"/>
<path fill-rule="evenodd" clip-rule="evenodd" d="M105.69 194.574C100.987 193.249 95.3321 190.314 89.625 185.409L141.587 155.409C147.294 160.314 152.949 163.249 157.651 164.574L105.69 194.574Z" fill="#8BC5E4"/>
<path fill-rule="evenodd" clip-rule="evenodd" d="M65.4109 142.499C61.1068 139.154 56.7074 136.244 52.282 133.789L104.244 103.789C108.669 106.244 113.068 109.154 117.372 112.499L65.4109 142.499Z" fill="#8BC5E4"/>
<path fill-rule="evenodd" clip-rule="evenodd" d="M52.282 133.789C48.2549 131.574 44.2106 129.729 40.1836 128.294L92.1451 98.2942C96.1721 99.7292 100.216 101.574 104.243 103.789L52.282 133.789Z" fill="#8BC5E4"/>
<path fill-rule="evenodd" clip-rule="evenodd" d="M40.1836 128.294C38.9303 127.83 37.8307 127.86 36.9678 128.293L88.9293 98.2927C89.7923 97.86 90.8918 97.83 92.1451 98.2944L40.1836 128.294Z" fill="#8BC5E4"/>
<path fill-rule="evenodd" clip-rule="evenodd" d="M36.968 128.293C35.4339 129.062 34.6475 131.104 35.0743 133.904L87.0358 103.904C86.609 101.104 87.3954 99.0621 88.9295 98.2927L36.968 128.293Z" fill="#8BC5E4"/>
<path fill-rule="evenodd" clip-rule="evenodd" d="M35.0742 133.904C35.7411 138.279 39.1099 142.824 42.574 144.004L94.5355 114.004C91.0714 112.824 87.7026 108.279 87.0357 103.904L35.0742 133.904Z" fill="#8BC5E4"/>
<path fill-rule="evenodd" clip-rule="evenodd" d="M42.5737 144.004C52.9487 147.704 63.1072 154.049 72.2264 162.934L124.188 132.934C115.069 124.049 104.91 117.704 94.5353 114.004L42.5737 144.004Z" fill="#8BC5E4"/>
<path fill-rule="evenodd" clip-rule="evenodd" d="M72.2265 162.934C69.0742 156.574 66.3375 150.014 65.4109 142.499L117.372 112.499C118.299 120.014 121.036 126.574 124.188 132.934L72.2265 162.934Z" fill="#8BC5E4"/>
<path fill-rule="evenodd" clip-rule="evenodd" d="M51.5458 160.514C48.7572 159.074 45.9253 157.939 43.0674 157.119L95.0289 127.119C97.8868 127.939 100.719 129.074 103.507 130.514L51.5458 160.514Z" fill="#8BC5E4"/>
<path fill-rule="evenodd" clip-rule="evenodd" d="M43.0672 157.119C41.9615 156.782 40.9932 156.837 40.2163 157.214L92.1778 127.214C92.9547 126.837 93.923 126.782 95.0288 127.119L43.0672 157.119Z" fill="#8BC5E4"/>
<path fill-rule="evenodd" clip-rule="evenodd" d="M40.2167 157.214C38.5658 158.016 37.779 160.273 38.3738 163.309L90.3353 133.309C89.7406 130.273 90.5273 128.016 92.1783 127.214L40.2167 157.214Z" fill="#8BC5E4"/>
<path fill-rule="evenodd" clip-rule="evenodd" d="M38.3735 163.309C39.2482 167.774 42.7643 172.154 46.1937 173.074L98.1553 143.074C94.7258 142.154 91.2097 137.774 90.3351 133.309L38.3735 163.309Z" fill="#8BC5E4"/>
<path fill-rule="evenodd" clip-rule="evenodd" d="M46.1938 173.074C54.577 175.464 61.7044 181.079 67.7579 189.004L119.719 159.004C113.666 151.079 106.538 145.464 98.1554 143.074L46.1938 173.074Z" fill="#8BC5E4"/>
<path fill-rule="evenodd" clip-rule="evenodd" d="M67.7578 189.004C73.82 196.934 78.8429 207.474 81.7701 219.644L133.732 189.644C130.804 177.474 125.782 166.934 119.719 159.004L67.7578 189.004Z" fill="#8BC5E4"/>
<path fill-rule="evenodd" clip-rule="evenodd" d="M81.77 219.644C82.8006 224.149 86.4033 228.419 89.7981 229.139L141.76 199.139C138.365 198.419 134.762 194.149 133.732 189.644L81.77 219.644Z" fill="#8BC5E4"/>
<path fill-rule="evenodd" clip-rule="evenodd" d="M89.7981 229.139C90.7462 229.337 91.5721 229.232 92.2447 228.88L144.206 198.88C143.534 199.232 142.708 199.337 141.76 199.139L89.7981 229.139Z" fill="#8BC5E4"/>
<path fill-rule="evenodd" clip-rule="evenodd" d="M92.2446 228.88C93.974 227.975 94.689 225.432 93.8597 222.174L145.821 192.174C146.651 195.432 145.935 197.975 144.206 198.88L92.2446 228.88Z" fill="#8BC5E4"/>
<path fill-rule="evenodd" clip-rule="evenodd" d="M93.8598 222.174C90.1878 206.884 83.5108 192.329 74.582 180.634L126.544 150.634C135.472 162.329 142.149 176.884 145.821 192.174L93.8598 222.174Z" fill="#8BC5E4"/>
<path fill-rule="evenodd" clip-rule="evenodd" d="M74.5822 180.634C67.8705 171.849 59.929 164.854 51.5459 160.514L103.507 130.514C111.891 134.854 119.832 141.849 126.544 150.634L74.5822 180.634Z" fill="#8BC5E4"/>
<path fill-rule="evenodd" clip-rule="evenodd" d="M66.5887 213.779C66.5887 217.25 65.4134 219.728 63.4949 220.965L115.456 190.965C117.375 189.728 118.55 187.25 118.55 183.779L66.5887 213.779Z" fill="#8BC5E4"/>
<path fill-rule="evenodd" clip-rule="evenodd" d="M63.495 220.966C61.4166 222.306 58.4658 222.19 55.1919 220.299L107.153 190.299C110.427 192.19 113.378 192.306 115.457 190.966L63.495 220.966Z" fill="#8BC5E4"/>
<path fill-rule="evenodd" clip-rule="evenodd" d="M55.1918 220.299C48.8958 216.664 43.7949 207.849 43.7949 200.619L95.7564 170.619C95.7564 177.849 100.857 186.664 107.153 190.299L55.1918 220.299Z" fill="#8BC5E4"/>
<path fill-rule="evenodd" clip-rule="evenodd" d="M43.7949 200.619C43.7949 197.149 44.9702 194.67 46.8887 193.433L98.8502 163.433C96.9317 164.67 95.7564 167.149 95.7564 170.619L43.7949 200.619Z" fill="#8BC5E4"/>
<path fill-rule="evenodd" clip-rule="evenodd" d="M46.8887 193.433C48.9671 192.093 51.9179 192.209 55.1918 194.099L107.153 164.099C103.879 162.209 100.929 162.093 98.8502 163.433L46.8887 193.433Z" fill="#8BC5E4"/>
<path fill-rule="evenodd" clip-rule="evenodd" d="M55.1919 194.099C61.4879 197.734 66.5888 206.549 66.5888 213.779L118.55 183.779C118.55 176.549 113.449 167.734 107.153 164.099L55.1919 194.099Z" fill="#8BC5E4"/>
<path fill-rule="evenodd" clip-rule="evenodd" d="M162.579 124.739C165.853 126.629 168.407 131.044 168.407 134.814L220.369 104.814C220.369 101.044 217.814 96.6293 214.541 94.7393L162.579 124.739Z" fill="#8BC5E4"/>
<path fill-rule="evenodd" clip-rule="evenodd" d="M168.408 310.374C168.408 312.184 167.819 313.462 166.845 314.094L218.806 284.094C219.78 283.462 220.369 282.184 220.369 280.374L168.408 310.374Z" fill="#8BC5E4"/>
<path fill-rule="evenodd" clip-rule="evenodd" d="M166.845 314.094C165.789 314.778 164.281 314.702 162.579 313.719L214.541 283.719C216.243 284.702 217.751 284.778 218.806 284.094L166.845 314.094Z" fill="#8BC5E4"/>
<path fill-rule="evenodd" clip-rule="evenodd" d="M10.6262 225.989C7.35263 224.099 4.79785 219.684 4.79785 215.914L56.7594 185.914C56.7594 189.684 59.3142 194.099 62.5877 195.989L10.6262 225.989Z" fill="#8BC5E4"/>
<path fill-rule="evenodd" clip-rule="evenodd" d="M4.79785 40.3542C4.79785 38.5446 5.38647 37.2661 6.36067 36.6348L58.3222 6.63477C57.348 7.2661 56.7594 8.54463 56.7594 10.3542L4.79785 40.3542Z" fill="#8BC5E4"/>
<path fill-rule="evenodd" clip-rule="evenodd" d="M6.36084 36.6348C7.41622 35.9508 8.92412 36.0264 10.6264 37.0092L62.5879 7.00925C60.8856 6.02645 59.3777 5.95084 58.3224 6.63478L6.36084 36.6348Z" fill="#8BC5E4"/>
<path fill-rule="evenodd" clip-rule="evenodd" d="M10.6261 31.4993C7.82016 29.8793 5.25967 29.6659 3.35547 30.6263L55.317 0.626296C57.2212 -0.334092 59.7817 -0.120684 62.5876 1.49932L10.6261 31.4993Z" fill="#8BC5E4"/>
<path fill-rule="evenodd" clip-rule="evenodd" d="M3.35552 30.6262C1.29264 31.6666 0 34.0846 0 37.5842L51.9615 7.58424C51.9615 4.08464 53.2542 1.66664 55.317 0.626221L3.35552 30.6262Z" fill="#8BC5E4"/>
<path fill-rule="evenodd" clip-rule="evenodd" d="M0 213.144C0 219.874 4.78046 228.124 10.6261 231.499L62.5877 201.499C56.742 198.124 51.9615 189.874 51.9615 183.144L0 213.144Z" fill="#8BC5E4"/>
<path fill-rule="evenodd" clip-rule="evenodd" d="M162.579 319.229C165.385 320.849 167.946 321.063 169.85 320.102L221.811 290.102C219.907 291.063 217.347 290.849 214.541 289.229L162.579 319.229Z" fill="#8BC5E4"/>
<path fill-rule="evenodd" clip-rule="evenodd" d="M169.85 320.102C171.912 319.062 173.205 316.644 173.205 313.144L225.167 283.144C225.167 286.644 223.874 289.062 221.811 290.102L169.85 320.102Z" fill="#8BC5E4"/>
<path fill-rule="evenodd" clip-rule="evenodd" d="M173.205 137.584C173.205 130.854 168.425 122.604 162.579 119.229L214.541 89.2292C220.386 92.6042 225.167 100.854 225.167 107.584L173.205 137.584Z" fill="#8BC5E4"/>
<path d="M93.2883 144.484L96.8563 146.544V148.404C96.8563 148.934 96.3886 149.184 95.9729 148.944L94.0763 147.849C93.678 147.619 93.2883 146.984 93.2883 146.344V144.484ZM97.3932 121.214C82.2897 112.494 69.9835 119.529 69.9835 136.869C69.9835 154.229 82.2897 175.474 97.3932 184.194C112.488 192.909 124.786 185.869 124.786 168.509C124.786 151.169 112.488 129.929 97.3932 121.214ZM97.3932 128.504C103.577 132.074 109.119 138.314 112.964 145.364L107.907 147.624L104.512 145.084L102.641 136.754C102.494 136.089 102.226 135.624 101.68 135.309L93.4615 130.564C92.76 130.159 92.3962 130.289 92.1624 131.044L90.517 137.004C87.7457 135.664 84.4115 134.739 84.4115 135.959C84.4115 137.079 87.7457 139.304 89.6077 140.629C89.0447 142.154 88.8975 143.799 89.5643 146.364L88.6723 146.429L88.655 149.109C87.5292 148.459 86.4986 149.104 86.4986 150.594V157.204L81.5016 159.439C78.28 153.339 76.3315 146.644 76.3315 140.534C76.3315 127.134 85.7279 121.769 97.3932 128.504ZM116.091 152.339C117.598 156.549 118.438 160.824 118.438 164.844C118.438 178.264 109.05 183.624 97.3932 176.894C93.0198 174.369 88.9754 170.524 85.6066 165.979L116.091 152.339ZM103.594 148.634L103.62 149.549L102.044 150.259L102.035 149.534L99.3331 147.974V149.834C99.3331 150.634 99.6362 150.949 99.9566 151.184L94.6479 153.549L94.6566 150.754C94.6912 149.964 94.2236 149.144 93.5134 148.734L92.4569 148.124C91.4956 147.569 91.0366 146.414 91.0366 145.554L91.0193 142.384C91.1319 142.089 91.4523 141.784 91.7727 141.889C95.8084 144.789 99.7228 146.799 103.594 148.634ZM107.223 159.819L97.9388 163.999V169.279L105.698 173.759C107.708 174.919 108.66 174.479 108.643 172.179V163.599C108.643 162.649 108.019 161.089 107.223 159.819ZM96.8996 164.609L92.8985 166.369L96.8996 168.679V164.609ZM116.576 195.059C120.966 205.594 124.448 216.894 126.769 228.834C127.592 233.269 131.064 237.694 134.494 238.684C137.923 239.674 139.984 236.844 139.075 232.389C136.182 217.459 131.341 202.824 125.4 189.544C123.305 191.944 120.135 193.634 116.576 195.059ZM68.927 117.209C64.1032 113.624 59.0716 110.319 54.1526 107.609C48.7572 104.614 43.3186 102.164 37.9233 100.289C34.4418 99.0193 32.1555 101.579 32.857 105.974C33.5585 110.369 36.9533 114.909 40.4174 116.039C48.5147 118.854 56.6207 123.024 64.4583 128.439C65.1511 124.279 66.658 120.579 68.927 117.209ZM89.625 185.409C96.1461 196.584 101.334 209.749 104.59 224.829C105.517 229.294 109.05 233.634 112.453 234.499C115.866 235.349 117.823 232.389 116.81 227.904C114.237 216.009 110.427 204.839 105.69 194.574C100.987 193.249 95.3321 190.314 89.625 185.409ZM65.4109 142.499C61.1068 139.154 56.7073 136.244 52.282 133.789C48.2549 131.574 44.2106 129.729 40.1836 128.294C36.7022 127.004 34.4072 129.529 35.074 133.904C35.7409 138.279 39.1097 142.824 42.5738 144.004C52.9488 147.704 63.1073 154.049 72.2265 162.934C69.0742 156.574 66.3375 150.014 65.4109 142.499ZM51.5458 160.514C48.7572 159.074 45.9253 157.939 43.0674 157.119C39.612 156.064 37.4989 158.844 38.3736 163.309C39.2483 167.774 42.7643 172.154 46.1938 173.074C54.5769 175.464 61.7043 181.079 67.7578 189.004C73.82 196.934 78.843 207.474 81.7701 219.644C82.8007 224.149 86.4034 228.419 89.7982 229.139C93.1843 229.844 95.0117 226.699 93.8598 222.174C90.1879 206.884 83.5108 192.329 74.5821 180.634C67.8704 171.849 59.929 164.854 51.5458 160.514ZM66.5887 213.779C66.5887 221.009 61.4878 223.934 55.1918 220.299C48.8958 216.664 43.7949 207.849 43.7949 200.619C43.7949 193.389 48.8958 190.464 55.1918 194.099C61.4878 197.734 66.5887 206.549 66.5887 213.779ZM10.6261 37.0093L162.579 124.739C165.853 126.629 168.407 131.044 168.407 134.814V310.374C168.407 314.144 165.853 315.609 162.579 313.719L10.6261 225.989C7.35256 224.099 4.79778 219.684 4.79778 215.914V40.3543C4.79778 36.5843 7.35256 35.1193 10.6261 37.0093ZM10.6261 31.4993C4.78046 28.1243 0 30.8543 0 37.5843V213.144C0 219.874 4.78046 228.124 10.6261 231.499L162.579 319.229C168.425 322.604 173.205 319.874 173.205 313.144V137.584C173.205 130.854 168.425 122.604 162.579 119.229L10.6261 31.4993Z" fill="#8BC5E4"/>
<path fill-rule="evenodd" clip-rule="evenodd" d="M10.6261 37.0093L162.579 124.739C165.853 126.629 168.407 131.044 168.407 134.814V310.374C168.407 314.144 165.853 315.609 162.579 313.719L10.6261 225.989C7.35256 224.099 4.79778 219.684 4.79778 215.914V40.3543C4.79778 36.5843 7.35256 35.1193 10.6261 37.0093ZM69.9835 136.869C69.9835 119.529 82.2897 112.494 97.3932 121.214C112.488 129.929 124.786 151.169 124.786 168.509C124.786 185.869 112.488 192.909 97.3932 184.194C82.2897 175.474 69.9835 154.229 69.9835 136.869ZM126.769 228.834C124.448 216.894 120.966 205.594 116.576 195.059C120.135 193.634 123.305 191.944 125.4 189.544C131.341 202.824 136.182 217.459 139.075 232.389C139.984 236.844 137.923 239.674 134.494 238.684C131.064 237.694 127.592 233.269 126.769 228.834ZM54.1526 107.609C59.0716 110.319 64.1032 113.624 68.927 117.209C66.658 120.579 65.1511 124.279 64.4583 128.439C56.6207 123.024 48.5147 118.854 40.4174 116.039C36.9533 114.909 33.5585 110.369 32.857 105.974C32.1555 101.579 34.4418 99.0193 37.9233 100.289C43.3186 102.164 48.7572 104.614 54.1526 107.609ZM104.59 224.829C101.334 209.749 96.1461 196.584 89.625 185.409C95.3321 190.314 100.987 193.249 105.69 194.574C110.427 204.839 114.237 216.009 116.81 227.904C117.823 232.389 115.866 235.349 112.453 234.499C109.05 233.634 105.517 229.294 104.59 224.829ZM52.282 133.789C56.7073 136.244 61.1068 139.154 65.4109 142.499C66.3375 150.014 69.0742 156.574 72.2265 162.934C63.1073 154.049 52.9488 147.704 42.5738 144.004C39.1097 142.824 35.7409 138.279 35.074 133.904C34.4072 129.529 36.7022 127.004 40.1836 128.294C44.2106 129.729 48.2549 131.574 52.282 133.789ZM43.0674 157.119C45.9253 157.939 48.7572 159.074 51.5458 160.514C59.929 164.854 67.8704 171.849 74.5821 180.634C83.5108 192.329 90.1879 206.884 93.8598 222.174C95.0117 226.699 93.1843 229.844 89.7982 229.139C86.4034 228.419 82.8007 224.149 81.7701 219.644C78.843 207.474 73.82 196.934 67.7578 189.004C61.7043 181.079 54.5769 175.464 46.1938 173.074C42.7643 172.154 39.2483 167.774 38.3736 163.309C37.4989 158.844 39.612 156.064 43.0674 157.119ZM55.1918 220.299C61.4878 223.934 66.5887 221.009 66.5887 213.779C66.5887 206.549 61.4878 197.734 55.1918 194.099C48.8958 190.464 43.7949 193.389 43.7949 200.619C43.7949 207.849 48.8958 216.664 55.1918 220.299Z" fill="white"/>
<path d="M97.3932 128.504C103.577 132.074 109.119 138.314 112.964 145.364L107.907 147.624L104.512 145.084L102.641 136.754C102.494 136.089 102.226 135.624 101.68 135.309L93.4615 130.564C92.76 130.159 92.3962 130.289 92.1624 131.044L90.517 137.004C87.7457 135.664 84.4115 134.739 84.4115 135.959C84.4115 137.079 87.7457 139.304 89.6077 140.629C89.0447 142.154 88.8975 143.799 89.5643 146.364L88.6723 146.429L88.655 149.109C87.5292 148.459 86.4986 149.104 86.4986 150.594V157.204L81.5016 159.439C78.28 153.339 76.3315 146.644 76.3315 140.534C76.3315 127.134 85.7279 121.769 97.3932 128.504Z" fill="white"/>
<path fill-rule="evenodd" clip-rule="evenodd" d="M116.091 152.339C117.598 156.549 118.438 160.824 118.438 164.844C118.438 178.264 109.05 183.624 97.3932 176.894C93.0198 174.369 88.9754 170.524 85.6066 165.979L116.091 152.339ZM97.9388 163.999L107.223 159.819C108.019 161.089 108.643 162.649 108.643 163.599V172.179C108.66 174.479 107.708 174.919 105.698 173.759L97.9388 169.279V163.999ZM92.8985 166.369L96.8996 164.609V168.679L92.8985 166.369Z" fill="white"/>
<path fill-rule="evenodd" clip-rule="evenodd" d="M103.594 148.634L103.62 149.549L102.044 150.259L102.035 149.534L99.3331 147.974V149.834C99.3331 150.634 99.6362 150.949 99.9566 151.184L94.6479 153.549L94.6566 150.754C94.6912 149.964 94.2236 149.144 93.5134 148.734L92.4569 148.124C91.4956 147.569 91.0366 146.414 91.0366 145.554L91.0193 142.384C91.1319 142.089 91.4523 141.784 91.7727 141.889C95.8084 144.789 99.7228 146.799 103.594 148.634ZM96.8563 146.544L93.2883 144.484V146.344C93.2883 146.984 93.678 147.619 94.0763 147.849L95.9729 148.944C96.3886 149.184 96.8563 148.934 96.8563 148.404V146.544Z" fill="white"/>
</svg>
