<svg width="226" height="322" viewBox="0 0 226 322" fill="none" xmlns="http://www.w3.org/2000/svg">
<path fill-rule="evenodd" clip-rule="evenodd" d="M145.288 137.4L148.856 135.34L96.8947 105.34L93.3267 107.4L145.288 137.4Z" fill="#8BC5E4"/>
<path fill-rule="evenodd" clip-rule="evenodd" d="M148.856 135.34V137.2L96.8948 107.2V105.34L148.856 135.34Z" fill="#8BC5E4"/>
<path fill-rule="evenodd" clip-rule="evenodd" d="M147.973 138.76L146.076 139.855L94.1147 109.855L96.0113 108.76L147.973 138.76Z" fill="#8BC5E4"/>
<path fill-rule="evenodd" clip-rule="evenodd" d="M145.288 139.26V137.4L93.3267 107.4V109.26L145.288 139.26Z" fill="#8BC5E4"/>
<path fill-rule="evenodd" clip-rule="evenodd" d="M145.288 137.4L93.3267 107.4L145.288 137.4Z" fill="#8BC5E4"/>
<path fill-rule="evenodd" clip-rule="evenodd" d="M149.393 109.39L97.4316 79.3899L149.393 109.39Z" fill="#8BC5E4"/>
<path fill-rule="evenodd" clip-rule="evenodd" d="M164.964 115.56L159.907 123.66L107.945 93.6601L113.003 85.5601L164.964 115.56Z" fill="#8BC5E4"/>
<path fill-rule="evenodd" clip-rule="evenodd" d="M159.907 123.66L156.512 125.04L104.551 95.0399L107.945 93.6599L159.907 123.66Z" fill="#8BC5E4"/>
<path fill-rule="evenodd" clip-rule="evenodd" d="M156.512 125.04L154.641 118.87L102.68 88.8701L104.55 95.0401L156.512 125.04Z" fill="#8BC5E4"/>
<path fill-rule="evenodd" clip-rule="evenodd" d="M153.68 118.535L145.462 123.28L93.5 93.2799L101.719 88.5349L153.68 118.535Z" fill="#8BC5E4"/>
<path fill-rule="evenodd" clip-rule="evenodd" d="M144.162 125.26L142.517 133.12L90.5554 103.12L92.2009 95.26L144.162 125.26Z" fill="#8BC5E4"/>
<path fill-rule="evenodd" clip-rule="evenodd" d="M141.564 143.58L140.672 144.675L88.7109 114.675L89.6029 113.58L141.564 143.58Z" fill="#8BC5E4"/>
<path fill-rule="evenodd" clip-rule="evenodd" d="M140.672 144.675L140.655 147.375L88.6936 117.375L88.7109 114.675L140.672 144.675Z" fill="#8BC5E4"/>
<path fill-rule="evenodd" clip-rule="evenodd" d="M138.499 151.35V157.96L86.5371 127.96V121.35L138.499 151.35Z" fill="#8BC5E4"/>
<path fill-rule="evenodd" clip-rule="evenodd" d="M138.499 157.96L133.502 165.965L81.54 135.965L86.537 127.96L138.499 157.96Z" fill="#8BC5E4"/>
<path fill-rule="evenodd" clip-rule="evenodd" d="M149.393 116.68L97.4316 86.6799L149.393 116.68Z" fill="#8BC5E4"/>
<path fill-rule="evenodd" clip-rule="evenodd" d="M137.607 167.765L168.091 118.925L116.129 88.925L85.645 137.765L137.607 167.765Z" fill="#8BC5E4"/>
<path fill-rule="evenodd" clip-rule="evenodd" d="M168.091 118.925L116.129 88.925L168.091 118.925Z" fill="#8BC5E4"/>
<path fill-rule="evenodd" clip-rule="evenodd" d="M155.594 129.65L155.62 130.535L103.658 100.535L103.632 99.6499L155.594 129.65Z" fill="#8BC5E4"/>
<path fill-rule="evenodd" clip-rule="evenodd" d="M155.62 130.535L154.044 133.065L102.082 103.065L103.658 100.535L155.62 130.535Z" fill="#8BC5E4"/>
<path fill-rule="evenodd" clip-rule="evenodd" d="M154.044 133.065L154.035 132.35L102.073 102.35L102.082 103.065L154.044 133.065Z" fill="#8BC5E4"/>
<path fill-rule="evenodd" clip-rule="evenodd" d="M154.035 132.35L151.333 133.91L99.3716 103.91L102.074 102.35L154.035 132.35Z" fill="#8BC5E4"/>
<path fill-rule="evenodd" clip-rule="evenodd" d="M151.333 133.91V135.77L99.3716 105.77V103.91L151.333 133.91Z" fill="#8BC5E4"/>
<path fill-rule="evenodd" clip-rule="evenodd" d="M151.957 136.4L146.648 144.895L94.6863 114.895L99.995 106.4L151.957 136.4Z" fill="#8BC5E4"/>
<path fill-rule="evenodd" clip-rule="evenodd" d="M146.648 144.895L146.656 142.09L94.6949 112.09L94.6863 114.895L146.648 144.895Z" fill="#8BC5E4"/>
<path fill-rule="evenodd" clip-rule="evenodd" d="M145.513 141.39L144.457 142L92.4954 112L93.5519 111.39L145.513 141.39Z" fill="#8BC5E4"/>
<path fill-rule="evenodd" clip-rule="evenodd" d="M143.037 141.07L143.019 137.92L91.0579 107.92L91.0752 111.07L143.037 141.07Z" fill="#8BC5E4"/>
<path fill-rule="evenodd" clip-rule="evenodd" d="M155.594 129.65L103.632 99.6499L155.594 129.65Z" fill="#8BC5E4"/>
<path fill-rule="evenodd" clip-rule="evenodd" d="M159.223 136.645L149.939 151.545L97.9773 121.545L107.261 106.645L159.223 136.645Z" fill="#8BC5E4"/>
<path fill-rule="evenodd" clip-rule="evenodd" d="M149.939 151.545V156.825L97.9773 126.825V121.545L149.939 151.545Z" fill="#8BC5E4"/>
<path fill-rule="evenodd" clip-rule="evenodd" d="M149.939 156.825L157.698 152.345L105.737 122.345L97.9773 126.825L149.939 156.825Z" fill="#8BC5E4"/>
<path fill-rule="evenodd" clip-rule="evenodd" d="M160.643 147.365V138.785L108.681 108.785V117.365L160.643 147.365Z" fill="#8BC5E4"/>
<path fill-rule="evenodd" clip-rule="evenodd" d="M159.223 136.645L107.261 106.645L159.223 136.645Z" fill="#8BC5E4"/>
<path fill-rule="evenodd" clip-rule="evenodd" d="M148.9 153.355L144.899 159.735L92.937 129.735L96.9381 123.355L148.9 153.355Z" fill="#8BC5E4"/>
<path fill-rule="evenodd" clip-rule="evenodd" d="M144.899 159.735L148.9 157.425L96.9381 127.425L92.937 129.735L144.899 159.735Z" fill="#8BC5E4"/>
<path fill-rule="evenodd" clip-rule="evenodd" d="M148.9 157.425V153.355L96.938 123.355V127.425L148.9 157.425Z" fill="#8BC5E4"/>
<path fill-rule="evenodd" clip-rule="evenodd" d="M148.9 153.355L96.938 123.355L148.9 153.355Z" fill="#8BC5E4"/>
<path fill-rule="evenodd" clip-rule="evenodd" d="M168.576 161.085L116.614 131.085L168.576 161.085Z" fill="#8BC5E4"/>
<path fill-rule="evenodd" clip-rule="evenodd" d="M120.927 138.255L68.9653 108.255L120.927 138.255Z" fill="#8BC5E4"/>
<path fill-rule="evenodd" clip-rule="evenodd" d="M141.625 182.555L89.6633 152.555L141.625 182.555Z" fill="#8BC5E4"/>
<path fill-rule="evenodd" clip-rule="evenodd" d="M117.411 167.605L65.4495 137.605L117.411 167.605Z" fill="#8BC5E4"/>
<path fill-rule="evenodd" clip-rule="evenodd" d="M103.546 201.63L51.5842 171.63L103.546 201.63Z" fill="#8BC5E4"/>
<path fill-rule="evenodd" clip-rule="evenodd" d="M118.589 237.525L66.6272 207.525L118.589 237.525Z" fill="#8BC5E4"/>
<path fill-rule="evenodd" clip-rule="evenodd" d="M62.6261 125.375L214.579 37.645L162.617 7.64502L10.6646 95.375L62.6261 125.375Z" fill="#8BC5E4"/>
<path fill-rule="evenodd" clip-rule="evenodd" d="M220.407 40.99V216.55L168.446 186.55V10.99L220.407 40.99Z" fill="#8BC5E4"/>
<path fill-rule="evenodd" clip-rule="evenodd" d="M214.579 226.625L62.6261 314.355L10.6646 284.355L162.617 196.625L214.579 226.625Z" fill="#8BC5E4"/>
<path fill-rule="evenodd" clip-rule="evenodd" d="M56.7977 311.01V135.45L4.83618 105.45V281.01L56.7977 311.01Z" fill="#8BC5E4"/>
<path fill-rule="evenodd" clip-rule="evenodd" d="M62.6261 125.375L10.6646 95.375L62.6261 125.375Z" fill="#8BC5E4"/>
<path fill-rule="evenodd" clip-rule="evenodd" d="M52.0001 138.22V313.78L0.0385742 283.78V108.22L52.0001 138.22Z" fill="#8BC5E4"/>
<path fill-rule="evenodd" clip-rule="evenodd" d="M62.6261 319.865L214.579 232.135L162.617 202.135L10.6646 289.865L62.6261 319.865Z" fill="#8BC5E4"/>
<path fill-rule="evenodd" clip-rule="evenodd" d="M225.205 213.78V38.22L173.244 8.21997V183.78L225.205 213.78Z" fill="#8BC5E4"/>
<path fill-rule="evenodd" clip-rule="evenodd" d="M214.579 32.135L62.6261 119.865L10.6646 89.865L162.617 2.13501L214.579 32.135Z" fill="#8BC5E4"/>
<path fill-rule="evenodd" clip-rule="evenodd" d="M62.6261 119.865L10.6646 89.865L62.6261 119.865Z" fill="#8BC5E4"/>
<path fill-rule="evenodd" clip-rule="evenodd" d="M148.856 137.2C148.856 137.73 148.389 138.52 147.973 138.76L96.0115 108.76C96.4272 108.52 96.8948 107.73 96.8948 107.2L148.856 137.2Z" fill="#8BC5E4"/>
<path fill-rule="evenodd" clip-rule="evenodd" d="M146.076 139.855C145.901 139.956 145.727 139.977 145.588 139.914L93.6265 109.914C93.7659 109.977 93.9395 109.956 94.1148 109.855L146.076 139.855Z" fill="#8BC5E4"/>
<path fill-rule="evenodd" clip-rule="evenodd" d="M145.588 139.914C145.41 139.834 145.288 139.618 145.288 139.26L93.3267 109.26C93.3267 109.618 93.4489 109.834 93.6264 109.914L145.588 139.914Z" fill="#8BC5E4"/>
<path fill-rule="evenodd" clip-rule="evenodd" d="M149.393 109.39C134.29 118.11 121.983 139.355 121.983 156.695L70.022 126.695C70.022 109.355 82.3282 88.1099 97.4317 79.3899L149.393 109.39Z" fill="#8BC5E4"/>
<path fill-rule="evenodd" clip-rule="evenodd" d="M121.983 156.695C121.983 165.028 124.819 170.982 129.438 173.956L77.4764 143.956C72.8573 140.982 70.022 135.028 70.022 126.695L121.983 156.695Z" fill="#8BC5E4"/>
<path fill-rule="evenodd" clip-rule="evenodd" d="M129.438 173.956C134.442 177.179 141.539 176.905 149.393 172.37L97.4316 142.37C89.5778 146.905 82.4803 147.179 77.4763 143.956L129.438 173.956Z" fill="#8BC5E4"/>
<path fill-rule="evenodd" clip-rule="evenodd" d="M149.393 172.37C164.488 163.655 176.786 142.415 176.786 125.055L124.824 95.0549C124.824 112.415 112.526 133.655 97.4316 142.37L149.393 172.37Z" fill="#8BC5E4"/>
<path fill-rule="evenodd" clip-rule="evenodd" d="M176.786 125.055C176.786 116.732 173.952 110.782 169.336 107.808L117.375 77.8081C121.991 80.7818 124.824 86.7319 124.824 95.0551L176.786 125.055Z" fill="#8BC5E4"/>
<path fill-rule="evenodd" clip-rule="evenodd" d="M169.336 107.808C164.335 104.587 157.242 104.858 149.393 109.39L97.4316 79.3901C105.281 74.8583 112.374 74.5866 117.375 77.8081L169.336 107.808Z" fill="#8BC5E4"/>
<path fill-rule="evenodd" clip-rule="evenodd" d="M149.393 116.68C155.082 113.396 160.228 112.997 164.009 114.987L112.048 84.9871C108.267 82.9975 103.12 83.3956 97.4316 86.68L149.393 116.68Z" fill="#8BC5E4"/>
<path fill-rule="evenodd" clip-rule="evenodd" d="M164.009 114.987C164.338 115.16 164.657 115.351 164.964 115.56L113.003 85.5599C112.695 85.3511 112.377 85.1601 112.048 84.9871L164.009 114.987Z" fill="#8BC5E4"/>
<path fill-rule="evenodd" clip-rule="evenodd" d="M154.641 118.87C154.577 118.652 154.488 118.5 154.363 118.425L102.402 88.425C102.527 88.5001 102.615 88.6521 102.68 88.8699L154.641 118.87Z" fill="#8BC5E4"/>
<path fill-rule="evenodd" clip-rule="evenodd" d="M154.363 118.425C154.204 118.33 153.986 118.359 153.68 118.535L101.719 88.5349C102.024 88.3585 102.243 88.3295 102.402 88.4251L154.363 118.425Z" fill="#8BC5E4"/>
<path fill-rule="evenodd" clip-rule="evenodd" d="M145.461 123.28C144.76 123.685 144.396 124.235 144.162 125.26L92.2009 95.26C92.4348 94.235 92.7985 93.685 93.5 93.28L145.461 123.28Z" fill="#8BC5E4"/>
<path fill-rule="evenodd" clip-rule="evenodd" d="M142.517 133.12C139.746 134.98 136.411 137.905 136.411 139.125L84.45 109.125C84.45 107.905 87.7841 104.98 90.5554 103.12L142.517 133.12Z" fill="#8BC5E4"/>
<path fill-rule="evenodd" clip-rule="evenodd" d="M136.411 139.125C136.411 139.259 136.459 139.354 136.547 139.416L84.5857 109.416C84.498 109.354 84.45 109.259 84.45 109.125L136.411 139.125Z" fill="#8BC5E4"/>
<path fill-rule="evenodd" clip-rule="evenodd" d="M136.547 139.416C137.19 139.866 139.969 138.521 141.608 137.795L89.6461 107.795C88.0076 108.521 85.229 109.866 84.5857 109.416L136.547 139.416Z" fill="#8BC5E4"/>
<path fill-rule="evenodd" clip-rule="evenodd" d="M141.608 137.795C141.045 139.97 140.898 141.785 141.564 143.58L89.6029 113.58C88.9361 111.785 89.0833 109.97 89.6462 107.795L141.608 137.795Z" fill="#8BC5E4"/>
<path fill-rule="evenodd" clip-rule="evenodd" d="M140.655 147.375C139.529 148.025 138.499 149.86 138.499 151.35L86.5371 121.35C86.5371 119.86 87.5677 118.025 88.6935 117.375L140.655 147.375Z" fill="#8BC5E4"/>
<path fill-rule="evenodd" clip-rule="evenodd" d="M133.502 165.965C130.28 163.585 128.331 159.14 128.331 153.03L76.3699 123.03C76.3699 129.14 78.3184 133.585 81.54 135.965L133.502 165.965Z" fill="#8BC5E4"/>
<path fill-rule="evenodd" clip-rule="evenodd" d="M128.331 153.03C128.331 139.63 137.728 123.415 149.393 116.68L97.4316 86.6799C85.7662 93.4149 76.3699 109.63 76.3699 123.03L128.331 153.03Z" fill="#8BC5E4"/>
<path fill-rule="evenodd" clip-rule="evenodd" d="M168.091 118.925C169.598 121.395 170.438 124.7 170.438 128.72L118.476 98.7201C118.476 94.7001 117.636 91.395 116.129 88.925L168.091 118.925Z" fill="#8BC5E4"/>
<path fill-rule="evenodd" clip-rule="evenodd" d="M170.438 128.72C170.438 142.14 161.05 158.34 149.393 165.07L97.4316 135.07C109.088 128.34 118.476 112.14 118.476 98.72L170.438 128.72Z" fill="#8BC5E4"/>
<path fill-rule="evenodd" clip-rule="evenodd" d="M149.393 165.07C145.02 167.595 140.975 168.42 137.607 167.765L85.645 137.765C89.0139 138.42 93.0582 137.595 97.4316 135.07L149.393 165.07Z" fill="#8BC5E4"/>
<path fill-rule="evenodd" clip-rule="evenodd" d="M151.333 135.77C151.333 136.154 151.403 136.346 151.511 136.426L99.5495 106.426C99.4414 106.346 99.3716 106.154 99.3716 105.77L151.333 135.77Z" fill="#8BC5E4"/>
<path fill-rule="evenodd" clip-rule="evenodd" d="M151.511 136.426C151.628 136.513 151.79 136.47 151.957 136.4L99.9952 106.4C99.8286 106.47 99.6666 106.513 99.5496 106.426L151.511 136.426Z" fill="#8BC5E4"/>
<path fill-rule="evenodd" clip-rule="evenodd" d="M146.657 142.09C146.673 141.692 146.574 141.42 146.388 141.291L94.4265 111.291C94.6126 111.42 94.7117 111.692 94.6951 112.09L146.657 142.09Z" fill="#8BC5E4"/>
<path fill-rule="evenodd" clip-rule="evenodd" d="M146.388 141.29C146.187 141.15 145.883 141.177 145.514 141.39L93.552 111.39C93.9213 111.177 94.225 111.15 94.4266 111.29L146.388 141.29Z" fill="#8BC5E4"/>
<path fill-rule="evenodd" clip-rule="evenodd" d="M144.457 142C144.034 142.244 143.708 142.26 143.476 142.128L91.5144 112.128C91.7466 112.26 92.0723 112.244 92.4953 112L144.457 142Z" fill="#8BC5E4"/>
<path fill-rule="evenodd" clip-rule="evenodd" d="M143.476 142.128C143.18 141.96 143.036 141.552 143.036 141.07L91.075 111.07C91.075 111.552 91.2189 111.96 91.5144 112.128L143.476 142.128Z" fill="#8BC5E4"/>
<path fill-rule="evenodd" clip-rule="evenodd" d="M143.019 137.92C143.132 137.495 143.452 136.82 143.773 136.555L91.8113 106.555C91.4909 106.82 91.1704 107.495 91.0579 107.92L143.019 137.92Z" fill="#8BC5E4"/>
<path fill-rule="evenodd" clip-rule="evenodd" d="M143.773 136.555C147.808 134.795 151.723 132.285 155.594 129.65L103.633 99.6499C99.7614 102.285 95.847 104.795 91.8113 106.555L143.773 136.555Z" fill="#8BC5E4"/>
<path fill-rule="evenodd" clip-rule="evenodd" d="M157.698 152.345C159.708 151.185 160.66 149.645 160.643 147.365L108.681 117.365C108.699 119.645 107.746 121.185 105.737 122.345L157.698 152.345Z" fill="#8BC5E4"/>
<path fill-rule="evenodd" clip-rule="evenodd" d="M160.643 138.785C160.643 137.949 160.16 137.198 159.501 136.792L107.54 106.792C108.198 107.198 108.681 107.949 108.681 108.785L160.643 138.785Z" fill="#8BC5E4"/>
<path fill-rule="evenodd" clip-rule="evenodd" d="M159.501 136.792C159.411 136.736 159.318 136.687 159.223 136.645L107.261 106.645C107.357 106.687 107.45 106.736 107.54 106.792L159.501 136.792Z" fill="#8BC5E4"/>
<path fill-rule="evenodd" clip-rule="evenodd" d="M168.576 161.085C172.967 166.55 176.448 173.83 178.769 183.09L126.807 153.09C124.486 143.83 121.005 136.55 116.614 131.085L168.576 161.085Z" fill="#8BC5E4"/>
<path fill-rule="evenodd" clip-rule="evenodd" d="M178.769 183.09C179.032 184.205 179.567 185.006 180.285 185.482L128.323 155.482C127.605 155.006 127.071 154.205 126.807 153.09L178.769 183.09Z" fill="#8BC5E4"/>
<path fill-rule="evenodd" clip-rule="evenodd" d="M180.285 185.482C181.81 186.494 184.162 186.04 186.494 184.02L134.532 154.02C132.2 156.04 129.848 156.494 128.323 155.482L180.285 185.482Z" fill="#8BC5E4"/>
<path fill-rule="evenodd" clip-rule="evenodd" d="M186.494 184.02C189.923 181.05 191.984 175.84 191.075 172.435L139.113 142.435C140.023 145.84 137.962 151.05 134.532 154.02L186.494 184.02Z" fill="#8BC5E4"/>
<path fill-rule="evenodd" clip-rule="evenodd" d="M191.075 172.435C188.183 160.845 183.341 151.8 177.4 145.38L125.439 115.38C131.38 121.8 136.221 130.845 139.114 142.435L191.075 172.435Z" fill="#8BC5E4"/>
<path fill-rule="evenodd" clip-rule="evenodd" d="M177.401 145.38C175.305 150.2 172.135 155.55 168.576 161.085L116.614 131.085C120.174 125.55 123.343 120.2 125.439 115.38L177.401 145.38Z" fill="#8BC5E4"/>
<path fill-rule="evenodd" clip-rule="evenodd" d="M120.927 138.255C116.103 140.24 111.072 142.745 106.153 145.715L54.1912 115.715C59.1102 112.745 64.1418 110.24 68.9656 108.255L120.927 138.255Z" fill="#8BC5E4"/>
<path fill-rule="evenodd" clip-rule="evenodd" d="M106.153 145.715C100.757 148.95 95.3185 152.78 89.9232 157.135L37.9617 127.135C43.357 122.78 48.7956 118.95 54.191 115.715L106.153 145.715Z" fill="#8BC5E4"/>
<path fill-rule="evenodd" clip-rule="evenodd" d="M89.9232 157.135C86.4417 159.885 84.1554 165.085 84.8569 168.67L32.8954 138.67C32.1939 135.085 34.4802 129.885 37.9616 127.135L89.9232 157.135Z" fill="#8BC5E4"/>
<path fill-rule="evenodd" clip-rule="evenodd" d="M84.857 168.67C85.1096 169.961 85.7112 170.867 86.5394 171.364L34.5778 141.364C33.7496 140.867 33.148 139.961 32.8955 138.67L84.857 168.67Z" fill="#8BC5E4"/>
<path fill-rule="evenodd" clip-rule="evenodd" d="M86.5394 171.364C88.0118 172.249 90.2004 171.842 92.4175 170.005L40.4559 140.005C38.2389 141.842 36.0503 142.249 34.5779 141.364L86.5394 171.364Z" fill="#8BC5E4"/>
<path fill-rule="evenodd" clip-rule="evenodd" d="M92.4173 170.005C100.515 163.47 108.621 158.28 116.458 154.645L64.4967 124.645C56.6591 128.28 48.5531 133.47 40.4558 140.005L92.4173 170.005Z" fill="#8BC5E4"/>
<path fill-rule="evenodd" clip-rule="evenodd" d="M116.458 154.645C117.151 149.685 118.658 144.245 120.927 138.255L68.9655 108.255C66.6965 114.245 65.1896 119.685 64.4968 124.645L116.458 154.645Z" fill="#8BC5E4"/>
<path fill-rule="evenodd" clip-rule="evenodd" d="M141.625 182.555C148.146 186.2 153.334 193.375 156.59 204.695L104.628 174.695C101.372 163.375 96.1845 156.2 89.6633 152.555L141.625 182.555Z" fill="#8BC5E4"/>
<path fill-rule="evenodd" clip-rule="evenodd" d="M156.59 204.695C156.886 205.781 157.45 206.547 158.191 206.985L106.229 176.985C105.488 176.547 104.925 175.781 104.628 174.695L156.59 204.695Z" fill="#8BC5E4"/>
<path fill-rule="evenodd" clip-rule="evenodd" d="M158.191 206.985C159.765 207.916 162.139 207.369 164.453 205.285L112.492 175.285C110.177 177.369 107.803 177.916 106.229 176.985L158.191 206.985Z" fill="#8BC5E4"/>
<path fill-rule="evenodd" clip-rule="evenodd" d="M164.453 205.285C167.866 202.195 169.823 196.975 168.81 193.66L116.848 163.66C117.861 166.975 115.904 172.195 112.492 175.285L164.453 205.285Z" fill="#8BC5E4"/>
<path fill-rule="evenodd" clip-rule="evenodd" d="M168.81 193.66C166.237 184.735 162.427 177.965 157.69 173.17L105.728 143.17C110.465 147.965 114.276 154.735 116.848 163.66L168.81 193.66Z" fill="#8BC5E4"/>
<path fill-rule="evenodd" clip-rule="evenodd" d="M157.69 173.17C152.987 177.275 147.332 180.87 141.625 182.555L89.6633 152.555C95.3704 150.87 101.026 147.275 105.728 143.17L157.69 173.17Z" fill="#8BC5E4"/>
<path fill-rule="evenodd" clip-rule="evenodd" d="M117.411 167.605C113.107 169.23 108.707 171.4 104.282 174.055L52.3203 144.055C56.7457 141.4 61.1451 139.23 65.4493 137.605L117.411 167.605Z" fill="#8BC5E4"/>
<path fill-rule="evenodd" clip-rule="evenodd" d="M104.282 174.055C100.255 176.49 96.2107 179.315 92.1837 182.53L40.2222 152.53C44.2492 149.315 48.2935 146.49 52.3205 144.055L104.282 174.055Z" fill="#8BC5E4"/>
<path fill-rule="evenodd" clip-rule="evenodd" d="M92.1837 182.53C88.7022 185.26 86.4073 190.435 87.0741 194.04L35.1126 164.04C34.4457 160.435 36.7407 155.26 40.2221 152.53L92.1837 182.53Z" fill="#8BC5E4"/>
<path fill-rule="evenodd" clip-rule="evenodd" d="M87.0741 194.04C87.3141 195.338 87.9044 196.253 88.7232 196.762L36.7617 166.762C35.9429 166.253 35.3526 165.338 35.1125 164.04L87.0741 194.04Z" fill="#8BC5E4"/>
<path fill-rule="evenodd" clip-rule="evenodd" d="M88.7232 196.762C90.1789 197.666 92.3569 197.285 94.5739 195.48L42.6124 165.48C40.3954 167.285 38.2174 167.666 36.7617 166.762L88.7232 196.762Z" fill="#8BC5E4"/>
<path fill-rule="evenodd" clip-rule="evenodd" d="M94.5738 195.48C104.949 187.2 115.107 181.815 124.227 180.17L72.265 150.17C63.1458 151.815 52.9873 157.2 42.6123 165.48L94.5738 195.48Z" fill="#8BC5E4"/>
<path fill-rule="evenodd" clip-rule="evenodd" d="M124.227 180.17C121.074 177.45 118.338 174.05 117.411 167.605L65.4495 137.605C66.3761 144.05 69.1128 147.45 72.2651 150.17L124.227 180.17Z" fill="#8BC5E4"/>
<path fill-rule="evenodd" clip-rule="evenodd" d="M103.546 201.63C100.757 203.41 97.9254 205.545 95.0675 208.025L43.106 178.025C45.9638 175.545 48.7957 173.41 51.5843 171.63L103.546 201.63Z" fill="#8BC5E4"/>
<path fill-rule="evenodd" clip-rule="evenodd" d="M95.0675 208.025C91.6121 210.96 89.499 216.18 90.3737 219.635L38.4122 189.635C37.5375 186.18 39.6506 180.96 43.106 178.025L95.0675 208.025Z" fill="#8BC5E4"/>
<path fill-rule="evenodd" clip-rule="evenodd" d="M90.3736 219.635C90.6535 220.741 91.2039 221.525 91.9354 221.981L39.9738 191.981C39.2424 191.525 38.692 190.741 38.4121 189.635L90.3736 219.635Z" fill="#8BC5E4"/>
<path fill-rule="evenodd" clip-rule="evenodd" d="M91.9354 221.981C93.4898 222.951 95.8618 222.437 98.1939 220.37L46.2323 190.37C43.9003 192.437 41.5282 192.951 39.9739 191.981L91.9354 221.981Z" fill="#8BC5E4"/>
<path fill-rule="evenodd" clip-rule="evenodd" d="M98.1937 220.37C106.577 213.08 113.704 210.465 119.758 211.4L67.7962 181.4C61.7427 180.465 54.6153 183.08 46.2322 190.37L98.1937 220.37Z" fill="#8BC5E4"/>
<path fill-rule="evenodd" clip-rule="evenodd" d="M119.758 211.4C121.455 211.66 123.071 212.219 124.583 213.082L72.621 183.082C71.1097 182.219 69.4938 181.66 67.7964 181.4L119.758 211.4Z" fill="#8BC5E4"/>
<path fill-rule="evenodd" clip-rule="evenodd" d="M124.582 213.083C128.468 215.302 131.662 219.531 133.77 225.86L81.8085 195.86C79.701 189.531 76.507 185.302 72.6208 183.083L124.582 213.083Z" fill="#8BC5E4"/>
<path fill-rule="evenodd" clip-rule="evenodd" d="M133.77 225.86C134.059 226.788 134.549 227.465 135.18 227.889L83.2182 197.889C82.5874 197.465 82.0972 196.788 81.8086 195.86L133.77 225.86Z" fill="#8BC5E4"/>
<path fill-rule="evenodd" clip-rule="evenodd" d="M135.18 227.888C136.802 228.977 139.354 228.389 141.798 226.085L89.8367 196.085C87.3924 198.389 84.8404 198.977 83.2183 197.888L135.18 227.888Z" fill="#8BC5E4"/>
<path fill-rule="evenodd" clip-rule="evenodd" d="M141.798 226.085C145.184 222.88 147.012 217.625 145.86 214.43L93.8983 184.43C95.0501 187.625 93.2228 192.88 89.8367 196.085L141.798 226.085Z" fill="#8BC5E4"/>
<path fill-rule="evenodd" clip-rule="evenodd" d="M145.86 214.43C143.363 206.916 139.476 201.346 134.437 198.116L82.4758 168.116C87.515 171.346 91.4015 176.916 93.8984 184.43L145.86 214.43Z" fill="#8BC5E4"/>
<path fill-rule="evenodd" clip-rule="evenodd" d="M134.437 198.116C132.066 196.595 129.439 195.593 126.582 195.15L74.6206 165.15C77.4778 165.593 80.1044 166.595 82.4758 168.116L134.437 198.116Z" fill="#8BC5E4"/>
<path fill-rule="evenodd" clip-rule="evenodd" d="M126.582 195.15C119.87 194.115 111.929 196.29 103.546 201.63L51.5842 171.63C59.9674 166.29 67.9088 164.115 74.6205 165.15L126.582 195.15Z" fill="#8BC5E4"/>
<path fill-rule="evenodd" clip-rule="evenodd" d="M118.589 237.525C118.589 244.755 113.488 253.57 107.192 257.205L55.2302 227.205C61.5262 223.57 66.6271 214.755 66.6271 207.525L118.589 237.525Z" fill="#8BC5E4"/>
<path fill-rule="evenodd" clip-rule="evenodd" d="M107.192 257.205C104.17 258.95 101.423 259.183 99.3836 258.155L47.4221 228.155C49.4615 229.183 52.2083 228.95 55.2304 227.205L107.192 257.205Z" fill="#8BC5E4"/>
<path fill-rule="evenodd" clip-rule="evenodd" d="M99.3837 258.155C97.1743 257.04 95.795 254.445 95.795 250.685L43.8335 220.685C43.8335 224.445 45.2128 227.04 47.4222 228.155L99.3837 258.155Z" fill="#8BC5E4"/>
<path fill-rule="evenodd" clip-rule="evenodd" d="M95.795 250.685C95.795 243.455 100.896 234.64 107.192 231.005L55.2304 201.005C48.9344 204.64 43.8335 213.455 43.8335 220.685L95.795 250.685Z" fill="#8BC5E4"/>
<path fill-rule="evenodd" clip-rule="evenodd" d="M107.192 231.005C110.214 229.26 112.961 229.027 115 230.056L63.0385 200.056C60.999 199.027 58.2523 199.26 55.2302 201.005L107.192 231.005Z" fill="#8BC5E4"/>
<path fill-rule="evenodd" clip-rule="evenodd" d="M115 230.055C117.209 231.17 118.589 233.765 118.589 237.525L66.6272 207.525C66.6272 203.765 65.248 201.17 63.0386 200.055L115 230.055Z" fill="#8BC5E4"/>
<path fill-rule="evenodd" clip-rule="evenodd" d="M214.579 37.645C216.15 36.7378 217.556 36.6036 218.593 37.1262L166.632 7.12624C165.594 6.60358 164.189 6.73779 162.617 7.64499L214.579 37.645Z" fill="#8BC5E4"/>
<path fill-rule="evenodd" clip-rule="evenodd" d="M218.593 37.1262C219.717 37.6924 220.407 39.0296 220.407 40.99L168.446 10.99C168.446 9.02956 167.755 7.69244 166.632 7.12622L218.593 37.1262Z" fill="#8BC5E4"/>
<path fill-rule="evenodd" clip-rule="evenodd" d="M220.407 216.55C220.407 220.32 217.853 224.735 214.579 226.625L162.617 196.625C165.891 194.735 168.446 190.32 168.446 186.55L220.407 216.55Z" fill="#8BC5E4"/>
<path fill-rule="evenodd" clip-rule="evenodd" d="M62.6262 314.355C61.0549 315.262 59.6492 315.396 58.6122 314.874L6.65063 284.874C7.68768 285.396 9.09339 285.262 10.6647 284.355L62.6262 314.355Z" fill="#8BC5E4"/>
<path fill-rule="evenodd" clip-rule="evenodd" d="M58.612 314.874C57.4885 314.308 56.7977 312.97 56.7977 311.01L4.83618 281.01C4.83618 282.97 5.52699 284.308 6.65046 284.874L58.612 314.874Z" fill="#8BC5E4"/>
<path fill-rule="evenodd" clip-rule="evenodd" d="M56.7977 135.45C56.7977 131.68 59.3525 127.265 62.6261 125.375L10.6645 95.375C7.39096 97.265 4.83618 101.68 4.83618 105.45L56.7977 135.45Z" fill="#8BC5E4"/>
<path fill-rule="evenodd" clip-rule="evenodd" d="M62.6262 119.865C56.7806 123.24 52.0001 131.49 52.0001 138.22L0.0385742 108.22C0.0385742 101.49 4.81903 93.24 10.6647 89.865L62.6262 119.865Z" fill="#8BC5E4"/>
<path fill-rule="evenodd" clip-rule="evenodd" d="M52.0001 313.78C52.0001 317.01 53.1015 319.319 54.8935 320.474L2.93195 290.474C1.13999 289.319 0.0385742 287.01 0.0385742 283.78L52.0001 313.78Z" fill="#8BC5E4"/>
<path fill-rule="evenodd" clip-rule="evenodd" d="M54.8934 320.474C56.8347 321.724 59.5864 321.62 62.6262 319.865L10.6646 289.865C7.62489 291.62 4.87317 291.724 2.93188 290.474L54.8934 320.474Z" fill="#8BC5E4"/>
<path fill-rule="evenodd" clip-rule="evenodd" d="M214.579 232.135C220.425 228.76 225.205 220.51 225.205 213.78L173.244 183.78C173.244 190.51 168.463 198.76 162.617 202.135L214.579 232.135Z" fill="#8BC5E4"/>
<path fill-rule="evenodd" clip-rule="evenodd" d="M225.205 38.22C225.205 34.9896 224.104 32.6808 222.312 31.5264L170.35 1.52637C172.142 2.68077 173.243 4.98957 173.243 8.21997L225.205 38.22Z" fill="#8BC5E4"/>
<path fill-rule="evenodd" clip-rule="evenodd" d="M222.312 31.5265C220.37 30.2758 217.619 30.3801 214.579 32.1351L162.617 2.13506C165.657 0.380059 168.409 0.27585 170.35 1.52645L222.312 31.5265Z" fill="#8BC5E4"/>
<path d="M145.288 137.4L148.856 135.34V137.2C148.856 137.73 148.389 138.52 147.973 138.76L146.076 139.855C145.678 140.085 145.288 139.9 145.288 139.26V137.4ZM149.393 109.39C134.29 118.11 121.984 139.355 121.984 156.695C121.984 174.055 134.29 181.09 149.393 172.37C164.488 163.655 176.786 142.415 176.786 125.055C176.786 107.715 164.488 100.675 149.393 109.39ZM149.393 116.68C155.577 113.11 161.119 112.95 164.964 115.56L159.907 123.66L156.512 125.04L154.641 118.87C154.494 118.375 154.226 118.22 153.68 118.535L145.461 123.28C144.76 123.685 144.396 124.235 144.162 125.26L142.517 133.12C139.746 134.98 136.411 137.905 136.411 139.125C136.411 140.245 139.746 138.62 141.608 137.795C141.045 139.97 140.898 141.785 141.564 143.58L140.672 144.675L140.655 147.375C139.529 148.025 138.499 149.86 138.499 151.35V157.96L133.502 165.965C130.28 163.585 128.331 159.14 128.331 153.03C128.331 139.63 137.728 123.415 149.393 116.68ZM168.091 118.925C169.598 121.395 170.438 124.7 170.438 128.72C170.438 142.14 161.05 158.34 149.393 165.07C145.02 167.595 140.975 168.42 137.607 167.765L168.091 118.925ZM155.594 129.65L155.62 130.535L154.044 133.065L154.035 132.35L151.333 133.91V135.77C151.333 136.57 151.636 136.535 151.957 136.4L146.648 144.895L146.657 142.09C146.691 141.26 146.224 140.98 145.513 141.39L144.457 142C143.496 142.555 143.037 141.93 143.037 141.07L143.019 137.92C143.132 137.495 143.452 136.82 143.773 136.555C147.808 134.795 151.723 132.285 155.594 129.65ZM159.223 136.645L149.939 151.545V156.825L157.698 152.345C159.708 151.185 160.66 149.645 160.643 147.365V138.785C160.643 137.835 160.019 136.995 159.223 136.645ZM148.9 153.355L144.899 159.735L148.9 157.425V153.355ZM168.576 161.085C172.966 166.55 176.448 173.83 178.769 183.09C179.592 186.575 183.064 186.99 186.494 184.02C189.923 181.05 191.984 175.84 191.075 172.435C188.182 160.845 183.341 151.8 177.4 145.38C175.305 150.2 172.135 155.55 168.576 161.085ZM120.927 138.255C116.103 140.24 111.072 142.745 106.153 145.715C100.757 148.95 95.3186 152.78 89.9233 157.135C86.4418 159.885 84.1555 165.085 84.857 168.67C85.5585 172.255 88.9533 172.875 92.4174 170.005C100.515 163.47 108.621 158.28 116.458 154.645C117.151 149.685 118.658 144.245 120.927 138.255ZM141.625 182.555C148.146 186.2 153.334 193.375 156.59 204.695C157.517 208.09 161.05 208.35 164.453 205.285C167.866 202.195 169.823 196.975 168.81 193.66C166.237 184.735 162.427 177.965 157.69 173.17C152.987 177.275 147.332 180.87 141.625 182.555ZM117.411 167.605C113.107 169.23 108.707 171.4 104.282 174.055C100.255 176.49 96.2106 179.315 92.1836 182.53C88.7022 185.26 86.4072 190.435 87.074 194.04C87.7409 197.645 91.1097 198.3 94.5738 195.48C104.949 187.2 115.107 181.815 124.227 180.17C121.074 177.45 118.338 174.05 117.411 167.605ZM103.546 201.63C100.757 203.41 97.9253 205.545 95.0674 208.025C91.612 210.96 89.4989 216.18 90.3736 219.635C91.2483 223.09 94.7643 223.41 98.1938 220.37C106.577 213.08 113.704 210.465 119.758 211.4C125.82 212.33 130.843 217.07 133.77 225.86C134.801 229.175 138.403 229.285 141.798 226.085C145.184 222.88 147.012 217.625 145.86 214.43C142.188 203.38 135.511 196.535 126.582 195.15C119.87 194.115 111.929 196.29 103.546 201.63ZM118.589 237.525C118.589 244.755 113.488 253.57 107.192 257.205C100.896 260.84 95.7949 257.915 95.7949 250.685C95.7949 243.455 100.896 234.64 107.192 231.005C113.488 227.37 118.589 230.295 118.589 237.525ZM62.6261 125.375L214.579 37.6451C217.853 35.7551 220.407 37.2201 220.407 40.9901V216.55C220.407 220.32 217.853 224.735 214.579 226.625L62.6261 314.355C59.3526 316.245 56.7978 314.78 56.7978 311.01V135.45C56.7978 131.68 59.3526 127.265 62.6261 125.375ZM62.6261 119.865C56.7805 123.24 52 131.49 52 138.22V313.78C52 320.51 56.7805 323.24 62.6261 319.865L214.579 232.135C220.425 228.76 225.205 220.51 225.205 213.78V38.2201C225.205 31.4901 220.425 28.7601 214.579 32.1351L62.6261 119.865Z" fill="#8BC5E4"/>
<path fill-rule="evenodd" clip-rule="evenodd" d="M62.6261 125.375L214.579 37.6451C217.853 35.7551 220.407 37.2201 220.407 40.9901V216.55C220.407 220.32 217.853 224.735 214.579 226.625L62.6261 314.355C59.3526 316.245 56.7978 314.78 56.7978 311.01V135.45C56.7978 131.68 59.3526 127.265 62.6261 125.375ZM121.984 156.695C121.984 139.355 134.29 118.11 149.393 109.39C164.488 100.675 176.786 107.715 176.786 125.055C176.786 142.415 164.488 163.655 149.393 172.37C134.29 181.09 121.984 174.055 121.984 156.695ZM178.769 183.09C176.448 173.83 172.966 166.55 168.576 161.085C172.135 155.55 175.305 150.2 177.4 145.38C183.341 151.8 188.182 160.845 191.075 172.435C191.984 175.84 189.923 181.05 186.494 184.02C183.064 186.99 179.592 186.575 178.769 183.09ZM106.153 145.715C111.072 142.745 116.103 140.24 120.927 138.255C118.658 144.245 117.151 149.685 116.458 154.645C108.621 158.28 100.515 163.47 92.4174 170.005C88.9533 172.875 85.5585 172.255 84.857 168.67C84.1555 165.085 86.4418 159.885 89.9233 157.135C95.3186 152.78 100.757 148.95 106.153 145.715ZM156.59 204.695C153.334 193.375 148.146 186.2 141.625 182.555C147.332 180.87 152.987 177.275 157.69 173.17C162.427 177.965 166.237 184.735 168.81 193.66C169.823 196.975 167.866 202.195 164.453 205.285C161.05 208.35 157.517 208.09 156.59 204.695ZM104.282 174.055C108.707 171.4 113.107 169.23 117.411 167.605C118.338 174.05 121.074 177.45 124.227 180.17C115.107 181.815 104.949 187.2 94.5738 195.48C91.1097 198.3 87.7409 197.645 87.074 194.04C86.4072 190.435 88.7022 185.26 92.1836 182.53C96.2106 179.315 100.255 176.49 104.282 174.055ZM95.0674 208.025C97.9253 205.545 100.757 203.41 103.546 201.63C111.929 196.29 119.87 194.115 126.582 195.15C135.511 196.535 142.188 203.38 145.86 214.43C147.012 217.625 145.184 222.88 141.798 226.085C138.403 229.285 134.801 229.175 133.77 225.86C130.843 217.07 125.82 212.33 119.758 211.4C113.704 210.465 106.577 213.08 98.1938 220.37C94.7643 223.41 91.2483 223.09 90.3736 219.635C89.4989 216.18 91.612 210.96 95.0674 208.025ZM107.192 257.205C113.488 253.57 118.589 244.755 118.589 237.525C118.589 230.295 113.488 227.37 107.192 231.005C100.896 234.64 95.7949 243.455 95.7949 250.685C95.7949 257.915 100.896 260.84 107.192 257.205Z" fill="white"/>
<path fill-rule="evenodd" clip-rule="evenodd" d="M168.091 118.925C169.598 121.395 170.438 124.7 170.438 128.72C170.438 142.14 161.05 158.34 149.393 165.07C145.02 167.595 140.975 168.42 137.607 167.765L168.091 118.925ZM149.939 151.545L159.223 136.645C160.019 136.995 160.643 137.835 160.643 138.785V147.365C160.66 149.645 159.708 151.185 157.698 152.345L149.939 156.825V151.545ZM144.899 159.735L148.9 153.355V157.425L144.899 159.735Z" fill="white"/>
<path d="M149.393 116.68C155.577 113.11 161.119 112.95 164.964 115.56L159.907 123.66L156.512 125.04L154.641 118.87C154.494 118.375 154.226 118.22 153.68 118.535L145.461 123.28C144.76 123.685 144.396 124.235 144.162 125.26L142.517 133.12C139.746 134.98 136.411 137.905 136.411 139.125C136.411 140.245 139.746 138.62 141.608 137.795C141.045 139.97 140.898 141.785 141.564 143.58L140.672 144.675L140.655 147.375C139.529 148.025 138.499 149.86 138.499 151.35V157.96L133.502 165.965C130.28 163.585 128.331 159.14 128.331 153.03C128.331 139.63 137.728 123.415 149.393 116.68Z" fill="white"/>
<path fill-rule="evenodd" clip-rule="evenodd" d="M155.594 129.65L155.62 130.535L154.044 133.065L154.035 132.35L151.333 133.91V135.77C151.333 136.57 151.636 136.535 151.957 136.4L146.648 144.895L146.657 142.09C146.691 141.26 146.224 140.98 145.513 141.39L144.457 142C143.496 142.555 143.037 141.93 143.037 141.07L143.019 137.92C143.132 137.495 143.452 136.82 143.773 136.555C147.808 134.795 151.723 132.285 155.594 129.65ZM148.856 135.34L145.288 137.4V139.26C145.288 139.9 145.678 140.085 146.076 139.855L147.973 138.76C148.389 138.52 148.856 137.73 148.856 137.2V135.34Z" fill="white"/>
</svg>
