<svg width="274" height="349" viewBox="0 0 274 349" fill="none" xmlns="http://www.w3.org/2000/svg">
<path fill-rule="evenodd" clip-rule="evenodd" d="M112.212 170.017L117.572 170.652L65.6107 140.652L60.25 140.017L112.212 170.017Z" fill="#8BC5E4"/>
<path fill-rule="evenodd" clip-rule="evenodd" d="M117.658 231.212L112.297 238.047L60.3359 208.047L65.6966 201.212L117.658 231.212Z" fill="#8BC5E4"/>
<path fill-rule="evenodd" clip-rule="evenodd" d="M181.476 213.037L214.229 233.507L162.268 203.507L129.515 183.037L181.476 213.037Z" fill="#8BC5E4"/>
<path fill-rule="evenodd" clip-rule="evenodd" d="M214.229 233.507L223.201 218.167L171.24 188.167L162.268 203.507L214.229 233.507Z" fill="#8BC5E4"/>
<path fill-rule="evenodd" clip-rule="evenodd" d="M223.202 218.167L190.951 198.017L138.989 168.017L171.24 188.167L223.202 218.167Z" fill="#8BC5E4"/>
<path fill-rule="evenodd" clip-rule="evenodd" d="M153.477 121.212L101.516 91.2124L153.477 121.212Z" fill="#8BC5E4"/>
<path fill-rule="evenodd" clip-rule="evenodd" d="M108.504 232.957L87.8756 259.227L35.9141 229.227L56.5428 202.957L108.504 232.957Z" fill="#8BC5E4"/>
<path fill-rule="evenodd" clip-rule="evenodd" d="M87.8756 259.227L91.6082 264.382L39.6466 234.382L35.9141 229.227L87.8756 259.227Z" fill="#8BC5E4"/>
<path fill-rule="evenodd" clip-rule="evenodd" d="M91.609 264.382L112.298 238.047L60.3368 208.047L39.6475 234.382L91.609 264.382Z" fill="#8BC5E4"/>
<path fill-rule="evenodd" clip-rule="evenodd" d="M112.297 238.047L60.3359 208.047L112.297 238.047Z" fill="#8BC5E4"/>
<path fill-rule="evenodd" clip-rule="evenodd" d="M108.504 232.957L113.865 226.132L61.9037 196.132L56.543 202.957L108.504 232.957Z" fill="#8BC5E4"/>
<path fill-rule="evenodd" clip-rule="evenodd" d="M109.362 209.882L103.092 213.502L51.1309 183.502L57.4009 179.882L109.362 209.882Z" fill="#8BC5E4"/>
<path fill-rule="evenodd" clip-rule="evenodd" d="M108.504 232.957L56.543 202.957L108.504 232.957Z" fill="#8BC5E4"/>
<path fill-rule="evenodd" clip-rule="evenodd" d="M103.092 204.992L80.7057 217.917L28.7441 187.917L51.1309 174.992L103.092 204.992Z" fill="#8BC5E4"/>
<path fill-rule="evenodd" clip-rule="evenodd" d="M80.7057 217.917V226.427L28.7441 196.427V187.917L80.7057 217.917Z" fill="#8BC5E4"/>
<path fill-rule="evenodd" clip-rule="evenodd" d="M80.7057 226.427L103.092 213.502L51.1309 183.502L28.7441 196.427L80.7057 226.427Z" fill="#8BC5E4"/>
<path fill-rule="evenodd" clip-rule="evenodd" d="M103.092 213.502L51.1309 183.502L103.092 213.502Z" fill="#8BC5E4"/>
<path fill-rule="evenodd" clip-rule="evenodd" d="M103.092 204.992L109.362 201.372L57.4009 171.372L51.1309 174.992L103.092 204.992Z" fill="#8BC5E4"/>
<path fill-rule="evenodd" clip-rule="evenodd" d="M113.805 180.107L108.444 179.472L56.4824 149.472L61.8431 150.107L113.805 180.107Z" fill="#8BC5E4"/>
<path fill-rule="evenodd" clip-rule="evenodd" d="M103.092 204.992L51.1309 174.992L103.092 204.992Z" fill="#8BC5E4"/>
<path fill-rule="evenodd" clip-rule="evenodd" d="M112.212 170.017L91.3404 167.527L39.3789 137.527L60.2501 140.017L112.212 170.017Z" fill="#8BC5E4"/>
<path fill-rule="evenodd" clip-rule="evenodd" d="M91.3405 167.527L87.5992 176.997L35.6377 146.997L39.3789 137.527L91.3405 167.527Z" fill="#8BC5E4"/>
<path fill-rule="evenodd" clip-rule="evenodd" d="M87.5992 176.997L108.444 179.472L56.4829 149.472L35.6377 146.997L87.5992 176.997Z" fill="#8BC5E4"/>
<path fill-rule="evenodd" clip-rule="evenodd" d="M108.444 179.472L56.4824 149.472L108.444 179.472Z" fill="#8BC5E4"/>
<path fill-rule="evenodd" clip-rule="evenodd" d="M113.805 180.107L118.378 180.657L66.4164 150.657L61.8438 150.107L113.805 180.107Z" fill="#8BC5E4"/>
<path fill-rule="evenodd" clip-rule="evenodd" d="M122.162 171.192L117.572 170.652L65.6104 140.652L70.2003 141.192L122.162 171.192Z" fill="#8BC5E4"/>
<path fill-rule="evenodd" clip-rule="evenodd" d="M113.805 180.107L61.8438 150.107L113.805 180.107Z" fill="#8BC5E4"/>
<path fill-rule="evenodd" clip-rule="evenodd" d="M122.162 171.192L127.115 171.782L75.1539 141.782L70.2002 141.192L122.162 171.192Z" fill="#8BC5E4"/>
<path fill-rule="evenodd" clip-rule="evenodd" d="M127.116 171.782L128.943 167.147L76.9816 137.147L75.1543 141.782L127.116 171.782Z" fill="#8BC5E4"/>
<path fill-rule="evenodd" clip-rule="evenodd" d="M128.943 167.147L136.166 177.817L84.2041 147.817L76.9814 137.147L128.943 167.147Z" fill="#8BC5E4"/>
<path fill-rule="evenodd" clip-rule="evenodd" d="M136.166 177.817L121.547 185.887L69.5859 155.887L84.2045 147.817L136.166 177.817Z" fill="#8BC5E4"/>
<path fill-rule="evenodd" clip-rule="evenodd" d="M121.547 185.887L123.375 181.252L71.4133 151.252L69.5859 155.887L121.547 185.887Z" fill="#8BC5E4"/>
<path fill-rule="evenodd" clip-rule="evenodd" d="M123.375 181.252L118.378 180.657L66.416 150.657L71.413 151.252L123.375 181.252Z" fill="#8BC5E4"/>
<path fill-rule="evenodd" clip-rule="evenodd" d="M114.679 198.302L122.37 193.862L70.4081 163.862L62.7178 168.302L114.679 198.302Z" fill="#8BC5E4"/>
<path fill-rule="evenodd" clip-rule="evenodd" d="M122.37 193.862V189.692L70.4082 159.692V163.862L122.37 193.862Z" fill="#8BC5E4"/>
<path fill-rule="evenodd" clip-rule="evenodd" d="M122.37 189.692L135.083 190.782L83.1215 160.782L70.4082 159.692L122.37 189.692Z" fill="#8BC5E4"/>
<path fill-rule="evenodd" clip-rule="evenodd" d="M135.083 190.782L122.37 206.542L70.4082 176.542L83.1215 160.782L135.083 190.782Z" fill="#8BC5E4"/>
<path fill-rule="evenodd" clip-rule="evenodd" d="M122.37 206.542V202.372L70.4082 172.372V176.542L122.37 206.542Z" fill="#8BC5E4"/>
<path fill-rule="evenodd" clip-rule="evenodd" d="M122.37 202.372L114.654 206.827L62.6924 176.827L70.4087 172.372L122.37 202.372Z" fill="#8BC5E4"/>
<path fill-rule="evenodd" clip-rule="evenodd" d="M118.456 220.282L123.652 213.672L71.6903 183.672L66.4941 190.282L118.456 220.282Z" fill="#8BC5E4"/>
<path fill-rule="evenodd" clip-rule="evenodd" d="M123.651 213.672L121.824 211.147L69.8623 181.147L71.6896 183.672L123.651 213.672Z" fill="#8BC5E4"/>
<path fill-rule="evenodd" clip-rule="evenodd" d="M121.824 211.147L136.434 202.342L84.4722 172.342L69.8623 181.147L121.824 211.147Z" fill="#8BC5E4"/>
<path fill-rule="evenodd" clip-rule="evenodd" d="M136.434 202.342L129.22 221.337L77.2588 191.337L84.4728 172.342L136.434 202.342Z" fill="#8BC5E4"/>
<path fill-rule="evenodd" clip-rule="evenodd" d="M129.22 221.337L127.393 218.822L75.4316 188.822L77.259 191.337L129.22 221.337Z" fill="#8BC5E4"/>
<path fill-rule="evenodd" clip-rule="evenodd" d="M127.393 218.822L122.249 225.362L70.2871 195.362L75.4313 188.822L127.393 218.822Z" fill="#8BC5E4"/>
<path fill-rule="evenodd" clip-rule="evenodd" d="M122.162 171.192L70.2002 141.192L122.162 171.192Z" fill="#8BC5E4"/>
<path fill-rule="evenodd" clip-rule="evenodd" d="M118.456 220.282L113.866 226.132L61.9043 196.132L66.4942 190.282L118.456 220.282Z" fill="#8BC5E4"/>
<path fill-rule="evenodd" clip-rule="evenodd" d="M117.659 231.212L122.249 225.362L70.2872 195.362L65.6973 201.212L117.659 231.212Z" fill="#8BC5E4"/>
<path fill-rule="evenodd" clip-rule="evenodd" d="M122.249 225.362L70.2871 195.362L122.249 225.362Z" fill="#8BC5E4"/>
<path fill-rule="evenodd" clip-rule="evenodd" d="M114.679 198.302L109.362 201.372L57.4004 171.372L62.7178 168.302L114.679 198.302Z" fill="#8BC5E4"/>
<path fill-rule="evenodd" clip-rule="evenodd" d="M109.362 209.882L114.653 206.827L62.6918 176.827L57.4004 179.882L109.362 209.882Z" fill="#8BC5E4"/>
<path fill-rule="evenodd" clip-rule="evenodd" d="M114.654 206.827L62.6924 176.827L114.654 206.827Z" fill="#8BC5E4"/>
<path fill-rule="evenodd" clip-rule="evenodd" d="M138.166 153.702L169.923 163.507L117.961 133.507L86.2041 123.702L138.166 153.702Z" fill="#8BC5E4"/>
<path fill-rule="evenodd" clip-rule="evenodd" d="M169.923 163.507L190.812 151.447L138.85 121.447L117.962 133.507L169.923 163.507Z" fill="#8BC5E4"/>
<path fill-rule="evenodd" clip-rule="evenodd" d="M190.812 151.447V163.927L138.851 133.927V121.447L190.812 151.447Z" fill="#8BC5E4"/>
<path fill-rule="evenodd" clip-rule="evenodd" d="M190.812 163.927L169.923 175.987L117.962 145.987L138.85 133.927L190.812 163.927Z" fill="#8BC5E4"/>
<path fill-rule="evenodd" clip-rule="evenodd" d="M169.923 175.987L138.166 224.302L86.2041 194.302L117.961 145.987L169.923 175.987Z" fill="#8BC5E4"/>
<path fill-rule="evenodd" clip-rule="evenodd" d="M138.166 224.302V153.702L86.2041 123.702V194.302L138.166 224.302Z" fill="#8BC5E4"/>
<path fill-rule="evenodd" clip-rule="evenodd" d="M138.166 153.702L86.2041 123.702L138.166 153.702Z" fill="#8BC5E4"/>
<path fill-rule="evenodd" clip-rule="evenodd" d="M232.494 125.082V129.762L180.532 99.7624V95.0824L232.494 125.082Z" fill="#8BC5E4"/>
<path fill-rule="evenodd" clip-rule="evenodd" d="M232.494 129.762L207.535 144.172L155.573 114.172L180.532 99.7625L232.494 129.762Z" fill="#8BC5E4"/>
<path fill-rule="evenodd" clip-rule="evenodd" d="M207.535 144.172V153.732L155.573 123.732V114.172L207.535 144.172Z" fill="#8BC5E4"/>
<path fill-rule="evenodd" clip-rule="evenodd" d="M207.535 153.732L232.494 139.322L180.532 109.322L155.573 123.732L207.535 153.732Z" fill="#8BC5E4"/>
<path fill-rule="evenodd" clip-rule="evenodd" d="M232.494 139.322V144.002L180.532 114.002V109.322L232.494 139.322Z" fill="#8BC5E4"/>
<path fill-rule="evenodd" clip-rule="evenodd" d="M232.494 144.002L245.207 127.202L193.245 97.2024L180.532 114.002L232.494 144.002Z" fill="#8BC5E4"/>
<path fill-rule="evenodd" clip-rule="evenodd" d="M245.207 127.202L232.494 125.082L180.532 95.0824L193.245 97.2024L245.207 127.202Z" fill="#8BC5E4"/>
<path fill-rule="evenodd" clip-rule="evenodd" d="M232.494 125.082L180.532 95.0824L232.494 125.082Z" fill="#8BC5E4"/>
<path fill-rule="evenodd" clip-rule="evenodd" d="M51.9615 165.572V341.142L0 311.142V135.572L51.9615 165.572Z" fill="#8BC5E4"/>
<path fill-rule="evenodd" clip-rule="evenodd" d="M62.4234 347.322L263.194 231.407L211.233 201.407L10.4619 317.322L62.4234 347.322Z" fill="#8BC5E4"/>
<path fill-rule="evenodd" clip-rule="evenodd" d="M273.665 213.142V37.5724L221.703 7.57239V183.142L273.665 213.142Z" fill="#8BC5E4"/>
<path fill-rule="evenodd" clip-rule="evenodd" d="M263.194 31.4075L62.4234 147.322L10.4619 117.322L211.233 1.40747L263.194 31.4075Z" fill="#8BC5E4"/>
<path fill-rule="evenodd" clip-rule="evenodd" d="M62.4234 147.322L10.4619 117.322L62.4234 147.322Z" fill="#8BC5E4"/>
<path fill-rule="evenodd" clip-rule="evenodd" d="M62.4234 152.842L263.194 36.9274L211.233 6.92737L10.4619 122.842L62.4234 152.842Z" fill="#8BC5E4"/>
<path fill-rule="evenodd" clip-rule="evenodd" d="M268.936 40.3024V215.872L216.975 185.872V10.3024L268.936 40.3024Z" fill="#8BC5E4"/>
<path fill-rule="evenodd" clip-rule="evenodd" d="M263.194 225.887L62.4234 341.802L10.4619 311.802L211.233 195.887L263.194 225.887Z" fill="#8BC5E4"/>
<path fill-rule="evenodd" clip-rule="evenodd" d="M56.69 338.412V162.842L4.72852 132.842V308.412L56.69 338.412Z" fill="#8BC5E4"/>
<path fill-rule="evenodd" clip-rule="evenodd" d="M62.4234 152.842L10.4619 122.842L62.4234 152.842Z" fill="#8BC5E4"/>
<path fill-rule="evenodd" clip-rule="evenodd" d="M153.478 121.212C136.452 131.042 121.365 149.632 112.212 170.017L60.25 140.017C69.4039 119.632 84.4901 101.042 101.516 91.2124L153.478 121.212Z" fill="#8BC5E4"/>
<path fill-rule="evenodd" clip-rule="evenodd" d="M117.572 170.652C125.609 153.032 138.677 137.057 153.477 128.512L101.516 98.5125C86.7154 107.057 73.6471 123.032 65.6104 140.652L117.572 170.652Z" fill="#8BC5E4"/>
<path fill-rule="evenodd" clip-rule="evenodd" d="M153.477 128.512C165.229 121.728 175.897 120.886 183.814 125.005L131.853 95.0049C123.935 90.8859 113.267 91.7276 101.516 98.5124L153.477 128.512Z" fill="#8BC5E4"/>
<path fill-rule="evenodd" clip-rule="evenodd" d="M183.814 125.005C192.391 129.467 197.74 139.751 197.74 154.607L145.778 124.607C145.778 109.751 140.43 99.4671 131.853 95.0049L183.814 125.005Z" fill="#8BC5E4"/>
<path fill-rule="evenodd" clip-rule="evenodd" d="M197.74 154.607C197.74 183.177 177.96 217.667 153.477 231.802L101.516 201.802C125.998 187.667 145.778 153.177 145.778 124.607L197.74 154.607Z" fill="#8BC5E4"/>
<path fill-rule="evenodd" clip-rule="evenodd" d="M153.478 231.802C141.679 238.614 130.978 239.436 123.054 235.263L71.0928 205.263C79.0161 209.436 89.7174 208.614 101.516 201.802L153.478 231.802Z" fill="#8BC5E4"/>
<path fill-rule="evenodd" clip-rule="evenodd" d="M123.054 235.263C121.073 234.22 119.266 232.864 117.659 231.212L65.6973 201.212C67.3046 202.864 69.1118 204.22 71.0927 205.263L123.054 235.263Z" fill="#8BC5E4"/>
<path fill-rule="evenodd" clip-rule="evenodd" d="M112.297 238.047C113.763 239.604 115.38 240.941 117.131 242.048L65.1694 212.048C63.4185 210.941 61.8019 209.604 60.3359 208.047L112.297 238.047Z" fill="#8BC5E4"/>
<path fill-rule="evenodd" clip-rule="evenodd" d="M117.131 242.047C126.324 247.858 139.219 247.334 153.478 239.102L101.516 209.102C87.2577 217.334 74.3622 217.858 65.1699 212.047L117.131 242.047Z" fill="#8BC5E4"/>
<path fill-rule="evenodd" clip-rule="evenodd" d="M153.477 239.102C163.826 233.127 173.456 223.917 181.476 213.037L129.514 183.037C121.495 193.917 111.865 203.127 101.516 209.102L153.477 239.102Z" fill="#8BC5E4"/>
<path fill-rule="evenodd" clip-rule="evenodd" d="M190.951 198.017C199.057 182.877 203.993 166.177 203.993 150.997L152.032 120.997C152.032 136.177 147.095 152.877 138.989 168.017L190.951 198.017Z" fill="#8BC5E4"/>
<path fill-rule="evenodd" clip-rule="evenodd" d="M203.993 150.997C203.993 135.393 198.773 124.2 190.263 118.558L138.302 88.5581C146.811 94.2 152.031 105.393 152.031 120.997L203.993 150.997Z" fill="#8BC5E4"/>
<path fill-rule="evenodd" clip-rule="evenodd" d="M190.263 118.558C181.044 112.446 167.964 112.848 153.477 121.212L101.516 91.2124C116.003 82.8482 129.083 82.4459 138.301 88.558L190.263 118.558Z" fill="#8BC5E4"/>
<path fill-rule="evenodd" clip-rule="evenodd" d="M112.298 238.047C110.886 236.552 109.613 234.857 108.504 232.957L56.543 202.957C57.6515 204.857 58.9245 206.552 60.3362 208.047L112.298 238.047Z" fill="#8BC5E4"/>
<path fill-rule="evenodd" clip-rule="evenodd" d="M113.865 226.132C111.406 221.802 109.83 216.352 109.362 209.882L57.4004 179.882C57.868 186.352 59.4442 191.802 61.9037 196.132L113.865 226.132Z" fill="#8BC5E4"/>
<path fill-rule="evenodd" clip-rule="evenodd" d="M103.092 213.502C103.586 221.307 105.483 227.842 108.505 232.957L56.5435 202.957C53.5211 197.842 51.6245 191.307 51.1309 183.502L103.092 213.502Z" fill="#8BC5E4"/>
<path fill-rule="evenodd" clip-rule="evenodd" d="M103.092 213.502C103.006 212.152 102.963 210.757 102.963 209.327L51.001 179.327C51.001 180.757 51.0443 182.152 51.1309 183.502L103.092 213.502Z" fill="#8BC5E4"/>
<path fill-rule="evenodd" clip-rule="evenodd" d="M102.963 209.327C102.963 207.897 103.006 206.452 103.092 204.992L51.1309 174.992C51.0443 176.452 51.001 177.897 51.001 179.327L102.963 209.327Z" fill="#8BC5E4"/>
<path fill-rule="evenodd" clip-rule="evenodd" d="M109.362 201.372C109.83 194.432 111.371 187.232 113.805 180.107L61.8431 150.107C59.4096 157.232 57.868 164.432 57.4004 171.372L109.362 201.372Z" fill="#8BC5E4"/>
<path fill-rule="evenodd" clip-rule="evenodd" d="M108.444 179.472C105.457 188.017 103.586 196.687 103.092 204.992L51.1309 174.992C51.6245 166.687 53.4951 158.017 56.4829 149.472L108.444 179.472Z" fill="#8BC5E4"/>
<path fill-rule="evenodd" clip-rule="evenodd" d="M108.444 179.472C109.552 176.292 110.808 173.137 112.211 170.017L60.2496 140.017C58.8467 143.137 57.5909 146.292 56.4824 149.472L108.444 179.472Z" fill="#8BC5E4"/>
<path fill-rule="evenodd" clip-rule="evenodd" d="M118.378 180.657C119.443 177.482 120.707 174.322 122.162 171.192L70.2005 141.192C68.7456 144.322 67.4812 147.482 66.416 150.657L118.378 180.657Z" fill="#8BC5E4"/>
<path fill-rule="evenodd" clip-rule="evenodd" d="M117.572 170.652C116.152 173.762 114.888 176.932 113.805 180.107L61.8438 150.107C62.9263 146.932 64.1907 143.762 65.611 140.652L117.572 170.652Z" fill="#8BC5E4"/>
<path fill-rule="evenodd" clip-rule="evenodd" d="M118.377 180.657C116.368 186.687 115.112 192.672 114.679 198.302L62.7178 168.302C63.1508 162.672 64.4065 156.687 66.4157 150.657L118.377 180.657Z" fill="#8BC5E4"/>
<path fill-rule="evenodd" clip-rule="evenodd" d="M114.654 206.827C115.104 212.007 116.395 216.572 118.456 220.282L66.4942 190.282C64.4331 186.572 63.1427 182.007 62.6924 176.827L114.654 206.827Z" fill="#8BC5E4"/>
<path fill-rule="evenodd" clip-rule="evenodd" d="M122.249 225.362C123.425 226.526 124.709 227.507 126.088 228.305L74.126 198.305C72.7479 197.507 71.4635 196.526 70.2871 195.362L122.249 225.362Z" fill="#8BC5E4"/>
<path fill-rule="evenodd" clip-rule="evenodd" d="M126.088 228.305C133.322 232.491 143.14 231.624 153.478 225.672L101.516 195.672C91.1787 201.624 81.3609 202.491 74.126 198.305L126.088 228.305Z" fill="#8BC5E4"/>
<path fill-rule="evenodd" clip-rule="evenodd" d="M153.477 225.672C163.826 219.697 173.742 209.172 181.06 196.417L129.099 166.417C121.781 179.172 111.865 189.697 101.516 195.672L153.477 225.672Z" fill="#8BC5E4"/>
<path fill-rule="evenodd" clip-rule="evenodd" d="M181.06 196.417C188.378 183.652 192.483 169.712 192.483 157.642L140.521 127.642C140.521 139.712 136.417 153.652 129.099 166.417L181.06 196.417Z" fill="#8BC5E4"/>
<path fill-rule="evenodd" clip-rule="evenodd" d="M192.483 157.642C192.483 145.575 188.461 136.93 181.894 132.577L129.933 102.577C136.499 106.93 140.522 115.575 140.522 127.642L192.483 157.642Z" fill="#8BC5E4"/>
<path fill-rule="evenodd" clip-rule="evenodd" d="M181.894 132.577C174.78 127.861 164.681 128.184 153.477 134.652L101.516 104.652C112.72 98.1836 122.819 97.861 129.932 102.577L181.894 132.577Z" fill="#8BC5E4"/>
<path fill-rule="evenodd" clip-rule="evenodd" d="M153.477 134.652C141.119 141.807 129.506 155.362 122.162 171.192L70.2002 141.192C77.5441 125.362 89.1575 111.807 101.516 104.652L153.477 134.652Z" fill="#8BC5E4"/>
<path fill-rule="evenodd" clip-rule="evenodd" d="M122.249 225.362C120.794 223.922 119.521 222.227 118.456 220.282L66.4941 190.282C67.5594 192.227 68.8324 193.922 70.2873 195.362L122.249 225.362Z" fill="#8BC5E4"/>
<path fill-rule="evenodd" clip-rule="evenodd" d="M113.866 226.132C114.957 228.052 116.23 229.747 117.659 231.212L65.6975 201.212C64.2685 199.747 62.9955 198.052 61.9043 196.132L113.866 226.132Z" fill="#8BC5E4"/>
<path fill-rule="evenodd" clip-rule="evenodd" d="M114.653 206.827C114.541 205.482 114.471 204.102 114.471 202.682L62.5098 172.682C62.5098 174.102 62.579 175.482 62.6916 176.827L114.653 206.827Z" fill="#8BC5E4"/>
<path fill-rule="evenodd" clip-rule="evenodd" d="M114.471 202.682C114.48 201.257 114.549 199.797 114.679 198.302L62.7176 168.302C62.5877 169.797 62.5184 171.257 62.5098 172.682L114.471 202.682Z" fill="#8BC5E4"/>
<path fill-rule="evenodd" clip-rule="evenodd" d="M109.362 201.372C109.266 202.837 109.214 204.287 109.214 205.717L57.2529 175.717C57.2529 174.287 57.3049 172.837 57.4002 171.372L109.362 201.372Z" fill="#8BC5E4"/>
<path fill-rule="evenodd" clip-rule="evenodd" d="M109.214 205.717C109.214 207.147 109.266 208.537 109.362 209.882L57.4002 179.882C57.3049 178.537 57.2529 177.147 57.2529 175.717L109.214 205.717Z" fill="#8BC5E4"/>
<path fill-rule="evenodd" clip-rule="evenodd" d="M62.4231 147.322C56.6727 150.642 51.9615 158.852 51.9615 165.572L0 135.572C0 128.852 4.71118 120.642 10.4616 117.322L62.4231 147.322Z" fill="#8BC5E4"/>
<path fill-rule="evenodd" clip-rule="evenodd" d="M51.9615 341.142C51.9615 344.368 53.047 346.686 54.8118 347.857L2.85028 317.857C1.08546 316.686 0 314.368 0 311.142L51.9615 341.142Z" fill="#8BC5E4"/>
<path fill-rule="evenodd" clip-rule="evenodd" d="M54.8121 347.857C56.724 349.126 59.4332 349.049 62.4234 347.322L10.4619 317.322C7.47168 319.049 4.76248 319.126 2.85059 317.857L54.8121 347.857Z" fill="#8BC5E4"/>
<path fill-rule="evenodd" clip-rule="evenodd" d="M263.194 231.407C268.953 228.082 273.664 219.862 273.664 213.142L221.703 183.142C221.703 189.862 216.991 198.082 211.232 201.407L263.194 231.407Z" fill="#8BC5E4"/>
<path fill-rule="evenodd" clip-rule="evenodd" d="M273.664 37.5724C273.664 34.3468 272.579 32.0313 270.813 30.863L218.852 0.863037C220.617 2.03126 221.703 4.34678 221.703 7.57238L273.664 37.5724Z" fill="#8BC5E4"/>
<path fill-rule="evenodd" clip-rule="evenodd" d="M270.813 30.8631C268.9 29.5975 266.189 29.6784 263.194 31.4074L211.232 1.40742C214.227 -0.321584 216.939 -0.402495 218.851 0.863077L270.813 30.8631Z" fill="#8BC5E4"/>
<path fill-rule="evenodd" clip-rule="evenodd" d="M263.194 36.9274C264.74 36.0346 266.125 35.9102 267.147 36.4381L215.186 6.43807C214.164 5.91022 212.779 6.03464 211.232 6.92744L263.194 36.9274Z" fill="#8BC5E4"/>
<path fill-rule="evenodd" clip-rule="evenodd" d="M267.147 36.4381C268.254 37.0099 268.936 38.3473 268.936 40.3025L216.974 10.3025C216.974 8.34728 216.293 7.00995 215.186 6.43811L267.147 36.4381Z" fill="#8BC5E4"/>
<path fill-rule="evenodd" clip-rule="evenodd" d="M268.936 215.872C268.936 219.632 266.416 224.027 263.194 225.887L211.232 195.887C214.454 194.027 216.974 189.632 216.974 185.872L268.936 215.872Z" fill="#8BC5E4"/>
<path fill-rule="evenodd" clip-rule="evenodd" d="M62.4238 341.802C60.8816 342.693 59.499 342.814 58.4781 342.283L6.5166 312.283C7.53748 312.814 8.92007 312.693 10.4623 311.802L62.4238 341.802Z" fill="#8BC5E4"/>
<path fill-rule="evenodd" clip-rule="evenodd" d="M58.4774 342.283C57.3715 341.708 56.69 340.368 56.69 338.412L4.72852 308.412C4.72852 310.368 5.40996 311.708 6.51591 312.283L58.4774 342.283Z" fill="#8BC5E4"/>
<path fill-rule="evenodd" clip-rule="evenodd" d="M56.69 162.842C56.69 159.082 59.2102 154.697 62.4231 152.842L10.4616 122.842C7.24865 124.697 4.72852 129.082 4.72852 132.842L56.69 162.842Z" fill="#8BC5E4"/>
<path d="M153.477 121.212C136.451 131.042 121.365 149.632 112.211 170.017L117.572 170.652C125.609 153.032 138.677 137.057 153.477 128.512C177.96 114.377 197.74 126.037 197.74 154.607C197.74 183.177 177.96 217.667 153.477 231.802C138.729 240.317 125.695 239.472 117.659 231.212L112.298 238.047C121.46 247.777 136.503 248.902 153.477 239.102C163.826 233.127 173.457 223.917 181.476 213.037L214.229 233.507L223.201 218.167L190.95 198.017C199.056 182.877 203.993 166.177 203.993 150.997C203.993 118.487 181.337 105.127 153.477 121.212ZM112.298 238.047C110.886 236.552 109.613 234.857 108.505 232.957L87.876 259.227L91.6086 264.382L112.298 238.047ZM108.505 232.957L113.865 226.132C111.406 221.802 109.83 216.352 109.362 209.882L103.092 213.502C103.586 221.307 105.482 227.842 108.505 232.957ZM103.092 213.502C103.005 212.152 102.962 210.757 102.962 209.327C102.962 207.897 103.005 206.452 103.092 204.992L80.7053 217.917V226.427L103.092 213.502ZM103.092 204.992L109.362 201.372C109.83 194.432 111.371 187.232 113.805 180.107L108.444 179.472C105.456 188.017 103.586 196.687 103.092 204.992ZM108.444 179.472C109.553 176.292 110.808 173.137 112.211 170.017L91.3401 167.527L87.5989 176.997L108.444 179.472ZM113.805 180.107L118.377 180.657C119.443 177.482 120.707 174.322 122.162 171.192L117.572 170.652C116.152 173.762 114.887 176.932 113.805 180.107ZM122.162 171.192L127.116 171.782L128.943 167.147L136.166 177.817L121.547 185.887L123.374 181.252L118.377 180.657C116.368 186.687 115.112 192.672 114.679 198.302L122.37 193.862V189.692L135.083 190.782L122.37 206.542V202.372L114.653 206.827C115.104 212.007 116.394 216.572 118.455 220.282L123.651 213.672L121.824 211.147L136.434 202.342L129.22 221.337L127.393 218.822L122.249 225.362C129.601 232.637 141.171 232.757 153.477 225.672C163.826 219.697 173.742 209.172 181.06 196.417C188.378 183.652 192.483 169.712 192.483 157.642C192.483 132.502 175.024 122.212 153.477 134.652C141.119 141.807 129.506 155.362 122.162 171.192ZM122.249 225.362C120.794 223.922 119.521 222.227 118.455 220.282L113.865 226.132C114.957 228.052 116.23 229.747 117.659 231.212L122.249 225.362ZM114.653 206.827C114.541 205.482 114.472 204.102 114.472 202.682C114.48 201.257 114.55 199.797 114.679 198.302L109.362 201.372C109.267 202.837 109.215 204.287 109.215 205.717C109.215 207.147 109.267 208.537 109.362 209.882L114.653 206.827ZM138.166 153.702L169.923 163.507L190.812 151.447V163.927L169.923 175.987L138.166 224.302V153.702ZM232.494 125.082V129.762L207.535 144.172V153.732L232.494 139.322V144.002L245.207 127.202L232.494 125.082ZM62.4235 147.322C56.6731 150.642 51.9619 158.852 51.9619 165.572V341.142C51.9619 347.862 56.6731 350.642 62.4235 347.322L263.194 231.407C268.953 228.082 273.664 219.862 273.664 213.142V37.5724C273.664 30.8524 268.953 28.0824 263.194 31.4074L62.4235 147.322ZM62.4235 152.842L263.194 36.9274C266.416 35.0674 268.936 36.5424 268.936 40.3024V215.872C268.936 219.632 266.416 224.027 263.194 225.887L62.4235 341.802C59.2105 343.657 56.6904 342.172 56.6904 338.412V162.842C56.6904 159.082 59.2105 154.697 62.4235 152.842Z" fill="#8BC5E4"/>
<path fill-rule="evenodd" clip-rule="evenodd" d="M62.4235 152.842L263.194 36.9274C266.416 35.0674 268.936 36.5424 268.936 40.3024V215.872C268.936 219.632 266.416 224.027 263.194 225.887L62.4235 341.802C59.2105 343.657 56.6904 342.172 56.6904 338.412V162.842C56.6904 159.082 59.2105 154.697 62.4235 152.842ZM112.211 170.017C121.365 149.632 136.451 131.042 153.477 121.212C181.337 105.127 203.993 118.487 203.993 150.997C203.993 166.177 199.056 182.877 190.95 198.017L223.201 218.167L214.229 233.507L181.476 213.037C173.457 223.917 163.826 233.127 153.477 239.102C136.503 248.902 121.46 247.777 112.298 238.047L91.6086 264.382L87.876 259.227L108.505 232.957C105.482 227.842 103.586 221.307 103.092 213.502L80.7053 226.427V217.917L103.092 204.992C103.586 196.687 105.456 188.017 108.444 179.472L87.5989 176.997L91.3401 167.527L112.211 170.017ZM232.494 129.762V125.082L245.207 127.202L232.494 144.002V139.322L207.535 153.732V144.172L232.494 129.762Z" fill="white"/>
<path d="M153.477 128.512C138.677 137.057 125.609 153.032 117.572 170.652L122.162 171.192C129.506 155.362 141.119 141.807 153.477 134.652C175.024 122.212 192.483 132.502 192.483 157.642C192.483 169.712 188.378 183.652 181.06 196.417C173.742 209.172 163.826 219.697 153.477 225.672C141.171 232.757 129.601 232.637 122.249 225.362L117.659 231.212C125.695 239.472 138.729 240.317 153.477 231.802C177.96 217.667 197.74 183.177 197.74 154.607C197.74 126.037 177.96 114.377 153.477 128.512Z" fill="white"/>
<path d="M138.166 153.702L169.923 163.507L190.812 151.447V163.927L169.923 175.987L138.166 224.302V153.702Z" fill="white"/>
<path d="M117.572 170.652L112.211 170.017C110.808 173.137 109.553 176.292 108.444 179.472L113.805 180.107C114.887 176.932 116.152 173.762 117.572 170.652Z" fill="white"/>
<path d="M122.162 171.192C120.707 174.322 119.443 177.482 118.377 180.657L123.374 181.252L121.547 185.887L136.166 177.817L128.943 167.147L127.116 171.782L122.162 171.192Z" fill="white"/>
<path d="M103.092 213.502L109.362 209.882C109.267 208.537 109.215 207.147 109.215 205.717C109.215 204.287 109.267 202.837 109.362 201.372L103.092 204.992C103.005 206.452 102.962 207.897 102.962 209.327C102.962 210.757 103.005 212.152 103.092 213.502Z" fill="white"/>
<path d="M122.37 193.862L114.679 198.302C114.55 199.797 114.48 201.257 114.472 202.682C114.472 204.102 114.541 205.482 114.653 206.827L122.37 202.372V206.542L135.083 190.782L122.37 189.692V193.862Z" fill="white"/>
<path d="M112.298 238.047L117.659 231.212C116.23 229.747 114.957 228.052 113.865 226.132L108.505 232.957C109.613 234.857 110.886 236.552 112.298 238.047Z" fill="white"/>
<path d="M123.651 213.672L118.455 220.282C119.521 222.227 120.794 223.922 122.249 225.362L127.393 218.822L129.22 221.337L136.434 202.342L121.824 211.147L123.651 213.672Z" fill="white"/>
<path d="M113.805 180.107C111.371 187.232 109.83 194.432 109.362 201.372L114.679 198.302C115.112 192.672 116.368 186.687 118.377 180.657L113.805 180.107Z" fill="white"/>
<path d="M109.362 209.882C109.83 216.352 111.406 221.802 113.865 226.132L118.455 220.282C116.394 216.572 115.104 212.007 114.653 206.827L109.362 209.882Z" fill="white"/>
</svg>
