<svg width="274" height="349" viewBox="0 0 274 349" fill="none" xmlns="http://www.w3.org/2000/svg">
<path fill-rule="evenodd" clip-rule="evenodd" d="M60.249 111.589L65.6097 118.414L117.571 88.4142L112.211 81.5892L60.249 111.589Z" fill="#8BC5E4"/>
<path fill-rule="evenodd" clip-rule="evenodd" d="M65.6966 179.074L60.3359 179.719L112.297 149.719L117.658 149.074L65.6966 179.074Z" fill="#8BC5E4"/>
<path fill-rule="evenodd" clip-rule="evenodd" d="M129.514 234.589L162.267 292.879L214.228 262.879L181.475 204.589L129.514 234.589Z" fill="#8BC5E4"/>
<path fill-rule="evenodd" clip-rule="evenodd" d="M162.268 292.879L171.24 287.899L223.201 257.899L214.229 262.879L162.268 292.879Z" fill="#8BC5E4"/>
<path fill-rule="evenodd" clip-rule="evenodd" d="M171.239 287.899L138.988 230.509L190.95 200.509L223.201 257.899L171.239 287.899Z" fill="#8BC5E4"/>
<path fill-rule="evenodd" clip-rule="evenodd" d="M101.516 110.434L153.477 80.4342L101.516 110.434Z" fill="#8BC5E4"/>
<path fill-rule="evenodd" clip-rule="evenodd" d="M56.5428 170.249L35.9141 172.699L87.8756 142.699L108.504 140.249L56.5428 170.249Z" fill="#8BC5E4"/>
<path fill-rule="evenodd" clip-rule="evenodd" d="M35.9141 172.699L39.6466 182.164L91.6082 152.164L87.8756 142.699L35.9141 172.699Z" fill="#8BC5E4"/>
<path fill-rule="evenodd" clip-rule="evenodd" d="M39.6465 182.164L60.3358 179.719L112.297 149.719L91.608 152.164L39.6465 182.164Z" fill="#8BC5E4"/>
<path fill-rule="evenodd" clip-rule="evenodd" d="M60.3359 179.719L112.297 149.719L60.3359 179.719Z" fill="#8BC5E4"/>
<path fill-rule="evenodd" clip-rule="evenodd" d="M56.543 170.249L61.9037 169.614L113.865 139.614L108.504 140.249L56.543 170.249Z" fill="#8BC5E4"/>
<path fill-rule="evenodd" clip-rule="evenodd" d="M57.3999 148.164L51.1299 144.544L103.091 114.544L109.361 118.164L57.3999 148.164Z" fill="#8BC5E4"/>
<path fill-rule="evenodd" clip-rule="evenodd" d="M56.543 170.249L108.504 140.249L56.543 170.249Z" fill="#8BC5E4"/>
<path fill-rule="evenodd" clip-rule="evenodd" d="M51.1299 136.034L28.7432 123.109L80.7047 93.1093L103.091 106.034L51.1299 136.034Z" fill="#8BC5E4"/>
<path fill-rule="evenodd" clip-rule="evenodd" d="M28.7432 123.109V131.619L80.7047 101.619V93.1093L28.7432 123.109Z" fill="#8BC5E4"/>
<path fill-rule="evenodd" clip-rule="evenodd" d="M28.7432 131.619L51.1299 144.544L103.091 114.544L80.7047 101.619L28.7432 131.619Z" fill="#8BC5E4"/>
<path fill-rule="evenodd" clip-rule="evenodd" d="M51.1299 144.544L103.091 114.544L51.1299 144.544Z" fill="#8BC5E4"/>
<path fill-rule="evenodd" clip-rule="evenodd" d="M51.1299 136.034L57.3999 139.654L109.361 109.654L103.091 106.034L51.1299 136.034Z" fill="#8BC5E4"/>
<path fill-rule="evenodd" clip-rule="evenodd" d="M61.8431 123.519L56.4824 116.694L108.444 86.6942L113.805 93.5192L61.8431 123.519Z" fill="#8BC5E4"/>
<path fill-rule="evenodd" clip-rule="evenodd" d="M51.1299 136.034L103.091 106.034L51.1299 136.034Z" fill="#8BC5E4"/>
<path fill-rule="evenodd" clip-rule="evenodd" d="M60.2491 111.589L39.3779 84.9993L91.3395 54.9993L112.211 81.5893L60.2491 111.589Z" fill="#8BC5E4"/>
<path fill-rule="evenodd" clip-rule="evenodd" d="M39.3779 84.9993L35.6367 90.1493L87.5982 60.1493L91.3395 54.9993L39.3779 84.9993Z" fill="#8BC5E4"/>
<path fill-rule="evenodd" clip-rule="evenodd" d="M35.6367 90.1493L56.482 116.694L108.443 86.6943L87.5982 60.1493L35.6367 90.1493Z" fill="#8BC5E4"/>
<path fill-rule="evenodd" clip-rule="evenodd" d="M56.4824 116.694L108.444 86.6942L56.4824 116.694Z" fill="#8BC5E4"/>
<path fill-rule="evenodd" clip-rule="evenodd" d="M61.8428 123.519L66.4154 129.349L118.377 99.3493L113.804 93.5193L61.8428 123.519Z" fill="#8BC5E4"/>
<path fill-rule="evenodd" clip-rule="evenodd" d="M70.2003 124.254L65.6104 118.414L117.572 88.4143L122.162 94.2543L70.2003 124.254Z" fill="#8BC5E4"/>
<path fill-rule="evenodd" clip-rule="evenodd" d="M61.8428 123.519L113.804 93.5193L61.8428 123.519Z" fill="#8BC5E4"/>
<path fill-rule="evenodd" clip-rule="evenodd" d="M70.2002 124.254L75.1539 130.564L127.115 100.564L122.162 94.2543L70.2002 124.254Z" fill="#8BC5E4"/>
<path fill-rule="evenodd" clip-rule="evenodd" d="M75.1533 130.564L76.9806 128.039L128.942 98.0393L127.115 100.564L75.1533 130.564Z" fill="#8BC5E4"/>
<path fill-rule="evenodd" clip-rule="evenodd" d="M76.9814 128.039L84.2041 147.049L136.166 117.049L128.943 98.0393L76.9814 128.039Z" fill="#8BC5E4"/>
<path fill-rule="evenodd" clip-rule="evenodd" d="M84.2035 147.049L69.585 138.239L121.546 108.239L136.165 117.049L84.2035 147.049Z" fill="#8BC5E4"/>
<path fill-rule="evenodd" clip-rule="evenodd" d="M69.585 138.239L71.4123 135.714L123.374 105.714L121.546 108.239L69.585 138.239Z" fill="#8BC5E4"/>
<path fill-rule="evenodd" clip-rule="evenodd" d="M71.412 135.714L66.415 129.349L118.377 99.3492L123.374 105.714L71.412 135.714Z" fill="#8BC5E4"/>
<path fill-rule="evenodd" clip-rule="evenodd" d="M62.7178 142.724L70.4081 147.164L122.37 117.164L114.679 112.724L62.7178 142.724Z" fill="#8BC5E4"/>
<path fill-rule="evenodd" clip-rule="evenodd" d="M70.4082 147.164V142.994L122.37 112.994V117.164L70.4082 147.164Z" fill="#8BC5E4"/>
<path fill-rule="evenodd" clip-rule="evenodd" d="M70.4082 142.994L83.1215 158.764L135.083 128.764L122.37 112.994L70.4082 142.994Z" fill="#8BC5E4"/>
<path fill-rule="evenodd" clip-rule="evenodd" d="M83.1215 158.764L70.4082 159.844L122.37 129.844L135.083 128.764L83.1215 158.764Z" fill="#8BC5E4"/>
<path fill-rule="evenodd" clip-rule="evenodd" d="M70.4082 159.844V155.674L122.37 125.674V129.844L70.4082 159.844Z" fill="#8BC5E4"/>
<path fill-rule="evenodd" clip-rule="evenodd" d="M70.4077 155.674L62.6914 151.219L114.653 121.219L122.369 125.674L70.4077 155.674Z" fill="#8BC5E4"/>
<path fill-rule="evenodd" clip-rule="evenodd" d="M66.4932 169.064L71.6893 168.454L123.651 138.454L118.455 139.064L66.4932 169.064Z" fill="#8BC5E4"/>
<path fill-rule="evenodd" clip-rule="evenodd" d="M71.6896 168.454L69.8623 163.819L121.824 133.819L123.651 138.454L71.6896 168.454Z" fill="#8BC5E4"/>
<path fill-rule="evenodd" clip-rule="evenodd" d="M69.8623 163.819L84.4722 171.884L136.434 141.884L121.824 133.819L69.8623 163.819Z" fill="#8BC5E4"/>
<path fill-rule="evenodd" clip-rule="evenodd" d="M84.4718 171.884L77.2578 182.549L129.219 152.549L136.433 141.884L84.4718 171.884Z" fill="#8BC5E4"/>
<path fill-rule="evenodd" clip-rule="evenodd" d="M77.258 182.549L75.4307 177.924L127.392 147.924L129.22 152.549L77.258 182.549Z" fill="#8BC5E4"/>
<path fill-rule="evenodd" clip-rule="evenodd" d="M75.4313 177.924L70.2871 178.524L122.249 148.524L127.393 147.924L75.4313 177.924Z" fill="#8BC5E4"/>
<path fill-rule="evenodd" clip-rule="evenodd" d="M70.2002 124.254L122.162 94.2543L70.2002 124.254Z" fill="#8BC5E4"/>
<path fill-rule="evenodd" clip-rule="evenodd" d="M66.4933 169.064L61.9033 169.614L113.865 139.614L118.455 139.064L66.4933 169.064Z" fill="#8BC5E4"/>
<path fill-rule="evenodd" clip-rule="evenodd" d="M65.6963 179.074L70.2862 178.524L122.248 148.524L117.658 149.074L65.6963 179.074Z" fill="#8BC5E4"/>
<path fill-rule="evenodd" clip-rule="evenodd" d="M70.2871 178.524L122.249 148.524L70.2871 178.524Z" fill="#8BC5E4"/>
<path fill-rule="evenodd" clip-rule="evenodd" d="M62.7178 142.724L57.4004 139.654L109.362 109.654L114.679 112.724L62.7178 142.724Z" fill="#8BC5E4"/>
<path fill-rule="evenodd" clip-rule="evenodd" d="M57.4004 148.164L62.6918 151.219L114.653 121.219L109.362 118.164L57.4004 148.164Z" fill="#8BC5E4"/>
<path fill-rule="evenodd" clip-rule="evenodd" d="M62.6914 151.219L114.653 121.219L62.6914 151.219Z" fill="#8BC5E4"/>
<path fill-rule="evenodd" clip-rule="evenodd" d="M86.2041 125.244L117.961 171.719L169.923 141.719L138.166 95.2443L86.2041 125.244Z" fill="#8BC5E4"/>
<path fill-rule="evenodd" clip-rule="evenodd" d="M117.961 171.719L138.849 183.779L190.811 153.779L169.922 141.719L117.961 171.719Z" fill="#8BC5E4"/>
<path fill-rule="evenodd" clip-rule="evenodd" d="M138.85 183.779V196.259L190.811 166.259V153.779L138.85 183.779Z" fill="#8BC5E4"/>
<path fill-rule="evenodd" clip-rule="evenodd" d="M138.849 196.259L117.961 184.199L169.922 154.199L190.811 166.259L138.849 196.259Z" fill="#8BC5E4"/>
<path fill-rule="evenodd" clip-rule="evenodd" d="M117.961 184.199L86.2041 195.844L138.166 165.844L169.923 154.199L117.961 184.199Z" fill="#8BC5E4"/>
<path fill-rule="evenodd" clip-rule="evenodd" d="M86.2041 195.844V125.244L138.166 95.2443V165.844L86.2041 195.844Z" fill="#8BC5E4"/>
<path fill-rule="evenodd" clip-rule="evenodd" d="M86.2041 125.244L138.166 95.2443L86.2041 125.244Z" fill="#8BC5E4"/>
<path fill-rule="evenodd" clip-rule="evenodd" d="M180.531 205.544V210.224L232.493 180.224V175.544L180.531 205.544Z" fill="#8BC5E4"/>
<path fill-rule="evenodd" clip-rule="evenodd" d="M180.532 210.224L155.573 195.814L207.535 165.814L232.494 180.224L180.532 210.224Z" fill="#8BC5E4"/>
<path fill-rule="evenodd" clip-rule="evenodd" d="M155.573 195.814V205.374L207.535 175.374V165.814L155.573 195.814Z" fill="#8BC5E4"/>
<path fill-rule="evenodd" clip-rule="evenodd" d="M155.573 205.374L180.532 219.784L232.494 189.784L207.535 175.374L155.573 205.374Z" fill="#8BC5E4"/>
<path fill-rule="evenodd" clip-rule="evenodd" d="M180.531 219.784V224.464L232.493 194.464V189.784L180.531 219.784Z" fill="#8BC5E4"/>
<path fill-rule="evenodd" clip-rule="evenodd" d="M180.531 224.464L193.244 222.344L245.206 192.344L232.493 194.464L180.531 224.464Z" fill="#8BC5E4"/>
<path fill-rule="evenodd" clip-rule="evenodd" d="M193.244 222.344L180.531 205.544L232.493 175.544L245.206 192.344L193.244 222.344Z" fill="#8BC5E4"/>
<path fill-rule="evenodd" clip-rule="evenodd" d="M180.531 205.544L232.493 175.544L180.531 205.544Z" fill="#8BC5E4"/>
<path fill-rule="evenodd" clip-rule="evenodd" d="M0 37.5742V213.144L51.9615 183.144V7.57422L0 37.5742Z" fill="#8BC5E4"/>
<path fill-rule="evenodd" clip-rule="evenodd" d="M10.4619 231.404L211.233 347.319L263.194 317.319L62.4234 201.404L10.4619 231.404Z" fill="#8BC5E4"/>
<path fill-rule="evenodd" clip-rule="evenodd" d="M221.702 341.144V165.574L273.664 135.574V311.144L221.702 341.144Z" fill="#8BC5E4"/>
<path fill-rule="evenodd" clip-rule="evenodd" d="M211.233 147.319L10.4619 31.4043L62.4234 1.4043L263.194 117.319L211.233 147.319Z" fill="#8BC5E4"/>
<path fill-rule="evenodd" clip-rule="evenodd" d="M10.4619 31.4043L62.4234 1.4043L10.4619 31.4043Z" fill="#8BC5E4"/>
<path fill-rule="evenodd" clip-rule="evenodd" d="M10.4619 36.9243L211.233 152.839L263.194 122.839L62.4234 6.92432L10.4619 36.9243Z" fill="#8BC5E4"/>
<path fill-rule="evenodd" clip-rule="evenodd" d="M216.974 162.844V338.414L268.935 308.414V132.844L216.974 162.844Z" fill="#8BC5E4"/>
<path fill-rule="evenodd" clip-rule="evenodd" d="M211.233 341.799L10.4619 225.884L62.4234 195.884L263.194 311.799L211.233 341.799Z" fill="#8BC5E4"/>
<path fill-rule="evenodd" clip-rule="evenodd" d="M4.72852 215.874V40.3042L56.69 10.3042V185.874L4.72852 215.874Z" fill="#8BC5E4"/>
<path fill-rule="evenodd" clip-rule="evenodd" d="M10.4619 36.9243L62.4234 6.92432L10.4619 36.9243Z" fill="#8BC5E4"/>
<path fill-rule="evenodd" clip-rule="evenodd" d="M101.516 110.434C87.8949 102.57 75.5156 101.746 66.4219 106.756L118.383 76.7565C127.477 71.7463 139.856 72.5703 153.477 80.4343L101.516 110.434Z" fill="#8BC5E4"/>
<path fill-rule="evenodd" clip-rule="evenodd" d="M66.4213 106.756C64.1479 108.009 62.0798 109.626 60.249 111.589L112.211 81.5892C114.041 79.6262 116.109 78.009 118.383 76.7565L66.4213 106.756Z" fill="#8BC5E4"/>
<path fill-rule="evenodd" clip-rule="evenodd" d="M65.6104 118.414C66.8962 117.08 68.3109 115.936 69.8409 114.992L121.802 84.9917C120.272 85.9363 118.858 87.0799 117.572 88.4143L65.6104 118.414Z" fill="#8BC5E4"/>
<path fill-rule="evenodd" clip-rule="evenodd" d="M69.8408 114.992C77.8732 110.032 89.0834 110.556 101.516 117.734L153.477 87.7342C141.045 80.5564 129.835 80.0324 121.802 84.9916L69.8408 114.992Z" fill="#8BC5E4"/>
<path fill-rule="evenodd" clip-rule="evenodd" d="M101.516 117.734C125.998 131.869 145.778 166.369 145.778 194.939L197.74 164.939C197.74 136.369 177.96 101.869 153.477 87.7343L101.516 117.734Z" fill="#8BC5E4"/>
<path fill-rule="evenodd" clip-rule="evenodd" d="M145.778 194.939C145.778 208.653 141.221 218.468 133.773 223.405L185.735 193.405C193.182 188.468 197.739 178.653 197.739 164.939L145.778 194.939Z" fill="#8BC5E4"/>
<path fill-rule="evenodd" clip-rule="evenodd" d="M133.774 223.405C125.706 228.752 114.247 228.374 101.516 221.024L153.477 191.024C166.208 198.374 177.667 198.752 185.735 193.405L133.774 223.405Z" fill="#8BC5E4"/>
<path fill-rule="evenodd" clip-rule="evenodd" d="M101.515 221.024C86.7667 212.509 73.733 196.614 65.6963 179.074L117.658 149.074C125.695 166.614 138.728 182.509 153.477 191.024L101.515 221.024Z" fill="#8BC5E4"/>
<path fill-rule="evenodd" clip-rule="evenodd" d="M60.3359 179.719C69.4985 200.029 84.5414 218.524 101.515 228.324L153.477 198.324C136.503 188.524 121.46 170.029 112.297 149.719L60.3359 179.719Z" fill="#8BC5E4"/>
<path fill-rule="evenodd" clip-rule="evenodd" d="M101.516 228.324C111.865 234.299 121.495 236.209 129.514 234.589L181.476 204.589C173.456 206.209 163.826 204.299 153.477 198.324L101.516 228.324Z" fill="#8BC5E4"/>
<path fill-rule="evenodd" clip-rule="evenodd" d="M138.988 230.509C147.094 224.729 152.031 213.729 152.031 198.549L203.992 168.549C203.992 183.729 199.056 194.729 190.95 200.509L138.988 230.509Z" fill="#8BC5E4"/>
<path fill-rule="evenodd" clip-rule="evenodd" d="M152.031 198.549C152.031 166.039 129.376 126.519 101.516 110.434L153.477 80.4342C181.337 96.5192 203.992 136.039 203.992 168.549L152.031 198.549Z" fill="#8BC5E4"/>
<path fill-rule="evenodd" clip-rule="evenodd" d="M60.3362 179.719C58.9245 176.594 57.6515 173.429 56.543 170.249L108.504 140.249C109.613 143.429 110.886 146.594 112.298 149.719L60.3362 179.719Z" fill="#8BC5E4"/>
<path fill-rule="evenodd" clip-rule="evenodd" d="M61.9037 169.614C59.4442 162.444 57.868 155.174 57.4004 148.164L109.362 118.164C109.83 125.174 111.406 132.444 113.865 139.614L61.9037 169.614Z" fill="#8BC5E4"/>
<path fill-rule="evenodd" clip-rule="evenodd" d="M51.1299 144.544C51.6235 152.919 53.5201 161.644 56.5425 170.249L108.504 140.249C105.482 131.644 103.585 122.919 103.091 114.544L51.1299 144.544Z" fill="#8BC5E4"/>
<path fill-rule="evenodd" clip-rule="evenodd" d="M51.1299 144.544C51.0433 143.094 51 141.649 51 140.219L102.962 110.219C102.962 111.649 103.005 113.094 103.091 114.544L51.1299 144.544Z" fill="#8BC5E4"/>
<path fill-rule="evenodd" clip-rule="evenodd" d="M51 140.219C51 138.789 51.0433 137.394 51.1299 136.034L103.091 106.034C103.005 107.394 102.962 108.789 102.962 110.219L51 140.219Z" fill="#8BC5E4"/>
<path fill-rule="evenodd" clip-rule="evenodd" d="M57.4004 139.654C57.868 133.254 59.4096 127.834 61.8431 123.519L113.805 93.5193C111.371 97.8343 109.83 103.254 109.362 109.654L57.4004 139.654Z" fill="#8BC5E4"/>
<path fill-rule="evenodd" clip-rule="evenodd" d="M56.4819 116.694C53.4941 121.789 51.6235 128.299 51.1299 136.034L103.091 106.034C103.585 98.2992 105.456 91.7892 108.443 86.6942L56.4819 116.694Z" fill="#8BC5E4"/>
<path fill-rule="evenodd" clip-rule="evenodd" d="M56.4824 116.694C57.5909 114.794 58.8467 113.089 60.2496 111.589L112.211 81.5892C110.808 83.0892 109.552 84.7942 108.444 86.6942L56.4824 116.694Z" fill="#8BC5E4"/>
<path fill-rule="evenodd" clip-rule="evenodd" d="M66.415 129.349C67.4803 127.404 68.7446 125.704 70.1996 124.254L122.161 94.2543C120.706 95.7043 119.442 97.4043 118.377 99.3493L66.415 129.349Z" fill="#8BC5E4"/>
<path fill-rule="evenodd" clip-rule="evenodd" d="M65.61 118.414C64.1897 119.884 62.9253 121.594 61.8428 123.519L113.804 93.5193C114.887 91.5943 116.151 89.8843 117.572 88.4143L65.61 118.414Z" fill="#8BC5E4"/>
<path fill-rule="evenodd" clip-rule="evenodd" d="M66.4157 129.349C64.4065 133.059 63.1508 137.594 62.7178 142.724L114.679 112.724C115.112 107.594 116.368 103.059 118.377 99.3492L66.4157 129.349Z" fill="#8BC5E4"/>
<path fill-rule="evenodd" clip-rule="evenodd" d="M62.6914 151.219C63.1417 156.919 64.4321 162.974 66.4933 169.064L118.455 139.064C116.394 132.974 115.103 126.919 114.653 121.219L62.6914 151.219Z" fill="#8BC5E4"/>
<path fill-rule="evenodd" clip-rule="evenodd" d="M70.2871 178.524C77.6397 194.289 89.2098 207.769 101.516 214.894L153.478 184.894C141.171 177.769 129.601 164.289 122.249 148.524L70.2871 178.524Z" fill="#8BC5E4"/>
<path fill-rule="evenodd" clip-rule="evenodd" d="M101.516 214.894C111.865 220.869 121.781 221.794 129.099 217.489L181.06 187.489C173.742 191.794 163.826 190.869 153.477 184.894L101.516 214.894Z" fill="#8BC5E4"/>
<path fill-rule="evenodd" clip-rule="evenodd" d="M129.099 217.489C136.417 213.174 140.521 203.974 140.521 191.904L192.483 161.904C192.483 173.974 188.378 183.174 181.06 187.489L129.099 217.489Z" fill="#8BC5E4"/>
<path fill-rule="evenodd" clip-rule="evenodd" d="M140.521 191.904C140.521 166.764 123.062 136.314 101.516 123.874L153.477 93.8743C175.024 106.314 192.483 136.764 192.483 161.904L140.521 191.904Z" fill="#8BC5E4"/>
<path fill-rule="evenodd" clip-rule="evenodd" d="M101.516 123.874C91.6293 118.182 82.2194 117.137 75.0908 120.709L127.052 90.7093C134.181 87.1366 143.591 88.1822 153.477 93.8742L101.516 123.874Z" fill="#8BC5E4"/>
<path fill-rule="evenodd" clip-rule="evenodd" d="M75.0907 120.709C73.3085 121.603 71.669 122.784 70.2002 124.254L122.162 94.2543C123.631 92.7843 125.27 91.6025 127.052 90.7094L75.0907 120.709Z" fill="#8BC5E4"/>
<path fill-rule="evenodd" clip-rule="evenodd" d="M70.2864 178.524C68.8314 175.404 67.5584 172.239 66.4932 169.064L118.455 139.064C119.52 142.239 120.793 145.404 122.248 148.524L70.2864 178.524Z" fill="#8BC5E4"/>
<path fill-rule="evenodd" clip-rule="evenodd" d="M61.9033 169.614C62.9945 172.794 64.2676 175.959 65.6965 179.074L117.658 149.074C116.229 145.959 114.956 142.794 113.865 139.614L61.9033 169.614Z" fill="#8BC5E4"/>
<path fill-rule="evenodd" clip-rule="evenodd" d="M62.6916 151.219C62.579 149.744 62.5098 148.284 62.5098 146.864L114.471 116.864C114.471 118.284 114.541 119.744 114.653 121.219L62.6916 151.219Z" fill="#8BC5E4"/>
<path fill-rule="evenodd" clip-rule="evenodd" d="M62.5098 146.864C62.5184 145.449 62.5877 144.069 62.7176 142.724L114.679 112.724C114.549 114.069 114.48 115.449 114.471 116.864L62.5098 146.864Z" fill="#8BC5E4"/>
<path fill-rule="evenodd" clip-rule="evenodd" d="M57.4002 139.654C57.3049 141.009 57.2529 142.399 57.2529 143.829L109.214 113.829C109.214 112.399 109.266 111.009 109.362 109.654L57.4002 139.654Z" fill="#8BC5E4"/>
<path fill-rule="evenodd" clip-rule="evenodd" d="M57.2529 143.829C57.2529 145.259 57.3049 146.709 57.4002 148.164L109.362 118.164C109.266 116.709 109.214 115.259 109.214 113.829L57.2529 143.829Z" fill="#8BC5E4"/>
<path fill-rule="evenodd" clip-rule="evenodd" d="M10.4618 31.4042C7.70165 29.8106 5.18089 29.6202 3.30566 30.5962L55.2672 0.596169C57.1424 -0.379836 59.6632 -0.189372 62.4234 1.40423L10.4618 31.4042Z" fill="#8BC5E4"/>
<path fill-rule="evenodd" clip-rule="evenodd" d="M3.3054 30.5962C1.2739 31.6535 0 34.0798 0 37.5742L51.9615 7.57425C51.9615 4.07985 53.2354 1.65353 55.2669 0.596191L3.3054 30.5962Z" fill="#8BC5E4"/>
<path fill-rule="evenodd" clip-rule="evenodd" d="M0 213.144C0 219.864 4.71118 228.084 10.4616 231.404L62.4231 201.404C56.6727 198.084 51.9615 189.864 51.9615 183.144L0 213.144Z" fill="#8BC5E4"/>
<path fill-rule="evenodd" clip-rule="evenodd" d="M211.232 347.319C213.997 348.915 216.52 349.105 218.396 348.127L270.358 318.127C268.481 319.105 265.958 318.915 263.194 317.319L211.232 347.319Z" fill="#8BC5E4"/>
<path fill-rule="evenodd" clip-rule="evenodd" d="M218.396 348.127C220.428 347.068 221.702 344.639 221.702 341.144L273.664 311.144C273.664 314.639 272.39 317.068 270.357 318.127L218.396 348.127Z" fill="#8BC5E4"/>
<path fill-rule="evenodd" clip-rule="evenodd" d="M221.703 165.574C221.703 158.854 216.991 150.644 211.232 147.319L263.194 117.319C268.953 120.644 273.664 128.854 273.664 135.574L221.703 165.574Z" fill="#8BC5E4"/>
<path fill-rule="evenodd" clip-rule="evenodd" d="M211.232 152.839C214.454 154.699 216.974 159.084 216.974 162.844L268.936 132.844C268.936 129.084 266.416 124.699 263.194 122.839L211.232 152.839Z" fill="#8BC5E4"/>
<path fill-rule="evenodd" clip-rule="evenodd" d="M216.974 338.414C216.974 340.219 216.394 341.5 215.434 342.138L267.395 312.138C268.355 311.5 268.936 310.219 268.936 308.414L216.974 338.414Z" fill="#8BC5E4"/>
<path fill-rule="evenodd" clip-rule="evenodd" d="M215.433 342.138C214.393 342.829 212.908 342.767 211.232 341.799L263.194 311.799C264.869 312.767 266.355 312.829 267.395 312.138L215.433 342.138Z" fill="#8BC5E4"/>
<path fill-rule="evenodd" clip-rule="evenodd" d="M10.4616 225.884C7.24865 224.029 4.72852 219.634 4.72852 215.874L56.69 185.874C56.69 189.634 59.2102 194.029 62.4231 195.884L10.4616 225.884Z" fill="#8BC5E4"/>
<path fill-rule="evenodd" clip-rule="evenodd" d="M4.72852 40.3043C4.72852 38.4995 5.30915 37.2211 6.26835 36.5848L58.2299 6.58484C57.2707 7.22114 56.69 8.49948 56.69 10.3043L4.72852 40.3043Z" fill="#8BC5E4"/>
<path fill-rule="evenodd" clip-rule="evenodd" d="M6.26855 36.5848C7.30768 35.8954 8.79108 35.9596 10.4618 36.9242L62.4233 6.92421C60.7526 5.95961 59.2692 5.89544 58.2301 6.58477L6.26855 36.5848Z" fill="#8BC5E4"/>
<path d="M101.515 110.434C84.4894 100.604 69.4033 101.774 60.2494 111.589L65.6101 118.414C73.6468 110.074 86.7151 109.189 101.515 117.734C125.998 131.869 145.778 166.369 145.778 194.939C145.778 223.509 125.998 235.159 101.515 221.024C86.7671 212.509 73.7334 196.614 65.6967 179.074L60.336 179.719C69.4985 200.029 84.5414 218.524 101.515 228.324C111.865 234.299 121.495 236.209 129.514 234.589L162.267 292.879L171.239 287.899L138.988 230.509C147.094 224.729 152.031 213.729 152.031 198.549C152.031 166.039 129.376 126.519 101.515 110.434ZM60.336 179.719C58.9244 176.594 57.6513 173.429 56.5428 170.249L35.9141 172.699L39.6466 182.164L60.336 179.719ZM56.5428 170.249L61.9035 169.614C59.444 162.444 57.8678 155.174 57.4002 148.164L51.1301 144.544C51.6238 152.919 53.5204 161.644 56.5428 170.249ZM51.1301 144.544C51.0435 143.094 51.0002 141.649 51.0002 140.219C51.0002 138.789 51.0435 137.394 51.1301 136.034L28.7434 123.109V131.619L51.1301 144.544ZM51.1301 136.034L57.4002 139.654C57.8678 133.254 59.4093 127.834 61.8429 123.519L56.4822 116.694C53.4944 121.789 51.6238 128.299 51.1301 136.034ZM56.4822 116.694C57.5907 114.794 58.8464 113.089 60.2494 111.589L39.3782 84.9992L35.6369 90.1492L56.4822 116.694ZM61.8429 123.519L66.4155 129.349C67.4807 127.404 68.7451 125.704 70.2 124.254L65.6101 118.414C64.1898 119.884 62.9254 121.594 61.8429 123.519ZM70.2 124.254L75.1537 130.564L76.981 128.039L84.2037 147.049L69.5851 138.239L71.4125 135.714L66.4155 129.349C64.4063 133.059 63.1506 137.594 62.7176 142.724L70.4079 147.164V142.994L83.1211 158.764L70.4079 159.844V155.674L62.6916 151.219C63.1419 156.919 64.4323 162.974 66.4934 169.064L71.6896 168.454L69.8623 163.819L84.4721 171.884L77.2581 182.549L75.4308 177.924L70.2866 178.524C77.6392 194.289 89.2093 207.769 101.515 214.894C111.865 220.869 121.781 221.794 129.098 217.489C136.416 213.174 140.521 203.974 140.521 191.904C140.521 166.764 123.062 136.314 101.515 123.874C89.1573 116.759 77.5439 116.904 70.2 124.254ZM70.2866 178.524C68.8317 175.404 67.5586 172.239 66.4934 169.064L61.9035 169.614C62.9947 172.794 64.2677 175.959 65.6967 179.074L70.2866 178.524ZM62.6916 151.219C62.579 149.744 62.5097 148.284 62.5097 146.864C62.5184 145.449 62.5877 144.069 62.7176 142.724L57.4002 139.654C57.3049 141.009 57.2529 142.399 57.2529 143.829C57.2529 145.259 57.3049 146.709 57.4002 148.164L62.6916 151.219ZM86.2042 125.244L117.961 171.719L138.85 183.779V196.259L117.961 184.199L86.2042 195.844V125.244ZM180.532 205.544V210.224L155.573 195.814V205.374L180.532 219.784V224.464L193.245 222.344L180.532 205.544ZM10.4616 31.4042C4.71118 28.0842 0 30.8542 0 37.5742V213.144C0 219.864 4.71118 228.084 10.4616 231.404L211.232 347.319C216.991 350.644 221.702 347.864 221.702 341.144V165.574C221.702 158.854 216.991 150.644 211.232 147.319L10.4616 31.4042ZM10.4616 36.9242L211.232 152.839C214.454 154.699 216.974 159.084 216.974 162.844V338.414C216.974 342.174 214.454 343.659 211.232 341.799L10.4616 225.884C7.24863 224.029 4.7285 219.634 4.7285 215.874V40.3042C4.7285 36.5442 7.24863 35.0692 10.4616 36.9242Z" fill="#8BC5E4"/>
<path fill-rule="evenodd" clip-rule="evenodd" d="M10.4616 36.9242L211.232 152.839C214.454 154.699 216.974 159.084 216.974 162.844V338.414C216.974 342.174 214.454 343.659 211.232 341.799L10.4616 225.884C7.24863 224.029 4.7285 219.634 4.7285 215.874V40.3042C4.7285 36.5442 7.24863 35.0692 10.4616 36.9242ZM60.2494 111.589C69.4033 101.774 84.4894 100.604 101.515 110.434C129.376 126.519 152.031 166.039 152.031 198.549C152.031 213.729 147.094 224.729 138.988 230.509L171.239 287.899L162.267 292.879L129.514 234.589C121.495 236.209 111.865 234.299 101.515 228.324C84.5414 218.524 69.4985 200.029 60.336 179.719L39.6466 182.164L35.9141 172.699L56.5428 170.249C53.5204 161.644 51.6238 152.919 51.1301 144.544L28.7434 131.619V123.109L51.1301 136.034C51.6238 128.299 53.4944 121.789 56.4822 116.694L35.6369 90.1492L39.3782 84.9992L60.2494 111.589ZM180.532 210.224V205.544L193.245 222.344L180.532 224.464V219.784L155.573 205.374V195.814L180.532 210.224Z" fill="white"/>
<path d="M101.515 117.734C86.7151 109.189 73.6468 110.074 65.6101 118.414L70.2 124.254C77.5439 116.904 89.1573 116.759 101.515 123.874C123.062 136.314 140.521 166.764 140.521 191.904C140.521 203.974 136.416 213.174 129.098 217.489C121.781 221.794 111.865 220.869 101.515 214.894C89.2093 207.769 77.6392 194.289 70.2866 178.524L65.6967 179.074C73.7334 196.614 86.7671 212.509 101.515 221.024C125.998 235.159 145.778 223.509 145.778 194.939C145.778 166.369 125.998 131.869 101.515 117.734Z" fill="white"/>
<path d="M86.2042 125.244L117.961 171.719L138.85 183.779V196.259L117.961 184.199L86.2042 195.844V125.244Z" fill="white"/>
<path d="M71.6896 168.454L66.4934 169.064C67.5586 172.239 68.8317 175.404 70.2866 178.524L75.4308 177.924L77.2581 182.549L84.4721 171.884L69.8623 163.819L71.6896 168.454Z" fill="white"/>
<path d="M70.4079 147.164L62.7176 142.724C62.5877 144.069 62.5184 145.449 62.5097 146.864C62.5097 148.284 62.579 149.744 62.6916 151.219L70.4079 155.674V159.844L83.1211 158.764L70.4079 142.994V147.164Z" fill="white"/>
<path d="M70.2 124.254C68.7451 125.704 67.4807 127.404 66.4155 129.349L71.4125 135.714L69.5851 138.239L84.2037 147.049L76.981 128.039L75.1537 130.564L70.2 124.254Z" fill="white"/>
<path d="M61.8429 123.519C59.4093 127.834 57.8678 133.254 57.4002 139.654L62.7176 142.724C63.1506 137.594 64.4063 133.059 66.4155 129.349L61.8429 123.519Z" fill="white"/>
<path d="M57.4002 148.164C57.8678 155.174 59.444 162.444 61.9035 169.614L66.4934 169.064C64.4323 162.974 63.1419 156.919 62.6916 151.219L57.4002 148.164Z" fill="white"/>
<path d="M65.6101 118.414L60.2494 111.589C58.8464 113.089 57.5907 114.794 56.4822 116.694L61.8429 123.519C62.9254 121.594 64.1898 119.884 65.6101 118.414Z" fill="white"/>
<path d="M51.1301 144.544L57.4002 148.164C57.3049 146.709 57.2529 145.259 57.2529 143.829C57.2529 142.399 57.3049 141.009 57.4002 139.654L51.1301 136.034C51.0435 137.394 51.0002 138.789 51.0002 140.219C51.0002 141.649 51.0435 143.094 51.1301 144.544Z" fill="white"/>
<path d="M60.336 179.719L65.6967 179.074C64.2677 175.959 62.9947 172.794 61.9035 169.614L56.5428 170.249C57.6513 173.429 58.9244 176.594 60.336 179.719Z" fill="white"/>
</svg>
