<svg width="227" height="258" viewBox="0 0 227 258" fill="none" xmlns="http://www.w3.org/2000/svg">
<path fill-rule="evenodd" clip-rule="evenodd" d="M1 41.0189V128.649L52.9615 98.6489V11.0189L1 41.0189Z" fill="#8BC5E4"/>
<path fill-rule="evenodd" clip-rule="evenodd" d="M18.1646 157.019L72.1786 188.204L124.14 158.204L70.1261 127.019L18.1646 157.019Z" fill="#8BC5E4"/>
<path fill-rule="evenodd" clip-rule="evenodd" d="M72.1787 188.204V206.464L124.14 176.464V158.204L72.1787 188.204Z" fill="#8BC5E4"/>
<path fill-rule="evenodd" clip-rule="evenodd" d="M72.1787 206.464L46.3711 191.564L98.3326 161.564L124.14 176.464L72.1787 206.464Z" fill="#8BC5E4"/>
<path fill-rule="evenodd" clip-rule="evenodd" d="M46.3711 208.714L128.02 255.854L179.981 225.854L98.3326 178.714L46.3711 208.714Z" fill="#8BC5E4"/>
<path fill-rule="evenodd" clip-rule="evenodd" d="M128.019 238.704L105.754 225.849L157.715 195.849L179.981 208.704L128.019 238.704Z" fill="#8BC5E4"/>
<path fill-rule="evenodd" clip-rule="evenodd" d="M105.754 225.849V207.589L157.715 177.589V195.849L105.754 225.849Z" fill="#8BC5E4"/>
<path fill-rule="evenodd" clip-rule="evenodd" d="M105.754 207.589L157.023 237.189L208.984 207.189L157.715 177.589L105.754 207.589Z" fill="#8BC5E4"/>
<path fill-rule="evenodd" clip-rule="evenodd" d="M174.205 228.649V141.019L226.167 111.019V198.649L174.205 228.649Z" fill="#8BC5E4"/>
<path fill-rule="evenodd" clip-rule="evenodd" d="M157.023 112.649L18.1646 32.479L70.1261 2.479L208.985 82.649L157.023 112.649Z" fill="#8BC5E4"/>
<path fill-rule="evenodd" clip-rule="evenodd" d="M18.1646 32.479V32.479L70.1261 2.479V2.479L18.1646 32.479Z" fill="#8BC5E4"/>
<path fill-rule="evenodd" clip-rule="evenodd" d="M18.1646 40.489L157.023 120.659L208.985 90.659L70.1261 10.489L18.1646 40.489Z" fill="#8BC5E4"/>
<path fill-rule="evenodd" clip-rule="evenodd" d="M166.758 136.719V224.349L218.719 194.349V106.719L166.758 136.719Z" fill="#8BC5E4"/>
<path fill-rule="evenodd" clip-rule="evenodd" d="M157.023 229.189L18.1646 149.019L70.1261 119.019L208.985 199.189L157.023 229.189Z" fill="#8BC5E4"/>
<path fill-rule="evenodd" clip-rule="evenodd" d="M8.44775 132.949V45.319L60.4093 15.319V102.949L8.44775 132.949Z" fill="#8BC5E4"/>
<path fill-rule="evenodd" clip-rule="evenodd" d="M18.1646 40.489V40.489L70.1261 10.489V10.489L18.1646 40.489Z" fill="#8BC5E4"/>
<path fill-rule="evenodd" clip-rule="evenodd" d="M56.5817 133.459L34.0391 145.494L86.0006 115.494L108.543 103.459L56.5817 133.459Z" fill="#8BC5E4"/>
<path fill-rule="evenodd" clip-rule="evenodd" d="M34.0391 145.494L43.574 160.919L95.5355 130.919L86.0006 115.494L34.0391 145.494Z" fill="#8BC5E4"/>
<path fill-rule="evenodd" clip-rule="evenodd" d="M43.5737 160.919L66.558 148.659L118.52 118.659L95.5353 130.919L43.5737 160.919Z" fill="#8BC5E4"/>
<path fill-rule="evenodd" clip-rule="evenodd" d="M87.5508 81.339V81.339L139.512 51.339V51.339L87.5508 81.339Z" fill="#8BC5E4"/>
<path fill-rule="evenodd" clip-rule="evenodd" d="M87.5508 91.1389V91.1389L139.512 61.1389V61.1389L87.5508 91.1389Z" fill="#8BC5E4"/>
<path fill-rule="evenodd" clip-rule="evenodd" d="M76.3701 101.144V111.304L128.332 81.3039V71.1439L76.3701 101.144Z" fill="#8BC5E4"/>
<path fill-rule="evenodd" clip-rule="evenodd" d="M76.3704 111.304L68.5762 106.804L120.538 76.804L128.332 81.304L76.3704 111.304Z" fill="#8BC5E4"/>
<path fill-rule="evenodd" clip-rule="evenodd" d="M68.5762 106.804V134.754L120.538 104.754V76.804L68.5762 106.804Z" fill="#8BC5E4"/>
<path fill-rule="evenodd" clip-rule="evenodd" d="M68.5762 134.754L106.551 156.679L158.513 126.679L120.538 104.754L68.5762 134.754Z" fill="#8BC5E4"/>
<path fill-rule="evenodd" clip-rule="evenodd" d="M106.551 156.679V128.729L158.512 98.729V126.679L106.551 156.679Z" fill="#8BC5E4"/>
<path fill-rule="evenodd" clip-rule="evenodd" d="M106.551 128.729L99.8999 124.889L151.861 94.8889L158.513 98.7289L106.551 128.729Z" fill="#8BC5E4"/>
<path fill-rule="evenodd" clip-rule="evenodd" d="M99.8999 124.889V114.729L151.861 84.729V94.889L99.8999 124.889Z" fill="#8BC5E4"/>
<path fill-rule="evenodd" clip-rule="evenodd" d="M88.1396 95.469V95.469L140.101 65.469V65.469L88.1396 95.469Z" fill="#8BC5E4"/>
<path fill-rule="evenodd" clip-rule="evenodd" d="M97.2935 113.224V123.384L149.255 93.384V83.224L97.2935 113.224Z" fill="#8BC5E4"/>
<path fill-rule="evenodd" clip-rule="evenodd" d="M97.2935 123.384L78.9771 112.809L130.939 82.809L149.255 93.384L97.2935 123.384Z" fill="#8BC5E4"/>
<path fill-rule="evenodd" clip-rule="evenodd" d="M78.9771 112.809V102.649L130.939 72.6489V82.8089L78.9771 112.809Z" fill="#8BC5E4"/>
<path fill-rule="evenodd" clip-rule="evenodd" d="M88.1396 98.2689V98.2689L140.101 68.2689V68.2689L88.1396 98.2689Z" fill="#8BC5E4"/>
<path fill-rule="evenodd" clip-rule="evenodd" d="M88.6069 132.579V139.139L140.568 109.139V102.579L88.6069 132.579Z" fill="#8BC5E4"/>
<path fill-rule="evenodd" clip-rule="evenodd" d="M88.6071 139.139L86.52 137.934L138.482 107.934L140.569 109.139L88.6071 139.139Z" fill="#8BC5E4"/>
<path fill-rule="evenodd" clip-rule="evenodd" d="M86.52 137.934V131.374L138.482 101.374V107.934L86.52 137.934Z" fill="#8BC5E4"/>
<path fill-rule="evenodd" clip-rule="evenodd" d="M87.5679 126.549V126.549L139.529 96.549V96.549L87.5679 126.549Z" fill="#8BC5E4"/>
<path fill-rule="evenodd" clip-rule="evenodd" d="M18.1646 32.479C13.256 29.645 8.81103 29.323 5.6748 31.0941L57.6363 1.09406C60.7726 -0.676965 65.2175 -0.354981 70.1262 2.47902L18.1646 32.479Z" fill="#8BC5E4"/>
<path fill-rule="evenodd" clip-rule="evenodd" d="M5.6748 31.094C2.77983 32.7288 1 36.147 1 41.019L52.9615 11.019C52.9615 6.14696 54.7414 2.72878 57.6363 1.09399L5.6748 31.094Z" fill="#8BC5E4"/>
<path fill-rule="evenodd" clip-rule="evenodd" d="M1 128.649C1 138.809 8.72495 151.569 18.1646 157.019L70.1261 127.019C60.6865 121.569 52.9615 108.809 52.9615 98.6489L1 128.649Z" fill="#8BC5E4"/>
<path fill-rule="evenodd" clip-rule="evenodd" d="M46.3711 191.564C44.0789 190.241 42.0139 190.087 40.5596 190.91L92.5211 160.91C93.9754 160.087 96.0405 160.241 98.3327 161.564L46.3711 191.564Z" fill="#8BC5E4"/>
<path fill-rule="evenodd" clip-rule="evenodd" d="M40.5595 190.91C39.2171 191.671 38.395 193.264 38.395 195.539L90.3565 165.539C90.3565 163.264 91.1786 161.671 92.5211 160.91L40.5595 190.91Z" fill="#8BC5E4"/>
<path fill-rule="evenodd" clip-rule="evenodd" d="M38.395 195.539C38.395 200.269 41.963 206.169 46.3711 208.714L98.3326 178.714C93.9246 176.169 90.3565 170.269 90.3565 165.539L38.395 195.539Z" fill="#8BC5E4"/>
<path fill-rule="evenodd" clip-rule="evenodd" d="M128.02 255.854C130.312 257.177 132.379 257.333 133.836 256.512L185.797 226.512C184.341 227.333 182.273 227.177 179.981 225.854L128.02 255.854Z" fill="#8BC5E4"/>
<path fill-rule="evenodd" clip-rule="evenodd" d="M133.836 256.512C135.18 255.754 136.005 254.164 136.005 251.894L187.966 221.894C187.966 224.164 187.142 225.754 185.797 226.512L133.836 256.512Z" fill="#8BC5E4"/>
<path fill-rule="evenodd" clip-rule="evenodd" d="M136.004 251.894C136.004 247.154 132.428 241.249 128.02 238.704L179.981 208.704C184.389 211.249 187.966 217.154 187.966 221.894L136.004 251.894Z" fill="#8BC5E4"/>
<path fill-rule="evenodd" clip-rule="evenodd" d="M157.023 237.189C161.941 240.028 166.39 240.353 169.529 238.581L221.49 208.581C218.352 210.353 213.903 210.028 208.985 207.189L157.023 237.189Z" fill="#8BC5E4"/>
<path fill-rule="evenodd" clip-rule="evenodd" d="M169.528 238.581C172.425 236.946 174.205 233.526 174.205 228.649L226.167 198.649C226.167 203.526 224.387 206.946 221.49 208.581L169.528 238.581Z" fill="#8BC5E4"/>
<path fill-rule="evenodd" clip-rule="evenodd" d="M174.205 141.019C174.205 130.869 166.48 118.109 157.023 112.649L208.985 82.6489C218.442 88.1089 226.167 100.869 226.167 111.019L174.205 141.019Z" fill="#8BC5E4"/>
<path fill-rule="evenodd" clip-rule="evenodd" d="M157.023 120.659C162.479 123.809 166.758 130.859 166.758 136.719L218.719 106.719C218.719 100.859 214.441 93.8089 208.985 90.6589L157.023 120.659Z" fill="#8BC5E4"/>
<path fill-rule="evenodd" clip-rule="evenodd" d="M166.758 224.349C166.758 226.927 165.93 228.784 164.537 229.786L216.499 199.786C217.891 198.784 218.719 196.927 218.719 194.349L166.758 224.349Z" fill="#8BC5E4"/>
<path fill-rule="evenodd" clip-rule="evenodd" d="M164.537 229.786C162.765 231.061 160.079 230.953 157.023 229.189L208.985 199.189C212.04 200.953 214.726 201.061 216.498 199.786L164.537 229.786Z" fill="#8BC5E4"/>
<path fill-rule="evenodd" clip-rule="evenodd" d="M18.1646 149.019C12.7173 145.874 8.44775 138.809 8.44775 132.949L60.4093 102.949C60.4093 108.809 64.6788 115.874 70.1261 119.019L18.1646 149.019Z" fill="#8BC5E4"/>
<path fill-rule="evenodd" clip-rule="evenodd" d="M8.44775 45.319C8.44775 42.7406 9.27433 40.8872 10.6641 39.8879L62.6256 9.88794C61.2359 10.8872 60.4093 12.7406 60.4093 15.319L8.44775 45.319Z" fill="#8BC5E4"/>
<path fill-rule="evenodd" clip-rule="evenodd" d="M10.6641 39.8879C12.4329 38.6161 15.114 38.7277 18.1645 40.4889L70.126 10.4889C67.0755 8.72774 64.3944 8.61608 62.6256 9.88789L10.6641 39.8879Z" fill="#8BC5E4"/>
<path fill-rule="evenodd" clip-rule="evenodd" d="M87.5504 81.339C76.1074 74.7324 65.7627 73.9732 58.4683 78.0919L110.43 48.0919C117.724 43.9732 128.069 44.7324 139.512 51.339L87.5504 81.339Z" fill="#8BC5E4"/>
<path fill-rule="evenodd" clip-rule="evenodd" d="M58.4682 78.0919C51.7349 81.8938 47.6006 89.852 47.6006 101.204L99.5621 71.204C99.5621 59.852 103.696 51.8938 110.43 48.0919L58.4682 78.0919Z" fill="#8BC5E4"/>
<path fill-rule="evenodd" clip-rule="evenodd" d="M47.6006 101.204C47.6006 111.454 50.9694 122.839 56.5813 133.459L108.543 103.459C102.931 92.839 99.5621 81.454 99.5621 71.204L47.6006 101.204Z" fill="#8BC5E4"/>
<path fill-rule="evenodd" clip-rule="evenodd" d="M66.5581 148.659C72.6636 156.254 79.8603 162.769 87.5506 167.209L139.512 137.209C131.822 132.769 124.625 126.254 118.52 118.659L66.5581 148.659Z" fill="#8BC5E4"/>
<path fill-rule="evenodd" clip-rule="evenodd" d="M87.5508 167.209C98.9983 173.818 109.345 174.576 116.641 170.455L168.602 140.455C161.307 144.576 150.96 143.818 139.512 137.209L87.5508 167.209Z" fill="#8BC5E4"/>
<path fill-rule="evenodd" clip-rule="evenodd" d="M116.641 170.455C123.375 166.651 127.509 158.691 127.509 147.339L179.471 117.339C179.471 128.691 175.336 136.652 168.602 140.455L116.641 170.455Z" fill="#8BC5E4"/>
<path fill-rule="evenodd" clip-rule="evenodd" d="M127.509 147.339C127.509 123.689 109.565 94.049 87.5508 81.339L139.512 51.339C161.527 64.049 179.471 93.689 179.471 117.339L127.509 147.339Z" fill="#8BC5E4"/>
<path fill-rule="evenodd" clip-rule="evenodd" d="M87.5508 91.1389C104.637 101.004 118.39 123.714 118.39 142.074L170.351 112.074C170.351 93.7139 156.599 71.0039 139.512 61.1389L87.5508 91.1389Z" fill="#8BC5E4"/>
<path fill-rule="evenodd" clip-rule="evenodd" d="M118.389 142.074C118.389 150.152 115.727 156.001 111.289 159.177L163.251 129.177C167.688 126.001 170.351 120.152 170.351 112.074L118.389 142.074Z" fill="#8BC5E4"/>
<path fill-rule="evenodd" clip-rule="evenodd" d="M111.29 159.177C105.642 163.219 97.1193 162.933 87.5508 157.409L139.512 127.409C149.081 132.933 157.604 133.219 163.251 129.177L111.29 159.177Z" fill="#8BC5E4"/>
<path fill-rule="evenodd" clip-rule="evenodd" d="M87.5507 157.409C70.4727 147.549 56.7202 124.829 56.7202 106.469L108.682 76.469C108.682 94.829 122.434 117.549 139.512 127.409L87.5507 157.409Z" fill="#8BC5E4"/>
<path fill-rule="evenodd" clip-rule="evenodd" d="M56.7202 106.469C56.7202 98.3906 59.3827 92.5444 63.8195 89.37L115.781 59.37C111.344 62.5444 108.682 68.3906 108.682 76.469L56.7202 106.469Z" fill="#8BC5E4"/>
<path fill-rule="evenodd" clip-rule="evenodd" d="M63.8193 89.37C69.4661 85.3298 77.9869 85.6174 87.5506 91.139L139.512 61.139C129.948 55.6174 121.428 55.3298 115.781 59.37L63.8193 89.37Z" fill="#8BC5E4"/>
<path fill-rule="evenodd" clip-rule="evenodd" d="M88.1396 95.469C84.548 93.3954 81.6927 93.2675 79.6943 94.3444L131.656 64.3444C133.654 63.2675 136.51 63.3954 140.101 65.469L88.1396 95.469Z" fill="#8BC5E4"/>
<path fill-rule="evenodd" clip-rule="evenodd" d="M79.6942 94.3444C77.5293 95.511 76.3701 98.0915 76.3701 101.144L128.332 71.1439C128.332 68.0915 129.491 65.511 131.656 64.3444L79.6942 94.3444Z" fill="#8BC5E4"/>
<path fill-rule="evenodd" clip-rule="evenodd" d="M99.9003 114.729C99.9003 107.669 94.4097 99.089 88.1396 95.469L140.101 65.469C146.371 69.089 151.862 77.669 151.862 84.729L99.9003 114.729Z" fill="#8BC5E4"/>
<path fill-rule="evenodd" clip-rule="evenodd" d="M88.1396 98.2689C93.024 101.089 97.2935 107.734 97.2935 113.224L149.255 83.2239C149.255 77.7339 144.986 71.0889 140.101 68.2689L88.1396 98.2689Z" fill="#8BC5E4"/>
<path fill-rule="evenodd" clip-rule="evenodd" d="M78.9771 102.649C78.9771 100.523 79.6914 98.622 81.1047 97.6074L133.066 67.6074C131.653 68.622 130.939 70.5226 130.939 72.649L78.9771 102.649Z" fill="#8BC5E4"/>
<path fill-rule="evenodd" clip-rule="evenodd" d="M81.1045 97.6074C82.6356 96.5083 84.9871 96.449 88.1394 98.269L140.101 68.269C136.949 66.449 134.597 66.5083 133.066 67.6074L81.1045 97.6074Z" fill="#8BC5E4"/>
<path fill-rule="evenodd" clip-rule="evenodd" d="M87.5679 126.549C89.0228 127.389 90.2006 129.339 90.2006 130.899L142.162 100.899C142.162 99.339 140.984 97.389 139.529 96.549L87.5679 126.549Z" fill="#8BC5E4"/>
<path fill-rule="evenodd" clip-rule="evenodd" d="M90.2004 130.899C90.2004 131.616 89.945 132.148 89.5068 132.41L141.468 102.41C141.907 102.148 142.162 101.616 142.162 100.899L90.2004 130.899Z" fill="#8BC5E4"/>
<path fill-rule="evenodd" clip-rule="evenodd" d="M89.5069 132.41C89.2604 132.557 88.9561 132.619 88.6069 132.579L140.568 102.579C140.918 102.619 141.222 102.557 141.468 102.41L89.5069 132.41Z" fill="#8BC5E4"/>
<path fill-rule="evenodd" clip-rule="evenodd" d="M86.5202 131.374C85.5503 130.364 84.9268 128.974 84.9268 127.854L136.888 97.854C136.888 98.974 137.512 100.364 138.482 101.374L86.5202 131.374Z" fill="#8BC5E4"/>
<path fill-rule="evenodd" clip-rule="evenodd" d="M84.9268 127.854C84.9268 127.168 85.1548 126.669 85.5348 126.398L137.496 96.3977C137.116 96.6689 136.888 97.1675 136.888 97.8539L84.9268 127.854Z" fill="#8BC5E4"/>
<path fill-rule="evenodd" clip-rule="evenodd" d="M85.5347 126.398C86.0184 126.053 86.7484 126.076 87.568 126.549L139.529 96.549C138.71 96.0758 137.98 96.0526 137.496 96.3977L85.5347 126.398Z" fill="#8BC5E4"/>
<path fill-rule="evenodd" clip-rule="evenodd" d="M18.1646 40.489L157.023 120.659C162.479 123.809 166.757 130.859 166.757 136.719V224.349C166.757 230.209 162.479 232.339 157.023 229.189L18.1646 149.019C12.7173 145.874 8.44782 138.809 8.44782 132.949V45.319C8.44782 39.459 12.7173 37.344 18.1646 40.489ZM47.6008 101.204C47.6008 77.554 65.5449 68.634 87.5506 81.339C109.565 94.049 127.509 123.689 127.509 147.339C127.509 170.989 109.565 179.919 87.5506 167.209C79.8603 162.769 72.6636 156.254 66.5581 148.659L43.5738 160.919L34.0389 145.494L56.5815 133.459C50.9697 122.839 47.6008 111.454 47.6008 101.204Z" fill="white"/>
<path d="M88.1395 98.269C93.0239 101.089 97.2934 107.734 97.2934 113.224V123.384L78.9769 112.809V102.649C78.9769 98.219 82.0773 94.769 88.1395 98.269Z" fill="white"/>
<path fill-rule="evenodd" clip-rule="evenodd" d="M87.5506 91.139C104.637 101.004 118.39 123.714 118.39 142.074C118.39 160.434 104.637 167.274 87.5506 157.409C70.4726 147.549 56.7201 124.829 56.7201 106.469C56.7201 88.109 70.4726 81.279 87.5506 91.139ZM76.3702 101.144C76.3702 95.274 80.657 91.149 88.1395 95.469C94.4095 99.089 99.9001 107.669 99.9001 114.729V124.889L106.551 128.729V156.679L68.576 134.754V106.804L76.3702 111.304V101.144Z" fill="white"/>
<path d="M87.5679 126.549C89.0228 127.389 90.2006 129.339 90.2006 130.899C90.2006 132.019 89.5771 132.689 88.6071 132.579V139.139L86.52 137.934V131.374C85.5501 130.364 84.9265 128.974 84.9265 127.854C84.9265 126.294 86.1043 125.704 87.5679 126.549Z" fill="white"/>
<path fill-rule="evenodd" clip-rule="evenodd" d="M1 41.019C1 30.869 8.72495 27.029 18.1646 32.479L157.023 112.649C166.48 118.109 174.205 130.869 174.205 141.019V228.649C174.205 238.809 166.48 242.649 157.023 237.189L105.754 207.589L72.1786 188.204L18.1646 157.019C8.72495 151.569 1 138.809 1 128.649V41.019ZM157.023 120.659L18.1646 40.489C12.7173 37.344 8.44782 39.459 8.44782 45.319V132.949C8.44782 138.809 12.7173 145.874 18.1646 149.019L157.023 229.189C162.479 232.339 166.757 230.209 166.757 224.349V136.719C166.757 130.859 162.479 123.809 157.023 120.659ZM47.6008 101.204C47.6008 77.554 65.5449 68.634 87.5506 81.339C109.565 94.049 127.509 123.689 127.509 147.339C127.509 170.989 109.565 179.919 87.5506 167.209C79.8603 162.769 72.6636 156.254 66.5581 148.659L43.5738 160.919L34.0389 145.494L56.5815 133.459C50.9697 122.839 47.6008 111.454 47.6008 101.204ZM118.39 142.074C118.39 123.714 104.637 101.004 87.5506 91.139C70.4726 81.279 56.7201 88.109 56.7201 106.469C56.7201 124.829 70.4726 147.549 87.5506 157.409C104.637 167.274 118.39 160.434 118.39 142.074ZM76.3702 101.144C76.3702 95.274 80.657 91.149 88.1395 95.469C94.4095 99.089 99.9001 107.669 99.9001 114.729V124.889L106.551 128.729V156.679L68.576 134.754V106.804L76.3702 111.304V101.144ZM97.2934 113.224C97.2934 107.734 93.0239 101.089 88.1395 98.269C82.0773 94.769 78.9769 98.219 78.9769 102.649V112.809L97.2934 123.384V113.224ZM90.2006 130.899C90.2006 129.339 89.0228 127.389 87.5679 126.549C86.1043 125.704 84.9265 126.294 84.9265 127.854C84.9265 128.974 85.5501 130.364 86.52 131.374V137.934L88.6071 139.139V132.579C89.5771 132.689 90.2006 132.019 90.2006 130.899Z" fill="#8BC5E4"/>
<path d="M72.1786 188.204V206.464L46.3711 191.564C41.963 189.019 38.395 190.799 38.395 195.539C38.395 200.269 41.963 206.169 46.3711 208.714L128.02 255.854C132.428 258.399 136.005 256.624 136.005 251.894C136.005 247.154 132.428 241.249 128.02 238.704L105.754 225.849V207.589L72.1786 188.204Z" fill="white"/>
<path d="M72.1786 188.204L18.1646 157.019C8.72495 151.569 1 138.809 1 128.649V41.019C1 30.869 8.72495 27.029 18.1646 32.479L157.023 112.649C166.48 118.109 174.205 130.869 174.205 141.019V228.649C174.205 238.809 166.48 242.649 157.023 237.189L105.754 207.589M72.1786 188.204V206.464L46.3711 191.564C41.963 189.019 38.395 190.799 38.395 195.539C38.395 200.269 41.963 206.169 46.3711 208.714L128.02 255.854C132.428 258.399 136.005 256.624 136.005 251.894C136.005 247.154 132.428 241.249 128.02 238.704L105.754 225.849V207.589M72.1786 188.204L105.754 207.589M18.1646 40.489L157.023 120.659C162.479 123.809 166.757 130.859 166.757 136.719V224.349C166.757 230.209 162.479 232.339 157.023 229.189L18.1646 149.019C12.7173 145.874 8.44782 138.809 8.44782 132.949V45.319C8.44782 39.459 12.7173 37.344 18.1646 40.489ZM87.5506 81.339C65.5449 68.634 47.6008 77.554 47.6008 101.204C47.6008 111.454 50.9697 122.839 56.5815 133.459L34.0389 145.494L43.5738 160.919L66.5581 148.659C72.6636 156.254 79.8603 162.769 87.5506 167.209C109.565 179.919 127.509 170.989 127.509 147.339C127.509 123.689 109.565 94.049 87.5506 81.339ZM87.5506 91.139C104.637 101.004 118.39 123.714 118.39 142.074C118.39 160.434 104.637 167.274 87.5506 157.409C70.4726 147.549 56.7201 124.829 56.7201 106.469C56.7201 88.109 70.4726 81.279 87.5506 91.139ZM88.1395 95.469C80.657 91.149 76.3702 95.274 76.3702 101.144V111.304L68.576 106.804V134.754L106.551 156.679V128.729L99.9001 124.889V114.729C99.9001 107.669 94.4095 99.089 88.1395 95.469ZM88.1395 98.269C93.0239 101.089 97.2934 107.734 97.2934 113.224V123.384L78.9769 112.809V102.649C78.9769 98.219 82.0773 94.769 88.1395 98.269ZM87.5679 126.549C89.0228 127.389 90.2006 129.339 90.2006 130.899C90.2006 132.019 89.5771 132.689 88.6071 132.579V139.139L86.52 137.934V131.374C85.5501 130.364 84.9265 128.974 84.9265 127.854C84.9265 126.294 86.1043 125.704 87.5679 126.549Z" stroke="#8BC5E4"/>
</svg>
