<svg width="227" height="259" viewBox="0 0 227 259" fill="none" xmlns="http://www.w3.org/2000/svg">
<path fill-rule="evenodd" clip-rule="evenodd" d="M52.9615 142.016V229.646L1 199.646V112.016L52.9615 142.016Z" fill="#8BC5E4" stroke="#8BC5E4"/>
<path fill-rule="evenodd" clip-rule="evenodd" d="M70.1261 238.196L124.14 207.011L72.1786 177.011L18.1646 208.196L70.1261 238.196Z" fill="#8BC5E4" stroke="#8BC5E4"/>
<path fill-rule="evenodd" clip-rule="evenodd" d="M124.14 207.011V225.271L72.1787 195.271V177.011L124.14 207.011Z" fill="#8BC5E4" stroke="#8BC5E4"/>
<path fill-rule="evenodd" clip-rule="evenodd" d="M124.14 225.271L98.3326 240.171L46.3711 210.171L72.1787 195.271L124.14 225.271Z" fill="#8BC5E4" stroke="#8BC5E4"/>
<path fill-rule="evenodd" clip-rule="evenodd" d="M98.3326 257.321L179.981 210.181L128.02 180.181L46.3711 227.321L98.3326 257.321Z" fill="#8BC5E4" stroke="#8BC5E4"/>
<path fill-rule="evenodd" clip-rule="evenodd" d="M179.981 193.031L157.716 205.886L105.754 175.886L128.02 163.031L179.981 193.031Z" fill="#8BC5E4" stroke="#8BC5E4"/>
<path fill-rule="evenodd" clip-rule="evenodd" d="M157.716 205.886V187.626L105.754 157.626V175.886L157.716 205.886Z" fill="#8BC5E4" stroke="#8BC5E4"/>
<path fill-rule="evenodd" clip-rule="evenodd" d="M157.716 187.626L208.985 158.026L157.023 128.026L105.754 157.626L157.716 187.626Z" fill="#8BC5E4" stroke="#8BC5E4"/>
<path fill-rule="evenodd" clip-rule="evenodd" d="M226.167 129.646V42.0156L174.205 12.0156V99.6456L226.167 129.646Z" fill="#8BC5E4" stroke="#8BC5E4"/>
<path fill-rule="evenodd" clip-rule="evenodd" d="M208.985 33.4857L70.1261 113.656L18.1646 83.6557L157.023 3.48572L208.985 33.4857Z" fill="#8BC5E4" stroke="#8BC5E4"/>
<path fill-rule="evenodd" clip-rule="evenodd" d="M70.1261 113.656V113.656L18.1646 83.6556V83.6556L70.1261 113.656Z" fill="#8BC5E4"/>
<path d="M70.1261 113.656V113.656ZM70.1261 113.656L18.1646 83.6556M18.1646 83.6556V83.6556Z" stroke="#8BC5E4"/>
<path fill-rule="evenodd" clip-rule="evenodd" d="M70.1261 121.666L208.985 41.4957L157.023 11.4957L18.1646 91.6657L70.1261 121.666Z" fill="#8BC5E4" stroke="#8BC5E4"/>
<path fill-rule="evenodd" clip-rule="evenodd" d="M218.719 46.3157V133.946L166.757 103.946V16.3157L218.719 46.3157Z" fill="#8BC5E4" stroke="#8BC5E4"/>
<path fill-rule="evenodd" clip-rule="evenodd" d="M208.985 150.026L70.1261 230.196L18.1646 200.196L157.023 120.026L208.985 150.026Z" fill="#8BC5E4" stroke="#8BC5E4"/>
<path fill-rule="evenodd" clip-rule="evenodd" d="M60.4093 225.346V137.716L8.44775 107.716V195.346L60.4093 225.346Z" fill="#8BC5E4" stroke="#8BC5E4"/>
<path fill-rule="evenodd" clip-rule="evenodd" d="M70.1261 121.666V121.666L18.1646 91.6656V91.6656L70.1261 121.666Z" fill="#8BC5E4"/>
<path d="M70.1261 121.666V121.666ZM70.1261 121.666L18.1646 91.6656M18.1646 91.6656V91.6656Z" stroke="#8BC5E4"/>
<path fill-rule="evenodd" clip-rule="evenodd" d="M108.543 170.276L86.0001 208.341L34.0386 178.341L56.5812 140.276L108.543 170.276Z" fill="#8BC5E4" stroke="#8BC5E4"/>
<path fill-rule="evenodd" clip-rule="evenodd" d="M86.0001 208.341L95.535 212.756L43.5735 182.756L34.0386 178.341L86.0001 208.341Z" fill="#8BC5E4" stroke="#8BC5E4"/>
<path fill-rule="evenodd" clip-rule="evenodd" d="M95.5353 212.756L118.52 173.956L66.558 143.956L43.5737 182.756L95.5353 212.756Z" fill="#8BC5E4" stroke="#8BC5E4"/>
<path fill-rule="evenodd" clip-rule="evenodd" d="M139.512 82.3956V82.3956L87.5503 52.3956V52.3956L139.512 82.3956Z" fill="#8BC5E4"/>
<path d="M139.512 82.3956V82.3956ZM139.512 82.3956L87.5503 52.3956M87.5503 52.3956V52.3956Z" stroke="#8BC5E4"/>
<path fill-rule="evenodd" clip-rule="evenodd" d="M139.512 92.1957V92.1957L87.5503 62.1957V62.1957L139.512 92.1957Z" fill="#8BC5E4"/>
<path d="M139.512 92.1957V92.1957ZM139.512 92.1957L87.5503 62.1957M87.5503 62.1957V62.1957Z" stroke="#8BC5E4"/>
<path fill-rule="evenodd" clip-rule="evenodd" d="M128.332 115.111V125.271L76.3701 95.2707V85.1107L128.332 115.111Z" fill="#8BC5E4" stroke="#8BC5E4"/>
<path fill-rule="evenodd" clip-rule="evenodd" d="M128.331 125.271L120.537 129.771L68.5757 99.7706L76.3699 95.2706L128.331 125.271Z" fill="#8BC5E4" stroke="#8BC5E4"/>
<path fill-rule="evenodd" clip-rule="evenodd" d="M120.537 129.771V157.721L68.5757 127.721V99.7706L120.537 129.771Z" fill="#8BC5E4" stroke="#8BC5E4"/>
<path fill-rule="evenodd" clip-rule="evenodd" d="M120.537 157.721L158.512 135.796L106.551 105.796L68.5757 127.721L120.537 157.721Z" fill="#8BC5E4" stroke="#8BC5E4"/>
<path fill-rule="evenodd" clip-rule="evenodd" d="M158.513 135.796V107.846L106.551 77.8457V105.796L158.513 135.796Z" fill="#8BC5E4" stroke="#8BC5E4"/>
<path fill-rule="evenodd" clip-rule="evenodd" d="M158.513 107.846L151.861 111.686L99.8999 81.6857L106.551 77.8457L158.513 107.846Z" fill="#8BC5E4" stroke="#8BC5E4"/>
<path fill-rule="evenodd" clip-rule="evenodd" d="M151.861 111.686V101.526L99.8999 71.5256V81.6856L151.861 111.686Z" fill="#8BC5E4" stroke="#8BC5E4"/>
<path fill-rule="evenodd" clip-rule="evenodd" d="M140.101 95.8457V95.8457L88.1392 65.8457V65.8457L140.101 95.8457Z" fill="#8BC5E4"/>
<path d="M140.101 95.8457V95.8457ZM140.101 95.8457L88.1392 65.8457M88.1392 65.8457V65.8457Z" stroke="#8BC5E4"/>
<path fill-rule="evenodd" clip-rule="evenodd" d="M149.255 103.031V113.191L97.2935 83.1906V73.0306L149.255 103.031Z" fill="#8BC5E4" stroke="#8BC5E4"/>
<path fill-rule="evenodd" clip-rule="evenodd" d="M149.255 113.191L130.939 123.766L78.9771 93.7657L97.2935 83.1907L149.255 113.191Z" fill="#8BC5E4" stroke="#8BC5E4"/>
<path fill-rule="evenodd" clip-rule="evenodd" d="M130.939 123.766V113.606L78.9771 83.6057V93.7657L130.939 123.766Z" fill="#8BC5E4" stroke="#8BC5E4"/>
<path fill-rule="evenodd" clip-rule="evenodd" d="M140.101 98.6456V98.6456L88.1392 68.6456V68.6456L140.101 98.6456Z" fill="#8BC5E4"/>
<path d="M140.101 98.6456V98.6456ZM140.101 98.6456L88.1392 68.6456M88.1392 68.6456V68.6456Z" stroke="#8BC5E4"/>
<path fill-rule="evenodd" clip-rule="evenodd" d="M140.568 132.416V138.976L88.6069 108.976V102.416L140.568 132.416Z" fill="#8BC5E4" stroke="#8BC5E4"/>
<path fill-rule="evenodd" clip-rule="evenodd" d="M140.569 138.976L138.482 140.181L86.52 110.181L88.6071 108.976L140.569 138.976Z" fill="#8BC5E4" stroke="#8BC5E4"/>
<path fill-rule="evenodd" clip-rule="evenodd" d="M138.482 140.181V133.621L86.52 103.621V110.181L138.482 140.181Z" fill="#8BC5E4" stroke="#8BC5E4"/>
<path fill-rule="evenodd" clip-rule="evenodd" d="M139.529 127.586V127.586L87.5679 97.5857V97.5857L139.529 127.586Z" fill="#8BC5E4"/>
<path d="M139.529 127.586V127.586ZM139.529 127.586L87.5679 97.5857M87.5679 97.5857V97.5857Z" stroke="#8BC5E4"/>
<path fill-rule="evenodd" clip-rule="evenodd" d="M70.1261 113.656C60.6865 119.106 52.9615 131.866 52.9615 142.016L1 112.016C1 101.866 8.72495 89.1056 18.1646 83.6556L70.1261 113.656Z" fill="#8BC5E4" stroke="#8BC5E4"/>
<path fill-rule="evenodd" clip-rule="evenodd" d="M52.9615 229.646C52.9615 234.116 54.4571 237.363 56.9362 239.133L4.97467 209.133C2.49555 207.363 1 204.116 1 199.646L52.9615 229.646Z" fill="#8BC5E4" stroke="#8BC5E4"/>
<path fill-rule="evenodd" clip-rule="evenodd" d="M56.9361 239.133C60.0914 241.386 64.8399 241.248 70.1261 238.196L18.1646 208.196C12.8783 211.248 8.12986 211.386 4.97461 209.133L56.9361 239.133Z" fill="#8BC5E4" stroke="#8BC5E4"/>
<path fill-rule="evenodd" clip-rule="evenodd" d="M98.3326 240.171C93.9246 242.716 90.3565 248.616 90.3565 253.356L38.395 223.356C38.395 218.616 41.963 212.716 46.3711 210.171L98.3326 240.171Z" fill="#8BC5E4" stroke="#8BC5E4"/>
<path fill-rule="evenodd" clip-rule="evenodd" d="M90.3565 253.356C90.3565 255.437 91.0473 256.947 92.1965 257.769L40.2349 227.769C39.0858 226.947 38.395 225.437 38.395 223.356L90.3565 253.356Z" fill="#8BC5E4" stroke="#8BC5E4"/>
<path fill-rule="evenodd" clip-rule="evenodd" d="M92.1964 257.769C93.659 258.815 95.864 258.746 98.3326 257.321L46.371 227.321C43.9025 228.746 41.6974 228.815 40.2349 227.769L92.1964 257.769Z" fill="#8BC5E4" stroke="#8BC5E4"/>
<path fill-rule="evenodd" clip-rule="evenodd" d="M179.982 210.181C184.39 207.636 187.966 201.731 187.966 197.001L136.005 167.001C136.005 171.731 132.428 177.636 128.02 180.181L179.982 210.181Z" fill="#8BC5E4" stroke="#8BC5E4"/>
<path fill-rule="evenodd" clip-rule="evenodd" d="M187.966 197.001C187.966 194.915 187.274 193.404 186.123 192.581L134.161 162.581C135.312 163.404 136.005 164.915 136.005 167.001L187.966 197.001Z" fill="#8BC5E4" stroke="#8BC5E4"/>
<path fill-rule="evenodd" clip-rule="evenodd" d="M186.123 192.581C184.658 191.535 182.45 191.605 179.982 193.031L128.02 163.031C130.489 161.605 132.696 161.535 134.161 162.581L186.123 192.581Z" fill="#8BC5E4" stroke="#8BC5E4"/>
<path fill-rule="evenodd" clip-rule="evenodd" d="M208.984 158.026C218.441 152.566 226.166 139.806 226.166 129.646L174.205 99.6456C174.205 109.806 166.48 122.566 157.023 128.026L208.984 158.026Z" fill="#8BC5E4" stroke="#8BC5E4"/>
<path fill-rule="evenodd" clip-rule="evenodd" d="M226.167 42.0157C226.167 37.5497 224.671 34.3053 222.191 32.5372L170.229 2.53723C172.71 4.3053 174.205 7.54968 174.205 12.0157L226.167 42.0157Z" fill="#8BC5E4" stroke="#8BC5E4"/>
<path fill-rule="evenodd" clip-rule="evenodd" d="M222.19 32.5373C219.033 30.287 214.28 30.4281 208.984 33.4857L157.023 3.48572C162.319 0.428116 167.072 0.286996 170.229 2.53727L222.19 32.5373Z" fill="#8BC5E4" stroke="#8BC5E4"/>
<path fill-rule="evenodd" clip-rule="evenodd" d="M208.984 41.4957C211.822 39.8577 214.34 39.642 216.104 40.6363L164.143 10.6363C162.379 9.64199 159.86 9.85768 157.023 11.4957L208.984 41.4957Z" fill="#8BC5E4" stroke="#8BC5E4"/>
<path fill-rule="evenodd" clip-rule="evenodd" d="M216.105 40.6362C217.733 41.554 218.719 43.5028 218.719 46.3156L166.757 16.3156C166.757 13.5028 165.772 11.554 164.143 10.6362L216.105 40.6362Z" fill="#8BC5E4" stroke="#8BC5E4"/>
<path fill-rule="evenodd" clip-rule="evenodd" d="M218.719 133.946C218.719 139.806 214.44 146.876 208.984 150.026L157.023 120.026C162.479 116.876 166.757 109.806 166.757 103.946L218.719 133.946Z" fill="#8BC5E4" stroke="#8BC5E4"/>
<path fill-rule="evenodd" clip-rule="evenodd" d="M70.1263 230.196C67.2937 231.831 64.7796 232.039 63.0187 231.037L11.0571 201.037C12.8181 202.039 15.3322 201.831 18.1648 200.196L70.1263 230.196Z" fill="#8BC5E4" stroke="#8BC5E4"/>
<path fill-rule="evenodd" clip-rule="evenodd" d="M63.0184 231.037C61.393 230.113 60.4093 228.159 60.4093 225.346L8.44775 195.346C8.44775 198.159 9.43145 200.113 11.0569 201.037L63.0184 231.037Z" fill="#8BC5E4" stroke="#8BC5E4"/>
<path fill-rule="evenodd" clip-rule="evenodd" d="M60.4093 137.716C60.4093 131.856 64.6788 124.811 70.1261 121.666L18.1646 91.6656C12.7173 94.8106 8.44775 101.856 8.44775 107.716L60.4093 137.716Z" fill="#8BC5E4" stroke="#8BC5E4"/>
<path fill-rule="evenodd" clip-rule="evenodd" d="M139.512 82.3956C117.506 95.1006 99.5621 124.741 99.5621 148.391L47.6006 118.391C47.6006 94.7406 65.5446 65.1006 87.5503 52.3956L139.512 82.3956Z" fill="#8BC5E4" stroke="#8BC5E4"/>
<path fill-rule="evenodd" clip-rule="evenodd" d="M99.5621 148.391C99.5621 158.641 102.931 166.136 108.543 170.276L56.5813 140.276C50.9694 136.136 47.6006 128.641 47.6006 118.391L99.5621 148.391Z" fill="#8BC5E4" stroke="#8BC5E4"/>
<path fill-rule="evenodd" clip-rule="evenodd" d="M118.52 173.956C124.625 174.501 131.822 172.706 139.512 168.266L87.5506 138.266C79.8603 142.706 72.6636 144.501 66.5581 143.956L118.52 173.956Z" fill="#8BC5E4" stroke="#8BC5E4"/>
<path fill-rule="evenodd" clip-rule="evenodd" d="M139.512 168.266C161.526 155.556 179.47 125.906 179.47 102.256L127.509 72.2556C127.509 95.9056 109.565 125.556 87.5503 138.266L139.512 168.266Z" fill="#8BC5E4" stroke="#8BC5E4"/>
<path fill-rule="evenodd" clip-rule="evenodd" d="M179.471 102.256C179.471 91.8497 175.997 84.2954 170.231 80.1807L118.269 50.1807C124.035 54.2954 127.509 61.8497 127.509 72.2557L179.471 102.256Z" fill="#8BC5E4" stroke="#8BC5E4"/>
<path fill-rule="evenodd" clip-rule="evenodd" d="M170.23 80.1806C162.891 74.9437 151.84 75.2781 139.512 82.3957L87.5503 52.3957C99.8783 45.2781 110.93 44.9437 118.269 50.1806L170.23 80.1806Z" fill="#8BC5E4" stroke="#8BC5E4"/>
<path fill-rule="evenodd" clip-rule="evenodd" d="M139.512 92.1957C148.397 87.0659 156.38 86.4504 161.997 89.623L110.036 59.623C104.419 56.4504 96.4354 57.0659 87.5503 62.1957L139.512 92.1957Z" fill="#8BC5E4" stroke="#8BC5E4"/>
<path fill-rule="evenodd" clip-rule="evenodd" d="M161.998 89.623C167.183 92.5516 170.351 98.7079 170.351 107.521L118.39 77.5207C118.39 68.7079 115.221 62.5516 110.036 59.623L161.998 89.623Z" fill="#8BC5E4" stroke="#8BC5E4"/>
<path fill-rule="evenodd" clip-rule="evenodd" d="M170.351 107.521C170.351 125.881 156.598 148.601 139.512 158.466L87.5503 128.466C104.637 118.601 118.389 95.8806 118.389 77.5206L170.351 107.521Z" fill="#8BC5E4" stroke="#8BC5E4"/>
<path fill-rule="evenodd" clip-rule="evenodd" d="M139.512 158.466C130.632 163.593 122.65 164.204 117.034 161.029L65.0728 131.029C70.6888 134.204 78.6701 133.593 87.5507 128.466L139.512 158.466Z" fill="#8BC5E4" stroke="#8BC5E4"/>
<path fill-rule="evenodd" clip-rule="evenodd" d="M117.034 161.029C111.85 158.097 108.682 151.939 108.682 143.126L56.7202 113.126C56.7202 121.939 59.8888 128.097 65.0728 131.029L117.034 161.029Z" fill="#8BC5E4" stroke="#8BC5E4"/>
<path fill-rule="evenodd" clip-rule="evenodd" d="M108.682 143.126C108.682 124.766 122.434 102.056 139.512 92.1957L87.5507 62.1957C70.4727 72.0557 56.7202 94.7657 56.7202 113.126L108.682 143.126Z" fill="#8BC5E4" stroke="#8BC5E4"/>
<path fill-rule="evenodd" clip-rule="evenodd" d="M140.101 95.8457C132.618 100.166 128.332 109.241 128.332 115.111L76.3701 85.1107C76.3701 79.2407 80.6569 70.1657 88.1394 65.8457L140.101 95.8457Z" fill="#8BC5E4" stroke="#8BC5E4"/>
<path fill-rule="evenodd" clip-rule="evenodd" d="M151.861 101.526C151.861 98.4192 150.798 96.246 149.074 95.0945L97.1123 65.0945C98.8369 66.246 99.8999 68.4192 99.8999 71.5256L151.861 101.526Z" fill="#8BC5E4" stroke="#8BC5E4"/>
<path fill-rule="evenodd" clip-rule="evenodd" d="M149.074 95.0945C146.879 93.6289 143.612 93.8184 140.101 95.8456L88.1392 65.8456C91.6504 63.8184 94.9172 63.6289 97.1122 65.0945L149.074 95.0945Z" fill="#8BC5E4" stroke="#8BC5E4"/>
<path fill-rule="evenodd" clip-rule="evenodd" d="M140.101 98.6457C142.641 97.1793 145.014 96.9392 146.708 97.8184L94.7461 67.8184C93.0527 66.9392 90.679 67.1793 88.1392 68.6457L140.101 98.6457Z" fill="#8BC5E4" stroke="#8BC5E4"/>
<path fill-rule="evenodd" clip-rule="evenodd" d="M146.708 97.8184C148.271 98.63 149.255 100.395 149.255 103.031L97.2935 73.0306C97.2935 70.3954 96.3098 68.63 94.7466 67.8184L146.708 97.8184Z" fill="#8BC5E4" stroke="#8BC5E4"/>
<path fill-rule="evenodd" clip-rule="evenodd" d="M130.939 113.606C130.939 109.176 134.039 102.146 140.101 98.6456L88.1396 68.6456C82.0774 72.1456 78.9771 79.1756 78.9771 83.6056L130.939 113.606Z" fill="#8BC5E4" stroke="#8BC5E4"/>
<path fill-rule="evenodd" clip-rule="evenodd" d="M139.529 127.586C140.286 127.149 140.968 127.099 141.448 127.371L89.4861 97.3706C89.0061 97.0987 88.3244 97.1488 87.5679 97.5856L139.529 127.586Z" fill="#8BC5E4" stroke="#8BC5E4"/>
<path fill-rule="evenodd" clip-rule="evenodd" d="M141.447 127.371C141.89 127.622 142.162 128.147 142.162 128.896L90.2003 98.8957C90.2003 98.1469 89.929 97.6216 89.4858 97.3706L141.447 127.371Z" fill="#8BC5E4" stroke="#8BC5E4"/>
<path fill-rule="evenodd" clip-rule="evenodd" d="M142.162 128.896C142.162 130.016 141.538 131.406 140.568 132.416L88.6069 102.416C89.5769 101.406 90.2004 100.016 90.2004 98.8956L142.162 128.896Z" fill="#8BC5E4" stroke="#8BC5E4"/>
<path fill-rule="evenodd" clip-rule="evenodd" d="M138.481 133.621C138.171 133.656 137.896 133.611 137.666 133.497L85.7041 103.497C85.9345 103.611 86.2094 103.656 86.5198 103.621L138.481 133.621Z" fill="#8BC5E4" stroke="#8BC5E4"/>
<path fill-rule="evenodd" clip-rule="evenodd" d="M137.666 133.497C137.176 133.256 136.888 132.702 136.888 131.941L84.9263 101.941C84.9263 102.702 85.2146 103.256 85.7041 103.497L137.666 133.497Z" fill="#8BC5E4" stroke="#8BC5E4"/>
<path fill-rule="evenodd" clip-rule="evenodd" d="M136.888 131.941C136.888 130.381 138.066 128.431 139.529 127.586L87.5676 97.5857C86.1041 98.4307 84.9263 100.381 84.9263 101.941L136.888 131.941Z" fill="#8BC5E4" stroke="#8BC5E4"/>
<path fill-rule="evenodd" clip-rule="evenodd" d="M70.126 121.666L208.985 41.4957C214.441 38.3457 218.719 40.4557 218.719 46.3157V133.946C218.719 139.806 214.441 146.876 208.985 150.026L70.126 230.196C64.6787 233.341 60.4092 231.206 60.4092 225.346V137.716C60.4092 131.856 64.6787 124.811 70.126 121.666ZM99.5623 148.391C99.5623 124.741 117.506 95.1007 139.512 82.3957C161.526 69.6857 179.47 78.6057 179.47 102.256C179.47 125.906 161.526 155.556 139.512 168.266C131.822 172.706 124.625 174.501 118.52 173.956L95.5352 212.756L86.0003 208.341L108.543 170.276C102.931 166.136 99.5623 158.641 99.5623 148.391Z" fill="white"/>
<path fill-rule="evenodd" clip-rule="evenodd" d="M139.512 92.1957C156.599 82.3307 170.351 89.1607 170.351 107.521C170.351 125.881 156.599 148.601 139.512 158.466C122.434 168.326 108.681 161.486 108.681 143.126C108.681 124.766 122.434 102.056 139.512 92.1957ZM128.332 115.111C128.332 109.241 132.618 100.166 140.101 95.8457C146.371 92.2257 151.862 94.4657 151.862 101.526V111.686L158.513 107.846V135.796L120.537 157.721V129.771L128.332 125.271V115.111Z" fill="white"/>
<path d="M140.101 98.6457C144.985 95.8257 149.255 97.5407 149.255 103.031V113.191L130.938 123.766V113.606C130.938 109.176 134.039 102.146 140.101 98.6457Z" fill="white"/>
<path d="M139.529 127.586C140.984 126.746 142.162 127.336 142.162 128.896C142.162 130.016 141.539 131.406 140.569 132.416V138.976L138.481 140.181V133.621C137.511 133.731 136.888 133.061 136.888 131.941C136.888 130.381 138.066 128.431 139.529 127.586Z" fill="white"/>
<path fill-rule="evenodd" clip-rule="evenodd" d="M52.9614 142.016C52.9614 131.866 60.6864 119.106 70.126 113.656L208.985 33.4857C218.442 28.0257 226.167 31.8657 226.167 42.0157V129.646C226.167 139.806 218.442 152.566 208.985 158.026L157.716 187.626L124.14 207.011L70.126 238.196C60.6864 243.646 52.9614 239.806 52.9614 229.646V142.016ZM208.985 41.4957L70.126 121.666C64.6787 124.811 60.4092 131.856 60.4092 137.716V225.346C60.4092 231.206 64.6787 233.341 70.126 230.196L208.985 150.026C214.441 146.876 218.719 139.806 218.719 133.946V46.3157C218.719 40.4557 214.441 38.3457 208.985 41.4957ZM99.5623 148.391C99.5623 124.741 117.506 95.1007 139.512 82.3957C161.526 69.6857 179.47 78.6057 179.47 102.256C179.47 125.906 161.526 155.556 139.512 168.266C131.822 172.706 124.625 174.501 118.52 173.956L95.5352 212.756L86.0003 208.341L108.543 170.276C102.931 166.136 99.5623 158.641 99.5623 148.391ZM170.351 107.521C170.351 89.1607 156.599 82.3307 139.512 92.1957C122.434 102.056 108.681 124.766 108.681 143.126C108.681 161.486 122.434 168.326 139.512 158.466C156.599 148.601 170.351 125.881 170.351 107.521ZM128.332 115.111C128.332 109.241 132.618 100.166 140.101 95.8457C146.371 92.2257 151.862 94.4657 151.862 101.526V111.686L158.513 107.846V135.796L120.537 157.721V129.771L128.332 125.271V115.111ZM149.255 103.031C149.255 97.5407 144.985 95.8257 140.101 98.6457C134.039 102.146 130.938 109.176 130.938 113.606V123.766L149.255 113.191V103.031ZM142.162 128.896C142.162 127.336 140.984 126.746 139.529 127.586C138.066 128.431 136.888 130.381 136.888 131.941C136.888 133.061 137.511 133.731 138.481 133.621V140.181L140.569 138.976V132.416C141.539 131.406 142.162 130.016 142.162 128.896Z" fill="#8BC5E4"/>
<path d="M124.14 207.011V225.271L98.3325 240.171C93.9244 242.716 90.3564 248.616 90.3564 253.356C90.3564 258.086 93.9244 259.866 98.3325 257.321L179.981 210.181C184.389 207.636 187.966 201.731 187.966 197.001C187.966 192.261 184.389 190.486 179.981 193.031L157.716 205.886V187.626L124.14 207.011Z" fill="white"/>
<path d="M124.14 207.011L70.126 238.196C60.6864 243.646 52.9614 239.806 52.9614 229.646V142.016C52.9614 131.866 60.6864 119.106 70.126 113.656L208.985 33.4857C218.442 28.0257 226.167 31.8657 226.167 42.0157V129.646C226.167 139.806 218.442 152.566 208.985 158.026L157.716 187.626M124.14 207.011V225.271L98.3325 240.171C93.9244 242.716 90.3564 248.616 90.3564 253.356C90.3564 258.086 93.9244 259.866 98.3325 257.321L179.981 210.181C184.389 207.636 187.966 201.731 187.966 197.001C187.966 192.261 184.389 190.486 179.981 193.031L157.716 205.886V187.626M124.14 207.011L157.716 187.626M70.126 121.666L208.985 41.4957C214.441 38.3457 218.719 40.4557 218.719 46.3157V133.946C218.719 139.806 214.441 146.876 208.985 150.026L70.126 230.196C64.6787 233.341 60.4092 231.206 60.4092 225.346V137.716C60.4092 131.856 64.6787 124.811 70.126 121.666ZM139.512 82.3957C117.506 95.1007 99.5623 124.741 99.5623 148.391C99.5623 158.641 102.931 166.136 108.543 170.276L86.0003 208.341L95.5352 212.756L118.52 173.956C124.625 174.501 131.822 172.706 139.512 168.266C161.526 155.556 179.47 125.906 179.47 102.256C179.47 78.6057 161.526 69.6857 139.512 82.3957ZM139.512 92.1957C156.599 82.3307 170.351 89.1607 170.351 107.521C170.351 125.881 156.599 148.601 139.512 158.466C122.434 168.326 108.681 161.486 108.681 143.126C108.681 124.766 122.434 102.056 139.512 92.1957ZM140.101 95.8457C132.618 100.166 128.332 109.241 128.332 115.111V125.271L120.537 129.771V157.721L158.513 135.796V107.846L151.862 111.686V101.526C151.862 94.4657 146.371 92.2257 140.101 95.8457ZM140.101 98.6457C144.985 95.8257 149.255 97.5407 149.255 103.031V113.191L130.938 123.766V113.606C130.938 109.176 134.039 102.146 140.101 98.6457ZM139.529 127.586C140.984 126.746 142.162 127.336 142.162 128.896C142.162 130.016 141.539 131.406 140.569 132.416V138.976L138.481 140.181V133.621C137.511 133.731 136.888 133.061 136.888 131.941C136.888 130.381 138.066 128.431 139.529 127.586Z" stroke="#8BC5E4"/>
</svg>
