<svg width="226" height="536" viewBox="0 0 226 536" fill="none" xmlns="http://www.w3.org/2000/svg">
<path d="M139.369 104.605L127.765 124.095L75.8032 94.0953L87.4079 74.6053L139.369 104.605Z" fill="#8BC5E4"/>
<path d="M127.765 124.095L135.975 119.355L84.0131 89.3553L75.8032 94.0953L127.765 124.095Z" fill="#8BC5E4"/>
<path d="M135.974 119.355V146.525L84.0129 116.525V89.3553L135.974 119.355Z" fill="#8BC5E4"/>
<path d="M111.613 188.17L88.4211 201.56L36.4595 171.56L59.6517 158.17L111.613 188.17Z" fill="#8BC5E4"/>
<path d="M88.4211 201.56V192.1L36.4595 162.1V171.56L88.4211 201.56Z" fill="#8BC5E4"/>
<path d="M88.4212 192.1L77.3187 211.87L25.3572 181.87L36.4596 162.1L88.4212 192.1Z" fill="#8BC5E4"/>
<path d="M77.3187 211.87L88.4212 218.3L36.4596 188.3L25.3572 181.87L77.3187 211.87Z" fill="#8BC5E4"/>
<path d="M88.4211 218.3V209.53L36.4595 179.53V188.3L88.4211 218.3Z" fill="#8BC5E4"/>
<path d="M88.4211 209.53L111.094 196.44L59.1321 166.44L36.4595 179.53L88.4211 209.53Z" fill="#8BC5E4"/>
<path d="M135.974 208.955V236.145L84.0129 206.145V178.955L135.974 208.955Z" fill="#8BC5E4"/>
<path d="M135.975 236.145L127.765 240.885L75.8032 210.885L84.0131 206.145L135.975 236.145Z" fill="#8BC5E4"/>
<path d="M127.765 240.885L139.369 246.965L87.4079 216.965L75.8032 210.885L127.765 240.885Z" fill="#8BC5E4"/>
<path d="M139.369 246.965L150.515 227.75L98.5535 197.75L87.4077 216.965L139.369 246.965Z" fill="#8BC5E4"/>
<path d="M150.515 227.75L142.894 232.15L90.9326 202.15L98.5537 197.75L150.515 227.75Z" fill="#8BC5E4"/>
<path d="M142.894 232.15V205.55L90.9326 175.55V202.15L142.894 232.15Z" fill="#8BC5E4"/>
<path d="M167.177 164.06L189.859 150.965L137.897 120.965L115.216 134.06L167.177 164.06Z" fill="#8BC5E4"/>
<path d="M189.859 150.965V159.735L137.897 129.735V120.965L189.859 150.965Z" fill="#8BC5E4"/>
<path d="M189.859 159.735L200.961 140.485L149 110.485L137.897 129.735L189.859 159.735Z" fill="#8BC5E4"/>
<path d="M200.961 140.485L189.859 133.535L137.897 103.535L149 110.485L200.961 140.485Z" fill="#8BC5E4"/>
<path d="M189.859 133.535V142.995L137.897 112.995V103.535L189.859 133.535Z" fill="#8BC5E4"/>
<path d="M189.859 142.995L166.658 156.39L114.696 126.39L137.897 112.995L189.859 142.995Z" fill="#8BC5E4"/>
<path d="M142.894 141.95V115.36L90.9326 85.3604V111.95L142.894 141.95Z" fill="#8BC5E4"/>
<path d="M142.894 115.36L150.515 110.96L98.5537 80.9603L90.9326 85.3603L142.894 115.36Z" fill="#8BC5E4"/>
<path d="M150.515 110.96L139.369 104.605L87.4077 74.6053L98.5535 80.9603L150.515 110.96Z" fill="#8BC5E4"/>
<path d="M139.369 104.605L87.4077 74.6053L139.369 104.605Z" fill="#8BC5E4"/>
<path d="M185.251 97.0153L185.252 97.0159L133.291 67.0159L133.29 67.0153L185.251 97.0153Z" fill="#8BC5E4"/>
<path d="M184.351 97.3153L132.389 67.3153L184.351 97.3153Z" fill="#8BC5E4"/>
<path d="M93.929 149.52L41.9675 119.52L93.929 149.52Z" fill="#8BC5E4"/>
<path d="M160.665 170.37L108.703 140.37L160.665 170.37Z" fill="#8BC5E4"/>
<path d="M93.0283 254.82L93.0272 254.82L41.0657 224.82L41.0668 224.82L93.0283 254.82Z" fill="#8BC5E4"/>
<path d="M117.589 195.26L65.6274 165.26L117.589 195.26Z" fill="#8BC5E4"/>
<path d="M144.765 330.76V314.79L92.8032 284.79V300.76L144.765 330.76Z" fill="#8BC5E4"/>
<path d="M144.765 314.79L181.476 293.595L129.514 263.595L92.8032 284.79L144.765 314.79Z" fill="#8BC5E4"/>
<path d="M181.475 293.595V280.985L129.514 250.985V263.595L181.475 293.595Z" fill="#8BC5E4"/>
<path d="M181.475 280.985L212.739 284.295L160.777 254.295L129.514 250.985L181.475 280.985Z" fill="#8BC5E4"/>
<path d="M212.739 284.295L181.475 323.375L129.514 293.375L160.777 254.295L212.739 284.295Z" fill="#8BC5E4"/>
<path d="M181.475 323.375V309.565L129.514 279.565V293.375L181.475 323.375Z" fill="#8BC5E4"/>
<path d="M181.476 309.565L144.765 330.76L92.8032 300.76L129.514 279.565L181.476 309.565Z" fill="#8BC5E4"/>
<path d="M144.765 330.76L92.8032 300.76L144.765 330.76Z" fill="#8BC5E4"/>
<path d="M128.908 414.995V399.035L76.9463 369.035V384.995L128.908 414.995Z" fill="#8BC5E4"/>
<path d="M128.908 399.035L165.619 377.84L113.657 347.84L76.9463 369.035L128.908 399.035Z" fill="#8BC5E4"/>
<path d="M165.619 377.84V365.22L113.657 335.22V347.84L165.619 377.84Z" fill="#8BC5E4"/>
<path d="M165.619 365.22L196.882 368.53L144.921 338.53L113.657 335.22L165.619 365.22Z" fill="#8BC5E4"/>
<path d="M196.882 368.53L165.619 407.61L113.657 377.61L144.921 338.53L196.882 368.53Z" fill="#8BC5E4"/>
<path d="M165.619 407.61V393.8L113.657 363.8V377.61L165.619 407.61Z" fill="#8BC5E4"/>
<path d="M165.619 393.8L128.908 414.995L76.9463 384.995L113.657 363.8L165.619 393.8Z" fill="#8BC5E4"/>
<path d="M128.908 414.995L76.9463 384.995L128.908 414.995Z" fill="#8BC5E4"/>
<path d="M149.502 364.625V348.655L97.5403 318.655V334.625L149.502 364.625Z" fill="#8BC5E4"/>
<path d="M149.502 348.655L112.791 369.85L60.8296 339.85L97.5404 318.655L149.502 348.655Z" fill="#8BC5E4"/>
<path d="M112.791 369.85V357.24L60.8296 327.24V339.85L112.791 369.85Z" fill="#8BC5E4"/>
<path d="M112.791 357.24L81.5274 396.65L29.5659 366.65L60.8294 327.24L112.791 357.24Z" fill="#8BC5E4"/>
<path d="M81.5274 396.65L112.791 399.63L60.8294 369.63L29.5659 366.65L81.5274 396.65Z" fill="#8BC5E4"/>
<path d="M112.791 399.63V385.82L60.8296 355.82V369.63L112.791 399.63Z" fill="#8BC5E4"/>
<path d="M112.791 385.82L149.502 364.625L97.5404 334.625L60.8296 355.82L112.791 385.82Z" fill="#8BC5E4"/>
<path d="M149.502 364.625L97.5403 334.625L149.502 364.625Z" fill="#8BC5E4"/>
<path d="M132.363 450.89V434.92L80.4016 404.92V420.89L132.363 450.89Z" fill="#8BC5E4"/>
<path d="M132.363 434.92L95.6524 456.115L43.6909 426.115L80.4017 404.92L132.363 434.92Z" fill="#8BC5E4"/>
<path d="M95.6524 456.115V443.505L43.6909 413.505V426.115L95.6524 456.115Z" fill="#8BC5E4"/>
<path d="M95.6523 443.505L64.3888 482.915L12.4272 452.915L43.6908 413.505L95.6523 443.505Z" fill="#8BC5E4"/>
<path d="M64.3888 482.915L95.6523 485.895L43.6908 455.895L12.4272 452.915L64.3888 482.915Z" fill="#8BC5E4"/>
<path d="M95.6524 485.895V472.085L43.6909 442.085V455.895L95.6524 485.895Z" fill="#8BC5E4"/>
<path d="M95.6524 472.085L132.363 450.89L80.4017 420.89L43.6909 442.085L95.6524 472.085Z" fill="#8BC5E4"/>
<path d="M132.363 450.89L80.4016 420.89L132.363 450.89Z" fill="#8BC5E4"/>
<path d="M62.5875 124.705L214.54 36.9753L162.579 6.97534L10.626 94.7053L62.5875 124.705Z" fill="#8BC5E4"/>
<path d="M220.369 40.3103V216.21L168.407 186.21V10.3103L220.369 40.3103Z" fill="#8BC5E4"/>
<path d="M214.54 226.285L62.5875 314.015L10.626 284.015L162.579 196.285L214.54 226.285Z" fill="#8BC5E4"/>
<path d="M56.7591 310.67V134.77L4.79761 104.77V280.67L56.7591 310.67Z" fill="#8BC5E4"/>
<path d="M62.5875 124.705L10.626 94.7053L62.5875 124.705Z" fill="#8BC5E4"/>
<path d="M51.9615 137.54V313.44L0 283.44V107.54L51.9615 137.54Z" fill="#8BC5E4"/>
<path d="M62.5875 319.545L214.54 231.815L162.579 201.815L10.626 289.545L62.5875 319.545Z" fill="#8BC5E4"/>
<path d="M225.167 213.44V37.5403L173.205 7.54028V183.44L225.167 213.44Z" fill="#8BC5E4"/>
<path d="M214.54 31.4453L62.5875 119.175L10.626 89.1753L162.579 1.44531L214.54 31.4453Z" fill="#8BC5E4"/>
<path d="M62.5875 119.175L10.626 89.1753L62.5875 119.175Z" fill="#8BC5E4"/>
<path d="M62.5875 334.335L214.54 246.605L162.579 216.605L10.626 304.335L62.5875 334.335Z" fill="#8BC5E4"/>
<path d="M220.369 249.95V425.84L168.407 395.84V219.95L220.369 249.95Z" fill="#8BC5E4"/>
<path d="M214.54 435.915L62.5875 523.645L10.626 493.645L162.579 405.915L214.54 435.915Z" fill="#8BC5E4"/>
<path d="M56.7591 520.3V344.41L4.79761 314.41V490.3L56.7591 520.3Z" fill="#8BC5E4"/>
<path d="M62.5875 334.335L10.626 304.335L62.5875 334.335Z" fill="#8BC5E4"/>
<path d="M51.9615 347.18V523.07L0 493.07V317.18L51.9615 347.18Z" fill="#8BC5E4"/>
<path d="M62.5875 529.175L214.54 441.445L162.579 411.445L10.626 499.175L62.5875 529.175Z" fill="#8BC5E4"/>
<path d="M225.167 423.07V247.18L173.205 217.18V393.07L225.167 423.07Z" fill="#8BC5E4"/>
<path d="M214.54 241.075L62.5875 328.805L10.626 298.805L162.579 211.075L214.54 241.075Z" fill="#8BC5E4"/>
<path d="M62.5875 328.805L10.626 298.805L62.5875 328.805Z" fill="#8BC5E4"/>
<path d="M62.5875 124.705L214.54 36.9753L162.579 6.97534L10.626 94.7053L62.5875 124.705Z" fill="#8BC5E4"/>
<path d="M220.369 40.3103V216.21L168.407 186.21V10.3103L220.369 40.3103Z" fill="#8BC5E4"/>
<path d="M214.54 226.285L62.5875 314.015L10.626 284.015L162.579 196.285L214.54 226.285Z" fill="#8BC5E4"/>
<path d="M56.7591 310.67V134.77L4.79761 104.77V280.67L56.7591 310.67Z" fill="#8BC5E4"/>
<path d="M62.5875 124.705L10.626 94.7053L62.5875 124.705Z" fill="#8BC5E4"/>
<path d="M127.765 124.095L139.369 104.605L87.4079 74.6053L75.8032 94.0953L127.765 124.095Z" fill="#8BC5E4"/>
<path d="M139.369 104.605L150.515 110.96L98.5535 80.9603L87.4077 74.6053L139.369 104.605Z" fill="#8BC5E4"/>
<path d="M150.515 110.96L142.894 115.36L90.9326 85.3603L98.5537 80.9603L150.515 110.96Z" fill="#8BC5E4"/>
<path d="M142.894 115.36V141.95L90.9326 111.95V85.3604L142.894 115.36Z" fill="#8BC5E4"/>
<path d="M166.658 156.39L189.859 142.995L137.897 112.995L114.696 126.39L166.658 156.39Z" fill="#8BC5E4"/>
<path d="M189.859 142.995V133.535L137.897 103.535V112.995L189.859 142.995Z" fill="#8BC5E4"/>
<path d="M189.859 133.535L200.961 140.485L149 110.485L137.897 103.535L189.859 133.535Z" fill="#8BC5E4"/>
<path d="M200.961 140.485L189.859 159.735L137.897 129.735L149 110.485L200.961 140.485Z" fill="#8BC5E4"/>
<path d="M189.859 159.735V150.965L137.897 120.965V129.735L189.859 159.735Z" fill="#8BC5E4"/>
<path d="M189.859 150.965L167.177 164.06L115.216 134.06L137.897 120.965L189.859 150.965Z" fill="#8BC5E4"/>
<path d="M142.894 205.55V232.15L90.9326 202.15V175.55L142.894 205.55Z" fill="#8BC5E4"/>
<path d="M142.894 232.15L150.515 227.75L98.5537 197.75L90.9326 202.15L142.894 232.15Z" fill="#8BC5E4"/>
<path d="M150.515 227.75L139.369 246.965L87.4077 216.965L98.5535 197.75L150.515 227.75Z" fill="#8BC5E4"/>
<path d="M139.369 246.965L127.765 240.885L75.8032 210.885L87.4079 216.965L139.369 246.965Z" fill="#8BC5E4"/>
<path d="M127.765 240.885L135.975 236.145L84.0131 206.145L75.8032 210.885L127.765 240.885Z" fill="#8BC5E4"/>
<path d="M135.974 236.145V208.955L84.0129 178.955V206.145L135.974 236.145Z" fill="#8BC5E4"/>
<path d="M111.094 196.44L88.4211 209.53L36.4595 179.53L59.1321 166.44L111.094 196.44Z" fill="#8BC5E4"/>
<path d="M88.4211 209.53V218.3L36.4595 188.3V179.53L88.4211 209.53Z" fill="#8BC5E4"/>
<path d="M88.4212 218.3L77.3187 211.87L25.3572 181.87L36.4596 188.3L88.4212 218.3Z" fill="#8BC5E4"/>
<path d="M77.3187 211.87L88.4212 192.1L36.4596 162.1L25.3572 181.87L77.3187 211.87Z" fill="#8BC5E4"/>
<path d="M88.4211 192.1V201.56L36.4595 171.56V162.1L88.4211 192.1Z" fill="#8BC5E4"/>
<path d="M88.4211 201.56L111.613 188.17L59.6517 158.17L36.4595 171.56L88.4211 201.56Z" fill="#8BC5E4"/>
<path d="M135.974 146.525V119.355L84.0129 89.3553V116.525L135.974 146.525Z" fill="#8BC5E4"/>
<path d="M135.975 119.355L127.765 124.095L75.8032 94.0953L84.0131 89.3553L135.975 119.355Z" fill="#8BC5E4"/>
<path d="M127.765 124.095L75.8032 94.0953L127.765 124.095Z" fill="#8BC5E4"/>
<path d="M185.251 97.0153L185.252 97.0159L133.291 67.0159L133.29 67.0153L185.251 97.0153Z" fill="#8BC5E4"/>
<path d="M184.351 97.3153L132.389 67.3153L184.351 97.3153Z" fill="#8BC5E4"/>
<path d="M93.929 149.52L41.9675 119.52L93.929 149.52Z" fill="#8BC5E4"/>
<path d="M93.0283 254.82L93.0272 254.82L41.0657 224.82L41.0668 224.82L93.0283 254.82Z" fill="#8BC5E4"/>
<path d="M117.589 195.26L65.6274 165.26L117.589 195.26Z" fill="#8BC5E4"/>
<path d="M160.665 170.37L108.703 140.37L160.665 170.37Z" fill="#8BC5E4"/>
<path d="M62.5875 334.335L214.54 246.605L162.579 216.605L10.626 304.335L62.5875 334.335Z" fill="#8BC5E4"/>
<path d="M220.369 249.95V425.84L168.407 395.84V219.95L220.369 249.95Z" fill="#8BC5E4"/>
<path d="M214.54 435.915L62.5875 523.645L10.626 493.645L162.579 405.915L214.54 435.915Z" fill="#8BC5E4"/>
<path d="M56.7591 520.3V344.41L4.79761 314.41V490.3L56.7591 520.3Z" fill="#8BC5E4"/>
<path d="M62.5875 334.335L10.626 304.335L62.5875 334.335Z" fill="#8BC5E4"/>
<path d="M144.765 314.79V330.76L92.8032 300.76V284.79L144.765 314.79Z" fill="#8BC5E4"/>
<path d="M144.765 330.76L181.476 309.565L129.514 279.565L92.8032 300.76L144.765 330.76Z" fill="#8BC5E4"/>
<path d="M181.475 309.565V323.375L129.514 293.375V279.565L181.475 309.565Z" fill="#8BC5E4"/>
<path d="M181.475 323.375L212.739 284.295L160.777 254.295L129.514 293.375L181.475 323.375Z" fill="#8BC5E4"/>
<path d="M212.739 284.295L181.475 280.985L129.514 250.985L160.777 254.295L212.739 284.295Z" fill="#8BC5E4"/>
<path d="M181.475 280.985V293.595L129.514 263.595V250.985L181.475 280.985Z" fill="#8BC5E4"/>
<path d="M181.476 293.595L144.765 314.79L92.8032 284.79L129.514 263.595L181.476 293.595Z" fill="#8BC5E4"/>
<path d="M144.765 314.79L92.8032 284.79L144.765 314.79Z" fill="#8BC5E4"/>
<path d="M128.908 399.035V414.995L76.9463 384.995V369.035L128.908 399.035Z" fill="#8BC5E4"/>
<path d="M128.908 414.995L165.619 393.8L113.657 363.8L76.9463 384.995L128.908 414.995Z" fill="#8BC5E4"/>
<path d="M165.619 393.8V407.61L113.657 377.61V363.8L165.619 393.8Z" fill="#8BC5E4"/>
<path d="M165.619 407.61L196.882 368.53L144.921 338.53L113.657 377.61L165.619 407.61Z" fill="#8BC5E4"/>
<path d="M196.882 368.53L165.619 365.22L113.657 335.22L144.921 338.53L196.882 368.53Z" fill="#8BC5E4"/>
<path d="M165.619 365.22V377.84L113.657 347.84V335.22L165.619 365.22Z" fill="#8BC5E4"/>
<path d="M165.619 377.84L128.908 399.035L76.9463 369.035L113.657 347.84L165.619 377.84Z" fill="#8BC5E4"/>
<path d="M128.908 399.035L76.9463 369.035L128.908 399.035Z" fill="#8BC5E4"/>
<path d="M149.502 348.655V364.625L97.5403 334.625V318.655L149.502 348.655Z" fill="#8BC5E4"/>
<path d="M149.502 364.625L112.791 385.82L60.8296 355.82L97.5404 334.625L149.502 364.625Z" fill="#8BC5E4"/>
<path d="M112.791 385.82V399.63L60.8296 369.63V355.82L112.791 385.82Z" fill="#8BC5E4"/>
<path d="M112.791 399.63L81.5274 396.65L29.5659 366.65L60.8294 369.63L112.791 399.63Z" fill="#8BC5E4"/>
<path d="M81.5274 396.65L112.791 357.24L60.8294 327.24L29.5659 366.65L81.5274 396.65Z" fill="#8BC5E4"/>
<path d="M112.791 357.24V369.85L60.8296 339.85V327.24L112.791 357.24Z" fill="#8BC5E4"/>
<path d="M112.791 369.85L149.502 348.655L97.5404 318.655L60.8296 339.85L112.791 369.85Z" fill="#8BC5E4"/>
<path d="M149.502 348.655L97.5403 318.655L149.502 348.655Z" fill="#8BC5E4"/>
<path d="M132.363 434.92V450.89L80.4016 420.89V404.92L132.363 434.92Z" fill="#8BC5E4"/>
<path d="M132.363 450.89L95.6524 472.085L43.6909 442.085L80.4017 420.89L132.363 450.89Z" fill="#8BC5E4"/>
<path d="M95.6524 472.085V485.895L43.6909 455.895V442.085L95.6524 472.085Z" fill="#8BC5E4"/>
<path d="M95.6523 485.895L64.3888 482.915L12.4272 452.915L43.6908 455.895L95.6523 485.895Z" fill="#8BC5E4"/>
<path d="M64.3888 482.915L95.6523 443.505L43.6908 413.505L12.4272 452.915L64.3888 482.915Z" fill="#8BC5E4"/>
<path d="M95.6524 443.505V456.115L43.6909 426.115V413.505L95.6524 443.505Z" fill="#8BC5E4"/>
<path d="M95.6524 456.115L132.363 434.92L80.4017 404.92L43.6909 426.115L95.6524 456.115Z" fill="#8BC5E4"/>
<path d="M132.363 434.92L80.4016 404.92L132.363 434.92Z" fill="#8BC5E4"/>
<path d="M135.975 146.525C135.545 146.35 135.117 146.179 134.691 146.011L82.73 116.011C83.156 116.179 83.584 116.35 84.0131 116.525L135.975 146.525Z" fill="#8BC5E4"/>
<path d="M134.691 146.011C127.249 143.075 120.173 141.082 113.909 140.131L61.948 110.131C68.212 111.082 75.288 113.075 82.73 116.011L134.691 146.011Z" fill="#8BC5E4"/>
<path d="M113.9 140.13C108.461 139.29 103.655 139.205 99.5235 140.09L47.562 110.09C51.6929 109.205 56.4994 109.29 61.938 110.13L113.9 140.13Z" fill="#8BC5E4"/>
<path d="M99.5235 140.09C97.4624 140.53 95.5658 141.195 93.7125 142.335L41.751 112.335C43.6043 111.195 45.5008 110.53 47.562 110.09L99.5235 140.09Z" fill="#8BC5E4"/>
<path d="M93.7125 142.335C91.8592 143.485 89.9106 145.29 88.5077 147.74L36.5461 117.74C37.9491 115.29 39.8977 113.485 41.751 112.335L93.7125 142.335Z" fill="#8BC5E4"/>
<path d="M88.5078 147.74C87.0962 150.205 86.5419 152.775 86.5073 154.925L34.5457 124.925C34.5804 122.775 35.1346 120.205 36.5462 117.74L88.5078 147.74Z" fill="#8BC5E4"/>
<path d="M86.5071 154.925C86.4724 157.085 86.8708 159.035 87.5549 161L35.5934 131C34.9093 129.035 34.5109 127.085 34.5455 124.925L86.5071 154.925Z" fill="#8BC5E4"/>
<path d="M87.555 161C88.9234 164.93 91.4781 168.945 95.0115 173.115L43.05 143.115C39.5166 138.945 36.9618 134.93 35.5935 131L87.555 161Z" fill="#8BC5E4"/>
<path d="M95.0115 173.115C99.0104 177.828 104.281 182.683 110.538 187.373L58.5769 157.373C52.3199 152.683 47.0489 147.828 43.05 143.115L95.0115 173.115Z" fill="#8BC5E4"/>
<path d="M110.534 187.369C110.889 187.635 111.248 187.901 111.609 188.166L59.647 158.166C59.286 157.901 58.927 157.635 58.572 157.369L110.534 187.369Z" fill="#8BC5E4"/>
<path d="M111.094 196.44C104.59 208.765 99.1251 220.08 95.0115 229.675L43.05 199.675C47.1636 190.08 52.6282 178.765 59.1321 166.44L111.094 196.44Z" fill="#8BC5E4"/>
<path d="M95.0115 229.675C91.4695 237.93 88.9234 244.89 87.555 250.4L35.5935 220.4C36.9618 214.89 39.508 207.93 43.05 199.675L95.0115 229.675Z" fill="#8BC5E4"/>
<path d="M87.555 250.4C86.8709 253.165 86.4639 255.58 86.5072 257.685L34.5456 227.685C34.5023 225.58 34.9094 223.165 35.5935 220.4L87.555 250.4Z" fill="#8BC5E4"/>
<path d="M86.5073 257.685C86.5395 259.655 87.0245 261.477 88.2375 262.381L36.276 232.381C35.063 231.477 34.578 229.655 34.5457 227.685L86.5073 257.685Z" fill="#8BC5E4"/>
<path d="M88.2305 262.376C88.3165 262.44 88.4065 262.5 88.4995 262.555L36.538 232.555C36.445 232.5 36.355 232.44 36.269 232.376L88.2305 262.376Z" fill="#8BC5E4"/>
<path d="M88.5077 262.56C88.6004 262.615 88.6964 262.665 88.7944 262.709L36.8329 232.709C36.7349 232.665 36.6389 232.615 36.5461 232.56L88.5077 262.56Z" fill="#8BC5E4"/>
<path d="M88.7945 262.709C90.1675 263.328 91.9785 262.88 93.7075 261.958L41.746 231.958C40.017 232.88 38.206 233.328 36.833 232.709L88.7945 262.709Z" fill="#8BC5E4"/>
<path d="M93.7125 261.955C95.5658 260.955 97.4624 259.43 99.5235 257.49L47.562 227.49C45.5008 229.43 43.6043 230.955 41.751 231.955L93.7125 261.955Z" fill="#8BC5E4"/>
<path d="M99.5235 257.49C103.646 253.61 108.461 247.97 113.9 240.85L61.938 210.85C56.4994 217.97 51.6843 223.61 47.562 227.49L99.5235 257.49Z" fill="#8BC5E4"/>
<path d="M113.899 240.85C120.525 232.195 128.059 221.325 135.974 208.955L84.013 178.955C76.0975 191.325 68.5631 202.195 61.938 210.85L113.899 240.85Z" fill="#8BC5E4"/>
<path d="M142.894 205.55C143.312 205.718 143.728 205.883 144.143 206.044L92.181 176.044C91.766 175.883 91.35 175.718 90.9326 175.55L142.894 205.55Z" fill="#8BC5E4"/>
<path d="M144.142 206.044C151.38 208.865 158.262 210.777 164.37 211.714L112.409 181.714C106.301 180.777 99.4189 178.865 92.1809 176.044L144.142 206.044Z" fill="#8BC5E4"/>
<path d="M164.38 211.715C169.819 212.555 174.625 212.63 178.748 211.75L126.786 181.75C122.664 182.63 117.857 182.555 112.419 181.715L164.38 211.715Z" fill="#8BC5E4"/>
<path d="M178.748 211.75C180.809 211.31 182.714 210.64 184.567 209.5L132.606 179.5C130.753 180.64 128.847 181.31 126.786 181.75L178.748 211.75Z" fill="#8BC5E4"/>
<path d="M184.567 209.5C186.421 208.35 188.369 206.555 189.772 204.095L137.811 174.095C136.408 176.555 134.459 178.35 132.606 179.5L184.567 209.5Z" fill="#8BC5E4"/>
<path d="M189.772 204.095C191.175 201.645 191.738 199.06 191.773 196.91L139.811 166.91C139.776 169.06 139.214 171.645 137.811 174.095L189.772 204.095Z" fill="#8BC5E4"/>
<path d="M191.773 196.91C191.807 194.76 191.409 192.81 190.725 190.835L138.763 160.835C139.447 162.81 139.846 164.76 139.811 166.91L191.773 196.91Z" fill="#8BC5E4"/>
<path d="M190.725 190.835C189.356 186.905 186.802 182.89 183.268 178.72L131.307 148.72C134.84 152.89 137.395 156.905 138.763 160.835L190.725 190.835Z" fill="#8BC5E4"/>
<path d="M183.268 178.72C179.377 174.138 174.27 169.417 168.225 164.844L116.264 134.844C122.309 139.417 127.416 144.138 131.307 148.72L183.268 178.72Z" fill="#8BC5E4"/>
<path d="M168.221 164.841C167.877 164.582 167.531 164.323 167.182 164.064L115.221 134.064C115.57 134.323 115.916 134.582 116.26 134.841L168.221 164.841Z" fill="#8BC5E4"/>
<path d="M166.658 156.39C173.387 143.685 179.042 132.01 183.268 122.16L131.307 92.1603C127.08 102.01 121.425 113.685 114.696 126.39L166.658 156.39Z" fill="#8BC5E4"/>
<path d="M183.268 122.16C186.802 113.91 189.356 106.945 190.725 101.435L138.763 71.4353C137.395 76.9453 134.84 83.9103 131.307 92.1603L183.268 122.16Z" fill="#8BC5E4"/>
<path d="M190.725 101.435C191.4 98.6853 191.807 96.2703 191.773 94.1503L139.811 64.1503C139.846 66.2703 139.439 68.6853 138.763 71.4353L190.725 101.435Z" fill="#8BC5E4"/>
<path d="M191.772 94.1503C191.74 92.1803 191.247 90.3713 190.04 89.4563L138.079 59.4563C139.286 60.3713 139.779 62.1803 139.811 64.1503L191.772 94.1503Z" fill="#8BC5E4"/>
<path d="M190.047 89.4623C189.962 89.3973 189.873 89.3363 189.78 89.2803L137.819 59.2803C137.912 59.3363 138.001 59.3973 138.086 59.4623L190.047 89.4623Z" fill="#8BC5E4"/>
<path d="M189.772 89.2753C189.678 89.2203 189.583 89.1703 189.485 89.1263L137.524 59.1263C137.622 59.1703 137.717 59.2203 137.811 59.2753L189.772 89.2753Z" fill="#8BC5E4"/>
<path d="M189.486 89.1273C188.112 88.5084 186.293 88.9604 184.565 89.8824L132.603 59.8824C134.331 58.9604 136.15 58.5084 137.524 59.1274L189.486 89.1273Z" fill="#8BC5E4"/>
<path d="M184.559 89.8853C182.714 90.8803 180.817 92.4053 178.748 94.3503L126.786 64.3503C128.856 62.4053 130.753 60.8803 132.597 59.8853L184.559 89.8853Z" fill="#8BC5E4"/>
<path d="M178.747 94.3503C174.625 98.2303 169.819 103.865 164.371 110.98L112.41 80.9803C117.857 73.8653 122.664 68.2303 126.786 64.3503L178.747 94.3503Z" fill="#8BC5E4"/>
<path d="M164.372 110.98C157.92 119.425 150.593 129.975 142.894 141.95L90.9326 111.95C98.6316 99.9753 105.958 89.4253 112.41 80.9803L164.372 110.98Z" fill="#8BC5E4"/>
<path d="M184.351 97.3154C185.121 96.9004 185.234 97.0154 185.251 97.0154L133.29 67.0154C133.272 67.0154 133.16 66.9004 132.389 67.3154L184.351 97.3154Z" fill="#8BC5E4"/>
<path d="M185.253 97.0159C185.269 97.0239 185.416 97.0958 185.425 97.9553L133.463 67.9553C133.455 67.0958 133.307 67.0239 133.291 67.0159L185.253 97.0159Z" fill="#8BC5E4"/>
<path d="M185.425 97.9553C185.442 98.8353 185.234 100.445 184.697 102.605L132.736 72.6053C133.272 70.4453 133.48 68.8353 133.463 67.9553L185.425 97.9553Z" fill="#8BC5E4"/>
<path d="M184.697 102.605C183.623 106.925 181.311 113.39 177.96 121.215L125.998 91.2153C129.35 83.3903 131.662 76.9253 132.736 72.6053L184.697 102.605Z" fill="#8BC5E4"/>
<path d="M177.959 121.215C173.707 131.13 167.801 143.26 160.682 156.58L108.721 126.58C115.839 113.26 121.746 101.13 125.998 91.2153L177.959 121.215Z" fill="#8BC5E4"/>
<path d="M160.682 156.58C159.627 152.826 157.613 150.103 154.911 148.569L102.95 118.569C105.652 120.103 107.666 122.826 108.721 126.58L160.682 156.58Z" fill="#8BC5E4"/>
<path d="M154.913 148.571C152.316 147.096 149.083 146.72 145.454 147.584L93.4929 117.584C97.1219 116.72 100.355 117.096 102.952 118.571L154.913 148.571Z" fill="#8BC5E4"/>
<path d="M145.449 147.585C153.555 134.855 161.228 123.755 167.775 115.195L115.813 85.1953C109.266 93.7553 101.593 104.855 93.4873 117.585L145.449 147.585Z" fill="#8BC5E4"/>
<path d="M167.775 115.195C172.945 108.43 177.431 103.26 180.661 100.215L128.7 70.2153C125.47 73.2603 120.984 78.4303 115.813 85.1953L167.775 115.195Z" fill="#8BC5E4"/>
<path d="M180.661 100.215C182.281 98.7003 183.571 97.7353 184.351 97.3153L132.389 67.3153C131.61 67.7353 130.319 68.7003 128.7 70.2153L180.661 100.215Z" fill="#8BC5E4"/>
<path d="M93.929 149.52C94.7084 149.04 95.9988 148.515 97.6096 148.165L45.6481 118.165C44.0373 118.515 42.7469 119.04 41.9675 119.52L93.929 149.52Z" fill="#8BC5E4"/>
<path d="M97.6097 148.165C100.849 147.475 105.335 147.465 110.505 148.26L58.5433 118.26C53.3731 117.465 48.8871 117.475 45.6482 118.165L97.6097 148.165Z" fill="#8BC5E4"/>
<path d="M110.505 148.26C116.7 149.206 123.896 151.267 131.52 154.342L79.5589 124.342C71.9349 121.267 64.7389 119.206 58.5432 118.26L110.505 148.26Z" fill="#8BC5E4"/>
<path d="M131.526 154.345C131.955 154.518 132.385 154.694 132.816 154.873L80.8549 124.873C80.4239 124.694 79.9939 124.518 79.5649 124.345L131.526 154.345Z" fill="#8BC5E4"/>
<path d="M132.822 154.875C125.426 161.665 119.676 171.715 117.606 181.47L65.6445 151.47C67.7143 141.715 73.4647 131.665 80.8606 124.875L132.822 154.875Z" fill="#8BC5E4"/>
<path d="M117.606 181.47C117.223 181.196 116.844 180.922 116.469 180.646L64.5078 150.646C64.8828 150.922 65.2618 151.196 65.6445 151.47L117.606 181.47Z" fill="#8BC5E4"/>
<path d="M116.47 180.647C109.86 175.802 104.35 170.791 100.326 166.047L48.365 136.047C52.389 140.791 57.899 145.802 64.509 150.647L116.47 180.647Z" fill="#8BC5E4"/>
<path d="M100.32 166.04C96.9687 162.085 94.6478 158.295 93.5826 155.21L41.6211 125.21C42.6863 128.295 45.0072 132.085 48.3587 136.04L100.32 166.04Z" fill="#8BC5E4"/>
<path d="M93.5826 155.21C93.0456 153.67 92.8378 152.3 92.8551 151.4L40.8936 121.4C40.8763 122.3 41.0841 123.67 41.6211 125.21L93.5826 155.21Z" fill="#8BC5E4"/>
<path d="M92.8551 151.4C92.8638 150.505 93.0197 150.275 93.0283 150.26L41.0668 120.26C41.0581 120.275 40.9023 120.505 40.8936 121.4L92.8551 151.4Z" fill="#8BC5E4"/>
<path d="M93.0284 150.26C93.0457 150.24 93.1583 149.995 93.9291 149.52L41.9676 119.52C41.1968 119.995 41.0842 120.24 41.0669 120.26L93.0284 150.26Z" fill="#8BC5E4"/>
<path d="M160.665 170.37C161.044 170.641 161.42 170.913 161.792 171.185L109.831 141.185C109.459 140.913 109.083 140.641 108.703 140.37L160.665 170.37Z" fill="#8BC5E4"/>
<path d="M161.802 171.192C168.418 176.033 173.929 181.044 177.953 185.788L125.992 155.788C121.968 151.044 116.457 146.033 109.841 141.192L161.802 171.192Z" fill="#8BC5E4"/>
<path d="M177.96 185.795C181.311 189.75 183.623 193.545 184.697 196.625L132.736 166.625C131.662 163.545 129.35 159.75 125.998 155.795L177.96 185.795Z" fill="#8BC5E4"/>
<path d="M184.697 196.625C185.234 198.165 185.442 199.535 185.425 200.435L133.463 170.435C133.48 169.535 133.272 168.165 132.736 166.625L184.697 196.625Z" fill="#8BC5E4"/>
<path d="M185.425 200.435C185.416 201.34 185.26 201.56 185.251 201.575L133.29 171.575C133.298 171.56 133.454 171.34 133.463 170.435L185.425 200.435Z" fill="#8BC5E4"/>
<path d="M185.251 201.575C185.234 201.605 185.121 201.84 184.351 202.315L132.389 172.315C133.16 171.84 133.272 171.605 133.29 171.575L185.251 201.575Z" fill="#8BC5E4"/>
<path d="M184.351 202.315C183.571 202.795 182.281 203.33 180.661 203.675L128.7 173.675C130.319 173.33 131.61 172.795 132.389 172.315L184.351 202.315Z" fill="#8BC5E4"/>
<path d="M180.661 203.675C177.431 204.36 172.937 204.375 167.775 203.585L115.813 173.585C120.975 174.375 125.47 174.36 128.7 173.675L180.661 203.675Z" fill="#8BC5E4"/>
<path d="M167.775 203.585C161.58 202.639 154.376 200.573 146.752 197.498L94.79 167.498C102.414 170.573 109.618 172.639 115.814 173.585L167.775 203.585Z" fill="#8BC5E4"/>
<path d="M146.744 197.495C146.315 197.322 145.885 197.146 145.454 196.967L93.4929 166.967C93.9239 167.146 94.3539 167.322 94.7829 167.495L146.744 197.495Z" fill="#8BC5E4"/>
<path d="M145.449 196.965C152.853 190.17 158.604 180.12 160.665 170.37L108.703 140.37C106.642 150.12 100.892 160.17 93.4873 166.965L145.449 196.965Z" fill="#8BC5E4"/>
<path d="M117.589 195.26C118.649 199.012 120.665 201.733 123.367 203.267L71.405 173.267C68.703 171.733 66.687 169.012 65.6274 165.26L117.589 195.26Z" fill="#8BC5E4"/>
<path d="M123.363 203.266C125.961 204.741 129.192 205.117 132.816 204.256L80.8549 174.256C77.2309 175.117 73.9999 174.741 71.4019 173.266L123.363 203.266Z" fill="#8BC5E4"/>
<path d="M132.822 204.255C124.716 216.985 117.052 228.08 110.505 236.65L58.5432 206.65C65.0903 198.08 72.7547 186.985 80.8607 174.255L132.822 204.255Z" fill="#8BC5E4"/>
<path d="M110.505 236.65C105.335 243.405 100.84 248.58 97.6097 251.625L45.6482 221.625C48.8784 218.58 53.3731 213.405 58.5433 206.65L110.505 236.65Z" fill="#8BC5E4"/>
<path d="M97.6096 251.625C95.9988 253.145 94.7084 254.1 93.929 254.52L41.9675 224.52C42.7469 224.1 44.0373 223.145 45.6481 221.625L97.6096 251.625Z" fill="#8BC5E4"/>
<path d="M93.9291 254.52C93.1583 254.935 93.0371 254.835 93.0284 254.82L41.0669 224.82C41.0756 224.835 41.1968 224.935 41.9676 224.52L93.9291 254.52Z" fill="#8BC5E4"/>
<path d="M93.0273 254.82C93.0109 254.812 92.8634 254.74 92.8466 253.885L40.885 223.885C40.9019 224.74 41.0493 224.812 41.0658 224.82L93.0273 254.82Z" fill="#8BC5E4"/>
<path d="M92.8466 253.885C92.8379 253 93.0457 251.39 93.574 249.235L41.6125 219.235C41.0842 221.39 40.8764 223 40.885 223.885L92.8466 253.885Z" fill="#8BC5E4"/>
<path d="M93.5738 249.235C94.6477 244.915 96.9686 238.445 100.32 230.62L48.3586 200.62C45.0071 208.445 42.6862 214.915 41.6123 219.235L93.5738 249.235Z" fill="#8BC5E4"/>
<path d="M100.32 230.62C104.572 220.705 110.479 208.565 117.589 195.26L65.6272 165.26C58.5171 178.565 52.6108 190.705 48.3586 200.62L100.32 230.62Z" fill="#8BC5E4"/>
<path d="M214.54 36.9753C216.177 36.0303 217.634 35.9243 218.682 36.5243L166.721 6.52429C165.673 5.92429 164.216 6.03029 162.579 6.97529L214.54 36.9753Z" fill="#8BC5E4"/>
<path d="M218.68 36.5233C219.728 37.1223 220.367 38.4273 220.368 40.3043L168.407 10.3043C168.406 8.42732 167.767 7.12232 166.719 6.52332L218.68 36.5233Z" fill="#8BC5E4"/>
<path d="M220.369 216.21C220.369 219.97 217.814 224.395 214.54 226.285L162.579 196.285C165.852 194.395 168.407 189.97 168.407 186.21L220.369 216.21Z" fill="#8BC5E4"/>
<path d="M62.5875 314.015C60.9504 314.96 59.4934 315.064 58.4454 314.461L6.48389 284.461C7.53189 285.064 8.98889 284.96 10.626 284.015L62.5875 314.015Z" fill="#8BC5E4"/>
<path d="M58.4474 314.462C57.3994 313.86 56.7603 312.554 56.7593 310.676L4.79785 280.676C4.79885 282.554 5.43785 283.86 6.48585 284.462L58.4474 314.462Z" fill="#8BC5E4"/>
<path d="M56.7591 134.77C56.7591 131.01 59.3139 126.595 62.5874 124.705L10.6259 94.7053C7.35231 96.5953 4.79761 101.01 4.79761 104.77L56.7591 134.77Z" fill="#8BC5E4"/>
<path d="M62.5876 119.175C56.742 122.55 51.9615 130.81 51.9615 137.54L0 107.54C0 100.81 4.7804 92.5503 10.6261 89.1753L62.5876 119.175Z" fill="#8BC5E4"/>
<path d="M51.9615 313.44C51.9615 316.805 53.1565 319.175 55.0825 320.282L3.121 290.282C1.195 289.175 0 286.805 0 283.44L51.9615 313.44Z" fill="#8BC5E4"/>
<path d="M55.0914 320.287C57.0144 321.387 59.6644 321.23 62.5794 319.55L10.6179 289.55C7.70288 291.23 5.05288 291.387 3.12988 290.287L55.0914 320.287Z" fill="#8BC5E4"/>
<path d="M214.54 231.815C220.386 228.44 225.167 220.17 225.167 213.44L173.205 183.44C173.205 190.17 168.425 198.44 162.579 201.815L214.54 231.815Z" fill="#8BC5E4"/>
<path d="M225.167 37.5403C225.167 34.1683 223.966 31.7983 222.034 30.6973L170.073 0.697266C172.005 1.79827 173.205 4.16827 173.205 7.54027L225.167 37.5403Z" fill="#8BC5E4"/>
<path d="M222.037 30.6983C220.113 29.6003 217.464 29.7603 214.549 31.4403L162.588 1.44035C165.503 -0.239651 168.152 -0.399651 170.076 0.698349L222.037 30.6983Z" fill="#8BC5E4"/>
<path d="M214.54 246.605C216.177 245.66 217.634 245.554 218.682 246.155L166.721 216.155C165.673 215.554 164.216 215.66 162.579 216.605L214.54 246.605Z" fill="#8BC5E4"/>
<path d="M218.68 246.154C219.728 246.755 220.367 248.061 220.368 249.944L168.407 219.944C168.406 218.061 167.767 216.755 166.719 216.154L218.68 246.154Z" fill="#8BC5E4"/>
<path d="M220.369 425.84C220.369 429.61 217.814 434.025 214.54 435.915L162.579 405.915C165.852 404.025 168.407 399.61 168.407 395.84L220.369 425.84Z" fill="#8BC5E4"/>
<path d="M62.5875 523.645C60.9504 524.59 59.4934 524.696 58.4454 524.095L6.48389 494.095C7.53189 494.696 8.98889 494.59 10.626 493.645L62.5875 523.645Z" fill="#8BC5E4"/>
<path d="M58.4474 524.096C57.3994 523.495 56.7603 522.189 56.7593 520.306L4.79785 490.306C4.79885 492.189 5.43785 493.495 6.48585 494.096L58.4474 524.096Z" fill="#8BC5E4"/>
<path d="M56.7591 344.41C56.7591 340.64 59.3139 336.225 62.5874 334.335L10.6259 304.335C7.35231 306.225 4.79761 310.64 4.79761 314.41L56.7591 344.41Z" fill="#8BC5E4"/>
<path d="M62.5876 328.805C56.742 332.18 51.9615 340.45 51.9615 347.18L0 317.18C0 310.45 4.7804 302.18 10.6261 298.805L62.5876 328.805Z" fill="#8BC5E4"/>
<path d="M51.9615 523.07C51.9615 526.435 53.1565 528.805 55.0825 529.912L3.121 499.912C1.195 498.805 0 496.435 0 493.07L51.9615 523.07Z" fill="#8BC5E4"/>
<path d="M55.0914 529.917C57.0144 531.017 59.6644 530.86 62.5794 529.18L10.6179 499.18C7.70288 500.86 5.05288 501.017 3.12988 499.917L55.0914 529.917Z" fill="#8BC5E4"/>
<path d="M214.54 441.445C220.386 438.07 225.167 429.8 225.167 423.07L173.205 393.07C173.205 399.8 168.425 408.07 162.579 411.445L214.54 441.445Z" fill="#8BC5E4"/>
<path d="M225.167 247.18C225.166 243.815 223.971 241.445 222.045 240.338L170.084 210.338C172.01 211.445 173.205 213.815 173.205 217.18L225.167 247.18Z" fill="#8BC5E4"/>
<path d="M222.037 240.333C220.113 239.233 217.464 239.39 214.549 241.07L162.588 211.07C165.503 209.39 168.152 209.233 170.076 210.333L222.037 240.333Z" fill="#8BC5E4"/>
<path d="M214.54 36.9753C216.177 36.0303 217.634 35.9243 218.682 36.5243L166.721 6.52429C165.673 5.92429 164.216 6.03029 162.579 6.97529L214.54 36.9753Z" fill="#8BC5E4"/>
<path d="M218.68 36.5233C219.728 37.1223 220.367 38.4273 220.368 40.3043L168.407 10.3043C168.406 8.42732 167.767 7.12232 166.719 6.52332L218.68 36.5233Z" fill="#8BC5E4"/>
<path d="M220.369 216.21C220.369 219.97 217.814 224.395 214.54 226.285L162.579 196.285C165.852 194.395 168.407 189.97 168.407 186.21L220.369 216.21Z" fill="#8BC5E4"/>
<path d="M62.5875 314.015C60.9504 314.96 59.4934 315.064 58.4454 314.461L6.48389 284.461C7.53189 285.064 8.98889 284.96 10.626 284.015L62.5875 314.015Z" fill="#8BC5E4"/>
<path d="M58.4474 314.462C57.3994 313.86 56.7603 312.554 56.7593 310.676L4.79785 280.676C4.79885 282.554 5.43785 283.86 6.48585 284.462L58.4474 314.462Z" fill="#8BC5E4"/>
<path d="M56.7591 134.77C56.7591 131.01 59.3139 126.595 62.5874 124.705L10.6259 94.7053C7.35231 96.5953 4.79761 101.01 4.79761 104.77L56.7591 134.77Z" fill="#8BC5E4"/>
<path d="M142.894 141.95C150.593 129.975 157.92 119.425 164.372 110.98L112.41 80.9803C105.958 89.4253 98.6316 99.9753 90.9326 111.95L142.894 141.95Z" fill="#8BC5E4"/>
<path d="M164.371 110.98C169.819 103.865 174.625 98.2303 178.747 94.3503L126.786 64.3503C122.664 68.2303 117.857 73.8653 112.41 80.9803L164.371 110.98Z" fill="#8BC5E4"/>
<path d="M178.748 94.3503C180.817 92.4053 182.714 90.8803 184.559 89.8853L132.597 59.8853C130.753 60.8803 128.856 62.4053 126.786 64.3503L178.748 94.3503Z" fill="#8BC5E4"/>
<path d="M184.559 89.8853C186.288 88.9613 188.109 88.5073 189.485 89.1263L137.524 59.1263C136.148 58.5073 134.327 58.9613 132.597 59.8853L184.559 89.8853Z" fill="#8BC5E4"/>
<path d="M189.477 89.1233C189.574 89.1663 189.67 89.2153 189.763 89.2703L137.802 59.2703C137.709 59.2153 137.613 59.1663 137.516 59.1233L189.477 89.1233Z" fill="#8BC5E4"/>
<path d="M189.772 89.2753C189.865 89.3313 189.954 89.3913 190.04 89.4563L138.079 59.4563C137.993 59.3913 137.904 59.3313 137.811 59.2753L189.772 89.2753Z" fill="#8BC5E4"/>
<path d="M190.04 89.4563C191.245 90.3703 191.738 92.1763 191.772 94.1443L139.811 64.1443C139.777 62.1763 139.284 60.3703 138.079 59.4563L190.04 89.4563Z" fill="#8BC5E4"/>
<path d="M191.773 94.1503C191.807 96.2703 191.4 98.6853 190.725 101.435L138.763 71.4353C139.439 68.6853 139.846 66.2703 139.811 64.1503L191.773 94.1503Z" fill="#8BC5E4"/>
<path d="M190.725 101.435C189.356 106.945 186.802 113.91 183.268 122.16L131.307 92.1603C134.84 83.9103 137.395 76.9453 138.763 71.4353L190.725 101.435Z" fill="#8BC5E4"/>
<path d="M183.268 122.16C179.042 132.01 173.387 143.685 166.658 156.39L114.696 126.39C121.425 113.685 127.08 102.01 131.307 92.1603L183.268 122.16Z" fill="#8BC5E4"/>
<path d="M167.177 164.06C167.53 164.321 167.879 164.582 168.225 164.844L116.264 134.844C115.918 134.582 115.569 134.321 115.216 134.06L167.177 164.06Z" fill="#8BC5E4"/>
<path d="M168.225 164.844C174.267 169.414 179.372 174.132 183.262 178.713L131.301 148.713C127.411 144.132 122.306 139.414 116.264 134.844L168.225 164.844Z" fill="#8BC5E4"/>
<path d="M183.268 178.72C186.802 182.89 189.356 186.905 190.725 190.835L138.763 160.835C137.395 156.905 134.84 152.89 131.307 148.72L183.268 178.72Z" fill="#8BC5E4"/>
<path d="M190.725 190.835C191.409 192.81 191.807 194.76 191.773 196.91L139.811 166.91C139.846 164.76 139.447 162.81 138.763 160.835L190.725 190.835Z" fill="#8BC5E4"/>
<path d="M191.773 196.91C191.738 199.06 191.175 201.645 189.772 204.095L137.811 174.095C139.214 171.645 139.776 169.06 139.811 166.91L191.773 196.91Z" fill="#8BC5E4"/>
<path d="M189.772 204.095C188.369 206.555 186.421 208.35 184.567 209.5L132.606 179.5C134.459 178.35 136.408 176.555 137.811 174.095L189.772 204.095Z" fill="#8BC5E4"/>
<path d="M184.567 209.5C182.714 210.64 180.809 211.31 178.748 211.75L126.786 181.75C128.847 181.31 130.753 180.64 132.606 179.5L184.567 209.5Z" fill="#8BC5E4"/>
<path d="M178.748 211.75C174.625 212.63 169.819 212.555 164.38 211.715L112.419 181.715C117.857 182.555 122.664 182.63 126.786 181.75L178.748 211.75Z" fill="#8BC5E4"/>
<path d="M164.38 211.715C158.269 210.779 151.384 208.867 144.142 206.044L92.1809 176.044C99.4229 178.867 106.308 180.779 112.419 181.715L164.38 211.715Z" fill="#8BC5E4"/>
<path d="M144.136 206.042C143.725 205.881 143.312 205.718 142.899 205.552L90.938 175.552C91.351 175.718 91.764 175.881 92.175 176.042L144.136 206.042Z" fill="#8BC5E4"/>
<path d="M135.974 208.955C128.059 221.325 120.525 232.195 113.899 240.85L61.938 210.85C68.5631 202.195 76.0975 191.325 84.013 178.955L135.974 208.955Z" fill="#8BC5E4"/>
<path d="M113.9 240.85C108.461 247.97 103.646 253.61 99.5235 257.49L47.562 227.49C51.6843 223.61 56.4994 217.97 61.938 210.85L113.9 240.85Z" fill="#8BC5E4"/>
<path d="M99.5235 257.49C97.4624 259.43 95.5658 260.955 93.7125 261.955L41.751 231.955C43.6043 230.955 45.5008 229.43 47.562 227.49L99.5235 257.49Z" fill="#8BC5E4"/>
<path d="M93.7126 261.955C91.9825 262.879 90.1695 263.329 88.7945 262.709L36.833 232.709C38.208 233.329 40.021 232.879 41.7511 231.955L93.7126 261.955Z" fill="#8BC5E4"/>
<path d="M88.8015 262.712C88.7045 262.669 88.6085 262.62 88.5155 262.565L36.554 232.565C36.647 232.62 36.743 232.669 36.84 232.712L88.8015 262.712Z" fill="#8BC5E4"/>
<path d="M88.5077 262.56C88.4144 262.505 88.3244 262.446 88.2374 262.381L36.2759 232.381C36.3629 232.446 36.4529 232.505 36.5461 232.56L88.5077 262.56Z" fill="#8BC5E4"/>
<path d="M88.2384 262.381C87.0264 261.478 86.5404 259.659 86.5074 257.691L34.5459 227.691C34.5789 229.659 35.0649 231.478 36.2769 232.381L88.2384 262.381Z" fill="#8BC5E4"/>
<path d="M86.5072 257.685C86.4639 255.58 86.8709 253.165 87.555 250.4L35.5935 220.4C34.9094 223.165 34.5023 225.58 34.5456 227.685L86.5072 257.685Z" fill="#8BC5E4"/>
<path d="M87.555 250.4C88.9234 244.89 91.4695 237.93 95.0115 229.675L43.05 199.675C39.508 207.93 36.9618 214.89 35.5935 220.4L87.555 250.4Z" fill="#8BC5E4"/>
<path d="M95.0115 229.675C99.1251 220.08 104.59 208.765 111.094 196.44L59.1321 166.44C52.6282 178.765 47.1636 190.08 43.05 199.675L95.0115 229.675Z" fill="#8BC5E4"/>
<path d="M111.613 188.17C111.251 187.905 110.893 187.639 110.538 187.373L58.5769 157.373C58.9319 157.639 59.2899 157.905 59.6517 158.17L111.613 188.17Z" fill="#8BC5E4"/>
<path d="M110.529 187.366C104.279 182.681 99.0144 177.83 95.0174 173.122L43.0559 143.122C47.0529 147.83 52.3179 152.681 58.5679 157.366L110.529 187.366Z" fill="#8BC5E4"/>
<path d="M95.0115 173.115C91.4781 168.945 88.9234 164.93 87.555 161L35.5935 131C36.9618 134.93 39.5166 138.945 43.05 143.115L95.0115 173.115Z" fill="#8BC5E4"/>
<path d="M87.5549 161C86.8708 159.035 86.4724 157.085 86.5071 154.925L34.5455 124.925C34.5109 127.085 34.9093 129.035 35.5934 131L87.5549 161Z" fill="#8BC5E4"/>
<path d="M86.5073 154.925C86.5419 152.775 87.0962 150.205 88.5078 147.74L36.5462 117.74C35.1346 120.205 34.5804 122.775 34.5457 124.925L86.5073 154.925Z" fill="#8BC5E4"/>
<path d="M88.5077 147.74C89.9106 145.29 91.8592 143.485 93.7125 142.335L41.751 112.335C39.8977 113.485 37.9491 115.29 36.5461 117.74L88.5077 147.74Z" fill="#8BC5E4"/>
<path d="M93.7125 142.335C95.5658 141.195 97.4624 140.53 99.5235 140.09L47.562 110.09C45.5008 110.53 43.6043 111.195 41.751 112.335L93.7125 142.335Z" fill="#8BC5E4"/>
<path d="M99.5235 140.09C103.655 139.205 108.461 139.29 113.9 140.13L61.938 110.13C56.4994 109.29 51.6929 109.205 47.562 110.09L99.5235 140.09Z" fill="#8BC5E4"/>
<path d="M113.899 140.13C120.165 141.081 127.245 143.073 134.691 146.011L82.7299 116.011C75.2839 113.073 68.2039 111.081 61.938 110.13L113.899 140.13Z" fill="#8BC5E4"/>
<path d="M134.696 146.013C135.119 146.18 135.543 146.35 135.968 146.523L84.0069 116.523C83.5819 116.35 83.1579 116.18 82.7349 116.013L134.696 146.013Z" fill="#8BC5E4"/>
<path d="M184.351 97.3154C185.121 96.9004 185.234 97.0154 185.251 97.0154L133.29 67.0154C133.272 67.0154 133.16 66.9004 132.389 67.3154L184.351 97.3154Z" fill="#8BC5E4"/>
<path d="M185.253 97.0159C185.269 97.0239 185.416 97.0958 185.425 97.9553L133.463 67.9553C133.455 67.0958 133.307 67.0239 133.291 67.0159L185.253 97.0159Z" fill="#8BC5E4"/>
<path d="M185.425 97.9553C185.442 98.8353 185.234 100.445 184.697 102.605L132.736 72.6053C133.272 70.4453 133.48 68.8353 133.463 67.9553L185.425 97.9553Z" fill="#8BC5E4"/>
<path d="M184.697 102.605C183.623 106.925 181.311 113.39 177.96 121.215L125.998 91.2153C129.35 83.3903 131.662 76.9253 132.736 72.6053L184.697 102.605Z" fill="#8BC5E4"/>
<path d="M177.959 121.215C173.707 131.13 167.801 143.26 160.682 156.58L108.721 126.58C115.839 113.26 121.746 101.13 125.998 91.2153L177.959 121.215Z" fill="#8BC5E4"/>
<path d="M160.682 156.58C159.627 152.826 157.613 150.103 154.911 148.569L102.95 118.569C105.652 120.103 107.666 122.826 108.721 126.58L160.682 156.58Z" fill="#8BC5E4"/>
<path d="M154.913 148.571C152.316 147.096 149.083 146.72 145.454 147.584L93.4929 117.584C97.1219 116.72 100.355 117.096 102.952 118.571L154.913 148.571Z" fill="#8BC5E4"/>
<path d="M145.449 147.585C153.555 134.855 161.228 123.755 167.775 115.195L115.813 85.1953C109.266 93.7553 101.593 104.855 93.4873 117.585L145.449 147.585Z" fill="#8BC5E4"/>
<path d="M167.775 115.195C172.945 108.43 177.431 103.26 180.661 100.215L128.7 70.2153C125.47 73.2603 120.984 78.4303 115.813 85.1953L167.775 115.195Z" fill="#8BC5E4"/>
<path d="M180.661 100.215C182.281 98.7003 183.571 97.7353 184.351 97.3153L132.389 67.3153C131.61 67.7353 130.319 68.7003 128.7 70.2153L180.661 100.215Z" fill="#8BC5E4"/>
<path d="M93.929 149.52C94.7084 149.04 95.9988 148.515 97.6096 148.165L45.6481 118.165C44.0373 118.515 42.7469 119.04 41.9675 119.52L93.929 149.52Z" fill="#8BC5E4"/>
<path d="M97.6097 148.165C100.849 147.475 105.335 147.465 110.505 148.26L58.5433 118.26C53.3731 117.465 48.8871 117.475 45.6482 118.165L97.6097 148.165Z" fill="#8BC5E4"/>
<path d="M110.505 148.26C116.7 149.206 123.896 151.267 131.52 154.342L79.5589 124.342C71.9349 121.267 64.7389 119.206 58.5432 118.26L110.505 148.26Z" fill="#8BC5E4"/>
<path d="M131.526 154.345C131.955 154.518 132.385 154.694 132.816 154.873L80.8549 124.873C80.4239 124.694 79.9939 124.518 79.5649 124.345L131.526 154.345Z" fill="#8BC5E4"/>
<path d="M132.822 154.875C125.426 161.665 119.676 171.715 117.606 181.47L65.6445 151.47C67.7143 141.715 73.4647 131.665 80.8606 124.875L132.822 154.875Z" fill="#8BC5E4"/>
<path d="M117.606 181.47C117.223 181.196 116.844 180.922 116.469 180.646L64.5078 150.646C64.8828 150.922 65.2618 151.196 65.6445 151.47L117.606 181.47Z" fill="#8BC5E4"/>
<path d="M116.47 180.647C109.86 175.802 104.35 170.791 100.326 166.047L48.365 136.047C52.389 140.791 57.899 145.802 64.509 150.647L116.47 180.647Z" fill="#8BC5E4"/>
<path d="M100.32 166.04C96.9687 162.085 94.6478 158.295 93.5826 155.21L41.6211 125.21C42.6863 128.295 45.0072 132.085 48.3587 136.04L100.32 166.04Z" fill="#8BC5E4"/>
<path d="M93.5826 155.21C93.0456 153.67 92.8378 152.3 92.8551 151.4L40.8936 121.4C40.8763 122.3 41.0841 123.67 41.6211 125.21L93.5826 155.21Z" fill="#8BC5E4"/>
<path d="M92.8551 151.4C92.8638 150.505 93.0197 150.275 93.0283 150.26L41.0668 120.26C41.0581 120.275 40.9023 120.505 40.8936 121.4L92.8551 151.4Z" fill="#8BC5E4"/>
<path d="M93.0284 150.26C93.0457 150.24 93.1583 149.995 93.9291 149.52L41.9676 119.52C41.1968 119.995 41.0842 120.24 41.0669 120.26L93.0284 150.26Z" fill="#8BC5E4"/>
<path d="M117.589 195.26C118.649 199.012 120.665 201.733 123.367 203.267L71.405 173.267C68.703 171.733 66.687 169.012 65.6274 165.26L117.589 195.26Z" fill="#8BC5E4"/>
<path d="M123.363 203.266C125.961 204.741 129.192 205.117 132.816 204.256L80.8549 174.256C77.2309 175.117 73.9999 174.741 71.4019 173.266L123.363 203.266Z" fill="#8BC5E4"/>
<path d="M132.822 204.255C124.716 216.985 117.052 228.08 110.505 236.65L58.5432 206.65C65.0903 198.08 72.7547 186.985 80.8607 174.255L132.822 204.255Z" fill="#8BC5E4"/>
<path d="M110.505 236.65C105.335 243.405 100.84 248.58 97.6097 251.625L45.6482 221.625C48.8784 218.58 53.3731 213.405 58.5433 206.65L110.505 236.65Z" fill="#8BC5E4"/>
<path d="M97.6096 251.625C95.9988 253.145 94.7084 254.1 93.929 254.52L41.9675 224.52C42.7469 224.1 44.0373 223.145 45.6481 221.625L97.6096 251.625Z" fill="#8BC5E4"/>
<path d="M93.9291 254.52C93.1583 254.935 93.0371 254.835 93.0284 254.82L41.0669 224.82C41.0756 224.835 41.1968 224.935 41.9676 224.52L93.9291 254.52Z" fill="#8BC5E4"/>
<path d="M93.0273 254.82C93.0109 254.812 92.8634 254.74 92.8466 253.885L40.885 223.885C40.9019 224.74 41.0493 224.812 41.0658 224.82L93.0273 254.82Z" fill="#8BC5E4"/>
<path d="M92.8466 253.885C92.8379 253 93.0457 251.39 93.574 249.235L41.6125 219.235C41.0842 221.39 40.8764 223 40.885 223.885L92.8466 253.885Z" fill="#8BC5E4"/>
<path d="M93.5738 249.235C94.6477 244.915 96.9686 238.445 100.32 230.62L48.3586 200.62C45.0071 208.445 42.6862 214.915 41.6123 219.235L93.5738 249.235Z" fill="#8BC5E4"/>
<path d="M100.32 230.62C104.572 220.705 110.479 208.565 117.589 195.26L65.6272 165.26C58.5171 178.565 52.6108 190.705 48.3586 200.62L100.32 230.62Z" fill="#8BC5E4"/>
<path d="M160.665 170.37C161.044 170.641 161.42 170.913 161.792 171.185L109.831 141.185C109.459 140.913 109.083 140.641 108.703 140.37L160.665 170.37Z" fill="#8BC5E4"/>
<path d="M161.802 171.192C168.418 176.033 173.929 181.044 177.953 185.788L125.992 155.788C121.968 151.044 116.457 146.033 109.841 141.192L161.802 171.192Z" fill="#8BC5E4"/>
<path d="M177.96 185.795C181.311 189.75 183.623 193.545 184.697 196.625L132.736 166.625C131.662 163.545 129.35 159.75 125.998 155.795L177.96 185.795Z" fill="#8BC5E4"/>
<path d="M184.697 196.625C185.234 198.165 185.442 199.535 185.425 200.435L133.463 170.435C133.48 169.535 133.272 168.165 132.736 166.625L184.697 196.625Z" fill="#8BC5E4"/>
<path d="M185.425 200.435C185.416 201.34 185.26 201.56 185.251 201.575L133.29 171.575C133.298 171.56 133.454 171.34 133.463 170.435L185.425 200.435Z" fill="#8BC5E4"/>
<path d="M185.251 201.575C185.234 201.605 185.121 201.84 184.351 202.315L132.389 172.315C133.16 171.84 133.272 171.605 133.29 171.575L185.251 201.575Z" fill="#8BC5E4"/>
<path d="M184.351 202.315C183.571 202.795 182.281 203.33 180.661 203.675L128.7 173.675C130.319 173.33 131.61 172.795 132.389 172.315L184.351 202.315Z" fill="#8BC5E4"/>
<path d="M180.661 203.675C177.431 204.36 172.937 204.375 167.775 203.585L115.813 173.585C120.975 174.375 125.47 174.36 128.7 173.675L180.661 203.675Z" fill="#8BC5E4"/>
<path d="M167.775 203.585C161.58 202.639 154.376 200.573 146.752 197.498L94.79 167.498C102.414 170.573 109.618 172.639 115.814 173.585L167.775 203.585Z" fill="#8BC5E4"/>
<path d="M146.744 197.495C146.315 197.322 145.885 197.146 145.454 196.967L93.4929 166.967C93.9239 167.146 94.3539 167.322 94.7829 167.495L146.744 197.495Z" fill="#8BC5E4"/>
<path d="M145.449 196.965C152.853 190.17 158.604 180.12 160.665 170.37L108.703 140.37C106.642 150.12 100.892 160.17 93.4873 166.965L145.449 196.965Z" fill="#8BC5E4"/>
<path d="M214.54 246.605C216.177 245.66 217.634 245.554 218.682 246.155L166.721 216.155C165.673 215.554 164.216 215.66 162.579 216.605L214.54 246.605Z" fill="#8BC5E4"/>
<path d="M218.68 246.154C219.728 246.755 220.367 248.061 220.368 249.944L168.407 219.944C168.406 218.061 167.767 216.755 166.719 216.154L218.68 246.154Z" fill="#8BC5E4"/>
<path d="M220.369 425.84C220.369 429.61 217.814 434.025 214.54 435.915L162.579 405.915C165.852 404.025 168.407 399.61 168.407 395.84L220.369 425.84Z" fill="#8BC5E4"/>
<path d="M62.5875 523.645C60.9504 524.59 59.4934 524.696 58.4454 524.095L6.48389 494.095C7.53189 494.696 8.98889 494.59 10.626 493.645L62.5875 523.645Z" fill="#8BC5E4"/>
<path d="M58.4474 524.096C57.3994 523.495 56.7603 522.189 56.7593 520.306L4.79785 490.306C4.79885 492.189 5.43785 493.495 6.48585 494.096L58.4474 524.096Z" fill="#8BC5E4"/>
<path d="M56.7591 344.41C56.7591 340.64 59.3139 336.225 62.5874 334.335L10.6259 304.335C7.35231 306.225 4.79761 310.64 4.79761 314.41L56.7591 344.41Z" fill="#8BC5E4"/>
<path d="M139.369 104.605L127.765 124.095L135.975 119.355V146.525C128.059 143.305 120.525 141.135 113.9 140.13C108.461 139.29 103.654 139.205 99.5235 140.09C97.4624 140.53 95.5658 141.195 93.7125 142.335C91.8592 143.485 89.9107 145.29 88.5077 147.74C87.0961 150.205 86.5418 152.775 86.5072 154.925C86.4725 157.085 86.8709 159.035 87.5551 161C88.9234 164.93 91.4782 168.945 95.0115 173.115C99.2378 178.095 104.884 183.235 111.613 188.17L88.4211 201.56V192.1L77.3186 211.87L88.4211 218.3V209.53L111.094 196.44C104.59 208.765 99.1252 220.08 95.0115 229.675C91.4695 237.93 88.9234 244.89 87.5551 250.4C86.8709 253.165 86.4639 255.58 86.5072 257.685C86.5418 259.795 87.0961 261.735 88.5077 262.56C89.9107 263.39 91.8592 262.945 93.7125 261.955C95.5658 260.955 97.4624 259.43 99.5235 257.49C103.646 253.61 108.461 247.97 113.9 240.85C120.525 232.195 128.059 221.325 135.975 208.955V236.145L127.765 240.885L139.369 246.965L150.515 227.75L142.894 232.15V205.55C150.593 208.645 157.92 210.725 164.38 211.715C169.819 212.555 174.625 212.63 178.748 211.75C180.809 211.31 182.714 210.64 184.567 209.5C186.421 208.35 188.369 206.555 189.772 204.095C191.175 201.645 191.738 199.06 191.773 196.91C191.807 194.76 191.409 192.81 190.725 190.835C189.356 186.905 186.802 182.89 183.268 178.72C179.155 173.875 173.681 168.875 167.177 164.06L189.859 150.965V159.735L200.961 140.485L189.859 133.535V142.995L166.658 156.39C173.387 143.685 179.042 132.01 183.268 122.16C186.802 113.91 189.356 106.945 190.725 101.435C191.4 98.6853 191.807 96.2703 191.773 94.1503C191.738 92.0403 191.175 90.1153 189.772 89.2753C188.369 88.4453 186.412 88.8953 184.559 89.8853C182.714 90.8803 180.817 92.4053 178.748 94.3503C174.625 98.2303 169.819 103.865 164.372 110.98C157.92 119.425 150.593 129.975 142.894 141.95V115.36L150.515 110.96L139.369 104.605ZM184.351 97.3153C185.121 96.9003 185.234 97.0153 185.251 97.0153L185.253 97.0159C185.269 97.0239 185.416 97.0958 185.425 97.9553C185.442 98.8353 185.234 100.445 184.697 102.605C183.623 106.925 181.311 113.39 177.959 121.215C173.707 131.13 167.801 143.26 160.682 156.58C158.612 149.215 152.853 145.82 145.449 147.585C153.555 134.855 161.228 123.755 167.775 115.195C172.945 108.43 177.431 103.26 180.661 100.215C182.281 98.7003 183.571 97.7353 184.351 97.3153ZM93.929 149.52C94.7084 149.04 95.9988 148.515 97.6096 148.165C100.849 147.475 105.335 147.465 110.505 148.26C117.052 149.26 124.716 151.505 132.822 154.875C125.426 161.665 119.676 171.715 117.606 181.47C110.487 176.37 104.572 171.055 100.32 166.04C96.9688 162.085 94.6478 158.295 93.5826 155.21C93.0457 153.67 92.8378 152.3 92.8551 151.4C92.8638 150.505 93.0197 150.275 93.0283 150.26C93.0457 150.24 93.1583 149.995 93.929 149.52ZM160.665 170.37C167.792 175.465 173.707 180.78 177.959 185.795C181.311 189.75 183.623 193.545 184.697 196.625C185.234 198.165 185.442 199.535 185.425 200.435C185.416 201.34 185.26 201.56 185.251 201.575C185.234 201.605 185.121 201.84 184.351 202.315C183.571 202.795 182.281 203.33 180.661 203.675C177.431 204.36 172.937 204.375 167.775 203.585C161.228 202.585 153.555 200.335 145.449 196.965C152.853 190.17 158.604 180.12 160.665 170.37ZM117.589 195.26C119.667 202.62 125.426 206.015 132.822 204.255C124.716 216.985 117.052 228.08 110.505 236.65C105.335 243.405 100.84 248.58 97.6096 251.625C95.9988 253.145 94.7084 254.1 93.929 254.52C93.1583 254.935 93.037 254.835 93.0283 254.82L93.0272 254.82C93.0108 254.812 92.8633 254.74 92.8465 253.885C92.8378 253 93.0457 251.39 93.5739 249.235C94.6478 244.915 96.9688 238.445 100.32 230.62C104.572 220.705 110.479 208.565 117.589 195.26ZM144.765 330.76V314.79L181.476 293.595V280.985L212.739 284.295L181.476 323.375V309.565L144.765 330.76ZM128.908 414.995V399.035L165.619 377.84V365.22L196.882 368.53L165.619 407.61V393.8L128.908 414.995ZM149.502 364.625V348.655L112.791 369.85V357.24L81.5275 396.65L112.791 399.63V385.82L149.502 364.625ZM132.363 450.89V434.92L95.6524 456.115V443.505L64.3889 482.915L95.6524 485.895V472.085L132.363 450.89ZM62.5876 124.705L214.54 36.9753C217.814 35.0853 220.369 36.5503 220.369 40.3103V216.21C220.369 219.97 217.814 224.395 214.54 226.285L62.5876 314.015C59.314 315.905 56.7592 314.43 56.7592 310.67V134.77C56.7592 131.01 59.314 126.595 62.5876 124.705ZM62.5876 119.175C56.7419 122.55 51.9614 130.81 51.9614 137.54V313.44C51.9614 320.17 56.7419 322.92 62.5876 319.545L214.54 231.815C220.386 228.44 225.167 220.17 225.167 213.44V37.5403C225.167 30.8103 220.386 28.0703 214.54 31.4453L62.5876 119.175ZM62.5876 334.335L214.54 246.605C217.814 244.715 220.369 246.18 220.369 249.95V425.84C220.369 429.61 217.814 434.025 214.54 435.915L62.5876 523.645C59.314 525.535 56.7592 524.07 56.7592 520.3V344.41C56.7592 340.64 59.314 336.225 62.5876 334.335ZM62.5876 328.805C56.7419 332.18 51.9614 340.45 51.9614 347.18V523.07C51.9614 529.8 56.7419 532.55 62.5876 529.175L214.54 441.445C220.386 438.07 225.167 429.8 225.167 423.07V247.18C225.167 240.45 220.386 237.7 214.54 241.075L62.5876 328.805Z" fill="#8BC5E4"/>
<path fill-rule="evenodd" clip-rule="evenodd" d="M62.5876 124.705L214.54 36.9753C217.814 35.0853 220.369 36.5503 220.369 40.3103V216.21C220.369 219.97 217.814 224.395 214.54 226.285L62.5876 314.015C59.314 315.905 56.7592 314.43 56.7592 310.67V134.77C56.7592 131.01 59.314 126.595 62.5876 124.705ZM127.765 124.095L139.369 104.605L150.515 110.96L142.894 115.36V141.95C150.593 129.975 157.92 119.425 164.372 110.98C169.819 103.865 174.625 98.2303 178.748 94.3503C180.817 92.4053 182.714 90.8803 184.559 89.8853C186.412 88.8953 188.369 88.4453 189.772 89.2753C191.175 90.1153 191.738 92.0403 191.773 94.1503C191.807 96.2703 191.4 98.6853 190.725 101.435C189.356 106.945 186.802 113.91 183.268 122.16C179.042 132.01 173.387 143.685 166.658 156.39L189.859 142.995V133.535L200.961 140.485L189.859 159.735V150.965L167.177 164.06C173.681 168.875 179.155 173.875 183.268 178.72C186.802 182.89 189.356 186.905 190.725 190.835C191.409 192.81 191.807 194.76 191.773 196.91C191.738 199.06 191.175 201.645 189.772 204.095C188.369 206.555 186.421 208.35 184.567 209.5C182.714 210.64 180.809 211.31 178.748 211.75C174.625 212.63 169.819 212.555 164.38 211.715C157.92 210.725 150.593 208.645 142.894 205.55V232.15L150.515 227.75L139.369 246.965L127.765 240.885L135.975 236.145V208.955C128.059 221.325 120.525 232.195 113.9 240.85C108.461 247.97 103.646 253.61 99.5235 257.49C97.4624 259.43 95.5658 260.955 93.7125 261.955C91.8592 262.945 89.9107 263.39 88.5077 262.56C87.0961 261.735 86.5418 259.795 86.5072 257.685C86.4639 255.58 86.8709 253.165 87.5551 250.4C88.9234 244.89 91.4695 237.93 95.0115 229.675C99.1252 220.08 104.59 208.765 111.094 196.44L88.4211 209.53V218.3L77.3186 211.87L88.4211 192.1V201.56L111.613 188.17C104.884 183.235 99.2378 178.095 95.0115 173.115C91.4782 168.945 88.9234 164.93 87.5551 161C86.8709 159.035 86.4725 157.085 86.5072 154.925C86.5418 152.775 87.0961 150.205 88.5077 147.74C89.9107 145.29 91.8592 143.485 93.7125 142.335C95.5658 141.195 97.4624 140.53 99.5235 140.09C103.654 139.205 108.461 139.29 113.9 140.13C120.525 141.135 128.059 143.305 135.975 146.525V119.355L127.765 124.095Z" fill="white"/>
<path d="M184.351 97.3153C185.121 96.9003 185.234 97.0153 185.251 97.0153L185.253 97.0159C185.269 97.0239 185.416 97.0958 185.425 97.9553C185.442 98.8353 185.234 100.445 184.697 102.605C183.623 106.925 181.311 113.39 177.959 121.215C173.707 131.13 167.801 143.26 160.682 156.58C158.612 149.215 152.853 145.82 145.449 147.585C153.555 134.855 161.228 123.755 167.775 115.195C172.945 108.43 177.431 103.26 180.661 100.215C182.281 98.7003 183.571 97.7353 184.351 97.3153Z" fill="white"/>
<path d="M93.929 149.52C94.7084 149.04 95.9988 148.515 97.6096 148.165C100.849 147.475 105.335 147.465 110.505 148.26C117.052 149.26 124.716 151.505 132.822 154.875C125.426 161.665 119.676 171.715 117.606 181.47C110.487 176.37 104.572 171.055 100.32 166.04C96.9688 162.085 94.6478 158.295 93.5826 155.21C93.0457 153.67 92.8378 152.3 92.8551 151.4C92.8638 150.505 93.0197 150.275 93.0283 150.26C93.0457 150.24 93.1583 149.995 93.929 149.52Z" fill="white"/>
<path d="M117.589 195.26C119.667 202.62 125.426 206.015 132.822 204.255C124.716 216.985 117.052 228.08 110.505 236.65C105.335 243.405 100.84 248.58 97.6096 251.625C95.9988 253.145 94.7084 254.1 93.929 254.52C93.1583 254.935 93.037 254.835 93.0283 254.82L93.0272 254.82C93.0108 254.812 92.8633 254.74 92.8465 253.885C92.8378 253 93.0457 251.39 93.5739 249.235C94.6478 244.915 96.9688 238.445 100.32 230.62C104.572 220.705 110.479 208.565 117.589 195.26Z" fill="white"/>
<path d="M160.665 170.37C167.792 175.465 173.707 180.78 177.959 185.795C181.311 189.75 183.623 193.545 184.697 196.625C185.234 198.165 185.442 199.535 185.425 200.435C185.416 201.34 185.26 201.56 185.251 201.575C185.234 201.605 185.121 201.84 184.351 202.315C183.571 202.795 182.281 203.33 180.661 203.675C177.431 204.36 172.937 204.375 167.775 203.585C161.228 202.585 153.555 200.335 145.449 196.965C152.853 190.17 158.604 180.12 160.665 170.37Z" fill="white"/>
<path fill-rule="evenodd" clip-rule="evenodd" d="M62.5876 334.335L214.54 246.605C217.814 244.715 220.369 246.18 220.369 249.95V425.84C220.369 429.61 217.814 434.025 214.54 435.915L62.5876 523.645C59.314 525.535 56.7592 524.07 56.7592 520.3V344.41C56.7592 340.64 59.314 336.225 62.5876 334.335ZM144.765 314.79V330.76L181.476 309.565V323.375L212.739 284.295L181.476 280.985V293.595L144.765 314.79ZM128.908 399.035V414.995L165.619 393.8V407.61L196.882 368.53L165.619 365.22V377.84L128.908 399.035ZM149.502 348.655V364.625L112.791 385.82V399.63L81.5275 396.65L112.791 357.24V369.85L149.502 348.655ZM132.363 434.92V450.89L95.6524 472.085V485.895L64.3889 482.915L95.6524 443.505V456.115L132.363 434.92Z" fill="white"/>
</svg>
