<svg width="226" height="418" viewBox="0 0 226 418" fill="none" xmlns="http://www.w3.org/2000/svg">
<path d="M32.7917 60.0181V74.7381L84.7532 44.7381V30.0181L32.7917 60.0181Z" fill="#8BC5E4"/>
<path d="M32.7917 74.738L57.7852 89.168L109.747 59.168L84.7532 44.738L32.7917 74.738Z" fill="#8BC5E4"/>
<path d="M57.7852 89.168L83.1857 115.273L135.147 85.273L109.747 59.168L57.7852 89.168Z" fill="#8BC5E4"/>
<path d="M83.1856 115.273L58.5991 112.158L110.561 82.158L135.147 85.273L83.1856 115.273Z" fill="#8BC5E4"/>
<path d="M58.5991 112.158V111.898L110.561 81.8979V82.1579L58.5991 112.158Z" fill="#8BC5E4"/>
<path d="M58.5992 111.898L32.7917 96.998L84.7532 66.998L110.561 81.898L58.5992 111.898Z" fill="#8BC5E4"/>
<path d="M32.7917 96.998V111.728L84.7532 81.728V66.998L32.7917 96.998Z" fill="#8BC5E4"/>
<path d="M32.7917 111.728L58.5992 126.628L110.561 96.628L84.7532 81.728L32.7917 111.728Z" fill="#8BC5E4"/>
<path d="M58.5991 126.628V120.738L110.561 90.738V96.628L58.5991 126.628Z" fill="#8BC5E4"/>
<path d="M58.5991 120.738L114.683 153.118L166.645 123.118L110.561 90.738L58.5991 120.738Z" fill="#8BC5E4"/>
<path d="M114.683 153.118V159.008L166.644 129.008V123.118L114.683 153.118Z" fill="#8BC5E4"/>
<path d="M114.683 159.008L140.49 173.908L192.452 143.908L166.644 129.008L114.683 159.008Z" fill="#8BC5E4"/>
<path d="M140.49 173.908V159.178L192.452 129.178V143.908L140.49 173.908Z" fill="#8BC5E4"/>
<path d="M140.49 159.178L114.683 144.278L166.644 114.278L192.452 129.178L140.49 159.178Z" fill="#8BC5E4"/>
<path d="M114.683 144.278V144.288L166.644 114.288V114.278L114.683 144.278Z" fill="#8BC5E4"/>
<path d="M114.683 144.288L90.6509 119.583L142.612 89.583L166.645 114.288L114.683 144.288Z" fill="#8BC5E4"/>
<path d="M90.6509 119.583L116.06 122.813L168.022 92.813L142.612 89.583L90.6509 119.583Z" fill="#8BC5E4"/>
<path d="M116.06 122.813L140.491 136.918L192.452 106.918L168.022 92.813L116.06 122.813Z" fill="#8BC5E4"/>
<path d="M140.49 136.918V122.198L192.452 92.198V106.918L140.49 136.918Z" fill="#8BC5E4"/>
<path d="M140.49 122.198L114.683 107.298L166.644 77.2981L192.452 92.1981L140.49 122.198Z" fill="#8BC5E4"/>
<path d="M114.683 107.298V113.088L166.644 83.0881V77.2981L114.683 107.298Z" fill="#8BC5E4"/>
<path d="M114.683 113.088L58.5991 80.708L110.561 50.708L166.645 83.088L114.683 113.088Z" fill="#8BC5E4"/>
<path d="M58.5991 80.708V74.918L110.561 44.918V50.708L58.5991 80.708Z" fill="#8BC5E4"/>
<path d="M58.5992 74.9181L32.7917 60.0181L84.7532 30.0181L110.561 44.9181L58.5992 74.9181Z" fill="#8BC5E4"/>
<path d="M32.7917 60.0181L84.7532 30.0181L32.7917 60.0181Z" fill="#8BC5E4"/>
<path d="M58.5991 83.8479L114.683 116.228L166.645 86.2279L110.561 53.8479L58.5991 83.8479Z" fill="#8BC5E4"/>
<path d="M114.683 116.228V119.258L166.644 89.258V86.228L114.683 116.228Z" fill="#8BC5E4"/>
<path d="M114.683 119.258L86.9182 115.748L138.88 85.748L166.645 89.258L114.683 119.258Z" fill="#8BC5E4"/>
<path d="M86.9182 115.748L58.5991 86.6279L110.561 56.6279L138.88 85.7479L86.9182 115.748Z" fill="#8BC5E4"/>
<path d="M58.5991 86.6279V83.8479L110.561 53.8479V56.6279L58.5991 86.6279Z" fill="#8BC5E4"/>
<path d="M58.5991 83.8479L110.561 53.8479L58.5991 83.8479Z" fill="#8BC5E4"/>
<path d="M86.9182 119.108L114.683 147.658L166.645 117.658L138.88 89.1079L86.9182 119.108Z" fill="#8BC5E4"/>
<path d="M114.683 147.658V149.978L166.644 119.978V117.658L114.683 147.658Z" fill="#8BC5E4"/>
<path d="M114.683 149.978L58.5991 117.598L110.561 87.5979L166.645 119.978L114.683 149.978Z" fill="#8BC5E4"/>
<path d="M58.5991 117.598V115.528L110.561 85.5281V87.5981L58.5991 117.598Z" fill="#8BC5E4"/>
<path d="M58.5991 115.528L86.9182 119.108L138.88 89.1081L110.561 85.5281L58.5991 115.528Z" fill="#8BC5E4"/>
<path d="M86.9182 119.108L138.88 89.1079L86.9182 119.108Z" fill="#8BC5E4"/>
<path d="M80.4404 325.678V309.688L132.402 279.688V295.678L80.4404 325.678Z" fill="#8BC5E4"/>
<path d="M80.4404 309.688L43.7209 288.488L95.6824 258.488L132.402 279.688L80.4404 309.688Z" fill="#8BC5E4"/>
<path d="M43.7209 288.488V275.858L95.6824 245.858V258.488L43.7209 288.488Z" fill="#8BC5E4"/>
<path d="M43.7208 275.858L12.4746 279.208L64.4361 249.208L95.6823 245.858L43.7208 275.858Z" fill="#8BC5E4"/>
<path d="M12.4746 279.208L43.7208 318.308L95.6823 288.308L64.4361 249.208L12.4746 279.208Z" fill="#8BC5E4"/>
<path d="M43.7209 318.308V304.478L95.6824 274.478V288.308L43.7209 318.308Z" fill="#8BC5E4"/>
<path d="M43.7209 304.478L80.4404 325.678L132.402 295.678L95.6824 274.478L43.7209 304.478Z" fill="#8BC5E4"/>
<path d="M80.4404 325.678L132.402 295.678L80.4404 325.678Z" fill="#8BC5E4"/>
<path d="M97.5789 259.093V243.113L149.54 213.113V229.093L97.5789 259.093Z" fill="#8BC5E4"/>
<path d="M97.579 243.113L60.8596 221.913L112.821 191.913L149.541 213.113L97.579 243.113Z" fill="#8BC5E4"/>
<path d="M60.8596 221.913V209.273L112.821 179.273V191.913L60.8596 221.913Z" fill="#8BC5E4"/>
<path d="M60.8596 209.273L29.6047 212.628L81.5662 182.628L112.821 179.273L60.8596 209.273Z" fill="#8BC5E4"/>
<path d="M29.6047 212.628L60.8596 251.733L112.821 221.733L81.5662 182.628L29.6047 212.628Z" fill="#8BC5E4"/>
<path d="M60.8596 251.733V237.893L112.821 207.893V221.733L60.8596 251.733Z" fill="#8BC5E4"/>
<path d="M60.8596 237.893L97.579 259.093L149.541 229.093L112.821 207.893L60.8596 237.893Z" fill="#8BC5E4"/>
<path d="M97.5789 259.093L149.54 229.093L97.5789 259.093Z" fill="#8BC5E4"/>
<path d="M76.9849 285.743V269.763L128.946 239.763V255.743L76.9849 285.743Z" fill="#8BC5E4"/>
<path d="M76.9849 269.763L113.696 290.958L165.657 260.958L128.946 239.763L76.9849 269.763Z" fill="#8BC5E4"/>
<path d="M113.696 290.958V278.328L165.657 248.328V260.958L113.696 290.958Z" fill="#8BC5E4"/>
<path d="M113.696 278.328L144.959 317.758L196.921 287.758L165.657 248.328L113.696 278.328Z" fill="#8BC5E4"/>
<path d="M144.959 317.758L113.696 320.768L165.657 290.768L196.921 287.758L144.959 317.758Z" fill="#8BC5E4"/>
<path d="M113.696 320.768V306.938L165.657 276.938V290.768L113.696 320.768Z" fill="#8BC5E4"/>
<path d="M113.696 306.938L76.9849 285.743L128.946 255.743L165.657 276.938L113.696 306.938Z" fill="#8BC5E4"/>
<path d="M76.9849 285.743L128.946 255.743L76.9849 285.743Z" fill="#8BC5E4"/>
<path d="M92.8418 219.708V203.728L144.803 173.728V189.708L92.8418 219.708Z" fill="#8BC5E4"/>
<path d="M92.8418 203.728L129.561 224.928L181.523 194.928L144.803 173.728L92.8418 203.728Z" fill="#8BC5E4"/>
<path d="M129.561 224.928V212.298L181.523 182.298V194.928L129.561 224.928Z" fill="#8BC5E4"/>
<path d="M129.561 212.298L160.807 251.728L212.769 221.728L181.523 182.298L129.561 212.298Z" fill="#8BC5E4"/>
<path d="M160.807 251.728L129.561 254.738L181.523 224.738L212.769 221.728L160.807 251.728Z" fill="#8BC5E4"/>
<path d="M129.561 254.738V240.908L181.523 210.908V224.738L129.561 254.738Z" fill="#8BC5E4"/>
<path d="M129.561 240.908L92.8418 219.708L144.803 189.708L181.523 210.908L129.561 240.908Z" fill="#8BC5E4"/>
<path d="M92.8418 219.708L144.803 189.708L92.8418 219.708Z" fill="#8BC5E4"/>
<path d="M0.0385742 37.5581V96.3181L52.0001 66.3181V7.55811L0.0385742 37.5581Z" fill="#8BC5E4"/>
<path d="M10.6648 114.703L162.618 202.433L214.579 172.433L62.6264 84.7031L10.6648 114.703Z" fill="#8BC5E4"/>
<path d="M173.244 196.318V137.558L225.205 107.558V166.318L173.244 196.318Z" fill="#8BC5E4"/>
<path d="M162.618 119.173L10.6648 31.4431L62.6264 1.44312L214.579 89.1731L162.618 119.173Z" fill="#8BC5E4"/>
<path d="M10.6648 31.4431L62.6264 1.44312L10.6648 31.4431Z" fill="#8BC5E4"/>
<path d="M10.6648 36.9729L162.618 124.703L214.579 94.7029L62.6264 6.9729L10.6648 36.9729Z" fill="#8BC5E4"/>
<path d="M168.446 134.788V193.548L220.407 163.548V104.788L168.446 134.788Z" fill="#8BC5E4"/>
<path d="M162.618 196.903L10.6648 109.173L62.6264 79.1731L214.579 166.903L162.618 196.903Z" fill="#8BC5E4"/>
<path d="M4.83643 99.0881V40.3281L56.7979 10.3281V69.0881L4.83643 99.0881Z" fill="#8BC5E4"/>
<path d="M10.6648 36.9729L62.6264 6.9729L10.6648 36.9729Z" fill="#8BC5E4"/>
<path d="M0.0385742 128.918V305.068L52.0001 275.068V98.918L0.0385742 128.918Z" fill="#8BC5E4"/>
<path d="M10.6648 323.443L162.618 411.173L214.579 381.173L62.6264 293.443L10.6648 323.443Z" fill="#8BC5E4"/>
<path d="M173.244 405.068V228.918L225.205 198.918V375.068L173.244 405.068Z" fill="#8BC5E4"/>
<path d="M162.618 210.533L10.6648 122.803L62.6264 92.803L214.579 180.533L162.618 210.533Z" fill="#8BC5E4"/>
<path d="M10.6648 122.803L62.6264 92.803L10.6648 122.803Z" fill="#8BC5E4"/>
<path d="M10.6648 128.333L162.618 216.063L214.579 186.063L62.6264 98.333L10.6648 128.333Z" fill="#8BC5E4"/>
<path d="M168.446 226.148V402.298L220.407 372.298V196.148L168.446 226.148Z" fill="#8BC5E4"/>
<path d="M162.618 405.643L10.6648 317.913L62.6264 287.913L214.579 375.643L162.618 405.643Z" fill="#8BC5E4"/>
<path d="M4.83643 307.838V131.688L56.7979 101.688V277.838L4.83643 307.838Z" fill="#8BC5E4"/>
<path d="M10.6648 128.333L62.6264 98.333L10.6648 128.333Z" fill="#8BC5E4"/>
<path d="M10.6648 128.333L162.618 216.063L214.579 186.063L62.6264 98.333L10.6648 128.333Z" fill="#8BC5E4"/>
<path d="M168.446 226.148V402.298L220.407 372.298V196.148L168.446 226.148Z" fill="#8BC5E4"/>
<path d="M162.618 405.643L10.6648 317.913L62.6264 287.913L214.579 375.643L162.618 405.643Z" fill="#8BC5E4"/>
<path d="M4.83643 307.838V131.688L56.7979 101.688V277.838L4.83643 307.838Z" fill="#8BC5E4"/>
<path d="M10.6648 128.333L62.6264 98.333L10.6648 128.333Z" fill="#8BC5E4"/>
<path d="M80.4404 309.688V325.678L132.402 295.678V279.688L80.4404 309.688Z" fill="#8BC5E4"/>
<path d="M80.4404 325.678L43.7209 304.478L95.6824 274.478L132.402 295.678L80.4404 325.678Z" fill="#8BC5E4"/>
<path d="M43.7209 304.478V318.308L95.6824 288.308V274.478L43.7209 304.478Z" fill="#8BC5E4"/>
<path d="M43.7208 318.308L12.4746 279.208L64.4361 249.208L95.6823 288.308L43.7208 318.308Z" fill="#8BC5E4"/>
<path d="M12.4746 279.208L43.7208 275.858L95.6823 245.858L64.4361 249.208L12.4746 279.208Z" fill="#8BC5E4"/>
<path d="M43.7209 275.858V288.488L95.6824 258.488V245.858L43.7209 275.858Z" fill="#8BC5E4"/>
<path d="M43.7209 288.488L80.4404 309.688L132.402 279.688L95.6824 258.488L43.7209 288.488Z" fill="#8BC5E4"/>
<path d="M80.4404 309.688L132.402 279.688L80.4404 309.688Z" fill="#8BC5E4"/>
<path d="M97.5789 243.113V259.093L149.54 229.093V213.113L97.5789 243.113Z" fill="#8BC5E4"/>
<path d="M97.579 259.093L60.8596 237.893L112.821 207.893L149.541 229.093L97.579 259.093Z" fill="#8BC5E4"/>
<path d="M60.8596 237.893V251.733L112.821 221.733V207.893L60.8596 237.893Z" fill="#8BC5E4"/>
<path d="M60.8596 251.733L29.6047 212.628L81.5662 182.628L112.821 221.733L60.8596 251.733Z" fill="#8BC5E4"/>
<path d="M29.6047 212.628L60.8596 209.273L112.821 179.273L81.5662 182.628L29.6047 212.628Z" fill="#8BC5E4"/>
<path d="M60.8596 209.273V221.913L112.821 191.913V179.273L60.8596 209.273Z" fill="#8BC5E4"/>
<path d="M60.8596 221.913L97.579 243.113L149.541 213.113L112.821 191.913L60.8596 221.913Z" fill="#8BC5E4"/>
<path d="M97.5789 243.113L149.54 213.113L97.5789 243.113Z" fill="#8BC5E4"/>
<path d="M76.9849 269.763V285.743L128.946 255.743V239.763L76.9849 269.763Z" fill="#8BC5E4"/>
<path d="M76.9849 285.743L113.696 306.938L165.657 276.938L128.946 255.743L76.9849 285.743Z" fill="#8BC5E4"/>
<path d="M113.696 306.938V320.768L165.657 290.768V276.938L113.696 306.938Z" fill="#8BC5E4"/>
<path d="M113.696 320.768L144.959 317.758L196.921 287.758L165.657 290.768L113.696 320.768Z" fill="#8BC5E4"/>
<path d="M144.959 317.758L113.696 278.328L165.657 248.328L196.921 287.758L144.959 317.758Z" fill="#8BC5E4"/>
<path d="M113.696 278.328V290.958L165.657 260.958V248.328L113.696 278.328Z" fill="#8BC5E4"/>
<path d="M113.696 290.958L76.9849 269.763L128.946 239.763L165.657 260.958L113.696 290.958Z" fill="#8BC5E4"/>
<path d="M76.9849 269.763L128.946 239.763L76.9849 269.763Z" fill="#8BC5E4"/>
<path d="M92.8418 203.728V219.708L144.803 189.708V173.728L92.8418 203.728Z" fill="#8BC5E4"/>
<path d="M92.8418 219.708L129.561 240.908L181.523 210.908L144.803 189.708L92.8418 219.708Z" fill="#8BC5E4"/>
<path d="M129.561 240.908V254.738L181.523 224.738V210.908L129.561 240.908Z" fill="#8BC5E4"/>
<path d="M129.561 254.738L160.807 251.728L212.769 221.728L181.523 224.738L129.561 254.738Z" fill="#8BC5E4"/>
<path d="M160.807 251.728L129.561 212.298L181.523 182.298L212.769 221.728L160.807 251.728Z" fill="#8BC5E4"/>
<path d="M129.561 212.298V224.928L181.523 194.928V182.298L129.561 212.298Z" fill="#8BC5E4"/>
<path d="M129.561 224.928L92.8418 203.728L144.803 173.728L181.523 194.928L129.561 224.928Z" fill="#8BC5E4"/>
<path d="M92.8418 203.728L144.803 173.728L92.8418 203.728Z" fill="#8BC5E4"/>
<path d="M10.6648 36.9729L162.618 124.703L214.579 94.7029L62.6264 6.9729L10.6648 36.9729Z" fill="#8BC5E4"/>
<path d="M168.446 134.788V193.548L220.407 163.548V104.788L168.446 134.788Z" fill="#8BC5E4"/>
<path d="M162.618 196.903L10.6648 109.173L62.6264 79.1731L214.579 166.903L162.618 196.903Z" fill="#8BC5E4"/>
<path d="M4.83643 99.0881V40.3281L56.7979 10.3281V69.0881L4.83643 99.0881Z" fill="#8BC5E4"/>
<path d="M10.6648 36.9729L62.6264 6.9729L10.6648 36.9729Z" fill="#8BC5E4"/>
<path d="M32.7917 74.7381V60.0181L84.7532 30.0181V44.7381L32.7917 74.7381Z" fill="#8BC5E4"/>
<path d="M32.7917 60.0181L58.5992 74.9181L110.561 44.9181L84.7532 30.0181L32.7917 60.0181Z" fill="#8BC5E4"/>
<path d="M58.5991 74.918V80.708L110.561 50.708V44.918L58.5991 74.918Z" fill="#8BC5E4"/>
<path d="M58.5991 80.708L114.683 113.088L166.645 83.088L110.561 50.708L58.5991 80.708Z" fill="#8BC5E4"/>
<path d="M114.683 113.088V107.298L166.644 77.2981V83.0881L114.683 113.088Z" fill="#8BC5E4"/>
<path d="M114.683 107.298L140.49 122.198L192.452 92.1981L166.644 77.2981L114.683 107.298Z" fill="#8BC5E4"/>
<path d="M140.49 122.198V136.918L192.452 106.918V92.198L140.49 122.198Z" fill="#8BC5E4"/>
<path d="M140.491 136.918L116.06 122.813L168.022 92.813L192.452 106.918L140.491 136.918Z" fill="#8BC5E4"/>
<path d="M116.06 122.813L90.6509 119.583L142.612 89.583L168.022 92.813L116.06 122.813Z" fill="#8BC5E4"/>
<path d="M90.6509 119.583L114.683 144.288L166.645 114.288L142.612 89.583L90.6509 119.583Z" fill="#8BC5E4"/>
<path d="M114.683 144.288V144.278L166.644 114.278V114.288L114.683 144.288Z" fill="#8BC5E4"/>
<path d="M114.683 144.278L140.49 159.178L192.452 129.178L166.644 114.278L114.683 144.278Z" fill="#8BC5E4"/>
<path d="M140.49 159.178V173.908L192.452 143.908V129.178L140.49 159.178Z" fill="#8BC5E4"/>
<path d="M140.49 173.908L114.683 159.008L166.644 129.008L192.452 143.908L140.49 173.908Z" fill="#8BC5E4"/>
<path d="M114.683 159.008V153.118L166.644 123.118V129.008L114.683 159.008Z" fill="#8BC5E4"/>
<path d="M114.683 153.118L58.5991 120.738L110.561 90.738L166.645 123.118L114.683 153.118Z" fill="#8BC5E4"/>
<path d="M58.5991 120.738V126.628L110.561 96.628V90.738L58.5991 120.738Z" fill="#8BC5E4"/>
<path d="M58.5992 126.628L32.7917 111.728L84.7532 81.728L110.561 96.628L58.5992 126.628Z" fill="#8BC5E4"/>
<path d="M32.7917 111.728V96.998L84.7532 66.998V81.728L32.7917 111.728Z" fill="#8BC5E4"/>
<path d="M32.7917 96.998L58.5992 111.898L110.561 81.898L84.7532 66.998L32.7917 96.998Z" fill="#8BC5E4"/>
<path d="M58.5991 111.898V112.158L110.561 82.1579V81.8979L58.5991 111.898Z" fill="#8BC5E4"/>
<path d="M58.5991 112.158L83.1856 115.273L135.147 85.273L110.561 82.158L58.5991 112.158Z" fill="#8BC5E4"/>
<path d="M83.1857 115.273L57.7852 89.168L109.747 59.168L135.147 85.273L83.1857 115.273Z" fill="#8BC5E4"/>
<path d="M57.7852 89.168L32.7917 74.738L84.7532 44.738L109.747 59.168L57.7852 89.168Z" fill="#8BC5E4"/>
<path d="M32.7917 74.738L84.7532 44.738L32.7917 74.738Z" fill="#8BC5E4"/>
<path d="M86.9182 119.108L114.683 147.658L166.645 117.658L138.88 89.1079L86.9182 119.108Z" fill="#8BC5E4"/>
<path d="M114.683 147.658V149.978L166.644 119.978V117.658L114.683 147.658Z" fill="#8BC5E4"/>
<path d="M114.683 149.978L58.5991 117.598L110.561 87.5979L166.645 119.978L114.683 149.978Z" fill="#8BC5E4"/>
<path d="M58.5991 117.598V115.528L110.561 85.5281V87.5981L58.5991 117.598Z" fill="#8BC5E4"/>
<path d="M58.5991 115.528L86.9182 119.108L138.88 89.1081L110.561 85.5281L58.5991 115.528Z" fill="#8BC5E4"/>
<path d="M86.9182 119.108L138.88 89.1079L86.9182 119.108Z" fill="#8BC5E4"/>
<path d="M58.5991 83.8479L114.683 116.228L166.645 86.2279L110.561 53.8479L58.5991 83.8479Z" fill="#8BC5E4"/>
<path d="M114.683 116.228V119.258L166.644 89.258V86.228L114.683 116.228Z" fill="#8BC5E4"/>
<path d="M114.683 119.258L86.9182 115.748L138.88 85.748L166.645 89.258L114.683 119.258Z" fill="#8BC5E4"/>
<path d="M86.9182 115.748L58.5991 86.6279L110.561 56.6279L138.88 85.7479L86.9182 115.748Z" fill="#8BC5E4"/>
<path d="M58.5991 86.6279V83.8479L110.561 53.8479V56.6279L58.5991 86.6279Z" fill="#8BC5E4"/>
<path d="M58.5991 83.8479L110.561 53.8479L58.5991 83.8479Z" fill="#8BC5E4"/>
<path d="M10.6648 31.443C7.74167 29.756 5.08567 29.599 3.15967 30.707L55.1212 0.70701C57.0472 -0.40099 59.7032 -0.24399 62.6264 1.44301L10.6648 31.443Z" fill="#8BC5E4"/>
<path d="M3.16257 30.7061C1.23657 31.8121 0.0415742 34.1811 0.0385742 37.5481L52.0001 7.54805C52.0031 4.18105 53.1981 1.81205 55.1241 0.706055L3.16257 30.7061Z" fill="#8BC5E4"/>
<path d="M0.0385742 96.3181C0.0385742 103.058 4.81907 111.328 10.6647 114.703L62.6263 84.7031C56.7806 81.3281 52.0001 73.0581 52.0001 66.3181L0.0385742 96.3181Z" fill="#8BC5E4"/>
<path d="M162.617 202.433C165.541 204.121 168.197 204.277 170.123 203.169L222.084 173.169C220.158 174.277 217.502 174.121 214.579 172.433L162.617 202.433Z" fill="#8BC5E4"/>
<path d="M170.12 203.17C172.046 202.064 173.241 199.695 173.244 196.328L225.205 166.328C225.202 169.695 224.007 172.064 222.081 173.17L170.12 203.17Z" fill="#8BC5E4"/>
<path d="M173.244 137.558C173.244 130.818 168.463 122.548 162.617 119.173L214.579 89.1731C220.425 92.5481 225.205 100.818 225.205 107.558L173.244 137.558Z" fill="#8BC5E4"/>
<path d="M162.617 124.703C165.891 126.593 168.446 131.018 168.446 134.788L220.407 104.788C220.407 101.018 217.853 96.5931 214.579 94.7031L162.617 124.703Z" fill="#8BC5E4"/>
<path d="M168.446 193.548C168.446 195.433 167.808 196.744 166.76 197.348L218.721 167.348C219.769 166.744 220.407 165.433 220.407 163.548L168.446 193.548Z" fill="#8BC5E4"/>
<path d="M166.761 197.347C165.714 197.952 164.258 197.849 162.623 196.906L214.584 166.906C216.219 167.849 217.675 167.952 218.722 167.347L166.761 197.347Z" fill="#8BC5E4"/>
<path d="M10.6647 109.173C7.39123 107.283 4.83643 102.858 4.83643 99.0879L56.7979 69.0879C56.7979 72.8579 59.3527 77.2829 62.6263 79.1729L10.6647 109.173Z" fill="#8BC5E4"/>
<path d="M4.83643 40.3281C4.83663 38.4431 5.47463 37.1321 6.52263 36.5281L58.4841 6.52808C57.4361 7.13208 56.7981 8.44308 56.7979 10.3281L4.83643 40.3281Z" fill="#8BC5E4"/>
<path d="M6.52148 36.529C7.56848 35.925 9.02448 36.027 10.6595 36.97L62.621 6.96995C60.986 6.02695 59.53 5.92495 58.483 6.52895L6.52148 36.529Z" fill="#8BC5E4"/>
<path d="M10.6648 122.803C7.74167 121.116 5.08567 120.959 3.15967 122.067L55.1212 92.0671C57.0472 90.9591 59.7032 91.1161 62.6264 92.8031L10.6648 122.803Z" fill="#8BC5E4"/>
<path d="M3.16257 122.066C1.23657 123.172 0.0415742 125.541 0.0385742 128.908L52.0001 98.9079C52.0031 95.5409 53.1981 93.1719 55.1241 92.0659L3.16257 122.066Z" fill="#8BC5E4"/>
<path d="M0.0385742 305.068C0.0385742 311.798 4.81907 320.068 10.6647 323.443L62.6263 293.443C56.7806 290.068 52.0001 281.798 52.0001 275.068L0.0385742 305.068Z" fill="#8BC5E4"/>
<path d="M162.617 411.173C165.541 412.86 168.197 413.017 170.123 411.91L222.084 381.91C220.158 383.017 217.502 382.86 214.579 381.173L162.617 411.173Z" fill="#8BC5E4"/>
<path d="M170.12 411.911C172.046 410.806 173.241 408.439 173.244 405.078L225.205 375.078C225.202 378.439 224.007 380.806 222.081 381.911L170.12 411.911Z" fill="#8BC5E4"/>
<path d="M173.244 228.918C173.244 222.178 168.463 213.908 162.617 210.533L214.579 180.533C220.425 183.908 225.205 192.178 225.205 198.918L173.244 228.918Z" fill="#8BC5E4"/>
<path d="M162.617 216.063C165.891 217.953 168.446 222.378 168.446 226.148L220.407 196.148C220.407 192.378 217.853 187.953 214.579 186.063L162.617 216.063Z" fill="#8BC5E4"/>
<path d="M168.446 402.298C168.446 404.178 167.808 405.487 166.76 406.089L218.721 376.089C219.769 375.487 220.407 374.178 220.407 372.298L168.446 402.298Z" fill="#8BC5E4"/>
<path d="M166.761 406.089C165.714 406.692 164.258 406.589 162.623 405.646L214.584 375.646C216.219 376.589 217.675 376.692 218.722 376.089L166.761 406.089Z" fill="#8BC5E4"/>
<path d="M10.6647 317.913C7.39123 316.023 4.83643 311.598 4.83643 307.838L56.7979 277.838C56.7979 281.598 59.3527 286.023 62.6263 287.913L10.6647 317.913Z" fill="#8BC5E4"/>
<path d="M4.83643 131.688C4.83663 129.803 5.47463 128.492 6.52263 127.888L58.4841 97.8879C57.4361 98.4919 56.7981 99.8029 56.7979 101.688L4.83643 131.688Z" fill="#8BC5E4"/>
<path d="M6.52148 127.889C7.56848 127.285 9.02448 127.387 10.6595 128.33L62.621 98.3301C60.986 97.3871 59.53 97.2851 58.483 97.8891L6.52148 127.889Z" fill="#8BC5E4"/>
<path d="M162.617 216.063C165.891 217.953 168.446 222.378 168.446 226.148L220.407 196.148C220.407 192.378 217.853 187.953 214.579 186.063L162.617 216.063Z" fill="#8BC5E4"/>
<path d="M168.446 402.298C168.446 404.178 167.808 405.487 166.76 406.089L218.721 376.089C219.769 375.487 220.407 374.178 220.407 372.298L168.446 402.298Z" fill="#8BC5E4"/>
<path d="M166.761 406.089C165.714 406.692 164.258 406.589 162.623 405.646L214.584 375.646C216.219 376.589 217.675 376.692 218.722 376.089L166.761 406.089Z" fill="#8BC5E4"/>
<path d="M10.6647 317.913C7.39123 316.023 4.83643 311.598 4.83643 307.838L56.7979 277.838C56.7979 281.598 59.3527 286.023 62.6263 287.913L10.6647 317.913Z" fill="#8BC5E4"/>
<path d="M4.83643 131.688C4.83663 129.803 5.47463 128.492 6.52263 127.888L58.4841 97.8879C57.4361 98.4919 56.7981 99.8029 56.7979 101.688L4.83643 131.688Z" fill="#8BC5E4"/>
<path d="M6.52148 127.889C7.56848 127.285 9.02448 127.387 10.6595 128.33L62.621 98.3301C60.986 97.3871 59.53 97.2851 58.483 97.8891L6.52148 127.889Z" fill="#8BC5E4"/>
<path d="M162.617 124.703C165.891 126.593 168.446 131.018 168.446 134.788L220.407 104.788C220.407 101.018 217.853 96.5931 214.579 94.7031L162.617 124.703Z" fill="#8BC5E4"/>
<path d="M168.446 193.548C168.446 195.433 167.808 196.744 166.76 197.348L218.721 167.348C219.769 166.744 220.407 165.433 220.407 163.548L168.446 193.548Z" fill="#8BC5E4"/>
<path d="M166.761 197.347C165.714 197.952 164.258 197.849 162.623 196.906L214.584 166.906C216.219 167.849 217.675 167.952 218.722 167.347L166.761 197.347Z" fill="#8BC5E4"/>
<path d="M10.6647 109.173C7.39123 107.283 4.83643 102.858 4.83643 99.0879L56.7979 69.0879C56.7979 72.8579 59.3527 77.2829 62.6263 79.1729L10.6647 109.173Z" fill="#8BC5E4"/>
<path d="M4.83643 40.3281C4.83663 38.4431 5.47463 37.1321 6.52263 36.5281L58.4841 6.52808C57.4361 7.13208 56.7981 8.44308 56.7979 10.3281L4.83643 40.3281Z" fill="#8BC5E4"/>
<path d="M6.52148 36.529C7.56848 35.925 9.02448 36.027 10.6595 36.97L62.621 6.96995C60.986 6.02695 59.53 5.92495 58.483 6.52895L6.52148 36.529Z" fill="#8BC5E4"/>
<path d="M32.7917 60.0181V74.7381L57.7851 89.1681L83.1857 115.273L58.5992 112.158V111.898L32.7917 96.9981V111.728L58.5992 126.628V120.738L114.683 153.118V159.008L140.491 173.908V159.178L114.683 144.278V144.288L90.6508 119.583L116.06 122.813L140.491 136.918V122.198L114.683 107.298V113.088L58.5992 80.7081V74.9181L32.7917 60.0181ZM58.5992 83.8481L114.683 116.228V119.258L86.9182 115.748L58.5992 86.6281V83.8481ZM86.9182 119.108L114.683 147.658V149.978L58.5992 117.598V115.528L86.9182 119.108ZM80.4404 325.678V309.688L43.7209 288.488V275.858L12.4747 279.208L43.7209 318.308V304.478L80.4404 325.678ZM97.579 259.093V243.113L60.8595 221.913V209.273L29.6047 212.628L60.8595 251.733V237.893L97.579 259.093ZM76.9849 285.743V269.763L113.696 290.958V278.328L144.959 317.758L113.696 320.768V306.938L76.9849 285.743ZM92.8419 219.708V203.728L129.561 224.928V212.298L160.808 251.728L129.561 254.738V240.908L92.8419 219.708ZM10.6647 31.4431C4.81903 28.0681 0.0385742 30.8181 0.0385742 37.5581V96.3181C0.0385742 103.058 4.81903 111.328 10.6647 114.703L162.618 202.433C168.463 205.808 173.244 203.058 173.244 196.318V137.558C173.244 130.818 168.463 122.548 162.618 119.173L10.6647 31.4431ZM10.6647 36.9731L162.618 124.703C165.891 126.593 168.446 131.018 168.446 134.788V193.548C168.446 197.318 165.891 198.793 162.618 196.903L10.6647 109.173C7.39113 107.283 4.83635 102.858 4.83635 99.0881V40.3281C4.83635 36.5581 7.39113 35.0831 10.6647 36.9731ZM10.6647 122.803C4.81903 119.428 0.0385742 122.178 0.0385742 128.918V305.068C0.0385742 311.798 4.81903 320.068 10.6647 323.443L162.618 411.173C168.463 414.548 173.244 411.798 173.244 405.068V228.918C173.244 222.178 168.463 213.908 162.618 210.533L10.6647 122.803ZM10.6647 128.333L162.618 216.063C165.891 217.953 168.446 222.378 168.446 226.148V402.298C168.446 406.058 165.891 407.533 162.618 405.643L10.6647 317.913C7.39113 316.023 4.83635 311.598 4.83635 307.838V131.688C4.83635 127.918 7.39113 126.443 10.6647 128.333Z" fill="#8BC5E4"/>
<path fill-rule="evenodd" clip-rule="evenodd" d="M10.6647 128.333L162.618 216.063C165.891 217.953 168.446 222.378 168.446 226.148V402.298C168.446 406.058 165.891 407.533 162.618 405.643L10.6647 317.913C7.39113 316.023 4.83635 311.598 4.83635 307.838V131.688C4.83635 127.918 7.39113 126.443 10.6647 128.333ZM80.4404 309.688V325.678L43.7209 304.478V318.308L12.4747 279.208L43.7209 275.858V288.488L80.4404 309.688ZM97.579 243.113V259.093L60.8595 237.893V251.733L29.6047 212.628L60.8595 209.273V221.913L97.579 243.113ZM76.9849 269.763V285.743L113.696 306.938V320.768L144.959 317.758L113.696 278.328V290.958L76.9849 269.763ZM92.8419 203.728V219.708L129.561 240.908V254.738L160.808 251.728L129.561 212.298V224.928L92.8419 203.728Z" fill="white"/>
<path fill-rule="evenodd" clip-rule="evenodd" d="M10.6647 36.9731L162.618 124.703C165.891 126.593 168.446 131.018 168.446 134.788V193.548C168.446 197.318 165.891 198.793 162.618 196.903L10.6647 109.173C7.39113 107.283 4.83635 102.858 4.83635 99.0881V40.3281C4.83635 36.5581 7.39113 35.0831 10.6647 36.9731ZM32.7917 74.7381V60.0181L58.5992 74.9181V80.7081L114.683 113.088V107.298L140.491 122.198V136.918L116.06 122.813L90.6508 119.583L114.683 144.288V144.278L140.491 159.178V173.908L114.683 159.008V153.118L58.5992 120.738V126.628L32.7917 111.728V96.9981L58.5992 111.898V112.158L83.1857 115.273L57.7851 89.1681L32.7917 74.7381Z" fill="white"/>
<path d="M86.9182 119.108L114.683 147.658V149.978L58.5992 117.598V115.528L86.9182 119.108Z" fill="white"/>
<path d="M58.5992 83.8481L114.683 116.228V119.258L86.9182 115.748L58.5992 86.6281V83.8481Z" fill="white"/>
</svg>
