<svg width="226" height="536" viewBox="0 0 226 536" fill="none" xmlns="http://www.w3.org/2000/svg">
<path d="M87.4079 105.535L75.8032 111.625L127.765 81.6253L139.37 75.5353L87.4079 105.535Z" fill="#8BC5E4"/>
<path d="M75.8032 111.625L84.0131 116.365L135.975 86.3652L127.765 81.6252L75.8032 111.625Z" fill="#8BC5E4"/>
<path d="M84.0132 116.365V143.535L135.975 113.535V86.3654L84.0132 116.365Z" fill="#8BC5E4"/>
<path d="M59.6518 157.05L36.4597 143.66L88.4212 113.66L111.613 127.05L59.6518 157.05Z" fill="#8BC5E4"/>
<path d="M36.4597 143.66V134.2L88.4212 104.2V113.66L36.4597 143.66Z" fill="#8BC5E4"/>
<path d="M36.4597 134.2L25.3572 141.15L77.3187 111.15L88.4212 104.2L36.4597 134.2Z" fill="#8BC5E4"/>
<path d="M25.3572 141.15L36.4597 160.4L88.4212 130.4L77.3187 111.15L25.3572 141.15Z" fill="#8BC5E4"/>
<path d="M36.4597 160.4V151.63L88.4212 121.63V130.4L36.4597 160.4Z" fill="#8BC5E4"/>
<path d="M36.4597 151.63L59.1322 164.72L111.094 134.72L88.4212 121.63L36.4597 151.63Z" fill="#8BC5E4"/>
<path d="M84.0132 205.965V233.155L135.975 203.155V175.965L84.0132 205.965Z" fill="#8BC5E4"/>
<path d="M84.0131 233.155L75.8032 228.415L127.765 198.415L135.975 203.155L84.0131 233.155Z" fill="#8BC5E4"/>
<path d="M75.8032 228.415L87.4079 247.895L139.37 217.895L127.765 198.415L75.8032 228.415Z" fill="#8BC5E4"/>
<path d="M87.408 247.895L98.5538 241.55L150.515 211.55L139.37 217.895L87.408 247.895Z" fill="#8BC5E4"/>
<path d="M98.5536 241.55L90.9326 237.15L142.894 207.15L150.515 211.55L98.5536 241.55Z" fill="#8BC5E4"/>
<path d="M90.9326 237.15V210.55L142.894 180.55V207.15L90.9326 237.15Z" fill="#8BC5E4"/>
<path d="M115.216 197.1L137.897 210.195L189.859 180.195L167.178 167.1L115.216 197.1Z" fill="#8BC5E4"/>
<path d="M137.897 210.195V218.965L189.859 188.965V180.195L137.897 210.195Z" fill="#8BC5E4"/>
<path d="M137.897 218.965L149 212.535L200.961 182.535L189.859 188.965L137.897 218.965Z" fill="#8BC5E4"/>
<path d="M149 212.535L137.897 192.765L189.859 162.765L200.961 182.535L149 212.535Z" fill="#8BC5E4"/>
<path d="M137.897 192.765V202.225L189.859 172.225V162.765L137.897 192.765Z" fill="#8BC5E4"/>
<path d="M137.897 202.225L114.696 188.83L166.658 158.83L189.859 172.225L137.897 202.225Z" fill="#8BC5E4"/>
<path d="M90.9326 146.95V120.36L142.894 90.3604V116.95L90.9326 146.95Z" fill="#8BC5E4"/>
<path d="M90.9326 120.36L98.5536 124.76L150.515 94.7604L142.894 90.3604L90.9326 120.36Z" fill="#8BC5E4"/>
<path d="M98.5538 124.76L87.408 105.535L139.37 75.5353L150.515 94.7603L98.5538 124.76Z" fill="#8BC5E4"/>
<path d="M87.408 105.535L139.37 75.5353L87.408 105.535Z" fill="#8BC5E4"/>
<path d="M133.29 150.925L133.291 150.927L185.253 120.927L185.252 120.925L133.29 150.925Z" fill="#8BC5E4"/>
<path d="M132.389 150.185L184.351 120.185L132.389 150.185Z" fill="#8BC5E4"/>
<path d="M41.9675 97.9803L93.929 67.9803L41.9675 97.9803Z" fill="#8BC5E4"/>
<path d="M108.704 195.89L160.665 165.89L108.704 195.89Z" fill="#8BC5E4"/>
<path d="M41.067 202.24L41.0659 202.239L93.0274 172.239L93.0285 172.24L41.067 202.24Z" fill="#8BC5E4"/>
<path d="M65.6274 171.04L117.589 141.04L65.6274 171.04Z" fill="#8BC5E4"/>
<path d="M92.8032 337.92V321.95L144.765 291.95V307.92L92.8032 337.92Z" fill="#8BC5E4"/>
<path d="M92.8032 321.95L129.514 343.145L181.476 313.145L144.765 291.95L92.8032 321.95Z" fill="#8BC5E4"/>
<path d="M129.514 343.145V330.535L181.476 300.535V313.145L129.514 343.145Z" fill="#8BC5E4"/>
<path d="M129.514 330.535L160.778 369.945L212.739 339.945L181.476 300.535L129.514 330.535Z" fill="#8BC5E4"/>
<path d="M160.778 369.945L129.514 372.925L181.476 342.925L212.739 339.945L160.778 369.945Z" fill="#8BC5E4"/>
<path d="M129.514 372.925V359.115L181.476 329.115V342.925L129.514 372.925Z" fill="#8BC5E4"/>
<path d="M129.514 359.115L92.8032 337.92L144.765 307.92L181.476 329.115L129.514 359.115Z" fill="#8BC5E4"/>
<path d="M92.8032 337.92L144.765 307.92L92.8032 337.92Z" fill="#8BC5E4"/>
<path d="M76.9463 403.845V387.885L128.908 357.885V373.845L76.9463 403.845Z" fill="#8BC5E4"/>
<path d="M76.9463 387.885L113.657 409.08L165.619 379.08L128.908 357.885L76.9463 387.885Z" fill="#8BC5E4"/>
<path d="M113.657 409.08V396.46L165.619 366.46V379.08L113.657 409.08Z" fill="#8BC5E4"/>
<path d="M113.657 396.46L144.921 435.87L196.882 405.87L165.619 366.46L113.657 396.46Z" fill="#8BC5E4"/>
<path d="M144.921 435.87L113.657 438.85L165.619 408.85L196.882 405.87L144.921 435.87Z" fill="#8BC5E4"/>
<path d="M113.657 438.85V425.04L165.619 395.04V408.85L113.657 438.85Z" fill="#8BC5E4"/>
<path d="M113.657 425.04L76.9463 403.845L128.908 373.845L165.619 395.04L113.657 425.04Z" fill="#8BC5E4"/>
<path d="M76.9463 403.845L128.908 373.845L76.9463 403.845Z" fill="#8BC5E4"/>
<path d="M97.5403 377.255V361.285L149.502 331.285V347.255L97.5403 377.255Z" fill="#8BC5E4"/>
<path d="M97.5404 361.285L60.8296 340.09L112.791 310.09L149.502 331.285L97.5404 361.285Z" fill="#8BC5E4"/>
<path d="M60.8296 340.09V327.48L112.791 297.48V310.09L60.8296 340.09Z" fill="#8BC5E4"/>
<path d="M60.8297 327.48L29.5662 330.79L81.5277 300.79L112.791 297.48L60.8297 327.48Z" fill="#8BC5E4"/>
<path d="M29.5662 330.79L60.8297 369.87L112.791 339.87L81.5277 300.79L29.5662 330.79Z" fill="#8BC5E4"/>
<path d="M60.8296 369.87V356.06L112.791 326.06V339.87L60.8296 369.87Z" fill="#8BC5E4"/>
<path d="M60.8296 356.06L97.5404 377.255L149.502 347.255L112.791 326.06L60.8296 356.06Z" fill="#8BC5E4"/>
<path d="M97.5403 377.255L149.502 347.255L97.5403 377.255Z" fill="#8BC5E4"/>
<path d="M80.4019 443.73V427.76L132.363 397.76V413.73L80.4019 443.73Z" fill="#8BC5E4"/>
<path d="M80.4017 427.76L43.6909 406.565L95.6524 376.565L132.363 397.76L80.4017 427.76Z" fill="#8BC5E4"/>
<path d="M43.6909 406.565V393.955L95.6524 363.955V376.565L43.6909 406.565Z" fill="#8BC5E4"/>
<path d="M43.691 393.955L12.4275 397.265L64.389 367.265L95.6525 363.955L43.691 393.955Z" fill="#8BC5E4"/>
<path d="M12.4275 397.265L43.691 436.345L95.6525 406.345L64.389 367.265L12.4275 397.265Z" fill="#8BC5E4"/>
<path d="M43.6909 436.345V422.535L95.6524 392.535V406.345L43.6909 436.345Z" fill="#8BC5E4"/>
<path d="M43.6909 422.535L80.4017 443.73L132.363 413.73L95.6524 392.535L43.6909 422.535Z" fill="#8BC5E4"/>
<path d="M80.4019 443.73L132.363 413.73L80.4019 443.73Z" fill="#8BC5E4"/>
<path d="M10.6262 36.9753L162.579 124.705L214.541 94.7053L62.5878 6.97534L10.6262 36.9753Z" fill="#8BC5E4"/>
<path d="M168.407 134.77V310.67L220.369 280.67V104.77L168.407 134.77Z" fill="#8BC5E4"/>
<path d="M162.579 314.015L10.6262 226.285L62.5878 196.285L214.541 284.015L162.579 314.015Z" fill="#8BC5E4"/>
<path d="M4.79785 216.21V40.3103L56.7593 10.3103V186.21L4.79785 216.21Z" fill="#8BC5E4"/>
<path d="M10.6262 36.9753L62.5878 6.97534L10.6262 36.9753Z" fill="#8BC5E4"/>
<path d="M0 37.5403V213.44L51.9615 183.44V7.54028L0 37.5403Z" fill="#8BC5E4"/>
<path d="M10.6262 231.815L162.579 319.545L214.541 289.545L62.5878 201.815L10.6262 231.815Z" fill="#8BC5E4"/>
<path d="M173.205 313.44V137.54L225.167 107.54V283.44L173.205 313.44Z" fill="#8BC5E4"/>
<path d="M162.579 119.175L10.6262 31.4453L62.5878 1.44531L214.541 89.1753L162.579 119.175Z" fill="#8BC5E4"/>
<path d="M10.6262 31.4453L62.5878 1.44531L10.6262 31.4453Z" fill="#8BC5E4"/>
<path d="M10.6262 246.605L162.579 334.335L214.541 304.335L62.5878 216.605L10.6262 246.605Z" fill="#8BC5E4"/>
<path d="M168.407 344.41V520.3L220.369 490.3V314.41L168.407 344.41Z" fill="#8BC5E4"/>
<path d="M162.579 523.645L10.6262 435.915L62.5878 405.915L214.541 493.645L162.579 523.645Z" fill="#8BC5E4"/>
<path d="M4.79785 425.84V249.95L56.7593 219.95V395.84L4.79785 425.84Z" fill="#8BC5E4"/>
<path d="M10.6262 246.605L62.5878 216.605L10.6262 246.605Z" fill="#8BC5E4"/>
<path d="M0 247.18V423.07L51.9615 393.07V217.18L0 247.18Z" fill="#8BC5E4"/>
<path d="M10.6262 441.445L162.579 529.175L214.541 499.175L62.5878 411.445L10.6262 441.445Z" fill="#8BC5E4"/>
<path d="M173.205 523.07V347.18L225.167 317.18V493.07L173.205 523.07Z" fill="#8BC5E4"/>
<path d="M162.579 328.805L10.6262 241.075L62.5878 211.075L214.541 298.805L162.579 328.805Z" fill="#8BC5E4"/>
<path d="M10.6262 241.075L62.5878 211.075L10.6262 241.075Z" fill="#8BC5E4"/>
<path d="M10.6262 36.9753L162.579 124.705L214.541 94.7053L62.5878 6.97534L10.6262 36.9753Z" fill="#8BC5E4"/>
<path d="M168.407 134.77V310.67L220.369 280.67V104.77L168.407 134.77Z" fill="#8BC5E4"/>
<path d="M162.579 314.015L10.6262 226.285L62.5878 196.285L214.541 284.015L162.579 314.015Z" fill="#8BC5E4"/>
<path d="M4.79785 216.21V40.3103L56.7593 10.3103V186.21L4.79785 216.21Z" fill="#8BC5E4"/>
<path d="M10.6262 36.9753L62.5878 6.97534L10.6262 36.9753Z" fill="#8BC5E4"/>
<path d="M75.8032 111.625L87.4079 105.535L139.37 75.5353L127.765 81.6253L75.8032 111.625Z" fill="#8BC5E4"/>
<path d="M87.408 105.535L98.5538 124.76L150.515 94.7603L139.37 75.5353L87.408 105.535Z" fill="#8BC5E4"/>
<path d="M98.5536 124.76L90.9326 120.36L142.894 90.3604L150.515 94.7604L98.5536 124.76Z" fill="#8BC5E4"/>
<path d="M90.9326 120.36V146.95L142.894 116.95V90.3604L90.9326 120.36Z" fill="#8BC5E4"/>
<path d="M114.696 188.83L137.897 202.225L189.859 172.225L166.658 158.83L114.696 188.83Z" fill="#8BC5E4"/>
<path d="M137.897 202.225V192.765L189.859 162.765V172.225L137.897 202.225Z" fill="#8BC5E4"/>
<path d="M137.897 192.765L149 212.535L200.961 182.535L189.859 162.765L137.897 192.765Z" fill="#8BC5E4"/>
<path d="M149 212.535L137.897 218.965L189.859 188.965L200.961 182.535L149 212.535Z" fill="#8BC5E4"/>
<path d="M137.897 218.965V210.195L189.859 180.195V188.965L137.897 218.965Z" fill="#8BC5E4"/>
<path d="M137.897 210.195L115.216 197.1L167.178 167.1L189.859 180.195L137.897 210.195Z" fill="#8BC5E4"/>
<path d="M90.9326 210.55V237.15L142.894 207.15V180.55L90.9326 210.55Z" fill="#8BC5E4"/>
<path d="M90.9326 237.15L98.5536 241.55L150.515 211.55L142.894 207.15L90.9326 237.15Z" fill="#8BC5E4"/>
<path d="M98.5538 241.55L87.408 247.895L139.37 217.895L150.515 211.55L98.5538 241.55Z" fill="#8BC5E4"/>
<path d="M87.4079 247.895L75.8032 228.415L127.765 198.415L139.37 217.895L87.4079 247.895Z" fill="#8BC5E4"/>
<path d="M75.8032 228.415L84.0131 233.155L135.975 203.155L127.765 198.415L75.8032 228.415Z" fill="#8BC5E4"/>
<path d="M84.0132 233.155V205.965L135.975 175.965V203.155L84.0132 233.155Z" fill="#8BC5E4"/>
<path d="M59.1322 164.72L36.4597 151.63L88.4212 121.63L111.094 134.72L59.1322 164.72Z" fill="#8BC5E4"/>
<path d="M36.4597 151.63V160.4L88.4212 130.4V121.63L36.4597 151.63Z" fill="#8BC5E4"/>
<path d="M36.4597 160.4L25.3572 141.15L77.3187 111.15L88.4212 130.4L36.4597 160.4Z" fill="#8BC5E4"/>
<path d="M25.3572 141.15L36.4597 134.2L88.4212 104.2L77.3187 111.15L25.3572 141.15Z" fill="#8BC5E4"/>
<path d="M36.4597 134.2V143.66L88.4212 113.66V104.2L36.4597 134.2Z" fill="#8BC5E4"/>
<path d="M36.4597 143.66L59.6518 157.05L111.613 127.05L88.4212 113.66L36.4597 143.66Z" fill="#8BC5E4"/>
<path d="M84.0132 143.535V116.365L135.975 86.3654V113.535L84.0132 143.535Z" fill="#8BC5E4"/>
<path d="M84.0131 116.365L75.8032 111.625L127.765 81.6252L135.975 86.3652L84.0131 116.365Z" fill="#8BC5E4"/>
<path d="M75.8032 111.625L127.765 81.6252L75.8032 111.625Z" fill="#8BC5E4"/>
<path d="M133.29 150.925L133.291 150.927L185.253 120.927L185.252 120.925L133.29 150.925Z" fill="#8BC5E4"/>
<path d="M132.389 150.185L184.351 120.185L132.389 150.185Z" fill="#8BC5E4"/>
<path d="M41.9675 97.9803L93.929 67.9803L41.9675 97.9803Z" fill="#8BC5E4"/>
<path d="M41.067 202.24L41.0659 202.239L93.0274 172.239L93.0285 172.24L41.067 202.24Z" fill="#8BC5E4"/>
<path d="M65.6274 171.04L117.589 141.04L65.6274 171.04Z" fill="#8BC5E4"/>
<path d="M108.704 195.89L160.665 165.89L108.704 195.89Z" fill="#8BC5E4"/>
<path d="M10.6262 246.605L162.579 334.335L214.541 304.335L62.5878 216.605L10.6262 246.605Z" fill="#8BC5E4"/>
<path d="M168.407 344.41V520.3L220.369 490.3V314.41L168.407 344.41Z" fill="#8BC5E4"/>
<path d="M162.579 523.645L10.6262 435.915L62.5878 405.915L214.541 493.645L162.579 523.645Z" fill="#8BC5E4"/>
<path d="M4.79785 425.84V249.95L56.7593 219.95V395.84L4.79785 425.84Z" fill="#8BC5E4"/>
<path d="M10.6262 246.605L62.5878 216.605L10.6262 246.605Z" fill="#8BC5E4"/>
<path d="M92.8032 321.95V337.92L144.765 307.92V291.95L92.8032 321.95Z" fill="#8BC5E4"/>
<path d="M92.8032 337.92L129.514 359.115L181.476 329.115L144.765 307.92L92.8032 337.92Z" fill="#8BC5E4"/>
<path d="M129.514 359.115V372.925L181.476 342.925V329.115L129.514 359.115Z" fill="#8BC5E4"/>
<path d="M129.514 372.925L160.778 369.945L212.739 339.945L181.476 342.925L129.514 372.925Z" fill="#8BC5E4"/>
<path d="M160.778 369.945L129.514 330.535L181.476 300.535L212.739 339.945L160.778 369.945Z" fill="#8BC5E4"/>
<path d="M129.514 330.535V343.145L181.476 313.145V300.535L129.514 330.535Z" fill="#8BC5E4"/>
<path d="M129.514 343.145L92.8032 321.95L144.765 291.95L181.476 313.145L129.514 343.145Z" fill="#8BC5E4"/>
<path d="M92.8032 321.95L144.765 291.95L92.8032 321.95Z" fill="#8BC5E4"/>
<path d="M76.9463 387.885V403.845L128.908 373.845V357.885L76.9463 387.885Z" fill="#8BC5E4"/>
<path d="M76.9463 403.845L113.657 425.04L165.619 395.04L128.908 373.845L76.9463 403.845Z" fill="#8BC5E4"/>
<path d="M113.657 425.04V438.85L165.619 408.85V395.04L113.657 425.04Z" fill="#8BC5E4"/>
<path d="M113.657 438.85L144.921 435.87L196.882 405.87L165.619 408.85L113.657 438.85Z" fill="#8BC5E4"/>
<path d="M144.921 435.87L113.657 396.46L165.619 366.46L196.882 405.87L144.921 435.87Z" fill="#8BC5E4"/>
<path d="M113.657 396.46V409.08L165.619 379.08V366.46L113.657 396.46Z" fill="#8BC5E4"/>
<path d="M113.657 409.08L76.9463 387.885L128.908 357.885L165.619 379.08L113.657 409.08Z" fill="#8BC5E4"/>
<path d="M76.9463 387.885L128.908 357.885L76.9463 387.885Z" fill="#8BC5E4"/>
<path d="M97.5403 361.285V377.255L149.502 347.255V331.285L97.5403 361.285Z" fill="#8BC5E4"/>
<path d="M97.5404 377.255L60.8296 356.06L112.791 326.06L149.502 347.255L97.5404 377.255Z" fill="#8BC5E4"/>
<path d="M60.8296 356.06V369.87L112.791 339.87V326.06L60.8296 356.06Z" fill="#8BC5E4"/>
<path d="M60.8297 369.87L29.5662 330.79L81.5277 300.79L112.791 339.87L60.8297 369.87Z" fill="#8BC5E4"/>
<path d="M29.5662 330.79L60.8297 327.48L112.791 297.48L81.5277 300.79L29.5662 330.79Z" fill="#8BC5E4"/>
<path d="M60.8296 327.48V340.09L112.791 310.09V297.48L60.8296 327.48Z" fill="#8BC5E4"/>
<path d="M60.8296 340.09L97.5404 361.285L149.502 331.285L112.791 310.09L60.8296 340.09Z" fill="#8BC5E4"/>
<path d="M97.5403 361.285L149.502 331.285L97.5403 361.285Z" fill="#8BC5E4"/>
<path d="M80.4019 427.76V443.73L132.363 413.73V397.76L80.4019 427.76Z" fill="#8BC5E4"/>
<path d="M80.4017 443.73L43.6909 422.535L95.6524 392.535L132.363 413.73L80.4017 443.73Z" fill="#8BC5E4"/>
<path d="M43.6909 422.535V436.345L95.6524 406.345V392.535L43.6909 422.535Z" fill="#8BC5E4"/>
<path d="M43.691 436.345L12.4275 397.265L64.389 367.265L95.6525 406.345L43.691 436.345Z" fill="#8BC5E4"/>
<path d="M12.4275 397.265L43.691 393.955L95.6525 363.955L64.389 367.265L12.4275 397.265Z" fill="#8BC5E4"/>
<path d="M43.6909 393.955V406.565L95.6524 376.565V363.955L43.6909 393.955Z" fill="#8BC5E4"/>
<path d="M43.6909 406.565L80.4017 427.76L132.363 397.76L95.6524 376.565L43.6909 406.565Z" fill="#8BC5E4"/>
<path d="M80.4019 427.76L132.363 397.76L80.4019 427.76Z" fill="#8BC5E4"/>
<path d="M84.013 143.535C76.0976 131.175 68.5631 120.305 61.938 111.65L113.9 81.6503C120.525 90.3053 128.059 101.175 135.975 113.535L84.013 143.535Z" fill="#8BC5E4"/>
<path d="M61.938 111.65C56.4994 104.53 51.693 98.8953 47.562 95.0103L99.5235 65.0103C103.655 68.8953 108.461 74.5303 113.9 81.6503L61.938 111.65Z" fill="#8BC5E4"/>
<path d="M47.562 95.0103C45.5009 93.0703 43.6043 91.5453 41.751 90.5453L93.7125 60.5453C95.5658 61.5453 97.4624 63.0703 99.5235 65.0103L47.562 95.0103Z" fill="#8BC5E4"/>
<path d="M41.7511 90.5453C40.021 89.6213 38.208 89.1723 36.833 89.7913L88.7945 59.7913C90.1695 59.1723 91.9825 59.6213 93.7126 60.5453L41.7511 90.5453Z" fill="#8BC5E4"/>
<path d="M36.84 89.7883C36.743 89.8313 36.647 89.8803 36.554 89.9353L88.5155 59.9353C88.6085 59.8803 88.7045 59.8313 88.8015 59.7883L36.84 89.7883Z" fill="#8BC5E4"/>
<path d="M36.5462 89.9403C36.4529 89.9953 36.3629 90.0563 36.2759 90.1213L88.2374 60.1213C88.3244 60.0563 88.4144 59.9953 88.5077 59.9403L36.5462 89.9403Z" fill="#8BC5E4"/>
<path d="M36.2769 90.1204C35.0649 91.0314 34.5789 92.8414 34.5459 94.8094L86.5074 64.8094C86.5404 62.8414 87.0264 61.0314 88.2384 60.1204L36.2769 90.1204Z" fill="#8BC5E4"/>
<path d="M34.5458 94.8153C34.5111 96.9353 34.9095 99.3453 35.5936 102.1L87.5552 72.1003C86.871 69.3453 86.4726 66.9353 86.5073 64.8153L34.5458 94.8153Z" fill="#8BC5E4"/>
<path d="M35.5935 102.1C36.9619 107.61 39.5166 114.575 43.05 122.825L95.0115 92.8253C91.4782 84.5753 88.9234 77.6103 87.5551 72.1003L35.5935 102.1Z" fill="#8BC5E4"/>
<path d="M43.05 122.825C47.2762 132.685 52.9227 144.345 59.6517 157.05L111.613 127.05C104.884 114.345 99.2378 102.685 95.0115 92.8253L43.05 122.825Z" fill="#8BC5E4"/>
<path d="M59.1322 164.72C58.78 164.981 58.43 165.242 58.084 165.505L110.045 135.505C110.391 135.242 110.741 134.981 111.094 134.72L59.1322 164.72Z" fill="#8BC5E4"/>
<path d="M58.0839 165.504C52.0439 170.075 46.9459 174.797 43.0559 179.378L95.0174 149.378C98.9074 144.797 104.005 140.075 110.045 135.504L58.0839 165.504Z" fill="#8BC5E4"/>
<path d="M43.05 179.385C39.508 183.55 36.9619 187.57 35.5935 191.5L87.5551 161.5C88.9234 157.57 91.4695 153.55 95.0115 149.385L43.05 179.385Z" fill="#8BC5E4"/>
<path d="M35.5937 191.5C34.9096 193.475 34.5026 195.42 34.5459 197.575L86.5074 167.575C86.4641 165.42 86.8711 163.475 87.5553 161.5L35.5937 191.5Z" fill="#8BC5E4"/>
<path d="M34.5459 197.575C34.5805 199.725 35.1348 202.305 36.5464 204.76L88.5079 174.76C87.0963 172.305 86.542 169.725 86.5074 167.575L34.5459 197.575Z" fill="#8BC5E4"/>
<path d="M36.5464 204.76C37.9493 207.21 39.8979 209.015 41.7512 210.165L93.7127 180.165C91.8594 179.015 89.9109 177.21 88.5079 174.76L36.5464 204.76Z" fill="#8BC5E4"/>
<path d="M41.751 210.165C43.6043 211.305 45.5009 211.97 47.562 212.41L99.5235 182.41C97.4624 181.97 95.5658 181.305 93.7125 180.165L41.751 210.165Z" fill="#8BC5E4"/>
<path d="M47.562 212.41C51.6843 213.29 56.4994 213.21 61.938 212.37L113.9 182.37C108.461 183.21 103.646 183.29 99.5235 182.41L47.562 212.41Z" fill="#8BC5E4"/>
<path d="M61.938 212.37C68.2039 211.419 75.2839 209.427 82.7299 206.481L134.691 176.481C127.245 179.427 120.165 181.419 113.9 182.37L61.938 212.37Z" fill="#8BC5E4"/>
<path d="M82.7351 206.478C83.1581 206.311 83.5821 206.14 84.0071 205.967L135.969 175.967C135.544 176.14 135.12 176.311 134.697 176.478L82.7351 206.478Z" fill="#8BC5E4"/>
<path d="M90.9326 210.55C98.6315 222.535 105.958 233.075 112.419 241.525L164.38 211.525C157.92 203.075 150.593 192.535 142.894 180.55L90.9326 210.55Z" fill="#8BC5E4"/>
<path d="M112.419 241.525C117.857 248.645 122.664 254.27 126.786 258.15L178.747 228.15C174.625 224.27 169.819 218.645 164.38 211.525L112.419 241.525Z" fill="#8BC5E4"/>
<path d="M126.786 258.15C128.847 260.09 130.753 261.62 132.606 262.62L184.567 232.62C182.714 231.62 180.809 230.09 178.748 228.15L126.786 258.15Z" fill="#8BC5E4"/>
<path d="M132.606 262.62C134.336 263.544 136.149 264.002 137.524 263.375L189.485 233.375C188.11 234.002 186.297 233.544 184.567 232.62L132.606 262.62Z" fill="#8BC5E4"/>
<path d="M137.516 263.379C137.613 263.335 137.709 263.285 137.802 263.23L189.764 233.23C189.671 233.285 189.575 233.335 189.478 233.379L137.516 263.379Z" fill="#8BC5E4"/>
<path d="M137.811 263.225C137.904 263.17 137.993 263.11 138.079 263.045L190.04 233.045C189.954 233.11 189.865 233.17 189.772 233.225L137.811 263.225Z" fill="#8BC5E4"/>
<path d="M138.079 263.046C139.284 262.139 139.777 260.324 139.811 258.356L191.773 228.356C191.739 230.324 191.246 232.139 190.041 233.046L138.079 263.046Z" fill="#8BC5E4"/>
<path d="M139.811 258.35C139.846 256.24 139.447 253.83 138.763 251.065L190.725 221.065C191.409 223.83 191.807 226.24 191.773 228.35L139.811 258.35Z" fill="#8BC5E4"/>
<path d="M138.763 251.065C137.395 245.555 134.84 238.59 131.307 230.34L183.268 200.34C186.802 208.59 189.357 215.555 190.725 221.065L138.763 251.065Z" fill="#8BC5E4"/>
<path d="M131.307 230.34C127.193 220.745 121.72 209.425 115.216 197.1L167.178 167.1C173.681 179.425 179.155 190.745 183.268 200.34L131.307 230.34Z" fill="#8BC5E4"/>
<path d="M114.696 188.83C115.058 188.565 115.416 188.299 115.771 188.033L167.732 158.033C167.377 158.299 167.019 158.565 166.658 158.83L114.696 188.83Z" fill="#8BC5E4"/>
<path d="M115.78 188.026C122.031 183.34 127.304 178.486 131.301 173.787L183.263 143.787C179.266 148.486 173.993 153.34 167.742 158.026L115.78 188.026Z" fill="#8BC5E4"/>
<path d="M131.307 173.78C134.84 169.61 137.395 165.595 138.763 161.665L190.725 131.665C189.357 135.595 186.802 139.61 183.268 143.78L131.307 173.78Z" fill="#8BC5E4"/>
<path d="M138.763 161.665C139.439 159.695 139.846 157.75 139.811 155.59L191.773 125.59C191.807 127.75 191.4 129.695 190.725 131.665L138.763 161.665Z" fill="#8BC5E4"/>
<path d="M139.811 155.59C139.776 153.44 139.214 150.865 137.811 148.405L189.772 118.405C191.175 120.865 191.738 123.44 191.773 125.59L139.811 155.59Z" fill="#8BC5E4"/>
<path d="M137.811 148.405C136.408 145.955 134.45 144.145 132.597 142.995L184.559 112.995C186.412 114.145 188.369 115.955 189.772 118.405L137.811 148.405Z" fill="#8BC5E4"/>
<path d="M132.597 142.995C130.753 141.86 128.856 141.195 126.786 140.75L178.748 110.75C180.817 111.195 182.714 111.86 184.559 112.995L132.597 142.995Z" fill="#8BC5E4"/>
<path d="M126.786 140.75C122.664 139.87 117.857 139.955 112.41 140.78L164.372 110.78C169.819 109.955 174.625 109.87 178.748 110.75L126.786 140.75Z" fill="#8BC5E4"/>
<path d="M112.41 140.78C106.308 141.721 99.4229 143.642 92.1809 146.457L144.142 116.457C151.384 113.642 158.269 111.721 164.372 110.78L112.41 140.78Z" fill="#8BC5E4"/>
<path d="M92.175 146.46C91.764 146.62 91.351 146.782 90.938 146.948L142.899 116.948C143.312 116.782 143.725 116.62 144.136 116.46L92.175 146.46Z" fill="#8BC5E4"/>
<path d="M132.389 150.185C133.16 150.66 133.273 150.905 133.29 150.925L185.252 120.925C185.234 120.905 185.122 120.66 184.351 120.185L132.389 150.185Z" fill="#8BC5E4"/>
<path d="M133.291 150.927C133.307 150.954 133.455 151.196 133.463 152.065L185.425 122.065C185.416 121.196 185.269 120.954 185.253 120.927L133.291 150.927Z" fill="#8BC5E4"/>
<path d="M133.463 152.065C133.48 152.965 133.273 154.335 132.736 155.875L184.697 125.875C185.234 124.335 185.442 122.965 185.425 122.065L133.463 152.065Z" fill="#8BC5E4"/>
<path d="M132.736 155.875C131.662 158.955 129.35 162.75 125.998 166.705L177.96 136.705C181.311 132.75 183.623 128.955 184.697 125.875L132.736 155.875Z" fill="#8BC5E4"/>
<path d="M125.998 166.705C121.972 171.444 116.464 176.456 109.847 181.304L161.808 151.304C168.425 146.456 173.933 141.444 177.96 136.705L125.998 166.705Z" fill="#8BC5E4"/>
<path d="M109.842 181.308C109.473 181.578 109.101 181.847 108.726 182.116L160.688 152.116C161.063 151.847 161.435 151.578 161.804 151.308L109.842 181.308Z" fill="#8BC5E4"/>
<path d="M108.721 182.12C106.651 172.365 100.892 162.32 93.4873 155.535L145.449 125.535C152.853 132.32 158.613 142.365 160.682 152.12L108.721 182.12Z" fill="#8BC5E4"/>
<path d="M93.4873 155.535C93.9229 155.354 94.3569 155.176 94.7899 155.002L146.751 125.002C146.318 125.176 145.884 125.354 145.449 125.535L93.4873 155.535Z" fill="#8BC5E4"/>
<path d="M94.79 155.002C102.414 151.928 109.618 149.871 115.814 148.925L167.776 118.925C161.58 119.871 154.376 121.928 146.752 125.002L94.79 155.002Z" fill="#8BC5E4"/>
<path d="M115.813 148.925C120.984 148.13 125.47 148.14 128.7 148.825L180.661 118.825C177.431 118.14 172.945 118.13 167.775 118.925L115.813 148.925Z" fill="#8BC5E4"/>
<path d="M128.7 148.825C130.319 149.18 131.61 149.705 132.389 150.185L184.351 120.185C183.571 119.705 182.281 119.18 180.662 118.825L128.7 148.825Z" fill="#8BC5E4"/>
<path d="M41.9675 97.9803C42.7469 98.4003 44.0373 99.3653 45.6481 100.875L97.6096 70.8753C95.9988 69.3653 94.7084 68.4003 93.929 67.9803L41.9675 97.9803Z" fill="#8BC5E4"/>
<path d="M45.6482 100.875C48.8871 103.925 53.3731 109.095 58.5433 115.86L110.505 85.8602C105.335 79.0952 100.849 73.9252 97.6097 70.8752L45.6482 100.875Z" fill="#8BC5E4"/>
<path d="M58.5432 115.86C65.0904 124.42 72.7547 135.515 80.8607 148.245L132.822 118.245C124.716 105.515 117.052 94.4204 110.505 85.8604L58.5432 115.86Z" fill="#8BC5E4"/>
<path d="M80.8607 148.245C77.2349 147.387 74.0049 147.769 71.4099 149.25L123.371 119.25C125.966 117.769 129.196 117.387 132.822 118.245L80.8607 148.245Z" fill="#8BC5E4"/>
<path d="M71.412 149.248C68.713 150.787 66.702 153.512 65.646 157.265L117.607 127.265C118.663 123.512 120.674 120.787 123.373 119.248L71.412 149.248Z" fill="#8BC5E4"/>
<path d="M65.6447 157.27C58.526 143.95 52.611 131.805 48.3589 121.88L100.32 91.8802C104.573 101.805 110.487 113.95 117.606 127.27L65.6447 157.27Z" fill="#8BC5E4"/>
<path d="M48.3588 121.88C45.0072 114.055 42.6863 107.585 41.6211 103.27L93.5826 73.2703C94.6478 77.5853 96.9688 84.0553 100.32 91.8803L48.3588 121.88Z" fill="#8BC5E4"/>
<path d="M41.6213 103.27C41.0843 101.11 40.8765 99.5004 40.8938 98.6204L92.8553 68.6204C92.838 69.5004 93.0459 71.1104 93.5828 73.2704L41.6213 103.27Z" fill="#8BC5E4"/>
<path d="M40.8938 98.6203C40.9025 97.7353 41.0584 97.6853 41.067 97.6803L93.0285 67.6803C93.0199 67.6853 92.864 67.7353 92.8553 68.6203L40.8938 98.6203Z" fill="#8BC5E4"/>
<path d="M41.0669 97.6803C41.0842 97.6803 41.1968 97.5653 41.9676 97.9803L93.9291 67.9803C93.1584 67.5653 93.0458 67.6803 93.0284 67.6803L41.0669 97.6803Z" fill="#8BC5E4"/>
<path d="M108.704 195.89C115.831 209.215 121.746 221.36 125.998 231.285L177.96 201.285C173.708 191.36 167.793 179.215 160.665 165.89L108.704 195.89Z" fill="#8BC5E4"/>
<path d="M125.998 231.285C129.35 239.11 131.662 245.575 132.736 249.895L184.697 219.895C183.623 215.575 181.311 209.11 177.96 201.285L125.998 231.285Z" fill="#8BC5E4"/>
<path d="M132.736 249.895C133.273 252.055 133.48 253.665 133.463 254.545L185.425 224.545C185.442 223.665 185.234 222.055 184.697 219.895L132.736 249.895Z" fill="#8BC5E4"/>
<path d="M133.463 254.545C133.455 255.44 133.299 255.48 133.29 255.485L185.252 225.485C185.26 225.48 185.416 225.44 185.425 224.545L133.463 254.545Z" fill="#8BC5E4"/>
<path d="M133.29 255.485C133.273 255.495 133.16 255.6 132.389 255.185L184.351 225.185C185.122 225.6 185.234 225.495 185.252 225.485L133.29 255.485Z" fill="#8BC5E4"/>
<path d="M132.389 255.185C131.61 254.765 130.319 253.81 128.7 252.285L180.662 222.285C182.281 223.81 183.571 224.765 184.351 225.185L132.389 255.185Z" fill="#8BC5E4"/>
<path d="M128.7 252.285C125.47 249.24 120.975 244.065 115.813 237.315L167.775 207.315C172.936 214.065 177.431 219.24 180.661 222.285L128.7 252.285Z" fill="#8BC5E4"/>
<path d="M115.814 237.315C109.266 228.755 101.593 217.645 93.4873 204.915L145.449 174.915C153.555 187.645 161.228 198.755 167.775 207.315L115.814 237.315Z" fill="#8BC5E4"/>
<path d="M93.4873 204.915C97.1169 205.775 100.35 205.394 102.945 203.914L154.906 173.914C152.311 175.394 149.078 175.775 145.449 174.915L93.4873 204.915Z" fill="#8BC5E4"/>
<path d="M102.943 203.915C105.641 202.377 107.651 199.65 108.702 195.895L160.664 165.895C159.613 169.65 157.603 172.377 154.905 173.915L102.943 203.915Z" fill="#8BC5E4"/>
<path d="M65.6274 171.04C67.7059 180.8 73.4649 190.845 80.8608 197.625L132.822 167.625C125.427 160.845 119.667 150.8 117.589 141.04L65.6274 171.04Z" fill="#8BC5E4"/>
<path d="M80.8609 197.625C80.4251 197.806 79.9911 197.984 79.5591 198.158L131.521 168.158C131.953 167.984 132.387 167.806 132.822 167.625L80.8609 197.625Z" fill="#8BC5E4"/>
<path d="M79.559 198.158C71.939 201.231 64.746 203.292 58.553 204.249L110.514 174.249C116.707 173.292 123.9 171.231 131.52 168.158L79.559 198.158Z" fill="#8BC5E4"/>
<path d="M58.5433 204.25C53.3731 205.035 48.8785 205.02 45.6482 204.335L97.6097 174.335C100.84 175.02 105.335 175.035 110.505 174.25L58.5433 204.25Z" fill="#8BC5E4"/>
<path d="M45.6481 204.335C44.0373 203.995 42.7469 203.46 41.9675 202.98L93.929 172.98C94.7084 173.46 95.9988 173.995 97.6096 174.335L45.6481 204.335Z" fill="#8BC5E4"/>
<path d="M41.9676 202.98C41.1968 202.505 41.0756 202.265 41.0669 202.24L93.0284 172.24C93.0371 172.265 93.1584 172.505 93.9291 172.98L41.9676 202.98Z" fill="#8BC5E4"/>
<path d="M41.0657 202.239C41.0493 202.211 40.9018 201.969 40.885 201.095L92.8465 171.095C92.8633 171.969 93.0108 172.211 93.0272 172.239L41.0657 202.239Z" fill="#8BC5E4"/>
<path d="M40.885 201.095C40.8763 200.2 41.0841 198.83 41.6124 197.285L93.5739 167.285C93.0457 168.83 92.8378 170.2 92.8465 171.095L40.885 201.095Z" fill="#8BC5E4"/>
<path d="M41.6125 197.285C42.6864 194.205 45.0073 190.415 48.3589 186.46L100.32 156.46C96.9689 160.415 94.6479 164.205 93.574 167.285L41.6125 197.285Z" fill="#8BC5E4"/>
<path d="M48.3589 186.46C52.383 181.724 57.888 176.706 64.492 171.863L116.453 141.863C109.849 146.706 104.344 151.724 100.32 156.46L48.3589 186.46Z" fill="#8BC5E4"/>
<path d="M64.5081 171.852C64.8761 171.582 65.2471 171.313 65.6221 171.044L117.584 141.044C117.209 141.313 116.838 141.582 116.47 141.852L64.5081 171.852Z" fill="#8BC5E4"/>
<path d="M162.579 124.705C165.853 126.595 168.408 131.01 168.408 134.77L220.369 104.77C220.369 101.01 217.814 96.5953 214.541 94.7053L162.579 124.705Z" fill="#8BC5E4"/>
<path d="M168.407 310.67C168.407 312.55 167.769 313.859 166.721 314.461L218.682 284.461C219.73 283.859 220.368 282.55 220.369 280.67L168.407 310.67Z" fill="#8BC5E4"/>
<path d="M166.722 314.461C165.675 315.064 164.219 314.961 162.584 314.018L214.545 284.018C216.18 284.961 217.636 285.064 218.683 284.461L166.722 314.461Z" fill="#8BC5E4"/>
<path d="M10.6262 226.285C7.35265 224.395 4.79785 219.97 4.79785 216.21L56.7593 186.21C56.7593 189.97 59.3142 194.395 62.5878 196.285L10.6262 226.285Z" fill="#8BC5E4"/>
<path d="M4.79785 40.3103C4.79805 38.4303 5.43605 37.1243 6.48405 36.5243L58.4456 6.52429C57.3976 7.12429 56.7595 8.43029 56.7593 10.3103L4.79785 40.3103Z" fill="#8BC5E4"/>
<path d="M6.49512 36.5173C7.54112 35.9253 8.99212 36.0333 10.6211 36.9723L62.5826 6.97226C60.9536 6.03326 59.5026 5.92526 58.4566 6.51726L6.49512 36.5173Z" fill="#8BC5E4"/>
<path d="M10.6262 31.4453C7.70908 29.7613 5.05708 29.5993 3.13208 30.6973L55.0936 0.697301C57.0186 -0.400699 59.6706 -0.238699 62.5878 1.4453L10.6262 31.4453Z" fill="#8BC5E4"/>
<path d="M3.124 30.7023C1.198 31.8043 0.003 34.1683 0 37.5303L51.9615 7.53027C51.9645 4.16827 53.1595 1.80427 55.0855 0.702271L3.124 30.7023Z" fill="#8BC5E4"/>
<path d="M0 213.44C0 220.17 4.7805 228.44 10.6261 231.815L62.5877 201.815C56.742 198.44 51.9615 190.17 51.9615 183.44L0 213.44Z" fill="#8BC5E4"/>
<path d="M162.579 319.545C165.502 321.232 168.158 321.389 170.084 320.282L222.046 290.282C220.12 291.389 217.464 291.232 214.541 289.545L162.579 319.545Z" fill="#8BC5E4"/>
<path d="M170.081 320.283C172.007 319.178 173.202 316.811 173.205 313.45L225.167 283.45C225.164 286.811 223.969 289.178 222.043 290.283L170.081 320.283Z" fill="#8BC5E4"/>
<path d="M173.205 137.54C173.205 130.81 168.425 122.55 162.579 119.175L214.541 89.1753C220.386 92.5503 225.167 100.81 225.167 107.54L173.205 137.54Z" fill="#8BC5E4"/>
<path d="M162.579 334.335C165.853 336.225 168.408 340.64 168.408 344.41L220.369 314.41C220.369 310.64 217.814 306.225 214.541 304.335L162.579 334.335Z" fill="#8BC5E4"/>
<path d="M168.407 520.3C168.407 522.185 167.769 523.494 166.721 524.095L218.682 494.095C219.73 493.494 220.368 492.185 220.369 490.3L168.407 520.3Z" fill="#8BC5E4"/>
<path d="M166.722 524.094C165.675 524.696 164.219 524.591 162.584 523.648L214.545 493.648C216.18 494.591 217.636 494.696 218.683 494.094L166.722 524.094Z" fill="#8BC5E4"/>
<path d="M10.6262 435.915C7.35265 434.025 4.79785 429.61 4.79785 425.84L56.7593 395.84C56.7593 399.61 59.3142 404.025 62.5878 405.915L10.6262 435.915Z" fill="#8BC5E4"/>
<path d="M4.79785 249.95C4.79805 248.065 5.43605 246.756 6.48405 246.155L58.4456 216.155C57.3976 216.756 56.7595 218.065 56.7593 219.95L4.79785 249.95Z" fill="#8BC5E4"/>
<path d="M6.48291 246.156C7.52991 245.554 8.98591 245.659 10.6209 246.602L62.5824 216.602C60.9474 215.659 59.4914 215.554 58.4444 216.156L6.48291 246.156Z" fill="#8BC5E4"/>
<path d="M10.6262 241.075C7.70309 239.388 5.04709 239.231 3.12109 240.338L55.0826 210.338C57.0086 209.231 59.6646 209.388 62.5878 211.075L10.6262 241.075Z" fill="#8BC5E4"/>
<path d="M3.124 240.337C1.198 241.442 0.003 243.809 0 247.17L51.9615 217.17C51.9645 213.809 53.1595 211.442 55.0855 210.337L3.124 240.337Z" fill="#8BC5E4"/>
<path d="M0 423.07C0 429.8 4.7805 438.07 10.6261 441.445L62.5877 411.445C56.742 408.07 51.9615 399.8 51.9615 393.07L0 423.07Z" fill="#8BC5E4"/>
<path d="M162.579 529.175C165.502 530.862 168.158 531.019 170.084 529.912L222.046 499.912C220.12 501.019 217.464 500.862 214.541 499.175L162.579 529.175Z" fill="#8BC5E4"/>
<path d="M170.081 529.913C172.007 528.808 173.202 526.441 173.205 523.08L225.167 493.08C225.164 496.441 223.969 498.808 222.043 499.913L170.081 529.913Z" fill="#8BC5E4"/>
<path d="M173.205 347.18C173.205 340.45 168.425 332.18 162.579 328.805L214.541 298.805C220.386 302.18 225.167 310.45 225.167 317.18L173.205 347.18Z" fill="#8BC5E4"/>
<path d="M162.579 124.705C165.853 126.595 168.408 131.01 168.408 134.77L220.369 104.77C220.369 101.01 217.814 96.5953 214.541 94.7053L162.579 124.705Z" fill="#8BC5E4"/>
<path d="M168.407 310.67C168.407 312.55 167.769 313.859 166.721 314.461L218.682 284.461C219.73 283.859 220.368 282.55 220.369 280.67L168.407 310.67Z" fill="#8BC5E4"/>
<path d="M166.722 314.461C165.675 315.064 164.219 314.961 162.584 314.018L214.545 284.018C216.18 284.961 217.636 285.064 218.683 284.461L166.722 314.461Z" fill="#8BC5E4"/>
<path d="M10.6262 226.285C7.35265 224.395 4.79785 219.97 4.79785 216.21L56.7593 186.21C56.7593 189.97 59.3142 194.395 62.5878 196.285L10.6262 226.285Z" fill="#8BC5E4"/>
<path d="M4.79785 40.3103C4.79805 38.4303 5.43605 37.1243 6.48405 36.5243L58.4456 6.52429C57.3976 7.12429 56.7595 8.43029 56.7593 10.3103L4.79785 40.3103Z" fill="#8BC5E4"/>
<path d="M6.49512 36.5173C7.54112 35.9253 8.99212 36.0333 10.6211 36.9723L62.5826 6.97226C60.9536 6.03326 59.5026 5.92526 58.4566 6.51726L6.49512 36.5173Z" fill="#8BC5E4"/>
<path d="M90.9326 146.95C91.3499 146.783 91.7659 146.619 92.1809 146.457L144.142 116.457C143.727 116.619 143.311 116.783 142.894 116.95L90.9326 146.95Z" fill="#8BC5E4"/>
<path d="M92.1809 146.457C99.4189 143.644 106.301 141.723 112.401 140.781L164.362 110.781C158.262 111.723 151.38 113.644 144.142 116.457L92.1809 146.457Z" fill="#8BC5E4"/>
<path d="M112.41 140.78C117.857 139.955 122.664 139.87 126.786 140.75L178.748 110.75C174.625 109.87 169.819 109.955 164.372 110.78L112.41 140.78Z" fill="#8BC5E4"/>
<path d="M126.786 140.75C128.856 141.195 130.753 141.86 132.597 142.995L184.559 112.995C182.714 111.86 180.817 111.195 178.748 110.75L126.786 140.75Z" fill="#8BC5E4"/>
<path d="M132.597 142.995C134.45 144.145 136.408 145.955 137.811 148.405L189.772 118.405C188.369 115.955 186.412 114.145 184.559 112.995L132.597 142.995Z" fill="#8BC5E4"/>
<path d="M137.811 148.405C139.214 150.865 139.776 153.44 139.811 155.59L191.773 125.59C191.738 123.44 191.175 120.865 189.772 118.405L137.811 148.405Z" fill="#8BC5E4"/>
<path d="M139.811 155.59C139.846 157.75 139.439 159.695 138.763 161.665L190.725 131.665C191.4 129.695 191.807 127.75 191.773 125.59L139.811 155.59Z" fill="#8BC5E4"/>
<path d="M138.763 161.665C137.395 165.595 134.84 169.61 131.307 173.78L183.268 143.78C186.802 139.61 189.357 135.595 190.725 131.665L138.763 161.665Z" fill="#8BC5E4"/>
<path d="M131.307 173.78C127.308 178.483 122.029 183.343 115.771 188.033L167.732 158.033C173.99 153.343 179.269 148.483 183.268 143.78L131.307 173.78Z" fill="#8BC5E4"/>
<path d="M115.776 188.029C115.421 188.295 115.062 188.561 114.701 188.826L166.662 158.826C167.023 158.561 167.382 158.295 167.737 158.029L115.776 188.029Z" fill="#8BC5E4"/>
<path d="M115.216 197.1C121.72 209.425 127.193 220.745 131.307 230.34L183.268 200.34C179.155 190.745 173.681 179.425 167.178 167.1L115.216 197.1Z" fill="#8BC5E4"/>
<path d="M131.307 230.34C134.84 238.59 137.395 245.555 138.763 251.065L190.725 221.065C189.357 215.555 186.802 208.59 183.268 200.34L131.307 230.34Z" fill="#8BC5E4"/>
<path d="M138.763 251.065C139.447 253.83 139.846 256.24 139.811 258.35L191.773 228.35C191.807 226.24 191.409 223.83 190.725 221.065L138.763 251.065Z" fill="#8BC5E4"/>
<path d="M139.811 258.35C139.779 260.32 139.286 262.137 138.079 263.045L190.041 233.045C191.248 232.137 191.741 230.32 191.773 228.35L139.811 258.35Z" fill="#8BC5E4"/>
<path d="M138.086 263.04C138.001 263.105 137.912 263.165 137.819 263.22L189.781 233.22C189.874 233.165 189.963 233.105 190.048 233.04L138.086 263.04Z" fill="#8BC5E4"/>
<path d="M137.811 263.225C137.717 263.281 137.622 263.331 137.524 263.375L189.485 233.375C189.583 233.331 189.678 233.281 189.772 233.225L137.811 263.225Z" fill="#8BC5E4"/>
<path d="M137.524 263.375C136.151 264.001 134.34 263.545 132.611 262.623L184.573 232.623C186.302 233.545 188.113 234.001 189.486 233.375L137.524 263.375Z" fill="#8BC5E4"/>
<path d="M132.606 262.62C130.753 261.62 128.847 260.09 126.786 258.15L178.748 228.15C180.809 230.09 182.714 231.62 184.567 232.62L132.606 262.62Z" fill="#8BC5E4"/>
<path d="M126.786 258.15C122.664 254.27 117.857 248.645 112.419 241.525L164.38 211.525C169.819 218.645 174.625 224.27 178.747 228.15L126.786 258.15Z" fill="#8BC5E4"/>
<path d="M112.419 241.525C105.958 233.075 98.6315 222.535 90.9326 210.55L142.894 180.55C150.593 192.535 157.92 203.075 164.38 211.525L112.419 241.525Z" fill="#8BC5E4"/>
<path d="M84.0131 205.965C83.584 206.14 83.156 206.312 82.73 206.481L134.691 176.481C135.117 176.312 135.545 176.14 135.975 175.965L84.0131 205.965Z" fill="#8BC5E4"/>
<path d="M82.73 206.481C75.288 209.425 68.212 211.418 61.948 212.369L113.909 182.369C120.173 181.418 127.249 179.425 134.691 176.481L82.73 206.481Z" fill="#8BC5E4"/>
<path d="M61.938 212.37C56.4994 213.21 51.6843 213.29 47.562 212.41L99.5235 182.41C103.646 183.29 108.461 183.21 113.9 182.37L61.938 212.37Z" fill="#8BC5E4"/>
<path d="M47.562 212.41C45.5009 211.97 43.6043 211.305 41.751 210.165L93.7125 180.165C95.5658 181.305 97.4624 181.97 99.5235 182.41L47.562 212.41Z" fill="#8BC5E4"/>
<path d="M41.7512 210.165C39.8979 209.015 37.9493 207.21 36.5464 204.76L88.5079 174.76C89.9109 177.21 91.8594 179.015 93.7127 180.165L41.7512 210.165Z" fill="#8BC5E4"/>
<path d="M36.5464 204.76C35.1348 202.305 34.5805 199.725 34.5459 197.575L86.5074 167.575C86.542 169.725 87.0963 172.305 88.5079 174.76L36.5464 204.76Z" fill="#8BC5E4"/>
<path d="M34.5459 197.575C34.5026 195.42 34.9096 193.475 35.5937 191.5L87.5553 161.5C86.8711 163.475 86.4641 165.42 86.5074 167.575L34.5459 197.575Z" fill="#8BC5E4"/>
<path d="M35.5935 191.5C36.9619 187.57 39.508 183.55 43.05 179.385L95.0115 149.385C91.4695 153.55 88.9234 157.57 87.5551 161.5L35.5935 191.5Z" fill="#8BC5E4"/>
<path d="M43.05 179.385C46.9409 174.803 52.0399 170.077 58.0839 165.505L110.045 135.505C104.001 140.077 98.9024 144.803 95.0115 149.385L43.05 179.385Z" fill="#8BC5E4"/>
<path d="M58.0891 165.501C58.4321 165.242 58.7781 164.983 59.1271 164.724L111.089 134.724C110.74 134.983 110.394 135.242 110.051 135.501L58.0891 165.501Z" fill="#8BC5E4"/>
<path d="M59.6517 157.05C52.9227 144.345 47.2762 132.685 43.05 122.825L95.0115 92.8253C99.2378 102.685 104.884 114.345 111.613 127.05L59.6517 157.05Z" fill="#8BC5E4"/>
<path d="M43.05 122.825C39.5166 114.575 36.9619 107.61 35.5935 102.1L87.5551 72.1003C88.9234 77.6103 91.4782 84.5753 95.0115 92.8253L43.05 122.825Z" fill="#8BC5E4"/>
<path d="M35.5936 102.1C34.9095 99.3453 34.5111 96.9353 34.5458 94.8153L86.5073 64.8153C86.4726 66.9353 86.871 69.3453 87.5552 72.1003L35.5936 102.1Z" fill="#8BC5E4"/>
<path d="M34.5459 94.8153C34.5781 92.8453 35.0631 91.0323 36.2761 90.1213L88.2376 60.1213C87.0246 61.0323 86.5396 62.8453 86.5074 64.8153L34.5459 94.8153Z" fill="#8BC5E4"/>
<path d="M36.269 90.1263C36.355 90.0613 36.445 90.0013 36.538 89.9453L88.4995 59.9453C88.4065 60.0013 88.3165 60.0613 88.2305 60.1263L36.269 90.1263Z" fill="#8BC5E4"/>
<path d="M36.5464 89.9403C36.6391 89.8853 36.7351 89.8353 36.8331 89.7913L88.7946 59.7913C88.6966 59.8353 88.6006 59.8853 88.5079 59.9403L36.5464 89.9403Z" fill="#8BC5E4"/>
<path d="M36.833 89.7913C38.206 89.1723 40.017 89.6203 41.746 90.5423L93.7075 60.5423C91.9785 59.6203 90.1675 59.1723 88.7945 59.7913L36.833 89.7913Z" fill="#8BC5E4"/>
<path d="M41.751 90.5453C43.6043 91.5453 45.5009 93.0703 47.562 95.0103L99.5235 65.0103C97.4624 63.0703 95.5658 61.5453 93.7125 60.5453L41.751 90.5453Z" fill="#8BC5E4"/>
<path d="M47.562 95.0103C51.693 98.8953 56.4994 104.53 61.938 111.65L113.9 81.6503C108.461 74.5303 103.655 68.8953 99.5235 65.0103L47.562 95.0103Z" fill="#8BC5E4"/>
<path d="M61.938 111.65C68.5631 120.305 76.0976 131.175 84.013 143.535L135.975 113.535C128.059 101.175 120.525 90.3053 113.9 81.6503L61.938 111.65Z" fill="#8BC5E4"/>
<path d="M132.389 150.185C133.16 150.66 133.273 150.905 133.29 150.925L185.252 120.925C185.234 120.905 185.122 120.66 184.351 120.185L132.389 150.185Z" fill="#8BC5E4"/>
<path d="M133.291 150.927C133.307 150.954 133.455 151.196 133.463 152.065L185.425 122.065C185.416 121.196 185.269 120.954 185.253 120.927L133.291 150.927Z" fill="#8BC5E4"/>
<path d="M133.463 152.065C133.48 152.965 133.273 154.335 132.736 155.875L184.697 125.875C185.234 124.335 185.442 122.965 185.425 122.065L133.463 152.065Z" fill="#8BC5E4"/>
<path d="M132.736 155.875C131.662 158.955 129.35 162.75 125.998 166.705L177.96 136.705C181.311 132.75 183.623 128.955 184.697 125.875L132.736 155.875Z" fill="#8BC5E4"/>
<path d="M125.998 166.705C121.972 171.444 116.464 176.456 109.847 181.304L161.808 151.304C168.425 146.456 173.933 141.444 177.96 136.705L125.998 166.705Z" fill="#8BC5E4"/>
<path d="M109.842 181.308C109.473 181.578 109.101 181.847 108.726 182.116L160.688 152.116C161.063 151.847 161.435 151.578 161.804 151.308L109.842 181.308Z" fill="#8BC5E4"/>
<path d="M108.721 182.12C106.651 172.365 100.892 162.32 93.4873 155.535L145.449 125.535C152.853 132.32 158.613 142.365 160.682 152.12L108.721 182.12Z" fill="#8BC5E4"/>
<path d="M93.4873 155.535C93.9229 155.354 94.3569 155.176 94.7899 155.002L146.751 125.002C146.318 125.176 145.884 125.354 145.449 125.535L93.4873 155.535Z" fill="#8BC5E4"/>
<path d="M94.79 155.002C102.414 151.928 109.618 149.871 115.814 148.925L167.776 118.925C161.58 119.871 154.376 121.928 146.752 125.002L94.79 155.002Z" fill="#8BC5E4"/>
<path d="M115.813 148.925C120.984 148.13 125.47 148.14 128.7 148.825L180.661 118.825C177.431 118.14 172.945 118.13 167.775 118.925L115.813 148.925Z" fill="#8BC5E4"/>
<path d="M128.7 148.825C130.319 149.18 131.61 149.705 132.389 150.185L184.351 120.185C183.571 119.705 182.281 119.18 180.662 118.825L128.7 148.825Z" fill="#8BC5E4"/>
<path d="M41.9675 97.9803C42.7469 98.4003 44.0373 99.3653 45.6481 100.875L97.6096 70.8753C95.9988 69.3653 94.7084 68.4003 93.929 67.9803L41.9675 97.9803Z" fill="#8BC5E4"/>
<path d="M45.6482 100.875C48.8871 103.925 53.3731 109.095 58.5433 115.86L110.505 85.8602C105.335 79.0952 100.849 73.9252 97.6097 70.8752L45.6482 100.875Z" fill="#8BC5E4"/>
<path d="M58.5432 115.86C65.0904 124.42 72.7547 135.515 80.8607 148.245L132.822 118.245C124.716 105.515 117.052 94.4204 110.505 85.8604L58.5432 115.86Z" fill="#8BC5E4"/>
<path d="M80.8607 148.245C77.2349 147.387 74.0049 147.769 71.4099 149.25L123.371 119.25C125.966 117.769 129.196 117.387 132.822 118.245L80.8607 148.245Z" fill="#8BC5E4"/>
<path d="M71.412 149.248C68.713 150.787 66.702 153.512 65.646 157.265L117.607 127.265C118.663 123.512 120.674 120.787 123.373 119.248L71.412 149.248Z" fill="#8BC5E4"/>
<path d="M65.6447 157.27C58.526 143.95 52.611 131.805 48.3589 121.88L100.32 91.8802C104.573 101.805 110.487 113.95 117.606 127.27L65.6447 157.27Z" fill="#8BC5E4"/>
<path d="M48.3588 121.88C45.0072 114.055 42.6863 107.585 41.6211 103.27L93.5826 73.2703C94.6478 77.5853 96.9688 84.0553 100.32 91.8803L48.3588 121.88Z" fill="#8BC5E4"/>
<path d="M41.6213 103.27C41.0843 101.11 40.8765 99.5004 40.8938 98.6204L92.8553 68.6204C92.838 69.5004 93.0459 71.1104 93.5828 73.2704L41.6213 103.27Z" fill="#8BC5E4"/>
<path d="M40.8938 98.6203C40.9025 97.7353 41.0584 97.6853 41.067 97.6803L93.0285 67.6803C93.0199 67.6853 92.864 67.7353 92.8553 68.6203L40.8938 98.6203Z" fill="#8BC5E4"/>
<path d="M41.0669 97.6803C41.0842 97.6803 41.1968 97.5653 41.9676 97.9803L93.9291 67.9803C93.1584 67.5653 93.0458 67.6803 93.0284 67.6803L41.0669 97.6803Z" fill="#8BC5E4"/>
<path d="M65.6274 171.04C67.7059 180.8 73.4649 190.845 80.8608 197.625L132.822 167.625C125.427 160.845 119.667 150.8 117.589 141.04L65.6274 171.04Z" fill="#8BC5E4"/>
<path d="M80.8609 197.625C80.4251 197.806 79.9911 197.984 79.5591 198.158L131.521 168.158C131.953 167.984 132.387 167.806 132.822 167.625L80.8609 197.625Z" fill="#8BC5E4"/>
<path d="M79.559 198.158C71.939 201.231 64.746 203.292 58.553 204.249L110.514 174.249C116.707 173.292 123.9 171.231 131.52 168.158L79.559 198.158Z" fill="#8BC5E4"/>
<path d="M58.5433 204.25C53.3731 205.035 48.8785 205.02 45.6482 204.335L97.6097 174.335C100.84 175.02 105.335 175.035 110.505 174.25L58.5433 204.25Z" fill="#8BC5E4"/>
<path d="M45.6481 204.335C44.0373 203.995 42.7469 203.46 41.9675 202.98L93.929 172.98C94.7084 173.46 95.9988 173.995 97.6096 174.335L45.6481 204.335Z" fill="#8BC5E4"/>
<path d="M41.9676 202.98C41.1968 202.505 41.0756 202.265 41.0669 202.24L93.0284 172.24C93.0371 172.265 93.1584 172.505 93.9291 172.98L41.9676 202.98Z" fill="#8BC5E4"/>
<path d="M41.0657 202.239C41.0493 202.211 40.9018 201.969 40.885 201.095L92.8465 171.095C92.8633 171.969 93.0108 172.211 93.0272 172.239L41.0657 202.239Z" fill="#8BC5E4"/>
<path d="M40.885 201.095C40.8763 200.2 41.0841 198.83 41.6124 197.285L93.5739 167.285C93.0457 168.83 92.8378 170.2 92.8465 171.095L40.885 201.095Z" fill="#8BC5E4"/>
<path d="M41.6125 197.285C42.6864 194.205 45.0073 190.415 48.3589 186.46L100.32 156.46C96.9689 160.415 94.6479 164.205 93.574 167.285L41.6125 197.285Z" fill="#8BC5E4"/>
<path d="M48.3589 186.46C52.383 181.724 57.888 176.706 64.492 171.863L116.453 141.863C109.849 146.706 104.344 151.724 100.32 156.46L48.3589 186.46Z" fill="#8BC5E4"/>
<path d="M64.5081 171.852C64.8761 171.582 65.2471 171.313 65.6221 171.044L117.584 141.044C117.209 141.313 116.838 141.582 116.47 141.852L64.5081 171.852Z" fill="#8BC5E4"/>
<path d="M108.704 195.89C115.831 209.215 121.746 221.36 125.998 231.285L177.96 201.285C173.708 191.36 167.793 179.215 160.665 165.89L108.704 195.89Z" fill="#8BC5E4"/>
<path d="M125.998 231.285C129.35 239.11 131.662 245.575 132.736 249.895L184.697 219.895C183.623 215.575 181.311 209.11 177.96 201.285L125.998 231.285Z" fill="#8BC5E4"/>
<path d="M132.736 249.895C133.273 252.055 133.48 253.665 133.463 254.545L185.425 224.545C185.442 223.665 185.234 222.055 184.697 219.895L132.736 249.895Z" fill="#8BC5E4"/>
<path d="M133.463 254.545C133.455 255.44 133.299 255.48 133.29 255.485L185.252 225.485C185.26 225.48 185.416 225.44 185.425 224.545L133.463 254.545Z" fill="#8BC5E4"/>
<path d="M133.29 255.485C133.273 255.495 133.16 255.6 132.389 255.185L184.351 225.185C185.122 225.6 185.234 225.495 185.252 225.485L133.29 255.485Z" fill="#8BC5E4"/>
<path d="M132.389 255.185C131.61 254.765 130.319 253.81 128.7 252.285L180.662 222.285C182.281 223.81 183.571 224.765 184.351 225.185L132.389 255.185Z" fill="#8BC5E4"/>
<path d="M128.7 252.285C125.47 249.24 120.975 244.065 115.813 237.315L167.775 207.315C172.936 214.065 177.431 219.24 180.661 222.285L128.7 252.285Z" fill="#8BC5E4"/>
<path d="M115.814 237.315C109.266 228.755 101.593 217.645 93.4873 204.915L145.449 174.915C153.555 187.645 161.228 198.755 167.775 207.315L115.814 237.315Z" fill="#8BC5E4"/>
<path d="M93.4873 204.915C97.1169 205.775 100.35 205.394 102.945 203.914L154.906 173.914C152.311 175.394 149.078 175.775 145.449 174.915L93.4873 204.915Z" fill="#8BC5E4"/>
<path d="M102.943 203.915C105.641 202.377 107.651 199.65 108.702 195.895L160.664 165.895C159.613 169.65 157.603 172.377 154.905 173.915L102.943 203.915Z" fill="#8BC5E4"/>
<path d="M162.579 334.335C165.853 336.225 168.408 340.64 168.408 344.41L220.369 314.41C220.369 310.64 217.814 306.225 214.541 304.335L162.579 334.335Z" fill="#8BC5E4"/>
<path d="M168.407 520.3C168.407 522.185 167.769 523.494 166.721 524.095L218.682 494.095C219.73 493.494 220.368 492.185 220.369 490.3L168.407 520.3Z" fill="#8BC5E4"/>
<path d="M166.722 524.094C165.675 524.696 164.219 524.591 162.584 523.648L214.545 493.648C216.18 494.591 217.636 494.696 218.683 494.094L166.722 524.094Z" fill="#8BC5E4"/>
<path d="M10.6262 435.915C7.35265 434.025 4.79785 429.61 4.79785 425.84L56.7593 395.84C56.7593 399.61 59.3142 404.025 62.5878 405.915L10.6262 435.915Z" fill="#8BC5E4"/>
<path d="M4.79785 249.95C4.79805 248.065 5.43605 246.756 6.48405 246.155L58.4456 216.155C57.3976 216.756 56.7595 218.065 56.7593 219.95L4.79785 249.95Z" fill="#8BC5E4"/>
<path d="M6.48291 246.156C7.52991 245.554 8.98591 245.659 10.6209 246.602L62.5824 216.602C60.9474 215.659 59.4914 215.554 58.4444 216.156L6.48291 246.156Z" fill="#8BC5E4"/>
<path d="M87.4079 105.535L75.8032 111.625L84.0131 116.365V143.535C76.0977 131.175 68.5632 120.305 61.9381 111.65C56.4995 104.53 51.6931 98.8953 47.5621 95.0103C45.501 93.0703 43.6044 91.5453 41.7511 90.5453C39.8978 89.5553 37.9492 89.1103 36.5463 89.9403C35.1346 90.7753 34.5804 92.7053 34.5458 94.8153C34.5111 96.9353 34.9095 99.3453 35.5936 102.1C36.962 107.61 39.5167 114.575 43.0501 122.825C47.2763 132.685 52.9228 144.345 59.6518 157.05L36.4597 143.66V134.2L25.3572 141.15L36.4597 160.4V151.63L59.1322 164.72C52.6284 169.535 47.1637 174.54 43.0501 179.385C39.5081 183.55 36.962 187.57 35.5936 191.5C34.9095 193.475 34.5025 195.42 34.5458 197.575C34.5804 199.725 35.1346 202.305 36.5463 204.76C37.9492 207.21 39.8978 209.015 41.7511 210.165C43.6044 211.305 45.501 211.97 47.5621 212.41C51.6844 213.29 56.4995 213.21 61.9381 212.37C68.5632 211.365 76.0977 209.195 84.0131 205.965V233.155L75.8032 228.415L87.4079 247.895L98.5537 241.55L90.9327 237.15V210.55C98.6316 222.535 105.958 233.075 112.419 241.525C117.857 248.645 122.664 254.27 126.786 258.15C128.847 260.09 130.753 261.62 132.606 262.62C134.459 263.61 136.408 264.065 137.811 263.225C139.214 262.395 139.777 260.46 139.811 258.35C139.846 256.24 139.447 253.83 138.763 251.065C137.395 245.555 134.84 238.59 131.307 230.34C127.193 220.745 121.72 209.425 115.216 197.1L137.897 210.195V218.965L149 212.535L137.897 192.765V202.225L114.696 188.83C121.425 183.895 127.081 178.75 131.307 173.78C134.84 169.61 137.395 165.595 138.763 161.665C139.439 159.695 139.846 157.75 139.811 155.59C139.777 153.44 139.214 150.865 137.811 148.405C136.408 145.955 134.45 144.145 132.597 142.995C130.753 141.86 128.856 141.195 126.786 140.75C122.664 139.87 117.857 139.955 112.41 140.78C105.958 141.775 98.6316 143.865 90.9327 146.95V120.36L98.5537 124.76L87.4079 105.535ZM132.389 150.185C133.16 150.66 133.273 150.905 133.29 150.925L133.291 150.927C133.307 150.954 133.455 151.196 133.463 152.065C133.48 152.965 133.273 154.335 132.736 155.875C131.662 158.955 129.35 162.75 125.998 166.705C121.746 171.71 115.84 177.02 108.721 182.12C106.651 172.365 100.892 162.32 93.4874 155.535C101.593 152.165 109.266 149.925 115.814 148.925C120.984 148.13 125.47 148.14 128.7 148.825C130.319 149.18 131.61 149.705 132.389 150.185ZM41.9676 97.9803C42.747 98.4003 44.0374 99.3653 45.6482 100.875C48.8871 103.925 53.3731 109.095 58.5433 115.86C65.0905 124.42 72.7548 135.515 80.8608 148.245C73.4649 146.495 67.7145 149.905 65.6447 157.27C58.526 143.95 52.611 131.805 48.3589 121.88C45.0073 114.055 42.6864 107.585 41.6212 103.27C41.0842 101.11 40.8764 99.5003 40.8937 98.6203C40.9024 97.7353 41.0583 97.6853 41.0669 97.6803C41.0842 97.6803 41.1968 97.5653 41.9676 97.9803ZM108.704 195.89C115.831 209.215 121.746 221.36 125.998 231.285C129.35 239.11 131.662 245.575 132.736 249.895C133.273 252.055 133.48 253.665 133.463 254.545C133.455 255.44 133.299 255.48 133.29 255.485C133.273 255.495 133.16 255.6 132.389 255.185C131.61 254.765 130.319 253.81 128.7 252.285C125.47 249.24 120.975 244.065 115.814 237.315C109.266 228.755 101.593 217.645 93.4874 204.915C100.892 206.67 106.642 203.26 108.704 195.89ZM65.6274 171.04C67.7059 180.8 73.4649 190.845 80.8608 197.625C72.7548 200.995 65.0905 203.24 58.5433 204.25C53.3731 205.035 48.8785 205.02 45.6482 204.335C44.0374 203.995 42.747 203.46 41.9676 202.98C41.1968 202.505 41.0756 202.265 41.0669 202.24L41.0658 202.238C41.0494 202.211 40.9019 201.969 40.8851 201.095C40.8764 200.2 41.0842 198.83 41.6125 197.285C42.6864 194.205 45.0073 190.415 48.3589 186.46C52.611 181.455 58.5173 176.135 65.6274 171.04ZM92.8033 337.92V321.95L129.514 343.145V330.535L160.778 369.945L129.514 372.925V359.115L92.8033 337.92ZM76.9464 403.845V387.885L113.657 409.08V396.46L144.921 435.87L113.657 438.85V425.04L76.9464 403.845ZM97.5404 377.255V361.285L60.8296 340.09V327.48L29.5661 330.79L60.8296 369.87V356.06L97.5404 377.255ZM80.4018 443.73V427.76L43.691 406.565V393.955L12.4275 397.265L43.691 436.345V422.535L80.4018 443.73ZM10.6261 36.9753L162.579 124.705C165.853 126.595 168.407 131.01 168.407 134.77V310.67C168.407 314.43 165.853 315.905 162.579 314.015L10.6261 226.285C7.35256 224.395 4.79778 219.97 4.79778 216.21V40.3103C4.79778 36.5503 7.35256 35.0853 10.6261 36.9753ZM10.6261 31.4453C4.78046 28.0703 0 30.8103 0 37.5403V213.44C0 220.17 4.78046 228.44 10.6261 231.815L162.579 319.545C168.425 322.92 173.205 320.17 173.205 313.44V137.54C173.205 130.81 168.425 122.55 162.579 119.175L10.6261 31.4453ZM10.6261 246.605L162.579 334.335C165.853 336.225 168.407 340.64 168.407 344.41V520.3C168.407 524.07 165.853 525.535 162.579 523.645L10.6261 435.915C7.35256 434.025 4.79778 429.61 4.79778 425.84V249.95C4.79778 246.18 7.35256 244.715 10.6261 246.605ZM10.6261 241.075C4.78046 237.7 0 240.45 0 247.18V423.07C0 429.8 4.78046 438.07 10.6261 441.445L162.579 529.175C168.425 532.55 173.205 529.8 173.205 523.07V347.18C173.205 340.45 168.425 332.18 162.579 328.805L10.6261 241.075Z" fill="#8BC5E4"/>
<path fill-rule="evenodd" clip-rule="evenodd" d="M10.6261 36.9753L162.579 124.705C165.853 126.595 168.407 131.01 168.407 134.77V310.67C168.407 314.43 165.853 315.905 162.579 314.015L10.6261 226.285C7.35256 224.395 4.79778 219.97 4.79778 216.21V40.3103C4.79778 36.5503 7.35256 35.0853 10.6261 36.9753ZM75.8032 111.625L87.4079 105.535L98.5537 124.76L90.9327 120.36V146.95C98.6316 143.865 105.958 141.775 112.41 140.78C117.857 139.955 122.664 139.87 126.786 140.75C128.856 141.195 130.753 141.86 132.597 142.995C134.45 144.145 136.408 145.955 137.811 148.405C139.214 150.865 139.777 153.44 139.811 155.59C139.846 157.75 139.439 159.695 138.763 161.665C137.395 165.595 134.84 169.61 131.307 173.78C127.081 178.75 121.425 183.895 114.696 188.83L137.897 202.225V192.765L149 212.535L137.897 218.965V210.195L115.216 197.1C121.72 209.425 127.193 220.745 131.307 230.34C134.84 238.59 137.395 245.555 138.763 251.065C139.447 253.83 139.846 256.24 139.811 258.35C139.777 260.46 139.214 262.395 137.811 263.225C136.408 264.065 134.459 263.61 132.606 262.62C130.753 261.62 128.847 260.09 126.786 258.15C122.664 254.27 117.857 248.645 112.419 241.525C105.958 233.075 98.6316 222.535 90.9327 210.55V237.15L98.5537 241.55L87.4079 247.895L75.8032 228.415L84.0131 233.155V205.965C76.0977 209.195 68.5632 211.365 61.9381 212.37C56.4995 213.21 51.6844 213.29 47.5621 212.41C45.501 211.97 43.6044 211.305 41.7511 210.165C39.8978 209.015 37.9492 207.21 36.5463 204.76C35.1346 202.305 34.5804 199.725 34.5458 197.575C34.5025 195.42 34.9095 193.475 35.5936 191.5C36.962 187.57 39.5081 183.55 43.0501 179.385C47.1637 174.54 52.6284 169.535 59.1322 164.72L36.4597 151.63V160.4L25.3572 141.15L36.4597 134.2V143.66L59.6518 157.05C52.9228 144.345 47.2763 132.685 43.0501 122.825C39.5167 114.575 36.962 107.61 35.5936 102.1C34.9095 99.3453 34.5111 96.9353 34.5458 94.8153C34.5804 92.7053 35.1346 90.7753 36.5463 89.9403C37.9492 89.1103 39.8978 89.5553 41.7511 90.5453C43.6044 91.5453 45.501 93.0703 47.5621 95.0103C51.6931 98.8953 56.4995 104.53 61.9381 111.65C68.5632 120.305 76.0977 131.175 84.0131 143.535V116.365L75.8032 111.625Z" fill="white"/>
<path d="M132.389 150.185C133.16 150.66 133.273 150.905 133.29 150.925L133.291 150.927C133.307 150.954 133.455 151.196 133.463 152.065C133.48 152.965 133.273 154.335 132.736 155.875C131.662 158.955 129.35 162.75 125.998 166.705C121.746 171.71 115.84 177.02 108.721 182.12C106.651 172.365 100.892 162.32 93.4874 155.535C101.593 152.165 109.266 149.925 115.814 148.925C120.984 148.13 125.47 148.14 128.7 148.825C130.319 149.18 131.61 149.705 132.389 150.185Z" fill="white"/>
<path d="M41.9676 97.9803C42.747 98.4003 44.0374 99.3653 45.6482 100.875C48.8871 103.925 53.3731 109.095 58.5433 115.86C65.0905 124.42 72.7548 135.515 80.8608 148.245C73.4649 146.495 67.7145 149.905 65.6447 157.27C58.526 143.95 52.611 131.805 48.3589 121.88C45.0073 114.055 42.6864 107.585 41.6212 103.27C41.0842 101.11 40.8764 99.5003 40.8937 98.6203C40.9024 97.7353 41.0583 97.6853 41.0669 97.6803C41.0842 97.6803 41.1968 97.5653 41.9676 97.9803Z" fill="white"/>
<path d="M65.6274 171.04C67.7059 180.8 73.4649 190.845 80.8608 197.625C72.7548 200.995 65.0905 203.24 58.5433 204.25C53.3731 205.035 48.8785 205.02 45.6482 204.335C44.0374 203.995 42.747 203.46 41.9676 202.98C41.1968 202.505 41.0756 202.265 41.0669 202.24L41.0658 202.238C41.0494 202.211 40.9019 201.969 40.8851 201.095C40.8764 200.2 41.0842 198.83 41.6125 197.285C42.6864 194.205 45.0073 190.415 48.3589 186.46C52.611 181.455 58.5173 176.135 65.6274 171.04Z" fill="white"/>
<path d="M108.704 195.89C115.831 209.215 121.746 221.36 125.998 231.285C129.35 239.11 131.662 245.575 132.736 249.895C133.273 252.055 133.48 253.665 133.463 254.545C133.455 255.44 133.299 255.48 133.29 255.485C133.273 255.495 133.16 255.6 132.389 255.185C131.61 254.765 130.319 253.81 128.7 252.285C125.47 249.24 120.975 244.065 115.814 237.315C109.266 228.755 101.593 217.645 93.4874 204.915C100.892 206.67 106.642 203.26 108.704 195.89Z" fill="white"/>
<path fill-rule="evenodd" clip-rule="evenodd" d="M10.6261 246.605L162.579 334.335C165.853 336.225 168.407 340.64 168.407 344.41V520.3C168.407 524.07 165.853 525.535 162.579 523.645L10.6261 435.915C7.35256 434.025 4.79778 429.61 4.79778 425.84V249.95C4.79778 246.18 7.35256 244.715 10.6261 246.605ZM92.8033 321.95V337.92L129.514 359.115V372.925L160.778 369.945L129.514 330.535V343.145L92.8033 321.95ZM76.9464 387.885V403.845L113.657 425.04V438.85L144.921 435.87L113.657 396.46V409.08L76.9464 387.885ZM97.5404 361.285V377.255L60.8296 356.06V369.87L29.5661 330.79L60.8296 327.48V340.09L97.5404 361.285ZM80.4018 427.76V443.73L43.691 422.535V436.345L12.4275 397.265L43.691 393.955V406.565L80.4018 427.76Z" fill="white"/>
</svg>
