<svg width="226" height="326" viewBox="0 0 226 326" fill="none" xmlns="http://www.w3.org/2000/svg">
<path d="M132.973 240.632V224.702L81.0118 194.702V210.632L132.973 240.632Z" fill="#8BC5E4"/>
<path d="M132.973 224.702L96.2626 245.897L44.301 215.897L81.0118 194.702L132.973 224.702Z" fill="#8BC5E4"/>
<path d="M96.2626 245.897V233.307L44.301 203.307V215.897L96.2626 245.897Z" fill="#8BC5E4"/>
<path d="M96.2626 233.307L65.0076 272.662L13.0461 242.662L44.301 203.307L96.2626 233.307Z" fill="#8BC5E4"/>
<path d="M65.0076 272.662L96.2625 275.607L44.3009 245.607L13.0461 242.662L65.0076 272.662Z" fill="#8BC5E4"/>
<path d="M96.2625 275.607L96.2626 261.827L44.301 231.827L44.3009 245.607L96.2625 275.607Z" fill="#8BC5E4"/>
<path d="M96.2626 261.827L132.973 240.632L81.0118 210.632L44.301 231.827L96.2626 261.827Z" fill="#8BC5E4"/>
<path d="M150.112 154.507V138.567L98.1505 108.567V124.507L150.112 154.507Z" fill="#8BC5E4"/>
<path d="M150.112 138.567L113.401 159.762L61.4397 129.762L98.1505 108.567L150.112 138.567Z" fill="#8BC5E4"/>
<path d="M113.401 159.762V147.172L61.4397 117.172V129.762L113.401 159.762Z" fill="#8BC5E4"/>
<path d="M113.401 147.172L82.1463 186.547L30.1848 156.547L61.4397 117.172L113.401 147.172Z" fill="#8BC5E4"/>
<path d="M82.1463 186.547L113.401 189.482L61.4397 159.482L30.1848 156.547L82.1463 186.547Z" fill="#8BC5E4"/>
<path d="M113.401 189.482L113.401 175.702L61.4397 145.702L61.4397 159.482L113.401 189.482Z" fill="#8BC5E4"/>
<path d="M113.401 175.702L150.112 154.507L98.1505 124.507L61.4397 145.702L113.401 175.702Z" fill="#8BC5E4"/>
<path d="M129.518 204.807V188.867L77.5564 158.867V174.807L129.518 204.807Z" fill="#8BC5E4"/>
<path d="M129.518 188.867L166.237 167.667L114.276 137.667L77.5564 158.867L129.518 188.867Z" fill="#8BC5E4"/>
<path d="M166.237 167.667L166.237 155.077L114.276 125.077L114.276 137.667L166.237 167.667Z" fill="#8BC5E4"/>
<path d="M166.237 155.077L197.492 158.362L145.531 128.362L114.276 125.077L166.237 155.077Z" fill="#8BC5E4"/>
<path d="M197.492 158.362L166.237 197.397L114.276 167.397L145.531 128.362L197.492 158.362Z" fill="#8BC5E4"/>
<path d="M166.237 197.397V183.607L114.276 153.607V167.397L166.237 197.397Z" fill="#8BC5E4"/>
<path d="M166.237 183.607L129.518 204.807L77.5564 174.807L114.276 153.607L166.237 183.607Z" fill="#8BC5E4"/>
<path d="M145.383 120.697V104.767L93.422 74.7671V90.6971L145.383 120.697Z" fill="#8BC5E4"/>
<path d="M145.383 104.767L182.094 83.572L130.133 53.572L93.422 74.7671L145.383 104.767Z" fill="#8BC5E4"/>
<path d="M182.094 83.572L182.094 70.9821L130.133 40.9821L130.133 53.572L182.094 83.572Z" fill="#8BC5E4"/>
<path d="M182.094 70.9821L213.349 74.2571L161.388 44.2571L130.133 40.9821L182.094 70.9821Z" fill="#8BC5E4"/>
<path d="M213.349 74.2571L182.094 113.292L130.133 83.292L161.388 44.2571L213.349 74.2571Z" fill="#8BC5E4"/>
<path d="M182.094 113.292V99.502L130.133 69.502V83.292L182.094 113.292Z" fill="#8BC5E4"/>
<path d="M182.094 99.502L145.383 120.697L93.422 90.6971L130.133 69.502L182.094 99.502Z" fill="#8BC5E4"/>
<path d="M52.0001 137.532V313.092L0.0385742 283.092V107.532L52.0001 137.532Z" fill="#8BC5E4"/>
<path d="M62.626 319.177L214.579 231.447L162.617 201.447L10.6646 289.177L62.626 319.177Z" fill="#8BC5E4"/>
<path d="M225.205 213.092V37.532L173.244 7.53198V183.092L225.205 213.092Z" fill="#8BC5E4"/>
<path d="M214.579 31.447L62.626 119.177L10.6646 89.177L162.617 1.44702L214.579 31.447Z" fill="#8BC5E4"/>
<path d="M62.626 124.687L214.579 36.957L162.617 6.95703L10.6646 94.687L62.626 124.687Z" fill="#8BC5E4"/>
<path d="M220.407 40.302V215.862L168.446 185.862V10.302L220.407 40.302Z" fill="#8BC5E4"/>
<path d="M214.579 225.937L62.626 313.667L10.6646 283.667L162.617 195.937L214.579 225.937Z" fill="#8BC5E4"/>
<path d="M56.7977 310.322V134.762L4.83618 104.762V280.322L56.7977 310.322Z" fill="#8BC5E4"/>
<path d="M62.626 124.687L214.579 36.957L162.617 6.95703L10.6646 94.687L62.626 124.687Z" fill="#8BC5E4"/>
<path d="M220.407 40.302V215.862L168.446 185.862V10.302L220.407 40.302Z" fill="#8BC5E4"/>
<path d="M214.579 225.937L62.626 313.667L10.6646 283.667L162.617 195.937L214.579 225.937Z" fill="#8BC5E4"/>
<path d="M56.7977 310.322V134.762L4.83618 104.762V280.322L56.7977 310.322Z" fill="#8BC5E4"/>
<path d="M132.973 224.702V240.632L81.0118 210.632V194.702L132.973 224.702Z" fill="#8BC5E4"/>
<path d="M132.973 240.632L96.2626 261.827L44.301 231.827L81.0118 210.632L132.973 240.632Z" fill="#8BC5E4"/>
<path d="M96.2626 261.827L96.2625 275.607L44.3009 245.607L44.301 231.827L96.2626 261.827Z" fill="#8BC5E4"/>
<path d="M96.2625 275.607L65.0076 272.662L13.0461 242.662L44.3009 245.607L96.2625 275.607Z" fill="#8BC5E4"/>
<path d="M65.0076 272.662L96.2626 233.307L44.301 203.307L13.0461 242.662L65.0076 272.662Z" fill="#8BC5E4"/>
<path d="M96.2626 233.307V245.897L44.301 215.897V203.307L96.2626 233.307Z" fill="#8BC5E4"/>
<path d="M96.2626 245.897L132.973 224.702L81.0118 194.702L44.301 215.897L96.2626 245.897Z" fill="#8BC5E4"/>
<path d="M150.112 138.567V154.507L98.1505 124.507V108.567L150.112 138.567Z" fill="#8BC5E4"/>
<path d="M150.112 154.507L113.401 175.702L61.4397 145.702L98.1505 124.507L150.112 154.507Z" fill="#8BC5E4"/>
<path d="M113.401 175.702L113.401 189.482L61.4397 159.482L61.4397 145.702L113.401 175.702Z" fill="#8BC5E4"/>
<path d="M113.401 189.482L82.1463 186.547L30.1848 156.547L61.4397 159.482L113.401 189.482Z" fill="#8BC5E4"/>
<path d="M82.1463 186.547L113.401 147.172L61.4397 117.172L30.1848 156.547L82.1463 186.547Z" fill="#8BC5E4"/>
<path d="M113.401 147.172V159.762L61.4397 129.762V117.172L113.401 147.172Z" fill="#8BC5E4"/>
<path d="M113.401 159.762L150.112 138.567L98.1505 108.567L61.4397 129.762L113.401 159.762Z" fill="#8BC5E4"/>
<path d="M129.518 188.867V204.807L77.5564 174.807V158.867L129.518 188.867Z" fill="#8BC5E4"/>
<path d="M129.518 204.807L166.237 183.607L114.276 153.607L77.5564 174.807L129.518 204.807Z" fill="#8BC5E4"/>
<path d="M166.237 183.607V197.397L114.276 167.397V153.607L166.237 183.607Z" fill="#8BC5E4"/>
<path d="M166.237 197.397L197.492 158.362L145.531 128.362L114.276 167.397L166.237 197.397Z" fill="#8BC5E4"/>
<path d="M197.492 158.362L166.237 155.077L114.276 125.077L145.531 128.362L197.492 158.362Z" fill="#8BC5E4"/>
<path d="M166.237 155.077L166.237 167.667L114.276 137.667L114.276 125.077L166.237 155.077Z" fill="#8BC5E4"/>
<path d="M166.237 167.667L129.518 188.867L77.5564 158.867L114.276 137.667L166.237 167.667Z" fill="#8BC5E4"/>
<path d="M145.383 104.767V120.697L93.422 90.6971V74.7671L145.383 104.767Z" fill="#8BC5E4"/>
<path d="M145.383 120.697L182.094 99.502L130.133 69.502L93.422 90.6971L145.383 120.697Z" fill="#8BC5E4"/>
<path d="M182.094 99.502V113.292L130.133 83.292V69.502L182.094 99.502Z" fill="#8BC5E4"/>
<path d="M182.094 113.292L213.349 74.2571L161.388 44.2571L130.133 83.292L182.094 113.292Z" fill="#8BC5E4"/>
<path d="M213.349 74.2571L182.094 70.9821L130.133 40.9821L161.388 44.2571L213.349 74.2571Z" fill="#8BC5E4"/>
<path d="M182.094 70.9821L182.094 83.572L130.133 53.572L130.133 40.9821L182.094 70.9821Z" fill="#8BC5E4"/>
<path d="M182.094 83.572L145.383 104.767L93.422 74.7671L130.133 53.572L182.094 83.572Z" fill="#8BC5E4"/>
<path d="M62.626 119.177C56.7804 122.552 52.0001 130.802 52.0001 137.532L0.0385742 107.532C0.0385742 100.802 4.81885 92.552 10.6646 89.177L62.626 119.177Z" fill="#8BC5E4"/>
<path d="M52.0001 313.092C52.0001 316.464 53.2001 318.831 55.1321 319.93L3.17057 289.93C1.23857 288.831 0.0385742 286.464 0.0385742 283.092L52.0001 313.092Z" fill="#8BC5E4"/>
<path d="M55.1409 319.935C57.0629 321.023 59.7079 320.859 62.6179 319.182L10.6564 289.182C7.74644 290.859 5.10144 291.023 3.17944 289.935L55.1409 319.935Z" fill="#8BC5E4"/>
<path d="M214.579 231.447C220.425 228.072 225.205 219.822 225.205 213.092L173.244 183.092C173.244 189.822 168.463 198.072 162.617 201.447L214.579 231.447Z" fill="#8BC5E4"/>
<path d="M225.205 37.532C225.205 34.16 224.005 31.793 222.073 30.694L170.111 0.69397C172.043 1.79297 173.244 4.15998 173.244 7.53198L225.205 37.532Z" fill="#8BC5E4"/>
<path d="M222.064 30.689C220.142 29.601 217.497 29.765 214.588 31.442L162.626 1.44204C165.535 -0.234963 168.18 -0.398963 170.102 0.689037L222.064 30.689Z" fill="#8BC5E4"/>
<path d="M214.579 36.957C216.216 36.012 217.673 35.906 218.721 36.507L166.76 6.50702C165.712 5.90602 164.254 6.01203 162.617 6.95703L214.579 36.957Z" fill="#8BC5E4"/>
<path d="M218.719 36.506C219.767 37.106 220.406 38.413 220.407 40.296L168.445 10.296C168.444 8.41298 167.805 7.10598 166.757 6.50598L218.719 36.506Z" fill="#8BC5E4"/>
<path d="M220.407 215.862C220.407 219.632 217.852 224.047 214.579 225.937L162.617 195.937C165.891 194.047 168.446 189.632 168.446 185.862L220.407 215.862Z" fill="#8BC5E4"/>
<path d="M62.626 313.667C60.9889 314.612 59.532 314.718 58.484 314.117L6.52246 284.117C7.57046 284.718 9.02745 284.612 10.6646 283.667L62.626 313.667Z" fill="#8BC5E4"/>
<path d="M58.4859 314.118C57.4379 313.518 56.7989 312.211 56.7979 310.328L4.83643 280.328C4.83743 282.211 5.47643 283.518 6.52443 284.118L58.4859 314.118Z" fill="#8BC5E4"/>
<path d="M56.7977 134.762C56.7977 130.992 59.3525 126.577 62.626 124.687L10.6646 94.687C7.39095 96.577 4.83618 100.992 4.83618 104.762L56.7977 134.762Z" fill="#8BC5E4"/>
<path d="M214.579 36.957C216.216 36.012 217.673 35.906 218.721 36.507L166.76 6.50702C165.712 5.90602 164.254 6.01203 162.617 6.95703L214.579 36.957Z" fill="#8BC5E4"/>
<path d="M218.719 36.506C219.767 37.106 220.406 38.413 220.407 40.296L168.445 10.296C168.444 8.41298 167.805 7.10598 166.757 6.50598L218.719 36.506Z" fill="#8BC5E4"/>
<path d="M220.407 215.862C220.407 219.632 217.852 224.047 214.579 225.937L162.617 195.937C165.891 194.047 168.446 189.632 168.446 185.862L220.407 215.862Z" fill="#8BC5E4"/>
<path d="M62.626 313.667C60.9889 314.612 59.532 314.718 58.484 314.117L6.52246 284.117C7.57046 284.718 9.02745 284.612 10.6646 283.667L62.626 313.667Z" fill="#8BC5E4"/>
<path d="M58.4859 314.118C57.4379 313.518 56.7989 312.211 56.7979 310.328L4.83643 280.328C4.83743 282.211 5.47643 283.518 6.52443 284.118L58.4859 314.118Z" fill="#8BC5E4"/>
<path d="M56.7977 134.762C56.7977 130.992 59.3525 126.577 62.626 124.687L10.6646 94.687C7.39095 96.577 4.83618 100.992 4.83618 104.762L56.7977 134.762Z" fill="#8BC5E4"/>
<path d="M132.973 240.632V224.702L96.2626 245.897V233.307L65.0077 272.662L96.2626 275.607V261.827L132.973 240.632ZM150.112 154.507V138.567L113.401 159.762V147.172L82.1463 186.547L113.401 189.482V175.702L150.112 154.507ZM129.518 204.807V188.867L166.237 167.667V155.077L197.492 158.362L166.237 197.397V183.607L129.518 204.807ZM145.384 120.697V104.767L182.094 83.572V70.982L213.349 74.257L182.094 113.292V99.502L145.384 120.697ZM62.6261 119.177C56.7805 122.552 52 130.802 52 137.532V313.092C52 319.822 56.7805 322.552 62.6261 319.177L214.579 231.447C220.425 228.072 225.205 219.822 225.205 213.092V37.532C225.205 30.802 220.425 28.072 214.579 31.447L62.6261 119.177ZM62.6261 124.687L214.579 36.957C217.853 35.067 220.407 36.532 220.407 40.302V215.862C220.407 219.632 217.853 224.047 214.579 225.937L62.6261 313.667C59.3526 315.557 56.7978 314.092 56.7978 310.322V134.762C56.7978 130.992 59.3526 126.577 62.6261 124.687Z" fill="#8BC5E4"/>
<path fill-rule="evenodd" clip-rule="evenodd" d="M62.6261 124.687L214.579 36.957C217.853 35.067 220.407 36.532 220.407 40.302V215.862C220.407 219.632 217.853 224.047 214.579 225.937L62.6261 313.667C59.3526 315.557 56.7978 314.092 56.7978 310.322V134.762C56.7978 130.992 59.3526 126.577 62.6261 124.687ZM132.973 224.702V240.632L96.2626 261.827V275.607L65.0077 272.662L96.2626 233.307V245.897L132.973 224.702ZM150.112 138.567V154.507L113.401 175.702V189.482L82.1463 186.547L113.401 147.172V159.762L150.112 138.567ZM129.518 188.867V204.807L166.237 183.607V197.397L197.492 158.362L166.237 155.077V167.667L129.518 188.867ZM145.384 104.767V120.697L182.094 99.502V113.292L213.349 74.257L182.094 70.982V83.572L145.384 104.767Z" fill="white"/>
</svg>
