<svg width="226" height="326" viewBox="0 0 226 326" fill="none" xmlns="http://www.w3.org/2000/svg">
<path d="M81.012 234.132V218.202L132.973 188.202V204.132L81.012 234.132Z" fill="#8BC5E4"/>
<path d="M81.0121 218.202L44.3013 197.007L96.2628 167.007L132.974 188.202L81.0121 218.202Z" fill="#8BC5E4"/>
<path d="M44.3013 197.007V184.417L96.2628 154.417V167.007L44.3013 197.007Z" fill="#8BC5E4"/>
<path d="M44.3013 184.417L13.0464 187.682L65.0079 157.682L96.2628 154.417L44.3013 184.417Z" fill="#8BC5E4"/>
<path d="M13.0464 187.682L44.3013 226.717L96.2628 196.717L65.0079 157.682L13.0464 187.682Z" fill="#8BC5E4"/>
<path d="M44.3013 226.717V212.937L96.2628 182.937V196.717L44.3013 226.717Z" fill="#8BC5E4"/>
<path d="M44.3013 212.937L81.0121 234.132L132.974 204.132L96.2628 182.937L44.3013 212.937Z" fill="#8BC5E4"/>
<path d="M81.012 234.132L132.973 204.132L81.012 234.132Z" fill="#8BC5E4"/>
<path d="M98.1506 167.797V151.857L150.112 121.857V137.797L98.1506 167.797Z" fill="#8BC5E4"/>
<path d="M98.1507 151.857L61.4399 130.662L113.401 100.662L150.112 121.857L98.1507 151.857Z" fill="#8BC5E4"/>
<path d="M61.4399 130.662V118.072L113.401 88.0723V100.662L61.4399 130.662Z" fill="#8BC5E4"/>
<path d="M61.4397 118.072L30.1848 121.357L82.1464 91.3573L113.401 88.0723L61.4397 118.072Z" fill="#8BC5E4"/>
<path d="M30.1848 121.357L61.4397 160.382L113.401 130.382L82.1464 91.3572L30.1848 121.357Z" fill="#8BC5E4"/>
<path d="M61.4399 160.382V146.602L113.401 116.602V130.382L61.4399 160.382Z" fill="#8BC5E4"/>
<path d="M61.4399 146.602L98.1507 167.797L150.112 137.797L113.401 116.602L61.4399 146.602Z" fill="#8BC5E4"/>
<path d="M98.1506 167.797L150.112 137.797L98.1506 167.797Z" fill="#8BC5E4"/>
<path d="M77.5566 194.317V178.377L129.518 148.377V164.317L77.5566 194.317Z" fill="#8BC5E4"/>
<path d="M77.5566 178.377L114.276 199.577L166.238 169.577L129.518 148.377L77.5566 178.377Z" fill="#8BC5E4"/>
<path d="M114.276 199.577V186.987L166.237 156.987V169.577L114.276 199.577Z" fill="#8BC5E4"/>
<path d="M114.276 186.987L145.531 226.362L197.492 196.362L166.237 156.987L114.276 186.987Z" fill="#8BC5E4"/>
<path d="M145.531 226.362L114.276 229.307L166.237 199.307L197.492 196.362L145.531 226.362Z" fill="#8BC5E4"/>
<path d="M114.276 229.307V215.517L166.237 185.517V199.307L114.276 229.307Z" fill="#8BC5E4"/>
<path d="M114.276 215.517L77.5566 194.317L129.518 164.317L166.238 185.517L114.276 215.517Z" fill="#8BC5E4"/>
<path d="M77.5566 194.317L129.518 164.317L77.5566 194.317Z" fill="#8BC5E4"/>
<path d="M93.4221 128.527V112.597L145.384 82.5972V98.5272L93.4221 128.527Z" fill="#8BC5E4"/>
<path d="M93.4221 112.597L130.133 133.792L182.095 103.792L145.384 82.5972L93.4221 112.597Z" fill="#8BC5E4"/>
<path d="M130.133 133.792V121.202L182.094 91.2021V103.792L130.133 133.792Z" fill="#8BC5E4"/>
<path d="M130.133 121.202L161.388 160.567L213.349 130.567L182.094 91.2021L130.133 121.202Z" fill="#8BC5E4"/>
<path d="M161.388 160.567L130.133 163.512L182.094 133.512L213.349 130.567L161.388 160.567Z" fill="#8BC5E4"/>
<path d="M130.133 163.512V149.722L182.094 119.722V133.512L130.133 163.512Z" fill="#8BC5E4"/>
<path d="M130.133 149.722L93.4221 128.527L145.384 98.5273L182.095 119.722L130.133 149.722Z" fill="#8BC5E4"/>
<path d="M93.4221 128.527L145.384 98.5273L93.4221 128.527Z" fill="#8BC5E4"/>
<path d="M0.0385742 37.5322V213.092L52.0001 183.092V7.53223L0.0385742 37.5322Z" fill="#8BC5E4"/>
<path d="M10.6646 231.447L162.617 319.177L214.579 289.177L62.6262 201.447L10.6646 231.447Z" fill="#8BC5E4"/>
<path d="M173.244 313.092V137.532L225.205 107.532V283.092L173.244 313.092Z" fill="#8BC5E4"/>
<path d="M162.617 119.177L10.6646 31.4473L62.6262 1.44727L214.579 89.1773L162.617 119.177Z" fill="#8BC5E4"/>
<path d="M10.6646 31.4473L62.6262 1.44727L10.6646 31.4473Z" fill="#8BC5E4"/>
<path d="M10.6646 36.9573L162.617 124.687L214.579 94.6873L62.6262 6.95728L10.6646 36.9573Z" fill="#8BC5E4"/>
<path d="M168.446 134.762V310.322L220.407 280.322V104.762L168.446 134.762Z" fill="#8BC5E4"/>
<path d="M162.617 313.667L10.6646 225.937L62.6262 195.937L214.579 283.667L162.617 313.667Z" fill="#8BC5E4"/>
<path d="M4.83643 215.862V40.3022L56.7979 10.3022V185.862L4.83643 215.862Z" fill="#8BC5E4"/>
<path d="M10.6646 36.9573L62.6262 6.95728L10.6646 36.9573Z" fill="#8BC5E4"/>
<path d="M10.6646 36.9573L162.617 124.687L214.579 94.6873L62.6262 6.95728L10.6646 36.9573Z" fill="#8BC5E4"/>
<path d="M168.446 134.762V310.322L220.407 280.322V104.762L168.446 134.762Z" fill="#8BC5E4"/>
<path d="M162.617 313.667L10.6646 225.937L62.6262 195.937L214.579 283.667L162.617 313.667Z" fill="#8BC5E4"/>
<path d="M4.83643 215.862V40.3022L56.7979 10.3022V185.862L4.83643 215.862Z" fill="#8BC5E4"/>
<path d="M10.6646 36.9573L62.6262 6.95728L10.6646 36.9573Z" fill="#8BC5E4"/>
<path d="M81.012 218.202V234.132L132.973 204.132V188.202L81.012 218.202Z" fill="#8BC5E4"/>
<path d="M81.0121 234.132L44.3013 212.937L96.2628 182.937L132.974 204.132L81.0121 234.132Z" fill="#8BC5E4"/>
<path d="M44.3013 212.937V226.717L96.2628 196.717V182.937L44.3013 212.937Z" fill="#8BC5E4"/>
<path d="M44.3013 226.717L13.0464 187.682L65.0079 157.682L96.2628 196.717L44.3013 226.717Z" fill="#8BC5E4"/>
<path d="M13.0464 187.682L44.3013 184.417L96.2628 154.417L65.0079 157.682L13.0464 187.682Z" fill="#8BC5E4"/>
<path d="M44.3013 184.417V197.007L96.2628 167.007V154.417L44.3013 184.417Z" fill="#8BC5E4"/>
<path d="M44.3013 197.007L81.0121 218.202L132.974 188.202L96.2628 167.007L44.3013 197.007Z" fill="#8BC5E4"/>
<path d="M81.012 218.202L132.973 188.202L81.012 218.202Z" fill="#8BC5E4"/>
<path d="M98.1506 151.857V167.797L150.112 137.797V121.857L98.1506 151.857Z" fill="#8BC5E4"/>
<path d="M98.1507 167.797L61.4399 146.602L113.401 116.602L150.112 137.797L98.1507 167.797Z" fill="#8BC5E4"/>
<path d="M61.4399 146.602V160.382L113.401 130.382V116.602L61.4399 146.602Z" fill="#8BC5E4"/>
<path d="M61.4397 160.382L30.1848 121.357L82.1464 91.3572L113.401 130.382L61.4397 160.382Z" fill="#8BC5E4"/>
<path d="M30.1848 121.357L61.4397 118.072L113.401 88.0723L82.1464 91.3573L30.1848 121.357Z" fill="#8BC5E4"/>
<path d="M61.4399 118.072V130.662L113.401 100.662V88.0723L61.4399 118.072Z" fill="#8BC5E4"/>
<path d="M61.4399 130.662L98.1507 151.857L150.112 121.857L113.401 100.662L61.4399 130.662Z" fill="#8BC5E4"/>
<path d="M98.1506 151.857L150.112 121.857L98.1506 151.857Z" fill="#8BC5E4"/>
<path d="M77.5566 178.377V194.317L129.518 164.317V148.377L77.5566 178.377Z" fill="#8BC5E4"/>
<path d="M77.5566 194.317L114.276 215.517L166.238 185.517L129.518 164.317L77.5566 194.317Z" fill="#8BC5E4"/>
<path d="M114.276 215.517V229.307L166.237 199.307V185.517L114.276 215.517Z" fill="#8BC5E4"/>
<path d="M114.276 229.307L145.531 226.362L197.492 196.362L166.237 199.307L114.276 229.307Z" fill="#8BC5E4"/>
<path d="M145.531 226.362L114.276 186.987L166.237 156.987L197.492 196.362L145.531 226.362Z" fill="#8BC5E4"/>
<path d="M114.276 186.987V199.577L166.237 169.577V156.987L114.276 186.987Z" fill="#8BC5E4"/>
<path d="M114.276 199.577L77.5566 178.377L129.518 148.377L166.238 169.577L114.276 199.577Z" fill="#8BC5E4"/>
<path d="M77.5566 178.377L129.518 148.377L77.5566 178.377Z" fill="#8BC5E4"/>
<path d="M93.4221 112.597V128.527L145.384 98.5272V82.5972L93.4221 112.597Z" fill="#8BC5E4"/>
<path d="M93.4221 128.527L130.133 149.722L182.095 119.722L145.384 98.5273L93.4221 128.527Z" fill="#8BC5E4"/>
<path d="M130.133 149.722V163.512L182.094 133.512V119.722L130.133 149.722Z" fill="#8BC5E4"/>
<path d="M130.133 163.512L161.388 160.567L213.349 130.567L182.094 133.512L130.133 163.512Z" fill="#8BC5E4"/>
<path d="M161.388 160.567L130.133 121.202L182.094 91.2021L213.349 130.567L161.388 160.567Z" fill="#8BC5E4"/>
<path d="M130.133 121.202V133.792L182.094 103.792V91.2021L130.133 121.202Z" fill="#8BC5E4"/>
<path d="M130.133 133.792L93.4221 112.597L145.384 82.5972L182.095 103.792L130.133 133.792Z" fill="#8BC5E4"/>
<path d="M93.4221 112.597L145.384 82.5972L93.4221 112.597Z" fill="#8BC5E4"/>
<path d="M10.6645 31.4471C7.74741 29.7631 5.09541 29.5991 3.17041 30.6941L55.1319 0.694141C57.0569 -0.400859 59.7089 -0.236859 62.6261 1.44714L10.6645 31.4471Z" fill="#8BC5E4"/>
<path d="M3.16257 30.6992C1.23657 31.7992 0.0415742 34.1612 0.0385742 37.5222L52.0001 7.52222C52.0031 4.16122 53.1981 1.79922 55.1241 0.699219L3.16257 30.6992Z" fill="#8BC5E4"/>
<path d="M0.0385742 213.092C0.0385742 219.822 4.81907 228.072 10.6647 231.447L62.6263 201.447C56.7806 198.072 52.0001 189.822 52.0001 183.092L0.0385742 213.092Z" fill="#8BC5E4"/>
<path d="M162.617 319.177C165.535 320.861 168.187 321.025 170.112 319.93L222.073 289.93C220.148 291.025 217.496 290.861 214.579 289.177L162.617 319.177Z" fill="#8BC5E4"/>
<path d="M170.12 319.925C172.046 318.826 173.241 316.463 173.244 313.102L225.205 283.102C225.202 286.463 224.007 288.826 222.081 289.925L170.12 319.925Z" fill="#8BC5E4"/>
<path d="M173.244 137.532C173.244 130.802 168.463 122.552 162.617 119.177L214.579 89.1772C220.425 92.5522 225.205 100.802 225.205 107.532L173.244 137.532Z" fill="#8BC5E4"/>
<path d="M162.617 124.687C165.891 126.577 168.446 130.992 168.446 134.762L220.407 104.762C220.407 100.992 217.853 96.5773 214.579 94.6873L162.617 124.687Z" fill="#8BC5E4"/>
<path d="M168.446 310.322C168.446 312.207 167.808 313.516 166.76 314.117L218.721 284.117C219.769 283.516 220.407 282.207 220.407 280.322L168.446 310.322Z" fill="#8BC5E4"/>
<path d="M166.761 314.116C165.714 314.718 164.258 314.613 162.623 313.67L214.584 283.67C216.219 284.613 217.675 284.718 218.722 284.116L166.761 314.116Z" fill="#8BC5E4"/>
<path d="M10.6647 225.937C7.39123 224.047 4.83643 219.632 4.83643 215.862L56.7979 185.862C56.7979 189.632 59.3527 194.047 62.6263 195.937L10.6647 225.937Z" fill="#8BC5E4"/>
<path d="M4.83643 40.3023C4.83663 38.4173 5.47463 37.1083 6.52263 36.5073L58.4841 6.50732C57.4361 7.10832 56.7981 8.41732 56.7979 10.3023L4.83643 40.3023Z" fill="#8BC5E4"/>
<path d="M6.52148 36.5082C7.56848 35.9062 9.02448 36.0112 10.6595 36.9542L62.621 6.95419C60.986 6.01119 59.53 5.90619 58.483 6.50819L6.52148 36.5082Z" fill="#8BC5E4"/>
<path d="M162.617 124.687C165.891 126.577 168.446 130.992 168.446 134.762L220.407 104.762C220.407 100.992 217.853 96.5773 214.579 94.6873L162.617 124.687Z" fill="#8BC5E4"/>
<path d="M168.446 310.322C168.446 312.207 167.808 313.516 166.76 314.117L218.721 284.117C219.769 283.516 220.407 282.207 220.407 280.322L168.446 310.322Z" fill="#8BC5E4"/>
<path d="M166.761 314.116C165.714 314.718 164.258 314.613 162.623 313.67L214.584 283.67C216.219 284.613 217.675 284.718 218.722 284.116L166.761 314.116Z" fill="#8BC5E4"/>
<path d="M10.6647 225.937C7.39123 224.047 4.83643 219.632 4.83643 215.862L56.7979 185.862C56.7979 189.632 59.3527 194.047 62.6263 195.937L10.6647 225.937Z" fill="#8BC5E4"/>
<path d="M4.83643 40.3023C4.83663 38.4173 5.47463 37.1083 6.52263 36.5073L58.4841 6.50732C57.4361 7.10832 56.7981 8.41732 56.7979 10.3023L4.83643 40.3023Z" fill="#8BC5E4"/>
<path d="M6.52148 36.5082C7.56848 35.9062 9.02448 36.0112 10.6595 36.9542L62.621 6.95419C60.986 6.01119 59.53 5.90619 58.483 6.50819L6.52148 36.5082Z" fill="#8BC5E4"/>
<path d="M81.0119 234.132V218.202L44.3011 197.007V184.417L13.0463 187.682L44.3011 226.717V212.937L81.0119 234.132ZM98.1506 167.797V151.857L61.4398 130.662V118.072L30.1849 121.357L61.4398 160.382V146.602L98.1506 167.797ZM77.5565 194.317V178.377L114.276 199.577V186.987L145.531 226.362L114.276 229.307V215.517L77.5565 194.317ZM93.4221 128.527V112.597L130.133 133.792V121.202L161.388 160.567L130.133 163.512V149.722L93.4221 128.527ZM10.6647 31.4473C4.81903 28.0723 0.0385742 30.8023 0.0385742 37.5323V213.092C0.0385742 219.822 4.81903 228.072 10.6647 231.447L162.618 319.177C168.463 322.552 173.244 319.822 173.244 313.092V137.532C173.244 130.802 168.463 122.552 162.618 119.177L10.6647 31.4473ZM10.6647 36.9573L162.618 124.687C165.891 126.577 168.446 130.992 168.446 134.762V310.322C168.446 314.092 165.891 315.557 162.618 313.667L10.6647 225.937C7.39113 224.047 4.83635 219.632 4.83635 215.862V40.3023C4.83635 36.5323 7.39113 35.0673 10.6647 36.9573Z" fill="#8BC5E4"/>
<path fill-rule="evenodd" clip-rule="evenodd" d="M10.6647 36.9573L162.618 124.687C165.891 126.577 168.446 130.992 168.446 134.762V310.322C168.446 314.092 165.891 315.557 162.618 313.667L10.6647 225.937C7.39113 224.047 4.83635 219.632 4.83635 215.862V40.3023C4.83635 36.5323 7.39113 35.0673 10.6647 36.9573ZM81.0119 218.202V234.132L44.3011 212.937V226.717L13.0463 187.682L44.3011 184.417V197.007L81.0119 218.202ZM98.1506 151.857V167.797L61.4398 146.602V160.382L30.1849 121.357L61.4398 118.072V130.662L98.1506 151.857ZM77.5565 178.377V194.317L114.276 215.517V229.307L145.531 226.362L114.276 186.987V199.577L77.5565 178.377ZM93.4221 112.597V128.527L130.133 149.722V163.512L161.388 160.567L130.133 121.202V133.792L93.4221 112.597Z" fill="white"/>
</svg>
