<svg width="226" height="386" viewBox="0 0 226 386" fill="none" xmlns="http://www.w3.org/2000/svg">
<path d="M141.084 98.1836L126.578 129.719L74.6167 99.7186L89.1227 68.1836L141.084 98.1836Z" fill="#8BC5E4"/>
<path d="M126.578 129.719L136.217 124.154L84.2556 94.1537L74.6167 99.7187L126.578 129.719Z" fill="#8BC5E4"/>
<path d="M136.217 124.154V148.734L84.2556 118.734V94.1537L136.217 124.154Z" fill="#8BC5E4"/>
<path d="M124.465 160.989L108.747 152.724L56.7852 122.724L72.5035 130.989L124.465 160.989Z" fill="#8BC5E4"/>
<path d="M108.747 152.724L115.536 141.234L63.5748 111.234L56.7852 122.724L108.747 152.724Z" fill="#8BC5E4"/>
<path d="M115.536 141.234L90.6295 150.544L38.668 120.544L63.5749 111.234L115.536 141.234Z" fill="#8BC5E4"/>
<path d="M90.6295 150.544L95.2108 175.639L43.2493 145.639L38.668 120.544L90.6295 150.544Z" fill="#8BC5E4"/>
<path d="M95.2108 175.639L102 164.139L50.0389 134.139L43.2493 145.639L95.2108 175.639Z" fill="#8BC5E4"/>
<path d="M102 164.139L117.727 172.409L65.7658 142.409L50.0388 134.139L102 164.139Z" fill="#8BC5E4"/>
<path d="M113.033 187.859L90.8546 200.664L38.8931 170.664L61.072 157.859L113.033 187.859Z" fill="#8BC5E4"/>
<path d="M90.8546 200.664V189.974L38.8931 159.974V170.664L90.8546 200.664Z" fill="#8BC5E4"/>
<path d="M90.8546 189.974L69.9747 217.929L18.0132 187.929L38.8931 159.974L90.8546 189.974Z" fill="#8BC5E4"/>
<path d="M69.9747 217.929L90.8546 221.964L38.8931 191.964L18.0132 187.929L69.9747 217.929Z" fill="#8BC5E4"/>
<path d="M90.8546 221.964V211.264L38.8931 181.264V191.964L90.8546 221.964Z" fill="#8BC5E4"/>
<path d="M90.8546 211.264L113.007 198.474L61.046 168.474L38.8931 181.264L90.8546 211.264Z" fill="#8BC5E4"/>
<path d="M117.797 208.529L102.122 235.009L50.1602 205.009L65.8352 178.529L117.797 208.529Z" fill="#8BC5E4"/>
<path d="M102.122 235.009L95.2974 231.399L43.3359 201.399L50.1602 205.009L102.122 235.009Z" fill="#8BC5E4"/>
<path d="M95.2973 231.399L90.8026 261.744L38.8411 231.744L43.3358 201.399L95.2973 231.399Z" fill="#8BC5E4"/>
<path d="M90.8026 261.744L115.701 242.219L63.7393 212.219L38.8411 231.744L90.8026 261.744Z" fill="#8BC5E4"/>
<path d="M115.701 242.219L108.885 238.594L56.9238 208.594L63.7394 212.219L115.701 242.219Z" fill="#8BC5E4"/>
<path d="M108.885 238.594L124.543 212.174L72.5816 182.174L56.9238 208.594L108.885 238.594Z" fill="#8BC5E4"/>
<path d="M136.217 210.804V235.404L84.2556 205.404V180.804L136.217 210.804Z" fill="#8BC5E4"/>
<path d="M136.217 235.404L126.578 240.969L74.6167 210.969L84.2556 205.404L136.217 235.404Z" fill="#8BC5E4"/>
<path d="M126.578 240.969L141.084 255.764L89.1227 225.764L74.6167 210.969L126.578 240.969Z" fill="#8BC5E4"/>
<path d="M141.084 255.764L155.408 224.324L103.447 194.324L89.1226 225.764L141.084 255.764Z" fill="#8BC5E4"/>
<path d="M155.408 224.324L145.778 229.884L93.8164 199.884L103.447 194.324L155.408 224.324Z" fill="#8BC5E4"/>
<path d="M145.778 229.884V205.314L93.8164 175.314V199.884L145.778 229.884Z" fill="#8BC5E4"/>
<path d="M157.365 193.254L173.11 201.524L121.148 171.524L105.404 163.254L157.365 193.254Z" fill="#8BC5E4"/>
<path d="M173.11 201.524L166.32 213.034L114.359 183.034L121.148 171.524L173.11 201.524Z" fill="#8BC5E4"/>
<path d="M166.32 213.034L191.348 203.504L139.387 173.504L114.359 183.034L166.32 213.034Z" fill="#8BC5E4"/>
<path d="M191.348 203.504L186.646 178.619L134.684 148.619L139.387 173.504L191.348 203.504Z" fill="#8BC5E4"/>
<path d="M186.646 178.619L179.856 190.119L127.895 160.119L134.684 148.619L186.646 178.619Z" fill="#8BC5E4"/>
<path d="M179.856 190.119L164.146 181.849L112.185 151.849L127.895 160.119L179.856 190.119Z" fill="#8BC5E4"/>
<path d="M168.953 166.174L191.132 153.369L139.17 123.369L116.991 136.174L168.953 166.174Z" fill="#8BC5E4"/>
<path d="M191.132 153.369V164.069L139.17 134.069V123.369L191.132 153.369Z" fill="#8BC5E4"/>
<path d="M191.132 164.069L212.012 135.924L160.05 105.924L139.17 134.069L191.132 164.069Z" fill="#8BC5E4"/>
<path d="M212.012 135.924L191.132 132.079L139.17 102.079L160.05 105.924L212.012 135.924Z" fill="#8BC5E4"/>
<path d="M191.132 132.079V142.769L139.17 112.769V102.079L191.132 132.079Z" fill="#8BC5E4"/>
<path d="M191.132 142.769L168.979 155.559L117.017 125.559L139.17 112.769L191.132 142.769Z" fill="#8BC5E4"/>
<path d="M164.077 145.429L179.743 118.974L127.782 88.9736L112.115 115.429L164.077 145.429Z" fill="#8BC5E4"/>
<path d="M179.744 118.974L186.55 122.594L134.589 92.5936L127.782 88.9736L179.744 118.974Z" fill="#8BC5E4"/>
<path d="M186.55 122.594L191.175 92.3036L139.213 62.3036L134.589 92.5936L186.55 122.594Z" fill="#8BC5E4"/>
<path d="M191.175 92.3036L166.164 111.764L114.203 81.7636L139.214 62.3036L191.175 92.3036Z" fill="#8BC5E4"/>
<path d="M166.164 111.764L172.98 115.389L121.018 85.3887L114.203 81.7637L166.164 111.764Z" fill="#8BC5E4"/>
<path d="M172.98 115.389L157.305 141.839L105.343 111.839L121.018 85.3887L172.98 115.389Z" fill="#8BC5E4"/>
<path d="M145.778 143.244V118.634L93.8164 88.6337V113.244L145.778 143.244Z" fill="#8BC5E4"/>
<path d="M145.778 118.634L155.408 113.074L103.447 83.0736L93.8164 88.6336L145.778 118.634Z" fill="#8BC5E4"/>
<path d="M155.408 113.074L141.084 98.1836L89.1226 68.1836L103.447 83.0736L155.408 113.074Z" fill="#8BC5E4"/>
<path d="M141.084 98.1836L89.1226 68.1836L141.084 98.1836Z" fill="#8BC5E4"/>
<path d="M62.5875 124.544L214.54 36.8136L162.579 6.8136L10.626 94.5436L62.5875 124.544Z" fill="#8BC5E4"/>
<path d="M220.369 39.9187V276.349L168.407 246.349V9.9187L220.369 39.9187Z" fill="#8BC5E4"/>
<path d="M214.54 286.174L62.5875 373.904L10.626 343.904L162.579 256.174L214.54 286.174Z" fill="#8BC5E4"/>
<path d="M56.7591 370.809V134.379L4.79761 104.379V340.809L56.7591 370.809Z" fill="#8BC5E4"/>
<path d="M62.5875 124.544L10.626 94.5437L62.5875 124.544Z" fill="#8BC5E4"/>
<path d="M51.9615 137.149V373.579L0 343.579V107.149L51.9615 137.149Z" fill="#8BC5E4"/>
<path d="M62.5875 379.224L214.54 291.494L162.579 261.494L10.626 349.224L62.5875 379.224Z" fill="#8BC5E4"/>
<path d="M225.167 273.579V37.1487L173.205 7.14868V243.579L225.167 273.579Z" fill="#8BC5E4"/>
<path d="M214.54 31.4937L62.5875 119.224L10.626 89.2237L162.579 1.49365L214.54 31.4937Z" fill="#8BC5E4"/>
<path d="M62.5875 119.224L10.626 89.2236L62.5875 119.224Z" fill="#8BC5E4"/>
<path d="M157.582 275.159L170.745 267.559L118.784 237.559L105.62 245.159L157.582 275.159Z" fill="#8BC5E4"/>
<path d="M170.745 267.559V272.689L118.784 242.689V237.559L170.745 267.559Z" fill="#8BC5E4"/>
<path d="M170.745 272.689L181.32 259.814L129.358 229.814L118.784 242.689L170.745 272.689Z" fill="#8BC5E4"/>
<path d="M181.32 259.814L170.745 258.909L118.784 228.909L129.358 229.814L181.32 259.814Z" fill="#8BC5E4"/>
<path d="M170.745 258.909V264.039L118.784 234.039V228.909L170.745 258.909Z" fill="#8BC5E4"/>
<path d="M170.745 264.039L157.582 271.639L105.62 241.639L118.784 234.039L170.745 264.039Z" fill="#8BC5E4"/>
<path d="M157.582 271.639V275.159L105.62 245.159V241.639L157.582 271.639Z" fill="#8BC5E4"/>
<path d="M157.582 275.159L105.62 245.159L157.582 275.159Z" fill="#8BC5E4"/>
<path d="M185.303 259.134L198.458 251.539L146.497 221.539L133.342 229.134L185.303 259.134Z" fill="#8BC5E4"/>
<path d="M198.458 251.539V256.669L146.497 226.669V221.539L198.458 251.539Z" fill="#8BC5E4"/>
<path d="M198.458 256.669L209.033 243.784L157.071 213.784L146.497 226.669L198.458 256.669Z" fill="#8BC5E4"/>
<path d="M209.033 243.784L198.458 242.879L146.497 212.879L157.071 213.784L209.033 243.784Z" fill="#8BC5E4"/>
<path d="M198.458 242.879V248.009L146.497 218.009V212.879L198.458 242.879Z" fill="#8BC5E4"/>
<path d="M198.458 248.009L185.303 255.604L133.342 225.604L146.497 218.009L198.458 248.009Z" fill="#8BC5E4"/>
<path d="M185.303 255.604V259.134L133.342 229.134V225.604L185.303 255.604Z" fill="#8BC5E4"/>
<path d="M185.303 259.134L133.342 229.134L185.303 259.134Z" fill="#8BC5E4"/>
<path d="M183.233 271.739L193.825 274.284L141.863 244.284L131.272 241.739L183.233 271.739Z" fill="#8BC5E4"/>
<path d="M193.825 274.284L191.08 280.009L139.118 250.009L141.863 244.284L193.825 274.284Z" fill="#8BC5E4"/>
<path d="M191.08 280.009L203.213 274.514L151.251 244.514L139.118 250.009L191.08 280.009Z" fill="#8BC5E4"/>
<path d="M203.213 274.514L198.45 264.654L146.488 234.654L151.251 244.514L203.213 274.514Z" fill="#8BC5E4"/>
<path d="M198.45 264.654L195.704 270.359L143.743 240.359L146.488 234.654L198.45 264.654Z" fill="#8BC5E4"/>
<path d="M195.704 270.359L185.122 267.809L133.16 237.809L143.743 240.359L195.704 270.359Z" fill="#8BC5E4"/>
<path d="M185.121 267.809L183.233 271.739L131.272 241.739L133.16 237.809L185.121 267.809Z" fill="#8BC5E4"/>
<path d="M183.233 271.739L131.272 241.739L183.233 271.739Z" fill="#8BC5E4"/>
<path d="M183.233 243.929L193.825 229.154L141.863 199.154L131.272 213.929L183.233 243.929Z" fill="#8BC5E4"/>
<path d="M193.825 229.154L191.08 226.609L139.118 196.609L141.863 199.154L193.825 229.154Z" fill="#8BC5E4"/>
<path d="M191.08 226.609L203.213 218.094L151.251 188.094L139.118 196.609L191.08 226.609Z" fill="#8BC5E4"/>
<path d="M203.213 218.094L198.45 233.454L146.488 203.454L151.251 188.094L203.213 218.094Z" fill="#8BC5E4"/>
<path d="M198.45 233.454L195.704 230.899L143.743 200.899L146.488 203.454L198.45 233.454Z" fill="#8BC5E4"/>
<path d="M195.704 230.899L185.122 245.679L133.16 215.679L143.743 200.899L195.704 230.899Z" fill="#8BC5E4"/>
<path d="M185.121 245.679L183.233 243.929L131.272 213.929L133.16 215.679L185.121 245.679Z" fill="#8BC5E4"/>
<path d="M183.233 243.929L131.272 213.929L183.233 243.929Z" fill="#8BC5E4"/>
<path d="M62.5875 124.544L214.54 36.8136L162.579 6.8136L10.626 94.5436L62.5875 124.544Z" fill="#8BC5E4"/>
<path d="M220.369 39.9187V276.349L168.407 246.349V9.9187L220.369 39.9187Z" fill="#8BC5E4"/>
<path d="M214.54 286.174L62.5875 373.904L10.626 343.904L162.579 256.174L214.54 286.174Z" fill="#8BC5E4"/>
<path d="M56.7591 370.809V134.379L4.79761 104.379V340.809L56.7591 370.809Z" fill="#8BC5E4"/>
<path d="M62.5875 124.544L10.626 94.5437L62.5875 124.544Z" fill="#8BC5E4"/>
<path d="M126.578 129.719L141.084 98.1836L89.1227 68.1836L74.6167 99.7186L126.578 129.719Z" fill="#8BC5E4"/>
<path d="M141.084 98.1836L155.408 113.074L103.447 83.0736L89.1226 68.1836L141.084 98.1836Z" fill="#8BC5E4"/>
<path d="M155.408 113.074L145.778 118.634L93.8164 88.6336L103.447 83.0736L155.408 113.074Z" fill="#8BC5E4"/>
<path d="M145.778 118.634V143.244L93.8164 113.244V88.6337L145.778 118.634Z" fill="#8BC5E4"/>
<path d="M157.305 141.839L172.98 115.389L121.018 85.3887L105.343 111.839L157.305 141.839Z" fill="#8BC5E4"/>
<path d="M172.98 115.389L166.164 111.764L114.203 81.7637L121.018 85.3887L172.98 115.389Z" fill="#8BC5E4"/>
<path d="M166.164 111.764L191.175 92.3036L139.214 62.3036L114.203 81.7636L166.164 111.764Z" fill="#8BC5E4"/>
<path d="M191.175 92.3036L186.55 122.594L134.589 92.5936L139.213 62.3036L191.175 92.3036Z" fill="#8BC5E4"/>
<path d="M186.55 122.594L179.744 118.974L127.782 88.9736L134.589 92.5936L186.55 122.594Z" fill="#8BC5E4"/>
<path d="M179.743 118.974L164.077 145.429L112.115 115.429L127.782 88.9736L179.743 118.974Z" fill="#8BC5E4"/>
<path d="M168.979 155.559L191.132 142.769L139.17 112.769L117.017 125.559L168.979 155.559Z" fill="#8BC5E4"/>
<path d="M191.132 142.769V132.079L139.17 102.079V112.769L191.132 142.769Z" fill="#8BC5E4"/>
<path d="M191.132 132.079L212.012 135.924L160.05 105.924L139.17 102.079L191.132 132.079Z" fill="#8BC5E4"/>
<path d="M212.012 135.924L191.132 164.069L139.17 134.069L160.05 105.924L212.012 135.924Z" fill="#8BC5E4"/>
<path d="M191.132 164.069V153.369L139.17 123.369V134.069L191.132 164.069Z" fill="#8BC5E4"/>
<path d="M191.132 153.369L168.953 166.174L116.991 136.174L139.17 123.369L191.132 153.369Z" fill="#8BC5E4"/>
<path d="M164.146 181.849L179.856 190.119L127.895 160.119L112.185 151.849L164.146 181.849Z" fill="#8BC5E4"/>
<path d="M179.856 190.119L186.646 178.619L134.684 148.619L127.895 160.119L179.856 190.119Z" fill="#8BC5E4"/>
<path d="M186.646 178.619L191.348 203.504L139.387 173.504L134.684 148.619L186.646 178.619Z" fill="#8BC5E4"/>
<path d="M191.348 203.504L166.32 213.034L114.359 183.034L139.387 173.504L191.348 203.504Z" fill="#8BC5E4"/>
<path d="M166.32 213.034L173.11 201.524L121.148 171.524L114.359 183.034L166.32 213.034Z" fill="#8BC5E4"/>
<path d="M173.11 201.524L157.365 193.254L105.404 163.254L121.148 171.524L173.11 201.524Z" fill="#8BC5E4"/>
<path d="M145.778 205.314V229.884L93.8164 199.884V175.314L145.778 205.314Z" fill="#8BC5E4"/>
<path d="M145.778 229.884L155.408 224.324L103.447 194.324L93.8164 199.884L145.778 229.884Z" fill="#8BC5E4"/>
<path d="M155.408 224.324L141.084 255.764L89.1226 225.764L103.447 194.324L155.408 224.324Z" fill="#8BC5E4"/>
<path d="M141.084 255.764L126.578 240.969L74.6167 210.969L89.1227 225.764L141.084 255.764Z" fill="#8BC5E4"/>
<path d="M126.578 240.969L136.217 235.404L84.2556 205.404L74.6167 210.969L126.578 240.969Z" fill="#8BC5E4"/>
<path d="M136.217 235.404V210.804L84.2556 180.804V205.404L136.217 235.404Z" fill="#8BC5E4"/>
<path d="M124.543 212.174L108.885 238.594L56.9238 208.594L72.5816 182.174L124.543 212.174Z" fill="#8BC5E4"/>
<path d="M108.885 238.594L115.701 242.219L63.7394 212.219L56.9238 208.594L108.885 238.594Z" fill="#8BC5E4"/>
<path d="M115.701 242.219L90.8026 261.744L38.8411 231.744L63.7393 212.219L115.701 242.219Z" fill="#8BC5E4"/>
<path d="M90.8026 261.744L95.2973 231.399L43.3358 201.399L38.8411 231.744L90.8026 261.744Z" fill="#8BC5E4"/>
<path d="M95.2974 231.399L102.122 235.009L50.1602 205.009L43.3359 201.399L95.2974 231.399Z" fill="#8BC5E4"/>
<path d="M102.122 235.009L117.797 208.529L65.8352 178.529L50.1602 205.009L102.122 235.009Z" fill="#8BC5E4"/>
<path d="M113.007 198.474L90.8546 211.264L38.8931 181.264L61.046 168.474L113.007 198.474Z" fill="#8BC5E4"/>
<path d="M90.8546 211.264V221.964L38.8931 191.964V181.264L90.8546 211.264Z" fill="#8BC5E4"/>
<path d="M90.8546 221.964L69.9747 217.929L18.0132 187.929L38.8931 191.964L90.8546 221.964Z" fill="#8BC5E4"/>
<path d="M69.9747 217.929L90.8546 189.974L38.8931 159.974L18.0132 187.929L69.9747 217.929Z" fill="#8BC5E4"/>
<path d="M90.8546 189.974V200.664L38.8931 170.664V159.974L90.8546 189.974Z" fill="#8BC5E4"/>
<path d="M90.8546 200.664L113.033 187.859L61.072 157.859L38.8931 170.664L90.8546 200.664Z" fill="#8BC5E4"/>
<path d="M117.727 172.409L102 164.139L50.0388 134.139L65.7658 142.409L117.727 172.409Z" fill="#8BC5E4"/>
<path d="M102 164.139L95.2108 175.639L43.2493 145.639L50.0389 134.139L102 164.139Z" fill="#8BC5E4"/>
<path d="M95.2108 175.639L90.6295 150.544L38.668 120.544L43.2493 145.639L95.2108 175.639Z" fill="#8BC5E4"/>
<path d="M90.6295 150.544L115.536 141.234L63.5749 111.234L38.668 120.544L90.6295 150.544Z" fill="#8BC5E4"/>
<path d="M115.536 141.234L108.747 152.724L56.7852 122.724L63.5748 111.234L115.536 141.234Z" fill="#8BC5E4"/>
<path d="M108.747 152.724L124.465 160.989L72.5035 130.989L56.7852 122.724L108.747 152.724Z" fill="#8BC5E4"/>
<path d="M136.217 148.734V124.154L84.2556 94.1537V118.734L136.217 148.734Z" fill="#8BC5E4"/>
<path d="M136.217 124.154L126.578 129.719L74.6167 99.7187L84.2556 94.1537L136.217 124.154Z" fill="#8BC5E4"/>
<path d="M126.578 129.719L74.6167 99.7186L126.578 129.719Z" fill="#8BC5E4"/>
<path d="M170.745 267.559L157.582 275.159L105.62 245.159L118.784 237.559L170.745 267.559Z" fill="#8BC5E4"/>
<path d="M157.582 275.159V271.639L105.62 241.639V245.159L157.582 275.159Z" fill="#8BC5E4"/>
<path d="M157.582 271.639L170.745 264.039L118.784 234.039L105.62 241.639L157.582 271.639Z" fill="#8BC5E4"/>
<path d="M170.745 264.039V258.909L118.784 228.909V234.039L170.745 264.039Z" fill="#8BC5E4"/>
<path d="M170.745 258.909L181.32 259.814L129.358 229.814L118.784 228.909L170.745 258.909Z" fill="#8BC5E4"/>
<path d="M181.32 259.814L170.745 272.689L118.784 242.689L129.358 229.814L181.32 259.814Z" fill="#8BC5E4"/>
<path d="M170.745 272.689V267.559L118.784 237.559V242.689L170.745 272.689Z" fill="#8BC5E4"/>
<path d="M170.745 267.559L118.784 237.559L170.745 267.559Z" fill="#8BC5E4"/>
<path d="M198.458 251.539L185.303 259.134L133.342 229.134L146.497 221.539L198.458 251.539Z" fill="#8BC5E4"/>
<path d="M185.303 259.134V255.604L133.342 225.604V229.134L185.303 259.134Z" fill="#8BC5E4"/>
<path d="M185.303 255.604L198.458 248.009L146.497 218.009L133.342 225.604L185.303 255.604Z" fill="#8BC5E4"/>
<path d="M198.458 248.009V242.879L146.497 212.879V218.009L198.458 248.009Z" fill="#8BC5E4"/>
<path d="M198.458 242.879L209.033 243.784L157.071 213.784L146.497 212.879L198.458 242.879Z" fill="#8BC5E4"/>
<path d="M209.033 243.784L198.458 256.669L146.497 226.669L157.071 213.784L209.033 243.784Z" fill="#8BC5E4"/>
<path d="M198.458 256.669V251.539L146.497 221.539V226.669L198.458 256.669Z" fill="#8BC5E4"/>
<path d="M198.458 251.539L146.497 221.539L198.458 251.539Z" fill="#8BC5E4"/>
<path d="M193.825 274.284L183.233 271.739L131.272 241.739L141.863 244.284L193.825 274.284Z" fill="#8BC5E4"/>
<path d="M183.233 271.739L185.121 267.809L133.16 237.809L131.272 241.739L183.233 271.739Z" fill="#8BC5E4"/>
<path d="M185.122 267.809L195.704 270.359L143.743 240.359L133.16 237.809L185.122 267.809Z" fill="#8BC5E4"/>
<path d="M195.704 270.359L198.45 264.654L146.488 234.654L143.743 240.359L195.704 270.359Z" fill="#8BC5E4"/>
<path d="M198.45 264.654L203.213 274.514L151.251 244.514L146.488 234.654L198.45 264.654Z" fill="#8BC5E4"/>
<path d="M203.213 274.514L191.08 280.009L139.118 250.009L151.251 244.514L203.213 274.514Z" fill="#8BC5E4"/>
<path d="M191.08 280.009L193.825 274.284L141.863 244.284L139.118 250.009L191.08 280.009Z" fill="#8BC5E4"/>
<path d="M193.825 274.284L141.864 244.284L193.825 274.284Z" fill="#8BC5E4"/>
<path d="M193.825 229.154L183.233 243.929L131.272 213.929L141.863 199.154L193.825 229.154Z" fill="#8BC5E4"/>
<path d="M183.233 243.929L185.121 245.679L133.16 215.679L131.272 213.929L183.233 243.929Z" fill="#8BC5E4"/>
<path d="M185.122 245.679L195.704 230.899L143.743 200.899L133.16 215.679L185.122 245.679Z" fill="#8BC5E4"/>
<path d="M195.704 230.899L198.45 233.454L146.488 203.454L143.743 200.899L195.704 230.899Z" fill="#8BC5E4"/>
<path d="M198.45 233.454L203.213 218.094L151.251 188.094L146.488 203.454L198.45 233.454Z" fill="#8BC5E4"/>
<path d="M203.213 218.094L191.08 226.609L139.118 196.609L151.251 188.094L203.213 218.094Z" fill="#8BC5E4"/>
<path d="M191.08 226.609L193.825 229.154L141.863 199.154L139.118 196.609L191.08 226.609Z" fill="#8BC5E4"/>
<path d="M193.825 229.154L141.864 199.154L193.825 229.154Z" fill="#8BC5E4"/>
<path d="M136.217 148.734C131.982 151.989 127.964 156.179 124.465 160.989L72.5034 130.989C76.0022 126.179 80.0205 121.989 84.2554 118.734L136.217 148.734Z" fill="#8BC5E4"/>
<path d="M117.727 172.409C115.337 177.599 113.735 182.874 113.034 187.859L61.072 157.859C61.7735 152.874 63.3756 147.599 65.7658 142.409L117.727 172.409Z" fill="#8BC5E4"/>
<path d="M113.008 198.474C113.726 202.679 115.363 206.114 117.797 208.529L65.8352 178.529C63.4017 176.114 61.7649 172.679 61.0461 168.474L113.008 198.474Z" fill="#8BC5E4"/>
<path d="M124.543 212.174C128.016 212.909 132.008 212.444 136.217 210.804L84.2555 180.804C80.0466 182.444 76.0542 182.909 72.5815 182.174L124.543 212.174Z" fill="#8BC5E4"/>
<path d="M145.778 205.314C149.952 202.094 153.919 197.974 157.365 193.254L105.404 163.254C101.957 167.974 97.9907 172.094 93.8164 175.314L145.778 205.314Z" fill="#8BC5E4"/>
<path d="M164.146 181.849C166.597 176.584 168.234 171.239 168.953 166.174L116.991 136.174C116.272 141.239 114.636 146.584 112.185 151.849L164.146 181.849Z" fill="#8BC5E4"/>
<path d="M168.979 155.559C168.243 151.304 166.571 147.839 164.077 145.429L112.115 115.429C114.61 117.839 116.281 121.304 117.017 125.559L168.979 155.559Z" fill="#8BC5E4"/>
<path d="M157.305 141.839C153.858 141.159 149.926 141.629 145.778 143.244L93.8164 113.244C97.9647 111.629 101.896 111.159 105.343 111.839L157.305 141.839Z" fill="#8BC5E4"/>
<path d="M214.54 36.8136C216.215 35.8466 217.702 35.7316 218.755 36.3366L166.794 6.33661C165.741 5.73161 164.254 5.84661 162.579 6.81361L214.54 36.8136Z" fill="#8BC5E4"/>
<path d="M218.765 36.3427C219.762 36.9217 220.367 38.1507 220.368 39.9137L168.407 9.91365C168.406 8.15065 167.801 6.92165 166.804 6.34265L218.765 36.3427Z" fill="#8BC5E4"/>
<path d="M220.369 276.349C220.369 279.969 217.814 284.284 214.54 286.174L162.579 256.174C165.852 254.284 168.407 249.969 168.407 246.349L220.369 276.349Z" fill="#8BC5E4"/>
<path d="M62.5875 373.904C60.9124 374.871 59.4254 374.986 58.3724 374.382L6.41089 344.382C7.46389 344.986 8.95089 344.871 10.626 343.904L62.5875 373.904Z" fill="#8BC5E4"/>
<path d="M58.3744 374.383C57.3694 373.808 56.7603 372.58 56.7593 370.814L4.79785 340.814C4.79885 342.58 5.40785 343.808 6.41285 344.383L58.3744 374.383Z" fill="#8BC5E4"/>
<path d="M56.7591 134.379C56.7591 130.749 59.3139 126.434 62.5874 124.544L10.6259 94.5437C7.35231 96.4337 4.79761 100.749 4.79761 104.379L56.7591 134.379Z" fill="#8BC5E4"/>
<path d="M62.5876 119.224C56.742 122.599 51.9615 130.659 51.9615 137.149L0 107.149C0 100.659 4.7804 92.5986 10.6261 89.2236L62.5876 119.224Z" fill="#8BC5E4"/>
<path d="M51.9615 373.579C51.9615 376.737 53.0965 378.959 54.9375 380.017L2.976 350.017C1.135 348.959 0 346.737 0 343.579L51.9615 373.579Z" fill="#8BC5E4"/>
<path d="M54.9344 380.016C56.8694 381.129 59.5844 380.956 62.5794 379.229L10.6179 349.229C7.6229 350.956 4.9079 351.129 2.9729 350.016L54.9344 380.016Z" fill="#8BC5E4"/>
<path d="M214.54 291.494C220.386 288.119 225.167 280.059 225.167 273.579L173.205 243.579C173.205 250.059 168.425 258.119 162.579 261.494L214.54 291.494Z" fill="#8BC5E4"/>
<path d="M225.167 37.1486C225.166 33.9926 224.035 31.7706 222.201 30.7086L170.24 0.708618C172.074 1.77062 173.205 3.99262 173.205 7.14862L225.167 37.1486Z" fill="#8BC5E4"/>
<path d="M222.193 30.7037C220.258 29.5887 217.544 29.7617 214.549 31.4887L162.588 1.48869C165.583 -0.238314 168.297 -0.411314 170.232 0.703686L222.193 30.7037Z" fill="#8BC5E4"/>
<path d="M214.54 36.8136C216.215 35.8466 217.702 35.7316 218.755 36.3366L166.794 6.33661C165.741 5.73161 164.254 5.84661 162.579 6.81361L214.54 36.8136Z" fill="#8BC5E4"/>
<path d="M218.765 36.3427C219.762 36.9217 220.367 38.1507 220.368 39.9137L168.407 9.91365C168.406 8.15065 167.801 6.92165 166.804 6.34265L218.765 36.3427Z" fill="#8BC5E4"/>
<path d="M220.369 276.349C220.369 279.969 217.814 284.284 214.54 286.174L162.579 256.174C165.852 254.284 168.407 249.969 168.407 246.349L220.369 276.349Z" fill="#8BC5E4"/>
<path d="M62.5875 373.904C60.9124 374.871 59.4254 374.986 58.3724 374.382L6.41089 344.382C7.46389 344.986 8.95089 344.871 10.626 343.904L62.5875 373.904Z" fill="#8BC5E4"/>
<path d="M58.3744 374.383C57.3694 373.808 56.7603 372.58 56.7593 370.814L4.79785 340.814C4.79885 342.58 5.40785 343.808 6.41285 344.383L58.3744 374.383Z" fill="#8BC5E4"/>
<path d="M56.7591 134.379C56.7591 130.749 59.3139 126.434 62.5874 124.544L10.6259 94.5437C7.35231 96.4337 4.79761 100.749 4.79761 104.379L56.7591 134.379Z" fill="#8BC5E4"/>
<path d="M145.778 143.244C149.926 141.629 153.858 141.159 157.305 141.839L105.343 111.839C101.896 111.159 97.9647 111.629 93.8164 113.244L145.778 143.244Z" fill="#8BC5E4"/>
<path d="M164.077 145.429C166.571 147.839 168.243 151.304 168.979 155.559L117.017 125.559C116.281 121.304 114.61 117.839 112.115 115.429L164.077 145.429Z" fill="#8BC5E4"/>
<path d="M168.953 166.174C168.234 171.239 166.597 176.584 164.146 181.849L112.185 151.849C114.636 146.584 116.272 141.239 116.991 136.174L168.953 166.174Z" fill="#8BC5E4"/>
<path d="M157.365 193.254C153.919 197.974 149.952 202.094 145.778 205.314L93.8164 175.314C97.9907 172.094 101.957 167.974 105.404 163.254L157.365 193.254Z" fill="#8BC5E4"/>
<path d="M136.217 210.804C132.008 212.444 128.016 212.909 124.543 212.174L72.5815 182.174C76.0542 182.909 80.0466 182.444 84.2555 180.804L136.217 210.804Z" fill="#8BC5E4"/>
<path d="M117.797 208.529C115.363 206.114 113.726 202.679 113.008 198.474L61.0461 168.474C61.7649 172.679 63.4017 176.114 65.8352 178.529L117.797 208.529Z" fill="#8BC5E4"/>
<path d="M113.034 187.859C113.735 182.874 115.337 177.599 117.727 172.409L65.7658 142.409C63.3756 147.599 61.7735 152.874 61.072 157.859L113.034 187.859Z" fill="#8BC5E4"/>
<path d="M124.465 160.989C127.964 156.179 131.982 151.989 136.217 148.734L84.2554 118.734C80.0205 121.989 76.0022 126.179 72.5034 130.989L124.465 160.989Z" fill="#8BC5E4"/>
<path d="M141.084 98.1836L126.578 129.719L136.217 124.154V148.734C131.982 151.989 127.964 156.179 124.465 160.989L108.747 152.724L115.536 141.234L90.6295 150.544L95.2107 175.639L102 164.139L117.727 172.409C115.337 177.599 113.735 182.874 113.034 187.859L90.8546 200.664V189.974L69.9748 217.929L90.8546 221.964V211.264L113.008 198.474C113.726 202.679 115.363 206.114 117.797 208.529L102.122 235.009L95.2973 231.399L90.8027 261.744L115.701 242.219L108.885 238.594L124.543 212.174C128.016 212.909 132.008 212.444 136.217 210.804V235.404L126.578 240.969L141.084 255.764L155.408 224.324L145.778 229.884V205.314C149.952 202.094 153.919 197.974 157.365 193.254L173.11 201.524L166.32 213.034L191.348 203.504L186.646 178.619L179.856 190.119L164.146 181.849C166.597 176.584 168.234 171.239 168.953 166.174L191.132 153.369V164.069L212.012 135.924L191.132 132.079V142.769L168.979 155.559C168.243 151.304 166.571 147.839 164.077 145.429L179.743 118.974L186.55 122.594L191.175 92.3036L166.164 111.764L172.98 115.389L157.305 141.839C153.858 141.159 149.926 141.629 145.778 143.244V118.634L155.408 113.074L141.084 98.1836ZM62.5876 124.544L214.54 36.8136C217.814 34.9236 220.369 36.2886 220.369 39.9186V276.349C220.369 279.969 217.814 284.284 214.54 286.174L62.5876 373.904C59.314 375.794 56.7592 374.429 56.7592 370.809V134.379C56.7592 130.749 59.314 126.434 62.5876 124.544ZM62.5876 119.224C56.7419 122.599 51.9614 130.659 51.9614 137.149V373.579C51.9614 380.059 56.7419 382.599 62.5876 379.224L214.54 291.494C220.386 288.119 225.167 280.059 225.167 273.579V37.1486C225.167 30.6586 220.386 28.1186 214.54 31.4936L62.5876 119.224ZM157.582 275.159L170.745 267.559V272.689L181.32 259.814L170.745 258.909V264.039L157.582 271.639V275.159ZM185.303 259.134L198.458 251.539V256.669L209.032 243.784L198.458 242.879V248.009L185.303 255.604V259.134ZM183.234 271.739L193.825 274.284L191.08 280.009L203.213 274.514L198.45 264.654L195.704 270.359L185.121 267.809L183.234 271.739ZM183.234 243.929L193.825 229.154L191.08 226.609L203.213 218.094L198.45 233.454L195.704 230.899L185.121 245.679L183.234 243.929Z" fill="#8BC5E4"/>
<path fill-rule="evenodd" clip-rule="evenodd" d="M62.5876 124.544L214.54 36.8136C217.814 34.9236 220.369 36.2886 220.369 39.9186V276.349C220.369 279.969 217.814 284.284 214.54 286.174L62.5876 373.904C59.314 375.794 56.7592 374.429 56.7592 370.809V134.379C56.7592 130.749 59.314 126.434 62.5876 124.544ZM126.578 129.719L141.084 98.1836L155.408 113.074L145.778 118.634V143.244C149.926 141.629 153.858 141.159 157.305 141.839L172.98 115.389L166.164 111.764L191.175 92.3036L186.55 122.594L179.743 118.974L164.077 145.429C166.571 147.839 168.243 151.304 168.979 155.559L191.132 142.769V132.079L212.012 135.924L191.132 164.069V153.369L168.953 166.174C168.234 171.239 166.597 176.584 164.146 181.849L179.856 190.119L186.646 178.619L191.348 203.504L166.32 213.034L173.11 201.524L157.365 193.254C153.919 197.974 149.952 202.094 145.778 205.314V229.884L155.408 224.324L141.084 255.764L126.578 240.969L136.217 235.404V210.804C132.008 212.444 128.016 212.909 124.543 212.174L108.885 238.594L115.701 242.219L90.8027 261.744L95.2973 231.399L102.122 235.009L117.797 208.529C115.363 206.114 113.726 202.679 113.008 198.474L90.8546 211.264V221.964L69.9748 217.929L90.8546 189.974V200.664L113.034 187.859C113.735 182.874 115.337 177.599 117.727 172.409L102 164.139L95.2107 175.639L90.6295 150.544L115.536 141.234L108.747 152.724L124.465 160.989C127.964 156.179 131.982 151.989 136.217 148.734V124.154L126.578 129.719ZM170.745 267.559L157.582 275.159V271.639L170.745 264.039V258.909L181.32 259.814L170.745 272.689V267.559ZM198.458 251.539L185.303 259.134V255.604L198.458 248.009V242.879L209.032 243.784L198.458 256.669V251.539ZM193.825 274.284L183.234 271.739L185.121 267.809L195.704 270.359L198.45 264.654L203.213 274.514L191.08 280.009L193.825 274.284ZM193.825 229.154L183.234 243.929L185.121 245.679L195.704 230.899L198.45 233.454L203.213 218.094L191.08 226.609L193.825 229.154Z" fill="white"/>
</svg>
