<svg width="226" height="386" viewBox="0 0 226 386" fill="none" xmlns="http://www.w3.org/2000/svg">
<path d="M143.873 316.594L151.684 332.854L203.646 302.854L195.834 286.594L143.873 316.594Z" fill="#8BC5E4"/>
<path d="M151.684 332.854L155.408 331.974L207.37 301.974L203.646 302.854L151.684 332.854Z" fill="#8BC5E4"/>
<path d="M155.408 331.974L156.777 346.224L208.738 316.224L207.37 301.974L155.408 331.974Z" fill="#8BC5E4"/>
<path d="M156.777 346.224L145.406 334.379L197.367 304.379L208.738 316.224L156.777 346.224Z" fill="#8BC5E4"/>
<path d="M145.406 334.379L149.138 333.484L201.1 303.484L197.367 304.379L145.406 334.379Z" fill="#8BC5E4"/>
<path d="M149.138 333.484L141.327 317.224L193.288 287.224L201.1 303.484L149.138 333.484Z" fill="#8BC5E4"/>
<path d="M141.327 317.224L143.873 316.594L195.834 286.594L193.288 287.224L141.327 317.224Z" fill="#8BC5E4"/>
<path d="M143.873 316.594L195.834 286.594L143.873 316.594Z" fill="#8BC5E4"/>
<path d="M118.819 302.129L111.007 309.369L162.969 279.369L170.78 272.129L118.819 302.129Z" fill="#8BC5E4"/>
<path d="M111.007 309.369L107.283 304.189L159.245 274.189L162.969 279.369L111.007 309.369Z" fill="#8BC5E4"/>
<path d="M107.283 304.189L105.924 316.864L157.885 286.864L159.245 274.189L107.283 304.189Z" fill="#8BC5E4"/>
<path d="M105.924 316.864L117.286 318.144L169.247 288.144L157.885 286.864L105.924 316.864Z" fill="#8BC5E4"/>
<path d="M117.286 318.144L113.562 312.944L165.524 282.944L169.247 288.144L117.286 318.144Z" fill="#8BC5E4"/>
<path d="M113.562 312.944L121.365 305.699L173.326 275.699L165.524 282.944L113.562 312.944Z" fill="#8BC5E4"/>
<path d="M121.365 305.699L118.819 302.129L170.78 272.129L173.326 275.699L121.365 305.699Z" fill="#8BC5E4"/>
<path d="M118.819 302.129L170.78 272.129L118.819 302.129Z" fill="#8BC5E4"/>
<path d="M129.107 310.369V324.969L181.069 294.969V280.369L129.107 310.369Z" fill="#8BC5E4"/>
<path d="M129.107 324.969L124.482 322.299L176.444 292.299L181.069 294.969L129.107 324.969Z" fill="#8BC5E4"/>
<path d="M124.482 322.299L130.579 337.549L182.541 307.549L176.444 292.299L124.482 322.299Z" fill="#8BC5E4"/>
<path d="M130.579 337.549L136.901 329.469L188.863 299.469L182.541 307.549L130.579 337.549Z" fill="#8BC5E4"/>
<path d="M136.901 329.469L132.277 326.799L184.238 296.799L188.863 299.469L136.901 329.469Z" fill="#8BC5E4"/>
<path d="M132.277 326.799V312.199L184.238 282.199V296.799L132.277 326.799Z" fill="#8BC5E4"/>
<path d="M132.277 312.199L129.107 310.369L181.069 280.369L184.238 282.199L132.277 312.199Z" fill="#8BC5E4"/>
<path d="M129.107 310.369L181.069 280.369L129.107 310.369Z" fill="#8BC5E4"/>
<path d="M129.081 279.614V294.214L181.043 264.214V249.614L129.081 279.614Z" fill="#8BC5E4"/>
<path d="M129.081 294.214L124.448 291.539L176.409 261.539L181.043 264.214L129.081 294.214Z" fill="#8BC5E4"/>
<path d="M124.448 291.539L130.562 306.799L182.523 276.799L176.409 261.539L124.448 291.539Z" fill="#8BC5E4"/>
<path d="M130.562 306.799L136.884 298.719L188.846 268.719L182.524 276.799L130.562 306.799Z" fill="#8BC5E4"/>
<path d="M136.884 298.719L132.259 296.049L184.221 266.049L188.845 268.719L136.884 298.719Z" fill="#8BC5E4"/>
<path d="M132.259 296.049V281.449L184.221 251.449V266.049L132.259 296.049Z" fill="#8BC5E4"/>
<path d="M132.259 281.449L129.081 279.614L181.043 249.614L184.221 251.449L132.259 281.449Z" fill="#8BC5E4"/>
<path d="M129.081 279.614L181.043 249.614L129.081 279.614Z" fill="#8BC5E4"/>
<path d="M46.8001 231.229L41.4048 236.744L93.3663 206.744L98.7616 201.229L46.8001 231.229Z" fill="#8BC5E4"/>
<path d="M41.4048 236.744L44.9901 238.814L96.9516 208.814L93.3663 206.744L41.4048 236.744Z" fill="#8BC5E4"/>
<path d="M44.99 238.814V247.964L96.9515 217.964V208.814L44.99 238.814Z" fill="#8BC5E4"/>
<path d="M40.6165 247.479L34.7622 237.649L86.7237 207.649L92.578 217.479L40.6165 247.479Z" fill="#8BC5E4"/>
<path d="M34.7622 237.649L37.291 236.279L89.2525 206.279L86.7237 207.649L34.7622 237.649Z" fill="#8BC5E4"/>
<path d="M37.2911 236.279L28.0159 229.044L79.9774 199.044L89.2526 206.279L37.2911 236.279Z" fill="#8BC5E4"/>
<path d="M28.0159 229.044L29.7307 240.364L81.6922 210.364L79.9774 199.044L28.0159 229.044Z" fill="#8BC5E4"/>
<path d="M29.7307 240.364L32.2594 238.994L84.221 208.994L81.6922 210.364L29.7307 240.364Z" fill="#8BC5E4"/>
<path d="M32.2593 238.994L38.105 248.829L90.0665 218.829L84.2209 208.994L32.2593 238.994Z" fill="#8BC5E4"/>
<path d="M36.3557 252.569L28.1025 247.804L80.064 217.804L88.3173 222.569L36.3557 252.569Z" fill="#8BC5E4"/>
<path d="M28.1025 247.804V243.824L80.064 213.824V217.804L28.1025 247.804Z" fill="#8BC5E4"/>
<path d="M28.1026 243.824L20.3257 245.254L72.2872 215.254L80.0641 213.824L28.1026 243.824Z" fill="#8BC5E4"/>
<path d="M20.3257 245.254L28.1026 255.734L80.0641 225.734L72.2872 215.254L20.3257 245.254Z" fill="#8BC5E4"/>
<path d="M28.1025 255.734V251.754L80.064 221.754V225.734L28.1025 255.734Z" fill="#8BC5E4"/>
<path d="M28.1025 251.754L36.3471 256.514L88.3086 226.514L80.064 221.754L28.1025 251.754Z" fill="#8BC5E4"/>
<path d="M38.1312 262.314L32.2942 265.434L84.2557 235.434L90.0927 232.314L38.1312 262.314Z" fill="#8BC5E4"/>
<path d="M32.2941 265.434L29.7566 261.159L81.7182 231.159L84.2556 235.434L32.2941 265.434Z" fill="#8BC5E4"/>
<path d="M29.7566 261.159L28.0852 270.534L80.0467 240.534L81.7182 231.159L29.7566 261.159Z" fill="#8BC5E4"/>
<path d="M28.0852 270.534L37.3517 273.964L89.3132 243.964L80.0467 240.534L28.0852 270.534Z" fill="#8BC5E4"/>
<path d="M37.3517 273.964L34.8142 269.679L86.7757 239.679L89.3132 243.964L37.3517 273.964Z" fill="#8BC5E4"/>
<path d="M34.8142 269.679L40.6426 266.574L92.6041 236.574L86.7757 239.679L34.8142 269.679Z" fill="#8BC5E4"/>
<path d="M44.99 271.074V280.244L96.9515 250.244V241.074L44.99 271.074Z" fill="#8BC5E4"/>
<path d="M44.9901 280.244L41.4048 278.174L93.3663 248.174L96.9516 250.244L44.9901 280.244Z" fill="#8BC5E4"/>
<path d="M41.4048 278.174L46.8001 289.909L98.7616 259.909L93.3663 248.174L41.4048 278.174Z" fill="#8BC5E4"/>
<path d="M46.8 289.909L52.1347 284.369L104.096 254.369L98.7615 259.909L46.8 289.909Z" fill="#8BC5E4"/>
<path d="M52.1348 284.369L48.5581 282.304L100.52 252.304L104.096 254.369L52.1348 284.369Z" fill="#8BC5E4"/>
<path d="M48.5581 282.304V273.144L100.52 243.144V252.304L48.5581 282.304Z" fill="#8BC5E4"/>
<path d="M52.8708 273.644L58.7337 283.499L110.695 253.499L104.832 243.644L52.8708 273.644Z" fill="#8BC5E4"/>
<path d="M58.7337 283.499L56.1963 284.854L108.158 254.854L110.695 253.499L58.7337 283.499Z" fill="#8BC5E4"/>
<path d="M56.1963 284.854L65.5234 292.069L117.485 262.069L108.158 254.854L56.1963 284.854Z" fill="#8BC5E4"/>
<path d="M65.5236 292.069L63.7742 280.789L115.736 250.789L117.485 262.069L65.5236 292.069Z" fill="#8BC5E4"/>
<path d="M63.7742 280.789L61.2454 282.139L113.207 252.139L115.736 250.789L63.7742 280.789Z" fill="#8BC5E4"/>
<path d="M61.2454 282.139L55.3911 272.309L107.353 242.309L113.207 252.139L61.2454 282.139Z" fill="#8BC5E4"/>
<path d="M57.175 268.539L65.4369 273.309L117.398 243.309L109.137 238.539L57.175 268.539Z" fill="#8BC5E4"/>
<path d="M65.437 273.309V277.289L117.399 247.289V243.309L65.437 273.309Z" fill="#8BC5E4"/>
<path d="M65.437 277.289L73.2226 275.794L125.184 245.794L117.399 247.289L65.437 277.289Z" fill="#8BC5E4"/>
<path d="M73.2226 275.794L65.437 265.379L117.399 235.379L125.184 245.794L73.2226 275.794Z" fill="#8BC5E4"/>
<path d="M65.437 265.379V269.359L117.399 239.359V235.379L65.437 265.379Z" fill="#8BC5E4"/>
<path d="M65.4368 269.359L57.2009 264.604L109.162 234.604L117.398 239.359L65.4368 269.359Z" fill="#8BC5E4"/>
<path d="M55.365 258.714L61.202 255.604L113.163 225.604L107.326 228.714L55.365 258.714Z" fill="#8BC5E4"/>
<path d="M61.2019 255.604L63.7394 259.879L115.701 229.879L113.163 225.604L61.2019 255.604Z" fill="#8BC5E4"/>
<path d="M63.7395 259.879L65.4629 250.594L117.424 220.594L115.701 229.879L63.7395 259.879Z" fill="#8BC5E4"/>
<path d="M65.4628 250.594L56.1443 247.084L108.106 217.084L117.424 220.594L65.4628 250.594Z" fill="#8BC5E4"/>
<path d="M56.1443 247.084L58.6818 251.349L110.643 221.349L108.106 217.084L56.1443 247.084Z" fill="#8BC5E4"/>
<path d="M58.682 251.349L52.845 254.469L104.806 224.469L110.643 221.349L58.682 251.349Z" fill="#8BC5E4"/>
<path d="M48.5581 250.034V240.874L100.52 210.874V220.034L48.5581 250.034Z" fill="#8BC5E4"/>
<path d="M48.5581 240.874L52.1348 242.939L104.096 212.939L100.52 210.874L48.5581 240.874Z" fill="#8BC5E4"/>
<path d="M52.1347 242.939L46.8 231.229L98.7615 201.229L104.096 212.939L52.1347 242.939Z" fill="#8BC5E4"/>
<path d="M46.8 231.229L98.7615 201.229L46.8 231.229Z" fill="#8BC5E4"/>
<path d="M10.6262 36.8137L162.579 124.544L214.541 94.5437L62.5878 6.81372L10.6262 36.8137Z" fill="#8BC5E4"/>
<path d="M168.407 134.379V370.809L220.369 340.809V104.379L168.407 134.379Z" fill="#8BC5E4"/>
<path d="M162.579 373.904L10.6262 286.174L62.5878 256.174L214.541 343.904L162.579 373.904Z" fill="#8BC5E4"/>
<path d="M4.79785 276.349V39.9188L56.7593 9.91882V246.349L4.79785 276.349Z" fill="#8BC5E4"/>
<path d="M10.6262 36.8137L62.5878 6.81372L10.6262 36.8137Z" fill="#8BC5E4"/>
<path d="M0 37.1488V273.579L51.9615 243.579V7.1488L0 37.1488Z" fill="#8BC5E4"/>
<path d="M10.6262 291.494L162.579 379.224L214.541 349.224L62.5878 261.494L10.6262 291.494Z" fill="#8BC5E4"/>
<path d="M173.205 373.579V137.149L225.167 107.149V343.579L173.205 373.579Z" fill="#8BC5E4"/>
<path d="M162.579 119.224L10.6262 31.4937L62.5878 1.49365L214.541 89.2237L162.579 119.224Z" fill="#8BC5E4"/>
<path d="M10.6262 31.4937L62.5878 1.49365L10.6262 31.4937Z" fill="#8BC5E4"/>
<path d="M89.1226 101.094L74.6167 115.879L126.578 85.8787L141.084 71.0938L89.1226 101.094Z" fill="#8BC5E4"/>
<path d="M74.6167 115.879L84.2555 121.444L136.217 91.4438L126.578 85.8788L74.6167 115.879Z" fill="#8BC5E4"/>
<path d="M84.2556 121.444V146.024L136.217 116.024V91.4437L84.2556 121.444Z" fill="#8BC5E4"/>
<path d="M72.5037 144.709L56.7854 118.294L108.747 88.2938L124.465 114.709L72.5037 144.709Z" fill="#8BC5E4"/>
<path d="M56.7854 118.294L63.575 114.644L115.537 84.6438L108.747 88.2938L56.7854 118.294Z" fill="#8BC5E4"/>
<path d="M63.5749 114.644L38.668 95.1937L90.6296 65.1937L115.536 84.6437L63.5749 114.644Z" fill="#8BC5E4"/>
<path d="M38.668 95.1937L43.2493 125.579L95.2108 95.5787L90.6296 65.1937L38.668 95.1937Z" fill="#8BC5E4"/>
<path d="M43.2493 125.579L50.0389 121.919L102 91.9188L95.2108 95.5788L43.2493 125.579Z" fill="#8BC5E4"/>
<path d="M50.0388 121.919L65.7659 148.349L117.727 118.349L102 91.9188L50.0388 121.919Z" fill="#8BC5E4"/>
<path d="M61.0722 158.379L38.8933 145.574L90.8548 115.574L113.034 128.379L61.0722 158.379Z" fill="#8BC5E4"/>
<path d="M38.8933 145.574V134.884L90.8548 104.884V115.574L38.8933 145.574Z" fill="#8BC5E4"/>
<path d="M38.8931 134.884L18.0132 138.729L69.9748 108.729L90.8546 104.884L38.8931 134.884Z" fill="#8BC5E4"/>
<path d="M18.0132 138.729L38.8931 166.874L90.8546 136.874L69.9748 108.729L18.0132 138.729Z" fill="#8BC5E4"/>
<path d="M38.8933 166.874V156.174L90.8548 126.174V136.874L38.8933 166.874Z" fill="#8BC5E4"/>
<path d="M38.8933 156.174L61.0462 168.964L113.008 138.964L90.8548 126.174L38.8933 156.174Z" fill="#8BC5E4"/>
<path d="M65.8352 184.549L50.1602 192.929L102.122 162.929L117.797 154.549L65.8352 184.549Z" fill="#8BC5E4"/>
<path d="M50.1602 192.929L43.3359 181.439L95.2974 151.439L102.122 162.929L50.1602 192.929Z" fill="#8BC5E4"/>
<path d="M43.336 181.439L38.8413 206.594L90.8029 176.594L95.2975 151.439L43.336 181.439Z" fill="#8BC5E4"/>
<path d="M38.8413 206.594L63.7396 215.819L115.701 185.819L90.8029 176.594L38.8413 206.594Z" fill="#8BC5E4"/>
<path d="M63.7394 215.819L56.9238 204.324L108.885 174.324L115.701 185.819L63.7394 215.819Z" fill="#8BC5E4"/>
<path d="M56.9238 204.324L72.5815 195.984L124.543 165.984L108.885 174.324L56.9238 204.324Z" fill="#8BC5E4"/>
<path d="M84.2556 208.094V232.694L136.217 202.694V178.094L84.2556 208.094Z" fill="#8BC5E4"/>
<path d="M84.2555 232.694L74.6167 227.129L126.578 197.129L136.217 202.694L84.2555 232.694Z" fill="#8BC5E4"/>
<path d="M74.6167 227.129L89.1226 258.674L141.084 228.674L126.578 197.129L74.6167 227.129Z" fill="#8BC5E4"/>
<path d="M89.1228 258.674L103.447 243.774L155.408 213.774L141.084 228.674L89.1228 258.674Z" fill="#8BC5E4"/>
<path d="M103.447 243.774L93.8164 238.214L145.778 208.214L155.408 213.774L103.447 243.774Z" fill="#8BC5E4"/>
<path d="M93.8164 238.214V213.644L145.778 183.644V208.214L93.8164 238.214Z" fill="#8BC5E4"/>
<path d="M105.404 214.964L121.148 241.414L173.11 211.414L157.366 184.964L105.404 214.964Z" fill="#8BC5E4"/>
<path d="M121.148 241.414L114.359 245.084L166.32 215.084L173.11 211.414L121.148 241.414Z" fill="#8BC5E4"/>
<path d="M114.359 245.084L139.387 264.454L191.348 234.454L166.32 215.084L114.359 245.084Z" fill="#8BC5E4"/>
<path d="M139.387 264.454L134.684 234.139L186.646 204.139L191.348 234.454L139.387 264.454Z" fill="#8BC5E4"/>
<path d="M134.684 234.139L127.895 237.799L179.856 207.799L186.646 204.139L134.684 234.139Z" fill="#8BC5E4"/>
<path d="M127.895 237.799L112.185 211.389L164.146 181.389L179.856 207.799L127.895 237.799Z" fill="#8BC5E4"/>
<path d="M116.991 201.264L139.17 214.069L191.132 184.069L168.953 171.264L116.991 201.264Z" fill="#8BC5E4"/>
<path d="M139.17 214.069V224.769L191.132 194.769V184.069L139.17 214.069Z" fill="#8BC5E4"/>
<path d="M139.17 224.769L160.05 220.734L212.012 190.734L191.132 194.769L139.17 224.769Z" fill="#8BC5E4"/>
<path d="M160.05 220.734L139.17 192.779L191.132 162.779L212.012 190.734L160.05 220.734Z" fill="#8BC5E4"/>
<path d="M139.17 192.779V203.469L191.132 173.469V162.779L139.17 192.779Z" fill="#8BC5E4"/>
<path d="M139.17 203.469L117.017 190.679L168.979 160.679L191.132 173.469L139.17 203.469Z" fill="#8BC5E4"/>
<path d="M112.116 174.889L127.782 166.524L179.744 136.524L164.077 144.889L112.116 174.889Z" fill="#8BC5E4"/>
<path d="M127.782 166.524L134.589 178.004L186.55 148.004L179.743 136.524L127.782 166.524Z" fill="#8BC5E4"/>
<path d="M134.589 178.004L139.214 153.054L191.175 123.054L186.551 148.004L134.589 178.004Z" fill="#8BC5E4"/>
<path d="M139.214 153.054L114.203 143.634L166.164 113.634L191.175 123.054L139.214 153.054Z" fill="#8BC5E4"/>
<path d="M114.203 143.634L121.018 155.129L172.98 125.129L166.164 113.634L114.203 143.634Z" fill="#8BC5E4"/>
<path d="M121.018 155.129L105.343 163.479L157.305 133.479L172.98 125.129L121.018 155.129Z" fill="#8BC5E4"/>
<path d="M93.8164 151.574V126.964L145.778 96.9637V121.574L93.8164 151.574Z" fill="#8BC5E4"/>
<path d="M93.8164 126.964L103.447 132.524L155.408 102.524L145.778 96.9637L93.8164 126.964Z" fill="#8BC5E4"/>
<path d="M103.447 132.524L89.1228 101.094L141.084 71.0938L155.408 102.524L103.447 132.524Z" fill="#8BC5E4"/>
<path d="M89.1228 101.094L141.084 71.0938L89.1228 101.094Z" fill="#8BC5E4"/>
<path d="M10.6262 36.8137L162.579 124.544L214.541 94.5437L62.5878 6.81372L10.6262 36.8137Z" fill="#8BC5E4"/>
<path d="M168.407 134.379V370.809L220.369 340.809V104.379L168.407 134.379Z" fill="#8BC5E4"/>
<path d="M162.579 373.904L10.6262 286.174L62.5878 256.174L214.541 343.904L162.579 373.904Z" fill="#8BC5E4"/>
<path d="M4.79785 276.349V39.9188L56.7593 9.91882V246.349L4.79785 276.349Z" fill="#8BC5E4"/>
<path d="M10.6262 36.8137L62.5878 6.81372L10.6262 36.8137Z" fill="#8BC5E4"/>
<path d="M151.684 332.854L143.873 316.594L195.834 286.594L203.646 302.854L151.684 332.854Z" fill="#8BC5E4"/>
<path d="M143.873 316.594L141.327 317.224L193.288 287.224L195.834 286.594L143.873 316.594Z" fill="#8BC5E4"/>
<path d="M141.327 317.224L149.138 333.484L201.1 303.484L193.288 287.224L141.327 317.224Z" fill="#8BC5E4"/>
<path d="M149.138 333.484L145.406 334.379L197.367 304.379L201.1 303.484L149.138 333.484Z" fill="#8BC5E4"/>
<path d="M145.406 334.379L156.777 346.224L208.738 316.224L197.367 304.379L145.406 334.379Z" fill="#8BC5E4"/>
<path d="M156.777 346.224L155.408 331.974L207.37 301.974L208.738 316.224L156.777 346.224Z" fill="#8BC5E4"/>
<path d="M155.408 331.974L151.684 332.854L203.646 302.854L207.37 301.974L155.408 331.974Z" fill="#8BC5E4"/>
<path d="M151.684 332.854L203.646 302.854L151.684 332.854Z" fill="#8BC5E4"/>
<path d="M111.007 309.369L118.819 302.129L170.78 272.129L162.969 279.369L111.007 309.369Z" fill="#8BC5E4"/>
<path d="M118.819 302.129L121.365 305.699L173.326 275.699L170.78 272.129L118.819 302.129Z" fill="#8BC5E4"/>
<path d="M121.365 305.699L113.562 312.944L165.524 282.944L173.326 275.699L121.365 305.699Z" fill="#8BC5E4"/>
<path d="M113.562 312.944L117.286 318.144L169.247 288.144L165.524 282.944L113.562 312.944Z" fill="#8BC5E4"/>
<path d="M117.286 318.144L105.924 316.864L157.885 286.864L169.247 288.144L117.286 318.144Z" fill="#8BC5E4"/>
<path d="M105.924 316.864L107.283 304.189L159.245 274.189L157.885 286.864L105.924 316.864Z" fill="#8BC5E4"/>
<path d="M107.283 304.189L111.007 309.369L162.969 279.369L159.245 274.189L107.283 304.189Z" fill="#8BC5E4"/>
<path d="M111.007 309.369L162.969 279.369L111.007 309.369Z" fill="#8BC5E4"/>
<path d="M129.107 324.969V310.369L181.069 280.369V294.969L129.107 324.969Z" fill="#8BC5E4"/>
<path d="M129.107 310.369L132.277 312.199L184.238 282.199L181.069 280.369L129.107 310.369Z" fill="#8BC5E4"/>
<path d="M132.277 312.199V326.799L184.238 296.799V282.199L132.277 312.199Z" fill="#8BC5E4"/>
<path d="M132.277 326.799L136.901 329.469L188.863 299.469L184.238 296.799L132.277 326.799Z" fill="#8BC5E4"/>
<path d="M136.901 329.469L130.579 337.549L182.541 307.549L188.863 299.469L136.901 329.469Z" fill="#8BC5E4"/>
<path d="M130.579 337.549L124.482 322.299L176.444 292.299L182.541 307.549L130.579 337.549Z" fill="#8BC5E4"/>
<path d="M124.482 322.299L129.107 324.969L181.069 294.969L176.444 292.299L124.482 322.299Z" fill="#8BC5E4"/>
<path d="M129.107 324.969L181.069 294.969L129.107 324.969Z" fill="#8BC5E4"/>
<path d="M129.081 294.214V279.614L181.043 249.614V264.214L129.081 294.214Z" fill="#8BC5E4"/>
<path d="M129.081 279.614L132.259 281.449L184.221 251.449L181.043 249.614L129.081 279.614Z" fill="#8BC5E4"/>
<path d="M132.259 281.449V296.049L184.221 266.049V251.449L132.259 281.449Z" fill="#8BC5E4"/>
<path d="M132.259 296.049L136.884 298.719L188.845 268.719L184.221 266.049L132.259 296.049Z" fill="#8BC5E4"/>
<path d="M136.884 298.719L130.562 306.799L182.524 276.799L188.846 268.719L136.884 298.719Z" fill="#8BC5E4"/>
<path d="M130.562 306.799L124.448 291.539L176.409 261.539L182.523 276.799L130.562 306.799Z" fill="#8BC5E4"/>
<path d="M124.448 291.539L129.081 294.214L181.043 264.214L176.409 261.539L124.448 291.539Z" fill="#8BC5E4"/>
<path d="M129.081 294.214L181.043 264.214L129.081 294.214Z" fill="#8BC5E4"/>
<path d="M41.4048 236.744L46.8001 231.229L98.7616 201.229L93.3663 206.744L41.4048 236.744Z" fill="#8BC5E4"/>
<path d="M46.8 231.229L52.1347 242.939L104.096 212.939L98.7615 201.229L46.8 231.229Z" fill="#8BC5E4"/>
<path d="M52.1348 242.939L48.5581 240.874L100.52 210.874L104.096 212.939L52.1348 242.939Z" fill="#8BC5E4"/>
<path d="M48.5581 240.874V250.034L100.52 220.034V210.874L48.5581 240.874Z" fill="#8BC5E4"/>
<path d="M52.845 254.469L58.682 251.349L110.643 221.349L104.806 224.469L52.845 254.469Z" fill="#8BC5E4"/>
<path d="M58.6818 251.349L56.1443 247.084L108.106 217.084L110.643 221.349L58.6818 251.349Z" fill="#8BC5E4"/>
<path d="M56.1443 247.084L65.4628 250.594L117.424 220.594L108.106 217.084L56.1443 247.084Z" fill="#8BC5E4"/>
<path d="M65.4629 250.594L63.7395 259.879L115.701 229.879L117.424 220.594L65.4629 250.594Z" fill="#8BC5E4"/>
<path d="M63.7394 259.879L61.2019 255.604L113.163 225.604L115.701 229.879L63.7394 259.879Z" fill="#8BC5E4"/>
<path d="M61.202 255.604L55.365 258.714L107.326 228.714L113.163 225.604L61.202 255.604Z" fill="#8BC5E4"/>
<path d="M57.2009 264.604L65.4368 269.359L117.398 239.359L109.162 234.604L57.2009 264.604Z" fill="#8BC5E4"/>
<path d="M65.437 269.359V265.379L117.399 235.379V239.359L65.437 269.359Z" fill="#8BC5E4"/>
<path d="M65.437 265.379L73.2226 275.794L125.184 245.794L117.399 235.379L65.437 265.379Z" fill="#8BC5E4"/>
<path d="M73.2226 275.794L65.437 277.289L117.399 247.289L125.184 245.794L73.2226 275.794Z" fill="#8BC5E4"/>
<path d="M65.437 277.289V273.309L117.399 243.309V247.289L65.437 277.289Z" fill="#8BC5E4"/>
<path d="M65.4369 273.309L57.175 268.539L109.137 238.539L117.398 243.309L65.4369 273.309Z" fill="#8BC5E4"/>
<path d="M55.3911 272.309L61.2454 282.139L113.207 252.139L107.353 242.309L55.3911 272.309Z" fill="#8BC5E4"/>
<path d="M61.2454 282.139L63.7742 280.789L115.736 250.789L113.207 252.139L61.2454 282.139Z" fill="#8BC5E4"/>
<path d="M63.7742 280.789L65.5236 292.069L117.485 262.069L115.736 250.789L63.7742 280.789Z" fill="#8BC5E4"/>
<path d="M65.5234 292.069L56.1963 284.854L108.158 254.854L117.485 262.069L65.5234 292.069Z" fill="#8BC5E4"/>
<path d="M56.1963 284.854L58.7337 283.499L110.695 253.499L108.158 254.854L56.1963 284.854Z" fill="#8BC5E4"/>
<path d="M58.7337 283.499L52.8708 273.644L104.832 243.644L110.695 253.499L58.7337 283.499Z" fill="#8BC5E4"/>
<path d="M48.5581 273.144V282.304L100.52 252.304V243.144L48.5581 273.144Z" fill="#8BC5E4"/>
<path d="M48.5581 282.304L52.1348 284.369L104.096 254.369L100.52 252.304L48.5581 282.304Z" fill="#8BC5E4"/>
<path d="M52.1347 284.369L46.8 289.909L98.7615 259.909L104.096 254.369L52.1347 284.369Z" fill="#8BC5E4"/>
<path d="M46.8001 289.909L41.4048 278.174L93.3663 248.174L98.7616 259.909L46.8001 289.909Z" fill="#8BC5E4"/>
<path d="M41.4048 278.174L44.9901 280.244L96.9516 250.244L93.3663 248.174L41.4048 278.174Z" fill="#8BC5E4"/>
<path d="M44.99 280.244V271.074L96.9515 241.074V250.244L44.99 280.244Z" fill="#8BC5E4"/>
<path d="M40.6426 266.574L34.8142 269.679L86.7757 239.679L92.6041 236.574L40.6426 266.574Z" fill="#8BC5E4"/>
<path d="M34.8142 269.679L37.3517 273.964L89.3132 243.964L86.7757 239.679L34.8142 269.679Z" fill="#8BC5E4"/>
<path d="M37.3517 273.964L28.0852 270.534L80.0467 240.534L89.3132 243.964L37.3517 273.964Z" fill="#8BC5E4"/>
<path d="M28.0852 270.534L29.7566 261.159L81.7182 231.159L80.0467 240.534L28.0852 270.534Z" fill="#8BC5E4"/>
<path d="M29.7566 261.159L32.2941 265.434L84.2556 235.434L81.7182 231.159L29.7566 261.159Z" fill="#8BC5E4"/>
<path d="M32.2942 265.434L38.1312 262.314L90.0927 232.314L84.2557 235.434L32.2942 265.434Z" fill="#8BC5E4"/>
<path d="M36.3471 256.514L28.1025 251.754L80.064 221.754L88.3086 226.514L36.3471 256.514Z" fill="#8BC5E4"/>
<path d="M28.1025 251.754V255.734L80.064 225.734V221.754L28.1025 251.754Z" fill="#8BC5E4"/>
<path d="M28.1026 255.734L20.3257 245.254L72.2872 215.254L80.0641 225.734L28.1026 255.734Z" fill="#8BC5E4"/>
<path d="M20.3257 245.254L28.1026 243.824L80.0641 213.824L72.2872 215.254L20.3257 245.254Z" fill="#8BC5E4"/>
<path d="M28.1025 243.824V247.804L80.064 217.804V213.824L28.1025 243.824Z" fill="#8BC5E4"/>
<path d="M28.1025 247.804L36.3557 252.569L88.3173 222.569L80.064 217.804L28.1025 247.804Z" fill="#8BC5E4"/>
<path d="M38.105 248.829L32.2593 238.994L84.2209 208.994L90.0665 218.829L38.105 248.829Z" fill="#8BC5E4"/>
<path d="M32.2594 238.994L29.7307 240.364L81.6922 210.364L84.221 208.994L32.2594 238.994Z" fill="#8BC5E4"/>
<path d="M29.7307 240.364L28.0159 229.044L79.9774 199.044L81.6922 210.364L29.7307 240.364Z" fill="#8BC5E4"/>
<path d="M28.0159 229.044L37.2911 236.279L89.2526 206.279L79.9774 199.044L28.0159 229.044Z" fill="#8BC5E4"/>
<path d="M37.291 236.279L34.7622 237.649L86.7237 207.649L89.2525 206.279L37.291 236.279Z" fill="#8BC5E4"/>
<path d="M34.7622 237.649L40.6165 247.479L92.578 217.479L86.7237 207.649L34.7622 237.649Z" fill="#8BC5E4"/>
<path d="M44.99 247.964V238.814L96.9515 208.814V217.964L44.99 247.964Z" fill="#8BC5E4"/>
<path d="M44.9901 238.814L41.4048 236.744L93.3663 206.744L96.9516 208.814L44.9901 238.814Z" fill="#8BC5E4"/>
<path d="M41.4048 236.744L93.3663 206.744L41.4048 236.744Z" fill="#8BC5E4"/>
<path d="M74.6167 115.879L89.1226 101.094L141.084 71.0938L126.578 85.8787L74.6167 115.879Z" fill="#8BC5E4"/>
<path d="M89.1228 101.094L103.447 132.524L155.408 102.524L141.084 71.0938L89.1228 101.094Z" fill="#8BC5E4"/>
<path d="M103.447 132.524L93.8164 126.964L145.778 96.9637L155.408 102.524L103.447 132.524Z" fill="#8BC5E4"/>
<path d="M93.8164 126.964V151.574L145.778 121.574V96.9637L93.8164 126.964Z" fill="#8BC5E4"/>
<path d="M105.343 163.479L121.018 155.129L172.98 125.129L157.305 133.479L105.343 163.479Z" fill="#8BC5E4"/>
<path d="M121.018 155.129L114.203 143.634L166.164 113.634L172.98 125.129L121.018 155.129Z" fill="#8BC5E4"/>
<path d="M114.203 143.634L139.214 153.054L191.175 123.054L166.164 113.634L114.203 143.634Z" fill="#8BC5E4"/>
<path d="M139.214 153.054L134.589 178.004L186.551 148.004L191.175 123.054L139.214 153.054Z" fill="#8BC5E4"/>
<path d="M134.589 178.004L127.782 166.524L179.743 136.524L186.55 148.004L134.589 178.004Z" fill="#8BC5E4"/>
<path d="M127.782 166.524L112.116 174.889L164.077 144.889L179.744 136.524L127.782 166.524Z" fill="#8BC5E4"/>
<path d="M117.017 190.679L139.17 203.469L191.132 173.469L168.979 160.679L117.017 190.679Z" fill="#8BC5E4"/>
<path d="M139.17 203.469V192.779L191.132 162.779V173.469L139.17 203.469Z" fill="#8BC5E4"/>
<path d="M139.17 192.779L160.05 220.734L212.012 190.734L191.132 162.779L139.17 192.779Z" fill="#8BC5E4"/>
<path d="M160.05 220.734L139.17 224.769L191.132 194.769L212.012 190.734L160.05 220.734Z" fill="#8BC5E4"/>
<path d="M139.17 224.769V214.069L191.132 184.069V194.769L139.17 224.769Z" fill="#8BC5E4"/>
<path d="M139.17 214.069L116.991 201.264L168.953 171.264L191.132 184.069L139.17 214.069Z" fill="#8BC5E4"/>
<path d="M112.185 211.389L127.895 237.799L179.856 207.799L164.146 181.389L112.185 211.389Z" fill="#8BC5E4"/>
<path d="M127.895 237.799L134.684 234.139L186.646 204.139L179.856 207.799L127.895 237.799Z" fill="#8BC5E4"/>
<path d="M134.684 234.139L139.387 264.454L191.348 234.454L186.646 204.139L134.684 234.139Z" fill="#8BC5E4"/>
<path d="M139.387 264.454L114.359 245.084L166.32 215.084L191.348 234.454L139.387 264.454Z" fill="#8BC5E4"/>
<path d="M114.359 245.084L121.148 241.414L173.11 211.414L166.32 215.084L114.359 245.084Z" fill="#8BC5E4"/>
<path d="M121.148 241.414L105.404 214.964L157.366 184.964L173.11 211.414L121.148 241.414Z" fill="#8BC5E4"/>
<path d="M93.8164 213.644V238.214L145.778 208.214V183.644L93.8164 213.644Z" fill="#8BC5E4"/>
<path d="M93.8164 238.214L103.447 243.774L155.408 213.774L145.778 208.214L93.8164 238.214Z" fill="#8BC5E4"/>
<path d="M103.447 243.774L89.1228 258.674L141.084 228.674L155.408 213.774L103.447 243.774Z" fill="#8BC5E4"/>
<path d="M89.1226 258.674L74.6167 227.129L126.578 197.129L141.084 228.674L89.1226 258.674Z" fill="#8BC5E4"/>
<path d="M74.6167 227.129L84.2555 232.694L136.217 202.694L126.578 197.129L74.6167 227.129Z" fill="#8BC5E4"/>
<path d="M84.2556 232.694V208.094L136.217 178.094V202.694L84.2556 232.694Z" fill="#8BC5E4"/>
<path d="M72.5815 195.984L56.9238 204.324L108.885 174.324L124.543 165.984L72.5815 195.984Z" fill="#8BC5E4"/>
<path d="M56.9238 204.324L63.7394 215.819L115.701 185.819L108.885 174.324L56.9238 204.324Z" fill="#8BC5E4"/>
<path d="M63.7396 215.819L38.8413 206.594L90.8029 176.594L115.701 185.819L63.7396 215.819Z" fill="#8BC5E4"/>
<path d="M38.8413 206.594L43.336 181.439L95.2975 151.439L90.8029 176.594L38.8413 206.594Z" fill="#8BC5E4"/>
<path d="M43.3359 181.439L50.1602 192.929L102.122 162.929L95.2974 151.439L43.3359 181.439Z" fill="#8BC5E4"/>
<path d="M50.1602 192.929L65.8352 184.549L117.797 154.549L102.122 162.929L50.1602 192.929Z" fill="#8BC5E4"/>
<path d="M61.0462 168.964L38.8933 156.174L90.8548 126.174L113.008 138.964L61.0462 168.964Z" fill="#8BC5E4"/>
<path d="M38.8933 156.174V166.874L90.8548 136.874V126.174L38.8933 156.174Z" fill="#8BC5E4"/>
<path d="M38.8931 166.874L18.0132 138.729L69.9748 108.729L90.8546 136.874L38.8931 166.874Z" fill="#8BC5E4"/>
<path d="M18.0132 138.729L38.8931 134.884L90.8546 104.884L69.9748 108.729L18.0132 138.729Z" fill="#8BC5E4"/>
<path d="M38.8933 134.884V145.574L90.8548 115.574V104.884L38.8933 134.884Z" fill="#8BC5E4"/>
<path d="M38.8933 145.574L61.0722 158.379L113.034 128.379L90.8548 115.574L38.8933 145.574Z" fill="#8BC5E4"/>
<path d="M65.7659 148.349L50.0388 121.919L102 91.9188L117.727 118.349L65.7659 148.349Z" fill="#8BC5E4"/>
<path d="M50.0389 121.919L43.2493 125.579L95.2108 95.5788L102 91.9188L50.0389 121.919Z" fill="#8BC5E4"/>
<path d="M43.2493 125.579L38.668 95.1937L90.6296 65.1937L95.2108 95.5787L43.2493 125.579Z" fill="#8BC5E4"/>
<path d="M38.668 95.1937L63.5749 114.644L115.536 84.6437L90.6296 65.1937L38.668 95.1937Z" fill="#8BC5E4"/>
<path d="M63.575 114.644L56.7854 118.294L108.747 88.2938L115.537 84.6438L63.575 114.644Z" fill="#8BC5E4"/>
<path d="M56.7854 118.294L72.5037 144.709L124.465 114.709L108.747 88.2938L56.7854 118.294Z" fill="#8BC5E4"/>
<path d="M84.2556 146.024V121.444L136.217 91.4437V116.024L84.2556 146.024Z" fill="#8BC5E4"/>
<path d="M84.2555 121.444L74.6167 115.879L126.578 85.8788L136.217 91.4438L84.2555 121.444Z" fill="#8BC5E4"/>
<path d="M74.6167 115.879L126.578 85.8788L74.6167 115.879Z" fill="#8BC5E4"/>
<path d="M44.9901 247.964C43.414 247.364 41.9157 247.199 40.6167 247.479L92.5782 217.479C93.8773 217.199 95.3755 217.364 96.9516 217.964L44.9901 247.964Z" fill="#8BC5E4"/>
<path d="M38.1051 248.829C37.2131 249.734 36.6156 251.009 36.3557 252.569L88.3173 222.569C88.5771 221.009 89.1746 219.734 90.0666 218.829L38.1051 248.829Z" fill="#8BC5E4"/>
<path d="M36.3472 256.514C36.6157 258.389 37.2219 260.369 38.1312 262.314L90.0927 232.314C89.1834 230.369 88.5772 228.389 88.3087 226.514L36.3472 256.514Z" fill="#8BC5E4"/>
<path d="M40.6426 266.574C41.9416 268.344 43.4225 269.879 44.99 271.074L96.9515 241.074C95.384 239.879 93.9031 238.344 92.6041 236.574L40.6426 266.574Z" fill="#8BC5E4"/>
<path d="M48.5581 273.144C50.1083 273.749 51.5806 273.909 52.871 273.644L104.833 243.644C103.542 243.909 102.07 243.749 100.52 243.144L48.5581 273.144Z" fill="#8BC5E4"/>
<path d="M55.3911 272.309C56.3091 271.409 56.9153 270.119 57.1751 268.539L109.137 238.539C108.877 240.119 108.271 241.409 107.353 242.309L55.3911 272.309Z" fill="#8BC5E4"/>
<path d="M57.201 264.604C56.9239 262.704 56.3003 260.694 55.365 258.714L107.326 228.714C108.262 230.694 108.885 232.704 109.162 234.604L57.201 264.604Z" fill="#8BC5E4"/>
<path d="M52.845 254.469C51.5633 252.739 50.0997 251.224 48.5581 250.034L100.52 220.034C102.061 221.224 103.525 222.739 104.807 224.469L52.845 254.469Z" fill="#8BC5E4"/>
<path d="M162.579 124.544C165.852 126.434 168.407 130.749 168.407 134.379L220.369 104.379C220.369 100.749 217.814 96.4338 214.54 94.5438L162.579 124.544Z" fill="#8BC5E4"/>
<path d="M168.407 370.809C168.407 372.577 167.798 373.807 166.794 374.382L218.755 344.382C219.759 343.807 220.368 342.577 220.369 340.809L168.407 370.809Z" fill="#8BC5E4"/>
<path d="M166.795 374.382C165.743 374.986 164.258 374.872 162.584 373.907L214.545 343.907C216.219 344.872 217.704 344.986 218.756 344.382L166.795 374.382Z" fill="#8BC5E4"/>
<path d="M10.6262 286.174C7.35265 284.284 4.79785 279.969 4.79785 276.349L56.7593 246.349C56.7593 249.969 59.3142 254.284 62.5878 256.174L10.6262 286.174Z" fill="#8BC5E4"/>
<path d="M4.79785 39.9188C4.79805 38.1468 5.40705 36.9138 6.41105 36.3368L58.3726 6.33679C57.3685 6.91379 56.7595 8.14679 56.7593 9.91879L4.79785 39.9188Z" fill="#8BC5E4"/>
<path d="M6.40991 36.3378C7.46191 35.7318 8.94691 35.8458 10.6209 36.8108L62.5824 6.81077C60.9084 5.84577 59.4234 5.73177 58.3714 6.33777L6.40991 36.3378Z" fill="#8BC5E4"/>
<path d="M10.6262 31.4938C7.62309 29.7598 4.90209 29.5868 2.96509 30.7088L54.9266 0.708785C56.8636 -0.413215 59.5846 -0.240215 62.5878 1.49378L10.6262 31.4938Z" fill="#8BC5E4"/>
<path d="M2.967 30.7078C1.134 31.7678 0.002 33.9868 0 37.1388L51.9615 7.13876C51.9635 3.98676 53.0955 1.76776 54.9285 0.707764L2.967 30.7078Z" fill="#8BC5E4"/>
<path d="M0 273.579C0 280.059 4.7805 288.119 10.6261 291.494L62.5877 261.494C56.742 258.119 51.9615 250.059 51.9615 243.579L0 273.579Z" fill="#8BC5E4"/>
<path d="M162.579 379.224C165.576 380.954 168.293 381.13 170.229 380.017L222.19 350.017C220.254 351.13 217.537 350.954 214.54 349.224L162.579 379.224Z" fill="#8BC5E4"/>
<path d="M170.238 380.012C172.071 378.953 173.203 376.736 173.205 373.588L225.167 343.588C225.165 346.736 224.033 348.953 222.2 350.012L170.238 380.012Z" fill="#8BC5E4"/>
<path d="M173.205 137.149C173.205 130.659 168.425 122.599 162.579 119.224L214.54 89.2238C220.386 92.5988 225.167 100.659 225.167 107.149L173.205 137.149Z" fill="#8BC5E4"/>
<path d="M84.2557 146.024C80.0208 144.389 76.0025 143.939 72.5037 144.709L124.465 114.709C127.964 113.939 131.982 114.389 136.217 116.024L84.2557 146.024Z" fill="#8BC5E4"/>
<path d="M65.7659 148.349C63.3756 150.779 61.7735 154.204 61.072 158.379L113.034 128.379C113.735 124.204 115.337 120.779 117.727 118.349L65.7659 148.349Z" fill="#8BC5E4"/>
<path d="M61.0461 168.964C61.7649 173.999 63.4017 179.324 65.8352 184.549L117.797 154.549C115.363 149.324 113.727 143.999 113.008 138.964L61.0461 168.964Z" fill="#8BC5E4"/>
<path d="M72.5815 195.984C76.0542 200.729 80.0466 204.874 84.2555 208.094L136.217 178.094C132.008 174.874 128.016 170.729 124.543 165.984L72.5815 195.984Z" fill="#8BC5E4"/>
<path d="M93.8164 213.644C97.9907 215.244 101.957 215.704 105.404 214.964L157.365 184.964C153.919 185.704 149.952 185.244 145.778 183.644L93.8164 213.644Z" fill="#8BC5E4"/>
<path d="M112.185 211.389C114.636 208.954 116.273 205.499 116.991 201.264L168.953 171.264C168.234 175.499 166.597 178.954 164.146 181.389L112.185 211.389Z" fill="#8BC5E4"/>
<path d="M117.017 190.679C116.281 185.574 114.61 180.179 112.116 174.889L164.077 144.889C166.571 150.179 168.243 155.574 168.979 160.679L117.017 190.679Z" fill="#8BC5E4"/>
<path d="M105.343 163.479C101.896 158.819 97.9647 154.749 93.8164 151.574L145.778 121.574C149.926 124.749 153.858 128.819 157.305 133.479L105.343 163.479Z" fill="#8BC5E4"/>
<path d="M162.579 124.544C165.852 126.434 168.407 130.749 168.407 134.379L220.369 104.379C220.369 100.749 217.814 96.4338 214.54 94.5438L162.579 124.544Z" fill="#8BC5E4"/>
<path d="M168.407 370.809C168.407 372.577 167.798 373.807 166.794 374.382L218.755 344.382C219.759 343.807 220.368 342.577 220.369 340.809L168.407 370.809Z" fill="#8BC5E4"/>
<path d="M166.795 374.382C165.743 374.986 164.258 374.872 162.584 373.907L214.545 343.907C216.219 344.872 217.704 344.986 218.756 344.382L166.795 374.382Z" fill="#8BC5E4"/>
<path d="M10.6262 286.174C7.35265 284.284 4.79785 279.969 4.79785 276.349L56.7593 246.349C56.7593 249.969 59.3142 254.284 62.5878 256.174L10.6262 286.174Z" fill="#8BC5E4"/>
<path d="M4.79785 39.9188C4.79805 38.1468 5.40705 36.9138 6.41105 36.3368L58.3726 6.33679C57.3685 6.91379 56.7595 8.14679 56.7593 9.91879L4.79785 39.9188Z" fill="#8BC5E4"/>
<path d="M6.40991 36.3378C7.46191 35.7318 8.94691 35.8458 10.6209 36.8108L62.5824 6.81077C60.9084 5.84577 59.4234 5.73177 58.3714 6.33777L6.40991 36.3378Z" fill="#8BC5E4"/>
<path d="M48.5581 250.034C50.0997 251.224 51.5633 252.739 52.845 254.469L104.807 224.469C103.525 222.739 102.061 221.224 100.52 220.034L48.5581 250.034Z" fill="#8BC5E4"/>
<path d="M55.365 258.714C56.3003 260.694 56.9239 262.704 57.201 264.604L109.162 234.604C108.885 232.704 108.262 230.694 107.326 228.714L55.365 258.714Z" fill="#8BC5E4"/>
<path d="M57.1751 268.539C56.9153 270.119 56.3091 271.409 55.3911 272.309L107.353 242.309C108.271 241.409 108.877 240.119 109.137 238.539L57.1751 268.539Z" fill="#8BC5E4"/>
<path d="M52.871 273.644C51.5806 273.909 50.1083 273.749 48.5581 273.144L100.52 243.144C102.07 243.749 103.542 243.909 104.833 243.644L52.871 273.644Z" fill="#8BC5E4"/>
<path d="M44.99 271.074C43.4225 269.879 41.9416 268.344 40.6426 266.574L92.6041 236.574C93.9031 238.344 95.384 239.879 96.9515 241.074L44.99 271.074Z" fill="#8BC5E4"/>
<path d="M38.1312 262.314C37.2219 260.369 36.6157 258.389 36.3472 256.514L88.3087 226.514C88.5772 228.389 89.1834 230.369 90.0927 232.314L38.1312 262.314Z" fill="#8BC5E4"/>
<path d="M36.3557 252.569C36.6156 251.009 37.2131 249.734 38.1051 248.829L90.0666 218.829C89.1746 219.734 88.5771 221.009 88.3173 222.569L36.3557 252.569Z" fill="#8BC5E4"/>
<path d="M40.6167 247.479C41.9157 247.199 43.414 247.364 44.9901 247.964L96.9516 217.964C95.3755 217.364 93.8773 217.199 92.5782 217.479L40.6167 247.479Z" fill="#8BC5E4"/>
<path d="M93.8164 151.574C97.9647 154.749 101.896 158.819 105.343 163.479L157.305 133.479C153.858 128.819 149.926 124.749 145.778 121.574L93.8164 151.574Z" fill="#8BC5E4"/>
<path d="M112.116 174.889C114.61 180.179 116.281 185.574 117.017 190.679L168.979 160.679C168.243 155.574 166.571 150.179 164.077 144.889L112.116 174.889Z" fill="#8BC5E4"/>
<path d="M116.991 201.264C116.273 205.499 114.636 208.954 112.185 211.389L164.146 181.389C166.597 178.954 168.234 175.499 168.953 171.264L116.991 201.264Z" fill="#8BC5E4"/>
<path d="M105.404 214.964C101.957 215.704 97.9907 215.244 93.8164 213.644L145.778 183.644C149.952 185.244 153.919 185.704 157.365 184.964L105.404 214.964Z" fill="#8BC5E4"/>
<path d="M84.2555 208.094C80.0466 204.874 76.0542 200.729 72.5815 195.984L124.543 165.984C128.016 170.729 132.008 174.874 136.217 178.094L84.2555 208.094Z" fill="#8BC5E4"/>
<path d="M65.8352 184.549C63.4017 179.324 61.7649 173.999 61.0461 168.964L113.008 138.964C113.727 143.999 115.363 149.324 117.797 154.549L65.8352 184.549Z" fill="#8BC5E4"/>
<path d="M61.072 158.379C61.7735 154.204 63.3756 150.779 65.7659 148.349L117.727 118.349C115.337 120.779 113.735 124.204 113.034 128.379L61.072 158.379Z" fill="#8BC5E4"/>
<path d="M72.5037 144.709C76.0025 143.939 80.0208 144.389 84.2557 146.024L136.217 116.024C131.982 114.389 127.964 113.939 124.465 114.709L72.5037 144.709Z" fill="#8BC5E4"/>
<path d="M143.873 316.594L151.684 332.854L155.408 331.974L156.777 346.224L145.406 334.379L149.138 333.484L141.327 317.224L143.873 316.594ZM118.819 302.129L111.007 309.369L107.283 304.189L105.924 316.864L117.286 318.144L113.562 312.944L121.365 305.699L118.819 302.129ZM129.107 310.369V324.969L124.482 322.299L130.579 337.549L136.901 329.469L132.277 326.799V312.199L129.107 310.369ZM129.081 279.614V294.214L124.448 291.539L130.562 306.799L136.884 298.719L132.259 296.049V281.449L129.081 279.614ZM46.8 231.229L41.4047 236.744L44.99 238.814V247.964C43.4139 247.364 41.9156 247.199 40.6166 247.479L34.7623 237.649L37.2911 236.279L28.0159 229.044L29.7307 240.364L32.2594 238.994L38.1051 248.829C37.2131 249.734 36.6156 251.009 36.3557 252.569L28.1025 247.804V243.824L20.3256 245.254L28.1025 255.734V251.754L36.3471 256.514C36.6156 258.389 37.2218 260.369 38.1311 262.314L32.2941 265.434L29.7566 261.159L28.0852 270.534L37.3517 273.964L34.8142 269.679L40.6426 266.574C41.9416 268.344 43.4225 269.879 44.99 271.074V280.244L41.4047 278.174L46.8 289.909L52.1347 284.369L48.558 282.304V273.144C50.1082 273.749 51.5805 273.909 52.8708 273.644L58.7338 283.499L56.1964 284.854L65.5235 292.069L63.7741 280.789L61.2453 282.139L55.391 272.309C56.309 271.409 56.9152 270.119 57.175 268.539L65.4369 273.309V277.289L73.2224 275.794L65.4369 265.379V269.359L57.201 264.604C56.9239 262.704 56.3003 260.694 55.365 258.714L61.202 255.604L63.7395 259.879L65.4629 250.594L56.1444 247.084L58.6819 251.349L52.8449 254.469C51.5632 252.739 50.0996 251.224 48.558 250.034V240.874L52.1347 242.939L46.8 231.229ZM10.6261 36.8138L162.579 124.544C165.853 126.434 168.407 130.749 168.407 134.379V370.809C168.407 374.429 165.853 375.794 162.579 373.904L10.6261 286.174C7.35256 284.284 4.79778 279.969 4.79778 276.349V39.9188C4.79778 36.2888 7.35256 34.9238 10.6261 36.8138ZM10.6261 31.4938C4.78046 28.1188 0 30.6588 0 37.1488V273.579C0 280.059 4.78046 288.119 10.6261 291.494L162.579 379.224C168.425 382.599 173.205 380.059 173.205 373.579V137.149C173.205 130.659 168.425 122.599 162.579 119.224L10.6261 31.4938ZM89.1227 101.094L74.6168 115.879L84.2556 121.444V146.024C80.0207 144.389 76.0024 143.939 72.5036 144.709L56.7853 118.294L63.5749 114.644L38.668 95.1938L43.2493 125.579L50.0389 121.919L65.766 148.349C63.3757 150.779 61.7736 154.204 61.0721 158.379L38.8932 145.574V134.884L18.0133 138.729L38.8932 166.874V156.174L61.0461 168.964C61.7649 173.999 63.4017 179.324 65.8352 184.549L50.1602 192.929L43.3359 181.439L38.8412 206.594L63.7395 215.819L56.9239 204.324L72.5816 195.984C76.0543 200.729 80.0467 204.874 84.2556 208.094V232.694L74.6168 227.129L89.1227 258.674L103.447 243.774L93.8165 238.214V213.644C97.9908 215.244 101.957 215.704 105.404 214.964L121.148 241.414L114.359 245.084L139.387 264.454L134.684 234.139L127.895 237.799L112.185 211.389C114.636 208.954 116.273 205.499 116.991 201.264L139.17 214.069V224.769L160.05 220.734L139.17 192.779V203.469L117.017 190.679C116.281 185.574 114.61 180.179 112.116 174.889L127.782 166.524L134.589 178.004L139.214 153.054L114.203 143.634L121.018 155.129L105.343 163.479C101.897 158.819 97.9648 154.749 93.8165 151.574V126.964L103.447 132.524L89.1227 101.094Z" fill="#8BC5E4"/>
<path fill-rule="evenodd" clip-rule="evenodd" d="M10.6261 36.8138L162.579 124.544C165.853 126.434 168.407 130.749 168.407 134.379V370.809C168.407 374.429 165.853 375.794 162.579 373.904L10.6261 286.174C7.35256 284.284 4.79778 279.969 4.79778 276.349V39.9188C4.79778 36.2888 7.35256 34.9238 10.6261 36.8138ZM151.684 332.854L143.873 316.594L141.327 317.224L149.138 333.484L145.406 334.379L156.777 346.224L155.408 331.974L151.684 332.854ZM111.007 309.369L118.819 302.129L121.365 305.699L113.562 312.944L117.286 318.144L105.924 316.864L107.283 304.189L111.007 309.369ZM129.107 324.969V310.369L132.277 312.199V326.799L136.901 329.469L130.579 337.549L124.482 322.299L129.107 324.969ZM129.081 294.214V279.614L132.259 281.449V296.049L136.884 298.719L130.562 306.799L124.448 291.539L129.081 294.214ZM41.4047 236.744L46.8 231.229L52.1347 242.939L48.558 240.874V250.034C50.0996 251.224 51.5632 252.739 52.8449 254.469L58.6819 251.349L56.1444 247.084L65.4629 250.594L63.7395 259.879L61.202 255.604L55.365 258.714C56.3003 260.694 56.9239 262.704 57.201 264.604L65.4369 269.359V265.379L73.2224 275.794L65.4369 277.289V273.309L57.175 268.539C56.9152 270.119 56.309 271.409 55.391 272.309L61.2453 282.139L63.7741 280.789L65.5235 292.069L56.1964 284.854L58.7338 283.499L52.8708 273.644C51.5805 273.909 50.1082 273.749 48.558 273.144V282.304L52.1347 284.369L46.8 289.909L41.4047 278.174L44.99 280.244V271.074C43.4225 269.879 41.9416 268.344 40.6426 266.574L34.8142 269.679L37.3517 273.964L28.0852 270.534L29.7566 261.159L32.2941 265.434L38.1311 262.314C37.2218 260.369 36.6156 258.389 36.3471 256.514L28.1025 251.754V255.734L20.3256 245.254L28.1025 243.824V247.804L36.3557 252.569C36.6156 251.009 37.2131 249.734 38.1051 248.829L32.2594 238.994L29.7307 240.364L28.0159 229.044L37.2911 236.279L34.7623 237.649L40.6166 247.479C41.9156 247.199 43.4139 247.364 44.99 247.964V238.814L41.4047 236.744ZM74.6168 115.879L89.1227 101.094L103.447 132.524L93.8165 126.964V151.574C97.9648 154.749 101.897 158.819 105.343 163.479L121.018 155.129L114.203 143.634L139.214 153.054L134.589 178.004L127.782 166.524L112.116 174.889C114.61 180.179 116.281 185.574 117.017 190.679L139.17 203.469V192.779L160.05 220.734L139.17 224.769V214.069L116.991 201.264C116.273 205.499 114.636 208.954 112.185 211.389L127.895 237.799L134.684 234.139L139.387 264.454L114.359 245.084L121.148 241.414L105.404 214.964C101.957 215.704 97.9908 215.244 93.8165 213.644V238.214L103.447 243.774L89.1227 258.674L74.6168 227.129L84.2556 232.694V208.094C80.0467 204.874 76.0543 200.729 72.5816 195.984L56.9239 204.324L63.7395 215.819L38.8412 206.594L43.3359 181.439L50.1602 192.929L65.8352 184.549C63.4017 179.324 61.7649 173.999 61.0461 168.964L38.8932 156.174V166.874L18.0133 138.729L38.8932 134.884V145.574L61.0721 158.379C61.7736 154.204 63.3757 150.779 65.766 148.349L50.0389 121.919L43.2493 125.579L38.668 95.1938L63.5749 114.644L56.7853 118.294L72.5036 144.709C76.0024 143.939 80.0207 144.389 84.2556 146.024V121.444L74.6168 115.879Z" fill="white"/>
</svg>
