<svg width="226" height="386" viewBox="0 0 226 386" fill="none" xmlns="http://www.w3.org/2000/svg">
<path d="M89.1226 101.094L74.6167 115.879L126.578 85.8787L141.084 71.0938L89.1226 101.094Z" fill="#8BC5E4"/>
<path d="M74.6167 115.879L84.2555 121.444L136.217 91.4438L126.578 85.8788L74.6167 115.879Z" fill="#8BC5E4"/>
<path d="M84.2556 121.444V146.024L136.217 116.024V91.4437L84.2556 121.444Z" fill="#8BC5E4"/>
<path d="M72.5037 144.709L56.7854 118.294L108.747 88.2938L124.465 114.709L72.5037 144.709Z" fill="#8BC5E4"/>
<path d="M56.7854 118.294L63.575 114.644L115.537 84.6438L108.747 88.2938L56.7854 118.294Z" fill="#8BC5E4"/>
<path d="M63.5749 114.644L38.668 95.1937L90.6296 65.1937L115.536 84.6437L63.5749 114.644Z" fill="#8BC5E4"/>
<path d="M38.668 95.1937L43.2493 125.579L95.2108 95.5787L90.6296 65.1937L38.668 95.1937Z" fill="#8BC5E4"/>
<path d="M43.2493 125.579L50.0389 121.919L102 91.9188L95.2108 95.5788L43.2493 125.579Z" fill="#8BC5E4"/>
<path d="M50.0388 121.919L65.7659 148.349L117.727 118.349L102 91.9188L50.0388 121.919Z" fill="#8BC5E4"/>
<path d="M61.0722 158.379L38.8933 145.574L90.8548 115.574L113.034 128.379L61.0722 158.379Z" fill="#8BC5E4"/>
<path d="M38.8933 145.574V134.884L90.8548 104.884V115.574L38.8933 145.574Z" fill="#8BC5E4"/>
<path d="M38.8931 134.884L18.0132 138.729L69.9748 108.729L90.8546 104.884L38.8931 134.884Z" fill="#8BC5E4"/>
<path d="M18.0132 138.729L38.8931 166.874L90.8546 136.874L69.9748 108.729L18.0132 138.729Z" fill="#8BC5E4"/>
<path d="M38.8933 166.874V156.174L90.8548 126.174V136.874L38.8933 166.874Z" fill="#8BC5E4"/>
<path d="M38.8933 156.174L61.0462 168.964L113.008 138.964L90.8548 126.174L38.8933 156.174Z" fill="#8BC5E4"/>
<path d="M65.8352 184.549L50.1602 192.929L102.122 162.929L117.797 154.549L65.8352 184.549Z" fill="#8BC5E4"/>
<path d="M50.1602 192.929L43.3359 181.439L95.2974 151.439L102.122 162.929L50.1602 192.929Z" fill="#8BC5E4"/>
<path d="M43.336 181.439L38.8413 206.594L90.8029 176.594L95.2975 151.439L43.336 181.439Z" fill="#8BC5E4"/>
<path d="M38.8413 206.594L63.7396 215.819L115.701 185.819L90.8029 176.594L38.8413 206.594Z" fill="#8BC5E4"/>
<path d="M63.7394 215.819L56.9238 204.324L108.885 174.324L115.701 185.819L63.7394 215.819Z" fill="#8BC5E4"/>
<path d="M56.9238 204.324L72.5815 195.984L124.543 165.984L108.885 174.324L56.9238 204.324Z" fill="#8BC5E4"/>
<path d="M84.2556 208.094V232.694L136.217 202.694V178.094L84.2556 208.094Z" fill="#8BC5E4"/>
<path d="M84.2555 232.694L74.6167 227.129L126.578 197.129L136.217 202.694L84.2555 232.694Z" fill="#8BC5E4"/>
<path d="M74.6167 227.129L89.1226 258.674L141.084 228.674L126.578 197.129L74.6167 227.129Z" fill="#8BC5E4"/>
<path d="M89.1228 258.674L103.447 243.774L155.408 213.774L141.084 228.674L89.1228 258.674Z" fill="#8BC5E4"/>
<path d="M103.447 243.774L93.8164 238.214L145.778 208.214L155.408 213.774L103.447 243.774Z" fill="#8BC5E4"/>
<path d="M93.8164 238.214V213.644L145.778 183.644V208.214L93.8164 238.214Z" fill="#8BC5E4"/>
<path d="M105.404 214.964L121.148 241.414L173.11 211.414L157.366 184.964L105.404 214.964Z" fill="#8BC5E4"/>
<path d="M121.148 241.414L114.359 245.084L166.32 215.084L173.11 211.414L121.148 241.414Z" fill="#8BC5E4"/>
<path d="M114.359 245.084L139.387 264.454L191.348 234.454L166.32 215.084L114.359 245.084Z" fill="#8BC5E4"/>
<path d="M139.387 264.454L134.684 234.139L186.646 204.139L191.348 234.454L139.387 264.454Z" fill="#8BC5E4"/>
<path d="M134.684 234.139L127.895 237.799L179.856 207.799L186.646 204.139L134.684 234.139Z" fill="#8BC5E4"/>
<path d="M127.895 237.799L112.185 211.389L164.146 181.389L179.856 207.799L127.895 237.799Z" fill="#8BC5E4"/>
<path d="M116.991 201.264L139.17 214.069L191.132 184.069L168.953 171.264L116.991 201.264Z" fill="#8BC5E4"/>
<path d="M139.17 214.069V224.769L191.132 194.769V184.069L139.17 214.069Z" fill="#8BC5E4"/>
<path d="M139.17 224.769L160.05 220.734L212.012 190.734L191.132 194.769L139.17 224.769Z" fill="#8BC5E4"/>
<path d="M160.05 220.734L139.17 192.779L191.132 162.779L212.012 190.734L160.05 220.734Z" fill="#8BC5E4"/>
<path d="M139.17 192.779V203.469L191.132 173.469V162.779L139.17 192.779Z" fill="#8BC5E4"/>
<path d="M139.17 203.469L117.017 190.679L168.979 160.679L191.132 173.469L139.17 203.469Z" fill="#8BC5E4"/>
<path d="M112.116 174.889L127.782 166.524L179.744 136.524L164.077 144.889L112.116 174.889Z" fill="#8BC5E4"/>
<path d="M127.782 166.524L134.589 178.004L186.55 148.004L179.743 136.524L127.782 166.524Z" fill="#8BC5E4"/>
<path d="M134.589 178.004L139.214 153.054L191.175 123.054L186.551 148.004L134.589 178.004Z" fill="#8BC5E4"/>
<path d="M139.214 153.054L114.203 143.634L166.164 113.634L191.175 123.054L139.214 153.054Z" fill="#8BC5E4"/>
<path d="M114.203 143.634L121.018 155.129L172.98 125.129L166.164 113.634L114.203 143.634Z" fill="#8BC5E4"/>
<path d="M121.018 155.129L105.343 163.479L157.305 133.479L172.98 125.129L121.018 155.129Z" fill="#8BC5E4"/>
<path d="M93.8164 151.574V126.964L145.778 96.9637V121.574L93.8164 151.574Z" fill="#8BC5E4"/>
<path d="M93.8164 126.964L103.447 132.524L155.408 102.524L145.778 96.9637L93.8164 126.964Z" fill="#8BC5E4"/>
<path d="M103.447 132.524L89.1228 101.094L141.084 71.0938L155.408 102.524L103.447 132.524Z" fill="#8BC5E4"/>
<path d="M89.1228 101.094L141.084 71.0938L89.1228 101.094Z" fill="#8BC5E4"/>
<path d="M10.6262 36.8137L162.579 124.544L214.541 94.5437L62.5878 6.81372L10.6262 36.8137Z" fill="#8BC5E4"/>
<path d="M168.407 134.379V370.809L220.369 340.809V104.379L168.407 134.379Z" fill="#8BC5E4"/>
<path d="M162.579 373.904L10.6262 286.174L62.5878 256.174L214.541 343.904L162.579 373.904Z" fill="#8BC5E4"/>
<path d="M4.79785 276.349V39.9188L56.7593 9.91882V246.349L4.79785 276.349Z" fill="#8BC5E4"/>
<path d="M10.6262 36.8137L62.5878 6.81372L10.6262 36.8137Z" fill="#8BC5E4"/>
<path d="M0 37.1488V273.579L51.9615 243.579V7.1488L0 37.1488Z" fill="#8BC5E4"/>
<path d="M10.6262 291.494L162.579 379.224L214.541 349.224L62.5878 261.494L10.6262 291.494Z" fill="#8BC5E4"/>
<path d="M173.205 373.579V137.149L225.167 107.149V343.579L173.205 373.579Z" fill="#8BC5E4"/>
<path d="M162.579 119.224L10.6262 31.4938L62.5878 1.49377L214.541 89.2238L162.579 119.224Z" fill="#8BC5E4"/>
<path d="M10.6262 31.4938L62.5878 1.49377L10.6262 31.4938Z" fill="#8BC5E4"/>
<path d="M105.621 297.119L118.784 304.719L170.746 274.719L157.582 267.119L105.621 297.119Z" fill="#8BC5E4"/>
<path d="M118.784 304.719V309.849L170.746 279.849V274.719L118.784 304.719Z" fill="#8BC5E4"/>
<path d="M118.784 309.849L129.358 309.184L181.32 279.184L170.746 279.849L118.784 309.849Z" fill="#8BC5E4"/>
<path d="M129.358 309.184L118.784 296.069L170.746 266.069L181.32 279.184L129.358 309.184Z" fill="#8BC5E4"/>
<path d="M118.784 296.069V301.199L170.746 271.199V266.069L118.784 296.069Z" fill="#8BC5E4"/>
<path d="M118.784 301.199L105.621 293.599L157.582 263.599L170.746 271.199L118.784 301.199Z" fill="#8BC5E4"/>
<path d="M105.621 293.599V297.119L157.582 267.119V263.599L105.621 293.599Z" fill="#8BC5E4"/>
<path d="M105.621 297.119L157.582 267.119L105.621 297.119Z" fill="#8BC5E4"/>
<path d="M133.342 313.104L146.497 320.699L198.458 290.699L185.303 283.104L133.342 313.104Z" fill="#8BC5E4"/>
<path d="M146.497 320.699V325.829L198.458 295.829V290.699L146.497 320.699Z" fill="#8BC5E4"/>
<path d="M146.497 325.829L157.071 325.154L209.032 295.154L198.458 295.829L146.497 325.829Z" fill="#8BC5E4"/>
<path d="M157.071 325.154L146.497 312.039L198.458 282.039L209.032 295.154L157.071 325.154Z" fill="#8BC5E4"/>
<path d="M146.497 312.039V317.169L198.458 287.169V282.039L146.497 312.039Z" fill="#8BC5E4"/>
<path d="M146.497 317.169L133.342 309.574L185.303 279.574L198.458 287.169L146.497 317.169Z" fill="#8BC5E4"/>
<path d="M133.342 309.574V313.104L185.303 283.104V279.574L133.342 309.574Z" fill="#8BC5E4"/>
<path d="M133.342 313.104L185.303 283.104L133.342 313.104Z" fill="#8BC5E4"/>
<path d="M131.272 323.319L141.863 338.094L193.825 308.094L183.234 293.319L131.272 323.319Z" fill="#8BC5E4"/>
<path d="M141.864 338.094L139.118 340.649L191.08 310.649L193.825 308.094L141.864 338.094Z" fill="#8BC5E4"/>
<path d="M139.118 340.649L151.251 349.164L203.213 319.164L191.08 310.649L139.118 340.649Z" fill="#8BC5E4"/>
<path d="M151.251 349.164L146.488 333.804L198.45 303.804L203.213 319.164L151.251 349.164Z" fill="#8BC5E4"/>
<path d="M146.488 333.804L143.743 336.339L195.704 306.339L198.45 303.804L146.488 333.804Z" fill="#8BC5E4"/>
<path d="M143.743 336.339L133.16 321.569L185.122 291.569L195.704 306.339L143.743 336.339Z" fill="#8BC5E4"/>
<path d="M133.16 321.569L131.272 323.319L183.234 293.319L185.121 291.569L133.16 321.569Z" fill="#8BC5E4"/>
<path d="M131.272 323.319L183.234 293.319L131.272 323.319Z" fill="#8BC5E4"/>
<path d="M131.272 295.509L141.863 292.964L193.825 262.964L183.234 265.509L131.272 295.509Z" fill="#8BC5E4"/>
<path d="M141.864 292.964L139.118 287.249L191.08 257.249L193.825 262.964L141.864 292.964Z" fill="#8BC5E4"/>
<path d="M139.118 287.249L151.251 292.744L203.213 262.744L191.08 257.249L139.118 287.249Z" fill="#8BC5E4"/>
<path d="M151.251 292.744L146.488 302.604L198.45 272.604L203.213 262.744L151.251 292.744Z" fill="#8BC5E4"/>
<path d="M146.488 302.604L143.743 296.879L195.704 266.879L198.45 272.604L146.488 302.604Z" fill="#8BC5E4"/>
<path d="M143.743 296.879L133.16 299.439L185.122 269.439L195.704 266.879L143.743 296.879Z" fill="#8BC5E4"/>
<path d="M133.16 299.439L131.272 295.509L183.234 265.509L185.121 269.439L133.16 299.439Z" fill="#8BC5E4"/>
<path d="M131.272 295.509L183.234 265.509L131.272 295.509Z" fill="#8BC5E4"/>
<path d="M10.6262 36.8137L162.579 124.544L214.541 94.5437L62.5878 6.81372L10.6262 36.8137Z" fill="#8BC5E4"/>
<path d="M168.407 134.379V370.809L220.369 340.809V104.379L168.407 134.379Z" fill="#8BC5E4"/>
<path d="M162.579 373.904L10.6262 286.174L62.5878 256.174L214.541 343.904L162.579 373.904Z" fill="#8BC5E4"/>
<path d="M4.79785 276.349V39.9188L56.7593 9.91882V246.349L4.79785 276.349Z" fill="#8BC5E4"/>
<path d="M10.6262 36.8137L62.5878 6.81372L10.6262 36.8137Z" fill="#8BC5E4"/>
<path d="M74.6167 115.879L89.1226 101.094L141.084 71.0938L126.578 85.8787L74.6167 115.879Z" fill="#8BC5E4"/>
<path d="M89.1228 101.094L103.447 132.524L155.408 102.524L141.084 71.0938L89.1228 101.094Z" fill="#8BC5E4"/>
<path d="M103.447 132.524L93.8164 126.964L145.778 96.9637L155.408 102.524L103.447 132.524Z" fill="#8BC5E4"/>
<path d="M93.8164 126.964V151.574L145.778 121.574V96.9637L93.8164 126.964Z" fill="#8BC5E4"/>
<path d="M105.343 163.479L121.018 155.129L172.98 125.129L157.305 133.479L105.343 163.479Z" fill="#8BC5E4"/>
<path d="M121.018 155.129L114.203 143.634L166.164 113.634L172.98 125.129L121.018 155.129Z" fill="#8BC5E4"/>
<path d="M114.203 143.634L139.214 153.054L191.175 123.054L166.164 113.634L114.203 143.634Z" fill="#8BC5E4"/>
<path d="M139.214 153.054L134.589 178.004L186.551 148.004L191.175 123.054L139.214 153.054Z" fill="#8BC5E4"/>
<path d="M134.589 178.004L127.782 166.524L179.743 136.524L186.55 148.004L134.589 178.004Z" fill="#8BC5E4"/>
<path d="M127.782 166.524L112.116 174.889L164.077 144.889L179.744 136.524L127.782 166.524Z" fill="#8BC5E4"/>
<path d="M117.017 190.679L139.17 203.469L191.132 173.469L168.979 160.679L117.017 190.679Z" fill="#8BC5E4"/>
<path d="M139.17 203.469V192.779L191.132 162.779V173.469L139.17 203.469Z" fill="#8BC5E4"/>
<path d="M139.17 192.779L160.05 220.734L212.012 190.734L191.132 162.779L139.17 192.779Z" fill="#8BC5E4"/>
<path d="M160.05 220.734L139.17 224.769L191.132 194.769L212.012 190.734L160.05 220.734Z" fill="#8BC5E4"/>
<path d="M139.17 224.769V214.069L191.132 184.069V194.769L139.17 224.769Z" fill="#8BC5E4"/>
<path d="M139.17 214.069L116.991 201.264L168.953 171.264L191.132 184.069L139.17 214.069Z" fill="#8BC5E4"/>
<path d="M112.185 211.389L127.895 237.799L179.856 207.799L164.146 181.389L112.185 211.389Z" fill="#8BC5E4"/>
<path d="M127.895 237.799L134.684 234.139L186.646 204.139L179.856 207.799L127.895 237.799Z" fill="#8BC5E4"/>
<path d="M134.684 234.139L139.387 264.454L191.348 234.454L186.646 204.139L134.684 234.139Z" fill="#8BC5E4"/>
<path d="M139.387 264.454L114.359 245.084L166.32 215.084L191.348 234.454L139.387 264.454Z" fill="#8BC5E4"/>
<path d="M114.359 245.084L121.148 241.414L173.11 211.414L166.32 215.084L114.359 245.084Z" fill="#8BC5E4"/>
<path d="M121.148 241.414L105.404 214.964L157.366 184.964L173.11 211.414L121.148 241.414Z" fill="#8BC5E4"/>
<path d="M93.8164 213.644V238.214L145.778 208.214V183.644L93.8164 213.644Z" fill="#8BC5E4"/>
<path d="M93.8164 238.214L103.447 243.774L155.408 213.774L145.778 208.214L93.8164 238.214Z" fill="#8BC5E4"/>
<path d="M103.447 243.774L89.1228 258.674L141.084 228.674L155.408 213.774L103.447 243.774Z" fill="#8BC5E4"/>
<path d="M89.1226 258.674L74.6167 227.129L126.578 197.129L141.084 228.674L89.1226 258.674Z" fill="#8BC5E4"/>
<path d="M74.6167 227.129L84.2555 232.694L136.217 202.694L126.578 197.129L74.6167 227.129Z" fill="#8BC5E4"/>
<path d="M84.2556 232.694V208.094L136.217 178.094V202.694L84.2556 232.694Z" fill="#8BC5E4"/>
<path d="M72.5815 195.984L56.9238 204.324L108.885 174.324L124.543 165.984L72.5815 195.984Z" fill="#8BC5E4"/>
<path d="M56.9238 204.324L63.7394 215.819L115.701 185.819L108.885 174.324L56.9238 204.324Z" fill="#8BC5E4"/>
<path d="M63.7396 215.819L38.8413 206.594L90.8029 176.594L115.701 185.819L63.7396 215.819Z" fill="#8BC5E4"/>
<path d="M38.8413 206.594L43.336 181.439L95.2975 151.439L90.8029 176.594L38.8413 206.594Z" fill="#8BC5E4"/>
<path d="M43.3359 181.439L50.1602 192.929L102.122 162.929L95.2974 151.439L43.3359 181.439Z" fill="#8BC5E4"/>
<path d="M50.1602 192.929L65.8352 184.549L117.797 154.549L102.122 162.929L50.1602 192.929Z" fill="#8BC5E4"/>
<path d="M61.0462 168.964L38.8933 156.174L90.8548 126.174L113.008 138.964L61.0462 168.964Z" fill="#8BC5E4"/>
<path d="M38.8933 156.174V166.874L90.8548 136.874V126.174L38.8933 156.174Z" fill="#8BC5E4"/>
<path d="M38.8931 166.874L18.0132 138.729L69.9748 108.729L90.8546 136.874L38.8931 166.874Z" fill="#8BC5E4"/>
<path d="M18.0132 138.729L38.8931 134.884L90.8546 104.884L69.9748 108.729L18.0132 138.729Z" fill="#8BC5E4"/>
<path d="M38.8933 134.884V145.574L90.8548 115.574V104.884L38.8933 134.884Z" fill="#8BC5E4"/>
<path d="M38.8933 145.574L61.0722 158.379L113.034 128.379L90.8548 115.574L38.8933 145.574Z" fill="#8BC5E4"/>
<path d="M65.7659 148.349L50.0388 121.919L102 91.9188L117.727 118.349L65.7659 148.349Z" fill="#8BC5E4"/>
<path d="M50.0389 121.919L43.2493 125.579L95.2108 95.5788L102 91.9188L50.0389 121.919Z" fill="#8BC5E4"/>
<path d="M43.2493 125.579L38.668 95.1937L90.6296 65.1937L95.2108 95.5787L43.2493 125.579Z" fill="#8BC5E4"/>
<path d="M38.668 95.1937L63.5749 114.644L115.536 84.6437L90.6296 65.1937L38.668 95.1937Z" fill="#8BC5E4"/>
<path d="M63.575 114.644L56.7854 118.294L108.747 88.2938L115.537 84.6438L63.575 114.644Z" fill="#8BC5E4"/>
<path d="M56.7854 118.294L72.5037 144.709L124.465 114.709L108.747 88.2938L56.7854 118.294Z" fill="#8BC5E4"/>
<path d="M84.2556 146.024V121.444L136.217 91.4437V116.024L84.2556 146.024Z" fill="#8BC5E4"/>
<path d="M84.2555 121.444L74.6167 115.879L126.578 85.8788L136.217 91.4438L84.2555 121.444Z" fill="#8BC5E4"/>
<path d="M74.6167 115.879L126.578 85.8788L74.6167 115.879Z" fill="#8BC5E4"/>
<path d="M118.784 304.719L105.621 297.119L157.582 267.119L170.746 274.719L118.784 304.719Z" fill="#8BC5E4"/>
<path d="M105.621 297.119V293.599L157.582 263.599V267.119L105.621 297.119Z" fill="#8BC5E4"/>
<path d="M105.621 293.599L118.784 301.199L170.746 271.199L157.582 263.599L105.621 293.599Z" fill="#8BC5E4"/>
<path d="M118.784 301.199V296.069L170.746 266.069V271.199L118.784 301.199Z" fill="#8BC5E4"/>
<path d="M118.784 296.069L129.358 309.184L181.32 279.184L170.746 266.069L118.784 296.069Z" fill="#8BC5E4"/>
<path d="M129.358 309.184L118.784 309.849L170.746 279.849L181.32 279.184L129.358 309.184Z" fill="#8BC5E4"/>
<path d="M118.784 309.849V304.719L170.746 274.719V279.849L118.784 309.849Z" fill="#8BC5E4"/>
<path d="M118.784 304.719L170.746 274.719L118.784 304.719Z" fill="#8BC5E4"/>
<path d="M146.497 320.699L133.342 313.104L185.303 283.104L198.458 290.699L146.497 320.699Z" fill="#8BC5E4"/>
<path d="M133.342 313.104V309.574L185.303 279.574V283.104L133.342 313.104Z" fill="#8BC5E4"/>
<path d="M133.342 309.574L146.497 317.169L198.458 287.169L185.303 279.574L133.342 309.574Z" fill="#8BC5E4"/>
<path d="M146.497 317.169V312.039L198.458 282.039V287.169L146.497 317.169Z" fill="#8BC5E4"/>
<path d="M146.497 312.039L157.071 325.154L209.032 295.154L198.458 282.039L146.497 312.039Z" fill="#8BC5E4"/>
<path d="M157.071 325.154L146.497 325.829L198.458 295.829L209.032 295.154L157.071 325.154Z" fill="#8BC5E4"/>
<path d="M146.497 325.829V320.699L198.458 290.699V295.829L146.497 325.829Z" fill="#8BC5E4"/>
<path d="M146.497 320.699L198.458 290.699L146.497 320.699Z" fill="#8BC5E4"/>
<path d="M141.863 338.094L131.272 323.319L183.234 293.319L193.825 308.094L141.863 338.094Z" fill="#8BC5E4"/>
<path d="M131.272 323.319L133.16 321.569L185.121 291.569L183.234 293.319L131.272 323.319Z" fill="#8BC5E4"/>
<path d="M133.16 321.569L143.743 336.339L195.704 306.339L185.122 291.569L133.16 321.569Z" fill="#8BC5E4"/>
<path d="M143.743 336.339L146.488 333.804L198.45 303.804L195.704 306.339L143.743 336.339Z" fill="#8BC5E4"/>
<path d="M146.488 333.804L151.251 349.164L203.213 319.164L198.45 303.804L146.488 333.804Z" fill="#8BC5E4"/>
<path d="M151.251 349.164L139.118 340.649L191.08 310.649L203.213 319.164L151.251 349.164Z" fill="#8BC5E4"/>
<path d="M139.118 340.649L141.864 338.094L193.825 308.094L191.08 310.649L139.118 340.649Z" fill="#8BC5E4"/>
<path d="M141.864 338.094L193.825 308.094L141.864 338.094Z" fill="#8BC5E4"/>
<path d="M141.863 292.964L131.272 295.509L183.234 265.509L193.825 262.964L141.863 292.964Z" fill="#8BC5E4"/>
<path d="M131.272 295.509L133.16 299.439L185.121 269.439L183.234 265.509L131.272 295.509Z" fill="#8BC5E4"/>
<path d="M133.16 299.439L143.743 296.879L195.704 266.879L185.122 269.439L133.16 299.439Z" fill="#8BC5E4"/>
<path d="M143.743 296.879L146.488 302.604L198.45 272.604L195.704 266.879L143.743 296.879Z" fill="#8BC5E4"/>
<path d="M146.488 302.604L151.251 292.744L203.213 262.744L198.45 272.604L146.488 302.604Z" fill="#8BC5E4"/>
<path d="M151.251 292.744L139.118 287.249L191.08 257.249L203.213 262.744L151.251 292.744Z" fill="#8BC5E4"/>
<path d="M139.118 287.249L141.864 292.964L193.825 262.964L191.08 257.249L139.118 287.249Z" fill="#8BC5E4"/>
<path d="M141.864 292.964L193.825 262.964L141.864 292.964Z" fill="#8BC5E4"/>
<path d="M84.2557 146.024C80.0208 144.389 76.0025 143.939 72.5037 144.709L124.465 114.709C127.964 113.939 131.982 114.389 136.217 116.024L84.2557 146.024Z" fill="#8BC5E4"/>
<path d="M65.7659 148.349C63.3756 150.779 61.7735 154.204 61.072 158.379L113.034 128.379C113.735 124.204 115.337 120.779 117.727 118.349L65.7659 148.349Z" fill="#8BC5E4"/>
<path d="M61.0461 168.964C61.7649 173.999 63.4017 179.324 65.8352 184.549L117.797 154.549C115.363 149.324 113.727 143.999 113.008 138.964L61.0461 168.964Z" fill="#8BC5E4"/>
<path d="M72.5815 195.984C76.0542 200.729 80.0466 204.874 84.2555 208.094L136.217 178.094C132.008 174.874 128.016 170.729 124.543 165.984L72.5815 195.984Z" fill="#8BC5E4"/>
<path d="M93.8164 213.644C97.9907 215.244 101.957 215.704 105.404 214.964L157.365 184.964C153.919 185.704 149.952 185.244 145.778 183.644L93.8164 213.644Z" fill="#8BC5E4"/>
<path d="M112.185 211.389C114.636 208.954 116.273 205.499 116.991 201.264L168.953 171.264C168.234 175.499 166.597 178.954 164.146 181.389L112.185 211.389Z" fill="#8BC5E4"/>
<path d="M117.017 190.679C116.281 185.574 114.61 180.179 112.116 174.889L164.077 144.889C166.571 150.179 168.243 155.574 168.979 160.679L117.017 190.679Z" fill="#8BC5E4"/>
<path d="M105.343 163.479C101.896 158.819 97.9647 154.749 93.8164 151.574L145.778 121.574C149.926 124.749 153.858 128.819 157.305 133.479L105.343 163.479Z" fill="#8BC5E4"/>
<path d="M162.579 124.544C165.852 126.434 168.407 130.749 168.407 134.379L220.369 104.379C220.369 100.749 217.814 96.4338 214.54 94.5438L162.579 124.544Z" fill="#8BC5E4"/>
<path d="M168.407 370.809C168.407 372.577 167.798 373.807 166.794 374.382L218.755 344.382C219.759 343.807 220.368 342.577 220.369 340.809L168.407 370.809Z" fill="#8BC5E4"/>
<path d="M166.795 374.382C165.743 374.986 164.258 374.872 162.584 373.907L214.545 343.907C216.219 344.872 217.704 344.986 218.756 344.382L166.795 374.382Z" fill="#8BC5E4"/>
<path d="M10.6262 286.174C7.35265 284.284 4.79785 279.969 4.79785 276.349L56.7593 246.349C56.7593 249.969 59.3142 254.284 62.5878 256.174L10.6262 286.174Z" fill="#8BC5E4"/>
<path d="M4.79785 39.9188C4.79805 38.1468 5.40705 36.9138 6.41105 36.3368L58.3726 6.33679C57.3685 6.91379 56.7595 8.14679 56.7593 9.91879L4.79785 39.9188Z" fill="#8BC5E4"/>
<path d="M6.40991 36.3378C7.46191 35.7318 8.94691 35.8458 10.6209 36.8108L62.5824 6.81077C60.9084 5.84577 59.4234 5.73177 58.3714 6.33777L6.40991 36.3378Z" fill="#8BC5E4"/>
<path d="M10.6262 31.4938C7.62309 29.7598 4.90209 29.5868 2.96509 30.7088L54.9266 0.708785C56.8636 -0.413215 59.5846 -0.240215 62.5878 1.49378L10.6262 31.4938Z" fill="#8BC5E4"/>
<path d="M2.967 30.7078C1.134 31.7678 0.002 33.9868 0 37.1388L51.9615 7.13876C51.9635 3.98676 53.0955 1.76776 54.9285 0.707764L2.967 30.7078Z" fill="#8BC5E4"/>
<path d="M0 273.579C0 280.059 4.7805 288.119 10.6261 291.494L62.5877 261.494C56.742 258.119 51.9615 250.059 51.9615 243.579L0 273.579Z" fill="#8BC5E4"/>
<path d="M162.579 379.224C165.576 380.954 168.293 381.13 170.229 380.017L222.19 350.017C220.254 351.13 217.537 350.954 214.54 349.224L162.579 379.224Z" fill="#8BC5E4"/>
<path d="M170.238 380.012C172.071 378.953 173.203 376.736 173.205 373.588L225.167 343.588C225.165 346.736 224.033 348.953 222.2 350.012L170.238 380.012Z" fill="#8BC5E4"/>
<path d="M173.205 137.149C173.205 130.659 168.425 122.599 162.579 119.224L214.54 89.2238C220.386 92.5988 225.167 100.659 225.167 107.149L173.205 137.149Z" fill="#8BC5E4"/>
<path d="M162.579 124.544C165.852 126.434 168.407 130.749 168.407 134.379L220.369 104.379C220.369 100.749 217.814 96.4338 214.54 94.5438L162.579 124.544Z" fill="#8BC5E4"/>
<path d="M168.407 370.809C168.407 372.577 167.798 373.807 166.794 374.382L218.755 344.382C219.759 343.807 220.368 342.577 220.369 340.809L168.407 370.809Z" fill="#8BC5E4"/>
<path d="M166.795 374.382C165.743 374.986 164.258 374.872 162.584 373.907L214.545 343.907C216.219 344.872 217.704 344.986 218.756 344.382L166.795 374.382Z" fill="#8BC5E4"/>
<path d="M10.6262 286.174C7.35265 284.284 4.79785 279.969 4.79785 276.349L56.7593 246.349C56.7593 249.969 59.3142 254.284 62.5878 256.174L10.6262 286.174Z" fill="#8BC5E4"/>
<path d="M4.79785 39.9188C4.79805 38.1468 5.40705 36.9138 6.41105 36.3368L58.3726 6.33679C57.3685 6.91379 56.7595 8.14679 56.7593 9.91879L4.79785 39.9188Z" fill="#8BC5E4"/>
<path d="M6.40991 36.3378C7.46191 35.7318 8.94691 35.8458 10.6209 36.8108L62.5824 6.81077C60.9084 5.84577 59.4234 5.73177 58.3714 6.33777L6.40991 36.3378Z" fill="#8BC5E4"/>
<path d="M93.8164 151.574C97.9647 154.749 101.896 158.819 105.343 163.479L157.305 133.479C153.858 128.819 149.926 124.749 145.778 121.574L93.8164 151.574Z" fill="#8BC5E4"/>
<path d="M112.116 174.889C114.61 180.179 116.281 185.574 117.017 190.679L168.979 160.679C168.243 155.574 166.571 150.179 164.077 144.889L112.116 174.889Z" fill="#8BC5E4"/>
<path d="M116.991 201.264C116.273 205.499 114.636 208.954 112.185 211.389L164.146 181.389C166.597 178.954 168.234 175.499 168.953 171.264L116.991 201.264Z" fill="#8BC5E4"/>
<path d="M105.404 214.964C101.957 215.704 97.9907 215.244 93.8164 213.644L145.778 183.644C149.952 185.244 153.919 185.704 157.365 184.964L105.404 214.964Z" fill="#8BC5E4"/>
<path d="M84.2555 208.094C80.0466 204.874 76.0542 200.729 72.5815 195.984L124.543 165.984C128.016 170.729 132.008 174.874 136.217 178.094L84.2555 208.094Z" fill="#8BC5E4"/>
<path d="M65.8352 184.549C63.4017 179.324 61.7649 173.999 61.0461 168.964L113.008 138.964C113.727 143.999 115.363 149.324 117.797 154.549L65.8352 184.549Z" fill="#8BC5E4"/>
<path d="M61.072 158.379C61.7735 154.204 63.3756 150.779 65.7659 148.349L117.727 118.349C115.337 120.779 113.735 124.204 113.034 128.379L61.072 158.379Z" fill="#8BC5E4"/>
<path d="M72.5037 144.709C76.0025 143.939 80.0208 144.389 84.2557 146.024L136.217 116.024C131.982 114.389 127.964 113.939 124.465 114.709L72.5037 144.709Z" fill="#8BC5E4"/>
<path d="M89.1227 101.094L74.6168 115.879L84.2556 121.444V146.024C80.0207 144.389 76.0024 143.939 72.5036 144.709L56.7853 118.294L63.5749 114.644L38.668 95.1938L43.2493 125.579L50.0389 121.919L65.766 148.349C63.3757 150.779 61.7736 154.204 61.0721 158.379L38.8932 145.574V134.884L18.0133 138.729L38.8932 166.874V156.174L61.0461 168.964C61.7649 173.999 63.4017 179.324 65.8352 184.549L50.1602 192.929L43.3359 181.439L38.8412 206.594L63.7395 215.819L56.9239 204.324L72.5816 195.984C76.0543 200.729 80.0467 204.874 84.2556 208.094V232.694L74.6168 227.129L89.1227 258.674L103.447 243.774L93.8165 238.214V213.644C97.9908 215.244 101.957 215.704 105.404 214.964L121.148 241.414L114.359 245.084L139.387 264.454L134.684 234.139L127.895 237.799L112.185 211.389C114.636 208.954 116.273 205.499 116.991 201.264L139.17 214.069V224.769L160.05 220.734L139.17 192.779V203.469L117.017 190.679C116.281 185.574 114.61 180.179 112.116 174.889L127.782 166.524L134.589 178.004L139.214 153.054L114.203 143.634L121.018 155.129L105.343 163.479C101.897 158.819 97.9648 154.749 93.8165 151.574V126.964L103.447 132.524L89.1227 101.094ZM10.6261 36.8138L162.579 124.544C165.853 126.434 168.407 130.749 168.407 134.379V370.809C168.407 374.429 165.853 375.794 162.579 373.904L10.6261 286.174C7.35256 284.284 4.79778 279.969 4.79778 276.349V39.9188C4.79778 36.2888 7.35256 34.9238 10.6261 36.8138ZM10.6261 31.4938C4.78046 28.1188 0 30.6588 0 37.1488V273.579C0 280.059 4.78046 288.119 10.6261 291.494L162.579 379.224C168.425 382.599 173.205 380.059 173.205 373.579V137.149C173.205 130.659 168.425 122.599 162.579 119.224L10.6261 31.4938ZM105.62 297.119L118.784 304.719V309.849L129.358 309.184L118.784 296.069V301.199L105.62 293.599V297.119ZM133.342 313.104L146.497 320.699V325.829L157.071 325.154L146.497 312.039V317.169L133.342 309.574V313.104ZM131.272 323.319L141.864 338.094L139.118 340.649L151.251 349.164L146.488 333.804L143.743 336.339L133.16 321.569L131.272 323.319ZM131.272 295.509L141.864 292.964L139.118 287.249L151.251 292.744L146.488 302.604L143.743 296.879L133.16 299.439L131.272 295.509Z" fill="#8BC5E4"/>
<path fill-rule="evenodd" clip-rule="evenodd" d="M10.6261 36.8138L162.579 124.544C165.853 126.434 168.407 130.749 168.407 134.379V370.809C168.407 374.429 165.853 375.794 162.579 373.904L10.6261 286.174C7.35256 284.284 4.79778 279.969 4.79778 276.349V39.9188C4.79778 36.2888 7.35256 34.9238 10.6261 36.8138ZM74.6168 115.879L89.1227 101.094L103.447 132.524L93.8165 126.964V151.574C97.9648 154.749 101.897 158.819 105.343 163.479L121.018 155.129L114.203 143.634L139.214 153.054L134.589 178.004L127.782 166.524L112.116 174.889C114.61 180.179 116.281 185.574 117.017 190.679L139.17 203.469V192.779L160.05 220.734L139.17 224.769V214.069L116.991 201.264C116.273 205.499 114.636 208.954 112.185 211.389L127.895 237.799L134.684 234.139L139.387 264.454L114.359 245.084L121.148 241.414L105.404 214.964C101.957 215.704 97.9908 215.244 93.8165 213.644V238.214L103.447 243.774L89.1227 258.674L74.6168 227.129L84.2556 232.694V208.094C80.0467 204.874 76.0543 200.729 72.5816 195.984L56.9239 204.324L63.7395 215.819L38.8412 206.594L43.3359 181.439L50.1602 192.929L65.8352 184.549C63.4017 179.324 61.7649 173.999 61.0461 168.964L38.8932 156.174V166.874L18.0133 138.729L38.8932 134.884V145.574L61.0721 158.379C61.7736 154.204 63.3757 150.779 65.766 148.349L50.0389 121.919L43.2493 125.579L38.668 95.1938L63.5749 114.644L56.7853 118.294L72.5036 144.709C76.0024 143.939 80.0207 144.389 84.2556 146.024V121.444L74.6168 115.879ZM118.784 304.719L105.62 297.119V293.599L118.784 301.199V296.069L129.358 309.184L118.784 309.849V304.719ZM146.497 320.699L133.342 313.104V309.574L146.497 317.169V312.039L157.071 325.154L146.497 325.829V320.699ZM141.864 338.094L131.272 323.319L133.16 321.569L143.743 336.339L146.488 333.804L151.251 349.164L139.118 340.649L141.864 338.094ZM141.864 292.964L131.272 295.509L133.16 299.439L143.743 296.879L146.488 302.604L151.251 292.744L139.118 287.249L141.864 292.964Z" fill="white"/>
</svg>
