<svg width="226" height="326" viewBox="0 0 226 326" fill="none" xmlns="http://www.w3.org/2000/svg">
<path d="M86.7277 93.7424L72.2305 109.372L124.192 79.3724L138.689 63.7424L86.7277 93.7424Z" fill="#8BC5E4"/>
<path d="M72.2305 109.373L81.8693 114.938L133.831 84.9376L124.192 79.3726L72.2305 109.373Z" fill="#8BC5E4"/>
<path d="M81.8694 114.938V140.388L133.831 110.388V84.9375L81.8694 114.938Z" fill="#8BC5E4"/>
<path d="M70.1259 139.287L54.3989 112.237L106.36 82.2373L122.088 109.287L70.1259 139.287Z" fill="#8BC5E4"/>
<path d="M54.3989 112.237L61.1886 108.317L113.15 78.3174L106.36 82.2374L54.3989 112.237Z" fill="#8BC5E4"/>
<path d="M61.1886 108.318L36.2817 88.6875L88.2432 58.6875L113.15 78.3175L61.1886 108.318Z" fill="#8BC5E4"/>
<path d="M36.2817 88.6875L40.8629 120.072L92.8245 90.0725L88.2432 58.6875L36.2817 88.6875Z" fill="#8BC5E4"/>
<path d="M40.863 120.072L47.6613 116.147L99.6229 86.1475L92.8246 90.0725L40.863 120.072Z" fill="#8BC5E4"/>
<path d="M47.6614 116.147L63.3885 143.197L115.35 113.197L99.623 86.1475L47.6614 116.147Z" fill="#8BC5E4"/>
<path d="M58.6857 153.672L36.5068 140.867L88.4684 110.867L110.647 123.672L58.6857 153.672Z" fill="#8BC5E4"/>
<path d="M36.5068 140.867V129.797L88.4684 99.7974V110.867L36.5068 140.867Z" fill="#8BC5E4"/>
<path d="M36.5068 129.797L15.627 134.212L67.5885 104.212L88.4684 99.7974L36.5068 129.797Z" fill="#8BC5E4"/>
<path d="M15.627 134.212L36.5068 162.927L88.4684 132.927L67.5885 104.212L15.627 134.212Z" fill="#8BC5E4"/>
<path d="M36.5068 162.927V151.857L88.4684 121.857V132.927L36.5068 162.927Z" fill="#8BC5E4"/>
<path d="M36.5068 151.857L58.6511 164.642L110.613 134.642L88.4684 121.857L36.5068 151.857Z" fill="#8BC5E4"/>
<path d="M63.4577 180.697L47.7654 189.687L99.7269 159.687L115.419 150.697L63.4577 180.697Z" fill="#8BC5E4"/>
<path d="M47.7653 189.687L40.9583 177.927L92.9198 147.927L99.7268 159.687L47.7653 189.687Z" fill="#8BC5E4"/>
<path d="M40.9584 177.927L36.4551 204.087L88.4166 174.087L92.9199 147.927L40.9584 177.927Z" fill="#8BC5E4"/>
<path d="M36.4551 204.087L61.3446 213.107L113.306 183.107L88.4166 174.087L36.4551 204.087Z" fill="#8BC5E4"/>
<path d="M61.3445 213.107L54.5376 201.357L106.499 171.357L113.306 183.107L61.3445 213.107Z" fill="#8BC5E4"/>
<path d="M54.5376 201.357L70.1953 192.387L122.157 162.387L106.499 171.357L54.5376 201.357Z" fill="#8BC5E4"/>
<path d="M81.8694 204.688V230.178L133.831 200.177V174.688L81.8694 204.688Z" fill="#8BC5E4"/>
<path d="M81.8693 230.177L72.2305 224.612L124.192 194.612L133.831 200.177L81.8693 230.177Z" fill="#8BC5E4"/>
<path d="M72.2305 224.612L86.7277 256.982L138.689 226.982L124.192 194.612L72.2305 224.612Z" fill="#8BC5E4"/>
<path d="M86.7278 256.982L101.052 241.252L153.013 211.252L138.689 226.982L86.7278 256.982Z" fill="#8BC5E4"/>
<path d="M101.052 241.252L91.4302 235.697L143.392 205.697L153.013 211.252L101.052 241.252Z" fill="#8BC5E4"/>
<path d="M91.4302 235.697V210.237L143.392 180.237V205.697L91.4302 235.697Z" fill="#8BC5E4"/>
<path d="M103.018 211.377L118.762 238.447L170.723 208.447L154.979 181.377L103.018 211.377Z" fill="#8BC5E4"/>
<path d="M118.762 238.447L111.972 242.377L163.934 212.377L170.724 208.447L118.762 238.447Z" fill="#8BC5E4"/>
<path d="M111.972 242.377L137.001 261.937L188.962 231.937L163.934 212.377L111.972 242.377Z" fill="#8BC5E4"/>
<path d="M137 261.938L132.298 230.623L184.259 200.623L188.962 231.938L137 261.938Z" fill="#8BC5E4"/>
<path d="M132.298 230.623L125.5 234.548L177.461 204.548L184.26 200.623L132.298 230.623Z" fill="#8BC5E4"/>
<path d="M125.5 234.547L109.799 207.532L161.76 177.532L177.461 204.547L125.5 234.547Z" fill="#8BC5E4"/>
<path d="M114.605 196.947L136.775 209.747L188.737 179.747L166.566 166.947L114.605 196.947Z" fill="#8BC5E4"/>
<path d="M136.775 209.748V220.818L188.737 190.818V179.748L136.775 209.748Z" fill="#8BC5E4"/>
<path d="M136.775 220.817L157.655 216.212L209.617 186.212L188.737 190.817L136.775 220.817Z" fill="#8BC5E4"/>
<path d="M157.655 216.213L136.775 187.688L188.737 157.688L209.617 186.212L157.655 216.213Z" fill="#8BC5E4"/>
<path d="M136.775 187.688V198.757L188.737 168.757V157.688L136.775 187.688Z" fill="#8BC5E4"/>
<path d="M136.775 198.757L114.631 185.972L166.593 155.972L188.737 168.757L136.775 198.757Z" fill="#8BC5E4"/>
<path d="M109.729 169.713L125.396 160.728L177.357 130.728L161.691 139.713L109.729 169.713Z" fill="#8BC5E4"/>
<path d="M125.396 160.728L132.203 172.478L184.164 142.478L177.357 130.728L125.396 160.728Z" fill="#8BC5E4"/>
<path d="M132.203 172.477L136.827 146.537L188.789 116.537L184.164 142.477L132.203 172.477Z" fill="#8BC5E4"/>
<path d="M136.827 146.537L111.808 137.292L163.769 107.292L188.789 116.537L136.827 146.537Z" fill="#8BC5E4"/>
<path d="M111.808 137.292L118.624 149.057L170.585 119.057L163.769 107.292L111.808 137.292Z" fill="#8BC5E4"/>
<path d="M118.623 149.057L102.957 158.042L154.919 128.042L170.585 119.057L118.623 149.057Z" fill="#8BC5E4"/>
<path d="M91.4302 145.948V120.458L143.392 90.4575V115.948L91.4302 145.948Z" fill="#8BC5E4"/>
<path d="M91.4302 120.458L101.06 126.018L153.022 96.0175L143.392 90.4575L91.4302 120.458Z" fill="#8BC5E4"/>
<path d="M101.061 126.017L86.7278 93.7424L138.689 63.7424L153.022 96.0174L101.061 126.017Z" fill="#8BC5E4"/>
<path d="M86.7278 93.7424L138.689 63.7424L86.7278 93.7424Z" fill="#8BC5E4"/>
<path d="M0.0385742 37.5225V213.092L52.0001 183.092V7.52246L0.0385742 37.5225Z" fill="#8BC5E4"/>
<path d="M10.6648 231.447L162.618 319.177L214.579 289.177L62.6264 201.447L10.6648 231.447Z" fill="#8BC5E4"/>
<path d="M173.244 313.092V137.522L225.205 107.522V283.092L173.244 313.092Z" fill="#8BC5E4"/>
<path d="M162.618 119.177L10.6648 31.4473L62.6264 1.44727L214.579 89.1773L162.618 119.177Z" fill="#8BC5E4"/>
<path d="M10.6648 31.4473L62.6264 1.44727L10.6648 31.4473Z" fill="#8BC5E4"/>
<path d="M10.6648 36.9673L162.618 124.697L214.579 94.6973L62.6264 6.96729L10.6648 36.9673Z" fill="#8BC5E4"/>
<path d="M168.446 134.752V310.322L220.407 280.322V104.752L168.446 134.752Z" fill="#8BC5E4"/>
<path d="M162.618 313.657L10.6648 225.927L62.6264 195.927L214.579 283.657L162.618 313.657Z" fill="#8BC5E4"/>
<path d="M4.83643 215.862V40.2925L56.7979 10.2925V185.862L4.83643 215.862Z" fill="#8BC5E4"/>
<path d="M10.6648 36.9673L62.6264 6.96729L10.6648 36.9673Z" fill="#8BC5E4"/>
<path d="M162.618 124.697L10.6648 36.9673L62.6264 6.96729L214.579 94.6973L162.618 124.697Z" fill="#8BC5E4"/>
<path d="M4.83643 40.2925V215.862L56.7979 185.862V10.2925L4.83643 40.2925Z" fill="#8BC5E4"/>
<path d="M10.6648 225.927L162.618 313.657L214.579 283.657L62.6264 195.927L10.6648 225.927Z" fill="#8BC5E4"/>
<path d="M168.446 310.322V134.752L220.407 104.752V280.322L168.446 310.322Z" fill="#8BC5E4"/>
<path d="M162.617 124.697L214.579 94.6973L162.617 124.697Z" fill="#8BC5E4"/>
<path d="M86.7277 93.7424L72.2305 109.372L124.192 79.3724L138.689 63.7424L86.7277 93.7424Z" fill="#8BC5E4"/>
<path d="M72.2305 109.373L81.8693 114.938L133.831 84.9376L124.192 79.3726L72.2305 109.373Z" fill="#8BC5E4"/>
<path d="M81.8694 114.938V140.388L133.831 110.388V84.9375L81.8694 114.938Z" fill="#8BC5E4"/>
<path d="M70.1259 139.287L54.3989 112.237L106.36 82.2373L122.088 109.287L70.1259 139.287Z" fill="#8BC5E4"/>
<path d="M54.3989 112.237L61.1886 108.317L113.15 78.3174L106.36 82.2374L54.3989 112.237Z" fill="#8BC5E4"/>
<path d="M61.1886 108.318L36.2817 88.6875L88.2432 58.6875L113.15 78.3175L61.1886 108.318Z" fill="#8BC5E4"/>
<path d="M36.2817 88.6875L40.8629 120.072L92.8245 90.0725L88.2432 58.6875L36.2817 88.6875Z" fill="#8BC5E4"/>
<path d="M40.863 120.072L47.6613 116.147L99.6229 86.1475L92.8246 90.0725L40.863 120.072Z" fill="#8BC5E4"/>
<path d="M47.6614 116.147L63.3885 143.197L115.35 113.197L99.623 86.1475L47.6614 116.147Z" fill="#8BC5E4"/>
<path d="M58.6857 153.672L36.5068 140.867L88.4684 110.867L110.647 123.672L58.6857 153.672Z" fill="#8BC5E4"/>
<path d="M36.5068 140.867V129.797L88.4684 99.7974V110.867L36.5068 140.867Z" fill="#8BC5E4"/>
<path d="M36.5068 129.797L15.627 134.212L67.5885 104.212L88.4684 99.7974L36.5068 129.797Z" fill="#8BC5E4"/>
<path d="M15.627 134.212L36.5068 162.927L88.4684 132.927L67.5885 104.212L15.627 134.212Z" fill="#8BC5E4"/>
<path d="M36.5068 162.927V151.857L88.4684 121.857V132.927L36.5068 162.927Z" fill="#8BC5E4"/>
<path d="M36.5068 151.857L58.6511 164.642L110.613 134.642L88.4684 121.857L36.5068 151.857Z" fill="#8BC5E4"/>
<path d="M63.4577 180.697L47.7654 189.687L99.7269 159.687L115.419 150.697L63.4577 180.697Z" fill="#8BC5E4"/>
<path d="M47.7653 189.687L40.9583 177.927L92.9198 147.927L99.7268 159.687L47.7653 189.687Z" fill="#8BC5E4"/>
<path d="M40.9584 177.927L36.4551 204.087L88.4166 174.087L92.9199 147.927L40.9584 177.927Z" fill="#8BC5E4"/>
<path d="M36.4551 204.087L61.3446 213.107L113.306 183.107L88.4166 174.087L36.4551 204.087Z" fill="#8BC5E4"/>
<path d="M61.3445 213.107L54.5376 201.357L106.499 171.357L113.306 183.107L61.3445 213.107Z" fill="#8BC5E4"/>
<path d="M54.5376 201.357L70.1953 192.387L122.157 162.387L106.499 171.357L54.5376 201.357Z" fill="#8BC5E4"/>
<path d="M81.8694 204.688V230.178L133.831 200.177V174.688L81.8694 204.688Z" fill="#8BC5E4"/>
<path d="M81.8693 230.177L72.2305 224.612L124.192 194.612L133.831 200.177L81.8693 230.177Z" fill="#8BC5E4"/>
<path d="M72.2305 224.612L86.7277 256.982L138.689 226.982L124.192 194.612L72.2305 224.612Z" fill="#8BC5E4"/>
<path d="M86.7278 256.982L101.052 241.252L153.013 211.252L138.689 226.982L86.7278 256.982Z" fill="#8BC5E4"/>
<path d="M101.052 241.252L91.4302 235.697L143.392 205.697L153.013 211.252L101.052 241.252Z" fill="#8BC5E4"/>
<path d="M91.4302 235.697V210.237L143.392 180.237V205.697L91.4302 235.697Z" fill="#8BC5E4"/>
<path d="M103.018 211.377L118.762 238.447L170.723 208.447L154.979 181.377L103.018 211.377Z" fill="#8BC5E4"/>
<path d="M118.762 238.447L111.972 242.377L163.934 212.377L170.724 208.447L118.762 238.447Z" fill="#8BC5E4"/>
<path d="M111.972 242.377L137.001 261.937L188.962 231.937L163.934 212.377L111.972 242.377Z" fill="#8BC5E4"/>
<path d="M137 261.938L132.298 230.623L184.259 200.623L188.962 231.938L137 261.938Z" fill="#8BC5E4"/>
<path d="M132.298 230.623L125.5 234.548L177.461 204.548L184.26 200.623L132.298 230.623Z" fill="#8BC5E4"/>
<path d="M125.5 234.547L109.799 207.532L161.76 177.532L177.461 204.547L125.5 234.547Z" fill="#8BC5E4"/>
<path d="M114.605 196.947L136.775 209.747L188.737 179.747L166.566 166.947L114.605 196.947Z" fill="#8BC5E4"/>
<path d="M136.775 209.748V220.818L188.737 190.818V179.748L136.775 209.748Z" fill="#8BC5E4"/>
<path d="M136.775 220.817L157.655 216.212L209.617 186.212L188.737 190.817L136.775 220.817Z" fill="#8BC5E4"/>
<path d="M157.655 216.213L136.775 187.688L188.737 157.688L209.617 186.212L157.655 216.213Z" fill="#8BC5E4"/>
<path d="M136.775 187.688V198.757L188.737 168.757V157.688L136.775 187.688Z" fill="#8BC5E4"/>
<path d="M136.775 198.757L114.631 185.972L166.593 155.972L188.737 168.757L136.775 198.757Z" fill="#8BC5E4"/>
<path d="M109.729 169.713L125.396 160.728L177.357 130.728L161.691 139.713L109.729 169.713Z" fill="#8BC5E4"/>
<path d="M125.396 160.728L132.203 172.478L184.164 142.478L177.357 130.728L125.396 160.728Z" fill="#8BC5E4"/>
<path d="M132.203 172.477L136.827 146.537L188.789 116.537L184.164 142.477L132.203 172.477Z" fill="#8BC5E4"/>
<path d="M136.827 146.537L111.808 137.292L163.769 107.292L188.789 116.537L136.827 146.537Z" fill="#8BC5E4"/>
<path d="M111.808 137.292L118.624 149.057L170.585 119.057L163.769 107.292L111.808 137.292Z" fill="#8BC5E4"/>
<path d="M118.623 149.057L102.957 158.042L154.919 128.042L170.585 119.057L118.623 149.057Z" fill="#8BC5E4"/>
<path d="M91.4302 145.948V120.458L143.392 90.4575V115.948L91.4302 145.948Z" fill="#8BC5E4"/>
<path d="M91.4302 120.458L101.06 126.018L153.022 96.0175L143.392 90.4575L91.4302 120.458Z" fill="#8BC5E4"/>
<path d="M101.061 126.017L86.7278 93.7424L138.689 63.7424L153.022 96.0174L101.061 126.017Z" fill="#8BC5E4"/>
<path d="M86.7278 93.7424L138.689 63.7424L86.7278 93.7424Z" fill="#8BC5E4"/>
<path d="M10.6648 36.9673L162.618 124.697L214.579 94.6973L62.6264 6.96729L10.6648 36.9673Z" fill="#8BC5E4"/>
<path d="M168.446 134.752V310.322L220.407 280.322V104.752L168.446 134.752Z" fill="#8BC5E4"/>
<path d="M162.618 313.657L10.6648 225.927L62.6264 195.927L214.579 283.657L162.618 313.657Z" fill="#8BC5E4"/>
<path d="M4.83643 215.862V40.2925L56.7979 10.2925V185.862L4.83643 215.862Z" fill="#8BC5E4"/>
<path d="M10.6648 36.9673L62.6264 6.96729L10.6648 36.9673Z" fill="#8BC5E4"/>
<path d="M72.2305 109.372L86.7277 93.7424L138.689 63.7424L124.192 79.3724L72.2305 109.372Z" fill="#8BC5E4"/>
<path d="M86.7278 93.7424L101.061 126.017L153.022 96.0174L138.689 63.7424L86.7278 93.7424Z" fill="#8BC5E4"/>
<path d="M101.06 126.018L91.4302 120.458L143.392 90.4575L153.022 96.0175L101.06 126.018Z" fill="#8BC5E4"/>
<path d="M91.4302 120.458V145.948L143.392 115.948V90.4575L91.4302 120.458Z" fill="#8BC5E4"/>
<path d="M102.957 158.042L118.623 149.057L170.585 119.057L154.919 128.042L102.957 158.042Z" fill="#8BC5E4"/>
<path d="M118.624 149.057L111.808 137.292L163.769 107.292L170.585 119.057L118.624 149.057Z" fill="#8BC5E4"/>
<path d="M111.808 137.292L136.827 146.537L188.789 116.537L163.769 107.292L111.808 137.292Z" fill="#8BC5E4"/>
<path d="M136.827 146.537L132.203 172.477L184.164 142.477L188.789 116.537L136.827 146.537Z" fill="#8BC5E4"/>
<path d="M132.203 172.478L125.396 160.728L177.357 130.728L184.164 142.478L132.203 172.478Z" fill="#8BC5E4"/>
<path d="M125.396 160.728L109.729 169.713L161.691 139.713L177.357 130.728L125.396 160.728Z" fill="#8BC5E4"/>
<path d="M114.631 185.972L136.775 198.757L188.737 168.757L166.593 155.972L114.631 185.972Z" fill="#8BC5E4"/>
<path d="M136.775 198.757V187.688L188.737 157.688V168.757L136.775 198.757Z" fill="#8BC5E4"/>
<path d="M136.775 187.688L157.655 216.213L209.617 186.212L188.737 157.688L136.775 187.688Z" fill="#8BC5E4"/>
<path d="M157.655 216.212L136.775 220.817L188.737 190.817L209.617 186.212L157.655 216.212Z" fill="#8BC5E4"/>
<path d="M136.775 220.818V209.748L188.737 179.748V190.818L136.775 220.818Z" fill="#8BC5E4"/>
<path d="M136.775 209.747L114.605 196.947L166.566 166.947L188.737 179.747L136.775 209.747Z" fill="#8BC5E4"/>
<path d="M109.799 207.532L125.5 234.547L177.461 204.547L161.76 177.532L109.799 207.532Z" fill="#8BC5E4"/>
<path d="M125.5 234.548L132.298 230.623L184.26 200.623L177.461 204.548L125.5 234.548Z" fill="#8BC5E4"/>
<path d="M132.298 230.623L137 261.938L188.962 231.938L184.259 200.623L132.298 230.623Z" fill="#8BC5E4"/>
<path d="M137.001 261.937L111.972 242.377L163.934 212.377L188.962 231.937L137.001 261.937Z" fill="#8BC5E4"/>
<path d="M111.972 242.377L118.762 238.447L170.724 208.447L163.934 212.377L111.972 242.377Z" fill="#8BC5E4"/>
<path d="M118.762 238.447L103.018 211.377L154.979 181.377L170.723 208.447L118.762 238.447Z" fill="#8BC5E4"/>
<path d="M91.4302 210.237V235.697L143.392 205.697V180.237L91.4302 210.237Z" fill="#8BC5E4"/>
<path d="M91.4302 235.697L101.052 241.252L153.013 211.252L143.392 205.697L91.4302 235.697Z" fill="#8BC5E4"/>
<path d="M101.052 241.252L86.7278 256.982L138.689 226.982L153.013 211.252L101.052 241.252Z" fill="#8BC5E4"/>
<path d="M86.7277 256.982L72.2305 224.612L124.192 194.612L138.689 226.982L86.7277 256.982Z" fill="#8BC5E4"/>
<path d="M72.2305 224.612L81.8693 230.177L133.831 200.177L124.192 194.612L72.2305 224.612Z" fill="#8BC5E4"/>
<path d="M81.8694 230.178V204.688L133.831 174.688V200.177L81.8694 230.178Z" fill="#8BC5E4"/>
<path d="M70.1953 192.387L54.5376 201.357L106.499 171.357L122.157 162.387L70.1953 192.387Z" fill="#8BC5E4"/>
<path d="M54.5376 201.357L61.3445 213.107L113.306 183.107L106.499 171.357L54.5376 201.357Z" fill="#8BC5E4"/>
<path d="M61.3446 213.107L36.4551 204.087L88.4166 174.087L113.306 183.107L61.3446 213.107Z" fill="#8BC5E4"/>
<path d="M36.4551 204.087L40.9584 177.927L92.9199 147.927L88.4166 174.087L36.4551 204.087Z" fill="#8BC5E4"/>
<path d="M40.9583 177.927L47.7653 189.687L99.7268 159.687L92.9198 147.927L40.9583 177.927Z" fill="#8BC5E4"/>
<path d="M47.7654 189.687L63.4577 180.697L115.419 150.697L99.7269 159.687L47.7654 189.687Z" fill="#8BC5E4"/>
<path d="M58.6511 164.642L36.5068 151.857L88.4684 121.857L110.613 134.642L58.6511 164.642Z" fill="#8BC5E4"/>
<path d="M36.5068 151.857V162.927L88.4684 132.927V121.857L36.5068 151.857Z" fill="#8BC5E4"/>
<path d="M36.5068 162.927L15.627 134.212L67.5885 104.212L88.4684 132.927L36.5068 162.927Z" fill="#8BC5E4"/>
<path d="M15.627 134.212L36.5068 129.797L88.4684 99.7974L67.5885 104.212L15.627 134.212Z" fill="#8BC5E4"/>
<path d="M36.5068 129.797V140.867L88.4684 110.867V99.7974L36.5068 129.797Z" fill="#8BC5E4"/>
<path d="M36.5068 140.867L58.6857 153.672L110.647 123.672L88.4684 110.867L36.5068 140.867Z" fill="#8BC5E4"/>
<path d="M63.3885 143.197L47.6614 116.147L99.623 86.1475L115.35 113.197L63.3885 143.197Z" fill="#8BC5E4"/>
<path d="M47.6613 116.147L40.863 120.072L92.8246 90.0725L99.6229 86.1475L47.6613 116.147Z" fill="#8BC5E4"/>
<path d="M40.8629 120.072L36.2817 88.6875L88.2432 58.6875L92.8245 90.0725L40.8629 120.072Z" fill="#8BC5E4"/>
<path d="M36.2817 88.6875L61.1886 108.318L113.15 78.3175L88.2432 58.6875L36.2817 88.6875Z" fill="#8BC5E4"/>
<path d="M61.1886 108.317L54.3989 112.237L106.36 82.2374L113.15 78.3174L61.1886 108.317Z" fill="#8BC5E4"/>
<path d="M54.3989 112.237L70.1259 139.287L122.088 109.287L106.36 82.2373L54.3989 112.237Z" fill="#8BC5E4"/>
<path d="M81.8694 140.388V114.938L133.831 84.9375V110.388L81.8694 140.388Z" fill="#8BC5E4"/>
<path d="M81.8693 114.938L72.2305 109.373L124.192 79.3726L133.831 84.9376L81.8693 114.938Z" fill="#8BC5E4"/>
<path d="M72.2305 109.373L124.192 79.3726L72.2305 109.373Z" fill="#8BC5E4"/>
<path d="M0.0385742 37.5322V213.092L52.0001 183.092V7.53223L0.0385742 37.5322Z" fill="#8BC5E4"/>
<path d="M173.244 313.092V137.532L225.205 107.532V283.092L173.244 313.092Z" fill="#8BC5E4"/>
<path d="M81.8693 140.387C77.6258 138.787 73.6161 138.412 70.126 139.287L122.088 109.287C125.578 108.412 129.587 108.787 133.831 110.387L81.8693 140.387Z" fill="#8BC5E4"/>
<path d="M63.3884 143.197C60.9895 145.752 59.3873 149.337 58.6858 153.672L110.647 123.672C111.349 119.337 112.951 115.752 115.35 113.197L63.3884 143.197Z" fill="#8BC5E4"/>
<path d="M58.6511 164.642C59.3786 169.842 61.0154 175.327 63.4575 180.697L115.419 150.697C112.977 145.327 111.34 139.842 110.613 134.642L58.6511 164.642Z" fill="#8BC5E4"/>
<path d="M70.1953 192.387C73.6681 197.232 77.6605 201.437 81.8693 204.687L133.831 174.687C129.622 171.437 125.63 167.232 122.157 162.387L70.1953 192.387Z" fill="#8BC5E4"/>
<path d="M91.4302 210.237C95.6044 211.817 99.5621 212.202 103.018 211.377L154.979 181.377C151.524 182.202 147.566 181.817 143.392 180.237L91.4302 210.237Z" fill="#8BC5E4"/>
<path d="M109.799 207.532C112.249 204.957 113.886 201.342 114.605 196.947L166.566 166.947C165.848 171.342 164.211 174.957 161.76 177.532L109.799 207.532Z" fill="#8BC5E4"/>
<path d="M114.631 185.972C113.895 180.707 112.224 175.152 109.729 169.712L161.691 139.712C164.185 145.152 165.857 150.707 166.593 155.972L114.631 185.972Z" fill="#8BC5E4"/>
<path d="M102.957 158.042C99.5102 153.282 95.5784 149.152 91.4302 145.947L143.392 115.947C147.54 119.152 151.472 123.282 154.918 128.042L102.957 158.042Z" fill="#8BC5E4"/>
<path d="M10.6647 31.4474C7.75362 29.7664 5.10662 29.6004 3.18262 30.6864L55.1441 0.686397C57.0681 -0.399603 59.7151 -0.233603 62.6263 1.4474L10.6647 31.4474Z" fill="#8BC5E4"/>
<path d="M3.17357 30.6914C1.24157 31.7874 0.0415742 34.1494 0.0385742 37.5124L52.0001 7.51241C52.0031 4.14941 53.2031 1.78741 55.1351 0.691406L3.17357 30.6914Z" fill="#8BC5E4"/>
<path d="M0.0385742 213.092C0.0385742 219.812 4.81907 228.072 10.6647 231.447L62.6263 201.447C56.7806 198.072 52.0001 189.812 52.0001 183.092L0.0385742 213.092Z" fill="#8BC5E4"/>
<path d="M162.617 319.177C165.535 320.861 168.187 321.023 170.112 319.927L222.073 289.927C220.148 291.023 217.496 290.861 214.579 289.177L162.617 319.177Z" fill="#8BC5E4"/>
<path d="M170.109 319.929C172.041 318.831 173.241 316.466 173.244 313.103L225.205 283.103C225.202 286.466 224.002 288.831 222.07 289.929L170.109 319.929Z" fill="#8BC5E4"/>
<path d="M173.244 137.522C173.244 130.802 168.446 122.542 162.617 119.177L214.579 89.1772C220.407 92.5422 225.205 100.802 225.205 107.522L173.244 137.522Z" fill="#8BC5E4"/>
<path d="M162.617 124.697C165.891 126.587 168.446 130.992 168.446 134.752L220.407 104.752C220.407 100.992 217.853 96.5873 214.579 94.6973L162.617 124.697Z" fill="#8BC5E4"/>
<path d="M168.446 310.322C168.446 312.202 167.808 313.508 166.76 314.108L218.721 284.108C219.769 283.508 220.407 282.202 220.407 280.322L168.446 310.322Z" fill="#8BC5E4"/>
<path d="M166.749 314.115C165.703 314.707 164.252 314.599 162.623 313.66L214.584 283.66C216.213 284.599 217.664 284.707 218.71 284.115L166.749 314.115Z" fill="#8BC5E4"/>
<path d="M10.6647 225.927C7.39123 224.037 4.83643 219.622 4.83643 215.862L56.7979 185.862C56.7979 189.622 59.3527 194.037 62.6263 195.927L10.6647 225.927Z" fill="#8BC5E4"/>
<path d="M4.83643 40.2924C4.83663 38.4054 5.47963 37.0984 6.53563 36.5044L58.4971 6.50439C57.4411 7.09839 56.7981 8.40539 56.7979 10.2924L4.83643 40.2924Z" fill="#8BC5E4"/>
<path d="M6.53369 36.5054C7.57969 35.9144 9.03069 36.0254 10.6597 36.9644L62.6212 6.96437C60.9922 6.02537 59.5412 5.91437 58.4952 6.50537L6.53369 36.5054Z" fill="#8BC5E4"/>
<path d="M10.6647 36.9673C9.03464 36.0263 7.58264 35.9143 6.53564 36.5043L58.4971 6.50433C59.5441 5.91433 60.9961 6.02633 62.6263 6.96733L10.6647 36.9673Z" fill="#8BC5E4"/>
<path d="M6.52467 36.5103C5.47667 37.1063 4.83767 38.4083 4.83667 40.2863L56.7982 10.2863C56.7992 8.40825 57.4382 7.10625 58.4862 6.51025L6.52467 36.5103Z" fill="#8BC5E4"/>
<path d="M4.83643 215.862C4.83643 219.622 7.39123 224.037 10.6647 225.927L62.6263 195.927C59.3527 194.037 56.7979 189.622 56.7979 185.862L4.83643 215.862Z" fill="#8BC5E4"/>
<path d="M162.617 313.657C164.255 314.602 165.712 314.708 166.76 314.108L218.721 284.108C217.673 284.708 216.216 284.602 214.579 283.657L162.617 313.657Z" fill="#8BC5E4"/>
<path d="M166.758 314.109C167.806 313.51 168.445 312.206 168.446 310.328L220.407 280.328C220.406 282.206 219.767 283.51 218.719 284.109L166.758 314.109Z" fill="#8BC5E4"/>
<path d="M168.446 134.752C168.446 130.992 165.891 126.587 162.617 124.697L214.579 94.6973C217.853 96.5873 220.407 100.992 220.407 104.752L168.446 134.752Z" fill="#8BC5E4"/>
<path d="M81.8693 140.387C77.6258 138.787 73.6161 138.412 70.126 139.287L122.088 109.287C125.578 108.412 129.587 108.787 133.831 110.387L81.8693 140.387Z" fill="#8BC5E4"/>
<path d="M63.3884 143.197C60.9895 145.752 59.3873 149.337 58.6858 153.672L110.647 123.672C111.349 119.337 112.951 115.752 115.35 113.197L63.3884 143.197Z" fill="#8BC5E4"/>
<path d="M58.6511 164.642C59.3786 169.842 61.0154 175.327 63.4575 180.697L115.419 150.697C112.977 145.327 111.34 139.842 110.613 134.642L58.6511 164.642Z" fill="#8BC5E4"/>
<path d="M70.1953 192.387C73.6681 197.232 77.6605 201.437 81.8693 204.687L133.831 174.687C129.622 171.437 125.63 167.232 122.157 162.387L70.1953 192.387Z" fill="#8BC5E4"/>
<path d="M91.4302 210.237C95.6044 211.817 99.5621 212.202 103.018 211.377L154.979 181.377C151.524 182.202 147.566 181.817 143.392 180.237L91.4302 210.237Z" fill="#8BC5E4"/>
<path d="M109.799 207.532C112.249 204.957 113.886 201.342 114.605 196.947L166.566 166.947C165.848 171.342 164.211 174.957 161.76 177.532L109.799 207.532Z" fill="#8BC5E4"/>
<path d="M114.631 185.972C113.895 180.707 112.224 175.152 109.729 169.712L161.691 139.712C164.185 145.152 165.857 150.707 166.593 155.972L114.631 185.972Z" fill="#8BC5E4"/>
<path d="M102.957 158.042C99.5102 153.282 95.5784 149.152 91.4302 145.947L143.392 115.947C147.54 119.152 151.472 123.282 154.918 128.042L102.957 158.042Z" fill="#8BC5E4"/>
<path d="M162.617 124.697C165.891 126.587 168.446 130.992 168.446 134.752L220.407 104.752C220.407 100.992 217.853 96.5873 214.579 94.6973L162.617 124.697Z" fill="#8BC5E4"/>
<path d="M168.446 310.322C168.446 312.202 167.808 313.508 166.76 314.108L218.721 284.108C219.769 283.508 220.407 282.202 220.407 280.322L168.446 310.322Z" fill="#8BC5E4"/>
<path d="M166.749 314.115C165.703 314.707 164.252 314.599 162.623 313.66L214.584 283.66C216.213 284.599 217.664 284.707 218.71 284.115L166.749 314.115Z" fill="#8BC5E4"/>
<path d="M10.6647 225.927C7.39123 224.037 4.83643 219.622 4.83643 215.862L56.7979 185.862C56.7979 189.622 59.3527 194.037 62.6263 195.927L10.6647 225.927Z" fill="#8BC5E4"/>
<path d="M4.83643 40.2924C4.83663 38.4054 5.47963 37.0984 6.53563 36.5044L58.4971 6.50439C57.4411 7.09839 56.7981 8.40539 56.7979 10.2924L4.83643 40.2924Z" fill="#8BC5E4"/>
<path d="M6.53369 36.5054C7.57969 35.9144 9.03069 36.0254 10.6597 36.9644L62.6212 6.96437C60.9922 6.02537 59.5412 5.91437 58.4952 6.50537L6.53369 36.5054Z" fill="#8BC5E4"/>
<path d="M91.4302 145.947C95.5784 149.152 99.5102 153.282 102.957 158.042L154.918 128.042C151.472 123.282 147.54 119.152 143.392 115.947L91.4302 145.947Z" fill="#8BC5E4"/>
<path d="M109.729 169.712C112.224 175.152 113.895 180.707 114.631 185.972L166.593 155.972C165.857 150.707 164.185 145.152 161.691 139.712L109.729 169.712Z" fill="#8BC5E4"/>
<path d="M114.605 196.947C113.886 201.342 112.249 204.957 109.799 207.532L161.76 177.532C164.211 174.957 165.848 171.342 166.566 166.947L114.605 196.947Z" fill="#8BC5E4"/>
<path d="M103.018 211.377C99.5621 212.202 95.6044 211.817 91.4302 210.237L143.392 180.237C147.566 181.817 151.524 182.202 154.979 181.377L103.018 211.377Z" fill="#8BC5E4"/>
<path d="M81.8693 204.687C77.6605 201.437 73.6681 197.232 70.1953 192.387L122.157 162.387C125.63 167.232 129.622 171.437 133.831 174.687L81.8693 204.687Z" fill="#8BC5E4"/>
<path d="M63.4575 180.697C61.0154 175.327 59.3786 169.842 58.6511 164.642L110.613 134.642C111.34 139.842 112.977 145.327 115.419 150.697L63.4575 180.697Z" fill="#8BC5E4"/>
<path d="M58.6858 153.672C59.3873 149.337 60.9895 145.752 63.3884 143.197L115.35 113.197C112.951 115.752 111.349 119.337 110.647 123.672L58.6858 153.672Z" fill="#8BC5E4"/>
<path d="M70.126 139.287C73.6161 138.412 77.6258 138.787 81.8693 140.387L133.831 110.387C129.587 108.787 125.578 108.412 122.088 109.287L70.126 139.287Z" fill="#8BC5E4"/>
<path d="M10.6648 31.4474C7.74765 29.7634 5.09565 29.5994 3.17065 30.6944L55.1322 0.694385C57.0572 -0.400615 59.7092 -0.236615 62.6264 1.44738L10.6648 31.4474Z" fill="#8BC5E4"/>
<path d="M3.16257 30.6992C1.23657 31.7992 0.0415742 34.1612 0.0385742 37.5222L52.0001 7.52222C52.0031 4.16122 53.1981 1.79922 55.1241 0.699219L3.16257 30.6992Z" fill="#8BC5E4"/>
<path d="M0.0385742 213.092C0.0385742 219.822 4.81907 228.072 10.6647 231.447L62.6263 201.447C56.7806 198.072 52.0001 189.822 52.0001 183.092L0.0385742 213.092Z" fill="#8BC5E4"/>
<path d="M162.617 319.177C165.535 320.861 168.187 321.025 170.112 319.93L222.073 289.93C220.148 291.025 217.496 290.861 214.579 289.177L162.617 319.177Z" fill="#8BC5E4"/>
<path d="M170.12 319.926C172.046 318.827 173.241 316.464 173.244 313.103L225.205 283.103C225.202 286.464 224.007 288.827 222.081 289.926L170.12 319.926Z" fill="#8BC5E4"/>
<path d="M173.244 137.532C173.244 130.802 168.463 122.552 162.617 119.177L214.579 89.1772C220.425 92.5522 225.205 100.802 225.205 107.532L173.244 137.532Z" fill="#8BC5E4"/>
<path d="M86.7277 93.7425L72.2305 109.373L81.8693 114.938V140.388C77.6258 138.787 73.6161 138.413 70.126 139.288L54.399 112.238L61.1886 108.318L36.2817 88.6875L40.863 120.073L47.6613 116.148L63.3883 143.197C60.9894 145.753 59.3873 149.338 58.6858 153.673L36.5069 140.868V129.798L15.627 134.213L36.5069 162.927V151.857L58.6512 164.642C59.3786 169.842 61.0154 175.327 63.4576 180.697L47.7652 189.688L40.9583 177.928L36.4549 204.087L61.3445 213.107L54.5376 201.358L70.1953 192.388C73.6681 197.233 77.6604 201.437 81.8693 204.688V230.177L72.2305 224.612L86.7277 256.982L101.052 241.252L91.4302 235.697V210.238C95.6045 211.818 99.5622 212.203 103.018 211.378L118.762 238.447L111.972 242.378L137 261.938L132.298 230.622L125.5 234.548L109.799 207.532C112.249 204.957 113.886 201.342 114.605 196.947L136.775 209.747V220.817L157.655 216.213L136.775 187.688V198.757L114.631 185.973C113.895 180.708 112.224 175.153 109.729 169.713L125.396 160.728L132.203 172.478L136.827 146.537L111.808 137.292L118.623 149.057L102.957 158.042C99.5102 153.282 95.5785 149.153 91.4302 145.948V120.458L101.06 126.018L86.7277 93.7425ZM10.6647 31.4475C4.81903 28.0725 0.0385742 30.8025 0.0385742 37.5225V213.092C0.0385742 219.812 4.81903 228.073 10.6647 231.448L162.618 319.177C168.463 322.552 173.244 319.812 173.244 313.092V137.523C173.244 130.803 168.446 122.543 162.618 119.177L10.6647 31.4475ZM10.6647 36.9675L162.618 124.697C165.891 126.587 168.446 130.993 168.446 134.753V310.323C168.446 314.082 165.891 315.547 162.618 313.657L10.6647 225.927C7.39113 224.037 4.83635 219.622 4.83635 215.862V40.2925C4.83635 36.5325 7.39113 35.0775 10.6647 36.9675Z" fill="#8BC5E4"/>
<path fill-rule="evenodd" clip-rule="evenodd" d="M10.6647 36.9675L162.618 124.697C165.891 126.587 168.446 130.993 168.446 134.753V310.323C168.446 314.082 165.891 315.547 162.618 313.657L10.6647 225.927C7.39113 224.037 4.83635 219.622 4.83635 215.862V40.2925C4.83635 36.5325 7.39113 35.0775 10.6647 36.9675ZM72.2305 109.373L86.7277 93.7425L101.06 126.018L91.4302 120.458V145.948C95.5785 149.153 99.5102 153.282 102.957 158.042L118.623 149.057L111.808 137.292L136.827 146.537L132.203 172.478L125.396 160.728L109.729 169.713C112.224 175.153 113.895 180.708 114.631 185.973L136.775 198.757V187.688L157.655 216.213L136.775 220.817V209.747L114.605 196.947C113.886 201.342 112.249 204.957 109.799 207.532L125.5 234.548L132.298 230.622L137 261.938L111.972 242.378L118.762 238.447L103.018 211.378C99.5622 212.203 95.6045 211.818 91.4302 210.238V235.697L101.052 241.252L86.7277 256.982L72.2305 224.612L81.8693 230.177V204.688C77.6604 201.437 73.6681 197.233 70.1953 192.388L54.5376 201.358L61.3445 213.107L36.4549 204.087L40.9583 177.928L47.7652 189.688L63.4576 180.697C61.0154 175.327 59.3786 169.842 58.6512 164.642L36.5069 151.857V162.927L15.627 134.213L36.5069 129.798V140.868L58.6858 153.673C59.3873 149.338 60.9894 145.753 63.3883 143.197L47.6613 116.148L40.863 120.073L36.2817 88.6875L61.1886 108.318L54.399 112.238L70.126 139.288C73.6161 138.413 77.6258 138.787 81.8693 140.388V114.938L72.2305 109.373Z" fill="white"/>
</svg>
