<svg width="226" height="326" viewBox="0 0 226 326" fill="none" xmlns="http://www.w3.org/2000/svg">
<path d="M138.689 93.6421L124.192 126.012L72.2305 96.0121L86.7277 63.6421L138.689 93.6421Z" fill="#8BC5E4"/>
<path d="M124.192 126.012L133.831 120.447L81.8693 90.4473L72.2305 96.0123L124.192 126.012Z" fill="#8BC5E4"/>
<path d="M133.831 120.447V145.897L81.8691 115.897V90.4473L133.831 120.447Z" fill="#8BC5E4"/>
<path d="M122.087 158.357L106.36 149.467L54.3989 119.467L70.1259 128.357L122.087 158.357Z" fill="#8BC5E4"/>
<path d="M106.36 149.467L113.15 137.707L61.1885 107.707L54.3989 119.467L106.36 149.467Z" fill="#8BC5E4"/>
<path d="M113.15 137.707L88.2431 146.837L36.2815 116.837L61.1884 107.707L113.15 137.707Z" fill="#8BC5E4"/>
<path d="M88.2431 146.837L92.8243 172.932L40.8628 142.932L36.2815 116.837L88.2431 146.837Z" fill="#8BC5E4"/>
<path d="M92.8243 172.932L99.6226 161.157L47.6611 131.157L40.8628 142.932L92.8243 172.932Z" fill="#8BC5E4"/>
<path d="M99.6226 161.157L115.35 170.047L63.3881 140.047L47.6611 131.157L99.6226 161.157Z" fill="#8BC5E4"/>
<path d="M110.647 185.952L88.4683 198.757L36.5068 168.757L58.6857 155.952L110.647 185.952Z" fill="#8BC5E4"/>
<path d="M88.4683 198.757V187.687L36.5068 157.687V168.757L88.4683 198.757Z" fill="#8BC5E4"/>
<path d="M88.4684 187.687L67.5886 216.212L15.627 186.212L36.5069 157.687L88.4684 187.687Z" fill="#8BC5E4"/>
<path d="M67.5886 216.212L88.4684 220.817L36.5069 190.817L15.627 186.212L67.5886 216.212Z" fill="#8BC5E4"/>
<path d="M88.4683 220.817V209.747L36.5068 179.747V190.817L88.4683 220.817Z" fill="#8BC5E4"/>
<path d="M88.4683 209.747L110.613 196.962L58.6511 166.962L36.5068 179.747L88.4683 209.747Z" fill="#8BC5E4"/>
<path d="M115.419 207.467L99.7267 234.577L47.7651 204.577L63.4575 177.467L115.419 207.467Z" fill="#8BC5E4"/>
<path d="M99.7268 234.577L92.9198 230.677L40.9583 200.677L47.7652 204.577L99.7268 234.577Z" fill="#8BC5E4"/>
<path d="M92.9197 230.677L88.4164 262.037L36.4548 232.037L40.9582 200.677L92.9197 230.677Z" fill="#8BC5E4"/>
<path d="M88.4164 262.037L113.306 242.317L61.3444 212.317L36.4548 232.037L88.4164 262.037Z" fill="#8BC5E4"/>
<path d="M113.306 242.317L106.499 238.427L54.5376 208.427L61.3445 212.317L113.306 242.317Z" fill="#8BC5E4"/>
<path d="M106.499 238.427L122.157 211.377L70.1953 181.377L54.5376 208.427L106.499 238.427Z" fill="#8BC5E4"/>
<path d="M133.831 210.197V235.687L81.8691 205.687V180.197L133.831 210.197Z" fill="#8BC5E4"/>
<path d="M133.831 235.687L124.192 241.252L72.2305 211.252L81.8693 205.687L133.831 235.687Z" fill="#8BC5E4"/>
<path d="M124.192 241.252L138.689 256.882L86.7277 226.882L72.2305 211.252L124.192 241.252Z" fill="#8BC5E4"/>
<path d="M138.689 256.882L153.013 224.612L101.052 194.612L86.7275 226.882L138.689 256.882Z" fill="#8BC5E4"/>
<path d="M153.013 224.612L143.392 230.167L91.4302 200.167L101.052 194.612L153.013 224.612Z" fill="#8BC5E4"/>
<path d="M143.392 230.167V204.707L91.4302 174.707V200.167L143.392 230.167Z" fill="#8BC5E4"/>
<path d="M154.979 192.467L170.723 201.357L118.762 171.357L103.018 162.467L154.979 192.467Z" fill="#8BC5E4"/>
<path d="M170.724 201.357L163.934 213.127L111.972 183.127L118.762 171.357L170.724 201.357Z" fill="#8BC5E4"/>
<path d="M163.934 213.127L188.962 203.787L137.001 173.787L111.972 183.127L163.934 213.127Z" fill="#8BC5E4"/>
<path d="M188.962 203.787L184.259 177.902L132.298 147.902L137 173.787L188.962 203.787Z" fill="#8BC5E4"/>
<path d="M184.259 177.902L177.461 189.677L125.5 159.677L132.298 147.902L184.259 177.902Z" fill="#8BC5E4"/>
<path d="M177.461 189.677L161.76 180.792L109.799 150.792L125.5 159.677L177.461 189.677Z" fill="#8BC5E4"/>
<path d="M166.566 164.657L188.737 151.857L136.775 121.857L114.605 134.657L166.566 164.657Z" fill="#8BC5E4"/>
<path d="M188.737 151.857V162.927L136.775 132.927V121.857L188.737 151.857Z" fill="#8BC5E4"/>
<path d="M188.737 162.927L209.617 134.212L157.655 104.212L136.775 132.927L188.737 162.927Z" fill="#8BC5E4"/>
<path d="M209.617 134.212L188.737 129.797L136.775 99.7974L157.655 104.212L209.617 134.212Z" fill="#8BC5E4"/>
<path d="M188.737 129.797V140.867L136.775 110.867V99.7974L188.737 129.797Z" fill="#8BC5E4"/>
<path d="M188.737 140.867L166.593 153.652L114.631 123.652L136.775 110.867L188.737 140.867Z" fill="#8BC5E4"/>
<path d="M161.691 143.052L177.357 115.977L125.396 85.9773L109.729 113.052L161.691 143.052Z" fill="#8BC5E4"/>
<path d="M177.357 115.977L184.164 119.867L132.203 89.8673L125.396 85.9773L177.357 115.977Z" fill="#8BC5E4"/>
<path d="M184.164 119.867L188.789 88.5874L136.827 58.5874L132.203 89.8674L184.164 119.867Z" fill="#8BC5E4"/>
<path d="M188.789 88.5874L163.769 108.232L111.808 78.2324L136.827 58.5874L188.789 88.5874Z" fill="#8BC5E4"/>
<path d="M163.769 108.232L170.585 112.127L118.623 82.1274L111.808 78.2324L163.769 108.232Z" fill="#8BC5E4"/>
<path d="M170.585 112.127L154.918 139.202L102.957 109.202L118.623 82.1272L170.585 112.127Z" fill="#8BC5E4"/>
<path d="M143.392 140.417V114.927L91.4302 84.9272V110.417L143.392 140.417Z" fill="#8BC5E4"/>
<path d="M143.392 114.927L153.022 109.367L101.06 79.3672L91.4302 84.9272L143.392 114.927Z" fill="#8BC5E4"/>
<path d="M153.022 109.367L138.689 93.6421L86.7275 63.6421L101.06 79.3671L153.022 109.367Z" fill="#8BC5E4"/>
<path d="M138.689 93.6421L86.7275 63.6421L138.689 93.6421Z" fill="#8BC5E4"/>
<path d="M52.0001 137.522V313.092L0.0385742 283.092V107.522L52.0001 137.522Z" fill="#8BC5E4"/>
<path d="M62.626 319.177L214.579 231.447L162.617 201.447L10.6646 289.177L62.626 319.177Z" fill="#8BC5E4"/>
<path d="M225.205 213.092V37.5222L173.244 7.52222V183.092L225.205 213.092Z" fill="#8BC5E4"/>
<path d="M214.579 31.4473L62.626 119.177L10.6646 89.1773L162.617 1.44727L214.579 31.4473Z" fill="#8BC5E4"/>
<path d="M62.626 119.177L10.6646 89.1772L62.626 119.177Z" fill="#8BC5E4"/>
<path d="M62.626 124.697L214.579 36.9673L162.617 6.96729L10.6646 94.6973L62.626 124.697Z" fill="#8BC5E4"/>
<path d="M220.407 40.2922V215.862L168.446 185.862V10.2922L220.407 40.2922Z" fill="#8BC5E4"/>
<path d="M214.579 225.927L62.626 313.657L10.6646 283.657L162.617 195.927L214.579 225.927Z" fill="#8BC5E4"/>
<path d="M56.7977 310.322V134.752L4.83618 104.752V280.322L56.7977 310.322Z" fill="#8BC5E4"/>
<path d="M62.626 124.697L10.6646 94.6973L62.626 124.697Z" fill="#8BC5E4"/>
<path d="M62.626 119.177L214.579 31.4473L162.617 1.44727L10.6646 89.1773L62.626 119.177Z" fill="#8BC5E4"/>
<path d="M225.205 37.5322V213.092L173.244 183.092V7.53223L225.205 37.5322Z" fill="#8BC5E4"/>
<path d="M214.579 231.447L62.626 319.177L10.6646 289.177L162.617 201.447L214.579 231.447Z" fill="#8BC5E4"/>
<path d="M52.0001 313.092V137.532L0.0385742 107.532V283.092L52.0001 313.092Z" fill="#8BC5E4"/>
<path d="M52.0001 137.532L0.0385742 107.532L52.0001 137.532Z" fill="#8BC5E4"/>
<path d="M214.579 36.9673L62.626 124.697L10.6646 94.6973L162.617 6.96729L214.579 36.9673Z" fill="#8BC5E4"/>
<path d="M56.7977 134.752V310.322L4.83618 280.322V104.752L56.7977 134.752Z" fill="#8BC5E4"/>
<path d="M62.626 313.657L214.579 225.927L162.617 195.927L10.6646 283.657L62.626 313.657Z" fill="#8BC5E4"/>
<path d="M220.407 215.862V40.2922L168.446 10.2922V185.862L220.407 215.862Z" fill="#8BC5E4"/>
<path d="M214.579 36.9673L162.617 6.96729L214.579 36.9673Z" fill="#8BC5E4"/>
<path d="M138.689 93.6421L124.192 126.012L72.2305 96.0121L86.7277 63.6421L138.689 93.6421Z" fill="#8BC5E4"/>
<path d="M124.192 126.012L133.831 120.447L81.8693 90.4473L72.2305 96.0123L124.192 126.012Z" fill="#8BC5E4"/>
<path d="M133.831 120.447V145.897L81.8691 115.897V90.4473L133.831 120.447Z" fill="#8BC5E4"/>
<path d="M122.087 158.357L106.36 149.467L54.3989 119.467L70.1259 128.357L122.087 158.357Z" fill="#8BC5E4"/>
<path d="M106.36 149.467L113.15 137.707L61.1885 107.707L54.3989 119.467L106.36 149.467Z" fill="#8BC5E4"/>
<path d="M113.15 137.707L88.2431 146.837L36.2815 116.837L61.1884 107.707L113.15 137.707Z" fill="#8BC5E4"/>
<path d="M88.2431 146.837L92.8243 172.932L40.8628 142.932L36.2815 116.837L88.2431 146.837Z" fill="#8BC5E4"/>
<path d="M92.8243 172.932L99.6226 161.157L47.6611 131.157L40.8628 142.932L92.8243 172.932Z" fill="#8BC5E4"/>
<path d="M99.6226 161.157L115.35 170.047L63.3881 140.047L47.6611 131.157L99.6226 161.157Z" fill="#8BC5E4"/>
<path d="M110.647 185.952L88.4683 198.757L36.5068 168.757L58.6857 155.952L110.647 185.952Z" fill="#8BC5E4"/>
<path d="M88.4683 198.757V187.687L36.5068 157.687V168.757L88.4683 198.757Z" fill="#8BC5E4"/>
<path d="M88.4684 187.687L67.5886 216.212L15.627 186.212L36.5069 157.687L88.4684 187.687Z" fill="#8BC5E4"/>
<path d="M67.5886 216.212L88.4684 220.817L36.5069 190.817L15.627 186.212L67.5886 216.212Z" fill="#8BC5E4"/>
<path d="M88.4683 220.817V209.747L36.5068 179.747V190.817L88.4683 220.817Z" fill="#8BC5E4"/>
<path d="M88.4683 209.747L110.613 196.962L58.6511 166.962L36.5068 179.747L88.4683 209.747Z" fill="#8BC5E4"/>
<path d="M115.419 207.467L99.7267 234.577L47.7651 204.577L63.4575 177.467L115.419 207.467Z" fill="#8BC5E4"/>
<path d="M99.7268 234.577L92.9198 230.677L40.9583 200.677L47.7652 204.577L99.7268 234.577Z" fill="#8BC5E4"/>
<path d="M92.9197 230.677L88.4164 262.037L36.4548 232.037L40.9582 200.677L92.9197 230.677Z" fill="#8BC5E4"/>
<path d="M88.4164 262.037L113.306 242.317L61.3444 212.317L36.4548 232.037L88.4164 262.037Z" fill="#8BC5E4"/>
<path d="M113.306 242.317L106.499 238.427L54.5376 208.427L61.3445 212.317L113.306 242.317Z" fill="#8BC5E4"/>
<path d="M106.499 238.427L122.157 211.377L70.1953 181.377L54.5376 208.427L106.499 238.427Z" fill="#8BC5E4"/>
<path d="M133.831 210.197V235.687L81.8691 205.687V180.197L133.831 210.197Z" fill="#8BC5E4"/>
<path d="M133.831 235.687L124.192 241.252L72.2305 211.252L81.8693 205.687L133.831 235.687Z" fill="#8BC5E4"/>
<path d="M124.192 241.252L138.689 256.882L86.7277 226.882L72.2305 211.252L124.192 241.252Z" fill="#8BC5E4"/>
<path d="M138.689 256.882L153.013 224.612L101.052 194.612L86.7275 226.882L138.689 256.882Z" fill="#8BC5E4"/>
<path d="M153.013 224.612L143.392 230.167L91.4302 200.167L101.052 194.612L153.013 224.612Z" fill="#8BC5E4"/>
<path d="M143.392 230.167V204.707L91.4302 174.707V200.167L143.392 230.167Z" fill="#8BC5E4"/>
<path d="M154.979 192.467L170.723 201.357L118.762 171.357L103.018 162.467L154.979 192.467Z" fill="#8BC5E4"/>
<path d="M170.724 201.357L163.934 213.127L111.972 183.127L118.762 171.357L170.724 201.357Z" fill="#8BC5E4"/>
<path d="M163.934 213.127L188.962 203.787L137.001 173.787L111.972 183.127L163.934 213.127Z" fill="#8BC5E4"/>
<path d="M188.962 203.787L184.259 177.902L132.298 147.902L137 173.787L188.962 203.787Z" fill="#8BC5E4"/>
<path d="M184.259 177.902L177.461 189.677L125.5 159.677L132.298 147.902L184.259 177.902Z" fill="#8BC5E4"/>
<path d="M177.461 189.677L161.76 180.792L109.799 150.792L125.5 159.677L177.461 189.677Z" fill="#8BC5E4"/>
<path d="M166.566 164.657L188.737 151.857L136.775 121.857L114.605 134.657L166.566 164.657Z" fill="#8BC5E4"/>
<path d="M188.737 151.857V162.927L136.775 132.927V121.857L188.737 151.857Z" fill="#8BC5E4"/>
<path d="M188.737 162.927L209.617 134.212L157.655 104.212L136.775 132.927L188.737 162.927Z" fill="#8BC5E4"/>
<path d="M209.617 134.212L188.737 129.797L136.775 99.7974L157.655 104.212L209.617 134.212Z" fill="#8BC5E4"/>
<path d="M188.737 129.797V140.867L136.775 110.867V99.7974L188.737 129.797Z" fill="#8BC5E4"/>
<path d="M188.737 140.867L166.593 153.652L114.631 123.652L136.775 110.867L188.737 140.867Z" fill="#8BC5E4"/>
<path d="M161.691 143.052L177.357 115.977L125.396 85.9773L109.729 113.052L161.691 143.052Z" fill="#8BC5E4"/>
<path d="M177.357 115.977L184.164 119.867L132.203 89.8673L125.396 85.9773L177.357 115.977Z" fill="#8BC5E4"/>
<path d="M184.164 119.867L188.789 88.5874L136.827 58.5874L132.203 89.8674L184.164 119.867Z" fill="#8BC5E4"/>
<path d="M188.789 88.5874L163.769 108.232L111.808 78.2324L136.827 58.5874L188.789 88.5874Z" fill="#8BC5E4"/>
<path d="M163.769 108.232L170.585 112.127L118.623 82.1274L111.808 78.2324L163.769 108.232Z" fill="#8BC5E4"/>
<path d="M170.585 112.127L154.918 139.202L102.957 109.202L118.623 82.1272L170.585 112.127Z" fill="#8BC5E4"/>
<path d="M143.392 140.417V114.927L91.4302 84.9272V110.417L143.392 140.417Z" fill="#8BC5E4"/>
<path d="M143.392 114.927L153.022 109.367L101.06 79.3672L91.4302 84.9272L143.392 114.927Z" fill="#8BC5E4"/>
<path d="M153.022 109.367L138.689 93.6421L86.7275 63.6421L101.06 79.3671L153.022 109.367Z" fill="#8BC5E4"/>
<path d="M138.689 93.6421L86.7275 63.6421L138.689 93.6421Z" fill="#8BC5E4"/>
<path d="M62.626 124.697L214.579 36.9673L162.617 6.96729L10.6646 94.6973L62.626 124.697Z" fill="#8BC5E4"/>
<path d="M220.407 40.2922V215.862L168.446 185.862V10.2922L220.407 40.2922Z" fill="#8BC5E4"/>
<path d="M214.579 225.927L62.626 313.657L10.6646 283.657L162.617 195.927L214.579 225.927Z" fill="#8BC5E4"/>
<path d="M56.7977 310.322V134.752L4.83618 104.752V280.322L56.7977 310.322Z" fill="#8BC5E4"/>
<path d="M62.626 124.697L10.6646 94.6973L62.626 124.697Z" fill="#8BC5E4"/>
<path d="M124.192 126.012L138.689 93.6421L86.7277 63.6421L72.2305 96.0121L124.192 126.012Z" fill="#8BC5E4"/>
<path d="M138.689 93.6421L153.022 109.367L101.06 79.3671L86.7275 63.6421L138.689 93.6421Z" fill="#8BC5E4"/>
<path d="M153.022 109.367L143.392 114.927L91.4302 84.9272L101.06 79.3672L153.022 109.367Z" fill="#8BC5E4"/>
<path d="M143.392 114.927V140.417L91.4302 110.417V84.9272L143.392 114.927Z" fill="#8BC5E4"/>
<path d="M154.918 139.202L170.585 112.127L118.623 82.1272L102.957 109.202L154.918 139.202Z" fill="#8BC5E4"/>
<path d="M170.585 112.127L163.769 108.232L111.808 78.2324L118.623 82.1274L170.585 112.127Z" fill="#8BC5E4"/>
<path d="M163.769 108.232L188.789 88.5874L136.827 58.5874L111.808 78.2324L163.769 108.232Z" fill="#8BC5E4"/>
<path d="M188.789 88.5874L184.164 119.867L132.203 89.8674L136.827 58.5874L188.789 88.5874Z" fill="#8BC5E4"/>
<path d="M184.164 119.867L177.357 115.977L125.396 85.9773L132.203 89.8673L184.164 119.867Z" fill="#8BC5E4"/>
<path d="M177.357 115.977L161.691 143.052L109.729 113.052L125.396 85.9773L177.357 115.977Z" fill="#8BC5E4"/>
<path d="M166.593 153.652L188.737 140.867L136.775 110.867L114.631 123.652L166.593 153.652Z" fill="#8BC5E4"/>
<path d="M188.737 140.867V129.797L136.775 99.7974V110.867L188.737 140.867Z" fill="#8BC5E4"/>
<path d="M188.737 129.797L209.617 134.212L157.655 104.212L136.775 99.7974L188.737 129.797Z" fill="#8BC5E4"/>
<path d="M209.617 134.212L188.737 162.927L136.775 132.927L157.655 104.212L209.617 134.212Z" fill="#8BC5E4"/>
<path d="M188.737 162.927V151.857L136.775 121.857V132.927L188.737 162.927Z" fill="#8BC5E4"/>
<path d="M188.737 151.857L166.566 164.657L114.605 134.657L136.775 121.857L188.737 151.857Z" fill="#8BC5E4"/>
<path d="M161.76 180.792L177.461 189.677L125.5 159.677L109.799 150.792L161.76 180.792Z" fill="#8BC5E4"/>
<path d="M177.461 189.677L184.259 177.902L132.298 147.902L125.5 159.677L177.461 189.677Z" fill="#8BC5E4"/>
<path d="M184.259 177.902L188.962 203.787L137 173.787L132.298 147.902L184.259 177.902Z" fill="#8BC5E4"/>
<path d="M188.962 203.787L163.934 213.127L111.972 183.127L137.001 173.787L188.962 203.787Z" fill="#8BC5E4"/>
<path d="M163.934 213.127L170.724 201.357L118.762 171.357L111.972 183.127L163.934 213.127Z" fill="#8BC5E4"/>
<path d="M170.723 201.357L154.979 192.467L103.018 162.467L118.762 171.357L170.723 201.357Z" fill="#8BC5E4"/>
<path d="M143.392 204.707V230.167L91.4302 200.167V174.707L143.392 204.707Z" fill="#8BC5E4"/>
<path d="M143.392 230.167L153.013 224.612L101.052 194.612L91.4302 200.167L143.392 230.167Z" fill="#8BC5E4"/>
<path d="M153.013 224.612L138.689 256.882L86.7275 226.882L101.052 194.612L153.013 224.612Z" fill="#8BC5E4"/>
<path d="M138.689 256.882L124.192 241.252L72.2305 211.252L86.7277 226.882L138.689 256.882Z" fill="#8BC5E4"/>
<path d="M124.192 241.252L133.831 235.687L81.8693 205.687L72.2305 211.252L124.192 241.252Z" fill="#8BC5E4"/>
<path d="M133.831 235.687V210.197L81.8691 180.197V205.687L133.831 235.687Z" fill="#8BC5E4"/>
<path d="M122.157 211.377L106.499 238.427L54.5376 208.427L70.1953 181.377L122.157 211.377Z" fill="#8BC5E4"/>
<path d="M106.499 238.427L113.306 242.317L61.3445 212.317L54.5376 208.427L106.499 238.427Z" fill="#8BC5E4"/>
<path d="M113.306 242.317L88.4164 262.037L36.4548 232.037L61.3444 212.317L113.306 242.317Z" fill="#8BC5E4"/>
<path d="M88.4164 262.037L92.9197 230.677L40.9582 200.677L36.4548 232.037L88.4164 262.037Z" fill="#8BC5E4"/>
<path d="M92.9198 230.677L99.7268 234.577L47.7652 204.577L40.9583 200.677L92.9198 230.677Z" fill="#8BC5E4"/>
<path d="M99.7267 234.577L115.419 207.467L63.4575 177.467L47.7651 204.577L99.7267 234.577Z" fill="#8BC5E4"/>
<path d="M110.613 196.962L88.4683 209.747L36.5068 179.747L58.6511 166.962L110.613 196.962Z" fill="#8BC5E4"/>
<path d="M88.4683 209.747V220.817L36.5068 190.817V179.747L88.4683 209.747Z" fill="#8BC5E4"/>
<path d="M88.4684 220.817L67.5886 216.212L15.627 186.212L36.5069 190.817L88.4684 220.817Z" fill="#8BC5E4"/>
<path d="M67.5886 216.212L88.4684 187.687L36.5069 157.687L15.627 186.212L67.5886 216.212Z" fill="#8BC5E4"/>
<path d="M88.4683 187.687V198.757L36.5068 168.757V157.687L88.4683 187.687Z" fill="#8BC5E4"/>
<path d="M88.4683 198.757L110.647 185.952L58.6857 155.952L36.5068 168.757L88.4683 198.757Z" fill="#8BC5E4"/>
<path d="M115.35 170.047L99.6226 161.157L47.6611 131.157L63.3881 140.047L115.35 170.047Z" fill="#8BC5E4"/>
<path d="M99.6226 161.157L92.8243 172.932L40.8628 142.932L47.6611 131.157L99.6226 161.157Z" fill="#8BC5E4"/>
<path d="M92.8243 172.932L88.2431 146.837L36.2815 116.837L40.8628 142.932L92.8243 172.932Z" fill="#8BC5E4"/>
<path d="M88.2431 146.837L113.15 137.707L61.1884 107.707L36.2815 116.837L88.2431 146.837Z" fill="#8BC5E4"/>
<path d="M113.15 137.707L106.36 149.467L54.3989 119.467L61.1885 107.707L113.15 137.707Z" fill="#8BC5E4"/>
<path d="M106.36 149.467L122.087 158.357L70.1259 128.357L54.3989 119.467L106.36 149.467Z" fill="#8BC5E4"/>
<path d="M133.831 145.897V120.447L81.8691 90.4473V115.897L133.831 145.897Z" fill="#8BC5E4"/>
<path d="M133.831 120.447L124.192 126.012L72.2305 96.0123L81.8693 90.4473L133.831 120.447Z" fill="#8BC5E4"/>
<path d="M124.192 126.012L72.2305 96.0122L124.192 126.012Z" fill="#8BC5E4"/>
<path d="M133.831 145.897C129.587 149.197 125.578 153.452 122.087 158.357L70.126 128.357C73.6161 123.452 77.6258 119.197 81.8693 115.897L133.831 145.897Z" fill="#8BC5E4"/>
<path d="M115.35 170.047C112.951 175.372 111.349 180.807 110.647 185.952L58.6858 155.952C59.3873 150.807 60.9894 145.372 63.3883 140.047L115.35 170.047Z" fill="#8BC5E4"/>
<path d="M110.613 196.962C111.34 201.322 112.977 204.917 115.419 207.467L63.4575 177.467C61.0153 174.917 59.3785 171.322 58.6511 166.962L110.613 196.962Z" fill="#8BC5E4"/>
<path d="M122.157 211.377C125.63 212.212 129.622 211.807 133.831 210.197L81.8693 180.197C77.6604 181.807 73.6681 182.212 70.1953 181.377L122.157 211.377Z" fill="#8BC5E4"/>
<path d="M143.392 204.707C147.566 201.467 151.524 197.282 154.979 192.467L103.018 162.467C99.5622 167.282 95.6045 171.467 91.4302 174.707L143.392 204.707Z" fill="#8BC5E4"/>
<path d="M161.76 180.792C164.211 175.387 165.848 169.882 166.567 164.657L114.605 134.657C113.886 139.882 112.249 145.387 109.799 150.792L161.76 180.792Z" fill="#8BC5E4"/>
<path d="M166.592 153.652C165.856 149.237 164.185 145.612 161.691 143.052L109.729 113.052C112.223 115.612 113.895 119.237 114.631 123.652L166.592 153.652Z" fill="#8BC5E4"/>
<path d="M154.919 139.202C151.472 138.422 147.54 138.832 143.392 140.417L91.4302 110.417C95.5785 108.832 99.5103 108.422 102.957 109.202L154.919 139.202Z" fill="#8BC5E4"/>
<path d="M62.6262 119.177C56.7806 122.552 52.0001 130.802 52.0001 137.522L0.0385742 107.522C0.0385742 100.802 4.81897 92.5522 10.6647 89.1772L62.6262 119.177Z" fill="#8BC5E4"/>
<path d="M52.0001 313.092C52.0001 316.459 53.2001 318.826 55.1321 319.927L3.17057 289.927C1.23857 288.826 0.0385742 286.459 0.0385742 283.092L52.0001 313.092Z" fill="#8BC5E4"/>
<path d="M55.1409 319.931C57.0629 321.021 59.7079 320.859 62.6179 319.182L10.6564 289.182C7.74644 290.859 5.10144 291.021 3.17944 289.931L55.1409 319.931Z" fill="#8BC5E4"/>
<path d="M214.579 231.447C220.425 228.072 225.205 219.812 225.205 213.092L173.244 183.092C173.244 189.812 168.463 198.072 162.617 201.447L214.579 231.447Z" fill="#8BC5E4"/>
<path d="M225.205 37.5223C225.205 34.1493 224.001 31.7813 222.062 30.6863L170.101 0.686279C172.04 1.78128 173.244 4.14928 173.244 7.52228L225.205 37.5223Z" fill="#8BC5E4"/>
<path d="M222.064 30.6882C220.142 29.6012 217.497 29.7652 214.588 31.4422L162.626 1.44224C165.535 -0.234765 168.18 -0.398765 170.102 0.688235L222.064 30.6882Z" fill="#8BC5E4"/>
<path d="M214.579 36.9671C216.209 36.0261 217.661 35.9141 218.708 36.5041L166.747 6.50409C165.7 5.91409 164.248 6.02609 162.617 6.96709L214.579 36.9671Z" fill="#8BC5E4"/>
<path d="M218.719 36.5103C219.767 37.1063 220.406 38.4083 220.407 40.2863L168.446 10.2863C168.445 8.40825 167.806 7.10625 166.758 6.51025L218.719 36.5103Z" fill="#8BC5E4"/>
<path d="M220.407 215.862C220.407 219.622 217.853 224.037 214.579 225.927L162.617 195.927C165.891 194.037 168.446 189.622 168.446 185.862L220.407 215.862Z" fill="#8BC5E4"/>
<path d="M62.6261 313.657C60.989 314.602 59.532 314.708 58.484 314.108L6.52246 284.108C7.57046 284.708 9.02746 284.602 10.6646 283.657L62.6261 313.657Z" fill="#8BC5E4"/>
<path d="M58.4859 314.109C57.4379 313.51 56.7989 312.205 56.7979 310.328L4.83643 280.328C4.83743 282.205 5.47643 283.51 6.52443 284.109L58.4859 314.109Z" fill="#8BC5E4"/>
<path d="M56.7977 134.752C56.7977 130.992 59.3525 126.587 62.626 124.697L10.6645 94.6973C7.39088 96.5873 4.83618 100.992 4.83618 104.752L56.7977 134.752Z" fill="#8BC5E4"/>
<path d="M52.0001 137.532C52.0001 130.802 56.7806 122.552 62.6262 119.177L10.6647 89.1772C4.81897 92.5522 0.0385742 100.802 0.0385742 107.532L52.0001 137.532Z" fill="#8BC5E4"/>
<path d="M214.579 31.4471C217.496 29.7631 220.148 29.5991 222.073 30.6941L170.112 0.694141C168.187 -0.400859 165.535 -0.236859 162.617 1.44714L214.579 31.4471Z" fill="#8BC5E4"/>
<path d="M222.081 30.6992C224.007 31.7982 225.202 34.1612 225.205 37.5222L173.243 7.52222C173.24 4.16122 172.045 1.79822 170.119 0.699219L222.081 30.6992Z" fill="#8BC5E4"/>
<path d="M225.205 213.092C225.205 219.822 220.425 228.072 214.579 231.447L162.617 201.447C168.463 198.072 173.244 189.822 173.244 183.092L225.205 213.092Z" fill="#8BC5E4"/>
<path d="M62.626 319.177C59.7089 320.861 57.0569 321.025 55.1319 319.93L3.17041 289.93C5.09541 291.025 7.74741 290.861 10.6645 289.177L62.626 319.177Z" fill="#8BC5E4"/>
<path d="M55.1241 319.925C53.1981 318.825 52.0031 316.463 52.0001 313.102L0.0385742 283.102C0.0415742 286.463 1.23657 288.825 3.16257 289.925L55.1241 319.925Z" fill="#8BC5E4"/>
<path d="M62.626 124.697C59.3525 126.587 56.7977 130.992 56.7977 134.752L4.83618 104.752C4.83618 100.992 7.39088 96.5873 10.6645 94.6973L62.626 124.697Z" fill="#8BC5E4"/>
<path d="M56.7977 310.322C56.7979 312.202 57.4359 313.508 58.4839 314.108L6.52238 284.108C5.47438 283.508 4.83638 282.202 4.83618 280.322L56.7977 310.322Z" fill="#8BC5E4"/>
<path d="M58.4949 314.115C59.5409 314.707 60.9919 314.599 62.6209 313.66L10.6594 283.66C9.03045 284.599 7.57945 284.707 6.53345 284.115L58.4949 314.115Z" fill="#8BC5E4"/>
<path d="M214.579 225.927C217.853 224.037 220.407 219.622 220.407 215.862L168.446 185.862C168.446 189.622 165.891 194.037 162.617 195.927L214.579 225.927Z" fill="#8BC5E4"/>
<path d="M220.407 40.2924C220.407 38.4054 219.764 37.0984 218.708 36.5044L166.747 6.50439C167.803 7.09839 168.446 8.40539 168.446 10.2924L220.407 40.2924Z" fill="#8BC5E4"/>
<path d="M218.71 36.5054C217.664 35.9144 216.213 36.0254 214.584 36.9644L162.623 6.96437C164.252 6.02537 165.703 5.91437 166.749 6.50537L218.71 36.5054Z" fill="#8BC5E4"/>
<path d="M133.831 145.897C129.587 149.197 125.578 153.452 122.087 158.357L70.126 128.357C73.6161 123.452 77.6258 119.197 81.8693 115.897L133.831 145.897Z" fill="#8BC5E4"/>
<path d="M115.35 170.047C112.951 175.372 111.349 180.807 110.647 185.952L58.6858 155.952C59.3873 150.807 60.9894 145.372 63.3883 140.047L115.35 170.047Z" fill="#8BC5E4"/>
<path d="M110.613 196.962C111.34 201.322 112.977 204.917 115.419 207.467L63.4575 177.467C61.0153 174.917 59.3785 171.322 58.6511 166.962L110.613 196.962Z" fill="#8BC5E4"/>
<path d="M122.157 211.377C125.63 212.212 129.622 211.807 133.831 210.197L81.8693 180.197C77.6604 181.807 73.6681 182.212 70.1953 181.377L122.157 211.377Z" fill="#8BC5E4"/>
<path d="M143.392 204.707C147.566 201.467 151.524 197.282 154.979 192.467L103.018 162.467C99.5622 167.282 95.6045 171.467 91.4302 174.707L143.392 204.707Z" fill="#8BC5E4"/>
<path d="M161.76 180.792C164.211 175.387 165.848 169.882 166.567 164.657L114.605 134.657C113.886 139.882 112.249 145.387 109.799 150.792L161.76 180.792Z" fill="#8BC5E4"/>
<path d="M166.592 153.652C165.856 149.237 164.185 145.612 161.691 143.052L109.729 113.052C112.223 115.612 113.895 119.237 114.631 123.652L166.592 153.652Z" fill="#8BC5E4"/>
<path d="M154.919 139.202C151.472 138.422 147.54 138.832 143.392 140.417L91.4302 110.417C95.5785 108.832 99.5103 108.422 102.957 109.202L154.919 139.202Z" fill="#8BC5E4"/>
<path d="M214.579 36.9671C216.209 36.0261 217.661 35.9141 218.708 36.5041L166.747 6.50409C165.7 5.91409 164.248 6.02609 162.617 6.96709L214.579 36.9671Z" fill="#8BC5E4"/>
<path d="M218.719 36.5103C219.767 37.1063 220.406 38.4083 220.407 40.2863L168.446 10.2863C168.445 8.40825 167.806 7.10625 166.758 6.51025L218.719 36.5103Z" fill="#8BC5E4"/>
<path d="M220.407 215.862C220.407 219.622 217.853 224.037 214.579 225.927L162.617 195.927C165.891 194.037 168.446 189.622 168.446 185.862L220.407 215.862Z" fill="#8BC5E4"/>
<path d="M62.6261 313.657C60.989 314.602 59.532 314.708 58.484 314.108L6.52246 284.108C7.57046 284.708 9.02746 284.602 10.6646 283.657L62.6261 313.657Z" fill="#8BC5E4"/>
<path d="M58.4859 314.109C57.4379 313.51 56.7989 312.205 56.7979 310.328L4.83643 280.328C4.83743 282.205 5.47643 283.51 6.52443 284.109L58.4859 314.109Z" fill="#8BC5E4"/>
<path d="M56.7977 134.752C56.7977 130.992 59.3525 126.587 62.626 124.697L10.6645 94.6973C7.39088 96.5873 4.83618 100.992 4.83618 104.752L56.7977 134.752Z" fill="#8BC5E4"/>
<path d="M143.392 140.417C147.54 138.832 151.472 138.422 154.919 139.202L102.957 109.202C99.5103 108.422 95.5785 108.832 91.4302 110.417L143.392 140.417Z" fill="#8BC5E4"/>
<path d="M161.691 143.052C164.185 145.612 165.856 149.237 166.592 153.652L114.631 123.652C113.895 119.237 112.223 115.612 109.729 113.052L161.691 143.052Z" fill="#8BC5E4"/>
<path d="M166.567 164.657C165.848 169.882 164.211 175.387 161.76 180.792L109.799 150.792C112.249 145.387 113.886 139.882 114.605 134.657L166.567 164.657Z" fill="#8BC5E4"/>
<path d="M154.979 192.467C151.524 197.282 147.566 201.467 143.392 204.707L91.4302 174.707C95.6045 171.467 99.5622 167.282 103.018 162.467L154.979 192.467Z" fill="#8BC5E4"/>
<path d="M133.831 210.197C129.622 211.807 125.63 212.212 122.157 211.377L70.1953 181.377C73.6681 182.212 77.6604 181.807 81.8693 180.197L133.831 210.197Z" fill="#8BC5E4"/>
<path d="M115.419 207.467C112.977 204.917 111.34 201.322 110.613 196.962L58.6511 166.962C59.3785 171.322 61.0153 174.917 63.4575 177.467L115.419 207.467Z" fill="#8BC5E4"/>
<path d="M110.647 185.952C111.349 180.807 112.951 175.372 115.35 170.047L63.3883 140.047C60.9894 145.372 59.3873 150.807 58.6858 155.952L110.647 185.952Z" fill="#8BC5E4"/>
<path d="M122.087 158.357C125.578 153.452 129.587 149.197 133.831 145.897L81.8693 115.897C77.6258 119.197 73.6161 123.452 70.126 128.357L122.087 158.357Z" fill="#8BC5E4"/>
<path d="M138.689 93.6423L124.192 126.012L133.831 120.447V145.897C129.587 149.197 125.578 153.452 122.087 158.357L106.36 149.467L113.15 137.707L88.2432 146.837L92.8244 172.932L99.6227 161.157L115.35 170.047C112.951 175.372 111.349 180.807 110.647 185.952L88.4683 198.757V187.687L67.5885 216.212L88.4683 220.817V209.747L110.613 196.962C111.34 201.322 112.977 204.917 115.419 207.467L99.7267 234.577L92.9197 230.677L88.4164 262.037L113.306 242.317L106.499 238.427L122.157 211.377C125.629 212.212 129.622 211.807 133.831 210.197V235.687L124.192 241.252L138.689 256.882L153.013 224.612L143.392 230.167V204.707C147.566 201.467 151.524 197.282 154.979 192.467L170.723 201.357L163.934 213.127L188.962 203.787L184.259 177.902L177.461 189.677L161.76 180.792C164.211 175.387 165.848 169.882 166.566 164.657L188.737 151.857V162.927L209.617 134.212L188.737 129.797V140.867L166.592 153.652C165.856 149.237 164.185 145.612 161.691 143.052L177.357 115.977L184.164 119.867L188.789 88.5873L163.769 108.232L170.585 112.127L154.918 139.202C151.472 138.422 147.54 138.832 143.392 140.417V114.927L153.022 109.367L138.689 93.6423ZM62.6261 119.177C56.7805 122.552 52 130.802 52 137.522V313.092C52 319.812 56.7805 322.552 62.6261 319.177L214.579 231.447C220.425 228.072 225.205 219.812 225.205 213.092V37.5223C225.205 30.8023 220.425 28.0723 214.579 31.4473L62.6261 119.177ZM62.6261 124.697L214.579 36.9673C217.853 35.0773 220.407 36.5323 220.407 40.2923V215.862C220.407 219.622 217.853 224.037 214.579 225.927L62.6261 313.657C59.3526 315.547 56.7978 314.082 56.7978 310.322V134.752C56.7978 130.992 59.3526 126.587 62.6261 124.697Z" fill="#286C89"/>
<path fill-rule="evenodd" clip-rule="evenodd" d="M52 137.532C52 130.802 56.7805 122.552 62.6261 119.177L214.579 31.4473C220.425 28.0723 225.205 30.8023 225.205 37.5323V213.092C225.205 219.822 220.425 228.072 214.579 231.447L62.6261 319.177C56.7805 322.552 52 319.822 52 313.092V137.532ZM214.579 36.9673L62.6261 124.697C59.3526 126.587 56.7978 130.992 56.7978 134.752V310.322C56.7978 314.082 59.3526 315.547 62.6261 313.657L214.579 225.927C217.853 224.037 220.407 219.622 220.407 215.862V40.2923C220.407 36.5323 217.853 35.0773 214.579 36.9673ZM138.689 93.6423L124.192 126.012L133.831 120.447V145.897C129.587 149.197 125.578 153.452 122.087 158.357L106.36 149.467L113.15 137.707L88.2432 146.837L92.8244 172.932L99.6227 161.157L115.35 170.047C112.951 175.372 111.349 180.807 110.647 185.952L88.4683 198.757V187.687L67.5885 216.212L88.4683 220.817V209.747L110.613 196.962C111.34 201.322 112.977 204.917 115.419 207.467L99.7267 234.577L92.9197 230.677L88.4164 262.037L113.306 242.317L106.499 238.427L122.157 211.377C125.629 212.212 129.622 211.807 133.831 210.197V235.687L124.192 241.252L138.689 256.882L153.013 224.612L143.392 230.167V204.707C147.566 201.467 151.524 197.282 154.979 192.467L170.723 201.357L163.934 213.127L188.962 203.787L184.259 177.902L177.461 189.677L161.76 180.792C164.211 175.387 165.848 169.882 166.566 164.657L188.737 151.857V162.927L209.617 134.212L188.737 129.797V140.867L166.592 153.652C165.856 149.237 164.185 145.612 161.691 143.052L177.357 115.977L184.164 119.867L188.789 88.5873L163.769 108.232L170.585 112.127L154.918 139.202C151.472 138.422 147.54 138.832 143.392 140.417V114.927L153.022 109.367L138.689 93.6423Z" fill="#8BC5E4"/>
<path fill-rule="evenodd" clip-rule="evenodd" d="M62.6261 124.697L214.579 36.9673C217.853 35.0773 220.407 36.5323 220.407 40.2923V215.862C220.407 219.622 217.853 224.037 214.579 225.927L62.6261 313.657C59.3526 315.547 56.7978 314.082 56.7978 310.322V134.752C56.7978 130.992 59.3526 126.587 62.6261 124.697ZM124.192 126.012L138.689 93.6423L153.022 109.367L143.392 114.927V140.417C147.54 138.832 151.472 138.422 154.918 139.202L170.585 112.127L163.769 108.232L188.789 88.5873L184.164 119.867L177.357 115.977L161.691 143.052C164.185 145.612 165.856 149.237 166.592 153.652L188.737 140.867V129.797L209.617 134.212L188.737 162.927V151.857L166.566 164.657C165.848 169.882 164.211 175.387 161.76 180.792L177.461 189.677L184.259 177.902L188.962 203.787L163.934 213.127L170.723 201.357L154.979 192.467C151.524 197.282 147.566 201.467 143.392 204.707V230.167L153.013 224.612L138.689 256.882L124.192 241.252L133.831 235.687V210.197C129.622 211.807 125.629 212.212 122.157 211.377L106.499 238.427L113.306 242.317L88.4164 262.037L92.9197 230.677L99.7267 234.577L115.419 207.467C112.977 204.917 111.34 201.322 110.613 196.962L88.4683 209.747V220.817L67.5885 216.212L88.4683 187.687V198.757L110.647 185.952C111.349 180.807 112.951 175.372 115.35 170.047L99.6227 161.157L92.8244 172.932L88.2432 146.837L113.15 137.707L106.36 149.467L122.087 158.357C125.578 153.452 129.587 149.197 133.831 145.897V120.447L124.192 126.012Z" fill="white"/>
</svg>
